<?xml version="1.0" encoding="utf-8"?>
<!-- Generator: Adobe Illustrator 15.1.0, SVG Export Plug-In . SVG Version: 6.00 Build 0)  -->
<!DOCTYPE svg PUBLIC "-//W3C//DTD SVG 1.1//EN" "http://www.w3.org/Graphics/SVG/1.1/DTD/svg11.dtd">
<svg version="1.1" id="Layer_3" xmlns="http://www.w3.org/2000/svg" xmlns:xlink="http://www.w3.org/1999/xlink" x="0px" y="0px"
	 width="283.46px" height="283.46px" viewBox="0 0 283.46 283.46" enable-background="new 0 0 283.46 283.46" xml:space="preserve">
<g>
	<rect x="214.902" y="72.427" width="10.09" height="10.097"/>
	<rect x="171.267" y="102.103" width="19.975" height="49.615"/>
	<path d="M141.73,7.084C67.368,7.084,7.084,67.368,7.084,141.73c0,74.363,60.283,134.646,134.646,134.646
		c74.363,0,134.646-60.282,134.646-134.646C276.375,67.368,216.093,7.084,141.73,7.084z M205.238,67.594
		c0-2.669,2.164-4.832,4.832-4.832h19.754c2.67,0,4.834,2.163,4.834,4.832v19.763c0,2.669-2.164,4.833-4.834,4.833H210.07
		c-2.668,0-4.832-2.164-4.832-4.833V67.594z M161.601,97.27c0-2.669,2.164-4.832,4.834-4.832h29.641
		c2.668,0,4.832,2.163,4.832,4.832v59.28c0,2.669-2.164,4.832-4.832,4.832h-29.641c-2.67,0-4.834-2.163-4.834-4.832V97.27z
		 M72.565,131.743c-2.668,0-4.832-2.163-4.832-4.833c0-2.668,2.164-4.832,4.832-4.832h19.873v-19.975H72.565
		c-2.668,0-4.832-2.164-4.832-4.833s2.164-4.832,4.832-4.832H97.27c2.669,0,4.833,2.163,4.833,4.832v59.28
		c0,2.669-2.164,4.832-4.833,4.832H72.565c-2.668,0-4.832-2.163-4.832-4.832c0-2.67,2.164-4.834,4.832-4.834h19.873v-19.974
		L72.565,131.743L72.565,131.743z M125.743,196.378c0,1.197-0.443,2.351-1.245,3.238l-17.584,19.486
		c-0.954,1.057-2.269,1.595-3.589,1.595c-1.154,0-2.312-0.409-3.236-1.243c-1.981-1.789-2.138-4.846-0.35-6.826l9.638-10.683
		c-23.196-1.88-44.296-6.237-60.033-12.446c-19.361-7.642-29.596-17.58-29.596-28.744c0-6.739,3.708-13.026,11.022-18.69
		c6.304-4.881,15.167-9.193,26.345-12.819c2.538-0.823,5.265,0.567,6.087,3.106c0.824,2.539-0.567,5.265-3.106,6.088
		c-19.212,6.231-30.683,14.574-30.683,22.315c0,6.666,8.557,13.865,23.478,19.752c15.188,5.994,35.846,10.175,58.654,11.914
		l-10.809-12.777c-1.724-2.038-1.469-5.087,0.568-6.811c2.037-1.725,5.087-1.47,6.811,0.567l16.485,19.487
		c0.738,0.871,1.143,1.978,1.143,3.121V196.378z M151.498,156.55c0,2.669-2.164,4.832-4.832,4.832h-29.64
		c-2.669,0-4.833-2.163-4.833-4.832V97.27c0-2.669,2.164-4.832,4.833-4.832h24.705c2.669,0,4.832,2.163,4.832,4.832
		s-2.163,4.833-4.832,4.833h-19.872v19.975h24.809c2.668,0,4.832,2.164,4.832,4.833v29.639H151.498z M221.148,189.5
		c-10.486,4.138-23.355,7.451-37.639,9.76c-2.588,0.531-5.377,0.934-8.344,1.21c-0.424,0.055-0.844,0.112-1.27,0.166v-0.063
		c-4.259,0.34-8.874,0.432-13.852,0.256c-2.668-0.095-4.756-2.334-4.658-5c0.094-2.668,2.332-4.755,5-4.66
		c5.019,0.179,9.617,0.063,13.756-0.313c16.727-2.176,31.727-5.715,43.457-10.345c14.921-5.887,23.479-13.088,23.479-19.754
		c0-7.74-11.472-16.082-30.685-22.314c-2.539-0.822-3.931-3.549-3.104-6.088c0.821-2.539,3.549-3.93,6.088-3.106
		c11.177,3.626,20.039,7.938,26.344,12.819c7.314,5.664,11.023,11.951,11.023,18.689C250.744,171.919,240.509,181.859,221.148,189.5
		z"/>
	<rect x="121.858" y="131.743" width="19.975" height="19.975"/>
</g>
</svg>
