<?xml version="1.0" encoding="utf-8"?>
<!-- Generator: Adobe Illustrator 15.1.0, SVG Export Plug-In . SVG Version: 6.00 Build 0)  -->
<!DOCTYPE svg PUBLIC "-//W3C//DTD SVG 1.1//EN" "http://www.w3.org/Graphics/SVG/1.1/DTD/svg11.dtd">
<svg version="1.1" id="Layer_1" xmlns:serif="http://www.serif.com/"
	 xmlns="http://www.w3.org/2000/svg" xmlns:xlink="http://www.w3.org/1999/xlink" x="0px" y="0px" width="283.46px"
	 height="283.46px" viewBox="0 0 283.46 283.46" enable-background="new 0 0 283.46 283.46" xml:space="preserve">
<g>
	<g>
		<path d="M145.437,222.695c-2.965,0-5.405,0.309-7.322,0.928l15.385-20.203h-12.233l-15.475,20.479
			c-2.843,3.769-4.773,6.998-5.792,9.685c-1.021,2.688-1.531,5.64-1.531,8.853c0,5.993,2.054,10.719,6.165,14.179
			c4.108,3.461,9.653,5.189,16.632,5.189c7.414,0,13.252-1.792,17.516-5.374c4.262-3.586,6.395-8.526,6.395-14.828
			c0-5.685-1.791-10.256-5.375-13.715C156.216,224.423,151.427,222.695,145.437,222.695z M150.255,248.966
			c-2.039,1.699-4.85,2.548-8.435,2.548c-3.644,0-6.454-0.833-8.432-2.501s-2.966-4.047-2.966-7.137
			c0-2.902,1.003-5.205,3.011-6.903c2.008-1.698,4.804-2.55,8.386-2.55c3.646,0,6.473,0.836,8.479,2.504
			c2.008,1.668,3.012,3.984,3.012,6.949C153.312,244.906,152.294,247.267,150.255,248.966z"/>
	</g>
	<g>
		<path d="M102.693,230.849c5.189-2.408,7.784-6.455,7.784-12.141c0-2.904-0.835-5.562-2.503-7.971
			c-1.668-2.408-4.078-4.322-7.229-5.744c-3.151-1.424-6.888-2.135-11.214-2.135c-6.919,0-12.385,1.623-16.401,4.867
			c-4.017,3.242-6.025,7.955-6.025,14.132v0.558h11.77v-0.463c0-2.721,0.942-4.805,2.826-6.257c1.884-1.45,4.402-2.179,7.553-2.179
			c2.841,0,5.096,0.587,6.764,1.762c1.668,1.176,2.503,2.872,2.503,5.098c0,4.635-3.211,6.951-9.638,6.951h-5.375v9.357h6.022
			c7.228,0,10.843,2.379,10.843,7.137c0,2.409-0.866,4.232-2.595,5.469c-1.729,1.235-4.263,1.854-7.599,1.854
			c-3.211,0-5.854-0.68-7.923-2.039c-2.069-1.359-3.136-3.396-3.197-6.117h-11.77c0.063,6.303,2.023,11.014,5.885,14.135
			c3.862,3.117,9.376,4.681,16.541,4.681c7.538,0,13.177-1.652,16.914-4.959c3.737-3.306,5.606-7.554,5.606-12.741
			c0-3.459-0.833-6.305-2.501-8.525C108.066,233.355,105.719,231.777,102.693,230.849z"/>
	</g>
	<g>
		<path d="M210.375,227.93c-3.984-2.935-10.023-4.402-18.117-4.402h-6.949v-10.101h25.762v-10.008h-37.438v30.117h16.309
			c5.129,0,8.805,0.664,11.027,1.99c2.225,1.328,3.336,3.633,3.336,6.903c0,2.966-0.818,5.253-2.455,6.856
			c-1.637,1.606-4.123,2.408-7.459,2.408c-3.52,0-6.211-0.74-8.063-2.224c-1.854-1.481-2.779-3.644-2.779-6.487h-11.676
			c0,6.18,1.979,10.859,5.93,14.041c3.955,3.182,9.424,4.771,16.404,4.771c6.855,0,12.264-1.762,16.217-5.282
			c3.955-3.521,5.932-8.37,5.932-14.548C216.351,235.544,214.361,230.865,210.375,227.93z"/>
	</g>
	<g>
		<polygon points="163.763,21.659 67.105,56.79 67.105,162.109 102.32,148.925 102.32,61.286 163.763,47.92 163.548,175.21 
			67.105,162.109 163.548,197.166 216.351,184.048 216.351,34.813 		"/>
	</g>
</g>
</svg>
