<?xml version="1.0" encoding="utf-8"?>
<!-- Generator: Adobe Illustrator 15.1.0, SVG Export Plug-In . SVG Version: 6.00 Build 0)  -->
<!DOCTYPE svg PUBLIC "-//W3C//DTD SVG 1.1//EN" "http://www.w3.org/Graphics/SVG/1.1/DTD/svg11.dtd">
<svg version="1.1" id="Layer_7" xmlns="http://www.w3.org/2000/svg" xmlns:xlink="http://www.w3.org/1999/xlink" x="0px" y="0px"
	 width="283.465px" height="283.465px" viewBox="0 0 283.465 283.465" enable-background="new 0 0 283.465 283.465"
	 xml:space="preserve">
<g>
	<polygon fill="none" points="81.497,250.176 104.482,250.176 104.483,250.176 104.483,243.105 81.497,243.105 	"/>
	<rect x="47.902" y="219.245" fill="none" width="22.986" height="7.071"/>
	<polygon fill="none" points="81.497,262.105 104.482,262.105 104.483,262.105 104.483,255.035 81.497,255.035 	"/>
	<polygon fill="none" points="81.497,238.247 104.482,238.247 104.483,238.247 104.483,231.175 81.497,231.175 	"/>
	<polygon fill="none" points="81.497,226.316 104.482,226.316 104.483,226.316 104.483,219.245 81.497,219.245 	"/>
	<path fill="none" d="M232.752,219.245h-10.357h-7.563h-16.385h-19.689c-3.324,0-6.025,3.204-6.025,7.165v28.656
		c0,3.961,2.701,7.166,6.025,7.166h53.996c3.334,0,6.023-3.205,6.023-7.166V226.41C238.777,222.449,236.086,219.245,232.752,219.245
		z"/>
	<rect x="47.902" y="255.035" fill="none" width="22.986" height="7.07"/>
	<rect x="47.902" y="243.105" fill="none" width="22.986" height="7.07"/>
	<polygon fill="none" points="47.902,233.648 47.902,238.247 70.888,238.247 70.888,231.173 47.902,231.173 	"/>
	<path fill="none" d="M253.273,22.212H30.191v17.02v11.463v7.739v34.048v119.309h223.083l0.008-119.309h0.002V39.233h-0.01V22.212z
		 M169.695,33.805l1.43-0.004c4.01,0,7.262,3.248,7.262,7.262c0,4.013-3.242,7.261-7.262,7.261h-1.43V33.805z M112.359,33.804h1.428
		v14.518h-1.428c-4.014,0-7.26-3.244-7.262-7.256C105.097,37.052,108.344,33.804,112.359,33.804z M141.232,208.374h-4.487h-4.487
		l-97.546-0.004l34.291-36.505h37.032v25.693c0,0.984,0.714,1.821,1.685,1.976l33.287,5.307c0.104,0.017,0.21,0.024,0.314,0.024
		c0.154,0,0.305-0.024,0.453-0.061c-0.043-0.011-0.087-0.021-0.13-0.035c-0.079,0.01-0.157,0.021-0.237,0.021
		c-0.104,0-0.21-0.008-0.315-0.025l-32.803-5.23c-0.971-0.154-1.685-0.991-1.685-1.975v-34.713c0-0.013,0.004-0.024,0.004-0.037
		l-3.091-0.472l3.301-0.379c0.118-0.237,0.277-0.453,0.482-0.63c0.442-0.38,1.027-0.544,1.605-0.46l3.178,0.484l30.021-3.448
		l0.059,0.008l28.411,3.446l3.968-0.645c0.614-0.395,1.392-0.421,2.032-0.07c0.585,0.319,0.946,0.91,1.009,1.565l1.082,0.131
		l-1.057,0.172v35.047c0,0.983-0.714,1.82-1.686,1.975l-33.319,5.313c0.078,0.011,0.155,0.025,0.235,0.025
		c0.104,0,0.21-0.007,0.314-0.025l33.336-5.313c0.971-0.156,1.686-0.993,1.686-1.977v-25.692v-0.001h26.313l34.291,36.505
		L141.232,208.374z M134.641,110.733h14.181l-6.607,18.944c-0.143,0.411-0.82,0.411-0.965,0L134.641,110.733z M238.885,75.289
		h-32.242h-21.535h-16.276h-0.002v2.17h-15.106v2.742h15.106V81.9h-15.106v2.742h15.106v1.7h-15.106v2.742h15.106v1.698h-15.106
		v2.742h15.106v1.699h-15.106v2.743h15.106v1.7h-15.106v2.742h15.106v1.698h-15.106v2.265c0,0.165-0.035,0.322-0.08,0.478h15.188
		v0.344c0,1.104-0.896,2-2,2h-16.228c0.002,0.037,0.006,0.073,0.006,0.111c0,0.787-0.268,1.426-0.594,1.426h-0.975h-0.219h-14.181
		h-0.217h-0.974c-0.328,0-0.594-0.638-0.594-1.426c0-0.038,0.004-0.073,0.005-0.111h-16.229c-1.104,0-2-0.896-2-2v-0.344h15.191
		c-0.045-0.157-0.081-0.314-0.081-0.478v-2.265h-15.11v-1.698h15.11v-2.742h-15.11v-1.7h15.11v-2.743h-15.11v-1.699h15.11v-2.742
		h-15.11v-1.698h15.11v-2.742h-15.11v-1.7h15.11V81.9h-15.11v-1.699h15.11v-2.742h-15.11v-2.157h-50.15H44.583
		c-3.764,0-6.814-3.05-6.814-6.811c0-3.76,3.049-6.81,6.814-6.81h19.899h46.375h3.775V29.775c0-1.104,0.896-2,2-2h50.198
		c1.104,0,2,0.896,2,2h-0.002v31.907h0.002h16.277h21.533h32.242c3.754,0,6.807,3.053,6.814,6.796
		C245.697,72.238,242.648,75.289,238.885,75.289z"/>
	<path d="M255.795,7.087H27.67c-6.952,0-12.604,5.651-12.604,12.604v244.084c0,6.951,5.652,12.604,12.604,12.604h228.125
		c6.952,0,12.604-5.65,12.604-12.604V19.69C268.396,12.738,262.747,7.087,255.795,7.087z M70.888,262.105H47.902v-7.07h22.986
		V262.105z M70.888,250.176H47.902v-7.07h22.986V250.176z M70.888,238.247H47.902v-4.599v-2.476h22.986V238.247z M70.888,226.316
		H47.902v-7.071h22.986V226.316z M104.483,262.105L104.483,262.105H81.497v-7.07h22.986V262.105z M104.483,250.176L104.483,250.176
		H81.497v-7.07h22.986V250.176z M104.483,238.247L104.483,238.247H81.497v-7.072h22.986V238.247z M104.483,226.316L104.483,226.316
		H81.497v-7.071h22.986V226.316z M238.777,255.066c0,3.961-2.689,7.166-6.023,7.166h-53.996c-3.324,0-6.025-3.205-6.025-7.166
		V226.41c0-3.961,2.701-7.165,6.025-7.165h19.689h16.385h7.563h10.357c3.334,0,6.025,3.204,6.025,7.165V255.066z M253.283,92.482
		h-0.002l-0.008,119.309H30.191V92.482V58.434v-7.739V39.232v-17.02h223.083v17.021h0.01V92.482z"/>
	<path d="M112.359,48.322h1.428V33.804h-1.428c-4.015,0-7.262,3.248-7.262,7.262C105.099,45.078,108.345,48.322,112.359,48.322z"/>
	<path d="M178.387,41.063c0-4.014-3.252-7.262-7.262-7.262l-1.43,0.004v14.519h1.43C175.145,48.324,178.387,45.076,178.387,41.063z"
		/>
	<path d="M142.215,129.677l6.607-18.944h-14.181l6.609,18.944C141.395,130.088,142.072,130.088,142.215,129.677z"/>
	<path d="M238.883,61.682h-32.242h-21.533H168.83h-0.002V29.775h0.002c0-1.104-0.896-2-2-2h-50.198c-1.104,0-2,0.896-2,2v31.906
		h-3.775H64.482H44.583c-3.765,0-6.814,3.05-6.814,6.81c0,3.761,3.05,6.811,6.814,6.811h19.899h50.15v2.157h15.11v2.742h-15.11V81.9
		h15.11v2.742h-15.11v1.7h15.11v2.742h-15.11v1.698h15.11v2.742h-15.11v1.699h15.11v2.743h-15.11v1.7h15.11v2.742h-15.11v1.698
		h15.11v2.265c0,0.164,0.036,0.321,0.081,0.478h-15.191v0.344c0,1.104,0.896,2,2,2h16.229c-0.001,0.038-0.005,0.073-0.005,0.111
		c0,0.788,0.266,1.426,0.594,1.426h0.974h0.217h14.181h0.219h0.975c0.326,0,0.594-0.639,0.594-1.426
		c0-0.038-0.004-0.074-0.006-0.111h16.228c1.104,0,2-0.896,2-2v-0.344h-15.188c0.045-0.156,0.08-0.313,0.08-0.478v-2.265h15.106
		v-1.698h-15.106v-2.742h15.106v-1.7h-15.106v-2.743h15.106v-1.699h-15.106v-2.742h15.106v-1.698h-15.106v-2.742h15.106v-1.7
		h-15.106V81.9h15.106v-1.699h-15.106v-2.742h15.106v-2.17h0.002h16.276h21.535h32.242c3.764,0,6.813-3.051,6.813-6.811
		C245.689,64.735,242.637,61.682,238.883,61.682z"/>
	<path d="M178.174,171.865L178.174,171.865v25.693c0,0.983-0.715,1.82-1.686,1.977l-33.336,5.313
		c-0.104,0.019-0.211,0.025-0.314,0.025c-0.08,0-0.157-0.015-0.235-0.025l-0.017,0.003c-0.104,0.018-0.21,0.025-0.314,0.025
		c-0.169,0-0.335-0.029-0.498-0.071c-0.148,0.036-0.299,0.061-0.453,0.061c-0.104,0-0.21-0.008-0.314-0.024l-33.287-5.307
		c-0.971-0.154-1.685-0.991-1.685-1.976v-25.693H69.003L34.712,208.37l97.546,0.004h4.487h4.487l97.545-0.004l-34.291-36.505
		H178.174z"/>
	<polygon points="110.604,195.854 139.406,200.447 139.406,169.569 110.604,165.176 	"/>
	<polygon points="144.271,200.532 173.607,195.854 173.607,164.919 144.271,169.686 	"/>
	<polygon points="171.547,162.486 142.101,158.914 111.063,162.479 142.284,167.242 	"/>
</g>
</svg>
