<?xml version="1.0" encoding="utf-8"?>
<!-- Generator: Adobe Illustrator 15.1.0, SVG Export Plug-In . SVG Version: 6.00 Build 0)  -->
<!DOCTYPE svg PUBLIC "-//W3C//DTD SVG 1.1//EN" "http://www.w3.org/Graphics/SVG/1.1/DTD/svg11.dtd">
<svg version="1.1" id="Layer_7" xmlns="http://www.w3.org/2000/svg" xmlns:xlink="http://www.w3.org/1999/xlink" x="0px" y="0px"
	 width="283.465px" height="283.465px" viewBox="0 0 283.465 283.465" enable-background="new 0 0 283.465 283.465"
	 xml:space="preserve">
<g>
	<rect x="81.497" y="243.104" fill="none" width="22.986" height="7.071"/>
	<rect x="81.497" y="231.175" fill="none" width="22.986" height="7.072"/>
	<rect x="81.497" y="255.035" fill="none" width="22.986" height="7.07"/>
	<path fill="none" d="M238.777,226.41c0-3.961-2.691-7.165-6.025-7.165h-10.357h-7.563h-16.385h-19.689
		c-3.324,0-6.025,3.204-6.025,7.165v28.657c0,3.96,2.701,7.165,6.025,7.165h53.996c3.334,0,6.024-3.205,6.024-7.165h-0.001V226.41z"
		/>
	<rect x="81.497" y="219.245" fill="none" width="22.986" height="7.071"/>
	<rect x="47.902" y="243.104" fill="none" width="22.986" height="7.071"/>
	<rect x="47.902" y="219.245" fill="none" width="22.986" height="7.071"/>
	<rect x="47.902" y="255.035" fill="none" width="22.986" height="7.07"/>
	<polygon fill="none" points="47.902,233.649 47.902,238.247 70.888,238.247 70.888,231.174 47.902,231.174 	"/>
	<path fill="none" d="M253.273,22.212H30.191v17.021v11.462v7.739v34.049v119.309h223.082l0.008-119.309h0.002v-53.25h-0.01V22.212z
		 M169.695,33.806l1.43-0.004c4.01,0,7.262,3.248,7.262,7.262c0,4.013-3.242,7.261-7.262,7.261h-1.43V33.806z M112.359,33.804h1.428
		v14.519h-1.428c-4.014,0-7.261-3.244-7.262-7.257C105.098,37.052,108.344,33.804,112.359,33.804z M141.232,208.375h-4.487h-4.487
		l-97.546-0.004l34.291-36.505h37.032v25.693c0,0.984,0.714,1.821,1.685,1.976l33.287,5.307c0.104,0.017,0.21,0.024,0.314,0.024
		c0.259,0,0.513-0.054,0.751-0.151c0.243,0.101,0.501,0.159,0.766,0.159c0.104,0,0.211-0.008,0.314-0.025l33.336-5.313
		c0.971-0.155,1.686-0.992,1.686-1.976v-25.693h26.313l34.291,36.505L141.232,208.375z M142.102,156.711l33.005,4.004l-32.819,5.334
		l-34.998-5.339L142.102,156.711z M134.642,110.732h14.182l-6.608,18.944c-0.143,0.411-0.821,0.411-0.965,0L134.642,110.732z
		 M175.428,162.688c0.273-0.044,0.523-0.146,0.746-0.289v35.16l-33.336,5.315v-34.891L175.428,162.688z M140.839,167.852v34.939
		l-32.804-5.231v-34.713L140.839,167.852z M238.885,75.289h-32.243h-21.534H168.83h-0.002v2.17h-15.107v2.742h15.107V81.9h-15.107
		v2.742h15.107v1.7h-15.107v2.742h15.107v1.698h-15.107v2.742h15.107v1.699h-15.107v2.743h15.107v1.7h-15.107v2.742h15.107v1.698
		h-15.107v2.265c0,0.164-0.035,0.321-0.08,0.478h15.189v0.344c0,1.104-0.896,2-2,2h-16.227c0.001,0.037,0.005,0.073,0.005,0.111
		c0,0.787-0.267,1.426-0.594,1.426h-0.974h-0.218h-14.182h-0.217h-0.974c-0.328,0-0.594-0.638-0.594-1.426
		c0-0.038,0.004-0.073,0.005-0.111h-16.229c-1.104,0-2-0.896-2-2v-0.344h15.191c-0.045-0.156-0.081-0.313-0.081-0.478v-2.265h-15.11
		v-1.698h15.11v-2.742h-15.11v-1.7h15.11v-2.743h-15.11v-1.699h15.11v-2.742h-15.11v-1.698h15.11v-2.742h-15.11v-1.7h15.11V81.9
		h-15.11v-1.699h15.11v-2.742h-15.11v-2.157h-50.15H44.583c-3.764,0-6.814-3.05-6.814-6.811c0-3.76,3.049-6.81,6.814-6.81h19.899
		h46.375h3.775V29.775c0-1.104,0.896-2,2-2h50.198c1.104,0,2,0.896,2,2h-0.002v31.906h0.002h16.277h21.533h32.242
		c3.754,0,6.807,3.054,6.814,6.797C245.697,72.238,242.647,75.289,238.885,75.289z"/>
	<path d="M255.795,7.087H27.67c-6.952,0-12.604,5.651-12.604,12.604v244.084c0,6.952,5.652,12.604,12.604,12.604h228.125
		c6.952,0,12.604-5.65,12.604-12.604V19.69C268.397,12.738,262.747,7.087,255.795,7.087z M70.888,262.105H47.902v-7.07h22.986
		V262.105z M70.888,250.176H47.902v-7.071h22.986V250.176z M70.888,238.247H47.902v-4.598v-2.476h22.986V238.247z M70.888,226.316
		H47.902v-7.071h22.986V226.316z M104.482,262.105H81.497v-7.07h22.986V262.105z M104.482,250.176H81.497v-7.071h22.986V250.176z
		 M104.482,238.247H81.497v-7.072h22.986V238.247z M104.482,226.316H81.497v-7.071h22.986V226.316z M232.754,262.232h-53.996
		c-3.324,0-6.025-3.205-6.025-7.165V226.41c0-3.961,2.701-7.165,6.025-7.165h19.689h16.385h7.563h10.357
		c3.334,0,6.025,3.204,6.025,7.165v28.657h0.001C238.778,259.027,236.088,262.232,232.754,262.232z M253.283,92.482h-0.002
		l-0.008,119.309H30.191V92.482V58.434v-7.739V39.232V22.212h223.082v17.021h0.01V92.482z"/>
	<path d="M112.359,48.322h1.428V33.804h-1.428c-4.015,0-7.262,3.248-7.262,7.262C105.099,45.078,108.345,48.322,112.359,48.322z"/>
	<path d="M178.387,41.063c0-4.014-3.252-7.262-7.262-7.262l-1.43,0.004v14.519h1.43C175.145,48.324,178.387,45.076,178.387,41.063z"
		/>
	<path d="M142.215,129.677l6.608-18.944h-14.182l6.609,18.944C141.395,130.088,142.072,130.088,142.215,129.677z"/>
	<path d="M178.174,171.866v25.693c0,0.983-0.715,1.82-1.686,1.976l-33.336,5.313c-0.104,0.018-0.21,0.025-0.314,0.025
		c-0.265,0-0.522-0.059-0.766-0.159c-0.238,0.098-0.492,0.151-0.751,0.151c-0.104,0-0.21-0.008-0.314-0.024l-33.287-5.307
		c-0.971-0.154-1.685-0.991-1.685-1.976v-25.693H69.003l-34.291,36.505l97.546,0.004h4.487h4.487l97.546-0.004l-34.291-36.505
		H178.174z"/>
	<polygon points="140.839,202.791 140.839,167.852 108.036,162.847 108.036,197.56 	"/>
	<path d="M176.174,197.56v-35.16c-0.223,0.143-0.473,0.245-0.746,0.289l-32.59,5.296v34.891L176.174,197.56z"/>
	<polygon points="142.287,166.049 175.106,160.715 142.102,156.711 107.29,160.71 	"/>
	<path d="M238.883,61.682h-32.242h-21.533H168.83h-0.002V29.775h0.002c0-1.104-0.896-2-2-2h-50.198c-1.104,0-2,0.896-2,2v31.906
		h-3.775H64.482H44.583c-3.765,0-6.814,3.05-6.814,6.81c0,3.761,3.05,6.811,6.814,6.811h19.899h50.15v2.157h15.11v2.742h-15.11V81.9
		h15.11v2.742h-15.11v1.7h15.11v2.742h-15.11v1.698h15.11v2.742h-15.11v1.699h15.11v2.743h-15.11v1.7h15.11v2.742h-15.11v1.698
		h15.11v2.265c0,0.164,0.036,0.321,0.081,0.478h-15.191v0.344c0,1.104,0.896,2,2,2h16.229c-0.001,0.038-0.005,0.073-0.005,0.111
		c0,0.788,0.266,1.426,0.594,1.426h0.974h0.217h14.182h0.218h0.974c0.327,0,0.594-0.639,0.594-1.426
		c0-0.038-0.004-0.074-0.005-0.111h16.227c1.104,0,2-0.896,2-2v-0.344h-15.189c0.045-0.156,0.08-0.313,0.08-0.478v-2.265h15.107
		v-1.698h-15.107v-2.742h15.107v-1.7h-15.107v-2.743h15.107v-1.699h-15.107v-2.742h15.107v-1.698h-15.107v-2.742h15.107v-1.7
		h-15.107V81.9h15.107v-1.699h-15.107v-2.742h15.107v-2.17h0.002h16.277h21.534h32.243c3.763,0,6.813-3.051,6.813-6.811
		C245.689,64.735,242.637,61.682,238.883,61.682z"/>
</g>
</svg>
