<?xml version="1.0" encoding="utf-8"?>
<!-- Generator: Adobe Illustrator 15.1.0, SVG Export Plug-In . SVG Version: 6.00 Build 0)  -->
<!DOCTYPE svg PUBLIC "-//W3C//DTD SVG 1.1//EN" "http://www.w3.org/Graphics/SVG/1.1/DTD/svg11.dtd">
<svg version="1.1" id="Layer_1" xmlns="http://www.w3.org/2000/svg" xmlns:xlink="http://www.w3.org/1999/xlink" x="0px" y="0px"
	 width="283.464px" height="283.464px" viewBox="0 0 283.464 283.464" enable-background="new 0 0 283.464 283.464"
	 xml:space="preserve">
<g>
	<path fill="#010101" d="M243.274,270.504H40.191V12.956h20.38c0.041,0,0.072-0.021,0.12-0.021h145.344
		c0.041,0,0.078,0.021,0.119,0.021h37.12V270.504z M262.79,85.618V34.315h-13.641V7.086H34.315v27.229H20.674v51.303h13.641v3.208
		H20.674v51.308h13.641v3.203H20.674v51.303h13.641v3.203H20.674v51.311h13.641v27.225h214.834v-27.225h13.641v-51.311h-13.641
		v-3.203h13.641v-51.303h-13.641v-3.203h13.641V88.826h-13.641v-3.208H262.79z"/>
	<path fill="#010101" d="M228.878,58.43c1.234,0,2.209-0.359,2.979-1.125c0.766-0.771,1.178-1.699,1.178-2.824
		c0-1.129-0.412-2.104-1.178-2.921c-0.822-0.771-1.797-1.183-3.025-1.183c-1.183,0-2.203,0.412-2.975,1.183
		c-0.822,0.765-1.182,1.688-1.182,2.765c0,1.183,0.359,2.208,1.182,2.98C226.623,58.071,227.649,58.43,228.878,58.43z"/>
	<polygon fill="#010101" points="57.915,216.473 49.915,228.061 57.915,228.061 	"/>
	<path fill="#010101" d="M226.165,70.737c0.87,0.463,1.797,0.719,2.714,0.719c1.543,0,2.771-0.516,3.744-1.489
		c0.975-0.975,1.49-2.204,1.49-3.693c0-1.484-0.516-2.765-1.542-3.74c-0.974-1.025-2.255-1.49-3.792-1.49
		c-1.489,0-2.719,0.464-3.691,1.438c-0.975,0.975-1.438,2.204-1.438,3.693c0,0.921,0.208,1.792,0.614,2.615
		C224.727,69.606,225.341,70.273,226.165,70.737z"/>
	<path fill="#010101" d="M223.035,159.758c1.588-1.949,3.797-2.926,6.463-2.926c2.053,0,3.693,0.566,4.975,1.697
		c1.282,1.123,2.104,2.662,2.359,4.666l-3.183,0.256c-0.255-1.234-0.667-2.156-1.183-2.719c-0.817-0.869-1.896-1.334-3.125-1.334
		c-1.025,0-1.896,0.307-2.666,0.869c-0.975,0.719-1.797,1.746-2.359,3.131c-0.562,1.381-0.87,3.387-0.87,5.949
		c0.771-1.131,1.692-2,2.771-2.563c1.125-0.568,2.256-0.824,3.433-0.824c2.105,0,3.896,0.771,5.386,2.307
		c1.489,1.537,2.208,3.537,2.208,6c0,1.596-0.313,3.131-1.026,4.512c-0.666,1.385-1.646,2.412-2.875,3.182
		c-1.177,0.719-2.563,1.078-4.099,1.078c-2.667,0-4.821-0.973-6.464-2.875c-1.641-1.947-2.463-5.125-2.463-9.588
		C220.316,165.602,221.191,162.014,223.035,159.758z M222.368,57.606c-0.613-0.869-0.922-1.948-0.922-3.177
		c0-1.896,0.667-3.438,2-4.719s3.125-1.896,5.386-1.896c2.203,0,4.047,0.615,5.385,1.948c1.381,1.281,2.047,2.876,2.047,4.719
		c0,1.229-0.307,2.256-0.922,3.125c-0.614,0.875-1.587,1.589-2.869,2.052c1.588,0.516,2.817,1.333,3.641,2.464
		c0.817,1.177,1.229,2.51,1.229,4.098c0,2.208-0.771,4.052-2.359,5.542c-1.536,1.537-3.588,2.256-6.104,2.256
		c-2.563,0-4.615-0.719-6.151-2.256c-1.536-1.489-2.306-3.385-2.306-5.588c0-1.693,0.41-3.079,1.228-4.208
		c0.87-1.125,2.052-1.896,3.641-2.308C223.957,59.196,223.035,58.481,222.368,57.606z M220.623,105.758v-3.02h16.667v2.458
		c-1.641,1.744-3.281,4.052-4.868,6.922c-1.59,2.921-2.877,5.849-3.746,8.921c-0.615,2.157-1.026,4.516-1.178,7.079h-3.234
		c0-2.052,0.412-4.464,1.183-7.333c0.771-2.87,1.849-5.642,3.229-8.309c1.438-2.667,2.974-4.869,4.567-6.718H220.623z
		 M235.446,234.42c-1.646,2.104-3.896,3.131-6.771,3.131c-2.308,0-4.254-0.668-5.693-1.949c-1.484-1.334-2.359-3.031-2.561-5.23
		l3.333-0.258c0.254,1.592,0.821,2.82,1.691,3.645c0.922,0.818,2,1.229,3.229,1.229c1.536,0,2.817-0.619,3.896-1.744
		c1.026-1.129,1.542-2.666,1.542-4.566c0-1.793-0.516-3.23-1.49-4.252c-1.025-1.025-2.359-1.541-4-1.541
		c-1.025,0-1.896,0.207-2.719,0.668c-0.816,0.463-1.482,1.078-1.947,1.797l-2.975-0.361l2.516-13.229h12.766v3.021h-10.255
		l-1.386,6.92c1.537-1.066,3.183-1.633,4.875-1.633c2.203,0,4.1,0.816,5.641,2.357c1.589,1.537,2.354,3.537,2.354,5.996
		C237.498,230.733,236.779,232.733,235.446,234.42z M62.221,180.733c-1.635,1.535-3.688,2.357-6.202,2.357
		c-2.257,0-4.152-0.723-5.642-2.057c-1.489-1.328-2.307-3.072-2.511-5.229l3.126-0.41c0.359,1.797,0.975,3.078,1.849,3.9
		c0.869,0.766,1.948,1.182,3.178,1.182c1.489,0,2.718-0.516,3.743-1.543c1.027-1.07,1.538-2.305,1.538-3.844
		c0-1.438-0.459-2.613-1.386-3.586c-0.975-0.928-2.152-1.387-3.641-1.387c-0.563,0-1.334,0.1-2.203,0.307l0.358-2.771
		c0.204,0.053,0.354,0.053,0.511,0.053c1.334,0,2.516-0.357,3.594-1.025c1.073-0.719,1.636-1.791,1.636-3.281
		c0-1.131-0.407-2.104-1.177-2.869c-0.771-0.721-1.793-1.131-3.025-1.131c-1.23,0-2.257,0.41-3.079,1.184
		c-0.817,0.77-1.328,1.895-1.583,3.432l-3.131-0.563c0.355-2.104,1.229-3.746,2.615-4.875c1.385-1.178,3.077-1.74,5.077-1.74
		c1.434,0,2.72,0.254,3.896,0.875c1.178,0.609,2.104,1.432,2.719,2.459c0.615,1.021,0.923,2.15,0.923,3.328
		c0,1.078-0.308,2.104-0.874,3.031c-0.615,0.922-1.486,1.635-2.667,2.15c1.541,0.359,2.719,1.078,3.541,2.209
		c0.817,1.078,1.282,2.459,1.282,4.15C64.686,177.243,63.863,179.196,62.221,180.733z M64.582,230.987h-3.485v6.152h-3.182v-6.152
		H46.79v-2.926l11.744-16.615h2.563v16.615h3.485V230.987z M47.815,125.915c0.412-1.183,1.078-2.313,2.052-3.439
		c0.975-1.124,2.303-2.41,4.152-3.895c2.771-2.256,4.667-4.1,5.64-5.439c0.975-1.333,1.489-2.561,1.489-3.791
		c0-1.234-0.462-2.308-1.386-3.131c-0.874-0.869-2.052-1.333-3.488-1.333c-1.484,0-2.714,0.464-3.641,1.385
		c-0.923,0.927-1.38,2.156-1.38,3.797l-3.234-0.36c0.208-2.411,1.077-4.26,2.515-5.49c1.434-1.281,3.381-1.896,5.844-1.896
		c2.464,0,4.412,0.667,5.844,2.052c1.438,1.333,2.156,3.027,2.156,5.074c0,1.025-0.203,2-0.615,3.025
		c-0.462,0.975-1.129,2.053-2.104,3.131c-0.973,1.079-2.615,2.615-4.869,4.511c-1.896,1.593-3.131,2.667-3.642,3.229
		c-0.562,0.568-0.979,1.129-1.333,1.75h12.614v3.021H47.404C47.404,127.353,47.502,126.634,47.815,125.915z M50.227,54.227
		c1.792-0.823,3.333-1.797,4.666-2.974c1.281-1.182,2.255-2.359,2.766-3.438h2.052v25.792h-3.177V53.502
		c-0.719,0.719-1.744,1.438-2.974,2.156s-2.307,1.281-3.333,1.646V54.227z M171.924,15.159h-5.875V37.2h0.011
		c0,0.021-0.011,0.032-0.011,0.053c0,11.416-10.896,20.703-24.291,20.703c-13.422,0-24.344-9.266-24.344-20.651
		c0-0.021-0.011-0.037-0.011-0.052h0.011V15.159h-5.871v0.021H42.415v253.1H241.05V15.18h-69.126V15.159z"/>
	<path fill="#010101" d="M226.571,179.706c0.823,0.518,1.692,0.771,2.62,0.771c1.333,0,2.458-0.563,3.432-1.645
		c0.922-1.078,1.438-2.512,1.438-4.355c0-1.797-0.516-3.182-1.438-4.209c-0.974-1.025-2.15-1.535-3.588-1.535
		s-2.613,0.51-3.641,1.535c-0.973,1.027-1.484,2.361-1.484,4c0,1.08,0.255,2.152,0.713,3.131
		C225.087,178.372,225.701,179.143,226.571,179.706z"/>
</g>
</svg>
