<?xml version="1.0" encoding="utf-8"?>
<!-- Generator: Adobe Illustrator 15.1.0, SVG Export Plug-In . SVG Version: 6.00 Build 0)  -->
<!DOCTYPE svg PUBLIC "-//W3C//DTD SVG 1.1//EN" "http://www.w3.org/Graphics/SVG/1.1/DTD/svg11.dtd">
<svg version="1.1" id="Layer_2" xmlns="http://www.w3.org/2000/svg" xmlns:xlink="http://www.w3.org/1999/xlink" x="0px" y="0px"
	 width="283.465px" height="283.465px" viewBox="0 0 283.465 283.465" enable-background="new 0 0 283.465 283.465"
	 xml:space="preserve">
<g>
	<g>
		<path fill="none" d="M26.84,217.931h92.542V65.534H26.84V217.931z M88.826,208.854h-41.48l-6.396-6.914l7.431-6.912H89.86
			l6.397,6.912L88.826,208.854z M51.854,148.646l-6.396-6.913l7.431-6.914h41.479l6.397,6.914l-7.432,6.913H51.854z
			 M103.872,192.577l-7.431,6.912l-6.396-6.912l3.104-41.482l7.432-6.913l6.396,6.913L103.872,192.577z M108.379,132.37
			l-7.431,6.914l-6.396-6.914l3.104-41.481l7.432-6.913l6.396,6.913L108.379,132.37z M57.395,74.612h41.481l6.396,6.914
			l-7.433,6.913H56.36l-6.396-6.913L57.395,74.612z M42.35,90.889l7.431-6.913l6.396,6.913l-3.105,41.481l-7.431,6.914l-6.396-6.914
			L42.35,90.889z M37.843,151.095l7.431-6.913l6.396,6.913l-3.105,41.482l-7.431,6.912l-6.396-6.912L37.843,151.095z"/>
		<path fill="none" d="M14.014,230.919h118.194V52.546H14.014V230.919z M19.913,58.607h106.396v166.25H19.913V58.607z"/>
		<path fill="#231F20" d="M7.087,45.619v192.227h132.048V45.619H7.087z M132.208,230.919H14.014V52.546h118.194V230.919z"/>
		<polygon fill="#231F20" points="97.84,88.439 105.272,81.526 98.876,74.612 57.395,74.612 49.964,81.526 56.36,88.439 		"/>
		<polygon fill="#231F20" points="97.656,90.889 94.552,132.37 100.948,139.284 108.379,132.37 111.483,90.889 105.088,83.976 		"/>
		<polygon fill="#231F20" points="93.149,151.095 90.045,192.577 96.441,199.489 103.872,192.577 106.977,151.095 100.581,144.182 
					"/>
		<polygon fill="#231F20" points="48.381,195.027 40.95,201.939 47.346,208.854 88.826,208.854 96.258,201.939 89.86,195.027 		"/>
		<polygon fill="#231F20" points="48.565,192.577 51.67,151.095 45.274,144.182 37.843,151.095 34.738,192.577 41.134,199.489 		"/>
		<polygon fill="#231F20" points="53.072,132.37 56.177,90.889 49.781,83.976 42.35,90.889 39.245,132.37 45.641,139.284 		"/>
		<polygon fill="#231F20" points="100.765,141.733 94.367,134.819 52.888,134.819 45.457,141.733 51.854,148.646 93.333,148.646 		
			"/>
		<path fill="#231F20" d="M126.309,58.607H19.913v166.25h106.396V58.607z M119.382,217.931H26.84V65.534h92.542V217.931z"/>
	</g>
	<g>
		<path fill="none" d="M164.083,217.931h92.542V65.534h-92.542V217.931z M226.069,208.854H184.59l-6.396-6.914l7.432-6.912h41.479
			l6.397,6.912L226.069,208.854z M189.097,148.646l-6.396-6.913l7.432-6.914h41.479l6.398,6.914l-7.433,6.913H189.097z
			 M241.115,192.577l-7.431,6.912l-6.396-6.912l3.104-41.482l7.432-6.913l6.396,6.913L241.115,192.577z M245.622,132.37
			l-7.431,6.914l-6.396-6.914l3.105-41.481l7.431-6.913l6.396,6.913L245.622,132.37z M194.638,74.612h41.481l6.396,6.914
			l-7.432,6.913h-41.48l-6.396-6.913L194.638,74.612z M179.593,90.889l7.432-6.913l6.396,6.913l-3.104,41.481l-7.432,6.914
			l-6.396-6.914L179.593,90.889z M175.086,151.095l7.432-6.913l6.396,6.913l-3.104,41.482l-7.432,6.912l-6.396-6.912
			L175.086,151.095z"/>
		<path fill="none" d="M151.257,230.919h118.194V52.546H151.257V230.919z M157.156,58.607h106.396v166.25H157.156V58.607z"/>
		<path fill="#231F20" d="M144.33,45.619v192.227h132.048V45.619H144.33z M269.451,230.919H151.257V52.546h118.194V230.919z"/>
		<polygon fill="#231F20" points="235.084,88.439 242.516,81.526 236.119,74.612 194.638,74.612 187.208,81.526 193.604,88.439 		
			"/>
		<polygon fill="#231F20" points="234.9,90.889 231.795,132.37 238.191,139.284 245.622,132.37 248.728,90.889 242.331,83.976 		"/>
		<polygon fill="#231F20" points="230.393,151.095 227.288,192.577 233.685,199.489 241.115,192.577 244.22,151.095 
			237.824,144.182 		"/>
		<polygon fill="#231F20" points="185.625,195.027 178.193,201.939 184.59,208.854 226.069,208.854 233.501,201.939 
			227.104,195.027 		"/>
		<polygon fill="#231F20" points="185.809,192.577 188.913,151.095 182.518,144.182 175.086,151.095 171.981,192.577 
			178.377,199.489 		"/>
		<polygon fill="#231F20" points="190.315,132.37 193.42,90.889 187.024,83.976 179.593,90.889 176.488,132.37 182.884,139.284 		
			"/>
		<polygon fill="#231F20" points="238.009,141.733 231.61,134.819 190.132,134.819 182.7,141.733 189.097,148.646 230.576,148.646 
					"/>
		<path fill="#231F20" d="M263.552,58.607H157.156v166.25h106.396V58.607z M256.625,217.931h-92.542V65.534h92.542V217.931z"/>
	</g>
</g>
</svg>
