<?xml version="1.0" encoding="utf-8"?>
<!-- Generator: Adobe Illustrator 15.1.0, SVG Export Plug-In . SVG Version: 6.00 Build 0)  -->
<!DOCTYPE svg PUBLIC "-//W3C//DTD SVG 1.1//EN" "http://www.w3.org/Graphics/SVG/1.1/DTD/svg11.dtd">
<svg version="1.1" id="Layer_2_1_" xmlns="http://www.w3.org/2000/svg" xmlns:xlink="http://www.w3.org/1999/xlink" x="0px" y="0px"
	 width="283.465px" height="283.465px" viewBox="0 0 283.465 283.465" enable-background="new 0 0 283.465 283.465"
	 xml:space="preserve">
<g>
	<path d="M111.617,187.769c0.045-0.021,0.09-0.047,0.137-0.07c1.186-0.6,2.352-1.244,3.496-1.936
		c4.184-2.471,8.127-5.404,11.557-9.057c5.172-4.623,5.785-12.502,1.393-17.871c-5.096-5.525-13.705-5.873-19.23-0.775
		c-0.088,0.08-0.174,0.16-0.258,0.244c-2.422,2.828-5.352,5.111-8.592,6.783c-8.189,2.973-16.807,2.371-24.141-1.012
		c-6.012-5.186-14.844-15.578-6.217-28.111c6.98-10.142,13.779-24.57,14.979-31.754c3.105-0.393,6.32-0.322,9.563,0.276
		c9.531,1.763,17.695,7.865,22.082,16.507c2.906,6.045,9.783,9.069,16.203,7.129c6.838-2.115,10.666-9.375,8.549-16.215
		c-0.205-0.662-0.465-1.311-0.771-1.932c-5.047-9.664-12.676-17.74-22.035-23.331l47.959-23.331
		c5.949-3.326,8.885-10.266,7.129-16.85c-2.914-6.931-10.893-10.186-17.822-7.271c-0.107,0.046-0.217,0.094-0.324,0.143
		l-53.143,25.924l23.303-27.896l-0.1-0.101l6.605-7.909c4.439-4.899,4.713-12.282,0.648-17.498
		c-4.523-5.548-12.688-6.378-18.236-1.854c-0.678,0.555-1.299,1.176-1.854,1.854L93.893,34.083l0.088,0.088L75.555,56.186
		l7.129-27.867c1.588-6.218-1.383-12.698-7.129-15.556c-6.986-2.77-14.896,0.65-17.666,7.638c-0.188,0.47-0.348,0.949-0.479,1.437
		l-23.98,99.807c-0.961,3.829-1.611,7.73-1.943,11.665v2.593c0.354,31.604,26.074,57.033,57.68,57.031
		c8.264,0.082,15.701-1.781,22.449-5.166L111.617,187.769z"/>
	<path d="M194.299,90.529c-8.264-0.082-15.699,1.784-22.447,5.167l-0.002-0.003c-0.047,0.022-0.092,0.048-0.137,0.072
		c-1.188,0.598-2.352,1.243-3.496,1.934c-4.186,2.472-8.127,5.406-11.557,9.058c-5.174,4.623-5.787,12.502-1.395,17.871
		c5.098,5.524,13.707,5.873,19.232,0.775c0.086-0.08,0.172-0.162,0.258-0.244c2.422-2.828,5.352-5.111,8.592-6.783
		c8.188-2.975,16.805-2.371,24.141,1.012c6.01,5.184,14.842,15.578,6.215,28.111c-6.98,10.141-13.779,24.57-14.979,31.754
		c-3.105,0.393-6.32,0.322-9.563-0.277c-9.531-1.762-17.695-7.865-22.082-16.506c-2.906-6.045-9.783-9.068-16.203-7.131
		c-6.838,2.117-10.666,9.377-8.549,16.215c0.205,0.664,0.465,1.311,0.771,1.934c5.047,9.664,12.674,17.74,22.035,23.33
		l-47.959,23.332c-5.949,3.326-8.885,10.264-7.129,16.85c2.914,6.93,10.893,10.186,17.822,7.271
		c0.107-0.045,0.217-0.094,0.324-0.141l53.143-25.926l-23.303,27.896l0.1,0.1l-6.605,7.91c-4.439,4.9-4.713,12.281-0.648,17.498
		c4.523,5.549,12.688,6.379,18.236,1.854c0.678-0.553,1.299-1.174,1.854-1.854l18.604-22.227l-0.09-0.088l18.428-22.016
		l-7.129,27.867c-1.59,6.217,1.383,12.697,7.129,15.555c6.986,2.77,14.896-0.648,17.666-7.637c0.188-0.471,0.348-0.949,0.479-1.438
		l23.98-99.805c0.961-3.83,1.611-7.732,1.943-11.666v-2.592C251.625,115.96,225.904,90.527,194.299,90.529z"/>
</g>
</svg>
