<?xml version="1.0" encoding="utf-8"?>
<!-- Generator: Adobe Illustrator 15.1.0, SVG Export Plug-In . SVG Version: 6.00 Build 0)  -->
<!DOCTYPE svg PUBLIC "-//W3C//DTD SVG 1.1//EN" "http://www.w3.org/Graphics/SVG/1.1/DTD/svg11.dtd">
<svg version="1.1" id="Layer_2_1_" xmlns="http://www.w3.org/2000/svg" xmlns:xlink="http://www.w3.org/1999/xlink" x="0px" y="0px"
	 width="283.465px" height="283.465px" viewBox="0 0 283.465 283.465" enable-background="new 0 0 283.465 283.465"
	 xml:space="preserve">
<g>
	<path d="M272.271,128.875c-12.855-15.918-60.607-67.955-130.402-67.955c-17.811-0.056-35.467,3.269-52.039,9.795L54.322,35.818
		c-5.41-4.057-13.085-2.96-17.143,2.449c-3.266,4.354-3.266,10.34,0,14.693l192.236,192.236c4.059,5.41,11.732,6.506,17.143,2.447
		c5.41-4.057,6.506-11.73,2.449-17.143c-0.697-0.928-1.521-1.752-2.449-2.449l-28.773-29.385
		c20.859-12.041,39.33-27.813,54.486-46.529C277.77,145.387,277.723,135.666,272.271,128.875z M179.732,157.988l-54.643-54.643
		c15.283-8.43,34.889-6.168,47.85,6.793C185.902,123.099,188.164,142.703,179.732,157.988z M255.521,139.613
		c-14.658,16.73-32.031,30.545-51.637,41.059c-0.426,0.23-0.906,0.35-1.389,0.35c-0.785,0-1.523-0.305-2.078-0.859l-5.566-5.561
		l-0.592-0.535c-0.207-0.189-0.365-0.406-0.479-0.65c-0.109-0.238-0.172-0.492-0.186-0.756s0.023-0.521,0.111-0.77
		c0.092-0.258,0.23-0.49,0.418-0.693c0.178-0.195,0.396-0.355,0.646-0.471c0.238-0.107,0.492-0.17,0.756-0.18
		c0.016-0.002,0.063-0.002,0.078-0.002c0.234,0,0.467,0.039,0.688,0.117c0.264,0.096,0.494,0.236,0.693,0.42l0.943,0.879
		c0.01,0.01,0.02,0.02,0.029,0.029l4.732,4.732c18.602-10.082,35.131-23.217,49.152-39.055
		c-11.838-13.611-51.662-53.992-106.898-53.992c-10.477,0.039-20.885,1.498-30.967,4.337l6.83,6.905
		c0.193,0.207,0.334,0.437,0.43,0.69c0.092,0.246,0.135,0.502,0.127,0.765c-0.006,0.262-0.064,0.519-0.17,0.758
		c-0.109,0.25-0.268,0.473-0.467,0.658c-0.199,0.188-0.43,0.33-0.686,0.422c-0.223,0.082-0.457,0.123-0.693,0.123
		c-0.014,0-0.061,0-0.076-0.002c-0.262-0.01-0.516-0.068-0.754-0.176c-0.248-0.111-0.469-0.268-0.654-0.467l-1.076-1.163
		l-6.979-6.978c-0.729-0.729-1.023-1.801-0.771-2.797c0.252-0.998,1.021-1.801,2.008-2.097c11.002-3.288,22.404-4.979,33.887-5.021
		c23.959,0,47.658,7.258,70.447,21.572c19.863,12.476,33.686,27.004,40.156,34.553C256.488,136.865,256.479,138.52,255.521,139.613z
		"/>
	<path d="M58.609,101.326c-5.41-4.058-13.086-2.961-17.143,2.449c-3.266,4.354-3.266,10.34,0,14.693l91.832,91.832
		c5.41,4.059,13.084,2.961,17.143-2.449c3.266-4.354,3.266-10.34,0-14.691L58.609,101.326z"/>
	<path d="M27.998,131.937c-4.344-4.733-11.703-5.05-16.436-0.707c-0.246,0.226-0.482,0.461-0.707,0.707
		c-4.734,4.343-5.05,11.7-0.707,16.435c0.227,0.246,0.461,0.48,0.707,0.707l42.855,42.855c5.41,4.057,13.084,2.961,17.141-2.449
		c3.268-4.354,3.268-10.34,0-14.693L27.998,131.937z"/>
</g>
</svg>
