<?xml version="1.0" encoding="utf-8"?>
<!-- Generator: Adobe Illustrator 15.1.0, SVG Export Plug-In . SVG Version: 6.00 Build 0)  -->
<!DOCTYPE svg PUBLIC "-//W3C//DTD SVG 1.1//EN" "http://www.w3.org/Graphics/SVG/1.1/DTD/svg11.dtd">
<svg version="1.1" id="Layer_5" xmlns="http://www.w3.org/2000/svg" xmlns:xlink="http://www.w3.org/1999/xlink" x="0px" y="0px"
	 width="283.465px" height="283.465px" viewBox="0 0 283.465 283.465" enable-background="new 0 0 283.465 283.465"
	 xml:space="preserve">
<g>
	<path fill="none" d="M129.386,26.205c-0.002,0-0.002,0-0.002,0l0,0h0.053c0.006,0,0.01,0,0.014,0c-0.004,0-0.004,0-0.014,0H129.386
		z"/>
	<path d="M70.384,109.65c-46.284,10.008-53.346,50.918-29.932,88.518c25.037,40.201-25.502,78.211,29.932,78.211
		c22.545,0,44.748-4.602,52.4-42.873c4.762-23.818,23.816-33.346,28.582-61.928C159.147,124.865,114.446,100.123,70.384,109.65z
		 M127.333,201.389c-0.953,1.205-1.912,2.303-2.885,3.58l-0.225-0.229h-0.002l0.227,0.229l-9.674,9.541
		c-1.15,1.512-2.242,3.16-3.395,4.889c-0.885,1.328-2.375,2.123-3.969,2.119c-2.631-0.002-4.762-2.137-4.76-4.766
		c0-0.941,0.279-1.859,0.801-2.641c1.563-2.346,3.098-4.484,4.596-6.422l9.674-9.543c0.748-0.963,1.41-1.746,2.141-2.67
		c6.645-8.414,11.445-14.486,11.445-31.068c0-10.527-3.725-18.936-11.064-24.991c-10.447-8.604-27.758-11.842-45.184-8.445
		c-8.865,1.729-15.215,5.787-19.406,12.405c-4.521,7.137-5.713,16.027-5.678,23.566c22.881-5.359,34.525,4.674,37.789,15.947
		c3.803,13.125-2.686,31.33-18.072,36.457c-2.803,0.742-6.832,2.787-7.965,5.281c-0.107,0.236-0.209,0.525-0.264,0.879
		c-0.086,0.658-0.037,0.807,0.354,1.848l3.994,8.063c0.916,1.662,1.875,3.33,2.99,5.084c0.857,1.344,0.982,3.029,0.334,4.486
		c-1.064,2.404-3.881,3.488-6.285,2.424c-0.857-0.381-1.586-1.008-2.09-1.801c-1.512-2.375-2.523-3.709-3.689-5.863l-4.035-8.146
		c-0.516-1.367-0.74-2.006-0.93-3.232c-0.561-3.207,0.117-5.836,0.951-7.678c2.598-5.727,9.127-9.219,13.93-10.477
		c7.619-2.549,12.121-11.219,12.309-19.076c-15.693-0.699-15.303-5.77-23.168-15.691c-1.496,0.229-3.051,0.535-4.666,0.932
		c-0.275,0.063-0.551,0.094-0.824,0.105c0.506,3.842,1.119,6.32,1.141,6.396c0.705,2.535-0.777,5.162-3.313,5.867
		s-5.161-0.777-5.867-3.313c-0.02-0.07-0.038-0.141-0.055-0.211c-0.291-1.135-6.926-28.023,5.064-46.952
		c5.592-8.827,14.215-14.43,25.633-16.658c20.137-3.93,40.473,0.071,53.066,10.442c9.498,7.841,14.529,19.027,14.529,32.351
		C140.837,184.297,134.276,192.596,127.333,201.389z"/>
	<path d="M129.384,26.205L129.384,26.205c-0.225,0.025,0.141,0.002,0.066,0c-0.006,0-0.01,0-0.014,0H129.384z"/>
	<path d="M129.866,45.283c-5.266,0.135-9.432,4.518-9.299,9.78c0.133,5.265,4.516,9.431,9.779,9.298l0.041,0.001
		c36.467-0.614,67.223,28.644,68.418,65.091c0.133,5.264,4.516,9.432,9.779,9.297c5.266-0.131,9.432-4.514,9.301-9.779
		C216.688,81.556,177.282,44.087,129.866,45.283z"/>
	<path d="M128.903,7.126c-5.268,0.133-9.434,4.516-9.299,9.779c0.135,5.266,4.514,9.432,9.777,9.299c0.002,0,0.002,0,0.004,0h0.051
		c0.008,0,0.008,0,0.014,0c57.32-0.976,105.639,44.991,107.514,102.287c0.133,5.264,4.514,9.43,9.779,9.297
		c5.266-0.132,9.432-4.515,9.299-9.781C254.313,59.521,197.392,5.401,128.903,7.126z"/>
	<path d="M130.829,83.44c-5.266,0.133-9.434,4.517-9.301,9.78c0.135,5.265,4.518,9.432,9.779,9.3
		c15.521-0.194,28.75,12.385,29.34,27.896c0.135,5.264,4.518,9.432,9.781,9.299s9.432-4.517,9.299-9.781
		C179.063,103.591,157.171,82.774,130.829,83.44z"/>
	<path d="M130.388,64.363l-0.041-0.001C130.194,64.375,130.45,64.362,130.388,64.363z"/>
</g>
</svg>
