<?xml version="1.0" encoding="utf-8"?>
<!-- Generator: Adobe Illustrator 15.1.0, SVG Export Plug-In . SVG Version: 6.00 Build 0)  -->
<!DOCTYPE svg PUBLIC "-//W3C//DTD SVG 1.1//EN" "http://www.w3.org/Graphics/SVG/1.1/DTD/svg11.dtd">
<svg version="1.1" id="Layer_1" xmlns:serif="http://www.serif.com/"
	 xmlns="http://www.w3.org/2000/svg" xmlns:xlink="http://www.w3.org/1999/xlink" x="0px" y="0px" width="283.46px"
	 height="283.46px" viewBox="0 0 283.46 283.46" enable-background="new 0 0 283.46 283.46" xml:space="preserve">
<g>
	<polygon points="181.121,14.366 173.785,7.085 141.91,38.712 126.243,23.165 118.905,30.447 141.91,53.276 	"/>
	<rect x="214.404" y="44.95" width="7.779" height="8.275"/>
	<polygon points="105.022,14.365 97.685,7.084 65.811,38.712 50.144,23.165 42.806,30.447 65.811,53.275 	"/>
	<path d="M211.183,22.492c0-1.808,0.713-3.175,2.135-4.104c1.424-0.927,3.424-1.39,5.99-1.39c2.525,0,4.402,0.406,5.643,1.217
		c1.238,0.813,1.855,1.981,1.855,3.513c0,1.205-0.289,2.189-0.875,2.955c-0.58,0.765-1.715,1.611-3.398,2.538l-1.818,1.043
		c-1.92,1.111-3.295,2.085-4.135,2.919c-0.842,0.834-1.377,1.702-1.613,2.607c-0.234,0.902-0.35,2.145-0.35,3.721l-0.002,2.779
		h7.566v-2.017c0-0.787,0.117-1.44,0.35-1.947c0.234-0.512,0.701-1.056,1.402-1.638c0.701-0.575,1.848-1.33,3.436-2.257l1.541-0.903
		c2.242-1.299,3.889-2.653,4.939-4.067c1.053-1.415,1.576-3.305,1.576-5.669c0-3.892-1.414-6.931-4.238-9.107
		c-2.826-2.179-6.691-3.267-11.596-3.267c-5.047,0-9.086,1.182-12.123,3.546c-3.035,2.365-4.555,5.563-4.555,9.595v0.834h8.27
		V22.492z"/>
	<path d="M95.593,168.263c0.001-9.194,2.695-17.979,7.711-25.458c-2.372-1.7-4.922-3.123-7.601-4.232
		c-0.131-0.055-0.265-0.107-0.397-0.16c-0.948-0.379-1.909-0.722-2.887-1.024c-0.06-0.021-0.121-0.04-0.184-0.06
		c-0.155-0.048-0.31-0.092-0.468-0.137c-0.142-0.041-0.289-0.086-0.434-0.125c-0.087-0.024-0.174-0.049-0.265-0.071
		c-0.213-0.06-0.43-0.116-0.646-0.171c-0.03-0.007-0.06-0.011-0.088-0.021c-2.683-0.668-5.446-1.046-8.249-1.114
		c-0.023-0.002-0.047-0.002-0.069-0.002c-0.244-0.005-0.487-0.012-0.732-0.012c6.868-2.042,12.811-6.255,17.029-11.834
		c4.208-5.563,6.7-12.491,6.7-19.996c0-9.169-3.726-17.466-9.738-23.479c-6.013-6.014-14.316-9.736-23.477-9.736
		c-0.067,0-0.134,0.004-0.201,0.004c-0.064-0.001-0.132-0.004-0.199-0.004c-9.163,0-17.466,3.723-23.478,9.736
		c-6.013,6.013-9.739,14.311-9.739,23.479c0,7.506,2.492,14.433,6.702,19.996c4.218,5.578,10.16,9.792,17.028,11.834
		c-0.246,0-0.489,0.007-0.733,0.012c-0.023,0-0.046,0-0.068,0.002c-2.809,0.068-5.575,0.447-8.258,1.116
		c-0.026,0.008-0.055,0.014-0.08,0.019c-0.219,0.057-0.44,0.116-0.658,0.176c-0.084,0.021-0.169,0.043-0.252,0.065
		c-0.151,0.042-0.3,0.087-0.451,0.133c-0.151,0.044-0.299,0.085-0.452,0.13c-0.066,0.021-0.136,0.043-0.203,0.063
		c-0.965,0.301-1.917,0.642-2.854,1.016c-0.137,0.055-0.272,0.108-0.411,0.163c-4.14,1.716-7.977,4.163-11.31,7.259
		c-0.354,0.326-0.703,0.656-1.044,0.997c-3.458,3.453-6.186,7.52-8.069,11.932c-0.059,0.139-0.122,0.277-0.18,0.418
		c-0.154,0.368-0.298,0.74-0.439,1.113c-1.092,2.893-1.826,5.922-2.19,9.025v21.662h77.348
		C97.66,184.091,95.593,176.342,95.593,168.263z"/>
	<path d="M257.009,160.29c-0.141-0.372-0.285-0.744-0.438-1.112c-0.059-0.141-0.121-0.279-0.182-0.418
		c-1.883-4.413-4.611-8.479-8.068-11.933c-0.342-0.34-0.689-0.67-1.043-0.996c-3.334-3.096-7.172-5.543-11.313-7.259
		c-0.137-0.056-0.273-0.107-0.408-0.163c-0.939-0.374-1.891-0.716-2.855-1.016c-0.068-0.021-0.137-0.043-0.203-0.063
		c-0.15-0.046-0.299-0.087-0.453-0.131c-0.148-0.045-0.299-0.091-0.449-0.131c-0.084-0.023-0.168-0.045-0.252-0.067
		c-0.219-0.059-0.439-0.119-0.66-0.175c-0.023-0.005-0.053-0.012-0.08-0.019c-2.682-0.669-5.449-1.048-8.258-1.116
		c-0.02-0.002-0.045-0.002-0.066-0.002c-0.244-0.005-0.488-0.012-0.732-0.012c6.867-2.042,12.811-6.256,17.029-11.835
		c4.205-5.563,6.699-12.49,6.699-19.995c0-9.166-3.727-17.466-9.738-23.479c-6.012-6.013-14.314-9.736-23.477-9.736
		c-0.068,0-0.133,0.002-0.201,0.004c-0.066,0-0.133-0.004-0.199-0.004c-9.162,0-17.465,3.723-23.477,9.736
		c-6.016,6.013-9.738,14.31-9.738,23.479c0,7.506,2.49,14.433,6.699,19.996c4.217,5.58,10.162,9.792,17.029,11.834
		c-0.244,0-0.488,0.007-0.732,0.012c-0.023,0-0.047,0-0.068,0.002c-2.805,0.068-5.568,0.446-8.25,1.114
		c-0.029,0.01-0.057,0.014-0.088,0.021c-0.215,0.055-0.434,0.111-0.646,0.171c-0.09,0.022-0.178,0.047-0.264,0.071
		c-0.146,0.039-0.291,0.084-0.436,0.125c-0.156,0.045-0.311,0.089-0.467,0.137c-0.063,0.02-0.125,0.038-0.184,0.06
		c-0.977,0.303-1.939,0.646-2.889,1.024c-0.131,0.053-0.264,0.105-0.395,0.16c-2.68,1.11-5.23,2.531-7.604,4.232
		c5.016,7.479,7.711,16.266,7.711,25.458c0,8.082-2.068,15.83-6.018,22.714h77.354v-21.662
		C258.835,166.211,258.101,163.182,257.009,160.29z"/>
	<path d="M197.203,236.917c-0.072-0.173-0.15-0.347-0.225-0.52c-2.336-5.474-5.723-10.52-10.012-14.804
		c-0.422-0.422-0.854-0.833-1.293-1.238c-4.137-3.84-8.896-6.876-14.035-9.004c-0.17-0.07-0.338-0.134-0.508-0.203
		c-1.162-0.465-2.344-0.887-3.543-1.259c-0.084-0.025-0.17-0.055-0.252-0.08c-0.188-0.057-0.375-0.108-0.561-0.163
		c-0.188-0.055-0.373-0.11-0.559-0.162c-0.104-0.029-0.209-0.056-0.313-0.085c-0.273-0.072-0.547-0.146-0.818-0.216
		c-0.031-0.008-0.066-0.017-0.1-0.023c-3.328-0.829-6.762-1.301-10.246-1.386c-0.027-0.002-0.057-0.002-0.084-0.002
		c-0.303-0.007-0.604-0.015-0.908-0.015c8.521-2.535,15.895-7.762,21.129-14.686c5.219-6.901,8.311-15.498,8.311-24.81
		c0.002-11.375-4.621-21.671-12.082-29.13c-7.459-7.46-17.76-12.079-29.129-12.079c-0.082,0-0.164,0.003-0.246,0.003
		c-0.084,0-0.165-0.003-0.25-0.003c-11.366,0-21.668,4.619-29.127,12.079c-7.463,7.459-12.085,17.754-12.085,29.13
		c0,9.313,3.093,17.907,8.313,24.811c5.234,6.924,12.607,12.15,21.128,14.686c-0.305,0-0.604,0.008-0.909,0.014
		c-0.026,0-0.056,0-0.084,0.004c-3.478,0.083-6.907,0.555-10.234,1.382c-0.037,0.011-0.074,0.017-0.11,0.026
		c-0.268,0.066-0.537,0.139-0.801,0.211c-0.112,0.026-0.222,0.058-0.329,0.089c-0.18,0.049-0.36,0.104-0.539,0.154
		c-0.194,0.057-0.387,0.111-0.579,0.171c-0.079,0.023-0.153,0.048-0.229,0.073c-1.212,0.375-2.406,0.801-3.581,1.272
		c-0.164,0.064-0.329,0.129-0.493,0.198c-5.14,2.13-9.906,5.17-14.05,9.017c-0.431,0.401-0.86,0.807-1.278,1.224
		c-4.326,4.32-7.73,9.411-10.07,14.934c-0.055,0.13-0.112,0.261-0.167,0.39c-0.151,0.363-0.289,0.733-0.431,1.1
		c-1.416,3.674-2.37,7.53-2.831,11.479h0.001v26.88h117.47v-26.88c-0.451-3.848-1.363-7.608-2.717-11.197
		C197.574,237.836,197.394,237.374,197.203,236.917z"/>
</g>
</svg>
