<?xml version="1.0" encoding="utf-8"?>
<!-- Generator: Adobe Illustrator 15.1.0, SVG Export Plug-In . SVG Version: 6.00 Build 0)  -->
<!DOCTYPE svg PUBLIC "-//W3C//DTD SVG 1.1//EN" "http://www.w3.org/Graphics/SVG/1.1/DTD/svg11.dtd">
<svg version="1.1" id="Layer_2" xmlns="http://www.w3.org/2000/svg" xmlns:xlink="http://www.w3.org/1999/xlink" x="0px" y="0px"
	 width="283.46px" height="283.46px" viewBox="0 0 283.46 283.46" enable-background="new 0 0 283.46 283.46" xml:space="preserve">
<path d="M262.452,65.958V46.625c0-6.487-6.724-11.749-15.051-11.826v-7.112c0-10.539-6.821-19.083-15.234-19.083H49.784
	c-8.414,0-15.236,8.544-15.236,19.083v231.125c0,10.544,6.822,19.083,15.236,19.083h182.382c8.413,0,15.234-8.539,15.234-19.083
	v-10.375c8.327-0.077,15.051-5.343,15.051-11.831v-19.33c0-6.485-6.724-11.749-15.051-11.826v-42.339
	c8.327-0.077,15.051-5.34,15.051-11.827v-19.332c0-6.487-6.724-11.749-15.051-11.826V77.785
	C255.728,77.707,262.452,72.445,262.452,65.958z M215.048,210.801H67.394h-0.09c0.64-5.474,2.021-10.796,4.109-15.83
	c2.953-7.145,7.311-13.705,12.887-19.284c5.57-5.581,12.135-9.926,19.279-12.888c7.074-2.929,14.708-4.495,22.513-4.521
	c-10.722-3.189-20.003-9.769-26.589-18.481c-6.565-8.688-10.464-19.503-10.464-31.222c0-14.314,5.817-27.27,15.21-36.661
	c9.386-9.386,22.357-15.199,36.661-15.199c14.309,0,27.269,5.813,36.661,15.199c9.386,9.391,15.194,22.347,15.194,36.661
	c0,11.719-3.893,22.536-10.454,31.222c-6.581,8.71-15.867,15.292-26.594,18.481h0.376c0.015,0,0.015,0,0.015,0
	c7.889,0,15.619,1.559,22.759,4.521s13.703,7.317,19.287,12.888c5.568,5.563,9.936,12.14,12.881,19.284
	c2.083,5.034,3.464,10.356,4.104,15.83H215.048z"/>
</svg>
