<?xml version="1.0" encoding="utf-8"?>
<!-- Generator: Adobe Illustrator 15.1.0, SVG Export Plug-In . SVG Version: 6.00 Build 0)  -->
<!DOCTYPE svg PUBLIC "-//W3C//DTD SVG 1.0//EN" "http://www.w3.org/TR/2001/REC-SVG-20010904/DTD/svg10.dtd">
<svg version="1.0" id="Layer_3" xmlns="http://www.w3.org/2000/svg" xmlns:xlink="http://www.w3.org/1999/xlink" x="0px" y="0px"
	 width="283.46px" height="283.46px" viewBox="0 0 283.46 283.46" enable-background="new 0 0 283.46 283.46" xml:space="preserve">
<g>
	<path d="M254.5,71.352V53.368c0-6.034-6.254-10.929-14-11.001v-6.615c0-9.804-6.346-17.752-14.173-17.752H56.673
		C48.846,18,42.5,25.948,42.5,35.752v214.996c0,9.805,6.346,17.752,14.173,17.752h169.654c7.827,0,14.173-7.947,14.173-17.752
		v-9.654c7.746-0.072,14-4.967,14-11.002v-17.983c0-6.034-6.254-10.929-14-11.001v-39.384c7.746-0.072,14-4.967,14-11.002v-17.983
		c0-6.034-6.254-10.929-14-11.001V82.353C248.246,82.28,254.5,77.386,254.5,71.352z M157.637,199.697v-10.146h-31.813v10.146
		c0,0.021-0.015,0.043-0.037,0.043H58.31c-0.021,0-0.039-0.021-0.039-0.043v-32.629c0-3.586,0.711-7.096,2.057-10.34
		c1.345-3.245,3.322-6.227,5.856-8.762c2.531-2.535,5.516-4.512,8.762-5.857c3.212-1.329,6.683-2.042,10.229-2.053
		c-4.872-1.45-9.087-4.439-12.081-8.397c-2.985-3.947-4.754-8.862-4.754-14.187c0-6.504,2.644-12.392,6.909-16.657
		c4.266-4.265,10.157-6.907,16.657-6.907c6.502,0,12.392,2.641,16.657,6.907c4.265,4.265,6.902,10.153,6.902,16.657
		c0,5.325-1.768,10.24-4.75,14.187c-2.993,3.958-7.21,6.947-12.083,8.397h0.17c0.008,0,0.008,0,0.008,0
		c3.585,0,7.096,0.708,10.34,2.054c0.88,0.365,1.738,0.78,2.575,1.236c1.167-2.016,2.594-3.892,4.271-5.57
		c2.531-2.535,5.516-4.512,8.762-5.856c3.212-1.33,6.683-2.042,10.229-2.053c-4.872-1.45-9.088-4.439-12.081-8.397
		c-2.985-3.947-4.754-8.862-4.754-14.187c0-6.504,2.643-12.391,6.909-16.657c4.266-4.265,10.157-6.907,16.656-6.907
		c6.502,0,12.393,2.641,16.656,6.907c4.266,4.266,6.902,10.153,6.902,16.657c0,5.325-1.768,10.24-4.75,14.187
		c-2.992,3.958-7.209,6.947-12.082,8.397h0.17c0.009,0,0.009,0,0.009,0c3.585,0,7.095,0.708,10.339,2.054
		c3.246,1.344,6.227,3.325,8.764,5.856c1.645,1.642,3.052,3.481,4.207,5.456c0.774-0.413,1.567-0.788,2.377-1.123
		c3.213-1.329,6.684-2.042,10.229-2.053c-4.871-1.45-9.088-4.439-12.08-8.397c-2.984-3.947-4.754-8.862-4.754-14.187
		c0-6.504,2.643-12.392,6.91-16.657c4.266-4.265,10.156-6.907,16.656-6.907c6.502,0,12.391,2.641,16.656,6.907
		c4.266,4.265,6.902,10.153,6.902,16.657c0,5.325-1.768,10.24-4.75,14.187c-2.992,3.958-7.211,6.947-12.082,8.397h0.17
		c0.008,0,0.008,0,0.008,0c3.586,0,7.096,0.708,10.34,2.054c3.244,1.345,6.227,3.325,8.764,5.856
		c2.531,2.527,4.514,5.517,5.852,8.762c1.348,3.244,2.059,6.755,2.059,10.34v32.629c0,0.021-0.016,0.043-0.037,0.043h-67.477
		C157.654,199.74,157.637,199.719,157.637,199.697z"/>
</g>
</svg>
