<?xml version="1.0" encoding="utf-8"?>
<!-- Generator: Adobe Illustrator 15.1.0, SVG Export Plug-In . SVG Version: 6.00 Build 0)  -->
<!DOCTYPE svg PUBLIC "-//W3C//DTD SVG 1.0//EN" "http://www.w3.org/TR/2001/REC-SVG-20010904/DTD/svg10.dtd">
<svg version="1.0" id="Layer_1" xmlns="http://www.w3.org/2000/svg" xmlns:xlink="http://www.w3.org/1999/xlink" x="0px" y="0px"
	 width="283.46px" height="283.46px" viewBox="0 0 283.46 283.46" enable-background="new 0 0 283.46 283.46" xml:space="preserve">
<g id="Layer_3">
</g>
<g>
	<path d="M254.5,71.352V53.368c0-6.034-6.254-10.929-14-11.001v-6.615c0-9.804-6.346-17.752-14.172-17.752H56.673
		C48.846,18,42.5,25.948,42.5,35.752v214.996c0,9.807,6.346,17.752,14.173,17.752h169.655c7.826,0,14.172-7.945,14.172-17.752
		v-9.652c7.746-0.072,14-4.969,14-11.004V212.11c0-6.032-6.254-10.929-14-11.001v-39.384c7.746-0.072,14-4.968,14-11.002V132.74
		c0-6.034-6.254-10.929-14-11.001V82.353C248.246,82.28,254.5,77.386,254.5,71.352z M130.052,132.239H72.409h-0.034
		c0.25-2.135,0.788-4.215,1.603-6.179c1.155-2.788,2.854-5.35,5.031-7.528c2.175-2.178,4.739-3.876,7.528-5.032
		c2.761-1.143,5.742-1.755,8.788-1.764c-4.186-1.246-7.808-3.814-10.379-7.216c-2.564-3.391-4.085-7.613-4.085-12.188
		c0-5.588,2.271-10.646,5.937-14.311c3.665-3.665,8.727-5.934,14.312-5.934c5.586,0,10.646,2.269,14.311,5.934
		s5.931,8.723,5.931,14.311c0,4.575-1.52,8.798-4.082,12.189c-2.57,3.4-6.195,5.969-10.381,7.215h0.146c0.007,0,0.007,0,0.007,0
		c3.08,0,6.097,0.608,8.884,1.764c2.788,1.156,5.35,2.858,7.53,5.032c2.174,2.172,3.879,4.74,5.028,7.528
		c0.815,1.964,1.354,4.044,1.604,6.179H130.052z M211.052,132.239H153.41h-0.035c0.25-2.136,0.789-4.215,1.604-6.179
		c1.154-2.789,2.854-5.351,5.031-7.529c2.174-2.178,4.738-3.875,7.527-5.031c2.761-1.143,5.742-1.755,8.789-1.764
		c-4.186-1.246-7.809-3.814-10.38-7.216c-2.564-3.391-4.085-7.613-4.085-12.188c0-5.588,2.271-10.646,5.938-14.311
		c3.664-3.665,8.727-5.934,14.311-5.934c5.586,0,10.646,2.269,14.311,5.934s5.931,8.723,5.931,14.311
		c0,4.575-1.519,8.798-4.081,12.189c-2.571,3.4-6.195,5.969-10.382,7.215h0.147c0.006,0,0.006,0,0.006,0
		c3.08,0,6.097,0.608,8.885,1.764c2.787,1.156,5.349,2.857,7.529,5.031c2.174,2.172,3.879,4.74,5.029,7.529
		c0.814,1.964,1.353,4.043,1.603,6.179H211.052z"/>
</g>
</svg>
