<?xml version="1.0" encoding="utf-8"?>
<!-- Generator: Adobe Illustrator 15.1.0, SVG Export Plug-In . SVG Version: 6.00 Build 0)  -->
<!DOCTYPE svg PUBLIC "-//W3C//DTD SVG 1.1//EN" "http://www.w3.org/Graphics/SVG/1.1/DTD/svg11.dtd">
<svg version="1.1" id="Layer_1" xmlns="http://www.w3.org/2000/svg" xmlns:xlink="http://www.w3.org/1999/xlink" x="0px" y="0px"
	 width="283.46px" height="283.46px" viewBox="0 0 283.46 283.46" enable-background="new 0 0 283.46 283.46" xml:space="preserve">
<g id="Layer_3">
</g>
<g>
	<path d="M254.5,71.352V53.368c0-6.034-6.254-10.929-14-11.001v-6.615c0-9.804-6.346-17.752-14.172-17.752H56.673
		C48.846,18,42.5,25.948,42.5,35.752v214.996c0,9.808,6.346,17.752,14.173,17.752h169.655c7.826,0,14.172-7.944,14.172-17.752
		v-9.651c7.746-0.072,14-4.97,14-11.005V212.11c0-6.032-6.254-10.929-14-11.001v-39.384c7.746-0.072,14-4.968,14-11.002V132.74
		c0-6.034-6.254-10.929-14-11.001V82.353C248.246,82.28,254.5,77.386,254.5,71.352z M133.274,129.699v13.55H74.06v-13.55
		c0.228-1.939,0.687-3.834,1.37-5.644c0.088-0.233,0.179-0.466,0.274-0.696c0.037-0.087,0.076-0.175,0.113-0.262
		c1.178-2.759,2.884-5.302,5.046-7.462c0.214-0.212,0.432-0.419,0.652-0.625c2.086-1.936,4.485-3.465,7.075-4.538
		c0.086-0.036,0.171-0.067,0.256-0.103c0.587-0.234,1.182-0.447,1.786-0.635c0.042-0.013,0.085-0.028,0.128-0.041
		c0.094-0.029,0.188-0.054,0.282-0.083c0.094-0.027,0.188-0.056,0.282-0.081c0.052-0.015,0.105-0.028,0.158-0.042
		c0.137-0.037,0.274-0.074,0.412-0.109c0.016-0.004,0.033-0.008,0.05-0.012c1.678-0.419,3.409-0.656,5.165-0.698
		c0.014-0.002,0.029-0.002,0.042-0.002c0.152-0.003,0.305-0.006,0.458-0.006c-4.295-1.278-8.012-3.913-10.65-7.403
		c-2.631-3.479-4.19-7.812-4.19-12.506c0-5.733,2.331-10.924,6.09-14.684c3.761-3.76,8.954-6.088,14.684-6.088
		c0.042,0,0.083,0.001,0.125,0.002c0.042,0,0.083-0.002,0.125-0.002c5.729,0,10.922,2.328,14.683,6.088
		c3.761,3.761,6.091,8.95,6.091,14.684c0,4.695-1.559,9.027-4.19,12.506c-2.639,3.491-6.355,6.125-10.65,7.404
		c0.153,0,0.305,0.003,0.458,0.007c0.014,0,0.028,0,0.042,0.001c1.754,0.042,3.481,0.279,5.159,0.696
		c0.019,0.006,0.037,0.009,0.056,0.014c0.134,0.034,0.27,0.07,0.403,0.106c0.057,0.015,0.112,0.029,0.166,0.044
		c0.091,0.025,0.182,0.053,0.271,0.079c0.098,0.028,0.195,0.056,0.292,0.086c0.039,0.012,0.078,0.024,0.115,0.037
		c0.611,0.19,1.213,0.404,1.806,0.641c0.083,0.033,0.167,0.065,0.249,0.1c2.592,1.074,4.994,2.606,7.082,4.545
		c0.218,0.203,0.434,0.407,0.645,0.618c2.181,2.177,3.896,4.744,5.076,7.528c0.028,0.065,0.057,0.131,0.084,0.196
		c0.076,0.183,0.146,0.369,0.218,0.554C132.562,125.767,133.043,127.71,133.274,129.699L133.274,129.699z M150.185,143.25v-13.551
		c0.229-1.939,0.688-3.834,1.369-5.643c0.088-0.234,0.18-0.467,0.275-0.696c0.037-0.087,0.076-0.175,0.113-0.263
		c1.178-2.759,2.883-5.302,5.045-7.461c0.215-0.213,0.432-0.42,0.652-0.625c2.088-1.936,4.486-3.465,7.076-4.538
		c0.086-0.036,0.17-0.067,0.256-0.103c0.586-0.234,1.182-0.447,1.785-0.635c0.043-0.013,0.086-0.027,0.129-0.041
		c0.094-0.028,0.188-0.053,0.281-0.082c0.094-0.027,0.188-0.056,0.281-0.081c0.053-0.015,0.105-0.028,0.158-0.042
		c0.137-0.037,0.273-0.074,0.412-0.109c0.016-0.004,0.033-0.008,0.049-0.012c1.68-0.419,3.41-0.656,5.166-0.698
		c0.014-0.002,0.029-0.002,0.043-0.002c0.152-0.003,0.305-0.007,0.457-0.007c-4.295-1.277-8.012-3.913-10.65-7.403
		c-2.631-3.479-4.189-7.812-4.189-12.506c0-5.733,2.33-10.924,6.09-14.684s8.953-6.088,14.684-6.088
		c0.043,0,0.084,0.001,0.125,0.002c0.041,0,0.084-0.002,0.125-0.002c5.73,0,10.922,2.328,14.684,6.088
		c3.762,3.761,6.092,8.95,6.092,14.684c0,4.695-1.559,9.027-4.191,12.506c-2.639,3.491-6.355,6.125-10.65,7.404
		c0.154,0,0.305,0.003,0.459,0.007c0.014,0,0.027,0,0.041,0.001c1.754,0.042,3.482,0.279,5.16,0.696
		c0.018,0.006,0.037,0.009,0.055,0.014c0.135,0.034,0.27,0.07,0.404,0.106c0.057,0.015,0.111,0.029,0.166,0.044
		c0.09,0.025,0.182,0.053,0.271,0.079c0.098,0.028,0.195,0.056,0.291,0.086c0.039,0.012,0.078,0.024,0.115,0.036
		c0.611,0.19,1.213,0.404,1.807,0.642c0.084,0.033,0.166,0.065,0.248,0.1c2.592,1.073,4.994,2.606,7.082,4.545
		c0.219,0.202,0.434,0.407,0.645,0.618c2.182,2.177,3.896,4.744,5.076,7.527c0.029,0.066,0.057,0.131,0.084,0.197
		c0.076,0.183,0.146,0.369,0.219,0.554c0.713,1.853,1.193,3.796,1.426,5.784v13.551H150.185z"/>
</g>
</svg>
