<?xml version="1.0" encoding="utf-8"?>
<!-- Generator: Adobe Illustrator 15.1.0, SVG Export Plug-In . SVG Version: 6.00 Build 0)  -->
<!DOCTYPE svg PUBLIC "-//W3C//DTD SVG 1.1//EN" "http://www.w3.org/Graphics/SVG/1.1/DTD/svg11.dtd">
<svg version="1.1" id="Layer_3" xmlns="http://www.w3.org/2000/svg" xmlns:xlink="http://www.w3.org/1999/xlink" x="0px" y="0px"
	 width="283.465px" height="283.465px" viewBox="0 0 283.465 283.465" enable-background="new 0 0 283.465 283.465"
	 xml:space="preserve">
<g>
	<path d="M178.402,195.232v-4.512v-4.322c0-0.271,0.016-0.54,0.046-0.804c2.575-28.762,23.563-50.426,48.891-50.426
		c19.755,0,36.909,13.134,44.793,32.521c1.104-0.343,2.06-1.033,2.837-2.113c0.934-1.269,1.401-2.634,1.401-4.033v-23.332v-15.591
		c0-1.533-0.47-2.899-1.401-4.132l0.02,0.033c-0.934-1.233-2.152-1.968-3.686-2.199l-32.092-4.899
		c-1.75-5.631-4.146-11.362-7.18-17.194c2.098-2.933,5.266-7.032,9.464-12.364c4.215-5.297,7.18-9.197,8.944-11.663
		c0.935-1.267,1.401-2.633,1.401-4.032c0-1.633-0.418-2.898-1.233-3.833c-4.215-5.965-13.848-15.895-28.924-29.824
		c-1.398-1.167-2.867-1.732-4.385-1.732c-1.75,0-3.146,0.533-4.215,1.565l-24.877,18.762c-4.796-2.465-10.063-4.631-15.775-6.498
		l-4.918-32.258c-0.113-1.533-0.798-2.767-2.017-3.766c-1.229-1-2.664-1.5-4.297-1.5h-38.925c-3.398,0-5.496,1.633-6.313,4.932
		c-1.52,5.833-3.219,16.695-5.082,32.592c-5.5,1.731-10.8,3.965-15.964,6.665L70.725,32.513c-1.517-1.167-3.031-1.768-4.548-1.768
		c-2.582,0-8.097,4.199-16.576,12.53c-8.466,8.363-14.215,14.663-17.281,18.862c-1.047,1.499-1.566,2.865-1.566,4.032
		c0,1.399,0.586,2.799,1.75,4.197c7.832,9.465,14.082,17.529,18.762,24.194c-2.934,5.396-5.215,10.763-6.848,16.127l-32.589,4.898
		c-1.301,0.233-2.402,1-3.335,2.299c-0.932,1.268-1.398,2.634-1.398,4.032v38.924c0,1.533,0.468,2.898,1.398,4.135
		c0.933,1.23,2.152,1.932,3.683,2.166l32.073,4.73c1.652,5.73,4.035,11.531,7.199,17.361c-2.097,2.933-5.265,7.031-9.48,12.363
		c-4.198,5.332-7.179,9.194-8.929,11.66c-0.934,1.268-1.402,2.635-1.402,4.033c0,1.5,0.402,2.867,1.22,4.031
		c4.565,6.299,14.21,16.129,28.925,29.459c1.301,1.267,2.75,1.898,4.382,1.898c1.766,0,3.215-0.5,4.398-1.566l24.71-18.76
		c4.797,2.465,10.063,4.633,15.776,6.5l4.918,32.256c0.113,1.531,0.781,2.767,2.017,3.767c1.215,1,2.664,1.5,4.296,1.5h38.923
		c3.398,0,5.496-1.633,6.313-4.897c0.946-3.649,1.961-9.235,3.041-16.76V205.76C170.557,200.707,173.896,196.46,178.402,195.232z
		 M141.722,186.604c-12.379,0-22.961-4.365-31.727-13.129c-8.761-8.766-13.144-19.361-13.144-31.727
		c0-12.396,4.383-22.993,13.144-31.758c8.766-8.764,19.347-13.129,31.727-13.129c12.397,0,22.975,4.365,31.74,13.129
		c8.767,8.765,13.147,19.361,13.147,31.758c0,12.363-4.383,22.961-13.147,31.727C164.697,182.236,154.12,186.604,141.722,186.604z"
		/>
	<g>
		<path d="M276.37,273.488v-67.729c0-1.601-1.125-2.897-2.515-2.897h-4.25l0.002-0.146h-0.086v-0.816v-15.497H269.5
			c-2.259-25.229-20.354-44.233-42.161-44.233c-21.728,0-39.754,19.015-41.935,44.229h-0.002v0.004v4.318v11.179v0.708v0.256h-4.334
			c-1.387,0-2.512,1.296-2.512,2.896v67.729c0,1.597,1.125,2.894,2.512,2.894h24.497h8h13.697h46.593
			C275.245,276.382,276.37,275.085,276.37,273.488z M199.126,187.166l0.041-0.318c1.685-17.923,13.795-31.438,28.172-31.438
			c14.289,0,26.338,13.531,28.022,31.456l0.039,0.575v15.42h-56.205v-0.146h-0.069V187.166z M232.281,239.275v14.886
			c0.001,1.405-1.497,2.545-3.344,2.545h-2.947c-1.848,0-3.346-1.14-3.346-2.545v-14.886c-2.557-1.606-4.26-4.442-4.26-7.686
			c0-5.013,4.064-9.078,9.077-9.078c5.017,0,9.077,4.065,9.077,9.078C236.538,234.831,234.836,237.667,232.281,239.275z"/>
	</g>
</g>
</svg>
