<?xml version="1.0" encoding="utf-8"?>
<!-- Generator: Adobe Illustrator 15.1.0, SVG Export Plug-In . SVG Version: 6.00 Build 0)  -->
<!DOCTYPE svg PUBLIC "-//W3C//DTD SVG 1.1//EN" "http://www.w3.org/Graphics/SVG/1.1/DTD/svg11.dtd">
<svg version="1.1" id="Layer_1" xmlns="http://www.w3.org/2000/svg" xmlns:xlink="http://www.w3.org/1999/xlink" x="0px" y="0px"
	 width="283.465px" height="283.465px" viewBox="0 0 283.465 283.465" enable-background="new 0 0 283.465 283.465"
	 xml:space="preserve">
<g id="Layer_1_1_">
</g>
<g id="Layer_2">
	<g>
		<path fill="none" d="M173.462,109.991c-8.766-8.764-19.343-13.129-31.74-13.129c-12.379,0-22.961,4.365-31.727,13.129
			c-8.761,8.765-13.144,19.361-13.144,31.758c0,12.364,4.383,22.961,13.144,31.726c8.766,8.764,19.347,13.13,31.727,13.13
			c12.397,0,22.976-4.366,31.74-13.13c8.766-8.765,13.147-19.36,13.147-31.726C186.61,129.353,182.229,118.755,173.462,109.991z"/>
		<path d="M181.069,198.862h0.334v-8.144v-4.317l0.001-0.401l0.035-0.173c2.449-27.187,22.146-47.659,45.898-47.659
			c18.302,0,34.227,12.109,41.763,30.063l2.351-0.355c1.402-0.233,2.583-1,3.517-2.299c0.934-1.268,1.402-2.633,1.402-4.033v-38.923
			c0-1.533-0.47-2.899-1.402-4.132l0.02,0.033c-0.934-1.233-2.152-1.968-3.685-2.199l-32.092-4.899
			c-1.75-5.631-4.147-11.362-7.18-17.194c2.098-2.933,5.266-7.032,9.464-12.364c4.215-5.297,7.18-9.197,8.945-11.663
			c0.934-1.267,1.401-2.633,1.401-4.032c0-1.633-0.418-2.898-1.233-3.833c-4.215-5.965-13.848-15.895-28.925-29.824
			c-1.398-1.167-2.867-1.732-4.384-1.732c-1.75,0-3.147,0.533-4.215,1.565l-24.877,18.762c-4.796-2.465-10.062-4.631-15.775-6.498
			l-4.918-32.258c-0.113-1.533-0.798-2.767-2.017-3.766c-1.229-1-2.664-1.5-4.297-1.5h-38.925c-3.398,0-5.496,1.633-6.313,4.932
			c-1.52,5.833-3.219,16.695-5.082,32.592c-5.5,1.731-10.8,3.965-15.964,6.665L70.725,32.513c-1.517-1.167-3.031-1.768-4.548-1.768
			c-2.582,0-8.097,4.199-16.576,12.53c-8.466,8.363-14.215,14.663-17.281,18.862c-1.047,1.499-1.566,2.865-1.566,4.032
			c0,1.399,0.586,2.799,1.75,4.197c7.832,9.465,14.082,17.529,18.762,24.194c-2.934,5.396-5.215,10.763-6.848,16.127l-32.589,4.898
			c-1.301,0.233-2.402,1-3.335,2.299c-0.932,1.268-1.398,2.634-1.398,4.032v38.924c0,1.533,0.468,2.898,1.398,4.134
			c0.933,1.231,2.152,1.932,3.683,2.166l32.073,4.731c1.652,5.73,4.035,11.531,7.199,17.362c-2.097,2.932-5.265,7.031-9.48,12.363
			c-4.198,5.331-7.179,9.194-8.929,11.66c-0.934,1.267-1.402,2.634-1.402,4.033c0,1.5,0.402,2.867,1.22,4.031
			c4.565,6.299,14.21,16.129,28.925,29.46c1.301,1.266,2.75,1.898,4.382,1.898c1.766,0,3.215-0.5,4.398-1.566l24.71-18.761
			c4.797,2.465,10.063,4.633,15.776,6.5l4.918,32.256c0.113,1.531,0.781,2.767,2.017,3.767c1.215,1,2.664,1.5,4.296,1.5h38.923
			c3.398,0,5.496-1.633,6.313-4.898c1.52-5.866,3.219-16.729,5.082-32.623c0.658-0.208,1.308-0.446,1.962-0.668v-32.432
			C174.558,201.955,177.479,198.862,181.069,198.862z M141.722,186.604c-12.379,0-22.961-4.366-31.727-13.13
			c-8.761-8.765-13.144-19.36-13.144-31.726c0-12.396,4.383-22.993,13.144-31.758c8.766-8.764,19.347-13.129,31.727-13.129
			c12.397,0,22.976,4.365,31.74,13.129c8.767,8.765,13.147,19.361,13.147,31.758c0,12.364-4.382,22.961-13.147,31.726
			C164.697,182.237,154.12,186.604,141.722,186.604z"/>
		<path d="M273.855,202.862h-4.249l0.001-0.146h-0.085v-16.314H269.5c-2.259-25.229-20.354-44.233-42.161-44.233
			c-21.727,0-39.754,19.015-41.935,44.229h-0.001v0.005v4.317v12.144h-4.334c-1.387,0-2.512,1.295-2.512,2.895v67.729
			c0,1.597,1.125,2.894,2.512,2.894h92.787c1.389,0,2.514-1.297,2.514-2.894v-67.729
			C276.37,204.158,275.245,202.862,273.855,202.862z M199.196,202.862v-0.146h-0.07v-15.55l0.041-0.319
			c1.684-17.922,13.795-31.437,28.172-31.437c14.289,0,26.338,13.531,28.022,31.456l0.04,0.575v15.421H199.196z M228.937,256.706
			h-2.947c-1.848,0-3.346-1.14-3.346-2.545v-14.886c-2.556-1.606-4.259-4.442-4.259-7.685c0-5.013,4.064-9.078,9.077-9.078
			c5.016,0,9.077,4.065,9.077,9.078c-0.001,3.241-1.703,6.077-4.258,7.685v14.886C232.282,255.566,230.784,256.706,228.937,256.706z
			"/>
	</g>
</g>
</svg>
