<?xml version="1.0" encoding="utf-8"?>
<!-- Generator: Adobe Illustrator 15.1.0, SVG Export Plug-In . SVG Version: 6.00 Build 0)  -->
<!DOCTYPE svg PUBLIC "-//W3C//DTD SVG 1.1//EN" "http://www.w3.org/Graphics/SVG/1.1/DTD/svg11.dtd">
<svg version="1.1" id="Layer_4" xmlns="http://www.w3.org/2000/svg" xmlns:xlink="http://www.w3.org/1999/xlink" x="0px" y="0px"
	 width="283.46px" height="283.46px" viewBox="0 0 283.46 283.46" enable-background="new 0 0 283.46 283.46" xml:space="preserve">
<g>
	<path fill="none" d="M111.577,38.651h9.797v-0.049l-0.803-0.889l-8.526-9.438l-0.938-1.038v10.944
		C111.108,38.441,111.318,38.651,111.577,38.651z"/>
	<path fill="none" d="M63.388,86.841h9.797v-0.049l-0.803-0.889l-8.526-9.438l-0.938-1.038v10.945
		C62.919,86.631,63.129,86.841,63.388,86.841z"/>
	<path fill="none" d="M159.757,86.841h9.798v-0.049l-0.803-0.889l-8.526-9.438l-0.938-1.038v10.945
		C159.287,86.631,159.498,86.841,159.757,86.841z"/>
	<path fill="none" d="M111.577,135.029h9.797v-0.049l-0.803-0.889l-8.526-9.438l-0.938-1.038v10.944
		C111.108,134.819,111.318,135.029,111.577,135.029z"/>
	<path fill="none" d="M111.577,86.841h9.797v-0.049l-0.803-0.889l-8.526-9.438l-0.938-1.038v10.945
		C111.108,86.631,111.318,86.841,111.577,86.841z"/>
	<path fill="none" d="M63.388,38.651h9.797v-0.049l-0.803-0.889l-8.526-9.438l-0.938-1.038v10.944
		C62.919,38.441,63.129,38.651,63.388,38.651z"/>
	<path fill="none" d="M63.388,135.029h9.797v-0.049l-0.803-0.889l-8.526-9.438l-0.938-1.038v10.944
		C62.919,134.819,63.129,135.029,63.388,135.029z"/>
	<path fill="none" d="M207.946,38.651h9.798v-0.049l-0.804-0.889l-8.525-9.438l-0.938-1.038v10.944
		C207.477,38.441,207.687,38.651,207.946,38.651z"/>
	<path fill="none" d="M63.388,183.22h9.797v-0.049l-0.803-0.889l-8.526-9.439l-0.938-1.037v10.945
		C62.919,183.009,63.129,183.22,63.388,183.22z"/>
	<path fill="none" d="M159.757,38.651h9.798v-0.049l-0.803-0.889l-8.526-9.438l-0.938-1.038v10.944
		C159.287,38.441,159.498,38.651,159.757,38.651z"/>
	<path d="M276.376,227.837l-46.928-30.346v23.518H11.539c-2.46,0-4.455,3.057-4.455,6.828s1.995,6.828,4.455,6.828h217.909v23.518
		L276.376,227.837z"/>
	<path fill="#010101" d="M33.61,66.527h40.227c0.283,0,0.511-0.229,0.511-0.511v-25.32v-3.545c0-0.149-0.066-0.284-0.17-0.378
		L63.945,25.446c-0.097-0.107-0.235-0.169-0.38-0.169h-1.996H33.61c-0.282,0-0.511,0.229-0.511,0.512v40.228
		C33.099,66.298,33.328,66.527,33.61,66.527z M62.919,27.238l0.938,1.038l8.526,9.438l0.803,0.889v0.049h-9.797
		c-0.259,0-0.469-0.21-0.469-0.469V27.238z"/>
	<path fill="#010101" d="M33.61,114.716h40.227c0.283,0,0.511-0.229,0.511-0.511V88.886v-3.545c0-0.149-0.066-0.284-0.17-0.378
		L63.945,73.635c-0.097-0.107-0.235-0.168-0.38-0.168h-1.996H33.61c-0.282,0-0.511,0.229-0.511,0.511v40.228
		C33.099,114.487,33.328,114.716,33.61,114.716z M62.919,75.427l0.938,1.038l8.526,9.438l0.803,0.889v0.049h-9.797
		c-0.259,0-0.469-0.21-0.469-0.469V75.427z"/>
	<path fill="#010101" d="M33.61,162.905h40.227c0.283,0,0.511-0.229,0.511-0.51v-25.321v-3.545c0-0.149-0.066-0.284-0.17-0.378
		l-10.233-11.327c-0.097-0.107-0.235-0.169-0.38-0.169h-1.996H33.61c-0.282,0-0.511,0.229-0.511,0.512v40.229
		C33.099,162.677,33.328,162.905,33.61,162.905z M62.919,123.616l0.938,1.038l8.526,9.438l0.803,0.889v0.049h-9.797
		c-0.259,0-0.469-0.21-0.469-0.469V123.616z"/>
	<path fill="#010101" d="M33.61,211.095h40.227c0.283,0,0.511-0.229,0.511-0.51v-25.32v-3.545c0-0.15-0.066-0.285-0.17-0.379
		l-10.233-11.328c-0.097-0.107-0.235-0.168-0.38-0.168h-1.996H33.61c-0.282,0-0.511,0.229-0.511,0.512v40.229
		C33.099,210.866,33.328,211.095,33.61,211.095z M62.919,171.806l0.938,1.037l8.526,9.439l0.803,0.889v0.049h-9.797
		c-0.259,0-0.469-0.211-0.469-0.469V171.806z"/>
	<path fill="#010101" d="M81.799,66.527h40.227c0.283,0,0.511-0.229,0.511-0.511v-25.32v-3.545c0-0.149-0.066-0.284-0.17-0.378
		l-10.233-11.327c-0.097-0.107-0.235-0.169-0.38-0.169h-1.996H81.799c-0.282,0-0.511,0.229-0.511,0.512v40.228
		C81.288,66.298,81.517,66.527,81.799,66.527z M111.108,27.238l0.938,1.038l8.526,9.438l0.803,0.889v0.049h-9.797
		c-0.259,0-0.469-0.21-0.469-0.469V27.238z"/>
	<path fill="#010101" d="M81.799,114.716h40.227c0.283,0,0.511-0.229,0.511-0.511V88.886v-3.545c0-0.149-0.066-0.284-0.17-0.378
		l-10.233-11.328c-0.097-0.107-0.235-0.168-0.38-0.168h-1.996H81.799c-0.282,0-0.511,0.229-0.511,0.511v40.228
		C81.288,114.487,81.517,114.716,81.799,114.716z M111.108,75.427l0.938,1.038l8.526,9.438l0.803,0.889v0.049h-9.797
		c-0.259,0-0.469-0.21-0.469-0.469V75.427z"/>
	<path fill="#010101" d="M81.799,162.905h40.227c0.283,0,0.511-0.229,0.511-0.51v-25.321v-3.545c0-0.149-0.066-0.284-0.17-0.378
		l-10.233-11.327c-0.097-0.107-0.235-0.169-0.38-0.169h-1.996H81.799c-0.282,0-0.511,0.229-0.511,0.512v40.229
		C81.288,162.677,81.517,162.905,81.799,162.905z M111.108,123.616l0.938,1.038l8.526,9.438l0.803,0.889v0.049h-9.797
		c-0.259,0-0.469-0.21-0.469-0.469V123.616z"/>
	<path fill="#010101" d="M129.988,66.527h40.218c0.283,0,0.512-0.229,0.512-0.511v-25.32v-3.545c0-0.149-0.066-0.284-0.171-0.378
		l-10.232-11.327c-0.098-0.107-0.236-0.169-0.381-0.169h-1.996h-27.949c-0.282,0-0.511,0.229-0.511,0.512v40.228
		C129.477,66.298,129.706,66.527,129.988,66.527z M159.287,27.238l0.938,1.038l8.526,9.438l0.803,0.889v0.049h-9.798
		c-0.259,0-0.47-0.21-0.47-0.469V27.238z"/>
	<path fill="#010101" d="M129.988,114.716h40.218c0.283,0,0.512-0.229,0.512-0.511V88.886v-3.545c0-0.149-0.066-0.284-0.171-0.378
		l-10.232-11.328c-0.098-0.107-0.236-0.168-0.381-0.168h-1.996h-27.949c-0.282,0-0.511,0.229-0.511,0.511v40.228
		C129.477,114.487,129.706,114.716,129.988,114.716z M159.287,75.427l0.938,1.038l8.526,9.438l0.803,0.889v0.049h-9.798
		c-0.259,0-0.47-0.21-0.47-0.469V75.427z"/>
	<path fill="#010101" d="M178.168,66.527h40.228c0.283,0,0.512-0.229,0.512-0.511v-25.32v-3.545c0-0.149-0.066-0.284-0.171-0.378
		l-10.233-11.327c-0.097-0.107-0.235-0.169-0.38-0.169h-1.996h-27.959c-0.282,0-0.511,0.229-0.511,0.512v40.228
		C177.657,66.298,177.886,66.527,178.168,66.527z M207.477,27.238l0.938,1.038l8.525,9.438l0.804,0.889v0.049h-9.798
		c-0.26,0-0.47-0.21-0.47-0.469V27.238z"/>
</g>
</svg>
