<?xml version="1.0" encoding="utf-8"?>
<!-- Generator: Adobe Illustrator 15.1.0, SVG Export Plug-In . SVG Version: 6.00 Build 0)  -->
<!DOCTYPE svg PUBLIC "-//W3C//DTD SVG 1.1//EN" "http://www.w3.org/Graphics/SVG/1.1/DTD/svg11.dtd">
<svg version="1.1" id="Layer_3" xmlns="http://www.w3.org/2000/svg" xmlns:xlink="http://www.w3.org/1999/xlink" x="0px" y="0px"
	 width="283.46px" height="283.46px" viewBox="0 0 283.46 283.46" enable-background="new 0 0 283.46 283.46" xml:space="preserve">
<g>
	<path fill="none" d="M235.954,237.812c0.006,0.013,0.013,0.028,0.02,0.042c0.176-0.059,0.39-0.193,0.619-0.368l0.008-0.007
		c-0.512-0.928-0.859-1.559-0.859-1.56C235.757,236.585,235.809,237.426,235.954,237.812z"/>
	<path fill="none" d="M237.944,249.582l1.808-0.627c0.327-0.113,0.502-0.471,0.388-0.799c-0.113-0.328-0.472-0.502-0.799-0.389
		l-1.808,0.628c-0.328,0.113-0.502,0.471-0.388,0.798C237.258,249.521,237.617,249.694,237.944,249.582z"/>
	<path fill="none" d="M245.693,247.41l-8.16,2.827c-0.328,0.113-0.502,0.472-0.388,0.8c0.113,0.328,0.472,0.502,0.799,0.387
		l8.16-2.826c0.328-0.115,0.502-0.472,0.389-0.8S246.021,247.296,245.693,247.41z"/>
	<path fill="none" d="M243.128,234.69c-0.421,0-0.677,0.078-0.794,0.251c-0.053,0.076-0.069,0.169-0.063,0.271
		c0.008,0.163,0.068,0.344,0.162,0.529c0.147,0.294,0.374,0.598,0.638,0.866c0.159-0.174,0.288-0.358,0.385-0.542
		C243.815,235.388,243.768,234.69,243.128,234.69z"/>
	<path fill="none" d="M241.242,235.181c-0.072-0.224-0.234-0.375-0.491-0.375c-0.37,0-0.619,0.114-0.758,0.313
		c-0.237,0.335-0.173,0.854,0.044,1.319c0.127,0.265,0.309,0.518,0.529,0.708c0.341-0.333,0.563-0.747,0.664-1.142
		C241.307,235.702,241.316,235.41,241.242,235.181z"/>
	<path fill="none" d="M238.423,234.885c-0.052-0.061-0.146-0.077-0.283-0.079c-0.237-0.005-0.405,0.035-0.51,0.129
		c-0.116,0.103-0.134,0.266-0.108,0.448c0.035,0.251,0.157,0.537,0.335,0.816c0.054-0.069,0.106-0.14,0.154-0.21
		c0.206-0.299,0.363-0.586,0.422-0.825C238.462,235.05,238.477,234.952,238.423,234.885z"/>
	<path fill="none" d="M245.689,249.24l-8.161,2.827c-0.327,0.113-0.502,0.473-0.388,0.799c0.114,0.327,0.472,0.502,0.799,0.388
		l8.16-2.828c0.328-0.113,0.502-0.471,0.389-0.799C246.375,249.299,246.016,249.126,245.689,249.24z"/>
	<path fill="none" d="M245.113,255.073l-4.705,1.629c-0.327,0.112-0.501,0.472-0.388,0.799c0.114,0.328,0.472,0.502,0.8,0.389
		l4.704-1.631c0.328-0.113,0.502-0.472,0.389-0.8C245.799,255.132,245.441,254.958,245.113,255.073z"/>
	<path fill="none" d="M245.689,251.079l-8.161,2.828c-0.327,0.113-0.502,0.472-0.388,0.8s0.472,0.501,0.799,0.388l8.16-2.828
		c0.328-0.112,0.502-0.471,0.389-0.799S246.016,250.965,245.689,251.079z"/>
	<path fill="none" d="M245.689,253.029l-7.253,2.514c-0.327,0.113-0.502,0.472-0.388,0.799c0.113,0.327,0.473,0.5,0.8,0.387
		l7.251-2.511c0.328-0.114,0.502-0.473,0.389-0.801C246.375,253.089,246.016,252.916,245.689,253.029z"/>
	<path fill="none" d="M246.352,234.985c-0.14-0.194-0.417-0.295-0.842-0.295c-0.162,0-0.289,0.02-0.382,0.059
		c-0.059,0.023-0.099,0.053-0.12,0.096c-0.044,0.088-0.017,0.2,0.031,0.326c0.121,0.307,0.406,0.66,0.753,0.973
		c0.072,0.066,0.149,0.131,0.229,0.193c0.209-0.27,0.349-0.547,0.403-0.805C246.47,235.324,246.457,235.132,246.352,234.985z"/>
	<path fill="none" d="M67.485,198.896h11.977v-0.059l-0.981-1.088l-10.422-11.536l-1.146-1.271v13.38
		C66.912,198.639,67.168,198.896,67.485,198.896z"/>
	<path fill="none" d="M152.023,220.818c1.105-0.395,1.97-1.758,2.227-3.489C153.992,219.061,153.128,220.423,152.023,220.818z"/>
	<path fill="none" d="M45.281,207.792l-1.146-1.271v13.379c0,0.316,0.256,0.574,0.573,0.574h11.977v-0.062l-0.982-1.086
		L45.281,207.792z"/>
	<path fill="none" d="M241.816,225.45c-6.098,0-11.049,4.95-11.049,11.049s4.951,11.048,11.049,11.048
		c6.099,0,11.049-4.949,11.049-11.048S247.915,225.45,241.816,225.45z M248.191,237.032c-0.258,0.354-0.656,0.456-1.114,0.367
		c-0.038-0.006-0.076-0.015-0.114-0.025l-4.029,7.642c-0.062,0.118-0.208,0.163-0.326,0.102c-0.118-0.063-0.163-0.209-0.101-0.327
		l3.998-7.586c-0.137-0.065-0.274-0.142-0.41-0.229c-0.333,0.335-0.753,0.64-1.242,0.865c-0.306,0.142-0.725,0.079-1.158-0.151
		c-0.205-0.11-0.416-0.254-0.617-0.423c-0.271,0.225-0.592,0.423-0.967,0.579c-0.552,0.229-1.074,0.155-1.512-0.091
		c-0.032,0.023-0.062,0.046-0.095,0.067c-0.466,0.314-1.02,0.283-1.553,0.03c-0.401-0.19-0.791-0.509-1.112-0.875
		c-0.2,0.221-0.412,0.433-0.622,0.618l3.968,7.189c0.065,0.118,0.023,0.265-0.096,0.33c-0.116,0.063-0.262,0.021-0.327-0.095
		c0,0-2.447-4.436-3.926-7.113c-0.319,0.237-0.62,0.396-0.85,0.443c-0.123,0.023-0.239-0.012-0.339-0.116
		c-0.095-0.102-0.184-0.317-0.24-0.606c-0.179-0.913-0.154-2.656-0.154-2.656c0.001-0.11,0.075-0.205,0.183-0.23
		c0.105-0.027,0.217,0.021,0.27,0.117l1.272,2.304c0.19-0.175,0.382-0.368,0.56-0.571c-0.058-0.083-0.111-0.166-0.159-0.251
		c-0.336-0.577-0.44-1.164-0.244-1.539c0.147-0.284,0.462-0.487,1.016-0.478c0.419,0.008,0.64,0.178,0.736,0.403
		c0.106,0.255,0.036,0.646-0.194,1.081c-0.136,0.254-0.323,0.528-0.537,0.799c0.335,0.396,0.761,0.738,1.19,0.887
		c0.291,0.1,0.584,0.109,0.841-0.042c-0.241-0.226-0.442-0.505-0.583-0.806c-0.3-0.635-0.326-1.346-0.006-1.803
		c0.214-0.308,0.584-0.52,1.154-0.52c0.718,0,1.079,0.598,1.018,1.379c-0.041,0.554-0.305,1.196-0.781,1.706
		c0.282,0.115,0.601,0.131,0.938-0.009c0.304-0.127,0.567-0.286,0.793-0.464c-0.295-0.305-0.552-0.646-0.718-0.978
		c-0.247-0.491-0.286-0.964-0.066-1.288c0.18-0.265,0.547-0.462,1.194-0.462c0.378,0,0.65,0.148,0.821,0.38
		c0.22,0.295,0.272,0.751,0.123,1.247c-0.109,0.359-0.324,0.745-0.645,1.098c0.162,0.129,0.328,0.243,0.491,0.329
		c0.275,0.146,0.534,0.23,0.729,0.141c0.406-0.188,0.763-0.437,1.049-0.71c-0.233-0.184-0.448-0.388-0.629-0.597
		c-0.253-0.295-0.438-0.598-0.518-0.86c-0.059-0.198-0.06-0.38-0.008-0.531c0.096-0.273,0.377-0.497,0.967-0.497
		c0.634,0,1.027,0.207,1.234,0.498c0.177,0.249,0.228,0.572,0.153,0.929c-0.067,0.309-0.233,0.648-0.484,0.976
		c0.104,0.064,0.211,0.121,0.315,0.169c0,0,0.725-1.453,0.932-1.766c0.061-0.091,0.056-0.207,0.309-0.11
		c0.015,0.008,0.049,0.021,0.091,0.042c0.169,0.086,0.498,0.312,0.578,0.744C248.695,236,248.625,236.44,248.191,237.032z"/>
	<path fill="none" d="M247.196,236.93c0.246,0.042,0.467,0.008,0.605-0.185c0.25-0.34,0.357-0.605,0.371-0.82
		c0.013-0.23-0.096-0.378-0.202-0.465L247.196,236.93z"/>
	<path fill="none" d="M206.097,235.847c0,3.134,0.416,6.171,1.188,9.063C206.513,242.018,206.097,238.98,206.097,235.847
		C206.097,235.847,206.097,235.847,206.097,235.847z"/>
	<path fill="#231F20" d="M151.315,220.942h-0.786C150.837,220.95,151.103,220.95,151.315,220.942z"/>
	<path fill="#010101" d="M228.523,224.163c0.141,0.141,0.324,0.211,0.508,0.211c0.185,0,0.369-0.071,0.51-0.212
		C229.259,224.443,228.804,224.444,228.523,224.163z"/>
	<path fill="#010101" d="M254.855,248.548c-0.082-0.031-0.167-0.05-0.254-0.05c-0.093,0-0.186,0.018-0.272,0.054
		C254.498,248.484,254.686,248.484,254.855,248.548z"/>
	<path fill="#010101" d="M254.871,248.551c0.087,0.035,0.168,0.087,0.238,0.157C255.039,248.638,254.958,248.586,254.871,248.551z"
		/>
	<polygon fill="#010101" points="254.089,248.708 254.089,248.71 254.09,248.71 	"/>
	<g>
		<path fill="#010101" d="M53.791,94.599c2.835-10.812,7.729-20.976,14.53-30.002c4.093-5.432,8.854-10.396,14.153-14.756
			c17.845-14.682,40.376-21.533,63.442-19.29c23.07,2.244,43.857,13.306,58.539,31.15c25.537,31.038,26.482,75.129,2.299,107.222
			c-4.094,5.434-8.856,10.399-14.157,14.764c-13.011,10.705-28.552,17.26-45.185,19.128H82.326c-0.083,0-0.162,0.028-0.244,0.039
			v18.05c0.082,0.011,0.161,0.039,0.244,0.039h68.144h0.059h0.786h0.05c0,0,0,0,0.001,0c22.626-1.053,34.955-9.225,52.449-23.619
			c6.377-5.244,12.109-11.225,17.043-17.771c13.846-18.372,21.283-41.246,20.947-64.406c-0.346-23.532-8.766-46.497-23.711-64.664
			c-17.678-21.486-42.703-34.805-70.467-37.505c-27.765-2.701-54.888,5.548-76.375,23.226c-6.376,5.247-12.107,11.223-17.037,17.765
			C45.088,66.083,38.814,79.888,35.648,94.57L7.085,94.525l37.455,65.11l37.662-64.991L53.791,94.599z M152.801,220.35
			c0.721-0.631,1.255-1.723,1.448-3.021C154.057,218.627,153.523,219.718,152.801,220.35z"/>
		<path fill="#010101" d="M207.286,244.911c4.002,15.006,17.691,26.075,33.951,26.075c19.393,0,35.139-15.746,35.139-35.141
			c0-19.392-15.746-35.138-35.141-35.138c-16.26,0-29.949,11.069-33.949,26.075H84.884c-1.024,0-1.979,0.239-2.802,0.649v4.913
			c0,1.006-0.818,1.824-1.824,1.824h-0.905v6.07c0,2.58,2.476,4.671,5.531,4.671H207.286 M253.381,222.436
			c0.646-0.646,1.739-1.739,2.376-2.375c0.324-0.325,0.757-0.505,1.217-0.505c0.294,0,0.577,0.073,0.827,0.211h0.099l0.293,0.293
			c0.325,0.325,0.504,0.758,0.504,1.218c0,0.455-0.177,0.886-0.504,1.217l-1.177,1.176l-1.197,1.196
			c-0.319,0.322-0.764,0.507-1.219,0.507c-0.46,0-0.892-0.179-1.218-0.506C252.712,224.196,252.713,223.105,253.381,222.436z
			 M240.094,214.999c0-0.576,0.285-1.088,0.722-1.4v-0.322h1c0.46,0,0.893,0.18,1.218,0.505c0.322,0.322,0.506,0.769,0.504,1.218
			v3.359c0,0.452-0.184,0.896-0.504,1.216c-0.325,0.325-0.758,0.504-1.219,0.504c-0.946,0-1.719-0.771-1.721-1.72V214.999z
			 M223.738,238.157h-3.359c-0.781,0-1.442-0.523-1.651-1.237l-0.07-0.07v-0.414c0-0.459,0.18-0.892,0.505-1.217
			c0.32-0.32,0.763-0.504,1.213-0.504h0.004h3.359c0.455,0,0.899,0.185,1.219,0.507c0.323,0.326,0.502,0.757,0.502,1.214
			l-0.002,1.001h-0.32C224.824,237.873,224.313,238.157,223.738,238.157z M230.25,250.436c-0.646,0.646-1.739,1.738-2.374,2.373
			c-0.325,0.326-0.758,0.507-1.219,0.507c-0.295,0-0.577-0.073-0.828-0.212h-0.096l-0.292-0.29c-0.321-0.319-0.506-0.764-0.506-1.22
			c0-0.458,0.178-0.89,0.504-1.218l0.869-0.868l1.512-1.512c0.326-0.322,0.757-0.499,1.211-0.499c0.451,0,0.894,0.183,1.214,0.501
			l0.085,0.084l0.021,0.033c0.11,0.131,0.198,0.276,0.263,0.428l0.072,0.117l-0.017,0.032
			C230.859,249.287,230.72,249.964,230.25,250.436z M230.253,224.866l-0.295,0.296h-0.101c-0.251,0.139-0.533,0.212-0.827,0.212
			c-0.459,0-0.891-0.18-1.215-0.504l-0.706-0.706l-1.669-1.669c-0.669-0.669-0.67-1.761,0.003-2.438
			c0.325-0.323,0.757-0.501,1.214-0.501c0.452,0,0.896,0.184,1.217,0.505l0.699,0.699l1.677,1.677
			c0.325,0.325,0.504,0.757,0.504,1.216C230.754,224.109,230.577,224.541,230.253,224.866z M245.524,256.258l-4.704,1.631
			c-0.328,0.113-0.686-0.061-0.8-0.389c-0.113-0.327,0.061-0.687,0.388-0.799l4.705-1.629c0.328-0.114,0.687,0.06,0.8,0.386
			C246.026,255.787,245.852,256.145,245.524,256.258z M246.099,254.217l-7.251,2.511c-0.327,0.113-0.687-0.06-0.8-0.387
			c-0.114-0.327,0.061-0.686,0.388-0.799l7.253-2.514c0.327-0.113,0.686,0.061,0.799,0.388
			C246.601,253.745,246.427,254.103,246.099,254.217z M246.099,252.266l-8.16,2.828c-0.327,0.113-0.685-0.06-0.799-0.388
			s0.061-0.687,0.388-0.8l8.161-2.828c0.327-0.113,0.686,0.061,0.799,0.389S246.427,252.154,246.099,252.266z M246.099,250.425
			l-8.16,2.828c-0.327,0.114-0.685-0.061-0.799-0.388c-0.114-0.326,0.061-0.686,0.388-0.799l8.161-2.827
			c0.327-0.113,0.686,0.06,0.799,0.387C246.601,249.955,246.427,250.312,246.099,250.425z M246.104,248.597l-8.16,2.826
			c-0.327,0.115-0.686-0.059-0.799-0.387c-0.114-0.328,0.06-0.687,0.388-0.8l8.16-2.827c0.328-0.113,0.687,0.06,0.8,0.388
			S246.432,248.482,246.104,248.597z M237.533,248.395l1.808-0.628c0.327-0.113,0.686,0.061,0.799,0.389
			c0.114,0.328-0.061,0.686-0.388,0.799l-1.808,0.627c-0.327,0.112-0.686-0.061-0.799-0.389
			C237.031,248.866,237.205,248.508,237.533,248.395z M241.816,247.546c-6.098,0-11.049-4.949-11.049-11.048
			s4.951-11.049,11.049-11.049c6.099,0,11.049,4.95,11.049,11.049S247.915,247.546,241.816,247.546z M258.191,252.816
			c-0.015,0.014-0.029,0.028-0.044,0.042l-0.246,0.246h-0.095c-0.252,0.139-0.536,0.213-0.832,0.213
			c-0.459,0-0.891-0.179-1.217-0.504l-2.375-2.377c-0.325-0.325-0.504-0.757-0.504-1.217c0-0.289,0.074-0.573,0.211-0.824v-0.686
			h0.686c0.25-0.138,0.533-0.211,0.826-0.211c0.458,0,0.89,0.179,1.216,0.503l1.19,1.19l1.188,1.188
			c0.404,0.408,0.563,0.97,0.476,1.498l0.231,0.231L258.191,252.816z M264.975,236.437c0,0.458-0.178,0.89-0.507,1.221
			c-0.319,0.317-0.762,0.499-1.215,0.499h-3.359c-0.457,0-0.902-0.186-1.213-0.501c-0.327-0.325-0.508-0.758-0.508-1.22l0.002-0.617
			l0.145-0.073c0.266-0.604,0.871-1.029,1.574-1.031h3.359c0.703,0,1.309,0.424,1.575,1.03l0.146,0.073V236.437z"/>
	</g>
	<path fill="#010101" d="M226.148,252.104c0.141,0.142,0.325,0.212,0.51,0.212s0.369-0.07,0.509-0.212
		C226.886,252.386,226.429,252.386,226.148,252.104z"/>
	<path fill="#010101" d="M219.869,235.925c0.067-0.067,0.146-0.12,0.233-0.156C220.015,235.805,219.936,235.858,219.869,235.925z"/>
	<path fill="#010101" d="M220.378,235.714c-0.001,0-0.002,0-0.004,0c-0.062,0-0.119,0.021-0.178,0.036
		C220.257,235.735,220.316,235.714,220.378,235.714z"/>
	<path fill="#010101" d="M256.974,220.556c-0.185,0-0.369,0.07-0.509,0.211C256.605,220.626,256.79,220.556,256.974,220.556
		L256.974,220.556z"/>
	<path d="M80.258,232.97c0.346,0,0.625-0.28,0.625-0.625v-30.949v-4.334c0-0.183-0.081-0.346-0.208-0.461l-12.509-13.847
		c-0.119-0.132-0.287-0.207-0.463-0.207h-2.441H31.086c-0.345,0-0.625,0.281-0.625,0.626v20.353h14.465
		c0.347,0,0.678,0.148,0.91,0.405l12.489,13.827c0.242,0.23,0.38,0.55,0.38,0.882v14.33H80.258z M66.912,184.943l1.146,1.271
		L78.48,197.75l0.981,1.088v0.059H67.485c-0.316,0-0.573-0.257-0.573-0.573V184.943z"/>
	<path d="M44.944,204.734l-2.459-0.009H8.31l-0.026,49.198l49.197,0.025c0.015,0,0.026-0.012,0.026-0.025V218.64l-0.053-0.059
		L44.944,204.734z M56.686,220.475H44.709c-0.317,0-0.573-0.258-0.573-0.574v-13.379l1.146,1.271l10.422,11.535l0.982,1.086V220.475
		z"/>
	<path d="M98.912,127.431c-2.037,2.038-3.626,4.436-4.707,7.044c-0.763,1.837-1.266,3.784-1.5,5.782h0.032h24.948
		c0.059-0.061,0.109-0.127,0.169-0.187c2.188-2.19,4.719-3.945,7.536-5.227c-0.846-0.818-1.63-1.702-2.342-2.643
		c-3.029-4.006-4.63-8.784-4.63-13.817c0-6.121,2.388-11.88,6.725-16.218c3.325-3.324,7.489-5.49,12.007-6.326
		c-0.961-2.38-2.387-4.524-4.174-6.311c-3.428-3.429-8.162-5.552-13.388-5.552c-5.226,0-9.961,2.124-13.391,5.552
		c-3.429,3.429-5.553,8.161-5.553,13.389c0,4.281,1.421,8.232,3.821,11.404c2.406,3.183,5.795,5.585,9.711,6.751
		c-2.851,0.009-5.64,0.581-8.223,1.65C103.346,123.804,100.947,125.394,98.912,127.431z"/>
	<path d="M178.255,114.323c2.396-3.172,3.817-7.124,3.817-11.404c0-5.229-2.121-9.961-5.548-13.39
		c-3.429-3.429-8.164-5.552-13.389-5.552c-5.226,0-9.963,2.124-13.39,5.552c-1.786,1.787-3.215,3.93-4.178,6.31
		c4.521,0.836,8.687,3.002,12.012,6.328c4.333,4.336,6.719,10.095,6.719,16.217c0,5.031-1.6,9.808-4.628,13.818
		c-0.69,0.914-1.45,1.772-2.269,2.57c2.867,1.281,5.451,3.059,7.691,5.294c0.062,0.061,0.113,0.129,0.174,0.191h24.948h0.029
		c-0.233-1.998-0.735-3.945-1.499-5.782c-1.076-2.608-2.67-5.011-4.705-7.044c-2.039-2.034-4.438-3.627-7.044-4.707
		c-2.607-1.081-5.43-1.65-8.312-1.65c0,0,0,0-0.007,0h-0.139C172.458,119.907,175.848,117.505,178.255,114.323z"/>
	<path d="M127.973,104.994c-3.429,3.429-5.553,8.161-5.553,13.389c0,4.281,1.421,8.231,3.821,11.405
		c2.406,3.182,5.795,5.584,9.711,6.75c-2.851,0.01-5.64,0.582-8.223,1.65c-2.609,1.082-5.008,2.671-7.043,4.708
		c-2.037,2.038-3.626,4.435-4.708,7.044c-0.762,1.838-1.266,3.783-1.5,5.78h0.033h53.932h0.032c-0.234-1.997-0.738-3.942-1.501-5.78
		c-1.077-2.609-2.671-5.012-4.706-7.044c-2.039-2.035-4.435-3.626-7.044-4.708c-2.607-1.08-5.43-1.65-8.312-1.65c0,0,0,0-0.007,0
		h-0.137c3.915-1.166,7.306-3.568,9.713-6.75c2.396-3.174,3.817-7.123,3.817-11.405c0-5.228-2.121-9.96-5.548-13.389
		c-3.429-3.428-8.164-5.552-13.39-5.552C136.138,99.442,131.402,101.566,127.973,104.994z"/>
	<path d="M248.06,234.944c-0.042-0.021-0.076-0.034-0.091-0.042c-0.253-0.097-0.248,0.02-0.309,0.11
		c-0.207,0.313-0.932,1.766-0.932,1.766c-0.104-0.048-0.211-0.104-0.315-0.169c0.251-0.327,0.417-0.667,0.484-0.976
		c0.074-0.356,0.023-0.68-0.153-0.929c-0.207-0.291-0.601-0.498-1.234-0.498c-0.59,0-0.871,0.224-0.967,0.497
		c-0.052,0.151-0.051,0.333,0.008,0.531c0.079,0.263,0.265,0.565,0.518,0.86c0.181,0.209,0.396,0.413,0.629,0.597
		c-0.286,0.273-0.643,0.522-1.049,0.71c-0.195,0.09-0.454,0.006-0.729-0.141c-0.163-0.086-0.329-0.2-0.491-0.329
		c0.32-0.353,0.535-0.738,0.645-1.098c0.149-0.496,0.097-0.952-0.123-1.247c-0.171-0.231-0.443-0.38-0.821-0.38
		c-0.647,0-1.015,0.197-1.194,0.462c-0.22,0.324-0.181,0.797,0.066,1.288c0.166,0.331,0.423,0.673,0.718,0.978
		c-0.226,0.178-0.489,0.337-0.793,0.464c-0.338,0.14-0.656,0.124-0.938,0.009c0.477-0.51,0.74-1.152,0.781-1.706
		c0.062-0.781-0.3-1.379-1.018-1.379c-0.57,0-0.94,0.212-1.154,0.52c-0.32,0.457-0.294,1.168,0.006,1.803
		c0.141,0.301,0.342,0.58,0.583,0.806c-0.257,0.151-0.55,0.142-0.841,0.042c-0.43-0.148-0.855-0.491-1.19-0.887
		c0.214-0.271,0.401-0.545,0.537-0.799c0.23-0.435,0.301-0.826,0.194-1.081c-0.097-0.226-0.317-0.396-0.736-0.403
		c-0.554-0.01-0.868,0.193-1.016,0.478c-0.196,0.375-0.092,0.962,0.244,1.539c0.048,0.085,0.102,0.168,0.159,0.251
		c-0.178,0.203-0.369,0.396-0.56,0.571l-1.272-2.304c-0.053-0.096-0.164-0.145-0.27-0.117c-0.107,0.025-0.182,0.12-0.183,0.23
		c0,0-0.024,1.743,0.154,2.656c0.057,0.289,0.146,0.505,0.24,0.606c0.1,0.104,0.216,0.14,0.339,0.116
		c0.229-0.047,0.53-0.206,0.85-0.443c1.479,2.678,3.926,7.113,3.926,7.113c0.065,0.116,0.211,0.158,0.327,0.095
		c0.119-0.065,0.161-0.212,0.096-0.33l-3.968-7.189c0.21-0.186,0.422-0.397,0.622-0.618c0.321,0.366,0.711,0.685,1.112,0.875
		c0.533,0.253,1.087,0.284,1.553-0.03c0.033-0.021,0.063-0.044,0.095-0.067c0.438,0.246,0.96,0.319,1.512,0.091
		c0.375-0.156,0.696-0.354,0.967-0.579c0.201,0.169,0.412,0.313,0.617,0.423c0.434,0.23,0.853,0.293,1.158,0.151
		c0.489-0.226,0.909-0.53,1.242-0.865c0.136,0.087,0.273,0.163,0.41,0.229l-3.998,7.586c-0.063,0.118-0.018,0.265,0.101,0.327
		c0.118,0.062,0.265,0.017,0.326-0.102l4.029-7.642c0.038,0.011,0.076,0.02,0.114,0.025c0.458,0.089,0.856-0.014,1.114-0.367
		c0.434-0.592,0.504-1.032,0.447-1.344C248.558,235.255,248.229,235.03,248.06,234.944z M236.592,237.486
		c-0.229,0.175-0.443,0.31-0.619,0.368c-0.007-0.014-0.014-0.029-0.02-0.042c-0.145-0.386-0.196-1.227-0.213-1.893
		c0,0.001,0.348,0.632,0.859,1.56L236.592,237.486z M237.857,236.2c-0.178-0.279-0.3-0.565-0.335-0.816
		c-0.025-0.183-0.008-0.346,0.108-0.448c0.104-0.094,0.272-0.134,0.51-0.129c0.138,0.002,0.231,0.019,0.283,0.079
		c0.054,0.066,0.039,0.165,0.01,0.279c-0.059,0.239-0.216,0.526-0.422,0.825C237.963,236.06,237.911,236.13,237.857,236.2z
		 M240.566,237.147c-0.221-0.19-0.402-0.443-0.529-0.708c-0.217-0.465-0.281-0.984-0.044-1.319c0.139-0.199,0.388-0.313,0.758-0.313
		c0.257,0,0.419,0.151,0.491,0.375c0.074,0.229,0.065,0.521-0.012,0.824C241.128,236.4,240.907,236.814,240.566,237.147z
		 M243.071,236.607c-0.264-0.269-0.49-0.572-0.638-0.866c-0.094-0.186-0.154-0.366-0.162-0.529
		c-0.006-0.102,0.011-0.194,0.063-0.271c0.117-0.173,0.373-0.251,0.794-0.251c0.64,0,0.687,0.698,0.327,1.375
		C243.359,236.249,243.23,236.433,243.071,236.607z M246.021,236.336c-0.079-0.063-0.156-0.127-0.229-0.193
		c-0.347-0.313-0.632-0.666-0.753-0.973c-0.048-0.126-0.075-0.238-0.031-0.326c0.021-0.043,0.062-0.072,0.12-0.096
		c0.093-0.039,0.22-0.059,0.382-0.059c0.425,0,0.702,0.101,0.842,0.295c0.104,0.147,0.118,0.339,0.072,0.547
		C246.37,235.79,246.23,236.067,246.021,236.336z M247.801,236.746c-0.139,0.192-0.359,0.227-0.605,0.185l0.774-1.47
		c0.106,0.087,0.215,0.234,0.202,0.465C248.159,236.14,248.051,236.406,247.801,236.746z"/>
</g>
</svg>
