<?xml version="1.0" encoding="utf-8"?>
<!-- Generator: Adobe Illustrator 15.1.0, SVG Export Plug-In . SVG Version: 6.00 Build 0)  -->
<!DOCTYPE svg PUBLIC "-//W3C//DTD SVG 1.1//EN" "http://www.w3.org/Graphics/SVG/1.1/DTD/svg11.dtd">
<svg version="1.1" id="Layer_10" xmlns="http://www.w3.org/2000/svg" xmlns:xlink="http://www.w3.org/1999/xlink" x="0px" y="0px"
	 width="283.46px" height="283.46px" viewBox="0 0 283.46 283.46" enable-background="new 0 0 283.46 283.46" xml:space="preserve">
<g>
	<path d="M106.24,130.211c-2.782,0-5.025,0.954-6.728,2.862c-1.703,1.909-2.555,4.786-2.555,8.634c0,3.785,0.874,6.655,2.623,8.609
		c1.748,1.954,3.969,2.931,6.659,2.931c2.691,0,4.9-0.969,6.626-2.907c1.727-1.939,2.589-4.848,2.589-8.725
		c0-3.832-0.84-6.69-2.521-8.576C111.254,131.155,109.023,130.211,106.24,130.211z"/>
	<path d="M45.205,138.195c1.156-0.137,2.064-0.536,2.726-1.197c0.662-0.662,0.992-1.532,0.992-2.612c0-1.033-0.285-1.874-0.855-2.52
		c-0.57-0.646-1.418-1.038-2.543-1.175c-0.669-0.076-2.593-0.114-5.771-0.114h-3.877v7.732h4.425
		C42.931,138.309,44.566,138.271,45.205,138.195z"/>
	<path d="M47.315,144.353c-0.92-0.319-2.916-0.479-5.987-0.479h-5.451v8.941h6.249c2.433,0,3.977-0.068,4.63-0.205
		c1.004-0.183,1.821-0.628,2.452-1.335s0.946-1.653,0.946-2.84c0-1.003-0.243-1.854-0.729-2.554
		C48.938,145.181,48.235,144.672,47.315,144.353z"/>
	<path d="M197.501,7.084H85.958L7.084,85.958v111.543l78.874,78.875h111.543l78.875-78.875V85.958L197.501,7.084z M175.97,95.694
		l42.686-42.686c3.125-3.124,8.189-3.124,11.314,0c3.124,3.124,3.124,8.189,0,11.313l-42.686,42.686
		c-1.563,1.562-3.609,2.343-5.657,2.343s-4.095-0.781-5.657-2.343C172.846,103.884,172.846,98.818,175.97,95.694z M218.708,138.081
		v5.634h-16.787v9.101h18.681v5.634H195.17v-33.438h24.793v5.656h-18.042v7.413H218.708z M53.491,53.009
		c3.124-3.124,8.189-3.124,11.313,0l42.686,42.686c3.125,3.124,3.125,8.189,0,11.313c-1.562,1.562-3.609,2.343-5.657,2.343
		s-4.095-0.781-5.657-2.343L53.491,64.322C50.366,61.198,50.366,56.133,53.491,53.009z M86.556,152.815v5.634H63.018v-33.164h6.751
		v27.53H86.556z M40.506,158.449H29.125v-33.438h13.366c2.646,0,4.618,0.11,5.919,0.331c1.3,0.221,2.463,0.681,3.489,1.38
		s1.882,1.631,2.566,2.794c0.684,1.163,1.026,2.467,1.026,3.911c0,1.566-0.422,3.004-1.267,4.312
		c-0.844,1.308-1.987,2.288-3.433,2.942c2.038,0.593,3.604,1.604,4.699,3.033c1.095,1.429,1.642,3.109,1.642,5.04
		c0,1.521-0.354,3-1.061,4.437c-0.707,1.438-1.673,2.585-2.896,3.444s-2.733,1.388-4.527,1.585
		C47.524,158.342,44.809,158.417,40.506,158.449z M107.491,187.764L64.805,230.45c-1.562,1.562-3.61,2.343-5.657,2.343
		c-2.048,0-4.095-0.781-5.657-2.343c-3.125-3.125-3.125-8.189,0-11.314l42.686-42.686c3.125-3.123,8.19-3.122,11.313,0
		C110.615,179.575,110.615,184.639,107.491,187.764z M118.032,154.446c-2.935,3.049-6.857,4.573-11.769,4.573
		c-4.973,0-8.926-1.518-11.86-4.551S90,147.257,90,141.935c0-3.406,0.51-6.265,1.528-8.576c0.76-1.703,1.798-3.23,3.113-4.584
		s2.756-2.357,4.322-3.011c2.083-0.882,4.485-1.323,7.207-1.323c4.927,0,8.869,1.528,11.826,4.585
		c2.958,3.056,4.437,7.306,4.437,12.75C122.434,147.173,120.967,151.397,118.032,154.446z M150.636,156.362
		c-2.334,1.771-5.295,2.657-8.884,2.657c-4.439,0-8.089-1.518-10.947-4.551s-4.288-7.181-4.288-12.441
		c0-5.565,1.437-9.888,4.311-12.967s6.652-4.619,11.336-4.619c4.09,0,7.412,1.209,9.967,3.627c1.521,1.429,2.661,3.481,3.422,6.158
		l-6.684,1.597c-0.395-1.733-1.22-3.103-2.475-4.105c-1.254-1.004-2.778-1.506-4.573-1.506c-2.479,0-4.489,0.89-6.032,2.669
		s-2.315,4.66-2.315,8.645c0,4.227,0.761,7.237,2.281,9.031c1.521,1.795,3.497,2.691,5.93,2.691c1.795,0,3.338-0.569,4.631-1.71
		c1.292-1.141,2.22-2.935,2.782-5.383l6.546,2.075C154.639,151.879,152.971,154.59,150.636,156.362z M168.279,158.449h-6.751
		v-33.438h6.751v14.849l13.64-14.849h9.078l-12.591,13.023l13.274,20.414h-8.735l-9.191-15.692l-5.475,5.588V158.449z
		 M229.97,230.45c-1.563,1.562-3.609,2.343-5.657,2.343s-4.095-0.781-5.657-2.343l-42.687-42.686c-3.124-3.124-3.124-8.189,0-11.314
		c3.125-3.123,8.189-3.123,11.314,0l42.687,42.686C233.094,222.259,233.094,227.325,229.97,230.45z M253.309,149.166
		c-0.836,2.433-2.03,4.401-3.581,5.907c-1.171,1.141-2.752,2.03-4.744,2.669c-1.49,0.471-3.482,0.707-5.976,0.707h-12.704v-33.438
		h12.339c2.783,0,4.904,0.213,6.363,0.639c1.962,0.578,3.643,1.604,5.041,3.079c1.399,1.475,2.464,3.281,3.193,5.417
		c0.729,2.137,1.095,4.771,1.095,7.903C254.335,144.801,253.994,147.173,253.309,149.166z"/>
	<path d="M244.756,132.561c-0.821-0.775-1.863-1.3-3.125-1.574c-0.943-0.213-2.79-0.319-5.543-0.319h-3.033v22.147h5.041
		c1.885,0,3.246-0.106,4.082-0.319c1.095-0.274,2.004-0.737,2.726-1.392c0.723-0.653,1.312-1.729,1.768-3.228
		c0.457-1.498,0.685-3.539,0.685-6.124s-0.228-4.569-0.685-5.953C246.215,134.417,245.577,133.336,244.756,132.561z"/>
</g>
</svg>
