<?xml version="1.0" encoding="utf-8"?>
<!-- Generator: Adobe Illustrator 15.1.0, SVG Export Plug-In . SVG Version: 6.00 Build 0)  -->
<!DOCTYPE svg PUBLIC "-//W3C//DTD SVG 1.1//EN" "http://www.w3.org/Graphics/SVG/1.1/DTD/svg11.dtd">
<svg version="1.1" id="Layer_1" xmlns="http://www.w3.org/2000/svg" xmlns:xlink="http://www.w3.org/1999/xlink" x="0px" y="0px"
	 width="283.465px" height="283.465px" viewBox="0 0 283.465 283.465" enable-background="new 0 0 283.465 283.465"
	 xml:space="preserve">
<path d="M141.746,7.146C67.434,7.146,7.101,67.479,7.101,141.792c0,74.313,60.333,134.646,134.645,134.646
	c74.313,0,134.646-60.333,134.646-134.646C276.393,67.479,216.06,7.146,141.746,7.146z M141.746,242.777
	c-55.734,0-100.983-45.25-100.983-100.985c0-55.734,45.25-100.984,100.983-100.984c55.736,0,100.986,45.25,100.986,100.984
	C242.732,197.527,197.482,242.777,141.746,242.777z M215.61,100.85c-12.781,12.779-85.986,85.985-99.004,99.003
	c-0.524,0.526-1.237,0.821-1.98,0.821c-0.742,0-1.455-0.296-1.979-0.821c-7.887-7.887-37.015-37.015-44.763-44.762
	c-1.051-1.052-1.051-2.756,0-3.807c3.3-3.3,10.045-10.045,13.345-13.345c1.051-1.051,2.756-1.051,3.807,0
	c5.616,5.615,22.072,22.072,27.688,27.688c1.052,1.051,2.757,1.051,3.808,0.001c11.4-11.401,70.528-70.529,81.929-81.929
	c1.051-1.051,2.756-1.051,3.808,0c3.3,3.3,10.044,10.045,13.344,13.344C216.661,98.095,216.661,99.798,215.61,100.85z"/>
</svg>
