<?xml version="1.0" encoding="utf-8"?>
<!-- Generator: Adobe Illustrator 15.1.0, SVG Export Plug-In . SVG Version: 6.00 Build 0)  -->
<!DOCTYPE svg PUBLIC "-//W3C//DTD SVG 1.1//EN" "http://www.w3.org/Graphics/SVG/1.1/DTD/svg11.dtd">
<svg version="1.1" id="Layer_5" xmlns="http://www.w3.org/2000/svg" xmlns:xlink="http://www.w3.org/1999/xlink" x="0px" y="0px"
	 width="283.46px" height="283.46px" viewBox="0 0 283.46 283.46" enable-background="new 0 0 283.46 283.46" xml:space="preserve">
<g>
	<path fill="none" d="M144.122,155.073c0.512-0.684,0.996-1.406,1.438-2.154l0.277-0.464l6.635,1.74
		c0.592-1.206,1.109-2.455,1.543-3.726l-5.922-3.462l0.134-0.525c0.213-0.835,0.383-1.69,0.505-2.536l0.077-0.537l6.795-0.934
		c0.088-1.341,0.088-2.692,0-4.033l-6.795-0.928l-0.077-0.537c-0.121-0.847-0.291-1.703-0.505-2.543l-0.134-0.525l5.922-3.458
		c-0.433-1.27-0.95-2.518-1.543-3.724l-6.637,1.739l-0.276-0.467c-0.435-0.735-0.918-1.459-1.438-2.151l-0.325-0.434l4.148-5.464
		c-0.885-1.008-1.841-1.964-2.853-2.851l-5.461,4.146l-0.435-0.325c-0.692-0.517-1.417-1-2.153-1.436l-0.467-0.276l1.742-6.638
		c-1.217-0.598-2.465-1.114-3.724-1.541l-3.461,5.923l-0.526-0.134c-0.841-0.214-1.696-0.384-2.539-0.505l-0.538-0.077l-0.931-6.796
		c-1.343-0.086-2.689-0.086-4.032,0l-0.931,6.796l-0.537,0.077c-0.844,0.122-1.699,0.291-2.541,0.505l-0.525,0.133l-3.46-5.921
		c-1.273,0.432-2.521,0.949-3.724,1.542l1.74,6.633l-0.465,0.277c-0.754,0.449-1.479,0.933-2.154,1.439l-0.434,0.326l-5.462-4.149
		c-1.008,0.884-1.964,1.84-2.852,2.852l4.149,5.463l-0.327,0.435c-0.512,0.681-0.995,1.404-1.438,2.151l-0.277,0.466l-6.635-1.739
		c-0.593,1.204-1.11,2.453-1.543,3.725l5.922,3.46l-0.134,0.525c-0.214,0.843-0.384,1.698-0.505,2.541l-0.077,0.537l-6.795,0.931
		c-0.087,1.339-0.087,2.691,0,4.033l6.793,0.931l0.078,0.534c0.125,0.857,0.295,1.712,0.505,2.539l0.134,0.525l-5.922,3.465
		c0.433,1.268,0.95,2.517,1.543,3.723l6.633-1.74l0.277,0.464c0.452,0.759,0.936,1.481,1.439,2.154l0.327,0.433l-4.149,5.464
		c0.892,1.015,1.848,1.971,2.852,2.854l5.463-4.147l0.435,0.323c0.692,0.518,1.417,1.001,2.153,1.438l0.467,0.275l-1.742,6.639
		c1.198,0.591,2.447,1.108,3.725,1.544l3.46-5.922l0.526,0.132c0.847,0.217,1.7,0.386,2.537,0.504l0.538,0.075l0.933,6.8
		c1.343,0.084,2.689,0.084,4.032,0l0.929-6.8l0.54-0.075c0.835-0.118,1.688-0.287,2.537-0.504l0.526-0.132l3.46,5.922
		c1.273-0.433,2.522-0.95,3.725-1.544l-1.742-6.639l0.467-0.275c0.737-0.437,1.461-0.92,2.153-1.438l0.435-0.323l5.461,4.147
		c1.002-0.88,1.958-1.836,2.853-2.854l-4.148-5.464L144.122,155.073z M124.582,156.448c-8.817,0-15.99-7.171-15.99-15.988
		s7.173-15.991,15.99-15.991c8.817,0,15.991,7.174,15.991,15.991S133.399,156.448,124.582,156.448z"/>
	<path fill="none" d="M153.18,123.377c0.207,0,0.457-0.06,0.706-0.168c0.097-0.04,0.179-0.083,0.26-0.131l4.867-2.809l0.39,0.362
		c0.893,0.831,1.882,1.561,2.936,2.17c1.137,0.678,2.333,1.211,3.57,1.589l0.509,0.155v5.605c0,0.168,0.021,0.325,0.049,0.475
		c0.042,0.216,0.11,0.408,0.194,0.543c0.068,0.113,0.125,0.157,0.141,0.166l7.729-0.009c0.114-0.071,0.367-0.491,0.367-1.172v-5.608
		l0.509-0.156c1.154-0.354,2.281-0.844,3.347-1.458c1.16-0.645,2.222-1.417,3.16-2.296l0.39-0.366l4.856,2.804
		c0.403,0.234,0.883,0.346,1.142,0.281l3.942-6.744c-0.024,0.021-0.021-0.03-0.067-0.123c-0.069-0.145-0.178-0.288-0.315-0.417
		c-0.131-0.123-0.288-0.239-0.465-0.343l-4.853-2.8l0.118-0.518c0.271-1.182,0.408-2.403,0.411-3.629
		c0.022-1.305-0.116-2.611-0.408-3.89l-0.119-0.519l4.854-2.799c0.617-0.359,0.842-0.796,0.831-0.918l-3.884-6.71
		c-0.003,0.007-0.062-0.022-0.212-0.021c-0.132,0-0.288,0.026-0.451,0.074c-0.173,0.053-0.354,0.13-0.53,0.231l-4.852,2.804
		l-0.39-0.364c-0.883-0.823-1.873-1.554-2.94-2.173c-1.12-0.67-2.316-1.203-3.566-1.588l-0.508-0.157v-5.604
		c0-0.564-0.177-0.987-0.343-1.141l-7.796-0.029c-0.028,0.024-0.232,0.272-0.311,0.791c-0.018,0.119-0.031,0.245-0.031,0.379v5.61
		l-0.509,0.156c-1.16,0.355-2.288,0.846-3.351,1.459c-1.153,0.642-2.212,1.412-3.159,2.293l-0.39,0.363l-4.854-2.802
		c-0.058-0.032-0.119-0.061-0.18-0.089c-0.404-0.192-0.851-0.218-0.97-0.188l-3.935,6.739c0.009,0.033,0.114,0.318,0.497,0.635
		c0.106,0.089,0.219,0.172,0.349,0.246l4.857,2.806l-0.119,0.52c-0.273,1.175-0.411,2.396-0.412,3.626
		c-0.021,1.315,0.115,2.621,0.406,3.89l0.119,0.519l-5.011,2.902c-0.383,0.262-0.588,0.539-0.649,0.711l3.857,6.811
		C152.974,123.344,153.029,123.377,153.18,123.377z M165.823,101.917c1.429-1.039,3.115-1.586,4.88-1.586
		c2.663,0,5.184,1.282,6.743,3.43c1.305,1.794,1.832,3.993,1.483,6.192c-0.348,2.198-1.528,4.127-3.325,5.432
		c-1.429,1.038-3.116,1.586-4.882,1.586c-2.663,0-5.184-1.281-6.743-3.427C161.283,109.83,162.11,104.615,165.823,101.917z"/>
	<path fill="none" d="M176.282,168.221c-0.394-0.543-0.869-1.01-1.392-1.409c-2.957,3.349-6.467,6.194-10.391,8.394
		c0.18,0.383,0.388,0.754,0.644,1.108c1.291,1.774,3.378,2.831,5.581,2.831c1.459,0,2.854-0.452,4.033-1.311
		C177.828,175.602,178.513,171.289,176.282,168.221z"/>
	<path fill="none" d="M174.777,114.201c1.473-1.079,2.444-2.665,2.73-4.475c0.288-1.818-0.147-3.637-1.226-5.12
		c-1.291-1.776-3.376-2.836-5.579-2.836c-1.458,0-2.853,0.454-4.033,1.311c-1.025,0.745-1.758,1.733-2.231,2.818
		C168.336,108.076,171.829,110.889,174.777,114.201z"/>
	<path fill="none" d="M37.531,113.381c0.145-0.021,0.289-0.044,0.437-0.037c-0.043-0.003-0.086-0.003-0.131-0.003
		C37.733,113.341,37.633,113.368,37.531,113.381z"/>
	<path fill="none" d="M60.463,162.035c-0.109,0.012-0.22,0.022-0.333,0.019c0.041,0.004,0.084,0.004,0.125,0.004
		C60.328,162.057,60.393,162.041,60.463,162.035z"/>
	<path fill="none" d="M206.137,210.33c0.109-0.006,0.222-0.003,0.335,0.008c-0.085-0.008-0.172-0.017-0.256-0.017
		C206.191,210.321,206.163,210.33,206.137,210.33z"/>
	<path fill="none" d="M179.399,62.298c0.09,0,0.174-0.004,0.259-0.013c-0.113,0.013-0.231,0.012-0.347,0.006
		C179.342,62.293,179.371,62.298,179.399,62.298z"/>
	<path fill="none" d="M228.917,259.022c-0.144,0.017-0.287,0.041-0.431,0.031c0.046,0.003,0.088,0.007,0.13,0.007
		C228.719,259.06,228.815,259.032,228.917,259.022z"/>
	<path fill="none" d="M159.543,186.234c-0.243-0.191-0.493-0.374-0.725-0.576l-3.303,1.906l3.527-1.223
		C159.208,186.282,159.376,186.25,159.543,186.234z"/>
	<path fill="none" d="M181.916,184.251l0.39-0.362l4.854,2.804c0.404,0.23,0.883,0.346,1.142,0.278l3.942-6.743
		c-0.024,0.014-0.021-0.031-0.067-0.124c-0.069-0.144-0.176-0.284-0.319-0.422c-0.127-0.121-0.284-0.236-0.461-0.34l-4.853-2.801
		l0.118-0.518c0.271-1.178,0.408-2.398,0.411-3.627c0.022-1.308-0.116-2.612-0.408-3.887l-0.119-0.52l4.854-2.801
		c0.616-0.36,0.841-0.796,0.831-0.917l-3.882-6.712c-0.009,0.008-0.063-0.02-0.21-0.02c-0.133,0-0.289,0.025-0.452,0.073
		c-0.172,0.05-0.348,0.126-0.533,0.233l-4.851,2.798l-0.39-0.36c-0.894-0.832-1.884-1.561-2.939-2.171
		c-1.109-0.666-2.308-1.2-3.57-1.592l-0.506-0.157v-5.602c0-0.564-0.177-0.989-0.343-1.142l-7.796-0.03
		c-0.028,0.025-0.232,0.275-0.311,0.795c-0.018,0.116-0.031,0.242-0.031,0.377v5.607l-0.508,0.157
		c-1.174,0.363-2.302,0.854-3.351,1.462c-1.146,0.636-2.206,1.406-3.16,2.295l-0.39,0.362l-4.854-2.803
		c-0.063-0.037-0.13-0.067-0.198-0.099c-0.378-0.18-0.833-0.214-0.957-0.18l-3.929,6.737c0.009,0.033,0.113,0.32,0.495,0.635
		c0.111,0.091,0.227,0.175,0.357,0.254l4.851,2.798l-0.119,0.52c-0.273,1.176-0.411,2.396-0.412,3.628
		c-0.021,1.313,0.115,2.615,0.406,3.886l0.118,0.518l-5.028,2.919c-0.365,0.25-0.569,0.525-0.631,0.697l3.859,6.813
		c-0.007-0.009,0.07,0.022,0.211,0.022c0.205,0,0.457-0.063,0.707-0.169c0.097-0.042,0.179-0.085,0.26-0.132l4.867-2.81l0.39,0.362
		c0.883,0.824,1.871,1.556,2.938,2.174c1.124,0.672,2.322,1.204,3.569,1.589l0.508,0.154v5.602c0,0.172,0.021,0.329,0.049,0.479
		c0.042,0.214,0.11,0.404,0.194,0.54c0.068,0.115,0.125,0.157,0.141,0.165l7.729-0.008c0.114-0.07,0.367-0.489,0.367-1.173v-5.606
		l0.508-0.155c1.165-0.359,2.292-0.852,3.348-1.459C179.905,185.908,180.964,185.134,181.916,184.251z M175.604,178.999
		c-1.427,1.038-3.114,1.586-4.88,1.586c-2.663,0-5.185-1.279-6.745-3.425c-2.696-3.714-1.869-8.934,1.844-11.63
		c1.429-1.037,3.115-1.586,4.88-1.586c2.663,0,5.184,1.282,6.743,3.431C180.144,171.086,179.317,176.299,175.604,178.999z"/>
	<path fill="none" d="M206.05,16.014c-0.104,0-0.206,0.028-0.307,0.04c0.141-0.018,0.287-0.042,0.43-0.034
		C206.134,16.018,206.089,16.014,206.05,16.014z"/>
	<path fill="none" d="M228.742,64.687c-0.146,0.019-0.289,0.043-0.438,0.036c0.045,0.001,0.09,0.002,0.136,0.002
		C228.54,64.725,228.641,64.7,228.742,64.687z"/>
	<path fill="#010101" d="M68.122,137.756c-0.686-0.003-1.346,0.271-1.831,0.756c-0.486,0.486-0.762,1.147-0.762,1.831
		c0.003,0.006,0.003,0.006,0.003,0.006c0,1.434,1.16,2.59,2.59,2.59c3.233,0,8.787,0,12.067,0c1.43,0,2.585-1.164,2.585-2.59
		c0.004,0,0.004,0,0.004-0.006c0-0.683-0.274-1.344-0.759-1.831c-0.482-0.485-1.142-0.756-1.829-0.756
		C76.912,137.756,71.355,137.756,68.122,137.756z"/>
	<path fill="#010101" d="M99.21,183.675c-0.686,0-1.344,0.278-1.831,0.759c-2.32,2.32-6.245,6.246-8.534,8.531
		c-0.486,0.489-0.76,1.145-0.76,1.834c0,0.686,0.271,1.35,0.758,1.83c0.005,0,0.005,0,0.007,0c1.011,1.019,2.65,1.019,3.66,0
		c2.289-2.283,6.217-6.211,8.536-8.528c1.008-1.01,1.004-2.648-0.004-3.661c0.003-0.006,0.003-0.006,0-0.006
		C100.557,183.954,99.896,183.675,99.21,183.675z"/>
	<path fill="#010101" d="M145.131,60.747c-1.432,0-2.59,1.159-2.59,2.588c0,3.234,0,8.789,0,12.067
		c0.003,1.43,1.161,2.585,2.59,2.585c0.003,0.003,0.003,0.003,0.003,0.003c0.688,0,1.344-0.271,1.833-0.756
		c0.483-0.486,0.755-1.145,0.755-1.831c0-3.28,0-8.833,0-12.067c0.006-0.688-0.271-1.35-0.755-1.835
		c-0.489-0.486-1.145-0.76-1.833-0.76C145.134,60.747,145.134,60.747,145.131,60.747z"/>
	<path fill="#010101" d="M189.222,188.101c2.318,2.32,6.242,6.245,8.534,8.534c0.482,0.483,1.14,0.762,1.829,0.762
		c0.69,0,1.347-0.272,1.836-0.762c-0.007-0.003-0.007-0.003,0-0.003c1.008-1.009,1.008-2.651,0-3.664
		c-2.286-2.288-6.217-6.214-8.537-8.534c-0.304-0.304-0.665-0.503-1.049-0.624l-2.246,3.892
		C189.499,187.859,189.371,187.992,189.222,188.101z"/>
	<path fill="#010101" d="M222.14,137.756c-3.231,0-8.785,0-12.064,0c-1.429,0.003-2.585,1.161-2.585,2.585
		c-0.005,0.006-0.005,0.006-0.005,0.006c0,0.69,0.271,1.346,0.759,1.83c0.483,0.489,1.142,0.759,1.831,0.759
		c3.279,0,8.833,0,12.064,0c0.688,0,1.353-0.27,1.834-0.754c0.489-0.486,0.76-1.145,0.76-1.833
		c-0.004-0.001-0.004-0.001-0.004-0.007C224.73,138.915,223.574,137.756,222.14,137.756z"/>
	<path fill="#010101" d="M176.337,125.602v4.549c0,1.491-0.766,2.615-1.782,2.615h-7.799c-0.521,0-0.99-0.299-1.321-0.843
		c-0.175-0.282-0.309-0.638-0.382-1.025c-0.046-0.234-0.075-0.482-0.075-0.748v-4.549c-1.167-0.396-2.298-0.919-3.369-1.559
		c-0.985-0.57-1.925-1.242-2.79-2l-3.942,2.275c-0.134,0.08-0.28,0.155-0.431,0.217c-1.097,0.475-2.292,0.299-2.722-0.455
		l-2.206-3.821l-3.922,5.164c0.322,0.45,0.629,0.91,0.92,1.376l6.712-1.76l0.265,0.513c0.828,1.606,1.525,3.291,2.075,5.006
		l0.176,0.55l-5.992,3.5c0.125,0.54,0.233,1.083,0.323,1.626l6.874,0.939l0.048,0.575c0.15,1.8,0.15,3.625,0,5.421l-0.048,0.573
		l-6.875,0.945c-0.091,0.543-0.197,1.085-0.322,1.619l5.992,3.504l-0.176,0.549c-0.551,1.718-1.249,3.402-2.075,5.008l-0.265,0.515
		l-6.713-1.764c-0.293,0.47-0.601,0.932-0.919,1.375l3.92,5.166l2.209-3.827c0.179-0.314,0.479-0.534,0.889-0.652
		c0.589-0.163,1.279-0.057,1.959,0.265c0.101,0.048,0.198,0.093,0.298,0.151l3.943,2.275c0.935-0.815,1.953-1.533,3.035-2.135
		c0.981-0.567,2.033-1.046,3.129-1.42v-4.553c0-0.208,0.02-0.401,0.046-0.59c0.185-1.21,0.88-2.022,1.735-2.022h7.797
		c0.246,0,0.616,0.073,0.983,0.419c0.499,0.464,0.798,1.285,0.798,2.193v4.55c1.188,0.405,2.317,0.928,3.367,1.561
		c0.427,0.245,0.839,0.521,1.245,0.802c2.481-5.18,3.873-10.98,3.873-17.105c0-6.188-1.422-12.046-3.951-17.269
		c-0.456,0.313-0.922,0.613-1.41,0.884C178.468,124.758,177.417,125.234,176.337,125.602z"/>
	<path fill="#010101" d="M118.732,165.628l-1.718,2.941c1.312,1.318,2.718,2.542,4.203,3.666l-0.863-6.287
		C119.817,165.862,119.274,165.754,118.732,165.628z"/>
	<path fill="#010101" d="M148.947,178.259c0.133-0.087,0.19-0.126,0.251-0.16l3.938-2.274c-0.24-1.218-0.352-2.461-0.332-3.701
		c0.002-1.146,0.114-2.297,0.337-3.413l-3.942-2.275c-0.208-0.123-0.386-0.253-0.549-0.388c-0.908-0.748-1.241-1.738-0.822-2.463
		l0.605-1.049c-0.905,0.979-1.846,1.917-2.848,2.764l-0.44,0.371l-5.525-4.198c-0.449,0.323-0.91,0.63-1.376,0.92l1.763,6.715
		l-0.513,0.264c-1.601,0.827-3.286,1.524-5.008,2.075l-0.55,0.178l-3.501-5.995c-0.543,0.126-1.086,0.233-1.624,0.323l-0.94,6.875
		l-0.575,0.048c-0.898,0.076-1.81,0.112-2.71,0.112c-0.821,0-1.65-0.039-2.471-0.101c6.496,4.637,14.438,7.375,23.02,7.375
		c0.855,0,1.7-0.036,2.541-0.09c0.01-0.169,0.021-0.34,0.086-0.515C147.942,179.157,148.364,178.659,148.947,178.259z"/>
	<path fill="#010101" d="M174.89,166.812c-1.191-0.905-2.658-1.429-4.188-1.429c-1.458,0-2.853,0.453-4.033,1.311
		c-2.718,1.977-3.558,5.579-2.17,8.512C168.423,173.006,171.933,170.161,174.89,166.812z"/>
	<path fill="#010101" d="M170.722,115.53c1.46,0,2.854-0.454,4.035-1.311c0.007-0.005,0.013-0.012,0.02-0.018
		c-2.948-3.312-6.44-6.125-10.339-8.302c-0.945,2.166-0.779,4.752,0.705,6.797C166.433,114.47,168.519,115.53,170.722,115.53z"/>
	<path fill="#010101" d="M120.355,114.97l0.827-6.036c-1.442,1.094-2.81,2.28-4.088,3.557l1.637,2.803
		C119.271,115.168,119.814,115.06,120.355,114.97z"/>
	<path fill="#010101" d="M127.292,108.046l0.575,0.047l0.942,6.876c0.542,0.089,1.084,0.197,1.624,0.323l3.5-5.989l0.548,0.173
		c1.699,0.539,3.384,1.235,5.009,2.07l0.514,0.265l-1.763,6.715c0.467,0.29,0.927,0.597,1.376,0.918l5.525-4.194l0.44,0.371
		c1.014,0.855,1.954,1.793,2.853,2.766l-0.612-1.06c-0.215-0.368-0.238-0.825-0.065-1.285c0.184-0.503,0.607-1.001,1.188-1.399
		c0.111-0.077,0.188-0.127,0.269-0.171l3.92-2.262c-0.24-1.217-0.352-2.459-0.332-3.702c0.002-1.148,0.114-2.297,0.337-3.415
		l-3.942-2.277c-0.203-0.117-0.383-0.248-0.549-0.385c-0.54-0.447-0.847-0.961-0.946-1.461c-0.851-0.055-1.705-0.092-2.57-0.092
		c-8.437,0-16.257,2.646-22.691,7.143C124.054,107.918,125.684,107.913,127.292,108.046z"/>
	<path fill="#010101" d="M124.582,125.908c-8.023,0-14.55,6.528-14.55,14.552c0,8.021,6.527,14.548,14.55,14.548
		c8.024,0,14.552-6.526,14.552-14.548C139.134,132.436,132.606,125.908,124.582,125.908z"/>
	<path fill="#010101" d="M189.59,93.219l2.136,3.697c0.433-0.117,0.838-0.334,1.16-0.659c2.318-2.318,6.249-6.245,8.535-8.533
		c0.483-0.485,0.761-1.142,0.761-1.832c0-0.688-0.272-1.347-0.761-1.833c-0.007,0.002-0.007,0.002-0.007,0
		c-1.01-1.01-2.648-1.01-3.658,0c-2.292,2.286-6.218,6.214-8.536,8.534c-0.049,0.048-0.083,0.104-0.128,0.157
		C189.296,92.871,189.475,93.018,189.59,93.219z"/>
	<path fill="#010101" d="M159.043,192.949l-29.313,10.16c-1.179,0.407-1.802,1.692-1.395,2.87c0.408,1.179,1.696,1.803,2.871,1.396
		l29.314-10.16c1.178-0.404,1.802-1.692,1.395-2.871C161.507,193.166,160.221,192.542,159.043,192.949z"/>
	<path fill="#010101" d="M131.223,187.567l6.494-2.247c1.178-0.407,1.803-1.692,1.392-2.871c-0.405-1.178-1.693-1.805-2.868-1.395
		l-6.494,2.253c-1.178,0.407-1.804,1.692-1.393,2.868C128.761,187.35,130.047,187.977,131.223,187.567z"/>
	<path fill="#010101" d="M159.543,186.234c-0.167,0.017-0.335,0.048-0.5,0.107l-3.527,1.223l-0.64,0.368
		c-0.134,0.082-0.28,0.155-0.431,0.217c-0.441,0.194-0.887,0.25-1.304,0.236L129.73,196.5c-1.179,0.407-1.802,1.692-1.395,2.868
		c0.408,1.175,1.696,1.803,2.871,1.395l29.314-10.159c1.143-0.396,1.757-1.62,1.42-2.77c-0.109-0.063-0.225-0.11-0.332-0.175
		C160.883,187.238,160.201,186.751,159.543,186.234z"/>
	<path fill="#010101" d="M129.746,189.926c-1.178,0.404-1.804,1.692-1.393,2.871c0.408,1.178,1.694,1.802,2.871,1.389l20.207-6.999
		l-2.299-3.981L129.746,189.926z"/>
	<path fill="#010101" d="M97.379,96.256c1.011,1.011,2.647,1.01,3.658-0.001c0.006,0.001,0.006,0,0.007,0
		c0.482-0.487,0.758-1.143,0.758-1.83c0-0.688-0.275-1.347-0.758-1.832c-2.318-2.32-6.247-6.249-8.533-8.534
		c-0.487-0.485-1.145-0.759-1.833-0.759c-0.686-0.003-1.346,0.27-1.831,0.756c0,0.005,0,0.005,0,0.005
		c-1.014,1.013-1.014,2.652,0,3.661C91.134,90.012,95.06,93.939,97.379,96.256z"/>
	<path fill="#010101" d="M156.975,207.292l-16.899,5.854c-1.178,0.405-1.802,1.692-1.395,2.871c0.409,1.178,1.695,1.803,2.871,1.395
		l16.9-5.857c1.177-0.407,1.803-1.692,1.394-2.874C159.44,207.509,158.154,206.885,156.975,207.292z"/>
	<path fill="#010101" d="M159.043,199.954l-26.051,9.029c-1.178,0.404-1.803,1.692-1.394,2.87c0.408,1.173,1.696,1.797,2.87,1.393
		l26.05-9.026c1.179-0.405,1.803-1.693,1.395-2.871C161.507,200.17,160.221,199.545,159.043,199.954z"/>
	<path d="M124.582,124.468c-8.817,0-15.99,7.174-15.99,15.991s7.173,15.988,15.99,15.988c8.817,0,15.991-7.171,15.991-15.988
		S133.399,124.468,124.582,124.468z M124.582,155.007c-8.023,0-14.55-6.526-14.55-14.548c0-8.024,6.527-14.552,14.55-14.552
		c8.024,0,14.552,6.528,14.552,14.552C139.134,148.481,132.606,155.007,124.582,155.007z"/>
	<path d="M177.446,167.375c-1.56-2.148-4.08-3.431-6.743-3.431c-1.765,0-3.451,0.549-4.88,1.586
		c-3.713,2.696-4.54,7.916-1.844,11.63c1.561,2.146,4.082,3.425,6.745,3.425c1.766,0,3.453-0.548,4.88-1.586
		C179.317,176.299,180.144,171.086,177.446,167.375z M174.757,177.834c-1.18,0.858-2.574,1.311-4.033,1.311
		c-2.203,0-4.29-1.057-5.581-2.831c-0.256-0.354-0.464-0.726-0.644-1.108c-1.388-2.933-0.548-6.535,2.17-8.512
		c1.181-0.857,2.575-1.311,4.033-1.311c1.529,0,2.996,0.523,4.188,1.429c0.522,0.399,0.998,0.866,1.392,1.409
		C178.513,171.289,177.828,175.602,174.757,177.834z"/>
	<path d="M176.337,193.764v-4.55c1.087-0.371,2.138-0.846,3.124-1.414c1.087-0.604,2.106-1.321,3.039-2.137l3.94,2.274
		c0.737,0.422,1.565,0.582,2.199,0.434c0.222-0.054,0.416-0.149,0.582-0.271c0.148-0.109,0.276-0.242,0.367-0.399l2.246-3.892
		l1.661-2.874c0.146-0.261,0.2-0.554,0.161-0.865c-0.022-0.188-0.084-0.386-0.186-0.597c-0.142-0.292-0.35-0.573-0.623-0.835
		c-0.211-0.2-0.455-0.38-0.73-0.54l-3.942-2.274c0.221-1.119,0.333-2.27,0.336-3.414c0.021-1.237-0.09-2.478-0.333-3.7l3.942-2.275
		c1.284-0.748,1.874-1.971,1.369-2.849l-3.9-6.754c-0.381-0.661-1.333-0.895-2.312-0.599c-0.271,0.078-0.553,0.199-0.841,0.365
		l-3.942,2.275c-0.492-0.431-1.012-0.824-1.546-1.198c-0.406-0.281-0.818-0.557-1.245-0.802c-1.05-0.633-2.18-1.155-3.367-1.561
		v-4.55c0-0.908-0.299-1.729-0.798-2.193c-0.367-0.346-0.737-0.419-0.983-0.419h-7.797c-0.855,0-1.551,0.813-1.735,2.022
		c-0.026,0.188-0.046,0.382-0.046,0.59v4.553c-1.096,0.374-2.147,0.853-3.129,1.42c-1.082,0.602-2.101,1.319-3.035,2.135
		l-3.943-2.275c-0.1-0.059-0.197-0.104-0.298-0.151c-0.68-0.321-1.37-0.428-1.959-0.265c-0.41,0.118-0.71,0.338-0.889,0.652
		l-2.209,3.827l-3.92-5.166c0.318-0.443,0.626-0.905,0.919-1.375l6.713,1.764l0.265-0.515c0.826-1.605,1.524-3.29,2.075-5.008
		l0.176-0.549l-5.992-3.504c0.125-0.534,0.231-1.076,0.322-1.619l6.875-0.945l0.048-0.573c0.15-1.797,0.15-3.622,0-5.421
		l-0.048-0.575l-6.874-0.939c-0.09-0.543-0.198-1.086-0.323-1.626l5.992-3.5l-0.176-0.55c-0.55-1.715-1.247-3.399-2.075-5.006
		l-0.265-0.513l-6.712,1.76c-0.291-0.466-0.598-0.926-0.92-1.376l3.922-5.164l2.206,3.821c0.43,0.754,1.625,0.93,2.722,0.455
		c0.15-0.062,0.297-0.137,0.431-0.217l3.942-2.275c0.865,0.758,1.805,1.43,2.79,2c1.071,0.64,2.202,1.163,3.369,1.559v4.549
		c0,0.265,0.029,0.513,0.075,0.748c0.073,0.387,0.207,0.743,0.382,1.025c0.331,0.543,0.801,0.843,1.321,0.843h7.799
		c1.017,0,1.782-1.124,1.782-2.615v-4.549c1.079-0.368,2.131-0.844,3.124-1.416c0.488-0.271,0.954-0.571,1.41-0.884
		c0.568-0.39,1.115-0.804,1.629-1.255l3.939,2.274c0.73,0.423,1.564,0.59,2.2,0.433c0.551-0.133,0.824-0.442,0.949-0.669
		l3.902-6.759c0.147-0.26,0.205-0.563,0.166-0.871c-0.022-0.189-0.084-0.385-0.186-0.595c-0.145-0.301-0.354-0.583-0.623-0.836
		c-0.211-0.199-0.455-0.38-0.73-0.541l-3.942-2.275c0.221-1.122,0.333-2.27,0.336-3.413c0.021-1.235-0.09-2.478-0.333-3.703
		l3.942-2.273c1.283-0.746,1.872-1.97,1.369-2.849l-1.765-3.055l-2.136-3.697c-0.115-0.201-0.294-0.349-0.498-0.469
		c-0.465-0.275-1.113-0.343-1.821-0.13c-0.279,0.084-0.558,0.205-0.833,0.361l-3.94,2.277c-0.859-0.751-1.799-1.424-2.794-2.001
		c-1.059-0.634-2.189-1.157-3.366-1.559v-4.549c0-0.908-0.299-1.728-0.798-2.191c-0.367-0.346-0.737-0.418-0.983-0.418h-7.797
		c-0.855,0-1.551,0.81-1.735,2.021c-0.026,0.19-0.046,0.384-0.046,0.588v4.554c-1.084,0.369-2.138,0.847-3.13,1.419
		c-1.087,0.605-2.104,1.321-3.032,2.134l-3.945-2.278c-0.105-0.061-0.21-0.11-0.296-0.147c-0.682-0.324-1.408-0.418-1.951-0.267
		c-0.512,0.139-0.771,0.431-0.898,0.652l-3.898,6.754c-0.176,0.303-0.192,0.649-0.124,1.001c0.1,0.5,0.406,1.014,0.946,1.461
		c0.166,0.138,0.346,0.268,0.549,0.385l3.942,2.277c-0.223,1.118-0.335,2.267-0.337,3.415c-0.02,1.242,0.092,2.484,0.332,3.702
		l-3.92,2.262c-0.081,0.044-0.157,0.095-0.269,0.171c-0.58,0.397-1.004,0.896-1.188,1.399c-0.173,0.46-0.149,0.917,0.065,1.285
		l0.612,1.06c-0.898-0.972-1.839-1.911-2.853-2.766l-0.44-0.371l-5.525,4.194c-0.449-0.321-0.91-0.628-1.376-0.918l1.763-6.715
		l-0.514-0.265c-1.625-0.835-3.31-1.532-5.009-2.07l-0.548-0.173l-3.5,5.989c-0.54-0.126-1.083-0.234-1.624-0.323l-0.942-6.876
		l-0.575-0.047c-1.608-0.133-3.238-0.128-4.851-0.023c-0.19,0.012-0.381,0.007-0.569,0.023l-0.575,0.047l-0.115,0.84l-0.827,6.036
		c-0.541,0.09-1.084,0.198-1.624,0.323l-1.637-2.803l-1.862-3.188l-0.55,0.174c-1.723,0.549-3.408,1.247-5.009,2.074l-0.513,0.265
		l1.761,6.711c-0.473,0.295-0.934,0.603-1.377,0.92l-5.524-4.198l-0.441,0.373c-1.376,1.163-2.667,2.452-3.835,3.833l-0.373,0.44
		l4.197,5.527c-0.319,0.445-0.627,0.906-0.919,1.376l-6.712-1.76l-0.264,0.513c-0.827,1.602-1.525,3.287-2.075,5.006l-0.176,0.55
		l5.992,3.501c-0.125,0.541-0.233,1.083-0.323,1.624l-6.875,0.942l-0.048,0.575c-0.15,1.797-0.15,3.622,0,5.421l0.048,0.573
		l6.875,0.942c0.091,0.546,0.198,1.088,0.323,1.622l-5.993,3.504l0.176,0.549c0.55,1.718,1.248,3.402,2.075,5.005l0.264,0.515
		l6.713-1.764c0.295,0.476,0.603,0.937,0.918,1.378l-4.197,5.525l0.373,0.441c1.174,1.387,2.464,2.678,3.835,3.836l0.441,0.371
		l5.527-4.198c0.449,0.323,0.91,0.63,1.376,0.92l-1.763,6.715l0.513,0.264c1.593,0.824,3.278,1.521,5.008,2.075l0.55,0.178
		l1.784-3.054l1.718-2.941c0.542,0.126,1.085,0.233,1.623,0.32l0.863,6.287l0.081,0.591l0.575,0.048
		c0.08,0.009,0.16,0.006,0.239,0.012c0.821,0.062,1.65,0.101,2.471,0.101c0.9,0,1.812-0.036,2.71-0.112l0.575-0.048l0.94-6.875
		c0.538-0.09,1.081-0.197,1.624-0.323l3.501,5.995l0.55-0.178c1.722-0.551,3.407-1.248,5.008-2.075l0.513-0.264l-1.763-6.715
		c0.467-0.29,0.927-0.597,1.376-0.92l5.525,4.198l0.44-0.371c1.002-0.847,1.942-1.785,2.848-2.764l-0.605,1.049
		c-0.419,0.725-0.086,1.715,0.822,2.463c0.163,0.135,0.341,0.265,0.549,0.388l3.942,2.275c-0.223,1.116-0.335,2.267-0.337,3.413
		c-0.02,1.24,0.092,2.483,0.332,3.701l-3.938,2.274c-0.061,0.034-0.118,0.073-0.251,0.16c-0.583,0.399-1.005,0.897-1.188,1.397
		c-0.064,0.175-0.076,0.346-0.086,0.515c-0.014,0.275,0.019,0.543,0.151,0.773l1.307,2.261l2.299,3.981l0.292,0.507
		c0.259,0.452,0.801,0.669,1.42,0.691c0.417,0.014,0.862-0.042,1.304-0.236c0.15-0.062,0.297-0.135,0.431-0.217l0.64-0.368
		l3.303-1.906c0.231,0.202,0.481,0.385,0.725,0.576c0.657,0.518,1.34,1.004,2.065,1.426c0.107,0.064,0.223,0.112,0.332,0.175
		c0.969,0.551,1.98,1.023,3.037,1.383v4.547c0,0.271,0.029,0.518,0.075,0.751c0.075,0.388,0.207,0.742,0.382,1.023
		c0.331,0.543,0.801,0.841,1.321,0.841h7.799C175.572,196.379,176.337,195.254,176.337,193.764z M149.758,115.834l5.011-2.902
		l-0.119-0.519c-0.291-1.27-0.428-2.575-0.406-3.89c0.001-1.23,0.139-2.451,0.412-3.626l0.119-0.52l-4.857-2.806
		c-0.13-0.074-0.242-0.157-0.349-0.246c-0.383-0.317-0.488-0.602-0.497-0.635l3.935-6.739c0.119-0.031,0.565-0.004,0.97,0.188
		c0.061,0.028,0.122,0.057,0.18,0.089l4.854,2.802l0.39-0.363c0.947-0.882,2.006-1.651,3.159-2.293
		c1.063-0.613,2.19-1.104,3.351-1.459l0.509-0.156v-5.61c0-0.134,0.014-0.26,0.031-0.379c0.078-0.519,0.282-0.767,0.311-0.791
		l7.796,0.029c0.166,0.153,0.343,0.576,0.343,1.141v5.604l0.508,0.157c1.25,0.385,2.446,0.917,3.566,1.588
		c1.067,0.619,2.058,1.35,2.94,2.173l0.39,0.364l4.852-2.804c0.177-0.101,0.357-0.178,0.53-0.231
		c0.163-0.048,0.319-0.074,0.451-0.074c0.15,0,0.209,0.029,0.212,0.021l3.884,6.71c0.011,0.122-0.214,0.559-0.831,0.918
		l-4.854,2.799l0.119,0.519c0.292,1.279,0.431,2.584,0.408,3.89c-0.003,1.226-0.141,2.447-0.411,3.629l-0.118,0.518l4.853,2.8
		c0.177,0.104,0.334,0.22,0.465,0.343c0.138,0.129,0.246,0.272,0.315,0.417c0.046,0.093,0.043,0.144,0.067,0.123l-3.942,6.744
		c-0.259,0.064-0.738-0.047-1.142-0.281l-4.856-2.804l-0.39,0.366c-0.938,0.88-2,1.651-3.16,2.296
		c-1.065,0.614-2.192,1.104-3.347,1.458l-0.509,0.156v5.608c0,0.681-0.253,1.101-0.367,1.172l-7.729,0.009
		c-0.016-0.009-0.072-0.053-0.141-0.166c-0.084-0.135-0.152-0.327-0.194-0.543c-0.028-0.15-0.049-0.307-0.049-0.475v-5.605
		l-0.509-0.155c-1.237-0.377-2.434-0.911-3.57-1.589c-1.054-0.609-2.043-1.339-2.936-2.17l-0.39-0.362l-4.867,2.809
		c-0.081,0.048-0.163,0.091-0.26,0.131c-0.249,0.108-0.499,0.168-0.706,0.168c-0.151,0-0.206-0.033-0.214-0.021l-3.857-6.811
		C149.17,116.373,149.375,116.096,149.758,115.834z M145.092,163.823l-5.461-4.147l-0.435,0.323
		c-0.692,0.518-1.417,1.001-2.153,1.438l-0.467,0.275l1.742,6.639c-1.203,0.594-2.452,1.111-3.725,1.544l-3.46-5.922l-0.526,0.132
		c-0.849,0.217-1.702,0.386-2.537,0.504l-0.54,0.075l-0.929,6.8c-1.343,0.084-2.689,0.084-4.032,0l-0.933-6.8l-0.538-0.075
		c-0.837-0.118-1.69-0.287-2.537-0.504l-0.526-0.132l-3.46,5.922c-1.278-0.436-2.527-0.953-3.725-1.544l1.742-6.639l-0.467-0.275
		c-0.737-0.437-1.461-0.92-2.153-1.438l-0.435-0.323l-5.463,4.147c-1.004-0.883-1.96-1.839-2.852-2.854l4.149-5.464l-0.327-0.433
		c-0.503-0.673-0.987-1.396-1.439-2.154l-0.277-0.464l-6.633,1.74c-0.593-1.206-1.111-2.455-1.543-3.723l5.922-3.465l-0.134-0.525
		c-0.21-0.827-0.38-1.682-0.505-2.539l-0.078-0.534l-6.793-0.931c-0.087-1.342-0.087-2.694,0-4.033l6.795-0.931l0.077-0.537
		c0.121-0.843,0.291-1.698,0.505-2.541l0.134-0.525l-5.922-3.46c0.433-1.272,0.95-2.521,1.543-3.725l6.635,1.739l0.277-0.466
		c0.443-0.747,0.926-1.47,1.438-2.151l0.327-0.435l-4.149-5.463c0.888-1.011,1.844-1.967,2.852-2.852l5.462,4.149l0.434-0.326
		c0.676-0.506,1.4-0.99,2.154-1.439l0.465-0.277l-1.74-6.633c1.203-0.594,2.451-1.11,3.724-1.542l3.46,5.921l0.525-0.133
		c0.841-0.214,1.696-0.383,2.541-0.505l0.537-0.077l0.931-6.796c1.343-0.086,2.689-0.086,4.032,0l0.931,6.796l0.538,0.077
		c0.843,0.121,1.698,0.291,2.539,0.505l0.526,0.134l3.461-5.923c1.259,0.427,2.507,0.943,3.724,1.541l-1.742,6.638l0.467,0.276
		c0.737,0.436,1.461,0.919,2.153,1.436l0.435,0.325l5.461-4.146c1.012,0.887,1.968,1.843,2.853,2.851l-4.148,5.464l0.325,0.434
		c0.52,0.692,1.003,1.417,1.438,2.151l0.276,0.467l6.637-1.739c0.593,1.207,1.11,2.454,1.543,3.724l-5.922,3.458l0.134,0.525
		c0.214,0.841,0.384,1.696,0.505,2.543l0.077,0.537l6.795,0.928c0.088,1.341,0.088,2.692,0,4.033l-6.795,0.934l-0.077,0.537
		c-0.122,0.846-0.292,1.701-0.505,2.536l-0.134,0.525l5.922,3.462c-0.434,1.271-0.951,2.52-1.543,3.726l-6.635-1.74l-0.277,0.464
		c-0.442,0.748-0.927,1.471-1.438,2.154l-0.325,0.433l4.148,5.464C147.05,161.987,146.094,162.943,145.092,163.823z
		 M174.898,188.161v5.606c0,0.684-0.253,1.103-0.367,1.173l-7.729,0.008c-0.016-0.008-0.072-0.05-0.141-0.165
		c-0.084-0.136-0.152-0.326-0.194-0.54c-0.028-0.149-0.049-0.307-0.049-0.479v-5.602l-0.508-0.154
		c-1.247-0.385-2.445-0.917-3.569-1.589c-1.066-0.618-2.055-1.35-2.938-2.174l-0.39-0.362l-4.867,2.81
		c-0.081,0.047-0.163,0.09-0.26,0.132c-0.25,0.106-0.502,0.169-0.707,0.169c-0.141,0-0.218-0.031-0.211-0.022l-3.859-6.813
		c0.062-0.172,0.266-0.447,0.631-0.697l5.028-2.919l-0.118-0.518c-0.291-1.271-0.428-2.573-0.406-3.886
		c0.001-1.231,0.139-2.452,0.412-3.628l0.119-0.52l-4.851-2.798c-0.131-0.079-0.246-0.163-0.357-0.254
		c-0.382-0.314-0.486-0.602-0.495-0.635l3.929-6.737c0.124-0.034,0.579,0,0.957,0.18c0.068,0.031,0.136,0.062,0.198,0.099
		l4.854,2.803l0.39-0.362c0.954-0.889,2.014-1.659,3.16-2.295c1.049-0.607,2.177-1.099,3.351-1.462l0.508-0.157v-5.607
		c0-0.135,0.014-0.261,0.031-0.377c0.078-0.52,0.282-0.77,0.311-0.795l7.796,0.03c0.166,0.152,0.343,0.577,0.343,1.142v5.602
		l0.506,0.157c1.263,0.392,2.461,0.926,3.57,1.592c1.056,0.61,2.046,1.339,2.939,2.171l0.39,0.36l4.851-2.798
		c0.186-0.107,0.361-0.184,0.533-0.233c0.163-0.048,0.319-0.073,0.452-0.073c0.147,0,0.201,0.027,0.21,0.02l3.882,6.712
		c0.01,0.121-0.215,0.557-0.831,0.917l-4.854,2.801l0.119,0.52c0.292,1.274,0.431,2.579,0.408,3.887
		c-0.003,1.229-0.141,2.449-0.411,3.627l-0.118,0.518l4.853,2.801c0.177,0.104,0.334,0.219,0.461,0.34
		c0.144,0.138,0.25,0.278,0.319,0.422c0.046,0.093,0.043,0.138,0.067,0.124l-3.942,6.743c-0.259,0.067-0.737-0.048-1.142-0.278
		l-4.854-2.804l-0.39,0.362c-0.951,0.883-2.011,1.656-3.162,2.295c-1.056,0.607-2.183,1.1-3.348,1.459L174.898,188.161z"/>
	<path d="M170.722,116.969c1.766,0,3.453-0.548,4.882-1.586c1.797-1.305,2.978-3.233,3.325-5.432
		c0.349-2.199-0.179-4.398-1.483-6.192c-1.56-2.147-4.08-3.43-6.743-3.43c-1.765,0-3.451,0.548-4.88,1.586
		c-3.713,2.698-4.54,7.914-1.844,11.626C165.539,115.688,168.059,116.969,170.722,116.969z M164.438,105.899
		c0.474-1.085,1.206-2.073,2.231-2.818c1.181-0.857,2.575-1.311,4.033-1.311c2.203,0,4.288,1.06,5.579,2.836
		c1.078,1.483,1.514,3.302,1.226,5.12c-0.286,1.81-1.258,3.396-2.73,4.475c-0.007,0.005-0.013,0.013-0.02,0.018
		c-1.181,0.857-2.575,1.311-4.035,1.311c-2.203,0-4.289-1.06-5.579-2.834C163.659,110.651,163.493,108.065,164.438,105.899z"/>
	<path d="M55.663,70.041l8.171,5.306c1.076,0.697,2.294,1.038,3.504,1.038c1.748,0,3.479-0.71,4.737-2.075
		c15.013-16.287,34.393-27.328,56.048-31.928c7.302-1.555,14.758-2.341,22.161-2.341c11.364,0,22.613,1.83,33.445,5.434
		l-7.761,12.009c-0.015,0.018-0.025,0.038-0.04,0.059c-1.231,1.911-0.677,4.47,1.229,5.703c0.669,0.432,1.445,0.662,2.241,0.662
		c0.098,0,0.19-0.004,0.286-0.011l48.537,2.433c0.067,0.003,0.141,0.006,0.217,0.006c1.399,0,2.693-0.708,3.458-1.888
		c0.799-1.231,0.878-2.812,0.208-4.123l-22.38-43.674c-0.669-1.306-1.999-2.165-3.467-2.241c-0.07-0.003-0.141-0.003-0.208-0.003
		c-1.409,0-2.705,0.706-3.465,1.891l-6.661,10.305c-0.664-0.662-1.471-1.182-2.376-1.505c-13.925-4.974-28.454-7.495-43.187-7.495
		c-8.988,0-18.038,0.955-26.901,2.839c-26.88,5.713-50.767,19.51-69.08,39.893c-1.257,1.401-1.838,3.283-1.593,5.149
		C53.034,67.35,54.085,69.013,55.663,70.041z M179.399,62.298c-0.028,0-0.057-0.004-0.088-0.007
		c0.115,0.005,0.233,0.007,0.347-0.006C179.573,62.293,179.489,62.298,179.399,62.298z M228.742,64.687
		c-0.101,0.014-0.202,0.039-0.303,0.039c-0.046,0-0.091-0.001-0.136-0.002C228.453,64.73,228.596,64.705,228.742,64.687z
		 M206.05,16.014c0.039,0,0.084,0.004,0.123,0.006c-0.143-0.008-0.289,0.016-0.43,0.034
		C205.844,16.042,205.946,16.014,206.05,16.014z"/>
	<path d="M127.609,246.599c-21.61-4.854-40.862-16.116-55.677-32.567c-12.703-14.107-21.408-31.382-25.174-49.941
		c-0.078-0.387-0.192-0.762-0.335-1.119l13.544,0.681c0.032,0.007,0.065,0.007,0.085,0.007c0.068,0.004,0.136,0.004,0.203,0.004
		c2.202,0,4.014-1.718,4.125-3.918c0.044-0.889-0.204-1.78-0.7-2.516l-22.164-43.252c-0.664-1.306-1.994-2.164-3.466-2.239
		c-0.069-0.003-0.141-0.006-0.212-0.006c-1.399,0-2.694,0.704-3.46,1.884L7.744,154.837c-0.797,1.228-0.878,2.811-0.207,4.124
		c0.671,1.309,2,2.163,3.465,2.238l13.873,0.693c-0.649,1.251-0.88,2.697-0.622,4.119c4.28,23.448,15.004,45.244,31.012,63.023
		c18.388,20.422,42.279,34.21,69.089,39.876c0.442,0.096,0.888,0.142,1.331,0.142c1.407,0,2.788-0.462,3.922-1.334
		c1.493-1.148,2.409-2.888,2.508-4.769l0.512-9.729C132.792,250.084,130.67,247.29,127.609,246.599z M60.463,162.035
		c-0.07,0.006-0.136,0.022-0.209,0.022c-0.041,0-0.083,0-0.125-0.004C60.244,162.057,60.354,162.046,60.463,162.035z
		 M37.531,113.381c0.103-0.013,0.202-0.041,0.306-0.041c0.044,0,0.088,0,0.131,0.003C37.819,113.337,37.675,113.361,37.531,113.381z
		"/>
	<path d="M269.999,104.027c-0.582-1.789-1.92-3.234-3.658-3.957c-1.735-0.718-3.706-0.639-5.382,0.214l-8.687,4.423
		c-2.795,1.425-4.158,4.66-3.222,7.657c6.602,21.145,6.473,43.448-0.369,64.503c-5.865,18.057-16.469,34.228-30.664,46.771
		c-0.398,0.353-0.73,0.762-1.021,1.187l-7.077-13.813c-0.012-0.021-0.02-0.038-0.028-0.055c-0.709-1.389-2.12-2.247-3.675-2.247
		c-0.65,0-1.3,0.158-1.879,0.453c-0.79,0.402-1.437,1.065-1.828,1.868l-26.375,40.818c-0.799,1.225-0.881,2.805-0.211,4.118
		c0.672,1.309,1.999,2.169,3.47,2.242l49.012,2.452c0.07,0.003,0.141,0.007,0.211,0.007c1.403,0,2.693-0.704,3.461-1.886
		c0.802-1.244,0.881-2.818,0.206-4.126l-5.621-10.964c0.036,0,0.07,0.004,0.106,0.004c1.513,0,2.992-0.532,4.165-1.531
		c18.17-15.432,31.685-35.614,39.077-58.369C278.5,157.665,278.5,130.081,269.999,104.027z M206.137,210.33
		c0.025,0,0.054-0.009,0.079-0.009c0.084,0,0.171,0.009,0.256,0.017C206.359,210.327,206.247,210.324,206.137,210.33z
		 M228.917,259.022c-0.102,0.01-0.197,0.038-0.301,0.038c-0.042,0-0.084-0.004-0.13-0.007
		C228.629,259.063,228.773,259.039,228.917,259.022z"/>
</g>
</svg>
