<?xml version="1.0" encoding="utf-8"?>
<!-- Generator: Adobe Illustrator 15.1.0, SVG Export Plug-In . SVG Version: 6.00 Build 0)  -->
<!DOCTYPE svg PUBLIC "-//W3C//DTD SVG 1.1//EN" "http://www.w3.org/Graphics/SVG/1.1/DTD/svg11.dtd">
<svg version="1.1" id="Layer_1" xmlns="http://www.w3.org/2000/svg" xmlns:xlink="http://www.w3.org/1999/xlink" x="0px" y="0px"
	 width="283.465px" height="283.465px" viewBox="0 0 283.465 283.465" enable-background="new 0 0 283.465 283.465"
	 xml:space="preserve">
<path d="M141.783,7.084C67.47,7.084,7.138,67.417,7.138,141.729c0,74.313,60.333,134.646,134.646,134.646
	c74.313,0,134.646-60.332,134.646-134.646C276.429,67.417,216.096,7.084,141.783,7.084z M141.783,242.714
	c-55.734,0-100.984-45.249-100.984-100.984c0-55.734,45.25-100.984,100.984-100.984c55.735,0,100.983,45.25,100.983,100.984
	C242.767,197.465,197.519,242.714,141.783,242.714z M215.646,100.788c-12.78,12.779-85.985,85.984-99.004,99.003
	c-0.524,0.524-1.237,0.819-1.979,0.819c-0.743,0-1.456-0.295-1.981-0.819c-7.887-7.888-37.014-37.016-44.762-44.763
	c-1.052-1.052-1.052-2.755,0-3.806c3.299-3.3,10.044-10.045,13.344-13.345c1.051-1.052,2.756-1.052,3.807,0
	c5.616,5.615,22.072,22.071,27.688,27.688c1.051,1.051,2.756,1.051,3.807,0.001c11.4-11.401,70.528-70.53,81.928-81.93
	c1.052-1.051,2.756-1.051,3.807,0c3.3,3.3,10.046,10.045,13.346,13.345C216.697,98.033,216.697,99.736,215.646,100.788z"/>
</svg>
