<?xml version="1.0" encoding="utf-8"?>
<!-- Generator: Adobe Illustrator 15.1.0, SVG Export Plug-In . SVG Version: 6.00 Build 0)  -->
<!DOCTYPE svg PUBLIC "-//W3C//DTD SVG 1.1//EN" "http://www.w3.org/Graphics/SVG/1.1/DTD/svg11.dtd">
<svg version="1.1" id="Layer_1" xmlns="http://www.w3.org/2000/svg" xmlns:xlink="http://www.w3.org/1999/xlink" x="0px" y="0px"
	 width="283.465px" height="283.465px" viewBox="0 0 283.465 283.465" enable-background="new 0 0 283.465 283.465"
	 xml:space="preserve">
<path d="M141.625,7.146C67.312,7.146,6.979,67.479,6.979,141.792c0,74.313,60.333,134.646,134.646,134.646
	c74.313,0,134.646-60.333,134.646-134.646C276.271,67.479,215.938,7.146,141.625,7.146z M141.625,242.777
	c-55.735,0-100.984-45.25-100.984-100.985c0-55.734,45.25-100.984,100.984-100.984c55.735,0,100.985,45.25,100.985,100.984
	C242.61,197.527,197.36,242.777,141.625,242.777z M107.111,88.417l87.775,53.374l-87.775,53.375V88.417z"/>
</svg>
