<?xml version="1.0" encoding="utf-8"?>
<!-- Generator: Adobe Illustrator 15.1.0, SVG Export Plug-In . SVG Version: 6.00 Build 0)  -->
<!DOCTYPE svg PUBLIC "-//W3C//DTD SVG 1.1//EN" "http://www.w3.org/Graphics/SVG/1.1/DTD/svg11.dtd">
<svg version="1.1" id="Layer_3" xmlns="http://www.w3.org/2000/svg" xmlns:xlink="http://www.w3.org/1999/xlink" x="0px" y="0px"
	 width="283.46px" height="283.46px" viewBox="0 0 283.46 283.46" enable-background="new 0 0 283.46 283.46" xml:space="preserve">
<g>
	<path fill="none" d="M210.227,30.541C190.349,18.033,166.878,10.8,141.73,10.8c-25.239,0-48.788,7.285-68.712,19.875
		c20.001-12.268,43.527-19.349,68.711-19.349C166.823,11.327,190.272,18.355,210.227,30.541z"/>
	<path fill="#231F20" d="M96.299,156.531c-0.119-0.141-0.238-0.285-0.357-0.43c-0.517-0.623-1.029-1.262-1.533-1.926
		c-0.52-0.715-1.029-1.449-1.528-2.201c-0.167-0.25-0.325-0.51-0.488-0.766c-0.329-0.508-0.659-1.018-0.977-1.539
		c-0.188-0.309-0.367-0.627-0.552-0.941c-0.283-0.482-0.569-0.963-0.843-1.455c-0.19-0.342-0.372-0.689-0.557-1.035
		c-0.256-0.477-0.512-0.949-0.759-1.434c-0.186-0.363-0.362-0.732-0.542-1.102c-0.232-0.475-0.465-0.949-0.688-1.43
		c-0.177-0.379-0.344-0.762-0.514-1.144c-0.212-0.477-0.423-0.954-0.625-1.435c-0.164-0.39-0.32-0.781-0.477-1.172
		c-0.192-0.48-0.383-0.959-0.565-1.442c-0.149-0.396-0.291-0.792-0.433-1.189c-0.103-0.286-0.214-0.571-0.313-0.858
		c-18.752-2.493-38.052-4.047-57.566-4.648c24.268,7.51,47.533,16.33,69.479,26.337C96.406,156.66,96.353,156.593,96.299,156.531z"
		/>
	<path fill="#231F20" d="M127.061,136.575c-0.07-0.12-0.139-0.239-0.21-0.359c-0.269-0.448-0.549-0.898-0.84-1.349
		c-0.133-0.207-0.262-0.414-0.4-0.621c-0.434-0.653-0.884-1.309-1.365-1.969c-4.72-6.491-11.504-12.673-18.612-16.964
		c-6.107-3.686-12.131-5.791-17.063-5.975l42.434,56.186c9.828-4.031,17.977-10.438,23.629-18.592
		c1.719-2.479,3.258-5.196,4.572-8.077c2.557-5.601,4.406-12.096,5.499-19.305c1.623-11.896,1.132-25.211-1.387-37.462
		c-2.937-14.296-8.387-25.82-15.17-32.277l-13.499,95.805c0,0.002,0,0.002,0,0.002l-1.285,9.121l-2.35-8.908
		c-0.143-0.543-0.303-1.088-0.478-1.629c-0.056-0.176-0.122-0.352-0.181-0.527c-0.125-0.367-0.25-0.734-0.388-1.102
		c-0.08-0.21-0.169-0.42-0.253-0.63c-0.133-0.333-0.266-0.667-0.411-1c-0.099-0.228-0.208-0.455-0.312-0.682
		c-0.111-0.241-0.224-0.483-0.341-0.725"/>
	<path fill="#231F20" d="M127.251,130.092c1.914,2.632,3.487,5.216,4.737,7.79l12.417-88.124
		c-12.193,6.373-24.208,23.167-31.237,44.012c-2.082,6.173-3.598,12.346-4.507,18.348c-0.029,0.213-0.057,0.429-0.083,0.646
		C115.805,117.311,122.405,123.428,127.251,130.092z"/>
	<path fill="#231F20" d="M97.392,151.96c4.144,5.471,8.749,9.451,13.666,11.805c0.002,0,0.141,0.066,0.143,0.068
		c3.832,1.811,7.878,2.693,12.356,2.693h0c1.107,0,2.251-0.057,3.42-0.168L85.585,111.55c-1.281,5.48-0.555,12.986,2.123,21.222
		C89.935,139.622,93.374,146.435,97.392,151.96z"/>
	<path fill="#231F20" d="M47.384,236.927c25.199,25.438,58.705,39.449,94.347,39.449c35.641,0,69.147-14.012,94.346-39.449
		c25.189-25.43,39.062-59.238,39.062-95.198c0-1.582-0.036-3.159-0.09-4.732c-1.162-34.184-14.891-66.152-38.972-90.463
		C210.877,21.094,177.372,7.084,141.73,7.084c-35.642,0-69.147,14.01-94.347,39.449C26.104,68.016,12.903,95.477,9.317,125.163
		c-0.659,5.455-0.995,10.985-0.995,16.566C8.322,177.689,22.195,211.498,47.384,236.927z M12.947,126.217
		c4.713-40.303,27.555-74.995,60.071-95.542C92.943,18.085,116.492,10.8,141.73,10.8c25.148,0,48.619,7.233,68.497,19.741
		c32.68,20.562,55.631,55.391,60.307,95.86c0.412,3.572,0.684,7.188,0.806,10.842c-0.04-0.755-0.086-1.529-0.141-2.353
		c-0.1-1.458-0.218-2.979-0.375-4.782c-7.948,0.054-15.969,0.269-23.867,0.639l-1.945,0.091v-27.585h6.684l-6.926-17.313h-55.521
		l-6.925,17.313h7.524v33.063l-1.575,0.242c-8.813,1.353-17.584,2.933-26.086,4.698c-0.084,0.177-0.18,0.344-0.265,0.519
		c-0.306,0.626-0.621,1.244-0.947,1.854c-0.146,0.273-0.289,0.547-0.438,0.818c-0.423,0.762-0.859,1.51-1.312,2.242
		c-0.046,0.074-0.088,0.154-0.135,0.23c0.495,0.146,0.982,0.299,1.477,0.447c0.686,0.207,1.37,0.416,2.052,0.625
		c0.936,0.287,1.865,0.578,2.794,0.871c0.673,0.213,1.347,0.424,2.017,0.641c0.936,0.301,1.865,0.605,2.793,0.912
		c0.651,0.213,1.305,0.428,1.952,0.645c0.953,0.32,1.899,0.645,2.845,0.971c0.61,0.209,1.223,0.418,1.83,0.631
		c1.019,0.355,2.027,0.719,3.036,1.082c0.521,0.186,1.046,0.369,1.563,0.561c1.255,0.457,2.497,0.92,3.735,1.389
		c0.265,0.1,0.534,0.197,0.798,0.297c1.502,0.57,2.989,1.148,4.464,1.732c0.392,0.156,0.775,0.314,1.165,0.471
		c0.976,0.391,1.952,0.781,2.915,1.178l27.794-6.457l49.101-11.409c0,0.076,0.003,0.15,0.003,0.225c0,1.204-0.02,2.405-0.051,3.601
		l-71.025,16.502c1.562,0.678,3.104,1.363,4.629,2.057c0.411,0.188,0.813,0.377,1.224,0.566c1.139,0.523,2.274,1.047,3.393,1.578
		c0.552,0.264,1.093,0.529,1.639,0.793c0.964,0.465,1.925,0.93,2.873,1.4c0.585,0.291,1.162,0.584,1.74,0.877
		c0.894,0.451,1.782,0.904,2.66,1.361c0.591,0.307,1.175,0.615,1.758,0.924c0.855,0.453,1.704,0.908,2.545,1.365
		c0.575,0.313,1.146,0.627,1.715,0.941c0.84,0.467,1.67,0.934,2.496,1.404c0.547,0.313,1.094,0.625,1.634,0.938
		c0.845,0.492,1.677,0.986,2.507,1.482c0.499,0.299,1.003,0.596,1.496,0.896c0.895,0.545,1.774,1.096,2.651,1.646
		c0.408,0.258,0.825,0.512,1.23,0.77c1.16,0.742,2.303,1.488,3.431,2.24c0.108,0.072,0.221,0.145,0.33,0.217
		c1.241,0.832,2.461,1.67,3.663,2.516c0.322,0.227,0.634,0.457,0.953,0.684c0.861,0.615,1.72,1.23,2.561,1.852
		c0.422,0.313,0.833,0.629,1.25,0.941c0.722,0.545,1.441,1.088,2.146,1.637c0.446,0.348,0.884,0.697,1.323,1.047
		c0.658,0.521,1.311,1.045,1.954,1.57c0.448,0.367,0.891,0.736,1.331,1.105c0.619,0.518,1.23,1.037,1.834,1.559
		c0.436,0.377,0.868,0.754,1.297,1.133c0.132,0.117,0.269,0.232,0.4,0.35c-0.548,1.168-1.106,2.328-1.688,3.477
		c-10.946-9.891-24.445-19.027-40.328-27.301c-1.458-0.76-2.935-1.512-4.431-2.254c-2.994-1.488-6.067-2.949-9.218-4.377
		c-3.152-1.43-6.382-2.828-9.688-4.197c-11.467-4.742-23.824-9.074-36.75-12.883c-0.077,0.105-0.159,0.207-0.236,0.313
		c-0.164,0.219-0.331,0.436-0.497,0.654c-0.234,0.303-0.471,0.605-0.711,0.904c-0.188,0.236-0.38,0.467-0.573,0.699
		c-0.205,0.246-0.411,0.492-0.621,0.734c-0.271,0.314-0.55,0.625-0.829,0.936c-0.094,0.104-0.188,0.207-0.282,0.309
		c-5.761,6.268-13.077,11.246-21.517,14.58c-0.121,0.088-0.252,0.16-0.393,0.219c-0.36,0.203-0.716,0.24-0.915,0.24
		c-0.098,0-0.193-0.01-0.288-0.023c-0.237,0.037-0.472,0.064-0.708,0.1c-0.23,0.031-0.46,0.066-0.688,0.096
		c-0.365,0.045-0.726,0.084-1.087,0.119c-0.216,0.021-0.433,0.047-0.647,0.066c-0.387,0.033-0.769,0.057-1.151,0.078
		c-0.183,0.012-0.367,0.025-0.548,0.033c-0.431,0.02-0.855,0.027-1.277,0.031c41.876,22.209,75.368,47.855,97.542,74.75
		c-0.97,0.764-1.954,1.514-2.947,2.25c-23.735-28.74-60.69-56.08-107.117-79.26c-0.026-0.01-0.05-0.023-0.076-0.033
		c-0.587-0.234-1.168-0.484-1.741-0.756l-0.121-0.059c-0.792-0.379-1.572-0.805-2.346-1.254
		C80.573,152.923,51.9,141.761,21.69,132.645c63.946,39.191,117.593,88.619,148.356,136.876c-1.295,0.291-2.598,0.563-3.906,0.814
		c-30.21-46.832-82.125-94.725-144.043-133.068c35.579,41.768,63.911,86.445,82.298,129.877c-1.841-0.557-3.665-1.154-5.47-1.793
		c-19.379-44.57-49.209-90.367-86.561-132.888C12.51,130.367,12.706,128.285,12.947,126.217z M219.288,107.458v16.332h-16.332
		v-16.332H219.288z"/>
</g>
</svg>
