<?xml version="1.0" encoding="utf-8"?>
<!-- Generator: Adobe Illustrator 15.1.0, SVG Export Plug-In . SVG Version: 6.00 Build 0)  -->
<!DOCTYPE svg PUBLIC "-//W3C//DTD SVG 1.1//EN" "http://www.w3.org/Graphics/SVG/1.1/DTD/svg11.dtd">
<svg version="1.1" id="Layer_2" xmlns="http://www.w3.org/2000/svg" xmlns:xlink="http://www.w3.org/1999/xlink" x="0px" y="0px"
	 width="283.46px" height="283.46px" viewBox="0 0 283.46 283.46" enable-background="new 0 0 283.46 283.46" xml:space="preserve">
<g>
	<path fill="none" d="M138.872,89.524c-10.871,0-21.023,3.156-29.647,8.616c4.455-1.158,9.117-1.778,13.923-1.778
		c31.282,0,56.642,26.084,56.642,58.271c0,0.358-0.021,0.71-0.025,1.066c0.006,0.356,0.025,0.709,0.025,1.068v39.715v0.232V218.5
		h15.725v-28.629v-0.231v-39.715c0-0.358-0.02-0.713-0.027-1.069c0.006-0.356,0.027-0.71,0.027-1.068
		C195.514,115.608,170.154,89.524,138.872,89.524z"/>
	<path d="M141.73,75.197c-38.233,0-69.228,31.88-69.228,71.207c0,0.438,0.025,0.867,0.032,1.304
		c-0.01,0.437-0.032,0.868-0.032,1.308v48.537v0.285v34.988h138.455v-34.988v-0.285v-48.537c0-0.439-0.023-0.871-0.033-1.308
		c0.008-0.437,0.033-0.866,0.033-1.304C210.957,107.077,179.963,75.197,141.73,75.197z M195.514,149.925v39.715v0.231V218.5h-15.725
		v-21.785v-0.232v-39.715c0-0.359-0.02-0.712-0.025-1.068c0.004-0.356,0.025-0.708,0.025-1.066
		c0-32.187-25.359-58.271-56.642-58.271c-4.806,0-9.468,0.62-13.923,1.778c8.624-5.46,18.776-8.616,29.647-8.616
		c31.283,0,56.642,26.084,56.642,58.263c0,0.358-0.021,0.712-0.027,1.068C195.494,149.212,195.514,149.566,195.514,149.925z"/>
	<path d="M207.418,243.001H76.042c-9.404,0-17.027,4.597-17.027,10.265v4.878c0,5.668,7.624,10.263,17.027,10.263h131.376
		c9.404,0,17.027-4.595,17.027-10.263v-4.878C224.445,247.598,216.822,243.001,207.418,243.001z"/>
</g>
</svg>
