<?xml version="1.0" encoding="utf-8"?>
<!-- Generator: Adobe Illustrator 15.1.0, SVG Export Plug-In . SVG Version: 6.00 Build 0)  -->
<!DOCTYPE svg PUBLIC "-//W3C//DTD SVG 1.1//EN" "http://www.w3.org/Graphics/SVG/1.1/DTD/svg11.dtd">
<svg version="1.1" xmlns="http://www.w3.org/2000/svg" xmlns:xlink="http://www.w3.org/1999/xlink" x="0px" y="0px"
	 width="283.46px" height="283.46px" viewBox="0 0 283.46 283.46" enable-background="new 0 0 283.46 283.46" xml:space="preserve">
<g id="Layer_1">
</g>
<g id="Layer_2">
	<g>
		<path fill="none" d="M138.872,89.524c-10.871,0-21.023,3.156-29.647,8.616c4.455-1.158,9.117-1.778,13.923-1.778
			c31.282,0,56.642,26.084,56.642,58.271c0,0.358-0.021,0.71-0.025,1.066c0.006,0.356,0.025,0.709,0.025,1.068v39.715v0.232V218.5
			h15.725v-28.629v-0.231v-39.715c0-0.358-0.02-0.713-0.027-1.069c0.006-0.356,0.027-0.71,0.027-1.068
			C195.514,115.608,170.154,89.524,138.872,89.524z"/>
		<path d="M141.73,75.197c-38.233,0-69.228,31.88-69.228,71.207c0,0.438,0.025,0.867,0.032,1.304
			c-0.01,0.437-0.032,0.868-0.032,1.308v48.537v0.285v34.988h138.455v-34.988v-0.285v-48.537c0-0.439-0.023-0.871-0.033-1.308
			c0.008-0.437,0.033-0.866,0.033-1.304C210.957,107.077,179.963,75.197,141.73,75.197z M195.514,149.925v39.715v0.231V218.5
			h-15.725v-21.785v-0.232v-39.715c0-0.359-0.02-0.712-0.025-1.068c0.004-0.356,0.025-0.708,0.025-1.066
			c0-32.187-25.359-58.271-56.642-58.271c-4.806,0-9.468,0.62-13.923,1.778c8.624-5.46,18.776-8.616,29.647-8.616
			c31.283,0,56.642,26.084,56.642,58.263c0,0.358-0.021,0.712-0.027,1.068C195.494,149.212,195.514,149.566,195.514,149.925z"/>
		<path d="M207.418,243.001H76.042c-9.404,0-17.027,4.597-17.027,10.265v4.878c0,5.668,7.624,10.263,17.027,10.263h131.376
			c9.404,0,17.027-4.595,17.027-10.263v-4.878C224.445,247.598,216.822,243.001,207.418,243.001z"/>
		<path d="M141.728,59.891c3.559,0,6.444-3.143,6.444-7.02V22.073c0-3.877-2.885-7.02-6.444-7.02c-3.558,0-6.442,3.143-6.442,7.02
			v30.798C135.286,56.748,138.17,59.891,141.728,59.891z"/>
		<path d="M186.633,71.922c3.082,1.779,7.15,0.5,9.09-2.857l15.398-26.672c1.938-3.357,1.012-7.521-2.07-9.301
			s-7.15-0.499-9.09,2.858l-15.398,26.671C182.625,65.979,183.553,70.144,186.633,71.922z"/>
		<path d="M258.336,82.375c-1.779-3.081-5.943-4.008-9.303-2.069l-26.67,15.398c-3.359,1.938-4.637,6.009-2.857,9.09
			c1.779,3.082,5.943,4.009,9.301,2.069l26.672-15.398C258.834,89.526,260.115,85.457,258.336,82.375z"/>
		<path d="M269.355,143.255h-30.797c-3.879,0-7.02,2.886-7.02,6.442c0,3.56,3.143,6.443,7.02,6.443h30.797
			c3.877,0,7.02-2.884,7.02-6.443C276.375,146.14,273.232,143.255,269.355,143.255z"/>
		<path d="M87.735,69.065c1.939,3.358,6.008,4.637,9.089,2.858c3.082-1.779,4.008-5.943,2.07-9.302L83.495,35.951
			c-1.938-3.358-6.008-4.638-9.089-2.858c-3.081,1.779-4.008,5.943-2.069,9.302L87.735,69.065z"/>
		<path d="M63.953,104.796c1.779-3.082,0.5-7.15-2.858-9.09L34.423,80.308c-3.357-1.938-7.521-1.013-9.301,2.07
			c-1.779,3.08-0.5,7.15,2.858,9.089l26.671,15.398C58.01,108.804,62.174,107.877,63.953,104.796z"/>
		<path d="M44.902,143.257l-30.798,0.001c-3.877-0.001-7.021,2.884-7.02,6.442c0,3.558,3.142,6.443,7.02,6.442l30.797,0.001
			c3.878-0.001,7.02-2.886,7.021-6.443C51.922,146.142,48.779,143.258,44.902,143.257z"/>
	</g>
</g>
</svg>
