<?xml version="1.0" encoding="utf-8"?>
<!-- Generator: Adobe Illustrator 15.1.0, SVG Export Plug-In . SVG Version: 6.00 Build 0)  -->
<!DOCTYPE svg PUBLIC "-//W3C//DTD SVG 1.1//EN" "http://www.w3.org/Graphics/SVG/1.1/DTD/svg11.dtd">
<svg version="1.1" id="Layer_3" xmlns="http://www.w3.org/2000/svg" xmlns:xlink="http://www.w3.org/1999/xlink" x="0px" y="0px"
	 width="283.46px" height="283.46px" viewBox="0 0 283.46 283.46" enable-background="new 0 0 283.46 283.46" xml:space="preserve">
<g>
	<path fill="none" d="M34.87,236.451h213.719L141.73,51.363L34.87,236.451z M152.583,220.191c-2.672,2.971-6.425,4.541-10.853,4.541
		c-4.49,0-8.142-1.527-10.853-4.541c-2.603-2.893-3.922-6.336-3.922-10.234s1.32-7.342,3.922-10.233
		c2.711-3.013,6.362-4.54,10.853-4.54c4.428,0,8.181,1.57,10.852,4.54c2.603,2.893,3.922,6.335,3.922,10.233
		C156.503,213.856,155.184,217.299,152.583,220.191z M153.772,103.205v4l-0.001,30.231c0,9.073-0.33,17.44-0.98,24.87
		c-0.649,7.401-1.468,14.846-2.431,22.126l-0.461,3.475h-3.505h-9.326h-3.505l-0.46-3.475c-0.968-7.313-1.786-14.758-2.432-22.126
		c-0.65-7.42-0.98-15.787-0.98-24.87v-30.231v-4h4h16.081H153.772z"/>
	<path d="M273.671,230.681L159.268,32.527c-3.607-6.245-10.327-10.125-17.538-10.125c-7.21,0-13.931,3.88-17.538,10.125
		L9.79,230.681c-3.606,6.244-3.606,14.006,0,20.252c3.606,6.246,10.326,10.125,17.538,10.125h228.805
		c7.214,0,13.934-3.879,17.538-10.125C277.278,244.687,277.278,236.925,273.671,230.681z M34.87,236.451L141.73,51.363
		l106.859,185.087H34.87z"/>
	<path d="M141.73,195.183c-4.49,0-8.142,1.527-10.853,4.54c-2.603,2.892-3.922,6.335-3.922,10.233s1.32,7.342,3.922,10.234
		c2.711,3.014,6.362,4.541,10.853,4.541c4.428,0,8.181-1.57,10.853-4.541c2.602-2.892,3.921-6.335,3.921-10.234
		c0-3.898-1.319-7.341-3.922-10.233C149.911,196.753,146.158,195.183,141.73,195.183z"/>
	<path d="M129.691,103.205v4v30.231c0,9.083,0.33,17.45,0.98,24.87c0.646,7.368,1.463,14.813,2.432,22.126l0.46,3.475h3.505h9.326
		h3.505l0.461-3.475c0.963-7.28,1.781-14.725,2.431-22.126c0.65-7.43,0.98-15.797,0.98-24.87l0.001-30.231v-4h-4h-16.081H129.691z"
		/>
</g>
</svg>
