<?xml version="1.0" encoding="utf-8"?>
<!-- Generator: Adobe Illustrator 15.1.0, SVG Export Plug-In . SVG Version: 6.00 Build 0)  -->
<!DOCTYPE svg PUBLIC "-//W3C//DTD SVG 1.1//EN" "http://www.w3.org/Graphics/SVG/1.1/DTD/svg11.dtd">
<svg version="1.1" id="Layer_3" xmlns="http://www.w3.org/2000/svg" xmlns:xlink="http://www.w3.org/1999/xlink" x="0px" y="0px"
	 width="283.46px" height="283.46px" viewBox="0 0 283.46 283.46" enable-background="new 0 0 283.46 283.46" xml:space="preserve">
<g>
	<path fill="none" d="M96.463,32.448L32.448,96.463v90.534l64.015,64.017h90.534l64.017-64.017V96.463l-64.017-64.015H96.463z
		 M129.692,84.967v-4h4h16.081h4v4l-0.001,30.231c0,9.073-0.33,17.44-0.98,24.87c-0.649,7.401-1.468,14.846-2.431,22.126
		l-0.461,3.475h-3.505h-9.326h-3.505l-0.46-3.475c-0.968-7.313-1.786-14.758-2.432-22.126c-0.65-7.42-0.98-15.787-0.98-24.87V84.967
		z M152.583,197.953c-2.672,2.971-6.425,4.541-10.853,4.541c-4.49,0-8.142-1.527-10.853-4.541
		c-2.603-2.893-3.922-6.336-3.922-10.234s1.32-7.342,3.922-10.233c2.711-3.013,6.362-4.54,10.853-4.54
		c4.428,0,8.181,1.57,10.852,4.54c2.603,2.893,3.922,6.335,3.922,10.233C156.504,191.618,155.185,195.061,152.583,197.953z"/>
	<path d="M202.983,12.563L197.5,7.084H85.957L7.084,85.958v111.545l78.873,78.872h111.546l78.872-78.872V85.957L202.983,12.563z
		 M251.013,186.997l-64.017,64.017H96.463l-64.015-64.017V96.463l64.015-64.015h90.534l64.017,64.015V186.997z"/>
	<path d="M141.731,172.945c-4.49,0-8.142,1.527-10.853,4.54c-2.603,2.892-3.922,6.335-3.922,10.233s1.32,7.342,3.922,10.234
		c2.711,3.014,6.362,4.541,10.853,4.541c4.428,0,8.181-1.57,10.853-4.541c2.602-2.892,3.921-6.335,3.921-10.234
		c0-3.898-1.319-7.341-3.922-10.233C149.912,174.515,146.159,172.945,141.731,172.945z"/>
	<path d="M133.104,162.194l0.46,3.475h3.505h9.326h3.505l0.461-3.475c0.963-7.28,1.781-14.725,2.431-22.126
		c0.65-7.43,0.98-15.797,0.98-24.87l0.001-30.231v-4h-4h-16.081h-4v4v30.231c0,9.083,0.33,17.45,0.98,24.87
		C131.317,147.436,132.135,154.88,133.104,162.194z"/>
</g>
</svg>
