<?xml version="1.0" encoding="utf-8"?>
<!-- Generator: Adobe Illustrator 15.1.0, SVG Export Plug-In . SVG Version: 6.00 Build 0)  -->
<!DOCTYPE svg PUBLIC "-//W3C//DTD SVG 1.1//EN" "http://www.w3.org/Graphics/SVG/1.1/DTD/svg11.dtd">
<svg version="1.1" id="Layer_1" xmlns="http://www.w3.org/2000/svg" xmlns:xlink="http://www.w3.org/1999/xlink" x="0px" y="0px"
	 width="283.465px" height="283.465px" viewBox="0 0 283.465 283.465" enable-background="new 0 0 283.465 283.465"
	 xml:space="preserve">
<title>1155</title>
<g>
	<path d="M141.71,7.087c-49.835,0-90.282,50.591-90.282,112.949c0,62.408,66.949,156.342,90.282,156.342
		c23.384,0,90.327-93.935,90.327-156.342C232.037,57.679,191.607,7.087,141.71,7.087z M126.485,198.95
		c-4.084,4.116-18.282-3.498-31.653-17.07c-13.39-13.528-20.915-27.854-16.83-31.987c4.071-4.154,18.257,3.479,31.635,17.025
		C122.995,180.465,130.57,194.783,126.485,198.95z M155.165,198.85c-4.128-4.144,3.498-18.436,17.097-31.971
		c13.561-13.535,27.891-21.154,32.057-16.987c4.129,4.108-3.498,18.407-17.058,31.938
		C173.675,195.364,159.307,202.953,155.165,198.85z"/>
</g>
</svg>
