<?xml version="1.0" encoding="utf-8"?>
<!-- Generator: Adobe Illustrator 15.1.0, SVG Export Plug-In . SVG Version: 6.00 Build 0)  -->
<!DOCTYPE svg PUBLIC "-//W3C//DTD SVG 1.1//EN" "http://www.w3.org/Graphics/SVG/1.1/DTD/svg11.dtd">
<svg version="1.1" id="Layer_1" xmlns:v="https://vecta.io/nano"
	 xmlns="http://www.w3.org/2000/svg" xmlns:xlink="http://www.w3.org/1999/xlink" x="0px" y="0px" width="283.465px"
	 height="283.465px" viewBox="0 0 283.465 283.465" enable-background="new 0 0 283.465 283.465" xml:space="preserve">
<path d="M70.333,169.576H55.397l-4.568-11.021H25.938l-4.163,11.021H7.087l22.441-55.658h16.077L70.333,169.576z M37.771,127.219
	l-8.16,21.625h17.138L37.771,127.219z M124.585,113.918h12.078v55.658h-13.875v-34.765l-15.016,17.463h-2.121l-15.016-17.463v34.765
	H76.761v-55.658h12.078l17.873,20.646L124.585,113.918z M171.819,113.918c20.318,0,30.764,12.648,30.764,27.91
	c0,15.994-10.119,27.748-32.316,27.748h-23.014v-55.658H171.819z M161.128,159.375h9.057c13.955,0,18.117-9.469,18.117-17.631
	c0-9.549-5.143-17.625-18.281-17.625h-8.895L161.128,159.375L161.128,159.375z M230.185,127.115l-17.494-17.496h63.688v63.689
	l-17.494-17.496v-28.697H230.185z M230.165,130.621l-18.012,18.012v25.213h25.209l18.01-18.012h-25.207V130.621z"/>
</svg>
