<?xml version="1.0" encoding="utf-8"?>
<!-- Generator: Adobe Illustrator 15.1.0, SVG Export Plug-In . SVG Version: 6.00 Build 0)  -->
<!DOCTYPE svg PUBLIC "-//W3C//DTD SVG 1.0//EN" "http://www.w3.org/TR/2001/REC-SVG-20010904/DTD/svg10.dtd">
<svg version="1.0" id="Capa_1" xmlns="http://www.w3.org/2000/svg" xmlns:xlink="http://www.w3.org/1999/xlink" x="0px" y="0px"
	 width="283.465px" height="283.465px" viewBox="0 0 283.465 283.465" enable-background="new 0 0 283.465 283.465"
	 xml:space="preserve">
<g>
	<path fill="none" d="M109.383,56.645c-1.634,0-3.015,0.588-4.139,1.763c-1.124,1.177-1.687,2.579-1.687,4.215
		c0,1.64,0.563,3.04,1.687,4.214c1.124,1.18,2.501,1.768,4.139,1.768c1.636,0,3.041-0.586,4.218-1.768
		c1.172-1.174,1.762-2.576,1.765-4.214c0-1.636-0.591-3.035-1.765-4.215C112.424,57.232,111.017,56.645,109.383,56.645z"/>
	<path fill="none" d="M174.081,56.645c-1.637,0-3.042,0.588-4.217,1.763c-1.178,1.177-1.764,2.579-1.764,4.215
		c0,1.64,0.586,3.04,1.764,4.214c1.175,1.18,2.58,1.768,4.217,1.768c1.633,0,3.014-0.586,4.141-1.768
		c1.123-1.174,1.686-2.576,1.686-4.214c0-1.636-0.561-3.035-1.686-4.215C177.095,57.232,175.718,56.645,174.081,56.645z"/>
	<path d="M49.589,96.811c-4.396,0-8.125,1.531-11.189,4.599c-3.066,3.065-4.6,6.743-4.6,11.038v65.926c0,4.4,1.533,8.127,4.6,11.193
		c3.064,3.064,6.795,4.6,11.189,4.6c4.393,0,8.1-1.534,11.118-4.6c3.013-3.065,4.522-6.793,4.522-11.193v-65.926
		c0-4.295-1.533-7.973-4.6-11.038C57.563,98.342,53.883,96.811,49.589,96.811z"/>
	<path d="M176.536,37.629l10.887-20.081c0.713-1.329,0.459-2.349-0.766-3.065c-1.33-0.618-2.352-0.305-3.066,0.918l-11.037,20.24
		c-9.713-4.293-19.984-6.445-30.818-6.445s-21.107,2.152-30.816,6.445L99.881,15.4c-0.717-1.223-1.739-1.533-3.065-0.918
		c-1.229,0.721-1.482,1.736-0.766,3.065l10.887,20.081c-11.039,5.629-19.83,13.469-26.371,23.536
		c-6.541,10.073-9.813,21.08-9.813,33.042h141.813c0-11.958-3.271-22.966-9.813-33.042C196.21,51.098,187.47,43.258,176.536,37.629z
		 M113.601,66.836c-1.177,1.18-2.584,1.768-4.218,1.768c-1.638,0-3.015-0.586-4.139-1.768c-1.124-1.174-1.687-2.574-1.687-4.214
		c0-1.636,0.563-3.038,1.687-4.215c1.124-1.175,2.504-1.763,4.139-1.763c1.636,0,3.041,0.588,4.218,1.763
		c1.174,1.18,1.765,2.579,1.765,4.215C115.362,64.26,114.772,65.662,113.601,66.836z M178.222,66.836
		c-1.127,1.18-2.508,1.768-4.141,1.768c-1.639,0-3.043-0.586-4.219-1.768c-1.176-1.174-1.764-2.574-1.764-4.214
		c0-1.636,0.588-3.038,1.764-4.215c1.176-1.175,2.58-1.763,4.219-1.763c1.637,0,3.014,0.588,4.141,1.763
		c1.123,1.18,1.684,2.579,1.684,4.215C179.905,64.26,179.345,65.662,178.222,66.836z"/>
	<path d="M71.36,201.83c0,4.705,1.635,8.689,4.904,11.958c3.271,3.271,7.254,4.903,11.957,4.903h11.346l0.156,34.807
		c0,4.396,1.532,8.127,4.598,11.193c3.066,3.066,6.748,4.6,11.039,4.6c4.394,0,8.125-1.533,11.19-4.6
		c3.066-3.066,4.599-6.797,4.599-11.193v-34.805h21.158v34.805c0,4.396,1.532,8.127,4.6,11.193c3.066,3.066,6.794,4.6,11.189,4.6
		c4.393,0,8.125-1.533,11.191-4.6c3.064-3.066,4.598-6.797,4.598-11.193v-34.805h11.5c4.6,0,8.529-1.635,11.807-4.902
		c3.27-3.27,4.904-7.253,4.904-11.958V99.721H71.36V201.83z"/>
	<path d="M245.065,101.332c-3.064-3.014-6.797-4.521-11.189-4.521c-4.295,0-7.973,1.51-11.037,4.521
		c-3.066,3.018-4.6,6.725-4.6,11.113v65.927c0,4.399,1.531,8.127,4.6,11.192c3.064,3.065,6.746,4.601,11.037,4.601
		c4.395,0,8.125-1.534,11.189-4.601c3.068-3.065,4.6-6.793,4.6-11.192v-65.927C249.665,108.057,248.134,104.35,245.065,101.332z"/>
</g>
</svg>
