<?xml version="1.0" encoding="utf-8"?>
<!-- Generator: Adobe Illustrator 15.1.0, SVG Export Plug-In . SVG Version: 6.00 Build 0)  -->
<!DOCTYPE svg PUBLIC "-//W3C//DTD SVG 1.1//EN" "http://www.w3.org/Graphics/SVG/1.1/DTD/svg11.dtd">
<svg version="1.1" id="Layer_1" xmlns="http://www.w3.org/2000/svg" xmlns:xlink="http://www.w3.org/1999/xlink" x="0px" y="0px"
	 width="283.465px" height="283.465px" viewBox="0 0 283.465 283.465" enable-background="new 0 0 283.465 283.465"
	 xml:space="preserve">
<g id="Layer_1_1_">
</g>
<g>
	<path d="M193.534,7.086c-29.533,0-44.1,11.772-51.803,41.756c-9.859,38.363,46.152,145.324,3.195,147.105
		c0-86.455-41.84-137.766-58.342-137.766c0.682-9.656-6.465-12.672-6.465-12.672s-2.926,2.139-4.043,6.479
		c-3.602-6.02-7.553-5.266-7.553-5.266l-1.773,11.131c0,0-24.449,12.271-24.781,61.928c2.838,6.479,20.658,11.611,33.313,8.314
		c11.939,0.889,8.98,15.203,6.309,19.045c-11.279,16.211-21.742-5.57-35.109-5.57c-13.369,0-13.369,19.211,0,19.211
		c13.367,0,13.367,19.213,40.105,19.213c-41.359,23.113,0,76.848,0,76.848H73.218c-9.425,0-15.821,9.546-18.774,15.18
		c-0.017,0.03-0.032,0.056-0.05,0.086c-0.459,0.785-1.061,1.773-2.094,2.959c-1.814,2.084,4.467,1.086,7.574,0.986
		c0.154-0.004,0.301-0.008,0.438-0.008c2.902,0,4.631,0.008,2.494-0.979c-2.635-1.217-2.352-5.253-5.253-5.254c0,0,0,0,0.001,0
		c2.902,0,2.619,4.037,5.254,5.254c2.137,0.986,0.408,0.979-2.492,0.979c-0.139,0-0.285,0.004-0.439,0.008
		c16.955,0,59.125,0,80.186,0c40.105,0,62.791-18.406,62.791-65.889c0-16.314-3.918-37.75-7.123-55.912
		c-7.252-32.021-3.426-82.906,1.426-66.949c13.531,44.516,49.855,54.268,49.855-3.369C247.007,41.492,223.065,7.086,193.534,7.086z
		 M72.509,90.865c-2.654,0-4.807-2.154-4.807-4.809c0-0.332,0.034-0.656,0.098-0.969c0.042-0.203,0.116-0.394,0.182-0.586
		c0.036-0.104,0.056-0.215,0.098-0.316c0.102-0.24,0.232-0.463,0.37-0.682c0.027-0.043,0.044-0.092,0.073-0.134
		c0.109-0.161,0.242-0.301,0.369-0.447c0.075-0.087,0.138-0.184,0.219-0.265c0.081-0.081,0.177-0.143,0.263-0.218
		c0.146-0.127,0.287-0.261,0.448-0.37c0.025-0.017,0.055-0.027,0.081-0.044c0.492-0.319,1.042-0.558,1.638-0.68
		c0.313-0.064,0.637-0.098,0.969-0.098c2.656,0,4.809,2.152,4.809,4.809C77.317,88.711,75.165,90.865,72.509,90.865z"/>
</g>
</svg>
