<?xml version="1.0" encoding="utf-8"?>
<!-- Generator: Adobe Illustrator 15.1.0, SVG Export Plug-In . SVG Version: 6.00 Build 0)  -->
<!DOCTYPE svg PUBLIC "-//W3C//DTD SVG 1.1//EN" "http://www.w3.org/Graphics/SVG/1.1/DTD/svg11.dtd">
<svg version="1.1" id="Layer_2" xmlns="http://www.w3.org/2000/svg" xmlns:xlink="http://www.w3.org/1999/xlink" x="0px" y="0px"
	 width="283.465px" height="283.465px" viewBox="0 0 283.465 283.465" enable-background="new 0 0 283.465 283.465"
	 xml:space="preserve">
<path d="M9.983,82.667c0.205,1.147,0.899,2.032,2.063,2.633c0.776,0.402,1.742,0.604,2.867,0.604c4.323,0,10.95-2.972,17.965-6.118
	c7.789-3.494,16.614-7.453,22.879-7.453c1.121,0,2.144,0.129,3.039,0.379c1.565,0.439,13.026,0.408,13.922,0.678
	c-1.817,0.62-14.842,2.362-15.203,5.976c-0.295,2.964-0.899,4.537-1.432,5.925c-0.791,2.066-1.363,3.555-0.283,7.723
	c16.75,2.594,0.354,5.098-0.104,6.938c-0.48,1.92-0.934,3.73,0.131,6.527c0.92,2.41,3.31,7.233,9.496,16.509
	c9.25,0.223,0.162,0.872-0.316,1.827c-0.713,1.431-1.793,3.595,1.139,6.699c1.662,1.762,3.123,2.647,4.191,3.293
	c1.688,1.023,13.998-4.696,1.814,3.771c-0.237,1.477-0.668,2.715-1.052,3.808c-0.543,1.549-0.973,2.778-0.436,3.815
	c0.331,0.639,0.991,1.092,2.012,1.383c1.481,0.422,1.651,1.427,1.847,3.313c0.135,1.314,0.289,2.805,1.229,4.098
	c1.263,1.74,2.748,1.867,4.317,2.002c1.242,0.109,2.653,0.23,4.347,1.184c2.555,1.438,5.452,1.94,8.012,2.383
	c1.509,0.263,2.933,0.508,4.009,0.912c0.497,0.186,5.959-8.898,6.241-8.809c0.668,0.211-4.426,9.412-3.726,10.539
	c0.457,0.73,1.146,1.836,2.341,3.574c0.493,0.719,0.932,1.367,1.332,1.965c2.959,4.396,3.956,5.879,9.129,7.256
	c8.284,2.211,15.916,3.285,23.325,3.285c1.548,0,2.837-0.045,3.871-0.08c0.957-0.033,10.348-5.164,2.179-0.035
	c-0.476,0.551-1.451,1.482-2.539,2.516c-2.215,2.111-5.562,5.306-10.082,10.209c-3.79,4.115-7.308,9.729-5.813,13.135
	c0.469,1.074,1.662,2.355,4.666,2.355c1.687,0,3.81-0.4,6.313-1.191c4.485-1.416,8.436-2.076,12.433-2.076
	c1.697,0,2.218-0.895,3.697-0.787c1.375,0.1,2.027-0.672,3.367-0.672c2.123,0,4.823-3.498,6.731-4.041
	c0.737-0.209,4.556-0.336,5.217-0.336c3.906,0,3.994,8.855,6.496,12.789c1.27,1.994,2.564,4.025,4.119,5.682
	c0.885,10.732,1.694,24.346,1.688,33.902c-1.148-0.1-2.141-0.389-2.947-0.885l-0.742-0.459c-1.949-1.211-3.086-1.896-3.799-1.896
	c-0.388,0-0.711,0.191-0.867,0.512c-0.287,0.59-0.065,1.33,1.974,3.939c1.934,2.477,4.262,3.943,6.229,4.813
	c-0.177,2.937,0.692,7.666,0.139,8.254c-5.558,5.885-7.597,4.752-7.229,5.773c0.147,0.412,0.51,0.682,0.992,0.742
	c0.979,0.119,2.446-0.521,3.989-1.213c1.305-0.59,2.787-1.266,3.564-1.184c0.484,0.055,0.691,0.223,1.104,0.557
	c0.787,0.639,1.867,1.514,5.304,1.926c5.598,0.672,9.373,1.65,12.328,2.52c1.789,0.525,3.598,1.182,4.918,1.752
	c1.252,0.539,1.627,0.568,1.936,0.568h0.476l0.243-0.322c0.063-0.137,0.177-0.438-0.162-0.834c-1.59-1.859-5.213-4.285-9.723-5.574
	c-1.558-0.442-2.347-0.776-2.74-0.998c0.437-0.135,1.306-0.307,3.004-0.428c2.781-0.199,7.195-0.566,10.789-0.953
	c7.457-0.798,7.477-1.129,7.523-1.859c0.032-0.497-0.313-0.823-1.023-0.965c-0.174-0.035-0.414-0.084-0.713-0.147
	c-2.463-0.519-9.006-1.899-14.414-1.899c-1.289,0-2.45,0.08-3.453,0.235c-0.894,0.14-1.602,0.151-1.872,0.104
	c0.224-0.406,0.913-1.107,1.198-1.398c0.658-0.672,1.024-1.041,0.795-1.586c-0.125-0.294-0.414-0.482-0.752-0.482
	c-1.655,0.098-3.75,1.621-5.278,2.732c-0.254,0.186-4.338,0.92-4.578,1.086c-0.916-3.865,2.242-25.873,2.01-40.91
	c2.355,0.801,4.916,1.373,7.654,1.373c2.107,0,4.176-0.343,6.219-1.023c3.334,5.215,6.785,10.729,9.537,15.332
	c-0.492-0.004-0.964-0.061-1.402-0.174l-0.84-0.221c-1.489-0.395-2.895-0.766-3.686-0.766c-0.818,0-1.074,0.426-1.154,0.682
	c-0.215,0.686,0.166,1.33,3.012,3.316c2.529,1.766,5.148,2.5,7.314,2.764c1.385,2.508,4.584,5.422,4.662,5.994
	c0.506,3.703-4.492,2.539-5.855,3.959c-1.334,1.389-2.004,2.086-1.686,2.834c0.094,0.223,0.355,0.592,1.055,0.592
	c0.983,0,2.088-0.379,3.26-0.779c1.32-0.451,2.687-0.918,4.006-0.918c0.238,0,0.473,0.019,0.693,0.049
	c2.715,0.388,13.25,5.609,15.434,6.955c1.1,0.678,2.145,1.642,2.984,2.414c1.006,0.928,1.465,1.353,1.992,1.353
	c0.271,0,0.52-0.123,0.682-0.334c0.274-0.362,0.221-0.83,0.06-1.431c-1.07-3.918-4.693-6.496-6.857-8.037
	c-0.137-0.096-0.275-0.194-0.414-0.295c0.334-0.004,0.645-0.008,0.943-0.014c2.366-0.041,4.252-0.02,11.908,1.043
	c2.004,0.279,3.429,0.414,4.362,0.414c0.553,0,1.705,0,1.872-0.873c0.158-0.826-0.367-1.453-5.859-3.648
	c-1.925-0.768-5.483-1.461-8.924-2.129c-2.113-0.41-4.841-0.94-6.169-1.356c3.483-2.129,3.644-2.787,3.476-3.408
	c-0.076-0.272-0.336-0.729-1.236-0.729c-0.338,0-0.778,0.057-1.348,0.172c-1.148,0.232-2.287,0.748-3.293,1.201
	c-0.874,0.395-1.778,0.803-2.271,0.803c-0.088,0-2.906,1.004-2.924,0.988c-0.828-0.907-7.082-17.631-14.59-30.853
	c1.047-0.883,2.094-1.856,3.141-2.932c1.823-1.875,4.211-4.259,6.979-7.017c16.836-16.793,48.178-48.049,50.129-63.326
	c2.526-19.803,0.971-37.758-4.164-48.026c-2.293-4.588-4.34-7.791-5.836-10.129c-1.231-1.925-14.261-18.445-14.113-18.986
	c0.023-0.084,11.604,10.693,11.781,10.604c1.139-0.568,8.141-1.207,8.584-8.525c0.159-2.627,0.425-4.817,0.638-6.578
	c0.402-3.303,0.641-5.369-0.243-6.701c1.39,0.481,2.718,1.399,3.793,3.638c0.273,0.569,0.68,0.653,0.898,0.653
	c0.263,0,0.51-0.119,0.695-0.338c0.689-0.817,0.721-3.677,0.354-5.861c-0.306-1.821-3.647-4.318-4.116-5.74
	c1.891-1.165,5.735-2.624,5.913-5.6c0.082-1.364,0.209-2.864,0.344-4.45c0.598-7.019,0.862-11.384-0.479-12.843
	c-0.537-0.586-1.319-0.694-2.141-0.264c-0.556,0.291-0.91,0.677-1.195,0.99c-0.406,0.446-0.57,0.831-0.738,1.21
	c-0.051,0.114-1.219,2.515-1.368,2.497c-0.474-0.22-0.065-5.908-0.05-7.039c0.035-2.484,0.063-4.445-1.344-4.656
	c-0.068-0.011-0.141-0.017-0.211-0.017c-1.192,0-2.324,1.439-3.637,3.101c-0.633,0.799-1.571,2.67-2.054,2.89
	c-0.449-0.546-1.266-3.433-1.754-4.996c-1.298-4.158-2.173-6.707-3.714-6.707c-1.688,0-2.066,2.399-2.464,4.94
	c-0.123,0.789,0.393,4.725,0.199,5.309c-0.438-0.682-1.822-4.982-2.404-6.209c-2.34-4.928-4.156-8.416-6.227-8.416
	c-1.012,0-1.552,0.438-1.824,0.805c-0.914,1.224-0.279,3.349,0.332,5.402c0.154,0.521,1.916,4.751,2.025,5.275
	c-0.752-0.621-3.492-5.354-4.497-6.365c-3.448-3.471-6.024-5.926-7.786-5.926c-0.289,0-0.558,0.064-0.789,0.188
	c-0.429,0.232-0.703,0.599-0.797,1.062c-0.289,1.414,1.202,3.418,3.344,6.094c0.367,0.461,5.474,7.726,5.821,8.197
	c-0.62-0.258-6.062-7.326-6.743-7.635c-2.768-1.254-6.212-2.816-8.398-2.816c-0.902,0-1.572,0.264-1.994,0.785
	c-0.45,0.553-0.568,1.349-0.354,2.365c1.201,5.659,12.051,12.125,17.041,15.154c-0.592,0.433-4.674,0.391-6.004,1.079
	c-6.125,3.171-18.871,9.77-27.703,23.695c-4.991,7.871-8.679,16.219-11.933,23.584c-5.248,11.881-9.781,22.141-17.807,26.748
	c-11.857,6.807-27.248,9.688-31.375,9.688c-0.354,0-0.539-0.021-0.621-0.037c-0.736-0.799-3.761-6.449-6.693-11.918
	c-5.584-10.422-12.534-23.393-16.18-27.344c-0.438-0.475-0.955-1.057-1.554-1.727c-6.885-7.748-25.179-28.326-51.614-28.326
	c-1.892,0-3.815,0.106-5.718,0.316c-28.969,3.194-49.993,10.49-49.993,17.346c0,1.326,1.506,2.371,3.727,5.361
	c1.805,2.433,32.973-13.434,34.625-14.061c2.019,7.742-29.74,15.736-30.127,16.156C16.368,74.848,9.307,78.852,9.983,82.667z"/>
</svg>
