<?xml version="1.0" encoding="utf-8"?>
<!-- Generator: Adobe Illustrator 15.1.0, SVG Export Plug-In . SVG Version: 6.00 Build 0)  -->
<!DOCTYPE svg PUBLIC "-//W3C//DTD SVG 1.1//EN" "http://www.w3.org/Graphics/SVG/1.1/DTD/svg11.dtd">
<svg version="1.1" id="Layer_5" xmlns="http://www.w3.org/2000/svg" xmlns:xlink="http://www.w3.org/1999/xlink" x="0px" y="0px"
	 width="283.465px" height="283.465px" viewBox="0 0 283.465 283.465" enable-background="new 0 0 283.465 283.465"
	 xml:space="preserve">
<g>
	<path d="M127.194,58.506h0.078c0.158-0.008,0.318-0.021,0.477-0.026L127.194,58.506z"/>
	<path d="M257.821,9.629c-0.605-0.217-14.988-5.209-33.893-0.588c-16.385,4.004-39.369,16.242-57.725,51.449
		c-3.602-1.334-7.17-1.871-10.49-2.011l-28.443,0.026c-3.184,0.172-6.582,0.713-10.012,1.984
		C98.903,25.283,75.919,13.047,59.534,9.041C40.63,4.42,26.245,9.412,25.643,9.629c-2.447,0.871-3.981,3.318-3.675,5.897
		c0.31,2.58,2.346,4.601,4.929,4.872c0.088,0.01,8.946,1.118,20.86,8.67c10.627,6.738,25.848,20.084,39.084,45.643
		c-4.738-3.27-10.27-5.707-16.232-7.047c-8.574-1.933-17.277-1.344-24.506,1.657c-7.6,3.155-13.121,8.726-15.551,15.687
		c-0.002,0.01-0.006,0.021-0.01,0.031c-0.009,0.024-0.017,0.051-0.024,0.078c-0.488,1.42-0.851,2.911-1.074,4.441
		c-1.173,8.109,1.636,16.506,7.912,23.641c5.952,6.768,14.407,11.659,23.806,13.773c3.322,0.749,6.646,1.117,9.895,1.117
		c4.836,0,9.494-0.818,13.693-2.416c0.066,0.693,0.135,1.384,0.215,2.08c0,0.008,0,0.018,0.002,0.024
		c0,0.011,0.002,0.021,0.002,0.031c1.199,10.366,3.934,20.979,7.699,29.878c1.631,3.857,3.244,7.396,4.67,10.521
		c5.471,12.002,8.01,18.029,5.957,23.813c-5.043,14.213,1.576,23.609,7.99,29.719c0.451,8.211,3.768,33.635,27.045,53.33
		c0.982,0.832,2.182,1.264,3.393,1.307v0.002c0.004,0,0.008,0,0.012,0s0.008,0,0.012,0v-0.002c1.211-0.043,2.412-0.475,3.395-1.307
		c23.275-19.695,26.592-45.119,27.043-53.33c6.416-6.107,13.035-15.506,7.99-29.719c-2.053-5.783,0.486-11.811,5.957-23.813
		c1.426-3.125,3.039-6.664,4.668-10.521c3.766-8.898,6.5-19.512,7.699-29.878c0.002-0.011,0.002-0.021,0.004-0.031
		c0-0.008,0.002-0.017,0.002-0.024c0.08-0.695,0.146-1.387,0.213-2.08c4.199,1.598,8.857,2.416,13.693,2.416
		c3.248,0,6.572-0.368,9.896-1.117c9.398-2.114,17.854-7.006,23.805-13.773c6.275-7.135,9.086-15.531,7.912-23.641
		c-0.225-1.53-0.586-3.021-1.072-4.441c-0.01-0.027-0.018-0.053-0.025-0.078c-0.004-0.011-0.008-0.021-0.01-0.031
		c-2.432-6.961-7.951-12.531-15.551-15.687c-7.229-3.001-15.934-3.59-24.508-1.657c-5.963,1.34-11.494,3.777-16.23,7.047
		c13.236-25.559,28.455-38.904,39.082-45.643c11.914-7.552,20.773-8.66,20.859-8.67c2.584-0.271,4.621-2.292,4.93-4.872
		C261.802,12.947,260.267,10.5,257.821,9.629z M63.603,116.117c-14.049-3.16-24.648-14.594-23.148-24.957
		c0.045-0.302,0.108-0.596,0.172-0.891c2.797-1.707,5.67-2.197,8.922-1.533c11.18,2.28,23.225,17.391,29.625,27.092
		C74.534,117.228,69.112,117.358,63.603,116.117z M85.001,104.736c-1.379-1.904-2.928-3.941-4.625-6.016
		c-9.002-10.998-17.844-17.809-26.322-20.303c4.236-0.998,9.109-1.029,14.111,0.099c8.443,1.899,15.885,6.802,20.012,13.041
		C86.702,95.617,85.642,100.021,85.001,104.736z M52.681,18.983c1.367,0.229,2.771,0.515,4.211,0.866
		c19.787,4.835,37,20.324,50.047,44.928l-10.732,3.832C82.128,41.793,65.819,27.053,52.681,18.983z M142.079,263.115v0.023
		c-0.061-0.061-0.119-0.121-0.18-0.182c-0.061,0.061-0.119,0.121-0.18,0.182v-0.023c-10.896-10.707-15.676-22.637-17.768-31.338
		c2.568,1.914,4.953,3.771,6.873,5.666c1.041,1.027,2.443,1.604,3.908,1.604h6.986h0.023h0.061h0.191h0.063h0.023h6.986
		c1.463,0,2.867-0.576,3.908-1.604c1.92-1.895,4.303-3.752,6.871-5.666C157.757,240.479,152.976,252.408,142.079,263.115z
		 M188.069,124.729c0,0.001,0,0.002,0,0.004c-0.002,0.021-0.004,0.042-0.006,0.063c-0.006,0.051-0.012,0.102-0.016,0.152
		c-0.078,0.776-0.178,1.533-0.299,2.271c-0.076,0.488-0.154,0.974-0.244,1.453c-0.834,6.072-2.229,12.16-4.061,17.791
		c0,0.002,0,0.002,0,0.004c0,0-0.002,0-0.002,0.002c-0.777,2.391-1.633,4.697-2.557,6.887c-1.57,3.715-3.084,7.031-4.545,10.238
		c-5.787,12.695-9.969,21.867-6.318,32.15c2.621,7.387,0.752,12.797-6.668,19.297c-2.408,2.104-5.201,4.16-7.9,6.146
		c-2.924,2.15-5.928,4.361-8.584,6.732h-4.791h-0.023h-0.063h-0.191h-0.061h-0.023h-4.793c-2.656-2.371-5.66-4.582-8.582-6.732
		c-2.701-1.986-5.494-4.043-7.902-6.146c-7.42-6.5-9.289-11.91-6.668-19.297c3.65-10.283-0.529-19.455-6.316-32.15
		c-1.463-3.207-2.975-6.523-4.545-10.238c-0.926-2.188-1.779-4.496-2.557-6.887c0-0.002-0.002-0.002-0.002-0.002
		c0-0.002,0-0.002,0-0.004c-1.83-5.631-3.227-11.719-4.061-17.791c-0.088-0.479-0.168-0.965-0.242-1.453
		c-0.123-0.738-0.223-1.496-0.299-2.271c-0.006-0.051-0.012-0.102-0.018-0.152c-0.002-0.021-0.004-0.041-0.006-0.063
		c0-0.001,0-0.002,0-0.004c-1.293-12.294,1.346-25.874,3.734-31.491c0.02-0.048,0.041-0.097,0.059-0.146
		c0.209-0.491,0.404-0.92,0.59-1.311c0.021-0.044,0.037-0.09,0.057-0.135c0.047-0.104,0.092-0.208,0.133-0.314
		c0.027-0.07,0.049-0.143,0.074-0.215c0.031-0.1,0.063-0.199,0.092-0.301c0.021-0.083,0.041-0.165,0.059-0.248
		c0.02-0.091,0.039-0.184,0.055-0.277s0.027-0.188,0.039-0.283c0.01-0.082,0.018-0.166,0.023-0.25
		c0.006-0.105,0.01-0.211,0.01-0.315c0.002-0.075,0.002-0.151,0-0.228c-0.002-0.113-0.012-0.228-0.021-0.34
		c-0.004-0.047-0.004-0.096-0.01-0.146l-1.111-9.487l17.104-6.107c0.088-0.031,0.172-0.071,0.258-0.107
		c0.061-0.025,0.123-0.048,0.184-0.076c0.031-0.014,0.064-0.025,0.094-0.039l0,0c0.004-0.002,0.01-0.006,0.014-0.008
		c0.168-0.08,0.33-0.168,0.484-0.263c0.014-0.009,0.025-0.019,0.039-0.027c0.008-0.003,0.014-0.006,0.02-0.01
		c0.219-0.138,0.439-0.269,0.66-0.396c0.068-0.039,0.137-0.076,0.205-0.113c0.156-0.088,0.313-0.172,0.469-0.252
		c0.076-0.041,0.152-0.079,0.229-0.117c0.162-0.081,0.322-0.158,0.482-0.232c0.064-0.031,0.129-0.062,0.191-0.091
		c0.225-0.101,0.447-0.196,0.67-0.289c0.033-0.013,0.064-0.024,0.098-0.038c0.193-0.076,0.387-0.15,0.58-0.221
		c0.072-0.027,0.148-0.053,0.223-0.079c0.156-0.054,0.313-0.106,0.469-0.157c0.078-0.025,0.154-0.05,0.232-0.072
		c0.168-0.053,0.336-0.102,0.506-0.148c0.059-0.018,0.119-0.034,0.178-0.05c0.227-0.062,0.451-0.117,0.678-0.171
		c0.051-0.01,0.102-0.021,0.15-0.032c0.18-0.04,0.357-0.078,0.537-0.114c0.076-0.015,0.154-0.029,0.232-0.044
		c0.156-0.03,0.313-0.058,0.469-0.083c0.078-0.013,0.156-0.025,0.232-0.038c0.18-0.028,0.357-0.053,0.537-0.077
		c0.051-0.006,0.1-0.014,0.148-0.02c0.227-0.029,0.453-0.055,0.68-0.077c0.063-0.006,0.123-0.011,0.186-0.017
		c0.168-0.016,0.336-0.03,0.506-0.043c0.078-0.006,0.158-0.01,0.234-0.016c0.158-0.01,0.316-0.019,0.473-0.027
		c0.076-0.002,0.148-0.006,0.223-0.01c0.197-0.009,0.391-0.016,0.586-0.02c0.031-0.001,0.064-0.002,0.094-0.003
		c0.229-0.005,0.453-0.007,0.68-0.007c0.018,0,0.035,0,0.053,0c0.039,0,0.076,0,0.115,0c0.213,0.002,0.428,0.004,0.641,0.008
		c0.061,0.001,0.121,0.002,0.182,0.003c0.252,0.006,0.506,0.015,0.756,0.024c0.047,0,0.092,0.004,0.137,0.006
		c0.217,0.01,0.434,0.021,0.648,0.031c0.063,0.004,0.125,0.008,0.188,0.012c0.25,0.015,0.5,0.031,0.748,0.048
		c0.033,0.002,0.066,0.005,0.1,0.007c0.227,0.018,0.451,0.034,0.676,0.052c0.059,0.005,0.117,0.011,0.176,0.015
		c0.25,0.021,0.498,0.043,0.746,0.064c0.012,0.001,0.023,0.002,0.037,0.003c0.24,0.022,0.48,0.044,0.721,0.066
		c0.066,0.006,0.133,0.013,0.201,0.019c0.23,0.022,0.463,0.045,0.691,0.066l3.852-0.355c0.045-0.013,0.094-0.023,0.146-0.033
		c0.018-0.002,0.035-0.004,0.053-0.008c0.037-0.006,0.074-0.011,0.113-0.016c0.023-0.002,0.049-0.004,0.072-0.006
		c0.039-0.004,0.078-0.006,0.117-0.008c0.027,0,0.057-0.002,0.086-0.002c0.016,0,0.031,0,0.049,0c0.045,0,0.092,0,0.141,0.002h0.746
		c0.025,0,0.049,0,0.074-0.002v-0.004c0.029,0,0.064,0.002,0.094,0.002c0.031,0,0.066-0.002,0.098-0.002v0.004
		c0.023,0.002,0.047,0.002,0.072,0.002h0.746c0.049-0.002,0.096-0.002,0.143-0.002c0.018,0,0.031,0,0.049,0
		c0.029,0,0.059,0.002,0.086,0.002c0.039,0.002,0.078,0.004,0.115,0.008c0.023,0.002,0.051,0.004,0.072,0.006
		c0.039,0.004,0.076,0.01,0.113,0.016c0.018,0.004,0.037,0.006,0.055,0.008c0.053,0.011,0.102,0.021,0.146,0.033l3.85,0.355
		c0.23-0.021,0.463-0.044,0.695-0.066c0.066-0.006,0.131-0.012,0.197-0.019c0.238-0.023,0.48-0.046,0.723-0.067
		c0.012-0.001,0.025-0.002,0.037-0.003c0.246-0.022,0.494-0.043,0.744-0.063c0.059-0.006,0.117-0.01,0.178-0.016
		c0.223-0.018,0.447-0.035,0.672-0.051c0.033-0.003,0.068-0.005,0.104-0.008c0.248-0.018,0.496-0.034,0.746-0.049
		c0.063-0.004,0.125-0.006,0.188-0.01c0.215-0.013,0.43-0.022,0.646-0.033c0.047-0.002,0.094-0.004,0.139-0.006
		c0.252-0.01,0.504-0.018,0.758-0.023c0.061-0.001,0.119-0.002,0.18-0.003c0.215-0.005,0.428-0.007,0.643-0.007
		c0.037,0,0.076-0.002,0.115-0.002c0.018,0,0.033,0,0.053,0c0.225,0,0.451,0.002,0.678,0.008c0.031,0,0.063,0.002,0.096,0.003
		c0.193,0.004,0.391,0.011,0.584,0.019c0.074,0.004,0.148,0.008,0.225,0.012c0.156,0.008,0.314,0.017,0.473,0.027
		c0.078,0.004,0.156,0.01,0.234,0.016c0.17,0.013,0.34,0.027,0.512,0.043c0.061,0.005,0.119,0.01,0.178,0.016
		c0.229,0.023,0.457,0.048,0.686,0.077c0.045,0.006,0.092,0.013,0.137,0.019c0.184,0.024,0.365,0.051,0.549,0.08
		c0.076,0.012,0.15,0.023,0.227,0.036c0.158,0.026,0.318,0.056,0.479,0.084c0.074,0.015,0.148,0.028,0.225,0.043
		c0.184,0.036,0.365,0.075,0.547,0.116c0.047,0.011,0.096,0.02,0.143,0.031c0.229,0.053,0.453,0.109,0.682,0.171
		c0.057,0.016,0.113,0.032,0.172,0.048c0.17,0.047,0.342,0.098,0.512,0.15c0.076,0.022,0.154,0.047,0.229,0.072
		c0.158,0.051,0.314,0.104,0.475,0.158c0.072,0.025,0.145,0.051,0.219,0.077c0.195,0.071,0.391,0.146,0.584,0.224
		c0.031,0.012,0.064,0.022,0.094,0.035c0.225,0.092,0.447,0.188,0.67,0.289c0.064,0.029,0.129,0.061,0.191,0.089
		c0.162,0.076,0.322,0.153,0.482,0.233c0.076,0.039,0.152,0.078,0.229,0.117c0.156,0.08,0.314,0.166,0.469,0.252
		c0.068,0.039,0.139,0.076,0.205,0.115c0.221,0.125,0.441,0.256,0.66,0.395c0.008,0.003,0.012,0.006,0.02,0.01
		c0.014,0.01,0.025,0.02,0.039,0.027c0.156,0.095,0.318,0.183,0.484,0.263c0.004,0.002,0.008,0.005,0.014,0.007l0,0
		c0.029,0.014,0.063,0.026,0.096,0.041c0.059,0.026,0.121,0.049,0.182,0.075c0.086,0.036,0.17,0.076,0.258,0.106l17.104,6.107
		l-1.111,9.488c-0.004,0.049-0.004,0.097-0.008,0.146c-0.01,0.112-0.02,0.226-0.023,0.34c-0.002,0.076,0,0.15,0,0.227
		c0.002,0.105,0.004,0.21,0.012,0.316c0.006,0.084,0.014,0.166,0.023,0.25c0.01,0.094,0.021,0.188,0.039,0.283
		c0.016,0.092,0.035,0.186,0.055,0.276c0.02,0.083,0.037,0.165,0.059,0.248c0.027,0.103,0.061,0.202,0.094,0.301
		c0.023,0.072,0.047,0.144,0.074,0.216c0.039,0.105,0.084,0.209,0.131,0.313c0.02,0.045,0.035,0.09,0.057,0.135
		c0.188,0.39,0.381,0.819,0.592,1.31c0.018,0.049,0.037,0.099,0.059,0.146C186.726,98.854,189.364,112.435,188.069,124.729z
		 M243.175,90.27c0.063,0.294,0.127,0.588,0.172,0.891c1.5,10.364-9.102,21.797-23.148,24.957c-5.51,1.24-10.932,1.11-15.568-0.289
		c6.398-9.701,18.441-24.812,29.623-27.092C237.505,88.072,240.378,88.563,243.175,90.27z M215.634,78.517
		c5.004-1.128,9.877-1.095,14.111-0.099c-8.479,2.494-17.318,9.305-26.32,20.303c-1.697,2.072-3.248,4.111-4.627,6.016
		c-0.639-4.715-1.699-9.119-3.176-13.179C199.751,85.319,207.19,80.416,215.634,78.517z M187.595,68.609l-10.732-3.832
		c13.047-24.604,30.26-40.092,50.047-44.928c1.438-0.354,2.844-0.637,4.211-0.866C217.981,27.053,201.673,41.793,187.595,68.609z"/>
	<path d="M122.214,70.547c0.168-0.053,0.338-0.102,0.506-0.148C122.552,70.445,122.382,70.494,122.214,70.547z"/>
	<path d="M121.513,70.776c0.156-0.054,0.313-0.106,0.469-0.157C121.825,70.67,121.669,70.723,121.513,70.776z"/>
	<path d="M124.495,69.987c0.158-0.03,0.313-0.058,0.471-0.083C124.808,69.93,124.653,69.957,124.495,69.987z"/>
	<path d="M123.728,70.145c0.18-0.04,0.357-0.078,0.535-0.114C124.085,70.066,123.907,70.104,123.728,70.145z"/>
	<path d="M122.897,70.349c0.227-0.062,0.453-0.118,0.68-0.171C123.349,70.231,123.124,70.287,122.897,70.349z"/>
	<path d="M119.944,71.402c0.223-0.102,0.445-0.197,0.67-0.289C120.39,71.205,120.167,71.303,119.944,71.402z"/>
	<path d="M117.706,72.604c0.219-0.138,0.438-0.269,0.66-0.396C118.146,72.336,117.925,72.467,117.706,72.604z"/>
	<path d="M125.198,69.866c0.178-0.028,0.357-0.053,0.537-0.077C125.556,69.813,125.376,69.838,125.198,69.866z"/>
	<path d="M119.269,71.726c0.16-0.081,0.32-0.158,0.482-0.233C119.591,71.568,119.429,71.646,119.269,71.726z"/>
	<path d="M118.573,72.096c0.154-0.088,0.311-0.172,0.467-0.252C118.884,71.924,118.728,72.008,118.573,72.096z"/>
	<path d="M120.71,71.076c0.193-0.076,0.387-0.15,0.58-0.221C121.097,70.926,120.903,71,120.71,71.076z"/>
	<path d="M143.206,69.558c0.023,0.002,0.051,0.004,0.074,0.006C143.257,69.562,143.229,69.56,143.206,69.558z"/>
	<path d="M160.222,70.178c0.229,0.054,0.453,0.111,0.682,0.172C160.677,70.287,160.45,70.23,160.222,70.178z"/>
	<path d="M159.534,70.03c0.182,0.036,0.363,0.075,0.547,0.116C159.897,70.105,159.716,70.066,159.534,70.03z"/>
	<path d="M158.831,69.903c0.158,0.026,0.318,0.056,0.479,0.084C159.149,69.957,158.989,69.93,158.831,69.903z"/>
	<path d="M161.817,70.619c0.156,0.051,0.313,0.104,0.473,0.158C162.132,70.723,161.974,70.67,161.817,70.619z"/>
	<path d="M158.056,69.787c0.184,0.024,0.365,0.051,0.549,0.079C158.423,69.838,158.239,69.812,158.056,69.787z"/>
	<path d="M162.509,70.854c0.195,0.071,0.391,0.146,0.584,0.224C162.897,71,162.704,70.926,162.509,70.854z"/>
	<path d="M164.761,71.844c0.156,0.08,0.313,0.166,0.467,0.252C165.073,72.008,164.917,71.924,164.761,71.844z"/>
	<path d="M157.235,69.691c0.229,0.023,0.457,0.048,0.686,0.077C157.692,69.74,157.464,69.715,157.235,69.691z"/>
	<path d="M125.882,69.769c0.229-0.029,0.455-0.054,0.682-0.077C126.337,69.715,126.11,69.74,125.882,69.769z"/>
	<path d="M163.185,71.114c0.227,0.091,0.449,0.188,0.672,0.289C163.634,71.303,163.411,71.205,163.185,71.114z"/>
	<path d="M164.048,71.492c0.162,0.076,0.322,0.153,0.482,0.233C164.37,71.646,164.21,71.568,164.048,71.492z"/>
	<path d="M165.433,72.209c0.223,0.127,0.441,0.258,0.66,0.396C165.876,72.467,165.655,72.336,165.433,72.209z"/>
	<path d="M151.726,69.625c0.217-0.013,0.432-0.022,0.646-0.033C152.157,69.602,151.942,69.612,151.726,69.625z"/>
	<path d="M152.511,69.586c0.252-0.01,0.504-0.018,0.758-0.023C153.015,69.568,152.763,69.576,152.511,69.586z"/>
	<path d="M153.448,69.559c0.213-0.004,0.428-0.006,0.641-0.008C153.876,69.553,153.661,69.555,153.448,69.559z"/>
	<path d="M155.03,69.561c0.193,0.004,0.391,0.011,0.586,0.02C155.421,69.571,155.224,69.564,155.03,69.561z"/>
	<path d="M154.257,69.551c0.227,0,0.451,0.002,0.678,0.007C154.708,69.553,154.483,69.551,154.257,69.551z"/>
	<path d="M149.095,69.821c0.248-0.022,0.496-0.043,0.744-0.063C149.591,69.777,149.343,69.799,149.095,69.821z"/>
	<path d="M156.546,69.633c0.17,0.014,0.34,0.027,0.512,0.043C156.886,69.66,156.716,69.646,156.546,69.633z"/>
	<path d="M155.839,69.59c0.156,0.009,0.314,0.018,0.473,0.027C156.153,69.606,155.995,69.598,155.839,69.59z"/>
	<path d="M150.792,69.684c0.248-0.018,0.496-0.034,0.746-0.049C151.288,69.649,151.04,69.666,150.792,69.684z"/>
	<path d="M150.017,69.742c0.223-0.018,0.447-0.035,0.672-0.051C150.464,69.707,150.239,69.725,150.017,69.742z"/>
	<path d="M161.075,70.397c0.17,0.047,0.342,0.097,0.512,0.149C161.417,70.494,161.245,70.444,161.075,70.397z"/>
	<path d="M129.712,69.551c0.213,0.002,0.426,0.004,0.641,0.008C130.138,69.555,129.925,69.553,129.712,69.551z"/>
	<path d="M130.532,69.562c0.252,0.006,0.506,0.015,0.756,0.024C131.038,69.576,130.784,69.568,130.532,69.562z"/>
	<path d="M147.442,69.977c0.23-0.021,0.463-0.044,0.695-0.066C147.905,69.932,147.673,69.955,147.442,69.977z"/>
	<path d="M127.489,69.617c0.158-0.01,0.314-0.019,0.473-0.027C127.804,69.598,127.647,69.606,127.489,69.617z"/>
	<path d="M128.185,69.58c0.195-0.009,0.391-0.016,0.586-0.02C128.575,69.564,128.38,69.571,128.185,69.58z"/>
	<path d="M128.864,69.558c0.227-0.005,0.453-0.007,0.678-0.007C129.317,69.551,129.091,69.553,128.864,69.558z"/>
	<path d="M140.521,69.563c0.023-0.002,0.049-0.004,0.072-0.006C140.569,69.56,140.544,69.562,140.521,69.563z"/>
	<path d="M131.427,69.592c0.217,0.011,0.434,0.021,0.648,0.033C131.858,69.612,131.642,69.602,131.427,69.592z"/>
	<path d="M133.108,69.69c0.227,0.017,0.451,0.034,0.676,0.052C133.56,69.725,133.335,69.707,133.108,69.69z"/>
	<path d="M148.337,69.892c0.238-0.022,0.48-0.046,0.723-0.067C148.817,69.846,148.575,69.869,148.337,69.892z"/>
	<path d="M132.261,69.635c0.25,0.016,0.5,0.031,0.75,0.049C132.761,69.666,132.511,69.649,132.261,69.635z"/>
	<path d="M135.663,69.91c0.232,0.021,0.465,0.043,0.693,0.065C136.126,69.955,135.896,69.932,135.663,69.91z"/>
	<path d="M134.741,69.824c0.242,0.021,0.482,0.045,0.723,0.066C135.224,69.869,134.983,69.846,134.741,69.824z"/>
	<path d="M181.784,94.11c-0.188-0.437-0.359-0.817-0.525-1.167c-0.004-0.005-0.006-0.011-0.008-0.018
		c-0.033-0.069-0.064-0.139-0.092-0.211c-0.049-0.111-0.113-0.258-0.176-0.422c-0.045-0.115-0.08-0.225-0.117-0.334
		c-0.041-0.131-0.09-0.279-0.135-0.445c-0.031-0.122-0.061-0.24-0.086-0.358c-0.031-0.146-0.061-0.278-0.082-0.414
		c-0.023-0.137-0.043-0.272-0.061-0.432c-0.014-0.125-0.027-0.253-0.035-0.384c-0.008-0.129-0.014-0.279-0.016-0.459v-0.023
		c-0.002-0.1-0.002-0.197,0.002-0.298c0.004-0.179,0.016-0.337,0.025-0.472c0.006-0.088,0.012-0.168,0.021-0.25l0.863-7.367
		l-15.086-5.387c-0.121-0.043-0.232-0.088-0.342-0.137l-0.049-0.021l-0.037-0.014c-0.061-0.024-0.121-0.05-0.182-0.076
		c-0.027-0.012-0.055-0.022-0.08-0.035c-0.021-0.008-0.045-0.02-0.068-0.029c-0.033-0.016-0.068-0.033-0.104-0.053
		c-0.234-0.114-0.461-0.237-0.672-0.367c-0.012-0.008-0.023-0.014-0.035-0.021c-0.016-0.01-0.031-0.02-0.047-0.029
		c0-0.002-0.002-0.002-0.002-0.002c-2.869-1.803-6.191-2.643-10.457-2.643c-2.205,0-4.391,0.211-6.504,0.414
		c-0.086,0.008-0.172,0.012-0.258,0.012c-0.082,0-0.166-0.002-0.248-0.011l-3.852-0.354c-0.127-0.012-0.254-0.033-0.381-0.063
		c-0.002,0-0.006,0-0.008,0l-0.047,0.001c-0.031,0.001-0.063,0.001-0.094,0.001l-0.744,0.001h-0.002c-0.029,0-0.059,0-0.088-0.001
		l-0.023-0.001l-0.051-0.001c-0.002,0-0.004,0-0.008,0c-0.002,0-0.002,0-0.004,0l-0.053,0.001l-0.021,0.001
		c-0.029,0.001-0.061,0.001-0.09,0.001h-0.002l-0.746-0.001c-0.029,0-0.061,0-0.092-0.001l-0.045-0.001c-0.004,0-0.006,0-0.01,0
		c-0.125,0.03-0.252,0.052-0.381,0.063l-3.85,0.354c-0.082,0.009-0.166,0.011-0.248,0.011c-0.086,0-0.172-0.004-0.258-0.012
		c-2.113-0.203-4.297-0.414-6.504-0.414c-4.266,0-7.588,0.84-10.457,2.643h-0.002c-0.016,0.012-0.031,0.021-0.047,0.031
		c-0.012,0.008-0.023,0.014-0.035,0.021c-0.211,0.129-0.438,0.253-0.672,0.367c-0.035,0.02-0.07,0.037-0.105,0.053
		c-0.021,0.01-0.045,0.021-0.068,0.029c-0.025,0.012-0.051,0.023-0.078,0.033c-0.055,0.025-0.119,0.051-0.184,0.078l-0.029,0.012
		l-0.057,0.023c-0.109,0.049-0.221,0.094-0.33,0.135l-15.098,5.39l0.863,7.36c0.01,0.09,0.016,0.174,0.02,0.258
		c0.014,0.136,0.023,0.293,0.029,0.463c0.002,0.109,0.002,0.207,0,0.308v0.021c0,0.115-0.004,0.287-0.016,0.478
		c-0.008,0.114-0.021,0.242-0.035,0.372c-0.018,0.152-0.037,0.288-0.059,0.42c-0.023,0.141-0.053,0.275-0.08,0.409
		c-0.029,0.129-0.057,0.248-0.09,0.366c-0.045,0.171-0.092,0.318-0.133,0.443c-0.039,0.116-0.076,0.227-0.117,0.334
		c-0.064,0.17-0.127,0.316-0.178,0.43c-0.031,0.076-0.059,0.144-0.09,0.211c-0.002,0.005-0.006,0.01-0.008,0.016
		c-0.166,0.35-0.338,0.73-0.525,1.167c-0.023,0.062-0.049,0.121-0.074,0.181c-2.168,5.1-4.791,18.209-3.533,30.155
		c0.002,0.021,0.004,0.041,0.006,0.062l0.004,0.035l0.004,0.047l0.01,0.091c0.07,0.704,0.162,1.411,0.277,2.102
		c0.002,0.011,0.002,0.021,0.004,0.03c0.08,0.518,0.154,0.967,0.229,1.371c0.01,0.041,0.016,0.082,0.021,0.123
		c0.803,5.854,2.172,11.844,3.953,17.324c0.004,0.008,0.006,0.016,0.008,0.023c0.762,2.338,1.592,4.574,2.471,6.65
		c1.555,3.68,3.057,6.977,4.51,10.162c5.826,12.781,10.424,22.867,6.41,34.178c-1.127,3.174-1.262,5.779-0.424,8.199
		c0.889,2.57,2.898,5.166,6.328,8.17c2.33,2.037,5.072,4.055,7.723,6.004c2.688,1.979,5.457,4.018,8.002,6.211h3.777h0.023h0.063
		h0.191h0.061h0.023h3.779c2.543-2.193,5.313-4.232,8-6.211c2.652-1.949,5.395-3.967,7.727-6.006
		c3.428-3.002,5.438-5.598,6.326-8.168c0.836-2.42,0.701-5.025-0.424-8.201c-4.016-11.309,0.584-21.395,6.404-34.166
		c1.457-3.195,2.959-6.492,4.514-10.172c0.879-2.072,1.707-4.307,2.467-6.641c0.004-0.012,0.008-0.023,0.012-0.035
		c1.783-5.479,3.15-11.471,3.955-17.323c0.006-0.041,0.012-0.082,0.02-0.123c0.074-0.403,0.146-0.839,0.229-1.373
		c0.002-0.011,0.004-0.019,0.006-0.028c0.113-0.693,0.207-1.4,0.275-2.099l0.008-0.079l0.006-0.051l0.006-0.055
		c0-0.018,0.002-0.035,0.004-0.053c1.26-11.945-1.363-25.056-3.531-30.154C181.833,94.231,181.808,94.172,181.784,94.11z
		 M131.149,138.178c-1.563,0-2.988-0.854-3.725-2.23c-2.41-4.513-6.357-10.406-11.479-12.854c-0.059-0.026-0.117-0.051-0.178-0.069
		c-1.213-0.38-2.52-0.726-3.887-1.024c-0.072-0.017-0.146-0.026-0.223-0.031c-0.24-0.012-0.547-0.077-0.963-0.207
		c-0.047-0.014-0.098-0.026-0.145-0.035c-1.646-0.318-3.359-0.573-5.09-0.758c-1.551-0.168-2.877-1.17-3.463-2.617
		c-0.256-0.637-0.354-1.336-0.279-2.025c0.229-2.148,2.029-3.768,4.186-3.768c0.15,0,0.305,0.008,0.457,0.023
		c7.834,0.838,14.783,3.726,19.568,8.129c0.016,0.014,0.031,0.027,0.045,0.041c3.486,2.928,6.477,6.703,8.891,11.221
		c1.094,2.051,0.316,4.609-1.734,5.705C132.521,138.006,131.835,138.178,131.149,138.178z M101.595,113.27
		c0.049-0.059,0.1-0.116,0.148-0.174C101.694,113.153,101.644,113.211,101.595,113.27z M106.503,111.244
		c-0.197-0.021-0.391-0.031-0.584-0.031C106.112,111.213,106.306,111.224,106.503,111.244z M103.37,111.83
		c-0.066,0.033-0.129,0.07-0.193,0.106C103.241,111.9,103.304,111.863,103.37,111.83z M105.378,111.237
		c-0.02,0.002-0.037,0.007-0.057,0.009C105.341,111.244,105.36,111.239,105.378,111.237z M104.849,111.314
		c-0.057,0.012-0.113,0.027-0.17,0.041C104.735,111.342,104.792,111.326,104.849,111.314z M104.337,111.44
		c-0.066,0.021-0.129,0.043-0.193,0.065C104.208,111.483,104.271,111.459,104.337,111.44z M103.843,111.612
		c-0.066,0.027-0.131,0.058-0.197,0.087C103.712,111.67,103.776,111.64,103.843,111.612z M102.921,112.088
		c-0.063,0.041-0.125,0.084-0.186,0.127C102.796,112.172,102.858,112.129,102.921,112.088z M102.104,112.724
		c-0.055,0.052-0.109,0.104-0.162,0.159C101.995,112.828,102.05,112.776,102.104,112.724z M102.499,112.387
		c-0.061,0.047-0.119,0.095-0.176,0.144C102.38,112.481,102.438,112.434,102.499,112.387z M101.417,113.504
		c-0.045,0.061-0.09,0.121-0.131,0.185C101.327,113.625,101.372,113.564,101.417,113.504z M101.128,113.942
		c-0.039,0.063-0.078,0.129-0.113,0.194C101.05,114.071,101.089,114.008,101.128,113.942z M100.88,114.412
		c-0.033,0.067-0.064,0.133-0.094,0.201C100.813,114.545,100.847,114.479,100.88,114.412z M100.673,114.916
		c-0.023,0.066-0.049,0.131-0.07,0.198C100.622,115.047,100.647,114.982,100.673,114.916z M100.509,115.465
		c-0.014,0.059-0.031,0.115-0.043,0.175C100.478,115.58,100.495,115.523,100.509,115.465z M120.907,137.446
		c-0.824,2.263-4.473,5.017-7.355,3.968c-2.881-1.049-3.906-5.504-3.082-7.767c0.822-2.263,3.828-3.248,6.709-2.198
		C120.062,132.5,121.729,135.183,120.907,137.446z M137.722,211.918c-1.664,0-1.844-4.316-1.844-6.172s0.18-6.172,1.844-6.172
		c1.666,0,1.846,4.316,1.846,6.172S139.388,211.918,137.722,211.918z M178.194,120.969c-1.73,0.186-3.443,0.441-5.092,0.759
		c-0.049,0.009-0.096,0.021-0.143,0.036c-0.418,0.129-0.725,0.195-0.965,0.207c-0.076,0.004-0.15,0.014-0.225,0.029
		c-1.365,0.299-2.674,0.646-3.887,1.025c-0.061,0.02-0.121,0.042-0.178,0.07c-5.121,2.447-9.068,8.34-11.479,12.853
		c-0.734,1.376-2.164,2.229-3.725,2.229c-0.697,0-1.363-0.166-1.982-0.498c-2.051-1.096-2.826-3.655-1.73-5.706
		c2.412-4.519,5.402-8.293,8.889-11.222c0.016-0.013,0.029-0.026,0.045-0.039c4.785-4.404,11.734-7.291,19.57-8.129
		c0.15-0.017,0.305-0.024,0.455-0.024v-1.345l0,0v1.345c2.156,0,3.955,1.62,4.186,3.769c0.074,0.688-0.021,1.387-0.279,2.024
		C181.071,119.799,179.745,120.803,178.194,120.969z M181.911,113.096c0.051,0.059,0.1,0.115,0.148,0.175
		C182.011,113.211,181.962,113.153,181.911,113.096z M181.714,112.883c-0.055-0.055-0.109-0.106-0.164-0.159
		C181.604,112.776,181.659,112.828,181.714,112.883z M181.333,112.53c-0.059-0.049-0.117-0.097-0.176-0.144
		C181.216,112.434,181.272,112.481,181.333,112.53z M180.919,112.215c-0.061-0.043-0.121-0.086-0.186-0.125
		C180.798,112.129,180.858,112.172,180.919,112.215z M180.478,111.937c-0.064-0.036-0.129-0.073-0.193-0.106
		C180.349,111.863,180.413,111.9,180.478,111.937z M178.276,111.237c0.02,0.002,0.035,0.007,0.055,0.009
		C178.312,111.244,178.296,111.239,178.276,111.237z M178.804,111.314c0.059,0.011,0.113,0.027,0.17,0.04
		C178.917,111.342,178.862,111.325,178.804,111.314z M179.317,111.44c0.064,0.021,0.129,0.043,0.191,0.065
		C179.446,111.483,179.382,111.459,179.317,111.44z M179.812,111.612c0.066,0.027,0.131,0.058,0.195,0.087
		C179.942,111.67,179.878,111.64,179.812,111.612z M177.735,111.213c-0.191,0-0.389,0.011-0.582,0.031
		C177.347,111.224,177.544,111.213,177.735,111.213z M145.931,211.918c-1.666,0-1.846-4.316-1.846-6.172s0.18-6.172,1.846-6.172
		c1.664,0,1.846,4.316,1.846,6.172S147.597,211.918,145.931,211.918z M170.103,141.412c-2.883,1.049-6.531-1.703-7.354-3.967
		c-0.824-2.263,0.844-4.947,3.727-5.998c2.883-1.049,5.889-0.064,6.711,2.198C174.011,135.91,172.985,140.363,170.103,141.412z
		 M182.237,113.502c0.045,0.063,0.09,0.123,0.133,0.188C182.327,113.625,182.282,113.564,182.237,113.502z M182.526,113.94
		c0.037,0.065,0.076,0.13,0.113,0.196C182.603,114.071,182.563,114.006,182.526,113.94z M182.774,114.41
		c0.031,0.067,0.064,0.135,0.096,0.203C182.841,114.545,182.806,114.478,182.774,114.41z M182.979,114.914
		c0.025,0.066,0.053,0.133,0.072,0.201C183.032,115.047,183.005,114.98,182.979,114.914z M183.144,115.461
		c0.016,0.061,0.033,0.117,0.045,0.179C183.177,115.578,183.159,115.521,183.144,115.461z"/>
	<path d="M133.96,69.758c0.25,0.021,0.498,0.041,0.746,0.063C134.458,69.799,134.21,69.777,133.96,69.758z"/>
	<path d="M140.353,69.588c0.018-0.004,0.037-0.006,0.055-0.008C140.39,69.582,140.37,69.584,140.353,69.588z"/>
	<path d="M126.747,69.676c0.17-0.016,0.338-0.03,0.506-0.043C127.085,69.646,126.917,69.66,126.747,69.676z"/>
	<path d="M143.392,69.58c0.018,0.002,0.037,0.004,0.055,0.008C143.429,69.584,143.409,69.582,143.392,69.58z"/>
	<path d="M143.005,69.549c0.029,0,0.059,0,0.086,0.002C143.062,69.549,143.034,69.549,143.005,69.549z"/>
	<path d="M140.71,69.551c0.027-0.002,0.055-0.002,0.084-0.002C140.765,69.549,140.737,69.549,140.71,69.551z"/>
</g>
</svg>
