<?xml version="1.0" encoding="utf-8"?>
<!-- Generator: Adobe Illustrator 15.1.0, SVG Export Plug-In . SVG Version: 6.00 Build 0)  -->
<!DOCTYPE svg PUBLIC "-//W3C//DTD SVG 1.1//EN" "http://www.w3.org/Graphics/SVG/1.1/DTD/svg11.dtd">
<svg version="1.1" id="Layer_2" xmlns="http://www.w3.org/2000/svg" xmlns:xlink="http://www.w3.org/1999/xlink" x="0px" y="0px"
	 width="283.465px" height="283.465px" viewBox="0 0 283.465 283.465" enable-background="new 0 0 283.465 283.465"
	 xml:space="preserve">
<g>
	<path d="M276.242,58.449c-0.033-0.324-0.271-0.596-0.586-0.674c-3.713-0.914-7.539-1.377-11.377-1.377
		c-16.99,0-31.695,9.012-41.428,14.975c-0.527,0.324-1.045,0.641-1.547,0.946c-5.678,3.462-9.619,5.851-12.18,7.399l-4.355-19.756
		c3.502-0.465,16.482-2.774,23.613-11.977c4.314-5.568,5.771-12.637,4.326-21.012c-0.039-0.223-0.172-0.418-0.365-0.534
		c-0.191-0.117-0.434-0.144-0.645-0.071c-0.211,0.068-21.152,6.916-37.734,6.916c-7.959,0-13.574-1.58-16.68-4.686
		c-0.068-0.073-6.975-7.375-19.199-11.03c-4.508-1.349-9.258-2.032-14.117-2.032c-0.746,0-1.504,0.018-2.221,0.049
		c-5.643-0.242-11.174,0.429-16.373,1.983c-12.258,3.665-19.131,10.958-19.189,11.021c-3.113,3.115-8.73,4.695-16.689,4.695
		c-16.568,0.002-37.523-6.848-37.732-6.916c-0.213-0.07-0.453-0.045-0.645,0.071c-0.195,0.117-0.328,0.312-0.367,0.535
		c-1.443,8.374,0.012,15.442,4.328,21.011c7.131,9.202,20.111,11.512,23.611,11.977l-4.354,19.756
		c-2.559-1.547-6.498-3.936-12.18-7.399c-0.502-0.306-1.018-0.621-1.545-0.944c-9.732-5.963-24.439-14.977-41.43-14.977
		c-3.836,0-7.664,0.463-11.375,1.377c-0.316,0.078-0.555,0.35-0.588,0.674c-0.026,0.239-2.363,24.252,13.568,43.617
		c11.496,13.973,29.434,22.146,53.32,24.295l4.648,3.376c-0.521,2.228-2.449,11.112-2.93,22.8c-0.072,1.727,0.09,3.895,0.479,6.447
		c-0.01,0.033-0.014,0.07-0.014,0.107c0.014,15.604,2.844,29.225,8.412,40.482c0.033,0.064,0.043,0.088,0.916,1.072
		c0.754,0.869,1.928,2.225,3.223,3.721c1.975,2.279,4.23,4.889,5.719,6.602c-0.113,0.857-0.211,1.732-0.291,2.602
		c-0.002,0.016-0.002,0.029-0.002,0.045l0.439,15.992c0,0.016,0.002,0.027,0.004,0.043c0.166,1.209,0.322,2.227,0.494,3.201
		c0.037,0.211,0.086,0.416,0.137,0.619c0.02,0.07,0.055,0.135,0.105,0.186l6.205,6.059c0.051,0.051,0.117,0.086,0.189,0.104
		c0.24,0.051,0.486,0.094,0.738,0.125c0.781,5.73,3.51,15.455,12.955,18.604c1.387,0.463,2.887,0.945,4.461,1.438
		c6.783,4.904,13.805,7.568,20.871,7.92c0.209,0.01,0.416,0.014,0.625,0.018l0.109,0.002c0.025,0.004,0.051,0.006,0.072,0.004
		l0.049-0.002l0.059,0.002c0,0,0.033,0,0.035,0s0.004,0,0.008,0c0.021,0,0.043-0.002,0.064-0.006h0.074
		c0.207-0.004,0.416-0.008,0.623-0.018c7.068-0.352,14.09-3.016,20.871-7.92c1.576-0.49,3.076-0.975,4.461-1.438
		c9.459-3.152,12.182-12.893,12.959-18.629c0.182-0.029,0.363-0.063,0.541-0.1c0.072-0.018,0.137-0.053,0.189-0.104l6.203-6.059
		c0.053-0.051,0.09-0.113,0.105-0.186c0.053-0.203,0.102-0.408,0.139-0.617c0.168-0.961,0.326-1.979,0.494-3.203
		c0.002-0.016,0.002-0.027,0.002-0.043l0.439-15.992c0-0.016,0-0.029-0.002-0.045c-0.07-0.791-0.158-1.578-0.268-2.404
		c1.49-1.715,3.861-4.453,5.92-6.83l3.191-3.686c0.875-0.986,0.887-1.012,0.918-1.074c5.568-11.26,8.398-24.881,8.412-40.484
		c0-0.037-0.004-0.072-0.014-0.107c0.389-2.553,0.551-4.721,0.479-6.445c-0.48-11.694-2.408-20.575-2.93-22.801l4.648-3.375
		c23.887-2.15,41.822-10.324,53.318-24.296C278.621,82.683,276.268,58.689,276.242,58.449z M267.822,83.011l-15.563,20.072
		c-0.082,0.104-0.188,0.188-0.311,0.238l-16.756,7.153l-28.424,10.78c-0.039,0.015-0.074,0.035-0.105,0.061l-8.824,7.114
		c-0.086,0.069-0.137,0.169-0.145,0.276c-0.002,0.035,0,0.071,0.008,0.106l2.768,12.999c0.008,0.033,0.012,0.066,0.016,0.104
		c0.443,5.573,1.652,20.319,1.908,21.62c0.004,0.014,0.008,0.029,0.012,0.043c0.098,0.305,0.094,1.303-0.973,9.076
		c-0.109,0.805-0.23,1.682-0.363,2.639c-0.742,5.297-1.529,10.578-1.563,10.801c-0.01,0.061-0.023,0.115-0.045,0.17
		c-0.883,2.242-1.791,4.514-2.701,6.752c-1.873,4.605-4.26,7.639-6.197,9.707c-0.646,0.691-1.24,1.273-1.75,1.773
		c-0.893,0.873-1.447,1.428-1.623,1.813c-0.141,0.311-0.465,0.496-0.813,0.447c-0.34-0.047-0.611-0.314-0.664-0.652
		c-1.52-9.977-2.383-13.645-4.814-17.15c-0.039-0.057-0.07-0.117-0.094-0.184l-2.02-5.662c-0.057-0.154-0.203-0.258-0.367-0.258
		c-0.008,0-0.016,0-0.025,0l-7.449,0.484c5.994-4.822,10.104-12.957,11.115-18.756c1.916-10.988-2.088-22.674-10.99-32.06
		c-0.318-0.335-0.625-0.677-0.92-1.021c-8.121-9.463-7.68-21.877-7.463-24.664c0.027-0.354,0.053-0.553,0.055-0.569
		c0.002-0.021,0.004-0.041,0.002-0.062c-0.264-9.225,5.609-16.949,17.455-22.953c5.053-2.485,10.967-4.58,17.58-6.226
		c4.178-1.039,5.395-1.229,6.373-1.381c0.223-0.035,0.451,0.03,0.623,0.175c0.174,0.146,0.273,0.359,0.275,0.586l0.09,9.936
		c0,0.104,0.043,0.201,0.113,0.271c0.023,0.023,0.051,0.044,0.08,0.063c0.119,0.068,0.266,0.07,0.387,0.002l2.959-1.668
		l43.195-22.014c0.104-0.053,0.213-0.08,0.326-0.084l17.924-0.645c0.43,0,0.777,0.349,0.777,0.777c0,0.051-0.006,0.103-0.018,0.168
		l-2.91,19.439C267.955,82.782,267.902,82.907,267.822,83.011z M184.324,231.631l-4.602,4.492c-0.311,0.006-0.623-0.021-0.934-0.076
		c-7.184-1.324-21.533-3.666-36.973-4.477c-0.061-0.004-0.121-0.006-0.182-0.006s-0.123,0.002-0.184,0.006
		c-13.025,0.684-25.279,2.457-33.104,3.791c-0.291,0.049-0.574,0.098-0.852,0.145c-0.555,0.096-1.084,0.189-1.588,0.279
		s-0.98,0.178-1.43,0.26c-0.311,0.057-0.623,0.082-0.934,0.078l-4.6-4.494c-0.117-0.703-0.232-1.463-0.352-2.32l-0.428-15.59
		c0.146-1.561,0.355-3.104,0.621-4.594l5.506-15.557c1.422-2.477,2.729-4.139,3.383-4.908c0.029-0.035,0.107-0.074,0.23-0.074
		h67.457c0.121,0,0.199,0.041,0.229,0.074c0.572,0.674,1.643,2.029,2.855,4.018c0.174,0.283,0.35,0.58,0.527,0.891l5.506,15.557
		c0.266,1.492,0.473,3.037,0.619,4.594l-0.428,15.592C184.555,230.168,184.439,230.928,184.324,231.631z M83.807,186.264
		c-0.021-0.057-0.037-0.113-0.047-0.172c-0.033-0.223-0.816-5.492-1.561-10.801c-1.428-10.197-1.443-11.379-1.338-11.715
		c0.004-0.016,0.008-0.029,0.012-0.043c0.256-1.303,1.465-16.047,1.908-21.62c0.004-0.033,0.008-0.066,0.016-0.102l2.768-13
		c0.008-0.036,0.01-0.072,0.008-0.107c-0.008-0.105-0.059-0.207-0.145-0.275l-8.824-7.114c-0.031-0.026-0.068-0.046-0.105-0.062
		l-28.453-10.791l-16.728-7.141c-0.122-0.052-0.229-0.135-0.31-0.238l-15.562-20.07c-0.082-0.105-0.135-0.23-0.155-0.362
		L12.375,63.16c-0.035-0.23,0.035-0.461,0.188-0.634c0.147-0.165,0.358-0.259,0.606-0.259c0,0,0,0,0.002,0l17.895,0.643
		c0.111,0.004,0.225,0.033,0.325,0.084l43.226,22.029l2.93,1.652c0.121,0.068,0.268,0.068,0.387-0.002
		c0.029-0.017,0.057-0.037,0.08-0.062c0.072-0.071,0.113-0.168,0.115-0.271l0.09-9.937c0.002-0.226,0.102-0.44,0.273-0.586
		s0.4-0.21,0.623-0.175c0.426,0.066,0.904,0.141,1.662,0.292c0.029,0.015,0.063,0.026,0.096,0.034
		c11.887,2.541,39.477,10.574,38.914,30.232c0,0.021,0,0.041,0.004,0.062c0,0.002,0,0.008,0.002,0.018
		c0.07,0.595,1.594,14.722-7.412,25.216c-0.295,0.344-0.602,0.686-0.92,1.021c-8.902,9.386-12.906,21.072-10.99,32.06
		c0.127,0.727,0.301,1.488,0.521,2.271c1.541,5.502,5.316,12.209,10.531,16.432l-6.65-0.434c-0.174-0.008-0.332,0.096-0.393,0.258
		l-2.02,5.664c-0.023,0.064-0.055,0.125-0.094,0.184c-2.432,3.508-3.293,7.174-4.814,17.148c-0.051,0.34-0.324,0.607-0.664,0.654
		c-0.344,0.047-0.674-0.141-0.813-0.449c-0.174-0.383-0.73-0.938-1.623-1.813c-2.039-1.996-5.451-5.338-7.949-11.48
		C85.604,190.795,84.697,188.525,83.807,186.264z M169.865,29.748c0.188,0,0.348,0.135,0.381,0.319
		c0.246,1.354,0.709,2.653,1.377,3.86c2.334,4.214,6.879,6.832,11.863,6.832c0.131,0,0.264-0.002,0.396-0.006
		c1.064-0.031,4.852-1.172,6.43-1.662c1.064-0.33,2.1-0.664,2.701-0.875c0.02-0.006,0.037-0.01,0.055-0.014l36.592-7.166
		c0.145-0.027,0.285,0.024,0.375,0.133c0.092,0.109,0.115,0.26,0.063,0.393l-3.139,7.877c-0.018,0.042-0.041,0.08-0.07,0.113
		l-10.332,11.556c-0.049,0.054-0.107,0.093-0.178,0.112l-15.299,4.666c-0.086,0.027-0.16,0.082-0.209,0.156l-6.146,9.194
		c-0.059,0.086-0.145,0.144-0.246,0.165c-0.828,0.169-1.688,0.255-2.555,0.255c-7.902,0-15.189-6.643-17.402-12.78
		c-0.604-1.955-1.357-3.789-2.086-5.561c-1.707-4.15-3.316-8.068-2.832-12.73c0-0.018,0.002-0.035,0.002-0.053l-0.131-4.385
		c-0.006-0.202,0.146-0.377,0.35-0.398C169.838,29.748,169.85,29.748,169.865,29.748z M56.311,39.439l-3.139-7.877
		c-0.014-0.033-0.023-0.066-0.027-0.102c-0.01-0.104,0.021-0.209,0.09-0.291c0.072-0.09,0.182-0.141,0.299-0.141
		c0.023,0,0.051,0.002,0.074,0.008l36.592,7.166c0.02,0.004,0.037,0.008,0.055,0.014c0.713,0.25,2.258,0.75,3.963,1.26
		c0.238,0.07,0.484,0.145,0.734,0.217c1.754,0.514,3.713,1.039,4.434,1.061c0.133,0.004,0.266,0.006,0.396,0.006
		c5.139,0,9.748-2.738,12.027-7.146c0.582-1.122,0.988-2.314,1.213-3.547c0.035-0.199,0.209-0.34,0.424-0.316
		c0.199,0.021,0.354,0.195,0.348,0.397l-0.131,4.386c0,0.016,0,0.034,0.002,0.051c0.486,4.662-1.125,8.582-2.832,12.731
		c-0.73,1.772-1.482,3.604-2.082,5.542c-2.219,6.154-9.504,12.798-17.406,12.798c-0.869,0-1.729-0.086-2.557-0.255
		c-0.102-0.021-0.188-0.079-0.246-0.165l-6.146-9.194c-0.049-0.074-0.123-0.129-0.209-0.156l-15.299-4.666
		c-0.066-0.021-0.129-0.059-0.176-0.112L56.377,39.55C56.352,39.52,56.328,39.482,56.311,39.439z"/>
	<path d="M118.723,213.811c2.084,1.391,5.162,2.348,9.727,2.408c0.002,0,0.006,0,0.008,0l0,0c2.541,0.033,0.857-1.043-0.875-2.729
		l-1.93-6.084c0.777-2.297,2.264-3.367-1.07-3.367c-4.229,0-10.199-4.41-10.199-0.645l0,0c-0.195,1.098-0.645,4.936,1.857,8.172
		C116.916,212.438,117.746,213.182,118.723,213.811z"/>
	<path d="M168.885,203.395c0-3.766-5.971,0.645-10.199,0.645c-3.334,0-1.848,1.07-1.068,3.369l-1.932,6.084
		c-1.732,1.684-3.414,2.76-0.873,2.729l0,0c0.004,0,0.006,0,0.01,0c4.563-0.063,7.643-1.02,9.725-2.41
		c0.979-0.627,1.809-1.371,2.48-2.242C169.529,208.33,169.08,204.492,168.885,203.395L168.885,203.395z"/>
	<path d="M94.787,103.568c-3.377-3.376-8.852-3.376-12.227,0c-3.377,3.376-3.377,8.85,0,12.227
		c3.375,3.375,16.547,4.321,16.547,4.321S98.162,106.944,94.787,103.568z"/>
	<path d="M200.92,103.371c-3.377-3.375-8.852-3.375-12.227,0s-4.322,16.547-4.322,16.547s13.172-0.947,16.549-4.322
		C204.295,112.22,204.295,106.746,200.92,103.371z"/>
</g>
</svg>
