<?xml version="1.0" encoding="utf-8"?>
<!-- Generator: Adobe Illustrator 15.1.0, SVG Export Plug-In . SVG Version: 6.00 Build 0)  -->
<!DOCTYPE svg PUBLIC "-//W3C//DTD SVG 1.1//EN" "http://www.w3.org/Graphics/SVG/1.1/DTD/svg11.dtd">
<svg version="1.1" id="Layer_1" xmlns="http://www.w3.org/2000/svg" xmlns:xlink="http://www.w3.org/1999/xlink" x="0px" y="0px"
	 width="283.465px" height="283.465px" viewBox="0 0 283.465 283.465" enable-background="new 0 0 283.465 283.465"
	 xml:space="preserve">
<g>
	<path fill="none" d="M164.712,182.439c-4.933-3.707-14.218-10.726-22.979-17.41c-8.764,6.686-18.049,13.707-22.977,17.41
		c6.061,2.606,14.295,6.21,22.977,10.042C150.417,188.649,158.651,185.046,164.712,182.439z"/>
	<path fill="none" d="M91.497,252.358c8.649-2.805,20.181-6.533,32.266-10.426c-10.334-3.869-19.177-7.216-24.62-9.336
		C96.343,239.839,93.756,246.523,91.497,252.358z"/>
	<path fill="none" d="M114.933,191.681c-1.977,5.133-3.953,10.262-5.903,15.314c5.467-2.438,12.075-5.384,18.995-8.451
		C123.124,195.994,118.626,193.639,114.933,191.681z"/>
	<path fill="none" d="M128.945,155.2c-1.056,2.759-2.136,5.576-3.238,8.448c2.487-1.631,5.078-3.323,7.673-5.019
		C131.798,157.412,130.312,156.263,128.945,155.2z"/>
	<path fill="none" d="M150.091,158.626c2.591,1.69,5.179,3.384,7.661,5.012c-1.099-2.868-2.178-5.685-3.231-8.438
		C153.152,156.263,151.669,157.408,150.091,158.626z"/>
	<path fill="none" d="M151.381,146.99c-2.278-5.969-4.382-11.497-6.244-16.419c-1.123,0.167-2.262,0.281-3.43,0.281
		c-1.151-0.002-2.274-0.116-3.38-0.279c-1.863,4.919-3.965,10.444-6.243,16.41c2.729,1.734,6.055,3.878,9.653,6.211
		C145.331,150.86,148.655,148.724,151.381,146.99z"/>
	<path fill="none" d="M174.432,206.992c-1.948-5.05-3.925-10.179-5.901-15.308c-3.69,1.954-8.187,4.31-13.088,6.859
		C162.36,201.612,168.967,204.557,174.432,206.992z"/>
	<path fill="none" d="M141.734,205.653c-14.925,7.709-30.164,15.518-36.75,18.878c8.471,2.605,22.114,6.942,36.748,11.627
		c14.635-4.685,28.276-9.021,36.748-11.627C171.894,221.17,156.656,213.362,141.734,205.653z"/>
	<path fill="none" d="M159.704,241.933c12.079,3.889,23.604,7.617,32.256,10.422c-2.259-5.835-4.842-12.516-7.642-19.755
		C178.874,234.721,170.034,238.066,159.704,241.933z"/>
	<path opacity="0.2" enable-background="new    " d="M118.721,107.813c-0.009,7.436,3.524,14.031,8.991,18.244
		c0.004-0.006,0.006-0.012,0.01-0.019C122.257,121.83,118.721,115.24,118.721,107.813z"/>
	<path opacity="0.2" enable-background="new    " d="M145.137,130.57c-0.004-0.007-0.008-0.015-0.01-0.022
		c-1.111,0.163-2.238,0.277-3.394,0.277c-1.157,0-2.286-0.114-3.396-0.279c-0.004,0.009-0.008,0.017-0.011,0.026
		c1.105,0.163,2.229,0.277,3.38,0.279C142.875,130.851,144.014,130.737,145.137,130.57z"/>
	<path opacity="0.2" enable-background="new    " d="M155.725,126.052c0.004,0.007,0.006,0.013,0.008,0.019
		c4.893-3.76,8.241-9.426,8.896-15.904C163.969,116.638,160.614,122.296,155.725,126.052z"/>
	<path opacity="0.2" enable-background="new    " d="M164.746,107.861c0-0.016,0-0.034,0-0.049c0,0.717-0.044,1.424-0.107,2.126
		C164.7,109.253,164.746,108.563,164.746,107.861z"/>
	<path opacity="0.2" enable-background="new    " d="M164.636,105.509c0,0.008-0.004,0.017-0.005,0.025
		c0.072,0.749,0.114,1.51,0.114,2.278C164.746,107.034,164.704,106.256,164.636,105.509z"/>
	<path d="M155.732,126.071c-0.002-0.006-0.004-0.012-0.008-0.019c4.89-3.756,8.244-9.414,8.902-15.885
		c0.007-0.076,0.005-0.153,0.011-0.229c0.063-0.702,0.107-1.409,0.107-2.126c0-0.769-0.042-1.529-0.114-2.278
		c-1.145-11.643-10.957-20.739-22.897-20.739c-12.709,0-23.013,10.304-23.013,23.017c0,7.428,3.536,14.018,9.001,18.225
		c-0.004,0.007-0.006,0.013-0.01,0.019C108.586,170.52,67.828,267.366,67.236,268.8c-1.537,3.726,13.771,10.334,15.414,6.336
		c0.08-0.193,0.842-2.147,2.128-5.459c8.911-3.268,33.662-12.383,56.956-21.04c23.282,8.653,48.018,17.766,56.937,21.036
		c1.285,3.314,2.045,5.27,2.124,5.463c1.644,3.998,16.95-2.61,15.418-6.336C215.62,267.366,174.858,170.542,155.732,126.071z
		 M174.432,206.992c-5.465-2.436-12.071-5.38-18.989-8.447c4.901-2.551,9.396-4.905,13.088-6.859
		C170.507,196.813,172.483,201.942,174.432,206.992z M157.752,163.638c-2.482-1.628-5.07-3.32-7.661-5.012
		c1.578-1.219,3.062-2.363,4.43-3.427C155.575,157.954,156.654,160.77,157.752,163.638z M138.327,130.572
		c0.003-0.009,0.007-0.017,0.011-0.026c1.109,0.165,2.238,0.279,3.396,0.279c1.155,0,2.282-0.114,3.394-0.277
		c0.002,0.007,0.006,0.015,0.01,0.022c1.862,4.922,3.966,10.45,6.244,16.419c-2.727,1.733-6.049,3.87-9.644,6.203
		c-3.598-2.333-6.923-4.477-9.653-6.211C134.362,141.017,136.464,135.491,138.327,130.572z M128.945,155.2
		c1.368,1.063,2.853,2.212,4.435,3.431c-2.595,1.694-5.186,3.388-7.673,5.019C126.809,160.776,127.889,157.958,128.945,155.2z
		 M141.734,165.029c8.761,6.686,18.046,13.703,22.979,17.41c-6.062,2.606-14.295,6.21-22.979,10.042
		c-8.682-3.832-16.917-7.436-22.977-10.042C123.685,178.736,132.97,171.714,141.734,165.029z M114.933,191.681
		c3.693,1.958,8.191,4.313,13.092,6.863c-6.92,3.067-13.528,6.013-18.995,8.451C110.979,201.942,112.956,196.813,114.933,191.681z
		 M91.497,252.358c2.259-5.835,4.846-12.52,7.646-19.762c5.442,2.12,14.286,5.467,24.62,9.336
		C111.678,245.825,100.146,249.554,91.497,252.358z M141.732,236.158c-14.634-4.685-28.277-9.021-36.748-11.627
		c6.586-3.36,21.825-11.169,36.75-18.878c14.922,7.709,30.16,15.518,36.746,18.878C170.008,227.137,156.367,231.474,141.732,236.158
		z M159.704,241.933c10.33-3.866,19.171-7.212,24.614-9.333c2.8,7.239,5.383,13.92,7.642,19.755
		C183.309,249.55,171.783,245.821,159.704,241.933z"/>
	<path d="M169.724,137.046c-0.004,3.221,2.605,5.832,5.823,5.832c1.691,0,3.301-0.737,4.407-2.016
		c16.412-18.98,16.412-47.129,0-66.11c-18.254-21.111-50.167-23.429-71.279-5.174c-21.116,18.256-23.43,50.172-5.174,71.285
		c2.105,2.433,5.785,2.701,8.221,0.592c2.432-2.105,2.698-5.785,0.592-8.217c-12.618-14.602-12.618-36.245,0-50.848
		c14.041-16.245,38.594-18.031,54.838-3.991c16.249,14.041,18.035,38.59,3.995,54.838
		C170.229,134.296,169.724,135.646,169.724,137.046z"/>
	<path d="M187.592,166.05c4.993-3.865,9.478-8.351,13.343-13.343c25.331-32.695,19.354-79.734-13.343-105.061
		c-32.694-25.326-79.733-19.355-105.06,13.343C57.205,93.684,63.177,140.722,95.875,166.05c1.021,0.797,2.276,1.229,3.57,1.226
		c1.802,0,3.505-0.835,4.609-2.261c1.969-2.542,1.506-6.203-1.04-8.172c-4.219-3.271-8.005-7.058-11.271-11.275
		c-21.386-27.607-16.34-67.328,11.271-88.709c27.611-21.385,67.328-16.34,88.713,11.271c21.381,27.611,16.336,67.328-11.275,88.713
		c-2.525,1.969-2.988,5.613-1.031,8.151C181.386,167.545,185.047,168.016,187.592,166.05z"/>
	<path d="M196.659,23.628C150.823-6.709,89.069,5.858,58.734,51.698c-30.335,45.837-17.77,107.593,28.07,137.926
		c0.952,0.634,2.067,0.972,3.213,0.972c1.954,0,3.779-0.979,4.856-2.606c1.779-2.682,1.047-6.298-1.631-8.077
		c-9.849-6.514-18.278-14.946-24.796-24.792c-26.78-40.476-15.679-94.999,24.796-121.78c40.472-26.784,94.996-15.683,121.779,24.792
		c26.78,40.475,15.684,94.997-24.792,121.779c-0.099,0.063-0.193,0.122-0.284,0.188c-2.629,1.854-3.259,5.493-1.403,8.122
		c1.854,2.629,5.489,3.259,8.118,1.403c11.149-7.375,20.695-16.925,28.07-28.069C255.067,115.718,242.499,53.963,196.659,23.628z"/>
</g>
</svg>
