<?xml version="1.0" encoding="utf-8"?>
<!-- Generator: Adobe Illustrator 15.1.0, SVG Export Plug-In . SVG Version: 6.00 Build 0)  -->
<!DOCTYPE svg PUBLIC "-//W3C//DTD SVG 1.1//EN" "http://www.w3.org/Graphics/SVG/1.1/DTD/svg11.dtd">
<svg version="1.1" id="Layer_1" xmlns="http://www.w3.org/2000/svg" xmlns:xlink="http://www.w3.org/1999/xlink" x="0px" y="0px"
	 width="283.46px" height="283.46px" viewBox="0 0 283.46 283.46" enable-background="new 0 0 283.46 283.46" xml:space="preserve">
<g>
	<path fill="none" d="M163.588,62.167l2.623,18.361H117.25l2.623-18.361H80.528l-24.481,48.962l12.241,97.924h146.886l12.24-97.924
		l-24.481-48.962H163.588z M104.244,178.451c-3.38,0-6.12-10.193-6.12-22.768s2.74-22.766,6.12-22.766
		c3.381,0,6.121,10.191,6.121,22.766C110.365,168.257,107.624,178.451,104.244,178.451z M181.513,176.555
		c-3.382,0-6.121-10.194-6.121-22.769c0-12.574,2.739-22.768,6.121-22.768c3.379,0,6.12,10.194,6.12,22.768
		C187.633,166.362,184.892,176.555,181.513,176.555z"/>
	<ellipse cx="104.244" cy="155.684" rx="6.12" ry="22.767"/>
	<path d="M215.174,13.205H68.288L7.085,111.129l24.481,159.126h43.607l-3.061-36.723h21.421l3.061,36.723h90.274l3.062-36.723h21.42
		l-3.062,36.723h43.607l24.48-159.126L215.174,13.205z M215.174,209.053H68.288l-12.241-97.924l24.481-48.962h39.345l-2.623,18.361
		h48.961l-2.623-18.361h39.345l24.481,48.962L215.174,209.053z"/>
	<ellipse cx="181.513" cy="153.787" rx="6.121" ry="22.768"/>
</g>
</svg>
