<?xml version="1.0" encoding="utf-8"?>
<!-- Generator: Adobe Illustrator 15.1.0, SVG Export Plug-In . SVG Version: 6.00 Build 0)  -->
<!DOCTYPE svg PUBLIC "-//W3C//DTD SVG 1.1//EN" "http://www.w3.org/Graphics/SVG/1.1/DTD/svg11.dtd">
<svg version="1.1" id="Layer_2" xmlns="http://www.w3.org/2000/svg" xmlns:xlink="http://www.w3.org/1999/xlink" x="0px" y="0px"
	 width="283.465px" height="283.465px" viewBox="0 0 283.465 283.465" enable-background="new 0 0 283.465 283.465"
	 xml:space="preserve">
<g>
	<path fill="none" d="M191.734,122.816c0.037-0.332-0.043-0.471-0.069-0.517l-7.938-13.768c-0.092-0.158-0.195-0.25-0.369-0.327
		l-0.002,0.002c-0.105-0.046-0.147-0.045-0.244-0.007l-13.524,5.265l-0.919-0.851c-1.665-1.542-3.604-3.023-5.764-4.403
		l-1.034-0.661l0.121-1.222c0.135-1.353,0.386-3.266,0.84-6.395c0.369-2.453,0.644-4.531,0.776-5.862
		c0.037-0.331-0.041-0.47-0.067-0.515c-0.104-0.179-0.17-0.229-0.171-0.229l-0.153-0.059c-2.56-1.183-7.897-2.699-15.864-4.509
		c-0.345-0.054-0.473,0.023-0.517,0.048c-0.219,0.125-0.241,0.203-0.248,0.229l-0.083,0.234l-5.47,12.866l-1.254,0.06
		c-2.08,0.1-4.299,0.395-6.593,0.877l-1.205,0.253l-9.18-11.502c-0.027-0.035-0.059-0.054-0.149-0.069
		c-0.178-0.03-0.323,0.001-0.501,0.104l-13.775,7.937c-0.407,0.235-0.433,0.298-0.304,0.744c0.637,2.323,2.237,6.464,4.762,12.334
		l0.511,1.189l-0.875,0.954c-1.475,1.604-2.846,3.399-4.076,5.333l-0.689,1.083l-13.658-1.881c-0.255-0.034-0.476-0.026-0.62,0.02
		c-0.242,0.295-1.049,1.58-2.463,6.652c-1.244,4.516-1.987,7.84-2.207,9.876c-0.034,0.394,0.027,0.562,0.027,0.563
		c0.003,0.001,0.117,0.107,0.421,0.22c4.714,1.757,8.656,3.371,11.722,4.799l1.124,0.523l0.031,1.239
		c0.06,2.369,0.334,4.623,0.815,6.701l0.285,1.23l-11.455,9.109c-0.01,0.027-0.025,0.084-0.035,0.183
		c-0.036,0.328,0.044,0.467,0.07,0.513l7.936,13.774c0.094,0.163,0.202,0.257,0.384,0.334c0.074,0.032,0.107,0.045,0.24-0.007
		l13.501-5.332l0.926,0.893c1.673,1.612,3.607,3.098,5.748,4.412l1.067,0.655l-0.124,1.245c-0.139,1.4-0.4,3.375-0.847,6.402
		c-0.427,2.938-0.665,4.741-0.769,5.846c-0.038,0.34,0.041,0.477,0.067,0.521c0.138,0.239,0.276,0.324,0.368,0.367
		c2.748,1.23,8.08,2.709,15.818,4.385c0.361,0.094,0.453,0.036,0.515,0.002c0.279-0.16,0.315-0.271,0.336-0.338l0.059-0.156
		l5.409-12.84l1.258-0.061c2.08-0.1,4.298-0.395,6.595-0.875l1.204-0.254l9.179,11.5c0.031,0.039,0.06,0.055,0.142,0.068
		c0.136,0.021,0.287,0.025,0.508-0.102l13.779-7.938c0.422-0.244,0.432-0.312,0.31-0.734c-0.64-2.323-2.243-6.469-4.769-12.344
		l-0.511-1.189l0.876-0.953c1.497-1.631,2.865-3.422,4.066-5.324l0.691-1.097l13.603,1.942c0.375,0.013,0.577-0.041,0.682-0.076
		c0.22-0.277,1.048-1.567,2.438-6.605c1.255-4.539,2-7.873,2.219-9.912l0.033-0.207c0.037-0.179,0.009-0.246-0.04-0.33
		c-0.084-0.148-0.3-0.252-0.466-0.313c-5.213-1.979-9.043-3.547-11.729-4.799l-1.119-0.522l-0.033-1.235
		c-0.054-1.891-0.324-4.155-0.804-6.73l-0.221-1.182l11.416-9.093C191.706,122.978,191.725,122.916,191.734,122.816z
		 M161.346,147.023c-1.449,5.389-4.642,9.537-9.488,12.33c-3.191,1.838-6.534,2.76-9.986,2.76c-1.785,0-3.597-0.245-5.434-0.738
		c-5.396-1.453-9.545-4.643-12.333-9.48c-2.792-4.849-3.472-10.041-2.021-15.436c1.449-5.39,4.639-9.538,9.482-12.328
		c4.847-2.794,10.036-3.474,15.427-2.023c5.396,1.45,9.549,4.643,12.342,9.489C162.121,136.436,162.799,141.626,161.346,147.023z"/>
	<path fill="none" d="M94.586,115.586l11.143,1.535c0,0,0.001-0.001,0.001-0.002l-11.143-1.535c-1.225-0.165-2.314,0.02-3.234,0.551
		c-0.314,0.181-0.626,0.433-0.946,0.814c0.319-0.38,0.63-0.631,0.944-0.812C92.272,115.607,93.36,115.421,94.586,115.586z"/>
	<path fill="none" d="M166.178,104.952c0.132-1.043,0.313-2.359,0.559-4.057C166.49,102.592,166.309,103.907,166.178,104.952z"/>
	<path fill="none" d="M121.971,87.793c0.438-0.054,0.882-0.062,1.328,0.011c1.162,0.192,2.114,0.779,2.766,1.701l7.517,9.409
		c1.623-0.301,3.212-0.513,4.746-0.636l4.456-10.48c0.331-1.028,1.04-1.877,2.058-2.461c0.94-0.543,2.065-0.724,3.242-0.516
		l0.1,0.02c5.799,1.316,10.199,2.471,13.31,3.495c1.346,0.443,2.455,0.863,3.325,1.259c0.9,0.34,1.637,0.999,2.19,1.959
		c0.374,0.649,0.58,1.382,0.609,2.153c-0.028-0.771-0.235-1.505-0.609-2.154c-0.553-0.96-1.29-1.619-2.19-1.959
		c-0.87-0.396-1.979-0.816-3.325-1.259V66.239c0-0.529-0.433-0.96-0.96-0.96h-37.6c-0.529,0-0.96,0.431-0.96,0.96v21.553
		c-0.319,0.039-0.635,0.109-0.943,0.21C121.337,87.901,121.652,87.832,121.971,87.793z"/>
	<path fill="none" d="M167.556,94.808c-0.105,0.993-0.317,2.701-0.724,5.427C167.24,97.51,167.45,95.802,167.556,94.808z"/>
	<path fill="none" d="M66.24,104.798h37.6c0.529,0,0.96-0.431,0.96-0.96v-0.362c0-0.001-0.001-0.003-0.002-0.005
		c-0.234-0.697-0.43-1.321-0.575-1.85c-0.423-1.464-0.203-2.806,0.575-3.885c0-0.001,0.001-0.001,0.002-0.002V66.238
		c0-0.529-0.431-0.96-0.96-0.96h-37.6c-0.529,0-0.96,0.431-0.96,0.96v37.6C65.28,104.367,65.711,104.798,66.24,104.798z"/>
	<path fill="none" d="M217.227,65.278h-37.602c-0.527,0-0.96,0.431-0.96,0.96v37.6c0,0.529,0.433,0.96,0.96,0.96h1.186
		l-10.361,4.033c-1.322-1.147-2.777-2.255-4.342-3.311c0,0,0,0,0,0.001c1.565,1.056,3.02,2.164,4.342,3.311l10.361-4.033
		l0.851-0.331c1.063-0.416,2.185-0.399,3.243,0.044l-0.004-0.004c0.199,0.084,0.379,0.186,0.56,0.29
		c0.722,0.418,1.306,0.993,1.731,1.73l7.936,13.773c0.294,0.511,0.473,1.077,0.555,1.669c0.055,0.412,0.074,0.834,0.025,1.267
		c-0.113,1.147-0.63,2.143-1.491,2.851l-9.567,7.622c0.299,1.78,0.498,3.422,0.598,4.905c2.514,1.122,5.984,2.525,10.344,4.179
		c1.109,0.41,1.991,1.124,2.53,2.062c0.536,0.929,0.711,1.983,0.508,3.054c-0.254,2.286-1.017,5.71-2.329,10.46
		c-0.33,1.193-0.639,2.227-0.933,3.123c-1.294,3.96-2.274,5.266-3.287,5.85c-0.204,0.117-0.421,0.22-0.648,0.306
		c0.229-0.086,0.447-0.188,0.652-0.307c1.013-0.584,1.993-1.89,3.287-5.85h21.856c0.528,0,0.959-0.433,0.959-0.962v-37.598
		c0-0.529-0.431-0.96-0.959-0.96h-21.541c-0.082-0.591-0.26-1.158-0.554-1.669l-7.937-13.773c-0.424-0.737-1.008-1.312-1.73-1.73
		h31.762c0.528,0,0.959-0.431,0.959-0.96V66.238C218.186,65.709,217.754,65.278,217.227,65.278z"/>
	<path fill="none" d="M66.239,161.49H87.74c-0.055-0.405-0.073-0.821-0.025-1.247c0.146-1.451,0.847-2.325,1.41-2.8l9.611-7.645
		c-0.307-1.598-0.508-3.27-0.604-4.999c-2.797-1.257-6.262-2.657-10.321-4.17c-1.142-0.422-1.987-1.097-2.509-2.004
		c-0.45-0.779-0.627-1.761-0.526-2.918c0.248-2.29,1.031-5.827,2.333-10.555c0.339-1.217,0.657-2.269,0.957-3.18
		c0,0,0-0.001,0-0.002H66.239c-0.529,0-0.96,0.431-0.96,0.96v37.598C65.279,161.059,65.71,161.49,66.239,161.49z"/>
	<path fill="none" d="M161.488,195.682c-0.449,0.059-0.906,0.064-1.366-0.011c-1.142-0.183-2.097-0.769-2.754-1.696l-7.519-9.412
		c-1.621,0.301-3.209,0.514-4.74,0.635l-4.41,10.473c-0.363,1.045-1.073,1.877-2.111,2.473c-0.674,0.391-1.419,0.586-2.198,0.586
		c-0.403,0-0.816-0.053-1.233-0.158c-5.657-1.225-10.021-2.341-13.184-3.372v22.028c0,0.527,0.431,0.959,0.96,0.959h37.6
		c0.527,0,0.96-0.432,0.96-0.959v-21.545c0.239-0.031,0.473-0.094,0.706-0.159C161.965,195.589,161.729,195.651,161.488,195.682z"/>
	<path fill="none" d="M217.227,178.665h-37.601c-0.528,0-0.96,0.433-0.96,0.96v0.461c-0.786-2.348-2.066-5.604-3.891-9.891
		c1.043-1.211,2.022-2.493,2.926-3.83h-0.004c-0.904,1.338-1.883,2.619-2.926,3.83c1.826,4.287,3.105,7.545,3.891,9.892
		c0.222,0.662,0.41,1.263,0.553,1.78c0.414,1.443,0.203,2.77-0.553,3.84c-0.393,0.557-0.924,1.047-1.607,1.443l-13.779,7.937
		c-0.281,0.163-0.573,0.292-0.871,0.39c0.3-0.098,0.593-0.227,0.875-0.391l13.779-7.938c0.684-0.395,1.215-0.885,1.607-1.442v31.521
		c0,0.527,0.432,0.959,0.96,0.959h37.601c0.528,0,0.959-0.432,0.959-0.959v-37.602C218.186,179.098,217.755,178.665,217.227,178.665
		z"/>
	<path fill="none" d="M103.839,178.665h-1.195l-0.005,0.002l-0.858,0.339c-1.086,0.424-2.21,0.41-3.259-0.033
		c-0.207-0.089-0.4-0.195-0.588-0.306c-0.001-0.001-0.002-0.001-0.003-0.002H66.239c-0.529,0-0.96,0.433-0.96,0.96v37.602
		c0,0.527,0.431,0.959,0.96,0.959h37.6c0.529,0,0.96-0.432,0.96-0.959v-37.602C104.799,179.098,104.368,178.665,103.839,178.665z"/>
	<path d="M141.732,7.086C67.369,7.086,7.086,67.369,7.086,141.732c0,74.364,60.283,134.646,134.646,134.646
		c74.364,0,134.646-60.282,134.646-134.646C276.378,67.369,216.096,7.086,141.732,7.086z M121.973,66.239
		c0-0.529,0.431-0.96,0.96-0.96h37.6c0.527,0,0.96,0.431,0.96,0.96v22.096c1.347,0.443,2.455,0.863,3.325,1.259
		c0.9,0.34,1.638,0.999,2.19,1.959c0.374,0.649,0.581,1.383,0.609,2.154c-0.029-0.771-0.235-1.504-0.609-2.153
		c-0.554-0.96-1.29-1.619-2.19-1.959c-0.87-0.396-1.979-0.816-3.325-1.259c-3.11-1.024-7.511-2.179-13.31-3.495l-0.1-0.02
		c-1.177-0.208-2.302-0.027-3.242,0.516c-1.018,0.584-1.727,1.433-2.058,2.461l-4.456,10.48c-1.534,0.123-3.123,0.335-4.746,0.636
		l-7.517-9.409c-0.652-0.922-1.604-1.509-2.766-1.701c-0.446-0.073-0.89-0.065-1.328-0.011c-0.319,0.039-0.634,0.108-0.941,0.209
		c0.309-0.101,0.624-0.171,0.943-0.21V66.239z M167.556,94.808c-0.105,0.994-0.315,2.702-0.724,5.427
		C167.238,97.509,167.45,95.801,167.556,94.808z M166.736,100.895c-0.246,1.698-0.427,3.014-0.559,4.057
		C166.309,103.907,166.49,102.592,166.736,100.895z M180.509,133.255c0.479,2.575,0.75,4.839,0.804,6.73l0.033,1.235l1.119,0.522
		c2.686,1.252,6.516,2.82,11.729,4.799c0.166,0.061,0.382,0.164,0.466,0.313c0.049,0.084,0.077,0.151,0.04,0.33l-0.033,0.207
		c-0.219,2.039-0.964,5.373-2.219,9.912c-1.391,5.038-2.219,6.328-2.438,6.605c-0.104,0.035-0.307,0.089-0.682,0.076l-13.603-1.942
		l-0.691,1.097c-1.201,1.902-2.569,3.693-4.066,5.324l-0.876,0.953l0.511,1.189c2.525,5.875,4.129,10.021,4.769,12.344
		c0.122,0.423,0.112,0.49-0.31,0.734l-13.779,7.938c-0.221,0.127-0.372,0.123-0.508,0.102c-0.082-0.014-0.11-0.029-0.142-0.068
		l-9.179-11.5l-1.204,0.254c-2.297,0.48-4.515,0.775-6.595,0.875l-1.258,0.061l-5.409,12.84l-0.059,0.156
		c-0.021,0.066-0.057,0.178-0.336,0.338c-0.062,0.034-0.154,0.092-0.515-0.002c-7.738-1.676-13.07-3.154-15.818-4.385
		c-0.092-0.043-0.23-0.128-0.368-0.367c-0.026-0.045-0.105-0.182-0.067-0.521c0.104-1.104,0.342-2.908,0.769-5.846
		c0.447-3.027,0.708-5.002,0.847-6.402l0.124-1.245l-1.067-0.655c-2.141-1.314-4.075-2.8-5.748-4.412l-0.926-0.893l-13.501,5.332
		c-0.133,0.052-0.166,0.039-0.24,0.007c-0.182-0.077-0.29-0.171-0.384-0.334l-7.936-13.774c-0.026-0.046-0.106-0.185-0.07-0.513
		c0.01-0.099,0.025-0.155,0.035-0.183l11.455-9.109l-0.285-1.23c-0.481-2.078-0.755-4.332-0.815-6.701l-0.031-1.239l-1.124-0.523
		c-3.066-1.428-7.008-3.042-11.722-4.799c-0.304-0.113-0.418-0.219-0.421-0.22c0-0.001-0.061-0.169-0.027-0.563
		c0.22-2.036,0.963-5.36,2.207-9.876c1.414-5.072,2.221-6.357,2.463-6.652c0.144-0.046,0.365-0.054,0.62-0.02l13.658,1.881
		l0.689-1.083c1.23-1.934,2.601-3.729,4.076-5.333l0.875-0.954l-0.511-1.189c-2.525-5.87-4.125-10.011-4.762-12.334
		c-0.129-0.446-0.103-0.509,0.304-0.744l13.775-7.937c0.178-0.103,0.323-0.134,0.501-0.104c0.09,0.015,0.122,0.034,0.149,0.069
		l9.18,11.502l1.205-0.253c2.294-0.482,4.513-0.777,6.593-0.877l1.254-0.06l5.47-12.866l0.083-0.234
		c0.007-0.026,0.029-0.104,0.248-0.229c0.044-0.025,0.172-0.102,0.517-0.048c7.967,1.81,13.305,3.326,15.864,4.509l0.153,0.059
		c0.001,0,0.066,0.05,0.171,0.229c0.026,0.045,0.104,0.184,0.067,0.515c-0.133,1.331-0.407,3.409-0.776,5.862
		c-0.454,3.129-0.705,5.042-0.84,6.395l-0.121,1.222l1.034,0.661c2.16,1.38,4.099,2.861,5.764,4.403l0.919,0.851l13.524-5.265
		c0.097-0.038,0.139-0.039,0.244,0.007l0.002-0.002c0.174,0.077,0.277,0.169,0.369,0.327l7.938,13.768
		c0.026,0.046,0.106,0.185,0.069,0.517c-0.01,0.1-0.028,0.162-0.03,0.164l-11.416,9.093L180.509,133.255z M90.408,116.949
		c0.32-0.381,0.631-0.633,0.946-0.814c0.92-0.531,2.009-0.716,3.234-0.551l11.143,1.535c0,0-0.001,0.001-0.001,0.002l-11.143-1.535
		c-1.226-0.165-2.314,0.021-3.234,0.551C91.039,116.318,90.728,116.569,90.408,116.949z M65.28,66.238c0-0.529,0.431-0.96,0.96-0.96
		h37.6c0.529,0,0.96,0.431,0.96,0.96v31.495c0,0.001-0.001,0.001-0.002,0.002c-0.778,1.079-0.998,2.421-0.575,3.885
		c0.145,0.529,0.341,1.153,0.575,1.85c0,0.002,0.001,0.004,0.002,0.005v0.362c0,0.529-0.431,0.96-0.96,0.96h-37.6
		c-0.529,0-0.96-0.431-0.96-0.96V66.238z M65.279,122.931c0-0.529,0.431-0.96,0.96-0.96h21.828c0,0,0,0.001,0,0.002
		c-0.3,0.911-0.618,1.963-0.957,3.18c-1.302,4.728-2.085,8.265-2.333,10.555c-0.101,1.157,0.076,2.139,0.526,2.918
		c0.522,0.907,1.367,1.582,2.509,2.004c4.059,1.513,7.524,2.913,10.321,4.17c0.096,1.729,0.297,3.401,0.604,4.999l-9.611,7.645
		c-0.563,0.475-1.264,1.349-1.41,2.8c-0.048,0.426-0.03,0.842,0.025,1.247H66.239c-0.529,0-0.96-0.432-0.96-0.961V122.931z
		 M104.799,217.227c0,0.527-0.431,0.959-0.96,0.959h-37.6c-0.529,0-0.96-0.432-0.96-0.959v-37.602c0-0.527,0.431-0.96,0.96-0.96
		h31.692c0.001,0.001,0.002,0.001,0.003,0.002c0.188,0.11,0.381,0.217,0.588,0.306c1.049,0.443,2.173,0.457,3.259,0.033l0.858-0.339
		l0.005-0.002h1.195c0.529,0,0.96,0.433,0.96,0.96V217.227z M161.493,217.227c0,0.527-0.433,0.959-0.96,0.959h-37.6
		c-0.529,0-0.96-0.432-0.96-0.959v-22.028c3.164,1.031,7.527,2.147,13.184,3.372c0.417,0.105,0.83,0.158,1.233,0.158
		c0.779,0,1.524-0.195,2.198-0.586c1.038-0.596,1.748-1.428,2.111-2.473l4.41-10.473c1.531-0.121,3.119-0.334,4.74-0.635
		l7.519,9.412c0.657,0.928,1.612,1.514,2.754,1.696c0.46,0.075,0.917,0.069,1.366,0.011c0.24-0.03,0.477-0.093,0.711-0.159
		c-0.233,0.065-0.467,0.128-0.706,0.159V217.227z M218.186,217.227c0,0.527-0.431,0.959-0.959,0.959h-37.601
		c-0.528,0-0.96-0.432-0.96-0.959v-31.521c-0.393,0.558-0.924,1.048-1.607,1.442l-13.779,7.938
		c-0.282,0.164-0.575,0.293-0.875,0.391c0.298-0.098,0.59-0.227,0.871-0.39l13.779-7.937c0.684-0.396,1.215-0.887,1.607-1.443
		c0.756-1.07,0.967-2.396,0.553-3.84c-0.143-0.518-0.331-1.118-0.553-1.78c-0.785-2.347-2.064-5.604-3.891-9.892
		c1.043-1.211,2.021-2.492,2.926-3.83h0.004c-0.903,1.337-1.883,2.619-2.926,3.83c1.824,4.287,3.104,7.543,3.891,9.891v-0.461
		c0-0.527,0.432-0.96,0.96-0.96h37.601c0.528,0,0.959,0.433,0.959,0.96V217.227z M218.186,103.839c0,0.529-0.431,0.96-0.959,0.96
		h-31.762c0.723,0.418,1.307,0.993,1.73,1.73l7.937,13.773c0.294,0.511,0.472,1.078,0.554,1.669h21.541
		c0.528,0,0.959,0.431,0.959,0.96v37.598c0,0.529-0.431,0.962-0.959,0.962H195.37c-1.294,3.96-2.274,5.266-3.287,5.85
		c-0.205,0.118-0.423,0.221-0.652,0.307c0.228-0.086,0.444-0.188,0.648-0.306c1.013-0.584,1.993-1.89,3.287-5.85
		c0.294-0.896,0.603-1.93,0.933-3.123c1.313-4.75,2.075-8.174,2.329-10.46c0.203-1.07,0.028-2.125-0.508-3.054
		c-0.539-0.938-1.421-1.651-2.53-2.062c-4.359-1.654-7.83-3.057-10.344-4.179c-0.1-1.483-0.299-3.125-0.598-4.905l9.567-7.622
		c0.861-0.708,1.378-1.704,1.491-2.851c0.049-0.433,0.029-0.855-0.025-1.267c-0.082-0.592-0.261-1.158-0.555-1.669l-7.936-13.773
		c-0.426-0.737-1.01-1.312-1.731-1.73c-0.181-0.104-0.36-0.206-0.56-0.29l0.004,0.004c-1.059-0.443-2.18-0.46-3.243-0.044
		l-0.851,0.331l-10.361,4.033c-1.322-1.147-2.776-2.255-4.342-3.311c0,0,0,0,0-0.001c1.564,1.056,3.02,2.164,4.342,3.311
		l10.361-4.033h-1.186c-0.527,0-0.96-0.431-0.96-0.96v-37.6c0-0.529,0.433-0.96,0.96-0.96h37.602c0.527,0,0.959,0.431,0.959,0.96
		V103.839z"/>
	<path d="M146.992,122.108c-5.391-1.451-10.58-0.771-15.427,2.023c-4.843,2.79-8.033,6.938-9.482,12.328
		c-1.451,5.395-0.771,10.587,2.021,15.436c2.788,4.838,6.937,8.027,12.333,9.48c1.837,0.493,3.649,0.738,5.434,0.738
		c3.452,0,6.795-0.922,9.986-2.76c4.847-2.793,8.039-6.941,9.488-12.33c1.453-5.397,0.775-10.587-2.012-15.426
		C156.541,126.751,152.389,123.558,146.992,122.108z"/>
</g>
</svg>
