<?xml version="1.0" encoding="utf-8"?>
<!-- Generator: Adobe Illustrator 15.1.0, SVG Export Plug-In . SVG Version: 6.00 Build 0)  -->
<!DOCTYPE svg PUBLIC "-//W3C//DTD SVG 1.1//EN" "http://www.w3.org/Graphics/SVG/1.1/DTD/svg11.dtd">
<svg version="1.1" id="Layer_1" xmlns="http://www.w3.org/2000/svg" xmlns:xlink="http://www.w3.org/1999/xlink" x="0px" y="0px"
	 width="283.46px" height="283.46px" viewBox="0 0 283.46 283.46" enable-background="new 0 0 283.46 283.46" xml:space="preserve">
<g>
	<path fill="none" d="M118.986,150.351H34.25c-7.912,0-14.325,6.191-14.325,13.83v85.727c0,7.639,6.413,13.83,14.325,13.83h84.736
		c7.912,0,14.325-6.191,14.325-13.83v-85.727C133.311,156.542,126.898,150.351,118.986,150.351z M115.311,245.738H37.925v-77.387
		h77.386V245.738z"/>
	<path fill="none" d="M161.808,136.179h84.736c7.912,0,14.324-6.192,14.324-13.83V36.623c0-7.638-6.412-13.83-14.324-13.83h-84.736
		c-7.911,0-14.324,6.192-14.324,13.83v85.726C147.484,129.987,153.897,136.179,161.808,136.179z M165.484,40.793h77.385v77.386
		h-77.385V40.793z"/>
	<path fill="none" d="M118.986,22.793H34.25c-7.912,0-14.325,6.192-14.325,13.83v85.726c0,7.638,6.413,13.83,14.325,13.83h84.736
		c7.912,0,14.325-6.192,14.325-13.83V36.623C133.311,28.985,126.898,22.793,118.986,22.793z M115.311,118.179H37.925V40.793h77.386
		V118.179z"/>
	<path d="M273.221,7.084H10.239c-3.243,0-5.872,2.628-5.872,5.872v257.547c0,3.244,2.628,5.871,5.872,5.871H273.22
		c3.244,0,5.871-2.627,5.871-5.871V12.957C279.091,9.713,276.464,7.084,273.221,7.084z M133.311,249.908
		c0,7.639-6.413,13.83-14.325,13.83H34.25c-7.912,0-14.325-6.191-14.325-13.83v-85.727c0-7.639,6.413-13.83,14.325-13.83h84.736
		c7.912,0,14.325,6.191,14.325,13.83V249.908z M133.311,122.349c0,7.638-6.413,13.83-14.325,13.83H34.25
		c-7.912,0-14.325-6.192-14.325-13.83V36.623c0-7.638,6.413-13.83,14.325-13.83h84.736c7.912,0,14.325,6.192,14.325,13.83V122.349z
		 M147.484,36.623c0-7.638,6.413-13.83,14.324-13.83h84.736c7.912,0,14.324,6.192,14.324,13.83v85.726
		c0,7.638-6.412,13.83-14.324,13.83h-84.736c-7.911,0-14.324-6.192-14.324-13.83V36.623z M209.438,259.167
		c-1.405,1.403-3.274,2.178-5.26,2.178c-1.988,0-3.855-0.773-5.261-2.178c-1.404-1.406-2.18-3.273-2.179-5.262l-0.001-39.421
		l-39.421-0.001c-1.987,0.001-3.854-0.771-5.26-2.179c-1.405-1.405-2.181-3.271-2.181-5.259c0-1.986,0.774-3.855,2.181-5.26
		c1.403-1.404,3.272-2.18,5.26-2.18h39.421l0.001-39.422c0.001-1.986,0.773-3.855,2.179-5.26c1.404-1.405,3.273-2.18,5.262-2.18
		c1.984,0,3.854,0.772,5.259,2.18c1.403,1.404,2.179,3.271,2.179,5.26v39.422h39.424c1.987,0,3.854,0.773,5.258,2.18
		c1.404,1.404,2.18,3.271,2.18,5.258c0,1.987-0.773,3.854-2.18,5.262c-1.404,1.404-3.272,2.178-5.26,2.178l-39.422,0.001
		l-0.001,39.422C211.616,255.893,210.843,257.761,209.438,259.167z"/>
	<rect x="37.925" y="168.351" width="77.386" height="77.387"/>
	<rect x="37.925" y="40.793" width="77.386" height="77.386"/>
	<rect x="165.484" y="40.793" width="77.385" height="77.386"/>
</g>
</svg>
