<?xml version="1.0" encoding="utf-8"?>
<!-- Generator: Adobe Illustrator 15.1.0, SVG Export Plug-In . SVG Version: 6.00 Build 0)  -->
<!DOCTYPE svg PUBLIC "-//W3C//DTD SVG 1.1//EN" "http://www.w3.org/Graphics/SVG/1.1/DTD/svg11.dtd">
<svg version="1.1" id="Layer_2" xmlns="http://www.w3.org/2000/svg" xmlns:xlink="http://www.w3.org/1999/xlink" x="0px" y="0px"
	 width="283.46px" height="283.46px" viewBox="0 0 283.46 283.46" enable-background="new 0 0 283.46 283.46" xml:space="preserve">
<g>
	<path fill="#231F20" d="M221.952,7.101H61.475c-30.057,0-54.391,24.335-54.391,54.391v160.51c0,30.023,24.334,54.357,54.391,54.357
		h160.51c30.023,0,54.391-24.334,54.391-54.391V61.492C276.342,31.436,252.008,7.101,221.952,7.101z M81.535,220.286
		c-3.366,5.891-10.871,7.876-16.762,4.51c-5.89-3.365-7.876-10.87-4.51-16.761l8.751-15.146c9.895-3.063,17.939-0.707,24.3,6.966
		L81.535,220.286z M166.621,187.234H55.214c-6.799,0-12.251-5.452-12.251-12.25c0-6.8,5.452-12.252,12.251-12.252h31.234
		l39.984-69.3l-12.487-21.675c-3.365-5.891-1.38-13.328,4.511-16.762c5.89-3.365,13.328-1.38,16.762,4.51l5.351,9.458l5.452-9.424
		c3.365-5.891,10.872-7.876,16.762-4.51c5.89,3.365,7.876,10.871,4.51,16.761l-52.538,90.941h37.999
		C165.071,162.732,171.971,177.205,166.621,187.234z M226.63,187.302h-17.703l11.948,20.732c3.365,5.891,1.38,13.328-4.51,16.761
		c-5.891,3.366-13.328,1.381-16.763-4.51c-20.126-34.902-35.239-61.02-45.269-78.421c-10.265-17.703-2.928-35.475,4.309-41.499
		c8.044,13.8,20.06,34.633,36.114,62.434h31.873c6.799,0,12.251,5.452,12.251,12.251S233.429,187.302,226.63,187.302z"/>
</g>
</svg>
