<?xml version="1.0" encoding="utf-8"?>
<!-- Generator: Adobe Illustrator 15.1.0, SVG Export Plug-In . SVG Version: 6.00 Build 0)  -->
<!DOCTYPE svg PUBLIC "-//W3C//DTD SVG 1.1//EN" "http://www.w3.org/Graphics/SVG/1.1/DTD/svg11.dtd">
<svg version="1.1" id="Layer_1" xmlns="http://www.w3.org/2000/svg" xmlns:xlink="http://www.w3.org/1999/xlink" x="0px" y="0px"
	 width="283.465px" height="283.465px" viewBox="0 0 283.465 283.465" enable-background="new 0 0 283.465 283.465"
	 xml:space="preserve">
<g>
	<path fill="none" d="M98.525,178.971c-0.208-0.088-0.4-0.194-0.588-0.305H66.239c-0.529,0-0.96,0.432-0.96,0.96v37.601
		c0,0.528,0.431,0.959,0.96,0.959h37.6c0.529,0,0.96-0.431,0.96-0.959v-37.601c0-0.528-0.431-0.96-0.96-0.96h-1.196l-0.858,0.339
		C100.699,179.429,99.574,179.415,98.525,178.971z"/>
	<path fill="none" d="M87.717,160.242c0.146-1.451,0.847-2.325,1.41-2.799l9.611-7.645c-0.306-1.598-0.508-3.271-0.604-4.999
		c-2.797-1.258-6.262-2.658-10.321-4.17c-1.142-0.423-1.987-1.098-2.509-2.004c-0.45-0.779-0.627-1.761-0.526-2.918
		c0.247-2.29,1.031-5.827,2.333-10.555c0.339-1.217,0.657-2.269,0.957-3.18H66.239c-0.529,0-0.96,0.431-0.96,0.96v37.599
		c0,0.529,0.431,0.961,0.96,0.961h21.504C87.688,161.086,87.669,160.669,87.717,160.242z"/>
	<path fill="none" d="M195.712,123.239c-0.113,1.147-0.63,2.142-1.491,2.851l-9.568,7.622c0.299,1.78,0.499,3.422,0.598,4.905
		c2.514,1.122,5.984,2.524,10.344,4.179c1.109,0.409,1.991,1.124,2.53,2.061c0.536,0.929,0.711,1.983,0.508,3.054
		c-0.254,2.286-1.017,5.71-2.329,10.46c-0.33,1.193-0.639,2.226-0.933,3.123h21.856c0.528,0,0.959-0.432,0.959-0.961v-37.599
		c0-0.529-0.431-0.96-0.959-0.96h-21.541C195.742,122.384,195.761,122.806,195.712,123.239z"/>
	<path fill="none" d="M160.125,195.671c-1.142-0.183-2.097-0.77-2.754-1.697l-7.518-9.411c-1.622,0.301-3.209,0.513-4.74,0.635
		l-4.411,10.472c-0.364,1.045-1.074,1.877-2.111,2.473c-0.673,0.39-1.418,0.586-2.198,0.586c-0.403,0-0.816-0.053-1.233-0.159
		c-5.659-1.225-10.024-2.341-13.188-3.373v22.031c0,0.528,0.431,0.959,0.96,0.959h37.6c0.528,0,0.96-0.431,0.96-0.959v-21.545
		C161.042,195.74,160.585,195.746,160.125,195.671z"/>
	<path fill="none" d="M104.799,97.734V66.239c0-0.529-0.431-0.96-0.96-0.96h-37.6c-0.529,0-0.96,0.431-0.96,0.96v37.6
		c0,0.529,0.431,0.96,0.96,0.96h37.6c0.529,0,0.96-0.431,0.96-0.96v-0.37c-0.234-0.696-0.43-1.32-0.575-1.85
		C103.801,100.156,104.021,98.813,104.799,97.734z"/>
	<path fill="none" d="M123.3,87.804c1.162,0.191,2.114,0.779,2.766,1.701l7.517,9.409c1.624-0.301,3.212-0.514,4.746-0.636
		l4.456-10.48c0.331-1.028,1.04-1.876,2.058-2.461c0.94-0.543,2.065-0.724,3.242-0.516l0.099,0.02
		c5.8,1.316,10.199,2.471,13.31,3.495V66.239c0-0.529-0.432-0.96-0.96-0.96h-37.6c-0.529,0-0.96,0.431-0.96,0.96v21.554
		C122.41,87.739,122.854,87.731,123.3,87.804z"/>
	<path fill="none" d="M178.666,185.707v31.52c0,0.528,0.432,0.959,0.96,0.959h37.601c0.528,0,0.959-0.431,0.959-0.959v-37.601
		c0-0.528-0.431-0.96-0.959-0.96h-37.601c-0.528,0-0.96,0.432-0.96,0.96v0.461c0.222,0.662,0.41,1.263,0.553,1.78
		C179.633,183.311,179.422,184.636,178.666,185.707z"/>
	<path fill="none" d="M145.953,125.97c-1.508-0.406-2.977-0.61-4.416-0.61c-2.747,0-5.383,0.742-7.976,2.236
		c-3.945,2.273-6.437,5.512-7.617,9.901c-1.182,4.394-0.65,8.45,1.625,12.4c2.271,3.94,5.511,6.431,9.906,7.614
		c4.391,1.181,8.441,0.647,12.385-1.624c3.948-2.275,6.442-5.515,7.622-9.903c1.184-4.397,0.654-8.45-1.616-12.391
		C153.593,129.646,150.35,127.152,145.953,125.97z"/>
	<path fill="none" d="M217.227,65.279h-37.601c-0.528,0-0.96,0.431-0.96,0.96v37.6c0,0.529,0.432,0.96,0.96,0.96h1.185l0.851-0.331
		c1.064-0.416,2.185-0.399,3.244,0.044l0.001-0.002c0.197,0.083,0.379,0.186,0.559,0.29h31.762c0.528,0,0.959-0.431,0.959-0.96
		v-37.6C218.186,65.71,217.755,65.279,217.227,65.279z"/>
	<path d="M141.732,7.086C67.369,7.086,7.086,67.369,7.086,141.732c0,74.364,60.283,134.646,134.646,134.646
		c74.364,0,134.646-60.282,134.646-134.646C276.378,67.369,216.096,7.086,141.732,7.086z M218.186,103.839
		c0,0.529-0.431,0.96-0.959,0.96h-31.762c0.722,0.418,1.307,0.993,1.731,1.73l7.936,13.773c0.294,0.511,0.472,1.078,0.554,1.669
		h21.541c0.528,0,0.959,0.431,0.959,0.96v37.599c0,0.529-0.431,0.961-0.959,0.961H195.37c-1.294,3.96-2.274,5.266-3.287,5.85
		c-0.818,0.47-1.822,0.693-3.008,0.638l-0.204-0.019l-11.17-1.595c-0.903,1.337-1.883,2.619-2.925,3.83
		c1.824,4.287,3.104,7.544,3.89,9.891v-0.461c0-0.528,0.432-0.96,0.96-0.96h37.601c0.528,0,0.959,0.432,0.959,0.96v37.601
		c0,0.528-0.431,0.959-0.959,0.959h-37.601c-0.528,0-0.96-0.431-0.96-0.959v-31.52c-0.393,0.557-0.924,1.048-1.608,1.443
		l-13.778,7.937c-0.564,0.326-1.169,0.516-1.787,0.595v21.545c0,0.528-0.432,0.959-0.96,0.959h-37.6c-0.529,0-0.96-0.431-0.96-0.959
		v-22.031c-1.336-0.437-2.462-0.857-3.374-1.266c-0.919-0.43-1.66-1.119-2.172-2.009c-0.497-0.861-0.698-1.876-0.579-2.932
		c0.107-1.139,0.352-3.003,0.79-6.013c0.32-2.167,0.542-3.772,0.689-5.001c-1.582-1.041-3.054-2.17-4.4-3.372l-10.284,4.063h1.196
		c0.529,0,0.96,0.432,0.96,0.96v37.601c0,0.528-0.431,0.959-0.96,0.959h-37.6c-0.529,0-0.96-0.431-0.96-0.959v-37.601
		c0-0.528,0.431-0.96,0.96-0.96h31.698c-0.708-0.417-1.283-0.987-1.703-1.717l-7.935-13.773c-0.297-0.515-0.475-1.086-0.556-1.684
		H66.239c-0.529,0-0.96-0.432-0.96-0.961v-37.599c0-0.529,0.431-0.96,0.96-0.96h21.829c1.304-3.957,2.281-5.257,3.286-5.836
		c0.92-0.531,2.009-0.716,3.234-0.551l11.143,1.535c0.916-1.352,1.897-2.636,2.93-3.839c-1.782-4.187-3.071-7.465-3.861-9.812v0.37
		c0,0.529-0.431,0.96-0.96,0.96h-37.6c-0.529,0-0.96-0.431-0.96-0.96v-37.6c0-0.529,0.431-0.96,0.96-0.96h37.6
		c0.529,0,0.96,0.431,0.96,0.96v31.496c0.39-0.542,0.911-1.021,1.582-1.408l13.775-7.937c0.572-0.33,1.187-0.52,1.816-0.597V66.239
		c0-0.529,0.431-0.96,0.96-0.96h37.6c0.528,0,0.96,0.431,0.96,0.96v22.096c1.347,0.443,2.455,0.863,3.325,1.259
		c0.901,0.34,1.638,0.999,2.191,1.959c0.499,0.865,0.699,1.881,0.58,2.936c-0.096,0.96-0.314,2.811-0.798,6.023
		c-0.322,2.222-0.54,3.811-0.684,5.008c1.565,1.056,3.02,2.164,4.342,3.311l10.361-4.033h-1.185c-0.528,0-0.96-0.431-0.96-0.96
		v-37.6c0-0.529,0.432-0.96,0.96-0.96h37.601c0.528,0,0.959,0.431,0.959,0.96V103.839z"/>
	<path d="M184.905,104.512c-1.06-0.443-2.18-0.46-3.244-0.044l-0.851,0.331l-10.361,4.033c-1.322-1.147-2.776-2.255-4.342-3.311
		c0.144-1.198,0.361-2.787,0.684-5.008c0.483-3.213,0.702-5.063,0.798-6.023c0.119-1.055-0.081-2.07-0.58-2.936
		c-0.554-0.96-1.29-1.619-2.191-1.959c-0.87-0.396-1.979-0.816-3.325-1.259c-3.11-1.024-7.51-2.179-13.31-3.495l-0.099-0.02
		c-1.177-0.208-2.302-0.027-3.242,0.516c-1.018,0.584-1.727,1.433-2.058,2.461l-4.456,10.48c-1.534,0.123-3.123,0.335-4.746,0.636
		l-7.517-9.409c-0.652-0.922-1.604-1.509-2.766-1.701c-0.446-0.073-0.89-0.065-1.328-0.011c-0.629,0.077-1.244,0.267-1.816,0.597
		l-13.775,7.937c-0.671,0.387-1.192,0.867-1.582,1.408c-0.778,1.079-0.998,2.421-0.575,3.885c0.145,0.529,0.341,1.153,0.575,1.85
		c0.79,2.346,2.079,5.625,3.861,9.812c-1.033,1.203-2.014,2.487-2.93,3.839l-11.143-1.535c-1.226-0.165-2.314,0.021-3.234,0.551
		c-1.005,0.579-1.982,1.88-3.286,5.836c-0.3,0.911-0.618,1.963-0.957,3.18c-1.302,4.728-2.085,8.265-2.333,10.555
		c-0.101,1.157,0.076,2.139,0.526,2.918c0.522,0.907,1.367,1.582,2.509,2.004c4.059,1.513,7.524,2.913,10.321,4.17
		c0.096,1.729,0.297,3.401,0.604,4.999l-9.611,7.645c-0.563,0.474-1.264,1.348-1.41,2.799c-0.048,0.427-0.03,0.844,0.025,1.25
		c0.082,0.598,0.259,1.169,0.556,1.684l7.935,13.773c0.42,0.729,0.995,1.3,1.703,1.717c0.188,0.11,0.381,0.217,0.588,0.305
		c1.049,0.444,2.173,0.458,3.259,0.034l0.858-0.339l10.284-4.063c1.346,1.202,2.818,2.331,4.4,3.372
		c-0.148,1.229-0.37,2.834-0.689,5.001c-0.438,3.01-0.683,4.874-0.79,6.013c-0.119,1.056,0.082,2.07,0.579,2.932
		c0.512,0.89,1.252,1.579,2.172,2.009c0.912,0.408,2.038,0.829,3.374,1.266c3.164,1.032,7.529,2.148,13.188,3.373
		c0.417,0.106,0.83,0.159,1.233,0.159c0.779,0,1.524-0.196,2.198-0.586c1.038-0.596,1.748-1.428,2.111-2.473l4.411-10.472
		c1.531-0.122,3.118-0.334,4.74-0.635l7.518,9.411c0.657,0.928,1.612,1.515,2.754,1.697c0.46,0.075,0.917,0.069,1.367,0.011
		c0.618-0.079,1.223-0.269,1.787-0.595l13.778-7.937c0.685-0.396,1.216-0.887,1.608-1.443c0.756-1.071,0.967-2.396,0.553-3.84
		c-0.143-0.518-0.331-1.118-0.553-1.78c-0.785-2.347-2.065-5.604-3.89-9.891c1.042-1.211,2.021-2.493,2.925-3.83l11.17,1.595
		l0.204,0.019c1.186,0.056,2.189-0.168,3.008-0.638c1.013-0.584,1.993-1.89,3.287-5.85c0.294-0.897,0.603-1.93,0.933-3.123
		c1.313-4.75,2.075-8.174,2.329-10.46c0.203-1.07,0.028-2.125-0.508-3.054c-0.539-0.937-1.421-1.651-2.53-2.061
		c-4.359-1.654-7.83-3.057-10.344-4.179c-0.099-1.483-0.299-3.125-0.598-4.905l9.568-7.622c0.861-0.708,1.378-1.704,1.491-2.851
		c0.049-0.433,0.03-0.855-0.026-1.267c-0.082-0.592-0.26-1.158-0.554-1.669l-7.936-13.773c-0.425-0.737-1.01-1.312-1.731-1.73
		c-0.18-0.104-0.361-0.206-0.559-0.29L184.905,104.512z M191.665,122.299c0.026,0.046,0.106,0.185,0.069,0.517
		c-0.01,0.1-0.028,0.162-0.03,0.164l-11.416,9.093l0.221,1.182c0.48,2.575,0.75,4.839,0.803,6.73l0.034,1.235l1.119,0.522
		c2.685,1.252,6.515,2.821,11.728,4.799c0.166,0.061,0.382,0.164,0.466,0.312c0.049,0.084,0.078,0.152,0.04,0.33l-0.033,0.208
		c-0.218,2.038-0.964,5.373-2.218,9.912c-1.392,5.038-2.219,6.328-2.439,6.605c-0.105,0.035-0.307,0.089-0.682,0.076l-13.603-1.942
		l-0.691,1.096c-1.201,1.903-2.569,3.694-4.066,5.325l-0.876,0.953l0.511,1.189c2.525,5.876,4.128,10.021,4.768,12.344
		c0.122,0.423,0.112,0.491-0.309,0.734l-13.779,7.938c-0.221,0.127-0.373,0.123-0.508,0.102c-0.082-0.014-0.111-0.029-0.142-0.068
		l-9.179-11.5l-1.204,0.253c-2.297,0.481-4.515,0.775-6.594,0.875l-1.259,0.061l-5.408,12.839l-0.059,0.157
		c-0.021,0.066-0.057,0.177-0.336,0.337c-0.062,0.035-0.154,0.092-0.515-0.001c-7.738-1.676-13.07-3.155-15.818-4.385
		c-0.092-0.043-0.23-0.128-0.368-0.367c-0.026-0.045-0.105-0.182-0.067-0.522c0.104-1.104,0.342-2.908,0.769-5.845
		c0.447-3.028,0.708-5.003,0.847-6.402l0.124-1.246l-1.067-0.655c-2.141-1.315-4.075-2.8-5.748-4.412l-0.926-0.893l-13.501,5.333
		c-0.133,0.051-0.166,0.038-0.24,0.006c-0.182-0.077-0.29-0.171-0.384-0.334l-7.936-13.774c-0.026-0.046-0.106-0.185-0.07-0.513
		c0.01-0.098,0.025-0.155,0.035-0.183l11.455-9.109l-0.285-1.23c-0.481-2.078-0.755-4.333-0.815-6.701l-0.031-1.24l-1.124-0.523
		c-3.066-1.428-7.008-3.042-11.722-4.799c-0.304-0.113-0.418-0.219-0.421-0.22c0-0.001-0.061-0.169-0.027-0.563
		c0.22-2.036,0.963-5.36,2.207-9.876c1.414-5.072,2.221-6.357,2.463-6.652c0.144-0.046,0.365-0.054,0.62-0.02l13.658,1.881
		l0.689-1.083c1.23-1.934,2.601-3.729,4.076-5.333l0.875-0.954l-0.511-1.189c-2.525-5.87-4.125-10.011-4.762-12.334
		c-0.129-0.446-0.103-0.509,0.304-0.744l13.775-7.937c0.178-0.103,0.323-0.134,0.501-0.104c0.09,0.015,0.122,0.034,0.149,0.069
		l9.18,11.502l1.205-0.253c2.294-0.482,4.513-0.777,6.593-0.877l1.254-0.06l5.47-12.866l0.083-0.234
		c0.007-0.026,0.029-0.104,0.248-0.229c0.044-0.025,0.172-0.102,0.517-0.048c7.967,1.81,13.305,3.326,15.864,4.509l0.153,0.059
		c0.001,0,0.067,0.05,0.171,0.229c0.026,0.045,0.105,0.184,0.068,0.515c-0.133,1.331-0.408,3.409-0.777,5.862
		c-0.454,3.129-0.705,5.042-0.84,6.395l-0.121,1.222l1.034,0.661c2.16,1.38,4.099,2.861,5.764,4.403l0.919,0.851l13.524-5.265
		c0.097-0.038,0.139-0.039,0.245,0.007l0.001-0.002c0.175,0.077,0.278,0.169,0.369,0.327L191.665,122.299z"/>
	<path d="M159.334,131.597c-2.793-4.846-6.945-8.039-12.342-9.489c-5.391-1.451-10.58-0.771-15.427,2.023
		c-4.843,2.79-8.033,6.938-9.482,12.328c-1.451,5.395-0.771,10.587,2.021,15.436c2.788,4.837,6.937,8.027,12.333,9.48
		c1.837,0.493,3.649,0.739,5.434,0.739c3.452,0,6.795-0.922,9.987-2.761c4.846-2.793,8.038-6.941,9.488-12.33
		C162.799,141.626,162.121,136.436,159.334,131.597z M157.483,145.984c-1.18,4.389-3.674,7.628-7.622,9.903
		c-3.944,2.271-7.995,2.805-12.385,1.624c-4.395-1.184-7.636-3.674-9.906-7.614c-2.275-3.95-2.807-8.006-1.625-12.4
		c1.18-4.39,3.671-7.628,7.617-9.901c2.592-1.494,5.229-2.236,7.976-2.236c1.439,0,2.908,0.204,4.416,0.61
		c4.396,1.182,7.64,3.675,9.914,7.624C158.138,137.534,158.667,141.587,157.483,145.984z"/>
</g>
</svg>
