<?xml version="1.0" encoding="utf-8"?>
<!-- Generator: Adobe Illustrator 15.1.0, SVG Export Plug-In . SVG Version: 6.00 Build 0)  -->
<!DOCTYPE svg PUBLIC "-//W3C//DTD SVG 1.1//EN" "http://www.w3.org/Graphics/SVG/1.1/DTD/svg11.dtd">
<svg version="1.1" id="Layer_1" xmlns="http://www.w3.org/2000/svg" xmlns:xlink="http://www.w3.org/1999/xlink" x="0px" y="0px"
	 width="283.465px" height="283.465px" viewBox="0 0 283.465 283.465" enable-background="new 0 0 283.465 283.465"
	 xml:space="preserve">
<g id="Layer_2" display="none">
	<path display="inline" d="M276.378,267.031c0,5.162-4.185,9.347-9.347,9.347H16.434c-5.162,0-9.347-4.185-9.347-9.347V16.434
		c0-5.162,4.185-9.347,9.347-9.347h250.598c5.161,0,9.347,4.185,9.347,9.347L276.378,267.031L276.378,267.031z"/>
</g>
<g>
	<path fill="none" d="M65.279,122.932v37.599c0,0.529,0.431,0.961,0.96,0.961h37.6c0.529,0,0.96-0.432,0.96-0.961v-37.599
		c0-0.529-0.431-0.96-0.96-0.96h-37.6C65.71,121.972,65.279,122.403,65.279,122.932z"/>
	<path fill="none" d="M103.839,65.279h-37.6c-0.529,0-0.96,0.431-0.96,0.96v37.6c0,0.529,0.431,0.96,0.96,0.96h37.6
		c0.529,0,0.96-0.431,0.96-0.96v-37.6C104.799,65.71,104.368,65.279,103.839,65.279z"/>
	<path fill="none" d="M103.839,62.279c2.183,0,3.96,1.776,3.96,3.96C107.799,64.055,106.023,62.279,103.839,62.279z"/>
	<path fill="none" d="M65.279,179.626v37.601c0,0.528,0.431,0.959,0.96,0.959h37.6c0.529,0,0.96-0.431,0.96-0.959v-37.601
		c0-0.528-0.431-0.96-0.96-0.96h-37.6C65.71,178.666,65.279,179.098,65.279,179.626z"/>
	<path fill="none" d="M62.279,122.932c0-2.183,1.776-3.96,3.96-3.96C64.055,118.972,62.279,120.748,62.279,122.932z"/>
	<path fill="none" d="M217.227,178.666h-37.601c-0.528,0-0.96,0.432-0.96,0.96v37.601c0,0.528,0.432,0.959,0.96,0.959h37.601
		c0.528,0,0.959-0.431,0.959-0.959v-37.601C218.186,179.098,217.755,178.666,217.227,178.666z"/>
	<path fill="none" d="M217.227,121.972h-37.601c-0.528,0-0.96,0.431-0.96,0.96v37.599c0,0.529,0.432,0.961,0.96,0.961h37.601
		c0.528,0,0.959-0.432,0.959-0.961v-37.599C218.186,122.403,217.755,121.972,217.227,121.972z"/>
	<path fill="none" d="M160.532,65.279h-37.6c-0.529,0-0.96,0.431-0.96,0.96v37.6c0,0.529,0.431,0.96,0.96,0.96h37.6
		c0.53,0,0.96-0.431,0.96-0.96v-37.6C161.492,65.71,161.061,65.279,160.532,65.279z"/>
	<path fill="none" d="M160.532,121.972h-37.6c-0.529,0-0.96,0.431-0.96,0.96v37.599c0,0.529,0.431,0.961,0.96,0.961h37.6
		c0.528,0,0.96-0.432,0.96-0.961v-37.599C161.492,122.403,161.061,121.972,160.532,121.972z"/>
	<path fill="none" d="M160.532,178.666h-37.6c-0.529,0-0.96,0.432-0.96,0.96v37.601c0,0.528,0.431,0.959,0.96,0.959h37.6
		c0.528,0,0.96-0.431,0.96-0.959v-37.601C161.492,179.098,161.061,178.666,160.532,178.666z"/>
	<path fill="none" d="M217.227,65.279h-37.601c-0.528,0-0.96,0.431-0.96,0.96v37.6c0,0.529,0.432,0.96,0.96,0.96h37.601
		c0.528,0,0.959-0.431,0.959-0.96v-37.6C218.186,65.71,217.755,65.279,217.227,65.279z"/>
	<g>
		<path fill="none" d="M65.279,179.626v37.601c0,0.528,0.431,0.959,0.96,0.959h37.6c0.529,0,0.96-0.431,0.96-0.959v-37.601
			c0-0.528-0.431-0.96-0.96-0.96h-37.6C65.71,178.666,65.279,179.098,65.279,179.626z"/>
		<path fill="none" d="M65.279,122.932v37.599c0,0.529,0.431,0.961,0.96,0.961h37.6c0.529,0,0.96-0.432,0.96-0.961v-37.599
			c0-0.529-0.431-0.96-0.96-0.96h-37.6C65.71,121.972,65.279,122.403,65.279,122.932z"/>
		<path fill="none" d="M62.279,122.932c0-2.183,1.776-3.96,3.96-3.96C64.055,118.972,62.279,120.748,62.279,122.932z"/>
		<path fill="none" d="M103.839,65.279h-37.6c-0.529,0-0.96,0.431-0.96,0.96v37.6c0,0.529,0.431,0.96,0.96,0.96h37.6
			c0.529,0,0.96-0.431,0.96-0.96v-37.6C104.799,65.71,104.368,65.279,103.839,65.279z"/>
		<path fill="none" d="M217.227,65.279h-37.601c-0.528,0-0.96,0.431-0.96,0.96v37.6c0,0.529,0.432,0.96,0.96,0.96h37.601
			c0.528,0,0.959-0.431,0.959-0.96v-37.6C218.186,65.71,217.755,65.279,217.227,65.279z"/>
		<path fill="none" d="M103.839,62.279c2.183,0,3.96,1.776,3.96,3.96C107.799,64.055,106.023,62.279,103.839,62.279z"/>
		<path fill="none" d="M160.532,65.279h-37.6c-0.529,0-0.96,0.431-0.96,0.96v37.6c0,0.529,0.431,0.96,0.96,0.96h37.6
			c0.53,0,0.96-0.431,0.96-0.96v-37.6C161.492,65.71,161.061,65.279,160.532,65.279z"/>
		<path d="M141.732,7.086C67.369,7.086,7.086,67.369,7.086,141.732c0,74.364,60.283,134.646,134.646,134.646
			c13.318,0,26.18-1.942,38.331-5.545l-72.264-55.897v-35.31c0-2.185-1.776-3.96-3.96-3.96H83.837v-11.174h20.002
			c2.184,0,3.96-1.777,3.96-3.961v-37.599c0-2.184-1.776-3.96-3.96-3.96H83.837v-11.173h20.002c2.184,0,3.96-1.776,3.96-3.96V73.566
			h11.173v30.273c0,2.184,1.776,3.96,3.96,3.96h37.6c2.184,0,3.96-1.776,3.96-3.96V73.566h11.174v30.273
			c0,2.184,1.775,3.96,3.96,3.96h37.601c2.184,0,3.959-1.776,3.959-3.96V93.072l55.053,42.67
			C273.104,64.16,214.087,7.086,141.732,7.086z M103.839,178.666c0.529,0,0.96,0.432,0.96,0.96v37.601
			c0,0.528-0.431,0.959-0.96,0.959h-37.6c-0.529,0-0.96-0.431-0.96-0.959v-37.601c0-0.528,0.431-0.96,0.96-0.96H103.839z
			 M103.839,121.972c0.529,0,0.96,0.431,0.96,0.96v37.599c0,0.529-0.431,0.961-0.96,0.961h-37.6c-0.529,0-0.96-0.432-0.96-0.961
			v-37.599c0-0.529,0.431-0.96,0.96-0.96H103.839z M104.799,103.839c0,0.529-0.431,0.96-0.96,0.96h-37.6
			c-0.529,0-0.96-0.431-0.96-0.96v-37.6c0-0.529,0.431-0.96,0.96-0.96h37.6c0.529,0,0.96,0.431,0.96,0.96V103.839z M161.492,103.839
			c0,0.529-0.43,0.96-0.96,0.96h-37.6c-0.529,0-0.96-0.431-0.96-0.96v-37.6c0-0.529,0.431-0.96,0.96-0.96h37.6
			c0.528,0,0.96,0.431,0.96,0.96V103.839z M218.186,103.839c0,0.529-0.431,0.96-0.959,0.96h-37.601c-0.528,0-0.96-0.431-0.96-0.96
			v-37.6c0-0.529,0.432-0.96,0.96-0.96h37.601c0.528,0,0.959,0.431,0.959,0.96V103.839z"/>
	</g>
	<path d="M164.492,122.932c0-2.183-1.776-3.96-3.96-3.96h-37.6c-2.184,0-3.96,1.776-3.96,3.96v37.599
		c0,2.184,1.776,3.961,3.96,3.961h37.6c2.184,0,3.96-1.777,3.96-3.961V122.932z M161.492,160.531c0,0.529-0.432,0.961-0.96,0.961
		h-37.6c-0.529,0-0.96-0.432-0.96-0.961v-37.599c0-0.529,0.431-0.96,0.96-0.96h37.6c0.528,0,0.96,0.431,0.96,0.96V160.531z"/>
	<path d="M160.532,175.666h-37.6c-2.184,0-3.96,1.775-3.96,3.96v37.601c0,2.184,1.776,3.959,3.96,3.959h37.6
		c2.184,0,3.96-1.775,3.96-3.959v-37.601C164.492,177.441,162.716,175.666,160.532,175.666z M161.492,217.227
		c0,0.528-0.432,0.959-0.96,0.959h-37.6c-0.529,0-0.96-0.431-0.96-0.959v-37.601c0-0.528,0.431-0.96,0.96-0.96h37.6
		c0.528,0,0.96,0.432,0.96,0.96V217.227z"/>
	<path d="M217.227,118.972h-37.601c-2.185,0-3.96,1.776-3.96,3.96v37.599c0,2.184,1.775,3.961,3.96,3.961h37.601
		c2.184,0,3.959-1.777,3.959-3.961v-37.599C221.186,120.748,219.41,118.972,217.227,118.972z M218.186,160.531
		c0,0.529-0.431,0.961-0.959,0.961h-37.601c-0.528,0-0.96-0.432-0.96-0.961v-37.599c0-0.529,0.432-0.96,0.96-0.96h37.601
		c0.528,0,0.959,0.431,0.959,0.96V160.531z"/>
	<path d="M217.227,175.666h-37.601c-2.185,0-3.96,1.775-3.96,3.96v37.601c0,2.184,1.775,3.959,3.96,3.959h37.601
		c2.183,0,3.959-1.776,3.959-3.959v-37.601C221.186,177.441,219.41,175.666,217.227,175.666z M218.186,217.227
		c0,0.528-0.431,0.959-0.959,0.959h-37.601c-0.528,0-0.96-0.431-0.96-0.959v-37.601c0-0.528,0.432-0.96,0.96-0.96h37.601
		c0.528,0,0.959,0.432,0.959,0.96V217.227z"/>
</g>
</svg>
