<?xml version="1.0" encoding="utf-8"?>
<!-- Generator: Adobe Illustrator 15.1.0, SVG Export Plug-In . SVG Version: 6.00 Build 0)  -->
<!DOCTYPE svg PUBLIC "-//W3C//DTD SVG 1.1//EN" "http://www.w3.org/Graphics/SVG/1.1/DTD/svg11.dtd">
<svg version="1.1" id="Layer_2" xmlns="http://www.w3.org/2000/svg" xmlns:xlink="http://www.w3.org/1999/xlink" x="0px" y="0px"
	 width="283.46px" height="283.46px" viewBox="0 0 283.46 283.46" enable-background="new 0 0 283.46 283.46" xml:space="preserve">
<g>
	<path fill="none" d="M261.381,160.485c0-2.776-1.082-5.388-3.046-7.35c-1.962-1.963-4.571-3.044-7.348-3.044
		s-5.387,1.081-7.35,3.045l-38.95,38.95l-38.95-38.95c-1.963-1.964-4.572-3.045-7.35-3.045c-2.775,0-5.386,1.081-7.349,3.045
		c-1.963,1.961-3.045,4.572-3.045,7.349c0,2.775,1.082,5.385,3.045,7.348l38.95,38.952l-38.95,38.951
		c-1.963,1.963-3.045,4.572-3.045,7.348c0,2.777,1.082,5.387,3.045,7.351c1.963,1.962,4.572,3.043,7.349,3.043
		c2.774,0,5.384-1.08,7.348-3.042l38.952-38.953l38.95,38.951c1.966,1.964,4.575,3.044,7.35,3.044c2.776,0,5.386-1.081,7.349-3.044
		s3.045-4.572,3.045-7.35c0-2.775-1.082-5.385-3.045-7.349l-38.95-38.95l38.95-38.952
		C260.299,165.87,261.381,163.26,261.381,160.485z M252.549,155.79c0.711,0.235,1.385,0.616,1.95,1.183
		C253.934,156.406,253.26,156.026,252.549,155.79z"/>
	<path d="M273.221,7.084H10.239c-3.243,0-5.872,2.628-5.872,5.872v257.547c0,3.244,2.628,5.871,5.872,5.871H273.22
		c3.244,0,5.871-2.627,5.871-5.871V12.957C279.091,9.713,276.464,7.084,273.221,7.084z M133.311,249.908
		c0,7.639-6.413,13.83-14.325,13.83H34.25c-7.912,0-14.325-6.191-14.325-13.83v-85.727c0-7.639,6.413-13.83,14.325-13.83h84.736
		c7.912,0,14.325,6.191,14.325,13.83V249.908z M133.311,122.349c0,7.638-6.413,13.83-14.325,13.83H34.25
		c-7.912,0-14.325-6.192-14.325-13.83V36.623c0-7.638,6.413-13.83,14.325-13.83h84.736c7.912,0,14.325,6.192,14.325,13.83V122.349z
		 M147.484,36.623c0-7.638,6.413-13.83,14.324-13.83h84.736c7.912,0,14.324,6.192,14.324,13.83v85.726
		c0,7.638-6.412,13.83-14.324,13.83h-84.736c-7.911,0-14.324-6.192-14.324-13.83V36.623z M258.336,245.735
		c1.963,1.964,3.045,4.573,3.045,7.349c0,2.777-1.082,5.387-3.045,7.35s-4.572,3.044-7.349,3.044c-2.774,0-5.384-1.08-7.35-3.044
		l-38.95-38.951l-38.952,38.953c-1.964,1.962-4.573,3.042-7.348,3.042c-2.776,0-5.386-1.081-7.349-3.043
		c-1.963-1.964-3.045-4.573-3.045-7.351c0-2.775,1.082-5.385,3.045-7.348l38.95-38.951l-38.95-38.952
		c-1.963-1.963-3.045-4.572-3.045-7.348c0-2.776,1.082-5.388,3.045-7.349c1.963-1.964,4.573-3.045,7.349-3.045
		c2.777,0,5.387,1.081,7.35,3.045l38.95,38.95l38.95-38.95c1.963-1.964,4.573-3.045,7.35-3.045s5.386,1.081,7.348,3.044
		c1.964,1.962,3.046,4.573,3.046,7.35c0,2.775-1.082,5.385-3.045,7.348l-38.95,38.952L258.336,245.735z"/>
	<path d="M254.5,156.972c-0.565-0.566-1.239-0.947-1.95-1.183C253.26,156.026,253.934,156.406,254.5,156.972z"/>
	<rect x="37.925" y="168.351" width="77.386" height="77.387"/>
	<rect x="37.925" y="40.793" width="77.386" height="77.386"/>
	<rect x="165.484" y="40.793" width="77.385" height="77.386"/>
</g>
</svg>
