<?xml version="1.0" encoding="utf-8"?>
<!-- Generator: Adobe Illustrator 15.1.0, SVG Export Plug-In . SVG Version: 6.00 Build 0)  -->
<!DOCTYPE svg PUBLIC "-//W3C//DTD SVG 1.1//EN" "http://www.w3.org/Graphics/SVG/1.1/DTD/svg11.dtd">
<svg version="1.1" id="Layer_1" xmlns="http://www.w3.org/2000/svg" xmlns:xlink="http://www.w3.org/1999/xlink" x="0px" y="0px"
	 width="283.46px" height="283.46px" viewBox="0 0 283.46 283.46" enable-background="new 0 0 283.46 283.46" xml:space="preserve">
<g id="Layer_1_1_" xmlns:serif="http://www.serif.com/">
</g>
<g>
	<path d="M247.944,7.084H35.515c-15.701,0-28.431,12.729-28.431,28.43v31.342h269.292V35.514
		C276.376,19.813,263.647,7.084,247.944,7.084z"/>
	<path d="M7.084,247.946c0,15.701,12.729,28.431,28.431,28.431h212.431c15.702,0,28.431-12.729,28.431-28.431V74.855H7.084V247.946z
		 M261.73,102.43v141.331c0,1.564-1.27,2.834-2.835,2.834H24.565c-1.565,0-2.835-1.27-2.835-2.834V102.43
		c0-1.565,1.27-2.835,2.835-2.835h234.33C260.46,99.595,261.73,100.865,261.73,102.43z"/>
	<path d="M105.481,115.807c-1.689,1.665-2.85,2.933-3.479,3.8c-0.213,0.236-0.316,0.506-0.317,0.811
		c0.001,0.304,0.116,0.599,0.352,0.881c1.688,2.062,2.946,3.679,3.763,4.853c-0.465,0.871-0.923,1.936-1.369,3.203l-6.509,0.984
		c-0.278,0.048-0.512,0.202-0.702,0.459c-0.188,0.257-0.282,0.526-0.282,0.811l0.001,7.81c0,0.305,0.095,0.583,0.283,0.826H97.22
		c0.188,0.244,0.432,0.393,0.741,0.44l6.437,0.982c0.351,1.127,0.836,2.272,1.445,3.445c-0.426,0.587-1.057,1.413-1.9,2.482
		c-0.843,1.065-1.443,1.847-1.794,2.338c-0.187,0.261-0.281,0.526-0.281,0.809c0,0.33,0.081,0.587,0.249,0.776
		c0.843,1.198,2.778,3.186,5.804,5.978c0.283,0.233,0.574,0.355,0.878,0.354c0.355,0,0.633-0.108,0.847-0.317l4.994-3.768
		c0.963,0.492,2.016,0.928,3.168,1.304l0.986,6.472c0.021,0.308,0.158,0.556,0.402,0.758c0.249,0.2,0.534,0.297,0.865,0.298
		l7.811-0.002c0.682,0,1.1-0.329,1.267-0.984c0.304-1.172,0.646-3.354,1.018-6.545c1.104-0.352,2.169-0.796,3.201-1.336l4.859,3.762
		c0.303,0.233,0.607,0.355,0.91,0.354c0.52,0,1.627-0.84,3.326-2.517c1.699-1.679,2.854-2.942,3.465-3.784
		c0.211-0.305,0.318-0.575,0.316-0.81c0-0.283-0.115-0.561-0.35-0.845c-1.572-1.9-2.826-3.517-3.768-4.855
		c0.586-1.074,1.043-2.158,1.372-3.237l6.541-0.984c0.262-0.047,0.484-0.197,0.672-0.458c0.184-0.258,0.277-0.528,0.277-0.811
		l-0.002-7.811c0-0.304-0.094-0.578-0.277-0.826c-0.189-0.248-0.434-0.395-0.742-0.44l-6.436-0.948
		c-0.332-1.147-0.811-2.31-1.444-3.479c0.418-0.586,1.051-1.412,1.899-2.479c0.844-1.071,1.441-1.849,1.793-2.342
		c0.188-0.257,0.283-0.527,0.281-0.808c0-0.305-0.084-0.574-0.248-0.81c-0.916-1.266-2.852-3.238-5.805-5.909
		c-0.257-0.262-0.553-0.389-0.882-0.389c-0.352,0-0.643,0.107-0.877,0.316l-4.959,3.767c-0.963-0.491-2.021-0.926-3.168-1.304
		l-0.985-6.472c-0.027-0.303-0.159-0.556-0.407-0.756c-0.245-0.202-0.531-0.299-0.862-0.3l-7.811,0.002
		c-0.681,0-1.104,0.329-1.267,0.984c-0.304,1.173-0.645,3.356-1.018,6.545c-1.104,0.351-2.172,0.796-3.205,1.336l-4.854-3.799
		c-0.331-0.21-0.633-0.312-0.917-0.312C108.271,113.312,107.167,114.141,105.481,115.807z M117.59,129.212
		c1.758-1.759,3.881-2.642,6.368-2.642c2.486-0.001,4.609,0.88,6.369,2.64c1.76,1.757,2.638,3.876,2.639,6.362
		c0,2.486-0.876,4.61-2.635,6.369c-1.758,1.76-3.881,2.642-6.368,2.643c-2.486,0.002-4.61-0.881-6.369-2.639
		c-1.76-1.758-2.639-3.882-2.639-6.367C114.953,133.091,115.832,130.972,117.59,129.212z"/>
	<polygon points="72.922,203.162 72.918,203.155 72.917,203.154 	"/>
	<path d="M141.37,191.203c-0.24-0.316-0.554-0.496-0.946-0.557l-8.239-1.213c-0.425-1.473-1.038-2.961-1.851-4.459
		c0.538-0.754,1.352-1.807,2.435-3.178c1.079-1.369,1.844-2.363,2.292-2.996c0.24-0.324,0.36-0.676,0.36-1.035
		c-0.001-0.385-0.104-0.736-0.314-1.037c-1.174-1.617-3.651-4.141-7.433-7.564c-0.334-0.324-0.706-0.486-1.125-0.486
		c-0.454,0-0.826,0.127-1.13,0.4l-6.346,4.822c-1.233-0.633-2.585-1.189-4.053-1.668l-1.267-8.287
		c-0.028-0.393-0.2-0.709-0.517-0.967c-0.313-0.256-0.685-0.385-1.104-0.385l-10,0.004c-0.872,0-1.412,0.418-1.62,1.258
		c-0.39,1.506-0.826,4.299-1.304,8.381c-1.413,0.445-2.783,1.02-4.096,1.713l-6.219-4.867c-0.422-0.266-0.811-0.404-1.169-0.404
		c-0.66,0-2.072,1.072-4.232,3.205c-2.16,2.131-3.645,3.75-4.453,4.861c-0.27,0.299-0.407,0.643-0.406,1.037
		c-0.001,0.385,0.148,0.762,0.448,1.119c2.163,2.646,3.771,4.717,4.823,6.215c-0.601,1.113-1.186,2.482-1.755,4.1l-8.329,1.262
		c-0.36,0.059-0.664,0.258-0.902,0.59c-0.24,0.326-0.36,0.678-0.36,1.037l0.003,9.998c0,0.392,0.12,0.739,0.356,1.054
		c0.239,0.316,0.552,0.505,0.944,0.564l8.245,1.257c0.45,1.445,1.066,2.917,1.845,4.416c-0.539,0.753-1.353,1.806-2.431,3.176
		c-1.082,1.361-1.843,2.363-2.297,2.997c-0.239,0.324-0.36,0.677-0.36,1.036c0,0.419,0.108,0.744,0.317,0.983
		c1.084,1.532,3.559,4.083,7.434,7.66c0.359,0.3,0.736,0.444,1.125,0.444c0.45,0,0.808-0.138,1.082-0.403l6.39-4.82
		c1.232,0.633,2.584,1.189,4.053,1.669l1.266,8.284c0.028,0.395,0.204,0.712,0.518,0.969c0.315,0.256,0.684,0.384,1.104,0.384
		l9.999-0.002c0.873,0,1.412-0.42,1.621-1.268c0.391-1.498,0.827-4.289,1.303-8.372c1.413-0.445,2.774-1.019,4.1-1.713l6.217,4.816
		c0.389,0.3,0.779,0.455,1.168,0.455c0.664-0.001,2.08-1.08,4.259-3.22c2.173-2.15,3.65-3.768,4.437-4.848
		c0.269-0.385,0.403-0.736,0.403-1.036c-0.001-0.358-0.151-0.72-0.449-1.077c-2.014-2.431-3.62-4.502-4.821-6.214
		c0.753-1.388,1.338-2.765,1.757-4.144l8.371-1.261c0.335-0.06,0.616-0.258,0.856-0.591c0.24-0.325,0.36-0.676,0.36-1.035l-0.003-10
		C141.73,191.871,141.61,191.519,141.37,191.203z M115.3,205.334c-2.25,2.252-4.969,3.373-8.148,3.374
		c-3.185,0.002-5.903-1.119-8.155-3.37s-3.379-4.972-3.38-8.156c0-3.176,1.125-5.899,3.376-8.151
		c2.25-2.251,4.967-3.373,8.153-3.374c3.179-0.002,5.898,1.12,8.15,3.369c2.252,2.252,3.378,4.975,3.378,8.15
		C118.675,200.36,117.55,203.083,115.3,205.334z"/>
	<path d="M210.535,171.582c-0.24-0.318-0.553-0.506-0.947-0.566l-8.238-1.213c-0.42-1.473-1.037-2.957-1.846-4.453
		c0.539-0.75,1.348-1.809,2.43-3.178c1.078-1.365,1.844-2.363,2.293-2.996c0.24-0.332,0.359-0.674,0.359-1.031
		c0-0.396-0.104-0.736-0.313-1.037c-1.174-1.621-3.652-4.146-7.432-7.564c-0.336-0.33-0.707-0.498-1.131-0.498
		c-0.449,0.002-0.826,0.139-1.125,0.408l-6.348,4.82c-1.232-0.633-2.584-1.184-4.053-1.666l-1.266-8.287
		c-0.029-0.391-0.201-0.715-0.518-0.967c-0.316-0.258-0.686-0.385-1.105-0.385l-9.998,0.002c-0.873,0-1.412,0.42-1.621,1.264
		c-0.389,1.496-0.824,4.293-1.303,8.371c-1.412,0.455-2.781,1.023-4.096,1.713l-6.221-4.859c-0.418-0.27-0.809-0.406-1.168-0.406
		c-0.66,0-2.07,1.066-4.232,3.197c-2.16,2.133-3.646,3.754-4.455,4.867c-0.268,0.301-0.406,0.643-0.406,1.037
		c0,0.389,0.15,0.766,0.451,1.125c2.162,2.641,3.771,4.713,4.82,6.213c-0.6,1.113-1.186,2.48-1.754,4.1l-8.328,1.264
		c-0.359,0.061-0.664,0.258-0.902,0.586c-0.239,0.33-0.359,0.676-0.359,1.037l0.003,9.998c0,0.389,0.12,0.744,0.359,1.057
		l-0.004-0.004c0.24,0.315,0.552,0.505,0.947,0.565l8.242,1.259c0.451,1.438,1.066,2.91,1.846,4.409
		c-0.539,0.752-1.346,1.811-2.43,3.176c-1.078,1.369-1.844,2.367-2.297,2.996c-0.24,0.33-0.359,0.677-0.359,1.037
		c0,0.419,0.107,0.749,0.316,0.992c1.08,1.532,3.559,4.082,7.434,7.654c0.359,0.297,0.734,0.45,1.125,0.45
		c0.449,0,0.809-0.138,1.082-0.407l6.395-4.821c1.229,0.629,2.58,1.185,4.053,1.668l1.262,8.286c0.029,0.39,0.205,0.714,0.518,0.966
		c0.316,0.258,0.684,0.387,1.104,0.385l9.998-0.002c0.873,0,1.412-0.418,1.621-1.264c0.391-1.496,0.826-4.291,1.305-8.375
		c1.412-0.451,2.777-1.02,4.1-1.713l6.217,4.816c0.389,0.299,0.777,0.449,1.168,0.449c0.662,0,2.08-1.07,4.258-3.221
		c2.174-2.145,3.654-3.762,4.438-4.84c0.27-0.391,0.402-0.736,0.402-1.037c0-0.359-0.146-0.719-0.451-1.078
		c-2.012-2.432-3.617-4.5-4.82-6.213c0.754-1.383,1.334-2.766,1.758-4.148l8.371-1.262c0.33-0.059,0.617-0.252,0.855-0.586
		c0.24-0.328,0.365-0.676,0.365-1.035l-0.004-9.998C210.898,172.248,210.773,171.898,210.535,171.582z M184.464,185.708
		c-2.252,2.248-4.969,3.378-8.148,3.379c-3.186,0-5.902-1.129-8.154-3.374c-2.252-2.256-3.379-4.969-3.379-8.154
		c-0.002-3.185,1.123-5.901,3.373-8.153c2.252-2.252,4.969-3.379,8.154-3.38c3.18-0.002,5.898,1.125,8.148,3.375
		c2.254,2.252,3.379,4.967,3.381,8.152C187.839,180.738,186.718,183.452,184.464,185.708z"/>
</g>
</svg>
