<?xml version="1.0" encoding="utf-8"?>
<!-- Generator: Adobe Illustrator 15.1.0, SVG Export Plug-In . SVG Version: 6.00 Build 0)  -->
<!DOCTYPE svg PUBLIC "-//W3C//DTD SVG 1.0//EN" "http://www.w3.org/TR/2001/REC-SVG-20010904/DTD/svg10.dtd">
<svg version="1.0" id="Layer_1" xmlns="http://www.w3.org/2000/svg" xmlns:xlink="http://www.w3.org/1999/xlink" x="0px" y="0px"
	 width="283.465px" height="283.465px" viewBox="877.268 1108.267 283.465 283.465"
	 enable-background="new 877.268 1108.267 283.465 283.465" xml:space="preserve">
<g>
	<path d="M1055.807,1165.151c16.283-19.565,12.894-39.875,12.894-39.875s-22.786,0.105-39.177,21.708
		c-14.574,19.209-10.863,35.639-10.863,35.639S1038.421,1186.042,1055.807,1165.151z"/>
	<path d="M1087.073,1257.469c0-33.468,26.978-47.261,26.978-47.261s-13.794-24.949-48.855-24.949
		c-20.37,0-36.019,11.59-44.451,11.59c-9.822,0-24.483-10.896-43.376-10.896c-29.063,0-60.048,26.022-60.048,75.628
		c0,50.419,36.606,113.143,65.582,113.142c10.114,0,25.644-10.187,41.293-10.187c15.355,0,26.687,9.82,41.261,9.82
		c31.73,0,55.224-66.122,55.224-66.122S1087.073,1295.224,1087.073,1257.469z"/>
</g>
</svg>
