<?xml version="1.0" encoding="utf-8"?>
<!-- Generator: Adobe Illustrator 15.1.0, SVG Export Plug-In . SVG Version: 6.00 Build 0)  -->
<!DOCTYPE svg PUBLIC "-//W3C//DTD SVG 1.1//EN" "http://www.w3.org/Graphics/SVG/1.1/DTD/svg11.dtd">
<svg version="1.1" id="Layer_2" xmlns="http://www.w3.org/2000/svg" xmlns:xlink="http://www.w3.org/1999/xlink" x="0px" y="0px"
	 width="283.46px" height="283.46px" viewBox="0 0 283.46 283.46" enable-background="new 0 0 283.46 283.46" xml:space="preserve">
<g>
	<path d="M230.724,134.786l-0.008-0.01l-0.373-0.158c-17.021-10.173-35.67-30.603-41.564-65.984V54.611
		c0-25.938-20.887-47.072-46.724-47.508V7.084c-0.109,0.001-0.217,0.009-0.325,0.01c-0.109-0.001-0.217-0.009-0.325-0.01v0.019
		c-25.836,0.436-46.723,21.57-46.723,47.508v14.022c-5.894,35.382-24.544,55.812-41.564,65.984l-0.374,0.158l-0.006,0.01
		c-2.906,0.253-5.211,3.769-5.211,8.083v0.087v7.363V268.27c0,1.07,0.146,2.09,0.403,3.025v5.08h5.14h16.94h71.395h0.65h71.396
		h16.941h5.14v-5.08c0.258-0.936,0.402-1.955,0.402-3.025V150.319v-7.363v-0.087C235.934,138.554,233.629,135.039,230.724,134.786z
		 M183.101,140.779h4.75c0.525,0,0.95,0.425,0.95,0.949c0,0.525-0.425,0.95-0.95,0.95h-4.75c-0.525,0-0.95-0.425-0.95-0.95
		C182.151,141.204,182.576,140.779,183.101,140.779z M178.351,140.779c0.524,0,0.95,0.425,0.95,0.949c0,0.525-0.426,0.95-0.95,0.95
		h-4.75c-0.525,0-0.95-0.425-0.95-0.95c0-0.524,0.425-0.949,0.95-0.949H178.351z M108.964,53.243h0.074
		c-0.043-0.659-0.074-1.322-0.074-1.992c0-17.118,14.669-30.994,32.766-30.994c18.096,0,32.766,13.876,32.766,30.994
		c0,0.67-0.03,1.333-0.074,1.992h0.074v26.231c0,3.12-2.528,5.648-5.647,5.648h-54.235c-3.119,0-5.648-2.528-5.648-5.648V53.243z
		 M169.8,141.728c0,0.525-0.425,0.95-0.95,0.95h-4.75c-0.525,0-0.95-0.425-0.95-0.95c0-0.524,0.425-0.949,0.95-0.949h4.75
		C169.375,140.779,169.8,141.204,169.8,141.728z M160.3,141.728c0,0.525-0.425,0.95-0.95,0.95h-4.75c-0.525,0-0.95-0.425-0.95-0.95
		c0-0.524,0.425-0.949,0.95-0.949h4.75C159.875,140.779,160.3,141.204,160.3,141.728z M150.8,141.728c0,0.525-0.426,0.95-0.95,0.95
		h-4.75c-0.525,0-0.95-0.425-0.95-0.95c0-0.524,0.425-0.949,0.95-0.949h4.75C150.375,140.779,150.8,141.204,150.8,141.728z
		 M141.299,141.728c0,0.525-0.426,0.95-0.95,0.95h-4.75c-0.525,0-0.95-0.425-0.95-0.95c0-0.524,0.425-0.949,0.95-0.949h4.75
		C140.874,140.779,141.299,141.204,141.299,141.728z M122.298,141.728c0,0.525-0.426,0.95-0.95,0.95h-4.75
		c-0.524,0-0.949-0.425-0.949-0.95c0-0.524,0.425-0.949,0.949-0.949h4.75C121.873,140.779,122.298,141.204,122.298,141.728z
		 M107.098,140.779h4.75c0.524,0,0.95,0.425,0.95,0.949c0,0.525-0.426,0.95-0.95,0.95h-4.75c-0.525,0-0.95-0.425-0.95-0.95
		C106.148,141.204,106.573,140.779,107.098,140.779z M97.598,140.779h4.75c0.524,0,0.95,0.425,0.95,0.949
		c0,0.525-0.426,0.95-0.95,0.95h-4.75c-0.525,0-0.95-0.425-0.95-0.95C96.648,141.204,97.073,140.779,97.598,140.779z
		 M87.636,141.711c0.677-0.602,1.558-0.933,2.482-0.933c0.001,0,0.002,0,0.002,0h2.728c0.523,0,0.949,0.425,0.949,0.949
		c0,0.525-0.426,0.95-0.949,0.95h-2.728c-0.001,0-0.001,0-0.002,0c-0.458,0-0.892,0.16-1.22,0.453
		c-0.181,0.161-0.406,0.24-0.631,0.24c-0.263,0-0.523-0.108-0.711-0.318C87.208,142.661,87.244,142.06,87.636,141.711z
		 M86.479,146.926c0-0.525,0.425-0.95,0.949-0.95s0.95,0.425,0.95,0.95v4.75c0,0.525-0.426,0.95-0.95,0.95s-0.949-0.425-0.949-0.95
		V146.926z M86.479,156.426c0-0.524,0.425-0.949,0.949-0.949s0.95,0.425,0.95,0.949v4.751c0,0.524-0.426,0.949-0.95,0.949
		s-0.949-0.425-0.949-0.949V156.426z M86.479,165.927c0-0.525,0.425-0.95,0.949-0.95s0.95,0.425,0.95,0.95v4.75
		c0,0.525-0.426,0.95-0.95,0.95s-0.949-0.425-0.949-0.95V165.927z M86.479,175.427c0-0.525,0.425-0.95,0.949-0.95
		s0.95,0.425,0.95,0.95v4.75c0,0.525-0.426,0.95-0.95,0.95s-0.949-0.425-0.949-0.95V175.427z M87.428,190.627
		c-0.524,0-0.949-0.425-0.949-0.949v-4.751c0-0.524,0.425-0.949,0.949-0.949s0.95,0.425,0.95,0.949v4.751
		C88.378,190.203,87.953,190.627,87.428,190.627z M93.903,194.771h-3.782c-0.433,0-0.858-0.072-1.265-0.215
		c-0.495-0.175-0.756-0.717-0.581-1.212c0.173-0.494,0.716-0.759,1.211-0.581c0.203,0.072,0.417,0.108,0.635,0.108h3.782
		c0.523,0,0.95,0.425,0.95,0.949C94.853,194.346,94.426,194.771,93.903,194.771z M103.403,194.771h-4.75
		c-0.525,0-0.95-0.425-0.95-0.95c0-0.524,0.425-0.949,0.95-0.949h4.75c0.524,0,0.95,0.425,0.95,0.949
		C104.353,194.346,103.927,194.771,103.403,194.771z M112.903,194.771h-4.75c-0.525,0-0.95-0.425-0.95-0.95
		c0-0.524,0.425-0.949,0.95-0.949h4.75c0.524,0,0.95,0.425,0.95,0.949C113.853,194.346,113.427,194.771,112.903,194.771z
		 M122.404,194.771h-4.75c-0.525,0-0.95-0.425-0.95-0.95c0-0.524,0.425-0.949,0.95-0.949h4.75c0.523,0,0.95,0.425,0.95,0.949
		C123.354,194.346,122.927,194.771,122.404,194.771z M125.351,167.245h-0.037c0.022,0.404,0.037,0.812,0.037,1.222
		c0,10.5-7.337,19.012-16.387,19.012c-9.051,0-16.387-8.512-16.387-19.012c0-0.41,0.015-0.817,0.037-1.222h-0.037v-16.091
		c0-1.913,1.265-3.464,2.824-3.464h27.125c1.56,0,2.824,1.551,2.824,3.464V167.245z M125.149,141.728
		c0-0.524,0.425-0.949,0.95-0.949h4.75c0.524,0,0.95,0.425,0.95,0.949c0,0.525-0.426,0.95-0.95,0.95h-4.75
		C125.574,142.678,125.149,142.253,125.149,141.728z M131.904,194.771h-4.75c-0.525,0-0.95-0.425-0.95-0.95
		c0-0.524,0.425-0.949,0.95-0.949h4.75c0.524,0,0.95,0.425,0.95,0.949C132.854,194.346,132.428,194.771,131.904,194.771z
		 M141.404,194.771h-4.75c-0.525,0-0.95-0.425-0.95-0.95c0-0.524,0.425-0.949,0.95-0.949h4.75c0.524,0,0.95,0.425,0.95,0.949
		C142.354,194.346,141.928,194.771,141.404,194.771z M150.905,194.771h-4.75c-0.525,0-0.95-0.425-0.95-0.95
		c0-0.524,0.425-0.949,0.95-0.949h4.75c0.525,0,0.95,0.425,0.95,0.949C151.855,194.346,151.43,194.771,150.905,194.771z
		 M160.405,194.771h-4.75c-0.525,0-0.95-0.425-0.95-0.95c0-0.524,0.425-0.949,0.95-0.949h4.75c0.525,0,0.95,0.425,0.95,0.949
		C161.355,194.346,160.93,194.771,160.405,194.771z M169.906,194.771h-4.751c-0.524,0-0.949-0.425-0.949-0.95
		c0-0.524,0.425-0.949,0.949-0.949h4.751c0.524,0,0.949,0.425,0.949,0.949C170.855,194.346,170.43,194.771,169.906,194.771z
		 M136.188,187.477c-1.487,0-2.693-1.083-2.693-2.417v-34.953c0-1.334,1.206-2.417,2.693-2.417h35.614
		c1.487,0,2.693,1.083,2.693,2.417v34.953c0,1.334-1.206,2.417-2.693,2.417H136.188z M179.406,194.771h-4.75
		c-0.525,0-0.95-0.425-0.95-0.95c0-0.524,0.425-0.949,0.95-0.949h4.75c0.525,0,0.95,0.425,0.95,0.949
		C180.356,194.346,179.931,194.771,179.406,194.771z M188.906,194.771h-4.75c-0.525,0-0.95-0.425-0.95-0.95
		c0-0.524,0.425-0.949,0.95-0.949h4.75c0.525,0,0.95,0.425,0.95,0.949C189.856,194.346,189.431,194.771,188.906,194.771z
		 M191.944,185.885c0,0.88-0.604,1.592-1.348,1.592h-8.706c-0.744,0-1.347-0.712-1.347-1.592v-36.606c0-0.879,0.603-1.59,1.347-1.59
		h8.706c0.744,0,1.348,0.711,1.348,1.59V185.885z M191.651,141.728c0-0.524,0.425-0.949,0.95-0.949h1.704
		c1.431,0,2.735,0.804,3.323,2.047c0.224,0.475,0.021,1.041-0.452,1.266c-0.132,0.062-0.271,0.091-0.405,0.091
		c-0.356,0-0.698-0.2-0.86-0.544c-0.275-0.583-0.905-0.96-1.605-0.96h-1.704C192.076,142.678,191.651,142.253,191.651,141.728z
		 M197.949,190.7c0,0.104-0.017,0.205-0.048,0.298c0.031,0.094,0.048,0.195,0.048,0.299c0,1.916-1.635,3.475-3.644,3.475h-0.649
		c-0.524,0-0.949-0.425-0.949-0.95c0-0.524,0.425-0.949,0.949-0.949h0.649c0.962,0,1.744-0.706,1.744-1.575
		c0-0.104,0.017-0.205,0.048-0.299c-0.031-0.093-0.048-0.193-0.048-0.298v-4.751c0-0.524,0.425-0.949,0.949-0.949
		c0.525,0,0.95,0.425,0.95,0.949V190.7z M197.949,181.199c0,0.525-0.425,0.95-0.95,0.95c-0.524,0-0.949-0.425-0.949-0.95v-4.75
		c0-0.525,0.425-0.95,0.949-0.95c0.525,0,0.95,0.425,0.95,0.95V181.199z M197.949,171.699c0,0.525-0.425,0.95-0.95,0.95
		c-0.524,0-0.949-0.425-0.949-0.95v-4.75c0-0.525,0.425-0.95,0.949-0.95c0.525,0,0.95,0.425,0.95,0.95V171.699z M197.949,162.199
		c0,0.524-0.425,0.949-0.95,0.949c-0.524,0-0.949-0.425-0.949-0.949v-4.751c0-0.524,0.425-0.949,0.949-0.949
		c0.525,0,0.95,0.425,0.95,0.949V162.199z M197.949,152.698c0,0.525-0.425,0.95-0.95,0.95c-0.524,0-0.949-0.425-0.949-0.95v-4.75
		c0-0.525,0.425-0.95,0.949-0.95c0.525,0,0.95,0.425,0.95,0.95V152.698z"/>
</g>
</svg>
