<?xml version="1.0" encoding="utf-8"?>
<!-- Generator: Adobe Illustrator 15.1.0, SVG Export Plug-In . SVG Version: 6.00 Build 0)  -->
<!DOCTYPE svg PUBLIC "-//W3C//DTD SVG 1.1//EN" "http://www.w3.org/Graphics/SVG/1.1/DTD/svg11.dtd">
<svg version="1.1" id="Layer_1" xmlns="http://www.w3.org/2000/svg" xmlns:xlink="http://www.w3.org/1999/xlink" x="0px" y="0px"
	 width="283.465px" height="283.464px" viewBox="0 0 283.465 283.464" enable-background="new 0 0 283.465 283.464"
	 xml:space="preserve">
<g>
	<path fill="#007481" d="M276.379,115.524c0-35.52-29.668-64.144-66.264-64.144c-3.359-0.089-6.726,0.09-10.059,0.536
		c-28.625,4.239-47.728,24.387-58.323,40.295c-10.598-15.908-29.671-36.055-58.353-40.294c-3.334-0.447-6.697-0.626-10.06-0.536
		c-36.537,0-66.235,28.625-66.235,64.145s29.698,64.285,66.264,64.285c3.355,0.041,6.711-0.185,10.031-0.678
		c28.653-4.238,47.728-24.386,58.323-40.267c10.596,15.881,29.699,36.028,58.323,40.267c3.334,0.445,6.698,0.626,10.059,0.536
		c36.06-0.536,66.268-29.16,66.268-64.144h0.025V115.524z M79.708,156.358c-2.272,0.42-4.585,0.593-6.895,0.509
		c-23.85,0-43.46-18.538-43.46-41.341s19.61-41.341,43.997-41.341c2.312-0.088,4.625,0.092,6.896,0.537
		c27.042,3.702,43.459,30.207,48.772,40.805C123.168,126.122,106.751,152.12,79.708,156.358z M154.026,115.524
		c5.649-10.597,21.644-37.102,48.686-40.804c2.263-0.445,4.564-0.625,6.868-0.537c24.387,0,43.996,18.537,43.996,41.34
		c0,22.805-19.609,41.342-43.461,41.342c-2.309,0.084-4.621-0.088-6.895-0.51C175.67,152.12,159.224,126.122,154.026,115.524z"/>
	<path fill="#007481" d="M94.034,109.167H54.276v12.716h39.758V109.167z"/>
	<path fill="#007481" d="M214.354,121.883h13.255v-12.716h-13.255v-13.79h-13.252v13.79H187.85v12.716h13.252v13.79h13.252V121.883z
		"/>
	<path fill="#007481" d="M30.838,231.522l1.925-7.756h10.906l2.101,7.756h9.973l-12.073-37.908H33.113l-11.898,37.908H30.838z
		 M41.745,216.475h-7.174l3.44-13.882L41.745,216.475z"/>
	<path fill="#007481" d="M58.812,231.522h9.391v-12.015h4.723l5.718,12.015h11.08l-7.406-13.881c4.141-2.217,6.24-6.184,6.24-11.373
		c0-7.291-3.967-12.654-14.465-12.654h-15.28V231.522z M73.159,211.983h-4.958v-10.731h4.782c4.374,0,5.6,1.692,5.6,5.075
		C78.583,210.526,76.424,211.983,73.159,211.983z"/>
	<path fill="#007481" d="M93.199,231.522h12.48c16.099,0,18.839-10.324,18.839-19.306c0-11.897-4.725-18.604-18.896-18.604H93.199
		V231.522z M105.33,201.251c8.399,0,9.157,3.967,9.157,11.374c0,6.416-0.583,11.141-8.341,11.141h-3.559v-22.515H105.33z"/>
	<path fill="#007481" d="M149.342,216.766c0,5.773-1.575,7.697-5.834,7.697c-3.558,0-5.772-1.456-5.772-7.757v-23.095h-9.391v24.846
		c0,11.488,8.281,13.646,14.756,13.646c6.707,0,15.28-2.393,15.28-13.588v-24.904h-9.039V216.766z"/>
	<path fill="#007481" d="M163.841,231.522h29.044v-7.756h-9.856v-22.397h9.856v-7.755h-29.044v7.755h9.799v22.397h-9.799V231.522z"
		/>
	<path fill="#007481" d="M206.51,207.258l12.949,24.264h9.506v-37.908h-8.748v22.744l-12.305-22.744h-10.208v37.908h8.864
		L206.51,207.258z"/>
	<path fill="#007481" d="M248.129,193.085c-11.488,0-15.863,8.458-15.863,19.89c0,12.538,5.017,19.131,15.923,19.131
		c12.19,0,16.214-8.574,16.214-19.539C264.402,198.102,258.92,193.085,248.129,193.085z M248.188,224.463
		c-5.423,0-5.947-3.848-5.947-11.488c0-9.273,0.874-12.248,5.89-12.248c5.541,0,6.299,2.564,6.299,11.84
		C254.43,221.315,253.672,224.463,248.188,224.463z"/>
</g>
</svg>
