<?xml version="1.0" encoding="iso-8859-1"?>
<!-- Generator: Adobe Illustrator 15.1.0, SVG Export Plug-In . SVG Version: 6.00 Build 0)  -->
<!DOCTYPE svg PUBLIC "-//W3C//DTD SVG 1.1//EN" "http://www.w3.org/Graphics/SVG/1.1/DTD/svg11.dtd">
<svg version="1.1" id="Layer_4" xmlns="http://www.w3.org/2000/svg" xmlns:xlink="http://www.w3.org/1999/xlink" x="0px" y="0px"
	 width="283.46px" height="283.46px" viewBox="0 0 283.46 283.46" style="enable-background:new 0 0 283.46 283.46;"
	 xml:space="preserve">
<g>
	<path d="M275.744,154.751c0.844-8.662,0.844-17.381,0-26.045l-20.881-4.29c-1.271-8.3-3.451-16.437-6.501-24.262L264.298,86
		c-3.6-7.922-7.961-15.474-13.021-22.553l-20.229,6.725c-5.252-6.552-11.209-12.51-17.762-17.759l6.728-20.232
		c-7.079-5.058-14.634-9.418-22.554-13.02L183.303,35.1c-7.824-3.05-15.962-5.231-24.261-6.502l-4.291-20.88
		c-8.66-0.843-17.384-0.843-26.046,0l-4.292,20.881c-8.299,1.271-16.437,3.451-24.262,6.502L85.998,19.16
		c-7.921,3.602-15.475,7.962-22.553,13.02l6.726,20.232c-6.554,5.25-12.51,11.207-17.761,17.759l-20.229-6.725
		C27.12,70.525,22.759,78.077,19.158,86l15.94,14.156c-3.051,7.825-5.231,15.962-6.502,24.262l-20.882,4.29
		c-0.839,8.664-0.839,17.383,0,26.045l20.882,4.291c1.271,8.301,3.451,16.438,6.502,24.263l-15.94,14.155
		c3.603,7.92,7.962,15.475,13.023,22.553l20.229-6.727c5.25,6.551,11.207,12.512,17.761,17.76l-6.726,20.232
		c7.079,5.059,14.632,9.42,22.553,13.021l14.157-15.939c7.824,3.051,15.962,5.23,24.261,6.501l4.292,20.882
		c8.661,0.844,17.385,0.844,26.045,0l4.291-20.882c8.299-1.271,16.437-3.45,24.261-6.501l14.157,15.939
		c7.92-3.602,15.475-7.963,22.554-13.021l-6.728-20.232c6.553-5.247,12.51-11.207,17.762-17.76l20.229,6.727
		c5.06-7.078,9.421-14.633,13.021-22.553l-15.938-14.155c3.051-7.824,5.23-15.962,6.501-24.263L275.744,154.751z M141.728,223.083
		c-44.898,0-81.352-36.451-81.352-81.353c0-44.902,36.455-81.353,81.352-81.353c44.902,0,81.354,36.451,81.354,81.353
		C223.082,186.632,186.628,223.083,141.728,223.083z"/>
	<polygon points="178.869,146.908 157.573,111.253 146.339,111.253 146.339,172.208 157.962,172.208 157.962,133.33 
		177.598,167.031 178.964,167.031 197.917,133.818 197.917,172.208 209.638,172.208 209.638,111.253 198.992,111.253 	"/>
	<rect x="73.819" y="111.253" width="12.211" height="60.956"/>
	<path d="M111.397,111.253l-24.909,60.956h12.014l4.884-12.602h24.909l4.787,12.602h12.798l-24.909-60.956H111.397z
		 M107.489,149.058l8.402-21.785h0.197l8.203,21.785H107.489z"/>
</g>
</svg>
