<?xml version="1.0" encoding="utf-8"?>
<!-- Generator: Adobe Illustrator 15.1.0, SVG Export Plug-In . SVG Version: 6.00 Build 0)  -->
<!DOCTYPE svg PUBLIC "-//W3C//DTD SVG 1.1//EN" "http://www.w3.org/Graphics/SVG/1.1/DTD/svg11.dtd">
<svg version="1.1" id="Layer_7" xmlns="http://www.w3.org/2000/svg" xmlns:xlink="http://www.w3.org/1999/xlink" x="0px" y="0px"
	 width="283.465px" height="283.465px" viewBox="0 0 283.465 283.465" enable-background="new 0 0 283.465 283.465"
	 xml:space="preserve">
<g>
	<path fill="none" d="M66.681,190.85l54.238-54.854L66.065,81.757l-54.236,54.854L66.681,190.85z M66.225,110.242l26.208,25.914
		l-25.914,26.209l-26.208-25.914L66.225,110.242z"/>
	<path fill="#231F20" d="M148.055,90.408l-1.607,1.47c0.014,0.106,0.029,0.216,0.043,0.324c0.551-0.036,1.1-0.076,1.646-0.122
		C148.102,91.521,148.074,90.963,148.055,90.408z"/>
	<path fill="#231F20" d="M9.099,136.628l57.597,56.949l56.756-57.401L65.766,79.316L9.099,136.628z M120.918,135.996L66.68,190.85
		l-54.854-54.236l54.236-54.854L120.918,135.996z"/>
	<path fill="#231F20" d="M160.107,136.061l56.252,57.723l58.01-56.528l-56.107-57.577L160.107,136.061z M243.004,137.002
		l-26.242,25.572l-25.723-26.396l0.154-0.15l26.242-25.571l0.148,0.153l25.572,26.242L243.004,137.002z"/>
	<path fill="#231F20" d="M150.561,152.811l-0.18,7.869l65.094,64.166c0.779,0.648,1.563,0.893,2.73,0.79
		c0.615-0.187,1.33-0.679,1.701-1.393c0.246-0.671,0.244-1.99-0.053-2.906L150.561,152.811z"/>
	<path fill="#231F20" d="M64.833,68.786l-0.132-0.109c-0.078-0.062-0.141-0.14-0.188-0.228c-0.638-1.266-0.931-2.881-0.71-4.58
		c-0.3-0.563-0.551-0.809-1.084-1.045c-1.776,0.082-3.423,0.047-5.089-0.309c-0.042-0.01-0.082-0.022-0.121-0.041
		c-1.977-0.779-3.906-1.82-6.08-3.348c1.538,2.389,2.577,4.633,3.496,7.018c0,0.006,0,0.01,0,0.014
		c0.527,1.445,0.521,2.873,0.4,4.232c0.162,0.51,0.607,0.863,1.045,1.059c1.822-0.58,3.799-0.145,4.969,0.656
		c0.055,0.037,0.105,0.082,0.146,0.133l0.092,0.107c0.326-0.568,0.72-1.133,1.185-1.677C63.409,69.913,64.114,69.279,64.833,68.786z
		"/>
	<path fill="#231F20" d="M69.875,73.016c-0.375,0.805-0.899,1.618-1.559,2.391c-0.728,0.854-1.529,1.55-2.346,2.064l66.628,65.68
		l-0.151-8.254L69.875,73.016z"/>
	<path fill="#231F20" d="M62.94,220.49c-0.664,0.766-0.923,1.543-0.847,2.715c0.174,0.617,0.651,1.343,1.356,1.729
		c0.664,0.26,1.984,0.285,2.906,0.008l66.562-64.535l-0.146-7.842L62.94,220.49z"/>
	<path fill="#231F20" d="M222.129,73.158l0.111-0.129c0.064-0.075,0.143-0.137,0.232-0.182c1.277-0.611,2.898-0.871,4.594-0.613
		c0.568-0.289,0.818-0.535,1.066-1.063c-0.045-1.778,0.025-3.423,0.414-5.082c0.012-0.041,0.025-0.082,0.043-0.12
		c0.82-1.959,1.904-3.867,3.477-6.008c-2.42,1.486-4.688,2.479-7.09,3.348c-0.004,0-0.008,0-0.014,0
		c-1.455,0.498-2.883,0.461-4.238,0.313c-0.514,0.15-0.877,0.589-1.08,1.021c0.541,1.834,0.063,3.801-0.762,4.955
		c-0.037,0.053-0.084,0.102-0.137,0.145l-0.107,0.089c0.561,0.338,1.115,0.743,1.65,1.219
		C221.033,71.711,221.652,72.43,222.129,73.158z"/>
	<path fill="#231F20" d="M150.781,143.086l67.014-64.975c-0.797-0.393-1.598-0.934-2.355-1.608c-0.838-0.746-1.518-1.563-2.016-2.39
		l-62.457,60.752L150.781,143.086z"/>
	<path fill="#231F20" d="M153.07,112.506c-1.262,0.234-2.576,0.363-4.076,0.379h-0.014l-14.181,0.094h-0.027h-0.027
		c-1.573-0.1-3.117-0.256-4.521-0.521c2.467,2.28,3.475,5.465,3.545,8.354l2.037,110.101c0.563,1.446,1.197,2.672,2.021,3.495
		c0.846,0.846,1.84,1.334,3.402,1.353c1.611-0.021,2.855-0.276,3.802-0.884c0.928-0.596,1.633-1.561,2.143-3.174l2.547-111.52
		v-0.041v-0.039c0.188-1.576,0.348-3.291,1.125-4.916C151.309,114.214,152.033,113.301,153.07,112.506z"/>
	<path fill="#231F20" d="M134.053,106.125l14.314,0.089c2.008-0.487,4.482-0.724,7.561-0.724c0.268,0,0.525,0.002,0.771,0.005
		c1.711-0.572,3.264-1.712,3.229-5.858c-0.951-3.051-2.439-4.533-4.545-4.533h-0.023c-0.738,0.195-1.826,0.271-3.076,0.36
		c-1.604,0.113-3.598,0.255-5.393,0.699l-0.154,0.019l-8.412-0.002c-2.686-0.246-8.975-0.76-11.277-0.783l-0.051-0.002
		c-2.111-0.189-3.221,2.433-3.696,4.031c-0.172,2.756,1.212,4.826,2.006,5.576c1.284,0.825,3.027,0.833,4.871,0.84
		C131.456,105.848,132.776,105.852,134.053,106.125z"/>
	<path d="M221.033,220.468l-70.428-69.649l0.129-5.668l8.354-8.1l57.246,58.745l60.045-58.515L219.27,78.675l0.006-0.007
		c0.002,0.001,0.006,0.002,0.008,0.002c1.26,0.318,2.531,0.219,3.32-0.667c0.787-0.886,0.748-2.171,0.287-3.386
		c-0.012-0.024-0.023-0.051-0.033-0.076l0.34-0.393c1.053-0.48,2.451-0.729,3.908-0.453c0.148,0.027,0.305,0.008,0.441-0.059
		c0.947-0.449,1.584-1.068,1.984-1.968c0.041-0.097,0.063-0.202,0.061-0.308c-0.057-1.773,0.006-3.336,0.355-4.867
		c1.281-3.047,3.039-5.82,6.908-10.035c0.131-0.146,0.197-0.337,0.186-0.532c-0.016-0.278-0.188-0.523-0.443-0.632
		c-0.258-0.107-0.555-0.06-0.764,0.125c-0.021,0.019-0.035,0.034-0.057,0.053c-4.273,3.704-7.48,5.083-11.293,6.459
		c-1.227,0.42-2.465,0.4-3.797,0.242c-0.084-0.012-0.17-0.009-0.254,0.008c-1.184,0.291-1.904,1.229-2.229,2.069
		c-0.066,0.167-0.072,0.353-0.01,0.522c0.5,1.287,0.027,3.195-0.484,3.94l-0.506,0.413c-0.256-0.096-0.51-0.182-0.76-0.245
		c-1.26-0.317-2.539-0.208-3.328,0.679c-0.748,0.84-0.738,2.03-0.342,3.187l-0.162,0.134c-0.02,0.012-0.037,0.025-0.055,0.039
		l-61.545,59.87l0.283-12.499c0.191-1.6,0.355-3.122,0.979-4.419c0.619-1.298,1.662-2.427,3.869-3.321l0.482-0.201l0.014-0.521
		l0.066-5.047c0.027,0,0.055,0,0.08,0h0.105l0.1-0.031c2.975-0.954,4.277-3.182,4.219-7.225v-0.09l-0.027-0.088
		c-0.918-3.003-2.393-4.791-4.391-5.345l0.021-2.237v-0.75l-0.736,0.121c-0.623,0.092-1.242,0.18-1.861,0.266
		c0.17-0.174,0.336-0.349,0.494-0.521c0.879-0.958,1.646-1.827,2.33-2.25l0.055-0.041l0.055-0.04c2.127-1.977,4.1-4.795,4.029-8.021
		c0.994-2.598,0.998-5.846-1.861-8.799l-0.535-0.549l-0.441,0.629c-0.254,0.356-0.521,0.698-0.791,1.033
		c-0.621-3.785-1.088-8.3-1.004-12.322l0.014-1.031l-0.938,0.442c-0.924,0.435-1.742,1.229-2.465,1.929
		c-0.035,0.035-0.07,0.067-0.105,0.103c-0.17-1.112-0.512-2.358-0.99-3.651c-0.859-2.307-2.148-4.677-3.791-6.334l-1.365-1.379
		l0.268,1.915c0.199,1.42,0.111,2.574-0.193,3.63c-0.379-0.445-0.799-0.873-1.227-1.301l-0.025-0.025l-0.027-0.027
		c-0.65-0.519-0.904-1.45-0.697-2.786c0.209-1.335,0.898-2.976,1.996-4.606l0.871-1.299l-1.527,0.308
		c-4.3,0.872-7.837,1.817-11.062,5.786l-0.027,0.026l-0.012,0.026c-1.515,2.302-3.299,5.476-2.438,11.316l0.013,0.067l0.027,0.054
		c0.244,0.684,0.439,1.418,0.596,2.186c-0.695-0.954-1.404-1.994-2.283-2.936c-1.304-1.394-3.033-2.53-5.504-2.611l-1.113-0.04
		l0.522,0.978c2.005,3.737,1.249,5.805,0.481,7.085c-1.494-0.929-2.994-1.444-4.941-1.473l-0.99-0.015l0.4,0.912
		c1.266,2.961,0.884,4.381,0.188,5.746l-0.013,0.012v0.027l-1.165,2.786l-0.054,0.106v0.107c-0.151,2.958,0.129,4.854,0.75,6.309
		c0.621,1.453,1.547,2.408,2.558,3.509l0.041,0.041l0.053,0.04c2.181,1.597,3.76,3.322,4.322,4.836l-0.01-0.001l0.014,0.75
		l0.008,2.067c-2.069,0.037-3.723,1.818-4.657,5.03l-0.024,0.134c-0.236,3.316,1.432,5.783,2.453,6.719l0.079,0.062
		c0.646,0.429,1.362,0.685,2.114,0.839l-0.066,4.543l-0.013,0.495l0.442,0.228c3.723,1.843,5.076,5.399,5.156,8.705l0.221,11.967
		l-61.854-61.17c-0.018-0.014-0.035-0.027-0.054-0.041l-0.103-0.084c0.002-0.002,0.002-0.006,0.002-0.008
		c0.293-1.265,0.166-2.535-0.736-3.305s-2.188-0.703-3.391-0.216c-0.025,0.011-0.051,0.024-0.076,0.035l-0.398-0.332
		c-0.503-1.042-0.781-2.437-0.536-3.897c0.024-0.15,0.001-0.305-0.067-0.441c-0.469-0.938-1.102-1.561-2.008-1.942
		c-0.099-0.04-0.203-0.058-0.309-0.053c-1.773,0.092-3.336,0.063-4.875-0.255c-3.073-1.215-5.883-2.914-10.178-6.695
		c-0.148-0.127-0.342-0.189-0.537-0.174c-0.277,0.021-0.52,0.199-0.622,0.459c-0.103,0.259-0.048,0.554,0.14,0.76
		c0.02,0.021,0.035,0.033,0.055,0.055c3.793,4.194,5.238,7.371,6.695,11.155c0.445,1.218,0.452,2.456,0.321,3.79
		c-0.011,0.085-0.007,0.172,0.014,0.254c0.316,1.178,1.269,1.877,2.116,2.184c0.168,0.063,0.354,0.063,0.521,0
		c1.277-0.526,3.195-0.096,3.951,0.402l0.424,0.496c-0.09,0.258-0.17,0.514-0.229,0.766c-0.292,1.265-0.154,2.543,0.747,3.313
		c0.856,0.73,2.046,0.695,3.192,0.273l0.138,0.162c0.001,0,0.002,0.002,0.004,0.004L7.085,136.648l59.618,58.949l57.758-58.414
		l8.172,8.055l0.1,5.344L61.886,219.5c-0.015,0.018-0.028,0.033-0.042,0.053c-0.896,1.035-1.316,2.314-1.205,3.819
		c-0.001,0.044,0.003,0.09,0.01,0.134c0.256,1.014,0.944,2.122,2.139,2.751c0.021,0.011,0.045,0.021,0.066,0.027
		c1.184,0.489,2.76,0.473,4.071,0.032c0.103-0.035,0.194-0.094,0.271-0.168l65.752-63.75l1.27,68.726v0.134l0.055,0.135
		c0.609,1.592,1.32,3.051,2.424,4.151c1.102,1.103,2.615,1.798,4.527,1.821h0.012c1.773-0.021,3.349-0.305,4.646-1.139
		c1.301-0.834,2.252-2.201,2.842-4.125l0.025-0.106l0.014-0.106l1.568-69.203l64.162,63.242c0.016,0.016,0.035,0.028,0.053,0.041
		c1.055,0.875,2.342,1.27,3.844,1.125c0.045,0,0.09-0.005,0.135-0.014c1.008-0.277,2.102-0.988,2.705-2.196
		c0.01-0.022,0.02-0.044,0.025-0.067c0.465-1.193,0.414-2.77-0.053-4.07C221.168,220.635,221.109,220.543,221.033,220.468z
		 M274.369,137.255l-58.01,56.528l-56.252-57.723l58.152-56.383L274.369,137.255z M218.748,69.742c0.053-0.043,0.1-0.09,0.139-0.145
		c0.822-1.154,1.301-3.121,0.76-4.955c0.203-0.433,0.566-0.871,1.08-1.021c1.355,0.148,2.783,0.186,4.238-0.313
		c0.006,0,0.01,0,0.014,0c2.402-0.869,4.67-1.861,7.09-3.348c-1.572,2.143-2.654,4.049-3.477,6.008
		c-0.018,0.039-0.031,0.079-0.043,0.12c-0.389,1.658-0.459,3.304-0.414,5.082c-0.248,0.528-0.498,0.774-1.066,1.063
		c-1.693-0.256-3.316,0.002-4.594,0.613c-0.09,0.043-0.168,0.106-0.232,0.182l-0.111,0.129c-0.479-0.729-1.096-1.447-1.84-2.108
		c-0.533-0.476-1.09-0.881-1.65-1.219L218.748,69.742z M214.207,70.531c0.283-0.318,0.91-0.477,1.875-0.231s2.154,0.878,3.236,1.843
		c1.084,0.963,1.852,2.071,2.205,3c0.354,0.93,0.271,1.569-0.014,1.889c-0.283,0.32-0.908,0.478-1.873,0.232
		c-0.967-0.244-2.146-0.888-3.23-1.852c-1.082-0.963-1.859-2.063-2.213-2.992S213.924,70.85,214.207,70.531z M213.424,74.113
		c0.496,0.826,1.176,1.644,2.014,2.39c0.76,0.675,1.561,1.216,2.357,1.608l-67.014,64.975l0.186-8.221L213.424,74.113z
		 M155.518,92.502l-0.014,1.32c-0.041-0.002-0.08-0.006-0.121-0.006l-0.211,0.004l-0.08,0.022c-0.609,0.177-1.67,0.251-2.896,0.339
		c-1.631,0.115-3.656,0.258-5.535,0.715h-8.248c-2.414-0.221-7.647-0.649-10.424-0.761l-0.006-1.38
		c4.719,0.661,9.688,0.797,13.98,0.911h0.014h0.014C146.76,93.611,151.115,93.139,155.518,92.502z M146.447,91.877l1.607-1.471
		c0.02,0.557,0.047,1.115,0.08,1.673c-0.547,0.045-1.094,0.085-1.646,0.122C146.477,92.093,146.461,91.984,146.447,91.877z
		 M158.838,73.23c2.006,2.434,1.969,4.77,1.139,6.897l-0.055,0.121v0.147c0.137,2.733-1.639,5.344-3.654,7.217
		c-0.914,0.599-1.682,1.512-2.506,2.412c-0.533,0.582-1.09,1.16-1.691,1.651c-0.883,0.106-1.77,0.205-2.66,0.29
		c-0.064-1.146-0.102-2.294-0.094-3.389c0.018-2.545,0.299-4.807,0.855-6.014C152.305,79.486,155.93,76.997,158.838,73.23z
		 M153.119,64.298c0-0.037,0.014-0.069,0.014-0.106h-0.014c0.027-0.178,0.041-0.367,0.049-0.562
		c0.285-0.255,0.578-0.544,0.891-0.845c0.402-0.393,0.822-0.771,1.23-1.098c0.016,4.223,0.531,8.728,1.182,12.41
		c-2.521,2.75-5.422,4.93-7.383,7.785l-0.039,0.04l-0.014,0.054c-0.75,1.586-0.986,3.959-1.004,6.604c-0.002,0.031,0,0.064,0,0.096
		l-1.807,1.655c-0.191-1.356-0.326-2.667-0.109-4.028V86.29v-0.015c0.434-3.5,1.82-6.402,3.697-9.83l0.012-0.012l0.014-0.014
		C151.725,72.438,153.096,68.639,153.119,64.298z M146.584,59.825c1.082-1.658,1.848-3.389,1.941-5.531
		c0.941,1.319,1.748,2.91,2.33,4.474c0.811,2.176,1.158,4.325,0.99,5.316v0.053v0.055c0,4.105-1.297,7.699-3.16,11.638
		c-0.004,0.009-0.01,0.019-0.014,0.026c-1.889,3.449-3.367,6.522-3.83,10.258c-0.357,2.246,0.066,4.188,0.357,6.164
		c-1.063,0.054-2.139,0.09-3.238,0.104c-0.209-0.005-0.426-0.011-0.637-0.018c-0.836-3.235-1.643-7.332-1.76-10.684v-0.054
		l-0.014-0.04c-0.559-2.911-0.27-9.434,1.836-14.076l0.025-0.04v-0.026c0.566-1.724,1.386-2.778,2.318-3.844
		c0.918-1.054,1.961-2.111,2.824-3.724C146.566,59.859,146.574,59.844,146.584,59.825z M136.272,53.008
		c0.004-0.005,0.01-0.008,0.014-0.014c2.648-3.253,5.395-4.227,8.917-5.009h0.002h-0.002c-0.727,1.314-1.285,2.618-1.473,3.816
		c-0.244,1.573,0.053,3.045,1.125,3.938l-0.014,0.014c0.631,0.631,1.215,1.228,1.596,1.774c-0.268,0.545-0.586,1.083-0.953,1.641
		l-0.025,0.026l-0.014,0.027c-0.777,1.469-1.715,2.43-2.68,3.535c-0.951,1.09-1.912,2.333-2.542,4.219
		c-0.008,0.014-0.01,0.028-0.014,0.041c-0.004,0.01-0.01,0.016-0.014,0.026c-2.223,4.952-2.531,11.366-1.916,14.69
		c0.006,0.026,0.008,0.068,0.014,0.095c0.129,3.37,0.877,7.297,1.686,10.5c-1.129-0.032-2.285-0.069-3.459-0.119
		c-1.367-3.269-2.332-7.356-3.221-10.435c2.029-6.127,2.582-13.221,0.777-18.4c-0.002-0.01,0-0.018,0-0.027
		C133.276,57.876,134.805,55.242,136.272,53.008z M125.813,74.824c0.512-1.754,1.137-3.523,0.829-5.852
		c0.812-1.386,1.457-3.803-0.013-7.246c1.527,0.283,2.613,1.061,3.576,2.088c1.166,1.25,2.113,2.852,3.293,4.205v0.014h0.015
		l0.272,0.295c0.352,4.164-0.315,8.99-1.76,13.259l-0.066,0.188l0.054,0.201c0.831,2.854,1.72,6.781,3.054,10.162
		c-0.979-0.053-1.961-0.121-2.945-0.201c0.076-2.152,0.422-4.547,0.078-7.176l-0.014-0.082l-0.027-0.066
		c-1.08-2.701-2.926-4.197-4.299-5.504c-0.687-0.653-1.246-1.264-1.606-1.93C125.901,76.529,125.718,75.818,125.813,74.824z
		 M123.174,85.432c-0.014-0.01-0.025-0.018-0.04-0.027c-0.978-1.062-1.735-1.881-2.235-3.053c-0.513-1.197-0.779-2.861-0.644-5.652
		l1.098-2.611l0.015-0.04c0.692-1.375,1-3.168,0.16-5.731c1.369,0.164,2.504,0.558,3.724,1.379l0.196,0.342
		c0.033,1.611-0.429,2.926-0.879,4.479l-0.027,0.055v0.066c-0.133,1.252,0.104,2.291,0.576,3.161
		c0.472,0.869,1.147,1.558,1.861,2.235c1.411,1.344,2.979,2.643,3.938,4.982c0.289,2.33-0.078,4.59-0.153,6.801
		c-0.897-0.09-1.79-0.197-2.672-0.322C127.608,89.313,125.692,87.281,123.174,85.432z M125.307,105.002
		c-0.794-0.75-2.178-2.82-2.006-5.576c0.475-1.599,1.584-4.222,3.697-4.031l0.05,0.002c2.304,0.023,8.593,0.537,11.276,0.783
		l8.412,0.002l0.156-0.019c1.793-0.444,3.789-0.585,5.393-0.699c1.25-0.088,2.336-0.165,3.076-0.36h0.021
		c2.105,0,3.594,1.482,4.547,4.533c0.033,4.146-1.52,5.286-3.23,5.858c-0.246-0.003-0.504-0.005-0.771-0.005
		c-3.076,0-5.551,0.236-7.559,0.724l-14.314-0.089c-1.279-0.271-2.6-0.277-3.876-0.283
		C128.334,105.834,126.591,105.827,125.307,105.002z M128.063,110.502l-0.017-3.434c0.702,0.053,1.418,0.056,2.126,0.059
		c1.232,0.005,2.506,0.01,3.67,0.268l14.677,0.105l0.078-0.02c1.773-0.438,4.057-0.672,6.779-0.701l-0.037,3.802
		c-2.021,0.637-3.902,0.991-6.359,1.019l-14.156,0.094c-0.014,0-0.025,0-0.041,0C132.18,111.525,129.739,111.154,128.063,110.502z
		 M61.489,72.24c-0.043-0.051-0.092-0.096-0.147-0.135c-1.17-0.799-3.146-1.235-4.968-0.656c-0.438-0.194-0.885-0.549-1.045-1.057
		c0.119-1.361,0.125-2.789-0.401-4.232c0-0.004,0-0.01,0-0.014c-0.919-2.385-1.958-4.631-3.496-7.019
		c2.175,1.527,4.104,2.569,6.08,3.349c0.039,0.016,0.079,0.03,0.121,0.041c1.667,0.354,3.313,0.389,5.089,0.307
		c0.533,0.238,0.785,0.482,1.084,1.046c-0.221,1.698,0.072,3.315,0.71,4.579c0.046,0.089,0.11,0.166,0.188,0.229l0.131,0.109
		c-0.721,0.494-1.424,1.127-2.069,1.884c-0.465,0.544-0.858,1.108-1.185,1.677L61.489,72.24z M64.261,76.734
		c-0.922,0.375-1.563,0.305-1.888,0.026c-0.325-0.278-0.496-0.899-0.271-1.868c0.225-0.971,0.833-2.174,1.773-3.275
		c0.939-1.104,2.033-1.895,2.955-2.268c0.922-0.375,1.563-0.305,1.888-0.027s0.496,0.9,0.271,1.869
		c-0.223,0.97-0.842,2.164-1.783,3.267C66.266,75.563,65.184,76.361,64.261,76.734z M66.696,193.577L9.099,136.628l56.667-57.312
		l57.686,56.858L66.696,193.577z M65.971,77.471c0.816-0.515,1.619-1.21,2.346-2.064c0.659-0.771,1.184-1.584,1.559-2.391
		l62.57,61.881l0.152,8.254L65.971,77.471z M66.356,224.941c-0.922,0.277-2.242,0.252-2.906-0.008
		c-0.707-0.387-1.183-1.111-1.356-1.729c-0.076-1.172,0.185-1.949,0.847-2.715l69.832-67.926l0.146,7.842L66.356,224.941z
		 M149.717,120.104v0.041v0.039l-2.545,111.521c-0.51,1.614-1.215,2.579-2.143,3.174c-0.945,0.606-2.189,0.862-3.802,0.884
		c-1.563-0.02-2.557-0.507-3.402-1.354c-0.824-0.822-1.459-2.049-2.023-3.494l-2.035-110.1c-0.07-2.891-1.078-6.074-3.545-8.355
		c1.404,0.264,2.948,0.42,4.521,0.521h0.027h0.027l14.181-0.095h0.014c1.5-0.017,2.814-0.146,4.076-0.379
		c-1.037,0.795-1.762,1.708-2.229,2.683C150.066,116.814,149.906,118.527,149.717,120.104z M219.908,224.244
		c-0.373,0.714-1.086,1.205-1.701,1.393c-1.17,0.102-1.953-0.142-2.73-0.789l-65.094-64.166l0.178-7.871l69.295,68.527
		C220.15,222.254,220.154,223.574,219.908,224.244z"/>
	
		<rect x="47.943" y="117.878" transform="matrix(0.7031 -0.7111 0.7111 0.7031 -77.22 87.6636)" fill="#231F20" width="36.856" height="36.856"/>
	<path fill="#231F20" d="M217.436,110.456l-26.242,25.571l-0.152,0.15l25.723,26.396l26.24-25.572l0.154-0.15l-25.572-26.242
		L217.436,110.456z M216.809,158.975l-22.17-22.75l22.752-22.17l22.17,22.75L216.809,158.975z"/>
	<path fill="#231F20" d="M129.551,90.389c0.016-0.234,0.033-0.468,0.05-0.699c0.104-1.428,0.214-2.902,0.058-4.344
		c-0.752-1.74-1.897-2.813-3.107-3.947c-0.154-0.145-0.309-0.289-0.46-0.434c-0.752-0.715-1.534-1.502-2.104-2.555
		c-0.621-1.145-0.867-2.436-0.731-3.838V74.57c0-0.178,0.037-0.354,0.108-0.517c0.045-0.159,0.092-0.313,0.139-0.469
		c0.32-1.081,0.604-2.033,0.652-3.063c-0.301-0.181-0.601-0.332-0.908-0.459c0.21,1.633-0.02,3.114-0.692,4.485
		c-0.005,0.013-0.01,0.026-0.015,0.039l-1.01,2.399c-0.092,2.218,0.084,3.767,0.551,4.859c0.4,0.936,1.033,1.639,1.908,2.588
		c2.701,1.998,4.375,3.934,5.097,5.896C129.241,90.35,129.395,90.37,129.551,90.389z"/>
	<path fill="#231F20" d="M128.749,78.18c0.156,0.147,0.318,0.299,0.484,0.453c0.569,0.531,1.198,1.116,1.814,1.813
		c1.191-3.816,1.729-7.965,1.49-11.563c-0.026-0.03-0.053-0.063-0.077-0.097c-0.558-0.646-1.056-1.331-1.538-1.993
		c-0.557-0.765-1.083-1.485-1.655-2.097c-0.202-0.217-0.401-0.409-0.6-0.582c0.368,2.322-0.165,4.051-0.701,5.117
		c0.201,2.189-0.317,3.937-0.78,5.487c-0.033,0.115-0.068,0.229-0.102,0.345c-0.051,0.737,0.113,1.16,0.302,1.508
		C127.63,77.021,128.038,77.503,128.749,78.18z"/>
	<path fill="#231F20" d="M152.68,76.064c0.803-0.767,1.629-1.555,2.414-2.379c-0.383-2.267-0.67-4.57-0.854-6.793
		c-0.459,3.762-1.807,7.051-3.24,10.075c-0.033,0.072-0.074,0.142-0.123,0.206c-0.268,0.492-0.521,0.967-0.762,1.428
		C150.943,77.72,151.818,76.885,152.68,76.064z"/>
	<path fill="#231F20" d="M134.643,81.799c0.182,0.643,0.367,1.316,0.561,2.025c0.629,2.308,1.336,4.893,2.199,7.133
		c0.301,0.012,0.609,0.021,0.936,0.033c-0.549-2.416-1.195-5.852-1.324-9.047c-0.691-3.775-0.225-10.438,2.002-15.407
		c0.695-2.056,1.748-3.437,2.783-4.624c0.139-0.159,0.275-0.314,0.412-0.469c0.804-0.908,1.498-1.692,2.091-2.811l0.008-0.013
		c0.043-0.086,0.096-0.168,0.156-0.242c0.164-0.251,0.309-0.484,0.438-0.708c-0.281-0.315-0.619-0.658-0.969-1.007
		c-0.035-0.035-0.068-0.071-0.098-0.108c-1.211-1.137-1.697-2.883-1.377-4.949c0.082-0.527,0.229-1.084,0.438-1.678
		c-2.218,0.729-3.898,1.777-5.597,3.857c-1.217,1.855-2.693,4.184-1.963,9.305C137.049,68.141,136.79,75.094,134.643,81.799z"/>
	<line fill="none" x1="145.207" y1="47.986" x2="145.205" y2="47.986"/>
	<path fill="#231F20" d="M151.297,83.199c-0.42,0.998-0.68,2.996-0.695,5.388c-0.004,0.608,0.006,1.265,0.029,1.961
		c0.295-0.032,0.596-0.065,0.9-0.103c0.463-0.412,0.902-0.877,1.283-1.291c0.113-0.125,0.225-0.248,0.338-0.371
		c0.705-0.779,1.434-1.584,2.313-2.182c2.113-1.988,3.27-4.224,3.174-6.146c-0.002-0.021-0.002-0.042-0.002-0.063v-0.146
		c0-0.18,0.037-0.358,0.111-0.521l0.041-0.094c0.594-1.539,0.578-2.917-0.064-4.243c-1.162,1.328-2.371,2.492-3.551,3.626
		C153.697,80.436,152.303,81.779,151.297,83.199z"/>
	<path fill="#231F20" d="M142.521,68.126c-1.919,4.304-2.232,10.347-1.718,13.146c0.031,0.117,0.049,0.235,0.049,0.356v0.03
		c0.092,2.527,0.625,5.919,1.478,9.433c0.451-0.008,0.908-0.021,1.379-0.036c-0.242-1.582-0.438-3.234-0.141-5.121
		c0.514-4.099,2.166-7.388,3.963-10.672c1.818-3.845,3.029-7.201,3.029-11.07v-0.055v-0.053c0-0.072,0.006-0.145,0.018-0.214
		c0.105-0.618-0.115-2.47-0.928-4.654c-0.174-0.467-0.367-0.93-0.574-1.381c-0.336,0.86-0.789,1.726-1.377,2.63
		c0,0.003-0.002,0.006-0.004,0.009c-0.811,1.513-1.75,2.568-2.578,3.499c-0.143,0.159-0.281,0.316-0.418,0.473
		c-0.813,0.932-1.527,1.826-2.027,3.291C142.645,67.874,142.592,68.005,142.521,68.126z"/>
</g>
</svg>
