<?xml version="1.0" encoding="utf-8"?>
<!-- Generator: Adobe Illustrator 15.1.0, SVG Export Plug-In . SVG Version: 6.00 Build 0)  -->
<!DOCTYPE svg PUBLIC "-//W3C//DTD SVG 1.1//EN" "http://www.w3.org/Graphics/SVG/1.1/DTD/svg11.dtd">
<svg version="1.1" id="Layer_2" xmlns="http://www.w3.org/2000/svg" xmlns:xlink="http://www.w3.org/1999/xlink" x="0px" y="0px"
	 width="283.465px" height="283.465px" viewBox="0 0 283.465 283.465" enable-background="new 0 0 283.465 283.465"
	 xml:space="preserve">
<g>
	<path id="path7705" d="M141.732,111.229c-23.271,25.597-50.382,47.602-80.447,65.137l-0.061,30.198
		c17.557,25.291,46.797,41.863,79.898,41.863c33.868,0,63.692-17.344,81.116-43.627l-0.063-28.436
		C192.115,158.831,165.005,136.826,141.732,111.229L141.732,111.229z M141.732,138.632c20.192,19.833,42.684,37.306,67.079,51.952
		c-13.586,23.249-38.828,38.887-67.687,38.887c-28.623,0-53.655-15.402-67.321-38.34c24.733-14.753,47.5-32.431,67.93-52.497
		L141.732,138.632L141.732,138.632z"/>
	<path id="path7707" d="M222.24,219.749c-19.512,23.013-48.602,37.672-81.116,37.672c-31.835,0-60.421-14.028-79.898-36.214v26.311
		c21.68,18.018,49.521,28.86,79.898,28.86c30.938,0,59.257-11.276,81.116-29.896V219.749z"/>
	<path id="path7709" d="M141.732,7.087c-19.058,38.475-46.72,71.984-80.447,97.945v24.912c31.816-22.039,59.19-50.064,80.446-82.452
		c21.258,32.388,48.631,60.413,80.446,82.452v-24.912C188.453,79.071,160.791,45.562,141.732,7.087z"/>
	<path id="path7711" d="M141.732,64.81c-21.94,30.237-49.231,56.355-80.447,76.984v22.542c30.405-18.482,57.554-41.77,80.446-68.782
		c22.895,27.013,50.043,50.299,80.446,68.782v-22.542C190.964,121.165,163.673,95.047,141.732,64.81z"/>
</g>
</svg>
