<?xml version="1.0" encoding="utf-8"?>
<!-- Generator: Adobe Illustrator 15.1.0, SVG Export Plug-In . SVG Version: 6.00 Build 0)  -->
<!DOCTYPE svg PUBLIC "-//W3C//DTD SVG 1.1//EN" "http://www.w3.org/Graphics/SVG/1.1/DTD/svg11.dtd">
<svg version="1.1"
	 id="svg2" sodipodi:version="0.32" sodipodi:docname="Ordnance Branch Insignia.svg" sodipodi:docbase="P:\My Pictures" inkscape:output_extension="org.inkscape.output.svg.inkscape" xmlns:inkscape="http://www.inkscape.org/namespaces/inkscape" xmlns:dc="http://purl.org/dc/elements/1.1/" xmlns:cc="http://web.resource.org/cc/" xmlns:sodipodi="http://sodipodi.sourceforge.net/DTD/sodipodi-0.dtd" xmlns:svg="http://www.w3.org/2000/svg" xmlns:rdf="http://www.w3.org/1999/02/22-rdf-syntax-ns#" inkscape:version="0.45.1"
	 xmlns="http://www.w3.org/2000/svg" xmlns:xlink="http://www.w3.org/1999/xlink" x="0px" y="0px" width="283.465px"
	 height="283.465px" viewBox="0 0 283.465 283.465" enable-background="new 0 0 283.465 283.465" xml:space="preserve">
<sodipodi:namedview  inkscape:window-x="-4" inkscape:pageshadow="2" inkscape:window-width="1280" inkscape:pageopacity="0.0" inkscape:current-layer="svg2" inkscape:window-height="968" inkscape:window-y="-4" inkscape:cx="41.5" inkscape:zoom="0.52361111" inkscape:cy="281.43085" id="base" pagecolor="#ffffff" bordercolor="#666666" gridtolerance="10.0" borderopacity="1.0" guidetolerance="10.0" objecttolerance="10.0">
	</sodipodi:namedview>
<g>
	<path fill="#231F20" d="M116.036,130.362c4.963,2.723,10.146,5.678,14.187,9.248c0.42,0.372,0.833,0.762,1.239,1.169
		c0.602-0.172,1.177-0.25,1.671-0.296c0.063-0.006,0.128-0.009,0.192-0.009c0.022,0,0.14,0,0.162,0.001l5.162,0.169
		c-0.861-7.122-2.93-13.142-6.433-18.79c-3.644-5.874-8.416-10.753-13.94-16.402c-1.269-1.296-2.563-2.619-3.877-3.99
		c-0.1-0.104-0.188-0.219-0.263-0.34c-5.03-5.654-8.935-10.924-11.273-17.369c-3.443,4.125-5.458,9.224-6.132,15.481
		c-0.555,5.147,1.399,11.431,5.501,17.692C105.979,122.654,111.141,127.677,116.036,130.362z"/>
	<path fill="#231F20" d="M111.034,54.7c-3.398,4.072-4.994,8.563-5.018,14.135c-0.053,12.529,4.151,19.541,12.45,28.83
		c1.214,1.266,2.464,2.543,3.692,3.801c5.539,5.666,10.769,11.017,14.785,17.492c3.096,4.992,5.195,10.223,6.419,16.082
		c3.008-18.815-0.713-35.336-11.095-49.191c-7.459-9.956-14.423-19.672-17.662-29.092c-0.523-1.522-0.941-3.037-1.252-4.53
		C112.479,53.069,111.717,53.882,111.034,54.7z"/>
	<path fill="#231F20" d="M123.466,32.064c-5.54,6.958-6.649,14.026-3.601,22.899c2.982,8.674,9.666,17.981,16.836,27.551
		c12.224,16.318,15.972,35.967,11.152,58.432l0.783,0.025c14.291-7.768,22.674-21.082,23.023-36.606
		c0.488-21.627-15.787-41.679-19.055-45.479c-0.598-0.696-1.199-1.385-1.799-2.07c-6.428-7.355-13.076-14.96-13.691-30.023
		c-0.013-0.314-0.02-0.629-0.021-0.943c-0.631,0.012-1.266,0.068-1.887,0.166C131.522,26.606,127.573,28.641,123.466,32.064z"/>
	<path fill="#231F20" d="M142.689,26.579c0.535,13.127,5.928,19.284,12.172,26.413c0.65,0.742,1.307,1.49,1.961,2.253
		c4.92,5.723,20.932,26.182,20.412,49.211c-0.262,11.605-4.592,22.223-12.24,30.608c2.803-1.769,6.064-3.433,10.105-5.208
		c11.783-5.178,24.438-18.174,24.385-34.479c-0.057-17.553-5.625-29.035-22.912-47.256c-9.139-9.63-14.115-18.14-14.793-25.291
		c-0.369-3.908,0.586-7.518,2.758-10.441c1.297-1.746,3.094-3.264,5.445-4.594c-0.404-0.172-0.82-0.303-1.262-0.397
		c-0.992-0.213-2.201-0.313-3.813-0.313c-1.17,0-2.541,0.049-4.59,0.166c-3.166,0.18-7.906,1.539-11.709,4.813
		C144.436,15.659,142.441,20.542,142.689,26.579z"/>
	<path fill="#231F20" d="M156.986,145.822c-0.424-0.278-1.025-0.44-1.893-0.426h-0.047l-21.58-0.71h-0.096
		c-0.815,0.087-1.355,0.268-1.701,0.521c-0.365,0.267-0.641,0.688-0.854,1.514c-0.279,1.088-0.371,3.047-0.406,5.775
		c3.674-0.676,7.453-1.045,11.322-1.045c5.861,0,11.527,0.826,16.906,2.336c-0.045-2.977-0.221-5.146-0.611-6.355
		C157.744,146.556,157.412,146.101,156.986,145.822z"/>
	<path fill="#231F20" d="M141.733,157.241c-32.636,0-59.187,26.66-59.187,59.432c0,32.924,26.551,59.707,59.187,59.707
		c32.634,0,59.185-26.783,59.185-59.707C200.918,183.901,174.367,157.241,141.733,157.241z"/>
</g>
</svg>
