<?xml version="1.0" encoding="utf-8"?>
<!-- Generator: Adobe Illustrator 15.1.0, SVG Export Plug-In . SVG Version: 6.00 Build 0)  -->
<!DOCTYPE svg PUBLIC "-//W3C//DTD SVG 1.1//EN" "http://www.w3.org/Graphics/SVG/1.1/DTD/svg11.dtd">
<svg version="1.1" id="Layer_2" xmlns="http://www.w3.org/2000/svg" xmlns:xlink="http://www.w3.org/1999/xlink" x="0px" y="0px"
	 width="283.465px" height="283.465px" viewBox="0 0 283.465 283.465" enable-background="new 0 0 283.465 283.465"
	 xml:space="preserve">
<g>
	<path fill="#231F20" d="M66.837,223.767l56.875-33.668l3.926-8.848c-0.006-1.73-0.018-4.31-0.031-7.605
		c-0.001-0.328-0.003-0.65-0.004-0.979l-18.447-11.039l-59.917,31.248L66.837,223.767z M87.28,182.495
		c0.87-3.08,2.902-5.637,5.724-7.197c1.797-0.996,3.828-1.521,5.875-1.521c4.363,0,8.397,2.336,10.528,6.101
		c1.567,2.768,1.955,5.975,1.093,9.03c-0.869,3.08-2.9,5.638-5.723,7.199c-1.797,0.994-3.829,1.521-5.875,1.521
		c-4.363,0-8.398-2.336-10.529-6.101C86.805,188.759,86.418,185.552,87.28,182.495z"/>
	<path fill="#231F20" d="M231.859,111.853l-6.216-10.979l-70.188,36.606c-0.009,4.29-0.02,8.724-0.033,13.306l18.354,9.674
		l64.113-37.953L231.859,111.853z"/>
	<path fill="#231F20" d="M98.901,197.124c1.962,0,3.91-0.504,5.632-1.457c2.704-1.496,4.65-3.945,5.483-6.896
		c0.825-2.927,0.454-5.998-1.048-8.647c-2.041-3.605-5.906-5.845-10.09-5.845c-1.961,0-3.91,0.504-5.633,1.457
		c-2.703,1.496-4.649,3.945-5.482,6.896c-0.826,2.927-0.454,5.998,1.047,8.648C90.851,194.886,94.719,197.124,98.901,197.124z
		 M94.43,177.823c4.392-2.432,9.966-0.875,12.424,3.467c2.459,4.344,0.887,9.855-3.504,12.287
		c-4.391,2.434-9.965,0.879-12.424-3.467C88.467,185.769,90.039,180.255,94.43,177.823z"/>
	<path fill="#231F20" d="M59.226,237.464l-22.581-39.883l-0.291-0.504l0.004-0.003l-2.446-4.319c-4.619,1.785-7.7,4.346-8.924,7.424
		c-0.952,2.395-0.749,5.082,0.584,7.771l2.599,4.464c0.259,0.25,0.484,0.532,0.666,0.85l9.991,17.365
		c0.077,0.133,0.126,0.274,0.187,0.412l1.254,2.155c2.336,4.713,6.106,7.509,10.104,7.509c1.462,0,2.951-0.363,4.425-1.076
		L59.226,237.464z"/>
	<polygon fill="#231F20" points="66.381,225.933 47.37,192.157 37.774,197.472 57.154,231.042 	"/>
	<path fill="#231F20" d="M27.942,213.778c-0.529-0.922-1.574-1.494-2.727-1.494c-0.576,0-1.138,0.145-1.626,0.42l-0.269,0.15
		c-0.793,0.445-1.38,1.172-1.61,1.994c-0.201,0.719-0.115,1.438,0.248,2.08l9.828,17.357c0.83,0.733,2.058,1.577,3.306,1.577
		c0.447,0,0.875-0.11,1.269-0.334l0.415-0.229c0.718-0.404,1.235-1.062,1.452-1.853c0.215-0.782,0.11-1.603-0.294-2.305
		L27.942,213.778z"/>
	<path fill="#231F20" d="M21.277,226.349c-0.193,0.211-0.52,0.227-0.729,0.033c-1.347-1.23-3.007-1.938-4.556-1.938
		c-0.832,0-1.605,0.196-2.301,0.582c-1.132,0.627-1.936,1.687-2.325,3.063c-0.534,1.89-0.205,4.099,0.904,6.056
		c1.429,2.521,3.907,4.151,6.313,4.151c0.833,0,1.607-0.194,2.304-0.582c2.056-1.139,3.007-3.817,2.367-6.666
		c-0.03-0.137-0.004-0.28,0.073-0.396c0.077-0.119,0.198-0.198,0.335-0.226l3.972-0.754l-3.612-6.313L21.277,226.349z"/>
	<path fill="#231F20" d="M242.359,124.304c0.084-0.289,0.047-0.592-0.104-0.854L228.51,99.173l-0.633-1.119
		c-0.203-0.359-0.59-0.582-1.01-0.582c-0.195,0-0.392,0.05-0.563,0.146c-0.271,0.149-0.465,0.394-0.549,0.687
		c-0.082,0.291-0.045,0.595,0.104,0.857l14.377,25.395c0.301,0.529,1.037,0.738,1.574,0.438
		C242.082,124.843,242.277,124.599,242.359,124.304z"/>
	<path fill="#231F20" d="M251.113,119.458c0.082-0.291,0.045-0.595-0.104-0.856l-14.377-25.394c-0.203-0.361-0.59-0.584-1.012-0.584
		c-0.197,0-0.393,0.049-0.564,0.146c-0.27,0.149-0.463,0.394-0.545,0.687c-0.084,0.291-0.045,0.594,0.104,0.857l11.07,19.555
		l3.307,5.842c0.301,0.527,1.035,0.736,1.576,0.436C250.838,119.995,251.031,119.751,251.113,119.458z"/>
	<path fill="#231F20" d="M233.156,93.839c-0.471-0.83-1.371-1.346-2.354-1.346c-0.473,0-0.944,0.123-1.363,0.354l-0.137,0.076
		c-0.649,0.36-1.118,0.947-1.317,1.649c-0.19,0.677-0.106,1.384,0.235,1.99l15.484,27.346c0.473,0.837,1.381,1.357,2.369,1.357
		c0.473,0,0.939-0.121,1.354-0.351l0.135-0.076c0.648-0.358,1.115-0.944,1.314-1.647c0.193-0.683,0.107-1.396-0.238-2.006
		L233.156,93.839z"/>
	<path fill="#231F20" d="M267.469,105.704c0-0.002-0.002-0.005-0.004-0.007l-11.109-19.623l0,0l-2.285-4.04
		c-1.148-2.029-3.328-3.29-5.686-3.29c-1.104,0-2.203,0.283-3.174,0.821c-1.521,0.843-2.619,2.223-3.086,3.883
		c-0.465,1.646-0.254,3.373,0.59,4.864l0.133,0.237l-0.119,0.245c-0.234,0.477-2.287,4.521-4.68,4.813l13.35,23.582
		c0.779-0.981,2.521-1.493,5.133-1.493c0.842,0,1.441,0.057,1.469,0.061l0.268,0.025l0.131,0.232
		c1.15,2.029,3.328,3.291,5.686,3.291h0.002c1.104,0,2.201-0.283,3.174-0.82c1.521-0.844,2.615-2.223,3.084-3.884
		c0.465-1.646,0.254-3.373-0.59-4.863L267.469,105.704z"/>
	<path fill="#231F20" d="M271.25,100.194c-0.002-0.001-0.002-0.002-0.002-0.003l-8.17-14.428c-0.002-0.004-0.004-0.008-0.006-0.012
		l-1.465-2.586c-0.609-1.08-1.676-1.777-2.713-1.777c-0.363,0-0.703,0.086-1.012,0.255c-0.494,0.274-0.846,0.735-1.014,1.333
		c-0.23,0.811-0.088,1.753,0.387,2.589l11.107,19.623c0.826,1.458,2.541,2.175,3.725,1.521c0.494-0.273,0.846-0.734,1.014-1.332
		c0.23-0.81,0.088-1.752-0.385-2.588L271.25,100.194z"/>
	<path fill="#231F20" d="M267.748,83.178c-0.559-0.984-1.498-1.621-2.395-1.621c-0.313,0-0.605,0.076-0.877,0.225
		c-0.428,0.238-0.729,0.631-0.871,1.134c-0.201,0.712-0.066,1.564,0.371,2.339l8.17,14.427c0.748,1.326,2.221,1.976,3.268,1.396
		c0.43-0.238,0.73-0.63,0.873-1.135c0.201-0.712,0.066-1.564-0.371-2.337L267.748,83.178z"/>
	<path fill="#231F20" d="M182.824,196.479c1.963,0,3.909-0.504,5.633-1.457c2.703-1.498,4.649-3.947,5.482-6.898
		c0.825-2.926,0.452-5.998-1.048-8.647c-2.04-3.604-5.907-5.845-10.091-5.845c-1.963,0-3.909,0.504-5.633,1.459
		c-2.703,1.496-4.649,3.943-5.483,6.896c-0.825,2.927-0.453,5.998,1.048,8.647C174.773,194.239,178.641,196.479,182.824,196.479z
		 M178.353,177.179c4.392-2.434,9.966-0.877,12.423,3.467c2.46,4.342,0.889,9.854-3.504,12.287
		c-4.391,2.432-9.965,0.877-12.423-3.467C172.39,185.122,173.961,179.608,178.353,177.179z"/>
	<path fill="#231F20" d="M155.42,151.954c-0.021,6.898-0.049,14.121-0.082,21.689c-0.021,4.801-0.033,8.127-0.033,9.438
		c0,0.303-0.004,0.656-0.01,1.053l2.355,5.31l57.007,34.112l17.368-31.227L155.42,151.954z M176.926,174.651
		c1.797-0.996,3.828-1.521,5.877-1.521c4.363,0,8.396,2.336,10.525,6.101c1.567,2.769,1.957,5.976,1.096,9.028
		c-0.869,3.082-2.902,5.64-5.725,7.203c-1.797,0.994-3.828,1.521-5.875,1.521c-4.363,0-8.398-2.338-10.529-6.101
		c-1.565-2.77-1.955-5.977-1.092-9.032C172.071,178.769,174.104,176.212,176.926,174.651z"/>
	<path fill="#231F20" d="M127.6,171.458c-0.051-12.303-0.088-23.705-0.109-34.223L56.709,99.931l-12.202,21.803L127.6,171.458z"/>
	<path fill="#231F20" d="M231.889,240.497c3.236,0.002,5.982-1.631,7.939-4.719l2.506-4.605c0.08-0.332,0.186-0.657,0.355-0.967
		l9.713-17.635c0.094-0.174,0.203-0.338,0.318-0.492l1.137-2.086c3.969-6.266,3.176-12.434-2.006-15.748l-4.146-2.633
		l-22.502,40.207l-0.271,0.498l-0.004-0.002l-2.438,4.357C225.771,239.177,229.015,240.497,231.889,240.497z"/>
	<polygon fill="#231F20" points="224.528,230.901 243.27,196.751 234.121,191.581 215.012,225.528 	"/>
	<path fill="#231F20" d="M243.598,230.704c-0.809,1.465-0.199,3.418,1.328,4.268l0.268,0.148c0.518,0.289,1.1,0.443,1.678,0.443
		c1.078,0,2.021-0.535,2.521-1.43l9.791-17.492c0.291-1.605,0.289-3.662-1.297-4.545l-0.412-0.23
		c-0.451-0.252-0.965-0.387-1.479-0.387c-1.117,0-2.146,0.609-2.688,1.59L243.598,230.704z"/>
	<path fill="#231F20" d="M253.84,229.003l3.979,0.765c0.137,0.024,0.254,0.104,0.33,0.219c0.078,0.114,0.105,0.254,0.078,0.39
		c-0.566,2.84,0.369,5.41,2.385,6.547c0.691,0.393,1.463,0.59,2.293,0.59c2.383,0,4.84-1.639,6.262-4.178
		c1.975-3.527,1.348-7.66-1.396-9.211c-2.021-1.14-4.867-0.515-6.939,1.491c-0.104,0.099-0.262,0.14-0.377,0.146
		c-0.141-0.004-0.273-0.064-0.367-0.168l-2.701-2.984L253.84,229.003z"/>
	<path fill="#231F20" d="M57.248,96.854c0.31-0.554,0.113-1.259-0.437-1.567c-0.171-0.098-0.364-0.148-0.558-0.148
		c-0.412,0-0.792,0.224-0.995,0.582l-14.326,25.598c-0.308,0.555-0.112,1.255,0.438,1.564c0.534,0.303,1.258,0.094,1.555-0.438
		L57.248,96.854z"/>
	<path fill="#231F20" d="M34.24,117.538l14.322-25.59c0.311-0.554,0.114-1.258-0.436-1.569c-0.17-0.096-0.364-0.146-0.558-0.146
		c-0.414,0-0.796,0.226-0.998,0.585l-14.322,25.589c-0.31,0.556-0.114,1.259,0.436,1.568
		C33.223,118.278,33.942,118.068,34.24,117.538z"/>
	<path fill="#231F20" d="M54.899,94.241c0.726-1.298,0.25-2.957-1.062-3.696l-0.137-0.08c-0.407-0.229-0.872-0.353-1.34-0.353
		c-0.978,0-1.877,0.522-2.348,1.364l-15.423,27.557c-0.723,1.291-0.243,2.943,1.068,3.685l0.134,0.076
		c1.273,0.717,2.99,0.244,3.685-0.996L54.899,94.241z"/>
	<path fill="#231F20" d="M31.859,114.984l13.3-23.765c-2.381-0.296-4.414-4.381-4.646-4.862l-0.117-0.243l0.132-0.233
		c1.746-3.119,0.641-7.083-2.465-8.837c-0.965-0.545-2.057-0.833-3.157-0.833c-2.333,0-4.492,1.268-5.635,3.31l-2.553,4.562
		l-10.792,19.283c-0.002,0.005-0.006,0.009-0.008,0.013l-2.271,4.059c-1.746,3.119-0.64,7.084,2.464,8.837
		c0.965,0.546,2.057,0.834,3.157,0.834c2.333,0,4.492-1.269,5.635-3.31l0.132-0.236l0.269-0.025
		c0.024-0.002,0.607-0.059,1.427-0.059C29.342,113.477,31.081,113.993,31.859,114.984z"/>
	<path fill="#231F20" d="M26.09,83.087c0.849-1.517,0.572-3.296-0.618-3.967c-0.303-0.172-0.641-0.259-1.001-0.259
		c-1.025,0-2.081,0.702-2.688,1.788l-11.066,19.773c-0.849,1.516-0.572,3.295,0.617,3.967c1.166,0.658,2.868-0.061,3.69-1.53
		L26.09,83.087z"/>
	<path fill="#231F20" d="M7.549,95.189c-0.772,1.379-0.557,2.922,0.49,3.513c1.033,0.584,2.491-0.068,3.238-1.402l8.138-14.539
		c0.772-1.378,0.557-2.921-0.491-3.513c-0.267-0.151-0.559-0.229-0.868-0.229c-0.886,0-1.816,0.641-2.37,1.63L7.549,95.189z"/>
	<path fill="#231F20" d="M148.905,239.442l0.06-69.572l4.342,9.781c0.006-1.596,0.015-3.623,0.023-6.018
		c0.082-19.068,0.129-36.11,0.139-51.123h-1.979l0.043-65.726l1.669,5.024c-0.193-13.211-0.486-20.413-0.88-21.52l-0.05-0.208
		c-0.688-5.334-4.366-17.026-10.797-17.026c-6.432,0-10.108,11.692-10.799,17.026l-0.049,0.207
		c-0.393,1.106-0.686,8.309-0.877,21.518l1.666-5.021l0.043,65.726h-1.979c0.011,15.014,0.058,32.057,0.138,51.127
		c0.006,1.129,0.01,2.17,0.014,3.127l3.06-6.895l0.062,69.571h-1.429c0.411,8.992,0.864,16.504,1.32,20.112
		c1.455,0.271,4.905,0.855,7.501,0.855c2.686,0,7.072-0.623,8.799-0.885c0.473-3.629,1.055-11.123,1.637-20.084h-1.675V239.442z"/>
	<polygon fill="#231F20" points="112.387,120.505 129.449,120.505 129.414,69.187 	"/>
	<polygon fill="#231F20" points="104.901,237.435 130.741,237.435 130.689,179.323 	"/>
	<polygon fill="#231F20" points="170.56,120.505 153.531,69.187 153.498,120.505 	"/>
	<polygon fill="#231F20" points="176.754,237.435 150.965,179.323 150.916,237.435 	"/>
</g>
</svg>
