<?xml version="1.0" encoding="utf-8"?>
<!-- Generator: Adobe Illustrator 15.1.0, SVG Export Plug-In . SVG Version: 6.00 Build 0)  -->
<!DOCTYPE svg PUBLIC "-//W3C//DTD SVG 1.1//EN" "http://www.w3.org/Graphics/SVG/1.1/DTD/svg11.dtd">
<svg version="1.1" id="Layer_3" xmlns="http://www.w3.org/2000/svg" xmlns:xlink="http://www.w3.org/1999/xlink" x="0px" y="0px"
	 width="283.465px" height="283.465px" viewBox="0 0 283.465 283.465" enable-background="new 0 0 283.465 283.465"
	 xml:space="preserve">
<g>
	<path d="M214.75,164.149v-3.42c-27.287-15.913-51.896-35.886-73.018-59.118c-21.122,23.232-45.729,43.205-73.017,59.118v3.42H68.66
		v23.99c15.937,22.957,42.476,37.996,72.521,37.996c30.739,0,57.811-15.74,73.624-39.597v-22.391L214.75,164.149L214.75,164.149z
		 M141.181,208.931c-25.996,0-48.747-13.976-61.146-34.816c22.457-13.391,43.149-29.412,61.698-47.631
		c18.325,18,38.749,33.846,60.894,47.138C190.296,194.738,167.385,208.931,141.181,208.931z"/>
	<path d="M141.181,234.3c-28.896,0-54.841-12.73-72.521-32.869v23.879c19.679,16.354,44.947,26.195,72.521,26.195
		c28.082,0,53.783-10.232,73.624-27.133v-24.266C197.097,220.996,170.692,234.3,141.181,234.3z"/>
	<path d="M68.66,234.905v20.956c21.103,13,45.926,20.517,72.521,20.517c27.039,0,52.289-7.775,73.624-21.178v-21.122
		c-20.419,15.646-45.938,24.981-73.624,24.981C113.974,259.06,88.888,250.063,68.66,234.905z"/>
	<path d="M141.732,43.761c19.292,29.396,44.14,54.833,73.018,74.837V95.985c-30.61-23.563-55.72-53.978-73.018-88.898
		c-17.298,34.922-42.405,65.336-73.017,88.898v22.611C97.594,98.594,122.438,73.157,141.732,43.761z"/>
	<path d="M141.732,87.383c20.78,24.518,45.419,45.654,73.018,62.428v-20.46c-28.333-18.721-53.105-42.427-73.018-69.873
		c-19.913,27.446-44.684,51.152-73.017,69.873v20.46C96.312,133.037,120.952,111.9,141.732,87.383z"/>
</g>
</svg>
