<?xml version="1.0" encoding="utf-8"?>
<!-- Generator: Adobe Illustrator 15.1.0, SVG Export Plug-In . SVG Version: 6.00 Build 0)  -->
<!DOCTYPE svg PUBLIC "-//W3C//DTD SVG 1.1//EN" "http://www.w3.org/Graphics/SVG/1.1/DTD/svg11.dtd">
<svg version="1.1" id="Layer_3" xmlns="http://www.w3.org/2000/svg" xmlns:xlink="http://www.w3.org/1999/xlink" x="0px" y="0px"
	 width="283.465px" height="283.465px" viewBox="0 0 283.465 283.465" enable-background="new 0 0 283.465 283.465"
	 xml:space="preserve">
<g>
	<path fill="#231F20" d="M276.378,273.327c-50.89-30.928-96.325-69.906-134.646-115.12c-38.319,45.214-83.756,84.192-134.646,115.12
		v-37.729c52.245-34.519,97.925-78.236,134.646-128.848c36.722,50.611,82.4,94.329,134.646,128.848V273.327z"/>
	<path fill="#231F20" d="M276.378,215.768c-53.249-36.885-99.064-83.794-134.646-138.001
		C106.155,131.974,60.337,178.883,7.088,215.768v-41.696c56.449-43.45,102.748-99.536,134.645-163.934
		c31.9,64.397,78.198,120.483,134.646,163.934V215.768z"/>
</g>
</svg>
