<?xml version="1.0" encoding="utf-8"?>
<!-- Generator: Adobe Illustrator 15.1.0, SVG Export Plug-In . SVG Version: 6.00 Build 0)  -->
<!DOCTYPE svg PUBLIC "-//W3C//DTD SVG 1.1//EN" "http://www.w3.org/Graphics/SVG/1.1/DTD/svg11.dtd">
<svg version="1.1" id="Layer_3" xmlns="http://www.w3.org/2000/svg" xmlns:xlink="http://www.w3.org/1999/xlink" x="0px" y="0px"
	 width="283.465px" height="283.465px" viewBox="0 0 283.465 283.465" enable-background="new 0 0 283.465 283.465"
	 xml:space="preserve">
<g>
	<path fill="none" d="M135.626,168.449L135.626,168.449l-8.842-6.862c-0.133,0.289-0.287,0.585-0.451,0.888
		c-0.018,0.03-0.03,0.062-0.048,0.094c-0.026,0.047-0.058,0.097-0.085,0.145c-0.275,0.487-0.59,0.996-0.928,1.52
		c-0.331,0.515-0.678,1.041-1.052,1.598l0.001-0.001c-0.001,0.001-0.001,0.001-0.001,0.002l1.427-0.963
		c0.307-0.163,1.257-0.505,1.635,0.755c0.044,1.893,0.216,2.221,0.507,3.943c0.079,0.475,0.099,1.248,0.097,2.125
		c-0.003,1.17-0.044,2.522-0.034,3.592c0.002,0.268,0.008,0.518,0.019,0.744c0.482,0.119,0.607-0.648,1.034-0.317l2.364,3.088
		l1.07,6.419l2.96-2.505c1.085,0.185,1.469,3.164,2.229,4.004c-0.065,1.712-0.125,3.577-0.058,5.411
		c0.003,0.098,0.003,0.195,0.007,0.292l-0.73,2.995v0.001l5.021,1.913l5.025-1.906v-0.001l-0.73-2.998
		c0.086-1.924,0.018-3.901-0.049-5.7c0.758-0.84,1.141-3.818,2.228-4.004l2.958,2.504l0.691-4.156l-10.043-7.785l-10.067,7.809
		L135.626,168.449z"/>
	<path fill="none" d="M151.9,181.014v0.004l0.369-2.213l2.365-3.088c0.426-0.332,0.551,0.438,1.033,0.317
		c0.085-1.8-0.131-5.194,0.083-6.46c0.289-1.725,0.464-2.053,0.506-3.943c0.236-0.787,0.696-0.949,1.084-0.922
		c0.233,0.018,0.438,0.104,0.554,0.164l1.424,0.964c0-0.001,0-0.002-0.002-0.002l0.004,0.002c-1.033-1.539-1.936-2.901-2.521-4.153
		l-0.001,0.002c0-0.002,0-0.002,0-0.002l-8.722,6.771l3.821,12.563L151.9,181.014z"/>
	<path fill="none" d="M80.035,174.115c12.399,20.84,35.15,34.816,61.146,34.816c26.204,0,49.115-14.193,61.446-35.31
		c-22.145-13.292-42.568-29.138-60.894-47.138C123.184,144.703,102.492,160.725,80.035,174.115z M141.851,147.999l3.849,12.642
		h10.674h0.001c-0.168-0.529-0.268-1.039-0.268-1.535l0.441-4.219c-6.458-6.892-5.662-9.914-5.845-10.48
		c-0.013-0.037-0.029-0.063-0.052-0.08c7.623,0.419,11.473,7.474,13.953,10.244c4.766,2.537,4.365,3.818,5.226,5.916
		c0,0,0.636,5.164-0.005,8.147c-0.088,0.406-0.107,0.562-0.083,0.58c0.06,0.04,0.381-0.728,0.67-0.778
		c0.362-0.063,0.674,0.994,0.358,6.149c-0.174,2.944-3.271,9.063-3.271,9.063c0.139,0.084,0.273,0.131,0.402,0.152
		c0.647,0.102,1.174-0.477,1.597-0.58c0.169-0.041,0.319-0.008,0.457,0.176c-0.335,1.891-0.229,3.965-1.194,5.664l-4.533,5.666
		l3.211-0.127h0.002c-0.277,0.568-0.865,4.156-11.02,5.98h-0.001l-6.481-1.32h-0.002l-2.201,0.943l4.908,3.715l-5.099,1.258
		l-5.78-3.527l-5.775,3.521l-5.1-1.258l4.91-3.717l-2.203-0.942l-6.484,1.322c-10.156-1.825-10.744-5.413-11.015-5.979l3.21,0.127
		h0.001l-4.533-5.666c-0.966-1.699-0.859-3.775-1.197-5.664c0.137-0.184,0.289-0.218,0.457-0.177
		c0.422,0.103,0.948,0.683,1.594,0.58c0.13-0.021,0.264-0.067,0.403-0.151c0,0-3.093-6.119-3.272-9.065
		c-0.312-5.151-0.001-6.211,0.36-6.149c0.288,0.049,0.608,0.812,0.669,0.778c0.025-0.015,0.005-0.17-0.083-0.58
		c-0.638-2.987-0.003-8.147-0.003-8.147c0.86-2.098,0.463-3.377,5.225-5.916c2.478-2.772,6.331-9.826,13.953-10.248
		c0.008-0.006,0.024,0,0.034-0.003c0.039-0.003,0.077-0.009,0.113-0.011c-0.013-0.004-0.016,0.004-0.027,0.004
		c-0.035-0.006-0.061,0.001-0.086,0.007c-0.01,0.001-0.019,0.003-0.029,0.003c-0.374,0.266,0.991,3.213-5.896,10.563l0.438,4.22
		c0,0.498-0.097,1.01-0.267,1.541H138h0.002l3.849-12.64V147.999z"/>
	<path fill="#231F20" d="M138,160.641h-10.837c0.17-0.531,0.267-1.043,0.267-1.541l-0.438-4.22
		c6.887-7.351,5.522-10.298,5.896-10.563c0.01,0,0.019-0.002,0.029-0.003c-0.01,0.003-0.026-0.003-0.034,0.003
		c-7.622,0.422-11.475,7.476-13.953,10.248c-4.762,2.539-4.365,3.818-5.225,5.916c0,0-0.635,5.16,0.003,8.147
		c0.088,0.41,0.108,0.565,0.083,0.58c-0.061,0.033-0.381-0.729-0.669-0.778c-0.361-0.062-0.672,0.998-0.36,6.149
		c0.179,2.946,3.272,9.065,3.272,9.065c-0.139,0.084-0.273,0.131-0.403,0.151c-0.646,0.103-1.172-0.478-1.594-0.58
		c-0.168-0.041-0.32-0.007-0.457,0.177c0.338,1.889,0.231,3.965,1.197,5.664l4.533,5.666h-0.001l-3.21-0.127
		c0.271,0.566,0.859,4.154,11.015,5.979l6.484-1.322l2.203,0.942l-4.91,3.717l5.1,1.258l5.775-3.521l5.78,3.527l5.099-1.258
		l-4.908-3.715l2.201-0.943h0.002l6.481,1.32h0.001c10.154-1.824,10.742-5.412,11.02-5.98h-0.002l-3.211,0.127l4.533-5.666
		c0.965-1.699,0.859-3.773,1.194-5.664c-0.138-0.184-0.288-0.217-0.457-0.176c-0.423,0.104-0.949,0.682-1.597,0.58
		c-0.129-0.021-0.264-0.068-0.402-0.152c0,0,3.098-6.119,3.271-9.063c0.315-5.155,0.004-6.213-0.358-6.149
		c-0.289,0.051-0.61,0.818-0.67,0.778c-0.024-0.019-0.005-0.174,0.083-0.58c0.641-2.983,0.005-8.147,0.005-8.147
		c-0.86-2.098-0.46-3.379-5.226-5.916c-2.48-2.771-6.33-9.825-13.953-10.244c0.022,0.018,0.039,0.043,0.052,0.08
		c0.183,0.566-0.613,3.589,5.845,10.48l-0.441,4.219c0,0.496,0.1,1.006,0.268,1.535h-0.001H145.7l-3.849-12.642v0.002l-3.849,12.64
		H138z M156.799,161.684c0,0,0,0,0,0.002V161.684c0.586,1.252,1.488,2.614,2.521,4.153l-0.004-0.002
		c0.002,0,0.002,0.001,0.002,0.002l-1.424-0.964c-0.115-0.061-0.32-0.146-0.554-0.164c-0.388-0.027-0.848,0.135-1.084,0.922
		c-0.042,1.891-0.217,2.219-0.506,3.943c-0.214,1.266,0.002,4.66-0.083,6.46c-0.482,0.12-0.607-0.649-1.033-0.317l-2.365,3.088
		l-0.369,2.213v-0.004l-0.002,0.004l-3.821-12.563L156.799,161.684z M151.891,181.066l-0.691,4.156l-2.958-2.504
		c-1.087,0.186-1.47,3.164-2.228,4.004c0.066,1.799,0.135,3.776,0.049,5.7l0.73,2.998v0.001l-5.025,1.906l-5.021-1.913v-0.001
		l0.73-2.995c-0.004-0.097-0.004-0.194-0.007-0.292c-0.067-1.834-0.007-3.699,0.058-5.411c-0.76-0.84-1.144-3.819-2.229-4.004
		l-2.96,2.505l-1.07-6.419l-2.364-3.088c-0.427-0.331-0.552,0.437-1.034,0.317c-0.011-0.227-0.017-0.477-0.019-0.744
		c-0.01-1.069,0.031-2.422,0.034-3.592c0.002-0.877-0.018-1.65-0.097-2.125c-0.291-1.723-0.463-2.051-0.507-3.943
		c-0.378-1.26-1.328-0.918-1.635-0.755l-1.427,0.963c0-0.001,0-0.001,0.001-0.002l-0.001,0.001c0.374-0.557,0.721-1.083,1.052-1.598
		c0.338-0.523,0.653-1.032,0.928-1.52c0.027-0.048,0.059-0.098,0.085-0.145c0.018-0.032,0.03-0.063,0.048-0.094
		c0.164-0.303,0.318-0.599,0.451-0.888l8.842,6.861v0.001l-3.846,12.641l10.067-7.809L151.891,181.066z"/>
	<path fill="#231F20" d="M133.03,144.303c-0.036,0.002-0.074,0.008-0.113,0.011c0.025-0.006,0.051-0.013,0.086-0.007
		C133.014,144.307,133.017,144.299,133.03,144.303z"/>
	<path d="M214.75,164.148v-3.42c-27.287-15.912-51.896-35.885-73.018-59.118c-21.122,23.232-45.729,43.206-73.017,59.118v3.42H68.66
		v23.99c15.937,22.957,42.476,37.996,72.521,37.996c30.739,0,57.811-15.74,73.624-39.597v-22.392L214.75,164.148z M141.181,208.932
		c-25.996,0-48.747-13.977-61.146-34.816c22.457-13.391,43.149-29.412,61.698-47.631c18.326,18,38.75,33.846,60.894,47.138
		C190.296,194.738,167.385,208.932,141.181,208.932z"/>
	<path d="M141.181,234.3c-28.896,0-54.841-12.729-72.521-32.868v23.879c19.679,16.354,44.947,26.194,72.521,26.194
		c28.083,0,53.783-10.231,73.624-27.133v-24.267C197.098,220.996,170.691,234.3,141.181,234.3z"/>
	<path d="M68.66,234.904v20.957c21.103,13,45.926,20.517,72.521,20.517c27.04,0,52.29-7.774,73.624-21.178v-21.122
		c-20.418,15.646-45.938,24.98-73.624,24.98C113.974,259.061,88.888,250.063,68.66,234.904z"/>
	<path d="M141.732,43.761c19.292,29.396,44.14,54.833,73.018,74.837V95.985c-30.609-23.563-55.721-53.978-73.018-88.898
		c-17.298,34.922-42.405,65.336-73.017,88.898v22.611C97.594,98.594,122.438,73.157,141.732,43.761z"/>
	<path d="M141.732,87.383c20.78,24.518,45.418,45.654,73.018,62.428v-20.459c-28.333-18.721-53.105-42.427-73.018-69.873
		c-19.913,27.446-44.684,51.152-73.017,69.873v20.459C96.312,133.037,120.952,111.9,141.732,87.383z"/>
</g>
</svg>
