<?xml version="1.0" encoding="utf-8"?>
<!-- Generator: Adobe Illustrator 15.1.0, SVG Export Plug-In . SVG Version: 6.00 Build 0)  -->
<!DOCTYPE svg PUBLIC "-//W3C//DTD SVG 1.1//EN" "http://www.w3.org/Graphics/SVG/1.1/DTD/svg11.dtd">
<svg version="1.1" id="Layer_3" xmlns="http://www.w3.org/2000/svg" xmlns:xlink="http://www.w3.org/1999/xlink" x="0px" y="0px"
	 width="283.465px" height="283.465px" viewBox="0 0 283.465 283.465" enable-background="new 0 0 283.465 283.465"
	 xml:space="preserve">
<g>
	<path id="path7839" d="M141.733,7.087C111.78,67.558,68.306,120.221,15.301,161.023v8.021h-0.097v41.539
		c27.594,39.752,73.549,65.795,125.573,65.795c53.229,0,100.102-27.254,127.483-68.563v-38.771h-0.096v-8.021
		C215.161,120.221,171.686,67.558,141.733,7.087L141.733,7.087z M141.733,70.59c28.699,43.725,64.494,82.411,105.711,114.402
		c-21.28,36.842-61.089,61.593-106.666,61.593c-45.134,0-84.663-24.294-106.093-60.543
		C76.464,153.855,112.726,114.786,141.733,70.59z"/>
</g>
</svg>
