<?xml version="1.0" encoding="utf-8"?>
<!-- Generator: Adobe Illustrator 15.1.0, SVG Export Plug-In . SVG Version: 6.00 Build 0)  -->
<!DOCTYPE svg PUBLIC "-//W3C//DTD SVG 1.1//EN" "http://www.w3.org/Graphics/SVG/1.1/DTD/svg11.dtd">
<svg version="1.1" id="svg2" xmlns:svg="http://www.w3.org/2000/svg"
	 xmlns="http://www.w3.org/2000/svg" xmlns:xlink="http://www.w3.org/1999/xlink" x="0px" y="0px" width="283.465px"
	 height="283.465px" viewBox="0 0 283.465 283.465" enable-background="new 0 0 283.465 283.465" xml:space="preserve">
<g>
	<path d="M276.378,110.235l-98.957-0.383l-34.068-94.037l-33.908,93.896L7.087,110.245l82.067,59.166l-34.823,98.238l89.27-63.484
		l91.5,63.281l-36.234-99.035L276.378,110.235z M143.548,196.445l-0.307-45.571L67.103,250.81l-0.127,0.092l29.721-83.846
		l-0.115-0.082l46.646-16.104l0.01,0.01l-0.17-115.664l0.293-0.813l29.488,81.391l-29.605,35.084l113.412-34.396l0.861,0.003
		l-66.131,49.638l-48.145-15.236l78.791,99.838L143.548,196.445L143.548,196.445z M113.968,115.8l29.256,35.063L27.275,116.464
		l86.615-0.453L113.968,115.8z"/>
</g>
</svg>
