<?xml version="1.0" encoding="utf-8"?>
<!-- Generator: Adobe Illustrator 15.1.0, SVG Export Plug-In . SVG Version: 6.00 Build 0)  -->
<!DOCTYPE svg PUBLIC "-//W3C//DTD SVG 1.1//EN" "http://www.w3.org/Graphics/SVG/1.1/DTD/svg11.dtd">
<svg version="1.1" id="Layer_3" xmlns="http://www.w3.org/2000/svg" xmlns:xlink="http://www.w3.org/1999/xlink" x="0px" y="0px"
	 width="283.465px" height="283.465px" viewBox="0 0 283.465 283.465" enable-background="new 0 0 283.465 283.465"
	 xml:space="preserve">
<g>
	<polygon points="189.975,132.941 189.983,132.946 189.975,132.939 	"/>
	<path d="M176.36,144.51l1.197-0.446l-0.091,1.875l0.308-0.448l0.056-0.021l0.284-0.105l-0.195-0.176l4.423-4.93l0.091,0.082
		c-0.146-0.317-0.221-0.579-0.252-0.724L176.36,144.51z"/>
	<polygon points="202.319,119.256 191.036,132.449 203.313,120.049 	"/>
	<polygon points="181.969,139.291 182.161,139.521 182.155,139.494 182.005,138.885 175.757,142.68 175.74,142.653 174.849,144.464 
		174.411,144.767 176.102,144.537 176.08,144.614 176.185,144.575 175.979,144.329 	"/>
	<path d="M89.648,121.894L89.648,121.894c0.567,0.93,1.102,1.836,1.547,2.636c-0.338-0.944-0.658-2.094-0.808-3.333
		C90.232,121.511,89.974,121.762,89.648,121.894z"/>
	<path d="M140.841,80.049c-0.055,0.647-0.128,1.288-0.222,1.572c0,0-1.457,3.302-0.895,5.93c2.573-1.452,2.907-6.269,2.907-6.269
		c-0.334,0-1.789-1.231-1.789-1.231L140.841,80.049z"/>
	<polygon points="198.952,126.877 192.29,132.344 199.057,127.006 	"/>
	<path d="M141.732,7.087C78.659,7.085,26.231,56.107,26.231,119.581c52.323,39.597,92.866,93.933,115.501,156.796
		c22.633-62.863,63.179-117.199,115.501-156.796C257.233,56.107,204.809,7.087,141.732,7.087z M155.507,72.999
		c0,0,9.093-12.608,22.723-15.904c0.058-0.672-0.892-2.622-0.892-2.622v-0.339c0,0,2.019-1.848,5.481-3.584
		c0,0,0.925-0.496,1.959-1.127c-0.054-0.102-0.737-2.852-0.87-3.373c-0.005-0.009-0.007-0.02-0.011-0.029
		c-0.415-0.819,0.213-1.849,0.213-1.849c2.067-1.906,3.354,0.276,3.354,0.276c0.365,0.799,0.459,1.293,0.397,1.721
		c0.175,0.843,0.663,3.074,1.116,3.708c0.557,0.787,1.061,1.845,1.117,2.297c0.053,0.448-0.507,1.619-0.842,1.957
		c-0.336,0.34-4.071,3.02-4.071,3.02c0.016,1.374,0.011,3.987-0.235,4.316c0,0-15.504,1.043-24.116,13.776l0.104-0.123
		c-0.674,0.732,2.407,1.402,2.407,1.402l0.11-0.169c0,0,1.844-0.896,1.229,1.901l-0.054,4.984c0,0-4.7,2.627-4.59,7.947
		c0,0-2.857,1.006-3.301,0.169l-2.966-6.213l0.159-2.359c1.231,1.905,3.674,5.167,3.674,5.163c0.206-2.488,1.444-6.047,6.167-8.918
		l0.023-0.093l0.028-0.118c0.043-0.772-1.299-1.479-1.299-1.479c-1.085,0.581-2.371-0.033-2.371-0.033l0.164,0.058
		C160.317,77.363,154.385,73.891,155.507,72.999z M184.337,154.268l-0.986-1.551l-1.575,0.67l1.242-4.59l1.75-1.443l0.579,1.994
		L184.337,154.268z M184.968,147.365l-0.381-0.067l0.84-4.593l0.381,0.069L184.968,147.365z M198.177,125.926l2.379-0.768
		l-0.112-0.145l2.025-1.586l-0.902-1.016l4.341-1.611l-2.371,3.828l-0.813-0.914l-1.612,1.263l1.468-0.474l-2.53,3.719l-0.75-0.92
		l-8.188,6.463l-0.216-0.273l-0.062,0.051l-0.155-0.188l-0.056,0.059l-0.274-0.271l0.008-0.007l-0.167-0.141l-0.051,0.058
		c0.914,0.652,1.753,1.391,1.753,2.074c0,1.345-0.67,2.575-1.902,2.241c-0.357-0.099-1.23-0.67-1.23-0.67s0.561,0.336,1.346,1.45
		c0.781,1.123-1.008,2.469-1.907,2.241c-0.117-0.03-0.332-0.14-0.332-0.14s0.442,3.048-2.465,2.377
		c-1.618-0.373-2.425-1.294-2.836-2.044l-4.207,4.69l1.539-0.569l2.708-3.758l0.313,0.225l-2.708,3.758l-0.077,1.617l3.026-5.025
		l0.327,0.198l-3.045,5.058l0.014,1.634l0.239-0.483l1.969-1.063l-0.134-0.053l1.793-4.534l0.357,0.145l-1.794,4.53l-0.191-0.076
		l0.179,2.041l-1.943,4.631l-0.625-1.734l-1.523,0.324l-0.884,1.713l-0.521-2.151l-2.022,0.315l1.362-2.254h-1.877l0.62-0.902
		l-0.945,1.203l-0.403-1.713l-0.314,0.031l-1.701,1.801l0.031-1.867l-1.746-0.236l1.837-1.713l-1.874,1.371l0.472-2.145
		l-1.917-0.634l4.406-2.8l2.375,0.12l6.148-3.734l0.158,0.263l-0.108-0.435c0,0-0.582-0.315-0.675-1.172l-6.23,0.063
		c0.027,0.104,0.053,0.212,0.077,0.326c0,0-0.745,0.485-1.896,0.185l0.158,0.038c-1.009,1.231-5.039,0-5.039,0
		c-1.166,0.285-3.219,0.34-5.985-1.119h0.336c0,0-4.146-0.109-7.164-3.583l-0.271-0.332h-4.301c0.336,0.166,1.599,1.176,1.818,1.734
		c0.029,0.068,0.46,0.285,0.507,1.958c0.009,0.355-0.06,0.751-0.491,0.827c9.771,8.59,9.389,12.719,9.389,12.719
		c-2.237,0.672-5.707-3.354-5.707-3.354l-0.133-0.044c1.47,3.615,2.106,7.182,2.092,8.324c-0.02,1.625-3.954-3.452-4.287-3.889
		c0.721,4.053,0.203,7.133,0.203,7.133c-1.732-0.975-3.835-4.828-3.968-5.08c0.39,5.103-0.62,8.555-0.62,8.555
		c-1.797-0.695-2.969-4.85-3.207-5.757c-0.379,5.817-2.17,7.547-2.17,7.547c-1.726-1.397-2.361-4.297-2.461-7.558
		c0.057,2.015-2.354,5.768-2.354,5.768c-1.383-2.1-1.346-5.621-0.82-9.16c-0.836,3.09-3.993,6.023-3.993,6.023
		c-0.693-2.684-0.111-6.094,0.922-9.234c-2.197,3.41-5.401,5.43-5.401,5.43c-0.435-2.359,0.138-4.947,1.163-7.283
		c-2.004,2.146-4.741,2.914-4.741,2.914c0.435-5.242,9.131-12.834,9.554-13.202c-0.279-0.146-0.336-0.471-0.267-0.76
		c0.273-1.115,0.57-1.791,0.618-1.848c0.671-0.784,1.174-1.626,1.515-1.793l-4.396,0.081c-2.969,3.548-7.478,3.866-7.478,3.866
		h0.338c-3.716,1.956-5.979,1.181-6.494,0.952c-1.626,1.167-4.591,0.395-4.591,0.395l0.012-0.216
		c-1.031,0.197-1.69-0.229-1.69-0.229c0.043-0.22,0.099-0.422,0.162-0.608l-0.051,0.157h-6.264l-0.116-0.04
		c0.029,0.449-0.031,0.922-0.31,1.266l0.428,0.565c5.258,6.492,5.258,15.003,5.258,15.003c-3.021,0.224-3.807-2.801-3.807-2.801
		c0.673-6.494-2.797-10.521-2.797-10.521l-0.063-0.163c-0.746,0.862-1.741,1.919-1.955,2.063c-0.334,0.224-0.56,0.672-2.016,0.224
		c-1.455-0.446-1.119-2.465-1.119-2.465c-1.009,0.112-0.781,0.451-1.905-0.334c-1.117-0.783-0.221-2.573-0.221-2.573l0.337-0.11
		c-3.36,0.669-2.354-2.238-2.354-2.238c0.431-1.168,1.158-1.958,1.923-2.488l-0.129,0.026c0.444-1.123-2.801-1.342-2.801-1.342
		l-0.017-0.013c-0.094,0.202-0.241,0.364-0.415,0.499l0.195,0.031l0.027,0.129c1.061,4.996-0.6,8.375-2.184,10.327
		c-1.055,1.307-2.188,2.09-2.318,2.09h-0.081l-0.056-0.057c-0.526-0.525-0.336-4-0.238-5.391c-2.024,1.455-3.988,1.737-4.075,1.75
		l-0.222,0.029l0.001-0.223c0.104-7.803,6.152-8.854,7.014-8.963c-0.167-0.229-0.284-0.496-0.285-0.8
		c0-0.112,0.039-0.211,0.064-0.314l-0.008,0.01l0.012-0.117c-5.26,5.261-10.969,3.698-10.969,3.698
		c0.638-1.619,1.635-2.71,2.721-3.556c-2.441,0.143-4.401-1.818-4.401-1.818c0.706-0.721,1.413-1.22,2.119-1.563
		c-0.045,0.005-0.084,0.026-0.13,0.026c-0.587,0-1.065-0.475-1.068-1.064c0-0.594,0.478-1.073,1.068-1.073
		c0.591,0,1.069,0.482,1.069,1.073c0,0.318-0.146,0.595-0.368,0.79c0.836-0.31,1.668-0.411,2.489-0.388
		c-0.05-0.115-0.079-0.241-0.079-0.375c0-0.526,0.423-0.952,0.949-0.952c0.523,0,0.949,0.426,0.949,0.952
		c0,0.224-0.091,0.423-0.223,0.587l0.042,0.006c2.044,0.393,3.652,1.559,3.652,1.559s0.361-0.025,0.869,0.067l-0.08-0.063
		c0,0-0.357-0.542-0.848-1.332c-1.342-2.487-3.798-2.638-3.798-2.638c-5.485,2.462-10.075-2.996-10.075-2.996
		c1.231-0.833,2.311-1.262,3.358-1.427c-3.021-0.56-4.811-3.947-4.811-3.947c2.547-0.659,4.166-0.758,5.572-0.437
		c-0.029-0.096-0.06-0.191-0.06-0.296c0-0.569,0.458-1.03,1.03-1.03c0.569,0,1.03,0.461,1.03,1.03c0,0.378-0.218,0.698-0.525,0.877
		l0.08,0.032c2.869,1.167,4.178,3.854,4.178,3.854l0.39,0.672c-1.566,0.446-2.083,0.367-2.083,0.367
		c1.666,1.135,2.587,2.655,2.587,2.655s0.03-0.223,1.538,0.699l0.129,0.103c-0.461-0.828-0.971-1.742-1.486-2.662
		c-0.224-0.199-0.366-0.466-0.43-0.77c-1.505-2.689-2.945-5.24-3.222-5.653c-0.396-0.594-0.582-1.526-0.657-2.48l-0.181,0.072
		c-7.47,0.816-8.785-8.564-8.785-8.564c3.396,0.201,5.627,1.824,6.948,3.656c-3.388-4.902-0.118-12.163-0.118-12.163
		s2.91,3.583,2.795,6.94l0.146,0.245c0.686-1.982,1.945-4.086,4.217-5.73c0,0,1.06,3.874-0.885,8.16l0.764,0.758
		c0.613-0.448,1.119-0.736,1.917-1.189c0,0-0.781,9.738-4.48,11.303l-0.153,0.087c0.559,0.83,1.354,2.032,2.111,3.226
		c0.254-0.231,0.584-0.381,0.954-0.381c0.5,0,0.921,0.275,1.174,0.668c-0.01-2.588,0.898-5.367,3.978-7.403
		c0,0,1.555,9.795-1.322,12.845c0.249-0.236,0.582-0.385,0.952-0.385c0.768,0,1.385,0.617,1.385,1.383
		c0,0.034-0.017,0.063-0.02,0.096l0.125,0.057c0,0-2.02-6.159,4.477-11.419c0,0,0.673,4.698,0.221,6.488
		c1.21-1.563,3.058-2.754,5.602-2.795c0,0-1.192,7.402-6.506,9.389c0.721,0.109,1.284,0.708,1.284,1.462
		c0,0.807-0.645,1.461-1.446,1.492c0.506,0.359,0.959,0.719,0.959,0.866c1.016-0.418,1.908-0.446,1.908-0.446
		c0.574-1.152,1.212-1.455,1.509-1.537c3.65-3.06,5.507,1.457,3.947,3.702l0.252,0.074h6.269c0.456-0.917,1.106-1.457,1.707-1.777
		l-0.029-0.235c0-2.016,2.798-2.91,2.798-2.91c0.673-2.797,4.477-4.145,4.477-4.145c1.122-2.574,6.274-2.687,6.274-2.687l0.22-0.039
		v-1.681c-1.345,0.112-1.4-3.15-1.4-3.15c-0.521,0.934-1.19,1.762-2.127,2.349l-1.117,0.337c0,0-1.154-1.86-0.723-3.424
		c-0.379,0.641-0.741,1.137-1.072,1.412c0,0-1.118,1.116-1.903,1.006c0,0-1.741,0.064-1.292-4.078
		c-0.645,0.865-1.209,1.499-1.617,1.727c0,0-1.567,0.336-2.571,0.111c0,0-0.734-2.098,0.263-2.994
		c-0.231,0.244-0.402,0.393-0.493,0.416c-0.776,0.225-3.577,0.34-3.577,0.34s-0.381-2.72,0.394-3.18
		c-0.348,0.254-0.636,0.428-0.843,0.492c0,0-2.237,0.445-2.577,0.334c0,0-0.668-2.246,0.229-3.363
		c-0.088,0.052-0.167,0.091-0.229,0.117c0,0-1.004,0.334-3.021,0c0,0-0.356-2.789,0.758-3.237c-0.353,0.182-0.617,0.295-0.758,0.323
		c0,0-1.566,0.225-2.686-0.448c0,0-0.223-2.465,1.23-3.134c-0.338,0.131-0.52,0.142-0.783,0.229c0,0-1.793,0.22-3.026-1.124
		c0,0,0.108-1.744,2.189-2.935c-0.367,0.044-0.693,0.052-0.955,0.022c0,0-2.016,0.225-3.248-1.34c0,0,0.223-2.02,1.902-2.802
		c-0.389,0.025-0.637-0.008-1.009,0c0,0-2.462-0.67-2.462-1.568c0,0,0.686-2.262,2.367-2.374c-0.729-0.022-1.25-0.084-1.467-0.199
		c-1.456-0.784-1.568-1.233-1.568-1.233s1.005-2.126,2.123-2.238c-0.46-0.055-0.668-0.261-0.784-0.336
		c-1.004-0.671-1.566-1.12-1.566-1.68c0-0.56,0.896-1.789,2.019-2.015c-0.266-0.063-0.423-0.16-0.563-0.225
		c0,0-1.794-2.349-1.456-2.574c0,0,1.711-2.147,3.169-1.923c-1.615-0.735-2.598-1.526-2.383-2.329c0,0,1.121-1.681,2.798-1.793
		c-3.711-1.726-6.365-3.396-6.043-4.702c0,0,1.778-0.993,3.682-0.657c-4.456-2.488-7.806-4.975-7.042-6.508
		c1-2,4.667-0.076,4.667-0.076c-4.848-2.973-8.81-5.407-8.81-5.407c-1.118-1.008-1.341-2.461-1.341-2.461
		c20.488,2.798,37.056,23.845,38.065,25.077c1.008,1.23-0.113,3.809-0.113,3.809c-5.373,3.915-6.102,15.51,6.772,16.517v-2.079
		l3.948-0.035h-0.094c-0.509-0.948,1.996-4.281,4.053-6.769c-0.949-3.461,0.362-8.146,0.362-8.146
		c0.262-0.709,0.372-2.195,0.419-3.33l-0.079-0.031c-0.589-0.488-2.129-0.556-2.499-0.563c-0.477,0.562-0.523,1.177-0.523,1.177
		s-0.327-0.748-0.474-1.687l0.027,0.263c-0.449,0.167,0.164,4.449,0.164,4.449c-0.581,1.264-3.61,1.895-4.397,2.038
		c-0.005,0.001-0.008,0-0.014,0c-1.615,0.418-1.911-2.318-1.911-2.318c-0.113-1.68-3.022-3.583-3.022-3.583
		c-0.469-1.172-0.344-1.729-0.059-1.958c0,0,3.417-1.396,2.968-2.465c-4.12-5.83-14.887-11.849-23.054-12.759
		c-0.506-0.054-0.621-0.845-0.621-1.064c0-0.158-0.184-2.605-0.28-4.005c-0.111-0.332-2.651-2.06-3.134-2.543
		c-0.478-0.478-0.588-0.758-0.752-1.54c-0.169-0.784,0.309-2.438,0.418-2.603c0.111-0.168,1.846-5.064,1.846-5.064
		c0.051-0.725,0.251-1.328,0.783-1.708c0.783-0.56,1.516-0.249,1.792-0.169c0.672,0.197,0.98,0.897,1.064,1.568v0.172l-0.84,4.082
		c2.209,1.375,6.395,3.649,6.776,4.031c0.206,0.208,0.249,0.489,0.207,0.764l-0.413,3.94c12.684,3.426,20.479,12.5,21.807,15.729
		c0,0-3.1,3.46-4.027,3.583c0,0-0.251,1.018-1.456,0.834c3.081,2.406,3.359,6.103,3.359,6.103s0.334-0.785,0.557-4.479
		c-0.005-0.001,0.066-2.169,2.083-2.503l0.069,0.652c-0.087-1.414,0.382-3.005,2.881-3.187c4.59-0.34,3.135,0.109,4.252-0.448
		c1.121-0.564-0.108-1.569,3.139-1.234c3.246,0.337,7.637,1.776,9.738,3.581c1.621,1.402-0.229,1.008-0.229,1.008
		s0.669,1.456-0.223,5.599c-0.803,3.705,0.223,5.15,0.338,5.486c0,0,3.988,8.612,3.429,9.124h1.946v2.517
		c12.871-1.003,12.205-12.535,6.824-16.453c0,0-1.114-2.576-0.11-3.809c1.008-1.232,17.575-22.277,38.066-25.076
		c0,0-0.229,1.457-1.347,2.461c0,0-3.966,2.437-8.811,5.41c0,0,3.665-1.926,4.672,0.077c0.768,1.536-2.619,4.036-7.104,6.542
		l0.136-0.047c1.902-0.34,3.605,0.669,3.605,0.669c0.319,1.306-2.341,2.983-6.04,4.701c1.681,0.113,2.799,1.791,2.799,1.791
		c0.211,0.798-0.755,1.618-2.353,2.354c1.452-0.227,3.14,1.905,3.14,1.905c0.336,0.224-1.46,2.573-1.46,2.573
		c-0.137,0.063-0.294,0.164-0.56,0.224c1.122,0.226,2.016,1.453,2.016,2.016c0,0.562-0.563,1.011-1.568,1.679
		c-0.115,0.078-0.426,0.142-0.888,0.195l0.101,0.142c1.121,0.111,2.13,2.237,2.13,2.237s-0.109,0.45-1.566,1.231
		c-0.246,0.134-0.87,0.194-1.734,0.206l0.278,0.133c1.682,0.11,2.354,2.238,2.354,2.238c0,0.896-2.465,1.567-2.465,1.567
		c-0.367-0.006-0.746-0.023-1.125-0.047l0.114,0.047c1.686,0.783,1.905,2.798,1.905,2.798c-1.233,1.568-3.246,1.342-3.246,1.342
		c-0.293,0.034-0.586-0.052-1.008-0.108c2.124,1.229,2.239,3.022,2.239,3.022c-1.231,1.34-3.024,1.12-3.024,1.12
		c-0.216-0.07-0.504-0.117-0.773-0.222c1.445,0.677,1.228,3.136,1.228,3.136c-1.121,0.669-2.688,0.445-2.688,0.445
		c-0.133-0.025-0.345-0.145-0.646-0.297c1.085,0.48,0.646,3.203,0.646,3.203c-2.018,0.338-3.028,0-3.028,0l-0.126,0.03
		c0.739,1.154,0.121,3.221,0.121,3.221c-0.336,0.109-2.574-0.334-2.574-0.334c-0.197-0.063-0.459-0.233-0.783-0.47
		c0.714,0.535,0.34,3.155,0.34,3.155s-2.798-0.112-3.579-0.337c-0.098-0.025-0.253-0.148-0.507-0.418
		c1.008,0.893,0.277,2.994,0.277,2.994c-1.006,0.227-2.571-0.111-2.571-0.111c-0.422-0.232-0.956-0.801-1.624-1.706
		c0.452,4.141-1.286,4.057-1.286,4.057c-0.782,0.113-1.902-1.009-1.902-1.009c-0.325-0.271-0.7-0.749-1.079-1.38
		c0.41,1.563-0.715,3.397-0.715,3.397l-1.12-0.334c-0.898-0.566-1.61-1.382-2.125-2.271c-0.015,0.52-0.238,3.298-1.453,3.199
		l0.054,1.084c0,0,5.149,0.111,6.271,2.685c0,0,3.809,1.346,4.479,4.146c0,0,2.799,0.895,2.799,2.909l-0.178,0.158
		c0.645,0.31,1.359,0.86,1.857,1.854h6.816c-2.716-3.444,3.172-5.891,4.883-2.689c0.187,0.358,0.543,0.04,1.051,0.337l2.449-12.909
		l0.377,0.071l-2.44,12.869l5.538-16.941l0.367,0.121l-5.601,17.129l-0.366-0.121l0.025-0.074l-0.202-0.039
		c0.047,0.037,0.093,0.068,0.142,0.118c0.289,0.289,1.051,0.743,1.827,1.271l-0.137-0.1l0.013-0.017l-0.298-0.199l0.024-0.037
		l-0.48-0.285l0.008-0.013l-0.293-0.147l0.062-0.121l-0.349-0.146l8.957-21.438l0.356,0.148l-8.909,21.315l9.176-18.123l0.344,0.173
		l-8.762,17.31l9.601-16.931l0.335,0.19l-9.659,17.035l8.207-12.646l0.323,0.209l-0.94,1.445l0.952-1.434l0.324,0.212l-8.602,12.957
		l9.156-12.595l-1.882-1.27l1.902-1.316l-0.172-0.106l2.828-4.545l-0.965-0.515l-1.087,2.004l-0.257-0.14l-0.095,0.659l-2.688-1.246
		l3.333-3.208l-0.512,3.525l4.249-7.835l0.34,0.184l-3.051,5.627l3.113-2.672l-0.895,4.409l-1.146-0.611l-2.617,4.206l1.523-1.053
		l-0.524,1.662l6.491-9.549l-1.148-0.686l3.652-2.845l-1.108,4.365l-1.065-0.636l-6.76,9.946l-0.205-0.139l-0.685,2.172l-0.25-0.169
		l-8.039,11.052l10.215-12.086l0.293,0.249l-1.372,1.626l1.392-1.629l-1.013-0.809l3.075-1.788l-0.188-0.173l3.009-3.286
		l-0.998-0.799l4.004-2.32l-1.69,4.17l-1.079-0.863l0.063,0.058l-2.741,2.991l0.545-0.316l-1.688,4.165l3.767-3.806l0.274,0.271
		l-15.693,15.85l7.044-5.782L198.177,125.926z M90.028,116.738c0,0.768-0.62,1.391-1.385,1.391c-0.764,0-1.384-0.623-1.385-1.391
		c0-0.762,0.622-1.383,1.385-1.383C89.408,115.355,90.028,115.974,90.028,116.738z M206.032,101.787l-0.717,4.44l-2.672-1.284
		L206.032,101.787z M199.138,106.278l-0.335,4.491l-2.771-1.054L199.138,106.278z M195.274,110.34l-0.047,4.501l-2.835-0.879
		L195.274,110.34z M191.774,118.672l-2.913-0.559l2.468-3.915L191.774,118.672z M208.305,117.371l-2.088-2.11l4.25-1.835
		L208.305,117.371z"/>
</g>
</svg>
