<?xml version="1.0" encoding="utf-8"?>
<!-- Generator: Adobe Illustrator 15.1.0, SVG Export Plug-In . SVG Version: 6.00 Build 0)  -->
<!DOCTYPE svg PUBLIC "-//W3C//DTD SVG 1.1//EN" "http://www.w3.org/Graphics/SVG/1.1/DTD/svg11.dtd">
<svg version="1.1" id="svg2" xmlns:svg="http://www.w3.org/2000/svg"
	 xmlns="http://www.w3.org/2000/svg" xmlns:xlink="http://www.w3.org/1999/xlink" x="0px" y="0px" width="283.465px"
	 height="283.465px" viewBox="0 0 283.465 283.465" enable-background="new 0 0 283.465 283.465" xml:space="preserve">
<path d="M276.378,133.914l-24.734-0.097l-8.551-23.606l-8.512,23.569l-25.521,0.134l0,0l-24.73-0.097l-8.555-23.606l-8.512,23.569
	l-25.498,0.134l0,0l-24.732-0.097l-8.553-23.606l-8.512,23.569l-25.508,0.134l0,0l-24.732-0.097l-8.553-23.606l-8.512,23.569
	l-25.576,0.134l20.516,14.791l-8.701,24.549l22.334-15.883l22.914,15.846l-9.061-24.764l19.336-14.514l20.48,14.766l-8.701,24.549
	l22.336-15.883l22.912,15.846l-9.061-24.764l19.332-14.51l20.477,14.762l-8.699,24.549l22.334-15.883l22.912,15.846l-9.061-24.764
	l19.344-14.519l20.488,14.771l-8.701,24.549l22.334-15.883l22.912,15.846l-9.061-24.764L276.378,133.914z M72.294,134.633
	l-18.064,13.559l-13.084-4.141l21.502,27.244l-21.418-14.813l0,0l-0.084-12.436l-0.002,0.002l-0.045-31.486l0.076-0.215
	l8.027,22.154l-8.059,9.547l31.051-9.416H72.294z M20.353,171.328l8.115-22.894l-0.012-0.011l12.686-4.379l0.002,0.002
	l-20.775,27.271L20.353,171.328z M33.177,134.5l7.965,9.545l-31.734-9.416l23.768-0.125L33.177,134.5z M139.597,134.633
	l-18.063,13.559l-13.084-4.141l21.502,27.244l-21.418-14.813l0,0l-0.084-12.436l-0.002,0.002l-0.045-31.487l0.076-0.216
	l8.025,22.154l-8.055,9.549l31.047-9.418L139.597,134.633z M87.657,171.328l8.115-22.894l-0.014-0.011l12.688-4.379l0.002,0.002
	l-20.775,27.271L87.657,171.328z M100.479,134.5l7.967,9.545l-31.736-9.416l23.77-0.125V134.5z M206.892,134.633l-18.063,13.559
	l-13.084-4.141l21.502,27.244l-21.418-14.813l0,0l-0.084-12.436l-0.002,0.002l-0.045-31.487l0.078-0.216l8.025,22.154l-8.057,9.549
	l31.049-9.418L206.892,134.633z M154.952,171.328l8.115-22.894l-0.014-0.011l12.688-4.379l0.002,0.002l-20.775,27.271
	L154.952,171.328z M167.774,134.5l7.967,9.545l-31.736-9.416l23.77-0.125V134.5z M243.146,156.482l-0.084-12.436l-0.002,0.002
	l-0.045-31.486l0.078-0.215l8.025,22.154l-8.057,9.547l31.049-9.416h0.1l-18.064,13.559l-13.084-4.141l21.502,27.244
	L243.146,156.482L243.146,156.482z M222.269,171.328l8.117-22.894l-0.014-0.011l12.686-4.379l0.002,0.002l-20.775,27.271
	L222.269,171.328z M235.093,134.5l7.965,9.545l-31.734-9.416l23.77-0.125V134.5z"/>
</svg>
