<?xml version="1.0" encoding="utf-8"?>
<!-- Generator: Adobe Illustrator 15.1.0, SVG Export Plug-In . SVG Version: 6.00 Build 0)  -->
<!DOCTYPE svg PUBLIC "-//W3C//DTD SVG 1.1//EN" "http://www.w3.org/Graphics/SVG/1.1/DTD/svg11.dtd">
<svg version="1.1" id="svg2" xmlns:svg="http://www.w3.org/2000/svg"
	 xmlns="http://www.w3.org/2000/svg" xmlns:xlink="http://www.w3.org/1999/xlink" x="0px" y="0px" width="283.465px"
	 height="283.465px" viewBox="0 0 283.465 283.465" enable-background="new 0 0 283.465 283.465" xml:space="preserve">
<g>
	<path d="M276.379,126.1l-49.453-0.191l-17.102-47.202l-17.02,47.129l-51.002,0.266V126.1l-49.451-0.191L75.248,78.706
		L58.23,125.835l-51.145,0.267l41.023,29.573l-17.398,49.084l44.658-31.758l45.816,31.686l-18.117-49.514l38.666-29.021
		l40.951,29.522l-17.398,49.084l44.658-31.758l45.814,31.686l-18.115-49.514L276.379,126.1z M137.471,127.536l-36.119,27.109
		l-26.16-8.279l42.992,54.477l-42.824-29.616v0.001l-0.168-24.866l-0.002,0.003l-0.092-62.957l0.154-0.43l16.049,44.296
		l-16.109,19.091l62.082-18.828H137.471z M33.617,200.909l16.227-45.775l-0.025-0.02l25.367-8.756l0.004,0.005l-41.541,54.524
		L33.617,200.909z M59.256,127.271l15.926,19.086L11.727,127.53l47.525-0.248L59.256,127.271z M209.934,171.228l-0.168-24.866
		l-0.002,0.003l-0.092-62.958l0.154-0.43l16.049,44.296l-16.107,19.091l62.08-18.829l0.199,0.002l-36.121,27.109l-26.158-8.279
		l42.99,54.477L209.934,171.228L209.934,171.228z M168.193,200.909l16.227-45.775l-0.025-0.02l25.365-8.756l0.006,0.005
		l-41.543,54.524L168.193,200.909z M193.832,127.271l15.926,19.086l-63.455-18.826l47.525-0.248L193.832,127.271z"/>
</g>
</svg>
