<?xml version="1.0" encoding="utf-8"?>
<!-- Generator: Adobe Illustrator 15.1.0, SVG Export Plug-In . SVG Version: 6.00 Build 0)  -->
<!DOCTYPE svg PUBLIC "-//W3C//DTD SVG 1.1//EN" "http://www.w3.org/Graphics/SVG/1.1/DTD/svg11.dtd">
<svg version="1.1" id="Layer_2" xmlns="http://www.w3.org/2000/svg" xmlns:xlink="http://www.w3.org/1999/xlink" x="0px" y="0px"
	 width="283.465px" height="283.465px" viewBox="0 0 283.465 283.465" enable-background="new 0 0 283.465 283.465"
	 xml:space="preserve">
<g>
	<path fill="none" d="M141.181,208.931c26.19,0,49.102-14.192,61.436-35.296c-22.146-13.29-42.559-29.148-60.885-47.151
		c-18.543,18.216-39.207,34.261-61.656,47.647C92.479,194.951,115.202,208.931,141.181,208.931z M141.731,134.666l25.811,34.854
		l-25.811,34.798l-25.809-34.799L141.731,134.666z"/>
	<polygon fill="none" points="152.485,169.52 141.731,154.962 130.978,169.52 141.731,184.023 	"/>
	<path d="M141.181,226.138c30.737,0,57.811-15.738,73.623-39.597l-0.056-25.811c-27.288-15.914-51.894-35.887-73.017-59.119
		c-21.121,23.232-45.728,43.205-73.015,59.119l-0.056,27.408C84.596,211.099,111.135,226.138,141.181,226.138z M141.731,126.483
		c18.326,18.003,38.738,33.86,60.885,47.151c-12.334,21.104-35.244,35.296-61.436,35.296c-25.979,0-48.701-13.979-61.105-34.8
		C102.524,160.744,123.188,144.699,141.731,126.483z"/>
	<path d="M141.181,234.3c-28.896,0-54.84-12.729-72.521-32.869v23.881c19.679,16.354,44.945,26.195,72.521,26.195
		c28.08,0,53.78-10.234,73.623-27.134v-24.267C197.096,220.996,170.692,234.3,141.181,234.3z"/>
	<path d="M68.661,234.906v20.957c21.101,13,45.924,20.515,72.521,20.515c27.039,0,52.287-7.771,73.623-21.177v-21.123
		c-20.418,15.647-45.937,24.981-73.623,24.981C113.974,259.06,88.887,250.063,68.661,234.906z"/>
	<path d="M141.731,43.762c19.295,29.396,44.141,54.834,73.018,74.837V95.986c-30.61-23.563-55.719-53.977-73.018-88.899
		c-17.299,34.924-42.406,65.337-73.016,88.899v22.611C97.594,98.596,122.437,73.157,141.731,43.762z"/>
	<path d="M141.731,87.384c20.781,24.52,45.42,45.655,73.018,62.428v-20.46c-28.332-18.721-53.105-42.427-73.018-69.874
		c-19.914,27.447-44.683,51.153-73.015,69.874v20.459C96.312,133.039,120.952,111.902,141.731,87.384z"/>
	<path d="M167.542,169.52l-25.811-34.854l-25.809,34.854l25.809,34.799L167.542,169.52z M141.731,154.962l10.754,14.559
		l-10.754,14.503l-10.754-14.504L141.731,154.962z"/>
</g>
</svg>
