<?xml version="1.0" encoding="utf-8"?>
<!-- Generator: Adobe Illustrator 15.1.0, SVG Export Plug-In . SVG Version: 6.00 Build 0)  -->
<!DOCTYPE svg PUBLIC "-//W3C//DTD SVG 1.1//EN" "http://www.w3.org/Graphics/SVG/1.1/DTD/svg11.dtd">
<svg version="1.1" id="Layer_2" xmlns="http://www.w3.org/2000/svg" xmlns:xlink="http://www.w3.org/1999/xlink" x="0px" y="0px"
	 width="283.465px" height="283.465px" viewBox="0 0 283.465 283.465" enable-background="new 0 0 283.465 283.465"
	 xml:space="preserve">
<g>
	<path id="path7800" d="M141.733,101.611c-21.122,23.232-45.73,43.205-73.018,59.119v27.408
		c15.936,22.96,42.419,37.997,72.465,37.997c30.739,0,57.754-15.738,73.568-39.597v-25.81
		C187.463,144.816,162.854,124.844,141.733,101.611z M141.733,126.483c18.325,18.002,38.74,33.86,60.884,47.151
		c-12.333,21.104-35.244,35.296-61.437,35.296c-25.979,0-48.702-13.98-61.104-34.8C102.527,160.744,123.189,144.699,141.733,126.483
		z"/>
	<path id="path7802" d="M214.805,200.106c-17.71,20.89-44.111,34.191-73.624,34.191c-28.896,0-54.841-12.729-72.521-32.869v23.881
		c19.678,16.355,44.946,26.195,72.521,26.195c28.081,0,53.784-10.232,73.624-27.133V200.106z"/>
	<path id="path7804" d="M214.805,234.078c-20.419,15.647-45.936,24.981-73.624,24.981c-27.208,0-52.294-8.996-72.521-24.154v20.957
		c21.101,13.001,45.926,20.516,72.521,20.516c27.04,0,52.288-7.773,73.624-21.178V234.078z"/>
	<path id="path7806" d="M141.731,7.087c-17.299,34.922-42.405,65.337-73.017,88.899v22.611
		c28.878-20.003,53.724-45.441,73.017-74.837c19.295,29.396,44.141,54.833,73.019,74.837V95.986
		C184.139,72.424,159.032,42.009,141.731,7.087z"/>
	<path id="path7808" d="M141.731,59.478c-19.912,27.446-44.684,51.153-73.017,69.874v20.459
		c27.597-16.773,52.237-37.91,73.017-62.428c20.781,24.518,45.421,45.654,73.019,62.428v-20.459
		C186.417,110.631,161.644,86.924,141.731,59.478L141.731,59.478z"/>
	<path id="path7814" d="M141.566,140.621l7.19,22.727l23.835-0.185l-19.392,13.86l7.541,22.612l-19.175-14.157l-19.176,14.157
		l7.54-22.611l-19.391-13.86l23.834,0.185L141.566,140.621z"/>
</g>
</svg>
