<?xml version="1.0" encoding="utf-8"?>
<!-- Generator: Adobe Illustrator 15.1.0, SVG Export Plug-In . SVG Version: 6.00 Build 0)  -->
<!DOCTYPE svg PUBLIC "-//W3C//DTD SVG 1.1//EN" "http://www.w3.org/Graphics/SVG/1.1/DTD/svg11.dtd">
<svg version="1.1" id="Layer_2" xmlns="http://www.w3.org/2000/svg" xmlns:xlink="http://www.w3.org/1999/xlink" x="0px" y="0px"
	 width="283.465px" height="283.465px" viewBox="0 0 283.465 283.465" enable-background="new 0 0 283.465 283.465"
	 xml:space="preserve">
<g>
	<path id="path7688" d="M141.732,123.292c-25.967,28.561-56.219,53.113-89.765,72.68L51.9,229.667
		c19.59,28.223,52.217,46.711,89.154,46.711c37.789,0,71.067-19.35,90.51-48.678l-0.068-31.729
		C197.949,176.405,167.699,151.853,141.732,123.292L141.732,123.292z M141.732,153.869c22.528,22.13,47.624,41.625,74.849,57.968
		c-15.165,25.942-43.329,43.391-75.525,43.391c-31.938,0-59.872-17.188-75.12-42.779
		C93.533,195.986,118.937,176.262,141.732,153.869z"/>
	<path id="path7690" d="M141.733,7.087C120.467,50.02,89.602,87.409,51.969,116.376v27.797c35.5-24.591,66.044-55.861,89.765-92.001
		c23.718,36.14,54.263,67.41,89.763,92.001v-27.797C193.865,87.409,162.998,50.02,141.733,7.087z"/>
	<path id="path7692" d="M141.733,71.495c-24.481,33.741-54.934,62.884-89.765,85.899v25.152
		c33.927-20.621,64.218-46.604,89.765-76.747c25.546,30.143,55.835,56.126,89.763,76.747v-25.152
		C196.666,134.379,166.214,105.236,141.733,71.495L141.733,71.495z"/>
</g>
</svg>
