<?xml version="1.0" encoding="utf-8"?>
<!-- Generator: Adobe Illustrator 15.1.0, SVG Export Plug-In . SVG Version: 6.00 Build 0)  -->
<!DOCTYPE svg PUBLIC "-//W3C//DTD SVG 1.1//EN" "http://www.w3.org/Graphics/SVG/1.1/DTD/svg11.dtd">
<svg version="1.1" id="Layer_2" xmlns="http://www.w3.org/2000/svg" xmlns:xlink="http://www.w3.org/1999/xlink" x="0px" y="0px"
	 width="283.465px" height="283.465px" viewBox="0 0 283.465 283.465" enable-background="new 0 0 283.465 283.465"
	 xml:space="preserve">
<g>
	<path d="M269.861,161.148c-7.725-22.495-12.552-29.162-25.476-43.937l-3.603-4.104c4.507-15.075,6.533-23.96,6.604-35.887
		c0.022-4.057-0.185-8.582-0.635-13.833l-0.078-0.918l-0.859-0.335c-18.598-7.256-28.013-9.832-43.81-9.832
		c-5.856,0-12.578,0.357-19.046,0.76c-11.667-25.778-17.894-30.33-35.957-43.536l-3.332-2.438l-0.888,0.718
		c-6.271,5.08-11.258,8.919-15.659,12.307C111.5,32.137,106.127,36.271,92.192,58.84c-3.271-0.135-6.263-0.284-9.039-0.421
		c-5.521-0.273-10.288-0.509-14.63-0.509c-11.753,0-21.042,1.565-39.196,10.117l-1.063,0.5l0.246,1.149
		c1.161,5.436,1.979,9.791,2.701,13.634c1.426,7.594,2.457,13.08,4.932,20.403c0.432,1.281,0.905,2.604,1.403,3.936
		c0.206,0.551,0.42,1.114,0.644,1.688c0.224,0.576,0.455,1.164,0.696,1.765c0.241,0.6,0.491,1.215,0.751,1.848
		c1.079,2.618,2.313,5.462,3.761,8.671c-3.147,3.399-5.94,6.234-8.423,8.754l-1.649,1.675l-3.287,3.408
		c-7.559,8.038-11.941,14.746-16.402,31.125l-0.272,1l0.846,0.599c1.8,1.273,3.482,2.482,5.087,3.636
		c12.066,8.673,20.123,14.463,40.048,19.698c-0.569,3.978-1.044,7.953-1.059,12.301c-0.04,11.87,3.506,22.079,11.158,32.125
		l0.456,0.599l0.753-0.015c1.578-0.033,3.063-0.055,4.474-0.066c1.724-0.016,3.331-0.021,4.845-0.021l5.461,0.008
		c12.403,0,19.634-0.336,43.061-7.685c-3.341,14.337-7.031,27.968-9.919,38.397l-0.23,0.833l0.612,0.61
		c4.952,4.942,12.299,7.775,20.158,7.775c6.942,0,13.794-2.208,19.291-6.219l0.504-0.367l0.09-0.616
		c1.87-12.889,3.102-23.865,3.022-35.542c-0.016-2.048-0.073-4.094-0.171-6.111c16.008,8.131,24.424,11.471,38.021,11.471
		c0.001,0,0.002,0,0.003,0c5.422,0,11.666-0.536,20.242-1.738l0.902-0.126l0.295-0.863c3.033-8.908,4.637-18.505,4.768-28.523
		c0.071-5.378-0.28-10.994-1.045-16.711c19.321-3.347,34.34-12.958,44.656-28.586l0.401-0.607L269.861,161.148z M223.342,189.609
		c0.887,6.103,1.308,12.078,1.23,17.92c-0.128,9.737-1.64,19.107-4.689,28.065c-28.751,4.029-36.33,1.212-59.688-10.761
		c0.195,2.916,0.295,5.784,0.316,8.617c0.083,12.275-1.343,23.853-3.007,35.317c-11.762,8.58-28.466,7.637-37.53-1.408
		c3.701-13.368,7.296-26.899,10.519-40.988c-30.606,9.767-34.195,8.214-55.408,8.412c-1.415,0.012-2.907,0.033-4.491,0.065
		c-8.714-11.441-10.885-21.978-10.854-31.222c0.016-4.842,0.636-9.33,1.234-13.408c-23.259-5.931-30.154-12.277-45.936-23.441
		c4.45-16.341,8.85-22.841,16.051-30.5c0.17-0.182,0.343-0.365,0.518-0.549c0.35-0.368,0.707-0.739,1.068-1.114
		c0.181-0.188,0.365-0.376,0.549-0.566c0.371-0.381,0.747-0.765,1.13-1.156c3.071-3.13,6.608-6.655,10.769-11.184
		c-1.619-3.564-2.983-6.699-4.146-9.519c-0.257-0.627-0.506-1.238-0.745-1.834c-0.239-0.596-0.469-1.179-0.691-1.75
		c-0.222-0.569-0.434-1.126-0.638-1.671c-0.51-1.362-0.969-2.653-1.387-3.89c-3.679-10.883-4.122-17.651-7.588-33.873
		c26.527-12.497,33.869-10.18,63.039-9.012c18.033-29.328,21.653-27.853,50.719-51.399c20.292,14.868,26.032,18.283,38.313,45.647
		c29.868-1.886,37.481-1.143,63.247,8.91c0.442,5.158,0.652,9.609,0.629,13.699c-0.073,12.265-2.274,21.26-6.777,36.255
		c1.47,1.673,2.847,3.238,4.143,4.719c12.528,14.323,17.464,20.946,25.189,43.443C257.837,177.479,242.63,186.611,223.342,189.609z"
		/>
	<path d="M239.097,113.273c4.503-14.996,6.704-23.991,6.777-36.255c0.023-4.089-0.187-8.541-0.629-13.699
		c-25.766-10.052-33.379-10.796-63.247-8.91c-12.281-27.365-18.021-30.779-38.313-45.647
		c-29.065,23.547-32.686,22.071-50.719,51.399c-29.17-1.168-36.512-3.485-63.039,9.012c3.466,16.222,3.91,22.99,7.588,33.873
		c0.417,1.236,0.876,2.528,1.387,3.89c0.205,0.545,0.417,1.102,0.638,1.671c0.222,0.571,0.452,1.153,0.691,1.75
		c0.239,0.596,0.488,1.207,0.745,1.834c1.163,2.82,2.528,5.955,4.146,9.519c-4.161,4.529-7.698,8.054-10.769,11.184
		c-0.384,0.392-0.76,0.775-1.13,1.156c-0.184,0.19-0.368,0.378-0.549,0.566c-0.361,0.375-0.718,0.747-1.068,1.114
		c-0.175,0.184-0.348,0.367-0.518,0.549c-7.202,7.66-11.602,14.16-16.051,30.5c15.782,11.164,22.677,17.511,45.936,23.441
		c-0.599,4.078-1.218,8.566-1.234,13.408c-0.031,9.244,2.14,19.78,10.854,31.222c1.584-0.032,3.077-0.054,4.491-0.065
		c21.213-0.198,24.802,1.354,55.408-8.412c-3.223,14.089-6.817,27.62-10.519,40.988c9.064,9.045,25.769,9.988,37.53,1.408
		c1.664-11.465,3.09-23.042,3.007-35.317c-0.021-2.833-0.121-5.701-0.316-8.617c23.358,11.973,30.938,14.79,59.688,10.761
		c3.05-8.958,4.562-18.328,4.689-28.065c0.077-5.842-0.344-11.817-1.23-17.92c19.288-2.998,34.495-12.13,45.087-28.174
		c-7.726-22.497-12.661-29.121-25.189-43.443C241.943,116.511,240.566,114.946,239.097,113.273z M265.996,161.143
		c-22.682-3.688-36.903-6.893-48.382-9.032c-20.014-3.729-31.72-4.223-65.499,1.593c-0.72,0.123-1.442,0.249-2.184,0.379
		c43.966,17.309,48.055,19.045,70.056,33.139c2.27,15.67,2.368,32.386-2.324,46.192c-0.035,0.006-0.065,0.01-0.101,0.015
		c-7.202-9.23-14.22-17.645-21.709-25.937c-12.985-14.38-27.403-28.408-46.689-45.724c-0.563-0.506-1.122-1.009-1.695-1.522
		c8.91,24.887,8.198,39.459,9.302,59.136c-0.016-0.008-0.03-0.016-0.044-0.022c1.007,14.992,0.266,35.013-1.71,48.624
		c-11.33,7.081-23.109,6.191-31.841-1.359c3.565-12.896,8.557-30.925,11.663-44.515c-0.029,0.009-0.057,0.019-0.084,0.026
		l0.477-2.985l9.563-59.809c-8.259,4.355-47.085,33.667-64.729,58.112c-3.847,5.33-6.683,10.426-7.979,14.983
		c-0.077,0.002-0.149,0.003-0.227,0.005c-12.796-16.814-9.745-32.743-8.065-44.187c-0.089-0.023-0.172-0.046-0.261-0.068
		c0.073,0.009,0.144,0.021,0.217,0.031c36.627-22.747,38.07-21.901,78.501-34.296c-0.513-0.086-1.012-0.167-1.519-0.25
		c-63.965-10.516-79.212-3.868-120.083,12.838c-0.64,0.262-1.287,0.525-1.94,0.793c6.522-23.976,14.004-27.141,29.981-44.533
		c46.6,9.012,40.865,5.734,94.679,27.327c-0.656-0.68-1.298-1.345-1.94-2.01c-38.064-39.35-52.979-50.151-75.4-61.414
		c-9.066-4.554-19.36-9.184-32.91-15.809c24.708-11.652,33.092-9.004,59.017-7.797c14.974,23.429,32.812,50.296,51.83,83.138
		c-1.007-1.993-1.985-3.924-2.95-5.821c-17.943-35.292-28.781-54.349-44.479-75.221c-0.524-0.696-1.052-1.396-1.588-2.097h-0.004
		c17.31-28.166,20.704-28.301,48.668-50.98c0.026,0.02,0.052,0.039,0.079,0.058c0.22,11.334,0.331,22.76,0.455,34.237
		c0.356,33.125,0.843,66.681,4.423,99.72c0.091,0.831,0.168,1.664,0.263,2.494c12.038-30.343,22.929-60.684,31.663-91.027
		c0.011,0.023,0.021,0.044,0.03,0.067c28.778-1.82,36.999-1.865,61.826,7.831c0.002,0.01,0.002,0.02,0.002,0.028
		c-8.659,7.465-17.453,15.198-26.234,23.07c-21.617,19.375-43.15,39.617-62.379,58.969c-1.61,1.621-3.205,3.237-4.783,4.846
		c-0.021,0.02-0.039,0.038-0.06,0.059c-0.067,0.07-0.14,0.142-0.209,0.211c0.112-0.056,0.223-0.107,0.332-0.163
		c0.125-0.063,0.245-0.12,0.368-0.182c27.576-13.603,41.329-18.869,86.677-38.339c-0.006,0.022-0.012,0.042-0.02,0.064
		c15.108,17.207,21.742,23.162,29.955,47.104C266,161.137,265.998,161.141,265.996,161.143z"/>
</g>
</svg>
