<?xml version="1.0" encoding="utf-8"?>
<!-- Generator: Adobe Illustrator 15.1.0, SVG Export Plug-In . SVG Version: 6.00 Build 0)  -->
<!DOCTYPE svg PUBLIC "-//W3C//DTD SVG 1.1//EN" "http://www.w3.org/Graphics/SVG/1.1/DTD/svg11.dtd">
<svg version="1.1" id="Layer_10" xmlns="http://www.w3.org/2000/svg" xmlns:xlink="http://www.w3.org/1999/xlink" x="0px" y="0px"
	 width="283.46px" height="283.46px" viewBox="0 0 283.46 283.46" enable-background="new 0 0 283.46 283.46" xml:space="preserve">
<g id="Layer_9">
</g>
<g>
	<path fill="none" d="M141.73,16.393c-69.222,0-125.336,56.115-125.336,125.336S72.508,267.067,141.73,267.067
		c69.22,0,125.336-56.117,125.336-125.337C267.066,72.509,210.95,16.393,141.73,16.393z M224.227,224.227
		c-22.035,22.036-51.333,34.172-82.497,34.172c-31.163,0-60.461-12.136-82.496-34.172c-22.036-22.035-34.172-51.333-34.172-82.497
		c0-31.163,12.136-60.461,34.172-82.496c22.035-22.035,51.333-34.171,82.496-34.171c31.164,0,60.462,12.136,82.497,34.171
		c22.036,22.035,34.172,51.333,34.172,82.496C258.399,172.894,246.262,202.192,224.227,224.227z"/>
	<path d="M236.938,46.522C211.506,21.09,177.695,7.084,141.73,7.084S71.953,21.09,46.522,46.521
		C21.091,71.953,7.085,105.765,7.085,141.729c0,35.965,14.006,69.777,39.437,95.209c25.431,25.433,59.243,39.438,95.208,39.438
		s69.776-14.005,95.208-39.438c25.431-25.432,39.437-59.243,39.437-95.208C276.375,105.766,262.369,71.954,236.938,46.522z
		 M141.73,267.067c-69.222,0-125.336-56.117-125.336-125.338S72.508,16.393,141.73,16.393c69.22,0,125.336,56.116,125.336,125.337
		C267.066,210.95,210.95,267.067,141.73,267.067z"/>
	<path d="M105.913,232.517c-0.205-0.077-0.417-0.153-0.635-0.229c-0.22-0.075-0.43-0.137-0.631-0.184l-3.167,8.384
		c0.136,0.065,0.294,0.137,0.478,0.213c0.182,0.076,0.401,0.162,0.657,0.259c1.493,0.564,2.742,0.606,3.747,0.125
		c1.005-0.48,1.759-1.384,2.26-2.711c0.525-1.391,0.579-2.573,0.159-3.549C108.362,233.85,107.406,233.081,105.913,232.517z"/>
	<path d="M76.984,214.558c-0.448-0.399-0.92-0.67-1.416-0.811c-0.496-0.141-0.998-0.167-1.504-0.08
		c-0.507,0.087-1.013,0.285-1.517,0.594c-0.504,0.309-0.983,0.718-1.437,1.227c-0.463,0.52-0.817,1.045-1.062,1.575
		c-0.245,0.531-0.382,1.054-0.41,1.567c-0.029,0.514,0.057,1.006,0.258,1.478c0.201,0.472,0.525,0.907,0.973,1.307
		c0.438,0.39,0.905,0.66,1.401,0.811s0.998,0.183,1.505,0.096c0.507-0.088,1.01-0.283,1.51-0.587
		c0.499-0.304,0.98-0.715,1.444-1.234c0.463-0.52,0.819-1.047,1.068-1.583s0.389-1.061,0.417-1.574
		c0.028-0.514-0.061-1.009-0.266-1.484C77.744,215.381,77.421,214.948,76.984,214.558z"/>
	<path d="M121.465,237.43c-0.411-0.317-0.902-0.54-1.474-0.67c-0.585-0.133-1.129-0.141-1.631-0.023
		c-0.502,0.117-0.954,0.337-1.355,0.658c-0.401,0.322-0.748,0.74-1.039,1.255c-0.292,0.514-0.512,1.104-0.663,1.77
		c-0.154,0.678-0.209,1.309-0.167,1.892c0.043,0.584,0.176,1.106,0.4,1.569c0.224,0.464,0.538,0.854,0.942,1.168
		c0.404,0.315,0.899,0.539,1.484,0.672c0.572,0.13,1.111,0.14,1.619,0.031c0.507-0.109,0.961-0.324,1.363-0.646
		c0.401-0.321,0.747-0.736,1.037-1.244c0.29-0.508,0.511-1.101,0.665-1.779s0.209-1.313,0.168-1.902
		c-0.042-0.59-0.174-1.116-0.397-1.579C122.193,238.136,121.876,237.747,121.465,237.43z"/>
	<path d="M224.227,59.234c-22.035-22.035-51.333-34.171-82.497-34.171c-31.163,0-60.461,12.136-82.496,34.171
		c-22.036,22.035-34.172,51.333-34.172,82.496c0,31.164,12.136,60.462,34.172,82.497c22.035,22.036,51.333,34.172,82.496,34.172
		c31.164,0,60.462-12.136,82.497-34.172c22.035-22.035,34.172-51.333,34.172-82.497C258.399,110.567,246.263,81.269,224.227,59.234z
		 M117.822,33.771h31.404v9.584h-20.183v8.501h16.132c1.378-0.218,2.832-0.34,4.368-0.34c3.187,0,5.996,0.351,8.351,1.044
		c2.318,0.682,4.27,1.451,5.801,2.285c0.652,0.355,0.946,1.135,0.69,1.833l-2.949,8.059c-0.147,0.404-0.462,0.726-0.863,0.882
		c-0.402,0.157-0.852,0.132-1.233-0.065c-1.187-0.613-2.532-1.166-4.001-1.642c-1.396-0.452-3.126-0.681-5.141-0.681
		c-2.673,0-3.907,0.426-4.473,0.783c-0.422,0.268-0.907,0.719-0.907,1.845c0,0.522,0.105,0.929,0.323,1.244
		c0.276,0.397,0.694,0.777,1.244,1.128c0.638,0.406,1.39,0.781,2.234,1.115c0.907,0.358,1.934,0.736,3.052,1.124
		c2.436,0.903,4.554,1.793,6.326,2.658c1.881,0.917,3.479,2.013,4.751,3.258c1.31,1.287,2.301,2.815,2.944,4.546
		c0.628,1.694,0.945,3.743,0.945,6.092c0,4.701-1.691,8.416-5.028,11.041c-3.228,2.539-8.059,3.827-14.36,3.827
		c-2.067,0-3.971-0.126-5.657-0.376c-1.67-0.249-3.175-0.56-4.476-0.923c-1.315-0.371-2.461-0.769-3.411-1.187
		c-0.959-0.421-1.746-0.809-2.403-1.186c-0.63-0.36-0.911-1.12-0.668-1.804l2.884-8.125c0.147-0.414,0.469-0.743,0.879-0.9
		c0.412-0.156,0.87-0.125,1.256,0.087c1.253,0.688,2.841,1.319,4.718,1.875c1.838,0.545,4.152,0.822,6.878,0.822
		c1.313,0,2.388-0.105,3.197-0.313c0.752-0.191,1.339-0.44,1.749-0.74c0.333-0.243,0.55-0.506,0.665-0.805
		c0.151-0.394,0.229-0.852,0.229-1.359c0-0.622-0.151-1.555-1.461-2.474c-1.271-0.894-3.564-1.897-6.819-2.983
		c-1.543-0.544-3.083-1.167-4.603-1.86c-1.612-0.734-3.079-1.672-4.359-2.789c-1.319-1.146-2.408-2.555-3.236-4.188
		c-0.847-1.667-1.276-3.692-1.276-6.019c0-1.872,0.307-3.612,0.885-5.206h-3.176v18.74h-11.222V33.771z M99.57,117.753
		c0-2.209,1.791-4,4-4h76.32c2.209,0,4,1.791,4,4v52.045c0,24.364-18.913,44.187-42.16,44.187s-42.16-19.822-42.16-44.187V117.753z
		 M74.956,225.333c-0.73,0.152-1.456,0.173-2.177,0.059c-0.722-0.112-1.416-0.349-2.084-0.706c-0.13,0.249-0.166,0.514-0.106,0.796
		c0.06,0.281,0.186,0.58,0.377,0.898c0.192,0.317,0.446,0.653,0.76,1.007c0.315,0.354,0.663,0.728,1.042,1.121l-2.041,1.306
		c-0.767-0.739-1.376-1.424-1.828-2.055c-0.451-0.632-0.773-1.233-0.965-1.807c-0.192-0.574-0.258-1.126-0.196-1.655
		c0.062-0.53,0.222-1.063,0.481-1.601c-0.559-0.645-0.987-1.342-1.286-2.093c-0.299-0.751-0.443-1.532-0.431-2.345
		c0.011-0.812,0.191-1.639,0.539-2.479c0.348-0.841,0.885-1.669,1.611-2.483c0.808-0.905,1.661-1.575,2.559-2.008
		c0.898-0.434,1.797-0.668,2.699-0.705c0.901-0.037,1.774,0.11,2.619,0.444c0.845,0.333,1.619,0.813,2.321,1.439
		c0.723,0.645,1.3,1.37,1.733,2.176s0.679,1.656,0.74,2.552c0.061,0.895-0.078,1.809-0.416,2.74
		c-0.338,0.933-0.911,1.852-1.719,2.758c-0.663,0.743-1.351,1.331-2.065,1.763C76.408,224.887,75.686,225.179,74.956,225.333z
		 M87.002,232.817c-0.582,0.445-1.21,0.741-1.884,0.887c-0.674,0.145-1.393,0.124-2.156-0.063s-1.563-0.563-2.398-1.128
		c-0.825-0.559-1.458-1.155-1.901-1.792s-0.719-1.293-0.83-1.969s-0.066-1.362,0.133-2.06c0.199-0.696,0.532-1.39,0.999-2.078
		l4.94-7.305l2.644,1.787l-4.791,7.085c-0.321,0.475-0.541,0.915-0.659,1.32c-0.118,0.406-0.155,0.776-0.109,1.111
		c0.045,0.336,0.169,0.638,0.374,0.908c0.204,0.27,0.465,0.512,0.781,0.726c0.644,0.436,1.3,0.592,1.969,0.467
		c0.668-0.124,1.324-0.66,1.966-1.609l4.791-7.085l2.644,1.788l-4.94,7.305C88.108,231.802,87.584,232.37,87.002,232.817z
		 M90.763,238.321l-2.799-1.535l6.818-12.432l2.798,1.534L90.763,238.321z M110.032,242.339c-0.68,0.721-1.455,1.237-2.324,1.551
		c-0.87,0.313-1.829,0.432-2.879,0.355s-2.163-0.336-3.336-0.779c-0.536-0.202-1.153-0.461-1.851-0.775s-1.364-0.672-2-1.072
		l4.88-12.92c0.737,0.133,1.487,0.318,2.251,0.555c0.763,0.237,1.413,0.457,1.949,0.66c1.136,0.429,2.118,0.945,2.947,1.55
		c0.828,0.604,1.471,1.307,1.927,2.106c0.456,0.799,0.702,1.693,0.736,2.684c0.034,0.989-0.175,2.085-0.628,3.284
		C111.27,240.686,110.712,241.62,110.032,242.339z M125.859,242.809c-0.268,1.184-0.68,2.185-1.236,3.003
		c-0.556,0.818-1.208,1.461-1.958,1.928s-1.581,0.757-2.494,0.872c-0.915,0.114-1.857,0.062-2.828-0.158
		c-0.945-0.214-1.801-0.568-2.57-1.063c-0.769-0.496-1.397-1.117-1.886-1.864s-0.81-1.61-0.966-2.589
		c-0.156-0.979-0.1-2.062,0.168-3.245c0.268-1.185,0.69-2.184,1.266-2.997s1.249-1.454,2.02-1.924
		c0.77-0.469,1.606-0.762,2.507-0.88c0.9-0.117,1.81-0.072,2.728,0.136c0.944,0.214,1.801,0.568,2.57,1.064
		c0.769,0.495,1.396,1.12,1.883,1.873c0.487,0.754,0.808,1.62,0.964,2.6C126.183,240.543,126.127,241.625,125.859,242.809z
		 M129.774,244.893c0.09,0.577,0.275,1.084,0.556,1.521c0.281,0.438,0.668,0.799,1.162,1.085c0.494,0.286,1.107,0.464,1.841,0.532
		c0.461,0.043,0.878,0.055,1.25,0.035c0.372-0.02,0.704-0.054,0.996-0.103c0.292-0.047,0.551-0.108,0.777-0.184
		c0.226-0.074,0.432-0.145,0.616-0.209l0.637,2.628c-0.474,0.229-1.128,0.415-1.963,0.556c-0.835,0.141-1.79,0.161-2.862,0.061
		c-2.295-0.215-3.984-1.017-5.066-2.406c-1.083-1.389-1.513-3.259-1.293-5.608c0.109-1.167,0.39-2.192,0.843-3.075
		c0.453-0.882,1.028-1.609,1.725-2.181c0.698-0.571,1.503-0.979,2.417-1.223c0.913-0.243,1.886-0.316,2.918-0.22
		c0.597,0.057,1.137,0.151,1.617,0.285c0.48,0.135,0.899,0.276,1.255,0.426c0.355,0.15,0.65,0.298,0.883,0.442
		c0.233,0.146,0.4,0.257,0.503,0.335l-1.158,2.481c-0.413-0.271-0.9-0.517-1.462-0.733c-0.562-0.217-1.209-0.36-1.943-0.429
		c-0.489-0.046-0.975-0.009-1.459,0.11c-0.484,0.118-0.923,0.342-1.316,0.667c-0.394,0.326-0.726,0.765-0.997,1.314
		s-0.444,1.232-0.521,2.048C129.67,243.702,129.684,244.316,129.774,244.893z M157.239,249.804l-3.166,0.4l-1.438-11.367
		l-4.242,0.537l-0.013-0.098l-6.255,0.11l0.049,2.782l5.666-0.1l0.046,2.618l-5.666,0.1l0.059,3.416l6.854-0.12l0.047,2.681
		l-10.044,0.176l-0.249-14.177l9.574-0.168v0.027l11.242-1.422l0.341,2.7l-4.242,0.536L157.239,249.804z M177.85,240.843
		c-0.104,0.985-0.404,1.866-0.905,2.644c-0.5,0.776-1.19,1.454-2.07,2.031c-0.881,0.577-1.922,1.047-3.124,1.408
		c-0.549,0.164-1.195,0.334-1.94,0.508c-0.746,0.174-1.492,0.295-2.241,0.362l-3.971-13.227c0.666-0.343,1.374-0.651,2.125-0.927
		c0.75-0.275,1.4-0.495,1.948-0.66c1.163-0.349,2.257-0.534,3.283-0.558c1.025-0.023,1.962,0.145,2.81,0.502
		c0.848,0.358,1.587,0.92,2.215,1.685c0.629,0.766,1.128,1.763,1.496,2.99C177.829,238.778,177.953,239.859,177.85,240.843z
		 M181.548,243.433l-5.36-13.126l2.955-1.207l5.359,13.127L181.548,243.433z M194.063,236.726c-0.497,1.071-1.578,2.029-3.244,2.876
		c-0.56,0.284-1.081,0.507-1.564,0.669c-0.484,0.161-0.924,0.281-1.32,0.36c-0.396,0.079-0.746,0.127-1.051,0.145
		c-0.306,0.017-0.567,0.021-0.787,0.009l-0.347-2.669c0.482,0.016,1.041-0.036,1.678-0.153c0.637-0.116,1.356-0.379,2.159-0.787
		c0.401-0.203,0.716-0.405,0.943-0.605c0.228-0.199,0.391-0.396,0.49-0.593c0.1-0.195,0.14-0.388,0.12-0.577
		c-0.02-0.188-0.079-0.381-0.178-0.575c-0.21-0.413-0.579-0.658-1.107-0.734s-1.347-0.03-2.456,0.135
		c-0.487,0.064-0.986,0.107-1.495,0.129c-0.51,0.021-1.001-0.027-1.475-0.146c-0.473-0.118-0.917-0.329-1.33-0.632
		c-0.414-0.302-0.77-0.745-1.065-1.329c-0.297-0.584-0.454-1.165-0.474-1.744c-0.019-0.58,0.089-1.136,0.323-1.668
		s0.593-1.031,1.074-1.498c0.482-0.467,1.082-0.883,1.8-1.247c0.851-0.433,1.633-0.715,2.346-0.848s1.326-0.191,1.838-0.177
		l0.319,2.661c-0.445-0.004-0.919,0.035-1.422,0.114s-1.059,0.273-1.666,0.582c-0.682,0.347-1.123,0.689-1.325,1.029
		s-0.204,0.704-0.007,1.094c0.118,0.23,0.271,0.397,0.461,0.5c0.19,0.103,0.418,0.166,0.684,0.192
		c0.265,0.025,0.555,0.024,0.869-0.006c0.313-0.029,0.656-0.069,1.028-0.121c0.78-0.09,1.474-0.141,2.081-0.15
		c0.606-0.01,1.151,0.062,1.634,0.214c0.483,0.152,0.912,0.401,1.286,0.746c0.374,0.346,0.716,0.822,1.025,1.43
		C194.507,234.53,194.559,235.656,194.063,236.726z M205.1,230.686c-0.564,0.631-1.296,1.243-2.196,1.835
		c-1.927,1.267-3.746,1.696-5.459,1.287c-1.713-0.407-3.218-1.598-4.514-3.569c-0.645-0.98-1.066-1.956-1.264-2.928
		c-0.198-0.972-0.204-1.898-0.017-2.781c0.188-0.882,0.562-1.703,1.122-2.464c0.562-0.761,1.275-1.426,2.142-1.995
		c0.501-0.33,0.981-0.592,1.44-0.788c0.459-0.195,0.874-0.346,1.245-0.451c0.372-0.105,0.694-0.175,0.967-0.207
		s0.473-0.05,0.602-0.053l0.646,2.66c-0.492,0.046-1.025,0.159-1.6,0.341c-0.574,0.183-1.169,0.476-1.784,0.88
		c-0.41,0.27-0.768,0.603-1.07,0.997c-0.304,0.396-0.507,0.844-0.61,1.345c-0.104,0.5-0.089,1.05,0.043,1.648
		c0.133,0.599,0.424,1.239,0.873,1.924c0.359,0.547,0.755,1.018,1.186,1.412s0.893,0.674,1.385,0.84s1.021,0.206,1.586,0.121
		c0.563-0.085,1.153-0.33,1.77-0.735c0.387-0.254,0.72-0.506,0.997-0.754c0.278-0.247,0.517-0.481,0.714-0.701
		c0.198-0.221,0.362-0.431,0.492-0.63s0.247-0.383,0.35-0.549l2.141,1.654C206.059,229.5,205.665,230.054,205.1,230.686z
		 M207.971,228.517l-8.789-11.126l2.504-1.979l8.79,11.126L207.971,228.517z M214.999,222.651l-7.821-8.373l-3.125,2.919
		l-1.857-1.988l8.583-8.017l1.857,1.988l-3.125,2.919l7.821,8.373L214.999,222.651z"/>
	<path d="M172.292,235.634c-0.925-0.521-2.152-0.551-3.681-0.092c-0.209,0.063-0.424,0.131-0.644,0.204
		c-0.221,0.073-0.424,0.152-0.612,0.237l2.577,8.583c0.147-0.03,0.316-0.07,0.508-0.121c0.191-0.05,0.418-0.114,0.68-0.192
		c1.528-0.459,2.546-1.185,3.053-2.178c0.506-0.992,0.556-2.167,0.147-3.526C173.893,237.125,173.216,236.154,172.292,235.634z"/>
	<path d="M141.73,213.985c23.247,0,42.16-19.822,42.16-44.187v-52.045c0-2.209-1.791-4-4-4h-76.32c-2.209,0-4,1.791-4,4v52.045
		C99.57,194.163,118.483,213.985,141.73,213.985z M103.57,117.753h76.32v52.045c0,22.194-17.085,40.187-38.16,40.187
		s-38.16-17.992-38.16-40.187V117.753z"/>
	<path d="M141.73,200.903c16.033,0,29.077-13.954,29.077-31.104v-42.963h-41.452h-13.813h-2.89v42.963
		C112.653,186.949,125.697,200.903,141.73,200.903z M133.481,156.665l0.028-0.026c0.19-0.097,0.391-0.232,0.649-0.407
		c0.301-0.205,0.675-0.461,1.04-0.629l1.875-1.447c0.492-0.468,1.397-1.308,1.871-1.712l0.166-0.142
		c0.071,0.008,0.226,0.057,0.445,0.201c0.215,0.271,0.257,0.571,0.257,0.716c-0.007,0.013-0.016,0.024-0.025,0.038l-0.236,0.217
		c-0.109,0.1-0.228,0.194-0.349,0.29c-0.229,0.182-0.508,0.402-0.751,0.678l-2.667,2.136c-0.458,0.22-0.97,0.549-1.526,0.979
		l-0.17,0.131c-0.187,0.022-0.39-0.178-0.556-0.378C133.428,157.006,133.408,156.765,133.481,156.665z M138.254,151.687
		c-0.522,0.447-1.475,1.334-1.91,1.747l-1.603,1.265c-0.436,0.199-0.851,0.481-1.186,0.709c-0.252,0.172-0.469,0.32-0.616,0.379
		l-0.019,0.008l-0.038,0.029l-0.003,0.002c-0.008,0.006-0.016,0.014-0.024,0.02l-0.204-0.254c0.953-0.552,1.873-1.128,2.808-1.848
		l0.002-0.002l0.003-0.002c0.817-0.681,1.762-1.47,2.579-2.321l0.015,0.02L138.254,151.687z M135.459,159.078l-0.59-0.731
		c0.533-0.413,1.013-0.718,1.424-0.904l0.019-0.008l2.837-2.271c0.188-0.229,0.434-0.426,0.673-0.615
		c0.138-0.108,0.276-0.22,0.404-0.337l0.524,0.67c-0.226,0.384-0.644,0.829-1.124,1.263c-0.002,0.002-0.005,0.003-0.007,0.006
		l-2.767,2.153C136.37,158.671,135.949,158.892,135.459,159.078z M137.874,149.462l-0.035,0.136
		c-0.057,0.218-0.13,0.503-0.228,0.827l-0.289,0.301c-0.771,0.805-1.703,1.583-2.458,2.214l-0.063,0.05
		c-0.765,0.585-1.561,1.106-2.649,1.736l-0.667,0.386c-0.757,0.048-1.516,0.026-2.053-0.06c-0.763-0.119-1.736-0.535-2.065-0.813
		c-1.38-1.167-1.342-2.582-1.298-4.221c0.026-0.967,0.054-2.002-0.237-2.992c0.083,0.075,0.169,0.156,0.259,0.244l1.398,1.365
		l0.29-1.933c0.412-2.745-1.787-4.404-3.728-5.868c-1.192-0.899-2.424-1.829-3.057-2.948c-0.06-0.105-0.114-0.212-0.164-0.321
		c0.005,0.004,0.01,0.009,0.015,0.013c2.006,1.773,4.943,2.167,7.783,2.547c2.905,0.389,5.909,0.792,7.815,2.644
		C138.132,144.41,138.613,146.662,137.874,149.462z M138.46,159.613c-0.228-0.229-0.479-0.479-0.783-0.686l2.502-1.947
		c0.125,0.395,0.325,0.78,0.599,1.147l16.426,21.629c0.06,0.209,0.11,0.445,0.087,0.634c-0.011,0.091-0.045,0.227-0.221,0.375
		c-0.233,0.18-0.418,0.273-0.565,0.288l-0.037,0.002c-0.131,0-0.278-0.069-0.398-0.143l-17.525-21.209L138.46,159.613z
		 M167.75,129.662v38.988c0,15.2-10.412,27.745-23.717,29.262v-28.426l10.575,12.797l0.243,0.222
		c0.528,0.365,1.072,0.551,1.617,0.551c0.079,0,0.158-0.004,0.234-0.012c0.51-0.05,0.992-0.252,1.51-0.634l0.103-0.078
		c0.551-0.446,0.884-1.037,0.962-1.703c0.074-0.603-0.068-1.17-0.22-1.651l-0.071-0.182l-14.953-19.689v-29.444H167.75z"/>
	<path d="M139.625,156.143c0.48-0.434,0.898-0.879,1.124-1.263l-0.524-0.67c-0.128,0.117-0.266,0.229-0.404,0.337
		c-0.239,0.189-0.485,0.386-0.673,0.615l-2.837,2.271l-0.019,0.008c-0.412,0.187-0.891,0.491-1.424,0.904l0.59,0.731
		c0.49-0.186,0.91-0.406,1.392-0.775l2.767-2.153C139.62,156.146,139.624,156.145,139.625,156.143z"/>
	<path d="M135.465,153.74l-0.003,0.002l-0.002,0.002c-0.935,0.72-1.854,1.296-2.808,1.848l0.204,0.254
		c0.008-0.006,0.016-0.014,0.024-0.02l0.003-0.002l0.038-0.029l0.019-0.008c0.146-0.059,0.363-0.207,0.616-0.379
		c0.335-0.228,0.75-0.51,1.186-0.709l1.603-1.265c0.436-0.413,1.388-1.3,1.91-1.747l-0.195-0.249l-0.015-0.02
		C137.227,152.27,136.282,153.059,135.465,153.74z"/>
	<path d="M129.043,61.441h3.176c-0.578,1.593-0.885,3.333-0.885,5.206c0,2.327,0.43,4.352,1.276,6.019
		c0.828,1.632,1.917,3.042,3.236,4.188c1.281,1.117,2.748,2.055,4.359,2.789c1.52,0.693,3.06,1.316,4.603,1.86
		c3.255,1.086,5.549,2.089,6.819,2.983c1.31,0.919,1.461,1.853,1.461,2.474c0,0.508-0.077,0.966-0.229,1.359
		c-0.115,0.299-0.332,0.562-0.665,0.805c-0.41,0.3-0.997,0.549-1.749,0.74c-0.81,0.208-1.885,0.313-3.197,0.313
		c-2.727,0-5.041-0.277-6.878-0.822c-1.877-0.557-3.465-1.188-4.718-1.875c-0.386-0.212-0.844-0.243-1.256-0.087
		c-0.411,0.157-0.732,0.486-0.879,0.9l-2.884,8.125c-0.243,0.684,0.039,1.443,0.668,1.804c0.658,0.377,1.444,0.765,2.403,1.186
		c0.949,0.417,2.096,0.816,3.411,1.187c1.301,0.363,2.806,0.674,4.476,0.923c1.687,0.25,3.59,0.376,5.657,0.376
		c6.302,0,11.133-1.288,14.36-3.827c3.337-2.625,5.028-6.34,5.028-11.041c0-2.35-0.317-4.398-0.945-6.092
		c-0.644-1.73-1.635-3.259-2.944-4.546c-1.271-1.245-2.87-2.341-4.751-3.258c-1.772-0.864-3.891-1.754-6.326-2.658
		c-1.118-0.387-2.145-0.765-3.052-1.124c-0.845-0.334-1.597-0.709-2.234-1.115c-0.55-0.351-0.968-0.73-1.244-1.128
		c-0.218-0.315-0.323-0.722-0.323-1.244c0-1.125,0.485-1.577,0.907-1.845c0.565-0.357,1.8-0.783,4.473-0.783
		c2.015,0,3.745,0.229,5.141,0.681c1.469,0.477,2.814,1.029,4.001,1.642c0.382,0.198,0.831,0.222,1.233,0.065
		c0.401-0.157,0.716-0.478,0.863-0.882l2.949-8.059c0.256-0.698-0.038-1.477-0.69-1.833c-1.531-0.834-3.482-1.604-5.801-2.285
		c-2.354-0.693-5.164-1.044-8.351-1.044c-1.536,0-2.99,0.122-4.368,0.34h-16.132v-8.501h20.183v-9.584h-31.404v46.409h11.222V61.441
		z M146.998,54.65c0.82-0.079,1.662-0.133,2.546-0.133c2.9,0,5.425,0.31,7.505,0.922c1.554,0.458,2.913,0.95,4.059,1.47
		l-1.922,5.253c-0.917-0.4-1.895-0.77-2.922-1.103c-1.696-0.548-3.736-0.827-6.065-0.827c-1.217,0-2.274,0.084-3.2,0.245V54.65z
		 M147.517,72.137c0.946,0.374,2.015,0.767,3.143,1.157c2.313,0.858,4.339,1.709,6.023,2.53c1.591,0.776,2.926,1.686,3.965,2.704
		c0.992,0.975,1.744,2.136,2.233,3.448c0.502,1.356,0.757,3.055,0.757,5.048c0,3.787-1.271,6.627-3.884,8.684
		c-2.686,2.113-6.893,3.184-12.505,3.184c-1.921,0-3.676-0.116-5.216-0.344c-1.546-0.231-2.928-0.515-4.106-0.844
		c-1.178-0.332-2.192-0.683-3.015-1.044c-0.364-0.16-0.703-0.315-1.016-0.466l1.885-5.312c1.106,0.488,2.356,0.94,3.736,1.349
		c2.115,0.628,4.716,0.946,7.732,0.946c1.586,0,2.875-0.133,3.94-0.407c1.138-0.29,2.046-0.69,2.775-1.225
		c0.8-0.583,1.369-1.305,1.695-2.148c0.284-0.741,0.429-1.561,0.429-2.438c0-1.968-0.946-3.672-2.735-4.928
		c-1.529-1.076-4.014-2.18-7.571-3.367c-1.436-0.506-2.893-1.096-4.333-1.753c-1.348-0.614-2.57-1.395-3.634-2.322
		c-1.027-0.893-1.878-1.997-2.53-3.282c-0.631-1.243-0.952-2.811-0.952-4.661c0-1.866,0.349-3.56,1.039-5.032
		c0.028-0.06,0.064-0.114,0.093-0.173h8.726c-0.022,0.014-0.049,0.025-0.071,0.04c-1.507,0.955-2.303,2.469-2.303,4.379
		c0,1.136,0.288,2.128,0.857,2.952c0.504,0.728,1.21,1.384,2.098,1.95C145.572,71.271,146.496,71.733,147.517,72.137z
		 M127.043,78.181h-7.222V35.771h27.404v5.584h-20.183v12.501h17.954v5.584h-17.954V78.181z"/>
</g>
</svg>
