<?xml version="1.0" encoding="utf-8"?>
<!-- Generator: Adobe Illustrator 15.1.0, SVG Export Plug-In . SVG Version: 6.00 Build 0)  -->
<!DOCTYPE svg PUBLIC "-//W3C//DTD SVG 1.1//EN" "http://www.w3.org/Graphics/SVG/1.1/DTD/svg11.dtd">
<svg version="1.1" id="Layer_1" xmlns:serif="http://www.serif.com/"
	 xmlns="http://www.w3.org/2000/svg" xmlns:xlink="http://www.w3.org/1999/xlink" x="0px" y="0px" width="283.46px"
	 height="283.46px" viewBox="0 0 283.46 283.46" enable-background="new 0 0 283.46 283.46" xml:space="preserve">
<path d="M276.375,107.879c0-5.662-2.246-11.09-6.251-15.091c-4.003-4.004-9.43-6.251-15.091-6.251H28.427
	c-5.659,0-11.089,2.247-15.091,6.251c-4.002,4.001-6.251,9.429-6.251,15.091v57.487c0,5.657,2.25,11.088,6.251,15.091
	c4.001,4.001,9.432,6.251,15.091,6.251h226.607c5.661,0,11.088-2.251,15.091-6.251c4.005-4.003,6.251-9.434,6.251-15.091V107.879
	L276.375,107.879z M238.864,166.534c-7.084,0-12.588-1.55-16.506-4.655c-3.921-3.107-5.88-7.448-5.88-13.029v-2.163h11.853v1.507
	c0,5.328,3.605,7.995,10.818,7.995c6.52,0,9.781-1.945,9.781-5.832c0-1.381-0.299-2.495-0.895-3.339
	c-0.596-0.847-1.627-1.617-3.104-2.305c-1.476-0.69-3.654-1.444-6.538-2.258l-3.858-1.128c-4.64-1.32-8.243-2.714-10.815-4.187
	c-2.569-1.473-4.42-3.261-5.552-5.362c-1.126-2.1-1.695-4.718-1.695-7.854c0-3.387,0.895-6.38,2.684-8.983
	c1.783-2.602,4.326-4.624,7.619-6.066c3.29-1.444,7.163-2.164,11.616-2.164c6.773,0,11.992,1.629,15.662,4.89
	c3.667,3.261,5.505,7.933,5.505,14.018v0.845h-11.853v-1.504c0-2.571-0.818-4.531-2.444-5.879c-1.633-1.347-3.891-2.022-6.772-2.022
	c-3.199,0-5.646,0.547-7.34,1.645c-1.692,1.097-2.54,2.619-2.54,4.565c0,1.316,0.328,2.382,0.987,3.195
	c0.661,0.815,1.789,1.553,3.389,2.21c1.597,0.659,4.154,1.522,7.665,2.588l4.704,1.411c5.394,1.63,9.375,3.746,11.945,6.351
	c2.569,2.602,3.858,5.847,3.858,9.734c0,5.519-1.992,9.862-5.974,13.028C251.202,164.951,245.761,166.534,238.864,166.534
	L238.864,166.534z M62.562,153.836H38.578l-4.703,12.133H22.303l23.987-58.698h9.218l23.984,58.698H67.171L62.562,153.836z
	 M164.485,126.653c0,4.953-1.034,8.839-3.104,11.662c-2.068,2.82-5.487,4.858-10.253,6.112l13.356,21.542h-13.546l-12.132-20.222
	h-8.559v20.222h-11.759v-58.695h20.318c9.031,0,15.567,1.57,19.611,4.703C162.462,115.112,164.485,120.005,164.485,126.653
	L164.485,126.653z M213.755,126.653c0,4.953-1.034,8.839-3.104,11.662c-2.068,2.82-5.484,4.858-10.253,6.112l13.356,21.542H200.21
	l-12.133-20.222h-8.558v20.222h-11.76v-58.695h20.317c9.033,0,15.567,1.57,19.611,4.703
	C211.734,115.112,213.755,120.005,213.755,126.653L213.755,126.653z M114.708,117.903H96.367v48.066H84.608v-48.066H66.266v-10.63
	h48.442V117.903z M58.707,143.676l-7.901-20.975h-0.188l-8.091,20.975H58.707z M130.248,135.305h9.406
	c3.449,0,6.083-0.298,7.899-0.895c1.819-0.594,3.105-1.52,3.857-2.773c0.755-1.254,1.128-3.012,1.128-5.269
	c0-3.07-0.955-5.265-2.867-6.584c-1.915-1.316-5.407-1.973-10.485-1.973h-8.937L130.248,135.305L130.248,135.305z M179.517,135.305
	h9.405c3.449,0,6.083-0.298,7.901-0.895c1.817-0.594,3.106-1.52,3.858-2.773c0.752-1.254,1.129-3.012,1.129-5.269
	c0-3.07-0.958-5.265-2.869-6.584c-1.915-1.316-5.41-1.973-10.488-1.973h-8.937V135.305L179.517,135.305z"/>
</svg>
