<?xml version="1.0" encoding="iso-8859-1"?>
<!-- Generator: Adobe Illustrator 15.1.0, SVG Export Plug-In . SVG Version: 6.00 Build 0)  -->
<!DOCTYPE svg PUBLIC "-//W3C//DTD SVG 1.1//EN" "http://www.w3.org/Graphics/SVG/1.1/DTD/svg11.dtd">
<svg version="1.1" id="Layer_1" xmlns="http://www.w3.org/2000/svg" xmlns:xlink="http://www.w3.org/1999/xlink" x="0px" y="0px"
	 width="283.46px" height="283.46px" viewBox="0 0 283.46 283.46" style="enable-background:new 0 0 283.46 283.46;"
	 xml:space="preserve">
<g>
	<path d="M143.87,73.334l-2.022-1.015l-138.1,69.568l138.111,69.252l129.879-65.54l7.977-4.026L143.87,73.334z M17.104,141.875
		l124.748-62.84l124.521,62.551L141.85,204.424l-14.161-7.102c-0.54-0.007-1.058-0.131-1.346-0.361
		c0.1-0.063,0.216-0.105,0.34-0.144L17.104,141.875z"/>
	<path d="M153.081,142.152c-0.074-2.731,0.035-5.649-0.418-8.003c-0.143-0.003-0.184,0.167-0.188,0.393
		c-0.004,0.224,0.029,0.503,0.039,0.718c0.254,5.761,0.148,12.05,1.994,16.054c0.016-0.348,0.039-0.708,0.063-1.072
		c0.047-0.699,0.084-1.422,0.035-2.154c-0.021-0.338-0.016-0.818-0.146-0.982c-0.162-0.198-0.598-0.104-0.666-0.346
		c-0.064-0.232,0.164-0.652,0.223-0.937c0.537-2.552-0.309-5.134-0.592-7.289c0.043,0.763,0.143,1.72,0.057,2.496
		C153.43,141.497,153.315,141.896,153.081,142.152z"/>
	<path d="M143.232,183.221c-0.017,0.027-0.021,0.055-0.03,0.082c-0.121,0.342,0.188,0.644,0.551,0.65
		c0.057,0.002,0.113-0.004,0.17-0.02c0.037-0.13,0.033-0.232,0.004-0.316C143.836,183.366,143.5,183.293,143.232,183.221z"/>
	<path d="M140.065,147.381c-0.466-0.51-1.201-0.748-1.635-1.289c-0.112,0.115-0.259,0.146-0.415,0.141
		c-0.26-0.012-0.547-0.131-0.741-0.141h-0.001c0.649,0.293,0.151,1.736,1.034,1.798c0.233-0.254-0.188-0.783,0.099-1.011
		c0.819,0.104,1.032,0.815,1.659,1.113V147.381z"/>
	<path d="M141.779,112.164c-0.001-0.014-0.004-0.022-0.008-0.032c-0.006-0.014-0.017-0.022-0.042-0.019
		c-0.389,0.088-0.719,0.233-0.837,0.592C141.298,112.634,141.657,112.516,141.779,112.164z"/>
	<path d="M153.129,177.238c0.209,0.087,0.498,0.125,0.803,0.117c0.67-0.017,1.408-0.249,1.488-0.659
		c0.051-0.26-0.102-0.77-0.172-1.133c-0.221-1.083-0.648-2.313-1.109-2.93c0.205,1.227-0.061,2.523-0.025,3.816
		c-1.123-0.279-0.463-2.234-0.736-3.324c0,0.002-0.002,0.002-0.002,0.004c0-0.002,0-0.002,0-0.002
		C153.075,174.266,152.206,176.231,153.129,177.238z"/>
	<path d="M150.915,189.749c0.063-0.071,0.109-0.149,0.145-0.231c0.066-0.164,0.086-0.349,0.072-0.541
		c-0.023-0.483-0.227-1.043-0.24-1.565c-0.004-0.123,0.045-0.271,0.023-0.369c-0.031-0.149-0.215-0.308-0.297-0.47
		c-0.045-0.089-0.082-0.179-0.117-0.271c-0.506-1.383,0.117-3.155,0.191-4.553c0.002-0.029,0.023-0.09,0.029-0.146
		c0.006-0.061-0.006-0.114-0.078-0.125c-0.287,0.025-0.768,0.275-0.813,0.542c0,0,0,0,0,0.001c-0.027,0.157,0.074,0.439,0.098,0.663
		c0.037,0.364,0.045,0.75,0.045,1.14c-0.002,0.391-0.012,0.78-0.01,1.159c0.002,0.761,0.045,1.468,0.285,1.986
		c0.078,0.167,0.244,0.308,0.295,0.489c0.045,0.154,0.055,0.32,0.049,0.492c-0.014,0.396-0.117,0.819-0.104,1.161
		C150.5,189.404,150.598,189.638,150.915,189.749z"/>
	<path d="M143.331,179.849c-0.041,0.104-0.065,0.228-0.082,0.356c-0.043,0.389,0.012,0.854,0.03,1.241h0.002
		c0.476-0.114,0.604-1.127,0.237-1.487C143.465,179.907,143.403,179.87,143.331,179.849z"/>
	<path d="M143.331,182.875c0.061,0.013,0.111,0.015,0.158,0.011c0.336-0.032,0.398-0.414,0.26-0.698
		C143.432,182.225,143.184,182.534,143.331,182.875z"/>
	<path d="M138.824,148.136L138.824,148.136c-0.007,0.403,0.381,0.78,0.714,0.763c0.141-0.008,0.217-0.033,0.247-0.072
		c0.093-0.113-0.219-0.33-0.394-0.445C139.173,148.239,139.014,148.157,138.824,148.136z"/>
	<path d="M136.982,144.471l-0.162,0.283c0.196,0.293,0.407,0.572,0.896,0.574C137.501,145.103,137.31,144.682,136.982,144.471z"/>
	<path d="M144.756,169.704c-0.006,0.02-0.008,0.035,0.002,0.051c2.248,0.074,3.262-1.301,5.295-1.524
		c-0.002,0-0.002-0.001-0.002-0.002c0,0,0,0,0.002,0c-0.607-1.188-3.193-0.074-4.455-0.612c2.006-0.981,4.311-1.725,4.996-4.015
		l-0.002-0.001c0-0.001,0.002-0.001,0.002-0.001c-0.002-0.017-0.004-0.03-0.025-0.024c-0.539,0.615-1.543,0.879-2.266,1.305
		c-0.236,0.141-0.543,0.261-0.615,0.541c0.002,0,0.002,0,0.002,0c0,0.002-0.002,0.002-0.002,0.002
		c0.162,0.067,0.484-0.024,0.492,0.195c-0.365,0.252-0.818,0.396-1.279,0.543c-0.457,0.146-0.965,0.268-1.502,0.318
		c-0.139,0.496-0.357,1.021-0.297,1.639c0.002,0.006,0,0.01,0,0.014c0.377,0.306,1.205,0.156,1.623,0.418
		c-0.48,0.419-1.369,0.603-1.844,1.01C144.846,169.586,144.774,169.649,144.756,169.704z"/>
	<path d="M140.065,144.318c-0.105-0.005-0.211-0.011-0.33,0.001c-0.654-0.433-1.283-0.89-1.881-1.378l-0.406,0.711
		c0.336,0.267,0.665,0.537,0.982,0.815c0.191,0.167,0.496,0.369,0.517,0.541c0.023,0.193-0.152,0.31-0.123,0.492
		c0.606,0.158,0.887,0.646,1.241,1.056v-0.724c-0.242-0.289-0.423-0.631-0.403-1.119c0.152,0.019,0.283,0.082,0.403,0.168V144.318
		L140.065,144.318z"/>
	<path d="M151.815,140.233c0-0.063-0.004-0.13-0.016-0.198c-0.182-1.109-2.043-0.479-2.289,0.196c0,0.001,0,0.001,0,0.001
		c0.473,0.464,1.545,0.326,2.24,0.566C151.772,140.607,151.814,140.427,151.815,140.233z"/>
	<path d="M146.426,147.805c1.369-2.801,2.566-5.84,3.012-9.47c0,0.001-0.002,0.001-0.002,0.001s0,0,0-0.001
		c-1.029,1.13-2.041,2.28-3.01,3.47v4.538c0.111,0.026,0.195,0.077,0.203,0.167l-0.203-0.01v0.42l0.104,0.058
		c-0.004,0.104-0.043,0.206-0.104,0.295V147.805z M146.543,144.386c-0.025-0.095-0.033-0.201-0.027-0.312
		c0.033-0.492,0.385-1.053,0.828-0.89c0.072,0.024,0.121,0.08,0.162,0.146c0.043,0.07,0.08,0.157,0.115,0.26
		c0.014,0.037,0.025,0.072,0.043,0.113l-0.715,0.121c0,0,0,0,0,0.002c0.068,0.258,0.336,0.426,0.613,0.271
		c0.018,0.358-0.197,0.604-0.441,0.641C146.79,144.786,146.61,144.624,146.543,144.386z"/>
	<path d="M140.065,139.066l-0.994,1.742c0.35-0.246,0.633-0.609,0.934-0.946c0.021-0.021,0.04-0.045,0.06-0.066V139.066z"/>
	<path d="M151.436,141.762c-0.02-0.077-0.033-0.164-0.068-0.229c-0.035-0.066-0.094-0.109-0.207-0.097
		c-0.012,0.03-0.018,0.063-0.02,0.098c-0.018,0.232,0.158,0.504,0.363,0.37C151.471,141.871,151.452,141.818,151.436,141.762z"/>
	<path d="M146.426,135.471v1.074c0.205-0.418,0.404-0.857,0.486-1.34c0.012-0.065,0.03-0.126,0.036-0.194
		c-0.002-0.014-0.006-0.025-0.022-0.023c0,0,0-0.002,0-0.001C146.752,135.145,146.592,135.31,146.426,135.471z"/>
	<path d="M125.48,184.799c0.213-0.061,0.559-0.115,0.641-0.247c0.253-0.406-0.093-1.119,0.172-1.552
		c0.46-0.36,1.249-0.395,1.945-0.518c0.781-2.945,1.54-5.913,1.945-9.232c0.283-0.25,0.609-0.459,1.059-0.541
		c1.086-2.799,2.378-5.388,2.339-9.309c0.724-1.064,1.033-2.679,1.305-4.111c-0.484-0.104-1.039,0.028-1.477,0.123
		c-1.904,3.104-3.347,6.848-4.826,10.438c-0.484,1.174-0.714,2.582-1.773,3.299c-0.973-0.848-2.229-1.415-2.979-2.485
		c2-4.261,4.98-7.809,7.436-11.744c0.166-0.267,0.412-0.567,0.468-0.787c0.1-0.396,0.06-0.782,0.197-1.157
		c0.063-0.171,0.279-0.358,0.395-0.542c0.304-0.482,0.507-1.051,0.837-1.502c0.043-0.059,0.134-0.135,0.123-0.223
		c-0.416,0.146-1.456,0.41-1.452-0.295c0.167-0.211,0.558,0.086,0.714-0.052c-0.109-0.618-0.77,0.181-1.108-0.172
		c0.001-0.005,0.003-0.01,0.003-0.015l-1.659,2.906h-0.741l-10.653-18.284v21.094h-6.307V126.82h6.095l11.554,19.347l2.12-3.758
		c-1.253-1.088-2.438-2.243-3.392-3.705c-0.275-0.424-0.682-0.938-0.738-1.354c-0.024-0.18,0.007-0.362,0.025-0.517
		c0.019-0.156,0.094-0.322,0.073-0.443c-0.086-0.51-1.136-0.653-1.206-1.281c-0.021-0.183,0.063-0.455,0.098-0.688
		c0.208-1.369,0.313-2.725,1.207-3.398c0.111-0.083,0.365-0.185,0.443-0.318c0.074-0.13,0.072-0.386,0.123-0.593
		c0.667-2.732,1.899-5.018,3.103-7.287c0.338-0.639,0.59-1.274,0.984-1.798c1.179-1.563,2.666-2.767,5.22-3.077
		c0.198-0.55,0.25-1.243,0.493-1.748c-0.373-0.614-0.89-1.704-0.419-2.563c-0.389-0.302-0.797-0.562-1.231-0.886
		c-0.338-0.253-0.94-0.655-1.01-1.108c-0.073-0.484,0.072-1.222,0.148-1.748c0.474-3.293,2.126-5.388,4.456-6.895
		c0.367-0.237,0.838-0.572,1.207-0.665c0.481-0.121,1.142-0.065,1.575-0.147c0.656,0,1.314,0,1.971,0
		c1.539,0.118,3.506,0.441,4.578,1.133c0.258,0.166,0.535,0.524,0.789,0.788c0.725,0.753,1.48,1.729,1.92,2.732
		c0.35,0.802,0.57,1.736,0.369,2.61c-0.158,0.691-0.615,1.446-1.205,1.896c-0.023,0.018-0.09,0.033-0.123,0.049
		c-0.41,0.188-0.832,0.248-1.207,0.419c-0.357,0.162-0.662,0.354-1.01,0.592c-0.012,0.507,0.025,1.123,0.049,1.697
		c0.02,0.487,0.113,1.189-0.049,1.576c-0.18,0.426-1.219,0.667-1.674,0.861c-0.273,0.116-0.557,0.257-0.766,0.493l0.418,1.574
		c1.523,1.271,2.594,2.835,4.139,4.087c0.242,0.197,0.623,0.406,0.787,0.642c0.244,0.35,0.381,0.846,0.543,1.306
		c0.236,0.681,0.406,1.396,0.516,2.177h2.389c3.408-4.036,6.844-8.326,10.193-12.469c0.213-0.262,0.779-0.78,0.787-1.034
		c0.01-0.231-0.32-0.425-0.219-0.714c0.436,0.169,0.969-0.093,1.4-0.05c0.334,0.034,0.492,0.222,0.664,0.468
		c-0.025,0.189-0.125,0.334-0.1,0.591c0.023,0.229,0.176,0.371,0.148,0.566c-0.018,0.123-0.283,0.421-0.443,0.615
		c-3.303,3.982-6.457,7.987-9.646,12.025h20.256v5.989h-10.334v27.083h-6.625v-27.083h-7.922c-0.037,0.348,0.021,0.818,0.039,1.216
		c0.263,4.902,1.345,8.662,1.578,13.567c0.058,1.214,0.051,2.754-0.052,3.988c-0.041,0.487-0.03,1.156-0.297,1.33
		c-0.321,0.209-1.405,0.185-1.133,0.859c0.178,0.438,1.049-0.116,1.452-0.023c1.027,0.232,1.841,1.521,1.404,2.883
		c-0.955,0.521-2.252,0.701-3.3,1.132c-0.553,2.831-1.149,5.614-1.944,8.198c1.136,0.295,1.871,0.985,2.363,1.922
		c0.778-1.158,2.053-2.055,3.521-2.61c1.411-0.533,3.647-0.81,5.194-0.147c0,0.019,0,0.033,0,0.052
		c0.019,0.563-0.022,1.075-0.222,1.428c-3.515-0.199-6.015,0.81-7.166,3.149c-0.157,0.322-0.403,0.75-0.418,1.061
		c-0.017,0.321,0.177,0.838,0.295,1.206c0.354,1.101,0.839,2.213,1.106,3.351c0.207,0.869,0.313,1.834-0.122,2.463
		c-0.412,0.592-1.197,0.75-2.191,0.763c0.603,3.075,1.111,6.335,1.863,9.38l91.894-46.372l-105.62-53.057l-105.83,53.311
		l86.919,43.583C123.805,185.234,124.674,185.02,125.48,184.799z M183.258,126.824h0.002h13.408c3.744,0,6.473,0.715,8.188,2.146
		s2.57,3.613,2.57,6.545c0,1.343-0.264,2.535-0.795,3.578c-0.529,1.043-1.396,1.935-2.596,2.676c1.836,0.708,3.195,1.715,4.08,3.021
		c0.883,1.308,1.324,2.984,1.324,5.035c0,3.426-1.053,5.961-3.152,7.604c-2.104,1.644-5.348,2.465-9.729,2.465h-13.303v-33.069
		H183.258z M105.086,159.895h-7.632l-6.837-11.396h-4.823v11.396H79.17v-33.071h11.447c5.089,0,8.772,0.884,11.051,2.649
		c2.279,1.768,3.419,4.523,3.419,8.269c0,2.792-0.583,4.98-1.749,6.571c-1.166,1.59-3.093,2.738-5.777,3.443L105.086,159.895z"/>
	<path d="M140.4,193.366c0.137,0.036,0.272,0.049,0.403,0.043c0.395-0.016,0.751-0.193,0.976-0.388
		c-0.779-1.188-0.341-3.424-0.481-5.172c-0.01-0.117-0.021-0.231-0.036-0.343C140.87,189.302,140.006,191.185,140.4,193.366z"/>
	<path d="M148.942,172.338c0.002,0,0.002,0,0.002-0.002c-0.297-0.625-1.096-0.789-1.871-0.935c-0.801-0.147-1.686-0.22-2.363-0.468
		c-0.053-0.021-0.043-0.105-0.123-0.1c-0.111,0.051-0.16,0.17-0.203,0.291c-0.006,0.02-0.012,0.035-0.02,0.055
		c1.273,0.52,3.221,0.357,4.209,1.154c-1.438,0.373-2.502-0.69-3.889-0.541c-0.211,0.022-0.434,0.091-0.564,0.244
		c0,0.002-0.002,0.002-0.002,0.002c1.25,0.465,3.422,0.951,4.826,0.297C148.944,172.338,148.944,172.338,148.942,172.338z"/>
	<path d="M140.424,187.111c-2.144,0.304-4.038,0.854-6.105,1.231c-0.433,1.186-1.03,2.203-1.503,3.349
		c0.744-0.056,1.474-0.125,2.198-0.198c1.612-0.166,3.182-0.375,4.721-0.613C139.897,189.572,140.476,188.549,140.424,187.111z"/>
	<path d="M196.51,139.754c1.695,0,2.887-0.31,3.576-0.927c0.688-0.618,1.033-1.564,1.033-2.837c0-1.166-0.416-2.058-1.244-2.677
		c-0.832-0.618-2.199-0.928-4.109-0.928h-5.881v7.367L196.51,139.754L196.51,139.754z"/>
	<path d="M132.718,179.898c0.457-0.028,0.897-0.14,1.034-0.468c-1.358,0.271-2.866,0.002-3.546-0.715
		c-0.003,0.045-0.013,0.082-0.018,0.125c-0.021,0.182-0.052,0.353-0.09,0.516c-0.021,0.09-0.042,0.182-0.064,0.27
		c0,0.002,0,0.002,0,0.002c0.675,0.322,1.744,0.408,2.363,0.738c0.006,0.004,0.012,0.006,0.018,0.01
		c0.035,0.021,0.073,0.041,0.112,0.06c0.003,0.001,0.005,0.002,0.007,0.003c0.045,0.021,0.09,0.032,0.131,0.028
		c0-0.003,0.002,0,0.003,0c0,0,0,0,0.001,0c-0.046-0.274-0.412-0.229-0.491-0.47c0.074-0.125,0.243-0.11,0.396-0.103
		C132.625,179.898,132.675,179.901,132.718,179.898z"/>
	<path d="M201.465,153.245c0.83-0.726,1.244-1.865,1.244-3.418c0-1.483-0.449-2.58-1.354-3.287c-0.898-0.707-2.48-1.061-4.742-1.061
		h-6.729v8.852h7.049C199.124,154.331,200.635,153.967,201.465,153.245z"/>
	<path d="M96.739,133.874c-1.078-0.742-3.048-1.113-5.909-1.113h-5.036v9.857h5.301c1.943,0,3.426-0.168,4.451-0.505
		c1.024-0.336,1.749-0.855,2.173-1.563c0.424-0.707,0.636-1.696,0.636-2.968C98.355,135.853,97.816,134.614,96.739,133.874z"/>
	<path d="M134.614,172.413c0.023-0.056,0.034-0.109,0.036-0.168c0.011-0.281-0.201-0.563-0.225-0.839
		c-0.009-0.108,0.012-0.218,0.09-0.321c0.206,0.104,0.529,0.193,0.715,0.066c0.054-0.035,0.098-0.089,0.122-0.166
		c0.243,0.178,0.46,0.377,0.862,0.395c-0.218-0.484-0.881-0.525-1.129-0.981c-0.035-0.063-0.062-0.139-0.078-0.226
		c0.426-0.026,0.731,0.111,1.055,0.205c0.211,0.063,0.43,0.104,0.694,0.066c-0.14-0.316-0.621-0.291-0.959-0.408
		c-0.113-0.039-0.21-0.095-0.272-0.184c0.014-0.034,0.031-0.064,0.048-0.098c0.038-0.068,0.076-0.14,0.075-0.246
		c-0.019-0.025-0.044-0.043-0.069-0.063c-0.122-0.092-0.307-0.121-0.487-0.153c-0.205-0.039-0.4-0.086-0.478-0.252
		c0.403,0,0.805,0,1.207,0c-0.177-0.662-0.896-0.778-1.601-0.912c-0.401,0.182-0.233,0.934-0.714,1.035
		c0.024,0.125,0.035,0.239,0.033,0.352c-0.008,0.77-0.572,1.224-0.551,2.086C133.544,171.856,133.955,172.259,134.614,172.413z"/>
	<path d="M151.899,107.39L151.899,107.39h0.002c0,0-0.002-0.001-0.002-0.005c-1.268-2.782-3.682-4.656-7.848-4.508
		c-0.045,0.002-0.086,0-0.131,0.002c-3.314,0.15-5.382,1.767-6.279,4.357c0.018,0.01,0.035,0.01,0.051,0.006
		c0.05-0.015,0.094-0.076,0.123-0.104c1.017-0.959,2.001-1.949,3.743-2.143c-0.282-0.186-0.906-0.027-0.911-0.491
		c0.695-0.201,1.407-0.289,2.113-0.292c2.113-0.007,4.162,0.759,5.469,1.571h0.002c-0.139-0.591-0.924-0.535-1.01-1.182
		c0.887,0.139,1.488,0.563,2.166,0.91c0.023-0.118-0.146-0.229-0.025-0.295C150.397,105.738,151.042,106.774,151.899,107.39z"/>
	<path d="M147.862,111.081c0.389-0.068,1.076,0.308,1.502,0.189c0.143-0.038,0.256-0.132,0.32-0.313
		c-0.357-0.497-0.701-1.007-1.084-1.479l-0.002,0.001c-0.1,0.144-0.221,0.256-0.354,0.342c-0.938,0.604-2.555-0.098-2.871-1.008
		c0.113-0.175,0.285-0.329,0.494-0.456c0.625-0.38,1.59-0.513,2.359-0.208c-0.215-1.203-2.576-2.188-3.33-1.012
		c-0.033,0.051-0.059,0.113-0.082,0.172c-0.02,0.039-0.041,0.071-0.057,0.114c-0.016,0.044-0.021,0.099-0.031,0.146
		c-0.018,0.068-0.035,0.133-0.045,0.208c0,0.001,0,0.001,0,0.001c0.229-0.023,0.383,0.027,0.418,0.197
		c-0.297,0.381-0.764,0.594-1.139,0.896c-0.047,0.038-0.1,0.071-0.143,0.112c0,0,0,0,0,0.001c0.184-0.063,0.518-0.164,0.541,0.099
		c0.002,0.032-0.012,0.071-0.035,0.118c-0.004,0.007-0.01,0.014-0.014,0.021c-0.076,0.136-0.227,0.308-0.297,0.428
		c-0.086,0.15-0.176,0.292-0.283,0.412c-0.184,0.2-0.414,0.339-0.75,0.352c0,0.001,0,0.001,0,0.001
		c-0.086,0.198,0.188,0.529-0.049,0.664c-0.774-0.104-0.695-1.063-1.428-1.206c-0.001,0-0.001,0-0.001,0
		c0.038,1.183,0.644,2.042,1.947,1.797l3.963,2.001c0.082-0.035,0.188-0.066,0.223-0.08c0.361-0.146,0.796-0.251,0.984-0.492h0.002
		c-0.593-0.313-1.304,0.454-1.8,0c0.029-0.077,0.072-0.139,0.128-0.188c0.385-0.355,1.323-0.156,1.694-0.524
		c0-0.001,0-0.001,0-0.001c-0.283-0.37-1.052-0.297-1.106-0.837c-0.013-0.104,0.012-0.19,0.053-0.265
		C147.649,111.174,147.745,111.099,147.862,111.081z"/>
	<path d="M127.252,134.322C127.252,134.324,127.252,134.324,127.252,134.322c0.759-0.403,2.047-1.507,2.955-0.614
		c-0.029-0.152-0.152-0.21-0.123-0.419c0.216-0.111,0.51-0.029,0.763,0c0.82,0.093,1.652,0.262,2.34,0.345
		c-0.001,0-0.002-0.001-0.003-0.001c0.001,0,0.002,0,0.003,0c-1.393-0.471-2.73-0.995-4.58-1.009
		c0.025,0.066,0.038,0.13,0.041,0.187c0.021,0.4-0.457,0.559-0.755,0.748C127.565,133.769,127.305,133.962,127.252,134.322z"/>
	<path d="M135.33,151.411c-0.756-0.146-1.476-0.39-1.691-1.08l-1.373,2.406c0.316-0.27,0.679-0.492,1.021-0.736
		c0.788,0.463,1.425,0.013,1.896-0.416C135.235,151.536,135.391,151.5,135.33,151.411z"/>
	<path d="M149.559,129.497c-0.92,1.537-1.998,2.898-3.133,4.196v0.938c0.74-0.885,1.477-1.813,2.199-2.696
		c0.336-0.412,0.727-0.807,0.961-1.206c0.488-0.839,0.893-1.935,1.229-2.955c0.119-0.359,0.307-0.789,0.295-1.106
		c-0.008-0.234-0.146-0.499-0.195-0.766c-0.176-0.866-0.203-1.739-0.443-2.511c-0.074,0-0.148,0-0.223,0
		c-0.027,0.004-0.027,0.039-0.023,0.074c-0.021,0.854,0.049,1.727,0.049,2.561c0,0.855,0.076,1.759-0.148,2.486
		C150.03,128.82,149.756,129.167,149.559,129.497z"/>
	<path d="M133.408,158.131c0.074,0.295,0.715,0.234,0.837,0.023C133.999,158.095,133.578,157.833,133.408,158.131z"/>
	<path d="M134.601,174.353c0.382,0.017,0.784-0.008,1.194-0.067c-0.878-0.813-2.21-1.305-3.226-1.896
		c0.018,0.178,0.094,0.305,0.197,0.405c0.312,0.309,0.866,0.396,0.812,0.975c-0.641-0.082-0.837-0.605-1.477-0.689
		C132.501,173.898,133.457,174.304,134.601,174.353z"/>
	<path d="M129.689,180.563c-0.083,0.827,0.831,0.988,1.403,1.156C130.776,181.184,130.285,180.82,129.689,180.563z"/>
	<path d="M143.381,120.042c-0.066,0.019-0.131,0.053-0.193,0.09c-0.074,0.043-0.148,0.091-0.225,0.135
		c-0.049,0.027-0.1,0.052-0.148,0.071c-1.397,0.521-2.745-0.794-3.843-1.034c0.001,0,0.001,0,0.001,0.001
		c-0.001,0-0.001,0-0.002-0.001c0.536,0.959,0.86,2.132,0.813,3.497c-0.044,1.291-0.332,2.622-0.591,3.718
		c-0.306,1.297-0.681,2.788-0.803,4.309l1.933-3.426c0.009-0.313,0.022-0.628,0.053-0.952c0.052,0.192,0.106,0.385,0.159,0.576
		l0.113-0.2h1.079c-0.194-0.561-0.344-1.159-0.44-1.807c0.433,0.593,0.86,1.201,1.293,1.807h1.877
		c-1.158-1.732-2.529-3.249-3.688-4.982c1.993,1.33,3.563,3.086,4.986,4.982h0.668v0.911c0.587,0.815,1.156,1.646,1.729,2.477
		c0.021-1.479-0.182-2.737-0.317-4.062c0.819,0.605,0.726,2.131,1.354,2.929c0.037-1.092,0.1-2.365-0.318-3.078c0,0,0,0,0,0.001
		c-0.104,0.137-0.063,0.414-0.246,0.467c-0.191-0.525-0.063-1.268-0.1-1.92c-0.025-0.456-0.137-0.854-0.271-1.157
		c-1.948-0.446-2.254-2.54-4.528-2.66C143.6,120.511,143.62,120.147,143.381,120.042z"/>
	<path d="M130.649,186.978c0.11-0.035,0.2-0.097,0.247-0.187c-0.402-0.004-0.677-0.357-1.083-0.196
		C129.811,186.947,130.317,187.083,130.649,186.978z"/>
	<path d="M131.53,174.258c0.01,0.015,0.022,0.027,0.032,0.043c0.101,0.145,0.219,0.283,0.356,0.414
		c0.981,0.93,2.803,1.435,4.222,0.726c-2.126,0.257-3.368-0.78-4.752-1.428C131.428,174.096,131.476,174.178,131.53,174.258z"/>
	<path d="M151.038,123.367c-0.021,0.188-0.033,0.36-0.023,0.542c0.049,1.002,0.475,1.903,0.551,2.915h0.932
		c-0.199-1.408-0.664-2.737-1.434-3.481C151.061,123.315,151.03,123.322,151.038,123.367z"/>
	<path d="M149.067,134.815c0.043-0.068,0.076-0.151,0.102-0.245c0.182-0.649-0.025-1.782-0.32-2.118c0,0.001,0,0.001,0,0.001
		s-0.002,0-0.002-0.001c-0.297,0.332-0.646,0.895-0.641,1.625c0.002,0.286,0.115,1.027,0.32,1.084
		C148.719,135.212,148.993,134.936,149.067,134.815z"/>
	<path d="M156.159,156.187c0.408-1.019-0.404-1.698-1.107-1.995c-0.098,0.807-0.855,0.951-1.135,1.576c0.002,0,0.002,0,0.002,0
		c0.209-0.107,0.414-0.148,0.613-0.148C155.131,155.624,155.682,156.016,156.159,156.187z"/>
	<path d="M139.711,193.638c-0.137-0.251-0.048-0.565-0.074-0.984c-0.768-0.022-1.507-0.006-2.224,0.041l4.422,2.218l1.03-0.52
		c-0.53-0.086-1.004-0.273-1.307-0.582C141.085,194.043,139.984,194.139,139.711,193.638z"/>
	<path d="M141.779,184.083c-0.168,0.375-0.199,0.885-0.369,1.256C141.791,185.195,141.837,184.584,141.779,184.083z"/>
	<path d="M143.725,191.101c0.059-0.786,0.295-1.677,0.33-2.517c0.021-0.504-0.029-0.989-0.232-1.424
		c-0.068,0.158-0.104,0.354-0.129,0.557c-0.102,0.838,0.063,1.939-0.23,2.584c-0.031,0.072-0.063,0.148-0.107,0.208
		c-0.178-0.188-0.459-0.075-0.715-0.024c-0.078,0.162-0.234,0.568-0.221,0.842c0.011,0.164,0.082,0.28,0.271,0.268
		c0.433-0.03,0.203-0.854,0.738-0.84c0.03,0.195-0.093,0.434-0.091,0.675c0,0.056,0,0.108,0.019,0.165
		c0.492,0.181,0.815,0.527,1.401,0.615l-0.002-0.002c0.002,0,0.002,0,0.002,0C144.704,191.549,143.975,191.563,143.725,191.101z"/>
	<path d="M129.672,186.268c-0.022-0.025-0.047-0.053-0.08-0.066c-0.027,0.027-0.063,0.051-0.104,0.066
		c-0.291,0.123-0.865,0.025-0.882,0.327c0.457-0.003,0.94,0.021,1.133-0.246C129.714,186.325,129.694,186.295,129.672,186.268z"/>
	<path d="M147.959,135.998c0.033-0.032,0.049-0.062,0.054-0.086c0.01-0.079-0.084-0.143-0.128-0.26
		c-0.057-0.154-0.084-0.348-0.11-0.539c-0.051-0.355-0.099-0.709-0.332-0.813c-0.063,0.646-0.305,1.314-0.33,1.998
		c-0.011,0.226,0.005,0.455,0.06,0.685c0.279-0.354,0.158-1.104,0.394-1.502C147.825,135.525,147.713,135.94,147.959,135.998z"/>
	<path d="M146.426,139.318c0.428-0.561,0.854-1.124,1.287-1.674c0.141-0.179,0.285-0.354,0.426-0.533
		c0.688-0.861,1.383-1.722,2.086-2.577c0.131-0.161,0.262-0.322,0.395-0.483c0.342-0.417,0.693-0.828,1.047-1.238h-0.471v-0.05
		c-0.268,0.323-0.531,0.647-0.799,0.97c-1.318,1.582-2.654,3.149-3.971,4.726V139.318L146.426,139.318z"/>
	<path d="M137.544,149.417c-0.409,0.392-0.781,1.246-1.06,1.601v0.001c0.13,0.178,0.144,0.471,0.281,0.643
		c0.046,0.058,0.104,0.101,0.187,0.121c0.688-0.643,1.216-1.443,1.65-2.34c0,0,0,0-0.001,0c0.001-0.001,0.001-0.001,0.001-0.001
		C138.345,149.068,137.831,149.14,137.544,149.417z"/>
	<path d="M134.737,166.011C134.732,165.937,134.634,166.036,134.737,166.011L134.737,166.011z"/>
	<path d="M135.352,165c0.236,0.182,0.59,0.563,0.985,0.346C136.261,165.009,135.71,164.816,135.352,165z"/>
	<path d="M137.692,168.424c0.023-0.104,0.032-0.203,0.03-0.297c-0.009-0.461-0.29-0.779-0.401-1.156
		c-0.044-0.15-0.062-0.311-0.023-0.491c0.278-0.008,0.41,0.132,0.566,0.246c0.108,0.081,0.229,0.149,0.419,0.147
		c0.157-0.476,0.254-1.008,0.334-1.562c0.185-1.274,0.268-2.653,0.725-3.66c0.473,0.364,0.072,1.603,0.518,1.995
		c0.231-1.322,0.576-2.534,0.912-3.753h-0.706v-5.426c-0.341-0.175-0.715-0.313-1.143-0.4c-1.97,1.198-2.865,3.472-3.151,6.354
		c0.53,0.244,1.283,0.27,1.684,0.644c0.001,0.002,0.002,0.004,0.004,0.005c0.064,0.063,0.12,0.133,0.164,0.215
		c0.009,0.018,0.01,0.039,0.018,0.057c0.032,0.07,0.063,0.146,0.076,0.238c-0.364-0.018-0.868-0.136-1.108,0.072
		c0.001,0,0.001,0.001,0.001,0.001s0,0-0.001,0c0.397,0.535,1.34,0.955,1.248,1.853c-0.01,0.101-0.029,0.203-0.066,0.313
		c-0.638-0.458-1.376-1.76-2.412-1.231c0,0,0,0,0.001,0c-0.001,0-0.001,0.002-0.002,0.002c0.861,0.33,1.688,0.695,1.945,1.633
		c0.018,0.063,0.022,0.135,0.034,0.199c0.014,0.078,0.033,0.15,0.04,0.236c-0.552-0.461-1.388-1.399-2.339-0.839c0,0,0,0,0.001,0
		c-0.001,0-0.001,0.001-0.001,0.001c1.298,0.516,2.628,1.129,2.93,2.559c-0.603-0.696-2.094-0.291-3.25-0.365
		c0.604,0.484,1.508,0.806,1.822,1.501c-0.502-0.068-1.354-0.25-1.821-0.024c-0.067,0.031-0.126,0.071-0.175,0.122
		C135.776,167.715,136.461,168.34,137.692,168.424z"/>
	<path d="M133.035,140.311l1.059-1.876c-0.323-0.628-0.605-1.298-0.835-2.02c-0.557-0.382-1.604-0.727-2.561-0.729
		c-0.574-0.002-1.116,0.121-1.502,0.433c0.52,0.351,1.837,0.032,2.019,0.641c-0.359,0.107-0.905,0.029-1.083,0.319
		C130.84,138.353,131.876,139.368,133.035,140.311z"/>
	<path d="M129.344,137.67c0.484,0.682,0.913,1.549,1.699,1.848C130.467,138.914,130.273,137.923,129.344,137.67z"/>
	<path d="M130.969,132.426c0.769,0.194,1.451,0.574,2.355,0.603c0.13,0.005,0.263,0.001,0.402-0.012
		C133.245,132.529,131.983,132.147,130.969,132.426z"/>
	<path d="M134.934,134.298c-0.217,1.039-0.435,2.076-1.108,2.658c0.218,0.279,0.411,0.584,0.598,0.896l1.383-2.449
		c-0.257-0.399-0.536-0.771-0.848-1.081C134.957,134.307,134.956,134.293,134.934,134.298z"/>
	<path d="M130.772,192.874c-0.587-0.457-2.262-0.289-1.797-1.478c0.507-0.047,0.658,0.263,1.083,0.296
		c-0.454-1.174-2.948-1.732-3.446-0.271c-0.696-0.057-0.974,0.31-1.207,0.716C126.616,192.954,129.049,193.686,130.772,192.874z"/>
	<path d="M130.182,194.081c-0.838,0.035-1.992-0.084-2.733,0.123c-0.222,0.403-0.223,1.543-0.813,1.526
		c-0.106-0.003-0.303-0.163-0.419-0.246c-0.469-0.337-0.843-0.789-0.837-1.526c0.375-0.061,0.671,0.076,0.936,0.197
		c0.029-0.111-0.173-0.271-0.295-0.345c-0.248-0.151-0.625-0.238-0.91-0.319c-0.148,0.235-0.226,0.631-0.197,0.937
		C125.132,196.795,130.421,196.842,130.182,194.081z"/>
	<path d="M131.068,187.9c-0.2,0.209-0.68,0.347-1.159,0.359c-0.616,0.019-1.231-0.164-1.253-0.654
		c0.313,0.026,0.721,0.199,1.075,0.22c0.213,0.012,0.407-0.033,0.55-0.195c-0.078-0.021-0.155-0.047-0.232-0.075
		c-0.388-0.146-0.784-0.358-1.229-0.396c-0.178-0.016-0.363-0.003-0.559,0.055c-0.218,1.004,0.601,1.451,1.413,1.449
		C130.306,188.661,130.934,188.39,131.068,187.9L131.068,187.9L131.068,187.9z"/>
	<path d="M128.163,193.833c0.031-0.252-0.436-0.14-0.517-0.196C127.698,193.809,127.951,193.903,128.163,193.833z"/>
	<path d="M129.099,184.773c0.086,1.401,2.522,1.29,2.954,0.345C131.181,185.681,129.732,185.258,129.099,184.773z"/>
	<path d="M128.138,183.32c-0.169-0.059-0.315-0.087-0.443-0.09c-0.895-0.021-0.868,1.192-1.083,1.938
		c-0.908,0.26-1.846,0.488-2.788,0.713c-0.88,0.211-1.764,0.416-2.629,0.641c0.427,1.395,0.777,2.867,1.945,3.521
		C124.221,187.215,128.219,187.308,128.138,183.32z"/>
	<path d="M129.197,184.231c0.219,0.007,0.332,0.239,0.566,0.148C129.646,184.273,129.341,184.004,129.197,184.231z"/>
	<path d="M131.315,178.051c-0.015-0.147-0.125-0.281-0.05-0.443c0.443-0.225,0.755,0.334,1.157,0.146
		c-0.739-0.293-1.095-0.974-1.896-1.205C130.206,177.22,130.557,178.161,131.315,178.051z"/>
	<path d="M130.725,175.147L130.725,175.147c-0.052,0.863,0.57,1.307,1.107,1.6c0.295,0.162,0.622,0.325,0.886,0.347v-0.003
		c0.09-0.113-0.089-0.252,0-0.367c0.405,0.052,0.926,0.12,1.388,0.096c0.277-0.015,0.533-0.063,0.73-0.169
		C133.207,176.407,131.543,176.2,130.725,175.147z"/>
	<path d="M127.687,197.325c0.908,0.01,1.876-0.313,1.904-1.029c-0.002-0.015-0.004-0.027-0.025-0.022
		c-0.085,0.078-0.187,0.142-0.3,0.188c-0.686,0.295-1.828,0.135-2.585,0.357c-0.125,0.037-0.241,0.081-0.34,0.143
		C126.629,197.193,127.147,197.317,127.687,197.325z"/>
	<path d="M134.811,157.639c-0.028-0.458-0.457-0.864-0.911-0.59C133.818,157.616,134.393,157.877,134.811,157.639z"/>
	<path d="M140.065,141.049c-0.339,0.505-0.661,1.022-0.946,1.57c0.001-0.002,0.001-0.002,0.002-0.002l-0.001,0.002
		c0.361-0.209,0.666-0.482,0.945-0.784V141.049z"/>
	<path d="M140.065,142.583c-0.12,0.205-0.198,0.451-0.207,0.775c0.07-0.029,0.138-0.066,0.207-0.102V142.583z"/>
	<path d="M148.083,120.559c0.082,1.221,0.66,1.947,0.813,3.103c0.08-0.015,0.149-0.036,0.215-0.065
		c0.449-0.204,0.558-0.749,0.771-1.19C149.268,121.801,148.917,120.938,148.083,120.559z"/>
	<path d="M149.215,124.892c0,0.017,0.008,0.035,0.016,0.054c0.004,0.01,0.004,0.018,0.008,0.025c0.043,0.089,0.137,0.2,0.174,0.291
		c0.18,0.44,0.211,0.996,0.395,1.354c0.033-0.08,0.064-0.17,0.092-0.265c0.18-0.668,0.124-1.652-0.313-2.002
		C149.52,124.583,149.217,124.646,149.215,124.892z"/>
	<path d="M124.592,170.493c0.794,0.412,1.375,1.038,2.216,1.403c1.56-4.435,3.605-8.519,5.467-12.631
		c0.054-0.118,0.146-0.231,0.123-0.369c-0.074,0-0.148,0-0.222,0C129.621,162.733,126.794,166.301,124.592,170.493z"/>
	<path d="M151.196,128.417c-0.135,0.292-0.256,0.579-0.258,0.906c-0.002,0.341,0.121,0.637,0.258,0.931V128.417z"/>
	<path d="M140.793,107.336c1.105-0.552,1.924,0.609,3.129,0.345c0.314-0.404,0.748-0.695,0.836-1.33
		c-0.164-0.143-0.574-0.074-0.787-0.098c0.01,0.076-0.014,0.177-0.049,0.245c-0.271,0.504-1.813,0.982-2.146,0.247
		c0.685-0.147,1.429-0.231,1.995-0.492C142.456,106.192,141.273,106.475,140.793,107.336z"/>
	<path d="M132.398,184.036c-0.829,0.041-1.297-0.279-2.068-0.297C130.415,184.665,131.901,184.44,132.398,184.036z"/>
	<path d="M148.28,113.959c-0.07-0.011-0.193-0.015-0.326-0.02l0.719,0.363C148.633,114.096,148.512,113.998,148.28,113.959z"/>
	<path d="M133.457,132.083c0.144,0.047,0.261,0.167,0.418,0.146c-0.089-0.675-1.051-0.476-1.329-0.96
		c0.071-0.257,0.409-0.247,0.418-0.565c-0.138,0.046-0.32,0.127-0.511,0.19c-0.012,0.004-0.023,0.009-0.035,0.014
		c-0.056,0.018-0.112,0.031-0.168,0.046c-0.013,0.003-0.024,0.008-0.036,0.01c-0.272,0.059-0.532,0.038-0.678-0.211
		c0.262-0.878,1.868-0.413,2.536-0.886c0.82-1.871,0.449-4.935,1.182-6.895c0.005,0.188-0.071,0.489-0.089,0.743
		s0.023,0.461,0.262,0.463c0.163,0.001,0.351-0.263,0.419-0.418c0.033-0.077,0.058-0.164,0.076-0.257
		c0.095-0.494,0.004-1.183,0.039-1.717c0.011-0.175,0.032-0.335,0.082-0.466c0.642,0.32,0.314-0.875,0.935-0.813
		c-0.251,0.895-0.391,1.899-0.515,2.92c-0.125,1.021-0.233,2.056-0.423,3.012c-0.126,0.638-0.288,1.238-0.515,1.775
		c-0.001-0.018-0.001-0.034-0.002-0.051c-0.039-0.547,0.068-1.165,0.013-1.664c-0.018-0.155-0.05-0.301-0.109-0.428
		c-0.157,1.838-0.787,3.715-0.7,5.646c0.013,0.276,0.04,0.553,0.085,0.831c0.277-0.196,0.496-0.52,0.665-0.837
		c1.262-2.38,0.973-6.396,1.822-9.159c-0.043,0.636,0.156,1.154,0.123,1.698c0.376-0.602,0.136-1.816,0.886-2.043c0,0,0,0,0-0.001
		c-0.015-1.479-0.686-2.302-1.649-2.831c0.276-0.363,1.134-0.146,1.23-0.689c-0.522,0.129-1.115,0.166-1.698,0.223
		c-0.535,0.05-1.195,0.104-1.552,0.368c-0.114,0.084-0.256,0.295-0.394,0.468c-1.938,2.43-3.217,5.758-4.112,9.062
		c0.1,0.048,0.159,0.103,0.204,0.158c0.231,0.293-0.193,0.687-0.401,1.022c-0.196,0.318-0.334,0.616-0.345,0.985
		c0.863-0.055,1.82-0.001,2.265,0.442c-1.091,0.279-2.419,0.321-3.692,0.418c0.001,0,0.002,0.001,0.003,0.001
		c-0.001,0-0.002,0-0.003,0C129.645,132.331,131.967,131.594,133.457,132.083z M134.921,120.333l-3.275,5.499
		C132.743,124.006,133.781,122.119,134.921,120.333z M135.426,120.708l-4.506,8.643C132.334,126.379,133.95,123.612,135.426,120.708
		z"/>
	<path d="M146.286,108.765c0.133-0.183,0.586-0.046,0.707-0.24c0.02-0.026,0.029-0.063,0.031-0.104
		C146.702,108.46,146.413,108.531,146.286,108.765z"/>
	<path d="M138.775,120.632c0.241,0.637-0.058,1.813,0.542,2.093C139.414,121.864,139.2,120.971,138.775,120.632z"/>
	<path d="M139.809,108.566L139.809,108.566c0.868-0.372,2.038,0.224,2.979,0.101c0.23-0.03,0.602-0.215,0.568-0.346
		c0-0.001,0-0.001,0-0.001C142.137,108.324,140.471,107.567,139.809,108.566z"/>
	<path d="M143.502,118.023c-0.776-0.587-1.647-1.227-2.756-1.306c-0.001,0-0.001,0-0.001,0c-1.232-0.089-1.775,0.652-2.192,1.428
		c1.444,0.224,2.457,0.876,3.473,1.527c0.557-0.332,1.038-0.733,1.848-0.813c0.021,0.487,0.067,0.948,0.196,1.329
		c0.106-0.011,0.207-0.03,0.306-0.052c0.36-0.075,0.687-0.187,1.082-0.226c0.054-0.003,0.104-0.016,0.162-0.018
		C145.079,119.292,144.319,118.638,143.502,118.023z"/>
	<path d="M144.981,118.023c-0.016-0.434,0.248-0.589,0.295-0.961c-0.611-0.423-0.932-1.074-1.33-1.797
		c-0.236-0.433-0.502-0.947-0.854-1.191c-0.051-0.035-0.104-0.065-0.156-0.089c-0.1-0.043-0.203-0.063-0.307-0.063
		c-0.313-0.001-0.624,0.166-0.829,0.356c0.098,0.584,0.137,1.228,0.123,1.922c1.157,0.47,1.874,1.378,3.054,1.821
		C144.979,118.022,144.979,118.023,144.981,118.023z"/>
	<path d="M139.55,113.026c-0.02,0.045-0.03,0.098-0.047,0.146c-0.023,0.064-0.05,0.128-0.065,0.198
		c-0.014,0.062-0.016,0.132-0.023,0.197c-0.008,0.064-0.021,0.126-0.023,0.195c0,0.001,0,0.001,0,0.001
		c0.486-0.768,1.304-1.206,1.771-1.995c-0.041-0.082-0.11-0.135-0.196-0.172C140.449,112.002,139.835,112.385,139.55,113.026z"/>
	<path d="M139.538,109.774c0.274-0.193,0.801-0.349,0.937-0.763c-0.006-0.02-0.001-0.049-0.024-0.05
		C140.189,109.26,139.538,109.296,139.538,109.774z"/>
	<path d="M138.356,112.286L138.356,112.286c0.383-0.964,1.423-1.401,1.921-2.166C139.495,110.683,138.424,111.09,138.356,112.286z"
		/>
	<path d="M128.457,189.5c-0.022,0.351,0.543,0.248,0.764,0.271C129.09,189.575,128.707,189.5,128.457,189.5z"/>
	<path d="M143.945,184.379c0.075-0.305-0.519-0.301-0.688-0.148C143.24,184.547,143.891,184.61,143.945,184.379z"/>
	<path d="M148.352,169.778c-0.451,0.035-1.199-0.351-1.305,0.197C147.42,170.07,148.254,170.227,148.352,169.778z"/>
	<path d="M148.008,188.807c-0.451-0.264-1.336-0.223-1.379-0.813c0.004-0.002,0.008,0,0.012,0c0.67-0.065,0.809,0.396,1.393,0.418
		c-0.07-0.354-0.352-0.502-0.418-0.861h-0.002c-0.023,0.025-0.063,0.052-0.111,0.074c-0.344,0.162-1.209,0.223-1.191-0.123
		c0.002-0.041,0.021-0.071,0.039-0.1c0.004-0.005,0.002-0.012,0.006-0.016c0.188-0.201,0.91,0.006,1.188-0.084c0,0,0,0,0-0.001
		c-0.094-1.572-0.146-3.438,0.492-4.435c-0.146-0.188-0.242-0.431-0.296-0.713c0.011-0.017,0.019-0.035,0.027-0.052
		c0.95-1.679,0.813-4.575,1.472-6.468c-0.225,0.128-0.609,0.197-0.885,0.197c-1.656,0-3.289-1.287-4.998-0.615c0,0,0,0,0,0.001
		c0.189,0.338,0.516,1.086,0.201,1.446c-0.045,0.051-0.104,0.095-0.178,0.127v0.002c0.158,0.656-0.273,1.692,0.271,2.066v-0.001
		c0.459-0.764,0.146-2.3,0.519-3.149c1.431,0.393,3.168,0.476,4.209,1.256c-0.869,0.508-2.308-0.021-3.349,0.156
		c-0.073,0.014-0.151,0.021-0.223,0.041c0.61,0.313,1.809,0.178,2.116,0.715c-0.067,0.015-0.142,0.025-0.213,0.039
		c-0.871,0.16-1.869,0.194-2.521,0.574c0,0.002,0,0.002,0,0.002c0.551,0.528,2.024,0.142,2.635,0.613
		c-0.803,0.298-1.819,0.379-2.881,0.419c-0.178,0.448-0.096,1.159,0.123,1.502c1.326,0.011,2.593-0.396,3.892-0.173
		c-0.008,0.111-0.033,0.204-0.067,0.288c-0.07,0.168-0.179,0.299-0.25,0.464c-0.037,0.083-0.063,0.175-0.076,0.282
		c-0.795-0.691-2.422-0.272-3.496-0.124c0,0,0,0,0,0.001c-0.037,0.866,0.685,0.973,1.134,1.354
		c-0.132,0.412-0.826,0.387-0.787,0.885v0.002c0.832-0.232,2.104-0.172,2.928,0.024c-0.021,0.24,0.06,0.522-0.004,0.689
		c-0.021,0.055-0.058,0.098-0.116,0.12c-0.505,0.193-0.591-0.688-1.084-0.592c0,0.002,0,0.002,0,0.002
		c-0.043,0.076,0,0.121,0.043,0.177c0.016,0.02,0.03,0.041,0.043,0.063c0.002,0.004,0.004,0.008,0.006,0.014
		c0.013,0.029,0.017,0.066,0.008,0.109c-0.002,0.002,0,0.004-0.002,0.004c-0.006,0-0.014,0-0.021,0
		c-0.832,0.023-1.793,0-2.243,0.469c0.002,0.045,0.002,0.093,0.002,0.14c0,0.053-0.002,0.104-0.005,0.158
		c-0.006,0.284,0,0.561,0.271,0.565c0-0.002,0-0.002,0-0.002s0,0,0.004,0c-0.021-0.312-0.033-0.668,0.104-0.843
		c0.025-0.032,0.057-0.058,0.094-0.075c0.002-0.002,0.004-0.004,0.006-0.006c0.08-0.037,0.189-0.037,0.336,0.014
		c-0.051,0.444-0.211,0.9-0.123,1.402c0.885-0.412,1.74-0.854,2.586-1.305c0,0.386,0,0.771,0,1.156
		c-0.674,0.237-1.66,0.533-2.338,0.91c-0.219,0.12-0.586,0.271-0.641,0.469c-0.014,0.052-0.02,0.103-0.021,0.151
		c-0.004,0.349,0.295,0.661,0.465,0.884c0.125-0.03,0.264-0.093,0.404-0.16c0.24-0.114,0.496-0.252,0.744-0.303
		c0.238-0.048,0.467-0.017,0.674,0.19c-0.084,0.108-0.197,0.198-0.322,0.28c-0.217,0.14-0.48,0.254-0.785,0.384
		c-0.32,0.139-0.82,0.319-1.002,0.593c-0.025,0.039-0.047,0.079-0.059,0.121c-0.125,0.463,0.082,1.129,0.346,1.404
		c0.113,0.115,0.295,0.187,0.441,0.271c0,0,0,0,0.002,0C146.045,190.536,146.489,189.135,148.008,188.807z M148.157,176.575
		c-0.039-0.228,0.059-0.315,0.188-0.373c0.04-0.02,0.085-0.035,0.13-0.051c0.039-0.014,0.078-0.027,0.113-0.044l0.184-0.198
		c0.031,0.01,0.037,0.045,0.072,0.051c0.098,0.332-0.121,0.642-0.398,0.679C148.352,176.65,148.252,176.631,148.157,176.575z
		 M147.913,180.579c-0.313-0.013-0.447-0.326-0.789-0.336c0.281-0.447,0.49-0.971,0.615-1.574c-0.07-0.075-0.164-0.065-0.262-0.037
		c-0.098,0.029-0.201,0.076-0.291,0.076c-0.063-0.002-0.117-0.022-0.162-0.09c0.338-0.498,0.664-1.01,1.328-1.182
		c0.086,0.7-0.055,1.248-0.172,1.823l-0.123,1.304C148.004,180.577,147.958,180.581,147.913,180.579z M147.098,183.616
		c-0.061-0.01-0.117-0.086-0.174-0.162c-0.049-0.064-0.098-0.133-0.146-0.158c-0.43-0.228-1.156,0.004-1.602-0.271
		c0.215-0.919,1.824-0.44,2.34-1.06c0.029-0.004,0.043,0.006,0.049,0.025c0.084,0.348,0.059,1.131-0.17,1.467
		C147.321,183.57,147.221,183.634,147.098,183.616z M145.176,185.488c0.123-0.563,0.775-0.819,1.453-0.665
		C146.393,185.292,145.872,185.476,145.176,185.488z"/>
	<path d="M151.161,190.459c-1.188-0.172-2.063-0.66-2.906-1.181c-0.621,0.355-1.397,0.556-1.821,1.107
		c0.217,0.866-0.504,1.003-0.615,1.625C147.684,191.581,149.092,190.692,151.161,190.459z"/>
	<path d="M149.29,163.229c0.045-0.059,0.152-0.129,0.123-0.223c-2.223-0.11-3.686,0.746-3.891,2.733
		C147.243,165.443,148.399,164.344,149.29,163.229z"/>
	<path d="M143.084,185.956c0.131,0.207,0.252,0.445,0.541,0.416c0.002-0.17,0.098-0.246,0.123-0.393
		c-0.115-0.273-0.521-0.23-0.52-0.518c0.004-0.215,0.27-0.229,0.271-0.492c-0.043-0.047-0.071-0.109-0.172-0.1
		c-0.082,0.271-0.445,0.504-0.394,0.84C142.942,185.747,143.038,185.881,143.084,185.956z"/>
	<path d="M147.911,167.39c0.48-0.129,1.123-0.224,1.729-0.194c0.2,0.01,0.397,0.032,0.586,0.071c0.104-0.29,0.396-0.983,0-1.183
		C149.665,166.713,148.202,166.577,147.911,167.39z"/>
	<path d="M144.118,186.447c-0.371,0.507-1.277,0.479-1.477,1.158C143.383,187.485,143.913,187.022,144.118,186.447z"/>
	<path d="M143.231,189.329c0.285-0.303,0.363-1.383-0.072-1.574C142.764,187.911,142.663,189.204,143.231,189.329z"/>
	<path d="M151.579,152.372c0.299-0.236,0.598-0.484,0.834-0.772c0.043-0.056,0.088-0.104,0.127-0.162
		c-0.039-0.413-0.138-0.769-0.248-1.106c-0.34,0.192-0.615,0.514-0.886,0.813c-0.834,0.926-1.596,1.941-2.952,2.313
		c1.147-1.168,2.985-2.226,3.618-4.063c0.117-0.343,0.197-0.706,0.222-1.105c0.049-0.865-0.188-1.424-0.418-2.043
		c-0.002-0.017-0.006-0.029-0.026-0.023c-1.279,1.543-2.234,3.41-3.89,4.578v0.002c-0.021,0.375-0.164,0.625-0.254,0.932
		c-0.015,0.051-0.031,0.098-0.041,0.15c1.146-0.387,1.955-1.112,3.075-1.525c-1.024,1.585-3.534,1.867-3.766,4.16c0,0,0,0,0,0.001
		c0.133,0.192,0.59,0.063,0.688,0.295c-0.469,0.147-0.779,0.451-0.996,0.849c-0.1,0.181-0.18,0.377-0.24,0.588v2.305
		c0.922-0.682,1.791-1.48,2.861-1.917c-0.449,0.789-1.223,1.254-1.896,1.819c-0.344,0.289-0.701,0.599-0.969,0.992v0.451h-0.236
		c-0.092,0.229-0.148,0.482-0.164,0.773c-0.002,0.041-0.01,0.078-0.01,0.121c1.344-0.989,3.346-2,5.734-1.502
		c0.41-1.567,0.732-3.487,0.566-5.467c-0.309-0.072-0.717,0.373-0.984,0.049c0.041-0.074,0.086-0.145,0.137-0.207
		c0.005-0.002,0.005-0.004,0.007-0.006c0.258-0.332,0.629-0.552,0.864-0.904c0.045-0.068,0.084-0.143,0.117-0.221
		c0.002-0.006,0.004-0.008,0.006-0.012c0.033-0.084,0.062-0.176,0.078-0.275c-1.713,0.567-2.404,2.158-4.086,2.758
		C149.325,153.98,150.534,153.204,151.579,152.372z"/>
	<path d="M165.293,115.733c-0.123,0.026-0.281,0.159-0.443,0.323c-0.164,0.164-0.33,0.36-0.469,0.514
		c-0.289,0.322-0.574,0.651-0.861,0.979c-0.402,0.46-0.801,0.924-1.197,1.393c-1.088,1.288-2.15,2.597-3.162,3.885
		c-0.723,0.922-1.443,1.837-2.162,2.745c-0.332,0.421-0.664,0.836-0.996,1.253h0.5c2.615-3.311,5.266-6.618,8.029-9.786
		c0.129-0.149,0.26-0.339,0.402-0.5c0.014-0.018,0.029-0.029,0.043-0.045c0.033-0.036,0.066-0.072,0.102-0.104
		c0.201-0.178,0.428-0.263,0.707-0.088c0-0.001-0.002-0.001-0.002-0.002c0.002,0,0.002,0,0.002,0.001
		C165.741,115.992,165.514,115.866,165.293,115.733z"/>
	<path d="M130.181,182.361c0.088-0.092,0.243-0.116,0.32-0.222c-0.247-0.029-0.726,0.082-1.108,0.074
		c0.036,0.104,0.091,0.203,0.161,0.301c0.492,0.678,1.76,1.145,2.622,0.683c0.031-0.017,0.068-0.038,0.105-0.063
		c0.111-0.075,0.226-0.177,0.19-0.232C131.575,182.855,130.447,183.04,130.181,182.361z"/>
	<path d="M150.741,178.372c0.277,0.021,0.363-0.146,0.617-0.146c0.316-0.932,0.332-2.293,0.271-3.521
		C151.348,175.924,150.616,176.827,150.741,178.372z"/>
	<path d="M151.776,187.605c0.939-0.349,1.896-0.68,2.709-1.157v-0.001c-0.326-0.907-0.42-2.063-0.641-3.2
		c-0.162-0.836-0.438-1.928-0.932-2.498c-0.07-0.082-0.146-0.15-0.229-0.211c-0.123,0.059-0.203,0.158-0.418,0.123
		c-0.086,0.375-0.189,0.781-0.303,1.209C151.499,183.709,150.967,185.937,151.776,187.605z"/>
	<path d="M155.838,192.653c-0.158-1.386-0.529-2.557-0.938-3.693c-0.996,0.285-1.932,0.629-2.609,1.23
		C153.397,191.088,155.194,191.293,155.838,192.653z"/>
	<path d="M156.059,193.588c-0.275,0.259-0.725,0.342-0.811,0.787c0.34,0.188,0.78-0.037,1.106-0.1
		C156.387,193.917,156.321,193.655,156.059,193.588z"/>
	<path d="M149.417,191.595c-0.104,0.069-0.205,0.151-0.301,0.243c1.266,0.901,4.014,1.187,5.861,0.617
		C153.747,191.631,150.995,190.52,149.417,191.595z"/>
	<path d="M159.458,166.036c0.621-0.047,1.359,0.049,1.619-0.357c0.037-0.059,0.064-0.126,0.08-0.207
		c-0.377-0.031-0.748-0.049-1.109-0.047c-2.525,0.011-4.605,0.836-5.488,2.582c0.197,0.119,0.3,0.34,0.566,0.394
		C155.961,167.259,157.631,166.174,159.458,166.036z"/>
	<path d="M152.194,168.768c0.232,1.164,0.646,2.146,1.158,3.029C153.159,170.595,153.147,169.209,152.194,168.768z"/>
	<path d="M145.25,170.493c0.998,0.139,2.379,0.668,3.275,0.098C147.454,170.573,146.274,170.243,145.25,170.493z"/>
	<path d="M150.989,138.386c-0.164-0.028-0.238,0.07-0.25,0.202c-0.016,0.218,0.148,0.526,0.396,0.486
		C151.315,138.871,151.202,138.423,150.989,138.386z"/>
	<path d="M148.549,145.943c-0.305,1.249-0.605,2.897-0.689,4.187h0.002c0.822-0.493,1.557-1.238,2.215-2.066
		c0.76-0.956,1.631-2.27,1.281-3.893c-0.721,0.789-1,2.15-1.773,2.809c0.291-1.449,1.213-2.396,1.502-3.77
		c-1.17,0.727-1.279,2.51-2.115,3.567c-0.01-1.847,1.072-2.601,1.23-4.28c-0.002,0-0.002,0-0.002,0
		c-1.197,0.039-1.111,1.146-1.307,2.166C148.819,145.058,148.659,145.491,148.549,145.943z"/>
	<path d="M139.785,185.857c0.156-0.09,0.392-0.101,0.638-0.101c0.082,0,0.166,0.002,0.247,0.002c0.001,0,0.001,0,0.001,0
		c0.387-1.023,1.018-2.146,0.813-3.521c-0.001,0-0.001,0.001-0.001,0.001v-0.001C140.463,182.875,140.122,184.536,139.785,185.857z"
		/>
	<path d="M144.06,159.895h-0.664c-1.774,4.729-3.888,9.313-5.828,13.896c-0.139,0.324-0.401,0.814-0.395,1.059
		c0,0.001,0,0.001,0,0.001c0.007,0.239,0.253,0.481,0.247,0.737c-0.008,0.248-0.247,0.641-0.37,0.937
		c-0.915,2.2-1.773,4.517-2.61,6.647c2.707-0.534,5.385-1.102,7.657-2.067c0.221-2.269-0.53-4.62,0.297-6.328
		c0.175-0.36,0.556-0.651,0.69-0.985c0.131-0.326,0.16-0.729,0.164-1.153c0.004-0.284-0.006-0.579-0.002-0.87
		c0.002-0.438,0.029-0.859,0.156-1.227c0.086-0.248,0.408-0.572,0.443-0.737c0.031-0.163-0.033-0.425-0.051-0.646
		c0-0.007,0-0.015-0.002-0.021c-0.02-0.445-0.023-0.894-0.021-1.343c0.022-2.239,0.313-4.506,0.315-6.711
		C144.092,160.687,144.081,160.29,144.06,159.895z"/>
	<path d="M149.61,171.896c-0.063,0.521,0.01,1.187-0.443,1.281c-0.221,0.045-0.664-0.267-0.666,0.098
		c0.119,0.118,0.498-0.021,0.592,0.123c0.012,0.06,0.02,0.112,0.021,0.167c0.002,0.057-0.002,0.112-0.021,0.178
		c-0.104,0.063-0.283,0.045-0.395,0.101c0.021,0.062,0.033,0.13,0.039,0.2s0.006,0.146,0.004,0.224
		c-0.006,0.151-0.023,0.312-0.025,0.455c-0.006,0.289,0.043,0.526,0.354,0.573C148.592,173.884,150.266,173.059,149.61,171.896z"/>
	<path d="M150.741,167.463c-0.076,1.027-0.645,1.68-0.516,2.832c-0.27,0.102-0.504,0.234-0.912,0.197
		c0.076,0.543-0.35,0.584-0.59,0.813c1.248,0.357,1.98-0.749,1.674-1.945c0.268-0.359,0.635-1.101,0.455-1.666
		C150.827,167.614,150.792,167.538,150.741,167.463z"/>
	<path d="M147.293,173.202c0.021,0.146,0.359,0.18,0.543,0.245C147.821,173.213,147.53,173.133,147.293,173.202z"/>
	<path d="M147.762,174.358c0.246-0.327-0.068-0.745-0.518-0.591C147.192,174.189,147.409,174.343,147.762,174.358z"/>
	<path d="M144.39,173.274c-0.228,0.273-0.425,0.579-0.418,1.084c0.257-0.025,0.528-0.035,0.808-0.04
		c0.836-0.013,1.723,0.022,2.393-0.155c-0.002,0-0.002,0-0.002-0.002c0,0,0,0,0.002,0
		C146.15,173.959,145.579,173.307,144.39,173.274z"/>
	<path d="M150.077,141.339c-0.604-0.327-0.893,0.366-0.961,0.887C149.604,142.096,149.917,141.793,150.077,141.339z"/>
</g>
</svg>
