<?xml version="1.0" encoding="utf-8"?>
<!-- Generator: Adobe Illustrator 15.1.0, SVG Export Plug-In . SVG Version: 6.00 Build 0)  -->
<!DOCTYPE svg PUBLIC "-//W3C//DTD SVG 1.0//EN" "http://www.w3.org/TR/2001/REC-SVG-20010904/DTD/svg10.dtd">
<svg version="1.0" id="Layer_2" xmlns="http://www.w3.org/2000/svg" xmlns:xlink="http://www.w3.org/1999/xlink" x="0px" y="0px"
	 width="283.46px" height="283.46px" viewBox="0 0 283.46 283.46" enable-background="new 0 0 283.46 283.46" xml:space="preserve">
<path d="M259.521,148.515c0.072-0.142,0.146-0.283,0.213-0.427c0.05-0.106,0.1-0.212,0.146-0.319
	c0.085-0.192,0.161-0.389,0.237-0.584c0.064-0.166,0.131-0.33,0.189-0.497c0.03-0.087,0.06-0.174,0.088-0.262
	c0.065-0.199,0.124-0.401,0.182-0.604c0.052-0.184,0.105-0.367,0.15-0.552c0.021-0.087,0.039-0.175,0.059-0.262
	c0.043-0.194,0.08-0.39,0.116-0.587c0.034-0.19,0.072-0.379,0.1-0.569c0.016-0.11,0.024-0.221,0.037-0.331
	c0.021-0.182,0.039-0.362,0.055-0.545c0.015-0.18,0.034-0.359,0.042-0.539c0.008-0.149,0.005-0.298,0.008-0.448
	c0.001-0.087,0.013-0.172,0.013-0.259s-0.012-0.172-0.013-0.259c-0.003-0.149,0-0.299-0.008-0.448
	c-0.008-0.18-0.027-0.359-0.042-0.539c-0.016-0.183-0.032-0.364-0.055-0.545c-0.013-0.11-0.021-0.221-0.037-0.332
	c-0.027-0.19-0.065-0.379-0.1-0.569c-0.036-0.197-0.073-0.392-0.116-0.586c-0.02-0.088-0.037-0.176-0.059-0.263
	c-0.045-0.185-0.099-0.368-0.151-0.552c-0.057-0.202-0.114-0.403-0.18-0.602c-0.029-0.088-0.059-0.176-0.089-0.263
	c-0.059-0.167-0.125-0.332-0.19-0.498c-0.076-0.195-0.15-0.39-0.235-0.58c-0.047-0.109-0.098-0.215-0.147-0.323
	c-0.068-0.144-0.142-0.286-0.214-0.429c-0.089-0.174-0.175-0.349-0.271-0.52c-0.075-0.136-0.157-0.27-0.237-0.404
	c-0.034-0.056-0.06-0.115-0.094-0.17c-0.046-0.075-0.101-0.141-0.147-0.214c-0.09-0.14-0.177-0.281-0.271-0.417
	c-0.103-0.15-0.212-0.295-0.32-0.442c-0.099-0.132-0.199-0.262-0.302-0.391c-0.083-0.104-0.164-0.208-0.25-0.31
	c-0.12-0.142-0.244-0.281-0.37-0.419c-0.124-0.137-0.249-0.271-0.377-0.403c-0.084-0.085-0.168-0.169-0.254-0.252
	c-0.125-0.123-0.253-0.242-0.384-0.361c-0.145-0.131-0.289-0.262-0.438-0.387c-0.101-0.085-0.205-0.166-0.309-0.249
	c-0.123-0.098-0.247-0.194-0.373-0.289c-0.152-0.114-0.305-0.228-0.461-0.335c-0.136-0.093-0.276-0.18-0.415-0.269
	c-0.072-0.046-0.137-0.1-0.21-0.145l-82.294-50.82c-7.053-4.353-16.292-2.166-20.645,4.881c-4.353,7.049-2.167,16.291,4.882,20.644
	l37.338,23.057H37.304c-8.284,0-15,6.716-15,15c0,8.285,6.716,15,15,15h156.013l-37.336,23.057
	c-7.049,4.353-9.234,13.596-4.882,20.644c2.836,4.594,7.748,7.121,12.777,7.121c2.688,0,5.411-0.723,7.867-2.239l82.294-50.82
	c0,0,0.001,0,0.001-0.001c0.137-0.084,0.271-0.173,0.406-0.263c0.064-0.043,0.129-0.086,0.192-0.13
	c0.205-0.141,0.405-0.285,0.604-0.436c0.043-0.033,0.085-0.066,0.128-0.1c0.462-0.359,0.904-0.747,1.326-1.164
	c0.046-0.046,0.092-0.092,0.137-0.138c0.177-0.179,0.349-0.362,0.517-0.552c0.081-0.091,0.162-0.182,0.24-0.274
	c0.045-0.054,0.093-0.104,0.138-0.157c0.002-0.003,0.005-0.006,0.007-0.009c0.202-0.245,0.396-0.499,0.584-0.76
	c0.063-0.087,0.121-0.176,0.182-0.264c0.074-0.107,0.146-0.218,0.218-0.328c0.066-0.104,0.138-0.201,0.203-0.307
	c0.035-0.057,0.061-0.115,0.095-0.172c0.079-0.133,0.16-0.265,0.235-0.399C259.345,148.868,259.433,148.691,259.521,148.515z"/>
</svg>
