<?xml version="1.0" encoding="utf-8"?>
<!-- Generator: Adobe Illustrator 15.1.0, SVG Export Plug-In . SVG Version: 6.00 Build 0)  -->
<!DOCTYPE svg PUBLIC "-//W3C//DTD SVG 1.1//EN" "http://www.w3.org/Graphics/SVG/1.1/DTD/svg11.dtd">
<svg version="1.1" id="Layer_3" xmlns="http://www.w3.org/2000/svg" xmlns:xlink="http://www.w3.org/1999/xlink" x="0px" y="0px"
	 width="283.46px" height="283.46px" viewBox="0 0 283.46 283.46" enable-background="new 0 0 283.46 283.46" xml:space="preserve">
<g>
	<path fill="none" d="M26.458,111.777h78.215c3.513,0,6.371-1.504,6.371-3.352V69.163c0-1.849-2.857-3.352-6.371-3.352H26.458
		c-3.513,0-6.371,1.503-6.371,3.352v39.263C20.086,110.273,22.945,111.777,26.458,111.777z M23.667,67.801
		c0-0.35,0.529-0.634,1.18-0.634h81.307c0.65,0,1.18,0.285,1.18,0.634v41.731c0,0.35-0.53,0.634-1.178,0.634H24.847
		c-0.65,0-1.18-0.284-1.18-0.634V67.801z"/>
	<path fill="none" d="M262.363,159.764h-26.506c-1.189,0-2.158,1.61-2.158,3.591v42.067c0,1.98,0.969,3.591,2.158,3.591h26.506
		c1.189,0,2.158-1.61,2.158-3.591v-42.067C264.521,161.374,263.553,159.764,262.363,159.764z M263.084,206.422
		c0,0.365-0.179,0.662-0.396,0.662h-27.292c-0.218,0-0.395-0.297-0.395-0.662v-43.511c0-0.364,0.177-0.661,0.395-0.661h27.292
		c0.218,0,0.396,0.297,0.396,0.661V206.422z"/>
	<path fill="none" d="M158.033,124.866h39.107c1.756,0,3.186-1.952,3.186-4.353v-50.99c0-2.4-1.43-4.353-3.186-4.353h-39.107
		c-1.756,0-3.186,1.952-3.186,4.353v50.99C154.848,122.914,156.277,124.866,158.033,124.866z M156.333,68.241
		c0-0.454,0.269-0.824,0.602-0.824h41.462c0.333,0,0.604,0.37,0.604,0.824v54.186c0,0.454-0.271,0.824-0.602,0.824h-41.464
		c-0.333,0-0.602-0.37-0.602-0.824V68.241z"/>
	<path fill="#010101" d="M274.703,90.232l-32.482-32.483c-1.078-1.073-2.535-1.678-4.055-1.678h-58.867h-35.711v171.317h41.342
		v-0.001h85.721c3.164,0,5.725-2.563,5.725-5.726V94.28C276.375,92.762,275.771,91.306,274.703,90.232z M211.637,65.812h20.65
		c0.777,0,1.412,1.667,1.412,3.717c0,2.047-0.635,3.715-1.412,3.715h-20.65c-0.779,0-1.412-1.668-1.412-3.715
		C210.225,67.478,210.857,65.812,211.637,65.812z M211.408,92.217h20.863c0.787,0,1.428,1.667,1.428,3.715
		c0,2.049-0.641,3.716-1.428,3.716h-20.863c-0.787,0-1.426-1.667-1.426-3.716S210.621,92.217,211.408,92.217z M154.848,69.523
		c0-2.4,1.43-4.353,3.186-4.353h39.107c1.756,0,3.186,1.952,3.186,4.353v50.99c0,2.4-1.43,4.353-3.186,4.353h-39.107
		c-1.756,0-3.186-1.952-3.186-4.353V69.523z M217.893,209.013h-59.51c-1.953,0-3.535-1.663-3.535-3.711
		c0-2.052,1.584-3.715,3.535-3.715h59.51c1.951,0,3.533,1.665,3.531,3.715C221.424,207.351,219.842,209.013,217.893,209.013z
		 M217.893,181.889h-59.51c-1.953,0-3.535-1.664-3.535-3.713c0-2.05,1.584-3.715,3.535-3.715h59.51c1.951,0,3.533,1.665,3.531,3.715
		C221.424,180.225,219.842,181.889,217.893,181.889z M217.893,154.632h-59.512c-1.951,0-3.533-1.663-3.533-3.712
		c0-2.05,1.582-3.717,3.533-3.716h59.512c1.951,0,3.531,1.665,3.531,3.716C221.424,152.97,219.842,154.632,217.893,154.632z
		 M264.521,205.422c0,1.98-0.969,3.591-2.158,3.591h-26.506c-1.189,0-2.158-1.61-2.158-3.591v-42.067
		c0-1.98,0.969-3.591,2.158-3.591h26.506c1.189,0,2.158,1.61,2.158,3.591V205.422z M263.768,125.248h-50.57
		c-1.908,0-3.459-1.666-3.459-3.715s1.551-3.715,3.459-3.715h50.57c1.906,0,3.463,1.667,3.463,3.715
		C267.23,123.582,265.674,125.248,263.768,125.248z M241.83,93.369l-0.047-27.509l28.818,27.509H241.83z"/>
	<path fill="#010101" d="M103.521,56.071h-4.11H45.294H12.812c-3.164,0-5.727,2.566-5.727,5.729v32.479v127.383
		c0,0.197,0.01,0.393,0.03,0.585c0.293,2.888,2.73,5.142,5.696,5.142h0.001h70.33h56.731V56.071h-3.869H103.521z M20.086,69.163
		c0-1.849,2.858-3.352,6.371-3.352h78.215c3.514,0,6.371,1.503,6.371,3.352v39.263c0,1.848-2.858,3.352-6.371,3.352H26.458
		c-3.513,0-6.371-1.504-6.371-3.352V69.163z M119.816,209.013h-94.14c-3.086,0-5.59-1.663-5.59-3.711
		c0-2.052,2.504-3.715,5.59-3.715h94.14c3.085,0,5.589,1.665,5.587,3.715C125.403,207.351,122.9,209.013,119.816,209.013z
		 M119.816,181.889h-94.14c-3.086,0-5.59-1.664-5.59-3.713c0-2.05,2.504-3.715,5.59-3.715h94.14c3.085,0,5.589,1.665,5.587,3.715
		C125.403,180.225,122.9,181.889,119.816,181.889z M119.816,154.632H25.677c-3.087,0-5.59-1.663-5.59-3.712
		c0-2.05,2.504-3.717,5.59-3.716h94.14c3.085,0,5.587,1.665,5.587,3.716C125.403,152.97,122.9,154.632,119.816,154.632z
		 M119.063,130.945H26.423c-3.498,0-6.338-1.667-6.337-3.716c0-2.049,2.839-3.716,6.334-3.716h92.642
		c3.49,0,6.341,1.668,6.341,3.716C125.403,129.278,122.552,130.945,119.063,130.945z"/>
	<ellipse fill="#010101" cx="40.569" cy="76.934" rx="11.16" ry="5.872"/>
	<polygon fill="#010101" points="69.797,107.791 102.172,107.791 102.172,99.379 102.172,99.378 81.033,82.941 64.33,95.932 
		55.054,87.979 47.209,94.704 45.266,93.578 45.266,93.578 36.363,98.736 28.959,103.025 28.959,103.026 28.959,107.791 
		49.082,107.791 	"/>
	<ellipse fill="#010101" cx="165.089" cy="79.615" rx="5.579" ry="7.626"/>
	<polygon fill="#010101" points="179.703,119.688 195.891,119.688 195.891,108.765 195.891,108.764 185.32,87.417 176.969,104.288 
		172.33,93.961 168.408,102.692 167.438,101.23 167.438,101.231 162.986,107.93 159.283,113.501 159.283,119.688 169.346,119.688 	
		"/>
	<ellipse fill="#010101" cx="240.641" cy="171.681" rx="3.781" ry="6.291"/>
	<polygon fill="#010101" points="248.691,192.036 245.549,183.517 242.891,190.72 242.232,189.514 242.232,189.515 239.215,195.041 
		236.705,199.637 236.705,204.741 243.525,204.741 250.545,204.741 261.516,204.741 261.516,195.729 254.352,178.117 	"/>
</g>
</svg>
