<?xml version="1.0" encoding="utf-8"?>
<!-- Generator: Adobe Illustrator 15.1.0, SVG Export Plug-In . SVG Version: 6.00 Build 0)  -->
<!DOCTYPE svg PUBLIC "-//W3C//DTD SVG 1.1//EN" "http://www.w3.org/Graphics/SVG/1.1/DTD/svg11.dtd">
<svg version="1.1" id="Layer_4_2_" xmlns="http://www.w3.org/2000/svg" xmlns:xlink="http://www.w3.org/1999/xlink" x="0px" y="0px"
	 width="283.46px" height="283.46px" viewBox="0 0 283.46 283.46" enable-background="new 0 0 283.46 283.46" xml:space="preserve">
<g>
	<path fill="#010101" d="M249.67,7.085h-51.06h-0.684h-21.549h-6.459h-56.375h-6.461H85.537h-0.683H33.795
		c-4.976,0-9.002,4.034-9.002,9.005v51.053v200.23c0,0.311,0.016,0.619,0.047,0.92c0.461,4.539,4.291,8.082,8.953,8.082h0.002
		h51.738h53.582h5.229h53.581h51.74h0.002c4.662,0,8.492-3.543,8.953-8.082c0.03-0.301,0.047-0.609,0.047-0.92V67.143V16.09
		C258.67,11.121,254.642,7.085,249.67,7.085z M63.409,41.446c0-7.828,6.346-14.173,14.173-14.173h123.653
		c7.828,0,14.174,6.346,14.174,14.173v43.653c0,7.828-6.346,14.173-14.174,14.173H77.583c-7.828,0-14.173-6.346-14.173-14.173
		V41.446z M53.902,116.686h175c3.867,0,7,3.134,7,7c0,3.866-3.133,7-7,7h-175c-3.866,0-7-3.134-7-7
		C46.902,119.82,50.036,116.686,53.902,116.686z M53.902,153.923h175c3.867,0,7,3.135,7,7c0,3.867-3.133,7-7,7h-175
		c-3.866,0-7-3.133-7-7C46.902,157.058,50.036,153.923,53.902,153.923z M150.082,253.406H106.73H63.409h-9.507c-3.866,0-7-3.135-7-7
		c0-3.867,3.134-7,7-7h9.507h43.321h43.352c3.867,0,7,3.133,7,7C157.082,250.271,153.949,253.406,150.082,253.406z M150.41,209.605
		h-43.68H63.081h-8.523c-3.866,0-7-3.134-7-7c0-3.865,3.134-7,7-7h8.523h43.649h43.68c3.865,0,7,3.135,7,7
		C157.41,206.471,154.275,209.605,150.41,209.605z M235.903,251.684c0,4.696-3.808,8.504-8.505,8.504h-41.762
		c-4.697,0-8.504-3.808-8.504-8.504v-55.638c0-4.696,3.807-8.504,8.504-8.504h41.762c4.697,0,8.505,3.808,8.505,8.504V251.684z"/>
	<path fill="#010101" d="M89.832,66.641c9.333,0,16.898-7.569,16.898-16.9c0-9.334-7.569-16.902-16.898-16.902
		c-9.339,0-16.905,7.567-16.905,16.902C72.926,59.072,80.492,66.641,89.832,66.641z"/>
	<polygon fill="#010101" points="97.093,80.481 97.093,80.484 86.822,95.941 195.983,95.941 163.085,29.506 132.267,91.767 
		115.146,53.654 100.671,85.875 	"/>
	<circle fill="#010101" cx="202.076" cy="209.605" r="6.092"/>
	<polygon fill="#010101" points="202.371,252.591 194.598,235.289 188.027,249.917 186.402,247.466 186.402,247.469 181.74,254.486 
		231.296,254.486 216.362,224.326 	"/>
</g>
</svg>
