<?xml version="1.0" encoding="utf-8"?>
<!-- Generator: Adobe Illustrator 15.1.0, SVG Export Plug-In . SVG Version: 6.00 Build 0)  -->
<!DOCTYPE svg PUBLIC "-//W3C//DTD SVG 1.1//EN" "http://www.w3.org/Graphics/SVG/1.1/DTD/svg11.dtd">
<svg version="1.1" xmlns="http://www.w3.org/2000/svg" xmlns:xlink="http://www.w3.org/1999/xlink" x="0px" y="0px"
	 width="283.465px" height="283.465px" viewBox="1108.268 1108.267 283.465 283.465"
	 enable-background="new 1108.268 1108.267 283.465 283.465" xml:space="preserve">
<g id="Layer_2">
</g>
<g id="Layer_1">
	<g>
		<path d="M1374.063,1197.588c-3.375-7.979-7.552-15.675-12.415-22.873c-4.815-7.129-10.347-13.832-16.438-19.924
			c-6.092-6.092-12.795-11.623-19.924-16.438c-7.198-4.863-14.895-9.041-22.874-12.416c-16.603-7.022-34.236-10.583-52.411-10.583
			c-18.175,0-35.809,3.561-52.412,10.583c-7.979,3.375-15.675,7.552-22.873,12.416c-7.129,4.816-13.833,10.347-19.924,16.438
			c-6.092,6.092-11.623,12.795-16.438,19.924c-4.863,7.198-9.041,14.894-12.416,22.873c-7.022,16.603-10.583,34.236-10.583,52.412
			c0,18.175,3.561,35.809,10.583,52.411c3.375,7.979,7.552,15.676,12.416,22.874c4.816,7.129,10.347,13.832,16.438,19.924
			s12.795,11.623,19.924,16.438c7.198,4.863,14.894,9.04,22.873,12.415c16.603,7.022,34.236,10.583,52.412,10.583
			c18.175,0,35.809-3.561,52.411-10.583c7.979-3.375,15.676-7.552,22.874-12.415c7.129-4.815,13.832-10.347,19.924-16.438
			s11.623-12.795,16.438-19.924c4.863-7.198,9.04-14.895,12.415-22.874c7.022-16.603,10.583-34.236,10.583-52.411
			C1384.646,1231.824,1381.085,1214.191,1374.063,1197.588z M1320.56,1284.203c0,7.067-5.729,12.796-12.796,12.796
			c-7.066,0-12.796-5.729-12.796-12.796c0-4.221,2.045-7.965,5.197-10.295c-8.476,1.177-18.304,1.927-29.591,1.927l73.512-16.269
			c0,0-9.739,7.571-32.626,12.384C1316.725,1273.536,1320.56,1278.422,1320.56,1284.203z M1155.532,1259.566l73.512,16.269
			c-11.136,0-20.851-0.729-29.249-1.88c3.116,2.334,5.132,6.056,5.132,10.248c0,7.067-5.729,12.796-12.796,12.796
			s-12.796-5.729-12.796-12.796c0-5.739,3.779-10.597,8.985-12.219C1165.318,1267.174,1155.532,1259.566,1155.532,1259.566z
			 M1208.47,1330.109c0-6.39,19.081-9.48,41.93-9.48s40.853,3.073,40.853,9.48c0,7.239-18.525,7.518-41.391,7.518
			S1208.47,1337.332,1208.47,1330.109z"/>
	</g>
</g>
</svg>
