<?xml version="1.0" encoding="utf-8"?>
<!-- Generator: Adobe Illustrator 15.1.0, SVG Export Plug-In . SVG Version: 6.00 Build 0)  -->
<!DOCTYPE svg PUBLIC "-//W3C//DTD SVG 1.1//EN" "http://www.w3.org/Graphics/SVG/1.1/DTD/svg11.dtd">
<svg version="1.1" id="Layer_6" xmlns="http://www.w3.org/2000/svg" xmlns:xlink="http://www.w3.org/1999/xlink" x="0px" y="0px"
	 width="283.465px" height="283.465px" viewBox="0 0 283.465 283.465" enable-background="new 0 0 283.465 283.465"
	 xml:space="preserve">
<g>
	<path fill="none" d="M126.594,54.151c5.734-8.954-0.619-32.221-3.063-40.224c-0.513-1.676-0.853-2.685-0.874-2.744
		C58.838,20.398,9.796,75.292,9.796,141.667c0,16.151,2.918,31.619,8.233,45.925c0.69,0.087,1.379,0.17,2.063,0.244
		c7.769,0.827,15.309,0.696,21.234-1.293c20.93-7.025,19.385-12.991,21.702-16.811c2.317-3.813,0.773-23.865,0.773-23.865
		c-0.256-0.436-0.493-0.878-0.744-1.318c-0.015-0.188-0.024-0.315-0.029-0.371c-0.008-0.097-0.036-0.188-0.084-0.274
		c-4.953-8.583-9.479-17.529-13.486-26.599c-2.3-8.609,1.689-22.568,12.02-32.827c10.86-10.792,17.062-0.061,32.708-1.964
		C109.831,80.62,119.617,65.046,126.594,54.151z M71.264,48.186c0.056-3.025,2.269-6.071,6.546-9.039
		c4.172-3.169,9.352-4.92,14.589-4.92c1.626,0,3.259,0.166,4.851,0.493c0.348-0.027,0.695-0.04,1.04-0.04
		c2.504,0,4.927,0.727,6.978,2.087c0.66,0.388,1.216,0.939,1.606,1.598c0.041,0.067,0.026,0.138,0.039,0.211
		c0.695,1.756-2.311,3.279-5.453,6.338c-3.996,3.892,2.479,7.155-2.305,9.192c-4.782,2.037-6.456,2.613-9.593,1.593
		c-3.139-1.017-11.31,0.291-14.938-1.593c-0.039-0.022-0.074-0.048-0.112-0.067c-0.036-0.018-0.076-0.011-0.11-0.035
		s-0.054-0.056-0.088-0.081c-1.8-1.059-3.34-3.051-3.046-5.684C71.271,48.217,71.264,48.203,71.264,48.186z M92.664,80.325
		c-1.203,0.148-2.333,0.201-3.434,0.214c-0.373,0.003-0.732-0.002-1.094-0.013c-0.557-0.013-1.105-0.035-1.636-0.078
		c-0.368-0.027-0.73-0.058-1.087-0.101c-0.52-0.059-1.028-0.128-1.528-0.208c-0.326-0.052-0.656-0.102-0.977-0.159
		c-0.518-0.095-1.02-0.201-1.518-0.313c-0.273-0.061-0.555-0.114-0.821-0.181c-0.569-0.134-1.12-0.274-1.664-0.42
		c-0.86-0.226-1.705-0.45-2.516-0.664c-0.116-0.03-0.229-0.053-0.346-0.086c-0.553-0.142-1.096-0.274-1.631-0.396
		c-0.22-0.051-0.438-0.086-0.653-0.131c-0.429-0.083-0.854-0.164-1.271-0.227c-0.246-0.035-0.494-0.057-0.74-0.08
		c-0.388-0.043-0.775-0.071-1.159-0.081c-0.131-0.002-0.264-0.025-0.394-0.025c-0.22,0-0.438,0.021-0.658,0.03
		c-0.118,0.005-0.239,0.008-0.358,0.018c-0.515,0.041-1.025,0.116-1.541,0.231c-0.107,0.025-0.217,0.062-0.326,0.088
		c-0.432,0.108-0.863,0.249-1.298,0.418c-0.139,0.053-0.271,0.104-0.408,0.161c-0.533,0.227-1.068,0.495-1.614,0.822
		c-0.074,0.045-0.154,0.104-0.229,0.149c-0.482,0.304-0.975,0.651-1.473,1.042c-0.147,0.115-0.301,0.236-0.45,0.364
		c-0.579,0.479-1.163,0.996-1.77,1.604C49.249,93.19,45.4,108.21,48.488,116.724c4.126,9.421,8.764,18.599,13.901,27.51
		c0,0,1.541,20.214-0.771,24.057c-2.31,3.854-0.771,9.874-21.626,16.956c-0.847,0.284-1.736,0.526-2.646,0.74
		c-0.291,0.065-0.594,0.123-0.892,0.181c-0.645,0.137-1.296,0.254-1.966,0.354c-0.34,0.05-0.683,0.095-1.03,0.141
		c-0.688,0.08-1.396,0.146-2.11,0.198c-0.305,0.021-0.605,0.053-0.914,0.068c-1.013,0.058-2.039,0.09-3.086,0.09
		c-0.126,0-0.259-0.007-0.385-0.007c-1.096-0.006-2.212-0.044-3.335-0.102c-0.323-0.018-0.647-0.035-0.976-0.056
		c-1.236-0.078-2.481-0.18-3.732-0.313v-2.209c1.763,0.131,3.497,0.196,5.2,0.204c0.085,0,0.175,0.01,0.26,0.01
		c1.33,0,2.625-0.053,3.9-0.143c0.337-0.025,0.661-0.065,0.993-0.096c1.065-0.1,2.104-0.231,3.116-0.402
		c0.371-0.061,0.741-0.124,1.103-0.196c1.271-0.254,2.514-0.554,3.672-0.942c20.856-7.085,19.316-13.106,21.626-16.957
		c2.309-3.852,0.769-24.063,0.769-24.063c-5.139-8.906-9.776-18.083-13.902-27.505c-3.087-8.519,0.764-23.536,11.584-34.416
		c0.604-0.605,1.188-1.125,1.769-1.603c0.153-0.128,0.31-0.249,0.461-0.367c0.493-0.387,0.98-0.734,1.46-1.033
		c0.081-0.051,0.159-0.111,0.235-0.156c0.548-0.327,1.083-0.596,1.612-0.821c0.138-0.057,0.274-0.108,0.41-0.158
		c0.436-0.172,0.868-0.311,1.298-0.421c0.108-0.027,0.217-0.063,0.324-0.088c0.519-0.115,1.03-0.193,1.543-0.233
		c0.116-0.011,0.233-0.011,0.352-0.019c0.354-0.021,0.708-0.018,1.066-0.003c0.381,0.011,0.767,0.038,1.151,0.078
		c0.248,0.027,0.494,0.052,0.745,0.083c0.422,0.063,0.851,0.142,1.28,0.229c0.214,0.046,0.425,0.078,0.641,0.126
		c0.568,0.129,1.145,0.27,1.73,0.423c0.074,0.021,0.149,0.037,0.224,0.055c0.855,0.226,1.747,0.463,2.656,0.699
		c0.504,0.134,1.011,0.265,1.534,0.388c0.287,0.07,0.585,0.128,0.879,0.193c0.481,0.108,0.964,0.209,1.463,0.302
		c0.329,0.062,0.669,0.113,1.01,0.164c0.491,0.078,0.993,0.148,1.508,0.203c0.358,0.041,0.728,0.076,1.099,0.104
		c0.528,0.04,1.074,0.063,1.629,0.077c0.251,0.006,0.483,0.035,0.74,0.035c0.117,0,0.248-0.021,0.362-0.021
		c1.094-0.014,2.218-0.065,3.416-0.212c15.589-1.919,25.338-17.623,32.291-28.611c4.983-7.872,0.81-26.712-1.956-36.76h2.134
		c2.645,9.059,8.082,30.652,2.654,39.234C118.006,62.694,108.253,78.398,92.664,80.325z"/>
	<path fill="none" d="M243.993,217.294c-10.363-8.097-37.812-16.301-50.744-13.902c-24.753,4.579-87.932,49.063-87.932,49.063
		l-4.087,14.738c12.746,4.107,26.329,6.344,40.438,6.344c43.078,0,81.317-20.658,105.385-52.604
		C246.085,219.383,245.038,218.111,243.993,217.294z"/>
	<path fill="none" d="M74.788,53.484c-1.957-2.663-2.94-7.165,4.745-12.495c0.609-0.465,1.246-0.885,1.896-1.285
		c0.195-0.12,0.394-0.229,0.593-0.344c0.479-0.274,0.963-0.536,1.457-0.775c0.214-0.103,0.423-0.208,0.639-0.304
		c0.604-0.27,1.214-0.519,1.834-0.737c0.09-0.029,0.179-0.069,0.269-0.104c0.708-0.238,1.428-0.438,2.152-0.605
		c0.214-0.053,0.427-0.088,0.642-0.134c0.535-0.106,1.073-0.201,1.618-0.272c0.238-0.03,0.479-0.063,0.722-0.09
		c0.6-0.063,1.204-0.098,1.811-0.111c0.152-0.003,0.304-0.019,0.455-0.019c0.039,0,0.075-0.006,0.113-0.006
		c0.489,0,0.979,0.046,1.469,0.073c0.298,0.021,0.595,0.018,0.892,0.048c0.818,0.083,1.639,0.206,2.451,0.375
		c0.363-0.033,0.727-0.048,1.086-0.048c0.185,0,0.363,0.03,0.544,0.04c0.256,0.01,0.509,0.03,0.758,0.056
		c0.393,0.042,0.777,0.11,1.164,0.19c0.239,0.051,0.477,0.091,0.711,0.159c0.409,0.109,0.809,0.262,1.206,0.415
		c0.195,0.074,0.394,0.136,0.587,0.221c0.58,0.262,1.141,0.562,1.677,0.918l0.046,0.038c-0.337-0.566-0.811-1.036-1.381-1.371
		c-0.535-0.354-1.099-0.653-1.676-0.915c-0.194-0.088-0.395-0.151-0.591-0.224c-0.394-0.156-0.79-0.303-1.196-0.413
		c-0.237-0.065-0.481-0.11-0.723-0.163c-0.381-0.081-0.763-0.146-1.149-0.191c-0.256-0.027-0.514-0.043-0.77-0.056
		c-0.538-0.022-1.079-0.04-1.622,0.008c-0.813-0.171-1.633-0.294-2.451-0.377c-0.296-0.03-0.594-0.027-0.892-0.045
		c-0.527-0.033-1.057-0.073-1.582-0.071c-0.152,0-0.303,0.017-0.458,0.021c-0.604,0.015-1.211,0.051-1.811,0.112
		c-0.239,0.025-0.479,0.057-0.718,0.085c-0.547,0.073-1.089,0.166-1.626,0.277c-0.212,0.043-0.425,0.08-0.634,0.128
		c-0.729,0.171-1.449,0.372-2.162,0.611c-0.084,0.026-0.163,0.066-0.249,0.096c-0.626,0.219-1.242,0.468-1.853,0.744
		c-0.213,0.096-0.422,0.199-0.631,0.302c-0.497,0.241-0.983,0.501-1.465,0.777c-0.196,0.113-0.395,0.224-0.59,0.342
		c-0.646,0.4-1.285,0.822-1.896,1.288C69.02,46.022,71.745,51.198,74.788,53.484z"/>
	<path fill="none" d="M125.917,81.269c0.113,3.433,0.52,6.851,1.211,10.216c0,0,3.92,7.644,5.224,11.14
		c1.371,4.962,1.021,10.244-0.99,14.979c-2.162,4.995-4.418,0.637-8.343,2.01s-5.534,8.373-6.696,13.272
		c-1.161,4.894,0.623,14.616,3.563,18.202c0.347,0.424,0.783,0.896,1.261,1.382c0.011,0.163,0.078,0.318,0.207,0.438
		c0.875,0.806,2.02,1.759,3.3,2.722c0.089,0.07,0.172,0.146,0.265,0.22c3.938,3.118,8.886,5.979,12.095,5.511
		c3.343-0.485,6.818-3.167,10.065-6.914c7.281-7.807,13.456-20.754,14.77-28.088c2.323-12.98-13.445-49.54-14.114-51.089
		c-0.065-0.148-0.182-0.268-0.327-0.329c-0.04-0.017-0.913-0.41-2.273-0.906c-0.069-0.024-0.147-0.037-0.222-0.037
		c-0.03,0-0.05,0.027-0.075,0.032c-3.628-1.354-10.677-3.428-14.296-0.712C127.674,74.936,125.908,77.977,125.917,81.269z
		 M134.025,157.84c10.567-1.493,22.479-23.811,24.31-33.995c2.037-11.396-10.425-42.048-13.428-49.203
		c1.351,0.492,2.229,0.885,2.229,0.885s16.392,37.781,14.074,50.72c-1.823,10.188-13.742,32.507-24.307,33.998
		c-0.389,0.053-0.827,0.022-1.263-0.01c-0.249-0.022-0.502-0.046-0.764-0.091c-0.327-0.057-0.661-0.142-1.007-0.231
		c-0.271-0.075-0.543-0.153-0.824-0.249c-0.354-0.123-0.718-0.267-1.081-0.423c-0.284-0.12-0.571-0.236-0.859-0.374
		c-0.376-0.177-0.752-0.378-1.128-0.576c-0.288-0.158-0.58-0.302-0.867-0.473c-0.384-0.222-0.767-0.461-1.147-0.699
		c-0.279-0.177-0.564-0.348-0.844-0.531c-0.39-0.259-0.766-0.527-1.142-0.8c-0.264-0.186-0.528-0.364-0.782-0.556
		c-0.405-0.302-0.789-0.606-1.172-0.91c-0.206-0.164-0.426-0.33-0.624-0.49c-0.568-0.471-1.111-0.94-1.609-1.396
		c0.479,0.367,0.974,0.731,1.479,1.087c0.175,0.123,0.354,0.235,0.529,0.358c0.336,0.229,0.667,0.458,1.008,0.675
		c0.211,0.134,0.42,0.257,0.631,0.383c0.316,0.192,0.632,0.387,0.944,0.567c0.221,0.126,0.437,0.236,0.654,0.354
		c0.311,0.163,0.612,0.327,0.919,0.478c0.226,0.108,0.44,0.204,0.663,0.306c0.298,0.133,0.593,0.264,0.886,0.377
		c0.217,0.083,0.431,0.161,0.646,0.233c0.286,0.102,0.566,0.191,0.846,0.268c0.211,0.058,0.415,0.107,0.617,0.152
		c0.268,0.059,0.528,0.104,0.783,0.137c0.195,0.024,0.389,0.045,0.58,0.056c0.104,0.005,0.216,0.03,0.318,0.03
		C133.543,157.89,133.791,157.872,134.025,157.84z"/>
	<path fill="none" d="M228.224,42.228c-18.975-16.524-42.696-27.704-68.868-31.215c1.663,29.796,4.978,67.231,11.357,78.229
		c2.409,4.152,4.556,7.27,6.484,9.623c-0.161,0.249-0.156,0.573,0.06,0.789c1.192,1.205,2.289,2.091,3.315,2.782
		c0.608,0.548,1.202,1.046,1.766,1.451c4.005,2.875,6.815,2.382,9.2,3.241c4.202,1.52,23.536-4.026,23.536-4.026
		c7.607-6.815,15.588-13.209,23.91-19.138c4.663-2.885,12.201-3.693,20.259-1.979C251.523,66.8,240.95,53.313,228.224,42.228z
		 M251.191,79.425c-0.956-0.09-1.894-0.144-2.817-0.157c-0.176-0.003-0.367-0.03-0.545-0.03c-0.072,0-0.144,0.01-0.217,0.01
		c-1.059,0.008-2.09,0.06-3.08,0.164c-0.197,0.022-0.375,0.059-0.566,0.083c-0.797,0.102-1.571,0.231-2.315,0.396
		c-0.289,0.063-0.573,0.139-0.854,0.214c-0.645,0.166-1.256,0.361-1.846,0.578c-0.25,0.091-0.498,0.174-0.74,0.271
		c-0.784,0.326-1.537,0.685-2.205,1.103c-8.154,5.818-15.977,12.092-23.429,18.786c0,0-0.078,0.022-0.19,0.057
		c-0.025,0.007-0.07,0.02-0.102,0.026c-0.11,0.033-0.262,0.075-0.436,0.123c-0.088,0.022-0.201,0.057-0.3,0.083
		c-0.165,0.047-0.354,0.1-0.559,0.151c-0.131,0.037-0.276,0.075-0.425,0.113c-0.222,0.06-0.466,0.125-0.72,0.192
		c-0.168,0.049-0.346,0.094-0.525,0.14c-0.259,0.066-0.538,0.143-0.82,0.214c-0.216,0.058-0.433,0.112-0.663,0.173
		c-0.297,0.078-0.613,0.156-0.931,0.234c-0.222,0.055-0.438,0.109-0.669,0.168c-0.423,0.104-0.865,0.212-1.313,0.318
		c-0.147,0.035-0.285,0.068-0.438,0.106c-0.589,0.141-1.197,0.278-1.811,0.42c-0.178,0.037-0.357,0.075-0.533,0.115
		c-0.448,0.099-0.895,0.195-1.345,0.289c-0.229,0.051-0.462,0.094-0.692,0.144c-0.392,0.078-0.785,0.156-1.173,0.231
		c-0.254,0.048-0.503,0.093-0.754,0.139c-0.372,0.067-0.734,0.131-1.093,0.193c-0.251,0.04-0.492,0.08-0.733,0.117
		c-0.359,0.059-0.704,0.105-1.046,0.156c-0.231,0.03-0.458,0.062-0.681,0.088c-0.35,0.043-0.679,0.075-1.006,0.105
		c-0.192,0.021-0.393,0.043-0.578,0.056c-0.356,0.027-0.688,0.04-1.014,0.048c-0.126,0.002-0.27,0.013-0.385,0.013
		c-0.308,0-0.568-0.019-0.83-0.037c-0.121-0.008-0.268-0.005-0.377-0.021c-0.357-0.04-0.669-0.104-0.921-0.196
		c-2.851-1.027-6.328-0.074-11.798-5.599c3.921,2.825,6.68,2.34,9.014,3.186c0.254,0.091,0.565,0.155,0.923,0.195
		c0.105,0.016,0.247,0.014,0.367,0.021c0.252,0.018,0.493,0.041,0.785,0.041c0.02,0,0.045-0.003,0.061-0.003
		c0.11,0,0.236-0.011,0.351-0.014c0.334-0.008,0.682-0.02,1.049-0.05c0.181-0.013,0.377-0.035,0.564-0.053
		c0.332-0.03,0.667-0.065,1.02-0.108c0.217-0.024,0.438-0.058,0.659-0.088c0.354-0.048,0.706-0.101,1.07-0.156
		c0.236-0.037,0.472-0.074,0.707-0.112c0.374-0.063,0.749-0.131,1.129-0.198c0.241-0.046,0.477-0.086,0.714-0.134
		c0.403-0.075,0.812-0.158,1.219-0.241c0.224-0.045,0.441-0.088,0.661-0.134c0.471-0.099,0.938-0.201,1.405-0.305
		c0.156-0.032,0.308-0.067,0.463-0.101c0.624-0.141,1.24-0.282,1.847-0.425c0.064-0.017,0.126-0.03,0.195-0.048
		c0.533-0.126,1.053-0.255,1.558-0.378c0.179-0.045,0.348-0.089,0.521-0.132c0.373-0.093,0.74-0.186,1.087-0.272
		c0.201-0.051,0.389-0.099,0.584-0.148c0.31-0.081,0.605-0.155,0.891-0.23c0.161-0.043,0.313-0.086,0.471-0.123
		c0.274-0.076,0.533-0.145,0.774-0.209c0.144-0.038,0.27-0.073,0.395-0.105c0.228-0.063,0.418-0.115,0.599-0.166
		c0.083-0.022,0.166-0.046,0.242-0.063c0.474-0.133,0.749-0.211,0.749-0.211c7.455-6.695,15.274-12.972,23.429-18.788
		c0.672-0.417,1.421-0.776,2.205-1.103c0.242-0.101,0.494-0.184,0.744-0.272c0.59-0.214,1.197-0.408,1.836-0.576
		c0.285-0.073,0.572-0.148,0.865-0.211c0.746-0.166,1.524-0.297,2.324-0.397c0.184-0.022,0.362-0.061,0.549-0.081
		c0.995-0.104,2.031-0.154,3.092-0.162c0.248,0,0.502,0.015,0.752,0.018c0.922,0.013,1.865,0.063,2.826,0.156
		c0.326,0.028,0.658,0.06,0.99,0.101c1.205,0.144,2.426,0.324,3.665,0.591c-7.567-14.912-17.928-28.15-30.396-39.037
		c13.724,11.315,25.057,25.429,33.186,41.443c-1.237-0.264-2.457-0.444-3.662-0.588C251.851,79.485,251.523,79.455,251.191,79.425z"
		/>
	<path d="M141.734,7.087C67.368,7.087,7.085,67.37,7.085,141.736c0,74.365,60.283,134.642,134.649,134.642
		S276.38,216.103,276.38,141.736S216.101,7.087,141.734,7.087z M144.833,74.03c0.025-0.003,0.048-0.033,0.075-0.033
		c0.073,0,0.151,0.014,0.222,0.038c1.358,0.495,2.233,0.891,2.273,0.905c0.146,0.063,0.262,0.182,0.327,0.33
		c0.669,1.549,16.438,38.107,14.114,51.088c-1.312,7.334-7.486,20.281-14.768,28.089c-3.244,3.744-6.721,6.426-10.065,6.913
		c-3.213,0.474-8.156-2.392-12.095-5.51c-0.093-0.073-0.173-0.148-0.265-0.22c-1.28-0.964-2.425-1.917-3.3-2.722
		c-0.129-0.118-0.196-0.273-0.207-0.438c-0.478-0.485-0.914-0.958-1.261-1.382c-2.939-3.589-4.725-13.31-3.563-18.203
		c1.162-4.899,2.771-11.898,6.696-13.271c3.925-1.374,6.181,2.985,8.343-2.01c2.011-4.738,2.361-10.021,0.99-14.979
		c-1.304-3.496-5.224-11.14-5.224-11.14c-0.691-3.365-1.098-6.783-1.211-10.216c-0.01-3.293,1.757-6.333,4.62-7.953
		C134.157,70.603,141.203,72.676,144.833,74.03z M61.479,84.48c-10.327,10.259-14.317,24.218-12.019,32.826
		c4.009,9.068,8.533,18.016,13.486,26.6c0.048,0.086,0.076,0.179,0.084,0.274c0.003,0.055,0.013,0.181,0.029,0.374
		c0.251,0.438,0.488,0.881,0.744,1.314c0,0,1.544,20.051-0.773,23.866c-2.317,3.817-0.772,9.786-21.702,16.811
		c-5.927,1.986-13.467,2.12-21.234,1.293c-0.688-0.072-1.375-0.158-2.063-0.243c-5.315-14.307-8.233-29.773-8.233-45.929
		c0-66.375,49.042-121.27,112.86-130.486c0.021,0.063,0.361,1.071,0.874,2.743c2.443,8.004,8.798,31.272,3.063,40.225
		c-6.978,10.896-16.764,26.469-32.408,28.367C78.54,84.42,72.339,73.688,61.479,84.48z M141.667,273.536
		c-14.11,0-27.69-2.236-40.439-6.344l4.087-14.738c0,0,63.179-44.483,87.935-49.065c12.931-2.396,40.377,5.81,50.744,13.902
		c1.041,0.817,2.094,2.093,3.06,3.638C222.987,252.874,184.743,273.536,141.667,273.536z M238.985,83.967
		c-8.322,5.93-16.303,12.319-23.91,19.139c0,0-19.334,5.543-23.536,4.025c-2.385-0.859-5.199-0.366-9.2-3.241
		c-0.563-0.404-1.153-0.902-1.766-1.451c-1.026-0.691-2.123-1.576-3.315-2.781c-0.216-0.216-0.221-0.541-0.06-0.79
		c-1.93-2.354-4.075-5.47-6.484-9.622c-6.383-10.996-9.694-48.433-11.357-78.229c26.172,3.512,49.895,14.69,68.863,31.215
		c12.729,11.089,23.305,24.575,31.025,39.764C251.187,80.272,243.648,81.082,238.985,83.967z"/>
	<path d="M74.314,53.92c0.031,0.024,0.054,0.056,0.088,0.08c0.033,0.025,0.074,0.019,0.11,0.035
		c0.039,0.021,0.074,0.048,0.112,0.068c3.629,1.884,11.802,0.578,14.938,1.592c3.136,1.021,4.81,0.445,9.592-1.592
		c4.784-2.037-1.691-5.306,2.306-9.192c3.144-3.059,6.147-4.583,5.452-6.339c-0.013-0.07,0-0.143-0.039-0.211
		c-0.391-0.656-0.945-1.207-1.605-1.597c-2.054-1.361-4.477-2.089-6.979-2.089c-0.344,0-0.691,0.014-1.04,0.04
		c-1.594-0.326-3.224-0.491-4.849-0.491c-5.236,0-10.419,1.747-14.59,4.919c-4.28,2.968-6.49,6.014-6.547,9.039
		c0,0.018,0.005,0.034,0.005,0.053C70.974,50.869,72.517,52.86,74.314,53.92z M78.201,39.656c0.609-0.465,1.249-0.888,1.896-1.287
		c0.193-0.118,0.392-0.229,0.59-0.342c0.481-0.277,0.969-0.536,1.467-0.777c0.207-0.104,0.416-0.206,0.63-0.302
		c0.608-0.274,1.228-0.523,1.854-0.745c0.084-0.027,0.165-0.066,0.249-0.095c0.709-0.239,1.433-0.438,2.16-0.611
		c0.209-0.048,0.424-0.088,0.635-0.129c0.539-0.11,1.079-0.203,1.625-0.276c0.238-0.029,0.479-0.061,0.718-0.086
		c0.601-0.063,1.206-0.098,1.812-0.111c0.154-0.003,0.305-0.021,0.457-0.021c0.526-0.003,1.056,0.04,1.582,0.07
		c0.297,0.018,0.594,0.016,0.893,0.045c0.818,0.083,1.638,0.207,2.451,0.378c0.54-0.048,1.081-0.033,1.621-0.008
		c0.259,0.013,0.515,0.027,0.77,0.056c0.389,0.045,0.77,0.11,1.149,0.19c0.243,0.054,0.484,0.096,0.724,0.164
		c0.405,0.109,0.803,0.257,1.196,0.412c0.195,0.074,0.398,0.139,0.59,0.224c0.58,0.262,1.144,0.562,1.677,0.916
		c0.569,0.334,1.044,0.808,1.381,1.37l-0.047-0.037c-0.535-0.357-1.099-0.654-1.676-0.918c-0.191-0.088-0.393-0.146-0.588-0.222
		c-0.396-0.155-0.796-0.305-1.206-0.415c-0.233-0.063-0.474-0.108-0.71-0.158c-0.388-0.08-0.772-0.151-1.163-0.191
		c-0.253-0.026-0.506-0.045-0.759-0.055c-0.181-0.008-0.359-0.041-0.544-0.041c-0.361,0-0.726,0.016-1.087,0.048
		c-0.813-0.168-1.632-0.291-2.451-0.374c-0.296-0.03-0.593-0.028-0.891-0.046c-0.489-0.032-0.979-0.075-1.47-0.075
		c-0.037,0-0.074,0.005-0.112,0.005c-0.154,0-0.304,0.014-0.456,0.019c-0.604,0.016-1.211,0.053-1.811,0.112
		c-0.242,0.025-0.481,0.059-0.721,0.089c-0.545,0.072-1.082,0.164-1.618,0.273c-0.214,0.045-0.431,0.083-0.642,0.133
		c-0.727,0.169-1.447,0.367-2.152,0.606c-0.091,0.033-0.179,0.07-0.27,0.104c-0.619,0.22-1.229,0.469-1.833,0.736
		c-0.214,0.099-0.425,0.201-0.639,0.305c-0.494,0.239-0.979,0.498-1.458,0.774c-0.198,0.113-0.396,0.224-0.592,0.345
		c-0.646,0.399-1.285,0.82-1.896,1.285c-7.685,5.329-6.701,9.831-4.744,12.495C71.745,51.198,69.02,46.022,78.201,39.656z"/>
	<path d="M122.303,12.474h-2.134c2.766,10.048,6.937,28.889,1.956,36.761c-6.952,10.99-16.703,26.694-32.291,28.611
		c-1.198,0.146-2.321,0.197-3.416,0.211c-0.114,0-0.248,0.021-0.362,0.021c-0.259,0-0.489-0.027-0.742-0.035
		c-0.553-0.013-1.1-0.037-1.627-0.078c-0.374-0.026-0.739-0.063-1.101-0.103c-0.513-0.056-1.015-0.126-1.506-0.204
		c-0.341-0.053-0.681-0.104-1.01-0.163c-0.501-0.093-0.985-0.192-1.464-0.302c-0.293-0.065-0.59-0.123-0.878-0.193
		c-0.525-0.124-1.03-0.255-1.535-0.388c-0.911-0.236-1.8-0.476-2.655-0.699c-0.074-0.018-0.148-0.035-0.224-0.056
		c-0.587-0.15-1.164-0.291-1.73-0.422c-0.216-0.048-0.428-0.081-0.642-0.126c-0.43-0.088-0.857-0.164-1.279-0.229
		c-0.251-0.035-0.497-0.055-0.745-0.083c-0.386-0.04-0.77-0.064-1.153-0.077c-0.354-0.013-0.71-0.016-1.065,0.002
		c-0.116,0.006-0.234,0.009-0.351,0.019c-0.514,0.04-1.024,0.118-1.543,0.233c-0.108,0.022-0.217,0.062-0.324,0.089
		c-0.432,0.107-0.863,0.249-1.298,0.42c-0.138,0.05-0.271,0.104-0.41,0.157c-0.53,0.228-1.066,0.496-1.612,0.822
		c-0.076,0.046-0.159,0.108-0.236,0.156c-0.479,0.3-0.966,0.646-1.46,1.034c-0.151,0.118-0.307,0.237-0.461,0.367
		c-0.576,0.479-1.161,0.994-1.768,1.602c-10.822,10.88-14.671,25.897-11.584,34.416c4.126,9.422,8.765,18.6,13.902,27.505
		c0,0,1.54,20.214-0.769,24.064c-2.31,3.851-0.77,9.871-21.626,16.956c-1.159,0.391-2.399,0.691-3.672,0.942
		c-0.363,0.073-0.734,0.136-1.103,0.196c-1.014,0.171-2.051,0.305-3.116,0.402c-0.332,0.029-0.656,0.069-0.995,0.096
		c-1.273,0.088-2.569,0.144-3.898,0.144c-0.085,0-0.176-0.01-0.26-0.01c-1.7-0.006-3.436-0.071-5.197-0.202v2.209
		c1.251,0.133,2.496,0.233,3.732,0.313c0.326,0.021,0.651,0.04,0.976,0.056c1.125,0.058,2.237,0.096,3.335,0.101
		c0.126,0,0.259,0.008,0.385,0.008c1.046,0,2.072-0.032,3.086-0.09c0.308-0.019,0.608-0.049,0.914-0.068
		c0.716-0.055,1.421-0.118,2.112-0.201c0.349-0.045,0.69-0.091,1.03-0.141c0.668-0.099,1.321-0.218,1.966-0.354
		c0.298-0.058,0.601-0.115,0.892-0.181c0.91-0.214,1.801-0.455,2.646-0.739c20.855-7.083,19.316-13.104,21.626-16.957
		c2.309-3.843,0.771-24.059,0.771-24.059c-5.139-8.906-9.775-18.084-13.901-27.508c-3.088-8.517,0.762-23.533,11.584-34.416
		c0.605-0.606,1.189-1.124,1.77-1.604c0.152-0.126,0.303-0.244,0.45-0.362c0.498-0.39,0.989-0.738,1.473-1.041
		c0.073-0.048,0.153-0.104,0.229-0.15c0.546-0.326,1.081-0.597,1.614-0.822c0.138-0.058,0.271-0.108,0.408-0.161
		c0.435-0.168,0.866-0.309,1.298-0.417c0.106-0.026,0.219-0.063,0.326-0.088c0.516-0.113,1.026-0.191,1.541-0.23
		c0.117-0.012,0.237-0.012,0.358-0.019c0.221-0.011,0.438-0.033,0.658-0.033c0.13,0,0.263,0.025,0.394,0.028
		c0.384,0.01,0.771,0.04,1.159,0.077c0.244,0.027,0.491,0.051,0.74,0.083c0.42,0.063,0.846,0.144,1.271,0.227
		c0.216,0.046,0.435,0.081,0.653,0.131c0.535,0.118,1.078,0.254,1.631,0.396c0.115,0.033,0.229,0.056,0.346,0.086
		c0.811,0.214,1.654,0.438,2.516,0.664c0.544,0.146,1.095,0.284,1.664,0.42c0.268,0.065,0.548,0.121,0.821,0.181
		c0.495,0.111,1,0.218,1.518,0.313c0.319,0.058,0.646,0.107,0.977,0.158c0.5,0.08,1.01,0.15,1.528,0.209
		c0.356,0.043,0.721,0.072,1.088,0.101c0.529,0.04,1.079,0.065,1.636,0.078c0.36,0.01,0.721,0.015,1.094,0.013
		c1.099-0.013,2.229-0.064,3.434-0.214c15.59-1.927,25.344-17.631,32.293-28.617C130.383,43.128,124.945,21.533,122.303,12.474z"/>
	<path d="M222.665,38.671c12.471,10.886,22.832,24.124,30.397,39.036c-1.237-0.267-2.46-0.446-3.664-0.591
		c-0.335-0.038-0.662-0.07-0.993-0.101c-0.955-0.092-1.898-0.142-2.824-0.156c-0.25-0.002-0.506-0.022-0.752-0.019
		c-1.063,0.009-2.094,0.059-3.09,0.164c-0.189,0.021-0.367,0.059-0.553,0.08c-0.8,0.102-1.574,0.231-2.324,0.396
		c-0.292,0.064-0.578,0.142-0.859,0.214c-0.639,0.169-1.25,0.362-1.842,0.576c-0.248,0.091-0.5,0.174-0.744,0.273
		c-0.785,0.324-1.533,0.688-2.203,1.103c-8.153,5.816-15.974,12.093-23.426,18.787c0,0-0.279,0.078-0.755,0.212
		c-0.07,0.02-0.155,0.042-0.236,0.063c-0.181,0.054-0.377,0.104-0.601,0.166c-0.129,0.033-0.254,0.068-0.396,0.105
		c-0.24,0.064-0.496,0.134-0.773,0.209c-0.155,0.04-0.307,0.078-0.473,0.123c-0.279,0.075-0.578,0.15-0.886,0.23
		c-0.195,0.054-0.383,0.1-0.587,0.148c-0.35,0.091-0.714,0.182-1.089,0.273c-0.171,0.043-0.337,0.085-0.518,0.132
		c-0.506,0.123-1.026,0.251-1.561,0.377c-0.064,0.015-0.128,0.029-0.195,0.048c-0.602,0.144-1.221,0.284-1.847,0.425
		c-0.152,0.033-0.307,0.068-0.461,0.101c-0.47,0.104-0.933,0.206-1.405,0.306c-0.219,0.045-0.438,0.091-0.658,0.133
		c-0.407,0.083-0.814,0.164-1.224,0.242c-0.237,0.048-0.473,0.088-0.709,0.133c-0.382,0.068-0.76,0.136-1.132,0.196
		c-0.239,0.043-0.473,0.077-0.704,0.114c-0.367,0.057-0.72,0.108-1.071,0.156c-0.227,0.03-0.447,0.062-0.658,0.088
		c-0.357,0.043-0.691,0.078-1.021,0.108c-0.186,0.018-0.382,0.038-0.563,0.053c-0.373,0.03-0.718,0.043-1.053,0.051
		c-0.112,0.002-0.24,0.013-0.347,0.013c-0.021,0-0.046,0.003-0.063,0.003c-0.289,0-0.533-0.022-0.784-0.04
		c-0.118-0.011-0.26-0.005-0.37-0.021c-0.357-0.043-0.669-0.106-0.921-0.196c-2.334-0.845-5.09-0.361-9.015-3.184
		c5.472,5.525,8.949,4.569,11.797,5.599c0.257,0.091,0.567,0.153,0.926,0.196c0.109,0.013,0.256,0.013,0.374,0.021
		c0.265,0.018,0.525,0.038,0.828,0.038c0.119,0,0.264-0.011,0.387-0.014c0.325-0.008,0.654-0.021,1.017-0.048
		c0.182-0.013,0.38-0.035,0.576-0.056c0.326-0.029,0.656-0.063,1.003-0.105c0.223-0.026,0.453-0.058,0.681-0.088
		c0.344-0.05,0.69-0.098,1.046-0.156c0.24-0.037,0.484-0.076,0.733-0.117c0.362-0.061,0.723-0.125,1.092-0.193
		c0.255-0.045,0.504-0.093,0.76-0.139c0.386-0.075,0.779-0.155,1.173-0.231c0.23-0.05,0.457-0.093,0.69-0.143
		c0.45-0.095,0.896-0.191,1.342-0.289c0.178-0.041,0.36-0.078,0.537-0.116c0.611-0.142,1.221-0.279,1.812-0.42
		c0.146-0.038,0.287-0.07,0.433-0.105c0.447-0.107,0.892-0.214,1.318-0.318c0.226-0.06,0.442-0.111,0.666-0.169
		c0.317-0.08,0.631-0.158,0.928-0.233c0.231-0.062,0.448-0.113,0.669-0.174c0.282-0.07,0.563-0.145,0.815-0.214
		c0.184-0.049,0.362-0.094,0.528-0.14c0.256-0.066,0.497-0.133,0.719-0.192c0.146-0.038,0.292-0.078,0.426-0.113
		c0.203-0.053,0.39-0.108,0.558-0.15c0.1-0.027,0.212-0.061,0.301-0.083c0.176-0.048,0.323-0.091,0.435-0.124
		c0.03-0.007,0.078-0.02,0.101-0.026c0.113-0.032,0.188-0.057,0.188-0.057c7.455-6.696,15.277-12.97,23.431-18.786
		c0.672-0.419,1.424-0.774,2.209-1.103c0.238-0.099,0.488-0.184,0.734-0.271c0.592-0.218,1.207-0.41,1.846-0.579
		c0.287-0.072,0.568-0.148,0.86-0.213c0.744-0.164,1.519-0.296,2.313-0.396c0.19-0.021,0.371-0.061,0.563-0.083
		c0.996-0.104,2.027-0.155,3.083-0.163c0.073,0,0.142-0.011,0.218-0.011c0.178,0,0.366,0.028,0.547,0.03
		c0.918,0.013,1.856,0.067,2.813,0.158c0.337,0.03,0.664,0.059,1.003,0.099c1.205,0.146,2.422,0.327,3.662,0.591
		C247.723,64.099,236.393,49.986,222.665,38.671z"/>
	<path d="M132.394,157.807c-0.256-0.032-0.517-0.075-0.783-0.137c-0.203-0.045-0.409-0.093-0.618-0.152
		c-0.277-0.072-0.56-0.163-0.845-0.268c-0.214-0.071-0.432-0.149-0.646-0.232c-0.293-0.116-0.59-0.247-0.887-0.378
		c-0.221-0.102-0.438-0.195-0.661-0.305c-0.307-0.15-0.609-0.313-0.919-0.479c-0.22-0.118-0.436-0.229-0.654-0.354
		c-0.316-0.179-0.632-0.374-0.944-0.567c-0.212-0.128-0.421-0.251-0.632-0.382c-0.341-0.218-0.673-0.445-1.007-0.675
		c-0.176-0.124-0.355-0.236-0.529-0.359c-0.506-0.354-1-0.72-1.479-1.086c0.498,0.455,1.041,0.925,1.609,1.396
		c0.199,0.161,0.418,0.327,0.624,0.488c0.384,0.307,0.765,0.611,1.172,0.913c0.254,0.189,0.521,0.369,0.782,0.556
		c0.376,0.27,0.752,0.54,1.142,0.8c0.278,0.185,0.563,0.354,0.845,0.53c0.382,0.241,0.764,0.48,1.146,0.699
		c0.29,0.169,0.578,0.313,0.867,0.471c0.376,0.201,0.755,0.399,1.129,0.578c0.29,0.139,0.574,0.254,0.858,0.375
		c0.366,0.155,0.729,0.299,1.082,0.422c0.28,0.096,0.552,0.172,0.823,0.249c0.344,0.091,0.681,0.174,1.008,0.231
		c0.264,0.048,0.514,0.067,0.763,0.091c0.436,0.033,0.874,0.063,1.263,0.01c10.566-1.491,22.483-23.81,24.307-33.998
		c2.313-12.938-14.073-50.719-14.073-50.719s-0.875-0.394-2.229-0.886c3.003,7.154,15.465,37.807,13.428,49.199
		c-1.83,10.189-13.747,32.504-24.31,33.999c-0.236,0.035-0.484,0.054-0.74,0.054c-0.102,0-0.212-0.024-0.317-0.032
		C132.782,157.853,132.589,157.832,132.394,157.807z"/>
</g>
</svg>
