<?xml version="1.0" encoding="utf-8"?>
<!-- Generator: Adobe Illustrator 15.1.0, SVG Export Plug-In . SVG Version: 6.00 Build 0)  -->
<!DOCTYPE svg PUBLIC "-//W3C//DTD SVG 1.1//EN" "http://www.w3.org/Graphics/SVG/1.1/DTD/svg11.dtd">
<svg version="1.1" id="Layer_1" xmlns="http://www.w3.org/2000/svg" xmlns:xlink="http://www.w3.org/1999/xlink" x="0px" y="0px"
	 width="283.465px" height="283.465px" viewBox="0 0 283.465 283.465" enable-background="new 0 0 283.465 283.465"
	 xml:space="preserve">
<g id="Layer_9">
</g>
<g>
	<path fill="none" d="M103.14,157.004c-0.456-0.089-0.602-0.116-0.654-0.116C102.537,156.888,102.684,156.915,103.14,157.004z"/>
	<path fill="none" d="M133.951,140.493c3.389,4.864,8.68,5.813,11.042,3.729c1.365-1.225,2.757-2.435,3.473-4.325
		c-0.717,1.889-2.108,3.1-3.472,4.324c-2.362,2.084-7.654,1.136-11.042-3.729c-0.3-1.765-0.608-3.539-0.126-6.018
		c0.091-0.464,0.221-0.889,0.404-1.252c-0.184,0.363-0.314,0.789-0.405,1.254C133.343,136.954,133.65,138.728,133.951,140.493z"/>
	<path fill="none" d="M136.941,137.608c1.041,1.046,3.115,3.134,3.892,2.431c0.387-0.352,0.714-0.767,0.953-1.224
		c-0.239,0.456-0.565,0.87-0.953,1.222C140.058,140.74,137.982,138.652,136.941,137.608c-0.089-0.586-0.179-1.17-0.268-1.754
		c0,0.001-0.001,0.001-0.001,0.001C136.761,136.439,136.851,137.023,136.941,137.608z"/>
	<path fill="none" d="M139.278,135.502c1.039,1.044,2.078,2.09,2.081,2.093l0.001-0.002c0,0-1.041-1.047-2.082-2.093
		c-1.042-1.048-2.874-1.4-3.646-0.691c0,0,0,0.001,0,0.001C136.404,134.102,138.236,134.454,139.278,135.502z"/>
	<path fill="none" d="M148.482,144.605c2.813-5.188,0.83-12.335-5.748-17.564c0,0.001,0,0.002,0,0.003
		C149.312,132.273,151.294,139.417,148.482,144.605z"/>
	<path fill="none" d="M140.554,138.307c0.006-0.006,0.011-0.01,0.017-0.016l0,0C140.566,138.297,140.561,138.302,140.554,138.307z"
		/>
	<path fill="none" d="M214.824,148.313c-0.048-0.113-0.112-0.227-0.198-0.341c-0.015-0.02-0.033-0.04-0.051-0.06
		c-0.083-0.102-0.181-0.206-0.295-0.311c-0.025-0.023-0.049-0.047-0.076-0.071c-0.132-0.114-0.284-0.23-0.452-0.347
		c-0.042-0.029-0.087-0.06-0.133-0.089c-0.16-0.106-0.333-0.212-0.524-0.318c-0.032-0.018-0.058-0.034-0.089-0.051
		c-0.211-0.115-0.447-0.231-0.69-0.348c-0.078-0.036-0.156-0.072-0.236-0.108c-0.25-0.113-0.512-0.228-0.794-0.341
		c-0.075-0.03-0.159-0.062-0.238-0.093c-0.234-0.091-0.48-0.183-0.736-0.273c-0.112-0.04-0.221-0.079-0.336-0.119
		c-0.313-0.107-0.64-0.216-0.982-0.324c-0.139-0.044-0.284-0.088-0.429-0.131c-0.263-0.08-0.538-0.16-0.818-0.241
		c-0.164-0.048-0.329-0.095-0.5-0.143c-0.347-0.096-0.71-0.191-1.082-0.287c-0.197-0.05-0.4-0.102-0.603-0.151
		c-0.321-0.079-0.652-0.158-0.99-0.237c-0.285-0.066-0.578-0.133-0.875-0.198c-0.297-0.066-0.598-0.132-0.904-0.198
		c-0.251-0.053-0.504-0.105-0.762-0.159c-0.448-0.092-0.908-0.185-1.379-0.274c-0.281-0.054-0.57-0.107-0.86-0.161
		c-0.297-0.055-0.596-0.109-0.901-0.163c-0.408-0.073-0.827-0.146-1.25-0.218c-0.39-0.066-0.783-0.131-1.184-0.196
		c-0.342-0.055-0.691-0.109-1.043-0.164c-0.318-0.049-0.643-0.097-0.968-0.146c-0.562-0.084-1.135-0.167-1.72-0.248
		c-0.328-0.046-0.658-0.092-0.994-0.137c-0.393-0.054-0.787-0.105-1.188-0.157c-0.421-0.054-0.852-0.108-1.284-0.161
		c-0.567-0.07-1.146-0.139-1.732-0.206c-0.35-0.041-0.699-0.081-1.055-0.12c-0.422-0.047-0.844-0.094-1.274-0.14
		c-0.45-0.048-0.913-0.094-1.372-0.141c0.008,0.33,0.025,0.657,0.025,0.988c0,2.131-0.162,4.225-0.467,6.27
		c-0.17,0.005-0.332,0.01-0.506,0.015c-2.127,0.068-4.417,0.098-6.832,0.095c-0.805-0.002-1.624-0.006-2.455-0.014
		c-8.623-0.082-18.609-0.534-28.533-1.143c-0.003,0.001-0.004,0.001-0.006,0.002c-0.002,0-0.004,0-0.004,0
		c9.926,0.608,19.917,1.06,28.541,1.143c0.832,0.009,1.65,0.013,2.456,0.014c2.414,0.003,4.704-0.026,6.833-0.095
		c0.173-0.005,0.336-0.01,0.505-0.015c22.411-0.658,6.536,3.398-1.106,5.128c-0.002,0-0.003,0-0.004,0
		c0.001-0.001,0.002-0.002,0.002-0.004l0,0c-0.002,0.002-0.002,0.003-0.002,0.004c-0.368,1.316-0.801,2.604-1.289,3.864
		c1.008-0.092,1.986-0.188,2.953-0.286l0,0c0.193-0.029,0.384-0.053,0.575-0.083l0.052-0.008l0.023,0.022l0.014,0.013l-0.013-0.013
		c4.665-0.484,8.827-1.037,12.448-1.634c0.049-0.008,0.096-0.017,0.145-0.024c1.604-0.266,3.098-0.54,4.489-0.82
		c0.04-0.009,0.089-0.017,0.132-0.025c0.416-0.085,0.822-0.17,1.221-0.256c0.119-0.025,0.236-0.051,0.354-0.077
		c1.156-0.254,2.225-0.511,3.211-0.771c0.152-0.04,0.309-0.081,0.458-0.121c0.266-0.072,0.523-0.146,0.775-0.218
		c0.173-0.049,0.342-0.099,0.507-0.148c0.229-0.068,0.461-0.138,0.678-0.206c0.334-0.105,0.656-0.212,0.964-0.317
		c0.168-0.06,0.324-0.117,0.485-0.176c0.183-0.065,0.362-0.132,0.534-0.199c0.146-0.057,0.29-0.113,0.429-0.17
		c0.187-0.077,0.363-0.153,0.535-0.229c0.103-0.046,0.21-0.091,0.307-0.136c0.247-0.116,0.476-0.231,0.689-0.347
		c0.079-0.042,0.148-0.085,0.224-0.127c0.146-0.084,0.286-0.167,0.413-0.25c0.068-0.043,0.133-0.086,0.195-0.129
		c0.142-0.1,0.271-0.2,0.387-0.299c0.024-0.021,0.056-0.042,0.078-0.063c0.134-0.117,0.242-0.235,0.335-0.353
		c0.028-0.034,0.05-0.068,0.072-0.103c0.064-0.089,0.114-0.177,0.154-0.264c0.016-0.034,0.032-0.067,0.044-0.103
		c0.042-0.115,0.069-0.23,0.07-0.345c0-0.113-0.027-0.228-0.067-0.343C214.843,148.363,214.835,148.339,214.824,148.313z"/>
	<path fill="none" d="M94.45,152.102c-47.839,1.494-0.441-9.356-0.441-9.356s2.08,0.217,5.644,0.561
		c1.688,0.164,3.703,0.356,5.996,0.567c9.021,0.836,22.254,1.975,35.925,2.863c-0.001,0-0.002-0.001-0.003-0.001
		c-0.002,0-0.005-0.002-0.007-0.002c-13.668-0.888-26.895-2.027-35.914-2.86c-2.293-0.212-4.309-0.404-5.997-0.569
		c-0.019-0.523-0.04-1.047-0.04-1.574c0-0.331,0.018-0.658,0.025-0.988c-2.888,0.293-5.585,0.61-8.084,0.949
		c-0.928,0.126-1.828,0.255-2.702,0.386c-0.026,0.005-0.052,0.009-0.079,0.013c-0.852,0.128-1.679,0.259-2.479,0.392
		c-0.031,0.005-0.061,0.01-0.09,0.015c-0.806,0.135-1.587,0.271-2.339,0.408c-0.012,0.002-0.023,0.004-0.034,0.006
		c-3.855,0.708-7.005,1.466-9.422,2.23c-0.006,0.002-0.011,0.004-0.017,0.006c-0.455,0.144-0.879,0.288-1.281,0.433
		c-0.077,0.028-0.148,0.057-0.224,0.084c-0.322,0.119-0.628,0.237-0.915,0.355c-0.097,0.041-0.188,0.081-0.281,0.121
		c-0.246,0.105-0.478,0.212-0.694,0.317c-0.099,0.048-0.193,0.096-0.285,0.144c-0.19,0.098-0.367,0.195-0.532,0.293
		c-0.086,0.051-0.173,0.103-0.253,0.153c-0.146,0.094-0.276,0.187-0.4,0.279c-0.07,0.054-0.143,0.105-0.206,0.158
		c-0.109,0.092-0.199,0.183-0.285,0.274c-0.048,0.051-0.104,0.102-0.145,0.153c-0.077,0.096-0.132,0.191-0.183,0.286
		c-0.022,0.043-0.057,0.088-0.075,0.13c-0.057,0.137-0.089,0.272-0.089,0.405c0,0.113,0.027,0.228,0.068,0.342
		c0.011,0.033,0.025,0.065,0.041,0.099c0.042,0.092,0.095,0.185,0.162,0.278c0.018,0.026,0.034,0.054,0.055,0.08
		c0.091,0.115,0.202,0.233,0.331,0.35c0.035,0.031,0.076,0.063,0.113,0.094c0.107,0.09,0.225,0.183,0.354,0.272
		c0.056,0.038,0.109,0.077,0.168,0.116c0.172,0.113,0.356,0.227,0.561,0.341c0.049,0.026,0.104,0.054,0.154,0.08
		c0.182,0.098,0.377,0.195,0.583,0.293c0.099,0.047,0.202,0.094,0.307,0.142c0.178,0.08,0.366,0.16,0.561,0.24
		c0.108,0.045,0.212,0.09,0.325,0.135c0.28,0.111,0.578,0.221,0.888,0.331c0.152,0.054,0.314,0.107,0.473,0.162
		c0.195,0.066,0.396,0.134,0.604,0.199c0.184,0.06,0.368,0.119,0.562,0.178c0.224,0.067,0.458,0.137,0.694,0.204
		c0.343,0.099,0.698,0.197,1.064,0.297c0.197,0.053,0.395,0.105,0.599,0.158c0.266,0.068,0.539,0.137,0.816,0.205
		c0.183,0.045,0.371,0.089,0.559,0.134c0.645,0.153,1.314,0.306,2.019,0.456c0.051,0.011,0.099,0.021,0.15,0.032
		c0.359,0.077,0.73,0.152,1.105,0.228c0.164,0.032,0.33,0.065,0.497,0.099c0.393,0.077,0.79,0.154,1.199,0.229
		c0.017,0.004,0.036,0.006,0.053,0.01c0.899,0.166,1.838,0.33,2.814,0.491c0.113,0.019,0.225,0.037,0.338,0.056
		c0.479,0.077,0.967,0.154,1.465,0.231c0.099,0.015,0.2,0.029,0.3,0.045c1.576,0.238,3.242,0.47,4.996,0.691
		c0.122,0.015,0.243,0.029,0.364,0.045c1.785,0.222,3.658,0.434,5.623,0.634c0.094,0.009,0.187,0.019,0.281,0.028
		c0.65,0.065,1.31,0.13,1.979,0.192c0.08,0.008,0.162,0.014,0.242,0.021c0.11,0.011,0.223,0.021,0.335,0.031l0.025-0.027v-0.065
		l0.07-0.001c-0.621-1.608-1.153-3.262-1.576-4.958c-1.089,0.024-2.181,0.051-3.284,0.081C96.542,152.04,95.5,152.069,94.45,152.102
		z"/>
	<path fill="none" d="M140.645,132.4c2.34,2.353,3.892,6.438,2.673,8.349c1.221-1.909-0.332-5.997-2.672-8.351
		c-3.223-2.028-7.138-0.802-8.538,2.041C133.509,131.598,137.423,130.371,140.645,132.4z"/>
	<path d="M178.215,120.7c-0.258-0.445-0.521-0.886-0.793-1.32c-0.055-0.087-0.112-0.174-0.168-0.261
		c-0.281-0.442-0.568-0.881-0.866-1.311c-0.036-0.053-0.073-0.104-0.11-0.156c-1.326-1.898-2.803-3.684-4.416-5.335
		c-0.049-0.05-0.095-0.102-0.145-0.15c-0.318-0.323-0.646-0.638-0.975-0.949c-0.137-0.13-0.271-0.262-0.408-0.389
		c-0.301-0.279-0.608-0.551-0.918-0.82c-0.174-0.152-0.348-0.306-0.524-0.454c-0.296-0.25-0.596-0.494-0.898-0.737
		c-0.2-0.159-0.401-0.317-0.603-0.474c-0.295-0.228-0.592-0.45-0.891-0.668c-0.223-0.163-0.447-0.32-0.672-0.478
		c-0.294-0.206-0.588-0.41-0.887-0.608c-0.242-0.16-0.486-0.313-0.731-0.469c-0.294-0.186-0.587-0.373-0.886-0.552
		c-0.266-0.158-0.535-0.31-0.803-0.462c-0.288-0.163-0.573-0.33-0.865-0.487c-0.324-0.175-0.654-0.338-0.984-0.504
		c-0.334-0.169-0.668-0.336-1.006-0.496c-0.478-0.226-0.957-0.444-1.443-0.652c-0.242-0.103-0.488-0.195-0.732-0.293
		c-0.362-0.146-0.725-0.294-1.092-0.431c-0.264-0.098-0.532-0.188-0.798-0.28c-0.354-0.124-0.708-0.247-1.066-0.361
		c-0.274-0.088-0.553-0.168-0.829-0.251c-0.359-0.106-0.717-0.21-1.08-0.307c-0.279-0.075-0.561-0.146-0.842-0.215
		c-0.367-0.09-0.736-0.175-1.106-0.255c-0.28-0.061-0.563-0.12-0.848-0.175c-0.38-0.074-0.763-0.142-1.146-0.205
		c-0.277-0.046-0.558-0.093-0.837-0.134c-0.402-0.059-0.809-0.107-1.215-0.154c-0.266-0.031-0.529-0.064-0.797-0.09
		c-0.451-0.044-0.907-0.075-1.363-0.104c-0.227-0.015-0.449-0.036-0.675-0.046c-0.686-0.033-1.374-0.052-2.065-0.052
		c-0.691,0-1.38,0.019-2.064,0.052c-0.226,0.011-0.45,0.032-0.675,0.046c-0.456,0.029-0.912,0.061-1.364,0.104
		c-0.267,0.026-0.531,0.06-0.796,0.09c-0.406,0.048-0.812,0.096-1.214,0.154c-0.281,0.041-0.56,0.088-0.838,0.135
		c-0.383,0.063-0.765,0.13-1.146,0.204c-0.284,0.056-0.567,0.114-0.849,0.176c-0.369,0.08-0.737,0.165-1.104,0.254
		c-0.283,0.069-0.564,0.14-0.846,0.216c-0.361,0.096-0.719,0.199-1.076,0.305c-0.278,0.083-0.557,0.164-0.833,0.252
		c-0.356,0.113-0.708,0.236-1.061,0.359c-0.269,0.094-0.539,0.184-0.804,0.282c-0.363,0.136-0.721,0.281-1.08,0.426
		c-0.248,0.101-0.499,0.195-0.744,0.299c-0.47,0.2-0.932,0.413-1.393,0.63c-0.365,0.172-0.725,0.352-1.084,0.533
		c-0.318,0.161-0.639,0.318-0.953,0.488c-0.297,0.16-0.588,0.33-0.881,0.497c-0.263,0.149-0.527,0.297-0.786,0.451
		c-0.303,0.182-0.6,0.372-0.898,0.56c-0.239,0.152-0.48,0.304-0.717,0.46c-0.303,0.201-0.601,0.408-0.899,0.615
		c-0.22,0.154-0.441,0.31-0.659,0.469c-0.304,0.221-0.604,0.447-0.901,0.675c-0.199,0.153-0.396,0.309-0.592,0.466
		c-0.306,0.244-0.611,0.492-0.91,0.745c-0.172,0.146-0.342,0.294-0.511,0.442c-0.313,0.273-0.625,0.549-0.931,0.832
		c-0.132,0.122-0.26,0.248-0.392,0.372c-0.334,0.318-0.667,0.636-0.991,0.965c-0.042,0.042-0.081,0.086-0.122,0.128
		c-0.458,0.47-0.906,0.947-1.342,1.438c4.001,0.61,8.833,1.32,14.162,2.049c3.074,0.421,6.314,0.847,9.656,1.264
		c14.347,1.791,30.582,3.41,43.73,3.645C177.953,120.693,178.087,120.697,178.215,120.7z"/>
	<path d="M129.524,182.047c0.241,0.073,0.486,0.139,0.729,0.206c0.4,0.114,0.802,0.229,1.208,0.33
		c0.276,0.069,0.557,0.129,0.835,0.192c0.38,0.088,0.759,0.178,1.144,0.254c0.315,0.063,0.635,0.115,0.953,0.171
		c0.355,0.062,0.708,0.129,1.066,0.183c0.362,0.055,0.729,0.094,1.096,0.139c0.32,0.039,0.638,0.086,0.961,0.118
		c0.437,0.043,0.878,0.069,1.32,0.1c0.257,0.019,0.513,0.044,0.772,0.057c0.704,0.035,1.411,0.054,2.123,0.054
		s1.419-0.018,2.123-0.054c0.26-0.014,0.516-0.039,0.775-0.057c0.439-0.03,0.88-0.057,1.316-0.1
		c0.324-0.032,0.643-0.079,0.964-0.118c0.364-0.045,0.73-0.085,1.093-0.139c0.358-0.054,0.713-0.121,1.068-0.184
		c0.316-0.056,0.635-0.106,0.951-0.17c0.384-0.076,0.765-0.166,1.146-0.254c0.278-0.063,0.558-0.123,0.832-0.192
		c0.407-0.102,0.81-0.217,1.212-0.33c0.241-0.069,0.484-0.133,0.724-0.206c0.426-0.128,0.848-0.27,1.268-0.411
		c0.208-0.07,0.418-0.138,0.626-0.212c0.443-0.157,0.88-0.326,1.315-0.497c0.177-0.069,0.354-0.136,0.529-0.208
		c0.122-0.05,0.247-0.095,0.37-0.146c-12.137,0.286-22.158,0.805-29.206,1.258C129.065,181.904,129.294,181.978,129.524,182.047z"/>
	<path d="M276.351,152.938c-0.007-0.044-0.018-0.089-0.027-0.133c-0.016-0.088-0.029-0.175-0.054-0.262
		c-0.016-0.053-0.035-0.105-0.055-0.158c-0.023-0.078-0.05-0.157-0.081-0.235c-0.024-0.055-0.054-0.11-0.08-0.167
		c-0.034-0.074-0.069-0.148-0.11-0.223c-0.03-0.057-0.068-0.115-0.104-0.172c-0.044-0.072-0.088-0.145-0.137-0.216
		c-0.041-0.059-0.086-0.117-0.128-0.176c-0.055-0.07-0.105-0.141-0.163-0.211c-0.05-0.058-0.101-0.117-0.153-0.175
		c-0.063-0.069-0.127-0.14-0.192-0.209c-0.057-0.06-0.119-0.117-0.178-0.177c-0.071-0.068-0.142-0.137-0.218-0.204
		c-0.064-0.06-0.134-0.118-0.201-0.178c-0.081-0.067-0.161-0.135-0.244-0.202c-0.073-0.058-0.149-0.116-0.226-0.176
		c-0.09-0.066-0.178-0.134-0.271-0.2c-0.082-0.059-0.164-0.117-0.249-0.175c-0.096-0.067-0.197-0.134-0.3-0.199
		c-0.089-0.059-0.177-0.116-0.271-0.175c-0.105-0.065-0.214-0.131-0.324-0.197c-0.096-0.058-0.193-0.115-0.294-0.174
		c-0.114-0.064-0.23-0.13-0.348-0.195c-0.105-0.058-0.21-0.115-0.318-0.173c-0.122-0.064-0.247-0.129-0.375-0.194
		c-0.111-0.056-0.223-0.113-0.339-0.17c-0.13-0.065-0.268-0.129-0.403-0.194c-0.118-0.056-0.235-0.111-0.356-0.168
		c-0.141-0.064-0.286-0.128-0.432-0.192c-0.125-0.056-0.247-0.11-0.376-0.166c-0.15-0.065-0.308-0.129-0.462-0.193
		c-0.129-0.054-0.258-0.108-0.391-0.162c-0.162-0.065-0.329-0.13-0.494-0.194c-0.134-0.053-0.267-0.104-0.405-0.158
		c-0.181-0.069-0.368-0.137-0.556-0.205c-0.129-0.048-0.256-0.096-0.387-0.144c-0.272-0.098-0.554-0.195-0.836-0.292
		c-0.14-0.049-0.282-0.096-0.424-0.145c-0.248-0.083-0.495-0.165-0.749-0.248c-0.146-0.047-0.298-0.094-0.446-0.141
		c-0.208-0.065-0.415-0.132-0.628-0.197c-0.171-0.053-0.346-0.104-0.519-0.156c-0.199-0.06-0.396-0.119-0.598-0.179
		c-0.188-0.055-0.377-0.108-0.566-0.163c-0.197-0.056-0.392-0.112-0.594-0.169c-0.192-0.055-0.391-0.107-0.588-0.161
		c-0.204-0.057-0.41-0.111-0.618-0.167c-0.199-0.054-0.404-0.106-0.604-0.159c-0.211-0.055-0.422-0.109-0.636-0.164
		c-0.211-0.054-0.426-0.107-0.641-0.161c-0.214-0.053-0.425-0.105-0.641-0.159c-0.222-0.055-0.447-0.108-0.671-0.162
		c-0.215-0.051-0.431-0.102-0.648-0.153c-0.232-0.054-0.463-0.107-0.697-0.16c-0.224-0.052-0.445-0.102-0.669-0.151
		c-0.239-0.056-0.479-0.107-0.72-0.16c-0.228-0.051-0.455-0.1-0.687-0.149c-0.242-0.052-0.486-0.104-0.732-0.155
		c-0.235-0.05-0.474-0.099-0.711-0.148c-0.249-0.051-0.5-0.103-0.753-0.153c-0.239-0.049-0.485-0.097-0.729-0.146
		c-0.257-0.052-0.513-0.102-0.774-0.152c-0.244-0.048-0.493-0.096-0.74-0.142c-0.267-0.052-0.53-0.103-0.8-0.152
		c-0.249-0.047-0.503-0.093-0.756-0.14c-0.271-0.05-0.54-0.099-0.813-0.148c-0.261-0.047-0.524-0.093-0.787-0.14
		c-0.274-0.049-0.548-0.098-0.825-0.145c-0.263-0.046-0.527-0.091-0.793-0.136c-0.287-0.049-0.571-0.097-0.861-0.146
		c-0.252-0.043-0.51-0.085-0.764-0.126c-0.307-0.051-0.613-0.101-0.922-0.15c-0.256-0.04-0.517-0.081-0.774-0.122
		c-0.312-0.05-0.622-0.099-0.938-0.147c-0.27-0.041-0.542-0.082-0.813-0.124c-0.313-0.048-0.624-0.096-0.94-0.143
		c-0.2-0.03-0.407-0.059-0.608-0.089c-0.729-0.107-1.464-0.213-2.209-0.317c-0.246-0.035-0.49-0.069-0.739-0.104
		c-0.331-0.046-0.668-0.091-1.003-0.137c-0.282-0.038-0.563-0.076-0.85-0.115c-0.34-0.044-0.683-0.09-1.025-0.134
		c-0.284-0.036-0.567-0.074-0.852-0.111c-0.351-0.045-0.705-0.089-1.061-0.134c-0.285-0.035-0.568-0.071-0.854-0.107
		c-0.354-0.043-0.713-0.087-1.071-0.13c-0.291-0.036-0.581-0.07-0.873-0.106c-0.359-0.042-0.722-0.085-1.084-0.126
		c-0.298-0.035-0.595-0.069-0.892-0.104c-0.365-0.042-0.732-0.083-1.103-0.124c-0.303-0.035-0.604-0.068-0.909-0.102
		c-0.366-0.04-0.734-0.08-1.102-0.12c-0.313-0.033-0.627-0.067-0.94-0.1c-0.367-0.04-0.735-0.078-1.105-0.116
		c-0.319-0.034-0.642-0.066-0.966-0.1c-0.37-0.037-0.74-0.074-1.112-0.112c-0.328-0.032-0.657-0.064-0.988-0.097
		c-0.371-0.036-0.744-0.072-1.12-0.108c-0.332-0.032-0.668-0.063-1-0.095c-0.381-0.036-0.763-0.072-1.146-0.106
		c-0.332-0.03-0.666-0.061-0.998-0.09c-0.389-0.035-0.778-0.07-1.168-0.104c-0.333-0.029-0.668-0.059-1.001-0.088
		c-0.396-0.034-0.791-0.068-1.189-0.102c-0.347-0.029-0.696-0.057-1.044-0.087c-0.388-0.032-0.776-0.064-1.167-0.095
		c-0.348-0.028-0.7-0.056-1.049-0.084c-0.403-0.032-0.809-0.063-1.214-0.095c-0.344-0.026-0.69-0.053-1.036-0.078
		c-0.407-0.03-0.813-0.062-1.221-0.092c-0.348-0.025-0.702-0.051-1.054-0.075c-0.418-0.03-0.839-0.061-1.261-0.09
		c-0.325-0.022-0.652-0.045-0.979-0.067c-0.444-0.031-0.886-0.062-1.331-0.091c-0.307-0.021-0.619-0.041-0.928-0.061
		c-1.623-0.106-3.264-0.207-4.92-0.305c-0.383-0.021-0.764-0.045-1.147-0.066c-2.516-0.144-5.067-0.276-7.655-0.397
		c-0.266-1.597-0.623-3.159-1.063-4.688v-0.001v-0.001c-5.324-0.71-27.588-3.416-57.864-3.412
		c-6.986,0.001-14.399,0.146-22.129,0.493c0,0,0,0,0,0.001c-0.898,2.432-1.569,4.972-2.006,7.592
		c-0.001,0.005-0.002,0.01-0.002,0.017c-6.488,0.304-12.757,0.679-18.771,1.117c-0.13,0.01-0.262,0.018-0.392,0.028
		c-1.268,0.093-2.521,0.189-3.765,0.287c-0.189,0.016-0.375,0.03-0.56,0.045c-1.213,0.097-2.416,0.197-3.606,0.3
		c-0.196,0.017-0.392,0.034-0.587,0.052c-1.195,0.104-2.38,0.209-3.551,0.318c-0.149,0.014-0.296,0.028-0.443,0.042
		c-1.221,0.114-2.43,0.231-3.622,0.353c-0.031,0.003-0.062,0.007-0.093,0.01c-1.197,0.121-2.379,0.245-3.548,0.371
		c-0.101,0.011-0.204,0.021-0.305,0.032c-1.127,0.124-2.238,0.249-3.338,0.377c-0.167,0.02-0.335,0.038-0.501,0.058
		c-1.063,0.125-2.111,0.252-3.146,0.381c-0.184,0.023-0.368,0.047-0.551,0.07c-1.035,0.13-2.057,0.263-3.063,0.396
		c-0.147,0.021-0.293,0.04-0.44,0.061c-1.037,0.141-2.061,0.281-3.066,0.427c-0.079,0.012-0.156,0.022-0.234,0.034
		c-1.016,0.146-2.016,0.296-2.999,0.448c-0.054,0.008-0.108,0.017-0.163,0.024c-0.975,0.15-1.93,0.304-2.872,0.46
		c-0.131,0.021-0.264,0.042-0.394,0.064c-0.904,0.15-1.791,0.303-2.663,0.457c-0.148,0.026-0.296,0.053-0.443,0.079
		c-0.86,0.153-1.705,0.31-2.533,0.468c-0.138,0.026-0.274,0.053-0.411,0.079c-0.839,0.161-1.664,0.324-2.469,0.489
		c-0.09,0.018-0.177,0.037-0.266,0.056c-0.841,0.173-1.667,0.349-2.469,0.527c-0.005,0-0.009,0.002-0.013,0.003
		c-0.8,0.177-1.576,0.356-2.335,0.538c-0.089,0.021-0.181,0.043-0.269,0.063c-0.719,0.173-1.418,0.348-2.1,0.524
		c-0.113,0.029-0.226,0.059-0.338,0.088c-0.667,0.175-1.315,0.351-1.946,0.527c-0.108,0.031-0.213,0.061-0.319,0.092
		c-0.631,0.18-1.245,0.361-1.839,0.544c-0.082,0.024-0.16,0.05-0.24,0.075c-0.613,0.19-1.209,0.383-1.779,0.578
		c-0.023,0.009-0.045,0.016-0.069,0.024c-0.57,0.194-1.116,0.392-1.643,0.589c-0.046,0.018-0.095,0.035-0.141,0.053
		c-0.511,0.194-0.997,0.39-1.466,0.586c-0.071,0.03-0.144,0.061-0.213,0.09c-0.45,0.191-0.879,0.385-1.288,0.579
		c-0.071,0.034-0.143,0.067-0.212,0.102c-0.404,0.195-0.787,0.392-1.149,0.589c-0.055,0.03-0.108,0.062-0.163,0.092
		c-0.365,0.203-0.713,0.408-1.034,0.615c-0.028,0.018-0.053,0.035-0.08,0.054c-0.322,0.209-0.623,0.42-0.897,0.633
		c-0.014,0.011-0.03,0.021-0.044,0.033c-0.272,0.212-0.515,0.426-0.74,0.64c-0.03,0.029-0.063,0.058-0.092,0.087
		c-0.209,0.207-0.394,0.415-0.558,0.624c-0.029,0.035-0.057,0.071-0.083,0.107c-0.156,0.208-0.289,0.416-0.399,0.626
		c-0.019,0.034-0.035,0.07-0.052,0.104c-0.104,0.214-0.189,0.428-0.247,0.643c-0.006,0.025-0.009,0.052-0.016,0.077
		c-0.055,0.226-0.087,0.453-0.087,0.683c0,0.143,0.011,0.286,0.032,0.429c0.008,0.049,0.023,0.098,0.032,0.146
		c0.018,0.094,0.037,0.188,0.064,0.28c0.018,0.057,0.042,0.113,0.062,0.17c0.03,0.085,0.059,0.17,0.097,0.254
		c0.026,0.062,0.061,0.121,0.092,0.181c0.041,0.079,0.08,0.16,0.127,0.24c0.037,0.063,0.082,0.125,0.123,0.188
		c0.051,0.077,0.102,0.155,0.159,0.232c0.048,0.063,0.102,0.127,0.154,0.189c0.062,0.076,0.122,0.151,0.189,0.227
		c0.057,0.064,0.122,0.129,0.184,0.193c0.071,0.074,0.142,0.147,0.219,0.221c0.068,0.065,0.141,0.129,0.212,0.193
		c0.082,0.073,0.163,0.146,0.25,0.219c0.077,0.064,0.16,0.128,0.241,0.192c0.09,0.072,0.183,0.145,0.279,0.216
		c0.087,0.064,0.18,0.129,0.272,0.194c0.1,0.07,0.201,0.141,0.307,0.21c0.097,0.065,0.198,0.129,0.299,0.194
		c0.11,0.07,0.222,0.14,0.337,0.209c0.107,0.064,0.218,0.129,0.33,0.193c0.118,0.069,0.237,0.137,0.36,0.204
		c0.119,0.065,0.241,0.131,0.364,0.195c0.126,0.067,0.253,0.133,0.383,0.199c0.128,0.065,0.259,0.13,0.393,0.195
		c0.136,0.065,0.272,0.131,0.412,0.197c0.138,0.065,0.278,0.129,0.419,0.193c0.144,0.065,0.29,0.13,0.438,0.194
		c0.148,0.065,0.297,0.13,0.45,0.193c0.152,0.064,0.306,0.128,0.462,0.191c0.157,0.063,0.316,0.128,0.477,0.192
		c0.159,0.063,0.32,0.125,0.483,0.187c0.17,0.064,0.341,0.13,0.516,0.195c0.163,0.061,0.33,0.12,0.498,0.181
		c0.181,0.064,0.362,0.13,0.547,0.194c0.17,0.06,0.343,0.118,0.518,0.178c0.193,0.064,0.385,0.13,0.582,0.196
		c0.174,0.057,0.353,0.113,0.53,0.171c0.206,0.065,0.41,0.132,0.621,0.197c0.178,0.055,0.36,0.11,0.542,0.165
		c0.218,0.065,0.436,0.133,0.659,0.198c0.178,0.054,0.361,0.105,0.542,0.157c0.235,0.068,0.469,0.137,0.711,0.204
		c0.172,0.049,0.35,0.096,0.525,0.144c0.257,0.071,0.513,0.142,0.777,0.212c0.157,0.042,0.319,0.083,0.479,0.125
		c0.289,0.075,0.575,0.151,0.87,0.227c0.124,0.031,0.251,0.063,0.375,0.094c2.091,0.523,4.344,1.033,6.751,1.524
		c0.073,0.016,0.144,0.031,0.217,0.046c0.427,0.086,0.862,0.172,1.299,0.258c0.105,0.021,0.208,0.042,0.313,0.063
		c0.411,0.079,0.828,0.158,1.246,0.237c0.141,0.025,0.278,0.053,0.42,0.08c0.41,0.076,0.825,0.151,1.242,0.228
		c0.152,0.027,0.302,0.054,0.455,0.082c0.412,0.073,0.83,0.146,1.248,0.219c0.167,0.029,0.331,0.059,0.5,0.087
		c0.419,0.072,0.844,0.144,1.27,0.215c0.17,0.028,0.339,0.056,0.509,0.085c0.43,0.071,0.867,0.142,1.304,0.211
		c0.172,0.028,0.343,0.055,0.516,0.083c0.441,0.07,0.889,0.14,1.338,0.208c0.174,0.027,0.348,0.054,0.524,0.081
		c0.454,0.069,0.912,0.138,1.374,0.205c0.173,0.026,0.347,0.053,0.522,0.078c0.467,0.067,0.938,0.136,1.412,0.202
		c0.174,0.024,0.348,0.05,0.524,0.074c0.48,0.067,0.965,0.134,1.452,0.2c0.172,0.023,0.344,0.047,0.517,0.07
		c0.494,0.067,0.993,0.133,1.494,0.198c0.172,0.022,0.343,0.045,0.516,0.067c0.508,0.065,1.021,0.131,1.537,0.195
		c0.164,0.021,0.329,0.042,0.493,0.063c0.531,0.065,1.064,0.131,1.602,0.196c0.153,0.018,0.308,0.037,0.463,0.055
		c0.548,0.066,1.1,0.131,1.655,0.195c0.147,0.018,0.296,0.035,0.444,0.051c0.576,0.066,1.154,0.132,1.737,0.196
		c0.117,0.014,0.235,0.026,0.353,0.039c0.61,0.067,1.223,0.134,1.84,0.199c0.1,0.011,0.201,0.021,0.301,0.032
		c0.645,0.068,1.293,0.136,1.947,0.201c0.054,0.007,0.11,0.012,0.166,0.018c0.694,0.07,1.392,0.14,2.097,0.21
		c0.019,0.001,0.038,0.003,0.057,0.005c13.792,1.344,29.39,2.328,46.158,2.858c0.465,0.438,0.941,0.865,1.427,1.282
		c0.009,0.009,0.019,0.018,0.028,0.025c0.474,0.405,0.958,0.802,1.449,1.187c0.025,0.019,0.05,0.04,0.076,0.06
		c0.477,0.371,0.962,0.732,1.455,1.084c0.046,0.032,0.091,0.064,0.137,0.098c0.151,0.107,0.3,0.217,0.453,0.322
		c1.538,0.013,3.135,0.01,4.781-0.007c13.86-0.143,31.24-1.313,46.222-2.562c0.071-0.06,0.142-0.123,0.212-0.184
		c0.01-0.008,0.018-0.016,0.026-0.022c0.485-0.418,0.962-0.846,1.429-1.283c1.235-0.039,2.461-0.081,3.684-0.126
		c0.052-0.002,0.101-0.004,0.152-0.006c0.847-0.03,1.689-0.062,2.53-0.095c0.064-0.002,0.128-0.005,0.192-0.008
		c0.855-0.034,1.709-0.068,2.558-0.104c0.026-0.002,0.054-0.002,0.08-0.004c0.876-0.037,1.749-0.075,2.618-0.115
		c0.02-0.001,0.04-0.002,0.059-0.004c6.037-0.276,11.891-0.614,17.525-1.006c0,0,0,0,0.002,0h0.001h0.001
		c0.008-0.001,0.016-0.002,0.023-0.003c0,0,0.001,0,0.002,0s0.002-0.001,0.004-0.001c0.846-0.059,1.688-0.119,2.522-0.18
		c0.001,0,0.003,0,0.003,0c9.193-0.675,17.776-1.5,25.605-2.45c0.026-0.003,0.055-0.006,0.081-0.01
		c0.643-0.078,1.278-0.157,1.912-0.236c0.063-0.009,0.128-0.016,0.191-0.024c0.606-0.077,1.205-0.154,1.802-0.232
		c0.088-0.012,0.175-0.023,0.263-0.035c0.56-0.073,1.11-0.148,1.66-0.224c0.127-0.018,0.254-0.034,0.381-0.052
		c0.524-0.072,1.039-0.145,1.555-0.218c0.146-0.021,0.292-0.04,0.436-0.062c0.489-0.07,0.975-0.142,1.458-0.213
		c0.166-0.024,0.336-0.049,0.499-0.074c0.466-0.069,0.923-0.14,1.384-0.21c0.174-0.026,0.351-0.054,0.525-0.08
		c0.439-0.069,0.874-0.139,1.308-0.208c0.19-0.03,0.38-0.061,0.569-0.091c0.416-0.067,0.825-0.136,1.236-0.204
		c0.199-0.033,0.396-0.064,0.593-0.098c0.397-0.067,0.789-0.136,1.182-0.204c0.2-0.035,0.405-0.07,0.604-0.104
		c0.378-0.067,0.749-0.134,1.121-0.2c0.208-0.038,0.418-0.076,0.627-0.114c0.36-0.065,0.716-0.133,1.069-0.199
		c0.208-0.039,0.418-0.078,0.624-0.118c0.346-0.066,0.689-0.134,1.03-0.2c0.212-0.042,0.421-0.084,0.631-0.125
		c0.327-0.066,0.649-0.132,0.971-0.198c0.215-0.044,0.432-0.089,0.646-0.134c0.307-0.063,0.611-0.128,0.913-0.193
		c0.219-0.047,0.438-0.094,0.653-0.141c0.294-0.064,0.585-0.13,0.875-0.194c0.213-0.049,0.427-0.097,0.638-0.146
		c0.281-0.064,0.561-0.129,0.837-0.194c0.213-0.051,0.425-0.101,0.637-0.15c0.267-0.064,0.528-0.129,0.791-0.193
		c0.211-0.052,0.419-0.104,0.627-0.155c0.258-0.065,0.514-0.131,0.768-0.195c0.2-0.053,0.4-0.104,0.599-0.157
		c0.247-0.065,0.491-0.131,0.735-0.197c0.198-0.054,0.396-0.108,0.591-0.162c0.236-0.064,0.468-0.13,0.697-0.196
		c0.196-0.056,0.386-0.111,0.577-0.167c0.223-0.065,0.441-0.13,0.658-0.194c0.191-0.058,0.379-0.114,0.563-0.173
		c0.212-0.065,0.421-0.13,0.63-0.196c0.181-0.057,0.359-0.115,0.536-0.174c0.201-0.064,0.402-0.131,0.6-0.197
		c0.176-0.059,0.35-0.119,0.522-0.179c0.19-0.065,0.378-0.13,0.561-0.196c0.171-0.061,0.339-0.122,0.505-0.183
		c0.178-0.066,0.355-0.131,0.528-0.197c0.165-0.063,0.324-0.125,0.483-0.187c0.168-0.064,0.335-0.13,0.497-0.196
		c0.157-0.063,0.308-0.127,0.458-0.19c0.158-0.066,0.315-0.132,0.47-0.198c0.147-0.063,0.29-0.128,0.432-0.192
		c0.147-0.065,0.295-0.132,0.438-0.198c0.141-0.065,0.272-0.131,0.41-0.196s0.274-0.133,0.408-0.198
		c0.129-0.066,0.256-0.133,0.382-0.199c0.127-0.065,0.255-0.133,0.377-0.198c0.124-0.068,0.24-0.136,0.359-0.204
		c0.115-0.065,0.232-0.131,0.343-0.198c0.117-0.068,0.226-0.139,0.337-0.208c0.104-0.065,0.209-0.13,0.309-0.196
		c0.106-0.07,0.207-0.141,0.308-0.211c0.094-0.066,0.19-0.132,0.278-0.197c0.099-0.071,0.188-0.143,0.279-0.215
		c0.085-0.065,0.169-0.131,0.25-0.196c0.088-0.073,0.168-0.147,0.252-0.222c0.073-0.063,0.149-0.128,0.217-0.193
		c0.068-0.07,0.139-0.146,0.212-0.221c0.062-0.064,0.128-0.128,0.188-0.192c0.067-0.076,0.126-0.153,0.189-0.229
		c0.054-0.063,0.108-0.128,0.157-0.191c0.06-0.078,0.108-0.157,0.161-0.235c0.043-0.063,0.089-0.125,0.127-0.188
		c0.05-0.08,0.089-0.162,0.127-0.243c0.032-0.062,0.068-0.122,0.096-0.183c0.039-0.085,0.065-0.17,0.096-0.254
		c0.021-0.059,0.047-0.116,0.064-0.174c0.027-0.095,0.046-0.189,0.064-0.284c0.011-0.048,0.024-0.097,0.031-0.146
		c0.021-0.144,0.032-0.288,0.032-0.433C276.378,153.202,276.368,153.07,276.351,152.938z M102.486,156.888
		c0.052,0,0.199,0.027,0.654,0.116C102.684,156.915,102.537,156.888,102.486,156.888z M214.85,149.076
		c-0.012,0.035-0.028,0.068-0.044,0.103c-0.04,0.087-0.09,0.175-0.154,0.264c-0.022,0.034-0.044,0.068-0.072,0.103
		c-0.093,0.117-0.201,0.235-0.335,0.353c-0.022,0.021-0.054,0.042-0.078,0.063c-0.116,0.099-0.245,0.199-0.387,0.299
		c-0.063,0.043-0.127,0.086-0.195,0.129c-0.127,0.083-0.268,0.166-0.413,0.25c-0.075,0.042-0.145,0.085-0.224,0.127
		c-0.214,0.115-0.442,0.23-0.689,0.347c-0.097,0.045-0.204,0.09-0.307,0.136c-0.172,0.076-0.349,0.152-0.535,0.229
		c-0.139,0.057-0.282,0.113-0.429,0.17c-0.172,0.067-0.352,0.134-0.534,0.199c-0.161,0.059-0.317,0.116-0.485,0.176
		c-0.308,0.105-0.63,0.212-0.964,0.317c-0.217,0.068-0.449,0.138-0.678,0.206c-0.165,0.05-0.334,0.1-0.507,0.148
		c-0.252,0.072-0.51,0.146-0.775,0.218c-0.149,0.04-0.306,0.081-0.458,0.121c-0.986,0.26-2.055,0.517-3.211,0.771
		c-0.117,0.026-0.234,0.052-0.354,0.077c-0.398,0.086-0.805,0.171-1.221,0.256c-0.043,0.009-0.092,0.017-0.132,0.025
		c-1.392,0.28-2.886,0.555-4.489,0.82c-0.049,0.008-0.096,0.017-0.145,0.024c-3.621,0.597-7.783,1.149-12.448,1.634l0.013,0.013
		l-0.014-0.013l-0.023-0.022l-0.052,0.008c-0.191,0.03-0.382,0.054-0.575,0.083l0,0c-0.967,0.098-1.945,0.194-2.953,0.286
		c0.488-1.26,0.921-2.548,1.289-3.864c0-0.001,0-0.002,0.002-0.004l0,0c-1.773,0.401-3.104,0.678-3.41,0.741
		c-0.043,0.009-0.066,0.013-0.066,0.013s-0.42-0.037-1.225-0.103c-6.376-0.517-37.063-2.767-76.71-1.852
		c0,0.002,0.001,0.003,0.001,0.005c0.423,1.696,0.955,3.35,1.576,4.958l-0.07,0.001v0.065l-0.025,0.027
		c-0.112-0.011-0.225-0.021-0.335-0.031c-0.081-0.008-0.162-0.014-0.242-0.021c-0.669-0.063-1.33-0.127-1.979-0.192
		c-0.095-0.01-0.188-0.02-0.281-0.028c-1.964-0.2-3.838-0.412-5.623-0.634c-0.122-0.016-0.243-0.03-0.364-0.045
		c-1.754-0.222-3.419-0.453-4.996-0.691c-0.1-0.016-0.201-0.03-0.3-0.045c-0.498-0.077-0.986-0.154-1.465-0.231
		c-0.113-0.019-0.226-0.037-0.338-0.056c-0.976-0.161-1.916-0.325-2.814-0.491c-0.017-0.004-0.036-0.006-0.053-0.01
		c-0.409-0.075-0.806-0.152-1.199-0.229c-0.167-0.033-0.333-0.066-0.497-0.099c-0.375-0.075-0.747-0.15-1.105-0.228
		c-0.051-0.011-0.099-0.021-0.15-0.032c-0.705-0.15-1.375-0.303-2.019-0.456c-0.188-0.045-0.375-0.089-0.559-0.134
		c-0.278-0.068-0.551-0.137-0.816-0.205c-0.204-0.053-0.402-0.105-0.599-0.158c-0.367-0.1-0.722-0.198-1.064-0.297
		c-0.235-0.067-0.47-0.137-0.694-0.204c-0.194-0.059-0.378-0.118-0.562-0.178c-0.208-0.065-0.409-0.133-0.604-0.199
		c-0.159-0.055-0.321-0.108-0.473-0.162c-0.31-0.11-0.607-0.22-0.888-0.331c-0.113-0.045-0.217-0.09-0.325-0.135
		c-0.194-0.08-0.383-0.16-0.561-0.24c-0.105-0.048-0.208-0.095-0.307-0.142c-0.206-0.098-0.401-0.195-0.583-0.293
		c-0.05-0.026-0.105-0.054-0.154-0.08c-0.205-0.114-0.389-0.228-0.561-0.341c-0.059-0.039-0.113-0.078-0.168-0.116
		c-0.129-0.09-0.247-0.183-0.354-0.272c-0.037-0.031-0.078-0.063-0.113-0.094c-0.129-0.116-0.24-0.234-0.331-0.35
		c-0.021-0.026-0.037-0.054-0.055-0.08c-0.067-0.094-0.121-0.187-0.162-0.278c-0.015-0.033-0.03-0.065-0.041-0.099
		c-0.041-0.114-0.068-0.229-0.068-0.342c0-0.133,0.032-0.269,0.089-0.405c0.018-0.042,0.053-0.087,0.075-0.13
		c0.051-0.095,0.106-0.19,0.183-0.286c0.041-0.052,0.097-0.103,0.145-0.153c0.086-0.092,0.176-0.183,0.285-0.274
		c0.063-0.053,0.135-0.104,0.206-0.158c0.124-0.093,0.253-0.186,0.4-0.279c0.08-0.051,0.167-0.103,0.253-0.153
		c0.165-0.098,0.342-0.195,0.532-0.293c0.092-0.048,0.186-0.096,0.285-0.144c0.217-0.105,0.449-0.212,0.694-0.317
		c0.092-0.04,0.184-0.08,0.281-0.121c0.287-0.118,0.593-0.236,0.915-0.355c0.075-0.027,0.146-0.056,0.224-0.084
		c0.402-0.145,0.827-0.289,1.281-0.433c0.005-0.002,0.011-0.004,0.017-0.006c2.417-0.765,5.567-1.522,9.422-2.23
		c0.011-0.002,0.022-0.004,0.034-0.006c0.752-0.138,1.533-0.273,2.339-0.408c0.03-0.005,0.06-0.01,0.09-0.015
		c0.8-0.133,1.626-0.264,2.479-0.392c0.027-0.004,0.053-0.008,0.079-0.013c0.875-0.131,1.774-0.26,2.702-0.386
		c2.5-0.339,5.197-0.656,8.084-0.949c-0.007,0.33-0.025,0.657-0.025,0.988c0,0.527,0.021,1.051,0.04,1.574
		c1.688,0.165,3.704,0.357,5.997,0.569c9.019,0.833,22.246,1.973,35.914,2.86c0.003,0,0.005,0,0.008,0
		c-1.775-0.461-3.588-1.369-5.254-2.405c-3.805-2.372-5.155-5.169-4.737-7.683c0.016-0.809,0.205-1.551,0.528-2.206
		c1.4-2.843,5.314-4.069,8.538-2.041c2.34,2.354,3.893,6.441,2.672,8.351c-0.407,0.637-1.123,1.031-2.219,1.039
		c-3.605-0.671-6.716-3.789-5.466-6.979c0,0,0-0.001,0-0.001c0.772-0.709,2.604-0.356,3.646,0.691
		c1.041,1.046,2.082,2.093,2.082,2.093l-0.001,0.002c-0.004,0.003-0.34,0.299-0.787,0.696c-0.006,0.006-0.011,0.01-0.017,0.016
		c0.006-0.005,0.012-0.01,0.017-0.016c0,0,0.001-0.001,0.001-0.001c-1.038-1.045-2.343-3.844-3.899-2.437c0,0.001,0,0.001,0,0.001
		c0.089,0.584,0.178,1.168,0.269,1.753c1.041,1.045,3.116,3.133,3.891,2.43c0.388-0.352,0.714-0.766,0.953-1.222
		c0.718-1.372,0.651-3.123-0.91-4.692c-4.042-2.854-5.85-2.474-6.646-0.901c-0.184,0.363-0.313,0.788-0.404,1.252
		c-0.482,2.479-0.174,4.253,0.126,6.018c3.388,4.865,8.679,5.813,11.042,3.729c1.363-1.225,2.755-2.436,3.472-4.324
		c0.104-0.271,0.191-0.555,0.265-0.854c-0.226-1.717-0.224-1.717-0.439-3.424c0.425-4.04-6.013-4.572-5.556-8.574
		c0-0.001,0-0.002,0-0.003c6.578,5.229,8.561,12.376,5.748,17.564c-0.188,0.347-0.396,0.684-0.626,1.011
		c-0.845,0.747-1.796,1.162-2.806,1.337c0.002,0,0.004,0,0.006,0c9.924,0.608,19.91,1.061,28.533,1.143
		c0.831,0.008,1.65,0.012,2.455,0.014c2.415,0.003,4.705-0.026,6.832-0.095c0.174-0.005,0.336-0.01,0.506-0.015
		c0.305-2.045,0.467-4.139,0.467-6.27c0-0.331-0.018-0.658-0.025-0.988c0.459,0.047,0.922,0.093,1.372,0.141
		c0.431,0.046,0.853,0.093,1.274,0.14c0.355,0.039,0.705,0.079,1.055,0.12c0.587,0.067,1.165,0.136,1.732,0.206
		c0.433,0.053,0.863,0.107,1.284,0.161c0.401,0.052,0.796,0.104,1.188,0.157c0.336,0.045,0.666,0.091,0.994,0.137
		c0.585,0.081,1.158,0.164,1.72,0.248c0.325,0.049,0.649,0.097,0.968,0.146c0.352,0.055,0.701,0.109,1.043,0.164
		c0.4,0.065,0.794,0.13,1.184,0.196c0.423,0.072,0.842,0.145,1.25,0.218c0.306,0.054,0.604,0.108,0.901,0.163
		c0.29,0.054,0.579,0.107,0.86,0.161c0.471,0.09,0.931,0.183,1.379,0.274c0.258,0.054,0.511,0.106,0.762,0.159
		c0.307,0.066,0.607,0.132,0.904,0.198c0.297,0.065,0.59,0.132,0.875,0.198c0.338,0.079,0.669,0.158,0.99,0.237
		c0.202,0.05,0.405,0.102,0.603,0.151c0.372,0.096,0.735,0.191,1.082,0.287c0.171,0.048,0.336,0.095,0.5,0.143
		c0.28,0.081,0.556,0.161,0.818,0.241c0.145,0.043,0.29,0.087,0.429,0.131c0.343,0.108,0.669,0.217,0.982,0.324
		c0.115,0.04,0.224,0.079,0.336,0.119c0.256,0.091,0.502,0.183,0.736,0.273c0.079,0.031,0.163,0.063,0.238,0.093
		c0.282,0.113,0.544,0.228,0.794,0.341c0.08,0.036,0.158,0.072,0.236,0.108c0.243,0.116,0.479,0.232,0.69,0.348
		c0.031,0.017,0.057,0.033,0.089,0.051c0.191,0.106,0.364,0.212,0.524,0.318c0.046,0.029,0.091,0.06,0.133,0.089
		c0.168,0.116,0.32,0.232,0.452,0.347c0.027,0.024,0.051,0.048,0.076,0.071c0.114,0.104,0.212,0.209,0.295,0.311
		c0.018,0.02,0.036,0.04,0.051,0.06c0.086,0.114,0.15,0.228,0.198,0.341c0.011,0.025,0.019,0.05,0.028,0.075
		c0.04,0.115,0.067,0.229,0.067,0.343C214.919,148.846,214.892,148.961,214.85,149.076z M140.554,138.309
		c-0.235,0.21-0.499,0.445-0.762,0.685C140.055,138.754,140.318,138.519,140.554,138.309z"/>
	<path fill="none" stroke="#FFFFFF" stroke-width="0" stroke-linecap="round" stroke-linejoin="round" d="M140.554,138.309
		c-0.235,0.21-0.499,0.445-0.762,0.685"/>
</g>
</svg>
