<?xml version="1.0" encoding="utf-8"?>
<!-- Generator: Adobe Illustrator 15.1.0, SVG Export Plug-In . SVG Version: 6.00 Build 0)  -->
<!DOCTYPE svg PUBLIC "-//W3C//DTD SVG 1.1//EN" "http://www.w3.org/Graphics/SVG/1.1/DTD/svg11.dtd">
<svg version="1.1" id="Layer_4" xmlns="http://www.w3.org/2000/svg" xmlns:xlink="http://www.w3.org/1999/xlink" x="0px" y="0px"
	 width="283.465px" height="283.465px" viewBox="0 0 283.465 283.465" enable-background="new 0 0 283.465 283.465"
	 xml:space="preserve">
<g>
	<path d="M28.021,120.108c-0.038-0.005-0.065-0.016-0.104-0.021C27.956,120.096,27.982,120.103,28.021,120.108z"/>
	<path d="M178.314,63.894L178.314,63.894c-0.242,0.014-0.482,0.03-0.72,0.04C177.832,63.923,178.072,63.908,178.314,63.894z"/>
	<path d="M174.039,63.329c0,0.105,0.068,0.191,0.166,0.268C174.107,63.521,174.039,63.435,174.039,63.329z"/>
	<path d="M182.669,223.795v-0.002c-0.878-0.019-1.759-0.041-2.636-0.13C180.91,223.752,181.791,223.778,182.669,223.795z"/>
	<path d="M28.875,120.142c0.058,0,0.117-0.002,0.178-0.005C28.994,120.14,28.933,120.142,28.875,120.142z"/>
	<rect x="184.064" y="223.79" width="0.002" height="0.011"/>
	<path d="M141.733,13.113c-74.365,0-134.646,57.583-134.646,128.62c0,71.034,60.281,128.618,134.646,128.618
		c74.362,0,134.645-57.584,134.645-128.618C276.377,70.696,216.095,13.113,141.733,13.113z M48.835,155.932
		c-0.022,0.117-0.062,0.229-0.115,0.334c-0.68,1.356-4.112,5.986-6.423,9.051c-0.001,0-0.001,0.002-0.002,0.004
		c-1.187,1.574-2.071,2.729-2.071,2.729c-0.251,0.326-0.637,0.514-1.043,0.514c-0.001,0-0.003,0-0.004,0s-0.001,0-0.001,0
		c-0.049,0-0.099-0.004-0.149-0.008c-0.458-0.055-0.854-0.342-1.048-0.76l-3.086-6.769l-1.361-2.979l-9.371,3.653l-2.563,0.998
		c-0.157,0.063-0.318,0.09-0.478,0.09c-0.489,0-0.957-0.272-1.183-0.737l-8.824-18.146c-0.103-0.211-0.146-0.446-0.128-0.68
		l1.284-15.943c0.021-0.257,0.116-0.5,0.274-0.704l10.315-13.196c0.125-0.159,0.284-0.288,0.463-0.373
		c0.178-0.087,0.376-0.137,0.579-0.137h2.578c0.653,0,1.208,0.48,1.301,1.128c0.054,0.366,0.455,3.182,0.576,4.819
		c0.101,0.005,0.223,0.01,0.368,0.01c0.554,0,1.223-0.059,1.88-0.141c0.003,0,0.007-0.003,0.01-0.003
		c1.065-0.141,1.977-0.305,2.348-0.375c0.065-0.013,0.139-0.028,0.188-0.039c0.113-0.023,13.727-2.375,14.396-2.375
		c0.197,0,0.381,0.057,0.552,0.139c0.056,0.025,0.108,0.052,0.157,0.084c0.11,0.072,0.205,0.159,0.289,0.261
		c0.022,0.027,0.052,0.051,0.072,0.08c0.031,0.043,0.053,0.095,0.079,0.141c0.147,0.254,0.245,0.519,0.303,0.706
		c0.058,0.187,0.068,0.385,0.04,0.578c1.221,5.136,2.227,10.39,2.946,15.639c0.013,0.098,0.016,0.198,0.007,0.296
		C51.338,141.204,50.277,148.645,48.835,155.932z M83.04,216.191c-0.001,0.002-0.003,0.002-0.004,0.002
		c-0.086,0.017-0.183,0.014-0.27,0.025c-0.469,0.063-0.931,0.145-1.416,0.145c-6.008,0-10.896-4.887-10.896-10.896
		c0-5.947,4.799-10.783,10.726-10.875c0.05-0.002,0.097-0.019,0.146-0.019c0.008,0,0.014,0,0.021,0c0.009,0,0.019,0,0.028,0
		c0.556,0.013,1.114,0.068,1.66,0.166c0.005,0,0.008,0.002,0.013,0.006c5.198,0.82,9.195,5.298,9.195,10.722
		C92.245,210.898,88.243,215.374,83.04,216.191z M102.582,65.32c-0.002,0-0.003,0.001-0.004,0.001
		c-0.203,0.036-0.419,0.038-0.626,0.063c-0.371,0.037-0.731,0.112-1.113,0.112c-0.009,0-0.017-0.002-0.025-0.002h-0.312
		c-3-0.049-5.801-1.264-7.886-3.418c-2.086-2.154-3.207-4.994-3.158-7.991c0.098-6.093,5.131-11.047,11.221-11.047l0.192,0.001
		c0.569,0.013,1.146,0.069,1.713,0.173c0.007,0.001,0.011,0.005,0.017,0.006c5.354,0.851,9.469,5.461,9.469,11.049
		C112.07,59.862,107.944,64.476,102.582,65.32z M206.213,228.553c-0.791,2.621-1.962,5.097-3.479,7.356
		c-0.108,0.162-0.25,0.297-0.416,0.396c-0.934,0.563-6.311,2.707-8.406,3.531c-0.383,0.154-0.613,0.244-0.613,0.244
		c-0.002,0-0.005,0-0.007,0.002h-0.003c-0.154,0.063-0.318,0.092-0.48,0.092c-0.254,0-0.508-0.074-0.727-0.217l-4.833-3.203
		l-13.341,1.572c-0.053,0.004-0.104,0.008-0.154,0.008c-0.244,0-0.485-0.068-0.693-0.199l-9.314-5.785
		c-0.49-0.305-0.727-0.896-0.575-1.455l0,0v-0.004l1.354-5.084c0.108-0.406,0.405-0.736,0.797-0.889l10.893-4.207
		c0.148-0.058,0.311-0.086,0.473-0.086h2.732c0.521,0,0.994,0.307,1.201,0.782l0.115,0.263c0.017,0.034,0.014,0.075,0.025,0.114
		c0.096,0.213,0.198,0.425,0.277,0.646c0.781,0.055,1.566,0.082,2.348,0.082c0.156,0,0.321-0.021,0.479-0.023
		c0.022-0.002,0.041-0.016,0.063-0.016c1.24-0.045,2.381-0.113,2.737-0.133c0.123-0.009,14.406-0.752,14.988-0.752
		c0.614,0,1.006,0.399,1.15,0.551c0.143,0.146,0.211,0.332,0.271,0.52c1.195,1.533,2.246,3.185,3.07,4.959
		C206.283,227.913,206.306,228.247,206.213,228.553z M205.746,103.068c-1.461,2.111-11.557,11.619-12.701,12.697
		c-0.246,0.23-0.566,0.356-0.9,0.356c-0.004,0-0.004,0-0.006,0c-0.003,0-0.003,0-0.003,0c-0.054,0-0.11-0.002-0.164-0.01
		c-0.392-0.049-0.737-0.27-0.946-0.601l-6.676-10.562c-0.005-0.009-0.005-0.02-0.01-0.029l-0.203-0.321l-17.98,5.055l-0.664,0.187
		c-0.117,0.032-0.237,0.049-0.355,0.049c-0.432,0-0.843-0.21-1.09-0.581l-13.199-19.585c-0.175-0.258-0.252-0.57-0.217-0.881
		l1.921-17.214c0.035-0.313,0.183-0.604,0.414-0.819l15.433-14.245c0.241-0.225,0.562-0.349,0.893-0.349h3.855
		c0.157,0,0.307,0.027,0.447,0.078c0.061,0.021,0.107,0.063,0.164,0.093c0.075,0.04,0.154,0.072,0.219,0.125
		c0.059,0.049,0.104,0.115,0.151,0.173c0.046,0.052,0.103,0.099,0.139,0.159c0.038,0.063,0.058,0.14,0.085,0.21
		c0.028,0.068,0.066,0.131,0.082,0.206c0,0.002,0,0.006,0.004,0.009c0,0.001,0,0.001,0,0.002l0.168,0.864
		c0.004,0.014-0.005,0.026-0.002,0.041c0.274,1.423,0.508,2.875,0.672,4.403c0.248,0.033,0.635,0.064,1.23,0.064
		c0.9,0,1.952-0.071,2.961-0.161c0.012-0.001,0.016-0.006,0.025-0.008c1.738-0.157,3.396-0.386,3.845-0.455
		c0.17-0.025,20.426-2.55,21.327-2.55c0.014,0,0.021,0.007,0.035,0.007c0.504,0.001,0.854,0.032,1.297,0.922
		c0.006,0.014,0.012,0.025,0.02,0.038c0.536,1.101,1.223,3.466,2.514,8.604c0.021,0.084,2.14,8.56,2.14,9.558
		C210.668,78.774,207.584,100.415,205.746,103.068z M251.207,136.815c-0.112,0.021-0.238,0.019-0.352,0.033
		c-0.445,0.057-0.882,0.137-1.339,0.137c-6.007,0-10.894-4.888-10.894-10.894c0-5.942,4.783-10.769,10.697-10.875
		c0.061-0.002,0.113-0.021,0.172-0.021c0.007,0,0.015,0,0.021,0c0.012,0,0.02,0,0.028,0c0.558,0.014,1.116,0.069,1.663,0.167
		c0.007,0,0.009,0.005,0.015,0.005c5.197,0.824,9.192,5.298,9.192,10.725c0,5.426-4,9.902-9.2,10.721
		C251.21,136.813,251.21,136.815,251.207,136.815z"/>
	<path d="M27.417,119.951c-0.043-0.021-0.084-0.039-0.118-0.062C27.333,119.913,27.374,119.932,27.417,119.951z"/>
	<path d="M175.479,63.921c-0.259-0.021-0.486-0.052-0.686-0.093C174.992,63.869,175.22,63.9,175.479,63.921z"/>
	<path d="M175.691,63.933c0.211,0.013,0.433,0.021,0.668,0.021C176.123,63.953,175.902,63.945,175.691,63.933z"/>
	<path d="M174.667,63.794c-0.144-0.039-0.267-0.083-0.362-0.138C174.4,63.711,174.523,63.757,174.667,63.794z"/>
	<path d="M176.658,63.955c0.221-0.001,0.447-0.006,0.681-0.015C177.107,63.949,176.876,63.954,176.658,63.955z"/>
	<path d="M100.524,64.18c0.107,0,0.216,0,0.321,0c0.506-0.014,1.009-0.064,1.505-0.151c-4.831-0.727-8.405-4.874-8.416-9.761
		c0.008-4.884,3.585-9.032,8.416-9.761c-0.496-0.091-0.999-0.142-1.505-0.151c-0.395-0.006-0.77,0.059-1.152,0.098
		c-0.306,0.031-0.62,0.033-0.917,0.092c-0.347,0.067-0.671,0.19-1.005,0.294c-0.282,0.087-0.578,0.148-0.849,0.261
		c-0.326,0.133-0.624,0.318-0.931,0.485c-0.251,0.136-0.517,0.247-0.753,0.402c-0.299,0.198-0.563,0.44-0.839,0.669
		c-0.21,0.175-0.44,0.326-0.635,0.517c-0.265,0.258-0.484,0.556-0.718,0.843c-0.166,0.203-0.356,0.385-0.506,0.601
		c-0.228,0.328-0.402,0.691-0.59,1.045c-0.11,0.208-0.248,0.399-0.343,0.616c-0.183,0.414-0.302,0.859-0.428,1.301
		c-0.051,0.185-0.135,0.354-0.176,0.542c-0.142,0.642-0.222,1.305-0.232,1.986C90.683,59.58,95.048,64.09,100.524,64.18z"/>
	<path d="M240.096,126.248c0.085,5.167,4.253,9.336,9.419,9.421c0.488-0.012,0.978-0.061,1.456-0.146
		c-4.666-0.706-8.117-4.715-8.125-9.433c0.008-4.721,3.459-8.727,8.125-9.434c-0.479-0.087-0.968-0.136-1.456-0.146
		C244.225,116.598,240.008,120.959,240.096,126.248z"/>
	<path d="M71.926,205.623c0.087,5.169,4.255,9.337,9.422,9.423c0.485-0.011,0.974-0.06,1.454-0.146
		c-4.667-0.707-8.118-4.713-8.123-9.434c0.005-4.718,3.456-8.728,8.123-9.433c-0.48-0.088-0.969-0.137-1.454-0.146
		C76.058,195.977,71.839,200.334,71.926,205.623z"/>
	<path d="M30.787,119.992c0.853,0.077,1.707,0.067,2.561,0.023c0.243-0.011,0.487-0.021,0.73-0.042
		c0.89-0.08,1.775-0.203,2.646-0.411c0.416-0.09,6.982-1.209,11.017-1.87c-0.088-0.285-0.159-0.478-0.2-0.478
		c-0.437,0-13.526,2.221-14.124,2.347C33.172,119.615,32.035,119.828,30.787,119.992z"/>
	<path d="M16.888,127.389l9.697-12.409c-0.064-0.47-0.11-0.789-0.11-0.789h-2.579l-10.315,13.197l-1.284,15.94l8.824,18.146
		l2.778-1.084l-8.297-17.063L16.888,127.389z"/>
	<path d="M34.71,157.465l4.471,9.782c0,0,0.881-1.147,2.064-2.719l-3.731-8.158L34.71,157.465z"/>
	<path d="M183.412,63.814c0.375-0.013,0.746-0.023,1.121-0.047c1.32-0.085,2.642-0.214,3.947-0.438
		c0.627-0.095,10.449-1.302,16.484-2.016c-0.126-0.309-0.232-0.527-0.301-0.527c-0.652,0-20.25,2.401-21.131,2.535
		c-0.366,0.058-2.065,0.298-3.924,0.465C180.877,63.871,182.146,63.858,183.412,63.814z"/>
	<path d="M169.292,107.404l-12.408-18.416l1.921-17.213l14.51-13.392c-0.098-0.51-0.168-0.854-0.168-0.854h-3.855l-15.432,14.245
		l-1.922,17.213l13.197,19.586L169.292,107.404z"/>
	<path d="M195.225,111.872l-5.558-8.803l-4.206,1.179l6.674,10.561C192.135,114.809,193.451,113.57,195.225,111.872z"/>
	<path d="M184.601,223.829c0.087,0.004,0.189,0.004,0.285,0.006c0.164,0.002,0.326,0.004,0.509,0.004
		c0.104,0,0.211-0.002,0.315-0.002c0.18-0.002,0.362-0.004,0.55-0.01c0.12-0.002,0.243-0.006,0.367-0.008
		c0.199-0.006,0.4-0.015,0.602-0.019c0.094-0.006,0.188-0.008,0.281-0.013c0.293-0.01,0.583-0.021,0.855-0.034
		c0.045-0.002,0.084-0.002,0.127-0.007c0.248-0.012,0.48-0.021,0.688-0.032c0.044-0.002,0.082-0.004,0.121-0.009
		c0.21-0.01,0.399-0.02,0.549-0.028c0.011,0,0.021,0,0.031-0.004c0.164-0.009,0.288-0.017,0.353-0.021
		c0.441-0.029,7.364-0.385,11.627-0.596c-0.086-0.09-0.16-0.154-0.207-0.154c-0.463,0-14.28,0.711-14.91,0.75
		c-0.262,0.017-1.459,0.086-2.769,0.135c0.022,0.005,0.062,0.005,0.085,0.007c0.006,0,0.008,0,0.01,0
		C184.226,223.812,184.395,223.821,184.601,223.829z"/>
	<polygon points="176.686,236.674 167.939,231.233 169.295,226.147 179.533,222.203 179.418,221.941 176.686,221.941 
		165.795,226.147 164.439,231.233 173.753,237.018 	"/>
	<path d="M188.111,235.739l4.707,3.119c0,0,0.931-0.365,2.181-0.867l-3.927-2.601L188.111,235.739z"/>
</g>
</svg>
