<?xml version="1.0" encoding="utf-8"?>
<!-- Generator: Adobe Illustrator 15.1.0, SVG Export Plug-In . SVG Version: 6.00 Build 0)  -->
<!DOCTYPE svg PUBLIC "-//W3C//DTD SVG 1.1//EN" "http://www.w3.org/Graphics/SVG/1.1/DTD/svg11.dtd">
<svg version="1.1" id="Layer_1" xmlns="http://www.w3.org/2000/svg" xmlns:xlink="http://www.w3.org/1999/xlink" x="0px" y="0px"
	 width="283.465px" height="283.465px" viewBox="0 0 283.465 283.465" enable-background="new 0 0 283.465 283.465"
	 xml:space="preserve">
<g id="Layer_3">
</g>
<g id="Layer_4">
</g>
<g id="Layer_2">
</g>
<g id="Layer_6">
	<path d="M227.375,37.886l1.18-5.077c0.693-1.04,0.414-2.441-0.622-3.139l-0.697-0.41c-0.009,0-0.021-0.002-0.028-0.004l0.73,0.431
		c-0.857-0.201-1.694-0.455-2.541-0.698c-8.68-1.53-17.008-7.208-22.208-13.56c-0.118-0.145-0.169-0.268-0.22-0.391
		c-0.968-0.48-1.982,0.019-2.917,0.702c-1.919,0.835-3.897,1.513-5.901,2.112c-15.93-6.682-33.424-10.381-51.781-10.381
		c-54.85,0-101.975,32.969-122.713,80.157l-4.21-0.021c-1.165-0.444-2.469,0.135-2.919,1.298l-5.32,13.854
		c-0.431,1.163,0.363,2.103,1.3,2.921c1.245,1.695,2.353,3.481,3.382,5.308c-2.281,9.8-3.526,19.997-3.526,30.489
		c0,33.045,11.985,63.281,31.814,86.643c3.963-8.143,12.292-13.766,21.956-13.766c13.493,0,24.429,10.934,24.429,24.427
		c0,7.999-3.862,15.075-9.804,19.532c4.885,2.748,9.958,5.199,15.198,7.33l0.091,2.621c-0.395,1.184,0.237,2.461,1.417,2.865
		l14.074,4.762c1.181,0.4,2.086-0.449,2.866-1.412c0.983-0.787,2.055-1.438,3.088-2.146c9.305,2.045,18.959,3.152,28.876,3.152
		c74.011,0,134.009-59.998,134.009-134.008C276.377,99.74,257.289,62.463,227.375,37.886z M56.925,172.97
		c-0.118,0-0.235-0.016-0.353-0.016c0.49-0.006,0.981-0.006,1.471-0.039C57.669,172.933,57.301,172.97,56.925,172.97z
		 M60.487,172.564c-11.824-1.868-20.557-12.035-20.576-24.024c0.017-12.032,8.819-22.25,20.72-24.049
		c-1.226-0.224-2.467-0.349-3.708-0.378h0.002c13.49,0,24.427,10.939,24.427,24.428C81.353,160.808,72.271,170.823,60.487,172.564z
		 M227.852,103.553c8.709,0,15.77,7.062,15.77,15.771c0,8.711-7.061,15.771-15.77,15.771c-0.06,0-0.118-0.017-0.178-0.017
		c0.857-0.013,1.721-0.078,2.57-0.23c-7.687-1.158-13.367-7.753-13.376-15.523c0.009-7.771,5.689-14.368,13.376-15.528
		c-0.913-0.165-1.817-0.205-2.715-0.211C227.641,103.583,227.742,103.553,227.852,103.553z M105.128,45.354
		c3.902,0,7.066,3.164,7.066,7.066c0,3.9-3.165,7.064-7.066,7.064c-0.22,0-0.427-0.044-0.643-0.066
		c0.163-0.017,0.323-0.019,0.484-0.048c-3.441-0.518-5.986-3.473-5.991-6.95c0.002-3.481,2.549-6.438,5.991-6.958
		c-0.15-0.025-0.304-0.03-0.457-0.047C104.718,45.399,104.917,45.354,105.128,45.354z M154.96,79.126
		c-0.098,0-0.187-0.025-0.283-0.027c0.791-0.004,1.581-0.042,2.359-0.182c-6.667-1.008-11.593-6.732-11.604-13.471
		c0.008-6.739,4.938-12.463,11.604-13.469c-0.689-0.125-1.384-0.194-2.076-0.211c7.56,0,13.681,6.126,13.681,13.681
		C168.641,73.002,162.519,79.126,154.96,79.126z M230.219,231.417l-3.99-0.601c-11.485-1.731-19.836-11.423-19.849-23.03
		c0.013-11.617,8.362-21.309,19.849-23.041l3.99-0.601c10.548,2.705,18.355,12.247,18.355,23.636
		C248.576,219.171,240.767,228.716,230.219,231.417z"/>
</g>
</svg>
