<?xml version="1.0" encoding="utf-8"?>
<!-- Generator: Adobe Illustrator 15.1.0, SVG Export Plug-In . SVG Version: 6.00 Build 0)  -->
<!DOCTYPE svg PUBLIC "-//W3C//DTD SVG 1.1//EN" "http://www.w3.org/Graphics/SVG/1.1/DTD/svg11.dtd">
<svg version="1.1" id="Layer_3" xmlns="http://www.w3.org/2000/svg" xmlns:xlink="http://www.w3.org/1999/xlink" x="0px" y="0px"
	 width="283.465px" height="283.465px" viewBox="0 0 283.465 283.465" enable-background="new 0 0 283.465 283.465"
	 xml:space="preserve">
<g>
	<path d="M276.378,148.906c-54.396,30.609-168.082,88.74-235.695,81.846c5.083,5.769,10.647,11.104,16.641,15.934
		c54.743-6.609,119.809-9.475,161.882,5.329C252.055,228.922,274.139,191.554,276.378,148.906z"/>
	<path d="M203.107,21.729c-45.27,25.63-142.175,78.56-193.099,91.894c-1.005,4.747-1.781,9.583-2.271,14.497
		c37.522-4.82,174.823-24.426,246.161-61.208C241.145,47.848,223.646,32.245,203.107,21.729z"/>
	<path d="M76.015,259.33c19.463,10.914,41.894,17.162,65.794,17.162c21.082,0,41.024-4.851,58.792-13.476
		C174.867,254.887,135.458,250.518,76.015,259.33z"/>
	<path d="M141.812,6.973C94.38,6.973,52.7,31.501,28.686,68.541c33.618-14.134,86.23-37.457,126.731-60.885
		C150.941,7.206,146.404,6.973,141.812,6.973z"/>
	<path d="M271.037,127.825c1.551-1.06,3.021-2.03,4.447-2.944c-1.916-15.367-6.41-29.927-13.051-43.233
		C224.963,91.819,131.495,116.354,7.087,143.07c0.233,23.862,6.676,46.223,17.777,65.58
		C51.518,219.095,124.068,228.252,271.037,127.825z"/>
</g>
</svg>
