<?xml version="1.0" encoding="utf-8"?>
<!-- Generator: Adobe Illustrator 15.1.0, SVG Export Plug-In . SVG Version: 6.00 Build 0)  -->
<!DOCTYPE svg PUBLIC "-//W3C//DTD SVG 1.1//EN" "http://www.w3.org/Graphics/SVG/1.1/DTD/svg11.dtd">
<svg version="1.1" id="Layer_4" xmlns="http://www.w3.org/2000/svg" xmlns:xlink="http://www.w3.org/1999/xlink" x="0px" y="0px"
	 width="283.465px" height="283.465px" viewBox="0 0 283.465 283.465" enable-background="new 0 0 283.465 283.465"
	 xml:space="preserve">
<g>
	<path d="M141.73,7.087C67.372,7.087,7.087,67.371,7.087,141.73c0,74.363,60.284,134.647,134.644,134.647
		c74.363,0,134.647-60.284,134.647-134.647C276.378,67.371,216.094,7.087,141.73,7.087z M141.73,9.861
		c24.678,0,47.785,6.828,67.558,18.673c-39.158-1.394-80.916-5.25-116.332-9.283C108.053,13.216,124.503,9.861,141.73,9.861z
		 M33.089,67.102c97.41-9.608,176.252-6.081,215.113-3.056c2.375,3.249,4.614,6.603,6.691,10.063
		c-72.679,5.547-175.833,1.12-225.336-1.61C30.691,70.67,31.87,68.87,33.089,67.102z M141.73,273.604
		c-22.021,0-42.781-5.455-61.051-15.04c36.315,2.332,72.702,5.495,102.438,8.351C170.091,271.231,156.186,273.604,141.73,273.604z
		 M53.498,239.641c-3.675-3.315-7.15-6.847-10.437-10.553c80.205,1.509,145.729,8.606,182.564,13.534
		C154.896,243.821,95.04,241.848,53.498,239.641z M249.435,217.686c-72.83-2.763-180.566-21.432-231.659-30.954
		c-1.229-3.375-2.301-6.822-3.256-10.318c93.222-2.424,224.726,27.316,241.386,31.183
		C253.897,211.062,251.739,214.428,249.435,217.686z M11.084,124.013c0.3-2.213,0.65-4.408,1.06-6.586
		c124.404-17.66,225.246-16.731,255.154-15.943c1.266,3.936,2.341,7.951,3.234,12.036c-3.193,0.486-6.49,1.021-10.002,1.658
		C145.382,136.06,51.635,129.01,11.084,124.013z"/>
</g>
</svg>
