<?xml version="1.0" encoding="utf-8"?>
<!-- Generator: Adobe Illustrator 15.1.0, SVG Export Plug-In . SVG Version: 6.00 Build 0)  -->
<!DOCTYPE svg PUBLIC "-//W3C//DTD SVG 1.1//EN" "http://www.w3.org/Graphics/SVG/1.1/DTD/svg11.dtd">
<svg version="1.1" id="Layer_2" xmlns="http://www.w3.org/2000/svg" xmlns:xlink="http://www.w3.org/1999/xlink" x="0px" y="0px"
	 width="283.465px" height="283.465px" viewBox="-125.732 -125.732 283.465 283.465"
	 enable-background="new -125.732 -125.732 283.465 283.465" xml:space="preserve">
<g>
	<path d="M141.028-118.646h-250.057c-5.311,0-9.617,4.306-9.617,9.617v250.057c0,5.315,4.306,9.617,9.617,9.617h250.057
		c5.315,0,9.617-4.302,9.617-9.617v-250.057C150.646-114.339,146.344-118.646,141.028-118.646z M-60.94,38.203
		c0,5.297-4.306,9.617-9.618,9.617c-5.311,0-9.617-4.32-9.617-9.617V-6.198c0-5.307,4.306-9.618,9.617-9.618
		c5.312,0,9.618,4.311,9.618,9.618V38.203z M-32.088,52.986c0,5.315-4.306,9.617-9.618,9.617c-5.311,0-9.617-4.302-9.617-9.617
		v-73.978c0-5.306,4.306-9.617,9.617-9.617c5.312,0,9.618,4.311,9.618,9.617V52.986z M-3.235,75.189
		c0,5.307-4.306,9.617-9.617,9.617c-5.312,0-9.618-4.311-9.618-9.617V-43.185c0-5.311,4.306-9.618,9.618-9.618
		c5.311,0,9.617,4.307,9.617,9.618V75.189z M25.617,112.176c0,5.315-4.302,9.617-9.617,9.617c-5.312,0-9.618-4.302-9.618-9.617
		V-80.175c0-5.312,4.306-9.618,9.618-9.618c5.315,0,9.617,4.306,9.617,9.618V112.176z M54.47,75.189
		c0,5.307-4.301,9.617-9.617,9.617c-5.315,0-9.617-4.311-9.617-9.617V-43.185c0-5.311,4.302-9.618,9.617-9.618
		c5.316,0,9.617,4.307,9.617,9.618V75.189z M83.323,52.986c0,5.315-4.302,9.617-9.618,9.617c-5.315,0-9.617-4.302-9.617-9.617
		v-73.978c0-5.306,4.302-9.617,9.617-9.617c5.316,0,9.618,4.311,9.618,9.617V52.986z M112.176,38.203
		c0,5.297-4.302,9.617-9.618,9.617c-5.315,0-9.617-4.32-9.617-9.617V-6.198c0-5.307,4.302-9.618,9.617-9.618
		c5.316,0,9.618,4.311,9.618,9.618V38.203z"/>
</g>
</svg>
