<?xml version="1.0" encoding="utf-8"?>
<!-- Generator: Adobe Illustrator 15.1.0, SVG Export Plug-In . SVG Version: 6.00 Build 0)  -->
<!DOCTYPE svg PUBLIC "-//W3C//DTD SVG 1.1//EN" "http://www.w3.org/Graphics/SVG/1.1/DTD/svg11.dtd">
<svg version="1.1" id="Layer_1" xmlns="http://www.w3.org/2000/svg" xmlns:xlink="http://www.w3.org/1999/xlink" x="0px" y="0px"
	 width="283.465px" height="283.465px" viewBox="0 0 283.465 283.465" enable-background="new 0 0 283.465 283.465"
	 xml:space="preserve">
<g id="Layer_2">
</g>
<g id="svg8" xmlns:svg="http://www.w3.org/2000/svg" inkscape:version="0.92.3 (2405546, 2018-03-11)" sodipodi:docname="Audio Book Icon 1.svg" xmlns:sodipodi="http://sodipodi.sourceforge.net/DTD/sodipodi-0.dtd" xmlns:inkscape="http://www.inkscape.org/namespaces/inkscape" xmlns:cc="http://creativecommons.org/ns#" xmlns:rdf="http://www.w3.org/1999/02/22-rdf-syntax-ns#" xmlns:dc="http://purl.org/dc/elements/1.1/">
	
		<sodipodi:namedview  id="base" inkscape:pageopacity="0.0" inkscape:pageshadow="2" inkscape:document-units="mm" inkscape:current-layer="layer2" inkscape:window-width="1600" inkscape:window-height="837" inkscape:window-x="-8" inkscape:window-y="-8" fit-margin-right="2" fit-margin-bottom="2" inkscape:window-maximized="1" pagecolor="#ffffff" inkscape:zoom="0.98994949" fit-margin-top="2" inkscape:cy="266.92381" fit-margin-left="2" showgrid="false" borderopacity="1.0" bordercolor="#666666" inkscape:cx="70.952893">
		</sodipodi:namedview>
	<g>
		<path d="M79.198,243.73c-27.356,0-51.944,7.074-61.395,17.621v1.689v1.867c12.382-9.578,35.468-15.545,61.395-15.545
			c25.922,0,49.002,5.959,61.39,15.545v-1.867v-1.689C131.138,250.805,106.553,243.73,79.198,243.73z"/>
		<path d="M204.167,243.73c-27.401,0-52.027,7.074-61.487,17.621v1.689v1.867c12.401-9.578,35.521-15.545,61.487-15.545
			c25.963,0,49.085,5.967,61.485,15.545v-1.867v-1.689C256.189,250.805,231.566,243.73,204.167,243.73z"/>
		<path d="M79.198,251.729c-27.356,0-51.944,7.072-61.395,17.621v1.691v1.867c12.382-9.578,35.468-15.545,61.395-15.545
			c25.922,0,49.002,5.967,61.39,15.545v-1.867v-1.691C131.138,258.801,106.553,251.729,79.198,251.729z"/>
		<path d="M204.167,251.729c-27.401,0-52.027,7.072-61.487,17.621v1.691v1.867c12.401-9.578,35.521-15.545,61.487-15.545
			c25.963,0,49.085,5.967,61.485,15.545v-1.867v-1.691C256.189,258.801,231.566,251.729,204.167,251.729z"/>
		<path d="M18.684,145.401v-5.254c0-6.079,5.928-12.28,16.262-17.016c0.783-0.359,1.589-0.705,2.408-1.042v-3.977
			c-13.674,5.287-22.369,13.194-22.369,22.034v8.821C16.119,147.678,17.359,146.487,18.684,145.401z"/>
		<path d="M68.896,115.324c2.943-0.195,5.94-0.297,8.975-0.297c16.277,0,31.521,2.879,42.927,8.104
			c10.333,4.735,16.261,10.937,16.261,17.016v111.729c-12.574-9.071-34.602-14.671-59.186-14.671
			c-24.586,0-46.616,5.602-59.189,14.672v-25.786c-1.326-1.09-2.563-2.284-3.697-3.577v34.971c0,0.803,0.166,1.567,0.459,2.274
			c9.358-11.006,33.772-18.854,62.428-18.854c28.648,0,53.066,7.85,62.428,18.854c0.294-0.707,0.457-1.474,0.457-2.274V140.147
			c0-15.917-28.158-28.818-62.887-28.818c-3.02,0-5.983,0.104-8.889,0.292c-0.051,1.112-0.086,2.229-0.086,3.354V115.324z"/>
		<path d="M264.779,223.871v28.008c-12.572-9.07-34.604-14.674-59.188-14.674c-24.588,0-46.616,5.6-59.188,14.669V140.147
			c0-6.079,5.928-12.28,16.261-17.016c11.403-5.226,26.647-8.104,42.928-8.104c3.062,0,6.085,0.103,9.054,0.302v-0.355
			c0-1.123-0.033-2.237-0.084-3.348c-2.932-0.192-5.924-0.298-8.97-0.298c-34.733,0-62.886,12.901-62.886,28.818v117.336
			c0,0.803,0.162,1.567,0.457,2.274c9.355-11.006,33.777-18.854,62.429-18.854c28.652,0,53.063,7.85,62.423,18.854
			c0.295-0.707,0.463-1.474,0.463-2.274v-36.994C267.343,221.712,266.105,222.843,264.779,223.871z"/>
		<path d="M248.518,123.132c10.334,4.735,16.262,10.938,16.262,17.016v7.471c1.324,1.028,2.564,2.153,3.699,3.373v-10.844
			c0-8.823-8.662-16.714-22.289-22v3.977C246.98,122.448,247.758,122.784,248.518,123.132z"/>
		<path d="M88.212,201.936h16.423c0.52,0,1.005-0.174,1.424-0.47l17.411,13.492c0.203,0.155,0.429,0.235,0.654,0.235
			c0.225,0,0.451-0.08,0.653-0.235c0.404-0.313,0.652-0.892,0.652-1.519v-55.792c0-0.627-0.249-1.206-0.652-1.52
			c-0.404-0.314-0.902-0.313-1.309,0l-17.412,13.492c-0.418-0.297-0.902-0.47-1.423-0.47H88.212c-1.555,0-2.813,1.52-2.813,3.393
			v25.999C85.398,200.416,86.657,201.936,88.212,201.936z"/>
		<polygon points="153.427,217.779 153.427,217.779 153.429,217.779 		"/>
		<path d="M153.413,217.798l0.014-0.019C153.42,217.783,153.346,217.854,153.413,217.798z"/>
		<path d="M160.962,170.882c-1.617-1.616-4.246-1.616-5.865,0c-1.616,1.619-1.616,4.247,0,5.864c4.709,4.83,4.709,12.765,0,17.595
			c-1.616,1.617-1.616,4.245,0,5.864c1.619,1.617,4.248,1.617,5.865,0C169.061,192.107,169.061,178.979,160.962,170.882z"/>
		<path d="M178.555,147.426c-1.619,1.618-1.619,4.246,0,5.864c17.484,17.746,17.492,46.729,0.019,64.489
			c-0.003,0,0.002-0.002-0.003,0l-0.014,0.019l-0.002,0.001c-1.619,1.617-1.619,4.244,0,5.863c1.619,1.617,4.246,1.617,5.865,0
			c21.052-21.053,21.052-55.187,0-76.236C182.801,145.807,180.174,145.807,178.555,147.426z"/>
		<path d="M172.691,159.153c-1.619-1.619-4.246-1.619-5.864,0c-1.619,1.618-1.619,4.246,0,5.863
			c11.12,11.29,11.124,29.736,0.012,41.038c0.021-0.02-0.063,0.057-0.012,0.014c-1.619,1.619-1.619,4.246,0,5.863
			c1.618,1.619,4.245,1.619,5.864,0C187.266,197.359,187.266,173.729,172.691,159.153z"/>
		<path d="M276.377,170.816c0-7.594-2.993-14.548-7.898-19.825c-1.135-1.22-2.375-2.345-3.699-3.373
			c-5.125-3.976-11.575-6.425-18.59-6.592v-18.903v-3.976v-3.173c0-14.037-2.771-27.682-8.241-40.556
			c-5.277-12.422-12.822-23.59-22.427-33.193S194.75,24.076,182.329,18.8c-12.873-5.469-26.521-8.243-40.558-8.243
			c-14.035,0-27.682,2.772-40.557,8.243c-12.42,5.276-23.588,12.822-33.191,22.426c-9.604,9.604-17.149,20.771-22.428,33.192
			c-5.47,12.874-8.242,26.52-8.242,40.556v3.141v3.977v16.335c-7.045,0.159-13.525,2.753-18.67,6.976
			c-1.324,1.086-2.563,2.275-3.697,3.566c-4.906,5.584-7.899,12.941-7.899,20.979v31.565c0,8.045,2.995,15.409,7.899,20.999
			c1.135,1.294,2.371,2.488,3.697,3.578c5.313,4.362,12.049,6.987,19.359,6.987h30.958v-94.67h-0.104v-23.082v-0.351
			c0-1.124,0.034-2.241,0.084-3.354c1.76-38.632,33.73-69.521,72.791-69.521c39.062,0,71.033,30.893,72.789,69.528
			c0.051,1.11,0.086,2.225,0.086,3.348v0.356v25.677h-0.184v89.467h30.958c7.312,0,14.047-2.479,19.358-6.603
			c1.326-1.029,2.563-2.16,3.697-3.382c4.905-5.282,7.9-12.241,7.899-19.844L276.377,170.816L276.377,170.816z"/>
	</g>
</g>
</svg>
