<?xml version="1.0" encoding="utf-8"?>
<!-- Generator: Adobe Illustrator 15.1.0, SVG Export Plug-In . SVG Version: 6.00 Build 0)  -->
<!DOCTYPE svg PUBLIC "-//W3C//DTD SVG 1.1//EN" "http://www.w3.org/Graphics/SVG/1.1/DTD/svg11.dtd">
<svg version="1.1" id="Layer_1" xmlns="http://www.w3.org/2000/svg" xmlns:xlink="http://www.w3.org/1999/xlink" x="0px" y="0px"
	 width="283.465px" height="283.465px" viewBox="0 0 283.465 283.465" enable-background="new 0 0 283.465 283.465"
	 xml:space="preserve">
<g id="Layer_4">
</g>
<g id="Layer_5">
</g>
<g id="Layer_1_1_">
</g>
<g id="Layer_3">
</g>
<g id="Layer_2">
</g>
<g id="Layer_6">
	<g>
		<path fill="none" d="M220.2,147.901c-13.486,0-24.42,10.932-24.42,24.42c0,13.486,10.934,24.418,24.42,24.418
			s24.42-10.932,24.42-24.418C244.62,158.833,233.687,147.901,220.2,147.901z M244.03,172.321c0,3.217-0.631,6.338-1.871,9.275
			c-1.201,2.838-2.92,5.385-5.107,7.574s-4.738,3.908-7.576,5.107c-2.938,1.24-6.059,1.873-9.273,1.873
			c-3.217,0-6.338-0.633-9.275-1.873c-2.838-1.199-5.387-2.918-7.576-5.107c-2.188-2.189-3.904-4.736-5.105-7.574
			c-1.242-2.938-1.873-6.059-1.873-9.275s0.631-6.338,1.873-9.277c1.201-2.836,2.918-5.385,5.105-7.574
			c2.189-2.188,4.738-3.906,7.576-5.104c2.938-1.244,6.059-1.873,9.275-1.873c3.215,0,6.338,0.629,9.273,1.873
			c2.838,1.197,5.389,2.918,7.576,5.104c2.188,2.189,3.906,4.738,5.107,7.574C243.399,165.983,244.03,169.104,244.03,172.321z"/>
		<path fill="none" d="M220.2,163.774c-4.721,0-8.547,3.826-8.547,8.547s3.826,8.547,8.547,8.547s8.547-3.826,8.547-8.547
			S224.921,163.774,220.2,163.774z M220.2,177.921c-3.094,0-5.602-2.508-5.602-5.6c0-3.096,2.508-5.602,5.602-5.602
			s5.6,2.506,5.6,5.602C225.8,175.413,223.294,177.921,220.2,177.921z"/>
		<path fill="none" d="M220.2,156.405c-8.789,0-15.916,7.125-15.916,15.916c0,8.789,7.127,15.916,15.916,15.916
			c8.791,0,15.916-7.127,15.916-15.916C236.116,163.53,228.991,156.405,220.2,156.405z M218.919,160.546v-0.816v-0.121l0.086-0.088
			l0.578-0.576l0.088-0.088h0.121h0.816h0.123l0.086,0.088l0.576,0.576l0.088,0.088v0.121v0.816v0.123l-0.088,0.086l-0.576,0.578
			l-0.086,0.086h-0.123h-0.816h-0.121l-0.088-0.086l-0.578-0.578l-0.086-0.086V160.546z M208.337,165.942l0.408-0.707l0.061-0.105
			l0.119-0.033l0.789-0.211l0.117-0.031l0.105,0.063l0.707,0.408l0.105,0.063l0.031,0.117l0.213,0.789l0.031,0.119l-0.063,0.104
			l-0.408,0.707l-0.061,0.105l-0.119,0.031l-0.789,0.213l-0.117,0.031l-0.105-0.061l-0.707-0.41l-0.105-0.061l-0.031-0.117
			l-0.213-0.789l-0.031-0.119L208.337,165.942z M210.993,178.349l-0.211,0.789l-0.031,0.119l-0.105,0.061l-0.709,0.408l-0.104,0.061
			l-0.119-0.031l-0.789-0.211l-0.117-0.031l-0.063-0.104l-0.408-0.709l-0.061-0.105l0.031-0.117l0.211-0.789l0.031-0.119
			l0.105-0.061l0.709-0.408l0.104-0.061l0.119,0.031l0.789,0.211l0.117,0.029l0.061,0.105l0.41,0.709l0.061,0.105L210.993,178.349z
			 M221.481,184.095v0.816v0.123l-0.088,0.086l-0.576,0.578l-0.086,0.086h-0.123h-0.816h-0.121l-0.088-0.086l-0.578-0.578
			l-0.086-0.086v-0.123v-0.816v-0.123l0.086-0.086l0.578-0.578l0.088-0.086h0.121h0.816h0.123l0.086,0.086l0.576,0.578l0.088,0.086
			V184.095z M220.2,181.753c-2.52,0-4.889-0.98-6.668-2.764c-1.783-1.781-2.764-4.148-2.764-6.668c0-2.521,0.98-4.891,2.764-6.67
			c1.781-1.781,4.148-2.764,6.668-2.764s4.889,0.98,6.67,2.764c1.781,1.779,2.762,4.148,2.762,6.67c0,2.52-0.98,4.887-2.762,6.668
			C225.089,180.772,222.72,181.753,220.2,181.753z M232.063,178.698l-0.408,0.709l-0.061,0.105l-0.119,0.031l-0.789,0.211
			l-0.117,0.031l-0.105-0.063l-0.707-0.406l-0.105-0.063l-0.031-0.119l-0.211-0.789l-0.031-0.115l0.061-0.105l0.408-0.709
			l0.063-0.105l0.117-0.031l0.789-0.211l0.117-0.031l0.105,0.061l0.709,0.408l0.104,0.063l0.031,0.117l0.213,0.789l0.031,0.117
			L232.063,178.698z M231.595,165.13l0.063,0.105l0.406,0.707l0.064,0.104l-0.033,0.119l-0.211,0.789l-0.031,0.117l-0.105,0.061
			l-0.707,0.41l-0.105,0.061l-0.119-0.029l-0.789-0.213l-0.117-0.031l-0.061-0.105l-0.408-0.707l-0.063-0.105l0.031-0.119
			l0.211-0.789l0.031-0.117l0.105-0.063l0.709-0.408l0.105-0.061l0.117,0.031l0.789,0.211L231.595,165.13z"/>
		<path fill="none" d="M62.706,163.644c-4.785,0-8.678,3.893-8.678,8.678c0,4.783,3.893,8.676,8.678,8.676s8.678-3.893,8.678-8.676
			C71.384,167.536,67.491,163.644,62.706,163.644z M62.706,177.792c-3.018,0-5.471-2.455-5.471-5.471
			c0-3.02,2.453-5.473,5.471-5.473c3.016,0,5.471,2.453,5.471,5.473C68.177,175.337,65.722,177.792,62.706,177.792z"/>
		<path fill="none" d="M62.706,156.274c-8.848,0-16.045,7.199-16.045,16.047s7.197,16.045,16.045,16.045s16.045-7.197,16.045-16.045
			S71.554,156.274,62.706,156.274z M61.556,159.661l0.674-0.674h0.953l0.676,0.674v0.953l-0.676,0.676h-0.953l-0.674-0.676V159.661z
			 M53.144,179.171l-0.824,0.477l-0.924-0.246l-0.477-0.828l0.248-0.92l0.826-0.477l0.92,0.246l0.477,0.826L53.144,179.171z
			 M52.915,167.218l-0.922,0.248l-0.826-0.477l-0.246-0.922l0.477-0.826l0.922-0.248l0.826,0.477l0.246,0.922L52.915,167.218z
			 M63.856,184.979l-0.674,0.676h-0.955l-0.674-0.676v-0.953l0.674-0.674h0.955l0.674,0.674V184.979z M69.284,178.897
			c-1.758,1.758-4.094,2.727-6.578,2.727s-4.82-0.969-6.578-2.727c-1.756-1.756-2.725-4.092-2.725-6.576s0.969-4.82,2.725-6.578
			c1.758-1.756,4.094-2.725,6.578-2.725s4.82,0.969,6.578,2.725c1.756,1.756,2.725,4.092,2.725,6.578
			C72.009,174.804,71.04,177.142,69.284,178.897z M74.015,179.401l-0.922,0.246l-0.826-0.477l-0.246-0.922l0.477-0.826l0.922-0.246
			l0.826,0.477l0.246,0.922L74.015,179.401z M74.245,166.989l-0.826,0.477l-0.922-0.248l-0.477-0.826l0.246-0.922l0.826-0.477
			l0.922,0.248l0.477,0.826L74.245,166.989z"/>
		<path fill="none" d="M137.427,131.452h-8.973c-1.857,0-3.363,1.506-3.363,3.364s1.506,3.364,3.363,3.364h8.973
			c1.857,0,3.365-1.506,3.365-3.364S139.284,131.452,137.427,131.452z"/>
		<path fill="none" d="M270.618,148.937h-7.932c-1.461,0-2.646,1.508-2.646,3.365c0,1.859,1.186,3.365,2.646,3.365h7.932
			c1.463,0,2.648-1.506,2.648-3.365C273.267,150.444,272.081,148.937,270.618,148.937z"/>
		<path fill="none" d="M179.866,96.96l-1.232-6.205c0-1.104-1.975-2.355-3.213-2.355h-3.891h-8.301h-34.414h-1.213v0.318
			c-0.619,0.356-1.027,0.977-1.027,1.683v6.56l0.85,13.674v8.723c0,0.706,0.41,1.325,1.029,1.682c0.35,0.201,0.766,0.32,1.213,0.32
			h47.855h1.959h1.416c1.238,0,3.367,0.357,3.473-0.318l-2.066-10.404L179.866,96.96z"/>
		<path fill="none" d="M62.706,147.771c-13.537,0-24.55,11.014-24.55,24.551c0,13.535,11.013,24.549,24.55,24.549
			s24.549-11.014,24.549-24.549C87.255,158.784,76.243,147.771,62.706,147.771z M86.407,172.321c0,3.199-0.627,6.303-1.863,9.225
			c-1.193,2.822-2.902,5.357-5.08,7.533c-2.178,2.178-4.713,3.887-7.533,5.08c-2.92,1.236-6.023,1.861-9.225,1.861
			s-6.305-0.625-9.227-1.861c-2.818-1.193-5.354-2.902-7.532-5.08c-2.178-2.178-3.887-4.713-5.079-7.533
			c-1.236-2.922-1.861-6.025-1.861-9.225c0-3.201,0.625-6.305,1.861-9.227c1.193-2.82,2.901-5.355,5.079-7.533
			c2.179-2.178,4.714-3.887,7.532-5.078c2.924-1.236,6.025-1.863,9.227-1.863c3.199,0,6.303,0.627,9.225,1.863
			c2.82,1.191,5.355,2.9,7.533,5.078s3.887,4.713,5.08,7.533C85.78,166.017,86.407,169.12,86.407,172.321z"/>
		<path d="M71.931,150.483c-2.922-1.236-6.023-1.863-9.225-1.863c-3.199,0-6.303,0.627-9.227,1.863
			c-2.818,1.191-5.354,2.9-7.532,5.078c-2.178,2.178-3.886,4.713-5.079,7.533c-1.236,2.922-1.861,6.025-1.861,9.227
			c0,3.199,0.625,6.303,1.861,9.225c1.192,2.82,2.901,5.355,5.079,7.533c2.179,2.178,4.714,3.887,7.532,5.08
			c2.922,1.236,6.025,1.861,9.227,1.861s6.305-0.625,9.225-1.861c2.82-1.193,5.355-2.902,7.533-5.08
			c2.178-2.176,3.887-4.711,5.08-7.533c1.236-2.922,1.863-6.025,1.863-9.225c0-3.201-0.627-6.305-1.863-9.227
			c-1.193-2.82-2.902-5.355-5.08-7.533S74.751,151.675,71.931,150.483z M62.706,188.366c-8.848,0-16.045-7.197-16.045-16.045
			s7.197-16.047,16.045-16.047s16.045,7.199,16.045,16.047S71.554,188.366,62.706,188.366z"/>
		<path d="M91.296,167.538h-0.23l-0.02-0.107c-0.107-0.631-0.24-1.268-0.389-1.891l-0.035-0.139l0.143-0.021
			c0.064-0.01,0.125-0.027,0.178-0.055c0.232-0.094,0.391-0.252,0.441-0.438c0.043-0.154,0.012-0.309-0.094-0.449l-0.018-0.027
			l-2.848-6.877c-0.072-0.344-0.375-0.488-0.629-0.488c-0.1,0-0.195,0.021-0.275,0.064l-0.031,0.012
			c-0.063,0.012-0.119,0.035-0.176,0.066l-0.109,0.068l-0.068-0.109c-0.357-0.576-0.746-1.152-1.15-1.711l-0.092-0.127l0.141-0.064
			c0.063-0.029,0.115-0.066,0.16-0.111c0.178-0.178,0.27-0.381,0.256-0.572c-0.012-0.158-0.096-0.301-0.242-0.41l-5.318-5.318
			c-0.232-0.232-0.764-0.232-0.996,0c-0.045,0.045-0.08,0.098-0.109,0.16l-0.066,0.141l-0.127-0.092
			c-0.645-0.469-1.316-0.914-1.99-1.324l-0.137-0.082l0.109-0.117c0.061-0.063,0.109-0.135,0.146-0.209
			c0.162-0.32,0.008-0.734-0.334-0.906l-7.063-2.848c-0.074-0.037-0.146-0.053-0.221-0.053c-0.264,0-0.557,0.203-0.697,0.482
			c-0.029,0.059-0.045,0.123-0.047,0.193l-0.006,0.158l-0.152-0.035c-0.848-0.195-1.715-0.354-2.582-0.473l-0.109-0.016
			l-0.002-0.107c-0.014-0.41-0.344-0.73-0.754-0.73h-7.072c-0.424,0-0.756,0.332-0.756,0.756v0.23l-0.105,0.02
			c-0.672,0.113-1.344,0.254-2.004,0.416l-0.125,0.031l-0.029-0.127c-0.014-0.045-0.027-0.086-0.043-0.119l-0.014-0.033
			c-0.063-0.318-0.365-0.463-0.619-0.463c-0.1,0-0.193,0.021-0.275,0.063l-6.885,2.852c-0.195,0.043-0.334,0.154-0.416,0.32
			c-0.092,0.188-0.096,0.412-0.009,0.584c0.034,0.068,0.082,0.133,0.144,0.193l0.115,0.115l-0.139,0.086
			c-0.577,0.361-1.146,0.746-1.693,1.143l-0.128,0.092l-0.065-0.141c-0.029-0.063-0.066-0.117-0.11-0.16
			c-0.233-0.234-0.763-0.232-0.996,0l-5.306,5.305c-0.115,0.117-0.184,0.299-0.184,0.498c0,0.201,0.067,0.383,0.184,0.498
			c0.045,0.045,0.098,0.082,0.16,0.111l0.141,0.066l-0.092,0.127c-0.451,0.621-0.885,1.27-1.285,1.928l-0.087,0.143l-0.117-0.119
			c-0.071-0.074-0.157-0.137-0.244-0.182c-0.292-0.145-0.728,0.076-0.905,0.434l-2.847,6.967c-0.162,0.324,0.095,0.748,0.431,0.916
			c0.063,0.031,0.139,0.053,0.221,0.061l0.15,0.012l-0.035,0.146c-0.129,0.555-0.244,1.123-0.342,1.688l-0.019,0.107H34.12
			c-0.423,0-0.754,0.332-0.754,0.754v7.074c0,0.41,0.319,0.74,0.729,0.754l0.109,0.002l0.016,0.109
			c0.137,1.002,0.326,2.004,0.566,2.98l0.031,0.127l-0.126,0.031c-0.044,0.01-0.084,0.021-0.121,0.043l-0.032,0.01
			c-0.17,0.035-0.309,0.145-0.391,0.313c-0.092,0.188-0.096,0.412-0.01,0.584l2.854,6.885c0.07,0.342,0.374,0.486,0.629,0.486
			c0.1,0,0.193-0.021,0.273-0.061c0.068-0.035,0.135-0.084,0.193-0.143l0.115-0.117l0.088,0.139
			c0.357,0.576,0.742,1.146,1.141,1.693l0.093,0.127l-0.142,0.064c-0.063,0.029-0.115,0.066-0.16,0.111
			c-0.115,0.117-0.184,0.297-0.184,0.498c0,0.199,0.067,0.381,0.184,0.498l5.307,5.305c0.232,0.232,0.764,0.232,0.995,0
			c0.043-0.043,0.08-0.098,0.11-0.16l0.066-0.141l0.126,0.092c0.626,0.455,1.274,0.887,1.929,1.285l0.144,0.088l-0.12,0.117
			c-0.074,0.072-0.137,0.156-0.18,0.242c-0.163,0.326,0.098,0.74,0.434,0.908l6.967,2.846c0.072,0.035,0.143,0.053,0.219,0.053
			c0.264,0,0.557-0.203,0.697-0.48c0.031-0.064,0.051-0.141,0.057-0.225l0.014-0.146l0.146,0.031
			c0.551,0.131,1.119,0.244,1.688,0.344l0.107,0.018v0.232c0,0.424,0.332,0.754,0.754,0.754h7.074c0.408,0,0.74-0.32,0.754-0.73
			l0.002-0.107l0.109-0.018c0.961-0.131,1.926-0.313,2.869-0.539l0.139-0.031l0.02,0.141c0.012,0.066,0.029,0.127,0.057,0.178
			c0.17,0.422,0.572,0.582,0.887,0.348l0.027-0.016l6.877-2.85c0.195-0.041,0.334-0.152,0.416-0.32
			c0.092-0.188,0.096-0.41,0.01-0.582l-0.012-0.033c-0.014-0.063-0.035-0.119-0.068-0.174l-0.068-0.111l0.109-0.068
			c0.582-0.361,1.158-0.748,1.711-1.15l0.127-0.092l0.066,0.141c0.029,0.064,0.066,0.115,0.109,0.16
			c0.328,0.326,0.742,0.336,0.984,0.016l5.316-5.32c0.248-0.246,0.248-0.748,0-0.994c-0.043-0.045-0.098-0.082-0.158-0.111
			l-0.143-0.066l0.092-0.127c0.467-0.643,0.912-1.313,1.322-1.99l0.084-0.137l0.117,0.109c0.064,0.061,0.135,0.111,0.211,0.148
			c0.311,0.156,0.742-0.01,0.906-0.334l2.846-7.064c0.162-0.326-0.094-0.75-0.43-0.916c-0.059-0.031-0.123-0.047-0.193-0.049
			l-0.158-0.004l0.035-0.154c0.195-0.846,0.355-1.715,0.473-2.582l0.016-0.107l0.109-0.004c0.408-0.014,0.729-0.344,0.729-0.754
			v-7.072C92.05,167.87,91.718,167.538,91.296,167.538z M62.706,196.87c-13.537,0-24.55-11.016-24.55-24.549
			c0-13.537,11.013-24.553,24.55-24.553s24.549,11.016,24.549,24.553C87.255,185.856,76.243,196.87,62.706,196.87z"/>
		<polygon points="63.183,161.29 63.856,160.614 63.856,159.661 63.183,158.987 62.228,158.987 61.556,159.661 61.556,160.614 
			62.228,161.29 		"/>
		<polygon points="52.319,164.993 51.396,165.241 50.921,166.067 51.167,166.989 51.993,167.466 52.915,167.218 53.39,166.392 
			53.144,165.47 		"/>
		<polygon points="51.993,177.177 51.167,177.653 50.921,178.573 51.396,179.401 52.319,179.647 53.144,179.171 53.39,178.249 
			52.915,177.423 		"/>
		<polygon points="62.228,183.353 61.556,184.026 61.556,184.979 62.228,185.655 63.183,185.655 63.856,184.979 63.856,184.026 
			63.183,183.353 		"/>
		<polygon points="73.419,177.177 72.497,177.423 72.021,178.249 72.267,179.171 73.093,179.647 74.015,179.401 74.491,178.575 
			74.245,177.653 		"/>
		<polygon points="73.093,164.993 72.267,165.47 72.021,166.392 72.497,167.218 73.419,167.466 74.245,166.989 74.491,166.067 
			74.015,165.241 		"/>
		<path d="M62.706,163.019c-2.484,0-4.82,0.969-6.578,2.725c-1.756,1.758-2.725,4.094-2.725,6.578s0.969,4.82,2.725,6.576
			c1.758,1.758,4.094,2.727,6.578,2.727s4.82-0.969,6.578-2.727c1.756-1.756,2.725-4.094,2.725-6.576
			c0-2.486-0.969-4.822-2.725-6.578C67.526,163.987,65.19,163.019,62.706,163.019z M62.706,180.997
			c-4.785,0-8.678-3.895-8.678-8.676c0-4.785,3.893-8.68,8.678-8.68s8.678,3.895,8.678,8.68
			C71.384,177.104,67.491,180.997,62.706,180.997z"/>
		<path d="M62.706,166.851c-3.018,0-5.471,2.453-5.471,5.471c0,3.016,2.453,5.471,5.471,5.471c3.016,0,5.471-2.455,5.471-5.471
			C68.177,169.304,65.722,166.851,62.706,166.851z"/>
		<path d="M229.476,150.364c-2.938-1.244-6.059-1.873-9.275-1.873c-3.215,0-6.338,0.629-9.275,1.873
			c-2.838,1.199-5.385,2.918-7.574,5.105c-2.188,2.189-3.906,4.738-5.105,7.574c-1.244,2.939-1.873,6.061-1.873,9.277
			c0,3.215,0.629,6.338,1.873,9.273c1.199,2.838,2.918,5.387,5.105,7.574c2.189,2.189,4.738,3.908,7.574,5.107
			c2.939,1.242,6.061,1.873,9.275,1.873c3.217,0,6.338-0.631,9.275-1.873c2.838-1.199,5.387-2.918,7.574-5.107
			c2.189-2.188,3.908-4.736,5.107-7.574c1.242-2.938,1.873-6.059,1.873-9.273c0-3.217-0.631-6.338-1.873-9.277
			c-1.199-2.836-2.918-5.385-5.107-7.574C234.862,153.282,232.313,151.563,229.476,150.364z M220.2,188.237
			c-8.789,0-15.916-7.127-15.916-15.916c0-8.791,7.127-15.916,15.916-15.916c8.791,0,15.916,7.125,15.916,15.916
			C236.116,181.11,228.991,188.237,220.2,188.237z"/>
		<path d="M248.79,167.409h-0.121c-0.109-0.643-0.24-1.273-0.393-1.898c0.076-0.012,0.15-0.033,0.219-0.068
			c0.121-0.047,0.223-0.113,0.305-0.191c0.254-0.238,0.313-0.592,0.088-0.889l-2.848-6.877c-0.1-0.49-0.689-0.688-1.082-0.49
			c-0.08,0.016-0.152,0.047-0.217,0.086c-0.365-0.588-0.752-1.16-1.156-1.719c0.072-0.035,0.139-0.08,0.195-0.137
			c0.393-0.393,0.393-0.883,0-1.178l-5.307-5.307c-0.295-0.295-0.885-0.295-1.18,0c-0.055,0.057-0.1,0.123-0.135,0.193
			c-0.646-0.469-1.314-0.914-2-1.326c0.068-0.074,0.127-0.154,0.17-0.242c0.197-0.395,0-0.887-0.395-1.08l-7.072-2.852
			c-0.393-0.195-0.885,0.1-1.08,0.49c-0.041,0.08-0.061,0.164-0.063,0.248c-0.852-0.195-1.715-0.354-2.594-0.473
			c-0.014-0.479-0.4-0.855-0.883-0.855h-7.072c-0.492,0-0.885,0.395-0.885,0.885v0.121c-0.68,0.117-1.35,0.258-2.01,0.418
			c-0.014-0.051-0.029-0.1-0.055-0.145c-0.098-0.492-0.688-0.689-1.08-0.492l-6.877,2.85c-0.492,0.098-0.688,0.688-0.492,1.08
			c0.043,0.088,0.102,0.162,0.168,0.229c-0.58,0.363-1.148,0.746-1.701,1.146c-0.035-0.072-0.08-0.139-0.137-0.195
			c-0.295-0.295-0.883-0.295-1.178,0l-5.307,5.307c-0.295,0.295-0.295,0.883,0,1.178c0.057,0.059,0.123,0.104,0.195,0.139
			c-0.455,0.627-0.887,1.271-1.293,1.938c-0.082-0.084-0.176-0.156-0.277-0.207c-0.393-0.197-0.885,0.098-1.08,0.492l-2.85,6.975
			c-0.111,0.223-0.063,0.477,0.07,0.691c0.104,0.164,0.25,0.305,0.42,0.389c0.082,0.041,0.176,0.064,0.27,0.072
			c-0.025,0.107-0.047,0.215-0.07,0.322c-0.1,0.455-0.193,0.912-0.273,1.375h-0.121c-0.49,0-0.885,0.393-0.885,0.883v7.074
			c0,0.479,0.379,0.867,0.855,0.883c0.137,1.016,0.328,2.014,0.568,2.994c-0.051,0.012-0.102,0.027-0.146,0.053
			c-0.49,0.098-0.688,0.688-0.49,1.082l2.85,6.877c0.098,0.49,0.688,0.688,1.08,0.49c0.086-0.043,0.162-0.102,0.229-0.168
			c0.361,0.582,0.744,1.148,1.146,1.701c-0.072,0.033-0.141,0.08-0.195,0.137c-0.295,0.295-0.295,0.885,0,1.18l5.305,5.305
			c0.295,0.295,0.885,0.295,1.18,0c0.057-0.057,0.102-0.123,0.137-0.195c0.627,0.455,1.271,0.887,1.938,1.291
			c-0.084,0.082-0.156,0.178-0.207,0.279c-0.195,0.393,0.1,0.883,0.492,1.08l6.975,2.85c0.395,0.197,0.885-0.098,1.082-0.49
			c0.041-0.084,0.063-0.176,0.07-0.27c0.561,0.131,1.125,0.244,1.697,0.342v0.123c0,0.492,0.393,0.885,0.885,0.885h7.072
			c0.48,0,0.867-0.379,0.883-0.855c0.979-0.133,1.938-0.313,2.883-0.543c0.012,0.076,0.033,0.15,0.066,0.221
			c0.195,0.488,0.688,0.688,1.08,0.393l6.879-2.85c0.49-0.1,0.688-0.689,0.49-1.08c-0.018-0.08-0.047-0.152-0.088-0.217
			c0.59-0.365,1.162-0.752,1.721-1.158c0.033,0.074,0.08,0.141,0.137,0.197c0.393,0.393,0.883,0.393,1.178,0l5.307-5.309
			c0.295-0.295,0.295-0.883,0-1.178c-0.057-0.057-0.123-0.102-0.195-0.137c0.469-0.646,0.912-1.313,1.33-1.998
			c0.07,0.068,0.152,0.125,0.24,0.17c0.393,0.195,0.885,0,1.08-0.395l2.852-7.072c0.195-0.395-0.1-0.885-0.492-1.082
			c-0.08-0.039-0.164-0.059-0.248-0.061c0.195-0.852,0.355-1.717,0.475-2.594c0.479-0.014,0.854-0.4,0.854-0.883v-7.072
			C249.675,167.802,249.282,167.409,248.79,167.409z M220.2,196.739c-13.486,0-24.42-10.932-24.42-24.418
			c0-13.488,10.934-24.42,24.42-24.42s24.42,10.932,24.42,24.42C244.62,185.808,233.687,196.739,220.2,196.739z"/>
		<polygon points="219.583,161.333 219.671,161.419 219.792,161.419 220.608,161.419 220.731,161.419 220.817,161.333 
			221.394,160.755 221.481,160.669 221.481,160.546 221.481,159.729 221.481,159.608 221.394,159.521 220.817,158.944 
			220.731,158.856 220.608,158.856 219.792,158.856 219.671,158.856 219.583,158.944 219.005,159.521 218.919,159.608 
			218.919,159.729 218.919,160.546 218.919,160.669 219.005,160.755 		"/>
		<polygon points="208.519,166.956 208.55,167.073 208.655,167.134 209.364,167.544 209.47,167.604 209.587,167.573 210.376,167.36 
			210.495,167.329 210.556,167.224 210.964,166.517 211.024,166.411 210.993,166.292 210.782,165.503 210.751,165.386 
			210.644,165.323 209.937,164.915 209.831,164.854 209.714,164.886 208.925,165.097 208.806,165.13 208.745,165.235 
			208.337,165.942 208.274,166.048 208.306,166.167 		"/>
		<polygon points="210.556,177.417 210.495,177.312 210.376,177.28 209.587,177.069 209.47,177.038 209.364,177.099 
			208.655,177.507 208.55,177.567 208.519,177.687 208.306,178.476 208.274,178.593 208.337,178.698 208.745,179.407 
			208.806,179.513 208.925,179.544 209.714,179.755 209.831,179.786 209.937,179.726 210.644,179.317 210.751,179.257 
			210.782,179.138 210.993,178.349 211.024,178.231 210.964,178.126 		"/>
		<polygon points="220.817,183.308 220.731,183.222 220.608,183.222 219.792,183.222 219.671,183.222 219.583,183.308 
			219.005,183.886 218.919,183.972 218.919,184.095 218.919,184.911 218.919,185.034 219.005,185.12 219.583,185.698 
			219.671,185.784 219.792,185.784 220.608,185.784 220.731,185.784 220.817,185.698 221.394,185.12 221.481,185.034 
			221.481,184.911 221.481,184.095 221.481,183.972 221.394,183.886 		"/>
		<polygon points="231.882,177.687 231.851,177.567 231.745,177.507 231.038,177.099 230.931,177.038 230.813,177.069 
			230.024,177.28 229.907,177.312 229.847,177.417 229.437,178.126 229.376,178.231 229.407,178.349 229.618,179.138 
			229.649,179.257 229.757,179.317 230.464,179.726 230.569,179.786 230.687,179.755 231.476,179.544 231.595,179.513 
			231.655,179.407 232.063,178.698 232.126,178.593 232.095,178.476 		"/>
		<polygon points="230.569,164.854 230.464,164.915 229.757,165.323 229.649,165.386 229.618,165.503 229.407,166.292 
			229.376,166.411 229.437,166.517 229.847,167.224 229.907,167.329 230.024,167.36 230.813,167.573 230.931,167.604 
			231.038,167.544 231.745,167.134 231.851,167.073 231.882,166.956 232.095,166.167 232.126,166.048 232.063,165.942 
			231.655,165.235 231.595,165.13 231.476,165.097 230.687,164.886 		"/>
		<path d="M226.87,165.651c-1.781-1.781-4.15-2.762-6.67-2.762s-4.889,0.98-6.668,2.762c-1.781,1.781-2.764,4.15-2.764,6.67
			s0.98,4.887,2.764,6.668c1.779,1.783,4.148,2.764,6.668,2.764s4.889-0.979,6.67-2.764c1.779-1.781,2.762-4.148,2.762-6.668
			S228.651,167.433,226.87,165.651z M220.2,180.868c-4.721,0-8.547-3.826-8.547-8.547c0-4.723,3.826-8.547,8.547-8.547
			s8.547,3.824,8.547,8.547C228.747,177.042,224.921,180.868,220.2,180.868z"/>
		<circle cx="220.2" cy="172.321" r="5.6"/>
		<path d="M191.806,165.64c-0.168-0.084-0.316-0.225-0.418-0.389h-1.977c-0.039,0.26-0.074,0.52-0.105,0.783h2.699
			c0.023-0.107,0.045-0.215,0.07-0.322C191.981,165.704,191.89,165.681,191.806,165.64z"/>
		<path d="M274.937,147.997c-1.088-1.381-2.662-2.172-4.318-2.172h-0.188v-1.988c0-2.973-0.943-5.922-2.535-8.498
			c0.084,0.06,0.086-0.034,0.086-0.522l-1.328-11.026c0-1.219-7.691-7.779-9.021-7.779h-56.045c-0.145,0-0.283,0.014-0.42,0.035
			l-1.781-5.412l-3.482-13.674l-3.371-10.242c0.289-0.495,0.455-1.069,0.455-1.684c0-1.857-1.508-3.365-3.363-3.365H171.53h-8.299
			h-35.629c-7.518,0-13.668,6.15-13.668,13.67v1.621l0.852,13.674v6.793c0.637,0.592,1.037,1.424,1.037,2.345v3.707
			c0,1.788-1.498,3.243-3.338,3.243H18.196v27.5H9.691c-1.438,0-2.604,1.291-2.604,2.883v6.242c0,1.592,1.166,2.883,2.604,2.883
			h9.948c0.332,0,0.646-0.07,0.939-0.195h3.504c2.264-19.307,18.719-34.337,38.623-34.337c19.902,0,36.357,15.03,38.621,34.337
			h13.457h66.709c1.438-14.879,11.297-27.33,24.736-32.521c4.338-1.676,9.049-2.598,13.971-2.598c6.414,0,12.471,1.563,17.811,4.324
			c11.449,5.924,19.6,17.373,20.896,30.795h11.523v-7.256h0.188c1.656,0,3.23-0.791,4.318-2.172c0.93-1.184,1.441-2.713,1.441-4.307
			S275.866,149.181,274.937,147.997z M137.427,138.181h-8.973c-1.857,0-3.363-1.506-3.363-3.364s1.506-3.364,3.363-3.364h8.973
			c1.857,0,3.365,1.506,3.365,3.364S139.284,138.181,137.427,138.181z M180.899,121.356h-1.418h-1.957h-47.857
			c-0.447,0-0.863-0.119-1.213-0.32c-0.617-0.355-1.027-0.976-1.027-1.682v-8.723l-0.852-13.674v-6.56
			c0-0.706,0.41-1.325,1.027-1.683v-0.318h1.213h34.416h8.299h3.891c1.238,0,3.213,1.251,3.213,2.355l1.232,6.205l2.438,13.674
			l2.066,10.404C184.267,121.716,182.138,121.356,180.899,121.356z M270.618,155.667h-7.932c-1.461,0-2.646-1.506-2.646-3.365
			c0-1.857,1.186-3.365,2.646-3.365h7.932c1.463,0,2.648,1.508,2.648,3.365C273.267,154.161,272.081,155.667,270.618,155.667z"/>
		<path d="M62.706,132.734c-20.871,0-37.853,16.981-37.853,37.854c0,1.568,1.276,2.846,2.846,2.846c1.57,0,2.847-1.277,2.847-2.846
			c0-17.734,14.428-32.164,32.16-32.164s32.162,14.428,32.162,32.164c0,1.568,1.275,2.846,2.846,2.846s2.846-1.277,2.846-2.846
			C100.558,149.716,83.579,132.734,62.706,132.734z"/>
		<path d="M220.202,131.952c-20.873,0-37.855,16.982-37.855,37.854c0,1.57,1.277,2.846,2.848,2.846c1.568,0,2.846-1.275,2.846-2.846
			c0-17.734,14.428-32.161,32.162-32.161c17.732,0,32.16,14.427,32.16,32.161c0,1.57,1.275,2.846,2.846,2.846
			s2.846-1.275,2.846-2.846C258.054,148.935,241.073,131.952,220.202,131.952z"/>
		<path d="M13.263,124.646h99.225c0.695,0,1.262-0.523,1.262-1.168v-3.707c0-0.645-0.566-1.168-1.262-1.168H13.263
			c-0.694,0-1.262,0.523-1.262,1.168v3.707C12.001,124.122,12.567,124.646,13.263,124.646z"/>
	</g>
</g>
</svg>
