<?xml version="1.0" encoding="utf-8"?>
<!-- Generator: Adobe Illustrator 15.1.0, SVG Export Plug-In . SVG Version: 6.00 Build 0)  -->
<!DOCTYPE svg PUBLIC "-//W3C//DTD SVG 1.1//EN" "http://www.w3.org/Graphics/SVG/1.1/DTD/svg11.dtd">
<svg version="1.1" id="Layer_1" xmlns="http://www.w3.org/2000/svg" xmlns:xlink="http://www.w3.org/1999/xlink" x="0px" y="0px"
	 width="283.465px" height="283.465px" viewBox="0 0 283.465 283.465" enable-background="new 0 0 283.465 283.465"
	 xml:space="preserve">
<g>
	<path fill="none" d="M208.685,87.181h-31.74c-4.959,0-9.176,4.216-9.176,9.175v15.126c0,4.959,3.969,9.175,9.176,9.175h31.74
		c4.959,0,9.174-4.216,9.174-9.175V96.355C217.858,91.396,213.892,87.181,208.685,87.181z"/>
	<path fill="none" d="M118.425,87.181H49.987c-4.96,0-9.176,4.216-9.176,9.175v15.126c0,4.959,3.968,9.175,9.176,9.175h68.438
		c4.959,0,9.174-4.216,9.174-9.175V96.355C127.599,91.396,123.632,87.181,118.425,87.181z"/>
	<path d="M267.452,183.64H244.64v-80.094c0-24.301-19.59-44.139-43.891-44.139H50.978c-24.301,0-43.891,19.838-43.891,44.139v56.785
		c0,17.854,14.631,32.482,32.483,32.482h51.577c1.24-18.35,16.117-32.73,34.715-32.73s33.477,14.381,34.715,32.482h115.801
		C276.38,187.854,272.411,183.64,267.452,183.64z M127.599,111.481c0,4.959-4.215,9.175-9.174,9.175H49.987
		c-5.208,0-9.176-4.216-9.176-9.175V96.355c0-4.959,4.215-9.175,9.176-9.175h68.438c5.207,0,9.174,4.216,9.174,9.175V111.481z
		 M217.858,111.481c0,4.959-4.215,9.175-9.174,9.175h-31.74c-5.207,0-9.176-4.216-9.176-9.175V96.355
		c0-4.959,4.217-9.175,9.176-9.175h31.74c5.207,0,9.174,4.216,9.174,9.175V111.481z"/>
	<polygon fill="#231F20" points="126.819,205.198 126.737,205.112 126.618,205.112 125.829,205.112 125.712,205.112 
		125.626,205.198 125.069,205.757 124.985,205.837 124.985,205.958 124.985,206.745 124.985,206.866 125.069,206.948 
		125.626,207.505 125.712,207.589 125.829,207.589 126.618,207.589 126.737,207.589 126.819,207.505 127.38,206.948 
		127.462,206.866 127.462,206.745 127.462,205.958 127.462,205.837 127.38,205.757 	"/>
	<polygon fill="#231F20" points="116.897,199.499 116.839,199.397 116.722,199.37 115.962,199.163 115.849,199.132 115.745,199.192 
		115.062,199.587 114.96,199.647 114.929,199.759 114.724,200.522 114.696,200.638 114.753,200.741 115.147,201.423 
		115.206,201.526 115.321,201.558 116.085,201.761 116.198,201.792 116.302,201.731 116.983,201.335 117.085,201.278 
		117.118,201.163 117.321,200.401 117.353,200.288 117.296,200.185 	"/>
	<polygon fill="#231F20" points="114.929,189.384 114.96,189.501 115.062,189.558 115.745,189.954 115.849,190.013 115.962,189.983 
		116.722,189.778 116.839,189.747 116.897,189.646 117.296,188.96 117.353,188.858 117.321,188.747 117.118,187.983 
		117.085,187.866 116.983,187.806 116.302,187.413 116.198,187.353 116.085,187.384 115.321,187.589 115.206,187.618 
		115.147,187.724 114.753,188.405 114.696,188.509 114.724,188.622 	"/>
	<polygon fill="#231F20" points="125.626,183.95 125.712,184.034 125.829,184.034 126.618,184.034 126.737,184.034 126.819,183.95 
		127.38,183.392 127.462,183.308 127.462,183.188 127.462,182.399 127.462,182.28 127.38,182.198 126.819,181.64 126.737,181.558 
		126.618,181.558 125.829,181.558 125.712,181.558 125.626,181.64 125.069,182.198 124.985,182.28 124.985,182.399 124.985,183.188 
		124.985,183.308 125.069,183.392 	"/>
	<circle fill="#231F20" cx="126.224" cy="194.574" r="5.415"/>
	<polygon fill="#231F20" points="136.249,187.353 136.146,187.413 135.464,187.806 135.362,187.866 135.331,187.983 
		135.126,188.747 135.093,188.858 135.155,188.96 135.548,189.646 135.608,189.747 135.722,189.778 136.487,189.983 
		136.597,190.013 136.702,189.954 137.386,189.558 137.487,189.501 137.519,189.384 137.722,188.622 137.753,188.509 
		137.694,188.405 137.298,187.724 137.241,187.618 137.126,187.589 136.362,187.384 	"/>
	<path fill="#231F20" d="M135.19,173.345c-2.838-1.201-5.855-1.811-8.967-1.811s-6.127,0.609-8.967,1.811
		c-2.744,1.16-5.209,2.82-7.324,4.936c-2.115,2.119-3.777,4.582-4.938,7.324c-1.201,2.842-1.811,5.855-1.811,8.969
		c0,3.111,0.609,6.127,1.811,8.969c1.16,2.742,2.822,5.207,4.938,7.322s4.58,3.775,7.324,4.938c2.84,1.199,5.855,1.811,8.967,1.811
		c3.109,0,6.125-0.611,8.967-1.811c2.742-1.16,5.207-2.822,7.324-4.938s3.777-4.58,4.938-7.322c1.201-2.842,1.813-5.859,1.813-8.969
		c0-3.111-0.609-6.127-1.813-8.969c-1.16-2.744-2.82-5.205-4.938-7.324C140.397,176.165,137.933,174.505,135.19,173.345z
		 M126.224,209.958c-8.5,0-15.391-6.887-15.391-15.387c0-8.496,6.891-15.389,15.391-15.389s15.389,6.893,15.389,15.389
		C141.612,203.073,134.722,209.958,126.224,209.958z"/>
	<path fill="#231F20" d="M126.104,165.153c-16.268,0-29.451,13.186-29.451,29.451c0,16.268,13.186,29.453,29.451,29.453
		c16.27,0,29.457-13.188,29.457-29.453C155.56,178.337,142.374,165.153,126.104,165.153z M126.222,218.181
		c-13.039,0-23.607-10.57-23.607-23.607c0-13.039,10.568-23.611,23.607-23.611c13.041,0,23.611,10.572,23.611,23.611
		C149.833,207.61,139.263,218.181,126.222,218.181z"/>
	<path fill="#231F20" d="M132.673,188.124c-1.723-1.723-4.012-2.668-6.451-2.668c-2.436,0-4.725,0.945-6.445,2.668
		c-1.723,1.723-2.674,4.016-2.674,6.449c0,2.438,0.951,4.725,2.674,6.449c1.721,1.721,4.012,2.67,6.445,2.67
		c2.438,0,4.729-0.949,6.451-2.67c1.721-1.725,2.67-4.012,2.67-6.449C135.343,192.14,134.396,189.847,132.673,188.124z
		 M126.224,202.835c-4.563,0-8.264-3.697-8.264-8.264c0-4.563,3.699-8.264,8.264-8.264c4.563,0,8.264,3.699,8.264,8.264
		C134.489,199.138,130.786,202.835,126.224,202.835z"/>
	<polygon fill="#231F20" points="137.519,199.759 137.487,199.647 137.386,199.587 136.702,199.192 136.597,199.132 
		136.487,199.163 135.722,199.37 135.608,199.397 135.548,199.499 135.155,200.185 135.093,200.288 135.126,200.401 
		135.331,201.163 135.362,201.278 135.464,201.335 136.146,201.731 136.249,201.792 136.362,201.761 137.126,201.558 
		137.241,201.526 137.298,201.423 137.694,200.741 137.753,200.638 137.722,200.522 	"/>
</g>
</svg>
