<?xml version="1.0" encoding="utf-8"?>
<!-- Generator: Adobe Illustrator 15.1.0, SVG Export Plug-In . SVG Version: 6.00 Build 0)  -->
<!DOCTYPE svg PUBLIC "-//W3C//DTD SVG 1.0//EN" "http://www.w3.org/TR/2001/REC-SVG-20010904/DTD/svg10.dtd">
<svg version="1.0" id="Layer_2" xmlns="http://www.w3.org/2000/svg" xmlns:xlink="http://www.w3.org/1999/xlink" x="0px" y="0px"
	 width="283.46px" height="283.46px" viewBox="0 0 283.46 283.46" enable-background="new 0 0 283.46 283.46" xml:space="preserve">
<g>
	<path fill="none" d="M224.106,120.365l-8.569-52.407c-0.868-0.662-2.827-1.665-5.449-1.665H73.369
		c-2.624,0-4.579,1.003-5.449,1.668l-8.567,52.404H224.106z"/>
	<path d="M249.516,120.861l-11.572-54.146c-3.345-15.653-17.417-27.917-32.034-27.917H77.547c-14.618,0-28.691,12.264-32.036,27.919
		l-11.572,54.146c-10.187,1.512-17.651,6.367-17.651,12.136v61.796c0,6.006,8.081,11.02,18.901,12.306
		c1.934,21.624,8.578,37.563,16.481,37.563h16.875c7.862,0,14.477-15.779,16.449-37.233h114.469
		c1.971,21.454,8.587,37.233,16.445,37.233h16.88c7.92,0,14.577-16.005,16.496-37.698c10.305-1.473,17.888-6.354,17.888-12.17
		v-61.797C267.171,127.229,259.705,122.374,249.516,120.861z M238.886,161.319c0,11.861-9.615,21.479-21.479,21.479
		c-11.862,0-21.478-9.618-21.478-21.479c0-11.862,9.615-21.479,21.478-21.479C229.271,139.839,238.886,149.457,238.886,161.319z
		 M66.05,139.838c11.863,0,21.479,9.617,21.479,21.48c0,11.861-9.616,21.479-21.479,21.479c-11.862,0-21.479-9.618-21.479-21.479
		C44.571,149.456,54.188,139.838,66.05,139.838z M73.369,66.292h136.719c2.622,0,4.581,1.003,5.45,1.665l8.569,52.407H59.352
		l8.567-52.404C68.788,67.295,70.745,66.292,73.369,66.292z"/>
</g>
</svg>
