<?xml version="1.0" encoding="utf-8"?>
<!-- Generator: Adobe Illustrator 15.1.0, SVG Export Plug-In . SVG Version: 6.00 Build 0)  -->
<!DOCTYPE svg PUBLIC "-//W3C//DTD SVG 1.1//EN" "http://www.w3.org/Graphics/SVG/1.1/DTD/svg11.dtd">
<svg version="1.1" id="Layer_8" xmlns="http://www.w3.org/2000/svg" xmlns:xlink="http://www.w3.org/1999/xlink" x="0px" y="0px"
	 width="283.465px" height="283.465px" viewBox="0 0 283.465 283.465" enable-background="new 0 0 283.465 283.465"
	 xml:space="preserve">
<g>
	<path d="M177.583,56.865c-11.354-4.802-23.415-7.238-35.851-7.238c-12.434,0-24.496,2.436-35.85,7.238
		c-10.97,4.637-20.817,11.28-29.278,19.739c-8.459,8.461-15.102,18.311-19.739,29.277c-4.802,11.354-7.237,23.417-7.237,35.853
		c0,12.435,2.436,24.496,7.237,35.851c4.638,10.969,11.28,20.816,19.739,29.277c8.461,8.459,18.313,15.102,29.278,19.739
		c11.353,4.805,23.416,7.238,35.85,7.238c12.436,0,24.497-2.434,35.851-7.238c10.97-4.638,20.818-11.28,29.279-19.739
		c8.46-8.461,15.1-18.311,19.74-29.277c4.802-11.354,7.236-23.416,7.236-35.851c0-12.435-2.435-24.498-7.236-35.853
		c-4.641-10.967-11.281-20.816-19.74-29.277C198.401,68.145,188.553,61.502,177.583,56.865z M141.732,203.25
		c-33.975,0-61.517-27.542-61.517-61.517c0-33.975,27.542-61.517,61.517-61.517c33.976,0,61.518,27.543,61.518,61.517
		C203.25,175.708,175.708,203.25,141.732,203.25z"/>
	<path d="M264.154,121.027c-3.172-18.866-10.531-36.265-21.184-51.226l8.617-8.632l-29.291-29.292l-8.633,8.632
		c-14.961-10.652-32.359-18.027-51.211-21.201V7.087h-41.441v12.222C102.162,22.482,84.761,29.857,69.8,40.51l-8.632-8.632
		L31.875,61.17l8.619,8.632c-10.653,14.961-18.013,32.359-21.185,51.226H7.087v41.426h12.222
		c3.172,18.866,10.532,36.265,21.185,51.225l-8.619,8.618l29.292,29.293l8.632-8.618c14.96,10.652,32.359,18.013,51.211,21.185
		v12.223h41.441v-12.223c18.85-3.172,36.251-10.532,51.211-21.185l8.633,8.618l29.291-29.293l-8.617-8.618
		c10.652-14.96,18.012-32.358,21.184-51.225h12.224v-41.426H264.154z M141.732,236.116c-52.125,0-94.385-42.257-94.385-94.385
		c0-52.125,42.259-94.383,94.385-94.383s94.385,42.256,94.385,94.385C236.117,193.859,193.86,236.116,141.732,236.116z"/>
	<path d="M115.956,115.956c-6.885,6.886-10.677,16.041-10.677,25.777c0,9.738,3.79,18.891,10.677,25.777
		c6.886,6.886,16.04,10.678,25.776,10.678c9.738,0,18.894-3.792,25.777-10.678c6.885-6.887,10.679-16.039,10.679-25.777
		c0-9.736-3.793-18.893-10.679-25.777c-6.886-6.886-16.039-10.676-25.777-10.676C131.995,105.28,122.842,109.07,115.956,115.956z
		 M174.77,141.733c0,18.245-14.79,33.036-33.037,33.036c-18.244,0-33.036-14.79-33.036-33.036c0-18.245,14.791-33.037,33.036-33.037
		C159.979,108.697,174.77,123.487,174.77,141.733z"/>
	<circle cx="141.732" cy="141.733" r="21.645"/>
	<polygon points="139.683,89.695 139.349,90.029 137.114,92.261 136.782,92.595 136.782,93.068 136.782,96.226 136.782,96.697 
		137.114,97.03 139.349,99.265 139.683,99.597 140.154,99.597 143.311,99.597 143.785,99.597 144.117,99.265 146.35,97.03 
		146.686,96.697 146.686,96.226 146.686,93.068 146.686,92.595 146.35,92.261 144.117,90.029 143.785,89.695 143.311,89.695 
		140.154,89.695 	"/>
	<polygon points="186.01,114.347 185.774,113.937 185.318,113.814 182.267,112.999 181.811,112.876 181.404,113.112 178.667,114.69 
		178.259,114.927 178.137,115.383 177.32,118.433 177.196,118.889 177.435,119.297 179.013,122.033 179.249,122.44 179.705,122.563 
		182.756,123.381 183.212,123.503 183.62,123.268 186.354,121.688 186.763,121.452 186.885,120.996 187.701,117.946 187.825,117.49 
		187.588,117.082 	"/>
	<polygon points="101.655,170.591 102.063,170.354 104.798,168.776 105.206,168.538 105.329,168.084 106.146,165.033 
		106.268,164.577 106.033,164.167 104.453,161.433 104.217,161.026 103.761,160.902 100.712,160.084 100.256,159.964 
		99.846,160.198 97.111,161.777 96.703,162.014 96.58,162.47 95.763,165.519 95.642,165.976 95.878,166.383 97.456,169.12 
		97.692,169.528 98.148,169.65 101.199,170.468 	"/>
	<polygon points="185.774,169.528 186.01,169.12 187.589,166.385 187.825,165.976 187.701,165.521 186.885,162.47 186.763,162.014 
		186.354,161.777 183.62,160.198 183.212,159.964 182.756,160.084 179.705,160.902 179.249,161.026 179.013,161.433 
		177.435,164.167 177.196,164.577 177.32,165.033 178.137,168.084 178.259,168.538 178.667,168.776 181.404,170.354 
		181.811,170.591 182.267,170.468 185.318,169.65 	"/>
	<polygon points="143.785,193.771 144.117,193.438 146.35,191.203 146.686,190.87 146.686,190.398 146.686,187.241 146.686,186.769 
		146.35,186.437 144.117,184.202 143.785,183.868 143.311,183.868 140.154,183.868 139.683,183.868 139.349,184.202 
		137.114,186.437 136.782,186.769 136.782,187.241 136.782,190.398 136.782,190.87 137.114,191.203 139.349,193.438 
		139.683,193.771 140.154,193.771 143.311,193.771 	"/>
	<polygon points="97.692,113.937 97.456,114.347 95.878,117.082 95.642,117.49 95.763,117.946 96.58,120.996 96.703,121.452 
		97.111,121.688 99.846,123.268 100.256,123.503 100.712,123.381 103.761,122.563 104.217,122.44 104.453,122.033 106.033,119.297 
		106.268,118.889 106.146,118.433 105.329,115.383 105.206,114.927 104.798,114.69 102.063,113.112 101.655,112.876 
		101.199,112.999 98.148,113.814 	"/>
</g>
</svg>
