<?xml version="1.0" encoding="utf-8"?>
<!-- Generator: Adobe Illustrator 15.1.0, SVG Export Plug-In . SVG Version: 6.00 Build 0)  -->
<!DOCTYPE svg PUBLIC "-//W3C//DTD SVG 1.1//EN" "http://www.w3.org/Graphics/SVG/1.1/DTD/svg11.dtd">
<svg version="1.1" id="Layer_2" xmlns="http://www.w3.org/2000/svg" xmlns:xlink="http://www.w3.org/1999/xlink" x="0px" y="0px"
	 width="800px" height="800px" viewBox="0 0 800 800" enable-background="new 0 0 800 800" xml:space="preserve">
<g>
	<path fill="none" d="M658.764,504.932c-33.444,0-60.558,27.114-60.558,60.559c0,33.445,27.113,60.558,60.558,60.558
		c33.446,0,60.559-27.112,60.559-60.558C719.323,532.048,692.21,504.932,658.764,504.932z M653.892,520.692v-3.109v-0.465
		l0.326-0.328l2.2-2.199l0.328-0.327h0.465h3.105h0.468l0.328,0.327l2.197,2.199l0.33,0.328v0.465v3.109v0.463l-0.33,0.33
		l-2.197,2.198l-0.328,0.327h-0.468h-3.105h-0.465l-0.328-0.327l-2.2-2.198l-0.326-0.33V520.692z M613.624,541.222l1.555-2.69
		l0.231-0.405l0.449-0.12l3.004-0.802l0.448-0.121l0.402,0.231l2.691,1.555l0.401,0.232l0.12,0.448l0.806,3.003l0.119,0.449
		l-0.229,0.402l-1.557,2.693l-0.232,0.4l-0.448,0.12l-3.002,0.805l-0.449,0.12l-0.403-0.23l-2.691-1.556l-0.402-0.232l-0.121-0.449
		l-0.805-3.001l-0.119-0.451L613.624,541.222z M623.733,588.427l-0.806,3.003l-0.12,0.446l-0.401,0.235l-2.691,1.554l-0.402,0.232
		l-0.448-0.121l-3.004-0.805l-0.449-0.119l-0.231-0.402l-1.555-2.694l-0.232-0.401l0.119-0.45l0.805-3.001l0.121-0.449l0.402-0.232
		l2.691-1.555l0.403-0.231l0.449,0.119l3.002,0.805l0.448,0.122l0.232,0.4l1.557,2.691l0.229,0.404L623.733,588.427z
		 M663.64,610.289v3.108v0.465l-0.33,0.327l-2.197,2.2l-0.328,0.327h-0.468h-3.105h-0.465l-0.328-0.327l-2.2-2.2l-0.326-0.327
		v-0.465v-3.108v-0.465l0.326-0.327l2.2-2.2l0.328-0.328h0.465h3.105h0.468l0.328,0.328l2.197,2.2l0.33,0.327V610.289z
		 M658.764,601.378c-9.584,0-18.597-3.733-25.375-10.512s-10.51-15.79-10.51-25.375s3.732-18.597,10.51-25.377
		c6.778-6.777,15.79-10.509,25.375-10.509c9.587,0,18.599,3.731,25.376,10.509c6.778,6.778,10.512,15.792,10.512,25.377
		s-3.734,18.597-10.512,25.375S668.351,601.378,658.764,601.378z M703.906,589.759l-1.555,2.692l-0.231,0.402l-0.449,0.119
		l-3.004,0.805l-0.448,0.121l-0.4-0.232l-2.694-1.554l-0.402-0.235l-0.12-0.446l-0.804-3.003l-0.122-0.449l0.235-0.404l1.554-2.691
		l0.232-0.4l0.447-0.122l3.005-0.805l0.448-0.119l0.402,0.231l2.691,1.555l0.402,0.232l0.12,0.449l0.804,3.003l0.122,0.448
		L703.906,589.759z M702.119,538.127l0.231,0.405l1.554,2.69l0.234,0.401l-0.122,0.451l-0.804,3.001l-0.12,0.449l-0.402,0.232
		l-2.691,1.556l-0.402,0.23l-0.448-0.12l-3.005-0.805l-0.447-0.12l-0.232-0.4l-1.554-2.693l-0.235-0.402l0.122-0.449l0.804-3.003
		l0.12-0.448l0.402-0.232l2.694-1.555l0.4-0.231l0.448,0.121l3.004,0.802L702.119,538.127z"/>
	<path fill="none" d="M658.764,532.969c-17.96,0-32.521,14.562-32.521,32.522s14.561,32.521,32.521,32.521
		c17.963,0,32.522-14.561,32.522-32.521C691.286,547.529,676.726,532.969,658.764,532.969z M658.764,586.799
		c-11.768,0-21.308-9.539-21.308-21.308s9.54-21.307,21.308-21.307c11.769,0,21.308,9.538,21.308,21.307
		S670.532,586.799,658.764,586.799z"/>
	<path fill="none" d="M658.764,472.578c-51.312,0-92.913,41.599-92.913,92.911c0,51.314,41.602,92.913,92.913,92.913
		c51.316,0,92.913-41.599,92.913-92.911C751.677,514.174,710.077,472.578,658.764,472.578z M749.435,565.491
		c0,12.24-2.396,24.113-7.124,35.291c-4.566,10.796-11.105,20.492-19.431,28.821c-8.33,8.327-18.025,14.865-28.824,19.432
		c-11.176,4.73-23.051,7.125-35.292,7.125c-12.24,0-24.115-2.395-35.291-7.125c-10.794-4.566-20.492-11.104-28.822-19.432
		c-8.326-8.329-14.866-18.023-19.431-28.821c-4.727-11.178-7.124-23.051-7.124-35.291c0-12.241,2.397-24.117,7.124-35.294
		c4.564-10.795,11.104-20.491,19.431-28.821c8.33-8.326,18.024-14.865,28.822-19.431c11.178-4.727,23.051-7.125,35.291-7.125
		c12.241,0,24.116,2.398,35.292,7.125c10.799,4.565,20.494,11.104,28.824,19.431c8.325,8.33,14.864,18.024,19.431,28.821
		C747.038,541.374,749.435,553.25,749.435,565.491z"/>
	<path fill="#231F20" d="M165.507,535.452c-7.482-7.479-16.192-13.355-25.893-17.455c-10.041-4.247-20.708-6.401-31.704-6.401
		c-10.997,0-21.664,2.154-31.705,6.401c-9.7,4.1-18.409,9.976-25.892,17.455c-7.48,7.482-13.354,16.193-17.456,25.892
		c-4.246,10.041-6.4,20.708-6.4,31.706c0,10.997,2.154,21.663,6.4,31.703c4.102,9.701,9.976,18.409,17.456,25.892
		C57.798,658.126,66.509,664,76.206,668.1c10.04,4.248,20.708,6.401,31.705,6.401c10.996,0,21.663-2.153,31.704-6.401
		c9.701-4.101,18.411-9.975,25.893-17.456c7.482-7.482,13.354-16.192,17.457-25.892c4.247-10.04,6.399-20.706,6.399-31.703
		c0-10.998-2.153-21.665-6.399-31.706c-1.143-2.701-2.437-5.316-3.851-7.859c-1.157-2.08-2.393-4.112-3.727-6.08
		C172.497,543.14,169.199,539.145,165.507,535.452z M107.91,647.451c-30.045,0-54.402-24.355-54.402-54.401
		s24.357-54.402,54.402-54.402s54.402,24.357,54.402,54.402C162.312,623.095,137.956,647.451,107.91,647.451z"/>
	<path fill="#231F20" d="M196.229,542.342c-0.334-1.679-2.351-2.353-3.694-1.679c-0.276,0.056-0.521,0.158-0.742,0.294
		c-1.25-2.009-2.57-3.967-3.955-5.876c0.249-0.117,0.476-0.272,0.667-0.465c1.344-1.342,1.344-3.02,0-4.028l-18.133-18.135
		c-1.007-1.008-3.022-1.008-4.031,0c-0.19,0.191-0.345,0.419-0.463,0.669c-2.209-1.604-4.489-3.123-6.834-4.545
		c0.236-0.249,0.433-0.527,0.581-0.824c0.672-1.343,0-3.021-1.343-3.694l-24.178-9.739c-1.344-0.672-3.022,0.336-3.695,1.678
		c-0.136,0.273-0.201,0.56-0.208,0.849c-2.909-0.672-5.864-1.212-8.864-1.619c-0.051-1.634-1.372-2.922-3.017-2.922H94.141
		c-1.679,0-3.021,1.343-3.021,3.021v0.418c-2.32,0.396-4.61,0.874-6.872,1.43c-0.043-0.173-0.101-0.345-0.182-0.504
		c-0.335-1.679-2.351-2.351-3.694-1.679l-23.505,9.738c-1.679,0.335-2.351,2.351-1.679,3.695c0.146,0.291,0.344,0.552,0.573,0.777
		c-1.987,1.238-3.928,2.547-5.817,3.919c-0.118-0.249-0.273-0.478-0.463-0.668c-1.007-1.008-3.021-1.008-4.031,0l-18.134,18.135
		c-1.007,1.009-1.007,3.021,0,4.028c0.191,0.192,0.419,0.348,0.667,0.465c-1.557,2.145-3.03,4.353-4.415,6.622
		c-0.28-0.286-0.604-0.529-0.953-0.703c-1.342-0.672-3.022,0.334-3.693,1.678l-9.741,23.841c-0.671,1.345,0.336,3.023,1.68,3.695
		c0.283,0.14,0.597,0.22,0.918,0.245c-0.447,1.913-0.839,3.847-1.172,5.799H10.19c-1.679,0-3.022,1.345-3.022,3.022v24.179
		c0,1.645,1.29,2.966,2.921,3.019c0.472,3.47,1.123,6.884,1.948,10.232c-0.174,0.042-0.345,0.103-0.505,0.181
		c-1.679,0.335-2.351,2.352-1.679,3.694l9.74,23.508c0.335,1.679,2.351,2.351,3.693,1.679c0.294-0.147,0.553-0.344,0.779-0.572
		c1.238,1.986,2.545,3.926,3.919,5.816c-0.25,0.117-0.478,0.271-0.668,0.464c-1.008,1.007-1.008,3.021,0,4.029l18.134,18.133
		c1.008,1.01,3.022,1.01,4.029,0c0.191-0.189,0.346-0.417,0.464-0.668c2.144,1.557,4.352,3.03,6.622,4.416
		c-0.286,0.278-0.531,0.604-0.704,0.951c-0.672,1.344,0.336,3.023,1.679,3.696l23.842,9.737c1.343,0.671,3.023-0.336,3.695-1.678
		c0.141-0.284,0.219-0.597,0.245-0.921c1.912,0.448,3.845,0.839,5.799,1.174v0.416c0,1.68,1.342,3.023,3.021,3.023h24.177
		c1.646,0,2.966-1.291,3.018-2.921c3.341-0.454,6.627-1.077,9.853-1.854c0.039,0.259,0.112,0.515,0.228,0.745
		c0.671,1.677,2.351,2.35,3.694,1.344l23.507-9.74c1.679-0.335,2.352-2.351,1.679-3.693c-0.055-0.277-0.159-0.521-0.296-0.743
		c2.009-1.249,3.968-2.569,5.877-3.954c0.118,0.25,0.273,0.478,0.464,0.669c1.343,1.343,3.022,1.343,4.029,0l18.134-18.133
		c1.008-1.01,1.008-3.022,0-4.033c-0.191-0.191-0.419-0.343-0.668-0.461c1.606-2.212,3.121-4.49,4.543-6.835
		c0.25,0.233,0.528,0.432,0.826,0.581c1.343,0.67,3.022,0,3.695-1.344l9.739-24.178c0.671-1.344-0.335-3.021-1.677-3.694
		c-0.274-0.138-0.56-0.202-0.85-0.211c0.67-2.906,1.211-5.862,1.619-8.861c1.632-0.053,2.922-1.372,2.922-3.018v-24.175
		c-0.002-1.677-1.345-3.021-3.024-3.021h-0.417c-0.375-2.188-0.823-4.352-1.339-6.488c0.262-0.037,0.515-0.111,0.747-0.228
		c1.68-0.671,2.352-2.352,1.343-3.693l-5.141-12.409l-3.312-7.993L196.229,542.342z M107.91,676.515
		c-46.097,0-83.469-37.368-83.469-83.468c0-46.098,37.371-83.467,83.469-83.467c28.645,0,53.912,14.436,68.944,36.423
		c1.645,2.405,3.17,4.898,4.561,7.476c6.353,11.776,9.963,25.251,9.963,39.57C191.379,639.147,154.009,676.515,107.91,676.515z"/>
	<polygon fill="#231F20" points="105.802,555.492 106.097,555.787 106.515,555.787 109.306,555.787 109.726,555.787 
		110.019,555.492 111.994,553.515 112.29,553.22 112.29,552.804 112.29,550.012 112.29,549.594 111.994,549.299 110.019,547.324 
		109.726,547.03 109.306,547.03 106.515,547.03 106.097,547.03 105.802,547.324 103.826,549.299 103.532,549.594 103.532,550.012 
		103.532,552.804 103.532,553.22 103.826,553.515 	"/>
	<polygon fill="#231F20" points="67.98,574.71 68.089,575.114 68.449,575.322 70.868,576.719 71.23,576.927 71.634,576.819 
		74.33,576.096 74.733,575.988 74.943,575.628 76.339,573.208 76.547,572.846 76.44,572.445 75.717,569.746 75.61,569.343 
		75.248,569.134 72.83,567.738 72.468,567.53 72.064,567.636 69.367,568.359 68.964,568.468 68.755,568.83 67.36,571.248 
		67.15,571.61 67.257,572.013 	"/>
	<polygon fill="#231F20" points="74.943,610.469 74.733,610.11 74.33,610 71.634,609.277 71.23,609.171 70.868,609.379 
		68.449,610.775 68.089,610.983 67.98,611.387 67.257,614.084 67.15,614.487 67.36,614.847 68.755,617.267 68.964,617.629 
		69.367,617.737 72.064,618.462 72.468,618.568 72.83,618.36 75.248,616.965 75.61,616.753 75.717,616.352 76.44,613.654 
		76.547,613.251 76.339,612.888 	"/>
	<polygon fill="#231F20" points="110.019,630.605 109.726,630.31 109.306,630.31 106.515,630.31 106.097,630.31 105.802,630.605 
		103.826,632.582 103.532,632.876 103.532,633.294 103.532,636.087 103.532,636.503 103.826,636.798 105.802,638.773 
		106.097,639.067 106.515,639.067 109.306,639.067 109.726,639.067 110.019,638.773 111.994,636.798 112.29,636.503 112.29,636.087 
		112.29,633.294 112.29,632.876 111.994,632.582 	"/>
	<polygon fill="#231F20" points="147.841,611.387 147.732,610.983 147.371,610.775 144.953,609.379 144.593,609.171 
		144.189,609.277 141.491,610 141.088,610.11 140.878,610.469 139.483,612.888 139.273,613.251 139.382,613.654 140.104,616.352 
		140.213,616.753 140.573,616.965 142.993,618.36 143.353,618.568 143.756,618.462 146.455,617.737 146.859,617.629 
		147.067,617.267 148.463,614.85 148.672,614.487 148.563,614.085 	"/>
	<polygon fill="#231F20" points="143.353,567.53 142.993,567.738 140.573,569.134 140.213,569.343 140.104,569.746 139.382,572.445 
		139.273,572.846 139.483,573.208 140.878,575.628 141.088,575.988 141.491,576.096 144.189,576.819 144.593,576.927 
		144.953,576.719 147.371,575.322 147.732,575.114 147.841,574.71 148.563,572.013 148.672,571.61 148.461,571.248 147.067,568.83 
		146.859,568.468 146.455,568.359 143.756,567.636 	"/>
	<path fill="#231F20" d="M130.706,570.255c-6.09-6.091-14.184-9.444-22.796-9.444c-8.611,0-16.707,3.354-22.796,9.444
		c-6.089,6.088-9.442,14.184-9.442,22.795s3.352,16.706,9.442,22.796c6.089,6.089,14.186,9.442,22.796,9.442
		c8.612,0,16.708-3.354,22.796-9.442c6.088-6.09,9.443-14.185,9.443-22.796S136.796,576.34,130.706,570.255z M107.91,622.264
		c-16.135,0-29.216-13.078-29.216-29.215c0-16.136,13.081-29.216,29.216-29.216c16.136,0,29.216,13.08,29.216,29.216
		C137.126,609.184,124.047,622.264,107.91,622.264z"/>
	<circle fill="#231F20" cx="107.91" cy="593.049" r="19.142"/>
	<path d="M694.056,481.945c-11.176-4.727-23.051-7.125-35.292-7.125c-12.24,0-24.113,2.398-35.291,7.125
		c-10.798,4.565-20.492,11.104-28.822,19.431c-8.326,8.33-14.866,18.026-19.431,28.821c-4.727,11.177-7.124,23.053-7.124,35.294
		c0,12.24,2.397,24.113,7.124,35.291c4.564,10.798,11.104,20.492,19.431,28.821c8.33,8.327,18.028,14.865,28.822,19.432
		c11.176,4.73,23.051,7.125,35.291,7.125c12.241,0,24.116-2.395,35.292-7.125c10.799-4.566,20.494-11.104,28.824-19.432
		c8.325-8.329,14.864-18.025,19.431-28.821c4.728-11.178,7.124-23.051,7.124-35.291c0-12.241-2.396-24.117-7.124-35.294
		c-4.566-10.797-11.105-20.491-19.431-28.821C714.55,493.05,704.855,486.51,694.056,481.945z M658.764,626.049
		c-33.444,0-60.558-27.112-60.558-60.558c0-33.444,27.113-60.559,60.558-60.559c33.446,0,60.559,27.115,60.559,60.559
		C719.323,598.936,692.21,626.049,658.764,626.049z"/>
	<path d="M758.424,494.68l8.483-8.497l-28.834-28.836l-8.498,8.498c-14.729-10.486-31.854-17.747-50.413-20.871v-12.031h-40.796
		v12.031c-18.555,3.124-35.687,10.385-50.413,20.871l-8.498-8.498l-28.837,28.836l8.485,8.497
		c-10.485,14.728-17.732,31.854-20.855,50.427h-12.031v40.78h12.031c3.123,18.572,10.37,35.699,20.855,50.427l-8.485,8.483
		l28.837,28.837l8.498-8.484c14.727,10.485,31.854,17.732,50.413,20.854v12.033h40.796v-12.033
		c18.555-3.121,35.686-10.368,50.413-20.854l8.498,8.484l28.834-28.837l-8.483-8.483c10.486-14.728,17.731-31.854,20.854-50.427
		h12.033v-40.78h-12.033C776.156,526.535,768.91,509.408,758.424,494.68z M658.764,658.402c-51.312,0-92.913-41.599-92.913-92.913
		c0-51.313,41.602-92.911,92.913-92.911c51.313,0,92.913,41.596,92.913,92.913C751.677,616.803,710.08,658.402,658.764,658.402z"/>
	<path d="M684.14,540.114c-6.777-6.777-15.789-10.509-25.376-10.509c-9.585,0-18.597,3.731-25.375,10.509
		c-6.777,6.78-10.51,15.792-10.51,25.377s3.731,18.597,10.51,25.375s15.791,10.512,25.375,10.512
		c9.587,0,18.599-3.733,25.376-10.512s10.512-15.79,10.512-25.375S690.918,546.892,684.14,540.114z M658.764,598.011
		c-17.96,0-32.521-14.56-32.521-32.521s14.561-32.522,32.521-32.522c17.962,0,32.522,14.561,32.522,32.522
		C691.286,583.451,676.727,598.011,658.764,598.011z"/>
	<circle cx="658.764" cy="565.491" r="21.307"/>
	<polygon points="656.418,523.683 656.746,524.01 657.211,524.01 660.317,524.01 660.784,524.01 661.113,523.683 663.31,521.485 
		663.64,521.155 663.64,520.692 663.64,517.583 663.64,517.118 663.31,516.79 661.113,514.591 660.784,514.263 660.317,514.263 
		657.211,514.263 656.746,514.263 656.418,514.591 654.218,516.79 653.892,517.118 653.892,517.583 653.892,520.692 
		653.892,521.155 654.218,521.485 	"/>
	<polygon points="698.218,537.084 697.818,537.315 695.123,538.87 694.721,539.102 694.601,539.551 693.797,542.553 
		693.675,543.003 693.91,543.405 695.464,546.098 695.697,546.499 696.144,546.619 699.149,547.424 699.597,547.544 
		699.999,547.313 702.691,545.758 703.093,545.525 703.213,545.076 704.017,542.075 704.139,541.624 703.905,541.222 
		702.351,538.532 702.119,538.127 701.67,538.007 698.666,537.205 	"/>
	<polygon points="622.066,584.883 621.833,584.482 621.385,584.36 618.383,583.555 617.934,583.436 617.531,583.668 
		614.839,585.222 614.437,585.455 614.316,585.904 613.511,588.905 613.392,589.355 613.624,589.757 615.179,592.451 
		615.41,592.853 615.86,592.972 618.864,593.777 619.312,593.898 619.714,593.666 622.406,592.112 622.807,591.877 622.927,591.43 
		623.733,588.427 623.852,587.978 623.622,587.574 	"/>
	<polygon points="703.213,585.904 703.093,585.455 702.691,585.222 699.999,583.668 699.597,583.436 699.149,583.555 
		696.144,584.36 695.697,584.482 695.464,584.883 693.91,587.574 693.675,587.978 693.797,588.427 694.601,591.43 694.721,591.877 
		695.123,592.112 697.818,593.666 698.218,593.898 698.666,593.777 701.67,592.972 702.119,592.853 702.351,592.451 
		703.906,589.759 704.139,589.355 704.017,588.907 	"/>
	<polygon points="661.113,607.297 660.784,606.969 660.317,606.969 657.211,606.969 656.746,606.969 656.418,607.297 
		654.218,609.497 653.892,609.824 653.892,610.289 653.892,613.397 653.892,613.862 654.218,614.189 656.418,616.389 
		656.746,616.717 657.211,616.717 660.317,616.717 660.784,616.717 661.113,616.389 663.31,614.189 663.64,613.862 663.64,613.397 
		663.64,610.289 663.64,609.824 663.31,609.497 	"/>
	<polygon points="614.316,545.076 614.437,545.525 614.839,545.758 617.531,547.313 617.934,547.544 618.383,547.424 
		621.385,546.619 621.833,546.499 622.066,546.098 623.622,543.405 623.852,543.003 623.733,542.553 622.927,539.551 
		622.807,539.102 622.406,538.87 619.714,537.315 619.312,537.084 618.864,537.205 615.86,538.007 615.41,538.127 615.179,538.532 
		613.624,541.222 613.392,541.624 613.511,542.075 	"/>
	<path d="M284.759,155.92c0-14.957,12.163-27.12,27.12-27.12c7.499,0,13.56-6.075,13.56-13.56s-6.061-13.56-13.56-13.56
		c-29.914,0-54.24,24.326-54.24,54.239v51.24h27.12V155.92z"/>
	<path d="M795.823,439.255c-18.554-17.803-40.16-31.414-63.584-40.362V223.72c-31.404,0-58.321,22.456-63.948,53.358l-10.586,82.981
		l-17.88,2.281c-22.109,4.026-39.877,18.958-48.207,38.627c-32.728,13.645-60.843,36.193-81.309,64.608
		c-35.996-8.382-62.829-40.588-62.829-79.138h27.12v-35.059l47.979-47.978l34.316,34.317c2.645,2.646,6.115,3.974,9.587,3.974
		c3.471,0,6.942-1.33,9.588-3.974c5.302-5.302,5.302-13.873,0-19.175l-81.36-81.36c-5.302-5.302-13.872-5.302-19.174,0
		c-5.303,5.302-5.303,13.873,0,19.175l34.314,34.315l-35.25,35.25v-20.844H301.32v77.36h127.859h7.122
		c1.743,0,3.211,1.123,3.759,2.679c0.146,0.416,0.241,0.855,0.241,1.321c0,2.209-1.791,4-4,4H301.32v50.238c0,1.657-1.343,3-3,3
		h-54.24c-1.657,0-3-1.343-3-3v-50.238H53.5c-2.209,0-4-1.791-4-4s1.791-4,4-4h187.579v-77.36H154.21v-54.24h1.73
		c11.187,0,20.34-9.153,20.34-20.34c0-11.188-9.152-20.34-20.34-20.34h-40.68c-11.188,0-20.34,9.152-20.34,20.34
		c0,11.187,9.152,20.34,20.34,20.34h1.73v54.24H94.92c-29.954,0-54.24,24.285-54.24,54.24v27.118v0.002v118.724v0.061
		c16.177-12.977,36.127-21.443,57.962-23.416c0.199-0.019,0.397-0.036,0.596-0.054c1.396-0.118,2.801-0.211,4.212-0.275
		c0.218-0.01,0.438-0.016,0.656-0.024c1.452-0.059,2.909-0.096,4.375-0.096c1.266,0,2.523,0.029,3.778,0.072
		c0.305,0.011,0.61,0.022,0.914,0.035c1.247,0.053,2.49,0.12,3.725,0.215c0.061,0.005,0.122,0.012,0.183,0.017
		c1.193,0.094,2.38,0.212,3.562,0.344c0.279,0.031,0.558,0.063,0.836,0.096c1.233,0.147,2.461,0.31,3.681,0.498
		c0.072,0.012,0.144,0.024,0.215,0.036c1.177,0.184,2.347,0.391,3.511,0.612c0.226,0.043,0.451,0.086,0.676,0.13
		c1.237,0.244,2.469,0.505,3.691,0.791c0.036,0.008,0.071,0.018,0.107,0.025c1.217,0.286,2.424,0.596,3.625,0.922
		c0.139,0.038,0.277,0.074,0.416,0.112c2.549,0.705,5.062,1.497,7.532,2.38c0.013,0.005,0.027,0.01,0.041,0.015
		c27.834,9.956,50.394,30.98,62.432,57.766l269.084-0.562c0.003,0,0.006,0,0.009,0c2.205,0,3.995,1.785,4,3.991
		c0.005,2.21-1.782,4.004-3.991,4.009l-265.822,0.555c3.131,8.786,5.166,18.092,5.929,27.756h258.049
		c0.592,23.603,5.469,46.516,14.526,68.206c2.17,5.206,7.214,8.339,12.516,8.339c1.75,0,3.525-0.339,5.233-1.058
		c6.916-2.889,10.169-10.82,7.281-17.736c-8.284-19.852-12.502-40.924-12.502-62.647c0-89.728,72.994-162.72,162.721-162.72
		c42.187,0,82.188,16.082,112.616,45.276c5.411,5.181,13.98,5.004,19.174-0.406C801.409,453.032,801.235,444.434,795.823,439.255z
		 M94.92,454.24c-7.484,0-13.56-6.075-13.56-13.561c0-7.484,6.075-13.56,13.56-13.56s13.561,6.075,13.561,13.56
		C108.481,448.165,102.405,454.24,94.92,454.24z M149.16,454.24c-7.484,0-13.56-6.075-13.56-13.561c0-7.484,6.075-13.56,13.56-13.56
		s13.56,6.075,13.56,13.56C162.72,448.165,156.645,454.24,149.16,454.24z M352.559,427.12h54.24c7.499,0,13.561,6.075,13.561,13.56
		c0,7.486-6.062,13.561-13.561,13.561h-54.24c-7.498,0-13.56-6.075-13.56-13.561C338.999,433.195,345.061,427.12,352.559,427.12z
		 M433.919,494.92h-108.48c-7.498,0-13.56-6.075-13.56-13.56c0-7.485,6.062-13.561,13.56-13.561h108.48
		c7.499,0,13.561,6.075,13.561,13.561C447.48,488.844,441.418,494.92,433.919,494.92z"/>
	<rect x="247.079" y="213.16" width="48.24" height="224.52"/>
</g>
</svg>
