<?xml version="1.0" encoding="utf-8"?>
<!-- Generator: Adobe Illustrator 15.1.0, SVG Export Plug-In . SVG Version: 6.00 Build 0)  -->
<!DOCTYPE svg PUBLIC "-//W3C//DTD SVG 1.1//EN" "http://www.w3.org/Graphics/SVG/1.1/DTD/svg11.dtd">
<svg version="1.1" id="Layer_1" xmlns="http://www.w3.org/2000/svg" xmlns:xlink="http://www.w3.org/1999/xlink" x="0px" y="0px"
	 width="283.465px" height="283.465px" viewBox="0 0 283.465 283.465" enable-background="new 0 0 283.465 283.465"
	 xml:space="preserve">
<path fill-rule="evenodd" clip-rule="evenodd" d="M60.861,57.254H189.32v-3.862H60.861V57.254z M60.861,68.327H189.32v-3.862H60.861
	V68.327z M60.861,79.401H189.32v-3.862H60.861V79.401z M26.603,79.401h26.009V53.392H26.603V79.401z M208.826,46.925
	c0-6.777-5.493-12.269-12.269-12.269H19.366c-6.775,0-12.268,5.492-12.268,12.269v38.944c0,6.775,5.493,12.268,12.268,12.268
	h177.191c6.775,0,12.269-5.493,12.269-12.268V46.925z M239.903,62.154c8.741,1.097,13.912,4.866,17.088,9.568
	c4.464,6.612,4.743,15.682,4.743,23.11c0,2.521-2.048,4.566-4.566,4.566c-2.521,0-4.566-2.045-4.566-4.566
	c0-5.754,0.279-12.877-3.18-17.999c-1.839-2.726-4.841-4.641-9.519-5.447v8.964l-27.147-13.955l27.147-13.954V62.154z
	 M128.424,132.587h128.458v-3.862H128.424V132.587z M128.424,143.661h128.458v-3.862H128.424V143.661z M128.424,154.734h128.458
	v-3.862H128.424V154.734z M94.167,154.734h26.009v-26.01H94.167V154.734z M276.39,122.257c0-6.775-5.493-12.269-12.27-12.269H86.93
	c-6.776,0-12.269,5.493-12.269,12.269v38.945c0,6.776,5.493,12.27,12.269,12.27h177.19c6.776,0,12.27-5.493,12.27-12.27V122.257z
	 M60.861,207.921H189.32v-3.862H60.861V207.921z M60.861,218.994H189.32v-3.862H60.861V218.994z M60.861,230.067H189.32v-3.861
	H60.861V230.067z M26.603,230.067h26.009v-26.009H26.603V230.067z M208.826,197.592c0-6.777-5.493-12.27-12.269-12.27H19.366
	c-6.775,0-12.268,5.492-12.268,12.27v38.944c0,6.775,5.493,12.269,12.268,12.269h177.191c6.775,0,12.269-5.493,12.269-12.269
	V197.592z"/>
</svg>
