<?xml version="1.0" encoding="utf-8"?>
<!-- Generator: Adobe Illustrator 15.1.0, SVG Export Plug-In . SVG Version: 6.00 Build 0)  -->
<!DOCTYPE svg PUBLIC "-//W3C//DTD SVG 1.1//EN" "http://www.w3.org/Graphics/SVG/1.1/DTD/svg11.dtd">
<svg version="1.1" id="Layer_1" xmlns="http://www.w3.org/2000/svg" xmlns:xlink="http://www.w3.org/1999/xlink" x="0px" y="0px"
	 width="283.46px" height="283.46px" viewBox="0 0 283.46 283.46" enable-background="new 0 0 283.46 283.46" xml:space="preserve">
<g>
	<path fill="none" d="M137.086,145.423H115.23H72.086c-8.204,0-14.879,6.675-14.879,14.879v27.857c0,2.76,2.011,5.053,4.644,5.506
		v45.566c0,8.204,6.674,14.879,14.878,14.879h130.003c8.205,0,14.879-6.675,14.879-14.879v-45.566
		c2.631-0.453,4.643-2.746,4.643-5.506v-27.857c0-8.204-6.674-14.879-14.879-14.879h-31.812h-33.19H137.086z M219.71,239.232
		c0,7.157-5.822,12.979-12.979,12.979H76.729c-7.157,0-12.979-5.822-12.979-12.979v-45.479h6.23v-0.002h145.25v0.002h4.48V239.232z
		 M211.375,147.322c7.157,0,12.979,5.823,12.979,12.979v27.859c0,2.036-1.656,3.691-3.692,3.691h-5.432v0.001H69.98v-0.001H62.8
		c-2.036,0-3.693-1.656-3.693-3.693V160.3c0-7.155,5.823-12.978,12.979-12.979H211.375z"/>
	
		<line fill="none" stroke="#000000" stroke-width="0" stroke-linecap="round" stroke-linejoin="round" x1="238.283" y1="193.751" x2="238.281" y2="193.751"/>
	<g>
		<path d="M117.146,33.993v-8.336c0-2.694,8.615-9.286,24.584-9.286s24.586,6.592,24.586,9.286v8.336h3.513
			c1.182,0,2.349,0.074,3.512,0.182v-8.518c0-12.192-15.901-18.572-31.61-18.572c-15.708,0-31.609,6.38-31.609,18.572v8.518
			c1.162-0.107,2.33-0.182,3.512-0.182H117.146z"/>
		<path d="M238.281,193.751v-48.328h5.594v-12.029h-4.643c-5.645,0-10.236-4.592-10.236-10.235V99.944
			c0-27.407-22.112-49.733-49.433-50.104v-0.018h-0.688h-32.502h-9.287H115.23h-10.644c-27.637,0-50.122,22.484-50.122,50.122
			v23.215c0,5.644-4.592,10.235-10.236,10.235h-4.644v12.029h5.594v48.328v60.358h-5.593v3.693c0,10.256,8.315,18.571,18.572,18.571
			h32.5h134.646c10.256,0,18.571-8.315,18.569-18.571v-3.693h-5.592V193.751z M226.253,188.16c0,2.76-2.012,5.053-4.643,5.506
			v45.566c0,8.204-6.674,14.879-14.879,14.879H76.729c-8.204,0-14.878-6.675-14.878-14.879v-45.566
			c-2.633-0.453-4.644-2.746-4.644-5.506v-27.857c0-8.204,6.675-14.879,14.879-14.879h43.144h21.856h9.287h33.19h31.812
			c8.205,0,14.879,6.675,14.879,14.879V188.16z"/>
		<path d="M211.375,147.322H72.086c-7.156,0.001-12.979,5.823-12.979,12.979v27.857c0,2.037,1.657,3.693,3.693,3.693h7.18v0.001
			h145.25v-0.001h5.432c2.036,0,3.692-1.655,3.692-3.691V160.3C224.354,153.145,218.532,147.322,211.375,147.322z"/>
		<path d="M52.563,123.159V99.944c0-28.686,23.337-52.022,52.022-52.022h74.288c28.686-0.001,52.023,23.336,52.023,52.022v23.215
			c0,4.597,3.738,8.336,8.336,8.336h3.693V99.944c0-35.317-28.734-64.051-64.051-64.051h-74.289
			c-35.318,0-64.051,28.733-64.051,64.051v31.551h3.693C48.824,131.495,52.563,127.756,52.563,123.159z"/>
		<path d="M43.279,252.21v-58.459H31.25v50.123c0,4.597,3.739,8.336,8.336,8.336H43.279z"/>
		<path d="M43.279,147.324h-8.336c-4.596,0-8.336,3.739-8.336,8.336v32.5c0,2.037,1.657,3.692,3.693,3.692h12.979V147.324z"/>
		<path d="M240.183,252.21h3.693c4.596,0,8.334-3.739,8.334-8.336v-50.123h-12.027V252.21z"/>
		<path d="M248.517,147.324h-8.336v44.528h12.979c2.037,0,3.693-1.655,3.693-3.692v-32.5
			C256.853,151.063,253.115,147.324,248.517,147.324z"/>
		<path d="M215.23,193.751H69.98v0.002h-6.23v45.479c0,7.156,5.822,12.979,12.979,12.979h130.003
			c7.156,0,12.979-5.821,12.979-12.979v-45.479h-4.48V193.751z"/>
	</g>
</g>
</svg>
