<?xml version="1.0" encoding="utf-8"?>
<!-- Generator: Adobe Illustrator 15.1.0, SVG Export Plug-In . SVG Version: 6.00 Build 0)  -->
<!DOCTYPE svg PUBLIC "-//W3C//DTD SVG 1.1//EN" "http://www.w3.org/Graphics/SVG/1.1/DTD/svg11.dtd">
<svg version="1.1" id="Layer_1" xmlns="http://www.w3.org/2000/svg" xmlns:xlink="http://www.w3.org/1999/xlink" x="0px" y="0px"
	 width="283.465px" height="283.465px" viewBox="0 0 283.465 283.465" enable-background="new 0 0 283.465 283.465"
	 xml:space="preserve">
<g id="Layer_2">
	<g>
		<path fill="none" d="M131.264,30.335c-38.811,0-70.215,32.303-70.215,72.103c0,23.577,14.051,30.463,14.051,14.241
			c0-39.823,31.453-71.866,70.193-71.891C161.184,44.788,154.324,30.335,131.264,30.335z"/>
		<path d="M141.732,7.087C83.92,7.087,37,54.054,37,111.986c0,40.833,23.281,104.524,57.26,138.638
			c0.016,0.018,0.025,0.035,0.039,0.051c1.979,2.545,5.174,5.355,9.063,8.156c7.195,5.75,14.781,10.117,22.654,12.672
			c0.012-0.021,0.021-0.043,0.033-0.066c7.055,2.99,13.703,4.941,18.197,4.941c12.521,0,32.865-11.541,41.07-22.105
			c0.018-0.02,0.031-0.043,0.049-0.064c36.027-33.031,61.1-99.916,61.1-142.221C246.467,54.056,199.547,7.087,141.732,7.087z
			 M61.049,102.438c0-39.8,31.406-72.103,70.215-72.103c23.061,0,29.922,14.453,14.029,14.453
			c-38.738,0.024-70.191,32.066-70.191,71.891C75.1,132.9,61.049,126.016,61.049,102.438z"/>
	</g>
</g>
</svg>
