<?xml version="1.0" encoding="utf-8"?>
<!-- Generator: Adobe Illustrator 15.1.0, SVG Export Plug-In . SVG Version: 6.00 Build 0)  -->
<!DOCTYPE svg PUBLIC "-//W3C//DTD SVG 1.1//EN" "http://www.w3.org/Graphics/SVG/1.1/DTD/svg11.dtd">
<svg version="1.1" id="Layer_5" xmlns="http://www.w3.org/2000/svg" xmlns:xlink="http://www.w3.org/1999/xlink" x="0px" y="0px"
	 width="283.465px" height="283.465px" viewBox="0 0 283.465 283.465" enable-background="new 0 0 283.465 283.465"
	 xml:space="preserve">
<g>
	<path fill="none" d="M144.295,139.128c-0.673-0.673-1.609-1.061-2.562-1.061c-0.953,0-1.887,0.388-2.563,1.061
		c-0.673,0.674-1.061,1.609-1.061,2.563c0,0.954,0.388,1.887,1.061,2.561c0.676,0.678,1.611,1.063,2.563,1.063
		c0.958,0,1.889-0.385,2.562-1.063c0.68-0.674,1.063-1.607,1.063-2.561C145.357,140.737,144.975,139.807,144.295,139.128z"/>
	<path fill="none" d="M144.3,117.381c-0.677-0.673-1.608-1.061-2.566-1.061c-0.953,0-1.887,0.386-2.563,1.061
		c-0.673,0.678-1.061,1.609-1.061,2.563c0,0.956,0.388,1.887,1.061,2.564c0.676,0.675,1.611,1.059,2.563,1.059
		c0.958,0,1.888-0.384,2.566-1.059c0.675-0.676,1.058-1.608,1.058-2.564C145.357,118.989,144.975,118.059,144.3,117.381z"/>
	<path fill="none" d="M141.732,159.811c-0.953,0-1.887,0.389-2.563,1.063c-0.673,0.674-1.061,1.609-1.061,2.563
		c0,0.957,0.388,1.887,1.061,2.564c0.676,0.676,1.611,1.061,2.563,1.061c0.958,0,1.889-0.385,2.562-1.061
		c0.679-0.678,1.063-1.607,1.063-2.564c0-0.953-0.383-1.887-1.063-2.563C143.621,160.199,142.689,159.811,141.732,159.811z"/>
	<path fill="none" d="M130.86,130.819c0,0.954,0.388,1.886,1.062,2.56c0.675,0.677,1.61,1.061,2.563,1.061
		c0.953,0,1.887-0.384,2.563-1.061c0.675-0.675,1.063-1.607,1.063-2.56c0-0.957-0.39-1.892-1.063-2.565
		c-0.674-0.674-1.61-1.062-2.563-1.063c-0.953,0-1.888,0.388-2.563,1.063C131.248,128.93,130.86,129.862,130.86,130.819z"/>
	<rect x="137.966" y="106.605" fill="none" width="7.572" height="0.936"/>
	<rect x="126.606" y="106.605" fill="none" width="7.158" height="0.936"/>
	<rect x="115.104" y="132.593" fill="none" width="0.935" height="7.471"/>
	<rect x="115.104" y="121.235" fill="none" width="0.937" height="6.722"/>
	<path fill="none" d="M127.236,123.567c0.953,0,1.888-0.384,2.563-1.059c0.675-0.676,1.062-1.608,1.062-2.564
		c0-0.955-0.389-1.889-1.062-2.563c-0.673-0.673-1.608-1.061-2.563-1.061c-0.952,0-1.887,0.386-2.562,1.061
		c-0.675,0.678-1.063,1.609-1.063,2.563c0,0.952,0.388,1.887,1.063,2.564C125.348,123.183,126.285,123.567,127.236,123.567z"/>
	<rect x="115.104" y="109.876" fill="none" width="0.937" height="5.973"/>
	<rect x="167.424" y="148.418" fill="none" width="0.936" height="7.158"/>
	<rect x="167.424" y="160.527" fill="none" width="0.936" height="6.408"/>
	<polygon fill="none" points="167.424,108.059 168.359,108.059 168.359,106.604 168.254,106.604 163.125,106.604 162.016,106.604 
		162.016,107.54 167.424,107.54 	"/>
	<path fill="none" d="M146.419,133.38c0.674,0.677,1.608,1.061,2.563,1.061s1.887-0.384,2.564-1.061
		c0.676-0.675,1.059-1.607,1.059-2.56c0-0.957-0.383-1.888-1.059-2.565c-0.677-0.675-1.609-1.063-2.564-1.063
		s-1.891,0.388-2.563,1.063c-0.674,0.672-1.062,1.608-1.062,2.565C145.357,131.774,145.745,132.706,146.419,133.38z"/>
	<rect x="167.424" y="113.928" fill="none" width="0.936" height="6.239"/>
	<rect x="149.908" y="106.605" fill="none" width="6.988" height="0.936"/>
	<rect x="167.424" y="136.644" fill="none" width="0.936" height="7.573"/>
	<rect x="167.424" y="125.286" fill="none" width="0.936" height="6.988"/>
	<path fill="none" d="M127.236,145.313c0.957,0,1.888-0.383,2.563-1.062c0.673-0.674,1.062-1.608,1.062-2.563
		c0-0.953-0.389-1.888-1.062-2.563c-0.673-0.674-1.606-1.062-2.563-1.062c-0.952,0-1.887,0.388-2.562,1.062
		c-0.675,0.677-1.063,1.612-1.063,2.563c0,0.957,0.388,1.889,1.063,2.563C125.348,144.93,126.283,145.313,127.236,145.313z"/>
	<rect x="149.891" y="175.923" fill="none" width="6.987" height="0.937"/>
	<path fill="none" d="M156.23,159.811c-0.955,0-1.889,0.389-2.563,1.063c-0.674,0.674-1.062,1.609-1.062,2.563
		s0.388,1.887,1.062,2.564c0.675,0.676,1.61,1.061,2.563,1.061c0.957,0,1.888-0.385,2.562-1.061
		c0.675-0.678,1.063-1.609,1.063-2.564c0-0.953-0.389-1.887-1.063-2.563C158.118,160.199,157.188,159.811,156.23,159.811z"/>
	<path fill="none" d="M152.605,152.563c0-0.953-0.387-1.89-1.063-2.563c-0.673-0.672-1.607-1.063-2.561-1.063
		c-0.955,0-1.889,0.392-2.563,1.063c-0.674,0.674-1.062,1.61-1.062,2.563c0,0.955,0.388,1.887,1.062,2.563
		c0.675,0.678,1.608,1.061,2.563,1.061c0.953,0,1.888-0.383,2.561-1.061C152.219,154.451,152.605,153.518,152.605,152.563z"/>
	<rect x="137.948" y="175.923" fill="none" width="7.572" height="0.937"/>
	<path fill="none" d="M156.23,116.32c-0.955,0-1.889,0.386-2.563,1.061c-0.674,0.678-1.062,1.609-1.062,2.563
		c0,0.956,0.388,1.887,1.062,2.564c0.675,0.675,1.61,1.059,2.563,1.059c0.957,0,1.888-0.384,2.562-1.059
		c0.679-0.676,1.062-1.608,1.063-2.564c0-0.955-0.385-1.885-1.063-2.563C158.118,116.708,157.188,116.32,156.23,116.32z"/>
	<path fill="none" d="M156.23,138.067c-0.955,0-1.889,0.388-2.563,1.061c-0.674,0.674-1.062,1.608-1.062,2.563
		c0,0.954,0.388,1.889,1.062,2.565c0.675,0.674,1.61,1.059,2.563,1.059c0.957,0,1.888-0.385,2.562-1.059
		c0.679-0.678,1.062-1.611,1.063-2.565c0-0.955-0.385-1.888-1.063-2.563C158.118,138.455,157.182,138.067,156.23,138.067z"/>
	<rect x="115.104" y="144.102" fill="none" width="0.935" height="7.422"/>
	<path fill="none" d="M137.048,150.001c-0.674-0.674-1.606-1.063-2.563-1.063c-0.952,0-1.886,0.39-2.563,1.063
		c-0.674,0.672-1.062,1.61-1.062,2.562c0,0.955,0.388,1.889,1.062,2.563c0.675,0.678,1.611,1.063,2.563,1.063
		c0.957,0,1.887-0.385,2.563-1.063c0.678-0.674,1.063-1.605,1.063-2.563C138.111,151.609,137.726,150.675,137.048,150.001z"/>
	<polygon fill="none" points="167.425,175.923 161.997,175.923 161.997,176.859 168.236,176.859 168.236,176.773 168.359,176.773 
		168.361,176.773 168.361,172.634 167.425,172.634 	"/>
	<rect x="115.104" y="168.318" fill="none" width="0.935" height="5.922"/>
	<rect x="126.588" y="175.923" fill="none" width="7.158" height="0.937"/>
	<rect x="115.229" y="175.923" fill="none" width="6.407" height="0.937"/>
	<rect x="115.104" y="156.211" fill="none" width="0.935" height="6.672"/>
	<path fill="none" d="M129.8,165.999c0.673-0.677,1.063-1.606,1.063-2.563c0-0.953-0.388-1.887-1.063-2.563
		c-0.674-0.674-1.609-1.063-2.562-1.063c-0.952,0-1.889,0.389-2.562,1.063c-0.675,0.678-1.063,1.609-1.063,2.563
		s0.388,1.887,1.063,2.563c0.673,0.679,1.608,1.063,2.562,1.063C128.192,167.063,129.126,166.678,129.8,165.999z"/>
	<rect x="115.247" y="106.605" fill="none" width="6.407" height="0.936"/>
	<path d="M171.566,103.566h-59.668v76.333h59.668V103.566z M162.016,106.604h1.109h5.129h0.105v1.455h-0.936v-0.519h-5.408V106.604z
		 M167.424,155.576v-7.158h0.936v7.158H167.424z M168.359,160.527v6.408h-0.936v-6.408H168.359z M167.424,144.217v-7.573h0.936
		v7.573H167.424z M167.424,132.274v-6.988h0.936v6.988H167.424z M167.424,120.167v-6.239h0.936v6.239H167.424z M149.908,106.605
		h6.988v0.936h-6.988V106.605z M148.982,127.192c0.955,0,1.888,0.388,2.564,1.063c0.676,0.677,1.059,1.608,1.059,2.565
		c0,0.953-0.383,1.885-1.059,2.56c-0.678,0.677-1.609,1.061-2.564,1.061s-1.89-0.384-2.563-1.061
		c-0.674-0.674-1.062-1.606-1.062-2.56c0-0.957,0.388-1.893,1.062-2.565C147.092,127.58,148.027,127.192,148.982,127.192z
		 M144.295,144.252c-0.673,0.678-1.604,1.063-2.562,1.063c-0.952,0-1.887-0.385-2.563-1.063c-0.673-0.674-1.061-1.607-1.061-2.561
		c0-0.954,0.388-1.889,1.061-2.563c0.676-0.673,1.61-1.061,2.563-1.061c0.953,0,1.889,0.388,2.562,1.061
		c0.68,0.679,1.063,1.609,1.063,2.563C145.357,142.645,144.975,143.578,144.295,144.252z M145.357,163.436
		c0,0.957-0.385,1.887-1.063,2.564c-0.673,0.676-1.604,1.061-2.562,1.061c-0.952,0-1.887-0.385-2.563-1.061
		c-0.673-0.678-1.061-1.607-1.061-2.564c0-0.953,0.388-1.889,1.061-2.563c0.676-0.674,1.61-1.063,2.563-1.063
		c0.958,0,1.889,0.389,2.562,1.063C144.975,161.549,145.357,162.482,145.357,163.436z M144.3,122.508
		c-0.678,0.675-1.608,1.059-2.566,1.059c-0.952,0-1.887-0.384-2.563-1.059c-0.673-0.677-1.061-1.608-1.061-2.564
		c0-0.954,0.388-1.885,1.061-2.563c0.676-0.675,1.61-1.061,2.563-1.061c0.958,0,1.889,0.388,2.566,1.061
		c0.675,0.678,1.058,1.608,1.058,2.563C145.357,120.9,144.975,121.832,144.3,122.508z M137.966,106.605h7.572v0.936h-7.572V106.605z
		 M137.048,128.254c0.673,0.673,1.063,1.608,1.063,2.565c0,0.953-0.388,1.885-1.063,2.56c-0.676,0.677-1.61,1.061-2.563,1.061
		c-0.953,0-1.888-0.384-2.563-1.061c-0.674-0.674-1.062-1.606-1.062-2.56c0-0.957,0.388-1.889,1.062-2.565
		c0.675-0.675,1.61-1.063,2.563-1.063C135.438,127.192,136.374,127.58,137.048,128.254z M126.606,106.605h7.158v0.936h-7.158
		V106.605z M124.674,117.381c0.675-0.675,1.61-1.061,2.562-1.061c0.955,0,1.89,0.388,2.563,1.061
		c0.673,0.674,1.062,1.608,1.062,2.563c0,0.956-0.387,1.888-1.062,2.564c-0.675,0.675-1.61,1.059-2.563,1.059
		c-0.951,0-1.888-0.384-2.562-1.059c-0.675-0.677-1.063-1.612-1.063-2.564C123.611,118.99,123.999,118.059,124.674,117.381z
		 M115.104,109.876h0.937v5.973h-0.937V109.876z M115.104,121.235h0.937l-0.002,6.722h-0.935V121.235z M115.104,132.593h0.935v7.471
		h-0.935V132.593z M115.104,144.102h0.935v7.422h-0.935V144.102z M115.104,156.211h0.935v6.672h-0.935V156.211z M115.104,168.318
		h0.935v5.922h-0.935V168.318z M121.636,176.859h-6.407v-0.937h6.407V176.859z M121.654,107.541h-6.407v-0.936h6.407V107.541z
		 M124.674,139.125c0.675-0.674,1.61-1.062,2.562-1.062c0.957,0,1.89,0.388,2.563,1.062c0.673,0.675,1.062,1.61,1.062,2.563
		c0,0.955-0.389,1.889-1.062,2.563c-0.675,0.679-1.606,1.062-2.563,1.062c-0.953,0-1.888-0.383-2.562-1.062
		c-0.675-0.674-1.063-1.606-1.063-2.563C123.611,140.737,123.999,139.802,124.674,139.125z M123.613,163.436
		c0-0.953,0.388-1.885,1.063-2.563c0.673-0.674,1.61-1.063,2.562-1.063c0.953,0,1.888,0.389,2.562,1.063
		c0.675,0.676,1.063,1.609,1.063,2.563c0,0.957-0.39,1.887-1.063,2.563c-0.674,0.679-1.608,1.063-2.562,1.063
		c-0.954,0-1.889-0.385-2.562-1.063C124.001,165.322,123.613,164.389,123.613,163.436z M133.746,176.859h-7.158v-0.937h7.158
		V176.859z M134.485,156.188c-0.952,0-1.888-0.385-2.563-1.063c-0.674-0.674-1.062-1.607-1.062-2.563
		c0-0.951,0.388-1.89,1.062-2.562c0.677-0.674,1.611-1.063,2.563-1.063c0.957,0,1.889,0.39,2.563,1.063
		c0.678,0.674,1.063,1.608,1.063,2.562c0,0.957-0.385,1.889-1.063,2.563C136.372,155.803,135.442,156.188,134.485,156.188z
		 M145.52,176.859h-7.572v-0.937h7.572V176.859z M146.419,155.125c-0.674-0.676-1.062-1.607-1.062-2.563
		c0-0.953,0.388-1.89,1.062-2.563c0.675-0.672,1.608-1.063,2.563-1.063c0.953,0,1.888,0.392,2.561,1.063
		c0.676,0.674,1.063,1.61,1.063,2.563c0,0.955-0.387,1.889-1.063,2.563c-0.673,0.678-1.607,1.061-2.561,1.061
		C148.027,156.186,147.094,155.803,146.419,155.125z M156.878,176.859h-6.987v-0.937h6.987V176.859z M158.792,166
		c-0.674,0.676-1.604,1.061-2.562,1.061c-0.953,0-1.889-0.385-2.563-1.061c-0.674-0.678-1.062-1.611-1.062-2.564
		s0.388-1.889,1.062-2.563c0.675-0.674,1.608-1.063,2.563-1.063c0.957,0,1.888,0.389,2.562,1.063
		c0.675,0.676,1.063,1.609,1.063,2.563C159.855,164.391,159.467,165.322,158.792,166z M158.792,144.256
		c-0.674,0.674-1.604,1.059-2.562,1.059c-0.953,0-1.889-0.385-2.563-1.059c-0.674-0.676-1.062-1.611-1.062-2.565
		c0-0.955,0.388-1.889,1.062-2.563c0.675-0.673,1.608-1.061,2.563-1.061c0.951,0,1.888,0.388,2.562,1.061
		c0.679,0.675,1.063,1.608,1.063,2.563C159.854,142.645,159.471,143.578,158.792,144.256z M158.792,122.508
		c-0.674,0.675-1.604,1.059-2.562,1.059c-0.953,0-1.889-0.384-2.563-1.059c-0.674-0.677-1.062-1.608-1.062-2.564
		c0-0.954,0.388-1.885,1.062-2.563c0.675-0.675,1.608-1.061,2.563-1.061c0.957,0,1.888,0.388,2.562,1.061
		c0.679,0.678,1.063,1.608,1.063,2.563C159.854,120.9,159.471,121.832,158.792,122.508z M168.361,176.773h-0.002h-0.123v0.086
		h-6.239v-0.937h5.428v-3.289h0.937V176.773z"/>
	<path d="M179.018,203.311V79.016v-2.423V44.372c0-20.559-16.728-37.285-37.286-37.285s-37.284,16.727-37.284,37.285v32.221v0.398
		v0.005v2.02v124.294v3.158c0,0.002,0.001,0.004,0.001,0.006v32.619c0,20.559,16.726,37.284,37.284,37.284
		c20.559,0,37.287-16.728,37.287-37.285L179.018,203.311z M173.566,181.898h-63.668v-80.333h63.668V181.898z"/>
</g>
</svg>
