<?xml version="1.0" encoding="utf-8"?>
<!-- Generator: Adobe Illustrator 15.1.0, SVG Export Plug-In . SVG Version: 6.00 Build 0)  -->
<!DOCTYPE svg PUBLIC "-//W3C//DTD SVG 1.0//EN" "http://www.w3.org/TR/2001/REC-SVG-20010904/DTD/svg10.dtd">
<svg version="1.0" id="Layer_1" xmlns="http://www.w3.org/2000/svg" xmlns:xlink="http://www.w3.org/1999/xlink" x="0px" y="0px"
	 width="283.46px" height="283.46px" viewBox="0 0 283.46 283.46" enable-background="new 0 0 283.46 283.46" xml:space="preserve">
<g id="barcode">
	<rect x="7.084" y="54.298" fill="#010101" width="3.497" height="174.864"/>
	<rect x="17.576" y="54.298" fill="#010101" width="3.497" height="174.864"/>
	<rect x="24.571" y="54.298" fill="#010101" width="6.995" height="174.864"/>
	<rect x="35.063" y="54.298" fill="#010101" width="6.995" height="174.864"/>
	<rect x="45.555" y="54.298" fill="#010101" width="3.497" height="174.864"/>
	<rect x="52.549" y="54.298" fill="#010101" width="6.994" height="174.864"/>
	<rect x="63.041" y="54.298" fill="#010101" width="3.497" height="174.864"/>
	<rect x="73.533" y="54.298" fill="#010101" width="3.498" height="174.864"/>
	<rect x="80.527" y="54.298" fill="#010101" width="3.498" height="174.864"/>
	<rect x="87.522" y="54.298" fill="#010101" width="6.995" height="174.864"/>
	<rect x="98.014" y="54.298" fill="#010101" width="3.498" height="174.864"/>
	<rect x="105.008" y="54.298" fill="#010101" width="6.995" height="174.864"/>
	<rect x="118.998" y="54.298" fill="#010101" width="3.498" height="174.864"/>
	<rect x="125.992" y="54.298" fill="#010101" width="6.995" height="174.864"/>
	<rect x="136.484" y="54.298" fill="#010101" width="3.498" height="174.864"/>
	<rect x="143.479" y="54.298" fill="#010101" width="3.498" height="174.864"/>
	<rect x="150.473" y="54.298" fill="#010101" width="3.498" height="174.864"/>
	<rect x="160.965" y="54.298" fill="#010101" width="3.498" height="174.864"/>
	<rect x="167.959" y="54.298" fill="#010101" width="6.995" height="174.864"/>
	<rect x="178.451" y="54.298" fill="#010101" width="6.995" height="174.864"/>
	<rect x="188.943" y="54.298" fill="#010101" width="3.498" height="174.864"/>
	<rect x="195.938" y="54.298" fill="#010101" width="3.498" height="174.864"/>
	<rect x="206.43" y="54.298" fill="#010101" width="6.994" height="174.864"/>
	<rect x="216.922" y="54.298" fill="#010101" width="3.497" height="174.864"/>
	<rect x="223.916" y="54.298" fill="#010101" width="6.994" height="174.864"/>
	<rect x="234.408" y="54.298" fill="#010101" width="3.497" height="174.864"/>
	<rect x="244.9" y="54.298" fill="#010101" width="3.496" height="174.864"/>
	<rect x="251.895" y="54.298" fill="#010101" width="6.994" height="174.864"/>
	<rect x="262.387" y="54.298" fill="#010101" width="6.994" height="174.864"/>
	<rect x="272.879" y="54.298" fill="#010101" width="3.496" height="174.864"/>
</g>
</svg>
