<?xml version="1.0" encoding="utf-8"?>
<!-- Generator: Adobe Illustrator 15.1.0, SVG Export Plug-In . SVG Version: 6.00 Build 0)  -->
<!DOCTYPE svg PUBLIC "-//W3C//DTD SVG 1.1//EN" "http://www.w3.org/Graphics/SVG/1.1/DTD/svg11.dtd">
<svg version="1.1" id="Layer_2" xmlns="http://www.w3.org/2000/svg" xmlns:xlink="http://www.w3.org/1999/xlink" x="0px" y="0px"
	 width="283.465px" height="283.465px" viewBox="0 0 283.465 283.465" enable-background="new 0 0 283.465 283.465"
	 xml:space="preserve">
<g>
	<path d="M237.774,258.628h-5.914v-69.803c6.742-0.693,12.031-6.338,12.031-13.264c0-6.908-5.289-12.557-12.031-13.25v-48.76
		c6.742-0.691,12.031-6.336,12.031-13.258c0-6.914-5.289-12.555-12.031-13.254V24.839h5.914c4.902,0,8.879-3.974,8.879-8.873
		c0-4.902-3.973-8.879-8.879-8.879h-93.789h-4.506H45.688c-4.906,0-8.877,3.978-8.877,8.879c0,4.898,3.977,8.873,8.877,8.873h5.916
		V87.04c-6.742,0.699-12.033,6.34-12.033,13.254c0,6.922,5.291,12.566,12.033,13.258v48.76c-6.742,0.693-12.033,6.342-12.033,13.25
		c0,6.926,5.291,12.57,12.033,13.264v69.803h-5.916c-4.906,0-8.877,3.973-8.877,8.873s3.977,8.877,8.877,8.877h93.791h4.506h93.789
		c4.902,0,8.879-3.977,8.879-8.877S242.681,258.628,237.774,258.628z M49.504,20.628c-2.636,0-4.771-2.136-4.771-4.771v-0.052
		c0-2.635,2.135-4.77,4.771-4.77h89.976h4.506h89.977c2.635,0,4.771,2.135,4.771,4.77v0.052c0,2.635-2.137,4.771-4.771,4.771
		h-89.977h-4.506H49.504z M49.504,104.782c-2.636,0-4.771-2.136-4.771-4.771V99.96c0-2.635,2.135-4.771,4.771-4.771h89.976h4.506
		h89.977c2.635,0,4.771,2.136,4.771,4.771v0.051c0,2.636-2.137,4.771-4.771,4.771h-89.977h-4.506H49.504z M49.504,180.521
		c-2.636,0-4.771-2.137-4.771-4.771v-0.051c0-2.635,2.135-4.771,4.771-4.771h89.976h4.506h89.977c2.635,0,4.771,2.137,4.771,4.771
		v0.051c0,2.635-2.137,4.771-4.771,4.771h-89.977h-4.506H49.504z M238.731,267.646c0,2.635-2.135,4.771-4.771,4.771h-89.975h-4.506
		H49.503c-2.635,0-4.771-2.137-4.771-4.771v-0.053c0-2.635,2.137-4.77,4.771-4.77h89.977h4.506h89.975
		c2.637,0,4.771,2.135,4.771,4.77V267.646z"/>
</g>
</svg>
