<?xml version="1.0" encoding="utf-8"?>
<!-- Generator: Adobe Illustrator 15.1.0, SVG Export Plug-In . SVG Version: 6.00 Build 0)  -->
<!DOCTYPE svg PUBLIC "-//W3C//DTD SVG 1.1//EN" "http://www.w3.org/Graphics/SVG/1.1/DTD/svg11.dtd">
<svg version="1.1" id="Layer_1" xmlns="http://www.w3.org/2000/svg" xmlns:xlink="http://www.w3.org/1999/xlink" x="0px" y="0px"
	 width="96px" height="96px" viewBox="0 0 96 96" enable-background="new 0 0 96 96" xml:space="preserve">
<g id="Layer_3">
</g>
<g>
	<path d="M90.48,40.097h-3.514V30.43c0-1.942-1.574-3.52-3.521-3.52H59.084c-0.001-0.002-0.001-0.006-0.001-0.008h-8.108h-2.751
		H30.254c0,0.002,0,0.006,0,0.008H5.511c-1.941,0-3.515,1.577-3.515,3.521v35.151c0,1.939,1.574,3.516,3.515,3.516h29V69.09h15.75
		v-0.002h1.27h8.503l-0.004,0.008h23.42c1.94,0,3.519-1.574,3.519-3.516v-9.666h3.516c1.939,0,3.52-1.574,3.52-3.518v-8.787
		C93.996,41.67,92.422,40.097,90.48,40.097z M81.693,63.824H66.028c-0.001-0.004-0.001-0.006-0.003-0.008H61.9h-8.041h-3.598h-0.527
		H33.14c0,0.002,0,0.004,0,0.008H7.267V32.188h24.061l0.003-0.008h16.885h0.612h9.139v0.008h23.727V63.824z"/>
	<path d="M22.379,33.673h-9.164c-1.753,0-3.18,1.45-3.18,3.235v22.15c0,1.785,1.427,3.236,3.18,3.236h9.164
		c1.753,0,3.18-1.451,3.18-3.236v-22.15C25.559,35.123,24.132,33.673,22.379,33.673z M24.605,59.062
		c0,1.248-0.998,2.267-2.226,2.267h-9.164c-1.229,0-2.227-1.019-2.227-2.267V36.908c0-1.248,0.998-2.269,2.227-2.269h9.164
		c1.229,0,2.226,1.021,2.226,2.269V59.062z"/>
	<path d="M40.129,33.673h-9.164c-1.753,0-3.18,1.45-3.18,3.235v22.15c0,1.785,1.427,3.236,3.18,3.236h9.164
		c1.753,0,3.18-1.451,3.18-3.236v-22.15C43.309,35.123,41.882,33.673,40.129,33.673z M42.355,59.062
		c0,1.248-0.998,2.267-2.226,2.267h-9.164c-1.229,0-2.227-1.019-2.227-2.267V36.908c0-1.248,0.998-2.269,2.227-2.269h9.164
		c1.229,0,2.226,1.021,2.226,2.269V59.062z"/>
	<path d="M48.715,33.673c-1.753,0-3.18,1.45-3.18,3.235v22.15c0,1.785,1.427,3.236,3.18,3.236h9.164c1.754,0,3.18-1.451,3.18-3.236
		v-22.15c0-1.785-1.426-3.235-3.18-3.235H48.715z M60.105,36.908v22.153c0,1.248-0.998,2.267-2.229,2.267h-9.164
		c-1.228,0-2.226-1.019-2.226-2.267V36.908c0-1.248,0.998-2.269,2.226-2.269h9.164C59.105,34.64,60.105,35.66,60.105,36.908z"/>
	<path d="M66.527,62.295h9.164c1.754,0,3.18-1.451,3.18-3.236v-22.15c0-1.785-1.426-3.235-3.18-3.235h-9.164
		c-1.754,0-3.18,1.45-3.18,3.235v22.15C63.348,60.844,64.773,62.295,66.527,62.295z M64.301,36.908c0-1.248,0.998-2.269,2.227-2.269
		h9.164c1.229,0,2.227,1.021,2.227,2.269v22.153c0,1.248-0.998,2.267-2.227,2.267h-9.164c-1.229,0-2.227-1.019-2.227-2.267V36.908z"
		/>
</g>
</svg>
