<?xml version="1.0" encoding="utf-8"?>
<!-- Generator: Adobe Illustrator 15.1.0, SVG Export Plug-In . SVG Version: 6.00 Build 0)  -->
<!DOCTYPE svg PUBLIC "-//W3C//DTD SVG 1.1//EN" "http://www.w3.org/Graphics/SVG/1.1/DTD/svg11.dtd">
<svg version="1.1" id="Layer_1" xmlns="http://www.w3.org/2000/svg" xmlns:xlink="http://www.w3.org/1999/xlink" x="0px" y="0px"
	 width="283.465px" height="283.465px" viewBox="0 0 283.465 283.465" enable-background="new 0 0 283.465 283.465"
	 xml:space="preserve">
<g id="Layer_3">
</g>
<g>
	<path d="M266.064,118.603H255.78V90.31c0-5.685-4.607-10.303-10.307-10.303h-71.301c-0.003-0.005-0.003-0.019-0.003-0.024h-23.732
		h-8.053H89.792c0,0.005,0,0.019,0,0.024H17.375c-5.682,0-10.288,4.615-10.288,10.306v102.88c0,5.677,4.606,10.29,10.288,10.29
		h84.877v-0.023h46.1v-0.006h3.715h24.888l-0.012,0.023h68.547c5.68,0,10.297-4.607,10.297-10.29v-28.29h10.291
		c5.676,0,10.301-4.607,10.301-10.296v-25.72C276.354,123.207,271.747,118.603,266.064,118.603z M240.347,188.047h-45.85
		c-0.003-0.012-0.003-0.018-0.01-0.022h-12.071h-23.535h-10.529h-1.544H98.24c0,0.006,0,0.013,0,0.022H22.514V95.454h70.422
		l0.009-0.022h49.421h1.791h26.746v0.022h69.444V188.047L240.347,188.047z"/>
	<path d="M126.533,104.206c-0.048-0.074-0.079-0.167-0.128-0.234c-0.911-1.455-2.242-2.62-3.841-3.287
		c-1.183-0.553-2.484-0.885-3.87-0.885H91.875c-5.132,0-9.309,4.245-9.309,9.469v64.836c0,2.009,0.626,3.864,1.68,5.396
		c1.206,1.943,3.173,3.361,5.49,3.799c0.689,0.175,1.399,0.279,2.139,0.279h26.819c0.724,0,1.419-0.1,2.095-0.263
		c2.93-0.503,5.329-2.55,6.348-5.278c0.544-1.197,0.866-2.523,0.866-3.934V109.27c0-1.482-0.366-2.865-0.96-4.11
		C126.901,104.823,126.715,104.513,126.533,104.206z"/>
	<path d="M70.49,100.614c-1.147-0.521-2.412-0.814-3.747-0.814h-26.82c-5.132,0-9.308,4.245-9.308,9.469v64.836
		c0,2.664,1.095,5.059,2.841,6.785c1.007,1.046,2.292,1.807,3.729,2.218c0.869,0.274,1.779,0.466,2.739,0.466h26.82
		c0.706,0,1.388-0.094,2.046-0.248c3.494-0.543,6.277-3.259,6.893-6.729c0.217-0.801,0.369-1.629,0.369-2.498v-64.83
		c0-0.896-0.162-1.739-0.389-2.561C75.099,103.907,73.106,101.624,70.49,100.614z"/>
	<path d="M143.824,99.799c-5.131,0-9.307,4.245-9.307,9.469v64.836c0,5.226,4.176,9.469,9.307,9.469h26.821
		c5.133,0,9.308-4.243,9.308-9.469V109.27c0-5.225-4.175-9.469-9.308-9.469L143.824,99.799L143.824,99.799z M177.163,109.27v64.836
		c0,3.652-2.921,6.637-6.525,6.637h-26.822c-3.595,0-6.514-2.984-6.514-6.637V109.27c0-3.653,2.919-6.638,6.514-6.638h26.821
		C174.242,102.636,177.163,105.616,177.163,109.27z"/>
	<path d="M195.958,183.578h26.82c5.135,0,9.308-4.248,9.308-9.473V109.27c0-5.225-4.173-9.469-9.308-9.469h-26.82
		c-5.134,0-9.308,4.245-9.308,9.469v64.836C186.651,179.33,190.825,183.578,195.958,183.578z M189.441,109.27
		c0-3.653,2.921-6.638,6.522-6.638h26.814c3.6,0,6.522,2.985,6.522,6.638v64.836c0,3.652-2.921,6.637-6.522,6.637h-26.814
		c-3.596,0-6.522-2.984-6.522-6.637V109.27z"/>
</g>
</svg>
