<?xml version="1.0" encoding="utf-8"?>
<!-- Generator: Adobe Illustrator 15.1.0, SVG Export Plug-In . SVG Version: 6.00 Build 0)  -->
<!DOCTYPE svg PUBLIC "-//W3C//DTD SVG 1.1//EN" "http://www.w3.org/Graphics/SVG/1.1/DTD/svg11.dtd">
<svg version="1.1" id="Layer_1" xmlns="http://www.w3.org/2000/svg" xmlns:xlink="http://www.w3.org/1999/xlink" x="0px" y="0px"
	 width="96px" height="96px" viewBox="0 0 96 96" enable-background="new 0 0 96 96" xml:space="preserve">
<g id="Layer_3">
</g>
<g>
	<path d="M90.484,40.097h-3.514V30.43c0-1.942-1.574-3.52-3.521-3.52H59.088c-0.001-0.002-0.001-0.006-0.001-0.008h-8.108h-2.752
		H30.258c0,0.002,0,0.006,0,0.008H5.515C3.574,26.91,2,28.487,2,30.431v35.151c0,1.939,1.574,3.516,3.515,3.516h29V69.09h15.75
		v-0.002h1.27h8.503l-0.004,0.008h23.42c1.94,0,3.519-1.574,3.519-3.516v-9.666h3.516c1.939,0,3.519-1.574,3.519-3.518v-8.787
		C94,41.67,92.426,40.097,90.484,40.097z M81.697,63.824H66.032c-0.001-0.004-0.001-0.006-0.003-0.008h-4.125h-8.041h-3.598h-0.527
		H33.144c0,0.002,0,0.004,0,0.008H7.271V32.188h24.061l0.003-0.008H48.22h0.612h9.139v0.008h23.727V63.824L81.697,63.824z"/>
	<path d="M42.811,35.178c-0.016-0.025-0.027-0.057-0.044-0.08c-0.311-0.497-0.766-0.895-1.312-1.123
		c-0.404-0.189-0.849-0.302-1.322-0.302h-9.164c-1.753,0-3.18,1.45-3.18,3.235V59.06c0,0.687,0.214,1.321,0.574,1.845
		c0.412,0.664,1.084,1.147,1.876,1.297c0.235,0.059,0.478,0.096,0.73,0.096h9.164c0.247,0,0.484-0.035,0.715-0.09
		c1.001-0.172,1.821-0.871,2.169-1.803c0.186-0.41,0.296-0.863,0.296-1.345V36.908c0-0.506-0.125-0.979-0.328-1.404
		C42.937,35.389,42.873,35.283,42.811,35.178z"/>
	<path d="M23.663,33.951c-0.392-0.178-0.824-0.278-1.28-0.278h-9.164c-1.753,0-3.18,1.45-3.18,3.235V59.06
		c0,0.91,0.374,1.729,0.971,2.319c0.344,0.357,0.783,0.617,1.274,0.758c0.297,0.094,0.608,0.159,0.936,0.159h9.164
		c0.241,0,0.474-0.033,0.699-0.085c1.194-0.186,2.145-1.113,2.355-2.299c0.074-0.273,0.126-0.557,0.126-0.854v-22.15
		c0-0.306-0.055-0.594-0.133-0.875C25.238,35.076,24.557,34.296,23.663,33.951z"/>
	<path d="M48.719,33.673c-0.472,0-0.917,0.112-1.32,0.301c-0.693,0.288-1.249,0.845-1.537,1.539
		c-0.201,0.424-0.323,0.894-0.323,1.396v22.152c0,0.479,0.108,0.928,0.291,1.336c0.347,0.936,1.169,1.639,2.175,1.813
		c0.23,0.054,0.468,0.089,0.714,0.089h9.164c0.254,0,0.496-0.038,0.73-0.095c0.789-0.15,1.457-0.631,1.869-1.289
		c0.363-0.526,0.58-1.164,0.58-1.854V36.908c0-1.785-1.426-3.235-3.181-3.235H48.719z"/>
	<path d="M66.531,62.297h9.164c1.754,0,3.18-1.451,3.18-3.236V36.908c0-1.785-1.426-3.235-3.18-3.235h-9.164
		c-1.754,0-3.18,1.45-3.18,3.235V59.06C63.352,60.846,64.777,62.297,66.531,62.297z M64.305,36.908c0-1.248,0.998-2.268,2.228-2.268
		h9.163c1.229,0,2.228,1.02,2.228,2.268v22.152c0,1.248-0.998,2.268-2.228,2.268h-9.163c-1.229,0-2.228-1.02-2.228-2.268V36.908z"/>
</g>
</svg>
