<?xml version="1.0" encoding="utf-8"?>
<!-- Generator: Adobe Illustrator 15.1.0, SVG Export Plug-In . SVG Version: 6.00 Build 0)  -->
<!DOCTYPE svg PUBLIC "-//W3C//DTD SVG 1.1//EN" "http://www.w3.org/Graphics/SVG/1.1/DTD/svg11.dtd">
<svg version="1.1" id="Layer_1" xmlns="http://www.w3.org/2000/svg" xmlns:xlink="http://www.w3.org/1999/xlink" x="0px" y="0px"
	 width="283.465px" height="283.465px" viewBox="0 0 283.465 283.465" enable-background="new 0 0 283.465 283.465"
	 xml:space="preserve">
<g id="Layer_3">
</g>
<g>
	<path d="M266.063,118.604h-10.284V90.31c0-5.685-4.607-10.302-10.307-10.302h-71.302c-0.003-0.006-0.003-0.019-0.003-0.024h-23.73
		h-8.05H89.791c0,0.006,0,0.019,0,0.024H17.374c-5.681,0-10.288,4.614-10.288,10.305v102.88c0,5.677,4.607,10.289,10.288,10.289
		h84.878v-0.022h46.1v-0.006h3.715h24.887l-0.012,0.022h68.546c5.679,0,10.298-4.606,10.298-10.289v-28.291h10.291
		c5.676,0,10.303-4.606,10.303-10.295v-25.72C276.353,123.207,271.746,118.604,266.063,118.604z M240.345,188.047h-45.849
		c-0.003-0.012-0.003-0.018-0.009-0.022h-12.072H158.88h-10.528h-1.544H98.239c0,0.006,0,0.013,0,0.022H22.514V95.455h70.422
		l0.009-0.022h49.419h1.791h26.747v0.022h69.442L240.345,188.047L240.345,188.047z"/>
	<path d="M193.801,183.291c0.695,0.172,1.406,0.283,2.155,0.283h26.821c0.703,0,1.39-0.095,2.047-0.249
		c3.441-0.549,6.183-3.194,6.849-6.591c0.239-0.84,0.411-1.715,0.411-2.63V109.27c0-1.362-0.297-2.647-0.8-3.82
		c-0.823-2.195-2.538-3.951-4.711-4.817c-1.16-0.527-2.438-0.834-3.796-0.834h-26.815c-5.139,0-9.312,4.242-9.312,9.465v64.833
		c0,2.119,0.708,4.059,1.863,5.636C189.714,181.543,191.604,182.851,193.801,183.291z"/>
	<path d="M126.533,104.207c-0.047-0.074-0.079-0.167-0.129-0.234c-0.91-1.455-2.242-2.62-3.84-3.287
		c-1.185-0.553-2.485-0.884-3.87-0.884h-26.82c-5.132,0-9.308,4.244-9.308,9.469v64.83c0,2.006,0.623,3.858,1.673,5.396
		c1.209,1.949,3.181,3.367,5.512,3.809c0.686,0.162,1.392,0.271,2.125,0.271h26.82c0.717,0,1.409-0.102,2.079-0.261
		c2.938-0.504,5.344-2.55,6.362-5.282c0.545-1.199,0.862-2.525,0.862-3.933v-64.83c0-1.482-0.366-2.865-0.96-4.11
		C126.901,104.823,126.714,104.513,126.533,104.207z"/>
	<path d="M70.49,100.614c-1.146-0.521-2.412-0.814-3.747-0.814h-26.82c-5.132,0-9.308,4.244-9.308,9.469v64.83
		c0,2.656,1.092,5.059,2.833,6.775c1.146,1.194,2.628,2.059,4.306,2.403c0.699,0.175,1.419,0.289,2.169,0.289h26.82
		c0.7,0,1.379-0.095,2.035-0.243c3.502-0.543,6.29-3.258,6.904-6.736c0.217-0.797,0.368-1.627,0.368-2.494V109.27
		c0-0.896-0.16-1.739-0.389-2.561C75.1,103.907,73.107,101.624,70.49,100.614z"/>
	<path d="M143.823,99.8c-1.38,0-2.682,0.329-3.862,0.882c-2.027,0.843-3.655,2.472-4.499,4.504c-0.587,1.24-0.943,2.617-0.943,4.086
		v64.832c0,1.397,0.314,2.71,0.852,3.903c1.017,2.744,3.427,4.812,6.379,5.307c0.67,0.159,1.362,0.26,2.075,0.26h26.822
		c0.733,0,1.439-0.107,2.132-0.277c2.31-0.435,4.281-1.846,5.487-3.777c1.058-1.538,1.687-3.4,1.687-5.419v-64.83
		c0-5.225-4.173-9.469-9.306-9.469L143.823,99.8L143.823,99.8z"/>
</g>
</svg>
