<?xml version="1.0" encoding="utf-8"?>
<!-- Generator: Adobe Illustrator 15.1.0, SVG Export Plug-In . SVG Version: 6.00 Build 0)  -->
<!DOCTYPE svg PUBLIC "-//W3C//DTD SVG 1.1//EN" "http://www.w3.org/Graphics/SVG/1.1/DTD/svg11.dtd">
<svg version="1.1" id="Layer_2" xmlns="http://www.w3.org/2000/svg" xmlns:xlink="http://www.w3.org/1999/xlink" x="0px" y="0px"
	 width="283.465px" height="283.465px" viewBox="0 0 283.465 283.465" enable-background="new 0 0 283.465 283.465"
	 xml:space="preserve">
<g>
	<path d="M89.792,80.006H67.098H17.375c-5.683,0-10.288,4.614-10.288,10.306v102.88c0,5.678,4.605,10.289,10.288,10.289h49.723
		h34.147v-15.457h-3.007c0,0.006,0,0.012,0,0.022H67.097H22.513V95.454h44.584h25.838l0.009-0.021h8.301v-15.45H89.792
		C89.792,79.988,89.792,80.001,89.792,80.006z"/>
	<path d="M266.063,118.604h-10.287V90.311c0-5.686-4.604-10.303-10.303-10.303h-40.816H184.17v15.446h20.486h35.688v92.593h-35.688
		h-10.162c0-0.012,0-0.02-0.008-0.023H184.17v15.453h20.486h40.83c5.679,0,10.298-4.606,10.298-10.291v-28.289h10.29
		c5.677,0,10.304-4.606,10.304-10.297v-25.72C276.352,123.206,271.745,118.604,266.063,118.604z"/>
	<polygon points="145.986,59.428 104.037,162.234 140.844,162.305 140.844,224.037 179.425,136.587 145.986,136.587 	"/>
</g>
</svg>
