<?xml version="1.0" encoding="utf-8"?>
<!-- Generator: Adobe Illustrator 15.1.0, SVG Export Plug-In . SVG Version: 6.00 Build 0)  -->
<!DOCTYPE svg PUBLIC "-//W3C//DTD SVG 1.1//EN" "http://www.w3.org/Graphics/SVG/1.1/DTD/svg11.dtd">
<svg version="1.1" id="Layer_4" xmlns="http://www.w3.org/2000/svg" xmlns:xlink="http://www.w3.org/1999/xlink" x="0px" y="0px"
	 width="283.46px" height="283.46px" viewBox="0 0 283.46 283.46" enable-background="new 0 0 283.46 283.46" xml:space="preserve">
<g>
	<path fill="none" d="M141.732,76.201c-7.618,0-15.434,2.172-20.426-1.396c-2.757-0.11-5.52-0.176-8,0.367
		c-5.788,1.278-14.564,6.802-18.051,8.55C73.019,94.85,74.953,110.249,75.443,123.53c29.933,33.842,24.281,12.811,56.863,14.659
		v0.08c2.921-0.968,6.099-1.506,9.426-1.506c3.33,0,6.51,0.539,9.434,1.507v-0.081c32.567-1.849,26.917,19.183,56.85-14.659
		c0.489-13.281,2.423-28.68-19.813-39.808c-3.486-1.748-12.263-7.271-18.05-8.55c-2.625-0.575-5.564-0.469-8.478-0.349
		C156.682,78.39,149.35,76.201,141.732,76.201z"/>
	<g>
		<path fill="none" d="M188.206,83.722c-3.485-1.748-12.262-7.271-18.05-8.55c-2.48-0.543-5.243-0.478-8.001-0.367
			c-1.942,1.388-4.315,1.902-6.936,2.019c-3.999,0.234-8.603-0.601-13.322-0.62c-0.056,0-0.11-0.003-0.166-0.003
			s-0.111,0.003-0.166,0.003c-4.72,0.02-9.323,0.854-13.322,0.62c-2.62-0.116-4.993-0.631-6.937-2.019
			c-2.757-0.11-5.52-0.176-8,0.367c-5.788,1.278-14.564,6.802-18.051,8.55C73.019,94.85,74.953,110.249,75.443,123.53
			c29.933,33.842,24.281,12.811,56.863,14.659v0.079c2.19-0.726,4.525-1.209,6.96-1.405c0.122-0.01,0.247-0.007,0.369-0.015
			c0.692-0.048,1.388-0.085,2.095-0.085c0.001,0,0.001,0,0.001,0c0.001,0,0.001,0,0.001,0c3.327,0,6.503,0.538,9.424,1.505v-0.079
			c32.582-1.849,26.931,19.183,56.862-14.659C208.508,110.249,210.443,94.85,188.206,83.722z"/>
		<path fill="#231F20" d="M271.047,30.322c-10.586,0-20.093,7.004-23.686,17.408c-2.633,7.663-3.198,8.718-8.646,19.153
			c-2.633,5.074-21.69-2.852-24.622,3.064c-10.296-21.201-16.373-19.244-24.548-27.42c-12.149-4.224-19.872-4.956-27.621-4.777
			c-0.001-0.001-0.003-0.002-0.004-0.003c-2.236-1.599-4.992-1.956-8.037-1.868c-3.285,0.063-6.929,0.723-10.731,0.868
			c-0.184,0.007-0.368,0.007-0.553,0.012c-0.289,0.007-0.577,0.017-0.868,0.017c-0.285,0-0.568-0.01-0.852-0.017
			c-0.19-0.005-0.38-0.004-0.569-0.012c-3.803-0.146-7.446-0.806-10.731-0.868c-3.045-0.088-5.802,0.27-8.038,1.868
			c-0.001,0.001-0.002,0.002-0.003,0.003c-7.75-0.179-15.472,0.554-27.621,4.777c-8.176,8.176-14.252,6.219-24.549,27.42
			c-2.932-5.916-21.989,2.01-24.622-3.064c-5.446-10.436-6.014-11.49-8.646-19.153C32.508,37.326,23,30.322,12.416,30.322
			c-2.943,0-5.331,2.389-5.331,5.33c0,19.603,30.956,109.389,43.139,135.492c10.975,23.51,39.064,60.272,72.956,69.811v0.001
			c4.828,7.544,11.357,12.184,18.551,12.184c0.001,0,0.001,0,0.001,0c0.001,0,0.001,0,0.001,0c7.192,0,13.722-4.64,18.551-12.184
			c0,0,0.001-0.001,0.001-0.002c33.892-9.537,61.98-46.3,72.954-69.81c12.184-26.104,43.138-115.89,43.138-135.492
			C276.375,32.71,273.99,30.322,271.047,30.322z M208.018,123.53c-29.932,33.842-24.28,12.811-56.862,14.659v0.079
			c-2.921-0.967-6.097-1.505-9.424-1.505c0,0,0,0-0.001,0c0,0,0,0-0.001,0c-0.707,0-1.402,0.037-2.095,0.085
			c-0.122,0.008-0.247,0.005-0.369,0.015c-2.435,0.196-4.77,0.68-6.96,1.405v-0.079c-32.582-1.849-26.931,19.183-56.863-14.659
			c-0.49-13.281-2.424-28.68,19.813-39.808c3.486-1.748,12.263-7.271,18.051-8.55c2.48-0.543,5.243-0.478,8-0.367
			c1.943,1.388,4.316,1.902,6.937,2.019c3.999,0.234,8.603-0.601,13.322-0.62c0.055,0,0.11-0.003,0.166-0.003
			s0.11,0.003,0.166,0.003c4.72,0.02,9.323,0.854,13.322,0.62c2.62-0.116,4.993-0.631,6.936-2.019
			c2.758-0.11,5.521-0.176,8.001,0.367c5.788,1.278,14.564,6.802,18.05,8.55C210.443,94.85,208.508,110.249,208.018,123.53z"/>
	</g>
</g>
</svg>
