<?xml version="1.0" encoding="utf-8"?>
<!-- Generator: Adobe Illustrator 15.1.0, SVG Export Plug-In . SVG Version: 6.00 Build 0)  -->
<!DOCTYPE svg PUBLIC "-//W3C//DTD SVG 1.1//EN" "http://www.w3.org/Graphics/SVG/1.1/DTD/svg11.dtd">
<svg version="1.1" id="Layer_1" xmlns="http://www.w3.org/2000/svg" xmlns:xlink="http://www.w3.org/1999/xlink" x="0px" y="0px"
	 width="283.46px" height="283.46px" viewBox="0 0 283.46 283.46" enable-background="new 0 0 283.46 283.46" xml:space="preserve">
<g>
	<path d="M221.87,32.633c-0.639-7.068-1.255-13.754-1.748-19.725c-0.225-2.644-2.262-4.771-4.905-5.096
		c-2.565-0.359-5.13,1.243-5.981,3.763c-7.067,20.912-12.982,30.231-19.199,30.231c-0.672,0-1.399-0.09-2.173-0.28
		c-3.561-0.863-8.009-2.285-12.813-3.797c-11.179-3.54-23.836-7.549-33.311-7.549c-9.476,0-22.133,4.009-33.312,7.561
		c-4.805,1.523-9.251,2.934-12.814,3.797c-0.773,0.19-1.5,0.28-2.184,0.28c-6.217,0-12.131-9.319-19.198-30.231
		c-0.851-2.52-3.338-4.122-5.981-3.764c-2.632,0.313-4.682,2.442-4.907,5.097c-0.493,5.97-1.108,12.646-1.748,19.725
		c-3.024,33.199-6.788,74.52-3.808,93.617c1.535,9.79,14.863,56.006,33.536,94.648c1.154,3.295,2.511,6.763,4.047,10.289
		c2.17,5.38,4.985,10.889,8.278,16.144c8.468,14.073,19.737,26.287,33.037,29.088c1.688,0.393,3.373,0.623,5.044,0.623
		c0.114,0,0.226-0.013,0.339-0.015c0.114,0.002,0.226,0.015,0.34,0.015c1.702,0,3.419-0.238,5.138-0.646
		c9.789-2.11,18.366-9.354,25.517-18.693c9.051-11.067,16.206-25.046,19.093-36.865c18.659-38.633,31.989-84.813,33.511-94.598
		C228.657,107.153,224.893,65.833,221.87,32.633z M175.117,64.488c-0.739,2.408-2.958,3.955-5.354,3.955
		c-0.549,0-1.099-0.079-1.647-0.246c-26.046,13.34-26.046,13.34-52.767,0c-2.968,0.94-6.093-0.739-7-3.697
		c-0.918-2.957,0.739-6.093,3.696-7c21.092-6.508,38.285-6.508,59.375,0C174.377,58.396,176.035,61.532,175.117,64.488z"/>
</g>
</svg>
