<?xml version="1.0" encoding="utf-8"?>
<!-- Generator: Adobe Illustrator 15.1.0, SVG Export Plug-In . SVG Version: 6.00 Build 0)  -->
<!DOCTYPE svg PUBLIC "-//W3C//DTD SVG 1.0//EN" "http://www.w3.org/TR/2001/REC-SVG-20010904/DTD/svg10.dtd">
<svg version="1.0" id="Layer_1" xmlns="http://www.w3.org/2000/svg" xmlns:xlink="http://www.w3.org/1999/xlink" x="0px" y="0px"
	 width="283.46px" height="283.46px" viewBox="0 0 283.46 283.46" enable-background="new 0 0 283.46 283.46" xml:space="preserve">
<g>
	<path d="M275.648,139.974c-0.466-0.466-1.097-0.728-1.755-0.728l-222.286,0.002V59.372c0-1.371-1.111-2.483-2.482-2.483H9.566
		c-1.371,0-2.482,1.112-2.482,2.483v164.717c0,1.371,1.111,2.482,2.482,2.482h39.559c1.371,0,2.482-1.111,2.482-2.482v-40.318
		h180.244v40.318c0,1.371,1.112,2.482,2.483,2.482h39.559c1.37,0,2.482-1.111,2.482-2.482v-82.359
		C276.376,141.071,276.114,140.439,275.648,139.974z"/>
	<circle cx="92.66" cy="100.897" r="27.452"/>
	<path d="M246.968,89.458H132.694v38.891h139.564C270.614,106.409,259.934,89.458,246.968,89.458z"/>
</g>
</svg>
