<?xml version="1.0" encoding="utf-8"?>
<!-- Generator: Adobe Illustrator 15.1.0, SVG Export Plug-In . SVG Version: 6.00 Build 0)  -->
<!DOCTYPE svg PUBLIC "-//W3C//DTD SVG 1.0//EN" "http://www.w3.org/TR/2001/REC-SVG-20010904/DTD/svg10.dtd">
<svg version="1.0" id="Layer_1" xmlns="http://www.w3.org/2000/svg" xmlns:xlink="http://www.w3.org/1999/xlink" x="0px" y="0px"
	 width="283.465px" height="283.465px" viewBox="-93.732 -93.732 283.465 283.465"
	 enable-background="new -93.732 -93.732 283.465 283.465" xml:space="preserve">
<g>
	<path d="M151.029,125.598c-14.916-30.566-20.217-86.943-20.217-101.865c0-40.37-27.747-75.162-66.338-83.202
		c0.115-1.128,0.115-2.258,0-3.389c-0.925-9.333-9.029-16.142-18.13-15.194c-9.1,0.929-15.737,9.253-14.818,18.583
		C-6.32-51.646-34.81-17.353-34.81,23.729c0,14.933-5.297,71.31-20.209,101.861c-3.689,7.573-7.968,13.582-12.912,16.968h82.878
		c0.792,17.55,15.272,31.584,33.047,31.584c17.775,0,32.243-14.02,33.048-31.584h82.889
		C158.982,139.181,154.708,133.178,151.029,125.598z M48.005,163.479c-7.855,0-14.306-5.788-15.478-13.304l30.933,0.179
		C62.223,157.791,55.797,163.479,48.005,163.479z"/>
</g>
</svg>
