<?xml version="1.0" encoding="utf-8"?>
<!-- Generator: Adobe Illustrator 15.1.0, SVG Export Plug-In . SVG Version: 6.00 Build 0)  -->
<!DOCTYPE svg PUBLIC "-//W3C//DTD SVG 1.0//EN" "http://www.w3.org/TR/2001/REC-SVG-20010904/DTD/svg10.dtd">
<svg version="1.0" id="Layer_1" xmlns="http://www.w3.org/2000/svg" xmlns:xlink="http://www.w3.org/1999/xlink" x="0px" y="0px"
	 width="283.465px" height="283.465px" viewBox="-93.732 -93.732 283.465 283.465"
	 enable-background="new -93.732 -93.732 283.465 283.465" xml:space="preserve">
<g>
	<path fill="none" d="M48.001,163.478c7.792,0,14.218-5.687,15.456-13.124l-30.932-0.18
		C33.695,157.69,40.146,163.478,48.001,163.478z"/>
	<path d="M151.025,125.597c-14.916-30.565-20.217-86.942-20.217-101.864c0-40.37-27.746-75.161-66.338-83.203
		c0.115-1.127,0.115-2.253,0-3.388C63.545-72.192,55.441-79,46.341-78.054C37.242-77.125,30.608-68.8,31.526-59.47
		c-37.847,7.828-66.333,42.125-66.333,83.203c0,14.929-5.296,71.306-20.208,101.857c-3.69,7.573-7.968,13.583-12.913,16.968h82.874
		c0.792,17.55,15.272,31.584,33.047,31.584s32.24-14.017,33.047-31.584h82.887C158.979,139.18,154.705,133.178,151.025,125.597z
		 M48.001,163.478c-7.854,0-14.306-5.787-15.476-13.304l30.932,0.18C62.219,157.791,55.793,163.478,48.001,163.478z"/>
	<path d="M145.252,21.564l0.064,3.299l3.838-0.086c1.189,0,2.51,0.101,4.023,0.325l3.814,0.536l-0.057-3.86
		c-0.754-42.994-23.078-80.095-56.893-94.514l-2.668-1.142l-5.996,10.222l3.492,1.447C124.684-49.838,144.457-16.946,145.252,21.564
		z"/>
	<path d="M-53.218,24.951l3.893,0.084l0.074-3.297c0.799-38.515,20.606-71.394,50.458-83.767l3.485-1.451l-5.988-10.227
		l-2.663,1.142C-37.84-58.14-60.202-21.051-60.947,21.946l-0.066,3.868l3.826-0.54C-55.723,25.05-54.412,24.951-53.218,24.951z"/>
</g>
</svg>
