<?xml version="1.0" encoding="utf-8"?>
<!-- Generator: Adobe Illustrator 15.1.0, SVG Export Plug-In . SVG Version: 6.00 Build 0)  -->
<!DOCTYPE svg PUBLIC "-//W3C//DTD SVG 1.1//EN" "http://www.w3.org/Graphics/SVG/1.1/DTD/svg11.dtd">
<svg version="1.1" id="coffee-2" xmlns="http://www.w3.org/2000/svg" xmlns:xlink="http://www.w3.org/1999/xlink" x="0px" y="0px"
	 width="283.465px" height="283.465px" viewBox="0 0 283.465 283.465" enable-background="new 0 0 283.465 283.465"
	 xml:space="preserve">
<g>
	<path fill="none" d="M72.283,141.73c-8.297,0.025-15.533,5.642-17.615,13.673c-2.529,9.76,3.33,19.723,13.09,22.252l17.67,4.525
		c-0.877-12.412-2.189-25.848-2.189-40.451H72.283L72.283,141.73z"/>
	<path d="M276.354,64.1c0.01-8.894-3.504-17.43-9.768-23.744c-6.326-6.366-14.935-9.942-23.912-9.936H107.958
		c-8.978-0.007-17.583,3.57-23.912,9.936c-6.263,6.314-9.774,14.85-9.768,23.744h-12.63c-30.225,0.092-54.655,24.671-54.56,54.896
		c0.077,24.975,17.052,46.731,41.258,52.878l31.996,7.914c1.5,14.907,4.446,27.608,6.754,38.128c0.471,2.86,0.917,5.479,1.326,7.845
		c0.273,1.401,0.633,2.766,1.065,4.093c0.002,0.011,0.004,0.022,0.007,0.033h0.004c4.552,13.872,17.678,23.426,32.604,23.153
		h107.437c14.919,0.259,28.029-9.298,32.574-23.153h0.002c0-0.005,0-0.007,0.002-0.009c0.455-1.388,0.824-2.817,1.102-4.286
		c0.471-2.946,0.617-7.426,1.063-10.374h-0.003C271.496,165.154,276.779,114.65,276.354,64.1z M56.429,139.204
		c-11.254-2.916-18.011-14.402-15.095-25.657c2.401-9.261,10.746-15.74,20.313-15.767h12.63c0,16.839,1.516,32.333,2.525,46.645
		L56.429,139.204z"/>
</g>
</svg>
