<?xml version="1.0" encoding="utf-8"?>
<!-- Generator: Adobe Illustrator 15.1.0, SVG Export Plug-In . SVG Version: 6.00 Build 0)  -->
<!DOCTYPE svg PUBLIC "-//W3C//DTD SVG 1.1//EN" "http://www.w3.org/Graphics/SVG/1.1/DTD/svg11.dtd">
<svg version="1.1" id="coffee-2" xmlns="http://www.w3.org/2000/svg" xmlns:xlink="http://www.w3.org/1999/xlink" x="0px" y="0px"
	 width="283.465px" height="283.465px" viewBox="0 0 283.465 283.465" enable-background="new 0 0 283.465 283.465"
	 xml:space="preserve">
<g>
	<path fill="none" d="M72.283,141.73c-8.297,0.025-15.533,5.642-17.615,13.673c-2.529,9.76,3.33,19.723,13.09,22.252l17.67,4.525
		c-0.877-12.412-2.189-25.848-2.189-40.451H72.283L72.283,141.73z"/>
	<path d="M258.476,112.525c0.008-7.713-3.039-15.115-8.471-20.591c-5.486-5.521-12.951-8.622-20.736-8.616H112.443
		c-7.785-0.006-15.248,3.096-20.736,8.616c-5.432,5.476-8.477,12.878-8.471,20.591H72.283c-26.211,0.08-47.396,21.395-47.314,47.605
		c0.066,21.658,14.787,40.525,35.779,45.855l27.746,6.863c1.301,12.928,3.855,23.941,5.857,33.064
		c0.408,2.48,0.795,4.752,1.15,6.803c0.236,1.215,0.549,2.398,0.924,3.549c0.002,0.01,0.004,0.02,0.006,0.029h0.004
		c3.947,12.029,15.33,20.314,28.273,20.078h93.169c12.938,0.225,24.307-8.063,28.248-20.078h0.002c0-0.004,0-0.006,0.002-0.008
		c0.395-1.203,0.715-2.443,0.955-3.717c0.408-2.555,0.535-6.439,0.922-8.996h-0.002
		C254.263,200.159,258.845,156.362,258.476,112.525z M67.757,177.655c-9.76-2.529-15.619-12.49-13.09-22.25
		c2.082-8.031,9.318-13.65,17.615-13.673h10.953c0,14.603,1.314,28.039,2.189,40.451L67.757,177.655z"/>
	<path d="M170.854,65.501c8.066,0,14.605-6.537,14.605-14.604V21.691c0-8.064-6.539-14.604-14.605-14.604
		c-8.064,0-14.604,6.537-14.604,14.604v29.207C156.253,58.964,162.79,65.501,170.854,65.501z"/>
	<path d="M229.269,65.501c8.064,0,14.604-6.537,14.604-14.604V21.691c0-8.064-6.539-14.604-14.604-14.604
		s-14.604,6.537-14.604,14.604v29.207C214.667,58.964,221.204,65.501,229.269,65.501z"/>
	<path d="M112.443,65.501c8.064,0,14.604-6.537,14.604-14.604V21.691c0-8.064-6.539-14.604-14.604-14.604
		c-8.066,0-14.604,6.537-14.604,14.604v29.207C97.839,58.964,104.376,65.501,112.443,65.501z"/>
</g>
</svg>
