<?xml version="1.0" encoding="utf-8"?>
<!-- Generator: Adobe Illustrator 15.1.0, SVG Export Plug-In . SVG Version: 6.00 Build 0)  -->
<!DOCTYPE svg PUBLIC "-//W3C//DTD SVG 1.1//EN" "http://www.w3.org/Graphics/SVG/1.1/DTD/svg11.dtd">
<svg version="1.1" id="Layer_1" xmlns="http://www.w3.org/2000/svg" xmlns:xlink="http://www.w3.org/1999/xlink" x="0px" y="0px"
	 width="283.465px" height="283.465px" viewBox="0 0 283.465 283.465" enable-background="new 0 0 283.465 283.465"
	 xml:space="preserve">
<g>
	<path d="M117.282,259.749c3.24,10.213-5.431,19.941-15.024,15.163c-38.752-19.3-63.09-72.311-62.002-132.439
		C41.421,78.275,71.201,26.68,115.119,13.306c7.7-2.345,15.229,3.633,18.338,11.056c2.38,5.679,5.266,11.299,7.23,16.427
		c7.611,19.89,7.563,41.793-0.14,61.635l-26.92,69.349c-8.651,22.285-9.424,46.756-2.201,69.528L117.282,259.749z M163.061,8.493
		c-0.045-1.142,1.126-1.326,2.247-1.108c49.449,9.67,79.152,69.489,77.897,138.765c-1.124,62.024-28.932,112.275-70.441,127.676
		c-8.892,3.298-18.007-5.013-20.991-14.015c-3.329-10.043-8.548-20.495-11.009-28.259c-5.911-18.633-5.276-38.653,1.802-56.888
		l26.917-69.349c9.417-24.254,9.477-51.022,0.171-75.331C164.382,16.212,163.143,10.69,163.061,8.493z"/>
	<path fill="#2F2118" d="M171.537,274.43c-8.644,2.148-17.096-5.878-19.972-14.55c-1.706-5.146-3.88-10.331-5.984-15.35
		c-1.966-4.69-3.823-9.125-5.025-12.914c-5.896-18.587-5.254-38.843,1.805-57.03l26.92-69.349
		c9.397-24.21,9.458-50.906,0.171-75.175c-5.312-13.876-6.525-19.386-6.609-21.561c-0.024-0.693,0.343-1.17,1.039-1.343
		c0.511-0.127,1.08-0.063,1.47,0.012c23.832,4.661,43.928,20.961,58.111,47.139c13.495,24.904,20.584,57.521,19.96,91.842
		c-0.55,30.449-7.504,58.604-20.105,81.424c-12.593,22.809-30.052,38.873-50.479,46.451
		C172.41,274.188,171.974,274.321,171.537,274.43z M163.985,7.58c-0.496,0.124-0.729,0.419-0.708,0.903
		c0.083,2.146,1.289,7.602,6.58,21.423c9.325,24.37,9.266,51.179-0.172,75.488l-26.92,69.348
		c-7.024,18.095-7.663,38.247-1.795,56.746c1.195,3.77,3.049,8.191,5.012,12.875c2.104,5.024,4.282,10.22,5.995,15.38
		c2.813,8.487,11.053,16.355,19.454,14.266c0.42-0.104,0.842-0.232,1.253-0.388c41.584-15.426,69.181-65.464,70.301-127.475
		c0.62-34.248-6.449-66.789-19.906-91.628c-14.123-26.061-34.112-42.285-57.816-46.92C164.779,7.504,164.324,7.497,163.985,7.58z
		 M109.696,276.087c-2.427,0.604-5.032,0.265-7.533-0.982c-18.987-9.453-34.908-27.092-46.042-51.009
		c-11.058-23.749-16.618-51.977-16.081-81.627c0.569-31.563,7.98-60.521,21.427-83.749c13.474-23.274,32.003-39.051,53.591-45.624
		c8.005-2.428,15.613,4.05,18.603,11.179c1.028,2.456,2.163,4.923,3.259,7.309c1.469,3.193,2.857,6.213,3.972,9.124
		c7.634,19.947,7.583,41.892-0.139,61.79l-26.921,69.352c-8.591,22.127-9.369,46.769-2.193,69.384l5.851,18.451
		c1.192,3.756,0.84,7.762-0.965,10.993C114.966,273.458,112.542,275.379,109.696,276.087z M115.781,13.348
		c-0.199,0.05-0.397,0.104-0.596,0.165c-43.528,13.254-73.552,65.08-74.71,128.963c-1.09,60.123,23.779,113.266,61.882,132.238
		c2.408,1.2,4.908,1.529,7.233,0.951c2.728-0.679,5.055-2.524,6.552-5.201c1.748-3.127,2.087-7.008,0.932-10.649l-5.853-18.45
		c-7.202-22.711-6.421-47.453,2.205-69.676l26.922-69.349c7.685-19.799,7.733-41.633,0.138-61.478
		c-1.109-2.898-2.496-5.911-3.961-9.099c-1.097-2.39-2.235-4.858-3.266-7.323C130.418,17.665,123.326,11.472,115.781,13.348z"/>
</g>
</svg>
