<?xml version="1.0" encoding="utf-8"?>
<!-- Generator: Adobe Illustrator 15.1.0, SVG Export Plug-In . SVG Version: 6.00 Build 0)  -->
<!DOCTYPE svg PUBLIC "-//W3C//DTD SVG 1.1//EN" "http://www.w3.org/Graphics/SVG/1.1/DTD/svg11.dtd">
<svg version="1.1" id="Layer_1" xmlns="http://www.w3.org/2000/svg" xmlns:xlink="http://www.w3.org/1999/xlink" x="0px" y="0px"
	 width="283.465px" height="283.465px" viewBox="0 0 283.465 283.465" enable-background="new 0 0 283.465 283.465"
	 xml:space="preserve">
<g id="Musik_icon">
	<path d="M231.495,193.617H16.063c-4.937,0-8.976,4.039-8.976,8.975c0,19.838,16.066,35.906,35.904,35.906h161.574
		c19.838,0,35.906-16.068,35.906-35.906C240.472,197.656,236.431,193.617,231.495,193.617z M249.448,62.92h-8.977v-8.978
		c0-4.937-4.041-8.976-8.977-8.976H16.063c-4.937,0-8.976,4.039-8.976,8.976v44.882c0,36.086,16.517,68.4,42.367,89.764h148.648
		c6.463-5.295,12.299-11.398,17.504-17.951h15.889c24.775,0,44.883-20.107,44.883-44.883V89.85
		C276.378,75.037,264.259,62.92,249.448,62.92z M258.425,125.754c0,14.812-12.117,26.93-26.93,26.93h-4.309
		c8.438-16.157,13.285-34.469,13.285-53.858V80.873h8.977c4.938,0,8.977,4.039,8.977,8.977V125.754z"/>
</g>
</svg>
