<?xml version="1.0" encoding="utf-8"?>
<!-- Generator: Adobe Illustrator 15.1.0, SVG Export Plug-In . SVG Version: 6.00 Build 0)  -->
<!DOCTYPE svg PUBLIC "-//W3C//DTD SVG 1.1//EN" "http://www.w3.org/Graphics/SVG/1.1/DTD/svg11.dtd">
<svg version="1.1" id="Layer_2" xmlns="http://www.w3.org/2000/svg" xmlns:xlink="http://www.w3.org/1999/xlink" x="0px" y="0px"
	 width="283.465px" height="283.465px" viewBox="0 0 283.465 283.465" enable-background="new 0 0 283.465 283.465"
	 xml:space="preserve">
<g>
	<path fill="none" d="M245.965,123.85h-8.686v17.373c0,18.762-4.69,36.482-12.856,52.117h4.171
		c14.334,0,26.059-11.727,26.059-26.061v-34.744C254.652,127.757,250.745,123.85,245.965,123.85z"/>
	<path d="M245.965,106.477h-8.686v-8.688c0-4.777-3.911-8.686-8.688-8.686h-90.561c0.687,0.574,1.353,1.179,1.992,1.821
		c5.47,5.493,8.472,12.776,8.455,20.507v0.438h12.371c2.558,0,4.862,1.419,6.016,3.707l10.344,20.749
		c0.051,0.099,0.077,0.211,0.077,0.322v48.113c0,3.715-3.021,6.734-6.736,6.734h-48.112c-3.714,0-6.736-3.02-6.736-6.734v-48.112
		c0-0.111,0.026-0.222,0.076-0.322l10.345-20.75c1.151-2.286,3.457-3.706,6.019-3.706h0.041h12.327v-0.443
		c0.021-9.715-5.527-18.162-13.628-22.323h-22.9h-1.486c-0.101,0.059-0.206,0.109-0.305,0.169h-4.413
		c0.074-0.06,0.156-0.111,0.23-0.169h-0.016h-1.35H20.125c-4.777,0-8.686,3.908-8.686,8.686v43.431
		c0,34.92,15.982,66.19,40.998,86.862h143.842c6.254-5.123,11.9-11.029,16.938-17.371h15.376c23.974,0,43.433-19.457,43.433-43.432
		v-34.744C272.025,118.201,260.298,106.477,245.965,106.477z M254.652,167.278c0,14.333-11.726,26.06-26.06,26.06h-4.171
		c8.166-15.635,12.855-33.354,12.855-52.116V123.85h8.687c4.78,0,8.688,3.908,8.688,8.687V167.278z"/>
	<path d="M228.594,232.949H20.125c-4.777,0-8.686,3.908-8.686,8.684c0,19.197,15.546,34.746,34.744,34.746h156.35
		c19.197,0,34.746-15.549,34.746-34.746C237.281,236.857,233.37,232.949,228.594,232.949z"/>
	<path d="M126.929,115.979c0.997-1.979,2.993-3.209,5.209-3.209h12.37v-0.361h-12.327h-0.043c-2.354,0-4.474,1.306-5.532,3.408
		l-10.344,20.749c-0.014,0.025-0.021,0.053-0.021,0.081v48.112c0,3.414,2.779,6.195,6.195,6.195h48.112
		c3.416,0,6.194-2.781,6.194-6.195v-48.112c0-0.028-0.005-0.056-0.019-0.081l-10.345-20.749c-1.062-2.102-3.179-3.408-5.532-3.408
		h-12.371v0.361h12.33h0.041c2.217,0,4.211,1.229,5.209,3.208l10.325,20.71v48.071c0,3.217-2.618,5.834-5.834,5.834h-48.112
		c-3.217,0-5.834-2.617-5.834-5.834v-48.07L126.929,115.979z"/>
	<path d="M106.189,89.272c0.1-0.06,0.205-0.111,0.305-0.169c3.793-2.205,8.189-3.477,12.878-3.477h0.175
		c14.193,0.031,25.715,11.606,25.684,25.801v24.565c-0.254,0.085-0.494,0.194-0.723,0.326c-1.183,0.688-1.986,1.955-1.986,3.422
		c0,2.193,1.777,3.973,3.972,3.973s3.972-1.778,3.972-3.973c0-1.466-0.804-2.733-1.986-3.421c-0.228-0.132-0.469-0.241-0.723-0.326
		v-24.564c0.018-7.539-2.91-14.64-8.243-19.997c-5.334-5.356-12.424-8.316-19.963-8.333l-0.185-0.001
		c-6.54,0-12.561,2.252-17.358,6.004c-0.074,0.059-0.156,0.11-0.23,0.169L106.189,89.272L106.189,89.272z"/>
	<path d="M124.357,63.612c7.806,0,14.133-6.326,14.133-14.132V21.218c0-7.803-6.328-14.132-14.133-14.132
		c-7.803,0-14.131,6.326-14.131,14.132v28.264C110.229,57.288,116.555,63.612,124.357,63.612z"/>
	<path d="M180.885,63.612c7.803,0,14.131-6.326,14.131-14.132V21.218c0-7.803-6.326-14.132-14.131-14.132
		s-14.133,6.326-14.133,14.132v28.264C166.754,57.288,173.08,63.612,180.885,63.612z"/>
	<path d="M67.834,63.612c7.804,0,14.132-6.326,14.132-14.132V21.218c0-7.803-6.327-14.132-14.132-14.132
		s-14.132,6.326-14.132,14.132v28.264C53.702,57.288,60.028,63.612,67.834,63.612z"/>
</g>
</svg>
