<?xml version="1.0" encoding="utf-8"?>
<!-- Generator: Adobe Illustrator 15.1.0, SVG Export Plug-In . SVG Version: 6.00 Build 0)  -->
<!DOCTYPE svg PUBLIC "-//W3C//DTD SVG 1.1//EN" "http://www.w3.org/Graphics/SVG/1.1/DTD/svg11.dtd">
<svg version="1.1" id="Layer_2" xmlns="http://www.w3.org/2000/svg" xmlns:xlink="http://www.w3.org/1999/xlink" x="0px" y="0px"
	 width="283.46px" height="283.46px" viewBox="0 0 283.46 283.46" enable-background="new 0 0 283.46 283.46" xml:space="preserve">
<g>
	<path d="M93.033,163.826c3.748,0,6.627-2.88,6.627-6.627v-30.93c0-3.748-2.879-6.628-6.627-6.628c-3.749,0-6.627,2.879-6.627,6.628
		v30.93C86.405,160.946,89.285,163.826,93.033,163.826z"/>
	<path d="M44.304,84.232c3.748,0,6.628-2.88,6.628-6.627V46.676c0-3.748-2.88-6.628-6.628-6.628s-6.628,2.879-6.628,6.628v30.929
		C37.676,81.352,40.556,84.232,44.304,84.232z"/>
	<path d="M190.49,84.232c3.747,0,6.627-2.88,6.627-6.627V46.676c0-3.748-2.88-6.628-6.627-6.628c-3.748,0-6.628,2.879-6.628,6.628
		v30.929C183.862,81.352,186.743,84.232,190.49,84.232z"/>
	<path d="M239.219,199.235c-3.749,0-6.628,2.88-6.628,6.628v30.929c0,3.747,2.88,6.628,6.628,6.628s6.628-2.881,6.628-6.628v-30.929
		C245.847,202.115,242.967,199.235,239.219,199.235z"/>
	<path d="M239.219,119.641c-3.749,0-6.628,2.879-6.628,6.628v30.93c0,3.747,2.88,6.627,6.628,6.627s6.628-2.88,6.628-6.627v-30.93
		C245.847,122.521,242.967,119.641,239.219,119.641z"/>
	<path d="M268.355,7.084H15.105c-4.43,0-8.021,3.591-8.021,8.021v253.25c0,4.43,3.591,8.021,8.021,8.021h253.25
		c4.43,0,8.021-3.592,8.021-8.021V15.105C276.376,10.675,272.785,7.084,268.355,7.084z M175.026,46.676
		c0-8.492,6.973-15.465,15.464-15.465s15.464,6.973,15.464,15.465v30.929c0,8.492-6.973,15.464-15.464,15.464
		s-15.464-6.973-15.464-15.464V46.676z M28.839,46.676c0-8.492,6.974-15.465,15.465-15.465s15.464,6.973,15.464,15.465v30.929
		c0,8.492-6.973,15.464-15.464,15.464s-15.465-6.973-15.465-15.464V46.676z M55.349,252.224h-8.127
		c-0.475,0.076-0.958,0.076-1.433,0H33.256c-0.041,0-0.083,0-0.125,0c-2.44-0.035-4.39-2.043-4.355-4.481
		c0.035-2.44,2.041-4.39,4.481-4.356h8.837v-37.933l-5.711,5.711c-1.726,1.727-4.523,1.727-6.25,0c-1.726-1.726-1.726-4.523,0-6.249
		l13.255-13.255c0.796-0.797,1.868-1.259,2.995-1.292c0.042-0.001,0.085-0.001,0.126-0.001c2.441-0.001,4.42,1.976,4.421,4.416
		v48.603h4.418c0.042-0.001,0.083-0.001,0.125,0c2.44,0.035,4.39,2.041,4.356,4.481C59.795,250.308,57.789,252.258,55.349,252.224z
		 M55.349,172.632h-8.127c-0.475,0.078-0.958,0.078-1.433,0H33.256c-0.041,0.001-0.083,0.001-0.125,0
		c-2.44-0.034-4.39-2.042-4.355-4.481c0.035-2.44,2.041-4.391,4.481-4.355h8.837v-37.936l-5.711,5.712
		c-1.725,1.723-4.521,1.723-6.245,0c-1.727-1.724-1.729-4.523-0.004-6.25l13.255-13.255c0.796-0.796,1.868-1.259,2.995-1.291
		c0.042-0.002,0.086-0.002,0.128-0.002c2.441,0,4.42,1.978,4.42,4.419v48.603h4.418c0.042-0.002,0.083-0.002,0.125,0
		c2.44,0.033,4.39,2.041,4.356,4.48C59.795,170.715,57.789,172.666,55.349,172.632z M104.077,252.224h-8.133
		c-0.472,0.076-0.954,0.076-1.427,0H81.985c-0.042,0-0.083,0-0.124,0c-2.44-0.035-4.391-2.043-4.356-4.481
		c0.035-2.44,2.041-4.39,4.481-4.356h8.837v-37.933l-5.711,5.711c-1.726,1.727-4.523,1.727-6.25,0c-1.726-1.726-1.726-4.523,0-6.249
		l13.255-13.255c0.797-0.797,1.868-1.259,2.995-1.292c0.042-0.001,0.085-0.001,0.126-0.001c2.441-0.001,4.42,1.976,4.421,4.416
		v48.603h4.418c0.042-0.001,0.083-0.001,0.125,0c2.439,0.035,4.39,2.041,4.356,4.481
		C108.523,250.308,106.517,252.258,104.077,252.224z M77.568,157.199v-30.93c0-8.492,6.973-15.464,15.464-15.464
		c8.49,0,15.465,6.973,15.465,15.464v30.93c0,8.49-6.974,15.465-15.465,15.465S77.568,165.689,77.568,157.199z M104.077,93.036
		h-8.133c-0.472,0.077-0.954,0.077-1.427,0H81.985c-0.042,0-0.083,0-0.124,0c-2.44-0.035-4.391-2.042-4.356-4.481
		c0.035-2.44,2.041-4.391,4.481-4.355h8.837V46.264l-5.711,5.711c-0.024,0.025-0.049,0.049-0.073,0.074
		c-1.745,1.705-4.543,1.673-6.249-0.072c-1.705-1.746-1.673-4.543,0.072-6.249l13.255-13.255c0.797-0.796,1.868-1.259,2.995-1.291
		c0.042-0.001,0.085-0.002,0.126-0.002c2.441-0.001,4.42,1.976,4.421,4.417v48.603h4.418c0.042-0.001,0.083-0.001,0.125,0
		c2.439,0.034,4.39,2.042,4.356,4.481C108.523,91.119,106.517,93.07,104.077,93.036z M152.806,252.224h-8.128
		c-0.474,0.076-0.958,0.076-1.433,0h-12.532c-0.041,0-0.083,0-0.125,0c-2.439-0.035-4.39-2.043-4.356-4.481
		c0.035-2.44,2.042-4.39,4.481-4.356h8.837v-37.935l-5.713,5.713c-0.023,0.025-0.049,0.05-0.073,0.074
		c-1.746,1.704-4.543,1.671-6.249-0.075c-1.705-1.746-1.672-4.542,0.074-6.248l13.255-13.255c0.797-0.797,1.868-1.259,2.994-1.292
		c0.044-0.001,0.086-0.001,0.127-0.001c2.441-0.001,4.42,1.976,4.422,4.416v48.603h4.417c0.042-0.001,0.084-0.001,0.125,0
		c2.441,0.035,4.392,2.041,4.356,4.481S155.246,252.258,152.806,252.224z M152.806,172.632h-8.128c-0.474,0.078-0.958,0.078-1.433,0
		h-12.532c-0.041,0.001-0.083,0.001-0.125,0c-2.439-0.034-4.39-2.042-4.356-4.481c0.035-2.44,2.042-4.391,4.481-4.355h8.837v-37.937
		l-5.713,5.713c-0.023,0.024-0.049,0.049-0.073,0.073c-1.746,1.705-4.543,1.672-6.249-0.074c-1.705-1.747-1.672-4.543,0.074-6.249
		l13.255-13.255c0.797-0.796,1.868-1.259,2.994-1.291c0.044-0.002,0.086-0.002,0.129-0.002c2.44,0,4.42,1.978,4.42,4.419v48.603
		h4.417c0.042-0.002,0.084-0.002,0.125,0c2.441,0.033,4.392,2.041,4.356,4.48S155.246,172.666,152.806,172.632z M152.806,93.035
		h-8.128c-0.474,0.078-0.958,0.078-1.433,0h-12.532c-0.041,0.001-0.083,0.001-0.125,0c-2.439-0.034-4.39-2.041-4.356-4.481
		c0.035-2.44,2.042-4.391,4.481-4.355h8.837V46.262l-5.713,5.713c-0.042,0.043-0.083,0.086-0.127,0.127
		c-1.76,1.69-4.557,1.633-6.248-0.127c-1.69-1.76-1.633-4.557,0.127-6.248l13.255-13.255c0.797-0.796,1.868-1.259,2.994-1.291
		c0.044-0.001,0.086-0.002,0.127-0.002c2.441-0.001,4.42,1.976,4.422,4.417v48.603h4.417c0.042-0.001,0.084-0.001,0.125,0
		c2.441,0.034,4.392,2.042,4.356,4.48C157.252,91.119,155.246,93.07,152.806,93.035z M201.535,252.224h-8.128
		c-0.475,0.076-0.957,0.076-1.433,0h-12.531c-0.043,0-0.084,0-0.125,0c-2.44-0.035-4.391-2.043-4.355-4.481
		c0.033-2.44,2.041-4.39,4.48-4.356h8.837v-37.935l-5.713,5.713c-0.023,0.025-0.048,0.05-0.074,0.074
		c-1.746,1.704-4.542,1.671-6.248-0.075c-1.704-1.746-1.671-4.542,0.075-6.248l13.255-13.255c0.796-0.797,1.867-1.259,2.994-1.292
		c0.043-0.001,0.086-0.001,0.127-0.001c2.44-0.001,4.421,1.976,4.421,4.416v48.603h4.418c0.043-0.001,0.084-0.001,0.125,0
		c2.44,0.035,4.391,2.041,4.355,4.481C205.981,250.308,203.974,252.258,201.535,252.224z M201.535,172.632h-8.128
		c-0.475,0.078-0.957,0.078-1.433,0h-12.531c-0.043,0.001-0.084,0.001-0.125,0c-2.44-0.034-4.391-2.042-4.355-4.481
		c0.033-2.44,2.041-4.391,4.48-4.355h8.837v-37.937l-5.713,5.713c-0.023,0.024-0.048,0.049-0.074,0.073
		c-1.746,1.705-4.542,1.672-6.248-0.074c-1.704-1.747-1.671-4.543,0.075-6.249l13.255-13.255c0.796-0.796,1.867-1.259,2.994-1.291
		c0.044-0.002,0.087-0.002,0.129-0.002c2.44,0,4.419,1.978,4.419,4.419v48.603h4.418c0.043-0.002,0.084-0.002,0.125,0
		c2.44,0.033,4.391,2.041,4.355,4.48C205.981,170.715,203.974,172.666,201.535,172.632z M254.684,236.792
		c0,8.492-6.973,15.465-15.465,15.465s-15.464-6.973-15.464-15.465v-30.929c0-8.491,6.972-15.465,15.464-15.465
		c8.49,0,15.465,6.975,15.465,15.465V236.792z M254.684,157.199c0,8.49-6.973,15.465-15.465,15.465s-15.464-6.975-15.464-15.465
		v-30.93c0-8.492,6.972-15.464,15.464-15.464c8.49,0,15.465,6.973,15.465,15.464V157.199z M254.684,77.604
		c0,8.492-6.973,15.464-15.465,15.464s-15.464-6.973-15.464-15.464V46.676c0-8.492,6.972-15.465,15.464-15.465
		c8.49,0,15.465,6.973,15.465,15.465V77.604z"/>
	<path d="M239.219,40.048c-3.749,0-6.628,2.879-6.628,6.628v30.929c0,3.748,2.88,6.627,6.628,6.627s6.628-2.88,6.628-6.627V46.676
		C245.847,42.928,242.967,40.048,239.219,40.048z"/>
</g>
</svg>
