<?xml version="1.0" encoding="utf-8"?>
<!-- Generator: Adobe Illustrator 15.1.0, SVG Export Plug-In . SVG Version: 6.00 Build 0)  -->
<!DOCTYPE svg PUBLIC "-//W3C//DTD SVG 1.1//EN" "http://www.w3.org/Graphics/SVG/1.1/DTD/svg11.dtd">
<svg version="1.1" id="Layer_2" xmlns="http://www.w3.org/2000/svg" xmlns:xlink="http://www.w3.org/1999/xlink" x="0px" y="0px"
	 width="283.465px" height="283.465px" viewBox="0 0 283.465 283.465" enable-background="new 0 0 283.465 283.465"
	 xml:space="preserve">
<g>
	<path d="M258.073,7.087H25.441c-10.15,0-18.354,8.205-18.354,18.303v232.634c0,10.099,8.205,18.354,18.303,18.354h232.631
		c10.1,0,18.305-8.203,18.305-18.354l0.053-232.632C276.378,15.292,268.173,7.087,258.073,7.087z M24.598,38.551h234.27v54.015
		H24.598V38.551z M261.264,244.914H22.202c-1.317,0-2.395-1.078-2.395-2.396s1.078-2.395,2.395-2.395h239.06
		c1.318,0,2.396,1.076,2.396,2.395S262.58,244.914,261.264,244.914z M24.598,215.99v-70.428h91.085v70.428H24.598z M261.264,220.781
		H149.458c-1.316,0-2.395-1.078-2.395-2.396c0-1.316,1.077-2.395,2.395-2.395h111.806c1.316,0,2.395,1.078,2.395,2.395
		C263.658,219.705,262.58,220.781,261.264,220.781z M261.264,195.748H149.458c-1.316,0-2.395-1.078-2.395-2.395
		c0-1.318,1.077-2.396,2.395-2.396h111.806c1.316,0,2.395,1.078,2.395,2.396C263.658,194.67,262.58,195.748,261.264,195.748z
		 M261.264,170.656H149.458c-1.316,0-2.395-1.076-2.395-2.395s1.077-2.396,2.395-2.396h111.806c1.316,0,2.395,1.078,2.395,2.396
		C263.658,169.578,262.58,170.656,261.264,170.656z M261.264,145.563H149.458c-1.316,0-2.395-1.076-2.395-2.393
		c0-1.318,1.077-2.396,2.395-2.396h111.806c1.316,0,2.395,1.078,2.395,2.396C263.658,144.486,262.58,145.563,261.264,145.563z
		 M261.264,121.492H22.202c-1.317,0-2.395-1.078-2.395-2.396c0-1.316,1.078-2.395,2.395-2.395h239.06
		c1.318,0,2.396,1.077,2.396,2.395C263.658,120.415,262.58,121.492,261.264,121.492z"/>
</g>
</svg>
