<?xml version="1.0" encoding="utf-8"?>
<!-- Generator: Adobe Illustrator 15.1.0, SVG Export Plug-In . SVG Version: 6.00 Build 0)  -->
<!DOCTYPE svg PUBLIC "-//W3C//DTD SVG 1.1//EN" "http://www.w3.org/Graphics/SVG/1.1/DTD/svg11.dtd">
<svg version="1.1" id="Layer_1" xmlns="http://www.w3.org/2000/svg" xmlns:xlink="http://www.w3.org/1999/xlink" x="0px" y="0px"
	 width="283.46px" height="283.46px" viewBox="0 0 283.46 283.46" enable-background="new 0 0 283.46 283.46" xml:space="preserve">
<g id="XMLID_1_">
	<g>
		<path d="M229.357,239.576c0-1.273-0.255-2.887,0-4.075c0.085-0.34-0.255-1.783,0-2.037c0.254-0.255,1.782,0.339,2.037,0
			c0.34-0.51-0.255-1.528,0-2.038c0-1.358,0-2.717,0-4.074c0-0.255-0.17-1.868,0-2.038c0.34-0.34,1.613,0.255,2.037,0
			c0.255-0.425-0.339-1.698,0-2.037c0.255-0.255,1.783,0.339,2.038,0c0.339-0.425-0.34-1.613,0-2.038
			c0.255-0.339,1.697,0.34,2.037,0c0.34-0.339-0.34-1.782,0-2.037c0.425-0.34,1.698,0.34,2.038,0c0.169-0.17-0.255-1.953,0-2.037
			c1.188-0.51,2.886,0.339,4.074,0c0-0.68,0-1.358,0-2.038c3.396,0,6.792,0,10.188,0c1.358,0,2.717,0,4.075,0
			c0.255,0.425-0.34,1.698,0,2.038c0.17,0.169,1.698,0,2.037,0c0.51,0,1.528-0.17,2.038,0c0.425,0.169,1.782-0.255,2.037,0
			c0.255,0.254-0.255,1.867,0,2.037c0.765,0.34,3.565-0.595,4.075,0c0.34,0.34-0.34,1.698,0,2.037c0.34,0.34,1.698-0.339,2.037,0
			c0.34,0.34-0.254,1.613,0,2.038c0.425,0.255,1.613-0.34,2.038,0c0.679,0.509-0.51,3.311,0,4.075c0.424,0.254,1.697-0.34,2.037,0
			c0.255,0.254-0.085,1.697,0,2.037c0.34,1.273-0.255,2.802,0,4.075c0,2.037,0,4.074,0,6.112c0.425,0.255,1.698-0.34,2.038,0
			c0.169,0.17,0,1.782,0,2.037c0,0.68,0,1.358,0,2.038c0,0.509,0.339,3.82,0,4.074c-0.425,0.34-1.613-0.254-2.038,0
			c-0.255,0.425,0.34,1.698,0,2.038c-0.255,0.255-1.782-0.34-2.037,0c-0.255,0.424,0.34,1.613,0,2.037
			c-0.255,0.34-1.698-0.34-2.038,0c-0.339,0.34,0.34,1.698,0,2.038c-0.339,0.339-1.697-0.34-2.037,0
			c-0.255,0.254,0.34,1.782,0,2.037c-0.425,0.34-1.613-0.34-2.037,0c-0.34,0.255,0.339,1.698,0,2.037
			c-0.34,0.34-1.613-0.254-2.038,0c-0.255,0.34,0.34,1.783,0,2.038c-0.594,0.424-3.311,0-4.075,0c-1.357,0-2.716,0-4.074,0
			c-0.425,0.255-1.698-0.34-2.038,0c-0.17,0.17,0.17,2.037,0,2.037c-0.255,0.085-1.867,0.17-2.037,0c-0.34-0.34,0.255-1.613,0-2.037
			c-2.038-0.17-4.075,0.255-6.112,0c-0.595-0.085-3.735,0.424-4.075,0c-0.34-0.425,0.255-1.613,0-2.038
			c-0.764-0.509-3.565,0.68-4.075,0c-0.34-0.424,0.255-1.612,0-2.037c-0.425-0.255-1.698,0.34-2.037,0
			c-0.34-0.34,0.255-1.613,0-2.037c-0.255-0.425,0.339-1.698,0-2.038c-0.255-0.255-1.868,0.34-2.038,0
			c-0.254-0.424,0.34-1.697,0-2.037c-0.254-0.255-1.952,0.255-2.037,0c-0.51-1.188,0.34-2.887,0-4.075
			c-0.425-0.255-1.698,0.34-2.037,0c-0.255-0.255,0.085-1.698,0-2.037C229.103,242.463,229.357,240.765,229.357,239.576z"/>
		<path d="M74.507,204.938c0,0.68-0.424,3.65,0,4.075c0.34,0.34,1.613-0.255,2.038,0c0.34,1.188-0.509,2.972,0,4.075
			c0.085,0.255,1.783-0.255,2.038,0c0.34,0.339-0.339,1.612,0,2.037c0.255,0.34,1.698-0.34,2.038,0c0.339,0.34-0.34,1.698,0,2.038
			c0.339,0.339,1.698-0.34,2.038,0c0.339,0.339-0.34,1.612,0,2.037c0.254,0.34,1.698-0.34,2.037,0c0.34,0.34-0.339,1.698,0,2.037
			c0.34,0.34,1.698-0.339,2.038,0c0.34,0.34-0.339,1.613,0,2.038c0.34,0.424-0.339,1.697,0,2.037c0.34,0.34,1.698-0.34,2.038,0
			s-0.339,1.698,0,2.038c0.339,0.339,1.613-0.255,2.038,0c0,1.357,0,2.716,0,4.074c0.679,0,1.358,0,2.038,0
			c0.509,0,1.528-0.17,2.037,0c0.17,0.085-0.169,1.868,0,2.038c0.51,0.679,3.311-0.51,4.075,0c0.424,0.254,1.698-0.34,2.038,0
			c0.339,0.339-0.255,1.612,0,2.037c0.339,0.51-0.34,1.528,0,2.037c0.254,0.34,1.783-0.254,2.037,0c0.34,0.34-0.254,1.613,0,2.038
			c1.189-0.34,2.887,0.509,4.075,0c0.255-0.085-0.17-1.783,0-2.038c0.17-0.169,1.698,0,2.038,0c1.104-0.084,2.971-0.254,4.075,0
			c0.34,0.085,1.783-0.254,2.038,0c0.34,0.34-0.254,1.613,0,2.038c2.038,0,4.075,0,6.113,0c0.509-0.255,1.528,0.34,2.037,0
			c0.34-0.255-0.254-1.783,0-2.038c0.17-0.169,1.698,0,2.038,0c0.255,0,1.868-0.169,2.038,0c0.254,0.255-0.255,1.953,0,2.038
			c1.188,0.509,2.886-0.34,4.075,0c0.255,0.425-0.339,1.698,0,2.037c0.085,0.085,1.953,0.085,2.038,0
			c0.34-0.339-0.339-1.697,0-2.037c0.34-0.34,1.783,0.34,2.038,0c0.339-0.425-0.255-1.613,0-2.038c0.255-0.339,1.783,0.255,2.038,0
			c0.339-0.339-0.34-1.782,0-2.037c0.424-0.255,1.698,0.34,2.038,0c0.254-0.17-0.255-1.952,0-2.037c0.424-0.17,1.528,0,2.037,0
			c1.359,0,2.717,0,4.075,0c0.255-0.425-0.339-1.698,0-2.038c0.255-0.255,1.698,0.085,2.038,0c1.273-0.339,2.802,0.255,4.075,0
			c0.424-1.188-0.51-2.971,0-4.074c0.085-0.255,1.782,0.169,2.037,0c0.34-0.255-0.255-1.783,0-2.038c0.34-0.34,1.783,0.34,2.037,0
			c0.34-0.34-0.339-1.698,0-2.037c0.34-0.34,1.783,0.339,2.038,0c0.34-0.425-0.255-1.613,0-2.038c0.255-0.339,1.782,0.255,2.037,0
			c0.34-0.339-0.255-1.612,0-2.037c0.34-0.255,1.783,0.34,2.038,0c0.424-0.595,0-3.311,0-4.075c0-1.358,0-2.717,0-4.075
			c0.424-0.254,1.612,0.34,2.037,0c0.595-0.509-0.425-3.311,0-4.074c0.17-0.255,1.783,0.254,2.037,0c0.34-0.34-0.254-1.613,0-2.038
			c0.255-0.424-0.339-1.697,0-2.037c0.17-0.17,1.953,0.17,2.038,0c0.34-1.188,0-2.887,0-4.075c0-1.358,0-2.717,0-4.075
			c0.424-0.255,1.613,0.34,2.037,0c0.68-0.509-0.509-3.311,0-4.075c0-2.037,0-4.074,0-6.112c0.085-2.717-0.17-5.433,0-8.149
			c0-0.34-0.17-1.868,0-2.038c0.34-0.339,1.613,0.255,2.038,0c-0.255-1.273,0.339-2.801,0-4.074c-0.085-0.34,0.254-1.783,0-2.038
			c-0.34-0.34-1.613,0.255-2.038,0c0-2.037,0-4.075,0-6.112c0.425-0.255,1.613,0.34,2.038,0c0.679-0.51-0.51-3.311,0-4.075
			c0-4.075,0-8.149,0-12.225c-0.425-0.255-1.613,0.34-2.038,0c-0.679-0.51,0.51-3.312,0-4.075c-0.255-0.339-1.697,0.255-2.037,0
			s0.255-1.783,0-2.038c-0.34-0.339-1.613,0.255-2.038,0c0-1.358,0-2.716,0-4.075c-0.254-0.51,0.34-1.528,0-2.038
			c-0.254-0.34-1.782,0.254-2.037,0c-0.255-0.255,0.085-1.698,0-2.038c-0.425-1.953,0.51-4.16,0-6.112c0-0.17-1.868,0.085-2.037,0
			c-0.255-0.425,0.339-1.698,0-2.038c-0.34-0.34-1.613,0.255-2.038,0c-0.509-0.34-1.528,0.339-2.037,0
			c-0.34-0.255,0.255-1.783,0-2.038c-0.34-0.339-1.613,0.255-2.038,0c0-0.679,0-1.358,0-2.038c0-0.339,0.17-1.868,0-2.037
			c-0.254-0.255-1.867,0.339-2.037,0c-0.34-0.51,0.34-1.528,0-2.038c-0.255-0.34-1.783,0.254-2.037,0
			c-0.34-0.34,0.254-1.613,0-2.038c-0.34-0.424,0.339-1.528,0-2.038c-0.255-0.339-1.783,0.255-2.038,0
			c-0.339-0.339,0.34-1.698,0-2.038c-0.339-0.339-1.697,0.34-2.037,0c-0.34-0.339,0.34-1.698,0-2.037
			c-0.34-0.34-1.698,0.339-2.038,0c-0.254-0.255,0.34-1.783,0-2.038c-0.934-0.594-3.056,0.339-4.075,0
			c-0.169-0.085,0.17-1.868,0-2.038c-0.509-0.679-3.311,0.509-4.075,0c-0.255-0.424,0.339-1.698,0-2.038
			c-0.17-0.169-1.783,0-2.038,0c-0.085,0,0.085,1.953,0,2.038c-0.509,0.679-3.311-0.509-4.075,0c-2.037,0-4.075,0-6.112,0
			s-4.075,0-6.112,0c-4.075,0-8.15,0-12.225,0c-0.255,0.424,0.34,1.698,0,2.038c-0.255,0.254-1.698-0.085-2.038,0
			c-1.188,0.254-2.971-0.509-4.075,0c-0.255,0.085,0.254,1.783,0,2.038c-0.34,0.339-1.613-0.255-2.038,0
			c-0.509,0.339-1.528-0.34-2.038,0c-0.339,0.254,0.255,1.783,0,2.037c-0.339,0.34-1.613-0.254-2.038,0
			c-0.339,0.17,0.255,1.783,0,2.038c-0.339,0.34-1.613-0.254-2.037,0c-0.51,0.34-1.528-0.339-2.038,0
			c-0.34,0.255,0.254,1.783,0,2.038c-0.34,0.34-1.698-0.339-2.038,0c-0.339,0.34,0.255,1.613,0,2.038
			c-0.424,0.254-1.613-0.34-2.038,0c-0.594,0.509,0.34,3.311,0,4.075c-0.085,0.255-1.783-0.169-2.038,0
			c-0.679,0.51,0.51,3.311,0,4.075c-0.424,0.255-1.698-0.34-2.037,0c-0.34,0.339,0.339,1.698,0,2.038
			c-0.34,0.339-1.698-0.34-2.038,0c-0.34,0.339,0.254,1.613,0,2.038c-0.255,0.424,0.339,1.698,0,2.037
			c-0.255,0.255-1.953-0.254-2.038,0c-0.509,1.188,0.34,2.887,0,4.075c-0.424,0.254-1.698-0.34-2.038,0
			c-0.254,0.254,0.085,1.698,0,2.038c-0.339,1.273,0.255,2.801,0,4.075c-0.424,0.255-1.698-0.339-2.038,0
			c-0.339,0.34,0.255,1.613,0,2.038c-0.339,0.509,0.34,1.528,0,2.037c-0.254,0.34-1.783-0.254-2.037,0
			c-0.34,0.34,0.254,1.613,0,2.038c-0.255,1.273,0.339,2.802,0,4.075c-0.085,0.339,0.254,1.782,0,2.037
			c-0.34,0.34-1.613-0.255-2.038,0c0,1.358,0,2.717,0,4.075c0.339,1.188-0.509,2.886,0,4.075c0.085,0.254,1.783-0.255,2.038,0
			c0.254,0.254-0.085,1.697,0,2.037c0.339,1.273-0.34,2.802,0,4.075c0.085,0.339-0.255,1.782,0,2.037
			c0.339,0.34,1.613-0.255,2.037,0c0,2.038,0,4.075,0,6.112c-0.339,1.953,0.425,4.16,0,6.112c-0.084,0.51,0.255,1.613,0,2.038
			c-0.254,0.34-1.783-0.255-2.037,0c-0.34,0.34,0.254,1.613,0,2.037c0,1.358,0,2.717,0,4.075c0.254,0.425-0.34,1.698,0,2.037
			c0.254,0.255,1.953-0.254,2.037,0c0.17,0.425,0,1.528,0,2.038c0,1.358,0,2.717,0,4.075c0,2.037,0,4.074,0,6.112
			C74.507,203.58,74.507,204.26,74.507,204.938z M70.433,54.164c0,1.358,0,2.717,0,4.075s0,2.717,0,4.075
			c0.255,0.425-0.34,1.698,0,2.038c0.255,0.255,1.783-0.339,2.038,0c0.339,0.425-0.34,1.613,0,2.038
			c0.254,0.339,1.698-0.339,2.037,0c0.255,0.255-0.084,1.698,0,2.038c0.17,0.594,0,1.443,0,2.038c0,0.679,0,1.358,0,2.037
			c-0.424,0.255-1.698-0.339-2.037,0c-0.255,0.255,0.085,1.698,0,2.038c-0.34,1.273,0.254,2.802,0,4.075c0,2.037,0,4.075,0,6.112
			c0.424,0.255,1.698-0.339,2.037,0c0.17,0.17,0,1.698,0,2.038c0.17,2.717-0.084,5.433,0,8.15c-0.254,0.424,0.34,1.698,0,2.038
			c-0.339,0.339-1.613-0.255-2.037,0c0.254,0.424-0.34,1.698,0,2.038c0.339,0.339,1.613-0.255,2.037,0
			c0.255-0.425-0.339-1.698,0-2.038c0.255-0.255,1.783,0.339,2.038,0c0.255-0.425-0.339-1.613,0-2.038
			c0.255-0.339,1.698,0.339,2.038,0c0.34-0.339-0.339-1.783,0-2.038c0.424-0.339,1.698,0.34,2.038,0
			c0.254-0.254-0.255-1.953,0-2.038c0.934-0.424,3.226,0.594,4.075,0c0.34-0.254-0.339-1.698,0-2.037c0.34-0.34,1.698,0.339,2.038,0
			c0.34-0.34-0.339-1.698,0-2.038c0.34-0.34,1.613,0.339,2.038,0c0.339-0.255-0.339-1.698,0-2.038c0.339-0.339,1.613,0.255,2.038,0
			c0.424-0.255,1.698,0.34,2.038,0c0.254-0.255-0.255-1.868,0-2.038c0.339-0.169,1.613,0,2.037,0c0.679,0,1.358,0,2.038,0
			c0.255-0.424-0.339-1.698,0-2.038c0.424-0.424,3.396,0,4.075,0s1.358,0,2.037,0c0.085-0.169-0.084-2.037,0-2.037
			c3.311-0.425,6.877,0.594,10.188,0c0.34-0.085,1.783,0.254,2.038,0c0.255-0.255-0.254-1.953,0-2.038
			c1.188-0.509,2.887,0.339,4.075,0c0.254,0.424-0.34,1.613,0,2.038c0.509,0.679,3.311-0.51,4.075,0
			c0.255-0.425-0.339-1.698,0-2.038c0.255-0.255,1.783,0.339,2.038,0c0.17-0.255-0.254-1.953,0-2.038c0.424-0.17,1.528,0,2.038,0
			c2.717,0,5.433,0,8.15,0c0.255,0.424-0.339,1.698,0,2.038c0.17,0.17,1.698,0,2.038,0c0.424,0,1.613-0.255,2.038,0
			c0.254,0.17-0.255,1.783,0,2.038c0.339,0.339,1.613-0.255,2.037,0c1.359,0,2.717,0,4.075,0c0.255,0.424-0.339,1.698,0,2.037
			c0.17,0.17,1.698,0,2.038,0c2.037,0.085,4.075,0,6.112,0c0.51,0,1.613-0.169,2.037,0c0.255,0.17-0.254,1.783,0,2.038
			c0.255,0.255,1.783-0.339,2.038,0c0.34,0.425-0.34,1.613,0,2.038c0.255,0.34,1.697-0.339,2.037,0c0.34,0.34-0.255,1.613,0,2.038
			c1.953,0.424,4.245-0.509,6.112,0c0.17,0.085-0.169,1.868,0,2.038c0.17,0.169,1.698,0,2.038,0s1.782-0.17,2.037,0
			c0.34,0.339-0.255,1.613,0,2.037c0.425,0.255,1.698-0.339,2.038,0c0.339,0.34-0.34,1.698,0,2.038c0.339,0.34,1.697-0.339,2.037,0
			c0.34,0.34-0.255,1.613,0,2.038s-0.34,1.698,0,2.038c0.255,0.254,1.783-0.34,2.037,0c0.34,0.509-0.254,1.528,0,2.038
			c1.188,0.339,2.887-0.51,4.075,0c0.255,0.084-0.17,1.783,0,2.037c0.34,0.34,1.613-0.169,2.038,0c0.424,0.17,1.697-0.339,2.037,0
			c0.255,0.255-0.34,1.783,0,2.038c0.51,0.34,1.528-0.254,2.037,0c0.34,1.188-0.509,2.887,0,4.075c0.085,0.254,1.868-0.255,2.038,0
			c0.339,0.339-0.255,1.613,0,2.037c0.17,0.17,1.952-0.254,2.037,0c0.425,1.189-0.34,2.887,0,4.075c0.085,0.34-0.255,1.783,0,2.038
			c0.34,0.339,1.613-0.255,2.038,0c0,2.717,0,5.433,0,8.15c0.424,0.255,1.697-0.34,2.037,0c0.255,0.255-0.34,1.783,0,2.038
			c0.34,0.254,1.782-0.34,2.037,0c0.51,0.764-0.679,3.48,0,4.075c0.425,0.34,1.613-0.254,2.038,0c-0.255,0.425,0.339,1.698,0,2.038
			c-0.17,0.255-1.953-0.254-2.038,0c-0.339,0.849-0.085,3.226,0,4.075c0.085,0.339-0.17,1.783,0,2.037
			c0.255,0.255,1.783-0.339,2.038,0c0.339,0.51-0.255,1.528,0,2.038c0,1.358,0,2.717,0,4.075c0.424,0.255,1.697-0.339,2.037,0
			c0.34,0.34-0.255,1.613,0,2.038c0.255,0.424-0.34,1.697,0,2.037c0.17,0.17,1.953-0.17,2.037,0c0.595,1.868-0.424,4.245,0,6.112
			c0.425,0.255,1.698-0.339,2.038,0c0.255,0.255-0.085,1.698,0,2.038c0.34,1.273-0.255,2.802,0,4.075
			c-0.255,0.424,0.34,1.697,0,2.037c-0.255,0.255-1.783-0.34-2.038,0c-0.254,0.34,0.085,1.613,0,2.037
			c-0.254,1.273,0.17,2.717,0,4.075c0,4.075,0,8.15,0,12.225c0,3.396,0,6.792,0,10.188c-0.509,0.765,0.68,3.566,0,4.075
			c-0.424,0.34-1.612-0.255-2.037,0c-0.51,0.765,0.68,3.565,0,4.075c-0.17,0.17-1.952-0.17-2.037,0c-0.51,1.868,0.424,4.16,0,6.112
			c-0.425,0.255-1.698-0.34-2.038,0c-0.339,0.34,0.255,1.613,0,2.038c-0.255,0.424,0.34,1.697,0,2.037
			c-0.339,0.34-1.612-0.255-2.037,0c-0.51,0.764,0.679,3.565,0,4.075c-0.255,0.17-1.953-0.255-2.037,0
			c-0.34,0.764,0.594,3.565,0,4.075c-0.425,0.339-1.613-0.255-2.038,0c-0.425,1.867,0.595,4.244,0,6.112
			c-0.085,0.339,0.255,1.782,0,2.037c-0.34,0.34-1.613-0.255-2.037,0c0,1.358,0,2.717,0,4.075c-0.425,0.255-1.698-0.34-2.038,0
			c-0.339,0.34,0.34,1.698,0,2.037c-0.339,0.34-1.697-0.339-2.037,0c-0.34,0.34,0.255,1.613,0,2.038
			c-0.255,0.424,0.34,1.697,0,2.037c-0.255,0.17-1.953-0.255-2.037,0c-0.425,1.019,0.594,3.142,0,4.075
			c-0.255,0.34-1.783-0.255-2.038,0s0.34,1.782,0,2.037c-0.425,0.255-1.698-0.339-2.037,0c-0.34,0.34,0.339,1.698,0,2.038
			c-0.255,0.254-1.783-0.34-2.038,0c-0.254,0.339,0.34,1.782,0,2.037c-0.339,0.34-1.697-0.34-2.037,0
			c-0.255,0.255,0.34,1.783,0,2.037c-0.51,0.34-1.528-0.339-2.037,0c-0.34,0.17,0.254,1.783,0,2.038c-0.17,0.17-1.698,0-2.038,0
			c-0.679,0-1.358,0-2.037,0c-0.255,0.424,0.34,1.697,0,2.037c-0.255,0.255-1.783-0.34-2.038,0c-0.169,0.255,0.255,1.953,0,2.038
			c-1.019,0.509-3.141-0.595-4.074,0c-0.34,0.254,0.254,1.782,0,2.037c-0.255,0.255-1.783-0.34-2.038,0
			c-0.17,0.255,0.255,1.952,0,2.037c-1.104,0.51-2.886-0.424-4.075,0c-0.254,0.255,0.255,1.868,0,2.038
			c-0.849,0.424-3.141,0-4.074,0c-2.038,0-4.075,0-6.113,0c-0.254,0.424,0.34,1.697,0,2.037c-0.169,0.17-1.697,0-2.037,0
			c-0.425,0-1.613-0.255-2.038,0c-0.339,0.17,0.255,1.783,0,2.038c-0.254,0.254-1.698-0.085-2.037,0c-1.783,0.339-4.245,0-6.113,0
			c-1.358,0-2.716,0-4.075,0c-3.396,0-6.792,0-10.188,0c-2.038,0-4.075,0-6.113,0c-0.424,0.254-1.698-0.34-2.037,0
			c-0.255,0.254,0.339,1.782,0,2.037c-0.51,0.34-1.528-0.255-2.038,0c-1.358,0-2.717,0-4.075,0c-0.254-0.425,0.34-1.698,0-2.037
			c-0.169-0.17-1.698,0-2.038,0c-0.679,0-1.358,0-2.037,0c-1.358,0-2.717,0-4.075,0c-1.188,0-2.886,0.339-4.075,0
			c-0.17-0.085,0.169-1.868,0-2.038c-0.17-0.17-1.698,0-2.038,0c-0.509,0-1.613,0.255-2.038,0c-0.255-0.17,0.255-1.782,0-2.037
			c-0.339-0.34-1.613,0.255-2.038,0c-0.424-0.255-1.698,0.34-2.038,0c-0.339-0.34,0.34-1.783,0-2.038
			c-0.424-0.339-1.698,0.34-2.037,0c-0.34-0.339,0.339-1.697,0-2.037c-0.34-0.34-1.698,0.34-2.038,0c-0.34-0.34,0.339-1.698,0-2.037
			c-0.34-0.34-1.698,0.339-2.038,0c-0.339-0.34,0.255-1.613,0-2.038c-0.255-0.424,0.34-1.697,0-2.037
			c-0.339-0.34-1.698,0.34-2.038,0c-0.339-0.34,0.34-1.698,0-2.038c-0.339-0.339-1.613,0.255-2.038,0
			c-0.424-0.254-1.698,0.34-2.037,0c-0.34-0.339,0.254-1.612,0-2.037c-0.425,0.255-1.698-0.34-2.038,0
			c-0.34,0.34,0.339,1.698,0,2.037c-0.34,0.34-1.698-0.339-2.038,0c-0.17,0.17,0,1.783,0,2.038c0,0.085,1.953-0.085,2.038,0
			c0.17,0.17,0,1.782,0,2.037c0,0.595,0.17,1.528,0,2.038c-0.085,0.339,0.255,1.782,0,2.037s-1.783-0.34-2.038,0
			c-0.339,0.51,0.255,1.528,0,2.037c-0.254,0.425,0.34,1.698,0,2.038c-0.254,0.255-1.783-0.34-2.038,0
			c-0.169,0.255,0.255,1.952,0,2.037c-0.849,0.425-3.141,0-4.075,0c-3.396,0-6.792,0-10.188,0c-1.273,0-2.887,0.255-4.075,0
			c-0.169,0,0.085-1.867,0-2.037c-0.424-0.255-1.698,0.34-2.038,0c-0.339-0.34,0.255-1.613,0-2.038c-0.254-0.424,0.34-1.697,0-2.037
			c-0.169-0.17-1.952,0.17-2.037,0c-0.594-1.868,0.424-4.245,0-6.112c-0.255-0.255-1.868,0.34-2.038,0c-0.424-0.68,0-3.227,0-4.075
			c0-0.594-0.17-1.528,0-2.037c0.085-0.34-0.255-1.783,0-2.038c0.339-0.339,1.613,0.255,2.038,0c0.169-2.037-0.255-4.075,0-6.112
			c0.085-0.594-0.425-3.735,0-4.075c0.424-0.339,1.613,0.255,2.037,0c0-4.074,0-8.149,0-12.225c-0.424-0.255-1.698,0.34-2.037,0
			c-0.17-0.17,0-1.698,0-2.037c-0.17-2.717,0.085-5.434,0-8.15c-0.425-0.255-1.698,0.34-2.038,0c-0.255-0.255,0.085-1.698,0-2.037
			c-0.34-1.273,0.255-2.802,0-4.075c0.424-0.255,1.698,0.34,2.038,0c0.254-0.255-0.085-1.698,0-2.038
			c0.339-1.273-0.255-2.801,0-4.074c0-2.038,0-4.075,0-6.113c-0.425-0.254-1.698,0.34-2.038,0c-0.17-0.169,0-1.697,0-2.037
			c-0.085-2.037,0-4.075,0-6.112c0-0.51-0.17-1.613,0-2.038c0.085-0.254,1.783,0.255,2.038,0c0.169-0.169,0-1.782,0-2.037
			c0-0.51,0.339-3.82,0-4.075c-0.17-0.17-1.953,0.17-2.038,0c-0.17-0.509,0-1.527,0-2.037c0-0.68,0-1.358,0-2.037
			c0-1.02-0.424-3.142,0-4.075c0.085-0.255,1.783,0.17,2.038,0c0.169-0.17,0-1.783,0-2.038c-0.085-1.358,0-2.717,0-4.074
			c0-0.595,0.169-1.443,0-2.038c-0.085-0.17-1.868,0.17-2.038,0s0-1.698,0-2.037c0-0.68,0-1.358,0-2.038c0-0.509-0.34-3.735,0-4.074
			c0.424-0.34,1.613,0.254,2.038,0c0-2.038,0-4.075,0-6.113c0-1.358,0-2.716,0-4.075c0-1.188,0.339-2.886,0-4.075
			c-0.085-0.17-1.868,0.169-2.038,0c-0.17-0.17,0-1.698,0-2.038c0-0.679,0-1.358,0-2.038c0-1.358,0-2.717,0-4.075
			c0.424-0.255,1.698,0.339,2.038,0c0.254-0.255-0.085-1.698,0-2.038c0.339-1.273-0.255-2.802,0-4.075
			c0.424-1.868-0.594-4.245,0-6.112c0.085-0.34-0.255-1.783,0-2.038c0.339-0.339,1.613,0.255,2.037,0c0-2.038,0-4.075,0-6.112
			c-0.424-0.255-1.698,0.339-2.037,0c-0.17-0.17,0-1.783,0-2.038c0-0.679,0-1.358,0-2.038c0-1.358,0-2.717,0-4.075
			c0-0.51-0.17-1.613,0-2.038c0.085-0.255,1.783,0.254,2.037,0c0.34-0.34-0.254-1.613,0-2.038c0-1.358,0-2.717,0-4.075
			c-0.424-0.254-1.698,0.34-2.037,0c-0.17-0.169,0-1.783,0-2.037c-0.085-2.038,0-4.075,0-6.113c0-1.188-0.34-2.886,0-4.075
			c0.085-0.17,1.868,0.169,2.037,0c0.17-0.17,0-1.698,0-2.038c0-0.679,0-1.358,0-2.038c-0.509-0.764,0.679-3.565,0-4.075
			c-0.254-0.255-1.868,0.339-2.037,0c-0.255-0.425,0.339-1.698,0-2.038c-0.255-0.255-1.783,0.339-2.038,0
			c-0.34-0.509,0.255-1.528,0-2.038c0-3.396,0-6.792,0-10.188c0.424-0.255,1.698,0.34,2.038,0c0.169-0.17,0-1.783,0-2.038
			c0.085-1.868,0.254-4.245,0-6.112c-0.085-0.34,0.254-1.783,0-2.038c-0.255-0.254-1.953,0.255-2.038,0
			c-0.509-1.104,0.339-2.886,0-4.075c-1.358,0-2.717,0-4.075,0c-0.254-0.425,0.34-1.698,0-2.038c-0.169-0.17-1.698,0-2.037,0
			c-0.595,0-1.528-0.17-2.038,0c-0.34,0.085-1.783-0.255-2.038,0c-0.17,0.17,0.17,1.953,0,2.038c-1.273,0.339-2.802-0.34-4.075,0
			c-0.339,0.084-1.783-0.255-2.037,0c-0.34,0.339,0.254,1.613,0,2.037c-1.358,0-2.717,0-4.075,0c-2.717,0-5.433,0-8.15,0
			c-0.255-0.424,0.339-1.698,0-2.037c-0.255-0.255-1.783,0.339-2.038,0c-0.339-0.51,0.34-1.528,0-2.038
			c-0.254-0.425,0.34-1.698,0-2.038c-0.339-0.339-1.698,0.339-2.038,0c-0.339-0.339,0.34-1.698,0-2.038
			c-0.254-0.254-1.868,0.34-2.037,0c-0.17-0.339,0-1.613,0-2.038c0-0.679,0-1.358,0-2.037c0.424-2.632-0.594-5.604,0-8.15
			c0.084-0.339-0.255-1.783,0-2.037c0.254-0.255,1.783,0.339,2.037,0c0.255-0.34-0.339-1.783,0-2.038
			c0.425-0.34,1.528,0.255,2.038,0c0.255-0.424-0.339-1.698,0-2.038c0.17-0.17,1.698,0,2.038,0c2.038-0.085,4.075,0.085,6.112,0
			c1.188,0.34,2.887-0.509,4.075,0c0.254,0.085-0.255,1.783,0,2.038c0.339,0.339,1.613-0.255,2.038,0c6.792,0,13.583,0,20.375,0
			c1.273-0.255,2.802,0.339,4.075,0c0.34-0.085,1.783,0.255,2.038,0c0.339-0.34-0.255-1.613,0-2.038c2.038,0,4.075,0,6.112,0
			c2.038,0.17,4.075-0.254,6.113,0c0.594,0.085,3.735-0.424,4.075,0c0.34,0.424-0.254,1.613,0,2.038
			c0.594,0.255,1.528-0.255,2.038,0c0.255,0.17-0.255,1.783,0,2.038c0.255,0.254,1.953-0.255,2.038,0
			c0.509,1.188-0.34,2.886,0,4.075c0,2.717,0,5.434,0,8.15c0,1.358,0,2.717,0,4.075c0,1.188-0.34,2.886,0,4.075
			c0.085,0.169,1.868-0.17,2.037,0c0.17,0.169,0,1.698,0,2.037c0,0.679,0,1.358,0,2.038c0,1.358,0,2.717,0,4.075
			c-0.424,0.254-1.698-0.34-2.037,0c-0.34,0.339,0.254,1.613,0,2.037c-0.255,0.425,0.339,1.698,0,2.038
			C72.13,54.504,70.857,53.91,70.433,54.164z"/>
	</g>
	<g>
	</g>
</g>
</svg>
