<?xml version="1.0" encoding="utf-8"?>
<!-- Generator: Adobe Illustrator 15.1.0, SVG Export Plug-In . SVG Version: 6.00 Build 0)  -->
<!DOCTYPE svg PUBLIC "-//W3C//DTD SVG 1.1//EN" "http://www.w3.org/Graphics/SVG/1.1/DTD/svg11.dtd">
<svg version="1.1" id="Layer_3" xmlns="http://www.w3.org/2000/svg" xmlns:xlink="http://www.w3.org/1999/xlink" x="0px" y="0px"
	 width="283.465px" height="283.465px" viewBox="0 0 283.465 283.465" enable-background="new 0 0 283.465 283.465"
	 xml:space="preserve">
<g>
	<path d="M159.515,141.73l55.861-54.502c2.126-2.074,3.326-4.92,3.326-7.891c0-2.971-1.2-5.817-3.326-7.891l-61.301-59.809
		c-3.175-3.097-7.896-3.988-11.983-2.271c-4.087,1.723-6.744,5.727-6.744,10.161v98.625L83.489,67.557
		c-4.359-4.252-11.338-4.168-15.592,0.191c-4.252,4.358-4.167,11.339,0.192,15.591l59.847,58.392l-59.847,58.393
		c-4.359,4.253-4.445,11.233-0.192,15.592s11.234,4.444,15.592,0.19l51.859-50.596v98.625c0,4.435,2.657,8.438,6.744,10.16
		c1.382,0.584,2.836,0.865,4.281,0.865c2.823,0,5.601-1.086,7.702-3.135l61.301-59.81c2.126-2.073,3.326-4.919,3.326-7.891
		c0-2.971-1.2-5.816-3.326-7.89L159.515,141.73z M157.401,45.689l34.487,33.647l-34.487,33.647V45.689L157.401,45.689z
		 M157.401,237.771v-67.295l34.487,33.646L157.401,237.771z"/>
</g>
</svg>
