<?xml version="1.0" encoding="iso-8859-1"?>
<!-- Generator: Adobe Illustrator 15.1.0, SVG Export Plug-In . SVG Version: 6.00 Build 0)  -->
<!DOCTYPE svg PUBLIC "-//W3C//DTD SVG 1.1//EN" "http://www.w3.org/Graphics/SVG/1.1/DTD/svg11.dtd">
<svg version="1.1" id="Layer_1" xmlns="http://www.w3.org/2000/svg" xmlns:xlink="http://www.w3.org/1999/xlink" x="0px" y="0px"
	 width="283.46px" height="283.46px" viewBox="0 0 283.46 283.46" style="enable-background:new 0 0 283.46 283.46;"
	 xml:space="preserve">
<g>
	<path style="fill:#231F20;" d="M147.916,7.431l-6.7-0.346l0,0l0,0l-5.978,0.358C64.053,10.841,7.184,69.816,7.184,141.83
		c0,74.19,60.357,134.545,134.547,134.545c74.188,0,134.546-60.355,134.546-134.545C276.276,69.713,219.243,10.675,147.916,7.431z
		 M141.73,273.469c-72.587,0-131.64-59.053-131.64-131.639c0-72.587,59.053-131.64,131.64-131.64s131.639,59.053,131.639,131.64
		C273.369,214.416,214.317,273.469,141.73,273.469z"/>
	<path style="fill:#231F20;" d="M249.391,141.83c0-59.365-48.295-107.662-107.66-107.662S34.069,82.464,34.069,141.83
		c0,59.364,48.296,107.661,107.661,107.661S249.391,201.193,249.391,141.83z M61.656,92.966
		c11.765-20.868,32.766-35.507,62.417-43.513l7.737,1.729c-0.201,0.026-0.395,0.061-0.594,0.088
		c-0.502,0.07-0.998,0.146-1.494,0.223c-0.546,0.085-1.092,0.17-1.63,0.262c-0.486,0.083-0.968,0.17-1.447,0.257
		c-0.533,0.098-1.065,0.197-1.591,0.301c-0.471,0.093-0.936,0.192-1.401,0.291c-0.521,0.11-1.042,0.224-1.557,0.342
		c-0.453,0.104-0.904,0.211-1.351,0.32c-0.512,0.125-1.02,0.251-1.522,0.38c-0.438,0.114-0.872,0.231-1.305,0.349
		c-0.499,0.137-0.996,0.276-1.488,0.419c-0.423,0.123-0.842,0.247-1.26,0.375c-0.487,0.149-0.971,0.3-1.45,0.455
		c-0.408,0.132-0.814,0.265-1.218,0.401c-0.475,0.16-0.946,0.324-1.414,0.488c-0.394,0.139-0.784,0.281-1.173,0.424
		c-0.464,0.17-0.923,0.345-1.38,0.522c-0.381,0.148-0.759,0.295-1.133,0.446c-0.451,0.182-0.898,0.367-1.342,0.554
		c-0.367,0.154-0.73,0.308-1.092,0.465c-0.439,0.193-0.876,0.388-1.309,0.584c-0.353,0.16-0.702,0.321-1.05,0.485
		c-0.428,0.201-0.851,0.406-1.271,0.61c-0.339,0.167-0.679,0.333-1.014,0.503c-0.416,0.211-0.827,0.423-1.233,0.637
		c-0.327,0.172-0.654,0.344-0.977,0.519c-0.404,0.218-0.803,0.439-1.199,0.663c-0.314,0.176-0.629,0.353-0.938,0.532
		c-0.393,0.227-0.779,0.457-1.164,0.687c-0.302,0.181-0.604,0.361-0.902,0.544c-0.38,0.234-0.755,0.47-1.128,0.708
		c-0.289,0.185-0.581,0.369-0.866,0.556c-0.369,0.24-0.732,0.484-1.095,0.728c-0.278,0.188-0.557,0.375-0.83,0.564
		c-0.357,0.248-0.709,0.497-1.06,0.748c-0.267,0.19-0.535,0.381-0.798,0.572c-0.347,0.253-0.685,0.509-1.024,0.764
		c-0.256,0.193-0.513,0.386-0.765,0.58c-0.335,0.258-0.662,0.52-0.991,0.78c-0.243,0.194-0.489,0.388-0.73,0.583
		c-0.323,0.263-0.64,0.528-0.956,0.794c-0.233,0.195-0.47,0.39-0.7,0.587c-0.312,0.266-0.614,0.533-0.918,0.8
		c-0.226,0.199-0.453,0.396-0.675,0.595c-0.299,0.269-0.591,0.539-0.883,0.81c-0.214,0.199-0.434,0.396-0.645,0.596
		c-0.289,0.272-0.57,0.546-0.853,0.82c-0.204,0.197-0.411,0.394-0.611,0.591c-0.28,0.276-0.552,0.554-0.826,0.831
		c-0.191,0.195-0.388,0.39-0.576,0.585c-0.27,0.279-0.531,0.558-0.793,0.836c-0.184,0.195-0.37,0.389-0.55,0.583
		c-0.26,0.281-0.51,0.56-0.762,0.84c-0.174,0.192-0.351,0.385-0.521,0.577c-0.25,0.282-0.49,0.563-0.733,0.846
		c-0.163,0.188-0.33,0.377-0.49,0.566c-0.246,0.29-0.482,0.578-0.721,0.866c-0.146,0.178-0.3,0.357-0.443,0.535
		c-0.243,0.299-0.476,0.595-0.712,0.892c-0.132,0.167-0.269,0.334-0.398,0.5c-0.243,0.313-0.479,0.624-0.715,0.934
		c-0.111,0.148-0.228,0.297-0.339,0.443c-0.341,0.456-0.674,0.908-0.998,1.357c-0.425,0.591-0.842,1.19-1.254,1.791
		c-0.127,0.187-0.252,0.375-0.379,0.563c-0.287,0.428-0.572,0.856-0.852,1.289c-0.135,0.207-0.268,0.416-0.401,0.624
		c-0.289,0.456-0.574,0.914-0.855,1.374c-0.103,0.166-0.207,0.332-0.308,0.5c-0.374,0.622-0.741,1.247-1.102,1.877
		c-0.074,0.129-0.146,0.26-0.218,0.39c-0.286,0.508-0.568,1.017-0.845,1.529c-0.115,0.213-0.229,0.429-0.343,0.644
		c-0.237,0.448-0.471,0.899-0.7,1.351c-0.109,0.214-0.219,0.428-0.326,0.644c-0.269,0.539-0.532,1.081-0.79,1.626
		c-0.056,0.115-0.112,0.229-0.166,0.344c-0.309,0.657-0.608,1.318-0.901,1.981c-0.084,0.188-0.162,0.376-0.245,0.563
		c-0.211,0.488-0.419,0.977-0.622,1.469c-0.095,0.229-0.188,0.458-0.281,0.687c-0.194,0.481-0.385,0.963-0.571,1.445
		c-0.08,0.206-0.159,0.412-0.238,0.618c-0.257,0.68-0.508,1.363-0.749,2.048c-0.017,0.049-0.034,0.098-0.051,0.147
		c-0.223,0.64-0.439,1.282-0.649,1.925c-0.07,0.216-0.138,0.432-0.207,0.647c-0.156,0.493-0.31,0.985-0.458,1.481
		c-0.069,0.23-0.139,0.463-0.206,0.693c-0.157,0.537-0.309,1.075-0.456,1.614c-0.046,0.167-0.094,0.334-0.139,0.501
		c-0.188,0.704-0.368,1.409-0.541,2.116c-0.037,0.153-0.071,0.309-0.108,0.464c-0.133,0.559-0.261,1.117-0.385,1.678
		c-0.05,0.23-0.099,0.461-0.147,0.691c-0.106,0.509-0.21,1.017-0.309,1.526c-0.043,0.221-0.086,0.442-0.129,0.663
		c-0.118,0.64-0.232,1.281-0.339,1.924c-0.014,0.075-0.027,0.151-0.04,0.227c-0.118,0.721-0.225,1.443-0.326,2.165
		c-0.028,0.197-0.052,0.396-0.079,0.594c-0.07,0.532-0.137,1.063-0.198,1.596c-0.028,0.235-0.055,0.469-0.079,0.705
		c-0.058,0.533-0.111,1.068-0.16,1.604c-0.018,0.197-0.037,0.394-0.054,0.59c-0.063,0.729-0.117,1.455-0.16,2.184
		c-0.005,0.071-0.008,0.142-0.013,0.212c-0.037,0.654-0.068,1.309-0.093,1.963c-0.009,0.221-0.015,0.439-0.021,0.66
		c-0.016,0.521-0.028,1.043-0.035,1.565c-0.003,0.229-0.006,0.458-0.008,0.688c-0.003,0.581-0.001,1.163,0.007,1.743
		c0.002,0.146,0.002,0.293,0.005,0.441c0,0.047,0,0.094,0.001,0.141C50.294,130.893,51.314,111.307,61.656,92.966z M230.576,172.33
		l-5.365,5.836c0.076-0.188,0.146-0.373,0.221-0.561c0.188-0.467,0.37-0.934,0.551-1.398c0.201-0.518,0.4-1.035,0.591-1.547
		c0.172-0.461,0.337-0.92,0.5-1.381c0.182-0.51,0.362-1.021,0.535-1.531c0.154-0.453,0.301-0.904,0.447-1.355
		c0.165-0.508,0.327-1.014,0.482-1.52c0.137-0.445,0.269-0.891,0.399-1.334c0.148-0.502,0.291-1.004,0.431-1.504
		c0.121-0.438,0.236-0.873,0.352-1.309c0.131-0.498,0.258-0.998,0.38-1.492c0.105-0.43,0.206-0.857,0.306-1.283
		c0.114-0.496,0.226-0.988,0.332-1.479c0.09-0.422,0.177-0.842,0.261-1.258c0.099-0.492,0.193-0.98,0.283-1.467
		c0.077-0.412,0.15-0.822,0.221-1.232c0.084-0.486,0.162-0.971,0.237-1.453c0.063-0.402,0.124-0.805,0.18-1.203
		c0.068-0.482,0.133-0.963,0.192-1.441c0.05-0.395,0.098-0.787,0.143-1.178c0.054-0.477,0.103-0.951,0.148-1.424
		c0.037-0.385,0.073-0.77,0.105-1.152c0.04-0.471,0.075-0.939,0.106-1.408c0.025-0.377,0.051-0.754,0.071-1.127
		c0.026-0.467,0.046-0.928,0.065-1.389c0.015-0.369,0.029-0.736,0.039-1.104c0.013-0.459,0.021-0.915,0.025-1.369
		c0.005-0.361,0.01-0.723,0.009-1.081c0-0.453-0.005-0.901-0.013-1.35c-0.006-0.353-0.011-0.704-0.021-1.055
		c-0.012-0.445-0.03-0.889-0.05-1.33c-0.015-0.344-0.027-0.688-0.047-1.029c-0.024-0.439-0.054-0.874-0.084-1.311
		c-0.024-0.335-0.047-0.671-0.074-1.004c-0.035-0.432-0.076-0.859-0.116-1.286c-0.032-0.328-0.063-0.657-0.098-0.982
		c-0.046-0.424-0.097-0.843-0.149-1.263c-0.04-0.321-0.077-0.642-0.12-0.958c-0.056-0.417-0.117-0.826-0.178-1.238
		c-0.047-0.313-0.092-0.625-0.142-0.936c-0.065-0.407-0.136-0.809-0.206-1.211c-0.055-0.305-0.105-0.612-0.162-0.914
		c-0.074-0.398-0.153-0.791-0.231-1.186c-0.061-0.297-0.118-0.596-0.181-0.891c-0.083-0.389-0.169-0.771-0.256-1.153
		c-0.065-0.291-0.13-0.585-0.197-0.875c-0.089-0.375-0.184-0.745-0.275-1.114c-0.072-0.287-0.142-0.577-0.216-0.861
		c-0.097-0.365-0.196-0.724-0.295-1.085c-0.077-0.279-0.153-0.562-0.231-0.838c-0.103-0.357-0.209-0.708-0.314-1.061
		c-0.08-0.27-0.16-0.543-0.242-0.811c-0.107-0.347-0.219-0.685-0.329-1.025c-0.085-0.266-0.17-0.533-0.257-0.796
		c-0.113-0.338-0.23-0.668-0.346-1.002c-0.089-0.252-0.175-0.51-0.265-0.76c-0.118-0.333-0.24-0.658-0.363-0.985
		c-0.09-0.242-0.178-0.488-0.269-0.727c-0.126-0.331-0.255-0.653-0.383-0.978c-0.09-0.224-0.177-0.454-0.267-0.675
		c-0.141-0.351-0.286-0.692-0.429-1.035c-0.079-0.188-0.156-0.38-0.235-0.564c-0.225-0.523-0.449-1.037-0.676-1.542
		c-0.3-0.665-0.61-1.325-0.926-1.983c-0.098-0.202-0.198-0.405-0.296-0.607c-0.228-0.464-0.458-0.926-0.693-1.386
		c-0.111-0.218-0.224-0.438-0.338-0.654c-0.25-0.482-0.507-0.959-0.765-1.436c-0.093-0.17-0.183-0.341-0.277-0.51
		c-0.351-0.635-0.708-1.266-1.073-1.893c-0.076-0.13-0.155-0.258-0.231-0.388c-0.296-0.5-0.595-0.999-0.9-1.493
		c-0.127-0.208-0.258-0.415-0.388-0.621c-0.27-0.429-0.542-0.855-0.818-1.279c-0.131-0.203-0.262-0.404-0.395-0.604
		c-0.331-0.502-0.669-1-1.01-1.494c-0.073-0.106-0.146-0.214-0.219-0.321c-0.413-0.594-0.834-1.181-1.261-1.765
		c-0.126-0.172-0.254-0.34-0.38-0.511c-0.312-0.42-0.625-0.837-0.944-1.252c-0.153-0.201-0.309-0.402-0.465-0.602
		c-0.315-0.402-0.633-0.802-0.952-1.2c-0.144-0.177-0.285-0.356-0.43-0.532c-0.458-0.559-0.919-1.113-1.39-1.661
		c-0.047-0.056-0.096-0.11-0.144-0.165c-0.427-0.496-0.859-0.987-1.297-1.473c-0.161-0.179-0.322-0.356-0.484-0.533
		c-0.337-0.37-0.677-0.737-1.02-1.102c-0.174-0.185-0.35-0.371-0.525-0.555c-0.371-0.388-0.745-0.771-1.122-1.152
		c-0.137-0.139-0.272-0.279-0.411-0.417c-0.508-0.507-1.021-1.009-1.54-1.505c-0.132-0.127-0.268-0.25-0.399-0.375
		c-0.398-0.375-0.8-0.749-1.203-1.118c-0.187-0.17-0.375-0.338-0.562-0.506c-0.372-0.333-0.746-0.664-1.122-0.991
		c-0.183-0.159-0.365-0.319-0.549-0.476c-0.472-0.405-0.948-0.805-1.428-1.199c-0.082-0.066-0.16-0.134-0.241-0.201
		c-0.559-0.457-1.122-0.905-1.691-1.348c-0.169-0.132-0.34-0.262-0.511-0.393c-0.412-0.318-0.827-0.631-1.245-0.943
		c-0.197-0.146-0.396-0.293-0.594-0.438c-0.423-0.31-0.85-0.615-1.278-0.917c-0.17-0.121-0.34-0.243-0.512-0.362
		c-0.595-0.413-1.193-0.822-1.797-1.222c-0.071-0.047-0.144-0.093-0.216-0.14c-0.535-0.352-1.074-0.698-1.616-1.04
		c-0.188-0.119-0.379-0.235-0.569-0.353c-0.442-0.273-0.888-0.544-1.335-0.811c-0.196-0.117-0.393-0.234-0.589-0.349
		c-0.509-0.298-1.021-0.59-1.534-0.878c-0.12-0.067-0.238-0.136-0.358-0.203c-0.043-0.023-0.085-0.048-0.127-0.071
		c12,5.789,28.451,16.465,39.164,34.589C236.29,117.143,238.468,142.65,230.576,172.33z M54.97,165.699
		c1.746,4.918,6.169,16.686,12.224,27.947c-0.187,0.885-1.006,5.762,0.962,16.289C65.024,204.211,56.217,186.439,54.97,165.699z
		 M52.508,152.018c-2.407-22.201,3.665-45.56,16.891-63.919c10.269-14.256,29.604-32.056,63.544-36.333l-5.912,6.061
		c-19.712,3.89-35.867,11.692-48.018,23.195c-9.743,9.223-16.943,20.828-21.401,34.492
		C52.915,129.908,52.294,143.617,52.508,152.018z M119.882,44.525c6.396,2.308,10.146,4.436,12.08,5.729
		c0.155,0.105,0.307,0.212,0.456,0.319l-7.504-1.676C123.46,47.436,121.746,45.885,119.882,44.525z M177.533,59.071
		c20.432,9.016,37.625,25.953,46.912,46.585c7.212,16.022,12.958,41.666-0.307,73.199l-2.295-8.148
		c6.489-19.016,7.811-36.911,3.924-53.185c-3.115-13.048-9.566-25.085-19.17-35.778C196.479,70.479,184.918,63.086,177.533,59.071z
		 M206.242,204.873c3.385-3.969,11.365-13.686,18.089-24.559c0.86-0.279,5.494-2.008,13.626-8.977
		C234.563,176.912,223.573,193.428,206.242,204.873z M140.771,231.502c-28.335,0-53.944-13.246-72.22-37.318l8.204,2.088
		c19.269,22.047,41.643,33.225,66.503,33.225c22.967,0,42.517-9.787,52.405-15.838C180.099,225.072,160.523,231.502,140.771,231.502
		z M129.785,141.83c0-6.588,5.358-11.946,11.945-11.946c4.038,0,7.609,2.019,9.772,5.096c1.366,1.941,2.175,4.302,2.175,6.851
		c0,6.588-5.359,11.946-11.947,11.946c-0.98,0-1.929-0.131-2.843-0.355C133.672,152.141,129.785,147.436,129.785,141.83z
		 M53.458,141.435c0.111-1.672,0.264-3.418,0.469-5.229l70.767-10.777l7.777,7.777c-2.027,2.174-3.296,5.055-3.394,8.229H53.458z
		 M125.419,114.534l-0.88,9.59L83.54,83.126L125.419,114.534z M124.161,124.775l-9.229,1.404L83.027,83.64L124.161,124.775z
		 M122.986,67.171c1.608-3.101,3.374-6.482,4.707-8.98l3.661-3.755C127.813,59.705,125.048,63.947,122.986,67.171z M125.197,124.905
		l5.064-55.229c4.028-1.929,7.678-3.604,10.952-5.047v64.554c-3.188,0.13-6.075,1.435-8.235,3.504L125.197,124.905z M119.444,74.205
		c1.597-2.634,6.217-10.096,14.666-22.554c13.312,0.408,26.196,2.628,30.807,3.497C160.423,56.209,147.09,60.176,119.444,74.205z
		 M158.462,158.17l-7.588-7.588c2.109-2.203,3.428-5.158,3.513-8.419h72.603c-0.113,1.847-0.283,3.73-0.519,5.65L158.462,158.17z
		 M227.032,141.435h-72.648c-0.101-3.253-1.426-6.198-3.539-8.389l7.617-7.618l68.697,10.462
		C227.175,137.702,227.134,139.55,227.032,141.435z M159.259,124.815l41.175-41.175l-31.937,42.583L159.259,124.815z
		 M141.214,228.74c-1.809-0.045-3.604-0.154-5.387-0.32l-10.62-69.736l5.491-5.49l2.249-2.248c2.163,2.086,5.063,3.402,8.267,3.531
		V228.74z M125.996,168.691l-32.479,24.357c-0.508-0.332-1.008-0.662-1.504-0.99l32.579-32.578L125.996,168.691z M86.131,195.879
		c0.365-0.016,0.727-0.033,1.084-0.049l-4.188,4.189L86.131,195.879z M88.292,195.781c0.58-0.025,1.144-0.051,1.687-0.076
		l-6.438,4.828L88.292,195.781z M86.817,195.121c-3.441,0.156-7.2,0.316-10.02,0.412l-5.034-1.281
		C78.022,194.678,83.027,194.949,86.817,195.121z M94.671,194.672c-3.079-0.066-11.851-0.336-26.856-1.426l-0.01-0.002
		c-6.302-11.73-10.822-23.998-12.374-28.424C58.598,168.182,68.7,177.746,94.671,194.672z M143.259,228.77
		c-0.441,0-0.879-0.012-1.317-0.02v-74.258c3.248-0.055,6.196-1.338,8.412-3.402l7.594,7.594l-10.656,69.982
		C145.959,228.73,144.615,228.77,143.259,228.77z M158.603,159.215l41.317,41.318l-42.729-32.047L158.603,159.215z M159.206,158.793
		l9.251-1.41l31.977,42.637L159.206,158.793z M225.949,178.83c-0.213,0.102-0.425,0.203-0.634,0.297l5.24-5.701
		c2.02-0.531,4.262-1.246,6.409-2.199C231.756,175.619,228.033,177.805,225.949,178.83z M215.798,162.584
		c1.874,2.936,3.913,6.145,5.411,8.545l1.416,5.037C219.84,170.479,217.556,165.975,215.798,162.584z M211.483,156.006
		c1.482,2.701,5.633,10.432,12.196,23.98c-7.007,11.32-15.37,21.369-18.429,24.928C206.578,200.488,209.81,186.959,211.483,156.006z
		 M158.642,124.405l-0.885-9.656l42.163-31.623L158.642,124.405z M157.958,124.905l-7.636,7.636
		c-2.212-2.049-5.148-3.319-8.381-3.373V64.31c3.862-1.689,7.207-3.059,10.078-4.168L157.958,124.905z M53.413,142.163h75.661
		c0.083,3.185,1.346,6.076,3.367,8.259l-7.748,7.748l-71.478-10.887C53.241,145.686,53.303,143.973,53.413,142.163z
		 M124.214,158.832L91.396,191.65c-0.471-0.313-0.937-0.623-1.396-0.93l24.973-33.297L124.214,158.832z M67.671,195.793
		c0.017-0.238,0.036-0.475,0.061-0.707l2.317,7.391c-0.55,2.018-1.05,4.318-1.3,6.658C67.548,202.43,67.517,198.113,67.671,195.793z
		 M164.386,54.309c-5.13-0.945-17.535-3-30.315-3.386c-0.673-0.606-4.489-3.756-14.603-7.32
		C125.895,43.74,145.689,44.959,164.386,54.309z M70.982,203.023l-2.373-7.568c0.081,0.105,0.166,0.207,0.247,0.313
		c0.285,0.363,0.572,0.721,0.859,1.08c0.302,0.377,0.604,0.756,0.911,1.129c0.292,0.355,0.589,0.705,0.885,1.057
		c0.307,0.363,0.613,0.727,0.924,1.084c0.302,0.348,0.607,0.691,0.913,1.035c0.313,0.35,0.624,0.699,0.94,1.043
		c0.309,0.34,0.622,0.674,0.935,1.006c0.317,0.338,0.636,0.676,0.956,1.006c0.317,0.332,0.639,0.656,0.961,0.98
		s0.645,0.648,0.971,0.969s0.654,0.633,0.982,0.949c0.329,0.313,0.657,0.623,0.987,0.932c0.334,0.309,0.669,0.613,1.006,0.918
		c0.332,0.301,0.665,0.6,1.002,0.895c0.341,0.301,0.684,0.596,1.029,0.891c0.337,0.287,0.675,0.574,1.015,0.855
		c0.349,0.289,0.697,0.574,1.049,0.857c0.344,0.277,0.688,0.553,1.033,0.824c0.355,0.277,0.71,0.551,1.067,0.824
		c0.349,0.264,0.698,0.525,1.05,0.787c0.36,0.266,0.722,0.529,1.085,0.789c0.354,0.256,0.709,0.504,1.066,0.752
		c0.366,0.256,0.734,0.508,1.103,0.758c0.358,0.242,0.72,0.48,1.082,0.717c0.372,0.244,0.745,0.486,1.12,0.723
		c0.364,0.23,0.731,0.459,1.099,0.684c0.378,0.23,0.755,0.461,1.136,0.686c0.369,0.221,0.741,0.436,1.114,0.648
		c0.382,0.219,0.765,0.438,1.149,0.652c0.376,0.209,0.754,0.41,1.134,0.613c0.386,0.207,0.772,0.414,1.161,0.613
		c0.382,0.197,0.767,0.389,1.15,0.58c0.392,0.195,0.781,0.391,1.175,0.578c0.388,0.186,0.779,0.367,1.17,0.547
		c0.394,0.182,0.787,0.363,1.184,0.539c0.395,0.176,0.791,0.344,1.188,0.514c0.397,0.168,0.795,0.338,1.194,0.502
		c0.4,0.162,0.803,0.318,1.204,0.477c0.4,0.156,0.802,0.314,1.205,0.465c0.407,0.152,0.815,0.297,1.224,0.443
		c0.403,0.143,0.806,0.289,1.212,0.428c0.411,0.139,0.826,0.271,1.239,0.404c0.407,0.131,0.813,0.266,1.223,0.391
		c0.418,0.129,0.84,0.248,1.261,0.371c0.407,0.117,0.813,0.238,1.222,0.352c0.428,0.115,0.859,0.225,1.289,0.336
		c0.406,0.105,0.812,0.213,1.221,0.313c0.436,0.105,0.876,0.201,1.314,0.301c0.404,0.092,0.81,0.188,1.216,0.271
		c0.446,0.096,0.895,0.178,1.342,0.266c0.404,0.078,0.809,0.162,1.214,0.234c0.456,0.08,0.914,0.154,1.37,0.227
		c0.402,0.066,0.803,0.137,1.206,0.195c0.472,0.072,0.946,0.131,1.42,0.193c0.392,0.053,0.781,0.109,1.174,0.154
		c0.493,0.059,0.989,0.105,1.484,0.156c0.378,0.039,0.754,0.082,1.133,0.115c0.519,0.047,1.041,0.08,1.561,0.117
		c0.359,0.025,0.715,0.057,1.075,0.078c0.584,0.035,1.17,0.055,1.757,0.078c0.298,0.012,0.596,0.029,0.896,0.039
		c0.887,0.025,1.777,0.039,2.67,0.039c0.954,0,1.907-0.02,2.86-0.049c0.235-0.008,0.47-0.016,0.705-0.025
		c0.95-0.037,1.898-0.082,2.846-0.148c0.025-0.002,0.052-0.004,0.077-0.006c0.927-0.066,1.851-0.148,2.775-0.242
		c0.232-0.023,0.467-0.047,0.699-0.072c0.942-0.102,1.883-0.213,2.82-0.342c0.047-0.006,0.093-0.014,0.139-0.021
		c0.898-0.125,1.796-0.268,2.689-0.418c0.231-0.041,0.462-0.08,0.693-0.121c0.93-0.164,1.855-0.338,2.778-0.529
		c0.067-0.014,0.135-0.031,0.202-0.045c0.868-0.182,1.731-0.379,2.593-0.586c0.227-0.053,0.453-0.107,0.68-0.164
		c0.913-0.225,1.822-0.461,2.727-0.713c0.085-0.023,0.167-0.049,0.251-0.072c0.836-0.234,1.667-0.484,2.496-0.742
		c0.223-0.07,0.445-0.139,0.667-0.211c0.891-0.283,1.778-0.576,2.657-0.887c0.103-0.035,0.203-0.074,0.304-0.109
		c0.799-0.285,1.592-0.58,2.382-0.887c0.219-0.084,0.438-0.168,0.656-0.254c0.863-0.342,1.724-0.691,2.576-1.057
		c0.112-0.049,0.225-0.102,0.336-0.15c0.765-0.33,1.521-0.674,2.275-1.023c0.212-0.1,0.424-0.197,0.635-0.299
		c0.835-0.395,1.664-0.801,2.485-1.223c0.122-0.061,0.243-0.127,0.365-0.191c0.725-0.375,1.443-0.76,2.157-1.152
		c0.205-0.113,0.411-0.227,0.614-0.34c0.8-0.449,1.594-0.906,2.377-1.379c0.034-0.02,0.069-0.039,0.104-0.061
		c-11.152,7.59-28.916,16.617-50.309,16.617C115.409,235.324,92.497,224.457,70.982,203.023z M146.216,235.717l-1.648,10.828
		c-0.873,0.023-1.749,0.035-2.626,0.037v-10.588C143.385,235.939,144.81,235.848,146.216,235.717z M235.71,146.406
		c0.092-1.428,0.155-2.842,0.191-4.244h10.579c-0.003,0.873-0.016,1.742-0.04,2.609L235.71,146.406z M235.92,141.435
		c0.028-1.416,0.026-2.819-0.003-4.21l10.522,1.602c0.023,0.866,0.036,1.736,0.04,2.608H235.92z M150.917,48.119
		c-3.083-0.973-6.096-1.764-8.976-2.413v-8.629c2.688,0.006,5.354,0.113,7.992,0.317L150.917,48.119z M141.214,45.545
		c-3.056-0.667-5.947-1.169-8.598-1.546l0.604-6.577c2.639-0.213,5.305-0.328,7.994-0.34V45.545z M50.268,136.762
		c0.009,1.617,0.054,3.177,0.125,4.673H36.979c0.004-0.888,0.019-1.772,0.044-2.655L50.268,136.762z M50.43,142.163
		c0.093,1.673,0.219,3.261,0.366,4.753l-13.775-2.098c-0.025-0.883-0.039-1.77-0.041-2.656H50.43z M136.985,236.021
		c0.699,0.018,1.398,0.029,2.1,0.029c0.714,0,1.423-0.014,2.129-0.033v10.561c-0.878-0.006-1.754-0.02-2.628-0.045L136.985,236.021z
		"/>
	<polygon style="fill:#010101;" points="95.114,246.457 96.463,247.076 97.282,245.291 92.334,243.02 91.514,244.803 
		92.862,245.422 88.605,254.695 87.257,254.076 86.438,255.859 91.388,258.131 92.205,256.346 90.858,255.729 	"/>
	<polygon style="fill:#010101;" points="108.517,251.551 109.917,252.039 110.566,250.188 105.551,248.432 104.902,250.285 
		106.303,250.775 103.902,257.629 102.291,247.291 98.295,245.891 97.646,247.744 99.045,248.234 95.674,257.863 94.273,257.373 
		93.625,259.227 98.632,260.979 99.28,259.125 97.907,258.645 100.699,250.67 102.43,262.604 104.405,263.295 	"/>
	<path style="fill:#010101;" d="M118.121,265.406c0.94-0.609,1.554-1.559,1.841-2.85c0.241-1.084,0.126-2.018-0.344-2.799
		c-0.472-0.781-1.411-1.564-2.821-2.35l-1.534-0.842c-0.554-0.307-0.921-0.611-1.099-0.916s-0.221-0.672-0.125-1.102
		c0.111-0.506,0.389-0.881,0.831-1.125c0.443-0.246,0.958-0.303,1.544-0.174c0.696,0.156,1.227,0.484,1.589,0.986
		c0.363,0.504,0.56,1.186,0.592,2.051l1.88,0.418l0.912-4.105l-1.879-0.418l-0.201,0.908c-0.295-0.467-0.685-0.857-1.172-1.174
		s-1.043-0.547-1.666-0.684c-1.161-0.26-2.213-0.098-3.156,0.484c-0.944,0.582-1.54,1.434-1.79,2.557
		c-0.216,0.971-0.112,1.824,0.312,2.557s1.214,1.41,2.371,2.033l1.44,0.781c0.808,0.441,1.355,0.869,1.645,1.279
		c0.291,0.41,0.377,0.879,0.261,1.402c-0.129,0.578-0.448,1.021-0.959,1.328c-0.51,0.305-1.073,0.389-1.691,0.252
		c-0.806-0.18-1.422-0.588-1.848-1.221c-0.428-0.635-0.659-1.477-0.694-2.525l-1.952-0.434l-1.039,4.676l1.952,0.434l0.261-1.17
		c0.339,0.574,0.782,1.049,1.326,1.424c0.545,0.377,1.179,0.645,1.898,0.805C116.076,266.178,117.181,266.016,118.121,265.406z"/>
	<polygon style="fill:#010101;" points="133.955,254.172 123.507,252.994 123.059,256.975 125.259,257.223 125.489,255.193 
		127.28,255.396 126.139,265.533 124.366,265.334 124.146,267.285 130.164,267.963 130.383,266.012 128.601,265.811 
		129.742,255.674 131.543,255.875 131.315,257.902 133.507,258.15 	"/>
	<polygon style="fill:#010101;" points="140.243,266.48 138.762,266.436 139.073,256.236 140.557,256.283 140.615,254.32 
		135.174,254.154 135.113,256.117 136.597,256.162 136.285,266.359 134.802,266.314 134.741,268.277 140.185,268.443 	"/>
	<polygon style="fill:#010101;" points="152.331,253.883 141.831,254.41 142.032,258.41 144.245,258.299 144.142,256.262 
		145.942,256.17 146.455,266.359 144.674,266.449 144.771,268.41 150.82,268.105 150.721,266.145 148.931,266.236 148.419,256.045 
		150.227,255.955 150.33,257.992 152.533,257.881 	"/>
	<path style="fill:#010101;" d="M165.196,253.863l1.446-0.242l-0.326-1.938l-5.351,0.898l0.324,1.938l1.444-0.242l1.162,6.926
		c0.183,1.088,0.127,1.889-0.168,2.402c-0.294,0.512-0.874,0.84-1.739,0.986c-0.87,0.145-1.529,0.027-1.976-0.354
		c-0.449-0.383-0.765-1.123-0.95-2.225l-1.162-6.926l1.436-0.242l-0.326-1.936l-5.341,0.896l0.325,1.936l1.435-0.24l1.113,6.643
		c0.182,1.076,0.393,1.896,0.633,2.463c0.242,0.564,0.56,1.027,0.957,1.389c0.516,0.469,1.129,0.785,1.838,0.943
		c0.709,0.16,1.514,0.164,2.416,0.014c0.987-0.166,1.798-0.469,2.437-0.908c0.637-0.441,1.098-1.016,1.387-1.725
		c0.188-0.459,0.297-0.959,0.319-1.496c0.024-0.539-0.048-1.313-0.218-2.32L165.196,253.863z"/>
	<polygon style="fill:#010101;" points="178.927,260.697 177.205,261.197 174.358,251.4 176.097,250.896 176.667,252.855 
		178.785,252.238 177.667,248.395 167.57,251.33 168.688,255.174 170.816,254.557 170.247,252.596 171.977,252.094 174.825,261.889 
		173.112,262.387 173.661,264.273 179.476,262.582 	"/>
	<polygon style="fill:#010101;" points="190.184,254.088 191.025,256.135 187.005,257.787 185.282,253.598 188.711,252.188 
		187.906,250.23 184.477,251.641 183.133,248.371 187.222,246.689 187.932,248.418 189.93,247.596 188.465,244.033 178.714,248.043 
		179.461,249.859 180.833,249.295 184.713,258.73 183.341,259.295 184.088,261.111 193.839,257.104 192.249,253.24 	"/>
	<path style="fill:#010101;" d="M18.235,134.713c0.991,0.095,1.824-0.113,2.498-0.624c0.675-0.51,1.251-1.378,1.727-2.602
		l0.599-1.528c0.34-0.853,0.694-1.45,1.067-1.788c0.372-0.338,0.825-0.482,1.359-0.432c0.591,0.058,1.07,0.32,1.437,0.789
		c0.364,0.469,0.517,1.018,0.456,1.648c-0.078,0.821-0.405,1.483-0.984,1.984c-0.576,0.5-1.383,0.834-2.419,0.999l-0.191,1.99
		l4.77,0.457l0.191-1.991l-1.193-0.114c0.526-0.408,0.943-0.906,1.25-1.492c0.307-0.587,0.494-1.248,0.565-1.983
		c0.124-1.296-0.174-2.373-0.894-3.23c-0.72-0.858-1.737-1.35-3.054-1.478c-1.106-0.104-2.019,0.124-2.735,0.687
		c-0.719,0.563-1.381,1.593-1.985,3.088l-0.646,1.625c-0.235,0.589-0.495,0.989-0.774,1.204c-0.281,0.215-0.64,0.302-1.078,0.26
		c-0.516-0.049-0.923-0.278-1.22-0.688c-0.299-0.408-0.418-0.912-0.36-1.511c0.067-0.71,0.328-1.275,0.783-1.698
		c0.453-0.421,1.107-0.7,1.962-0.839l0.184-1.915l-4.187-0.402l-0.184,1.917l0.926,0.087c-0.425,0.35-0.766,0.785-1.021,1.309
		c-0.254,0.522-0.414,1.102-0.475,1.737c-0.112,1.183,0.178,2.208,0.87,3.073C16.173,134.116,17.092,134.603,18.235,134.713z"/>
	<polygon style="fill:#010101;" points="20.204,120.259 18.204,119.854 18.563,118.088 28.561,120.114 28.207,121.863 
		30.131,122.252 31.334,116.318 29.409,115.928 29.053,117.685 19.055,115.658 19.414,113.882 21.413,114.289 21.852,112.125 
		17.929,111.331 15.84,121.636 19.765,122.431 	"/>
	<path style="fill:#010101;" d="M20.409,109.468l0.448-1.414l9.726,3.083l-0.449,1.414l1.872,0.594l1.702-5.369l-1.872-0.594
		l-0.504,1.594l-4.302-1.365l0.39-1.226c0.294-0.931,0.671-1.516,1.128-1.754c0.459-0.239,1.27-0.173,2.432,0.195l3.388,1.075
		l1.154-3.643l-1.872-0.595l-0.399,1.263l-2.822-0.896c-0.73-0.23-1.325-0.258-1.787-0.083c-0.46,0.175-0.842,0.58-1.143,1.213
		c-0.021-0.841-0.219-1.526-0.591-2.053c-0.371-0.529-0.929-0.911-1.671-1.146c-1.193-0.378-2.188-0.276-2.987,0.308
		c-0.798,0.585-1.461,1.706-1.985,3.365l-1.727,5.44L20.409,109.468z M22.155,103.965c0.26-0.823,0.591-1.375,0.992-1.655
		c0.399-0.28,0.911-0.322,1.531-0.125c0.614,0.195,1.005,0.522,1.171,0.981c0.166,0.46,0.117,1.102-0.144,1.924l-0.548,1.728
		l-3.551-1.127L22.155,103.965z"/>
	<path style="fill:#010101;" d="M25.75,93.97l0.609-1.362l7.882,7.358l-0.448,1.002l1.792,0.803l2.027-4.523l-1.792-0.803
		l-0.604,1.345L33.22,95.97l1.777-3.967l2.688,0.28l-0.606,1.354l1.792,0.803l2.146-4.79l-1.792-0.803l-0.519,1.157l-10.711-1.044
		l0.653-1.457l-1.792-0.803l-2.899,6.468L25.75,93.97z M31.67,94.627l-3.727-3.397l5.009,0.536L31.67,94.627z"/>
	<polygon style="fill:#010101;" points="31.955,85.312 33.056,83.389 31.286,82.375 32.182,80.811 41.033,85.884 40.146,87.431 
		41.851,88.408 44.861,83.154 43.157,82.177 42.266,83.733 33.415,78.661 34.313,77.088 36.085,78.103 37.182,76.188 33.708,74.199 
		28.48,83.321 	"/>
	<polygon style="fill:#010101;" points="37.513,72.032 45.788,78 44.919,79.203 46.513,80.351 52.679,71.799 49.291,69.357 
		47.983,71.169 49.779,72.463 47.237,75.989 43.563,73.338 45.731,70.331 44.013,69.093 41.844,72.1 38.978,70.033 41.564,66.446 
		43.079,67.539 44.343,65.789 41.219,63.535 35.052,72.086 36.645,73.235 	"/>
	<path style="fill:#010101;" d="M45.888,60.628c0.087,1.929,0.916,3.622,2.483,5.077c1.535,1.425,3.28,2.112,5.235,2.06
		c1.956-0.05,3.621-0.816,4.996-2.298c0.618-0.666,1.061-1.375,1.329-2.129c0.268-0.755,0.362-1.549,0.282-2.382l1.231,1.04
		l1.233-1.329l-3.365-3.121l0.984-1.059l-1.496-1.387L54.3,59.95l1.496,1.387l2.157-2.327c0.282,0.945,0.342,1.799,0.177,2.565
		c-0.167,0.765-0.565,1.488-1.199,2.172c-0.903,0.972-1.993,1.462-3.272,1.471c-1.28,0.007-2.444-0.475-3.492-1.448
		c-1.096-1.017-1.687-2.141-1.771-3.372c-0.086-1.232,0.353-2.366,1.314-3.403c0.622-0.67,1.313-1.097,2.07-1.281
		c0.759-0.184,1.579-0.118,2.463,0.199l1.386-1.494l-3.454-3.206l-1.387,1.494l0.794,0.735c-0.607,0.017-1.228,0.194-1.857,0.531
		c-0.631,0.337-1.229,0.811-1.796,1.42C46.481,56.954,45.8,58.699,45.888,60.628z"/>
	<polygon style="fill:#010101;" points="56.482,49.862 62.915,51.805 65.866,55.268 64.581,56.364 65.855,57.858 70.334,54.038 
		69.06,52.544 67.774,53.641 64.82,50.179 63.889,43.545 64.731,42.827 63.458,41.333 59.629,44.598 60.903,46.092 61.853,45.281 
		62.557,49.303 58.667,47.999 59.495,47.292 58.222,45.797 54.379,49.076 55.653,50.57 	"/>
	<path style="fill:#010101;" d="M73.283,38.127c0.267,0.444,0.659,0.832,1.176,1.166c0.518,0.333,1.206,0.637,2.063,0.912
		c-0.411,1.163-0.62,2.1-0.625,2.81c-0.003,0.71,0.18,1.374,0.552,1.993c0.561,0.937,1.321,1.536,2.282,1.798
		c0.96,0.262,1.893,0.12,2.801-0.424c0.671-0.402,1.22-0.904,1.648-1.502c0.428-0.6,0.76-1.332,0.994-2.194l1.915,0.638l2.505-1.502
		l-1.012-1.684l-1.433,0.86l-1.573-0.452c0.065-0.888,0.022-1.705-0.128-2.449c-0.151-0.744-0.413-1.458-0.787-2.142l1.033-0.63
		l-0.887-1.479l-3.446,2.067l0.889,1.479l0.913-0.537c0.236,0.491,0.405,0.986,0.503,1.486c0.099,0.499,0.134,1.041,0.104,1.625
		l-3.825-1.213c0.284-0.864,0.413-1.619,0.387-2.266c-0.027-0.646-0.206-1.246-0.538-1.799c-0.473-0.789-1.125-1.288-1.954-1.498
		c-0.83-0.209-1.624-0.087-2.38,0.367c-0.795,0.476-1.307,1.163-1.535,2.06C72.697,36.513,72.816,37.35,73.283,38.127z
		 M78.356,40.871l3.997,1.243c-0.132,0.497-0.341,0.942-0.623,1.334s-0.619,0.708-1.011,0.941c-0.473,0.283-0.931,0.375-1.372,0.276
		c-0.442-0.098-0.799-0.373-1.069-0.822c-0.207-0.344-0.304-0.759-0.292-1.243C77.999,42.116,78.122,41.54,78.356,40.871z
		 M74.634,35.854c0.079-0.367,0.287-0.653,0.625-0.855c0.334-0.2,0.684-0.242,1.051-0.128c0.369,0.115,0.668,0.363,0.897,0.746
		c0.196,0.33,0.297,0.712,0.301,1.15s-0.092,0.963-0.284,1.579c-0.642-0.182-1.154-0.384-1.537-0.61
		c-0.383-0.224-0.662-0.484-0.841-0.78C74.627,36.588,74.555,36.221,74.634,35.854z"/>
	<polygon style="fill:#010101;" points="91.674,26.99 95.481,36.456 94.104,37.009 94.837,38.831 103.808,35.222 102.25,31.347 
		100.168,32.185 100.994,34.238 97.78,35.531 93.98,26.084 95.547,25.453 94.807,23.613 89.565,25.723 90.297,27.544 	"/>
	<polygon style="fill:#010101;" points="102.673,22.808 105.508,32.607 104.083,33.02 104.628,34.906 114.755,31.976 
		113.596,27.964 111.449,28.584 112.064,30.711 107.889,31.919 106.63,27.566 110.192,26.536 109.604,24.501 106.041,25.533 
		105.059,22.136 109.306,20.908 109.825,22.702 111.899,22.103 110.83,18.403 100.702,21.333 101.249,23.22 	"/>
	<path style="fill:#010101;" d="M118.141,18.909l-1.723,10.646l-1.083,0.184l0.33,1.936l4.887-0.836l-0.332-1.935l-1.452,0.249
		l0.4-2.673l4.284-0.733l1.266,2.388l-1.463,0.251l0.332,1.935l5.173-0.885l-0.332-1.936l-1.248,0.214l-5.098-9.479l1.574-0.269
		l-0.332-1.936l-6.986,1.194l0.331,1.937L118.141,18.909z M120.168,19.456l2.342,4.459l-3.09,0.528L120.168,19.456z"/>
	<path style="fill:#010101;" d="M130.075,17.165l0.488,10.19l-1.481,0.071l0.093,1.962l5.552-0.267
		c2.531-0.12,4.429-0.815,5.69-2.084s1.837-3.047,1.728-5.339c-0.11-2.296-0.853-4.015-2.23-5.158
		c-1.376-1.143-3.331-1.654-5.862-1.533l-5.552,0.265l0.094,1.962L130.075,17.165z M139.593,21.821
		c0.08,1.665-0.294,2.95-1.122,3.856c-0.826,0.905-2.081,1.398-3.763,1.479l-1.669,0.08l-0.487-10.191l1.669-0.08
		c1.682-0.08,2.979,0.291,3.888,1.113C139.019,18.904,139.515,20.149,139.593,21.821z"/>
	<polygon style="fill:#010101;" points="154.082,29.531 154.363,25.364 152.135,25.214 151.984,27.423 147.648,27.129 
		147.954,22.609 151.652,22.858 151.796,20.747 148.097,20.497 148.333,16.97 152.744,17.267 152.62,19.131 154.774,19.277 
		155.033,15.435 144.514,14.725 144.382,16.684 145.862,16.785 145.176,26.963 143.696,26.863 143.563,28.822 	"/>
	<path style="fill:#010101;" d="M157.706,17.696l1.46,0.259L157.383,28l-1.461-0.259l-0.344,1.934l5.546,0.984l0.345-1.933
		l-1.646-0.293l0.788-4.442l1.267,0.225c0.961,0.171,1.591,0.467,1.888,0.89c0.296,0.421,0.338,1.234,0.125,2.435l-0.622,3.5
		l3.763,0.667l0.343-1.934l-1.303-0.231l0.518-2.914c0.135-0.755,0.084-1.349-0.15-1.784c-0.235-0.434-0.686-0.758-1.353-0.974
		c0.83-0.131,1.482-0.416,1.957-0.854c0.477-0.438,0.781-1.04,0.917-1.807c0.219-1.232-0.013-2.207-0.695-2.921
		c-0.685-0.715-1.883-1.225-3.596-1.529l-5.62-0.997L157.706,17.696z M165.485,20.973c-0.112,0.636-0.386,1.065-0.819,1.291
		c-0.436,0.224-1.076,0.26-1.927,0.11l-1.783-0.316l0.65-3.67l1.785,0.318c0.849,0.15,1.439,0.406,1.77,0.767
		C165.491,19.832,165.601,20.332,165.485,20.973z"/>
	<path style="fill:#010101;" d="M177.138,21.774l1.396,0.498l-3.434,9.607l-1.396-0.5l-0.662,1.849l5.233,1.871
		c2.388,0.853,4.405,0.933,6.056,0.243c1.649-0.693,2.859-2.118,3.631-4.277c0.774-2.165,0.742-4.039-0.094-5.62
		c-0.838-1.581-2.45-2.798-4.836-3.651l-5.234-1.871L177.138,21.774z M182.44,23.669c1.587,0.567,2.643,1.404,3.171,2.512
		c0.527,1.107,0.511,2.449-0.053,4.025c-0.562,1.569-1.397,2.615-2.507,3.137c-1.111,0.522-2.46,0.5-4.045-0.066l-1.572-0.563
		l3.434-9.607L182.44,23.669z"/>
	<polygon style="fill:#010101;" points="191.952,27.291 193.281,27.95 188.744,37.089 187.416,36.429 186.542,38.188 
		195.986,42.875 197.844,39.135 195.842,38.141 194.857,40.123 190.965,38.191 192.979,34.132 196.301,35.781 197.241,33.884 
		193.92,32.235 195.491,29.069 199.452,31.036 198.622,32.709 200.557,33.669 202.269,30.219 192.824,25.533 	"/>
	<polygon style="fill:#010101;" points="203.675,33.201 204.496,33.728 201.4,46.528 202.808,47.431 213.067,39.23 213.866,39.742 
		214.927,38.089 210.978,35.554 209.916,37.207 211.014,37.911 204.669,43.07 206.7,35.142 207.752,35.817 208.812,34.165 
		204.735,31.548 	"/>
	<polygon style="fill:#010101;" points="215.632,41.046 216.786,41.979 210.373,49.914 209.22,48.98 207.983,50.508 216.183,57.136 
		218.81,53.888 217.071,52.483 215.68,54.204 212.3,51.472 215.148,47.947 218.032,50.279 219.363,48.631 216.479,46.301 
		218.701,43.552 222.141,46.332 220.967,47.785 222.645,49.142 225.065,46.146 216.866,39.52 	"/>
	<polygon style="fill:#010101;" points="219.757,57.816 218.703,56.774 217.322,58.171 224.2,64.967 227.137,61.996 225.54,60.418 
		223.984,61.992 221.521,59.558 228.678,52.315 229.88,53.502 231.272,52.092 227.253,48.12 225.874,49.517 226.928,50.559 	"/>
	<path style="fill:#010101;" d="M230.186,60.879c-1.609,1.3-2.53,2.932-2.757,4.896c-0.229,1.965,0.306,3.75,1.603,5.356
		c0.676,0.838,1.448,1.484,2.316,1.939c0.87,0.457,1.82,0.714,2.853,0.773c0.911,0.051,1.806-0.065,2.679-0.349
		c0.875-0.284,1.684-0.725,2.424-1.322c0.854-0.691,1.52-1.492,1.991-2.405c0.475-0.913,0.744-1.902,0.81-2.969
		c0.055-0.879-0.057-1.728-0.335-2.544c-0.278-0.816-0.717-1.597-1.317-2.342c-1.305-1.615-2.938-2.519-4.897-2.709
		C233.596,59.013,231.805,59.571,230.186,60.879z M235.432,61.74c1.283,0.101,2.334,0.661,3.156,1.676
		c0.823,1.022,1.15,2.17,0.981,3.445c-0.17,1.273-0.811,2.36-1.925,3.259c-1.113,0.898-2.309,1.296-3.589,1.197
		c-1.278-0.101-2.333-0.664-3.161-1.69s-1.155-2.175-0.979-3.447c0.177-1.271,0.818-2.353,1.928-3.249
		C232.951,62.037,234.146,61.64,235.432,61.74z"/>
	<path style="fill:#010101;" d="M244.634,71.083l0.789,1.256l-8.642,5.422l-0.789-1.257l-1.663,1.043l3.058,4.875l1.664-1.043
		l-0.953-1.518l2.678-1.681l0.409,0.652c1.024,1.633,2.121,2.668,3.289,3.107c1.168,0.438,2.38,0.263,3.635-0.523
		c1.256-0.788,1.943-1.803,2.063-3.046c0.121-1.243-0.332-2.684-1.359-4.322l-2.514-4.008L244.634,71.083z M246.757,74.429
		l0.408,0.653c0.608,0.969,0.881,1.798,0.817,2.484c-0.063,0.686-0.459,1.257-1.189,1.717c-0.741,0.464-1.438,0.575-2.088,0.333
		c-0.648-0.242-1.275-0.846-1.882-1.812l-0.408-0.652L246.757,74.429z"/>
	<polygon style="fill:#010101;" points="252.062,83.219 242.812,87.522 242.185,86.177 240.405,87.004 242.756,92.061 
		244.538,91.233 243.84,89.735 252.5,85.708 245.231,92.909 245.79,94.108 255.96,93.147 247.3,97.175 246.604,95.676 
		244.822,96.505 247.175,101.561 248.954,100.732 248.333,99.397 257.584,95.095 258.205,96.431 259.985,95.604 257.797,90.896 
		249.289,91.818 255.489,85.934 253.217,81.047 251.436,81.875 	"/>
	<polygon style="fill:#010101;" points="259.412,100.243 249.686,103.318 249.236,101.903 247.365,102.496 250.543,112.547 
		254.525,111.289 253.852,109.158 251.741,109.826 250.433,105.681 254.752,104.315 255.87,107.851 257.888,107.212 256.77,103.677 
		260.142,102.612 261.474,106.828 259.693,107.391 260.343,109.449 264.016,108.29 260.838,98.236 258.965,98.828 	"/>
	<polygon style="fill:#010101;" points="262.936,111.658 263.216,113.116 253.199,115.044 252.917,113.588 250.99,113.96 
		251.993,119.167 253.92,118.797 253.645,117.369 261.942,115.771 252.5,123.267 252.896,125.324 265.114,122.968 265.396,124.425 
		267.324,124.054 266.317,118.837 264.39,119.208 264.671,120.665 257.54,122.039 265.664,115.444 264.863,111.287 	"/>
	<polygon style="fill:#010101;" points="263.777,129.147 265.813,128.988 265.953,130.785 255.781,131.575 255.643,129.797 
		253.685,129.949 254.155,135.987 256.111,135.834 255.973,134.046 266.145,133.255 266.285,135.062 264.25,135.221 264.421,137.42 
		268.414,137.11 267.6,126.626 263.607,126.938 	"/>
	<path style="fill:#231F20;" d="M139.672,149.879c0.66,0.168,1.346,0.268,2.059,0.268c4.586,0,8.316-3.73,8.316-8.317
		c0-1.755-0.549-3.382-1.479-4.725c-1.504-2.168-4.008-3.593-6.838-3.593c-4.586,0-8.318,3.732-8.318,8.317
		C133.412,145.705,136.08,148.959,139.672,149.879z M135.5,146.154c-0.854-1.229-1.36-2.719-1.36-4.325
		c0-4.186,3.404-7.59,7.591-7.59c1.223,0,2.374,0.297,3.397,0.813c2.482,1.249,4.192,3.814,4.192,6.777
		c0,4.184-3.403,7.59-7.59,7.59C139.152,149.42,136.873,148.125,135.5,146.154z"/>
	<path style="fill:#231F20;" d="M139.873,143.238c0.428,0.564,1.098,0.934,1.857,0.934c1.292,0,2.342-1.051,2.342-2.342
		c0-0.825-0.432-1.549-1.079-1.966c-0.365-0.234-0.798-0.375-1.263-0.375c-1.292,0-2.341,1.049-2.341,2.341
		C139.39,142.36,139.573,142.846,139.873,143.238z M140.115,141.83c0-0.89,0.725-1.614,1.615-1.614c0.319,0,0.615,0.096,0.867,0.256
		c0.449,0.288,0.748,0.787,0.748,1.358c0,0.891-0.725,1.616-1.615,1.616c-0.544,0-1.024-0.271-1.317-0.687
		C140.228,142.496,140.115,142.176,140.115,141.83z"/>
	<path style="fill:#231F20;" d="M140.967,142.178c0.135,0.291,0.423,0.494,0.764,0.494c0.465,0,0.843-0.378,0.843-0.843
		c0-0.354-0.22-0.654-0.528-0.779c-0.098-0.039-0.203-0.063-0.314-0.063c-0.466,0-0.844,0.377-0.844,0.843
		C140.887,141.956,140.919,142.072,140.967,142.178z"/>
</g>
</svg>
