<?xml version="1.0" encoding="utf-8"?>
<!-- Generator: Adobe Illustrator 15.1.0, SVG Export Plug-In . SVG Version: 6.00 Build 0)  -->
<!DOCTYPE svg PUBLIC "-//W3C//DTD SVG 1.1//EN" "http://www.w3.org/Graphics/SVG/1.1/DTD/svg11.dtd">
<svg version="1.1" id="Layer_1" xmlns="http://www.w3.org/2000/svg" xmlns:xlink="http://www.w3.org/1999/xlink" x="0px" y="0px"
	 width="283.465px" height="283.465px" viewBox="0 0 283.465 283.465" enable-background="new 0 0 283.465 283.465"
	 xml:space="preserve">
<path d="M28.946,7.087h107.643c21.309,0,37.198,0.89,47.668,2.663c10.471,1.775,19.839,5.482,28.104,11.113
	c8.267,5.633,15.154,13.134,20.666,22.502c5.51,9.368,8.266,19.869,8.266,31.503c0,12.614-3.398,24.187-10.195,34.718
	c-6.796,10.534-16.012,18.434-27.645,23.696c16.409,4.776,29.023,12.922,37.84,24.431c8.817,11.512,13.227,25.046,13.227,40.596
	c0,12.246-2.848,24.156-8.543,35.729c-5.693,11.572-13.473,20.82-23.328,27.737c-9.857,6.919-22.015,11.177-36.463,12.767
	c-9.064,0.981-30.924,1.592-65.578,1.837H28.946V7.087z M83.319,51.907v62.271h35.636c21.186,0,34.35-0.304,39.494-0.919
	c9.305-1.102,16.624-4.316,21.951-9.644s7.991-12.335,7.991-21.032c0-8.328-2.297-15.091-6.889-20.298
	c-4.593-5.205-11.42-8.358-20.482-9.461c-5.391-0.612-20.879-0.918-46.474-0.918H83.319z M83.319,158.999v72.007h50.331
	c19.591,0,32.024-0.551,37.29-1.653c8.082-1.469,14.664-5.051,19.746-10.745c5.08-5.695,7.624-13.318,7.624-22.87
	c0-8.082-1.96-14.94-5.878-20.573c-3.922-5.631-9.583-9.735-16.992-12.308c-7.411-2.571-23.484-3.857-48.219-3.857H83.319z"/>
</svg>
