<?xml version="1.0" encoding="utf-8"?>
<!-- Generator: Adobe Illustrator 15.1.0, SVG Export Plug-In . SVG Version: 6.00 Build 0)  -->
<!DOCTYPE svg PUBLIC "-//W3C//DTD SVG 1.1//EN" "http://www.w3.org/Graphics/SVG/1.1/DTD/svg11.dtd">
<svg version="1.1" id="Layer_1" xmlns="http://www.w3.org/2000/svg" xmlns:xlink="http://www.w3.org/1999/xlink" x="0px" y="0px"
	 width="283.46px" height="283.46px" viewBox="0 0 283.46 283.46" enable-background="new 0 0 283.46 283.46" xml:space="preserve">
<g>
	<path d="M263.721,74.708H134.45c-6.988,0-12.654,7.827-12.654,17.484c0,9.654,5.666,17.482,12.654,17.482h129.271
		c6.989,0,12.654-7.827,12.654-17.482C276.375,82.534,270.71,74.708,263.721,74.708z"/>
	<path d="M134.45,60.135h129.271c6.989,0,12.654-7.828,12.654-17.484s-5.665-17.484-12.654-17.484H134.45
		c-6.988,0-12.654,7.828-12.654,17.484C121.795,52.306,127.461,60.135,134.45,60.135z"/>
	<path d="M264.827,124.247h-65.668h-52.313h-7.101H81.176H21.762c-6.379,0-11.551,7.828-11.551,17.484s5.172,17.484,11.551,17.484
		h59.414h58.567h7.102h52.313h65.668c6.378,0,11.549-7.828,11.549-17.484S271.205,124.247,264.827,124.247z"/>
	<path d="M261.7,223.327h-65.669h-52.313h-7.102H78.049H18.635c-6.38,0-11.551,7.827-11.551,17.483
		c0,9.655,5.171,17.483,11.551,17.483h59.414h58.566h7.103h52.313H261.7c6.378,0,11.549-7.828,11.549-17.483
		C273.249,231.154,268.078,223.326,261.7,223.327z"/>
	<path d="M261.7,173.786h-65.669h-52.313h-7.102H78.049H18.635c-6.38,0-11.551,7.828-11.551,17.483s5.171,17.483,11.551,17.483
		h59.414h58.566h7.103h52.313H261.7c6.378,0,11.549-7.827,11.549-17.483C273.249,181.614,268.078,173.786,261.7,173.786z"/>
	<path d="M23.043,110.749h73.019c7.086,0,12.831-4.982,12.831-11.128V36.295c0-6.146-5.745-11.129-12.831-11.129H23.043
		c-7.087,0-12.832,4.983-12.832,11.129v63.325C10.211,105.766,15.957,110.749,23.043,110.749z"/>
</g>
</svg>
