<?xml version="1.0" encoding="utf-8"?>
<!-- Generator: Adobe Illustrator 15.1.0, SVG Export Plug-In . SVG Version: 6.00 Build 0)  -->
<!DOCTYPE svg PUBLIC "-//W3C//DTD SVG 1.1//EN" "http://www.w3.org/Graphics/SVG/1.1/DTD/svg11.dtd">
<svg version="1.1" id="Layer_2_1_" xmlns="http://www.w3.org/2000/svg" xmlns:xlink="http://www.w3.org/1999/xlink" x="0px" y="0px"
	 width="283.46px" height="283.46px" viewBox="0 0 283.46 283.46" enable-background="new 0 0 283.46 283.46" xml:space="preserve">
<g>
	<path d="M72.801,68.177c28.542,0,53.875,7.012,64.539,17.863c1.112,1.132,2.031,2.293,2.797,3.474
		c-4.148-13.525-32.619-23.972-67.336-23.972c-34.003,0-61.218,10.02-65.203,23.14c0.581-0.888,1.25-1.764,2.03-2.625
		C19.482,75.196,44.278,68.177,72.801,68.177z"/>
	<path d="M211.626,68.177c28.488,0,53.033,7.015,62.527,17.87c0.652,0.746,1.208,1.505,1.709,2.271
		c-3.898-12.94-30.554-22.776-64.236-22.776c-35.096,0-64.201,10.673-68.36,24.413C151.434,77.274,178.617,68.177,211.626,68.177z"
		/>
	<path d="M72.802,73.851c28.542,0,53.875,7.012,64.539,17.863c1.295,1.318,2.348,2.674,3.173,4.059
		c-2.275-14.305-31.619-25.596-67.713-25.596c-35.435,0-63.509,10.88-65.59,24.813c0.659-1.106,1.453-2.194,2.418-3.258
		C19.483,80.87,44.279,73.851,72.802,73.851z"/>
	<path d="M211.626,73.851c28.49,0,53.035,7.015,62.529,17.87c0.807,0.922,1.495,1.861,2.071,2.814
		c-2.116-13.713-29.558-24.358-64.601-24.358c-36.517,0-66.562,11.554-68.754,26.094C150.523,83.256,178.062,73.851,211.626,73.851z
		"/>
	<path d="M140.676,103.431c0.265-15.232-30.125-27.58-67.875-27.58s-67.15,12.348-65.663,27.58l0.451,4.626l10.508,107.685
		c0.075,0.769,0.306,1.496,0.65,2.176c8.026-10.532,31.133-18.047,59.024-18.047c27.892,0,51.601,7.515,60.471,18.047
		c0.291-0.68,0.463-1.407,0.477-2.176l1.875-107.685L140.676,103.431z"/>
	<path d="M211.626,75.851c-37.75,0-68.59,12.348-68.883,27.58l-0.09,4.626l-2.067,107.685c-0.014,0.769,0.132,1.496,0.397,2.176
		c9.256-10.532,33.239-18.047,61.135-18.047c27.887,0,50.719,7.515,58.358,18.047c0.369-0.68,0.627-1.407,0.729-2.176
		l14.446-107.685l0.621-4.626C278.319,88.199,249.373,75.851,211.626,75.851z"/>
</g>
</svg>
