<?xml version="1.0" encoding="utf-8"?>
<!-- Generator: Adobe Illustrator 15.1.0, SVG Export Plug-In . SVG Version: 6.00 Build 0)  -->
<!DOCTYPE svg PUBLIC "-//W3C//DTD SVG 1.1//EN" "http://www.w3.org/Graphics/SVG/1.1/DTD/svg11.dtd">
<svg version="1.1" id="Layer_5" xmlns="http://www.w3.org/2000/svg" xmlns:xlink="http://www.w3.org/1999/xlink" x="0px" y="0px"
	 width="283.465px" height="283.465px" viewBox="0 0 283.465 283.465" enable-background="new 0 0 283.465 283.465"
	 xml:space="preserve">
<g>
	<path d="M205.997,60.995c-9.473,0-17.179-7.244-17.179-16.149V7.111c0-0.008,0.002-0.016,0.002-0.024h-3.588h-1.529h-41.12H44.911
		c-4.973,0-9.002,4.034-9.002,9.005v251.285c0,4.971,4.029,9.001,9.002,9.001h193.646c4.973,0,9-4.03,9-9.001V107.232V75.066v-5.833
		v-2.086v-6.151H205.997z M76.083,54.995h85.411c3.218,0,5.846,2.621,5.846,5.841c0,3.22-2.628,5.84-5.846,5.84H76.085
		c-3.224,0-5.843-2.62-5.842-5.84C70.243,57.615,72.861,54.995,76.083,54.995z M205.723,232.285H79.447
		c-4.141,0-7.499-2.618-7.499-5.844c0-3.225,3.359-5.836,7.499-5.836h126.276c4.137,0,7.498,2.613,7.494,5.836
		C213.217,229.663,209.861,232.285,205.723,232.285z M205.723,189.391H79.447c-4.141,0-7.499-2.615-7.499-5.834
		c0-3.225,3.359-5.84,7.499-5.84h126.276c4.139,0,7.498,2.617,7.494,5.84C213.217,186.777,209.859,189.391,205.723,189.391z
		 M205.723,146.754H79.447c-4.141,0-7.499-2.615-7.499-5.837c0-3.223,3.359-5.84,7.499-5.84h126.276c4.139,0,7.498,2.618,7.494,5.84
		C213.217,144.139,209.859,146.754,205.723,146.754z M205.723,103.91H79.448c-4.141,0-7.499-2.616-7.499-5.836
		c0-3.22,3.359-5.841,7.498-5.84h126.276c4.139,0,7.494,2.618,7.494,5.84C213.217,101.297,209.859,103.91,205.723,103.91z"/>
	<path d="M205.997,52.995h36.382l-45.561-41.367v33.218C196.818,49.339,200.936,52.995,205.997,52.995z"/>
</g>
</svg>
