<?xml version="1.0" encoding="utf-8"?>
<!-- Generator: Adobe Illustrator 15.1.0, SVG Export Plug-In . SVG Version: 6.00 Build 0)  -->
<!DOCTYPE svg PUBLIC "-//W3C//DTD SVG 1.1//EN" "http://www.w3.org/Graphics/SVG/1.1/DTD/svg11.dtd">
<svg version="1.1" id="Layer_2_1_" xmlns="http://www.w3.org/2000/svg" xmlns:xlink="http://www.w3.org/1999/xlink" x="0px" y="0px"
	 width="283.46px" height="283.46px" viewBox="0 0 283.46 283.46" enable-background="new 0 0 283.46 283.46" xml:space="preserve">
<g>
	<path fill="none" d="M102.04,111.57H38.81c-2.84,0-4.944,2.31-4.69,5.15l5.383,60.328c0.253,2.84,2.341,5.15,4.653,5.15h51.487
		c2.312,0,4.434-2.311,4.729-5.15l6.281-60.328C106.948,113.88,104.879,111.57,102.04,111.57z M96.869,177.048
		c-0.047,0.506-0.425,0.916-0.842,0.916h-52.19c-0.417,0-0.789-0.41-0.828-0.916l-4.712-60.329c-0.04-0.506,0.335-0.917,0.835-0.917
		h62.525c0.5,0,0.869,0.412,0.821,0.917L96.869,177.048z"/>
	<polygon fill="none" points="69.205,157.851 62.435,145.632 56.987,155.964 55.538,154.236 44.856,168.751 45.372,176.072 
		58.88,176.072 72.787,176.072 94.52,176.072 95.621,163.148 81.869,137.891 	"/>
	<path fill="none" d="M263.435,151.523c-11.417-7.371-29.372-12.098-49.26-12.967c-20.294-0.881-40.126,2.167-55.816,8.6
		c-1.536,0.631-2.185,2.232-1.45,3.584c0.735,1.35,2.577,1.932,4.113,1.303c30.264-12.406,76.421-10.627,98.778,3.807
		c0.521,0.338,1.121,0.51,1.721,0.531c0.982,0.035,1.966-0.342,2.59-1.086C265.115,154.101,264.812,152.412,263.435,151.523z"/>
	<path fill="none" d="M51.41,137.681c4.641,0,8.313-4.039,8.204-9.021c-0.109-4.982-4.151-9.022-9.028-9.022
		c-4.876,0-8.549,4.04-8.204,9.022C42.727,133.642,46.769,137.681,51.41,137.681z"/>
	<path fill="none" d="M159.17,115.272c-1.537,0.629-2.187,2.234-1.45,3.583c0.735,1.349,2.577,1.933,4.112,1.303
		c30.262-12.407,76.421-10.627,98.777,3.806c0.522,0.336,1.121,0.51,1.722,0.53c0.983,0.035,1.965-0.341,2.59-1.083
		c1.004-1.195,0.701-2.884-0.676-3.772c-8.525-5.505-20.698-9.532-34.597-11.583h-43.082
		C176.659,109.494,167.349,111.918,159.17,115.272z"/>
	<path d="M72.801,68.177c28.542,0,53.875,7.012,64.539,17.863c1.112,1.132,2.031,2.293,2.797,3.474
		c-4.148-13.525-32.619-23.972-67.336-23.972c-34.003,0-61.218,10.02-65.203,23.14c0.581-0.888,1.25-1.764,2.03-2.625
		C19.482,75.196,44.278,68.177,72.801,68.177z"/>
	<path d="M211.626,68.177c28.489,0,53.033,7.015,62.528,17.87c0.652,0.746,1.208,1.505,1.709,2.271
		c-3.899-12.94-30.554-22.776-64.237-22.776c-35.095,0-64.2,10.673-68.36,24.413C151.434,77.274,178.617,68.177,211.626,68.177z"/>
	<path d="M137.341,91.714c1.295,1.318,2.348,2.674,3.173,4.059c-2.275-14.305-31.619-25.596-67.713-25.596
		c-35.435,0-63.509,10.88-65.59,24.813c0.659-1.106,1.453-2.194,2.418-3.258c9.854-10.862,34.65-17.881,63.173-17.881
		C101.344,73.851,126.677,80.863,137.341,91.714z"/>
	<path d="M274.156,91.721c0.807,0.922,1.495,1.861,2.071,2.814c-2.116-13.713-29.557-24.358-64.601-24.358
		c-36.516,0-66.561,11.554-68.754,26.094c7.651-13.015,35.19-22.42,68.755-22.42C240.117,73.851,264.661,80.866,274.156,91.721z"/>
	<path d="M140.676,103.431c0.265-15.232-30.125-27.58-67.875-27.58c-37.75,0-67.15,12.348-65.663,27.58l0.451,4.626l10.508,107.685
		c0.075,0.768,0.306,1.496,0.65,2.176c8.026-10.533,31.133-18.047,59.024-18.047c27.892,0,51.601,7.514,60.471,18.047
		c0.291-0.68,0.463-1.408,0.477-2.176l1.875-107.685L140.676,103.431z M106.652,116.721l-6.281,60.328
		c-0.295,2.84-2.417,5.15-4.729,5.15H44.156c-2.312,0-4.4-2.311-4.653-5.15l-5.383-60.328c-0.254-2.84,1.85-5.15,4.69-5.15h63.229
		C104.879,111.57,106.948,113.88,106.652,116.721z"/>
	<path d="M101.656,115.803H39.131c-0.5,0-0.875,0.411-0.835,0.917l4.712,60.329c0.039,0.506,0.411,0.916,0.828,0.916h52.19
		c0.417,0,0.795-0.41,0.842-0.916l5.609-60.329C102.525,116.215,102.156,115.803,101.656,115.803z M42.382,128.66
		c-0.345-4.982,3.328-9.022,8.204-9.022c4.877,0,8.919,4.04,9.028,9.022c0.109,4.982-3.563,9.021-8.204,9.021
		C46.769,137.681,42.727,133.642,42.382,128.66z M94.52,176.072H72.787H58.88H45.372l-0.516-7.32l10.682-14.516l1.449,1.729
		l5.448-10.332l6.77,12.219l12.664-19.96l13.752,25.257L94.52,176.072z"/>
	<path d="M276.274,103.431c2.045-15.232-26.901-27.58-64.647-27.58c-37.751,0-68.591,12.348-68.884,27.58l-0.089,4.626
		l-2.067,107.685c-0.014,0.768,0.132,1.496,0.397,2.176c9.256-10.533,33.239-18.047,61.135-18.047
		c27.887,0,50.719,7.514,58.358,18.047c0.369-0.68,0.627-1.408,0.729-2.176l14.447-107.685L276.274,103.431z M264.111,155.294
		c-0.624,0.744-1.607,1.121-2.59,1.086c-0.6-0.021-1.199-0.193-1.721-0.531c-22.357-14.434-68.515-16.212-98.778-3.807
		c-1.536,0.629-3.378,0.047-4.113-1.303c-0.734-1.352-0.086-2.953,1.45-3.584c15.69-6.433,35.522-9.481,55.816-8.6
		c19.888,0.869,37.843,5.596,49.26,12.967C264.812,152.412,265.115,154.101,264.111,155.294z M264.246,119.64
		c1.377,0.888,1.68,2.577,0.676,3.772c-0.625,0.742-1.606,1.118-2.59,1.083c-0.601-0.02-1.199-0.194-1.722-0.53
		c-22.356-14.434-68.516-16.213-98.777-3.806c-1.535,0.63-3.377,0.046-4.112-1.303c-0.736-1.349-0.087-2.954,1.45-3.583
		c8.179-3.354,17.488-5.778,27.396-7.215c9.101-1.319,18.703-1.808,28.417-1.386c5.038,0.22,9.95,0.69,14.665,1.386
		C243.547,110.107,255.72,114.134,264.246,119.64z"/>
</g>
</svg>
