<?xml version="1.0" encoding="utf-8"?>
<!-- Generator: Adobe Illustrator 15.1.0, SVG Export Plug-In . SVG Version: 6.00 Build 0)  -->
<!DOCTYPE svg PUBLIC "-//W3C//DTD SVG 1.1//EN" "http://www.w3.org/Graphics/SVG/1.1/DTD/svg11.dtd">
<svg version="1.1" id="Layer_1" xmlns="http://www.w3.org/2000/svg" xmlns:xlink="http://www.w3.org/1999/xlink" x="0px" y="0px"
	 width="283.46px" height="283.46px" viewBox="0 0 283.46 283.46" enable-background="new 0 0 283.46 283.46" xml:space="preserve">
<g>
	<path d="M267.787,18.288H15.675c-4.745,0-8.591,3.847-8.591,8.592v96.099c0,4.745,3.846,8.592,8.591,8.592h252.112
		c4.742,0,8.59-3.847,8.59-8.592V26.879C276.376,22.135,272.529,18.288,267.787,18.288z M153.446,97.354H25.993
		c-2.796,0-5.063-3.374-5.063-7.534c0-4.161,2.267-7.534,5.063-7.534h127.453c2.796,0,5.063,3.373,5.063,7.534
		C158.509,93.979,156.242,97.354,153.446,97.354z M235.884,59.206H29.143c-4.534,0-8.212-3.373-8.212-7.534
		c0-4.161,3.678-7.534,8.212-7.534h206.741c4.535,0,8.212,3.373,8.212,7.534C244.096,55.833,240.419,59.206,235.884,59.206z"/>
	<path d="M267.787,151.89H15.675c-4.745,0-8.591,3.846-8.591,8.592v96.1c0,4.746,3.846,8.592,8.591,8.592h252.112
		c4.742,0,8.59-3.846,8.59-8.592v-96.1C276.376,155.736,272.529,151.89,267.787,151.89z M153.446,230.957H25.993
		c-2.796,0-5.063-3.373-5.063-7.533c0-4.162,2.267-7.535,5.063-7.535h127.453c2.796,0,5.063,3.373,5.063,7.535
		C158.509,227.583,156.242,230.957,153.446,230.957z M235.884,192.808H29.143c-4.534,0-8.212-3.373-8.212-7.535
		c0-4.16,3.678-7.533,8.212-7.533h206.741c4.535,0,8.212,3.373,8.212,7.533C244.096,189.435,240.419,192.808,235.884,192.808z"/>
</g>
</svg>
