<?xml version="1.0" encoding="utf-8"?>
<!-- Generator: Adobe Illustrator 15.1.0, SVG Export Plug-In . SVG Version: 6.00 Build 0)  -->
<!DOCTYPE svg PUBLIC "-//W3C//DTD SVG 1.1//EN" "http://www.w3.org/Graphics/SVG/1.1/DTD/svg11.dtd">
<svg version="1.1" id="Layer_4" xmlns="http://www.w3.org/2000/svg" xmlns:xlink="http://www.w3.org/1999/xlink" x="0px" y="0px"
	 width="283.46px" height="283.46px" viewBox="0 0 283.46 283.46" enable-background="new 0 0 283.46 283.46" xml:space="preserve">
<g>
	<path d="M75.301,203.546c-29.062,0-55.181,7.513-65.216,18.72v1.795v1.985c13.154-10.174,37.677-16.514,65.217-16.514
		c27.539,0,52.06,6.34,65.215,16.514v-1.985v-1.793C130.481,211.06,104.363,203.546,75.301,203.546z"/>
	<path d="M208.06,203.546c-29.107,0-55.268,7.513-65.316,18.72v1.795v1.985c13.174-10.174,37.733-16.514,65.317-16.514
		c27.58,0,52.14,6.342,65.313,16.514v-1.984v-1.794C263.326,211.06,237.167,203.546,208.06,203.546z"/>
	<path d="M75.301,212.044c-29.062,0-55.181,7.514-65.216,18.721v1.795v1.984c13.154-10.172,37.677-16.515,65.217-16.515
		c27.539,0,52.06,6.343,65.215,16.515v-1.984v-1.793C130.481,219.559,104.363,212.044,75.301,212.044z"/>
	<path d="M208.06,212.044c-29.107,0-55.268,7.514-65.316,18.721v1.795v1.984c13.174-10.172,37.733-16.515,65.317-16.515
		c27.58,0,52.14,6.343,65.313,16.517v-1.985v-1.794C263.326,219.559,237.167,212.044,208.06,212.044z"/>
	<path d="M73.891,62.884c-36.896,0-66.807,13.707-66.807,30.614v124.664c0,0.853,0.178,1.662,0.487,2.414
		c9.943-11.688,35.884-20.029,66.32-20.029s56.374,8.341,66.318,20.029c0.31-0.752,0.487-1.563,0.487-2.414V93.498
		C140.697,76.59,110.786,62.884,73.891,62.884z M124.854,183.768c-0.271,0.504-0.788,0.79-1.323,0.79
		c-0.24,0-0.483-0.058-0.708-0.179c-37.652-20.236-64.329-20.843-98.425-2.235c-0.729,0.398-1.639,0.13-2.036-0.598
		s-0.129-1.639,0.598-2.035c34.688-18.928,63.086-18.303,101.283,2.226C124.972,182.129,125.246,183.039,124.854,183.768z
		 M22.961,159.667c34.688-18.919,63.083-18.296,101.281,2.226c0.729,0.392,1.003,1.302,0.611,2.031
		c-0.271,0.504-0.788,0.79-1.323,0.79c-0.239,0-0.482-0.058-0.708-0.179c-37.652-20.228-64.327-20.832-98.425-2.235
		c-0.728,0.399-1.638,0.13-2.035-0.599C21.966,160.975,22.234,160.064,22.961,159.667z M124.854,144.09
		c-0.271,0.504-0.788,0.79-1.323,0.79c-0.24,0-0.483-0.058-0.708-0.179c-37.651-20.233-64.328-20.839-98.429-2.234
		c-0.728,0.398-1.638,0.13-2.035-0.598c-0.396-0.727-0.129-1.638,0.599-2.035c34.689-18.927,63.088-18.302,101.286,2.225
		C124.972,142.452,125.246,143.361,124.854,144.09z M124.854,124.25c-0.271,0.504-0.788,0.791-1.323,0.791
		c-0.24,0-0.483-0.058-0.708-0.179c-37.652-20.237-64.327-20.842-98.426-2.235c-0.727,0.397-1.639,0.129-2.035-0.599
		c-0.396-0.727-0.129-1.638,0.599-2.035c34.688-18.927,63.085-18.303,101.282,2.227C124.972,122.611,125.246,123.521,124.854,124.25
		z M124.854,104.407c-0.271,0.504-0.788,0.791-1.323,0.791c-0.24,0-0.483-0.058-0.708-0.179
		c-37.652-20.236-64.327-20.842-98.426-2.235c-0.727,0.397-1.639,0.129-2.035-0.599c-0.396-0.727-0.129-1.638,0.599-2.035
		c34.688-18.927,63.085-18.303,101.282,2.227C124.972,102.768,125.246,103.677,124.854,104.407z"/>
	<path d="M209.573,62.884c-36.896,0-66.807,13.707-66.807,30.614v124.664c0,0.853,0.177,1.662,0.487,2.414
		c9.94-11.688,35.883-20.029,66.316-20.029s56.371,8.341,66.315,20.029c0.31-0.752,0.485-1.563,0.485-2.414V93.498
		C276.376,76.59,246.464,62.884,209.573,62.884z M159.023,100.149c34.688-18.927,63.085-18.302,101.282,2.227
		c0.729,0.392,1.004,1.302,0.611,2.031c-0.271,0.504-0.788,0.791-1.322,0.791c-0.24,0-0.483-0.058-0.709-0.179
		c-37.649-20.236-64.325-20.843-98.425-2.235c-0.728,0.397-1.638,0.13-2.035-0.599C158.028,101.457,158.296,100.546,159.023,100.149
		z M159.023,119.992c34.688-18.927,63.085-18.302,101.282,2.227c0.729,0.392,1.004,1.302,0.611,2.031
		c-0.271,0.504-0.788,0.791-1.322,0.791c-0.24,0-0.483-0.058-0.709-0.179c-37.649-20.236-64.325-20.843-98.425-2.235
		c-0.728,0.397-1.638,0.13-2.035-0.599C158.028,121.3,158.296,120.389,159.023,119.992z M159.019,139.834
		c34.692-18.928,63.089-18.302,101.286,2.225c0.729,0.393,1.004,1.302,0.611,2.031c-0.271,0.504-0.788,0.79-1.322,0.79
		c-0.24,0-0.483-0.058-0.709-0.179c-37.65-20.233-64.328-20.839-98.429-2.234c-0.727,0.399-1.64,0.13-2.035-0.598
		C158.024,141.142,158.292,140.231,159.019,139.834z M260.917,183.768c-0.271,0.504-0.788,0.79-1.322,0.79
		c-0.24,0-0.483-0.058-0.709-0.179c-37.654-20.236-64.328-20.84-98.426-2.235c-0.728,0.398-1.638,0.131-2.035-0.598
		c-0.397-0.728-0.129-1.639,0.598-2.035c34.685-18.928,63.084-18.306,101.283,2.226C261.036,182.129,261.31,183.039,260.917,183.768
		z M260.917,163.924c-0.271,0.504-0.788,0.79-1.322,0.79c-0.24,0-0.483-0.058-0.709-0.179
		c-37.649-20.226-64.325-20.833-98.427-2.235c-0.724,0.399-1.638,0.131-2.034-0.599c-0.397-0.727-0.129-1.638,0.599-2.034
		c34.688-18.92,63.084-18.293,101.282,2.226C261.036,162.285,261.31,163.195,260.917,163.924z"/>
</g>
</svg>
