<?xml version="1.0" encoding="utf-8"?>
<!-- Generator: Adobe Illustrator 15.1.0, SVG Export Plug-In . SVG Version: 6.00 Build 0)  -->
<!DOCTYPE svg PUBLIC "-//W3C//DTD SVG 1.1//EN" "http://www.w3.org/Graphics/SVG/1.1/DTD/svg11.dtd">
<svg version="1.1" id="Layer_4" xmlns="http://www.w3.org/2000/svg" xmlns:xlink="http://www.w3.org/1999/xlink" x="0px" y="0px"
	 width="229.572px" height="283.464px" viewBox="0 0 229.572 283.464" enable-background="new 0 0 229.572 283.464"
	 xml:space="preserve">
<g>
	<path fill="none" d="M118.393,142.379c-3.653,3.139-9.522,6.149-18.668,6.149c-0.454,0-0.927-0.024-1.392-0.041v2.504
		c0.281,0.008,0.565,0.024,0.845,0.024c10.435,0,16.719-4.706,19.215-7.323V142.379z"/>
	<path fill="none" d="M98.333,165.311c0.283,0.008,0.571,0.023,0.849,0.023c10.434,0,16.715-4.703,19.211-7.323v-1.313
		c-3.653,3.14-9.521,6.149-18.668,6.149c-0.454,0-0.927-0.024-1.392-0.041V165.311z"/>
	<path fill="none" d="M117.404,118.427l-57.47-32.514c-1.351,2.537-4.117,6.262-8.077,8.782c-1.925,1.225-4.337,2.197-6.782,2.963
		l49.997,28.866C110.545,129.554,115.712,123.406,117.404,118.427z"/>
	<path fill="none" d="M98.311,232.511v2.505c0.291,0.006,0.586,0.023,0.873,0.023c12.88,0,19.438-7.169,20.347-8.733v-0.926
		c-3.527,3.473-9.663,7.176-19.799,7.176C99.268,232.556,98.786,232.529,98.311,232.511z"/>
	<path fill="none" d="M124.325,164.96v2.501c0.276,0.008,0.557,0.024,0.828,0.024c10.438,0,16.717-4.7,19.209-7.321v-1.31
		c-3.65,3.137-9.519,6.146-18.658,6.146C125.255,165.001,124.784,164.974,124.325,164.96z"/>
	<path fill="none" d="M71.182,247.463v2.504c0.667,0.038,1.331,0.057,1.982,0.057c12.877,0,19.438-7.168,20.351-8.733v-0.927
		c-3.525,3.472-9.663,7.174-19.804,7.174C72.885,247.538,72.041,247.512,71.182,247.463z"/>
	<path fill="none" d="M144.325,48.426c-0.234,0.238-0.429,0.517-0.504,0.867c-0.111,0.502-0.267,1.035-0.447,1.578l-57.47-32.515
		c-1.354,2.538-4.121,6.265-8.077,8.784c-1.93,1.226-4.348,2.199-6.796,2.967l49.984,28.858l1.324,0.764
		c2.219,0.401,4.336,0.625,6.277,0.625C140.325,60.355,143.945,53.224,144.325,48.426z"/>
	<path fill="none" d="M68.438,49.153l38.987,22.51c0.288,0.166,0.603,0.245,0.914,0.245c0.632,0,1.246-0.328,1.586-0.915
		c0.504-0.875,0.206-1.994-0.67-2.5l-38.988-22.51c-0.874-0.503-1.993-0.207-2.5,0.67C67.264,47.529,67.562,48.648,68.438,49.153z"
		/>
	<path fill="none" d="M124.304,95.252v2.502c0.281,0.007,0.568,0.024,0.849,0.024c10.436,0,16.719-4.702,19.211-7.321v-1.312
		c-3.652,3.137-9.521,6.146-18.664,6.146C125.243,95.293,124.77,95.267,124.304,95.252z"/>
	<path fill="none" d="M57.27,151.031l-38.987-22.51c-0.874-0.503-1.991-0.205-2.5,0.67c-0.504,0.875-0.205,1.994,0.67,2.5
		l38.986,22.51c0.288,0.166,0.603,0.244,0.913,0.244c0.632,0,1.247-0.328,1.586-0.913C58.446,152.657,58.145,151.537,57.27,151.031z
		"/>
	<path fill="none" d="M92.377,157.365c-3.652,3.138-9.519,6.146-18.66,6.146c-0.456,0-0.93-0.026-1.396-0.041v2.502
		c0.282,0.009,0.57,0.024,0.851,0.024c10.43,0,16.71-4.701,19.206-7.318V157.365z"/>
	<path fill="none" d="M91.388,133.408L33.92,100.895c-1.351,2.536-4.117,6.261-8.077,8.782c-1.929,1.226-4.347,2.2-6.796,2.967
		l49.982,28.857C84.534,144.544,89.701,138.389,91.388,133.408z"/>
	<path fill="none" d="M72.321,180.292c0.28,0.009,0.566,0.024,0.846,0.024c10.432,0,16.716-4.703,19.211-7.32v-1.315
		c-3.654,3.138-9.521,6.148-18.667,6.148c-0.454,0-0.926-0.023-1.391-0.041L72.321,180.292L72.321,180.292z"/>
	<path fill="none" d="M150.294,120.953c0.283,0.007,0.568,0.025,0.85,0.025c10.431,0,16.715-4.703,19.211-7.323v-1.31
		c-3.653,3.137-9.52,6.146-18.666,6.146c-0.452,0-0.926-0.026-1.395-0.041V120.953z"/>
	<path fill="none" d="M195.356,73.383l-45.062-25.495v20.479l22.703,13.107C188.511,84.52,193.671,78.363,195.356,73.383z"/>
	<path fill="none" d="M196.349,97.336c-3.653,3.137-9.522,6.149-18.664,6.149c-0.457,0-0.93-0.026-1.397-0.041v2.502
		c0.283,0.007,0.567,0.024,0.848,0.024c10.438,0,16.719-4.703,19.215-7.324L196.349,97.336L196.349,97.336z"/>
	<path fill="none" d="M176.286,187.468v2.501c0.285,0.01,0.574,0.024,0.854,0.024c12.875,0,19.437-7.165,20.347-8.731v-0.927
		c-3.525,3.473-9.662,7.174-19.8,7.174C177.229,187.509,176.755,187.483,176.286,187.468z"/>
	<path fill="none" d="M176.286,120.265c0.283,0.007,0.569,0.024,0.852,0.024c10.435,0,16.715-4.703,19.211-7.324v-1.312
		c-3.653,3.137-9.52,6.149-18.664,6.149c-0.457,0-0.93-0.025-1.397-0.041L176.286,120.265L176.286,120.265z"/>
	<path fill="none" d="M124.304,80.934v2.502c0.281,0.007,0.568,0.024,0.849,0.024c10.434,0,16.717-4.702,19.211-7.321v-1.312
		c-3.652,3.137-9.521,6.146-18.664,6.146C125.243,80.975,124.77,80.949,124.304,80.934z"/>
	<path fill="none" d="M202.281,172.488v2.504c0.289,0.006,0.582,0.024,0.866,0.024c12.882,0,19.439-7.17,20.353-8.734v-0.927
		c-3.527,3.474-9.662,7.174-19.805,7.174C203.236,172.529,202.753,172.501,202.281,172.488z"/>
	<path fill="none" d="M221.372,58.399L163.909,25.89c-1.31,2.49-3.988,6.174-8.082,8.778c-1.926,1.225-4.336,2.197-6.779,2.963
		l49.998,28.866C214.538,69.527,219.69,63.378,221.372,58.399z"/>
	<path fill="none" d="M202.302,105.283c0.283,0.007,0.568,0.024,0.851,0.024c10.434,0,16.715-4.703,19.211-7.323v-1.309
		c-3.654,3.137-9.521,6.146-18.666,6.146c-0.453,0-0.927-0.026-1.396-0.041V105.283z"/>
	<path fill="none" d="M149.159,202.443v2.504c0.668,0.038,1.334,0.058,1.985,0.058c12.875,0,19.437-7.169,20.347-8.734v-0.925
		c-3.523,3.473-9.658,7.175-19.8,7.175C150.866,202.519,150.02,202.492,149.159,202.443z"/>
	<path fill="none" d="M150.294,135.271c0.283,0.007,0.568,0.025,0.85,0.025c10.435,0,16.715-4.703,19.211-7.323v-1.31
		c-3.653,3.137-9.52,6.146-18.666,6.146c-0.452,0-0.926-0.026-1.395-0.041V135.271z"/>
	<path fill="none" d="M222.363,82.356c-3.654,3.139-9.521,6.148-18.666,6.148c-0.453,0-0.927-0.026-1.396-0.041v2.502
		c0.283,0.007,0.568,0.025,0.851,0.025c10.434,0,16.715-4.703,19.211-7.324V82.356z"/>
	<path fill="none" d="M169.365,88.388l-19.07-10.79V97.01C163.253,98.612,167.802,93.001,169.365,88.388z"/>
	<path d="M228.087,54.072c-0.029-0.082-0.063-0.159-0.098-0.238c-0.146-0.305-0.324-0.593-0.563-0.833
		c-0.002-0.004-0.008-0.005-0.014-0.011c-0.181-0.177-0.377-0.333-0.603-0.462l-64.977-37.516c-0.92-0.53-2.051-0.53-2.969,0
		c-0.916,0.53-1.482,1.508-1.482,2.569v11.065c-0.979,1.029-2.135,2.053-3.518,2.934c-2.482,1.578-6.043,2.709-9.269,3.482
		l-8.781-5.069c-0.918-0.53-2.049-0.53-2.969,0c-0.916,0.53-1.479,1.509-1.479,2.569v2.364L83.831,7.484
		c-0.916-0.53-2.05-0.53-2.966,0c-0.919,0.53-1.484,1.509-1.484,2.569v11.066c-0.981,1.029-2.135,2.052-3.519,2.933
		c-2.483,1.581-6.051,2.712-9.281,3.485l-8.743-5.047c-0.916-0.53-2.05-0.53-2.966,0c-0.919,0.53-1.484,1.509-1.484,2.569v4.475
		l-0.126,0.014l0.126,0.073v59.077c-0.976,1.022-2.125,2.036-3.496,2.909c-2.479,1.578-6.039,2.709-9.266,3.482l-8.78-5.068
		c-0.916-0.53-2.049-0.53-2.966,0c-0.918,0.53-1.484,1.509-1.484,2.569v4.5l-0.104,0.012l0.104,0.061v6.492
		c-0.98,1.031-2.135,2.053-3.519,2.934c-2.483,1.581-6.05,2.711-9.281,3.486l-8.743-5.048c-0.916-0.53-2.05-0.53-2.966,0
		c-0.919,0.53-1.483,1.509-1.483,2.569v4.475l-0.126,0.013l0.126,0.074v122.993c0,1.062,0.564,2.039,1.483,2.569l64.937,37.488
		c0.002,0.003,0.005,0.003,0.008,0.005l0.038,0.021c0.265,0.154,0.549,0.25,0.84,0.313c0.03,0.009,0.053,0.027,0.083,0.032
		c2.753,0.529,5.393,0.797,7.842,0.797c13.636,0,19.811-8.225,21.297-15.313c1.625,0.197,3.216,0.334,4.716,0.334
		c15.906,0,21.679-11.191,21.679-18.717v-24.889l21.52,12.424c0.267,0.154,0.551,0.25,0.842,0.313
		c0.031,0.008,0.054,0.027,0.082,0.032c2.754,0.529,5.392,0.797,7.84,0.797c13.652,0,19.824-8.242,21.304-15.335
		c1.617,0.194,3.199,0.329,4.69,0.329c13.64,0,19.812-8.228,21.297-15.316c1.628,0.198,3.218,0.334,4.718,0.334
		c15.905,0,21.678-11.194,21.678-18.719V55.097C228.294,54.738,228.206,54.399,228.087,54.072z M67.767,46.653
		c0.507-0.876,1.626-1.173,2.5-0.67l38.987,22.511c0.875,0.505,1.174,1.624,0.67,2.5c-0.34,0.587-0.954,0.915-1.586,0.915
		c-0.312,0-0.625-0.079-0.914-0.245L68.438,49.153C67.562,48.648,67.264,47.529,67.767,46.653z M57.94,153.532
		c-0.34,0.585-0.953,0.913-1.586,0.913c-0.311,0-0.625-0.078-0.913-0.244l-38.986-22.51c-0.875-0.506-1.175-1.625-0.67-2.5
		c0.508-0.875,1.625-1.173,2.5-0.67l38.987,22.51C58.145,151.537,58.446,152.657,57.94,153.532z M19.047,112.644
		c2.449-0.768,4.868-1.741,6.796-2.967c3.959-2.521,6.727-6.246,8.077-8.782l57.468,32.513c-1.687,4.981-6.854,11.137-22.357,8.093
		L19.047,112.644z M73.171,165.997c-0.28,0-0.568-0.017-0.851-0.023v-2.503c0.468,0.015,0.941,0.041,1.396,0.041
		c9.142,0,15.007-3.009,18.66-6.146v1.313C89.881,161.294,83.6,165.997,73.171,165.997z M92.377,171.679v1.316
		c-2.496,2.617-8.779,7.32-19.211,7.32c-0.279,0-0.564-0.017-0.846-0.024v-2.504c0.465,0.017,0.937,0.041,1.391,0.041
		C82.855,177.83,88.723,174.818,92.377,171.679z M93.515,241.291c-0.912,1.565-7.473,8.733-20.351,8.733
		c-0.651,0-1.314-0.019-1.982-0.057v-2.504c0.859,0.049,1.703,0.073,2.528,0.073c10.142,0,16.278-3.702,19.804-7.175L93.515,241.291
		L93.515,241.291z M95.073,126.524L45.075,97.658c2.444-0.767,4.857-1.739,6.782-2.963c3.959-2.52,6.727-6.246,8.077-8.782
		l57.47,32.515C115.712,123.406,110.545,129.554,95.073,126.524z M99.179,151.017c-0.279,0-0.563-0.018-0.845-0.024v-2.504
		c0.465,0.017,0.938,0.041,1.392,0.041c9.146,0,15.016-3.012,18.668-6.149v1.313C115.897,146.311,109.613,151.017,99.179,151.017z
		 M118.393,156.699v1.313c-2.496,2.62-8.777,7.323-19.211,7.323c-0.277,0-0.565-0.017-0.849-0.023v-2.504
		c0.465,0.017,0.938,0.041,1.392,0.041C108.871,162.848,114.74,159.837,118.393,156.699z M119.531,226.306
		c-0.908,1.564-7.467,8.733-20.347,8.733c-0.287,0-0.582-0.02-0.873-0.023v-2.505c0.476,0.018,0.957,0.045,1.42,0.045
		c10.137,0,16.271-3.703,19.799-7.176L119.531,226.306L119.531,226.306z M121.016,58.965L71.031,30.107
		c2.449-0.768,4.867-1.741,6.796-2.967c3.956-2.519,6.724-6.246,8.077-8.784l57.47,32.515c0.182-0.543,0.336-1.076,0.447-1.578
		c0.075-0.351,0.27-0.629,0.504-0.867c-0.381,4.798-4,11.929-15.707,11.929c-1.941,0-4.06-0.224-6.277-0.625L121.016,58.965z
		 M144.363,160.165c-2.492,2.621-8.771,7.321-19.209,7.321c-0.271,0-0.552-0.018-0.828-0.024v-2.501
		c0.459,0.015,0.93,0.041,1.379,0.041c9.141,0,15.008-3.01,18.658-6.146V160.165z M144.363,90.458
		c-2.492,2.619-8.775,7.321-19.211,7.321c-0.279,0-0.566-0.018-0.849-0.024v-2.503c0.467,0.015,0.939,0.041,1.396,0.041
		c9.145,0,15.012-3.009,18.664-6.146V90.458z M144.363,76.14c-2.494,2.619-8.777,7.321-19.211,7.321
		c-0.279,0-0.566-0.018-0.849-0.024v-2.502c0.467,0.015,0.939,0.041,1.396,0.041c9.145,0,15.012-3.009,18.664-6.146V76.14z
		 M203.152,90.99c-0.281,0-0.566-0.018-0.851-0.025v-2.502c0.469,0.015,0.941,0.041,1.396,0.041c9.146,0,15.012-3.009,18.666-6.148
		v1.311C219.866,86.287,213.585,90.99,203.152,90.99z M222.363,96.675v1.309c-2.496,2.621-8.777,7.323-19.211,7.323
		c-0.281,0-0.566-0.018-0.851-0.024v-2.502c0.469,0.015,0.941,0.041,1.396,0.041C212.843,102.822,218.708,99.813,222.363,96.675z
		 M171.491,196.269c-0.91,1.565-7.472,8.734-20.347,8.734c-0.651,0-1.317-0.02-1.985-0.058v-2.504
		c0.86,0.049,1.707,0.076,2.532,0.076c10.142,0,16.275-3.702,19.8-7.175V196.269z M151.688,118.491
		c9.146,0,15.013-3.009,18.666-6.146v1.31c-2.496,2.62-8.78,7.323-19.211,7.323c-0.28,0-0.565-0.018-0.85-0.025v-2.502
		C150.763,118.465,151.236,118.491,151.688,118.491z M150.294,97.01V77.598l19.07,10.79
		C167.802,93.001,163.253,98.612,150.294,97.01z M151.688,132.81c9.146,0,15.013-3.009,18.666-6.146v1.31
		c-2.496,2.62-8.776,7.323-19.211,7.323c-0.28,0-0.565-0.018-0.85-0.025v-2.502C150.763,132.784,151.236,132.81,151.688,132.81z
		 M172.997,81.474l-22.703-13.108V47.887l45.063,25.496C193.671,78.363,188.511,84.52,172.997,81.474z M177.134,105.971
		c-0.279,0-0.563-0.018-0.848-0.024v-2.502c0.469,0.015,0.94,0.041,1.397,0.041c9.142,0,15.011-3.012,18.664-6.149v1.312
		C193.852,101.268,187.572,105.971,177.134,105.971z M196.349,111.654v1.312c-2.496,2.621-8.776,7.324-19.211,7.324
		c-0.281,0-0.567-0.018-0.852-0.024v-2.502c0.469,0.015,0.94,0.041,1.397,0.041C186.829,117.803,192.695,114.792,196.349,111.654z
		 M197.486,181.262c-0.91,1.566-7.472,8.731-20.347,8.731c-0.278,0-0.567-0.016-0.854-0.024v-2.501
		c0.469,0.015,0.942,0.041,1.399,0.041c10.138,0,16.273-3.701,19.8-7.174L197.486,181.262L197.486,181.262z M199.046,66.497
		l-49.998-28.866c2.443-0.767,4.854-1.739,6.779-2.963c4.094-2.604,6.772-6.288,8.082-8.778l57.463,32.509
		C219.69,63.378,214.538,69.527,199.046,66.497z M223.499,166.282c-0.912,1.564-7.471,8.734-20.353,8.734
		c-0.284,0-0.577-0.02-0.866-0.024v-2.504c0.473,0.014,0.955,0.041,1.414,0.041c10.143,0,16.276-3.7,19.805-7.174V166.282
		L223.499,166.282z"/>
</g>
</svg>
