<?xml version="1.0" encoding="utf-8"?>
<!-- Generator: Adobe Illustrator 15.1.0, SVG Export Plug-In . SVG Version: 6.00 Build 0)  -->
<!DOCTYPE svg PUBLIC "-//W3C//DTD SVG 1.0//EN" "http://www.w3.org/TR/2001/REC-SVG-20010904/DTD/svg10.dtd">
<svg version="1.0" id="Layer_1" xmlns="http://www.w3.org/2000/svg" xmlns:xlink="http://www.w3.org/1999/xlink" x="0px" y="0px"
	 width="283.465px" height="283.465px" viewBox="0 0 283.465 283.465" enable-background="new 0 0 283.465 283.465"
	 xml:space="preserve">
<g>
	<path d="M272.977,98.417c-0.59-0.966-1.488-1.677-2.519-2.04v5.968l-66.187,122.875H16.114v-37.865c0,0,160.66,0,184.494,0
		c3.547,0,6.789-1.965,8.42-5.109c10.115-19.439,46.365-89.128,61.271-117.79c1.369-2.643,1.27-5.805-0.27-8.353
		c-1.551-2.539-4.305-4.095-7.287-4.095c-27.406,0-157.938,0-176.744,0c-3.561,0-6.833,1.985-8.479,5.147L10.285,186.416
		c-0.321,0.615-0.489,1.305-0.489,2.01c0,3.68,0,31.955,0,38.635c0,1.17,0.463,2.285,1.291,3.108
		c0.824,0.825,1.942,1.288,3.113,1.288c20.12,0,173.967,0,189.616,0c1.567,0,3.009-0.87,3.736-2.266
		c7.827-15.055,52.428-100.792,65.575-126.071C273.9,101.634,273.848,99.849,272.977,98.417z"/>
	<path d="M271.041,76.149c-0.076-0.256-0.247-0.467-0.48-0.594c-0.467-0.256-1.103-0.068-1.357,0.4l-65.966,121.432H20.083
		c-0.551,0-1,0.448-1,1s0.449,1,1,1h183.749c0.154,0,0.31-0.04,0.461-0.119l0.104-0.066c0.085-0.06,0.16-0.131,0.224-0.214
		l0.044-0.038l66.297-122.04C271.089,76.676,271.117,76.405,271.041,76.149z"/>
	<path d="M271.041,84.653c-0.076-0.256-0.247-0.467-0.482-0.595c-0.466-0.254-1.103-0.065-1.355,0.401l-65.966,121.432H20.083
		c-0.551,0-1,0.448-1,1s0.449,1,1,1h183.749c0.154,0,0.31-0.04,0.461-0.119l0.104-0.066c0.085-0.06,0.16-0.131,0.224-0.214
		l0.044-0.038l66.297-122.04C271.089,85.18,271.117,84.909,271.041,84.653z"/>
	<path d="M270.561,92.563c-0.467-0.255-1.104-0.067-1.357,0.4l-65.966,121.432H20.083c-0.551,0-1,0.448-1,1s0.449,1,1,1h183.749
		c0.154,0,0.31-0.04,0.461-0.119l0.104-0.066c0.085-0.06,0.16-0.131,0.224-0.214l0.044-0.038l66.297-122.04
		c0.128-0.235,0.156-0.505,0.08-0.762C270.965,92.901,270.794,92.689,270.561,92.563z"/>
</g>
</svg>
