<?xml version="1.0" encoding="utf-8"?>
<!-- Generator: Adobe Illustrator 15.1.0, SVG Export Plug-In . SVG Version: 6.00 Build 0)  -->
<!DOCTYPE svg PUBLIC "-//W3C//DTD SVG 1.1//EN" "http://www.w3.org/Graphics/SVG/1.1/DTD/svg11.dtd">
<svg version="1.1" id="Layer_2" xmlns="http://www.w3.org/2000/svg" xmlns:xlink="http://www.w3.org/1999/xlink" x="0px" y="0px"
	 width="283.465px" height="283.465px" viewBox="0 0 283.465 283.465" enable-background="new 0 0 283.465 283.465"
	 xml:space="preserve">
<g>
	<path d="M142.79,146.732h-23.983v37.57h25.038c16.367,0,25.037-6.564,25.037-18.902C168.882,153.061,159.97,146.732,142.79,146.732
		z"/>
	<path d="M163.534,115.569c0-10.598-7.455-16.451-20.582-16.451h-24.146v34.09h20.338
		C154.864,133.208,163.534,126.881,163.534,115.569z"/>
	<path d="M251.405,109.454c-4.57-14.803-5.203-32.958-4.717-46.973c0.51-14.59-10.857-28.044-26.225-28.044H63.018
		c-15.365,0-26.733,13.454-26.226,28.044c0.489,14.015-0.145,32.17-4.715,46.973c-4.582,14.85-12.332,24.235-24.99,25.441v13.675
		c12.659,1.205,20.408,10.592,24.99,25.439c4.57,14.805,5.204,32.957,4.717,46.975c-0.51,14.59,10.858,28.043,26.224,28.043h157.448
		c15.365,0,26.732-13.453,26.225-28.043c-0.486-14.018,0.146-32.17,4.715-46.975c4.584-14.85,12.313-24.234,24.973-25.439v-13.675
		C263.718,133.689,255.989,124.303,251.405,109.454z M147.571,198.777h-46.917V84.643h46.675c20.743,0,34.355,11.232,34.355,28.475
		c0,12.102-9.156,22.938-20.824,24.836v0.633c15.881,1.74,26.577,12.734,26.577,27.919
		C187.438,186.596,172.447,198.777,147.571,198.777z"/>
</g>
</svg>
