<?xml version="1.0" encoding="utf-8"?>
<!-- Generator: Adobe Illustrator 15.1.0, SVG Export Plug-In . SVG Version: 6.00 Build 0)  -->
<!DOCTYPE svg PUBLIC "-//W3C//DTD SVG 1.1//EN" "http://www.w3.org/Graphics/SVG/1.1/DTD/svg11.dtd">
<svg version="1.1" id="Layer_2" xmlns="http://www.w3.org/2000/svg" xmlns:xlink="http://www.w3.org/1999/xlink" x="0px" y="0px"
	 width="283.46px" height="283.46px" viewBox="0 0 283.46 283.46" enable-background="new 0 0 283.46 283.46" xml:space="preserve">
<g>
	<polygon fill="none" points="157.983,81.186 157.983,86.895 164.263,81.186 	"/>
	<path fill="none" d="M125.049,81.186h-3.921c1.214,1.251,2.541,2.619,3.921,4.042V81.186z"/>
	<path d="M157.983,86.895v19.744l68.07,27.481c0.069,0.028,0.131,0.068,0.195,0.102c0.069,0.035,0.138,0.064,0.204,0.106
		c0.067,0.043,0.127,0.096,0.188,0.147c0.229,0.015,0.455,0.055,0.677,0.117l25.276-24.843l-69.207-28.564h-19.124L157.983,86.895z"
		/>
	<path d="M121.128,81.186H99.568l-68.702,27.735l24.582,25.699c0.215-0.207,0.47-0.379,0.761-0.499l68.841-27.913V85.228
		C123.669,83.805,122.342,82.438,121.128,81.186z"/>
	<polygon points="218.705,136.381 157.983,111.867 157.983,156.033 143.655,156.033 143.719,168.364 	"/>
	<polygon points="125.049,111.44 63.443,136.421 138.873,168.455 138.808,156.033 125.049,156.033 	"/>
	<path d="M222.723,178.619l-51.136,21.813c-0.296,0.127-0.601,0.219-0.905,0.283l-0.604,0.258c-0.003,0.002-0.005,0.002-0.008,0.004
		c-0.121,0.049-0.246,0.084-0.373,0.115c-0.032,0.008-0.063,0.023-0.095,0.027c-0.017,0.006-0.036,0.004-0.052,0.006
		c-0.142,0.027-0.281,0.043-0.423,0.043c-0.004,0-0.007,0-0.01,0c-0.203-0.002-0.405-0.037-0.606-0.09
		c-0.045-0.012-0.09-0.025-0.137-0.039c-0.194-0.063-0.383-0.145-0.56-0.258c-0.015-0.01-0.025-0.021-0.04-0.031
		c-0.112-0.076-0.222-0.158-0.325-0.254l-0.465-0.445c-0.267-0.172-0.52-0.369-0.754-0.594l-22.493-21.529v98.449l79.031-33.709
		c-0.029-0.107-0.047-0.219-0.047-0.334V178.619z"/>
	<path d="M114.831,201.724c-0.003,0.002-0.007,0.004-0.01,0.008c-0.172,0.111-0.358,0.191-0.552,0.256
		c-0.047,0.016-0.093,0.029-0.141,0.041c-0.2,0.053-0.404,0.09-0.617,0.092c-0.002,0-0.005,0.002-0.009,0.002
		c-0.044,0-0.087-0.012-0.13-0.016c-0.121-0.006-0.241-0.012-0.358-0.035c-0.035-0.008-0.068-0.023-0.104-0.031
		c-0.125-0.033-0.248-0.068-0.366-0.119c-0.005-0.002-0.01-0.002-0.014-0.004l-55.046-24.105v63.842l81.407,34.723v-98.436
		l-23.683,23.479C115.093,201.535,114.965,201.636,114.831,201.724z"/>
	<path d="M137.046,172.945L56.172,138.6c-0.119-0.051-0.228-0.117-0.334-0.184c-0.029-0.018-0.061-0.03-0.089-0.049
		c-0.068-0.047-0.125-0.104-0.188-0.158l-23.991,22.962l81.396,35.646L137.046,172.945z"/>
	<path d="M145.03,173.394l23.992,22.965c0.063-0.053,0.119-0.111,0.188-0.158c0.027-0.02,0.06-0.031,0.088-0.049
		c0.106-0.066,0.214-0.133,0.335-0.184l80.872-34.348l-24.078-23.873L145.03,173.394z"/>
	<polygon points="153.042,151.092 153.042,76.246 175.958,76.246 141.727,16.964 107.501,76.246 129.989,76.246 129.989,151.092 	
		"/>
</g>
</svg>
