<?xml version="1.0" encoding="utf-8"?>
<!-- Generator: Adobe Illustrator 15.1.0, SVG Export Plug-In . SVG Version: 6.00 Build 0)  -->
<!DOCTYPE svg PUBLIC "-//W3C//DTD SVG 1.1//EN" "http://www.w3.org/Graphics/SVG/1.1/DTD/svg11.dtd">
<svg version="1.1" id="Layer_1" xmlns="http://www.w3.org/2000/svg" xmlns:xlink="http://www.w3.org/1999/xlink" x="0px" y="0px"
	 width="283.46px" height="283.46px" viewBox="0 0 283.46 283.46" enable-background="new 0 0 283.46 283.46" xml:space="preserve">
<g id="Layer_1_1_">
</g>
<g id="Layer_2">
	<g>
		<g>
			<path d="M253.621,108.208L170.5,73.901L142.955,98.94l83.881,33.864c0.068,0.028,0.131,0.069,0.195,0.103
				c0.069,0.035,0.141,0.065,0.206,0.107c0.068,0.043,0.128,0.097,0.188,0.148c0.232,0.015,0.461,0.056,0.685,0.118L253.621,108.208
				z"/>
			<path d="M29.84,107.372l24.809,25.937c0.218-0.208,0.474-0.383,0.769-0.503l84.218-34.148c-6.261-6.456-24.82-25.59-24.82-25.59
				L29.84,107.372z"/>
			<polygon points="143.408,104.4 143.738,167.365 219.417,135.085 			"/>
			<polygon points="138.517,104.39 62.718,135.125 138.846,167.457 			"/>
			<path d="M171.864,199.728c-0.299,0.128-0.604,0.223-0.913,0.287l-0.609,0.26c-0.004,0.001-0.004,0.001-0.008,0.003
				c-0.121,0.052-0.248,0.086-0.377,0.117c-0.033,0.008-0.063,0.022-0.096,0.026c-0.017,0.006-0.035,0.004-0.053,0.008
				c-0.143,0.025-0.283,0.042-0.428,0.042c-0.002,0-0.006,0-0.01,0c-0.203-0.002-0.408-0.037-0.61-0.091
				c-0.046-0.012-0.091-0.024-0.138-0.039c-0.197-0.063-0.389-0.146-0.565-0.26c-0.015-0.012-0.024-0.022-0.04-0.033
				c-0.114-0.075-0.225-0.158-0.328-0.256l-0.469-0.449c-0.27-0.172-0.524-0.372-0.762-0.6l-22.701-21.729v99.357l79.763-34.021
				c-0.028-0.106-0.047-0.222-0.047-0.337V177.71L171.864,199.728z"/>
			<path d="M114.582,201.035c-0.003,0.002-0.007,0.004-0.011,0.006c-0.173,0.112-0.362,0.193-0.557,0.258
				c-0.047,0.019-0.093,0.031-0.142,0.043c-0.202,0.056-0.408,0.093-0.623,0.094c-0.002,0-0.005,0.002-0.009,0.002
				c-0.044,0-0.088-0.014-0.131-0.016c-0.122-0.008-0.244-0.014-0.361-0.036c-0.036-0.009-0.07-0.022-0.104-0.031
				c-0.127-0.032-0.251-0.065-0.37-0.12c-0.005-0.001-0.01-0.001-0.014-0.003L56.705,176.9v64.434l82.161,35.043v-99.348
				l-23.902,23.697C114.846,200.841,114.717,200.945,114.582,201.035z"/>
			<path d="M55.043,137.139c-0.029-0.018-0.061-0.03-0.089-0.049c-0.069-0.047-0.126-0.105-0.19-0.159l-24.213,23.175l82.15,35.976
				l24.302-24.093l-81.622-34.663C55.26,137.273,55.151,137.206,55.043,137.139z"/>
			<path d="M145.06,172.441l24.215,23.178c0.063-0.054,0.12-0.111,0.189-0.158c0.027-0.021,0.061-0.032,0.09-0.051
				c0.105-0.065,0.216-0.134,0.337-0.186l81.621-34.666l-24.302-24.093L145.06,172.441z"/>
		</g>
		<g id="Layer_2_1_">
		</g>
	</g>
</g>
</svg>
