<?xml version="1.0" encoding="utf-8"?>
<!-- Generator: Adobe Illustrator 15.1.0, SVG Export Plug-In . SVG Version: 6.00 Build 0)  -->
<!DOCTYPE svg PUBLIC "-//W3C//DTD SVG 1.1//EN" "http://www.w3.org/Graphics/SVG/1.1/DTD/svg11.dtd">
<svg version="1.1" xmlns="http://www.w3.org/2000/svg" xmlns:xlink="http://www.w3.org/1999/xlink" x="0px" y="0px"
	 width="283.465px" height="283.465px" viewBox="0 0 283.465 283.465" enable-background="new 0 0 283.465 283.465"
	 xml:space="preserve">
<g id="Layer_1">
</g>
<g id="Layer_2">
	<g>
		<path d="M177.374,200.085l0.144-0.037c0.149-0.021,0.291-0.057,0.434-0.112l0.156-0.066l32.059-15.854
			c1.501-0.742,2.454-2.271,2.454-3.951l-0.011-41.293l-0.004,0.052c0.015-0.167,0.004-0.352-0.032-0.55l-0.066-0.335
			c-0.019-0.144-0.057-0.297-0.123-0.458l-0.132-0.337c-0.047-0.139-0.118-0.281-0.208-0.427l-0.217-0.337
			c-0.065-0.118-0.155-0.236-0.269-0.354l-0.271-0.286c-0.085-0.097-0.188-0.191-0.315-0.283l-0.596-0.411l-0.217-0.113
			l-32.082-15.861l-0.005-26.949l-0.005,0.052c0.015-0.167,0.005-0.352-0.033-0.55l-0.064-0.335
			c-0.021-0.144-0.058-0.297-0.123-0.458l-0.134-0.337c-0.047-0.14-0.116-0.281-0.207-0.427l-0.217-0.34
			c-0.065-0.116-0.156-0.234-0.271-0.352l-0.27-0.286c-0.084-0.099-0.188-0.194-0.314-0.283l-0.596-0.411l-0.218-0.113
			l-32.007-15.824h-4.009L107.6,88.28l-0.715,0.448l-0.614,0.566l-0.493,0.668l-0.358,0.748l-0.213,0.807l-0.05,0.444
			c0,0-0.014,0.741-0.014,0.229v26.881l-32.08,15.859l-0.715,0.451l-0.614,0.564l-0.493,0.667l-0.359,0.749l-0.212,0.807
			l-0.05,0.446c0,0-0.014,0.739-0.014,0.227v41.224c0,1.68,0.951,3.209,2.455,3.949l32.059,15.854l0.693,0.159l0.005,0.011
			l-0.517-0.095l0.55,0.142c0.423,0.656,1.02,1.199,1.744,1.56l25.463,12.588h17.108l25.462-12.588
			C176.355,201.285,176.954,200.742,177.374,200.085z M206.279,178.865l-25.725,12.716v-34.106l25.725-12.719V178.865z
			 M175.627,137.365c1.501-0.743,2.455-2.275,2.455-3.951v-7.272l22.977,11.361l-24.912,12.315l-12.853-6.354L175.627,137.365z
			 M171.742,132.214l-25.725,12.718v-34.109l25.725-12.718V132.214z M141.612,78.536l24.91,12.317l-24.91,12.317l-24.91-12.317
			L141.612,78.536z M111.481,124.254V98.105l25.722,12.718v34.109l-25.722-12.718V124.254z M102.667,191.581l-25.722-12.716v-34.109
			l25.722,12.719V191.581z M107.076,149.82l-24.91-12.315l22.977-11.36v7.271c0,1.676,0.951,3.208,2.452,3.951l12.336,6.099
			L107.076,149.82z M137.203,209.21l-25.722-12.716v-34.111l25.722,12.717V209.21z M116.703,155.134l13.412-6.632l9.541,4.717
			l0.857,0.196l-0.676-0.117l1.124,0.287l-0.318-0.024l0.778,0.104l0.468-0.004l0.835-0.134l-0.383,0.039l0.637-0.17
			c0.151-0.02,0.293-0.058,0.436-0.113l0.154-0.064l9.539-4.717l13.416,6.632l-24.911,12.313L116.703,155.134z M171.742,196.494
			l-25.725,12.716V175.1l25.725-12.717V196.494z"/>
	</g>
</g>
</svg>
