<?xml version="1.0" encoding="utf-8"?>
<!-- Generator: Adobe Illustrator 15.1.0, SVG Export Plug-In . SVG Version: 6.00 Build 0)  -->
<!DOCTYPE svg PUBLIC "-//W3C//DTD SVG 1.0//EN" "http://www.w3.org/TR/2001/REC-SVG-20010904/DTD/svg10.dtd">
<svg version="1.0" id="Layer_1" xmlns="http://www.w3.org/2000/svg" xmlns:xlink="http://www.w3.org/1999/xlink" x="0px" y="0px"
	 width="283.465px" height="283.465px" viewBox="0 0 283.465 283.465" enable-background="new 0 0 283.465 283.465"
	 xml:space="preserve">
<g id="Layer_1_1_">
</g>
<g id="Layer_2">
	<g>
		<path d="M205.239,242.495l0.255-0.066c0.266-0.036,0.518-0.101,0.771-0.199l0.276-0.116l56.935-28.156
			c2.665-1.317,4.357-4.032,4.357-7.017l-0.021-73.33l-0.008,0.092c0.028-0.297,0.008-0.625-0.055-0.977l-0.118-0.595
			c-0.035-0.255-0.101-0.527-0.219-0.813l-0.234-0.599c-0.083-0.247-0.21-0.5-0.369-0.759l-0.386-0.598
			c-0.114-0.208-0.275-0.418-0.479-0.628l-0.479-0.508c-0.15-0.172-0.335-0.339-0.561-0.503l-1.058-0.729l-0.385-0.2L206.49,98.625
			l-0.01-47.858l-0.009,0.092c0.026-0.296,0.009-0.625-0.059-0.976l-0.115-0.595c-0.036-0.256-0.102-0.527-0.218-0.813l-0.238-0.598
			c-0.082-0.249-0.206-0.5-0.367-0.759l-0.385-0.604c-0.116-0.207-0.277-0.416-0.48-0.625l-0.479-0.508
			c-0.15-0.175-0.335-0.344-0.558-0.501l-1.059-0.73l-0.387-0.2l-56.843-28.102h-7.118L81.328,43.942l-1.271,0.796l-1.09,1.005
			l-0.875,1.186l-0.636,1.329l-0.379,1.434l-0.088,0.788c0,0-0.025,1.316-0.025,0.407v47.737l-56.971,28.164l-1.269,0.801
			l-1.092,1.001l-0.875,1.184l-0.638,1.331l-0.377,1.433l-0.088,0.792c0,0-0.025,1.313-0.025,0.403v73.208
			c0,2.984,1.689,5.699,4.36,7.014l56.933,28.156l1.23,0.282l0.009,0.02l-0.918-0.169l0.978,0.252c0.75,1.165,1.811,2.13,3.097,2.77
			l45.22,22.354h30.381l45.218-22.354C203.431,244.626,204.493,243.662,205.239,242.495z M256.572,204.811l-45.685,22.583v-60.569
			l45.685-22.588V204.811z M202.137,131.111c2.665-1.318,4.36-4.04,4.36-7.016v-12.915l40.803,20.176l-44.241,21.871l-22.824-11.285
			L202.137,131.111z M195.237,121.964l-45.684,22.585V83.976l45.684-22.586V121.964z M141.729,26.638l44.236,21.873l-44.236,21.874
			L97.492,48.511L141.729,26.638z M88.221,107.828V61.39l45.679,22.586v60.573l-45.679-22.585V107.828z M72.568,227.394
			l-45.68-22.583v-60.574l45.68,22.588V227.394z M80.398,153.23L36.16,131.36l40.805-20.174v12.913c0,2.976,1.689,5.697,4.354,7.017
			l21.907,10.831L80.398,153.23z M133.899,258.699l-45.679-22.581V175.54l45.679,22.583V258.699z M97.494,162.666l23.819-11.777
			l16.941,8.377l1.523,0.349l-1.201-0.208l1.996,0.51l-0.564-0.043l1.382,0.186l0.831-0.008l1.483-0.236l-0.682,0.068l1.134-0.301
			c0.266-0.037,0.521-0.104,0.773-0.202l0.273-0.114l16.94-8.377l23.825,11.777l-44.24,21.868L97.494,162.666z M195.237,236.118
			l-45.684,22.581v-60.576l45.684-22.583V236.118z"/>
	</g>
</g>
</svg>
