<?xml version="1.0" encoding="utf-8"?>
<!-- Generator: Adobe Illustrator 15.1.0, SVG Export Plug-In . SVG Version: 6.00 Build 0)  -->
<!DOCTYPE svg PUBLIC "-//W3C//DTD SVG 1.1//EN" "http://www.w3.org/Graphics/SVG/1.1/DTD/svg11.dtd">
<svg version="1.1" id="Layer_2" xmlns="http://www.w3.org/2000/svg" xmlns:xlink="http://www.w3.org/1999/xlink" x="0px" y="0px"
	 width="283.465px" height="283.465px" viewBox="0 0 283.465 283.465" enable-background="new 0 0 283.465 283.465"
	 xml:space="preserve">
<g>
	<path fill="none" d="M24.839,192.899c-1.929-1.351-3.866-2.713-5.713-4.187C20.837,190.274,22.731,191.686,24.839,192.899z"/>
	<path fill="none" d="M276.094,159.915c-0.01-0.041-0.02-0.081-0.03-0.123c-0.006-0.024-0.011-0.046-0.016-0.065
		c-0.01-0.039-0.019-0.073-0.028-0.113c0.547,2.206-0.105,5.518-1.421,9.18c1.097-2.313,1.59-5.052,1.729-7.936
		c-0.039-0.157-0.083-0.334-0.131-0.524C276.158,160.175,276.123,160.031,276.094,159.915z"/>
	<path fill="none" d="M30.004,196.665c-0.287-0.226-0.579-0.446-0.87-0.668c0.419,0.689,0.592,1.282,0.689,1.39
		c3.544,6.87,9.765,11.92,17.173,14.083c0.942,0.275,1.887,0.49,2.835,0.657C38.939,209.934,36.358,201.671,30.004,196.665z"/>
	<path fill="none" d="M183.672,199.665c-7.704,8.839-4.434,13.139-17.232,18.229c-5.192,2.065-10.238,3.152-15.683,3.2
		c2.27-0.008,4.539-0.165,6.79-0.503c6.897-1.211,16.953-4.596,21.027-10.72c5.747-7.978,10.506-16.149,19.173-19.439
		C192.984,191.576,188.295,194.359,183.672,199.665z"/>
	<path fill="none" d="M94.293,213.398c-1.281,2.911-1.094,6.286,0.058,9.531C93.201,219.68,93.015,216.303,94.293,213.398z"/>
	<path fill="none" d="M94.519,223.396c-0.014-0.038-0.032-0.075-0.046-0.113C94.487,223.32,94.505,223.357,94.519,223.396z"/>
	<path fill="none" d="M235.333,199.271c-0.005,0-0.01-0.001-0.015-0.001C235.323,199.271,235.328,199.271,235.333,199.271z"/>
	<path fill="none" d="M150.01,221.096c-0.404-0.003-0.815-0.02-1.225-0.035C149.193,221.076,149.602,221.091,150.01,221.096z"/>
	<path fill="none" d="M234.133,199.097c-0.065-0.014-0.128-0.029-0.192-0.043C234.005,199.067,234.067,199.084,234.133,199.097z"/>
	<path fill="none" d="M111.887,235.977c2.648-0.488,6.059-2.566,9.213-4.948c0.158-0.156,0.315-0.312,0.472-0.467
		C118.061,233.301,114.311,235.53,111.887,235.977z"/>
	<path fill="none" d="M180.222,55.405c2.25,1.559,4.489,3.223,7.105,4.162c3.114,1.118,6.341,1.804,9.608,2.261
		c-0.118-0.017-0.232-0.034-0.351-0.051C190.352,60.873,185.325,58,180.222,55.405z"/>
	<path fill="none" d="M141.896,220.33c1.832,0.325,3.681,0.545,5.534,0.666c-5.898-0.594-14.266-5.817-17.272,0.441
		c-0.809,1.679-2.599,3.784-4.796,5.87c0.241-0.161,0.487-0.312,0.735-0.452c0.786-0.722,1.498-1.406,2.087-2.006
		C134.01,217.381,131.716,218.525,141.896,220.33z"/>
	<path fill="none" d="M122.223,50.501c1.455-0.371,2.96-0.761,4.576-1.146c8.847-2.112,13.985,0.08,21.043,1.021
		c-3.168-0.814-5.655-3.043-8.982-3.043C133.409,47.333,127.625,48.855,122.223,50.501z"/>
	<path fill="none" d="M8.709,146.18c0.635-11.578,3.507-23.079,11.744-31.701c1.288-7.022,3.401-15.95,7.68-22.813
		c-0.077,0.091-0.15,0.188-0.227,0.281c-5.492,8.867-7.797,21.079-12.42,29.005c-1.014,1.738-1.948,3.592-2.813,5.521
		c-2.371,6.08-4.309,12.397-4.967,19.706c-0.295,5.333-0.803,10.521-0.875,15.498c0.145,1.451,0.338,2.89,0.591,4.308
		C7.158,159.521,8.335,152.925,8.709,146.18z"/>
	<path fill="none" d="M219.346,69.38c1.586,0.741,3.124,1.524,4.642,2.325c-1.654-1.445-3.353-2.653-5.095-3.671
		c-0.327-0.175-0.645-0.355-0.95-0.54c-1.495-0.809-3.026-1.486-4.59-2.067C215.157,66.729,216.905,68.239,219.346,69.38z"/>
	<path fill="none" d="M276.02,159.613c0,0,0.011,0.043,0.028,0.113c0.005,0.022,0.011,0.043,0.016,0.065
		c0.01,0.036,0.02,0.077,0.03,0.123c0.037,0.147,0.071,0.287,0.104,0.418c0.041,0.164,0.086,0.344,0.131,0.524
		c0.276-5.723-0.839-12.015-1.401-16.679c-2.777-23.025-14.38-45.702-32.506-60.19c-0.995-0.795-2.004-1.533-3.02-2.247
		C262.733,100.306,274.644,127.872,276.02,159.613z"/>
	<path d="M80.634,176.925c-0.109-0.03-0.218-0.059-0.326-0.088C80.417,176.866,80.524,176.895,80.634,176.925z"/>
	<path d="M104.754,230.383c0.21,0.037,0.42,0.082,0.628,0.136C105.174,230.465,104.965,230.42,104.754,230.383z"/>
	<path d="M100.227,216.209c-0.078-0.006-0.154-0.016-0.234-0.016c-0.091,0-0.184,0.007-0.277,0.015
		C99.89,216.194,100.06,216.197,100.227,216.209z"/>
	<path d="M105.618,219.813c-0.042-0.033-0.083-0.067-0.125-0.102C105.535,219.745,105.576,219.779,105.618,219.813z"/>
	<path d="M104.605,218.929c-0.063-0.059-0.127-0.117-0.19-0.177C104.479,218.812,104.542,218.87,104.605,218.929z"/>
	<path d="M103.155,217.618c0.15,0.126,0.3,0.255,0.448,0.387C103.456,217.873,103.306,217.744,103.155,217.618z"/>
	<path d="M105.143,219.414c-0.032-0.028-0.064-0.056-0.096-0.084C105.079,219.358,105.111,219.386,105.143,219.414z"/>
	<path d="M103.65,218.047c0.14,0.126,0.279,0.254,0.417,0.382C103.929,218.301,103.79,218.173,103.65,218.047z"/>
	<path d="M73.745,175.782c-0.064,0-0.128-0.009-0.193-0.009c-0.093,0-0.186,0.006-0.278,0.008
		C73.431,175.778,73.588,175.781,73.745,175.782z"/>
	<path d="M69.743,176.23c0.353-0.087,0.702-0.158,1.05-0.219C70.445,176.072,70.096,176.144,69.743,176.23z"/>
	<path d="M82.66,177.512c-0.148-0.045-0.299-0.09-0.446-0.134C82.361,177.422,82.511,177.467,82.66,177.512z"/>
	<path d="M103.85,230.295c0.252,0.003,0.503,0.023,0.751,0.061C104.353,230.318,104.103,230.298,103.85,230.295z"/>
	<path d="M72.222,175.834c0.217-0.018,0.434-0.032,0.65-0.041C72.656,175.802,72.438,175.816,72.222,175.834z"/>
	<path d="M71.123,175.963c0.238-0.037,0.475-0.07,0.711-0.096C71.598,175.893,71.361,175.926,71.123,175.963z"/>
	<path d="M105.549,230.562c0.246,0.068,0.491,0.144,0.735,0.226C106.04,230.705,105.795,230.63,105.549,230.562z"/>
	<path d="M102.667,217.235c0.124,0.092,0.246,0.187,0.367,0.285C102.914,217.422,102.791,217.327,102.667,217.235z"/>
	<path d="M107.963,231.382c-0.012-0.005-0.025-0.008-0.037-0.013C107.938,231.374,107.951,231.377,107.963,231.382z"/>
	<path d="M106.395,230.826c0.244,0.084,0.488,0.171,0.731,0.26C106.882,230.997,106.638,230.91,106.395,230.826z"/>
	<path d="M110.348,231.867c0.029,0,0.057,0.007,0.086,0.007c0.066,0,0.134-0.009,0.2-0.012
		C110.539,231.866,110.443,231.869,110.348,231.867z"/>
	<path d="M110.876,231.849c0.112-0.011,0.225-0.029,0.338-0.049C111.101,231.819,110.988,231.838,110.876,231.849z"/>
	<path d="M109.605,231.807c-0.027-0.004-0.054-0.011-0.082-0.016C109.551,231.796,109.578,231.803,109.605,231.807z"/>
	<path d="M97.594,217.011c0.225-0.147,0.442-0.271,0.656-0.375C98.037,216.74,97.819,216.863,97.594,217.011z"/>
	<path d="M108.846,231.646c-0.065-0.018-0.131-0.034-0.196-0.053C108.715,231.611,108.781,231.629,108.846,231.646z"/>
	<path d="M101.569,216.567c0.144,0.067,0.285,0.141,0.425,0.222C101.854,216.708,101.713,216.635,101.569,216.567z"/>
	<path d="M98.359,216.583c0.209-0.097,0.415-0.175,0.614-0.234C98.774,216.408,98.569,216.486,98.359,216.583z"/>
	<path d="M100.979,216.343c0.153,0.045,0.303,0.1,0.45,0.163C101.281,216.442,101.131,216.388,100.979,216.343z"/>
	<path d="M102.068,216.83c0.163,0.098,0.322,0.204,0.48,0.317C102.391,217.034,102.231,216.928,102.068,216.83z"/>
	<path d="M99.069,216.323c0.204-0.055,0.403-0.094,0.597-0.112C99.473,216.229,99.273,216.269,99.069,216.323z"/>
	<path d="M100.363,216.218c0.184,0.021,0.364,0.053,0.541,0.101C100.727,216.271,100.546,216.238,100.363,216.218z"/>
	<path d="M96.775,217.628c0.25-0.213,0.493-0.394,0.73-0.555C97.268,217.234,97.025,217.415,96.775,217.628z"/>
	<path d="M85.924,178.505c-0.626-0.189-1.241-0.377-1.842-0.562C84.684,178.128,85.297,178.315,85.924,178.505z"/>
	<path d="M85.185,201.99c0.422-0.098,0.855-0.225,1.301-0.379C86.04,201.766,85.607,201.892,85.185,201.99z"/>
	<path d="M82.029,202.188c-0.271-0.029-0.545-0.078-0.82-0.133C81.483,202.108,81.759,202.158,82.029,202.188z"/>
	<path d="M83.706,202.227c0.412-0.033,0.831-0.099,1.256-0.188C84.536,202.128,84.118,202.193,83.706,202.227z"/>
	<path d="M64.3,202.941c-0.054,0.017-0.107,0.035-0.161,0.052C64.193,202.977,64.246,202.958,64.3,202.941z"/>
	<path d="M72.774,178.518c-0.101,0.012-0.201,0.028-0.301,0.045C72.573,178.546,72.674,178.529,72.774,178.518z"/>
	<path d="M90.006,200.033c-0.582,0.307-1.126,0.574-1.652,0.817C88.88,200.607,89.425,200.34,90.006,200.033z"/>
	<path d="M63.172,203.247c-0.087,0.021-0.176,0.036-0.263,0.055C62.996,203.283,63.084,203.268,63.172,203.247z"/>
	<path d="M66.373,202.166c-0.109,0.048-0.219,0.095-0.329,0.141C66.154,202.261,66.264,202.214,66.373,202.166z"/>
	<path d="M67.297,201.735c-0.094,0.047-0.189,0.091-0.284,0.136C67.108,201.826,67.204,201.782,67.297,201.735z"/>
	<path d="M73.451,178.465c0.079-0.003,0.157-0.011,0.235-0.011C73.608,178.454,73.53,178.462,73.451,178.465z"/>
	<path d="M112.62,231.316c-0.198,0.106-0.395,0.193-0.59,0.267C112.225,231.51,112.422,231.423,112.62,231.316z"/>
	<path d="M80.674,201.944c-0.308-0.078-0.625-0.181-0.944-0.288C80.048,201.764,80.367,201.867,80.674,201.944z"/>
	<path d="M65.406,202.561c-0.104,0.039-0.208,0.08-0.313,0.117C65.198,202.641,65.302,202.6,65.406,202.561z"/>
	<path d="M82.583,202.227c0.142,0.007,0.286,0.03,0.428,0.03c0.179,0,0.359-0.013,0.54-0.023
		C83.227,202.253,82.905,202.242,82.583,202.227z"/>
	<path d="M79.262,201.503c-0.484-0.181-0.982-0.389-1.508-0.636C78.279,201.113,78.777,201.322,79.262,201.503z"/>
	<path d="M78.915,176.484c-0.085-0.021-0.172-0.043-0.256-0.063C78.744,176.441,78.83,176.464,78.915,176.484z"/>
	<path d="M85.298,179.948c-0.233,0.03-0.466,0.058-0.695,0.074C84.832,180.006,85.064,179.979,85.298,179.948z"/>
	<path d="M83.518,180.046c0.082,0.002,0.161,0.013,0.243,0.013c0.116,0,0.236-0.012,0.354-0.016
		C83.914,180.049,83.715,180.05,83.518,180.046z"/>
	<path d="M88.234,179.182c-0.422,0.172-0.836,0.311-1.245,0.428C87.397,179.492,87.812,179.354,88.234,179.182z"/>
	<path d="M88.234,179.182c-0.648-0.182-1.277-0.367-1.896-0.553C86.957,178.814,87.585,179,88.234,179.182z"/>
	<path d="M77.148,176.117c-0.116-0.021-0.232-0.039-0.348-0.058C76.916,176.078,77.032,176.097,77.148,176.117z"/>
	<path d="M75.305,175.86c-0.017-0.001-0.034-0.004-0.051-0.006C75.271,175.856,75.288,175.859,75.305,175.86z"/>
	<path d="M86.564,179.71c-0.263,0.065-0.526,0.128-0.785,0.173C86.038,179.838,86.301,179.775,86.564,179.71z"/>
	<path d="M82.687,180.004c-0.15-0.012-0.301-0.021-0.449-0.036C82.386,179.983,82.537,179.992,82.687,180.004z"/>
	<path d="M77.099,178.913c-0.237-0.054-0.474-0.104-0.709-0.152C76.625,178.809,76.861,178.858,77.099,178.913z"/>
	<path d="M75.931,178.674c-0.232-0.042-0.462-0.076-0.692-0.107C75.469,178.598,75.699,178.632,75.931,178.674z"/>
	<path d="M77.571,179.021c0.294,0.07,0.59,0.142,0.89,0.215C78.162,179.163,77.865,179.092,77.571,179.021z"/>
	<path d="M74.808,178.512c-0.251-0.025-0.501-0.036-0.751-0.044C74.307,178.476,74.556,178.486,74.808,178.512z"/>
	<path d="M81.32,179.842c-0.104-0.018-0.211-0.029-0.314-0.048C81.109,179.813,81.216,179.824,81.32,179.842z"/>
	<path d="M79.795,179.551c-0.044-0.01-0.087-0.021-0.131-0.03C79.708,179.53,79.751,179.541,79.795,179.551z"/>
	<path d="M71.827,178.703c-0.092,0.024-0.184,0.045-0.276,0.073C71.643,178.748,71.735,178.728,71.827,178.703z"/>
	<path d="M111.824,231.648c-0.125,0.04-0.25,0.08-0.374,0.109C111.574,231.729,111.699,231.688,111.824,231.648z"/>
	<path d="M138.033,201.74c0.031,0.317,0.057,0.644,0.074,0.992C138.09,202.384,138.064,202.058,138.033,201.74z"/>
	<path d="M137.489,199.083c0.062,0.173,0.119,0.355,0.172,0.548C137.608,199.438,137.55,199.256,137.489,199.083z"/>
	<path d="M135.587,196.735c0.119,0.053,0.234,0.113,0.346,0.183C135.821,196.849,135.706,196.788,135.587,196.735z"/>
	<path d="M136.429,197.302c-0.122-0.119-0.251-0.22-0.386-0.313C136.177,197.082,136.307,197.183,136.429,197.302z"/>
	<path d="M137.171,198.332c0.093,0.181,0.178,0.377,0.258,0.586C137.35,198.709,137.264,198.513,137.171,198.332z"/>
	<path d="M136.454,197.328c0.113,0.113,0.22,0.24,0.323,0.376C136.674,197.568,136.567,197.441,136.454,197.328z"/>
	<path d="M137.904,200.751c0.038,0.233,0.072,0.478,0.101,0.731C137.976,201.229,137.943,200.984,137.904,200.751z"/>
	<path d="M146.031,207.907c0.214,0.037,0.428,0.062,0.643,0.094C146.459,207.969,146.245,207.944,146.031,207.907z"/>
	<path d="M147.94,208.169c0.247,0.025,0.494,0.042,0.741,0.062C148.435,208.211,148.188,208.194,147.94,208.169z"/>
	<path d="M153.821,208.237c0.436-0.03,0.871-0.072,1.307-0.116C154.692,208.165,154.257,208.207,153.821,208.237z"/>
	<path d="M140.386,213.57c0.259,0.07,0.518,0.136,0.777,0.2C140.903,213.706,140.645,213.641,140.386,213.57z"/>
	<path d="M139.279,213.254c-0.252-0.075-0.505-0.15-0.757-0.23C138.774,213.104,139.027,213.179,139.279,213.254z"/>
	<path d="M137.125,198.252c-0.082-0.151-0.169-0.293-0.26-0.424C136.957,197.959,137.043,198.101,137.125,198.252z"/>
	<path d="M142.262,214.023c0.26,0.056,0.52,0.109,0.779,0.159C142.781,214.133,142.521,214.079,142.262,214.023z"/>
	<path d="M149.858,208.305c0.254,0.011,0.508,0.017,0.763,0.021C150.366,208.321,150.112,208.315,149.858,208.305z"/>
	<path d="M144.919,214.486c-0.254-0.033-0.508-0.074-0.762-0.113C144.411,214.412,144.665,214.453,144.919,214.486z"/>
	<path d="M146.799,214.673c-0.237-0.016-0.474-0.042-0.711-0.063C146.325,214.631,146.562,214.657,146.799,214.673z"/>
	<path d="M148.123,214.721c0.162,0.003,0.323,0.018,0.485,0.018c0.027,0,0.055-0.002,0.082-0.002
		C148.501,214.736,148.313,214.725,148.123,214.721z"/>
	<path d="M149.219,214.72c0.385-0.009,0.77-0.02,1.154-0.046C149.988,214.7,149.604,214.711,149.219,214.72z"/>
	<path d="M153.761,214.207c-0.337,0.069-0.673,0.13-1.009,0.186C153.088,214.337,153.424,214.276,153.761,214.207z"/>
	<path d="M134.828,211.677c0.194,0.08,0.389,0.152,0.584,0.229C135.217,211.828,135.022,211.757,134.828,211.677z"/>
	<path d="M155.474,213.785c-0.338,0.096-0.675,0.185-1.012,0.265C154.799,213.97,155.136,213.881,155.474,213.785z"/>
	<path d="M132.661,196.759c0.096-0.03,0.189-0.056,0.283-0.081C132.85,196.703,132.757,196.729,132.661,196.759z"/>
	<path d="M136.669,212.389c0.236,0.087,0.473,0.166,0.71,0.249C137.143,212.555,136.906,212.476,136.669,212.389z"/>
	<path d="M133.41,196.57c0.09-0.018,0.179-0.033,0.267-0.046C133.589,196.537,133.5,196.553,133.41,196.57z"/>
	<path d="M134.521,196.484c0.136,0.009,0.269,0.024,0.397,0.048C134.79,196.509,134.657,196.493,134.521,196.484z"/>
	<path d="M134.382,196.478c-0.029-0.001-0.057-0.005-0.086-0.005c-0.054,0-0.112,0.012-0.167,0.014
		C134.213,196.483,134.3,196.476,134.382,196.478z"/>
	<path d="M131.877,197.045c0.089-0.038,0.174-0.066,0.262-0.101C132.052,196.979,131.966,197.008,131.877,197.045z"/>
	<path d="M135.035,196.552c0.158,0.035,0.311,0.081,0.458,0.141C135.346,196.633,135.193,196.587,135.035,196.552z"/>
	<path d="M137.71,199.807c0.063,0.245,0.119,0.503,0.168,0.777C137.829,200.31,137.772,200.051,137.71,199.807z"/>
	<path d="M102.998,202.613c0.043-0.068,0.089-0.135,0.142-0.196C103.087,202.479,103.041,202.545,102.998,202.613z"/>
	<path d="M103.553,202.058c0.07-0.046,0.146-0.087,0.226-0.126C103.7,201.971,103.624,202.012,103.553,202.058z"/>
	<path d="M102.796,203.026c0.036-0.104,0.076-0.202,0.125-0.294C102.873,202.824,102.832,202.923,102.796,203.026z"/>
	<path d="M102.665,203.668c-0.01,0.105-0.018,0.214-0.018,0.328C102.647,203.882,102.655,203.773,102.665,203.668z"/>
	<path d="M102.678,203.516c0.021-0.147,0.05-0.288,0.09-0.418C102.728,203.228,102.698,203.368,102.678,203.516z"/>
	<path d="M102.702,204.763c0.016,0.122,0.037,0.248,0.061,0.378C102.738,205.011,102.718,204.885,102.702,204.763z"/>
	<path d="M102.808,205.382c0.03,0.146,0.067,0.298,0.106,0.453C102.875,205.68,102.838,205.527,102.808,205.382z"/>
	<path d="M103.422,202.151c-0.063,0.048-0.122,0.101-0.177,0.154C103.301,202.251,103.359,202.199,103.422,202.151z"/>
	<path d="M106.619,201.567c0.097,0.006,0.188,0.008,0.289,0.016C106.807,201.575,106.715,201.573,106.619,201.567z"/>
	<path d="M103.182,206.789c-0.081-0.256-0.151-0.498-0.214-0.733C103.031,206.291,103.102,206.533,103.182,206.789z"/>
	<path d="M106.067,201.547c-0.041-0.001-0.089-0.005-0.129-0.005c-0.102,0-0.194,0.006-0.291,0.009
		C105.783,201.547,105.922,201.545,106.067,201.547z"/>
	<path d="M102.653,204.195c0.004,0.11,0.011,0.223,0.022,0.34C102.664,204.418,102.657,204.306,102.653,204.195z"/>
	<path d="M104.358,201.713c0.157-0.041,0.325-0.075,0.505-0.101C104.683,201.638,104.515,201.672,104.358,201.713z"/>
	<path d="M103.923,201.861c0.098-0.041,0.205-0.076,0.315-0.109C104.128,201.785,104.021,201.82,103.923,201.861z"/>
	<path d="M104.978,201.6c0.149-0.018,0.303-0.033,0.467-0.042C105.281,201.566,105.126,201.581,104.978,201.6z"/>
	<path d="M163.271,206.783c0.058,0.01,0.115,0.021,0.171,0.036C163.387,206.804,163.329,206.793,163.271,206.783z"/>
	<path d="M161.508,207.011c0.023-0.007,0.047-0.014,0.071-0.021C161.555,206.997,161.531,207.004,161.508,207.011z"/>
	<path d="M162.217,206.834c0.019-0.004,0.037-0.008,0.055-0.012C162.254,206.826,162.235,206.83,162.217,206.834z"/>
	<path d="M164.101,207.236c-0.038-0.043-0.077-0.085-0.118-0.121C164.023,207.151,164.063,207.193,164.101,207.236z"/>
	<path d="M151.666,208.326c0.42-0.006,0.841-0.02,1.261-0.04C152.507,208.307,152.086,208.32,151.666,208.326z"/>
	<path d="M152.063,214.5c-0.347,0.047-0.693,0.082-1.039,0.114C151.369,214.582,151.716,214.547,152.063,214.5z"/>
	<path d="M160.25,207.352c-0.713,0.14-1.426,0.266-2.139,0.382C158.824,207.617,159.537,207.491,160.25,207.352z"/>
	<polygon points="162.926,206.752 162.926,206.752 162.926,206.752 	"/>
	<path d="M160.25,207.352c0.194-0.037,0.402-0.093,0.617-0.154C160.652,207.259,160.444,207.314,160.25,207.352z"/>
	<path d="M163.77,206.96c0.044,0.025,0.088,0.055,0.13,0.087C163.857,207.015,163.813,206.985,163.77,206.96z"/>
	<path d="M164.173,207.322c0.039,0.051,0.075,0.11,0.11,0.17C164.248,207.433,164.212,207.373,164.173,207.322z"/>
	<path d="M164.339,207.585c0.05,0.098,0.097,0.204,0.138,0.323C164.436,207.789,164.389,207.683,164.339,207.585z"/>
	<path d="M155.969,208.034c0.48-0.058,0.962-0.128,1.442-0.199C156.931,207.906,156.449,207.977,155.969,208.034z"/>
	<path d="M163.533,206.851c0.05,0.018,0.099,0.037,0.146,0.06C163.632,206.888,163.583,206.868,163.533,206.851z"/>
	<path d="M162.928,206.752c0.09,0,0.177,0.006,0.262,0.017C163.104,206.758,163.018,206.752,162.928,206.752z"/>
	<path d="M161.264,211.371c-0.567,0.318-1.134,0.608-1.7,0.878C160.13,211.979,160.696,211.689,161.264,211.371z"/>
	<path d="M17.813,167.596c0.104,0.071,0.208,0.145,0.309,0.222C18.021,167.74,17.917,167.667,17.813,167.596z"/>
	<path d="M21.809,170.125c-0.048-0.001-0.093-0.009-0.14-0.012C21.715,170.116,21.761,170.124,21.809,170.125z"/>
	<path d="M18.233,167.902c0.311,0.245,0.609,0.512,0.904,0.774C18.842,168.414,18.543,168.147,18.233,167.902z"/>
	<path d="M16.241,166.96c0.153,0.021,0.302,0.051,0.447,0.092C16.543,167.011,16.394,166.98,16.241,166.96z"/>
	<path d="M88.154,200.944c-0.496,0.224-0.968,0.414-1.426,0.581C87.186,201.358,87.658,201.168,88.154,200.944z"/>
	<path d="M16.746,167.065c0.164,0.05,0.321,0.114,0.475,0.188C17.067,167.18,16.91,167.115,16.746,167.065z"/>
	<path d="M19.365,168.878c0.058,0.052,0.116,0.102,0.175,0.151C19.481,168.979,19.423,168.93,19.365,168.878z"/>
	<path d="M17.346,167.319c0.111,0.058,0.221,0.119,0.327,0.186C17.567,167.438,17.458,167.377,17.346,167.319z"/>
	<path d="M75.257,193.545c-0.082-0.144-0.166-0.283-0.245-0.433C75.091,193.262,75.175,193.401,75.257,193.545z"/>
	<path d="M22.287,170.086c0.038-0.006,0.078-0.019,0.116-0.027C22.365,170.067,22.325,170.08,22.287,170.086z"/>
	<path d="M15.858,166.931c-0.092,0-0.185,0.004-0.28,0.013c0.172-0.016,0.334-0.008,0.495,0.004
		C16.001,166.942,15.932,166.931,15.858,166.931z"/>
	<path d="M22.826,169.93c0.05-0.019,0.101-0.037,0.152-0.06C22.927,169.893,22.876,169.911,22.826,169.93z"/>
	<path d="M19.793,169.237c0.048,0.038,0.095,0.078,0.143,0.114C19.888,169.315,19.841,169.275,19.793,169.237z"/>
	<path d="M20.33,169.631c0.02,0.013,0.04,0.022,0.059,0.034C20.369,169.653,20.349,169.644,20.33,169.631z"/>
	<path d="M20.739,169.857c0.047,0.023,0.096,0.041,0.144,0.062C20.835,169.898,20.786,169.881,20.739,169.857z"/>
	<path d="M87.297,200.146c-0.189-0.001-0.374-0.009-0.559-0.015C86.924,200.138,87.108,200.146,87.297,200.146z"/>
	<path d="M73.782,199.791c0.156,0.008,0.313,0.013,0.47,0.03C74.094,199.804,73.938,199.799,73.782,199.791z"/>
	<path d="M73.155,199.775c-0.232,0.005-0.465,0.028-0.697,0.053C72.691,199.804,72.923,199.78,73.155,199.775z"/>
	<path d="M88.145,200.136c0.16-0.005,0.316-0.005,0.479-0.012C88.461,200.131,88.305,200.131,88.145,200.136z"/>
	<path d="M78.779,197.65c0.105,0.078,0.208,0.162,0.315,0.236C78.987,197.813,78.885,197.729,78.779,197.65z"/>
	<path d="M74.612,192.309c-0.063-0.132-0.129-0.258-0.191-0.395C74.482,192.051,74.549,192.177,74.612,192.309z"/>
	<path d="M74.935,199.933c0.15,0.028,0.299,0.049,0.451,0.086C75.235,199.982,75.085,199.961,74.935,199.933z"/>
	<path d="M76.158,200.246c0.131,0.042,0.259,0.073,0.391,0.121C76.417,200.319,76.289,200.288,76.158,200.246z"/>
	<path d="M79.836,198.354c0.06,0.035,0.117,0.076,0.178,0.11C79.953,198.43,79.896,198.389,79.836,198.354z"/>
	<path d="M84.25,199.895c0.171,0.029,0.345,0.055,0.52,0.078C84.595,199.949,84.421,199.924,84.25,199.895z"/>
	<path d="M85.461,200.052c0.18,0.018,0.361,0.033,0.544,0.046C85.822,200.085,85.642,200.069,85.461,200.052z"/>
	<path d="M78.229,197.219c-0.113-0.096-0.221-0.198-0.331-0.299C78.007,197.021,78.116,197.123,78.229,197.219z"/>
	<path d="M80.982,198.945c0.11,0.049,0.227,0.089,0.339,0.135C81.208,199.034,81.092,198.994,80.982,198.945z"/>
	<path d="M82.013,199.344c0.143,0.049,0.29,0.089,0.436,0.133C82.303,199.433,82.156,199.393,82.013,199.344z"/>
	<path d="M83.102,199.659c0.16,0.04,0.324,0.074,0.487,0.108C83.425,199.733,83.261,199.699,83.102,199.659z"/>
	<path d="M21.177,170.024c0.053,0.015,0.106,0.029,0.161,0.042C21.284,170.054,21.23,170.039,21.177,170.024z"/>
	<path d="M25.731,142.943c-0.176-0.015-0.35-0.031-0.516-0.05C25.383,142.912,25.555,142.929,25.731,142.943z"/>
	<path d="M26.555,142.978c0.071-0.001,0.141-0.004,0.21-0.008C26.695,142.974,26.626,142.977,26.555,142.978z"/>
	<path d="M29.525,163.255c0.061-0.137,0.119-0.279,0.176-0.428C29.644,162.976,29.586,163.118,29.525,163.255z"/>
	<path d="M24.543,142.823c0.035,0.004,0.069,0.007,0.105,0.01C24.613,142.83,24.578,142.826,24.543,142.823z"/>
	<path d="M276.328,160.857L276.328,160.857c-0.045-0.181-0.09-0.36-0.131-0.524C276.245,160.523,276.289,160.7,276.328,160.857z"/>
	<path d="M27.173,142.928c-0.072,0.011-0.143,0.022-0.218,0.029C27.03,142.95,27.101,142.938,27.173,142.928z"/>
	<path d="M27.68,142.801c0.108-0.043,0.21-0.093,0.302-0.154C27.891,142.708,27.789,142.758,27.68,142.801z"/>
	<path d="M27.563,142.837c-0.074,0.023-0.148,0.047-0.229,0.064C27.414,142.885,27.488,142.86,27.563,142.837z"/>
	<path d="M34.072,84.919c0.071-0.054,0.144-0.106,0.216-0.159C34.216,84.813,34.143,84.865,34.072,84.919z"/>
	<path d="M75.428,214.324c-0.577-0.012-1.152-0.028-1.731-0.035C74.274,214.302,74.852,214.316,75.428,214.324z"/>
	<path d="M173.979,52.101c-0.139-0.05-0.281-0.09-0.421-0.138c2.031,0.867,3.935,1.897,5.974,2.969
		C177.772,53.741,175.983,52.665,173.979,52.101z"/>
	<path d="M276.048,159.727c0.005,0.02,0.01,0.041,0.016,0.065C276.059,159.77,276.053,159.749,276.048,159.727z"/>
	<path d="M276.063,159.792c0.011,0.042,0.021,0.082,0.03,0.123C276.083,159.869,276.073,159.828,276.063,159.792z"/>
	<path d="M276.02,159.613c0.01,0.04,0.019,0.074,0.028,0.113C276.03,159.656,276.02,159.613,276.02,159.613z"/>
	<path d="M276.094,159.915c0.029,0.116,0.064,0.26,0.104,0.418C276.165,160.202,276.131,160.063,276.094,159.915z"/>
	<path d="M26.395,142.977c-0.188-0.002-0.377-0.01-0.566-0.024C26.017,142.967,26.207,142.975,26.395,142.977z"/>
	<path d="M31.041,160.695c0.008-0.003,0.017-0.004,0.024-0.007C31.058,160.691,31.049,160.692,31.041,160.695z"/>
	<path d="M30.706,160.923c-0.022,0.02-0.044,0.04-0.065,0.062C30.662,160.963,30.684,160.942,30.706,160.923z"/>
	<path d="M31.578,160.606c-0.021-0.001-0.045-0.007-0.066-0.007c-0.02,0-0.034,0.01-0.053,0.011
		C31.498,160.608,31.537,160.604,31.578,160.606z"/>
	<path d="M30.351,161.356c0.008-0.014,0.016-0.028,0.024-0.042C30.367,161.328,30.359,161.343,30.351,161.356z"/>
	<path d="M30.103,161.827c0.014-0.029,0.027-0.057,0.041-0.086C30.13,161.771,30.116,161.798,30.103,161.827z"/>
	<path d="M29.854,162.431c0.02-0.051,0.04-0.102,0.06-0.153C29.893,162.329,29.873,162.38,29.854,162.431z"/>
	<path d="M29.276,163.743c0.074-0.117,0.141-0.252,0.206-0.393C29.417,163.491,29.35,163.626,29.276,163.743z"/>
	<path d="M23.661,142.99c0,0.016-0.004,0.028-0.001,0.046C23.657,143.019,23.661,143.006,23.661,142.99z"/>
	<path d="M23.721,142.874c-0.014,0.01-0.026,0.021-0.035,0.032C23.695,142.895,23.707,142.884,23.721,142.874z"/>
	<path d="M24.112,142.798c-0.004,0-0.009-0.001-0.013-0.001c-0.017,0-0.027,0.003-0.043,0.004
		C24.075,142.8,24.091,142.798,24.112,142.798z"/>
	<path d="M31.705,160.619c0.068,0.009,0.14,0.022,0.213,0.041C31.844,160.642,31.773,160.628,31.705,160.619z"/>
	<path d="M23.877,142.814c-0.024,0.004-0.042,0.011-0.063,0.017C23.835,142.825,23.854,142.818,23.877,142.814z"/>
	<path d="M32.449,160.858c0.139,0.068,0.285,0.148,0.44,0.247C32.733,161.006,32.588,160.927,32.449,160.858z"/>
	<path d="M32.056,160.699c0.083,0.026,0.172,0.063,0.263,0.103C32.229,160.762,32.14,160.726,32.056,160.699z"/>
	<path d="M33.194,191.357c0.004-0.026,0.007-0.054,0.012-0.081C33.201,191.305,33.198,191.331,33.194,191.357z"/>
	<path d="M57.847,187.313c0.185-0.04,0.37-0.074,0.556-0.104C58.217,187.239,58.031,187.273,57.847,187.313z"/>
	<path d="M56.986,187.538c0.199-0.062,0.399-0.117,0.599-0.166C57.385,187.421,57.186,187.477,56.986,187.538z"/>
	<path d="M58.647,187.171c0.246-0.033,0.492-0.06,0.739-0.077C59.14,187.111,58.893,187.138,58.647,187.171z"/>
	<path d="M56.033,187.885c0.254-0.108,0.51-0.205,0.766-0.29C56.543,187.68,56.288,187.776,56.033,187.885z"/>
	<path d="M54.469,188.729c0.178-0.115,0.355-0.226,0.534-0.327C54.824,188.504,54.646,188.614,54.469,188.729z"/>
	<path d="M55.262,188.258c0.191-0.102,0.384-0.195,0.577-0.282C55.646,188.063,55.454,188.156,55.262,188.258z"/>
	<path d="M65.526,187.758c0.546,0.118,1.094,0.243,1.646,0.368C66.62,188.001,66.071,187.876,65.526,187.758z"/>
	<path d="M52.29,189.972c-0.639,0.232-1.29,0.394-1.951,0.498C51,190.365,51.651,190.204,52.29,189.972z"/>
	<path d="M43.104,190.544c0.706,0.004,1.415,0.028,2.125,0.057C44.519,190.572,43.81,190.548,43.104,190.544z"/>
	<path d="M34.332,192.654c-0.017-0.002-0.032-0.006-0.049-0.009C34.3,192.648,34.315,192.652,34.332,192.654z"/>
	<path d="M50.094,190.507c-0.667,0.093-1.342,0.138-2.023,0.15C48.752,190.645,49.428,190.6,50.094,190.507z"/>
	<path d="M33.917,192.558c-0.017-0.006-0.036-0.011-0.053-0.017C33.88,192.547,33.899,192.552,33.917,192.558z"/>
	<path d="M53.475,189.449c0.25-0.204,0.501-0.389,0.754-0.563C53.977,189.061,53.726,189.245,53.475,189.449z"/>
	<path d="M34.788,192.685c0.018,0,0.033,0.003,0.051,0.003c0.012,0,0.026-0.003,0.038-0.003
		C34.848,192.685,34.818,192.685,34.788,192.685z"/>
	<path d="M47.353,190.658c0.077,0,0.155,0.006,0.232,0.006c0.081,0,0.162-0.003,0.242-0.004
		C47.67,190.662,47.511,190.659,47.353,190.658z"/>
	<path d="M53.475,189.449c-0.312,0.168-0.628,0.306-0.947,0.432C52.847,189.755,53.164,189.617,53.475,189.449z"/>
	<path d="M57.156,203.363c-0.037-0.008-0.074-0.012-0.111-0.02C57.083,203.352,57.119,203.355,57.156,203.363z"/>
	<path d="M55.789,203.013c-0.102-0.031-0.205-0.064-0.307-0.099C55.584,202.948,55.687,202.981,55.789,203.013z"/>
	<path d="M58.604,203.574c-0.096-0.009-0.191-0.021-0.287-0.031C58.412,203.554,58.508,203.565,58.604,203.574z"/>
	<path d="M70.729,200.174c-0.272,0.084-0.549,0.193-0.827,0.302C70.18,200.367,70.458,200.258,70.729,200.174z"/>
	<path d="M61.925,187.148c-0.519-0.052-1.035-0.081-1.548-0.084C60.89,187.067,61.406,187.097,61.925,187.148z"/>
	<path d="M68.198,201.268c0.439-0.24,0.867-0.449,1.288-0.633C69.064,200.818,68.637,201.027,68.198,201.268z"/>
	<path d="M59.818,203.636c0.015,0,0.029,0.002,0.044,0.002c0.068,0,0.136-0.007,0.204-0.008
		C59.984,203.631,59.901,203.636,59.818,203.636z"/>
	<path d="M61.173,203.569c-0.115,0.011-0.23,0.022-0.347,0.03C60.942,203.592,61.058,203.58,61.173,203.569z"/>
	<path d="M65.365,187.724c-0.541-0.116-1.079-0.225-1.614-0.319C64.286,187.499,64.824,187.607,65.365,187.724z"/>
	<path d="M63.673,187.391c-0.545-0.095-1.088-0.174-1.627-0.23C62.585,187.217,63.127,187.296,63.673,187.391z"/>
	<path d="M72.47,189.09c0.045,0.005,0.091,0.009,0.136,0.013C72.561,189.099,72.516,189.095,72.47,189.09z"/>
	<path d="M68.836,188.494c0.055,0.012,0.109,0.022,0.164,0.034C68.945,188.517,68.891,188.506,68.836,188.494z"/>
	<path d="M71.216,200.052c0.245-0.062,0.489-0.124,0.731-0.165C71.705,199.928,71.46,199.99,71.216,200.052z"/>
	<path d="M70.677,188.848c0.023,0.004,0.046,0.009,0.069,0.013C70.723,188.856,70.7,188.852,70.677,188.848z"/>
	<path d="M75.931,194.628c-0.094-0.138-0.188-0.275-0.279-0.419C75.743,194.353,75.837,194.49,75.931,194.628z"/>
	<path d="M63.051,184.822c0.332,0.015,0.664,0.037,0.996,0.064C63.715,184.859,63.383,184.837,63.051,184.822z"/>
	<path d="M64.864,184.969c0.337,0.039,0.674,0.088,1.013,0.142C65.539,185.057,65.201,185.008,64.864,184.969z"/>
	<path d="M66.69,185.25c0.344,0.066,0.689,0.146,1.035,0.229C67.38,185.396,67.035,185.316,66.69,185.25z"/>
	<path d="M62.236,184.796c-0.135-0.002-0.271-0.013-0.406-0.013c-0.167,0-0.332,0.015-0.498,0.018
		C61.634,184.795,61.935,184.792,62.236,184.796z"/>
	<path d="M57.49,185.109c0.279-0.04,0.559-0.073,0.839-0.106C58.049,185.036,57.77,185.069,57.49,185.109z"/>
	<path d="M60.236,187.063c-0.268,0.002-0.535,0.009-0.801,0.026C59.701,187.071,59.968,187.064,60.236,187.063z"/>
	<path d="M60.253,184.838c-0.283,0.016-0.566,0.035-0.849,0.059C59.687,184.873,59.97,184.854,60.253,184.838z"/>
	<path d="M70.385,186.268c0.377,0.136,0.756,0.295,1.136,0.452C71.141,186.563,70.762,186.403,70.385,186.268z"/>
	<path d="M77.091,196.108c0.106,0.118,0.213,0.235,0.323,0.348C77.304,196.344,77.197,196.227,77.091,196.108z"/>
	<path d="M76.648,195.595c-0.103-0.127-0.204-0.256-0.304-0.388C76.444,195.339,76.546,195.468,76.648,195.595z"/>
	<path d="M74.284,189.187c0.026,0,0.052,0.004,0.078,0.004c0.016,0,0.031-0.003,0.046-0.003
		C74.367,189.188,74.326,189.187,74.284,189.187z"/>
	<path d="M55.586,185.424c0.274-0.053,0.549-0.099,0.824-0.146C56.135,185.325,55.86,185.372,55.586,185.424z"/>
	<path d="M74.147,187.966c0.633,0.346,1.27,0.721,1.91,1.134C75.417,188.687,74.781,188.313,74.147,187.966z"/>
	<path d="M68.53,185.68c0.356,0.098,0.714,0.213,1.072,0.329C69.245,185.893,68.887,185.777,68.53,185.68z"/>
	<path d="M72.257,187.025c0.421,0.19,0.846,0.409,1.27,0.628C73.103,187.435,72.678,187.216,72.257,187.025z"/>
	<path d="M33.31,192.115c-0.008-0.014-0.014-0.029-0.021-0.043C33.296,192.086,33.301,192.102,33.31,192.115z"/>
	<path d="M33.341,190.813c0.011-0.029,0.025-0.062,0.038-0.092C33.366,190.751,33.352,190.783,33.341,190.813z"/>
	<path d="M36.662,191.972c0.102-0.061,0.205-0.111,0.307-0.167C36.866,191.86,36.763,191.911,36.662,191.972z"/>
	<path d="M37.642,191.466c0.119-0.053,0.237-0.101,0.357-0.147C37.879,191.365,37.76,191.413,37.642,191.466z"/>
	<path d="M62.189,203.439c-0.115,0.02-0.229,0.035-0.344,0.052C61.96,203.475,62.075,203.459,62.189,203.439z"/>
	<path d="M33.514,192.344c0.017,0.014,0.035,0.026,0.053,0.039C33.548,192.37,33.531,192.357,33.514,192.344z"/>
	<path d="M33.182,191.746c0.001,0.01,0.005,0.019,0.006,0.028C33.187,191.765,33.183,191.756,33.182,191.746z"/>
	<path d="M38.661,191.086c0.117-0.036,0.234-0.074,0.353-0.105C38.896,191.012,38.778,191.05,38.661,191.086z"/>
	<path d="M51.8,186.305c0.261-0.07,0.522-0.135,0.783-0.201C52.322,186.17,52.061,186.234,51.8,186.305z"/>
	<path d="M49.918,186.841c0.245-0.073,0.49-0.141,0.736-0.212C50.408,186.7,50.163,186.768,49.918,186.841z"/>
	<path d="M48.043,187.421c0.205-0.065,0.41-0.127,0.615-0.191C48.453,187.294,48.248,187.355,48.043,187.421z"/>
	<path d="M39.757,190.81c0.092-0.018,0.183-0.04,0.275-0.056C39.94,190.77,39.85,190.792,39.757,190.81z"/>
	<path d="M53.689,185.828c0.269-0.063,0.539-0.12,0.809-0.179C54.228,185.708,53.958,185.765,53.689,185.828z"/>
	<path d="M42.131,190.554c0.114-0.004,0.229-0.004,0.344-0.006C42.36,190.55,42.246,190.55,42.131,190.554z"/>
	<path d="M41.071,190.616c0.04-0.004,0.081-0.005,0.121-0.008C41.152,190.611,41.111,190.612,41.071,190.616z"/>
	<path d="M255.987,103.262c0.112-0.015,0.213-0.034,0.34-0.043C256.2,103.228,256.1,103.247,255.987,103.262z"/>
	<path d="M111.9,71.558c-0.146-0.019-0.294-0.031-0.45-0.031c-0.016,0-0.034,0.003-0.05,0.003
		C111.572,71.528,111.739,71.537,111.9,71.558z"/>
	<path d="M113.391,72.435c0.107,0.153,0.207,0.322,0.291,0.524C113.597,72.757,113.498,72.588,113.391,72.435z"/>
	<path d="M112.5,71.709c0.146,0.058,0.28,0.137,0.409,0.229C112.78,71.846,112.645,71.767,112.5,71.709z"/>
	<path d="M113.33,72.349c-0.107-0.14-0.223-0.259-0.35-0.359C113.107,72.09,113.223,72.209,113.33,72.349z"/>
	<path d="M110.737,71.579c0.069-0.009,0.134-0.01,0.202-0.017C110.872,71.569,110.807,71.57,110.737,71.579z"/>
	<path d="M106.676,72.497c-0.152,0.027-0.303,0.052-0.453,0.072C106.374,72.549,106.524,72.524,106.676,72.497z"/>
	<path d="M111.997,71.574c0.167,0.028,0.33,0.066,0.481,0.125C112.327,71.64,112.165,71.602,111.997,71.574z"/>
	<path d="M108.374,72.11c-0.196,0.051-0.394,0.101-0.591,0.15C107.981,72.211,108.177,72.161,108.374,72.11z"/>
	<path d="M98.5,98.685c-0.037-0.007-0.074-0.012-0.109-0.021C98.426,98.673,98.464,98.677,98.5,98.685z"/>
	<path d="M109.85,71.743c0.062-0.014,0.126-0.03,0.188-0.043C109.976,71.713,109.912,71.729,109.85,71.743z"/>
	<path d="M98.015,98.519c-0.02-0.011-0.038-0.027-0.058-0.039C97.977,98.492,97.995,98.507,98.015,98.519z"/>
	<path d="M99.462,98.665c-0.027,0.006-0.051,0.007-0.078,0.012C99.411,98.671,99.436,98.67,99.462,98.665z"/>
	<path d="M98.824,98.722c0.025,0.001,0.047,0.008,0.072,0.008c0.021,0,0.046-0.007,0.067-0.007
		C98.917,98.724,98.87,98.723,98.824,98.722z"/>
	<path d="M100.147,98.437c-0.05,0.021-0.101,0.045-0.149,0.064C100.047,98.482,100.098,98.458,100.147,98.437z"/>
	<path d="M105.159,72.632c-0.185-0.004-0.367-0.022-0.546-0.047C104.792,72.61,104.974,72.628,105.159,72.632z"/>
	<path d="M100.762,98.129c-0.058,0.034-0.115,0.064-0.172,0.095C100.647,98.193,100.704,98.163,100.762,98.129z"/>
	<path d="M105.896,72.604c-0.146,0.014-0.29,0.022-0.433,0.027C105.606,72.627,105.75,72.619,105.896,72.604z"/>
	<path d="M76.905,62.446c-0.258,0.073-0.518,0.149-0.778,0.226C76.387,62.595,76.646,62.52,76.905,62.446z"/>
	<path d="M74.609,63.129c-0.105,0.032-0.211,0.063-0.316,0.095C74.398,63.192,74.504,63.161,74.609,63.129z"/>
	<path d="M87.918,64.248c0.055,0.058,0.109,0.121,0.164,0.181C88.028,64.368,87.973,64.306,87.918,64.248z"/>
	<path d="M72.687,63.686c-0.007,0.002-0.015,0.004-0.022,0.006C72.672,63.69,72.679,63.688,72.687,63.686z"/>
	<path d="M97.413,97.95c-0.023-0.035-0.048-0.067-0.069-0.104C97.365,97.883,97.39,97.915,97.413,97.95z"/>
	<path d="M73.733,63.389c-0.088,0.026-0.176,0.052-0.264,0.078C73.557,63.441,73.646,63.415,73.733,63.389z"/>
	<path d="M77.678,62.237c-0.222,0.058-0.443,0.118-0.666,0.18C77.235,62.355,77.457,62.294,77.678,62.237z"/>
	<path d="M79.235,61.879c-0.163,0.032-0.327,0.065-0.49,0.101C78.909,61.945,79.072,61.911,79.235,61.879z"/>
	<path d="M78.454,62.046c-0.171,0.04-0.343,0.082-0.516,0.125C78.11,62.127,78.282,62.085,78.454,62.046z"/>
	<path d="M107.483,72.33c-0.162,0.038-0.323,0.074-0.484,0.107C107.161,72.404,107.322,72.368,107.483,72.33z"/>
	<path d="M75.286,62.924c0.169-0.051,0.338-0.102,0.507-0.152C75.624,62.823,75.455,62.873,75.286,62.924z"/>
	<path d="M103.629,72.321c0.236,0.107,0.484,0.177,0.737,0.229C104.113,72.498,103.865,72.428,103.629,72.321z"/>
	<path d="M108.785,72.003c0.17-0.044,0.339-0.088,0.506-0.13C109.125,71.915,108.955,71.959,108.785,72.003z"/>
	<path d="M71.078,64.078c-0.096,0.021-0.192,0.039-0.288,0.058C70.886,64.117,70.982,64.098,71.078,64.078z"/>
	<path d="M71.874,63.896c-0.08,0.02-0.16,0.038-0.24,0.057C71.714,63.933,71.794,63.916,71.874,63.896z"/>
	<path d="M69.436,64.355c-0.086,0.01-0.172,0.022-0.258,0.032C69.263,64.378,69.35,64.366,69.436,64.355z"/>
	<path d="M70.272,64.232c-0.099,0.017-0.197,0.034-0.296,0.049C70.075,64.266,70.174,64.249,70.272,64.232z"/>
	<path d="M138.294,50.096c0.056-0.007,0.109-0.009,0.164-0.014C138.404,50.086,138.35,50.088,138.294,50.096z"/>
	<path d="M142.219,51.28c0.018,0.011,0.036,0.022,0.053,0.034C142.255,51.303,142.237,51.292,142.219,51.28z"/>
	<path d="M143.447,52.056c-0.185-0.111-0.367-0.227-0.55-0.343C143.08,51.829,143.263,51.944,143.447,52.056z"/>
	<path d="M138.931,50.063c-0.025,0-0.048-0.006-0.073-0.006c-0.02,0-0.041,0.003-0.061,0.004
		C138.842,50.06,138.886,50.063,138.931,50.063z"/>
	<path d="M144.131,52.442c-0.198-0.102-0.393-0.214-0.587-0.329C143.738,52.228,143.933,52.34,144.131,52.442z"/>
	<path d="M140.93,50.559c0.036,0.017,0.072,0.034,0.108,0.052C141.002,50.593,140.966,50.576,140.93,50.559z"/>
	<path d="M140.248,50.29c0.032,0.01,0.065,0.02,0.097,0.031C140.313,50.309,140.28,50.3,140.248,50.29z"/>
	<path d="M139.602,50.123c0.003,0,0.006,0.001,0.01,0.002C139.608,50.124,139.604,50.123,139.602,50.123z"/>
	<path d="M97.154,97.434c-0.006-0.017-0.01-0.038-0.015-0.056C97.145,97.396,97.148,97.417,97.154,97.434z"/>
	<path d="M141.604,50.909c0.023,0.013,0.045,0.027,0.068,0.04C141.649,50.936,141.626,50.922,141.604,50.909z"/>
	<path d="M149.935,56.37c0.021,0.005,0.042,0.012,0.063,0.018C149.977,56.381,149.956,56.375,149.935,56.37z"/>
	<path d="M149.5,56.317c-0.011,0-0.018-0.003-0.029-0.003c-0.017,0-0.041,0.005-0.059,0.005
		C149.441,56.319,149.473,56.317,149.5,56.317z"/>
	<path d="M150.328,56.563c-0.011-0.009-0.021-0.02-0.032-0.029C150.308,56.543,150.317,56.554,150.328,56.563z"/>
	<path d="M145.561,54.536c-0.025-0.079-0.054-0.156-0.077-0.238C145.506,54.38,145.535,54.457,145.561,54.536z"/>
	<path d="M145.704,54.926c0.034,0.08,0.074,0.154,0.113,0.229C145.778,55.081,145.738,55.006,145.704,54.926z"/>
	<path d="M146.62,56.068c-0.072-0.046-0.139-0.098-0.204-0.151C146.481,55.971,146.548,56.022,146.62,56.068z"/>
	<path d="M147.21,56.33c-0.091-0.025-0.17-0.061-0.252-0.094C147.04,56.269,147.119,56.305,147.21,56.33z"/>
	<path d="M145.322,53.61c0.014,0.07,0.031,0.136,0.046,0.205C145.354,53.746,145.336,53.68,145.322,53.61z"/>
	<path d="M175.277,173.426c-0.009,0-0.02-0.003-0.027-0.003c-0.039,0-0.07,0.006-0.104,0.01
		C175.187,173.428,175.229,173.425,175.277,173.426z"/>
	<path d="M175.609,173.467c0.027,0.006,0.057,0.014,0.085,0.021C175.665,173.479,175.638,173.473,175.609,173.467z"/>
	<path d="M176.445,173.805c-0.02-0.014-0.038-0.027-0.061-0.041C176.406,173.777,176.426,173.791,176.445,173.805z"/>
	<path d="M174.949,173.492c0.035-0.026,0.085-0.043,0.142-0.054C175.034,173.449,174.984,173.466,174.949,173.492z"/>
	<path d="M97.033,96.94c-0.01-0.055-0.016-0.113-0.023-0.17C97.017,96.827,97.023,96.885,97.033,96.94z"/>
	<path d="M176.07,173.604c-0.019-0.008-0.037-0.013-0.056-0.02C176.033,173.592,176.052,173.597,176.07,173.604z"/>
	<path d="M97.602,98.19c0.03,0.031,0.059,0.063,0.09,0.091C97.661,98.253,97.631,98.221,97.602,98.19z"/>
	<path d="M150.627,57.144c-0.002-0.013-0.006-0.025-0.008-0.037C150.621,57.12,150.625,57.131,150.627,57.144z"/>
	<path d="M179.926,186.725c-0.286-0.004-0.563-0.047-0.822-0.15C179.363,186.678,179.639,186.721,179.926,186.725z"/>
	<path d="M180.508,186.689c0.066-0.008,0.134-0.018,0.201-0.027c0-0.001,0.001-0.002,0.001-0.002
		C180.643,186.67,180.574,186.682,180.508,186.689z"/>
	<path d="M180.383,186.702c-0.112,0.011-0.224,0.018-0.334,0.021C180.159,186.72,180.271,186.713,180.383,186.702z"/>
	<path d="M27.08,123.868c0.131,0.125,0.264,0.249,0.406,0.357C27.344,124.117,27.211,123.994,27.08,123.868z"/>
	<path d="M30.771,125.29c0.237,0,0.48-0.012,0.729-0.038c-0.322,0.033-0.628,0.032-0.93,0.022
		C30.639,125.276,30.702,125.29,30.771,125.29z"/>
	<path d="M178.719,186.358c0.09,0.064,0.182,0.12,0.276,0.165C178.9,186.479,178.809,186.423,178.719,186.358z"/>
	<path d="M178.614,186.281c-0.117-0.099-0.231-0.21-0.337-0.35C178.383,186.071,178.497,186.183,178.614,186.281z"/>
	<path d="M42.422,121.947c-0.506,0.119-1.002,0.201-1.492,0.266C41.42,122.148,41.916,122.066,42.422,121.947z"/>
	<path d="M96.974,96.171c0,0.063,0.003,0.122,0.005,0.183C96.977,96.293,96.974,96.234,96.974,96.171z"/>
	<path d="M37.605,125.784c0.004,0,0.009,0.001,0.013,0.001c0.75,0,1.469-0.103,2.128-0.395
		C39.084,125.684,38.36,125.786,37.605,125.784z"/>
	<path d="M51.093,133.372c-0.019,0.145-0.04,0.291-0.04,0.423C51.053,133.662,51.074,133.516,51.093,133.372z"/>
	<path d="M51.113,133.171c0.042-0.222,0.104-0.457,0.192-0.705C51.218,132.715,51.155,132.95,51.113,133.171z"/>
	<path d="M52.374,131.51c0.059-0.041,0.117-0.082,0.176-0.12C52.491,131.428,52.433,131.469,52.374,131.51z"/>
	<path d="M51.979,131.813c-0.055,0.046-0.109,0.09-0.163,0.138C51.87,131.902,51.925,131.858,51.979,131.813z"/>
	<path d="M29.305,117.496c-0.176-0.207-0.348-0.396-0.517-0.574C28.958,117.101,29.128,117.289,29.305,117.496z"/>
	<path d="M157.21,213.225c-0.349,0.126-0.698,0.249-1.047,0.358C156.512,213.474,156.861,213.351,157.21,213.225z"/>
	<path d="M61.299,134.847c-0.099,0.094-0.198,0.188-0.3,0.269C61.102,135.036,61.2,134.941,61.299,134.847z"/>
	<path d="M33.627,125.322c0.423,0.052,0.85,0.116,1.278,0.182C34.477,125.438,34.05,125.375,33.627,125.322z"/>
	<path d="M56.742,130.373c-0.021,0-0.043-0.003-0.065-0.003c-0.032,0-0.063,0.002-0.096,0.003
		C56.635,130.373,56.688,130.373,56.742,130.373z"/>
	<path d="M30.122,125.24c-0.189-0.02-0.375-0.045-0.556-0.082C29.747,125.194,29.933,125.22,30.122,125.24z"/>
	<path d="M56.057,130.388c-0.054,0.002-0.107,0.003-0.161,0.007C55.95,130.392,56.004,130.391,56.057,130.388z"/>
	<path d="M61.871,134.203c-0.136,0.187-0.278,0.354-0.423,0.506C61.593,134.557,61.735,134.39,61.871,134.203z"/>
	<path d="M58.262,130.444c0.031,0.002,0.062,0.005,0.092,0.008C58.323,130.449,58.292,130.446,58.262,130.444z"/>
	<path d="M55.234,130.459c-0.051,0.007-0.101,0.017-0.151,0.024C55.133,130.476,55.184,130.466,55.234,130.459z"/>
	<path d="M54.581,130.574c-0.069,0.015-0.138,0.031-0.207,0.048C54.443,130.605,54.512,130.589,54.581,130.574z"/>
	<path d="M53.908,130.756c-0.058,0.019-0.116,0.035-0.173,0.056C53.792,130.791,53.851,130.774,53.908,130.756z"/>
	<path d="M30.206,118.463c-0.309-0.308-0.611-0.626-0.901-0.967C29.595,117.836,29.897,118.155,30.206,118.463z"/>
	<path d="M40.386,125.032c-0.085,0.059-0.177,0.098-0.265,0.149C40.208,125.129,40.301,125.091,40.386,125.032z"/>
	<path d="M25.741,121.921c-0.139-0.322-0.262-0.663-0.362-1.026C25.479,121.258,25.602,121.599,25.741,121.921z"/>
	<path d="M34.918,121.569c-0.35-0.132-0.693-0.282-1.031-0.446C34.225,121.287,34.568,121.437,34.918,121.569z"/>
	<path d="M33.659,121.012c-0.358-0.183-0.708-0.383-1.05-0.602C32.951,120.629,33.301,120.829,33.659,121.012z"/>
	<path d="M39.286,122.331c0.453-0.004,0.912-0.031,1.379-0.083C40.198,122.299,39.738,122.327,39.286,122.331z"/>
	<path d="M36.487,122.036c0.401,0.09,0.807,0.167,1.223,0.215C37.294,122.202,36.888,122.126,36.487,122.036z"/>
	<path d="M39.006,122.328c-0.406-0.005-0.808-0.025-1.201-0.069C38.198,122.302,38.6,122.322,39.006,122.328z"/>
	<path d="M25.894,122.222c0.102,0.207,0.204,0.413,0.322,0.601C26.098,122.635,25.996,122.429,25.894,122.222z"/>
	<path d="M36.362,125.703c-0.061-0.007-0.121-0.011-0.181-0.019C36.242,125.691,36.302,125.696,36.362,125.703z"/>
	<path d="M27.09,115.618c0.173,0.078,0.344,0.169,0.512,0.278C27.435,115.788,27.264,115.696,27.09,115.618z"/>
	<path d="M27.69,115.96c0.14,0.096,0.279,0.201,0.419,0.318C27.97,116.161,27.831,116.055,27.69,115.96z"/>
	<path d="M26.544,115.432c0.137,0.035,0.271,0.079,0.402,0.13C26.815,115.511,26.681,115.467,26.544,115.432z"/>
	<path d="M24.334,115.539c0.265-0.074,0.514-0.127,0.752-0.162C24.848,115.412,24.599,115.465,24.334,115.539z"/>
	<path d="M28.637,116.769c-0.123-0.125-0.246-0.241-0.367-0.35C28.392,116.528,28.514,116.644,28.637,116.769z"/>
	<path d="M25.773,115.329c-0.018,0-0.033-0.003-0.051-0.003c-0.131,0-0.272,0.019-0.41,0.033
		C25.469,115.343,25.626,115.327,25.773,115.329z"/>
	<path d="M25.92,115.34c0.152,0.008,0.3,0.025,0.444,0.052C26.22,115.365,26.072,115.348,25.92,115.34z"/>
	<path d="M84.384,57.997c0.103,0.007,0.207,0.016,0.31,0.023C84.59,58.013,84.487,58.004,84.384,57.997z"/>
	<path d="M86.84,63.265c-0.06-0.047-0.121-0.09-0.181-0.134C86.72,63.175,86.78,63.218,86.84,63.265z"/>
	<path d="M87.386,63.722c-0.013-0.012-0.025-0.021-0.038-0.033C87.36,63.701,87.374,63.71,87.386,63.722z"/>
	<path d="M31.5,119.618c0.296,0.234,0.6,0.453,0.91,0.659C32.1,120.071,31.796,119.852,31.5,119.618z"/>
	<path d="M86.28,62.866c-0.066-0.043-0.133-0.086-0.199-0.126C86.147,62.78,86.213,62.822,86.28,62.866z"/>
	<path d="M89.155,65.785c-0.053-0.077-0.107-0.149-0.161-0.224C89.048,65.635,89.102,65.708,89.155,65.785z"/>
	<path d="M80.047,61.741c-0.174,0.025-0.348,0.052-0.523,0.083C79.699,61.793,79.873,61.767,80.047,61.741z"/>
	<path d="M81.636,57.9c-0.186,0-0.372,0.001-0.557,0.004c0.271-0.004,0.542,0.003,0.813,0.004
		C81.807,57.909,81.722,57.9,81.636,57.9z"/>
	<path d="M85.688,62.515c-0.059-0.031-0.116-0.064-0.175-0.094C85.571,62.45,85.629,62.483,85.688,62.515z"/>
	<path d="M88.634,65.08c-0.061-0.077-0.122-0.153-0.183-0.227C88.512,64.927,88.573,65.003,88.634,65.08z"/>
	<path d="M82.369,61.611c-0.023-0.001-0.047-0.001-0.07-0.002C82.322,61.61,82.346,61.609,82.369,61.611z"/>
	<path d="M81.129,61.624c0.218-0.014,0.435-0.022,0.651-0.024C81.564,61.602,81.347,61.61,81.129,61.624z"/>
	<path d="M84.945,62.162c-0.018-0.007-0.036-0.012-0.054-0.019C84.91,62.15,84.928,62.155,84.945,62.162z"/>
	<path d="M81.039,61.628c-0.25,0.018-0.5,0.045-0.751,0.078C80.539,61.673,80.79,61.646,81.039,61.628z"/>
	<path d="M84.366,61.959c-0.063-0.02-0.127-0.036-0.191-0.054C84.239,61.923,84.302,61.939,84.366,61.959z"/>
	<path d="M83.771,61.803c-0.069-0.016-0.138-0.03-0.208-0.044C83.633,61.772,83.702,61.787,83.771,61.803z"/>
	<path d="M83.141,61.688c-0.058-0.008-0.115-0.018-0.173-0.025C83.025,61.67,83.083,61.68,83.141,61.688z"/>
	<path d="M51.292,134.778c-0.045-0.078-0.074-0.169-0.106-0.258C51.219,134.608,51.248,134.7,51.292,134.778z"/>
	<path d="M58.75,135.967c-0.104,0.01-0.208,0.017-0.313,0.021C58.542,135.983,58.646,135.977,58.75,135.967z"/>
	<path d="M58.014,135.995c0.031,0,0.062,0.005,0.093,0.005c0.032,0,0.063-0.003,0.095-0.003
		C58.139,135.998,58.077,135.995,58.014,135.995z"/>
	<path d="M51.41,134.934c0.052,0.068,0.101,0.138,0.163,0.195C51.51,135.072,51.461,135.001,51.41,134.934z"/>
	<path d="M54.639,135.639c0.368,0.04,0.739,0.09,1.111,0.142C55.378,135.729,55.007,135.679,54.639,135.639z"/>
	<path d="M32.205,125.22c0.398,0.001,0.808,0.035,1.222,0.081C33.013,125.255,32.603,125.221,32.205,125.22z"/>
	<path d="M59.286,135.888c-0.1,0.02-0.2,0.037-0.301,0.051C59.086,135.925,59.187,135.908,59.286,135.888z"/>
	<path d="M60.317,135.54c-0.095,0.047-0.189,0.092-0.286,0.131C60.128,135.632,60.223,135.586,60.317,135.54z"/>
	<path d="M59.809,135.749c-0.096,0.032-0.193,0.062-0.292,0.087C59.615,135.811,59.712,135.781,59.809,135.749z"/>
	<path d="M56.98,135.934c-0.054-0.005-0.108-0.012-0.162-0.018C56.872,135.922,56.926,135.928,56.98,135.934z"/>
	<path d="M60.811,135.248c-0.094,0.065-0.188,0.131-0.285,0.186C60.623,135.378,60.717,135.313,60.811,135.248z"/>
	<path d="M51.116,134.332c-0.024-0.101-0.031-0.215-0.041-0.327C51.085,134.117,51.092,134.231,51.116,134.332z"/>
	<path d="M52.856,135.575c0.052,0,0.104-0.001,0.158-0.004c-0.131,0.007-0.249-0.007-0.369-0.018
		C52.717,135.559,52.781,135.575,52.856,135.575z"/>
	<path d="M52.406,135.528c-0.091-0.018-0.173-0.047-0.257-0.075C52.232,135.481,52.314,135.511,52.406,135.528z"/>
	<path d="M53.465,135.564c0.343,0.002,0.693,0.026,1.045,0.062C54.158,135.59,53.809,135.566,53.465,135.564z"/>
	<path d="M51.946,135.381c-0.077-0.037-0.144-0.087-0.212-0.135C51.803,135.293,51.869,135.343,51.946,135.381z"/>
	<path d="M53.129,131.062c-0.031,0.015-0.061,0.034-0.091,0.049C53.069,131.096,53.098,131.077,53.129,131.062z"/>
	<path d="M36.212,121.971c-0.395-0.099-0.785-0.213-1.165-0.351C35.427,121.758,35.817,121.872,36.212,121.971z"/>
	<path d="M254.439,104.93c-0.024-0.061-0.053-0.124-0.069-0.184C254.387,104.806,254.415,104.868,254.439,104.93z"/>
	<path d="M214.496,108.228c0.155-0.087,0.316-0.156,0.479-0.214C214.813,108.072,214.651,108.141,214.496,108.228z"/>
	<path d="M256.035,107.275c-0.264-0.402-0.753-0.954-1.143-1.521C255.282,106.321,255.771,106.873,256.035,107.275z"/>
	<path d="M254.612,105.298c-0.041-0.074-0.084-0.149-0.117-0.222C254.528,105.149,254.571,105.224,254.612,105.298z"/>
	<path d="M26.439,123.132c0.116,0.159,0.231,0.318,0.359,0.461C26.671,123.45,26.555,123.291,26.439,123.132z"/>
	<path d="M215.479,107.876c-0.113,0.023-0.226,0.055-0.337,0.088C215.253,107.931,215.365,107.9,215.479,107.876z"/>
	<path d="M216.558,107.774c-0.117,0.001-0.234,0.005-0.35,0.012C216.323,107.779,216.44,107.775,216.558,107.774z"/>
	<path d="M216.728,107.772c0.32,0.002,0.645,0.016,0.972,0.032C217.372,107.788,217.048,107.774,216.728,107.772z"/>
	<path d="M216.005,107.801c-0.111,0.01-0.221,0.025-0.33,0.042C215.784,107.826,215.894,107.811,216.005,107.801z"/>
	<path d="M254.924,103.542c0.061-0.03,0.111-0.063,0.183-0.09C255.035,103.479,254.984,103.512,254.924,103.542z"/>
	<path d="M254.608,103.75c0.039-0.036,0.068-0.075,0.117-0.108C254.677,103.676,254.647,103.714,254.608,103.75z"/>
	<path d="M255.383,103.376c0.084-0.022,0.156-0.049,0.252-0.067C255.539,103.327,255.467,103.354,255.383,103.376z"/>
	<path d="M254.674,105.414c0.057,0.094,0.119,0.189,0.183,0.283C254.793,105.603,254.73,105.508,254.674,105.414z"/>
	<path d="M254.314,104.432c0.003,0.051,0.019,0.105,0.027,0.158C254.333,104.537,254.317,104.483,254.314,104.432z"/>
	<path d="M254.477,103.874c-0.028,0.039-0.041,0.083-0.062,0.124C254.436,103.956,254.448,103.912,254.477,103.874z"/>
	<path d="M254.33,104.279c0.005-0.047,0.003-0.096,0.016-0.141C254.333,104.184,254.335,104.232,254.33,104.279z"/>
	<path d="M187.858,72.276c0.026,0.033,0.053,0.064,0.079,0.098C187.911,72.34,187.885,72.309,187.858,72.276z"/>
	<path d="M187.626,72.001c0.03,0.035,0.062,0.068,0.092,0.104C187.688,72.069,187.656,72.036,187.626,72.001z"/>
	<path d="M257.219,103.187c-0.015,0-0.029,0-0.044,0c-0.153,0-0.276,0.01-0.415,0.015
		C256.912,103.197,257.049,103.187,257.219,103.187z"/>
	<path d="M187.18,71.553c0.031,0.026,0.062,0.052,0.092,0.08C187.241,71.604,187.211,71.579,187.18,71.553z"/>
	<path d="M187.495,71.855c-0.031-0.033-0.062-0.062-0.092-0.093C187.434,71.793,187.465,71.823,187.495,71.855z"/>
	<path d="M186.96,71.38c0.03,0.021,0.062,0.042,0.093,0.066C187.021,71.422,186.991,71.402,186.96,71.38z"/>
	<path d="M27.816,124.451c0.147,0.095,0.298,0.185,0.455,0.265C28.114,124.637,27.964,124.546,27.816,124.451z"/>
	<path d="M186.544,71.179c0.029,0.007,0.058,0.014,0.088,0.025C186.602,71.193,186.573,71.186,186.544,71.179z"/>
	<path d="M218.682,107.836c0.023,0,0.048,0.002,0.071,0.002c0.011,0,0.022-0.001,0.033-0.001
		C218.752,107.838,218.717,107.837,218.682,107.836z"/>
	<path d="M186.748,71.254c0.03,0.015,0.06,0.029,0.09,0.047C186.808,71.283,186.778,71.269,186.748,71.254z"/>
	<path d="M219.729,107.775c-0.095,0.013-0.189,0.023-0.284,0.032C219.54,107.798,219.635,107.788,219.729,107.775z"/>
	<path d="M219.261,107.823c-0.103,0.006-0.207,0.009-0.311,0.011C219.055,107.832,219.157,107.829,219.261,107.823z"/>
	<path d="M222.076,106.534c-0.129,0.146-0.262,0.275-0.396,0.392C221.814,106.809,221.947,106.681,222.076,106.534z"/>
	<path d="M220.646,107.541c-0.087,0.033-0.174,0.064-0.261,0.091C220.472,107.605,220.559,107.574,220.646,107.541z"/>
	<path d="M221.092,107.33c-0.086,0.048-0.172,0.095-0.26,0.135C220.92,107.425,221.006,107.378,221.092,107.33z"/>
	<path d="M220.19,107.685c-0.089,0.022-0.179,0.041-0.269,0.058C220.012,107.726,220.102,107.707,220.19,107.685z"/>
	<path d="M221.538,107.034c-0.091,0.07-0.181,0.14-0.274,0.199C221.357,107.174,221.447,107.104,221.538,107.034z"/>
	<path d="M266.646,138.937c-0.125-0.042-0.249-0.08-0.373-0.119C266.397,138.857,266.521,138.895,266.646,138.937z"/>
	<path d="M227.938,183.09c-0.329-0.049-0.644-0.115-0.943-0.201C227.294,182.975,227.608,183.041,227.938,183.09z"/>
	<path d="M228.205,183.131c0.362,0.042,0.735,0.069,1.131,0.069c0.044,0,0.092-0.005,0.136-0.006
		C229.028,183.199,228.607,183.178,228.205,183.131z"/>
	<path d="M223.938,180.851c0.224,0.288,0.467,0.546,0.728,0.78C224.405,181.396,224.162,181.139,223.938,180.851z"/>
	<path d="M223.178,179.606c-0.176-0.358-0.337-0.738-0.477-1.151C222.841,178.868,223.002,179.248,223.178,179.606z"/>
	<path d="M186.437,71.161c-0.015-0.001-0.029-0.007-0.043-0.007c-0.017,0-0.031,0.006-0.047,0.008
		C186.376,71.159,186.406,71.159,186.437,71.161z"/>
	<path d="M239.246,180.613c-0.704,0.296-1.376,0.558-2.033,0.804C237.87,181.171,238.542,180.909,239.246,180.613z"/>
	<path d="M232.781,182.772c-0.534,0.118-1.049,0.213-1.541,0.281C231.732,182.985,232.247,182.891,232.781,182.772z"/>
	<path d="M222.649,178.281c-0.119-0.373-0.223-0.771-0.314-1.188C222.427,177.511,222.53,177.908,222.649,178.281z"/>
	<path d="M159.014,212.492c-0.383,0.173-0.767,0.342-1.149,0.492C158.247,212.834,158.631,212.665,159.014,212.492z"/>
	<path d="M222.258,176.731c-0.095-0.483-0.177-0.987-0.237-1.527C222.081,175.744,222.163,176.248,222.258,176.731z"/>
	<path d="M234.689,182.272c-0.536,0.159-1.051,0.296-1.55,0.415C233.639,182.568,234.153,182.432,234.689,182.272z"/>
	<path d="M225.582,182.294c-0.257-0.149-0.498-0.319-0.727-0.507C225.084,181.975,225.325,182.145,225.582,182.294z"/>
	<path d="M150.524,56.809c-0.002-0.004-0.003-0.008-0.005-0.012C150.521,56.801,150.522,56.805,150.524,56.809z"/>
	<path d="M221.867,171.08c-0.015,0.67-0.008,1.301,0.01,1.914C221.859,172.381,221.853,171.75,221.867,171.08z"/>
	<path d="M222.009,175.063c-0.054-0.505-0.089-1.039-0.113-1.593C221.92,174.023,221.955,174.558,222.009,175.063z"/>
	<path d="M223.312,179.86c0.159,0.297,0.332,0.576,0.519,0.833C223.644,180.437,223.471,180.157,223.312,179.86z"/>
	<path d="M230.968,183.086c-0.434,0.053-0.85,0.086-1.249,0.099C230.118,183.172,230.534,183.139,230.968,183.086z"/>
	<path d="M259.308,137.779c-0.343,0.005-0.686,0.016-1.026,0.036C258.622,137.795,258.965,137.785,259.308,137.779z"/>
	<path d="M257.766,137.854c-0.318,0.027-0.637,0.06-0.953,0.099C257.129,137.913,257.447,137.88,257.766,137.854z"/>
	<path d="M256.309,138.017c-0.351,0.051-0.7,0.111-1.048,0.176C255.608,138.128,255.958,138.068,256.309,138.017z"/>
	<path d="M265.388,138.554c-0.133-0.037-0.265-0.073-0.397-0.107C265.123,138.481,265.255,138.518,265.388,138.554z"/>
	<path d="M254.887,138.26c-0.467,0.094-0.932,0.2-1.395,0.318C253.955,138.46,254.42,138.354,254.887,138.26z"/>
	<path d="M264.037,138.228c-0.089-0.019-0.18-0.041-0.269-0.059C263.857,138.187,263.948,138.208,264.037,138.228z"/>
	<path d="M262.574,137.971c-0.104-0.015-0.209-0.024-0.313-0.037C262.365,137.947,262.47,137.956,262.574,137.971z"/>
	<path d="M250.167,139.62c-0.314,0.115-0.627,0.235-0.94,0.358C249.54,139.854,249.853,139.735,250.167,139.62z"/>
	<path d="M260.971,137.814c0.134,0.008,0.269,0.017,0.403,0.028C261.239,137.832,261.104,137.823,260.971,137.814z"/>
	<path d="M247.418,140.728c0.453-0.2,0.908-0.39,1.363-0.575C248.326,140.338,247.871,140.528,247.418,140.728z"/>
	<path d="M28.646,124.882c0.164,0.066,0.332,0.125,0.505,0.174C28.979,125.006,28.811,124.948,28.646,124.882z"/>
	<path d="M260.138,137.78c-0.121-0.003-0.242-0.008-0.362-0.008C259.896,137.772,260.017,137.777,260.138,137.78z"/>
	<path d="M251.588,139.133c-0.305,0.098-0.607,0.198-0.91,0.305C250.98,139.331,251.283,139.23,251.588,139.133z"/>
	<path d="M236.76,181.584c-0.639,0.231-1.259,0.443-1.852,0.625C235.501,182.027,236.121,181.815,236.76,181.584z"/>
	<path d="M253.14,138.675c-0.351,0.094-0.7,0.192-1.05,0.298C252.439,138.867,252.789,138.769,253.14,138.675z"/>
	<path d="M225.764,182.404c0.31,0.166,0.64,0.305,0.988,0.418C226.403,182.709,226.073,182.57,225.764,182.404z"/>
	<path d="M149.174,75.752c-0.046-0.234-0.107-0.443-0.175-0.64C149.066,75.309,149.128,75.518,149.174,75.752z"/>
	<path d="M142.308,81.844c-0.021,0.004-0.04,0.01-0.061,0.014C142.268,81.854,142.287,81.849,142.308,81.844z"/>
	<path d="M141.71,81.899c0.016,0,0.032,0.003,0.047,0.003c0.014,0,0.027-0.003,0.042-0.004
		C141.77,81.899,141.74,81.899,141.71,81.899z"/>
	<path d="M147.504,73.581c-0.075-0.012-0.15-0.024-0.228-0.024c-0.026,0-0.054,0.013-0.08,0.014
		C147.301,73.565,147.403,73.565,147.504,73.581z"/>
	<path d="M148.693,74.444c-0.091-0.146-0.189-0.272-0.295-0.382C148.504,74.172,148.603,74.298,148.693,74.444z"/>
	<path d="M148.315,73.986c-0.087-0.081-0.179-0.15-0.274-0.208C148.137,73.836,148.229,73.905,148.315,73.986z"/>
	<path d="M147.95,73.724c-0.122-0.062-0.248-0.109-0.379-0.136C147.702,73.614,147.828,73.662,147.95,73.724z"/>
	<path d="M148.74,74.533c0.073,0.128,0.141,0.271,0.201,0.425C148.881,74.803,148.813,74.661,148.74,74.533z"/>
	<path d="M151.262,99.685c-0.05-0.023-0.101-0.046-0.158-0.065C151.161,99.639,151.212,99.662,151.262,99.685z"/>
	<path d="M151.42,100.31c0.075-0.083,0.114-0.159,0.13-0.229C151.534,100.151,151.495,100.227,151.42,100.31z"/>
	<path d="M151.521,99.891c0.021,0.037,0.023,0.08,0.024,0.123C151.544,99.97,151.542,99.928,151.521,99.891z"/>
	<path d="M141.868,115.86c0.269,0,0.543,0.027,0.824,0.084C142.411,115.886,142.137,115.86,141.868,115.86z"/>
	<path d="M150.268,99.466c-0.085-0.006-0.168-0.01-0.251-0.012C150.1,99.456,150.183,99.459,150.268,99.466z"/>
	<path d="M151.464,99.826c-0.029-0.031-0.06-0.062-0.103-0.088C151.404,99.765,151.435,99.795,151.464,99.826z"/>
	<path d="M150.633,99.509c-0.075-0.012-0.151-0.021-0.229-0.029C150.481,99.488,150.558,99.497,150.633,99.509z"/>
	<path d="M150.975,99.581c-0.064-0.017-0.131-0.033-0.2-0.046C150.844,99.548,150.91,99.563,150.975,99.581z"/>
	<path d="M140.313,81.55c0.023,0.012,0.044,0.025,0.068,0.037C140.357,81.575,140.336,81.562,140.313,81.55z"/>
	<path d="M147.956,56.435c-0.104-0.002-0.192-0.021-0.289-0.031C147.764,56.414,147.852,56.432,147.956,56.435z"/>
	<path d="M31.354,119.504c-0.324-0.263-0.637-0.544-0.944-0.84C30.716,118.96,31.03,119.242,31.354,119.504z"/>
	<path d="M142.608,66.401c0.285,0,0.573-0.009,0.862-0.025c-0.395,0.021-0.787,0.031-1.172,0.021
		C142.401,66.4,142.505,66.401,142.608,66.401z"/>
	<path d="M146.163,55.671c-0.055-0.063-0.107-0.128-0.156-0.198C146.056,55.543,146.108,55.608,146.163,55.671z"/>
	<path d="M146.667,73.676c0.058-0.021,0.114-0.028,0.172-0.043C146.781,73.647,146.725,73.655,146.667,73.676z"/>
	<path d="M150.648,57.547c0-0.021,0-0.043,0-0.064C150.648,57.504,150.648,57.526,150.648,57.547z"/>
	<path d="M150.56,58.363c-0.023,0.152-0.048,0.304-0.068,0.454C150.512,58.667,150.536,58.515,150.56,58.363z"/>
	<path d="M150.621,57.91c-0.003,0.027-0.006,0.054-0.01,0.081C150.615,57.963,150.618,57.937,150.621,57.91z"/>
	<path d="M186.107,71.249c-0.027,0.02-0.055,0.045-0.081,0.072C186.053,71.294,186.08,71.269,186.107,71.249z"/>
	<path d="M139.581,80.96c0.019,0.023,0.037,0.048,0.057,0.07C139.617,81.008,139.6,80.983,139.581,80.96z"/>
	<path d="M141.251,81.859c0.014,0.002,0.027,0.006,0.041,0.008C141.278,81.865,141.265,81.861,141.251,81.859z"/>
	<path d="M133.804,119.325c0.022-0.003,0.044-0.008,0.067-0.011C133.849,119.317,133.827,119.322,133.804,119.325z"/>
	<path d="M139.224,80.201c-0.006-0.033-0.011-0.067-0.016-0.101C139.212,80.134,139.217,80.168,139.224,80.201z"/>
	<path d="M139.932,81.308c0.022,0.017,0.046,0.032,0.069,0.049C139.978,81.34,139.954,81.325,139.932,81.308z"/>
	<path d="M139.38,80.651c-0.009-0.017-0.021-0.033-0.028-0.05C139.359,80.619,139.371,80.634,139.38,80.651z"/>
	<path d="M140.772,81.743c0.031,0.01,0.062,0.019,0.093,0.028C140.834,81.761,140.803,81.753,140.772,81.743z"/>
	<path d="M140.769,116.002c0.148-0.037,0.298-0.066,0.449-0.089C141.067,115.936,140.917,115.965,140.769,116.002z"/>
	<path d="M149.875,99.449c-0.103,0-0.2,0.003-0.289,0.01c0.098-0.007,0.208-0.009,0.322-0.009
		C149.897,99.45,149.886,99.449,149.875,99.449z"/>
	<path d="M141.355,115.894c0.16-0.019,0.32-0.032,0.484-0.033C141.676,115.862,141.515,115.875,141.355,115.894z"/>
	<path d="M140.103,116.215c-0.132,0.051-0.264,0.106-0.395,0.165C139.839,116.321,139.971,116.267,140.103,116.215z"/>
	<path d="M140.237,116.165c0.16-0.057,0.32-0.11,0.483-0.152C140.558,116.056,140.397,116.108,140.237,116.165z"/>
	<path d="M131.948,119.149c-0.04-0.013-0.079-0.024-0.118-0.038C131.87,119.125,131.909,119.136,131.948,119.149z"/>
	<path d="M131.203,118.839c-0.042-0.021-0.083-0.045-0.125-0.068C131.12,118.793,131.162,118.817,131.203,118.839z"/>
	<path d="M133.18,119.358c0.021,0,0.043,0.005,0.065,0.005c0.019,0,0.036-0.003,0.054-0.004
		C133.26,119.36,133.22,119.358,133.18,119.358z"/>
	<path d="M132.575,119.308c-0.005,0-0.011-0.002-0.016-0.003C132.564,119.305,132.57,119.307,132.575,119.308z"/>
	<path d="M185.964,71.389c-0.026,0.033-0.05,0.074-0.073,0.115C185.914,71.463,185.938,71.422,185.964,71.389z"/>
	<path d="M185.837,71.6c-0.023,0.049-0.044,0.108-0.065,0.167C185.793,71.708,185.813,71.649,185.837,71.6z"/>
	<path d="M186.179,71.209c0.029-0.014,0.059-0.026,0.089-0.034C186.237,71.183,186.208,71.195,186.179,71.209z"/>
	<path d="M185.6,72.584c0.014-0.113,0.027-0.226,0.045-0.324C185.627,72.358,185.613,72.471,185.6,72.584z"/>
	<path d="M28.133,91.666c-4.279,6.863-6.392,15.791-7.68,22.813c-8.237,8.622-11.109,20.123-11.744,31.701
		c-0.374,6.745-1.551,13.341-1.285,19.805c1.577,8.833,5.299,16.891,11.701,22.729c1.847,1.474,3.785,2.836,5.713,4.187
		c0.721,0.416,1.462,0.813,2.232,1.184c1.026,0.497,1.659,1.25,2.063,1.914c0.292,0.222,0.583,0.442,0.87,0.668
		c6.354,5.006,8.936,13.269,19.828,15.462c6.622,1.167,13.391-0.012,20.106,0.454c8.099,0.562,16.238,1.864,24.355,0.817
		c-1.278,2.904-1.092,6.281,0.058,9.531c0.042,0.117,0.078,0.235,0.122,0.353c0.014,0.038,0.032,0.075,0.046,0.113
		c2.822,7.332,10.521,13.845,17.368,12.581c2.424-0.446,6.173-2.676,9.686-5.415c1.228-1.213,2.461-2.371,3.788-3.254
		c2.197-2.086,3.988-4.191,4.796-5.87c3.006-6.259,11.374-1.035,17.272-0.441c0.451,0.029,0.903,0.048,1.355,0.064
		c0.409,0.016,0.82,0.032,1.225,0.035c0.249,0.004,0.498,0,0.747-0.001c5.444-0.048,10.49-1.135,15.683-3.2
		c12.799-5.091,9.528-9.391,17.232-18.229c4.623-5.306,9.313-8.089,14.075-9.232c2.533-0.962,5.397-1.511,8.722-1.511
		c9.253,0,18.486,6.911,26.42,9.833c0.332,0.122,0.688,0.217,1.052,0.299c0.064,0.014,0.127,0.029,0.192,0.043
		c0.381,0.076,0.774,0.137,1.186,0.174c0.005,0,0.01,0.001,0.015,0.001c6.178,0.553,15.458-3.155,20.516-5.459
		c9.317-4.241,12.812-15.415,18.03-23.704c0.265-0.421,0.504-0.86,0.72-1.315c1.315-3.662,1.968-6.974,1.421-9.18
		c-1.376-31.741-13.286-59.307-36.618-77.872c-4.323-3.039-8.816-5.454-13.38-8.133c-0.67-0.683-1.35-1.307-2.034-1.904
		c-1.518-0.801-3.056-1.583-4.642-2.325c-2.44-1.141-4.188-2.651-5.993-3.954c-5.084-1.889-10.536-2.745-16.417-3.599
		c-3.268-0.457-6.494-1.143-9.608-2.261c-2.616-0.939-4.855-2.604-7.105-4.162c-4.481-2.279-9.021-4.345-14.493-4.669
		c-5.397-0.319-10.801,0.267-16.196-0.081c-0.589-0.038-1.148-0.141-1.689-0.28c-7.058-0.941-12.196-3.133-21.043-1.021
		c-1.616,0.386-3.122,0.776-4.576,1.146c-1.38,0.42-2.741,0.847-4.058,1.261c-5.713,1.794-12.242,1.095-18.302,1.399
		c-12.331,0.619-22.142,2.372-33.565,7.689c-6.892,3.208-8.903,8.851-14.138,13.513c-2.602,2.317-6.465,4.272-10.177,6.121
		C37.058,83.868,32.103,86.968,28.133,91.666z M20.351,150.992c0.383-0.952,1.084-1.708,1.762-2.439
		c1.402-1.511,2.328-2.509,0.806-4.767c-0.412-0.611-0.262-1.1-0.136-1.336c0.231-0.434,0.673-0.653,1.315-0.653
		c0.295,0,0.634,0.038,1.026,0.081c0.43,0.048,0.918,0.102,1.357,0.102c0.63,0,0.868-0.114,0.94-0.163
		c0.166-0.112,0.361-0.17,0.559-0.17c0.056,0,0.112,0.005,0.167,0.014c0.948,0.161,1.931,0.167,2.972,0.173
		c1.989,0.013,4.046,0.025,6.022,1.141c0.268,0.151,0.451,0.418,0.497,0.723c0.046,0.304-0.051,0.612-0.263,0.836
		c-1.394,1.472-3.209,1.825-4.811,2.137c-1.2,0.233-2.333,0.454-3.198,1.096c-4.14,3.068-5.622,6.907-4.664,12.08
		c0.075,0.403-0.104,0.812-0.452,1.029c-0.163,0.102-0.347,0.152-0.531,0.152c-0.208,0-0.417-0.065-0.593-0.194
		C18.559,157.471,19.093,154.116,20.351,150.992z M28.148,172.371c-0.748,0.714-1.495,1.429-2.245,2.141
		c-0.022,0.021-0.045,0.041-0.069,0.061c-0.806,0.636-1.611,1.272-2.418,1.912c-0.032,0.025-0.065,0.049-0.1,0.07
		c-0.391,0.238-0.45,0.517-0.479,1.494c-0.031,1.059-0.073,2.507-1.583,3.603c-0.172,0.125-0.378,0.19-0.587,0.19
		c-0.08,0-0.16-0.01-0.239-0.029c-0.286-0.07-0.526-0.263-0.657-0.526c-2.513-5.072-4.155-9.561-5.17-14.126
		c-0.063-0.281-0.001-0.575,0.169-0.808c0.17-0.231,0.432-0.38,0.718-0.405c0.125-0.011,0.249-0.017,0.369-0.017
		c1.703,0,2.902,1.071,3.866,1.932c0.762,0.68,1.42,1.267,2.126,1.267c0.349,0,0.735-0.134,1.18-0.409
		c2.123-1.314,3.889-3.117,5.399-5.51c0.144-0.228,0.28-0.586,0.424-0.966c0.4-1.053,1.005-2.645,2.658-2.645
		c0.587,0,1.213,0.216,1.914,0.662c1.271,0.809,1.97,1.8,2.076,2.947c0.125,1.362-0.61,2.798-2.187,4.268
		C31.581,169.092,29.836,170.759,28.148,172.371z M90.473,200.917c-3.146,1.662-5.308,2.34-7.462,2.34
		c-1.744,0-3.496-0.458-5.683-1.484c-1.444-0.681-2.751-1.011-3.996-1.011c-1.455,0-2.934,0.439-4.654,1.383
		c-3.057,1.678-5.941,2.493-8.816,2.493c-2.051,0-4.092-0.435-6.068-1.29c-0.411-0.179-0.654-0.608-0.593-1.053
		c0.06-0.443,0.408-0.794,0.852-0.855l0.199-0.028c7.75-1.083,15.071-2.106,18.698-11.171c0.017-0.043,0.046-0.078,0.069-0.117
		c-2.139-0.149-4.218-0.602-6.236-1.06c-2.27-0.516-4.414-1.003-6.479-1.003c-2.419,0-4.389,0.688-6.198,2.163
		c-0.049,0.041-0.103,0.076-0.159,0.106c-2.198,1.183-4.555,1.334-6.363,1.334c-0.793,0-1.596-0.032-2.372-0.063
		c-0.756-0.03-1.538-0.062-2.292-0.062c-2.194,0-4.512,0.227-6.587,1.866c-0.14,0.111-0.307,0.182-0.483,0.206
		c-0.363,0.051-0.704,0.076-1.013,0.076c-1.466,0-2.117-0.588-2.405-1.081c-0.444-0.761-0.325-1.755,0.354-2.955
		c0.124-0.219,0.247-0.441,0.369-0.665c1.092-1.989,2.33-4.243,5.264-4.867c0.069-0.015,0.139-0.021,0.208-0.021
		c0.26,0,0.512,0.102,0.701,0.287c1.223,1.203,2.857,1.583,4.586,1.983c0.748,0.174,1.517,0.353,2.272,0.604
		c4.936-1.63,10.2-3.188,15.642-3.188c5.266,0,10.096,1.464,14.769,4.476c0.355,0.229,0.528,0.658,0.431,1.07
		c-0.097,0.412-0.443,0.718-0.863,0.765c-0.452,0.05-0.928,0.064-1.403,0.075c0.015,0.03,0.037,0.055,0.049,0.087
		c2.372,6.235,6.16,8.896,12.667,8.896c0.766,0,1.585-0.038,2.437-0.114c0.03-0.003,0.06-0.004,0.089-0.004
		c0.439,0,0.832,0.289,0.958,0.717C91.1,200.206,90.894,200.695,90.473,200.917z M66.648,177.336
		c0.116-1.244,1.586-1.763,2.855-2.076c1.325-0.327,2.65-0.486,4.049-0.486c3.605,0,7.056,1.059,11.051,2.284
		c1.25,0.383,2.543,0.779,3.901,1.161c0.411,0.116,0.704,0.479,0.728,0.906c0.024,0.427-0.226,0.821-0.621,0.982
		c-1.57,0.641-3.157,0.951-4.851,0.951c-2.054,0-3.897-0.45-5.681-0.886c-1.52-0.372-2.956-0.723-4.317-0.723
		c-0.987,0-1.869,0.188-2.695,0.577c-0.134,0.063-0.279,0.096-0.426,0.096c-0.068,0-0.137-0.007-0.205-0.021
		c-0.423-0.089-0.853-0.168-1.281-0.237c-0.087-0.015-0.172-0.041-0.253-0.077C67.794,179.281,66.536,178.546,66.648,177.336z
		 M113.093,232.197c-0.849,0.456-1.718,0.677-2.658,0.677c-1.311,0-2.504-0.433-3.658-0.852c-1.038-0.376-2.018-0.731-2.978-0.731
		c-0.119,0-0.238,0.005-0.358,0.017c-0.032,0.003-0.066,0.005-0.099,0.005c-0.158,0-0.314-0.037-0.455-0.109
		c-5.958-3.042-6.595-8.82-7.106-13.464c-0.021-0.19,0.014-0.385,0.1-0.557c0.06-0.121,0.145-0.229,0.247-0.316
		c1.322-1.125,2.586-1.673,3.867-1.673c2.072,0,3.628,1.451,5.001,2.731c0.569,0.531,1.107,1.033,1.639,1.4
		c1.434,0.988,2.369,2.373,3.272,3.712c1.176,1.742,2.286,3.389,4.446,4.186c1.282,0.476,1.595,1.223,1.633,1.766
		C116.058,230.063,115.113,231.113,113.093,232.197z M102.248,201.925c0.907-1.239,2.541-1.382,3.69-1.383
		c0.594,0,1.258,0.046,2.03,0.139c0.372,0.045,0.688,0.294,0.818,0.646c0.13,0.351,0.054,0.745-0.199,1.021l-1.891,2.072
		l-2.777,3.044c-0.191,0.209-0.46,0.325-0.738,0.325c-0.071,0-0.144-0.008-0.215-0.023c-0.349-0.077-0.63-0.334-0.738-0.675
		C101.443,204.608,101.449,203.015,102.248,201.925z M162.787,211.773c-0.38,0.156-0.738,0.303-1.033,0.47
		c-4.185,2.352-8.485,3.495-13.146,3.495c-4.854,0-10.095-1.285-16.023-3.931c-2.785-1.244-4.377-2.696-5.009-4.572
		c-0.82-2.435-0.065-5.416,2.605-10.293c0.096-0.176,0.244-0.319,0.423-0.41c1.399-0.713,2.607-1.06,3.691-1.06
		c2.039,0,4.529,1.251,4.81,7.212c0.073,1.537,0.948,1.931,2.759,2.608c0.859,0.322,1.826,0.684,2.691,1.294
		c2.111,0.507,4.288,0.754,6.646,0.754c2.656,0,5.47-0.309,8.857-0.971c0.24-0.047,0.531-0.133,0.839-0.224
		c0.624-0.186,1.332-0.395,2.027-0.395c1.204,0,2.091,0.65,2.496,1.832C166.355,210.31,164.122,211.226,162.787,211.773z
		 M239.634,181.535c-4.267,1.793-7.635,2.665-10.298,2.665c-2.379,0-4.281-0.712-5.653-2.115c-2.042-2.088-2.937-5.592-2.815-11.027
		c0.009-0.37,0.221-0.705,0.551-0.871c0.143-0.071,0.296-0.106,0.449-0.106c0.204,0,0.406,0.063,0.579,0.185l1.014,0.719
		c0.681,0.48,1.36,0.961,2.036,1.446c0.156,0.111,0.277,0.266,0.348,0.444c1.536,3.881,4.735,4.527,8.44,5.276
		c1.816,0.368,3.694,0.747,5.394,1.561c0.355,0.17,0.578,0.533,0.568,0.927S239.996,181.383,239.634,181.535z M248.95,135.784
		c3.081-0.598,5.742-1.115,7.288-3.828c0.036-0.063,0.08-0.123,0.129-0.177c7.03-7.74,4.766-14.905-1.168-23.955
		c-0.105-0.161-0.278-0.38-0.461-0.612c-0.786-0.999-1.862-2.366-1.243-3.642c0.602-1.239,2.388-1.382,3.68-1.382h0.046
		c0.373,0,0.714,0.207,0.887,0.538l0.354,0.677c3.09,5.918,6.284,12.038,7.733,18.816c0.012,0.055,0.02,0.118,0.021,0.175
		c0.097,2.345-0.97,4.25-2.001,6.091c-0.993,1.773-1.934,3.455-1.721,5.392c0.484,0.35,1.081,0.621,1.708,0.905
		c1.573,0.714,3.531,1.603,4.615,4.23c0.153,0.372,0.068,0.799-0.214,1.084c-0.191,0.194-0.449,0.297-0.711,0.297
		c-0.125,0-0.251-0.023-0.371-0.071c-2.614-1.045-5.195-1.553-7.89-1.553c-3.604,0-7.356,0.913-11.811,2.875
		c-0.129,0.057-0.266,0.085-0.403,0.085c-0.144,0-0.286-0.031-0.419-0.092l-1.805-0.83l-2.574-1.184
		c-0.337-0.156-0.561-0.485-0.58-0.855c-0.02-0.371,0.168-0.722,0.487-0.912C244.578,136.633,246.801,136.201,248.95,135.784z
		 M212.147,67.542c0.139-0.066,0.286-0.098,0.433-0.098c0.251,0,0.498,0.094,0.688,0.274c1.498,1.419,3.369,2.294,5.35,3.221
		c2.302,1.077,4.682,2.189,6.52,4.241c0.266,0.296,0.33,0.72,0.166,1.082c-0.162,0.357-0.519,0.585-0.91,0.585
		c-0.005,0-0.01,0-0.015,0l-0.723-0.009c-5.079-0.058-11.399-0.131-12.072-8.312C211.55,68.113,211.774,67.721,212.147,67.542z
		 M194.955,123.761c3.339-2.687,5.375-6.191,7.531-9.902c1.55-2.667,3.151-5.423,5.276-7.833c0.168-0.388,0.349-0.773,0.53-1.159
		c0.849-1.802,1.581-3.358,0.92-5.177c-0.135-0.37-0.04-0.785,0.243-1.06c0.673-0.652,0.591-1.427,0.39-2.741
		c-0.217-1.409-0.486-3.162,1.078-4.581c0.178-0.162,0.408-0.253,0.648-0.259c0.363-0.009,0.724-0.048,1.07-0.118
		c0.065-0.013,0.131-0.02,0.196-0.02c0.34,0,0.662,0.173,0.847,0.468c1.239,1.973,0.988,4.185,0.767,6.136
		c-0.25,2.209-0.468,4.124,1.162,5.682c0.591,0.242,1.323,0.291,2.095,0.342c1.653,0.11,3.71,0.247,5.194,2.431
		c0.256,0.377,0.225,0.879-0.075,1.222c-1.279,1.458-2.85,1.645-4.075,1.645c-0.366,0-0.734-0.018-1.102-0.036
		c-0.331-0.016-0.66-0.033-0.983-0.033c-0.766,0-1.269,0.099-1.684,0.331c-0.088,0.049-0.183,0.084-0.28,0.105l-1.318,0.28
		c-0.748,0.159-1.497,0.317-2.245,0.478c-6.826,12.325-7.905,13.767-15.325,15.548c-0.078,0.019-0.156,0.028-0.233,0.028
		c-0.375,0-0.727-0.211-0.897-0.559C194.479,124.561,194.591,124.054,194.955,123.761z M186.394,70.154
		c0.802,0,1.593,0.589,2.563,1.909c3.131,4.25,3.588,9.069,4.117,14.649c0.123,1.299,0.251,2.643,0.417,4.041
		c0.05,0.424-0.175,0.833-0.56,1.019c-0.138,0.067-0.286,0.099-0.434,0.099c-0.261,0-0.519-0.103-0.711-0.297
		c-3.073-3.107-3.612-6.612-4.089-9.705c-0.404-2.63-0.754-4.901-2.549-6.534c-0.161-0.147-0.271-0.342-0.311-0.557
		c-0.079-0.427-0.168-0.852-0.266-1.274c-0.021-0.086-0.029-0.174-0.025-0.262C184.62,71.193,185.241,70.154,186.394,70.154z
		 M187.961,100.909c-1.311,2.836-3.62,4.854-5.854,6.807c-2.695,2.357-5.242,4.583-6.01,8.091c-0.021,0.102-0.06,0.199-0.111,0.288
		c-2.72,4.691-3.025,9.794-3.349,15.197c-0.063,1.058-0.127,2.116-0.209,3.17c-0.024,0.311-0.192,0.592-0.453,0.762
		c-0.164,0.106-0.354,0.161-0.544,0.161c-0.113,0-0.228-0.019-0.336-0.058l-4.734-1.69l-2.898-1.035
		c-0.406-0.145-0.674-0.534-0.664-0.964s0.295-0.807,0.707-0.934c3.705-1.137,4.722-4.149,5.109-8.32
		c1.064-11.496,9.081-17.319,17.914-22.746c0.161-0.099,0.343-0.148,0.523-0.148c0.239,0,0.477,0.085,0.664,0.252
		C188.047,100.035,188.146,100.509,187.961,100.909z M154.438,73.823c1.885-1.883,4.046-2.2,5.953-2.479
		c0.75-0.11,1.458-0.214,2.11-0.404c0.092-0.027,0.186-0.04,0.28-0.04c0.039,0,0.078,0.002,0.116,0.007
		c4.853,0.57,9.018,2.793,12.541,4.833c0.357,0.207,0.551,0.611,0.487,1.019c-0.111,0.717,0.18,1.598,0.488,2.531
		c0.643,1.943,1.613,4.879-2.28,6.767c-0.139,0.067-0.287,0.1-0.437,0.1c-0.164,0-0.327-0.04-0.476-0.12
		c-0.283-0.153-0.475-0.433-0.517-0.752c-0.912-7.068-5.592-7.667-11.011-8.36c-2.328-0.298-4.735-0.606-6.915-1.462
		c-0.314-0.123-0.545-0.396-0.613-0.727C154.097,74.405,154.199,74.062,154.438,73.823z M152.453,99.506
		c0.214,0.481,0.106,1.031-0.29,1.473c-1.792,1.992-2.72,4.45-3.703,7.053c-1.163,3.079-2.366,6.263-5.11,8.664
		c-0.184,0.161-0.418,0.248-0.658,0.248c-0.067,0-0.135-0.007-0.201-0.021c-0.207-0.042-0.418-0.064-0.627-0.064
		c-1.26,0-2.481,0.775-3.773,1.596c-1.477,0.938-3.004,1.908-4.845,1.908c-1.171,0-2.292-0.392-3.425-1.197
		c-0.339-0.24-0.493-0.666-0.389-1.067c0.105-0.402,0.448-0.697,0.861-0.742c5.737-0.619,9.938-4.011,13.219-10.678
		c1.395-2.83,3.127-5.186,5.3-7.852c0.175-0.214,0.43-0.346,0.705-0.366c0.109-0.008,0.231-0.012,0.359-0.012
		C150.836,98.449,152.063,98.633,152.453,99.506z M138.196,79.533c0.32-3.31,2.962-4.413,5.085-5.299
		c0.843-0.352,1.639-0.685,2.289-1.119c0.549-0.365,1.139-0.559,1.706-0.559h0.001c1.433,0,2.508,1.123,2.878,3.002
		c0.023,0.123,0.024,0.249,0.002,0.372c-0.702,3.862-4.205,5.434-7.02,6.696c-0.401,0.18-0.879,0.275-1.38,0.275
		c-1.113,0-2.175-0.438-2.842-1.173C138.365,81.123,138.116,80.363,138.196,79.533z M126.943,70.909
		c2.894-3.675,6.903-5.228,11.465-6.714c2.944-2.297,4.132-3.736,4.226-5.11c0.132-1.945-2.038-4.576-5.583-8.191
		c-0.282-0.288-0.363-0.716-0.207-1.087c0.125-0.299,0.387-0.515,0.695-0.586c0.44-0.108,0.884-0.164,1.317-0.164
		c1.753,0,3.135,0.888,4.354,1.67c0.474,0.304,0.92,0.591,1.394,0.835l0.059,0.032l0.056,0.029c0.075,0.037,0.154,0.071,0.231,0.104
		l0.111,0.05c0.02,0.007,0.039,0.015,0.059,0.022c0.119,0.05,0.245,0.092,0.369,0.129c0.369,0.112,0.642,0.427,0.699,0.808
		c0.319,2.124,0.714,2.705,1.838,2.705c0.198,0,0.42-0.02,0.66-0.059c0.282-0.046,0.546-0.069,0.783-0.069
		c0.745,0,1.319,0.229,1.706,0.679c0.646,0.753,0.484,1.795,0.354,2.632c-0.018,0.11-0.034,0.221-0.05,0.329
		c-0.033,0.243-0.156,0.466-0.343,0.625c-0.875,0.743-1.478,1.806-2.116,2.931c-1.109,1.956-2.366,4.172-5.332,4.841
		c-0.055,0.012-0.11,0.02-0.167,0.023c-0.307,0.017-0.612,0.026-0.915,0.026c-0.007,0-0.013,0-0.02,0
		c-0.231,0.151-0.461,0.304-0.692,0.457c-1.479,0.98-3.009,1.994-4.731,2.558c-4.415,1.449-5.726,4.015-4.525,8.86
		c0.043,0.175,0.098,0.354,0.154,0.539c0.375,1.235,1.001,3.301-1.5,5.285c-0.178,0.142-0.398,0.217-0.622,0.217
		c-0.072,0-0.144-0.008-0.215-0.023c-0.293-0.065-0.542-0.258-0.678-0.527c-2.103-4.178-2.554-8.465-2.991-12.61l-0.055-0.522
		C126.707,71.374,126.782,71.114,126.943,70.909z M123.511,118.33c0.986,0,1.979,0.024,2.949,0.072
		c0.25,0.013,0.453,0.208,0.474,0.458s-0.147,0.477-0.393,0.53c-0.208,0.045-0.416,0.097-0.624,0.149
		c-0.464,0.117-0.943,0.238-1.441,0.285c-8.49,0.782-17.126,2.311-21.616,11.266c2.208-0.454,4.375-1.197,6.479-1.918
		c3.145-1.078,6.396-2.192,9.867-2.393c0.524-0.031,1.055-0.143,1.617-0.261c0.674-0.142,1.371-0.289,2.076-0.289
		c0.914,0,1.704,0.255,2.408,0.778c1.185-0.143,2.385-0.215,3.571-0.215c9.457,0,17.483,4.558,25.245,8.966
		c0.816,0.464,1.632,0.927,2.449,1.386c7.148,4.004,13.375,9.405,19.396,14.628l2.119,1.835c0.395,0.093,0.775,0.241,1.161,0.454
		c0.235-4.59,2.651-6.372,8.827-6.704c0.084-0.007,0.147,0.009,0.216,0.036c0.554,0.226,1.104,0.465,1.653,0.705
		c2.358,1.027,4.585,1.999,7.253,1.999l0.109-0.001c0.159-0.004,0.293,0.064,0.39,0.181c0.096,0.115,0.135,0.269,0.105,0.416
		c-0.357,1.816-1.546,2.909-2.596,3.873c-0.391,0.358-0.76,0.697-1.088,1.065c-0.091,0.103-0.22,0.163-0.356,0.168
		c-0.298,0.01-0.655,0.486-0.97,0.907c-0.439,0.588-0.938,1.254-1.687,1.254c-0.574,0-1.112-0.385-1.691-1.21
		c-0.373-0.531-0.57-1.199-0.762-1.846c-0.381-1.285-0.622-1.849-1.33-1.849c-0.342,0-0.787,0.13-1.322,0.386
		c-1.894,0.907-2.797,2.729-2.488,5.01l0.41,0.625c0.396,0.604,0.805,1.23,1.24,1.814c1.269,1.192,1.496,2.796,1.717,4.347
		c0.184,1.292,0.357,2.513,1.151,3.479c0.053,0.065,0.089,0.143,0.104,0.225l2.236,11.85c0.161,0.462,0.298,1.012,0.431,1.545
		c0.177,0.709,0.505,2.029,0.784,2.169c0.121,0.025,0.254,0.04,0.382,0.04c1.119,0,2.014-1.147,2.879-2.258
		c0.135-0.172,0.268-0.343,0.399-0.507c1.529-1.906,2.89-4.014,4.205-6.051c2.635-4.081,5.357-8.299,9.632-11.261
		c0.258-0.567,0.539-1.128,0.821-1.688c1.083-2.153,2.105-4.188,1.817-6.62c-7.8-20.826,6.029-34.433,17.143-45.367
		c0.077-0.076,0.176-0.125,0.282-0.139l1.508-0.211c2.281-0.645,3.774-2.318,5.356-4.089c0.81-0.906,1.646-1.844,2.601-2.62
		c0.121-0.098,0.279-0.137,0.433-0.098c1.893,0.457,1.75,1.986,1.655,2.998c-0.109,1.166-0.07,1.59,0.795,1.771
		c0.786,0.156,2.89,0.573,2.745,2.397c-0.126,1.566-1.548,1.663-2.587,1.734c-0.151,0.01-0.303,0.021-0.453,0.035
		c-0.664,0.061-1.339,0.092-2.016,0.123c-2.826,0.128-5.496,0.25-7.525,2.534c-0.042,0.047-0.092,0.085-0.147,0.114
		c-8.104,4.118-12.663,11.64-17.071,18.914l-0.237,0.392c-2.246,3.701-1.404,7.88-0.59,11.922c0.234,1.165,0.477,2.369,0.643,3.547
		c0.259,0.48,0.512,0.969,0.764,1.457c1.691,3.273,3.29,6.367,6.741,7.099c0.896-0.231,1.892-0.576,2.639-1.324
		c0.029-0.03,0.063-0.056,0.101-0.078c2.658-1.559,5.842-3.152,9.302-3.152c0.97,0,1.942,0.125,2.889,0.373l0.269,0.069
		c3.153,0.822,7.071,1.844,6.355,6.858c0.274,0.908,0.358,1.908,0.44,2.877c0.202,2.406,0.377,4.484,3.098,5.205
		c0.539,0.144,1.083,0.216,1.615,0.216c2.879,0,5.273-2.077,7.434-4.321c5.389-5.604,11.021-7.469,17.531-5.859
		c0.176,0.044,0.314,0.179,0.362,0.354c1.315,4.83-1.158,8.262-3.551,11.581c-0.528,0.733-1.058,1.468-1.546,2.217
		c-0.931,1.426-1.84,2.866-2.749,4.306l-1.244,1.966c-0.081,0.127-0.215,0.211-0.365,0.229c-0.139,0.017-0.285-0.029-0.391-0.125
		c-1.358-1.109-2.039-2.186-2.08-3.287c-0.062-1.622,1.302-2.914,2.505-4.054c0.37-0.352,0.736-0.698,1.054-1.046
		c0.304-0.333,0.632-0.676,0.967-1.026c2.761-2.889,4.57-5.094,2.704-7.172c-0.688-0.767-1.385-1.14-2.13-1.14
		c-1.361,0-2.805,1.229-4.201,2.417c-0.752,0.641-1.531,1.303-2.295,1.763c-1.239,0.747-2.397,1.709-3.517,2.64
		c-0.773,0.643-1.573,1.308-2.405,1.908c-3.078,2.225-5.35,3.603-7.162,3.603c-2.564,0-3.942-2.628-5.732-7.804
		c-0.147-0.428-0.532-0.823-0.939-1.243c-0.191-0.197-0.384-0.396-0.556-0.6c-2.369-1.433-4.893-2.129-7.71-2.129
		c-1.907,0-3.987,0.319-6.358,0.975c-0.486,0.135-0.977,0.281-1.47,0.429c-1.845,0.553-3.753,1.125-5.706,1.125
		c-1.482,0-2.819-0.33-4.075-1.007l-3.23,1.927l-2.107,4.24c-1.164,2.427-3.2,3.975-5.169,5.472
		c-0.683,0.52-1.388,1.056-2.039,1.617l-1.029,1.443c-1.051,3.946-3.321,7.217-6.751,9.723c-0.88,0.66-1.763,1.381-2.615,2.078
		c-1.917,1.566-3.898,3.186-6.115,4.325c-4.576,2.351-6.197,6.387-7.913,10.66c-0.358,0.891-0.717,1.784-1.104,2.662
		c-0.082,0.186-0.264,0.299-0.458,0.299c-0.043,0-0.088-0.006-0.131-0.018c-0.239-0.064-0.395-0.295-0.366-0.54
		c0.021-0.177,0.034-0.342,0.047-0.507c0.011-0.134,0.018-0.258,0.021-0.385c0.169-4.513-2.787-4.825-6.529-5.222
		c-1.133-0.12-2.304-0.244-3.403-0.507c-0.209-0.05-0.362-0.228-0.382-0.441s0.1-0.416,0.296-0.502
		c1.745-0.771,3.52-1.455,5.234-2.117c6.094-2.354,11.854-4.578,15.419-10.18c-0.769-1.031-1.76-1.514-3.095-1.514
		c-0.479,0-1.003,0.062-1.615,0.185c-0.024,0.044-0.041,0.092-0.072,0.131c-3.068,4.302-7.42,6.392-14.539,6.983
		c-0.028,0.003-0.056,0.004-0.084,0.004c-0.423,0-0.805-0.269-0.944-0.675c-0.149-0.433,0.015-0.911,0.397-1.162l6.65-4.349
		l4.516-2.952c0.169-0.11,0.358-0.163,0.547-0.163c0.304,0,0.603,0.138,0.799,0.397c0.22,0.29,0.461,0.398,0.889,0.398
		c0.259,0,0.546-0.042,0.795-0.085c0.045-0.008,0.09-0.014,0.136-0.017c0.018-0.001,0.035-0.001,0.053-0.001
		c0.004,0,0.007,0,0.011,0c0.114,0.001,0.221,0.03,0.323,0.066c6.487-10.076,0.645-18.565-5.393-25.757
		c-11.499-13.698-26.101-22.76-43.399-26.932c-0.484-0.116-1.029-0.17-1.714-0.17c-0.463,0-0.933,0.024-1.402,0.048
		c-0.487,0.025-0.974,0.049-1.454,0.049l-0.065,0c-1.59,0.312-3.178,0.637-4.766,0.962c-3.692,0.756-7.511,1.539-11.3,2.128
		c-2.077,0.323-3.779,1.328-4.444,2.625c-0.416,0.81-0.404,1.661,0.036,2.529c2.93,5.793,2.717,11.768,2.511,17.546
		c-0.046,1.285-0.091,2.57-0.104,3.855c1.746,0.83,3.18,2.015,4.265,3.525c0.275,0.152,0.469,0.396,0.615,0.654
		c0.507-0.345,0.745-1.058,1.04-2.094c0.365-1.281,0.813-2.857,2.544-3.035c1.767-4.005,5.4-5.806,8.689-7.176
		c4.449-2.731,9.53-3.697,15.854-2.98c8.675,0.656,14.47,4.283,17.719,11.088l0.05,0.064c2.825,3.803,3.421,8.158,1.743,12.908
		c-0.209,0.591-0.584,0.679-0.788,0.679c-0.55,0.001-0.956-0.568-1.629-1.511c-0.854-1.194-2.014-2.818-3.452-3.08
		c-1.936,0.938-3.605,2.948-5.37,5.072c-2.767,3.331-5.627,6.774-10.017,6.775c-0.808,0-1.65-0.123-2.506-0.363
		c-3.087,0.057-5.922,3.973-8.664,7.761c-1.834,2.535-3.731,5.156-5.795,6.8c-0.2,0.156-0.484,0.142-0.664-0.036
		c-3.211-3.186-0.081-6.432,2.204-8.802c0.393-0.406,0.773-0.802,1.113-1.182c1.159-1.297,0.747-2.404,0.124-4.081
		c-0.14-0.378-0.294-0.791-0.436-1.23c-0.177,0.113-0.354,0.245-0.538,0.38c-0.655,0.484-1.398,1.032-2.448,1.033
		c-0.485,0-0.981-0.116-1.517-0.354c-0.218-0.098-0.337-0.335-0.284-0.568c0.381-1.669,2.386-2.97,4.508-4.347
		c2.085-1.352,4.241-2.75,4.422-4.307c0.083-0.713-0.253-1.453-1.028-2.263c-0.163-0.17-0.185-0.432-0.053-0.626
		c0.133-0.195,0.384-0.27,0.602-0.184c1.796,0.728,5.997,1.881,9.622,1.881h0.001c4.336,0,6.57-1.58,6.645-4.695
		c-1.169-5.25-3.762-7.912-7.709-7.912c-6.627,0-15.235,7.276-17.992,10.08c-1.684,1.822-2.208,4.179-2.763,6.673
		c-0.667,2.998-1.356,6.099-4.227,8.234c-0.188,0.138-0.446,0.13-0.625-0.022c-2.922-2.514-2.289-5.973-1.78-8.752
		c0.499-2.726,0.23-4.773-0.821-6.267c-1.094-1.555-3.081-2.55-6.075-3.044c-3.335-0.551-6.671-1.104-10.005-1.659
		c-7.497,3.224-13.146,2.35-17.103-2.592c-1.851-0.724-2.127-0.837-2.123-1.101c-0.071-0.217-0.069-0.438,0.007-0.648
		c0.229-0.631,1.059-0.983,1.936-1.356c0.337-0.144,0.888-0.378,1.185-0.579c-1.681-0.167-6.443-0.64-6.511-0.646
		c-0.198-0.02-0.367-0.154-0.428-0.345c-0.1-0.309-0.21-0.615-0.328-0.917c-3.395-0.678-6.627-1.021-9.611-1.021
		c-7.028,0-15.715,1.907-17.187,10.992c-0.401,2.465,0.133,4.524,0.752,6.91l0.194,0.754c0.037,0.145,0.007,0.298-0.081,0.418
		c-0.088,0.121-0.226,0.195-0.375,0.204c-2.407,0.142-4.409,0.256-6.411,0.369c-0.27,0.02-0.5-0.183-0.526-0.449
		c-0.911-9.086,7.767-19.882,17.534-21.83c3.002-1.307,9.084-1.582,13.671-1.582c2.159,0,4.499,0.064,6.502,0.177
		c0.179-2.009-0.54-3.56-1.125-4.822c-0.541-1.169-1.009-2.179-0.577-3.152c0.373-0.843,1.364-1.484,3.205-2.074
		c0.028-0.026,0.058-0.056,0.092-0.088c3.652-3.484,4.021-5.343,3.917-6.141c-0.07-0.534-0.39-0.949-0.979-1.271
		c-0.209-0.114-0.309-0.36-0.238-0.588c2.039-6.542,4.79-7.406,10.271-9.127l0.932-0.293
		C101.74,121.397,112.343,118.33,123.511,118.33z M174.356,172.688c0.237-0.176,0.538-0.265,0.894-0.265
		c0.658,0,1.833,0.341,2.264,1.071c1.242,2.105,0.927,4.269-0.966,6.614c-0.196,0.243-0.485,0.372-0.779,0.372
		c-0.182,0-0.364-0.05-0.528-0.151l-0.302-0.188c-0.472-0.295-0.942-0.589-1.415-0.88c-0.234-0.145-0.398-0.379-0.455-0.648
		l-0.06-0.286C172.651,176.633,172.161,174.313,174.356,172.688z M94.575,77.128c1.849-3.15,5.362-5.427,8.95-5.802
		c0.035-0.003,0.069-0.005,0.104-0.005c0.142,0,0.283,0.03,0.413,0.089c0.345,0.157,0.75,0.232,1.237,0.232
		c0.934,0,2.014-0.283,3.059-0.557c1.098-0.288,2.135-0.559,3.111-0.559c1.528,0,2.589,0.689,3.155,2.048
		c1.536,3.693-1.859,5.779-4.588,7.455c-0.999,0.614-1.943,1.194-2.622,1.803c-0.418,0.375-0.834,0.721-1.232,1.051
		c-2.397,1.992-3.389,2.816-1.074,6.034c2.254,3.13,0.074,7.293-3.122,9.621c-1.086,0.791-2.12,1.191-3.07,1.191
		c-0.833,0-1.551-0.311-2.075-0.9c-0.694-0.78-0.972-1.963-0.804-3.423c0.497-4.304-0.747-7.961-2.165-11.271
		C92.93,81.984,93.186,79.495,94.575,77.128z M67.449,64.095c0.331-0.87,0.792-1.632,1.412-2.332c0.911-1.03,1.979-1.71,3.01-2.369
		c0.638-0.407,1.241-0.791,1.758-1.23c0.102-0.086,0.22-0.152,0.348-0.192c2.137-0.673,4.455-1.022,7.086-1.067
		c0.191-0.003,0.382-0.004,0.574-0.004c2.115,0,4.19,0.188,5.761,0.353c0.41,0.043,0.751,0.333,0.86,0.73
		c0.192,0.698,0.818,1.383,1.48,2.107c1.381,1.51,3.469,3.793,0.688,7.109c-0.19,0.228-0.472,0.357-0.766,0.357
		c-0.024,0-0.049-0.001-0.074-0.003c-0.321-0.023-0.611-0.2-0.779-0.475c-1.9-3.1-4.045-4.482-6.956-4.482
		c-2.039,0-4.213,0.659-6.516,1.356c-2.245,0.68-4.567,1.383-6.905,1.496c-0.016,0-0.032,0.001-0.048,0.001
		c-0.319,0-0.621-0.153-0.81-0.413C67.376,64.764,67.329,64.41,67.449,64.095z M60.803,111.938c3.432-1.813,3.866-4.961,3.461-9.13
		c-1.108-11.488,5.674-18.711,13.333-25.7c0.189-0.172,0.431-0.261,0.674-0.261c0.176,0,0.353,0.046,0.512,0.141
		c0.378,0.226,0.565,0.673,0.458,1.101c-0.755,3.031-2.646,5.448-4.474,7.784c-2.207,2.82-4.291,5.484-4.387,9.073
		c-0.002,0.104-0.021,0.206-0.056,0.303c-1.792,5.126-1.134,10.201-0.438,15.574c0.135,1.045,0.271,2.089,0.387,3.134
		c0.035,0.31-0.077,0.618-0.302,0.833c-0.188,0.18-0.436,0.278-0.691,0.278c-0.051,0-0.103-0.004-0.154-0.012
		c-2.67-0.416-5.338-0.831-8.009-1.245c-0.426-0.066-0.762-0.398-0.833-0.823C60.212,112.562,60.421,112.139,60.803,111.938z
		 M50.362,132.134c0.042-0.118,0.105-0.227,0.187-0.322c1.895-2.189,4.405-2.442,6.129-2.442c1.134,0,2.294,0.129,3.319,0.244
		c1.203,0.136,2.454,1.097,2.976,2.283c0.434,0.988,0.327,2.043-0.293,2.895c-1.441,1.979-3.3,2.208-4.572,2.208
		c-0.838,0-1.682-0.117-2.498-0.23c-0.778-0.108-1.513-0.209-2.203-0.209c-0.113,0-0.226,0.002-0.338,0.009
		c-0.072,0.004-0.143,0.006-0.212,0.006c-0.987,0-1.806-0.389-2.305-1.094C50.134,134.892,49.763,133.833,50.362,132.134z
		 M32.711,89.873c0.018-0.062,0.04-0.119,0.066-0.178c0.067-0.167,0.136-0.334,0.212-0.493c0.003-0.006,0.005-0.012,0.008-0.019
		c0.085-0.181,0.173-0.356,0.269-0.526h0c0.006-0.011,0.013-0.022,0.019-0.033c0.955-1.702,2.418-2.993,4.588-4.053
		c0.034-0.017,0.068-0.033,0.117-0.055c0.261-0.125,0.525-0.245,0.8-0.363c0.211-0.09,0.421-0.179,0.637-0.263
		c0.119-0.046,0.242-0.069,0.364-0.069c0.305,0,0.601,0.139,0.794,0.392l3.97,5.179l3.429,4.473
		c0.251,0.327,0.275,0.775,0.062,1.127c-0.184,0.302-0.51,0.481-0.855,0.481c-0.057,0-0.115-0.005-0.173-0.015
		c-2.352-0.414-4.423-1.321-6.426-2.199c-2.323-1.018-4.517-1.979-6.975-2.111c-0.304-0.017-0.584-0.17-0.761-0.419
		C32.68,90.481,32.626,90.166,32.711,89.873z M39.173,121.337c0.97,0,1.979-0.121,3-0.359c0.064-0.017,0.131-0.027,0.2-0.03
		c0.016,0,0.033-0.001,0.049-0.001c0.002,0,0.005,0,0.007,0c0.551,0.001,0.995,0.449,0.995,1c0,0.134-0.026,0.262-0.075,0.379
		c-1.021,3.041-2.844,4.459-5.731,4.459c-0.96,0-1.94-0.151-2.887-0.296c-0.903-0.139-1.756-0.27-2.546-0.27
		c-0.207,0-0.403,0.01-0.584,0.028c-0.28,0.028-0.559,0.042-0.83,0.042c-3.139,0-5.456-1.869-6.356-5.128
		c-0.346-1.255-0.563-2.539-0.772-3.781c-0.093-0.552-0.187-1.104-0.291-1.654c-0.097-0.51,0.212-1.01,0.712-1.15
		c0.601-0.168,1.144-0.25,1.659-0.25c1.82,0,3.053,1.008,4.343,2.522C32.57,119.785,35.719,121.337,39.173,121.337z"/>
	<path d="M185.547,73.278c0.007-0.203,0.02-0.387,0.035-0.557C185.566,72.891,185.554,73.075,185.547,73.278z"/>
	<path d="M185.675,72.122c0.017-0.082,0.034-0.164,0.055-0.234C185.709,71.958,185.691,72.041,185.675,72.122z"/>
	<path d="M138.665,116.926c0.12-0.07,0.24-0.138,0.36-0.203C138.905,116.788,138.785,116.856,138.665,116.926z"/>
	<path d="M138.108,117.262c0.146-0.091,0.293-0.181,0.44-0.268C138.401,117.082,138.254,117.171,138.108,117.262z"/>
	<path d="M137.645,117.554c0.09-0.057,0.181-0.114,0.271-0.171C137.826,117.439,137.735,117.497,137.645,117.554z"/>
	<path d="M135.964,118.565c0.013-0.007,0.026-0.013,0.039-0.02C135.99,118.552,135.977,118.559,135.964,118.565z"/>
	<path d="M136.479,118.276c0.036-0.021,0.071-0.042,0.107-0.063C136.55,118.234,136.515,118.255,136.479,118.276z"/>
	<path d="M137.015,117.951c0.011-0.007,0.023-0.014,0.034-0.021C137.038,117.937,137.026,117.944,137.015,117.951z"/>
	<path d="M134.925,119.04c0.001,0,0.002-0.001,0.003-0.001C134.928,119.039,134.927,119.04,134.925,119.04z"/>
	<path d="M135.409,118.838c0.041-0.019,0.081-0.037,0.122-0.056C135.49,118.801,135.45,118.82,135.409,118.838z"/>
	<path d="M134.312,119.226c0.042-0.01,0.085-0.021,0.127-0.032C134.397,119.205,134.354,119.215,134.312,119.226z"/>
	<path d="M139.16,116.649c0.153-0.081,0.306-0.159,0.461-0.23C139.466,116.491,139.313,116.568,139.16,116.649z"/>
	<path fill="none" stroke="#FFFFFF" stroke-width="0" stroke-linecap="round" stroke-linejoin="round" d="M138.86,46.333
		c-0.183,0-0.229,0-0.214,0"/>
	<path d="M85.424,137.955c-0.559,0.251-1.111,0.491-1.638,0.695c0.588,0.151,1.327,0.053,2.306-0.453
		c0.763,2.073-0.041,4.055-0.315,6.083c-1.382,10.289,1.681,13.923,14.092,16.625c-2.398-8.941,0.001-18.047-8.395-26.518
		C90.283,136.571,88.849,138.469,85.424,137.955z"/>
	
		<line fill="none" stroke="#FFFFFF" stroke-width="0" stroke-linecap="round" stroke-linejoin="round" x1="208.619" y1="106.568" x2="208.619" y2="106.568"/>
</g>
</svg>
