<?xml version="1.0" encoding="utf-8"?>
<!-- Generator: Adobe Illustrator 15.1.0, SVG Export Plug-In . SVG Version: 6.00 Build 0)  -->
<!DOCTYPE svg PUBLIC "-//W3C//DTD SVG 1.1//EN" "http://www.w3.org/Graphics/SVG/1.1/DTD/svg11.dtd">
<svg version="1.1" id="Layer_5" xmlns="http://www.w3.org/2000/svg" xmlns:xlink="http://www.w3.org/1999/xlink" x="0px" y="0px"
	 width="283.465px" height="283.465px" viewBox="0 0 283.465 283.465" enable-background="new 0 0 283.465 283.465"
	 xml:space="preserve">
<g>
	<path d="M91.474,134.386c-1.191,2.185-2.625,4.083-6.05,3.569c-0.559,0.251-1.111,0.491-1.638,0.695
		c0.588,0.151,1.327,0.053,2.306-0.453c0.763,2.073-0.041,4.055-0.315,6.083c-1.382,10.288,1.681,13.922,14.092,16.625
		C97.471,151.963,99.87,142.857,91.474,134.386z"/>
	<path d="M87,142.785c0.008,0.006,0.015,0.012,0.021,0.018c0.004-0.012,0.007-0.021,0.012-0.035c0-0.002,0-0.002,0.002-0.004
		c-0.002,0-0.002,0-0.002,0.002C87.021,142.771,87.012,142.779,87,142.785z"/>
	<path d="M267.775,121.399c-1.543-6.833-4.725-12.925-7.805-18.821l-0.34-0.65l-0.189-0.094l-0.037-0.271
		c-7.771-10.476-17.658-19.237-29.385-26.046l-0.023,0.023l-0.174-0.125l-2.131-1.013l-1.67-0.793
		c-2.008-2.046-4.479-3.202-6.676-4.229c-1.709-0.799-3.332-1.558-4.592-2.637c-2.123-3.697-6.035-3.929-8.412-4.068
		c-9.918-0.582-19.482-1.607-27.512-7.643c-1.357-1.947-3.357-2.511-4.85-2.931l-0.336-0.095c-5.439-1.555-10.873-1.43-16.127-1.309
		c-4.063,0.094-7.9,0.184-11.666-0.462c-0.512-0.183-1.098-0.562-1.717-0.958c-1.547-0.996-3.667-2.359-6.57-1.824
		c-0.082,0.014-0.164,0.031-0.248,0.049c-1.889,0.203-3.846,0.49-5.818,0.854c-6.367,1.177-12.408,3.058-17.072,4.624
		c-3.899-0.512-7.725-0.257-11.43-0.01c-3.343,0.223-6.5,0.433-9.675,0.117c-2.11-0.207-4.243-0.105-6.522,0.314
		c-3.873,0.715-7.517,2.244-11.041,3.725c-2.051,0.861-3.989,1.674-5.969,2.34c-7.332,2.461-12.451,6.695-17.106,14.152
		l-0.522,0.746l-0.025,0.037c-3.385,1.109-6.135,3.041-8.801,4.914c-1.604,1.126-3.121,2.191-4.723,3.045
		c-2.587,1.04-5.65,2.695-7.244,6.239c-7.371,7.526-9.322,17.202-10.914,25.88c-3.064,3.207-5.231,6.42-6.617,9.811
		c-0.205,0.438-0.412,0.873-0.621,1.311c-0.461,0.963-0.938,1.959-1.375,2.982c-2.483,5.813-2.813,11.804-3.131,17.596
		c-0.183,3.307-0.354,6.43-0.898,9.514c-2.991,16.928,3.302,30.02,18.197,37.859c0.361,0.191,0.718,0.365,1.063,0.531
		c2.036,0.986,2.403,1.316,2.452,2.203l0.962,0.758l-0.662,0.342c2.882,5.586,7.378,9.916,13,12.521
		c4.976,2.307,10.667,3.229,16.462,2.668c5.424-0.521,11.008-0.006,16.408,0.494c6.057,0.561,12.299,1.141,18.6,0.33
		c-0.578,1.313-0.791,2.908-0.194,4.813c0.521,4.707,1.332,10.984,7.784,14.41c2.772,2.092,6.115,4.074,10.004,3.355
		c2.798-0.516,5.472-2.277,9.084-6.021c2.092-0.484,3.184-2.104,3.914-3.188c0.205-0.299,0.5-0.738,0.681-0.916
		c0.007,0.002,0.015,0.004,0.022,0.006l2.595-1.008c0.858-1.1,1.452-2.328,1.974-3.412c1.002-2.086,1.573-3.055,2.752-3.457
		c8.615,2.947,16.685,3.803,24.638,2.611l0.201-0.039c7.822-1.779,14.148-4.627,19.338-8.695l0.58-0.627
		c0.305-0.453,0.605-0.904,0.908-1.359l0.148-0.43l0.076,0.021c0.402-0.912,0.771-1.834,1.129-2.725
		c1.627-4.049,3.031-7.545,6.871-9.52c2.428-1.248,4.504-2.943,6.512-4.586c0.695-0.57,1.359-1.115,2.031-1.633l3.008-0.531
		c2.396-0.426,4.791-0.848,7.188-1.271l0.1-0.258l0.564,0.051c0.063-0.029,0.119-0.049,0.172-0.061
		c0.363-0.066,1.098,0.293,1.811,0.641c1.262,0.617,2.979,1.457,5.043,1.127c2.568,1.48,5.365,1.949,7.84,2.266
		c4.719,0.604,8.063,2.291,10.52,5.313l2.604,0.959c1.486-0.271,3.045-0.5,4.551-0.719c1.572-0.229,3.197-0.467,4.803-0.762
		c2.295-0.424,4.166-0.896,5.891-1.496l0.268-0.092c6.928-2.402,15.516-5.379,17.186-15.504c0.332-0.523,0.662-1.045,0.994-1.57
		c0.873-1.381,1.775-2.811,2.676-4.193c0.459-0.701,0.959-1.396,1.488-2.129c2.4-3.332,5.381-7.465,3.971-13.156l-0.068-1.381
		C275.342,145.82,274.717,132.985,267.775,121.399z M257.107,132.451c7.98-8.785,4.313-16.962-1.072-25.176
		c-0.846-1.288-3.994-4.104,1.184-4.088c0,0,0,0,0.002,0c3.227,6.186,6.521,12.343,7.996,19.24c0,0.002,0,0.005,0,0.007
		c0.182,4.403-4.49,7.382-3.654,11.979c0.002,0,0.002,0,0.002,0c1.838,1.614,4.904,1.526,6.328,4.979
		c-7.359-2.941-13.99-1.52-20.475,1.336c-1.211-0.559-2.422-1.112-4.379-2.014C247.861,135.842,254.18,137.588,257.107,132.451z
		 M212.58,68.444c3.432,3.253,8.596,3.815,11.813,7.403C218.916,75.768,213.205,76.053,212.58,68.444z M208.619,106.568
		C208.619,106.568,208.619,106.569,208.619,106.568c0.973-2.313,2.52-4.509,1.533-7.22c2.178-2.112-0.861-5.208,1.443-7.298
		c0.418-0.01,0.834-0.055,1.244-0.137c2.355,3.75-1.641,8.66,2.219,12.135h0.002c2.15,1.021,5.113-0.315,7.016,2.486
		c-2.164,2.467-5.314,0.428-7.58,1.694c-1.336,0.284-2.674,0.567-4.01,0.853l0,0c-7.119,12.864-7.957,13.791-14.904,15.459
		C201.629,119.674,203.637,112.14,208.619,106.568z M188.152,72.657c3.664,4.974,3.467,10.812,4.346,18.214
		c-5.414-5.475-2.342-12.334-6.676-16.275c-0.082-0.441-0.174-0.881-0.275-1.318C185.664,69.955,187.053,71.162,188.152,72.657z
		 M187.053,100.49c-2.75,5.953-10.426,8.217-11.932,15.104c-3.395,5.855-3.189,12.389-3.689,18.791
		c-2.545-0.909-5.088-1.816-7.633-2.725c4.594-1.41,5.469-5.484,5.813-9.184C170.641,111.361,178.51,105.739,187.053,100.49z
		 M162.781,71.9c4.471,0.525,8.355,2.505,12.156,4.705c-0.441,2.846,3.434,6.285-1.24,8.551
		c-1.43-11.076-11.498-7.857-18.553-10.625C157.488,72.189,160.352,72.609,162.781,71.9z M127.729,71.528
		c2.852-3.622,6.973-5.079,11.152-6.435c0.002,0,0.002,0,0.002,0l0,0c6.593-5.108,6.437-7.195-1.117-14.899c0.001,0,0.002,0,0.003,0
		c2.647-0.659,4.349,1.212,6.362,2.248c0.049,0.026,0.098,0.056,0.15,0.08c0.115,0.056,0.234,0.106,0.352,0.157
		c0.035,0.015,0.066,0.031,0.102,0.043c0.15,0.063,0.309,0.117,0.465,0.164c0.313,2.084,0.799,3.949,3.648,3.484
		c2.271-0.369,1.824,1.149,1.643,2.447c-2.641,2.243-2.918,6.633-7.02,7.559c-0.395,0.021-0.787,0.031-1.172,0.021
		c-1.775,1.145-3.501,2.432-5.445,3.068c-5.303,1.74-6.396,5.158-5.184,10.049c0.334,1.355,1.295,2.984-0.996,4.802
		C128.568,80.131,128.184,75.819,127.729,71.528z M149.174,75.752c-0.605,3.328-3.65,4.709-6.445,5.963
		c-1.273,0.57-3.722-0.17-3.537-2.086c0.37-3.832,4.431-4.012,6.933-5.681C147.434,73.076,148.762,73.655,149.174,75.752z
		 M144.408,107.121c1.414-2.871,3.223-5.263,5.178-7.662c0.834-0.059,2.465,0.148,1.834,0.851
		c-4.131,4.592-3.959,11.461-8.729,15.634c-4.433-0.911-7.349,5.92-12.292,2.407C137.497,117.586,141.594,112.838,144.408,107.121z
		 M94.772,83.742c-2.021-4.711,2.92-10.801,8.857-11.421c3.31,1.502,8.563-2.94,10.052,0.638c1.675,4.027-4.277,5.729-6.954,8.129
		c-2.943,2.637-5.771,3.797-2.45,8.414c1.849,2.568-0.063,6.162-2.899,8.228c-2.75,2.001-4.722,0.864-4.367-2.208
		C97.506,91.234,96.428,87.609,94.772,83.742z M69.61,62.426c1.366-1.545,3.248-2.293,4.667-3.5
		c2.252-0.709,4.522-0.982,6.802-1.021c2.064-0.034,4.139,0.126,6.215,0.343c0.762,2.775,5.703,4.33,2.367,8.309
		c-5.836-9.523-13.707-2.469-21.277-2.107C68.695,63.633,69.12,62.979,69.61,62.426z M65.26,102.711
		c-1.072-11.109,5.604-18.106,13.011-24.865c-1.585,6.363-8.7,10.025-8.89,17.072c-2.234,6.39-0.812,12.768-0.101,19.149
		c-2.67-0.416-5.339-0.831-8.01-1.245C65.522,110.574,65.618,106.41,65.26,102.711z M59.885,130.608
		c1.388,0.157,3.121,2.039,1.986,3.595c-2.266,3.111-5.854,1.202-8.857,1.368c-1.57,0.085-2.42-1.088-1.709-3.104
		C53.518,129.91,56.842,130.268,59.885,130.608z M33.704,90.069c0.06-0.149,0.12-0.297,0.188-0.438
		c0.002-0.008,0.006-0.015,0.01-0.021c0.075-0.16,0.152-0.314,0.236-0.464c0.004-0.009,0.009-0.015,0.013-0.021
		c0.956-1.711,2.447-2.818,4.175-3.662c0.032-0.016,0.064-0.029,0.098-0.045c0.248-0.119,0.5-0.233,0.759-0.344
		c0.202-0.086,0.403-0.171,0.61-0.252c2.467,3.219,4.934,6.434,7.4,9.651c-4.917-0.865-8.684-4.063-13.521-4.323
		C33.68,90.121,33.694,90.096,33.704,90.069z M24.334,115.539c2.186-0.613,3.399,0.113,4.971,1.957
		c3.295,3.866,7.785,5.704,13.117,4.451c-2.049,6.217-7.114,2.916-10.922,3.305c-3.082,0.313-5.287-1.338-6.121-4.357
		C24.896,119.145,24.674,117.326,24.334,115.539z M21.279,151.365c1.021-2.537,5.308-3.928,2.47-8.137
		c-0.736-1.094,2.844,0.354,4.233-0.582c2.876,0.488,5.946-0.337,8.67,1.199c-2.144,2.264-5.565,1.402-7.879,3.117
		c-4.092,3.033-6.166,7.047-5.052,13.066C19.901,157.217,19.986,154.576,21.279,151.365z M25.215,173.787
		c-0.807,0.637-1.613,1.273-2.42,1.914c-1.873,1.145,0.024,3.58-2.127,5.141c-2.217-4.475-3.984-8.922-5.09-13.898
		c3.355-0.299,4.387,4.85,7.979,2.627c2.398-1.486,4.223-3.457,5.719-5.828c0.824-1.307,0.934-4.34,3.613-2.637
		c2.63,1.672,1.719,3.799-0.256,5.639C30.139,169.068,27.686,171.438,25.215,173.787z M35.715,192.621
		c-2.06,0.285-3.278-0.316-2.057-2.477c1.176-2.076,2.186-4.455,4.971-5.047c2.084,2.051,5.014,2.004,7.552,2.93
		c9.643-3.197,19.282-5.758,29.876,1.072c-8.107,0.896-15.704-5.262-22.582,0.35C47.902,192.447,41.069,188.391,35.715,192.621z
		 M77.754,200.867c-3.42-1.609-6.183-1.449-9.556,0.4c-4.21,2.311-8.934,3.361-14.006,1.162c7.917-1.107,15.812-2.133,19.687-11.818
		c2.904,7.635,8.039,10.145,16.127,9.422C84.958,202.699,82.202,202.957,77.754,200.867z M70.642,179.123
		c-0.438-0.092-0.882-0.174-1.324-0.246c-3.024-1.379-1.378-2.201,0.425-2.646c5.995-1.48,11.314,0.934,18.491,2.951
		C81.105,182.088,75.941,176.629,70.642,179.123z M112.62,231.316c-3.328,1.785-6.111-1.313-9.277-1.004h-0.002
		c-5.238-2.674-6.01-7.623-6.567-12.682l0.001-0.002c4.331-3.688,6.639,0.689,9.291,2.52c3.059,2.109,3.711,6.451,7.938,8.012
		C116.325,229.021,113.991,230.58,112.62,231.316z M107.849,201.674c-1.556,1.705-3.111,3.412-4.667,5.115
		C101.795,202.404,102.995,201.088,107.849,201.674z M161.264,211.371c-9.563,5.375-19.052,3.637-28.271-0.477
		c-5.791-2.586-6.039-5.975-1.934-13.471c4.074-2.076,6.753-0.945,7.048,5.309c0.164,3.43,3.694,3.014,6.02,4.779
		c5.383,1.334,10.74,0.893,16.123-0.16c1.416-0.273,3.531-1.469,4.227,0.557C165.289,210.281,162.797,210.508,161.264,211.371z
		 M221.867,171.08c1.016,0.721,2.035,1.438,3.047,2.162c2.564,6.479,9.42,5.02,14.332,7.371
		C226.57,185.941,221.598,183.17,221.867,171.08z M146.857,168.232c-3.875-17.625-22.156-2.609-26.558,1.867v-0.002
		c-3.907,4.23-1.92,11.129-6.932,14.859c-2.707-2.328-2.111-5.57-1.613-8.289c1.125-6.145-1.615-8.949-7.307-9.887
		c-3.384-0.559-6.769-1.121-10.152-1.684c0,0-0.002,0-0.004,0c0.002,0,0.002,0,0.002,0.002c-7.439,3.234-12.875,2.408-16.728-2.492
		c0,0-1.918-0.75-1.917-0.75c-0.658-1.295,3.907-1.665,3.25-2.958c-0.001-0.002-7.096-0.704-7.098-0.704
		c-0.131-0.406-0.279-0.807-0.439-1.201v-0.002c-12.701-2.586-25.811-1.059-27.656,10.33c-0.461,2.836,0.271,5.178,0.955,7.867
		c-2.406,0.141-4.408,0.256-6.41,0.369c-0.887-8.848,7.656-19.432,17.187-21.301c4.253-1.891,15.555-1.663,20.462-1.358
		c0.891-5.855-5.382-8.037,1.333-10.136c0.006-0.069,7.047-6.168,3-8.378c2.071-6.646,4.856-7.184,10.876-9.093
		c11.505-3.646,23.058-6.998,35.327-6.389c-0.669,0.145-1.33,0.361-2.006,0.425c-9.335,0.86-18.094,2.729-22.439,12.431v0.002
		c5.885-0.969,11.191-4.131,17.245-4.481c1.992-0.116,4.021-1.317,5.927,0.25l0.002,0.001v-0.001
		c12.014-1.524,21.492,4.63,31.164,10.052c7.963,4.461,14.676,10.58,21.529,16.49c0.727,0.145,1.322,0.488,1.873,0.906
		c-0.039-5.074,2.102-6.781,8.373-7.119c2.932,1.195,5.736,2.775,9.209,2.74c-0.447,2.273-2.299,3.279-3.566,4.703
		c-1.447,0.049-1.975,3.938-3.922,1.164c-1.129-1.609-0.564-5.135-4.039-3.473c-2.178,1.043-3.123,3.182-2.752,5.643
		c0.57,0.855,1.113,1.73,1.729,2.557c2.266,2.146,1.008,5.559,2.883,7.844c0.746,3.957,1.492,7.914,2.24,11.871l-0.002,0.002
		c0.514,1.432,0.783,3.902,1.584,4.082c1.84,0.406,3.027-1.475,4.17-2.896c4.621-5.758,7.447-12.92,13.844-17.291
		c0.002,0,0.002,0,0.004-0.002c0,0-0.002,0.002-0.002,0c1.258-2.814,3.15-5.438,2.729-8.76l0,0
		c-7.434-19.763,4.383-32.474,17.004-44.89c0.502-0.069,1.004-0.142,1.508-0.212c3.766-1.057,5.484-4.605,8.203-6.816
		c2.912,0.702-0.326,4.188,2.465,4.772c1.129,0.224,2.449,0.618,2.35,1.868c-0.105,1.308-1.412,1.201-2.588,1.31
		c-3.445,0.317-7.188-0.194-9.869,2.823c-8.377,4.257-12.955,11.98-17.51,19.492c-3.025,4.986-0.734,10.576-0.002,15.887
		c0.002,0,0.002,0,0.002,0c2.037,3.766,3.654,8.061,7.998,8.91c1.121-0.281,2.176-0.678,2.98-1.484
		c3.654-2.143,7.506-3.852,11.811-2.727c3.266,0.855,6.984,1.684,6.238,6.484c0.977,3.02-0.404,7.379,3.922,8.525
		c3.992,1.059,7.092-1.701,9.537-4.242c4.789-4.979,10.135-7.432,17.051-5.721c0,0,0,0,0,0.002
		c1.535,5.637-2.361,9.289-5.033,13.393c-1.355,2.076-2.666,4.184-3.996,6.275c-0.002-0.002-0.002-0.004-0.004-0.004
		c-4.209-3.428-0.439-5.525,1.518-7.674c2.418-2.646,6.324-5.918,3.674-8.869c-3.229-3.598-6.359,1.199-9.256,2.947
		c-2.131,1.283-3.926,3.104-5.957,4.57c-7.514,5.43-9.07,4.887-12.129-3.959c-0.27-0.781-1.078-1.379-1.637-2.063
		c-4.625-2.828-9.408-2.67-14.533-1.252c-3.578,0.988-7.354,2.646-11.125,0.451c-1.203,0.719-2.408,1.438-3.609,2.152
		c0,0.002,0.002,0.002,0.002,0.002c-0.725,1.455-1.445,2.91-2.17,4.367c-1.525,3.176-4.615,4.787-7.133,6.973
		c-0.373,0.521-0.746,1.045-1.117,1.566c-1.033,3.959-3.27,7.111-6.586,9.535c-2.871,2.152-5.514,4.742-8.664,6.363
		c-5.729,2.943-7.012,8.492-9.246,13.566c0.021-0.184,0.035-0.357,0.049-0.529c0.01-0.141,0.018-0.275,0.021-0.41l0,0
		c0.242-6.49-5.75-5.135-10.316-6.225c8.025-3.541,16.41-5.18,21.049-12.77c-1.477-2.254-3.621-2.242-5.928-1.689
		c7.469-10.664,1.49-19.498-4.914-27.125c-11.408-13.59-26.07-22.854-43.665-27.097c-1.517-0.364-3.196-0.074-4.801-0.088
		c-5.362,1.05-10.7,2.257-16.095,3.097c-3.676,0.571-6.168,3.127-4.778,5.873c3.562,7.045,2.388,14.281,2.351,21.504
		c0.02,0.006,0.039,0.012,0.059,0.018c1.783,0.801,3.257,1.977,4.375,3.574c0.326,0.127,0.533,0.484,0.701,0.916
		c2.412-0.67,1.135-5.305,4.168-5.301c0,0,0.002,0,0.002-0.002c1.584-3.887,4.947-5.701,8.574-7.209
		c0.002,0,0.006-0.002,0.008-0.004c4.815-2.967,10.078-3.549,15.566-2.928c0.006,0,0.014,0,0.02,0
		c7.705,0.584,13.857,3.586,17.303,10.807c0.025,0.035,0.051,0.07,0.074,0.107c2.848,3.838,3.248,8.098,1.699,12.482
		c-0.631,1.783-2.348-3.887-5.473-4.262c-5.75,2.625-9,14.031-17.75,11.5c-5.5,0-9.648,10.537-14.838,14.67
		c-3.349-3.322,0.982-6.654,3.338-9.295c1.795-2.01,0.344-3.719-0.38-6.371c0-0.002,0-0.002,0-0.004
		c0,0.002-0.001,0.002-0.001,0.006c-1.375,0.543-2.29,2.357-4.603,1.326c0.871-3.816,12.655-6.277,7.776-11.373
		C133.107,172.857,146.732,176.482,146.857,168.232 M178.277,185.932c0.701,0.928,1.672,0.865,2.67,0.693
		c-3.1,4.373-7.518,6.082-13.836,6.607C171.475,190.377,174.877,188.156,178.277,185.932z M174.949,173.492
		c0.297-0.219,1.473,0.119,1.703,0.51c1.176,1.992,0.465,3.809-0.883,5.479c-0.574-0.359-1.146-0.717-1.721-1.072
		C173.682,176.643,173.176,174.807,174.949,173.492z"/>
</g>
</svg>
