<?xml version="1.0" encoding="utf-8"?>
<!-- Generator: Adobe Illustrator 15.1.0, SVG Export Plug-In . SVG Version: 6.00 Build 0)  -->
<!DOCTYPE svg PUBLIC "-//W3C//DTD SVG 1.1//EN" "http://www.w3.org/Graphics/SVG/1.1/DTD/svg11.dtd">
<svg version="1.1" id="Layer_5" xmlns="http://www.w3.org/2000/svg" xmlns:xlink="http://www.w3.org/1999/xlink" x="0px" y="0px"
	 width="283.465px" height="283.465px" viewBox="164.268 254.267 283.465 283.465"
	 enable-background="new 164.268 254.267 283.465 283.465" xml:space="preserve">
<g>
	<path d="M258.594,396.991c-0.788,1.443-1.734,2.697-3.996,2.356c-0.37,0.166-0.734,0.325-1.083,0.46
		c0.39,0.1,0.878,0.034,1.524-0.3c0.504,1.37-0.028,2.679-0.208,4.018c-0.913,6.795,1.11,9.196,9.308,10.98
		C262.555,408.599,258.613,403.33,258.594,396.991z"/>
	<path d="M251.27,397.052c0.007,0.007,0.014,0.013,0.021,0.019c0.004-0.012,0.007-0.022,0.011-0.035
		c0-0.002,0.001-0.003,0.002-0.005c-0.001,0.001-0.001,0.001-0.002,0.002C251.29,397.039,251.281,397.046,251.27,397.052z"/>
	<path d="M432.045,375.667c-1.543-6.833-4.725-12.925-7.804-18.821l-0.341-0.65l-0.19-0.094l-0.036-0.271
		c-7.771-10.475-17.658-19.238-29.384-26.046l-0.024,0.024l-0.174-0.125l-2.131-1.013l-1.669-0.793
		c-2.008-2.046-4.479-3.202-6.676-4.229c-1.71-0.799-3.333-1.558-4.592-2.637c-2.124-3.698-6.036-3.929-8.413-4.068
		c-9.917-0.582-19.482-1.608-27.511-7.643c-1.358-1.948-3.358-2.511-4.85-2.931l-0.336-0.094c-5.439-1.556-10.873-1.43-16.127-1.309
		c-4.062,0.094-7.901,0.184-11.666-0.462c-0.511-0.183-1.098-0.561-1.716-0.958c-1.548-0.996-3.669-2.36-6.571-1.825
		c-0.082,0.015-0.164,0.032-0.248,0.05c-1.889,0.203-3.846,0.49-5.818,0.854c-6.367,1.176-12.408,3.058-17.072,4.624
		c-3.9-0.511-7.726-0.257-11.431-0.01c-3.342,0.223-6.5,0.433-9.674,0.118c-2.111-0.208-4.244-0.106-6.523,0.314
		c-3.872,0.714-7.516,2.244-11.04,3.724c-2.052,0.862-3.99,1.675-5.97,2.34c-7.331,2.461-12.451,6.696-17.106,14.152l-0.522,0.747
		l-0.025,0.037c-3.386,1.11-6.136,3.041-8.802,4.914c-1.604,1.126-3.12,2.191-4.722,3.045c-2.587,1.04-5.651,2.695-7.244,6.239
		c-7.371,7.526-9.322,17.202-10.915,25.88c-3.064,3.207-5.231,6.42-6.616,9.81c-0.205,0.438-0.413,0.874-0.622,1.311
		c-0.46,0.963-0.937,1.959-1.375,2.982c-2.483,5.813-2.812,11.804-3.131,17.597c-0.182,3.306-0.354,6.428-0.898,9.513
		c-2.991,16.927,3.302,30.02,18.197,37.86c0.362,0.191,0.718,0.364,1.064,0.53c2.036,0.987,2.403,1.316,2.452,2.204l0.962,0.757
		l-0.662,0.342c2.882,5.586,7.378,9.917,13,12.522c4.976,2.307,10.667,3.229,16.461,2.668c5.424-0.522,11.008-0.006,16.409,0.494
		c6.056,0.561,12.298,1.14,18.6,0.329c-0.578,1.313-0.791,2.91-0.195,4.814c0.52,4.706,1.332,10.984,7.785,14.409
		c2.772,2.092,6.115,4.075,10.003,3.357c2.798-0.517,5.472-2.278,9.084-6.022c2.092-0.485,3.184-2.103,3.915-3.187
		c0.204-0.3,0.499-0.739,0.68-0.916c0.007,0.001,0.015,0.003,0.023,0.004l2.594-1.007c0.859-1.099,1.452-2.328,1.974-3.413
		c1.002-2.084,1.573-3.054,2.752-3.456c8.615,2.947,16.685,3.802,24.639,2.611l0.2-0.038c7.823-1.781,14.149-4.627,19.339-8.697
		l0.58-0.626c0.304-0.454,0.605-0.905,0.907-1.359l0.149-0.43l0.077,0.021c0.401-0.912,0.771-1.834,1.128-2.724
		c1.627-4.049,3.031-7.545,6.871-9.52c2.428-1.247,4.504-2.944,6.513-4.586c0.695-0.57,1.359-1.114,2.031-1.633l3.007-0.531
		c2.397-0.425,4.791-0.847,7.188-1.271l0.099-0.258l0.565,0.05c0.063-0.029,0.119-0.049,0.171-0.059
		c0.363-0.067,1.099,0.293,1.811,0.64c1.262,0.617,2.979,1.457,5.044,1.127c2.567,1.481,5.364,1.948,7.838,2.265
		c4.72,0.603,8.063,2.291,10.521,5.313l2.603,0.958c1.486-0.271,3.045-0.499,4.55-0.718c1.573-0.228,3.198-0.466,4.803-0.762
		c2.296-0.424,4.167-0.897,5.892-1.495l0.267-0.093c6.928-2.402,15.515-5.379,17.186-15.503c0.332-0.523,0.662-1.046,0.993-1.571
		c0.873-1.381,1.775-2.81,2.677-4.193c0.459-0.701,0.959-1.396,1.487-2.129c2.401-3.332,5.381-7.464,3.971-13.156l-0.069-1.382
		C439.611,400.088,438.987,387.253,432.045,375.667z M421.376,386.719c7.982-8.786,4.314-16.962-1.072-25.176
		c-0.845-1.288-3.994-4.104,1.184-4.088c0.001,0,0.001,0,0.002,0c3.227,6.185,6.521,12.343,7.997,19.241
		c0,0.002-0.001,0.004,0,0.006c0.181,4.403-4.49,7.382-3.655,11.979c0.001,0,0.001,0,0.002,0c1.837,1.615,4.905,1.527,6.329,4.979
		c-7.361-2.942-13.991-1.519-20.475,1.336c-1.212-0.559-2.422-1.112-4.379-2.013C412.131,390.109,418.45,391.855,421.376,386.719z
		 M376.849,322.712c3.432,3.253,8.597,3.815,11.813,7.403C383.186,330.035,377.475,330.321,376.849,322.712z M372.888,360.836
		C372.888,360.836,372.888,360.837,372.888,360.836c0.973-2.313,2.521-4.509,1.534-7.22c2.178-2.112-0.861-5.208,1.443-7.297
		c0.419-0.01,0.834-0.056,1.245-0.138c2.354,3.75-1.642,8.661,2.219,12.135h0.001c2.15,1.022,5.114-0.315,7.016,2.486
		c-2.164,2.467-5.314,0.428-7.581,1.695c-1.335,0.284-2.673,0.568-4.009,0.852l-0.001,0c-7.118,12.865-7.957,13.792-14.904,15.459
		C365.898,373.942,367.907,366.407,372.888,360.836z M352.422,326.925c3.663,4.973,3.466,10.811,4.345,18.214
		c-5.414-5.475-2.342-12.335-6.675-16.276c-0.082-0.441-0.175-0.88-0.276-1.318C349.933,324.223,351.322,325.43,352.422,326.925z
		 M351.322,354.758c-2.749,5.953-10.426,8.217-11.932,15.103c-3.393,5.856-3.189,12.389-3.688,18.792
		c-2.545-0.91-5.089-1.817-7.634-2.725c4.594-1.411,5.47-5.484,5.813-9.184C334.91,365.629,342.78,360.007,351.322,354.758z
		 M327.051,326.168c4.471,0.525,8.356,2.505,12.157,4.705c-0.443,2.846,3.432,6.285-1.241,8.551
		c-1.43-11.077-11.498-7.858-18.553-10.625C321.758,326.457,324.621,326.877,327.051,326.168z M291.998,325.796
		c2.851-3.622,6.973-5.079,11.153-6.435c0.001,0,0.001,0,0.002,0c0,0,0,0,0,0c6.594-5.108,6.437-7.195-1.118-14.899
		c0.001,0,0.002,0,0.003,0c2.648-0.66,4.349,1.212,6.362,2.248c0.049,0.027,0.099,0.055,0.15,0.08
		c0.116,0.056,0.235,0.107,0.353,0.158c0.034,0.014,0.065,0.031,0.1,0.043c0.152,0.062,0.309,0.116,0.466,0.164
		c0.313,2.084,0.799,3.949,3.648,3.484c2.271-0.369,1.824,1.149,1.643,2.447c-2.641,2.243-2.918,6.633-7.019,7.559
		c-0.396,0.021-0.787,0.031-1.172,0.021c-1.776,1.145-3.503,2.431-5.446,3.068c-5.303,1.74-6.397,5.158-5.183,10.05
		c0.334,1.354,1.294,2.984-0.997,4.801C292.837,334.398,292.453,330.087,291.998,325.796z M313.444,330.019
		c-0.606,3.328-3.651,4.71-6.445,5.963c-1.274,0.57-3.724-0.17-3.538-2.086c0.37-3.831,4.431-4.011,6.934-5.68
		C311.703,327.344,313.031,327.923,313.444,330.019z M308.678,361.388c1.414-2.871,3.223-5.262,5.178-7.662
		c0.834-0.058,2.464,0.149,1.834,0.851c-4.132,4.592-3.959,11.461-8.729,15.634c-4.434-0.911-7.35,5.92-12.292,2.407
		C301.766,371.853,305.863,367.105,308.678,361.388z M259.041,338.01c-2.021-4.711,2.92-10.801,8.858-11.421
		c3.309,1.502,8.563-2.94,10.051,0.637c1.675,4.028-4.277,5.729-6.954,8.129c-2.943,2.637-5.771,3.797-2.45,8.414
		c1.848,2.569-0.063,6.162-2.9,8.228c-2.75,2.001-4.721,0.864-4.366-2.208C261.775,345.502,260.698,341.877,259.041,338.01z
		 M233.879,316.693c1.366-1.544,3.248-2.293,4.667-3.5c2.252-0.708,4.522-0.982,6.801-1.02c2.065-0.034,4.139,0.126,6.215,0.342
		c0.762,2.776,5.703,4.331,2.367,8.309c-5.835-9.523-13.707-2.469-21.276-2.107C232.964,317.9,233.389,317.247,233.879,316.693z
		 M229.529,356.979c-1.072-11.11,5.604-18.107,13.011-24.865c-1.585,6.363-8.7,10.025-8.889,17.071
		c-2.235,6.39-0.812,12.768-0.101,19.15c-2.67-0.416-5.339-0.831-8.01-1.245C229.791,364.842,229.887,360.677,229.529,356.979z
		 M224.155,384.876c1.387,0.157,3.12,2.039,1.986,3.595c-2.266,3.111-5.854,1.202-8.858,1.368c-1.57,0.085-2.419-1.088-1.709-3.104
		C217.787,384.177,221.112,384.535,224.155,384.876z M197.973,344.337c0.059-0.15,0.12-0.297,0.187-0.439
		c0.002-0.007,0.006-0.014,0.01-0.021c0.075-0.16,0.153-0.314,0.236-0.464c0.004-0.008,0.009-0.014,0.013-0.021
		c0.956-1.71,2.447-2.818,4.175-3.661c0.032-0.016,0.064-0.03,0.097-0.046c0.249-0.119,0.501-0.233,0.759-0.343
		c0.202-0.086,0.404-0.171,0.61-0.252c2.467,3.218,4.934,6.433,7.401,9.651c-4.917-0.865-8.684-4.064-13.521-4.323
		C197.949,344.389,197.963,344.364,197.973,344.337z M188.604,369.807c2.185-0.613,3.399,0.113,4.97,1.956
		c3.295,3.867,7.785,5.705,13.118,4.452c-2.049,6.217-7.115,2.916-10.923,3.304c-3.082,0.314-5.286-1.338-6.12-4.357
		C189.165,373.412,188.943,371.594,188.604,369.807z M185.548,405.632c1.021-2.537,5.307-3.927,2.47-8.135
		c-0.737-1.094,2.843,0.353,4.233-0.582c2.876,0.488,5.946-0.338,8.67,1.199c-2.143,2.263-5.565,1.401-7.879,3.116
		c-4.092,3.033-6.166,7.048-5.052,13.066C184.17,411.484,184.255,408.843,185.548,405.632z M189.484,428.054
		c-0.806,0.638-1.613,1.275-2.419,1.914c-1.874,1.145,0.024,3.58-2.127,5.142c-2.217-4.476-3.985-8.923-5.091-13.9
		c3.356-0.297,4.387,4.85,7.979,2.627c2.398-1.485,4.223-3.457,5.719-5.828c0.824-1.305,0.934-4.339,3.613-2.636
		c2.63,1.672,1.719,3.799-0.255,5.639C194.408,423.336,191.955,425.705,189.484,428.054z M199.985,446.888
		c-2.06,0.285-3.279-0.316-2.057-2.475c1.176-2.077,2.185-4.456,4.97-5.048c2.085,2.051,5.014,2.005,7.552,2.929
		c9.643-3.197,19.282-5.756,29.876,1.074c-8.107,0.896-15.704-5.263-22.582,0.348C212.171,446.714,205.338,442.658,199.985,446.888z
		 M242.024,455.134c-3.42-1.609-6.183-1.449-9.556,0.402c-4.21,2.309-8.934,3.361-14.006,1.162
		c7.917-1.109,15.811-2.134,19.686-11.819c2.905,7.635,8.039,10.145,16.128,9.421C249.227,456.966,246.47,457.224,242.024,455.134z
		 M234.911,433.391c-0.439-0.092-0.881-0.175-1.324-0.246c-3.025-1.38-1.378-2.202,0.424-2.646
		c5.996-1.482,11.315,0.932,18.492,2.95C245.374,436.356,240.21,430.896,234.911,433.391z M276.889,485.583
		c-3.329,1.787-6.111-1.311-9.278-1.002c0,0-0.001,0-0.001,0c-5.239-2.675-6.011-7.624-6.568-12.683c0,0,0.001-0.001,0.001-0.001
		c4.331-3.688,6.639,0.689,9.291,2.519c3.058,2.109,3.711,6.451,7.938,8.012C280.594,483.289,278.26,484.847,276.889,485.583z
		 M272.118,455.942c-1.556,1.704-3.111,3.411-4.667,5.114C266.065,456.671,267.263,455.356,272.118,455.942z M325.533,465.639
		c-9.563,5.375-19.053,3.637-28.271-0.476c-5.792-2.587-6.04-5.975-1.934-13.471c4.075-2.076,7.533-2.807,7.828,3.447
		c0.164,3.43,2.914,4.875,5.241,6.641c5.383,1.334,10.739,0.892,16.123-0.16c1.415-0.275,3.53-1.47,4.227,0.556
		C329.559,464.549,327.067,464.775,325.533,465.639z M386.137,425.347c1.016,0.722,2.034,1.438,3.047,2.162
		c2.564,6.479,9.419,5.021,14.332,7.372C390.84,440.208,385.867,437.437,386.137,425.347z M432.546,427.685
		c-1.355,2.076-2.665,4.184-3.995,6.275c-0.002-0.001-0.003-0.002-0.005-0.003c-4.208-3.427-0.439-5.525,1.519-7.673
		c2.417-2.648,6.323-5.918,3.673-8.87c-3.228-3.598-6.36,1.2-9.256,2.948c-2.131,1.283-3.926,3.103-5.956,4.569
		c-7.514,5.431-9.07,4.888-12.129-3.959c-0.271-0.78-1.078-1.379-1.637-2.061c-4.625-2.828-9.409-2.671-14.533-1.253
		c-3.578,0.989-7.354,2.646-11.126,0.452c-1.203,0.718-2.407,1.436-3.608,2.152c0,0.001,0.001,0.001,0.001,0.001
		c-0.724,1.456-1.446,2.911-2.169,4.367c-1.527,3.176-4.616,4.788-7.134,6.973c-0.373,0.522-0.745,1.046-1.117,1.567
		c-1.032,3.959-3.269,7.111-6.586,9.535c-2.871,2.153-5.513,4.743-8.663,6.364c-5.729,2.942-7.013,8.492-9.246,13.566
		c0.021-0.184,0.034-0.358,0.048-0.53c0.01-0.14,0.017-0.275,0.021-0.409l0,0c0.243-6.491-5.749-5.135-10.315-6.225
		c8.024-3.541,16.41-5.18,21.047-12.77c-1.476-2.253-3.62-2.242-5.927-1.689c7.469-10.665,1.49-19.498-4.913-27.125
		c-11.409-13.59-26.071-22.854-43.666-27.097c-1.516-0.365-3.196-0.074-4.801-0.088c-5.362,1.05-10.7,2.257-16.095,3.097
		c-3.675,0.571-6.167,3.127-4.778,5.873c3.561,7.045,2.388,14.282,2.351,21.503c0.019,0.007,0.039,0.012,0.059,0.019
		c1.782,0.8,3.256,1.976,4.375,3.573c0.326,0.128,0.532,0.484,0.7,0.916c2.412-0.669,1.135-5.304,4.168-5.301
		c0.001,0,0.002,0,0.002-0.002c1.584-3.885,4.947-5.7,8.575-7.209c0.002,0,0.005-0.002,0.008-0.003
		c4.815-2.966,10.078-3.549,15.566-2.927c0.006-0.001,0.013,0,0.02-0.001c7.704,0.584,13.857,3.587,17.302,10.806
		c0.026,0.036,0.05,0.072,0.075,0.108c2.847,3.839,3.247,8.098,1.699,12.482c-0.631,1.784-1.729,3.709-3.073,1.618
		c-5.12,5.692-10.671,10.427-19.421,7.896c-5.189,4.133-10.378,8.263-15.568,12.395c-3.349-3.323-1.67-6.641,0.687-9.281
		c1.795-2.011,2.996-3.732,2.271-6.385c0-0.002,0-0.002,0-0.004c0,0.002-0.001,0.002-0.001,0.005
		c-1.375,0.544-2.29,2.358-4.602,1.328c0.87-3.817,6.629-6.951,1.75-12.045c-1.498-1.565,2.186-3.164,4.381-3.737
		c0,0.001,0.001,0,0.001,0.002c0-0.002,0-0.003,0-0.004c2.066-2.679,5.382-1.771,8.035-2.768c-6.689-1.858-11.59,1.234-15.992,5.711
		c0,0,0-0.001,0-0.001c-3.907,4.23-1.92,11.129-6.932,14.858c-2.706-2.327-2.11-5.569-1.613-8.289
		c1.125-6.143-1.615-8.948-7.306-9.886c-3.384-0.558-6.769-1.122-10.152-1.683c-0.001,0-0.003-0.001-0.005,0
		c0.002,0,0.003,0,0.003,0.001c-7.44,3.235-16.666,1.879-20.519-3.021c0-0.001,0-0.001,0.001-0.001
		c-0.658-1.294-1.315-2.588-1.971-3.881c-0.001-0.001-0.002-0.002-0.004-0.002c-0.131-0.406-0.279-0.806-0.439-1.2
		c0-0.001,0-0.002,0-0.002c-12.702-2.586-25.811-1.058-27.657,10.329c-0.461,2.836,0.272,5.178,0.955,7.869
		c-2.405,0.14-4.408,0.255-6.41,0.369c-0.886-8.848,7.656-19.432,17.187-21.302c4.253-1.891,8.326-4.405,13.233-4.101
		c0.891-5.855,2.112-11.495,8.826-13.594c0.007-0.069,0.017-0.137,0.023-0.206c2.071-6.646,7.569-9.154,13.59-11.064
		c11.504-3.646,23.057-6.997,35.327-6.388c-0.669,0.145-1.33,0.361-2.006,0.425c-9.335,0.86-18.093,2.73-22.439,12.431
		c0,0,0,0.001-0.001,0.001c5.885-0.969,11.192-4.13,17.246-4.481c1.992-0.116,4.02-1.318,5.927,0.25c0,0,0.001,0.001,0.001,0.001
		c0,0,0-0.001,0-0.001c12.014-1.524,21.493,4.63,31.164,10.051c7.963,4.461,14.677,10.58,21.53,16.49
		c0.727,0.146,1.323,0.49,1.873,0.908c-0.039-5.075,2.102-6.783,8.373-7.12c2.932,1.195,5.737,2.776,9.209,2.74
		c-0.447,2.274-2.298,3.279-3.567,4.703c-1.446,0.05-1.975,3.938-3.922,1.164c-1.128-1.608-0.563-5.134-4.038-3.473
		c-2.178,1.043-3.124,3.182-2.753,5.643c0.571,0.856,1.114,1.731,1.729,2.558c2.266,2.146,1.007,5.558,2.882,7.842
		c0.747,3.957,1.494,7.914,2.241,11.872l-0.001,0.001c0.512,1.432,0.782,3.903,1.584,4.082c1.84,0.408,3.027-1.474,4.169-2.895
		c4.621-5.759,7.447-12.921,13.843-17.292c0.002,0,0.003,0,0.004-0.001c0,0-0.001,0.001-0.002,0c1.258-2.815,3.151-5.439,2.729-8.76
		l0,0c-7.434-19.763,4.383-32.474,17.005-44.89c0.502-0.07,1.004-0.141,1.507-0.212c3.765-1.057,5.484-4.606,8.204-6.816
		c2.911,0.702-0.327,4.188,2.464,4.772c1.129,0.224,2.449,0.618,2.349,1.869c-0.104,1.307-1.412,1.2-2.587,1.309
		c-3.445,0.318-7.188-0.195-9.869,2.823c-8.377,4.257-12.955,11.98-17.511,19.493c-3.024,4.986-0.733,10.576-0.001,15.887
		c0.001-0.001,0.001-0.001,0.001-0.001c2.038,3.766,3.655,8.06,7.998,8.911c1.123-0.282,2.177-0.679,2.981-1.486
		c3.655-2.142,7.507-3.851,11.81-2.726c3.267,0.855,6.985,1.684,6.24,6.484c0.976,3.02-0.406,7.38,3.921,8.526
		c3.993,1.058,7.092-1.701,9.537-4.243c4.789-4.977,10.136-7.43,17.052-5.719c0,0,0,0,0,0.001
		C439.115,419.93,435.219,423.582,432.546,427.685z M342.547,440.2c0.702,0.927,1.672,0.865,2.669,0.692
		c-3.099,4.374-7.516,6.083-13.836,6.608C335.744,444.645,339.146,442.424,342.547,440.2z M339.218,427.76
		c0.298-0.219,1.473,0.119,1.704,0.509c1.175,1.992,0.465,3.81-0.883,5.479c-0.574-0.359-1.147-0.716-1.721-1.072
		C337.951,430.911,337.446,429.074,339.218,427.76z"/>
</g>
</svg>
