<?xml version="1.0" encoding="utf-8"?>
<!-- Generator: Adobe Illustrator 15.1.0, SVG Export Plug-In . SVG Version: 6.00 Build 0)  -->
<!DOCTYPE svg PUBLIC "-//W3C//DTD SVG 1.1//EN" "http://www.w3.org/Graphics/SVG/1.1/DTD/svg11.dtd">
<svg version="1.1" id="Layer_1" xmlns:serif="http://www.serif.com/"
	 xmlns="http://www.w3.org/2000/svg" xmlns:xlink="http://www.w3.org/1999/xlink" x="0px" y="0px" width="283.46px"
	 height="283.46px" viewBox="0 0 283.46 283.46" enable-background="new 0 0 283.46 283.46" xml:space="preserve">
<path d="M17.473,259.226h102.266c-1.003-2.224-2.407-4.27-4.164-6.026c-3.829-3.827-9.021-5.977-14.433-5.977h-4.234
	c-2.653,0-5.255,0.517-7.669,1.495c-0.998-2.152-2.374-4.131-4.082-5.841c-3.828-3.827-9.021-5.979-14.432-5.979H66.49
	c-5.414,0-10.605,2.152-14.432,5.979c-1.71,1.71-3.084,3.688-4.082,5.841c-2.414-0.979-5.016-1.495-7.669-1.495h-4.234
	c-5.414,0-10.605,2.149-14.433,5.977C19.883,254.957,18.479,257.002,17.473,259.226L17.473,259.226z M163.723,259.226h102.264
	c-1.003-2.224-2.407-4.27-4.164-6.026c-3.83-3.827-9.021-5.977-14.434-5.977h-4.234c-2.653,0-5.254,0.517-7.668,1.495
	c-0.999-2.152-2.373-4.131-4.082-5.841c-3.829-3.827-9.021-5.979-14.433-5.979h-4.234c-5.414,0-10.604,2.152-14.433,5.979
	c-1.709,1.71-3.083,3.688-4.082,5.841c-2.414-0.979-5.015-1.495-7.668-1.495h-4.234c-5.414,0-10.604,2.149-14.434,5.977
	C166.13,254.957,164.726,257.002,163.723,259.226L163.723,259.226z M38.19,216.801c8.395,0,15.211,6.815,15.211,15.211
	c0,8.395-6.816,15.21-15.211,15.21s-15.211-6.815-15.211-15.21C22.979,223.617,29.795,216.801,38.19,216.801z M99.025,216.801
	c8.395,0,15.211,6.815,15.211,15.211c0,8.395-6.816,15.21-15.211,15.21s-15.211-6.815-15.211-15.21
	C83.814,223.617,90.63,216.801,99.025,216.801z M184.438,216.801c8.395,0,15.211,6.815,15.211,15.211
	c0,8.395-6.816,15.21-15.211,15.21s-15.211-6.815-15.211-15.21C169.227,223.617,176.043,216.801,184.438,216.801z M245.272,216.801
	c8.396,0,15.211,6.815,15.211,15.211c0,8.395-6.815,15.21-15.211,15.21c-8.395,0-15.211-6.815-15.211-15.21
	C230.061,223.617,236.877,216.801,245.272,216.801z M68.607,206.479c8.396,0,15.211,6.813,15.211,15.21
	c0,8.396-6.815,15.209-15.211,15.209c-8.395,0-15.21-6.813-15.21-15.209C53.397,213.292,60.212,206.479,68.607,206.479z
	 M214.855,206.479c8.396,0,15.211,6.813,15.211,15.21c0,8.396-6.815,15.209-15.211,15.209c-8.395,0-15.211-6.813-15.211-15.209
	C199.644,213.292,206.46,206.479,214.855,206.479z M138.867,124.775c0.244-0.041,0.492-0.061,0.747-0.061
	c2.508,0,4.542,2.034,4.542,4.541c0,5.598,1.287,9.612,3.727,12.448c4.298,4.995,11.61,6.38,19.561,7.243
	c8.151,0.884,16.99,0.992,24.853,2.203c6.729,1.033,12.782,2.896,17.407,6.308c5.826,4.298,9.694,10.968,9.694,21.859h9.056
	l-13.598,23.769l-13.597-23.769h9.055c0-5.6-1.286-9.611-3.727-12.448c-4.297-4.996-11.611-6.381-19.561-7.244
	c-8.15-0.883-16.99-0.994-24.854-2.201c-6.729-1.034-12.781-2.896-17.406-6.309c-1.918-1.415-3.623-3.088-5.05-5.082
	c-1.212,1.781-2.638,3.303-4.224,4.613c-4.408,3.641-10.252,5.628-16.787,6.721c-7.566,1.266-16.118,1.359-23.974,2.277
	c-7.469,0.875-14.339,2.281-18.264,7.403c-2.181,2.843-3.319,6.808-3.319,12.27h9.054l-13.596,23.769L55.01,179.317h9.053
	c0-10.53,3.467-17.095,8.665-21.391c4.409-3.644,10.251-5.63,16.788-6.722c7.566-1.266,16.118-1.359,23.974-2.277
	c7.469-0.874,14.337-2.283,18.264-7.402c2.181-2.845,3.318-6.81,3.318-12.27c0-2.23,1.609-4.086,3.729-4.47
	C138.823,124.782,138.844,124.78,138.867,124.775z M108.967,107.88l-3.904,0.421l-3.677,1.132l-1.317,0.6
	c-1.944,0.973-3.739,2.257-5.305,3.824c-2.209,2.209-3.859,4.872-4.86,7.77h103.655c-1.002-2.897-2.652-5.561-4.861-7.77
	c-1.564-1.567-3.359-2.852-5.305-3.824l-3.67-1.41l-3.951-0.688l-1.506-0.057h-4.234c-2.6,0-5.146,0.495-7.517,1.435l-0.152,0.062
	c-0.999-2.15-2.374-4.132-4.082-5.842c-3.768-3.768-8.859-5.909-14.18-5.977h-4.487c-5.414,0-10.604,2.15-14.432,5.977
	c-1.655,1.657-2.999,3.567-3.986,5.641l-0.096,0.201c-2.414-0.979-5.016-1.496-7.669-1.496L108.967,107.88z M92.859,110.033
	c1.541-1.378,3.24-2.547,5.052-3.486l-0.242-0.233c-3.493-3.493-5.653-8.318-5.653-13.646c0-5.324,2.16-10.149,5.653-13.643
	c3.493-3.496,8.318-5.656,13.646-5.656c4.427,0,8.508,1.493,11.766,4.008c0.886-3.332,2.641-6.309,5.007-8.677
	c3.493-3.493,8.318-5.653,13.645-5.653c5.325,0,10.15,2.16,13.643,5.653c2.369,2.368,4.124,5.345,5.007,8.677
	c3.258-2.515,7.34-4.008,11.769-4.008c5.324,0,10.15,2.16,13.643,5.656c3.496,3.493,5.656,8.318,5.656,13.643
	c0,5.327-2.16,10.152-5.656,13.646l-0.24,0.233c1.813,0.939,3.512,2.108,5.053,3.486h4.07V85.389c0-5.412-2.149-10.604-5.977-14.433
	c-3.828-3.826-9.02-5.977-14.432-5.977h-4.234c-2.654,0-5.256,0.517-7.669,1.496c-0.999-2.152-2.374-4.132-4.082-5.842
	c-3.829-3.829-9.021-5.979-14.433-5.979h-4.234c-5.414,0-10.604,2.149-14.433,5.979c-1.709,1.71-3.083,3.689-4.081,5.842
	c-2.414-0.979-5.016-1.496-7.669-1.496h-4.234c-5.414,0-10.605,2.15-14.433,5.977c-3.827,3.829-5.979,9.021-5.979,14.433
	c0,11.923,0,24.644,0,24.644H92.859z M111.51,77.458c8.303,0.105,15.015,6.88,15.015,15.209s-6.712,15.104-15.015,15.209
	l-0.196,0.002c-8.395,0-15.211-6.816-15.211-15.211s6.816-15.211,15.211-15.211L111.51,77.458z M172.344,77.458
	c8.307,0.105,15.016,6.88,15.016,15.209s-6.709,15.104-15.016,15.209l-0.195,0.002c-8.395,0-15.211-6.816-15.211-15.211
	s6.816-15.211,15.211-15.211L172.344,77.458z M141.927,67.136c8.306,0.105,15.015,6.88,15.015,15.209s-6.709,15.104-15.015,15.209
	l-0.196,0.002c-8.395,0-15.211-6.816-15.211-15.211s6.816-15.211,15.211-15.211L141.927,67.136L141.927,67.136z M111.314,34.558
	c8.395,0,15.211,6.816,15.211,15.211s-6.816,15.211-15.211,15.211s-15.211-6.816-15.211-15.211S102.919,34.558,111.314,34.558z
	 M172.149,34.558c8.395,0,15.211,6.816,15.211,15.211s-6.816,15.211-15.211,15.211s-15.211-6.816-15.211-15.211
	S163.754,34.558,172.149,34.558z M141.731,24.234c8.395,0,15.211,6.816,15.211,15.211s-6.816,15.211-15.211,15.211
	s-15.211-6.816-15.211-15.211S133.336,24.234,141.731,24.234z"/>
</svg>
