<?xml version="1.0" encoding="utf-8"?>
<!-- Generator: Adobe Illustrator 15.1.0, SVG Export Plug-In . SVG Version: 6.00 Build 0)  -->
<!DOCTYPE svg PUBLIC "-//W3C//DTD SVG 1.1//EN" "http://www.w3.org/Graphics/SVG/1.1/DTD/svg11.dtd">
<svg version="1.1" id="Layer_2" xmlns="http://www.w3.org/2000/svg" xmlns:xlink="http://www.w3.org/1999/xlink" x="0px" y="0px"
	 width="283.465px" height="283.465px" viewBox="0 0 283.465 283.465" enable-background="new 0 0 283.465 283.465"
	 xml:space="preserve">
<g>
	<path fill="none" d="M140.722,219.989h-25.013c1.32,5.775,3.74,11.176,6.38,15.903h18.633h2.023h18.633
		c2.64-4.728,5.06-10.128,6.38-15.903h-25.013H140.722z"/>
	<path fill="none" d="M140.722,242.205h-12.437c0.537,2.953,1.521,5.711,2.596,8.124h9.841h2.023h9.839
		c1.074-2.413,2.061-5.171,2.598-8.124h-12.437H140.722z"/>
	<path fill="none" d="M114.217,129.979c2.754-0.614,5.387-1.56,7.884-2.827c3.557-1.606,6.851-3.854,9.838-6.724
		c0.152-0.146,0.297-0.307,0.427-0.478c0.36-0.473,0.814-0.921,1.295-1.397c0.635-0.628,1.075-1.075,1.428-1.593
		c3.665-4.006,5.604-8.717,5.604-13.62c0-4.901-1.936-9.608-5.599-13.617c-0.002-0.003-0.004-0.006-0.008-0.009l-2.782-3.096
		c-0.061-0.069-0.124-0.135-0.188-0.198c-3.44-3.354-6.729-5.706-10.205-7.259c-2.213-1.137-4.486-1.94-6.91-2.458l-0.049-0.011
		c-15.705-3.595-44.109-10.738-52.44-12.84l-1.565-0.395l-0.093-0.024l-0.098-0.021c-3.159-0.661-6.381-0.997-9.572-0.997h-0.002
		c-2.681,0-5.282,0.242-7.775,0.709c-0.062,0.002-0.123,0.004-0.185,0.005c-0.189,0.003-0.382,0.007-0.572,0.014
		c-0.156,0.006-0.311,0.015-0.468,0.022c-0.189,0.011-0.381,0.022-0.572,0.038c-0.154,0.014-0.309,0.027-0.465,0.043
		c-0.191,0.02-0.382,0.042-0.573,0.068c-0.153,0.02-0.307,0.04-0.461,0.063c-0.192,0.028-0.385,0.062-0.577,0.095
		c-0.149,0.029-0.301,0.054-0.449,0.084c-0.197,0.04-0.394,0.085-0.589,0.129c-0.145,0.033-0.29,0.063-0.434,0.1
		c-0.204,0.05-0.408,0.107-0.611,0.166c-0.135,0.036-0.268,0.071-0.401,0.112c-0.225,0.067-0.447,0.144-0.669,0.218
		c-0.11,0.038-0.224,0.072-0.335,0.112c-0.332,0.119-0.663,0.244-0.991,0.382c-4.136,1.62-7.432,4.311-9.859,7.75
		c-2.275,2.535-3.721,5.194-4.635,7.541v0.004c-6.065,15.192-6.069,31.313-0.014,46.617l0.018,0.04l0.016,0.039
		c1.021,2.456,2.537,4.81,4.461,6.952c2.533,3.675,5.981,6.679,10.015,8.293c0.327,0.138,0.659,0.262,0.991,0.382
		c0.112,0.04,0.226,0.072,0.338,0.11c0.222,0.076,0.442,0.151,0.666,0.218c0.135,0.04,0.27,0.075,0.406,0.113
		c0.201,0.057,0.403,0.113,0.605,0.164c0.146,0.037,0.292,0.067,0.438,0.102c0.193,0.044,0.389,0.089,0.583,0.127
		c0.152,0.031,0.305,0.058,0.455,0.083c0.191,0.035,0.382,0.067,0.573,0.096c0.154,0.024,0.309,0.045,0.465,0.064
		c0.189,0.024,0.379,0.047,0.569,0.065c0.156,0.018,0.311,0.03,0.467,0.044c0.189,0.017,0.381,0.029,0.571,0.039
		c0.154,0.011,0.311,0.018,0.469,0.021c0.189,0.009,0.381,0.013,0.571,0.015c0.063,0,0.122,0.002,0.184,0.004
		c2.495,0.466,5.097,0.709,7.777,0.709c3.195,0,6.42-0.335,9.581-0.998l0.085-0.019l0.087-0.022l1.569-0.393l51.632-12.943
		C114.167,129.99,114.192,129.985,114.217,129.979z M113.042,125.184l-51.635,12.942l-1.568,0.395
		c-2.858,0.598-5.771,0.902-8.659,0.902c-3.537,0-6.909-0.455-10.021-1.354c-0.023-0.007-0.047-0.014-0.069-0.02
		c-7.339-2.039-13.69-7.241-16.19-13.26c-5.563-14.058-5.561-28.857,0.007-42.806c0.004-0.01,0.008-0.018,0.012-0.028
		c1.748-4.496,5.967-10.438,16.135-13.204c0.035-0.01,0.07-0.021,0.106-0.03c3.11-0.898,6.484-1.354,10.023-1.354
		c2.883,0,5.793,0.303,8.649,0.899c0.243,0.062,0.785,0.198,1.574,0.399c7.372,1.86,36.632,9.221,52.542,12.864
		c0.038,0.007,0.075,0.018,0.113,0.024c4.865,1.034,9.088,3.496,13.681,7.974l2.781,3.096c0.008,0.011,0.017,0.019,0.024,0.029
		c2.93,3.203,4.478,6.898,4.478,10.685s-1.548,7.48-4.478,10.685c-0.135,0.146-0.254,0.299-0.362,0.456
		c-0.156,0.226-0.562,0.627-0.921,0.982c-0.54,0.533-1.141,1.129-1.679,1.834c-4.17,4.007-8.997,6.645-14.355,7.841
		C113.167,125.152,113.104,125.167,113.042,125.184z"/>
	<path fill="none" d="M142.745,71.738h33.798V56.267c0-7.402-2.526-11.713-6.103-15.471l-3.578,5.858
		c-1.054,1.546-3.053,2.1-4.525,2.1s-3.051-0.554-4.104-1.549c-1.997-2.098-1.997-5.855-0.525-7.956l2.526-3.757c0,0,0,0,0-0.553
		c-5.05-1.547-9.682-1.547-13.153-1.547c-1.295,0-2.756,0.079-4.335,0.228v0.218c-0.343-0.042-0.679-0.081-1.011-0.116
		c-0.336,0.035-0.672,0.074-1.013,0.116v-0.218c-1.579-0.148-3.04-0.228-4.335-0.228c-3.472,0-8.102,0-13.153,1.547
		c0,0.553,0,0.553,0,0.553l2.526,3.757c1.472,2.101,1.472,5.858-0.525,7.956c-1.054,0.995-2.63,1.549-4.104,1.549
		c-1.473,0-3.472-0.554-4.523-2.1l-3.578-5.858c-3.578,3.758-6.104,8.067-6.104,15.471v15.471h33.798H142.745z M110.964,56.267
		c0-3.454,0.639-6.013,1.734-8.149l0.506,0.827c0.034,0.06,0.073,0.117,0.111,0.176c1.652,2.427,4.572,3.877,7.814,3.877
		c2.515,0,5.06-0.986,6.807-2.637c0.054-0.05,0.104-0.102,0.154-0.153c2.981-3.131,3.603-8.378,1.629-12.289
		c2.438-0.282,4.695-0.282,6.667-0.282c1.524,0,3.341,0.124,5.346,0.355c2.005-0.231,3.821-0.355,5.346-0.355
		c1.973,0,4.229,0,6.667,0.282c-1.974,3.911-1.351,9.158,1.629,12.289c0.051,0.052,0.103,0.104,0.154,0.153
		c1.747,1.65,4.292,2.637,6.807,2.637c3.242,0,6.162-1.449,7.814-3.877c0.038-0.059,0.077-0.116,0.111-0.176l0.506-0.827
		c1.094,2.137,1.734,4.695,1.734,8.149v11.226h-29.757h-2.024h-29.756V56.267z"/>
	<path fill="none" d="M262.905,80.066c-0.914-2.347-2.359-5.005-4.633-7.54c-2.428-3.438-5.724-6.129-9.859-7.75
		c-0.328-0.137-0.658-0.263-0.99-0.383c-0.112-0.039-0.224-0.074-0.336-0.11c-0.222-0.076-0.443-0.151-0.67-0.218
		c-0.133-0.041-0.266-0.076-0.399-0.113c-0.204-0.058-0.407-0.116-0.611-0.166c-0.145-0.036-0.29-0.065-0.435-0.101
		c-0.196-0.044-0.392-0.09-0.589-0.127c-0.15-0.031-0.299-0.057-0.449-0.084c-0.193-0.034-0.386-0.067-0.579-0.097
		c-0.152-0.022-0.307-0.042-0.459-0.063c-0.191-0.025-0.384-0.049-0.575-0.067c-0.154-0.017-0.309-0.03-0.463-0.043
		c-0.191-0.017-0.383-0.028-0.573-0.04c-0.154-0.008-0.311-0.017-0.467-0.021c-0.191-0.007-0.383-0.011-0.573-0.014
		c-0.063-0.001-0.124-0.002-0.184-0.004c-2.495-0.468-5.095-0.709-7.777-0.709c-3.189,0-6.413,0.335-9.572,0.995l-0.1,0.021
		l-0.091,0.023l-1.565,0.395c-8.333,2.104-36.737,9.245-52.442,12.842l-0.047,0.01c-2.424,0.518-4.698,1.322-6.912,2.457
		c-3.476,1.555-6.764,3.904-10.203,7.261c-0.065,0.063-0.129,0.129-0.189,0.196l-2.782,3.097c-0.002,0.003-0.006,0.006-0.008,0.009
		c-3.661,4.008-5.597,8.717-5.597,13.617c0,4.901,1.938,9.613,5.603,13.62c0.354,0.518,0.795,0.966,1.428,1.593
		c0.48,0.476,0.935,0.926,1.297,1.397c0.13,0.172,0.272,0.331,0.425,0.479c2.987,2.87,6.281,5.117,9.838,6.724
		c2.497,1.267,5.13,2.212,7.886,2.826c0.022,0.007,0.048,0.012,0.079,0.02l51.632,12.943l1.569,0.395l0.087,0.021l0.087,0.021
		c3.161,0.661,6.384,0.997,9.579,0.997c2.683,0,5.284-0.241,7.777-0.709c0.062-0.003,0.121-0.005,0.184-0.005
		c0.19-0.002,0.382-0.006,0.573-0.014c0.154-0.007,0.311-0.013,0.469-0.022c0.188-0.01,0.38-0.022,0.569-0.038
		c0.154-0.015,0.311-0.027,0.467-0.045c0.189-0.019,0.38-0.041,0.571-0.065c0.152-0.02,0.309-0.04,0.463-0.064
		c0.191-0.025,0.382-0.061,0.573-0.096c0.152-0.025,0.303-0.052,0.455-0.083c0.195-0.038,0.389-0.083,0.583-0.127
		c0.146-0.033,0.292-0.064,0.438-0.102c0.202-0.051,0.403-0.106,0.604-0.164c0.138-0.038,0.272-0.071,0.407-0.113
		c0.225-0.066,0.444-0.143,0.666-0.218c0.112-0.038,0.226-0.07,0.338-0.11c0.334-0.12,0.664-0.245,0.992-0.382
		c4.033-1.614,7.479-4.618,10.014-8.293c1.924-2.143,3.44-4.495,4.462-6.952l0.017-0.039l0.016-0.04
		c6.056-15.305,6.052-31.425-0.012-46.617L262.905,80.066z M258.565,124.79c-2.499,6.019-8.852,11.221-16.189,13.26
		c-0.022,0.006-0.048,0.013-0.071,0.02c-3.11,0.897-6.482,1.354-10.021,1.354c-2.887,0-5.799-0.305-8.657-0.902l-1.568-0.395
		l-51.635-12.942c-0.062-0.017-0.125-0.03-0.187-0.045c-5.359-1.196-10.188-3.833-14.358-7.841c-0.538-0.706-1.139-1.3-1.679-1.835
		c-0.357-0.354-0.763-0.756-0.919-0.982c-0.107-0.157-0.229-0.308-0.362-0.455c-2.93-3.204-4.479-6.899-4.479-10.685
		s1.55-7.481,4.479-10.685c0.008-0.009,0.017-0.02,0.024-0.028l2.781-3.097c4.591-4.478,8.813-6.938,13.681-7.974
		c0.036-0.008,0.075-0.016,0.111-0.024c15.912-3.643,45.17-11.003,52.542-12.864c0.791-0.2,1.333-0.337,1.576-0.397
		c2.856-0.599,5.765-0.901,8.649-0.901c3.539,0,6.911,0.455,10.021,1.354c0.037,0.012,0.071,0.021,0.108,0.03
		c10.168,2.767,14.387,8.709,16.135,13.205c0.004,0.009,0.008,0.019,0.012,0.028C264.125,95.93,264.127,110.732,258.565,124.79z"/>
	<path fill="none" d="M140.722,190.64H99.776c2.313,7.79,6.552,15.073,11.176,21.446h29.77h2.023h29.77
		c4.626-6.373,8.864-13.656,11.176-21.446h-40.943H140.722z"/>
	<path fill="none" d="M142.745,159.581h-2.023H99.776c-1.926,6.778-3.273,13.656-3.273,21.447h44.219h2.023h44.221
		c0-7.791-1.35-14.669-3.275-21.447H142.745z"/>
	<g>
		<path fill="#231F20" d="M129.266,115.463c0.357-0.355,0.763-0.757,0.919-0.982c0.108-0.158,0.229-0.31,0.362-0.456
			c2.93-3.204,4.479-6.898,4.479-10.685s-1.55-7.481-4.479-10.685c-0.008-0.011-0.017-0.019-0.024-0.028l-2.781-3.096
			c-4.591-4.479-8.813-6.939-13.679-7.975c-0.038-0.008-0.075-0.017-0.113-0.024c-15.912-3.644-45.17-11.003-52.542-12.864
			c-0.791-0.199-1.331-0.337-1.576-0.399c-2.856-0.597-5.765-0.899-8.649-0.899c-3.539,0-6.911,0.456-10.022,1.354
			c-0.036,0.01-0.07,0.021-0.107,0.03c-10.168,2.767-14.387,8.708-16.135,13.204c-0.004,0.011-0.008,0.02-0.012,0.029
			c-5.566,13.947-5.568,28.748-0.006,42.806c2.499,6.018,8.851,11.22,16.189,13.259c0.023,0.005,0.048,0.013,0.07,0.02
			c3.111,0.897,6.483,1.354,10.022,1.354c2.887,0,5.799-0.305,8.657-0.902l1.568-0.395l51.637-12.941
			c0.062-0.018,0.123-0.03,0.187-0.046c5.357-1.196,10.187-3.833,14.356-7.841C128.123,116.592,128.726,115.999,129.266,115.463z"/>
		<path fill="#231F20" d="M270.194,75.605c-5.05-15.471-18.204-24.532-32.409-24.532c-3.053,0-7.052,0.442-10.629,1.548
			l-41.564,14.917V56.266c0-10.056-4.104-19.116-11.152-24.972l10.101-14.918c2.105-2.651,1.58-6.961-1.473-8.506
			c-2.526-1.659-6.104-0.555-7.577,2.098l-10.627,15.47c-5.577-2.099-12.206-3.203-19.782-3.203c-1.122,0-2.237,0.037-3.347,0.091
			c-1.111-0.054-2.227-0.091-3.349-0.091c-7.576,0-14.205,1.104-19.782,3.203l-10.627-15.47c-1.473-2.652-5.051-3.757-7.577-2.098
			c-3.051,1.545-3.578,5.855-1.473,8.506l10.101,14.92c-7.049,5.854-11.154,14.916-11.154,24.971v11.271L56.311,52.621
			c-3.577-1.104-7.577-1.547-10.629-1.547c-14.205,0-27.359,9.061-32.409,24.531c-6.104,18.121-6.104,37.789,0,56.464
			c5.05,14.918,18.204,24.532,32.409,24.532c3.578,0,7.576-0.553,10.629-1.546l35.987-13.261v0.552
			c-6.104,12.818-10.103,27.182-10.103,42.102c0,38.233,22.575,70.273,54.128,83.421l4.68,8.51l4.346-7.907
			c0.053,0.021,0.101,0.042,0.15,0.064c32.41-12.708,55.771-45.194,55.771-84.088c0-14.918-3.999-29.283-10.103-42.102v-0.552
			l35.987,13.261c3.053,0.993,7.051,1.546,10.629,1.546c14.205,0,27.359-9.613,32.409-24.532
			C276.297,113.394,276.297,93.726,270.194,75.605z M106.924,56.267c0-7.402,2.524-11.713,6.103-15.471l3.578,5.858
			c1.052,1.546,3.051,2.1,4.525,2.1c1.473,0,3.051-0.554,4.103-1.549c1.999-2.098,1.999-5.855,0.527-7.956l-2.526-3.757
			c0,0,0,0,0-0.553c5.05-1.547,9.68-1.547,13.153-1.547c1.295,0,2.754,0.079,4.335,0.228v0.218c0.341-0.042,0.677-0.081,1.011-0.116
			c0.334,0.035,0.67,0.074,1.012,0.116v-0.218c1.58-0.148,3.039-0.228,4.334-0.228c3.474,0,8.104,0,13.153,1.547
			c0,0.553,0,0.553,0,0.553l-2.524,3.757c-1.474,2.101-1.474,5.858,0.525,7.956c1.052,0.995,2.63,1.549,4.103,1.549
			c1.475,0,3.474-0.554,4.525-2.1l3.578-5.858c3.578,3.758,6.104,8.067,6.104,15.471v15.471h-33.799h-2.024h-33.797L106.924,56.267
			L106.924,56.267z M62.504,142.94l-1.569,0.395l-0.087,0.021l-0.085,0.021c-3.161,0.661-6.386,0.997-9.581,0.997
			c-2.681,0-5.283-0.241-7.777-0.709c-0.062-0.003-0.121-0.005-0.184-0.005c-0.19-0.002-0.382-0.006-0.571-0.014
			c-0.156-0.007-0.313-0.014-0.469-0.022c-0.19-0.01-0.382-0.022-0.571-0.038c-0.155-0.015-0.311-0.027-0.467-0.045
			c-0.19-0.019-0.38-0.041-0.569-0.065c-0.155-0.02-0.309-0.04-0.465-0.064c-0.191-0.025-0.382-0.061-0.573-0.096
			c-0.15-0.025-0.304-0.052-0.455-0.083c-0.194-0.038-0.39-0.083-0.583-0.127c-0.146-0.033-0.292-0.064-0.438-0.102
			c-0.202-0.051-0.404-0.106-0.605-0.164c-0.137-0.038-0.271-0.073-0.406-0.113c-0.225-0.066-0.444-0.143-0.666-0.218
			c-0.112-0.038-0.226-0.07-0.338-0.11c-0.332-0.12-0.664-0.245-0.992-0.382c-4.033-1.614-7.479-4.618-10.014-8.293
			c-1.924-2.143-3.439-4.496-4.461-6.952l-0.016-0.039l-0.018-0.04c-6.056-15.305-6.052-31.425,0.014-46.617V80.07
			c0.915-2.347,2.36-5.006,4.634-7.541c2.428-3.438,5.726-6.13,9.86-7.75c0.328-0.137,0.658-0.263,0.991-0.383
			c0.111-0.039,0.224-0.073,0.335-0.11c0.222-0.075,0.444-0.151,0.669-0.219c0.134-0.041,0.267-0.075,0.401-0.112
			c0.203-0.059,0.407-0.116,0.61-0.166c0.145-0.035,0.29-0.066,0.435-0.1c0.194-0.044,0.39-0.089,0.589-0.128
			c0.148-0.031,0.3-0.057,0.449-0.083c0.192-0.035,0.385-0.068,0.577-0.097c0.153-0.023,0.308-0.044,0.461-0.063
			c0.191-0.026,0.382-0.049,0.573-0.068c0.154-0.014,0.31-0.029,0.465-0.043c0.191-0.014,0.382-0.027,0.572-0.038
			c0.155-0.01,0.312-0.016,0.468-0.022c0.19-0.007,0.383-0.011,0.572-0.013c0.062-0.001,0.123-0.003,0.185-0.005
			c2.493-0.468,5.095-0.71,7.775-0.71h0.002c3.189,0,6.411,0.336,9.57,0.998l0.1,0.021l0.093,0.023l1.565,0.395
			c8.333,2.104,36.735,9.245,52.44,12.84l0.049,0.012c2.424,0.517,4.697,1.32,6.91,2.457c3.478,1.553,6.765,3.903,10.205,7.259
			c0.063,0.063,0.127,0.129,0.188,0.199l2.782,3.095c0.004,0.003,0.006,0.006,0.008,0.009c3.663,4.009,5.599,8.716,5.599,13.617
			c0,4.903-1.939,9.615-5.604,13.621c-0.353,0.517-0.795,0.964-1.428,1.592c-0.479,0.476-0.935,0.925-1.295,1.398
			c-0.129,0.171-0.272,0.33-0.427,0.477c-2.987,2.872-6.281,5.119-9.838,6.725c-2.497,1.267-5.13,2.212-7.884,2.826
			c-0.024,0.006-0.05,0.013-0.081,0.021L62.504,142.94z M152.584,250.329h-9.839h-2.023h-9.841
			c-1.074-2.413-2.059-5.171-2.596-8.124h12.437h2.023h12.437C154.645,245.156,153.658,247.916,152.584,250.329z M161.378,235.893
			h-18.633h-2.023h-18.633c-2.64-4.728-5.06-10.128-6.38-15.903h25.013h2.023h25.013
			C166.438,225.765,164.018,231.165,161.378,235.893z M172.515,212.086h-29.77h-2.023h-29.77
			c-4.626-6.373-8.864-13.656-11.176-21.446h40.943h2.024h40.944C181.377,198.43,177.137,205.713,172.515,212.086z M142.745,181.028
			h-2.023H96.501c0-7.791,1.35-14.669,3.275-21.447h40.943h2.024h40.944c1.926,6.778,3.275,13.656,3.275,21.447H142.745z
			 M262.919,126.689l-0.016,0.04l-0.017,0.039c-1.021,2.456-2.536,4.81-4.46,6.952c-2.534,3.675-5.98,6.679-10.016,8.293
			c-0.328,0.138-0.658,0.262-0.99,0.382c-0.112,0.04-0.228,0.072-0.34,0.11c-0.22,0.076-0.441,0.151-0.664,0.218
			c-0.135,0.04-0.27,0.075-0.407,0.113c-0.202,0.057-0.403,0.113-0.605,0.164c-0.145,0.037-0.292,0.067-0.438,0.102
			c-0.192,0.044-0.388,0.089-0.583,0.127c-0.15,0.031-0.303,0.058-0.455,0.083c-0.189,0.035-0.38,0.067-0.571,0.096
			c-0.154,0.024-0.311,0.045-0.465,0.064c-0.189,0.024-0.38,0.047-0.569,0.065c-0.156,0.018-0.313,0.03-0.469,0.044
			c-0.189,0.017-0.381,0.029-0.569,0.039c-0.156,0.011-0.313,0.018-0.469,0.021c-0.189,0.009-0.383,0.013-0.573,0.015
			c-0.061,0-0.122,0.002-0.182,0.004c-2.495,0.466-5.097,0.709-7.777,0.709c-3.197,0-6.42-0.335-9.581-0.998l-0.087-0.019
			l-0.085-0.021l-1.569-0.395l-51.632-12.941c-0.031-0.008-0.057-0.013-0.079-0.02c-2.754-0.614-5.387-1.56-7.884-2.826
			c-3.557-1.606-6.851-3.854-9.838-6.724c-0.152-0.147-0.297-0.308-0.427-0.479c-0.36-0.473-0.814-0.921-1.297-1.397
			c-0.633-0.627-1.073-1.075-1.426-1.593c-3.665-4.007-5.604-8.719-5.604-13.62c0-4.9,1.936-9.607,5.599-13.617
			c0.002-0.003,0.004-0.006,0.008-0.009l2.782-3.097c0.061-0.067,0.124-0.134,0.188-0.196c3.44-3.355,6.729-5.706,10.205-7.261
			c2.213-1.135,4.486-1.939,6.912-2.457l0.047-0.01c15.705-3.597,44.109-10.739,52.44-12.842l1.567-0.395l0.091-0.023l0.1-0.021
			c3.157-0.66,6.381-0.995,9.572-0.995c2.681,0,5.282,0.241,7.775,0.709c0.062,0,0.123,0.002,0.184,0.004
			c0.19,0.003,0.384,0.007,0.573,0.014c0.156,0.005,0.313,0.014,0.469,0.021c0.188,0.012,0.382,0.023,0.571,0.04
			c0.154,0.013,0.309,0.026,0.465,0.043c0.191,0.019,0.382,0.042,0.573,0.067c0.152,0.021,0.307,0.04,0.461,0.063
			c0.193,0.029,0.386,0.063,0.577,0.097c0.15,0.027,0.301,0.053,0.449,0.084c0.197,0.037,0.393,0.083,0.591,0.127
			c0.145,0.035,0.288,0.064,0.433,0.101c0.204,0.05,0.409,0.108,0.611,0.165c0.136,0.038,0.269,0.073,0.401,0.114
			c0.225,0.066,0.446,0.142,0.67,0.218c0.11,0.036,0.224,0.071,0.334,0.11c0.332,0.119,0.664,0.246,0.992,0.383
			c4.135,1.621,7.432,4.312,9.859,7.75c2.273,2.534,3.719,5.193,4.633,7.54l0.002,0.004
			C268.971,95.264,268.975,111.384,262.919,126.689z"/>
		<path fill="#231F20" d="M258.548,81.956c-1.748-4.497-5.967-10.438-16.135-13.205c-0.035-0.009-0.071-0.02-0.106-0.03
			c-3.11-0.899-6.484-1.354-10.021-1.354c-2.885,0-5.795,0.303-8.651,0.9c-0.243,0.061-0.785,0.198-1.574,0.398
			c-7.372,1.86-36.63,9.221-52.542,12.865c-0.038,0.007-0.075,0.017-0.113,0.023c-4.865,1.034-9.088,3.496-13.681,7.973
			l-2.781,3.097c-0.008,0.01-0.017,0.02-0.024,0.028c-2.93,3.204-4.478,6.9-4.478,10.686s1.548,7.48,4.478,10.685
			c0.133,0.146,0.255,0.299,0.362,0.455c0.156,0.227,0.562,0.628,0.921,0.982c0.538,0.535,1.141,1.129,1.679,1.834
			c4.17,4.009,8.999,6.645,14.356,7.842c0.062,0.015,0.125,0.027,0.187,0.045l51.635,12.942l1.568,0.395
			c2.86,0.598,5.772,0.902,8.659,0.902c3.537,0,6.909-0.457,10.021-1.354c0.023-0.008,0.049-0.014,0.069-0.02
			c7.34-2.039,13.69-7.242,16.189-13.26c5.563-14.059,5.562-28.857-0.006-42.806C258.556,81.974,258.552,81.963,258.548,81.956z"/>
		<path fill="#231F20" d="M142.745,67.493h29.756V56.267c0-3.454-0.639-6.013-1.732-8.149l-0.508,0.827
			c-0.034,0.06-0.071,0.117-0.111,0.176c-1.65,2.427-4.572,3.877-7.813,3.877c-2.517,0-5.06-0.986-6.807-2.637
			c-0.054-0.05-0.104-0.102-0.154-0.153c-2.981-3.131-3.603-8.378-1.631-12.289c-2.437-0.282-4.693-0.282-6.665-0.282
			c-1.526,0-3.341,0.124-5.348,0.355c-2.005-0.231-3.819-0.355-5.346-0.355c-1.971,0-4.229,0-6.665,0.282
			c1.972,3.911,1.349,9.158-1.631,12.289c-0.051,0.052-0.101,0.104-0.154,0.153c-1.747,1.65-4.29,2.637-6.807,2.637
			c-3.24,0-6.162-1.449-7.813-3.877c-0.04-0.059-0.077-0.116-0.113-0.176l-0.506-0.827c-1.094,2.137-1.732,4.695-1.732,8.149v11.226
			h29.756H142.745z"/>
	</g>
</g>
</svg>
