<?xml version="1.0" encoding="utf-8"?>
<!-- Generator: Adobe Illustrator 15.1.0, SVG Export Plug-In . SVG Version: 6.00 Build 0)  -->
<!DOCTYPE svg PUBLIC "-//W3C//DTD SVG 1.1//EN" "http://www.w3.org/Graphics/SVG/1.1/DTD/svg11.dtd">
<svg version="1.1" id="_x32_" xmlns="http://www.w3.org/2000/svg" xmlns:xlink="http://www.w3.org/1999/xlink" x="0px" y="0px"
	 width="283.465px" height="283.465px" viewBox="258.268 258.267 283.465 283.465"
	 enable-background="new 258.268 258.267 283.465 283.465" xml:space="preserve">
<g>
	<path d="M371.549,341.721c0,7.291,2.742,13.937,7.25,18.968h42.403c4.508-5.031,7.252-11.678,7.252-18.968
		c0-9.856-5.017-18.541-12.632-23.65l4.343-8.869c1.479-0.236,2.827-1.158,3.534-2.603c1.15-2.352,0.177-5.193-2.176-6.343
		c-2.353-1.154-5.194-0.181-6.342,2.174c-0.834,1.7-0.552,3.646,0.553,5.035l-4.065,8.309c-3.561-1.603-7.509-2.502-11.667-2.502
		c-4.162,0-8.108,0.899-11.67,2.502l-4.063-8.309c1.104-1.389,1.386-3.335,0.555-5.035c-1.152-2.355-3.992-3.328-6.344-2.174
		c-2.354,1.15-3.329,3.992-2.176,6.343c0.708,1.445,2.055,2.367,3.535,2.603l4.343,8.869
		C376.561,323.18,371.549,331.865,371.549,341.721z"/>
	<path d="M361.353,376.046c10.839-5.418,7.787-13.248,2.816-18.74c-12.872-14.229-57.583-39.972-80.947-44.034
		c-6.674-1.165-21.226-0.454-17.162,20.325c1.4,7.159,11.292,38.836,32.97,49.681C320.706,394.111,352.123,380.66,361.353,376.046z"
		/>
	<path d="M372.374,376.827c-2.312,2.219-5.262,3.915-7.992,5.278c-5.66,2.831-25.699,12.062-45.961,12.062
		c-1.795,0-3.541-0.088-5.252-0.233c-11.278,11.969-15.239,28.166-9.173,38.568c6.325,10.841,24.894,13.94,38.39,5.419
		c17.162-10.838,27.772-42.457,29.581-51.483C372.481,383.86,373.474,378.567,372.374,376.827z"/>
	<path d="M516.78,313.272c-23.365,4.062-68.077,29.806-80.948,44.033c-4.969,5.492-8.022,13.322,2.814,18.74
		c9.23,4.615,40.648,18.065,62.326,7.232c21.679-10.845,31.568-42.522,32.97-49.681C538.005,312.818,523.453,312.107,516.78,313.272
		z"/>
	<path d="M481.577,394.166c-20.261,0-40.3-9.229-45.96-12.061c-2.728-1.364-5.683-3.059-7.991-5.279
		c-1.101,1.74-0.109,7.033,0.407,9.61c1.806,9.027,12.42,40.646,29.58,51.483c13.495,8.521,32.064,5.422,38.389-5.419
		c6.066-10.402,2.106-26.599-9.172-38.568C485.119,394.077,483.374,394.166,481.577,394.166z"/>
	<path d="M419.985,366.108h-39.97c-1.497,0-2.711,1.216-2.711,2.713v17.273c0,1.497,1.214,2.713,2.711,2.713h39.97
		c1.495,0,2.71-1.216,2.71-2.713v-17.273C422.695,367.324,421.48,366.108,419.985,366.108z"/>
	<path d="M379.672,395.242c-1.76,1.673-7.221,9.993-10.905,21h62.466c-3.684-11.007-9.145-19.326-10.904-21H379.672L379.672,395.242
		z"/>
	<path d="M365.553,430.467c-0.457,4.124-0.487,8.371,0.113,12.596c0.429,3.021,1.057,5.813,1.83,8.408h65.012
		c0.774-2.596,1.399-5.386,1.827-8.408c0.599-4.225,0.569-8.471,0.112-12.596H365.553z"/>
	<path d="M396.7,482.237l2.468,16.657c0.114,0.767,0.775,1.335,1.552,1.335s1.439-0.567,1.551-1.335l2.549-17.21
		c5.349-2.054,14.108-6.612,20.819-15.99h-51.271C381.762,476.018,391.637,480.511,396.7,482.237z"/>
</g>
</svg>
