<?xml version="1.0" encoding="utf-8"?>
<!-- Generator: Adobe Illustrator 15.1.0, SVG Export Plug-In . SVG Version: 6.00 Build 0)  -->
<!DOCTYPE svg PUBLIC "-//W3C//DTD SVG 1.1//EN" "http://www.w3.org/Graphics/SVG/1.1/DTD/svg11.dtd">
<svg version="1.1" id="Layer_3" xmlns="http://www.w3.org/2000/svg" xmlns:xlink="http://www.w3.org/1999/xlink" x="0px" y="0px"
	 width="283.465px" height="283.465px" viewBox="0 0 283.465 283.465" enable-background="new 0 0 283.465 283.465"
	 xml:space="preserve">
<g>
	<path fill="#231F20" d="M132.184,120.574v-6.963c-0.09-0.039-0.18-0.077-0.27-0.114c-0.33-0.142-0.656-0.277-0.98-0.414
		l-0.043-0.018c-15.391-6.404-32.68-10.014-49.994-10.432c-0.025,0-0.051-0.002-0.078-0.002c-1.131-0.026-2.271-0.041-3.395-0.041
		c-1.791,0-3.588,0.035-5.342,0.101c-12.336,0.466-24.412,2.627-34.006,6.085l-0.232,0.083c-0.153,0.056-0.309,0.11-0.459,0.167
		l-0.082,0.032l-0.123,0.047c-11.023,4.159-14.45,8.524-14.828,9.58c0.136,1.313,0.638,3.55,2.203,6.971
		c2.543,5.562,6.949,12.167,12.402,18.603c1.92,2.264,3.943,4.479,6.012,6.576c5.115,5.188,10.383,9.633,15.66,13.215
		c7.32,4.969,14.121,7.854,19.148,8.123c0.105,0.006,0.23,0.01,0.396,0.01h0.023c3.148-0.01,10.473-2.004,24.117-15.273
		c11.771-11.445,22.004-25.136,27.057-32.278C130.342,123.258,131.286,121.899,132.184,120.574z M56.436,136.51
		c-6.324,0-11.452-5.127-11.452-11.452s5.128-11.453,11.452-11.453c6.326,0,11.453,5.128,11.453,11.453S62.762,136.51,56.436,136.51
		z"/>
	<path fill="#231F20" d="M93.508,205.276l12.619-26.863c-6.918,5.563-13.316,9.211-19.314,11.027
		C87.803,195.661,90.047,200.964,93.508,205.276z"/>
	<path fill="#231F20" d="M114.094,215.831c4.611,0,9.344-2.168,12.984-5.947c3.674-3.813,5.779-8.789,5.779-13.656v-32.521
		l-24.148,51.412C110.563,215.587,112.385,215.831,114.094,215.831z"/>
	<path fill="#231F20" d="M246.292,109.105l-0.123-0.047l-0.084-0.032c-0.148-0.057-0.305-0.111-0.457-0.167l-0.232-0.083
		c-9.594-3.458-21.672-5.619-34.006-6.085c-1.754-0.065-3.551-0.101-5.344-0.101c-1.121,0-2.264,0.014-3.395,0.041
		c-0.025,0-0.053,0.002-0.076,0.002c-17.314,0.418-34.605,4.027-49.994,10.432l-0.043,0.018c-0.326,0.137-0.65,0.271-0.98,0.414
		c-0.09,0.039-0.18,0.076-0.27,0.114v6.963c0.898,1.325,1.842,2.685,2.811,4.058c5.055,7.141,15.287,20.831,27.059,32.278
		c13.645,13.27,20.967,15.264,24.115,15.271h0.023c0.166,0,0.293-0.002,0.398-0.008c5.027-0.271,11.826-3.156,19.146-8.123
		c5.275-3.582,10.545-8.027,15.66-13.217c2.068-2.098,4.092-4.313,6.012-6.576c5.453-6.434,9.859-13.04,12.402-18.602
		c1.564-3.421,2.066-5.656,2.203-6.971C260.741,117.629,257.313,113.264,246.292,109.105z M227.034,136.51
		c-6.326,0-11.453-5.127-11.453-11.452s5.127-11.453,11.453-11.453c6.324,0,11.453,5.128,11.453,11.453
		S233.358,136.51,227.034,136.51z"/>
	<path fill="#231F20" d="M196.657,189.44c-5.998-1.816-12.396-5.467-19.314-11.027l12.619,26.863
		C193.425,200.964,195.667,195.661,196.657,189.44z"/>
	<path fill="#231F20" d="M169.376,215.831c1.709,0,3.531-0.244,5.385-0.713l-24.146-51.412v32.521c0,4.867,2.105,9.846,5.777,13.656
		C160.034,213.663,164.765,215.831,169.376,215.831z"/>
	<path fill="#231F20" d="M276.376,118.199c-0.002-0.065-0.002-0.133-0.006-0.198c-0.004-0.105-0.012-0.213-0.018-0.32
		c-0.012-0.172-0.025-0.344-0.043-0.518c-0.006-0.062-0.01-0.121-0.018-0.184c-0.012-0.111-0.027-0.221-0.043-0.332
		c-0.008-0.066-0.018-0.135-0.027-0.201c-0.016-0.104-0.033-0.209-0.051-0.313c-0.014-0.077-0.025-0.154-0.041-0.232
		c-0.018-0.094-0.037-0.188-0.057-0.281c-0.02-0.093-0.039-0.187-0.061-0.281c-0.02-0.078-0.037-0.153-0.057-0.229
		c-0.027-0.117-0.059-0.235-0.09-0.353c-0.016-0.053-0.027-0.104-0.043-0.155c-0.043-0.147-0.086-0.298-0.135-0.448
		c-0.004-0.018-0.01-0.036-0.016-0.053c-0.998-3.146-3.213-6.704-7.605-10.311c-0.025-0.021-0.053-0.043-0.078-0.064
		c-0.121-0.1-0.244-0.198-0.369-0.297c-0.188-0.151-0.379-0.301-0.572-0.449c-0.02-0.014-0.035-0.028-0.053-0.042
		c-6.619-5.071-16.508-9.304-28.936-12.142c-0.049-0.01-0.098-0.016-0.145-0.025c-4.844-1.1-9.969-1.952-15.27-2.532
		c-0.039-0.005-0.078-0.015-0.119-0.019c-0.186-0.021-0.375-0.037-0.561-0.057c-0.066-0.008-0.135-0.014-0.201-0.021
		c-0.463-0.048-0.924-0.097-1.389-0.14c-0.027-0.002-0.053-0.002-0.078-0.004c-2.742-0.256-5.525-0.439-8.336-0.545
		c-16.105-0.609-39.771,1.002-64.723,11.307v-5.543l26.135-30.938c1.996-2.364,1.699-5.899-0.664-7.896
		c-1.035-0.875-2.293-1.309-3.549-1.323c-1.615-0.019-3.227,0.657-4.35,1.987l-23.077,27.324l-23.08-27.324
		c-1.123-1.33-2.734-2.006-4.35-1.987c-1.256,0.015-2.514,0.448-3.549,1.323c-2.363,1.996-2.66,5.531-0.664,7.896l26.133,30.938
		v5.543C111.274,88.456,87.61,86.844,71.504,87.454c-2.813,0.105-5.594,0.29-8.336,0.545C63.143,88,63.116,88,63.09,88.002
		c-0.465,0.043-0.926,0.092-1.389,0.14c-0.066,0.007-0.135,0.013-0.201,0.021c-0.188,0.02-0.375,0.036-0.561,0.057
		c-0.041,0.004-0.08,0.014-0.119,0.019c-5.303,0.58-10.426,1.433-15.27,2.532c-0.049,0.01-0.098,0.016-0.146,0.025
		c-12.427,2.838-22.315,7.07-28.935,12.142c-0.018,0.014-0.035,0.028-0.053,0.042c-0.195,0.148-0.386,0.298-0.574,0.449
		c-0.125,0.099-0.248,0.197-0.368,0.297c-0.026,0.021-0.052,0.043-0.078,0.064c-4.392,3.606-6.606,7.164-7.604,10.311
		c-0.004,0.018-0.011,0.035-0.017,0.053c-0.047,0.15-0.091,0.299-0.133,0.448c-0.015,0.052-0.029,0.103-0.043,0.155
		c-0.032,0.117-0.062,0.235-0.091,0.353c-0.02,0.076-0.037,0.153-0.055,0.229c-0.021,0.095-0.043,0.188-0.062,0.281
		c-0.021,0.094-0.039,0.188-0.058,0.281c-0.014,0.078-0.026,0.154-0.041,0.232c-0.018,0.104-0.035,0.209-0.051,0.313
		c-0.011,0.066-0.019,0.135-0.027,0.201c-0.016,0.109-0.03,0.221-0.043,0.332c-0.006,0.063-0.01,0.122-0.018,0.184
		c-0.018,0.172-0.031,0.346-0.042,0.518c-0.007,0.107-0.014,0.215-0.019,0.32c-0.002,0.065-0.004,0.131-0.004,0.198
		c-0.004,0.116-0.006,0.231-0.006,0.347c0,0.057,0,0.113,0.002,0.17c0,0.137,0.004,0.271,0.008,0.401
		c0.002,0.039,0.003,0.077,0.005,0.115c0.008,0.181,0.019,0.358,0.032,0.532c0.791,9.486,7.441,20.912,15.322,30.864
		c1.656,2.09,3.367,4.113,5.088,6.043c0.092,0.104,0.185,0.207,0.276,0.311c0.983,1.096,1.97,2.154,2.95,3.18
		c0.089,0.094,0.179,0.189,0.27,0.283c0.071,0.072,0.143,0.145,0.213,0.219c0.285,0.295,0.569,0.588,0.854,0.875
		c0.021,0.021,0.047,0.049,0.07,0.07c6.703,6.787,22.961,21.672,39.652,25.113c0.004,0.043,0.008,0.082,0.012,0.125
		c0.041,0.561,0.092,1.111,0.148,1.656c0.014,0.146,0.027,0.297,0.045,0.443c0.057,0.527,0.123,1.047,0.191,1.563
		c0.025,0.186,0.051,0.369,0.078,0.555c0.07,0.484,0.145,0.967,0.227,1.438c0.033,0.207,0.072,0.408,0.109,0.611
		c0.063,0.336,0.125,0.666,0.191,0.994c0.068,0.338,0.139,0.674,0.213,1.004c0.057,0.258,0.115,0.512,0.174,0.766
		c0.115,0.484,0.236,0.961,0.363,1.434c0.031,0.119,0.063,0.24,0.096,0.359c0.088,0.322,0.18,0.641,0.271,0.957l0,0
		c4.275,14.469,13.592,22.197,19.787,25.891c0.006,0.004,0.012,0.006,0.018,0.01c0.004,0.004,0.008,0.008,0.014,0.01
		c0.881,0.523,1.783,1.014,2.693,1.473c0.246,0.123,0.482,0.238,0.709,0.348c0.002,0.002,0.004,0.002,0.006,0.004
		c0.281,0.135,0.563,0.266,0.846,0.393c0.1,0.045,0.195,0.09,0.293,0.133c0.256,0.113,0.51,0.225,0.766,0.332
		c0.137,0.059,0.273,0.115,0.412,0.172c0.23,0.094,0.461,0.188,0.691,0.277c0.191,0.074,0.383,0.145,0.574,0.217
		c0.186,0.07,0.369,0.141,0.555,0.207c0.383,0.137,0.768,0.268,1.15,0.395c0.068,0.021,0.135,0.041,0.203,0.063
		c0.342,0.111,0.684,0.215,1.027,0.314c0.092,0.027,0.184,0.053,0.273,0.078c0.328,0.094,0.656,0.184,0.984,0.268
		c0.082,0.021,0.166,0.043,0.25,0.063c0.355,0.09,0.713,0.174,1.068,0.254c0.051,0.012,0.102,0.021,0.152,0.033
		c0.846,0.186,1.693,0.34,2.539,0.463c0.006,0.002,0.012,0.002,0.02,0.004c0.393,0.059,0.783,0.107,1.174,0.152
		c0.09,0.01,0.182,0.02,0.273,0.029c0.309,0.031,0.615,0.061,0.922,0.086c0.117,0.01,0.232,0.018,0.348,0.025
		c0.295,0.021,0.588,0.037,0.881,0.051c0.111,0.006,0.221,0.012,0.332,0.016c0.395,0.014,0.789,0.021,1.18,0.021l0,0l0,0
		c11.203,0,21.535-6.357,27.641-15.621c6.104,9.264,16.438,15.621,27.641,15.621c0,0,0,0,0.002,0l0,0
		c0.391,0,0.783-0.008,1.178-0.021c0.111-0.004,0.221-0.01,0.332-0.016c0.293-0.014,0.586-0.029,0.881-0.051
		c0.115-0.008,0.23-0.018,0.348-0.025c0.307-0.025,0.613-0.055,0.924-0.086c0.092-0.012,0.182-0.02,0.273-0.029
		c0.391-0.045,0.781-0.096,1.172-0.152c0.008-0.002,0.016-0.002,0.021-0.004c0.844-0.123,1.691-0.277,2.539-0.463
		c0.049-0.012,0.1-0.021,0.15-0.033c0.355-0.08,0.713-0.164,1.068-0.254c0.084-0.02,0.168-0.041,0.252-0.063
		c0.328-0.084,0.656-0.174,0.984-0.268c0.09-0.025,0.182-0.051,0.271-0.078c0.344-0.1,0.688-0.203,1.029-0.314
		c0.066-0.021,0.135-0.041,0.201-0.063c0.385-0.127,0.768-0.258,1.15-0.395c0.186-0.066,0.369-0.137,0.555-0.207
		c0.191-0.07,0.385-0.143,0.576-0.217c0.23-0.09,0.461-0.186,0.689-0.277c0.139-0.057,0.275-0.113,0.412-0.172
		c0.256-0.107,0.512-0.219,0.766-0.332c0.098-0.043,0.195-0.088,0.293-0.133c0.283-0.127,0.564-0.258,0.848-0.393
		c0.002-0.002,0.004-0.002,0.006-0.004c0.227-0.107,0.463-0.225,0.707-0.348c0.912-0.459,1.813-0.947,2.695-1.473
		c0.004-0.002,0.01-0.006,0.014-0.01c0.006-0.004,0.012-0.006,0.018-0.01c6.195-3.693,15.512-11.422,19.787-25.891l0,0
		c0.094-0.316,0.184-0.635,0.271-0.957c0.033-0.119,0.063-0.24,0.096-0.359c0.125-0.473,0.248-0.947,0.361-1.434
		c0.061-0.254,0.119-0.508,0.176-0.766c0.072-0.33,0.145-0.666,0.213-1.004c0.066-0.328,0.129-0.658,0.191-0.994
		c0.037-0.203,0.074-0.404,0.109-0.611c0.08-0.473,0.154-0.953,0.227-1.438c0.025-0.186,0.053-0.369,0.078-0.555
		c0.068-0.516,0.135-1.035,0.191-1.563c0.018-0.146,0.029-0.297,0.045-0.443c0.057-0.545,0.105-1.098,0.148-1.656
		c0.002-0.043,0.008-0.082,0.01-0.125c16.691-3.441,32.951-18.326,39.654-25.113c0.021-0.021,0.047-0.049,0.07-0.07
		c0.281-0.287,0.566-0.58,0.852-0.875c0.072-0.074,0.143-0.146,0.215-0.219c0.088-0.094,0.178-0.189,0.27-0.283
		c0.98-1.023,1.967-2.084,2.949-3.18c0.094-0.104,0.184-0.207,0.275-0.311c1.723-1.93,3.432-3.953,5.088-6.043
		c7.881-9.952,14.533-21.375,15.322-30.864c0.016-0.174,0.025-0.352,0.033-0.532c0.002-0.039,0.004-0.077,0.004-0.115
		c0.006-0.132,0.01-0.266,0.01-0.401c0-0.057,0.002-0.113,0.002-0.17C276.382,118.43,276.378,118.315,276.376,118.199z
		 M77.559,176.21c-5.896-0.318-13.355-3.492-21.201-8.816c-5.365-3.643-10.915-8.293-16.268-13.723
		c-2.187-2.217-4.268-4.5-6.217-6.799c-5.732-6.764-10.314-13.676-12.996-19.536c-1.472-3.217-2.375-6.121-2.572-8.502
		c-0.266-3.188,5.227-8.901,17.451-13.515c0.072-0.026,0.141-0.054,0.211-0.08c0.24-0.09,0.49-0.178,0.736-0.269
		c9.813-3.536,22.273-5.831,35.225-6.32c0.396-0.016,0.797-0.027,1.203-0.04c0.131-0.004,0.264-0.007,0.395-0.01
		c0.283-0.009,0.566-0.015,0.852-0.021c0.152-0.004,0.307-0.007,0.459-0.009c0.285-0.005,0.572-0.009,0.861-0.013
		c0.143-0.001,0.285-0.004,0.43-0.006c0.41-0.002,0.82-0.006,1.238-0.006c0.023,0,0.047,0,0.07,0c0.506,0,1.023,0.004,1.543,0.01
		c0.129,0.001,0.262,0.003,0.393,0.004c0.529,0.007,1.063,0.016,1.604,0.027c0.006,0,0.012,0.002,0.018,0.002
		c17.936,0.434,35.566,4.131,51.455,10.742c0.35,0.146,0.699,0.293,1.051,0.442c0.23,0.099,0.461,0.198,0.691,0.298
		c0.678,0.294,1.355,0.594,2.035,0.902v10.833c-1.123,1.672-2.311,3.397-3.555,5.155c-15.521,21.938-39.76,49.219-54.465,49.258
		C77.991,176.224,77.772,176.22,77.559,176.21z M94.459,211.175c-4.951-4.477-10.199-12.02-11.357-24.266
		c9.596-1.951,20.625-9.445,33.418-22.699L94.459,211.175z M136.227,196.228c0,12.021-10.549,22.973-22.133,22.973
		c-3.201,0-6.697-0.73-10.055-2.063l32.188-68.523V196.228L136.227,196.228z M169.376,219.2c-11.582,0-22.133-10.949-22.133-22.973
		v-47.615l32.188,68.523C176.073,218.468,172.577,219.2,169.376,219.2z M189.011,211.175l-22.059-46.965
		c12.791,13.254,23.82,20.748,33.418,22.699C199.21,199.157,193.962,206.698,189.011,211.175z M265.165,118.834
		c-0.199,2.381-1.102,5.285-2.572,8.502c-2.682,5.859-7.264,12.771-12.996,19.536c-1.949,2.299-4.031,4.582-6.217,6.799
		c-5.354,5.43-10.9,10.08-16.27,13.723c-7.844,5.324-15.303,8.498-21.199,8.816c-0.213,0.01-0.43,0.014-0.646,0.014
		c-14.705-0.039-38.943-27.32-54.465-49.258c-1.244-1.758-2.434-3.482-3.555-5.155v-10.833c0.68-0.309,1.355-0.607,2.035-0.902
		c0.229-0.1,0.461-0.199,0.689-0.298c0.354-0.149,0.701-0.296,1.053-0.442c15.887-6.61,33.518-10.309,51.453-10.742
		c0.006,0,0.012-0.002,0.018-0.002c0.541-0.012,1.074-0.021,1.604-0.027c0.133-0.001,0.264-0.003,0.395-0.004
		c0.52-0.006,1.035-0.01,1.543-0.01c0.023,0,0.047,0,0.07,0c0.416,0,0.828,0.002,1.238,0.006c0.145,0.002,0.287,0.004,0.43,0.006
		c0.289,0.003,0.576,0.007,0.859,0.013c0.154,0.002,0.307,0.005,0.459,0.009c0.287,0.006,0.57,0.012,0.854,0.021
		c0.131,0.003,0.264,0.006,0.395,0.01c0.404,0.013,0.809,0.024,1.203,0.04c12.951,0.489,25.412,2.784,35.225,6.321
		c0.246,0.089,0.496,0.177,0.736,0.268c0.072,0.026,0.141,0.054,0.211,0.08C259.937,109.933,265.431,115.647,265.165,118.834z"/>
</g>
</svg>
