<?xml version="1.0" encoding="utf-8"?>
<!-- Generator: Adobe Illustrator 15.1.0, SVG Export Plug-In . SVG Version: 6.00 Build 0)  -->
<!DOCTYPE svg PUBLIC "-//W3C//DTD SVG 1.0//EN" "http://www.w3.org/TR/2001/REC-SVG-20010904/DTD/svg10.dtd">
<svg version="1.0" id="Layer_1" xmlns="http://www.w3.org/2000/svg" xmlns:xlink="http://www.w3.org/1999/xlink" x="0px" y="0px"
	 width="283.46px" height="283.46px" viewBox="0 0 283.46 283.46" enable-background="new 0 0 283.46 283.46" xml:space="preserve">
<g id="Layer_3">
</g>
<g id="Layer_3_1_">
</g>
<g>
	<path d="M191.513,66.25c0.01-0.368,0.031-0.734,0.031-1.105c0-23.206-22.324-42.018-49.87-42.018
		c-27.542,0-49.871,18.812-49.871,42.018c0,0.371,0.021,0.737,0.034,1.105H191.513z"/>
	<path d="M233.343,163.359h-7.52c0.625-5.582,0.951-11.293,0.951-17.104c0-16.323-2.525-32.095-7.375-46.63l7.146-2.218l18.16-5.635
		l-3.963-12.202l-18.797,5.833l-7.205,2.236c-1.328-2.979-2.752-5.897-4.295-8.733h-1.094h-2.072h-1.182h-4.912H76.179h-3.166
		c-1.542,2.836-2.965,5.754-4.295,8.733l-7.205-2.236l-18.796-5.833l-3.963,12.202l18.16,5.635l7.146,2.218
		c-4.849,14.535-7.374,30.307-7.374,46.63c0,5.811,0.326,11.521,0.95,17.104h-7.519H34.02v12.828h18.008h7.616
		c4.106,20.359,12.29,38.484,23.3,52.67l-5.956,4.396L56.52,248.361c2.907,3.172,5.917,6.293,8.74,9.492l20.198-14.906l6.023-4.447
		c12.502,12.357,27.593,20.229,43.959,21.834v-7.869V120.771h12.83v131.485c-0.053,0.045-0.109,0.088-0.162,0.135
		c-0.029,0.023-0.057,0.051-0.086,0.074v7.869c16.365-1.605,31.457-9.477,43.959-21.834l6.023,4.447l20.197,14.906
		c2.822-3.199,5.834-6.32,8.74-9.492l-20.469-15.107l-5.957-4.396c11.01-14.186,19.195-32.311,23.301-52.67h7.615h18.01v-12.828
		H233.343z"/>
</g>
</svg>
