<?xml version="1.0" encoding="utf-8"?>
<!-- Generator: Adobe Illustrator 15.1.0, SVG Export Plug-In . SVG Version: 6.00 Build 0)  -->
<!DOCTYPE svg PUBLIC "-//W3C//DTD SVG 1.1//EN" "http://www.w3.org/Graphics/SVG/1.1/DTD/svg11.dtd">
<svg version="1.1" id="Layer_2" xmlns="http://www.w3.org/2000/svg" xmlns:xlink="http://www.w3.org/1999/xlink" x="0px" y="0px"
	 width="283.46px" height="283.46px" viewBox="0 0 283.46 283.46" enable-background="new 0 0 283.46 283.46" xml:space="preserve">
<g>
	<path fill="none" d="M96.598,124.357c1.106-0.625,1.849-1.728,1.849-2.993v-21.22c0-1.221-0.686-2.298-1.728-2.935
		c-0.001,0-0.001,0-0.002-0.001c-0.187-0.114-0.389-0.208-0.597-0.292c-0.06-0.024-0.122-0.044-0.184-0.066
		c-0.161-0.056-0.326-0.102-0.496-0.139c-0.065-0.014-0.131-0.03-0.198-0.042c-0.233-0.039-0.471-0.065-0.716-0.065H74.239
		c-0.246,0-0.484,0.026-0.717,0.065c-0.066,0.011-0.13,0.026-0.194,0.041c-0.171,0.037-0.339,0.083-0.5,0.14
		c-0.061,0.021-0.122,0.041-0.181,0.064c-1.371,0.552-2.329,1.787-2.329,3.229v21.22c0,1.265,0.742,2.368,1.849,2.993
		c0.627,0.384,1.383,0.608,2.198,0.608h20.037C95.215,124.965,95.971,124.741,96.598,124.357z"/>
	<path fill="none" d="M96.6,168.155c1.106-0.625,1.849-1.727,1.849-2.992v-21.22c0-1.217-0.681-2.288-1.717-2.925
		c-0.002-0.002-0.005-0.004-0.008-0.005c-0.019-0.011-0.039-0.019-0.058-0.03c-0.17-0.1-0.35-0.187-0.536-0.262
		c-0.067-0.028-0.138-0.05-0.207-0.074c-0.153-0.053-0.312-0.097-0.473-0.132c-0.07-0.016-0.14-0.032-0.211-0.044
		c-0.23-0.038-0.466-0.064-0.708-0.064c-0.001,0-0.002,0-0.004,0H74.238c-0.244,0-0.48,0.026-0.712,0.065
		c-0.07,0.012-0.139,0.028-0.208,0.043c-0.164,0.036-0.323,0.08-0.478,0.134c-0.068,0.023-0.137,0.045-0.204,0.072
		c-0.189,0.077-0.372,0.165-0.544,0.267c-0.017,0.01-0.035,0.017-0.052,0.027c-0.002,0.001-0.003,0.002-0.005,0.003
		c-1.038,0.637-1.72,1.71-1.72,2.927v21.22c0,1.266,0.742,2.367,1.85,2.992c0.627,0.384,1.384,0.608,2.198,0.608h20.04
		C95.217,168.763,95.973,168.539,96.6,168.155z"/>
	<path fill="none" d="M210.564,96.916c-0.059-0.023-0.12-0.043-0.181-0.064c-0.162-0.057-0.329-0.103-0.5-0.14
		c-0.065-0.014-0.129-0.03-0.194-0.041c-0.233-0.039-0.472-0.065-0.718-0.065h-20.287c-0.245,0-0.483,0.026-0.716,0.065
		c-0.067,0.011-0.132,0.027-0.197,0.042c-0.171,0.037-0.337,0.083-0.498,0.14c-0.061,0.021-0.123,0.041-0.182,0.065
		c-1.37,0.552-2.328,1.787-2.328,3.228v21.22c0,1.266,0.742,2.368,1.849,2.993c0.627,0.384,1.383,0.608,2.197,0.608h20.037
		c0.814,0,1.57-0.225,2.197-0.608c1.107-0.625,1.85-1.728,1.85-2.993v-21.22C212.893,98.703,211.935,97.468,210.564,96.916z"/>
	<path fill="none" d="M98.447,208.746v-21.221c0-1.441-0.958-2.677-2.329-3.229c-0.058-0.022-0.118-0.042-0.178-0.063
		c-0.163-0.058-0.331-0.104-0.504-0.142c-0.064-0.014-0.127-0.029-0.192-0.04c-0.233-0.039-0.472-0.065-0.718-0.065H74.241
		c-0.247,0-0.486,0.026-0.721,0.065c-0.063,0.011-0.125,0.025-0.187,0.039c-0.175,0.037-0.345,0.085-0.51,0.143
		c-0.058,0.021-0.117,0.04-0.174,0.063c-1.372,0.551-2.332,1.786-2.332,3.229v21.221c0,1.266,0.742,2.367,1.849,2.992
		c0.627,0.384,1.384,0.608,2.199,0.608h20.035c0.814,0,1.57-0.225,2.197-0.608C97.705,211.113,98.447,210.011,98.447,208.746z"/>
	<path fill="none" d="M211.045,168.155c1.107-0.625,1.85-1.727,1.85-2.992v-21.22c0-1.217-0.683-2.29-1.72-2.927
		c-0.002-0.001-0.004-0.002-0.006-0.003c-0.017-0.01-0.035-0.017-0.052-0.027c-0.172-0.102-0.354-0.19-0.544-0.267
		c-0.066-0.027-0.136-0.049-0.203-0.072c-0.155-0.054-0.314-0.098-0.478-0.134c-0.069-0.015-0.138-0.032-0.209-0.043
		c-0.231-0.039-0.468-0.065-0.712-0.065h-20.289c-0.001,0-0.003,0-0.004,0c-0.242,0-0.478,0.026-0.708,0.064
		c-0.071,0.012-0.141,0.029-0.211,0.044c-0.162,0.036-0.32,0.08-0.475,0.133c-0.068,0.024-0.139,0.046-0.205,0.073
		c-0.188,0.076-0.367,0.163-0.537,0.263c-0.019,0.011-0.039,0.019-0.058,0.03c-0.003,0.001-0.005,0.003-0.008,0.005
		c-1.036,0.637-1.717,1.708-1.717,2.925v21.22c0,1.266,0.742,2.367,1.849,2.992c0.627,0.384,1.383,0.608,2.197,0.608h20.04
		C209.662,168.763,210.417,168.539,211.045,168.155z"/>
	<path fill="none" d="M188.679,52.914c-0.242,0-0.478,0.026-0.707,0.064c-0.072,0.012-0.143,0.029-0.213,0.044
		c-0.161,0.036-0.318,0.08-0.472,0.132c-0.07,0.024-0.141,0.047-0.208,0.074c-0.185,0.075-0.362,0.161-0.53,0.26
		c-0.021,0.012-0.043,0.021-0.063,0.033c-0.004,0.002-0.007,0.004-0.01,0.006c-1.035,0.637-1.715,1.708-1.715,2.924v21.22
		c0,1.266,0.742,2.368,1.849,2.993c0.627,0.384,1.383,0.608,2.197,0.608h20.04c0.814,0,1.57-0.225,2.198-0.608
		c1.107-0.625,1.85-1.728,1.85-2.992V56.453c0-1.216-0.682-2.289-1.719-2.926c-0.002-0.001-0.004-0.003-0.007-0.005
		c-0.019-0.011-0.039-0.019-0.058-0.03c-0.17-0.101-0.351-0.188-0.538-0.264c-0.066-0.027-0.135-0.049-0.203-0.073
		c-0.155-0.054-0.314-0.098-0.478-0.134c-0.069-0.015-0.138-0.032-0.209-0.043c-0.231-0.039-0.468-0.065-0.712-0.065h-20.289
		C188.682,52.914,188.68,52.914,188.679,52.914z"/>
	<path fill="none" d="M70.315,56.453v21.221c0,1.265,0.742,2.367,1.85,2.992c0.627,0.384,1.384,0.608,2.198,0.608h20.04
		c0.814,0,1.57-0.225,2.197-0.608c1.106-0.625,1.849-1.728,1.849-2.993v-21.22c0-1.216-0.68-2.287-1.715-2.924
		c-0.003-0.002-0.006-0.004-0.01-0.006c-0.02-0.012-0.043-0.021-0.063-0.033c-0.168-0.099-0.346-0.185-0.53-0.26
		c-0.068-0.027-0.139-0.05-0.208-0.074c-0.153-0.053-0.31-0.097-0.472-0.132c-0.07-0.015-0.141-0.032-0.212-0.044
		c-0.23-0.038-0.465-0.064-0.708-0.064c-0.001,0-0.002,0-0.004,0H74.238c-0.244,0-0.48,0.026-0.712,0.065
		c-0.071,0.012-0.14,0.028-0.208,0.043c-0.164,0.036-0.323,0.08-0.478,0.134c-0.068,0.023-0.137,0.046-0.204,0.073
		c-0.188,0.076-0.368,0.163-0.539,0.264c-0.018,0.011-0.039,0.019-0.057,0.03c-0.002,0.001-0.005,0.003-0.007,0.005
		C70.997,54.164,70.315,55.236,70.315,56.453z"/>
	<path fill="none" d="M212.892,208.746v-21.221c0-1.442-0.959-2.678-2.331-3.229c-0.058-0.022-0.116-0.042-0.175-0.063
		c-0.164-0.058-0.335-0.105-0.51-0.143c-0.062-0.014-0.123-0.028-0.187-0.039c-0.234-0.039-0.474-0.065-0.721-0.065h-20.285
		c-0.246,0-0.485,0.026-0.719,0.065c-0.064,0.011-0.127,0.026-0.19,0.04c-0.174,0.037-0.343,0.084-0.506,0.142
		c-0.059,0.021-0.119,0.039-0.176,0.063c-1.371,0.552-2.33,1.787-2.33,3.229v21.221c0,1.266,0.742,2.367,1.849,2.992
		c0.627,0.384,1.383,0.608,2.197,0.608h20.035c0.814,0,1.571-0.225,2.198-0.608C212.15,211.113,212.892,210.011,212.892,208.746z"/>
	<path fill="none" d="M155.667,208.746v-21.221c0-1.444-0.963-2.683-2.338-3.232c-0.051-0.02-0.104-0.037-0.156-0.056
		c-0.17-0.06-0.346-0.108-0.527-0.147c-0.059-0.013-0.116-0.026-0.176-0.037c-0.235-0.039-0.477-0.065-0.725-0.065h-20.281
		c-0.248,0-0.489,0.026-0.724,0.065c-0.06,0.011-0.118,0.024-0.176,0.037c-0.181,0.039-0.357,0.088-0.528,0.148
		c-0.052,0.018-0.105,0.035-0.156,0.055c-1.375,0.55-2.338,1.788-2.338,3.232v21.221c0,1.266,0.742,2.367,1.849,2.992
		c0.627,0.384,1.383,0.608,2.198,0.608h20.031c0.814,0,1.57-0.225,2.197-0.608C154.925,211.113,155.667,210.011,155.667,208.746z"/>
	<path fill="none" d="M127.54,56.453v21.22c0,1.265,0.743,2.368,1.85,2.993c0.627,0.384,1.383,0.608,2.197,0.608h20.037
		c0.814,0,1.57-0.225,2.197-0.608c1.106-0.625,1.85-1.728,1.85-2.993v-21.22c0-1.221-0.686-2.297-1.729-2.934
		c-0.003-0.002-0.006-0.003-0.009-0.005c-0.186-0.112-0.385-0.206-0.591-0.289c-0.06-0.024-0.123-0.044-0.185-0.066
		c-0.16-0.056-0.326-0.102-0.496-0.139c-0.065-0.014-0.131-0.03-0.197-0.042c-0.232-0.039-0.471-0.065-0.716-0.065h-20.287
		c-0.245,0-0.483,0.026-0.716,0.065c-0.067,0.011-0.132,0.027-0.197,0.042c-0.17,0.037-0.335,0.083-0.496,0.139
		c-0.062,0.022-0.125,0.042-0.185,0.066c-0.206,0.083-0.405,0.177-0.59,0.289c-0.003,0.002-0.006,0.003-0.009,0.005
		C128.226,54.155,127.54,55.232,127.54,56.453z"/>
	<path fill="none" d="M153.333,96.913c-0.054-0.021-0.108-0.039-0.163-0.058c-0.167-0.059-0.341-0.107-0.519-0.146
		c-0.061-0.013-0.121-0.028-0.184-0.039c-0.234-0.039-0.474-0.065-0.721-0.065h-20.285c-0.247,0-0.487,0.026-0.721,0.065
		c-0.062,0.011-0.122,0.025-0.183,0.039c-0.178,0.038-0.352,0.086-0.519,0.146c-0.054,0.019-0.109,0.037-0.162,0.058
		c-1.374,0.55-2.335,1.788-2.335,3.231v21.22c0,1.266,0.742,2.368,1.849,2.993c0.626,0.384,1.383,0.608,2.197,0.608h20.035
		c0.813,0,1.57-0.225,2.196-0.608c1.107-0.625,1.85-1.728,1.85-2.993v-21.22C155.668,98.7,154.707,97.463,153.333,96.913z"/>
	<path fill="none" d="M153.821,168.155c1.107-0.625,1.85-1.727,1.85-2.992v-21.22c0-1.221-0.687-2.298-1.729-2.934
		c-0.001,0-0.002-0.001-0.002-0.001c-0.188-0.114-0.389-0.208-0.597-0.292c-0.06-0.024-0.123-0.045-0.185-0.066
		c-0.16-0.056-0.326-0.102-0.496-0.139c-0.065-0.014-0.131-0.03-0.197-0.042c-0.232-0.039-0.471-0.065-0.716-0.065h-20.287
		c-0.245,0-0.483,0.026-0.716,0.065c-0.067,0.011-0.132,0.027-0.197,0.042c-0.17,0.037-0.335,0.083-0.496,0.139
		c-0.062,0.021-0.125,0.042-0.185,0.066c-0.208,0.083-0.409,0.178-0.596,0.292c-0.001,0-0.002,0.001-0.002,0.001
		c-1.043,0.636-1.729,1.713-1.729,2.934v21.22c0,1.266,0.742,2.367,1.85,2.992c0.627,0.384,1.383,0.608,2.197,0.608h20.037
		C152.438,168.763,153.194,168.539,153.821,168.155z"/>
	<path d="M240.263,47.544c-0.073-0.658-0.183-1.306-0.326-1.943c-0.144-0.637-0.32-1.263-0.53-1.876
		c-0.21-0.613-0.451-1.213-0.724-1.799s-0.575-1.157-0.906-1.712c-0.331-0.555-0.691-1.094-1.077-1.615
		c-0.387-0.521-0.8-1.024-1.238-1.509c-0.438-0.484-0.901-0.948-1.388-1.392s-0.996-0.866-1.526-1.266
		c-0.531-0.399-1.083-0.776-1.655-1.128s-1.163-0.681-1.772-0.982c-0.608-0.302-1.235-0.578-1.878-0.826s-1.301-0.469-1.974-0.66
		s-1.358-0.353-2.058-0.483c-0.699-0.131-1.41-0.23-2.132-0.297c-0.722-0.067-1.454-0.102-2.194-0.102h-1.947h-1.947h-1.947h-1.946
		h-0.462h-1.484h-1.947h-1.947h-1.947h-1.947h-1.947h-1.947h-1.946h-1.946h-1.947h-1.947h-1.947v-1.017V27.92v-1.017v-1.017v-1.017
		v-1.017v-1.017v-1.016v-1.016v-1.017v-1.017v-1.017v-1.017v-1.017v-1.017v-1.017c0-0.23-0.01-0.458-0.028-0.682
		s-0.047-0.445-0.083-0.662c-0.037-0.217-0.082-0.43-0.136-0.639c-0.054-0.209-0.115-0.413-0.185-0.613s-0.146-0.394-0.231-0.583
		s-0.177-0.372-0.276-0.549c-0.099-0.178-0.204-0.349-0.316-0.514c-0.111-0.165-0.23-0.322-0.354-0.473s-0.255-0.294-0.391-0.43
		s-0.276-0.264-0.423-0.384s-0.297-0.231-0.453-0.334c-0.155-0.103-0.316-0.196-0.48-0.281s-0.332-0.159-0.505-0.224
		c-0.172-0.065-0.348-0.12-0.526-0.165c-0.18-0.044-0.361-0.078-0.546-0.101c-0.185-0.023-0.372-0.035-0.563-0.035h-5.079h-5.078
		h-5.079h-5.079h-5.078h-5.079h-5.079h-5.078h-5.078h0h-5.079h-5.079h-5.078h0h-5.079h-5.079h-5.078h0h-5.079
		c-0.19,0-0.378,0.012-0.563,0.035c-0.185,0.022-0.366,0.056-0.546,0.101c-0.179,0.044-0.354,0.1-0.526,0.165S99,7.461,98.835,7.546
		c-0.164,0.084-0.325,0.178-0.48,0.281c-0.156,0.103-0.307,0.214-0.453,0.334s-0.287,0.248-0.423,0.384s-0.267,0.279-0.391,0.43
		s-0.243,0.309-0.354,0.473c-0.112,0.165-0.218,0.336-0.316,0.514c-0.1,0.177-0.191,0.36-0.276,0.549s-0.162,0.383-0.231,0.583
		s-0.131,0.404-0.185,0.613c-0.054,0.208-0.099,0.422-0.136,0.639c-0.036,0.217-0.064,0.438-0.083,0.662s-0.028,0.452-0.028,0.682
		v1.017v1.017v1.017v1.017v1.017v1.017v1.017v1.016v1.016v1.017v1.017v1.017v1.017v1.017v1.017v1.017h-1.947h-1.947h-1.947H87.69
		h-1.946h-1.947h-1.947h-1.947h-1.947h-1.947H74.06h-1.484h-0.462h-1.946H68.22h-1.947h-1.947c-0.74,0-1.473,0.034-2.194,0.102
		c-0.722,0.067-1.433,0.167-2.132,0.297c-0.699,0.13-1.385,0.292-2.058,0.483s-1.331,0.412-1.974,0.66s-1.27,0.524-1.878,0.826
		c-0.609,0.302-1.2,0.63-1.772,0.982s-1.124,0.729-1.655,1.128c-0.53,0.4-1.04,0.822-1.526,1.266s-0.949,0.908-1.388,1.392
		c-0.438,0.484-0.852,0.987-1.238,1.509c-0.386,0.521-0.746,1.06-1.077,1.615c-0.331,0.555-0.634,1.126-0.906,1.712
		s-0.514,1.186-0.724,1.799c-0.21,0.613-0.387,1.239-0.53,1.876c-0.144,0.637-0.253,1.286-0.326,1.943
		c-0.074,0.658-0.111,1.325-0.111,2v2.842v10.107v1.004v1.784v0.563v0.437v9.16v0V88.39v0v12.948v0.001v12.947v0.001v12.947v0.001
		v12.947v0.001v12.947v0.002v12.947v0.002v12.946v0.002v12.946v0.002v12.947v0.002v12.946v0.002v12.946v0.002v12.947v0.002v12.946
		v0.002c0,0.675,0.037,1.343,0.111,2c0.073,0.658,0.182,1.306,0.325,1.943s0.321,1.263,0.53,1.876
		c0.21,0.613,0.451,1.213,0.724,1.799s0.574,1.157,0.905,1.712c0.332,0.556,0.691,1.095,1.078,1.615s0.8,1.024,1.238,1.508
		c0.438,0.484,0.901,0.948,1.388,1.393c0.487,0.443,0.996,0.866,1.527,1.266c0.53,0.399,1.083,0.776,1.654,1.128
		c0.571,0.353,1.163,0.681,1.772,0.982c0.608,0.303,1.235,0.578,1.878,0.826c0.642,0.248,1.3,0.469,1.973,0.659
		c0.673,0.191,1.358,0.353,2.058,0.483s1.41,0.23,2.131,0.298c0.722,0.067,1.453,0.102,2.194,0.102h0.003h2.232h0.003h2.233h0.003
		h2.233h0.002h2.234h0.002h2.234h0.001h2.234h0.002h2.233h0.002h2.234h0.002h2.234h0.001h2.235h0.001h2.235h0h2.235h0.001h2.234
		h0.001h2.235h0.001h2.235h0h2.236v-2.806v-2.807v-2.807v-2.807v-2.807v-2.807v-2.807v-2.807v-2.807v-2.807v-2.807v-2.807v-2.807
		v-2.807v-2.807v-2.807c0-0.096,0.005-0.19,0.015-0.283c0.004-0.047,0.014-0.092,0.021-0.138s0.012-0.093,0.021-0.138
		c0.018-0.09,0.041-0.18,0.068-0.266c0.027-0.088,0.058-0.172,0.093-0.255s0.074-0.164,0.116-0.242
		c0.042-0.079,0.089-0.155,0.138-0.229s0.103-0.145,0.159-0.214c0.057-0.068,0.116-0.134,0.178-0.196s0.127-0.122,0.196-0.179
		c0.068-0.057,0.139-0.11,0.212-0.16c0.073-0.05,0.149-0.097,0.227-0.139c0.078-0.043,0.159-0.082,0.241-0.117
		c0.083-0.034,0.167-0.065,0.253-0.093s0.174-0.05,0.264-0.068s0.181-0.033,0.274-0.042c0.092-0.01,0.187-0.015,0.282-0.015h4.844
		h4.843h0h4.843h0.001h4.843h4.843h0.001h4.843h0h4.843h4.844h4.844h4.843h0.001h4.843h0.001h4.843h4.843h0.001h4.843h4.844h4.844
		c0.095,0,0.189,0.005,0.281,0.015c0.093,0.009,0.185,0.023,0.274,0.042s0.178,0.041,0.264,0.068
		c0.087,0.027,0.171,0.059,0.254,0.093c0.083,0.035,0.163,0.074,0.241,0.117c0.078,0.042,0.153,0.089,0.227,0.139
		c0.074,0.05,0.145,0.104,0.213,0.16s0.134,0.116,0.195,0.179c0.063,0.063,0.122,0.128,0.179,0.196
		c0.056,0.069,0.109,0.14,0.158,0.214c0.05,0.074,0.096,0.15,0.139,0.229c0.042,0.078,0.081,0.159,0.116,0.242
		s0.066,0.167,0.093,0.255c0.026,0.086,0.05,0.176,0.067,0.266c0.019,0.09,0.032,0.182,0.042,0.275
		c0.01,0.093,0.015,0.188,0.015,0.283v2.807v2.807v2.807v2.807v2.807v2.807v2.807v2.807v2.807v2.807v2.807v2.807v2.807v2.807v2.807
		v2.806h2.235h0.001h2.235h0.001h2.234h0.002h2.234h0.001h2.234h0.001h2.235h0.001h2.234h0.002h2.234H201h2.233h0.003h2.233h0.002
		h2.233h0.002h2.234h0.002h2.233h0.003h2.233h0.003h2.232h0.004h2.232h0.003c0.741,0,1.473-0.034,2.194-0.102
		c0.721-0.067,1.432-0.167,2.131-0.298s1.385-0.292,2.058-0.483c0.673-0.19,1.331-0.411,1.973-0.659
		c0.643-0.248,1.27-0.523,1.878-0.826c0.609-0.302,1.201-0.63,1.772-0.982c0.571-0.352,1.124-0.729,1.654-1.128
		c0.531-0.399,1.04-0.822,1.527-1.266c0.486-0.444,0.949-0.908,1.388-1.393c0.438-0.483,0.852-0.987,1.238-1.508
		s0.746-1.06,1.078-1.615c0.331-0.555,0.633-1.126,0.905-1.712s0.514-1.186,0.724-1.799c0.209-0.613,0.387-1.238,0.53-1.876
		s0.252-1.285,0.325-1.943c0-0.002,0-0.004,0-0.006c0.073-0.654,0.111-1.32,0.111-1.992c0-0.001,0-0.001,0-0.002v-0.002v-12.946
		v-0.002v-12.947v-0.002v-12.946v-0.002v-12.946v-0.002V191.98v-0.002v-12.946v-0.002v-12.946v-0.002v-12.947v-0.002v-12.947v-0.001
		v-12.947v-0.001v-12.947v-0.001v-12.947v-0.001V88.391v0V75.442v0v-9.16v-0.437v-0.563v-1.784v-1.004V52.386v-2.842
		C240.375,48.87,240.337,48.202,240.263,47.544z M209.684,52.979c0.071,0.012,0.14,0.028,0.209,0.043
		c0.163,0.036,0.322,0.08,0.478,0.134c0.068,0.023,0.137,0.046,0.203,0.073c0.188,0.076,0.368,0.163,0.538,0.264
		c0.019,0.011,0.039,0.019,0.058,0.03c0.003,0.001,0.005,0.003,0.007,0.005c1.037,0.637,1.719,1.709,1.719,2.926v21.221
		c0,1.265-0.742,2.367-1.85,2.992c-0.628,0.384-1.384,0.608-2.198,0.608h-20.04c-0.814,0-1.57-0.225-2.197-0.608
		c-1.106-0.625-1.849-1.728-1.849-2.993v-21.22c0-1.216,0.68-2.287,1.715-2.924c0.003-0.002,0.006-0.004,0.01-0.006
		c0.021-0.012,0.043-0.021,0.063-0.033c0.168-0.099,0.346-0.185,0.53-0.26c0.067-0.027,0.138-0.05,0.208-0.074
		c0.153-0.053,0.311-0.097,0.472-0.132c0.07-0.015,0.141-0.032,0.213-0.044c0.229-0.038,0.465-0.064,0.707-0.064
		c0.001,0,0.003,0,0.004,0h20.289C209.216,52.914,209.453,52.94,209.684,52.979z M186.61,168.155
		c-1.106-0.625-1.849-1.727-1.849-2.992v-21.22c0-1.217,0.681-2.288,1.717-2.925c0.003-0.002,0.005-0.004,0.008-0.005
		c0.019-0.011,0.039-0.019,0.058-0.03c0.17-0.101,0.35-0.188,0.537-0.263c0.066-0.027,0.137-0.049,0.205-0.073
		c0.154-0.053,0.313-0.097,0.475-0.133c0.07-0.016,0.14-0.032,0.211-0.044c0.23-0.038,0.466-0.064,0.708-0.064
		c0.001,0,0.003,0,0.004,0h20.289c0.244,0,0.48,0.026,0.712,0.065c0.071,0.012,0.14,0.028,0.209,0.043
		c0.163,0.036,0.322,0.08,0.478,0.134c0.067,0.023,0.137,0.045,0.203,0.072c0.189,0.077,0.372,0.165,0.544,0.267
		c0.017,0.01,0.035,0.017,0.052,0.027c0.002,0.001,0.004,0.002,0.006,0.003c1.037,0.637,1.72,1.71,1.72,2.927v21.22
		c0,1.266-0.742,2.367-1.85,2.992c-0.628,0.384-1.384,0.608-2.198,0.608h-20.04C187.993,168.763,187.237,168.539,186.61,168.155z
		 M212.893,121.364c0,1.265-0.742,2.368-1.85,2.993c-0.627,0.384-1.383,0.608-2.197,0.608h-20.037c-0.814,0-1.57-0.225-2.197-0.608
		c-1.106-0.625-1.849-1.728-1.849-2.993v-21.22c0-1.441,0.958-2.676,2.328-3.228c0.059-0.024,0.121-0.044,0.182-0.065
		c0.161-0.057,0.327-0.103,0.498-0.14c0.065-0.014,0.13-0.03,0.197-0.042c0.232-0.039,0.471-0.065,0.716-0.065h20.287
		c0.246,0,0.484,0.026,0.718,0.065c0.065,0.011,0.129,0.026,0.194,0.041c0.171,0.037,0.338,0.083,0.5,0.14
		c0.061,0.021,0.122,0.041,0.181,0.064c1.371,0.552,2.329,1.787,2.329,3.229V121.364z M72.041,53.522
		c0.018-0.011,0.039-0.019,0.057-0.03c0.17-0.101,0.351-0.188,0.539-0.264c0.066-0.027,0.135-0.049,0.204-0.073
		c0.155-0.054,0.314-0.098,0.478-0.134c0.069-0.015,0.138-0.032,0.208-0.043c0.231-0.039,0.468-0.065,0.712-0.065h20.289
		c0.001,0,0.002,0,0.004,0c0.242,0,0.478,0.026,0.708,0.064c0.072,0.012,0.142,0.029,0.212,0.044
		c0.162,0.036,0.319,0.08,0.472,0.132c0.07,0.024,0.141,0.047,0.208,0.074c0.184,0.075,0.362,0.161,0.53,0.26
		c0.021,0.012,0.043,0.021,0.063,0.033c0.003,0.002,0.006,0.004,0.01,0.006c1.035,0.637,1.715,1.708,1.715,2.924v21.22
		c0,1.266-0.742,2.368-1.849,2.993c-0.627,0.384-1.383,0.608-2.197,0.608h-20.04c-0.814,0-1.571-0.225-2.198-0.608
		c-1.107-0.625-1.85-1.728-1.85-2.992V56.453c0-1.216,0.682-2.289,1.718-2.926C72.036,53.525,72.038,53.523,72.041,53.522z
		 M72.166,124.357c-1.107-0.625-1.849-1.728-1.849-2.993v-21.22c0-1.441,0.958-2.677,2.329-3.229
		c0.059-0.023,0.12-0.043,0.181-0.064c0.162-0.057,0.329-0.103,0.5-0.14c0.064-0.014,0.128-0.03,0.194-0.041
		c0.233-0.039,0.472-0.065,0.717-0.065h20.287c0.245,0,0.483,0.026,0.716,0.065c0.067,0.011,0.132,0.027,0.198,0.042
		c0.17,0.037,0.335,0.083,0.496,0.139c0.062,0.021,0.124,0.042,0.184,0.066c0.208,0.083,0.41,0.178,0.597,0.292
		c0.001,0,0.001,0.001,0.002,0.001c1.042,0.636,1.728,1.713,1.728,2.935v21.22c0,1.266-0.742,2.368-1.849,2.993
		c-0.627,0.384-1.383,0.608-2.197,0.608H74.364C73.549,124.965,72.793,124.741,72.166,124.357z M72.165,168.155
		c-1.107-0.625-1.85-1.727-1.85-2.992v-21.22c0-1.217,0.683-2.29,1.72-2.927c0.002-0.001,0.003-0.002,0.005-0.003
		c0.017-0.01,0.035-0.017,0.052-0.027c0.172-0.102,0.354-0.19,0.544-0.267c0.066-0.027,0.135-0.049,0.204-0.072
		c0.155-0.054,0.314-0.098,0.478-0.134c0.069-0.015,0.138-0.032,0.208-0.043c0.232-0.039,0.468-0.065,0.712-0.065h20.289
		c0.001,0,0.002,0,0.004,0c0.242,0,0.478,0.026,0.708,0.064c0.071,0.012,0.141,0.029,0.211,0.044c0.162,0.036,0.32,0.08,0.473,0.132
		c0.069,0.024,0.14,0.046,0.207,0.074c0.187,0.076,0.366,0.162,0.536,0.262c0.019,0.011,0.039,0.019,0.058,0.03
		c0.003,0.001,0.005,0.003,0.008,0.005c1.036,0.637,1.717,1.708,1.717,2.925v21.22c0,1.266-0.742,2.367-1.849,2.992
		c-0.627,0.384-1.383,0.608-2.197,0.608h-20.04C73.548,168.763,72.792,168.539,72.165,168.155z M74.366,212.346
		c-0.815,0-1.571-0.225-2.199-0.608c-1.107-0.625-1.849-1.727-1.849-2.992v-21.221c0-1.442,0.959-2.678,2.332-3.229
		c0.057-0.022,0.116-0.042,0.174-0.063c0.165-0.058,0.335-0.105,0.51-0.143c0.063-0.014,0.124-0.028,0.187-0.039
		c0.234-0.039,0.474-0.065,0.721-0.065h20.285c0.246,0,0.485,0.026,0.718,0.065c0.065,0.011,0.128,0.026,0.192,0.04
		c0.173,0.037,0.341,0.084,0.504,0.142c0.06,0.021,0.12,0.04,0.178,0.063c1.371,0.552,2.329,1.787,2.329,3.229v21.221
		c0,1.266-0.742,2.367-1.849,2.992c-0.627,0.384-1.383,0.608-2.197,0.608H74.366z M129.277,53.514
		c0.185-0.112,0.384-0.206,0.59-0.289c0.061-0.024,0.123-0.044,0.185-0.066c0.161-0.056,0.326-0.102,0.496-0.139
		c0.065-0.014,0.13-0.03,0.197-0.042c0.233-0.039,0.471-0.065,0.716-0.065h20.287c0.245,0,0.483,0.026,0.716,0.065
		c0.066,0.011,0.132,0.027,0.197,0.042c0.17,0.037,0.336,0.083,0.496,0.139c0.062,0.022,0.125,0.042,0.185,0.066
		c0.206,0.083,0.405,0.177,0.591,0.289c0.003,0.002,0.006,0.003,0.009,0.005c1.043,0.636,1.729,1.713,1.729,2.934v21.22
		c0,1.265-0.743,2.368-1.85,2.993c-0.627,0.384-1.383,0.608-2.197,0.608h-20.037c-0.814,0-1.57-0.225-2.197-0.608
		c-1.107-0.625-1.85-1.728-1.85-2.993v-21.22c0-1.221,0.686-2.297,1.729-2.934C129.271,53.517,129.274,53.516,129.277,53.514z
		 M129.389,168.155c-1.107-0.625-1.85-1.727-1.85-2.992v-21.22c0-1.221,0.686-2.298,1.729-2.934c0,0,0.001-0.001,0.002-0.001
		c0.187-0.114,0.388-0.208,0.596-0.292c0.061-0.024,0.124-0.045,0.185-0.066c0.161-0.056,0.326-0.102,0.496-0.139
		c0.065-0.014,0.13-0.03,0.197-0.042c0.233-0.039,0.471-0.065,0.716-0.065h20.287c0.245,0,0.483,0.026,0.716,0.065
		c0.066,0.011,0.132,0.027,0.197,0.042c0.17,0.037,0.336,0.083,0.496,0.139c0.062,0.021,0.125,0.042,0.185,0.066
		c0.208,0.083,0.409,0.178,0.597,0.292c0,0,0.001,0.001,0.002,0.001c1.043,0.636,1.729,1.713,1.729,2.934v21.22
		c0,1.266-0.742,2.367-1.85,2.992c-0.627,0.384-1.383,0.608-2.197,0.608h-20.037C130.772,168.763,130.016,168.539,129.389,168.155z
		 M155.668,121.364c0,1.266-0.742,2.368-1.85,2.993c-0.626,0.384-1.383,0.608-2.196,0.608h-20.035c-0.814,0-1.57-0.225-2.197-0.608
		c-1.107-0.625-1.849-1.728-1.849-2.993v-21.22c0-1.444,0.961-2.681,2.335-3.231c0.053-0.021,0.108-0.039,0.162-0.058
		c0.167-0.059,0.341-0.107,0.519-0.146c0.061-0.013,0.121-0.028,0.183-0.039c0.234-0.039,0.474-0.065,0.721-0.065h20.285
		c0.247,0,0.486,0.026,0.721,0.065c0.063,0.011,0.123,0.025,0.184,0.039c0.178,0.038,0.352,0.086,0.519,0.146
		c0.055,0.019,0.109,0.037,0.163,0.058c1.373,0.55,2.335,1.788,2.335,3.231V121.364z M131.589,212.346
		c-0.814,0-1.571-0.225-2.198-0.608c-1.107-0.625-1.849-1.727-1.849-2.992v-21.221c0-1.444,0.963-2.683,2.338-3.232
		c0.051-0.02,0.104-0.037,0.156-0.055c0.17-0.061,0.347-0.109,0.528-0.148c0.059-0.013,0.116-0.026,0.176-0.037
		c0.235-0.039,0.476-0.065,0.724-0.065h20.281c0.248,0,0.489,0.026,0.725,0.065c0.06,0.011,0.117,0.024,0.176,0.037
		c0.182,0.039,0.357,0.088,0.527,0.147c0.053,0.019,0.105,0.036,0.156,0.056c1.375,0.55,2.338,1.788,2.338,3.232v21.221
		c0,1.266-0.742,2.367-1.85,2.992c-0.627,0.384-1.383,0.608-2.197,0.608H131.589z M162.645,40.89h-41.83
		c-1.565,0-2.835-1.269-2.835-2.834V24.364c0-1.565,1.27-2.834,2.835-2.834h41.83c1.565,0,2.835,1.269,2.835,2.834v13.691
		C165.48,39.621,164.21,40.89,162.645,40.89z M188.809,212.346c-0.814,0-1.57-0.225-2.197-0.608
		c-1.106-0.625-1.849-1.727-1.849-2.992v-21.221c0-1.441,0.959-2.677,2.33-3.229c0.057-0.023,0.117-0.042,0.176-0.063
		c0.163-0.058,0.332-0.104,0.506-0.142c0.063-0.014,0.126-0.029,0.19-0.04c0.233-0.039,0.473-0.065,0.719-0.065h20.285
		c0.247,0,0.486,0.026,0.721,0.065c0.063,0.011,0.125,0.025,0.187,0.039c0.175,0.037,0.346,0.085,0.51,0.143
		c0.059,0.021,0.117,0.04,0.175,0.063c1.372,0.551,2.331,1.786,2.331,3.229v21.221c0,1.266-0.742,2.367-1.85,2.992
		c-0.627,0.384-1.384,0.608-2.198,0.608H188.809z"/>
</g>
</svg>
