<?xml version="1.0" encoding="utf-8"?>
<!-- Generator: Adobe Illustrator 15.1.0, SVG Export Plug-In . SVG Version: 6.00 Build 0)  -->
<!DOCTYPE svg PUBLIC "-//W3C//DTD SVG 1.0//EN" "http://www.w3.org/TR/2001/REC-SVG-20010904/DTD/svg10.dtd">
<svg version="1.0" id="Layer_1" xmlns="http://www.w3.org/2000/svg" xmlns:xlink="http://www.w3.org/1999/xlink" x="0px" y="0px"
	 width="283.46px" height="283.46px" viewBox="0 0 283.46 283.46" enable-background="new 0 0 283.46 283.46" xml:space="preserve">
<g>
	<path d="M210.059,261.189H73.401c-10.477,0-19-8.523-19-19V41.271c0-10.477,8.523-19,19-19h136.657c10.477,0,19,8.523,19,19
		v200.918C229.059,252.666,220.535,261.189,210.059,261.189z M73.401,36.271c-2.757,0-5,2.243-5,5v200.918c0,2.757,2.243,5,5,5
		h136.657c2.757,0,5-2.243,5-5V41.271c0-2.757-2.243-5-5-5H73.401z"/>
</g>
<g>
	<g>
		<g>
			<rect x="127.96" y="42.755" width="27.54" height="27.87"/>
			<rect x="170.479" y="42.755" width="27.54" height="27.87"/>
			<rect x="85.44" y="42.755" width="27.54" height="27.87"/>
		</g>
		<g>
			<rect x="127.96" y="85.275" width="27.54" height="27.87"/>
			<rect x="170.479" y="85.275" width="27.54" height="27.87"/>
			<rect x="85.44" y="85.275" width="27.54" height="27.87"/>
		</g>
	</g>
	<g>
		<g>
			<rect x="127.96" y="127.795" width="27.54" height="27.87"/>
			<rect x="170.479" y="127.795" width="27.54" height="27.87"/>
			<rect x="85.44" y="127.795" width="27.54" height="27.87"/>
		</g>
		<g>
			<rect x="127.96" y="170.314" width="27.54" height="27.87"/>
			<rect x="170.479" y="170.314" width="27.54" height="27.87"/>
			<rect x="85.44" y="170.314" width="27.54" height="27.87"/>
		</g>
		<g>
			<rect x="127.96" y="212.834" width="27.54" height="27.87"/>
			<rect x="170.479" y="212.834" width="27.54" height="27.87"/>
			<rect x="85.44" y="212.834" width="27.54" height="27.87"/>
		</g>
	</g>
</g>
</svg>
