<?xml version="1.0" encoding="utf-8"?>
<!-- Generator: Adobe Illustrator 15.1.0, SVG Export Plug-In . SVG Version: 6.00 Build 0)  -->
<!DOCTYPE svg PUBLIC "-//W3C//DTD SVG 1.1//EN" "http://www.w3.org/Graphics/SVG/1.1/DTD/svg11.dtd">
<svg version="1.1" id="Layer_1" xmlns="http://www.w3.org/2000/svg" xmlns:xlink="http://www.w3.org/1999/xlink" x="0px" y="0px"
	 width="283.465px" height="283.465px" viewBox="0 0 283.465 283.465" enable-background="new 0 0 283.465 283.465"
	 xml:space="preserve">
<g>
	<path d="M248.331,192.07h-11.143V66.572c0-7.278-5.902-13.18-13.18-13.18h-2.493V11.176c0-2.258-1.831-4.089-4.09-4.089H66.024
		c-2.258,0-4.089,1.831-4.089,4.089v42.217h-2.494c-7.278,0-13.18,5.9-13.18,13.18V192.07H35.12
		c-0.711,0.009-1.283,0.586-1.283,1.298v83.01h28.099h159.58h28.112v-83.01C249.628,192.649,249.046,192.07,248.331,192.07z
		 M78.79,168.091h31.348v31.815H78.79V168.091z M110.138,123.451v31.816H78.79v-31.816H110.138z M78.79,110.613V78.798h31.348
		v31.815H78.79z M126.053,168.091h31.346v31.815h-31.346V168.091z M126.053,110.613V78.798h31.346v31.815H126.053z M157.398,123.451
		v31.816h-31.346v-31.816H157.398z M173.313,168.091h31.346v31.815h-31.346V168.091z M173.313,110.613V78.798h31.346v31.815H173.313
		z M204.659,123.451v31.816h-31.346v-31.816H204.659z M204.659,34.158v31.815h-31.346V34.158H204.659z M157.398,34.158v31.815
		h-31.346V34.158H157.398z M78.79,34.158h31.348v31.815H78.79V34.158z M78.79,244.546V212.73h31.348v31.815H78.79z M162.357,272.103
		h-41.264c-1.064,0-1.929-0.615-1.929-1.372v-56.628c0-0.758,0.862-1.372,1.929-1.372h41.264c1.063,0,1.929,0.614,1.929,1.372
		v56.628C164.286,271.487,163.422,272.103,162.357,272.103z M173.313,244.546V212.73h31.346v31.815H173.313z"/>
</g>
</svg>
