<?xml version="1.0" encoding="utf-8"?>
<!-- Generator: Adobe Illustrator 15.1.0, SVG Export Plug-In . SVG Version: 6.00 Build 0)  -->
<!DOCTYPE svg PUBLIC "-//W3C//DTD SVG 1.1//EN" "http://www.w3.org/Graphics/SVG/1.1/DTD/svg11.dtd">
<svg version="1.1" id="Layer_1" xmlns="http://www.w3.org/2000/svg" xmlns:xlink="http://www.w3.org/1999/xlink" x="0px" y="0px"
	 width="283.465px" height="283.465px" viewBox="0 0 283.465 283.465" enable-background="new 0 0 283.465 283.465"
	 xml:space="preserve">
<path fill-rule="evenodd" clip-rule="evenodd" d="M107.955,103.114H151.9c1.656,0,3.008-1.348,3.008-3.005s-1.352-3.005-3.008-3.005
	h-43.946c-1.658,0-3.005,1.348-3.005,3.005S106.296,103.114,107.955,103.114z M124.915,122.272h50.595
	c1.658,0,3.004-1.345,3.004-3.003s-1.346-3.005-3.004-3.005h-50.595c-1.658,0-3.005,1.348-3.005,3.005
	S123.256,122.272,124.915,122.272z M110.933,113.286c3.303,0,5.983,2.68,5.983,5.983c0,3.301-2.681,5.983-5.983,5.983
	c-3.302,0-5.983-2.682-5.983-5.983C104.95,115.966,107.631,113.286,110.933,113.286z M124.915,144.316h50.595
	c1.658,0,3.004-1.346,3.004-3.003s-1.346-3.005-3.004-3.005h-50.595c-1.658,0-3.005,1.347-3.005,3.005
	S123.256,144.316,124.915,144.316z M110.933,135.33c3.303,0,5.983,2.68,5.983,5.983c0,3.301-2.681,5.981-5.983,5.981
	c-3.302,0-5.983-2.68-5.983-5.981C104.95,138.01,107.631,135.33,110.933,135.33z M124.915,166.254h50.595
	c1.658,0,3.004-1.345,3.004-3.002c0-1.658-1.346-3.004-3.004-3.004h-50.595c-1.658,0-3.005,1.346-3.005,3.004
	C121.91,164.909,123.256,166.254,124.915,166.254z M110.933,157.271c3.303,0,5.983,2.68,5.983,5.981c0,3.301-2.681,5.98-5.983,5.98
	c-3.302,0-5.983-2.68-5.983-5.98C104.95,159.95,107.631,157.271,110.933,157.271z M124.915,188.324h50.595
	c1.658,0,3.004-1.35,3.004-3.008c0-1.657-1.346-3.002-3.004-3.002h-50.595c-1.658,0-3.005,1.345-3.005,3.002
	C121.91,186.975,123.256,188.324,124.915,188.324z M110.933,179.336c3.303,0,5.983,2.68,5.983,5.98c0,3.307-2.681,5.986-5.983,5.986
	c-3.302,0-5.983-2.68-5.983-5.986C104.95,182.016,107.631,179.336,110.933,179.336z M161.773,81.718H96.547v120.03h90.373v-94.885
	h-21.641c-1.936,0-3.506-1.57-3.506-3.507V81.718z M168.557,73.811c-0.871-0.868-2.049-1.357-3.277-1.357H91.915
	c-2.559,0-4.632,2.076-4.632,4.634v129.293c0,2.557,2.073,4.631,4.632,4.631h99.636c2.559,0,4.631-2.074,4.631-4.631V103.356
	c0-1.228-0.488-2.406-1.354-3.274L168.557,73.811z"/>
</svg>
