<?xml version="1.0" encoding="utf-8"?>
<!-- Generator: Adobe Illustrator 15.1.0, SVG Export Plug-In . SVG Version: 6.00 Build 0)  -->
<!DOCTYPE svg PUBLIC "-//W3C//DTD SVG 1.1//EN" "http://www.w3.org/Graphics/SVG/1.1/DTD/svg11.dtd">
<svg version="1.1" id="Layer_3" xmlns="http://www.w3.org/2000/svg" xmlns:xlink="http://www.w3.org/1999/xlink" x="0px" y="0px"
	 width="283.46px" height="283.46px" viewBox="0 0 283.46 283.46" enable-background="new 0 0 283.46 283.46" xml:space="preserve">
<path d="M229.184,143.333c0.024-0.063,0.049-0.127,0.071-0.19c0.026-0.07,0.049-0.142,0.071-0.213
	c0.017-0.056,0.031-0.112,0.047-0.17c0.019-0.077,0.037-0.153,0.052-0.23c0.01-0.058,0.019-0.112,0.027-0.17
	c0.011-0.076,0.021-0.154,0.029-0.23c0.006-0.061,0.009-0.123,0.012-0.184c0.005-0.071,0.008-0.142,0.008-0.212
	c0-0.07-0.003-0.141-0.008-0.212c-0.003-0.062-0.006-0.123-0.012-0.186c-0.008-0.076-0.019-0.153-0.029-0.23
	c-0.009-0.057-0.018-0.113-0.027-0.169c-0.016-0.077-0.033-0.155-0.052-0.231c-0.016-0.058-0.03-0.114-0.047-0.171
	c-0.021-0.071-0.044-0.141-0.069-0.211c-0.022-0.064-0.047-0.128-0.073-0.191c-0.024-0.06-0.051-0.119-0.078-0.178
	c-0.034-0.074-0.07-0.146-0.109-0.218c-0.016-0.028-0.026-0.058-0.043-0.085c-0.011-0.021-0.025-0.04-0.038-0.061
	c-0.045-0.076-0.093-0.148-0.142-0.221c-0.029-0.044-0.06-0.089-0.091-0.133c-0.048-0.067-0.102-0.131-0.154-0.195
	c-0.037-0.045-0.074-0.091-0.115-0.135c-0.049-0.055-0.101-0.108-0.154-0.161c-0.048-0.048-0.096-0.095-0.146-0.141
	c-0.048-0.043-0.1-0.085-0.149-0.126c-0.059-0.048-0.119-0.097-0.181-0.143c-0.046-0.035-0.095-0.068-0.144-0.101
	c-0.07-0.046-0.14-0.091-0.211-0.134c-0.022-0.013-0.042-0.028-0.063-0.041L60.271,43.267c-2.03-1.151-4.607-0.439-5.758,1.59
	c-1.15,2.029-0.439,4.607,1.59,5.758l160.615,91.115L56.102,232.844c-2.029,1.15-2.741,3.729-1.59,5.758
	c0.777,1.372,2.207,2.14,3.677,2.14c0.706,0,1.423-0.176,2.081-0.55l167.093-94.788c0.001,0,0.001-0.001,0.002-0.001
	c0.022-0.014,0.044-0.029,0.066-0.042c0.123-0.074,0.24-0.151,0.353-0.233c0.045-0.033,0.087-0.068,0.131-0.103
	c0.095-0.077,0.185-0.155,0.271-0.236c0.038-0.035,0.074-0.07,0.109-0.105c0.245-0.251,0.454-0.527,0.626-0.822
	c0.011-0.017,0.022-0.029,0.032-0.046c0.016-0.03,0.027-0.06,0.044-0.088c0.038-0.071,0.075-0.142,0.108-0.216
	C229.132,143.452,229.16,143.393,229.184,143.333z"/>
</svg>
