<?xml version="1.0" encoding="utf-8"?>
<!-- Generator: Adobe Illustrator 15.1.0, SVG Export Plug-In . SVG Version: 6.00 Build 0)  -->
<!DOCTYPE svg PUBLIC "-//W3C//DTD SVG 1.1//EN" "http://www.w3.org/Graphics/SVG/1.1/DTD/svg11.dtd">
<svg version="1.1" id="Layer_1" xmlns="http://www.w3.org/2000/svg" xmlns:xlink="http://www.w3.org/1999/xlink" x="0px" y="0px"
	 width="283.46px" height="283.46px" viewBox="0 0 283.46 283.46" enable-background="new 0 0 283.46 283.46" xml:space="preserve">
<g>
	<path fill="none" d="M44.031,67.58c-6.271,8.246-11.409,17.135-15.362,26.476c-0.146,0.346-0.29,0.693-0.432,1.04
		c-0.169,0.409-0.335,0.818-0.499,1.229c-4.351,10.966-7.132,22.629-8.189,34.712c-0.247,2.832-0.397,5.658-0.452,8.473
		c-0.002,0.103-0.004,0.207-0.005,0.311c-0.011,0.623-0.012,1.245-0.013,1.867c0.001,0.687,0.002,1.373,0.015,2.062
		c0.001,0.039,0.001,0.08,0.002,0.119c0.054,2.84,0.204,5.69,0.454,8.547c1.061,12.121,3.855,23.819,8.23,34.816
		c0.124,0.311,0.249,0.618,0.375,0.928c0.185,0.452,0.373,0.902,0.562,1.352c0.279,0.658,0.56,1.314,0.851,1.967
		c0.031,0.068,0.061,0.139,0.092,0.205c3.808,8.507,8.613,16.62,14.371,24.189l88.364-74.146L44.031,67.58z"/>
	<path fill="none" d="M231.714,58.387c-1.063-1.151-2.15-2.273-3.252-3.378c-0.342-0.343-0.682-0.689-1.03-1.028
		c-0.063-0.063-0.13-0.125-0.194-0.188c-2.141-2.075-4.363-4.084-6.671-6.02c-9.337-7.835-19.603-14.139-30.491-18.824
		c-0.334-0.142-0.671-0.282-1.006-0.422c-0.439-0.184-0.88-0.366-1.32-0.545c-0.722-0.291-1.444-0.578-2.172-0.855
		c-0.037-0.014-0.072-0.027-0.108-0.041c-10.48-3.981-21.575-6.536-33.05-7.54c-3.576-0.312-7.142-0.461-10.688-0.467
		c-3.548,0.006-7.112,0.154-10.688,0.467c-11.476,1.004-22.573,3.56-33.054,7.541c-0.033,0.013-0.065,0.026-0.098,0.038
		c-0.73,0.278-1.457,0.567-2.182,0.859c-0.438,0.178-0.875,0.359-1.311,0.542c-0.339,0.141-0.677,0.282-1.014,0.426
		c-10.889,4.685-21.154,10.989-30.49,18.823c-2.305,1.933-4.525,3.94-6.664,6.013c-0.068,0.066-0.138,0.131-0.206,0.198
		c-0.343,0.334-0.678,0.676-1.016,1.013c-1.105,1.108-2.196,2.234-3.263,3.389l89.985,75.506L231.714,58.387z"/>
	<path fill="none" d="M264.362,139.546c-0.055-2.827-0.204-5.664-0.452-8.507c-1.058-12.088-3.84-23.754-8.193-34.725
		c-0.159-0.399-0.32-0.796-0.483-1.192c-0.147-0.361-0.298-0.72-0.448-1.079c-3.951-9.336-9.086-18.22-15.355-26.461l-88.364,74.146
		l88.364,74.146c5.763-7.576,10.57-15.694,14.38-24.209c0.022-0.054,0.048-0.106,0.071-0.16c0.298-0.668,0.586-1.34,0.871-2.014
		c0.182-0.431,0.36-0.861,0.537-1.295c0.133-0.326,0.268-0.654,0.398-0.982c4.371-10.991,7.162-22.684,8.223-34.799
		c0.25-2.845,0.398-5.684,0.453-8.512c0.001-0.07,0.002-0.14,0.004-0.208c0.01-0.657,0.012-1.313,0.014-1.971
		c-0.002-0.652-0.004-1.304-0.014-1.957C264.365,139.694,264.363,139.62,264.362,139.546z"/>
	<path fill="none" d="M51.744,225.064c1.055,1.143,2.133,2.254,3.225,3.352c0.358,0.356,0.712,0.717,1.075,1.07
		c0.049,0.047,0.099,0.094,0.147,0.143c2.151,2.086,4.385,4.104,6.703,6.049c9.356,7.852,19.644,14.166,30.559,18.854
		c0.246,0.106,0.494,0.209,0.742,0.313c0.528,0.222,1.058,0.441,1.589,0.656c0.647,0.261,1.295,0.517,1.946,0.766
		c0.112,0.044,0.225,0.087,0.338,0.131c10.457,3.964,21.525,6.509,32.971,7.51c3.576,0.313,7.141,0.463,10.689,0.469
		c3.548-0.006,7.113-0.155,10.689-0.469c11.447-1.001,22.518-3.547,32.976-7.512c0.108-0.042,0.218-0.084,0.327-0.126
		c0.654-0.25,1.306-0.508,1.955-0.771c0.529-0.213,1.058-0.431,1.582-0.652c0.25-0.104,0.5-0.209,0.748-0.314
		c10.914-4.688,21.203-11.003,30.559-18.854c2.311-1.938,4.535-3.949,6.678-6.026c0.063-0.06,0.125-0.118,0.186-0.179
		c0.348-0.338,0.687-0.684,1.027-1.027c1.104-1.107,2.192-2.23,3.258-3.383l-89.984-75.506L51.744,225.064z"/>
	<path d="M276.361,139.993c-0.005-0.341-0.014-0.682-0.021-1.022c-0.017-0.804-0.035-1.608-0.066-2.412
		c-0.005-0.126-0.011-0.253-0.018-0.379c-0.688-16.998-4.584-33.942-11.778-49.861c-0.077-0.171-0.159-0.34-0.235-0.51
		c-0.354-0.771-0.707-1.542-1.076-2.309c-6.22-12.991-14.613-25.139-25.129-35.875c-0.406-0.417-0.82-0.823-1.229-1.234
		c-0.315-0.314-0.627-0.631-0.946-0.943c-10.754-10.539-22.924-18.949-35.939-25.176c-0.616-0.295-1.236-0.579-1.856-0.864
		c-0.321-0.147-0.642-0.301-0.963-0.446c-15.894-7.179-32.812-11.068-49.78-11.761c-0.148-0.006-0.296-0.014-0.443-0.02
		c-0.782-0.029-1.565-0.049-2.351-0.065c-0.36-0.008-0.722-0.017-1.083-0.022c-0.572-0.007-1.144-0.006-1.715-0.006
		c-0.571,0-1.144,0-1.715,0.006c-0.361,0.005-0.722,0.014-1.083,0.022c-0.784,0.016-1.567,0.036-2.351,0.065
		c-0.147,0.006-0.295,0.013-0.443,0.02c-16.97,0.693-33.887,4.582-49.781,11.761c-0.322,0.145-0.641,0.298-0.963,0.446
		c-0.619,0.286-1.239,0.569-1.855,0.864c-13.017,6.227-25.187,14.636-35.94,25.174c-0.324,0.316-0.639,0.638-0.958,0.956
		c-0.407,0.406-0.815,0.809-1.218,1.221c-10.518,10.739-18.915,22.89-25.135,35.885c-0.347,0.723-0.681,1.45-1.014,2.178
		c-0.098,0.215-0.201,0.428-0.298,0.643C11.792,102.225,7.9,119.142,7.204,136.115c-0.006,0.158-0.015,0.315-0.021,0.474
		c-0.029,0.774-0.048,1.549-0.064,2.323c-0.008,0.369-0.018,0.738-0.022,1.107c-0.007,0.562-0.006,1.123-0.006,1.684
		c0,0.585,0,1.169,0.007,1.755c0.004,0.344,0.014,0.687,0.021,1.029c0.016,0.803,0.037,1.604,0.067,2.407
		c0.005,0.127,0.011,0.253,0.017,0.38c0.689,17.002,4.585,33.95,11.785,49.872c0.056,0.125,0.116,0.249,0.173,0.374
		c0.373,0.816,0.75,1.635,1.14,2.447c6.216,12.979,14.603,25.115,25.106,35.844c0.461,0.475,0.93,0.936,1.396,1.4
		c0.26,0.259,0.516,0.521,0.779,0.776c10.764,10.552,22.947,18.972,35.979,25.202c0.528,0.254,1.061,0.495,1.591,0.741
		c0.41,0.188,0.818,0.384,1.229,0.569c15.884,7.17,32.788,11.057,49.746,11.75c0.153,0.006,0.307,0.015,0.46,0.021
		c0.782,0.029,1.563,0.049,2.345,0.064c0.361,0.008,0.721,0.017,1.082,0.021c0.572,0.007,1.145,0.007,1.717,0.007
		c0.572,0,1.146,0,1.718-0.007c0.359-0.005,0.721-0.014,1.082-0.021c0.78-0.017,1.563-0.035,2.344-0.064
		c0.153-0.007,0.308-0.016,0.461-0.021c16.961-0.693,33.867-4.58,49.752-11.754c0.387-0.174,0.77-0.356,1.154-0.535
		c0.557-0.256,1.112-0.51,1.666-0.774c13.024-6.229,25.202-14.644,35.963-25.188c0.297-0.291,0.588-0.588,0.883-0.883
		c0.433-0.431,0.865-0.856,1.291-1.295c10.515-10.734,18.908-22.882,25.127-35.871c0.354-0.74,0.695-1.484,1.037-2.229
		c0.09-0.198,0.186-0.395,0.273-0.594c7.186-15.896,11.078-32.816,11.773-49.791c0.007-0.156,0.015-0.313,0.021-0.471
		c0.028-0.772,0.048-1.546,0.063-2.318c0.008-0.371,0.018-0.744,0.021-1.116c0.008-0.558,0.008-1.114,0.008-1.672
		C276.369,141.171,276.369,140.582,276.361,139.993z M55.008,54.999c0.338-0.337,0.673-0.679,1.016-1.013
		c0.068-0.067,0.138-0.132,0.206-0.198c2.139-2.073,4.359-4.08,6.664-6.013c9.336-7.834,19.601-14.138,30.49-18.823
		c0.337-0.144,0.675-0.285,1.014-0.426c0.436-0.183,0.873-0.364,1.311-0.542c0.725-0.292,1.452-0.581,2.182-0.859
		c0.033-0.012,0.065-0.025,0.098-0.038c10.481-3.981,21.578-6.537,33.054-7.541c3.576-0.313,7.14-0.461,10.688-0.467
		c3.547,0.006,7.112,0.155,10.688,0.467c11.475,1.004,22.569,3.559,33.05,7.54c0.036,0.014,0.071,0.027,0.108,0.041
		c0.728,0.277,1.45,0.564,2.172,0.855c0.44,0.179,0.881,0.361,1.32,0.545c0.335,0.14,0.672,0.28,1.006,0.422
		c10.889,4.685,21.154,10.989,30.491,18.824c2.308,1.936,4.53,3.945,6.671,6.02c0.064,0.063,0.131,0.125,0.194,0.188
		c0.349,0.339,0.688,0.685,1.03,1.028c1.102,1.105,2.188,2.227,3.252,3.378l-89.984,75.507L51.745,58.388
		C52.812,57.233,53.903,56.107,55.008,54.999z M44.031,215.873c-5.758-7.569-10.563-15.683-14.371-24.189
		c-0.031-0.066-0.061-0.137-0.092-0.205c-0.291-0.652-0.572-1.309-0.851-1.967c-0.189-0.449-0.377-0.899-0.562-1.352
		c-0.126-0.31-0.251-0.617-0.375-0.928c-4.375-10.997-7.169-22.695-8.23-34.816c-0.25-2.856-0.4-5.707-0.454-8.547
		c-0.001-0.039-0.001-0.08-0.002-0.119c-0.013-0.688-0.014-1.375-0.015-2.062c0.001-0.622,0.002-1.244,0.013-1.867
		c0.001-0.104,0.003-0.208,0.005-0.311c0.055-2.815,0.205-5.641,0.452-8.473c1.057-12.083,3.838-23.746,8.189-34.712
		c0.164-0.411,0.33-0.82,0.499-1.229c0.142-0.347,0.286-0.694,0.432-1.04c3.953-9.341,9.091-18.23,15.362-26.476l88.364,74.146
		L44.031,215.873z M228.455,228.447c-0.341,0.344-0.68,0.689-1.027,1.027c-0.061,0.061-0.123,0.119-0.186,0.179
		c-2.143,2.077-4.367,4.089-6.678,6.026c-9.355,7.851-19.645,14.165-30.559,18.854c-0.248,0.105-0.498,0.211-0.748,0.314
		c-0.524,0.222-1.053,0.439-1.582,0.652c-0.649,0.263-1.301,0.521-1.955,0.771c-0.109,0.042-0.219,0.084-0.327,0.126
		c-10.458,3.965-21.528,6.511-32.976,7.512c-3.576,0.313-7.142,0.463-10.689,0.469c-3.548-0.006-7.113-0.155-10.689-0.469
		c-11.446-1.001-22.514-3.546-32.971-7.51c-0.113-0.044-0.226-0.087-0.338-0.131c-0.651-0.249-1.299-0.505-1.946-0.766
		c-0.531-0.215-1.061-0.435-1.589-0.656c-0.248-0.104-0.496-0.207-0.742-0.313c-10.915-4.688-21.203-11.003-30.559-18.854
		c-2.318-1.944-4.552-3.963-6.703-6.049c-0.048-0.049-0.098-0.096-0.147-0.143c-0.363-0.354-0.717-0.714-1.075-1.07
		c-1.092-1.098-2.17-2.209-3.225-3.352l89.984-75.506l89.984,75.506C230.647,226.216,229.558,227.339,228.455,228.447z
		 M264.367,143.696c-0.002,0.068-0.003,0.138-0.004,0.208c-0.055,2.828-0.203,5.667-0.453,8.512
		c-1.061,12.115-3.852,23.808-8.223,34.799c-0.131,0.328-0.266,0.656-0.398,0.982c-0.177,0.434-0.355,0.864-0.537,1.295
		c-0.285,0.674-0.573,1.346-0.871,2.014c-0.023,0.054-0.049,0.106-0.071,0.16c-3.81,8.515-8.617,16.633-14.38,24.209l-88.364-74.146
		l88.364-74.146c6.27,8.241,11.404,17.125,15.355,26.461c0.15,0.359,0.301,0.718,0.448,1.079c0.163,0.396,0.324,0.793,0.483,1.192
		c4.354,10.971,7.136,22.637,8.193,34.725c0.248,2.843,0.397,5.68,0.452,8.507c0.001,0.074,0.003,0.148,0.005,0.222
		c0.01,0.653,0.012,1.305,0.014,1.957C264.378,142.382,264.376,143.039,264.367,143.696z"/>
</g>
</svg>
