<?xml version="1.0" encoding="utf-8"?>
<!-- Generator: Adobe Illustrator 15.1.0, SVG Export Plug-In . SVG Version: 6.00 Build 0)  -->
<!DOCTYPE svg PUBLIC "-//W3C//DTD SVG 1.1//EN" "http://www.w3.org/Graphics/SVG/1.1/DTD/svg11.dtd">
<svg version="1.1" id="Layer_1" xmlns="http://www.w3.org/2000/svg" xmlns:xlink="http://www.w3.org/1999/xlink" x="0px" y="0px"
	 width="283.46px" height="283.46px" viewBox="0 0 283.46 283.46" enable-background="new 0 0 283.46 283.46" xml:space="preserve">
<g>
	<path fill="none" d="M239.428,67.581L51.745,225.066c20.727,22.432,48.661,36.162,79.295,38.841
		c32.635,2.855,64.429-7.17,89.525-28.228c25.095-21.057,40.488-50.627,43.345-83.263
		C266.589,121.782,257.918,91.889,239.428,67.581z"/>
	<path fill="none" d="M152.418,19.547c-32.635-2.854-64.429,7.17-89.525,28.228c-25.095,21.058-40.489,50.628-43.344,83.263
		c-2.681,30.635,5.99,60.528,24.482,84.836L231.714,58.388C210.987,35.957,183.052,22.227,152.418,19.547z"/>
	<path d="M244.875,55.179c-47.8-56.965-132.73-64.394-189.694-16.596c-56.965,47.8-64.396,132.729-16.597,189.693
		c47.799,56.965,132.728,64.395,189.693,16.596C285.244,197.073,292.674,112.144,244.875,55.179z M19.549,131.038
		c2.855-32.634,18.249-62.205,43.344-83.263c25.096-21.058,56.89-31.082,89.525-28.228c30.634,2.68,58.568,16.41,79.296,38.841
		L44.031,215.874C25.54,191.566,16.869,161.672,19.549,131.038z M220.565,235.679c-25.096,21.058-56.89,31.083-89.525,28.228
		c-30.635-2.679-58.568-16.409-79.295-38.841L239.428,67.581c18.49,24.308,27.161,54.201,24.481,84.835
		C261.053,185.052,245.66,214.623,220.565,235.679z"/>
</g>
</svg>
