<?xml version="1.0" encoding="utf-8"?>
<!-- Generator: Adobe Illustrator 15.1.0, SVG Export Plug-In . SVG Version: 6.00 Build 0)  -->
<!DOCTYPE svg PUBLIC "-//W3C//DTD SVG 1.1//EN" "http://www.w3.org/Graphics/SVG/1.1/DTD/svg11.dtd">
<svg version="1.1" id="Layer_1" xmlns="http://www.w3.org/2000/svg" xmlns:xlink="http://www.w3.org/1999/xlink" x="0px" y="0px"
	 width="283.46px" height="283.46px" viewBox="0 0 283.46 283.46" enable-background="new 0 0 283.46 283.46" xml:space="preserve">
<path d="M141.73,62.734l18.695,57.535l1.389,4.274h4.494h60.493l-48.939,35.559l-3.637,2.642l1.39,4.273l18.693,57.533
	l-48.941-35.558l-3.636-2.642l-3.636,2.642l-48.942,35.557l18.694-57.532l1.389-4.274l-3.637-2.642L56.66,124.542h60.494h4.494
	l1.389-4.274L141.73,62.734 M141.73,42.717l-24.577,75.639H37.622l64.342,46.748l-24.577,75.639l64.343-46.748l64.343,46.748
	l-24.576-75.639l64.342-46.748h-79.53L141.73,42.717L141.73,42.717z"/>
</svg>
