<?xml version="1.0" encoding="utf-8"?>
<!-- Generator: Adobe Illustrator 15.1.0, SVG Export Plug-In . SVG Version: 6.00 Build 0)  -->
<!DOCTYPE svg PUBLIC "-//W3C//DTD SVG 1.0//EN" "http://www.w3.org/TR/2001/REC-SVG-20010904/DTD/svg10.dtd">
<svg version="1.0" id="Layer_2" xmlns="http://www.w3.org/2000/svg" xmlns:xlink="http://www.w3.org/1999/xlink" x="0px" y="0px"
	 width="283.465px" height="283.465px" viewBox="0 0 283.465 283.465" enable-background="new 0 0 283.465 283.465"
	 xml:space="preserve">
<g>
	<path fill="none" d="M181.913,64.791V21.409H51.14v240.648h181.189V71.821h-43.388C185.06,71.821,181.913,68.674,181.913,64.791z
		 M74.01,52.256h88.108c3.32,0,6.03,2.703,6.03,6.025c0,3.322-2.71,6.024-6.03,6.024H74.012c-3.326,0-6.026-2.702-6.026-6.024
		C67.985,54.959,70.686,52.256,74.01,52.256z M79.982,241.116c-6.621,0-11.995-5.375-11.995-12.002
		c0-6.618,5.375-11.989,11.995-11.989c6.622,0,11.996,5.375,11.996,11.989C91.978,235.743,86.603,241.116,79.982,241.116z
		 M79.982,196.867c-6.621,0-11.995-5.373-11.995-11.99c0-6.62,5.375-11.99,11.995-11.99c6.622,0,11.996,5.374,11.996,11.99
		C91.978,191.494,86.603,196.867,79.982,196.867z M79.982,152.882c-6.621,0-11.995-5.374-11.995-11.991
		c0-6.622,5.375-11.995,11.995-11.995c6.622,0,11.996,5.374,11.996,11.995C91.978,147.508,86.603,152.882,79.982,152.882z
		 M79.982,108.69c-6.621,0-11.995-5.377-11.995-11.995c0-6.623,5.375-11.995,11.995-11.995c6.622,0,11.996,5.373,11.996,11.995
		C91.978,103.313,86.603,108.69,79.982,108.69z M209.453,235.145H108.015c-3.327,0-6.024-2.706-6.024-6.03
		c0-3.323,2.7-6.02,6.024-6.02h101.438c3.324,0,6.022,2.696,6.022,6.02C215.476,232.438,212.777,235.145,209.453,235.145z
		 M209.453,190.896H108.015c-3.327,0-6.024-2.696-6.024-6.019c0-3.325,2.7-6.022,6.024-6.022h101.438
		c3.324,0,6.022,2.697,6.022,6.022C215.476,188.199,212.777,190.896,209.453,190.896z M209.453,146.912H108.015
		c-3.327,0-6.024-2.697-6.024-6.021c0-3.325,2.7-6.024,6.024-6.024h101.438c3.324,0,6.022,2.702,6.022,6.024
		C215.476,144.215,212.777,146.912,209.453,146.912z M215.476,96.695c0,3.325-2.698,6.021-6.022,6.021H108.015
		c-3.327,0-6.024-2.699-6.024-6.021c0-3.322,2.7-6.024,6.024-6.024h101.438C212.777,90.67,215.476,93.371,215.476,96.695z"/>
	<path d="M248.185,58.227L195.513,5.556c-1.747-1.74-4.108-2.72-6.571-2.72H41.853c-5.13,0-9.286,4.161-9.286,9.29v259.22
		c0,5.126,4.156,9.285,9.286,9.285h199.76c5.13,0,9.285-4.159,9.285-9.285V64.791C250.898,62.329,249.919,59.967,248.185,58.227z
		 M232.329,262.058H51.14V21.409h130.773v43.381c0,3.884,3.146,7.031,7.028,7.031h43.39v190.236H232.329z"/>
	<g>
		<path d="M74.012,64.305h88.106c3.32,0,6.03-2.702,6.03-6.024c0-3.322-2.71-6.025-6.03-6.025H74.01
			c-3.324,0-6.024,2.703-6.024,6.025C67.985,61.603,70.686,64.305,74.012,64.305z"/>
	</g>
	<g>
		<path d="M101.991,96.695c0,3.322,2.698,6.021,6.024,6.021h101.438c3.324,0,6.022-2.696,6.022-6.021
			c0-3.324-2.698-6.024-6.022-6.024H108.015C104.69,90.67,101.991,93.373,101.991,96.695z"/>
	</g>
	<g>
		<path d="M79.982,84.7c-6.621,0-11.995,5.373-11.995,11.995c0,6.618,5.375,11.995,11.995,11.995c6.62,0,11.996-5.377,11.996-11.995
			C91.978,90.072,86.604,84.7,79.982,84.7z"/>
	</g>
	<g>
		<path d="M209.453,134.867H108.015c-3.325,0-6.024,2.7-6.024,6.024c0,3.324,2.698,6.021,6.024,6.021h101.438
			c3.324,0,6.022-2.697,6.022-6.021C215.476,137.568,212.777,134.867,209.453,134.867z"/>
	</g>
	<g>
		<path d="M79.982,128.896c-6.621,0-11.995,5.374-11.995,11.995c0,6.617,5.375,11.991,11.995,11.991
			c6.62,0,11.996-5.374,11.996-11.991C91.978,134.27,86.604,128.896,79.982,128.896z"/>
	</g>
	<g>
		<path d="M209.453,178.854H108.015c-3.325,0-6.024,2.697-6.024,6.022c0,3.322,2.698,6.019,6.024,6.019h101.438
			c3.324,0,6.022-2.696,6.022-6.019C215.476,181.552,212.777,178.854,209.453,178.854z"/>
	</g>
	<g>
		<circle cx="79.982" cy="184.877" r="11.99"/>
	</g>
	<g>
		<path d="M209.453,223.095H108.015c-3.325,0-6.024,2.696-6.024,6.02c0,3.324,2.698,6.03,6.024,6.03h101.438
			c3.324,0,6.022-2.706,6.022-6.03C215.476,225.791,212.777,223.095,209.453,223.095z"/>
	</g>
	<g>
		<path d="M79.982,217.123c-6.621,0-11.995,5.373-11.995,11.991c0,6.627,5.375,12.002,11.995,12.002
			c6.62,0,11.996-5.375,11.996-12.002C91.978,222.496,86.604,217.123,79.982,217.123z"/>
	</g>
</g>
</svg>
