<?xml version="1.0" encoding="utf-8"?>
<!-- Generator: Adobe Illustrator 15.1.0, SVG Export Plug-In . SVG Version: 6.00 Build 0)  -->
<!DOCTYPE svg PUBLIC "-//W3C//DTD SVG 1.1//EN" "http://www.w3.org/Graphics/SVG/1.1/DTD/svg11.dtd">
<svg version="1.1" id="Layer_1" xmlns="http://www.w3.org/2000/svg" xmlns:xlink="http://www.w3.org/1999/xlink" x="0px" y="0px"
	 width="283.46px" height="283.46px" viewBox="0 0 283.46 283.46" enable-background="new 0 0 283.46 283.46" xml:space="preserve">
<g>
	<path fill="none" d="M223.099,77.958c-17.035-17.035-39.684-26.416-63.774-26.416c-24.09,0-46.738,9.381-63.773,26.416
		c-15.991,15.99-25.236,36.928-26.31,59.361h75.291l-9.788-27.057c14.455,12.603,37.773,24.502,56.568,31.469
		c-18.795,6.975-42.113,18.872-56.568,31.476l9.788-27.063H69.242c1.073,22.434,10.319,43.371,26.31,59.362
		c17.034,17.033,39.683,26.415,63.773,26.415c24.09,0,46.739-9.382,63.774-26.415c17.034-17.034,26.416-39.684,26.416-63.774
		S240.133,94.992,223.099,77.958z"/>
	<path d="M159.325,42.717c-53.206,0-96.602,41.966-98.911,94.601h-30.88c-2.436,0-4.413,1.976-4.413,4.413
		c0,2.437,1.976,4.412,4.413,4.412h30.88c2.31,52.634,45.706,94.6,98.911,94.6c54.683,0,99.013-44.33,99.013-99.013
		S214.008,42.717,159.325,42.717z M223.099,205.505c-17.035,17.033-39.684,26.415-63.774,26.415
		c-24.09,0-46.739-9.382-63.773-26.415c-15.991-15.991-25.236-36.929-26.31-59.362h75.291l-9.788,27.063
		c14.455-12.604,37.773-24.501,56.568-31.476c-18.795-6.967-42.113-18.866-56.568-31.469l9.788,27.057H69.242
		c1.073-22.433,10.319-43.371,26.31-59.361c17.035-17.035,39.683-26.416,63.773-26.416c24.09,0,46.739,9.381,63.774,26.416
		c17.034,17.034,26.416,39.683,26.416,63.773S240.133,188.471,223.099,205.505z"/>
</g>
</svg>
