<?xml version="1.0" encoding="utf-8"?>
<!-- Generator: Adobe Illustrator 15.1.0, SVG Export Plug-In . SVG Version: 6.00 Build 0)  -->
<!DOCTYPE svg PUBLIC "-//W3C//DTD SVG 1.0//EN" "http://www.w3.org/TR/2001/REC-SVG-20010904/DTD/svg10.dtd">
<svg version="1.0" id="Layer_2" xmlns="http://www.w3.org/2000/svg" xmlns:xlink="http://www.w3.org/1999/xlink" x="0px" y="0px"
	 width="283.46px" height="283.46px" viewBox="0 0 283.46 283.46" enable-background="new 0 0 283.46 283.46" xml:space="preserve">
<g>
	<path d="M261.764,132.085c-0.093-0.967-0.229-1.92-0.409-2.855c-0.18-0.937-0.402-1.858-0.666-2.761
		c-0.266-0.903-0.568-1.788-0.913-2.652c-0.344-0.864-0.725-1.709-1.144-2.531c-0.42-0.821-0.875-1.621-1.364-2.397
		c-0.49-0.775-1.017-1.526-1.573-2.252c-0.557-0.725-1.146-1.423-1.77-2.093c-0.62-0.669-1.271-1.311-1.95-1.921
		c-0.681-0.61-1.39-1.189-2.123-1.736c-0.733-0.547-1.496-1.061-2.282-1.54c-0.785-0.479-1.595-0.923-2.428-1.33
		c-0.832-0.406-1.688-0.776-2.563-1.106c-0.875-0.331-1.771-0.622-2.684-0.872s-1.846-0.459-2.792-0.625
		c-0.948-0.165-1.913-0.287-2.892-0.363v-4.985V95.08v-4.984V85.11v-4.984V75.14v-4.984V65.17l-0.145-4.984l-0.145-4.985v-4.984
		v-4.984l-0.144-3.536v-0.005l-0.051-1.243l-0.192-4.784l-0.524-5.186l-0.527-5.186h-0.06L231.51,14.19
		c0-3.917-3.203-7.105-7.138-7.105c-3.936,0-7.139,3.188-7.139,7.105v1.745c-0.068,0.153-0.113,0.318-0.133,0.494
		c-0.891,8.739-6.982,17.914-10.264,25.176c-0.664,1.207-1.342,2.402-2.049,3.58c-1.252,2.083-2.569,4.121-3.951,6.112
		c-1.385,1.99-2.832,3.932-4.34,5.822c-1.51,1.89-3.08,3.729-4.711,5.515c-1.629,1.785-3.317,3.516-5.063,5.189
		c-1.745,1.673-3.545,3.29-5.398,4.846c-1.854,1.556-3.763,3.051-5.72,4.482c-1.957,1.433-3.966,2.801-6.021,4.104
		c-2.056,1.302-4.157,2.538-6.305,3.704c-2.146,1.166-4.338,2.264-6.57,3.288c-2.233,1.024-4.51,1.977-6.821,2.854
		c-2.313,0.877-4.666,1.678-7.056,2.401c-2.388,0.723-4.812,1.366-7.269,1.93c-0.601,0.138-1.209,0.255-1.813,0.382v6.416v64v8.703
		c0.721,0.152,1.444,0.297,2.159,0.463c2.479,0.577,4.924,1.236,7.333,1.977c2.408,0.738,4.78,1.56,7.111,2.454
		c2.332,0.896,4.624,1.87,6.874,2.916c2.25,1.048,4.457,2.169,6.617,3.359c2.162,1.19,4.278,2.453,6.345,3.782
		c2.067,1.328,4.085,2.727,6.053,4.188c1.967,1.461,3.881,2.986,5.741,4.573c1.861,1.586,3.667,3.233,5.414,4.94
		c1.748,1.705,3.44,3.47,5.069,5.289c1.63,1.816,3.199,3.691,4.706,5.617s2.95,3.903,4.325,5.93
		c1.377,2.025,4.158,4.855,5.397,6.976c1.239,2.121,2.568,3.573,3.667,5.782c1.1,2.207,3.355,5.478,4.152,7.156
		c0.939,2.265,2.521,4.131,3.324,6.463c0.01,0.023,0.018,0.05,0.025,0.074c0.846,2.444,1.491,4.916,1.746,7.416
		c0.02,0.174,0.064,0.338,0.133,0.492v1.039c0,3.92,3.203,7.107,7.139,7.107c3.935,0,7.138-3.188,7.138-7.107v-8.947v-5.117v-5.119
		v-5.117v-1.08v-4.038v-5.117v-5.118v-5.117v-5.117v-5.117v-5.117v-5.117v-5.117v-5.119v-5.117v-5.118v-5.117
		c0.978-0.077,1.942-0.198,2.892-0.362c0.946-0.166,1.879-0.375,2.791-0.625c0.913-0.248,1.809-0.541,2.684-0.871
		s1.729-0.699,2.563-1.106s1.643-0.851,2.428-1.329c0.787-0.479,1.549-0.992,2.282-1.539c0.734-0.547,1.442-1.126,2.123-1.736
		c0.681-0.609,1.33-1.252,1.951-1.922s1.212-1.367,1.769-2.092c0.558-0.725,1.084-1.477,1.573-2.252s0.944-1.576,1.364-2.398
		c0.419-0.821,0.8-1.666,1.145-2.53c0.344-0.864,0.647-1.75,0.912-2.652c0.264-0.903,0.486-1.823,0.666-2.761
		c0.18-0.936,0.317-1.889,0.409-2.855c0.091-0.967,0.14-1.946,0.14-2.939C261.903,134.032,261.855,133.051,261.764,132.085z"/>
	<path d="M128.097,96.872c-0.089-0.115-0.178-0.226-0.269-0.33c-0.089-0.104-0.179-0.204-0.269-0.298
		c-0.09-0.095-0.18-0.184-0.271-0.269c-0.09-0.084-0.18-0.163-0.269-0.238c-0.09-0.075-0.179-0.145-0.269-0.211
		s-0.178-0.128-0.267-0.185c-0.088-0.058-0.176-0.111-0.264-0.161c-0.087-0.049-0.174-0.095-0.26-0.137s-0.172-0.08-0.256-0.115
		c-0.084-0.034-0.168-0.066-0.251-0.095s-0.165-0.055-0.246-0.077s-0.161-0.042-0.239-0.059c-0.079-0.018-0.156-0.032-0.232-0.044
		c-0.076-0.013-0.151-0.022-0.224-0.029c-0.073-0.008-0.145-0.013-0.215-0.017c-0.07-0.004-0.139-0.005-0.206-0.005h-5.961h-5.961
		h-5.961h-5.961h-5.962h-5.961h-5.961H76.4h-5.961h-5.961H58.52h-5.961h-5.961h-5.961h-5.961h-5.961
		c-0.255,0-0.506,0.023-0.752,0.07c-0.247,0.046-0.489,0.115-0.726,0.207c-0.238,0.091-0.469,0.204-0.696,0.338
		c-0.227,0.134-0.448,0.288-0.664,0.463c-0.216,0.174-0.425,0.368-0.628,0.581c-0.204,0.213-0.4,0.444-0.59,0.694
		c-0.19,0.249-0.373,0.517-0.548,0.801c-0.175,0.284-0.343,0.585-0.502,0.901c-0.16,0.316-0.312,0.649-0.455,0.997
		c-0.144,0.347-0.278,0.709-0.405,1.084c-0.126,0.376-0.243,0.766-0.351,1.168c-0.107,0.401-0.206,0.816-0.293,1.243
		c-0.088,0.428-0.166,0.866-0.233,1.315c-0.068,0.449-0.125,0.909-0.17,1.379c-0.046,0.47-0.082,0.949-0.104,1.438
		c-0.024,0.489-0.036,0.986-0.036,1.491v3.351v3.352v3.351v3.351v3.352v3.351v3.351v3.352v3.35v3.352v3.351v3.352v3.353v3.351v3.351
		v3.352c0,0.505,0.012,1.002,0.036,1.488c0.023,0.488,0.059,0.97,0.104,1.438c0.045,0.47,0.103,0.931,0.17,1.379
		c0.067,0.449,0.146,0.888,0.233,1.315c0.087,0.427,0.187,0.842,0.293,1.244c0.108,0.402,0.225,0.791,0.351,1.166
		c0.126,0.377,0.261,0.738,0.405,1.086c0.144,0.347,0.295,0.68,0.455,0.996c0.16,0.316,0.328,0.617,0.502,0.902
		c0.176,0.282,0.358,0.551,0.548,0.799c0.19,0.25,0.386,0.481,0.59,0.694c0.203,0.213,0.412,0.407,0.628,0.581
		c0.216,0.176,0.437,0.329,0.664,0.462c0.227,0.136,0.458,0.248,0.696,0.339c0.237,0.092,0.479,0.16,0.726,0.207
		s0.497,0.07,0.752,0.07h1.248h1.249h1.249h1.249h1.249h1.248h1.248h1.249h1.249h1.248h1.248h1.249h1.249h1.248h1.248h1.249v0.064
		v0.066v0.064v0.064v0.065v0.065v0.064v0.064v0.064v0.064v0.065v0.065v0.064v0.064v0.066v0.064
		c-0.534,0.751-1.053,1.509-1.556,2.273c-0.502,0.766-0.99,1.539-1.461,2.319c-0.471,0.781-0.926,1.57-1.365,2.365
		s-0.862,1.599-1.268,2.407c-0.406,0.808-0.797,1.625-1.171,2.447s-0.731,1.65-1.073,2.485c-0.341,0.834-0.666,1.675-0.974,2.521
		c-0.308,0.847-0.6,1.699-0.875,2.556c-0.275,0.856-0.533,1.719-0.774,2.587c-0.241,0.866-0.466,1.739-0.674,2.616
		s-0.398,1.758-0.572,2.644c-0.174,0.885-0.33,1.774-0.469,2.668c-0.139,0.895-0.261,1.791-0.367,2.69
		c-0.104,0.901-0.192,1.805-0.262,2.711c-0.07,0.907-0.123,1.817-0.158,2.729c-0.036,0.912-0.053,1.828-0.053,2.746
		s0.018,1.832,0.053,2.745c0.035,0.913,0.088,1.822,0.158,2.729c0.07,0.906,0.157,1.811,0.262,2.711
		c0.105,0.898,0.228,1.797,0.367,2.689c0.139,0.891,0.295,1.782,0.469,2.668c0.174,0.885,0.364,1.766,0.572,2.641
		c0.208,0.878,0.433,1.75,0.674,2.617c0.241,0.867,0.5,1.729,0.774,2.586c0.274,0.856,0.566,1.707,0.875,2.555
		c0.308,0.846,0.633,1.688,0.974,2.521c0.341,0.834,0.699,1.662,1.073,2.484s0.765,1.639,1.171,2.447
		c0.406,0.809,0.829,1.611,1.268,2.406s0.894,1.584,1.365,2.365c0.471,0.781,0.958,1.555,1.461,2.32
		c0.503,0.766,1.022,1.523,1.556,2.273v0.979v0.979v0.979v0.979v0.979v0.979v0.978v0.979v0.979v0.979v0.979v0.979v0.979v0.979v0.979
		v0.979c0,0.056,0.003,0.109,0.008,0.162c0.005,0.055,0.014,0.106,0.024,0.158c0.011,0.053,0.024,0.104,0.04,0.152
		c0.015,0.05,0.034,0.099,0.054,0.146c0.02,0.048,0.042,0.095,0.067,0.14c0.025,0.045,0.051,0.088,0.08,0.131
		c0.028,0.043,0.059,0.083,0.092,0.121c0.032,0.039,0.066,0.078,0.103,0.113c0.036,0.037,0.073,0.07,0.113,0.104
		c0.039,0.031,0.08,0.063,0.123,0.092c0.042,0.029,0.086,0.057,0.131,0.079c0.044,0.024,0.091,0.048,0.139,0.067
		s0.097,0.037,0.146,0.054c0.05,0.016,0.101,0.028,0.153,0.039c0.052,0.011,0.104,0.019,0.158,0.024
		c0.054,0.004,0.108,0.008,0.163,0.008h4.417h4.417h4.417h4.417h4.417h4.417h4.417h4.417h4.417h4.416h4.417h4.417h4.417h4.417h4.417
		h4.417c0,0,0,0,0.001,0s0.001,0,0.001,0s0,0,0.001,0s0.001,0,0.001,0s0,0,0.001,0h0.001h0.001c0,0,0,0,0.001,0s0,0,0.001,0
		s0.001,0,0.001,0s0.001,0,0.002,0h0.001h0.001h0.001c0,0,0,0,0.001,0s0.001,0,0.001,0c0.055,0,0.109-0.004,0.163-0.008
		c0.053-0.007,0.106-0.015,0.158-0.024c0.052-0.011,0.103-0.023,0.152-0.039c0.05-0.017,0.099-0.034,0.146-0.054
		c0.048-0.021,0.094-0.043,0.14-0.067c0.045-0.022,0.088-0.05,0.131-0.079c0.042-0.027,0.083-0.061,0.123-0.092
		c0.04-0.032,0.077-0.066,0.113-0.104s0.07-0.074,0.103-0.113c0.032-0.038,0.063-0.078,0.091-0.121
		c0.028-0.042,0.055-0.086,0.08-0.131s0.047-0.092,0.067-0.14s0.038-0.097,0.053-0.146c0.015-0.049,0.029-0.102,0.04-0.152
		c0.01-0.052,0.019-0.104,0.023-0.158c0.005-0.053,0.008-0.106,0.008-0.162c0-0.041-0.001-0.082-0.004-0.123
		s-0.008-0.08-0.014-0.119c-0.006-0.041-0.013-0.08-0.022-0.117c-0.009-0.04-0.02-0.077-0.031-0.115
		c-0.011-0.038-0.025-0.074-0.04-0.109c-0.014-0.037-0.03-0.074-0.046-0.107c-0.017-0.034-0.035-0.069-0.054-0.104
		c-0.02-0.033-0.04-0.064-0.062-0.097c-0.021-0.032-0.044-0.063-0.068-0.094c-0.023-0.029-0.048-0.06-0.074-0.087
		c-0.026-0.028-0.053-0.057-0.081-0.083c-0.028-0.025-0.056-0.052-0.086-0.075c-0.03-0.023-0.06-0.048-0.091-0.068
		c-0.032-0.021-0.064-0.045-0.097-0.063c-0.033-0.021-0.066-0.038-0.101-0.056c-0.034-0.019-0.069-0.035-0.106-0.05l-0.919-0.514
		l-0.919-0.515l-0.918-0.515l-0.919-0.514l-0.919-0.515l-0.919-0.516l-0.919-0.514l-0.919-0.516l-0.919-0.515l-0.919-0.515
		l-0.919-0.514l-0.919-0.516l-0.919-0.514l-0.919-0.516l-0.919-0.515l-0.919-0.513c-1.154-0.646-2.281-1.328-3.38-2.045
		c-1.099-0.716-2.168-1.466-3.209-2.246c-1.041-0.783-2.052-1.598-3.033-2.44s-1.93-1.72-2.849-2.621
		c-0.918-0.903-1.805-1.834-2.659-2.793c-0.854-0.958-1.674-1.942-2.461-2.951c-0.787-1.008-1.541-2.042-2.258-3.099
		c-0.718-1.057-1.401-2.137-2.048-3.235c-0.647-1.1-1.258-2.221-1.833-3.36c-0.574-1.142-1.11-2.301-1.609-3.478
		c-0.499-1.176-0.958-2.37-1.379-3.579c-0.421-1.21-0.803-2.436-1.144-3.672c-0.341-1.236-0.642-2.488-0.901-3.752
		c-0.259-1.266-0.477-2.539-0.652-3.823c-0.175-1.284-0.308-2.579-0.396-3.882c-0.089-1.303-0.134-2.611-0.134-3.93
		c0-0.807,0.017-1.608,0.049-2.41c0.033-0.801,0.081-1.6,0.146-2.393c0.065-0.795,0.146-1.588,0.243-2.377
		c0.097-0.787,0.21-1.572,0.339-2.353c0.129-0.781,0.273-1.56,0.434-2.332c0.161-0.772,0.337-1.543,0.529-2.308
		c0.191-0.766,0.399-1.525,0.622-2.28c0.224-0.756,0.462-1.507,0.716-2.252s0.523-1.486,0.808-2.222
		c0.285-0.735,0.585-1.465,0.901-2.189c0.315-0.725,0.646-1.443,0.992-2.155c0.346-0.712,0.707-1.419,1.082-2.118
		c0.376-0.699,0.767-1.394,1.173-2.08c0.405-0.688,0.826-1.367,1.262-2.041c0.435-0.674,0.885-1.34,1.35-2
		c0.465-0.658,0.944-1.312,1.438-1.955l0.065-0.084l0.065-0.084l0.065-0.084l0.064-0.086l0.065-0.084l0.064-0.086l0.065-0.084
		l0.064-0.084l0.065-0.084l0.065-0.084l0.064-0.086L89.8,177.7l0.064-0.085l0.065-0.084l0.064-0.084l0.065-0.085
		c0.011-0.015,0.022-0.028,0.033-0.044c0.011-0.016,0.021-0.031,0.031-0.047s0.021-0.031,0.03-0.047
		c0.01-0.016,0.02-0.032,0.028-0.047c0.009-0.017,0.018-0.032,0.026-0.049c0.008-0.018,0.017-0.033,0.024-0.051
		c0.007-0.017,0.016-0.033,0.023-0.05c0.007-0.017,0.014-0.033,0.021-0.051c0.007-0.019,0.014-0.034,0.019-0.052
		c0.006-0.019,0.012-0.034,0.018-0.053c0.006-0.018,0.011-0.035,0.016-0.053c0.005-0.02,0.01-0.036,0.014-0.054
		c0.004-0.019,0.008-0.035,0.012-0.054s0.007-0.035,0.01-0.056c0.003-0.019,0.006-0.036,0.008-0.055
		c0.003-0.019,0.005-0.036,0.007-0.056h2.107h2.108h2.108h2.108h2.108h2.108h2.108h2.108h2.108h2.108h2.108h2.107h2.107h2.108h2.108
		h2.108c0.1,0,0.198-0.004,0.296-0.01c0.098-0.009,0.197-0.02,0.294-0.033c0.097-0.015,0.195-0.03,0.291-0.054
		c0.096-0.021,0.192-0.046,0.288-0.073c0.096-0.028,0.19-0.061,0.284-0.096c0.094-0.035,0.188-0.074,0.281-0.115
		c0.093-0.043,0.186-0.089,0.277-0.138c0.091-0.049,0.182-0.101,0.272-0.155c0.089-0.057,0.179-0.115,0.268-0.177
		c0.088-0.063,0.176-0.129,0.262-0.196c0.087-0.068,0.173-0.142,0.258-0.216c0.085-0.075,0.169-0.153,0.252-0.235
		s0.166-0.166,0.247-0.254c0.081-0.088,0.161-0.179,0.24-0.272c0.079-0.095,0.157-0.19,0.234-0.292
		c0.077-0.102,0.152-0.204,0.228-0.311c0.126,0.021,0.25,0.047,0.377,0.067V156.23v-54v-5.473
		C128.533,96.793,128.317,96.837,128.097,96.872z M50.73,161.764h-5v-51.336h5V161.764z M62.068,161.764h-5v-51.336h5V161.764z
		 M73.407,161.764h-5v-51.336h5V161.764z"/>
</g>
</svg>
