<?xml version="1.0" encoding="utf-8"?>
<!-- Generator: Adobe Illustrator 15.1.0, SVG Export Plug-In . SVG Version: 6.00 Build 0)  -->
<!DOCTYPE svg PUBLIC "-//W3C//DTD SVG 1.1//EN" "http://www.w3.org/Graphics/SVG/1.1/DTD/svg11.dtd">
<svg version="1.1" id="Layer_1" xmlns="http://www.w3.org/2000/svg" xmlns:xlink="http://www.w3.org/1999/xlink" x="0px" y="0px"
	 width="283.46px" height="283.46px" viewBox="0 0 283.46 283.46" enable-background="new 0 0 283.46 283.46" xml:space="preserve">
<g id="Layer_3">
</g>
<g id="Layer_2">
	<g>
		<path d="M183.667,59.748c-9.178-11.353-23.513-17.03-43.001-17.03c-15.707,0-28.148,4.117-37.325,12.348
			c-9.178,8.23-13.766,17.693-13.766,28.383c0,7.002,1.632,12.467,4.895,16.391c3.265,3.928,6.883,5.89,10.858,5.89
			c3.122,0,5.771-1.157,7.948-3.478c2.174-2.317,3.264-5.18,3.264-8.586c0-2.649-1.419-6.528-4.258-11.637
			c-2.838-5.109-4.258-9.413-4.258-12.915c0-4.542,2.365-8.75,7.096-12.63c4.729-3.878,11.211-5.819,19.442-5.819
			c9.271,0,17.102,3.547,23.487,10.644c6.388,7.096,9.579,16.653,9.579,28.668c0,5.867-0.852,11.661-2.555,17.385
			s-5.393,13.932-11.069,24.622c-7.286,13.908-12.088,24.765-14.406,32.569c-2.318,7.807-3.809,17.669-4.47,29.59h0.002
			l-0.017,2.211c0,1.235,1.302,2.235,2.905,2.235c1.605,0,2.905-1,2.905-2.235l0.023-2.211c0.661-11.353,2.531-20.27,5.608-26.752
			c3.071-6.479,11.47-17.479,25.188-32.995c8.608-9.839,14.451-18.401,17.526-25.688c3.073-7.284,4.612-14.38,4.612-21.287
			C193.884,77.299,190.478,68.075,183.667,59.748z"/>
		<circle cx="139.033" cy="227.566" r="13.178"/>
	</g>
</g>
</svg>
