<?xml version="1.0" encoding="utf-8"?>
<!-- Generator: Adobe Illustrator 15.1.0, SVG Export Plug-In . SVG Version: 6.00 Build 0)  -->
<!DOCTYPE svg PUBLIC "-//W3C//DTD SVG 1.1//EN" "http://www.w3.org/Graphics/SVG/1.1/DTD/svg11.dtd">
<svg version="1.1" id="Layer_6" xmlns="http://www.w3.org/2000/svg" xmlns:xlink="http://www.w3.org/1999/xlink" x="0px" y="0px"
	 width="283.46px" height="283.46px" viewBox="0 0 283.46 283.46" enable-background="new 0 0 283.46 283.46" xml:space="preserve">
<g>
	<circle cx="141.701" cy="258.691" r="17.684"/>
	<path d="M168.125,36.18c0-7.152-1.77-13.215-5.262-18.083c-0.723-1.076-1.496-2.101-2.367-3.019
		c-5.039-5.305-11.287-7.994-18.571-7.994c-0.065,0-0.129,0.004-0.194,0.005c-0.065-0.001-0.129-0.005-0.194-0.005
		c-7.283,0-13.532,2.689-18.571,7.994c-0.872,0.918-1.644,1.942-2.366,3.018c-3.493,4.868-5.264,10.931-5.264,18.084
		c0,0.164,0.006,0.354,0.008,0.525c0.001,0.013-0.003,0.024-0.002,0.037l0.003,0.025c0.007,0.555,0.024,1.15,0.051,1.786
		c0,0.018-0.001,0.034-0.001,0.051c0,3.265,0.295,7.727,0.906,13.661l15.301,124.018l4.456,38.239
		c0.013,0.116,0.056,0.219,0.108,0.316c0.223,2.851,2.614,5.095,5.536,5.095c0.01,0,0.02-0.003,0.03-0.003s0.02,0.003,0.03,0.003
		c2.921,0,5.312-2.244,5.536-5.095c0.051-0.098,0.094-0.2,0.107-0.316l4.455-38.239L167.16,52.266
		c0.611-5.935,0.906-10.396,0.906-13.661c0-0.017,0-0.033,0-0.051c0.027-0.636,0.043-1.231,0.051-1.786l0.002-0.025
		c0.002-0.013-0.002-0.024-0.002-0.037C168.119,36.534,168.125,36.344,168.125,36.18z"/>
</g>
</svg>
