<?xml version="1.0" encoding="utf-8"?>
<!-- Generator: Adobe Illustrator 15.1.0, SVG Export Plug-In . SVG Version: 6.00 Build 0)  -->
<!DOCTYPE svg PUBLIC "-//W3C//DTD SVG 1.0//EN" "http://www.w3.org/TR/2001/REC-SVG-20010904/DTD/svg10.dtd">
<svg version="1.0" id="Layer_4" xmlns="http://www.w3.org/2000/svg" xmlns:xlink="http://www.w3.org/1999/xlink" x="0px" y="0px"
	 width="283.46px" height="283.46px" viewBox="0 0 283.46 283.46" enable-background="new 0 0 283.46 283.46" xml:space="preserve">
<g>
	<path fill="none" d="M131.846,118.892v46.338c3.352,0.554,6.66,1.251,9.917,2.086c31.488,8.068,58.225,28.991,73.732,57.904V58.903
		C198.384,90.807,167.601,112.981,131.846,118.892z"/>
	<path d="M228.96,113.455V12.287c0-3.695-3.021-6.702-6.732-6.702s-6.732,3.007-6.732,6.702v1.646
		c-0.065,0.144-0.108,0.3-0.125,0.466c-4.751,46.632-40.256,84.065-86.495,91.344c-1.346-1.744-2.768-2.14-3.778-2.14H35.134
		c-3.848,0-6.749,5.746-6.749,13.366v50.567c0,7.619,2.901,13.365,6.749,13.365h18.84v0.986
		c-8.067,11.316-12.329,24.603-12.329,38.453c0,13.846,4.262,27.129,12.329,38.445v14.764c0,0.828,0.672,1.5,1.5,1.5h66.654
		c0.006,0,0.013,0,0.02,0c0.829,0,1.5-0.672,1.5-1.5c0-0.625-0.382-1.16-0.924-1.386l-13.87-7.759
		c-17.42-9.749-28.242-28.146-28.242-48.014c0-12.162,3.94-23.728,11.396-33.449l0.977-1.275c0.171-0.224,0.275-0.489,0.302-0.766
		h31.811c1.497,0,2.901-0.871,4.029-2.478c46.106,7.377,81.506,44.785,86.244,91.302c0.017,0.165,0.06,0.321,0.125,0.466v0.979
		c0,3.697,3.021,6.705,6.732,6.705s6.732-3.008,6.732-6.705V169.998c14.758-1.15,26.115-13.3,26.115-28.271
		C255.076,126.759,243.718,114.608,228.96,113.455z M215.496,225.22c-15.508-28.913-42.244-49.836-73.732-57.904
		c-3.257-0.835-6.565-1.532-9.917-2.086v-46.338c35.755-5.911,66.538-28.085,83.649-59.989V225.22z"/>
</g>
</svg>
