<?xml version="1.0" encoding="utf-8"?>
<!-- Generator: Adobe Illustrator 15.1.0, SVG Export Plug-In . SVG Version: 6.00 Build 0)  -->
<!DOCTYPE svg PUBLIC "-//W3C//DTD SVG 1.1//EN" "http://www.w3.org/Graphics/SVG/1.1/DTD/svg11.dtd">
<svg version="1.1" id="Layer_6" xmlns="http://www.w3.org/2000/svg" xmlns:xlink="http://www.w3.org/1999/xlink" x="0px" y="0px"
	 width="283.46px" height="283.46px" viewBox="0 0 283.46 283.46" enable-background="new 0 0 283.46 283.46" xml:space="preserve">
<g>
	<circle cx="141.709" cy="227.738" r="13.003"/>
	<path d="M161.139,64.113c0-5.26-1.301-9.718-3.869-13.298c-0.531-0.791-1.1-1.545-1.74-2.22c-3.706-3.901-8.301-5.879-13.656-5.879
		c-0.048,0-0.095,0.003-0.143,0.004c-0.048-0.001-0.095-0.004-0.143-0.004c-5.356,0-9.951,1.978-13.657,5.879
		c-0.641,0.675-1.209,1.428-1.74,2.219c-2.569,3.58-3.871,8.038-3.871,13.298c0,0.121,0.004,0.26,0.006,0.386
		c0,0.01-0.002,0.018-0.002,0.027l0.002,0.019c0.005,0.408,0.018,0.845,0.038,1.313c0,0.013-0.001,0.024-0.001,0.037
		c0,2.401,0.217,5.682,0.666,10.046l11.252,91.197l3.277,28.12c0.009,0.085,0.041,0.161,0.08,0.231
		c0.164,2.098,1.922,3.747,4.071,3.747c0.007,0,0.015-0.002,0.022-0.002c0.008,0,0.015,0.002,0.022,0.002
		c2.148,0,3.906-1.649,4.071-3.747c0.037-0.071,0.069-0.146,0.078-0.231l3.276-28.12l11.251-91.197
		c0.449-4.364,0.666-7.645,0.666-10.045c0-0.013,0-0.024,0-0.038c0.021-0.468,0.032-0.906,0.038-1.313l0.001-0.018
		c0.001-0.01-0.001-0.018-0.001-0.027C161.135,64.373,161.139,64.233,161.139,64.113z"/>
</g>
</svg>
