<?xml version="1.0" encoding="utf-8"?>
<!-- Generator: Adobe Illustrator 15.1.0, SVG Export Plug-In . SVG Version: 6.00 Build 0)  -->
<!DOCTYPE svg PUBLIC "-//W3C//DTD SVG 1.1//EN" "http://www.w3.org/Graphics/SVG/1.1/DTD/svg11.dtd">
<svg version="1.1" id="Layer_1" xmlns="http://www.w3.org/2000/svg" xmlns:xlink="http://www.w3.org/1999/xlink" x="0px" y="0px"
	 width="283.46px" height="283.46px" viewBox="0 0 283.46 283.46" enable-background="new 0 0 283.46 283.46" xml:space="preserve">
<path d="M141.73,19.084c32.76,0,63.559,12.757,86.725,35.922c23.164,23.165,35.922,53.964,35.922,86.724
	s-12.758,63.561-35.922,86.725c-23.166,23.164-53.965,35.922-86.725,35.922s-63.56-12.758-86.724-35.922
	c-23.165-23.164-35.922-53.965-35.922-86.725s12.757-63.56,35.922-86.724C78.171,31.841,108.97,19.084,141.73,19.084 M141.73,7.084
	C67.367,7.084,7.084,67.367,7.084,141.729c0,74.362,60.283,134.646,134.646,134.646c74.361,0,134.646-60.283,134.646-134.646
	C276.376,67.367,216.093,7.084,141.73,7.084L141.73,7.084z"/>
</svg>
