<?xml version="1.0" encoding="utf-8"?>
<!-- Generator: Adobe Illustrator 15.1.0, SVG Export Plug-In . SVG Version: 6.00 Build 0)  -->
<!DOCTYPE svg PUBLIC "-//W3C//DTD SVG 1.1//EN" "http://www.w3.org/Graphics/SVG/1.1/DTD/svg11.dtd">
<svg version="1.1" id="Layer_1" xmlns="http://www.w3.org/2000/svg" xmlns:xlink="http://www.w3.org/1999/xlink" x="0px" y="0px"
	 width="283.46px" height="283.46px" viewBox="0 0 283.46 283.46" enable-background="new 0 0 283.46 283.46" xml:space="preserve">
<path d="M270.631,135.986H155.598l81.341-81.341c2.243-2.243,2.243-5.88,0-8.123c-2.242-2.243-5.881-2.243-8.123,0l-81.342,81.342
	V12.829c0-3.172-2.572-5.744-5.744-5.744s-5.744,2.572-5.744,5.744v115.035L54.645,46.522c-2.242-2.243-5.88-2.243-8.123,0
	s-2.243,5.88,0,8.123l81.341,81.341H12.829c-3.172,0-5.744,2.572-5.744,5.744c0,3.171,2.572,5.744,5.744,5.744h115.035
	l-81.342,81.343c-2.243,2.242-2.243,5.879,0,8.123c1.121,1.121,2.592,1.682,4.062,1.682c1.471,0,2.94-0.561,4.062-1.682
	l81.341-81.342v115.033c0,3.174,2.572,5.744,5.744,5.744s5.744-2.57,5.744-5.744V155.598l81.317,81.318
	c1.121,1.121,2.592,1.682,4.062,1.682s2.94-0.561,4.062-1.682c2.243-2.244,2.243-5.881,0-8.123l-81.318-81.319h115.035
	c3.173,0,5.744-2.572,5.744-5.744C276.375,138.559,273.804,135.986,270.631,135.986z"/>
</svg>
