<?xml version="1.0" encoding="utf-8"?>
<!-- Generator: Adobe Illustrator 15.1.0, SVG Export Plug-In . SVG Version: 6.00 Build 0)  -->
<!DOCTYPE svg PUBLIC "-//W3C//DTD SVG 1.1//EN" "http://www.w3.org/Graphics/SVG/1.1/DTD/svg11.dtd">
<svg version="1.1" id="Layer_1" xmlns="http://www.w3.org/2000/svg" xmlns:xlink="http://www.w3.org/1999/xlink" x="0px" y="0px"
	 width="283.46px" height="283.46px" viewBox="0 0 283.46 283.46" enable-background="new 0 0 283.46 283.46" xml:space="preserve">
<g>
	<path fill="none" d="M235.686,68.093c-19.671-19.67-45.822-30.502-73.64-30.502c-27.816,0-53.967,10.832-73.637,30.502
		c-18.464,18.463-29.14,42.64-30.379,68.543h86.937l-11.302-31.242c16.69,14.553,43.616,28.292,65.318,36.337
		c-21.702,8.054-48.628,21.791-65.318,36.345l11.302-31.25H58.03c1.239,25.903,11.915,50.08,30.379,68.545
		c19.669,19.668,45.821,30.5,73.637,30.5c27.817,0,53.969-10.832,73.64-30.5c19.669-19.67,30.501-45.822,30.501-73.64
		C266.187,113.914,255.355,87.762,235.686,68.093z"/>
	<path d="M162.046,27.402c-61.435,0-111.544,48.458-114.21,109.234H12.179c-2.813,0-5.095,2.281-5.095,5.095
		c0,2.813,2.281,5.095,5.095,5.095h35.657c2.667,60.775,52.776,109.232,114.21,109.232c63.141,0,114.328-51.188,114.328-114.328
		C276.375,78.589,225.189,27.402,162.046,27.402z M235.686,215.371c-19.671,19.668-45.822,30.5-73.64,30.5
		c-27.816,0-53.968-10.832-73.637-30.5c-18.464-18.465-29.14-42.642-30.379-68.545h86.937l-11.302,31.25
		c16.69-14.554,43.616-28.291,65.318-36.345c-21.702-8.045-48.628-21.784-65.318-36.337l11.302,31.242H58.03
		c1.239-25.903,11.915-50.08,30.379-68.543c19.67-19.67,45.821-30.502,73.637-30.502c27.817,0,53.969,10.832,73.64,30.502
		c19.669,19.669,30.501,45.821,30.501,73.638C266.187,169.548,255.355,195.701,235.686,215.371z"/>
</g>
</svg>
