<?xml version="1.0" encoding="utf-8"?>
<!-- Generator: Adobe Illustrator 15.1.0, SVG Export Plug-In . SVG Version: 6.00 Build 0)  -->
<!DOCTYPE svg PUBLIC "-//W3C//DTD SVG 1.0//EN" "http://www.w3.org/TR/2001/REC-SVG-20010904/DTD/svg10.dtd">
<svg version="1.0" id="Layer_3" xmlns="http://www.w3.org/2000/svg" xmlns:xlink="http://www.w3.org/1999/xlink" x="0px" y="0px"
	 width="283.465px" height="283.465px" viewBox="0 0 283.465 283.465" enable-background="new 0 0 283.465 283.465"
	 xml:space="preserve">
<g>
	<polygon fill="none" points="189.616,65.001 234.841,65.001 189.541,21.76 	"/>
	<path fill="none" d="M191.549,19.655c-0.552-0.526-1.273-0.804-2.009-0.804c-0.387,0-0.776,0.077-1.146,0.235
		c-1.07,0.459-1.764,1.513-1.762,2.678v0.001c-0.002-1.165,0.691-2.219,1.762-2.678c0.369-0.158,0.761-0.235,1.146-0.235
		c0.735,0,1.457,0.278,2.009,0.805l45.299,43.242c0.538,0.513,0.847,1.198,0.894,1.909c-0.047-0.711-0.355-1.397-0.894-1.911
		L191.549,19.655z"/>
	<path d="M244.927,60.783l-51.06-51.059c-1.694-1.687-3.983-2.637-6.371-2.637H44.911c-4.973,0-9.002,4.034-9.002,9.005v251.285
		c0,4.97,4.029,9.001,9.002,9.001h193.645c4.973,0,9.001-4.031,9.001-9.001V67.146C247.557,64.76,246.607,62.47,244.927,60.783z
		 M189.616,65.001l-0.075-43.241l45.3,43.241H189.616z M76.083,54.995h85.411c3.218,0,5.846,2.621,5.846,5.841
		s-2.628,5.84-5.846,5.84H76.085c-3.224,0-5.843-2.62-5.842-5.84C70.243,57.615,72.861,54.995,76.083,54.995z M207.38,189.39
		h-98.333c-3.225,0-5.84-2.614-5.84-5.834c0-3.224,2.616-5.839,5.84-5.839h98.333c3.223,0,5.839,2.617,5.837,5.839
		C213.217,186.777,210.603,189.39,207.38,189.39z M213.217,226.441c0,3.222-2.614,5.844-5.836,5.844h-98.333
		c-3.225,0-5.84-2.62-5.84-5.844s2.616-5.836,5.84-5.836h98.333C210.603,220.605,213.219,223.218,213.217,226.441z M207.38,146.754
		h-98.333c-3.225,0-5.84-2.615-5.84-5.837c0-3.223,2.616-5.84,5.84-5.84h98.333c3.223,0,5.839,2.618,5.837,5.84
		C213.217,144.139,210.603,146.754,207.38,146.754z M81.872,214.815c6.419,0,11.629,5.208,11.629,11.623
		c0,6.425-5.211,11.636-11.629,11.636s-11.628-5.211-11.628-11.636C70.244,220.023,75.454,214.815,81.872,214.815z M70.25,183.557
		c0-6.419,5.203-11.624,11.623-11.624s11.624,5.205,11.624,11.624s-5.204,11.623-11.624,11.623S70.25,189.976,70.25,183.557z
		 M81.872,152.541c-6.417,0-11.628-5.21-11.628-11.624c0-6.418,5.209-11.628,11.628-11.628c6.419,0,11.629,5.209,11.629,11.628
		C93.501,147.331,88.29,152.541,81.872,152.541z M81.872,109.702c-6.417,0-11.628-5.212-11.628-11.628
		c0-6.419,5.209-11.628,11.628-11.628c6.419,0,11.629,5.208,11.629,11.628C93.501,104.489,88.29,109.702,81.872,109.702z
		 M207.38,103.91h-98.333c-3.225,0-5.84-2.616-5.84-5.836s2.616-5.841,5.84-5.84h98.333c3.223,0,5.837,2.618,5.837,5.84
		C213.217,101.297,210.603,103.91,207.38,103.91z M237.741,64.807c-0.047-0.71-0.355-1.396-0.894-1.909l-45.299-43.242
		c-0.552-0.527-1.273-0.805-2.009-0.805c-0.385,0-0.776,0.078-1.146,0.235c-1.07,0.459-1.764,1.513-1.762,2.678v-0.001
		c-0.002-1.165,0.691-2.219,1.762-2.678c0.369-0.158,0.759-0.235,1.146-0.235c0.735,0,1.457,0.278,2.009,0.804l45.299,43.241
		C237.386,63.411,237.694,64.097,237.741,64.807z"/>
</g>
</svg>
