<?xml version="1.0" encoding="utf-8"?>
<!-- Generator: Adobe Illustrator 15.1.0, SVG Export Plug-In . SVG Version: 6.00 Build 0)  -->
<!DOCTYPE svg PUBLIC "-//W3C//DTD SVG 1.1//EN" "http://www.w3.org/Graphics/SVG/1.1/DTD/svg11.dtd">
<svg version="1.1" id="Layer_3" xmlns="http://www.w3.org/2000/svg" xmlns:xlink="http://www.w3.org/1999/xlink" x="0px" y="0px"
	 width="283.46px" height="283.46px" viewBox="0 0 283.46 283.46" enable-background="new 0 0 283.46 283.46" xml:space="preserve">
<path d="M260.656,143.909c0.034-0.086,0.067-0.172,0.098-0.259c0.035-0.096,0.066-0.192,0.096-0.289
	c0.022-0.077,0.043-0.153,0.063-0.231c0.026-0.105,0.051-0.209,0.071-0.314c0.014-0.077,0.025-0.153,0.037-0.23
	c0.016-0.104,0.03-0.209,0.04-0.314c0.009-0.083,0.013-0.167,0.017-0.25c0.005-0.097,0.009-0.193,0.009-0.289
	c0-0.096-0.004-0.192-0.009-0.289c-0.004-0.084-0.008-0.167-0.017-0.252c-0.01-0.104-0.024-0.209-0.04-0.313
	c-0.012-0.077-0.023-0.154-0.037-0.23c-0.021-0.105-0.045-0.21-0.071-0.314c-0.02-0.078-0.04-0.155-0.063-0.232
	c-0.028-0.097-0.06-0.192-0.095-0.288c-0.03-0.087-0.063-0.174-0.099-0.26c-0.034-0.082-0.068-0.162-0.105-0.242
	c-0.047-0.1-0.097-0.199-0.149-0.296c-0.021-0.038-0.037-0.078-0.059-0.116c-0.016-0.029-0.035-0.054-0.053-0.082
	c-0.06-0.103-0.124-0.202-0.191-0.301c-0.04-0.061-0.081-0.122-0.124-0.181c-0.066-0.091-0.138-0.178-0.21-0.265
	c-0.051-0.062-0.102-0.124-0.156-0.184c-0.066-0.075-0.138-0.147-0.21-0.218c-0.065-0.065-0.13-0.13-0.198-0.192
	c-0.065-0.059-0.135-0.116-0.203-0.172c-0.081-0.066-0.162-0.132-0.246-0.194c-0.063-0.047-0.13-0.092-0.196-0.137
	c-0.095-0.063-0.189-0.124-0.286-0.182c-0.03-0.018-0.058-0.039-0.087-0.055L30.955,7.833c-2.76-1.565-6.265-0.597-7.83,2.162
	c-1.565,2.759-0.598,6.265,2.162,7.83L243.704,141.73L25.286,265.634c-2.759,1.565-3.727,5.071-2.162,7.831
	c1.057,1.864,3.001,2.91,5.001,2.91c0.96,0,1.935-0.241,2.829-0.749l227.226-128.9c0.001,0,0.001-0.001,0.002-0.001
	c0.03-0.018,0.06-0.04,0.09-0.058c0.168-0.1,0.327-0.204,0.48-0.317c0.061-0.045,0.119-0.093,0.178-0.14
	c0.129-0.104,0.251-0.21,0.369-0.321c0.05-0.048,0.1-0.095,0.148-0.143c0.333-0.341,0.617-0.717,0.852-1.118
	c0.013-0.022,0.029-0.041,0.042-0.063c0.022-0.04,0.038-0.08,0.06-0.119c0.052-0.097,0.102-0.193,0.147-0.293
	C260.586,144.072,260.622,143.991,260.656,143.909z"/>
</svg>
