<?xml version="1.0" encoding="utf-8"?>
<!-- Generator: Adobe Illustrator 15.1.0, SVG Export Plug-In . SVG Version: 6.00 Build 0)  -->
<!DOCTYPE svg PUBLIC "-//W3C//DTD SVG 1.1//EN" "http://www.w3.org/Graphics/SVG/1.1/DTD/svg11.dtd">
<svg version="1.1" id="Layer_1" xmlns="http://www.w3.org/2000/svg" xmlns:xlink="http://www.w3.org/1999/xlink" x="0px" y="0px"
	 width="283.46px" height="283.46px" viewBox="0 0 283.46 283.46" enable-background="new 0 0 283.46 283.46" xml:space="preserve">
<path d="M141.73,39.562l24.179,74.411l1.796,5.528h5.813h78.237l-63.295,45.989l-4.702,3.416l1.796,5.527l24.177,74.41
	l-63.298-45.988l-4.702-3.416l-4.702,3.416L73.73,248.842l24.178-74.409l1.796-5.528l-4.703-3.416L31.706,119.5h78.238h5.813
	l1.796-5.528L141.73,39.562 M141.73,13.674L109.944,111.5H7.084L90.3,171.96l-31.787,97.826l83.217-60.46l83.217,60.46
	l-31.785-97.826l83.214-60.46H173.517L141.73,13.674L141.73,13.674z"/>
</svg>
