<?xml version="1.0" encoding="utf-8"?>
<!-- Generator: Adobe Illustrator 15.1.0, SVG Export Plug-In . SVG Version: 6.00 Build 0)  -->
<!DOCTYPE svg PUBLIC "-//W3C//DTD SVG 1.1//EN" "http://www.w3.org/Graphics/SVG/1.1/DTD/svg11.dtd">
<svg version="1.1" id="Layer_1" xmlns="http://www.w3.org/2000/svg" xmlns:xlink="http://www.w3.org/1999/xlink" x="0px" y="0px"
	 width="283.46px" height="283.46px" viewBox="0 0 283.46 283.46" enable-background="new 0 0 283.46 283.46" xml:space="preserve">
<path d="M236.519,137.506h-84.591l59.815-59.815c1.649-1.649,1.649-4.324,0-5.974c-1.649-1.649-4.325-1.649-5.974,0l-59.815,59.816
	V46.941c0-2.333-1.892-4.224-4.225-4.224c-2.332,0-4.224,1.892-4.224,4.224v84.592L77.691,71.717c-1.648-1.649-4.324-1.649-5.973,0
	c-1.649,1.65-1.649,4.324,0,5.974l59.815,59.815H46.941c-2.333,0-4.224,1.892-4.224,4.224c0,2.332,1.892,4.224,4.224,4.224h84.592
	L71.718,205.77c-1.649,1.649-1.649,4.323,0,5.974c0.824,0.824,1.906,1.237,2.987,1.237c1.082,0,2.162-0.413,2.987-1.237
	l59.815-59.815v84.59c0,2.335,1.892,4.225,4.224,4.225c2.332,0,4.224-1.89,4.224-4.225v-84.59l59.798,59.798
	c0.824,0.824,1.906,1.237,2.987,1.237c1.08,0,2.162-0.413,2.986-1.237c1.65-1.65,1.65-4.325,0-5.974l-59.798-59.799h84.592
	c2.334,0,4.225-1.892,4.225-4.224C240.743,139.398,238.853,137.506,236.519,137.506z"/>
</svg>
