<?xml version="1.0" encoding="utf-8"?>
<!-- Generator: Adobe Illustrator 15.1.0, SVG Export Plug-In . SVG Version: 6.00 Build 0)  -->
<!DOCTYPE svg PUBLIC "-//W3C//DTD SVG 1.1//EN" "http://www.w3.org/Graphics/SVG/1.1/DTD/svg11.dtd">
<svg version="1.1" xmlns="http://www.w3.org/2000/svg" xmlns:xlink="http://www.w3.org/1999/xlink" x="0px" y="0px"
	 width="283.46px" height="283.46px" viewBox="0 0 283.46 283.46" enable-background="new 0 0 283.46 283.46" xml:space="preserve">
<g id="Layer_3">
</g>
<g id="Layer_2">
	<g>
		<path d="M198.759,30.244c-12.48-15.439-31.975-23.159-58.477-23.159c-21.359,0-38.278,5.598-50.757,16.791
			c-12.481,11.193-18.72,24.061-18.72,38.598c0,9.522,2.22,16.953,6.657,22.29c4.439,5.341,9.36,8.01,14.765,8.01
			c4.245,0,7.847-1.574,10.808-4.729c2.957-3.151,4.438-7.044,4.438-11.676c0-3.602-1.93-8.878-5.79-15.825
			c-3.859-6.948-5.79-12.801-5.79-17.563c0-6.176,3.216-11.899,9.65-17.176c6.431-5.273,15.246-7.913,26.439-7.913
			c12.608,0,23.256,4.824,31.939,14.474c8.687,9.65,13.028,22.646,13.028,38.985c0,7.979-1.158,15.857-3.475,23.642
			c-2.316,7.785-7.333,18.946-15.053,33.483c-9.908,18.913-16.438,33.678-19.59,44.291c-3.153,10.615-5.18,24.028-6.078,40.238
			h0.003l-0.023,3.007c0,1.68,1.77,3.04,3.95,3.04c2.183,0,3.951-1.36,3.951-3.04l0.031-3.007
			c0.899-15.438,3.441-27.564,7.625-36.379c4.178-8.811,15.598-23.769,34.254-44.869c11.707-13.38,19.653-25.023,23.834-34.932
			c4.18-9.905,6.273-19.555,6.273-28.948C212.655,54.112,208.022,41.568,198.759,30.244z"/>
		<circle cx="138.063" cy="258.456" r="17.92"/>
	</g>
</g>
</svg>
