<?xml version="1.0" encoding="utf-8"?>
<!-- Generator: Adobe Illustrator 15.1.0, SVG Export Plug-In . SVG Version: 6.00 Build 0)  -->
<!DOCTYPE svg PUBLIC "-//W3C//DTD SVG 1.1//EN" "http://www.w3.org/Graphics/SVG/1.1/DTD/svg11.dtd">
<svg version="1.1" id="Layer_2" xmlns="http://www.w3.org/2000/svg" xmlns:xlink="http://www.w3.org/1999/xlink" x="0px" y="0px"
	 width="283.465px" height="283.465px" viewBox="0 0 283.465 283.465" enable-background="new 0 0 283.465 283.465"
	 xml:space="preserve">
<g>
	<path fill="none" d="M161.773,103.356V81.718H96.547v120.03h90.373v-94.885h-21.641
		C163.343,106.863,161.773,105.293,161.773,103.356z M107.954,97.104H151.9c1.656,0,3.008,1.348,3.008,3.005
		c0,1.657-1.352,3.005-3.008,3.005h-43.945c-1.659,0-3.006-1.348-3.006-3.005C104.949,98.452,106.296,97.104,107.954,97.104z
		 M110.933,191.303c-3.302,0-5.983-2.681-5.983-5.986c0-3.301,2.681-5.98,5.983-5.98c3.303,0,5.983,2.68,5.983,5.98
		C116.916,188.623,114.235,191.303,110.933,191.303z M110.933,169.232c-3.302,0-5.983-2.68-5.983-5.98
		c0-3.302,2.681-5.98,5.983-5.98c3.303,0,5.983,2.68,5.983,5.98S114.235,169.232,110.933,169.232z M110.933,147.294
		c-3.302,0-5.983-2.681-5.983-5.981c0-3.303,2.681-5.983,5.983-5.983c3.303,0,5.983,2.68,5.983,5.983
		C116.916,144.613,114.235,147.294,110.933,147.294z M110.933,125.252c-3.302,0-5.983-2.682-5.983-5.983
		c0-3.303,2.681-5.983,5.983-5.983c3.303,0,5.983,2.68,5.983,5.983C116.916,122.57,114.235,125.252,110.933,125.252z
		 M175.51,188.324h-50.595c-1.659,0-3.005-1.35-3.005-3.008c0-1.657,1.347-3.002,3.005-3.002h50.595
		c1.658,0,3.004,1.345,3.004,3.002C178.514,186.975,177.168,188.324,175.51,188.324z M175.51,166.254h-50.595
		c-1.659,0-3.005-1.345-3.005-3.002c0-1.658,1.347-3.004,3.005-3.004h50.595c1.658,0,3.004,1.346,3.004,3.004
		C178.514,164.909,177.168,166.254,175.51,166.254z M175.51,144.316h-50.595c-1.659,0-3.005-1.346-3.005-3.003
		c0-1.658,1.347-3.005,3.005-3.005h50.595c1.658,0,3.004,1.348,3.004,3.005C178.514,142.971,177.168,144.316,175.51,144.316z
		 M178.514,119.269c0,1.658-1.346,3.003-3.004,3.003h-50.595c-1.659,0-3.005-1.346-3.005-3.003c0-1.657,1.347-3.005,3.005-3.005
		h50.595C177.168,116.264,178.514,117.611,178.514,119.269z"/>
	<path d="M194.828,100.082l-26.271-26.271c-0.871-0.868-2.049-1.357-3.277-1.357H91.915c-2.559,0-4.632,2.076-4.632,4.634v129.293
		c0,2.557,2.073,4.631,4.632,4.631h99.636c2.559,0,4.631-2.074,4.631-4.631V103.356C196.182,102.128,195.693,100.95,194.828,100.082
		z M186.92,201.748H96.547V81.718h65.227v21.638c0,1.937,1.569,3.507,3.506,3.507h21.641V201.748z"/>
	<g>
		<path d="M107.955,103.114H151.9c1.656,0,3.008-1.348,3.008-3.005c0-1.657-1.352-3.005-3.008-3.005h-43.946
			c-1.658,0-3.005,1.348-3.005,3.005C104.949,101.766,106.296,103.114,107.955,103.114z"/>
	</g>
	<g>
		<path d="M121.91,119.269c0,1.657,1.346,3.003,3.005,3.003h50.595c1.658,0,3.004-1.345,3.004-3.003s-1.346-3.005-3.004-3.005
			h-50.595C123.257,116.264,121.91,117.612,121.91,119.269z"/>
	</g>
	<g>
		<path d="M110.933,113.286c-3.302,0-5.983,2.68-5.983,5.983c0,3.301,2.681,5.983,5.983,5.983c3.302,0,5.983-2.682,5.983-5.983
			C116.916,115.966,114.236,113.286,110.933,113.286z"/>
	</g>
	<g>
		<path d="M175.51,138.308h-50.595c-1.658,0-3.005,1.347-3.005,3.005c0,1.658,1.346,3.003,3.005,3.003h50.595
			c1.658,0,3.004-1.346,3.004-3.003C178.514,139.656,177.168,138.308,175.51,138.308z"/>
	</g>
	<g>
		<path d="M110.933,135.33c-3.302,0-5.983,2.68-5.983,5.983c0,3.3,2.681,5.981,5.983,5.981c3.302,0,5.983-2.681,5.983-5.981
			C116.916,138.01,114.236,135.33,110.933,135.33z"/>
	</g>
	<g>
		<path d="M175.51,160.248h-50.595c-1.658,0-3.005,1.346-3.005,3.004c0,1.657,1.346,3.002,3.005,3.002h50.595
			c1.658,0,3.004-1.345,3.004-3.002C178.514,161.594,177.168,160.248,175.51,160.248z"/>
	</g>
	<g>
		<circle cx="110.933" cy="163.252" r="5.98"/>
	</g>
	<g>
		<path d="M175.51,182.314h-50.595c-1.658,0-3.005,1.345-3.005,3.002c0,1.658,1.346,3.008,3.005,3.008h50.595
			c1.658,0,3.004-1.35,3.004-3.008C178.514,183.659,177.168,182.314,175.51,182.314z"/>
	</g>
	<g>
		<path d="M110.933,179.336c-3.302,0-5.983,2.68-5.983,5.98c0,3.306,2.681,5.986,5.983,5.986c3.302,0,5.983-2.68,5.983-5.986
			C116.916,182.016,114.236,179.336,110.933,179.336z"/>
	</g>
</g>
</svg>
