<?xml version="1.0" encoding="utf-8"?>
<!-- Generator: Adobe Illustrator 15.1.0, SVG Export Plug-In . SVG Version: 6.00 Build 0)  -->
<!DOCTYPE svg PUBLIC "-//W3C//DTD SVG 1.1//EN" "http://www.w3.org/Graphics/SVG/1.1/DTD/svg11.dtd">
<svg version="1.1" id="Layer_3" xmlns="http://www.w3.org/2000/svg" xmlns:xlink="http://www.w3.org/1999/xlink" x="0px" y="0px"
	 width="283.46px" height="283.46px" viewBox="0 0 283.46 283.46" enable-background="new 0 0 283.46 283.46" xml:space="preserve">
<path d="M54.359,143.511c0.033,0.074,0.071,0.145,0.108,0.216c0.016,0.028,0.028,0.058,0.044,0.088
	c0.01,0.017,0.021,0.029,0.031,0.046c0.172,0.294,0.382,0.57,0.626,0.822c0.036,0.035,0.072,0.07,0.109,0.105
	c0.086,0.081,0.176,0.159,0.271,0.236c0.043,0.034,0.085,0.069,0.131,0.103c0.112,0.082,0.229,0.159,0.352,0.233
	c0.022,0.013,0.044,0.028,0.066,0.042c0.001,0,0.001,0.001,0.001,0.001l167.094,94.788c0.657,0.374,1.374,0.55,2.079,0.55
	c1.471,0,2.9-0.768,3.679-2.14c1.15-2.029,0.439-4.608-1.59-5.758L66.744,141.73L227.36,50.615c2.03-1.151,2.741-3.729,1.59-5.758
	c-1.15-2.029-3.728-2.741-5.758-1.59L56.098,138.059c-0.021,0.012-0.042,0.027-0.064,0.041c-0.071,0.043-0.14,0.088-0.21,0.134
	c-0.049,0.033-0.098,0.066-0.144,0.101c-0.062,0.045-0.122,0.094-0.181,0.143c-0.05,0.041-0.102,0.083-0.149,0.126
	c-0.05,0.046-0.098,0.093-0.146,0.141c-0.053,0.053-0.106,0.105-0.155,0.161c-0.041,0.044-0.077,0.09-0.114,0.135
	c-0.053,0.064-0.107,0.128-0.155,0.195c-0.032,0.043-0.062,0.088-0.091,0.133c-0.049,0.073-0.097,0.146-0.141,0.221
	c-0.013,0.021-0.027,0.04-0.039,0.061c-0.016,0.028-0.027,0.058-0.043,0.085c-0.039,0.071-0.075,0.144-0.109,0.218
	c-0.027,0.059-0.053,0.118-0.077,0.178c-0.026,0.063-0.051,0.127-0.074,0.191c-0.026,0.07-0.048,0.14-0.07,0.211
	c-0.016,0.057-0.032,0.113-0.046,0.171c-0.018,0.076-0.036,0.154-0.051,0.231c-0.01,0.056-0.019,0.112-0.027,0.169
	c-0.011,0.077-0.021,0.154-0.029,0.23c-0.006,0.063-0.009,0.124-0.012,0.186c-0.005,0.071-0.008,0.142-0.008,0.212
	c0,0.071,0.003,0.141,0.008,0.212c0.003,0.061,0.006,0.123,0.012,0.184c0.008,0.077,0.018,0.154,0.029,0.23
	c0.009,0.058,0.017,0.112,0.027,0.169c0.015,0.077,0.033,0.153,0.051,0.23c0.016,0.058,0.03,0.113,0.046,0.169
	c0.022,0.072,0.045,0.143,0.071,0.213c0.022,0.064,0.046,0.127,0.072,0.191C54.303,143.393,54.331,143.452,54.359,143.511z"/>
</svg>
