<?xml version="1.0" encoding="utf-8"?>
<!-- Generator: Adobe Illustrator 15.1.0, SVG Export Plug-In . SVG Version: 6.00 Build 0)  -->
<!DOCTYPE svg PUBLIC "-//W3C//DTD SVG 1.0//EN" "http://www.w3.org/TR/2001/REC-SVG-20010904/DTD/svg10.dtd">
<svg version="1.0" id="Layer_2" xmlns="http://www.w3.org/2000/svg" xmlns:xlink="http://www.w3.org/1999/xlink" x="0px" y="0px"
	 width="283.46px" height="283.46px" viewBox="0 0 283.46 283.46" enable-background="new 0 0 283.46 283.46" xml:space="preserve">
<g>
	<path d="M49.222,174.259c-15.114,0-27.384,12.271-27.384,27.381c0,15.115,12.269,27.385,27.384,27.385
		c15.11,0,27.382-12.27,27.382-27.385C76.604,186.531,64.333,174.259,49.222,174.259z M49.222,215.332
		c-7.558,0-13.692-6.133-13.692-13.691c0-7.553,6.135-13.691,13.692-13.691c7.554,0,13.691,6.139,13.691,13.691
		C62.913,209.199,56.776,215.332,49.222,215.332z"/>
	<path d="M213.99,174.259c-15.113,0-27.385,12.271-27.385,27.381c0,15.115,12.271,27.385,27.385,27.385
		c15.108,0,27.382-12.27,27.382-27.385C241.372,186.531,229.102,174.259,213.99,174.259z M213.99,215.332
		c-7.559,0-13.692-6.133-13.692-13.691c0-7.553,6.134-13.691,13.692-13.691c7.554,0,13.691,6.139,13.691,13.691
		C227.681,209.199,221.543,215.332,213.99,215.332z"/>
	<path d="M192.671,54.436c-58.153,0-132.479,0-164.737,0c-8.917,0-16.143,7.225-16.143,16.14c0,34.557,0,113.762,0,128.611
		c0,1.338,1.085,2.42,2.421,2.42c0.49,0,0.995,0,1.465-0.02c1.083,0,1.975-0.854,2.022-1.936
		c1.009-16.537,14.745-29.66,31.522-29.66c15.857,0,28.999,11.729,31.11,27c0.29,2.627,2.509,4.613,5.151,4.615
		c16.835,0,74.227,0,91.779-0.166c2.827,0,5.208-2.107,5.552-4.91c2.429-15.039,15.472-26.539,31.175-26.539
		c15.987,0,29.219,11.924,31.187,27.375c0.242,2.408,2.268,4.238,4.687,4.24c2.692,0,6.31,0,9.824,0c3.18,0,6.227-1.262,8.473-3.51
		c2.247-2.246,3.509-5.295,3.509-8.473c0-12.771,0-34.159,0-56.193C271.668,89.801,236.299,54.436,192.671,54.436z M92.727,121.302
		c0,1.482-0.589,2.903-1.635,3.952c-1.049,1.046-2.469,1.635-3.952,1.635c-12.402,0-42.123,0-54.525,0
		c-1.481,0-2.903-0.589-3.95-1.635c-1.049-1.049-1.637-2.47-1.637-3.952c0-12.311,0-41.666,0-53.979c0-1.481,0.588-2.903,1.637-3.95
		c1.047-1.049,2.469-1.635,3.95-1.635c12.402,0,42.123,0,54.525,0c1.483,0,2.903,0.586,3.952,1.635
		c1.046,1.047,1.635,2.469,1.635,3.95C92.727,79.636,92.727,108.991,92.727,121.302z M169.659,121.302
		c0,1.482-0.589,2.903-1.636,3.952c-1.048,1.046-2.466,1.635-3.949,1.635c-12.402,0-42.124,0-54.526,0
		c-1.482,0-2.902-0.589-3.951-1.635c-1.047-1.049-1.636-2.47-1.636-3.952c0-12.311,0-41.666,0-53.979
		c0-1.481,0.589-2.903,1.636-3.95c1.049-1.049,2.469-1.635,3.951-1.635c12.402,0,42.124,0,54.526,0c1.483,0,2.901,0.586,3.949,1.635
		c1.047,1.047,1.636,2.469,1.636,3.95C169.659,79.636,169.659,108.991,169.659,121.302z M256.833,154.516c-7.984,0-22.41,0-31.665,0
		c-2.293,0-4.495-0.911-6.116-2.534c-1.625-1.623-2.535-3.824-2.535-6.119c0-1.018,0-2.08,0-3.158c0-4.197-1.667-8.217-4.633-11.183
		c-2.967-2.966-6.989-4.633-11.184-4.633c-4.966,0-10.152,0-13.988,0c-3.291,0-5.952-2.667-5.952-5.954c0-11.517,0-36.898,0-50.379
		c0-4.874,3.943-8.819,8.818-8.819c0.002,0,0.004,0,0.004,0c19.508,0,38.212,7.747,52.005,21.541
		c11.5,11.498,18.799,26.415,20.908,42.362c0.09,0.7,0.137,1.407,0.137,2.111c0.016,3.132,0.016,14.063,0.016,20.95
		C262.647,151.912,260.042,154.516,256.833,154.516z"/>
</g>
</svg>
