<?xml version="1.0" encoding="utf-8"?>
<!-- Generator: Adobe Illustrator 15.1.0, SVG Export Plug-In . SVG Version: 6.00 Build 0)  -->
<!DOCTYPE svg PUBLIC "-//W3C//DTD SVG 1.1//EN" "http://www.w3.org/Graphics/SVG/1.1/DTD/svg11.dtd">
<svg version="1.1" id="Layer_2" xmlns="http://www.w3.org/2000/svg" xmlns:xlink="http://www.w3.org/1999/xlink" x="0px" y="0px"
	 width="283.46px" height="283.46px" viewBox="0 0 283.46 283.46" enable-background="new 0 0 283.46 283.46" xml:space="preserve">
<g>
	<path d="M59.791,160.691c-12.533,0-22.708,10.177-22.708,22.707c0,12.534,10.174,22.708,22.708,22.708
		c12.531,0,22.707-10.174,22.707-22.708C82.498,170.868,72.322,160.691,59.791,160.691z M59.791,194.752
		c-6.267,0-11.354-5.087-11.354-11.354c0-6.264,5.087-11.354,11.354-11.354c6.264,0,11.354,5.09,11.354,11.354
		C71.144,189.666,66.055,194.752,59.791,194.752z"/>
	<path d="M196.425,160.691c-12.533,0-22.708,10.177-22.708,22.707c0,12.534,10.175,22.708,22.708,22.708
		c12.53,0,22.707-10.174,22.707-22.708C219.132,170.868,208.956,160.691,196.425,160.691z M196.425,194.752
		c-6.268,0-11.354-5.087-11.354-11.354c0-6.264,5.087-11.354,11.354-11.354c6.264,0,11.354,5.09,11.354,11.354
		C207.779,189.666,202.689,194.752,196.425,194.752z"/>
	<path d="M178.748,61.328c-48.225,0-109.86,0-136.61,0c-7.394,0-13.386,5.992-13.386,13.384c0,28.656,0,94.337,0,106.651
		c0,1.109,0.9,2.008,2.008,2.008c0.406,0,0.824,0,1.214-0.018c0.898,0,1.638-0.707,1.677-1.604
		c0.837-13.715,12.228-24.595,26.14-24.595c13.15,0,24.048,9.725,25.799,22.389c0.24,2.177,2.08,3.825,4.271,3.827
		c13.961,0,61.552,0,76.109-0.138c2.344,0,4.319-1.747,4.604-4.073c2.014-12.47,12.829-22.005,25.852-22.005
		c13.257,0,24.229,9.886,25.861,22.7c0.201,1.996,1.88,3.514,3.887,3.516c2.232,0,5.232,0,8.146,0c2.636,0,5.163-1.047,7.025-2.911
		c1.864-1.862,2.911-4.39,2.911-7.025c0-10.591,0-28.327,0-46.599C244.255,90.655,214.925,61.328,178.748,61.328z M95.868,116.777
		c0,1.229-0.488,2.407-1.356,3.277c-0.87,0.868-2.047,1.356-3.277,1.356c-10.285,0-34.931,0-45.216,0
		c-1.228,0-2.407-0.488-3.275-1.356c-0.87-0.87-1.358-2.048-1.358-3.277c0-10.209,0-34.552,0-44.763
		c0-1.228,0.488-2.407,1.358-3.275c0.868-0.87,2.047-1.356,3.275-1.356c10.285,0,34.931,0,45.216,0c1.23,0,2.407,0.486,3.277,1.356
		c0.868,0.868,1.356,2.047,1.356,3.275C95.868,82.225,95.868,106.568,95.868,116.777z M159.664,116.777
		c0,1.229-0.488,2.407-1.357,3.277c-0.868,0.868-2.045,1.356-3.275,1.356c-10.285,0-34.931,0-45.216,0
		c-1.229,0-2.407-0.488-3.277-1.356c-0.868-0.87-1.356-2.048-1.356-3.277c0-10.209,0-34.552,0-44.763
		c0-1.228,0.488-2.407,1.356-3.275c0.87-0.87,2.048-1.356,3.277-1.356c10.285,0,34.931,0,45.216,0c1.23,0,2.407,0.486,3.275,1.356
		c0.869,0.868,1.357,2.047,1.357,3.275C159.664,82.225,159.664,106.568,159.664,116.777z M231.953,144.32
		c-6.621,0-18.584,0-26.259,0c-1.901,0-3.727-0.756-5.071-2.102c-1.348-1.345-2.103-3.17-2.103-5.074c0-0.844,0-1.725,0-2.619
		c0-3.48-1.382-6.814-3.842-9.273c-2.46-2.46-5.796-3.842-9.273-3.842c-4.119,0-8.419,0-11.601,0c-2.728,0-4.936-2.211-4.936-4.937
		c0-9.55,0-30.598,0-41.777c0-4.041,3.271-7.313,7.313-7.313c0.002,0,0.004,0,0.004,0c16.176,0,31.688,6.424,43.125,17.862
		c9.536,9.535,15.589,21.905,17.338,35.129c0.074,0.58,0.113,1.167,0.113,1.751c0.013,2.597,0.013,11.661,0.013,17.372
		C236.774,142.16,234.615,144.32,231.953,144.32z"/>
</g>
</svg>
