<?xml version="1.0" encoding="utf-8"?>
<!-- Generator: Adobe Illustrator 15.1.0, SVG Export Plug-In . SVG Version: 6.00 Build 0)  -->
<!DOCTYPE svg PUBLIC "-//W3C//DTD SVG 1.1//EN" "http://www.w3.org/Graphics/SVG/1.1/DTD/svg11.dtd">
<svg version="1.1" xmlns="http://www.w3.org/2000/svg" xmlns:xlink="http://www.w3.org/1999/xlink" x="0px" y="0px"
	 width="283.465px" height="283.465px" viewBox="0 0 283.465 283.465" enable-background="new 0 0 283.465 283.465"
	 xml:space="preserve">
<g id="Layer_4">
</g>
<g id="Layer_5">
</g>
<g id="Layer_3">
</g>
<g id="Layer_2">
</g>
<g id="Layer_6">
	<g>
		<path d="M206.355,72.382h-9.824c0,3.094,0,5.789-0.006,5.785c2.52,1.963,4.133,5.022,4.133,8.458
			c0,5.917-4.805,10.723-10.723,10.723s-10.723-4.806-10.723-10.723c0-3.436,1.621-6.495,4.133-8.458v-5.785h-35.152
			c0,3.094,0,5.789-0.006,5.785c2.518,1.963,4.133,5.022,4.133,8.458c0,5.917-4.805,10.723-10.723,10.723
			c-5.917,0-10.723-4.806-10.723-10.723c0-3.436,1.62-6.495,4.137-8.458l-0.004-5.785h-34.886c0,3.094,0,5.789-0.003,5.785
			c2.516,1.963,4.134,5.022,4.134,8.458c0,5.917-4.806,10.723-10.724,10.723c-5.917,0-10.723-4.806-10.723-10.723
			c0-3.436,1.617-6.495,4.134-8.458v-5.785h-9.828c-6.929,0-12.548,5.619-12.548,12.548c0,28.368,0,97.207,0,126.021
			c0,3.455,1.373,6.771,3.816,9.215c2.443,2.438,5.754,3.813,9.209,3.813c29.112,0,99.172,0,128.29,0
			c3.455,0,6.766-1.376,9.209-3.813c2.443-2.443,3.813-5.76,3.813-9.215c0-28.814,0-97.653,0-126.021
			C218.9,78,213.285,72.382,206.355,72.382z M211.18,210.851c0,2.99-2.418,5.408-5.408,5.408c-22.162,0-105.917,0-128.079,0
			c-2.987,0-5.409-2.418-5.409-5.408c0-18.883,0-81.795,0-100.681c0-2.987,2.422-5.408,5.406-5.408c22.165,0,105.919,0,128.082,0
			c2.99,0,5.408,2.421,5.408,5.408C211.18,129.056,211.18,191.968,211.18,210.851z"/>
		<path d="M141.597,94.616c4.411,0,7.991-3.581,7.991-7.991c0-3.009-1.664-5.635-4.127-6.995V63.342
			c0-2.129-1.734-3.857-3.864-3.857c-2.13,0-3.856,1.728-3.856,3.857v16.289c-2.463,1.36-4.131,3.986-4.131,6.995
			C133.61,91.035,137.191,94.616,141.597,94.616z"/>
		<path d="M93.529,94.616c4.41,0,7.991-3.581,7.991-7.991c0-3.009-1.668-5.635-4.131-6.995V63.342c0-2.129-1.73-3.857-3.86-3.857
			c-2.129,0-3.859,1.728-3.859,3.857v16.289c-2.463,1.36-4.131,3.986-4.131,6.995C85.539,91.035,89.12,94.616,93.529,94.616z"/>
		<path d="M189.936,94.616c4.41,0,7.99-3.581,7.99-7.991c0-3.009-1.672-5.635-4.127-6.995V63.342c0-2.129-1.734-3.857-3.863-3.857
			s-3.857,1.728-3.857,3.857v16.289c-2.463,1.36-4.133,3.986-4.133,6.995C181.945,91.035,185.525,94.616,189.936,94.616z"/>
		<rect x="132.222" y="114.023" width="19.024" height="19.024"/>
		<rect x="132.222" y="139.408" width="19.024" height="19.027"/>
		<rect x="157.887" y="190.246" width="19.027" height="19.027"/>
		<rect x="157.887" y="164.861" width="19.027" height="19.021"/>
		<rect x="132.222" y="190.246" width="19.024" height="19.027"/>
		<rect x="132.222" y="164.861" width="19.024" height="19.021"/>
		<rect x="157.887" y="114.023" width="19.027" height="19.024"/>
		<rect x="183.615" y="164.861" width="19.021" height="19.021"/>
		<rect x="183.615" y="139.408" width="19.021" height="19.027"/>
		<rect x="183.615" y="114.023" width="19.021" height="19.024"/>
		<path d="M183.615,209.273h19.021v-19.027h-19.021V209.273z M185.545,192.175h15.164v15.164h-15.164V192.175z"/>
		<rect x="81.12" y="190.246" width="19.024" height="19.027"/>
		<rect x="157.887" y="139.408" width="19.027" height="19.027"/>
		<path d="M106.454,133.048h19.024v-19.024h-19.024V133.048z M108.382,115.955h15.167v15.164h-15.167V115.955z"/>
		<path d="M81.12,133.048h19.024v-19.024H81.12V133.048z M83.048,115.955h15.164v15.164H83.048V115.955z"/>
		<rect x="81.12" y="139.408" width="19.024" height="19.027"/>
		<rect x="81.12" y="164.861" width="19.024" height="19.021"/>
		<rect x="106.454" y="190.246" width="19.024" height="19.027"/>
		<rect x="106.454" y="139.408" width="19.024" height="19.027"/>
		<path d="M106.454,183.883h19.024v-19.021h-19.024V183.883z M114.174,172.595l1.79-5.516l1.794,5.516h5.798L118.864,176
			l1.793,5.515l-4.692-3.405l-4.689,3.405l1.794-5.515l-4.692-3.405H114.174z"/>
	</g>
</g>
</svg>
