<?xml version="1.0" encoding="iso-8859-1"?>
<!-- Generator: Adobe Illustrator 15.1.0, SVG Export Plug-In . SVG Version: 6.00 Build 0)  -->
<!DOCTYPE svg PUBLIC "-//W3C//DTD SVG 1.1//EN" "http://www.w3.org/Graphics/SVG/1.1/DTD/svg11.dtd">
<svg version="1.1" id="Layer_2" xmlns="http://www.w3.org/2000/svg" xmlns:xlink="http://www.w3.org/1999/xlink" x="0px" y="0px"
	 width="283.46px" height="283.46px" viewBox="0 0 283.46 283.46" style="enable-background:new 0 0 283.46 283.46;"
	 xml:space="preserve">
<g>
	<path d="M220.858,64.733h-0.161l-24.31-31.221l-0.117,0.153c-3.251-6.254-10.084-10.575-18.015-10.575h-73.051
		c-7.873,0-14.666,4.259-17.944,10.44l-0.015-0.019l-24.31,31.221h-0.333c-30.661,0-55.519,19.475-55.519,43.497v108.644
		c0,24.021,24.857,43.496,55.519,43.496h158.255c30.661,0,55.518-19.475,55.518-43.496V108.23
		C276.375,84.208,251.519,64.733,220.858,64.733z M141.73,222.748c-33.193,0-60.198-27.005-60.198-60.198
		c0-33.191,27.005-60.194,60.198-60.194c33.194,0,60.2,27.003,60.2,60.194C201.93,195.743,174.924,222.748,141.73,222.748z"/>
	<circle cx="141.73" cy="162.551" r="38.982"/>
</g>
</svg>
