<?xml version="1.0" encoding="utf-8"?>
<!-- Generator: Adobe Illustrator 15.1.0, SVG Export Plug-In . SVG Version: 6.00 Build 0)  -->
<!DOCTYPE svg PUBLIC "-//W3C//DTD SVG 1.1//EN" "http://www.w3.org/Graphics/SVG/1.1/DTD/svg11.dtd">
<svg version="1.1" id="Layer_9" xmlns="http://www.w3.org/2000/svg" xmlns:xlink="http://www.w3.org/1999/xlink" x="0px" y="0px"
	 width="283.46px" height="283.46px" viewBox="0 0 283.46 283.46" enable-background="new 0 0 283.46 283.46" xml:space="preserve">
<g>
	<path d="M231.291,242.259c22.518-20.073,38.242-47.596,43.313-78.699L160.83,216.613L231.291,242.259z"/>
	<path d="M41.203,231.292c20.074,22.516,47.595,38.24,78.699,43.313L66.849,160.83L41.203,231.292z"/>
	<path d="M276.148,149.487c0.146-2.567,0.229-5.153,0.229-7.757c0-29.301-9.365-56.412-25.258-78.515l-42.933,117.962
		L276.148,149.487z"/>
	<path d="M149.484,7.312c-2.568-0.146-5.15-0.228-7.754-0.228c-29.302,0-56.414,9.365-78.517,25.26l117.962,42.932L149.484,7.312z"
		/>
	<path d="M133.975,276.148c2.567,0.146,5.152,0.229,7.755,0.229c29.303,0,56.412-9.365,78.516-25.258l-117.961-42.935
		L133.975,276.148z"/>
	<path d="M242.259,52.169c-20.075-22.518-47.598-38.244-78.703-43.315l53.057,113.78L242.259,52.169z"/>
	<path d="M52.167,41.204C29.651,61.278,13.925,88.799,8.854,119.905l113.778-53.056L52.167,41.204z"/>
	<path d="M7.312,133.977c-0.146,2.566-0.228,5.15-0.228,7.753c0,29.303,9.365,56.414,25.259,78.518l42.934-117.962L7.312,133.977z"
		/>
</g>
</svg>
