<?xml version="1.0" encoding="iso-8859-1"?>
<!-- Generator: Adobe Illustrator 15.1.0, SVG Export Plug-In . SVG Version: 6.00 Build 0)  -->
<!DOCTYPE svg PUBLIC "-//W3C//DTD SVG 1.1//EN" "http://www.w3.org/Graphics/SVG/1.1/DTD/svg11.dtd">
<svg version="1.1" id="Layer_1" xmlns="http://www.w3.org/2000/svg" xmlns:xlink="http://www.w3.org/1999/xlink" x="0px" y="0px"
	 width="283.465px" height="283.465px" viewBox="0 0 283.465 283.465" style="enable-background:new 0 0 283.465 283.465;"
	 xml:space="preserve">
<path d="M24.913,31.755h233.715v-6.878H24.913V31.755z M155.648,47.916c-0.422,0-0.842,0.11-1.207,0.334
	c-0.53,0.324-0.904,0.85-1.043,1.453c-0.666,2.943-1.81,8.067-2.467,11.001c-0.267,1.207,0.475,2.404,1.662,2.715
	c7.432,1.773,10.741,4.794,13.446,11.956c0.349,0.873,1.181,1.421,2.075,1.435h0.101c0.175-0.004,0.356-0.027,0.53-0.078
	c2.889-0.745,8.162-2.148,11.197-2.957c0.621-0.16,1.143-0.571,1.453-1.133c0.301-0.567,0.355-1.229,0.154-1.837
	c-3.857-10.969-11.443-19.196-25.338-22.811c-0.146-0.041-0.302-0.064-0.457-0.073L155.648,47.916z M228.902,96.997h27.724V71.284
	h-27.724V96.997L228.902,96.997z M100.456,42.011H45.159l-4.438,75.06h44.095c-3.972-8.264-6.202-17.528-6.202-27.308
	c0-17.427,7.075-33.218,18.506-44.648C98.194,44.04,99.309,43.007,100.456,42.011z M24.913,117.07h5.539l4.438-75.06h-9.977V88.4
	h2.454v24.2h-2.454V117.07z M204.835,93.08h6.462v39.671h-23.281c0.293-0.315,0.586-0.635,0.879-0.959
	C198.171,121.394,204.066,107.911,204.835,93.08z M158.756,150.604v9.699h-1.232v-9.371
	C157.934,150.822,158.346,150.713,158.756,150.604z M211.297,146.719v13.584h-24.945v-13.584H211.297z M114.898,146.919
	c3.538,1.673,7.258,3.017,11.12,4.013v9.371h-11.12V146.919z M181.672,164.98h34.307v-22.942h-34.307V164.98z M183.079,42.011
	c1.151,0.997,2.269,2.029,3.337,3.104c11.134,11.133,18.135,26.398,18.492,43.286h11.068v49.031H183.18
	c-5.768,5.009-12.439,8.996-19.742,11.664v15.887h-9.91v9.396h91.619l13.481-39.072V101.24h-34.662V66.933h34.662V42.011H183.079z
	 M90.529,190.805v3.189h-9.09v-3.189H90.529z M65.442,184.188v13.592H43.678v-13.592H65.442z M76.759,198.674H95.21v-12.55H76.759
	V198.674z M38.999,202.459h31.124v-22.953H38.999V202.459z M29.844,127.326h-4.931v83.496L29.844,127.326z M228.902,212.787h29.359
	v-13.564h-29.359V212.787z M211.297,199.204v13.583h-24.945v-13.583H211.297z M90.529,209.697v3.189h-9.09v-3.189H90.529z
	 M163.244,143.656c-3.327,1.324-6.801,2.357-10.402,3.053l-4.461,0.686v67.268h-13.222v-67.268l-4.461-0.686
	c-4.945-0.96-9.671-2.541-14.086-4.671l-2.714-1.403l-3.282-1.947l-3.72-2.582l-3.501-2.861l-2.747-2.591
	c-3.977-3.995-7.372-8.569-10.055-13.583l-2.893-6.275l-2.034-6.257l-1.325-6.567l-0.512-5.439l0.014-5.827l0.604-5.846l1.33-6.289
	l1.769-5.43l2.271-5.188l3.912-6.687l4.232-5.512l5.416-5.457l5.471-4.287c9.355-6.467,20.699-10.256,32.925-10.256
	c12.222,0,23.564,3.789,32.917,10.256l5.611,4.411l4.461,4.419l3.967,4.876L192.146,61l3.373,6.92l2.084,6.06l1.271,5.576
	l0.786,6.558l0.118,3.647l-0.43,7.075l-1.683,8.446l-2.998,8.3l-3.994,7.372l-2.239,3.25c-2.156,2.92-4.588,5.63-7.248,8.094
	l-5.924,4.817l-1.563,1.069l-7.439,4.164L163.244,143.656z M181.672,217.469h34.307v-22.943h-34.307V217.469z M76.759,217.568H95.21
	v-12.551H76.759V217.568z M157.521,194.779h6.361v35.97h-44.044v-35.97h6.179v19.287c0,1.244,0.247,2.469,0.713,3.603
	c0.471,1.134,1.161,2.166,2.043,3.054c0.882,0.887,1.919,1.571,3.053,2.037c1.129,0.467,2.354,0.723,3.602,0.723h12.522
	c1.271,0,2.515-0.256,3.656-0.73c1.151-0.477,2.213-1.18,3.107-2.074c0.905-0.896,1.6-1.957,2.075-3.107
	c0.483-1.152,0.731-2.396,0.731-3.666V194.779L157.521,194.779z M91.009,127.326H40.118l-6.746,114.127h66.591v-67.075h30.05v-9.396
	h-19.794v-20.512c-5.846-3.379-11.102-7.67-15.571-12.679C93.368,130.361,92.156,128.871,91.009,127.326z M153.527,184.634v5.468
	h15.037v45.328h-53.405v-45.328h14.854v-5.468h-19.794v56.819h148.409v-24.352l-0.356,0.365h-34.306v-22.943h24.728l9.936-10.045
	v-17.733l-6.17,17.889H153.527L153.527,184.634z M24.913,258.592h233.715v-6.883H24.913V258.592z M262.376,24.876v233.715
	c0,1.033-0.421,1.976-1.099,2.651c-0.676,0.676-1.616,1.097-2.649,1.097H24.913c-1.033,0-1.97-0.421-2.651-1.097
	c-0.676-0.678-1.092-1.618-1.092-2.651V24.876c0-1.038,0.416-1.97,1.092-2.651c0.681-0.676,1.618-1.097,2.651-1.097h233.715
	c1.033,0,1.976,0.42,2.649,1.097C261.955,22.907,262.376,23.839,262.376,24.876z M276.416,24.876c0-4.913-1.993-9.36-5.21-12.578
	c-3.218-3.218-7.67-5.21-12.578-5.21H24.913c-4.913,0-9.36,1.993-12.578,5.21c-3.218,3.217-5.206,7.665-5.206,12.578v233.715
	c0,4.908,1.988,9.36,5.206,12.578c3.217,3.218,7.665,5.21,12.578,5.21h233.715c4.908,0,9.36-1.992,12.578-5.21
	c3.217-3.218,5.21-7.67,5.21-12.578V24.876z"/>
</svg>
