<?xml version="1.0" encoding="utf-8"?>
<!-- Generator: Adobe Illustrator 15.1.0, SVG Export Plug-In . SVG Version: 6.00 Build 0)  -->
<!DOCTYPE svg PUBLIC "-//W3C//DTD SVG 1.0//EN" "http://www.w3.org/TR/2001/REC-SVG-20010904/DTD/svg10.dtd">
<svg version="1.0" id="Layer_1" xmlns="http://www.w3.org/2000/svg" xmlns:xlink="http://www.w3.org/1999/xlink" x="0px" y="0px"
	 width="283.465px" height="283.465px" viewBox="0 0 283.465 283.465" enable-background="new 0 0 283.465 283.465"
	 xml:space="preserve">
<g>
	<path fill="none" d="M148.742,83.539c4.543,1.082,6.548,2.933,8.217,7.313c0.236,0.632,0.988,1.007,1.648,0.83
		c1.77-0.469,4.988-1.329,6.865-1.822c0.354-0.104,0.682-0.354,0.889-0.687c0.197-0.346,0.218-0.75,0.078-1.125
		c-2.33-6.696-6.963-11.718-15.455-13.937c-0.365-0.089-0.762-0.04-1.059,0.163c-0.336,0.212-0.582,0.514-0.643,0.89
		c-0.414,1.813-1.096,4.923-1.491,6.726C147.577,82.614,148.021,83.355,148.742,83.539z"/>
	<polygon fill="none" points="26.256,33.994 15.477,33.994 15.477,84.115 18.113,84.115 18.113,110.259 15.477,110.259 
		15.477,115.079 21.451,115.079 	"/>
	<polygon fill="none" points="15.477,126.154 15.477,216.375 20.805,126.154 	"/>
	<rect x="15.477" y="15.476" fill="none" width="252.511" height="7.422"/>
	<path fill="none" d="M32.558,115.079h70.709c1.609,4.049,3.847,7.802,6.567,11.086H31.91l-7.293,123.296h71.939v-72.475h33.209
		v11.094h-22.118v61.381h160.341v-26.32l-0.375,0.396h-37.075v-24.781h26.726l10.745-10.844v-19.18l-6.646,19.326H153.7v-11.091
		h99.729l14.559-42.206V97.938h-37.45V60.912h37.45V33.994H37.353L32.558,115.079z M64.324,207.328H30.696v-24.789h33.628V207.328
		L64.324,207.328z M91.415,223.664h-19.92v-13.553h19.93L91.415,223.664L91.415,223.664z M91.415,203.25h-19.92v-13.563h19.93
		L91.415,203.25L91.415,203.25z M107.647,166.836V142.03h22.127v24.806H107.647z M184.85,198.773h37.075v24.791H184.85V198.773z
		 M170.688,193.984v48.978h-57.731v-48.978h16.79v25.906c0,1.342,0.548,2.676,1.497,3.604c0.963,0.958,2.257,1.49,3.6,1.49
		c3.995,0,9.497,0,13.546,0c1.401,0,2.745-0.553,3.715-1.541c1.017-1.008,1.539-2.33,1.539-3.742v-25.719h17.045V193.984z
		 M165.137,166.836H153.7v-24.795h11.437V166.836L165.137,166.836z M184.85,84.115h37.075v52.963H184.85V84.115z M184.85,142.051
		h37.075v24.785H184.85V142.051z M180.979,115.059c0,3.329,0,6.909,0,10.237c0,7.18-5.826,13.007-12.996,13.007h-10.924
		c4.049-1.571,10.902-4.919,15.545-10.953c3.379-4.39,6.291-9.244,8.196-14.533C180.919,113.553,180.979,114.303,180.979,115.059z
		 M168.87,58.586v10.023c-6.488-5.664-14.755-9.304-23.841-10.023H168.87z M174.914,99.819c0,17.032-12.857,31.091-29.393,32.957
		v84.022h-7.564v-84.022c-16.543-1.877-29.396-15.925-29.396-32.957c0-18.325,14.863-33.18,33.18-33.18
		C160.061,66.649,174.914,81.504,174.914,99.819z M81.648,58.586h56.828c-10.113,0.8-19.209,5.229-25.976,11.995
		c-6.068,6.079-10.262,14.028-11.62,22.897H81.667L81.648,58.586L81.648,58.586z"/>
	<rect x="15.477" y="260.551" fill="none" width="252.511" height="7.438"/>
	<path d="M168.87,58.586h-23.841c9.086,0.721,17.382,4.38,23.841,10.023V58.586z"/>
	<path d="M157.059,138.303h10.924c7.17,0,12.996-5.827,12.996-13.007c0-3.328,0-6.908,0-10.237c0-0.755-0.061-1.506-0.196-2.231
		c-1.906,5.278-4.83,10.133-8.207,14.532C167.961,133.384,161.107,136.731,157.059,138.303z"/>
	<rect x="184.85" y="142.051" width="37.075" height="24.785"/>
	<rect x="184.85" y="84.115" width="37.075" height="52.963"/>
	<path d="M267.988,2.835H15.477c-6.969,0-12.643,5.664-12.643,12.642v252.511c0,6.965,5.674,12.643,12.643,12.643h252.511
		c6.974,0,12.644-5.678,12.644-12.643V15.477C280.629,8.488,274.98,2.835,267.988,2.835z M15.477,110.259h2.646V84.116h-2.646
		V33.994h10.779l-4.805,81.099h-5.975L15.477,110.259L15.477,110.259z M15.477,126.154h5.328l-5.328,90.209V126.154z
		 M267.988,267.986H15.477v-7.437h252.511V267.986L267.988,267.986z M267.988,60.912h-37.45v37.056h37.45v36.824l-14.559,42.194
		H153.7v11.104h107.661l6.646-19.328v19.17l-10.745,10.863h-26.726v24.79h37.075l0.375-0.396V249.5h-160.34v-61.381h22.127v-11.092
		H96.565V249.5H24.616l7.293-123.346h77.944c-2.731-3.299-4.958-7.017-6.563-11.086H32.557l4.795-81.094h230.636V60.912
		L267.988,60.912z M267.988,22.898H15.477v-7.422h252.511V22.898L267.988,22.898z"/>
	<path d="M108.561,99.819c0,17.032,12.854,31.091,29.396,32.957v84.022h7.564v-84.022c16.533-1.877,29.393-15.925,29.393-32.957
		c0-18.325-14.873-33.18-33.174-33.18C123.414,66.649,108.561,81.504,108.561,99.819z M149.246,75.153
		c0.079-0.375,0.307-0.677,0.643-0.889c0.286-0.202,0.682-0.242,1.047-0.163c8.494,2.212,13.127,7.239,15.446,13.936
		c0.157,0.375,0.128,0.779-0.079,1.126c-0.197,0.331-0.521,0.593-0.898,0.687c-1.855,0.494-5.075,1.343-6.844,1.817
		c-0.672,0.183-1.401-0.193-1.648-0.825c-1.648-4.39-3.664-6.222-8.227-7.313c-0.703-0.192-1.146-0.923-1.02-1.658
		C148.141,80.087,148.831,76.966,149.246,75.153z"/>
	<path d="M112.481,70.581c6.755-6.766,15.855-11.186,25.97-11.995H81.648v34.883h19.214
		C102.23,84.609,106.422,76.649,112.481,70.581z"/>
	<rect x="153.7" y="142.051" width="11.457" height="24.785"/>
	<rect x="71.495" y="210.111" width="19.93" height="13.553"/>
	<rect x="30.696" y="182.539" width="33.628" height="24.789"/>
	<rect x="71.495" y="189.688" width="19.93" height="13.563"/>
	<rect x="107.647" y="142.051" width="22.128" height="24.805"/>
	<path d="M153.7,219.703c0,1.412-0.554,2.734-1.521,3.742c-1.009,0.988-2.313,1.541-3.732,1.541c-4.024,0-9.545,0-13.542,0
		c-1.358,0-2.662-0.532-3.601-1.49c-0.963-0.958-1.501-2.264-1.501-3.604v-25.908H113.02v48.979h57.716v-48.979H153.74v25.72
		L153.7,219.703L153.7,219.703z"/>
	<rect x="184.85" y="198.773" width="37.075" height="24.791"/>
</g>
</svg>
