<?xml version="1.0" encoding="utf-8"?>
<!-- Generator: Adobe Illustrator 15.1.0, SVG Export Plug-In . SVG Version: 6.00 Build 0)  -->
<!DOCTYPE svg PUBLIC "-//W3C//DTD SVG 1.1//EN" "http://www.w3.org/Graphics/SVG/1.1/DTD/svg11.dtd">
<svg version="1.1" id="Layer_1" xmlns="http://www.w3.org/2000/svg" xmlns:xlink="http://www.w3.org/1999/xlink" x="0px" y="0px"
	 width="283.465px" height="283.465px" viewBox="0 0 283.465 283.465" enable-background="new 0 0 283.465 283.465"
	 xml:space="preserve">
<path d="M141.625,7.083C67.312,7.083,6.979,67.417,6.979,141.73c0,74.314,60.333,134.646,134.646,134.646
	c74.313,0,134.645-60.333,134.645-134.646S215.938,7.083,141.625,7.083z M48.386,141.73c0-51.459,41.779-93.239,93.24-93.239
	c18.487-0.001,35.728,5.393,50.235,14.695L63.081,191.966C53.779,177.459,48.386,160.219,48.386,141.73z M141.625,234.968
	c-18.49,0-35.73-5.394-50.236-14.694l128.78-128.78c9.302,14.507,14.695,31.747,14.695,50.236
	C234.864,193.189,193.085,234.968,141.625,234.968z"/>
</svg>
