<?xml version="1.0" encoding="utf-8"?>
<!-- Generator: Adobe Illustrator 15.1.0, SVG Export Plug-In . SVG Version: 6.00 Build 0)  -->
<!DOCTYPE svg PUBLIC "-//W3C//DTD SVG 1.1//EN" "http://www.w3.org/Graphics/SVG/1.1/DTD/svg11.dtd">
<svg version="1.1" id="Layer_1" xmlns="http://www.w3.org/2000/svg" xmlns:xlink="http://www.w3.org/1999/xlink" x="0px" y="0px"
	 width="283.465px" height="283.465px" viewBox="0 0 283.465 283.465" enable-background="new 0 0 283.465 283.465"
	 xml:space="preserve">
<title>877</title>
<g>
	<path d="M144.804,43.332c5.952,0,15.14-1.188,14.088,26.127c21.646-25.039-17.952-62.381-20.355-62.372
		c-1.422,31.805-29.754,37.133-17.219,62.644C124.15,49.844,138.602,55.679,144.804,43.332z"/>
	<path d="M160.627,90.502c-0.347,0.315-0.824,0.645-1.452,0.988c-0.982,0.54-1.807,1.073-2.518,1.589
		c0.039,0.146,0.062,0.3,0.062,0.46v4.151v1.216v9.088v1.622v1.685c0,0.935-0.705,1.694-1.577,1.694s-1.577-0.759-1.577-1.694
		v-1.685v-1.622v-9.088v-1.216v-1.919c-2.042,1.985-3.542,3.403-8.807,3.601c0.017,0.146,0.027,0.295,0.027,0.446v3.45v3.445v94.866
		v3.851v2.539c0,1.788-1.211,3.241-2.703,3.241s-2.704-1.453-2.704-3.241v-2.539v-3.851v-94.868v-3.446v-3.449
		c0-0.2,0.017-0.395,0.046-0.585c-4.708-0.415-6.897-1.615-9.1-3.14v2.816v1.721v13.986v0.609v2.906
		c0,1.026-0.889,1.857-1.982,1.857c-1.094,0-1.983-0.832-1.983-1.857v-2.906v-0.609v-13.985v-1.721v-5.205
		c0-0.092,0.011-0.18,0.023-0.269c-0.971-0.572-2.092-1.156-3.453-1.729c-1.944,0.644-3.399,3.199-3.399,6.254v18.703v7.905v125.267
		v7.905v12.221c0,3.537,1.952,6.418,4.356,6.418h35.904c2.41,0,4.361-2.881,4.361-6.418v-12.221v-7.905V124.566v-7.905V97.958
		C164.155,94.89,162.607,91.384,160.627,90.502z"/>
	<path d="M134.149,75.784c0,4.188,3.395,7.583,7.583,7.583c4.188,0,7.583-3.395,7.583-7.583c0-4.188-3.286-13.551-7.473-13.551
		C137.654,62.233,134.149,71.595,134.149,75.784z"/>
</g>
</svg>
