<?xml version="1.0" encoding="utf-8"?>
<!-- Generator: Adobe Illustrator 15.1.0, SVG Export Plug-In . SVG Version: 6.00 Build 0)  -->
<!DOCTYPE svg PUBLIC "-//W3C//DTD SVG 1.1//EN" "http://www.w3.org/Graphics/SVG/1.1/DTD/svg11.dtd">
<svg version="1.1" id="Layer_1" xmlns="http://www.w3.org/2000/svg" xmlns:xlink="http://www.w3.org/1999/xlink" x="0px" y="0px"
	 width="283.465px" height="283.465px" viewBox="0 0 283.465 283.465" enable-background="new 0 0 283.465 283.465"
	 xml:space="preserve">
<g id="Layer_1_1_">
</g>
<g id="Layer_2">
</g>
<g id="Layer_3">
	<g>
		<path d="M274.491,61.573c-1.691-2.186-4.303-3.461-7.071-3.461H55.689l-3.891-14.895c-0.606-2.326-2.12-4.306-4.201-5.502
			L20.519,22.126c-4.286-2.47-9.767-0.991-12.238,3.296c-2.465,4.285-0.99,9.767,3.296,12.239L35.403,51.38l41.069,157.14
			c1.031,3.952,4.592,6.702,8.667,6.702h129.704c4.94,0,8.963-4.021,8.963-8.962c0-4.951-4.022-8.963-8.963-8.963H92.063
			l-4.129-15.814h152.689c4.103,0,7.683-2.78,8.692-6.751l26.786-105.454C276.781,66.597,276.192,63.757,274.491,61.573z
			 M233.66,163.559H83.296L61.06,76.036h194.836L233.66,163.559z"/>
		<path d="M201.803,221.323c-11.375,0-20.596,9.235-20.596,20.604c0,11.372,9.224,20.608,20.596,20.608
			c11.371,0,20.604-9.236,20.604-20.608C222.407,230.559,213.174,221.323,201.803,221.323z"/>
		<path d="M115.15,221.323c-11.374,0-20.6,9.235-20.6,20.604c0,11.372,9.228,20.608,20.6,20.608c11.372,0,20.6-9.236,20.6-20.608
			C135.75,230.559,126.522,221.323,115.15,221.323z"/>
		<path d="M102.111,113.158h112.733c4.943,0,8.964-4.017,8.964-8.963c0-4.947-4.021-8.963-8.964-8.963H102.111
			c-4.946,0-8.963,4.016-8.963,8.963C93.147,109.142,97.165,113.158,102.111,113.158z"/>
		<path d="M102.111,144.363h112.733c4.943,0,8.964-4.014,8.964-8.961c0-4.946-4.021-8.962-8.964-8.962H102.111
			c-4.946,0-8.963,4.016-8.963,8.962C93.147,140.349,97.165,144.363,102.111,144.363z"/>
	</g>
</g>
</svg>
