<?xml version="1.0" encoding="utf-8"?>
<!-- Generator: Adobe Illustrator 15.1.0, SVG Export Plug-In . SVG Version: 6.00 Build 0)  -->
<!DOCTYPE svg PUBLIC "-//W3C//DTD SVG 1.1//EN" "http://www.w3.org/Graphics/SVG/1.1/DTD/svg11.dtd">
<svg version="1.1" id="Layer_1" xmlns="http://www.w3.org/2000/svg" xmlns:xlink="http://www.w3.org/1999/xlink" x="0px" y="0px"
	 width="283.46px" height="283.46px" viewBox="0 0 283.46 283.46" enable-background="new 0 0 283.46 283.46" xml:space="preserve">
<g>
	<path d="M274.029,190.414L130.846,47.23c-3.733-3.733-9.839-3.733-13.573,0l-53.608,53.608c-3.733,3.733-3.733,9.992,0,13.726
		l13.529,13.681H38.753v-22.377c0-5.278-4.261-9.292-9.539-9.292H16.738c-5.278,0-9.654,4.014-9.654,9.292v75.814
		c0,5.278,4.376,9.901,9.654,9.901h12.476c5.278,0,9.539-4.623,9.539-9.901v-21.769h70.11l75.591,75.438
		c3.733,3.733,10.649,4.777,15.371,2.418l72.406-36.242C276.953,199.169,277.762,194.146,274.029,190.414L274.029,190.414z
		 M118.461,67.757c3.093-3.092,8.104-3.092,11.198,0c3.092,3.093,3.092,8.104,0,11.196c-3.093,3.093-8.104,3.093-11.198,0.001
		C115.369,75.862,115.369,70.85,118.461,67.757z M169.659,197.671l-90.215-90.216L90.3,96.598l90.216,90.217L169.659,197.671z"/>
</g>
</svg>
