<?xml version="1.0" encoding="iso-8859-1"?>
<!-- Generator: Adobe Illustrator 15.1.0, SVG Export Plug-In . SVG Version: 6.00 Build 0)  -->
<!DOCTYPE svg PUBLIC "-//W3C//DTD SVG 1.1//EN" "http://www.w3.org/Graphics/SVG/1.1/DTD/svg11.dtd">
<svg version="1.1" xmlns="http://www.w3.org/2000/svg" xmlns:xlink="http://www.w3.org/1999/xlink" x="0px" y="0px"
	 width="283.46px" height="283.46px" viewBox="0 0 283.46 283.46" style="enable-background:new 0 0 283.46 283.46;"
	 xml:space="preserve">
<g id="Layer_3">
</g>
<g id="Layer_2">
</g>
<g id="Layer_4">
	<g>
		<path d="M276.375,141.73l-30.6-27.878l12.561-39.445l-40.439-8.844l-8.846-40.439l-39.443,12.562L141.73,7.084l-27.878,30.602
			L74.407,25.124l-8.844,40.439l-40.439,8.844l12.562,39.445L7.084,141.73l30.602,27.878l-12.562,39.445l40.439,8.843l8.844,40.439
			l39.445-12.561l27.878,30.6l27.877-30.6l39.443,12.561l8.846-40.439l40.439-8.843l-12.561-39.445L276.375,141.73z M64.729,141.729
			c0-42.458,34.542-77,77-77s77,34.542,77,77s-34.542,77-77,77S64.729,184.187,64.729,141.729z"/>
		<path d="M141.729,72.729c-38.047,0-69,30.953-69,69s30.953,69,69,69s69-30.953,69-69S179.776,72.729,141.729,72.729z
			 M164.21,176.324l-22.48-16.094l-22.48,16.094l8.359-26.354l-22.253-16.406l27.646-0.194l8.728-26.233l8.727,26.233l27.647,0.194
			l-22.253,16.406L164.21,176.324z"/>
	</g>
</g>
</svg>
