<?xml version="1.0" encoding="utf-8"?>
<!-- Generator: Adobe Illustrator 15.1.0, SVG Export Plug-In . SVG Version: 6.00 Build 0)  -->
<!DOCTYPE svg PUBLIC "-//W3C//DTD SVG 1.1//EN" "http://www.w3.org/Graphics/SVG/1.1/DTD/svg11.dtd">
<svg version="1.1" id="Layer_3" xmlns="http://www.w3.org/2000/svg" xmlns:xlink="http://www.w3.org/1999/xlink" x="0px" y="0px"
	 width="283.465px" height="283.465px" viewBox="0 0 283.465 283.465" enable-background="new 0 0 283.465 283.465"
	 xml:space="preserve">
<g>
	<path d="M141.732,7.086C67.369,7.086,7.086,67.369,7.086,141.732c0,74.362,60.283,134.646,134.646,134.646
		c74.361,0,134.646-60.284,134.646-134.646C276.379,67.369,216.094,7.086,141.732,7.086z M142.012,162.572
		c6.379,0,11.055-2.553,16.58-8.93l10.205,9.776c-8.503,9.354-16.582,12.756-26.785,12.756c-19.558,0-35.291-15.305-35.291-34.437
		c0-19.133,15.732-34.439,35.291-34.439c10.203,0,17.858,3.826,26.362,12.755l-10.206,9.78c-5.953-6.804-10.205-8.929-16.582-8.929
		c-11.055,0-19.982,9.353-19.982,20.833C121.604,153.218,130.532,162.572,142.012,162.572z M139.036,76.262
		c-18.282,0.426-35.289,8.504-47.62,22.533c-21.683,24.661-21.683,62.075,0,86.733c12.332,14.029,28.913,22.108,47.62,22.533
		c18.281,0,36.141-6.802,48.896-19.558c1.273-1.272,2.977-1.272,4.252,0c1.273,1.275,1.273,2.978,0,4.252
		c-14.03,13.181-31.89,20.836-51.021,20.836c-0.852,0-1.7,0-2.552,0c-19.982-0.852-38.691-9.354-51.87-24.664
		c-23.384-26.784-23.384-67.175,0-93.96c13.179-15.307,31.888-23.81,51.87-24.658c19.981-0.852,39.543,6.801,53.573,20.833
		c1.273,1.273,1.273,2.975,0,4.251c-1.275,1.274-2.979,1.274-4.252,0C175.176,82.641,157.317,75.411,139.036,76.262z
		 M139.036,40.972c-27.637,0.426-53.146,12.331-71.854,32.313c-35.715,38.266-35.715,98.215,0,136.48
		c18.707,20.407,44.218,31.889,71.854,32.311c27.637,0.428,53.57-9.777,73.131-29.334c1.275-1.275,2.979-1.275,4.252,0
		c1.274,1.273,1.274,2.977,0,4.252c-19.983,19.984-46.77,31.037-75.257,31.037c-0.852,0-1.274,0-2.126,0
		c-28.911-0.424-56.124-12.756-76.106-34.016c-37.417-40.392-37.417-103.739,0-144.557c19.982-21.259,46.77-33.588,76.106-34.014
		c29.339-0.425,56.547,10.629,77.383,31.037c1.274,1.276,1.274,2.977,0,4.252c-1.273,1.275-2.977,1.275-4.252,0
		C192.606,51.177,166.672,40.548,139.036,40.972z"/>
</g>
</svg>
