<?xml version="1.0" encoding="utf-8"?>
<!-- Generator: Adobe Illustrator 15.1.0, SVG Export Plug-In . SVG Version: 6.00 Build 0)  -->
<!DOCTYPE svg PUBLIC "-//W3C//DTD SVG 1.1//EN" "http://www.w3.org/Graphics/SVG/1.1/DTD/svg11.dtd">
<svg version="1.1" id="Layer_1" xmlns="http://www.w3.org/2000/svg" xmlns:xlink="http://www.w3.org/1999/xlink" x="0px" y="0px"
	 width="283.465px" height="283.465px" viewBox="0 0 283.465 283.465" enable-background="new 0 0 283.465 283.465"
	 xml:space="preserve">
<g id="XMLID_1_">
	<g>
		<path d="M227.237,150.97c0.889,1.094,1.799,3.94,1.094,4.919c-3.895-0.068-7.72-0.091-10.908,0.547
			C219.404,153.315,224.938,153.771,227.237,150.97z"/>
		<path d="M203.213,156.982c5.215,41.627-20.268,70.753-56.816,74.191c-3.575,0.342-7.378,0.296-10.931,0
			c-36.094-3.006-64.536-33.999-56.816-76.378c7.242,26.165,18.992,47.457,39.328,62.737c5.784,4.326,14.62,11.773,21.314,12.001
			c6.513,0.228,17.557-6.581,23.478-10.908C182.832,204.029,194.491,182.031,203.213,156.982z M202.666,171.716
			c-0.137-2.231,0.524-5.261-1.093-6.012C201.05,167.867,200.48,170.919,202.666,171.716z M201.573,178.798
			c1.116-0.889-0.022-4.031,1.093-4.919c-1.457-0.342-2.072-1.549-3.278-2.163C198.135,174.448,199.319,177.909,201.573,178.798z
			 M199.934,186.449c0.524-1.298,0.957-2.688,1.093-4.372c-1.366-1.549-2.527-3.302-3.825-4.919c0.091,1.73-1.457,1.821-1.093,3.825
			C197.52,182.646,198.066,185.196,199.934,186.449z M197.201,194.078c3.233-4.168,0.091-8.813-2.732-11.455
			C191.349,186.813,194.582,191.117,197.201,194.078z M193.922,200.066c3.37-3.688-0.455-8.152-2.732-10.907
			c-0.228,1.435-1.64,1.662-1.64,3.279C191.189,194.807,191.69,198.291,193.922,200.066z M190.097,205.532
			c0.592-1.412,1.98-2.026,2.186-3.826c-1.89-2.095-2.482-5.533-4.372-7.628C184.517,197.493,188.274,202.504,190.097,205.532z
			 M185.724,210.451c0.524-1.662,2.665-1.708,2.733-3.826c-1.64-2.186-1.822-5.807-4.373-7.082
			C180.486,202.458,184.722,207.194,185.724,210.451z M181.352,214.801c0.569-1.435,2.163-1.822,2.732-3.257
			c-1.024-3.598-3.734-10.475-6.012-3.825C179.963,209.29,179.849,212.865,181.352,214.801z M176.433,218.626
			c5.921-1.412-0.318-15.029-2.732-6.535C175.294,213.594,174.748,217.237,176.433,218.626z M174.247,219.719
			c-1.162-10.68-6.832-4.509-3.826,2.187C171.992,221.473,172.607,220.084,174.247,219.719z M168.781,222.998
			c-0.045-2.505-0.318-4.759-1.64-6.012c-2.573,1.229-4.577,5.078-1.64,7.651C166.276,223.75,167.393,223.227,168.781,222.998z
			 M163.339,224.638c-1.412-0.409,0.388-4.053-1.64-3.825c-1.07,2.026-4.281,1.913-3.279,5.989
			C160.355,226.392,162.359,226.027,163.339,224.638z M156.78,227.348c-0.25-1.024,0.729-3.279-1.093-2.71
			c-0.774,1.754-4.03,1.048-3.825,3.804C153.41,227.985,155.232,227.804,156.78,227.348z M124.535,227.348
			c2.118-0.273,2.665,0.979,4.919,0.547c-0.843-1.867-2.915-2.527-4.919-3.257C124.535,225.549,124.535,226.437,124.535,227.348z
			 M122.896,226.255c0-1.07,0-2.163,0-3.257c-2.049-0.137-2.3-2.049-4.372-2.186c0.319,1.776-0.364,2.527-0.546,3.825
			C119.639,225.162,120.414,226.551,122.896,226.255z M116.337,224.092c1.116-0.889-0.023-4.031,1.093-4.919
			c-1.753-0.251-1.913-2.072-3.826-2.187c-0.228,1.959-1.457,2.915-1.093,5.466C113.878,222.907,114.675,223.932,116.337,224.092z
			 M110.872,220.813c-0.319-2.528,1.229-3.143,1.093-5.466c-0.888-1.093-1.457-2.527-3.279-2.71
			c0.114,2.983-1.685,4.122-1.617,7.082C108.777,219.628,108.891,221.177,110.872,220.813z M107.616,210.451
			c-1.936,0.091-1.799-1.845-3.279-2.187c-0.114,2.983-2.254,3.939-2.186,7.082c0.638,1.366,1.867,2.141,3.279,2.733
			C106.067,215.461,107.092,213.206,107.616,210.451z M100.511,214.254c0.501-2.756,1.48-5.056,2.732-7.082
			c-0.433-1.776-1.525-2.847-3.279-3.279c-0.433,3.052-1.913,5.01-2.733,7.651C98.256,212.5,99.281,213.479,100.511,214.254z
			 M96.139,209.904c0-3.803,2.801-4.851,2.732-8.744c-0.501-0.957-1.229-1.686-2.186-2.163c-1.321,2.3-2.528,4.736-3.826,7.082
			C93.224,208.083,94.863,208.789,96.139,209.904z M95.592,196.264c-1.548-0.091-0.683-2.596-2.732-2.186
			c-0.911,2.914-2.346,5.306-3.826,7.628c1.207,0.798,1.07,2.938,2.732,3.279C92.882,201.935,94.499,199.361,95.592,196.264z
			 M87.94,199.543c1.526-2.778,6.217-8.539,1.64-10.931c-0.797,3.029-2.938,4.714-3.826,7.651
			C86.643,197.175,86.938,198.7,87.94,199.543z M89.034,185.902c-1.389-0.797-1.07-3.324-2.733-3.825
			c-1.184,2.277-2.391,4.531-3.826,6.535c0.068,2.118,1.845,2.528,1.64,4.919C86.643,191.869,87.417,188.453,89.034,185.902z
			 M85.754,180.438c-0.364-1.458-0.865-2.778-1.64-3.826c-1.093,1.64-2.049,3.416-3.826,4.372c0.592,1.595,0.501,3.849,1.64,4.919
			C83.181,184.058,84.16,181.94,85.754,180.438z M79.743,178.251c2.664-0.546,4.6-5.67,1.64-7.082
			C79.333,172.74,78.809,174.972,79.743,178.251z M79.743,171.169c1.093-1.708,1.389-4.35,0-6.012
			C79.037,166.137,78.695,170.258,79.743,171.169z"/>
		<path d="M210.317,224.638c-0.113,1.891-1.936,2.072-2.186,3.804c-2.983-2.482-5.283-5.625-7.105-9.269
			C204.078,221.04,207.039,222.998,210.317,224.638z"/>
		<path d="M203.76,92.059c4.418,70.435-16.373,115.683-63.375,134.743c-45.863-19.493-66.13-64.536-61.189-134.743
			c12.434-0.022,29.467,0.023,43.7,0c-4.554,6.9-9.336,13.572-14.209,20.176c-12.844-0.273-22.59,5.42-23.478,15.28
			c4.053,1.047,7.811-3.94,13.117-4.373c13.208-1.07,17.808,12.821,28.943,15.827c3.438,0.934,6.08-0.797,9.837,1.093
			c-3.644,6.171-13.937,5.716-14.756,14.733c-4.008,0.911-7.037,2.778-11.477,3.279c0,14.187,0,28.374,0,42.561
			c6.057,0.183,15.28-1.138,22.408-1.639c2.96,3.666,11.796,3.598,14.756,0c7.72,0.272,14.711,1.298,21.839,2.163
			c1.274-13.094,0.204-28.533,0.546-42.538c-2.573-2.164-6.74-2.71-10.361-3.826c-1.07-8.768-10.931-8.744-14.756-14.733
			c2.049-2.482,4.463-0.137,7.104-0.547c8.267-1.252,12.98-12.023,21.839-14.733c8.221-2.505,14.187,0.843,21.861,4.919
			c0.523-11.455-8.927-17.626-21.861-17.466c-3.758-7.15-10.794-13.914-13.094-20.723C174.27,92.765,189.731,91.694,203.76,92.059z
			 M193.922,140.609c-1.662-2.55-7.104-10.68-10.384-15.28c-0.934,0.228-1.39-0.797-1.64,0
			C186.18,130.156,189.436,135.986,193.922,140.609z M179.712,188.612c0.228-1.024,1.571-0.979,1.094-2.71
			c-2.938,1.025-5.534-1.799-9.292-1.64c0.342,1.116-0.66,3.575,0.547,3.804C174.36,186.335,176.934,189,179.712,188.612z
			 M171.514,171.169c3.439-1.07,9.041,2.961,9.292-1.64c-1.937-0.113-5.876-1.821-9.292-2.186
			C171.514,168.618,171.514,169.894,171.514,171.169z M182.991,162.425c-4.691-11.113-8.972-22.659-15.303-32.177
			C170.694,140.905,177.891,152.063,182.991,162.425z M114.151,131.341c-0.114-0.615-0.592-0.843-1.093-1.093
			c-4.167,10.726-11.34,21.406-13.641,32.177C103.653,151.403,109.733,142.18,114.151,131.341z M109.779,188.066
			c0.296-1.595,0.068-5.443-1.617-3.257C109.938,185.766,106.705,188.407,109.779,188.066z M109.779,171.716
			c0-1.458,0-2.915,0-4.372C107.752,167.07,107.752,171.989,109.779,171.716z M107.616,172.262c0-2.004,0-4.008,0-6.012
			c-4.213-0.364-7.697-0.045-6.559,4.919C102.378,172.376,104.951,172.354,107.616,172.262z M107.069,189.159
			c0.365-2.004,0.934-4.145,0-5.989c-4.258-0.615-7.264,0.022-6.012,4.896C103.061,188.431,104.291,189.546,107.069,189.159z
			 M95.592,132.98c2.209-2.96,5.989-5.875,5.465-8.198c-4.486,4.987-9.405,12.434-12.023,17.466
			C91.083,139.789,93.315,136.032,95.592,132.98z"/>
		<path d="M156.78,110.049c0.82,1.73,1.822,3.279,2.187,5.465c-2.778,0.842-6.581,2.459-9.838,1.093
			c0.092-0.638-0.137-0.979-0.546-1.093C148.901,111.278,152.522,110.368,156.78,110.049z"/>
		<path d="M123.989,115.514c-0.023-6.923,11.044-6.809,10.384,1.093C131.002,117.928,126.562,116.698,123.989,115.514z"/>
		<path d="M106.522,166.797c0.82,0.888,0.82,4.03,0,4.919c-3.461,0.342-5.853-0.364-4.919-4.372
			C103.699,167.64,104.268,166.364,106.522,166.797z M105.976,170.622c0.842-2.3-2.847-0.091-2.733-1.639
			c0.046-0.752,3.917-0.342,2.187-1.094c-0.911,0-1.822,0-2.733,0c0,0.911,0,1.822,0,2.732
			C103.79,170.622,104.883,170.622,105.976,170.622z"/>
		<path d="M244.18,160.808c3.667,50.145-24.73,85.486-59.002,101.473c-20.017,9.313-44.702,12.023-67.748,7.082
			c-21.77-4.668-38.143-15.188-51.897-28.374c-16.646-17.898-30.628-45.226-28.397-78.563c1.458-21.816,11.227-38.144,24.025-50.19
			c5.419,0.41,10.042,1.617,15.303,2.186c-2.027,12.434,2.323,23.273,1.64,32.746c-0.456,6.422-3.757,8.813-4.373,14.711
			c-3.78,37.21,22.317,63.443,49.165,70.389c39.51,10.225,89.563-17.421,84.689-69.842c-0.433-4.555-2.915-7.766-3.279-12.548
			c-0.865-10.862,3.78-21.383,2.187-35.456c5.101-0.341,9.313-1.594,14.187-2.186C233.181,124.122,242.608,139.174,244.18,160.808z
			 M239.808,173.355c0-1.822,0-3.644,0-5.466c-7.537-0.774-17.671,0.501-26.757,0c-0.433,2.597,0.843,3.507,0.546,5.989
			C221.34,172.718,231.177,173.629,239.808,173.355z M239.261,161.354c0.229-2.597-0.797-3.939-1.093-6.012c-1.64,0-3.279,0-4.919,0
			c-0.364-2.004-1.047-3.667-1.093-6.012c1.525-0.479,2.71-1.299,4.372-1.617c-0.296-2.072-1.32-3.416-1.093-6.012
			c-8.631,3.37-15.85,8.175-24.571,11.454c0.433,2.482,0.774,5.056,1.64,7.104C220.292,161.741,231.496,159.828,239.261,161.354z
			 M238.168,187.542c0.979-1.571,0.752-4.35,1.64-6.012c-3.985,0.547-7.788,1.321-12.023,1.64
			c-6.399-10.179-18.377-3.028-17.467,9.269c7.788,2.573,17.171,3.575,25.665,5.465c0.592-1.594,1.229-3.143,1.093-5.465
			c-3.348-0.82-7.971-0.388-9.838-2.732C229.31,187.405,234.434,188.18,238.168,187.542z M227.237,217.533
			c0.774-1.959,2.414-3.052,2.732-5.442c-6.535-2.938-12.935-6.012-18.559-9.838c0.045-1.936,2.004-1.981,1.64-4.35
			c-1.549-0.478-2.255-1.776-4.372-1.64c-1.731,5.01-5.124,8.335-6.559,13.641c1.913,0.068,2.437,1.549,4.372,1.64
			c0.205-1.799,1.275-2.732,2.187-3.825C214.872,210.975,221.362,213.958,227.237,217.533z M219.04,229.534
			c0.956-1.776,2.892-2.573,3.825-4.35c-8.403-3.78-15.303-9.108-24.571-12.023c-5.442,4.668-3.461,5.465,0,10.384
			c3.803,5.397,8.244,13.208,11.478,16.351c0.934-1.776,2.869-2.573,3.825-4.35c-0.773-1.435-2.505-1.89-2.732-3.826
			c1.229-1.479,2.414-3.028,3.826-4.372C216.147,228.076,217.582,228.828,219.04,229.534z M193.375,251.372
			c2.437-0.113,2.915-2.186,4.919-2.732c-1.389-3.165-3.78-5.328-5.465-8.198c7.355-1.821,6.398-13.344,0.546-15.804
			c-6.08-2.573-10.27,3.416-14.756,5.442C182.923,237.8,188.775,243.949,193.375,251.372z M169.328,240.441
			c0.068-9.131-10.566-1.229-15.827-1.093c-0.387,2.027,0.935,2.346,0.547,4.372c2.323,0.388,4.145-1.594,5.466-0.546
			c1.161,7.195,3.757,12.957,4.896,20.198c1.891-0.501,3.394-1.366,5.466-1.64c-1.048-7.491-4.122-12.979-4.919-20.745
			C166.982,241.376,167.302,240.055,169.328,240.441z M151.315,265.537c0-1.617,0-3.257,0-4.896c-2.551,0-5.102,0-7.651,0
			c0.318-2.322-0.388-3.621-0.547-5.465c2.756,0.387,3.803-0.911,6.559-0.547c0-1.457,0-2.892,0-4.35c-2.187,0-4.372,0-6.559,0
			c0.137-1.867-0.433-4.44,0.547-5.465c2.186,0,4.372,0,6.559,0c2.186-8.176-7.743-4.373-12.571-4.373
			c-0.319,9.063,0.41,17.057,0.547,25.642C143.049,266.402,146.351,265.127,151.315,265.537z M112.512,262.28
			c11.454-0.523,17.944-28.374,1.64-26.734C101.604,236.798,97.573,262.94,112.512,262.28z M104.336,236.639
			c0.638-1.73,1.685-3.028,2.732-4.372c-3.711-2.118-7.15-4.509-10.93-6.535c-4.395,7.605-9.815,14.187-13.664,22.362
			c3.962,1.844,7.242,4.395,10.931,6.535c0.638-1.708,1.685-3.028,2.733-4.35c-2.255-1.412-4.532-2.755-6.559-4.372
			c1.685-0.865,1.73-3.37,3.279-4.372c2.049,0.865,3.689,2.141,5.465,3.279c0.455-1.708,2.049-2.301,2.186-4.373
			c-1.503-1.206-3.644-1.821-4.919-3.256c0.843-1.708,1.503-3.575,3.279-4.372C100.374,234.407,102.423,235.432,104.336,236.639z
			 M71.544,238.278c8.449,3.098,19.47-6.285,19.129-14.187c-0.25-5.534-5.261-8.494-9.291-11.455
			c-5.762,6.24-12.525,11.478-18.036,17.99C67.241,232.904,67.673,236.844,71.544,238.278z M73.73,200.636
			c2.277-9.245-3.803-13.002-12.023-12.023c-6.877,0.843-13.731,3.53-14.733,10.385C44.446,216.053,71.385,210.2,73.73,200.636z
			 M53.532,159.168c5.966,11.25,20.131,3.438,18.013-8.744c-8.881-1.503-17.33-3.416-25.664-5.442
			c-0.228,1.958-0.706,3.644-1.093,5.442c3.143,0.865,6.672,1.344,9.291,2.732C53.418,154.682,53.463,156.914,53.532,159.168z
			 M54.602,182.077c8.152,8.494,17.854-1.07,13.663-13.641c-8.722,0.569-17.898,0.66-26.21,1.64c0,1.821,0,3.644,0,5.442
			c4.053,0.774,7.833-1.594,10.931,0c-1.958,3.348-7.219,3.37-10.384,5.465c-0.433,2.438,0.729,3.279,0.547,5.466
			C47.748,185.766,50.025,182.76,54.602,182.077z"/>
		<path d="M172.061,112.781c-4.326-0.341-6.74,1.275-10.361,1.64c-2.801-5.943-5.557-11.933-8.198-18.013
			c1.868-0.296,3.325-1.025,4.373-2.164C162.792,100.234,167.688,106.246,172.061,112.781z"/>
		<path d="M65.533,154.796c0.319,1.776-0.364,2.527-0.546,3.826c-3.325,1.435-7.674,0.341-6.559-4.373
			C60.159,153.202,62.959,154.979,65.533,154.796z"/>
		<path d="M62.8,173.879c5.124,5.01-7.242,8.426-6.012,1.093C58.086,173.901,61.684,175.132,62.8,173.879z"/>
		<path d="M124.535,94.792c2.277-0.091,2.71,1.662,4.919,1.617c-1.981,6.923-5.442,12.388-8.198,18.559
			c-2.96-1.024-5.875-2.118-9.837-2.186C115.313,106.314,120.573,101.19,124.535,94.792z"/>
		<path d="M191.189,229.534c1.913,1.799,2.277,6.012-0.547,7.104c-2.3-1.161-3.598-3.324-4.372-6.012
			C187.478,229.853,188.912,229.261,191.189,229.534z"/>
		<path d="M139.292,155.889c2.87,12.16-0.273,27.235,0.547,40.922c-7.629-5.01-19.425,0.114-27.327,1.64c0-13.276,0-26.553,0-39.828
			C121.12,157.984,131.094,151.676,139.292,155.889z M138.745,194.624c0-12.365,0-24.73,0-37.096
			c-7.014-3.849-16.829,1.526-24.594,2.187c0,12.183,0,24.366,0,36.549C121.985,195.581,131.435,190.753,138.745,194.624z"/>
		<path d="M216.33,188.066c-0.82-5.488,9.018-5.056,7.082,1.093C221.431,190.343,218.037,188.932,216.33,188.066z"/>
		<path d="M118.478,62.956c0.068-0.706,2.596-0.638,2.231,0.182c-1.594,3.507-1.799,8.38-5.465,9.815
			c2.209-0.342,5.807,0.706,7.105-0.547c-4.486-1.525,1.366-8.312,1.64-12.001C121.939,60.61,118.25,61.772,118.478,62.956z
			 M233.249,117.154c10.886,14.209,18.218,32.769,16.942,58.365c-2.095,41.9-25.436,71.186-55.177,88.401
			c-16.214,9.359-38.052,15.735-64.468,13.641c-51.806-4.145-95.552-45.59-99.423-98.763c-2.528-34.546,9.314-55.359,28.397-72.552
			c4.623,0.479,8.949,1.252,13.663,1.64c1.275-6.558,0.182-15.462,0.546-22.932c5.465,0,10.931,0,16.396,0
			c2.209-1.776-1.571-8.585,2.733-9.268c-4.782-12.616-2.141-34.75,4.372-45.271c1.184-1.936,3.849-3.871,6.012-6.012
			c4.987-4.964,10.612-9.837,17.466-13.094c14.415-3.962,35.046-3.644,47.526,2.187c3.529,1.639,5.647,2.573,8.744,5.442
			c1.366,1.275,1.754,3.348,3.279,4.919c3.324,3.37,6.354,3.803,8.198,7.104c1.844,3.257,2.642,9.77,3.825,13.641
			c0.455,1.48,1.891,2.505,2.187,3.803c1.024,4.577,0.842,10.93,0.546,14.733c-0.318,4.053-0.614,9.041-3.279,12.547
			c2.688,0.774,2.528,4.395,3.279,7.105c2.938,2.505,7.651,3.256,13.664,2.71c0.773,6.854,0.501,14.779,0.546,22.385
			c5.647,1.048,9.633-2.528,13.641-1.64C226.259,106.975,231.223,114.489,233.249,117.154z M247.459,179.345
			c1.913-24.64-4.486-44.588-14.21-58.365c-3.256-4.623-7.195-9.132-11.477-12.001c-5.534,0.273-9.884,1.73-15.28,2.163
			c0-7.811,0-15.622,0-23.455c-43.335,0-86.693,0-130.029,0c-0.638,0.091-0.592,0.865-0.546,1.64
			c-0.342,7.105,0.706,15.622-0.547,21.815c-4.349-1.275-10.042-1.252-14.209-2.71c-16.646,13.959-27.896,33.088-27.851,61.645
			c0.045,32.108,13.026,55.336,30.583,73.099c17.74,17.944,41.126,30.901,71.573,32.199c31.152,1.298,57.909-10.702,76.491-27.28
			C229.993,231.971,245.068,210.019,247.459,179.345z M193.375,85.5c0.706-1.685-1.685-4.304-1.64-7.082
			c-1.503,0.182-3.825-1.571-4.918,0c0.638,0.273,1.229,0.569,1.64,1.093c-4.076,1.708-7.993-3.37-12.024-1.64
			c-0.523,1.458,3.029,3.507,2.187,7.082c1.435,0.569,3.348,0.661,5.465,0.547c0.16-1.07-0.729-1.07-1.093-1.64
			C186.271,82.563,189.094,86.047,193.375,85.5z M187.363,69.15c1.845-2.186,7.196-3.734,5.466-7.651
			C191.554,64.231,186.156,65.757,187.363,69.15z M192.829,54.963c-0.319-0.957,0.66-3.211-0.547-3.279
			c-1.139,2.528-5.829,4.35-4.372,7.629C189.23,57.559,191.234,56.466,192.829,54.963z M187.91,63.685
			c2.551-0.82,7.651-4.6,4.372-7.628C190.916,58.675,188.001,59.791,187.91,63.685z M191.735,74.046
			c-0.296-0.797,0.638-2.824-0.546-2.732c-0.592,2.527-6.239,2.846-4.919,5.465C188.092,75.868,190.347,75.39,191.735,74.046z
			 M188.457,54.417c1.047-2.004,6.217-4.646,2.732-7.651C190.461,49.156,186.817,51.479,188.457,54.417z M186.817,73.5
			c1.73-1.913,4.941-2.346,5.465-5.442C189.14,68.193,185.906,71.131,186.817,73.5z M186.817,49.498
			c2.892,0.045,5.511-5.602,2.732-7.628C188.616,44.396,186.385,45.626,186.817,49.498z M185.724,45.672
			c1.959-1.958,4.874-4.919,3.279-8.722C186.521,38.476,185.633,41.596,185.724,45.672z M185.178,41.322
			c0.592-2.459,4.121-6.74,1.093-9.291C185.405,34.218,182.444,39.068,185.178,41.322z M185.178,74.046
			c1.093-3.279-0.82-7.264-4.372-7.628C180.806,70.425,183.583,71.632,185.178,74.046z M183.538,37.497
			c0.137-3.143,2.095-4.463,1.64-8.175c-0.729,0.068-1.64-2.232-2.187-0.547C184.357,30.324,180.577,36.017,183.538,37.497z
			 M186.817,64.231c-0.364-4.554-3.872-5.966-7.105-7.628C181.033,60.201,183.902,62.227,186.817,64.231z M185.724,67.51
			c-0.865-2.96-2.163-5.488-5.465-6.012C180.145,65.438,183.515,65.894,185.724,67.51z M186.271,51.684
			c-1.253-4.736-4.919-7.082-9.838-8.175C177.822,48.108,183.583,48.359,186.271,51.684z M178.072,47.858
			c0.638,3.917,6.741,5.26,8.198,6.559C184.677,51.092,181.488,49.361,178.072,47.858z M181.898,33.671
			c-0.41-2.664,1.161-7.333-1.64-7.628C180.669,28.729,179.12,33.375,181.898,33.671z M180.806,75.139
			c1.32,0.683,2.664,1.343,4.372,1.64c-0.456-2.437-1.913-3.894-4.372-4.373C180.806,73.317,180.806,74.228,180.806,75.139z
			 M175.34,40.776c2.801,1.753,7.811,4.19,9.838,4.896C183.88,42.416,179.12,39.729,175.34,40.776z M186.271,59.313
			c-0.091-3.894-3.826-7.06-7.104-5.989C181.056,55.783,184.472,56.739,186.271,59.313z M182.991,41.322
			c-0.979-4.304-5.716-4.85-10.384-5.465C173.859,39.911,179.895,39.136,182.991,41.322z M179.166,76.232
			c2.254-25.709-6.969-44.679-21.292-55.655c-0.388,3.484,2.573,3.621,3.279,6.012c-1.822,4.395-5.512,9.769-4.919,14.733
			c2.117-4.805,4.076-9.769,7.104-13.64c1.617,2.368,3.621,4.372,4.896,7.082c-3.599,5.67-7.948,10.612-10.361,17.466
			c5.328-3.78,6.649-11.523,12.001-15.28c1.138,3.051,2.755,5.625,3.825,8.722c-2.231,3.598-6.376,5.283-7.104,10.384
			c3.529-1.753,4.326-6.263,8.197-7.651c0.433,3.939,1.663,7.082,2.187,10.908c-0.797,1.571-4.304,3.325-2.732,5.465
			c1.503-0.342,1.73-3.575,3.279-2.186C178.392,66.827,175.682,74.638,179.166,76.232z M179.166,32.031
			c-0.205-3.78,0.842-8.835-2.187-9.814C175.658,25.746,176.889,30.415,179.166,32.031z M180.806,35.857
			c-1.891-3.188-6.263-3.917-10.931-4.349C170.945,35.174,178.255,35.493,180.806,35.857z M176.433,84.954
			c0.456-4.145-3.803-8.585-6.558-5.989c0.66,0.091,1.548-0.091,1.639,0.546c-4.326,2.027-6.604-2.391-11.454-1.64
			c-0.569,4.919,2.437,9.2,7.082,7.082c-0.592-0.114-1.298-0.888-0.546-1.093C170.171,83.701,172.926,86.844,176.433,84.954z
			 M175.34,27.135c-0.068-3.37,2.026-7.97-2.187-8.198C173.04,22.536,173.199,25.814,175.34,27.135z M173.153,27.682
			c2.096-0.797-4.918-4.418-7.651-2.187c2.004,1.093,4.35,1.845,7.651,1.64C173.153,27.317,173.153,27.5,173.153,27.682z
			 M167.142,28.229c2.392,1.799,8.062,3.233,10.385,3.279C175.978,28.843,171.081,26.68,167.142,28.229z M172.607,23.856
			c-0.638-1.526-0.592-3.758-0.547-5.989c-1.07-0.023-0.683-1.503-2.186-1.093C170.239,19.666,170.308,22.9,172.607,23.856z
			 M162.77,23.31c2.187,0.569,7.561,0.82,8.744,0.547C170.057,22.604,164.455,20.873,162.77,23.31z M169.328,60.405
			c0.592-0.022,0.433-0.683-0.547-0.546c-0.569,1.252-3.416,0.205-4.919,0.546c-1.093,1.435-1.07,4.031-2.163,5.465
			c0.934,0.866,3.37,0.25,3.803,1.64c0.889,4.418-2.846,4.919-5.988,3.803c2.642,4.099,9.928,0.159,8.175-5.443
			c-1.093-1.275-4.167-0.569-4.35-2.732C163.566,60.474,169.852,63.844,169.328,60.405z M169.328,21.124
			c-0.137-2.755-0.273-5.534-2.732-5.989C166.436,18.209,167.574,19.985,169.328,21.124z M160.06,20.577
			c1.845,1.343,4.464,1.161,5.989-0.547C164.478,19.438,160.856,18.892,160.06,20.577z M166.049,19.484
			c-0.501-2.573,0.137-6.308-3.279-5.989C163.293,16.068,163.886,18.573,166.049,19.484z M162.223,16.774
			c0.023-2.026-0.228-3.757-2.163-3.826C160.06,14.952,161.13,15.863,162.223,16.774z M157.874,17.867
			c0.546,0.934,3.871,1.867,4.896,0.546C162.223,17.457,158.898,16.523,157.874,17.867z M159.514,15.134
			c0.182-2.004-0.843-2.801-2.187-3.279C157.51,13.472,158.261,14.542,159.514,15.134z M156.234,15.134
			c-0.979,2.437,2.892,1.958,2.732,0.547C158.329,15.226,157.486,14.952,156.234,15.134z M158.967,60.405
			c-2.346-0.205-5.647,0.524-7.104-0.546c-3.758,5.921,0.478,0.683,4.918,2.733c-1.548,3.917-5.078,5.852-6.012,10.361
			C155.573,70.858,155.665,64.049,158.967,60.405z M149.129,83.861c4.44-0.433,5.762,2.254,10.385,1.64
			c-0.388-2.346-2.232-3.234-1.64-6.536c-1.48-0.546-2.893-1.116-4.919-1.093c-0.159,1.07,0.729,1.07,1.093,1.64
			c-4.167,1.663-6.809-2.573-12.023-1.64c1.229,2.232,2.231,4.668,2.732,7.629c1.662-0.342,4.691,0.706,5.466-0.547
			C149.539,84.908,148.924,84.794,149.129,83.861z M153.501,11.855c1.436,0.729,1.48,2.869,3.826,2.732
			C157.031,13.017,154.981,10.421,153.501,11.855z M156.78,27.135c1.48-15.121-16.601-24.184-25.14-13.094
			c-5.83,7.583-1.161,23.091-7.105,29.467c10.293-1.913,3.097-24.184,10.931-26.735c2.277,7.538,2.118,17.535,4.919,24.548
			c0.045-9.883-2.004-17.648-2.733-26.734c3.052-0.911,7.378-0.706,8.745,1.64c-0.455,4.555-0.364,9.2,0,12.547
			c2.072-2.482,0.091-9.018,2.187-11.454c3.143,2.573,4.463,6.626,3.825,11.454c-1.867,14.005-20.222,26.233-13.117,48.55
			c2.733,0.182,3.256-1.845,6.558-1.093C140.59,56.125,155.255,42.529,156.78,27.135z M132.733,83.861
			c3.575-0.16,6.331,2.983,9.837,1.093c-0.182-4.19-2.254-6.467-6.011-7.082c-1.412,1.435,0.888,0.433,0.546,2.186
			c-4.896,0.524-6.012-2.709-10.931-2.186c-0.729,5.101,2.528,9.109,7.105,7.082C132.688,84.84,131.959,84.066,132.733,83.861z
			 M136.012,60.405c-2.323-0.205-5.625,0.524-7.104-0.546c-0.114,1.207-2.459,2.938-1.093,3.826
			c0.045-1.981,4.668-2.209,6.012-1.093c-1.548,3.917-4.964,5.943-6.012,10.361C132.574,70.79,132.847,64.163,136.012,60.405z
			 M134.373,49.498c-0.342-4.736-1.503-8.676-3.279-12.001C129.75,42.21,132.392,46.4,134.373,49.498z M125.628,16.228
			c1.298,0.387,3.461,1.252,3.279-1.093C127.336,15.021,126.129,15.271,125.628,16.228z M127.814,14.588
			c1.776-0.433,2.869-1.503,3.279-3.279C129.181,11.582,127.837,12.402,127.814,14.588z M127.268,12.402
			c-2.027-0.387-1.367,1.913-2.186,2.732C126.813,15.203,126.972,13.723,127.268,12.402z M122.349,18.938
			c1.845-0.16,4.737,0.729,4.372-1.617C124.786,17.366,122.326,16.911,122.349,18.938z M126.721,30.961
			c-0.364-5.807,0.706-8.334,1.093-12.547c-13.071,12.092-26.438,34.75-20.746,58.365c1.139-4.35-0.751-10.202,1.093-14.734
			c1.435,0.114,3.279,4.691,3.803,2.186c-0.683-2.573-2.983-3.552-3.803-6.012c0.911-3.438,1.184-7.538,2.71-10.361
			c2.801,2.847,5.192,6.103,8.198,8.745c-0.797-5.579-5.693-7.06-7.651-11.477c1.617-2.573,2.004-6.354,4.373-8.175
			c4.417,4.691,7.082,11.113,11.477,15.827c-0.16-4.213-1.799-6.923-4.919-8.175c0.797-3.962-4.053-6.809-5.465-10.384
			c2.437-2.847,3.871-6.672,7.651-8.175C125.355,27.591,125.651,29.663,126.721,30.961z M115.791,83.861
			c4.463-0.433,5.761,2.254,10.384,1.64c-0.364-2.346-2.209-3.234-1.64-6.536c-1.412-0.387-4.759-2.232-5.465,0
			c0.661,0.091,1.549-0.091,1.64,0.546c-4.327,1.845-6.695-2.664-12.023-1.64c1.002,2.459,2.391,4.532,2.732,7.629
			c1.663-0.342,4.714,0.706,5.465-0.547C116.224,84.908,115.608,84.794,115.791,83.861z M123.442,16.774
			c0-1.822,1.776-1.867,1.64-3.826C123.214,12.561,122.03,15.658,123.442,16.774z M119.07,20.577
			c2.004,0.478,4.714,2.163,5.465-0.547C123.351,19.12,119.617,19.165,119.07,20.577z M122.349,13.495c-0.729,0-1.458,0-2.186,0
			c-0.592,1.958-0.843,4.235-1.64,5.989C121.506,19.211,121.097,15.499,122.349,13.495z M122.349,22.763
			c-2.414-1.503-9.086-0.137-8.198,1.64C115.996,22.945,121.165,24.835,122.349,22.763z M119.617,24.949c-1.822,0-3.644,0-5.465,0
			C106.887,28.752,117.157,27.522,119.617,24.949z M117.977,27.682c-4.851-0.479-10.088,1.548-9.815,4.349
			C110.849,30.005,116.383,30.825,117.977,27.682z M116.337,21.124c0.683-1.161,3.78-5.01,1.093-5.989
			C116.838,16.546,114.652,19.233,116.337,21.124z M113.058,23.856c0.797-1.389,3.598-5.989,1.093-7.083
			C112.762,17.753,112.694,22.9,113.058,23.856z M104.336,36.404c3.393-1.868,9.701-0.843,10.908-4.896
			C110.553,32.077,105.68,32.487,104.336,36.404z M110.326,27.135c0.888-1.48,3.233-6.74,0.546-8.198
			C108.526,20.327,109.551,24.562,110.326,27.135z M102.697,41.322c2.642-2.437,8.79-1.412,9.815-5.465
			C107.957,36.04,102.241,37.952,102.697,41.322z M108.686,85.5c1.024-3.78-1.458-7.196-5.443-7.629
			c-1.435,1.435,0.866,0.433,0.547,2.186c-4.896,0.524-6.148-2.596-10.931-2.186c-0.843,5.215,2.55,9.086,7.105,7.082
			c-0.592-0.114-1.321-0.888-0.547-1.093C103.129,83.792,104.313,86.252,108.686,85.5z M106.522,32.031
			c1.184-1.981,3.826-7.401,1.093-9.814C105.839,23.742,105.27,29.344,106.522,32.031z M99.417,52.23
			c1.093-3.872,10.498-5.056,8.198-8.722C103.949,45.125,98.461,47.835,99.417,52.23z M101.057,45.672
			c2.095-2.619,7.037-2.414,8.722-5.442C105.726,40.548,100.215,42.302,101.057,45.672z M104.336,64.778
			c-0.023-1.298,0.934-1.617,0.546-3.279c-3.393,0.273-3.78,3.507-5.465,5.465C99.668,68.899,102.606,64.915,104.336,64.778z
			 M98.325,64.231c2.71-1.662,6.945-4.691,6.558-7.628C102.059,58.516,98.917,60.109,98.325,64.231z M104.336,34.218
			c0.045-2.118,2.687-6.877,0-8.175C102.765,27.204,102.606,33.079,104.336,34.218z M99.964,54.963
			c0.888-3.826,6.854-2.619,7.104-7.105C104.542,49.726,98.666,51.114,99.964,54.963z M100.511,74.046
			c1.025-2.596,3.871-3.393,3.826-7.082C101.809,65.552,98.393,70.835,100.511,74.046z M104.336,75.139
			c-0.25-1.025,0.729-3.279-1.093-2.733c-1.252,1.298-2.755,2.346-3.279,4.373C101.991,76.801,103.129,75.936,104.336,75.139z
			 M99.417,59.313c1.184-3.166,5.647-3.074,6.559-6.536C102.082,52.914,98.621,56.352,99.417,59.313z M102.697,36.95
			c-0.524-2.938,0.364-7.287-1.64-8.722C99.395,31.052,100.693,34.901,102.697,36.95z M101.057,41.322
			c0.16-4.167-0.364-7.651-2.732-9.291C96.89,35.447,98.894,39.729,101.057,41.322z M99.417,45.672
			c0.228-4.031-0.615-7.014-2.732-8.722C94.818,40.617,97.846,43.668,99.417,45.672z M98.325,49.498
			c0.091-3.734-1.048-6.239-3.279-7.628C93.565,44.966,95.523,48.906,98.325,49.498z M99.417,76.779
			c-0.683-3.143-4.167-3.484-6.012-5.465C92.905,75.64,96.662,75.708,99.417,76.779z M97.778,59.313
			c-0.022-4.327-3.37-5.352-5.465-7.629C91.971,56.397,95.751,56.99,97.778,59.313z M97.231,63.685
			c-0.045-4.145-2.687-5.693-4.919-7.628C90.673,60.041,94.635,62.205,97.231,63.685z M98.871,73.5c0-3.279-3.53-5.898-6.012-4.896
			C94.408,70.676,96.48,72.247,98.871,73.5z M97.231,53.87c-0.091-3.553-1.662-5.625-3.826-7.105
			C91.652,50.431,94.909,52.572,97.231,53.87z M98.871,68.604c-1.685-2.892-4.167-4.941-6.559-7.105
			C92.199,65.802,96.503,68.581,98.871,68.604z"/>
		<path d="M83.568,220.266c3.826,7.355-5.944,16.146-12.57,11.454C74.437,227.143,78.24,222.93,83.568,220.266z"/>
		<path d="M150.769,97.501c0.479,3.347,2.961,4.691,3.279,8.198c-5.032-4.737-18.878-6.399-24.047-0.546
			c-0.751-2.232,2.665-4.987,3.279-7.651C139.998,97.774,144.119,97.888,150.769,97.501z"/>
		<path d="M106.522,183.717c0,1.457,0,2.914,0,4.35c-2.004,0.182-3.575-0.068-4.919-0.524
			C100.693,183.717,103.289,183.397,106.522,183.717z M102.697,186.973c0.797,0,4.463,0.228,2.733-0.523
			c-5.169-0.022,1.024-1.389,0-1.64c-0.911,0-1.822,0-2.733,0C102.697,185.538,102.697,186.267,102.697,186.973z"/>
		<path d="M116.884,240.988c3.621,4.145-0.091,16.419-5.465,15.28C106.021,255.13,108.731,239.69,116.884,240.988z"/>
		<path d="M180.259,114.967c8.243,1.07,10.156,4.327,13.663,10.361c-3.644-1.617-6.103-3.871-9.838-4.349
			c-15.484-2.05-21.428,12.616-32.769,15.804c-1.959,0.137-3.279-0.364-3.826-1.617c-0.888,2.938-3.598,4.053-4.919,6.536
			c2.118,1.503,4.486,2.801,5.466,5.465c4.03-1.344,9.313,3.279,8.744,6.536c-4.873-1.913-8.106-2.368-13.116-4.372
			c-0.979-1.937,0.091-5.921-2.187-6.536c-2.915,0.159-1.913,4.281-2.732,6.536c-5.352,1.867-8.312,2.801-13.663,4.372
			c0.934-3.803,4.736-7.629,8.744-6.536c1.799-1.662,2.938-3.984,5.465-4.918c-0.478-3.962-5.943-5.579-3.826-10.361
			c-1.48,0.501-1.252,2.755-1.64,4.35c-14.187,0.364-19.06-17.512-36.048-15.257c-4.395,0.569-5.966,2.892-10.384,4.349
			c3.78-5.306,5.761-9.268,13.663-10.361c9.952-1.366,20.632,3.279,27.851,4.373c11.75,1.753,8.949-9.701,1.093-10.908
			c3.689-7.014,18.673-6.968,22.408,0c-5.943,0.615-10.293,9.815-2.732,11.455C156.074,121.275,168.668,113.464,180.259,114.967z
			 M150.223,135.167c12.957-4.213,22.089-21.201,39.327-14.187c-7.811-12.343-33.271,2.414-41.514,0
			c-7.105-2.095-2.983-12.229,1.64-13.641c-4.213-3.143-13.504-3.826-16.942,0.546c4.372,0.865,6.877,5.989,4.918,11.455
			c-13.321,4.851-33.976-10.635-45.339,1.64c19.379-7.242,25.983,10.657,39.874,14.187c1.025-2.437,0.866-6.058,4.919-5.465
			c-2.346,5.579,2.368,7.469,3.279,11.454c3.529-2.026,6.217-6.854,5.465-11.454C149.197,129.633,148.104,133.982,150.223,135.167z"
			/>
		<path d="M168.235,158.622c-0.023,12.935,0.045,28.67,0,39.828c-8.062-1.708-19.38-6.354-27.304-1.64
			c0.342-13.299-0.706-27.987,0.546-40.375C148.901,151.289,159.627,158.075,168.235,158.622z M167.142,196.264
			c0-12.183,0-24.366,0-36.549c-7.856-0.82-15.371-4.464-23.478-3.279c-2.141,10.43-1.139,26.871-0.547,38.188
			C150.086,190.799,159.263,195.877,167.142,196.264z"/>
		<path d="M136.559,153.156c2.163-2.915,7.127-3.279,9.291,0C142.069,154.204,139.861,155.343,136.559,153.156z M142.57,152.063
			c-1.73-0.091-3.301-0.023-3.825,1.093C140.111,153.657,142.479,154.204,142.57,152.063z"/>
		<path d="M52.439,201.706c0.546-6.08,11.477-9.974,15.826-5.442C68.151,202.686,56.766,206.397,52.439,201.706z"/>
	</g>
	<g>
	</g>
</g>
</svg>
