<?xml version="1.0" encoding="utf-8"?>
<!-- Generator: Adobe Illustrator 15.1.0, SVG Export Plug-In . SVG Version: 6.00 Build 0)  -->
<!DOCTYPE svg PUBLIC "-//W3C//DTD SVG 1.1//EN" "http://www.w3.org/Graphics/SVG/1.1/DTD/svg11.dtd">
<svg version="1.1" id="Layer_1" xmlns="http://www.w3.org/2000/svg" xmlns:xlink="http://www.w3.org/1999/xlink" x="0px" y="0px"
	 width="283.46px" height="283.46px" viewBox="0 0 283.46 283.46" enable-background="new 0 0 283.46 283.46" xml:space="preserve">
<g>
	<g>
		<path fill="none" d="M109.348,96.472c10.088-3.766,20.998-5.829,32.382-5.829s22.295,2.063,32.382,5.829
			c-1.114-24.021-13.693-45.094-32.382-57.862C123.042,51.378,110.462,72.451,109.348,96.472z"/>
		<path fill="none" d="M183.509,174.201c10.953,0,21.349-2.403,30.718-6.68c-3.622-16.434-12.688-30.846-25.223-41.222
			c-5.152,17.385-15.266,32.657-28.695,44.169C167.614,172.877,175.408,174.201,183.509,174.201z"/>
		<path fill="none" d="M111.012,115.94c4.132,18.745,15.355,34.856,30.718,45.353c15.363-10.496,26.586-26.607,30.718-45.353
			c-9.369-4.276-19.765-6.679-30.718-6.679S120.381,111.664,111.012,115.94z"/>
		<path fill="none" d="M90.836,105.871c-0.123-1.958-0.194-3.931-0.194-5.919c0-28.185,12.623-53.473,32.51-70.518
			c-7.305-2.409-15.1-3.732-23.2-3.732c-40.941,0-74.25,33.309-74.25,74.25c0,22.995,10.51,43.58,26.975,57.21
			C58.979,135.899,72.703,117.798,90.836,105.871z"/>
		<path fill="none" d="M183.509,25.702c-8.102,0-15.896,1.323-23.2,3.732c19.886,17.045,32.509,42.333,32.509,70.518
			c0,1.988-0.07,3.961-0.193,5.919c18.133,11.928,31.857,30.028,38.158,51.29c16.466-13.629,26.976-34.214,26.976-57.209
			C257.758,59.01,224.45,25.702,183.509,25.702z"/>
		<path fill="none" d="M69.234,167.522c9.368,4.275,19.765,6.679,30.718,6.679c8.101,0,15.896-1.323,23.2-3.732
			c-13.431-11.512-23.543-26.784-28.696-44.169C81.92,136.675,72.855,151.087,69.234,167.522z"/>
		<path fill="none" d="M141.73,182.873c-12.565,6.357-26.761,9.945-41.778,9.945c-11.385,0-22.295-2.063-32.383-5.829
			c1.824,39.331,34.387,70.77,74.161,70.77c39.773,0,72.337-31.438,74.161-70.77c-10.088,3.766-20.998,5.829-32.382,5.829
			C168.491,192.818,154.295,189.23,141.73,182.873z"/>
		<path d="M276.375,99.952c0-51.207-41.66-92.867-92.866-92.867c-15.019,0-29.214,3.588-41.779,9.944
			c-12.565-6.356-26.761-9.944-41.778-9.944c-51.207,0-92.867,41.66-92.867,92.867c0,32.429,16.713,61.023,41.974,77.639
			c-0.125,1.958-0.194,3.93-0.194,5.919c0,51.206,41.66,92.866,92.866,92.866c51.207,0,92.866-41.66,92.866-92.866
			c0-1.989-0.069-3.961-0.193-5.919C259.663,160.975,276.375,132.38,276.375,99.952z M25.702,99.952
			c0-40.941,33.309-74.25,74.25-74.25c8.101,0,15.896,1.323,23.2,3.732c-19.887,17.045-32.51,42.333-32.51,70.518
			c0,1.988,0.071,3.961,0.194,5.919c-18.134,11.928-31.857,30.028-38.16,51.291C36.211,143.532,25.702,122.947,25.702,99.952z
			 M174.112,96.472c-10.087-3.766-20.998-5.829-32.382-5.829s-22.294,2.063-32.382,5.829c1.114-24.021,13.693-45.094,32.382-57.862
			C160.418,51.378,172.998,72.451,174.112,96.472z M141.73,161.292c-15.362-10.496-26.586-26.607-30.718-45.353
			c9.369-4.276,19.765-6.679,30.718-6.679s21.349,2.402,30.718,6.679C168.316,134.685,157.093,150.796,141.73,161.292z
			 M189.004,126.299c12.535,10.376,21.601,24.788,25.223,41.222c-9.369,4.276-19.765,6.68-30.718,6.68
			c-8.102,0-15.896-1.323-23.2-3.732C173.739,158.957,183.852,143.684,189.004,126.299z M123.152,170.468
			c-7.305,2.409-15.1,3.732-23.2,3.732c-10.953,0-21.35-2.403-30.718-6.679c3.621-16.435,12.687-30.847,25.222-41.223
			C99.609,143.684,109.721,158.957,123.152,170.468z M141.73,257.758c-39.774,0-72.337-31.438-74.161-70.77
			c10.088,3.766,20.998,5.829,32.383,5.829c15.018,0,29.213-3.588,41.778-9.945c12.565,6.357,26.761,9.945,41.779,9.945
			c11.384,0,22.294-2.063,32.382-5.829C214.067,226.32,181.503,257.758,141.73,257.758z M230.783,157.161
			c-6.301-21.262-20.025-39.362-38.158-51.29c0.123-1.958,0.193-3.931,0.193-5.919c0-28.185-12.623-53.473-32.509-70.518
			c7.305-2.409,15.099-3.732,23.2-3.732c40.94,0,74.249,33.309,74.249,74.25C257.758,122.947,247.249,143.532,230.783,157.161z"/>
	</g>
	<path d="M141.73,161.292c-15.362-10.496-26.586-26.607-30.718-45.353c9.369-4.276,19.765-6.679,30.718-6.679
		s21.349,2.402,30.718,6.679C168.316,134.685,157.093,150.796,141.73,161.292z"/>
</g>
</svg>
