<?xml version="1.0" encoding="utf-8"?>
<!-- Generator: Adobe Illustrator 15.1.0, SVG Export Plug-In . SVG Version: 6.00 Build 0)  -->
<!DOCTYPE svg PUBLIC "-//W3C//DTD SVG 1.0//EN" "http://www.w3.org/TR/2001/REC-SVG-20010904/DTD/svg10.dtd">
<svg version="1.0" id="Layer_2" xmlns="http://www.w3.org/2000/svg" xmlns:xlink="http://www.w3.org/1999/xlink" x="0px" y="0px"
	 width="283.46px" height="283.46px" viewBox="0 0 283.46 283.46" enable-background="new 0 0 283.46 283.46" xml:space="preserve">
<path d="M273.961,61.022c1.888,1.897,1.888,4.967,0,6.867c-23.054,23.048-155.09,155.093-178.575,178.578
	c-0.945,0.947-2.232,1.477-3.573,1.477c-1.337,0-2.619-0.529-3.566-1.477C74.022,232.231,21.479,179.7,7.512,165.718
	c-1.901-1.891-1.901-4.969,0-6.86c5.951-5.954,18.111-18.122,24.063-24.07c1.899-1.901,4.974-1.901,6.864,0
	c10.132,10.126,39.82,39.81,49.943,49.944c1.901,1.901,4.971,1.901,6.869,0c20.562-20.56,127.213-127.219,147.78-147.773
	c1.901-1.896,4.966-1.896,6.864,0C255.839,42.903,268,55.074,273.961,61.022z"/>
</svg>
