<?xml version="1.0" encoding="utf-8"?>
<!-- Generator: Adobe Illustrator 15.1.0, SVG Export Plug-In . SVG Version: 6.00 Build 0)  -->
<!DOCTYPE svg PUBLIC "-//W3C//DTD SVG 1.1//EN" "http://www.w3.org/Graphics/SVG/1.1/DTD/svg11.dtd">
<svg version="1.1" id="Layer_3" xmlns="http://www.w3.org/2000/svg" xmlns:xlink="http://www.w3.org/1999/xlink" x="0px" y="0px"
	 width="283.465px" height="283.465px" viewBox="0 0 283.465 283.465" enable-background="new 0 0 283.465 283.465"
	 xml:space="preserve">
<g>
	<path d="M141.731,7.087C67.419,7.087,7.087,67.42,7.087,141.731c0,74.313,60.333,134.646,134.645,134.646
		c74.313,0,134.646-60.332,134.646-134.646C276.378,67.42,216.045,7.087,141.731,7.087z M116.59,199.793
		c-0.524,0.525-1.237,0.82-1.98,0.82c-0.742,0-1.454-0.297-1.979-0.82c-7.888-7.887-37.014-37.016-44.763-44.762
		c-1.051-1.053-1.051-2.756,0-3.807c3.3-3.302,10.045-10.045,13.345-13.346c1.052-1.051,2.756-1.051,3.807,0
		c5.616,5.617,22.072,22.074,27.688,27.688c1.051,1.053,2.756,1.053,3.807,0.002c11.401-11.403,70.529-70.53,81.928-81.929
		c1.052-1.052,2.757-1.052,3.809,0c3.3,3.3,10.044,10.045,13.344,13.345c1.051,1.052,1.051,2.755-0.002,3.807
		C202.813,113.569,129.608,186.775,116.59,199.793z"/>
</g>
</svg>
