<?xml version="1.0" encoding="utf-8"?>
<!-- Generator: Adobe Illustrator 15.1.0, SVG Export Plug-In . SVG Version: 6.00 Build 0)  -->
<!DOCTYPE svg PUBLIC "-//W3C//DTD SVG 1.1//EN" "http://www.w3.org/Graphics/SVG/1.1/DTD/svg11.dtd">
<svg version="1.1" id="Layer_3" xmlns="http://www.w3.org/2000/svg" xmlns:xlink="http://www.w3.org/1999/xlink" x="0px" y="0px"
	 width="283.46px" height="283.46px" viewBox="0 0 283.46 283.46" enable-background="new 0 0 283.46 283.46" xml:space="preserve">
<g>
	<path fill="none" d="M81.217,209.305c-11.324,0-20.517,9.192-20.517,20.518s9.195,20.517,20.517,20.517
		c11.323,0,20.515-9.193,20.515-20.517C101.732,218.496,92.54,209.305,81.217,209.305z M81.217,244.542
		c-8.126,0-14.719-6.596-14.719-14.719c0-8.125,6.593-14.723,14.719-14.723c8.124,0,14.722,6.598,14.722,14.723
		C95.939,237.945,89.341,244.542,81.217,244.542z"/>
	<path fill="none" d="M89.859,220.973c-1.737,1.731-10.748,10.741-12.482,12.479c-0.161,0.162-0.42,0.162-0.582,0
		c-0.854-0.854-3.362-3.361-4.217-4.217c-0.163-0.16-0.42-0.16-0.582,0c-0.502,0.5-1.531,1.529-2.034,2.033
		c-0.159,0.158-0.159,0.418,0,0.578c1.181,1.181,5.619,5.621,6.82,6.822c0.079,0.08,0.187,0.125,0.3,0.125
		c0.115,0,0.224-0.045,0.303-0.125c1.984-1.984,13.139-13.14,15.087-15.086c0.158-0.16,0.158-0.42,0.002-0.578
		c-0.502-0.504-1.53-1.53-2.033-2.032C90.278,220.811,90.02,220.811,89.859,220.973z"/>
	<path fill="none" d="M89.924,44.786c-1.735,1.739-10.745,10.747-12.479,12.482c-0.164,0.162-0.423,0.162-0.583,0
		c-0.854-0.855-3.362-3.363-4.218-4.218c-0.161-0.162-0.418-0.162-0.582,0c-0.502,0.502-1.53,1.53-2.033,2.034
		c-0.16,0.161-0.16,0.419,0,0.581c1.18,1.181,5.618,5.617,6.821,6.819c0.078,0.082,0.185,0.124,0.3,0.124
		c0.113,0,0.223-0.042,0.302-0.124c1.985-1.985,13.139-13.137,15.086-15.085c0.159-0.161,0.159-0.42,0.003-0.58
		c-0.502-0.501-1.531-1.531-2.034-2.033C90.345,44.626,90.087,44.626,89.924,44.786z"/>
	<path fill="none" d="M81.283,33.12c-11.323,0-20.515,9.192-20.515,20.515c0,11.325,9.194,20.518,20.515,20.518
		c11.323,0,20.516-9.195,20.516-20.518C101.799,42.312,92.606,33.12,81.283,33.12z M81.283,68.356
		c-8.123,0-14.718-6.594-14.718-14.719c0-8.122,6.594-14.72,14.718-14.72c8.126,0,14.722,6.594,14.722,14.72
		S89.408,68.356,81.283,68.356z"/>
	<path fill="none" d="M77.082,121.469c0.115,0,0.224-0.044,0.303-0.123c1.984-1.985,13.139-13.14,15.087-15.088
		c0.158-0.16,0.158-0.42,0.001-0.578c-0.502-0.503-1.53-1.531-2.033-2.033c-0.163-0.162-0.421-0.162-0.582,0
		c-1.737,1.733-10.748,10.744-12.482,12.482c-0.161,0.16-0.42,0.16-0.582,0c-0.854-0.855-3.362-3.362-4.217-4.218
		c-0.163-0.16-0.42-0.16-0.582,0c-0.502,0.501-1.531,1.531-2.034,2.032c-0.159,0.159-0.159,0.42,0.001,0.58
		c1.181,1.181,5.619,5.621,6.82,6.823C76.861,121.424,76.969,121.469,77.082,121.469z"/>
	<path fill="none" d="M81.218,133.016c11.323,0,20.515-9.195,20.515-20.517c0-11.326-9.192-20.518-20.515-20.518
		c-11.324,0-20.517,9.192-20.517,20.518C60.701,123.822,69.895,133.016,81.218,133.016z M81.217,97.778
		c8.124,0,14.722,6.597,14.722,14.721c0,8.121-6.598,14.719-14.722,14.719c-8.125,0-14.718-6.595-14.719-14.719
		C66.498,104.375,73.091,97.778,81.217,97.778z"/>
	<path fill="none" d="M90.507,162.112c-0.162-0.159-0.42-0.159-0.583,0c-1.735,1.738-10.745,10.746-12.479,12.479
		c-0.164,0.162-0.423,0.162-0.583,0c-0.854-0.854-3.362-3.361-4.218-4.217c-0.161-0.162-0.418-0.162-0.582,0
		c-0.502,0.502-1.53,1.531-2.033,2.033c-0.16,0.162-0.16,0.42,0,0.582c1.18,1.18,5.618,5.617,6.821,6.818
		c0.078,0.082,0.185,0.125,0.3,0.125c0.113,0,0.223-0.043,0.302-0.125c1.985-1.984,13.139-13.137,15.086-15.084
		c0.159-0.162,0.159-0.42,0.003-0.579C92.039,163.643,91.01,162.617,90.507,162.112z"/>
	<path fill="none" d="M81.283,150.446c-11.323,0-20.515,9.192-20.515,20.515c0,11.324,9.194,20.516,20.515,20.516
		c11.323,0,20.516-9.191,20.516-20.516C101.799,159.637,92.606,150.446,81.283,150.446z M81.283,185.682
		c-8.123,0-14.718-6.597-14.718-14.72c0-8.125,6.594-14.721,14.718-14.721c8.126,0,14.722,6.594,14.722,14.721
		C96.005,179.087,89.408,185.682,81.283,185.682z"/>
	<path d="M228.013,7.084H55.448c-6.8,0-12.312,5.512-12.312,12.312v244.672c0,6.799,5.512,12.309,12.312,12.309h172.565
		c6.799,0,12.313-5.512,12.313-12.309V19.395C240.326,12.597,234.812,7.084,228.013,7.084z M81.217,250.339
		c-11.322,0-20.517-9.191-20.517-20.517s9.193-20.518,20.517-20.518c11.323,0,20.515,9.19,20.515,20.518
		C101.732,241.146,92.54,250.339,81.217,250.339z M81.283,191.476c-11.321,0-20.515-9.191-20.515-20.516
		c0-11.322,9.192-20.515,20.515-20.515c11.323,0,20.516,9.191,20.516,20.515C101.799,182.285,92.606,191.476,81.283,191.476z
		 M60.701,112.499c0-11.326,9.193-20.518,20.517-20.518c11.323,0,20.515,9.192,20.515,20.518c0,11.322-9.192,20.517-20.515,20.517
		C69.895,133.016,60.701,123.822,60.701,112.499z M81.283,74.153c-11.321,0-20.515-9.193-20.515-20.518
		c0-11.323,9.192-20.515,20.515-20.515c11.323,0,20.516,9.192,20.516,20.515C101.799,64.958,92.606,74.153,81.283,74.153z
		 M228.897,247.563H116.23V38.917h112.667V247.563z"/>
	<path d="M81.217,127.218c8.124,0,14.722-6.598,14.722-14.719c0-8.124-6.598-14.721-14.722-14.721
		c-8.126,0-14.719,6.597-14.719,14.721C66.499,120.623,73.092,127.218,81.217,127.218z M69.961,113.943
		c0.503-0.501,1.532-1.531,2.034-2.032c0.162-0.16,0.419-0.16,0.582,0c0.855,0.856,3.363,3.363,4.217,4.218
		c0.162,0.16,0.421,0.16,0.582,0c1.734-1.738,10.745-10.749,12.482-12.482c0.161-0.162,0.419-0.162,0.582,0
		c0.503,0.502,1.531,1.53,2.033,2.033c0.157,0.158,0.157,0.418-0.001,0.578c-1.948,1.948-13.103,13.103-15.087,15.088
		c-0.079,0.079-0.188,0.123-0.303,0.123c-0.113,0-0.221-0.045-0.3-0.123c-1.201-1.202-5.639-5.642-6.82-6.823
		C69.802,114.363,69.802,114.102,69.961,113.943z"/>
	<path d="M81.283,38.917c-8.124,0-14.718,6.598-14.718,14.72c0,8.125,6.595,14.719,14.718,14.719
		c8.125,0,14.722-6.593,14.722-14.719S89.409,38.917,81.283,38.917z M92.538,47.399c-1.947,1.948-13.101,13.1-15.086,15.085
		c-0.079,0.082-0.189,0.124-0.302,0.124c-0.115,0-0.222-0.042-0.3-0.124c-1.203-1.202-5.641-5.638-6.821-6.819
		c-0.16-0.162-0.16-0.42,0-0.581c0.503-0.504,1.531-1.532,2.033-2.034c0.164-0.162,0.421-0.162,0.582,0
		c0.856,0.855,3.364,3.363,4.218,4.218c0.16,0.162,0.419,0.162,0.583,0c1.734-1.735,10.744-10.743,12.479-12.482
		c0.163-0.16,0.421-0.16,0.583,0c0.503,0.502,1.532,1.532,2.034,2.033C92.697,46.979,92.697,47.238,92.538,47.399z"/>
	<path d="M81.217,215.101c-8.126,0-14.719,6.598-14.719,14.723c0,8.123,6.593,14.719,14.719,14.719
		c8.124,0,14.722-6.598,14.722-14.719C95.939,221.699,89.341,215.101,81.217,215.101z M92.474,223.005
		c0.156,0.158,0.156,0.418-0.002,0.578c-1.948,1.946-13.103,13.102-15.087,15.086c-0.079,0.08-0.188,0.125-0.303,0.125
		c-0.113,0-0.221-0.045-0.3-0.125c-1.201-1.201-5.639-5.642-6.82-6.822c-0.159-0.16-0.159-0.42,0-0.578
		c0.503-0.504,1.532-1.533,2.034-2.033c0.162-0.16,0.419-0.16,0.582,0c0.855,0.855,3.363,3.363,4.217,4.217
		c0.162,0.162,0.421,0.162,0.582,0c1.734-1.738,10.745-10.748,12.482-12.479c0.161-0.162,0.419-0.162,0.582,0
		C90.944,221.475,91.972,222.501,92.474,223.005z"/>
	<path d="M81.283,156.242c-8.124,0-14.718,6.596-14.718,14.721c0,8.123,6.595,14.72,14.718,14.72c8.125,0,14.722-6.595,14.722-14.72
		C96.005,162.835,89.409,156.242,81.283,156.242z M92.538,164.724c-1.947,1.947-13.101,13.1-15.086,15.084
		c-0.079,0.082-0.189,0.125-0.302,0.125c-0.115,0-0.222-0.043-0.3-0.125c-1.203-1.201-5.641-5.639-6.821-6.818
		c-0.16-0.162-0.16-0.42,0-0.582c0.503-0.502,1.531-1.531,2.033-2.033c0.164-0.162,0.421-0.162,0.582,0
		c0.856,0.855,3.364,3.363,4.218,4.217c0.16,0.162,0.419,0.162,0.583,0c1.734-1.733,10.744-10.741,12.479-12.479
		c0.163-0.159,0.421-0.159,0.583,0c0.503,0.505,1.532,1.531,2.034,2.033C92.697,164.304,92.697,164.562,92.538,164.724z"/>
	<path d="M171.663,49.82c-0.029-0.246-0.071-0.449-0.128-0.603c-0.119-0.325-0.338-0.586-0.652-0.785s-0.684-0.297-1.107-0.297
		c-0.766,0-1.4,0.255-1.906,0.764c-0.236,0.238-0.412,0.549-0.538,0.921H171.663z"/>
	<path d="M183.667,171.552c0.214,0.653,0.506,1.152,0.88,1.491c0.508,0.461,1.129,0.692,1.859,0.692
		c0.869,0,1.602-0.301,2.201-0.902c0.368-0.37,0.608-0.802,0.75-1.281H183.667z"/>
	<path d="M171.698,167.552c-0.024-0.439-0.078-0.779-0.163-1.01c-0.119-0.324-0.338-0.586-0.652-0.785
		c-0.314-0.197-0.684-0.297-1.107-0.297c-0.766,0-1.4,0.255-1.906,0.764c-0.316,0.318-0.522,0.771-0.641,1.328H171.698z"/>
	<path d="M154.418,167.552c-0.121-0.451-0.292-0.827-0.526-1.107c-0.588-0.711-1.35-1.066-2.286-1.066
		c-0.848,0-1.561,0.283-2.138,0.852c-0.367,0.36-0.618,0.807-0.777,1.322H154.418z"/>
	<path d="M154.286,49.82c-0.107-0.27-0.234-0.51-0.394-0.7c-0.588-0.711-1.35-1.066-2.286-1.066c-0.848,0-1.561,0.284-2.138,0.851
		c-0.268,0.263-0.474,0.571-0.631,0.916H154.286z"/>
	<path d="M154.418,109.089c-0.122-0.451-0.292-0.827-0.526-1.107c-0.588-0.711-1.35-1.066-2.286-1.066
		c-0.848,0-1.561,0.284-2.138,0.851c-0.367,0.36-0.618,0.807-0.776,1.322H154.418z"/>
	<path d="M171.698,109.089c-0.024-0.439-0.078-0.779-0.163-1.009c-0.119-0.325-0.338-0.586-0.652-0.785s-0.684-0.297-1.107-0.297
		c-0.766,0-1.4,0.255-1.906,0.764c-0.316,0.318-0.521,0.771-0.641,1.328H171.698z"/>
	<path d="M148.697,171.552c0.17,0.48,0.409,0.89,0.725,1.219c0.609,0.637,1.367,0.954,2.277,0.954c0.676,0,1.254-0.178,1.732-0.533
		c0.465-0.346,0.834-0.895,1.112-1.64H148.697z"/>
	<path d="M164.812,107.613c-0.301-0.41-0.793-0.615-1.477-0.615c-0.52,0-0.998,0.137-1.439,0.41s-0.761,0.673-0.959,1.2
		c-0.054,0.143-0.099,0.305-0.138,0.481h4.446C165.205,108.455,165.065,107.957,164.812,107.613z"/>
	<path d="M154.589,227.367c-0.082-0.916-0.314-1.603-0.697-2.061c-0.588-0.711-1.35-1.066-2.286-1.066
		c-0.848,0-1.561,0.283-2.138,0.852c-0.578,0.566-0.897,1.326-0.959,2.275H154.589z"/>
	<path d="M165.246,167.552c-0.041-0.634-0.181-1.132-0.434-1.477c-0.301-0.41-0.793-0.615-1.477-0.615
		c-0.52,0-0.998,0.137-1.439,0.41s-0.761,0.674-0.959,1.199c-0.054,0.143-0.099,0.306-0.138,0.482H165.246z"/>
	<path d="M116.23,247.563h112.667V38.917H116.23V247.563z M136.625,220.949v-2.123h1.846v2.123H136.625z M136.625,222.968h1.846
		v10.89h-1.846V222.968z M144.182,234.001c-0.67,0-1.189-0.105-1.559-0.318c-0.369-0.211-0.629-0.49-0.779-0.835
		s-0.226-1.071-0.226-2.179v-6.266h-1.354v-1.436h1.354v-2.697l1.836-1.107v3.805h1.855v1.436h-1.855v6.367
		c0,0.527,0.031,0.865,0.098,1.016c0.064,0.15,0.17,0.27,0.316,0.359c0.147,0.088,0.357,0.133,0.631,0.133
		c0.205,0,0.476-0.023,0.811-0.072l0.267,1.631C145.057,233.947,144.592,234.001,144.182,234.001z M151.688,234.104
		c-1.593,0-2.856-0.49-3.788-1.472c-0.934-0.98-1.4-2.356-1.4-4.127c0-1.832,0.472-3.254,1.415-4.266s2.167-1.518,3.671-1.518
		c1.456,0,2.646,0.496,3.568,1.486c0.923,0.992,1.385,2.387,1.385,4.184c0,0.109-0.004,0.273-0.011,0.492h-8.121
		c0.068,1.197,0.407,2.113,1.015,2.748c0.609,0.637,1.367,0.954,2.277,0.954c0.676,0,1.254-0.178,1.732-0.533
		s0.857-0.923,1.139-1.702l1.906,0.236c-0.301,1.113-0.857,1.979-1.671,2.594S152.953,234.104,151.688,234.104z M167.109,227.531
		v6.327h-1.846v-7.075c0-0.82-0.15-1.436-0.451-1.846s-0.793-0.615-1.477-0.615c-0.52,0-0.998,0.137-1.439,0.41
		s-0.761,0.674-0.959,1.199c-0.198,0.527-0.297,1.285-0.297,2.277v5.649h-1.846v-10.89h1.65v1.527
		c0.342-0.533,0.797-0.961,1.363-1.286c0.568-0.325,1.213-0.487,1.938-0.487c0.807,0,1.469,0.168,1.984,0.502
		c0.518,0.336,0.881,0.804,1.092,1.405c0.861-1.271,1.982-1.907,3.363-1.907c1.08,0,1.912,0.299,2.492,0.897
		c0.582,0.599,0.871,1.519,0.871,2.763v7.476h-1.834v-6.86c0-0.738-0.061-1.27-0.18-1.594s-0.338-0.586-0.652-0.785
		c-0.314-0.197-0.684-0.297-1.107-0.297c-0.766,0-1.4,0.255-1.906,0.764C167.363,225.595,167.109,226.41,167.109,227.531z
		 M187.525,233.858v-3.599h-6.521v-1.692l6.859-9.741h1.508v9.741h2.029v1.692h-2.029v3.599H187.525z M136.625,42.64h1.846v2.123
		h-1.846V42.64z M119.416,49.82h17.209v-3.038h1.846v3.038h3.148v-1.603h-1.354v-1.436h1.354v-2.697l1.836-1.107v3.804h1.855v1.436
		h-1.855v1.603h3.425c0.235-0.684,0.577-1.276,1.035-1.767c0.943-1.012,2.167-1.518,3.671-1.518c1.456,0,2.646,0.496,3.568,1.487
		c0.463,0.498,0.81,1.097,1.04,1.797h2.601v-3.038h1.65v1.528c0.342-0.533,0.797-0.962,1.363-1.287
		c0.568-0.325,1.213-0.487,1.938-0.487c0.807,0,1.469,0.167,1.984,0.502c0.518,0.335,0.881,0.803,1.092,1.405
		c0.861-1.271,1.982-1.907,3.363-1.907c1.08,0,1.912,0.299,2.492,0.897c0.52,0.534,0.792,1.339,0.848,2.387h13.189v-3.91
		c-0.445,0.424-1.027,0.848-1.748,1.271s-1.369,0.742-1.943,0.954v-1.784c1.031-0.485,1.934-1.073,2.707-1.764
		c0.771-0.69,1.318-1.36,1.641-2.01h1.189v7.242h15.863c1.104,0,2,0.896,2,2s-0.896,2-2,2H188.56v3.852h-1.846V53.82h-13.166v3.852
		h-1.834V53.82h-4.605v3.852h-1.846V53.82h-4.623v3.852h-1.846V53.82h-10.21c0.167,0.659,0.438,1.209,0.837,1.626
		c0.609,0.636,1.367,0.954,2.277,0.954c0.676,0,1.254-0.178,1.732-0.533s0.857-0.923,1.139-1.702l1.906,0.236
		c-0.301,1.114-0.857,1.979-1.671,2.594s-1.853,0.923-3.117,0.923c-1.593,0-2.856-0.49-3.788-1.472
		c-0.648-0.681-1.056-1.564-1.254-2.626h-3.191v0.765c0,0.526,0.031,0.865,0.098,1.015c0.064,0.15,0.17,0.27,0.316,0.359
		c0.147,0.089,0.357,0.133,0.631,0.133c0.205,0,0.476-0.024,0.811-0.072l0.267,1.63c-0.52,0.109-0.984,0.164-1.395,0.164
		c-0.67,0-1.189-0.106-1.559-0.318s-0.629-0.49-0.779-0.835s-0.226-1.072-0.226-2.179V53.82h-3.148v3.852h-1.846V53.82h-17.209
		c-1.104,0-2-0.896-2-2S118.312,49.82,119.416,49.82z M136.625,101.501h1.846v2.123h-1.846V101.501z M119.416,109.089h17.209v-3.445
		h1.846v3.445h3.148v-2.009h-1.354v-1.436h1.354v-2.697l1.836-1.107v3.804h1.855v1.436h-1.855v2.009h3.318
		c0.229-0.855,0.598-1.59,1.142-2.173c0.943-1.012,2.167-1.518,3.671-1.518c1.456,0,2.646,0.496,3.568,1.487
		c0.547,0.587,0.911,1.333,1.135,2.204h2.506v-3.445h1.65v1.528c0.342-0.533,0.797-0.962,1.363-1.287
		c0.568-0.325,1.213-0.487,1.938-0.487c0.807,0,1.469,0.167,1.984,0.502c0.518,0.335,0.881,0.803,1.092,1.405
		c0.861-1.271,1.982-1.907,3.363-1.907c1.08,0,1.912,0.299,2.492,0.897c0.582,0.598,0.871,1.519,0.871,2.763v0.03h13.807
		c0.506-0.492,0.903-0.928,1.174-1.296c0.574-0.783,0.861-1.523,0.861-2.22c0-0.731-0.262-1.348-0.783-1.851
		c-0.523-0.502-1.205-0.753-2.047-0.753c-0.889,0-1.6,0.267-2.133,0.8s-0.803,1.271-0.811,2.215l-1.896-0.195
		c0.131-1.415,0.619-2.493,1.467-3.235c0.848-0.741,1.986-1.112,3.414-1.112c1.443,0,2.584,0.4,3.426,1.2
		c0.84,0.8,1.26,1.791,1.26,2.974c0,0.602-0.123,1.193-0.369,1.774c-0.229,0.54-0.604,1.108-1.113,1.702h14.619c1.104,0,2,0.896,2,2
		s-0.896,2-2,2h-18.995c-0.323,0.288-0.566,0.516-0.714,0.671c-0.314,0.332-0.574,0.665-0.779,1h7.373v1.774h-9.936
		c-0.014-0.444,0.057-0.872,0.215-1.282c0.252-0.677,0.658-1.343,1.215-2c0.045-0.053,0.101-0.11,0.148-0.164h-9.402v3.445h-1.834
		v-3.445h-4.605v3.445h-1.846v-3.445h-4.623v3.445h-1.846v-3.445h-3.724l1.405,0.174c-0.301,1.114-0.857,1.979-1.671,2.594
		s-1.853,0.923-3.117,0.923c-1.593,0-2.856-0.49-3.788-1.472c-0.563-0.59-0.934-1.342-1.157-2.219h-3.288v0.358
		c0,0.526,0.031,0.865,0.098,1.015c0.064,0.15,0.17,0.27,0.316,0.359c0.147,0.089,0.357,0.133,0.631,0.133
		c0.205,0,0.476-0.024,0.811-0.072l0.267,1.63c-0.52,0.109-0.984,0.164-1.395,0.164c-0.67,0-1.189-0.106-1.559-0.318
		s-0.629-0.49-0.779-0.835s-0.226-1.072-0.226-2.179v-0.256h-3.148v3.445h-1.846v-3.445h-17.209c-1.104,0-2-0.896-2-2
		S118.312,109.089,119.416,109.089z M138.471,162.087h-1.846v-2.123h1.846V162.087z M119.416,167.552h17.209v-3.445h1.846v3.445
		h3.148v-2.01h-1.354v-1.436h1.354v-2.697l1.836-1.107v3.805h1.855v1.436h-1.855v2.01h3.317c0.23-0.855,0.599-1.591,1.143-2.174
		c0.943-1.012,2.167-1.518,3.671-1.518c1.456,0,2.646,0.496,3.568,1.486c0.547,0.588,0.912,1.335,1.135,2.205h2.506v-3.445h1.65
		v1.527c0.342-0.533,0.797-0.961,1.363-1.286c0.568-0.325,1.213-0.487,1.938-0.487c0.807,0,1.469,0.168,1.984,0.502
		c0.518,0.336,0.881,0.804,1.092,1.405c0.861-1.271,1.982-1.907,3.363-1.907c1.08,0,1.912,0.299,2.492,0.897
		c0.582,0.599,0.871,1.519,0.871,2.763v0.031h11.751l0.163-1.292c0.123,0.014,0.223,0.021,0.299,0.021
		c0.785,0,1.492-0.205,2.121-0.615s0.943-1.043,0.943-1.896c0-0.678-0.229-1.238-0.686-1.682c-0.459-0.445-1.051-0.667-1.775-0.667
		c-0.717,0-1.314,0.226-1.793,0.677s-0.787,1.128-0.924,2.03l-1.846-0.328c0.227-1.237,0.738-2.196,1.539-2.876
		c0.799-0.68,1.793-1.021,2.982-1.021c0.82,0,1.576,0.177,2.268,0.528c0.689,0.352,1.219,0.832,1.584,1.44s0.549,1.255,0.549,1.938
		c0,0.648-0.176,1.24-0.523,1.773c-0.35,0.533-0.865,0.957-1.549,1.271c0.583,0.135,1.071,0.373,1.484,0.697h14.287
		c1.104,0,2,0.896,2,2s-0.896,2-2,2h-13.065c-0.187,0.889-0.627,1.671-1.331,2.342c-0.957,0.913-2.168,1.369-3.631,1.369
		c-1.318,0-2.414-0.393-3.285-1.18c-0.745-0.67-1.199-1.521-1.397-2.531h-8.165v3.444h-1.834v-3.444h-4.605v3.444h-1.846v-3.444
		h-4.623v3.444h-1.846v-3.444h-3.721l1.402,0.174c-0.301,1.113-0.857,1.979-1.671,2.594s-1.853,0.923-3.117,0.923
		c-1.593,0-2.856-0.49-3.788-1.472c-0.563-0.59-0.934-1.342-1.157-2.219h-3.288v0.357c0,0.527,0.031,0.865,0.098,1.016
		c0.064,0.15,0.17,0.27,0.316,0.359c0.147,0.088,0.357,0.133,0.631,0.133c0.205,0,0.476-0.023,0.811-0.072l0.267,1.631
		c-0.52,0.109-0.984,0.164-1.395,0.164c-0.67,0-1.189-0.105-1.559-0.318c-0.369-0.211-0.629-0.49-0.779-0.835
		s-0.226-1.071-0.226-2.179v-0.256h-3.148v3.444h-1.846v-3.444h-17.209c-1.104,0-2-0.896-2-2S118.312,167.552,119.416,167.552z"/>
	<path d="M148.697,113.089c0.17,0.481,0.409,0.89,0.725,1.22c0.609,0.636,1.367,0.954,2.277,0.954c0.676,0,1.254-0.178,1.732-0.533
		c0.465-0.345,0.834-0.895,1.112-1.64H148.697z"/>
	<polygon points="187.525,221.789 182.818,228.567 187.525,228.567 	"/>
	<path d="M165.202,49.82c-0.068-0.44-0.194-0.803-0.39-1.069c-0.301-0.41-0.793-0.615-1.477-0.615c-0.52,0-0.998,0.137-1.439,0.41
		s-0.761,0.673-0.959,1.2c-0.009,0.022-0.014,0.051-0.022,0.075H165.202z"/>
</g>
</svg>
