<?xml version="1.0" encoding="utf-8"?>
<!-- Generator: Adobe Illustrator 15.1.0, SVG Export Plug-In . SVG Version: 6.00 Build 0)  -->
<!DOCTYPE svg PUBLIC "-//W3C//DTD SVG 1.1//EN" "http://www.w3.org/Graphics/SVG/1.1/DTD/svg11.dtd">
<svg version="1.1" id="Layer_1" xmlns="http://www.w3.org/2000/svg" xmlns:xlink="http://www.w3.org/1999/xlink" x="0px" y="0px"
	 width="283.465px" height="283.465px" viewBox="0 0 283.465 283.465" enable-background="new 0 0 283.465 283.465"
	 xml:space="preserve">
<g>
	<path d="M141.731,7.087C67.419,7.087,7.087,67.42,7.087,141.731c0,74.313,60.333,134.646,134.645,134.646
		c74.313,0,134.646-60.332,134.646-134.646C276.378,67.42,216.045,7.087,141.731,7.087z M141.731,242.717
		c-55.734,0-100.983-45.25-100.983-100.984c0-55.734,45.25-100.983,100.983-100.983c55.736,0,100.986,45.249,100.986,100.983
		C242.718,197.467,197.468,242.717,141.731,242.717z"/>
	<path d="M215.596,96.984c-3.3-3.3-10.044-10.045-13.344-13.345c-1.052-1.052-2.757-1.052-3.809,0
		c-11.399,11.399-70.527,70.526-81.928,81.929c-1.051,1.051-2.756,1.051-3.807-0.002c-5.616-5.613-22.072-22.07-27.688-27.687
		c-1.051-1.051-2.755-1.051-3.807,0c-3.3,3.3-10.045,10.044-13.345,13.345c-1.051,1.051-1.051,2.754,0,3.807
		c7.749,7.746,36.875,36.875,44.763,44.762c0.525,0.523,1.237,0.82,1.979,0.82c0.743,0,1.456-0.295,1.98-0.82
		c13.018-13.018,86.223-86.224,99.004-99.002C216.646,99.739,216.646,98.036,215.596,96.984z"/>
</g>
</svg>
