<?xml version="1.0" encoding="utf-8"?>
<!-- Generator: Adobe Illustrator 15.1.0, SVG Export Plug-In . SVG Version: 6.00 Build 0)  -->
<!DOCTYPE svg PUBLIC "-//W3C//DTD SVG 1.0//EN" "http://www.w3.org/TR/2001/REC-SVG-20010904/DTD/svg10.dtd">
<svg version="1.0" id="Layer_1" xmlns="http://www.w3.org/2000/svg" xmlns:xlink="http://www.w3.org/1999/xlink" x="0px" y="0px"
	 width="283.46px" height="283.46px" viewBox="0 0 283.46 283.46" enable-background="new 0 0 283.46 283.46" xml:space="preserve">
<g>
	<path fill="none" d="M228.454,55.007c-23.165-23.165-53.964-35.922-86.724-35.922S78.171,31.842,55.007,55.007
		C31.842,78.171,19.084,108.97,19.084,141.73s12.757,63.559,35.922,86.724c23.165,23.164,53.963,35.922,86.723,35.922
		s63.559-12.758,86.724-35.922c23.164-23.165,35.922-53.964,35.922-86.724S251.618,78.171,228.454,55.007z"/>
	<path d="M141.73,7.084C67.368,7.084,7.084,67.368,7.084,141.73S67.368,276.375,141.73,276.375s134.646-60.283,134.646-134.646
		S216.092,7.084,141.73,7.084z M228.454,228.454c-23.165,23.164-53.964,35.922-86.724,35.922s-63.559-12.758-86.723-35.922
		c-23.165-23.165-35.922-53.964-35.922-86.724s12.757-63.559,35.922-86.723c23.165-23.165,53.963-35.922,86.723-35.922
		s63.559,12.757,86.724,35.922c23.164,23.165,35.922,53.963,35.922,86.723S251.618,205.289,228.454,228.454z"/>
</g>
</svg>
