<?xml version="1.0" encoding="utf-8"?>
<!-- Generator: Adobe Illustrator 15.1.0, SVG Export Plug-In . SVG Version: 6.00 Build 0)  -->
<!DOCTYPE svg PUBLIC "-//W3C//DTD SVG 1.1//EN" "http://www.w3.org/Graphics/SVG/1.1/DTD/svg11.dtd">
<svg version="1.1" id="Layer_2" xmlns="http://www.w3.org/2000/svg" xmlns:xlink="http://www.w3.org/1999/xlink" x="0px" y="0px"
	 width="283.465px" height="283.465px" viewBox="0 0 283.465 283.465" enable-background="new 0 0 283.465 283.465"
	 xml:space="preserve">
<g>
	<path d="M193.641,75.279c-1.316-1.319-3.104-2.061-4.968-2.061h-20.924v6.572c0,1.888-1.524,3.416-3.413,3.416h-45.207
		c-1.886,0-3.416-1.528-3.416-3.416v-6.572H94.792c-1.864,0-3.651,0.741-4.971,2.061c-1.316,1.316-2.058,3.106-2.058,4.971
		c0,25.608,0,113.768,0,139.379c0,1.864,0.742,3.65,2.058,4.969c1.319,1.315,3.106,2.061,4.971,2.061c19.539,0,74.339,0,93.881,0
		c1.864,0,3.649-0.744,4.968-2.061c1.316-1.318,2.062-3.104,2.062-4.969c0-25.611,0-113.771,0-139.379
		C195.702,78.386,194.957,76.596,193.641,75.279z"/>
	<path d="M121.106,79.79c7.452,0,33.801,0,41.251,0c1.091,0,1.979-0.885,1.979-1.978V66.647h-14.563
		c0.105-0.527,0.16-1.074,0.16-1.632c0-4.529-3.676-8.207-8.202-8.207c-4.53,0-8.205,3.678-8.205,8.207
		c0,0.558,0.057,1.106,0.161,1.632h-14.56c0,0,0,7.496,0,11.165C119.128,78.905,120.012,79.79,121.106,79.79z M141.732,60.912
		c2.263,0,4.104,1.838,4.104,4.104c0,2.264-1.841,4.101-4.104,4.101c-2.264,0-4.104-1.837-4.104-4.101
		C137.629,62.75,139.469,60.912,141.732,60.912z"/>
</g>
</svg>
