<?xml version="1.0" encoding="iso-8859-1"?>
<!-- Generator: Adobe Illustrator 15.1.0, SVG Export Plug-In . SVG Version: 6.00 Build 0)  -->
<!DOCTYPE svg PUBLIC "-//W3C//DTD SVG 1.1//EN" "http://www.w3.org/Graphics/SVG/1.1/DTD/svg11.dtd">
<svg version="1.1" id="Layer_3" xmlns="http://www.w3.org/2000/svg" xmlns:xlink="http://www.w3.org/1999/xlink" x="0px" y="0px"
	 width="283.46px" height="283.46px" viewBox="0 0 283.46 283.46" style="enable-background:new 0 0 283.46 283.46;"
	 xml:space="preserve">
<g>
	<path d="M141.729,7.084C67.367,7.084,7.084,67.367,7.084,141.73c0,74.363,60.283,134.646,134.645,134.646
		c74.364,0,134.647-60.283,134.647-134.646C276.376,67.367,216.093,7.084,141.729,7.084z M134.729,26.247c0-0.552,0.448-1,1-1
		h11.999c0.553,0,1,0.448,1,1v35.995c0,0.552-0.447,1-1,1h-11.999c-0.552,0-1-0.448-1-1V26.247z M44.716,78.792l31.172,17.998
		l0,0.001l-5.999,10.389L38.72,89.183l-0.002-0.001L44.716,78.792z M25.248,147.73v-11.999c0-0.265,0.106-0.519,0.293-0.707
		c0.093-0.094,0.204-0.167,0.324-0.217c0.067-0.027,0.142-0.03,0.213-0.042c0.057-0.01,0.111-0.034,0.17-0.034h35.994h0.001
		c0.552,0,1,0.448,1,1v11.999c0,0.266-0.105,0.518-0.293,0.707c-0.188,0.186-0.442,0.293-0.707,0.293h-0.001H26.248
		C25.696,148.73,25.248,148.283,25.248,147.73z M44.718,204.671l-5.999-10.389l0.003-0.002l31.168-17.996l5.998,10.387l0.001,0.002
		L44.718,204.671z M78.793,44.716l10.391-5.999l17.997,31.171l-0.002,0.001l-10.388,5.998l-17.997-31.17L78.793,44.716z
		 M89.195,244.748l-10.392-6l0-0.002l17.997-31.17l10.381,5.994l0.01,0.006L89.195,244.748z M148.73,257.212c0,0.553-0.447,1-1,1
		h-11.999c-0.552,0-1-0.447-1-1v-35.994c0-0.553,0.448-1,1-1h11.999c0.553,0,1,0.447,1,1V257.212z M144.683,159.714
		c0.643,0.236,1.045,0.549,1.045,0.896v31.328c0,0.74-1.791,1.342-4,1.342s-4-0.602-4-1.342v-31.328c0-0.346,0.402-0.66,1.046-0.896
		c-8.669-1.414-15.293-8.918-15.293-17.987c0-10.078,8.169-18.247,18.247-18.247c0.632,0,1.257,0.032,1.873,0.094
		c4.307,0.439,8.17,2.377,11.063,5.284l43.74-24.311c1.314-0.73,3.248,0.244,4.32,2.175c0.135,0.241,0.25,0.486,0.344,0.731
		c0.189,0.49,0.303,0.982,0.338,1.449c0.09,1.167-0.295,2.181-1.115,2.637l-43.377,24.105c0.676,1.904,1.063,3.946,1.063,6.082
		C159.976,150.796,153.351,158.3,144.683,159.714z M201.681,240.464l-7.41,4.279l-17.998-31.172l0.008-0.004l10.383-5.994
		l17.998,31.17L201.681,240.464z M186.669,75.894l-10.391-6l0.002-0.001l18-31.171l10.385,5.997l0.006,0.003L186.669,75.894z
		 M207.568,96.787l31.17-17.991l5.996,10.39l0.002,0.002l-21.992,12.693l-9.178,5.297l-0.006,0.003l-5.998-10.391L207.568,96.787z
		 M238.746,204.669l-31.17-17.998l5.998-10.391l31.166,17.994l0.006,0.004L238.746,204.669z M257.212,148.728h-35.994
		c-0.553,0-1-0.447-1-1v-12c0-0.265,0.105-0.519,0.293-0.707s0.441-0.293,0.707-0.293l35.996,0.001c0.266,0,0.518,0.106,0.705,0.293
		c0.189,0.187,0.293,0.442,0.293,0.707v11.999C258.212,148.281,257.765,148.728,257.212,148.728z"/>
</g>
</svg>
