<?xml version="1.0" encoding="utf-8"?>
<!-- Generator: Adobe Illustrator 15.1.0, SVG Export Plug-In . SVG Version: 6.00 Build 0)  -->
<!DOCTYPE svg PUBLIC "-//W3C//DTD SVG 1.0//EN" "http://www.w3.org/TR/2001/REC-SVG-20010904/DTD/svg10.dtd">
<svg version="1.0" id="Layer_1" xmlns="http://www.w3.org/2000/svg" xmlns:xlink="http://www.w3.org/1999/xlink" x="0px" y="0px"
	 width="283.46px" height="283.46px" viewBox="0 0 283.46 283.46" enable-background="new 0 0 283.46 283.46" xml:space="preserve">
<g id="Layer_3">
</g>
<g id="Layer_3_1_">
</g>
<g>
	<path d="M64.333,57.321h159.182v-45.84c0-2.429-1.963-4.396-4.385-4.396H13.637c-2.422,0-4.386,1.968-4.386,4.396v206.765
		c0,2.426,1.964,4.393,4.386,4.393h42.81V65.218C56.447,60.864,59.984,57.321,64.333,57.321z"/>
	<path d="M269.825,64.321H64.333c-0.488,0-0.886,0.402-0.886,0.896v206.764c0,0.493,0.397,0.895,0.886,0.895h205.492
		c0.487,0,0.884-0.401,0.884-0.895V65.218C270.708,64.724,270.312,64.321,269.825,64.321z"/>
</g>
</svg>
