<?xml version="1.0" encoding="utf-8"?>
<!-- Generator: Adobe Illustrator 15.1.0, SVG Export Plug-In . SVG Version: 6.00 Build 0)  -->
<!DOCTYPE svg PUBLIC "-//W3C//DTD SVG 1.1//EN" "http://www.w3.org/Graphics/SVG/1.1/DTD/svg11.dtd">
<svg version="1.1" id="Layer_1" xmlns="http://www.w3.org/2000/svg" xmlns:xlink="http://www.w3.org/1999/xlink" x="0px" y="0px"
	 width="283.46px" height="283.46px" viewBox="0 0 283.46 283.46" enable-background="new 0 0 283.46 283.46" xml:space="preserve">
<g id="Layer_3">
</g>
<g id="Layer_3_1_">
</g>
<g>
	<path fill="none" d="M4.098,7.89c0.073-0.154,0.129-0.313,0.208-0.465C5.57,4.984,7.557,3.094,9.923,1.951
		C7.026,2.659,4.752,4.968,4.098,7.89z"/>
	<path d="M58.502,64.659c2.143-4.136,6.35-6.704,10.982-6.704h155.682V13.116v-0.003c0-1.442-0.703-2.711-1.773-3.512
		c-0.057-0.041-0.102-0.093-0.16-0.131c-0.699-0.475-1.543-0.751-2.451-0.751h-42.811l0,0H15.29h-0.001
		c-1.694,0-3.147,0.974-3.878,2.384c-0.313,0.605-0.508,1.283-0.508,2.013v206.764c0,2.426,1.964,4.395,4.387,4.395h41.809V70.351
		C57.098,68.375,57.57,66.461,58.502,64.659z"/>
	<path d="M277.588,66.836c-0.057-0.041-0.102-0.093-0.16-0.131c-0.699-0.475-1.543-0.751-2.451-0.751h-42.811l0,0H69.485h-0.002
		c-1.693,0-3.146,0.974-3.877,2.384c-0.313,0.605-0.508,1.283-0.508,2.013v206.764c0,2.426,1.964,4.395,4.387,4.395h42.809v-0.002
		h119.873v0.002h42.811c2.422,0,4.385-1.969,4.385-4.395v-0.002V116.191v-45.84v-0.003
		C279.362,68.906,278.659,67.637,277.588,66.836z"/>
</g>
</svg>
