<?xml version="1.0" encoding="utf-8"?>
<!-- Generator: Adobe Illustrator 15.1.0, SVG Export Plug-In . SVG Version: 6.00 Build 0)  -->
<!DOCTYPE svg PUBLIC "-//W3C//DTD SVG 1.0//EN" "http://www.w3.org/TR/2001/REC-SVG-20010904/DTD/svg10.dtd">
<svg version="1.0" id="Layer_1" xmlns:serif="http://www.serif.com/"
	 xmlns="http://www.w3.org/2000/svg" xmlns:xlink="http://www.w3.org/1999/xlink" x="0px" y="0px" width="283.46px"
	 height="283.46px" viewBox="0 0 283.46 283.46" enable-background="new 0 0 283.46 283.46" xml:space="preserve">
<g>
	<path fill="none" d="M195.38,123.07h-18.668c-1.151,0-2.085-0.934-2.085-2.085c0-21.729-17.677-39.407-39.404-39.407
		c-21.729,0-39.407,17.678-39.407,39.407c0,1.151-0.934,2.085-2.085,2.085c-21.728,0-39.405,17.677-39.405,39.405
		c0,21.729,17.677,39.406,39.405,39.406H195.38c21.729,0,39.407-17.678,39.407-39.406C234.788,140.747,217.11,123.07,195.38,123.07z
		"/>
	<path d="M195.38,118.9h-16.632c-1.093-23.063-20.198-41.492-43.525-41.492c-23.345,0-42.461,18.453-43.53,41.539
		c-23.084,1.069-41.537,20.184-41.537,43.528c0,24.028,19.547,43.576,43.575,43.576H195.38c24.028,0,43.577-19.548,43.577-43.576
		C238.958,138.448,219.409,118.9,195.38,118.9z M195.38,201.881H93.731c-21.728,0-39.405-17.678-39.405-39.406
		c0-21.728,17.677-39.405,39.405-39.405c1.151,0,2.085-0.934,2.085-2.085c0-21.729,17.678-39.407,39.407-39.407
		c21.728,0,39.404,17.678,39.404,39.407c0,1.151,0.934,2.085,2.085,2.085h18.668c21.729,0,39.407,17.677,39.407,39.405
		C234.788,184.204,217.11,201.881,195.38,201.881z"/>
	<path d="M214.566,88.219h-13.4c-1.085-19.088-16.956-34.286-36.31-34.286c-4.915,0-9.685,0.966-14.179,2.872
		c-5.787,2.455-10.875,6.402-14.714,11.417c-0.7,0.915-0.526,2.223,0.388,2.923c0.915,0.699,2.223,0.526,2.923-0.388
		c3.402-4.442,7.908-7.939,13.033-10.113c3.975-1.686,8.197-2.541,12.55-2.541c17.754,0,32.198,14.445,32.198,32.201
		c0,1.151,0.934,2.085,2.085,2.085h15.427c17.754,0,32.198,14.444,32.198,32.199c0,5.66-1.491,11.227-4.312,16.099
		c-0.577,0.997-0.236,2.272,0.76,2.849c0.329,0.19,0.688,0.28,1.043,0.28c0.72,0,1.42-0.373,1.807-1.04
		c3.188-5.506,4.872-11.796,4.872-18.188C250.934,104.534,234.62,88.219,214.566,88.219z"/>
</g>
</svg>
