<?xml version="1.0" encoding="utf-8"?>
<!-- Generator: Adobe Illustrator 15.1.0, SVG Export Plug-In . SVG Version: 6.00 Build 0)  -->
<!DOCTYPE svg PUBLIC "-//W3C//DTD SVG 1.0//EN" "http://www.w3.org/TR/2001/REC-SVG-20010904/DTD/svg10.dtd">
<svg version="1.0" id="Layer_1" xmlns:serif="http://www.serif.com/"
	 xmlns="http://www.w3.org/2000/svg" xmlns:xlink="http://www.w3.org/1999/xlink" x="0px" y="0px" width="283.46px"
	 height="283.46px" viewBox="0 0 283.46 283.46" enable-background="new 0 0 283.46 283.46" xml:space="preserve">
<g>
	<path fill="#010001" d="M195.914,114.576h-16.63c-1.093-23.063-20.198-41.49-43.527-41.49c-23.345,0-42.461,18.453-43.53,41.537
		c-7.859,0.364-15.423,2.828-21.993,7.182c-9.62,6.378-16.227,16.075-18.602,27.304c-0.238,1.127,0.482,2.233,1.608,2.472
		c1.125,0.234,2.233-0.482,2.472-1.608c2.116-10.005,8.25-19.005,16.826-24.691c6.45-4.275,13.963-6.535,21.727-6.535
		c1.151,0,2.085-0.934,2.085-2.085c0-21.728,17.678-39.405,39.407-39.405c21.728,0,39.406,17.677,39.406,39.405
		c0,1.151,0.934,2.085,2.085,2.085h18.666c21.729,0,39.406,17.677,39.406,39.405c0,21.729-17.678,39.407-39.406,39.407h-6.509
		c-1.151,0-2.085,0.934-2.085,2.085s0.934,2.085,2.085,2.085h6.509c24.028,0,43.576-19.549,43.576-43.577
		C239.49,134.124,219.942,114.576,195.914,114.576z"/>
	<path fill="#010001" d="M162.28,199.643c0-1.151-0.934-2.085-2.085-2.085H94.266c-6.793,0-13.492-1.761-19.373-5.092
		c-1-0.566-2.275-0.216-2.841,0.787c-0.568,1.002-0.215,2.274,0.787,2.842c6.506,3.685,13.916,5.633,21.427,5.633h65.929
		C161.346,201.728,162.28,200.794,162.28,199.643z"/>
	<path fill="#010001" d="M153.957,179.489H46.206c-1.151,0-2.085,0.934-2.085,2.085s0.934,2.085,2.085,2.085h107.75
		c13.038,0,18.977,8.285,18.977,15.983s-5.938,15.983-18.977,15.983c-1.151,0-2.085,0.934-2.085,2.085s0.934,2.085,2.085,2.085
		c15.196,0,23.146-10.139,23.146-20.153S169.153,179.489,153.957,179.489z"/>
	<path fill="#010001" d="M132.206,165.845c15.195,0,23.145-10.139,23.145-20.153c0-10.015-7.95-20.154-23.145-20.154
		c-1.151,0-2.085,0.934-2.085,2.085s0.934,2.085,2.085,2.085c13.038,0,18.975,8.286,18.975,15.984
		c0,7.697-5.936,15.98-18.968,15.983c-0.002,0-0.004-0.001-0.007-0.001H24.456c-1.151,0-2.085,0.934-2.085,2.085
		s0.934,2.085,2.085,2.085h107.74C132.2,165.844,132.203,165.845,132.206,165.845z"/>
</g>
</svg>
