<?xml version="1.0" encoding="utf-8"?>
<!-- Generator: Adobe Illustrator 15.1.0, SVG Export Plug-In . SVG Version: 6.00 Build 0)  -->
<!DOCTYPE svg PUBLIC "-//W3C//DTD SVG 1.1//EN" "http://www.w3.org/Graphics/SVG/1.1/DTD/svg11.dtd">
<svg version="1.1" id="Layer_2" xmlns="http://www.w3.org/2000/svg" xmlns:xlink="http://www.w3.org/1999/xlink" x="0px" y="0px"
	 width="283.46px" height="283.46px" viewBox="0 0 283.46 283.46" enable-background="new 0 0 283.46 283.46" xml:space="preserve">
<g>
	<path d="M104.654,86.698c2.942-4.348,3.382-10.278,0.741-15.202c-5.682-10.651-20.659-10.234-26.118,0
		c-2.607,4.859-2.266,10.756,0.741,15.202C85.735,95.399,98.857,95.521,104.654,86.698z"/>
	<path d="M55.972,86.698c2.936-4.338,3.394-10.258,0.752-15.202c-5.688-10.616-20.656-10.26-26.129,0
		c-2.68,4.996-2.153,10.926,0.74,15.202C37.009,95.333,50.123,95.597,55.972,86.698z"/>
	<path d="M55.114,151.128c3.966-4.853,4.615-11.932,0.86-17.624c-6.047-9.189-20.063-8.72-25.379,1.244
		c-2.752,5.137-2.288,11.612,1.611,16.379C37.992,158.23,49.159,158.438,55.114,151.128z"/>
	<path d="M141.734,190.166H43.659c-8.184,0-14.818,6.633-14.818,14.818c0,8.184,6.635,14.818,14.818,14.818h98.074
		c8.183,0,14.819-6.635,14.82-14.818C156.553,196.8,149.916,190.166,141.734,190.166z"/>
	<path d="M129.412,133.504c-4.346,6.587-2.807,15.011,2.924,19.678c6.028,4.92,14.607,4.297,19.875-0.978
		c4.384-4.386,5.806-11.433,2.578-17.457C149.391,124.633,135.366,124.452,129.412,133.504z"/>
	<path d="M179.664,195.591c-4.438,5.451-4.496,13.273,0,18.791c5.508,6.734,15.732,7.281,21.939,1.076
		c4.982-4.975,6.133-13.33,0.979-19.867C196.421,188.263,185.479,188.478,179.664,195.591z"/>
	<path d="M226.737,198.001c-2.731,5.095-2.308,11.574,1.61,16.379c5.725,7.009,16.831,7.436,22.906,0
		c3.947-4.84,4.318-11.301,1.611-16.379C247.148,187.339,232.219,187.779,226.737,198.001z"/>
	<path d="M228.347,132.338c-4.223,5.048-4.696,13.027,0,18.791c5.781,7.074,16.898,7.351,22.906,0
		c4.636-5.687,4.318-13.628,0-18.791C245.145,124.862,234.052,125.357,228.347,132.338z"/>
	<path d="M141.726,93.295H239.8c8.187,0,14.82-6.634,14.818-14.819c0-8.183-6.634-14.817-14.818-14.817h-98.074
		c-8.184,0-14.818,6.634-14.818,14.817C126.908,86.66,133.543,93.295,141.726,93.295z"/>
</g>
</svg>
