<?xml version="1.0" encoding="utf-8"?>
<!-- Generator: Adobe Illustrator 15.1.0, SVG Export Plug-In . SVG Version: 6.00 Build 0)  -->
<!DOCTYPE svg PUBLIC "-//W3C//DTD SVG 1.1//EN" "http://www.w3.org/Graphics/SVG/1.1/DTD/svg11.dtd">
<svg version="1.1" id="Layer_3" xmlns="http://www.w3.org/2000/svg" xmlns:xlink="http://www.w3.org/1999/xlink" x="0px" y="0px"
	 width="283.46px" height="283.46px" viewBox="0 0 283.46 283.46" enable-background="new 0 0 283.46 283.46" xml:space="preserve">
<g>
	<path d="M268.355,7.084H15.105c-4.43,0-8.021,3.591-8.021,8.021v253.25c0,4.43,3.591,8.021,8.021,8.021h253.25
		c4.43,0,8.021-3.592,8.021-8.021V15.105C276.376,10.675,272.785,7.084,268.355,7.084z M79.277,71.496
		c5.459-10.234,20.436-10.651,26.118,0c2.641,4.924,2.201,10.854-0.741,15.202c-5.797,8.823-18.919,8.701-24.636,0
		C77.011,82.252,76.67,76.355,79.277,71.496z M30.595,71.496c5.473-10.26,20.441-10.616,26.129,0
		c2.642,4.944,2.184,10.864-0.752,15.202c-5.849,8.899-18.963,8.635-24.637,0C28.442,82.422,27.915,76.492,30.595,71.496z
		 M30.595,134.749c5.316-9.964,19.332-10.433,25.379-1.244c3.755,5.692,3.106,12.771-0.86,17.624
		c-5.955,7.309-17.122,7.101-22.908,0C28.307,146.361,27.843,139.886,30.595,134.749z M141.733,219.802H43.659
		c-8.183,0-14.818-6.635-14.818-14.818c0-8.185,6.634-14.819,14.818-14.819h98.075c8.182,0,14.819,6.635,14.819,14.819
		C156.552,213.167,149.916,219.802,141.733,219.802z M129.412,133.504c5.954-9.052,19.979-8.871,25.377,1.244
		c3.227,6.024,1.805,13.071-2.578,17.456c-5.268,5.275-13.847,5.898-19.875,0.978C126.605,148.515,125.066,140.091,129.412,133.504z
		 M201.603,215.458c-6.207,6.206-16.432,5.659-21.939-1.076c-4.497-5.517-4.438-13.339,0-18.79c5.815-7.114,16.758-7.329,22.918,0
		C207.736,202.128,206.585,210.484,201.603,215.458z M251.254,214.381c-6.076,7.435-17.182,7.008-22.907,0
		c-3.918-4.806-4.341-11.285-1.61-16.38c5.482-10.222,20.411-10.661,26.128,0C255.572,203.079,255.201,209.54,251.254,214.381z
		 M251.254,151.128c-6.009,7.351-17.126,7.074-22.907,0c-4.696-5.763-4.223-13.742,0-18.79c5.705-6.981,16.798-7.476,22.907,0
		C255.572,137.5,255.889,145.442,251.254,151.128z M239.8,93.295h-98.074c-8.183,0-14.818-6.635-14.818-14.819
		c0-8.183,6.634-14.817,14.818-14.817H239.8c8.185,0,14.819,6.634,14.819,14.817C254.62,86.661,247.987,93.295,239.8,93.295z"/>
</g>
</svg>
