<?xml version="1.0" encoding="utf-8"?>
<!-- Generator: Adobe Illustrator 15.1.0, SVG Export Plug-In . SVG Version: 6.00 Build 0)  -->
<!DOCTYPE svg PUBLIC "-//W3C//DTD SVG 1.1//EN" "http://www.w3.org/Graphics/SVG/1.1/DTD/svg11.dtd">
<svg version="1.1" id="Layer_2" xmlns="http://www.w3.org/2000/svg" xmlns:xlink="http://www.w3.org/1999/xlink" x="0px" y="0px"
	 width="283.46px" height="283.46px" viewBox="0 0 283.46 283.46" enable-background="new 0 0 283.46 283.46" xml:space="preserve">
<g>
	<path d="M268.355,7.084H15.105c-4.43,0-8.021,3.591-8.021,8.021v253.25c0,4.43,3.591,8.021,8.021,8.021h253.25
		c4.43,0,8.021-3.592,8.021-8.021V15.105C276.376,10.675,272.785,7.084,268.355,7.084z M121.403,31.179h21.069v10.533h-21.069
		V31.179z M142.47,146.944h-21.068v-10.533h21.068V146.944z M163.537,189.079v10.534H142.47v-10.534H163.537z M110.869,162.746
		h26.334v10.533h-26.334V162.746z M68.734,146.944v-10.533h42.135v10.533H68.734z M142.47,215.414v10.533H84.534v-10.533H142.47z
		 M95.068,120.61v-10.533h63.203v10.533H95.068z M137.204,83.847V94.38H110.87v-0.104h-0.001V83.742h26.334L137.204,83.847
		L137.204,83.847z M95.069,68.047V57.512h63.204v10.535H95.069z M68.735,31.179h42.135v10.533H68.735V31.179z M52.935,57.512h31.602
		v10.535H52.935V57.512z M52.934,83.742h47.402v0.105h0.001V94.38H52.935v-0.104h-0.001V83.742z M52.934,110.077h31.602v10.533
		H52.934V110.077z M52.934,162.746h47.402v10.533H52.934V162.746z M52.934,189.079h79.004v10.534H52.934V189.079z M37.134,252.282
		L37.134,252.282H21.333v-10.533h15.801V252.282z M37.134,225.947L37.134,225.947H21.333v-10.533h15.801V225.947z M37.134,199.614
		L37.134,199.614H21.333v-10.535h15.801V199.614z M37.134,173.279L37.134,173.279H21.333v-10.533h15.801V173.279z M37.134,146.944
		L37.134,146.944H21.333v-10.533h15.801V146.944z M37.134,120.61L37.134,120.61H21.333v-10.533h15.801V120.61z M37.134,83.847V94.38
		h-15.8v-0.104h-0.001V83.743h15.801V83.847z M37.134,68.047h-15.8V57.512h15.8V68.047z M37.134,41.712h-15.8V31.179h15.8V41.712z
		 M84.535,252.282L84.535,252.282H52.934v-10.533h31.602V252.282z M158.271,252.282H95.068v-10.533h63.203V252.282z
		 M184.604,252.282h-15.799v-10.533h15.799V252.282z M189.872,225.947h-36.868v-10.533h36.868V225.947z M216.208,199.614h-42.137
		v-10.535h42.137V199.614z M232.006,146.944h-79.003v-10.533h79.003V146.944z M184.604,110.077v10.533h-15.799v-10.533H184.604z
		 M168.805,68.047V57.512h15.801v10.535H168.805z M232.006,41.712h-79.001V31.179h79.001V41.712z"/>
</g>
</svg>
