<?xml version="1.0" encoding="utf-8"?>
<!-- Generator: Adobe Illustrator 15.1.0, SVG Export Plug-In . SVG Version: 6.00 Build 0)  -->
<!DOCTYPE svg PUBLIC "-//W3C//DTD SVG 1.1//EN" "http://www.w3.org/Graphics/SVG/1.1/DTD/svg11.dtd">
<svg version="1.1" id="Layer_1" xmlns="http://www.w3.org/2000/svg" xmlns:xlink="http://www.w3.org/1999/xlink" x="0px" y="0px"
	 width="283.465px" height="283.465px" viewBox="1108.268 1108.268 283.465 283.465"
	 enable-background="new 1108.268 1108.268 283.465 283.465" xml:space="preserve">
<g>
	<path fill="#020202" d="M1167.034,1154.954l-51.68,51.683l129.885,156.409l139.406-156.409l-49.236-51.412L1167.034,1154.954z
		 M1304.752,1172.443l-5.049,17.146c-4.245-10.379-11.392-14.168-17.988-17.173L1304.752,1172.443z M1137.944,1207.564
		l34.387-35.538l21.603,0.268c-33.36,16.128-41.443,38.024-35.932,57.973L1137.944,1207.564z M1246.751,1336.111l-32.744-37.077l0,0
		c26.708,7.319,43.191,8.522,66.944,1.233L1246.751,1336.111z M1248.722,1286.04c-3.864-13.432-47.908-23.454-52.143-7.054
		l-27.878-31.309c23.079,20.522,130.293,1.258,130.379,24.475C1298.642,1281.776,1267.182,1292.113,1248.722,1286.04z
		 M1327.739,1248.344c-9.699-48.202-131.16-10.874-131.16-45.41c0.294-14.549,21.969-23.366,44.527-23.807
		c32.037-0.883,48.676,9.872,48.089,31.768h43.425l0.747-33.118l29.595,29.833L1327.739,1248.344z"/>
</g>
</svg>
