<?xml version="1.0" encoding="iso-8859-1"?>
<!-- Generator: Adobe Illustrator 15.1.0, SVG Export Plug-In . SVG Version: 6.00 Build 0)  -->
<!DOCTYPE svg PUBLIC "-//W3C//DTD SVG 1.1//EN" "http://www.w3.org/Graphics/SVG/1.1/DTD/svg11.dtd">
<svg version="1.1" id="Layer_2" xmlns="http://www.w3.org/2000/svg" xmlns:xlink="http://www.w3.org/1999/xlink" x="0px" y="0px"
	 width="283.465px" height="283.465px" viewBox="0 0 283.465 283.465" style="enable-background:new 0 0 283.465 283.465;"
	 xml:space="preserve">
<g>
	<path d="M215.801,120.451l-0.198-0.748l-0.396-0.816l-0.504-0.676l-0.271-0.266l-42.804-39.827l32.32-33.177l0.063-0.077
		c0.297-0.396,0.486-0.852,0.551-1.32l0.026-0.545l-0.071-0.509l-0.01-0.041c-0.09-0.379-0.262-0.744-0.514-1.063l-0.279-0.307
		L169.491,7.735l-0.135-0.104c-0.324-0.239-0.693-0.401-1.072-0.482l-0.369-0.054l-0.209-0.009l-0.377,0.018
		c-0.514,0.063-1.01,0.266-1.442,0.608l-0.252,0.23l-60.382,61.977L105.185,70c-0.329,0.433-0.522,0.942-0.572,1.456l-0.009,0.383
		l0.072,0.537l0.009,0.031c0.09,0.379,0.261,0.739,0.509,1.059l3.917,3.863L70.86,88.486l-0.712,0.271L69.553,89.1l-0.514,0.41
		l-0.586,0.653l-0.446,0.766l-0.239,0.632l-0.153,0.816l-0.022,0.459v151.213c0,1.713,0.974,3.281,2.515,4.047l56.696,27.914
		l0.734,0.242l0.897,0.127l0.779-0.037l0.663-0.145l82.743-24.137c1.929-0.559,3.252-2.326,3.252-4.326V121.257L215.801,120.451z
		 M169.754,15.938l25.993,25.326l-30.004,5.097L169.754,15.938z M193.61,47.407l-48.029,49.282l4.119-28.76l11.373-1.803
		c1.254-0.194,2.217-1.19,2.379-2.438l1.507-11.419L193.61,47.407z M163.733,18.061l-5.643,42.775l-42.617,6.742L163.733,18.061z
		 M143.815,68.862l-4.323,30.125l-25.989-25.331L143.815,68.862z M125.015,264.625c0,0.514-0.415,0.92-0.924,0.92
		c0,0-0.163,0.025-0.424-0.1l-47.462-23.381c-0.32-0.15-0.518-0.467-0.518-0.818V103.173c0-0.365,0.216-0.699,0.554-0.847
		c0.337-0.144,0.729-0.077,1,0.171l47.476,44.176l-0.626,1.596c0,0,0.924-1.74,0.924-0.883V264.625z M129.164,141.014l-48.81-45.411
		c-0.243-0.226-0.347-0.568-0.27-0.888c0.077-0.324,0.325-0.581,0.64-0.676l35.548-10.364c0.319-0.095,0.667-0.009,0.901,0.221
		l10.797,10.522l11.414,10.675c1.307,1.221,3.348,1.18,4.602-0.095c4.28-4.348,13.158-13.366,13.158-13.366l0.01,0.009l7.517-7.71
		c0.351-0.356,0.92-0.369,1.289-0.031l37.143,34.564c0.253,0.225,0.351,0.563,0.271,0.888c-0.072,0.324-0.316,0.581-0.641,0.671
		l-72.68,21.203C129.741,141.315,129.403,141.234,129.164,141.014z M207.778,244.346l-0.928,0.93l0.234-0.035l-73.721,21.504
		c-0.275,0.082-0.577,0.027-0.811-0.145c-0.23-0.18-0.37-0.451-0.37-0.74V148.766c0-0.406,0.271-0.768,0.667-0.885l73.74-21.507
		c0.278-0.081,0.586-0.027,0.819,0.144c0.226,0.176,0.369,0.45,0.369,0.739V244.346z"/>
	<polygon points="77.534,240.67 123.166,263.139 123.166,147.746 77.534,105.292 	"/>
	<polygon points="134.031,264.625 205.931,243.662 205.931,128.485 134.031,149.459 	"/>
	<path d="M158.792,92.605l11.41,10.288c0.945,0.851,1.351,2.149,1.063,3.384c-0.288,1.239-1.225,2.222-2.451,2.564
		c-9.625,2.718-32.122,9.063-40.896,11.537c-2.541,0.721-5.277,0.081-7.237-1.686c-3.434-3.096-9.283-8.368-13.001-11.721
		c-0.946-0.851-1.352-2.145-1.063-3.384c0.289-1.239,1.226-2.222,2.452-2.564l2.434-0.689l14.488-5.264l-9.72-9.477l-33.469,9.761
		l47.234,43.951l70.62-20.599l-35.293-32.838L158.792,92.605z"/>
</g>
</svg>
