<?xml version="1.0" encoding="utf-8"?>
<!-- Generator: Adobe Illustrator 15.1.0, SVG Export Plug-In . SVG Version: 6.00 Build 0)  -->
<!DOCTYPE svg PUBLIC "-//W3C//DTD SVG 1.1//EN" "http://www.w3.org/Graphics/SVG/1.1/DTD/svg11.dtd">
<svg version="1.1" id="Layer_1" xmlns="http://www.w3.org/2000/svg" xmlns:xlink="http://www.w3.org/1999/xlink" x="0px" y="0px"
	 width="269.291px" height="269.291px" viewBox="0 0 269.291 269.291" enable-background="new 0 0 269.291 269.291"
	 xml:space="preserve">
<g>
	<path d="M0,134.685c0,72.237,58.6,130.76,130.836,130.76c13.891,0,27.297-2.205,39.854-6.216v-65.263
		c-10.844,6.308-23.535,9.944-37.139,9.944c-39.749,0-71.946-30.99-71.946-69.227c0-38.235,32.197-69.226,71.946-69.226
		c13.604,0,26.293,3.64,37.139,9.944v-65.34c-12.559-4.014-25.963-6.216-39.854-6.216C58.6,3.849,0,62.451,0,134.685z"/>
	<polygon points="269.291,84.927 171.846,84.927 171.846,130.313 225.707,130.313 	"/>
	<polygon points="171.846,139.508 171.846,184.896 269.291,184.896 225.707,139.508 	"/>
</g>
</svg>
