<?xml version="1.0" encoding="utf-8"?>
<!-- Generator: Adobe Illustrator 15.1.0, SVG Export Plug-In . SVG Version: 6.00 Build 0)  -->
<!DOCTYPE svg PUBLIC "-//W3C//DTD SVG 1.1//EN" "http://www.w3.org/Graphics/SVG/1.1/DTD/svg11.dtd">
<svg version="1.1" id="Layer_2" xmlns="http://www.w3.org/2000/svg" xmlns:xlink="http://www.w3.org/1999/xlink" x="0px" y="0px"
	 width="283.46px" height="283.46px" viewBox="0 0 283.46 283.46" enable-background="new 0 0 283.46 283.46" xml:space="preserve">
<g>
	<polygon fill="none" points="79.406,236.966 124.846,259.345 124.846,147.106 79.406,104.828 	"/>
	<polygon fill="none" points="133.479,260.527 204.057,239.941 204.057,127.875 133.477,148.46 	"/>
	<polygon points="201.891,47.233 201.891,47.226 201.891,47.227 	"/>
	<polygon points="201.868,47.761 201.875,47.58 201.875,47.581 	"/>
	<path d="M212.62,121.36l-0.191-0.713l-0.379-0.782l-0.482-0.646l-0.256-0.258l-40.969-38.116l3.293-3.379
		c-0.025,0.002-0.053,0.004-0.078,0.006l-16.855,17.301l0.084-0.017l11.607,10.46c0.664,0.6,0.951,1.511,0.748,2.383
		c-0.203,0.87-0.863,1.563-1.725,1.806c-9.211,2.597-30.743,8.672-39.143,11.042c-2.141,0.604-4.443,0.065-6.097-1.424
		c-3.286-2.961-8.883-8.007-12.443-11.217c-0.665-0.598-0.951-1.511-0.748-2.383c0.203-0.87,0.863-1.562,1.725-1.806l20.063-3.858
		l-20.48-19.953c-0.027-0.004-0.055-0.005-0.082-0.009l0.301,0.293l-36.61,10.678l-0.68,0.26l-0.571,0.331l-0.489,0.391l-0.56,0.628
		l-0.43,0.73l-0.225,0.604l-0.15,0.779l-0.022,0.44v144.721c0,1.645,0.934,3.145,2.41,3.871l54.258,26.717l0.705,0.234l0.858,0.121
		l0.746-0.039l0.633-0.137l79.195-23.1c1.84-0.535,3.105-2.223,3.105-4.143V122.134L212.62,121.36z M124.846,259.345l-45.44-22.379
		V104.828l45.44,42.278V259.345z M204.057,239.941l-70.578,20.586l-0.002-112.066l70.58-20.585V239.941z"/>
	<polygon points="201.889,47.305 201.891,47.233 201.889,47.295 	"/>
	<g>
		<path d="M141.511,106.449l5.406-37.702l-37.941,6.003l4.932,4.806l-2.36-2.299l-0.085-0.012l-2.48-2.416l-0.071-0.079l0-0.102
			l26.767-27.471l0.787-0.735l30.024-30.814l0.063-0.058l0.014,0l29.975,29.202l0.086,0.012l2.479,2.415l0.073,0.083l0.005,0.038
			l-0.002,0.058l-26.771,27.476l-0.728,0.678l27.411-28.125l-37.544,6.373l-1.704,12.903l-12.877,2.057l-5.407,37.695l-0.028,0.026
			l-0.012,0L141.511,106.449z M108.994,74.698l50.804-8.04l6.732-50.994L108.994,74.698z M161.556,53.726l37.558-6.374
			l-32.53-31.709L161.556,53.726z M156.317,91.299l-14.726,15.109L156.317,91.299z"/>
		<path d="M166.592,12.865l-0.357,0.02c-0.494,0.062-0.973,0.255-1.381,0.582l-0.242,0.221l-30.08,30.871
			c-0.026,0.002-0.052,0.004-0.077,0.006l-27.642,28.369l-0.059,0.076c-0.291,0.377-0.467,0.813-0.533,1.26l-0.009,0.184
			c0,0.007-0.004,0.014-0.005,0.021L106.2,74.75l-0.002,0.048v0.004l-0.001,0.036l0.07,0.515l0.006,0.031
			c0.09,0.359,0.251,0.706,0.488,1.014l0.269,0.301l3.182,3.1c0.027,0.004,0.055,0.005,0.082,0.009l20.48,19.953l9.016,8.782
			l0.129,0.101c0.313,0.229,0.663,0.384,1.027,0.462l0.355,0.053l0.195,0.009l0.358-0.02c0.492-0.062,0.971-0.255,1.379-0.582
			l0.242-0.221l13.226-13.57l16.855-17.301c0.025-0.002,0.053-0.004,0.078-0.006l27.641-28.369l0.059-0.076
			c0.291-0.377,0.467-0.813,0.533-1.26l0.008-0.181c0-0.001,0-0.001,0-0.001c0.002-0.008,0.006-0.016,0.006-0.023l0.008-0.251v-0.01
			l0.002-0.063v-0.006v-0.001v-0.033l-0.068-0.515l-0.008-0.031c-0.088-0.359-0.25-0.706-0.488-1.014l-0.268-0.301l-3.182-3.1
			c-0.027-0.003-0.055-0.005-0.082-0.009l-29.496-28.735l-0.129-0.101c-0.313-0.229-0.662-0.384-1.027-0.462l-0.355-0.053
			L166.592,12.865L166.592,12.865z M164.711,50.452l3.844-29.116l24.871,24.243L164.711,50.452L164.711,50.452z M116.602,70.76
			l46.188-47.39l-5.404,40.936L116.602,70.76L116.602,70.76z M145.412,98.62l3.948-27.525l10.887-1.723
			c1.193-0.188,2.119-1.139,2.277-2.336l1.443-10.928l27.412-4.653L145.412,98.62L145.412,98.62z M139.59,100.818l-24.874-24.242
			l29.008-4.59L139.59,100.818L139.59,100.818z"/>
	</g>
</g>
</svg>
