<?xml version="1.0" encoding="utf-8"?>
<!-- Generator: Adobe Illustrator 15.1.0, SVG Export Plug-In . SVG Version: 6.00 Build 0)  -->
<!DOCTYPE svg PUBLIC "-//W3C//DTD SVG 1.1//EN" "http://www.w3.org/Graphics/SVG/1.1/DTD/svg11.dtd">
<svg version="1.1" id="Layer_1" xmlns="http://www.w3.org/2000/svg" xmlns:xlink="http://www.w3.org/1999/xlink" x="0px" y="0px"
	 width="283.465px" height="283.465px" viewBox="0 0 283.465 283.465" enable-background="new 0 0 283.465 283.465"
	 xml:space="preserve">
<path fill-rule="evenodd" clip-rule="evenodd" d="M165.275,46.362l30.004-5.097l-25.993-25.326L165.275,46.362z M157.623,60.837
	l5.642-42.775l-48.259,49.517L157.623,60.837z M149.232,67.93l-4.119,28.76l48.029-49.282l-28.651,4.862l-1.506,11.419
	c-0.162,1.248-1.126,2.244-2.379,2.438L149.232,67.93z M113.036,73.658l25.989,25.331l4.322-30.125L113.036,73.658z M125.523,95.072
	l-14.488,5.264l-2.434,0.689c-1.226,0.342-2.163,1.325-2.452,2.564s0.117,2.533,1.063,3.384c3.718,3.353,9.567,8.625,13.001,11.721
	c1.96,1.767,4.696,2.407,7.237,1.686c8.774-2.474,31.271-8.819,40.896-11.537c1.226-0.342,2.163-1.325,2.451-2.564
	c0.288-1.235-0.117-2.533-1.063-3.384l-11.41-10.288l6.57-6.737l35.294,32.838l-70.62,20.599L82.334,95.356l33.469-9.761
	L125.523,95.072z M127.502,94.419l-10.797-10.522c-0.234-0.23-0.582-0.316-0.901-0.221L80.256,94.04
	c-0.315,0.095-0.563,0.352-0.64,0.676c-0.077,0.32,0.027,0.662,0.27,0.888l48.81,45.411c0.239,0.221,0.577,0.302,0.888,0.212
	l72.68-21.203c0.324-0.09,0.568-0.347,0.64-0.671c0.081-0.325-0.018-0.663-0.27-0.888l-37.143-34.564
	c-0.369-0.338-0.938-0.325-1.289,0.031l-7.517,7.71l-0.009-0.009c0,0-8.878,9.018-13.159,13.366
	c-1.253,1.275-3.294,1.316-4.601,0.095L127.502,94.419z M122.698,147.748V263.14l-45.632-22.469V105.293L122.698,147.748z
	 M205.463,243.663l-71.9,20.964V149.46l71.9-20.973V243.663z M76.773,102.499c-0.271-0.248-0.663-0.315-1-0.171
	c-0.338,0.148-0.554,0.482-0.554,0.847v138.073c0,0.352,0.198,0.667,0.518,0.819l47.462,23.38c0.261,0.126,0.424,0.099,0.424,0.099
	c0.509,0,0.924-0.405,0.924-0.919V147.388c0-0.856-0.924,0.883-0.924,0.883l0.626-1.595L76.773,102.499z M132.382,147.883
	c-0.396,0.117-0.667,0.479-0.667,0.884v117.095c0,0.289,0.14,0.56,0.37,0.739c0.234,0.172,0.536,0.226,0.811,0.145l73.721-21.505
	l-0.234,0.036l0.928-0.929v-117.09c0-0.289-0.144-0.563-0.369-0.739c-0.234-0.171-0.541-0.225-0.82-0.144L132.382,147.883z
	 M108.643,77.331L70.392,88.488l-0.712,0.271l-0.595,0.342l-0.514,0.41l-0.586,0.653l-0.446,0.766L67.3,91.562l-0.153,0.816
	l-0.022,0.459v151.214c0,1.712,0.974,3.28,2.515,4.047l56.696,27.913l0.734,0.243l0.897,0.126l0.779-0.036l0.663-0.145
	l82.743-24.136c1.929-0.56,3.253-2.326,3.253-4.326V121.259l-0.072-0.807l-0.198-0.748l-0.396-0.816l-0.505-0.676l-0.27-0.266
	L171.16,78.119l32.32-33.177l0.063-0.077c0.297-0.396,0.486-0.852,0.55-1.32L204.12,43l-0.071-0.509l-0.01-0.041
	c-0.09-0.379-0.261-0.744-0.514-1.063l-0.279-0.307L169.024,7.737l-0.136-0.104c-0.324-0.239-0.693-0.401-1.072-0.482l-0.369-0.054
	l-0.208-0.009l-0.378,0.018c-0.514,0.063-1.01,0.266-1.442,0.608l-0.252,0.23l-60.382,61.977l-0.068,0.081
	c-0.329,0.433-0.522,0.942-0.572,1.456l-0.009,0.383l0.072,0.537l0.009,0.031c0.09,0.379,0.261,0.739,0.509,1.059L108.643,77.331z"
	/>
</svg>
