<?xml version="1.0" encoding="utf-8"?>
<!-- Generator: Adobe Illustrator 15.1.0, SVG Export Plug-In . SVG Version: 6.00 Build 0)  -->
<!DOCTYPE svg PUBLIC "-//W3C//DTD SVG 1.0//EN" "http://www.w3.org/TR/2001/REC-SVG-20010904/DTD/svg10.dtd">
<svg version="1.0" id="Layer_1" xmlns="http://www.w3.org/2000/svg" xmlns:xlink="http://www.w3.org/1999/xlink" x="0px" y="0px"
	 width="283.46px" height="283.46px" viewBox="0 0 283.46 283.46" enable-background="new 0 0 283.46 283.46" xml:space="preserve">
<g>
	<path d="M238.81,46.843H44.65c-6.032,0-10.921,4.89-10.921,10.921v119.633c0,6.032,4.889,10.921,10.921,10.921h14.772l-3.194,46.24
		c-0.053,0.768,0.355,1.494,1.039,1.847c0.279,0.143,0.581,0.213,0.882,0.213c0.438,0,0.872-0.149,1.225-0.438l58.166-47.861h121.27
		c6.031,0,10.921-4.889,10.921-10.921V57.764C249.73,51.732,244.841,46.843,238.81,46.843z M91.729,131.153
		c-7.045,0-12.756-5.71-12.756-12.755c0-7.046,5.711-12.756,12.756-12.756c7.045,0,12.756,5.71,12.756,12.756
		C104.485,125.442,98.774,131.153,91.729,131.153z M142.753,131.153c-7.045,0-12.756-5.71-12.756-12.755
		c0-7.046,5.711-12.756,12.756-12.756c7.045,0,12.756,5.71,12.756,12.756C155.509,125.442,149.798,131.153,142.753,131.153z
		 M193.776,131.153c-7.045,0-12.756-5.71-12.756-12.755c0-7.046,5.711-12.756,12.756-12.756s12.756,5.71,12.756,12.756
		C206.532,125.442,200.821,131.153,193.776,131.153z"/>
</g>
</svg>
