<?xml version="1.0" encoding="utf-8"?>
<!-- Generator: Adobe Illustrator 15.1.0, SVG Export Plug-In . SVG Version: 6.00 Build 0)  -->
<!DOCTYPE svg PUBLIC "-//W3C//DTD SVG 1.0//EN" "http://www.w3.org/TR/2001/REC-SVG-20010904/DTD/svg10.dtd">
<svg version="1.0" id="Layer_1" xmlns="http://www.w3.org/2000/svg" xmlns:xlink="http://www.w3.org/1999/xlink" x="0px" y="0px"
	 width="283.46px" height="283.46px" viewBox="0 0 283.46 283.46" enable-background="new 0 0 283.46 283.46" xml:space="preserve">
<g>
	<path d="M33.729,57.764v119.634c0,6.032,4.89,10.921,10.921,10.921h121.27l58.166,47.861c0.354,0.289,0.787,0.438,1.226,0.438
		c0.301,0,0.603-0.07,0.882-0.214c0.684-0.353,1.092-1.079,1.039-1.847l-3.194-46.24h14.772c6.031,0,10.921-4.889,10.921-10.921
		V57.764c0-6.031-4.89-10.921-10.921-10.921H44.65C38.619,46.843,33.73,51.732,33.729,57.764z M178.975,118.398
		c0-7.046,5.711-12.756,12.756-12.756s12.756,5.71,12.756,12.756c0,7.045-5.711,12.755-12.756,12.755
		S178.975,125.442,178.975,118.398z M127.951,118.398c0-7.046,5.711-12.756,12.756-12.756s12.756,5.71,12.756,12.756
		c0,7.045-5.711,12.755-12.756,12.755S127.951,125.442,127.951,118.398z M76.927,118.398c0-7.046,5.712-12.756,12.757-12.756
		s12.756,5.71,12.756,12.756c0,7.045-5.711,12.755-12.756,12.755S76.927,125.442,76.927,118.398z"/>
</g>
</svg>
