<?xml version="1.0" encoding="utf-8"?>
<!-- Generator: Adobe Illustrator 15.1.0, SVG Export Plug-In . SVG Version: 6.00 Build 0)  -->
<!DOCTYPE svg PUBLIC "-//W3C//DTD SVG 1.1//EN" "http://www.w3.org/Graphics/SVG/1.1/DTD/svg11.dtd">
<svg version="1.1" id="Layer_2" xmlns="http://www.w3.org/2000/svg" xmlns:xlink="http://www.w3.org/1999/xlink" x="0px" y="0px"
	 width="283.46px" height="283.46px" viewBox="0 0 283.46 283.46" enable-background="new 0 0 283.46 283.46" xml:space="preserve">
<g>
	<path fill="none" d="M112.639,163.873c-0.432,0-0.875,0.001-1.329,0.001C111.764,163.874,112.207,163.873,112.639,163.873z"/>
	<path fill="none" d="M113.394,131.242c0.32,0,0.647,0,0.982,0C114.042,131.242,113.714,131.242,113.394,131.242z"/>
	<path fill="none" d="M112.639,163.873c3.831,0,7.584-0.121,11.463-0.28c3.514-0.188,7.292-0.628,10.505-2.142
		c-3.212,1.514-6.991,1.953-10.505,2.141C120.223,163.751,116.47,163.873,112.639,163.873z"/>
	<path fill="none" d="M92.524,121.784c2.915-1.313,6.534-1.946,10.16-2.238C99.059,119.837,95.439,120.47,92.524,121.784z"/>
	<path fill="none" d="M140.322,126.477c-0.491-0.813-1.069-1.518-1.762-2.176C139.253,124.959,139.832,125.664,140.322,126.477z"/>
	<path fill="none" d="M195.604,139.005L195.604,139.005c0.076,0.074,0.144,0.158,0.216,0.236
		C195.748,139.163,195.68,139.08,195.604,139.005z"/>
	<path fill="none" d="M100.375,142.185c0-2.356,0-6.613,1.776-8.615C100.375,135.572,100.375,139.828,100.375,142.185z"/>
	<path fill="none" d="M186.132,132.08v-0.044h12.375c0,0,0,0,0-0.001H186.13C186.13,132.049,186.132,132.066,186.132,132.08z"/>
	<path fill="none" d="M37.331,141.73L37.331,141.73c0-7.684,6.254-13.961,13.959-13.961c2.479,0,4.78,0.648,6.813,1.787v-0.001
		c-2.033-1.139-4.334-1.787-6.813-1.787C43.585,127.768,37.331,134.045,37.331,141.73z"/>
	<path fill="none" d="M37.39,142.884c0.007,0.088,0.004,0.178,0.014,0.265C37.394,143.062,37.397,142.972,37.39,142.884z"/>
	<path fill="none" d="M196.064,139.508c0.065,0.08,0.122,0.167,0.184,0.25C196.186,139.675,196.129,139.588,196.064,139.508z"/>
	<path fill="none" d="M24.976,141.729L24.976,141.729c0,14.542,11.773,26.313,26.314,26.313c2.345,0,4.624-0.313,6.813-0.893v-0.001
		c-2.189,0.579-4.467,0.892-6.813,0.892C36.749,168.041,24.976,156.27,24.976,141.729z"/>
	<path fill="none" d="M137.092,159.955c-0.517,0.394-1.059,0.743-1.624,1.056C136.033,160.698,136.575,160.348,137.092,159.955z"/>
	<rect x="69.54" y="118.789" fill="none" width="0.001" height="22.917"/>
	<path fill="none" d="M142.481,146.627c-0.175,4.433-0.626,8.681-3.923,12.014C141.854,155.309,142.306,151.06,142.481,146.627z"/>
	<path fill="none" d="M162.685,145.441c-1.894,0.603-2.645,2.071-2.645,4.241l0,0C160.041,147.512,160.792,146.043,162.685,145.441z
		"/>
	<polygon fill="none" points="250.062,145.527 250.062,119.882 250.061,119.882 250.06,119.882 250.06,145.527 	"/>
	<rect x="237.462" y="130.003" fill="none" width="0.002" height="15.524"/>
	<polygon fill="none" points="258.483,155.311 258.484,155.311 258.485,155.311 258.485,145.527 258.483,145.527 	"/>
	<path fill="none" d="M163.568,145.237c1.298-0.2,2.617-0.268,3.938-0.285C166.185,144.969,164.866,145.036,163.568,145.237z"/>
	<path fill="none" d="M183.339,129.466c-3.397-0.335-6.926-0.335-10.364-0.335c-3.196,0-6.659,0-9.785,0.58
		c-0.715,0.135-1.36,0.336-1.969,0.782c-1.494,1.184-1.358,4.444-1.358,6.121v1.697v0.715c0,0,0.001,0,0.001-0.001v-0.713v-1.697
		c0-1.677-0.136-4.937,1.359-6.121c0.606-0.446,1.253-0.647,1.968-0.782c3.126-0.58,6.589-0.58,9.785-0.58
		c3.438,0,6.967,0,10.363,0.335c0.647,0.066,1.563,0.133,2.146,0.581c-0.001,0-0.001,0-0.001-0.001
		C184.902,129.599,183.985,129.532,183.339,129.466z"/>
	<path fill="none" d="M196.469,140.062c0.063,0.095,0.116,0.197,0.175,0.295C196.585,140.259,196.532,140.157,196.469,140.062z"/>
	<path fill="none" d="M147.329,148.64c0.001,0.049,0.002,0.1,0.003,0.148c0.002,0.054,0.004,0.11,0.006,0.165
		c-0.002-0.055-0.004-0.112-0.006-0.167C147.331,148.739,147.33,148.689,147.329,148.64z"/>
	<path fill="none" d="M196.475,122.831C196.475,122.831,196.474,122.831,196.475,122.831c2.068,2.136,2.032,6.355,2.032,9.17
		C198.507,129.186,198.544,124.969,196.475,122.831z"/>
	<path fill="none" d="M190.33,162.948c-2.68,0.513-5.404,0.716-8.084,0.782c-3.912,0.068-7.752,0.134-11.685,0.134
		c-4.789,0-13.237,0.258-18.073-2.223c4.835,2.48,13.283,2.224,18.074,2.224c3.934,0,7.773-0.066,11.686-0.134
		c2.68-0.067,5.403-0.269,8.084-0.782c6.903-1.359,7.953-6.923,7.953-13.111c0-2.759-0.044-6.505-1.463-9.179
		c1.418,2.674,1.461,6.419,1.461,9.177C198.283,156.025,197.234,161.589,190.33,162.948z"/>
	<polygon points="234.781,130.003 214.567,143.828 214.567,145.527 237.462,145.527 237.462,130.003 	"/>
	<path d="M233.509,98.885h-3.719h-15.646H79.639h-29.71c-23.567,0-42.845,19.277-42.845,42.845
		c0,23.564,19.277,42.846,42.845,42.846h164.216h18.665h0.725c23.563,0,42.842-19.281,42.842-42.846
		C276.375,118.163,257.076,98.885,233.509,98.885z M58.103,153.903v13.246v0.001c-2.189,0.579-4.468,0.893-6.813,0.893
		c-14.541,0-26.314-11.771-26.314-26.313v0v0c0-14.543,11.773-26.314,26.314-26.314c2.37,0,4.647,0.314,6.813,0.894v0.001v13.245
		v0.001c-2.033-1.139-4.334-1.787-6.813-1.787c-7.705,0-13.958,6.277-13.959,13.961c0,0.389,0.027,0.772,0.059,1.154
		c0.007,0.088,0.004,0.178,0.014,0.265c0.715,7.002,6.663,12.521,13.887,12.543c2.479,0,4.803-0.649,6.813-1.791V153.903z
		 M58.082,153.187v-10.52h12.397L81,153.187H58.082z M81,130.248l-10.521,10.52H58.082v-10.52v-0.001L81,130.248L81,130.248
		L81,130.248z M102.333,149.612c1.956,1.89,6.94,2.244,10.084,2.303c0.449,0.009,0.86,0.011,1.22,0.011c1.956,0,3.873,0,5.829-0.271
		c3.956-0.514,6.272-1.726,6.91-5.915h16.137c-0.01,0.297-0.021,0.593-0.032,0.889c-0.175,4.433-0.626,8.682-3.923,12.014
		c-0.459,0.484-0.95,0.92-1.466,1.313s-1.059,0.743-1.624,1.056c-0.282,0.156-0.569,0.303-0.861,0.44
		c-3.212,1.514-6.991,1.953-10.505,2.142c-3.879,0.159-7.632,0.28-11.463,0.28c-0.432,0-0.875,0.001-1.329,0.001
		c-6.801,0.003-15.819-0.097-21.359-3.96c-5.755-4.033-5.471-12.455-5.471-18.646c0-6.111-0.08-13.378,5.028-17.654
		c0.868-0.73,1.896-1.325,3.017-1.83c2.915-1.313,6.534-1.947,10.16-2.238c3.905-0.314,7.802-0.245,10.79-0.245
		c6.83,0,18.65-0.277,24.326,4.313c0.276,0.225,0.517,0.456,0.76,0.687c0.693,0.658,1.271,1.363,1.762,2.176
		c0.284,0.471,0.55,0.968,0.79,1.531c1.36,3.155,1.44,6.19,1.519,9.585h-16.136c-0.045-0.409-0.115-0.792-0.209-1.151
		c-1.315-5.017-7.229-5.199-11.909-5.201c-0.334,0-0.662,0-0.982,0c-2.795,0-8.624,0.079-10.863,1.959
		c-0.135,0.112-0.261,0.236-0.379,0.369c-1.776,2.002-1.776,6.259-1.776,8.615C100.375,144.621,100.457,147.819,102.333,149.612z
		 M198.507,132.036h-12.375v0.044c0-0.014-0.002-0.031-0.002-0.045l0,0v0.044c0-0.647-0.067-1.563-0.646-2.031
		c-0.582-0.448-1.498-0.515-2.146-0.581c-3.396-0.335-6.926-0.335-10.363-0.335c-3.196,0-6.659,0-9.785,0.58
		c-0.715,0.135-1.361,0.336-1.968,0.782c-1.495,1.184-1.359,4.444-1.359,6.121v1.697v0.713c0.779-0.78,1.56-1.429,2.546-1.965
		c3.664-2.077,10.967-1.898,15.055-1.898c4.445,0,9.852,0.067,14.094,1.43c1.566,0.513,2.859,1.227,4.045,2.412c0,0,0,0,0.001,0v0
		c0.076,0.075,0.144,0.158,0.216,0.236c0.082,0.089,0.168,0.173,0.244,0.267c0.065,0.08,0.122,0.167,0.184,0.25
		c0.074,0.101,0.152,0.198,0.222,0.304c0.063,0.095,0.116,0.197,0.175,0.295c0.059,0.1,0.122,0.197,0.178,0.301
		c1.419,2.674,1.463,6.42,1.463,9.179c0,6.188-1.05,11.752-7.953,13.111c-2.681,0.514-5.404,0.715-8.084,0.782
		c-3.912,0.067-7.752,0.134-11.686,0.134c-4.791,0-13.239,0.257-18.074-2.224c-0.69-0.354-1.308-0.766-1.83-1.24
		c-2.948-2.637-3.187-7.729-3.32-11.447c-0.002-0.055-0.004-0.111-0.006-0.165c-0.001-0.049-0.002-0.1-0.003-0.148
		c-0.067-2.813-0.134-5.709-0.134-8.519c0-5.228-0.578-13.694,3.711-17.424c4.106-3.597,18.137-3.396,23.274-3.396
		c2.86,0,5.741,0,8.601,0.134c3.977,0.135,10.698,0.336,13.693,3.395c0,0,0,0,0,0c0,0,0.001,0,0.001,0
		c2.069,2.138,2.032,6.355,2.032,9.17C198.507,132.012,198.507,132.024,198.507,132.036L198.507,132.036
		C198.507,132.036,198.507,132.036,198.507,132.036z M258.485,155.311L258.485,155.311h-0.002h-8.442v8.063H237.44h-0.001v-8.086
		H202.75v-16.642l25.845-18.765h0.001h21.465h0.001h0.001v25.645h8.421h0.002V155.311z"/>
	<path d="M182.358,145.369c-3.532-0.513-7.305-0.4-10.901-0.4c-1.308,0-2.631-0.033-3.951-0.017c-1.32,0.018-2.64,0.085-3.938,0.285
		c-0.318,0.05-0.612,0.118-0.883,0.204c-1.893,0.603-2.645,2.071-2.645,4.241c0,1.118,0.268,2.547,1.053,3.392
		c1.213,1.28,7.767,1.085,9.981,1.056c0.147-0.002,0.275-0.003,0.382-0.003c2.275,0,4.49-0.065,6.789-0.137
		c1.631-0.064,4.959,0.137,6.256-1.117c0.684-0.682,0.872-1.861,0.908-2.85c0.006-0.141,0.008-0.278,0.008-0.409
		C185.417,147.201,184.902,145.75,182.358,145.369z"/>
	
		<line fill="none" stroke="#FFFFFF" stroke-width="0" stroke-linecap="round" stroke-linejoin="round" x1="250.06" y1="119.882" x2="250.061" y2="119.882"/>
</g>
</svg>
