<?xml version="1.0" encoding="utf-8"?>
<!-- Generator: Adobe Illustrator 15.1.0, SVG Export Plug-In . SVG Version: 6.00 Build 0)  -->
<!DOCTYPE svg PUBLIC "-//W3C//DTD SVG 1.0//EN" "http://www.w3.org/TR/2001/REC-SVG-20010904/DTD/svg10.dtd">
<svg version="1.0" id="Layer_1" xmlns="http://www.w3.org/2000/svg" xmlns:xlink="http://www.w3.org/1999/xlink" x="0px" y="0px"
	 width="283.465px" height="283.465px" viewBox="-126.232 -126.732 283.465 283.465"
	 enable-background="new -126.232 -126.732 283.465 283.465" xml:space="preserve">
<g>
	<path fill="none" d="M34.99-62.99l-11.729,1.855l-4.245,29.669l49.549-50.846L39.007-77.29l-1.553,11.776
		C37.277-64.217,36.282-63.19,34.99-62.99z"/>
	<polygon fill="none" points="37.732,-112.576 -12.053,-61.498 31.912,-68.457 	"/>
	<polygon fill="none" points="17.185,-60.173 -14.08,-55.231 12.73,-29.094 	"/>
	<polygon fill="none" points="43.943,-114.766 39.807,-83.385 70.759,-88.638 	"/>
	<polygon fill="none" points="6.143,143.058 82.214,120.863 82.214,0.069 6.143,22.259 	"/>
	<polygon fill="none" points="-52.146,117.665 -3.16,141.774 -3.16,20.789 -52.146,-24.775 	"/>
	<path fill="none" d="M39.379-43.957l-8.117,8.331l12.496,11.274c0.716,0.646,1.022,1.627,0.8,2.571
		c-0.205,0.939-0.93,1.683-1.841,1.938C32.786-17.04,9.579-10.494,0.513-7.941c-2.311,0.651-4.789,0.079-6.569-1.529
		c-3.542-3.189-9.577-8.628-13.412-12.092c-0.716-0.646-1.032-1.632-0.813-2.571c0.223-0.944,0.934-1.688,1.859-1.953L1.592-31.73
		l-12.571-12.264l-36.652,10.711L2.721,13.56L77.695-8.309L39.379-43.957z"/>
	<path d="M91.456-6.951l-0.195-0.771L90.852-8.56l-0.529-0.693l-0.27-0.279L45.878-50.614L79.221-84.84l0.074-0.079
		c0.297-0.409,0.502-0.874,0.567-1.362l0.027-0.558l-0.074-0.525l-0.01-0.037c-0.093-0.39-0.27-0.771-0.529-1.097l-0.288-0.312
		l-35.314-34.421l-0.139-0.102c-0.335-0.251-0.717-0.409-1.106-0.498l-0.382-0.056l-0.204-0.009l-0.391,0.019
		c-0.539,0.065-1.042,0.274-1.488,0.627l-0.251,0.237l-62.305,63.937l-0.07,0.084c-0.339,0.446-0.54,0.972-0.586,1.506l-0.014,0.399
		l0.079,0.549l0.009,0.033c0.093,0.386,0.265,0.758,0.525,1.092l0.284,0.326l3.752,3.654l-39.465,11.501l-0.734,0.289l-0.619,0.349
		l-0.525,0.423l-0.609,0.674l-0.456,0.79l-0.246,0.646l-0.163,0.846l-0.019,0.479v155.992c0,1.767,1,3.385,2.589,4.165
		l58.489,28.796l0.762,0.251l0.92,0.131l0.8-0.037l0.688-0.149l85.355-24.899c1.99-0.577,3.356-2.399,3.356-4.463V-6.119
		L91.456-6.951z M43.943-114.766L70.74-88.638l-30.952,5.253L43.943-114.766z M68.546-82.311L19.007-31.465l4.244-29.669
		L34.98-62.99c1.302-0.2,2.287-1.228,2.455-2.515l1.553-11.776L68.546-82.311z M37.732-112.576l-5.82,44.128l-43.965,6.95
		L37.732-112.576z M17.185-60.173L12.73-29.094L-14.08-55.231L17.185-60.173z M-3.16,141.774l-48.986-24.109v-142.44L-3.16,20.789
		V141.774z M2.721,13.569l-50.353-46.852l36.662-10.702L1.61-31.721l-20.014,5.644c-0.925,0.256-1.636,1-1.855,1.953
		c-0.218,0.944,0.093,1.925,0.809,2.571c3.835,3.455,9.87,8.903,13.412,12.092c1.781,1.608,4.268,2.18,6.569,1.534
		c9.056-2.552,32.273-9.103,42.185-11.901c0.948-0.26,1.654-1.004,1.859-1.943c0.223-0.944-0.084-1.925-0.8-2.571L31.262-35.617
		l8.126-8.331L77.714-8.29L2.721,13.569z M82.214,120.863L6.143,143.058V22.259l76.071-22.19V120.863z"/>
</g>
</svg>
