<?xml version="1.0" encoding="iso-8859-1"?>
<!-- Generator: Adobe Illustrator 15.1.0, SVG Export Plug-In . SVG Version: 6.00 Build 0)  -->
<!DOCTYPE svg PUBLIC "-//W3C//DTD SVG 1.1//EN" "http://www.w3.org/Graphics/SVG/1.1/DTD/svg11.dtd">
<svg version="1.1" id="Layer_1" xmlns="http://www.w3.org/2000/svg" xmlns:xlink="http://www.w3.org/1999/xlink" x="0px" y="0px"
	 width="283.46px" height="283.46px" viewBox="0 0 283.46 283.46" style="enable-background:new 0 0 283.46 283.46;"
	 xml:space="preserve">
<g>
	<path style="fill-rule:evenodd;clip-rule:evenodd;fill:#191717;" d="M141.732,10.409c-74.355,0-134.648,60.28-134.648,134.645
		c0,59.49,38.58,109.959,92.079,127.766c6.729,1.246,9.202-2.922,9.202-6.479c0-3.21-0.127-13.818-0.184-25.066
		c-37.46,8.144-45.364-15.887-45.364-15.887c-6.123-15.564-14.95-19.701-14.95-19.701c-12.216-8.357,0.923-8.188,0.923-8.188
		c13.518,0.949,20.638,13.879,20.638,13.879c12.011,20.581,31.499,14.633,39.186,11.192c1.206-8.701,4.694-14.646,8.549-18.008
		c-29.909-3.401-61.348-14.95-61.348-66.541c0-14.7,5.261-26.711,13.875-36.141c-1.398-3.392-6.01-17.086,1.302-35.633
		c0,0,11.31-3.617,37.038,13.804c10.739-2.984,22.258-4.48,33.703-4.532c11.44,0.052,22.968,1.548,33.729,4.532
		c25.702-17.42,36.99-13.804,36.99-13.804c7.329,18.547,2.722,32.241,1.324,35.633c8.631,9.43,13.856,21.441,13.856,36.141
		c0,51.717-31.498,63.1-61.481,66.436c4.829,4.177,9.132,12.372,9.132,24.932c0,18.017-0.156,32.518-0.156,36.951
		c0,3.584,2.426,7.782,9.249,6.463c53.47-17.825,92.001-68.28,92.001-127.749C276.376,70.688,216.092,10.409,141.732,10.409z"/>
	<path style="fill:#191717;" d="M58.084,203.729c-0.297,0.671-1.351,0.871-2.309,0.41c-0.979-0.44-1.524-1.351-1.21-2.021
		c0.291-0.688,1.345-0.88,2.32-0.423C57.861,202.136,58.419,203.06,58.084,203.729L58.084,203.729z M56.425,202.502"/>
	<path style="fill:#191717;" d="M63.536,209.813c-0.641,0.593-1.898,0.318-2.748-0.622c-0.884-0.941-1.045-2.195-0.396-2.801
		c0.662-0.592,1.882-0.313,2.761,0.623C64.037,207.963,64.207,209.208,63.536,209.813L63.536,209.813z M62.251,208.434"/>
	<path style="fill:#191717;" d="M68.845,217.565c-0.823,0.575-2.173,0.039-3.01-1.158c-0.822-1.198-0.822-2.635,0.022-3.21
		c0.831-0.574,2.164-0.057,3.009,1.128C69.689,215.545,69.689,216.981,68.845,217.565L68.845,217.565z M68.845,217.565"/>
	<path style="fill:#191717;" d="M76.117,225.06c-0.736,0.814-2.308,0.593-3.458-0.518c-1.18-1.085-1.507-2.626-0.767-3.44
		c0.749-0.814,2.33-0.584,3.488,0.519C76.548,222.704,76.905,224.255,76.117,225.06L76.117,225.06z M76.117,225.06"/>
	<path style="fill:#191717;" d="M86.15,229.41c-0.326,1.055-1.837,1.533-3.361,1.085c-1.524-0.462-2.521-1.698-2.213-2.761
		c0.313-1.063,1.838-1.563,3.371-1.085C85.472,227.111,86.469,228.335,86.15,229.41L86.15,229.41z M86.15,229.41"/>
	<path style="fill:#191717;" d="M97.173,230.216c0.035,1.111-1.259,2.029-2.856,2.052c-1.611,0.034-2.914-0.862-2.931-1.956
		c0-1.123,1.263-2.033,2.874-2.06C95.857,228.222,97.173,229.114,97.173,230.216L97.173,230.216z M97.173,230.216"/>
	<path style="fill:#191717;" d="M107.424,228.47c0.192,1.085-0.919,2.195-2.508,2.491c-1.563,0.287-3.01-0.383-3.21-1.454
		c-0.195-1.111,0.937-2.226,2.5-2.514C105.796,226.72,107.224,227.368,107.424,228.47L107.424,228.47z M107.424,228.47"/>
</g>
</svg>
