<?xml version="1.0" encoding="utf-8"?>
<!-- Generator: Adobe Illustrator 15.1.0, SVG Export Plug-In . SVG Version: 6.00 Build 0)  -->
<!DOCTYPE svg PUBLIC "-//W3C//DTD SVG 1.1//EN" "http://www.w3.org/Graphics/SVG/1.1/DTD/svg11.dtd">
<svg version="1.1" id="Layer_1" xmlns="http://www.w3.org/2000/svg" xmlns:xlink="http://www.w3.org/1999/xlink" x="0px" y="0px"
	 width="283.465px" height="283.465px" viewBox="1323.768 1323.767 283.465 283.465"
	 enable-background="new 1323.768 1323.767 283.465 283.465" xml:space="preserve">
<path d="M1465.5,1330.854c-74.365,0-134.646,60.28-134.646,134.646s60.28,134.646,134.646,134.646s134.646-60.28,134.646-134.646
	C1600.146,1391.144,1539.865,1330.864,1465.5,1330.854z M1527.25,1525.046c-2.416,3.969-7.589,5.209-11.539,2.793
	c-31.615-19.322-71.416-23.687-118.283-12.982c-4.52,1.038-9.022-1.792-10.051-6.313c-1.038-4.52,1.782-9.021,6.312-10.051
	c51.286-11.715,95.286-6.671,130.778,15.013C1528.417,1515.94,1529.676,1521.094,1527.25,1525.046z M1543.724,1488.395
	c-3.041,4.943-9.509,6.487-14.442,3.455c-36.182-22.244-91.363-28.684-134.168-15.692c-5.549,1.681-11.411-1.452-13.102-6.992
	c-1.672-5.549,1.461-11.402,7.001-13.093c48.897-14.838,109.692-7.653,151.248,17.889
	C1545.203,1477.003,1546.766,1483.462,1543.724,1488.395L1543.724,1488.395z M1545.139,1450.212
	c-43.402-25.771-114.993-28.142-156.43-15.573c-6.652,2.021-13.689-1.737-15.702-8.389s1.736-13.689,8.397-15.711
	c47.565-14.434,126.625-11.65,176.587,18.008c5.981,3.555,7.947,11.282,4.401,17.254
	C1558.857,1451.792,1551.112,1453.767,1545.139,1450.212z"/>
</svg>
