<?xml version="1.0" encoding="utf-8"?>
<!-- Generator: Adobe Illustrator 15.1.0, SVG Export Plug-In . SVG Version: 6.00 Build 0)  -->
<!DOCTYPE svg PUBLIC "-//W3C//DTD SVG 1.1//EN" "http://www.w3.org/Graphics/SVG/1.1/DTD/svg11.dtd">
<svg version="1.1" id="Layer_1" xmlns="http://www.w3.org/2000/svg" xmlns:xlink="http://www.w3.org/1999/xlink" x="0px" y="0px"
	 width="283.465px" height="283.465px" viewBox="1108.268 248.267 283.465 283.465"
	 enable-background="new 1108.268 248.267 283.465 283.465" xml:space="preserve">
<path d="M1371.56,446.744c-1.347-3.234-2.695-6.738-4.042-9.705c-2.16-4.85-4.316-9.436-6.199-13.748l-0.27-0.27
	c-18.602-40.435-38.545-81.404-59.574-121.834l-0.807-1.621c-2.213-4.194-4.367-8.418-6.467-12.67
	c-2.697-4.855-5.391-9.972-9.704-14.827c-8.625-10.782-21.026-16.715-34.231-16.715c-13.48,0-25.609,5.933-34.501,16.174
	c-4.045,4.85-7.012,9.972-9.706,14.827c-2.104,4.249-4.259,8.473-6.465,12.67l-0.811,1.621
	c-20.757,40.431-40.972,81.402-59.572,121.834l-0.272,0.537c-1.885,4.318-4.044,8.9-6.202,13.746
	c-1.346,2.969-2.693,6.203-4.039,9.705c-3.506,9.973-4.586,19.408-3.234,29.115c2.965,20.219,16.44,37.193,35.042,44.748
	c7.009,2.967,14.288,4.314,21.833,4.314c2.157,0,4.85-0.27,7.01-0.543c8.897-1.076,18.061-4.039,26.958-9.16
	c11.052-6.201,21.564-15.094,33.424-28.033c11.86,12.939,22.641,21.832,33.424,28.033c8.899,5.121,18.061,8.084,26.955,9.16
	c2.156,0.275,4.855,0.543,7.012,0.543c7.549,0,15.094-1.348,21.831-4.314c18.872-7.555,32.077-24.799,35.046-44.748
	C1376.141,466.15,1375.063,456.72,1371.56,446.744L1371.56,446.744z M1249.993,460.76c-14.558-18.33-23.993-35.58-27.225-50.133
	c-1.346-6.201-1.618-11.592-0.808-16.445c0.536-4.314,2.157-8.089,4.313-11.323c5.122-7.273,13.747-11.859,23.722-11.859
	c9.977,0,18.871,4.313,23.725,11.859c2.156,3.233,3.771,7.012,4.316,11.323c0.805,4.855,0.535,10.514-0.811,16.445
	C1273.982,424.91,1264.545,442.164,1249.993,460.76z M1357.541,473.429c-1.886,14.018-11.321,26.15-24.527,31.543
	c-6.469,2.691-13.48,3.502-20.484,2.691c-6.737-0.811-13.48-2.967-20.484-7.006c-9.705-5.396-19.407-13.748-30.73-26.15
	c17.789-21.832,28.57-41.783,32.615-59.568c1.888-8.359,2.16-15.904,1.347-22.918c-1.075-6.737-3.503-12.938-7.276-18.33
	c-8.361-12.134-22.38-19.138-38.009-19.138c-15.629,0-29.648,7.278-38.004,19.138c-3.772,5.392-6.202,11.593-7.279,18.33
	c-1.077,7.014-0.811,14.828,1.347,22.918c4.042,17.785,15.093,38.004,32.613,59.838c-11.052,12.4-21.026,20.758-30.731,26.15
	c-7.01,4.045-13.745,6.201-20.482,7.006c-7.276,0.811-14.289-0.27-20.487-2.693c-13.206-5.391-22.642-17.525-24.526-31.541
	c-0.808-6.738-0.272-13.475,2.426-21.023c0.805-2.697,2.157-5.391,3.503-8.625c1.888-4.314,4.04-8.9,6.199-13.48l0.272-0.535
	c18.597-40.167,38.543-81.139,59.299-121.031l0.808-1.621c2.16-4.04,4.316-8.354,6.471-12.398c2.157-4.313,4.581-8.358,7.548-11.864
	c5.66-6.463,13.206-9.972,21.564-9.972c8.358,0,15.903,3.509,21.563,9.972c2.969,3.514,5.392,7.559,7.549,11.864
	c2.16,4.045,4.316,8.358,6.469,12.398l0.811,1.621c20.439,40.058,40.121,80.498,59.032,121.3v0.268
	c2.159,4.32,4.044,9.168,6.202,13.486c1.346,3.229,2.695,5.922,3.503,8.621C1357.813,459.679,1358.621,466.424,1357.541,473.429
	L1357.541,473.429z"/>
</svg>
