<?xml version="1.0" encoding="utf-8"?>
<!-- Generator: Adobe Illustrator 15.1.0, SVG Export Plug-In . SVG Version: 6.00 Build 0)  -->
<!DOCTYPE svg PUBLIC "-//W3C//DTD SVG 1.1//EN" "http://www.w3.org/Graphics/SVG/1.1/DTD/svg11.dtd">
<svg version="1.1" id="Layer_1" xmlns="http://www.w3.org/2000/svg" xmlns:xlink="http://www.w3.org/1999/xlink" x="0px" y="0px"
	 width="283.465px" height="283.465px" viewBox="0 0 283.465 283.465" enable-background="new 0 0 283.465 283.465"
	 xml:space="preserve">
<title>Logo</title>
<g>
	<defs>
		<filter id="Adobe_OpacityMaskFilter" filterUnits="userSpaceOnUse" x="45.748" y="7.087" width="191.969" height="269.291">
			<feColorMatrix  type="matrix" values="1 0 0 0 0  0 1 0 0 0  0 0 1 0 0  0 0 0 1 0"/>
		</filter>
	</defs>
	<mask maskUnits="userSpaceOnUse" x="45.748" y="7.087" width="191.969" height="269.291" id="b">
		<g filter="url(#Adobe_OpacityMaskFilter)">
			<path id="a" fill="#FFFFFF" d="M45.896-100.897h1128.885v468.262H45.896V-100.897z"/>
		</g>
	</mask>
	<path mask="url(#b)" fill="#1A1918" d="M163.729,109.737c-24.33-8.998-37.662-15.998-37.662-26.996
		c0-9.332,7.668-14.664,21.332-14.664c24.996,0,50.658,9.666,68.322,18.33l9.998-61.656c-13.998-6.666-42.66-17.664-82.318-17.664
		c-27.996,0-51.328,7.332-67.99,20.996c-17.332,14.33-26.33,34.996-26.33,59.992c0,45.326,27.664,64.656,72.656,80.986
		c28.994,10.33,38.66,17.664,38.66,28.996c0,10.998-9.332,17.33-26.33,17.33c-20.996,0-55.656-10.332-78.32-23.662l-9.998,62.322
		c19.33,10.998,55.324,22.33,92.652,22.33c29.66,0,54.324-7,70.988-20.33c18.662-14.664,28.328-36.326,28.328-64.322
		C237.717,145.397,209.389,126.067,163.729,109.737L163.729,109.737z"/>
</g>
</svg>
