<?xml version="1.0" encoding="utf-8"?>
<!-- Generator: Adobe Illustrator 15.1.0, SVG Export Plug-In . SVG Version: 6.00 Build 0)  -->
<!DOCTYPE svg PUBLIC "-//W3C//DTD SVG 1.1//EN" "http://www.w3.org/Graphics/SVG/1.1/DTD/svg11.dtd">
<svg version="1.1" id="Layer_1" xmlns="http://www.w3.org/2000/svg" xmlns:xlink="http://www.w3.org/1999/xlink" x="0px" y="0px"
	 width="283.465px" height="283.465px" viewBox="0 0 283.465 283.465" enable-background="new 0 0 283.465 283.465"
	 xml:space="preserve">
<g>
	<path d="M96.366,165.525l0.201-1.297l14.178-89.887c0.98-6.303,6.322-10.877,12.705-10.877c0.004,0,0.012,0,0.018,0h66.688
		c5.125,0,9.967,0.244,14.547,0.677c2.691,0.251,5.322,0.551,7.811,0.948c1.221,0.197,2.441,0.427,3.66,0.672
		c0.699,0.139,1.4,0.275,2.088,0.428c1.861,0.411,3.693,0.882,5.445,1.402v0.002c0.002,0.002,0.002,0.002,0.004,0.002l0.002-0.01
		c0.361,0.108,0.709,0.223,1.064,0.332c1.316,0.397,2.625,0.832,3.914,1.315c0.131,0.048,0.256,0.103,0.385,0.149
		c0.633,0.242,1.262,0.49,1.887,0.752c0.447,0.188,0.889,0.388,1.33,0.584c0.25,0.111,0.502,0.216,0.75,0.33
		c2.504-19.139-0.896-32.067-11.441-44.088c-11.584-13.188-32.855-19.875-63.227-19.875H73.29c-4.92,0.002-9.053,3.533-9.824,8.396
		L28.042,240.137c-0.438,2.766,1.451,5.367,4.213,5.807c0.261,0.039,0.526,0.063,0.793,0.063h50.617l10.238-64.883L96.366,165.525z"
		/>
	<path d="M236.489,77.901c-0.115,0.638-0.232,1.272-0.355,1.907c-0.287,1.467-0.598,2.906-0.92,4.333
		c-11.242,49.767-44.828,74.999-99.908,74.999h-24.965c-4.912,0.004-9.023,3.529-9.775,8.387l-16.42,104.037
		c-0.357,2.268,1.193,4.402,3.461,4.762c0.223,0.035,0.438,0.053,0.654,0.053h44.275c4.162,0,7.658-2.992,8.314-7.111l0.445-2.324
		l8.332-52.813l0.539-2.973c0.988-6.25,6.34-10.82,12.717-10.82h6.627c47.941,0,75.449-21.594,84.102-66.017
		c4.176-21.497,1.365-38.016-8.35-49.098C242.698,82.367,239.753,79.91,236.489,77.901z"/>
	<path d="M222.437,71.86v0.007c-1.65-0.49-3.381-0.936-5.139-1.322c-1.785-0.396-3.631-0.744-5.486-1.037
		c-6.465-1.051-13.748-1.584-21.658-1.584h-66.689c-0.004,0-0.008,0-0.012,0c-4.172,0-7.662,2.988-8.305,7.109l-12.959,82.166
		c2.32-1.596,5.131-2.516,8.15-2.518h24.967c54.982,0,86.531-24.768,96.451-75.721c0.219-1.123,0.414-2.222,0.596-3.306
		c-2.414-1.179-4.914-2.194-7.453-3.026C224.091,72.362,223.272,72.11,222.437,71.86z"/>
</g>
</svg>
