<?xml version="1.0" encoding="utf-8"?>
<!-- Generator: Adobe Illustrator 15.1.0, SVG Export Plug-In . SVG Version: 6.00 Build 0)  -->
<!DOCTYPE svg PUBLIC "-//W3C//DTD SVG 1.1//EN" "http://www.w3.org/Graphics/SVG/1.1/DTD/svg11.dtd">
<svg version="1.1" id="Layer_1" xmlns="http://www.w3.org/2000/svg" xmlns:xlink="http://www.w3.org/1999/xlink" x="0px" y="0px"
	 width="283.465px" height="283.465px" viewBox="0 0 283.465 283.465" enable-background="new 0 0 283.465 283.465"
	 xml:space="preserve">
<g>
	<path d="M194.243,145.783c-2.338-1.119-5.914,0.953-9.154,4.926c-2.648,3.266-4.094,6.576-4.143,9.816
		c-0.014,1.145,0.422,2.564,1.434,3.096c2.287,1.191,5.045-0.59,7.045-2.24c1.314-1.084,2.408-2.205,3.373-3.648
		c1.047-1.566,1.807-2.604,2.648-4.385c0.121-0.254,0.072-0.324-0.047-0.361c-0.289-0.107-0.592-0.324-0.627-0.564
		c-0.045-0.152-0.027-0.316,0.049-0.459C195.903,149.758,196.675,146.953,194.243,145.783z"/>
	<path d="M128.521,131.357c1.125-0.307,2.1-1.008,2.746-1.977c0.602-0.867,0.879-2.119,0.289-2.625
		c-0.529-0.443-1.385-0.324-2.023,0.242c-1.102,0.971-1.654,2.42-1.48,3.877C128.136,131.32,128.317,131.404,128.521,131.357z"/>
	<path d="M141.733,99.502c-68.758,0-124.482,18.992-124.482,42.248c0,23.244,55.725,42.248,124.482,42.248
		c68.756,0,124.48-19.004,124.48-42.248S210.476,99.502,141.733,99.502z M77.794,169.523c-7.346,0.047-13.826-4.492-14.572-12.369
		c-0.43-4.096,0.748-8.199,3.287-11.441c2.191-2.854,5.902-5.215,9.033-5.793c1.012-0.191,2.385-0.07,2.951,0.604
		c0.891,1.035,0.637,2.168-0.254,2.625c-2.396,1.217-5.275,3.313-6.695,6.166c-1.338,2.473-1.195,5.482,0.373,7.816
		c2.951,4.455,11.188,4.576,18.836-2.529c1.904-1.746,3.59-3.422,5.313-5.396c3.373-3.854,4.49-5.262,8.973-11.477
		c0.047-0.072,0.072-0.168,0.047-0.205c-0.035-0.084-0.096-0.098-0.229-0.121c-2.986,0.096-5.6,0.988-8.129,2.877
		c-0.723,0.531-1.783,0.459-2.24-0.24c-0.506-0.795-0.145-1.832,0.699-2.41c4.07-2.842,8.527-3.348,13.078-4.119
		c0,0,0.314,0,0.578-0.324c1.867-2.408,3.277-4.564,5.264-6.984c2.012-2.457,4.602-4.721,6.576-6.42
		c2.77-2.373,4.539-3.166,6.334-4.154c0.482-0.242-0.061-0.543-0.205-0.543c-10.057-1.891-20.498-4.336-30.482-0.639
		c-6.912,2.578-9.947,8.07-8.49,11.73c1.035,2.602,4.455,3.012,7.66,1.445c2.648-1.289,5.119-3.396,6.865-6.094
		c0.963-1.506,3.021-0.422,1.914,2.191c-2.928,6.865-8.502,12.309-15.295,12.537c-5.791,0.193-9.525-4.07-9.514-9.32
		c0.023-10.357,11.563-17.176,23.666-18.199c14.598-1.203,28.422,2.686,42.91,4.445c11.105,1.336,21.75,1.371,32.916-1.205
		c1.324-0.277,2.24,0.564,2.168,1.891c-0.121,1.926-1.615,3.781-5.287,5.781c-4.18,2.299-8.551,2.998-13.129,3.035
		c-11.031,0.096-21.316-4.217-31.975-6.527c0.012,0.469,0.145,1.021-0.24,1.324c-5.902,4.336-11.236,8.756-14.814,14.959
		c-0.119,0.145-0.047,0.289,0.156,0.264c3.107-0.156,5.891-0.24,8.793-0.48c0.494-0.037,0.518-0.158,0.48-0.531
		c-0.316-2.324,0.52-4.656,2.24-6.25c1.928-1.723,4.334-1.926,5.938-0.674c1.807,1.408,1.65,3.961,0.662,5.863
		c-0.898,1.693-2.445,2.949-4.287,3.482c0,0-0.336,0.072-0.289,0.373c0.061,0.48,2.252,1.697,2.434,2.021
		c0.182,0.314,0.084,0.783-0.24,1.145c-0.262,0.316-0.65,0.504-1.061,0.506c-0.375,0-0.602-0.131-1.084-0.396
		c-1.148-0.613-2.17-1.439-3.012-2.434c-0.289-0.35-0.434-0.361-1.119-0.313c-3.131,0.182-8.021,0.65-11.322,1.061
		c-0.807,0.096-0.926,0.252-1.084,0.529c-5.273,8.695-10.91,18.078-17.102,24.365C89.163,167.703,83.647,169.473,77.794,169.523z
		 M220.835,127.25v-0.012c-1.037,1.77-20.752,31.793-21.992,34.889c-0.396,1-0.445,1.746-0.035,2.289
		c1.035,1.385,3.322,0.578,4.77-0.422c4.264-2.951,7.227-6.504,10.514-9.635c0.182-0.133,0.506-0.193,0.723,0
		c0.482,0.457,1.191,1.035,1.676,1.541c0.24,0.254,0.145,0.494,0.021,0.639c-3.201,3.914-6.742,7.611-10.141,10.225
		c-5.273,4.082-10.537,5.131-13.139,2.518c-0.963-0.986-1.494-2.371-1.566-3.553c-0.035-0.639-0.361-0.676-0.662-0.373
		c-3.119,3.084-8.525,6.479-13.439,4.07c-4.119-2.047-5.07-6.949-4.301-11.08c0.025-0.084-0.07-0.674-0.576-0.324
		c-0.844,0.613-1.977,1.289-3.373,1.807c-1.283,0.59-2.682,0.887-4.096,0.867c-2.07,0.02-3.998-1.063-5.057-2.842
		c-0.723-1.072-1-2.699-1.084-3.879c0-0.133-0.17-0.373-0.361-0.061c-3.359,5.117-6.492,10.08-9.814,15.295
		c-0.17,0.24-0.326,0.396-0.676,0.422h-6.576c-0.408,0-0.602-0.313-0.385-0.699c1.182-2.264,7.563-11.563,11.898-19.484
		c1.191-2.182,0.951-3.301,0.205-3.783c-0.928-0.602-2.771,0.301-4.336,1.494c-4.252,3.215-7.828,8.238-9.635,10.49
		c-1.072,1.313-2.082,3.273-4.865,6.285c-4.385,4.77-10.201,7.504-15.801,5.611c-2.996-1.018-5.291-3.461-6.119-6.514
		c-0.168-0.578-0.506-0.748-0.818-0.361c-0.904,1.131-2.758,2.793-4.301,3.842c-0.168,0.119-0.59,0.373-0.951,0.191
		c-0.672-0.658-1.244-1.414-1.697-2.24c-0.141-0.305-0.066-0.664,0.182-0.891c2.215-1.939,3.42-3.047,4.383-4.252
		c0.814-1.076,1.461-2.27,1.916-3.541c1.336-3.396,4.408-9.73,10.514-13.006c2.336-1.24,4.697-2.145,7.322-2.445
		c1.121-0.121,2.047,0.012,2.385,0.904l0.639,1.758c0.119,0.361,0.023,0.639-0.398,0.795c-3.6,1.373-7.213,3.492-9.719,6.84
		c-2.83,3.807-3.588,8.371-1.697,10.996c1.385,1.914,3.625,2.252,5.77,1.566c3.264-1.023,6.033-4.072,7.467-7.443
		c1.553-3.686,1.807-8.045,0.662-11.875c-0.193-0.662-0.025-1.168,0.41-1.529c0.865-0.711,2.059-1.252,2.408-1.434
		c0.707-0.381,1.592-0.168,2.047,0.494c1.25,2.059,1.902,4.422,1.891,6.83c0.084,0.541,0.313,0.553,0.566,0.264
		c2.133-2.264,4.119-4.684,6.383-6.502c2.072-1.65,4.732-3,7.215-2.938c3.203,0.07,4.805,2.252,4.697,6.129
		c-0.014,0.48,0.336,0.457,0.578,0.121c0.74-1.121,1.65-2.119,2.695-2.965c2.219-1.828,4.492-2.648,6.855-2.479
		c0.125,0.008,0.252,0.021,0.377,0.039c2.832,0.406,4.797,3.031,4.391,5.861c-0.238,1.943-1.418,3.646-3.154,4.553
		c-1.529,0.758-3.301,0.627-4.541-0.482c-0.982-0.922-1.396-2.301-1.084-3.611c0.061-0.277-0.301-0.543-0.602-0.23
		c-2.855,2.963-3.059,6.805-1.205,8.527c2.061,1.902,5.131,0.627,7.383-0.832c4.119-2.697,7.299-6.334,10.984-9.141
		c2.457-1.854,5.238-3.504,8.369-3.938c1.723-0.258,3.48-0.049,5.096,0.602c2.24,0.902,3.66,2.793,3.842,4.432
		c0.035,0.482,0.408,0.543,0.697,0.121c1.771-2.771,11.285-17.018,12.068-18.512c0.229-0.469,0.494-0.541,1-0.541h6.805
		C220.835,126.707,221.003,126.938,220.835,127.25z"/>
	<path d="M141.733,91.24c-74.73,0-134.646,22.4-134.646,50.486c0,27.916,60.41,50.498,134.646,50.498
		c74.248,0,134.645-22.654,134.645-50.498C276.378,113.881,215.981,91.24,141.733,91.24z M141.733,187.828
		c-71.262,0-129.021-20.631-129.021-46.078c0-25.461,57.76-46.078,129.021-46.078c71.248,0,129.008,20.617,129.008,46.078
		C270.741,167.197,212.981,187.828,141.733,187.828z"/>
</g>
</svg>
