<?xml version="1.0" encoding="utf-8"?>
<!-- Generator: Adobe Illustrator 15.1.0, SVG Export Plug-In . SVG Version: 6.00 Build 0)  -->
<!DOCTYPE svg PUBLIC "-//W3C//DTD SVG 1.1//EN" "http://www.w3.org/Graphics/SVG/1.1/DTD/svg11.dtd">
<svg version="1.1" id="Layer_1" xmlns="http://www.w3.org/2000/svg" xmlns:xlink="http://www.w3.org/1999/xlink" x="0px" y="0px"
	 width="283.465px" height="283.465px" viewBox="0 0 283.465 283.465" enable-background="new 0 0 283.465 283.465"
	 xml:space="preserve">
<g>
	<path d="M196.671,62.024c-19.104,0-36.484,6.686-50.211,17.891c10.471,10.109,18.465,22.768,22.754,37.076h-6.623
		c-4.15-12.721-11.441-23.943-20.918-32.951c-9.541,9.086-16.682,20.395-20.783,32.912h-6.623
		c4.23-14.045,11.98-26.775,22.518-36.98c-13.693-11.092-30.992-17.947-49.988-17.947c-44.02,0-79.709,35.688-79.709,79.709
		c0,44.02,35.688,79.707,79.709,79.707c18.994,0,36.295-6.857,49.988-17.947c-10.391-10.078-18.248-22.754-22.518-36.98h6.623
		c4.104,12.52,11.242,23.826,20.783,32.912c9.479-9.008,16.768-20.229,20.918-32.951h6.623
		c-4.289,14.309-12.283,26.967-22.754,37.074c13.727,11.205,31.107,17.893,50.211,17.893c44.02,0.002,79.707-35.688,79.707-79.705
		C276.378,97.714,240.69,62.024,196.671,62.024z M43.185,160.429l4.73-25.086l-11.209,25.086h-7.607l-2.16-25.703l-4.936,25.703
		h-8.02l6.891-35.574h12.85l1.543,21.594l9.77-21.594h13.16l-6.682,35.574H43.185z M71.458,160.429l-1.027-1.646
		c-1.439,1.031-2.572,1.545-6.684,1.752c-4.113,0.203-9.355-2.879-8.43-8.949c2.26-12.336,16.654-10.07,18.709-10.277
		c0.926-4.422-2.156-4.012-4.936-4.113c-2.775-0.102-8.018,0.721-9.973,0.926l1.232-6.375c5.246-1.029,8.021-0.926,10.488-1.029
		c13.467,0,12.133,9.666,11.309,13.676l-3.188,16.039h-7.502V160.429z M104.052,152.101c-1.334,8.844-10.896,8.33-12.85,8.33
		c-2.779,0-5.758,0-9.459-1.031l1.131-6.064c4.01,1.338,9.354,0.723,10.588,0.723c2.689,0,3.064-3.404,1.029-4.422
		c-1.646-0.822-3.395-2.057-6.479-3.395c-1.914-0.828-3.908-3.082-2.777-8.533c1.477-7.109,11.104-6.99,12.234-6.99
		c1.133,0,4.113-0.311,7.918,1.129l-1.85,5.965c-2.266-0.617-6.068-0.617-7.918-0.41c-2.98,0.822-1.748,3.598-0.104,4.316
		c1.645,0.721,4.215,2.16,5.758,3.189C102.819,145.827,104.706,147.788,104.052,152.101z M117.931,159.093
		c-1.748,1.131-4.113,1.441-5.965,1.441c-1.85,0-7.918-1.135-6.373-9.15l5.553-27.969h8.02l-1.646,7.814h4.316l-1.438,6.375h-4.111
		l-2.264,11.926c-0.412,2.262-0.207,4.32,4.422,3.602L117.931,159.093z M135.821,153.747c3.189,0,7.818-0.414,9.053-0.719
		l-1.234,6.063c-1.955,1.029-6.891,1.441-10.285,1.338c-13.879,0-13.674-13.057-13.365-14.908
		c0.309-1.85,1.951-14.701,14.908-14.701c14.086,0,11.926,11.719,11,16.451h-17.477
		C127.497,153.954,132.636,153.747,135.821,153.747z M156.614,147.062l-2.465,13.369h-8.021v-0.002l0,0l5.451-29.199h6.889
		l0.719,2.879c1.236-1.439,3.602-2.879,7.607-2.879l-2.057,7.713C162.786,138.942,158.979,138.325,156.614,147.062z
		 M187.128,151.384l2.365,7.195c-2.674,1.234-5.35,1.85-9.77,1.85c-8.33,0-17.377-7.4-13.264-22.412
		c3.033-11.063,12.547-15.113,18.098-14.908c6.578,0.246,8.945,2.467,11.002,4.73l-5.246,5.24c-2.059-1.234-3.494-1.438-6.17-1.438
		c-2.672,0-8.637,2.555-9.766,9.768C173.042,149.942,178.901,154.155,187.128,151.384z M207.179,160.429l-1.029-1.646
		c-1.441,1.031-2.568,1.545-6.686,1.752c-4.113,0.203-9.354-2.879-8.428-8.949c2.262-12.336,16.654-10.07,18.711-10.277
		c0.928-4.422-2.158-4.012-4.936-4.113c-2.779-0.102-8.02,0.721-9.977,0.926l1.236-6.375c5.244-1.029,8.021-0.926,10.484-1.029
		c13.471,0,12.137,9.666,11.314,13.676l-3.189,16.039h-7.502V160.429z M228.394,146.903l-2.494,13.5h-8.102l5.504-29.492h6.957
		l0.729,2.906c1.248-1.455,3.637-2.906,7.688-2.906l-2.18,7.684C234.519,138.595,230.78,138.077,228.394,146.903z M258.688,134.313
		l2.154-11.307h8.434l-6.992,37.424h-8.635l-1.033-2.365c-1.643,1.131-4.313,2.264-6.988,2.365c-5.756,0-11.039-8.137-8.428-17.068
		c3.904-13.365,10.795-12.543,15.215-12.543C256.224,130.819,257.144,133.183,258.688,134.313z"/>
	<path d="M245.425,144.907c-1.131,4.213,1.338,7.4,4.113,7.4c2.982-0.002,4.832-2.365,6.271-5.965
		c0.822-2.672,0.373-6.012-0.516-7.193C252.829,135.858,247.155,138.46,245.425,144.907z"/>
	<path d="M201.522,147.987c-2.57,1.75-3.291,4.83-0.615,5.863c2.574,0.988,6.371-0.719,6.887-3.396l0.619-3.186l0,0
		C207.073,147.06,204.095,146.239,201.522,147.987z"/>
	<path d="M135.31,136.575c-3.189,0-5.451,1.646-6.377,5.35h9.975C139.421,139.044,138.497,136.575,135.31,136.575z"/>
	<path d="M65.804,147.987c-2.572,1.75-3.291,4.83-0.617,5.863c2.574,0.988,6.371-0.719,6.891-3.396l0.615-3.186
		C71.354,147.06,68.374,146.239,65.804,147.987z"/>
</g>
</svg>
