<?xml version="1.0" encoding="utf-8"?>
<!-- Generator: Adobe Illustrator 15.1.0, SVG Export Plug-In . SVG Version: 6.00 Build 0)  -->
<!DOCTYPE svg PUBLIC "-//W3C//DTD SVG 1.1//EN" "http://www.w3.org/Graphics/SVG/1.1/DTD/svg11.dtd">
<svg version="1.1" id="Layer_1" xmlns="http://www.w3.org/2000/svg" xmlns:xlink="http://www.w3.org/1999/xlink" x="0px" y="0px"
	 width="283.465px" height="283.465px" viewBox="0 0 283.465 283.465" enable-background="new 0 0 283.465 283.465"
	 xml:space="preserve">
<g id="Icons">
	<g id="Color-" transform="translate(-601.000000, -363.000000)">
		<path id="Blogger" d="M790.683,569.379h-96.182c-9.029,0-16.344-7.381-16.344-16.191c0-8.91,7.314-16.197,16.344-16.197h96.182
			c8.936,0,16.25,7.287,16.25,16.197C806.933,561.998,799.618,569.379,790.683,569.379 M694.503,439.639h47.326
			c9.029,0,16.344,7.289,16.344,16.191c0,8.912-7.314,16.284-16.344,16.284h-47.326c-9.029,0-16.344-7.372-16.344-16.284
			C678.159,446.928,685.472,439.639,694.503,439.639 M870.511,474.277c-5.686-2.432-30.068,0.27-36.844-5.85
			c-4.781-4.409-5.086-12.387-6.951-23.032c-3.125-17.824-4.426-21.863-7.678-28.882c-11.826-25.01-40.172-46.428-65.926-46.428
			h-59.691c-46.961,0-85.334,38.332-85.334,85.113v99.242c0,46.695,38.373,84.938,85.334,84.938h98.072
			c46.963,0,85.072-38.24,85.344-84.938l0.541-68.736C877.378,485.705,877.378,477.207,870.511,474.277"/>
	</g>
</g>
</svg>
