<?xml version="1.0" encoding="utf-8"?>
<!-- Generator: Adobe Illustrator 15.1.0, SVG Export Plug-In . SVG Version: 6.00 Build 0)  -->
<!DOCTYPE svg PUBLIC "-//W3C//DTD SVG 1.1//EN" "http://www.w3.org/Graphics/SVG/1.1/DTD/svg11.dtd">
<svg version="1.1" id="Layer_1" xmlns="http://www.w3.org/2000/svg" xmlns:xlink="http://www.w3.org/1999/xlink" x="0px" y="0px"
	 width="283.465px" height="283.465px" viewBox="0 0 283.465 283.465" enable-background="new 0 0 283.465 283.465"
	 xml:space="preserve">
<g>
	<path d="M65.684,172.153l28.176,20.445h28.924l1.246-2.743l-41.891-30.669C76.654,163.424,70.92,167.664,65.684,172.153z"/>
	<path d="M60.945,144.226l-21.193-15.958H10.828l-1.496,2.992l31.916,23.438C47.23,151.209,53.963,147.717,60.945,144.226z"/>
	<path d="M7.086,189.107l2.244,3.491h26.182C126.176,101.702,259.096,91.804,274.834,90.94
		C103.611,99.039,24.738,171.955,7.086,189.107z"/>
	<path d="M274.834,90.94c0.516-0.024,1.027-0.051,1.545-0.074C276.379,90.866,275.846,90.884,274.834,90.94z"/>
</g>
</svg>
