<?xml version="1.0" encoding="utf-8"?>
<!-- Generator: Adobe Illustrator 15.1.0, SVG Export Plug-In . SVG Version: 6.00 Build 0)  -->
<!DOCTYPE svg PUBLIC "-//W3C//DTD SVG 1.1//EN" "http://www.w3.org/Graphics/SVG/1.1/DTD/svg11.dtd">
<svg version="1.1" id="Layer_1" xmlns="http://www.w3.org/2000/svg" xmlns:xlink="http://www.w3.org/1999/xlink" x="0px" y="0px"
	 width="283.465px" height="283.464px" viewBox="0 0 283.465 283.464" enable-background="new 0 0 283.465 283.464"
	 xml:space="preserve">
<g>
	<path d="M54.444,122.69l-8.605,11.689h46.891c2.371,0,2.342,0.894,1.182,2.472c-1.176,1.598-3.145,4.358-4.346,5.984
		c-0.609,0.821-1.709,2.317,1.934,2.317h19.176l5.684-7.723c3.523-4.784,0.307-14.734-12.293-14.734L54.444,122.69z"/>
	<path d="M42.358,160.775l17.283-23.485h21.445c2.371,0,2.34,0.898,1.184,2.472l-4.377,5.961c-0.609,0.821-1.707,2.317,1.934,2.317
		h28.725c-2.383,3.274-10.141,12.735-24.047,12.735H42.358z M141.327,148.034l-9.371,12.741h-24.723l9.373-12.741H141.327z
		 M179.194,145.147h-60.459l16.531-22.457h24.711l-9.475,12.878h11.029l9.482-12.878h24.709L179.194,145.147z M177.071,148.034
		l-9.371,12.741h-24.711l9.371-12.741H177.071z M7.087,153.059h36.412l-1.988,2.702H7.087V153.059L7.087,153.059z M7.087,148.034
		H47.2l-1.994,2.701H7.087V148.034z M7.087,158.084h32.715l-1.979,2.689H7.087V158.084L7.087,158.084z M276.378,155.761h-36.281
		l1.992-2.702h34.289V155.761z M276.378,160.775h-39.965l1.975-2.689h37.99V160.775z M245.786,148.034h30.592v2.708h-32.58
		L245.786,148.034z M229.95,122.69l-16.533,22.457h-26.188l16.545-22.457H229.95z M185.112,148.034c0,0-1.803,2.472-2.686,3.653
		c-3.098,4.198-0.359,9.082,9.77,9.082h39.688l9.373-12.735H185.112L185.112,148.034z"/>
</g>
</svg>
