<?xml version="1.0" encoding="utf-8"?>
<!-- Generator: Adobe Illustrator 15.1.0, SVG Export Plug-In . SVG Version: 6.00 Build 0)  -->
<!DOCTYPE svg PUBLIC "-//W3C//DTD SVG 1.1//EN" "http://www.w3.org/Graphics/SVG/1.1/DTD/svg11.dtd">
<svg version="1.1" id="Layer_1" xmlns="http://www.w3.org/2000/svg" xmlns:xlink="http://www.w3.org/1999/xlink" x="0px" y="0px"
	 width="283.465px" height="283.465px" viewBox="1108.268 1108.268 283.465 283.465"
	 enable-background="new 1108.268 1108.268 283.465 283.465" xml:space="preserve">
<g>
	<path d="M1383.586,1255.982c-0.402-0.195-0.979-0.139-1.293,0.176c-0.526,0.531-0.691,1.273-0.817,1.98
		c-0.167,0.853-0.364,1.688-0.626,2.521c-0.91,2.961-2.742,5.505-5.071,7.524c-0.822,0.731-1.762,1.318-2.78,1.735
		c-0.943,0.379-2.204,0.766-3.234,0.76c-0.002-0.006-10.789-0.036-10.789-0.036l25.671-26.108l-39.814-0.147
		c-7.427,0.231-9.74,15.72-9.74,15.72c-0.682,2.706,1.323,3.442,2.495,0.05c2.722-7.872,14.363-6.228,16.453-6.188l-10.265,10.953
		l-20.984-0.077c-4.983-0.016-6.052,2.241-6.052,2.241l-3.873,4.768c-1.134,1.857-3.393,1.973-3.393,1.973
		c-3.197,0-2.766-2.327-2.766-2.327l2.018-9.193l22.406,0.09c1.747-3.533,3.341-8.315,2.155-12.272
		c-1.337-4.47-5.601-6.47-9.921-6.959c-7.314-0.816-16.283-1.403-22.77,2.809c-2.281,1.482-4.465,3.618-5.601,6.128
		c-1.27,2.819-2.03,5.869-2.661,8.88c-0.562,2.678-1.504,5.468-1.563,8.222c-0.035,1.527,0.383,3.42,1.725,4.348l-5.448-0.02
		c-3.448-0.016-1.745-6.299-1.745-6.299c0.592-1.892,2.777-10.39,3.832-15.658c1.65-8.195-9.656-8.316-10.629-8.313
		c-7.701-0.035-13.17,6.336-13.17,6.336c0.02-5.422-3.594-5.646-5.377-5.652l-16.92-0.06c-1.235-0.007-1.441,1.57-0.288,1.798
		c8.063,1.59,5.819,7.171,5.819,7.171l-4.486,16.524c-0.801,5.047-3.909,4.482-3.909,4.482c-3.696-0.347-2.035-4.42-2.035-4.42
		l3.598-14.618c0.482-1.932,1.142-4.79,0.341-6.408c-2.236-4.508-8.322-5.433-12.731-5.868c-3.301-0.325-6.545-0.213-9.843,0.007
		c-3.065,0.204-5.581,1.085-8.047,2.989c-2.22,1.703-3.908,3.546-5.622,5.747c-0.568,0.715-1.154,1.969-2.083,1.954
		c-0.551,0.005-2.067-0.01-2.417-0.007c0.037-9.838-9.812-10.31-10.969-10.316c-5.996-0.041-10.071,3.748-10.071,3.748l3.562-14.791
		c1.37-5.679-2.634-8.927-5.065-8.938l-14.633-0.053c-1.342-0.006-1.688,2.246,0.463,2.257c3.425,0.001,3.728,4.074,3.167,6.093
		l-9.812,36.843c-0.93,5.688-4.143,5.52-5.559,5.517c-4.42-0.022-2.613-4.966-2.613-4.966l11.271-42.103
		c2.668-9.491,12.03-9.319,12.03-9.319c2.778,0.011,2.94-3.5,1.033-3.504l-34.969-0.124l-5.065-0.021
		c-3.144-0.007-2.417,3.492-0.208,3.499c9.384,1.377,7.709,7.764,7.709,7.764l-10.876,41.124c-1.68,9.287-13.958,9.97-13.958,9.97
		c-1.695-0.015-2.042,2.833-0.117,2.847l48.701,0.172c2.37,0.012,6.517-5.309,6.517-5.309c4.103,7.447,11.324,6.326,11.324,6.326
		c15.993,0.067,18.031-22.422,18.031-22.422l13.104,0.055c1.552-0.725,7.448-5.855,7.448-5.855c6.097-2.762,4.015,3.004,4.015,3.004
		c-1.098,3.039-6.104,4.104-6.104,4.104c-5.263,0.503-11.458,2.65-11.458,2.65c-9.096,4.299-8.186,9.869-8.186,9.869
		c-0.038,9.39,9.972,8.699,9.972,8.699c6.914,0.026,10.751-5.431,10.751-5.431c0.381,2.282,2.144,4.087,4.417,4.522l26.208,0.094
		c6.086,0.025,8.383-6.231,8.383-6.231l3.447-13.091c1.367-7.431,5.291-6.9,5.291-6.9c3.27,0.021,3.514,3.518,3.283,4.454
		l-3.241,12.575c-3.448,9.172,4.194,9.262,4.194,9.262l46.534,0.174c4.433,0.01,10.352-8.592,10.352-8.592
		c0.771-0.969,1.756-1.546,3.197-1.545l5.573,0.023l-9.84,10.146l42.167,0.147c2.185,0.013,4.546-0.46,6.37-1.733
		c2.571-1.795,3.646-4.215,4.283-7.197c0.86-4.068,1.862-8.103,2.82-12.146C1384.355,1257.728,1384.57,1256.469,1383.586,1255.982
		L1383.586,1255.982z M1315.068,1250.063c2.911,0.013,2.729,3.431,1.658,6.811l-6.307-0.026
		C1310.445,1249.334,1315.068,1250.063,1315.068,1250.063z M1183.825,1262.035c-1.308,5.396-4.422,9.757-6.951,9.742
		c-2.529-0.014-3.517-4.399-2.206-9.797c1.305-5.396,4.422-9.761,6.95-9.749C1184.145,1252.24,1185.132,1256.622,1183.825,1262.035z
		 M1223.208,1263.951c-0.49,3.188-1.93,6.637-4.973,8.162c-1.475,0.735-3.321,0.881-4.187-0.775
		c-0.981-1.878,0.469-4.246,2.122-5.243c2.119-1.275,5.96-1.546,7.227-3.933C1223.194,1262.543,1223.277,1263.512,1223.208,1263.951
		L1223.208,1263.951z"/>
</g>
</svg>
