<?xml version="1.0" encoding="utf-8"?>
<!-- Generator: Adobe Illustrator 15.1.0, SVG Export Plug-In . SVG Version: 6.00 Build 0)  -->
<!DOCTYPE svg PUBLIC "-//W3C//DTD SVG 1.1//EN" "http://www.w3.org/Graphics/SVG/1.1/DTD/svg11.dtd">
<svg version="1.1" id="Layer_1" xmlns="http://www.w3.org/2000/svg" xmlns:xlink="http://www.w3.org/1999/xlink" x="0px" y="0px"
	 width="283.465px" height="283.465px" viewBox="0 0 283.465 283.465" enable-background="new 0 0 283.465 283.465"
	 xml:space="preserve">
<g>
	<path fill="#E82127" d="M141.762,276.378l37.834-212.785c36.064,0,47.439,3.955,49.082,20.096c0,0,24.191-9.02,36.395-27.342
		c-47.613-22.063-95.455-23.057-95.455-23.057l-27.918,34.002l0.063-0.004l-27.916-34.004c0,0-47.842,0.996-95.451,23.061
		c12.191,18.32,36.395,27.34,36.395,27.34c1.652-16.143,13.014-20.096,48.834-20.123L141.762,276.378z"/>
	<path fill="#E82127" d="M141.732,23.468c38.49-0.293,82.547,5.955,127.646,25.611c6.027-10.85,7.576-15.645,7.576-15.645
		c-49.299-19.504-95.469-26.18-135.229-26.348C101.971,7.255,55.805,13.931,6.51,33.435c0,0,2.199,5.906,7.572,15.645
		c45.09-19.656,89.154-25.904,127.645-25.611H141.732z"/>
</g>
</svg>
