<?xml version="1.0" encoding="utf-8"?>
<!-- Generator: Adobe Illustrator 15.1.0, SVG Export Plug-In . SVG Version: 6.00 Build 0)  -->
<!DOCTYPE svg PUBLIC "-//W3C//DTD SVG 1.1//EN" "http://www.w3.org/Graphics/SVG/1.1/DTD/svg11.dtd">
<svg version="1.1" id="Layer_1" xmlns="http://www.w3.org/2000/svg" xmlns:xlink="http://www.w3.org/1999/xlink" x="0px" y="0px"
	 width="283.465px" height="283.465px" viewBox="1108.268 1108.267 283.465 283.465"
	 enable-background="new 1108.268 1108.267 283.465 283.465" xml:space="preserve">
<g>
	<path d="M1119.314,1296.072h261.371v-92.145h-261.371V1296.072z M1250.443,1207.915c70.953,0,128.469,18.941,128.469,42.307
		s-57.517,42.307-128.469,42.307c-70.952,0-128.471-18.941-128.471-42.307S1179.49,1207.915,1250.443,1207.915z"/>
	<path d="M1296.043,1267.313h19.185c0,0-0.612-0.641-0.612-1.438c0-0.8,1.904-5.035,1.904-5.035h9.591
		c0.626,1.602,1.26,3.2,1.901,4.795c0.306,0.718-0.227,1.597-0.227,1.597h23.292l-12.407-30.036c0,0-0.532-1.438-0.532-2.237
		c0-0.799,0.609-2.237,0.609-2.237h-31.057c0,0,0.838,0.96,0.838,1.757c0,0.798-0.458,1.438-0.458,1.438L1296.043,1267.313z
		 M1320.859,1248.061l2.74,6.151h-5.024L1320.859,1248.061z"/>
	<path d="M1156.97,1267.289h22.987c0,0-0.685-1.358-0.685-2.955v-29.398c0-1.197,0.609-2.156,0.609-2.156h-22.836
		c0,0,0.609,1.277,0.609,2.395v29.397C1157.655,1265.929,1156.97,1267.289,1156.97,1267.289z"/>
	<path d="M1191.251,1267.177h21.713c0,0-0.686-1.257-0.686-2.201v-11.18l6.325,10.312c0,0,0.458,0.868,0.458,1.574
		c0,0.71-0.458,1.417-0.458,1.417h26.593l-12.038-19.127c0,0-0.381-0.551-0.381-0.945c0-0.394,0.457-0.944,0.457-0.944l9.372-13.066
		h-22.095v1.102c0,0.708-0.458,1.417-0.458,1.417l-7.695,9.839v-10.548c0-0.946,0.609-1.969,0.609-1.969h-21.714
		c0,0,0.609,1.024,0.609,1.967v30.543C1191.86,1266.312,1191.251,1267.177,1191.251,1267.177z"/>
	<path d="M1251.662,1267.177h38.616v-11.437c0,0-0.535,1.469-1.448,1.469h-16.299v-3.169h12.11c0.99,0,1.904,0.772,1.904,0.772
		v-9.196h-13.862v-2.858h15.92c1.063,0,1.901,0.772,1.901,0.772v-10.433h-38.843c0,0,0.689,1.313,0.688,2.551v29.829
		C1252.35,1266.173,1251.662,1267.177,1251.662,1267.177z"/>
</g>
</svg>
