<?xml version="1.0" encoding="utf-8"?>
<!-- Generator: Adobe Illustrator 15.1.0, SVG Export Plug-In . SVG Version: 6.00 Build 0)  -->
<!DOCTYPE svg PUBLIC "-//W3C//DTD SVG 1.1//EN" "http://www.w3.org/Graphics/SVG/1.1/DTD/svg11.dtd">
<svg version="1.1" id="Layer_1" xmlns="http://www.w3.org/2000/svg" xmlns:xlink="http://www.w3.org/1999/xlink" x="0px" y="0px"
	 width="283.465px" height="283.465px" viewBox="0 0 283.465 283.465" enable-background="new 0 0 283.465 283.465"
	 xml:space="preserve">
<g>
	<polygon fill="none" points="149.639,90.719 140.625,136.73 158.58,136.73 	"/>
	<path d="M91.396,179.15v-23.945H57.979v32.488c0,4.641-3.77,8.41-8.406,8.41c-4.646,0-8.098-3.764-8.098-8.41V95.66
		c0-4.645,3.451-8.406,8.098-8.406c4.631,0,8.406,3.758,8.406,8.406v32.686h33.379V94.441c-0.004-18.734-12.244-34.15-42.072-34.193
		c-30.623,0-42.199,15.49-42.199,34.227v96.078c0,18.572,14.744,32.629,33.592,32.623h10.355l33.152-26.859
		C90.336,191.191,91.396,184.832,91.396,179.15z"/>
	<polygon points="192.896,63.393 192.896,94.5 215.955,94.5 215.955,200.084 243.307,222.994 253.191,222.994 253.191,94.5 
		276.379,94.5 276.379,63.393 	"/>
	<polygon points="65.371,223.217 230.92,223.217 149.615,155.109 	"/>
	<path d="M202.322,188.678L172.824,63.568h-46.58l-27.137,121.74l50.529-40.773L202.322,188.678z M149.639,90.719l8.941,46.012
		h-17.955L149.639,90.719z"/>
</g>
</svg>
