<?xml version="1.0" encoding="utf-8"?>
<!-- Generator: Adobe Illustrator 15.1.0, SVG Export Plug-In . SVG Version: 6.00 Build 0)  -->
<!DOCTYPE svg PUBLIC "-//W3C//DTD SVG 1.1//EN" "http://www.w3.org/Graphics/SVG/1.1/DTD/svg11.dtd">
<svg version="1.1" id="Layer_5" xmlns="http://www.w3.org/2000/svg" xmlns:xlink="http://www.w3.org/1999/xlink" x="0px" y="0px"
	 width="283.465px" height="283.465px" viewBox="0 0 283.465 283.465" enable-background="new 0 0 283.465 283.465"
	 xml:space="preserve">
<g>
	<path d="M186.489,112.578C186.46,112.596,186.605,112.507,186.489,112.578c-0.276,0.166-0.642,0.182-0.956,0.16
		c-0.001,0-0.003,0-0.004,0c-1.273-0.067-3.034,1.586-3.034,1.586s0,0,0.002,0c1.458,0.238,3.18-0.013,3.989-1.402
		c0-0.001,0.002-0.003,0.002-0.005c0.102-0.174,0.188-0.365,0.257-0.571c-0.002,0-0.002-0.001,0-0.003
		C186.694,112.426,186.605,112.507,186.489,112.578z"/>
	<path d="M101.356,210.494C101.329,210.382,101.341,210.434,101.356,210.494L101.356,210.494z"/>
	<path d="M155.041,106.415c0,0,9.094-1.809,12.096-4.886C167.137,101.529,156.848,104.823,155.041,106.415z"/>
	<path d="M169.859,102.478c-0.392,0.142-1.376,0.498,0.129-0.046c0.013-0.005,0.016-0.005,0.01-0.004
		C170.007,102.424,169.945,102.446,169.859,102.478z"/>
	<path d="M169.988,102.431c-2.205,0.798-4.4,1.627-6.58,2.494c-1.311,0.521-2.616,1.057-3.904,1.631
		c-1.095,0.488-2.412,0.96-3.32,1.772c0,0,11.141-2.933,14.111-6.007C170.294,102.319,170.188,102.358,169.988,102.431z"/>
	<path d="M91.09,192.97c-0.02-0.037-0.04-0.075-0.06-0.112C91.095,192.98,91.115,193.018,91.09,192.97z"/>
	<polygon points="143.906,194.738 143.912,194.739 143.909,194.738 	"/>
	<path d="M129.09,151.046c0.135,0.048,0.255,0.058,0.38,0.08C129.345,151.061,129.22,151.021,129.09,151.046z"/>
	<path d="M157.908,109.966c0-0.001,6.322-0.895,9.301-3.97C167.209,105.996,159.697,108.376,157.908,109.966z"/>
	<path d="M136.344,63.438C136.311,63.447,136.719,63.329,136.344,63.438L136.344,63.438z"/>
	<path d="M137.467,63.106c-0.515,0.162-1.035,0.307-1.553,0.458c0.143-0.042,0.287-0.084,0.43-0.126
		C136.719,63.329,137.095,63.224,137.467,63.106z"/>
	<path d="M185.954,220.381c-0.041-0.013-0.082-0.023-0.146-0.031c-0.072,0.01-0.174,0.022-0.281,0.047
		C185.576,220.404,185.872,220.398,185.954,220.381z"/>
	<path d="M169.147,58.174c-0.011,0.002-0.025,0.004-0.039,0.006c0.017-0.002,0.02-0.002,0.042-0.006
		C169.154,58.173,169.15,58.173,169.147,58.174z"/>
	<path d="M117.543,141.315c-0.528,0.389-0.625,0.524-0.554,0.529C117.11,141.851,117.713,141.481,117.543,141.315z"/>
	<path d="M181.89,227.448c-0.012,0-0.024,0.001-0.012,0.003c0.03-0.002,0.03-0.003,0.025-0.003c0.073-0.005,0.146-0.013,0.219-0.025
		c0.088-0.019,0.177-0.034,0.263-0.057C182.32,227.372,181.908,227.438,181.89,227.448z"/>
	<path d="M186.846,112.05c-0.023,0.107-0.066,0.195-0.103,0.295C186.839,112.191,186.846,112.05,186.846,112.05z"/>
	<polygon points="100.214,91.196 100.2,91.206 100.201,91.205 	"/>
	<path d="M136.062,63.525c0.381-0.114,0.815-0.239,1.237-0.368c-0.432,0.128-0.863,0.255-1.295,0.383
		C136.023,63.535,136.043,63.53,136.062,63.525z"/>
	<path d="M143.919,31.65c1.229-0.333,2.514-0.53,3.76-0.793c-0.223-0.044-0.194-0.039,0,0c0.646-0.137,1.295-0.271,1.941-0.408
		c-0.357,0.04-0.716,0.061-1.068,0.135c-1.83,0.376-3.657,0.769-5.479,1.184c-0.15,0.042-0.797,0.336-0.921,0.223
		C142.433,32.248,143.598,31.737,143.919,31.65z"/>
	<path d="M148.552,30.584C148.614,30.571,147.908,30.716,148.552,30.584L148.552,30.584z"/>
	<path d="M146.385,31.272C146.533,31.234,145.59,31.476,146.385,31.272L146.385,31.272z"/>
	<path d="M125.96,145.231C126.03,145.244,125.934,145.226,125.96,145.231L125.96,145.231z"/>
	<path d="M126.167,145.281c-0.07-0.011-0.137-0.037-0.207-0.05C125.714,145.176,126.133,145.274,126.167,145.281z"/>
	<path d="M71.913,202.109C71.963,202.045,72.124,201.814,71.913,202.109L71.913,202.109z"/>
	<path d="M200.878,199.372C201.074,199.231,200.97,199.306,200.878,199.372L200.878,199.372z"/>
	<path d="M148.296,28.125c0.689-0.146,2.091-0.447,2.06-0.443C149.535,27.858,148.864,28.002,148.296,28.125z"/>
	<path d="M96.422,88.663C96.526,88.587,96.433,88.652,96.422,88.663L96.422,88.663z"/>
	<path d="M204.623,94.644C204.785,94.729,204.482,94.569,204.623,94.644L204.623,94.644z"/>
	<path d="M99.592,89.693c-0.081,0.056-0.153,0.122-0.233,0.179c0.093-0.041,0.671-0.4,0.897-0.551
		C100.037,89.448,99.81,89.562,99.592,89.693z"/>
	<path d="M105.191,122.253C105.191,122.253,103.597,123.838,105.191,122.253L105.191,122.253z"/>
	<path d="M185.809,257.412c-0.18-0.165-1.717-0.047-1.773,0.054c-0.047,0.055,0.35,0.104,1.66,0.099c0.002,0,0.004,0,0.006,0
		c0.001,0,0.001,0,0.002,0C185.825,257.498,185.85,257.448,185.809,257.412z"/>
	<path d="M98.1,195.034c-0.143-0.079-0.277-0.173-0.417-0.258c-0.034-0.02-0.071-0.034-0.104-0.055
		C97.751,194.826,97.926,194.93,98.1,195.034z"/>
	<path d="M126.198,145.289C126.283,145.307,125.988,145.244,126.198,145.289L126.198,145.289z"/>
	<path d="M177.242,20.11c0.051,0.024,0.102,0.048,0.151,0.072c0.183,0.078,0.366,0.15,0.548,0.229
		C177.71,20.308,177.475,20.211,177.242,20.11z"/>
	<path d="M200.797,199.43c0.035-0.025,0.057-0.04,0.081-0.058C200.835,199.402,200.797,199.43,200.797,199.43z"/>
	<path fill="none" stroke="#000000" stroke-width="0" stroke-linecap="round" stroke-linejoin="round" d="M229.931,203.894
		c0.011-0.009,0.019-0.016,0.029-0.023"/>
	<path d="M167.814,231.802c-0.014,0.003-0.02,0.005-0.037,0.009c-0.004,0.001-0.01,0.003-0.014,0.004
		C167.781,231.81,167.798,231.806,167.814,231.802z"/>
	<path d="M185.002,65.563c-0.025-0.001-0.047-0.002-0.067-0.003l0,0c0.024,0.001,0.048,0.002,0.072,0.004
		C185.005,65.563,185.003,65.563,185.002,65.563z"/>
	<path d="M231.221,70.005c-11.593-20.704-28.945-38.154-50.526-48.323c-1.117-0.448-2.208-0.977-3.301-1.5
		c-11.214-4.769-23.327-7.381-35.527-7.322c-12.065,0.059-24.022,2.782-35.078,7.57C84.656,30.017,66.4,47.575,53.955,68.049
		c-2.75,4.521-5.233,9.209-7.417,14.029c-2.705,5.409-4.67,11.353-6.395,17.136c-1.76,5.901-3.111,11.914-4.091,17.993
		c-1.964,12.191-2.407,24.629-1.443,36.936c1.83,23.363,8.824,46.532,21.402,66.387c12.661,19.987,31.444,36.646,53.796,44.893
		c11.563,4.266,23.838,6.135,36.146,5.369c12.052-0.751,23.823-4.104,34.678-9.339c21.709-10.469,39.582-28.424,51.275-49.378
		c9.903-17.747,15.354-37.771,16.914-57.981c0-0.003,0-0.007,0-0.011c0.427-5.505,0.547-11.035,0.389-16.554
		C248.558,114.075,242.716,90.533,231.221,70.005z M247.254,140.894c-0.012-0.209-0.002-0.002,0.001,0.048h-47.221
		c0.065-0.334,0,0,0,0c0.065-0.334,0.123-0.667,0.196-0.99h47.004C247.234,140.269,247.236,140.576,247.254,140.894z
		 M199.178,134.99c-0.245,0.095-0.058,0.021-0.007,0.002c-0.303,0.116-0.666,0.201-0.806,0.15c-0.015-0.004-0.027-0.009-0.037-0.016
		c-0.009-0.008-0.012-0.019-0.015-0.029c-0.008-0.016-0.012-0.033-0.003-0.058c0.005-0.012,0.02-0.03,0.027-0.044
		c0.075-0.125,0.194-0.222,0.307-0.312c0-0.002-0.002-0.003-0.002-0.006c-0.178-0.916-1.292-0.827-1.986-0.69
		c-0.568,0.085-1.118,0.358-1.699,0.358c-0.1,0.01-0.283-0.02-0.325-0.143c-0.003-0.011-0.003-0.026-0.004-0.039
		c-0.022-0.2,0.158-0.432,0.265-0.574c-0.661,0.743-8.995,1.475-9.037-0.202h-0.002c-0.97,0.448-2.188,1.34-1.761,2.571
		c0.363,1.048,1.706,1.607,2.736,1.298c0.004-0.001,0.006-0.001,0.008-0.001c-0.48,1.401,2.432,0.8,2.897,0.695
		c0.002,0,0.004-0.001,0.006-0.001c-0.275,0.404-0.971,1.455-0.174,1.711c0.733,0.235,1.606-0.322,2.248-0.611
		c0.004-0.002,0.008-0.003,0.013-0.005c-0.431,0.501-0.673,1.086-0.722,1.755c0,0.006-0.002,0.011-0.002,0.017
		c-0.082-0.232,1.998,1.978,2.088,1.998c0.002,0,0.004,0.004,0.006,0.004c-0.185,0.728-0.237,2.039,0.895,1.58
		c0.982,1.813,2.113,0.967,3.838-0.027c0.002,0,0.002,0,0.002,0c0.016,0.201,0.062,0.398,0.133,0.589
		c0.188,0.724,0.207,1.479,0.059,2.21c-0.479,0.91-18.837,0.785-17.607,4.076c0,0.002,0,0.006,0.002,0.008
		c-0.06-0.152,14.787,0.021,17.129,2.064c0,0.002,0.002,0.002,0.002,0.002c1.627,6.211-2.398,3.937-5.875,5.609l-0.172-0.049
		c-0.504,0.374-2.508,2.535-2.387,2.623c0,0.001-0.004,0.006-0.002,0.006c0.711,0.09,1.412,0.039,2.104-0.152
		c0.013-0.002,0.009,0.016,0.011,0.024c0.02,0.163-0.764,1.166-0.321,1.209c0.564-0.146,1.128-0.288,1.691-0.435
		c0,0,1.656-0.6,2.941-0.182c2.109,4.804,3.838,11.613-2.009,14.504c0-0.002,0-0.006-0.002-0.008
		c-0.285-0.816-0.339-1.65-0.162-2.498c-0.002,0-0.002,0-0.004,0.002c-0.692,0.27-1.411,0.455-2.149,0.555
		c-0.555-0.177,0.251-1.391,0.356-1.706c0.081-0.312-0.032-0.489-0.667-0.329c-0.317,0.096-1.241,0.391-1.936,0.575
		c-0.001,0.001-0.001,0.001-0.002,0.001c-0.224,0.059-0.461,0.13-0.692,0.15c-0.004,0-0.006,0-0.011,0
		c-0.067,0.006-0.111,0.001-0.119-0.019c-0.002-0.009,0-0.021,0.021-0.037c0.438-0.623,0.699-1.317,0.783-2.073h-0.002
		c-0.047-0.011-0.126,0.017-0.21,0.051c-0.323,0.146-0.602,0.377-0.914,0.543c-0.905,0.362-1.74,1.032-2.723,1.191
		c-0.016,0.002-0.032,0.005-0.046,0.006c-0.202,0.024-0.279-0.021-0.27-0.211c0-0.006-0.003-0.008-0.002-0.014
		c0.001-0.004,0.003-0.01,0.004-0.015c0.031-0.347,0.273-0.812,0.386-1.241c0.077-0.358,0.066-0.69-0.21-0.875c0,0,0,0-0.002,0
		c0.037,0.023,0.047,0.056,0.037,0.086c-0.134,0.498-5.178,1.869-5.398,1.697c-0.014-0.012-0.014-0.024,0.015-0.051
		c0.447-0.377,0.939-1.151,1.06-1.729c0.157-0.76-1.176-0.237-1.457-0.123c-1.477,0.6-2.764,1.82-4.447,1.758
		c0.001-0.002,0.003-0.006,0.005-0.008c0.308-0.396,2.208-3.804,2.081-3.789c-0.001,0-0.003,0-0.004,0
		c-2.279,0.254-3.575,3.624-6.159,3.504c0.002-0.002,0.006-0.006,0.006-0.007c0.563-0.543,5.509-5.664,5.376-5.742
		c-0.001-0.002-0.005,0-0.007,0c-0.657-0.341-7.209,4.727-9.243,4.938c0.002-0.002,0.008-0.008,0.01-0.01
		c0.506-0.355,3.682-4.712,3.396-5.018c-0.448-0.52-2.654,1.479-2.99,1.755c-1.491,1.224-2.988,2.548-4.956,2.892
		c0.003-0.002,0.01-0.008,0.012-0.01c1.195-0.808,1.998-2.064,2.941-3.128c0.521-0.586,1.036-1.176,1.553-1.765
		c0.192-0.219,0.594-0.973,0.889-1.021c-3.012,0.763-5.537,4.229-8.892,5.142c0.005-0.002,0.013-0.008,0.017-0.012
		c1.086-0.67,1.889-1.915,2.606-2.949c0.129-0.187,1.269-2.102,0.987-2.051c-0.235,0.034-9.008,5.691-8.949,4.84
		c0,0.002,0.004-0.002,0.004,0c0.001,0.008,0.443-0.36,0.548-0.451c0.95-0.929,1.852-1.919,2.734-2.911
		c0.635-0.714,1.595-1.566,1.912-2.499c-0.195-0.027-1.481,0.627-1.759,0.815c-1.295,1.051-2.564,2.321-4.355,1.602
		c0.002,0,0.004-0.002,0.004-0.005c0.713-0.623,1.779-1.376,2.193-2.274c0.007-0.019,0.017-0.036,0.022-0.054
		c0.019-0.047,0.024-0.085,0.026-0.12c0.012-0.053-0.003-0.099-0.044-0.139c-0.342-0.342-1.703,0.35-2.013,0.477
		c-1,0.411-1.958,0.913-2.912,1.419l-0.991-0.494c0.002-0.002,0.004-0.003,0.004-0.004c1.321-1.188,4.174-3.229,4.946-5.039
		c-0.002,0.002-0.012,0.008-0.014,0.01c-0.191,0.234-5.936,2.933-7.061,3.748l-0.408-0.305c0.001-0.001,0.002-0.002,0.003-0.003
		c0.733-0.938,6.081-4.188,5.771-5.28c0-0.002-0.002-0.002-0.004-0.004c-0.233-0.699-5.947,2.605-6.664,3.106l-1.19-0.886
		c0-0.002,0.001-0.002,0.001-0.002c1.487-2.498,7.54-7.301,7.54-7.301c-0.012,0.006-0.022,0.012-0.034,0.02
		c-5.046,2.675-9.784,6.427-9.784,6.427l-0.895-0.495c0-0.001,0.001-0.002,0.002-0.003c4.657-5.95,10.921-9.624,10.921-9.624
		c-0.014,0.004-0.025,0.01-0.038,0.014c-7.435,2.576-12.179,8.119-12.179,8.119l-0.688-0.494c0,0,0.001-0.002,0.002-0.002
		c3.963-5.752,15.284-12.103,15.284-12.103c-0.007,0.002-0.013,0.004-0.021,0.004c-8.535,1.299-17.254,11.701-17.254,11.701
		l-1.084-0.591c0-0.002,0.001-0.004,0.002-0.004c4.268-6.562,19.938-14.787,19.938-14.787c-0.01,0.002-0.018,0.004-0.024,0.006
		c-12.782,2.692-20.021,12.001-20.021,12.001l-0.3-0.559l-0.187-0.348c5.943-7.636,20.826-14.577,20.826-14.577
		c-0.009,0.001-0.019,0.003-0.025,0.005c-14.162,2.285-22.694,13.583-22.694,13.583l-0.686-0.399
		c0.001-0.003,0.001-0.003,0.002-0.005c6.859-11.196,24.395-16.46,24.395-16.46c-4.57,0.378-8.936,2.094-12.892,4.348
		c-4.277,2.447-8.368,5.488-11.791,9.04h-0.303c0.001-0.002,0.003-0.004,0.004-0.006c4.965-7.929,21.117-15.468,21.117-15.468
		c-0.013,0.002-0.021,0.005-0.033,0.007c-8.707,1.795-16.022,6.639-16.022,6.639c4.308-4.308,9.918-7.521,15.664-9.522
		c-0.009,0-0.017,0.001-0.022,0.001c-4.961,0.218-15.556,5.55-15.556,5.55c2.401-2.401,5.148-4.669,8.238-6.14
		c-0.015,0.004-0.024,0.007-0.039,0.01c-1.067,0.3-2.702,0.963-3.884,0.73c-0.105-0.015-0.216-0.03-0.3-0.104
		c-0.079-0.065-0.088-0.167-0.06-0.259c0-0.002,0.001-0.004,0.002-0.006c0.231-0.71,1.354-1.345,1.91-1.739
		c1.045-0.741,2.155-1.382,3.268-2.014c-0.009,0.002-0.016,0.003-0.022,0.005c-1.544,0.355-3.331,0.955-4.933,0.794
		c-0.156-0.008-0.304-0.031-0.448-0.093c-0.013-0.006-0.029-0.011-0.041-0.019c-0.632-0.342,1.318-1.589,1.445-1.67
		c1.168-0.751,2.453-1.291,3.704-1.884c-1.224,0.326-2.438,0.693-3.687,0.917c-0.567,0.102-1.275,0.299-1.855,0.141
		c-0.855-0.229,0.737-1.429,0.984-1.592c0.99-0.658,2.032-1.268,3.071-1.845c-0.01,0.003-0.02,0.005-0.027,0.008
		c-1.023,0.289-2.183,0.625-3.253,0.568c-1.634-0.088,2.125-2.539,2.49-2.767c-0.4,0.067-2.054,0.458-2.236-0.128
		c-0.149-0.479,0.801-1.114,1.077-1.338c0.737-0.601,1.541-1.114,2.352-1.61c-0.006,0.001-0.012,0.001-0.018,0.002
		c-0.379,0.048-1.951,0.396-1.951-0.3c0.001-0.005-0.004-0.008-0.003-0.014c0.001-0.008,0.005-0.015,0.007-0.023
		c0.013-0.108,0.063-0.216,0.142-0.321c0.003-0.004,0.007-0.009,0.01-0.014c0.028-0.037,0.058-0.074,0.091-0.109
		c0.901-1.027,2.424-1.753,3.608-2.391l-0.019,0.001l-3.153,0.188c0.004-0.002,0.008-0.004,0.01-0.006
		c1.785-1.279,5.742-3.86,5.742-3.86c-1.802,0-3.657,0.552-5.363,1.095c0.013-0.006,0.029-0.014,0.041-0.021
		c1.743-0.91,3.661-1.418,5.522-2.021c2.02-0.653,4.034-1.328,6.04-2.019c1.938-0.667,3.881-1.345,5.778-2.12
		c1.396-0.57,3.628-1.318,4.521-2.63c0.007-0.011,0.016-0.022,0.021-0.034c0.019-0.03,0.026-0.058,0.038-0.087
		c0.014-0.042,0.026-0.085,0.021-0.122c-0.001,0-0.001-0.001-0.001-0.001c-0.114-0.636-3.247-0.302-3.727-0.27
		c3.955-0.659,7.792-0.669,11.787-0.493c0.237,1.389,2.02,2.666,3.078,3.459c0,0.001,0.008,0.006,0.008,0.006
		c-5.358-0.392-8.695,2.074-8.825,2.172c-0.002,0.002-0.013,0.009-0.013,0.009c4.336-1.05,6.039-0.343,6.144-0.297
		c0.002,0.001,0.011,0.004,0.011,0.004c-9.158,2.128-14.166,6.257-14.361,6.42c-0.004,0.003-0.02,0.016-0.02,0.016
		c1.674-0.874,3.608-0.987,3.657-0.99c0.001,0,0.009,0,0.009,0c-0.75,1.054-1.865,1.999-1.955,2.072
		c-0.004,0.003-0.017,0.014-0.017,0.014c2.446-1.091,4.521-1.096,4.539-1.096h0.002c-0.052,0.652,0.404,0.882,1,0.791
		c1.481-0.72-1.036-1.32-0.52-2.243c0.485-0.906,1.88-0.662,2.7-0.67c1.485,1.044,9.551,2.729,10.075,2.231
		c0.002-0.001,0.007-0.002,0.009-0.003c-0.635,0.598-0.27,2.095-0.009,2.804c0.003,0.007,0.006,0.017,0.009,0.024
		c1.689-0.679,4.963-1.268,5.692-3.222c0.076-0.256-0.005-0.455-0.345-0.478c-0.017,0-0.032-0.001-0.05,0
		c-0.815-0.021-1.528,0.57-2.338,0.614c0.003-0.003,0.007-0.005,0.009-0.009c1.034-1.206,2.514-1.853,4.076-2.012
		c0.037-0.017,0.071-0.034,0.091-0.053c0.006-0.005,0.017-0.011,0.021-0.017c0.01-0.018,0.01-0.044,0.014-0.067
		c0.01-0.033,0.007-0.071,0.007-0.108c-0.039-0.379-0.28-0.701-0.426-1.041c0,0,0.001,0,0.001,0.001
		c0.313,0.625,3.081-2.638,3.123-2.887c0.391-0.141,1.086,0.201,1.323,0.602c0.267,0.399,1.513,0,1.733-0.247
		c0.675-0.657,2.219,3.13,2.38,3.516c0.914,2.19,1.395,4.563,2.427,6.695c0,0.001,0.002,0.004,0.002,0.006h0.02
		c1.226,3.06,13.107,19.641,4.114,20.074c0-0.001,0-0.004,0-0.006c0.017-0.181,0.006-0.333-0.024-0.462
		c-0.001-0.006-0.002-0.013-0.003-0.019c-0.27-1.095-1.852-0.42-2.496-0.179c-0.119,0.051-0.238,0.102-0.357,0.152
		c0.164-0.072,0.328-0.142,0.493-0.212C199.306,134.938,199.241,134.964,199.178,134.99z M185.912,185.43
		C185.918,185.364,185.924,185.306,185.912,185.43L185.912,185.43z M195.234,216.75c-1.268-0.273-1.285-0.581-1.057-0.693
		c0.159-0.1,0.329-0.178,0.503-0.245c0.313-0.137,0.681-0.202,1.021-0.206c0.977-0.021,1.931,0.301,2.895,0.406
		c0.291-0.063,0.541-0.094,0.734-0.063C197.936,216.042,196.574,216.307,195.234,216.75z M193.513,222.812
		c0.096-0.012,0.138-0.019,0.153-0.023c0.023-0.001,0.047-0.001,0.07-0.001c0.078,0.007,0.674,0.021,0.743,0.026
		c0.507,0.032,1.013,0.09,1.518,0.144c0.882,0.095,1.771,0.18,2.657,0.1c0.436-0.176,0.746-0.293,0.935-0.271
		c-1.093,0.78-3.751,1.215-5.105,1.283c-0.022,0.005-0.091,0.01-0.236,0.013c-0.748-0.038-2.437,0.239-2.95-0.468
		c-0.009-0.009-0.023-0.015-0.031-0.024c-0.003-0.003-0.001-0.007-0.003-0.011c-0.003-0.005-0.011-0.009-0.014-0.014
		C191.097,223.234,192.888,222.9,193.513,222.812z M188.372,230.959c3.293-2.096,7.287,0.033,10.812-1.02
		c0.353-0.19,0.562-0.318,0.66-0.306c-0.173,0.128-0.396,0.228-0.66,0.306c-0.873,0.479-2.623,1.35-5.666,1.47
		c-1.109-0.063-2.253-0.039-3.352-0.213C189.828,231.144,188.665,230.754,188.372,230.959
		C191.665,228.863,188.35,230.975,188.372,230.959z M184.416,242.19c0.366,0.051,0.887,0.124,1.151,0.161
		C185.385,242.326,185.021,242.275,184.416,242.19z M199.035,240.785c-0.792,0.432-1.544,0.86-2.405,1.149
		c-0.944,0.401-0.575,0.244-0.007,0.002c-3.945,1.321-8.737,0.739-12.604,0.198c0,0,0.043,0.006,0.102,0.015
		c-0.037-0.006-0.063-0.009-0.102-0.015h-0.002c0-0.369,1.287-0.696,1.555-0.789c1.074-0.373,2.153-0.562,3.291-0.548
		c1.985-0.057,3.97,0.141,5.956,0.104c1.699-0.031,3.964,0.03,5.415-1.004C199.86,240.229,199.458,240.522,199.035,240.785z
		 M182.384,227.369c0.034-0.004-0.022,0.011-0.262,0.054c-1.194,0.155-2.41,0.576-3.627,0.468c-0.059,0.027-0.106,0.023-0.145-0.011
		c-0.09-0.394,4.321-1.466,4.847-1.321c0.102,0.04,0.201,0.083,0.301,0.127c-0.096-0.033-0.191-0.076-0.284-0.118
		C184.033,226.923,182.646,227.31,182.384,227.369z M165.904,237.958c-0.079,0.06-0.12,0.09-0.002,0.001
		c-0.066,0.041-0.139,0.08-0.216,0.116c-0.524,0.346-1.076,0.646-1.666,0.866c0.022-0.004,0.048-0.018,0.068-0.018
		c-0.002-0.001-0.036,0.01-0.095,0.03c0.009-0.005,0.018-0.009,0.026-0.013c-0.008,0.001-0.016,0.005-0.023,0.006
		c0.027-0.012,0.014-0.008-0.014,0.004c-0.134,0.023-0.275,0.077-0.408,0.134c0.045-0.013,0.089-0.025,0.134-0.038
		c-0.289,0.104-0.334,0.117-0.134,0.038c-4.597,1.437-9.504,1.552-14.058,3.149c0.002-0.002,0.004-0.002,0.006-0.004
		c4.746-3.644,11.022-1.724,16.163-4.155c0.14-0.092,0.287-0.17,0.421-0.271C166.052,237.86,165.981,237.91,165.904,237.958z
		 M163.916,238.982c-0.068,0.021-0.138,0.041-0.206,0.062c0.083-0.027,0.165-0.056,0.247-0.083
		C163.918,238.978,163.879,238.994,163.916,238.982z M157.897,250.052c-0.017,0.033-0.011,0.021-0.002,0.003
		c-0.142,0.282-0.335,0.544-0.549,0.774c-2.295,2.295-6.304,2.72-9.339,3.173c-1.97,0.294-3.948,0.512-5.924,0.759
		c-1.708,0.213-3.62,0.328-5.222,1.011c-0.211-0.422,2.668-1.739,3.004-1.903c2.046-0.999,4.373-1.157,6.609-1.279
		c2.471-0.134,4.931-0.354,7.372-0.768c1.387-0.234,3.795-0.622,4.235-2.251c-0.047,0.165-0.108,0.325-0.185,0.479
		C157.917,250.012,157.944,249.956,157.897,250.052z M121.078,216.516c0.03,0.002,0.034,0.003-0.015-0.002
		c-0.014-0.001-0.027-0.003-0.039-0.004c0.005,0.001,0.01,0.001,0.015,0.002c-0.044-0.005-0.036-0.004-0.015-0.002
		c-5.748-0.598-11.426-1.76-16.317-4.975c-0.001-0.001-0.002-0.002-0.002-0.002c-0.5-0.328-1.119-0.774-1.279-1.307
		c-0.042-0.105-0.052-0.308-0.035-0.4c0.115-0.827,1.316-1.809,2.619-2.569c0.095,0.669,0.34,1.327,0.693,1.902
		c2.922,4.175,9.293,5.021,13.964,5.586c6.167,0.745,12.408,1.155,18.612,1.438c11.999,0.55,24.14,0.1,35.891-2.568
		c0.006-0.002,0.014-0.004,0.021-0.006c-14.664,4.742-0.008,0.002,0,0c-8.843,2.865-18.166,3.965-27.43,4.13
		C138.874,217.898,129.919,217.39,121.078,216.516z M117.986,220.854c0.051-0.073,0.068-0.101,0.073-0.112
		c0.28-0.438,0.648-1.154,1.139-1.283c-0.186,0.049-0.403,0.681-0.482,0.834c-0.29,0.56-0.66,1.072-1.016,1.592
		c-0.894,1.303-1.813,2.589-2.753,3.858c-1.784,2.412-3.485,4.995-5.818,6.923c-0.001,0.002-0.003,0.004-0.005,0.006
		c1.224-1.681,2.458-3.354,3.698-5.022c1.688-2.27,3.54-4.454,5.152-6.776C117.174,221.842,117.523,221.417,117.986,220.854z
		 M103.067,226.421c1.002-1.326,2.019-2.646,3.083-3.924c0.322-0.417,0.671-0.858,1.046-1.229c0.093-0.092,0.417-0.5,0.489-0.418
		c-0.011,0.037-0.024,0.088-0.042,0.165c-0.11,0.231-0.287,0.418-0.428,0.629c-1.252,2.003-2.921,4.183-4.785,5.63
		C102.43,226.952,102.905,226.665,103.067,226.421z M71.913,202.109c0.211-0.295,0.422-0.592,0.626-0.891h37.564
		c-0.094,0.331-0.199,0.664-0.314,0.987H71.845c0.022-0.028,0.043-0.06,0.064-0.091C71.944,202.07,71.963,202.045,71.913,202.109z
		 M76.409,193.816c0.117-0.312,0.203-0.641,0.3-0.959h14.322c0.018,0.034,0.04,0.066,0.058,0.101
		c0.183,0.295,0.337,0.606,0.523,0.899H76.396C76.414,193.801,76.418,193.787,76.409,193.816z M148.296,28.125
		c-0.677,0.144-0.668,0.141,2.06-0.443c0.062-0.006,0.085-0.005,0.091,0c1.664-0.042,1.552,2.003,0.231,2.512
		c0.274-0.113,0.561-0.197,0.834-0.312c-0.283,0.118-0.575,0.217-0.862,0.324c-0.096,0.101-0.43,0.166-0.797,0.214
		c-0.656,0.155-1.311,0.316-1.965,0.478c-0.501,0.124-1.003,0.246-1.503,0.374c-0.795,0.204-1.586,0.417-2.376,0.631
		c2.473-0.522,5.116-0.762,7.615-0.268l-0.582,14.988c-2.295,0-4.585,0.065-6.877,0.184c-0.388,0.048-0.775,0.028-1.163,0.052
		c0.388-0.024,0.775-0.032,1.163-0.052c0.064-0.008,0.122-0.02,0.18-0.031h0.001c0.192-0.038,0.347-0.092,0.396-0.179
		c0.001-0.002-1.61,0.223-1.741,0.261c1.979-0.837,3.976-1.625,5.994-2.359c-6.816,1.704-13.776,2.856-20.664,4.229
		c5.935-2.695,11.872-5.506,18.207-7.141c-11.38,2.889-22.353,7.144-33.177,11.645c9.158-6.389,19.211-11.632,29.985-14.683
		c-13.833,4.035-27.421,9.803-38.64,19.014c7.707-7.662,16.75-14.058,26.813-18.227c-14.481,5.924-28.029,14.789-38.042,26.932
		c0.982-1.965,2.499-3.604,3.865-5.302c1.305-1.623,2.728-3.141,4.135-4.674c2.943-3.207,6.427-6.039,9.939-8.596
		c3.77-2.744,7.801-5.136,11.879-7.388c4.256-2.35,8.647-4.479,13.216-6.149c-11.129,3.72-21.558,9.22-30.555,16.791
		c-8.323,7.004-15.312,15.539-20.653,25.009c-0.692,1.228-1.358,2.471-1.995,3.729c2.514-6.163,5.804-12.03,9.74-17.396
		c2.033-2.771,4.246-5.408,6.63-7.884c2.252-2.339,4.646-4.752,7.249-6.705c11.578-9.597,25.565-15.708,40.1-19.251
		C145.645,28.733,145.054,28.829,148.296,28.125z M160.126,27.5l-2.38-0.655C158.02,26.369,161.299,20.692,160.126,27.5z
		 M161.606,25.222c0.936-1.157,0.799,1.068,0.745,1.604L162,28.024l-1.732-0.466C160.624,26.817,161.013,25.859,161.606,25.222z
		 M204.816,97.853c0,0-0.043-0.028-0.096-0.063C204.756,97.813,204.774,97.826,204.816,97.853l-0.191,0.162
		c-1.408,0.981-3.609,0.391-4.17,0.2c0.145-0.771,0.389-1.519,0.725-2.228C202.438,96.509,203.678,97.103,204.816,97.853z
		 M204.583,97.702C204.411,97.589,204.268,97.49,204.583,97.702L204.583,97.702z M204.623,94.644
		c-4.016-2.12-8.58-3.235-13.047-3.892c-5.964-0.876-11.998-0.832-17.957,0.062c-6.029,0.905-11.842,2.646-17.765,4.036
		c-2.972,0.698-5.985,1.177-8.971,1.807c-2.606,0.55-5.341,1.234-7.497,2.882c-1.314-5.96-3.311-11.762-6-17.246c0,0,0,0,0.001,0
		c5.839-2.457,35.231-14.227,58.523-12.711c3.447,2.995,6.539,6.493,9.077,10.29c2.654,3.963,5.064,8.582,5.107,13.467
		c0.006-1.16,0.009-2.319,0.021-3.479c-0.02,1.84,0.109,3.722-0.15,5.548C205.529,95.134,205.079,94.883,204.623,94.644z
		 M188.637,105.299c-0.383,0.694-1.791,0.801-1.791,0.801C187.367,105.595,189.045,104.607,188.637,105.299z M150.775,103.745
		c1.98-0.737,3.981-1.414,5.988-2.074c0.021-0.006,0.029-0.009,0.029-0.009c-1.604,1.661-3.874,2.507-6.018,3.223
		c-1.945,0.649-3.925,1.213-5.935,1.63c-0.038,0.008-0.076,0.016-0.114,0.023C146.305,105.138,148.842,104.465,150.775,103.745z
		 M145.622,103.529c0.828-0.677,5.524-2.104,5.524-2.104C149.793,102.756,145.622,103.529,145.622,103.529z M126.198,145.289
		c-0.156-0.033-0.312-0.068-0.469-0.101c0.4,0.083-0.608-0.179-0.714-0.214c-0.529-0.175-1.032-0.42-1.514-0.698
		c-0.802-0.464-1.535-1.041-2.208-1.675c-1.369-1.289-2.505-2.81-3.535-4.376c-2.086-3.171-4.044-6.582-4.883-10.321
		c0.885-0.509-0.819-5.125-0.867-6.047c1.524-1.351,0.353-2.885,0.353-2.885c1.276-1.047,1.162-1.723,0.781-2.094l3.277-3.038
		l0.885,2.276c-0.003,0.003-0.008,0.007-0.011,0.011c-0.581,0.683-2.041,1.146-1.857,2.307c0.305,1.14,2.012-0.473,2.455-0.822
		c0.029,0.063,0.06,0.125,0.084,0.189c-1.288,1.115-1.756,3.078-2.276,4.63c-0.241,0.842-1.05,2.593-0.458,3.422
		c0.129,0.194,0.367,0.212,0.573,0.154c-0.025,0.505-0.051,1.011-0.077,1.516c0-0.035,1.958-1.553,2.241-1.535c0,0,0,0,0.001,0
		c0.4,0.03-0.663,1.44-0.751,1.555c-0.455,0.59-1.145,1.184-1.444,1.871c-0.013,0.035-0.027,0.07-0.035,0.104
		c-0.012,0.047-0.014,0.096-0.007,0.146c0.05,0.243,0.34,0.346,0.56,0.333c0.733-0.137,1.266-0.71,1.936-0.972
		c0.713-0.318,1.461-0.042,1.983,0.493c0.012,0.012,0.023,0.024,0.035,0.036c0.512,0.545,0.809,1.213,0.914,1.949
		c0.016,0.077,0.022,0.156,0.02,0.235c0,0.937,0.072,5.021-1.618,4.593c-0.006-0.002-0.012,0-0.019-0.001
		c1.134,0.322,2.109,0.099,2.911-0.508c1.094-0.95,1.591-2.43,2.329-3.637c0.402-0.656,1.934-2.702,2.436-0.926
		c0.276,0.82,0.243,2.136-0.005,2.905c0,0.001,0,0.002-0.001,0.003c-0.055,0.172-0.142,0.401-0.284,0.524
		c0,0-0.001,0.001-0.001,0.002c0.716,0.082,1.433,0.092,2.149,0.02c0.532,0.772,1.703,5.34,1.813,7.059
		c-0.066,0.104-0.111,0.219-0.133,0.343l-0.02,0.125l-0.705,1.972c-0.156,0.218-0.392,0.43-0.626,0.558
		c-0.979,0.489-2.128,0.677-3.213,0.518C126.312,145.313,126.283,145.307,126.198,145.289z M93.658,189.786
		c0.19,0.68,0.473,1.332,0.832,1.94c-0.239-0.379-0.479-0.751,0.074,0.142c0.253,0.389,0.208,0.311,0.085,0.111
		c0.782,1.157,1.844,2.076,3.033,2.797c3.83,2.248,8.653,2.739,13.009,2.739h0.192v0.002l-0.087,0.59h-0.988
		c-1.691,0-3.385-0.04-5.068-0.213c-0.002,0-0.005,0-0.008-0.001c-4.37-0.439-9.146-2.017-11.254-6.207
		c-1.057-2.104-1.241-4.568-0.927-6.873c0.346-2.687,1.38-5.679,0.134-8.287c0.04,0.08,0.041,0.082,0.003,0.005
		c-0.003-0.006-0.006-0.013-0.009-0.02c2.193-0.043,2.819-0.513,0.895-2.975c2.21-0.322,2.104-1.53,0.591-3.428
		c0.242,0.102,0.603,0.223,0.949,0.246c0.007,0.001,0.013,0,0.02,0.001c0.184,0.01,0.373-0.008,0.54-0.089
		c0.106-0.047,0.201-0.123,0.269-0.218c0.034-0.044,0.053-0.095,0.078-0.143c0.412-0.887-0.279-1.991-0.665-2.769l0.002,0.002
		c0.65,0.276,2.586,1.007,2.135-0.396c-0.542-1.327-1.886-2.478-2.877-3.469c0.352,0.252,3.964,2.794,3.79,1.542
		c-0.194-1.395-1.874-2.729-2.752-3.74c0,0,0.003,0.002,0.004,0.002c0.69,0.42,2.346,1.583,3.182,1.232
		c0.926-0.388-3.377-4.702-3.775-5.101c1.116,0.775,2.894,2.475,4.37,2.344c0.99-0.088-1.729-3.376-1.99-3.687
		c0.612,0.316,1.188,0.698,1.832,0.951c0.357,0.141,1.605,0.458,1.249-0.347c-0.267-0.603-0.83-1.116-1.282-1.58
		c-0.823-0.846-1.706-1.65-2.696-2.297c0.001,0,0.004,0.002,0.006,0.002c1.207,0.643,2.731,1.572,4.141,1.632
		c0.205-0.014,0.396-0.056,0.564-0.143c0.004-0.004,0.01-0.006,0.015-0.01c0.035-0.021,0.046-0.057,0.042-0.1
		c0-0.004,0.002-0.008,0.002-0.012c-0.109-0.616-1.128-1.238-1.59-1.618c-1.308-1.074-2.672-2.08-4.073-3.029h0.003
		c0.955,0.353,1.942,0.621,2.924,0.888c0.955,0.259,1.956,0.697,2.967,0.518c0.017-0.004,0.036-0.005,0.052-0.01
		c0.072-0.016,0.171-0.06,0.194-0.138c0.018-0.043,0.016-0.088-0.005-0.134c-0.201-0.482-0.842-0.846-1.234-1.128
		c-1.08-0.776-2.246-1.424-3.402-2.078c0.879,0.101,1.744,0.297,2.623,0.395c0.502,0.056,2.127,0.303,2.442-0.272
		c0.476-0.868-3.359-2.414-3.878-2.657c0.001,0,0.003,0.002,0.005,0.002c0.822,0.236,4.239,1.528,4.646,0.236
		c0.346-1.128-3.115-2.406-3.858-2.757c0.001,0,0.003,0,0.003,0.001c0.644,0.127,2.905,0.934,3.254,0.005
		c-0.409-1.122-1.214-1.92-2.414-2.398h0.002c0.792,0.077,1.994,0.389,2.706-0.136c0.026-0.021,0.058-0.038,0.079-0.063
		c0.031-0.034,0.054-0.072,0.069-0.115c0.17-0.639-2.341-1.815-2.56-1.924c0.506-0.626,1.606-0.453,2.09-1.059
		c0.012-0.019,0.026-0.035,0.037-0.055c0.08-0.13,0.055-0.291-0.01-0.419c-0.237-0.43-1.014-0.855-1.231-0.989
		c0.301-0.109,2.619,0.238,2.421-0.381c-0.219-0.683-1.272-1.16-1.819-1.549c0.718,0.102,1.975,0.509,2.635,0.029
		c0-1.241-0.917-1.967-2.036-2.27c0,0,2.972-0.741,1.485-2.084c0.257-0.199,3.399-4.812,2.724-5.724l2.419-2.276
		c0,0,0,0.001,0,0.002c-0.489,12.493-0.566,25.223-4.091,37.325c-1.581,5.426-4.132,10.223-6.837,15.147
		C95.433,178.028,92.083,184.146,93.658,189.786z M105.191,122.253c-1.74,1.73-3.966,4.172-6.628,4.181
		c-1.037,0.093-2.042-0.221-2.929-1.144c-2.302-2.189-0.97-6.181,0.921-8.163l1.856-1.883l0.002-0.002
		c0.423,1.198,3.434,3.188,2.126,4.601l-0.001,0.001c-0.715,0.768-2.076,0.668-2.767,1.516c-0.023,0.032-0.047,0.064-0.068,0.1
		c-0.109,0.167-0.175,0.398-0.14,0.597c0.004,0.029,0.009,0.058,0.016,0.086c0.401,1.423,2.247,1.254,3.229,0.719
		c1.038-0.551,1.91-1.511,2.462-2.539c1.663-3.083-0.567-5.537-3.419-6.566c4.16-4.173,8.527-8.344,11.931-13.179
		c1.179,3.697,2.445,7.369,3.792,11.008c-1.104,0.544-2.086,1.314-2.978,2.158c-0.469,0.492-0.877,1.029-1.184,1.61L105.191,122.253
		z M99.358,89.872c-0.041,0.018,0.011-0.025,0.233-0.179c0.797-0.479,0.854-0.499,0.664-0.373c1.972-1.152,3.996-2.216,6.078-3.153
		c-2.45,1.132-3.92,3.548-6.12,5.028c0.012-0.007,0.023-0.015,0.035-0.023c-0.01,0.007-0.028,0.019-0.036,0.025
		c-0.006,0.004-0.012,0.008-0.018,0.012c-0.179,0.119-0.357,0.236-0.537,0.354c0.163-0.107,0.326-0.215,0.489-0.323
		c-1.119,0.69-2.41,1.094-3.726,1.137C97.32,91.449,98.304,90.62,99.358,89.872z M96.422,88.663c0.104-0.076,1.2-1.239,2.779-2.22
		c1.915-1.068,3.886-2.036,5.904-2.893c-1.866,0.807-3.036,2.5-4.661,3.638c-0.761,0.586-1.658,1.107-2.615,1.278
		C97.027,88.656,96.433,88.652,96.422,88.663z M108.168,94.278c0.05-0.031,0.182-0.112-0.002,0.001
		c-0.023,0.015-0.018,0.011-0.001,0.001c-1.425,0.879-2.614,2.169-3.79,3.344c-0.442,0.413-0.909,0.8-1.406,1.145
		c0.187-0.122,0.393-0.231,0.57-0.365c-0.209,0.159-0.437,0.294-0.661,0.432c0.03-0.022,0.061-0.044,0.091-0.067
		c-0.103,0.066-0.204,0.133-0.306,0.201c0.014-0.008,0.028-0.016,0.042-0.023c-0.052,0.034-0.106,0.063-0.156,0.1
		c0.038-0.025,0.076-0.051,0.113-0.077c-1.083,0.654-2.355,1.05-3.622,1.092c0.899-0.93,1.887-1.76,2.947-2.509
		c-0.044,0.02,0.006-0.022,0.232-0.177c0.806-0.484,0.855-0.5,0.659-0.37c1.97-1.151,3.993-2.213,6.072-3.154
		C108.681,93.975,108.421,94.122,108.168,94.278z M105.213,89.784c0.19-0.087,0.491-0.223,0.709-0.32
		C105.686,89.57,105.449,89.676,105.213,89.784z M116.94,141.747c0.2-0.145,0.403-0.285,0.602-0.433
		c0.271,0.264,0.545,0.523,0.826,0.78c0,0,0.001,0,0.001,0.001c-1.419,0.779-6.294,4.246-8.075,5.531v-0.002h0.002l0.02-1.12
		c2.093-1.663,4.337-3.134,6.516-4.681C116.602,141.987,116.21,142.268,116.94,141.747z M112.598,142.822
		c0.066-0.045,0.14-0.096,0.208-0.142c-0.057,0.039-0.122,0.083-0.213,0.145c-0.071,0.048-0.11,0.075-0.136,0.093
		c0.029-0.02,0.079-0.054,0.134-0.091c-0.747,0.508-1.496,1.015-2.227,1.544c0.058-0.042,0.542-0.368,0.479-0.443
		c-0.11-0.131-0.484,0.348-0.489,0.451c0,0-0.001,0.001-0.001,0.001c0.018-0.372,0.018-0.743,0.018-1.112
		c1.715-1.425,3.673-2.571,5.552-3.763l0.001-0.001c0.181,0.239,0.38,0.468,0.571,0.695
		C115.195,141.072,113.892,141.941,112.598,142.822z M110.267,151.083l0.011-1.323c2.773-2.358,6.002-4.334,9.128-6.205
		c-0.079,0.042-0.135,0.103-0.169,0.183c0-0.001,0.932-0.187,0.602-0.442c0.364,0.275,0.739,0.536,1.112,0.799
		c-2.589,1.049-8.446,5.354-10.683,6.991V151.083z M118.724,123.627c0.031-0.058,0.063-0.117,0.094-0.175
		c-0.035,0.065-0.069,0.13-0.104,0.195v0c0,0,0,0.001-0.001,0.001c-0.047,0.087-0.095,0.174-0.142,0.261
		c0.321-0.599-0.353,0.411-0.559,0.581c-0.422,0.348-0.919,0.588-1.413,0.816c0.375-0.753,0.819-1.684,1.407-2.336
		c0.028-0.04,0.074-0.087,0.115-0.136c0.134-0.146,0.32-0.349,0.529-0.298c0.398,0.002,0.282,0.585,0.202,0.805
		c-0.046,0.097-0.086,0.202-0.136,0.297C118.717,123.638,118.721,123.631,118.724,123.627z M118.626,120.632
		c-0.195,0.125-0.877,0.59-1.042,0.186c-0.004-0.013-0.009-0.026-0.011-0.041c-0.13-0.548,0.438-1.284,0.845-1.584l0.038-0.038
		l0.001-0.001c0.148,0.423,0.317,0.84,0.505,1.249C118.914,120.438,118.785,120.531,118.626,120.632z M129.629,119.121
		c-0.008,0.002-0.027,0.009-0.076,0.025c-1.426,0.496-0.719,0.252-0.237,0.085c-2.097,0.747-4.684,1.871-6.847,0.891
		c-2.241-1.016-3.171-4.478-3.967-6.568c-2.247-5.902-4.26-11.9-6.066-17.951c-1.836-6.15-3.422-12.367-4.68-18.661
		c-0.855-4.277-1.713-8.608-2.029-12.966c-0.071-0.98-0.528-4.711,1.035-4.909c0.092-0.017,0.188-0.021,0.295,0.001
		c16.33,7.907,26.777,23.212,30.272,40.87c0.957,3.266,6.12,15.849,0.037,16.911C134.745,117.449,132.175,118.264,129.629,119.121z
		 M139.787,56.872c0.447-0.057,0.895-0.114,1.342-0.175c-5.808,0.742-11.56,2.136-16.997,4.323c0.209-0.067,2.598-1.457,5.718-2.324
		c0.002,0,0.002,0,0.004,0c0.002-0.002,0.004-0.002,0.004-0.002c3.64-1.005,7.394-1.493,11.131-1.978
		C140.588,56.765,140.188,56.822,139.787,56.872z M158.468,71.231c-0.295,0.042,0.025-0.004,0.031-0.004
		C158.5,71.227,158.494,71.228,158.468,71.231z M133.622,72.22c-0.8,0.2-1.6,0.402-2.405,0.581c0.657-0.146,1.314-0.292,1.971-0.439
		c-0.657,0.219-1.314,0.439-1.971,0.439c0.002,0,0.007-0.003,0.009-0.004c1.399-0.524,2.667-1.422,4.031-2.041
		c1.532-0.694,3.105-1.301,4.715-1.79c-0.411,0.123-0.819,0.251-1.232,0.366c0.155-0.044,0.309-0.09,0.463-0.138
		c-0.044,0.013-0.089,0.026-0.134,0.04c0.326-0.099,0.653-0.195,0.979-0.292c-0.039,0.012-0.064,0.02-0.076,0.024
		c-0.026,0.009,0.047-0.013,0.229-0.067c0.006-0.002,0.01-0.004,0.017-0.005c-0.02,0.006-0.042,0.011-0.063,0.017
		c0.459-0.136,0.916-0.286,1.379-0.408c-0.441,0.117-0.874,0.26-1.311,0.391c5.689-1.67,11.638-2.069,17.502-2.72
		c-7.877,1.089-15.376,3.797-23.047,5.788C134.327,72.01,133.975,72.108,133.622,72.22z M137.063,68.539
		c0.001,0,0.005-0.001,0.007-0.002c-0.003,0.001-0.005,0.001-0.008,0.002c-2.4,0.683-4.81,1.336-7.246,1.878
		c1.316-0.293,2.63-0.62,3.954-0.88c-1.325,0.26-2.629,0.62-3.954,0.88c8.647-2.97,17.417-5.393,26.491-6.628
		C149.742,64.686,143.416,66.732,137.063,68.539z M190.08,68.019c-2.559-0.131-5.096-0.581-7.662-0.581
		c0.694,0,1.445-0.242,2.129-0.345c1.28-0.194,2.569-0.341,3.861-0.427l1.676,1.353C190.082,68.019,190.082,68.019,190.08,68.019z
		 M184.827,65.553c0.009,0,0.019,0.001,0.027,0.001C184.801,65.552,184.793,65.551,184.827,65.553z M186.375,65.637
		c-0.813-0.044-1.246-0.067-1.44-0.078c-0.013,0-0.026-0.001-0.04-0.002c0.011,0,0.027,0.001,0.04,0.002
		c-0.016,0-0.03-0.001-0.043-0.002c0.037,0.002,0.073,0.004,0.11,0.006c0.371,0.02,1.175,0.063,1.346,0.073
		c-0.447-0.025-0.894-0.05-1.341-0.072C185.463,65.586,185.919,65.612,186.375,65.637c0.02,0.001,0.007,0-0.015-0.001
		c-2.341-0.127-4.662-0.54-7.011-0.54c0.066-0.008,0.134-0.017,0.2-0.025c0.659-0.107,1.313-0.253,1.977-0.336
		c1.297-0.216,2.617-0.348,3.929-0.429l1.727,1.372C186.909,65.664,186.641,65.65,186.375,65.637z M180.651,62.771
		c0.132-0.002,0.721-0.011-0.022,0c-1.716,0.018-3.531-0.163-5.238-0.009c0.599-0.069,1.212-0.317,1.797-0.459
		c1.474-0.359,2.966-0.649,4.469-0.855l1.713,1.256C182.407,62.737,181.497,62.758,180.651,62.771z M174.25,60.062
		c0.076-0.004,0.453-0.026,0.532-0.03c-0.043,0.002-0.195,0.011-0.546,0.031c-0.007,0.001-0.015,0.001-0.021,0.001
		c-0.707,0.04-1.51-0.03-2.206,0.109c0.001,0,0.006-0.001,0.007-0.002c0.258-0.035,2.449-0.877,5.519-1.56
		c0.53,0.354,1.094,0.714,1.636,1.086C177.233,59.875,175.518,59.989,174.25,60.062z M169.031,58.192
		c0.001,0,0.003-0.001,0.004-0.001c0.016-0.002,0.044-0.006,0.073-0.011c-0.027,0.004-0.061,0.009-0.071,0.011
		c0.26-0.043,2.355-0.857,5.335-1.522c0.571,0.343,1.171,0.694,1.741,1.058C172.132,58.079,169.105,58.182,169.031,58.192z
		 M166.449,55.622c0.002,0,0.007-0.002,0.009-0.002c1.275-0.224,2.542-0.826,3.801-1.149c0.546,0.256,1.083,0.528,1.615,0.817
		c0.002,0.001,0.002,0.001,0.004,0.002C168.734,55.525,166.507,55.612,166.449,55.622z M162.518,53.841
		c0.229-0.029,1.617-0.572,3.741-1.134c0.628,0.25,1.255,0.511,1.875,0.781C164.898,53.755,162.593,53.831,162.518,53.841z
		 M157.686,26.788l-2.023-0.563C156.516,24.825,158.916,21.234,157.686,26.788z M155.859,28.024c0.235,0,0.899,0.029,0.886,0.399
		c0.003-0.08,0.013,0.3,0.002,0.381c0.014-0.11-0.002-0.281-0.002-0.381c0,1.009-0.287,2.076-0.451,3.066
		c-0.333,2.013-0.683,4.023-1.034,6.033c-0.488,2.787-0.984,5.572-1.486,8.356L155.859,28.024z M151.055,59.663
		c-5.566,1.044-10.961,2.725-16.4,4.276c0.421-0.12,0.841-0.249,1.261-0.373c-2.97,0.862-6.034,1.366-8.973,2.342
		c0.408-0.136,0.816-0.268,1.224-0.403c-0.395,0.12-0.789,0.246-1.177,0.387c8.597-2.941,17.38-5.555,26.433-6.603
		C152.631,59.397,151.842,59.523,151.055,59.663z M84.262,140.942h-0.887c0.074-0.328,0.141-0.659,0.202-0.99h0.008L84.262,140.942z
		 M85.394,142.73l0.554,1h-3.104l0.189-1H85.394z M86.794,145.523c0.146,0.33,0.286,0.664,0.419,1h-4.875l0.172-1H86.794z
		 M87.852,148.303l0.314,1h-6.323l0.17-1H87.852z M88.641,151.094l0.229,0.99h-7.503l0.17-0.99H88.641z M89.212,153.875l0.172,0.998
		h-8.457l0.152-0.998H89.212z M89.612,156.663l0.125,1H80.52l0.143-1H89.612z M89.889,159.443l0.066,0.992h-9.798l0.014-0.11
		l0.111-0.882H89.889z M90.05,162.232l0.027,1H79.871l0.094-1h0.002H90.05z M90.109,165.014v1H79.711l0.037-1H90.109z
		 M79.785,168.793l-0.037-0.999h10.341l-0.02,0.999H79.785z M90.023,170.578l-0.039,0.997H79.785l0.02-0.997H90.023z M89.9,173.366
		l-0.05,0.987H79.652l0.057-0.987H89.9z M89.756,176.146c-0.001,0.014-0.001,0.027-0.002,0.04c-0.017,0.319-0.031,0.64-0.047,0.96
		H79.442l0.086-1H89.756z M89.612,178.938l-0.047,0.987H79.156c0.038-0.333,0.084-0.665,0.104-0.987h0.002H89.612z M89.488,181.717
		l-0.038,1H78.795l0.146-1H89.488z M89.411,184.488h0.002c-0.004,0.336-0.008,0.673-0.01,1.01H78.358l0.001-0.002l0.171-1.008
		H89.411z M89.488,187.287c0.029,0.337,0.066,0.675,0.115,1.008c0,0.002,0,0.002,0,0.002h-11.77c0,0,0,0,0-0.002
		c0.076-0.341,0.143-0.665,0.199-1.008H89.488z M89.966,190.078c0.096,0.343,0.199,0.665,0.303,0.99H77.195l0.249-0.99H89.966z
		 M93.012,195.646c0.331,0.354,0.686,0.684,1.057,0.99H75.328l0.431-0.99H93.012z M96.801,198.43
		c0.068,0.034,0.137,0.067,0.205,0.102c-0.368-0.189,0.723,0.331,0.847,0.384c0.445,0.19,0.898,0.363,1.358,0.515H73.739
		c0.229-0.354,0.439-0.677,0.628-1H96.801z M109.552,207.471c0.489-0.707,0.912-1.449,1.272-2.232
		c2.157-1.737,4.224-3.583,6.315-5.398c1.02-0.886,2.033-1.781,2.982-2.743c0.46-0.468,0.906-0.95,1.327-1.454
		c0.118-0.142,0.729-1.02,0.103-0.815c-1.461,0.584-2.778,1.741-4.029,2.676c-1.81,1.351-3.572,2.764-5.373,4.126
		c0.172-0.629,0.325-1.273,0.458-1.923c1.359-1.087,2.836-2.035,4.226-3.083c0.902-0.68,1.797-1.372,2.646-2.116
		c0.521-0.457,1.273-1.02,1.526-1.694c0.212-0.566-0.435-0.121-0.623-0.011c-0.881,0.518-1.736,1.082-2.592,1.641
		c-1.576,1.028-3.117,2.122-4.718,3.11l-0.084,0.037v-0.001c0.086-0.647,0.155-1.305,0.2-1.96c1.441-1.168,3.003-2.176,4.454-3.331
		c0.733-0.584,1.454-1.187,2.109-1.857c0.34-0.348,1.055-0.918,0.894-1.484c0.03,0.11-2.44,1.558-2.661,1.701
		c-1.59,1.044-3.043,2.298-4.693,3.25c0.02-0.495,0.029-1,0.029-1.495c1.4-1.296,3-2.364,4.445-3.609
		c0.543-0.469,2.797-2.083,2.445-3.021c-0.267-0.389-6.621,4.802-6.899,4.993l-0.002-0.06l-0.055-1.504
		c2.112-1.857,4.446-3.521,6.196-5.749c0.51-0.648-0.381-0.354-0.67-0.209c-0.639,0.322-1.208,0.762-1.781,1.185
		c-1.321,0.974-2.547,2.069-3.849,3.068l-0.125-1.54c1.596-1.798,3.568-3.455,4.906-5.462c0.009-0.015,0.02-0.029,0.026-0.042
		c0.011-0.021,0.013-0.036,0.019-0.054c0.008-0.034,0.005-0.062-0.01-0.08c-0.004-0.006-0.009-0.012-0.016-0.016
		c-0.124-0.086-0.402,0.025-0.506,0.057c-0.845,0.286-1.532,0.869-2.263,1.356c-0.805,0.6-1.573,1.251-2.412,1.804l-0.173-1.323
		c0.307-0.322,4.473-4.977,4.348-5.02c0,0,0,0-0.001,0c-1.035-0.352-3.824,3.332-4.498,3.85v-0.004l-0.249-1.787
		c1.081-0.73,1.764-1.691,2.052-2.885c-0.941,0.048-1.705,0.488-2.291,1.322l-0.267-1.789c0.907-0.886,1.876-1.705,2.789-2.586
		c0.619-0.597,2.004-1.595,2.16-2.506c0.049-0.313-0.988,0.239-1.065,0.281c-0.566,0.306-1.12,0.644-1.652,1.005
		c-0.852,0.645-1.626,1.387-2.507,1.993l-0.189-1.236c1.111-1.341,2.282-2.633,3.504-3.875c0.107-0.067,0.182-0.158,0.225-0.271
		c-0.061-0.137-4.599,2.586-5.087,2.826c0.38-0.188,0.713-0.454,1.071-0.678c0-0.002,0-0.002,0-0.002
		c-0.048-0.409-0.101-0.817-0.144-1.228c0.433-0.45,4.204-4.254,3.594-4.655c-1.566,0.28-2.824,1.12-3.778,2.521l-0.006-0.09
		l-0.088-1.351c0.15-0.143,4.846-5.082,4.964-5.011c-0.182-0.094-0.37-0.116-0.566-0.066c-1.631,0.225-3.172,2.039-4.495,2.887
		l-0.001-0.039l-0.036-1.111c2.082-1.725,4.243-3.355,6.473-4.887c0.23-0.127,0.319-0.187,0.297-0.189
		c-0.152-0.035-5.704,2.563-6.819,3.161v-0.028l-0.027-1.58c0.859-0.528,8.896-6.103,8.999-5.875c-1.12-2.464-7.88,3.573-9.01,4.44
		v-0.011l-0.008-1.506c2.073-1.358,4.071-2.843,6.074-4.301c0.478-0.348,3.711-3,4.277-2.406c0,0,0.001,0,0.002,0
		c-1.026-1.021-3.897,0.795-4.817,1.291c-1.893,1.021-3.64,2.287-5.536,3.301v-1.18c1.58-1.273,9.226-7.158,12.653-7.686h0.001
		l0.058,0.044l0.02,0.015c2.055,1.098,3.733,1.666,5.122,1.742c1.188,0.912,2.218,2.062,2.979,3.352
		c-0.364,0.641-0.921,0.867-1.65,0.729c0,0,0,0-0.001,0c0.758,0.423,2.361,4.922,3.109,4.462c0.092-0.709,0.474-1.085,1.143-1.134
		c1.001,0.127,0.91,1.236,0.104,1.569c-3.214,1.473-0.631,4.037,1.309,5.25c0.01,0.008,0.021,0.016,0.031,0.021
		c0.585,0.373,1.025,0.594,1.039,0.586h0.002c-0.225,1.362-1.145,4.587,1.084,4.801c0.397-0.283,0.794-0.563,1.191-0.849
		c0.578-0.688,1.226-1.313,1.933-1.866c0.464,0.063,0.928,0.127,1.39,0.19c0.38,0.698-0.083,1.176-0.789,1.565
		c-0.972,0.587-2.417,1.015-2.792,1.477c-0.007,0.013-0.019,0.025-0.025,0.038c-0.008,0.011-0.012,0.021-0.018,0.032
		c-0.073,0.191,0.124,0.37,0.373,0.509c0.543,0.196,1.451,0.251,1.787,0.247c0.407-0.06,2.209-0.176,2.353-0.559
		c-0.332,0.543-0.766,1.018-1.275,1.393c-1.825,1.441-0.095,2.616,1.508,2.937c1.205,0.24,3.286,0.754,4.299-0.215
		c-0.921,0.789-1.848,1.587-2.882,2.227c-1.169,0.722-2.378,1.396-3.43,2.288c0,0,0,0.002-0.001,0.002
		c0.145-0.166,0.78-0.117,0.986-0.139c0.555-0.06,1.105-0.185,1.66-0.255c0.646-0.081,1.866-0.359,2.43,0.103
		c0.801,0.656-1.018,1.719-1.452,2c-0.281,0.182-3.062,1.741-2.874,1.918c0.232,0.069,0.878-0.022,0.974-0.053
		c0.001,0,0.002,0,0.002,0c1.954-0.622,3.655-2.768,5.784-2.745c0.406-0.027,0.804,0.103,1.056,0.44
		c1.086,1.282-1.239,2.201-2.114,2.488c-0.479,0.158-4.431,1.211-3.699,2.195c0.486,0.46,1.896-0.158,2.414-0.339
		c1.139-0.398,2.244-0.885,3.342-1.385c0.361-0.182,2.16-1.424,2.504-1.166l0.002-0.001c0.165,1.206-7.939,5.357-7.93,5.402h-0.002
		c0.105,0.091,0.227,0.139,0.364,0.142c0.989,0.135,2.258-0.621,3.158-0.959c1.521-0.57,2.989-1.315,4.457-2.008
		c0.727-0.342,1.802-1.142,2.618-1.195c0.487-0.044-0.389,0.827-0.455,0.891c-1.047,1.002-2.228,1.881-3.395,2.738
		c-0.855,0.63-1.753,1.197-2.646,1.773c-0.51,0.329-1.884,1.591-2.526,1.42c0-0.002-0.004,0-0.006,0
		c1.156,0.401,2.893-1.01,3.831-1.535c1.512-0.848,2.954-1.894,4.548-2.583c0.001,0,0.001,0,0.002-0.001
		c0.391-0.169,1.165-0.546,1.586-0.249c0.028,0.017,0.051,0.037,0.073,0.058c0.002,0.003,0.005,0.005,0.007,0.008
		c0.161,0.155,0.069,0.348-0.017,0.509c-0.388,0.582-1.059,0.985-1.648,1.331c-1.079,0.636-2.188,1.227-3.293,1.818
		c-1.652,0.888-3.84,1.664-5.067,3.131c-0.229,0.295-0.466,0.683-0.316,1.07v0.003c0.209,0.553,10.226-6.162,11.828-5.367
		c0.002,0,0.004,0,0.006,0.002c-0.553-0.281-1.693,0.968-2.092,1.258c-1.336,0.978-2.643,1.999-3.952,3.011
		c-1.212,0.938-2.429,1.866-3.656,2.784c-0.922,0.69-1.879,1.619-2.948,2.066c-0.008,0.004-0.015,0.004-0.023,0.008
		c-0.167,0.094-0.34,0.11-0.518,0.05c0.799,0.524,2.148-0.387,2.837-0.752c1.231-0.653,2.448-1.325,3.646-2.037
		c1.115-0.662,2.222-1.347,3.356-1.976c0.983-0.546,2.146-1.462,3.279-1.646c0.01-0.002,0.019,0,0.029-0.002
		c0.166-0.036,0.326-0.018,0.48,0.054c0.092,0.046,0.148,0.104,0.179,0.171c0,0.001,0.001,0.002,0.001,0.002
		c0.06,0.135,0.008,0.304-0.104,0.481c-0.001,0.001-0.002,0.002-0.002,0.004c-0.268,0.42-0.682,0.776-1.086,1.057
		c-1.504,1.128-3.306,1.877-4.959,2.751c-0.96,0.507-1.917,1.021-2.837,1.598c-0.595,0.373-1.534,0.906-1.579,1.709
		c-0.002,0.021,0.009,0.035,0.023,0.045c0.547,0.32,10.238-4.776,10.862-4.338h0.001c0.209,0.148-11.791,6.654-11.959,7.977
		c0,0.006-0.006,0.014-0.006,0.02c0.035-0.123,0.109-0.215,0.225-0.276c0.002-0.001,0.002-0.003,0.004-0.004
		c0.55-0.376,1.27-0.527,1.894-0.745c1.106-0.386,2.212-0.771,3.324-1.142c1.023-0.341,2.046-0.686,3.065-1.041
		c0.696-0.243,2.025-0.428,2.457-1.085c-1.373,2.193-4.331,2.813-6.578,3.678c0,0-0.001,0-0.002,0.001
		c-1.637,0.626-3.527,1.267-4.771,2.563c-0.256,0.307-0.521,0.646-0.675,1.016c-0.039,0.06-0.034,0.112,0.015,0.158
		c0.607,0.188,6.884-2.08,6.929-2.006h0.002c0.294,0.932-6.707,5.01-6.327,5.229c0.002,0,0,0.002,0,0.002
		c1.7,0.902,6.87-3.338,8.102-4.141c0.435-0.121,0.865-0.242,1.3-0.361h0.001c0.918,0.721-7.271,5.044-7.075,5.826
		c0.007,0.019-0.01,0.043,0.005,0.06c0.133,0.136,4.303-0.842,4.452-0.515c0.011,0.021,0.002,0.049-0.026,0.084
		c-0.873,0.639-1.59,1.404-2.149,2.311c0.45,0.315,0.95,0.354,1.496,0.113c0.003,0,0.008-0.002,0.01-0.002
		c0.039,0.006-6.646,3.918-6.58,3.77c0.001-0.002,0.002-0.002,0.003-0.004c0.51-0.423,0.863-0.949,1.07-1.578
		c0-0.002-0.002,0-0.002-0.002c-0.111-0.215-4.813,2.362-4.629,1.26c0.435-0.342,0.682-0.774,0.741-1.299h-0.002
		c-0.346-0.128-5.7,2.596-5.479,1.371c0.437-0.45,0.868-0.903,1.249-1.402c-0.001,0-0.003,0-0.004,0
		c-1.746,0.205-3.335,0.896-4.766,2.063l-1.656-0.097c-0.002-0.004-0.002-0.004-0.001-0.006c0.102-0.313,0.256-0.604,0.457-0.862
		c0.323-0.45,0.239-0.652-0.269-0.399c-0.61,0.304-1.184,0.728-1.715,1.151l-1.063-0.097c0,0,0,0,0.001-0.002
		c0.194-0.44,0.389-0.883,0.583-1.324c0,0,0,0-0.001,0c-0.88-0.105-1.568,0.293-2.067,1.191c-2.37-0.229-4.455-0.504-6.284-0.778
		c0-0.001,0-0.001,0.001-0.003c0.917-1.181-0.272-0.552-0.869-0.131c-0.953-0.172-1.838-0.334-2.656-0.516c0,0,0.001,0,0.002-0.002
		c1.11-0.948,2.175-1.967,3.2-3.007c0.229-0.233,1.583-1.847,1.942-1.668c-0.928-0.462-2.414,0.968-3.061,1.474
		c-1.219,0.951-2.418,1.975-3.712,2.821c-0.522-0.133-1.027-0.246-1.485-0.397c0,0,0.001-0.002,0.002-0.002
		c0.743-0.588,7.907-6.229,7.411-6.576c0,0-0.001,0-0.002,0c-0.904-0.623-7.557,5.521-8.458,6.271h-0.001
		c-0.424-0.148-0.854-0.284-1.267-0.464l0.001-0.002c1.185-1.054,10.489-7.675,10.02-9.011c0.021,0.072-1.379,0.917-1.505,1.003
		c-0.956,0.649-1.86,1.374-2.783,2.067c-2.351,1.767-4.738,3.509-6.976,5.418c0,0-0.001,0-0.001-0.002
		c-0.325-0.152-0.644-0.329-0.953-0.512l0.001-0.002c0.827-0.797,9.616-8.764,9.4-8.973c0-0.002-0.002,0-0.002-0.002
		c-0.834-0.793-9.03,6.479-10.037,7.158C109.548,207.477,109.55,207.473,109.552,207.471z M176.359,217.673
		c0.236-0.083,0.475-0.164,0.709-0.26C176.762,217.545,176.522,217.628,176.359,217.673z M177.097,217.402
		c-1.035,0.221-1.232,0.411-0.751,0.275c-0.401,0.113-0.273,0.086-0.103,0.033c-0.13,0.042-0.221,0.068-0.205,0.061
		c-2.687,0.862-5.588,0.916-8.198,2.033c1.466-0.772,2.999-1.418,4.58-1.922c1.314-0.322,3.275-0.184,4.686-0.484
		C177.103,217.4,177.1,217.4,177.097,217.402z M173.406,223.569C173.409,223.568,173.408,223.568,173.406,223.569
		c0.022-0.007,0.043-0.017,0.064-0.021C173.449,223.556,173.428,223.563,173.406,223.569z M164.604,228.7
		c-0.836,0.071,0.004-0.021,0.371-0.054C164.85,228.668,164.714,228.686,164.604,228.7z M147.929,228.785
		c0.005-0.007,0.01-0.014,0.015-0.021c0.003-0.005,0.007-0.009,0.01-0.014c0.8-1.091,1.686-2.277,2.557-3.402
		c0.007-0.01,0.014-0.02,0.021-0.028c0.002-0.003,0.011-0.013,0.014-0.016c0.511-0.66,1.018-1.329,1.562-1.961
		c0.09-0.104,0.736-0.826,0.692-0.597c-0.036,0.43-0.459,0.894-0.7,1.228c-0.411,0.567-0.787,1.158-1.187,1.733
		c0.078-0.112,0.156-0.225,0.234-0.337c-0.271,0.388-0.538,0.778-0.81,1.166c0.132-0.188,0.262-0.377,0.393-0.565
		c-1.685,2.366-3.384,4.931-5.648,6.787C145.08,232.759,146.322,230.979,147.929,228.785z M159.012,221.607
		c2.932-3.582-6.259,9.922-9.514,12.619C149.498,234.227,156.087,225.178,159.012,221.607z M144.3,222.956
		c2.943-3.569-11.17,16.313-14.427,18.987C129.873,241.947,141.377,226.529,144.3,222.956z M153.547,265.133
		c-0.281,0.202-0.603,0.394-0.847,0.552C152.977,265.487,153.259,265.304,153.547,265.133z M167.59,231.857
		c0.04-0.01,0.107-0.026,0.17-0.042c0.008-0.002,0.011-0.003,0.018-0.005c0.018-0.004,0.023-0.006,0.037-0.009
		c0.089-0.022,0.151-0.038,0.079-0.02c0.048-0.012,0.028-0.007-0.172,0.043c-0.003,0.001-0.005,0.001-0.008,0.002
		c0.001,0,0.001,0,0.001,0c-0.042,0.013-0.086,0.021-0.129,0.032C167.588,231.858,167.589,231.858,167.59,231.857
		c-0.005,0.002-0.009,0.003-0.014,0.004c-0.016,0.004-0.031,0.008-0.047,0.012c-3.725,0.913-7.65,1.06-11.24,2.492
		c4.063-2.847,9.129-2.088,13.654-3.53C169.186,231.249,168.275,231.688,167.59,231.857z M173.22,223.627
		c-0.002,0.001-0.004,0.001-0.006,0.002h0.001c-0.004,0.001-0.005,0.001-0.008,0.002c-0.013,0.004-0.022,0.006-0.03,0.009
		c0.004-0.001,0.009-0.002,0.013-0.003c-2.898,0.858-6.081,0.6-8.844,1.942c0.848-0.534,1.759-0.958,2.708-1.276
		c-0.037,0.015-0.076,0.027-0.115,0.037c0.389-0.131,0.778-0.26,1.168-0.388c-0.339,0.111-0.677,0.226-1.016,0.338
		c2.745-0.908,5.68-0.933,8.476-1.624C174.803,223.024,174.025,223.373,173.22,223.627z M181.24,221.68
		c-0.051-0.225,3.903-1.211,4.287-1.283c-0.029-0.01,0.025-0.021,0.281-0.047c0.172,0.014,0.189,0.022,0.146,0.031
		c0.376,0.135-0.245,0.646-1.147,0.958c-1.156,0.333-2.577,0.63-3.728,0.378c0.071-0.024,0.146-0.035,0.224-0.033
		C181.28,221.69,181.26,221.689,181.24,221.68z M187.094,217.245C187.723,217.169,186.197,217.502,187.094,217.245L187.094,217.245z
		 M187.199,193.857c-0.221-0.344-0.42-0.678-0.592-1h23.215h0.002l-1.324,1H187.199z M185.904,191.079
		c-0.063-0.331-0.094-0.666-0.096-1.001h26.424c-0.295,0.304-0.555,0.639-0.772,1.001H185.904z M186.732,217.352
		c-0.965,0.457,0.123,2.092-4.01,1.236C182.338,218.621,185.449,217.717,186.732,217.352z M247.199,138.161h-46.432l0.151-0.437
		c1.272,0.045,2.543-0.148,3.742-0.571h42.497L247.199,138.161z M247.105,135.372h-40.103c0.195-0.312,0.349-0.648,0.448-1h39.594
		L247.105,135.372z M246.961,132.589h-39.348c-0.031-0.267-0.093-0.554-0.157-0.855c-0.011-0.052-0.021-0.1-0.032-0.153h0.002
		h39.479L246.961,132.589z M246.752,129.801h-39.88l-0.409-0.991h40.212L246.752,129.801z M246.514,127.02h-40.824
		c-0.175-0.323-0.335-0.653-0.483-0.989H246.4C246.438,126.354,246.495,126.687,246.514,127.02z M246.219,124.232h-41.937
		c-0.171-0.325-0.333-0.658-0.522-1h42.346L246.219,124.232z M245.866,121.45h-43.052c-0.005-0.008-0.007-0.011-0.011-0.019
		c-0.127-0.253-0.368-0.667-0.53-0.981h43.459L245.866,121.45z M245.457,118.659H201.32l-0.506-0.988h44.49L245.457,118.659z
		 M245.008,115.879h-44.992c-0.173-0.392-0.297-0.705-0.412-1h0.002h45.213C244.895,115.213,244.952,115.546,245.008,115.879z
		 M244.294,112.119c0.063,0.323,0.12,0.646,0.203,0.97h-0.001h-45.365c0.014-0.334,0.02-0.667,0.02-1h45.138
		C244.29,112.099,244.292,112.109,244.294,112.119z M243.904,110.307C243.904,110.308,243.85,109.974,243.904,110.307
		c0,0.001-0.002-0.006-0.004-0.015C243.902,110.298,243.902,110.301,243.904,110.307v0.011h-44.689
		c0.021-0.267,0.067-0.563,0.239-0.695c0.841,0.137,1.702,0.083,2.522-0.143c0.171-0.054,0.14-0.01,0.287-0.161h41.442
		C243.771,109.642,243.85,109.974,243.904,110.307z M243.895,110.25C243.882,110.181,243.868,110.097,243.895,110.25L243.895,110.25
		z M243.293,107.519h-41.088l-0.275-0.991h41.127C243.122,106.851,243.221,107.184,243.293,107.519z M242.607,104.736h-41.229
		c-0.165-0.324-0.31-0.658-0.433-1h41.406C242.456,104.07,242.535,104.403,242.607,104.736z M241.887,101.947h-41.451
		c-0.072-0.327-0.117-0.658-0.133-0.99h41.309L241.887,101.947z M240.795,98.233C240.842,98.37,240.817,98.3,240.795,98.233
		L240.795,98.233z M241.086,99.168H206.48c0.295-0.302,0.554-0.637,0.763-1h33.53C240.885,98.499,240.99,98.832,241.086,99.168z
		 M240.229,96.377H207.9c0.078-0.325,0.136-0.655,0.17-0.99h31.826L240.229,96.377z M239.297,93.597h-31.188
		c-0.021-0.286-0.059-0.61-0.112-1h30.965L239.297,93.597z M238.292,90.743C238.268,90.675,238.241,90.601,238.292,90.743
		L238.292,90.743z M237.962,89.872C238.024,90.026,237.989,89.941,237.962,89.872L237.962,89.872z M238.314,90.806h-30.672h-0.002
		c-0.064-0.314-0.162-0.646-0.257-0.988h30.556C238.072,90.144,238.195,90.473,238.314,90.806z M236.855,87.026
		c0.152,0.335,0.258,0.667,0.394,1h-30.406c-0.003-0.008-0.007-0.018-0.01-0.026c0.001,0,0.001,0.001,0.001,0.001
		c0-0.271-0.246-0.723-0.344-0.975H236.855C237.008,87.361,236.855,87.026,236.855,87.026z M236.082,85.113
		c0.012,0.026,0.021,0.054,0.033,0.081c-0.019-0.042-0.036-0.075-0.045-0.088c0.014,0.024,0.035,0.071,0.05,0.102
		c0.002,0.003,0.002,0.004,0.004,0.008c0.003,0.007,0.006,0.014,0.009,0.021h-30.338l-0.429-0.99h30.356
		C235.782,84.396,236.087,85.075,236.082,85.113z M234.941,82.455h-30.405c-0.149-0.323-0.332-0.655-0.505-1h30.465L234.941,82.455z
		 M233.678,79.675h-30.652c-0.183-0.335-0.409-0.667-0.609-1h30.777L233.678,79.675z M232.291,76.807
		c-0.021-0.047-0.042-0.091-0.027-0.06C232.254,76.726,232.258,76.733,232.291,76.807z M231.84,75.883
		c0.17,0.331,0.332,0.664,0.486,1h-31.063l-0.724-1H231.84z M230.906,74.104h-31.749c-0.259-0.334-0.542-0.667-0.817-1h32.023
		L230.906,74.104z M229.338,71.199c0.012,0.021,0.03,0.055,0.063,0.116h-32.66l-0.975-1h33.055c0.211,0.335,0.393,0.667,0.58,1
		C229.4,71.315,229.359,71.242,229.338,71.199z M227.803,68.533h-33.919l-1.151-1h34.479L227.803,68.533z M226.105,65.744h-35.519
		l-1.228-1h36.117L226.105,65.744z M224.242,62.837c0.014,0.021,0.037,0.057,0.084,0.128h-37.213l-1.286-1h0.002h37.813
		c0.231,0.326,0.461,0.661,0.684,1C224.326,62.965,224.27,62.879,224.242,62.837z M221.707,59.182
		c0.249,0.319,0.484,0.649,0.703,0.99h-38.992l-1.393-0.99h39.68H221.707z M220.343,57.309c0.017,0.021,0.033,0.046,0.062,0.083
		h-0.002h-40.975l-1.541-0.998l-0.002-0.002h41.777c0.252,0.331,0.499,0.664,0.74,1C220.402,57.391,220.37,57.348,220.343,57.309z
		 M218.277,54.602h-43.391c-0.592-0.342-1.21-0.677-1.801-1h0.002h44.373L218.277,54.602z M216.014,51.813h-46.574
		c-0.801-0.343-1.582-0.678-2.361-0.991h48.08C215.438,51.157,215.723,51.488,216.014,51.813z M213.604,49.041h-51.849
		c-0.935-0.267-1.876-0.503-2.847-0.712l0.001-0.002l0.093-0.294h53.68C212.995,48.364,213.303,48.701,213.604,49.041z
		 M210.053,45.251c0.334,0.323,0.657,0.658,0.973,1h-51.518l0.297-1H210.053z M208.273,43.462h-47.938l0.261-1h46.657
		L208.273,43.462z M205.336,40.671h-44.23l0.275-0.99h42.832L205.336,40.671z M202.156,37.898h-40.239l0.272-1h38.756
		C201.359,37.223,201.762,37.556,202.156,37.898z M198.712,35.111h-36.006l0.274-1h0.002h34.406
		C197.835,34.433,198.266,34.766,198.712,35.111z M166.01,23.75c0-0.029,0.021-0.058,0.039-0.086l0.189-0.695h12.351v-0.001
		l2.142,0.999l0.004,0.002c-4.934,0-9.866,0-14.801,0L166.01,23.75z M165.41,25.759h18.872l1.819,1h-20.967h-0.002L165.41,25.759z
		 M164.583,28.54h24.567c0.543,0.325,1.084,0.66,1.619,1h-26.483L164.583,28.54z M163.79,31.329h29.703
		c0.481,0.329,0.967,0.661,1.444,1h-31.422L163.79,31.329z M155.885,21.419c0.048,0.009,0.096,0.018,0.143,0.026
		c-0.014-0.002-0.029-0.005-0.043-0.008c0.051,0.01,0.108,0.021,0.153,0.029C156.057,21.451,155.971,21.435,155.885,21.419
		c-0.087-0.016-0.171-0.032-0.255-0.047c0.067,0.012,0.122,0.022,0.183,0.034C155.837,21.41,155.861,21.415,155.885,21.419z
		 M155.049,21.264c3.697,0.686,6.114,1.38,8.201,2.38l-0.333,1.143c-2.243-1.229-5.351-2.742-7.944-2.742L155.049,21.264z
		 M154.822,22.159c0.161,0.022,0.323,0.038,0.484,0.058c0.39,0.169,0.206,0.108,0.074,0.052c0.542,0.333,0.82,1.599,0.146,3.918
		l-1.021-0.275L154.822,22.159z M154.079,28.225c0.063-0.397,0.464-0.491,0.802-0.392v0.002l-2.19,18.825
		C152.702,46.497,153.963,28.812,154.079,28.225z M150.809,21.473c0.017,0.002,0.016,0.006,0.007,0.011
		c-0.036-0.002-0.068-0.01-0.107-0.01C150.756,21.472,150.792,21.471,150.809,21.473z M73.369,92.369
		c0.738-3.356,1.713-6.666,2.923-9.881c-0.567,1.518-1.136,3.036-1.702,4.555c0.881-2.361,1.76-4.722,2.646-7.081
		c-0.311,0.833-0.622,1.665-0.933,2.498c8.107-21.818,25.621-39.941,45.896-50.955c7.827-4.252,16.247-7.483,24.966-9.34
		c-0.171,0.021-0.281,0.025-0.356,0.018c0.25,0,0.967-0.162,1.046-0.174c-0.223,0.045-0.443,0.105-0.666,0.153
		c0.495-0.064,1.297-0.221,2.012-0.37c-0.45,0.075-0.929,0.151-1.346,0.216c0.936-0.19,1.873-0.37,2.814-0.528
		c-0.492,0.083-0.98,0.21-1.469,0.312c0.816-0.136,1.538-0.265,1.617-0.305c0,0,0,0,0,0c0.831,0.042,1.193,0.927,1.271,1.636
		c0.005,0.034,0.008,0.066,0.012,0.1c0.042,0.531,0.026,1.052-0.148,1.562c-0.446,1.505-2.385,1.637-3.665,1.848
		c-11.587,2.638-22.878,6.834-32.996,13.126c-9.57,5.951-17.926,13.743-24.436,22.95c-6.532,9.239-11.148,19.833-13.276,30.956
		c-3.116,10.978-3.516,23.004,0.01,33.949c-0.423,0.806-1.152,1-1.947,0.658c-0.021-0.004-0.054-0.017-0.119-0.049
		c-0.047-0.133-0.124-0.249-0.199-0.342C71.343,116.485,70.76,104.135,73.369,92.369z M70.567,203.992h38.528h0.001
		c-0.15,0.341-0.314,0.674-0.495,0.998h-0.219c-0.568-1.142-1.904-0.307-2.601-0.004c-0.011,0.005-0.016,0.008-0.028,0.014v-0.01
		H69.845C70.083,204.658,70.34,204.325,70.567,203.992z M68.52,206.777h34.528c-0.343,0.31-0.657,0.643-0.941,1.002h-0.002H67.778
		L68.52,206.777z M66.444,209.57h34.881c-0.043,0.323-0.028,0.682,0.047,1h-35.66H65.71L66.444,209.57z M64.388,212.359h35.489
		l-1.533,0.988H63.655h-0.002L64.388,212.359z M88.584,230.652c0,0,3.523-5.067,6.455-8.637
		C97.973,218.443,91.841,227.96,88.584,230.652z M62.379,215.143h33.092l-1.688,1h-32.1L62.379,215.143z M59.875,218.872
		C59.98,218.698,59.919,218.8,59.875,218.872L59.875,218.872z M59.845,218.921c0.204-0.337,0.413-0.669,0.628-1h30.129h0.002
		c-0.63,0.347-1.265,0.675-1.904,1h-0.002H59.845z M93.782,238.859c-0.07-0.281,0.571-0.808,0.722-1.02
		c0.544-0.766,1.094-1.527,1.648-2.285c1.272-1.739,2.532-3.491,3.924-5.138c0.167-0.223,0.573-1.01,0.91-0.975
		c-0.034-0.003-0.604,1.167-0.702,1.319c-0.797,1.424-1.873,2.746-2.848,4.051c-0.888,1.188-1.831,2.351-2.91,3.372
		C94.669,238.093,94.575,238.206,93.782,238.859z M98.169,241.773C98.438,241.552,98.565,241.447,98.169,241.773L98.169,241.773z
		 M104.639,233.602c-1.157,1.54-2.346,3.053-3.534,4.567c-1.173,1.494-2.332,3.107-3.808,4.321c0,0,0.004-0.006,0.004-0.008
		c2.659-3.47,5.238-7,7.875-10.487c1.329-1.757,2.661-3.511,4.005-5.256c0.473-0.614,0.98-1.211,1.416-1.854
		c0.39-0.576,0.769-1.326,1.361-1.722c0.051-0.03,0.101-0.06,0.152-0.09c0,0-0.188,0.342-0.159,0.313
		c-2.116,3.414-4.749,6.808-7.227,10.102C104.693,233.528,104.671,233.559,104.639,233.602z M106.02,242.842
		c0,0,11.495-15.419,14.427-18.988C123.38,220.281,109.277,240.165,106.02,242.842z M120.152,240.632
		c0,0,7.941-10.722,13.015-16.911C136.101,220.15,123.407,237.947,120.152,240.632z M148.087,266.19
		c0-0.002,0.001-0.003,0.001-0.006c0.006-0.024,0.014-0.062,0.024-0.107C148.1,266.136,148.092,266.171,148.087,266.19z
		 M148.146,265.919c-0.192,0.878-0.79,1.602-1.598,1.987c0.19-0.087,0.383-0.173,0.573-0.26c0.01-0.004,0.021-0.009,0.03-0.014
		c-0.208,0.083-0.412,0.188-0.616,0.28c-1.129,0.564-2.469,0.852-3.677,1.19c-0.11,0.003-0.196,0.003-0.266,0.002
		c-1.593,0.033-3.185,0.013-4.78-0.078c0.372-0.062,9.499-2.186,10.333-3.11C148.146,265.919,148.146,265.919,148.146,265.919z
		 M151.548,258.173c-0.318,0.604-0.794,1.051-1.422,1.322c0.141-0.065,0.282-0.13,0.424-0.193c0.001-0.001,0.006-0.003,0.007-0.003
		c0.002,0,0.004-0.001,0.005-0.002c0.004-0.002-0.007,0.003-0.012,0.005c-0.012,0.006-0.034,0.017-0.08,0.037
		c-0.009,0.005-0.018,0.009-0.027,0.013c0.276-0.125-0.484,0.312-0.316,0.144c-0.017,0.009-0.032,0.017-0.049,0.022
		c-0.007,0.002-0.011,0.004-0.017,0.006c-0.135,0.063-0.271,0.124-0.406,0.184c0.135-0.061,0.269-0.121,0.402-0.184
		c-6.997,3.149-14.958,2.48-22.118,5.07c-0.001,0-0.002,0.002-0.003,0.002c1.674-1.566,0.001,0,0,0
		c1.674-1.566,23.423-7.498,23.828-7.021C151.714,257.791,151.637,257.986,151.548,258.173
		C151.538,258.191,151.637,257.986,151.548,258.173z M168.768,257.826c-0.031,0.04-0.063,0.079-0.097,0.117
		c-0.259,0.277-0.612,0.527-0.941,0.718c-1.232,0.84-2.775,1.323-4.188,1.752c0.377-0.112,0.755-0.221,1.13-0.337
		c-0.836,0.259-1.68,0.489-2.515,0.752c0.759-0.232-0.442,0.129-0.48,0.14c-0.366,0.108-0.732,0.217-1.099,0.322
		c-0.734,0.212-1.471,0.414-2.213,0.593c-0.58,0.14-2.325,0.754-2.883,0.305c-0.102-0.013-0.137-0.09-0.041-0.273
		c2.57-0.957,10.697-5.477,13.33-4.16C168.789,257.769,168.785,257.794,168.768,257.826z M168.812,252.515
		c-1.512,0.6-3.208,0.965-4.794,1.321c-0.232,0.052-2.467,0.519-2.36,0.079c1.731-0.206,8.649-4.626,10.475-3.295
		c0.041,0.027,0.052,0.063,0.049,0.103C172.191,251.027,171.209,251.762,168.812,252.515z M175.295,243.959
		c-0.022,0.037-0.578,0.643-0.394,0.497c-0.081,0.064-0.161,0.132-0.24,0.199c0.054-0.045,0.107-0.09,0.161-0.135
		c-0.342,0.278-0.827,0.434-1.259,0.501c-0.005,0-0.01,0.001-0.015,0.002c-0.301,0.041-0.607,0.053-0.91,0.029
		c0.353-0.086,0.695-0.175,0.623-0.162c-1.596,0.206-3.391,1.292-5.017,1.129c-0.146,0.011-0.271-0.036-0.375-0.141
		c-0.076,0.03-0.126,0.017-0.148-0.041c-0.043-0.103,0.075-0.188,0.142-0.237c0.013-0.012,0.028-0.029,0.039-0.037
		c0.027-0.019,0.059-0.031,0.087-0.048c0.384-0.247,0.849-0.343,1.29-0.428c0.028-0.006-0.389,0.051-0.43,0.07
		c0.211-0.103,0.513-0.134,0.743-0.169c1.492-0.518,4.835-2.246,5.952-1.519C175.478,243.652,175.391,243.812,175.295,243.959z
		 M178.52,237.309c-0.357,0.197-0.936,0.132-1.304,0.059c-0.003,0-0.005-0.002-0.007-0.002c0.121-0.015,0.241-0.034,0.361-0.059
		c-0.101,0.027-0.333,0.038-0.43,0.049c-0.098,0.019-0.156,0.026-0.201,0.037c-1.039,0.191-2.274,0.476-2.862,0.467
		c-0.053,0.011-0.69,0.056-0.647-0.033c0.048-0.021,0.097-0.043,0.145-0.064c1.33-0.035,3.857-2.423,5.342-1.427
		C178.962,236.818,178.827,237.143,178.52,237.309z M185.703,257.564c-4.208,0.021-4.95-0.285-4.95-0.285s0,0,0.001-0.002
		c2.604-1.219-0.001,0.002,0,0c2.604-1.219,4.973-1.176,7.814-1.361c0,0,0,0,0.002,0
		C187.618,256.498,186.675,257.032,185.703,257.564z M195.846,248.826c-2.034,1.305-4.641,1.548-6.996,1.631
		c-0.027,0.001-0.055,0.002-0.082,0.002c-1.924,0.062-3.876,0.097-5.796-0.078c-0.008-0.001-0.017-0.002-0.024-0.002
		c-0.438-0.036-0.886-0.069-1.311-0.188c0.046-0.024,0.059-0.031,0.077-0.042c0.116-0.061-0.118,0.064-0.077,0.042
		c4.564-2.472,10.112-1.146,15.026-2.039C196.723,248.272,196.281,248.569,195.846,248.826z M200.797,199.43h-5.734
		c-1.047-0.189-2.008-0.554-2.865-0.998h9.99C201.73,198.779,201.242,199.111,200.797,199.43z M204.682,196.641h-15.045
		c-0.349-0.321-0.687-0.653-1.021-0.99h17.444L204.682,196.641z M217.318,224.898c-1.202,0.705-2.938,1.036-4.264,1.061
		c-0.978,0.204-4.454,0.951-4.783,0.738c-0.021,0.001-0.035-0.006-0.037-0.032c1.132-1.287,1.063-1.092,0.75-0.688
		c2.374-1.817,5.927-1.304,8.732-1.334C217.609,224.723,217.477,224.81,217.318,224.898z M222.825,216.098
		c-0.085,0.248-0.101,0.293-0.09,0.261C222.752,216.309,222.834,216.071,222.825,216.098c-0.1,0.289-0.294,0.556-0.515,0.764
		c-0.273,0.273-0.621,0.478-0.969,0.642c-1.875,1-4.208,0.964-6.255,1.304c0.208-0.029,0.416-0.054,0.625-0.074
		c-2.013,0.265-3.984,0.774-6.022,0.854c-0.356,0.047-0.73,0.086-1.088,0.029c-0.241-0.039-0.591-0.412-0.424-0.122
		c-0.05-0.087-0.114-0.175-0.127-0.277c3.098-3.492,10.87-1.136,14.809-3.238C222.85,216.016,222.839,216.055,222.825,216.098z
		 M229.931,203.894c-0.002,0.001-0.003,0.002-0.005,0.004c-1.564,1.267-3.288,2.321-5.152,3.085c-0.01,0.005-0.02,0.01-0.03,0.014
		c-5.302,2.161-11.153,1.482-16.321-0.73l-0.441-0.435l-0.004-0.004c0,0,5.777,2.073,12.174,0.592c0.002,0,0.004,0,0.006,0
		c0,0-2.213-0.446-4.012-1.19c-0.002,0-0.006-0.002-0.008-0.002c0,0,0.739-0.002,3.271-1.17c0.01-0.004,0.017-0.008,0.023-0.013
		c0,0-2.246,0.886-5.053-0.748c-0.002-0.001-0.003-0.002-0.005-0.004c0,0,3.865,0.446,6.524-1.033
		c0.002-0.002,0.006-0.003,0.011-0.005c-2.222,0.224-4.823,0.116-6.849-0.896c0,0,1.797,0.15,4.312-0.588
		c0.002,0,0.003-0.002,0.004-0.002c0,0-1.616-0.445-2.228-0.74c-0.002,0-0.002-0.002-0.002-0.002s1.033-0.6,1.797-0.895
		c0.002,0,0.002-0.001,0.004-0.001c-1.155-0.185-2.211-0.762-2.986-1.637c-0.001-0.001-0.003-0.002-0.004-0.005
		c0,0,4.615,0.297,6.846-1.637c0.541,0.762,0.19,1.546-0.59,1.934h0.004c0.021,0.002,1.791,0.143,2.822-0.15
		c0.229,0.792-0.024,1.638-0.741,2.084h0.002c0.013,0.002,2.076,0.151,3.415-0.589v0.002c-0.004,0.015-0.302,0.897-1.482,1.481
		c0,0,0.004,0.002,0.006,0.002c0.031,0.004,2.094,0.298,4.013-0.594c0.348,0.834,0.191,1.861-0.724,2.231h0.008
		c0.04-0.002,2.076-0.082,3.877-0.655C231.832,202.468,230.739,203.24,229.931,203.894z M239.139,191.027
		c-0.006,0.016-0.007,0.019-0.015,0.041h-0.001h-16.122c-0.182-0.352-0.407-0.691-0.667-0.99h0.002h17.12
		c-0.097,0.333-0.22,0.666-0.333,0.99C239.123,191.068,239.131,191.049,239.139,191.027z M240.057,188.295h-20.549
		c-1.48-0.434-2.953-0.434-4.428,0h-29.332c0-0.336-0.017-0.672,0-1.008h54.622L240.057,188.295z M240.932,185.507h-55.027
		c0.033-0.344,0.101-0.681,0.199-1.011h55.125C241.134,184.839,241.048,185.174,240.932,185.507z M241.752,182.717h-54.85H186.9
		c0.033-0.053,0.066-0.104,0.1-0.156c0,0.016-0.016,0.037-0.029,0.058c0.215-0.323,0.455-0.627,0.731-0.901h54.308L241.752,182.717z
		 M242.496,179.926v0.014h-51.859c0.901-0.254,1.776-0.59,2.627-1h49.469C242.664,179.271,242.591,179.594,242.496,179.926z
		 M243.18,177.146h-46.613c0.412-0.293,0.793-0.627,1.136-1h45.714C243.354,176.479,243.275,176.813,243.18,177.146z
		 M243.818,174.354H198.9c0.152-0.313,0.257-0.646,0.393-0.986h44.725h0.002C243.971,173.7,243.895,174.023,243.818,174.354z
		 M244.391,171.575v0.011h-44.689c0.064-0.335,0.113-0.669,0.15-1.008h44.728C244.521,170.909,244.465,171.243,244.391,171.575z
		 M244.912,168.793h-45.098c-0.037-0.333-0.076-0.666-0.133-0.999h45.403C245.027,168.127,244.991,168.452,244.912,168.793z
		 M245.4,166.014h-46.109l-0.273-1h46.518L245.4,166.014z M245.788,163.234h-47.384c-0.135-0.354-0.258-0.694-0.391-1h47.928
		L245.788,163.234z M246.163,160.438h-48.897c0.534-0.233,1.021-0.57,1.428-0.992h47.582h0.002L246.163,160.438z M246.458,157.663
		h-46.699c0.103-0.328,0.183-0.66,0.237-1h46.574L246.458,157.663z M246.715,154.873h-46.681c-0.021-0.331-0.075-0.666-0.114-0.998
		h46.871C246.77,154.207,246.752,154.553,246.715,154.873z M246.998,151.102c-0.037,0.33-0.037,0.66-0.059,0.98
		c0.002-0.002,0.004-0.033,0.006-0.068c0.002-0.019,0.004-0.039,0.005-0.054c-0.003,0.019-0.005,0.056-0.009,0.124h-0.002h-47.438
		c-0.112-0.354-0.222-0.695-0.354-0.99h0.002H247C247,151.096,247,151.1,246.998,151.102z M247.064,149.303H199.49
		c0.195-0.313,0.354-0.646,0.469-1h47.164L247.064,149.303z M247.18,146.523h-46.888c0.021-0.324,0-0.657-0.037-1h46.961
		C247.199,145.855,247.18,146.189,247.18,146.523z M247.244,143.604c-0.002,0.021-0.004,0.058-0.008,0.131v-0.01h-47.297
		c-0.037-0.334-0.058-0.656-0.058-1h47.374c0,0.344,0,0.666-0.02,1.01C247.236,143.734,247.241,143.645,247.244,143.604z"/>
	<path d="M112.806,142.681c0.076-0.052,0.134-0.092,0.168-0.115C112.933,142.594,112.872,142.636,112.806,142.681z"/>
	<path d="M105.157,232.911c0.265-0.352,0.415-0.551,0.479-0.637C105.55,232.389,105.355,232.647,105.157,232.911z"/>
	<path d="M229.96,203.87c0.085-0.069,0.165-0.134,0.189-0.153C230.133,203.729,230.071,203.779,229.96,203.87z"/>
	<path fill="none" stroke="#000000" stroke-width="0" stroke-linecap="round" stroke-linejoin="round" d="M105.668,232.231
		c-0.006,0.008-0.021,0.028-0.032,0.043"/>
	<path d="M104.651,233.585c0.024-0.032,0.049-0.064,0.073-0.097c0.068-0.091,0.128-0.171,0.188-0.249
		C104.798,233.39,104.701,233.519,104.651,233.585z"/>
	<path d="M104.911,233.239c0.077-0.104,0.161-0.215,0.246-0.328C105.085,233.008,105.001,233.119,104.911,233.239z"/>
	<path d="M246.998,151.102C246.961,151.432,247,151.1,246.998,151.102L246.998,151.102z"/>
	<path d="M247.254,140.894C247.236,140.576,247.242,140.685,247.254,140.894L247.254,140.894z"/>
	<path d="M249.192,136.925c0.001,0.048,0.006,0.219,0.017,0.603C249.216,137.751,249.195,137.023,249.192,136.925z"/>
	<path d="M107.215,221.644C107.21,221.651,107.36,221.429,107.215,221.644L107.215,221.644z"/>
	<polygon points="157.897,250.052 157.898,250.049 157.896,250.055 	"/>
	<path d="M98.121,195.047c-0.007-0.004-0.014-0.008-0.021-0.013c0.005,0.003,0.01,0.007,0.016,0.01
		C98.117,195.045,98.119,195.046,98.121,195.047z"/>
	<path d="M89.966,190.078C90.062,190.421,89.966,190.078,89.966,190.078L89.966,190.078z"/>
	<path d="M93.012,195.646c0.065,0.07,0.099,0.106,0.121,0.129C93.091,195.73,93.012,195.646,93.012,195.646z"/>
	<path d="M151.055,59.663C151,59.673,151.841,59.523,151.055,59.663L151.055,59.663z"/>
	<path d="M109.552,207.471C110.041,206.764,109.55,207.473,109.552,207.471L109.552,207.471z"/>
	<path fill="none" stroke="#000000" stroke-width="0" stroke-linecap="round" stroke-linejoin="round" d="M167.814,231.802
		c-0.014,0.003-0.02,0.005-0.037,0.009"/>
	<path fill="none" stroke="#000000" stroke-width="0" stroke-linecap="round" stroke-linejoin="round" d="M167.894,231.782
		c-0.016,0.004-0.049,0.012-0.079,0.02"/>
	<path d="M93.782,238.859c0.259-0.214,0.501-0.444,0.745-0.675C94.343,238.304,93.76,238.77,93.782,238.859z"/>
	<path fill="none" stroke="#000000" stroke-width="0" stroke-linecap="round" stroke-linejoin="round" d="M113.026,142.53
		c0.001-0.001-0.014,0.011-0.051,0.035"/>
	<path d="M154.822,22.159C154.822,22.159,154.983,22.182,154.822,22.159L154.822,22.159z"/>
	<path d="M169.031,58.192C169.105,58.182,169.277,58.155,169.031,58.192L169.031,58.192z"/>
	<path d="M243.057,106.528C243.122,106.851,243.057,106.528,243.057,106.528L243.057,106.528z"/>
	<path d="M162.518,53.841C162.746,53.812,162.593,53.831,162.518,53.841L162.518,53.841z"/>
	<path d="M97.477,194.662c-0.158-0.096-0.197-0.118-0.115-0.069C97.4,194.616,97.438,194.639,97.477,194.662z"/>
	<path d="M186.378,90.169C186.289,90.165,186.427,90.175,186.378,90.169L186.378,90.169z"/>
	<path d="M236.075,85.108c0.012,0.023,0.018,0.037,0.04,0.085C236.109,85.179,236.092,85.143,236.075,85.108
		C236.076,85.109,236.076,85.109,236.075,85.108z"/>
	<path d="M215.976,51.771c0.007,0.007,0.013,0.014,0.021,0.023c-0.006-0.007-0.015-0.016-0.021-0.024
		c-0.004-0.004-0.008-0.009-0.012-0.013c0.003,0.003,0.007,0.008,0.01,0.012c-0.004-0.004-0.007-0.007-0.011-0.012
		c-0.036-0.042-0.07-0.08-0.066-0.074c-0.014-0.015-0.011-0.012,0,0c0.005,0.005,0.023,0.027,0.091,0.102
		C215.982,51.78,215.979,51.775,215.976,51.771z"/>
	<path d="M89.489,187.305c0-0.003,0-0.003,0-0.004c0.001,0.016,0.002,0.027,0.003,0.038
		C89.491,187.327,89.49,187.312,89.489,187.305z"/>
	<path d="M89.497,187.395c0-0.004-0.001-0.011-0.001-0.016c0,0.005,0.001,0.009,0.001,0.014c0-0.007-0.002-0.021-0.002-0.028
		c0,0.002,0,0.004,0,0.007c0-0.006-0.001-0.01-0.001-0.016c0-0.005-0.001-0.012-0.001-0.017c0.001,0.012,0.002,0.021,0.003,0.034
		C89.496,187.381,89.497,187.388,89.497,187.395z"/>
	<path d="M89.488,187.289c0,0,0,0.004,0,0.007c0,0.002,0,0.004,0,0.005c0-0.001,0-0.002,0-0.003c0,0.002,0,0.004,0,0.005
		c0-0.006-0.001-0.009-0.001-0.016c0,0,0,0.003,0,0.005C89.488,187.291,89.488,187.291,89.488,187.289z"/>
	<path d="M217.949,42.073c0.09,0.101,0.308,0.344,0.629,0.702C218.253,42.412,218.038,42.172,217.949,42.073z"/>
	<path d="M254.947,133.071c-0.511-9.282-1.828-18.52-3.958-27.569c-5.385-22.877-16.087-44.592-31.854-62.104
		c-10.234-11.367-22.67-20.8-36.558-27.25c-1.379-0.579-2.774-1.134-4.11-1.788c0.767,0.366,1.573,0.636,2.348,0.983
		c-0.808-0.356-1.622-0.698-2.438-1.032c-0.225-0.108-0.443-0.227-0.657-0.356c0.21,0.128,0.427,0.246,0.648,0.353
		c-11.466-4.693-23.809-7.268-36.211-7.219c-12.36,0.049-24.636,2.651-36.05,7.364c-20.617,8.513-38.216,23.539-51.237,41.52
		c-13.955,19.27-22.309,41.909-25.305,65.455c-3.138,24.665-0.62,50.188,7.693,73.644c7.616,21.49,20.307,41.342,37.702,56.217
		c16.645,14.232,37.537,23.628,59.522,24.927c23.49,1.388,46.92-6.256,66.027-19.761c18.36-12.979,32.589-31.088,41.675-51.593
		C252.113,182.451,256.291,157.505,254.947,133.071z M252.789,143.688C252.789,143.688,252.789,143.688,252.789,143.688
		c-0.293,24.278-6.135,48.318-17.512,69.791c-11.243,21.22-28.287,39.165-49.67,50.249c-21.232,11.008-46.958,14.046-69.956,7.175
		c-23.554-7.036-43.853-22.466-58.125-42.37c-14.052-19.598-22.797-42.822-25.736-66.738c-2.884-23.466-0.559-47.21,6.919-69.638
		c7.313-21.93,20.364-42.777,38.327-57.519c9.232-7.576,19.522-13.709,30.742-17.847c11.35-4.174,23.348-6.249,35.436-6.213
		c24.648,0.072,48.478,10.202,66.568,26.763c1.908,1.747,3.764,3.564,5.542,5.443c16.748,17.835,27.795,40.012,33.452,63.717
		C251.672,118.629,252.938,131.226,252.789,143.688c0-0.033,0.001-0.063,0.001-0.092C252.79,143.624,252.79,143.642,252.789,143.688
		z"/>
	<path d="M252.13,110.346c0.081,0.345,0.133,0.565,0.154,0.655C252.262,110.906,252.207,110.675,252.13,110.346z"/>
	<path d="M251.033,105.687c0.38,1.616,0.756,3.214,0.998,4.24C251.832,109.083,251.513,107.724,251.033,105.687z"/>
	<path d="M249.71,100.064c0.077,0.332,0.446,1.899,1.279,5.438c0.016,0.064,0.028,0.122,0.044,0.185
		C250.43,103.125,249.816,100.516,249.71,100.064z"/>
	<path fill="none" stroke="#000000" stroke-width="0" stroke-linecap="round" stroke-linejoin="round" d="M252.031,109.927
		c0.036,0.154,0.068,0.293,0.099,0.419"/>
	<path fill="none" stroke="#000000" stroke-width="0" stroke-linecap="round" stroke-linejoin="round" d="M252.284,111.001
		c0.007,0.033,0.012,0.05,0.012,0.051"/>
	<path d="M181.867,15.813c0.238,0.108,0.473,0.225,0.71,0.335c0.015,0.006,0.03,0.012,0.045,0.019
		C182.37,16.047,182.118,15.925,181.867,15.813z"/>
	<path d="M182.622,16.167c0.455,0.217,0.913,0.431,1.382,0.597C183.547,16.559,183.086,16.362,182.622,16.167z"/>
	<path d="M184.875,17.131C184.734,17.021,184.724,17.022,184.875,17.131L184.875,17.131z"/>
	<path d="M184.875,17.131c-0.067-0.053-0.226-0.123-0.393-0.188C184.621,16.993,184.759,17.047,184.875,17.131z"/>
</g>
</svg>
