<?xml version="1.0" encoding="utf-8"?>
<!-- Generator: Adobe Illustrator 15.1.0, SVG Export Plug-In . SVG Version: 6.00 Build 0)  -->
<!DOCTYPE svg PUBLIC "-//W3C//DTD SVG 1.1//EN" "http://www.w3.org/Graphics/SVG/1.1/DTD/svg11.dtd">
<svg version="1.1" id="Layer_1" xmlns="http://www.w3.org/2000/svg" xmlns:xlink="http://www.w3.org/1999/xlink" x="0px" y="0px"
	 width="283.465px" height="283.465px" viewBox="1093.768 1108.268 283.465 283.465"
	 enable-background="new 1093.768 1108.268 283.465 283.465" xml:space="preserve">
<path fill="#1A1918" d="M1236.27,1116.322c-70.093,0-127.513,54.54-132.966,123.845l71.514,29.838
	c6.244-4.322,13.661-6.634,21.255-6.624c0.71,0,1.411,0.02,2.102,0.058l31.807-46.524v-0.652c0-27.995,22.57-50.776,50.316-50.776
	c27.744,0,50.314,22.781,50.314,50.776c0,27.994-22.57,50.786-50.314,50.786c-0.385,0-0.76-0.01-1.143-0.019l-45.363,32.65
	c0.029,0.605,0.048,1.21,0.048,1.806c0,21.023-16.944,38.123-37.768,38.123c-18.279,0-33.573-13.172-37.028-30.606l-51.151-21.342
	c15.841,56.518,67.298,97.953,128.376,97.953c73.693,0,133.427-60.29,133.427-134.646
	C1369.696,1176.603,1309.963,1116.322,1236.27,1116.322z M1186.918,1320.624l-16.389-6.835c2.9,6.105,7.931,11.213,14.603,14.017
	c14.42,6.066,31.047-0.835,37.058-15.399c2.91-7.003,2.927-14.874,0.048-21.889c-2.88-7.066-8.324-12.577-15.303-15.515
	c-6.941-2.908-14.372-2.804-20.9-0.316l16.936,7.065c10.637,4.475,15.667,16.801,11.232,27.534
	C1209.776,1320.02,1197.555,1325.099,1186.918,1320.624L1186.918,1320.624z M1313.825,1216.262c0-18.652-15.044-33.84-33.524-33.84
	c-18.49,0-33.534,15.188-33.534,33.84c0,18.654,15.044,33.832,33.534,33.832C1298.781,1250.094,1313.825,1234.916,1313.825,1216.262
	z M1255.167,1216.205c0-14.036,11.28-25.411,25.183-25.411c13.911,0,25.19,11.375,25.19,25.411s-11.279,25.413-25.191,25.413
	C1266.447,1241.618,1255.166,1230.241,1255.167,1216.205L1255.167,1216.205z"/>
</svg>
