<?xml version="1.0" encoding="utf-8"?>
<!-- Generator: Adobe Illustrator 15.1.0, SVG Export Plug-In . SVG Version: 6.00 Build 0)  -->
<!DOCTYPE svg PUBLIC "-//W3C//DTD SVG 1.1//EN" "http://www.w3.org/Graphics/SVG/1.1/DTD/svg11.dtd">
<svg version="1.1" id="Layer_1" xmlns="http://www.w3.org/2000/svg" xmlns:xlink="http://www.w3.org/1999/xlink" x="0px" y="0px"
	 width="283.465px" height="283.465px" viewBox="0 0 283.465 283.465" enable-background="new 0 0 283.465 283.465"
	 xml:space="preserve">
<g>
	<path fill="#1A1A1A" d="M58.225,102.256l-11.32,51.139c-0.75,3.43-4.039,7.168-7.33,7.168H7.088l14.248-63.385h31.693
		C57.371,97.178,58.637,100.504,58.225,102.256z M33.451,110.934l-8.082,36.479h7.33l7.928-36.484h-7.176 M64.43,97.178h13.684
		l-2.172,10.164H62.186L64.43,97.178 M61.295,110.934l-11.07,49.629h13.83l10.988-49.629H61.295 M96.445,182.695
		c-0.109,1.686-1.098,3.592-4.395,3.592H68.285c-4.336,0-3.996-6.248-3.4-8.824l2.656-11.813h14.354l-2.539,11.664h5.381
		l3.738-16.744H72.768c-2.098,0-3.738-1.795-2.318-4.557l9.273-41.827c0,0,0.824-3.253,2.77-3.253h30.035L96.445,182.695
		L96.445,182.695z M97.285,121.694h-5.381l-5.719,25.718h5.379L97.285,121.694 M121.051,97.178h14.801l-2.164,10.164h-14.875
		L121.051,97.178 M117.916,110.934l-10.99,49.629h14.949l10.988-49.629H117.916 M134.211,127.074h13.307l-3.592,16.746h-13.49
		L134.211,127.074 M176.523,97.178h-17.348l-14.051,63.385h17.34l4.041-17.936l10.018,17.936h17.635l-16.141-32.288l31.096-31.097
		h-20.336l-15.25,13.756L176.523,97.178"/>
	<path fill="#1A1A1A" d="M235.455,117.396l-5.939,26.425h-19.039l-0.766,3.592h19.135l-1.566,6.873c0,0-3.512,6.277-7.396,6.277
		h-19.137c0,0-5.682-0.896-6.131-7.176c0,0,8.223-36.559,8.332-37.676c0.117-1.119,2.281-4.785,5.57-4.785h21.234
		C233.926,110.934,235.986,115.151,235.455,117.396L235.455,117.396z M220.771,121.657l-5.381,0.037l-3.664,16.744h5.453
		L220.771,121.657 M256.807,110.934h-15.104l-9.311,41.977c-0.752,3.361,1.531,7.66,4.371,7.66h14.242l-3.775,16.744h-5.328
		l2.574-11.664h-15.043l-2.48,11.664c-0.949,4.336,2.188,8.973,6.072,8.973h21.822c3.738,0,6.057-6.131,6.729-8.973
		c0.678-2.842,14.801-66.381,14.801-66.381H262.01l-8.051,36.484h-5.381L256.807,110.934"/>
</g>
</svg>
