<?xml version="1.0" encoding="utf-8"?>
<!-- Generator: Adobe Illustrator 15.1.0, SVG Export Plug-In . SVG Version: 6.00 Build 0)  -->
<!DOCTYPE svg PUBLIC "-//W3C//DTD SVG 1.1//EN" "http://www.w3.org/Graphics/SVG/1.1/DTD/svg11.dtd">
<svg version="1.1" id="Layer_2" xmlns="http://www.w3.org/2000/svg" xmlns:xlink="http://www.w3.org/1999/xlink" x="0px" y="0px"
	 width="283.465px" height="283.465px" viewBox="0 0 283.465 283.465" enable-background="new 0 0 283.465 283.465"
	 xml:space="preserve">
<g>
	<g>
		<path d="M270.494,122.605c-0.041-0.28-0.273-0.482-0.555-0.482H150.688c-0.31,0-0.561,0.252-0.561,0.562v41.372
			c0,0.311,0.251,0.563,0.561,0.563h72.232c0.757,0,1.468,0.334,1.95,0.917c0.479,0.577,0.676,1.337,0.536,2.082l-0.696,3.673
			c-2.962,15.637-11.34,29.968-23.592,40.354c-0.13,0.11-0.202,0.271-0.198,0.441c0.003,0.167,0.083,0.324,0.217,0.428
			l34.412,26.698c0.126,0.099,0.255,0.119,0.342,0.119c0.089,0,0.259-0.021,0.404-0.168c23.092-23.394,35.811-56.877,35.811-94.277
			C272.105,137.417,271.563,129.92,270.494,122.605z"/>
	</g>
	<g>
		<path d="M191.287,219.103c-0.025-0.021-0.06-0.04-0.1-0.058c-0.051-0.011-0.104-0.021-0.125-0.026
			c-0.03-0.008-0.073-0.02-0.116-0.024c-0.017,0.002-0.053,0.009-0.09,0.015c-0.018,0.003-0.064,0.008-0.105,0.013
			c-0.044,0.015-0.071,0.028-0.088,0.038c-13.188,7.806-29.147,11.931-46.158,11.931c-17.669,0-34.737-5.409-49.36-15.645
			c-13.411-9.386-24.015-22.361-30.665-37.524c-0.068-0.155-0.208-0.273-0.373-0.315c-0.023-0.006-0.048-0.012-0.077-0.015
			c-0.078,0.007-0.129,0.004-0.214,0.029c-0.153,0.054-0.187,0.079-0.188,0.08l-3.648,2.793l-31.86,24.817
			c-0.219,0.17-0.28,0.471-0.146,0.714c23.431,42.532,68.084,68.953,116.533,68.953c31.934,0,60.439-9.418,82.437-27.237
			c0.134-0.108,0.21-0.27,0.208-0.44c-0.002-0.173-0.081-0.334-0.216-0.438L191.287,219.103z"/>
	</g>
	<g>
		<path d="M59.96,166.246c0.184-0.141,0.262-0.376,0.199-0.599c-2.254-7.978-3.397-16.024-3.397-23.915
			c0-7.913,1.146-15.969,3.406-23.946c0.063-0.221-0.014-0.455-0.195-0.596L23.267,88.703c-0.006-0.005-0.045-0.032-0.152-0.073
			c-0.091-0.026-0.138-0.035-0.18-0.037c-0.021,0-0.046-0.002-0.072-0.004c-0.024,0.002-0.047,0.006-0.068,0.012
			c-0.178,0.045-0.314,0.161-0.384,0.32c-7.333,16.718-11.051,34.486-11.051,52.813c0,18.325,3.716,36.085,11.044,52.791
			c0.069,0.157,0.209,0.276,0.375,0.317c0.181,0.045,0.351,0.002,0.485-0.103l29.841-23.247L59.96,166.246z"/>
	</g>
	<g>
		<path d="M63.684,105.835c0.137,0.107,0.313,0.144,0.484,0.102c0.166-0.042,0.303-0.158,0.372-0.316
			c14.176-32.213,45.563-53.026,79.965-53.026c19.634,0,37.779,6.323,52.475,18.287c0.002,0.001,0.09,0.059,0.092,0.06l0.105,0.043
			l0.115,0.015c0.008-0.001,0.115-0.004,0.124-0.005c0.001,0,0.102-0.025,0.103-0.025c0.002,0,0.018-0.006,0.037-0.012
			c0.034-0.02,0.083-0.047,0.094-0.053c0.016-0.008,0.013-0.005,0.01-0.003c0.037-0.026,0.06-0.044,0.069-0.054l31.009-31.013
			c0.11-0.111,0.171-0.265,0.164-0.421c-0.006-0.154-0.079-0.302-0.2-0.405c-23.505-19.901-52.62-30.42-84.195-30.42
			c-48.43,0-93.063,26.428-116.485,68.972c-0.134,0.244-0.072,0.543,0.146,0.712L63.684,105.835z"/>
	</g>
</g>
</svg>
