<?xml version="1.0" encoding="utf-8"?>
<!-- Generator: Adobe Illustrator 15.1.0, SVG Export Plug-In . SVG Version: 6.00 Build 0)  -->
<!DOCTYPE svg PUBLIC "-//W3C//DTD SVG 1.1//EN" "http://www.w3.org/Graphics/SVG/1.1/DTD/svg11.dtd">
<svg version="1.1" id="Layer_1" xmlns="http://www.w3.org/2000/svg" xmlns:xlink="http://www.w3.org/1999/xlink" x="0px" y="0px"
	 width="283.465px" height="283.465px" viewBox="0 0 283.465 283.465" enable-background="new 0 0 283.465 283.465"
	 xml:space="preserve">
<g>
	<path d="M27.697,220.249c58.09-24.895,139.598-47.461,247.547-24.865l1.133-27.381c-113.893-12.436-195.615,23.84-248.68,49.547
		V220.249L27.697,220.249z"/>
	<path d="M88.443,148.05l25.176-83.014h22.465l-25.18,83.014H88.443L88.443,148.05z M78.4,65.06l-20.207,35.188
		c-5.145,9.217-8.15,13.873-9.598,19.697h-0.307c0.357-7.385-0.672-16.449-0.77-21.572l-2.23-33.313H7.475l-0.387,2.232
		c9.715,0,15.475,4.881,17.061,14.861l7.371,65.896h23.271l47.057-82.99H78.4L78.4,65.06z M253.096,148.05l-0.621-12.346
		l-28.049-0.023l-5.738,12.369h-24.387l44.221-82.855h29.936l7.488,82.855H253.096L253.096,148.05L253.096,148.05z M250.52,99.083
		c-0.25-6.135-0.459-14.463-0.041-19.502h-0.332c-1.365,4.121-7.238,16.496-9.822,22.584l-8.355,18.195h19.693L250.52,99.083
		L250.52,99.083z M159.668,150.409c-15.861,0-26.385-5.031-33.9-9.516l10.701-16.344c6.746,3.771,12.043,8.127,24.229,8.127
		c3.918,0,7.693-1.02,9.838-4.73c3.125-5.4-0.721-8.305-9.496-13.271l-4.332-2.818c-13.01-8.889-18.637-17.332-12.512-32.068
		c3.918-9.428,14.252-16.572,31.303-16.572c11.758,0,22.781,5.086,29.207,10.055L192.4,87.698
		c-6.268-5.068-11.463-7.633-17.41-7.633c-4.74,0-8.342,1.828-9.584,4.293c-2.34,4.637,0.756,7.797,7.592,12.041l5.152,3.277
		c15.793,9.961,19.557,20.406,15.598,30.172C186.941,146.655,173.611,150.409,159.668,150.409L159.668,150.409z"/>
</g>
</svg>
