<?xml version="1.0" encoding="utf-8"?>
<!-- Generator: Adobe Illustrator 15.1.0, SVG Export Plug-In . SVG Version: 6.00 Build 0)  -->
<!DOCTYPE svg PUBLIC "-//W3C//DTD SVG 1.1//EN" "http://www.w3.org/Graphics/SVG/1.1/DTD/svg11.dtd">
<svg version="1.1" id="Layer_1" xmlns="http://www.w3.org/2000/svg" xmlns:xlink="http://www.w3.org/1999/xlink" x="0px" y="0px"
	 width="283.465px" height="283.465px" viewBox="0 0 283.465 283.465" enable-background="new 0 0 283.465 283.465"
	 xml:space="preserve">
<g>
	<path fill="#16161A" d="M260.787,92.126h-69.448V22.679c0-8.599-6.997-15.592-15.592-15.592H22.679
		c-8.599,0-15.592,6.993-15.592,15.592v153.068c0,8.595,6.993,15.592,15.592,15.592h69.447v69.447
		c0,8.596,6.993,15.592,15.592,15.592h153.068c8.596,0,15.592-6.996,15.592-15.592V107.718
		C276.38,99.119,269.382,92.126,260.787,92.126z M262.206,260.786c0,0.781-0.637,1.419-1.419,1.419H107.719
		c-0.781,0-1.419-0.638-1.419-1.419v-76.534c0-3.917-3.173-7.087-7.086-7.087H22.68c-0.781,0-1.419-0.638-1.419-1.418V22.678
		c0-0.782,0.638-1.419,1.419-1.419h153.068c0.781,0,1.418,0.637,1.418,1.419v76.534c0,3.914,3.17,7.086,7.087,7.086h76.534
		c0.782,0,1.419,0.637,1.419,1.419V260.786L262.206,260.786z"/>
	<path fill="#16161A" d="M111.754,108.669c4.471-1.226,8.408-3.111,11.811-5.654c3.404-2.543,6.076-5.792,8.021-9.748
		c2.042-3.955,3.063-8.62,3.063-13.99c0-5.557-0.974-10.222-2.917-13.985c-1.945-3.862-4.616-6.924-8.019-9.188
		c-3.308-2.353-7.246-4.004-11.813-4.944c-4.472-1.035-9.284-1.555-14.437-1.555H70.868c-3.914,0-7.086,3.173-7.086,7.086v77.953
		c0,3.914,3.173,7.086,7.086,7.086h7.263c3.914,0,7.086-3.173,7.086-7.086v-17.051c0-3.914,3.17-7.087,7.087-7.087h5.159
		C102.519,110.506,107.283,109.894,111.754,108.669z M92.303,93.973c-3.917,0-7.087-3.173-7.087-7.086V73.226
		c0-3.914,3.17-7.086,7.087-7.086h3.849c5.736,0,10.063,0.986,12.979,2.965c3.011,1.979,4.52,5.37,4.52,10.173
		c0,9.796-5.834,14.695-17.499,14.695H92.303z"/>
	<path fill="#16161A" d="M199.354,185.166c-0.166-0.035-0.291-0.182-0.291-0.348c0-0.158,0.11-0.305,0.271-0.339
		c2.692-0.657,5.024-1.675,6.996-3.038c2.028-1.419,3.724-3.018,5.08-4.81c1.356-1.793,2.325-3.717,2.906-5.793
		c0.679-2.076,1.011-4.146,1.011-6.215c0-4.43-0.913-8.104-2.754-11.023c-1.744-2.921-4.167-5.272-7.268-7.065
		c-3.094-1.789-6.769-3.015-11.03-3.672c-4.167-0.755-8.713-1.132-13.647-1.132h-24.721c-3.917,0-7.086,3.173-7.086,7.087v77.952
		c0,3.917,3.169,7.087,7.086,7.087h27.475c5.136,0,9.876-0.519,14.229-1.55c4.457-1.136,8.333-2.782,11.62-4.948
		c3.294-2.264,5.86-5.087,7.702-8.478c1.834-3.393,2.755-7.447,2.755-12.153c0-6.214-1.744-11.072-5.232-14.554
		C211.021,188.735,205.983,186.396,199.354,185.166z M170.163,165.067c0-3.917,3.177-7.087,7.086-7.087h2.506
		c5.031,0,8.706,0.755,11.031,2.257c2.422,1.411,3.633,3.819,3.633,7.211c0,3.578-1.162,6.354-3.486,8.332
		c-2.318,1.979-6.099,2.977-11.329,2.977h-2.354c-3.909,0-7.086-3.176-7.086-7.086V165.067z M181.636,217.608h-4.388
		c-3.909,0-7.086-3.17-7.086-7.087v-9.703c0-3.917,3.177-7.086,7.086-7.086h4.388c5.91,0,10.216,0.894,12.929,2.686
		c2.81,1.786,4.208,4.706,4.208,8.762C198.772,213.463,193.063,217.608,181.636,217.608z"/>
</g>
</svg>
