<?xml version="1.0" encoding="utf-8"?>
<!-- Generator: Adobe Illustrator 15.1.0, SVG Export Plug-In . SVG Version: 6.00 Build 0)  -->
<!DOCTYPE svg PUBLIC "-//W3C//DTD SVG 1.1//EN" "http://www.w3.org/Graphics/SVG/1.1/DTD/svg11.dtd">
<svg version="1.1" id="Layer_1" xmlns="http://www.w3.org/2000/svg" xmlns:xlink="http://www.w3.org/1999/xlink" x="0px" y="0px"
	 width="283.465px" height="283.465px" viewBox="0 0 283.465 283.465" enable-background="new 0 0 283.465 283.465"
	 xml:space="preserve">
<path d="M257.1,117.286c6.092-18.343,3.982-38.423-5.785-55.102c-14.688-25.567-44.213-38.72-73.045-32.541
	c-25.127-27.951-68.154-30.239-96.105-5.111c-8.869,7.974-15.488,18.14-19.191,29.477c-18.939,3.884-35.285,15.743-44.855,32.542
	c-14.85,25.526-11.48,57.727,8.334,79.625c-6.113,18.337-4.025,38.419,5.732,55.102c14.707,25.577,44.248,38.728,73.098,32.542
	c12.832,14.449,31.266,22.67,50.59,22.559c29.551,0.028,55.734-19.049,64.76-47.188c18.938-3.893,35.281-15.748,44.855-32.542
	C280.158,171.166,276.771,139.139,257.1,117.286L257.1,117.286z M155.869,258.755c-11.795,0.02-23.223-4.113-32.273-11.676
	l1.592-0.904l53.613-30.947c2.715-1.594,4.391-4.498,4.408-7.646V131.99l22.666,13.113c0.227,0.114,0.385,0.333,0.426,0.585v62.64
	c-0.059,27.828-22.604,50.371-50.432,50.432V258.755L155.869,258.755z M47.473,212.468c-5.916-10.217-8.041-22.189-6-33.815
	l1.592,0.955l53.668,30.946c2.705,1.588,6.057,1.588,8.76,0l65.559-37.794v26.17c-0.014,0.274-0.148,0.53-0.371,0.69l-54.305,31.319
	C92.242,244.841,61.414,236.575,47.473,212.468L47.473,212.468z M33.35,95.684c5.957-10.28,15.359-18.122,26.543-22.136v63.699
	c-0.043,3.135,1.627,6.045,4.354,7.591l65.24,37.639l-22.666,13.111c-0.25,0.133-0.549,0.133-0.799,0L51.824,164.32
	C27.74,150.36,19.48,119.553,33.35,95.418V95.684L33.35,95.684z M219.57,138.946l-65.451-38.008L176.73,87.88
	c0.248-0.133,0.549-0.133,0.797,0l54.199,31.318c24.123,13.922,32.395,44.764,18.471,68.886
	c-5.859,10.155-15.076,17.952-26.063,22.05V146.43c-0.096-3.126-1.83-5.971-4.564-7.486V138.946z M242.131,105.025l-1.592-0.955
	l-53.563-31.213c-2.721-1.597-6.092-1.597-8.813,0l-65.506,37.793V84.479c-0.027-0.27,0.096-0.534,0.318-0.688l54.199-31.268
	c24.158-13.917,55.025-5.616,68.943,18.544c5.877,10.204,8.004,22.141,6.012,33.746V105.025L242.131,105.025z M100.289,151.421
	l-22.666-13.059c-0.229-0.139-0.385-0.373-0.424-0.637V75.244c0.035-27.881,22.668-50.454,50.549-50.416
	c11.768,0.015,23.16,4.141,32.207,11.664l-1.592,0.903L104.75,68.343c-2.715,1.592-4.391,4.497-4.408,7.644L100.289,151.421z
	 M112.605,124.878l29.197-16.827l29.248,16.827v33.655l-29.143,16.828l-29.248-16.828l-0.053-33.655H112.605L112.605,124.878z"/>
</svg>
