<?xml version="1.0" encoding="utf-8"?>
<!-- Generator: Adobe Illustrator 15.1.0, SVG Export Plug-In . SVG Version: 6.00 Build 0)  -->
<!DOCTYPE svg PUBLIC "-//W3C//DTD SVG 1.1//EN" "http://www.w3.org/Graphics/SVG/1.1/DTD/svg11.dtd">
<svg version="1.1" id="Layer_1" xmlns="http://www.w3.org/2000/svg" xmlns:xlink="http://www.w3.org/1999/xlink" x="0px" y="0px"
	 width="283.465px" height="283.465px" viewBox="0 0 283.465 283.465" enable-background="new 0 0 283.465 283.465"
	 xml:space="preserve">
<g>
	<polygon points="51.562,128.043 50.302,142.156 52.976,142.156 51.919,128.043 	"/>
	<path d="M117.011,98.07h4.586c1.396,0,1.928-0.93,1.928-2.061V78.996c0-1.463-1.064-1.861-1.994-1.463l-5.051,1.994
		c-1.33,0.666-1.463,1.596-1.465,3.057v13.559C115.015,97.338,115.548,98.07,117.011,98.07z"/>
	<path d="M196.923,127.143h-1.275v24.873h1.275c1.377,0,2.041-0.355,2.041-2.705v-19.463
		C198.964,127.5,198.3,127.143,196.923,127.143z"/>
	<path d="M231.923,126.563c-1.123,0-2.215,0.41-2.215,2.246v21.346c0,1.836,1.092,2.244,2.215,2.244
		c1.121,0,2.217-0.408,2.217-2.244v-21.346C234.14,126.971,233.044,126.563,231.923,126.563z"/>
	<path d="M168.317,79.527l-5.053-1.994c-0.932-0.398-1.994,0-1.994,1.463V96.01c0,1.131,0.531,2.061,1.93,2.061h4.586
		c1.461,0,1.992-0.73,1.992-1.928V82.584l0,0C169.778,81.123,169.647,80.193,168.317,79.527z"/>
	<path d="M140.3,127.143h-1.277v24.873h1.277c1.377,0,2.041-0.355,2.041-2.705v-19.463C142.341,127.5,141.679,127.143,140.3,127.143
		z"/>
	<polygon points="157.101,128.043 155.837,142.156 158.515,142.156 157.456,128.043 	"/>
	<path d="M69.577,126.412h-2.139v10.652h1.881c1.889,0,2.297-1.619,2.297-2.945v-5.455
		C71.618,127.287,70.802,126.412,69.577,126.412z"/>
	<path d="M276.378,104.438h-57.176c0.361-6.158,5.463-10.965,11.633-10.961V67.912c-52.814-1.848-77.533-19.082-88.91-27.797
		c-11.377,8.717-36.164,25.951-88.98,27.797v25.564c6.17-0.008,11.271,4.801,11.633,10.961H7.087v70.682h53.432
		c0,2.258-1.195,8.949-15.551,10.545c9.836,9.037,67.184,57.686,96.957,57.686s87.268-48.646,97.104-57.686
		c-13.426-1.465-15.553-7.355-15.553-10.545h52.902V104.438L276.378,104.438z M58.78,89.109l0.01-15.945
		c47.797-2.479,71.385-16.822,83.135-25.637c12.602,8.939,35.268,23.156,83.064,25.637l-0.025,15.945
		c-6.502,2.346-11.195,8.066-11.416,15.328h-5.736c0.188-8.221,4.68-14.963,11.313-18.889l0.018-7.223
		c-38.594-2.719-63.795-14.682-77.217-23.916c-11.721,8.605-35.281,20.133-77.283,23.916l0.018,7.223
		c6.631,3.926,11.125,10.666,11.311,18.889h-5.738C70.013,97.176,65.284,91.455,58.78,89.109z M202.61,97.938L202.61,97.938v6.5
		h-6.246v-5.104c0-1.596-1.93-2.326-2.791-2.326h-5.982v7.43h-6.246V77.002l15.02,3.125c2.127,0.465,6.248,1.861,6.248,5.98v4.453
		c0,1.594-0.201,2.99-2.193,3.986C201.349,95.08,202.61,96.873,202.61,97.938z M169.448,104.438h-8.176
		c-2.727,0-6.248-1.449-6.248-6.367V73.613c0-2.922,2.992-4.785,6.314-3.588l10.898,4.188c2.658,1.063,3.854,3.389,3.787,7.377
		v16.748C176.093,100.396,174.896,104.438,169.448,104.438z M130.569,73.945v-6.912l11.357-6.178l11.902,6.512v6.912l-8.24-4.453
		v34.611h-6.777V69.426L130.569,73.945z M112.558,74.211l10.898-4.186c3.324-1.197,6.314,0.664,6.314,3.588V98.07
		c0,4.918-3.523,6.365-6.248,6.365h-8.174c-5.451,0-6.646-4.041-6.58-6.1V81.588C108.704,77.602,109.899,75.273,112.558,74.211z
		 M93.95,104.438l-5.119-10.951v10.951h-6.248V81.389l6.248-1.131l4.918,10.502l5.449-12.693l5.848-1.529v27.898H98.8V93.084
		L93.95,104.438z M225.739,188.057c-15.684,15.949-63.078,49.18-83.813,49.18c-20.736,0-67.98-33.23-83.666-49.18
		c8.107-3.59,9.438-8.816,9.969-12.938h6.514c-0.398,3.855-1.197,10.012-6.514,13.734c6.115,5.85,51.896,42.535,73.697,42.535
		c21.797,0,67.729-36.686,73.844-42.535c-5.316-3.723-6.115-9.879-6.514-13.734h6.514
		C216.302,179.238,217.63,184.467,225.739,188.057z M88.261,191.764c0.355,0.236,14.387,11.178,14.387,11.178v6.66
		c0,0-19.738-14.746-20.332-15.104c-0.715-0.475-1.666-2.139-1.904-3.328c-0.236-1.188,0-10.703,0-11.771
		c0-1.07,1.189-4.277,2.854-4.277h15.34v6.299h-9.156c-1.428-0.121-2.258,0.355-2.258,1.662v7.018
		C87.19,190.574,87.784,191.525,88.261,191.764z M102.284,175.119h6.422l3.449,10.703l5.588-10.703h6.064l-8.68,18.789v22.475
		c0,1.068-6.064-2.26-6.182-3.092c-0.24-0.832,0-19.621,0-19.621L102.284,175.119z M132.263,215.885L132.263,215.885
		c0.357,0.715,8.205,4.4,8.205,4.4v7.373c0,0-12.605-5.354-13.793-6.541c-1.311-1.307-1.43-2.734-1.43-3.328v-37.336
		c0-2.262,4.521-5.332,5.59-5.332h9.273v6.758c0,0.236-5.35,0.236-6.658,0c-0.715-0.119-1.664,0.832-1.664,4.16v27.588
		C131.786,214.221,131.786,215.289,132.263,215.885z M159.015,214.102v6.42c0,0-10.465,4.639-12.127,5.471
		c-0.953,0.477-2.025-0.355-2.025-1.783v-49.088h7.137v41.834L159.015,214.102z M174.349,191.523v5.471h-6.66v13.199l8.084-3.807
		v5.826l-10.699,5.354c-1.311,0.594-2.975,0-2.975-1.189v-38.885c0-1.545,1.307-2.373,2.377-2.373h12.484v6.773h-9.271v9.631
		H174.349L174.349,191.523z M194.907,191.982c0,0-10.465,0.238-12.367,0c-1.781-0.236-2.496-0.594-2.496-1.902
		c0-1.188-0.117-9.035,0-11.297c0.236-2.258,3.805-3.43,5.471-3.666c1.545-0.119,15.691,0,15.691,0v6.164h-15.098
		c-0.594,0-0.477,5.113,0,5.113h13.555c1.9,0,1.664,0.475,1.664,1.307v7.611c0,0.83-1.188,1.783-1.664,2.258
		c-0.355,0.357-20.215,12.367-20.215,12.367v-5.352c0,0,15.814-9.988,15.934-10.703C195.62,192.816,194.907,191.982,194.907,191.982
		z M270.663,169.184L270.663,169.184H13.067v-57.955h257.596V169.184z"/>
	<path d="M264.817,116.545H19.052v46.654h245.766V116.545z M41.974,157.75h-5.41v-15.6H32.29v15.6h-5.412v-36.34h5.412v14.531h4.273
		V121.41h5.41V157.75z M54.573,157.75L54.573,157.75l-0.953-9.451h-3.961l-1.107,9.451h-4.9l4.135-36.34h8.117l4.133,36.34H54.573z
		 M77.229,132.791L77.229,132.791c0,2.705-0.492,4.822-2.436,6.361c0.281,0.322,2.369,1.713,2.432,4.174l0.004,14.424h-5.412
		l0.002-12.154c0-2.193-0.93-2.895-4.381-2.895v15.049h-5.41v-36.34h8.939c4.338,0,6.262,1.529,6.262,6.227V132.791L77.229,132.791z
		 M91.265,157.75L91.265,157.75H80.358v-36.34h5.412v30.596h5.494V157.75z M104.36,157.75L104.36,157.75H93.077v-36.34h11.184v5.676
		h-5.773v8.875h5.516v5.744h-5.516v10.299h5.873V157.75z M116.909,157.75h-5.41v-13.578l-5.563-22.762h5.563l2.916,12.695
		l3.004-12.695h5.055l-5.563,22.508v13.832H116.909z M130.702,141.734H120.8v-4.586h9.902V141.734z M147.753,151.166
		L147.753,151.166c0,3.471-2.248,6.584-6.432,6.584h-7.707v-36.34h6.533c5.359,0,7.605,1.836,7.605,8.217V151.166L147.753,151.166z
		 M160.112,157.75l-0.953-9.451h-3.961l-1.109,9.451h-4.898l4.133-36.34h8.117l4.135,36.34H160.112z M175.005,157.75h-6.057
		l-5.078-36.34h5.516l2.629,21.854l2.619-21.854h5.451L175.005,157.75z M187.022,157.75h-5.41v-36.34h5.41V157.75z M197.942,157.75
		h-7.707v-36.34h6.533c5.359,0,7.604,1.836,7.604,8.217v21.539h0.002C204.374,154.637,202.128,157.75,197.942,157.75z
		 M221.983,133.746h-5.412v-5.068c0-1.84-1.092-2.246-2.166-2.246c-1.121,0-2.146,0.406-2.146,2.246v4.025
		c0,2.604,9.656,7.207,9.656,10.881v8.758c0,4.746-4.189,6.125-7.559,6.125c-3.318,0-7.441-1.379-7.441-6.125v-7.904h5.408v6.447
		c0,1.838,0.961,2.248,2.082,2.248c1.074,0,2.102-0.41,2.102-2.248v-3.826c0-5.105-9.66-6.518-9.66-12.439v-7.797
		c0-4.746,4.191-6.125,7.51-6.125c3.369,0,7.627,1.379,7.627,6.125V133.746L221.983,133.746z M239.552,152.34
		c0,4.746-4.361,6.125-7.68,6.125c-3.32,0-7.576-1.379-7.576-6.125v-25.52c0-4.746,4.256-6.125,7.576-6.125
		c3.318,0,7.68,1.379,7.68,6.125V152.34z M258.126,157.75h-0.002h-6.615l-4.305-20.688v20.688h-5.438v-36.34h7.316l3.537,18.477
		V121.41h5.504v36.34H258.126z"/>
	<path d="M195.034,85.908l-7.445-1.529v6.381h7.377c1.197,0,1.398-1.063,1.398-2.191C196.364,87.438,196.364,86.174,195.034,85.908z
		"/>
</g>
</svg>
