<?xml version="1.0" encoding="utf-8"?>
<!-- Generator: Adobe Illustrator 15.1.0, SVG Export Plug-In . SVG Version: 6.00 Build 0)  -->
<!DOCTYPE svg PUBLIC "-//W3C//DTD SVG 1.1//EN" "http://www.w3.org/Graphics/SVG/1.1/DTD/svg11.dtd">
<svg version="1.1" id="Layer_1" xmlns="http://www.w3.org/2000/svg" xmlns:xlink="http://www.w3.org/1999/xlink" x="0px" y="0px"
	 width="283.465px" height="283.465px" viewBox="1108.268 78.267 283.465 283.465"
	 enable-background="new 1108.268 78.267 283.465 283.465" xml:space="preserve">
<g>
	<path d="M1241.561,298.789c-14.122-8.844-24.521-39.366-24.521-75.628c0-1.33,0.005-2.645,0.039-3.952l0.017,0.017
		c-39.271-6.171-67.648-23.083-68.373-43.078l-0.118,0.23c-9.613,11.942-15.099,25.75-15.099,40.46
		c0,43.291,47.519,78.761,107.795,81.899L1241.561,298.789z M1115.355,220c0-48.44,60.281-87.716,134.646-87.716
		c74.363,0,134.646,39.276,134.646,87.716c0,48.44-60.282,87.716-134.646,87.716C1175.636,307.717,1115.355,268.44,1115.355,220z
		 M1250,144.94c14.357,0,26.564,21.775,31.09,52.163l0.017-0.045c27.929-4.346,47.485-14.38,47.485-26.048
		c0-15.666-35.188-28.344-78.592-28.344s-78.592,12.684-78.592,28.344c0,11.668,19.551,21.696,47.486,26.048l0.017,0.045
		C1223.436,166.72,1235.649,144.94,1250,144.94z M1258.692,298.738c60.277-3.139,107.801-38.608,107.801-81.899
		c0-14.71-5.49-28.518-15.098-40.46l-0.118-0.23c-0.725,19.995-29.097,36.907-68.373,43.078l0.017-0.017
		c0.028,1.308,0.039,2.622,0.039,3.952c0,36.262-10.409,66.784-24.52,75.628L1258.692,298.738z M1250,199.36
		c6.435,0,12.684-0.275,18.664-0.803l-0.006,0.005c-2.977-19.478-10.208-33.224-18.658-33.224s-15.677,13.746-18.659,33.224
		l-0.005-0.005C1237.316,199.085,1243.566,199.36,1250,199.36z M1250,271.489c10.809,0,19.624-22.493,20.096-50.703l0.057,0.018
		c-13.406,1.234-26.898,1.234-40.304,0l0.062-0.018C1230.376,249.002,1239.192,271.489,1250,271.489z"/>
</g>
</svg>
