<?xml version="1.0" encoding="utf-8"?>
<!-- Generator: Adobe Illustrator 15.1.0, SVG Export Plug-In . SVG Version: 6.00 Build 0)  -->
<!DOCTYPE svg PUBLIC "-//W3C//DTD SVG 1.1//EN" "http://www.w3.org/Graphics/SVG/1.1/DTD/svg11.dtd">
<svg version="1.1" id="Layer_2" xmlns="http://www.w3.org/2000/svg" xmlns:xlink="http://www.w3.org/1999/xlink" x="0px" y="0px"
	 width="283.465px" height="283.465px" viewBox="0 0 283.465 283.465" enable-background="new 0 0 283.465 283.465"
	 xml:space="preserve">
<g>
	<path fill="none" d="M132.509,140.881c-7.367,0-11.055,6.814-11.055,13.906c0,6.635,4.236,12.988,11.055,12.988
		c7.467,0,10.691-6.268,10.691-12.988C143.202,147.699,140.155,140.881,132.509,140.881z"/>
	<path fill="none" d="M76.692,138.526c-4.857,0-8.75,3.28-9.918,8.302h19.932C85.737,141.705,82.042,138.526,76.692,138.526z"/>
	<polygon fill="none" points="206.089,129.646 206.089,146.59 180.815,146.59 180.815,162.143 206.089,162.143 206.089,179.799 
		228.407,154.725 	"/>
	<polygon points="182.825,162.143 182.825,146.59 208.099,146.59 208.099,129.646 182.825,129.646 182.825,118.402 208.099,118.402 
		208.099,100.791 164.251,100.791 164.251,100.795 164.72,100.795 164.72,179.799 208.099,179.799 208.099,162.143 	"/>
	<polygon points="253.862,154.619 276.067,129.646 253.347,129.646 242.704,141.828 231.646,129.646 208.099,129.646 
		230.415,154.725 208.099,179.799 230.933,179.799 241.784,167.521 252.731,179.799 276.378,179.799 	"/>
	<line fill="none" x1="143.739" y1="100.795" x2="143.739" y2="100.791"/>
	<path d="M143.739,100.795v32.33h-0.205c-4.096-4.707-9.213-6.348-15.148-6.348c-12.162,0-21.324,8.273-24.539,19.203
		c-3.668-12.045-13.127-19.428-27.15-19.428c-11.393,0-20.385,5.109-25.082,13.441v-10.353H28.073v-11.24h25.693v-17.608H7.087
		v79.004h20.986V146.59h20.916c-0.645,2.553-0.965,5.178-0.957,7.813c0,16.473,12.588,28.049,28.66,28.049
		c13.51,0,22.42-6.35,27.129-17.906H85.835c-2.43,3.479-4.277,4.504-9.141,4.504c-5.639,0-10.504-4.92-10.504-10.746h36.621
		c1.59,13.088,11.785,24.371,25.779,24.371c6.035,0,11.563-2.969,14.941-7.982h0.203v5.119h18.029v-79.016H143.739L143.739,100.795z
		 M66.774,146.826c1.168-5.021,5.061-8.301,9.918-8.301c5.35,0,9.043,3.18,10.014,8.301H66.774z M132.509,167.775
		c-6.818,0-11.055-6.354-11.055-12.986c0-7.094,3.688-13.906,11.055-13.906c7.646,0,10.691,6.816,10.691,13.906
		C143.202,161.508,139.976,167.775,132.509,167.775z"/>
</g>
</svg>
