<?xml version="1.0" encoding="utf-8"?>
<!-- Generator: Adobe Illustrator 15.1.0, SVG Export Plug-In . SVG Version: 6.00 Build 0)  -->
<!DOCTYPE svg PUBLIC "-//W3C//DTD SVG 1.1//EN" "http://www.w3.org/Graphics/SVG/1.1/DTD/svg11.dtd">
<svg version="1.1" id="Layer_1" xmlns="http://www.w3.org/2000/svg" xmlns:xlink="http://www.w3.org/1999/xlink" x="0px" y="0px"
	 width="283.465px" height="283.465px" viewBox="1108.268 1108.267 283.465 283.465"
	 enable-background="new 1108.268 1108.267 283.465 283.465" xml:space="preserve">
<g>
	<path d="M1227.992,1201.881c-2.522,0-4.596,0.846-6.234,2.523c-1.637,1.665-2.451,3.946-2.424,6.828h17.232
		c-0.084-3.062-0.939-5.379-2.578-6.967C1232.348,1202.676,1230.345,1201.881,1227.992,1201.881z"/>
	<path d="M1275.286,1201.902c-2.524,0-4.595,0.845-6.233,2.522c-1.639,1.665-2.451,3.946-2.425,6.828h17.23
		c-0.086-3.062-0.939-5.381-2.576-6.969C1279.641,1202.695,1277.639,1201.902,1275.286,1201.902z"/>
	<path d="M1322.459,1202.485c-6.191,0-8.492,7.223-8.334,11.824c0.217,6.246,2.604,12.915,8.567,12.915
		c2.983,0,3.953-0.77,5.935-2.73c1.982-1.958,2.982-5.188,2.982-9.658c0-4.19-1.03-7.291-3.079-9.314
		C1326.486,1203.498,1325.472,1202.485,1322.459,1202.485z"/>
	<path d="M1376.516,1163.814h-253.044c-4.48,0.013-8.11,3.642-8.124,8.122v117.443c4.329-16.65,19.191-29.033,33.078-29.033h201.887
		c13.974,0,29.829,12.539,34.326,29.346v-117.755C1384.626,1167.455,1380.996,1163.825,1376.516,1163.814z M1200.857,1215.052
		c0,15.238-6.838,21.623-20.736,21.902c-13.565,0.273-18.473-11.043-18.504-23.215h13.764c0.269,5.577-1.499,11.098,6.364,10.932
		c4.899-0.104,5.602-2.317,5.602-8.894v-36.563h0.001h13.51V1215.052z M1222.643,1225.315c1.809,1.743,4.072,2.613,6.763,2.613
		c2.191-0.002,6.65-1.358,7.463-3.947h11.691c-3.196,8.165-11.453,12.496-19.283,12.496c-12.002,0-22.326-7.227-22.326-21.193
		c0-6.611,1.926-11.782,5.768-15.526c3.833-3.736,9.523-5.611,15.392-5.611c13.634,0,21.365,9.023,21.077,23.881h-29.381
		C1219.894,1221.151,1220.834,1223.585,1222.643,1225.315z M1269.938,1225.333c1.808,1.741,4.073,2.613,6.764,2.613
		c2.188-0.002,6.649-1.358,7.46-3.946h11.691c-3.196,8.164-11.451,12.495-19.284,12.495c-12.001,0-22.322-7.227-22.322-21.193
		c0-6.611,1.924-11.784,5.768-15.528c3.833-3.736,9.521-5.609,15.39-5.609c13.635,0,21.365,9.023,21.076,23.879h-29.379
		C1267.186,1221.169,1268.127,1223.604,1269.938,1225.333z M1327.205,1236.164c-5.015,0-8.905-2.578-12.625-6.252V1250
		l-12.515-0.219v-55.021l11.316-0.217v5.855c3.145-4.598,8.154-7.199,13.255-7.199c10.7,0,17.58,9.374,17.58,21.264
		C1344.217,1227.988,1338.105,1236.164,1327.205,1236.164z"/>
	<path d="M1268.281,1278.051c-2.942,0.008-5.327,2.393-5.337,5.336v60.84c0.009,2.943,2.394,5.328,5.337,5.338
		c2.945-0.008,5.33-2.393,5.338-5.338v-60.84C1273.611,1280.441,1271.226,1278.058,1268.281,1278.051z"/>
	<path d="M1249.604,1278.051c-2.943,0.008-5.328,2.391-5.337,5.336v60.84c0.008,2.945,2.393,5.33,5.337,5.338
		c2.944-0.008,5.329-2.395,5.335-5.338v-60.84C1254.932,1280.443,1252.548,1278.058,1249.604,1278.051z"/>
	<path d="M1286.961,1278.051c-2.943,0.008-5.327,2.393-5.338,5.336v60.84c0.01,2.943,2.394,5.328,5.338,5.338
		c2.943-0.01,5.328-2.395,5.337-5.338v-60.84C1292.288,1280.443,1289.905,1278.058,1286.961,1278.051z"/>
	<path d="M1230.925,1278.051c-2.943,0.008-5.328,2.391-5.337,5.336v60.84c0.008,2.945,2.393,5.33,5.337,5.338
		c2.944-0.008,5.329-2.393,5.337-5.338v-60.84C1236.253,1280.441,1233.869,1278.058,1230.925,1278.051z"/>
	<path d="M1193.567,1278.051c-2.943,0.008-5.328,2.391-5.337,5.336v60.84c0.008,2.945,2.393,5.33,5.337,5.338
		c2.944-0.01,5.328-2.395,5.336-5.338v-60.84C1198.894,1280.443,1196.51,1278.058,1193.567,1278.051z"/>
	<path d="M1305.64,1278.051c-2.943,0.008-5.327,2.393-5.337,5.336v60.84c0.009,2.943,2.394,5.328,5.337,5.338
		c2.944-0.01,5.328-2.395,5.338-5.338v-60.84C1310.968,1280.443,1308.583,1278.058,1305.64,1278.051z"/>
	<path d="M1342.278,1272.873c-13.06,0-23.711,10.65-23.711,23.711c0,13.059,10.651,23.711,23.711,23.711
		s23.711-10.652,23.711-23.711C1365.989,1283.523,1355.337,1272.873,1342.278,1272.873z"/>
	<path d="M1212.246,1278.051c-2.943,0.008-5.328,2.391-5.337,5.336v60.84c0.008,2.945,2.393,5.33,5.337,5.338
		c2.944-0.01,5.328-2.395,5.336-5.338v-60.84C1217.573,1280.443,1215.189,1278.058,1212.246,1278.051z"/>
	<path d="M1157.622,1272.873c-13.062,0-23.713,10.65-23.713,23.711c0,13.059,10.651,23.711,23.713,23.711
		c13.059,0,23.712-10.652,23.712-23.711C1181.334,1283.523,1170.681,1272.873,1157.622,1272.873z"/>
</g>
</svg>
