<?xml version="1.0" encoding="utf-8"?>
<!-- Generator: Adobe Illustrator 15.1.0, SVG Export Plug-In . SVG Version: 6.00 Build 0)  -->
<!DOCTYPE svg PUBLIC "-//W3C//DTD SVG 1.1//EN" "http://www.w3.org/Graphics/SVG/1.1/DTD/svg11.dtd">
<svg version="1.1" id="Layer_2" xmlns="http://www.w3.org/2000/svg" xmlns:xlink="http://www.w3.org/1999/xlink" x="0px" y="0px"
	 width="283.465px" height="283.465px" viewBox="0 0 283.465 283.465" enable-background="new 0 0 283.465 283.465"
	 xml:space="preserve">
<g>
	<rect x="157.266" y="113.87" width="27.166" height="27.166"/>
	<rect x="56.263" y="113.87" width="27.166" height="27.166"/>
	<rect x="56.263" y="79.739" width="27.166" height="27.166"/>
	<rect x="90.394" y="113.87" width="27.166" height="27.166"/>
	<path d="M272.895,128.499c-9.056-5.574-21.595-6.271-32.041-3.483c-1.396-11.146-8.359-20.2-17.414-27.166l-3.482-2.786
		l-2.787,3.482c-5.572,6.27-7.662,17.414-6.965,25.772c0.697,6.269,2.787,12.538,6.27,17.414c-2.787,1.394-6.27,2.786-9.057,4.179
		c-6.27,2.09-12.537,2.786-18.807,2.786H8.2l-0.695,4.181c-1.395,13.233,0.695,27.166,6.268,39.705l2.787,4.875v0.696
		c16.719,27.859,46.67,40.398,79.408,40.398c62.691,0,114.236-27.166,138.615-85.678c16.021,0.697,32.043-3.48,39.705-18.807
		l2.09-3.482L272.895,128.499z M61.138,200.939c-7.662,0-14.627-6.27-14.627-13.932s6.27-13.932,14.627-13.932
		c8.359,0,14.629,6.27,14.629,13.932S68.802,200.939,61.138,200.939z"/>
	<rect x="22.829" y="113.87" width="27.166" height="27.166"/>
	<rect x="90.394" y="79.739" width="27.166" height="27.166"/>
	<rect x="123.829" y="79.739" width="27.168" height="27.166"/>
	<rect x="123.829" y="44.911" width="27.168" height="27.166"/>
	<rect x="123.829" y="113.87" width="27.168" height="27.166"/>
</g>
</svg>
