<?xml version="1.0" encoding="utf-8"?>
<!-- Generator: Adobe Illustrator 15.1.0, SVG Export Plug-In . SVG Version: 6.00 Build 0)  -->
<!DOCTYPE svg PUBLIC "-//W3C//DTD SVG 1.1//EN" "http://www.w3.org/Graphics/SVG/1.1/DTD/svg11.dtd">
<svg version="1.1" id="Layer_1" xmlns="http://www.w3.org/2000/svg" xmlns:xlink="http://www.w3.org/1999/xlink" x="0px" y="0px"
	 width="283.465px" height="283.465px" viewBox="1108.268 1108.267 283.465 283.465"
	 enable-background="new 1108.268 1108.267 283.465 283.465" xml:space="preserve">
<g>
	<path d="M1337.564,1202.923c-10.597-0.018-20.887,3.558-29.19,10.142c-8.304-6.584-18.594-10.159-29.19-10.142
		c-10.597-0.017-20.887,3.559-29.19,10.142c-8.303-6.584-18.592-10.16-29.189-10.142c-10.597-0.017-20.886,3.559-29.189,10.142
		c-8.304-6.583-18.593-10.159-29.189-10.142c-26.004,0-47.077,21.071-47.077,47.077c0,26.002,21.071,47.076,47.077,47.076
		c10.597,0.018,20.886-3.559,29.189-10.141c8.303,6.582,18.593,10.158,29.189,10.141c10.597,0.019,20.886-3.557,29.189-10.141
		c8.303,6.582,18.593,10.158,29.19,10.141c10.597,0.018,20.887-3.557,29.19-10.141c8.304,6.584,18.594,10.158,29.19,10.141
		c26.004,0,47.076-21.072,47.076-47.076S1363.568,1202.923,1337.564,1202.923z M1183.912,1279.244
		c-5.999,4.377-13.493,7.047-21.487,7.047c-20.061,0-36.293-16.23-36.293-36.291c0-20.06,16.232-36.293,36.293-36.293
		c7.994,0,15.483,2.672,21.487,7.05c-6.614,8.31-10.206,18.623-10.184,29.243
		C1173.733,1260.617,1177.322,1270.921,1183.912,1279.244z M1191.616,1271.563c-4.626-6.236-7.117-13.799-7.102-21.563
		c-0.02-7.766,2.472-15.329,7.102-21.563c4.629,6.235,7.121,13.798,7.102,21.563
		C1198.733,1257.764,1196.241,1265.327,1191.616,1271.563z M1242.292,1279.244c-6.233,4.589-13.774,7.055-21.513,7.037
		c-7.723,0.016-15.247-2.451-21.462-7.037c6.591-8.322,10.179-18.627,10.183-29.243c0.022-10.621-3.569-20.933-10.183-29.243
		c6.214-4.586,13.738-7.054,21.462-7.038c8.052,0,15.491,2.605,21.513,7.038c-6.615,8.31-10.206,18.623-10.184,29.243
		C1232.113,1260.617,1235.701,1270.922,1242.292,1279.244z M1249.993,1271.563c-4.626-6.236-7.117-13.799-7.102-21.563
		c-0.019-7.765,2.473-15.329,7.102-21.563c4.63,6.234,7.123,13.798,7.104,21.563
		C1257.112,1257.765,1254.62,1265.328,1249.993,1271.563z M1300.67,1279.244c-6.021,4.435-13.46,7.037-21.511,7.037
		s-15.442-2.607-21.464-7.037c6.592-8.322,10.18-18.626,10.184-29.243c0.022-10.621-3.569-20.933-10.184-29.243
		c6.021-4.431,13.413-7.038,21.464-7.038s15.489,2.605,21.511,7.038c-6.613,8.311-10.204,18.623-10.183,29.243
		C1290.492,1260.617,1294.08,1270.922,1300.67,1279.244z M1308.375,1271.563c-4.627-6.236-7.117-13.799-7.103-21.563
		c-0.02-7.766,2.472-15.33,7.103-21.563c4.629,6.235,7.12,13.798,7.102,21.563C1315.49,1257.764,1313,1265.326,1308.375,1271.563z
		 M1337.564,1286.291c-7.996,0-15.489-2.67-21.486-7.047c6.591-8.322,10.179-18.627,10.184-29.243
		c0.021-10.621-3.57-20.933-10.184-29.243c6.003-4.376,13.491-7.05,21.486-7.05c20.058,0,36.293,16.233,36.293,36.293
		C1373.857,1270.058,1357.621,1286.291,1337.564,1286.291z"/>
</g>
</svg>
