<?xml version="1.0" encoding="utf-8"?>
<!-- Generator: Adobe Illustrator 15.1.0, SVG Export Plug-In . SVG Version: 6.00 Build 0)  -->
<!DOCTYPE svg PUBLIC "-//W3C//DTD SVG 1.1//EN" "http://www.w3.org/Graphics/SVG/1.1/DTD/svg11.dtd">
<svg version="1.1" id="Layer_1" xmlns="http://www.w3.org/2000/svg" xmlns:xlink="http://www.w3.org/1999/xlink" x="0px" y="0px"
	 width="283.465px" height="283.465px" viewBox="0 0 283.465 283.465" enable-background="new 0 0 283.465 283.465"
	 xml:space="preserve">
<g>
	<path fill="none" d="M192.672,136.236h15.889C208.711,124.273,192.633,124.424,192.672,136.236z"/>
	<path fill="none" d="M120.59,155.707c5.949,0,8.963-4.953,8.963-14.723c0-8.014-3.41-13.611-8.295-13.611
		c-0.127,0-0.258,0.004-0.387,0.012c-8.547,0-9.207,10.41-9.207,13.6C111.666,150.479,114.836,155.707,120.59,155.707z"/>
	<path d="M140.855,242.264c-44.154,0-81.615-28.451-95.148-68.043h-8.824c13.834,44.303,55.146,76.418,103.973,76.418
		c48.824,0,90.174-32.115,103.971-76.418h-8.824C222.469,213.813,185.008,242.264,140.855,242.264z"/>
	<path d="M140.855,41.201c44.152,0,81.613,28.451,95.146,68.043h8.824c-13.797-44.266-55.146-76.418-103.971-76.418
		c-48.826,0-90.139,32.152-103.973,76.418h8.824C59.24,69.652,96.701,41.201,140.855,41.201z"/>
	<rect x="152.482" y="99.262" width="16.225" height="64.006"/>
	<path d="M101.555,123.221c-4.893,4.51-7.479,11.094-7.479,19.035c0,14.996,10.584,24.686,26.963,24.686
		c16.656,0,27.002-9.816,27.002-25.619c0-15.041-10.627-24.76-27.076-24.76C112.992,116.563,106.279,118.865,101.555,123.221z
		 M120.871,127.385c0.131-0.008,0.26-0.012,0.387-0.012c4.885,0,8.297,5.598,8.297,13.611c0,9.77-3.016,14.723-8.963,14.723
		c-5.756,0-8.926-5.229-8.926-14.723C111.666,137.795,112.326,127.387,120.871,127.385z"/>
	<path d="M200.148,117.283c-14.096,0-24.898,9.645-24.898,24.563c0,15.439,10.879,23.814,24.973,23.814
		c10.244,0,21.348-3.738,24.375-15.105h-16.711c-1.27,2.654-3.775,3.963-6.543,3.963c-4.635,0-8.672-3.59-8.672-8.973h33.348
		C226.281,129.021,216.449,117.283,200.148,117.283z M192.672,136.236c-0.039-11.813,16.039-11.963,15.889,0H192.672z"/>
	<path d="M38.941,163.305h16.41v-28.113c0-4.375,3.553-7.926,7.928-7.926s7.926,3.551,7.926,7.926v28.113l15.551-0.037V129.77
		c-0.223-3.141-3.328-7.813-7.064-9.871c-5.012-2.393-16.227-5.158-25.498,5.049c-2.992-3.18-6.73-5.609-10.805-6.73
		c-6.881-1.457-14.096,0.039-19.143,5.271c-0.672,0.561-1.234,1.943-1.197,0.785v-5.684H7.086v44.676h15.963v-28.113
		c0-4.375,3.59-7.926,7.963-7.926c4.375,0,7.928,3.551,7.928,7.926v28.152H38.941z"/>
	<path d="M261.574,139.266c4.299-7.066,10.057-13.607,14.543-20.676h-15.439l-7.664,10.842c-2.393-3.289-4.563-7.365-6.768-10.842
		h-18.02l14.094,20.75c0,0-10.467,15.59-16.039,23.928h15.74l8.787-14.133c1.457,2.094,4.859,8.674,8.225,14.133h17.346
		C272.006,156.09,261.574,139.266,261.574,139.266z"/>
</g>
</svg>
