<?xml version="1.0" encoding="utf-8"?>
<!-- Generator: Adobe Illustrator 15.1.0, SVG Export Plug-In . SVG Version: 6.00 Build 0)  -->
<!DOCTYPE svg PUBLIC "-//W3C//DTD SVG 1.1//EN" "http://www.w3.org/Graphics/SVG/1.1/DTD/svg11.dtd">
<svg version="1.1" id="Layer_1" xmlns="http://www.w3.org/2000/svg" xmlns:xlink="http://www.w3.org/1999/xlink" x="0px" y="0px"
	 width="283.465px" height="283.465px" viewBox="0 0 283.465 283.465" enable-background="new 0 0 283.465 283.465"
	 xml:space="preserve">
<path fill="#231F20" d="M231.396,7.087c-0.01,0-0.018,0-0.022,0H52.091c-24.855,0-45.004,20.15-45.004,45.004v179.283
	c0,24.854,20.148,45.004,45.004,45.004h179.283c24.853,0.004,45-20.14,45.004-44.991c0-0.005,0-0.009,0-0.013V52.091
	C276.384,27.243,256.247,7.095,231.396,7.087z M213.223,227.428H70.271c-7.84,0.004-14.199-6.351-14.203-14.189V70.28
	c-0.004-7.842,6.35-14.201,14.191-14.205c0.004,0,0.008,0,0.012,0h142.943c7.843,0,14.197,6.355,14.197,14.197
	c0,0.002,0,0.004,0,0.006v142.957h0.006C227.417,221.075,221.061,227.428,213.223,227.428z"/>
<path fill="#231F20" d="M170.305,105.009h-57.146c-4.504,0-8.152,3.672-8.152,8.195v57.06c-0.01,4.514,3.639,8.182,8.152,8.194
	h57.146c4.518,0,8.151-3.679,8.151-8.194v-57.06C178.456,108.681,174.82,105.009,170.305,105.009z"/>
</svg>
