<?xml version="1.0" encoding="utf-8"?>
<!-- Generator: Adobe Illustrator 15.1.0, SVG Export Plug-In . SVG Version: 6.00 Build 0)  -->
<!DOCTYPE svg PUBLIC "-//W3C//DTD SVG 1.1//EN" "http://www.w3.org/Graphics/SVG/1.1/DTD/svg11.dtd">
<svg version="1.1" id="Layer_2" xmlns="http://www.w3.org/2000/svg" xmlns:xlink="http://www.w3.org/1999/xlink" x="0px" y="0px"
	 width="283.46px" height="283.46px" viewBox="0 0 283.46 283.46" enable-background="new 0 0 283.46 283.46" xml:space="preserve">
<g>
	<path d="M90.093,158.877c10.522-8.964,19.973-19.681,26.014-32.249c3.702-7.892,6.625-16.075,8.086-24.649
		c2.046-12.373,2.826-24.941,3.508-37.51c0.39-8.671,0.585-17.342,0.585-26.11V7.084h-13.348c0,5.164,0,10.327,0,15.491
		c-0.391,15.296-1.267,30.593-3.605,45.693c-1.851,11.887-4.481,23.772-9.45,34.685c-4.287,9.548-9.84,18.609-16.854,26.306
		c-6.82,7.6-14.907,13.932-23.87,18.706c-7.6,3.994-15.783,7.015-24.26,8.28v26.21c7.015-0.975,13.933-2.729,20.654-5.066
		C69.244,173.296,80.643,167.256,90.093,158.877z"/>
	<path d="M133.449,126.628c0,18.608-0.098,37.314,0.098,55.924c8.086-0.097,16.27,0,24.454,0V7.182c-8.185,0-16.368,0-24.552,0
		C133.449,46.932,133.449,86.781,133.449,126.628z"/>
	<path d="M244.224,153.811c-12.275-3.995-23.578-10.718-32.931-19.681c-9.743-9.255-17.244-20.85-22.408-33.223
		c-5.456-12.86-7.891-26.695-9.646-40.433c-2.144-17.731-2.728-35.562-2.63-53.391h-13.251v28.741
		c-0.098,16.952,0.486,33.905,1.948,50.76c0.78,7.795,1.657,15.687,3.702,23.286c2.047,7.599,5.066,14.906,8.963,21.823
		c4.97,8.769,11.596,16.563,18.999,23.479c4.481,4.092,9.158,8.088,14.322,11.399c7.016,4.579,14.712,8.184,22.701,10.912
		c6.723,2.24,13.542,4.092,20.557,4.97c0-8.77,0-17.44,0-26.21C251.142,155.758,247.634,154.882,244.224,153.811z"/>
	<path d="M125.947,208.37v-12.274H80.643v12.274c5.554,0,11.106,0,16.66,0v67.908h11.983V208.37
		C114.84,208.37,120.393,208.37,125.947,208.37L125.947,208.37z"/>
	<path d="M216.75,243.055c2.338-1.755,5.066-2.923,7.21-4.871c4.189-3.605,6.43-8.964,6.819-14.322
		c0.39-5.359,0.39-10.62-2.046-15.297c-3.508-7.209-11.106-12.178-19.193-12.373h-14.321c-1.267,0-2.437,0.098-3.604,0.488
		c-3.898,1.266-6.82,5.162-6.82,9.255c0,23.48,0,46.961,0,70.44h12.08c0-21.825,0-43.648,0-65.473
		c0.098-1.461,1.268-2.63,2.729-2.63h9.256c4.481-0.195,8.67,3.313,9.645,7.6c0.779,3.313,0.877,7.112-0.877,10.133
		c-2.338,4.091-6.626,6.624-10.912,8.28c-2.24,0.877-4.287,2.533-5.164,4.872c-1.071,3.117-0.584,6.527,1.267,9.159
		c6.139,9.255,12.276,18.608,18.512,27.961h14.225c-6.431-9.646-13.055-19.291-19.389-29.033
		C215.384,245.879,215.482,244.029,216.75,243.055L216.75,243.055z"/>
	<path d="M150.206,196.29c-3.799-0.975-7.793,0.486-10.131,3.702c-1.364,1.851-1.657,4.189-2.339,6.235
		c-6.819,23.382-13.543,46.766-20.362,70.051h12.471c1.948-6.723,3.897-13.445,5.846-20.168c8.087,0,16.173,0,24.259,0
		c1.949,6.723,3.896,13.445,5.847,20.168c4.188,0,8.378,0,12.567,0c-7.111-24.357-14.127-48.715-21.238-73.072
		C156.247,199.992,153.617,197.069,150.206,196.29L150.206,196.29z M139.099,244.711c2.924-10.133,5.847-20.265,8.77-30.397
		c2.922,10.133,5.845,20.265,8.769,30.397H139.099z"/>
	<path d="M65.444,198.139c-3.8-3.312-10.229-2.629-13.444,1.365c-1.754,1.948-2.047,4.677-2.825,7.112
		c-6.82,23.285-13.543,46.473-20.266,69.759h12.471c1.949-6.724,3.897-13.445,5.943-20.168h24.26
		c1.948,6.723,3.897,13.444,5.846,20.168h12.567c-7.112-24.357-14.225-48.715-21.336-73.072
		C68.172,201.258,67.003,199.504,65.444,198.139L65.444,198.139z M50.635,244.711c2.923-10.133,5.846-20.265,8.866-30.301
		c2.923,10.133,5.846,20.265,8.769,30.301C62.327,244.711,56.481,244.808,50.635,244.711L50.635,244.711z"/>
	<path d="M241.789,196.192v80.184h12.665c0-26.696,0-53.391,0-80.184H241.789z"/>
</g>
</svg>
