<?xml version="1.0" encoding="utf-8"?>
<!-- Generator: Adobe Illustrator 15.1.0, SVG Export Plug-In . SVG Version: 6.00 Build 0)  -->
<!DOCTYPE svg PUBLIC "-//W3C//DTD SVG 1.1//EN" "http://www.w3.org/Graphics/SVG/1.1/DTD/svg11.dtd">
<svg version="1.1" id="Layer_1" xmlns="http://www.w3.org/2000/svg" xmlns:xlink="http://www.w3.org/1999/xlink" x="0px" y="0px"
	 width="283.465px" height="283.465px" viewBox="0 0 283.465 283.465" enable-background="new 0 0 283.465 283.465"
	 xml:space="preserve">
<g id="Icons">
	<g id="Color-" transform="translate(-696.000000, -660.000000)">
		<path id="Feedly" d="M854.475,821.517c-12.977,12.838-25.996,25.656-38.895,38.576c-3.619,4.4-9.998,3.01-14.963,2.602
			c-4.789-3.051-8.51-7.561-12.355-11.67c-2.566-2.408-0.168-5.561,1.809-7.367c12.994-12.82,25.971-25.641,38.896-38.527
			c2.355-2.275,4.486-4.893,7.338-6.619c2.861-1.217,4.949,1.668,6.852,3.285c4.316,4.584,9.238,8.619,13.178,13.527
			C858.068,817.517,856.057,819.966,854.475,821.517 M855.84,882.173c-3.637,4.051-7.432,8.027-11.697,11.412
			c-3.922,0.934-8.088,0.717-12.051,0.15c-3.814-1.91-6.389-5.578-9.51-8.402c-2.223-2.143-5.697-5.359-2.836-8.453
			c4.83-5.316,9.998-10.395,15.342-15.229c1.984-1.658,4.957-0.834,6.563,0.967c4.57,4.377,9.064,8.828,13.475,13.379
			C856.855,877.522,857.807,880.415,855.84,882.173 M784.131,828.919c-3.762,4.436-10.375,3.268-15.467,2.484
			c-4.486-3.561-8.592-7.688-12.211-12.096c-2.096-2.441,0.59-4.984,2.248-6.711c22.787-22.471,45.492-45.043,68.24-67.549
			c3.055-2.951,5.822-6.227,9.256-8.752c2.955-1.467,5.234,1.701,7.203,3.385c4.184,4.418,8.922,8.335,12.76,13.063
			c1.979,2.342-0.193,5.06-1.928,6.734C830.846,782.6,807.441,805.722,784.131,828.919 M957.102,789.95
			c-30.809-30.523-61.627-61.031-92.41-91.563c-4.502-4.385-8.734-9.385-14.676-11.895c-5.9-2.775-12.742-3.176-19.078-1.834
			c-5.547,1.26-10.553,4.268-14.559,8.235c-34.639,34.315-69.285,68.642-103.939,102.95c-3.989,3.941-7.104,8.869-8.374,14.346
			c-2.845,9.859,0.724,20.912,8.021,28.016c24.42,24.197,48.867,48.369,73.281,72.584c5.453,5.51,13.145,8.719,20.945,8.627
			c19.979,0.117,39.949-0.018,59.918,0.066c8.988,0.566,18.076-2.617,24.438-8.994c22.133-21.855,44.199-43.793,66.322-65.666
			c3.604-3.617,7.508-7.01,10.443-11.211c5.387-7.686,6.277-18.047,3.131-26.758C968.109,799.862,962.201,795.036,957.102,789.95"/>
	</g>
</g>
</svg>
