<?xml version="1.0" encoding="utf-8"?>
<!-- Generator: Adobe Illustrator 15.1.0, SVG Export Plug-In . SVG Version: 6.00 Build 0)  -->
<!DOCTYPE svg PUBLIC "-//W3C//DTD SVG 1.1//EN" "http://www.w3.org/Graphics/SVG/1.1/DTD/svg11.dtd">
<svg version="1.1" id="Layer_1" xmlns="http://www.w3.org/2000/svg" xmlns:xlink="http://www.w3.org/1999/xlink" x="0px" y="0px"
	 width="283.465px" height="283.465px" viewBox="0 0 283.465 283.465" enable-background="new 0 0 283.465 283.465"
	 xml:space="preserve">
<g>
	<path d="M257.379,62.271c-8.521,0-15.428,6.906-15.428,15.426l0,0c0,5.371,2.629,10.08,6.787,12.844L196.42,202.828l10.93-149.523
		c8.494-0.719,14.799-8.189,14.078-16.686c-0.678-7.992-7.359-14.135-15.381-14.135c-8.521,0-15.428,6.908-15.428,15.428l0,0
		c0,6.707,4.277,12.301,10.264,14.432l-35.904,145.99L147.215,37.285c6.713-1.76,11.387-7.832,11.371-14.77
		c0-8.521-6.906-15.43-15.428-15.43c-8.522,0-15.428,6.908-15.428,15.43l0,0c0,7.697,5.68,13.908,13.059,15.066l-14.314,156.902
		L84.869,52.799c5.078-2.635,8.264-7.879,8.26-13.6c0-8.52-6.906-15.428-15.426-15.428c-8.521,0-15.428,6.908-15.428,15.428
		c0,8.521,6.906,15.428,15.428,15.428c0.219,0,0.459-0.02,0.676-0.029l17.934,148.234L35.888,94.975
		c6.703-5.258,7.877-14.955,2.619-21.66c-5.258-6.703-14.955-7.877-21.66-2.619c-6.705,5.256-7.877,14.955-2.619,21.66
		c3.648,4.652,9.639,6.811,15.418,5.555l50.621,151.758c11.551,35.293,114.217,35.936,129.614,0l45.717-156.736
		c0.637,0.08,1.117,0.189,1.773,0.189c8.52-0.15,15.303-7.178,15.152-15.697C272.373,69.119,265.68,62.422,257.379,62.271z
		 M143.805,265.896c-26.163,0-47.372-7.885-47.372-17.613c0-9.727,21.207-14.295,47.372-14.295c26.16,0,44.59,4.568,44.59,14.297
		C188.395,258.012,169.961,265.896,143.805,265.896L143.805,265.896z"/>
</g>
</svg>
