<?xml version="1.0" encoding="utf-8"?>
<!-- Generator: Adobe Illustrator 15.1.0, SVG Export Plug-In . SVG Version: 6.00 Build 0)  -->
<!DOCTYPE svg PUBLIC "-//W3C//DTD SVG 1.1//EN" "http://www.w3.org/Graphics/SVG/1.1/DTD/svg11.dtd">
<svg version="1.1" id="Layer_1" xmlns="http://www.w3.org/2000/svg" xmlns:xlink="http://www.w3.org/1999/xlink" x="0px" y="0px"
	 width="283.465px" height="283.465px" viewBox="1108.268 32.268 283.465 283.465"
	 enable-background="new 1108.268 32.268 283.465 283.465" xml:space="preserve">
<g>
	<path d="M1115.354,189.934h32.63l-1.875,2.626h-30.754V189.934z M1384.458,192.56h-39.943l2.063-2.626h38.068v2.626H1384.458z
		 M1115.354,185.059h36.38l-2.063,2.625h-34.317V185.059z M1115.354,180.183h40.131l-2.063,2.625h-38.068V180.183z
		 M1384.458,187.684h-36.193l2.063-2.625h34.317v2.625H1384.458z M1353.891,180.183h30.567v2.625h-32.63L1353.891,180.183z
		 M1150.61,192.56l17.252-23.066h21.378c2.438,0,2.438,0.938,1.125,2.438c-1.125,1.5-3.188,4.313-4.313,5.813
		c-0.563,0.938-1.688,2.251,1.875,2.251h28.692c-2.25,3.375-10.126,12.752-24.003,12.752
		C1181.364,192.56,1150.61,192.56,1150.61,192.56z M1249.438,180.183l-9.376,12.564h-24.566l9.376-12.564H1249.438z
		 M1285.256,180.183l-9.377,12.564h-24.754l9.377-12.564H1285.256z M1293.319,180.183c0,0-1.875,2.438-2.626,3.563
		c-3.188,4.126-0.375,9.002,9.752,9.002h39.756l9.377-12.564H1293.319z"/>
	<path d="M1162.799,155.241l-8.626,11.439h46.882c2.438,0,2.438,0.938,1.125,2.438c-1.125,1.5-3.188,4.313-4.313,5.813
		c-0.563,0.75-1.688,2.25,1.875,2.25h19.128c0,0,3.188-4.125,5.626-7.688c3.563-4.688,0.375-14.439-12.189-14.439
		C1201.055,155.241,1162.799,155.241,1162.799,155.241L1162.799,155.241z M1287.318,177.182h-60.384l16.502-21.94h24.754
		l-9.377,12.564h11.064l9.377-12.564h24.753L1287.318,177.182z M1338.139,155.241l-16.503,21.94h-26.254l16.503-21.94H1338.139z"/>
</g>
</svg>
