<?xml version="1.0" encoding="utf-8"?>
<!-- Generator: Adobe Illustrator 15.1.0, SVG Export Plug-In . SVG Version: 6.00 Build 0)  -->
<!DOCTYPE svg PUBLIC "-//W3C//DTD SVG 1.1//EN" "http://www.w3.org/Graphics/SVG/1.1/DTD/svg11.dtd">
<svg version="1.1" id="Layer_1" xmlns="http://www.w3.org/2000/svg" xmlns:xlink="http://www.w3.org/1999/xlink" x="0px" y="0px"
	 width="283.465px" height="283.465px" viewBox="0 0 283.465 283.465" enable-background="new 0 0 283.465 283.465"
	 xml:space="preserve">
<g>
	<path fill="none" d="M137.699,185.788c1.861,0.311,4.654,0.93,8.688,0.93c21.406,0,33.508-18.924,33.508-46.846
		c0-27.613-12.41-44.986-35.369-44.986c-10.547,0-18.924,2.482-25.75,6.826V226.12h19.234L137.699,185.788z M144.525,110.399
		c11.168,0,15.822,8.686,15.822,30.094c0,20.785-5.273,31.023-16.135,31.023c-2.48,0-4.963-0.619-6.205-1.24l-0.309-58.637
		C139.25,111.019,142.043,110.399,144.525,110.399z"/>
	<path fill="none" d="M80.305,187.339c11.791,0,21.406-2.793,28.854-7.756V96.747H90.232v71.666
		c-2.17,1.553-5.273,2.482-8.996,2.482c-8.688,0-9.928-8.066-9.928-13.342V96.747H52.072v60.188
		C52.072,177.101,61.379,187.339,80.305,187.339z"/>
	<path fill="none" d="M203.16,146.698c8.377,4.963,11.791,8.377,11.791,14.27c0,6.516-4.344,10.549-11.479,10.549
		c-6.205,0-13.342-3.412-18.307-7.756v17.684c6.205,3.412,13.652,5.895,21.098,5.895c18.926,0,27.303-13.34,27.611-25.438
		c0.311-11.17-2.791-19.547-18.615-28.854c-6.824-4.344-12.719-7.137-12.408-13.961c0-6.516,5.895-8.998,11.17-8.998
		c6.514,0,13.029,3.723,17.063,7.756v-16.752c-3.414-2.482-10.549-6.516-21.098-6.205c-12.721,0.311-25.75,9.307-25.75,24.818
		C184.545,129.944,187.338,137.39,203.16,146.698z"/>
	<path fill="none" d="M32.217,35.319V164.38c0,27.303,10.238,49.949,29.473,65.771c17.684,14.582,73.838,39.092,80.354,42.193
		c6.516-2.793,62.67-27.301,80.354-41.883c19.234-15.822,29.475-38.471,29.475-65.771V35.319
		c-30.404-16.443-67.324-24.51-109.826-24.51C99.539,10.81,62.621,19.187,32.217,35.319z M241.631,38.112h-0.311v126.27
		c0,24.51-8.688,44.055-25.75,58.016c-15.203,12.721-61.119,33.195-73.838,38.779c-13.031-5.895-58.947-26.68-73.838-38.779
		c-16.754-13.961-25.75-33.816-25.75-58.016V90.544c47.156-43.123,104.24-54.602,157.293-54.602
		C214.02,35.94,227.98,36.87,241.631,38.112z"/>
	<path d="M144.213,171.517c10.859,0,16.135-10.238,16.135-31.023c0-21.408-4.654-30.096-15.822-30.096
		c-2.482,0-5.275,0.621-6.826,1.242l0.311,58.635C139.25,170.896,141.732,171.517,144.213,171.517z"/>
	<path d="M42.145,164.38c0,24.199,8.996,44.055,25.75,58.016c14.891,12.102,60.807,32.887,73.838,38.781
		c12.719-5.584,58.635-26.061,73.838-38.781c17.063-13.961,25.75-33.506,25.75-58.016V38.112h0.311
		c-13.65-1.242-27.611-2.174-42.193-2.174c-53.051,0-110.135,11.48-157.293,54.604V164.38L42.145,164.38z M209.986,94.886
		c10.549-0.309,17.684,3.725,21.098,6.205v16.754c-4.033-4.033-10.549-7.756-17.063-7.756c-5.275,0-11.17,2.482-11.17,8.996
		c-0.311,6.826,5.584,9.619,12.41,13.961c15.822,9.307,18.924,17.684,18.613,28.854c-0.311,12.1-8.688,25.439-27.611,25.439
		c-7.445,0-14.893-2.48-21.098-5.895v-17.686c4.965,4.344,12.102,7.756,18.307,7.756c7.135,0,11.479-4.031,11.479-10.547
		c0-5.895-3.414-9.309-11.791-14.271c-15.822-9.307-18.613-16.752-18.924-26.99C184.236,104.194,197.266,95.196,209.986,94.886z
		 M118.775,101.712c6.824-4.344,15.201-6.826,25.75-6.826c22.957,0,35.367,17.375,35.367,44.986c0,27.922-12.1,46.846-33.506,46.846
		c-4.033,0-6.826-0.619-8.688-0.93l0.311,40.332h-19.236V101.712H118.775z M52.072,96.747h19.236v60.809
		c0,5.273,1.24,13.34,9.928,13.34c3.723,0,6.826-0.93,8.996-2.48V96.749h18.926v82.834c-7.447,4.965-17.063,7.756-28.854,7.756
		c-18.926,0-28.232-10.236-28.232-30.402V96.747L52.072,96.747z"/>
	<path d="M141.732,7.087c-44.055,0-81.283,8.377-113.549,25.75v131.855c0,28.23,10.859,52.119,31.023,68.563
		c17.375,14.271,71.047,38.16,82.525,43.123c11.479-4.963,65.15-28.852,82.523-43.434c20.479-16.443,31.025-40.332,31.025-68.564
		V32.837C223.018,15.464,185.787,7.087,141.732,7.087z M251.869,164.692c0,27.301-10.238,49.947-29.473,65.77
		c-17.686,14.582-73.838,39.092-80.354,41.883c-6.516-3.102-62.67-27.609-80.354-42.191c-19.236-15.822-29.475-38.471-29.475-65.771
		V35.321c30.404-16.135,67.324-24.51,109.828-24.51c42.502,0,79.422,8.066,109.826,24.51V164.692L251.869,164.692z"/>
</g>
</svg>
