<?xml version="1.0" encoding="utf-8"?>
<!-- Generator: Adobe Illustrator 15.1.0, SVG Export Plug-In . SVG Version: 6.00 Build 0)  -->
<!DOCTYPE svg PUBLIC "-//W3C//DTD SVG 1.1//EN" "http://www.w3.org/Graphics/SVG/1.1/DTD/svg11.dtd">
<svg version="1.1" xmlns="http://www.w3.org/2000/svg" xmlns:xlink="http://www.w3.org/1999/xlink" x="0px" y="0px"
	 width="283.46px" height="283.46px" viewBox="0 0 283.46 283.46" enable-background="new 0 0 283.46 283.46" xml:space="preserve">
<g id="Layer_2">
</g>
<g id="Layer_1" xmlns:serif="http://www.serif.com/">
	<g>
		<path fill="none" d="M167.638,46.251c1.877,0,3.238-0.345,4.086-1.036c0.849-0.692,1.272-1.792,1.272-3.304v-7.118
			c0-1.513-0.424-2.615-1.272-3.306c-0.848-0.689-2.209-1.037-4.086-1.037s-3.24,0.347-4.088,1.037
			c-0.847,0.691-1.271,1.793-1.271,3.306v7.118c0,1.513,0.424,2.612,1.271,3.304C164.398,45.907,165.761,46.251,167.638,46.251z"/>
		<path fill="none" d="M221.861,39.564v-2.817c0-2.138-0.554-3.71-1.662-4.712c-1.109-1.005-2.835-1.506-5.182-1.506H211.3v15.645
			h4.225c2.372,0,4.023-0.528,4.947-1.585C221.398,43.535,221.861,41.859,221.861,39.564z"/>
		<path fill="none" d="M194.828,37.433c0.756-0.247,1.291-0.633,1.604-1.154s0.469-1.251,0.469-2.19
			c0-1.277-0.396-2.191-1.192-2.737c-0.796-0.549-2.249-0.821-4.36-0.821h-3.717v7.275h3.912
			C192.975,37.805,194.07,37.68,194.828,37.433z"/>
		<path fill="none" d="M160.012,120.083c-0.393,1.009-1.372,2.27-2.892,3.594l-0.057,0.05l4.286-2.005
			C161.058,121.069,160.601,120.489,160.012,120.083z"/>
		<path fill="none" d="M167.969,175.019c0.007-0.146,0.003-0.309-0.016-0.489l-0.005,0.052c-0.004,0.053-0.007,0.107-0.007,0.164
			c0,3.66-5.243,6.871-13.111,8.671l-5.522,0.969l-6.201,0.505l-6.894-0.057l-4.032-0.333l-9.531-1.892l-2.141-0.723l-2.715-1.186
			c-3.279-1.676-5.211-3.733-5.211-5.955v0.136c0.039,5.813,2.549,26.124,27.679,26.194c24.448,0.065,27.489-19.285,27.67-25.689
			C167.951,175.271,167.964,175.149,167.969,175.019z"/>
		<path fill="none" d="M163.402,122.319l-26.486,12.379c0.32,0.114,0.624,0.27,0.91,0.46c2.374,0.837,8.601-0.646,15.34-3.812
			c6.717-3.157,11.822-6.987,12.72-9.352C165.16,121.852,164.323,121.929,163.402,122.319z"/>
		<path fill="none" d="M166.623,129.21c3.07-1.218,2.746-5.154,0.541-6.676c-0.392,1.007-1.373,2.27-2.893,3.594
			c-2.37,2.063-6.098,4.424-10.504,6.495s-8.604,3.433-11.706,3.939c-1.036,0.17-1.966,0.238-2.764,0.215
			c0.469,0.823,0.753,1.828,0.753,2.917c0,0.755-0.136,1.469-0.376,2.111L166.623,129.21z"/>
		<path fill="none" d="M129.879,133.875c-0.134-0.063-0.258-0.134-0.376-0.21c-0.322-0.147-0.669-0.229-1.032-0.229
			c-1.576,0-2.871,1.53-3.004,3.476c0.167,2.12,2.163,4.045,4.792,3.397c0.39-0.363,0.71-0.841,0.923-1.397
			c0.011-0.535,0.109-1.075,0.306-1.596c0-0.025,0-0.048,0-0.073C131.487,135.782,130.834,134.514,129.879,133.875z"/>
		<path fill="none" d="M145.148,129.294l1.498-0.701c6.404-3.095,11.219-6.76,12.09-9.05c-0.729-0.143-1.565-0.063-2.483,0.327
			l-9.384,4.383c-0.141,0.161-0.315,0.288-0.513,0.37l-3.528,1.587c-0.08,0.057-0.164,0.106-0.252,0.147l-10.592,4.853l-2.218,1.039
			c0.317,0.113,0.622,0.268,0.907,0.46C132.947,133.51,138.746,132.186,145.148,129.294z"/>
		<path fill="none" d="M150.508,168.532c0.048-0.146,0.022-0.408,0.007-0.657C150.486,168.15,150.472,168.396,150.508,168.532z"/>
		<path fill="none" d="M116.089,172.135c-0.075-0.103-0.159-0.173-0.247-0.211c-0.05-0.108-0.125-0.204-0.227-0.271
			c-0.029-0.02-0.061-0.035-0.093-0.049C115.427,171.986,115.833,171.981,116.089,172.135z"/>
		<path fill="none" d="M150.515,167.875l0.065-0.578C150.492,167.386,150.5,167.625,150.515,167.875z"/>
		<path fill="none" d="M137.61,167.083c-0.007-0.007,0.016-0.07,0.057-0.17c-0.045,0.075-0.093,0.147-0.139,0.22
			C137.555,167.115,137.583,167.099,137.61,167.083z"/>
		<path fill="none" d="M116.284,172.482c0.005-0.18-0.079-0.279-0.195-0.347c0.068,0.091,0.127,0.204,0.175,0.34
			C116.271,172.478,116.277,172.48,116.284,172.482z"/>
		<path fill="none" d="M124.521,170.818c0.027-0.06,0.063-0.166,0.104-0.3c0.025-0.07,0.043-0.118,0.029-0.104l-0.168,0.488
			C124.496,170.875,124.507,170.845,124.521,170.818z"/>
		<path fill="none" d="M138.438,165.414c-0.073,0.031-0.597,1.082-0.771,1.499L138.438,165.414z"/>
		<path fill="none" d="M92.247,46.251c1.877,0,3.24-0.345,4.088-1.036c0.846-0.692,1.27-1.792,1.27-3.304v-7.118
			c0-1.513-0.424-2.615-1.27-3.306c-0.848-0.689-2.211-1.037-4.088-1.037c-1.878,0-3.241,0.347-4.086,1.037
			c-0.848,0.691-1.272,1.793-1.272,3.306v7.118c0,1.513,0.424,2.612,1.272,3.304C89.006,45.907,90.369,46.251,92.247,46.251z"/>
		<path fill="none" d="M119.572,126.832c1.229,0,2.229-0.998,2.229-2.227c0-1.118-0.823-2.043-1.896-2.204
			c0.004-0.052,0.007-0.104,0.007-0.159c0-1.229-0.998-2.227-2.227-2.227c-1.229,0-2.227,0.998-2.227,2.227
			c0,1.118,0.821,2.043,1.894,2.204c-0.005,0.052-0.007,0.104-0.007,0.159C117.346,125.833,118.343,126.832,119.572,126.832z"/>
		<path fill="none" d="M134.247,144.658c-0.571-0.218-1.095-0.569-1.546-1.037c-0.567-0.584-1.014-1.357-1.27-2.244l-0.499,0.213
			c-0.712,0.558-1.56,0.871-2.46,0.871c-1.104,0-2.127-0.47-2.92-1.288c-0.905-0.935-1.506-2.343-1.506-3.93
			c0-0.077,0.002-0.152,0.004-0.227c-0.168-1.921,0.732-3.966,3.241-5.168l0.383-0.179c-0.234-0.245-0.433-0.521-0.592-0.823
			c-0.1-0.19-0.184-0.39-0.249-0.599c-0.098,0.113-0.2,0.222-0.309,0.322c-0.653,0.61-1.531,0.984-2.495,0.984
			c-1.011,0-1.925-0.411-2.589-1.073c-0.599-0.601-0.994-1.408-1.062-2.304c-0.258,0.057-0.528,0.088-0.805,0.088
			c-1.009,0-1.925-0.411-2.587-1.073c-0.458-0.458-0.796-1.039-0.959-1.687c-0.429-0.218-0.805-0.515-1.116-0.875
			c-0.551-0.64-0.887-1.474-0.887-2.388c0-1.009,0.411-1.925,1.073-2.587c0.665-0.663,1.578-1.073,2.589-1.073
			c0.037,0,0.075,0,0.114,0.002c0.084-0.356,0.218-0.694,0.396-1.002c-6.923,2.864-11.291,7.05-11.291,11.71
			C106.905,136.952,118.704,143.332,134.247,144.658z"/>
		<path fill="none" d="M52.923,263.445H230.8V20.046H52.923V263.445z M139.421,224.233h-19.559v9.249h18.105v7.4h-18.105v9.715
			h19.559v7.398h-27.817v-41.23h27.817V224.233z M119.085,195.601c-7.386-7.027-8.406-17.082-8.406-20.855
			c0-2.992,2.563-6.012,7.325-8.166c5.263-2.381,13.279-3.935,22.259-3.935c1.274,0,2.531,0.032,3.762,0.091
			c-0.125,0.184-0.24,0.379-0.342,0.58c-0.017-0.007-0.035-0.014-0.051-0.018c-0.521-0.184-1.096-0.094-1.589,0.428
			c-0.204,0.216-0.376,0.502-0.503,0.832l-2.037-0.006c-0.009-0.236-0.072-0.42-0.147-0.543c-0.152-0.249-0.37-0.4-0.665-0.451
			c-0.179-0.029-0.442-0.021-0.767,0.157c-0.222,0.122-0.564,0.405-1.048,0.909c-0.61,0.027-1.215,0.063-1.814,0.104
			c-0.75-0.44-1.764-0.728-2.295-0.651c-0.563,0.082-0.837,0.381-0.977,0.754c-0.025,0.064-0.043,0.135-0.057,0.213
			c-0.51,0.059-1.011,0.127-1.505,0.197c-0.055-0.032-0.104-0.055-0.15-0.07c-0.295-0.111-0.571-0.075-0.83,0.102l-0.011,0.01
			c-0.136-0.148-0.27-0.264-0.383-0.341c-0.25-0.17-0.483-0.222-0.655-0.222c-0.22,0-0.401,0.07-0.556,0.181
			c-0.177,0.128-0.349,0.343-0.399,0.689c-0.007,0.046-0.011,0.101-0.011,0.159c-5.416,1.068-9.758,2.779-12.271,4.857
			c-0.411,0.004-0.785,0.192-1.048,0.508c-0.204,0.247-0.338,0.571-0.349,0.932l-0.295,0.434c-0.172,0.141-0.297,0.408-0.383,0.671
			c0.025-0.034,0.05-0.067,0.077-0.103c0.177,0.021,0.726-0.781,0.726-1.156c0-0.357,0.256-0.648,0.572-0.648
			c0.315,0,0.574,0.291,0.574,0.648c0.141-0.276,0.433-0.39,0.687-0.287c0.027-0.101,0.088-0.229,0.2-0.397
			c0.211-0.315,0.798-0.084,0.798,0.633c0.188-0.619,0.61-0.833,0.937-0.474c0.329,0.355,0.442,1.149,0.252,1.771
			c0.329-0.358,0.749-0.146,0.939,0.474s0.077,1.413-0.252,1.771c0.073,0,0.145,0.021,0.211,0.061
			c0.367,0.098,0.749,0.217,1.138,0.354c0.025-0.048,0.052-0.091,0.082-0.13c-0.241,0-0.447-0.324-0.538-0.786
			c-0.812-0.995-0.701-1.798,0.422-2.048c-0.188-0.41-0.646-0.978-0.51-1.51c0.163-0.629,0.934-0.938,1.213-0.572
			c-0.161-0.631-0.998-1.252-0.717-1.617c0.281-0.362,1.574-0.33,1.735,0.3c0-0.728-0.413-1.161-0.088-1.161
			c0.326,0,1.265,0.434,1.265,1.161c0.161-0.63,1.073-2.052,1.354-1.687c0.281,0.362-0.175,2.373-0.338,3.004
			c0.247-0.319,0.848-0.798,1.029-0.338c0.175-0.587,0.426-1.525,0.608-1.439c-0.483-0.74,0.526-0.44,0.771-0.651
			c-0.004-0.395,0.025-0.721,0.145-0.745c0.075-0.017,0.587,1.414,0.651,1.435c0.145-0.127,0.311-0.089,0.451,0.141
			c-0.156-0.76,0.021-0.887,0.291-1.327c0.272-0.438,0.537-1.021,0.694-0.262c0-0.838-0.345-1.895-0.104-1.989l0.039-0.007
			c0.315,0,1.2,1.12,1.2,1.996c0.156-0.76,0.2-1.949,0.472-1.511c0.063,0.104,0.422,1.167,0.467,1.319
			c0.102-0.314,1.304,0.889,1.651,0.674c0.653-0.406,0.476-1.846,0.782-1.352c0.061-0.633-0.601-1.676,0.12-1.78
			c0.719-0.104,2.549,0.769,2.488,1.401c0.413-0.601,0.315,1.012,0.712,0.518c1.009-1.264,1.665-1.953,2.061-2.254l0.202-0.135
			l0.091-0.038l0.057-0.014l0.061,0.003c0.011,0.002,0.021,0.006,0.029,0.011l0.041,0.046l0.018,0.045l0.009,0.05v0.019
			c0.009,0.182-0.077,0.487-0.222,0.848c0.109-0.045-0.458,1.479-0.256,1.472c0.127-0.021,0.619-1.358,0.757-1.417
			c0.032,0.068,0.513,0.601,0.769,0.564c0.325-0.045,0,0,0.089,0.709c0-0.088,0.512-0.954,0.889-0.954s0.474,0.866,0.474,0.954
			c0.072-0.029,0.177-0.049,0.297-0.063c0.213-0.132,0.447-0.135,0.665,0.009c0.05,0.009,0.095,0.019,0.133,0.027
			c-0.195-0.726-0.104-1.59,0.205-2.134l0.145-0.211l0.152-0.152l0.143-0.09l0.145-0.053l0.125-0.014l0.166,0.027l0.141,0.063
			l0.141,0.104l0.106,0.111l0.1,0.138c0.084,0.132,0.159,0.292,0.218,0.479c0-0.132,0.021-0.276,0.057-0.427l0.258-0.703
			l0.416-0.707c0.088-0.127,0.182-0.247,0.271-0.354c0.275-0.32,0.551-0.533,0.748-0.533c0.223,0,0.311,0.27,0.336,0.658
			l-0.063,2.065c0.035-0.116,0.105-0.206,0.201-0.278l0.088-0.055l0.223-0.091l0.285-0.055l0.656,0.007l0.793,0.161l0.508,0.2
			l0.203,0.124l0.097,0.084c0.485,0.508-1.022,0.864-1.302,1.746c0.152-0.161,0.32-0.24,0.483-0.247
			c0.043-0.045,0.091-0.075,0.143-0.082c0.159-0.022,0.671-0.832,0.827-0.528c0.107,0.144-0.143,1.309-0.072,1.53
			c0.075,0.236,0.118,0.488,0.132,0.742c0.009,0.055,0.019,0.111,0.027,0.166c0.029-0.982,0.851-2.43,1.227-1.922
			c0.073,0.098,0.046,0.434,0,0.809c0.386-0.389,1.182,0.188,1.524,0.603c0.002-0.108,0.1-0.53,0.149-0.841
			c-0.173-0.051-0.187-0.228-0.014-0.346c0.062-0.043,0.05,0.123,0.014,0.346c0.147,0.043,0.41-0.008,0.775-0.262
			c0.043-0.038,0.084-0.07,0.13-0.1c-0.073-0.344-0.297-0.775-0.35-1.111l-0.012-0.172l0.012-0.08l0.018-0.054l0.027-0.05
			l0.037-0.045c0.004-0.005,0.008-0.008,0.014-0.012c0.355-0.326,1.398-0.005,1.605,0.561v-0.029
			c0.006-0.617,0.258-0.397,0.662-0.397h0.038c0.399-0.014,0.786-0.206,0.786,0.427l0.214-0.411l0.365-0.465l0.247-0.22
			c0.209-0.154,0.41-0.213,0.547-0.088c0.086,0.078,0.138,0.227,0.162,0.412l0.006,0.71l-0.166,0.966
			c-0.027,0.106-0.057,0.201-0.084,0.281c0.057-0.055,0.131-0.104,0.218-0.147l0.321-0.124l0.309-0.055l0.272,0.009l0.154,0.04
			l0.116,0.06l0.081,0.067l0.055,0.068l0.043,0.08l0.029,0.105l0.017,0.178c-0.014,0.601-0.565,1.487-0.871,1.771
			c0.338,0,0.623,0.357,0.714,0.848c0.202-0.166,0.717-0.826,0.964-0.853c0.65-0.068,0.848,1.021,0.782,1.748
			c0.349-0.605,0.993-0.902,1.509-0.722c0.088-0.251,0.321-0.927,0.57-1.313l0.195-0.23l0.029-0.021
			c0.118-0.07,0.238-0.102,0.359-0.102h0.016c0.603,0.016,1.197,0.813,1.539,1.422l-0.17-0.637c0.072,0.014,0.465,0.623,1.01,0.623
			h0.038c0.304-0.002,0.521-0.041,0.673-0.041h0.019c0.233,0.007,0.306,0.118,0.306,0.624l0.008-0.012
			c0.168-0.272,0.598-0.132,0.941,0.168c0.008-0.222,0.008-0.427-0.008-0.597c1.526,1.529,2.32,3.202,2.32,4.867
			c0,3.769-1.019,13.859-8.381,20.89c-4.402,4.204-11.069,7.372-21.208,7.343C130.145,202.951,123.486,199.785,119.085,195.601z
			 M151.953,165.501c-0.621-0.105-1.252-0.205-1.896-0.294c-0.017-0.229-0.101-0.47-0.327-0.708c-0.182-0.19-0.51-0.4-0.934-0.555
			c-0.54-0.195-1.24-0.322-1.835-0.295c0.011-0.25,0.017-0.492,0.009-0.711c3.219,0.291,6.228,0.781,8.922,1.434
			c-0.019,0.021-0.037,0.041-0.055,0.062c-0.057-0.007-0.115-0.011-0.18-0.011c-0.143,0-0.313,0.038-0.484,0.038
			c-0.281,0-0.514-0.048-0.67-0.012c-0.035,0.007-0.072,0.017-0.105,0.03c-0.182-0.101-0.375-0.176-0.572-0.223
			c-0.599-0.143-1.172-0.002-1.494,0.293c-0.256,0.235-0.388,0.549-0.381,0.932L151.953,165.501z M159.661,166.65
			c-0.2-0.554-0.679-0.859-1.281-0.902l0.014-0.697c1.513,0.459,2.896,0.971,4.13,1.529c1.503,0.68,2.789,1.446,3.844,2.271
			c-0.021,0-0.041-0.002-0.063-0.002c-0.165-0.004-0.408,0.041-0.754,0.041c-0.073,0-0.111-0.084-0.154-0.127
			c-0.139-0.129-0.24-0.248-0.293-0.291c-0.152-0.124-0.299-0.179-0.426-0.199c-0.241-0.258-0.504-0.477-0.77-0.607
			c-0.506-0.25-1.031-0.268-1.542,0.036c-0.177,0.104-0.392,0.329-0.575,0.638c-0.649-0.295-1.341-0.576-2.073-0.844
			C159.763,167.177,159.745,166.883,159.661,166.65z M183.24,257.996h-7.399l-21.078-27.354v27.354h-7.796v-41.23h7.399
			l21.077,27.818v-27.818h7.797V257.996z M206.412,26.148h9.113c7.588,0,11.381,3.533,11.381,10.599v2.817
			c0,3.39-0.887,6.068-2.66,8.037c-1.772,1.968-4.354,2.952-7.744,2.952h-10.09V26.148z M209.22,250.597
			c3.216,0,5.43-0.674,6.641-2.017c1.211-1.345,1.816-3.249,1.816-5.717v-26.099h8.261v26.364c0,5.374-1.411,9.261-4.229,11.663
			c-2.818,2.398-6.982,3.601-12.488,3.601s-9.68-1.211-12.521-3.636c-2.842-2.422-4.262-6.299-4.262-11.628v-26.364h8.26v26.099
			c0,2.556,0.605,4.483,1.816,5.782C203.726,249.946,205.96,250.597,209.22,250.597z M182.741,26.148h8.45
			c3.755,0,6.471,0.651,8.154,1.955c1.682,1.304,2.521,3.338,2.521,6.102c0,2.059-0.429,3.676-1.291,4.851
			c-0.859,1.172-2.281,2.021-4.263,2.542l5.554,8.955h-5.631l-5.045-8.408h-3.561v8.408h-4.89V26.148z M157.39,34.793
			c0-2.869,0.887-5.066,2.66-6.59c1.773-1.526,4.303-2.288,7.588-2.288c3.283,0,5.814,0.762,7.588,2.288
			c1.773,1.524,2.658,3.721,2.658,6.59v7.118c0,2.869-0.885,5.064-2.658,6.59c-1.773,1.526-4.305,2.288-7.588,2.288
			c-3.285,0-5.814-0.762-7.588-2.288c-1.773-1.526-2.66-3.721-2.66-6.59V34.793z M162.609,81.811c0,10.98-44.692,10.98-44.692,0
			s10.012-19.896,22.346-19.896C152.594,61.915,162.609,70.831,162.609,81.811z M125.675,90.791
			c2.444,0.474,5.739,0.417,7.828-0.084c0.206,0.021,0.415,0.043,0.624,0.062c0.594,0.728,3.127,1.286,6.136,1.286
			s5.54-0.558,6.136-1.286c0.209-0.018,0.417-0.041,0.624-0.062c2.088,0.501,5.383,0.558,7.826,0.084
			c2.635-0.508,3.376-1.458,1.811-2.163l0.032-0.012c1.903,0.114,3.871-0.039,5.313-0.374c-4.928,8.173-38.555,8.173-43.485,0
			c1.442,0.335,3.411,0.488,5.313,0.374l0.032,0.012C122.298,89.333,123.04,90.283,125.675,90.791z M161.517,85.598
			c0.098-0.116,0.189-0.233,0.275-0.352c0.283-0.059,0.544-0.125,0.782-0.195c0.016,0.265,0.026,0.533,0.032,0.8
			C162.285,85.757,161.921,85.671,161.517,85.598z M117.919,85.852c0.004-0.268,0.016-0.535,0.032-0.8
			c0.238,0.072,0.499,0.136,0.782,0.195c0.086,0.118,0.177,0.236,0.274,0.352C118.604,85.671,118.241,85.757,117.919,85.852z
			 M118.058,88.329c2.635,9.597,41.776,9.597,44.411,0c0.093,0.322,0.141,0.657,0.141,1.002c0,10.613-10.015,12.141-22.346,12.141
			c-12.334,0-22.346-1.528-22.346-12.141C117.917,88.986,117.965,88.65,118.058,88.329z M133.682,34.401
			c0-2.79,0.839-4.9,2.521-6.336c1.683-1.433,4.152-2.15,7.411-2.15c6.467,0,9.701,2.776,9.701,8.329v1.213h-4.89v-1.213
			c0-1.329-0.34-2.295-1.019-2.894c-0.676-0.601-1.928-0.9-3.752-0.9c-1.93,0-3.261,0.333-3.989,0.998
			c-0.73,0.665-1.095,1.637-1.095,2.914v7.978c0,1.252,0.383,2.218,1.152,2.896c0.771,0.678,2.08,1.016,3.933,1.016
			c1.798,0,3.043-0.306,3.734-0.918s1.036-1.61,1.036-2.993v-1.054h4.89v1.134c0,2.841-0.814,4.948-2.445,6.315
			c-1.63,1.37-4.047,2.054-7.256,2.054c-3.259,0-5.729-0.716-7.411-2.152c-1.683-1.433-2.521-3.544-2.521-6.336V34.401z
			 M107.352,26.148h4.381l12.477,16.466V26.148h4.615v24.405h-4.381l-12.477-16.191v16.191h-4.615V26.148z M110.962,115.924
			c6.667-4.188,17.298-7.03,29.301-7.03c12.002,0,22.633,2.841,29.301,7.03c5.814,3.651,8.834,8.467,8.834,13.368
			c0,4.901-3.02,9.717-8.834,13.37c-6.668,4.187-17.299,7.027-29.301,7.027c-12.003,0-22.634-2.841-29.301-7.027
			c-5.816-3.653-8.837-8.469-8.837-13.37C102.125,124.391,105.146,119.575,110.962,115.924z M82,34.793
			c0-2.869,0.886-5.066,2.66-6.59c1.773-1.526,4.302-2.288,7.588-2.288c3.286,0,5.814,0.762,7.587,2.288
			c1.773,1.524,2.66,3.721,2.66,6.59v7.118c0,2.869-0.887,5.064-2.66,6.59c-1.773,1.526-4.302,2.288-7.587,2.288
			c-3.286,0-5.814-0.762-7.588-2.288C82.886,46.975,82,44.78,82,41.911V34.793z M94.875,216.765h7.202v41.23h-7.93v-25.967
			l-12.819,22.466h-0.925l-13.279-22.797v26.298h-7.865v-41.23h7.599l14.404,24.117L94.875,216.765z M58.291,34.401
			c0-2.79,0.841-4.9,2.524-6.336c1.681-1.433,4.152-2.15,7.411-2.15c6.467,0,9.699,2.776,9.699,8.329v1.213h-4.889v-1.213
			c0-1.329-0.338-2.295-1.016-2.894c-0.678-0.601-1.93-0.9-3.755-0.9c-1.93,0-3.259,0.333-3.989,0.998
			c-0.73,0.665-1.095,1.637-1.095,2.914v7.978c0,1.252,0.386,2.218,1.154,2.896c0.769,0.678,2.08,1.016,3.93,1.016
			c1.8,0,3.045-0.306,3.735-0.918c0.691-0.612,1.036-1.61,1.036-2.993v-1.054h4.889v1.134c0,2.841-0.814,4.948-2.445,6.315
			c-1.628,1.37-4.047,2.054-7.254,2.054c-3.259,0-5.73-0.716-7.411-2.152c-1.683-1.433-2.524-3.544-2.524-6.336V34.401z"/>
		<path fill="none" d="M120.897,121.595c0.041,0.068,0.084,0.132,0.129,0.193c0.002,0.648,0.281,1.231,0.726,1.637
			c0,0.022,0,0.045,0,0.068c0,1.116,0.823,2.041,1.893,2.202v0.002c-1.047,0.181-1.843,1.095-1.843,2.195
			c0,1.229,0.998,2.227,2.227,2.227c1.175,0,2.141-0.914,2.22-2.07c0.44-0.077,0.834-0.281,1.147-0.576
			c0.238,0.309,0.553,0.553,0.918,0.703c-0.141,0.292-0.22,0.619-0.22,0.966c0,0.76,0.381,1.431,0.964,1.834l3.477-1.594
			c0.009-0.079,0.014-0.159,0.014-0.24c0-0.93-0.572-1.728-1.383-2.062c0.032-0.063,0.059-0.129,0.083-0.197
			c0.03,0.002,0.059,0.002,0.089,0.002c0.17,0,0.335-0.018,0.494-0.054c0.197,0.832,0.862,1.485,1.703,1.664
			c0.068,0.114,0.145,0.223,0.231,0.322l3.884-1.812c-0.07-0.433-0.265-0.823-0.544-1.134c0.052-0.039,0.104-0.08,0.154-0.125
			c0.125,0.192,0.279,0.365,0.456,0.51c0.041,0.22,0.111,0.426,0.211,0.619l4.032-1.884c-0.098-0.233-0.233-0.444-0.399-0.63
			c0.054-0.039,0.104-0.08,0.154-0.125c0.152,0.236,0.347,0.44,0.573,0.601l3.52-1.644c0.003-0.054,0.005-0.109,0.005-0.166
			c0-0.571-0.218-1.095-0.574-1.49c0.554-0.406,0.912-1.059,0.912-1.798c0-1.229-0.998-2.227-2.227-2.227
			c-1.229,0-2.228,0.998-2.228,2.227c0,0.574,0.218,1.098,0.573,1.492c-0.051,0.039-0.104,0.082-0.153,0.125
			c-0.125-0.192-0.279-0.365-0.456-0.51c-0.054-0.293-0.166-0.567-0.322-0.808c0.013-0.098,0.02-0.197,0.02-0.299
			c0-1.045-0.723-1.925-1.696-2.163c-0.054-0.123-0.122-0.238-0.197-0.35c-0.077-1.159-1.043-2.075-2.222-2.075
			c-1.229,0-2.227,0.998-2.227,2.227c0,0.406,0.108,0.787,0.299,1.114c-0.041,0.068-0.075,0.138-0.107,0.208
			c-0.047-0.05-0.095-0.098-0.145-0.143c0.002-0.023,0.002-0.045,0.002-0.068c0-1.116-0.823-2.041-1.896-2.202
			c0.004-0.052,0.007-0.107,0.007-0.159c0-0.855-0.483-1.599-1.19-1.971c-0.871,0.104-1.73,0.225-2.574,0.36
			c-0.426,0.406-0.689,0.978-0.689,1.61c0,0.406,0.109,0.785,0.297,1.113c-0.039,0.068-0.075,0.136-0.106,0.208
			c-0.07-0.077-0.147-0.149-0.227-0.218c-0.191-1.036-1.1-1.821-2.191-1.821c-1.229,0-2.227,0.998-2.227,2.227
			c0,0.691,0.315,1.311,0.812,1.719c0.045,0.254,0.136,0.492,0.261,0.708c-0.09,0.159-0.163,0.329-0.215,0.508
			c-0.027-0.041-0.054-0.082-0.084-0.12c-0.004-1.063-0.757-1.955-1.76-2.168c-0.388-0.655-1.102-1.095-1.918-1.095
			c-1.229,0-2.227,0.998-2.227,2.227C119.137,120.486,119.892,121.382,120.897,121.595z M131.385,121.325
			c0.043,0.057,0.088,0.114,0.138,0.168l-0.156,0.12C131.378,121.521,131.385,121.423,131.385,121.325z"/>
		<path fill="none" d="M140.791,116.479c0.268,0.136,0.513,0.301,0.737,0.497c0.642-0.558,1.479-0.896,2.395-0.896
			c1.011,0,1.925,0.411,2.59,1.073c0.662,0.662,1.072,1.578,1.072,2.587c0,0.596-0.146,1.161-0.396,1.658
			c-0.057,0.111-0.119,0.218-0.187,0.32c0.1,0.261,0.173,0.535,0.211,0.818l8.487-3.966c3.354-1.424,5.883,0.243,6.928,2.556
			l0.223-0.104c3.356-1.426,5.885,0.243,6.928,2.556c1.111,2.46,0.482,5.676-2.585,6.923l-28.348,13.25
			c-0.259,0.113-0.513,0.211-0.764,0.29c-0.479,0.375-1.016,0.64-1.592,0.771c1.238,0.065,2.497,0.1,3.773,0.1
			c18.412,0,33.358-6.998,33.358-15.62c0-8.619-14.946-15.617-33.358-15.617c-0.937,0-1.866,0.018-2.785,0.052
			c0.873,0.057,1.662,0.417,2.263,0.979C140.247,115.18,140.619,115.794,140.791,116.479z"/>
		<path fill="none" d="M137.408,142.759c0.746-0.694,1.229-1.81,1.229-3.065c0-1.46-0.651-2.73-1.607-3.368
			c-0.134-0.066-0.259-0.134-0.375-0.211c-0.322-0.147-0.671-0.229-1.032-0.229c-1.576,0-2.871,1.528-3.004,3.474
			C132.786,141.483,134.782,143.408,137.408,142.759z"/>
		<path d="M161.791,168.339c0.184-0.309,0.398-0.533,0.575-0.638c0.511-0.304,1.036-0.286,1.542-0.036
			c0.266,0.131,0.528,0.35,0.77,0.607c0.127,0.021,0.273,0.075,0.426,0.199c0.053,0.043,0.154,0.162,0.293,0.291
			c0.043,0.043,0.081,0.127,0.154,0.127c0.346,0,0.589-0.045,0.754-0.041c0.021,0,0.041,0.002,0.063,0.002
			c-1.055-0.825-2.341-1.592-3.844-2.271c-1.234-0.559-2.617-1.07-4.13-1.529l-0.014,0.697c0.603,0.043,1.081,0.349,1.281,0.902
			c0.084,0.233,0.103,0.527,0.057,0.846C160.45,167.763,161.141,168.044,161.791,168.339z"/>
		<path d="M200.697,216.765h-8.26v26.364c0,5.329,1.42,9.206,4.262,11.628c2.842,2.425,7.016,3.636,12.521,3.636
			s9.67-1.202,12.488-3.601c2.818-2.402,4.229-6.289,4.229-11.663v-26.364h-8.261v26.099c0,2.468-0.605,4.372-1.816,5.717
			c-1.211,1.343-3.425,2.017-6.641,2.017c-3.26,0-5.494-0.651-6.707-1.951c-1.211-1.299-1.816-3.227-1.816-5.782V216.765z"/>
		<polygon points="175.443,244.583 154.366,216.765 146.966,216.765 146.966,257.996 154.762,257.996 154.762,230.641 
			175.84,257.996 183.24,257.996 183.24,216.765 175.443,216.765 		"/>
		<path d="M224.246,47.601c1.773-1.969,2.66-4.646,2.66-8.037v-2.817c0-7.066-3.793-10.599-11.381-10.599h-9.113v24.405h10.09
			C219.892,50.553,222.473,49.569,224.246,47.601z M211.3,46.174V30.53h3.717c2.347,0,4.072,0.501,5.182,1.506
			c1.108,1.002,1.662,2.574,1.662,4.712v2.817c0,2.294-0.463,3.971-1.389,5.025c-0.924,1.057-2.575,1.585-4.947,1.585H211.3z"/>
		<path d="M123.865,88.628l-0.032-0.012c-1.903,0.114-3.871-0.039-5.313-0.374c4.93,8.173,38.558,8.173,43.485,0
			c-1.442,0.335-3.41,0.488-5.313,0.374l-0.032,0.012c1.565,0.705,0.824,1.655-1.811,2.163c-2.443,0.474-5.738,0.417-7.826-0.084
			c-0.207,0.021-0.415,0.043-0.624,0.062c-0.597,0.728-3.127,1.286-6.136,1.286s-5.542-0.558-6.136-1.286
			c-0.208-0.018-0.417-0.041-0.624-0.062c-2.089,0.501-5.384,0.558-7.828,0.084C123.04,90.283,122.298,89.333,123.865,88.628z"/>
		<path d="M140.263,101.472c12.332,0,22.346-1.528,22.346-12.141c0-0.345-0.048-0.68-0.141-1.002
			c-2.635,9.597-41.775,9.597-44.411,0c-0.093,0.322-0.141,0.657-0.141,1.002C117.917,99.943,127.929,101.472,140.263,101.472z"/>
		<polygon points="111.967,34.362 124.443,50.553 128.825,50.553 128.825,26.148 124.21,26.148 124.21,42.614 111.733,26.148 
			107.352,26.148 107.352,50.553 111.967,50.553 		"/>
		<path d="M136.204,48.637c1.683,1.436,4.152,2.152,7.411,2.152c3.209,0,5.626-0.685,7.256-2.054
			c1.631-1.368,2.445-3.474,2.445-6.315v-1.134h-4.89v1.054c0,1.383-0.345,2.381-1.036,2.993s-1.937,0.918-3.734,0.918
			c-1.853,0-3.162-0.338-3.933-1.016c-0.769-0.678-1.152-1.644-1.152-2.896v-7.978c0-1.277,0.365-2.25,1.095-2.914
			c0.728-0.665,2.059-0.998,3.989-0.998c1.824,0,3.076,0.299,3.752,0.9c0.679,0.599,1.019,1.565,1.019,2.894v1.213h4.89v-1.213
			c0-5.553-3.234-8.329-9.701-8.329c-3.259,0-5.729,0.717-7.411,2.15c-1.683,1.436-2.521,3.546-2.521,6.336v7.9
			C133.682,45.093,134.521,47.204,136.204,48.637z"/>
		<path d="M131.385,121.325c0,0.098-0.007,0.195-0.018,0.288l0.156-0.12C131.473,121.439,131.428,121.382,131.385,121.325z"/>
		<path d="M110.962,142.662c6.667,4.187,17.298,7.027,29.301,7.027c12.002,0,22.633-2.841,29.301-7.027
			c5.814-3.653,8.834-8.469,8.834-13.37c0-4.9-3.02-9.717-8.834-13.368c-6.668-4.188-17.299-7.03-29.301-7.03
			c-12.003,0-22.634,2.841-29.301,7.03c-5.816,3.651-8.837,8.467-8.837,13.368C102.125,134.192,105.146,139.009,110.962,142.662z
			 M130.673,132.709c-0.286-0.192-0.59-0.347-0.907-0.46l2.218-1.039l10.592-4.853c0.088-0.041,0.172-0.091,0.252-0.147l3.528-1.587
			c0.197-0.082,0.372-0.208,0.513-0.37l9.384-4.383c0.918-0.39,1.755-0.47,2.483-0.327c-0.871,2.291-5.686,5.955-12.09,9.05
			l-1.498,0.701C138.746,132.186,132.947,133.51,130.673,132.709z M131.487,137.242c0,0.025,0,0.048,0,0.073
			c-0.197,0.521-0.295,1.061-0.306,1.596c-0.213,0.556-0.533,1.034-0.923,1.397c-2.628,0.648-4.624-1.277-4.792-3.397
			c0.134-1.946,1.429-3.476,3.004-3.476c0.363,0,0.71,0.082,1.032,0.229c0.118,0.077,0.243,0.147,0.376,0.21
			C130.834,134.514,131.487,135.782,131.487,137.242z M139.297,136.777c0.798,0.023,1.728-0.045,2.764-0.215
			c3.103-0.506,7.3-1.869,11.706-3.939s8.134-4.431,10.504-6.495c1.52-1.324,2.501-2.587,2.893-3.594
			c2.205,1.521,2.529,5.458-0.541,6.676l-26.949,12.595c0.24-0.642,0.376-1.356,0.376-2.111
			C140.05,138.605,139.766,137.601,139.297,136.777z M153.166,131.346c-6.739,3.166-12.966,4.649-15.34,3.812
			c-0.286-0.19-0.59-0.347-0.91-0.46l26.486-12.379c0.921-0.39,1.758-0.467,2.483-0.324
			C164.988,124.359,159.882,128.189,153.166,131.346z M157.064,123.727l0.057-0.05c1.52-1.324,2.499-2.585,2.892-3.594
			c0.589,0.406,1.046,0.987,1.338,1.64L157.064,123.727z M134.802,134.129l-0.36,0.17c-0.726,0.347-1.318,0.767-1.787,1.231
			c-0.127-0.431-0.299-0.837-0.508-1.204C132.918,134.346,133.809,134.285,134.802,134.129z M135.623,135.886
			c0.361,0,0.71,0.082,1.032,0.229c0.116,0.077,0.241,0.145,0.375,0.211c0.957,0.637,1.607,1.907,1.607,3.368
			c0,1.256-0.483,2.372-1.229,3.065c-2.626,0.648-4.622-1.276-4.789-3.399C132.752,137.415,134.047,135.886,135.623,135.886z
			 M140.263,113.674c18.412,0,33.358,6.998,33.358,15.617c0,8.622-14.946,15.62-33.358,15.62c-1.276,0-2.535-0.034-3.773-0.1
			c0.576-0.132,1.114-0.396,1.592-0.771c0.251-0.079,0.505-0.177,0.764-0.29l28.348-13.25c3.067-1.247,3.696-4.463,2.585-6.923
			c-1.043-2.313-3.571-3.982-6.928-2.556l-0.223,0.104c-1.045-2.313-3.573-3.98-6.928-2.556l-8.487,3.966
			c-0.038-0.283-0.111-0.558-0.211-0.818c0.067-0.102,0.13-0.208,0.187-0.32c0.251-0.497,0.396-1.062,0.396-1.658
			c0-1.009-0.41-1.925-1.072-2.587c-0.665-0.662-1.579-1.073-2.59-1.073c-0.916,0-1.753,0.338-2.395,0.896
			c-0.225-0.195-0.47-0.361-0.737-0.497c-0.172-0.685-0.544-1.299-1.05-1.773c-0.601-0.563-1.39-0.923-2.263-0.979
			C138.396,113.692,139.326,113.674,140.263,113.674z M136.68,113.763c-0.785,0.12-1.487,0.492-2.025,1.029
			c-0.075,0.075-0.147,0.152-0.215,0.234c-0.123-0.388-0.309-0.749-0.544-1.068C134.812,113.876,135.739,113.81,136.68,113.763z
			 M123.307,115.842c-0.068,0.118-0.129,0.24-0.181,0.367c-0.136-0.075-0.277-0.141-0.419-0.197
			C122.906,115.953,123.105,115.896,123.307,115.842z M121.364,117.191c0.816,0,1.531,0.44,1.918,1.095
			c1.002,0.213,1.755,1.104,1.76,2.168c0.03,0.039,0.057,0.08,0.084,0.12c0.052-0.179,0.125-0.349,0.215-0.508
			c-0.125-0.215-0.215-0.454-0.261-0.708c-0.497-0.408-0.812-1.027-0.812-1.719c0-1.229,0.998-2.227,2.227-2.227
			c1.091,0,2,0.785,2.191,1.821c0.079,0.068,0.156,0.141,0.227,0.218c0.032-0.072,0.068-0.141,0.106-0.208
			c-0.188-0.329-0.297-0.708-0.297-1.113c0-0.633,0.263-1.204,0.689-1.61c0.843-0.136,1.703-0.256,2.574-0.36
			c0.708,0.372,1.19,1.116,1.19,1.971c0,0.052-0.002,0.106-0.007,0.159c1.073,0.161,1.896,1.086,1.896,2.202
			c0,0.023,0,0.045-0.002,0.068c0.05,0.045,0.098,0.093,0.145,0.143c0.032-0.07,0.066-0.141,0.107-0.208
			c-0.191-0.327-0.299-0.708-0.299-1.114c0-1.229,0.998-2.227,2.227-2.227c1.179,0,2.146,0.916,2.222,2.075
			c0.075,0.111,0.143,0.227,0.197,0.35c0.973,0.238,1.696,1.118,1.696,2.163c0,0.102-0.007,0.202-0.02,0.299
			c0.156,0.24,0.268,0.515,0.322,0.808c0.177,0.145,0.331,0.317,0.456,0.51c0.05-0.043,0.102-0.086,0.153-0.125
			c-0.355-0.395-0.573-0.918-0.573-1.492c0-1.229,0.998-2.227,2.228-2.227c1.229,0,2.227,0.998,2.227,2.227
			c0,0.739-0.358,1.393-0.912,1.798c0.356,0.395,0.574,0.918,0.574,1.49c0,0.057-0.002,0.111-0.005,0.166l-3.52,1.644
			c-0.227-0.161-0.421-0.365-0.573-0.601c-0.05,0.045-0.1,0.086-0.154,0.125c0.166,0.186,0.301,0.397,0.399,0.63l-4.032,1.884
			c-0.1-0.192-0.17-0.399-0.211-0.619c-0.177-0.146-0.331-0.318-0.456-0.51c-0.05,0.045-0.102,0.086-0.154,0.125
			c0.279,0.311,0.474,0.701,0.544,1.134l-3.884,1.812c-0.086-0.1-0.164-0.208-0.231-0.322c-0.841-0.179-1.506-0.832-1.703-1.664
			c-0.159,0.036-0.324,0.054-0.494,0.054c-0.03,0-0.059,0-0.089-0.002c-0.025,0.068-0.052,0.134-0.083,0.197
			c0.812,0.333,1.383,1.132,1.383,2.062c0,0.082-0.005,0.161-0.014,0.24l-3.477,1.594c-0.583-0.404-0.964-1.075-0.964-1.834
			c0-0.347,0.08-0.673,0.22-0.966c-0.365-0.15-0.68-0.395-0.918-0.703c-0.313,0.295-0.708,0.499-1.147,0.576
			c-0.08,1.156-1.045,2.07-2.22,2.07c-1.229,0-2.227-0.998-2.227-2.227c0-1.1,0.796-2.014,1.843-2.195v-0.002
			c-1.07-0.161-1.893-1.086-1.893-2.202c0-0.022,0-0.045,0-0.068c-0.445-0.406-0.724-0.989-0.726-1.637
			c-0.045-0.061-0.088-0.125-0.129-0.193c-1.005-0.213-1.76-1.109-1.76-2.177C119.137,118.189,120.135,117.191,121.364,117.191z
			 M115.459,122.242c0-1.229,0.998-2.227,2.227-2.227c1.229,0,2.227,0.998,2.227,2.227c0,0.054-0.002,0.106-0.007,0.159
			c1.073,0.161,1.896,1.086,1.896,2.204c0,1.229-1,2.227-2.229,2.227c-1.229,0-2.227-0.998-2.227-2.227
			c0-0.054,0.002-0.106,0.007-0.159C116.28,124.285,115.459,123.359,115.459,122.242z M118.196,117.582
			c-0.179,0.308-0.313,0.646-0.396,1.002c-0.039-0.002-0.077-0.002-0.114-0.002c-1.011,0-1.925,0.41-2.589,1.073
			c-0.662,0.662-1.073,1.578-1.073,2.587c0,0.914,0.335,1.748,0.887,2.388c0.311,0.36,0.687,0.658,1.116,0.875
			c0.163,0.648,0.501,1.229,0.959,1.687c0.663,0.662,1.579,1.073,2.587,1.073c0.277,0,0.547-0.032,0.805-0.088
			c0.068,0.896,0.463,1.703,1.062,2.304c0.664,0.662,1.578,1.073,2.589,1.073c0.964,0,1.841-0.375,2.495-0.984
			c0.109-0.1,0.211-0.208,0.309-0.322c0.065,0.208,0.149,0.408,0.249,0.599c0.159,0.302,0.358,0.578,0.592,0.823l-0.383,0.179
			c-2.508,1.202-3.409,3.247-3.241,5.168c-0.002,0.075-0.004,0.149-0.004,0.227c0,1.587,0.601,2.996,1.506,3.93
			c0.793,0.818,1.816,1.288,2.92,1.288c0.9,0,1.749-0.313,2.46-0.871l0.499-0.213c0.256,0.887,0.703,1.66,1.27,2.244
			c0.451,0.468,0.975,0.819,1.546,1.037c-15.542-1.326-27.341-7.706-27.341-15.366C106.905,124.632,111.273,120.445,118.196,117.582
			z"/>
		<path d="M162.575,85.052c-0.238,0.07-0.499,0.136-0.782,0.195c-0.086,0.118-0.178,0.236-0.275,0.352
			c0.404,0.073,0.768,0.159,1.09,0.254C162.601,85.584,162.59,85.317,162.575,85.052z"/>
		<path d="M117.917,81.811c0,10.98,44.692,10.98,44.692,0s-10.015-19.896-22.346-19.896
			C127.929,61.915,117.917,70.831,117.917,81.811z M123.214,76.854c0,0-0.651,0.068-1.292-0.928
			c-0.175-0.272-0.095-0.635,0.177-0.81c0.27-0.174,0.633-0.095,0.807,0.177C123.548,76.289,123.214,76.854,123.214,76.854z
			 M157.901,78.135c0.292-0.141,0.642-0.021,0.784,0.27c0.52,1.066,0.123,1.585,0.123,1.585s-0.656-0.007-1.175-1.07
			C157.49,78.627,157.611,78.278,157.901,78.135z M126.856,80.754c-0.325,0-0.587-0.263-0.587-0.587
			c0-1.184,0.587-1.479,0.587-1.479s0.585,0.295,0.585,1.479C127.441,80.491,127.178,80.754,126.856,80.754z M130.736,72.085
			c-0.207,0.25-0.576,0.284-0.823,0.075c-0.25-0.206-0.284-0.576-0.075-0.823c0.76-0.911,1.397-0.762,1.397-0.762
			S131.496,71.176,130.736,72.085z M132.104,85.435c-0.315,0.068-0.628-0.132-0.696-0.447c-0.07-0.315,0.131-0.628,0.446-0.699
			c1.157-0.251,1.569,0.256,1.569,0.256S133.262,85.181,132.104,85.435z M134.281,78.038c-0.302-0.118-0.449-0.46-0.329-0.76
			s0.46-0.447,0.76-0.326c1.102,0.438,1.159,1.088,1.159,1.088S135.38,78.475,134.281,78.038z M136.145,67.107
			c0,0-0.524-0.395-0.311-1.56c0.059-0.317,0.363-0.528,0.68-0.47c0.32,0.057,0.531,0.363,0.472,0.681
			C136.773,66.924,136.145,67.107,136.145,67.107z M154.874,71.733c0.313,0.082,0.499,0.404,0.417,0.714
			c-0.082,0.313-0.403,0.501-0.717,0.417c-1.145-0.302-1.279-0.943-1.279-0.943S153.728,71.432,154.874,71.733z M152.728,80.312
			c0,0,0.645,0.113,0.984,1.25c0.093,0.309-0.084,0.635-0.393,0.728c-0.311,0.093-0.637-0.084-0.728-0.395
			C152.251,80.761,152.728,80.312,152.728,80.312z M148.351,77.081c-0.992,0.649-1.558,0.317-1.558,0.317s-0.075-0.65,0.919-1.297
			c0.27-0.177,0.633-0.102,0.809,0.17C148.699,76.541,148.622,76.904,148.351,77.081z M146.792,66.234c0,0,0.589-0.286,1.528,0.44
			c0.256,0.197,0.304,0.564,0.106,0.821s-0.567,0.304-0.821,0.104C146.667,66.876,146.792,66.234,146.792,66.234z M142.896,83.321
			c0.079,1.182-0.486,1.515-0.486,1.515s-0.603-0.254-0.682-1.436c-0.022-0.322,0.22-0.601,0.544-0.624
			C142.593,82.754,142.873,83,142.896,83.321z M141.494,71.586c0.309-0.097,0.637,0.073,0.735,0.379
			c0.1,0.309-0.07,0.637-0.379,0.737c-1.129,0.361-1.587-0.109-1.587-0.109S140.365,71.947,141.494,71.586z"/>
		<path d="M153.826,164.257c0.197,0.047,0.391,0.122,0.572,0.223c0.033-0.014,0.07-0.023,0.105-0.03
			c0.156-0.036,0.389,0.012,0.67,0.012c0.172,0,0.342-0.038,0.484-0.038c0.064,0,0.123,0.004,0.18,0.011
			c0.018-0.021,0.036-0.041,0.055-0.062c-2.694-0.652-5.703-1.143-8.922-1.434c0.008,0.219,0.002,0.461-0.009,0.711
			c0.595-0.027,1.295,0.1,1.835,0.295c0.424,0.154,0.752,0.364,0.934,0.555c0.227,0.238,0.311,0.479,0.327,0.708
			c0.644,0.089,1.274,0.188,1.896,0.294l-0.002-0.02c-0.007-0.383,0.125-0.696,0.381-0.932
			C152.654,164.255,153.227,164.115,153.826,164.257z"/>
		<path d="M187.63,42.145h3.561l5.045,8.408h5.631l-5.554-8.955c1.981-0.521,3.403-1.37,4.263-2.542
			c0.862-1.175,1.291-2.792,1.291-4.851c0-2.764-0.84-4.798-2.521-6.102c-1.684-1.304-4.399-1.955-8.154-1.955h-8.45v24.405h4.89
			V42.145z M187.63,30.53h3.717c2.111,0,3.564,0.272,4.36,0.821c0.796,0.546,1.192,1.46,1.192,2.737c0,0.939-0.156,1.669-0.469,2.19
			s-0.848,0.907-1.604,1.154c-0.758,0.247-1.853,0.372-3.285,0.372h-3.912V30.53z"/>
		<path d="M117.951,85.052c-0.016,0.265-0.027,0.533-0.032,0.8c0.322-0.095,0.685-0.181,1.088-0.254
			c-0.098-0.116-0.188-0.233-0.274-0.352C118.45,85.188,118.189,85.124,117.951,85.052z"/>
		<path d="M160.05,48.501c1.773,1.526,4.303,2.288,7.588,2.288c3.283,0,5.814-0.762,7.588-2.288c1.773-1.526,2.658-3.721,2.658-6.59
			v-7.118c0-2.869-0.885-5.066-2.658-6.59c-1.773-1.526-4.305-2.288-7.588-2.288c-3.285,0-5.814,0.762-7.588,2.288
			c-1.773,1.524-2.66,3.721-2.66,6.59v7.118C157.39,44.78,158.277,46.975,160.05,48.501z M162.28,34.793
			c0-1.513,0.424-2.615,1.271-3.306c0.848-0.689,2.211-1.037,4.088-1.037s3.238,0.347,4.086,1.037
			c0.849,0.691,1.272,1.793,1.272,3.306v7.118c0,1.513-0.424,2.612-1.272,3.304c-0.848,0.691-2.209,1.036-4.086,1.036
			s-3.24-0.345-4.088-1.036c-0.847-0.692-1.271-1.792-1.271-3.304V34.793z"/>
		<polygon points="59.259,216.765 59.259,257.996 67.124,257.996 67.124,231.698 80.403,254.495 81.328,254.495 94.147,232.029 
			94.147,257.996 102.077,257.996 102.077,216.765 94.875,216.765 81.262,240.882 66.858,216.765 		"/>
		<path d="M169.847,174.746c0-1.665-0.794-3.338-2.32-4.867c0.016,0.17,0.016,0.375,0.008,0.597c-0.344-0.3-0.773-0.44-0.941-0.168
			l-0.008,0.012c0-0.506-0.072-0.617-0.306-0.624h-0.019c-0.151,0-0.369,0.039-0.673,0.041h-0.038c-0.545,0-0.938-0.609-1.01-0.623
			l0.17,0.637c-0.342-0.609-0.937-1.406-1.539-1.422h-0.016c-0.121,0-0.241,0.031-0.359,0.102l-0.029,0.021l-0.195,0.23
			c-0.249,0.386-0.482,1.062-0.57,1.313c-0.516-0.181-1.16,0.116-1.509,0.722c0.065-0.728-0.132-1.816-0.782-1.748
			c-0.247,0.026-0.762,0.687-0.964,0.853c-0.091-0.49-0.376-0.848-0.714-0.848c0.306-0.284,0.857-1.171,0.871-1.771l-0.017-0.178
			l-0.029-0.105l-0.043-0.08l-0.055-0.068l-0.081-0.067l-0.116-0.06l-0.154-0.04l-0.272-0.009l-0.309,0.055l-0.321,0.124
			c-0.087,0.043-0.161,0.093-0.218,0.147c0.027-0.08,0.057-0.175,0.084-0.281l0.166-0.966l-0.006-0.71
			c-0.024-0.186-0.076-0.334-0.162-0.412c-0.137-0.125-0.338-0.066-0.547,0.088l-0.247,0.22l-0.365,0.465l-0.214,0.411
			c0-0.633-0.387-0.44-0.786-0.427h-0.038c-0.404,0-0.656-0.22-0.662,0.397v0.029c-0.207-0.565-1.25-0.887-1.605-0.561
			c-0.006,0.004-0.01,0.007-0.014,0.012l-0.037,0.045l-0.027,0.05l-0.018,0.054l-0.012,0.08l0.012,0.172
			c0.053,0.336,0.276,0.768,0.35,1.111c-0.046,0.029-0.087,0.062-0.13,0.1c-0.365,0.254-0.628,0.305-0.775,0.262
			c-0.05,0.311-0.147,0.732-0.149,0.841c-0.343-0.415-1.139-0.991-1.524-0.603l-0.065,0.578c0.016,0.249,0.041,0.512-0.007,0.657
			c-0.036-0.136-0.022-0.382,0.007-0.657c-0.016-0.25-0.023-0.488,0.065-0.578c0.046-0.375,0.073-0.711,0-0.809
			c-0.376-0.508-1.197,0.939-1.227,1.922c-0.009-0.055-0.019-0.111-0.027-0.166c-0.014-0.254-0.057-0.506-0.132-0.742
			c-0.07-0.222,0.18-1.387,0.072-1.53c-0.156-0.304-0.668,0.506-0.827,0.528c-0.052,0.007-0.1,0.037-0.143,0.082
			c-0.163,0.007-0.331,0.086-0.483,0.247c0.279-0.882,1.787-1.238,1.302-1.746l-0.097-0.084l-0.203-0.124l-0.508-0.2l-0.793-0.161
			l-0.656-0.007l-0.285,0.055l-0.223,0.091l-0.088,0.055c-0.096,0.072-0.166,0.162-0.201,0.278l0.063-2.065
			c-0.025-0.389-0.113-0.658-0.336-0.658c-0.197,0-0.473,0.213-0.748,0.533c-0.09,0.106-0.184,0.227-0.271,0.354l-0.416,0.707
			l-0.258,0.703c-0.036,0.15-0.057,0.295-0.057,0.427c-0.059-0.187-0.134-0.347-0.218-0.479l-0.1-0.138l-0.106-0.111l-0.141-0.104
			l-0.141-0.063l-0.166-0.027l-0.125,0.014l-0.145,0.053l-0.143,0.09l-0.152,0.152l-0.145,0.211c-0.309,0.544-0.4,1.408-0.205,2.134
			c-0.038-0.009-0.083-0.019-0.133-0.027c-0.218-0.144-0.451-0.141-0.665-0.009c-0.12,0.014-0.225,0.033-0.297,0.063
			c0-0.088-0.098-0.954-0.474-0.954s-0.889,0.866-0.889,0.954c-0.089-0.709,0.236-0.754-0.089-0.709
			c-0.256,0.036-0.737-0.496-0.769-0.564c-0.138,0.059-0.63,1.396-0.757,1.417c-0.202,0.007,0.365-1.517,0.256-1.472l-0.771,1.499
			c-0.041,0.1-0.063,0.163-0.057,0.17c-0.027,0.017-0.055,0.032-0.082,0.05c0.045-0.072,0.093-0.145,0.139-0.22
			c0.174-0.417,0.698-1.468,0.771-1.499c0.145-0.36,0.231-0.666,0.222-0.848v-0.019l-0.009-0.05l-0.018-0.045l-0.041-0.046
			c-0.009-0.005-0.018-0.009-0.029-0.011l-0.061-0.003l-0.057,0.014l-0.091,0.038l-0.202,0.135c-0.396,0.301-1.052,0.99-2.061,2.254
			c-0.397,0.494-0.299-1.118-0.712-0.518c0.061-0.633-1.769-1.506-2.488-1.401c-0.721,0.104-0.059,1.147-0.12,1.78
			c-0.306-0.494-0.129,0.945-0.782,1.352c-0.347,0.215-1.549-0.988-1.651-0.674c-0.045-0.152-0.404-1.215-0.467-1.319
			c-0.272-0.438-0.315,0.751-0.472,1.511c0-0.876-0.884-1.996-1.2-1.996l-0.039,0.007c-0.24,0.095,0.104,1.151,0.104,1.989
			c-0.157-0.76-0.422-0.176-0.694,0.262c-0.27,0.44-0.447,0.567-0.291,1.327c-0.141-0.229-0.306-0.268-0.451-0.141
			c-0.063-0.021-0.576-1.451-0.651-1.435c-0.12,0.024-0.149,0.351-0.145,0.745c-0.245,0.211-1.254-0.089-0.771,0.651
			c-0.182-0.086-0.433,0.853-0.608,1.439c0.014-0.014-0.004,0.034-0.029,0.104c-0.041,0.134-0.077,0.24-0.104,0.3
			c-0.014,0.027-0.025,0.057-0.034,0.084l0.168-0.488c-0.181-0.46-0.782,0.019-1.029,0.338c0.163-0.631,0.619-2.642,0.338-3.004
			c-0.281-0.365-1.193,1.057-1.354,1.687c0-0.728-0.939-1.161-1.265-1.161c-0.324,0,0.088,0.434,0.088,1.161
			c-0.161-0.63-1.454-0.662-1.735-0.3c-0.281,0.365,0.556,0.986,0.717,1.617c-0.279-0.365-1.05-0.057-1.213,0.572
			c-0.136,0.532,0.322,1.1,0.51,1.51c-1.123,0.25-1.234,1.053-0.422,2.048c0.091,0.462,0.297,0.786,0.538,0.786
			c-0.03,0.039-0.057,0.082-0.082,0.13c-0.39-0.138-0.771-0.257-1.138-0.354c-0.066-0.04-0.138-0.061-0.211-0.061
			c0.329-0.358,0.442-1.152,0.252-1.771s-0.61-0.832-0.939-0.474c0.19-0.621,0.077-1.415-0.252-1.771
			c-0.326-0.359-0.748-0.146-0.937,0.474c0-0.717-0.587-0.948-0.798-0.633c-0.111,0.168-0.172,0.297-0.2,0.397
			c0.032,0.014,0.063,0.029,0.093,0.049c0.102,0.066,0.177,0.162,0.227,0.271c0.088,0.038,0.172,0.108,0.247,0.211
			c0.116,0.067,0.2,0.167,0.195,0.347c-0.007-0.002-0.013-0.004-0.02-0.007c-0.048-0.136-0.107-0.249-0.175-0.34
			c-0.256-0.154-0.662-0.149-0.567-0.53c-0.254-0.103-0.546,0.011-0.687,0.287c0-0.357-0.259-0.648-0.574-0.648
			c-0.315,0-0.572,0.291-0.572,0.648c0,0.375-0.548,1.178-0.726,1.156c-0.027,0.035-0.052,0.068-0.077,0.103
			c0.086-0.263,0.211-0.53,0.383-0.671l0.295-0.434c0.011-0.36,0.145-0.685,0.349-0.932c0.263-0.315,0.637-0.504,1.048-0.508
			c2.513-2.078,6.855-3.789,12.271-4.857c0-0.059,0.004-0.113,0.011-0.159c0.05-0.347,0.222-0.562,0.399-0.689
			c0.154-0.11,0.336-0.181,0.556-0.181c0.172,0,0.406,0.052,0.655,0.222c0.113,0.077,0.247,0.192,0.383,0.341l0.011-0.01
			c0.259-0.177,0.535-0.213,0.83-0.102c0.045,0.016,0.095,0.038,0.15,0.07c0.494-0.07,0.995-0.139,1.505-0.197
			c0.014-0.078,0.032-0.148,0.057-0.213c0.14-0.373,0.415-0.672,0.977-0.754c0.531-0.076,1.544,0.211,2.295,0.651
			c0.599-0.041,1.204-0.077,1.814-0.104c0.483-0.504,0.826-0.787,1.048-0.909c0.324-0.179,0.587-0.187,0.767-0.157
			c0.295,0.051,0.512,0.202,0.665,0.451c0.075,0.123,0.138,0.307,0.147,0.543l2.037,0.006c0.127-0.33,0.299-0.616,0.503-0.832
			c0.494-0.521,1.068-0.611,1.589-0.428c0.016,0.004,0.034,0.011,0.051,0.018c0.102-0.201,0.217-0.396,0.342-0.58
			c-1.231-0.059-2.488-0.091-3.762-0.091c-8.98,0-16.996,1.554-22.259,3.935c-4.762,2.154-7.325,5.174-7.325,8.166
			c0,3.773,1.021,13.828,8.406,20.855c4.401,4.184,11.06,7.35,21.173,7.377c10.139,0.029,16.806-3.139,21.208-7.343
			C168.829,188.605,169.847,178.514,169.847,174.746z M140.263,201.076c-25.13-0.07-27.641-20.381-27.679-26.194v-0.136
			c0,2.222,1.932,4.279,5.211,5.955l2.715,1.186l2.141,0.723l9.531,1.892l4.032,0.333l6.894,0.057l6.201-0.505l5.522-0.969
			c7.868-1.8,13.111-5.011,13.111-8.671c0-0.057,0.003-0.111,0.007-0.164l0.005-0.052c0.019,0.181,0.022,0.343,0.016,0.489
			c-0.005,0.13-0.019,0.252-0.036,0.367C167.751,181.791,164.71,201.141,140.263,201.076z"/>
		<path d="M60.814,48.637c1.681,1.436,4.152,2.152,7.411,2.152c3.207,0,5.626-0.685,7.254-2.054
			c1.631-1.368,2.445-3.474,2.445-6.315v-1.134h-4.889v1.054c0,1.383-0.345,2.381-1.036,2.993c-0.689,0.612-1.935,0.918-3.735,0.918
			c-1.851,0-3.161-0.338-3.93-1.016c-0.769-0.678-1.154-1.644-1.154-2.896v-7.978c0-1.277,0.365-2.25,1.095-2.914
			c0.73-0.665,2.059-0.998,3.989-0.998c1.825,0,3.077,0.299,3.755,0.9c0.678,0.599,1.016,1.565,1.016,2.894v1.213h4.889v-1.213
			c0-5.553-3.231-8.329-9.699-8.329c-3.259,0-5.73,0.717-7.411,2.15c-1.683,1.436-2.524,3.546-2.524,6.336v7.9
			C58.291,45.093,59.132,47.204,60.814,48.637z"/>
		<path d="M235.578,10.488H48.145c-2.64,0-4.778,2.141-4.778,4.778v252.958c0,2.639,2.138,4.777,4.778,4.777h187.433
			c2.64,0,4.781-2.139,4.781-4.777V15.266C240.359,12.629,238.217,10.488,235.578,10.488z M230.8,263.445H52.923V20.046H230.8
			V263.445z"/>
		<path d="M84.659,48.501c1.773,1.526,4.302,2.288,7.588,2.288c3.286,0,5.814-0.762,7.587-2.288c1.773-1.526,2.66-3.721,2.66-6.59
			v-7.118c0-2.869-0.887-5.066-2.66-6.59c-1.773-1.526-4.302-2.288-7.587-2.288c-3.286,0-5.814,0.762-7.588,2.288
			c-1.773,1.524-2.66,3.721-2.66,6.59v7.118C82,44.78,82.886,46.975,84.659,48.501z M86.888,34.793c0-1.513,0.424-2.615,1.272-3.306
			c0.846-0.689,2.208-1.037,4.086-1.037c1.877,0,3.24,0.347,4.088,1.037c0.846,0.691,1.27,1.793,1.27,3.306v7.118
			c0,1.513-0.424,2.612-1.27,3.304c-0.848,0.691-2.211,1.036-4.088,1.036c-1.878,0-3.241-0.345-4.086-1.036
			c-0.848-0.692-1.272-1.792-1.272-3.304V34.793z"/>
		<path d="M152.241,166.712c-0.173,0.118-0.159,0.295,0.014,0.346C152.291,166.835,152.302,166.669,152.241,166.712z"/>
		<polygon points="111.604,257.996 139.421,257.996 139.421,250.597 119.863,250.597 119.863,240.882 137.968,240.882 
			137.968,233.482 119.863,233.482 119.863,224.233 139.421,224.233 139.421,216.765 111.604,216.765 		"/>
		<path fill="#FFFFFF" d="M134.442,134.299l0.36-0.17c-0.993,0.156-1.884,0.217-2.655,0.197c0.208,0.367,0.381,0.773,0.508,1.204
			C133.124,135.065,133.716,134.646,134.442,134.299z"/>
		<path fill="#FFFFFF" d="M123.307,115.842c-0.202,0.054-0.401,0.111-0.601,0.17c0.143,0.057,0.283,0.123,0.419,0.197
			C123.178,116.083,123.239,115.96,123.307,115.842z"/>
		<path fill="#FFFFFF" d="M134.655,114.792c0.538-0.537,1.24-0.909,2.025-1.029c-0.941,0.047-1.868,0.113-2.785,0.195
			c0.236,0.32,0.422,0.681,0.544,1.068C134.507,114.944,134.58,114.867,134.655,114.792z"/>
	</g>
</g>
</svg>
