<?xml version="1.0" encoding="utf-8"?>
<!-- Generator: Adobe Illustrator 15.1.0, SVG Export Plug-In . SVG Version: 6.00 Build 0)  -->
<!DOCTYPE svg PUBLIC "-//W3C//DTD SVG 1.1//EN" "http://www.w3.org/Graphics/SVG/1.1/DTD/svg11.dtd">
<svg version="1.1" id="Layer_1" xmlns:serif="http://www.serif.com/"
	 xmlns="http://www.w3.org/2000/svg" xmlns:xlink="http://www.w3.org/1999/xlink" x="0px" y="0px" width="283.46px"
	 height="283.46px" viewBox="0 0 283.46 283.46" enable-background="new 0 0 283.46 283.46" xml:space="preserve">
<path d="M119.204,223.157v0.089H53.991c-7.296,0-14.293-2.899-19.452-8.059c-5.161-5.158-8.059-12.156-8.059-19.454
	c0-15.612,0-33.298,0-39.768c0-4.775,1.897-9.358,5.277-12.735c3.377-3.378,7.958-5.275,12.736-5.275h4.516
	c-8.397,0-15.211-6.815-15.211-15.211c0-8.395,6.814-15.21,15.211-15.21c8.395,0,15.208,6.815,15.208,15.21
	c0,8.396-6.814,15.211-15.208,15.211h4.513c4.778,0,9.359,1.897,12.736,5.275c1.313,1.31,2.401,2.804,3.24,4.417
	c1.938-0.695,3.999-1.063,6.099-1.063h4.516c-8.397,0-15.211-6.814-15.211-15.209s6.814-15.211,15.211-15.211
	c8.395,0,15.209,6.816,15.209,15.211s-6.814,15.209-15.209,15.209h4.514c4.777,0,9.358,1.898,12.736,5.276
	c1.57,1.567,2.817,3.395,3.707,5.381c1.83-0.614,3.761-0.935,5.728-0.935h4.516c-8.395,0-15.211-6.816-15.211-15.211
	c0-8.396,6.816-15.211,15.211-15.211c8.395,0,15.211,6.815,15.211,15.211c0,8.395-6.816,15.211-15.211,15.211h4.516
	c1.721,0,3.419,0.246,5.043,0.719c0.881-1.901,2.096-3.654,3.606-5.165c3.378-3.378,7.959-5.276,12.736-5.276h4.516
	c-8.395,0-15.211-6.814-15.211-15.209s6.816-15.211,15.211-15.211c8.396,0,15.211,6.816,15.211,15.211s-6.815,15.209-15.211,15.209
	h4.516c4.777,0,9.358,1.898,12.736,5.276c1.511,1.511,2.726,3.264,3.606,5.165c1.625-0.473,3.32-0.719,5.043-0.719h4.516
	c-8.395,0-15.211-6.816-15.211-15.211c0-8.396,6.816-15.211,15.211-15.211c8.396,0,15.211,6.815,15.211,15.211
	c0,8.395-6.815,15.211-15.211,15.211h4.516c1.967,0,3.899,0.32,5.729,0.935c0.888-1.986,2.137-3.813,3.705-5.381
	c3.379-3.378,7.961-5.276,12.738-5.276h4.514c-8.395,0-15.211-6.814-15.211-15.209s6.816-15.211,15.211-15.211
	s15.211,6.816,15.211,15.211s-6.816,15.209-15.211,15.209h4.516c2.1,0,4.16,0.368,6.099,1.063c0.839-1.613,1.927-3.107,3.237-4.417
	c3.381-3.378,7.961-5.275,12.738-5.275h4.514c-8.395,0-15.211-6.815-15.211-15.211c0-8.395,6.816-15.211,15.211-15.211
	s15.211,6.816,15.211,15.211c0,8.396-6.816,15.211-15.211,15.211h4.516c4.777,0,9.359,1.897,12.736,5.275
	c3.378,3.377,5.277,7.96,5.277,12.735v39.768c0,7.298-2.9,14.296-8.06,19.454c-5.159,5.159-12.155,8.059-19.452,8.059H119.204
	V223.157L119.204,223.157z M110.822,97.265h13.333v-1.456c0-2.471,0.981-4.839,2.728-6.585c1.747-1.747,4.117-2.728,6.585-2.728
	h8.262c-7.252,0-13.142-5.888-13.142-13.143c0-7.252,5.89-13.139,13.142-13.139c7.253,0,13.14,5.887,13.14,13.139
	c0,7.255-5.887,13.143-13.14,13.143h8.262c2.468,0,4.839,0.98,6.585,2.728c1.746,1.746,2.729,4.114,2.729,6.585v1.456h16.264
	c1.703,0,3.246,0.997,3.946,2.549c0.698,1.553,0.423,3.369-0.706,4.645l-11.535,13.037v4.358c-2.464,0.624-4.744,1.708-6.744,3.155
	c-0.987-2.919-2.639-5.534-4.771-7.666c-3.591-3.592-8.554-5.813-14.029-5.813c-5.477,0-10.438,2.222-14.029,5.813
	c-2.133,2.133-3.783,4.747-4.771,7.666c-2-1.447-4.28-2.531-6.744-3.155v-4.358l-11.537-13.037
	c-1.127-1.275-1.402-3.092-0.704-4.645c0.7-1.552,2.244-2.549,3.947-2.549h0.632c0.268-1.731,0.99-3.612,1.982-5.446
	c0.929-1.723,2.089-3.408,3.291-4.887c-0.41-0.683-0.646-1.482-0.646-2.337c0-2.515,2.041-4.558,4.557-4.558
	c2.514,0,4.555,2.043,4.555,4.558c0,2.514-2.041,4.557-4.555,4.557c-0.835,0-1.616-0.225-2.29-0.617
	c-0.255,0.318-0.508,0.647-0.757,0.983l-2.521,4.077C111.522,94.84,111.046,96.088,110.822,97.265z"/>
</svg>
