<?xml version="1.0" encoding="utf-8"?>
<!-- Generator: Adobe Illustrator 15.1.0, SVG Export Plug-In . SVG Version: 6.00 Build 0)  -->
<!DOCTYPE svg PUBLIC "-//W3C//DTD SVG 1.1//EN" "http://www.w3.org/Graphics/SVG/1.1/DTD/svg11.dtd">
<svg version="1.1" id="Layer_1" xmlns:serif="http://www.serif.com/"
	 xmlns="http://www.w3.org/2000/svg" xmlns:xlink="http://www.w3.org/1999/xlink" x="0px" y="0px" width="283.46px"
	 height="283.46px" viewBox="0 0 283.46 283.46" enable-background="new 0 0 283.46 283.46" xml:space="preserve">
<path d="M161.659,178.602c0-9.213-7.47-16.68-16.683-16.68c-2.131,0-4.311,0-6.439,0c-9.214,0-16.683,7.467-16.683,16.68
	c0,10.098,0,21.041,0,21.041h39.805V178.602z M137.318,159.728h-0.103c-4.777,0-9.358,1.897-12.738,5.274
	c-3.377,3.378-5.274,7.959-5.274,12.736v21.791H53.992c-7.298,0-14.295-2.899-19.454-8.059c-5.159-5.158-8.057-12.156-8.057-19.454
	c0-15.612,0-33.298,0-39.767c0-4.775,1.896-9.358,5.274-12.736c3.378-3.378,7.959-5.275,12.736-5.275h4.516
	c-8.395,0-15.211-6.816-15.211-15.211c0-8.395,6.816-15.21,15.211-15.21s15.211,6.816,15.211,15.21
	c0,8.395-6.816,15.211-15.211,15.211h4.516c4.777,0,9.358,1.897,12.736,5.275c1.311,1.31,2.398,2.804,3.24,4.417
	c1.936-0.696,3.999-1.064,6.097-1.064h4.516c-8.396,0-15.211-6.814-15.211-15.209c0-8.395,6.815-15.211,15.211-15.211
	c8.395,0,15.211,6.816,15.211,15.211c0,8.395-6.816,15.209-15.211,15.209h4.516c4.777,0,9.358,1.899,12.735,5.276
	c1.568,1.568,2.817,3.395,3.705,5.381c1.829-0.615,3.764-0.935,5.73-0.935h4.514c-8.396,0-15.211-6.816-15.211-15.211
	c0-8.395,6.815-15.211,15.211-15.211c8.395,0,15.211,6.816,15.211,15.211c0,8.395-6.816,15.211-15.211,15.211h4.516
	c1.723,0,3.419,0.246,5.043,0.719c0.881-1.901,2.096-3.654,3.606-5.166c3.38-3.377,7.961-5.276,12.738-5.276h4.514
	c-8.395,0-15.209-6.814-15.209-15.209c0-8.395,6.814-15.211,15.209-15.211c8.396,0,15.212,6.816,15.212,15.211
	c0,8.395-6.816,15.209-15.212,15.209h4.516c4.778,0,9.358,1.899,12.736,5.276c1.511,1.511,2.728,3.264,3.608,5.166
	c1.625-0.473,3.321-0.719,5.044-0.719h4.514c-8.396,0-15.209-6.816-15.209-15.211c0-8.395,6.813-15.211,15.209-15.211
	c8.397,0,15.211,6.816,15.211,15.211c0,8.395-6.813,15.211-15.211,15.211h4.516c1.967,0,3.901,0.32,5.729,0.935
	c0.889-1.986,2.138-3.813,3.705-5.381c3.378-3.377,7.959-5.276,12.736-5.276h4.516c-8.395,0-15.211-6.814-15.211-15.209
	c0-8.395,6.816-15.211,15.211-15.211s15.211,6.816,15.211,15.211c0,8.395-6.816,15.209-15.211,15.209h4.516
	c2.098,0,4.16,0.368,6.097,1.064c0.842-1.614,1.93-3.107,3.24-4.417c3.378-3.378,7.958-5.275,12.735-5.275h4.517
	c-8.396,0-15.211-6.816-15.211-15.211c0-8.395,6.815-15.211,15.211-15.211c8.395,0,15.211,6.816,15.211,15.211
	c0,8.395-6.816,15.211-15.211,15.211h4.516c4.775,0,9.358,1.897,12.735,5.275c3.379,3.377,5.275,7.96,5.275,12.736v39.767
	c0,7.298-2.898,14.296-8.057,19.454c-5.159,5.159-12.158,8.059-19.455,8.059h-65.211v-21.791c0-4.777-1.896-9.358-5.276-12.736
	c-3.378-3.377-7.958-5.274-12.736-5.274h-0.294c6.574-1.878,11.391-7.935,11.391-15.106c0-8.669-7.039-15.708-15.706-15.708
	c-8.669,0-15.708,7.039-15.708,15.708C125.927,151.793,130.747,157.85,137.318,159.728L137.318,159.728z M141.635,131.382
	c7.308,0,13.24,5.933,13.24,13.239c0,7.307-5.933,13.24-13.24,13.24c-7.309,0-13.239-5.934-13.239-13.24
	C128.396,137.315,134.327,131.382,141.635,131.382z"/>
</svg>
