<?xml version="1.0" encoding="iso-8859-1"?>
<!-- Generator: Adobe Illustrator 15.1.0, SVG Export Plug-In . SVG Version: 6.00 Build 0)  -->
<!DOCTYPE svg PUBLIC "-//W3C//DTD SVG 1.1//EN" "http://www.w3.org/Graphics/SVG/1.1/DTD/svg11.dtd">
<svg version="1.1" id="Layer_1" xmlns:serif="http://www.serif.com/"
	 xmlns="http://www.w3.org/2000/svg" xmlns:xlink="http://www.w3.org/1999/xlink" x="0px" y="0px" width="283.46px"
	 height="283.46px" viewBox="0 0 283.46 283.46" style="enable-background:new 0 0 283.46 283.46;" xml:space="preserve">
<path d="M154.751,7.716c-8.662-0.842-17.384-0.842-26.045,0l-4.29,20.883c-8.299,1.271-16.437,3.452-24.261,6.501L86,19.158
	c-7.923,3.603-15.477,7.964-22.556,13.023l6.728,20.23c-6.555,5.253-12.51,11.206-17.763,17.762L32.18,63.447
	C27.121,70.524,22.761,78.08,19.158,86l15.94,14.158c-3.052,7.822-5.229,15.959-6.502,24.262l-20.88,4.29
	c-0.842,8.66-0.842,17.385,0,26.045l20.88,4.289c1.273,8.3,3.45,16.437,6.502,24.262l-15.94,14.154
	c3.603,7.924,7.962,15.475,13.022,22.558l20.229-6.729c5.252,6.557,11.208,12.513,17.763,17.764l-6.728,20.229
	c7.078,5.06,14.632,9.42,22.556,13.021l14.156-15.939c7.824,3.052,15.961,5.229,24.261,6.501l4.29,20.881
	c8.661,0.842,17.383,0.842,26.045,0l4.289-20.881c8.303-1.271,16.439-3.449,24.262-6.501l14.159,15.939
	c7.918-3.602,15.474-7.962,22.554-13.021l-6.728-20.229c6.553-5.251,12.509-11.207,17.761-17.764l20.232,6.729
	c5.057-7.08,9.42-14.632,13.019-22.558l-15.938-14.154c3.05-7.825,5.231-15.962,6.5-24.262l20.884-4.289
	c0.842-8.66,0.842-17.385,0-26.045l-20.884-4.29c-1.269-8.303-3.45-16.44-6.5-24.262L264.299,86
	c-3.599-7.919-7.962-15.474-13.019-22.553l-20.232,6.727c-5.252-6.556-11.208-12.509-17.761-17.762l6.728-20.23
	c-7.077-5.059-14.633-9.42-22.554-13.023L183.302,35.1c-7.822-3.05-15.959-5.231-24.262-6.5L154.751,7.716L154.751,7.716z
	 M141.729,60.379c44.9,0,81.352,36.453,81.352,81.352c0,44.901-36.453,81.352-81.352,81.352c-44.899,0-81.352-36.45-81.352-81.352
	C60.377,96.831,96.829,60.379,141.729,60.379z M85.855,172.776l39.634-76.201c0.971-1.865,2.899-3.035,5-3.035
	c11.084,0,46.228,0,62.383,0c1.753,0,3.381,0.916,4.29,2.416c0.912,1.5,0.974,3.366,0.165,4.921
	c-8.79,16.896-30.157,57.982-36.122,69.443c-0.961,1.852-2.875,3.012-4.961,3.012c-14.055,0-66.953,0-66.953,0v12.911H158.4
	l39.021-72.439v-3.518c0.608,0.214,1.138,0.632,1.481,1.204c0.516,0.844,0.551,1.897,0.093,2.772
	c-7.753,14.903-34.04,65.445-38.66,74.323c-0.426,0.82-1.273,1.334-2.201,1.334c-9.226,0-58.109,0-69.97,0
	c-0.688,0-1.348-0.271-1.836-0.759c-0.484-0.485-0.759-1.146-0.759-1.835c0-3.939,0-11.195,0-13.366
	C85.566,173.548,85.665,173.142,85.855,172.776L85.855,172.776z M62.386,105.09c-1.124,2.442-2.516,4.044-4.172,4.809
	c-1.655,0.762-3.528,0.664-5.616-0.302l-5.918-2.734c-2.087-0.962-3.38-2.322-3.872-4.077c-0.492-1.754-0.175-3.853,0.951-6.293
	c2.238-4.844,5.433-6.305,9.592-4.385l0.909,0.42l-1.69,3.659l-0.909-0.419c-0.997-0.459-1.835-0.539-2.52-0.239
	c-0.683,0.302-1.339,1.135-1.971,2.5c-0.667,1.446-0.878,2.558-0.634,3.332c0.247,0.776,0.848,1.386,1.804,1.83l5.975,2.756
	c0.938,0.433,1.794,0.479,2.566,0.136c0.773-0.34,1.481-1.206,2.121-2.591c0.621-1.346,0.822-2.384,0.604-3.115
	c-0.223-0.73-0.849-1.332-1.885-1.811l-0.789-0.365l1.691-3.662l0.848,0.392c2.129,0.983,3.423,2.32,3.885,4.016
	C63.818,100.641,63.495,102.688,62.386,105.09z M240.788,108.726l-2.461-5.789l-15.169,6.449l-1.58-3.711l15.173-6.45l-2.462-5.789
	l3.354-1.427l6.5,15.292L240.788,108.726L240.788,108.726z M234.068,85.309l-16.073,12.119l-2.331-3.091l10.124-7.631l-12.527,1.605
	l-0.271-0.362l4.984-11.876l-10.254,7.729l-2.309-3.067l16.071-12.118l2.233,2.962l-5.169,12.704l13.4-1.782L234.068,85.309
	L234.068,85.309z M72.751,88.103c-1.664,2.138-3.443,3.396-5.334,3.778c-1.89,0.379-3.771-0.155-5.637-1.609l-4.632-3.608
	c-1.866-1.454-2.846-3.143-2.939-5.068c-0.092-1.928,0.692-3.959,2.356-6.098c1.664-2.138,3.442-3.397,5.334-3.778
	c1.893-0.379,3.771,0.157,5.636,1.609l4.633,3.608c1.867,1.454,2.846,3.143,2.939,5.068C75.202,83.934,74.415,85.967,72.751,88.103z
	 M69.799,85.805c0.953-1.222,1.415-2.285,1.399-3.185c-0.021-0.901-0.523-1.736-1.506-2.503l-4.633-3.605
	c-0.983-0.766-1.915-1.05-2.795-0.849c-0.879,0.201-1.794,0.913-2.746,2.134c-0.952,1.222-1.417,2.285-1.397,3.184
	c0.021,0.905,0.521,1.738,1.504,2.504l4.633,3.608c0.986,0.766,1.917,1.048,2.795,0.846C67.931,87.737,68.849,87.025,69.799,85.805z
	 M208.377,69.342l-6.432,8.281l-2.573-1.998l1.197-1.806c-0.921,0.347-1.859,0.38-2.815,0.102c-0.956-0.279-1.974-0.839-3.061-1.683
	c-4.012-3.113-4.516-6.597-1.523-10.453l3.5-4.512c1.53-1.972,3.237-3.014,5.125-3.128c1.887-0.118,3.899,0.658,6.039,2.319
	c2.312,1.794,3.595,3.544,3.847,5.253c0.252,1.708-0.277,3.413-1.599,5.109l-0.218,0.281l-3.186-2.472l0.178-0.23
	c0.461-0.595,0.739-1.135,0.83-1.623c0.092-0.485-0.022-0.996-0.34-1.53c-0.322-0.533-0.913-1.138-1.782-1.811
	c-1.29-1.002-2.372-1.454-3.239-1.351c-0.868,0.101-1.685,0.645-2.449,1.628l-3.54,4.562c-0.713,0.916-1.008,1.804-0.883,2.665
	c0.123,0.857,0.829,1.789,2.122,2.788c1.188,0.925,2.226,1.355,3.116,1.299c0.89-0.059,1.671-0.521,2.343-1.388l0.02-0.025
	l-2.727-2.116l2.137-2.751L208.377,69.342L208.377,69.342z M87.187,73.473c-2.097,1.683-4.06,2.493-5.881,2.437
	c-1.823-0.057-3.546-1.1-5.172-3.131l-8.043-10.05l3.148-2.519l7.964,9.945c0.779,0.973,1.598,1.522,2.454,1.65
	c0.861,0.125,1.91-0.31,3.152-1.304c1.225-0.979,1.865-1.911,1.917-2.794c0.051-0.879-0.299-1.791-1.053-2.733l-7.964-9.945
	l3.148-2.522l8.045,10.049c1.641,2.048,2.289,3.959,1.948,5.735C90.507,70.067,89.284,71.793,87.187,73.473L87.187,73.473z
	 M106.027,46.84c0.722,1.538,0.967,2.895,0.735,4.071c-0.231,1.177-0.996,2.307-2.292,3.391l7.282,4.744l-4.204,1.972l-6.716-4.512
	l-2.655,1.246l2.943,6.28l-3.651,1.712l-8.548-18.225l6.308-2.956c2.805-1.316,5.063-1.782,6.775-1.397
	C103.72,43.552,105.059,44.776,106.027,46.84L106.027,46.84z M193.06,46.461l-7.806,18.555l-3.564-1.502l4.911-11.686l-10.022,7.683
	l-0.416-0.175L174.5,46.564L169.523,58.4l-3.538-1.491l7.805-18.556l3.422,1.44l1.917,13.58l10.688-8.279L193.06,46.461
	L193.06,46.461z M122.417,56.492c-2.369,0.536-4.327,0.433-5.874-0.31c-1.546-0.741-2.529-2.045-2.952-3.913l-0.164-0.723
	l3.965-0.899l0.114,0.504c0.406,1.784,1.811,2.403,4.224,1.857c2.181-0.495,3.126-1.39,2.831-2.69
	c-0.105-0.463-0.289-0.811-0.552-1.051c-0.264-0.236-0.668-0.417-1.213-0.534c-0.544-0.122-1.332-0.208-2.355-0.262l-1.375-0.088
	c-1.652-0.087-2.966-0.28-3.936-0.58c-0.973-0.299-1.727-0.756-2.264-1.373c-0.534-0.619-0.921-1.451-1.159-2.5
	c-0.259-1.134-0.184-2.201,0.216-3.208c0.402-1.004,1.098-1.874,2.092-2.604c0.99-0.733,2.232-1.267,3.722-1.603
	c2.266-0.515,4.134-0.364,5.607,0.451c1.474,0.814,2.442,2.236,2.9,4.272l0.065,0.282l-3.964,0.896l-0.115-0.503
	c-0.196-0.86-0.617-1.453-1.262-1.781c-0.647-0.326-1.455-0.385-2.42-0.166c-1.067,0.243-1.845,0.612-2.328,1.105
	c-0.485,0.496-0.653,1.067-0.507,1.719c0.102,0.441,0.292,0.771,0.573,0.996c0.282,0.223,0.715,0.384,1.301,0.482l4.439,0.403
	c1.928,0.136,3.419,0.541,4.478,1.216c1.055,0.676,1.731,1.666,2.026,2.966c0.418,1.848,0.079,3.45-1.012,4.81
	C126.425,55.029,124.727,55.97,122.417,56.492L122.417,56.492z M96.656,54.513l2.922-1.371c1.07-0.5,1.845-0.978,2.322-1.426
	c0.477-0.453,0.743-0.925,0.795-1.425c0.049-0.498-0.087-1.1-0.419-1.799c-0.446-0.956-1.063-1.498-1.85-1.626
	c-0.784-0.131-1.966,0.173-3.543,0.914l-2.774,1.301L96.656,54.513z M137.63,37.711l0.06,4.517l8.836-0.112l0.046,3.611
	l-8.838,0.113l0.061,4.741l9.546-0.122l0.048,3.613l-13.581,0.173l-0.256-20.128l13.58-0.172l0.046,3.644L137.63,37.711
	L137.63,37.711z"/>
</svg>
