<?xml version="1.0" encoding="utf-8"?>
<!-- Generator: Adobe Illustrator 15.1.0, SVG Export Plug-In . SVG Version: 6.00 Build 0)  -->
<!DOCTYPE svg PUBLIC "-//W3C//DTD SVG 1.1//EN" "http://www.w3.org/Graphics/SVG/1.1/DTD/svg11.dtd">
<svg version="1.1" id="Layer_2" xmlns="http://www.w3.org/2000/svg" xmlns:xlink="http://www.w3.org/1999/xlink" x="0px" y="0px"
	 width="283.46px" height="283.46px" viewBox="0 0 283.46 283.46" enable-background="new 0 0 283.46 283.46" xml:space="preserve">
<g>
	<path d="M270.209,76.478c-0.572-0.943-1.449-1.64-2.463-1.995v5.842L202.95,200.617H18.754v-21.439c0,0,157.275,0,180.617,0
		c3.465,0,6.642-1.93,8.242-5.002c9.896-19.03,45.387-87.257,59.982-115.317c0.892-1.714,1.146-3.654,0.773-5.495l1.991-3.826
		c0.759-1.457,0.7-3.203-0.15-4.605c-0.573-0.943-1.45-1.642-2.464-1.995v5.842L202.95,169.07H18.754v-21.441
		c0,0,157.275,0,180.617,0c3.465,0,6.642-1.928,8.242-5.002C217.51,123.595,253,55.369,267.596,27.311
		c1.343-2.586,1.24-5.685-0.271-8.175s-4.215-4.012-7.128-4.012c-26.828,0-154.621,0-173.026,0c-3.491,0-6.692,1.942-8.304,5.041
		L13.049,146.705c-0.316,0.607-0.48,1.281-0.48,1.967c0,3.602,0,15.655,0,22.194c0,1.143,0.453,2.239,1.261,3.048
		c0.318,0.316,0.678,0.578,1.07,0.781l-1.851,3.559c-0.316,0.605-0.48,1.282-0.48,1.967c0,3.602,0,15.656,0,22.195
		c0,1.143,0.453,2.238,1.26,3.045c0.358,0.358,0.771,0.646,1.22,0.855l-1.999,3.844c-0.316,0.606-0.48,1.282-0.48,1.967
		c0,3.603,0,15.656,0,22.195c0,1.143,0.453,2.239,1.26,3.046c0.114,0.113,0.232,0.218,0.354,0.316l-1.133,2.181
		c-0.316,0.605-0.48,1.281-0.48,1.967c0,3.6,0,15.653,0,22.195c0,1.143,0.453,2.236,1.26,3.045c0.81,0.807,1.904,1.264,3.049,1.264
		c19.696,0,170.307,0,185.631,0c1.538,0,2.946-0.857,3.657-2.221c7.667-14.74,51.323-98.674,64.195-123.418
		c0.759-1.457,0.7-3.203-0.151-4.607c-0.572-0.944-1.449-1.64-2.463-1.995v5.841L202.95,262.227H18.754v-21.438
		c0,0,157.275,0,180.617,0c3.465,0,6.642-1.93,8.242-5.002c9.896-19.031,45.387-87.258,59.982-115.318
		c0.645-1.242,0.957-2.607,0.938-3.963l1.827-3.514c0.759-1.456,0.7-3.203-0.151-4.604c-0.572-0.946-1.449-1.642-2.463-1.997v5.841
		L202.95,232.523H18.754v-21.438c0,0,157.275,0,180.617,0c3.465,0,6.642-1.927,8.242-5.002
		c9.896-19.031,45.387-87.258,59.982-115.317c0.931-1.793,1.168-3.834,0.719-5.746l2.046-3.934
		C271.12,79.628,271.061,77.882,270.209,76.478z M96.817,120.697l11.252-21.499h-8.205l2.487-4.755h21.669l-2.487,4.755h-8.205
		l-11.251,21.499H96.817z M133.933,120.697h-5.511l0.779-5.427h-10.73l-4.943,5.427h-5.176l24.469-26.254h4.123L133.933,120.697z
		 M154.346,120.697h-17.291l13.739-26.254h5.259l-11.272,21.543h12.032L154.346,120.697z M176.547,118.488
		c-2.764,1.643-5.915,2.463-9.449,2.463c-3.535,0-5.826-0.82-6.875-2.463c-1.049-1.641-0.766-4.003,0.85-7.088l4.008-7.658
		c1.613-3.085,3.805-5.449,6.57-7.091c2.767-1.64,5.918-2.46,9.452-2.46c3.532,0,5.823,0.82,6.872,2.46
		c1.049,1.642,0.766,4.006-0.848,7.091l-4.008,7.658C181.504,114.485,179.315,116.847,176.547,118.488z M213.321,103.068
		l-0.241,0.463h-5.259l0.195-0.377c0.515-0.984,0.774-1.763,0.781-2.336c0.006-0.576-0.293-1.01-0.895-1.304
		c-0.604-0.297-1.62-0.442-3.051-0.442c-2.132,0-3.813,0.398-5.045,1.199c-1.232,0.798-2.274,2.012-3.125,3.639l-3.941,7.531
		c-0.792,1.516-0.988,2.664-0.585,3.449c0.401,0.785,1.668,1.178,3.8,1.178c1.963,0,3.583-0.384,4.856-1.155
		c1.271-0.772,2.283-1.873,3.03-3.304l0.024-0.041h-4.503l2.377-4.545h9.762l-7.156,13.674h-4.25l1.266-2.818
		c-1.245,1.094-2.596,1.879-4.052,2.356c-1.456,0.476-3.081,0.716-4.876,0.716c-6.619,0-8.264-3.184-4.932-9.551l3.898-7.449
		c1.703-3.253,3.906-5.693,6.607-7.319c2.703-1.626,5.822-2.44,9.355-2.44c3.814,0,6.128,0.779,6.941,2.336
		C215.116,98.082,214.79,100.264,213.321,103.068z M244.02,31.654l-2.586,4.941h-12.941l-3.203,6.12h11.98l-2.563,4.896h-11.979
		l-3.362,6.426h12.939l-2.563,4.896h-18.405l14.277-27.279H244.02z M195.588,39.392c0.824-1.574,1.969-2.965,3.432-4.176
		c1.463-1.21,3.135-2.15,5.018-2.819c1.879-0.671,3.854-1.005,5.924-1.005c3.148,0,5.176,0.756,6.09,2.271
		c0.912,1.516,0.628,3.688-0.853,6.516l-0.205,0.393h-5.51l0.366-0.7c0.626-1.194,0.725-2.104,0.295-2.731
		c-0.43-0.626-1.315-0.94-2.656-0.94c-1.487,0-2.756,0.255-3.812,0.766c-1.054,0.511-1.816,1.217-2.29,2.119
		c-0.32,0.612-0.427,1.108-0.318,1.487c0.107,0.379,0.454,0.722,1.036,1.027c0.583,0.307,1.562,0.706,2.935,1.203l1.843,0.654
		c2.108,0.759,3.445,1.742,4.008,2.952c0.561,1.208,0.368,2.717-0.575,4.524c-1.344,2.564-3.326,4.584-5.946,6.055
		c-2.621,1.473-5.534,2.207-8.739,2.207c-3.295,0-5.473-0.722-6.539-2.162c-1.068-1.444-0.923-3.461,0.436-6.056l0.525-1.005h5.508
		l-0.366,0.699c-1.295,2.477-0.269,3.716,3.083,3.716c3.031,0,5.02-0.905,5.967-2.71c0.335-0.642,0.466-1.16,0.396-1.553
		c-0.072-0.393-0.365-0.75-0.883-1.07s-1.346-0.672-2.488-1.049l-1.518-0.525c-1.838-0.613-3.175-1.261-4.01-1.945
		c-0.838-0.686-1.263-1.516-1.275-2.492C194.452,42.066,194.827,40.849,195.588,39.392z M183.454,31.654
		c4.197,0,6.855,0.729,7.972,2.188c1.116,1.456,0.868,3.729-0.75,6.818c-1.204,2.302-2.63,4.109-4.278,5.42
		c-1.648,1.313-3.732,2.259-6.254,2.844l0.969,10.01h-6.295l-0.72-9.399h-3.979l-4.919,9.399h-5.464l14.277-27.279H183.454z
		 M151.226,31.654l-9.038,17.27c-0.883,1.689-1.15,2.965-0.798,3.824c0.351,0.859,1.604,1.289,3.761,1.289
		c2.129,0,3.825-0.443,5.092-1.333c1.268-0.89,2.326-2.149,3.182-3.78l9.037-17.27h5.465l-9.129,17.443
		c-1.86,3.557-4.139,6.127-6.836,7.717c-2.695,1.588-5.865,2.381-9.51,2.381c-3.643,0-5.984-0.8-7.025-2.402
		c-1.042-1.605-0.639-4.17,1.206-7.695l9.13-17.443H151.226z M119.416,33.95c2.874-1.705,6.146-2.558,9.818-2.558
		s6.054,0.853,7.144,2.558s0.796,4.16-0.883,7.366l-4.163,7.956c-1.679,3.205-3.955,5.66-6.829,7.365s-6.146,2.558-9.818,2.558
		s-6.053-0.853-7.144-2.558c-1.09-1.705-0.796-4.16,0.884-7.365l4.162-7.956C114.265,38.11,116.542,35.655,119.416,33.95z
		 M81.694,49.71l4.62-8.831c1.634-3.12,3.81-5.479,6.526-7.085c2.719-1.602,5.9-2.402,9.543-2.402c7.229,0,9.217,3.103,5.969,9.311
		l-0.709,1.356h-5.465l0.709-1.356c0.779-1.484,0.965-2.564,0.557-3.234c-0.406-0.671-1.631-1.007-3.67-1.007
		c-2.156,0-3.838,0.373-5.043,1.116c-1.204,0.744-2.182,1.83-2.929,3.256l-4.667,8.92c-0.732,1.398-0.867,2.477-0.402,3.234
		c0.462,0.758,1.729,1.138,3.798,1.138c2.011,0,3.581-0.345,4.712-1.029c1.132-0.685,2.1-1.799,2.909-3.343l0.616-1.182h5.467
		l-0.665,1.27c-1.661,3.177-3.805,5.529-6.426,7.061c-2.623,1.527-5.726,2.293-9.311,2.293c-3.644,0-5.985-0.8-7.027-2.402
		C79.766,55.187,80.061,52.828,81.694,49.71z M89.428,94.443h4.123l-3.012,26.254h-5.512l0.78-5.427H75.079l-4.943,5.427h-5.177
		L89.428,94.443z M47.045,111.82l4.449-8.498c1.569-3.004,3.662-5.275,6.279-6.816c2.617-1.544,5.678-2.314,9.184-2.314
		c6.956,0,8.871,2.988,5.746,8.963l-0.685,1.303H66.76l0.684-1.303c0.748-1.432,0.928-2.469,0.535-3.114
		c-0.391-0.646-1.57-0.968-3.533-0.968c-2.076,0-3.693,0.357-4.854,1.072s-2.098,1.76-2.816,3.136l-4.492,8.582
		c-0.707,1.346-0.836,2.384-0.389,3.114c0.445,0.729,1.664,1.092,3.654,1.092c1.937,0,3.447-0.329,4.535-0.988
		c1.089-0.658,2.021-1.73,2.801-3.218l0.595-1.136h5.259l-0.639,1.219c-1.6,3.059-3.66,5.322-6.186,6.797
		c-2.523,1.471-5.51,2.209-8.959,2.209c-3.507,0-5.762-0.772-6.764-2.314C45.19,117.093,45.474,114.821,47.045,111.82z"/>
	<path fill="#FFFFFF" d="M187.975,96.651c-1.049-1.64-3.34-2.46-6.872-2.46c-3.534,0-6.686,0.82-9.452,2.46
		c-2.766,1.642-4.957,4.006-6.57,7.091l-4.008,7.658c-1.615,3.085-1.898,5.447-0.85,7.088c1.049,1.643,3.34,2.463,6.875,2.463
		c3.534,0,6.686-0.82,9.449-2.463c2.768-1.641,4.957-4.003,6.572-7.088l4.008-7.658C188.741,100.657,189.024,98.292,187.975,96.651z
		 M181.868,103.742l-4.008,7.658c-0.852,1.627-1.927,2.811-3.229,3.554c-1.3,0.743-2.959,1.114-4.98,1.114
		c-2.02,0-3.29-0.371-3.811-1.114c-0.523-0.743-0.36-1.927,0.492-3.554l4.008-7.658c0.85-1.627,1.928-2.813,3.227-3.557
		c1.303-0.743,2.961-1.113,4.98-1.113s3.291,0.37,3.813,1.113C182.884,100.929,182.719,102.115,181.868,103.742z"/>
	<path fill="#FFFFFF" d="M52.956,120.951c3.449,0,6.436-0.738,8.959-2.209c2.525-1.475,4.586-3.738,6.186-6.797l0.639-1.219H63.48
		l-0.595,1.136c-0.779,1.487-1.712,2.56-2.801,3.218c-1.088,0.659-2.599,0.988-4.535,0.988c-1.99,0-3.209-0.363-3.654-1.092
		c-0.447-0.73-0.318-1.769,0.389-3.114l4.492-8.582c0.719-1.376,1.656-2.421,2.816-3.136s2.777-1.072,4.854-1.072
		c1.963,0,3.143,0.322,3.533,0.968c0.393,0.646,0.213,1.683-0.535,3.114l-0.684,1.303h5.259l0.685-1.303
		c3.125-5.975,1.21-8.963-5.746-8.963c-3.506,0-6.566,0.771-9.184,2.314c-2.617,1.541-4.71,3.813-6.279,6.816l-4.449,8.498
		c-1.571,3.001-1.855,5.273-0.854,6.816C47.194,120.178,49.449,120.951,52.956,120.951z"/>
	<path fill="#FFFFFF" d="M207.364,94.191c-3.533,0-6.652,0.814-9.355,2.44c-2.701,1.626-4.904,4.066-6.607,7.319l-3.898,7.449
		c-3.332,6.367-1.688,9.551,4.932,9.551c1.795,0,3.42-0.24,4.876-0.716c1.456-0.478,2.807-1.263,4.052-2.356l-1.266,2.818h4.25
		l7.156-13.674h-9.762l-2.377,4.545h4.503l-0.024,0.041c-0.747,1.431-1.759,2.531-3.03,3.304c-1.273,0.771-2.894,1.155-4.856,1.155
		c-2.132,0-3.398-0.393-3.8-1.178c-0.403-0.785-0.207-1.934,0.585-3.449l3.941-7.531c0.851-1.627,1.893-2.841,3.125-3.639
		c1.232-0.801,2.913-1.199,5.045-1.199c1.431,0,2.447,0.146,3.051,0.442c0.602,0.294,0.9,0.728,0.895,1.304
		c-0.007,0.573-0.267,1.352-0.781,2.336l-0.195,0.377h5.259l0.241-0.463c1.469-2.804,1.795-4.986,0.984-6.541
		C213.492,94.97,211.178,94.191,207.364,94.191z"/>
	<path fill="#FFFFFF" d="M108.352,120.697h5.176l4.943-5.427h10.73l-0.779,5.427h5.511l3.011-26.254h-4.123L108.352,120.697z
		 M129.854,110.726h-7.238l8.531-9.383h0.082L129.854,110.726z"/>
	<polygon fill="#FFFFFF" points="156.053,94.443 150.794,94.443 137.055,120.697 154.346,120.697 156.813,115.986 144.781,115.986 	
		"/>
	<polygon fill="#FFFFFF" points="121.533,99.198 124.02,94.443 102.351,94.443 99.864,99.198 108.069,99.198 96.817,120.697 
		102.077,120.697 113.328,99.198 	"/>
	<path fill="#FFFFFF" d="M70.135,120.697l4.943-5.427h10.729l-0.78,5.427h5.512l3.012-26.254h-4.123l-24.47,26.254H70.135z
		 M87.75,101.343h0.086l-1.377,9.383h-7.236L87.75,101.343z"/>
	<path d="M178.547,99.072c-2.02,0-3.678,0.37-4.98,1.113c-1.299,0.744-2.377,1.93-3.227,3.557l-4.008,7.658
		c-0.853,1.627-1.016,2.811-0.492,3.554c0.521,0.743,1.791,1.114,3.811,1.114c2.021,0,3.681-0.371,4.98-1.114
		c1.302-0.743,2.377-1.927,3.229-3.554l4.008-7.658c0.852-1.627,1.017-2.813,0.493-3.557
		C181.838,99.442,180.567,99.072,178.547,99.072z"/>
	<polygon points="122.616,110.726 129.854,110.726 131.229,101.343 131.147,101.343 	"/>
	<polygon points="87.836,101.343 87.75,101.343 79.223,110.726 86.459,110.726 	"/>
	<path fill="#FFFFFF" d="M135.426,56.792c1.041,1.603,3.383,2.402,7.025,2.402c3.645,0,6.814-0.793,9.51-2.381
		c2.697-1.59,4.976-4.16,6.836-7.717l9.129-17.443h-5.465l-9.037,17.27c-0.855,1.631-1.914,2.891-3.182,3.78
		c-1.267,0.89-2.963,1.333-5.092,1.333c-2.156,0-3.41-0.43-3.761-1.289c-0.353-0.859-0.085-2.135,0.798-3.824l9.038-17.27h-5.464
		l-9.13,17.443C134.788,52.623,134.384,55.187,135.426,56.792z"/>
	<path fill="#FFFFFF" d="M107.541,56.637c1.091,1.705,3.472,2.558,7.144,2.558s6.944-0.853,9.818-2.558s5.15-4.16,6.829-7.365
		l4.163-7.956c1.679-3.206,1.973-5.661,0.883-7.366s-3.472-2.558-7.144-2.558s-6.944,0.853-9.818,2.558s-5.15,4.16-6.829,7.366
		l-4.162,7.956C106.745,52.477,106.451,54.932,107.541,56.637z M113.888,49.272l4.165-7.956c0.883-1.69,2.001-2.922,3.354-3.694
		c1.352-0.772,3.076-1.16,5.174-1.16s3.419,0.388,3.962,1.16s0.372,2.004-0.513,3.694l-4.164,7.956
		c-0.883,1.689-2.002,2.922-3.354,3.693c-1.353,0.772-3.077,1.16-5.175,1.16s-3.419-0.388-3.962-1.16
		C112.833,52.194,113.002,50.961,113.888,49.272z"/>
	<path fill="#FFFFFF" d="M195.741,45.535c0.835,0.685,2.172,1.332,4.01,1.945l1.518,0.525c1.143,0.377,1.971,0.729,2.488,1.049
		s0.811,0.678,0.883,1.07c0.069,0.393-0.062,0.911-0.396,1.553c-0.947,1.805-2.936,2.71-5.967,2.71
		c-3.352,0-4.378-1.239-3.083-3.716l0.366-0.699h-5.508l-0.525,1.005c-1.358,2.595-1.504,4.611-0.436,6.056
		c1.066,1.44,3.244,2.162,6.539,2.162c3.205,0,6.118-0.734,8.739-2.207c2.62-1.471,4.603-3.49,5.946-6.055
		c0.943-1.808,1.136-3.316,0.575-4.524c-0.563-1.21-1.899-2.193-4.008-2.952l-1.843-0.654c-1.373-0.497-2.352-0.896-2.935-1.203
		c-0.582-0.306-0.929-0.648-1.036-1.027c-0.108-0.379-0.002-0.875,0.318-1.487c0.474-0.902,1.236-1.608,2.29-2.119
		c1.056-0.511,2.324-0.766,3.812-0.766c1.341,0,2.227,0.314,2.656,0.94c0.43,0.627,0.331,1.537-0.295,2.731l-0.366,0.7h5.51
		l0.205-0.393c1.48-2.828,1.765-5,0.853-6.516c-0.914-1.516-2.941-2.271-6.09-2.271c-2.069,0-4.045,0.334-5.924,1.005
		c-1.883,0.669-3.555,1.609-5.018,2.819c-1.463,1.211-2.607,2.602-3.432,4.176c-0.762,1.457-1.137,2.674-1.123,3.65
		C194.478,44.019,194.903,44.849,195.741,45.535z"/>
	<path fill="#FFFFFF" d="M87.833,59.195c3.585,0,6.688-0.766,9.311-2.293c2.621-1.531,4.765-3.884,6.426-7.061l0.665-1.27h-5.467
		l-0.616,1.182c-0.81,1.544-1.777,2.658-2.909,3.343c-1.131,0.685-2.701,1.029-4.712,1.029c-2.069,0-3.336-0.38-3.798-1.138
		c-0.465-0.758-0.33-1.836,0.402-3.234l4.667-8.92c0.747-1.426,1.725-2.512,2.929-3.256c1.205-0.743,2.887-1.116,5.043-1.116
		c2.039,0,3.264,0.336,3.67,1.007c0.408,0.67,0.223,1.75-0.557,3.234l-0.709,1.356h5.465l0.709-1.356
		c3.248-6.208,1.26-9.311-5.969-9.311c-3.643,0-6.824,0.801-9.543,2.402c-2.717,1.605-4.893,3.965-6.526,7.085l-4.62,8.831
		c-1.633,3.117-1.928,5.477-0.888,7.082C81.848,58.395,84.19,59.195,87.833,59.195z"/>
	<polygon fill="#FFFFFF" points="229.743,58.933 232.305,54.037 219.366,54.037 222.728,47.611 234.708,47.611 237.27,42.715 
		225.29,42.715 228.493,36.595 241.434,36.595 244.02,31.654 225.615,31.654 211.337,58.933 	"/>
	<path fill="#FFFFFF" d="M165.199,58.933l4.919-9.399h3.979l0.72,9.399h6.295l-0.969-10.01c2.521-0.585,4.605-1.531,6.254-2.844
		c1.648-1.311,3.074-3.118,4.278-5.42c1.618-3.09,1.866-5.362,0.75-6.818c-1.116-1.459-3.774-2.188-7.972-2.188h-9.441
		l-14.277,27.279H165.199z M176.915,36.55h4.151c2.361,0,3.827,0.307,4.396,0.918c0.566,0.611,0.478,1.632-0.268,3.061
		c-0.55,1.049-1.152,1.865-1.809,2.448c-0.653,0.582-1.476,1.012-2.465,1.288c-0.99,0.277-2.288,0.417-3.891,0.417h-4.371
		L176.915,36.55z"/>
	<path d="M117.337,54.125c2.098,0,3.822-0.388,5.175-1.16c1.352-0.771,2.471-2.004,3.354-3.693l4.164-7.956
		c0.885-1.69,1.056-2.922,0.513-3.694s-1.864-1.16-3.962-1.16s-3.822,0.388-5.174,1.16c-1.353,0.772-2.471,2.004-3.354,3.694
		l-4.165,7.956c-0.886,1.689-1.056,2.922-0.513,3.693C113.918,53.738,115.24,54.125,117.337,54.125z"/>
	<path d="M180.92,44.265c0.989-0.276,1.812-0.706,2.465-1.288c0.656-0.583,1.259-1.399,1.809-2.448
		c0.745-1.429,0.834-2.449,0.268-3.061c-0.568-0.611-2.034-0.918-4.396-0.918h-4.151l-4.256,8.132h4.371
		C178.632,44.682,179.93,44.542,180.92,44.265z"/>
</g>
</svg>
