<?xml version="1.0" encoding="utf-8"?>
<!-- Generator: Adobe Illustrator 15.1.0, SVG Export Plug-In . SVG Version: 6.00 Build 0)  -->
<!DOCTYPE svg PUBLIC "-//W3C//DTD SVG 1.0//EN" "http://www.w3.org/TR/2001/REC-SVG-20010904/DTD/svg10.dtd">
<svg version="1.0" id="Layer_1" xmlns:serif="http://www.serif.com/"
	 xmlns="http://www.w3.org/2000/svg" xmlns:xlink="http://www.w3.org/1999/xlink" x="0px" y="0px" width="283.46px"
	 height="283.46px" viewBox="0 0 283.46 283.46" enable-background="new 0 0 283.46 283.46" xml:space="preserve">
<path d="M152.732,28.502c-7.318-0.711-14.688-0.711-22.006,0l-3.624,17.644c-7.012,1.073-13.887,2.916-20.498,5.493L94.644,38.17
	c-6.694,3.044-13.076,6.729-19.057,11.003l5.684,17.092c-5.538,4.438-10.57,9.468-15.008,15.007l-17.091-5.683
	c-4.275,5.98-7.958,12.363-11.002,19.055l13.467,11.962c-2.578,6.609-4.418,13.484-5.493,20.499l-17.642,3.624
	c-0.711,7.317-0.711,14.688,0,22.005l17.642,3.624c1.075,7.013,2.915,13.888,5.493,20.499L38.17,188.816
	c3.044,6.694,6.727,13.074,11.002,19.059l17.091-5.686c4.438,5.539,9.47,10.571,15.008,15.008l-5.684,17.092
	c5.98,4.275,12.362,7.959,19.057,11.002l11.96-13.467c6.611,2.578,13.486,4.418,20.498,5.492l3.624,17.643
	c7.318,0.711,14.688,0.711,22.006,0l3.624-17.643c7.015-1.074,13.89-2.914,20.498-5.492l11.963,13.467
	c6.69-3.043,13.074-6.727,19.056-11.002l-5.684-17.092c5.536-4.437,10.568-9.469,15.006-15.008l17.094,5.686
	c4.272-5.983,7.959-12.363,11-19.059l-13.467-11.959c2.577-6.611,4.42-13.486,5.492-20.499l17.645-3.624
	c0.711-7.316,0.711-14.688,0-22.005l-17.645-3.624c-1.072-7.015-2.915-13.89-5.492-20.499l13.467-11.962
	c-3.041-6.691-6.728-13.074-11-19.055l-17.094,5.683c-4.438-5.539-9.47-10.569-15.006-15.007l5.684-17.092
	c-5.98-4.274-12.363-7.959-19.056-11.003l-11.963,13.469c-6.608-2.577-13.483-4.42-20.498-5.492L152.732,28.502L152.732,28.502z
	 M141.729,72.997c37.937,0,68.733,30.799,68.733,68.734c0,37.937-30.799,68.733-68.733,68.733
	c-37.935,0-68.734-30.797-68.734-68.733C72.995,103.795,103.793,72.997,141.729,72.997z M94.522,167.96l33.487-64.381
	c0.82-1.576,2.449-2.564,4.224-2.564c9.365,0,39.058,0,52.707,0c1.481,0,2.856,0.774,3.625,2.041
	c0.771,1.268,0.822,2.844,0.14,4.158c-7.427,14.275-25.481,48.989-30.52,58.672c-0.813,1.564-2.43,2.545-4.191,2.545
	c-11.876,0-56.569,0-56.569,0v10.908h58.389l32.969-61.203v-2.972c0.514,0.181,0.961,0.534,1.252,1.017
	c0.435,0.713,0.465,1.603,0.078,2.342c-6.551,12.592-28.761,55.294-32.664,62.795c-0.359,0.693-1.076,1.127-1.859,1.127
	c-7.795,0-49.097,0-59.118,0c-0.582,0-1.139-0.229-1.551-0.641c-0.409-0.41-0.641-0.969-0.641-1.551c0-3.328,0-9.459,0-11.293
	C94.278,168.613,94.361,168.27,94.522,167.96L94.522,167.96z M74.693,110.773c-0.95,2.063-2.126,3.417-3.525,4.063
	c-1.398,0.644-2.981,0.561-4.745-0.255l-5-2.31c-1.764-0.813-2.856-1.962-3.271-3.445c-0.416-1.482-0.148-3.255,0.803-5.317
	c1.891-4.093,4.59-5.327,8.104-3.705l0.768,0.355l-1.428,3.092l-0.768-0.354c-0.842-0.388-1.551-0.455-2.129-0.202
	c-0.577,0.255-1.131,0.959-1.665,2.112c-0.563,1.222-0.742,2.161-0.535,2.815c0.208,0.656,0.716,1.171,1.524,1.546l5.048,2.329
	c0.792,0.366,1.516,0.405,2.168,0.115c0.653-0.288,1.251-1.019,1.792-2.189c0.525-1.138,0.695-2.015,0.51-2.632
	c-0.188-0.617-0.717-1.125-1.592-1.53l-0.667-0.308l1.429-3.094l0.717,0.331c1.799,0.831,2.892,1.96,3.282,3.393
	C75.903,107.014,75.63,108.743,74.693,110.773z M225.423,113.845l-2.079-4.891l-12.816,5.449l-1.335-3.136l12.819-5.449l-2.08-4.891
	l2.834-1.206l5.491,12.92L225.423,113.845L225.423,113.845z M219.746,94.06l-13.58,10.239l-1.97-2.612l8.554-6.447l-10.584,1.356
	l-0.229-0.306l4.211-10.034l-8.663,6.53l-1.951-2.591l13.579-10.239L211,82.459l-4.367,10.734l11.322-1.506L219.746,94.06
	L219.746,94.06z M83.45,96.421c-1.406,1.806-2.909,2.869-4.507,3.192c-1.597,0.32-3.186-0.131-4.763-1.36l-3.914-3.049
	c-1.576-1.228-2.404-2.655-2.483-4.282c-0.078-1.629,0.585-3.345,1.991-5.152c1.406-1.806,2.908-2.87,4.507-3.192
	c1.599-0.32,3.186,0.133,4.762,1.36l3.914,3.049c1.577,1.228,2.405,2.655,2.483,4.282C85.521,92.898,84.856,94.616,83.45,96.421z
	 M80.956,94.479c0.805-1.032,1.196-1.93,1.182-2.691c-0.018-0.761-0.442-1.467-1.273-2.115l-3.914-3.046
	c-0.831-0.647-1.618-0.887-2.361-0.717c-0.743,0.17-1.516,0.771-2.32,1.803c-0.804,1.032-1.197,1.93-1.18,2.69
	c0.018,0.764,0.44,1.468,1.271,2.115l3.914,3.049c0.833,0.647,1.62,0.885,2.361,0.715C79.378,96.112,80.153,95.51,80.956,94.479z
	 M198.041,80.57l-5.435,6.997l-2.174-1.688l1.012-1.526c-0.778,0.293-1.571,0.321-2.379,0.086c-0.808-0.236-1.668-0.709-2.586-1.422
	c-3.39-2.63-3.815-5.573-1.287-8.831l2.957-3.812c1.293-1.666,2.735-2.547,4.33-2.643c1.594-0.099,3.295,0.556,5.103,1.96
	c1.953,1.516,3.037,2.994,3.25,4.438c0.213,1.443-0.235,2.883-1.351,4.317l-0.185,0.237l-2.691-2.089l0.15-0.194
	c0.39-0.503,0.625-0.959,0.701-1.371c0.078-0.41-0.018-0.842-0.287-1.293c-0.272-0.451-0.771-0.962-1.506-1.53
	c-1.09-0.847-2.004-1.228-2.736-1.141c-0.733,0.085-1.424,0.545-2.069,1.376l-2.992,3.854c-0.602,0.774-0.851,1.524-0.745,2.251
	c0.104,0.724,0.701,1.511,1.793,2.356c1.004,0.781,1.881,1.145,2.633,1.097c0.752-0.05,1.412-0.44,1.979-1.173l0.017-0.021
	l-2.304-1.788l1.806-2.324L198.041,80.57L198.041,80.57z M95.647,84.06c-1.772,1.422-3.43,2.106-4.969,2.059
	c-1.54-0.048-2.996-0.929-4.37-2.645l-6.796-8.491l2.66-2.128l6.729,8.403c0.658,0.822,1.35,1.286,2.073,1.394
	c0.727,0.106,1.614-0.262,2.663-1.102c1.035-0.828,1.576-1.615,1.62-2.361c0.043-0.743-0.253-1.513-0.89-2.309l-6.729-8.403
	l2.66-2.131l6.797,8.491c1.387,1.73,1.934,3.345,1.646,4.845C98.452,81.182,97.419,82.641,95.647,84.06L95.647,84.06z
	 M111.565,61.558c0.61,1.3,0.817,2.446,0.621,3.44s-0.842,1.949-1.937,2.865l6.153,4.008l-3.552,1.666l-5.674-3.812l-2.243,1.053
	l2.487,5.306l-3.085,1.447l-7.222-15.398l5.329-2.498c2.37-1.112,4.278-1.505,5.724-1.18
	C109.615,58.78,110.747,59.814,111.565,61.558L111.565,61.558z M185.098,61.238l-6.595,15.677l-3.012-1.269l4.15-9.873l-8.467,6.491
	l-0.352-0.148l-1.404-10.791l-4.205,10l-2.99-1.259l6.594-15.678l2.891,1.217l1.619,11.474l9.031-6.995L185.098,61.238
	L185.098,61.238z M125.413,69.713c-2.002,0.453-3.656,0.366-4.963-0.262c-1.306-0.626-2.137-1.728-2.494-3.306l-0.138-0.611
	l3.35-0.759l0.096,0.426c0.343,1.507,1.53,2.03,3.569,1.569c1.843-0.418,2.641-1.175,2.392-2.273
	c-0.089-0.391-0.244-0.685-0.466-0.888c-0.223-0.2-0.565-0.352-1.025-0.451c-0.46-0.103-1.125-0.175-1.99-0.221l-1.162-0.074
	c-1.396-0.074-2.506-0.237-3.325-0.49c-0.822-0.253-1.459-0.639-1.913-1.16c-0.451-0.523-0.778-1.226-0.979-2.112
	c-0.218-0.958-0.155-1.86,0.183-2.711c0.339-0.848,0.927-1.583,1.767-2.2c0.837-0.619,1.886-1.07,3.145-1.354
	c1.914-0.435,3.493-0.308,4.738,0.381c1.245,0.688,2.063,1.889,2.45,3.609l0.055,0.239l-3.349,0.757l-0.097-0.425
	c-0.165-0.727-0.521-1.228-1.066-1.505c-0.547-0.276-1.229-0.325-2.045-0.14c-0.902,0.205-1.559,0.517-1.967,0.934
	c-0.41,0.419-0.552,0.902-0.428,1.452c0.086,0.373,0.247,0.651,0.484,0.842c0.238,0.188,0.604,0.324,1.099,0.407l3.751,0.341
	c1.629,0.115,2.889,0.457,3.783,1.028c0.892,0.571,1.463,1.407,1.712,2.506c0.353,1.562,0.067,2.915-0.855,4.064
	C128.799,68.477,127.364,69.272,125.413,69.713L125.413,69.713z M103.647,68.041l2.469-1.158c0.904-0.423,1.559-0.826,1.962-1.205
	c0.403-0.382,0.628-0.781,0.672-1.204c0.041-0.421-0.074-0.929-0.354-1.52c-0.377-0.807-0.898-1.265-1.563-1.374
	c-0.662-0.111-1.661,0.146-2.993,0.772l-2.344,1.099L103.647,68.041z M138.266,53.845l0.051,3.816l7.466-0.094l0.039,3.051
	l-7.468,0.096l0.052,4.005l8.065-0.103l0.04,3.053l-11.474,0.146l-0.216-17.006l11.474-0.146l0.039,3.079L138.266,53.845
	L138.266,53.845z"/>
</svg>
