<?xml version="1.0" encoding="utf-8"?>
<!-- Generator: Adobe Illustrator 15.1.0, SVG Export Plug-In . SVG Version: 6.00 Build 0)  -->
<!DOCTYPE svg PUBLIC "-//W3C//DTD SVG 1.1//EN" "http://www.w3.org/Graphics/SVG/1.1/DTD/svg11.dtd">
<svg version="1.1" id="Layer_1" xmlns="http://www.w3.org/2000/svg" xmlns:xlink="http://www.w3.org/1999/xlink" x="0px" y="0px"
	 width="283.46px" height="283.46px" viewBox="0 0 283.46 283.46" enable-background="new 0 0 283.46 283.46" xml:space="preserve">
<g>
	<path fill="none" d="M177.453,131.837h37.615c-4.403-32.953-30.492-59.042-63.445-63.445v37.616h-19.785V68.392
		c-32.953,4.403-59.042,30.492-63.445,63.445h37.616v19.785H68.392c4.403,32.953,30.492,59.042,63.445,63.445v-37.615h19.785v37.615
		c32.953-4.403,59.042-30.492,63.445-63.445h-37.615V131.837z"/>
	<path d="M276.375,131.837h-41.381c-0.958-9.166-3.251-18.085-6.86-26.617c-4.725-11.17-11.483-21.197-20.09-29.804
		s-18.634-15.366-29.804-20.091c-8.532-3.609-17.451-5.901-26.618-6.86V7.084h-19.785v41.381c-9.166,0.959-18.085,3.251-26.617,6.86
		C94.05,60.05,84.023,66.81,75.417,75.417S60.05,94.05,55.326,105.22c-3.609,8.532-5.901,17.451-6.86,26.617H7.084v19.785h41.381
		c0.959,9.167,3.251,18.086,6.86,26.618c4.725,11.17,11.484,21.197,20.091,29.804s18.634,15.365,29.804,20.09
		c8.532,3.608,17.451,5.901,26.617,6.86v41.381h19.785v-41.381c9.167-0.959,18.086-3.252,26.618-6.86
		c11.17-4.725,21.197-11.483,29.804-20.09s15.365-18.634,20.09-29.804c3.609-8.532,5.902-17.451,6.86-26.618h41.381V131.837z
		 M151.623,215.068v-37.615h-19.785v37.615c-32.953-4.403-59.042-30.492-63.445-63.445h37.616v-19.785H68.392
		c4.403-32.953,30.492-59.042,63.445-63.445v37.616h19.785V68.392c32.953,4.403,59.042,30.492,63.445,63.445h-37.615v19.785h37.615
		C210.665,184.576,184.576,210.665,151.623,215.068z"/>
</g>
</svg>
