<?xml version="1.0" encoding="utf-8"?>
<!-- Generator: Adobe Illustrator 15.1.0, SVG Export Plug-In . SVG Version: 6.00 Build 0)  -->
<!DOCTYPE svg PUBLIC "-//W3C//DTD SVG 1.1//EN" "http://www.w3.org/Graphics/SVG/1.1/DTD/svg11.dtd">
<svg version="1.1" id="Capa_1" xmlns="http://www.w3.org/2000/svg" xmlns:xlink="http://www.w3.org/1999/xlink" x="0px" y="0px"
	 width="283.46px" height="283.46px" viewBox="0 0 283.46 283.46" enable-background="new 0 0 283.46 283.46" xml:space="preserve">
<g>
	<path d="M137.243,123.249L256.098,63.82L139.191,7.53c-1.275-0.615-2.761-0.592-4.018,0.063L22.969,65.939
		c-0.049,0.027-0.081,0.067-0.13,0.094c-0.005,0.004-0.009,0.004-0.014,0.009L137.243,123.249z"/>
	<path d="M141.731,131.04v145.337c0.62,0,1.221-0.172,1.8-0.422c0.066-0.033,0.143-0.02,0.206-0.051l116.692-58.346
		c1.521-0.764,2.481-2.316,2.481-4.016V70.454L141.731,131.04z"/>
	<path d="M132.754,131.04L20.55,74.938v138.605c0,1.699,0.961,3.252,2.482,4.016l109.722,54.863V131.04z"/>
</g>
</svg>
