<?xml version="1.0" encoding="iso-8859-1"?>
<!-- Generator: Adobe Illustrator 15.1.0, SVG Export Plug-In . SVG Version: 6.00 Build 0)  -->
<!DOCTYPE svg PUBLIC "-//W3C//DTD SVG 1.1//EN" "http://www.w3.org/Graphics/SVG/1.1/DTD/svg11.dtd">
<svg version="1.1" id="Layer_5" xmlns="http://www.w3.org/2000/svg" xmlns:xlink="http://www.w3.org/1999/xlink" x="0px" y="0px"
	 width="283.46px" height="283.46px" viewBox="0 0 283.46 283.46" style="enable-background:new 0 0 283.46 283.46;"
	 xml:space="preserve">
<g>
	<path style="fill:#231F20;" d="M222.232,94.474h-30.08c-2.27,0-4.11,1.841-4.11,4.111v9.142c0,2.27,1.841,4.11,4.11,4.11h30.08
		c5.424,0,10.005,3.202,10.005,6.993v133.188c0,3.792-4.581,6.994-10.005,6.994H61.229c-5.424,0-10.006-3.202-10.006-6.994V118.831
		c0-3.791,4.582-6.993,10.006-6.993h30.08c2.271,0,4.11-1.841,4.11-4.11v-9.142c0-2.271-1.84-4.111-4.11-4.111h-30.08
		c-16.458,0-29.848,10.927-29.848,24.356v133.188c0,13.431,13.39,24.356,29.848,24.356h161.003
		c16.457,0,29.847-10.926,29.847-24.356V118.831C252.079,105.401,238.689,94.474,222.232,94.474z"/>
	<path style="fill:#231F20;" d="M104.399,77.077c4.482,2.769,10.36,1.378,13.128-3.104l14.664-23.745v61.999v20.751v31.873v2.037
		v14.439c0,5.269,4.271,9.539,9.54,9.539s9.539-4.271,9.539-9.539v-14.439v-2.037v-31.873v-20.751V50.229l14.664,23.744
		c2.768,4.482,8.646,5.872,13.127,3.104c2.923-1.804,4.529-4.928,4.529-8.126c0-1.709-0.46-3.44-1.424-5.003l-32.319-52.336
		c0,0,0,0-0.001,0c-0.054-0.087-0.109-0.173-0.168-0.259c-0.025-0.04-0.053-0.082-0.081-0.122c-0.09-0.13-0.182-0.258-0.279-0.384
		c-0.02-0.027-0.041-0.055-0.062-0.081c-0.229-0.294-0.476-0.575-0.741-0.844c-0.029-0.029-0.058-0.059-0.088-0.088
		c-0.112-0.111-0.23-0.222-0.35-0.328c-0.059-0.051-0.117-0.103-0.175-0.152c-0.035-0.028-0.067-0.06-0.101-0.088
		c-0.001-0.002-0.004-0.004-0.005-0.004c-0.156-0.129-0.317-0.253-0.484-0.372c-0.054-0.04-0.111-0.077-0.168-0.115
		c-0.067-0.048-0.138-0.093-0.208-0.14c-0.065-0.041-0.128-0.088-0.195-0.129c-0.036-0.022-0.073-0.039-0.109-0.061
		c-0.084-0.05-0.168-0.102-0.253-0.148c-0.107-0.063-0.221-0.117-0.332-0.174c-0.091-0.046-0.18-0.094-0.271-0.136
		c-0.067-0.032-0.135-0.063-0.203-0.093c-0.121-0.055-0.247-0.103-0.37-0.15c-0.106-0.041-0.211-0.084-0.317-0.121
		c-0.055-0.019-0.11-0.038-0.168-0.056c-0.125-0.041-0.254-0.079-0.383-0.116c-0.116-0.032-0.234-0.066-0.351-0.095
		c-0.056-0.014-0.111-0.025-0.167-0.037c-0.124-0.028-0.247-0.051-0.373-0.074c-0.12-0.021-0.241-0.046-0.362-0.063
		c-0.07-0.01-0.142-0.016-0.211-0.023c-0.114-0.014-0.229-0.025-0.346-0.035c-0.114-0.01-0.228-0.021-0.344-0.027
		c-0.093-0.005-0.189-0.003-0.285-0.005c-0.055-0.001-0.109-0.008-0.164-0.008s-0.108,0.007-0.164,0.008
		c-0.095,0.002-0.191,0-0.286,0.005c-0.114,0.006-0.228,0.018-0.343,0.027s-0.23,0.021-0.346,0.035
		c-0.07,0.008-0.142,0.014-0.211,0.023c-0.121,0.017-0.241,0.041-0.361,0.063c-0.126,0.023-0.251,0.046-0.373,0.074
		c-0.057,0.012-0.112,0.023-0.167,0.037c-0.118,0.028-0.235,0.063-0.353,0.096c-0.128,0.036-0.256,0.073-0.382,0.114
		c-0.057,0.019-0.112,0.038-0.167,0.057c-0.106,0.038-0.212,0.08-0.316,0.121c-0.125,0.049-0.249,0.096-0.37,0.149
		c-0.069,0.03-0.137,0.063-0.205,0.094c-0.092,0.043-0.182,0.091-0.272,0.136c-0.111,0.057-0.222,0.111-0.331,0.173
		c-0.086,0.048-0.172,0.1-0.258,0.15c-0.035,0.021-0.073,0.038-0.107,0.06c-0.048,0.029-0.089,0.064-0.137,0.094
		c-0.089,0.058-0.178,0.112-0.265,0.173c-0.096,0.064-0.188,0.134-0.28,0.203c-0.085,0.063-0.166,0.127-0.25,0.192
		c-0.065,0.053-0.132,0.104-0.197,0.159c-0.09,0.076-0.179,0.154-0.267,0.234c-0.086,0.079-0.171,0.159-0.256,0.24
		c-0.054,0.054-0.107,0.106-0.159,0.162c-0.079,0.079-0.154,0.16-0.229,0.243c-0.084,0.093-0.167,0.185-0.246,0.278
		c-0.055,0.064-0.106,0.131-0.158,0.197c-0.063,0.078-0.124,0.157-0.186,0.237c-0.071,0.097-0.145,0.194-0.212,0.293
		c-0.06,0.086-0.114,0.175-0.171,0.264c-0.029,0.047-0.063,0.088-0.093,0.134l-32.319,52.336
		C98.527,68.433,99.917,74.309,104.399,77.077z"/>
</g>
</svg>
