<?xml version="1.0" encoding="utf-8"?>
<!-- Generator: Adobe Illustrator 15.1.0, SVG Export Plug-In . SVG Version: 6.00 Build 0)  -->
<!DOCTYPE svg PUBLIC "-//W3C//DTD SVG 1.1//EN" "http://www.w3.org/Graphics/SVG/1.1/DTD/svg11.dtd">
<svg version="1.1" id="Layer_1" xmlns:serif="http://www.serif.com/"
	 xmlns="http://www.w3.org/2000/svg" xmlns:xlink="http://www.w3.org/1999/xlink" x="0px" y="0px" width="283.46px"
	 height="283.46px" viewBox="0 0 283.46 283.46" enable-background="new 0 0 283.46 283.46" xml:space="preserve">
<g id="ia-training1" serif:id="ia-training">
	<path d="M139.169,14.523l-0.754,0.004c-17.4,0.765-36.239,2.573-55.375,5.996c-18.141,3.249-36.542,7.948-54.25,14.572
		l-6.821,2.551l-0.113,7.281c-0.824,53.072,8.327,93.587,23.9,125.891c20.355,42.217,51.729,70.563,87.197,94.258l5.778,3.861
		l5.869-3.723c36.946-23.43,69.671-51.428,91.108-92.889c16.845-32.572,26.774-73.528,25.894-127.407l-0.122-7.407l-6.979-2.477
		c-18.626-6.613-37.981-11.304-57.059-14.54c-20.082-3.408-39.853-5.207-58.114-5.97L139.169,14.523L139.169,14.523z
		 M139.459,57.816V30.142h39.961v10.977h21.405c0.727-1.086,1.963-1.801,3.365-1.801c2.232,0,4.045,1.812,4.045,4.045
		s-1.813,4.044-4.045,4.044c-1.379,0-2.598-0.691-3.326-1.746h-25.988V34.684H144v23.863l56.464,9.051l12.754,89.64l-45.727,6.445
		l11.929,9.977c2.294,0.9,3.587,1.92,3.587,3c0,3.639-14.686,6.594-32.777,6.594c-2.127,0-4.21-0.039-6.229-0.119v7.426h46.359
		v-20.479h13.819c0.729-1.068,1.956-1.773,3.348-1.773c2.23,0,4.045,1.813,4.045,4.045s-1.814,4.045-4.045,4.045
		c-1.392,0-2.619-0.705-3.348-1.773h-9.277v20.48H144v9.773h21.339v15.754h3.92c0.729-1.07,1.956-1.771,3.348-1.771
		c2.23,0,4.045,1.811,4.045,4.041c0,2.234-1.814,4.045-4.045,4.045c-1.392,0-2.619-0.701-3.348-1.771h-8.462v-15.754h-21.338
		v-14.316h-23.076v22.518h-9.038c-0.728,1.068-1.956,1.771-3.345,1.771c-2.233,0-4.045-1.813-4.045-4.045s1.812-4.045,4.045-4.045
		c1.389,0,2.617,0.705,3.345,1.773h4.496v-17.973H84.224v-25.023H98.61c0.729-1.068,1.956-1.773,3.347-1.773
		c2.23,0,4.044,1.813,4.044,4.045s-1.814,4.045-4.044,4.045c-1.391,0-2.619-0.705-3.347-1.773l-9.843-0.002v15.938h50.691v-7.67
		c-12.808-0.898-22.005-3.35-22.005-6.23h-0.379l0.425-0.355c0.218-0.824,1.193-1.609,2.785-2.326l3.545-2.967l-5.881,1.342
		L105.354,59.911l17.45-4.764L139.459,57.816L139.459,57.816z M99.234,72.748H80.746V44.563c-1.071-0.728-1.773-1.956-1.773-3.347
		c0-2.231,1.812-4.042,4.045-4.042c2.23,0,4.042,1.812,4.042,4.042c0,1.391-0.702,2.619-1.773,3.347v23.641h15.974l3.328-7.459
		l12.485,111.609l-16.685-6.883H80.927c-1.029-3.07-1.958-6.141-2.782-9.215H72.8v12.75c1.071,0.729,1.772,1.957,1.772,3.348
		c0,2.232-1.812,4.045-4.044,4.045c-2.23,0-4.045-1.813-4.045-4.045c0-1.391,0.705-2.619,1.775-3.348v-17.293H77
		c-1.66-7.051-2.776-14.118-3.336-21.2h-9.666v-22.132c-1.068-0.728-1.772-1.956-1.772-3.345c0-2.233,1.812-4.045,4.045-4.045
		c2.232,0,4.044,1.812,4.044,4.045c0,1.389-0.704,2.617-1.772,3.345v17.59h4.84c-0.417-9.291,0.131-18.602,1.681-27.938
		l16.986-9.184l0.72-1.609H54.942v14.45c1.068,0.729,1.772,1.956,1.772,3.347c0,2.23-1.812,4.045-4.044,4.045
		c-2.233,0-4.045-1.814-4.045-4.045c0-1.391,0.704-2.619,1.773-3.347V82.695h13.599L64,63.017H44.825
		c-0.729,1.07-1.956,1.772-3.347,1.772c-2.23,0-4.042-1.812-4.042-4.045c0-2.23,1.812-4.042,4.042-4.042
		c1.391,0,2.619,0.702,3.347,1.773h23.717v24.221h26.252L99.234,72.748z M232.153,116.928c0.728-1.068,1.956-1.772,3.347-1.772
		c2.232,0,4.045,1.812,4.045,4.044c0,2.233-1.813,4.045-4.045,4.045c-1.391,0-2.619-0.704-3.347-1.773h-7.266v32.504l-12.188-0.381
		l-0.65-4.566l8.297,0.26v-32.36H232.153L232.153,116.928z M196.341,77.338l-64.536-9.74l9.923,81.494l64.077-5.727L196.341,77.338
		L196.341,77.338z M214.916,63.017c-0.728,1.07-1.955,1.772-3.344,1.772c-2.233,0-4.045-1.812-4.045-4.045
		c0-2.23,1.812-4.042,4.045-4.042c1.389,0,2.616,0.702,3.344,1.773h22.854v28.765H218.76v11.209h19.794
		c0.727-1.07,1.954-1.772,3.346-1.772c2.232,0,4.045,1.812,4.045,4.044c0,2.231-1.813,4.043-4.045,4.043
		c-1.392,0-2.619-0.702-3.346-1.773h-24.336V87.239h-10.959l-0.647-4.544h30.616V63.017H214.916z"/>
</g>
</svg>
