<?xml version="1.0" encoding="utf-8"?>
<!-- Generator: Adobe Illustrator 15.1.0, SVG Export Plug-In . SVG Version: 6.00 Build 0)  -->
<!DOCTYPE svg PUBLIC "-//W3C//DTD SVG 1.1//EN" "http://www.w3.org/Graphics/SVG/1.1/DTD/svg11.dtd">
<svg version="1.1" id="Layer_4" xmlns="http://www.w3.org/2000/svg" xmlns:xlink="http://www.w3.org/1999/xlink" x="0px" y="0px"
	 width="283.46px" height="283.46px" viewBox="0 0 283.46 283.46" enable-background="new 0 0 283.46 283.46" xml:space="preserve">
<g>
	<path fill="#231F20" d="M265.748,89.11l-2.039-4.584l-21.957,14.808l1.29,3.167c4.759,11.669,7.171,24.06,7.171,36.83
		c0,26.047-10.145,50.536-28.563,68.954c-4.943,4.943-10.409,9.351-16.283,13.133l-7.681-21.916l-48.368,56.259l41.551,7.816
		l-0.005,0.023l31.36,5.918l-8.021-22.892c12.502-7.172,23.557-16.374,32.883-27.372c18.889-22.284,29.291-50.67,29.291-79.926
		C276.375,121.859,272.8,104.963,265.748,89.11z"/>
	<path fill="#231F20" d="M83.743,208.285C65.324,189.866,55.18,165.376,55.18,139.33c0-4.101,0.255-8.215,0.757-12.267l24.053,4.54
		L55.453,61.586L7.084,117.844l23.107,4.36c-0.781,5.654-1.177,11.404-1.177,17.126c0,29.254,10.403,57.639,29.293,79.926
		c18.673,22.027,44.529,36.896,72.807,41.873l4.94,0.871v-26.506L132.7,234.8C114.182,230.963,97.253,221.794,83.743,208.285z"/>
	<path fill="#231F20" d="M86.307,67.912c18.072-16.83,41.65-26.099,66.392-26.099c15.415,0,30.646,3.649,44.241,10.577L181.626,70.2
		l72.905,13.758l-24.538-70.016l-15.617,18.166c-4.073-2.347-8.298-4.471-12.585-6.326c-15.523-6.724-32.042-10.133-49.095-10.133
		c-32.933,0-63.923,12.798-87.264,36.039l-3.621,3.607l22.046,14.9L86.307,67.912z"/>
</g>
</svg>
