<?xml version="1.0" encoding="utf-8"?>
<!-- Generator: Adobe Illustrator 15.1.0, SVG Export Plug-In . SVG Version: 6.00 Build 0)  -->
<!DOCTYPE svg PUBLIC "-//W3C//DTD SVG 1.1//EN" "http://www.w3.org/Graphics/SVG/1.1/DTD/svg11.dtd">
<svg version="1.1" id="Layer_4" xmlns="http://www.w3.org/2000/svg" xmlns:xlink="http://www.w3.org/1999/xlink" x="0px" y="0px"
	 width="283.46px" height="283.46px" viewBox="0 0 283.46 283.46" enable-background="new 0 0 283.46 283.46" xml:space="preserve">
<g>
	<path fill="#231F20" d="M265.677,88.219l-0.883-1.984l-1.801,1.214L247.632,97.81l-1.228,0.828l0.558,1.371
		c5.009,12.285,7.547,25.326,7.547,38.76c0,27.415-10.676,53.186-30.061,72.57c-6.009,6.009-12.666,11.189-19.814,15.488
		l-7.486-21.361l-44.02,51.199l12.537,2.366l28.391,5.33l-0.005,0.027l25.428,4.798l-7.498-21.395
		c13.168-7.271,25.038-16.929,34.91-28.572c19.014-22.432,29.483-51.004,29.483-80.452
		C276.375,121.185,272.777,104.178,265.677,88.219z"/>
	<path fill="#231F20" d="M79.31,211.339c-19.384-19.385-30.06-45.158-30.06-72.571c0-5.251,0.39-10.437,1.158-15.539l23.025,4.345
		l-22.331-63.72L7.084,115.053l21.832,4.12c-1.014,6.43-1.532,12.969-1.532,19.596c0,29.447,10.472,58.02,29.485,80.452
		c18.794,22.17,44.82,37.141,73.285,42.149l2.138,0.377v-2.172v-18.547v-1.482l-1.452-0.301
		C111.346,235.207,93.528,225.556,79.31,211.339z"/>
	<path fill="#231F20" d="M186.304,66.132l66.35,12.521l-22.331-63.72l-14.575,16.953c-4.631-2.771-9.449-5.25-14.449-7.415
		c-15.625-6.767-32.252-10.198-49.418-10.198c-33.149,0-64.345,12.883-87.839,36.276l-1.568,1.562l1.833,1.239l15.438,10.434
		l1.202,0.812l1.061-0.989c19.02-17.713,43.835-27.469,69.875-27.469c17.51,0,34.395,4.383,49.363,12.617L186.304,66.132z"/>
</g>
</svg>
