<?xml version="1.0" encoding="utf-8"?>
<!-- Generator: Adobe Illustrator 15.1.0, SVG Export Plug-In . SVG Version: 6.00 Build 0)  -->
<!DOCTYPE svg PUBLIC "-//W3C//DTD SVG 1.1//EN" "http://www.w3.org/Graphics/SVG/1.1/DTD/svg11.dtd">
<svg version="1.1" id="Layer_2" xmlns="http://www.w3.org/2000/svg" xmlns:xlink="http://www.w3.org/1999/xlink" x="0px" y="0px"
	 width="283.46px" height="283.46px" viewBox="0 0 283.46 283.46" enable-background="new 0 0 283.46 283.46" xml:space="preserve">
<g>
	<path d="M213.894,112.563c-18.482-18.431-44-29.837-72.163-29.837c-28.165,0-53.681,11.406-72.164,29.837
		c-18.504,18.456-29.958,43.951-29.958,72.099c0,3.711,0.062,6.564,1.3,8.761c1.509,2.671,4.763,4.38,11.806,5.458
		c12.849,1.965,38.362,1.854,89.017,1.854c50.652,0,76.165,0.111,89.015-1.854c7.043-1.078,10.299-2.787,11.806-5.458
		c1.238-2.196,1.3-5.05,1.3-8.761C243.851,156.513,232.397,131.018,213.894,112.563z M150.773,182.11
		c0.229,0.812,0.352,1.666,0.352,2.552c0,2.592-1.053,4.94-2.752,6.641c-1.7,1.701-4.049,2.752-6.642,2.752
		c-2.592,0-4.942-1.051-6.642-2.752c-1.7-1.7-2.754-4.049-2.754-6.641c0-2.593,1.054-4.941,2.754-6.643
		c1.699-1.7,4.05-2.754,6.642-2.754c0.818,0,1.614,0.105,2.37,0.304c0.785,0.204,1.529,0.506,2.218,0.894
		c0.037,0.02,0.081,0.014,0.111-0.016l38.369-39.917c0.277-0.29,0.647-0.44,1.021-0.447c0.371-0.006,0.746,0.126,1.035,0.406
		l1.227,1.177c0.289,0.279,0.438,0.648,0.447,1.021c0.006,0.373-0.129,0.748-0.406,1.036c0,0.002-38.371,39.92-38.371,39.92
		c-0.029,0.027-0.033,0.074-0.012,0.109C150.187,180.479,150.539,181.271,150.773,182.11z M68.431,132.948
		c2.592,0,4.94,1.051,6.642,2.751c1.7,1.701,2.754,4.049,2.754,6.642c0,2.592-1.054,4.94-2.754,6.641
		c-1.701,1.701-4.05,2.754-6.642,2.754c-2.593,0-4.941-1.053-6.643-2.754c-1.7-1.7-2.751-4.049-2.751-6.641
		c0-2.593,1.051-4.941,2.751-6.642C63.49,133.999,65.838,132.948,68.431,132.948z M50.451,178.019
		c1.701-1.7,4.049-2.754,6.642-2.754s4.941,1.054,6.642,2.754c1.701,1.701,2.752,4.05,2.752,6.643c0,2.592-1.051,4.94-2.752,6.641
		c-1.7,1.701-4.049,2.752-6.642,2.752s-4.94-1.051-6.642-2.752c-1.701-1.7-2.754-4.049-2.754-6.641
		C47.697,182.069,48.75,179.72,50.451,178.019z M106.052,118.003c-1.7,1.701-4.049,2.754-6.642,2.754s-4.94-1.053-6.642-2.754
		s-2.752-4.049-2.752-6.642c0-2.593,1.051-4.941,2.752-6.642c1.701-1.701,4.049-2.751,6.642-2.751s4.941,1.051,6.642,2.751
		c1.701,1.701,2.754,4.049,2.754,6.642C108.806,113.954,107.753,116.302,106.052,118.003z M208.388,135.699
		c1.7-1.701,4.049-2.751,6.641-2.751c2.594,0,4.941,1.051,6.643,2.751c1.701,1.701,2.754,4.049,2.754,6.642
		c0,2.592-1.053,4.94-2.754,6.641c-1.701,1.701-4.049,2.754-6.643,2.754c-2.592,0-4.94-1.053-6.641-2.754
		c-1.701-1.7-2.752-4.049-2.752-6.641C205.636,139.749,206.687,137.4,208.388,135.699z M193.445,111.361
		c0,2.592-1.053,4.941-2.754,6.642s-4.049,2.754-6.642,2.754s-4.94-1.053-6.642-2.754s-2.752-4.049-2.752-6.642
		c0-2.593,1.051-4.941,2.752-6.642c1.701-1.701,4.049-2.751,6.642-2.751s4.94,1.051,6.642,2.751
		C192.392,106.42,193.445,108.769,193.445,111.361z M151.125,100.023c0,2.592-1.053,4.941-2.752,6.642
		c-1.7,1.701-4.049,2.751-6.642,2.751c-2.592,0-4.942-1.051-6.642-2.751c-1.7-1.701-2.754-4.049-2.754-6.642
		c0-2.593,1.054-4.941,2.754-6.642c1.699-1.701,4.05-2.754,6.642-2.754c2.593,0,4.941,1.053,6.642,2.754
		C150.072,95.082,151.125,97.43,151.125,100.023z M235.763,191.302c-1.701,1.701-4.049,2.752-6.642,2.752s-4.94-1.051-6.642-2.752
		c-1.701-1.7-2.752-4.049-2.752-6.641c0-2.593,1.051-4.941,2.752-6.643c1.701-1.7,4.049-2.754,6.642-2.754s4.94,1.054,6.642,2.754
		c1.701,1.701,2.754,4.05,2.754,6.643C238.517,187.253,237.464,189.602,235.763,191.302z"/>
	<path fill="#FFFFFF" d="M57.092,194.054c2.593,0,4.941-1.051,6.642-2.752c1.701-1.7,2.752-4.049,2.752-6.641
		c0-2.593-1.051-4.941-2.752-6.643c-1.7-1.7-4.049-2.754-6.642-2.754s-4.94,1.054-6.642,2.754c-1.701,1.701-2.754,4.05-2.754,6.643
		c0,2.592,1.053,4.94,2.754,6.641C52.152,193.003,54.5,194.054,57.092,194.054z"/>
	<path fill="#FFFFFF" d="M229.122,175.265c-2.593,0-4.94,1.054-6.642,2.754c-1.701,1.701-2.752,4.05-2.752,6.643
		c0,2.592,1.051,4.94,2.752,6.641c1.701,1.701,4.049,2.752,6.642,2.752s4.94-1.051,6.642-2.752c1.701-1.7,2.754-4.049,2.754-6.641
		c0-2.593-1.053-4.941-2.754-6.643C234.062,176.319,231.714,175.265,229.122,175.265z"/>
	<path fill="#FFFFFF" d="M188.123,139.722c0.277-0.288,0.412-0.663,0.406-1.036c-0.01-0.373-0.158-0.741-0.447-1.021l-1.227-1.177
		c-0.289-0.279-0.664-0.412-1.035-0.406c-0.373,0.007-0.743,0.157-1.021,0.447l-38.369,39.917c-0.03,0.029-0.074,0.035-0.111,0.016
		c-0.688-0.388-1.433-0.689-2.218-0.894c-0.756-0.198-1.552-0.304-2.37-0.304c-2.592,0-4.942,1.054-6.642,2.754
		c-1.7,1.701-2.754,4.05-2.754,6.643c0,2.592,1.054,4.94,2.754,6.641c1.699,1.701,4.05,2.752,6.642,2.752
		c2.593,0,4.941-1.051,6.642-2.752c1.699-1.7,2.752-4.049,2.752-6.641c0-0.886-0.122-1.74-0.352-2.552
		c-0.234-0.839-0.586-1.631-1.033-2.358c-0.021-0.035-0.018-0.082,0.012-0.109C149.751,179.642,188.123,139.725,188.123,139.722z"/>
	<path fill="#FFFFFF" d="M61.789,148.982c1.701,1.701,4.05,2.754,6.643,2.754c2.592,0,4.94-1.053,6.642-2.754
		c1.7-1.7,2.754-4.049,2.754-6.641c0-2.593-1.054-4.941-2.754-6.642c-1.701-1.701-4.05-2.751-6.642-2.751
		c-2.593,0-4.941,1.051-6.643,2.751c-1.7,1.701-2.751,4.049-2.751,6.642C59.038,144.933,60.088,147.282,61.789,148.982z"/>
	<path fill="#FFFFFF" d="M215.029,151.736c2.594,0,4.941-1.053,6.643-2.754c1.701-1.7,2.754-4.049,2.754-6.641
		c0-2.593-1.053-4.941-2.754-6.642c-1.701-1.701-4.049-2.751-6.643-2.751c-2.592,0-4.94,1.051-6.641,2.751
		c-1.701,1.701-2.752,4.049-2.752,6.642c0,2.592,1.051,4.94,2.752,6.641C210.088,150.683,212.437,151.736,215.029,151.736z"/>
	<path fill="#FFFFFF" d="M99.411,101.968c-2.593,0-4.94,1.051-6.642,2.751c-1.701,1.701-2.752,4.049-2.752,6.642
		c0,2.592,1.051,4.941,2.752,6.642s4.049,2.754,6.642,2.754s4.941-1.053,6.642-2.754c1.701-1.701,2.754-4.049,2.754-6.642
		c0-2.593-1.053-4.941-2.754-6.642C104.352,103.019,102.003,101.968,99.411,101.968z"/>
	<path fill="#FFFFFF" d="M177.408,104.719c-1.701,1.701-2.752,4.049-2.752,6.642c0,2.592,1.051,4.941,2.752,6.642
		s4.049,2.754,6.642,2.754s4.94-1.053,6.642-2.754s2.754-4.049,2.754-6.642c0-2.593-1.053-4.941-2.754-6.642
		c-1.701-1.701-4.049-2.751-6.642-2.751S179.109,103.019,177.408,104.719z"/>
	<path fill="#FFFFFF" d="M135.089,93.381c-1.7,1.701-2.754,4.049-2.754,6.642c0,2.592,1.054,4.941,2.754,6.642
		c1.699,1.701,4.05,2.751,6.642,2.751c2.593,0,4.941-1.051,6.642-2.751c1.699-1.701,2.752-4.049,2.752-6.642
		c0-2.593-1.053-4.941-2.752-6.642c-1.7-1.701-4.049-2.754-6.642-2.754C139.139,90.627,136.789,91.68,135.089,93.381z"/>
</g>
</svg>
