<?xml version="1.0" encoding="utf-8"?>
<!-- Generator: Adobe Illustrator 15.1.0, SVG Export Plug-In . SVG Version: 6.00 Build 0)  -->
<!DOCTYPE svg PUBLIC "-//W3C//DTD SVG 1.0//EN" "http://www.w3.org/TR/2001/REC-SVG-20010904/DTD/svg10.dtd">
<svg version="1.0" id="Layer_2" xmlns="http://www.w3.org/2000/svg" xmlns:xlink="http://www.w3.org/1999/xlink" x="0px" y="0px"
	 width="283.46px" height="283.46px" viewBox="0 0 283.46 283.46" enable-background="new 0 0 283.46 283.46" xml:space="preserve">
<path d="M213.894,112.563c-18.482-18.431-44-29.837-72.163-29.837c-28.165,0-53.681,11.406-72.164,29.837
	c-18.504,18.456-29.958,43.951-29.958,72.099c0,3.711,0.062,6.564,1.3,8.762c1.509,2.672,4.763,4.381,11.806,5.457
	c12.849,1.967,38.362,1.854,89.017,1.854c50.652,0,76.165,0.111,89.016-1.854c7.043-1.076,10.299-2.785,11.807-5.457
	c1.236-2.195,1.3-5.051,1.3-8.762C243.851,156.513,232.397,131.018,213.894,112.563z M63.735,191.303
	c-1.7,1.7-4.049,2.752-6.642,2.752c-1.945,0-3.751-0.593-5.251-1.604c-0.41-0.277-0.791-0.594-1.152-0.931
	c-0.079-0.073-0.162-0.142-0.238-0.217c0,0,0,0,0-0.001l0,0c-0.085-0.086-0.161-0.178-0.242-0.268
	c-0.123-0.132-0.25-0.261-0.365-0.399c-1.341-1.625-2.148-3.706-2.148-5.974c0-2.595,1.053-4.942,2.754-6.645
	c1.702-1.7,4.049-2.754,6.642-2.754c2.593,0,4.942,1.054,6.642,2.754c0,0,0,0,0,0.001l0,0c1.701,1.701,2.752,4.05,2.752,6.644
	C66.487,187.253,65.436,189.602,63.735,191.303z M75.074,148.982c-1.702,1.701-4.05,2.754-6.642,2.754l0,0l0,0
	c-2.593,0-4.941-1.053-6.643-2.754c-1.7-1.699-2.751-4.049-2.751-6.641c0-2.593,1.051-4.941,2.751-6.643
	c1.702-1.7,4.05-2.751,6.643-2.751l0,0l0,0c2.592,0,4.941,1.05,6.642,2.751c1.7,1.701,2.754,4.049,2.754,6.643
	C77.828,144.933,76.774,147.282,75.074,148.982z M106.053,118.003c-1.701,1.701-4.049,2.754-6.642,2.754l0,0l0,0
	c-2.593,0-4.94-1.053-6.642-2.754c-1.702-1.701-2.752-4.049-2.752-6.642c0-2.593,1.051-4.941,2.752-6.642
	c1.701-1.701,4.049-2.751,6.642-2.751l0,0l0,0c2.592,0,4.941,1.051,6.642,2.751c1.701,1.701,2.754,4.049,2.754,6.642
	C108.807,113.954,107.754,116.302,106.053,118.003z M135.089,93.381c1.699-1.701,4.05-2.754,6.642-2.754
	c2.593,0,4.942,1.053,6.642,2.754c1.699,1.701,2.752,4.049,2.752,6.642c0,2.593-1.053,4.941-2.752,6.642s-4.049,2.751-6.642,2.751
	c-2.592,0-4.943-1.05-6.642-2.751c-1.7-1.701-2.754-4.049-2.754-6.642C132.335,97.43,133.389,95.082,135.089,93.381z
	 M188.529,138.687L188.529,138.687c0.006,0.374-0.129,0.749-0.406,1.037c0,0.002-38.371,39.92-38.371,39.92
	c-0.027,0.025-0.031,0.072-0.012,0.107c0.447,0.728,0.799,1.52,1.033,2.357c0.23,0.813,0.352,1.666,0.352,2.553
	c0,0.648-0.064,1.28-0.19,1.893c-0.375,1.834-1.286,3.474-2.562,4.75c-1.699,1.699-4.049,2.752-6.642,2.752
	c-2.592,0-4.942-1.053-6.642-2.752c-1.7-1.7-2.754-4.051-2.754-6.643c0-2.594,1.054-4.941,2.754-6.644
	c1.7-1.7,4.05-2.754,6.642-2.754c0.817,0,1.614,0.106,2.37,0.304c0.785,0.205,1.529,0.506,2.218,0.895
	c0.037,0.02,0.081,0.014,0.111-0.017l38.368-39.917c0.279-0.29,0.647-0.44,1.021-0.447c0.371-0.006,0.746,0.127,1.035,0.406
	l1.228,1.177c0.145,0.14,0.254,0.302,0.328,0.476c0.039,0.091,0.043,0.19,0.063,0.286
	C188.492,138.514,188.527,138.597,188.529,138.687L188.529,138.687z M190.692,118.003c-1.702,1.701-4.049,2.754-6.642,2.754h-0.002
	l0,0c-1.678,0-3.25-0.443-4.613-1.215c-0.068-0.039-0.135-0.08-0.201-0.12c-0.404-0.244-0.795-0.512-1.158-0.812
	c-0.232-0.192-0.455-0.395-0.668-0.607c-1.703-1.701-2.753-4.049-2.753-6.642c0-1.985,0.617-3.827,1.669-5.344
	c0.15-0.217,0.311-0.427,0.479-0.63c0.191-0.232,0.394-0.455,0.605-0.667c1.7-1.701,4.049-2.751,6.641-2.751h0.002l0,0
	c2.594,0,4.941,1.05,6.643,2.751c1.701,1.701,2.754,4.049,2.754,6.642C193.446,113.954,192.394,116.302,190.692,118.003z
	 M208.388,148.982c-1.701-1.699-2.752-4.049-2.752-6.641c0-2.593,1.051-4.941,2.752-6.644c0.105-0.105,0.221-0.201,0.332-0.301
	c1.668-1.518,3.878-2.45,6.309-2.45c2.594,0,4.942,1.05,6.643,2.751c1.275,1.276,2.188,2.916,2.563,4.75
	c0.126,0.611,0.19,1.244,0.19,1.894c0,0.324-0.016,0.645-0.049,0.96c-0.225,2.209-1.217,4.192-2.705,5.681
	c-1.699,1.701-4.049,2.754-6.643,2.754C212.437,151.736,210.087,150.683,208.388,148.982z M235.764,191.303
	c-1.702,1.7-4.05,2.752-6.642,2.752c-2.595,0-4.941-1.052-6.644-2.752c0,0,0,0,0-0.001c-0.001,0-0.001,0-0.001,0
	c-1.701-1.7-2.752-4.049-2.752-6.641c0-2.595,1.051-4.941,2.752-6.645c1.701-1.7,4.049-2.754,6.643-2.754s4.939,1.054,6.643,2.754
	c0,0,0,0,0,0.001c0.001,0,0.001,0,0.001,0c0.032,0.032,0.062,0.069,0.093,0.103c0.768,0.791,1.396,1.715,1.85,2.735
	c0.519,1.164,0.813,2.449,0.813,3.806C238.518,187.253,237.464,189.603,235.764,191.303z"/>
</svg>
