<?xml version="1.0" encoding="utf-8"?>
<!-- Generator: Adobe Illustrator 15.1.0, SVG Export Plug-In . SVG Version: 6.00 Build 0)  -->
<!DOCTYPE svg PUBLIC "-//W3C//DTD SVG 1.1//EN" "http://www.w3.org/Graphics/SVG/1.1/DTD/svg11.dtd">
<svg version="1.1" id="Layer_3" xmlns="http://www.w3.org/2000/svg" xmlns:xlink="http://www.w3.org/1999/xlink" x="0px" y="0px"
	 width="283.46px" height="283.46px" viewBox="0 0 283.46 283.46" enable-background="new 0 0 283.46 283.46" xml:space="preserve">
<g>
	<polygon points="179.129,256.775 201.295,256.775 201.296,256.775 201.296,234.607 179.129,234.607 	"/>
	<rect x="153.4" y="157.419" width="22.167" height="22.166"/>
	<polygon points="179.129,231.044 201.295,231.044 201.296,231.044 201.296,208.878 179.129,208.878 	"/>
	<polygon points="179.129,205.316 201.295,205.316 201.296,205.316 201.296,183.15 179.129,183.15 	"/>
	<path d="M249.016,7.084h-90.119h-0.502H144.73h-6h-13.665h-2.168H34.445c-15.11,0-27.36,12.25-27.36,27.36v100.452v3.833v6v8.833
		v95.452c0,15.11,12.25,27.36,27.36,27.36h88.452h2.168h13.665h6h13.665h0.502h90.119c15.11,0,27.359-12.25,27.359-27.36v-95.452
		v-8.833v-6v-3.833V34.445C276.375,19.334,264.126,7.084,249.016,7.084z M72.98,25.239c12.083,0,23.58,5.223,31.523,14.322
		L72.98,67.1V25.239z M38.1,259.75h-8.637v-62.551H38.1V259.75z M31.766,178.585c-1.494-1.125-1.803-3.26-0.69-4.768
		c1.112-1.512,3.227-1.822,4.72-0.699l58.716,44.16l4.047-5.49l7.991,18.723l-20.047-2.367l3.979-5.398L31.766,178.585z
		 M51.927,259.748h-8.636v-52.65h8.636V259.748z M65.756,259.748h-8.638v-42.084h8.638V259.748z M79.583,259.748h-8.637v-31.273
		h8.637V259.748z M93.412,259.748h-8.637v-21.041h8.637V259.748z M107.239,259.748h-8.638v-10.561h8.638V259.748z M104.688,153.541
		h-71.37c-2.199,0-3.981-1.783-3.981-3.982s1.782-3.982,3.981-3.982h71.37c2.199,0,3.981,1.783,3.981,3.982
		S106.887,153.541,104.688,153.541z M104.688,139.367h-71.37c-2.199,0-3.981-1.783-3.981-3.981c0-2.199,1.782-3.982,3.981-3.982
		h71.37c2.199,0,3.981,1.783,3.981,3.982C108.669,137.584,106.887,139.367,104.688,139.367z M69.003,116.741
		c-23.104,0-41.859-18.755-41.859-41.861c0-23.117,18.738-41.857,41.859-41.857v41.858l31.99-26.997
		c6.371,7.555,9.868,17.116,9.868,26.997C110.862,97.983,92.107,116.741,69.003,116.741z M199.798,80.922
		c0-1.832,1.471-3.322,3.279-3.322s3.28,1.49,3.28,3.322v19.039c0,1.832-1.472,3.322-3.28,3.322s-3.279-1.49-3.279-3.322V80.922z
		 M194.498,85.767v-0.042c0.015,0.007,0.029,0.016,0.045,0.023c0.02-0.007,0.038-0.016,0.058-0.023v0.054
		c1.056,0.549,1.78,1.638,1.78,2.896c0,1.258-0.725,2.427-1.78,2.981v0.054c-5.991,3.116-9.842,9.306-9.842,16.239
		c0,10.1,8.218,18.318,18.319,18.318c10.101,0,18.318-8.218,18.318-18.318c0-4.979-1.987-9.573-5.324-12.923v0
		c-1.311-1.314-2.828-2.438-4.517-3.316c-1.111-0.53-1.883-1.736-1.883-3.035c0-1.29,0.761-2.404,1.86-2.938
		c0.006-0.007,0.013-0.011,0.019-0.011c0.001,0,0.002,0.001,0.003,0.001c0,0,0.001-0.001,0.001-0.001
		c3.024,1.156,5.725,2.902,7.986,5.079c0.002,0,0.003-0.001,0.005-0.002c4.556,4.388,7.323,10.529,7.323,17.145
		c0,13.119-10.673,23.792-23.792,23.792s-23.792-10.673-23.792-23.792C179.286,98.084,185.436,89.279,194.498,85.767z
		 M256.317,179.585v3.563v22.168v3.563v22.168v3.561v25.73h-25.729h-3.563h-22.167h-3.563h-22.166h-3.563h-25.729v-25.73v-3.561
		v-22.168v-3.563v-22.168v-3.563v-25.729h25.729h3.563h22.166h3.563h22.167h3.563h25.729V179.585z M256.317,44.842
		c0,0.198-0.066,0.387-0.198,0.566c-0.133,0.18-0.297,0.289-0.491,0.321l-4.563,0.689c-0.311,0.888-0.632,1.634-0.959,2.244
		c0.573,0.822,1.454,1.955,2.636,3.401c0.165,0.198,0.246,0.405,0.246,0.618c0,0.213-0.071,0.402-0.222,0.567
		c-0.44,0.608-1.254,1.496-2.438,2.663c-1.182,1.167-1.954,1.749-2.314,1.749c-0.198,0-0.41-0.071-0.642-0.218l-3.402-2.664
		c-0.722,0.377-1.472,0.69-2.245,0.936c-0.262,2.234-0.501,3.764-0.714,4.585c-0.114,0.459-0.411,0.69-0.889,0.69h-5.472
		c-0.232,0-0.434-0.069-0.604-0.21c-0.174-0.14-0.266-0.317-0.285-0.531l-0.689-4.534c-0.804-0.265-1.545-0.57-2.22-0.915
		l-3.475,2.639c-0.166,0.147-0.369,0.221-0.616,0.221c-0.229,0-0.437-0.089-0.618-0.273c-2.068-1.871-3.424-3.253-4.066-4.142
		c-0.114-0.165-0.173-0.353-0.173-0.566c0-0.198,0.065-0.387,0.197-0.567c0.245-0.345,0.666-0.891,1.257-1.64
		c0.594-0.748,1.038-1.327,1.331-1.737c-0.443-0.819-0.779-1.635-1.011-2.438l-4.511-0.667c-0.216-0.033-0.387-0.135-0.519-0.308
		c-0.129-0.175-0.195-0.367-0.195-0.58V39.27c0-0.198,0.066-0.387,0.195-0.567c0.132-0.184,0.288-0.287,0.471-0.321l4.583-0.689
		c0.23-0.756,0.551-1.515,0.963-2.268c-0.66-0.938-1.538-2.072-2.639-3.404c-0.166-0.198-0.246-0.392-0.246-0.591
		c0-0.165,0.075-0.354,0.221-0.567c0.43-0.59,1.239-1.476,2.431-2.651c1.189-1.176,1.967-1.763,2.329-1.763
		c0.214,0,0.427,0.084,0.639,0.249l3.405,2.637c0.722-0.378,1.469-0.69,2.243-0.936c0.261-2.235,0.5-3.765,0.713-4.585
		c0.117-0.459,0.41-0.69,0.89-0.69h5.472c0.231,0,0.433,0.069,0.606,0.21c0.171,0.141,0.268,0.314,0.282,0.53l0.688,4.535
		c0.808,0.264,1.546,0.569,2.221,0.915l3.5-2.639c0.149-0.147,0.345-0.222,0.594-0.222c0.212,0,0.416,0.084,0.615,0.249
		c2.119,1.955,3.475,3.35,4.066,4.19c0.116,0.132,0.174,0.312,0.174,0.543c0,0.197-0.065,0.384-0.198,0.567
		c-0.246,0.345-0.666,0.891-1.257,1.638c-0.591,0.749-1.034,1.328-1.332,1.739c0.426,0.822,0.766,1.625,1.011,2.414l4.511,0.69
		c0.217,0.033,0.388,0.138,0.519,0.308h-0.002c0.132,0.171,0.198,0.366,0.198,0.579V44.842z"/>
	<rect x="153.4" y="234.607" width="22.167" height="22.168"/>
	<rect x="179.129" y="157.419" width="22.167" height="22.166"/>
	<rect x="153.4" y="208.878" width="22.167" height="22.166"/>
	<rect x="153.4" y="183.15" width="22.167" height="22.166"/>
	<rect x="204.858" y="234.607" width="22.167" height="22.168"/>
	<rect x="230.587" y="183.15" width="22.167" height="22.166"/>
	<rect x="230.587" y="208.878" width="22.167" height="22.166"/>
	<path d="M237.382,35.743c-1.742,0-3.229,0.618-4.463,1.85c-1.232,1.233-1.847,2.721-1.847,4.463s0.614,3.227,1.847,4.459
		c1.234,1.232,2.721,1.851,4.463,1.851c1.743,0,3.23-0.618,4.463-1.851s1.849-2.717,1.849-4.459s-0.616-3.23-1.849-4.463
		C240.613,36.361,239.125,35.743,237.382,35.743z"/>
	<rect x="230.587" y="234.607" width="22.167" height="22.168"/>
	<rect x="230.587" y="157.419" width="22.167" height="22.166"/>
	<rect x="204.858" y="208.878" width="22.167" height="22.166"/>
	<rect x="204.858" y="183.15" width="22.167" height="22.166"/>
	<rect x="204.858" y="157.419" width="22.167" height="22.166"/>
</g>
</svg>
