<?xml version="1.0" encoding="utf-8"?>
<!-- Generator: Adobe Illustrator 15.1.0, SVG Export Plug-In . SVG Version: 6.00 Build 0)  -->
<!DOCTYPE svg PUBLIC "-//W3C//DTD SVG 1.1//EN" "http://www.w3.org/Graphics/SVG/1.1/DTD/svg11.dtd">
<svg version="1.1" id="Layer_1" xmlns="http://www.w3.org/2000/svg" xmlns:xlink="http://www.w3.org/1999/xlink" x="0px" y="0px"
	 width="283.465px" height="283.465px" viewBox="1108.268 1108.268 283.465 283.465"
	 enable-background="new 1108.268 1108.268 283.465 283.465" xml:space="preserve">
<g>
	<path fill="#222222" d="M1144.774,1347.388c0.443,1.242,2.013,3.813,7.542,7.172c5.278,3.205,12.836,6.266,21.859,8.853
		c20.497,5.877,47.448,9.113,75.89,9.113c28.86,0,55.821-3.096,75.918-8.717c9.057-2.533,16.597-5.569,21.805-8.779
		c4.193-2.584,6.857-5.257,7.568-7.577v-46.702c-9.812,6.394-23.41,10.618-34.351,13.22c-20.348,4.838-44.878,7.395-70.94,7.395
		c-26.689,0-51.372-2.606-71.381-7.538c-9.92-2.445-18.485-5.417-25.458-8.834c-3.15-1.543-5.971-3.178-8.451-4.894V1347.388z
		 M1331.929,1328.66c5.331,0,9.668,4.337,9.668,9.668c0,5.33-4.337,9.667-9.668,9.667c-5.33,0-9.667-4.337-9.667-9.667
		C1322.262,1332.997,1326.599,1328.66,1331.929,1328.66z"/>
	<path fill="#222222" d="M1250.064,1259.966c-26.994,0-51.656-2.415-71.322-6.985c-9.962-2.315-18.531-5.159-25.467-8.453
		c-3.171-1.506-6.009-3.112-8.501-4.809v41.962c0.443,1.242,2.013,3.813,7.542,7.172c5.278,3.204,12.836,6.266,21.859,8.853
		c20.497,5.877,47.448,9.113,75.89,9.113c28.74,0,55.556-3.095,75.506-8.715c19.365-5.455,28.012-12.009,29.785-16.528v-42.224
		c-9.812,6.394-23.41,10.618-34.351,13.22C1300.657,1257.409,1276.127,1259.966,1250.064,1259.966z M1331.929,1264.03
		c5.331,0,9.668,4.337,9.668,9.668c0,5.33-4.337,9.667-9.668,9.667c-5.33,0-9.667-4.337-9.667-9.667
		C1322.262,1268.367,1326.599,1264.03,1331.929,1264.03z"/>
	<path fill="#222222" d="M1250.064,1196.413c-12.93,0-25.772-0.764-38.169-2.271c-11.683-1.421-22.738-3.469-32.859-6.088
		c-14.363-3.716-26.12-8.415-34.262-13.617v45.846c0.443,1.242,2.013,3.813,7.542,7.172c5.278,3.205,12.836,6.266,21.859,8.853
		c20.497,5.877,47.448,9.113,75.89,9.113c28.74,0,55.556-3.095,75.506-8.715c19.365-5.455,28.012-12.009,29.785-16.528v-44.378
		c-9.812,6.394-23.41,10.618-34.351,13.22C1300.657,1193.856,1276.127,1196.413,1250.064,1196.413z M1331.929,1199.4
		c5.331,0,9.668,4.337,9.668,9.668c0,5.33-4.337,9.667-9.668,9.667c-5.33,0-9.667-4.337-9.667-9.667
		C1322.262,1203.737,1326.599,1199.4,1331.929,1199.4z"/>
	<path fill="#222222" d="M1349.373,1145.559c-4.814-3.388-12.104-6.638-21.08-9.399c-20.457-6.295-48.239-9.762-78.229-9.762
		c-29.798,0-57.56,3.651-78.173,10.282c-8.956,2.881-16.248,6.254-21.087,9.753c-3.833,2.771-6.031,5.578-6.031,7.7
		c0,2.057,2.162,4.715,5.933,7.294c4.789,3.276,12.076,6.404,21.073,9.047c20.286,5.958,48.088,9.239,78.285,9.239
		c30.379,0,58.172-3.326,78.257-9.365c8.999-2.706,16.271-5.931,21.027-9.323c3.873-2.764,6.007-5.594,6.007-7.969
		C1355.355,1150.966,1353.175,1148.233,1349.373,1145.559z"/>
	<path fill="#222222" d="M1250.064,1115.354c-63.553,0-117.411,15.08-117.411,38.778v184.315v9.574
		c0,21.543,56.013,36.623,117.411,36.623s117.411-14.003,117.411-36.623v-193.89
		C1368.553,1131.512,1313.617,1115.354,1250.064,1115.354z M1250.064,1184.293c-65.707,0-109.871-15.08-109.871-30.16
		c0-15.081,44.164-32.315,109.871-32.315s109.871,16.157,109.871,31.238C1359.936,1169.213,1315.771,1184.293,1250.064,1184.293z
		 M1140.194,1289.855c12.926,16.157,56.012,26.929,109.871,26.929c52.781,0,96.945-10.771,109.871-25.852v57.09
		c-3.231,15.08-47.396,29.083-109.871,29.083s-106.639-15.08-109.871-29.083V1289.855z M1250.064,1311.398
		c-62.476,0-106.639-15.08-109.871-29.083v-52.781c12.926,16.157,56.012,25.852,109.871,25.852
		c52.781,0,96.945-10.771,109.871-25.852v52.781C1355.627,1297.396,1312.54,1311.398,1250.064,1311.398z M1250.064,1250
		c-62.476,0-106.639-15.08-109.871-29.083v-56.013c12.926,14.003,57.089,26.929,109.871,26.929s96.945-10.771,109.871-25.852v54.936
		C1355.627,1235.997,1312.54,1250,1250.064,1250z"/>
</g>
</svg>
