<?xml version="1.0" encoding="utf-8"?>
<!-- Generator: Adobe Illustrator 15.1.0, SVG Export Plug-In . SVG Version: 6.00 Build 0)  -->
<!DOCTYPE svg PUBLIC "-//W3C//DTD SVG 1.1//EN" "http://www.w3.org/Graphics/SVG/1.1/DTD/svg11.dtd">
<svg version="1.1" id="Layer_1" xmlns="http://www.w3.org/2000/svg" xmlns:xlink="http://www.w3.org/1999/xlink" x="0px" y="0px"
	 width="283.465px" height="283.465px" viewBox="0 0 283.465 283.465" enable-background="new 0 0 283.465 283.465"
	 xml:space="preserve">
<g>
	<path d="M162.854,149.361c-4.462,0.063,0.844,2.299,6.668,3.196c1.61-1.257,3.07-2.527,4.37-3.764
		C170.264,149.682,166.573,149.701,162.854,149.361"/>
	<path d="M186.802,143.391c2.658-3.666,4.596-7.682,5.276-11.833c-0.597,2.959-2.201,5.515-3.715,8.212
		c-8.339,5.251-0.783-3.119-0.005-6.3C179.389,144.759,187.127,140.239,186.802,143.391"/>
	<path d="M195.644,120.388c0.538-8.035-1.584-5.495-2.297-2.428C194.179,118.393,194.838,123.625,195.644,120.388"/>
	<path d="M145.933,10.561c2.381,0.427,5.146,0.755,4.758,1.324C153.294,11.313,153.886,10.787,145.933,10.561"/>
	<path d="M150.69,11.884l-1.684,0.347l1.566-0.138L150.69,11.884"/>
	<path d="M224.945,123.435c0.265,7.217-2.111,10.717-4.253,16.915l-3.858,1.927c-3.154,6.129,0.306,3.891-1.952,8.765
		c-4.927,4.382-14.951,13.708-18.16,14.559c-2.342-0.051,1.586-2.765,2.101-3.826c-6.594,4.529-5.291,6.8-15.377,9.549l-0.295-0.654
		c-24.878,11.702-59.432-11.489-58.977-43.134c-0.267,2.009-0.755,1.507-1.307,2.319c-1.283-16.282,7.52-32.636,22.365-39.313
		c14.522-7.189,31.546-4.239,41.948,5.456c-5.713-7.485-17.086-15.418-30.565-14.676c-13.201,0.208-25.553,8.599-29.675,17.707
		c-6.765,4.26-7.549,16.417-10.497,18.642c-3.964,29.146,7.459,41.735,26.786,56.547c3.041,2.051,0.856,2.361,1.269,3.923
		c-6.422-3.007-12.301-7.546-17.136-13.102c2.565,3.754,5.333,7.403,8.913,10.272c-6.055-2.052-14.142-14.671-16.504-15.186
		c10.437,18.687,42.345,32.771,59.05,25.782c-7.73,0.286-17.552,0.16-26.238-3.051c-3.646-1.877-8.608-5.767-7.721-6.494
		c22.799,8.517,46.353,6.45,66.079-9.362c5.02-3.909,10.502-10.558,12.086-10.65c-2.387,3.587,0.407,1.725-1.426,4.894
		c5.002-8.065-2.173-3.283,5.17-13.929l2.713,3.734c-1.009-6.692,8.313-14.823,7.367-25.411c2.139-3.238,2.386,3.483,0.116,10.933
		c3.147-8.264,0.829-9.591,1.64-16.411c0.873,2.292,2.02,4.728,2.609,7.146c-2.052-7.985,2.104-13.449,3.133-18.09
		c-1.012-0.449-3.165,3.531-3.657-5.902c0.073-4.097,1.14-2.147,1.552-3.156c-0.805-0.462-2.914-3.603-4.199-9.627
		c0.931-1.415,2.487,3.67,3.756,3.878c-0.814-4.791-2.219-8.442-2.274-12.117c-3.7-7.733-1.31,1.031-4.312-3.32
		c-3.938-12.285,3.269-2.852,3.754-8.433c5.97,8.648,9.374,22.052,10.937,27.604c-1.191-6.769-3.119-13.326-5.471-19.671
		c1.813,0.763-2.92-13.927,2.356-4.199c-5.638-20.739-24.123-40.118-41.131-49.21c2.083,1.904,4.709,4.296,3.766,4.67
		c-8.458-5.037-6.972-5.428-8.182-7.556c-6.892-2.803-7.343,0.226-11.906,0.005c-12.988-6.888-15.49-6.155-27.442-10.472
		l0.545,2.541c-8.604-2.866-10.024,1.088-19.324,0.01c-0.565-0.442,2.98-1.599,5.897-2.023c-8.319,1.097-7.93-1.639-16.069,0.302
		c2.006-1.408,4.127-2.339,6.267-3.536c-6.784,0.413-16.195,3.948-13.29,0.732c-11.064,4.937-30.715,11.868-41.744,22.208
		l-0.347-2.317c-5.054,6.066-22.035,18.116-23.389,25.973l-1.351,0.315c-2.63,4.452-4.331,9.499-6.416,14.079
		c-3.44,5.86-5.042,2.255-4.552,3.173c-6.764,13.715-10.124,25.238-13.027,34.689c2.069,3.092,0.05,18.611,0.832,31.032
		c-3.397,61.343,43.052,120.901,93.825,134.652c7.441,2.663,18.51,2.562,27.923,2.835c-11.108-3.177-12.544-1.683-23.362-5.456
		c-7.804-3.674-9.515-7.871-15.043-12.668l2.188,3.865c-10.841-3.836-6.305-4.747-15.124-7.541l2.336-3.051
		c-3.514-0.267-9.307-5.924-10.892-9.055l-3.844,0.153c-4.618-5.701-7.08-9.807-6.9-12.988l-1.242,2.212
		c-1.408-2.415-16.993-21.371-8.907-16.96c-1.502-1.372-3.499-2.233-5.665-6.167l1.646-1.881
		c-3.891-5.008-7.161-11.424-6.913-13.561c2.076,2.803,3.516,3.327,4.942,3.805c-9.826-24.378-10.377-1.344-17.82-24.814
		l1.575-0.128c-1.208-1.816-1.94-3.79-2.91-5.728l0.685-6.829c-7.075-8.179-1.98-34.778-0.959-49.366
		c0.708-5.933,5.905-12.247,9.859-22.149l-2.409-0.416c4.604-8.03,26.286-32.25,36.328-31.004c4.864-6.111-0.965-0.022-1.917-1.562
		c10.685-11.058,14.045-7.812,21.255-9.802c7.778-4.616-6.674,1.801-2.986-1.76c13.443-3.434,9.528-7.806,27.066-9.549
		c1.85,1.052-4.293,1.626-5.835,2.992c11.202-5.48,35.446-4.234,51.193,3.041c18.274,8.541,38.804,33.784,39.614,57.535l0.921,0.248
		c-0.466,9.441,1.445,20.359-1.867,30.389L224.945,123.435"/>
	<path d="M114.148,155.486l-0.625,3.131c2.932,3.981,5.258,8.298,9.004,11.411C119.833,164.77,117.831,162.597,114.148,155.486"/>
	<path d="M121.082,155.215c-1.552-1.717-2.471-3.783-3.5-5.842c0.983,3.618,2.998,6.727,4.872,9.889L121.082,155.215"/>
	<path d="M243.758,128.551l-0.657,1.644c-1.2,8.537-3.795,16.984-7.773,24.817C239.723,146.747,242.565,137.708,243.758,128.551"/>
	<path d="M146.815,8.42c3.017-1.106,7.415-0.606,10.616-1.333c-4.171,0.35-8.322,0.559-12.423,1.087L146.815,8.42"/>
	<path d="M40.897,64.741c0.694,6.437-4.843,8.935,1.227,4.691C45.375,62.105,40.852,67.409,40.897,64.741"/>
	<path d="M33.765,94.529c1.398-4.291,1.651-6.868,2.185-9.351C32.087,90.117,34.172,91.169,33.765,94.529"/>
</g>
</svg>
