<?xml version="1.0" encoding="utf-8"?>
<!-- Generator: Adobe Illustrator 15.1.0, SVG Export Plug-In . SVG Version: 6.00 Build 0)  -->
<!DOCTYPE svg PUBLIC "-//W3C//DTD SVG 1.1//EN" "http://www.w3.org/Graphics/SVG/1.1/DTD/svg11.dtd">
<svg version="1.1" id="Layer_2" xmlns="http://www.w3.org/2000/svg" xmlns:xlink="http://www.w3.org/1999/xlink" x="0px" y="0px"
	 width="283.46px" height="283.46px" viewBox="0 0 283.46 283.46" enable-background="new 0 0 283.46 283.46" xml:space="preserve">
<g>
	<path d="M91.773,140.029H28.558v44.791h63.215V140.029z M77.81,154.72H42.521v-7.926H77.81V154.72z"/>
	<path d="M28.119,99.182h63.216V77.727H28.119V99.182z M42.083,84.491h35.288v7.926H42.083V84.491z"/>
	<path d="M91.773,108.652H28.558v21.455h63.215V108.652z M77.81,123.343H42.521v-7.926H77.81V123.343z"/>
	<path d="M224.722,77.391h-95.468h-6.033h-13.576v6.428v0.488v2.608v4.678h13.576h6.033h95.468h5.935h20.642v-4.678v-2.608v-0.488
		v-6.428h-20.642H224.722z M198.116,88.454h-35.288v-7.926h35.288V88.454z"/>
	<path d="M246.009,70.182h-9.289h-70.56h-44.598H78.634H58.685H7.084v143.097h14.31v-21.465h77.543V98.801h22.626H236.72h9.289
		h1.747h14.31v114.478h14.31V70.182H246.009z M25.796,98.801V75.405h67.859v23.396v2.703H25.796V98.801z M94.095,187.142H26.236
		v-49.435h67.859V187.142z M94.095,132.429H26.236V106.33h67.859V132.429z M253.621,83.818v0.488v2.608v7h-7.611h-15.353h-5.935
		h-95.468h-6.033h-1.658h-14.24v-7v-2.608v-0.488v-8.75h14.24h1.658h6.033h95.468h5.935h15.353h7.611V83.818z"/>
</g>
</svg>
