<?xml version="1.0" encoding="utf-8"?>
<!-- Generator: Adobe Illustrator 15.1.0, SVG Export Plug-In . SVG Version: 6.00 Build 0)  -->
<!DOCTYPE svg PUBLIC "-//W3C//DTD SVG 1.1//EN" "http://www.w3.org/Graphics/SVG/1.1/DTD/svg11.dtd">
<svg version="1.1" id="Layer_5" xmlns="http://www.w3.org/2000/svg" xmlns:xlink="http://www.w3.org/1999/xlink" x="0px" y="0px"
	 width="283.46px" height="283.46px" viewBox="0 0 283.46 283.46" enable-background="new 0 0 283.46 283.46" xml:space="preserve">
<g>
	<polygon fill="none" points="173.854,27.973 173.854,17.44 165.335,17.44 	"/>
	<polygon fill="none" points="22.664,27.972 31.179,17.44 22.664,17.44 	"/>
	<g>
		<path d="M255.888,133.619v-6.248c0-0.979-0.795-1.773-1.773-1.773h-15.363l28.428-29.899c0.036,0,0.073,0.006,0.112,0.006
			c3.263,0,5.92-2.657,5.92-5.922c0-3.032-2.293-5.537-5.238-5.879l-23.02-25.811l0.937-0.935c1.374-1.374,1.349-3.632-0.053-5.033
			l-11.692-11.693c-0.688-0.688-1.599-1.067-2.565-1.067c-0.935,0-1.813,0.359-2.467,1.017l-6.221,6.221l16.777,16.779l1.936-1.938
			l21.522,24.132c-1.086,1.074-1.763,2.564-1.763,4.209c0,1.423,0.507,2.729,1.346,3.753l-30.484,32.063h-15.7
			c-0.979,0-1.773,0.794-1.773,1.773v6.247c0,0.683,0.392,1.268,0.957,1.564h-34.471v-0.099c0-1.57-1.122-2.875-2.609-3.163V17.44
			h0.071v-1.563h1.913v1.564c0,0.942,0.763,1.708,1.707,1.708c0.942,0,1.707-0.766,1.707-1.708v-4.268
			c0-0.944-0.765-1.708-1.707-1.708c-0.944,0-1.707,0.764-1.707,1.708v1.564h-1.913v-2.076h-0.071h-77.947h-1.82V10.5h1.496h0.068
			c0.944,0,1.708-0.765,1.708-1.708s-0.764-1.707-1.708-1.707h-0.068h-4.199H96.09c-0.943,0-1.708,0.764-1.708,1.707
			S95.147,10.5,96.09,10.5h0.068h1.496v2.163h-1.752H17.885h-0.069v2.076h-1.915v-1.564c0-0.944-0.765-1.708-1.708-1.708
			c-0.942,0-1.707,0.764-1.707,1.708v4.268c0,0.942,0.765,1.708,1.707,1.708c0.943,0,1.708-0.766,1.708-1.708v-1.564h1.916v1.563
			v114.481c-1.486,0.288-2.609,1.593-2.609,3.163v0.099H10.25v26.179v115.014h16.288V161.362v-15.287h8.836h7.453h1.987h1.8h8.773
			h5.109h160.889h5.11h10.573h1.987h3.955h12.333v15.287v115.014h16.29V161.362v-26.179h-16.701
			C255.498,134.886,255.888,134.301,255.888,133.619z M173.854,17.44v10.533l-8.518-10.533H173.854z M22.664,17.44h8.516
			l-8.516,10.532V17.44z M109.796,134.59c-3.154,0-3.705-2.089-3.802-2.711v-6.215H90.591l0.002,6.19
			c-0.085,0.594-0.611,2.734-3.803,2.734c-0.17,0-0.259,0.277-0.279,0.593H60.495H35.373H25.206v-0.099
			c0-1.546-1.09-2.836-2.542-3.15v-98.53L35.572,17.44h60.334v9.69h4.777v-9.69h60.262l12.909,15.962v98.52
			c-1.488,0.288-2.612,1.593-2.612,3.163v0.099h-61.163C110.057,134.869,109.969,134.59,109.796,134.59z"/>
		<path d="M229.597,73.213c0.225,0.224,0.525,0.347,0.838,0.347c0.072,0,0.146-0.006,0.219-0.021c0.385-0.072,0.71-0.331,0.868-0.69
			l4.793-10.955L224.09,49.671l-10.953,4.794c-0.358,0.157-0.617,0.481-0.689,0.868c-0.072,0.384,0.05,0.781,0.325,1.058
			L229.597,73.213z"/>
		<path d="M217.526,68.329c1.449,1.449,3.314,2.191,5.093,2.191c0.763,0,1.508-0.137,2.199-0.412l-9.069-9.068
			C214.832,63.34,215.454,66.257,217.526,68.329z"/>
		<path d="M68.123,121.704c0.411,1.636,2.08,2.967,3.716,2.967h8.943h35.026h4.241h4.702c1.637,0,3.303-1.333,3.716-2.967
			l0.321-1.278H67.8L68.123,121.704z"/>
		<path d="M135.6,79.458h-3.544v28.015l6.313-25.047C138.783,80.79,137.54,79.458,135.6,79.458z"/>
		<path d="M98.958,116.986c-0.132,0.064-0.278,0.078-0.419,0.055c-0.143,0.026-0.292,0.012-0.425-0.055
			c-5.303-2.638-10.665-3.975-15.938-3.975c-5.07,0-10.219,1.249-15.316,3.685l0.347,1.374h62.179l0.396-1.579
			c-4.958-2.3-9.96-3.48-14.882-3.48C109.626,113.011,104.262,114.347,98.958,116.986z"/>
		<path d="M58.218,82.425l6.803,26.975V79.458H60.99C59.049,79.458,57.808,80.79,58.218,82.425z"/>
		<path d="M99.331,75.976v39.334c5.177-2.42,10.41-3.646,15.568-3.646c5.24,0,10.555,1.264,15.811,3.76V76.105
			c-5.253-2.813-10.572-4.239-15.811-4.239C109.748,71.866,104.51,73.249,99.331,75.976z"/>
		<path d="M97.742,115.311V75.976c-5.178-2.728-10.412-4.11-15.567-4.11c-5.236,0-10.552,1.426-15.81,4.239v39.32
			c5.249-2.495,10.564-3.761,15.81-3.761C87.335,111.665,92.568,112.89,97.742,115.311z"/>
		<path d="M92.431,52.024h11.726c0.262,0,0.476-0.15,0.476-0.334v-2.952H91.955v2.952C91.955,51.874,92.167,52.024,92.431,52.024z"
			/>
		<polygon points="105.19,42.574 91.396,42.574 91.396,47.586 105.19,47.6 		"/>
		<path d="M83.333,41.435h29.922c0.966,0,1.752-0.785,1.752-1.751V30.02c0-0.966-0.786-1.752-1.752-1.752H83.333
			c-0.966,0-1.752,0.786-1.752,1.752v9.664C81.581,40.649,82.368,41.435,83.333,41.435z"/>
	</g>
</g>
</svg>
