<?xml version="1.0" encoding="utf-8"?>
<!-- Generator: Adobe Illustrator 15.1.0, SVG Export Plug-In . SVG Version: 6.00 Build 0)  -->
<!DOCTYPE svg PUBLIC "-//W3C//DTD SVG 1.1//EN" "http://www.w3.org/Graphics/SVG/1.1/DTD/svg11.dtd">
<svg version="1.1" id="Layer_2" xmlns="http://www.w3.org/2000/svg" xmlns:xlink="http://www.w3.org/1999/xlink" x="0px" y="0px"
	 width="283.46px" height="283.46px" viewBox="0 0 283.46 283.46" enable-background="new 0 0 283.46 283.46" xml:space="preserve">
<g>
	<rect x="81.666" y="150.371" fill="none" width="5.595" height="5.16"/>
	<rect x="89.632" y="150.371" fill="none" width="5.596" height="5.16"/>
	<rect x="92.308" y="159.897" fill="none" width="6.488" height="5.908"/>
	<rect x="75.685" y="159.897" fill="none" width="6.487" height="5.908"/>
	<rect x="75.685" y="169.594" fill="none" width="6.487" height="5.907"/>
	<rect x="75.684" y="179.292" fill="none" width="6.487" height="5.906"/>
	<rect x="73.698" y="150.371" fill="none" width="5.596" height="5.16"/>
	<rect x="92.308" y="179.292" fill="none" width="6.488" height="5.906"/>
	<rect x="100.621" y="179.292" fill="none" width="6.487" height="5.906"/>
	<rect x="100.621" y="169.594" fill="none" width="6.487" height="5.907"/>
	<rect x="92.308" y="169.594" fill="none" width="6.488" height="5.907"/>
	<rect x="100.621" y="159.897" fill="none" width="6.487" height="5.908"/>
	<rect x="100.62" y="188.988" fill="none" width="6.487" height="5.898"/>
	<rect x="133.869" y="169.594" fill="none" width="6.487" height="5.907"/>
	<rect x="133.869" y="179.292" fill="none" width="6.487" height="5.906"/>
	<rect x="133.869" y="188.989" fill="none" width="6.487" height="5.898"/>
	<polygon fill="none" points="132.532,198.671 125.068,198.671 124.22,198.671 116.756,198.671 115.909,198.671 108.445,198.671 
		107.597,198.671 100.133,198.671 92.309,198.671 92.309,204.58 100.133,204.58 107.597,204.58 108.445,204.58 115.909,204.58 
		116.756,204.58 124.22,204.58 125.068,204.58 132.532,204.58 133.38,204.58 140.356,204.58 140.356,198.671 133.38,198.671 	"/>
	<rect x="133.869" y="159.897" fill="none" width="6.487" height="5.908"/>
	<rect x="142.182" y="198.671" fill="none" width="6.483" height="5.908"/>
	<rect x="75.684" y="198.671" fill="none" width="6.487" height="5.908"/>
	<rect x="83.996" y="179.292" fill="none" width="6.487" height="5.906"/>
	<rect x="92.308" y="188.988" fill="none" width="6.488" height="5.898"/>
	<rect x="83.996" y="198.671" fill="none" width="6.487" height="5.908"/>
	<polygon fill="none" points="75.684,188.989 75.684,194.887 83.507,194.887 90.483,194.887 90.483,188.989 83.507,188.989 	"/>
	<rect x="83.996" y="169.594" fill="none" width="6.487" height="5.907"/>
	<rect x="83.996" y="159.897" fill="none" width="6.487" height="5.908"/>
	<rect x="200.619" y="150.486" fill="none" width="5.596" height="5.162"/>
	<rect x="142.182" y="159.896" fill="none" width="6.483" height="5.908"/>
	<rect x="150.494" y="198.671" fill="none" width="6.485" height="5.908"/>
	<rect x="145.402" y="150.371" fill="none" width="5.596" height="5.16"/>
	<rect x="137.435" y="150.371" fill="none" width="5.595" height="5.16"/>
	<rect x="125.557" y="179.292" fill="none" width="6.487" height="5.906"/>
	<rect x="129.468" y="150.371" fill="none" width="5.595" height="5.16"/>
	<rect x="125.557" y="188.988" fill="none" width="6.487" height="5.898"/>
	<path fill="none" d="M59.798,136.581l-1.344-3.519l-8.172-21.391l-1.029-2.695l-3.595-9.41c-0.666-1.743-2.625-2.62-4.369-1.953
		l-1.541,0.589l-0.337-0.883c-0.324-0.845-1.275-1.27-2.12-0.947c-0.845,0.323-1.271,1.274-0.948,2.119l0.337,0.883l-5.989,2.288
		l-0.337-0.882c-0.323-0.846-1.274-1.271-2.119-0.948c-0.844,0.323-1.27,1.274-0.947,2.12l0.337,0.882l-5.938,2.269l-0.337-0.882
		c-0.323-0.846-1.273-1.271-2.118-0.949c-0.845,0.324-1.27,1.274-0.947,2.12l0.337,0.882l-1.542,0.589
		c-1.743,0.666-2.619,2.625-1.953,4.368l3.595,9.41l1.029,2.695l8.172,21.391l1.345,3.519l0.411,1.078
		c0.332,0.868,0.982,1.557,1.83,1.934c0.849,0.382,1.794,0.408,2.662,0.074l24.032-9.18c0.868-0.331,1.554-0.981,1.934-1.829
		c0.379-0.848,0.406-1.795,0.073-2.665L59.798,136.581z M37.601,97.183c0.398-0.151,0.847,0.047,1,0.447l1.165,3.051
		c0.558,0.079,1.058,0.452,1.273,1.015c0.316,0.825-0.097,1.753-0.923,2.069c-0.826,0.316-1.754-0.1-2.071-0.925
		c-0.215-0.564-0.09-1.175,0.275-1.606l-1.166-3.051C37.001,97.783,37.201,97.336,37.601,97.183z M28.546,100.644
		c0.399-0.153,0.846,0.047,0.999,0.447l1.166,3.05c0.559,0.079,1.06,0.452,1.275,1.015c0.315,0.825-0.099,1.754-0.926,2.069
		c-0.824,0.314-1.754-0.1-2.069-0.926c-0.215-0.563-0.09-1.175,0.273-1.605l-1.165-3.05
		C27.946,101.243,28.147,100.796,28.546,100.644z M19.541,104.082c0.399-0.152,0.846,0.048,0.998,0.448l1.166,3.05
		c0.56,0.079,1.061,0.452,1.276,1.015c0.316,0.825-0.098,1.754-0.924,2.069c-0.826,0.315-1.754-0.1-2.069-0.926
		c-0.215-0.563-0.092-1.174,0.273-1.605l-1.167-3.051C18.941,104.681,19.141,104.235,19.541,104.082z M59.345,139.967
		c-0.282,0.632-0.805,1.126-1.451,1.373c-5.455,2.083-18.579,7.098-24.032,9.182c-0.648,0.246-1.365,0.226-1.999-0.058
		c-0.632-0.282-1.125-0.805-1.373-1.452c-0.126-0.33-0.264-0.693-0.411-1.078c-0.44-1.151-0.889-2.327-1.344-3.519
		c-2.564-6.71-5.351-14.006-8.172-21.391c-0.345-0.902-0.69-1.805-1.03-2.695c-1.422-3.722-2.756-7.215-3.595-9.41
		c-0.495-1.298,0.154-2.752,1.452-3.248l1.542-0.589l0.361,0.944c-0.322,0.618-0.37,1.352-0.115,2.019
		c0.486,1.272,1.916,1.913,3.189,1.427c1.272-0.485,1.912-1.917,1.426-3.189c-0.255-0.666-0.782-1.181-1.434-1.427l-0.361-0.944
		l5.938-2.269l0.361,0.944c-0.321,0.618-0.369,1.353-0.115,2.019c0.486,1.272,1.916,1.913,3.188,1.427
		c1.272-0.486,1.911-1.917,1.425-3.189c-0.255-0.666-0.781-1.182-1.432-1.428l-0.361-0.944l5.989-2.289l0.36,0.945
		c-0.322,0.618-0.372,1.353-0.117,2.02c0.488,1.272,1.919,1.911,3.191,1.426c1.272-0.485,1.91-1.917,1.424-3.189
		c-0.255-0.666-0.78-1.181-1.431-1.428l-0.36-0.945l1.541-0.588c1.299-0.496,2.753,0.154,3.249,1.452
		c0.839,2.195,2.173,5.688,3.595,9.41c0.34,0.89,0.685,1.793,1.03,2.695c2.821,7.384,5.608,14.68,8.172,21.391
		c0.455,1.192,0.904,2.368,1.344,3.519c0.147,0.384,0.285,0.746,0.411,1.075C59.648,138.616,59.627,139.335,59.345,139.967z"/>
	<circle fill="none" cx="29.956" cy="165.979" r="0.702"/>
	<path fill="none" d="M41.517,165.069l-21.836,6.283l0.058,0.194l0.062,0.22l0.369,1.28l9.313,32.355l0.402,1.395l1.042,3.625
		l0.016,0.052l0.444,1.543l21.834-6.287l-1.502-5.215L41.517,165.069z M34.573,208.296l1.354-1.403l0.539,1.875L34.573,208.296z
		 M41.557,207.166c-0.485,0-0.878-0.394-0.878-0.879c0-0.484,0.393-0.877,0.878-0.877s0.878,0.393,0.878,0.877
		C42.435,206.772,42.042,207.166,41.557,207.166z M47.187,205.682l-0.54-1.875l1.895,0.47L47.187,205.682z"/>
	<path fill="none" d="M55.89,137.356c-0.102-0.266-0.212-0.556-0.331-0.867c-0.354-0.926-0.714-1.869-1.081-2.828
		c-0.474-1.242-0.959-2.511-1.451-3.798c-0.274-0.716-0.55-1.438-0.828-2.167c-1.393-3.644-2.837-7.424-4.292-11.232
		c-0.277-0.725-0.554-1.451-0.827-2.166c-0.509-1.329-1.001-2.619-1.452-3.8c-0.401-1.048-0.768-2.007-1.081-2.828
		c-0.118-0.308-0.229-0.6-0.331-0.866c-0.009-0.025-0.018-0.049-0.027-0.072c-0.399-1.044-1.569-1.566-2.611-1.168l-0.069,0.026
		c0,0-0.001,0-0.003,0.001c-4.385,1.675-14.936,5.706-19.32,7.381c0,0-0.002,0-0.004,0.001l-0.067,0.026
		c-1.044,0.399-1.567,1.568-1.168,2.612c0.008,0.024,0.018,0.048,0.027,0.072c0.102,0.266,0.213,0.557,0.331,0.866
		c0.314,0.821,0.68,1.78,1.081,2.828c0.451,1.18,0.944,2.47,1.451,3.799c0.273,0.715,0.551,1.442,0.827,2.166
		c1.456,3.808,2.899,7.586,4.292,11.232c0.279,0.729,0.555,1.451,0.828,2.167c0.492,1.287,0.976,2.556,1.451,3.798
		c0.367,0.961,0.727,1.902,1.081,2.828c0.118,0.311,0.229,0.602,0.331,0.867c0.009,0.023,0.019,0.049,0.027,0.072
		c0.399,1.042,1.569,1.566,2.613,1.168l0.067-0.025c0.002-0.001,0.003-0.002,0.003-0.002c4.384-1.675,14.936-5.706,19.321-7.381
		c0.001-0.001,0.003-0.001,0.003-0.001l0.069-0.026c1.042-0.398,1.565-1.569,1.168-2.611
		C55.909,137.405,55.899,137.38,55.89,137.356z"/>
	<path fill="none" d="M43.687,162.022c-0.196-0.688-0.649-1.256-1.273-1.604c-0.626-0.345-1.35-0.426-2.038-0.229l-22.327,6.429
		c-0.363,0.103-0.693,0.278-0.98,0.521c-0.808,0.68-1.142,1.772-0.849,2.788l12.58,43.716c0.412,1.412,1.895,2.231,3.311,1.828
		l22.331-6.429c0.362-0.104,0.689-0.279,0.977-0.52c0.808-0.68,1.141-1.773,0.849-2.788L43.687,162.022z M54.321,208.626
		l-22.33,6.427c-1.19,0.342-2.43-0.345-2.775-1.533l-12.583-43.713c-0.342-1.19,0.346-2.433,1.535-2.777l22.328-6.426
		c0,0,0,0,0.002-0.002c1.191-0.34,2.434,0.349,2.775,1.537l12.581,43.713C56.195,207.041,55.509,208.281,54.321,208.626z"/>
	<rect x="113.533" y="150.371" fill="none" width="5.596" height="5.16"/>
	<rect x="108.933" y="179.292" fill="none" width="6.487" height="5.906"/>
	<rect x="105.566" y="150.371" fill="none" width="5.596" height="5.16"/>
	<rect x="108.932" y="188.988" fill="none" width="6.487" height="5.898"/>
	<rect x="117.245" y="169.594" fill="none" width="6.487" height="5.907"/>
	<rect x="108.933" y="169.594" fill="none" width="6.487" height="5.907"/>
	<rect x="108.933" y="159.897" fill="none" width="6.487" height="5.908"/>
	<rect x="117.245" y="159.896" fill="none" width="6.487" height="5.908"/>
	<rect x="121.5" y="150.371" fill="none" width="5.596" height="5.16"/>
	<rect x="125.557" y="159.897" fill="none" width="6.487" height="5.908"/>
	<rect x="125.557" y="169.594" fill="none" width="6.487" height="5.907"/>
	<rect x="117.245" y="188.988" fill="none" width="6.487" height="5.898"/>
	<rect x="117.245" y="179.292" fill="none" width="6.487" height="5.906"/>
	<rect x="97.599" y="150.371" fill="none" width="5.596" height="5.16"/>
	<rect x="208.432" y="192.01" fill="none" width="5.771" height="5.317"/>
	<rect x="208.277" y="150.486" fill="none" width="5.596" height="5.162"/>
	<rect x="208.432" y="199.05" fill="none" width="5.771" height="5.324"/>
	<rect x="208.432" y="184.966" fill="none" width="5.771" height="5.324"/>
	<rect x="200.533" y="177.919" fill="none" width="5.772" height="5.324"/>
	<rect x="200.533" y="192.01" fill="none" width="5.772" height="5.317"/>
	<rect x="192.962" y="150.486" fill="none" width="5.597" height="5.162"/>
	<rect x="208.432" y="177.919" fill="none" width="5.771" height="5.324"/>
	<rect x="200.533" y="184.966" fill="none" width="5.772" height="5.324"/>
	<rect x="200.533" y="199.05" fill="none" width="5.772" height="5.324"/>
	<path fill="none" d="M253.497,155.476c0.152-0.797-0.016-1.607-0.473-2.282c-0.458-0.675-1.149-1.131-1.946-1.283
		c-0.193-0.037-0.387-0.056-0.576-0.056c-1.459,0-2.716,1.042-2.99,2.477c-0.154,0.798,0.014,1.608,0.472,2.283
		s1.149,1.131,1.947,1.284C251.599,158.225,253.188,157.098,253.497,155.476z M250.503,157.035c-1.176,0-2.129-0.954-2.129-2.13
		s0.953-2.129,2.129-2.129s2.129,0.953,2.129,2.129S251.679,157.035,250.503,157.035z"/>
	<polygon fill="none" points="251.154,166.171 251.154,166.172 251.154,166.171 	"/>
	<path fill="none" d="M264.11,125.985c-0.086-0.043-0.172-0.084-0.26-0.125l-0.101-0.048c-1.664-0.793-3.776-1.383-5.199-1.729
		l0.019-0.083l-0.707-0.112l-0.562-0.089l-0.784-0.179l-0.701-0.158l-0.024,0.122c-1.226-0.157-3.035-0.346-4.636-0.346
		c-0.243,0-0.481,0.004-0.711,0.013l-0.071,0.003c-0.14,0.006-0.279,0.011-0.42,0.019c-0.09-0.004-0.182-0.006-0.271-0.006
		c-2.682,0-5.08,1.692-5.982,4.213c-0.859,1.871-0.996,4.184-1.143,6.634l-0.004,0.047c-0.074,1.23-0.15,2.503-0.328,3.647
		c-0.328,2.097-0.947,4.067-1.84,5.857c-0.297,0.596-0.719,1.228-1.164,1.896c-0.938,1.404-1.906,2.857-2.238,4.588
		c-0.801,4.189-0.209,7.943,1.713,10.859c1.926,2.92,5.107,4.879,9.195,5.66c0.791,0.152,1.599,0.229,2.4,0.229
		c4.948,0,9.631-2.814,12.553-7.535l0.098-0.064l0.041-0.161c0.253-0.427,0.501-0.88,0.73-1.347l0.006-0.012l0.016-0.033
		c0.23-0.467,0.448-0.973,0.643-1.479l0.006-0.014l0.011-0.031c0.192-0.5,0.364-1.02,0.51-1.535l0.006-0.018l0.003-0.015
		l0.002-0.008c0.151-0.541,0.278-1.082,0.379-1.606c0.373-1.942,0.437-3.912,0.194-5.854l0.813-2.068
		c0.033-0.087,0.068-0.174,0.097-0.263l0.054-0.144l0.022-0.067c1.479-3.96,2.129-8.263,1.877-12.45
		C268.444,129.443,266.708,126.899,264.11,125.985z M266.29,144.594l-0.073,0.203c-0.028,0.083-0.061,0.171-0.098,0.261
		l-0.828,2.104c0.249,1.933,0.187,3.896-0.186,5.841c-0.094,0.501-0.216,1.022-0.374,1.591c-0.156,0.55-0.326,1.064-0.519,1.566
		c-0.207,0.543-0.425,1.044-0.66,1.522c-0.243,0.497-0.5,0.968-0.775,1.42l-0.063,0.102c-0.176,0.286-0.361,0.565-0.552,0.841
		l-0.205,0.28c-0.148,0.202-0.292,0.395-0.441,0.585c-0.087,0.11-0.177,0.218-0.268,0.324c-0.134,0.164-0.277,0.329-0.427,0.497
		l-0.285,0.308c-0.151,0.16-0.307,0.313-0.46,0.465c-0.101,0.099-0.199,0.194-0.302,0.289c-0.159,0.151-0.335,0.301-0.508,0.448
		c-0.09,0.078-0.185,0.16-0.28,0.237c-0.218,0.176-0.438,0.346-0.665,0.508l-0.163,0.121c-0.273,0.196-0.564,0.385-0.855,0.563
		l-0.224,0.128c-0.221,0.131-0.443,0.257-0.672,0.373l-0.317,0.156c-0.199,0.098-0.401,0.193-0.602,0.278l-0.353,0.144
		c-0.203,0.081-0.405,0.158-0.607,0.225l-0.355,0.121c-0.209,0.066-0.417,0.122-0.629,0.179c-0.165,0.045-0.26,0.07-0.353,0.091
		c-0.237,0.055-0.481,0.102-0.723,0.144c-0.138,0.028-0.202,0.041-0.268,0.05c-0.334,0.048-0.668,0.089-1.006,0.112l-0.143-0.493
		l0,0l0.039,0.498c-0.287,0.016-0.546,0.023-0.804,0.023h-0.088c-0.247-0.002-0.494-0.018-0.742-0.034
		c-0.183-0.008-0.286-0.012-0.391-0.021c-0.382-0.037-0.763-0.09-1.143-0.163c-8.255-1.58-12.376-7.825-10.755-16.296
		c0.326-1.694,1.283-3.131,2.208-4.52c0.451-0.676,0.877-1.314,1.178-1.916c0.901-1.814,1.525-3.803,1.854-5.914
		c0.181-1.141,0.257-2.403,0.331-3.624c0.15-2.528,0.288-4.839,1.145-6.684c0.089-0.263,0.226-0.568,0.388-0.859
		c0.035-0.067,0.082-0.137,0.13-0.208l0.475,0.189l-0.38-0.337c0.097-0.156,0.193-0.311,0.305-0.454
		c0.056-0.075,0.125-0.151,0.196-0.226l0.437,0.264l-0.323-0.39c0.107-0.123,0.216-0.245,0.332-0.356
		c0.084-0.077,0.163-0.141,0.244-0.205l0.393,0.326l-0.249-0.442c0.115-0.096,0.231-0.191,0.354-0.277
		c0.092-0.063,0.187-0.118,0.28-0.171l0.09-0.051c0.185-0.111,0.319-0.192,0.463-0.26c0.092-0.046,0.195-0.086,0.3-0.126
		l0.098-0.038c0.176-0.071,0.33-0.133,0.49-0.182c0.108-0.033,0.222-0.059,0.335-0.083l0.151-0.034
		c0.152-0.035,0.303-0.068,0.458-0.089c0.122-0.016,0.242-0.024,0.363-0.032l0.206,0.488l-0.032-0.499
		c0.146-0.009,0.292-0.019,0.439-0.019l0.152,0.003l0.475-0.023c2.035-0.085,4.038,0.032,5.991,0.337l0.509,0.08l-1.247,6.527
		l-0.349,0.054c-0.682,0.105-1.227,0.625-1.354,1.295l-1.068,5.576c-0.128,0.669,0.186,1.354,0.78,1.704l0.304,0.179l-0.757,3.959
		c-0.015,0.075,0.014,0.13,0.031,0.156c0.019,0.027,0.06,0.075,0.135,0.089c0.139-0.001,0.226-0.067,0.245-0.167l0.758-3.958
		l0.349-0.054c0.682-0.105,1.227-0.626,1.354-1.297l1.068-5.575c0.127-0.669-0.187-1.354-0.78-1.704l-0.304-0.179l1.24-6.487
		l0.509,0.062c2.041,0.43,3.993,1.086,5.8,1.948l0.396,0.188c2.493,0.854,4.2,3.352,4.095,6.049
		C268.415,136.349,267.768,140.642,266.29,144.594z M255.736,131.341c0.387,0.075,0.639,0.446,0.564,0.831l-1.066,5.576
		c-0.074,0.385-0.447,0.636-0.83,0.563c-0.386-0.074-0.638-0.446-0.564-0.83l1.066-5.575
		C254.98,131.521,255.352,131.269,255.736,131.341z"/>
	<polygon fill="none" points="142.182,188.989 142.181,194.887 149.155,194.887 156.979,194.887 156.979,188.989 149.155,188.989 	
		"/>
	<rect x="250.289" y="166.197" fill="none" width="0" height="0.002"/>
	<path fill="none" d="M226.427,151.007c0-6.162-5.014-11.176-11.178-11.176h-95.413h-13.484H92.849h-17.67h-3.196
		c-2.981,0-5.786,1.163-7.9,3.277c-2.113,2.113-3.277,4.919-3.277,7.897v54.566c0,6.162,5.014,11.176,11.177,11.176h143.269
		c6.162,0,11.177-5.014,11.177-11.176h-0.001V151.007z M225.816,205.572c0,5.826-4.738,10.564-10.564,10.564H71.983
		c-5.826,0-10.566-4.738-10.566-10.564v-54.566c0-5.823,4.74-10.565,10.566-10.564h3.196v-0.001h17.67h13.505h13.484h95.412
		c5.828,0,10.566,4.742,10.566,10.565V205.572z"/>
	<path fill="none" d="M215.251,147.652h-95.415h-13.484H75.179h-3.196c-1.85,0-3.355,1.504-3.355,3.354v54.566
		c0,1.85,1.504,3.354,3.355,3.354H215.25c1.852,0,3.355-1.505,3.355-3.354h0.001v-54.566
		C218.606,149.158,217.101,147.652,215.251,147.652z M217.447,204.41h-0.002v1.162c0,1.209-0.984,2.195-2.195,2.195H71.983
		c-1.211,0-2.196-0.986-2.196-2.195v-54.566c0-1.211,0.986-2.194,2.196-2.194h3.196h31.175h13.484h95.414
		c1.209,0,2.195,0.983,2.195,2.194V204.41z"/>
	<path fill="none" d="M221.271,78.212H61.042c-0.545,0-0.986,0.441-0.986,0.986c0,0.545,0.441,0.986,0.986,0.986h160.229
		c0.545,0,0.986-0.441,0.986-0.986C222.257,78.653,221.816,78.212,221.271,78.212z"/>
	<path fill="none" d="M237.798,83.263v-8.131c0-2.867-2.575-5.2-5.741-5.2h-33.365c-0.028-2.076-1.487-3.757-3.284-3.757h-30.521
		c-6.939-1.951-15.143-2.982-23.729-2.982c-8.588,0-16.792,1.031-23.73,2.982H86.903c-1.795,0-3.254,1.68-3.282,3.757H50.257
		c-3.168,0-5.745,2.333-5.745,5.2v8.131c0,2.867,2.578,5.2,5.745,5.2h33.39c0.162,1.931,1.551,3.451,3.256,3.451h29.474
		c7.154,2.152,15.72,3.289,24.78,3.289c9.059,0,17.625-1.138,24.778-3.289h29.473c1.707,0,3.096-1.52,3.258-3.451h33.394
		C235.225,88.463,237.8,86.131,237.798,83.263z M232.058,87.478H50.257c-2.627,0-4.758-1.886-4.758-4.214v-8.131
		c0-2.327,2.131-4.214,4.758-4.214h181.802c2.625,0,4.755,1.887,4.755,4.214v8.131C236.814,85.592,234.683,87.478,232.058,87.478z"
		/>
	<rect x="165.082" y="160.108" fill="none" width="5.773" height="5.324"/>
	<rect x="165.082" y="167.154" fill="none" width="5.773" height="5.326"/>
	<rect x="172.983" y="199.05" fill="none" width="5.772" height="5.326"/>
	<polygon fill="none" points="148.177,179.914 148.177,178.714 142.669,178.714 142.669,185.819 147.855,185.819 149.154,185.819 
		156.488,185.819 156.488,180.889 149.154,180.889 148.666,180.889 148.177,180.889 148.177,180.401 	"/>
	<rect x="172.983" y="192.012" fill="none" width="5.772" height="5.315"/>
	<rect x="150.494" y="159.897" fill="none" width="6.485" height="5.908"/>
	<rect x="192.63" y="177.919" fill="none" width="5.773" height="5.324"/>
	<rect x="165.082" y="199.05" fill="none" width="5.773" height="5.326"/>
	<polygon fill="none" points="142.182,169.594 142.181,175.501 149.155,175.501 156.979,175.501 156.979,169.594 149.155,169.594 	
		"/>
	<rect x="172.983" y="167.154" fill="none" width="5.772" height="5.326"/>
	<rect x="192.63" y="199.05" fill="none" width="5.773" height="5.324"/>
	<rect x="192.63" y="192.01" fill="none" width="5.773" height="5.317"/>
	<rect x="180.882" y="160.108" fill="none" width="5.773" height="5.324"/>
	<rect x="192.63" y="184.966" fill="none" width="5.773" height="5.324"/>
	<rect x="172.983" y="160.108" fill="none" width="5.772" height="5.324"/>
	<rect x="180.882" y="199.05" fill="none" width="5.773" height="5.326"/>
	<rect x="153.369" y="150.371" fill="none" width="5.596" height="5.16"/>
	<rect x="180.882" y="167.154" fill="none" width="5.773" height="5.326"/>
	<polygon points="250.289,166.199 250.289,166.199 250.289,166.199 	"/>
	<path d="M267.99,52.343H15.469c-4.631,0-8.385,3.754-8.385,8.385v162.004c0,4.631,3.754,8.385,8.385,8.385H267.99
		c4.631,0,8.385-3.754,8.385-8.385V60.729C276.375,56.097,272.621,52.343,267.99,52.343z M55.419,208.521
		c-0.288,0.24-0.615,0.416-0.977,0.52l-22.331,6.429c-1.416,0.403-2.899-0.416-3.311-1.828l-12.58-43.716
		c-0.293-1.016,0.041-2.108,0.849-2.788c0.287-0.242,0.617-0.418,0.98-0.521l22.327-6.429c0.688-0.196,1.412-0.115,2.038,0.229
		c0.624,0.349,1.077,0.916,1.273,1.604l12.581,43.711C56.56,206.748,56.227,207.841,55.419,208.521z M60.137,140.323
		c-0.38,0.848-1.066,1.498-1.934,1.829l-24.032,9.18c-0.868,0.334-1.813,0.308-2.662-0.074c-0.848-0.377-1.498-1.065-1.83-1.934
		l-0.411-1.078l-1.345-3.519l-8.172-21.391l-1.029-2.695l-3.595-9.41c-0.666-1.743,0.21-3.702,1.953-4.368l1.542-0.589l-0.337-0.882
		c-0.323-0.846,0.102-1.796,0.947-2.12c0.845-0.322,1.795,0.103,2.118,0.949l0.337,0.882l5.938-2.269l-0.337-0.882
		c-0.323-0.846,0.103-1.797,0.947-2.12c0.845-0.323,1.796,0.102,2.119,0.948l0.337,0.882l5.989-2.288l-0.337-0.883
		c-0.323-0.845,0.103-1.796,0.948-2.119c0.845-0.323,1.796,0.102,2.12,0.947l0.337,0.883l1.541-0.589
		c1.744-0.667,3.703,0.21,4.369,1.953l3.595,9.41l1.029,2.695l8.172,21.391l1.344,3.519l0.412,1.077
		C60.543,138.528,60.516,139.475,60.137,140.323z M215.251,216.748H71.983c-6.163,0-11.177-5.014-11.177-11.176v-54.566
		c0-2.979,1.164-5.784,3.277-7.897c2.114-2.114,4.919-3.277,7.9-3.277h3.196h17.67h13.504h13.484h95.413
		c6.164,0,11.178,5.014,11.178,11.176v54.564h0.001C226.428,211.734,221.414,216.748,215.251,216.748z M198.666,88.463
		c-0.162,1.931-1.551,3.451-3.258,3.451h-29.473c-7.152,2.151-15.719,3.289-24.778,3.289c-9.06,0-17.626-1.137-24.78-3.289H86.903
		c-1.705,0-3.094-1.52-3.256-3.451h-33.39c-3.167,0-5.745-2.333-5.745-5.2v-8.131c0-2.867,2.577-5.2,5.745-5.2h33.364
		c0.028-2.077,1.487-3.757,3.282-3.757h30.524c6.938-1.951,15.142-2.982,23.73-2.982c8.586,0,16.79,1.031,23.729,2.982h30.521
		c1.797,0,3.256,1.681,3.284,3.757h33.365c3.166,0,5.741,2.333,5.741,5.2v8.131c0.002,2.868-2.573,5.2-5.739,5.2H198.666z
		 M268.359,145.311l-0.011,0.034c-0.008,0.022-0.016,0.046-0.024,0.068l-0.04,0.105c-0.03,0.091-0.063,0.18-0.098,0.268
		l-0.024,0.064l-0.632,1.606c0.197,1.986,0.105,3.989-0.273,5.96c-0.111,0.583-0.251,1.175-0.402,1.714
		c-0.01,0.04-0.021,0.081-0.032,0.121c-0.163,0.574-0.352,1.142-0.548,1.651c-0.011,0.03-0.024,0.066-0.038,0.101
		c-0.224,0.579-0.461,1.126-0.692,1.593c-0.005,0.011-0.031,0.065-0.036,0.076c-0.202,0.411-0.425,0.828-0.664,1.243
		c-0.098,0.3-0.264,0.571-0.484,0.793c-3.301,5.134-8.535,8.188-14.068,8.188c-0.932,0-1.867-0.089-2.775-0.264
		c-4.632-0.886-8.259-3.142-10.49-6.524c-2.214-3.358-2.908-7.624-2.007-12.337c0.408-2.131,1.54-3.826,2.554-5.344
		c0.404-0.606,0.785-1.18,1.022-1.656c0.802-1.607,1.357-3.381,1.653-5.272c0.162-1.044,0.236-2.262,0.309-3.46
		c0.001-0.015,0.003-0.047,0.005-0.062c0.155-2.605,0.303-5.067,1.285-7.256c1.208-3.267,4.346-5.456,7.835-5.456
		c0.087,0,0.175,0.001,0.263,0.004l0.204-0.01l0.143-0.006l0.077-0.003c0.254-0.01,0.518-0.015,0.787-0.015
		c1.417,0,2.971,0.137,4.198,0.278c0.15-0.036,0.306-0.054,0.462-0.054c0.146,0,0.295,0.016,0.44,0.049l0.705,0.159l0.72,0.164
		l0.494,0.079l0.707,0.112c0.254,0.041,0.496,0.129,0.712,0.258c1.501,0.386,3.428,0.967,5.016,1.723l0.087,0.042
		c0.066,0.031,0.133,0.063,0.197,0.094c3.309,1.222,5.536,4.493,5.459,8.022C270.605,136.585,269.917,141.128,268.359,145.311z"/>
	<path fill="#010101" d="M254.906,131.906l-1.066,5.575c-0.073,0.384,0.179,0.756,0.564,0.83c0.383,0.073,0.756-0.178,0.83-0.563
		l1.066-5.576c0.074-0.385-0.178-0.756-0.564-0.831C255.352,131.269,254.98,131.521,254.906,131.906z"/>
	<circle fill="#010101" cx="250.503" cy="154.905" r="2.129"/>
	<path d="M264.065,126.173l-0.396-0.188c-1.807-0.862-3.759-1.518-5.8-1.948l-0.509-0.062l-1.24,6.487l0.304,0.179
		c0.594,0.35,0.907,1.035,0.78,1.704l-1.068,5.575c-0.128,0.67-0.673,1.191-1.354,1.297l-0.349,0.054l-0.758,3.958
		c-0.02,0.1-0.106,0.166-0.245,0.167c-0.075-0.014-0.116-0.062-0.135-0.089c-0.018-0.026-0.046-0.081-0.031-0.156l0.757-3.959
		l-0.304-0.179c-0.595-0.35-0.908-1.035-0.78-1.704l1.068-5.576c0.128-0.67,0.673-1.19,1.354-1.295l0.349-0.054l1.247-6.527
		l-0.509-0.08c-1.953-0.306-3.956-0.422-5.991-0.337l-0.475,0.023l-0.152-0.003c-0.147,0-0.293,0.009-0.439,0.019l0.032,0.499
		l-0.206-0.488c-0.121,0.008-0.241,0.016-0.363,0.032c-0.155,0.021-0.306,0.054-0.458,0.089l-0.151,0.034
		c-0.113,0.024-0.227,0.05-0.335,0.083c-0.16,0.049-0.314,0.111-0.49,0.182l-0.098,0.038c-0.104,0.04-0.208,0.08-0.3,0.126
		c-0.144,0.068-0.278,0.148-0.463,0.26l-0.09,0.051c-0.094,0.053-0.188,0.107-0.28,0.171c-0.122,0.086-0.238,0.182-0.354,0.277
		l0.249,0.442l-0.393-0.326c-0.081,0.064-0.16,0.128-0.244,0.205c-0.116,0.112-0.225,0.233-0.332,0.356l0.323,0.39L245,125.633
		c-0.071,0.075-0.141,0.151-0.196,0.226c-0.111,0.144-0.208,0.298-0.305,0.454l0.38,0.337l-0.475-0.189
		c-0.048,0.07-0.095,0.141-0.13,0.208c-0.162,0.292-0.299,0.596-0.388,0.859c-0.856,1.845-0.994,4.156-1.145,6.684
		c-0.074,1.221-0.15,2.483-0.331,3.624c-0.329,2.11-0.953,4.1-1.854,5.914c-0.301,0.602-0.727,1.24-1.178,1.916
		c-0.925,1.389-1.882,2.825-2.208,4.52c-1.621,8.471,2.5,14.716,10.755,16.296c0.38,0.073,0.761,0.126,1.143,0.163
		c0.104,0.01,0.208,0.014,0.391,0.021c0.248,0.017,0.495,0.032,0.742,0.034h0.088c0.258,0,0.517-0.008,0.804-0.023l-0.039-0.498
		v-0.001v0.001l0.143,0.493c0.338-0.023,0.672-0.064,1.006-0.112c0.065-0.009,0.13-0.021,0.268-0.05
		c0.241-0.042,0.485-0.089,0.723-0.144c0.093-0.021,0.188-0.046,0.353-0.091c0.212-0.057,0.42-0.112,0.629-0.179l0.355-0.121
		c0.202-0.066,0.404-0.144,0.607-0.225l0.353-0.144c0.2-0.085,0.402-0.181,0.602-0.278l0.317-0.156
		c0.229-0.116,0.451-0.242,0.672-0.373l0.224-0.128c0.291-0.178,0.582-0.366,0.855-0.563l0.163-0.121
		c0.227-0.162,0.447-0.332,0.665-0.508c0.096-0.077,0.19-0.159,0.28-0.237c0.173-0.147,0.349-0.297,0.508-0.448
		c0.103-0.095,0.201-0.19,0.302-0.289c0.153-0.151,0.309-0.305,0.46-0.465l0.285-0.308c0.149-0.168,0.293-0.333,0.427-0.497
		c0.091-0.106,0.181-0.214,0.268-0.324c0.149-0.19,0.293-0.383,0.441-0.585l0.205-0.28c0.19-0.275,0.376-0.555,0.552-0.841
		l0.063-0.102c0.275-0.452,0.532-0.923,0.775-1.42c0.235-0.479,0.453-0.979,0.66-1.522c0.192-0.502,0.362-1.017,0.519-1.566
		c0.158-0.568,0.28-1.09,0.374-1.591c0.372-1.944,0.435-3.908,0.186-5.841l0.828-2.104c0.037-0.09,0.069-0.178,0.098-0.261
		l0.073-0.203c1.479-3.952,2.125-8.245,1.87-12.372C268.265,129.525,266.558,127.027,264.065,126.173z M251.154,166.171
		l-0.144-0.492c-0.24,0.013-0.481,0.02-0.722,0.02v0.498v0.002l0,0l0,0v-0.002l-0.08-0.498c-0.226-0.002-0.453-0.016-0.68-0.032
		l-0.108-0.005c-0.087-0.003-0.173-0.007-0.259-0.015c-0.349-0.033-0.698-0.082-1.048-0.149c-7.649-1.464-11.467-7.26-9.961-15.125
		c0.288-1.496,1.188-2.847,2.058-4.153c0.469-0.702,0.912-1.366,1.24-2.025c0.948-1.905,1.604-3.993,1.948-6.204
		c0.188-1.187,0.266-2.474,0.346-3.801c0.14-2.349,0.271-4.568,1.067-6.287c0.089-0.255,0.201-0.507,0.341-0.757
		c0.021-0.042,0.05-0.081,0.076-0.12l0.121-0.187c0.077-0.125,0.153-0.25,0.249-0.374c0.039-0.053,0.085-0.1,0.129-0.147
		l0.137-0.151c0.088-0.101,0.176-0.202,0.265-0.287c0.059-0.054,0.12-0.102,0.182-0.151l0.159-0.129
		c0.095-0.079,0.19-0.158,0.288-0.227c0.063-0.044,0.132-0.082,0.2-0.121l0.165-0.096c0.105-0.064,0.212-0.129,0.332-0.187
		c0.07-0.035,0.145-0.062,0.219-0.09l0.139-0.054c0.127-0.051,0.253-0.103,0.386-0.144c0.083-0.025,0.17-0.044,0.257-0.063
		l0.157-0.035c0.124-0.028,0.247-0.057,0.372-0.074c0.097-0.013,0.193-0.018,0.291-0.024l0.177-0.011
		c0.124-0.008,0.249-0.017,0.375-0.017l0.154,0.002l0.513-0.023c1.793-0.071,3.555,0.013,5.285,0.251l-0.927,4.838
		c-0.93,0.278-1.646,1.051-1.831,2.016l-1.068,5.576c-0.184,0.965,0.195,1.947,0.956,2.549l-0.628,3.292
		c-0.063,0.316,0.003,0.639,0.185,0.906c0.182,0.269,0.457,0.45,0.774,0.511c0.661,0.127,1.292-0.316,1.416-0.961l0.63-3.291
		c0.931-0.278,1.646-1.052,1.831-2.017l1.068-5.576c0.183-0.965-0.196-1.947-0.956-2.548l0.93-4.859
		c1.783,0.412,3.49,1.004,5.082,1.764l0.439,0.206c2.137,0.736,3.567,2.829,3.479,5.139c0.246,4.022-0.374,8.159-1.793,11.969
		l-0.096,0.265c-0.023,0.069-0.048,0.138-0.08,0.217l-0.927,2.354l0.018,0.129c0.254,1.866,0.2,3.767-0.16,5.65
		c-0.089,0.475-0.204,0.969-0.32,1.419l-0.045,0.123c-0.137,0.483-0.298,0.97-0.452,1.386l-0.042,0.095
		c-0.182,0.479-0.387,0.951-0.622,1.425c-0.201,0.415-0.422,0.824-0.692,1.282l-0.045,0.066c-0.178,0.294-0.368,0.58-0.558,0.855
		l-0.2,0.273c-0.136,0.184-0.273,0.368-0.417,0.551c-0.077,0.099-0.159,0.196-0.248,0.301c-0.132,0.162-0.266,0.315-0.403,0.47
		l-0.271,0.293c-0.141,0.147-0.288,0.293-0.432,0.435c-0.091,0.089-0.18,0.177-0.282,0.27c-0.153,0.146-0.313,0.283-0.478,0.422
		c-0.085,0.073-0.17,0.147-0.257,0.218c-0.203,0.165-0.408,0.321-0.681,0.52l-0.095,0.069c-0.261,0.187-0.53,0.361-0.797,0.524
		l-0.218,0.125c-0.202,0.119-0.405,0.235-0.611,0.34l-0.307,0.15c-0.184,0.09-0.37,0.178-0.554,0.257l-0.335,0.137
		c-0.181,0.072-0.363,0.142-0.546,0.202l-0.345,0.117c-0.194,0.061-0.387,0.112-0.662,0.187c-0.078,0.021-0.156,0.042-0.238,0.061
		c-0.224,0.052-0.45,0.095-0.676,0.135l-0.233,0.044c-0.312,0.044-0.622,0.083-0.947,0.105L251.154,166.171L251.154,166.171
		L251.154,166.171z"/>
	<path d="M254.479,155.664c0.202-1.059-0.021-2.136-0.628-3.031c-0.607-0.896-1.526-1.501-2.585-1.704
		c-2.179-0.414-4.325,1.06-4.737,3.215c-0.204,1.06,0.019,2.137,0.626,3.033c0.608,0.896,1.526,1.501,2.587,1.705
		c0.251,0.048,0.508,0.072,0.762,0.072C252.443,158.954,254.115,157.57,254.479,155.664z M249.93,157.899
		c-0.798-0.153-1.489-0.609-1.947-1.284s-0.626-1.485-0.472-2.283c0.274-1.435,1.531-2.477,2.99-2.477
		c0.189,0,0.383,0.019,0.576,0.056c0.797,0.152,1.488,0.608,1.946,1.283c0.457,0.675,0.625,1.485,0.473,2.282
		C253.188,157.098,251.599,158.225,249.93,157.899z"/>
	<path fill="#010101" d="M43.273,162.139c-0.341-1.188-1.584-1.877-2.775-1.537c-0.002,0.002-0.002,0.002-0.002,0.002l-22.328,6.426
		c-1.189,0.345-1.877,1.587-1.535,2.777l12.583,43.713c0.345,1.188,1.585,1.875,2.775,1.533l22.33-6.427
		c1.188-0.346,1.874-1.586,1.533-2.774L43.273,162.139z M29.762,165.305c0.372-0.104,0.761,0.108,0.867,0.479
		c0.108,0.371-0.107,0.762-0.479,0.869c-0.373,0.105-0.761-0.109-0.869-0.48C29.173,165.8,29.39,165.412,29.762,165.305z
		 M31.387,212.016l-0.444-1.543l-0.016-0.052l-1.042-3.625l-0.402-1.395l-9.313-32.355l-0.369-1.28l-0.062-0.22l-0.058-0.194
		l21.836-6.283l10.202,35.445l1.502,5.215L31.387,212.016z"/>
	<circle fill="#010101" cx="41.557" cy="206.288" r="0.878"/>
	<polygon fill="#010101" points="34.573,208.296 36.466,208.768 35.927,206.893 	"/>
	<polygon fill="#010101" points="47.187,205.682 48.542,204.277 46.647,203.807 	"/>
	<path fill="#010101" d="M215.25,140.44h-95.412h-13.484H92.849h-17.67v0.001h-3.196c-5.826-0.001-10.566,4.741-10.566,10.564
		v54.566c0,5.826,4.74,10.564,10.566,10.564h143.269c5.826,0,10.564-4.738,10.564-10.564v-54.566
		C225.816,145.182,221.078,140.44,215.25,140.44z M218.605,205.572c0,1.85-1.504,3.354-3.355,3.354H71.983
		c-1.851,0-3.355-1.505-3.355-3.354v-54.566c0-1.85,1.505-3.354,3.355-3.354h3.196h31.174h13.484h95.415
		c1.85,0,3.354,1.506,3.354,3.354L218.605,205.572L218.605,205.572z"/>
	<path fill="#010101" d="M215.251,148.811h-95.414h-13.484H75.179h-3.196c-1.21,0-2.196,0.983-2.196,2.194v54.566
		c0,1.209,0.985,2.195,2.196,2.195H215.25c1.211,0,2.195-0.986,2.195-2.195v-1.162h0.002v-53.404
		C217.447,149.794,216.46,148.811,215.251,148.811z M200.619,150.486h5.596v5.162h-5.596V150.486z M145.402,150.371h5.596v5.16
		h-5.596V150.371z M148.666,159.896v5.908h-6.483v-5.908H148.666z M137.435,150.371h5.595v5.16h-5.595V150.371z M129.468,150.371
		h5.595v5.16h-5.595V150.371z M125.557,185.199v-5.906h6.487v5.906H125.557z M132.044,188.988v5.898h-6.487v-5.898H132.044z
		 M125.557,175.501v-5.907h6.487v5.907H125.557z M125.557,165.805v-5.908h6.487v5.908H125.557z M121.5,150.371h5.596v5.16H121.5
		V150.371z M123.732,159.896v5.908h-6.487v-5.908H123.732z M117.245,185.199v-5.906h6.487v5.906H117.245z M123.732,188.988v5.898
		h-6.487v-5.898H123.732z M117.245,175.501v-5.907h6.487v5.907H117.245z M113.533,150.371h5.596v5.16h-5.596V150.371z
		 M108.933,185.199v-5.906h6.487v5.906H108.933z M115.419,188.988v5.898h-6.487v-5.898H115.419z M108.933,175.501v-5.907h6.487
		v5.907H108.933z M108.933,165.805v-5.908h6.487v5.908H108.933z M105.566,150.371h5.596v5.16h-5.596V150.371z M100.621,185.199
		v-5.906h6.487v5.906H100.621z M107.107,188.988v5.898h-6.487v-5.898H107.107z M100.621,175.501v-5.907h6.487v5.907H100.621z
		 M100.621,165.805v-5.908h6.487v5.908H100.621z M97.599,150.371h5.596v5.16h-5.596V150.371z M92.308,175.501v-5.907h6.488v5.907
		H92.308z M98.796,179.292v5.906h-6.488v-5.906H98.796z M92.308,165.805v-5.908h6.488v5.908H92.308z M89.632,150.371h5.596v5.16
		h-5.596V150.371z M81.666,150.371h5.595v5.16h-5.595V150.371z M75.685,175.501v-5.907h6.487v5.907H75.685z M82.171,179.292v5.906
		h-6.487v-5.906H82.171z M75.685,165.805v-5.908h6.487v5.908H75.685z M73.698,150.371h5.596v5.16h-5.596V150.371z M82.171,204.58
		h-6.487v-5.908h6.487V204.58z M90.483,204.58h-6.487v-5.908h6.487V204.58z M90.483,194.887h-6.976h-7.823v-5.898h7.823h6.976
		V194.887z M90.483,185.199h-6.487v-5.906h6.487V185.199z M90.483,175.501h-6.487v-5.907h6.487V175.501z M90.483,165.805h-6.487
		v-5.908h6.487V165.805z M92.308,188.988h6.488v5.898h-6.488V188.988z M140.356,204.58h-6.976h-0.848h-7.464h-0.848h-7.464h-0.847
		h-7.464h-0.848h-7.464h-7.824v-5.908h7.824h7.464h0.848h7.464h0.847h7.464h0.848h7.464h0.848h6.976V204.58z M140.356,194.887
		h-6.487v-5.898h6.487V194.887z M140.356,185.199h-6.487v-5.906h6.487V185.199z M140.356,175.501h-6.487v-5.907h6.487V175.501z
		 M140.356,165.805h-6.487v-5.908h6.487V165.805z M148.666,204.58h-6.483v-5.908h6.483V204.58z M156.979,204.58h-6.485v-5.908h6.485
		V204.58z M156.979,194.887h-7.824h-6.974l0.001-5.898h6.973h7.824V194.887z M148.666,180.889h0.488h7.334v4.93h-7.334h-1.299
		h-5.186v-7.104h5.508v1.199v0.487v0.488H148.666z M156.979,175.501h-7.824h-6.974l0.001-5.907h6.973h7.824V175.501z
		 M156.979,165.805h-6.485v-5.908h6.485V165.805z M158.964,155.531h-5.596v-5.16h5.596V155.531z M170.855,204.376h-5.773v-5.326
		h5.773V204.376z M170.855,172.48h-5.773v-5.326h5.773V172.48z M170.855,165.432h-5.773v-5.324h5.773V165.432z M178.755,204.376
		h-5.772v-5.326h5.772V204.376z M178.755,197.328h-5.772v-5.315h5.772V197.328z M178.755,172.48h-5.772v-5.326h5.772V172.48z
		 M178.755,165.432h-5.772v-5.324h5.772V165.432z M186.656,204.376h-5.773v-5.326h5.773V204.376z M186.656,172.48h-5.773v-5.326
		h5.773V172.48z M186.656,165.432h-5.773v-5.324h5.773V165.432z M198.404,204.375h-5.773v-5.324h5.773V204.375z M198.404,197.328
		h-5.773v-5.317h5.773V197.328z M198.404,190.291h-5.773v-5.324h5.773V190.291z M198.404,183.244h-5.773v-5.324h5.773V183.244z
		 M198.559,155.648h-5.597v-5.162h5.597V155.648z M206.305,204.375h-5.772v-5.324h5.772V204.375z M206.305,197.328h-5.772v-5.317
		h5.772V197.328z M206.305,190.291h-5.772v-5.324h5.772V190.291z M206.305,183.244h-5.772v-5.324h5.772V183.244z M208.277,150.486
		h5.596v5.162h-5.596V150.486z M214.203,204.375h-5.771v-5.324h5.771V204.375z M214.203,197.328h-5.771v-5.317h5.771V197.328z
		 M214.203,190.291h-5.771v-5.324h5.771V190.291z M214.203,183.244h-5.771v-5.324h5.771V183.244z"/>
	<path fill="#020202" d="M58.989,136.892c-0.44-1.151-0.889-2.327-1.344-3.519c-2.564-6.711-5.351-14.007-8.172-21.391
		c-0.345-0.902-0.69-1.805-1.03-2.695c-1.422-3.722-2.756-7.215-3.595-9.41c-0.496-1.298-1.95-1.948-3.249-1.452l-1.541,0.588
		l0.36,0.945c0.651,0.247,1.176,0.762,1.431,1.428c0.486,1.272-0.152,2.704-1.424,3.189c-1.272,0.485-2.703-0.154-3.191-1.426
		c-0.255-0.667-0.205-1.402,0.117-2.02l-0.36-0.945l-5.989,2.289l0.361,0.944c0.651,0.246,1.177,0.762,1.432,1.428
		c0.486,1.272-0.153,2.703-1.425,3.189c-1.272,0.486-2.702-0.155-3.188-1.427c-0.254-0.666-0.206-1.401,0.115-2.019l-0.361-0.944
		l-5.938,2.269l0.361,0.944c0.652,0.246,1.179,0.761,1.434,1.427c0.486,1.272-0.154,2.704-1.426,3.189
		c-1.273,0.486-2.703-0.155-3.189-1.427c-0.255-0.667-0.207-1.401,0.115-2.019l-0.361-0.944l-1.542,0.589
		c-1.298,0.496-1.947,1.95-1.452,3.248c0.839,2.195,2.173,5.688,3.595,9.41c0.34,0.89,0.685,1.793,1.03,2.695
		c2.821,7.384,5.608,14.68,8.172,21.391c0.455,1.191,0.904,2.367,1.344,3.519c0.147,0.385,0.285,0.748,0.411,1.078
		c0.248,0.647,0.741,1.17,1.373,1.452c0.634,0.283,1.351,0.304,1.999,0.058c5.453-2.084,18.577-7.099,24.032-9.182
		c0.646-0.247,1.169-0.741,1.451-1.373c0.282-0.632,0.303-1.351,0.055-2C59.274,137.638,59.136,137.276,58.989,136.892z
		 M54.75,140.039l-0.069,0.026c0,0-0.002,0-0.003,0.001c-4.385,1.675-14.937,5.706-19.321,7.381c0,0-0.001,0.001-0.003,0.002
		l-0.067,0.025c-1.044,0.398-2.214-0.126-2.613-1.168c-0.008-0.023-0.018-0.049-0.027-0.072c-0.102-0.266-0.213-0.557-0.331-0.867
		c-0.354-0.926-0.714-1.867-1.081-2.828c-0.475-1.242-0.959-2.511-1.451-3.798c-0.273-0.716-0.549-1.438-0.828-2.167
		c-1.393-3.646-2.836-7.424-4.292-11.232c-0.276-0.724-0.554-1.451-0.827-2.166c-0.507-1.329-1-2.619-1.451-3.799
		c-0.401-1.048-0.767-2.007-1.081-2.828c-0.118-0.309-0.229-0.6-0.331-0.866c-0.009-0.024-0.019-0.048-0.027-0.072
		c-0.399-1.044,0.124-2.213,1.168-2.612l0.067-0.026c0.002-0.001,0.004-0.001,0.004-0.001c4.384-1.675,14.935-5.706,19.32-7.381
		c0.002-0.001,0.003-0.001,0.003-0.001l0.069-0.026c1.042-0.398,2.212,0.124,2.611,1.168c0.009,0.023,0.018,0.047,0.027,0.072
		c0.102,0.266,0.213,0.558,0.331,0.866c0.313,0.821,0.68,1.78,1.081,2.828c0.451,1.181,0.943,2.471,1.452,3.8
		c0.273,0.715,0.55,1.441,0.827,2.166c1.455,3.808,2.899,7.588,4.292,11.232c0.278,0.729,0.554,1.451,0.828,2.167
		c0.492,1.287,0.977,2.556,1.451,3.798c0.367,0.959,0.727,1.902,1.081,2.828c0.119,0.311,0.229,0.601,0.331,0.867
		c0.009,0.024,0.019,0.049,0.028,0.072C56.315,138.47,55.792,139.641,54.75,140.039z"/>
	<path fill="#020202" d="M29.264,104.694c-0.363,0.43-0.488,1.042-0.273,1.605c0.315,0.826,1.245,1.24,2.069,0.926
		c0.827-0.315,1.241-1.244,0.926-2.069c-0.215-0.563-0.716-0.936-1.275-1.015l-1.166-3.05c-0.153-0.4-0.6-0.6-0.999-0.447
		c-0.399,0.152-0.6,0.599-0.447,1L29.264,104.694z"/>
	<path fill="#020202" d="M20.261,108.133c-0.365,0.431-0.488,1.042-0.273,1.605c0.315,0.826,1.243,1.241,2.069,0.926
		c0.826-0.315,1.24-1.244,0.924-2.069c-0.215-0.563-0.716-0.936-1.276-1.015l-1.166-3.05c-0.152-0.4-0.599-0.6-0.998-0.448
		c-0.4,0.153-0.6,0.599-0.447,1L20.261,108.133z"/>
	<path fill="#020202" d="M38.32,101.234c-0.365,0.431-0.49,1.042-0.275,1.606c0.317,0.825,1.245,1.241,2.071,0.925
		c0.826-0.316,1.239-1.244,0.923-2.069c-0.215-0.563-0.715-0.936-1.273-1.015l-1.165-3.051c-0.153-0.4-0.602-0.598-1-0.447
		c-0.4,0.153-0.6,0.6-0.447,1L38.32,101.234z"/>
	<path d="M236.814,75.133c0-2.327-2.13-4.214-4.755-4.214H50.257c-2.627,0-4.758,1.887-4.758,4.214v8.131
		c0,2.328,2.131,4.214,4.758,4.214h181.801c2.625,0,4.756-1.886,4.756-4.214V75.133z M221.271,80.184H61.042
		c-0.545,0-0.986-0.441-0.986-0.986c0-0.545,0.441-0.986,0.986-0.986h160.229c0.545,0,0.986,0.441,0.986,0.986
		C222.257,79.743,221.816,80.184,221.271,80.184z"/>
	<path d="M243.627,139.859l-0.892,2.403l-0.312,0.788c-0.188,0.453-0.384,0.899-0.599,1.333c-0.344,0.689-0.808,1.387-1.269,2.08
		c-0.69,1.042-1.403,2.12-1.785,3.256l-0.122,0.363l0.318,0.212c0.845,0.563,1.545,0.836,2.142,0.836
		c0.439,0,0.823-0.146,1.141-0.431c1.115-1.005,1.592-3.713,1.454-8.278L243.627,139.859z M241.916,150.328
		c-0.59,0.531-1.469,0.351-2.67-0.449c0.363-1.08,1.063-2.135,1.74-3.157c0.482-0.726,0.936-1.41,1.287-2.115
		c0.221-0.444,0.422-0.901,0.613-1.365c0.049-0.12,0.098-0.243,0.145-0.364c0.059-0.147,0.119-0.293,0.174-0.44
		C243.3,145.613,243.13,149.234,241.916,150.328z"/>
	<path d="M259.788,158.307c0.245,0.046,0.521,0.069,0.823,0.069c0.226,0,0.47-0.014,0.731-0.04l0.254-0.025l0.129-0.221
		c0.057-0.097,0.108-0.198,0.161-0.299l0.082-0.158c0.133-0.242,0.266-0.486,0.386-0.736c0.066-0.143,0.128-0.291,0.189-0.438
		l0.19-0.446c0.063-0.145,0.126-0.29,0.179-0.437c0.096-0.258,0.181-0.527,0.266-0.795l0.095-0.298
		c0.033-0.099,0.065-0.196,0.092-0.292c0.138-0.478,0.254-0.966,0.346-1.453c0.084-0.443,0.147-0.885,0.198-1.332
		c0.012-0.104,0.019-0.206,0.026-0.31l0.01-0.131c0.027-0.297,0.048-0.6,0.059-0.896c0.005-0.118,0.005-0.237,0.005-0.354
		l0.001-0.164c0.002-0.279-0.002-0.555-0.015-0.834c-0.009-0.18-0.02-0.358-0.033-0.528c-0.006-0.085-0.015-0.17-0.024-0.255
		l-0.146-1.448l-0.773,1.098c-3.722,5.289-5.115,8.314-4.52,9.812C258.695,157.879,259.116,158.178,259.788,158.307z
		 M263.427,147.871c0.012,0.117,0.027,0.233,0.035,0.351c0.014,0.172,0.024,0.346,0.033,0.521c0.012,0.268,0.016,0.534,0.014,0.805
		c-0.002,0.166,0.001,0.334-0.006,0.502c-0.01,0.291-0.03,0.584-0.057,0.871c-0.012,0.146-0.02,0.287-0.035,0.433
		c-0.049,0.433-0.111,0.862-0.192,1.293c-0.091,0.479-0.203,0.949-0.335,1.408c-0.045,0.161-0.104,0.319-0.153,0.481
		c-0.092,0.291-0.183,0.586-0.287,0.867c-0.077,0.213-0.174,0.416-0.26,0.623c-0.095,0.219-0.183,0.445-0.283,0.66
		c-0.114,0.238-0.243,0.475-0.371,0.709c-0.079,0.146-0.153,0.301-0.237,0.445c-0.562,0.057-1.035,0.047-1.414-0.023
		c-0.65-0.125-0.834-0.406-0.916-0.609C258.28,155.494,261.273,150.932,263.427,147.871z"/>
	<path fill="#FFFFFF" d="M264.893,124.142c-0.064-0.032-0.131-0.063-0.197-0.094l-0.087-0.042c-1.588-0.756-3.515-1.337-5.016-1.723
		c-0.216-0.129-0.458-0.218-0.712-0.258l-0.707-0.112l-0.494-0.079l-0.72-0.164l-0.705-0.159c-0.146-0.033-0.294-0.049-0.44-0.049
		c-0.156,0-0.312,0.018-0.462,0.054c-1.228-0.142-2.781-0.278-4.198-0.278c-0.27,0-0.533,0.005-0.787,0.015l-0.077,0.003
		l-0.143,0.006l-0.204,0.01c-0.088-0.003-0.176-0.004-0.263-0.004c-3.489,0-6.627,2.189-7.835,5.456
		c-0.982,2.189-1.13,4.651-1.285,7.256c-0.002,0.015-0.004,0.047-0.005,0.062c-0.072,1.199-0.146,2.416-0.309,3.46
		c-0.296,1.891-0.852,3.665-1.653,5.272c-0.237,0.477-0.618,1.05-1.022,1.656c-1.014,1.518-2.146,3.213-2.554,5.344
		c-0.901,4.713-0.207,8.979,2.007,12.337c2.231,3.383,5.858,5.639,10.49,6.524c0.908,0.175,1.844,0.264,2.775,0.264
		c5.533,0,10.768-3.055,14.068-8.188c0.221-0.222,0.387-0.493,0.484-0.793c0.239-0.415,0.462-0.832,0.664-1.243
		c0.005-0.011,0.031-0.065,0.036-0.076c0.231-0.467,0.469-1.014,0.692-1.593c0.014-0.034,0.027-0.07,0.038-0.101
		c0.196-0.51,0.385-1.077,0.548-1.651c0.012-0.04,0.022-0.081,0.032-0.121c0.151-0.539,0.291-1.131,0.402-1.714
		c0.379-1.971,0.471-3.974,0.273-5.96l0.632-1.606l0.024-0.064c0.034-0.088,0.067-0.177,0.098-0.268l0.04-0.105
		c0.009-0.022,0.017-0.046,0.024-0.068l0.011-0.034c1.558-4.183,2.246-8.726,1.993-13.147
		C270.429,128.635,268.202,125.364,264.893,124.142z M266.473,144.645l-0.022,0.067l-0.054,0.144
		c-0.028,0.089-0.063,0.176-0.097,0.263l-0.813,2.068c0.242,1.941,0.179,3.911-0.194,5.854c-0.101,0.524-0.228,1.065-0.379,1.606
		l-0.002,0.008l-0.003,0.015l-0.006,0.018c-0.146,0.516-0.317,1.035-0.51,1.535l-0.011,0.031l-0.006,0.014
		c-0.194,0.506-0.412,1.012-0.643,1.479l-0.016,0.033l-0.006,0.012c-0.229,0.467-0.478,0.92-0.73,1.347l-0.041,0.161l-0.098,0.064
		c-2.922,4.721-7.604,7.535-12.553,7.535c-0.802,0-1.609-0.076-2.4-0.229c-4.088-0.781-7.27-2.74-9.195-5.66
		c-1.922-2.916-2.514-6.67-1.713-10.859c0.332-1.73,1.301-3.184,2.238-4.588c0.445-0.669,0.867-1.301,1.164-1.896
		c0.893-1.791,1.512-3.761,1.84-5.857c0.178-1.144,0.254-2.417,0.328-3.647l0.004-0.047c0.146-2.45,0.283-4.763,1.143-6.634
		c0.902-2.521,3.301-4.213,5.982-4.213c0.09,0,0.182,0.002,0.271,0.006c0.141-0.008,0.28-0.013,0.42-0.019l0.071-0.003
		c0.229-0.009,0.468-0.013,0.711-0.013c1.601,0,3.41,0.189,4.636,0.346l0.024-0.122l0.701,0.158l0.784,0.179l0.562,0.089
		l0.707,0.112l-0.019,0.083c1.423,0.346,3.535,0.936,5.199,1.729l0.101,0.048c0.088,0.041,0.174,0.082,0.26,0.125
		c2.599,0.914,4.334,3.458,4.24,6.21C268.602,136.382,267.953,140.685,266.473,144.645z"/>
	<path d="M243.031,142.876c-0.047,0.121-0.096,0.244-0.145,0.364c-0.191,0.464-0.393,0.921-0.613,1.365
		c-0.352,0.705-0.805,1.39-1.287,2.115c-0.677,1.022-1.377,2.077-1.74,3.157c1.201,0.8,2.08,0.98,2.67,0.449
		c1.215-1.094,1.385-4.715,1.289-7.892C243.15,142.583,243.089,142.729,243.031,142.876z"/>
	<path d="M259.878,157.816c0.379,0.07,0.853,0.08,1.414,0.023c0.084-0.145,0.158-0.299,0.237-0.445
		c0.128-0.234,0.257-0.471,0.371-0.709c0.101-0.215,0.188-0.441,0.283-0.66c0.086-0.207,0.183-0.41,0.26-0.623
		c0.104-0.281,0.195-0.576,0.287-0.867c0.049-0.162,0.108-0.32,0.153-0.481c0.132-0.459,0.244-0.929,0.335-1.408
		c0.081-0.431,0.144-0.86,0.192-1.293c0.016-0.146,0.023-0.287,0.035-0.433c0.026-0.287,0.047-0.58,0.057-0.871
		c0.007-0.168,0.004-0.336,0.006-0.502c0.002-0.271-0.002-0.537-0.014-0.805c-0.009-0.175-0.02-0.349-0.033-0.521
		c-0.008-0.117-0.023-0.233-0.035-0.351c-2.154,3.062-5.147,7.623-4.465,9.336C259.044,157.41,259.228,157.691,259.878,157.816z"/>
</g>
</svg>
