<?xml version="1.0" encoding="utf-8"?>
<!-- Generator: Adobe Illustrator 15.1.0, SVG Export Plug-In . SVG Version: 6.00 Build 0)  -->
<!DOCTYPE svg PUBLIC "-//W3C//DTD SVG 1.1//EN" "http://www.w3.org/Graphics/SVG/1.1/DTD/svg11.dtd">
<svg version="1.1" id="Capa_1" xmlns="http://www.w3.org/2000/svg" xmlns:xlink="http://www.w3.org/1999/xlink" x="0px" y="0px"
	 width="283.46px" height="283.46px" viewBox="0 0 283.46 283.46" enable-background="new 0 0 283.46 283.46" xml:space="preserve">
<g>
	<path d="M199.954,248.911h-44.031L70.437,159c2.356-2.867,3.773-6.533,3.773-10.523c0-4.614-1.895-8.791-4.942-11.804L129.623,69
		l5.43,5.43l47.051-47.05L164.659,9.935c-1.837-1.838-4.296-2.851-6.922-2.851c-2.706,0-5.26,1.064-7.194,2.997l-32.787,32.79
		c-3.929,3.931-3.996,10.262-0.147,14.114l2.624,2.623l-64.551,72.38c-8.254,0.957-14.685,7.98-14.685,16.486
		c0,9.156,7.449,16.606,16.605,16.606c0.104,0,0.206-0.015,0.31-0.016l79.717,83.845H94.547c-2.745,0-4.972,2.225-4.972,4.971
		v17.522c0,2.745,2.227,4.972,4.972,4.972h105.406c2.746,0,4.972-2.227,4.972-4.972v-17.521
		C204.925,251.137,202.7,248.911,199.954,248.911z"/>
	<path d="M242.377,58.387c-0.304-1.614-1.387-2.976-2.892-3.634l-45.914-20.092l-51.238,51.235l20.094,45.916
		c0.658,1.505,2.02,2.588,3.634,2.893c0.307,0.058,0.614,0.086,0.92,0.086c1.307,0,2.576-0.516,3.516-1.456l70.512-70.513
		C242.169,61.663,242.682,60,242.377,58.387z"/>
	<path d="M196.578,126.917c2.894,1.152,6.019,1.725,9.212,1.725c7.451,0,15.268-3.105,21.344-9.181
		c8.68-8.679,11.293-20.907,7.455-30.554L196.578,126.917z"/>
</g>
</svg>
