<?xml version="1.0" encoding="utf-8"?>
<!-- Generator: Adobe Illustrator 15.1.0, SVG Export Plug-In . SVG Version: 6.00 Build 0)  -->
<!DOCTYPE svg PUBLIC "-//W3C//DTD SVG 1.1//EN" "http://www.w3.org/Graphics/SVG/1.1/DTD/svg11.dtd">
<svg version="1.1" id="Layer_1" xmlns="http://www.w3.org/2000/svg" xmlns:xlink="http://www.w3.org/1999/xlink" x="0px" y="0px"
	 width="283.465px" height="283.465px" viewBox="0 0 283.465 283.465" enable-background="new 0 0 283.465 283.465"
	 xml:space="preserve">
<g>
	<path d="M272.977,98.417c-0.59-0.966-1.488-1.677-2.519-2.04v5.968l-66.187,122.875H16.114v-37.865c0,0,160.66,0,184.494,0
		c3.547,0,6.789-1.965,8.42-5.109c10.115-19.439,46.365-89.128,61.271-117.79c1.369-2.643,1.27-5.805-0.27-8.353
		c-1.551-2.539-4.305-4.095-7.287-4.095c-27.406,0-157.938,0-176.744,0c-3.561,0-6.833,1.985-8.479,5.147L10.285,186.416
		c-0.321,0.615-0.489,1.305-0.489,2.01c0,3.68,0,31.955,0,38.635c0,1.17,0.463,2.285,1.291,3.108
		c0.824,0.825,1.942,1.288,3.113,1.288c20.12,0,173.967,0,189.616,0c1.564,0,3.009-0.87,3.736-2.266
		c7.824-15.055,52.428-100.792,65.572-126.071C273.9,101.634,273.848,99.849,272.977,98.417z M180.57,72.972l32.662,0.269l-9,8.991
		l-39.483,35.658l27.478,0.035l-2.97,9.053l-41.872,0.001l6.053-9.84l39.196-34.888l-16.823-0.143L180.57,72.972z M155.021,112.566
		l-17.479-0.037l7.552-10.384l16.133,0.063L155.021,112.566z M142.186,72.546l7.068,0.079l-26.9,54.354h-11.32l6.485-12.339
		l-18.853-0.033l-16.988,12.372H70.639L142.186,72.546z"/>
	<polygon points="134.711,85.274 110.595,105.439 122.598,105.479 	"/>
	<path d="M20.083,199.387h183.749c0.154,0,0.311-0.039,0.461-0.119l0.104-0.063c0.086-0.062,0.16-0.134,0.227-0.216l0.044-0.036
		l66.297-122.04c0.125-0.236,0.153-0.507,0.077-0.763s-0.247-0.467-0.48-0.594c-0.467-0.256-1.103-0.068-1.354,0.4l-65.968,121.432
		H20.083c-0.551,0-1,0.448-1,1C19.083,198.939,19.532,199.387,20.083,199.387z"/>
	<path d="M20.083,207.891h183.749c0.154,0,0.311-0.039,0.461-0.119l0.104-0.063c0.086-0.062,0.16-0.131,0.227-0.214l0.044-0.038
		l66.297-122.04c0.125-0.236,0.153-0.507,0.077-0.763c-0.076-0.256-0.247-0.467-0.482-0.595c-0.466-0.254-1.103-0.065-1.354,0.401
		l-65.967,121.432H20.083c-0.551,0-1,0.448-1,1C19.083,207.443,19.532,207.891,20.083,207.891z"/>
	<path d="M20.083,216.395h183.749c0.154,0,0.311-0.039,0.461-0.119l0.104-0.063c0.086-0.062,0.16-0.131,0.227-0.214l0.044-0.038
		l66.297-122.04c0.128-0.235,0.156-0.505,0.08-0.762c-0.079-0.257-0.25-0.469-0.483-0.595c-0.467-0.255-1.104-0.067-1.354,0.4
		l-65.968,121.432H20.083c-0.551,0-1,0.449-1,1C19.083,215.947,19.532,216.395,20.083,216.395z"/>
</g>
</svg>
