<?xml version="1.0" encoding="utf-8"?>
<!-- Generator: Adobe Illustrator 15.1.0, SVG Export Plug-In . SVG Version: 6.00 Build 0)  -->
<!DOCTYPE svg PUBLIC "-//W3C//DTD SVG 1.1//EN" "http://www.w3.org/Graphics/SVG/1.1/DTD/svg11.dtd">
<svg version="1.1" id="Layer_2" xmlns="http://www.w3.org/2000/svg" xmlns:xlink="http://www.w3.org/1999/xlink" x="0px" y="0px"
	 width="283.46px" height="283.46px" viewBox="0 0 283.46 283.46" enable-background="new 0 0 283.46 283.46" xml:space="preserve">
<g>
	<path fill="none" d="M224.278,10.969H42.448v120.158h181.83V10.969z M205.119,102.398h-37.391V33.932h37.391V102.398z"/>
	<path fill="none" d="M240.623,145.615H42.837c-3.041,0-5.506,2.465-5.506,5.506v96.785c0,3.041,2.465,5.506,5.506,5.506h197.786
		c3.041,0,5.508-2.465,5.508-5.506v-96.785C246.13,148.08,243.664,145.615,240.623,145.615z M68.914,169.894H214.55
		c4.773,0,8.644,2.543,8.644,5.672c0,3.13-3.873,5.668-8.644,5.668H68.914c-4.775,0-8.647-2.541-8.647-5.668
		S64.141,169.894,68.914,169.894z M214.552,222.841H68.914c-4.774,0-8.648-2.538-8.648-5.668c0-3.131,3.874-5.672,8.648-5.672
		h145.638c4.771,0,8.646,2.543,8.644,5.672C223.196,220.303,219.323,222.841,214.552,222.841z"/>
	<path fill="#231F20" d="M275.732,81.803L227.521,8.828c-0.721-1.088-1.938-1.743-3.242-1.743H15.767
		c-4.787,0-8.683,4.271-8.683,9.522v250.247c0,5.25,3.896,9.521,8.683,9.521h251.927c4.787,0,8.683-4.271,8.683-9.521V83.945
		C276.376,83.183,276.152,82.438,275.732,81.803z M42.448,10.969h181.83v120.158H42.448V10.969z M246.13,247.906
		c0,3.041-2.467,5.506-5.508,5.506H42.837c-3.041,0-5.506-2.465-5.506-5.506v-96.785c0-3.041,2.465-5.506,5.506-5.506h197.786
		c3.041,0,5.508,2.465,5.508,5.506V247.906z"/>
	<rect x="167.728" y="33.932" fill="#231F20" width="37.391" height="68.466"/>
	<path fill="#231F20" d="M214.552,211.501H68.914c-4.774,0-8.648,2.541-8.648,5.672c0,3.13,3.874,5.668,8.648,5.668h145.638
		c4.771,0,8.644-2.538,8.644-5.668C223.199,214.044,219.324,211.501,214.552,211.501z"/>
	<path fill="#231F20" d="M68.914,181.234H214.55c4.771,0,8.644-2.538,8.644-5.668c0-3.129-3.87-5.672-8.644-5.672H68.914
		c-4.773,0-8.647,2.545-8.647,5.672S64.139,181.234,68.914,181.234z"/>
</g>
</svg>
