<?xml version="1.0" encoding="utf-8"?>
<!-- Generator: Adobe Illustrator 15.1.0, SVG Export Plug-In . SVG Version: 6.00 Build 0)  -->
<!DOCTYPE svg PUBLIC "-//W3C//DTD SVG 1.1//EN" "http://www.w3.org/Graphics/SVG/1.1/DTD/svg11.dtd">
<svg version="1.1" id="Layer_4" xmlns="http://www.w3.org/2000/svg" xmlns:xlink="http://www.w3.org/1999/xlink" x="0px" y="0px"
	 width="283.46px" height="283.46px" viewBox="0 0 283.46 283.46" enable-background="new 0 0 283.46 283.46" xml:space="preserve">
<g>
	<path d="M275.732,81.803L227.521,8.828c-0.72-1.088-1.937-1.743-3.242-1.743H15.767c-4.787,0-8.683,4.271-8.683,9.522v250.247
		c0,5.25,3.896,9.521,8.683,9.521h251.927c4.787,0,8.683-4.271,8.683-9.521V83.945C276.376,83.183,276.152,82.438,275.732,81.803z
		 M42.448,10.969h181.83v120.158H42.448V10.969z M246.13,247.906c0,3.041-2.466,5.506-5.507,5.506H42.837
		c-3.041,0-5.506-2.465-5.506-5.506v-96.785c0-3.041,2.465-5.506,5.506-5.506h197.786c3.041,0,5.507,2.465,5.507,5.506V247.906z"/>
	<rect x="167.728" y="33.932" fill="#231F20" width="37.39" height="68.466"/>
	<path fill="#010101" d="M214.552,211.502H68.914c-4.774,0-8.648,2.541-8.648,5.672c0,3.129,3.874,5.668,8.648,5.668h145.638
		c4.771,0,8.644-2.539,8.644-5.668C223.199,214.045,219.324,211.502,214.552,211.502z"/>
	<path fill="#010101" d="M68.914,181.234H214.55c4.771,0,8.644-2.538,8.644-5.668c0-3.129-3.87-5.672-8.644-5.672H68.914
		c-4.773,0-8.647,2.545-8.647,5.672S64.139,181.234,68.914,181.234z"/>
</g>
</svg>
