<?xml version="1.0" encoding="utf-8"?>
<!-- Generator: Adobe Illustrator 15.1.0, SVG Export Plug-In . SVG Version: 6.00 Build 0)  -->
<!DOCTYPE svg PUBLIC "-//W3C//DTD SVG 1.1//EN" "http://www.w3.org/Graphics/SVG/1.1/DTD/svg11.dtd">
<svg version="1.1" id="Layer_4" xmlns="http://www.w3.org/2000/svg" xmlns:xlink="http://www.w3.org/1999/xlink" x="0px" y="0px"
	 width="283.465px" height="283.465px" viewBox="0 0 283.465 283.465" enable-background="new 0 0 283.465 283.465"
	 xml:space="preserve">
<g>
	<path d="M54.132,14.482h119.263l-5.011-5.009c-1.532-1.526-3.603-2.386-5.764-2.386H33.614c-4.5,0-8.145,3.65-8.145,8.147v227.354
		c0,4.497,3.645,8.145,8.145,8.145h6.944V28.058C40.56,20.572,46.647,14.482,54.132,14.482z"/>
	<path d="M61.076,40.881c0-7.486,6.089-13.576,13.573-13.576H193.91l-5.008-5.008c-1.534-1.526-3.605-2.386-5.766-2.386H54.132
		c-4.5,0-8.145,3.65-8.145,8.147v227.354c0,4.497,3.645,8.145,8.145,8.145l0,0h6.943L61.076,40.881L61.076,40.881z"/>
	<path d="M209.418,35.12c-1.531-1.526-3.604-2.386-5.764-2.386H74.649c-4.5,0-8.146,3.65-8.146,8.147v227.354
		c0,4.496,3.646,8.144,8.146,8.144h175.202c4.498,0,8.144-3.646,8.144-8.144V87.074c0-2.16-0.858-4.23-2.379-5.757L209.418,35.12z
		 M105.896,236.484c-3.746,0-6.786-2.369-6.786-5.287s3.04-5.28,6.786-5.28h114.248c3.742,0,6.783,2.364,6.779,5.28
		c0,2.914-3.035,5.287-6.779,5.287H105.896z M180.13,86.648h-77.274c-2.917,0-5.287-2.37-5.286-5.284
		c0-2.914,2.369-5.285,5.284-5.285h77.276c2.911,0,5.289,2.372,5.289,5.285C185.419,84.278,183.041,86.648,180.13,86.648z
		 M220.145,197.675H105.896c-3.746,0-6.786-2.366-6.786-5.276c0-2.918,3.04-5.283,6.786-5.283h114.248
		c3.744,0,6.783,2.367,6.779,5.283C226.925,195.311,223.889,197.675,220.145,197.675z M220.145,159.1H105.896
		c-3.746,0-6.786-2.365-6.786-5.281s3.04-5.282,6.786-5.282h114.248c3.744,0,6.783,2.368,6.779,5.282
		C226.925,156.732,223.889,159.1,220.145,159.1z M220.145,120.336H105.896c-3.746,0-6.784-2.367-6.784-5.28
		c0-2.914,3.039-5.286,6.784-5.284h114.248c3.744,0,6.779,2.368,6.779,5.284C226.925,117.972,223.889,120.336,220.145,120.336z
		 M205.572,85.132l-0.068-39.123l40.987,39.123H205.572z"/>
</g>
</svg>
