<?xml version="1.0" encoding="utf-8"?>
<!-- Generator: Adobe Illustrator 15.1.0, SVG Export Plug-In . SVG Version: 6.00 Build 0)  -->
<!DOCTYPE svg PUBLIC "-//W3C//DTD SVG 1.1//EN" "http://www.w3.org/Graphics/SVG/1.1/DTD/svg11.dtd">
<svg version="1.1" id="Layer_2" xmlns="http://www.w3.org/2000/svg" xmlns:xlink="http://www.w3.org/1999/xlink" x="0px" y="0px"
	 width="283.465px" height="283.465px" viewBox="0 0 283.465 283.465" enable-background="new 0 0 283.465 283.465"
	 xml:space="preserve">
<g>
	<polygon fill="none" points="189.616,65.001 234.841,65.001 189.541,21.76 	"/>
	<path d="M244.928,60.783L193.867,9.724c-1.694-1.687-3.983-2.637-6.371-2.637H44.911c-4.973,0-9.002,4.034-9.002,9.005v251.285
		c0,4.971,4.029,9.001,9.002,9.001h193.646c4.973,0,9-4.03,9-9.001V67.146C247.557,64.76,246.607,62.47,244.928,60.783z
		 M76.083,54.995h85.411c3.218,0,5.846,2.621,5.846,5.841c0,3.22-2.628,5.84-5.846,5.84H76.085c-3.224,0-5.843-2.62-5.842-5.84
		C70.243,57.615,72.861,54.995,76.083,54.995z M205.723,232.285H79.447c-4.141,0-7.499-2.618-7.499-5.844s3.359-5.836,7.499-5.836
		h126.276c4.137,0,7.498,2.613,7.494,5.836C213.217,229.663,209.861,232.285,205.723,232.285z M205.723,189.391H79.447
		c-4.141,0-7.499-2.615-7.499-5.834c0-3.225,3.359-5.84,7.499-5.84h126.276c4.139,0,7.498,2.617,7.494,5.84
		C213.217,186.777,209.859,189.391,205.723,189.391z M205.723,146.754H79.447c-4.141,0-7.499-2.615-7.499-5.837
		c0-3.223,3.359-5.84,7.499-5.84h126.276c4.139,0,7.498,2.618,7.494,5.84C213.217,144.139,209.859,146.754,205.723,146.754z
		 M205.723,103.91H79.448c-4.141,0-7.499-2.616-7.499-5.836c0-3.22,3.359-5.841,7.498-5.84h126.276c4.139,0,7.494,2.618,7.494,5.84
		C213.217,101.297,209.859,103.91,205.723,103.91z M189.616,65.001l-0.075-43.241l45.3,43.241H189.616z"/>
</g>
</svg>
