<?xml version="1.0" encoding="utf-8"?>
<!-- Generator: Adobe Illustrator 15.1.0, SVG Export Plug-In . SVG Version: 6.00 Build 0)  -->
<!DOCTYPE svg PUBLIC "-//W3C//DTD SVG 1.0//EN" "http://www.w3.org/TR/2001/REC-SVG-20010904/DTD/svg10.dtd">
<svg version="1.0" id="Layer_3" xmlns="http://www.w3.org/2000/svg" xmlns:xlink="http://www.w3.org/1999/xlink" x="0px" y="0px"
	 width="283.465px" height="283.465px" viewBox="0 0 283.465 283.465" enable-background="new 0 0 283.465 283.465"
	 xml:space="preserve">
<g>
	<path fill="none" d="M191.549,19.655c-0.552-0.526-1.273-0.804-2.009-0.804c-0.387,0-0.776,0.077-1.146,0.235
		c-1.07,0.459-1.764,1.513-1.762,2.678v0.001c-0.002-1.165,0.691-2.219,1.762-2.678c0.369-0.158,0.761-0.235,1.146-0.235
		c0.735,0,1.457,0.278,2.009,0.805l45.299,43.242c0.538,0.513,0.847,1.198,0.895,1.909c-0.048-0.711-0.356-1.397-0.895-1.911
		L191.549,19.655z"/>
	<polygon fill="none" points="189.616,65.001 234.841,65.001 189.541,21.76 	"/>
	<path d="M244.927,60.783l-51.06-51.059c-1.694-1.687-3.983-2.637-6.371-2.637H44.911c-4.973,0-9.002,4.034-9.002,9.005v251.285
		c0,4.97,4.029,9.001,9.002,9.001h193.645c4.973,0,9.001-4.031,9.001-9.001V67.146C247.557,64.76,246.607,62.47,244.927,60.783z
		 M189.616,65.001l-0.075-43.241l45.3,43.241H189.616z M76.083,54.995h85.411c3.218,0,5.846,2.621,5.846,5.841
		s-2.628,5.84-5.846,5.84H76.085c-3.224,0-5.843-2.62-5.842-5.84C70.243,57.615,72.861,54.995,76.083,54.995z M205.722,189.39
		H79.447c-4.141,0-7.499-2.614-7.499-5.834c0-3.224,3.359-5.839,7.499-5.839h126.275c4.139,0,7.499,2.617,7.495,5.839
		C213.217,186.778,209.86,189.39,205.722,189.39z M213.217,226.442c0,3.221-3.356,5.843-7.495,5.843H79.447
		c-4.141,0-7.499-2.618-7.499-5.843s3.359-5.837,7.499-5.837h126.275C209.86,220.605,213.221,223.218,213.217,226.442z
		 M205.722,146.754H79.447c-4.141,0-7.499-2.615-7.499-5.837c0-3.223,3.359-5.84,7.499-5.84h126.275c4.139,0,7.499,2.618,7.495,5.84
		C213.217,144.139,209.86,146.754,205.722,146.754z M205.723,103.91H79.448c-4.141,0-7.499-2.616-7.499-5.836
		s3.359-5.841,7.498-5.84h126.276c4.138,0,7.494,2.618,7.494,5.84C213.217,101.297,209.86,103.91,205.723,103.91z M237.742,64.808
		c-0.048-0.711-0.356-1.396-0.895-1.909l-45.299-43.242c-0.552-0.527-1.273-0.805-2.009-0.805c-0.385,0-0.776,0.078-1.146,0.235
		c-1.07,0.459-1.764,1.513-1.762,2.678v-0.001c-0.002-1.165,0.691-2.219,1.762-2.678c0.369-0.158,0.759-0.235,1.146-0.235
		c0.735,0,1.457,0.278,2.009,0.804l45.299,43.242C237.386,63.411,237.694,64.096,237.742,64.808z"/>
</g>
</svg>
