<?xml version="1.0" encoding="utf-8"?>
<!-- Generator: Adobe Illustrator 15.1.0, SVG Export Plug-In . SVG Version: 6.00 Build 0)  -->
<!DOCTYPE svg PUBLIC "-//W3C//DTD SVG 1.0//EN" "http://www.w3.org/TR/2001/REC-SVG-20010904/DTD/svg10.dtd">
<svg version="1.0" id="Layer_2" xmlns="http://www.w3.org/2000/svg" xmlns:xlink="http://www.w3.org/1999/xlink" x="0px" y="0px"
	 width="283.465px" height="283.465px" viewBox="0 0 283.465 283.465" enable-background="new 0 0 283.465 283.465"
	 xml:space="preserve">
<g>
	<path fill="none" d="M181.913,64.79V21.409H51.14v240.649h181.189v-0.002h0.002V71.821h-43.39
		C185.059,71.821,181.913,68.674,181.913,64.79z M74.01,52.256h88.108c3.319,0,6.03,2.703,6.03,6.025
		c0,3.322-2.711,6.024-6.03,6.024H74.012c-3.326,0-6.027-2.702-6.026-6.024C67.986,54.959,70.686,52.256,74.01,52.256z
		 M207.742,235.145H77.48c-4.272,0-7.736-2.703-7.736-6.028s3.465-6.021,7.736-6.021h130.262c4.27,0,7.736,2.695,7.732,6.021
		C215.475,232.439,212.012,235.145,207.742,235.145z M207.742,190.895H77.48c-4.272,0-7.736-2.697-7.736-6.019
		c0-3.325,3.465-6.022,7.736-6.022h130.262c4.27,0,7.736,2.699,7.732,6.022C215.475,188.2,212.012,190.895,207.742,190.895z
		 M207.742,146.912H77.48c-4.272,0-7.736-2.697-7.736-6.021c0-3.324,3.465-6.024,7.736-6.024h130.262
		c4.27,0,7.736,2.701,7.732,6.024C215.475,144.215,212.012,146.912,207.742,146.912z M215.475,96.695
		c0,3.325-3.463,6.021-7.731,6.021H77.481c-4.272,0-7.736-2.699-7.736-6.021c0-3.322,3.465-6.025,7.735-6.024h130.263
		C212.012,90.671,215.475,93.371,215.475,96.695z"/>
	<path d="M248.186,58.227L195.514,5.556c-1.748-1.74-4.109-2.72-6.572-2.72H41.853c-5.13,0-9.286,4.161-9.286,9.29v259.22
		c0,5.127,4.156,9.285,9.286,9.285h199.76c5.13,0,9.285-4.158,9.285-9.285V64.791C250.898,62.329,249.919,59.967,248.186,58.227z
		 M232.331,262.057h-0.002v0.002H51.14V21.409h130.773V64.79c0,3.884,3.146,7.031,7.028,7.031h43.39V262.057z M240.566,63.694
		c-0.456,1.138-1.559,1.884-2.785,1.884h-46.653c-1.655,0-2.997-1.34-3-2.995l-0.077-44.607c-0.002-1.202,0.713-2.289,1.817-2.763
		c0.381-0.163,0.783-0.243,1.182-0.243c0.758,0,1.503,0.287,2.072,0.83l46.73,44.607C240.739,61.255,241.022,62.556,240.566,63.694z
		"/>
	<path d="M74.012,64.305h88.106c3.319,0,6.03-2.702,6.03-6.024c0-3.322-2.711-6.025-6.03-6.025H74.01
		c-3.324,0-6.024,2.703-6.024,6.025C67.985,61.603,70.686,64.305,74.012,64.305z"/>
	<path d="M69.745,96.695c0,3.322,3.464,6.021,7.736,6.021h130.262c4.269,0,7.731-2.696,7.731-6.021c0-3.324-3.463-6.024-7.731-6.024
		H77.48C73.21,90.67,69.745,93.373,69.745,96.695z"/>
	<path d="M207.742,134.867H77.48c-4.271,0-7.736,2.7-7.736,6.024c0,3.324,3.464,6.021,7.736,6.021h130.262
		c4.27,0,7.732-2.697,7.732-6.021C215.479,137.568,212.012,134.867,207.742,134.867z"/>
	<path d="M207.742,178.854H77.48c-4.271,0-7.736,2.697-7.736,6.022c0,3.321,3.464,6.019,7.736,6.019h130.262
		c4.27,0,7.732-2.694,7.732-6.019C215.479,181.553,212.012,178.854,207.742,178.854z"/>
	<path d="M207.742,223.096H77.48c-4.271,0-7.736,2.695-7.736,6.021s3.464,6.028,7.736,6.028h130.262c4.27,0,7.732-2.705,7.732-6.028
		C215.479,225.791,212.012,223.096,207.742,223.096z"/>
	<path d="M193.122,15.801c-0.569-0.543-1.314-0.83-2.072-0.83c-0.398,0-0.801,0.08-1.182,0.243
		c-1.104,0.474-1.819,1.561-1.817,2.763l0.077,44.607c0.003,1.655,1.345,2.995,3,2.995h46.653c1.227,0,2.329-0.746,2.785-1.884
		s0.173-2.439-0.714-3.286L193.122,15.801z M191.128,62.578l-0.077-44.607l46.73,44.607H191.128z"/>
</g>
</svg>
