<?xml version="1.0" encoding="utf-8"?>
<!-- Generator: Adobe Illustrator 15.1.0, SVG Export Plug-In . SVG Version: 6.00 Build 0)  -->
<!DOCTYPE svg PUBLIC "-//W3C//DTD SVG 1.1//EN" "http://www.w3.org/Graphics/SVG/1.1/DTD/svg11.dtd">
<svg version="1.1" id="Layer_1" xmlns="http://www.w3.org/2000/svg" xmlns:xlink="http://www.w3.org/1999/xlink" x="0px" y="0px"
	 width="283.465px" height="283.465px" viewBox="0 0 283.465 283.465" enable-background="new 0 0 283.465 283.465"
	 xml:space="preserve">
<path fill-rule="evenodd" clip-rule="evenodd" d="M194.887,141.792l-87.775,53.375V88.417L194.887,141.792z M141.625,40.808
	c55.735,0,100.985,45.25,100.985,100.984c0,55.735-45.25,100.984-100.985,100.984c-55.735,0-100.984-45.249-100.984-100.984
	C40.641,86.057,85.89,40.808,141.625,40.808z M141.625,7.146c74.313,0,134.646,60.333,134.646,134.645
	c0,74.313-60.333,134.646-134.646,134.646c-74.313,0-134.646-60.333-134.646-134.646C6.979,67.479,67.312,7.146,141.625,7.146z"/>
</svg>
