<?xml version="1.0" encoding="utf-8"?>
<!-- Generator: Adobe Illustrator 15.1.0, SVG Export Plug-In . SVG Version: 6.00 Build 0)  -->
<!DOCTYPE svg PUBLIC "-//W3C//DTD SVG 1.1//EN" "http://www.w3.org/Graphics/SVG/1.1/DTD/svg11.dtd">
<svg version="1.1" id="Layer_5" xmlns="http://www.w3.org/2000/svg" xmlns:xlink="http://www.w3.org/1999/xlink" x="0px" y="0px"
	 width="283.46px" height="283.46px" viewBox="0 0 283.46 283.46" enable-background="new 0 0 283.46 283.46" xml:space="preserve">
<g>
	<path fill="#231F20" d="M222.232,94.474h-30.08c-2.27,0-4.109,1.841-4.109,4.111v9.142c0,2.27,1.84,4.11,4.109,4.11h30.08
		c5.424,0,10.005,3.202,10.005,6.993v133.188c0,3.792-4.581,6.994-10.005,6.994H61.229c-5.424,0-10.006-3.202-10.006-6.994V118.831
		c0-3.791,4.582-6.993,10.006-6.993h30.08c2.271,0,4.11-1.841,4.11-4.11v-9.142c0-2.271-1.84-4.111-4.11-4.111h-30.08
		c-16.458,0-29.848,10.927-29.848,24.356v133.188c0,13.432,13.39,24.355,29.848,24.355h161.003
		c16.457,0,29.848-10.926,29.848-24.355V118.831C252.08,105.401,238.689,94.474,222.232,94.474z"/>
	<path fill="#231F20" d="M101.295,134.005l32.319,52.336c0.03,0.046,0.064,0.087,0.093,0.134c0.057,0.089,0.111,0.179,0.171,0.265
		c0.067,0.099,0.141,0.195,0.212,0.293c0.062,0.08,0.123,0.158,0.186,0.236c0.052,0.066,0.103,0.133,0.158,0.197
		c0.079,0.093,0.162,0.186,0.246,0.277c0.075,0.084,0.15,0.164,0.229,0.244c0.052,0.056,0.105,0.107,0.159,0.161
		c0.085,0.081,0.17,0.161,0.256,0.24c0.088,0.08,0.177,0.158,0.267,0.233c0.065,0.056,0.132,0.106,0.197,0.16
		c0.084,0.064,0.165,0.129,0.25,0.191c0.092,0.069,0.184,0.139,0.28,0.203c0.087,0.061,0.176,0.115,0.265,0.173
		c0.048,0.03,0.089,0.065,0.137,0.095c0.034,0.021,0.072,0.039,0.107,0.06c0.086,0.05,0.172,0.102,0.258,0.149
		c0.109,0.063,0.22,0.116,0.331,0.174c0.09,0.045,0.18,0.093,0.272,0.136c0.068,0.03,0.136,0.063,0.205,0.094
		c0.121,0.054,0.245,0.101,0.37,0.149c0.104,0.041,0.21,0.082,0.316,0.121c0.055,0.019,0.11,0.037,0.167,0.057
		c0.126,0.041,0.254,0.078,0.382,0.113c0.118,0.033,0.235,0.068,0.353,0.097c0.055,0.015,0.11,0.024,0.167,0.037
		c0.122,0.028,0.247,0.051,0.373,0.073c0.12,0.022,0.24,0.047,0.361,0.063c0.069,0.009,0.141,0.015,0.211,0.022
		c0.116,0.015,0.231,0.027,0.346,0.035c0.115,0.01,0.229,0.021,0.343,0.027c0.095,0.006,0.191,0.003,0.286,0.006
		c0.056,0,0.109,0.008,0.164,0.008c0.055,0,0.109-0.008,0.164-0.008c0.096-0.003,0.192,0,0.285-0.006
		c0.115-0.006,0.23-0.017,0.344-0.027c0.117-0.01,0.232-0.021,0.346-0.035c0.069-0.006,0.142-0.012,0.211-0.022
		c0.121-0.017,0.242-0.042,0.362-0.063c0.126-0.022,0.249-0.045,0.373-0.073c0.056-0.013,0.111-0.022,0.167-0.037
		c0.117-0.029,0.235-0.063,0.352-0.095c0.129-0.037,0.258-0.075,0.383-0.116c0.058-0.019,0.113-0.037,0.168-0.056
		c0.105-0.037,0.211-0.08,0.316-0.121c0.123-0.047,0.25-0.096,0.37-0.15c0.068-0.029,0.136-0.061,0.203-0.093
		c0.091-0.042,0.181-0.091,0.271-0.136c0.111-0.058,0.226-0.111,0.332-0.174c0.086-0.047,0.17-0.099,0.254-0.148
		c0.035-0.021,0.072-0.039,0.109-0.061c0.066-0.041,0.129-0.089,0.194-0.13c0.069-0.047,0.142-0.092,0.208-0.14
		c0.057-0.038,0.113-0.075,0.168-0.115c0.167-0.119,0.328-0.242,0.484-0.372c0,0,0.004-0.002,0.004-0.004
		c0.035-0.028,0.066-0.06,0.102-0.088c0.059-0.049,0.116-0.101,0.176-0.151c0.119-0.106,0.237-0.218,0.35-0.328
		c0.029-0.029,0.059-0.06,0.088-0.088c0.265-0.27,0.512-0.551,0.74-0.845c0.021-0.026,0.043-0.054,0.063-0.081
		c0.098-0.126,0.189-0.254,0.279-0.384c0.027-0.04,0.056-0.082,0.081-0.122c0.059-0.086,0.114-0.172,0.168-0.259
		c0.001,0,0.001,0,0.001,0l32.318-52.336c0.965-1.563,1.424-3.294,1.424-5.003c0-3.198-1.605-6.322-4.528-8.126
		c-4.481-2.768-10.358-1.378-13.127,3.104l-14.664,23.744V85.723V64.972V33.099v-2.037V16.623c0-5.268-4.271-9.539-9.539-9.539
		c-5.269,0-9.54,4.271-9.54,9.539v14.439v2.037v31.873v20.751v61.999l-14.664-23.745c-2.768-4.482-8.646-5.873-13.128-3.104
		C99.917,123.641,98.527,129.517,101.295,134.005z"/>
</g>
</svg>
