<?xml version="1.0" encoding="utf-8"?>
<!-- Generator: Adobe Illustrator 15.1.0, SVG Export Plug-In . SVG Version: 6.00 Build 0)  -->
<!DOCTYPE svg PUBLIC "-//W3C//DTD SVG 1.1//EN" "http://www.w3.org/Graphics/SVG/1.1/DTD/svg11.dtd">
<svg version="1.1" id="Layer_1" xmlns="http://www.w3.org/2000/svg" xmlns:xlink="http://www.w3.org/1999/xlink" x="0px" y="0px"
	 width="283.46px" height="283.46px" viewBox="0 0 283.46 283.46" enable-background="new 0 0 283.46 283.46" xml:space="preserve">
<g>
	<path d="M244.019,173.127h-11.27v14.721h-31.892L167.41,97.543c8.539-7.28,13.96-18.107,13.96-30.206
		c0-19.494-14.059-35.692-32.586-39.042V7.084h-15.873v21.548c-17.698,3.994-30.919,19.799-30.919,38.705
		c0,11.938,5.279,22.639,13.622,29.914l-33.556,90.596H50.71v-14.721h-11.27c-13.547,0-24.529,10.145-24.529,22.658
		c0,12.512,10.981,22.656,24.529,22.656h11.27v-14.721H76.18L57.743,253.5l13.779,5.104v17.771l4.199-16.594l20.764-56.061h26.082
		v-15.873h-20.204l30.318-81.859c2.893,0.67,5.902,1.037,8.999,1.037c2.952,0,5.822-0.332,8.59-0.943l30.283,81.765h-29.805v-21.574
		h-19.804v58.648h19.804v-21.201h35.682l20.764,56.061l4.2,16.594v-17.771l13.779-5.104l-18.438-49.779h26.013v14.721h11.27
		c13.547,0,24.529-10.145,24.529-22.656C268.548,183.271,257.565,173.127,244.019,173.127z M141.681,82.571
		c-8.414,0-15.234-6.82-15.234-15.233c0-8.413,6.82-15.233,15.234-15.233c8.413,0,15.232,6.821,15.232,15.233
		C156.913,75.75,150.094,82.571,141.681,82.571z"/>
</g>
</svg>
