<?xml version="1.0" encoding="utf-8"?>
<!-- Generator: Adobe Illustrator 15.1.0, SVG Export Plug-In . SVG Version: 6.00 Build 0)  -->
<!DOCTYPE svg PUBLIC "-//W3C//DTD SVG 1.1//EN" "http://www.w3.org/Graphics/SVG/1.1/DTD/svg11.dtd">
<svg version="1.1" id="Layer_4" xmlns="http://www.w3.org/2000/svg" xmlns:xlink="http://www.w3.org/1999/xlink" x="0px" y="0px"
	 width="30px" height="30px" viewBox="0 0 30 30" enable-background="new 0 0 30 30" xml:space="preserve">
<g>
	<path fill="none" d="M20.683,19.131c0,0.138,0.112,0.25,0.25,0.25c1.312,0,2.45-0.266,3.016-0.542
		c0.176-0.086,0.304-0.178,0.38-0.262c0.091-0.101,0.126-0.204,0.126-0.296c0-0.138-0.112-0.25-0.25-0.25
		c-0.124,0-0.227,0.09-0.246,0.207c-0.027,0.021-0.132,0.104-0.229,0.151c-0.523,0.256-1.58,0.491-2.796,0.491
		C20.795,18.881,20.683,18.992,20.683,19.131z"/>
	<path fill="none" d="M20.933,20.698c-2.076,0-3.873-0.477-4.768-1.134c-0.057-0.041-0.11-0.084-0.161-0.128l0.554,6.108
		c0,0.92,1.961,1.666,4.375,1.666s4.374-0.746,4.374-1.666l0.555-6.108c-0.051,0.044-0.104,0.087-0.161,0.128
		C24.805,20.222,23.009,20.698,20.933,20.698z"/>
	<path fill="none" d="M13.418,11.889c-0.046-0.167-0.157-0.327-0.324-0.475l-0.006-0.006c-0.332-0.294-0.88-0.544-1.567-0.722
		l-0.488-0.109c-0.59-0.114-1.258-0.177-1.964-0.177c-1.807,0-3.36,0.418-4.027,1.014l-0.175,0.187l-0.095,0.15l-0.053,0.137
		l-0.022,0.126l0.002,0.126l0.013,0.076c0.201,0.849,2.076,1.514,4.357,1.514c1.14,0,2.179-0.167,2.958-0.439
		c-0.28,0.054-0.615,0.087-0.975,0.087c-0.592,0-1.113-0.087-1.429-0.208c-0.068-0.026-0.129-0.055-0.184-0.085
		c-0.112,0.017-0.23,0.026-0.353,0.026c-0.559,0-1.033-0.2-1.274-0.446c-0.174-0.178-0.258-0.387-0.258-0.601
		s0.084-0.423,0.258-0.601c0.241-0.246,0.715-0.446,1.274-0.446s1.033,0.2,1.274,0.446c0.041,0.041,0.077,0.084,0.107,0.129
		c0.182-0.019,0.379-0.029,0.584-0.029c0.689,0,1.285,0.123,1.582,0.275c0.332,0.171,0.441,0.426,0.441,0.631
		c0,0.11-0.031,0.233-0.111,0.352c0.249-0.185,0.41-0.39,0.461-0.607l0.018-0.125l-0.007-0.122L13.418,11.889z"/>
	<path fill="none" d="M15.399,18.308l-0.548-6.032l-0.017-0.212c0.001-0.489,0.276-0.974,0.83-1.38
		c0.573-0.421,1.482-0.774,2.593-0.996c-0.123-0.44-0.371-0.818-0.858-1.089c-1.41-2.052-1.508-4.25-1.521-6.483
		c-0.222,0.1-0.537,0.172-0.892,0.172c-0.369,0-0.696-0.079-0.919-0.185c-0.097,2.333-0.116,4.701-1.415,6.496
		c-0.566,0.235-0.927,0.762-1.071,1.592c0.706,0.177,1.284,0.423,1.671,0.707c0.354,0.26,0.569,0.56,0.653,0.87
		c0.006,0.019,0.011,0.038,0.014,0.058c0.017,0.08,0.026,0.16,0.026,0.24c0,0.067-0.006,0.134-0.018,0.201c0,1.524,0,7.633,0,10.919
		c0.318,0.036,0.671,0.056,1.06,0.056c0.31,0,0.596-0.013,0.859-0.036l-0.43-4.729C15.405,18.421,15.4,18.364,15.399,18.308z"/>
	<path fill="none" d="M14.985,1.788c0.489,0,0.885-0.151,0.885-0.337c0-0.013-0.002-0.026-0.006-0.039
		c-0.051-0.167-0.426-0.298-0.879-0.298l-0.247,0.013c-0.173,0.019-0.324,0.058-0.436,0.109c-0.003,0.001-0.006,0.003-0.01,0.004
		c-0.041,0.02-0.077,0.041-0.105,0.064c-0.005,0.004-0.009,0.007-0.014,0.011c-0.031,0.027-0.052,0.055-0.064,0.085l-0.002,0.005
		C14.103,1.42,14.1,1.436,14.1,1.451C14.1,1.637,14.497,1.788,14.985,1.788z"/>
	<path fill="none" d="M13.425,13.092c-0.054,0.048-0.112,0.095-0.175,0.142c-0.785,0.576-2.36,0.997-4.182,0.997
		c-1.822,0-3.397-0.421-4.182-0.997c-0.063-0.046-0.121-0.093-0.175-0.142v12.453c0,0.92,1.96,1.666,4.375,1.666
		c2.415,0,4.339-0.746,4.339-1.666c0-0.072,0.024-0.144,0-0.213V13.092z"/>
	<path fill="none" d="M9.086,11.519c-0.569,0-1.032,0.245-1.032,0.546s0.462,0.547,1.032,0.547c0.17,0,0.33-0.022,0.471-0.061
		c0.139,0.187,0.755,0.328,1.494,0.328c0.841,0,1.523-0.183,1.523-0.407s-0.683-0.407-1.523-0.407c-0.358,0-0.687,0.033-0.947,0.088
		c0.009-0.029,0.013-0.058,0.013-0.088C10.118,11.764,9.656,11.519,9.086,11.519z"/>
	<path fill="none" d="M20.933,14.697c-2.294,0-4.28-0.523-5.269-1.249c-0.079-0.058-0.152-0.118-0.221-0.179l0.367,4.044
		c0.1-0.109,0.218-0.215,0.354-0.315c0.895-0.657,2.691-1.133,4.768-1.133s3.872,0.476,4.768,1.133
		c0.136,0.101,0.254,0.206,0.354,0.315l0.367-4.044c-0.067,0.061-0.141,0.121-0.22,0.179C25.212,14.173,23.227,14.697,20.933,14.697
		z"/>
	<path fill="none" d="M25.781,11l-0.296-0.175L24.994,10.6l-0.55-0.193l-1.409-0.316L22.02,9.975l-1.087-0.04l-0.852,0.024
		l-1.214,0.125c-0.528,0.08-1.018,0.19-1.453,0.324l-0.226,0.074l-0.516,0.202l-0.444,0.227l-0.21,0.134
		c-0.436,0.303-0.684,0.651-0.684,1.021c0,0.054,0.005,0.106,0.016,0.159l0.006,0.032l0.054,0.16
		c0.237,0.544,1.017,1.019,2.12,1.341l0.529,0.137l0.66,0.129l1.463,0.154l1.6-0.006l1.483-0.169l0.739-0.156l0.33-0.089
		c1.103-0.322,1.883-0.797,2.12-1.341l0.004-0.01l0.055-0.177l0.017-0.164C26.53,11.678,26.258,11.314,25.781,11z"/>
	<path fill="none" d="M21.183,16.79c0-0.138-0.112-0.25-0.25-0.25c-1.665,0-3.259,0.403-4.066,0.892
		c-0.434,0.263-0.65,0.574-0.65,0.85c0,0.138,0.112,0.25,0.25,0.25s0.25-0.112,0.25-0.25c0-0.055,0.034-0.105,0.08-0.16
		c0.076-0.09,0.188-0.177,0.329-0.262c0.756-0.457,2.25-0.819,3.808-0.819C21.07,17.04,21.183,16.928,21.183,16.79z"/>
	<path fill="none" d="M21.183,17.506c0-0.138-0.112-0.25-0.25-0.25c-1.309,0-2.444,0.228-3.009,0.48
		c-0.178,0.08-0.307,0.167-0.383,0.248c-0.094,0.099-0.13,0.202-0.13,0.297c0,0.138,0.112,0.25,0.25,0.25
		c0.122,0,0.224-0.087,0.245-0.203c0.029-0.021,0.129-0.094,0.223-0.136c0.525-0.235,1.585-0.437,2.804-0.437
		C21.07,17.756,21.183,17.644,21.183,17.506z"/>
	<path d="M26.201,10.684c-0.989-0.726-2.975-1.249-5.269-1.249c-0.771,0-1.507,0.059-2.182,0.165
		c-0.142-0.551-0.434-1.025-1.002-1.375c-1.425-2.14-1.364-4.447-1.375-6.775c0-0.047-0.007-0.093-0.019-0.136
		c-0.033-0.149-0.122-0.298-0.288-0.42c-0.204-0.15-0.609-0.279-1.083-0.279s-0.877,0.129-1.082,0.279
		c-0.167,0.123-0.256,0.271-0.289,0.42c-0.01,0.036-0.016,0.072-0.019,0.111c-0.126,2.395,0.011,4.9-1.277,6.776
		c-0.613,0.312-1.044,0.928-1.22,1.884C10.484,9.967,9.796,9.9,9.068,9.9c-1.822,0-3.397,0.421-4.182,0.997
		c-0.354,0.26-0.569,0.56-0.653,0.87c-0.006,0.019-0.01,0.038-0.014,0.058c-0.017,0.08-0.026,0.16-0.026,0.24
		c0,0.067,0.006,0.134,0.018,0.201v13.279c0,0.413,0.226,0.826,0.693,1.169c0.785,0.576,2.36,0.997,4.182,0.997
		c1.824,0,3.382-0.423,4.157-1c0.46-0.342,0.682-0.753,0.682-1.166c0-0.081,0.006-0.162,0-0.242c0,0.001,0-0.629,0-1.616
		c0.322,0.035,0.675,0.055,1.06,0.055c0.326,0,0.626-0.014,0.904-0.039l0.17,1.87c0.009,0.402,0.234,0.806,0.692,1.142
		c0.784,0.576,2.36,0.997,4.182,0.997s3.396-0.421,4.182-0.997c0.459-0.337,0.685-0.741,0.692-1.146c0,0.002,0.328-3.609,0.644-7.09
		c0.01-0.057,0.015-0.113,0.016-0.171l0.548-6.031l0.017-0.212C27.029,11.575,26.755,11.09,26.201,10.684z M14.108,1.406
		l0.002-0.005c0.012-0.03,0.033-0.058,0.064-0.085c0.004-0.004,0.009-0.007,0.014-0.011c0.029-0.023,0.064-0.044,0.105-0.064
		c0.003-0.001,0.006-0.003,0.01-0.004c0.112-0.052,0.263-0.09,0.436-0.109l0.247-0.013c0.454,0,0.829,0.13,0.879,0.298
		c0.004,0.013,0.006,0.026,0.006,0.039c0,0.186-0.396,0.337-0.885,0.337c-0.488,0-0.885-0.151-0.885-0.337
		C14.1,1.436,14.103,1.42,14.108,1.406z M13.425,25.545c0,0.92-1.924,1.666-4.339,1.666c-2.414,0-4.375-0.746-4.375-1.666V13.092
		c0.054,0.048,0.112,0.095,0.175,0.142c0.785,0.576,2.36,0.997,4.182,0.997c1.821,0,3.396-0.421,4.182-0.997
		c0.063-0.046,0.121-0.093,0.175-0.142v12.24C13.449,25.401,13.425,25.473,13.425,25.545z M11.051,12.065
		c0.841,0,1.523,0.182,1.523,0.407s-0.683,0.407-1.523,0.407c-0.739,0-1.355-0.141-1.494-0.328
		c-0.141,0.039-0.301,0.061-0.471,0.061c-0.569,0-1.032-0.245-1.032-0.547s0.462-0.546,1.032-0.546c0.57,0,1.032,0.245,1.032,0.546
		c0,0.03-0.004,0.06-0.013,0.088C10.365,12.099,10.693,12.065,11.051,12.065z M13.425,12.217c-0.051,0.217-0.212,0.422-0.461,0.607
		c0.08-0.118,0.111-0.242,0.111-0.352c0-0.205-0.11-0.46-0.441-0.631c-0.297-0.153-0.893-0.275-1.582-0.275
		c-0.206,0-0.402,0.01-0.584,0.029c-0.03-0.045-0.066-0.088-0.107-0.129c-0.241-0.246-0.715-0.446-1.274-0.446
		s-1.033,0.2-1.274,0.446c-0.174,0.178-0.258,0.386-0.258,0.601s0.084,0.423,0.258,0.601c0.241,0.246,0.715,0.446,1.274,0.446
		c0.123,0,0.241-0.009,0.353-0.026c0.055,0.031,0.116,0.06,0.184,0.085c0.315,0.121,0.837,0.208,1.429,0.208
		c0.36,0,0.695-0.034,0.975-0.087c-0.779,0.272-1.818,0.439-2.958,0.439c-2.281,0-4.156-0.666-4.357-1.514l-0.013-0.076
		l-0.002-0.126l0.022-0.126l0.053-0.137l0.095-0.15l0.175-0.187c0.667-0.596,2.22-1.014,4.027-1.014
		c0.707,0,1.374,0.063,1.964,0.177l0.488,0.109c0.688,0.178,1.235,0.428,1.567,0.722l0.006,0.006
		c0.167,0.148,0.277,0.308,0.324,0.475l0.017,0.081l0.007,0.122L13.425,12.217z M14.985,23.241c-0.389,0-0.742-0.02-1.06-0.056
		c0-3.286,0-9.395,0-10.919c0.012-0.067,0.018-0.134,0.018-0.201c0-0.08-0.009-0.161-0.026-0.24
		c-0.003-0.02-0.008-0.039-0.014-0.058c-0.083-0.31-0.299-0.61-0.653-0.87c-0.387-0.284-0.965-0.53-1.671-0.707
		c0.145-0.83,0.505-1.356,1.071-1.592c1.299-1.794,1.318-4.163,1.415-6.496c0.223,0.106,0.55,0.185,0.919,0.185
		c0.355,0,0.67-0.072,0.892-0.172c0.014,2.232,0.111,4.431,1.521,6.483c0.487,0.271,0.735,0.648,0.858,1.089
		c-1.11,0.222-2.02,0.575-2.593,0.996c-0.554,0.406-0.829,0.891-0.83,1.38l0.017,0.212l0.548,6.032
		c0.001,0.057,0.006,0.113,0.015,0.169l0.43,4.729C15.581,23.229,15.295,23.241,14.985,23.241z M25.307,25.545
		c0,0.92-1.96,1.666-4.374,1.666s-4.375-0.746-4.375-1.666l-0.554-6.108c0.051,0.044,0.104,0.087,0.161,0.128
		c0.895,0.657,2.691,1.134,4.768,1.134s3.872-0.477,4.768-1.134c0.057-0.041,0.11-0.084,0.161-0.128L25.307,25.545z M25.954,18.416
		c-0.181,0.995-2.361,1.782-5.021,1.782s-4.841-0.787-5.021-1.782l-0.013-0.135c0-1.058,2.256-1.916,5.034-1.916
		s5.033,0.858,5.033,1.916L25.954,18.416z M26.054,17.313c-0.1-0.109-0.218-0.215-0.354-0.315c-0.896-0.657-2.691-1.133-4.768-1.133
		s-3.873,0.476-4.768,1.133c-0.137,0.101-0.255,0.206-0.354,0.315l-0.367-4.044c0.068,0.061,0.142,0.121,0.221,0.179
		c0.988,0.726,2.975,1.249,5.269,1.249s4.279-0.523,5.269-1.249c0.079-0.058,0.152-0.118,0.22-0.179L26.054,17.313z M26.514,12.229
		l-0.055,0.177l-0.004,0.01c-0.237,0.544-1.018,1.019-2.12,1.341l-0.33,0.089l-0.739,0.156l-1.483,0.169l-1.6,0.006l-1.463-0.154
		l-0.66-0.129l-0.529-0.137c-1.104-0.322-1.883-0.797-2.12-1.341l-0.054-0.16l-0.006-0.032c-0.011-0.053-0.016-0.105-0.016-0.159
		c0-0.37,0.248-0.718,0.684-1.021l0.21-0.134l0.444-0.227l0.516-0.202l0.226-0.074c0.436-0.134,0.925-0.244,1.453-0.324l1.214-0.125
		l0.852-0.024l1.087,0.04l1.016,0.116l1.409,0.316l0.55,0.193l0.491,0.226L25.781,11c0.477,0.313,0.749,0.677,0.749,1.065
		L26.514,12.229z"/>
	<path d="M20.933,16.365c-2.778,0-5.034,0.858-5.034,1.916l0.013,0.135c0.181,0.995,2.361,1.782,5.021,1.782
		s4.841-0.787,5.021-1.782l0.012-0.135C25.966,17.224,23.711,16.365,20.933,16.365z M23.958,18.238
		c0.02-0.117,0.122-0.207,0.246-0.207c0.138,0,0.25,0.112,0.25,0.25c0,0.092-0.035,0.195-0.126,0.296
		c-0.076,0.084-0.204,0.176-0.38,0.262c-0.565,0.276-1.704,0.542-3.016,0.542c-0.138,0-0.25-0.112-0.25-0.25
		c0-0.139,0.112-0.25,0.25-0.25c1.216,0,2.272-0.235,2.796-0.491C23.826,18.342,23.931,18.26,23.958,18.238z M16.796,18.121
		c-0.046,0.055-0.08,0.105-0.08,0.16c0,0.138-0.112,0.25-0.25,0.25s-0.25-0.112-0.25-0.25c0-0.275,0.217-0.587,0.65-0.85
		c0.808-0.488,2.401-0.892,4.066-0.892c0.138,0,0.25,0.112,0.25,0.25s-0.112,0.25-0.25,0.25c-1.558,0-3.052,0.362-3.808,0.819
		C16.984,17.944,16.872,18.031,16.796,18.121z M17.906,18.328c-0.021,0.116-0.123,0.203-0.245,0.203c-0.138,0-0.25-0.112-0.25-0.25
		c0-0.095,0.036-0.198,0.13-0.297c0.076-0.081,0.205-0.168,0.383-0.248c0.564-0.253,1.7-0.48,3.009-0.48
		c0.138,0,0.25,0.112,0.25,0.25s-0.112,0.25-0.25,0.25c-1.219,0-2.278,0.201-2.804,0.437C18.035,18.234,17.936,18.307,17.906,18.328
		z M24.783,19.139c-0.723,0.518-2.175,0.969-3.851,0.969c-0.138,0-0.25-0.112-0.25-0.25s0.112-0.25,0.25-0.25
		c1.333,0,2.516-0.297,3.248-0.685c0.226-0.12,0.405-0.246,0.528-0.376c0.086-0.091,0.145-0.177,0.145-0.266
		c0-0.138,0.112-0.25,0.25-0.25s0.25,0.112,0.25,0.25C25.354,18.555,25.165,18.865,24.783,19.139z"/>
</g>
</svg>
