<?xml version="1.0" encoding="utf-8"?>
<!-- Generator: Adobe Illustrator 15.1.0, SVG Export Plug-In . SVG Version: 6.00 Build 0)  -->
<!DOCTYPE svg PUBLIC "-//W3C//DTD SVG 1.0//EN" "http://www.w3.org/TR/2001/REC-SVG-20010904/DTD/svg10.dtd">
<svg version="1.0" id="Layer_4" xmlns="http://www.w3.org/2000/svg" xmlns:xlink="http://www.w3.org/1999/xlink" x="0px" y="0px"
	 width="283.465px" height="283.465px" viewBox="0 0 283.465 283.465" enable-background="new 0 0 283.465 283.465"
	 xml:space="preserve">
<g>
	<path fill="none" d="M238.169,124.434l0.135-1.407c-0.002-3.112-2.225-6.242-6.429-9.003l-2.604-1.542l-4.313-1.987l-4.854-1.702
		L207.639,106l-8.979-1.021l-9.619-0.352l-7.556,0.212l-10.757,1.108c-4.586,0.696-8.908,1.659-12.824,2.859l-1.995,0.658
		l-4.569,1.789l-3.904,1.998l-1.817,1.166c-3.826,2.657-5.856,5.654-5.856,8.657c0,0.463,0.043,0.892,0.133,1.311l0.055,0.294
		l0.463,1.357c1.995,4.568,8.577,8.703,18.518,11.603l4.691,1.216l5.84,1.14l12.966,1.365l14.17-0.059l13.125-1.5l6.527-1.377
		l2.907-0.789c9.933-2.899,16.515-7.033,18.525-11.639L238.169,124.434z"/>
	<path fill="none" d="M237.236,134.964c-0.353,0.289-0.7,0.558-1.05,0.812c-9.423,6.91-27.487,11.203-47.143,11.203
		c-19.678,0-37.745-4.293-47.151-11.204c-0.355-0.258-0.707-0.529-1.062-0.818l3.06,33.648c0.715-0.696,1.534-1.389,2.446-2.066
		c8.537-6.273,24.895-10.17,42.69-10.17c17.79,0,34.15,3.896,42.698,10.168c0.88,0.648,1.702,1.344,2.454,2.076L237.236,134.964z"/>
	<path fill="none" d="M127.224,221.51c2.828,0.295,5.828,0.444,8.925,0.444c2.471,0,4.85-0.093,7.079-0.277l-3.777-41.544
		c-0.08-0.486-0.128-1.02-0.137-1.549l-5.023-55.486c0.008-4.706,2.631-9.088,7.585-12.713c5.07-3.731,13.122-6.862,22.715-8.837
		c-1.229-3.979-3.541-6.805-7.242-8.863l-0.103-0.057l-0.066-0.097c-12.202-17.761-13.44-36.424-13.603-57.185
		c-2.121,0.821-4.784,1.285-7.438,1.285c-2.762,0-5.521-0.503-7.702-1.393l-0.116,2.866c-0.766,19.314-1.557,39.286-12.531,54.438
		l-0.083,0.114l-0.13,0.054c-4.771,1.988-7.844,6.468-9.137,13.322c6.113,1.579,11.146,3.737,14.578,6.254
		c3.131,2.296,5.203,5.066,5.992,8.01c0.056,0.172,0.107,0.368,0.138,0.573c0.154,0.696,0.235,1.45,0.235,2.205
		c0,0.631-0.057,1.263-0.169,1.878L127.224,221.51z"/>
	<path fill="none" d="M128.831,28.442c-0.033,0.091-0.045,0.167-0.041,0.228c0.001,1.215,3.151,2.533,7.367,2.533
		c4.219,0,7.372-1.318,7.372-2.497c0-0.066-0.011-0.133-0.031-0.206c-0.333-1.1-3.229-2.291-7.328-2.293l-2.182,0.116
		c-1.443,0.158-2.729,0.478-3.689,0.922c-0.451,0.216-0.718,0.377-0.919,0.542l-0.426-0.304c0,0,0,0,0,0l0.319,0.383
		C129.054,28.062,128.91,28.25,128.831,28.442z"/>
	<path fill="none" d="M233.293,178.307c-0.002-9.075-19.852-16.494-44.249-16.494c-24.411,0-44.271,7.419-44.271,16.537l0.119,1.148
		c1.555,8.612,20.951,15.389,44.152,15.389c23.187,0,42.58-6.776,44.151-15.428L233.293,178.307z M215.946,177.969
		c0.172-1.041,1.085-1.842,2.188-1.842c1.227,0,2.224,0.989,2.224,2.223c0,0.817-0.313,1.738-1.119,2.632
		c-0.678,0.745-1.814,1.564-3.379,2.327c-5.037,2.458-15.151,4.819-26.815,4.819c-1.232,0-2.223-0.99-2.223-2.224
		c0-1.231,0.991-2.223,2.223-2.23c10.821,0,20.216-2.093,24.87-4.368C214.773,178.889,215.702,178.159,215.946,177.969z
		 M152.262,176.934c-0.408,0.494-0.711,0.93-0.711,1.416c0,1.233-0.99,2.223-2.225,2.223c-1.224,0-2.223-0.989-2.223-2.223
		c0-2.449,1.928-5.21,5.783-7.556c7.172-4.341,21.345-7.928,36.157-7.928c1.217,0,2.224,0.999,2.224,2.224
		c0,1.226-1.007,2.224-2.225,2.232c-13.85,0-27.135,3.212-33.856,7.276C153.929,175.362,152.938,176.126,152.262,176.934z
		 M162.125,178.769c-0.189,1.024-1.094,1.806-2.179,1.806c-1.226,0-2.224-0.999-2.224-2.223c0-0.851,0.32-1.763,1.154-2.64
		c0.679-0.729,1.826-1.495,3.405-2.207c5.019-2.238,15.118-4.271,26.762-4.271c1.217,0,2.224,0.999,2.224,2.223
		c0,1.232-1.007,2.222-2.224,2.216c-10.844,0-20.268,1.796-24.938,3.881C163.272,177.936,162.385,178.577,162.125,178.769z
		 M223.283,185.976c-6.435,4.602-19.338,8.611-34.239,8.611c-1.232,0-2.223-0.989-2.223-2.222c0-1.218,0.991-2.223,2.223-2.223
		c11.847,0,22.369-2.641,28.884-6.088c1.996-1.068,3.594-2.18,4.688-3.344c0.764-0.806,1.285-1.57,1.285-2.361
		c0-1.233,0.999-2.223,2.224-2.223s2.221,1.008,2.224,2.223C228.348,180.781,226.679,183.552,223.283,185.976z"/>
	<path fill="none" d="M83.696,257.252c20.998,0,38.08-6.421,38.08-14.313c0-0.235,0.026-0.472,0.053-0.705
		c0.044-0.391,0.083-0.728-0.022-1.021l-0.029-0.169V133.292c-0.24,0.193-0.492,0.386-0.76,0.581
		c-7.543,5.528-21.906,8.962-37.482,8.962c-15.585,0-29.947-3.435-37.479-8.963c-0.263-0.194-0.516-0.389-0.763-0.587v109.654
		C45.294,250.831,62.521,257.252,83.696,257.252z"/>
	<path fill="none" d="M189.043,257.252c21.167,0,38.388-6.421,38.388-14.313l4.826-53.169c-0.17,0.133-0.346,0.265-0.526,0.395
		c-8.557,6.282-24.915,10.186-42.687,10.186c-17.787,0-34.147-3.903-42.696-10.188c-0.183-0.13-0.36-0.262-0.531-0.394l4.823,53.125
		C150.642,250.831,167.868,257.252,189.043,257.252z"/>
	<path fill="none" d="M101.168,129.813c8.082,0,13.045-1.815,13.045-3.117c0-1.303-4.963-3.121-13.045-3.121
		c-2.995,0-5.868,0.267-8.309,0.772l-0.831,0.172l0.252-0.811c0.063-0.201,0.095-0.414,0.095-0.633c0-2.359-3.974-4.353-8.679-4.353
		c-4.702,0-8.674,1.994-8.674,4.353c0,2.365,3.972,4.363,8.674,4.363c1.409,0,2.813-0.18,4.058-0.52l0.33-0.09l0.204,0.274
		C89.264,128.417,94.11,129.813,101.168,129.813z"/>
	<path fill="none" d="M105.231,111.324l-4.321-0.964c-5.356-1.037-11.202-1.564-17.359-1.564c-15.506,0-29.431,3.489-35.473,8.889
		l-1.522,1.632l-0.79,1.261l-0.424,1.13l-0.176,1.03l0.03,1.022l0.107,0.605c1.733,7.298,18.537,13.041,38.248,13.041
		c7.25,0,14.268-0.769,20.339-2.202c-5.839,0.306-11.969-0.42-15.591-1.812c-0.541-0.199-1.063-0.436-1.552-0.703
		c-0.978,0.14-2.001,0.21-3.044,0.21c-4.719,0-9.196-1.577-11.684-4.114c-1.594-1.632-2.436-3.601-2.436-5.695
		c0-2.093,0.842-4.063,2.435-5.694c2.493-2.538,6.97-4.114,11.685-4.114c4.648,0,9.234,1.615,11.685,4.113
		c0.317,0.317,0.598,0.644,0.837,0.974c1.579-0.154,3.244-0.232,4.955-0.232c5.732,0,11.342,0.981,14.292,2.5
		c3.785,1.96,4.193,4.89,4.193,6.059c0,0.373-0.037,0.833-0.158,1.344c1.219-1.201,1.984-2.45,2.282-3.728l0.148-0.991l-0.059-1.034
		l-0.143-0.645c-0.381-1.354-1.3-2.695-2.722-3.955C116.076,115.085,111.329,112.903,105.231,111.324z"/>
	<path d="M236.179,110.394c-9.415-6.911-27.482-11.204-47.151-11.204c-6.534,0-12.935,0.473-19.033,1.404
		c-1.461-5.267-4.383-9.207-8.92-12.031c-11.948-17.996-12.008-36.942-12.071-57l-0.011-2.875c0-0.456-0.064-0.911-0.185-1.321
		c-0.354-1.573-1.303-2.966-2.748-4.028c-2.143-1.567-6.04-2.58-9.929-2.58c-3.878,0-7.771,1.013-9.918,2.581
		c-1.458,1.073-2.412,2.466-2.756,4.006c-0.09,0.334-0.149,0.674-0.187,1.089c-0.175,3.324-0.294,6.725-0.41,10.014
		c-0.623,17.666-1.267,35.933-10.785,49.881c-5.651,2.927-9.316,8.494-10.901,16.552c-5.552-1.035-11.483-1.56-17.637-1.56
		c-15.589,0-29.951,3.435-37.479,8.963c-3.126,2.294-5.199,5.063-5.99,7.989c-0.058,0.185-0.096,0.371-0.134,0.563
		c-0.163,0.76-0.246,1.513-0.246,2.237c0,0.604,0.055,1.217,0.161,1.789v118.074c0,4.008,2.201,7.741,6.365,10.798
		c7.534,5.528,21.897,8.963,37.484,8.963c15.536,0,29.815-3.445,37.263-8.991c4.098-3.042,6.264-6.767,6.264-10.77
		c0-0.236,0.006-0.473,0.013-0.708c0.013-0.484,0.026-0.985-0.013-1.446v-13.807c2.817,0.286,5.816,0.431,8.925,0.431
		c2.651,0,5.2-0.103,7.583-0.306l1.465,16.09c0.095,3.921,2.294,7.568,6.361,10.55c7.526,5.529,21.891,8.965,37.487,8.965
		c15.579,0,29.94-3.436,37.478-8.965c4.09-3.001,6.287-6.662,6.355-10.587l-0.079-0.002c0.146-0.718,0.318-2.608,0.786-7.757
		l5.015-55.208c0.089-0.505,0.137-1.023,0.146-1.552l4.879-53.639l0.15-1.928C243.744,118.395,241.116,114.012,236.179,110.394z
		 M189.044,194.887c-23.201,0-42.598-6.776-44.152-15.389l-0.119-1.148c0-9.118,19.86-16.537,44.271-16.537
		c24.397,0,44.247,7.419,44.249,16.494l-0.098,1.152C231.624,188.11,212.23,194.887,189.044,194.887z M127.149,120.87
		c-0.03-0.206-0.082-0.401-0.138-0.573c-0.789-2.944-2.861-5.714-5.992-8.01c-3.431-2.517-8.465-4.676-14.578-6.254
		c1.293-6.854,4.366-11.334,9.137-13.322l0.13-0.054l0.083-0.114c10.974-15.152,11.766-35.124,12.531-54.438l0.116-2.866
		c2.18,0.89,4.939,1.393,7.702,1.393c2.653,0,5.316-0.464,7.438-1.285c0.162,20.761,1.4,39.424,13.603,57.185l0.066,0.097
		l0.103,0.057c3.701,2.058,6.014,4.883,7.242,8.863c-9.594,1.975-17.646,5.105-22.715,8.837c-4.954,3.625-7.578,8.007-7.585,12.713
		l5.023,55.486c0.009,0.529,0.057,1.063,0.137,1.549l3.777,41.544c-2.229,0.185-4.608,0.277-7.079,0.277
		c-3.097,0-6.097-0.149-8.925-0.444l-0.008-96.557c0.112-0.615,0.169-1.247,0.169-1.878
		C127.384,122.32,127.303,121.566,127.149,120.87z M189.027,156.368c-17.796,0-34.153,3.896-42.69,10.17
		c-0.912,0.678-1.731,1.37-2.446,2.066l-3.06-33.648c0.355,0.289,0.707,0.56,1.062,0.818c9.406,6.911,27.474,11.204,47.151,11.204
		c19.655,0,37.72-4.293,47.143-11.203c0.35-0.254,0.697-0.523,1.05-0.812l-3.057,33.648c-0.752-0.732-1.574-1.428-2.454-2.076
		C223.178,160.265,206.817,156.368,189.027,156.368z M219.158,137.637l-2.907,0.789l-6.527,1.377l-13.125,1.5l-14.17,0.059
		l-12.966-1.365l-5.84-1.14l-4.691-1.216c-9.941-2.9-16.523-7.035-18.518-11.603l-0.463-1.357l-0.055-0.294
		c-0.089-0.419-0.133-0.848-0.133-1.311c0-3.002,2.03-6,5.856-8.657l1.817-1.166l3.904-1.998l4.569-1.789l1.995-0.658
		c3.916-1.2,8.238-2.163,12.824-2.859l10.757-1.108l7.556-0.212l9.619,0.352l8.979,1.021l12.466,2.793l4.854,1.702l4.313,1.987
		l2.604,1.542c4.204,2.761,6.427,5.891,6.429,9.003l-0.135,1.407l-0.485,1.563C235.673,130.604,229.091,134.738,219.158,137.637z
		 M128.954,27.483l0.426,0.304c0.202-0.165,0.469-0.326,0.919-0.542c0.961-0.444,2.246-0.764,3.689-0.922l2.182-0.116
		c4.1,0.002,6.995,1.193,7.328,2.293c0.021,0.073,0.031,0.14,0.031,0.206c0,1.179-3.153,2.497-7.372,2.497
		c-4.216,0-7.366-1.318-7.367-2.533c-0.004-0.06,0.008-0.136,0.041-0.228c0.079-0.192,0.223-0.38,0.442-0.575L128.954,27.483
		C128.954,27.484,128.954,27.484,128.954,27.483z M45.294,133.285c0.247,0.199,0.5,0.394,0.763,0.587
		c7.532,5.529,21.894,8.963,37.479,8.963c15.577,0,29.939-3.435,37.482-8.962c0.268-0.195,0.52-0.388,0.76-0.581v107.751
		l0.029,0.169c0.105,0.294,0.066,0.631,0.022,1.021c-0.027,0.233-0.053,0.47-0.053,0.705c0,7.892-17.083,14.313-38.08,14.313
		c-21.175,0-38.402-6.421-38.402-14.313V133.285z M121.736,121.643l0.143,0.645l0.059,1.034l-0.148,0.991
		c-0.298,1.278-1.063,2.527-2.282,3.728c0.121-0.511,0.158-0.971,0.158-1.344c0-1.169-0.409-4.099-4.193-6.059
		c-2.95-1.519-8.56-2.5-14.292-2.5c-1.71,0-3.375,0.078-4.955,0.232c-0.239-0.33-0.521-0.657-0.837-0.974
		c-2.45-2.499-7.037-4.113-11.685-4.113c-4.715,0-9.192,1.576-11.685,4.114c-1.593,1.632-2.435,3.601-2.435,5.694
		c0,2.094,0.842,4.063,2.436,5.695c2.488,2.538,6.965,4.114,11.684,4.114c1.043,0,2.067-0.071,3.044-0.21
		c0.489,0.267,1.012,0.504,1.552,0.703c3.622,1.392,9.752,2.118,15.591,1.812c-6.072,1.433-13.09,2.202-20.339,2.202
		c-19.711,0-36.515-5.743-38.248-13.041l-0.107-0.605l-0.03-1.022l0.176-1.03l0.424-1.13l0.79-1.261l1.522-1.632
		c6.042-5.4,19.967-8.889,35.473-8.889c6.157,0,12.002,0.527,17.359,1.564l4.321,0.964c6.098,1.579,10.844,3.762,13.782,6.364
		C120.436,118.947,121.354,120.288,121.736,121.643z M87.754,126.918c-1.245,0.34-2.648,0.52-4.058,0.52
		c-4.702,0-8.674-1.998-8.674-4.363c0-2.359,3.972-4.353,8.674-4.353c4.705,0,8.679,1.994,8.679,4.353
		c0,0.219-0.032,0.432-0.095,0.633l-0.252,0.811l0.831-0.172c2.441-0.505,5.314-0.772,8.309-0.772
		c8.082,0,13.045,1.818,13.045,3.121c0,1.301-4.963,3.117-13.045,3.117c-7.058,0-11.904-1.396-12.881-2.711l-0.204-0.274
		L87.754,126.918z M146.348,190.163c8.549,6.284,24.909,10.188,42.696,10.188c17.771,0,34.13-3.903,42.687-10.186
		c0.181-0.13,0.356-0.262,0.526-0.395l-4.826,53.169c0,7.892-17.221,14.313-38.388,14.313c-21.175,0-38.401-6.421-38.403-14.357
		l-4.823-53.125C145.987,189.901,146.165,190.033,146.348,190.163z"/>
	<path d="M191.268,165.09c0-1.225-1.007-2.224-2.224-2.224c-14.813,0-28.985,3.587-36.157,7.928
		c-3.855,2.346-5.783,5.106-5.783,7.556c0,1.233,0.999,2.223,2.223,2.223c1.234,0,2.225-0.989,2.225-2.223
		c0-0.486,0.303-0.922,0.711-1.416c0.677-0.808,1.667-1.571,2.925-2.335c6.722-4.064,20.007-7.276,33.856-7.276
		C190.261,167.313,191.268,166.315,191.268,165.09z"/>
	<path d="M191.268,171.457c0-1.224-1.007-2.223-2.224-2.223c-11.644,0-21.743,2.032-26.762,4.271
		c-1.579,0.712-2.727,1.478-3.405,2.207c-0.834,0.877-1.154,1.789-1.154,2.64c0,1.224,0.998,2.223,2.224,2.223
		c1.085,0,1.989-0.781,2.179-1.806c0.26-0.191,1.147-0.833,1.98-1.215c4.671-2.085,14.095-3.881,24.938-3.881
		C190.261,173.679,191.268,172.689,191.268,171.457z"/>
	<path d="M186.821,185.904c0,1.233,0.99,2.224,2.223,2.224c11.664,0,21.778-2.361,26.815-4.819c1.564-0.763,2.701-1.582,3.379-2.327
		c0.806-0.894,1.119-1.814,1.119-2.632c0-1.233-0.997-2.223-2.224-2.223c-1.103,0-2.016,0.801-2.188,1.842
		c-0.244,0.19-1.173,0.92-2.032,1.337c-4.654,2.275-14.049,4.368-24.87,4.368C187.813,183.682,186.821,184.673,186.821,185.904z"/>
	<path d="M226.124,176.127c-1.225,0-2.224,0.989-2.224,2.223c0,0.791-0.521,1.556-1.285,2.361c-1.094,1.164-2.691,2.275-4.688,3.344
		c-6.515,3.447-17.037,6.088-28.884,6.088c-1.231,0-2.223,1.005-2.223,2.223c0,1.232,0.99,2.222,2.223,2.222
		c14.901,0,27.805-4.01,34.239-8.611c3.396-2.424,5.064-5.194,5.064-7.626C228.345,177.135,227.349,176.127,226.124,176.127z"/>
</g>
</svg>
