<?xml version="1.0" encoding="utf-8"?>
<!-- Generator: Adobe Illustrator 15.1.0, SVG Export Plug-In . SVG Version: 6.00 Build 0)  -->
<!DOCTYPE svg PUBLIC "-//W3C//DTD SVG 1.1//EN" "http://www.w3.org/Graphics/SVG/1.1/DTD/svg11.dtd">
<svg version="1.1" id="Layer_7" xmlns="http://www.w3.org/2000/svg" xmlns:xlink="http://www.w3.org/1999/xlink" x="0px" y="0px"
	 width="283.465px" height="283.465px" viewBox="0 0 283.465 283.465" enable-background="new 0 0 283.465 283.465"
	 xml:space="preserve">
<g>
	<path fill="none" d="M191.525,198.011c-8.095-0.17-15.638-1.051-22.128-2.465C175.888,196.961,183.43,197.841,191.525,198.011z"/>
	<path d="M247.203,105.245c-9.908-7.269-29.771-12.61-52.754-12.61c-7.01,0-13.733,0.493-19.961,1.387
		c-1.615-5.026-4.59-9.382-9.83-12.725c-13.477-20.5-12.797-42.621-12.893-64.919c0-0.636-0.096-1.253-0.259-1.836
		c-0.411-1.813-1.491-3.663-3.548-5.179C145.74,7.737,141.35,6.25,136.2,6.25c-5.15,0-9.53,1.487-11.754,3.113
		c-2.066,1.521-3.146,3.376-3.563,5.227c-0.129,0.468-0.21,0.952-0.239,1.454c-1.214,22.915,0.225,46.91-11.892,64.952
		c-5.834,3.146-10.119,8.923-12.142,17.703c-5.633-0.961-11.835-1.501-18.353-1.501c-18.353,0-34.205,4.337-42.114,10.147
		c-3.878,2.845-6.192,6.164-7.12,9.554c-0.067,0.229-0.124,0.469-0.172,0.708c-0.196,0.914-0.292,1.836-0.292,2.754
		c0,0.722,0.058,1.439,0.182,2.162c-0.004-0.029-0.004,129.847-0.004,129.847c0,4.581,2.4,9.22,7.584,13.026
		c7.909,5.805,23.756,10.146,42.109,10.146c18.387,0,34.071-4.36,41.88-10.176c5.102-3.806,7.469-8.416,7.469-12.997
		c0.002-0.834,0.055-1.646-0.003-2.46v-13.58c2.621,0.22,5.428,0.335,8.426,0.335c2.501,0,4.854-0.086,7.071-0.229l1.482,16.314
		c0.124,4.438,2.534,8.941,7.574,12.645c7.919,5.805,23.768,10.146,42.119,10.146s34.199-4.343,42.109-10.146
		c5.059-3.711,7.469-8.226,7.584-12.691l11.801-130.105l0.183-2.257C256.116,115.014,253.229,109.673,247.203,105.245z
		 M130.345,16.085c0.909-0.421,2.128-0.722,3.524-0.885l2.333-0.134c2.338,0,4.442,0.373,5.839,1.004
		c0.182,0.087,0.383,0.211,0.545,0.326c-0.258,0.172-0.622,0.387-0.957,0.511c-1.387,0.526-3.309,0.837-5.427,0.837
		c-2.118,0-4.041-0.311-5.427-0.837c-0.34-0.129-0.713-0.354-0.98-0.526L130.345,16.085z M119.045,251.325
		c-0.039,0.344-0.077,0.698-0.077,1.042c0,1.367-0.622,2.658-1.678,3.883c-1.258,1.454-3.108,2.803-5.423,4.018
		c-7.493,3.939-19.625,6.455-33.435,6.455s-26.075-2.516-33.664-6.455c-2.353-1.225-4.237-2.572-5.519-4.035
		c-1.066-1.215-1.697-2.506-1.697-3.864V134.341h0c8.292,5.317,23.383,9.181,40.708,9.181c17.325,0,32.416-3.863,40.708-9.181
		v115.941c0,0.211,0.034,0.421,0.101,0.622C119.117,251.038,119.059,251.182,119.045,251.325z M120.821,121.725
		c-1.791,9.258-20.187,14.142-37.624,14.875c-1.733,0.072-3.359,0.107-4.919,0.107l-0.028,0h-0.013c-0.804,0-1.602-0.01-2.394-0.026
		l-0.129-0.003c-18.666-0.41-34.196-5.169-38.731-11.846c-0.978-1.439-1.474-2.944-1.474-4.475c0-1.149,0.289-2.304,0.859-3.432
		c3.607-7.139,19.067-12.309,38.469-12.865l0.439-0.012c0.978-0.024,1.963-0.041,2.961-0.041l0.111,0.001
		c0.782,0,1.558,0.01,2.33,0.026l0.47,0.012c0.736,0.018,1.468,0.043,2.194,0.075l0.065,0.003
		c17.497,0.768,31.634,5.347,36.026,11.67c1.017,1.463,1.532,2.999,1.532,4.563C120.964,120.784,120.918,121.218,120.821,121.725z
		 M146.177,230.822c-0.352,0.409-0.854,0.66-1.393,0.694l-2.051,0.13c-2.08,0.132-4.277,0.199-6.53,0.199
		c-3.065,0-6.019-0.125-8.776-0.371l-1.823-0.163c-1.032-0.093-1.822-0.957-1.822-1.992l0.026-107.149
		c0-0.107,0.009-0.213,0.026-0.319c0.08-0.494,0.12-0.996,0.12-1.493c0-0.633-0.068-1.277-0.201-1.912
		c-0.036-0.177-0.067-0.308-0.104-0.438c-0.737-2.707-2.686-5.272-5.644-7.441c-3.266-2.4-8.084-4.523-13.937-6.141l-1.842-0.509
		c-1.03-0.285-1.655-1.33-1.417-2.373l0.425-1.863c1.691-7.418,5.317-12.437,10.782-14.925
		c11.296-15.98,12.165-37.674,13.007-58.662l0.13-3.239c0.025-0.615,0.332-1.184,0.831-1.543c0.5-0.359,1.137-0.468,1.728-0.296
		l2.457,0.717c3.522,1.03,8.194,1.062,11.783,0.082l2.5-0.683c0.597-0.164,1.238-0.041,1.732,0.333
		c0.495,0.374,0.788,0.956,0.795,1.575l0.027,2.592c0.203,19.649,1.477,40.398,14.265,59.243c3.83,2.232,6.486,5.253,8.112,9.222
		l0.901,2.198c0.224,0.546,0.195,1.163-0.078,1.686c-0.274,0.523-0.765,0.898-1.341,1.026l-2.32,0.513
		c-9.481,2.093-17.466,5.272-22.484,8.951c-4.763,3.498-7.284,7.604-7.288,11.874l0,0.188l9.876,108.808
		C146.699,229.877,146.528,230.412,146.177,230.822z M236.835,252.368c0,1.659-0.699,3.293-2.077,4.856
		c-1.363,1.557-3.367,3.03-5.952,4.374c-8.115,4.21-20.638,6.624-34.355,6.624c-13.725,0-26.25-2.414-34.365-6.624
		c-2.586-1.351-4.585-2.823-5.946-4.378c-1.374-1.558-2.073-3.19-2.074-4.85l-0.004-0.04l-5.312-58.526l2.562,1.602
		c9.816,6.136,27.113,9.947,45.14,9.947c18.021,0,35.313-3.812,45.13-9.947l2.562-1.602L236.835,252.368z M194.396,201.044
		c-24.379,0-50.289-6.837-50.289-19.509s25.91-19.51,50.289-19.51s50.289,6.838,50.289,19.51S218.775,201.044,194.396,201.044z
		 M249.096,122.165l-0.53,1.666c-0.932,2.107-2.687,4.132-5.216,6.017c-3.739,2.8-8.974,5.195-15.555,7.116l-3.302,0.893
		l-7.273,1.527l-14.556,1.647l-15.555,0.054l-14.426-1.53l-6.44-1.26l-5.088-1.32c-6.63-1.936-11.863-4.328-15.615-7.128
		c-2.507-1.881-4.245-3.88-5.171-5.945l-0.072-0.184l-0.562-1.806c-0.104-0.562-0.153-1.062-0.153-1.553
		c0-3.554,2.254-6.923,6.701-10.015l2.172-1.376l4.354-2.215l5.015-1.956l2.162-0.703c4.279-1.32,9.031-2.382,14.154-3.165
		c0.061-0.01,0.063-0.011,11.89-1.232l0.148-0.01l8.27-0.236l10.729,0.4l9.978,1.145l13.815,3.116l5.357,1.892l4.816,2.23
		l2.852,1.684c4.811,3.179,7.271,6.654,7.313,10.33l0.001,0.106L249.096,122.165z"/>
	<path d="M239.832,113.284l-2.633-1.552l-4.461-2.055l-4.984-1.752l-13.371-3.002l-9.581-1.088l-10.371-0.382l-8.064,0.23
		c-0.962,0.099-10.976,1.133-11.67,1.207c-4.926,0.756-9.46,1.77-13.503,3.017l-2.078,0.675l-4.758,1.859l-3.996,2.044l-1.861,1.187
		c-3.241,2.255-4.918,4.52-4.918,6.687c0,0.247,0.025,0.5,0.081,0.796l0.008,0.042l0.386,1.153c0.659,1.413,1.964,2.857,3.88,4.295
		c3.316,2.475,8.256,4.715,14.281,6.475l4.97,1.289l6.176,1.204l13.949,1.472l15.228-0.052l14.133-1.612l6.938-1.466l3.1-0.841
		c5.996-1.751,10.935-3.992,14.244-6.471c1.93-1.438,3.243-2.894,3.907-4.332l0.352-1.133l0.093-0.979
		C245.23,117.97,243.389,115.644,239.832,113.284z"/>
	<path d="M194.396,165.025c-25.912,0-46.943,7.276-47.273,16.295c-0.003,0.072-0.016,0.143-0.016,0.215
		c0,0.372,0.048,0.739,0.117,1.105c0.05,0.264,0.119,0.525,0.204,0.786c0.028,0.087,0.069,0.173,0.102,0.26
		c0.064,0.172,0.126,0.345,0.205,0.515c0.049,0.104,0.11,0.207,0.164,0.311c0.079,0.151,0.154,0.303,0.245,0.452
		c0.066,0.109,0.145,0.218,0.218,0.326c0.094,0.142,0.186,0.283,0.29,0.424c0.084,0.112,0.18,0.224,0.271,0.335
		c0.108,0.134,0.215,0.269,0.333,0.4c0.102,0.115,0.215,0.228,0.324,0.342c0.121,0.126,0.241,0.253,0.371,0.378
		c0.121,0.116,0.251,0.23,0.379,0.346c0.134,0.12,0.267,0.24,0.408,0.359c0.139,0.116,0.285,0.231,0.432,0.346
		c0.146,0.114,0.29,0.229,0.442,0.343c0.157,0.115,0.321,0.23,0.485,0.345c0.156,0.109,0.313,0.218,0.476,0.326
		c0.175,0.115,0.356,0.229,0.539,0.344c0.165,0.103,0.33,0.206,0.501,0.308c0.195,0.115,0.396,0.229,0.598,0.343
		c0.172,0.098,0.346,0.194,0.523,0.29c0.214,0.114,0.434,0.229,0.655,0.342c0.178,0.09,0.357,0.181,0.541,0.27
		c0.233,0.114,0.473,0.228,0.715,0.34c0.184,0.084,0.369,0.169,0.557,0.252c0.255,0.113,0.513,0.226,0.775,0.336
		c0.185,0.078,0.373,0.155,0.562,0.232c0.279,0.113,0.561,0.225,0.848,0.335c0.183,0.07,0.367,0.14,0.554,0.209
		c0.304,0.112,0.61,0.225,0.923,0.335c0.179,0.063,0.36,0.124,0.542,0.186c0.331,0.113,0.664,0.225,1.004,0.334
		c0.17,0.055,0.344,0.107,0.517,0.162c0.36,0.112,0.724,0.224,1.094,0.332c0.156,0.046,0.316,0.091,0.475,0.136
		c0.396,0.113,0.794,0.225,1.2,0.334c0.136,0.036,0.273,0.07,0.41,0.106c0.436,0.113,0.874,0.226,1.321,0.335
		c0.106,0.025,0.216,0.051,0.323,0.076c0.484,0.115,0.972,0.229,1.469,0.339c0.06,0.013,0.12,0.025,0.18,0.038
		c6.49,1.414,14.033,2.295,22.128,2.465c0.029,0,0.059,0.001,0.088,0.002c0.921,0.019,1.849,0.031,2.783,0.031
		c0.01,0,0.02,0,0.029,0c0.082,0,0.162-0.002,0.244-0.003c0.822-0.001,1.64-0.01,2.452-0.026c0.2-0.004,0.397-0.011,0.598-0.016
		c0.788-0.021,1.573-0.044,2.351-0.077c0.019-0.001,0.037-0.002,0.055-0.003c22.013-0.929,39.358-7.133,41.357-14.886
		c0.128-0.494,0.203-0.993,0.203-1.498C241.686,172.417,220.515,165.025,194.396,165.025z M157.793,177.742
		c-1.357,0.755-2.439,1.52-3.175,2.314c-0.44,0.487-0.765,0.937-0.765,1.416c0,1.223-1.082,2.209-2.41,2.209
		c-1.33,0-2.41-0.984-2.41-2.209c0-2.439,2.094-5.193,6.264-7.508c7.785-4.324,23.145-7.89,39.191-7.89
		c1.33,0,2.41,0.993,2.41,2.209c0,1.224-1.08,2.219-2.41,2.219C179.475,170.503,165.07,173.697,157.793,177.742z M194.488,176.824
		c-11.754,0-21.957,1.779-27.018,3.863c-0.908,0.373-1.873,1.015-2.143,1.205c-0.221,1.014-1.195,1.789-2.37,1.789
		c-1.33,0-2.41-0.986-2.41-2.209c0-0.832,0.354-1.75,1.253-2.631c0.736-0.708,1.979-1.482,3.691-2.189
		c5.441-2.238,16.383-4.246,28.996-4.246c1.33,0,2.41,0.984,2.41,2.209C196.898,175.839,195.818,176.824,194.488,176.824z
		 M198.045,184.752c11.189,0,20.926-2.037,25.756-4.256c0.899-0.411,1.855-1.119,2.104-1.301c0.193-1.023,1.139-1.799,2.266-1.799
		c1.273,0,2.305,0.976,2.305,2.162c0,0.803-0.324,1.701-1.156,2.571c-0.698,0.718-1.875,1.513-3.5,2.259
		c-5.203,2.391-15.694,4.686-27.773,4.686c-1.271,0-2.305-0.967-2.305-2.161S196.773,184.752,198.045,184.752z M233.509,186.982
		c-6.647,4.494-20.026,8.396-35.463,8.396c-1.272,0-2.305-0.976-2.305-2.171s1.034-2.161,2.305-2.161
		c12.271,0,23.173-2.563,29.916-5.93c2.075-1.033,3.739-2.134,4.867-3.253c0.784-0.793,1.33-1.53,1.33-2.305
		c0-1.186,1.032-2.162,2.305-2.16c1.272,0,2.306,0.976,2.306,2.162C238.77,181.932,237.029,184.62,233.509,186.982z"/>
	<path d="M132.774,120.617l0-0.279c0.005-5.591,3.09-10.811,8.921-15.093c5.458-4.001,13.977-7.422,23.987-9.632
		c-1.326-3.238-3.542-5.685-6.773-7.481c-0.27-0.15-0.501-0.36-0.677-0.615c-13.665-19.872-15.015-41.448-15.226-61.844
		c-4.289,1.173-9.742,1.133-13.959-0.1l-0.027,0.682c-0.874,21.773-1.776,44.288-14.078,61.286
		c-0.216,0.299-0.511,0.532-0.852,0.674c-4.501,1.874-7.515,6.031-8.957,12.356c6.316,1.747,11.585,4.088,15.237,6.772
		c3.693,2.708,6.16,6.025,7.13,9.592c0.059,0.206,0.116,0.437,0.17,0.71c0.186,0.883,0.282,1.803,0.282,2.712
		c0,0.655-0.049,1.316-0.146,1.967l-0.025,105.166c2.64,0.236,5.473,0.355,8.42,0.355c2.169,0,4.281-0.064,6.277-0.191
		l-9.698-106.853C132.777,120.74,132.774,120.679,132.774,120.617z"/>
	<path d="M150.27,199.412l4.775,52.611c0.016,0.116,0.02,0.229,0.02,0.345c0,0.907,0.446,1.873,1.328,2.872
		c1.119,1.279,2.826,2.521,5.077,3.698c7.585,3.934,19.916,6.284,32.98,6.284c13.059,0,25.385-2.351,32.973-6.286
		c2.251-1.171,3.961-2.413,5.082-3.692c0.884-1.003,1.33-1.969,1.33-2.876l0.006-0.309l4.779-52.647
		c-10.524,5.555-27.071,8.941-44.17,8.941C177.346,208.354,160.796,204.967,150.27,199.412z"/>
	<path d="M115.968,139.386c-9.541,4.46-23.407,7.135-37.708,7.135c-14.3,0-28.167-2.675-37.708-7.135l0,112.982
		c0,0.661,0.518,1.391,0.952,1.886c0.998,1.139,2.562,2.266,4.649,3.353c7.377,3.829,19.445,6.116,32.279,6.116
		c12.784,0,24.761-2.284,32.039-6.11c2.034-1.067,3.564-2.186,4.55-3.325c0.627-0.727,0.946-1.374,0.946-1.92
		c0-0.428,0.036-0.831,0.078-1.212c-0.052-0.287-0.078-0.579-0.078-0.873V139.386z"/>
	<path d="M83.183,108.119l-0.114-0.008c-0.603-0.023-1.309-0.047-2.022-0.064l-0.45-0.012c-0.748-0.015-1.498-0.025-2.253-0.025
		l-0.108-2.001v2c-0.964,0-1.917,0.017-2.864,0.04l-0.418,0.011c-19.526,0.56-32.614,5.915-35.017,10.67
		c-0.289,0.572-0.429,1.104-0.429,1.628c0,0.724,0.256,1.452,0.782,2.227c3.192,4.7,16.385,9.675,35.425,10.092l0.124,0.003
		c0.85,0.018,1.621,0.027,2.397,0.027l0.013,0c1.559-0.002,3.117-0.036,4.696-0.101c20.035-0.843,32.97-6.58,33.949-11.641
		c0.048-0.25,0.07-0.443,0.07-0.609c0-0.743-0.268-1.489-0.817-2.281C112.552,112.901,98.997,108.807,83.183,108.119z
		 M111.123,126.068c-0.336,0.196-0.848,0.472-1.383,0.668c-2.863,1.039-7.256,1.634-12.061,1.634c-4.217,0-8.12-0.458-10.99-1.288
		c-1.595-0.46-2.881-0.894-3.651-1.896l-0.021-0.013c-1.427,0.385-2.97,0.581-4.585,0.581c-3.266,0-6.247-0.803-8.179-2.202
		c-0.537-0.389-1.964-1.422-1.964-3.193c0-1.768,1.427-2.802,1.963-3.192c1.943-1.401,4.923-2.203,8.18-2.203
		c3.261,0,6.242,0.802,8.18,2.201c0.54,0.39,1.968,1.423,1.968,3.194c0,0.278-0.039,0.549-0.114,0.81
		c2.631-0.554,5.819-0.848,9.213-0.848c4.808,0,9.201,0.595,12.055,1.631c0.399,0.144,0.848,0.356,1.363,0.647l3.027,1.71
		L111.123,126.068z"/>
	<path d="M78.431,118.965c-2.356,0-4.502,0.521-5.766,1.396c1.256,0.875,3.402,1.395,5.766,1.395c1.255,0,2.49-0.156,3.572-0.451
		c0.341-0.092,0.689-0.139,1.037-0.139l0.423,0.036c0.214,0.019,0.47,0.067,0.718,0.143c0.095,0.029,0.185,0.061,0.273,0.095
		c-0.016-0.285-0.001-0.571,0.044-0.855c-0.058-0.048-0.133-0.106-0.23-0.177C83.018,119.505,80.834,118.965,78.431,118.965z"/>
</g>
</svg>
