<?xml version="1.0" encoding="utf-8"?>
<!-- Generator: Adobe Illustrator 15.1.0, SVG Export Plug-In . SVG Version: 6.00 Build 0)  -->
<!DOCTYPE svg PUBLIC "-//W3C//DTD SVG 1.1//EN" "http://www.w3.org/Graphics/SVG/1.1/DTD/svg11.dtd">
<svg version="1.1" id="Layer_3" xmlns="http://www.w3.org/2000/svg" xmlns:xlink="http://www.w3.org/1999/xlink" x="0px" y="0px"
	 width="283.46px" height="283.46px" viewBox="0 0 283.46 283.46" enable-background="new 0 0 283.46 283.46" xml:space="preserve">
<g>
	<path d="M267.659,169.203c3.32,0,6.334,1.314,8.569,3.441L228.147,37.483l-0.294-0.826l-0.045-0.128h-0.004
		c-1.2-2.951-3.301-4.914-5.698-4.914H61.356c-2.399,0-4.5,1.963-5.698,4.914h-0.004l-0.038,0.107l-0.307,0.862L7.233,172.646
		c2.234-2.129,5.248-3.443,8.569-3.443H267.659z"/>
	<path d="M267.659,172.937H15.802c-4.808,0-8.718,3.912-8.718,8.719v61.473c0,4.807,3.91,8.717,8.718,8.717h251.856
		c4.806,0,8.717-3.91,8.717-8.717v-61.473C276.375,176.849,272.464,172.937,267.659,172.937z M202.253,222.972
		c-5.844,0-10.581-4.736-10.581-10.582c0-5.842,4.737-10.578,10.581-10.578c5.842,0,10.579,4.736,10.579,10.578
		C212.833,218.236,208.095,222.972,202.253,222.972z M244.593,222.972c-5.844,0-10.581-4.736-10.581-10.582
		c0-5.842,4.737-10.578,10.581-10.578c5.842,0,10.579,4.736,10.579,10.578C255.172,218.236,250.435,222.972,244.593,222.972z"/>
</g>
</svg>
