<?xml version="1.0" encoding="utf-8"?>
<!-- Generator: Adobe Illustrator 15.1.0, SVG Export Plug-In . SVG Version: 6.00 Build 0)  -->
<!DOCTYPE svg PUBLIC "-//W3C//DTD SVG 1.0//EN" "http://www.w3.org/TR/2001/REC-SVG-20010904/DTD/svg10.dtd">
<svg version="1.0" id="Layer_2" xmlns="http://www.w3.org/2000/svg" xmlns:xlink="http://www.w3.org/1999/xlink" x="0px" y="0px"
	 width="283.46px" height="283.46px" viewBox="0 0 283.46 283.46" enable-background="new 0 0 283.46 283.46" xml:space="preserve">
<g>
	<path d="M141.73,24.324c0,0-81.556,107.282-81.556,153.257c0,45.012,36.542,81.557,81.556,81.557
		c45.008,0,81.557-36.547,81.557-81.557C223.287,131.604,141.73,24.324,141.73,24.324z M176.36,226.254l-8.637-15.187
		c8.476-4.821,14.441-12.935,16.793-22.848c2.406-10.139,0.771-20.933-4.606-30.389l15.186-8.637
		c7.569,13.313,9.85,28.602,6.418,43.059C198.03,206.938,189.096,219.013,176.36,226.254z"/>
</g>
</svg>
