<?xml version="1.0" encoding="utf-8"?>
<!-- Generator: Adobe Illustrator 15.1.0, SVG Export Plug-In . SVG Version: 6.00 Build 0)  -->
<!DOCTYPE svg PUBLIC "-//W3C//DTD SVG 1.1//EN" "http://www.w3.org/Graphics/SVG/1.1/DTD/svg11.dtd">
<svg version="1.1" id="Layer_3" xmlns="http://www.w3.org/2000/svg" xmlns:xlink="http://www.w3.org/1999/xlink" x="0px" y="0px"
	 width="283.465px" height="283.465px" viewBox="0 0 283.465 283.465" enable-background="new 0 0 283.465 283.465"
	 xml:space="preserve">
<g>
	<path fill="#231F20" d="M141.733,27.285c-63.283,0-114.448,51.389-114.448,114.449c0,49.571,31.612,91.743,75.566,107.469
		c-5.885-24.673-22.395-94.579-26.195-133.727C73.963,87.874,88.772,72.614,117.722,68.8c-12.566-4.04-34.785-2.918-34.785-2.918
		c0.45-7.63,11.672-9.201,11.672-9.201c-5.836-2.917-10.996-4.487-10.996-4.487c30.968-4.264,50.49,6.283,58.796,17.279
		c33.66,8.078,39.045,46.679,39.045,57.674c0,4.348-0.344,7.846-0.965,10.667c8.236-1.822,16.545-4.44,23.388-6.602
		c7.415-2.341,13.271-4.189,16.214-4.189l0.211,0.004c7.588,0.23,12.889,3.232,12.889,7.302c0,5.59-39.383,22.877-55.977,22.88
		c0,0-0.003,0-0.004,0c-0.744,0-1.449-0.032-2.115-0.098c-3.371-0.299-6.08-0.442-8.272-0.442c-8.255,0-9.707,1.986-9.707,6.159
		c0,4.407,9.75,9.529,22.321,9.529c8.42,0,16.609-1.723,23.834-3.241c5.218-1.1,9.723-2.046,13.103-2.046
		c2.127,0,3.702,0.383,4.813,1.169c1.027,0.733,1.367,1.841,0.959,3.114c-1.748,5.453-17.354,13.811-33.284,13.811
		c-12.843,0-34.156-4.271-45.862-12.309c-0.234,2.627-0.365,5.545-0.365,8.824c0,10.885,3.539,23.414,8.133,35.104
		c0.428-0.088,0.857-0.167,1.291-0.241c0.097-0.016,0.188-0.03,0.285-0.047c0.938-0.151,1.875-0.267,2.779-0.344
		c0.088-0.009,0.178-0.015,0.266-0.022c0.775-0.059,1.527-0.093,2.223-0.093c0.105,0,0.201,0.005,0.304,0.007
		c0.085,0.002,0.169,0.004,0.252,0.004c0.375,0.01,0.739,0.026,1.072,0.057c0.008,0,0.015,0.002,0.022,0.002
		c0.322,0.029,0.614,0.072,0.889,0.121c0.076,0.013,0.146,0.025,0.219,0.041c0.262,0.055,0.502,0.115,0.705,0.188
		c0.008,0.003,0.016,0.007,0.023,0.009c0.199,0.074,0.355,0.164,0.488,0.258c0.036,0.024,0.068,0.049,0.098,0.076
		c0.119,0.103,0.213,0.213,0.25,0.338c0.226,0.447,0.449,1.346,0.674,2.469c0.345-0.248,0.725-0.521,1.134-0.813
		c0.09-0.063,0.192-0.137,0.285-0.202c0.327-0.236,0.663-0.475,1.024-0.732c0.145-0.1,0.301-0.211,0.447-0.313
		c0.331-0.235,0.663-0.47,1.016-0.716c0.18-0.126,0.369-0.257,0.553-0.387c0.342-0.236,0.679-0.473,1.033-0.717
		c0.209-0.146,0.427-0.293,0.64-0.438c0.342-0.235,0.683-0.47,1.036-0.708c0.232-0.158,0.468-0.316,0.703-0.475
		c0.351-0.233,0.697-0.469,1.053-0.703c0.245-0.163,0.49-0.322,0.738-0.485c0.347-0.228,0.689-0.452,1.039-0.677
		c0.262-0.169,0.521-0.335,0.785-0.502c0.34-0.217,0.676-0.432,1.016-0.643c0.265-0.166,0.527-0.326,0.792-0.49
		c0.331-0.203,0.661-0.401,0.987-0.6c0.267-0.158,0.525-0.313,0.787-0.465c0.321-0.188,0.642-0.372,0.955-0.55
		c0.258-0.146,0.508-0.285,0.762-0.425c0.307-0.17,0.609-0.332,0.908-0.489c0.246-0.129,0.485-0.253,0.725-0.372
		c0.287-0.146,0.566-0.281,0.844-0.414c0.229-0.109,0.455-0.212,0.675-0.313c0.263-0.115,0.515-0.223,0.763-0.321
		c0.211-0.085,0.418-0.166,0.617-0.238c0.232-0.084,0.454-0.155,0.67-0.222c0.187-0.057,0.365-0.108,0.537-0.15
		c0.2-0.05,0.385-0.08,0.563-0.107c0.155-0.023,0.31-0.045,0.448-0.053c0.058-0.004,0.129-0.021,0.186-0.021
		c0.189,0,0.361,0.02,0.518,0.054c4.711,1.122,5.608,35.009,1.57,36.13c-0.177,0.063-0.404,0.1-0.654,0.122
		c-0.068,0.009-0.147,0.011-0.225,0.015c-0.095,0.004-0.177,0.016-0.277,0.016c-0.099,0-0.22-0.014-0.324-0.018
		c-0.139-0.006-0.276-0.013-0.426-0.022c-0.217-0.019-0.447-0.043-0.687-0.074c-0.159-0.021-0.313-0.038-0.483-0.063
		c-0.267-0.041-0.549-0.092-0.837-0.146c-0.167-0.03-0.327-0.058-0.5-0.094c-0.331-0.067-0.683-0.146-1.036-0.228
		c-0.152-0.035-0.295-0.063-0.449-0.102c-0.516-0.122-1.045-0.257-1.596-0.402c-0.001,0-0.003-0.002-0.006-0.002
		c-0.563-0.15-1.141-0.312-1.73-0.481c-0.145-0.042-0.295-0.087-0.439-0.13c-0.445-0.131-0.893-0.262-1.346-0.401
		c-0.199-0.062-0.401-0.125-0.602-0.188c-0.408-0.127-0.814-0.254-1.228-0.385c-0.224-0.074-0.446-0.146-0.67-0.22
		c-0.392-0.127-0.78-0.254-1.171-0.384c-0.235-0.079-0.469-0.158-0.702-0.237c-0.382-0.127-0.761-0.256-1.136-0.386
		c-0.234-0.081-0.465-0.16-0.696-0.24c-0.379-0.134-0.755-0.264-1.128-0.396c-0.217-0.076-0.432-0.151-0.643-0.229
		c-0.384-0.136-0.758-0.271-1.127-0.404c-0.193-0.068-0.387-0.14-0.576-0.209c-0.379-0.138-0.746-0.271-1.108-0.406
		c-0.17-0.063-0.345-0.129-0.513-0.189c-0.389-0.146-0.76-0.285-1.125-0.423c-0.115-0.044-0.237-0.091-0.352-0.132
		c-0.473-0.18-0.925-0.354-1.345-0.516c-0.224,0.446-0.448,0.896-0.897,1.121c-0.019,0.01-0.039,0.021-0.059,0.033
		c0-0.001,0-0.001,0-0.003c0.02-0.088,0.04-0.161,0.059-0.256c-3.365,2.021-11.668,2.917-16.156,1.795
		c-0.752-0.144-1.33-0.396-1.795-0.744c-2.422-1.817-1.363-6.558-1.349-15.665c0-0.068,0.002-0.129,0.002-0.195
		c-0.062,0.035-0.11,0.078-0.17,0.115c-1.036,0.658-1.851,1.504-1.851,2.352c0,7.959-0.928,12.729,0.425,15.021
		c0.29,0.491,0.678,0.879,1.211,1.148c0.415,0.209,0.909,0.354,1.507,0.438c4.496,1.07,12.656,0.096,16.518-1.75
		c3.105,5.994,5.967,10.982,7.942,14.317c50.043-12.118,87.294-57.226,87.519-111.081C256.182,78.45,205.016,27.285,141.733,27.285z
		"/>
	<path fill="#231F20" d="M141.733,7.087C67.37,7.087,7.088,67.37,7.088,141.733c0,74.361,60.281,134.645,134.646,134.645
		s134.644-60.283,134.644-134.644C276.377,67.371,216.096,7.087,141.733,7.087z M229.252,229.253
		c-11.443,11.221-24.686,20.196-39.271,26.48c-15.26,6.283-31.643,9.648-48.247,9.648c-16.83,0-32.988-3.143-48.247-9.648
		c-14.587-6.284-27.826-15.036-39.272-26.48c-11.221-11.221-20.196-24.461-26.479-39.271c-6.284-15.26-9.649-31.417-9.649-48.246
		c0-16.832,3.141-32.988,9.649-48.249c6.282-14.588,15.033-27.827,26.479-39.271c11.22-11.447,24.46-20.423,39.272-26.482
		c15.259-6.283,31.642-9.648,48.247-9.648c16.829,0,32.987,3.143,48.247,9.648c14.587,6.283,27.828,15.035,39.271,26.481
		c11.221,11.219,20.197,24.459,26.479,39.271c6.51,15.261,9.65,31.417,9.65,48.249c0,16.829-3.142,32.985-9.65,48.247
		C249.45,204.567,240.698,217.808,229.252,229.253z"/>
	<path fill="#231F20" d="M222.143,171.353c0.408-1.273,0.067-2.381-0.959-3.114c-1.11-0.786-2.687-1.169-4.813-1.169
		c-3.38,0-7.885,0.946-13.103,2.046c-7.225,1.521-15.414,3.241-23.834,3.241c-12.571,0-22.321-5.122-22.321-9.529
		c0-4.173,1.452-6.159,9.707-6.159c2.192,0,4.901,0.145,8.272,0.442c0.666,0.064,1.371,0.098,2.115,0.098c0.001,0,0.003,0,0.003,0
		c16.595-0.003,55.978-17.29,55.978-22.88c0-4.068-5.301-7.07-12.889-7.302l-0.211-0.004c-2.941,0-8.799,1.85-16.214,4.189
		c-6.843,2.16-15.149,4.778-23.388,6.602c-5.971,1.32-11.903,2.229-17.212,2.229c-7.642,0-28.62,4.814-28.62,20.316
		c0,4.846,3.277,9.021,8.34,12.496c11.706,8.037,33.02,12.309,45.861,12.309C204.789,185.163,220.395,176.806,222.143,171.353z
		 M163.276,141.628c12.879,0,29.178-5.146,41.079-8.903c6.994-2.208,13.035-4.114,15.734-4.114l0.16,0.003
		c7.373,0.224,11.352,3.11,11.352,5.715c0,3.521-36.617,21.29-54.391,21.293c-0.002,0-0.002,0-0.003,0
		c-0.69,0-1.344-0.029-1.968-0.091c-3.428-0.304-6.182-0.449-8.421-0.449c-8.339,0-11.294,2.025-11.294,7.746
		c0,5.922,11.172,11.117,23.908,11.117c8.586,0,17.222-1.816,24.16-3.276c5.131-1.079,9.561-2.012,12.775-2.012
		c1.788,0,3.063,0.287,3.893,0.876c0.32,0.229,0.615,0.566,0.369,1.337c-1.396,4.351-15.771,12.707-31.773,12.707
		c-18.549,0-52.615-8.813-52.615-23.218C136.243,146.067,156.057,141.628,163.276,141.628z"/>
	<path d="M104.25,248.224l2.192,0.729l0.313,0.104c-5.52-22.947-20.791-88.536-27.858-139.873c-0.354-2.605-0.475-5.036-0.396-7.306
		c-0.629,4.078-0.715,8.557-0.265,13.452C80.813,141.873,89.566,186.587,104.25,248.224z"/>
	<path fill="#231F20" d="M141.485,238.662c-13.738,7.517-18.798,9.171-20.578,9.171c-0.073,0-0.126-0.003-0.162-0.008
		c-2.428-2.54-3.566-27.473-2.79-35.246l0.008-0.084c0.108-0.045,0.379-0.125,0.939-0.125c5.228,0.001,18.826,6.459,23.945,8.891
		l0.063,0.029c0.06-0.037,0.108-0.081,0.17-0.115c0,0.066-0.002,0.127-0.002,0.195l0.815,0.389l0.791-0.848
		c1.767-1.881,8.277-3.288,12.92-3.288c1.726,0,2.619,0.205,2.953,0.332c0.08,0.211,0.244,0.733,0.488,1.96l0.483,2.416l1.999-1.439
		c16.242-11.697,21.253-13.443,22.793-13.443c0.033,0,0.063,0.001,0.084,0.003c0.505,0.438,1.829,3.129,2.566,11.062
		c1.014,10.926,0.021,20.601-1.162,22.056c-0.086,0.019-0.26,0.042-0.559,0.042c-3.926,0-15.063-3.771-23.404-7.001l-1.349-0.522
		l-0.646,1.295c-0.07,0.143-0.174,0.353-0.239,0.438l-0.022,0.013l-0.072,0.046c-1.93,1.24-6.848,2.213-11.194,2.213
		c-1.636,0-3.082-0.141-4.187-0.401l-0.182-0.044h-0.186h-0.221h-0.418l-0.361,0.201c-0.119,0.066-0.227,0.125-0.346,0.191
		c0.465,0.348,1.043,0.602,1.795,0.744c4.486,1.122,12.791,0.225,16.155-1.795c-0.019,0.095-0.04,0.168-0.06,0.256
		c0.018-0.011,0.043-0.021,0.06-0.031c0.449-0.225,0.675-0.674,0.897-1.121c0.42,0.162,0.871,0.336,1.345,0.517
		c0.112,0.042,0.235,0.088,0.351,0.132c0.365,0.139,0.736,0.277,1.127,0.423c0.166,0.062,0.342,0.126,0.512,0.188
		c0.361,0.136,0.729,0.271,1.109,0.408c0.188,0.068,0.383,0.14,0.574,0.209c0.37,0.133,0.744,0.269,1.127,0.403
		c0.213,0.076,0.428,0.152,0.643,0.229c0.373,0.133,0.75,0.263,1.129,0.396c0.23,0.079,0.462,0.159,0.695,0.24
		c0.377,0.13,0.756,0.259,1.137,0.386c0.232,0.079,0.467,0.158,0.701,0.237c0.392,0.13,0.779,0.257,1.172,0.384
		c0.224,0.073,0.445,0.146,0.67,0.219c0.412,0.133,0.818,0.26,1.228,0.387c0.199,0.063,0.401,0.125,0.601,0.188
		c0.455,0.141,0.9,0.271,1.347,0.4c0.146,0.044,0.296,0.089,0.438,0.131c0.592,0.171,1.17,0.332,1.731,0.482
		c0.003,0,0.005,0,0.006,0c0.55,0.146,1.08,0.281,1.595,0.403c0.155,0.037,0.299,0.065,0.449,0.101
		c0.354,0.082,0.705,0.16,1.037,0.229c0.173,0.034,0.333,0.063,0.5,0.094c0.288,0.055,0.57,0.104,0.837,0.146
		c0.167,0.023,0.324,0.043,0.483,0.063c0.238,0.031,0.47,0.057,0.686,0.074c0.148,0.012,0.288,0.018,0.426,0.023
		c0.105,0.002,0.228,0.017,0.324,0.017c0.102,0,0.184-0.011,0.278-0.017c0.075-0.004,0.155-0.006,0.226-0.014
		c0.25-0.023,0.477-0.059,0.653-0.121c4.038-1.123,3.142-35.009-1.571-36.131c-0.154-0.035-0.326-0.054-0.517-0.054
		c-0.056,0-0.128,0.019-0.187,0.021c-0.14,0.008-0.293,0.029-0.447,0.053c-0.18,0.027-0.363,0.06-0.563,0.109
		c-0.171,0.041-0.353,0.094-0.538,0.149c-0.215,0.065-0.438,0.138-0.669,0.222c-0.2,0.072-0.405,0.153-0.616,0.238
		c-0.248,0.1-0.5,0.206-0.764,0.322c-0.22,0.1-0.445,0.203-0.675,0.312c-0.276,0.132-0.558,0.269-0.845,0.414
		c-0.237,0.119-0.479,0.243-0.725,0.372c-0.298,0.158-0.602,0.32-0.908,0.488c-0.25,0.141-0.504,0.279-0.761,0.426
		c-0.313,0.178-0.634,0.361-0.955,0.55c-0.262,0.153-0.521,0.308-0.786,0.466c-0.328,0.196-0.658,0.396-0.988,0.6
		c-0.264,0.162-0.527,0.324-0.793,0.49c-0.34,0.211-0.676,0.426-1.015,0.642c-0.264,0.167-0.524,0.333-0.786,0.502
		c-0.349,0.226-0.691,0.448-1.037,0.677c-0.248,0.161-0.494,0.322-0.74,0.485c-0.354,0.235-0.701,0.47-1.051,0.702
		c-0.234,0.158-0.474,0.316-0.705,0.476c-0.354,0.238-0.693,0.474-1.035,0.708c-0.213,0.146-0.432,0.295-0.639,0.438
		c-0.355,0.246-0.692,0.48-1.035,0.719c-0.183,0.129-0.375,0.26-0.553,0.386c-0.352,0.246-0.684,0.479-1.015,0.716
		c-0.147,0.104-0.306,0.215-0.448,0.314c-0.361,0.258-0.695,0.496-1.023,0.73c-0.094,0.065-0.196,0.141-0.285,0.203
		c-0.409,0.293-0.789,0.565-1.133,0.813c-0.226-1.123-0.449-2.021-0.674-2.47c-0.037-0.125-0.133-0.234-0.25-0.338
		c-0.029-0.025-0.063-0.051-0.099-0.074c-0.133-0.096-0.289-0.185-0.489-0.258c-0.008-0.004-0.016-0.006-0.022-0.01
		c-0.203-0.072-0.444-0.134-0.705-0.188c-0.071-0.016-0.144-0.029-0.22-0.043c-0.272-0.047-0.564-0.092-0.889-0.12
		c-0.008,0-0.015-0.003-0.021-0.003c-0.334-0.028-0.697-0.045-1.072-0.055c-0.083-0.002-0.167-0.004-0.252-0.004
		c-0.104-0.002-0.198-0.008-0.305-0.008c-0.693,0-1.445,0.034-2.223,0.094c-0.088,0.008-0.177,0.014-0.265,0.021
		c-0.905,0.076-1.841,0.191-2.78,0.344c-0.095,0.016-0.189,0.031-0.285,0.047c-0.433,0.074-0.863,0.153-1.291,0.241
		c-0.494,0.103-0.979,0.218-1.459,0.341c-0.097,0.025-0.19,0.051-0.287,0.074c-0.873,0.236-1.703,0.504-2.455,0.803
		c-0.088,0.034-0.174,0.07-0.26,0.105c-0.729,0.306-1.375,0.642-1.906,1.006c-0.066,0.045-0.131,0.092-0.191,0.137
		c-0.252,0.186-0.484,0.379-0.674,0.578c-0.365-0.174-0.754-0.357-1.146-0.544c-0.121-0.058-0.24-0.112-0.365-0.171
		c-0.4-0.189-0.813-0.385-1.239-0.583c-0.103-0.046-0.206-0.097-0.31-0.144c-0.355-0.166-0.721-0.334-1.091-0.506
		c-0.133-0.061-0.263-0.121-0.397-0.184c-0.455-0.209-0.918-0.42-1.389-0.633c-0.099-0.045-0.197-0.09-0.298-0.135
		c-0.419-0.188-0.843-0.377-1.271-0.566c-0.107-0.049-0.216-0.096-0.324-0.143c-0.496-0.221-0.998-0.438-1.501-0.656
		c-0.103-0.043-0.202-0.084-0.305-0.129c-0.468-0.2-0.937-0.398-1.405-0.596c-0.068-0.027-0.138-0.058-0.205-0.086
		c-0.519-0.216-1.034-0.426-1.55-0.632c-0.1-0.041-0.198-0.079-0.299-0.12c-1.049-0.416-2.086-0.813-3.093-1.173
		c-0.097-0.034-0.191-0.067-0.286-0.103c-0.503-0.178-1-0.351-1.483-0.508c-0.016-0.006-0.03-0.011-0.046-0.017
		c-0.465-0.151-0.917-0.291-1.36-0.423c-0.087-0.025-0.174-0.053-0.261-0.077c-0.448-0.131-0.888-0.25-1.309-0.354
		c-0.055-0.015-0.105-0.024-0.16-0.039c-0.376-0.092-0.738-0.17-1.089-0.239c-0.074-0.017-0.149-0.031-0.224-0.045
		c-0.375-0.07-0.732-0.124-1.071-0.165c-0.067-0.008-0.131-0.012-0.196-0.02c-0.295-0.029-0.573-0.048-0.837-0.051
		c-0.037-0.002-0.082-0.008-0.118-0.008c-0.014,0-0.021,0.003-0.034,0.003c-0.334,0.002-0.636,0.031-0.908,0.082
		c-0.048,0.008-0.097,0.019-0.144,0.026c-0.259,0.06-0.483,0.143-0.679,0.252c-0.034,0.021-0.063,0.043-0.097,0.063
		c-0.185,0.123-0.337,0.27-0.445,0.448c-0.014,0.022-0.021,0.051-0.035,0.073c-0.103,0.199-0.173,0.423-0.185,0.689
		c-0.673,6.733,0,34.784,3.59,36.805c0.15,0.088,0.354,0.135,0.578,0.162c0.058,0.008,0.118,0.012,0.179,0.016
		c0.064,0.005,0.116,0.018,0.186,0.018c0.108,0,0.249-0.023,0.369-0.033c0.131-0.011,0.257-0.017,0.398-0.035
		c0.206-0.03,0.435-0.078,0.667-0.129c0.15-0.033,0.291-0.059,0.451-0.099c0.271-0.067,0.564-0.157,0.862-0.248
		c0.149-0.047,0.287-0.081,0.443-0.134c0.407-0.133,0.84-0.286,1.285-0.452c0.063-0.024,0.119-0.042,0.183-0.063
		c0.516-0.195,1.055-0.412,1.609-0.645c0.18-0.074,0.371-0.158,0.555-0.238c0.386-0.164,0.77-0.328,1.167-0.506
		c0.235-0.105,0.479-0.218,0.717-0.328c0.358-0.164,0.718-0.326,1.084-0.498c0.267-0.127,0.535-0.256,0.806-0.386
		c0.349-0.167,0.694-0.333,1.047-0.505c0.285-0.141,0.572-0.281,0.858-0.425c0.344-0.17,0.687-0.341,1.029-0.515
		c0.291-0.146,0.582-0.297,0.873-0.444c0.34-0.175,0.678-0.347,1.016-0.522c0.293-0.15,0.584-0.302,0.874-0.453
		c0.34-0.179,0.675-0.354,1.011-0.531c0.28-0.148,0.562-0.299,0.837-0.444c0.331-0.177,0.653-0.351,0.977-0.524
		c0.275-0.146,0.552-0.295,0.82-0.44c0.328-0.179,0.644-0.351,0.961-0.522c0.242-0.133,0.488-0.268,0.726-0.396
		c0.055-0.031,0.11-0.061,0.164-0.09C142.163,239.541,141.775,239.153,141.485,238.662z"/>
	<path fill="#231F20" d="M152.954,98.421c5.162-4.04,11.444-4.937,18.401-0.897C165.969,90.568,156.32,90.343,152.954,98.421z"/>
	<path fill="#231F20" d="M111.438,97.75c-7.404-4.489-19.748-4.938-19.073,9.199C95.955,98.197,100.891,96.628,111.438,97.75z"/>
	<path fill="#231F20" d="M159.463,118.169c0,4.04,3.364,7.406,7.402,7.406c4.04,0,7.406-3.366,7.406-7.406
		c0-4.039-3.366-7.405-7.406-7.405C162.828,110.764,159.463,114.13,159.463,118.169z M169.559,113.233
		c1.348,0,2.244,0.896,2.244,2.243c-0.223,1.121-1.121,2.243-2.244,2.243c-1.121,0-2.242-0.896-2.242-2.243
		C167.316,114.354,168.213,113.233,169.559,113.233z"/>
	<path fill="#231F20" d="M109.419,114.804c-4.712,0-8.527,3.815-8.527,8.527c0,4.713,3.815,8.527,8.527,8.527
		c4.713,0,8.528-3.814,8.528-8.527C117.947,118.62,114.131,114.804,109.419,114.804z M112.56,122.658
		c-1.347,0-2.469-1.122-2.469-2.47c0-1.347,1.122-2.469,2.469-2.469c1.348,0,2.47,1.122,2.47,2.469
		C115.029,121.536,113.907,122.658,112.56,122.658z"/>
</g>
</svg>
