<?xml version="1.0" encoding="utf-8"?>
<!-- Generator: Adobe Illustrator 15.1.0, SVG Export Plug-In . SVG Version: 6.00 Build 0)  -->
<!DOCTYPE svg PUBLIC "-//W3C//DTD SVG 1.1//EN" "http://www.w3.org/Graphics/SVG/1.1/DTD/svg11.dtd">
<svg version="1.1" id="Layer_6" xmlns="http://www.w3.org/2000/svg" xmlns:xlink="http://www.w3.org/1999/xlink" x="0px" y="0px"
	 width="283.46px" height="283.46px" viewBox="0 0 283.46 283.46" enable-background="new 0 0 283.46 283.46" xml:space="preserve">
<g>
	<path d="M56.117,143.649c0.327,0.106,0.587,0.12,0.78,0.041c0.195-0.078,0.324-0.215,0.386-0.407
		c0.061-0.187,0.038-0.365-0.066-0.541c-0.107-0.175-0.303-0.309-0.586-0.4c-0.311-0.102-0.577-0.108-0.796-0.021
		c-0.219,0.087-0.357,0.224-0.418,0.412c-0.059,0.181-0.036,0.351,0.065,0.517C55.585,143.412,55.795,143.544,56.117,143.649z"/>
	<path d="M56.358,164.927c-0.144-0.074-0.313-0.08-0.505-0.018c-0.181,0.06-0.308,0.159-0.382,0.305
		c-0.074,0.146-0.081,0.306-0.023,0.484c0.06,0.187,0.164,0.315,0.309,0.391c0.147,0.074,0.311,0.082,0.492,0.022
		c0.192-0.063,0.325-0.165,0.396-0.312c0.074-0.143,0.08-0.307,0.021-0.486C56.606,165.13,56.504,165.001,56.358,164.927z"/>
	<path d="M90.882,187.748c-0.188,0-0.345,0.074-0.47,0.221c-0.125,0.148-0.188,0.39-0.188,0.724c0,0.347,0.067,0.601,0.203,0.759
		c0.135,0.161,0.304,0.24,0.507,0.24c0.195,0,0.36-0.074,0.496-0.229c0.136-0.154,0.203-0.379,0.203-0.68
		c0-0.332-0.076-0.586-0.228-0.766C91.251,187.837,91.077,187.748,90.882,187.748z"/>
	<path d="M70.497,126.684c0.188,0.151,0.343,0.23,0.464,0.237c0.125,0.006,0.235-0.027,0.333-0.099
		c0.102-0.072,0.167-0.17,0.197-0.29c0.032-0.12,0.012-0.276-0.065-0.472c-0.097-0.252-0.329-0.63-0.693-1.134
		c-0.366-0.503-0.643-0.831-0.831-0.982c-0.188-0.151-0.341-0.231-0.466-0.239c-0.123-0.007-0.234,0.026-0.333,0.099
		c-0.1,0.071-0.167,0.168-0.198,0.288c-0.03,0.12-0.01,0.277,0.066,0.473c0.097,0.255,0.33,0.633,0.696,1.136
		C70.032,126.205,70.31,126.533,70.497,126.684z"/>
	<path d="M58.677,164.083C58.49,164,58.261,164,57.991,164.087c-0.236,0.078-0.404,0.207-0.504,0.387
		c-0.1,0.18-0.117,0.372-0.05,0.576c0.077,0.234,0.214,0.386,0.416,0.447c0.202,0.063,0.396,0.063,0.586,0.002
		c0.266-0.086,0.452-0.222,0.556-0.408c0.106-0.185,0.125-0.379,0.058-0.581C58.987,164.31,58.862,164.167,58.677,164.083z"/>
	<polygon points="124.086,165.101 125.81,165.66 124.462,163.94 	"/>
	<path d="M91,181.35c6.321,0,12.499-2.242,17.396-6.312c5.552-4.498,8.997-10.947,9.708-18.162
		c0.724-7.346-1.468-14.506-6.17-20.164c-5.201-6.259-12.83-9.849-20.932-9.849c-6.321,0-12.499,2.241-17.396,6.311
		c-5.609,4.661-9.065,11.206-9.732,18.428s1.534,14.289,6.195,19.898C75.27,177.76,82.898,181.35,91,181.35z M93.088,131.496
		c5.852,0.54,11.218,3.449,15.346,8.124c4.105,4.94,5.719,10.721,5.178,16.573c-0.392,4.256-2.115,8.391-4.854,11.895
		l-28.251-33.995C84.452,132.04,88.832,131.103,93.088,131.496z M74.552,134.343c0.78-0.66,1.949-0.564,2.612,0.214l7.422,8.741
		c0.663,0.781,0.567,1.949-0.212,2.611c-0.78,0.661-1.948,0.567-2.611-0.213l-7.423-8.74
		C73.677,136.175,73.772,135.007,74.552,134.343z M68.39,152.02c0.393-4.256,2.115-8.388,4.854-11.893l28.493,34.289
		c-9.294,4.772-20.925,2.896-27.929-5.529C69.438,163.921,67.85,157.875,68.39,152.02z"/>
	<path d="M228.751,58.032h-4.961V24.619c0-0.992-0.662-1.653-1.652-1.653c-0.994,0-1.656,0.661-1.656,1.653v33.413h-4.963v11.579
		h13.232V58.032z"/>
	<g>
		<path d="M87.49,276.875c-4.395,0-8.108-3.714-8.108-8.11v-43.83h-1.485c-0.276,0-0.5-0.224-0.5-0.5v-6.446H39.533
			c-6.137,0-11.13-6.31-11.13-14.064V20.649c0-7.755,4.993-14.064,11.13-14.064h103.193c6.139,0,11.133,6.309,11.133,14.064v183.276
			c0,7.886-4.89,14.063-11.133,14.063h-38.193v6.446c0,0.276-0.224,0.5-0.5,0.5h-1.816v21.666c0,1.734,1.458,2.809,2.808,2.809
			h111.158c1.733,0,2.807-1.458,2.807-2.809v-64.757c-2.423-1.205-3.971-3.671-3.971-6.371V76.227c0-0.276,0.224-0.5,0.5-0.5h13.232
			c0.276,0,0.5,0.224,0.5,0.5v99.246c0,3.225-2.202,6.055-5.291,6.879v64.579c0.31,1.813-0.201,3.666-1.445,5.135
			c-1.423,1.68-3.61,2.643-6.002,2.643H105.356c-4.396,0-8.109-3.713-8.109-8.107v-21.666h-1.816c-0.276,0-0.5-0.224-0.5-0.5v-6.446
			h-7.932v6.446c0,0.276-0.224,0.5-0.5,0.5h-2.147v44.161c0,1.734,1.458,2.808,2.809,2.808h154.823c1.736,0,2.811-1.457,2.811-2.808
			V204.67c-2.422-1.202-3.969-3.668-3.969-6.372V99.054c0-0.276,0.224-0.5,0.5-0.5h13.231c0.276,0,0.5,0.224,0.5,0.5v99.244
			c0,3.226-2.203,6.056-5.295,6.879v63.587c0.318,2.034-0.237,4.053-1.57,5.606c-1.365,1.591-3.387,2.504-5.545,2.504H87.49z
			 M91.717,189.494c0.063,0,0.126,0.012,0.188,0.036c0.2,0.081,0.325,0.28,0.312,0.495c-0.021,0.327-0.055,0.599-0.106,0.824
			c0.106-0.332,0.162-0.762,0.162-1.273c0-0.812-0.139-1.409-0.403-1.727c-0.25-0.303-0.547-0.443-0.936-0.443
			c-0.362,0-0.646,0.111-0.868,0.34c-0.227,0.233-0.337,0.547-0.337,0.959c0,0.384,0.104,0.681,0.319,0.909
			c0.209,0.224,0.44,0.327,0.727,0.327c0.227,0,0.405-0.086,0.563-0.271C91.433,189.555,91.573,189.494,91.717,189.494z
			 M68.266,184.079c-0.047-0.095-0.064-0.203-0.044-0.312c0.003-0.016,0.007-0.031,0.011-0.047c-0.102,0.028-0.2,0.053-0.296,0.072
			l-0.022,0.031L68.266,184.079z M110.077,182.411c0.044,0.184,0.125,0.355,0.245,0.521c0.186,0.257,0.396,0.426,0.638,0.512
			c-0.222-0.113-0.427-0.299-0.611-0.555C110.231,182.728,110.14,182.569,110.077,182.411z M91.002,125.882
			c-6.549,0-12.95,2.322-18.023,6.537c-5.811,4.829-9.392,11.61-10.083,19.093c-0.692,7.483,1.587,14.805,6.417,20.615
			c5.389,6.484,13.293,10.204,21.688,10.204c6.548,0,12.947-2.319,18.017-6.531c5.755-4.663,9.328-11.348,10.064-18.825
			c0.75-7.61-1.521-15.03-6.392-20.89C107.301,129.601,99.396,125.882,91.002,125.882z M55.874,164.459
			c-0.073,0-0.148,0.013-0.229,0.039c-0.242,0.079-0.402,0.217-0.502,0.435c-0.104,0.224-0.098,0.517,0.017,0.871
			c0.116,0.357,0.283,0.599,0.497,0.716c0.126,0.07,0.25,0.104,0.379,0.104c0.089,0,0.186-0.017,0.286-0.05
			c0.132-0.043,0.239-0.113,0.327-0.217c0.078-0.091,0.125-0.227,0.14-0.404c0.017-0.2,0.152-0.371,0.343-0.434
			c0.051-0.017,0.104-0.024,0.155-0.024c0.142,0,0.28,0.061,0.377,0.172c0.148,0.17,0.302,0.271,0.469,0.31
			c0.075,0.017,0.149,0.025,0.223,0.025c0.107,0,0.218-0.019,0.33-0.055c0.351-0.114,0.567-0.311,0.681-0.618
			c0.103-0.277,0.097-0.583-0.018-0.937c-0.119-0.367-0.309-0.613-0.579-0.755c-0.15-0.079-0.304-0.117-0.471-0.117
			c-0.132,0-0.274,0.024-0.422,0.073c-0.188,0.061-0.332,0.157-0.437,0.292c-0.106,0.137-0.166,0.309-0.18,0.526
			c-0.014,0.201-0.147,0.375-0.339,0.439c-0.052,0.018-0.106,0.026-0.16,0.026c-0.141,0-0.279-0.06-0.375-0.17
			c-0.102-0.115-0.214-0.189-0.344-0.226C55.988,164.467,55.932,164.459,55.874,164.459z M123.782,165.537
			c0.051,0,0.103,0.008,0.154,0.024l2.725,0.885l0.028-0.085l-2.237-2.898l-0.224-0.073l-0.518,1.59
			c-0.041,0.126-0.131,0.23-0.249,0.29c-0.071,0.036-0.148,0.055-0.227,0.055c-0.023,0-0.047-0.002-0.071-0.005
			c0.143,0.075,0.238,0.213,0.262,0.367C123.519,165.591,123.647,165.537,123.782,165.537z M123.551,144.643
			c0.091,0.025,0.183,0.038,0.276,0.038c0.117,0,0.238-0.021,0.361-0.061c0.129-0.043,0.236-0.103,0.321-0.181
			c-0.091,0.05-0.19,0.092-0.296,0.126c-0.173,0.057-0.346,0.086-0.51,0.086C123.652,144.652,123.601,144.649,123.551,144.643z
			 M56.337,141.741c-0.204,0-0.38,0.029-0.523,0.085c-0.364,0.145-0.589,0.385-0.709,0.754c-0.112,0.345-0.094,0.64,0.058,0.93
			c0.153,0.287,0.416,0.489,0.8,0.614c0.174,0.057,0.34,0.085,0.493,0.085c0.17,0,0.327-0.034,0.477-0.104
			c0.275-0.132,0.444-0.316,0.53-0.582c0.074-0.225,0.049-0.427-0.078-0.634c-0.112-0.184-0.094-0.419,0.045-0.584
			c0.097-0.114,0.238-0.177,0.382-0.177c0.063,0,0.126,0.012,0.187,0.036c0.297,0.119,0.539,0.234,0.735,0.351
			c-0.281-0.199-0.667-0.38-1.144-0.536C57.1,141.821,56.679,141.741,56.337,141.741z M126.67,143.47
			c-0.095,0.073-0.215,0.14-0.365,0.188c-0.041,0.014-0.082,0.024-0.123,0.033c0.062,0,0.123-0.011,0.188-0.032
			C126.488,143.622,126.586,143.56,126.67,143.47z M66.043,126.333c0.158,0,0.309,0.075,0.405,0.206l1.958,2.695l0.014-0.01
			l-2.544-3.5l-0.004,0.003c0.024,0.208,0.02,0.423-0.015,0.642c0.025-0.01,0.051-0.018,0.079-0.024
			C65.971,126.337,66.007,126.333,66.043,126.333z M69.511,123.301c-0.203,0-0.403,0.074-0.61,0.225
			c-0.292,0.212-0.434,0.454-0.448,0.763c-0.018,0.433,0.242,1.034,0.751,1.735c0.657,0.904,1.103,1.178,1.36,1.25
			c0.108,0.03,0.212,0.045,0.31,0.045c0.216,0,0.419-0.071,0.621-0.219c0.293-0.212,0.435-0.456,0.449-0.765
			c0.018-0.432-0.244-1.035-0.756-1.74c-0.648-0.893-1.128-1.175-1.417-1.255C69.68,123.314,69.593,123.301,69.511,123.301z
			 M110.179,126.759c-0.044-0.086-0.063-0.185-0.052-0.284c0.02-0.177,0.132-0.331,0.296-0.402
			c-0.258,0.058-0.426,0.114-0.533,0.159c-0.09,0.038-0.176,0.081-0.258,0.129L110.179,126.759z M113.747,124.571
			c-0.033,0.185-0.114,0.369-0.245,0.549c-0.064,0.088-0.139,0.169-0.223,0.242c0.104-0.08,0.199-0.177,0.282-0.29
			C113.678,124.911,113.739,124.748,113.747,124.571z M91.355,120.721v-4.327H91.35c-0.103,0.183-0.232,0.354-0.389,0.511
			c0.025,0.006,0.051,0.015,0.075,0.025c0.183,0.08,0.301,0.26,0.301,0.459v3.332H91.355z M140.672,101.201V32.728H41.33v68.473
			H140.672z"/>
		<path fill="#FFFFFF" d="M142.726,7.085c5.965,0,10.633,6.286,10.633,13.564v183.276c0,7.609-4.668,13.563-10.633,13.563h-38.693
			v6.946h-2.316v22.166c0,1.986,1.654,3.309,3.308,3.309h111.158c1.984,0,3.307-1.656,3.307-3.309v-65.074
			c-2.328-1.029-3.971-3.355-3.971-6.054V76.227h13.232v99.246c0,3.185-2.281,5.864-5.291,6.483v64.975
			c0.662,3.969-2.646,7.277-6.947,7.277H105.356c-3.97,0-7.609-3.308-7.609-7.607v-22.166h-2.316v-6.946h-8.932v6.946h-2.647v44.661
			c0,1.985,1.655,3.308,3.309,3.308h154.823c1.987,0,3.311-1.652,3.311-3.308v-64.743c-2.33-1.027-3.969-3.354-3.969-6.055V99.054
			h13.231v99.244c0,3.188-2.283,5.865-5.295,6.483v63.982c0.661,4.301-2.646,7.61-6.615,7.61H87.49c-3.969,0-7.608-3.309-7.608-7.61
			v-44.33h-1.985v-6.946H39.533c-5.963,0-10.63-6.285-10.63-13.564V20.649c0-7.609,4.926-13.564,10.63-13.564H142.726
			 M40.83,101.701h100.342V32.228H40.83V101.701 M89.525,118.16c0.505-0.167,0.943-0.424,1.313-0.771v3.832h1.017v-5.327H91.03
			c-0.116,0.325-0.329,0.607-0.64,0.849c-0.311,0.243-0.599,0.407-0.865,0.494V118.16 M111.884,124.096
			c0.19-0.227,0.373-0.356,0.549-0.388c0.033-0.005,0.065-0.008,0.098-0.008c0.143,0,0.286,0.05,0.425,0.153
			c0.174,0.125,0.273,0.274,0.3,0.444c0.027,0.17-0.026,0.346-0.159,0.53c-0.121,0.166-0.299,0.292-0.536,0.381
			c-0.173,0.06-0.571,0.13-1.193,0.205c-0.771,0.092-1.328,0.213-1.673,0.359c-0.344,0.143-0.637,0.35-0.877,0.616l2.883,2.095
			l0.555-0.765l-1.632-1.188c0.097-0.042,0.209-0.08,0.335-0.105c0.125-0.027,0.405-0.066,0.837-0.116
			c0.433-0.051,0.745-0.101,0.936-0.156c0.291-0.082,0.533-0.186,0.729-0.31c0.196-0.125,0.363-0.285,0.504-0.477
			c0.246-0.34,0.332-0.712,0.256-1.115c-0.076-0.404-0.326-0.76-0.749-1.068c-0.372-0.27-0.749-0.406-1.133-0.406
			c-0.016,0-0.032,0-0.048,0c-0.4,0.01-0.791,0.223-1.168,0.64L111.884,124.096 M70.874,127.819c0.322,0,0.627-0.105,0.915-0.315
			c0.417-0.303,0.633-0.684,0.654-1.146c0.023-0.56-0.261-1.244-0.851-2.057c-0.591-0.813-1.154-1.295-1.688-1.443
			c-0.132-0.038-0.264-0.057-0.393-0.057c-0.31,0-0.612,0.107-0.905,0.321c-0.415,0.302-0.632,0.683-0.653,1.144
			c-0.023,0.561,0.26,1.244,0.846,2.052c0.599,0.824,1.143,1.303,1.632,1.438C70.582,127.798,70.729,127.819,70.874,127.819
			 M65.432,128.229c0.31-0.432,0.514-0.897,0.611-1.396l2.252,3.1l0.822-0.598l-3.131-4.309l-0.667,0.484
			c0.096,0.33,0.09,0.684-0.02,1.065c-0.109,0.379-0.244,0.68-0.408,0.907L65.432,128.229 M91.001,182.832
			c6.666,0,13.18-2.363,18.336-6.646c5.855-4.744,9.493-11.551,10.242-19.161c0.763-7.744-1.547-15.294-6.505-21.259
			c-5.484-6.599-13.529-10.383-22.072-10.383c-6.666,0-13.181,2.363-18.343,6.652c-5.914,4.915-9.558,11.816-10.261,19.432
			c-0.704,7.617,1.616,15.068,6.531,20.98C74.413,179.046,82.458,182.832,91.001,182.832 M125.648,142.031
			c0.083-0.017,0.161-0.025,0.233-0.025c0.128,0,0.241,0.026,0.339,0.076c0.153,0.08,0.256,0.201,0.31,0.369
			c0.054,0.166,0.047,0.315-0.02,0.45c-0.069,0.136-0.189,0.228-0.358,0.282c-0.08,0.025-0.157,0.039-0.231,0.039
			c-0.111,0-0.216-0.029-0.315-0.088c-0.166-0.1-0.287-0.281-0.365-0.545l-0.823,0.148c0.104,0.158,0.177,0.297,0.217,0.422
			c0.061,0.188,0.042,0.37-0.058,0.547c-0.1,0.176-0.272,0.306-0.515,0.383c-0.127,0.042-0.247,0.063-0.358,0.063
			c-0.115,0-0.222-0.021-0.322-0.066c-0.195-0.088-0.326-0.231-0.39-0.432c-0.06-0.184-0.049-0.363,0.034-0.535
			c0.084-0.173,0.24-0.313,0.469-0.42l-0.417-0.897c-0.409,0.186-0.696,0.471-0.86,0.856c-0.166,0.387-0.173,0.809-0.025,1.264
			c0.156,0.483,0.443,0.834,0.86,1.057c0.252,0.135,0.511,0.203,0.773,0.203c0.17,0,0.342-0.028,0.516-0.085
			c0.304-0.101,0.538-0.272,0.697-0.515s0.223-0.519,0.191-0.828c0.309,0.293,0.625,0.438,0.945,0.438
			c0.116,0,0.232-0.019,0.35-0.057c0.312-0.101,0.554-0.312,0.725-0.628c0.21-0.385,0.238-0.814,0.082-1.288
			c-0.09-0.278-0.224-0.512-0.401-0.701c-0.177-0.191-0.378-0.319-0.599-0.384c-0.144-0.042-0.307-0.063-0.491-0.063
			c-0.104,0-0.215,0.007-0.333,0.02L125.648,142.031 M56.455,144.709c0.243,0,0.473-0.051,0.69-0.152
			c0.399-0.19,0.664-0.483,0.793-0.879c0.119-0.365,0.077-0.716-0.127-1.05c0.566,0.228,0.918,0.44,1.055,0.64
			c0.139,0.201,0.175,0.401,0.11,0.601c-0.052,0.157-0.139,0.271-0.262,0.336c-0.077,0.042-0.169,0.063-0.275,0.063
			c-0.063,0-0.131-0.007-0.205-0.022l-0.201,0.971c0.122,0.019,0.237,0.027,0.347,0.027c0.288,0,0.537-0.063,0.746-0.189
			c0.289-0.174,0.498-0.46,0.625-0.854c0.178-0.55,0.119-1.06-0.178-1.535c-0.297-0.475-0.908-0.861-1.83-1.162
			c-0.541-0.175-1.009-0.263-1.406-0.263c-0.269,0-0.504,0.04-0.707,0.12c-0.501,0.2-0.836,0.555-1.001,1.066
			c-0.154,0.471-0.122,0.908,0.09,1.314c0.216,0.405,0.578,0.692,1.089,0.858C56.033,144.673,56.249,144.709,56.455,144.709
			 M123.235,164.824l-1.013-0.33l-0.306,0.938l1.015,0.33l-0.203,0.626l0.85,0.276l0.204-0.627l3.2,1.039l0.264-0.812l-2.492-3.229
			l-0.847-0.275L123.235,164.824 M56.761,164.378c-0.166-0.188-0.362-0.314-0.583-0.377c-0.101-0.027-0.202-0.042-0.304-0.042
			c-0.125,0-0.252,0.021-0.381,0.063c-0.376,0.123-0.644,0.354-0.804,0.701c-0.159,0.343-0.16,0.756-0.005,1.235
			c0.157,0.483,0.4,0.817,0.732,1c0.199,0.11,0.405,0.166,0.62,0.166c0.143,0,0.29-0.025,0.441-0.074
			c0.22-0.071,0.404-0.194,0.552-0.367c0.148-0.173,0.234-0.403,0.258-0.688c0.218,0.25,0.464,0.407,0.736,0.469
			c0.111,0.025,0.222,0.038,0.333,0.038c0.161,0,0.323-0.026,0.484-0.079c0.496-0.162,0.828-0.469,0.995-0.92
			c0.142-0.383,0.138-0.806-0.011-1.265c-0.16-0.493-0.436-0.842-0.823-1.044c-0.22-0.116-0.455-0.174-0.702-0.174
			c-0.185,0-0.378,0.032-0.578,0.098c-0.282,0.092-0.508,0.245-0.676,0.461C56.878,163.794,56.783,164.061,56.761,164.378
			 M111.357,184.011c0.327,0,0.63-0.101,0.909-0.305c0.192-0.14,0.345-0.32,0.461-0.545l0.401,0.821l-1.552,1.127l0.56,0.771
			l2.175-1.58l-1.201-2.54l-0.737,0.388c-0.036,0.346-0.172,0.604-0.408,0.775c-0.142,0.103-0.292,0.154-0.448,0.154
			c-0.051,0-0.104-0.006-0.157-0.017c-0.212-0.046-0.415-0.201-0.606-0.465c-0.206-0.281-0.299-0.535-0.281-0.761
			c0.017-0.226,0.113-0.401,0.284-0.525c0.122-0.087,0.258-0.134,0.41-0.134c0.035,0,0.071,0.003,0.108,0.008
			c0.193,0.022,0.368,0.12,0.527,0.288l0.759-0.68c-0.31-0.323-0.667-0.502-1.071-0.532c-0.04-0.003-0.08-0.005-0.12-0.005
			c-0.365,0-0.724,0.129-1.082,0.39c-0.495,0.358-0.746,0.83-0.75,1.413c-0.003,0.424,0.123,0.813,0.379,1.167
			c0.307,0.424,0.686,0.677,1.132,0.758C111.154,184.002,111.256,184.011,111.357,184.011 M70.03,185.978l0.555-0.766l-1.871-1.356
			c0.739-0.206,1.449-0.533,2.127-0.981c0.68-0.447,1.242-0.963,1.689-1.549l-0.793-0.576c-0.274,0.381-0.648,0.764-1.123,1.154
			c-0.477,0.391-0.989,0.709-1.54,0.965c-0.55,0.252-1.024,0.407-1.424,0.469l-0.433,0.597L70.03,185.978 M90.773,190.441
			c0.376,0,0.691-0.15,0.944-0.447c-0.039,0.609-0.132,1.012-0.281,1.203c-0.147,0.193-0.329,0.289-0.544,0.289
			c-0.161,0-0.293-0.048-0.394-0.145c-0.101-0.096-0.164-0.246-0.188-0.449l-0.984,0.109c0.072,0.429,0.241,0.756,0.504,0.981
			c0.265,0.226,0.598,0.339,1.001,0.339c0.574,0,1.041-0.215,1.4-0.645c0.36-0.43,0.54-1.131,0.54-2.102
			c0-0.947-0.173-1.63-0.518-2.046c-0.345-0.417-0.785-0.624-1.321-0.624c-0.5,0-0.909,0.164-1.227,0.492
			c-0.319,0.327-0.478,0.764-0.478,1.307c0,0.512,0.152,0.93,0.455,1.252C89.985,190.279,90.348,190.441,90.773,190.441
			 M142.726,6.085H39.533c-6.413,0-11.63,6.533-11.63,14.564v183.274c0,8.031,5.217,14.564,11.63,14.564h37.364v5.946
			c0,0.553,0.448,1,1,1h0.985v43.33c0,4.667,3.942,8.61,8.608,8.61h155.157c2.305,0,4.464-0.977,5.925-2.679
			c1.413-1.647,2.012-3.777,1.69-6.006v-63.139c3.112-1.002,5.295-3.931,5.295-7.253V99.054c0-0.552-0.447-1-1-1h-13.231
			c-0.553,0-1,0.448-1,1v99.244c0,2.789,1.538,5.343,3.969,6.676v64.122c0,1.109-0.884,2.308-2.311,2.308H87.161
			c-1.11,0-2.309-0.882-2.309-2.308v-43.661h1.647c0.552,0,1-0.447,1-1v-5.946h6.932v5.946c0,0.553,0.448,1,1,1h1.316v21.166
			c0,4.666,3.942,8.607,8.609,8.607h111.157c2.539,0,4.866-1.027,6.384-2.819c1.321-1.561,1.875-3.524,1.563-5.538v-64.125
			c3.109-1.003,5.291-3.932,5.291-7.253V76.227c0-0.552-0.447-1-1-1h-13.232c-0.553,0-1,0.448-1,1v99.246
			c0,2.785,1.539,5.338,3.971,6.674v64.454c0,1.11-0.882,2.309-2.307,2.309H105.025c-1.11,0-2.308-0.883-2.308-2.309v-21.166h1.316
			c0.552,0,1-0.447,1-1v-5.946h37.693c6.523,0,11.633-6.397,11.633-14.563V20.649C154.359,12.618,149.14,6.085,142.726,6.085
			L142.726,6.085z M41.83,33.228h98.342v67.473H41.83V33.228L41.83,33.228z M70.874,126.819c-0.053,0-0.111-0.009-0.174-0.026
			c-0.07-0.019-0.434-0.156-1.092-1.063c-0.61-0.84-0.662-1.275-0.656-1.423c0.004-0.098,0.027-0.22,0.242-0.376
			c0.178-0.129,0.282-0.129,0.317-0.129c0.037,0,0.076,0.006,0.118,0.018c0.147,0.041,0.538,0.222,1.154,1.069
			c0.615,0.846,0.667,1.281,0.661,1.428c-0.005,0.104-0.028,0.222-0.242,0.378C71.05,126.805,70.947,126.819,70.874,126.819
			L70.874,126.819z M91.001,181.832c-8.245,0-16.009-3.653-21.303-10.023c-4.745-5.708-6.984-12.899-6.305-20.25
			c0.679-7.351,4.196-14.011,9.905-18.755c4.983-4.141,11.271-6.421,17.704-6.421c8.245,0,16.01,3.653,21.303,10.022
			c4.785,5.757,7.015,13.045,6.279,20.522c-0.723,7.343-4.23,13.907-9.876,18.481C103.718,179.553,97.433,181.832,91.001,181.832
			L91.001,181.832z M56.455,143.709c-0.1,0-0.214-0.021-0.338-0.061c-0.341-0.11-0.457-0.269-0.515-0.377
			c-0.058-0.111-0.109-0.268-0.022-0.534c0.074-0.229,0.196-0.358,0.421-0.448c0.08-0.031,0.197-0.049,0.336-0.049
			c0.154,0,0.331,0.021,0.529,0.061c-0.095,0.277-0.067,0.589,0.092,0.849c0.057,0.093,0.055,0.14,0.03,0.218
			c-0.036,0.111-0.097,0.203-0.273,0.287C56.636,143.692,56.552,143.709,56.455,143.709L56.455,143.709z M57.525,165.024
			c0.134-0.159,0.219-0.359,0.234-0.576c0.008-0.114,0.033-0.199,0.075-0.252c0.031-0.04,0.08-0.088,0.198-0.126
			c0.1-0.033,0.19-0.049,0.269-0.049c0.084,0,0.159,0.019,0.236,0.059c0.098,0.051,0.236,0.153,0.338,0.468
			c0.079,0.242,0.086,0.44,0.024,0.608c-0.041,0.108-0.105,0.231-0.368,0.317c-0.061,0.02-0.118,0.029-0.174,0.029
			c-0.036,0-0.072-0.004-0.11-0.013c-0.077-0.018-0.154-0.092-0.206-0.151C57.903,165.18,57.721,165.073,57.525,165.024
			L57.525,165.024z M124.191,165.118l0.269-0.827l0.942,1.221L124.191,165.118L124.191,165.118z M56.036,166.125
			c-0.029,0-0.071-0.005-0.134-0.04c-0.1-0.055-0.193-0.209-0.267-0.435c-0.073-0.224-0.086-0.404-0.04-0.506
			c0.038-0.081,0.08-0.13,0.208-0.172c0.024-0.008,0.049-0.013,0.07-0.013c0.045,0.008,0.083,0.019,0.136,0.08
			c0.138,0.156,0.318,0.263,0.513,0.311c-0.131,0.155-0.215,0.35-0.233,0.562c-0.008,0.094-0.026,0.128-0.026,0.128
			c-0.024,0.026-0.052,0.045-0.096,0.06C56.117,166.116,56.073,166.125,56.036,166.125L56.036,166.125z M90.773,189.441
			c-0.122,0-0.23-0.028-0.362-0.169c-0.08-0.084-0.184-0.234-0.184-0.567c0-0.367,0.111-0.523,0.194-0.608
			c0.092-0.096,0.223-0.19,0.511-0.19c0.237,0,0.396,0.076,0.55,0.261c0.067,0.081,0.2,0.302,0.259,0.827c-0.008,0-0.016,0-0.024,0
			c-0.287,0-0.567,0.124-0.762,0.352C90.879,189.434,90.836,189.441,90.773,189.441L90.773,189.441z"/>
	</g>
	<path d="M254.558,80.859h-4.963v-36.06c0-0.993-0.662-1.654-1.656-1.654c-0.99,0-1.652,0.661-1.652,1.654v36.06h-4.961v11.578
		h13.232V80.859z"/>
	<path d="M66.5,50.025c1.833-0.999,2.749-2.337,2.749-4.013c0-1.182-0.447-2.24-1.342-3.179c-1.086-1.146-2.527-1.72-4.325-1.72
		c-1.051,0-2,0.198-2.847,0.593c-0.847,0.396-1.507,0.938-1.98,1.629c-0.473,0.691-0.827,1.613-1.062,2.768l3.374,0.573
		c0.095-0.833,0.365-1.468,0.808-1.901c0.443-0.435,0.977-0.651,1.602-0.651c0.634,0,1.142,0.19,1.524,0.573
		c0.382,0.382,0.573,0.895,0.573,1.537c0,0.755-0.261,1.361-0.782,1.817c-0.521,0.456-1.277,0.671-2.267,0.645l-0.404,2.983
		c0.651-0.183,1.211-0.273,1.68-0.273c0.712,0,1.316,0.269,1.811,0.808c0.495,0.538,0.743,1.268,0.743,2.188
		c0,0.973-0.258,1.745-0.775,2.318c-0.517,0.573-1.153,0.86-1.908,0.86c-0.704,0-1.303-0.239-1.798-0.717
		c-0.495-0.478-0.799-1.168-0.912-2.071l-3.543,0.43c0.183,1.606,0.843,2.907,1.98,3.902c1.138,0.994,2.57,1.491,4.299,1.491
		c1.824,0,3.348-0.591,4.573-1.771c1.224-1.182,1.836-2.61,1.836-4.286c0-1.155-0.328-2.141-0.983-2.957S67.594,50.259,66.5,50.025z
		"/>
	<path d="M82.901,58.662c1.25-1.581,1.876-4.178,1.876-7.79c0-3.622-0.621-6.214-1.863-7.777c-1.042-1.32-2.488-1.98-4.338-1.98
		c-1.85,0-3.292,0.651-4.325,1.954c-1.251,1.581-1.876,4.169-1.876,7.765c0,3.665,0.569,6.212,1.707,7.641
		c1.138,1.428,2.636,2.143,4.494,2.143C80.426,60.616,81.868,59.964,82.901,58.662z M80.569,55.639
		c-0.191,0.729-0.46,1.235-0.808,1.518c-0.348,0.283-0.743,0.424-1.186,0.424c-0.443,0-0.836-0.14-1.179-0.417
		c-0.343-0.278-0.627-0.836-0.854-1.674c-0.226-0.838-0.339-2.378-0.339-4.618c0-2.241,0.126-3.835,0.378-4.781
		c0.191-0.729,0.46-1.235,0.808-1.518c0.348-0.282,0.743-0.424,1.186-0.424c0.443,0,0.836,0.142,1.179,0.424
		c0.343,0.282,0.627,0.843,0.853,1.681s0.339,2.377,0.339,4.618C80.947,53.112,80.821,54.702,80.569,55.639z"/>
	<rect x="88.008" y="56.629" width="3.661" height="3.66"/>
	<path d="M105.165,43.094c-1.042-1.32-2.488-1.98-4.338-1.98s-3.292,0.651-4.325,1.954c-1.25,1.581-1.875,4.169-1.875,7.765
		c0,3.665,0.569,6.212,1.707,7.641c1.138,1.428,2.636,2.143,4.494,2.143c1.85,0,3.292-0.651,4.325-1.954
		c1.25-1.581,1.876-4.178,1.876-7.79C107.028,47.25,106.407,44.658,105.165,43.094z M102.82,55.639
		c-0.191,0.729-0.46,1.235-0.808,1.518c-0.348,0.282-0.743,0.424-1.186,0.424c-0.443,0-0.836-0.14-1.179-0.417
		c-0.343-0.278-0.628-0.836-0.854-1.674c-0.226-0.838-0.339-2.378-0.339-4.618c0-2.241,0.126-3.835,0.378-4.781
		c0.191-0.729,0.46-1.235,0.808-1.518c0.348-0.282,0.743-0.424,1.186-0.424c0.443,0,0.836,0.142,1.179,0.424
		c0.343,0.282,0.627,0.843,0.853,1.681s0.339,2.377,0.339,4.618C103.198,53.112,103.072,54.702,102.82,55.639z"/>
	<path d="M118.426,50.025c1.833-0.999,2.749-2.337,2.749-4.013c0-1.182-0.447-2.24-1.342-3.179c-1.086-1.146-2.527-1.72-4.325-1.72
		c-1.051,0-2,0.198-2.846,0.593c-0.847,0.396-1.507,0.938-1.98,1.629c-0.473,0.69-0.827,1.613-1.062,2.768l3.374,0.573
		c0.096-0.833,0.365-1.468,0.808-1.901c0.443-0.435,0.977-0.651,1.603-0.651c0.634,0,1.142,0.19,1.524,0.573
		c0.382,0.382,0.573,0.895,0.573,1.537c0,0.755-0.261,1.361-0.782,1.817c-0.521,0.456-1.276,0.671-2.267,0.645l-0.404,2.983
		c0.651-0.183,1.211-0.273,1.681-0.273c0.712,0,1.315,0.269,1.811,0.808c0.495,0.538,0.743,1.268,0.743,2.188
		c0,0.973-0.258,1.745-0.775,2.318c-0.517,0.573-1.153,0.86-1.908,0.86c-0.704,0-1.303-0.239-1.798-0.717
		c-0.495-0.478-0.799-1.168-0.912-2.071l-3.543,0.43c0.182,1.606,0.842,2.907,1.98,3.902c1.138,0.994,2.571,1.491,4.299,1.491
		c1.824,0,3.348-0.591,4.573-1.771c1.225-1.182,1.837-2.61,1.837-4.286c0-1.155-0.328-2.141-0.984-2.957
		C120.397,50.785,119.521,50.259,118.426,50.025z"/>
	<rect x="44.003" y="92.437" width="5.527" height="6.038"/>
	<polygon points="52.851,92.437 52.83,92.437 52.83,98.475 52.851,98.475 58.356,98.475 58.378,98.475 58.378,86.4 52.851,86.4 	"/>
	<polygon points="61.678,92.437 61.678,98.475 67.205,98.475 67.205,92.437 67.205,86.4 61.678,86.4 	"/>
	<rect x="70.526" y="92.437" width="5.527" height="6.038"/>
	<rect x="79.375" y="92.437" width="5.527" height="6.038"/>
	<rect x="88.223" y="92.437" width="5.527" height="6.038"/>
	<polygon points="97.07,92.437 97.07,98.475 102.598,98.475 102.598,92.437 102.598,86.4 97.07,86.4 	"/>
	<rect x="105.92" y="92.437" width="5.526" height="6.038"/>
	<polygon points="114.767,92.437 114.767,98.475 120.295,98.475 120.295,92.437 120.295,86.4 114.767,86.4 	"/>
	<rect x="123.617" y="92.437" width="5.526" height="6.038"/>
	<rect x="132.464" y="92.437" width="5.528" height="6.038"/>
</g>
</svg>
