<?xml version="1.0" encoding="utf-8"?>
<!-- Generator: Adobe Illustrator 15.1.0, SVG Export Plug-In . SVG Version: 6.00 Build 0)  -->
<!DOCTYPE svg PUBLIC "-//W3C//DTD SVG 1.1//EN" "http://www.w3.org/Graphics/SVG/1.1/DTD/svg11.dtd">
<svg version="1.1" id="Layer_5" xmlns="http://www.w3.org/2000/svg" xmlns:xlink="http://www.w3.org/1999/xlink" x="0px" y="0px"
	 width="283.46px" height="283.46px" viewBox="0 0 283.46 283.46" enable-background="new 0 0 283.46 283.46" xml:space="preserve">
<g>
	<path d="M266.874,106.308L158.681,16.001c-4.745-3.963-10.767-6.146-16.952-6.146c-6.186,0-12.207,2.184-16.954,6.148
		L16.585,106.309c-6.36,5.309-9.882,13.376-9.467,21.641L7.092,255.507v0.432l0.028,0.431l0.058,0.884l0.038,0.588l0.09,0.581
		c0.342,2.215,1.088,4.319,2.215,6.255l0.419,0.72l0.505,0.661l0.635,0.831l0.753,0.986l0.923,0.828l0.707,0.636l0.546,0.492
		l0.598,0.427c2.332,1.669,5.074,2.763,7.931,3.159l0.525,0.073l0.528,0.03l0.733,0.043l0.387,0.023h0.388l233.838,0.018h0.695
		l0.692-0.072l0.113-0.013l0.08-0.008l0.081-0.01c2.846-0.333,5.61-1.377,7.995-3.02l0.664-0.457l0.604-0.534l0.778-0.688
		l0.922-0.815l0.756-0.971l0.569-0.73l0.489-0.63l0.412-0.684c1.213-2.017,2.009-4.204,2.364-6.504l0.09-0.578l0.038-0.584
		l0.058-0.886l0.027-0.433v-0.433V127.335C276.588,119.19,273.135,111.535,266.874,106.308z M263.088,127.175v128.382l-0.058,0.886
		c-0.091,0.588-0.294,1.146-0.618,1.685l-0.569,0.731l-0.778,0.688c-0.611,0.421-1.315,0.688-2.013,0.77l-0.114,0.012L25.1,260.31
		l-0.733-0.043c-0.739-0.103-1.444-0.384-2.03-0.804l-0.708-0.636l-0.635-0.831c-0.289-0.496-0.479-1.035-0.567-1.603l-0.058-0.884
		l0.026-127.849c0-0.065-0.002-0.132-0.007-0.197c-0.269-4.181,1.49-8.278,4.705-10.962l108.193-90.308
		c2.364-1.975,5.362-3.062,8.443-3.062s6.079,1.087,8.444,3.062l108.192,90.308c3.144,2.623,4.865,6.475,4.725,10.566
		C263.089,127.105,263.088,127.139,263.088,127.175z"/>
	<path d="M146.345,220.318c-2.735,2.041-6.484,2.041-9.218-0.002l-24.964-18.646l-63.511,46.3l186.157,0.035l-63.495-46.322
		L146.345,220.318z"/>
	<polygon points="250.748,240.561 250.765,142.39 184.239,192.039 	"/>
	<polygon points="32.737,142.346 32.717,240.517 99.244,192.023 	"/>
	<path d="M141.737,204.529l93.536-69.804l13.569-9.009L141.729,36.307L34.492,125.819l13.738,8.87L141.737,204.529z M95.361,94.118
		c4.322-6.947,10.487-12.231,18.487-15.849c8.001-3.618,17.47-5.43,28.402-5.43c10.637,0,19.881,1.737,27.734,5.212
		c7.852,3.474,13.915,8.396,18.19,14.766c4.273,6.367,6.41,13.75,6.41,22.145c0,9.07-2.188,16.068-6.56,20.988
		c-4.375,4.922-9.942,7.382-16.701,7.382c-4.173,0-7.651-0.748-10.438-2.241c-2.783-1.496-4.671-3.644-5.665-6.443
		c-1.292,2.704-3.429,4.826-6.41,6.369c-2.982,1.546-6.563,2.315-10.734,2.315c-5.567,0-10.015-1.615-13.344-4.847
		c-3.329-3.233-4.995-7.648-4.995-13.244v-12.449c0-5.886,1.614-10.444,4.846-13.678c3.229-3.234,7.777-4.849,13.642-4.849
		c4.967,0,8.996,1.35,12.077,4.054l0.446-3.475h11.482v28.949c0,5.79,2.731,8.686,8.199,8.686c6.759,0,10.138-5.936,10.138-17.805
		c0-9.456-3.455-16.768-10.363-21.93C163.297,87.583,153.979,85,142.25,85c-12.722,0-22.463,2.967-29.222,8.901
		c-6.759,5.932-10.137,14.399-10.137,25.4c0,11.098,3.577,19.59,10.734,25.474c7.158,5.888,18.19,8.831,33.1,8.831
		c7.058,0,14.313-0.7,21.769-2.1c7.455-1.398,14.165-3.208,20.13-5.428v11.581c-5.867,2.508-12.55,4.488-20.056,5.936
		c-7.504,1.447-15.184,2.171-23.036,2.171c-18.587,0-32.677-4.101-42.269-12.304c-9.591-8.202-14.388-19.588-14.388-34.16
		C88.874,109.46,91.036,101.064,95.361,94.118z"/>
	<path d="M147.471,107.432c-1.492-1.447-3.579-2.171-6.262-2.171c-3.479,0-5.841,0.699-7.082,2.1
		c-1.244,1.398-1.864,3.401-1.864,6.007v11.001c0,2.507,0.744,4.463,2.235,5.861c1.49,1.398,3.628,2.1,6.413,2.1
		c2.781,0,4.943-0.723,6.484-2.171c1.543-1.447,2.313-3.379,2.313-5.79v-11.001h-0.002
		C149.707,110.857,148.961,108.879,147.471,107.432z"/>
</g>
</svg>
