<?xml version="1.0" encoding="utf-8"?>
<!-- Generator: Adobe Illustrator 15.1.0, SVG Export Plug-In . SVG Version: 6.00 Build 0)  -->
<!DOCTYPE svg PUBLIC "-//W3C//DTD SVG 1.1//EN" "http://www.w3.org/Graphics/SVG/1.1/DTD/svg11.dtd">
<svg version="1.1" id="Layer_1" xmlns:serif="http://www.serif.com/"
	 xmlns="http://www.w3.org/2000/svg" xmlns:xlink="http://www.w3.org/1999/xlink" x="0px" y="0px" width="283.46px"
	 height="283.46px" viewBox="0 0 283.46 283.46" enable-background="new 0 0 283.46 283.46" xml:space="preserve">
<path d="M7.121,126.506c-0.354-5.5,1.898-10.967,6.275-14.621l117.073-97.72c6.521-5.444,16.002-5.444,22.521,0l117.075,97.72
	c4.238,3.538,6.483,8.774,6.302,14.094v139.028l-0.078,1.193c-0.158,1.182-0.568,2.286-1.172,3.256l-0.063,0.107l-0.923,1.186
	l-1.207,1.066c-1.117,0.814-2.447,1.359-3.894,1.528l-0.297,0.03l-253.304-0.019l-1.004-0.06c-1.444-0.174-2.774-0.717-3.892-1.53
	l-0.092-0.068l-1.116-1.002l-0.986-1.29c-0.603-0.972-1.01-2.076-1.169-3.261l-0.077-1.19L7.121,126.506L7.121,126.506z
	 M109.736,206.589L41.012,256.69l201.437,0.039l-68.705-50.125l-27.02,20.164c-2.96,2.208-7.017,2.208-9.975-0.002L109.736,206.589
	L109.736,206.589z M187.728,196.167l71.968,52.506l0.021-106.229L187.728,196.167z M23.791,142.397l-0.022,106.229l71.988-52.476
	L23.791,142.397z M25.689,124.512l14.866,9.599l101.182,75.572l101.214-75.533l14.684-9.748L141.729,27.654L25.689,124.512z
	 M99.703,117.461c0,12.008,3.87,21.197,11.615,27.564c7.746,6.371,19.684,9.557,35.817,9.557c7.637,0,15.487-0.758,23.555-2.271
	s15.328-3.473,21.782-5.873v12.531c-6.35,2.713-13.58,4.855-21.701,6.423c-8.12,1.565-16.43,2.351-24.927,2.351
	c-20.113,0-35.36-4.438-45.739-13.314c-10.378-8.876-15.57-21.196-15.57-36.964c0-10.651,2.34-19.736,7.021-27.253
	c4.677-7.518,11.348-13.236,20.003-17.149c8.658-3.916,18.904-5.875,30.733-5.875c11.51,0,21.513,1.88,30.011,5.64
	c8.495,3.759,15.059,9.085,19.685,15.978c4.624,6.89,6.938,14.878,6.938,23.962c0,9.815-2.367,17.387-7.1,22.71
	c-4.732,5.326-10.759,7.988-18.07,7.988c-4.517,0-8.28-0.81-11.295-2.425c-3.012-1.619-5.055-3.942-6.131-6.972
	c-1.397,2.925-3.709,5.222-6.937,6.892c-3.228,1.673-7.101,2.505-11.616,2.505c-6.024,0-10.837-1.749-14.439-5.245
	c-3.603-3.499-5.405-8.276-5.405-14.331v-13.471c0-6.369,1.747-11.302,5.244-14.801c3.495-3.499,8.415-5.247,14.762-5.247
	c5.375,0,9.732,1.46,13.068,4.387l0.481-3.759h12.425v31.325c0,6.265,2.957,9.398,8.873,9.398c7.313,0,10.971-6.422,10.971-19.266
	c0-10.232-3.739-18.144-11.215-23.729c-7.476-5.586-17.558-8.379-30.25-8.379c-13.767,0-24.307,3.21-31.62,9.631
	C103.358,96.395,99.703,105.558,99.703,117.461L99.703,117.461z M150.361,111.039c0-2.716-0.806-4.856-2.419-6.422
	c-1.614-1.566-3.872-2.35-6.775-2.35c-3.765,0-6.321,0.757-7.663,2.272c-1.346,1.513-2.018,3.681-2.018,6.5v11.904
	c0,2.713,0.805,4.83,2.419,6.343c1.612,1.512,3.926,2.271,6.938,2.271c3.009,0,5.349-0.782,7.016-2.35
	c1.67-1.566,2.503-3.656,2.503-6.265L150.361,111.039L150.361,111.039L150.361,111.039z"/>
</svg>
