<?xml version="1.0" encoding="utf-8"?>
<!-- Generator: Adobe Illustrator 15.1.0, SVG Export Plug-In . SVG Version: 6.00 Build 0)  -->
<!DOCTYPE svg PUBLIC "-//W3C//DTD SVG 1.1//EN" "http://www.w3.org/Graphics/SVG/1.1/DTD/svg11.dtd">
<svg version="1.1" xmlns="http://www.w3.org/2000/svg" xmlns:xlink="http://www.w3.org/1999/xlink" x="0px" y="0px"
	 width="283.465px" height="283.465px" viewBox="0 0 283.465 283.465" enable-background="new 0 0 283.465 283.465"
	 xml:space="preserve">
<g id="Layer_1">
	<title>ic_fluent_emoji_surprise_24_filled</title>
	<desc>Created with Sketch.</desc>
</g>
<g id="Layer_3">
</g>
<g id="Layer_2">
	<g>
		<path d="M141.733,26.238c-63.685,0-115.495,51.811-115.495,115.495s51.811,115.494,115.495,115.494
			c63.683,0,115.494-51.811,115.494-115.494S205.416,26.238,141.733,26.238z M175.066,92.078c11.045,0,20,8.954,20,20
			s-8.955,20-20,20c-11.047,0-20-8.954-20-20S164.02,92.078,175.066,92.078z M145.732,159.982c10.911,0.5,20.88,3.02,28.851,6.947
			v19.951H145.8h-0.067V159.982z M182.583,171.863c5.533,4.258,9.247,9.401,10.456,15.018h-10.456V171.863z M137.732,186.881h-28.85
			v-19.952c7.97-3.928,17.938-6.446,28.85-6.946V186.881z M100.882,186.881H90.426c1.209-5.617,4.923-10.761,10.457-15.02V186.881z
			 M108.399,92.077c11.046,0,20,8.954,20,20c0,11.045-8.954,20-20,20s-20-8.955-20-20C88.399,101.031,97.353,92.077,108.399,92.077z
			 M90.426,194.881h10.457v15.02C95.349,205.642,91.635,200.498,90.426,194.881z M108.882,194.881h28.85v26.898
			c-10.912-0.5-20.88-3.019-28.85-6.946V194.881z M145.732,194.881h0.067h28.783v19.951c-7.971,3.928-17.939,6.447-28.851,6.947
			V194.881z M182.583,209.898v-15.018h10.456C191.83,200.497,188.116,205.641,182.583,209.898z"/>
	</g>
</g>
</svg>
