<?xml version="1.0" encoding="utf-8"?>
<!-- Generator: Adobe Illustrator 15.1.0, SVG Export Plug-In . SVG Version: 6.00 Build 0)  -->
<!DOCTYPE svg PUBLIC "-//W3C//DTD SVG 1.1//EN" "http://www.w3.org/Graphics/SVG/1.1/DTD/svg11.dtd">
<svg version="1.1" id="Layer_3" xmlns="http://www.w3.org/2000/svg" xmlns:xlink="http://www.w3.org/1999/xlink" x="0px" y="0px"
	 width="283.46px" height="283.46px" viewBox="0 0 283.46 283.46" enable-background="new 0 0 283.46 283.46" xml:space="preserve">
<g>
	<circle fill="none" cx="175.064" cy="110.666" r="20"/>
	<circle fill="none" cx="108.397" cy="110.665" r="20"/>
	<path d="M141.73,25.826c-63.684,0-115.495,51.811-115.495,115.495c0,63.683,51.811,115.494,115.495,115.494
		c63.684,0,115.494-51.812,115.494-115.494C257.224,77.637,205.414,25.826,141.73,25.826z M175.064,90.666c11.046,0,20,8.954,20,20
		s-8.954,20-20,20s-20-8.954-20-20S164.018,90.666,175.064,90.666z M108.397,90.665c11.046,0,20,8.954,20,20
		c0,11.045-8.954,20-20,20s-20-8.955-20-20C88.397,99.619,97.351,90.665,108.397,90.665z M205.189,188.601
		c-15.211,19.273-38.391,30.751-63.435,30.751c-25.078,0-48.276-11.517-63.494-30.816c-3.451-4.392-2.702-10.741,1.683-14.199
		c4.378-3.444,10.728-2.682,14.179,1.683c11.431,14.515,28.812,23.139,47.632,23.139c18.8,0,36.154-8.598,47.593-23.073
		c3.443-4.378,9.807-5.113,14.172-1.669C207.91,177.873,208.646,184.223,205.189,188.601z"/>
</g>
</svg>
