<?xml version="1.0" encoding="utf-8"?>
<!-- Generator: Adobe Illustrator 15.1.0, SVG Export Plug-In . SVG Version: 6.00 Build 0)  -->
<!DOCTYPE svg PUBLIC "-//W3C//DTD SVG 1.1//EN" "http://www.w3.org/Graphics/SVG/1.1/DTD/svg11.dtd">
<svg version="1.1" id="Layer_3" xmlns="http://www.w3.org/2000/svg" xmlns:xlink="http://www.w3.org/1999/xlink" x="0px" y="0px"
	 width="283.46px" height="283.46px" viewBox="0 0 283.46 283.46" enable-background="new 0 0 283.46 283.46" xml:space="preserve">
<g>
	<circle fill="none" cx="108.397" cy="110.665" r="20"/>
	<circle fill="none" cx="175.064" cy="110.666" r="20"/>
	<path d="M141.73,25.826c-63.684,0-115.495,51.811-115.495,115.495c0,63.683,51.811,115.494,115.495,115.494
		c63.684,0,115.494-51.812,115.494-115.494C257.224,77.637,205.414,25.826,141.73,25.826z M175.064,90.666c11.046,0,20,8.954,20,20
		s-8.954,20-20,20s-20-8.954-20-20S164.018,90.666,175.064,90.666z M108.397,90.665c11.046,0,20,8.954,20,20
		c0,11.045-8.954,20-20,20s-20-8.955-20-20C88.397,99.619,97.351,90.665,108.397,90.665z M198.445,207.684
		c-1.126,0.134-2.253,0.235-3.38,0.32v0.165H88.398v-0.165c-1.127-0.084-2.255-0.187-3.383-0.32
		c-5.546-0.665-9.506-5.685-8.851-11.229c0.66-5.531,5.69-9.482,11.217-8.837c0.339,0.04,0.678,0.069,1.017,0.103v-0.033h106.667
		v0.033c0.338-0.034,0.676-0.063,1.014-0.103c5.527-0.646,10.557,3.306,11.217,8.837C207.951,202,203.991,207.019,198.445,207.684z"
		/>
</g>
</svg>
