<?xml version="1.0" encoding="utf-8"?>
<!-- Generator: Adobe Illustrator 15.1.0, SVG Export Plug-In . SVG Version: 6.00 Build 0)  -->
<!DOCTYPE svg PUBLIC "-//W3C//DTD SVG 1.1//EN" "http://www.w3.org/Graphics/SVG/1.1/DTD/svg11.dtd">
<svg version="1.1" id="Layer_2" xmlns="http://www.w3.org/2000/svg" xmlns:xlink="http://www.w3.org/1999/xlink" x="0px" y="0px"
	 width="283.465px" height="283.465px" viewBox="0 0 283.465 283.465" enable-background="new 0 0 283.465 283.465"
	 xml:space="preserve">
<g>
	<path fill="none" d="M141.732,172.59c-25.068,0.009-48.255,11.522-63.468,30.815c-1.501,1.911-2.206,4.19-2.164,6.444
		c0.072,2.896,1.383,5.738,3.842,7.676c4.365,3.443,10.729,2.709,14.172-1.669c11.439-14.476,28.793-23.073,47.593-23.073
		c0.008,0,0.017,0.002,0.025,0.002s0.017-0.002,0.025-0.002c18.801,0,36.155,8.598,47.594,23.073
		c3.443,4.378,9.807,5.112,14.172,1.669c2.459-1.938,3.77-4.779,3.842-7.676c0.041-2.254-0.662-4.533-2.164-6.444
		C189.988,184.113,166.801,172.599,141.732,172.59z"/>
	<path d="M255.895,124.168c-0.586-3.819-1.359-7.578-2.311-11.265c-0.238-0.922-0.486-1.84-0.746-2.753
		c-13.771-48.381-58.367-83.912-111.105-83.912l0,0l0,0c-52.738,0-97.333,35.531-111.105,83.912
		c-0.26,0.913-0.509,1.831-0.746,2.753c-0.951,3.687-1.724,7.445-2.31,11.265c-0.877,5.729-1.333,11.595-1.333,17.564
		c0,5.971,0.456,11.836,1.333,17.564c0.585,3.818,1.358,7.578,2.31,11.266c0.237,0.922,0.486,1.839,0.746,2.752
		c13.771,48.38,58.367,83.912,111.105,83.912l0,0l0,0c52.738,0,97.333-35.532,111.105-83.912c0.26-0.913,0.508-1.83,0.746-2.752
		c0.951-3.688,1.725-7.446,2.311-11.266c0.877-5.729,1.332-11.594,1.332-17.564C257.227,135.762,256.771,129.896,255.895,124.168z
		 M150.039,92.067l21.748-16.348l8.711-6.549l3.127-2.35c3.086-2.32,7.971-1.026,10.916,2.89c2.942,3.915,2.826,8.969-0.259,11.288
		l-3.126,2.35l-8.713,6.549l-2.425,1.823c1.61,0.411,3.151,0.995,4.58,1.771c6.233,3.387,10.466,9.992,10.466,17.586
		c0,11.045-8.953,20-20,20c-3.451,0-6.699-0.875-9.533-2.414c-0.249-0.136-0.482-0.296-0.727-0.441
		c-0.307-0.185-0.623-0.358-0.92-0.56c-5.32-3.594-8.818-9.681-8.818-16.584c0-1.329,0.137-2.626,0.385-3.883
		c-2.064-0.473-4.132-1.795-5.67-3.84C146.838,99.44,146.953,94.386,150.039,92.067z M88.924,69.711
		c2.944-3.916,7.83-5.21,10.916-2.89l3.126,2.35l8.712,6.549l21.747,16.347c3.085,2.319,3.201,7.373,0.257,11.288
		c-1.538,2.045-3.605,3.367-5.669,3.84c0.248,1.257,0.384,2.554,0.384,3.883c0,6.903-3.498,12.99-8.817,16.584
		c-0.297,0.201-0.613,0.375-0.921,0.56c-0.243,0.146-0.477,0.306-0.726,0.441c-2.834,1.539-6.082,2.414-9.533,2.414
		c-11.046,0-20-8.955-20-20c0-7.594,4.232-14.199,10.466-17.586c1.428-0.775,2.969-1.359,4.58-1.771l-2.425-1.823l-8.713-6.549
		l-3.125-2.35C86.098,78.679,85.981,73.626,88.924,69.711z M203.523,217.526c-4.365,3.444-10.729,2.709-14.172-1.669
		c-11.439-14.477-28.793-23.072-47.594-23.072c-0.008,0-0.017,0-0.025,0s-0.017,0-0.025,0c-18.8,0-36.154,8.598-47.593,23.072
		c-3.443,4.378-9.807,5.113-14.172,1.669c-2.459-1.937-3.77-4.78-3.842-7.676c-0.042-2.253,0.663-4.533,2.164-6.444
		c15.213-19.293,38.4-30.808,63.468-30.816c25.068,0.009,48.256,11.522,63.469,30.815c1.502,1.911,2.205,4.19,2.164,6.444
		C207.293,212.746,205.982,215.59,203.523,217.526z"/>
</g>
</svg>
