<?xml version="1.0" encoding="utf-8"?>
<!-- Generator: Adobe Illustrator 15.1.0, SVG Export Plug-In . SVG Version: 6.00 Build 0)  -->
<!DOCTYPE svg PUBLIC "-//W3C//DTD SVG 1.1//EN" "http://www.w3.org/Graphics/SVG/1.1/DTD/svg11.dtd">
<svg version="1.1" id="Layer_1" xmlns="http://www.w3.org/2000/svg" xmlns:xlink="http://www.w3.org/1999/xlink" x="0px" y="0px"
	 width="283.46px" height="283.46px" viewBox="0 0 283.46 283.46" enable-background="new 0 0 283.46 283.46" xml:space="preserve">
<g>
	<path fill="none" d="M246.572,81.209c-36.282,0-173.396,0-209.682,0c-4.885,0-8.85,3.964-8.85,8.854c0,30.918,0,133.911,0,164.825
		c0,4.895,3.965,8.854,8.854,8.854c36.281,0,173.395,0,209.677,0c4.896,0,8.854-3.959,8.854-8.854c0-30.914,0-133.907,0-164.825
		C255.426,85.172,251.467,81.209,246.572,81.209z M210.231,160.259l-39.389,29.043l14.794,46.648l2.564,8.079l-6.892-4.933
		l-39.794-28.489l-39.793,28.489l-6.89,4.933l2.562-8.079l14.796-46.648l-39.391-29.043l-6.823-5.03l8.477-0.06l48.938-0.343
		l15.45-46.437l2.675-8.042l2.675,8.042l15.45,46.437l48.939,0.343l8.477,0.06L210.231,160.259z"/>
	<path fill="#010101" d="M247.528,28.199h-16.086c0,5.066,0,9.477-0.009,9.471c4.125,3.214,6.765,8.222,6.765,13.847
		c0,9.687-7.865,17.555-17.554,17.555c-9.688,0-17.555-7.868-17.555-17.555c0-5.625,2.654-10.633,6.767-13.847v-9.471H152.31
		c0,5.066,0,9.477-0.012,9.471c4.122,3.214,6.766,8.222,6.766,13.847c0,9.687-7.863,17.555-17.554,17.555
		c-9.687,0-17.554-7.868-17.554-17.555c0-5.625,2.652-10.633,6.773-13.847l-0.007-9.471H73.611c0,5.066,0,9.477-0.004,9.471
		c4.119,3.214,6.767,8.222,6.767,13.847c0,9.687-7.868,17.555-17.556,17.555c-9.687,0-17.554-7.868-17.554-17.555
		c0-5.625,2.646-10.633,6.768-13.847v-9.471h-16.09c-11.343,0-20.541,9.2-20.541,20.542c0,46.44,0,159.136,0,206.309
		c0,5.655,2.247,11.087,6.247,15.085c3.999,3.991,9.419,6.241,15.076,6.241c47.66,0,162.353,0,210.023,0
		c5.655,0,11.075-2.25,15.074-6.241c3.999-3.998,6.244-9.43,6.244-15.085c0-47.173,0-159.869,0-206.309
		C268.066,37.396,258.871,28.199,247.528,28.199z M255.426,254.887c0,4.895-3.959,8.854-8.854,8.854c-36.282,0-173.396,0-209.677,0
		c-4.89,0-8.854-3.959-8.854-8.854c0-30.914,0-133.907,0-164.825c0-4.89,3.965-8.854,8.85-8.854c36.286,0,173.4,0,209.682,0
		c4.896,0,8.854,3.963,8.854,8.854C255.426,120.98,255.426,223.973,255.426,254.887z"/>
	<path fill="#010101" d="M141.511,64.6c7.221,0,13.083-5.863,13.083-13.083c0-4.926-2.727-9.226-6.757-11.452V13.4
		c0-3.485-2.841-6.315-6.326-6.315c-3.488,0-6.312,2.829-6.312,6.315v26.667c-4.033,2.227-6.764,6.526-6.764,11.452
		C128.436,58.737,134.298,64.6,141.511,64.6z"/>
	<path fill="#010101" d="M62.819,64.6c7.22,0,13.083-5.863,13.083-13.083c0-4.926-2.73-9.226-6.762-11.452V13.4
		c0-3.485-2.833-6.315-6.32-6.315c-3.485,0-6.317,2.829-6.317,6.315v26.667c-4.032,2.227-6.763,6.526-6.763,11.452
		C49.739,58.737,55.602,64.6,62.819,64.6z"/>
	<path fill="#010101" d="M220.647,64.6c7.219,0,13.08-5.863,13.08-13.083c0-4.926-2.736-9.226-6.757-11.452V13.4
		c0-3.485-2.84-6.315-6.323-6.315c-3.486,0-6.314,2.829-6.314,6.315v26.667c-4.031,2.227-6.767,6.526-6.767,11.452
		C207.566,58.737,213.425,64.6,220.647,64.6z"/>
	<polygon fill="#010101" points="159.639,154.826 144.19,108.389 141.514,100.347 138.838,108.389 123.389,154.826 74.451,155.169 
		65.974,155.228 72.797,160.259 112.188,189.302 97.391,235.951 94.83,244.03 101.72,239.097 141.514,210.608 181.308,239.097 
		188.201,244.03 185.635,235.951 170.842,189.302 210.231,160.259 217.055,155.228 208.578,155.169 	"/>
</g>
</svg>
