<?xml version="1.0" encoding="utf-8"?>
<!-- Generator: Adobe Illustrator 15.1.0, SVG Export Plug-In . SVG Version: 6.00 Build 0)  -->
<!DOCTYPE svg PUBLIC "-//W3C//DTD SVG 1.1//EN" "http://www.w3.org/Graphics/SVG/1.1/DTD/svg11.dtd">
<svg version="1.1" id="Layer_1" xmlns="http://www.w3.org/2000/svg" xmlns:xlink="http://www.w3.org/1999/xlink" x="0px" y="0px"
	 width="283.46px" height="283.46px" viewBox="0 0 283.46 283.46" enable-background="new 0 0 283.46 283.46" xml:space="preserve">
<g>
	<path fill="none" d="M256.028,98.707c-33.029,0-157.85,0-190.883,0c-4.447,0-8.057,3.608-8.057,8.06c0,28.146,0,121.905,0,150.048
		c0,4.455,3.609,8.059,8.061,8.059c33.029,0,157.85,0,190.879,0c4.457,0,8.061-3.604,8.061-8.059c0-28.143,0-121.902,0-150.048
		C264.088,102.314,260.485,98.707,256.028,98.707z M222.945,170.669l-35.856,26.439l13.467,42.465l2.335,7.355l-6.274-4.49
		l-36.227-25.936l-36.227,25.936l-6.272,4.49l2.332-7.355l13.47-42.465l-35.859-26.439l-6.211-4.58l7.717-0.053l44.551-0.314
		l14.064-42.273l2.436-7.321l2.436,7.321l14.064,42.273l44.551,0.314l7.718,0.053L222.945,170.669z"/>
	<path d="M36.671,226.175H27.43c-2.24,0-4.429-0.904-6.008-2.486c-1.039-1.039-1.797-2.348-2.185-3.773
		c-0.006-0.02-0.014-0.037-0.019-0.055c-0.178-0.688-0.279-1.396-0.279-2.111v-9.242c0-3.016-2.446-5.463-5.462-5.463
		c-3.017,0-5.463,2.447-5.463,5.463c0,3.318,0,6.41,0,9.242c0,1.691,0.242,3.352,0.667,4.961c0.006,0.023,0.008,0.049,0.015,0.072
		c0.005,0.02,0.013,0.037,0.018,0.057c0.127,0.467,0.274,0.928,0.436,1.383c0.005,0.014,0.01,0.027,0.014,0.041
		c0.958,2.688,2.482,5.166,4.538,7.219c0.007,0.006,0.014,0.014,0.02,0.02c0.002,0,0.004,0.002,0.005,0.004
		c0.006,0.008,0.012,0.014,0.019,0.02c0,0,0.001,0,0.002,0c0.005,0.008,0.012,0.014,0.018,0.018
		c0.002,0.002,0.002,0.004,0.003,0.006c0.008,0.006,0.015,0.014,0.02,0.018c0.001,0.002,0.001,0.002,0.001,0.002
		c0.007,0.006,0.014,0.014,0.02,0.018c0.001,0.002,0.003,0.004,0.003,0.004c0.015,0.012,0.026,0.027,0.04,0.039
		c0.001,0.002,0.003,0.002,0.004,0.004c0.006,0.008,0.013,0.012,0.02,0.02c0.001,0,0.001,0,0.001,0
		c0.007,0.008,0.012,0.012,0.02,0.018c0,0.002,0.001,0.004,0.003,0.006c0.007,0.004,0.013,0.012,0.02,0.018c0,0,0,0.002,0.001,0.002
		c0.007,0.006,0.013,0.012,0.019,0.018c0.002,0.002,0.003,0.002,0.004,0.004c0.007,0.006,0.014,0.012,0.02,0.02
		c0.001,0,0.002,0,0.002,0.002c0.006,0.004,0.013,0.01,0.019,0.018c0.001,0,0.003,0.002,0.003,0.002
		c0.007,0.006,0.014,0.014,0.021,0.02c0.001,0,0.001,0.002,0.002,0.002c0.006,0.004,0.011,0.012,0.019,0.018
		c0,0.002,0.001,0.002,0.003,0.002c0.007,0.006,0.013,0.014,0.02,0.02c0.001,0.002,0.002,0.002,0.002,0.002
		c0.006,0.006,0.013,0.012,0.019,0.018c0.001,0.002,0.003,0.002,0.003,0.002c0.007,0.006,0.014,0.014,0.021,0.02
		c0.001,0,0.001,0,0.002,0c0.006,0.008,0.012,0.014,0.019,0.02c0.002,0,0.002,0.002,0.003,0.002c0.007,0.008,0.014,0.014,0.02,0.02
		c0.001,0,0.002,0,0.002,0.002c0.008,0.006,0.014,0.014,0.02,0.018c0.001,0,0.002,0.002,0.002,0.002
		c0.007,0.008,0.015,0.014,0.021,0.02c0,0,0.001,0,0.002,0.002c0.006,0.006,0.012,0.012,0.019,0.018
		c0.001,0,0.002,0.002,0.003,0.002c0.007,0.008,0.014,0.014,0.021,0.02c0,0,0,0,0.002,0.002c0.006,0.006,0.013,0.012,0.019,0.018
		c0.001,0,0.001,0.002,0.003,0.002c0.006,0.008,0.014,0.014,0.02,0.02c0.002,0,0.002,0,0.002,0.002
		c0.007,0.006,0.015,0.012,0.021,0.018c0.001,0,0.001,0.002,0.002,0.002c0.007,0.006,0.013,0.012,0.021,0.02
		c0.001,0,0.001,0,0.002,0.002c0.007,0.006,0.013,0.012,0.02,0.018c0,0,0.001,0,0.002,0.002c0.007,0.006,0.014,0.012,0.021,0.018
		c0.001,0.002,0.002,0.002,0.003,0.004c0.006,0.006,0.013,0.01,0.019,0.016c0.001,0.002,0.002,0.002,0.003,0.002
		c0.007,0.008,0.013,0.012,0.021,0.02c0.001,0,0.002,0.002,0.002,0.002c0.007,0.006,0.014,0.012,0.02,0.018
		c0.001,0,0.001,0.002,0.001,0.002c0.008,0.006,0.015,0.012,0.021,0.018c0.001,0.002,0.002,0.002,0.004,0.004
		c0.005,0.006,0.013,0.01,0.018,0.016c0.001,0.002,0.002,0.002,0.003,0.004c0.007,0.006,0.013,0.01,0.021,0.018
		c0.002,0,0.002,0.002,0.003,0.004c0.007,0.006,0.013,0.01,0.019,0.016c0.001,0,0.001,0.002,0.002,0.002
		c0.007,0.006,0.014,0.012,0.021,0.018c0.002,0.002,0.002,0.002,0.004,0.004c0.006,0.006,0.013,0.01,0.02,0.016
		c0,0.002,0.001,0.002,0.002,0.002c0.006,0.008,0.013,0.012,0.02,0.018c0.002,0.002,0.002,0.004,0.003,0.004
		c0.008,0.006,0.014,0.012,0.02,0.018c0.001,0,0.002,0,0.002,0c0.008,0.008,0.015,0.012,0.021,0.02l0.002,0.002
		c0.007,0.008,0.014,0.012,0.021,0.018c0,0,0,0,0,0.002c0.007,0.006,0.014,0.01,0.021,0.018c0.001,0,0.001,0.002,0.003,0.004
		c0.008,0.006,0.014,0.01,0.021,0.018c0.007,0.006,0.014,0.01,0.021,0.018c0.002,0,0.004,0.002,0.005,0.004
		c0.006,0.006,0.013,0.01,0.019,0.016c0.002,0,0.002,0.002,0.002,0.002c0.007,0.006,0.014,0.01,0.021,0.018
		c0.001,0,0.002,0.002,0.004,0.004c0.007,0.006,0.014,0.01,0.02,0.016l0.001,0.002c0.007,0.006,0.014,0.012,0.021,0.018
		c0.002,0,0.004,0.002,0.005,0.004c0.006,0.006,0.013,0.01,0.02,0.016c0,0,0,0,0,0.002c0.008,0.006,0.015,0.012,0.021,0.016
		c0.001,0.002,0.003,0.004,0.004,0.004c0.015,0.012,0.028,0.025,0.042,0.035c0.001,0.002,0.002,0.004,0.004,0.004
		c0.008,0.006,0.014,0.014,0.02,0.018h0.001c0.008,0.006,0.014,0.012,0.021,0.018c0.002,0,0.004,0.002,0.006,0.004
		c0.013,0.012,0.026,0.023,0.041,0.033c0.001,0.002,0.002,0.004,0.004,0.004c0.014,0.014,0.027,0.023,0.041,0.035
		c0.002,0,0.004,0.002,0.005,0.004c0.007,0.006,0.014,0.012,0.021,0.018c0.008,0.006,0.014,0.012,0.02,0.018
		c0.003,0.002,0.004,0.002,0.007,0.002c0.006,0.006,0.013,0.014,0.021,0.02c0,0,0.001,0,0.002,0c0.005,0.006,0.011,0.01,0.018,0.016
		c0.002,0.002,0.004,0.004,0.006,0.004c0.006,0.006,0.014,0.012,0.02,0.018c0.001,0,0.003,0.002,0.005,0.002
		c0.005,0.004,0.011,0.01,0.016,0.014c0.002,0.002,0.005,0.004,0.006,0.006c0.007,0.004,0.014,0.01,0.02,0.016
		c0.001,0.002,0.003,0.002,0.005,0.004c0.005,0.002,0.011,0.008,0.016,0.012c0.002,0.002,0.005,0.004,0.008,0.006
		c0.006,0.004,0.012,0.01,0.02,0.016c0.001,0.002,0.002,0.002,0.003,0.004c0.006,0.004,0.011,0.008,0.017,0.012
		c0.002,0.002,0.005,0.004,0.007,0.006c0.005,0.006,0.013,0.01,0.02,0.016c0.001,0.002,0.002,0.002,0.004,0.004
		c0.005,0.004,0.011,0.008,0.016,0.012c0.003,0.002,0.006,0.004,0.007,0.006c0.008,0.006,0.013,0.01,0.02,0.016
		c0.002,0.002,0.004,0.002,0.005,0.004c0.005,0.004,0.011,0.008,0.016,0.012c0.003,0.002,0.005,0.004,0.007,0.006
		c0.007,0.006,0.012,0.01,0.02,0.016c0.002,0.002,0.003,0.002,0.005,0.004c0.006,0.004,0.011,0.01,0.016,0.012
		c0.002,0.002,0.005,0.004,0.008,0.006c0.005,0.006,0.013,0.012,0.018,0.014c0.003,0.002,0.005,0.004,0.007,0.006
		c0.005,0.004,0.009,0.008,0.015,0.014c0.002,0,0.005,0.002,0.007,0.004c0.007,0.004,0.013,0.01,0.02,0.016
		c0.002,0,0.004,0.002,0.006,0.004c0.005,0.004,0.01,0.008,0.014,0.012c0.004,0.002,0.006,0.004,0.008,0.004
		c0.007,0.006,0.013,0.012,0.02,0.018c0.001,0.002,0.004,0.002,0.006,0.002c0.004,0.004,0.01,0.01,0.015,0.014
		c0.002,0.002,0.005,0.004,0.008,0.006c0.006,0.004,0.012,0.008,0.019,0.014c0.003,0.002,0.004,0.004,0.006,0.006
		c0.006,0.002,0.011,0.006,0.016,0.01c0.002,0.002,0.004,0.004,0.006,0.006c0.007,0.006,0.014,0.01,0.02,0.016
		c0.003,0,0.005,0.002,0.006,0.004c0.006,0.004,0.01,0.006,0.016,0.012c0.002,0.002,0.005,0.004,0.007,0.006
		c0.007,0.004,0.013,0.008,0.019,0.014c0.003,0.002,0.005,0.004,0.008,0.006c0.004,0.004,0.01,0.008,0.013,0.01
		c0.004,0.002,0.006,0.004,0.009,0.006c0.006,0.006,0.013,0.01,0.019,0.014c0.003,0.002,0.005,0.004,0.008,0.006
		c0.004,0.004,0.009,0.008,0.013,0.012c0.003,0.002,0.006,0.002,0.009,0.004c0.006,0.006,0.011,0.01,0.019,0.016
		c0.002,0.002,0.005,0.002,0.008,0.006c0.004,0.002,0.008,0.006,0.012,0.01c0.003,0.002,0.007,0.004,0.01,0.006
		c0.006,0.004,0.012,0.008,0.018,0.014c0.003,0.002,0.006,0.004,0.009,0.006c0.004,0.002,0.008,0.006,0.012,0.01
		c0.004,0.002,0.006,0.004,0.009,0.006c0.006,0.004,0.013,0.008,0.018,0.014c0.004,0.002,0.007,0.004,0.01,0.008
		c0.004,0.002,0.008,0.004,0.012,0.006c0.004,0.004,0.007,0.008,0.011,0.01c0.005,0.004,0.011,0.008,0.016,0.012
		c0.004,0.002,0.007,0.004,0.01,0.008c0.004,0.002,0.008,0.006,0.011,0.008c0.005,0.002,0.008,0.004,0.012,0.008
		c0.006,0.004,0.011,0.008,0.017,0.012c0.002,0.002,0.006,0.004,0.01,0.008c0.003,0.002,0.007,0.004,0.01,0.008
		c0.005,0.004,0.01,0.006,0.014,0.01c0.006,0.002,0.009,0.006,0.015,0.01c0.003,0.002,0.007,0.004,0.01,0.006
		c0.003,0.004,0.006,0.006,0.01,0.008c0.005,0.006,0.011,0.01,0.016,0.012c0.005,0.004,0.008,0.006,0.012,0.008
		c0.004,0.004,0.008,0.008,0.012,0.01c0.003,0,0.005,0.002,0.009,0.006c0.005,0.004,0.013,0.01,0.018,0.014
		c0.004,0.002,0.007,0.004,0.011,0.006s0.007,0.006,0.011,0.01c0.004,0.002,0.006,0.004,0.01,0.006
		c0.005,0.004,0.011,0.008,0.016,0.012c0.004,0.002,0.009,0.006,0.012,0.008c0.004,0.002,0.007,0.004,0.011,0.008
		c0.004,0.002,0.006,0.004,0.009,0.006c0.007,0.006,0.015,0.01,0.021,0.016c0.002,0.002,0.004,0.004,0.007,0.006
		c0.004,0.002,0.008,0.004,0.013,0.008c0.002,0,0.005,0.002,0.007,0.004c0.008,0.006,0.015,0.012,0.022,0.016
		c0.002,0.002,0.004,0.004,0.006,0.006c0.004,0.002,0.01,0.006,0.013,0.01c0.002,0.002,0.004,0.002,0.007,0.002
		c0.008,0.008,0.017,0.014,0.023,0.02c0.002,0,0.004,0,0.006,0.002c0.004,0.004,0.009,0.006,0.013,0.01
		c0.002,0.002,0.004,0.002,0.006,0.004c0.008,0.004,0.017,0.012,0.025,0.018c0.001,0.002,0.002,0.002,0.004,0.004
		c0.005,0.002,0.01,0.004,0.014,0.008c0.002,0.002,0.003,0.002,0.005,0.004c0.008,0.006,0.017,0.012,0.025,0.018
		c0.002,0.002,0.004,0.002,0.006,0.004c0.003,0.004,0.009,0.008,0.013,0.008c0.001,0.002,0.003,0.002,0.004,0.004
		c0.01,0.006,0.018,0.014,0.027,0.018c0.001,0.002,0.002,0.002,0.004,0.004c0.004,0.004,0.009,0.006,0.014,0.01
		c0.001,0.002,0.002,0.002,0.004,0.002c0.009,0.006,0.019,0.014,0.028,0.021h0.002c0.006,0.002,0.011,0.006,0.016,0.01
		c0,0,0,0.002,0.002,0.002c0.009,0.006,0.019,0.012,0.028,0.02c0.001,0,0.002,0.002,0.004,0.002c0.006,0.004,0.01,0.008,0.015,0.01
		h0.001c0.01,0.008,0.02,0.016,0.03,0.021c0,0,0.002,0,0.002,0.002c0.017,0.012,0.032,0.021,0.047,0.031
		c0.001,0.002,0.001,0.002,0.003,0.002c0.017,0.01,0.032,0.021,0.048,0.031c0.017,0.012,0.032,0.023,0.049,0.033h0.001
		c0.017,0.012,0.032,0.021,0.048,0.033c0,0,0.001,0,0.002,0c1.712,1.123,3.588,1.967,5.561,2.504
		c0.325,0.088,0.651,0.135,0.977,0.162c1.345,0.291,2.724,0.455,4.121,0.455c2.832,0,5.924,0,9.241,0
		c3.016,0,5.462-2.443,5.462-5.461C42.133,228.623,39.687,226.175,36.671,226.175z"/>
	<path d="M13.478,137.271c-3.017,0-5.463,2.445-5.463,5.462c0,12.028,0,23.743,0,34.599c0,3.018,2.446,5.463,5.463,5.463
		c3.016,0,5.462-2.445,5.462-5.463v-34.599C18.94,139.715,16.494,137.271,13.478,137.271z"/>
	<path d="M18.94,62.617c0-3.016-2.446-5.462-5.462-5.462c-3.017,0-5.463,2.446-5.463,5.462c0,10.763,0,22.485,0,34.593
		c0,3.016,2.446,5.462,5.463,5.462c3.016,0,5.462-2.446,5.462-5.462V62.617z"/>
	<path d="M13.329,41.202c0.783,0,1.526-0.168,2.199-0.465c2-0.811,3.412-2.769,3.412-5.061v-9.24c0-0.716,0.102-1.423,0.279-2.11
		c0.005-0.02,0.013-0.037,0.019-0.057c0.177-0.653,0.441-1.277,0.766-1.867c0.125-0.227,0.267-0.444,0.412-0.658
		c0.079-0.117,0.15-0.24,0.235-0.353c0.216-0.287,0.451-0.56,0.702-0.819c0.024-0.025,0.045-0.055,0.069-0.08
		c1.052-1.051,2.375-1.796,3.803-2.182c0.716-0.193,1.456-0.303,2.205-0.303h0.048h1.397h1.063v-0.001h6.521
		c3.017,0,5.463-2.446,5.463-5.462c0-3.016-2.446-5.462-5.463-5.462c-2.625,0-5.104,0-7.431,0c-0.538,0-1.077,0-1.598,0
		c-0.069,0-0.144,0-0.213,0c-1.456,0-2.891,0.181-4.289,0.498c-0.199,0.031-0.397,0.066-0.596,0.121
		c-0.153,0.042-0.302,0.098-0.454,0.143c-0.256,0.073-0.508,0.155-0.761,0.239c-0.16,0.055-0.319,0.112-0.478,0.171
		c-2.663,0.959-5.118,2.476-7.156,4.515c-0.006,0.006-0.012,0.013-0.019,0.019c-0.002,0.001-0.003,0.003-0.004,0.004
		c-0.008,0.007-0.013,0.013-0.02,0.02c0,0,0,0-0.001,0c-0.007,0.006-0.013,0.013-0.018,0.019c-0.002,0.001-0.003,0.002-0.005,0.003
		c-0.006,0.007-0.013,0.013-0.019,0.02c-0.001,0-0.001,0-0.001,0c-0.006,0.007-0.013,0.013-0.019,0.02
		c-0.002,0.001-0.003,0.002-0.004,0.003c-0.012,0.014-0.025,0.026-0.038,0.04c-0.002,0.001-0.003,0.002-0.004,0.004
		c-0.007,0.006-0.013,0.013-0.02,0.02c0,0,0,0,0,0.001c-0.007,0.006-0.013,0.012-0.019,0.019c-0.001,0-0.002,0.002-0.004,0.003
		c-0.007,0.007-0.013,0.013-0.019,0.02c0,0-0.001,0-0.001,0.001c-0.007,0.006-0.013,0.012-0.019,0.019
		c-0.001,0.001-0.002,0.002-0.004,0.003c-0.006,0.007-0.013,0.014-0.019,0.02c-0.001,0-0.001,0.001-0.002,0.001
		c-0.005,0.006-0.012,0.012-0.018,0.019c-0.001,0.001-0.002,0.002-0.003,0.003c-0.006,0.006-0.014,0.013-0.02,0.02
		c0,0-0.001,0.002-0.002,0.002c-0.005,0.006-0.012,0.012-0.017,0.018c-0.002,0.001-0.003,0.003-0.004,0.004
		c-0.006,0.006-0.012,0.013-0.019,0.02c-0.001,0.001-0.002,0.001-0.002,0.001c-0.006,0.006-0.012,0.013-0.018,0.019
		c-0.001,0-0.002,0.002-0.003,0.003c-0.006,0.007-0.013,0.014-0.02,0.02c0,0,0,0.001,0,0.002c-0.007,0.006-0.013,0.012-0.02,0.019
		c-0.001,0.001-0.001,0.001-0.002,0.002c-0.007,0.007-0.013,0.014-0.019,0.021c-0.001,0-0.001,0.001-0.002,0.002
		c-0.007,0.006-0.013,0.013-0.018,0.019c-0.001,0.001-0.002,0.001-0.002,0.002c-0.008,0.007-0.014,0.014-0.02,0.021
		c-0.001,0-0.001,0.001-0.002,0.001c-0.007,0.007-0.012,0.012-0.018,0.019c-0.001,0.001-0.002,0.002-0.003,0.002
		c-0.006,0.007-0.013,0.014-0.019,0.021c-0.001,0.001-0.001,0.001-0.002,0.002c-0.006,0.006-0.012,0.012-0.018,0.019
		c-0.001,0-0.002,0.001-0.003,0.002c-0.006,0.006-0.013,0.014-0.019,0.02c-0.001,0.001-0.001,0.001-0.002,0.002
		c-0.006,0.007-0.013,0.013-0.018,0.02c-0.001,0-0.002,0.001-0.002,0.002c-0.006,0.007-0.013,0.014-0.02,0.021
		c0,0-0.001,0.001-0.002,0.002c-0.006,0.006-0.012,0.013-0.018,0.019c0,0-0.001,0.001-0.002,0.002
		c-0.006,0.006-0.013,0.013-0.019,0.021c-0.001,0-0.002,0.001-0.003,0.002c-0.005,0.006-0.011,0.013-0.016,0.018
		c-0.002,0.001-0.002,0.002-0.003,0.003c-0.007,0.007-0.013,0.013-0.019,0.021c-0.001,0.001-0.002,0.001-0.003,0.002
		c-0.005,0.006-0.011,0.013-0.017,0.019c-0.001,0.001-0.002,0.001-0.002,0.002c-0.006,0.007-0.012,0.014-0.019,0.021
		c-0.001,0.001-0.002,0.002-0.003,0.003c-0.006,0.006-0.011,0.013-0.017,0.018c-0.001,0.001-0.002,0.002-0.003,0.003
		c-0.005,0.007-0.011,0.014-0.018,0.021c-0.001,0.001-0.002,0.002-0.003,0.003c-0.006,0.006-0.011,0.013-0.018,0.019
		c0,0-0.001,0.001-0.001,0.002c-0.006,0.007-0.012,0.014-0.019,0.021c-0.001,0.001-0.002,0.001-0.003,0.003
		c-0.005,0.006-0.011,0.013-0.017,0.019c-0.001,0.001-0.001,0.001-0.002,0.002c-0.006,0.007-0.012,0.014-0.018,0.021
		c-0.002,0.001-0.003,0.002-0.003,0.003c-0.006,0.007-0.012,0.013-0.018,0.02c-0.001,0-0.001,0.001-0.001,0.001
		c-0.006,0.007-0.012,0.014-0.019,0.021c-0.001,0-0.002,0.001-0.003,0.002c-0.006,0.007-0.011,0.014-0.018,0.021c0,0,0,0-0.001,0
		c-0.006,0.007-0.011,0.014-0.018,0.021c-0.001,0.001-0.002,0.002-0.003,0.003c-0.006,0.006-0.012,0.013-0.019,0.021
		c-0.005,0.007-0.012,0.014-0.018,0.021c-0.001,0.001-0.003,0.003-0.004,0.004c-0.005,0.006-0.01,0.013-0.017,0.019
		c0,0.001-0.001,0.001-0.001,0.001c-0.006,0.007-0.012,0.014-0.018,0.021c-0.001,0.001-0.003,0.003-0.004,0.004
		c-0.005,0.006-0.011,0.013-0.017,0.02l-0.001,0c-0.005,0.007-0.012,0.014-0.018,0.021c-0.001,0.001-0.002,0.003-0.004,0.004
		c-0.005,0.007-0.011,0.014-0.017,0.02c0,0,0,0-0.001,0.001c-0.005,0.007-0.012,0.014-0.017,0.021
		c-0.002,0.001-0.003,0.003-0.004,0.004c-0.013,0.014-0.023,0.028-0.035,0.042c-0.001,0.001-0.003,0.002-0.004,0.004
		c-0.005,0.007-0.012,0.013-0.017,0.02c0,0,0,0-0.001,0c-0.006,0.007-0.011,0.013-0.017,0.021c-0.001,0.001-0.003,0.003-0.005,0.005
		c-0.011,0.014-0.022,0.027-0.034,0.041c0,0.002-0.002,0.003-0.003,0.005c-0.012,0.014-0.023,0.027-0.035,0.041
		c-0.001,0.002-0.002,0.003-0.004,0.005c-0.006,0.007-0.011,0.014-0.018,0.021c-0.005,0.007-0.01,0.013-0.016,0.02
		c-0.002,0.002-0.004,0.003-0.004,0.006c-0.006,0.006-0.012,0.013-0.018,0.02c-0.001,0-0.001,0.001-0.002,0.001
		c-0.005,0.006-0.01,0.012-0.015,0.019c-0.002,0.002-0.004,0.004-0.005,0.006c-0.005,0.007-0.011,0.013-0.016,0.02
		c-0.001,0.001-0.003,0.002-0.004,0.004c-0.004,0.005-0.009,0.011-0.013,0.016c-0.002,0.002-0.004,0.005-0.006,0.006
		c-0.005,0.007-0.011,0.013-0.016,0.02c-0.001,0.001-0.002,0.003-0.003,0.004c-0.004,0.006-0.009,0.011-0.014,0.017
		c-0.001,0.002-0.003,0.004-0.005,0.007c-0.005,0.006-0.011,0.013-0.016,0.02c-0.001,0.001-0.002,0.002-0.003,0.003
		c-0.005,0.005-0.009,0.011-0.014,0.017c-0.002,0.002-0.003,0.005-0.005,0.006c-0.006,0.006-0.011,0.014-0.017,0.02
		c0,0.001-0.001,0.003-0.003,0.005c-0.004,0.005-0.008,0.01-0.013,0.016c-0.002,0.002-0.004,0.004-0.005,0.007
		c-0.006,0.006-0.011,0.012-0.016,0.019c-0.002,0.001-0.003,0.003-0.004,0.004c-0.004,0.005-0.009,0.011-0.013,0.016
		c-0.002,0.002-0.004,0.004-0.006,0.007c-0.005,0.006-0.01,0.012-0.015,0.019c-0.002,0.001-0.003,0.004-0.005,0.006
		c-0.003,0.005-0.008,0.01-0.012,0.015c-0.001,0.002-0.004,0.005-0.006,0.007c-0.004,0.006-0.01,0.013-0.014,0.019
		c-0.002,0.002-0.004,0.004-0.006,0.006c-0.004,0.005-0.007,0.01-0.012,0.015c-0.002,0.002-0.003,0.005-0.005,0.007
		c-0.005,0.006-0.01,0.012-0.016,0.019c-0.001,0.001-0.002,0.004-0.004,0.006c-0.004,0.005-0.008,0.01-0.012,0.015
		c-0.002,0.002-0.004,0.005-0.006,0.007c-0.005,0.006-0.01,0.013-0.015,0.019c-0.002,0.002-0.003,0.004-0.005,0.006
		c-0.003,0.005-0.008,0.01-0.011,0.015c-0.002,0.002-0.004,0.004-0.006,0.007c-0.005,0.006-0.01,0.013-0.015,0.019
		c-0.002,0.002-0.003,0.004-0.005,0.006c-0.004,0.005-0.008,0.01-0.012,0.015c-0.002,0.002-0.003,0.004-0.005,0.006
		c-0.006,0.007-0.01,0.013-0.016,0.02c-0.001,0.002-0.002,0.004-0.004,0.006c-0.004,0.005-0.008,0.01-0.012,0.015
		c-0.002,0.002-0.004,0.005-0.006,0.007c-0.004,0.006-0.009,0.012-0.014,0.019c-0.002,0.002-0.004,0.005-0.006,0.007
		c-0.003,0.005-0.007,0.01-0.01,0.014c-0.002,0.002-0.004,0.005-0.007,0.008c-0.004,0.006-0.009,0.013-0.014,0.019
		c-0.001,0.003-0.004,0.005-0.006,0.008c-0.004,0.004-0.006,0.009-0.01,0.013c-0.002,0.003-0.004,0.005-0.006,0.008
		c-0.005,0.006-0.009,0.012-0.014,0.019c-0.003,0.002-0.004,0.006-0.007,0.008c-0.003,0.004-0.006,0.008-0.009,0.012
		c-0.002,0.003-0.005,0.006-0.007,0.009c-0.004,0.006-0.009,0.012-0.013,0.018c-0.003,0.003-0.005,0.006-0.008,0.009
		c-0.002,0.004-0.006,0.008-0.009,0.012c-0.002,0.003-0.004,0.006-0.006,0.009c-0.005,0.006-0.009,0.012-0.014,0.018
		c-0.002,0.003-0.004,0.006-0.007,0.01s-0.005,0.007-0.008,0.011c-0.003,0.004-0.007,0.008-0.009,0.012
		c-0.004,0.005-0.008,0.01-0.012,0.016c-0.002,0.003-0.005,0.006-0.007,0.01c-0.003,0.003-0.006,0.007-0.009,0.011
		c-0.002,0.004-0.005,0.007-0.008,0.012c-0.003,0.005-0.008,0.01-0.012,0.015c-0.002,0.003-0.005,0.007-0.008,0.01
		c-0.002,0.004-0.004,0.007-0.007,0.01c-0.004,0.005-0.007,0.01-0.011,0.014c-0.003,0.005-0.006,0.009-0.01,0.014
		c-0.002,0.003-0.005,0.006-0.007,0.01c-0.003,0.003-0.006,0.006-0.008,0.01c-0.004,0.005-0.008,0.01-0.011,0.016
		c-0.004,0.004-0.006,0.008-0.009,0.011c-0.002,0.003-0.006,0.008-0.009,0.011c-0.002,0.003-0.003,0.006-0.006,0.009
		c-0.005,0.006-0.009,0.013-0.014,0.018c-0.002,0.003-0.004,0.007-0.007,0.01c-0.002,0.004-0.006,0.007-0.008,0.011
		c-0.002,0.003-0.005,0.006-0.008,0.01c-0.003,0.005-0.007,0.011-0.01,0.016c-0.003,0.003-0.006,0.007-0.009,0.011
		s-0.005,0.007-0.009,0.011c-0.002,0.003-0.003,0.005-0.005,0.008c-0.006,0.007-0.01,0.014-0.016,0.021
		c-0.002,0.002-0.003,0.005-0.005,0.007c-0.003,0.004-0.006,0.008-0.009,0.012c-0.001,0.002-0.003,0.005-0.005,0.007
		c-0.005,0.008-0.011,0.015-0.016,0.022c-0.002,0.002-0.003,0.004-0.005,0.006c-0.003,0.004-0.006,0.009-0.009,0.014
		c-0.002,0.001-0.003,0.003-0.004,0.005c-0.007,0.008-0.012,0.017-0.019,0.025c-0.001,0.001-0.001,0.003-0.002,0.005
		c-0.004,0.004-0.007,0.009-0.01,0.013c-0.001,0.001-0.002,0.003-0.004,0.005c-0.005,0.008-0.012,0.017-0.018,0.025
		c-0.001,0.001-0.002,0.002-0.003,0.004c-0.004,0.004-0.006,0.009-0.01,0.014c-0.001,0.002-0.002,0.002-0.003,0.004
		c-0.006,0.008-0.012,0.017-0.019,0.026c-0.001,0.001-0.002,0.003-0.003,0.005c-0.003,0.004-0.007,0.009-0.01,0.014
		c0,0.001-0.001,0.002-0.002,0.003c-0.007,0.01-0.013,0.018-0.019,0.027c-0.001,0.001-0.002,0.002-0.003,0.003
		c-0.004,0.005-0.007,0.01-0.01,0.015c-0.001,0.001-0.001,0.002-0.002,0.003c-0.007,0.009-0.014,0.019-0.021,0.029
		c0,0-0.001,0.001-0.001,0.001c-0.003,0.005-0.007,0.01-0.011,0.016c0,0-0.001,0.001-0.001,0.002
		c-0.006,0.009-0.013,0.019-0.02,0.028c-0.001,0.001-0.002,0.003-0.002,0.004c-0.004,0.005-0.008,0.01-0.01,0.015v0
		c-0.008,0.01-0.015,0.021-0.021,0.031c-0.001,0.001-0.001,0.002-0.002,0.003c-0.011,0.016-0.021,0.031-0.031,0.046
		c-0.001,0.001-0.001,0.001-0.002,0.002c-0.011,0.016-0.021,0.032-0.032,0.048c0,0,0,0,0,0c-0.011,0.017-0.021,0.032-0.032,0.049v0
		c-0.011,0.017-0.021,0.032-0.032,0.048c0,0,0,0.001-0.001,0.001c-1.123,1.712-1.968,3.589-2.504,5.561
		c-0.089,0.326-0.135,0.652-0.162,0.977c-0.293,1.345-0.456,2.724-0.456,4.121c0,2.833,0,5.924,0,9.241
		C7.867,38.756,10.312,41.202,13.329,41.202z"/>
	<path d="M67.634,18.009h34.597c3.017,0,5.462-2.446,5.462-5.462c0-3.016-2.445-5.462-5.462-5.462c-12.026,0-23.742,0-34.597,0
		c-3.017,0-5.462,2.446-5.462,5.462C62.172,15.563,64.618,18.009,67.634,18.009z"/>
	<path d="M147.753,18.009h34.604c3.017,0,5.462-2.446,5.462-5.462c0-3.016-2.445-5.462-5.462-5.462c-10.764,0-22.487,0-34.604,0
		c-3.017,0-5.462,2.446-5.462,5.462C142.292,15.563,144.737,18.009,147.753,18.009z"/>
	<path d="M209.298,18.009h9.24c0.716,0,1.423,0.102,2.109,0.279c0.02,0.006,0.037,0.014,0.057,0.019
		c0.653,0.177,1.278,0.441,1.866,0.766c0.228,0.125,0.444,0.267,0.659,0.412c0.117,0.079,0.239,0.151,0.352,0.235
		c0.287,0.216,0.561,0.451,0.819,0.702c0.025,0.024,0.055,0.045,0.08,0.07c1.051,1.051,1.796,2.375,2.182,3.802
		c0.193,0.716,0.303,1.456,0.303,2.205v0.048v1.398v1.062h0.001v0.347c1.541-1.107,3.424-1.767,5.461-1.767
		c2.039,0,3.922,0.659,5.463,1.765c0-0.423,0-0.842,0-1.255c0-0.538,0-1.077,0-1.598c0-1.397-0.163-2.776-0.455-4.121
		c-0.028-0.325-0.074-0.65-0.163-0.977c-0.535-1.972-1.382-3.849-2.504-5.561c-0.002,0-0.002-0.001-0.002-0.001
		c-0.011-0.016-0.021-0.032-0.031-0.048v0c-0.011-0.017-0.021-0.032-0.032-0.049c0,0,0,0,0,0c-0.011-0.016-0.021-0.032-0.032-0.048
		c-0.002-0.001-0.002-0.001-0.002-0.002c-0.011-0.016-0.021-0.031-0.032-0.046c0-0.001,0-0.002-0.001-0.003
		c-0.008-0.01-0.015-0.021-0.021-0.031v0c-0.002-0.005-0.006-0.01-0.009-0.015c-0.002-0.001-0.002-0.002-0.004-0.004
		c-0.006-0.009-0.013-0.019-0.02-0.028c0-0.001,0-0.001,0-0.002c-0.004-0.005-0.007-0.01-0.011-0.016c0,0-0.002-0.001-0.002-0.001
		c-0.007-0.01-0.013-0.02-0.02-0.029c-0.002-0.001-0.002-0.002-0.002-0.003c-0.003-0.005-0.007-0.01-0.011-0.015
		c0-0.001-0.001-0.002-0.001-0.003c-0.008-0.009-0.013-0.018-0.02-0.027c0-0.001-0.002-0.002-0.002-0.003
		c-0.004-0.004-0.008-0.009-0.011-0.014c0-0.002-0.002-0.003-0.002-0.005c-0.007-0.009-0.013-0.018-0.02-0.026
		c0-0.002-0.002-0.002-0.002-0.004c-0.003-0.004-0.007-0.009-0.011-0.014c0-0.002-0.002-0.003-0.002-0.004
		c-0.007-0.009-0.012-0.017-0.018-0.025c-0.002-0.002-0.003-0.004-0.003-0.005c-0.004-0.004-0.008-0.009-0.011-0.013
		c0-0.002-0.002-0.003-0.002-0.005c-0.007-0.008-0.013-0.017-0.018-0.025c-0.002-0.002-0.004-0.004-0.006-0.005
		c-0.002-0.004-0.005-0.009-0.009-0.014c-0.002-0.002-0.002-0.004-0.004-0.006c-0.005-0.007-0.011-0.015-0.016-0.022
		c-0.002-0.002-0.004-0.005-0.005-0.007c-0.004-0.004-0.006-0.008-0.01-0.012c-0.001-0.002-0.003-0.005-0.005-0.007
		c-0.005-0.007-0.009-0.014-0.015-0.021c-0.001-0.003-0.003-0.005-0.005-0.008c-0.004-0.004-0.006-0.007-0.009-0.011
		c-0.004-0.004-0.006-0.008-0.009-0.011c-0.004-0.005-0.008-0.011-0.011-0.016c-0.002-0.003-0.006-0.006-0.007-0.01
		c-0.002-0.004-0.006-0.007-0.008-0.011c-0.003-0.003-0.005-0.006-0.007-0.01c-0.005-0.005-0.009-0.012-0.015-0.018
		c-0.001-0.003-0.003-0.006-0.005-0.009c-0.004-0.003-0.007-0.008-0.009-0.011c-0.004-0.003-0.006-0.007-0.009-0.011
		c-0.004-0.005-0.008-0.01-0.011-0.016c-0.002-0.004-0.006-0.007-0.007-0.01c-0.004-0.003-0.006-0.007-0.008-0.01
		c-0.003-0.005-0.007-0.009-0.011-0.014c-0.003-0.004-0.007-0.009-0.011-0.014c-0.001-0.003-0.005-0.006-0.007-0.01
		c-0.002-0.003-0.005-0.007-0.007-0.01c-0.004-0.005-0.009-0.01-0.013-0.015c-0.002-0.004-0.005-0.008-0.007-0.012
		c-0.004-0.003-0.006-0.007-0.009-0.011c-0.002-0.003-0.006-0.007-0.008-0.01c-0.003-0.005-0.007-0.01-0.01-0.016
		c-0.004-0.004-0.008-0.007-0.01-0.012c-0.003-0.003-0.005-0.007-0.009-0.011c-0.002-0.003-0.003-0.007-0.007-0.01
		c-0.004-0.005-0.009-0.012-0.013-0.018c-0.002-0.003-0.005-0.006-0.007-0.009c-0.002-0.003-0.005-0.008-0.009-0.012
		c-0.002-0.003-0.004-0.005-0.007-0.009c-0.004-0.006-0.01-0.012-0.013-0.018c-0.002-0.003-0.006-0.006-0.007-0.009
		c-0.004-0.004-0.006-0.008-0.01-0.012c-0.001-0.002-0.003-0.006-0.007-0.008c-0.003-0.006-0.009-0.013-0.013-0.019
		c-0.003-0.002-0.005-0.005-0.007-0.008c-0.003-0.004-0.005-0.009-0.009-0.013c-0.002-0.003-0.005-0.005-0.007-0.008
		c-0.004-0.006-0.009-0.012-0.013-0.019c-0.004-0.002-0.005-0.005-0.007-0.008c-0.004-0.004-0.008-0.009-0.011-0.014
		c-0.002-0.002-0.004-0.004-0.006-0.007c-0.005-0.006-0.009-0.013-0.014-0.019c-0.002-0.002-0.004-0.005-0.006-0.007
		c-0.003-0.005-0.007-0.01-0.011-0.015c-0.001-0.002-0.003-0.003-0.005-0.006c-0.006-0.006-0.009-0.013-0.015-0.02
		c-0.001-0.002-0.003-0.004-0.005-0.006c-0.004-0.005-0.009-0.01-0.013-0.015c-0.002-0.002-0.002-0.004-0.003-0.006
		c-0.006-0.006-0.011-0.013-0.017-0.019c-0.002-0.002-0.003-0.004-0.005-0.007c-0.004-0.005-0.008-0.01-0.011-0.015
		c-0.002-0.002-0.004-0.004-0.006-0.006c-0.005-0.006-0.009-0.013-0.014-0.019c-0.002-0.002-0.004-0.005-0.006-0.007
		c-0.003-0.005-0.009-0.01-0.012-0.015c-0.002-0.002-0.004-0.004-0.004-0.006c-0.006-0.007-0.011-0.013-0.017-0.019
		c-0.001-0.002-0.003-0.005-0.005-0.007c-0.004-0.005-0.007-0.01-0.011-0.015c-0.002-0.002-0.004-0.004-0.005-0.006
		c-0.006-0.006-0.011-0.012-0.015-0.019c-0.002-0.002-0.005-0.005-0.007-0.007c-0.004-0.005-0.007-0.01-0.011-0.015
		c-0.002-0.002-0.004-0.004-0.006-0.006c-0.005-0.007-0.009-0.013-0.014-0.019c-0.002-0.002-0.004-0.005-0.006-0.007
		c-0.005-0.005-0.009-0.011-0.012-0.016c-0.002-0.001-0.004-0.003-0.006-0.004c-0.003-0.007-0.009-0.013-0.014-0.019
		c-0.002-0.003-0.004-0.005-0.006-0.007c-0.005-0.005-0.009-0.011-0.013-0.016c-0.001-0.002-0.003-0.003-0.003-0.005
		c-0.006-0.006-0.011-0.013-0.017-0.02c-0.001-0.001-0.003-0.004-0.005-0.006c-0.006-0.005-0.009-0.011-0.015-0.017
		c0-0.001-0.001-0.002-0.001-0.003c-0.006-0.007-0.011-0.013-0.017-0.02c-0.002-0.002-0.003-0.004-0.005-0.007
		c-0.006-0.006-0.009-0.011-0.015-0.017c0-0.001-0.002-0.002-0.002-0.004c-0.005-0.006-0.011-0.013-0.016-0.02
		c-0.002-0.001-0.004-0.004-0.006-0.006c-0.005-0.005-0.009-0.011-0.014-0.016c0-0.001-0.002-0.003-0.004-0.004
		c-0.005-0.007-0.011-0.013-0.016-0.02c0-0.001-0.002-0.004-0.004-0.006c-0.005-0.006-0.011-0.012-0.016-0.019
		c0,0,0-0.001-0.002-0.001c-0.005-0.007-0.011-0.014-0.016-0.02c-0.002-0.002-0.004-0.003-0.006-0.006
		c-0.005-0.007-0.011-0.013-0.016-0.02c-0.006-0.007-0.011-0.014-0.017-0.021c-0.001-0.002-0.003-0.003-0.005-0.005
		c-0.011-0.014-0.023-0.027-0.034-0.041c-0.001-0.001-0.003-0.003-0.003-0.005c-0.013-0.013-0.023-0.027-0.034-0.041
		c-0.002-0.002-0.004-0.003-0.005-0.005c-0.006-0.007-0.011-0.014-0.017-0.021c-0.002,0-0.002,0-0.002,0
		c-0.005-0.007-0.01-0.013-0.016-0.02c-0.002-0.002-0.004-0.003-0.004-0.004c-0.012-0.014-0.022-0.028-0.035-0.042
		c-0.002-0.001-0.002-0.003-0.004-0.004c-0.005-0.007-0.012-0.014-0.018-0.021c0,0,0-0.001,0-0.001
		c-0.007-0.006-0.013-0.013-0.018-0.02c-0.002-0.001-0.002-0.002-0.004-0.004c-0.005-0.007-0.012-0.014-0.018-0.021v0
		c-0.005-0.006-0.013-0.013-0.018-0.02c0-0.001-0.002-0.003-0.004-0.004c-0.005-0.006-0.011-0.014-0.018-0.021c0,0,0,0,0-0.001
		c-0.007-0.006-0.013-0.013-0.018-0.019c0-0.001-0.002-0.003-0.004-0.004c-0.005-0.007-0.013-0.014-0.018-0.021
		c-0.005-0.007-0.013-0.014-0.018-0.021c-0.002-0.001-0.002-0.002-0.004-0.003c-0.005-0.007-0.011-0.014-0.018-0.021c0,0,0,0,0,0
		c-0.007-0.007-0.013-0.014-0.018-0.021c-0.002-0.001-0.002-0.002-0.004-0.002c-0.005-0.007-0.013-0.014-0.018-0.021
		c0,0,0-0.001-0.002-0.001c-0.005-0.007-0.011-0.013-0.016-0.02c-0.002-0.001-0.002-0.002-0.004-0.003
		c-0.005-0.007-0.013-0.014-0.018-0.021c-0.002,0-0.002-0.001-0.002-0.002c-0.005-0.006-0.013-0.013-0.018-0.019
		c0-0.001-0.002-0.002-0.002-0.003c-0.007-0.007-0.013-0.014-0.02-0.021c0,0,0-0.001,0-0.002c-0.007-0.006-0.013-0.012-0.018-0.019
		c-0.002-0.001-0.002-0.002-0.004-0.003c-0.005-0.007-0.013-0.014-0.018-0.021c0-0.001-0.002-0.002-0.002-0.003
		c-0.005-0.005-0.011-0.012-0.018-0.018c0-0.001-0.002-0.002-0.002-0.003c-0.007-0.007-0.013-0.014-0.02-0.021
		c0,0,0-0.001-0.002-0.002c-0.005-0.006-0.011-0.013-0.016-0.019c-0.002-0.001-0.002-0.001-0.004-0.002
		c-0.005-0.007-0.011-0.014-0.018-0.021c-0.002-0.001-0.002-0.002-0.004-0.003c-0.005-0.005-0.011-0.012-0.016-0.018
		c0-0.001-0.002-0.002-0.002-0.002c-0.007-0.007-0.013-0.014-0.02-0.021c0-0.001-0.002-0.002-0.002-0.002
		c-0.005-0.006-0.011-0.013-0.018-0.019c0-0.001-0.002-0.002-0.002-0.002c-0.007-0.007-0.013-0.014-0.02-0.021
		c0,0,0-0.001-0.002-0.002c-0.005-0.007-0.011-0.013-0.018-0.02c0,0,0-0.001-0.002-0.002c-0.005-0.006-0.012-0.014-0.018-0.02
		c-0.002-0.001-0.002-0.002-0.004-0.002c-0.005-0.007-0.01-0.013-0.018-0.019c0-0.001,0-0.001-0.002-0.002
		c-0.005-0.006-0.012-0.013-0.018-0.021c-0.002,0-0.002-0.001-0.003-0.002c-0.006-0.007-0.011-0.012-0.019-0.019
		c0,0,0-0.001-0.001-0.001c-0.006-0.007-0.013-0.014-0.02-0.021c0,0,0-0.001-0.002-0.002c-0.006-0.006-0.011-0.013-0.018-0.019
		c0-0.001,0-0.001-0.002-0.002c-0.006-0.007-0.013-0.014-0.018-0.021c-0.002-0.001-0.002-0.001-0.004-0.002
		c-0.006-0.007-0.013-0.013-0.018-0.019c0,0-0.002-0.001-0.002-0.002c-0.006-0.006-0.013-0.013-0.02-0.02
		c0-0.001-0.002-0.002-0.002-0.003c-0.005-0.006-0.013-0.013-0.018-0.019c0,0-0.002,0-0.002-0.001
		c-0.007-0.007-0.013-0.014-0.02-0.02c0-0.001-0.002-0.003-0.004-0.004c-0.005-0.006-0.011-0.011-0.016-0.018
		c-0.002,0-0.002-0.002-0.002-0.002c-0.007-0.006-0.014-0.013-0.02-0.02c-0.002-0.001-0.002-0.002-0.004-0.003
		c-0.005-0.006-0.012-0.012-0.018-0.019c0,0,0-0.001-0.002-0.001c-0.005-0.006-0.012-0.013-0.018-0.02
		c-0.002-0.001-0.003-0.002-0.003-0.003c-0.008-0.007-0.013-0.013-0.02-0.019c0,0,0-0.001,0-0.001
		c-0.008-0.007-0.013-0.013-0.02-0.02c-0.002-0.001-0.002-0.003-0.004-0.003c-0.006-0.007-0.013-0.013-0.018-0.019
		c0,0-0.002,0-0.002-0.001c-0.006-0.006-0.013-0.013-0.02-0.02c0-0.001-0.002-0.002-0.004-0.004
		c-0.013-0.013-0.024-0.026-0.037-0.04c-0.002-0.001-0.002-0.002-0.004-0.003c-0.007-0.007-0.012-0.013-0.02-0.02c0,0,0,0,0,0
		c-0.007-0.006-0.012-0.013-0.02-0.02c-0.002-0.001-0.002-0.002-0.003-0.003c-0.006-0.006-0.013-0.013-0.019-0.019
		c-0.001,0-0.001,0-0.001,0c-0.008-0.007-0.013-0.013-0.02-0.02c0-0.001-0.002-0.003-0.004-0.004
		c-0.007-0.006-0.013-0.013-0.02-0.019c-2.052-2.053-4.526-3.576-7.21-4.534c-0.02-0.008-0.04-0.015-0.061-0.022
		c-0.45-0.16-0.905-0.305-1.367-0.431c-0.021-0.005-0.041-0.013-0.062-0.019c-0.026-0.007-0.053-0.009-0.079-0.016
		c-1.606-0.424-3.266-0.665-4.955-0.665c-2.832,0-5.925,0-9.24,0c-3.018,0-5.462,2.446-5.462,5.462
		C203.836,15.563,206.281,18.009,209.298,18.009z"/>
	<path fill="#010101" d="M256.898,50.449h-14.644c0,4.611,0,8.627-0.008,8.622c3.755,2.926,6.158,7.484,6.158,12.605
		c0,8.818-7.16,15.981-15.98,15.981c-8.818,0-15.98-7.163-15.98-15.981c0-5.121,2.416-9.68,6.16-12.605v-8.622h-52.387
		c0,4.611,0,8.627-0.011,8.622c3.753,2.926,6.159,7.484,6.159,12.605c0,8.818-7.158,15.981-15.98,15.981
		c-8.818,0-15.98-7.163-15.98-15.981c0-5.121,2.414-9.68,6.166-12.605l-0.007-8.622h-51.99c0,4.611,0,8.627-0.004,8.622
		c3.749,2.926,6.16,7.484,6.16,12.605c0,8.818-7.162,15.981-15.981,15.981c-8.818,0-15.98-7.163-15.98-15.981
		c0-5.121,2.409-9.68,6.161-12.605v-8.622H64.282c-10.326,0-18.699,8.375-18.699,18.701c0,42.276,0,144.869,0,187.813
		c0,5.148,2.045,10.092,5.687,13.732c3.64,3.633,8.574,5.682,13.725,5.682c43.387,0,147.797,0,191.193,0
		c5.148,0,10.082-2.049,13.723-5.682c3.641-3.641,5.685-8.584,5.685-13.732c0-42.943,0-145.536,0-187.813
		C275.595,58.822,267.224,50.449,256.898,50.449z M264.088,256.814c0,4.455-3.604,8.059-8.061,8.059c-33.029,0-157.85,0-190.879,0
		c-4.451,0-8.061-3.604-8.061-8.059c0-28.143,0-121.902,0-150.048c0-4.451,3.609-8.06,8.057-8.06c33.033,0,157.854,0,190.883,0
		c4.457,0,8.061,3.608,8.061,8.06C264.088,134.912,264.088,228.671,264.088,256.814z"/>
	<path fill="#010101" d="M160.386,31.229c-3.175,0-5.746,2.575-5.746,5.749v24.275c-3.672,2.027-6.157,5.941-6.157,10.425
		c0.001,6.571,5.337,11.908,11.903,11.908c6.574,0,11.909-5.337,11.909-11.91c0-4.484-2.481-8.398-6.15-10.425V36.978
		C166.145,33.805,163.559,31.229,160.386,31.229z"/>
	<path fill="#010101" d="M88.75,31.229c-3.173,0-5.751,2.575-5.751,5.749v24.275c-3.671,2.027-6.156,5.941-6.156,10.425
		c0,6.571,5.337,11.908,11.907,11.908c6.572,0,11.909-5.337,11.909-11.91c0-4.484-2.485-8.398-6.155-10.425V36.978
		C94.503,33.805,91.924,31.229,88.75,31.229z"/>
	<path fill="#010101" d="M232.427,31.229c-3.174,0-5.748,2.575-5.748,5.749v24.275c-3.67,2.027-6.16,5.941-6.16,10.425
		c0,6.571,5.334,11.908,11.908,11.908c6.571,0,11.907-5.337,11.907-11.91c0-4.484-2.49-8.398-6.15-10.425V36.978
		C238.184,33.805,235.598,31.229,232.427,31.229z"/>
	<polygon fill="#010101" points="176.889,165.722 162.825,123.449 160.389,116.128 157.954,123.449 143.889,165.722 99.338,166.037 
		91.622,166.089 97.833,170.669 133.692,197.109 120.222,239.574 117.89,246.929 124.163,242.439 160.389,216.503 196.616,242.439 
		202.89,246.929 200.555,239.574 187.088,197.109 222.945,170.669 229.158,166.089 221.44,166.037 	"/>
</g>
</svg>
