<?xml version="1.0" encoding="utf-8"?>
<!-- Generator: Adobe Illustrator 15.1.0, SVG Export Plug-In . SVG Version: 6.00 Build 0)  -->
<!DOCTYPE svg PUBLIC "-//W3C//DTD SVG 1.1//EN" "http://www.w3.org/Graphics/SVG/1.1/DTD/svg11.dtd">
<svg version="1.1" id="Layer_1" xmlns="http://www.w3.org/2000/svg" xmlns:xlink="http://www.w3.org/1999/xlink" x="0px" y="0px"
	 width="283.46px" height="283.46px" viewBox="0 0 283.46 283.46" enable-background="new 0 0 283.46 283.46" xml:space="preserve">
<g>
	<path fill="none" d="M249.882,79.298c-37.428,0-178.871,0-216.303,0c-5.039,0-9.129,4.089-9.129,9.133c0,31.894,0,138.139,0,170.03
		c0,5.048,4.09,9.132,9.134,9.132c37.427,0,178.87,0,216.298,0c5.05,0,9.134-4.084,9.134-9.132c0-31.891,0-138.136,0-170.03
		C259.016,83.386,254.932,79.298,249.882,79.298z M212.394,160.844l-40.633,29.96l15.262,48.121l2.645,8.335l-7.109-5.089
		l-41.051-29.388l-41.05,29.388l-7.108,5.089l2.643-8.335l15.264-48.121l-40.635-29.96l-7.038-5.189l8.744-0.061l50.483-0.354
		l15.938-47.903l2.76-8.296l2.76,8.296l15.938,47.903l50.484,0.354l8.744,0.061L212.394,160.844z"/>
	<path fill="#010101" d="M250.868,24.614h-16.593c0,5.226,0,9.776-0.01,9.77c4.256,3.315,6.979,8.481,6.979,14.284
		c0,9.993-8.114,18.109-18.108,18.109s-18.109-8.117-18.109-18.109c0-5.803,2.738-10.969,6.98-14.284v-9.77h-59.363
		c0,5.226,0,9.776-0.012,9.77c4.252,3.315,6.979,8.481,6.979,14.284c0,9.993-8.112,18.109-18.108,18.109
		c-9.993,0-18.109-8.117-18.109-18.109c0-5.803,2.736-10.969,6.987-14.284l-0.007-9.77H71.46c0,5.226,0,9.776-0.005,9.77
		c4.249,3.315,6.981,8.481,6.981,14.284c0,9.993-8.116,18.109-18.11,18.109c-9.993,0-18.108-8.117-18.108-18.109
		c0-5.803,2.73-10.969,6.981-14.284v-9.77H32.601c-11.701,0-21.19,9.49-21.19,21.191c0,47.907,0,164.162,0,212.823
		c0,5.835,2.318,11.437,6.444,15.562c4.125,4.117,9.717,6.438,15.552,6.438c49.165,0,167.479,0,216.655,0
		c5.834,0,11.426-2.321,15.551-6.438c4.125-4.125,6.441-9.727,6.441-15.562c0-48.661,0-164.916,0-212.823
		C272.055,34.102,262.57,24.614,250.868,24.614z M259.016,258.461c0,5.048-4.084,9.132-9.134,9.132c-37.428,0-178.871,0-216.298,0
		c-5.044,0-9.134-4.084-9.134-9.132c0-31.891,0-138.136,0-170.03c0-5.044,4.09-9.133,9.129-9.133c37.432,0,178.875,0,216.303,0
		c5.05,0,9.134,4.088,9.134,9.133C259.016,120.325,259.016,226.57,259.016,258.461z"/>
	<path fill="#010101" d="M141.504,62.164c7.449,0,13.495-6.048,13.495-13.496c0-5.081-2.812-9.517-6.97-11.813V9.348
		c0-3.595-2.93-6.514-6.525-6.514c-3.598,0-6.512,2.918-6.512,6.514v27.509c-4.16,2.297-6.977,6.732-6.977,11.813
		C128.016,56.116,134.063,62.164,141.504,62.164z"/>
	<path fill="#010101" d="M60.327,62.164c7.448,0,13.496-6.048,13.496-13.496c0-5.081-2.817-9.517-6.976-11.813V9.348
		c0-3.595-2.922-6.514-6.52-6.514c-3.595,0-6.517,2.918-6.517,6.514v27.509c-4.159,2.297-6.976,6.732-6.976,11.813
		C46.834,56.116,52.882,62.164,60.327,62.164z"/>
	<path fill="#010101" d="M223.139,62.164c7.447,0,13.493-6.048,13.493-13.496c0-5.081-2.823-9.517-6.97-11.813V9.348
		c0-3.595-2.93-6.514-6.523-6.514c-3.596,0-6.514,2.918-6.514,6.514v27.509c-4.159,2.297-6.98,6.732-6.98,11.813
		C209.645,56.116,215.689,62.164,223.139,62.164z"/>
	<polygon fill="#010101" points="160.204,155.239 144.267,107.336 141.507,99.04 138.747,107.336 122.81,155.239 72.326,155.594 
		63.582,155.654 70.62,160.844 111.255,190.804 95.991,238.925 93.349,247.26 100.457,242.171 141.507,212.783 182.558,242.171 
		189.667,247.26 187.022,238.925 171.761,190.804 212.394,160.844 219.433,155.654 210.688,155.594 	"/>
</g>
</svg>
