<?xml version="1.0" encoding="utf-8"?>
<!-- Generator: Adobe Illustrator 15.1.0, SVG Export Plug-In . SVG Version: 6.00 Build 0)  -->
<!DOCTYPE svg PUBLIC "-//W3C//DTD SVG 1.1//EN" "http://www.w3.org/Graphics/SVG/1.1/DTD/svg11.dtd">
<svg version="1.1" id="Layer_2" xmlns="http://www.w3.org/2000/svg" xmlns:xlink="http://www.w3.org/1999/xlink" x="0px" y="0px"
	 width="283.46px" height="283.46px" viewBox="0 0 283.46 283.46" enable-background="new 0 0 283.46 283.46" xml:space="preserve">
<g>
	<path d="M229.062,134.127c-10.389,3.382-21.566-2.309-24.947-12.697c-3.381-10.388,2.311-21.567,12.697-24.949l-7.34-22.552
		L47.059,126.783l7.235,22.232c10.39-3.379,21.567,2.309,24.949,12.697c3.38,10.387-2.309,21.566-12.697,24.949l7.442,22.869
		l162.414-52.854L229.062,134.127z M149.179,172.667l-20.325-14.752l-20.309,14.771l7.75-23.887l-20.322-14.751l25.11-0.011
		l7.75-23.887l7.771,23.878l25.112-0.011l-20.309,14.771L149.179,172.667z M163.554,91.353c-0.225-0.691,0.154-1.437,0.846-1.662
		s1.438,0.153,1.662,0.846c0.225,0.691-0.154,1.435-0.846,1.662C164.525,92.424,163.779,92.044,163.554,91.353z M164.843,95.313
		c-0.225-0.691,0.154-1.435,0.846-1.662c0.691-0.225,1.438,0.155,1.662,0.846c0.225,0.691-0.156,1.437-0.846,1.661
		C165.814,96.383,165.068,96.006,164.843,95.313z M166.25,99.632c-0.227-0.693,0.152-1.437,0.844-1.662
		c0.693-0.227,1.438,0.153,1.662,0.846c0.227,0.691-0.152,1.435-0.844,1.662C167.218,100.703,166.474,100.324,166.25,99.632z
		 M167.539,103.592c-0.225-0.691,0.152-1.437,0.846-1.661c0.691-0.225,1.434,0.155,1.662,0.846c0.225,0.691-0.156,1.437-0.848,1.662
		C168.505,104.663,167.763,104.283,167.539,103.592z M168.777,107.399c-0.225-0.691,0.154-1.437,0.846-1.661
		s1.438,0.155,1.662,0.846c0.225,0.691-0.156,1.437-0.846,1.662C169.748,108.47,169.001,108.092,168.777,107.399z M170.066,111.361
		c-0.225-0.693,0.154-1.437,0.846-1.661c0.691-0.227,1.436,0.152,1.66,0.844c0.225,0.693-0.154,1.437-0.846,1.662
		C171.035,112.432,170.291,112.052,170.066,111.361z M171.472,115.678c-0.227-0.691,0.152-1.437,0.844-1.662
		c0.693-0.225,1.436,0.153,1.66,0.846c0.229,0.691-0.152,1.437-0.844,1.662C172.439,116.749,171.697,116.37,171.472,115.678z
		 M172.759,119.638c-0.227-0.691,0.154-1.435,0.848-1.662c0.691-0.225,1.434,0.155,1.66,0.846c0.225,0.693-0.154,1.437-0.846,1.661
		C173.728,120.708,172.984,120.332,172.759,119.638z M174.107,123.781c-0.225-0.693,0.154-1.437,0.848-1.662
		c0.689-0.227,1.434,0.153,1.66,0.844c0.225,0.693-0.154,1.437-0.846,1.664C175.078,124.852,174.332,124.472,174.107,123.781z
		 M175.396,127.741c-0.225-0.691,0.152-1.437,0.846-1.662c0.691-0.225,1.438,0.155,1.662,0.846c0.225,0.691-0.154,1.437-0.846,1.662
		C176.367,128.811,175.621,128.432,175.396,127.741z M176.8,132.058c-0.225-0.691,0.154-1.435,0.846-1.662
		c0.693-0.225,1.438,0.155,1.662,0.846c0.227,0.693-0.152,1.437-0.846,1.661C177.771,133.131,177.027,132.751,176.8,132.058z
		 M178.091,136.02c-0.227-0.691,0.152-1.437,0.844-1.662c0.693-0.225,1.438,0.152,1.662,0.846c0.227,0.691-0.152,1.435-0.844,1.662
		C179.06,137.09,178.316,136.711,178.091,136.02z M179.533,140.451c-0.225-0.691,0.154-1.435,0.846-1.662
		c0.691-0.225,1.438,0.155,1.662,0.846c0.225,0.693-0.154,1.437-0.846,1.661C180.503,141.523,179.757,141.144,179.533,140.451z
		 M180.822,144.412c-0.225-0.691,0.154-1.436,0.846-1.66s1.438,0.152,1.662,0.846c0.225,0.691-0.152,1.434-0.846,1.66
		C181.792,145.482,181.046,145.103,180.822,144.412z M182.228,148.73c-0.227-0.691,0.152-1.436,0.846-1.662
		c0.691-0.225,1.436,0.154,1.662,0.846c0.225,0.691-0.156,1.438-0.846,1.662C183.197,149.8,182.453,149.423,182.228,148.73z
		 M183.517,152.691c-0.225-0.693,0.152-1.436,0.846-1.66c0.691-0.229,1.434,0.152,1.662,0.844c0.225,0.693-0.156,1.436-0.848,1.662
		C184.486,153.761,183.742,153.382,183.517,152.691z M184.865,156.832c-0.225-0.691,0.152-1.436,0.846-1.66
		c0.691-0.225,1.434,0.152,1.66,0.846c0.225,0.691-0.154,1.436-0.846,1.66S185.089,157.523,184.865,156.832z M186.152,160.792
		c-0.225-0.691,0.156-1.436,0.848-1.662c0.689-0.225,1.436,0.154,1.66,0.846c0.225,0.693-0.154,1.438-0.846,1.662
		S186.376,161.486,186.152,160.792z M187.558,165.111c-0.227-0.693,0.154-1.436,0.846-1.66c0.693-0.229,1.436,0.152,1.66,0.846
		c0.227,0.691-0.152,1.434-0.844,1.66C188.527,166.181,187.783,165.802,187.558,165.111z M190.509,169.917
		c-0.693,0.225-1.438-0.154-1.662-0.846c-0.227-0.691,0.152-1.438,0.844-1.662c0.693-0.225,1.438,0.154,1.664,0.846
		C191.58,168.947,191.201,169.693,190.509,169.917z"/>
	<polygon fill="#FFFFFF" points="136.604,134.029 128.833,110.151 121.083,134.038 95.973,134.049 116.295,148.8 108.546,172.687 
		128.854,157.916 149.179,172.667 141.408,148.789 161.716,134.018 	"/>
	<circle fill="#FFFFFF" cx="190.1" cy="168.664" r="1.319"/>
	<circle fill="#FFFFFF" cx="188.811" cy="164.704" r="1.317"/>
	<circle fill="#FFFFFF" cx="187.406" cy="160.384" r="1.319"/>
	<circle fill="#FFFFFF" cx="186.118" cy="156.424" r="1.317"/>
	<path fill="#FFFFFF" d="M186.025,151.875c-0.229-0.691-0.971-1.072-1.662-0.844c-0.693,0.225-1.07,0.967-0.846,1.66
		c0.225,0.691,0.969,1.07,1.66,0.846C185.869,153.31,186.25,152.568,186.025,151.875z"/>
	<path fill="#FFFFFF" d="M184.736,147.914c-0.227-0.691-0.971-1.07-1.662-0.846c-0.693,0.227-1.072,0.971-0.846,1.662
		c0.225,0.693,0.969,1.07,1.662,0.846C184.58,149.351,184.96,148.605,184.736,147.914z"/>
	<circle fill="#FFFFFF" cx="182.076" cy="144.004" r="1.318"/>
	<circle fill="#FFFFFF" cx="180.787" cy="140.043" r="1.319"/>
	<circle fill="#FFFFFF" cx="179.344" cy="135.612" r="1.318"/>
	<circle fill="#FFFFFF" cx="178.054" cy="131.65" r="1.319"/>
	<circle fill="#FFFFFF" cx="176.65" cy="127.333" r="1.319"/>
	<circle fill="#FFFFFF" cx="175.361" cy="123.372" r="1.319"/>
	<circle fill="#FFFFFF" cx="174.013" cy="119.23" r="1.319"/>
	<circle fill="#FFFFFF" cx="172.724" cy="115.271" r="1.317"/>
	<circle fill="#FFFFFF" cx="171.319" cy="110.952" r="1.318"/>
	<path fill="#FFFFFF" d="M171.285,106.583c-0.225-0.691-0.971-1.07-1.662-0.846s-1.07,0.97-0.846,1.661
		c0.225,0.693,0.971,1.071,1.662,0.846C171.128,108.021,171.509,107.275,171.285,106.583z"/>
	<path fill="#FFFFFF" d="M170.046,102.776c-0.229-0.691-0.971-1.07-1.662-0.846c-0.693,0.225-1.07,0.97-0.846,1.661
		c0.225,0.691,0.967,1.071,1.66,0.846C169.89,104.213,170.271,103.468,170.046,102.776z"/>
	<circle fill="#FFFFFF" cx="167.502" cy="99.225" r="1.318"/>
	<path fill="#FFFFFF" d="M167.351,94.498c-0.225-0.691-0.971-1.071-1.662-0.846c-0.691,0.227-1.07,0.97-0.846,1.662
		c0.225,0.693,0.971,1.07,1.662,0.846C167.195,95.934,167.576,95.188,167.351,94.498z"/>
	<circle fill="#FFFFFF" cx="164.808" cy="90.945" r="1.319"/>
</g>
</svg>
