<?xml version="1.0" encoding="utf-8"?>
<!-- Generator: Adobe Illustrator 15.1.0, SVG Export Plug-In . SVG Version: 6.00 Build 0)  -->
<!DOCTYPE svg PUBLIC "-//W3C//DTD SVG 1.1//EN" "http://www.w3.org/Graphics/SVG/1.1/DTD/svg11.dtd">
<svg version="1.1" id="Layer_1" xmlns="http://www.w3.org/2000/svg" xmlns:xlink="http://www.w3.org/1999/xlink" x="0px" y="0px"
	 width="283.465px" height="283.465px" viewBox="0 0 283.465 283.465" enable-background="new 0 0 283.465 283.465"
	 xml:space="preserve">
<title>1112</title>
<g>
	<g transform="translate(1.000000, 0.000000)">
		<path fill="#434343" d="M263.604,7.087h-65.848c-6.471,0-11.727,5.281-11.727,11.75l27.044,27.152l-32.632,32.649
			c-3.276,3.27-4.923,7.543-4.923,11.834s1.646,8.565,4.923,11.833c6.52,6.545,17.131,6.545,23.685,0l32.6-32.615l26.878,27.002
			c6.485,0,11.708-5.28,11.708-11.759V18.838C275.312,12.368,270.089,7.087,263.604,7.087L263.604,7.087z"/>
		<path fill="#434343" d="M263.535,186.964l-27.576,27.46l-33.229-33.248c-6.554-6.553-17.164-6.553-23.719,0
			c-6.52,6.554-6.52,17.132,0,23.686l33.231,33.196l-26.561,26.479c0,6.471,5.271,11.709,11.759,11.709h66.096
			c6.487,0,11.742-5.238,11.742-11.709v-65.848C275.312,192.186,270.022,186.964,263.535,186.964L263.535,186.964z"/>
		<path fill="#434343" d="M68.807,45.848l26.978-26.895c0-6.471-5.297-11.692-11.768-11.692h-66.08
			c-6.486,0-11.75,5.223-11.75,11.692V84.8c0,6.487,5.28,11.718,11.75,11.718l27.169-27.026l33.529,33.514
			c3.269,3.293,7.544,4.923,11.817,4.923c4.316,0,8.574-1.63,11.858-4.923c6.52-6.52,6.52-17.131,0-23.651L68.807,45.848
			L68.807,45.848z"/>
		<path fill="#434343" d="M89.131,169.932L45.015,214.04L17.87,186.78c-6.453,0-11.717,5.271-11.717,11.759v66.097
			c0,6.486,5.264,11.742,11.717,11.742h65.855c6.462,0,11.7-5.272,11.7-11.742l-26.752-26.878l44.143-44.142
			c6.562-6.555,6.562-17.133,0-23.686C106.295,163.413,95.685,163.413,89.131,169.932L89.131,169.932z"/>
	</g>
</g>
</svg>
