<?xml version="1.0" encoding="utf-8"?>
<!-- Generator: Adobe Illustrator 15.1.0, SVG Export Plug-In . SVG Version: 6.00 Build 0)  -->
<!DOCTYPE svg PUBLIC "-//W3C//DTD SVG 1.0//EN" "http://www.w3.org/TR/2001/REC-SVG-20010904/DTD/svg10.dtd">
<svg version="1.0" id="Layer_2" xmlns="http://www.w3.org/2000/svg" xmlns:xlink="http://www.w3.org/1999/xlink" x="0px" y="0px"
	 width="283.46px" height="283.46px" viewBox="0 0 283.46 283.46" enable-background="new 0 0 283.46 283.46" xml:space="preserve">
<g>
	<path fill="none" d="M85.23,76.957c-9.863,0-17.872,8.008-17.872,17.875c0,9.863,8.008,17.872,17.872,17.872
		s17.872-8.008,17.872-17.872C103.102,84.965,95.094,76.957,85.23,76.957z M85.23,107.654c-7.078,0-12.822-5.747-12.822-12.822
		c0-7.078,5.745-12.825,12.822-12.825c7.078,0,12.825,5.747,12.825,12.825C98.055,101.907,92.308,107.654,85.23,107.654z"/>
	<path fill="none" d="M85.23,123.47c-9.863,0-17.872,8.008-17.872,17.873c0,9.864,8.008,17.872,17.872,17.872
		s17.872-8.008,17.872-17.872C103.102,131.479,95.094,123.47,85.23,123.47z M85.23,154.167c-7.078,0-12.822-5.749-12.822-12.825
		c0-7.075,5.745-12.823,12.822-12.823c7.078,0,12.825,5.748,12.825,12.823C98.055,148.419,92.308,154.167,85.23,154.167z"/>
	<path fill="none" d="M85.23,170.745c-9.863,0-17.872,8.009-17.872,17.871c0,9.863,8.008,17.872,17.872,17.872
		s17.872-8.009,17.872-17.872C103.102,178.753,95.094,170.745,85.23,170.745z M85.23,201.441c-7.078,0-12.822-5.747-12.822-12.825
		c0-7.077,5.745-12.822,12.822-12.822c7.078,0,12.825,5.745,12.825,12.822C98.055,195.694,92.308,201.441,85.23,201.441z"/>
	<path fill="none" d="M85.23,217.69c-9.863,0-17.872,8.007-17.872,17.873c0,9.862,8.008,17.869,17.872,17.869
		s17.872-8.007,17.872-17.869C103.102,225.697,95.094,217.69,85.23,217.69z M85.23,248.384c-7.078,0-12.822-5.746-12.822-12.821
		c0-7.078,5.745-12.827,12.822-12.827c7.078,0,12.825,5.749,12.825,12.827C98.055,242.638,92.308,248.384,85.23,248.384z"/>
	<polygon fill="none" points="127.658,145.642 121.867,145.642 121.867,142.767 127.229,142.767 127.229,140.576 121.867,140.576 
		121.867,137.838 127.658,137.838 127.658,135.627 119.423,135.627 119.423,147.834 127.658,147.834 	"/>
	<path fill="none" d="M85.23,30.027c-9.863,0-17.872,8.008-17.872,17.872c0,9.863,8.008,17.873,17.872,17.873
		s17.872-8.008,17.872-17.873C103.102,38.035,95.094,30.027,85.23,30.027z M85.23,60.721c-7.078,0-12.822-5.744-12.822-12.822
		c0-7.078,5.745-12.824,12.822-12.824c7.078,0,12.825,5.748,12.825,12.824C98.055,54.976,92.308,60.721,85.23,60.721z"/>
	<path fill="none" d="M124.509,88.61c-1.63,0-2.868,0.357-3.708,1.073c-0.84,0.718-1.262,1.776-1.262,3.17v3.952
		c0,1.395,0.422,2.452,1.262,3.171c0.84,0.716,2.078,1.073,3.708,1.073c1.604,0,2.812-0.342,3.629-1.026
		c0.814-0.684,1.222-1.738,1.222-3.159v-0.567h-2.446v0.528c0,0.691-0.173,1.19-0.517,1.498c-0.345,0.308-0.968,0.458-1.87,0.458
		c-0.925,0-1.582-0.17-1.967-0.509c-0.384-0.337-0.575-0.822-0.575-1.447v-3.988c0-0.64,0.183-1.127,0.546-1.459
		c0.365-0.333,1.031-0.499,1.996-0.499c0.912,0,1.541,0.148,1.879,0.449c0.339,0.303,0.507,0.784,0.507,1.449v0.604h2.446v-0.604
		C129.36,90,127.743,88.61,124.509,88.61z"/>
	<polygon fill="none" points="127.775,51.812 121.985,51.812 121.985,48.935 127.346,48.935 127.346,46.746 121.985,46.746 
		121.985,44.005 127.775,44.005 127.775,41.793 119.54,41.793 119.54,54.003 127.775,54.003 	"/>
	<polygon fill="none" points="138.83,229.458 136.265,233.546 133.725,229.458 131.062,229.458 134.859,235.542 131.062,241.667 
		133.568,241.667 136.13,237.578 138.672,241.667 141.333,241.667 137.539,235.581 141.333,229.458 	"/>
	<polygon fill="none" points="141.626,187.463 136.265,187.463 136.265,182.514 133.822,182.514 133.822,194.721 136.265,194.721 
		136.265,189.653 141.626,189.653 141.626,194.721 144.074,194.721 144.074,182.514 141.626,182.514 	"/>
	<polygon fill="none" points="119.307,241.667 127.543,241.667 127.543,239.473 121.75,239.473 121.75,236.599 127.11,236.599 
		127.11,234.407 121.75,234.407 121.75,231.668 127.543,231.668 127.543,229.458 119.307,229.458 	"/>
	<path fill="none" d="M124.274,182.396c-1.631,0-2.866,0.36-3.706,1.075c-0.843,0.72-1.262,1.773-1.262,3.171v3.951
		c0,1.394,0.419,2.453,1.262,3.168c0.84,0.719,2.075,1.075,3.706,1.075c1.603,0,2.814-0.342,3.628-1.025
		c0.817-0.685,1.222-1.738,1.222-3.159v-0.569h-2.443v0.529c0,0.691-0.172,1.19-0.521,1.496c-0.344,0.307-0.967,0.461-1.866,0.461
		c-0.928,0-1.583-0.172-1.967-0.511c-0.384-0.338-0.578-0.821-0.578-1.446v-3.988c0-0.642,0.183-1.128,0.549-1.458
		c0.363-0.334,1.028-0.499,1.996-0.499c0.912,0,1.538,0.147,1.876,0.446c0.339,0.302,0.509,0.785,0.509,1.448v0.607h2.443v-0.607
		C129.124,183.785,127.507,182.396,124.274,182.396z"/>
	<polygon fill="none" points="181.478,51.812 175.689,51.812 175.689,48.935 181.049,48.935 181.049,46.746 175.689,46.746 
		175.689,44.005 181.478,44.005 181.478,41.793 173.243,41.793 173.243,54.003 181.478,54.003 	"/>
	<polygon fill="none" points="181.362,145.642 175.569,145.642 175.569,142.767 180.932,142.767 180.932,140.576 175.569,140.576 
		175.569,137.838 181.362,137.838 181.362,135.627 173.125,135.627 173.125,147.834 181.362,147.834 	"/>
	<path fill="none" d="M161.582,49.797h1.78l2.524,4.206h2.817l-2.778-4.48c0.99-0.262,1.7-0.686,2.131-1.271
		c0.432-0.588,0.647-1.396,0.647-2.425c0-1.384-0.423-2.402-1.264-3.054c-0.839-0.652-2.199-0.978-4.078-0.978h-4.225v12.209h2.444
		V49.797L161.582,49.797z M161.582,43.987h1.86c1.054,0,1.782,0.137,2.177,0.411c0.401,0.273,0.602,0.729,0.602,1.37
		c0,0.469-0.08,0.833-0.236,1.094c-0.158,0.259-0.424,0.454-0.803,0.578c-0.376,0.123-0.928,0.186-1.645,0.186h-1.955V43.987z"/>
	<path fill="none" d="M200.349,53.153c0.815,0.644,1.959,0.968,3.433,0.968c1.436,0,2.566-0.33,3.394-0.988
		c0.83-0.658,1.243-1.561,1.243-2.71c0-0.809-0.269-1.484-0.805-2.025c-0.532-0.541-1.362-0.981-2.484-1.319l-2.57-0.833
		c-0.333-0.135-0.568-0.288-0.705-0.458c-0.138-0.17-0.206-0.393-0.206-0.665c0-0.405,0.177-0.721,0.53-0.95
		s0.859-0.341,1.524-0.341c0.604,0,1.071,0.141,1.41,0.421c0.339,0.278,0.511,0.687,0.511,1.222v0.313h2.464V45.61
		c0-1.264-0.382-2.234-1.144-2.913c-0.765-0.679-1.851-1.018-3.26-1.018c-0.926,0-1.731,0.152-2.418,0.451
		c-0.684,0.3-1.211,0.721-1.582,1.261c-0.374,0.542-0.56,1.164-0.56,1.869c0,0.653,0.119,1.195,0.353,1.633
		c0.234,0.438,0.62,0.809,1.155,1.116c0.532,0.305,1.283,0.597,2.248,0.869l0.804,0.236c0.599,0.17,1.053,0.326,1.359,0.469
		c0.309,0.144,0.521,0.303,0.645,0.478c0.124,0.178,0.188,0.408,0.188,0.694c0,0.811-0.68,1.215-2.036,1.215
		c-1.5,0-2.25-0.555-2.25-1.662v-0.313h-2.466v0.448C199.125,51.603,199.532,52.505,200.349,53.153z"/>
	<path fill="none" d="M161.464,143.627h1.781l2.523,4.207h2.817l-2.777-4.48c0.99-0.259,1.7-0.684,2.13-1.271
		c0.431-0.586,0.647-1.395,0.647-2.425c0-1.381-0.422-2.398-1.263-3.051c-0.843-0.652-2.203-0.979-4.078-0.979h-4.225v12.208h2.443
		V143.627L161.464,143.627z M161.464,137.817h1.856c1.059,0,1.785,0.137,2.182,0.411c0.398,0.276,0.597,0.732,0.597,1.37
		c0,0.469-0.076,0.835-0.233,1.094c-0.156,0.262-0.424,0.453-0.802,0.579c-0.381,0.125-0.927,0.185-1.644,0.185h-1.956V137.817z"/>
	<polygon fill="none" points="133.684,147.834 136.248,143.747 138.789,147.834 141.45,147.834 137.655,141.75 141.45,135.627 
		138.946,135.627 136.385,139.714 133.84,135.627 131.179,135.627 134.974,141.71 131.179,147.834 	"/>
	<path fill="none" d="M148.004,143.608h2.173c1.225,0,2.197-0.133,2.912-0.398c0.72-0.269,1.232-0.688,1.546-1.263
		c0.315-0.575,0.471-1.344,0.471-2.31c0-1.396-0.395-2.414-1.186-3.053c-0.788-0.639-2.102-0.958-3.94-0.958h-4.423v12.208h2.446
		L148.004,143.608L148.004,143.608z M148.004,137.817h1.938c0.705,0,1.251,0.058,1.645,0.177c0.392,0.117,0.665,0.303,0.821,0.557
		c0.157,0.254,0.235,0.604,0.235,1.047c0,0.456-0.07,0.813-0.207,1.076c-0.138,0.261-0.387,0.454-0.753,0.578
		c-0.365,0.123-0.893,0.186-1.584,0.186h-2.095V137.817L148.004,137.817z"/>
	<polygon fill="none" points="133.801,54.003 136.364,49.914 138.909,54.003 141.567,54.003 137.774,47.917 141.567,41.793 
		139.065,41.793 136.502,45.885 133.957,41.793 131.298,41.793 135.092,47.881 131.298,54.003 	"/>
	<path fill="none" d="M148.124,49.775h2.17c1.227,0,2.2-0.132,2.914-0.4c0.718-0.268,1.235-0.686,1.546-1.262
		c0.313-0.573,0.471-1.343,0.471-2.309c0-1.395-0.395-2.413-1.186-3.052c-0.788-0.638-2.101-0.959-3.941-0.959h-4.422v12.209h2.446
		v-4.228H148.124z M148.124,43.987h1.936c0.706,0,1.253,0.059,1.644,0.175c0.392,0.119,0.665,0.305,0.821,0.559
		c0.157,0.254,0.236,0.602,0.236,1.047c0,0.456-0.07,0.813-0.208,1.074c-0.134,0.262-0.386,0.453-0.752,0.578
		c-0.363,0.124-0.894,0.185-1.584,0.185h-2.093V43.987L148.124,43.987z"/>
	<polygon fill="none" points="183.553,88.726 178.7,93.988 178.7,88.726 176.254,88.726 176.254,100.933 178.7,100.933 
		178.7,96.962 179.7,95.887 183.648,100.933 186.546,100.933 181.282,94.185 186.332,88.726 	"/>
	<rect x="190.028" y="182.514" fill="none" width="2.446" height="12.207"/>
	<path fill="none" d="M191.378,234.741l-2.573-0.832c-0.33-0.135-0.568-0.29-0.702-0.458c-0.138-0.172-0.207-0.394-0.207-0.666
		c0-0.406,0.176-0.722,0.528-0.948c0.353-0.228,0.86-0.343,1.526-0.343c0.6,0,1.069,0.141,1.407,0.42
		c0.34,0.279,0.511,0.688,0.511,1.225v0.313h2.465v-0.178c0-1.264-0.383-2.234-1.145-2.912c-0.763-0.679-1.85-1.021-3.256-1.021
		c-0.928,0-1.735,0.149-2.418,0.451c-0.686,0.3-1.212,0.72-1.585,1.264c-0.37,0.539-0.559,1.163-0.559,1.866
		c0,0.65,0.119,1.196,0.354,1.634c0.231,0.438,0.619,0.81,1.153,1.113c0.533,0.309,1.285,0.601,2.25,0.874l0.804,0.232
		c0.599,0.17,1.052,0.326,1.358,0.473c0.307,0.143,0.52,0.302,0.645,0.476c0.125,0.178,0.186,0.409,0.186,0.696
		c0,0.808-0.681,1.213-2.034,1.213c-1.499,0-2.251-0.553-2.251-1.662v-0.312h-2.465v0.446c0,1.161,0.409,2.065,1.221,2.71
		c0.818,0.647,1.962,0.973,3.434,0.973c1.438,0,2.569-0.33,3.396-0.99c0.827-0.656,1.243-1.561,1.243-2.709
		c0-0.808-0.268-1.485-0.804-2.025C193.327,235.52,192.5,235.08,191.378,234.741z"/>
	<path fill="none" d="M191.496,140.908l-2.574-0.831c-0.33-0.138-0.567-0.292-0.701-0.46c-0.138-0.17-0.208-0.389-0.208-0.666
		c0-0.403,0.179-0.718,0.532-0.948c0.349-0.229,0.858-0.343,1.524-0.343c0.601,0,1.07,0.141,1.409,0.422
		c0.34,0.281,0.509,0.689,0.509,1.222v0.313h2.463v-0.175c0-1.264-0.38-2.237-1.143-2.915c-0.765-0.678-1.85-1.018-3.258-1.018
		c-0.926,0-1.73,0.152-2.417,0.451c-0.684,0.299-1.211,0.721-1.584,1.262c-0.372,0.541-0.558,1.165-0.558,1.87
		c0,0.652,0.119,1.195,0.352,1.632c0.235,0.438,0.619,0.809,1.156,1.116c0.532,0.308,1.282,0.597,2.247,0.87l0.804,0.235
		c0.599,0.171,1.052,0.327,1.359,0.47c0.306,0.143,0.522,0.304,0.645,0.481c0.124,0.174,0.185,0.408,0.185,0.691
		c0,0.81-0.678,1.216-2.032,1.216c-1.5,0-2.253-0.558-2.253-1.664v-0.313h-2.463v0.451c0,1.16,0.407,2.061,1.224,2.709
		c0.813,0.646,1.959,0.968,3.433,0.968c1.434,0,2.565-0.329,3.393-0.986c0.83-0.66,1.243-1.565,1.243-2.712
		c0-0.809-0.269-1.481-0.803-2.023C193.446,141.687,192.617,141.247,191.496,140.908z"/>
	<polygon fill="none" points="181.049,187.973 186.095,182.514 183.317,182.514 178.466,187.776 178.466,182.514 176.02,182.514 
		176.02,194.721 178.466,194.721 178.466,190.751 179.463,189.674 183.416,194.721 186.311,194.721 	"/>
	<polygon fill="none" points="173.008,241.667 181.244,241.667 181.244,239.473 175.453,239.473 175.453,236.599 180.811,236.599 
		180.811,234.407 175.453,234.407 175.453,231.668 181.244,231.668 181.244,229.458 173.008,229.458 	"/>
	<polygon fill="none" points="141.861,93.676 136.502,93.676 136.502,88.726 134.055,88.726 134.055,100.933 136.502,100.933 
		136.502,95.867 141.861,95.867 141.861,100.933 144.309,100.933 144.309,88.726 141.861,88.726 	"/>
	<path fill="none" d="M205.016,140.908l-2.574-0.831c-0.331-0.138-0.567-0.292-0.703-0.46c-0.138-0.17-0.206-0.389-0.206-0.666
		c0-0.403,0.177-0.718,0.526-0.948c0.354-0.229,0.862-0.343,1.527-0.343c0.6,0,1.07,0.141,1.408,0.422
		c0.339,0.281,0.509,0.689,0.509,1.222v0.313h2.466v-0.175c0-1.264-0.382-2.237-1.144-2.915c-0.763-0.678-1.851-1.018-3.257-1.018
		c-0.928,0-1.732,0.152-2.419,0.451c-0.684,0.299-1.211,0.721-1.584,1.262c-0.372,0.541-0.558,1.165-0.558,1.87
		c0,0.652,0.117,1.195,0.354,1.632c0.233,0.438,0.62,0.809,1.152,1.116c0.535,0.308,1.286,0.597,2.251,0.87l0.804,0.235
		c0.6,0.171,1.053,0.327,1.359,0.47c0.304,0.143,0.52,0.304,0.644,0.481c0.125,0.174,0.185,0.408,0.185,0.691
		c0,0.81-0.679,1.216-2.033,1.216c-1.5,0-2.25-0.558-2.25-1.664v-0.313h-2.466v0.451c0,1.16,0.408,2.061,1.223,2.709
		c0.816,0.646,1.96,0.968,3.435,0.968c1.436,0,2.566-0.329,3.394-0.986c0.829-0.66,1.241-1.565,1.241-2.712
		c0-0.809-0.267-1.481-0.803-2.023C206.962,141.687,206.136,141.247,205.016,140.908z"/>
	<path fill="none" d="M191.612,47.077l-2.571-0.833c-0.332-0.135-0.566-0.288-0.704-0.458c-0.139-0.17-0.204-0.393-0.204-0.665
		c0-0.405,0.175-0.721,0.528-0.95c0.352-0.229,0.862-0.341,1.526-0.341c0.599,0,1.068,0.141,1.408,0.421
		c0.337,0.278,0.509,0.687,0.509,1.222v0.312h2.463v-0.177c0-1.265-0.381-2.234-1.144-2.913c-0.765-0.678-1.848-1.017-3.259-1.017
		c-0.926,0-1.73,0.152-2.413,0.451c-0.687,0.299-1.216,0.72-1.588,1.261c-0.37,0.542-0.554,1.164-0.554,1.869
		c0,0.653,0.116,1.195,0.348,1.633c0.236,0.438,0.621,0.809,1.156,1.116c0.535,0.305,1.283,0.597,2.252,0.869l0.799,0.235
		c0.599,0.17,1.052,0.326,1.36,0.47c0.307,0.143,0.521,0.303,0.646,0.478c0.122,0.177,0.184,0.408,0.184,0.694
		c0,0.811-0.678,1.214-2.034,1.214c-1.501,0-2.251-0.554-2.251-1.662v-0.312h-2.463v0.447c0,1.161,0.406,2.065,1.223,2.712
		c0.813,0.644,1.958,0.967,3.432,0.967c1.434,0,2.566-0.329,3.396-0.988c0.828-0.658,1.241-1.561,1.241-2.709
		c0-0.809-0.268-1.485-0.8-2.025C193.564,47.857,192.734,47.417,191.612,47.077z"/>
	<polygon fill="none" points="206.227,96.962 199.986,88.726 197.793,88.726 197.793,100.933 200.103,100.933 200.103,92.835 
		206.345,100.933 208.535,100.933 208.535,88.726 206.227,88.726 	"/>
	<path fill="none" d="M166.708,88.61c-1.63,0-2.864,0.357-3.706,1.073c-0.842,0.718-1.264,1.776-1.264,3.17v3.952
		c0,1.395,0.422,2.452,1.264,3.171c0.839,0.716,2.076,1.073,3.706,1.073c1.604,0,2.815-0.342,3.627-1.026
		c0.818-0.684,1.225-1.738,1.225-3.159v-0.567h-2.444v0.528c0,0.691-0.174,1.19-0.521,1.498c-0.345,0.308-0.969,0.458-1.868,0.458
		c-0.927,0-1.579-0.17-1.964-0.509c-0.384-0.337-0.58-0.822-0.58-1.447v-3.988c0-0.64,0.184-1.127,0.549-1.459
		c0.363-0.333,1.03-0.499,1.995-0.499c0.914,0,1.541,0.148,1.878,0.449c0.339,0.303,0.511,0.784,0.511,1.449v0.604h2.444v-0.604
		C171.559,90,169.942,88.61,166.708,88.61z"/>
	<polygon fill="none" points="205.992,190.751 199.754,182.514 197.561,182.514 197.561,194.721 199.869,194.721 199.869,186.624 
		206.109,194.721 208.3,194.721 208.3,182.514 205.992,182.514 	"/>
	<path fill="none" d="M204.898,234.741l-2.573-0.832c-0.332-0.135-0.568-0.29-0.704-0.458c-0.136-0.172-0.204-0.394-0.204-0.666
		c0-0.406,0.174-0.722,0.526-0.948c0.352-0.228,0.862-0.343,1.527-0.343c0.598,0,1.068,0.141,1.408,0.42
		c0.339,0.279,0.508,0.688,0.508,1.225v0.313h2.465v-0.178c0-1.264-0.38-2.234-1.145-2.912c-0.763-0.681-1.848-1.021-3.258-1.021
		c-0.926,0-1.731,0.149-2.415,0.451c-0.684,0.3-1.213,0.72-1.586,1.264c-0.372,0.539-0.556,1.163-0.556,1.866
		c0,0.65,0.116,1.196,0.352,1.634c0.233,0.438,0.619,0.81,1.152,1.113c0.537,0.309,1.288,0.601,2.252,0.874l0.801,0.232
		c0.603,0.17,1.054,0.326,1.36,0.473c0.307,0.143,0.522,0.302,0.645,0.476c0.127,0.178,0.187,0.409,0.187,0.696
		c0,0.808-0.679,1.213-2.037,1.213c-1.497,0-2.247-0.553-2.247-1.662v-0.312h-2.466v0.446c0,1.161,0.408,2.065,1.223,2.71
		c0.817,0.647,1.959,0.973,3.434,0.973c1.437,0,2.563-0.33,3.395-0.99c0.828-0.656,1.241-1.561,1.241-2.709
		c0-0.808-0.265-1.485-0.801-2.025C206.846,235.52,206.019,235.08,204.898,234.741z"/>
	<rect x="190.262" y="88.726" fill="none" width="2.449" height="12.207"/>
	<polygon fill="none" points="149.395,100.933 157.631,100.933 157.631,98.744 151.838,98.744 151.838,95.867 157.2,95.867 
		157.2,93.676 151.838,93.676 151.838,90.938 157.631,90.938 157.631,88.726 149.395,88.726 	"/>
	<path fill="none" d="M149.865,229.458h-4.421v12.21h2.443v-4.229h2.17c1.228,0,2.197-0.132,2.916-0.4
		c0.718-0.268,1.232-0.686,1.546-1.262c0.311-0.572,0.468-1.343,0.468-2.308c0-1.394-0.395-2.412-1.183-3.051
		C153.017,229.779,151.702,229.458,149.865,229.458z M152.319,234.503c-0.137,0.264-0.389,0.454-0.753,0.579
		c-0.365,0.126-0.892,0.186-1.585,0.186h-2.094v-3.618h1.938c0.704,0,1.25,0.057,1.645,0.173c0.388,0.119,0.664,0.307,0.821,0.561
		c0.156,0.252,0.231,0.601,0.231,1.045C152.523,233.888,152.457,234.245,152.319,234.503z"/>
	<polygon fill="none" points="149.16,194.721 157.396,194.721 157.396,192.53 151.604,192.53 151.604,189.653 156.965,189.653 
		156.965,187.463 151.604,187.463 151.604,184.725 157.396,184.725 157.396,182.514 149.16,182.514 	"/>
	<path fill="none" d="M166.474,182.396c-1.632,0-2.867,0.36-3.709,1.075c-0.841,0.72-1.261,1.773-1.261,3.171v3.951
		c0,1.394,0.42,2.453,1.261,3.168c0.841,0.719,2.077,1.075,3.709,1.075c1.603,0,2.813-0.342,3.628-1.025
		c0.814-0.685,1.223-1.738,1.223-3.159v-0.569h-2.448v0.529c0,0.691-0.171,1.19-0.518,1.496c-0.347,0.307-0.969,0.461-1.867,0.461
		c-0.925,0-1.582-0.172-1.967-0.511c-0.385-0.338-0.577-0.821-0.577-1.446v-3.988c0-0.642,0.182-1.128,0.548-1.458
		c0.366-0.334,1.031-0.499,1.996-0.499c0.912,0,1.54,0.147,1.877,0.446c0.34,0.302,0.508,0.785,0.508,1.448v0.607h2.448v-0.607
		C171.328,183.785,169.71,182.396,166.474,182.396z"/>
	<path fill="none" d="M167.824,235.917c0.431-0.589,0.644-1.397,0.644-2.427c0-1.383-0.419-2.401-1.261-3.054
		c-0.84-0.65-2.202-0.979-4.078-0.979H158.9v12.21h2.447v-4.206h1.781l2.524,4.206h2.813l-2.778-4.483
		C166.68,236.925,167.39,236.501,167.824,235.917z M165.749,234.526c-0.156,0.261-0.423,0.454-0.799,0.576
		c-0.381,0.126-0.928,0.188-1.646,0.188h-1.954h-0.003h0.003v-3.639h1.855c1.059,0,1.784,0.134,2.182,0.412
		c0.398,0.272,0.597,0.729,0.597,1.367C165.984,233.901,165.909,234.264,165.749,234.526z"/>
	<line fill="none" x1="161.35" y1="235.29" x2="161.347" y2="235.29"/>
	<path d="M85.23,222.737c-7.078,0-12.822,5.75-12.822,12.826s5.745,12.821,12.822,12.821c7.078,0,12.825-5.745,12.825-12.821
		S92.308,222.737,85.23,222.737z"/>
	<path d="M85.23,82.007c-7.078,0-12.822,5.747-12.822,12.825c0,7.076,5.745,12.822,12.822,12.822
		c7.078,0,12.825-5.747,12.825-12.822C98.055,87.754,92.308,82.007,85.23,82.007z M95.035,89.395
		c-1.697,1.697-11.414,11.414-13.143,13.143c-0.069,0.069-0.164,0.108-0.263,0.108s-0.193-0.04-0.262-0.108
		c-1.047-1.047-4.913-4.915-5.941-5.944c-0.14-0.139-0.14-0.366,0-0.504c0.438-0.438,1.334-1.334,1.771-1.771
		c0.142-0.14,0.366-0.14,0.507,0c0.745,0.746,2.93,2.93,3.674,3.674c0.14,0.14,0.366,0.14,0.507,0
		c1.511-1.514,9.36-9.363,10.873-10.873c0.141-0.141,0.366-0.141,0.507,0c0.438,0.437,1.334,1.333,1.771,1.771
		C95.173,89.029,95.173,89.256,95.035,89.395z"/>
	<path d="M85.23,128.52c-7.078,0-12.822,5.748-12.822,12.823c0,7.077,5.745,12.825,12.822,12.825
		c7.078,0,12.825-5.749,12.825-12.825C98.055,134.268,92.308,128.52,85.23,128.52z M95.035,135.908
		c-1.697,1.697-11.414,11.414-13.143,13.143c-0.069,0.07-0.164,0.109-0.263,0.109s-0.193-0.039-0.262-0.109
		c-1.047-1.047-4.913-4.915-5.941-5.944c-0.14-0.137-0.14-0.366,0-0.504c0.438-0.438,1.334-1.332,1.771-1.772
		c0.142-0.137,0.366-0.137,0.507,0c0.745,0.748,2.93,2.932,3.674,3.678c0.14,0.14,0.366,0.14,0.507,0
		c1.511-1.516,9.36-9.364,10.873-10.877c0.141-0.137,0.366-0.137,0.507,0c0.438,0.44,1.334,1.333,1.771,1.772
		C95.173,135.542,95.173,135.771,95.035,135.908z"/>
	<path d="M85.23,175.793c-7.078,0-12.822,5.745-12.822,12.822c0,7.078,5.745,12.825,12.822,12.825
		c7.078,0,12.825-5.747,12.825-12.825C98.055,181.539,92.308,175.793,85.23,175.793z"/>
	<path d="M230.738,2.833H52.723c-7.015,0-12.701,5.686-12.701,12.7v252.398c0,7.014,5.686,12.697,12.701,12.697h178.015
		c7.014,0,12.7-5.685,12.7-12.697V15.532C243.438,8.519,237.751,2.833,230.738,2.833z M199.125,49.994h2.466v0.313
		c0,1.107,0.749,1.662,2.25,1.662c1.357,0,2.037-0.404,2.037-1.215c0-0.285-0.065-0.516-0.189-0.694
		c-0.123-0.175-0.335-0.333-0.644-0.478c-0.307-0.144-0.76-0.299-1.359-0.47l-0.804-0.236c-0.964-0.273-1.715-0.564-2.248-0.869
		c-0.535-0.308-0.92-0.678-1.155-1.116c-0.232-0.438-0.353-0.981-0.353-1.633c0-0.706,0.186-1.328,0.56-1.869
		c0.37-0.541,0.898-0.962,1.584-1.261c0.685-0.299,1.492-0.451,2.416-0.451c1.408,0,2.494,0.339,3.259,1.018
		c0.762,0.678,1.145,1.648,1.145,2.913v0.178h-2.465v-0.313c0-0.535-0.171-0.944-0.511-1.222c-0.337-0.281-0.807-0.421-1.408-0.421
		c-0.667,0-1.173,0.114-1.524,0.341c-0.354,0.228-0.531,0.544-0.531,0.95c0,0.273,0.068,0.496,0.206,0.665
		c0.138,0.168,0.373,0.323,0.705,0.458l2.572,0.833c1.12,0.339,1.95,0.779,2.483,1.319c0.536,0.541,0.803,1.217,0.803,2.025
		c0,1.147-0.413,2.052-1.242,2.71c-0.828,0.66-1.959,0.988-3.393,0.988c-1.475,0-2.619-0.323-3.434-0.967
		c-0.817-0.647-1.225-1.552-1.225-2.712L199.125,49.994L199.125,49.994z M186.546,100.933h-2.898l-3.948-5.047l-1,1.075v3.972
		h-2.445V88.726h2.445v5.262l4.854-5.262h2.778l-5.05,5.458L186.546,100.933z M173.243,41.793h8.235v2.211h-5.791v2.74h5.361v2.19
		h-5.361v2.877h5.791v2.191h-8.235V41.793z M173.125,135.627h8.236v2.211h-5.794v2.737h5.362v2.191h-5.362v2.873h5.794v2.194h-8.236
		V135.627z M159.137,41.793h4.225c1.88,0,3.239,0.326,4.078,0.978c0.841,0.653,1.264,1.67,1.264,3.053
		c0,1.029-0.216,1.837-0.648,2.426c-0.43,0.586-1.14,1.01-2.13,1.271l2.778,4.48h-2.817l-2.524-4.207h-1.78v4.207h-2.444V41.793z
		 M159.021,135.627h4.227c1.875,0,3.236,0.327,4.079,0.979c0.839,0.653,1.261,1.67,1.261,3.051c0,1.031-0.218,1.839-0.646,2.425
		c-0.431,0.588-1.141,1.013-2.132,1.271l2.778,4.48h-2.816l-2.523-4.207h-1.781v4.207h-2.445V135.627L159.021,135.627z
		 M145.676,41.793h4.423c1.839,0,3.154,0.321,3.941,0.959c0.789,0.638,1.186,1.657,1.186,3.052c0,0.965-0.156,1.736-0.471,2.309
		c-0.313,0.575-0.829,0.993-1.545,1.262c-0.717,0.269-1.69,0.4-2.916,0.4h-2.17v4.228h-2.447L145.676,41.793L145.676,41.793z
		 M145.56,135.627h4.421c1.839,0,3.152,0.319,3.941,0.958c0.789,0.638,1.186,1.656,1.186,3.054c0,0.964-0.156,1.733-0.472,2.309
		c-0.314,0.573-0.827,0.994-1.545,1.263c-0.717,0.265-1.689,0.398-2.913,0.398h-2.173v4.229h-2.445V135.627L145.56,135.627z
		 M131.298,41.793h2.659l2.545,4.09l2.563-4.09h2.502l-3.793,6.124l3.793,6.085h-2.659l-2.544-4.089l-2.563,4.089h-2.502
		l3.793-6.124L131.298,41.793z M131.179,135.627h2.661l2.545,4.087l2.56-4.087h2.505l-3.796,6.124l3.796,6.084h-2.661l-2.542-4.088
		l-2.563,4.088h-2.505l3.795-6.124L131.179,135.627z M119.54,41.793h8.236v2.211h-5.789v2.74h5.359v2.19h-5.359v2.877h5.789v2.191
		h-8.236V41.793z M119.423,135.627h8.235v2.211h-5.791v2.737h5.363v2.191h-5.363v2.873h5.791v2.194h-8.235V135.627z M85.23,253.434
		c-9.863,0-17.872-8.008-17.872-17.871s8.008-17.87,17.872-17.87s17.872,8.007,17.872,17.87S95.094,253.434,85.23,253.434z
		 M85.23,206.49c-9.863,0-17.872-8.009-17.872-17.872s8.008-17.872,17.872-17.872s17.872,8.009,17.872,17.872
		S95.094,206.49,85.23,206.49z M85.23,159.214c-9.863,0-17.872-8.008-17.872-17.872c0-9.863,8.008-17.873,17.872-17.873
		s17.872,8.008,17.872,17.873C103.102,151.207,95.094,159.214,85.23,159.214z M85.23,112.704c-9.863,0-17.872-8.008-17.872-17.872
		c0-9.867,8.008-17.875,17.872-17.875s17.872,8.008,17.872,17.875C103.102,104.695,95.094,112.704,85.23,112.704z M85.23,65.771
		c-9.863,0-17.872-8.008-17.872-17.873c0-9.864,8.008-17.872,17.872-17.872s17.872,8.008,17.872,17.872
		C103.102,57.762,95.094,65.771,85.23,65.771z M127.543,231.668h-5.792v2.738h5.36v2.192h-5.36v2.874h5.792v2.194h-8.236v-12.21
		h8.236V231.668z M129.124,187.169h-2.443v-0.606c0-0.665-0.17-1.148-0.509-1.447c-0.339-0.3-0.964-0.446-1.875-0.446
		c-0.968,0-1.633,0.163-1.997,0.496c-0.366,0.331-0.548,0.816-0.548,1.458v3.99c0,0.625,0.193,1.107,0.578,1.444
		c0.384,0.34,1.039,0.511,1.967,0.511c0.898,0,1.521-0.154,1.866-0.458c0.348-0.309,0.521-0.808,0.521-1.497v-0.528h2.443v0.567
		c0,1.421-0.405,2.474-1.222,3.159c-0.813,0.685-2.025,1.026-3.629,1.026c-1.63,0-2.865-0.358-3.705-1.076
		c-0.843-0.716-1.262-1.774-1.262-3.167v-3.953c0-1.396,0.419-2.451,1.262-3.17c0.84-0.715,2.075-1.075,3.705-1.075
		c3.233,0,4.851,1.389,4.851,4.167v0.605H129.124z M129.36,93.381h-2.446v-0.604c0-0.665-0.168-1.147-0.507-1.449
		c-0.339-0.3-0.968-0.449-1.879-0.449c-0.964,0-1.631,0.165-1.996,0.499c-0.363,0.332-0.546,0.819-0.546,1.459v3.988
		c0,0.626,0.191,1.111,0.575,1.447c0.384,0.339,1.042,0.509,1.967,0.509c0.902,0,1.524-0.152,1.87-0.458
		c0.344-0.307,0.517-0.806,0.517-1.498v-0.528h2.446v0.567c0,1.421-0.407,2.476-1.222,3.159c-0.817,0.685-2.025,1.026-3.629,1.026
		c-1.63,0-2.868-0.357-3.708-1.073c-0.84-0.719-1.262-1.776-1.262-3.171v-3.952c0-1.395,0.422-2.452,1.262-3.17
		c0.84-0.716,2.078-1.073,3.708-1.073c3.234,0,4.851,1.39,4.851,4.167V93.381z M141.333,241.667h-2.661l-2.542-4.09l-2.563,4.09
		h-2.506l3.797-6.126l-3.797-6.084h2.662l2.542,4.089l2.563-4.089h2.506l-3.795,6.123L141.333,241.667z M144.074,194.721h-2.447
		v-5.068h-5.36v5.068h-2.443v-12.207h2.443v4.949h5.36v-4.949h2.447V194.721z M144.309,100.933h-2.448v-5.066h-5.36v5.066h-2.447
		V88.726h2.447v4.95h5.36v-4.95h2.448V100.933z M154.519,235.776c-0.313,0.576-0.828,0.994-1.545,1.262
		c-0.72,0.269-1.689,0.4-2.915,0.4h-2.172v4.229h-2.443v-12.21h4.421c1.838,0,3.153,0.321,3.941,0.96
		c0.787,0.639,1.184,1.654,1.184,3.051C154.989,234.433,154.833,235.207,154.519,235.776z M157.396,184.725h-5.792v2.738h5.361
		v2.189h-5.361v2.877h5.792v2.191h-8.236v-12.207h8.236V184.725z M157.631,90.938h-5.793v2.738h5.361v2.191h-5.361v2.876h5.793
		v2.189h-8.236V88.726h8.236V90.938z M168.467,241.667h-2.813l-2.524-4.206h-1.783v4.206h-2.446v-12.21h4.229
		c1.876,0,3.236,0.328,4.077,0.979c0.843,0.652,1.261,1.671,1.261,3.054c0,1.029-0.214,1.838-0.644,2.427
		c-0.432,0.585-1.142,1.009-2.135,1.271L168.467,241.667z M171.328,187.169h-2.449v-0.606c0-0.665-0.17-1.148-0.509-1.447
		c-0.336-0.3-0.965-0.446-1.877-0.446c-0.965,0-1.631,0.163-1.997,0.496c-0.365,0.331-0.548,0.816-0.548,1.458v3.99
		c0,0.625,0.192,1.107,0.578,1.444c0.384,0.34,1.041,0.511,1.967,0.511c0.897,0,1.521-0.154,1.869-0.458
		c0.344-0.309,0.517-0.808,0.517-1.497v-0.528h2.449v0.567c0,1.421-0.41,2.474-1.225,3.159c-0.816,0.685-2.025,1.026-3.627,1.026
		c-1.631,0-2.868-0.358-3.709-1.076c-0.84-0.716-1.263-1.774-1.263-3.167v-3.953c0-1.396,0.423-2.451,1.263-3.17
		c0.84-0.715,2.078-1.075,3.709-1.075c3.234,0,4.852,1.389,4.852,4.167V187.169L171.328,187.169z M171.559,93.381h-2.444v-0.604
		c0-0.665-0.172-1.147-0.511-1.449c-0.337-0.3-0.964-0.449-1.878-0.449c-0.965,0-1.632,0.165-1.995,0.499
		c-0.365,0.332-0.549,0.819-0.549,1.459v3.988c0,0.626,0.195,1.111,0.58,1.447c0.385,0.339,1.037,0.509,1.964,0.509
		c0.899,0,1.523-0.152,1.868-0.458c0.347-0.307,0.521-0.806,0.521-1.498v-0.528h2.444v0.567c0,1.421-0.406,2.476-1.225,3.159
		c-0.812,0.685-2.022,1.026-3.627,1.026c-1.63,0-2.864-0.357-3.706-1.073c-0.842-0.719-1.264-1.776-1.264-3.171v-3.952
		c0-1.395,0.422-2.452,1.264-3.17c0.839-0.716,2.076-1.073,3.706-1.073c3.234,0,4.852,1.39,4.852,4.167V93.381z M181.244,231.668
		h-5.791v2.738h5.358v2.192h-5.358v2.874h5.791v2.194h-8.233v-12.21h8.233V231.668z M179.463,189.674l-0.997,1.077v3.97h-2.446
		v-12.207h2.446v5.262l4.851-5.262h2.778l-5.045,5.459l5.261,6.748h-2.896L179.463,189.674z M193.421,240.793
		c-0.826,0.661-1.958,0.99-3.396,0.99c-1.472,0-2.615-0.324-3.434-0.972c-0.812-0.643-1.221-1.548-1.221-2.709v-0.447h2.465v0.313
		c0,1.108,0.751,1.662,2.251,1.662c1.354,0,2.034-0.406,2.034-1.214c0-0.287-0.063-0.518-0.186-0.695
		c-0.127-0.174-0.338-0.333-0.645-0.478s-0.76-0.302-1.358-0.47l-0.804-0.235c-0.965-0.273-1.716-0.565-2.25-0.871
		c-0.534-0.305-0.922-0.677-1.153-1.114c-0.235-0.437-0.354-0.984-0.354-1.636c0-0.703,0.188-1.326,0.559-1.866
		c0.373-0.544,0.899-0.962,1.585-1.261c0.685-0.302,1.49-0.451,2.418-0.451c1.406,0,2.493,0.338,3.256,1.019
		c0.762,0.679,1.145,1.647,1.145,2.912v0.177h-2.465v-0.313c0-0.534-0.171-0.942-0.511-1.225c-0.338-0.278-0.808-0.418-1.407-0.418
		c-0.666,0-1.174,0.113-1.526,0.342c-0.353,0.228-0.528,0.544-0.528,0.947c0,0.274,0.069,0.495,0.207,0.667
		c0.134,0.169,0.372,0.323,0.702,0.458l2.573,0.833c1.122,0.338,1.95,0.779,2.483,1.318c0.536,0.542,0.804,1.219,0.804,2.025
		C194.666,239.235,194.249,240.138,193.421,240.793z M190.028,194.721v-12.207h2.446v12.207H190.028z M193.539,146.965
		c-0.827,0.658-1.959,0.986-3.393,0.986c-1.474,0-2.619-0.321-3.433-0.967c-0.816-0.647-1.224-1.549-1.224-2.711v-0.45h2.463v0.313
		c0,1.106,0.751,1.665,2.253,1.665c1.355,0,2.032-0.406,2.032-1.216c0-0.284-0.062-0.519-0.185-0.692
		c-0.123-0.177-0.339-0.337-0.645-0.48c-0.308-0.143-0.761-0.3-1.359-0.471l-0.804-0.234c-0.965-0.273-1.715-0.563-2.247-0.871
		c-0.537-0.308-0.921-0.678-1.156-1.116c-0.232-0.438-0.352-0.981-0.352-1.633c0-0.705,0.186-1.329,0.558-1.87
		c0.373-0.541,0.9-0.963,1.584-1.262c0.687-0.3,1.491-0.451,2.417-0.451c1.408,0,2.493,0.34,3.258,1.018s1.143,1.651,1.143,2.916
		v0.175h-2.463v-0.313c0-0.533-0.169-0.941-0.509-1.222c-0.339-0.281-0.809-0.422-1.409-0.422c-0.666,0-1.176,0.115-1.524,0.343
		c-0.354,0.229-0.532,0.545-0.532,0.948c0,0.276,0.07,0.497,0.208,0.665c0.134,0.17,0.371,0.324,0.701,0.461l2.574,0.83
		c1.123,0.339,1.95,0.779,2.483,1.323c0.536,0.542,0.806,1.214,0.806,2.023C194.785,145.401,194.369,146.305,193.539,146.965z
		 M190.262,100.933V88.726h2.449v12.207H190.262z M193.658,53.131c-0.829,0.66-1.96,0.989-3.396,0.989
		c-1.474,0-2.618-0.324-3.433-0.968c-0.814-0.647-1.222-1.551-1.222-2.712v-0.447h2.463v0.312c0,1.108,0.749,1.662,2.252,1.662
		c1.355,0,2.035-0.403,2.035-1.214c0-0.286-0.064-0.517-0.186-0.694c-0.126-0.175-0.34-0.333-0.646-0.478
		c-0.309-0.144-0.763-0.299-1.361-0.47l-0.8-0.235c-0.969-0.274-1.714-0.564-2.251-0.869c-0.534-0.308-0.92-0.679-1.156-1.116
		c-0.232-0.438-0.349-0.981-0.349-1.633c0-0.705,0.185-1.327,0.556-1.869c0.372-0.541,0.899-0.963,1.586-1.262
		c0.685-0.298,1.489-0.45,2.414-0.45c1.411,0,2.496,0.339,3.258,1.017c0.765,0.679,1.145,1.648,1.145,2.913v0.177h-2.464v-0.312
		c0-0.536-0.17-0.944-0.509-1.222c-0.34-0.281-0.81-0.421-1.408-0.421c-0.664,0-1.175,0.114-1.526,0.341
		c-0.354,0.229-0.527,0.543-0.527,0.95c0,0.273,0.066,0.496,0.204,0.665c0.138,0.17,0.371,0.324,0.704,0.458l2.57,0.833
		c1.123,0.339,1.951,0.779,2.488,1.319c0.532,0.541,0.801,1.217,0.801,2.025C194.898,51.57,194.485,52.474,193.658,53.131z
		 M206.944,240.793c-0.832,0.661-1.961,0.99-3.397,0.99c-1.473,0-2.614-0.324-3.432-0.972c-0.814-0.643-1.223-1.548-1.223-2.709
		v-0.447h2.465v0.313c0,1.108,0.749,1.662,2.248,1.662c1.358,0,2.035-0.406,2.035-1.214c0-0.287-0.06-0.518-0.186-0.695
		c-0.123-0.174-0.337-0.333-0.646-0.478c-0.304-0.145-0.758-0.302-1.36-0.47l-0.801-0.235c-0.964-0.273-1.713-0.565-2.251-0.871
		c-0.534-0.305-0.919-0.677-1.151-1.114c-0.236-0.437-0.354-0.984-0.354-1.636c0-0.703,0.186-1.326,0.558-1.866
		c0.372-0.544,0.9-0.962,1.585-1.261c0.686-0.302,1.49-0.451,2.414-0.451c1.41,0,2.495,0.338,3.258,1.019
		c0.766,0.679,1.146,1.647,1.146,2.912v0.177h-2.467v-0.313c0-0.534-0.169-0.942-0.508-1.225c-0.339-0.278-0.808-0.418-1.407-0.418
		c-0.666,0-1.174,0.113-1.528,0.342c-0.352,0.228-0.526,0.544-0.526,0.947c0,0.274,0.068,0.495,0.204,0.667
		c0.138,0.169,0.372,0.323,0.705,0.458l2.573,0.833c1.121,0.338,1.95,0.779,2.484,1.318c0.534,0.542,0.8,1.219,0.8,2.025
		C208.182,239.235,207.768,240.138,206.944,240.793z M208.3,194.721h-2.191l-6.24-8.098v8.098h-2.308v-12.207h2.193l6.239,8.237
		v-8.237h2.307V194.721z M207.058,146.965c-0.827,0.658-1.958,0.986-3.394,0.986c-1.475,0-2.618-0.321-3.435-0.967
		c-0.814-0.647-1.223-1.549-1.223-2.711v-0.45h2.466v0.313c0,1.106,0.749,1.665,2.25,1.665c1.354,0,2.033-0.406,2.033-1.216
		c0-0.284-0.061-0.519-0.185-0.692c-0.125-0.177-0.34-0.337-0.644-0.48c-0.307-0.143-0.76-0.3-1.359-0.471l-0.804-0.234
		c-0.965-0.273-1.715-0.563-2.251-0.871c-0.533-0.308-0.919-0.678-1.152-1.116c-0.236-0.438-0.354-0.981-0.354-1.633
		c0-0.705,0.186-1.329,0.558-1.87c0.373-0.541,0.9-0.963,1.584-1.262c0.687-0.3,1.491-0.451,2.419-0.451
		c1.406,0,2.494,0.34,3.257,1.018c0.762,0.678,1.144,1.651,1.144,2.916v0.175h-2.466v-0.313c0-0.533-0.17-0.941-0.509-1.222
		c-0.338-0.281-0.809-0.422-1.408-0.422c-0.665,0-1.173,0.115-1.527,0.343c-0.349,0.229-0.526,0.545-0.526,0.948
		c0,0.276,0.068,0.497,0.206,0.665c0.136,0.17,0.372,0.324,0.703,0.461l2.574,0.83c1.12,0.339,1.948,0.779,2.483,1.323
		c0.534,0.542,0.801,1.214,0.801,2.023C208.3,145.401,207.887,146.305,207.058,146.965z M208.535,100.933h-2.189l-6.244-8.099v8.099
		h-2.308V88.726h2.192l6.241,8.235v-8.235h2.308V100.933z"/>
	<path d="M85.23,35.075c-7.078,0-12.822,5.748-12.822,12.824c0,7.077,5.745,12.822,12.822,12.822
		c7.078,0,12.825-5.744,12.825-12.822C98.055,40.821,92.308,35.075,85.23,35.075z M95.035,42.465
		c-1.697,1.697-11.414,11.412-13.143,13.141c-0.069,0.071-0.164,0.108-0.263,0.108s-0.193-0.037-0.262-0.108
		c-1.047-1.047-4.913-4.912-5.941-5.94c-0.14-0.141-0.14-0.366,0-0.507c0.438-0.438,1.334-1.334,1.771-1.771
		c0.142-0.141,0.366-0.141,0.507,0c0.745,0.745,2.93,2.93,3.674,3.674c0.14,0.141,0.366,0.141,0.507,0
		c1.511-1.511,9.36-9.359,10.873-10.873c0.141-0.14,0.366-0.14,0.507,0c0.438,0.438,1.334,1.334,1.771,1.771
		C95.173,42.099,95.173,42.324,95.035,42.465z"/>
	<path d="M151.47,231.823c-0.395-0.116-0.939-0.173-1.645-0.173h-1.938v3.618h2.094c0.691,0,1.22-0.062,1.585-0.186
		c0.364-0.125,0.616-0.315,0.753-0.579c0.138-0.259,0.204-0.617,0.204-1.075c0-0.444-0.077-0.793-0.231-1.045
		C152.134,232.129,151.858,231.942,151.47,231.823z"/>
	<path d="M165.387,232.063c-0.397-0.278-1.123-0.412-2.182-0.412h-1.855v3.639h1.954c0.718,0,1.265-0.063,1.646-0.188
		c0.377-0.122,0.643-0.315,0.799-0.576c0.16-0.262,0.235-0.625,0.235-1.096C165.984,232.79,165.786,232.333,165.387,232.063z"/>
	<path d="M165.064,141.271c0.38-0.125,0.646-0.316,0.802-0.579c0.157-0.259,0.233-0.626,0.233-1.094c0-0.638-0.198-1.094-0.597-1.37
		c-0.396-0.274-1.123-0.411-2.182-0.411h-1.856v3.64h1.956C164.14,141.456,164.685,141.396,165.064,141.271z"/>
	<path d="M165.181,47.439c0.379-0.125,0.645-0.318,0.803-0.578c0.156-0.262,0.236-0.625,0.236-1.094c0-0.642-0.2-1.098-0.602-1.37
		c-0.395-0.274-1.123-0.411-2.177-0.411h-1.86v3.64h1.955C164.253,47.625,164.805,47.563,165.181,47.439z"/>
	<path d="M151.683,141.252c0.366-0.124,0.615-0.317,0.753-0.578c0.137-0.262,0.207-0.62,0.207-1.076
		c0-0.443-0.078-0.792-0.235-1.046c-0.156-0.254-0.43-0.44-0.821-0.557c-0.392-0.12-0.938-0.178-1.645-0.178h-1.938v3.622h2.096
		C150.79,141.438,151.318,141.375,151.683,141.252z"/>
	<path d="M151.798,47.418c0.367-0.125,0.619-0.315,0.754-0.578c0.138-0.259,0.207-0.618,0.207-1.074c0-0.446-0.08-0.792-0.236-1.046
		s-0.431-0.44-0.821-0.559c-0.39-0.117-0.937-0.175-1.645-0.175h-1.936v3.618h2.092C150.906,47.605,151.437,47.543,151.798,47.418z"
		/>
	<path fill="#FFFFFF" d="M92.757,133.631c-1.513,1.514-9.362,9.362-10.873,10.877c-0.141,0.14-0.366,0.14-0.507,0
		c-0.745-0.746-2.93-2.93-3.674-3.678c-0.14-0.137-0.366-0.137-0.507,0c-0.436,0.44-1.333,1.333-1.771,1.772
		c-0.14,0.138-0.14,0.367,0,0.504c1.029,1.029,4.893,4.896,5.941,5.944c0.069,0.07,0.164,0.109,0.262,0.109s0.194-0.039,0.263-0.109
		c1.729-1.729,11.446-11.447,13.143-13.143c0.139-0.138,0.139-0.366,0-0.504c-0.437-0.44-1.333-1.333-1.771-1.772
		C93.125,133.494,92.898,133.494,92.757,133.631z"/>
	<path fill="#FFFFFF" d="M93.264,87.12c-0.139-0.141-0.366-0.141-0.507,0c-1.513,1.512-9.362,9.36-10.873,10.874
		c-0.141,0.14-0.366,0.14-0.507,0c-0.745-0.745-2.93-2.93-3.674-3.674c-0.14-0.14-0.366-0.14-0.507,0
		c-0.436,0.438-1.333,1.333-1.771,1.771c-0.14,0.138-0.14,0.366,0,0.505c1.029,1.028,4.893,4.896,5.941,5.944
		c0.069,0.069,0.164,0.108,0.262,0.108s0.194-0.041,0.263-0.108c1.729-1.729,11.446-11.447,13.143-13.144
		c0.139-0.138,0.139-0.366,0-0.503C94.598,88.454,93.702,87.557,93.264,87.12z"/>
	<path fill="#FFFFFF" d="M92.757,40.188c-1.513,1.514-9.362,9.364-10.873,10.873c-0.141,0.141-0.366,0.141-0.507,0
		c-0.745-0.744-2.93-2.929-3.674-3.674c-0.14-0.141-0.366-0.141-0.507,0c-0.436,0.438-1.333,1.334-1.771,1.771
		c-0.14,0.141-0.14,0.366,0,0.507c1.029,1.029,4.893,4.893,5.941,5.94c0.069,0.071,0.164,0.108,0.262,0.108s0.194-0.037,0.263-0.108
		c1.729-1.728,11.446-11.444,13.143-13.141c0.139-0.14,0.139-0.366,0-0.505c-0.437-0.438-1.333-1.334-1.771-1.771
		C93.125,40.047,92.898,40.047,92.757,40.188z"/>
</g>
</svg>
