<?xml version="1.0" encoding="utf-8"?>
<!-- Generator: Adobe Illustrator 15.1.0, SVG Export Plug-In . SVG Version: 6.00 Build 0)  -->
<!DOCTYPE svg PUBLIC "-//W3C//DTD SVG 1.0//EN" "http://www.w3.org/TR/2001/REC-SVG-20010904/DTD/svg10.dtd">
<svg version="1.0" id="Layer_4" xmlns="http://www.w3.org/2000/svg" xmlns:xlink="http://www.w3.org/1999/xlink" x="0px" y="0px"
	 width="283.46px" height="283.46px" viewBox="0 0 283.46 283.46" enable-background="new 0 0 283.46 283.46" xml:space="preserve">
<g>
	<path d="M228.013,7.084H55.448c-6.8,0-12.312,5.512-12.312,12.312v244.672c0,6.799,5.512,12.309,12.312,12.309h172.565
		c6.799,0,12.312-5.512,12.312-12.309V19.395C240.325,12.597,234.812,7.084,228.013,7.084z M217.439,58.309
		c1.556,0,2.338-0.464,2.338-1.396c0-0.326-0.075-0.592-0.218-0.796c-0.142-0.201-0.384-0.382-0.74-0.549
		c-0.352-0.165-0.871-0.342-1.558-0.54l-0.924-0.271c-1.107-0.313-1.969-0.647-2.581-0.998c-0.613-0.353-1.055-0.778-1.325-1.281
		c-0.267-0.502-0.404-1.125-0.404-1.875c0-0.81,0.213-1.524,0.642-2.145c0.425-0.621,1.031-1.104,1.818-1.447
		c0.785-0.344,1.713-0.518,2.774-0.518c1.615,0,2.862,0.389,3.74,1.168c0.873,0.778,1.313,1.891,1.313,3.343v0.205h-2.828v-0.359
		c0-0.614-0.195-1.083-0.585-1.403c-0.389-0.323-0.928-0.483-1.617-0.483c-0.767,0-1.348,0.13-1.751,0.392
		c-0.405,0.261-0.608,0.624-0.608,1.091c0,0.313,0.078,0.57,0.235,0.763c0.159,0.193,0.43,0.371,0.81,0.526l2.954,0.956
		c1.283,0.389,2.236,0.894,2.85,1.514c0.615,0.621,0.92,1.396,0.92,2.324c0,1.317-0.472,2.356-1.425,3.111
		c-0.95,0.758-2.248,1.135-3.895,1.135c-1.692,0-3.007-0.371-3.942-1.111c-0.937-0.743-1.404-1.781-1.404-3.113l-0.004-0.511h2.832
		v0.359C214.855,57.672,215.714,58.309,217.439,58.309z M197.519,119.503h-3.327l-4.531-5.793l-1.148,1.233v4.56h-2.808V105.49
		h2.808v6.041l5.571-6.041h3.188l-5.797,6.266L197.519,119.503z M182.316,46.627h9.451v2.538h-6.647v3.146h6.154v2.514h-6.154v3.303
		h6.647v2.514h-9.451V46.627z M166.125,46.627h4.847c2.159,0,3.719,0.375,4.682,1.123c0.966,0.75,1.452,1.917,1.452,3.505
		c0,1.181-0.249,2.108-0.745,2.784c-0.493,0.672-1.31,1.16-2.446,1.459l3.191,5.142h-3.234l-2.898-4.829h-2.042v4.829h-2.806V46.627
		z M155.747,46.627c2.11,0,3.621,0.368,4.525,1.101c0.905,0.732,1.359,1.902,1.359,3.503c0,1.107-0.179,1.993-0.539,2.65
		c-0.36,0.661-0.953,1.141-1.774,1.449c-0.822,0.31-1.939,0.459-3.348,0.459h-2.49v4.854h-2.809l-0.003-14.016H155.747z
		 M137.217,46.627l2.921,4.695l2.942-4.695h2.872l-4.354,7.03l4.354,6.984h-3.052l-2.92-4.692l-2.942,4.692h-2.872l4.354-7.029
		l-4.355-6.985H137.217z M120.668,46.627h9.455v2.538h-6.646v3.146h6.152v2.514h-6.152v3.303h6.646v2.514h-9.455V46.627z
		 M81.217,250.339c-11.322,0-20.517-9.191-20.517-20.516c0-11.326,9.193-20.518,20.517-20.518c11.323,0,20.515,9.191,20.515,20.518
		C101.732,241.146,92.54,250.339,81.217,250.339z M81.283,191.476c-11.321,0-20.515-9.191-20.515-20.516
		c0-11.322,9.192-20.514,20.515-20.514c11.323,0,20.516,9.191,20.516,20.514C101.799,182.285,92.606,191.476,81.283,191.476z
		 M60.701,112.499c0-11.326,9.193-20.518,20.517-20.518c11.323,0,20.515,9.192,20.515,20.518c0,11.322-9.192,20.517-20.515,20.517
		C69.895,133.016,60.701,123.822,60.701,112.499z M81.283,74.153c-11.321,0-20.515-9.193-20.515-20.518
		c0-11.323,9.192-20.515,20.515-20.515c11.323,0,20.516,9.192,20.516,20.515C101.799,64.958,92.606,74.153,81.283,74.153z
		 M131.874,228.158L131.874,228.158h-2.808v-0.691c0-0.764-0.193-1.318-0.582-1.664c-0.39-0.346-1.111-0.516-2.158-0.516
		c-1.106,0-1.873,0.189-2.291,0.572c-0.417,0.381-0.627,0.939-0.627,1.676v4.578c0,0.719,0.221,1.275,0.661,1.66
		c0.441,0.389,1.197,0.584,2.258,0.584c1.036,0,1.75-0.174,2.147-0.525c0.395-0.352,0.594-0.924,0.594-1.719v-0.607h2.807v0.652
		c0,1.631-0.466,2.842-1.402,3.625c-0.938,0.787-2.325,1.178-4.166,1.178c-1.871,0-3.292-0.41-4.255-1.232
		c-0.966-0.824-1.45-2.037-1.45-3.639v-4.537c0-1.602,0.484-2.814,1.45-3.639c0.963-0.822,2.385-1.232,4.255-1.232
		c3.712,0,5.568,1.596,5.568,4.785V228.158z M129.629,169.636v2.514h-6.152v3.303h6.646v2.514h-9.455v-14.014h9.455v2.537h-6.646
		v3.146H129.629z M131.874,110.834L131.874,110.834h-2.808v-0.693c0-0.764-0.193-1.317-0.582-1.664
		c-0.39-0.345-1.111-0.515-2.158-0.515c-1.106,0-1.873,0.189-2.291,0.573c-0.417,0.381-0.627,0.94-0.627,1.675v4.579
		c0,0.719,0.221,1.275,0.661,1.66c0.441,0.39,1.197,0.585,2.258,0.585c1.036,0,1.75-0.175,2.147-0.526
		c0.395-0.352,0.594-0.925,0.594-1.718v-0.607h2.807v0.651c0,1.632-0.466,2.843-1.402,3.626c-0.938,0.787-2.325,1.178-4.166,1.178
		c-1.871,0-3.292-0.41-4.255-1.231c-0.966-0.826-1.45-2.039-1.45-3.64v-4.537c0-1.602,0.484-2.815,1.45-3.639
		c0.963-0.822,2.385-1.232,4.255-1.232c3.712,0,5.568,1.595,5.568,4.784V110.834z M134.166,177.966l4.354-7.029l-4.355-6.984h3.052
		l2.921,4.695l2.942-4.695h2.872l-4.354,7.029l4.354,6.984h-3.052l-2.92-4.693l-2.942,4.693H134.166z M149.035,236.828h-2.811
		v-5.814h-6.153v5.814h-2.81v-14.012h2.81v5.682h6.153v-5.682h2.811V236.828z M149.035,119.503h-2.811v-5.815h-6.153v5.815h-2.81
		V105.49h2.81v5.682h6.153v-5.682h2.811V119.503z M153.48,177.968h-2.809l-0.003-14.016h5.078c2.11,0,3.621,0.367,4.525,1.1
		c0.905,0.734,1.359,1.902,1.359,3.504c0,1.107-0.179,1.994-0.539,2.65c-0.36,0.66-0.953,1.141-1.774,1.449
		c-0.822,0.309-1.939,0.459-3.348,0.459h-2.49V177.968z M164.325,225.355h-6.649v3.143h6.154v2.516h-6.154v3.301h6.649v2.514h-9.452
		v-14.012h9.452V225.355z M164.325,108.03h-6.649v3.142h6.154v2.516h-6.154v3.302h6.649v2.513h-9.452V105.49h9.452V108.03z
		 M168.93,177.966h-2.806v-14.014h4.847c2.159,0,3.719,0.373,4.682,1.123c0.966,0.748,1.452,1.916,1.452,3.504
		c0,1.182-0.249,2.109-0.745,2.785c-0.493,0.672-1.31,1.158-2.446,1.459l3.191,5.143h-3.234l-2.898-4.83h-2.042V177.966z
		 M180.314,228.158h-2.806v-0.691c0-0.764-0.197-1.318-0.586-1.664c-0.387-0.346-1.106-0.516-2.155-0.516
		c-1.108,0-1.874,0.189-2.29,0.572c-0.419,0.381-0.631,0.939-0.631,1.676v4.578c0,0.719,0.224,1.275,0.667,1.66
		c0.44,0.389,1.188,0.584,2.254,0.584c1.031,0,1.748-0.174,2.144-0.525c0.397-0.352,0.598-0.924,0.598-1.719v-0.607h2.806v0.652
		c0,1.631-0.466,2.842-1.406,3.625c-0.932,0.787-2.32,1.178-4.164,1.178c-1.869,0-3.286-0.41-4.252-1.232
		c-0.967-0.824-1.452-2.037-1.452-3.639v-4.537c0-1.602,0.485-2.814,1.452-3.639c0.962-0.822,2.383-1.232,4.252-1.232
		c3.713,0,5.57,1.596,5.57,4.785V228.158z M180.314,110.834h-2.806v-0.693c0-0.764-0.197-1.317-0.586-1.664
		c-0.387-0.345-1.106-0.515-2.155-0.515c-1.108,0-1.874,0.189-2.29,0.573c-0.419,0.381-0.631,0.94-0.631,1.675v4.579
		c0,0.719,0.224,1.275,0.667,1.66c0.44,0.39,1.188,0.585,2.254,0.585c1.031,0,1.748-0.175,2.144-0.526
		c0.397-0.352,0.598-0.925,0.598-1.718v-0.607h2.806v0.651c0,1.632-0.466,2.843-1.406,3.626c-0.932,0.787-2.32,1.178-4.164,1.178
		c-1.869,0-3.286-0.41-4.252-1.231c-0.967-0.826-1.452-2.039-1.452-3.64v-4.537c0-1.602,0.485-2.815,1.452-3.639
		c0.962-0.822,2.383-1.232,4.252-1.232c3.713,0,5.57,1.595,5.57,4.784V110.834z M182.316,163.953h9.451v2.537h-6.647v3.146h6.154
		v2.514h-6.154v3.303h6.647v2.514h-9.451V163.953z M194.192,236.828l-4.531-5.793l-1.148,1.232v4.561h-2.808v-14.012h2.808v6.039
		l5.571-6.039h3.188l-5.797,6.264l6.044,7.748H194.192z M204.594,236.828h-2.811v-14.012h2.811V236.828z M205.749,176.968
		c-0.95,0.758-2.25,1.135-3.898,1.135c-1.69,0-3.005-0.373-3.94-1.111c-0.934-0.742-1.402-1.781-1.402-3.113v-0.514h2.826v0.357
		c0,1.273,0.86,1.908,2.586,1.908c1.555,0,2.336-0.461,2.336-1.393c0-0.328-0.074-0.594-0.213-0.797
		c-0.146-0.201-0.391-0.383-0.742-0.549c-0.354-0.164-0.876-0.344-1.563-0.539l-0.918-0.271c-1.112-0.313-1.968-0.646-2.584-0.996
		c-0.612-0.354-1.057-0.779-1.327-1.281c-0.267-0.504-0.4-1.125-0.4-1.875c0-0.809,0.212-1.521,0.638-2.145
		c0.428-0.621,1.032-1.105,1.819-1.449c0.788-0.342,1.71-0.516,2.772-0.516c1.62,0,2.865,0.389,3.74,1.166
		c0.878,0.781,1.314,1.893,1.314,3.346v0.201h-2.829v-0.357c0-0.615-0.194-1.084-0.584-1.402c-0.392-0.322-0.93-0.482-1.616-0.482
		c-0.763,0-1.35,0.131-1.753,0.391c-0.405,0.264-0.604,0.623-0.604,1.09c0,0.314,0.075,0.57,0.233,0.764
		c0.159,0.195,0.428,0.371,0.808,0.525l2.951,0.957c1.288,0.389,2.239,0.893,2.856,1.514c0.61,0.621,0.919,1.396,0.919,2.324
		C207.172,175.175,206.698,176.214,205.749,176.968z M201.784,119.503V105.49h2.811v14.013H201.784z M205.749,59.642
		c-0.95,0.758-2.25,1.136-3.898,1.136c-1.69,0-3.005-0.372-3.94-1.112c-0.934-0.743-1.402-1.78-1.402-3.113v-0.512h2.826v0.358
		c0,1.272,0.86,1.907,2.586,1.907c1.555,0,2.336-0.463,2.336-1.393c0-0.329-0.074-0.594-0.213-0.796
		c-0.146-0.202-0.391-0.382-0.742-0.549c-0.354-0.166-0.876-0.343-1.563-0.54l-0.918-0.27c-1.112-0.314-1.968-0.647-2.584-0.998
		c-0.612-0.353-1.057-0.779-1.327-1.281c-0.267-0.502-0.4-1.125-0.4-1.875c0-0.809,0.212-1.523,0.638-2.145
		c0.428-0.621,1.032-1.106,1.819-1.449c0.788-0.342,1.71-0.516,2.772-0.516c1.62,0,2.865,0.389,3.74,1.167
		c0.878,0.779,1.314,1.891,1.314,3.344v0.203h-2.829v-0.357c0-0.616-0.194-1.084-0.584-1.403c-0.392-0.323-0.93-0.483-1.616-0.483
		c-0.763,0-1.35,0.13-1.753,0.392c-0.405,0.262-0.604,0.623-0.604,1.09c0,0.314,0.075,0.57,0.233,0.764
		c0.159,0.195,0.428,0.372,0.808,0.526l2.951,0.956c1.288,0.388,2.239,0.894,2.856,1.514c0.61,0.621,0.919,1.396,0.919,2.324
		C207.172,57.85,206.698,58.889,205.749,59.642z M222.759,236.828h-2.513l-7.168-9.297v9.297h-2.649v-14.012h2.517l7.164,9.451
		v-9.451h2.649V236.828z M217.439,175.634c1.556,0,2.338-0.465,2.338-1.395c0-0.328-0.075-0.594-0.218-0.797
		c-0.142-0.201-0.384-0.383-0.74-0.551c-0.352-0.164-0.871-0.342-1.558-0.537l-0.924-0.273c-1.107-0.313-1.969-0.646-2.581-0.996
		c-0.613-0.354-1.055-0.777-1.325-1.281c-0.267-0.504-0.404-1.125-0.404-1.875c0-0.809,0.213-1.523,0.642-2.145
		c0.425-0.621,1.031-1.104,1.818-1.447c0.785-0.344,1.713-0.518,2.774-0.518c1.615,0,2.862,0.389,3.74,1.168
		c0.873,0.779,1.313,1.893,1.313,3.344v0.205h-2.828v-0.359c0-0.615-0.195-1.084-0.585-1.404c-0.389-0.32-0.928-0.482-1.617-0.482
		c-0.767,0-1.348,0.131-1.751,0.391c-0.405,0.264-0.608,0.625-0.608,1.092c0,0.313,0.078,0.568,0.235,0.764
		c0.159,0.193,0.43,0.369,0.81,0.525l2.954,0.955c1.283,0.391,2.236,0.895,2.85,1.514c0.615,0.623,0.92,1.398,0.92,2.326
		c0,1.316-0.472,2.355-1.425,3.111c-0.95,0.758-2.248,1.133-3.895,1.133c-1.692,0-3.007-0.371-3.942-1.109
		c-0.937-0.742-1.404-1.781-1.404-3.113l-0.004-0.512h2.832v0.359C214.855,174.996,215.714,175.634,217.439,175.634z
		 M222.759,119.503h-2.513l-7.168-9.296v9.296h-2.649V105.49h2.517l7.164,9.453v-9.453h2.649V119.503z"/>
	<path d="M81.217,127.218c8.124,0,14.722-6.598,14.722-14.719c0-8.124-6.598-14.721-14.722-14.721
		c-8.126,0-14.719,6.597-14.719,14.721C66.499,120.623,73.092,127.218,81.217,127.218z M69.961,113.943
		c0.503-0.501,1.532-1.531,2.034-2.032c0.162-0.16,0.419-0.16,0.582,0c0.855,0.856,3.363,3.363,4.217,4.218
		c0.162,0.16,0.421,0.16,0.582,0c1.734-1.738,10.745-10.749,12.482-12.482c0.161-0.162,0.419-0.162,0.582,0
		c0.503,0.502,1.531,1.53,2.033,2.033c0.157,0.158,0.157,0.418-0.001,0.578c-1.948,1.948-13.103,13.103-15.087,15.088
		c-0.079,0.079-0.188,0.123-0.303,0.123c-0.113,0-0.221-0.045-0.3-0.123c-1.201-1.202-5.639-5.642-6.82-6.823
		C69.802,114.363,69.802,114.102,69.961,113.943z"/>
	<path d="M81.283,38.917c-8.124,0-14.718,6.598-14.718,14.72c0,8.125,6.595,14.719,14.718,14.719
		c8.125,0,14.722-6.593,14.722-14.719C96.005,45.511,89.409,38.917,81.283,38.917z M92.538,47.399
		c-1.947,1.948-13.101,13.1-15.086,15.085c-0.079,0.082-0.189,0.124-0.302,0.124c-0.115,0-0.222-0.042-0.3-0.124
		c-1.203-1.202-5.641-5.638-6.821-6.819c-0.16-0.162-0.16-0.42,0-0.581c0.503-0.504,1.531-1.532,2.033-2.034
		c0.164-0.162,0.421-0.162,0.582,0c0.856,0.855,3.364,3.363,4.218,4.218c0.16,0.162,0.419,0.162,0.583,0
		c1.734-1.735,10.744-10.743,12.479-12.482c0.163-0.16,0.421-0.16,0.583,0c0.503,0.502,1.532,1.532,2.034,2.033
		C92.697,46.979,92.697,47.238,92.538,47.399z"/>
	<path d="M173.06,53.108c0.436-0.143,0.739-0.365,0.922-0.664c0.179-0.3,0.271-0.717,0.271-1.255c0-0.738-0.229-1.26-0.69-1.573
		c-0.454-0.314-1.289-0.472-2.5-0.472h-2.135v4.179h2.245C171.995,53.322,172.629,53.251,173.06,53.108z"/>
	<path d="M157.699,53.084c0.42-0.143,0.71-0.362,0.865-0.664c0.157-0.297,0.237-0.709,0.237-1.232c0-0.512-0.092-0.909-0.271-1.201
		c-0.179-0.292-0.496-0.505-0.942-0.642c-0.447-0.134-1.075-0.202-1.889-0.202h-2.223v4.154h2.401
		C156.673,53.299,157.283,53.229,157.699,53.084z"/>
	<path d="M81.217,215.101c-8.126,0-14.719,6.598-14.719,14.723c0,8.123,6.593,14.719,14.719,14.719
		c8.124,0,14.722-6.598,14.722-14.719C95.939,221.699,89.341,215.101,81.217,215.101z M92.472,223.583
		c-1.948,1.947-13.103,13.102-15.087,15.086c-0.079,0.08-0.188,0.125-0.303,0.125c-0.113,0-0.221-0.045-0.3-0.125
		c-1.201-1.201-5.639-5.641-6.82-6.822c-0.159-0.16-0.159-0.42,0-0.578c0.503-0.504,1.532-1.533,2.034-2.033
		c0.162-0.16,0.419-0.16,0.582,0c0.855,0.855,3.363,3.363,4.217,4.217c0.162,0.162,0.421,0.162,0.582,0
		c1.734-1.738,10.745-10.748,12.482-12.48c0.161-0.162,0.419-0.162,0.582,0c0.503,0.502,1.531,1.529,2.033,2.033
		C92.63,223.164,92.63,223.423,92.472,223.583z"/>
	<path d="M81.283,156.242c-8.124,0-14.718,6.596-14.718,14.721c0,8.123,6.595,14.719,14.718,14.719
		c8.125,0,14.722-6.594,14.722-14.719C96.005,162.835,89.409,156.242,81.283,156.242z M92.538,164.724
		c-1.947,1.947-13.101,13.1-15.086,15.084c-0.079,0.082-0.189,0.125-0.302,0.125c-0.115,0-0.222-0.043-0.3-0.125
		c-1.203-1.201-5.641-5.639-6.821-6.818c-0.16-0.162-0.16-0.42,0-0.582c0.503-0.502,1.531-1.531,2.033-2.033
		c0.164-0.162,0.421-0.162,0.582,0c0.856,0.855,3.364,3.363,4.218,4.217c0.16,0.162,0.419,0.162,0.583,0
		c1.734-1.734,10.744-10.742,12.479-12.48c0.163-0.16,0.421-0.16,0.583,0c0.503,0.504,1.532,1.531,2.034,2.033
		C92.697,164.304,92.697,164.562,92.538,164.724z"/>
	<path d="M173.06,170.433c0.436-0.145,0.739-0.365,0.922-0.664c0.179-0.299,0.271-0.717,0.271-1.254c0-0.738-0.229-1.262-0.69-1.572
		c-0.454-0.316-1.289-0.473-2.5-0.473h-2.135v4.178h2.245C171.995,170.648,172.629,170.576,173.06,170.433z"/>
	<path d="M158.564,169.746c0.157-0.297,0.237-0.709,0.237-1.232c0-0.514-0.092-0.91-0.271-1.201
		c-0.179-0.291-0.496-0.506-0.942-0.641c-0.447-0.135-1.075-0.201-1.889-0.201h-2.223v4.152h2.401
		c0.796,0.002,1.405-0.07,1.821-0.213C158.119,170.265,158.409,170.048,158.564,169.746z"/>
</g>
</svg>
