<?xml version="1.0" encoding="utf-8"?>
<!-- Generator: Adobe Illustrator 15.1.0, SVG Export Plug-In . SVG Version: 6.00 Build 0)  -->
<!DOCTYPE svg PUBLIC "-//W3C//DTD SVG 1.1//EN" "http://www.w3.org/Graphics/SVG/1.1/DTD/svg11.dtd">
<svg version="1.1" id="Layer_3" xmlns="http://www.w3.org/2000/svg" xmlns:xlink="http://www.w3.org/1999/xlink" x="0px" y="0px"
	 width="283.465px" height="283.465px" viewBox="0 0 283.465 283.465" enable-background="new 0 0 283.465 283.465"
	 xml:space="preserve">
<g>
	<path d="M110.061,273.873c0,1.379-1.122,2.506-2.501,2.506H9.589c-1.378,0-2.502-1.127-2.502-2.506v-97.971
		c0-1.379,1.124-2.502,2.502-2.502h97.972c1.38,0,2.501,1.123,2.501,2.502L110.061,273.873L110.061,273.873z"/>
	<path d="M110.061,126.155c0,1.379-1.122,2.501-2.501,2.501H9.589c-1.378,0-2.502-1.122-2.502-2.501V28.183
		c0-1.377,1.124-2.502,2.502-2.502h97.972c1.38,0,2.501,1.125,2.501,2.502L110.061,126.155L110.061,126.155z"/>
	<path d="M257.784,273.873c0,1.379-1.127,2.506-2.505,2.506h-97.971c-1.379,0-2.503-1.127-2.503-2.506v-97.971
		c0-1.379,1.124-2.502,2.503-2.502h97.971c1.378,0,2.505,1.123,2.505,2.502V273.873z"/>
	<g>
		<path d="M173.402,64.491v43.069c0,1.379,1.122,2.501,2.501,2.501h42.458v-45.57H173.402z"/>
		<path d="M218.361,7.086h-42.458c-1.379,0-2.501,1.124-2.501,2.501v42.661h44.959V7.086L218.361,7.086z"/>
		<path d="M231.42,110.059h42.453c1.38,0,2.505-1.122,2.505-2.501V64.491H231.42V110.059z"/>
		<path d="M276.378,52.247V9.587c0-1.377-1.125-2.501-2.505-2.501H231.42v45.162h44.958V52.247z"/>
	</g>
</g>
</svg>
