<?xml version="1.0" encoding="utf-8"?>
<!-- Generator: Adobe Illustrator 15.1.0, SVG Export Plug-In . SVG Version: 6.00 Build 0)  -->
<!DOCTYPE svg PUBLIC "-//W3C//DTD SVG 1.1//EN" "http://www.w3.org/Graphics/SVG/1.1/DTD/svg11.dtd">
<svg version="1.1" id="Layer_5" xmlns="http://www.w3.org/2000/svg" xmlns:xlink="http://www.w3.org/1999/xlink" x="0px" y="0px"
	 width="283.46px" height="283.46px" viewBox="0 0 283.46 283.46" enable-background="new 0 0 283.46 283.46" xml:space="preserve">
<g>
	<path d="M226.394,119.227l-11.178-11.179l49.391-49.39c0.14-0.14,0.265-0.289,0.396-0.433
		c13.146-13.951,15.229-33.526,4.493-44.262c-10.737-10.737-30.313-8.654-44.262,4.494c-0.146,0.131-0.294,0.255-0.434,0.396
		L175.41,68.243l-11.179-11.178c-3.269-3.27-8.28-3.56-11.191-0.648c-2.91,2.911-2.62,7.922,0.649,11.191l18.06,18.061l0.281,0.281
		L65.202,192.779c-0.967,0.967-1.679,2.097-2.139,3.31L7.517,271.783c-0.743,1.011-0.508,2.558,0.547,3.613
		c1.054,1.055,2.602,1.289,3.613,0.548l75.688-55.546c1.216-0.461,2.347-1.173,3.315-2.142L197.51,111.428l0.281,0.281
		l18.061,18.061c3.269,3.269,8.279,3.559,11.191,0.648C229.954,127.508,229.663,122.496,226.394,119.227z M86.388,205.336
		c-0.381,0.381-1.237,0.204-2.29-0.368l-30.451,30.45c-0.208,0.209-0.76,0.029-1.462-0.414l-11.722,11.723
		c-0.372,0.371-0.833,0.599-1.32,0.686l-13.987,13.986c-0.294,0.295-0.941,0.151-1.61-0.306l-4.839,4.839
		c-0.172,0.173-0.381,0.267-0.59,0.305l-6.185,6.184c-0.448,0.448-1.011,0.612-1.257,0.364c-0.249-0.247-0.085-0.811,0.363-1.258
		l6.185-6.186c0.037-0.209,0.131-0.418,0.303-0.59l4.839-4.839c-0.458-0.67-0.601-1.316-0.306-1.61l13.987-13.987
		c0.087-0.487,0.314-0.948,0.686-1.319l11.723-11.724c-0.443-0.7-0.623-1.252-0.415-1.461l30.451-30.45
		c-0.573-1.052-0.749-1.908-0.368-2.29L180.637,94.557l8.266,8.264L86.388,205.336z"/>
</g>
</svg>
