<?xml version="1.0" encoding="utf-8"?>
<!-- Generator: Adobe Illustrator 15.1.0, SVG Export Plug-In . SVG Version: 6.00 Build 0)  -->
<!DOCTYPE svg PUBLIC "-//W3C//DTD SVG 1.0//EN" "http://www.w3.org/TR/2001/REC-SVG-20010904/DTD/svg10.dtd">
<svg version="1.0" id="Layer_5" xmlns="http://www.w3.org/2000/svg" xmlns:xlink="http://www.w3.org/1999/xlink" x="0px" y="0px"
	 width="283.46px" height="283.46px" viewBox="0 0 283.46 283.46" enable-background="new 0 0 283.46 283.46" xml:space="preserve">
<g>
	<path fill="none" d="M141.73,212.421c-74.362,0-134.646-31.651-134.646-70.692c0-39.038,60.284-70.69,134.646-70.69
		c74.359,0,134.646,31.652,134.646,70.693C276.375,180.77,216.093,212.421,141.73,212.421z"/>
	<path fill="none" d="M141.73,91.572c-27.102,0-49.147,22.501-49.147,50.156c0,27.657,22.046,50.159,49.147,50.159
		c27.1,0,49.148-22.502,49.148-50.159C190.878,114.073,168.83,91.572,141.73,91.572z M141.73,160.921
		c-10.367,0-18.807-8.61-18.807-19.193c0-10.579,8.438-19.19,18.807-19.19s18.805,8.611,18.805,19.19
		C160.535,152.311,152.097,160.921,141.73,160.921z"/>
	<path fill="#231F20" d="M141.73,71.039c-74.361,0-134.646,31.652-134.646,70.69c0,39.041,60.283,70.692,134.646,70.692
		c74.363,0,134.646-31.651,134.646-70.689C276.375,102.691,216.089,71.039,141.73,71.039z M141.73,191.887
		c-27.102,0-49.147-22.502-49.147-50.159c0-27.655,22.046-50.156,49.147-50.156c27.1,0,49.148,22.501,49.148,50.156
		C190.878,169.385,168.83,191.887,141.73,191.887z"/>
	<path fill="#231F20" d="M141.73,122.538c-10.367,0-18.807,8.611-18.807,19.19c0,10.581,8.438,19.193,18.807,19.193
		s18.805-8.61,18.805-19.193C160.535,131.149,152.097,122.538,141.73,122.538z"/>
</g>
</svg>
