<?xml version="1.0" encoding="utf-8"?>
<!-- Generator: Adobe Illustrator 15.1.0, SVG Export Plug-In . SVG Version: 6.00 Build 0)  -->
<!DOCTYPE svg PUBLIC "-//W3C//DTD SVG 1.1//EN" "http://www.w3.org/Graphics/SVG/1.1/DTD/svg11.dtd">
<svg version="1.1" id="Layer_1" xmlns:serif="http://www.serif.com/"
	 xmlns="http://www.w3.org/2000/svg" xmlns:xlink="http://www.w3.org/1999/xlink" x="0px" y="0px" width="283.46px"
	 height="283.46px" viewBox="0 0 283.46 283.46" enable-background="new 0 0 283.46 283.46" xml:space="preserve">
<g>
	<path fill="none" d="M118.175,88.267L74.479,195.193h21.076l8.567-22.105h43.696l8.398,22.105h22.447L134.967,88.267H118.175z
		 M111.319,154.582l14.738-38.213h0.342l14.394,38.213H111.319z"/>
	<polygon fill="none" points="90.307,131.619 45.07,131.619 45.07,107.63 94.763,107.63 94.763,88.267 23.65,88.267 23.65,195.193 
		45.07,195.193 45.07,150.812 90.307,150.812 	"/>
	<path fill="none" d="M248.158,97.263c-7.768-6.683-18.85-10.025-33.242-10.025c-14.395,0-25.477,3.343-33.244,10.025
		c-7.768,6.684-11.652,16.309-11.652,28.875v31.184c0,11.197,3.115,20.078,9.34,26.648c6.225,6.567,15.166,10.479,26.818,11.737
		c1.256,9.367,4.939,16.506,11.053,21.419c6.109,4.912,14.594,7.367,25.445,7.367c5.482,0,9.766-0.628,12.852-1.884v-17.993
		c-1.484,0.571-3.314,1.029-5.484,1.371c-2.172,0.343-4.055,0.516-5.654,0.516c-5.254,0-9.453-0.973-12.596-2.914
		c-3.141-1.942-5.111-4.627-5.912-8.055c10.969-1.598,19.363-5.653,25.189-12.164c5.826-6.514,8.74-15.193,8.74-26.049v-31.184
		C259.81,113.572,255.925,103.947,248.158,97.263z M238.39,157.322c0,6.627-1.855,11.455-5.568,14.48
		c-3.713,3.027-9.682,4.541-17.906,4.541s-14.195-1.514-17.908-4.541c-3.711-3.025-5.568-7.854-5.568-14.48v-31.184
		c0-6.627,1.857-11.455,5.568-14.48c3.713-3.027,9.684-4.541,17.908-4.541s14.193,1.514,17.906,4.541
		c3.713,3.025,5.568,7.854,5.568,14.48V157.322z"/>
	<path d="M268.792,5.451H14.668c-5.091,0-9.217,4.127-9.217,9.217v254.125c0,5.089,4.125,9.217,9.217,9.217h254.124
		c5.09,0,9.217-4.128,9.217-9.217V14.668C278.009,9.579,273.882,5.451,268.792,5.451z M45.07,195.193H23.65V88.267h71.113v19.363
		H45.07v23.988h45.236v19.193H45.07V195.193z M156.216,195.193l-8.398-22.105h-43.696l-8.567,22.105H74.479l43.696-106.926h16.792
		l43.697,106.926H156.216z M259.81,157.322c0,10.855-2.914,19.535-8.74,26.049c-5.826,6.511-14.221,10.566-25.189,12.164
		c0.801,3.428,2.771,6.112,5.912,8.055c3.143,1.941,7.342,2.914,12.596,2.914c1.6,0,3.482-0.173,5.654-0.516
		c2.17-0.342,4-0.8,5.484-1.371v17.993c-3.086,1.256-7.369,1.884-12.852,1.884c-10.852,0-19.336-2.455-25.445-7.367
		c-6.113-4.913-9.797-12.052-11.053-21.419c-11.652-1.259-20.594-5.17-26.818-11.737c-6.225-6.57-9.34-15.451-9.34-26.648v-31.184
		c0-12.566,3.885-22.191,11.652-28.875c7.768-6.683,18.85-10.025,33.244-10.025c14.393,0,25.475,3.343,33.242,10.025
		c7.768,6.684,11.652,16.309,11.652,28.875V157.322z"/>
	<path d="M232.822,111.658c-3.713-3.027-9.682-4.541-17.906-4.541s-14.195,1.514-17.908,4.541c-3.711,3.025-5.568,7.854-5.568,14.48
		v31.184c0,6.627,1.857,11.455,5.568,14.48c3.713,3.027,9.684,4.541,17.908,4.541s14.193-1.514,17.906-4.541
		c3.713-3.025,5.568-7.854,5.568-14.48v-31.184C238.39,119.511,236.535,114.683,232.822,111.658z"/>
	<polygon points="126.057,116.369 111.319,154.582 140.793,154.582 126.399,116.369 	"/>
</g>
</svg>
