<?xml version="1.0" encoding="UTF-8" standalone="no"?><!DOCTYPE svg PUBLIC "-//W3C//DTD SVG 1.1//EN" "http://www.w3.org/Graphics/SVG/1.1/DTD/svg11.dtd"><svg width="100%" height="100%" viewBox="0 0 130 125" version="1.1" xmlns="http://www.w3.org/2000/svg" xmlns:xlink="http://www.w3.org/1999/xlink" xml:space="preserve" xmlns:serif="http://www.serif.com/" style="fill-rule:evenodd;clip-rule:evenodd;stroke-linejoin:round;stroke-miterlimit:2;"><rect id="faq" x="3.913" y="0" width="125" height="125" style="fill:none;"/><clipPath id="_clip1"><rect x="3.913" y="0" width="125" height="125"/></clipPath><g clip-path="url(#_clip1)"><path d="M128.913,4.227c-0,-2.334 -1.893,-4.227 -4.227,-4.227c-17.99,0 -98.556,0 -116.546,0c-2.335,-0 -4.227,1.893 -4.227,4.227c-0,13.344 -0,103.202 -0,116.546c-0,2.334 1.892,4.227 4.227,4.227c17.99,-0 98.556,-0 116.546,-0c2.334,0 4.227,-1.893 4.227,-4.227c-0,-13.344 -0,-103.202 -0,-116.546Zm-8.347,65.424c0,4.978 -1.336,8.959 -4.008,11.946c-2.672,2.986 -6.522,4.846 -11.552,5.579c0.367,1.572 1.271,2.803 2.711,3.694c1.441,0.89 3.367,1.336 5.777,1.336c0.733,-0 1.597,-0.079 2.593,-0.236c0.995,-0.157 1.834,-0.367 2.515,-0.629l-0,8.252c-1.415,0.576 -3.38,0.864 -5.894,0.864c-4.977,0 -8.868,-1.126 -11.67,-3.379c-2.803,-2.253 -4.493,-5.527 -5.069,-9.823c-5.344,-0.577 -9.444,-2.371 -12.299,-5.383c-2.855,-3.013 -4.283,-7.086 -4.283,-12.221l-0,-14.302c-0,-5.763 1.781,-10.177 5.344,-13.242c3.562,-3.065 8.644,-4.598 15.246,-4.598c6.601,0 11.683,1.533 15.245,4.598c3.563,3.065 5.344,7.479 5.344,13.242l0,14.302Zm-98.483,-22.79l-0,11.002l20.746,0l0,8.802l-20.746,0l-0,20.354l-9.824,0l0,-49.038l32.614,-0l-0,8.88l-22.79,0Zm47.122,30.02l-20.04,0l-3.929,10.138l-9.666,0l20.04,-49.038l7.701,-0l20.04,49.038l-10.295,0l-3.851,-10.138Zm41.538,-21.532c0,-3.039 -0.851,-5.253 -2.554,-6.641c-1.703,-1.388 -4.44,-2.082 -8.212,-2.082c-3.772,-0 -6.51,0.694 -8.213,2.082c-1.702,1.388 -2.554,3.602 -2.554,6.641l0,14.302c0,3.039 0.852,5.253 2.554,6.641c1.703,1.388 4.441,2.082 8.213,2.082c3.772,0 6.509,-0.694 8.212,-2.082c1.703,-1.388 2.554,-3.602 2.554,-6.641l0,-14.302Zm-44.76,13.045l-6.601,-17.525l-0.157,0l-6.759,17.525l13.517,-0Z"/></g></svg>