<?xml version="1.0" encoding="utf-8"?>
<!-- Generator: Adobe Illustrator 15.1.0, SVG Export Plug-In . SVG Version: 6.00 Build 0)  -->
<!DOCTYPE svg PUBLIC "-//W3C//DTD SVG 1.1//EN" "http://www.w3.org/Graphics/SVG/1.1/DTD/svg11.dtd">
<svg version="1.1" id="Layer_2" xmlns="http://www.w3.org/2000/svg" xmlns:xlink="http://www.w3.org/1999/xlink" x="0px" y="0px"
	 width="283.465px" height="283.465px" viewBox="0 0 283.465 283.465" enable-background="new 0 0 283.465 283.465"
	 xml:space="preserve">
<g>
	<path fill="#231F20" d="M141.685,9.73l0.119-0.117C67.447,9.613,7.242,68.711,7.112,141.674H7.087v102.229h0.025
		c0.033,16.546,13.718,29.949,30.595,29.949h104.108c74.369-0.046,134.563-59.138,134.563-132.06
		C276.378,68.83,216.106,9.73,141.685,9.73z M212.769,111.21c-0.623,6.23-6.428,10.713-12.754,9.834
		c-6.322-0.891-10.614-6.779-9.446-12.941c0.106-0.702,0.146-1.807,0.146-3.706c0-13.285-11.08-18.413-21.56-18.413
		c-10.472,0-19.911,8.64-19.927,18.413c0.184,11.305,0,22.521,0,33.808l19.438-0.145c15.181-0.309,15.353,22.113,0.177,22.008
		l-19.611,0.141c-0.047,9.092,0.076,7.448,0.025,12.026c0,0,0.164,11.12-0.176,19.547c-2.345,24.755-23.832,44.538-49.652,44.538
		c-27.373,0-49.918-21.941-49.918-48.854c0.822-27.674,23.32-49.443,51.666-49.194l15.813-0.113v21.965l-15.813,0.143h-0.082
		c-15.574,0.452-28.926,10.831-29.177,27.19c0,14.902,12.276,26.847,27.517,26.847c15.219,0,27.398-10.863,27.398-26.821
		l-0.025-83.196c0.012-1.543,0.062-2.77,0.233-4.474c2.57-20.349,21.126-35.858,42.13-35.858l-0.014,0.043
		c22.613,0,43.957,16.98,43.957,40.406C213.116,106.574,213.132,108.746,212.769,111.21z"/>
</g>
</svg>
