<?xml version="1.0" encoding="utf-8"?>
<!-- Generator: Adobe Illustrator 15.1.0, SVG Export Plug-In . SVG Version: 6.00 Build 0)  -->
<!DOCTYPE svg PUBLIC "-//W3C//DTD SVG 1.1//EN" "http://www.w3.org/Graphics/SVG/1.1/DTD/svg11.dtd">
<svg version="1.1" id="Layer_3" xmlns="http://www.w3.org/2000/svg" xmlns:xlink="http://www.w3.org/1999/xlink" x="0px" y="0px"
	 width="283.46px" height="283.46px" viewBox="0 0 283.46 283.46" enable-background="new 0 0 283.46 283.46" xml:space="preserve">
<g>
	<path d="M242.24,45.385c-3.498-3.499-8.333-5.665-13.674-5.665H56.533c-5.34,0-10.175,2.166-13.676,5.665
		c-3.499,3.501-5.663,8.336-5.663,13.676v111.831c0,2.564,0.508,5.078,1.472,7.402c0.962,2.324,2.379,4.46,4.193,6.274
		c1.812,1.812,3.948,3.229,6.272,4.19c2.325,0.964,4.837,1.472,7.402,1.472h111.785c1.938,10.854,6.164,20.119,12.178,28.122
		c7.408,9.861,17.618,17.805,29.875,24.279c4.047,2.139,9.037,1.195,12.023-2.273c2.988-3.471,3.182-8.543,0.467-12.229
		c-6.64-9.016-12.638-18.046-15.486-27.49c-1.027-3.411-1.617-6.876-1.59-10.406l22.781-0.003c5.341,0,10.176-2.163,13.674-5.662
		c3.502-3.501,5.665-8.336,5.665-13.677V59.062C247.905,53.721,245.742,48.887,242.24,45.385z M209.541,130.36
		c-0.52,2.034-1.592,4.129-3.307,6.019c1.262,2.832,1.47,5.898,0.737,8.758c-0.563,2.188-1.741,4.436-3.685,6.412
		c0.934,2.559,0.947,5.214,0.398,7.661c-1.355,6.063-7.07,11.136-13.135,11.626c-0.17,0.014-0.342,0.023-0.514,0.023H133.09
		c-1.32,0-2.615-0.37-3.735-1.068l-4.966-3.092l-3.039-0.033c-0.649,3.238-3.511,5.68-6.939,5.68H79.795
		c-3.909,0-7.077-3.17-7.077-7.079v-52.551c0-3.907,3.168-7.077,7.077-7.077h34.616c3.157,0,5.833,2.068,6.744,4.925
		c0.719-0.286,1.706-0.724,2.712-1.315c0.85-0.499,1.771-1.088,2.367-1.9c1.47-2,5.665-7.937,9.615-13.951
		c3.104-4.73,6.098-9.479,7.214-12.15l0.24-18.221c0.115-1.043,0.496-2.51,1.725-4c0.806-0.973,2.77-2.653,5.704-3.633
		c3.352-1.118,8.103-1.481,12.921,1.186c2.367,1.311,4.855,4.356,6.483,8.633c1.862,4.889,3.009,11.615,3.472,15.441
		c0.367,3.039-0.834,11.109-2.077,17.618c10.028-0.209,25.198-0.368,29.985,0.299c3.393,0.474,6.395,1.857,8.471,4.694
		c1.324,1.81,2.414,4.386,2.395,8.311c-0.023,4-1.361,7.361-3.617,10.076C210.076,124.439,210.271,127.494,209.541,130.36z"/>
	<path fill="#FFFFFF" d="M209.988,103.263c-2.076-2.837-5.078-4.22-8.471-4.694c-4.787-0.667-19.957-0.508-29.985-0.299
		c1.243-6.508,2.444-14.579,2.077-17.618c-0.463-3.826-1.609-10.552-3.472-15.441c-1.628-4.276-4.116-7.322-6.483-8.633
		c-4.818-2.667-9.569-2.304-12.921-1.186c-2.935,0.979-4.898,2.66-5.704,3.633c-1.229,1.49-1.609,2.957-1.725,4l-0.24,18.221
		c-1.116,2.671-4.11,7.42-7.214,12.15c-3.951,6.014-8.146,11.951-9.615,13.951c-0.596,0.812-1.517,1.402-2.367,1.9
		c-1.007,0.592-1.994,1.03-2.712,1.315c-0.912-2.857-3.587-4.925-6.744-4.925H79.795c-3.909,0-7.077,3.17-7.077,7.077v52.551
		c0,3.909,3.168,7.079,7.077,7.079h34.616c3.429,0,6.291-2.441,6.939-5.68l3.039,0.033l4.966,3.092
		c1.12,0.698,2.415,1.068,3.735,1.068h56.946c0.172,0,0.344-0.01,0.514-0.023c6.064-0.49,11.779-5.563,13.135-11.626
		c0.549-2.447,0.535-5.103-0.398-7.661c1.943-1.977,3.122-4.225,3.685-6.412c0.732-2.859,0.524-5.926-0.737-8.758
		c1.715-1.889,2.787-3.984,3.307-6.019c0.73-2.866,0.535-5.921-0.775-8.71c2.256-2.715,3.594-6.075,3.617-10.076
		C212.402,107.649,211.312,105.073,209.988,103.263z M114.411,165.266H79.795v-52.551h34.616V165.266z M197.819,120.7
		c7.485,3.36,6.619,11.411-2.47,14.295c7.207,3.692,6.818,12.007-2.912,14.764c8.49,4.639,3.416,13.548-2.457,14.021
		c-4.842,0.039-56.885,0-56.885,0l-6.683-4.158h-4.363V117.75c0,0,6.803-2.009,9.889-6.211c3.089-4.202,17.97-25.43,18.185-29.341
		c0.215-3.91,0.188-18.153,0.215-18.382c0.09-0.805,4.926-3.792,9.891-1.043c3.714,2.057,5.721,13.475,6.355,18.731
		c0.588,4.864-3.645,24.054-4.045,24.074c-0.057,0.005,30.874-0.989,38.002,0.005c2.52,0.349,4.789,1.388,4.764,5.957
		S202.222,119.198,197.819,120.7z"/>
	<rect x="79.795" y="112.715" width="34.616" height="52.551"/>
	<path d="M200.541,105.581c-7.128-0.994-38.059,0-38.002-0.005c0.4-0.02,4.633-19.209,4.045-24.074
		c-0.635-5.256-2.642-16.674-6.355-18.731c-4.965-2.748-9.801,0.238-9.891,1.043c-0.026,0.229,0,14.472-0.215,18.382
		c-0.215,3.912-15.096,25.139-18.185,29.341c-3.086,4.202-9.889,6.211-9.889,6.211v41.873h4.363l6.683,4.158
		c0,0,52.043,0.039,56.885,0c5.873-0.474,10.947-9.383,2.457-14.021c9.73-2.757,10.119-11.072,2.912-14.764
		c9.089-2.885,9.955-10.935,2.47-14.295c4.403-1.501,7.46-4.592,7.485-9.162S203.06,105.93,200.541,105.581z"/>
</g>
</svg>
