<?xml version="1.0" encoding="utf-8"?>
<!-- Generator: Adobe Illustrator 15.1.0, SVG Export Plug-In . SVG Version: 6.00 Build 0)  -->
<!DOCTYPE svg PUBLIC "-//W3C//DTD SVG 1.1//EN" "http://www.w3.org/Graphics/SVG/1.1/DTD/svg11.dtd">
<svg version="1.1" id="Layer_1" xmlns="http://www.w3.org/2000/svg" xmlns:xlink="http://www.w3.org/1999/xlink" x="0px" y="0px"
	 width="283.465px" height="283.465px" viewBox="0 0 283.465 283.465" enable-background="new 0 0 283.465 283.465"
	 xml:space="preserve">
<g>
	<polygon fill="none" points="234.841,65 189.541,21.759 189.616,65 	"/>
	<path d="M244.928,60.782L193.867,9.723c-1.694-1.687-3.983-2.637-6.371-2.637H44.91c-4.973,0-9.002,4.034-9.002,9.005v251.285
		c0,4.97,4.029,9.001,9.002,9.001h193.646c4.973,0,9-4.031,9-9.001V67.146C247.557,64.759,246.607,62.469,244.928,60.782z
		 M234.841,65h-45.225l-0.075-43.241L234.841,65z M48.499,136.93h11.093v23.823H48.499V136.93z M48.499,195.163v-23.792v-0.031
		h11.093v0.031v23.792v0.03H48.499V195.163z M48.499,205.782h11.093v23.822H48.499V205.782z M67.602,259.202h-6.098
		c-7.171,0-13.005-5.834-13.005-13.005v-6.004h11.093v6.004c0,1.056,0.858,1.912,1.913,1.912h6.098V259.202z M102.013,259.202H78.19
		v-11.093h23.823V259.202L102.013,259.202L102.013,259.202z M136.425,259.202h-23.823v-11.093h23.823V259.202z M170.836,259.202
		h-23.822v-11.093h23.822V259.202z M205.247,259.202h-23.823v-11.093h23.823V259.202z M234.965,246.197
		c0.001,7.172-5.833,13.005-13.003,13.005h-6.128v-11.093h6.128c1.054,0,1.91-0.858,1.91-1.912v-5.976h11.093V246.197z
		 M234.966,229.633h-11.093V205.81h11.093V229.633z M234.966,171.399v23.794v0.027h-11.093v-0.027v-23.794v-0.028h11.093V171.399z
		 M234.966,160.781h-11.093v-23.823h11.093V160.781z"/>
	
		<line fill="none" stroke="#FFFFFF" stroke-width="0" stroke-linecap="round" stroke-linejoin="round" x1="102.014" y1="259.202" x2="102.013" y2="259.202"/>
</g>
</svg>
