<?xml version="1.0" encoding="utf-8"?>
<!-- Generator: Adobe Illustrator 15.1.0, SVG Export Plug-In . SVG Version: 6.00 Build 0)  -->
<!DOCTYPE svg PUBLIC "-//W3C//DTD SVG 1.0//EN" "http://www.w3.org/TR/2001/REC-SVG-20010904/DTD/svg10.dtd">
<svg version="1.0" id="Layer_2" xmlns="http://www.w3.org/2000/svg" xmlns:xlink="http://www.w3.org/1999/xlink" x="0px" y="0px"
	 width="283.465px" height="283.465px" viewBox="0 0 283.465 283.465" enable-background="new 0 0 283.465 283.465"
	 xml:space="preserve">
<g>
	<path fill="none" d="M181.913,64.79V21.409H51.14v240.649h181.189v-0.002h0.002V71.821h-43.39
		C185.059,71.821,181.913,68.674,181.913,64.79z"/>
	<path d="M248.186,58.227L195.514,5.556c-1.748-1.74-4.109-2.72-6.572-2.72H41.853c-5.13,0-9.286,4.161-9.286,9.29v259.22
		c0,5.127,4.156,9.285,9.286,9.285h199.76c5.13,0,9.285-4.158,9.285-9.285V64.791C250.898,62.329,249.919,59.967,248.186,58.227z
		 M232.331,262.057h-0.002v0.002H51.14V21.409h130.773V64.79c0,3.884,3.146,7.031,7.028,7.031h43.39V262.057z M240.566,63.694
		c-0.456,1.138-1.559,1.884-2.785,1.884h-46.653c-1.655,0-2.997-1.34-3-2.995l-0.077-44.607c-0.002-1.202,0.713-2.289,1.817-2.763
		c0.381-0.163,0.783-0.243,1.182-0.243c0.758,0,1.503,0.287,2.072,0.83l46.73,44.607C240.739,61.255,241.022,62.556,240.566,63.694z
		"/>
	<path d="M193.122,15.801c-0.569-0.543-1.314-0.83-2.072-0.83c-0.398,0-0.801,0.08-1.182,0.243
		c-1.104,0.474-1.819,1.561-1.817,2.763l0.077,44.607c0.003,1.655,1.345,2.995,3,2.995h46.653c1.227,0,2.329-0.746,2.785-1.884
		s0.173-2.439-0.714-3.286L193.122,15.801z M191.128,62.578l-0.077-44.607l46.73,44.607H191.128z"/>
</g>
</svg>
