<?xml version="1.0" encoding="utf-8"?>
<!-- Generator: Adobe Illustrator 15.1.0, SVG Export Plug-In . SVG Version: 6.00 Build 0)  -->
<!DOCTYPE svg PUBLIC "-//W3C//DTD SVG 1.1//EN" "http://www.w3.org/Graphics/SVG/1.1/DTD/svg11.dtd">
<svg version="1.1" id="Layer_2" xmlns="http://www.w3.org/2000/svg" xmlns:xlink="http://www.w3.org/1999/xlink" x="0px" y="0px"
	 width="283.465px" height="283.465px" viewBox="0 0 283.465 283.465" enable-background="new 0 0 283.465 283.465"
	 xml:space="preserve">
<g>
	<path d="M244.928,60.783L193.867,9.724c-1.694-1.687-3.983-2.637-6.371-2.637H44.911c-4.973,0-9.002,4.034-9.002,9.005v251.285
		c0,4.971,4.029,9.001,9.002,9.001h193.646c4.973,0,9-4.03,9-9.001V67.146C247.557,64.76,246.607,62.47,244.928,60.783z
		 M105.774,148.415l-3.432,10.648l-32.577-13.768v-10.228l32.577-13.761l3.432,10.65l-21.097,8.229L105.774,148.415z
		 M135.269,176.068h-13.134l24.895-71.695h12.979L135.269,176.068z M212.379,145.296l-32.575,13.768l-3.433-10.648l21.097-8.23
		l-21.097-8.229l3.432-10.65l32.576,13.761V145.296z M189.616,65.001l-0.075-43.241l45.3,43.241H189.616z"/>
	<path fill="#FFFFFF" d="M102.342,121.307l-32.577,13.761v10.228l32.577,13.768l3.432-10.648l-21.097-8.23l21.097-8.229
		L102.342,121.307z M71.766,143.97v-7.576l29.343-12.395l2.184,6.779l-24.12,9.407l24.12,9.41l-2.184,6.775L71.766,143.97z"/>
	<path fill="#FFFFFF" d="M122.135,176.068h13.134l24.739-71.695h-12.979L122.135,176.068z M157.201,106.373l-23.358,67.695h-8.897
		l23.505-67.695H157.201z"/>
	<path fill="#FFFFFF" d="M176.371,131.957l21.097,8.229l-21.097,8.23l3.433,10.648l32.575-13.768v-10.228l-32.576-13.761
		L176.371,131.957z M210.379,136.394v7.576l-29.343,12.4l-2.185-6.775l24.12-9.41l-24.12-9.407l2.186-6.779L210.379,136.394z"/>
</g>
</svg>
