<?xml version="1.0" encoding="utf-8"?>
<!-- Generator: Adobe Illustrator 15.1.0, SVG Export Plug-In . SVG Version: 6.00 Build 0)  -->
<!DOCTYPE svg PUBLIC "-//W3C//DTD SVG 1.1//EN" "http://www.w3.org/Graphics/SVG/1.1/DTD/svg11.dtd">
<svg version="1.1" id="Layer_2" xmlns="http://www.w3.org/2000/svg" xmlns:xlink="http://www.w3.org/1999/xlink" x="0px" y="0px"
	 width="283.465px" height="283.465px" viewBox="0 0 283.465 283.465" enable-background="new 0 0 283.465 283.465"
	 xml:space="preserve">
<g>
	<path d="M267.99,94.26l-236.847,6.718l235.979-18.64l3.695-0.404l-9.029-73.846l-1.785-0.141l-9.963-0.777l-1.096-0.084
		l-1.076,0.196L14.828,50.213l-2.895,0.533v97.617l0.036,0.002v74.164l6.61,1.436l237.793,51.688l3.35,0.727l2.898-1.832l8.91-5.623
		V94.26H267.99z M33.76,102.656h21.186l-9.184,16.988L33.33,103.482L33.76,102.656z M50.537,133.85c0,2.468-1.764,4.367-3.923,4.246
		c-2.149-0.121-3.874-2.19-3.874-4.619c0-2.428,1.729-4.331,3.874-4.241C48.773,129.315,50.537,131.385,50.537,133.85z
		 M249.383,15.541l9.963,0.78l6.148,51.587l-7.805-11.382l-30.479-36.901L249.383,15.541z M189.217,26.627L189.217,26.627
		l41.736,51.224l-38.102,4.169l-37.84-49.092L189.217,26.627z M124.045,38.633l34.523,47.14l-31.006,3.394L95.939,43.813
		L124.045,38.633z M70.271,48.533l29.092,43.715l-25.723,2.81L46.767,52.864L70.271,48.533z M18.379,75.512l-2.033-17.043
		l8.802-1.619l24.929,40.793l-5.145,0.561l-12.414,1.36l-2.641-4.487L18.379,75.512z M27.168,100.438
		c0,2.356-1.611,4.272-3.586,4.295c-1.963,0.009-3.533-1.858-3.533-4.179c0-2.329,1.576-4.241,3.533-4.295
		C25.551,96.211,27.168,98.082,27.168,100.438z M23.582,128.324c1.969,0.081,3.586,2.051,3.586,4.407s-1.611,4.169-3.586,4.054
		c-1.963-0.109-3.533-2.078-3.533-4.398C20.049,130.061,21.619,128.248,23.582,128.324z M267.99,197.684l-8.379,2.164l-65.426-8.107
		v22.984l65.426,10.359l8.379-3.576v6.127l-8.379,3.652L20.358,191.477v-4.256l40.196,6.348v-18.393l-40.196-4.982v-4.254
		l239.253,27.711l8.379-2.102V197.684z M267.99,160.725l-8.379,1.396L20.358,144.66v-4.143l34.79,2.221l3.594-6.215l19.166-33.868
		h22.871l-24.564,41.216l25.705,1.656l26.955-42.872h30.889l-29.686,44.688l30.992,1.998l32.848-46.688h37.963l-36.557,48.898
		l38.082,2.455l26.645-35.402l7.939-13.496V160.725L267.99,160.725z"/>
	<polygon points="64.738,175.697 64.738,194.229 190.025,214.068 190.025,191.225 	"/>
</g>
</svg>
