<?xml version="1.0" encoding="iso-8859-1"?>
<!-- Generator: Adobe Illustrator 15.1.0, SVG Export Plug-In . SVG Version: 6.00 Build 0)  -->
<!DOCTYPE svg PUBLIC "-//W3C//DTD SVG 1.1//EN" "http://www.w3.org/Graphics/SVG/1.1/DTD/svg11.dtd">
<svg version="1.1" id="Layer_4" xmlns="http://www.w3.org/2000/svg" xmlns:xlink="http://www.w3.org/1999/xlink" x="0px" y="0px"
	 width="283.46px" height="283.46px" viewBox="0 0 283.46 283.46" style="enable-background:new 0 0 283.46 283.46;"
	 xml:space="preserve">
<g>
	<path d="M263.326,14.171H20.132c-7.194,0-13.047,5.768-13.047,12.856v229.405c0,7.089,5.853,12.856,13.047,12.856h243.194
		c7.195,0,13.049-5.768,13.049-12.856V27.027C276.375,19.938,270.521,14.171,263.326,14.171z M62.077,247.176
		c0,1.411-1.14,2.555-2.546,2.555H30.606c-1.406,0-2.546-1.144-2.546-2.555v-28.907c0-1.41,1.14-2.554,2.546-2.554h28.924
		c1.406,0,2.546,1.144,2.546,2.554V247.176z M62.077,186.515c0,1.411-1.14,2.555-2.546,2.555H30.606
		c-1.406,0-2.546-1.144-2.546-2.555v-28.907c0-1.41,1.14-2.554,2.546-2.554h28.924c1.406,0,2.546,1.144,2.546,2.554V186.515z
		 M62.077,125.853c0,1.411-1.14,2.554-2.546,2.554H30.606c-1.406,0-2.546-1.144-2.546-2.554V96.945c0-1.41,1.14-2.554,2.546-2.554
		h28.924c1.406,0,2.546,1.144,2.546,2.554V125.853z M62.077,65.191c0,1.411-1.14,2.554-2.546,2.554H30.606
		c-1.406,0-2.546-1.144-2.546-2.554V36.284c0-1.41,1.14-2.554,2.546-2.554h28.924c1.406,0,2.546,1.144,2.546,2.554V65.191z
		 M201.41,246.528c0,1.768-1.253,3.203-2.797,3.203H84.846c-1.544,0-2.796-1.436-2.796-3.203v-88.271
		c0-1.77,1.252-3.203,2.796-3.203h113.767c1.544,0,2.797,1.434,2.797,3.203V246.528z M201.41,125.204
		c0,1.769-1.253,3.203-2.797,3.203H84.846c-1.544,0-2.796-1.435-2.796-3.203V36.934c0-1.77,1.252-3.204,2.796-3.204h113.767
		c1.544,0,2.797,1.434,2.797,3.204V125.204z M255.398,247.176c0,1.41-1.14,2.555-2.546,2.555h-28.925
		c-1.406,0-2.545-1.145-2.545-2.555v-28.908c0-1.41,1.139-2.553,2.545-2.553h28.925c1.406,0,2.546,1.143,2.546,2.553V247.176z
		 M255.398,186.514c0,1.412-1.14,2.555-2.546,2.555h-28.925c-1.406,0-2.545-1.143-2.545-2.555v-28.906
		c0-1.41,1.139-2.554,2.545-2.554h28.925c1.406,0,2.546,1.144,2.546,2.554V186.514z M255.398,125.853c0,1.41-1.14,2.554-2.546,2.554
		h-28.925c-1.406,0-2.545-1.144-2.545-2.554V96.945c0-1.41,1.139-2.554,2.545-2.554h28.925c1.406,0,2.546,1.144,2.546,2.554V125.853
		z M255.398,65.191c0,1.411-1.14,2.554-2.546,2.554h-28.925c-1.406,0-2.545-1.144-2.545-2.554V36.283
		c0-1.41,1.139-2.554,2.545-2.554h28.925c1.406,0,2.546,1.144,2.546,2.554V65.191z"/>
</g>
</svg>
