<?xml version="1.0" encoding="utf-8"?>
<!-- Generator: Adobe Illustrator 15.1.0, SVG Export Plug-In . SVG Version: 6.00 Build 0)  -->
<!DOCTYPE svg PUBLIC "-//W3C//DTD SVG 1.1//EN" "http://www.w3.org/Graphics/SVG/1.1/DTD/svg11.dtd">
<svg version="1.1" id="Layer_1" xmlns="http://www.w3.org/2000/svg" xmlns:xlink="http://www.w3.org/1999/xlink" x="0px" y="0px"
	 width="283.465px" height="283.465px" viewBox="0 0 283.465 283.465" enable-background="new 0 0 283.465 283.465"
	 xml:space="preserve">
<g id="Layer_1_1_">
</g>
<g id="Layer_1_2_">
</g>
<g id="Layer_1_3_">
</g>
<g>
	<path fill="none" d="M141.733,153.413c-17.655,0-32.019,14.364-32.019,32.021c0,17.653,14.364,32.018,32.019,32.019
		c17.656,0,32.02-14.365,32.02-32.019C173.753,167.777,159.389,153.413,141.733,153.413z M141.732,211.535
		c-14.393,0-26.102-11.709-26.102-26.102c0-14.395,11.709-26.104,26.102-26.104c14.394,0,26.102,11.709,26.102,26.104
		C167.834,199.825,156.126,211.535,141.732,211.535z"/>
	<path fill="none" d="M49.756,60.163c-17.656,0-32.02,14.364-32.02,32.019c0,17.655,14.364,32.019,32.02,32.019
		c17.656,0,32.019-14.364,32.019-32.019C81.775,74.527,67.412,60.163,49.756,60.163z M49.756,118.284
		c-14.393,0-26.103-11.708-26.103-26.101c0-14.394,11.71-26.104,26.103-26.104c14.392,0,26.1,11.71,26.101,26.103
		C75.857,106.575,64.149,118.284,49.756,118.284z"/>
	<path fill="none" d="M233.709,61.17c-17.654,0-32.02,14.364-32.02,32.019c0,17.655,14.365,32.019,32.02,32.019
		c17.656,0,32.02-14.364,32.02-32.019C265.729,75.534,251.363,61.17,233.709,61.17z M233.709,119.291
		c-14.393,0-26.102-11.709-26.102-26.101c0-14.395,11.709-26.104,26.102-26.104c14.395,0,26.102,11.71,26.102,26.103
		C259.811,107.581,248.104,119.291,233.709,119.291z"/>
	<path d="M55.081,49.856v-20.44v-5.907c0-2.94-2.385-5.325-5.325-5.325s-5.325,2.385-5.325,5.325v5.907v20.44
		C23.408,52.487,7.087,70.458,7.087,92.182c0,21.723,16.321,39.693,37.344,42.324v14.502v6.489v78.21v20.061v6.188
		c0,2.942,2.385,5.325,5.325,5.325s5.325-2.383,5.325-5.325v-6.188v-20.061v-78.21v-6.489v-14.502
		c21.022-2.631,37.344-20.601,37.344-42.324C92.425,70.457,76.103,52.487,55.081,49.856z M49.756,124.201
		c-17.656,0-32.02-14.364-32.02-32.019c0-17.655,14.364-32.019,32.02-32.019c17.656,0,32.019,14.364,32.019,32.019
		C81.775,109.837,67.412,124.201,49.756,124.201z"/>
	<path d="M49.756,66.079c-14.393,0-26.103,11.71-26.103,26.104c0,14.393,11.71,26.101,26.103,26.101s26.101-11.709,26.101-26.102
		C75.856,77.789,64.148,66.079,49.756,66.079z"/>
	<path d="M147.057,143.107v-10.787v-7.417v-73.13h0.002V23.509c0-2.94-2.386-5.325-5.326-5.325s-5.325,2.385-5.325,5.325v11.47
		h-0.001v89.925v7.417v10.787c-21.021,2.631-37.344,20.601-37.344,42.326c0,21.723,16.322,39.692,37.344,42.323v5.95v20.061v6.188
		c0,2.942,2.385,5.325,5.325,5.325s5.325-2.383,5.325-5.325v-6.188v-20.061v-5.95c21.023-2.631,37.346-20.603,37.346-42.323
		C184.402,163.707,168.08,145.738,147.057,143.107z M141.733,217.452c-17.655-0.001-32.019-14.365-32.019-32.019
		c0-17.656,14.364-32.021,32.019-32.021c17.656,0,32.02,14.364,32.02,32.021C173.753,203.087,159.389,217.452,141.733,217.452z"/>
	<path d="M141.732,159.33c-14.393,0-26.102,11.709-26.102,26.104c0,14.393,11.709,26.102,26.102,26.102
		c14.394,0,26.102-11.71,26.102-26.102C167.834,171.039,156.126,159.33,141.732,159.33z"/>
	<path d="M239.034,50.864V29.416v-5.907c0-2.94-2.386-5.325-5.325-5.325s-5.325,2.385-5.325,5.325v5.907v21.448
		c-21.021,2.631-37.344,20.601-37.344,42.325s16.321,39.694,37.344,42.325v13.494v2.781v81.918v20.061v6.188
		c0,2.942,2.386,5.325,5.325,5.325s5.325-2.383,5.325-5.325v-6.188v-20.061v-81.918v-2.781v-13.494
		c21.022-2.631,37.344-20.601,37.344-42.325S260.057,53.495,239.034,50.864z M233.709,125.208c-17.654,0-32.02-14.364-32.02-32.019
		c0-17.655,14.365-32.019,32.02-32.019s32.02,14.364,32.02,32.019C265.729,110.844,251.365,125.208,233.709,125.208z"/>
	<path d="M233.709,67.086c-14.393,0-26.102,11.709-26.102,26.104c0,14.392,11.709,26.101,26.102,26.101
		c14.395,0,26.102-11.71,26.102-26.102C259.811,78.796,248.104,67.086,233.709,67.086z"/>
</g>
</svg>
