<?xml version="1.0" encoding="utf-8"?>
<!-- Generator: Adobe Illustrator 15.1.0, SVG Export Plug-In . SVG Version: 6.00 Build 0)  -->
<!DOCTYPE svg PUBLIC "-//W3C//DTD SVG 1.0//EN" "http://www.w3.org/TR/2001/REC-SVG-20010904/DTD/svg10.dtd">
<svg version="1.0" id="Layer_2" xmlns="http://www.w3.org/2000/svg" xmlns:xlink="http://www.w3.org/1999/xlink" x="0px" y="0px"
	 width="283.46px" height="283.46px" viewBox="0 0 283.46 283.46" enable-background="new 0 0 283.46 283.46" xml:space="preserve">
<path d="M221.977,62.063c-0.866-1.502-2.47-2.427-4.204-2.427H65.687c-1.734,0-3.336,0.925-4.203,2.427s-0.867,3.353,0,4.854
	l60.328,104.49c-0.082,0.772-0.14,1.557-0.14,2.363v29.856c0,2.441,1.374,4.677,3.555,5.776l27.171,13.726
	c0.919,0.464,1.919,0.695,2.918,0.695c1.179,0,2.354-0.322,3.391-0.96c1.915-1.178,3.081-3.264,3.081-5.512v-43.582
	c0-0.805-0.057-1.588-0.139-2.359l60.328-104.494C222.844,65.415,222.844,63.564,221.977,62.063z"/>
</svg>
