<?xml version="1.0" encoding="utf-8"?>
<!-- Generator: Adobe Illustrator 15.1.0, SVG Export Plug-In . SVG Version: 6.00 Build 0)  -->
<!DOCTYPE svg PUBLIC "-//W3C//DTD SVG 1.0//EN" "http://www.w3.org/TR/2001/REC-SVG-20010904/DTD/svg10.dtd">
<svg version="1.0" id="Layer_2" xmlns="http://www.w3.org/2000/svg" xmlns:xlink="http://www.w3.org/1999/xlink" x="0px" y="0px"
	 width="283.46px" height="283.46px" viewBox="0 0 283.46 283.46" enable-background="new 0 0 283.46 283.46" xml:space="preserve">
<path d="M258.293,26.008c-1.258-2.182-3.588-3.525-6.106-3.525H31.271c-2.518,0-4.845,1.344-6.105,3.525
	c-1.259,2.182-1.259,4.87,0,7.051l87.631,151.78c-0.119,1.12-0.204,2.261-0.204,3.431v43.368c0,3.546,1.996,6.795,5.164,8.39
	l39.466,19.939c1.336,0.674,2.788,1.01,4.239,1.01c1.713,0,3.419-0.468,4.925-1.396c2.783-1.71,4.477-4.74,4.477-8.006v-63.306
	c0-1.169-0.083-2.307-0.202-3.428l87.631-151.783C259.553,30.877,259.553,28.189,258.293,26.008z"/>
</svg>
