<?xml version="1.0" encoding="utf-8"?>
<!-- Generator: Adobe Illustrator 15.1.0, SVG Export Plug-In . SVG Version: 6.00 Build 0)  -->
<!DOCTYPE svg PUBLIC "-//W3C//DTD SVG 1.0//EN" "http://www.w3.org/TR/2001/REC-SVG-20010904/DTD/svg10.dtd">
<svg version="1.0" xmlns="http://www.w3.org/2000/svg" xmlns:xlink="http://www.w3.org/1999/xlink" x="0px" y="0px"
	 width="283.46px" height="283.46px" viewBox="0 0 283.46 283.46" enable-background="new 0 0 283.46 283.46" xml:space="preserve">
<g id="Layer_3">
</g>
<g id="Layer_2">
	<path d="M266.976,9.441c-1.029-0.595-2.3-0.595-3.329,0l-30.604,17.67h-39.514c-3.544,0-6.629,1.587-8.241,3.93
		c-0.378-0.045-0.794-0.07-1.258-0.07c-1.346,0-3.028,0.188-5.191,0.579h-40.934l-1.94-0.266c-0.143-13.389-11.036-24.2-24.459-24.2
		c-11.147,0-20.546,7.458-23.497,17.653l-9.623-1.313c-0.05-0.007-0.1-0.01-0.15-0.01c-2.047,0-4.001,0.585-5.682,1.666
		c-0.71-0.598-1.733-0.743-2.6-0.285C44.519,38.224,24.99,60.564,14.965,87.702c-0.391,1.059,0.029,2.246,0.998,2.824l19.674,11.736
		c0.367,0.219,0.782,0.331,1.2,0.331c0.267,0,0.535-0.046,0.792-0.138c0.659-0.236,1.178-0.756,1.414-1.415
		C46.518,80.188,60.226,61.759,77.9,48.639c0.112,0.003,0.222,0.016,0.334,0.016c0.16,0,0.317-0.034,0.462-0.101l11.369-5.213
		c4.164,7.555,12.202,12.674,21.438,12.674c3.778,0,7.355-0.857,10.55-2.387v1.619c-19.827,3.751-34.812,20.938-34.812,41.583
		c0,0.09,0.007,0.178,0.007,0.267c-0.001,0.046-0.007,0.09-0.007,0.136v168.999c0,5.603,4.542,10.145,10.146,10.145h65.605
		c5.604,0,10.145-4.542,10.145-10.145V97.232c0-0.046-0.007-0.09-0.007-0.136c0-0.089,0.007-0.177,0.007-0.267
		c0-20.646-14.983-37.831-34.811-41.582V44.863h46.647c1.497,2.618,4.76,4.438,8.554,4.438h39.514l30.604,17.67
		c0.516,0.297,1.091,0.445,1.665,0.445s1.149-0.148,1.664-0.445c1.029-0.596,1.664-1.694,1.664-2.883V12.324
		C268.64,11.135,268.005,10.036,266.976,9.441z M111.505,15.031c8.664,0,15.757,6.675,16.449,15.16l-31.93-4.359
		C98.353,19.531,104.396,15.031,111.505,15.031z M111.505,48.067c-6.028,0-11.285-3.238-14.169-8.061l6.947-3.186l21.915,2.252
		C123.46,44.409,117.915,48.067,111.505,48.067z"/>
</g>
</svg>
