<?xml version="1.0" encoding="UTF-8" standalone="no"?><!DOCTYPE svg PUBLIC "-//W3C//DTD SVG 1.1//EN" "http://www.w3.org/Graphics/SVG/1.1/DTD/svg11.dtd"><svg width="100%" height="100%" viewBox="0 0 130 125" version="1.1" xmlns="http://www.w3.org/2000/svg" xmlns:xlink="http://www.w3.org/1999/xlink" xml:space="preserve" xmlns:serif="http://www.serif.com/" style="fill-rule:evenodd;clip-rule:evenodd;stroke-linecap:round;stroke-miterlimit:1.25;"><rect id="fire" x="3.804" y="0" width="125" height="125" style="fill:none;"/><g><g><path d="M41.067,88.726l50.473,0" style="fill:none;stroke:#010001;stroke-width:4.17px;"/></g><path d="M85.007,36.298l0.026,-0.021c-0,0 -0.164,14.955 -1.91,29.05c2.146,-2.214 4.49,-4.418 6.676,-6.375c-0.647,2.418 -0.505,4.345 0.499,4.836c1.456,0.712 4.176,-1.859 6.07,-5.736c1.121,-2.293 1.704,-4.533 1.676,-6.128l0.015,-0.012c0,-0 -0.25,22.884 -4.144,30.837c-0.453,0.924 -1.032,1.746 -1.707,2.455l-52.299,0c-2.753,-2.896 -3.566,-7.312 -1.707,-11.109c3.239,-6.615 16.182,-17.571 20.454,-21.064c-0.425,0.576 -0.831,1.251 -1.194,1.994c-1.338,2.739 -1.59,5.372 -0.562,5.874c0.698,0.341 1.807,-0.385 2.858,-1.75l-0.002,0.043c2.632,-2.795 5.513,-5.614 8.359,-8.272c-0.93,4.3 -0.538,7.632 1.314,8.537c2.924,1.429 8.39,-3.736 12.197,-11.527c2.097,-4.29 3.256,-8.487 3.381,-11.632Z"/></g></svg>