<?xml version="1.0" encoding="utf-8"?>
<!-- Generator: Adobe Illustrator 15.1.0, SVG Export Plug-In . SVG Version: 6.00 Build 0)  -->
<!DOCTYPE svg PUBLIC "-//W3C//DTD SVG 1.0//EN" "http://www.w3.org/TR/2001/REC-SVG-20010904/DTD/svg10.dtd">
<svg version="1.0" id="Layer_1" xmlns="http://www.w3.org/2000/svg" xmlns:xlink="http://www.w3.org/1999/xlink" x="0px" y="0px"
	 width="283.465px" height="283.465px" viewBox="-126.732 -126.732 283.465 283.465"
	 enable-background="new -126.732 -126.732 283.465 283.465" xml:space="preserve">
<path d="M8.216-89.206v-27.507c0-3.596,2.922-6.519,6.519-6.519c3.597,0,6.514,2.923,6.514,6.519v27.507
	c4.158,2.302,6.99,6.731,6.99,11.807c0,7.453-6.057,13.488-13.493,13.488c-7.441,0-13.488-6.046-13.488-13.488
	C1.246-82.485,4.068-86.904,8.216-89.206z M-72.958-89.206v-27.507c0-3.596,2.922-6.519,6.513-6.519
	c3.596,0,6.519,2.923,6.519,6.519v27.507c4.164,2.302,6.975,6.731,6.975,11.807c0,7.453-6.042,13.488-13.494,13.488
	c-7.447,0-13.488-6.036-13.488-13.488C-79.933-82.485-77.122-86.904-72.958-89.206z M89.851-89.206v-27.507
	c0-3.596,2.917-6.519,6.524-6.519c3.585,0,6.523,2.923,6.523,6.519v27.507c4.148,2.302,6.97,6.731,6.97,11.807
	c0,7.453-6.047,13.488-13.493,13.488c-7.437,0-13.494-6.046-13.494-13.488C82.86-82.485,85.692-86.904,89.851-89.206z
	 M-58.536-27.864v25.603h-25.603v-25.603H-58.536z M-15.748-27.864v25.603h-25.613v-25.603H-15.748z M85.692-7.814l4.053,8.81
	h28.068v-32.132H85.692V-7.814z M-87.396,0.996h32.132v-32.132h-32.132V0.996z M-1.104-13.071V0.985h32.132V0.767l-3.818-0.01
	l-4.201-1.512L13.78-4.86c-1.458-0.011-3.272-0.217-4.965-0.652c-1.814-0.467-3.484-1.204-4.747-2.01
	c-1.74-1.114-2.976-2.292-4.095-3.83C-0.387-11.83-0.732-12.397-1.104-13.071z M-44.607,0.996h32.132v-32.132h-32.132V0.996z
	 M-1.104,43.879h32.132V11.741H-1.104V43.879z M-87.396,43.879h32.132V11.741h-32.132V43.879z M94.698,11.741l0.849,1.846
	l6.566,15.97l1.921,5.368c0.127,0.297,1.379,3.914,2.821,8.932h10.958V11.731H94.698V11.741z M-44.607,42.319
	c2.541-0.456,5.171-0.689,7.845-0.689c4.875,0,9.568,0.785,13.966,2.249h10.321V11.741h-32.132V42.319z M109.593,54.721
	c0.997,4.667,1.739,9.398,1.931,13.387c0.17,3.861,0.138,7.639-0.106,11.224c-0.148,2.609-0.414,5.113-0.753,7.511h7.149V54.721
	H109.593L109.593,54.721z M-68.354,54.721h-19.042v32.143h5.67c0.032-12.412,5.018-23.646,13.048-31.814L-68.354,54.721z
	 M-4.859,64.002c5.797-2.854,12.619-4.486,19.912-4.486c12.709,0,23.985,4.996,30.976,12.687c0.043,0.011,0.063,0.021,0.085,0.032
	c1.294,1.22,2.674,2.43,4.201,1.687c1.538-0.7,1.58-4.985,1.58-8.412c0-2.09,0.944-10.428,1.411-16.665
	c0.838-11.287,0.785-22.129-0.764-31.697c-1.581-9.558-8.55-23.635-10.057-25.852c-1.527-2.212-2.801-1.337-2.801-1.337
	s-9.621,0.297-10.354,0.154c-0.764-0.154-0.806-0.271-1.676-0.684c-0.849-0.414-11.431-5.097-11.431-5.097s-0.955-0.106-2.121-0.053
	c-1.151,0.053-3.125-0.271-4.169-0.944c-1.056-0.674-1.501-1.379-2.196-3.172c-0.695-1.804-0.249-3.702,0.218-4.758
	c0.467-1.045,1.554-1.724,2.609-1.793c-0.249-1.475-2.132-4.933-2.609-6.004c-0.467-1.087-0.849-1.804-0.849-4.333
	c0-2.249,1.013-2.891,2.578-4.445c3.357-3.315,16.018-12.491,19.179-14.512c3.183-2.021,5.028-1.925,5.781-1.883
	c0.754,0.048,1.38,0.631,3.321,1.883c1.951,1.247,3.437,2.117,12.814,10.316c9.377,8.206,10.735,10.646,12.093,13.462
	c1.379,2.801,0.849,2.127,1.443,3.93c0.604,1.804,8.55,18.426,9.44,20.219c0.913,1.788,11.001,23.375,11.521,24.881
	c0.521,1.507,6.174,14.873,6.599,16.061c0.424,1.188,0.955,3.235,2.228,6.11c0.255,0.615,6.078,18.268,6.556,29.268
	c0.318,7.299-0.19,14.162-1.326,20.071l0,0c-0.308,1.687-0.689,3.808-0.467,5.749c0.224,1.941,0.711,6.673-0.223,8.667
	c-0.954,1.974-2.313,3.586-4.01,4.35c-16.484,7.404-20.877,7.808-35.855,10.576s-39.61,4.36-49.105,4.296
	c-9.494-0.063-47.917-0.731-48.538-0.891c-17.832-1.071-32-16.071-32-34.413c0-19.03,15.281-34.477,34.1-34.477
	c9.59,0,18.257,4.011,24.462,10.46c-4.174,3.416-7.585,7.967-9.951,13.939c-5.055,12.751,0.488,12.411,4.689,1.803
	C-14.798,71.735-10.359,67.025-4.859,64.002z M74.373,129.72v-3.649c-3.84,0.849-8.03,1.592-13.6,2.61
	c-1.994,0.36-4.137,0.7-6.386,1.039H74.373z M-80.489,97.588h-6.906v32.132h32.132v-1.4c-5.442-2.482-10.322-6.047-14.364-10.396
	C-74.841,112.301-78.654,105.321-80.489,97.588z M110.017,97.588h7.797v32.132H85.692v-6.896c1.04-0.36,2.111-0.764,3.257-1.198
	v4.826h25.607v-25.607h-4.519C110.08,99.794,110.06,98.681,110.017,97.588z M30.18-67.947c1.687-2.753,2.663-5.988,2.663-9.452
	c0-5.802-2.727-10.963-6.991-14.284c0,0,0.021-4.54,0.021-9.765h59.363v9.765c-4.243,3.31-6.98,8.481-6.98,14.284
	c0,9.993,8.104,18.108,18.098,18.108s18.119-8.115,18.119-18.108c0-5.802-2.737-10.963-6.991-14.284c0,0,0.011-4.54,0.011-9.765
	h16.569c11.712,0,21.195,9.489,21.195,21.189c0,47.907,0,164.15,0,212.82c0,5.824-2.313,11.436-6.438,15.552
	c-4.127,4.138-9.729,6.45-15.552,6.45c-49.169,0-167.481,0-216.65,0c-5.829,0-11.425-2.313-15.551-6.45
	c-4.132-4.116-6.444-9.728-6.444-15.552c0-48.67,0-164.914,0-212.82c0-11.701,9.494-21.189,21.195-21.189h16.586v9.765
	c-4.211,3.31-6.954,8.481-6.954,14.284c0,9.993,8.115,18.108,18.108,18.108c9.998,0,18.108-8.115,18.108-18.108
	c0-5.802-2.727-10.963-6.98-14.284c0,0,0-4.54,0-9.765H3.591v9.765c-4.249,3.31-6.986,8.481-6.986,14.284
	c0,9.993,8.115,18.108,18.108,18.108c0.143,0,0.281,0,0.424,0c-1.512,1.108-3.077,2.259-4.572,3.41
	c-3.649,2.758-6.954,5.453-8.518,7.007c-0.769,0.759-1.443,1.454-2.032,2.106h-93.203c-5.039,0-9.123,4.084-9.123,9.139
	c0,31.888,0,138.134,0,170.022c0,5.049,4.084,9.133,9.123,9.133c37.426,0,178.869,0,216.295,0c5.049,0,9.145-4.084,9.145-9.133
	c0-31.889,0-138.134,0-170.022c0-5.044-4.096-9.139-9.145-9.139H65.208c-1.782-1.804-4.116-3.994-7.256-6.757
	c-4.562-3.973-7.341-6.301-9.208-7.776c-2.504-2-3.617-2.684-4.88-3.485c-1.867-1.199-2.906-1.904-3.691-2.286
	c-1.719-0.843-3.246-1.204-4.837-1.299C34.381-68.44,32.662-68.546,30.18-67.947z"/>
</svg>
