<?xml version="1.0" encoding="utf-8"?>
<!-- Generator: Adobe Illustrator 15.1.0, SVG Export Plug-In . SVG Version: 6.00 Build 0)  -->
<!DOCTYPE svg PUBLIC "-//W3C//DTD SVG 1.1//EN" "http://www.w3.org/Graphics/SVG/1.1/DTD/svg11.dtd">
<svg version="1.1" xmlns="http://www.w3.org/2000/svg" xmlns:xlink="http://www.w3.org/1999/xlink" x="0px" y="0px"
	 width="283.46px" height="283.46px" viewBox="0 0 283.46 283.46" enable-background="new 0 0 283.46 283.46" xml:space="preserve">
<g id="Layer_1" xmlns:serif="http://www.serif.com/">
</g>
<g id="Layer_2">
	<g>
		<path d="M245.023,178.001c-0.619-13.915-7.968-36.254-8.313-37.037c-1.604-3.646-2.273-6.243-2.806-7.741
			s-7.694-18.405-8.354-20.311c-0.659-1.904-13.43-29.216-14.565-31.484c-1.137-2.27-11.199-23.3-11.955-25.579
			c-0.76-2.276-0.068-1.426-1.811-4.974c-1.742-3.549-3.465-6.657-15.315-17.025c-11.849-10.368-13.739-11.469-16.2-13.052
			c-2.463-1.583-3.245-2.311-4.202-2.372c-0.955-0.059-3.308-0.186-7.319,2.372c-4.013,2.558-20.021,14.173-24.271,18.364
			c-1.988,1.962-3.26,2.785-3.26,5.619c0,3.216,0.476,4.124,1.069,5.491c0.595,1.365,2.98,5.728,3.292,7.597
			c-1.333,0.078-2.7,0.938-3.292,2.263c-0.593,1.328-1.156,3.739-0.277,6.009c0.881,2.268,1.446,3.16,2.771,4.005
			c1.324,0.846,3.825,1.265,5.283,1.197c1.459-0.07,2.671,0.067,2.671,0.067s13.383,5.922,14.479,6.441
			c1.094,0.517,1.152,0.674,2.098,0.861c0.943,0.185,13.111-0.188,13.111-0.188s1.591-1.138,3.512,1.668
			c1.922,2.806,10.736,20.614,12.715,32.718c1.979,12.106,2.047,25.81,0.982,40.1c-0.588,7.902-1.787,18.445-1.787,21.095
			c0,4.35-0.049,9.753-1.99,10.66c-1.943,0.909-3.677-0.591-5.306-2.146c-0.022-0.02-0.057-0.037-0.103-0.049
			c-8.844-9.729-23.113-16.047-39.198-16.047c-9.217,0-17.838,2.075-25.187,5.68c-6.949,3.811-12.572,9.777-16.065,18.597
			c-5.307,13.407-12.322,13.84-5.933-2.285c2.989-7.548,7.307-13.317,12.588-17.626c-7.843-8.173-18.815-13.254-30.954-13.254
			c-23.808,0-43.138,19.551-43.138,43.634c0,23.187,17.921,42.175,40.509,43.552c0.792,0.201,49.407,1.064,61.411,1.141
			c12.005,0.079,43.186-1.949,62.13-5.451c18.943-3.502,24.508-4.01,45.349-13.368c2.165-0.97,3.886-3.013,5.083-5.515
			c1.197-2.5,0.561-8.497,0.279-10.965c-0.279-2.469,0.2-5.14,0.586-7.266v-0.002C244.794,195.915,245.433,187.228,245.023,178.001z
			 M141.067,233.273h-10.342v-11.086h10.342V233.273z M156.577,198.755c-1.397,1.895-3.587,3.711-6.567,5.451l-2.05,1.211
			c-2.11,1.242-3.633,2.252-4.563,3.028c-0.932,0.776-1.553,1.505-1.864,2.188c-0.31,0.684-0.465,1.553-0.465,2.608v2.702h-10.063
			v-3.727c0-2.111,0.157-3.772,0.466-4.984c0.31-1.211,1.025-2.375,2.144-3.494c1.116-1.118,2.95-2.422,5.495-3.911l2.423-1.397
			c2.237-1.243,3.741-2.377,4.518-3.402c0.776-1.024,1.165-2.344,1.165-3.957c0-2.05-0.822-3.619-2.469-4.705
			c-1.646-1.088-4.145-1.631-7.499-1.631c-3.417,0-6.07,0.621-7.965,1.863c-1.895,1.241-2.841,3.074-2.841,5.495v1.212h-10.994
			v-1.118c0-5.403,2.019-9.688,6.055-12.856c4.038-3.166,9.411-4.75,16.118-4.75c6.522,0,11.661,1.46,15.418,4.378
			c3.757,2.919,5.637,6.988,5.637,12.204C158.674,194.332,157.974,196.863,156.577,198.755z"/>
		<rect x="130.725" y="222.187" fill="#FFFFFF" width="10.342" height="11.086"/>
		<path fill="#FFFFFF" d="M153.038,178.959c-3.757-2.918-8.896-4.378-15.418-4.378c-6.707,0-12.08,1.584-16.118,4.75
			c-4.036,3.169-6.055,7.453-6.055,12.856v1.118h10.994v-1.212c0-2.421,0.946-4.254,2.841-5.495
			c1.895-1.242,4.548-1.863,7.965-1.863c3.354,0,5.852,0.543,7.499,1.631c1.646,1.086,2.469,2.655,2.469,4.705
			c0,1.613-0.389,2.933-1.165,3.957c-0.776,1.025-2.28,2.159-4.518,3.402l-2.423,1.397c-2.544,1.489-4.378,2.793-5.495,3.911
			c-1.119,1.119-1.833,2.283-2.144,3.494c-0.31,1.212-0.466,2.873-0.466,4.984v3.727h10.063v-2.702c0-1.056,0.155-1.925,0.465-2.608
			c0.312-0.684,0.933-1.412,1.864-2.188c0.931-0.776,2.453-1.786,4.563-3.028l2.05-1.211c2.98-1.74,5.17-3.557,6.567-5.451
			c1.397-1.893,2.098-4.424,2.098-7.592C158.674,185.948,156.794,181.878,153.038,178.959z"/>
	</g>
</g>
</svg>
