<?xml version="1.0" encoding="utf-8"?>
<!-- Generator: Adobe Illustrator 15.1.0, SVG Export Plug-In . SVG Version: 6.00 Build 0)  -->
<!DOCTYPE svg PUBLIC "-//W3C//DTD SVG 1.0//EN" "http://www.w3.org/TR/2001/REC-SVG-20010904/DTD/svg10.dtd">
<svg version="1.0" id="Layer_1" xmlns="http://www.w3.org/2000/svg" xmlns:xlink="http://www.w3.org/1999/xlink" x="0px" y="0px"
	 width="283.46px" height="283.46px" viewBox="0 0 283.46 283.46" enable-background="new 0 0 283.46 283.46" xml:space="preserve">
<g id="Layer_1_1_" xmlns:serif="http://www.serif.com/">
</g>
<g id="Layer_2">
	<g>
		<path d="M245.023,178.001c-0.619-13.916-7.968-36.254-8.313-37.038c-1.604-3.646-2.273-6.243-2.807-7.741
			s-7.693-18.405-8.354-20.311c-0.659-1.904-13.43-29.216-14.565-31.484c-1.137-2.27-11.198-23.3-11.955-25.579
			c-0.76-2.276-0.067-1.426-1.812-4.974c-1.741-3.549-3.465-6.657-15.314-17.025c-11.849-10.368-13.738-11.469-16.199-13.052
			c-2.463-1.583-3.246-2.311-4.203-2.372c-0.955-0.059-3.308-0.187-7.318,2.372c-4.014,2.558-20.021,14.173-24.271,18.364
			c-1.988,1.962-3.26,2.785-3.26,5.619c0,3.216,0.476,4.124,1.069,5.491c0.595,1.365,2.98,5.728,3.292,7.597
			c-1.333,0.078-2.7,0.938-3.292,2.263c-0.593,1.328-1.156,3.739-0.277,6.009c0.881,2.268,1.446,3.16,2.771,4.005
			c1.324,0.846,3.825,1.265,5.283,1.197c1.459-0.07,2.671,0.067,2.671,0.067s13.383,5.922,14.479,6.441
			c1.094,0.517,1.152,0.674,2.098,0.861c0.943,0.185,13.111-0.188,13.111-0.188s1.591-1.138,3.512,1.668
			c1.922,2.806,10.736,20.614,12.715,32.718c1.979,12.106,2.047,25.81,0.982,40.099c-0.588,7.902-1.787,18.445-1.787,21.096
			c0,4.35-0.049,9.753-1.99,10.66c-1.942,0.908-3.677-0.592-5.306-2.146c-0.022-0.02-0.058-0.037-0.103-0.049
			c-8.844-9.729-23.113-16.047-39.198-16.047c-9.217,0-17.838,2.075-25.187,5.68c-6.949,3.812-12.572,9.777-16.065,18.598
			c-5.307,13.406-12.322,13.84-5.933-2.285c2.989-7.549,7.307-13.317,12.588-17.626c-7.843-8.173-18.815-13.255-30.954-13.255
			c-23.808,0-43.138,19.552-43.138,43.635c0,23.188,17.921,42.175,40.509,43.552c0.792,0.201,49.407,1.063,61.411,1.142
			c12.005,0.078,43.186-1.949,62.129-5.451s24.508-4.01,45.35-13.368c2.165-0.97,3.886-3.013,5.083-5.515
			c1.196-2.5,0.562-8.498,0.278-10.965c-0.278-2.47,0.201-5.141,0.586-7.267v-0.002
			C244.794,195.916,245.433,187.228,245.023,178.001z M141.067,233.273h-10.342v-11.086h10.342V233.273z M156.578,198.755
			c-1.397,1.895-3.588,3.711-6.568,5.451l-2.049,1.211c-2.11,1.242-3.633,2.252-4.563,3.027c-0.933,0.776-1.553,1.506-1.864,2.188
			c-0.31,0.685-0.465,1.554-0.465,2.609v2.701h-10.063v-3.727c0-2.111,0.157-3.772,0.466-4.984c0.31-1.211,1.025-2.375,2.144-3.494
			c1.116-1.117,2.95-2.422,5.495-3.91l2.423-1.397c2.237-1.243,3.741-2.377,4.517-3.402c0.777-1.024,1.166-2.344,1.166-3.957
			c0-2.05-0.822-3.618-2.469-4.704c-1.646-1.089-4.146-1.632-7.5-1.632c-3.417,0-6.07,0.621-7.965,1.863
			c-1.895,1.241-2.841,3.073-2.841,5.495v1.212h-10.994v-1.118c0-5.402,2.019-9.688,6.055-12.855
			c4.038-3.166,9.411-4.75,16.118-4.75c6.522,0,11.662,1.459,15.417,4.377c3.758,2.92,5.637,6.988,5.637,12.205
			C158.673,194.332,157.974,196.863,156.578,198.755z"/>
	</g>
</g>
</svg>
