<?xml version="1.0" encoding="utf-8"?>
<!-- Generator: Adobe Illustrator 15.1.0, SVG Export Plug-In . SVG Version: 6.00 Build 0)  -->
<!DOCTYPE svg PUBLIC "-//W3C//DTD SVG 1.1//EN" "http://www.w3.org/Graphics/SVG/1.1/DTD/svg11.dtd">
<svg version="1.1" id="Layer_4" xmlns="http://www.w3.org/2000/svg" xmlns:xlink="http://www.w3.org/1999/xlink" x="0px" y="0px"
	 width="283.46px" height="283.46px" viewBox="0 0 283.46 283.46" enable-background="new 0 0 283.46 283.46" xml:space="preserve">
<g>
	<path fill="#231F20" d="M189.005,122.317c-12.81,0.719-17.353,17.718-18.982,30.333c-26.988-25.337,7.438-69.747,1.717-106.748
		c-2.556-16.566-12.752-29.62-27.615-38.818c7.795,8.249,8.885,24.258,6.906,35.178C142.021,92,67.111,124.636,59.54,181.761
		c-4.254,32.053,13.195,55.52,34.522,71.563c7.919,5.957,29.323,23.053,51.789,23.053c23.372,0,52.376-20.354,63.874-32.752
		c5.923-6.397,12.414-17.434,13.803-24.266C232.71,174.216,177.507,163.582,189.005,122.317z M84.477,167.986
		c-2.885-16.217,0.012-31.373,11.05-38.835c12.082-8.326,36.771-24.616,46.982-42.199c9.404-17.769,21.846-37.767,17.879-60.063
		c18.111,93.813-83.097,122.597-65.67,162.533C89.403,185.429,87.68,181.458,84.477,167.986z M156.861,254.67
		c-3.743,0-11.437-6.198-17.998-14.401v0.006c-20.01-15.701-10.425-52.355-8.335-58.2l0.002,0.01
		c4.158-19.146,12.14-30.617,20.125-40.354c-13.032,35.987,2.89,35.189,6.205,69.295
		C158.904,229.822,144.268,241.329,156.861,254.67z M208.075,227.232c-9.704-42.268-26.845-36.203-26.845-80.942
		C181.23,184.93,218.244,184.117,208.075,227.232z"/>
</g>
</svg>
