<?xml version="1.0" encoding="utf-8"?>
<!-- Generator: Adobe Illustrator 15.1.0, SVG Export Plug-In . SVG Version: 6.00 Build 0)  -->
<!DOCTYPE svg PUBLIC "-//W3C//DTD SVG 1.1//EN" "http://www.w3.org/Graphics/SVG/1.1/DTD/svg11.dtd">
<svg version="1.1" id="Layer_3" xmlns="http://www.w3.org/2000/svg" xmlns:xlink="http://www.w3.org/1999/xlink" x="0px" y="0px"
	 width="283.46px" height="283.46px" viewBox="0 0 283.46 283.46" enable-background="new 0 0 283.46 283.46" xml:space="preserve">
<g>
	<path fill="none" d="M179.357,37.355c1.57-0.066,3.129-0.123,4.678-0.169C182.486,37.232,180.927,37.289,179.357,37.355z"/>
	<path fill="none" d="M166.148,38.124c1.709-0.125,3.41-0.242,5.104-0.347C169.558,37.881,167.857,37.998,166.148,38.124z"/>
	<path fill="none" d="M185.283,37.147c1.866-0.05,3.717-0.085,5.549-0.106C189,37.062,187.149,37.097,185.283,37.147z"/>
	<path fill="none" d="M158.587,38.738c1.996-0.18,3.983-0.342,5.966-0.495C162.572,38.396,160.583,38.558,158.587,38.738z"/>
	<path fill="none" d="M194.541,37.017c-0.834,0-1.683,0.01-2.524,0.017c1.582-0.012,3.151-0.015,4.703-0.004
		C195.994,37.025,195.273,37.017,194.541,37.017z"/>
	<path fill="none" d="M172.13,37.72c1.939-0.116,3.865-0.216,5.779-0.303C175.996,37.504,174.071,37.604,172.13,37.72z"/>
	<path fill="none" d="M203.925,37.167c1.748,0.056,3.479,0.122,5.175,0.21C207.406,37.29,205.673,37.223,203.925,37.167z"/>
	<path fill="none" d="M197.669,37.036c1.752,0.018,3.479,0.051,5.186,0.099C201.149,37.087,199.421,37.053,197.669,37.036z"/>
	<path fill="#010001" d="M250.619,44.413c-0.723-6.727-18.633-12.121-40.59-12.121c-15.42-0.82-33.143-0.281-51.441,1.393v1.776
		c18.029-1.615,35.49-2.135,50.682-1.344c22.074,0,39.997,5.416,39.997,12.087c0,6.645-17.782,12.045-39.738,12.087h-0.259
		c-48.619,3.002-78.462,7.468-98.38,17.282c-1.579,0.778-1.989,1.139-3.191,1.665l-0.692,0.293c0,0-0.958,0.377-1.406,0.544
		c-7.339,2.681-18.429,4.39-30.83,4.39c-22.075,0-39.998-5.416-39.998-12.086c0-2.192,1.935-4.249,5.317-6.022
		c19.102-10.56,50.771-19.217,84.189-24.596v-1.702C90.15,43.632,57.749,52.654,38.247,63.672l0,0
		c-3.434,1.84-5.399,3.975-5.399,6.25l0.001,0.072c0.002,0,0.003,0.003,0.006,0.003c0.004,0.213,0.019,0.425,0.057,0.635
		l-0.064,185.907c0,6.924,18.198,12.545,40.613,12.545c0.858,0,1.709-0.01,2.554-0.024c0.317-0.006,0.628-0.019,0.943-0.026
		c0.525-0.015,1.053-0.025,1.572-0.047c0.355-0.014,0.704-0.033,1.057-0.05c0.471-0.022,0.944-0.042,1.41-0.069
		c0.379-0.021,0.75-0.05,1.126-0.074c0.43-0.029,0.863-0.057,1.288-0.09c0.397-0.029,0.786-0.067,1.178-0.103
		c0.393-0.034,0.789-0.065,1.176-0.104c0.406-0.039,0.803-0.086,1.203-0.129c0.365-0.041,0.734-0.078,1.094-0.121
		c0.4-0.047,0.791-0.101,1.185-0.151c0.35-0.046,0.703-0.089,1.048-0.138c0.393-0.057,0.775-0.117,1.161-0.177
		c0.334-0.051,0.672-0.1,1.001-0.153c0.384-0.063,0.757-0.131,1.134-0.197c0.318-0.057,0.64-0.11,0.953-0.169
		c0.371-0.07,0.73-0.146,1.092-0.218c0.307-0.063,0.618-0.123,0.918-0.188c0.352-0.075,0.692-0.154,1.036-0.232
		c0.298-0.068,0.6-0.137,0.892-0.207c0.332-0.08,0.653-0.164,0.977-0.248c0.289-0.074,0.581-0.147,0.862-0.226
		c0.312-0.085,0.613-0.174,0.916-0.262c0.278-0.08,0.558-0.16,0.829-0.242c0.291-0.09,0.571-0.183,0.854-0.274
		c0.267-0.086,0.537-0.172,0.796-0.263c0.267-0.092,0.521-0.187,0.779-0.28c0.259-0.096,0.519-0.188,0.769-0.285
		c0.242-0.094,0.473-0.19,0.706-0.287c0.18-0.074,0.37-0.146,0.544-0.221c-0.001-0.002-0.002-0.004-0.003-0.007
		c0.085-0.036,0.176-0.071,0.259-0.108l0.001,0.004v-0.002v-0.002c0.037-0.018,0.079-0.032,0.116-0.049l0.01-0.004
		c1.221-0.546,2.306-1.123,3.24-1.729c20.225-10.186,50.526-14.819,99.894-17.936h0.262c0.682,0,1.357-0.008,2.03-0.02
		c0.234-0.004,0.466-0.012,0.7-0.018c0.436-0.011,0.872-0.02,1.305-0.033c0.275-0.008,0.547-0.021,0.821-0.032
		c0.386-0.015,0.771-0.028,1.153-0.047c0.291-0.015,0.576-0.031,0.863-0.048c0.361-0.021,0.725-0.038,1.082-0.062
		c0.295-0.019,0.588-0.041,0.881-0.063c0.345-0.023,0.688-0.047,1.029-0.073c0.301-0.024,0.598-0.052,0.896-0.077
		c0.326-0.027,0.654-0.057,0.977-0.087c0.303-0.028,0.602-0.062,0.899-0.092c0.313-0.032,0.629-0.064,0.938-0.099
		c0.299-0.035,0.592-0.07,0.889-0.105c0.304-0.037,0.609-0.073,0.91-0.111c0.291-0.037,0.576-0.078,0.865-0.117
		c0.297-0.041,0.598-0.082,0.891-0.125c0.285-0.041,0.566-0.086,0.848-0.131c0.288-0.045,0.577-0.089,0.861-0.136
		c0.281-0.047,0.56-0.097,0.838-0.146c0.275-0.047,0.552-0.096,0.822-0.146c0.274-0.051,0.545-0.104,0.815-0.156
		c0.269-0.052,0.534-0.104,0.797-0.157c0.269-0.055,0.532-0.11,0.796-0.168c0.256-0.056,0.514-0.11,0.766-0.168
		c0.261-0.059,0.517-0.119,0.771-0.18c0.246-0.059,0.491-0.117,0.732-0.178c0.252-0.063,0.499-0.126,0.746-0.19
		c0.236-0.062,0.473-0.124,0.703-0.188c0.244-0.066,0.481-0.134,0.72-0.202c0.226-0.064,0.45-0.13,0.671-0.196
		c0.232-0.069,0.462-0.141,0.689-0.212c0.215-0.066,0.43-0.137,0.641-0.206c0.222-0.073,0.441-0.146,0.656-0.222
		c0.205-0.07,0.408-0.143,0.607-0.215c0.211-0.076,0.42-0.153,0.626-0.231c0.193-0.073,0.386-0.147,0.573-0.223
		c0.2-0.079,0.396-0.159,0.592-0.24c0.184-0.076,0.361-0.153,0.539-0.231c0.188-0.082,0.375-0.164,0.557-0.248
		c0.172-0.08,0.338-0.16,0.504-0.239c0.176-0.085,0.35-0.171,0.519-0.257c0.161-0.082,0.317-0.166,0.474-0.25
		c0.16-0.086,0.319-0.174,0.476-0.262c0.149-0.086,0.293-0.172,0.437-0.259c0.147-0.089,0.295-0.178,0.436-0.269
		c0.138-0.088,0.27-0.178,0.4-0.269c0.133-0.09,0.266-0.18,0.392-0.271c0.126-0.092,0.243-0.186,0.362-0.277
		s0.237-0.184,0.349-0.275c0.114-0.096,0.22-0.191,0.325-0.287c0.103-0.094,0.205-0.186,0.302-0.277c0.103-0.1,0.192-0.2,0.287-0.3
		c0.086-0.093,0.175-0.185,0.254-0.277c0.089-0.104,0.167-0.21,0.247-0.313c0.068-0.092,0.143-0.183,0.205-0.273
		c0.076-0.109,0.14-0.223,0.205-0.332c0.054-0.089,0.109-0.178,0.156-0.268c0.063-0.115,0.109-0.233,0.159-0.353
		c0.037-0.085,0.079-0.17,0.11-0.256c0.046-0.127,0.076-0.255,0.109-0.383c0.021-0.078,0.047-0.155,0.063-0.233
		c0.002-0.013,0.008-0.025,0.01-0.037l0.003-0.016l0.002-0.014c-0.002-0.002-0.004-0.006-0.006-0.01
		c0.032-0.177,0.061-0.354,0.067-0.533h0.005v-0.623V45.051v-0.022V44.41L250.619,44.413z"/>
	<path fill="#010001" d="M141.433,57.119c-9.468,0-17.155-2.615-17.155-5.835v-8.216c-0.275,0.045-0.547,0.089-0.82,0.134
		c-32.502,5.324-63.197,13.731-81.803,24.016l-0.063,0.034l-0.083,0.044c-0.27,0.143-0.508,0.291-0.754,0.438
		c-0.137,0.082-0.289,0.16-0.418,0.243c-0.375,0.239-0.72,0.484-1.029,0.736c-0.695,0.565-1.287,1.031-1.287,1.668
		c0,0.681,0.649,1.171,1.417,1.771c0.267,0.209,0.555,0.414,0.864,0.614c2.161,1.404,5.324,2.604,9.186,3.611
		c6.788,1.769,15.625,2.825,25.281,2.825c5.808,0,11.319-0.383,16.272-1.074c6.017-0.839,11.189-2.119,15.007-3.731
		c0.064-0.031,0.131-0.059,0.199-0.085c0.051-0.022,0.153-0.066,0.153-0.066l3.057-1.602c2.275-1.121,4.684-2.171,7.224-3.164
		c8.845-3.455,19.367-6.163,32.119-8.325c16.115-2.732,35.834-4.613,60.27-6.121l0.196-0.006h0.256
		c9.604-0.019,18.383-1.082,25.123-2.85c4.382-1.149,7.856-2.549,9.974-4.214c0.758-0.596,1.398-1.082,1.398-1.758
		c0-0.596-0.497-1.046-1.137-1.551c-0.09-0.072-0.186-0.146-0.28-0.221c-1.868-1.462-4.782-2.72-8.438-3.782
		c-0.521-0.152-1.06-0.299-1.611-0.443c-6.787-1.768-15.625-2.825-25.28-2.825l-0.168-0.004c-1.694-0.088-3.427-0.154-5.175-0.21
		c-0.356-0.011-0.711-0.023-1.07-0.033c-1.706-0.047-3.434-0.081-5.186-0.099c-0.315-0.003-0.635-0.003-0.951-0.006
		c-1.553-0.011-3.121-0.008-4.703,0.004c-0.396,0.003-0.787,0.003-1.186,0.007c-1.83,0.021-3.682,0.056-5.549,0.106
		c-0.414,0.011-0.832,0.026-1.248,0.039c-1.548,0.047-3.105,0.104-4.677,0.169c-0.481,0.021-0.963,0.04-1.446,0.062
		c-1.914,0.087-3.84,0.187-5.779,0.303c-0.293,0.018-0.588,0.039-0.881,0.057c-1.691,0.104-3.394,0.221-5.103,0.347
		c-0.53,0.039-1.063,0.079-1.595,0.12c-1.981,0.153-3.969,0.314-5.967,0.495v12.545C158.587,54.504,150.901,57.119,141.433,57.119z"
		/>
	<path fill="#010001" d="M126.598,51.194c0.044,0.06,0.177,0.235,0.282,0.332c0.23,0.213,0.516,0.412,0.845,0.606
		c1.166,0.686,2.793,1.251,4.728,1.688c2.573,0.582,5.662,0.917,8.98,0.917c3.318,0,6.406-0.334,8.98-0.917
		c1.935-0.438,3.562-1.002,4.728-1.688c0.33-0.194,0.614-0.393,0.846-0.606c0.104-0.096,0.238-0.271,0.281-0.332V17.705
		c-0.043-0.06-0.177-0.235-0.281-0.332c-0.229-0.213-0.516-0.412-0.846-0.606c-1.166-0.686-2.793-1.251-4.728-1.688
		c-2.574-0.582-5.662-0.917-8.98-0.917c-3.318,0-6.407,0.334-8.98,0.917c-1.934,0.438-3.562,1.003-4.728,1.688
		c-0.33,0.194-0.615,0.393-0.845,0.606c-0.104,0.096-0.238,0.272-0.282,0.332V51.194z"/>
</g>
</svg>
