<?xml version="1.0" encoding="utf-8"?>
<!-- Generator: Adobe Illustrator 15.1.0, SVG Export Plug-In . SVG Version: 6.00 Build 0)  -->
<!DOCTYPE svg PUBLIC "-//W3C//DTD SVG 1.1//EN" "http://www.w3.org/Graphics/SVG/1.1/DTD/svg11.dtd">
<svg version="1.1" id="Layer_1" xmlns="http://www.w3.org/2000/svg" xmlns:xlink="http://www.w3.org/1999/xlink" x="0px" y="0px"
	 width="283.465px" height="283.465px" viewBox="0 0 283.465 283.465" enable-background="new 0 0 283.465 283.465"
	 xml:space="preserve">
<g>
	<path fill="none" d="M51.229,15.442c-11.977,0-21.721,9.744-21.721,21.721c0,11.979,9.744,21.722,21.721,21.722
		c3.66,0,7.108-0.914,10.137-2.52c0.095-0.453,0.252-0.896,0.476-1.313l-7.009-6.954c-1.134,0.373-2.345,0.577-3.604,0.577
		c-6.357,0-11.512-5.152-11.512-11.512c0-6.356,5.154-11.511,11.512-11.511s11.513,5.153,11.513,11.511
		c0,1.229-0.194,2.41-0.551,3.521l7.011,6.957c0.411-0.217,0.846-0.369,1.292-0.462c1.565-2.998,2.457-6.403,2.457-10.016
		C72.952,25.187,63.208,15.442,51.229,15.442z"/>
	<path fill="none" d="M146.953,236.04c0.043,0.021,0.086,0.043,0.127,0.064c0.092,0.049,0.182,0.1,0.271,0.15
		c0.074,0.041,0.15,0.082,0.225,0.123c0.09,0.057,0.178,0.111,0.268,0.168c0.072,0.047,0.146,0.088,0.217,0.138
		c0.087,0.058,0.174,0.116,0.259,0.178c0.072,0.052,0.146,0.101,0.216,0.149c0.082,0.063,0.163,0.128,0.245,0.191
		c0.072,0.053,0.144,0.108,0.214,0.166c0.078,0.064,0.156,0.133,0.231,0.195c0.071,0.064,0.146,0.125,0.215,0.188
		c0.072,0.066,0.142,0.133,0.212,0.199c0.063,0.061,0.124,0.115,0.186,0.176c0.013,0.012,0.022,0.024,0.035,0.035
		c0.012,0.012,0.021,0.021,0.033,0.033c0.055,0.055,0.105,0.111,0.158,0.167c0.073,0.077,0.146,0.152,0.216,0.229
		c0.063,0.068,0.122,0.139,0.181,0.207c0.067,0.08,0.137,0.158,0.203,0.238c0.058,0.069,0.112,0.144,0.168,0.217
		c0.063,0.08,0.127,0.16,0.188,0.242c0.055,0.075,0.107,0.152,0.16,0.229c0.057,0.083,0.113,0.16,0.167,0.242
		c0.055,0.08,0.104,0.162,0.153,0.244c0.051,0.08,0.102,0.158,0.147,0.237c0.052,0.087,0.099,0.173,0.146,0.261
		c0.045,0.076,0.09,0.154,0.131,0.234c0.048,0.088,0.092,0.18,0.137,0.271c0.037,0.076,0.077,0.154,0.113,0.234
		c0.043,0.094,0.084,0.188,0.125,0.282c0.033,0.077,0.068,0.151,0.099,0.229c0.04,0.099,0.076,0.197,0.113,0.295
		c0.028,0.076,0.058,0.152,0.085,0.229c0.035,0.101,0.066,0.199,0.099,0.3c0.024,0.077,0.05,0.152,0.072,0.229
		c0.03,0.104,0.058,0.205,0.085,0.309c0.021,0.075,0.041,0.152,0.061,0.229c0.025,0.104,0.049,0.209,0.069,0.312
		c0.017,0.078,0.035,0.153,0.05,0.229c0.021,0.104,0.036,0.209,0.055,0.313c0.014,0.078,0.025,0.155,0.039,0.233
		c0.016,0.104,0.025,0.208,0.039,0.313c0.008,0.078,0.019,0.158,0.025,0.238c0.01,0.102,0.016,0.204,0.023,0.309
		c0.007,0.08,0.013,0.162,0.017,0.244c0.005,0.1,0.007,0.202,0.009,0.303c0.002,0.082,0.004,0.166,0.004,0.248
		c0,0.101-0.002,0.199-0.005,0.299c-0.003,0.086-0.003,0.17-0.007,0.257c-0.006,0.096-0.014,0.192-0.021,0.291
		c-0.006,0.086-0.01,0.173-0.02,0.26c-0.009,0.095-0.021,0.19-0.033,0.286c-0.01,0.086-0.021,0.175-0.031,0.264
		c-0.015,0.094-0.031,0.188-0.047,0.28c-0.016,0.089-0.029,0.179-0.045,0.267c-0.021,0.092-0.039,0.185-0.061,0.275
		c-0.021,0.088-0.037,0.18-0.061,0.27c-0.022,0.088-0.047,0.176-0.072,0.266c-0.022,0.092-0.047,0.181-0.072,0.27
		c-0.025,0.088-0.057,0.18-0.084,0.27c-0.027,0.086-0.057,0.175-0.087,0.262c-0.031,0.089-0.065,0.178-0.099,0.268
		c-0.033,0.084-0.063,0.17-0.1,0.256c-0.036,0.09-0.072,0.177-0.113,0.264c-0.035,0.084-0.072,0.168-0.111,0.253
		c-0.039,0.086-0.084,0.173-0.127,0.26c-0.039,0.082-0.078,0.164-0.123,0.246c-0.045,0.087-0.094,0.171-0.141,0.257
		c-0.045,0.082-0.088,0.161-0.135,0.238c-0.051,0.084-0.104,0.169-0.156,0.253c-0.049,0.078-0.096,0.155-0.146,0.231
		c-0.055,0.084-0.114,0.166-0.172,0.25c-0.053,0.074-0.104,0.148-0.156,0.223c-0.061,0.082-0.124,0.16-0.186,0.238
		c-0.058,0.074-0.113,0.146-0.172,0.222c-0.063,0.077-0.129,0.151-0.193,0.229c-0.063,0.069-0.125,0.146-0.188,0.217
		c-0.063,0.07-0.133,0.141-0.198,0.211c-0.06,0.063-0.115,0.125-0.174,0.188c-0.014,0.012-0.027,0.021-0.039,0.033
		c-0.01,0.012-0.02,0.021-0.031,0.033c-0.055,0.053-0.11,0.104-0.166,0.154c-0.078,0.076-0.153,0.15-0.233,0.223
		c-0.063,0.059-0.131,0.113-0.194,0.171c-0.084,0.071-0.166,0.144-0.25,0.211c-0.066,0.054-0.133,0.104-0.199,0.155
		c-0.086,0.066-0.172,0.136-0.26,0.199c-0.068,0.052-0.137,0.097-0.205,0.146c-0.09,0.062-0.179,0.126-0.269,0.187
		c-0.069,0.045-0.142,0.09-0.213,0.134c-0.091,0.056-0.181,0.112-0.271,0.165c-0.074,0.046-0.149,0.086-0.224,0.128
		c-0.091,0.051-0.183,0.103-0.272,0.151c-0.076,0.039-0.154,0.076-0.231,0.114c-0.091,0.044-0.183,0.091-0.274,0.134
		c-0.078,0.037-0.158,0.07-0.24,0.105c-0.09,0.04-0.182,0.08-0.273,0.117c-0.082,0.033-0.165,0.064-0.25,0.097
		c-0.091,0.033-0.182,0.067-0.271,0.103c-0.086,0.028-0.174,0.056-0.261,0.084c-0.089,0.028-0.178,0.061-0.269,0.086
		c-0.09,0.027-0.178,0.05-0.268,0.074c-0.09,0.023-0.18,0.049-0.271,0.07s-0.183,0.04-0.271,0.061
		c-0.091,0.021-0.181,0.039-0.271,0.059c-0.091,0.018-0.185,0.033-0.274,0.049c-0.092,0.016-0.182,0.03-0.271,0.044
		c-0.094,0.015-0.186,0.022-0.275,0.033c-0.093,0.012-0.184,0.022-0.273,0.03c-0.09,0.01-0.185,0.017-0.275,0.022
		c-0.091,0.007-0.184,0.013-0.275,0.019c-0.093,0.004-0.185,0.007-0.275,0.009c-0.094,0.002-0.186,0.005-0.276,0.005
		c-0.093,0-0.185-0.003-0.274-0.005c-0.094-0.002-0.186-0.005-0.276-0.009c-0.093-0.006-0.185-0.012-0.274-0.019
		c-0.093-0.007-0.186-0.014-0.277-0.022c-0.09-0.008-0.182-0.02-0.272-0.03c-0.092-0.011-0.185-0.021-0.276-0.033
		c-0.09-0.014-0.18-0.028-0.27-0.044c-0.092-0.016-0.186-0.031-0.275-0.049c-0.09-0.02-0.18-0.038-0.27-0.059
		c-0.091-0.021-0.184-0.037-0.271-0.061c-0.09-0.023-0.181-0.047-0.271-0.07c-0.089-0.024-0.179-0.047-0.267-0.074
		c-0.092-0.025-0.18-0.058-0.271-0.086c-0.087-0.028-0.174-0.056-0.261-0.084c-0.092-0.033-0.182-0.068-0.271-0.103
		c-0.084-0.03-0.168-0.063-0.25-0.097c-0.094-0.037-0.185-0.077-0.275-0.117c-0.079-0.035-0.16-0.068-0.239-0.105
		c-0.093-0.043-0.185-0.09-0.274-0.134c-0.078-0.038-0.156-0.075-0.23-0.114c-0.092-0.049-0.184-0.102-0.274-0.151
		c-0.073-0.042-0.147-0.082-0.221-0.128c-0.093-0.053-0.183-0.109-0.271-0.165c-0.072-0.044-0.144-0.089-0.213-0.134
		c-0.092-0.061-0.181-0.125-0.27-0.187c-0.066-0.049-0.137-0.094-0.204-0.146c-0.087-0.063-0.174-0.133-0.261-0.199
		c-0.065-0.051-0.133-0.102-0.198-0.155c-0.085-0.067-0.167-0.14-0.25-0.211c-0.065-0.058-0.131-0.112-0.194-0.171
		c-0.08-0.071-0.156-0.146-0.234-0.223c-0.057-0.051-0.112-0.103-0.166-0.154c-0.012-0.012-0.021-0.021-0.031-0.033
		c-0.014-0.012-0.023-0.021-0.037-0.033c-0.061-0.063-0.115-0.125-0.175-0.188c-0.067-0.07-0.134-0.141-0.198-0.211
		s-0.126-0.146-0.189-0.217c-0.063-0.076-0.131-0.151-0.193-0.229c-0.059-0.073-0.114-0.147-0.171-0.222
		c-0.062-0.078-0.124-0.156-0.185-0.238c-0.055-0.073-0.105-0.148-0.158-0.223c-0.058-0.084-0.115-0.166-0.172-0.25
		c-0.049-0.076-0.097-0.153-0.146-0.231c-0.054-0.084-0.106-0.169-0.157-0.253c-0.046-0.077-0.09-0.156-0.135-0.238
		c-0.048-0.086-0.096-0.17-0.143-0.257c-0.043-0.082-0.082-0.164-0.123-0.246c-0.043-0.087-0.086-0.174-0.125-0.26
		c-0.039-0.085-0.076-0.169-0.112-0.253c-0.038-0.089-0.077-0.174-0.112-0.264c-0.033-0.086-0.066-0.172-0.099-0.26
		c-0.033-0.089-0.067-0.175-0.099-0.264c-0.031-0.087-0.059-0.176-0.088-0.262c-0.027-0.09-0.058-0.182-0.084-0.27
		c-0.027-0.089-0.05-0.178-0.072-0.27c-0.024-0.09-0.051-0.178-0.071-0.266c-0.022-0.09-0.041-0.182-0.062-0.27
		c-0.021-0.092-0.041-0.186-0.059-0.275c-0.018-0.089-0.032-0.178-0.046-0.267c-0.017-0.095-0.032-0.187-0.047-0.28
		c-0.013-0.089-0.021-0.178-0.032-0.264c-0.014-0.096-0.023-0.191-0.033-0.286c-0.008-0.087-0.014-0.174-0.02-0.261
		c-0.008-0.098-0.016-0.194-0.021-0.29c-0.004-0.087-0.005-0.171-0.007-0.257c-0.002-0.1-0.006-0.198-0.006-0.299
		c0-0.082,0.004-0.166,0.005-0.248c0.003-0.101,0.004-0.203,0.01-0.303c0.002-0.082,0.01-0.164,0.016-0.244
		c0.008-0.104,0.015-0.207,0.023-0.309c0.008-0.08,0.018-0.16,0.027-0.238c0.013-0.104,0.023-0.207,0.039-0.313
		c0.011-0.078,0.025-0.155,0.037-0.233c0.019-0.104,0.035-0.209,0.055-0.313c0.016-0.076,0.031-0.151,0.049-0.229
		c0.023-0.103,0.045-0.206,0.07-0.312c0.02-0.075,0.04-0.152,0.063-0.229c0.025-0.104,0.053-0.205,0.084-0.309
		c0.021-0.076,0.047-0.151,0.071-0.229c0.032-0.101,0.063-0.199,0.099-0.3c0.026-0.078,0.058-0.153,0.086-0.229
		c0.037-0.098,0.071-0.196,0.111-0.295c0.032-0.078,0.064-0.152,0.102-0.229c0.039-0.097,0.08-0.188,0.123-0.282
		c0.035-0.08,0.076-0.158,0.113-0.234c0.047-0.092,0.09-0.184,0.137-0.271c0.041-0.08,0.086-0.158,0.131-0.234
		c0.049-0.088,0.095-0.174,0.146-0.261c0.048-0.079,0.099-0.157,0.147-0.237c0.051-0.082,0.101-0.164,0.154-0.244
		c0.053-0.082,0.108-0.159,0.166-0.242c0.053-0.075,0.105-0.152,0.162-0.229c0.061-0.082,0.123-0.162,0.186-0.242
		c0.056-0.074,0.111-0.146,0.169-0.217c0.065-0.08,0.134-0.158,0.202-0.238c0.06-0.068,0.117-0.139,0.18-0.207
		c0.07-0.078,0.145-0.152,0.217-0.229c0.053-0.056,0.104-0.112,0.159-0.167c0.011-0.014,0.021-0.021,0.032-0.033
		c0.013-0.011,0.023-0.023,0.035-0.035c0.062-0.061,0.123-0.115,0.186-0.176c0.07-0.066,0.141-0.133,0.211-0.199
		c0.071-0.063,0.145-0.123,0.217-0.188c0.075-0.063,0.152-0.131,0.23-0.195c0.07-0.058,0.143-0.113,0.214-0.166
		c0.082-0.064,0.163-0.129,0.246-0.191c0.071-0.051,0.144-0.1,0.216-0.149c0.085-0.062,0.171-0.12,0.258-0.178
		c0.071-0.05,0.146-0.095,0.217-0.138c0.09-0.057,0.179-0.111,0.269-0.168c0.073-0.041,0.147-0.082,0.226-0.123
		c0.09-0.051,0.18-0.103,0.271-0.15c0.042-0.021,0.084-0.043,0.127-0.064v-9.869c-0.462-0.137-0.896-0.338-1.289-0.599
		c-0.256,0.079-0.513,0.162-0.765,0.25c-0.006,0.003-0.014,0.005-0.019,0.007c-0.317,0.113-0.631,0.233-0.94,0.362
		c-0.015,0.004-0.028,0.009-0.043,0.017c-0.297,0.121-0.592,0.252-0.883,0.389c-0.027,0.013-0.056,0.023-0.084,0.037
		c-0.275,0.131-0.55,0.269-0.822,0.41c-0.039,0.022-0.082,0.043-0.121,0.063c-0.254,0.137-0.504,0.277-0.754,0.425
		c-0.057,0.033-0.114,0.063-0.172,0.099c-0.229,0.138-0.455,0.283-0.682,0.428c-0.072,0.049-0.146,0.094-0.221,0.143
		c-0.205,0.139-0.406,0.282-0.607,0.426c-0.09,0.064-0.181,0.125-0.27,0.191c-0.184,0.137-0.363,0.279-0.542,0.42
		c-0.103,0.082-0.206,0.159-0.308,0.241c-0.164,0.136-0.324,0.274-0.484,0.416c-0.111,0.099-0.227,0.192-0.336,0.293
		c-0.147,0.133-0.291,0.272-0.436,0.41c-0.117,0.112-0.236,0.223-0.354,0.34c-0.143,0.144-0.278,0.289-0.418,0.433
		c-0.118,0.127-0.238,0.252-0.355,0.381c-0.13,0.143-0.253,0.291-0.378,0.438c-0.114,0.133-0.231,0.268-0.343,0.4
		c-0.119,0.147-0.232,0.299-0.35,0.449c-0.107,0.139-0.217,0.275-0.319,0.418c-0.112,0.15-0.22,0.309-0.326,0.463
		c-0.099,0.141-0.199,0.283-0.294,0.424c-0.104,0.16-0.203,0.322-0.305,0.482c-0.09,0.145-0.18,0.286-0.266,0.434
		c-0.099,0.164-0.189,0.33-0.281,0.5c-0.081,0.144-0.163,0.287-0.241,0.435c-0.089,0.169-0.172,0.345-0.257,0.517
		c-0.071,0.146-0.146,0.289-0.214,0.437c-0.081,0.179-0.156,0.354-0.232,0.532c-0.063,0.146-0.129,0.291-0.189,0.439
		c-0.073,0.18-0.14,0.362-0.207,0.545c-0.056,0.148-0.113,0.295-0.164,0.441c-0.064,0.184-0.122,0.368-0.182,0.553
		c-0.048,0.15-0.098,0.301-0.143,0.45c-0.054,0.185-0.103,0.369-0.151,0.556c-0.041,0.152-0.084,0.305-0.122,0.457
		c-0.044,0.186-0.083,0.371-0.123,0.557c-0.034,0.156-0.07,0.313-0.102,0.47c-0.035,0.183-0.064,0.366-0.094,0.549
		c-0.026,0.162-0.057,0.324-0.079,0.483c-0.026,0.18-0.047,0.359-0.067,0.541c-0.021,0.168-0.042,0.332-0.058,0.498
		c-0.017,0.176-0.028,0.354-0.04,0.531c-0.013,0.17-0.025,0.342-0.035,0.512c-0.007,0.172-0.01,0.345-0.014,0.516
		c-0.005,0.178-0.011,0.354-0.011,0.531c0,0.166,0.006,0.333,0.01,0.497c0.004,0.184,0.006,0.364,0.015,0.548
		c0.008,0.16,0.021,0.322,0.034,0.482c0.012,0.187,0.024,0.373,0.042,0.56c0.015,0.157,0.035,0.313,0.053,0.47
		c0.022,0.189,0.044,0.381,0.071,0.568c0.022,0.152,0.049,0.305,0.074,0.455c0.032,0.193,0.063,0.387,0.101,0.578
		c0.028,0.147,0.063,0.295,0.094,0.441c0.042,0.194,0.083,0.391,0.13,0.581c0.036,0.146,0.077,0.29,0.114,0.435
		c0.053,0.193,0.103,0.388,0.159,0.58c0.043,0.145,0.091,0.287,0.137,0.429c0.061,0.19,0.121,0.385,0.187,0.573
		c0.05,0.142,0.105,0.281,0.158,0.424c0.07,0.188,0.139,0.378,0.215,0.564c0.058,0.139,0.12,0.28,0.182,0.42
		c0.079,0.186,0.155,0.367,0.239,0.549c0.066,0.143,0.138,0.285,0.208,0.428c0.087,0.175,0.171,0.352,0.263,0.525
		c0.076,0.145,0.157,0.287,0.237,0.428c0.093,0.17,0.185,0.339,0.284,0.505c0.085,0.146,0.177,0.288,0.265,0.431
		c0.103,0.162,0.199,0.324,0.306,0.48c0.095,0.147,0.196,0.287,0.295,0.433c0.106,0.151,0.212,0.31,0.323,0.459
		c0.105,0.144,0.218,0.284,0.326,0.425c0.113,0.148,0.226,0.295,0.344,0.438c0.113,0.141,0.234,0.278,0.354,0.416
		c0.121,0.142,0.24,0.284,0.366,0.424c0.122,0.135,0.25,0.267,0.376,0.397c0.131,0.138,0.26,0.276,0.396,0.412
		c0.125,0.127,0.252,0.244,0.379,0.366c0.136,0.13,0.271,0.261,0.408,0.384c0.121,0.111,0.244,0.213,0.367,0.322
		c0.15,0.128,0.299,0.26,0.452,0.387c0.113,0.094,0.229,0.18,0.345,0.271c0.168,0.131,0.334,0.264,0.504,0.392
		c0.104,0.074,0.209,0.147,0.313,0.221c0.188,0.133,0.373,0.27,0.563,0.396c0.092,0.061,0.185,0.117,0.275,0.176
		c0.208,0.133,0.414,0.268,0.625,0.393c0.079,0.05,0.159,0.092,0.239,0.139c0.228,0.131,0.454,0.262,0.685,0.387
		c0.067,0.035,0.137,0.065,0.202,0.102c0.246,0.13,0.494,0.254,0.744,0.373c0.056,0.025,0.112,0.05,0.169,0.074
		c0.264,0.121,0.527,0.242,0.797,0.353c0.049,0.021,0.1,0.038,0.149,0.058c0.274,0.111,0.553,0.221,0.832,0.32
		c0.048,0.016,0.097,0.031,0.144,0.046c0.284,0.101,0.569,0.195,0.857,0.282c0.053,0.016,0.107,0.029,0.16,0.045
		c0.283,0.082,0.566,0.162,0.854,0.234c0.068,0.016,0.14,0.031,0.209,0.047c0.272,0.063,0.546,0.129,0.821,0.183
		c0.096,0.021,0.193,0.033,0.291,0.052c0.25,0.047,0.5,0.094,0.753,0.129c0.14,0.021,0.28,0.035,0.421,0.053
		c0.212,0.027,0.424,0.059,0.637,0.078c0.219,0.02,0.438,0.033,0.656,0.049c0.139,0.009,0.275,0.021,0.415,0.029
		c0.36,0.018,0.722,0.025,1.084,0.025s0.726-0.009,1.085-0.025c0.139-0.008,0.276-0.021,0.414-0.029
		c0.219-0.016,0.439-0.029,0.655-0.049c0.214-0.021,0.426-0.051,0.638-0.078c0.141-0.018,0.282-0.03,0.422-0.053
		c0.252-0.035,0.502-0.082,0.752-0.129c0.096-0.019,0.194-0.031,0.293-0.052c0.274-0.054,0.547-0.118,0.819-0.183
		c0.069-0.016,0.142-0.031,0.209-0.047c0.289-0.072,0.574-0.152,0.858-0.234c0.052-0.016,0.104-0.029,0.156-0.045
		c0.289-0.087,0.573-0.182,0.857-0.282c0.048-0.015,0.098-0.03,0.143-0.046c0.28-0.102,0.559-0.209,0.834-0.32
		c0.049-0.02,0.101-0.037,0.149-0.058c0.271-0.11,0.532-0.229,0.796-0.351c0.057-0.026,0.113-0.051,0.169-0.076
		c0.251-0.119,0.497-0.243,0.743-0.373c0.066-0.035,0.137-0.065,0.203-0.102c0.23-0.125,0.457-0.256,0.684-0.387
		c0.08-0.047,0.161-0.089,0.241-0.139c0.211-0.125,0.416-0.26,0.623-0.391c0.093-0.061,0.187-0.117,0.276-0.178
		c0.19-0.127,0.377-0.264,0.563-0.396c0.104-0.072,0.21-0.146,0.313-0.222c0.17-0.127,0.336-0.26,0.504-0.391
		c0.115-0.093,0.23-0.179,0.346-0.271c0.152-0.127,0.301-0.259,0.452-0.39c0.122-0.106,0.246-0.208,0.366-0.319
		c0.139-0.123,0.272-0.255,0.408-0.384c0.127-0.122,0.256-0.241,0.379-0.366c0.138-0.134,0.266-0.272,0.396-0.412
		c0.125-0.131,0.253-0.264,0.376-0.399c0.125-0.138,0.244-0.28,0.365-0.423c0.118-0.137,0.237-0.274,0.354-0.415
		c0.115-0.144,0.229-0.29,0.342-0.438c0.108-0.141,0.221-0.281,0.326-0.425c0.111-0.149,0.215-0.308,0.323-0.459
		c0.099-0.146,0.2-0.284,0.296-0.433c0.104-0.156,0.203-0.318,0.305-0.48c0.09-0.143,0.18-0.283,0.265-0.431
		c0.101-0.166,0.19-0.337,0.285-0.507c0.079-0.143,0.159-0.281,0.235-0.426c0.092-0.174,0.176-0.352,0.264-0.525
		c0.068-0.145,0.142-0.285,0.207-0.428c0.085-0.182,0.16-0.363,0.24-0.545c0.061-0.144,0.123-0.283,0.182-0.424
		c0.076-0.188,0.145-0.377,0.215-0.564c0.053-0.141,0.107-0.283,0.157-0.426c0.065-0.19,0.128-0.381,0.188-0.572
		c0.045-0.145,0.094-0.284,0.135-0.428c0.059-0.193,0.107-0.388,0.16-0.58c0.039-0.146,0.078-0.289,0.115-0.436
		c0.047-0.191,0.086-0.387,0.129-0.58c0.03-0.148,0.066-0.295,0.094-0.443c0.037-0.19,0.068-0.385,0.101-0.578
		c0.026-0.149,0.053-0.301,0.075-0.454c0.027-0.188,0.049-0.382,0.07-0.57c0.019-0.155,0.039-0.312,0.053-0.468
		c0.02-0.188,0.031-0.373,0.043-0.561c0.013-0.162,0.025-0.321,0.033-0.481c0.008-0.185,0.013-0.364,0.016-0.548
		c0.005-0.164,0.01-0.331,0.01-0.497c0-0.179-0.006-0.354-0.011-0.531c-0.005-0.171-0.007-0.344-0.015-0.515
		c-0.008-0.174-0.021-0.342-0.035-0.514c-0.012-0.178-0.022-0.354-0.039-0.531c-0.016-0.166-0.038-0.33-0.059-0.496
		c-0.021-0.182-0.041-0.362-0.066-0.543c-0.023-0.158-0.053-0.32-0.079-0.48c-0.03-0.186-0.06-0.367-0.095-0.551
		c-0.031-0.157-0.066-0.313-0.102-0.469c-0.04-0.186-0.079-0.372-0.123-0.557c-0.037-0.152-0.081-0.306-0.121-0.457
		c-0.049-0.186-0.098-0.371-0.152-0.557c-0.045-0.15-0.096-0.3-0.144-0.45c-0.06-0.185-0.116-0.368-0.18-0.551
		c-0.054-0.147-0.109-0.295-0.165-0.444c-0.066-0.182-0.135-0.363-0.208-0.543c-0.06-0.148-0.125-0.293-0.188-0.439
		c-0.076-0.178-0.15-0.355-0.233-0.533c-0.068-0.146-0.142-0.29-0.214-0.438c-0.084-0.17-0.166-0.345-0.258-0.516
		c-0.076-0.146-0.158-0.291-0.24-0.436c-0.09-0.166-0.184-0.336-0.28-0.5c-0.085-0.146-0.177-0.287-0.265-0.43
		c-0.103-0.162-0.2-0.324-0.307-0.484c-0.094-0.143-0.195-0.284-0.293-0.424c-0.105-0.155-0.213-0.312-0.324-0.465
		c-0.104-0.142-0.213-0.279-0.322-0.416c-0.114-0.152-0.229-0.303-0.35-0.449c-0.109-0.135-0.227-0.27-0.342-0.401
		c-0.125-0.146-0.248-0.295-0.378-0.438c-0.116-0.129-0.237-0.252-0.354-0.379c-0.14-0.145-0.276-0.291-0.42-0.434
		c-0.115-0.115-0.233-0.227-0.352-0.34c-0.145-0.139-0.289-0.277-0.438-0.413c-0.107-0.099-0.222-0.19-0.332-0.288
		c-0.162-0.141-0.321-0.282-0.487-0.418c-0.101-0.082-0.202-0.157-0.302-0.236c-0.182-0.146-0.363-0.289-0.549-0.425
		c-0.086-0.063-0.174-0.124-0.261-0.187c-0.204-0.146-0.407-0.293-0.616-0.432c-0.07-0.047-0.144-0.091-0.213-0.136
		c-0.229-0.147-0.457-0.295-0.688-0.435c-0.054-0.033-0.11-0.063-0.165-0.094c-0.251-0.148-0.504-0.291-0.76-0.43
		c-0.039-0.02-0.078-0.039-0.117-0.061c-0.273-0.142-0.549-0.281-0.828-0.414c-0.023-0.012-0.047-0.021-0.068-0.029
		c-0.297-0.139-0.596-0.271-0.896-0.395c-0.013-0.006-0.023-0.01-0.034-0.015c-0.313-0.129-0.629-0.251-0.949-0.364
		c-0.003-0.002-0.005-0.002-0.009-0.004c-0.255-0.089-0.515-0.174-0.772-0.253c-0.396,0.261-0.828,0.462-1.289,0.599v9.871H146.953z
		"/>
	<path fill="none" d="M232.231,15.442c-11.978,0-21.722,9.744-21.722,21.721c0,3.611,0.892,7.018,2.455,10.016
		c0.447,0.093,0.883,0.245,1.293,0.462l7.013-6.957c-0.356-1.109-0.552-2.292-0.552-3.521c0-6.356,5.154-11.511,11.513-11.511
		s11.511,5.153,11.511,11.511c0,6.358-5.152,11.512-11.511,11.512c-1.259,0-2.469-0.204-3.604-0.577l-7.008,6.954
		c0.223,0.418,0.381,0.86,0.475,1.313c3.027,1.604,6.478,2.52,10.138,2.52c11.978,0,21.72-9.743,21.72-21.722
		C253.951,25.187,244.209,15.442,232.231,15.442z"/>
	<path fill="#231F20" d="M232.231,7.085c-16.612,0-30.078,13.466-30.078,30.077c0,5.107,1.276,9.915,3.522,14.127L164.89,91.571
		c-1.608,1.59-1.892,4.01-0.849,5.896l-22.311,22.141l-22.312-22.141c1.044-1.886,0.761-4.306-0.848-5.896L77.786,51.29
		c2.246-4.212,3.522-9.02,3.522-14.127c0-16.611-13.466-30.077-30.078-30.077c-16.61,0-30.078,13.466-30.078,30.077
		S34.62,67.241,51.229,67.241c5.17,0,10.034-1.306,14.282-3.603l40.825,40.319c1.548,1.529,3.851,1.82,5.691,0.893l24.479,24.29
		v26.282c-2.06,0.6-3.563,2.494-3.56,4.746l0.077,38.367l-0.038,18.98c-0.213,0.064-0.423,0.138-0.634,0.206
		c-0.188,0.06-0.374,0.114-0.561,0.183c-0.273,0.096-0.543,0.201-0.813,0.305c-0.185,0.07-0.37,0.135-0.552,0.211
		c-0.27,0.107-0.534,0.229-0.801,0.344c-0.183,0.08-0.365,0.154-0.547,0.24c-0.262,0.121-0.521,0.252-0.781,0.383
		c-0.18,0.09-0.361,0.174-0.541,0.27c-0.254,0.135-0.506,0.277-0.758,0.42c-0.179,0.102-0.36,0.197-0.537,0.303
		c-0.246,0.145-0.485,0.299-0.729,0.453c-0.182,0.112-0.361,0.221-0.539,0.336c-0.234,0.156-0.465,0.32-0.695,0.482
		c-0.181,0.126-0.363,0.248-0.541,0.379c-0.223,0.165-0.439,0.336-0.658,0.508c-0.182,0.141-0.364,0.278-0.544,0.424
		c-0.208,0.17-0.411,0.351-0.617,0.525c-0.183,0.157-0.367,0.313-0.547,0.475c-0.194,0.174-0.383,0.357-0.574,0.541
		c-0.155,0.147-0.313,0.287-0.467,0.44c-0.03,0.029-0.057,0.062-0.086,0.089c-0.03,0.031-0.062,0.059-0.093,0.09
		c-0.153,0.154-0.297,0.314-0.445,0.473c-0.178,0.187-0.359,0.373-0.532,0.564c-0.167,0.184-0.327,0.375-0.489,0.564
		c-0.171,0.197-0.345,0.396-0.51,0.598c-0.155,0.191-0.302,0.385-0.45,0.577c-0.161,0.206-0.324,0.413-0.479,0.622
		c-0.145,0.197-0.28,0.396-0.419,0.598c-0.148,0.211-0.299,0.422-0.44,0.637c-0.134,0.205-0.261,0.412-0.391,0.619
		c-0.135,0.215-0.271,0.43-0.399,0.646c-0.126,0.211-0.243,0.43-0.363,0.645c-0.12,0.215-0.244,0.432-0.358,0.65
		c-0.116,0.221-0.225,0.443-0.335,0.668c-0.106,0.219-0.217,0.434-0.317,0.65c-0.107,0.23-0.206,0.464-0.306,0.695
		c-0.095,0.217-0.191,0.432-0.279,0.649c-0.096,0.237-0.184,0.476-0.272,0.715c-0.082,0.216-0.166,0.433-0.244,0.649
		c-0.084,0.244-0.16,0.488-0.238,0.732c-0.07,0.219-0.144,0.436-0.208,0.653c-0.073,0.248-0.138,0.497-0.204,0.746
		c-0.059,0.217-0.121,0.437-0.175,0.655c-0.061,0.25-0.113,0.5-0.167,0.752c-0.049,0.222-0.101,0.443-0.144,0.666
		c-0.049,0.248-0.088,0.498-0.13,0.75c-0.038,0.227-0.079,0.451-0.111,0.678c-0.035,0.248-0.063,0.497-0.093,0.746
		c-0.027,0.23-0.058,0.459-0.08,0.689c-0.023,0.244-0.038,0.49-0.056,0.736c-0.017,0.234-0.036,0.471-0.048,0.706
		c-0.011,0.241-0.014,0.481-0.02,0.724c-0.007,0.24-0.015,0.479-0.015,0.723c0,0.236,0.008,0.473,0.014,0.707
		c0.006,0.248,0.009,0.492,0.021,0.738c0.012,0.23,0.03,0.461,0.047,0.692c0.018,0.25,0.033,0.499,0.057,0.75
		c0.022,0.226,0.053,0.45,0.079,0.677c0.03,0.254,0.058,0.508,0.094,0.76c0.032,0.223,0.072,0.443,0.109,0.664
		c0.043,0.256,0.083,0.51,0.132,0.764c0.043,0.221,0.094,0.436,0.141,0.652c0.055,0.256,0.108,0.512,0.17,0.764
		c0.054,0.217,0.113,0.432,0.173,0.646c0.066,0.254,0.132,0.504,0.206,0.756c0.064,0.215,0.136,0.428,0.204,0.641
		c0.08,0.248,0.158,0.498,0.243,0.746c0.075,0.213,0.158,0.425,0.237,0.638c0.093,0.241,0.182,0.485,0.279,0.729
		c0.087,0.215,0.182,0.426,0.273,0.639c0.103,0.234,0.202,0.474,0.311,0.705c0.1,0.215,0.208,0.428,0.313,0.641
		c0.113,0.227,0.222,0.455,0.341,0.68c0.112,0.215,0.234,0.426,0.352,0.639c0.122,0.221,0.241,0.439,0.37,0.656
		c0.127,0.215,0.261,0.424,0.393,0.635c0.133,0.211,0.26,0.422,0.396,0.629c0.142,0.213,0.289,0.422,0.436,0.63
		c0.141,0.202,0.278,0.403,0.425,0.604c0.152,0.207,0.314,0.41,0.473,0.617c0.151,0.191,0.299,0.391,0.455,0.58
		c0.165,0.202,0.338,0.396,0.508,0.596c0.163,0.19,0.323,0.383,0.491,0.568c0.173,0.189,0.354,0.375,0.531,0.563
		c0.148,0.158,0.292,0.317,0.445,0.474c0.03,0.03,0.063,0.058,0.093,0.089c0.03,0.029,0.057,0.061,0.087,0.092
		c0.154,0.15,0.313,0.295,0.471,0.441c0.188,0.18,0.376,0.363,0.568,0.537c0.183,0.164,0.37,0.322,0.556,0.48
		c0.202,0.174,0.403,0.352,0.608,0.518c0.185,0.152,0.372,0.291,0.558,0.436c0.214,0.167,0.427,0.336,0.646,0.495
		c0.186,0.138,0.375,0.265,0.563,0.396c0.225,0.158,0.445,0.315,0.672,0.467c0.188,0.123,0.382,0.24,0.573,0.359
		c0.229,0.146,0.46,0.293,0.692,0.432c0.193,0.113,0.391,0.218,0.584,0.328c0.237,0.131,0.473,0.267,0.713,0.394
		c0.199,0.104,0.401,0.199,0.604,0.3c0.236,0.119,0.477,0.241,0.715,0.354c0.209,0.096,0.42,0.182,0.631,0.275
		c0.237,0.103,0.475,0.211,0.717,0.309c0.217,0.087,0.437,0.166,0.654,0.248c0.236,0.09,0.473,0.185,0.711,0.267
		c0.227,0.08,0.457,0.149,0.687,0.224c0.231,0.074,0.465,0.154,0.698,0.224c0.24,0.071,0.481,0.134,0.724,0.198
		c0.226,0.06,0.45,0.125,0.678,0.182c0.257,0.063,0.517,0.113,0.772,0.169c0.215,0.047,0.428,0.099,0.642,0.14
		c0.276,0.055,0.558,0.096,0.834,0.144c0.197,0.032,0.396,0.069,0.593,0.098c0.303,0.044,0.607,0.077,0.911,0.11
		c0.175,0.021,0.349,0.047,0.523,0.063c0.352,0.033,0.702,0.057,1.057,0.078c0.127,0.006,0.255,0.02,0.384,0.025
		c0.479,0.023,0.961,0.033,1.442,0.033c0.001,0,0.001,0,0.001,0c0.001,0,0.001,0,0.001,0c0.479,0,0.963-0.01,1.442-0.033
		c0.129-0.006,0.256-0.02,0.385-0.025c0.352-0.021,0.705-0.045,1.057-0.078c0.176-0.016,0.348-0.041,0.523-0.063
		c0.303-0.033,0.607-0.066,0.91-0.11c0.199-0.026,0.395-0.063,0.593-0.098c0.278-0.048,0.557-0.089,0.833-0.144
		c0.215-0.041,0.428-0.093,0.641-0.14c0.26-0.056,0.518-0.106,0.775-0.169c0.229-0.057,0.451-0.122,0.678-0.182
		c0.24-0.064,0.482-0.127,0.723-0.198c0.234-0.068,0.465-0.148,0.699-0.224c0.229-0.074,0.458-0.144,0.686-0.224
		c0.238-0.082,0.475-0.177,0.712-0.267c0.219-0.082,0.438-0.161,0.653-0.248c0.242-0.098,0.479-0.206,0.717-0.309
		c0.211-0.095,0.422-0.181,0.631-0.275c0.238-0.111,0.477-0.233,0.715-0.354c0.203-0.101,0.406-0.195,0.604-0.3
		c0.24-0.127,0.477-0.263,0.713-0.394c0.193-0.11,0.391-0.215,0.584-0.328c0.233-0.139,0.463-0.286,0.691-0.432
		c0.192-0.119,0.385-0.236,0.575-0.359c0.228-0.15,0.446-0.309,0.67-0.467c0.188-0.131,0.378-0.258,0.563-0.396
		c0.217-0.159,0.431-0.328,0.645-0.495c0.186-0.145,0.373-0.283,0.559-0.436c0.203-0.166,0.405-0.344,0.607-0.518
		c0.188-0.158,0.373-0.316,0.555-0.48c0.193-0.174,0.381-0.357,0.569-0.537c0.157-0.146,0.315-0.291,0.47-0.441
		c0.031-0.031,0.057-0.063,0.088-0.092c0.029-0.031,0.063-0.059,0.092-0.089c0.154-0.155,0.299-0.315,0.447-0.474
		c0.178-0.188,0.357-0.373,0.529-0.563c0.169-0.188,0.329-0.378,0.492-0.568c0.17-0.197,0.343-0.394,0.507-0.596
		c0.157-0.189,0.306-0.389,0.457-0.58c0.157-0.207,0.319-0.41,0.474-0.617c0.146-0.201,0.283-0.402,0.424-0.604
		c0.146-0.208,0.293-0.417,0.436-0.63c0.136-0.207,0.266-0.418,0.396-0.629c0.133-0.211,0.268-0.42,0.394-0.635
		c0.129-0.217,0.247-0.437,0.369-0.656c0.118-0.213,0.239-0.424,0.354-0.639c0.116-0.225,0.227-0.453,0.34-0.68
		c0.104-0.213,0.211-0.426,0.312-0.641c0.11-0.231,0.209-0.471,0.312-0.705c0.092-0.213,0.188-0.424,0.273-0.639
		c0.098-0.242,0.188-0.484,0.277-0.729c0.08-0.213,0.162-0.425,0.238-0.638c0.086-0.248,0.164-0.498,0.243-0.746
		c0.068-0.213,0.14-0.426,0.205-0.641c0.073-0.252,0.138-0.502,0.206-0.756c0.059-0.216,0.118-0.431,0.172-0.646
		c0.061-0.252,0.115-0.508,0.17-0.764c0.047-0.218,0.098-0.433,0.141-0.652c0.051-0.254,0.09-0.508,0.132-0.764
		c0.036-0.221,0.077-0.441,0.108-0.664c0.037-0.252,0.064-0.506,0.096-0.76c0.025-0.227,0.056-0.451,0.078-0.677
		c0.024-0.251,0.039-0.5,0.059-0.75c0.016-0.231,0.033-0.462,0.045-0.692c0.014-0.246,0.016-0.49,0.021-0.738
		c0.006-0.234,0.015-0.471,0.015-0.707c0-0.242-0.009-0.481-0.015-0.723c-0.006-0.24-0.008-0.48-0.021-0.724
		c-0.012-0.235-0.029-0.472-0.048-0.706c-0.019-0.246-0.032-0.492-0.056-0.736c-0.022-0.23-0.053-0.459-0.08-0.689
		c-0.029-0.249-0.057-0.498-0.094-0.746c-0.031-0.227-0.072-0.451-0.109-0.678c-0.041-0.252-0.081-0.502-0.129-0.75
		c-0.045-0.223-0.098-0.444-0.146-0.666c-0.054-0.252-0.106-0.502-0.167-0.752c-0.054-0.219-0.115-0.438-0.176-0.655
		c-0.064-0.249-0.13-0.498-0.202-0.746c-0.065-0.218-0.14-0.437-0.21-0.653c-0.078-0.244-0.154-0.488-0.236-0.732
		c-0.078-0.217-0.162-0.432-0.244-0.649c-0.09-0.237-0.178-0.478-0.273-0.715c-0.088-0.218-0.186-0.433-0.277-0.647
		c-0.102-0.233-0.199-0.467-0.307-0.697c-0.102-0.219-0.211-0.434-0.316-0.65c-0.111-0.225-0.22-0.447-0.336-0.668
		c-0.113-0.221-0.238-0.436-0.357-0.65c-0.121-0.215-0.238-0.434-0.363-0.645c-0.129-0.217-0.266-0.432-0.398-0.646
		c-0.131-0.207-0.258-0.414-0.392-0.619c-0.142-0.215-0.292-0.426-0.44-0.637c-0.139-0.199-0.273-0.4-0.418-0.598
		c-0.154-0.209-0.316-0.416-0.479-0.622c-0.147-0.192-0.295-0.386-0.451-0.577c-0.165-0.201-0.338-0.398-0.508-0.598
		c-0.163-0.189-0.323-0.383-0.491-0.564c-0.172-0.191-0.354-0.379-0.531-0.564c-0.147-0.157-0.293-0.317-0.445-0.473
		c-0.03-0.031-0.063-0.059-0.092-0.09c-0.031-0.027-0.057-0.06-0.088-0.089c-0.152-0.153-0.311-0.293-0.467-0.44
		c-0.189-0.184-0.379-0.367-0.572-0.541c-0.18-0.162-0.365-0.316-0.547-0.475c-0.207-0.176-0.41-0.355-0.619-0.525
		c-0.179-0.146-0.361-0.283-0.541-0.422c-0.22-0.172-0.438-0.345-0.662-0.51c-0.176-0.131-0.356-0.253-0.537-0.377
		c-0.23-0.162-0.463-0.328-0.696-0.484c-0.179-0.115-0.358-0.224-0.539-0.336c-0.242-0.154-0.481-0.31-0.729-0.453
		c-0.178-0.104-0.358-0.203-0.539-0.303c-0.252-0.143-0.502-0.285-0.758-0.42c-0.177-0.096-0.359-0.18-0.539-0.269
		c-0.261-0.132-0.52-0.265-0.781-0.384c-0.18-0.086-0.364-0.16-0.545-0.24c-0.268-0.117-0.532-0.235-0.803-0.344
		c-0.183-0.076-0.367-0.141-0.553-0.211c-0.27-0.104-0.54-0.209-0.813-0.305c-0.188-0.066-0.375-0.123-0.563-0.186
		c-0.209-0.068-0.419-0.139-0.631-0.203l-0.038-18.98l0.076-38.367c0.005-2.252-1.499-4.146-3.559-4.746v-26.282l24.479-24.29
		c1.841,0.93,4.145,0.638,5.689-0.893l40.826-40.319c4.248,2.297,9.111,3.603,14.282,3.603c16.61,0,30.078-13.467,30.078-30.078
		S248.842,7.085,232.231,7.085z M70.495,47.178c-0.446,0.093-0.881,0.245-1.292,0.462l-7.011-6.957
		c0.356-1.109,0.551-2.292,0.551-3.521c0-6.356-5.154-11.511-11.513-11.511c-6.357,0-11.512,5.152-11.512,11.511
		s5.154,11.512,11.512,11.512c1.259,0,2.47-0.204,3.604-0.578l7.009,6.955c-0.224,0.418-0.381,0.86-0.476,1.313
		c-3.028,1.604-6.477,2.52-10.137,2.52c-11.977,0-21.721-9.743-21.721-21.722c0-11.977,9.744-21.721,21.721-21.721
		c11.978,0,21.722,9.744,21.722,21.721C72.952,40.774,72.06,44.179,70.495,47.178z M148.242,225.572
		c0.26,0.079,0.52,0.164,0.773,0.253c0.004,0.002,0.006,0.002,0.009,0.004c0.319,0.113,0.638,0.235,0.949,0.364
		c0.011,0.005,0.022,0.009,0.034,0.015c0.301,0.123,0.6,0.256,0.896,0.395c0.021,0.009,0.045,0.02,0.068,0.029
		c0.28,0.133,0.555,0.272,0.827,0.414c0.039,0.021,0.08,0.041,0.119,0.061c0.254,0.139,0.508,0.279,0.758,0.43
		c0.056,0.03,0.111,0.061,0.166,0.094c0.231,0.14,0.461,0.285,0.688,0.435c0.07,0.045,0.143,0.089,0.213,0.136
		c0.209,0.139,0.412,0.284,0.617,0.432c0.086,0.063,0.174,0.121,0.26,0.187c0.187,0.136,0.368,0.279,0.549,0.425
		c0.101,0.079,0.203,0.154,0.303,0.236c0.166,0.136,0.324,0.277,0.486,0.418c0.111,0.098,0.226,0.189,0.334,0.288
		c0.146,0.136,0.291,0.274,0.437,0.413c0.116,0.113,0.235,0.225,0.353,0.34c0.143,0.143,0.279,0.289,0.418,0.434
		c0.117,0.127,0.239,0.25,0.355,0.379c0.13,0.144,0.253,0.291,0.378,0.438c0.115,0.133,0.231,0.267,0.342,0.401
		c0.12,0.146,0.234,0.297,0.351,0.449c0.107,0.137,0.217,0.274,0.32,0.416c0.112,0.153,0.219,0.31,0.325,0.465
		c0.099,0.14,0.199,0.281,0.293,0.424c0.104,0.16,0.204,0.322,0.306,0.484c0.088,0.143,0.181,0.283,0.266,0.43
		c0.098,0.164,0.189,0.334,0.281,0.5c0.08,0.145,0.162,0.289,0.24,0.436c0.09,0.171,0.174,0.346,0.258,0.516
		c0.07,0.146,0.145,0.291,0.213,0.438c0.082,0.178,0.156,0.355,0.234,0.533c0.063,0.146,0.127,0.291,0.188,0.439
		c0.072,0.18,0.141,0.361,0.208,0.543c0.056,0.149,0.112,0.297,0.165,0.444c0.063,0.183,0.121,0.366,0.18,0.552
		c0.048,0.149,0.098,0.299,0.143,0.449c0.057,0.186,0.104,0.371,0.153,0.557c0.04,0.151,0.083,0.305,0.121,0.457
		c0.044,0.185,0.083,0.371,0.123,0.557c0.034,0.156,0.069,0.313,0.101,0.469c0.037,0.184,0.064,0.366,0.096,0.551
		c0.025,0.16,0.056,0.322,0.08,0.48c0.023,0.181,0.045,0.361,0.065,0.543c0.021,0.166,0.042,0.33,0.058,0.496
		c0.018,0.177,0.027,0.354,0.039,0.531c0.016,0.172,0.027,0.34,0.035,0.514c0.008,0.171,0.01,0.344,0.016,0.515
		c0.005,0.179,0.011,0.354,0.011,0.531c0,0.166-0.005,0.333-0.01,0.497c-0.003,0.184-0.007,0.363-0.017,0.548
		c-0.008,0.16-0.021,0.319-0.033,0.481c-0.01,0.188-0.022,0.373-0.041,0.561c-0.016,0.156-0.035,0.313-0.055,0.468
		c-0.021,0.188-0.043,0.382-0.068,0.57c-0.023,0.153-0.051,0.305-0.076,0.455c-0.031,0.192-0.063,0.387-0.1,0.577
		c-0.027,0.148-0.063,0.295-0.095,0.443c-0.043,0.193-0.083,0.389-0.129,0.58c-0.037,0.146-0.077,0.29-0.116,0.436
		c-0.052,0.193-0.102,0.387-0.158,0.58c-0.041,0.144-0.09,0.283-0.137,0.428c-0.061,0.191-0.121,0.382-0.188,0.572
		c-0.049,0.143-0.105,0.285-0.157,0.427c-0.071,0.187-0.14,0.376-0.216,0.563c-0.057,0.141-0.12,0.28-0.182,0.424
		c-0.078,0.182-0.154,0.363-0.238,0.545c-0.066,0.143-0.139,0.283-0.209,0.428c-0.086,0.175-0.17,0.354-0.264,0.525
		c-0.074,0.145-0.156,0.283-0.234,0.426c-0.094,0.17-0.186,0.341-0.285,0.507c-0.085,0.146-0.176,0.288-0.266,0.431
		c-0.101,0.162-0.199,0.324-0.305,0.48c-0.095,0.147-0.195,0.287-0.295,0.433c-0.107,0.151-0.212,0.31-0.324,0.459
		c-0.104,0.144-0.217,0.284-0.324,0.425c-0.115,0.148-0.228,0.295-0.344,0.438c-0.115,0.141-0.234,0.278-0.354,0.416
		c-0.121,0.142-0.24,0.284-0.365,0.422c-0.123,0.137-0.251,0.269-0.376,0.399c-0.132,0.14-0.261,0.278-0.396,0.412
		c-0.123,0.125-0.252,0.244-0.381,0.366c-0.135,0.13-0.27,0.261-0.408,0.384c-0.119,0.111-0.244,0.213-0.365,0.319
		c-0.151,0.131-0.301,0.263-0.452,0.39c-0.114,0.094-0.229,0.18-0.347,0.271c-0.168,0.131-0.334,0.264-0.504,0.392
		c-0.103,0.074-0.207,0.147-0.313,0.221c-0.188,0.133-0.373,0.27-0.564,0.396c-0.09,0.061-0.184,0.117-0.275,0.178
		c-0.207,0.131-0.412,0.266-0.623,0.391c-0.08,0.05-0.161,0.092-0.241,0.139c-0.228,0.131-0.453,0.262-0.685,0.387
		c-0.065,0.035-0.135,0.065-0.202,0.102c-0.246,0.13-0.492,0.254-0.743,0.373c-0.057,0.025-0.111,0.05-0.169,0.076
		c-0.265,0.119-0.526,0.24-0.796,0.351c-0.051,0.021-0.102,0.038-0.15,0.058c-0.275,0.111-0.553,0.221-0.833,0.32
		c-0.046,0.016-0.095,0.031-0.143,0.046c-0.284,0.101-0.568,0.195-0.857,0.282c-0.052,0.016-0.104,0.029-0.157,0.045
		c-0.283,0.082-0.568,0.162-0.857,0.234c-0.066,0.016-0.141,0.031-0.209,0.047c-0.273,0.064-0.545,0.129-0.82,0.183
		c-0.098,0.021-0.195,0.033-0.293,0.052c-0.249,0.047-0.5,0.094-0.751,0.129c-0.14,0.021-0.282,0.035-0.422,0.053
		c-0.212,0.027-0.424,0.059-0.638,0.078c-0.217,0.02-0.438,0.033-0.655,0.049c-0.138,0.009-0.274,0.021-0.414,0.029
		c-0.36,0.018-0.724,0.025-1.085,0.025c-0.363,0-0.725-0.009-1.084-0.025c-0.139-0.008-0.275-0.021-0.415-0.029
		c-0.22-0.016-0.438-0.029-0.655-0.049c-0.214-0.021-0.426-0.051-0.638-0.078c-0.14-0.018-0.281-0.03-0.421-0.053
		c-0.253-0.035-0.503-0.082-0.753-0.129c-0.099-0.019-0.195-0.031-0.291-0.052c-0.275-0.054-0.55-0.118-0.821-0.183
		c-0.068-0.016-0.141-0.031-0.209-0.047c-0.288-0.072-0.572-0.152-0.855-0.234c-0.053-0.016-0.106-0.029-0.16-0.045
		c-0.287-0.087-0.572-0.182-0.856-0.282c-0.047-0.015-0.096-0.03-0.144-0.046c-0.279-0.102-0.557-0.209-0.832-0.32
		c-0.051-0.02-0.102-0.037-0.15-0.058c-0.27-0.11-0.531-0.229-0.796-0.353c-0.058-0.024-0.114-0.049-0.169-0.074
		c-0.25-0.119-0.498-0.243-0.744-0.372c-0.066-0.036-0.135-0.066-0.201-0.103c-0.23-0.125-0.459-0.256-0.686-0.387
		c-0.08-0.047-0.16-0.089-0.239-0.139c-0.211-0.125-0.417-0.26-0.625-0.393c-0.092-0.059-0.185-0.115-0.276-0.176
		c-0.189-0.127-0.375-0.263-0.563-0.396c-0.104-0.072-0.209-0.146-0.313-0.221c-0.172-0.128-0.338-0.261-0.504-0.392
		c-0.115-0.093-0.231-0.179-0.346-0.271c-0.152-0.127-0.302-0.259-0.452-0.387c-0.122-0.109-0.247-0.211-0.368-0.322
		c-0.138-0.123-0.271-0.254-0.406-0.384c-0.127-0.122-0.256-0.239-0.381-0.366c-0.136-0.136-0.265-0.274-0.396-0.412
		c-0.126-0.131-0.254-0.264-0.376-0.397c-0.126-0.14-0.245-0.282-0.366-0.424c-0.118-0.138-0.239-0.275-0.354-0.416
		c-0.117-0.144-0.229-0.29-0.342-0.438c-0.109-0.141-0.222-0.281-0.326-0.425c-0.112-0.149-0.217-0.308-0.324-0.459
		c-0.1-0.146-0.2-0.284-0.295-0.433c-0.105-0.156-0.203-0.318-0.305-0.48c-0.09-0.142-0.181-0.283-0.266-0.431
		c-0.1-0.166-0.191-0.335-0.284-0.505c-0.08-0.141-0.161-0.283-0.237-0.428c-0.092-0.176-0.176-0.352-0.263-0.525
		c-0.07-0.143-0.142-0.285-0.208-0.428c-0.084-0.182-0.16-0.363-0.239-0.549c-0.062-0.14-0.124-0.281-0.182-0.42
		c-0.076-0.188-0.145-0.377-0.215-0.564c-0.053-0.143-0.108-0.282-0.158-0.424c-0.065-0.188-0.126-0.383-0.187-0.573
		c-0.046-0.142-0.094-0.284-0.137-0.429c-0.057-0.192-0.106-0.387-0.159-0.58c-0.037-0.145-0.078-0.287-0.114-0.434
		c-0.047-0.191-0.088-0.388-0.13-0.582c-0.031-0.146-0.065-0.293-0.094-0.441c-0.037-0.191-0.068-0.385-0.101-0.578
		c-0.025-0.15-0.052-0.303-0.074-0.455c-0.027-0.188-0.049-0.379-0.071-0.568c-0.018-0.156-0.038-0.313-0.053-0.47
		c-0.018-0.187-0.03-0.373-0.042-0.56c-0.013-0.16-0.026-0.322-0.034-0.482c-0.009-0.184-0.011-0.363-0.015-0.548
		c-0.004-0.164-0.01-0.331-0.01-0.497c0-0.178,0.006-0.354,0.011-0.531c0.004-0.171,0.007-0.344,0.014-0.515
		c0.01-0.171,0.022-0.343,0.035-0.513c0.012-0.179,0.023-0.355,0.04-0.531c0.016-0.166,0.037-0.33,0.058-0.497
		c0.021-0.183,0.041-0.362,0.067-0.542c0.022-0.159,0.053-0.321,0.079-0.483c0.029-0.183,0.059-0.366,0.094-0.549
		c0.031-0.157,0.067-0.313,0.102-0.47c0.04-0.186,0.079-0.371,0.123-0.557c0.038-0.152,0.081-0.305,0.122-0.457
		c0.049-0.187,0.098-0.371,0.151-0.556c0.045-0.149,0.095-0.3,0.143-0.45c0.06-0.185,0.117-0.369,0.182-0.553
		c0.051-0.146,0.108-0.293,0.164-0.441c0.067-0.183,0.134-0.365,0.207-0.545c0.061-0.148,0.126-0.293,0.189-0.438
		c0.076-0.179,0.151-0.354,0.232-0.533c0.068-0.146,0.143-0.29,0.214-0.437c0.085-0.172,0.168-0.348,0.257-0.517
		c0.078-0.146,0.16-0.291,0.241-0.435c0.092-0.17,0.183-0.336,0.281-0.5c0.085-0.146,0.177-0.288,0.267-0.434
		c0.101-0.16,0.199-0.322,0.304-0.482c0.095-0.141,0.194-0.283,0.294-0.424c0.107-0.154,0.214-0.313,0.326-0.463
		c0.104-0.143,0.212-0.279,0.318-0.418c0.116-0.15,0.23-0.302,0.35-0.449c0.111-0.135,0.23-0.269,0.344-0.4
		c0.125-0.146,0.248-0.295,0.378-0.438c0.117-0.129,0.237-0.254,0.356-0.381c0.139-0.144,0.273-0.289,0.416-0.433
		c0.117-0.117,0.236-0.228,0.354-0.34c0.146-0.138,0.287-0.277,0.437-0.41c0.108-0.101,0.224-0.194,0.334-0.293
		c0.162-0.142,0.32-0.28,0.486-0.416c0.1-0.082,0.204-0.159,0.307-0.241c0.179-0.141,0.359-0.283,0.541-0.42
		c0.09-0.066,0.181-0.127,0.271-0.191c0.201-0.144,0.402-0.287,0.606-0.426c0.074-0.049,0.148-0.094,0.222-0.143
		c0.226-0.145,0.451-0.29,0.683-0.428c0.057-0.033,0.113-0.064,0.172-0.098c0.248-0.146,0.498-0.289,0.752-0.426
		c0.041-0.02,0.082-0.039,0.123-0.063c0.271-0.143,0.545-0.279,0.822-0.41c0.027-0.014,0.055-0.024,0.082-0.037
		c0.293-0.137,0.586-0.268,0.883-0.389c0.016-0.008,0.029-0.013,0.043-0.017c0.312-0.129,0.623-0.249,0.941-0.362
		c0.005-0.002,0.012-0.004,0.018-0.007c0.254-0.088,0.51-0.171,0.766-0.25c0.395,0.261,0.826,0.462,1.289,0.599v9.869
		c-0.043,0.021-0.086,0.043-0.127,0.064c-0.092,0.049-0.182,0.1-0.271,0.15c-0.076,0.041-0.15,0.082-0.225,0.123
		c-0.09,0.057-0.18,0.111-0.268,0.168c-0.072,0.043-0.146,0.088-0.218,0.138c-0.087,0.058-0.173,0.116-0.258,0.178
		c-0.071,0.052-0.146,0.101-0.216,0.149c-0.083,0.063-0.164,0.128-0.246,0.191c-0.071,0.053-0.145,0.108-0.215,0.166
		c-0.077,0.064-0.154,0.133-0.23,0.195c-0.072,0.064-0.145,0.125-0.216,0.188c-0.069,0.066-0.142,0.133-0.211,0.199
		c-0.062,0.061-0.124,0.115-0.185,0.176c-0.014,0.012-0.023,0.024-0.037,0.035c-0.01,0.012-0.021,0.021-0.031,0.033
		c-0.057,0.055-0.105,0.111-0.159,0.167c-0.071,0.077-0.146,0.152-0.217,0.229c-0.062,0.068-0.12,0.139-0.179,0.207
		c-0.069,0.08-0.139,0.158-0.203,0.238c-0.059,0.069-0.113,0.144-0.17,0.217c-0.063,0.08-0.125,0.16-0.186,0.242
		c-0.056,0.075-0.107,0.152-0.162,0.229c-0.057,0.083-0.113,0.16-0.166,0.242c-0.054,0.08-0.104,0.162-0.154,0.244
		c-0.049,0.08-0.1,0.158-0.146,0.237c-0.051,0.087-0.098,0.173-0.146,0.261c-0.043,0.076-0.088,0.154-0.129,0.234
		c-0.049,0.088-0.092,0.18-0.138,0.271c-0.038,0.076-0.077,0.154-0.114,0.234c-0.043,0.094-0.082,0.188-0.123,0.282
		c-0.035,0.077-0.067,0.151-0.101,0.229c-0.04,0.099-0.075,0.197-0.11,0.295c-0.029,0.076-0.061,0.152-0.086,0.229
		c-0.035,0.101-0.066,0.199-0.1,0.3c-0.023,0.077-0.051,0.152-0.072,0.229c-0.029,0.104-0.058,0.205-0.084,0.309
		c-0.021,0.075-0.043,0.152-0.063,0.229c-0.024,0.104-0.047,0.209-0.069,0.312c-0.017,0.078-0.033,0.153-0.049,0.229
		c-0.021,0.104-0.036,0.209-0.054,0.313c-0.014,0.078-0.027,0.155-0.039,0.233c-0.016,0.104-0.025,0.208-0.039,0.313
		c-0.01,0.078-0.02,0.158-0.026,0.238c-0.01,0.102-0.017,0.204-0.022,0.309c-0.006,0.08-0.015,0.162-0.018,0.244
		c-0.005,0.1-0.006,0.202-0.009,0.303c-0.001,0.082-0.005,0.166-0.005,0.248c0,0.101,0.004,0.199,0.006,0.299
		c0.002,0.086,0.003,0.17,0.007,0.257c0.006,0.096,0.013,0.192,0.021,0.291c0.006,0.086,0.013,0.173,0.021,0.26
		c0.009,0.095,0.021,0.19,0.033,0.286c0.011,0.086,0.021,0.175,0.032,0.264c0.015,0.094,0.031,0.188,0.047,0.28
		c0.014,0.089,0.027,0.179,0.046,0.267c0.019,0.092,0.038,0.185,0.058,0.275c0.021,0.088,0.039,0.18,0.063,0.27
		c0.021,0.088,0.047,0.176,0.07,0.266c0.023,0.092,0.047,0.181,0.073,0.27c0.026,0.088,0.058,0.18,0.084,0.27
		c0.029,0.086,0.058,0.175,0.087,0.262c0.031,0.089,0.065,0.175,0.1,0.264c0.031,0.088,0.063,0.174,0.099,0.26
		c0.035,0.09,0.074,0.175,0.112,0.264c0.035,0.084,0.072,0.168,0.111,0.253c0.041,0.086,0.084,0.173,0.127,0.261
		c0.041,0.081,0.08,0.163,0.123,0.245c0.045,0.087,0.094,0.171,0.142,0.257c0.045,0.082,0.089,0.161,0.135,0.238
		c0.052,0.084,0.104,0.169,0.157,0.253c0.049,0.078,0.096,0.155,0.146,0.231c0.055,0.084,0.113,0.166,0.172,0.25
		c0.051,0.074,0.104,0.148,0.156,0.223c0.061,0.082,0.123,0.16,0.186,0.238c0.057,0.074,0.113,0.146,0.171,0.222
		c0.063,0.077,0.13,0.151,0.194,0.229c0.063,0.07,0.123,0.146,0.188,0.217c0.063,0.07,0.131,0.141,0.198,0.211
		c0.059,0.063,0.115,0.125,0.175,0.188c0.013,0.012,0.024,0.021,0.037,0.033c0.011,0.012,0.021,0.021,0.03,0.033
		c0.055,0.053,0.11,0.104,0.166,0.154c0.078,0.076,0.154,0.15,0.234,0.223c0.064,0.059,0.131,0.113,0.195,0.171
		c0.083,0.071,0.165,0.144,0.25,0.211c0.064,0.054,0.133,0.104,0.199,0.155c0.086,0.066,0.173,0.136,0.26,0.199
		c0.068,0.052,0.137,0.097,0.203,0.146c0.09,0.062,0.179,0.126,0.271,0.187c0.069,0.045,0.142,0.09,0.212,0.134
		c0.09,0.056,0.18,0.112,0.271,0.166c0.072,0.045,0.146,0.085,0.221,0.127c0.092,0.051,0.184,0.103,0.273,0.151
		c0.076,0.039,0.154,0.076,0.231,0.114c0.091,0.044,0.183,0.091,0.274,0.134c0.078,0.037,0.16,0.07,0.24,0.105
		c0.091,0.04,0.182,0.08,0.273,0.118c0.082,0.032,0.166,0.063,0.251,0.096c0.091,0.033,0.181,0.067,0.271,0.103
		c0.088,0.028,0.175,0.056,0.262,0.084c0.09,0.029,0.18,0.061,0.27,0.086c0.088,0.027,0.178,0.05,0.268,0.074
		c0.09,0.023,0.18,0.049,0.27,0.07s0.182,0.04,0.272,0.061c0.09,0.021,0.179,0.039,0.269,0.059c0.092,0.018,0.186,0.033,0.276,0.049
		c0.09,0.016,0.181,0.03,0.271,0.044c0.092,0.015,0.185,0.022,0.275,0.033c0.091,0.013,0.184,0.022,0.273,0.03
		c0.092,0.01,0.185,0.017,0.275,0.023c0.092,0.006,0.184,0.012,0.275,0.018c0.092,0.004,0.183,0.007,0.275,0.009
		c0.092,0.002,0.184,0.005,0.275,0.005s0.184-0.003,0.275-0.005c0.093-0.002,0.185-0.005,0.277-0.009
		c0.092-0.006,0.184-0.012,0.274-0.018c0.091-0.008,0.185-0.015,0.274-0.023c0.09-0.008,0.183-0.02,0.274-0.03
		c0.091-0.011,0.183-0.021,0.274-0.033c0.091-0.014,0.181-0.028,0.271-0.044c0.092-0.016,0.186-0.031,0.275-0.049
		c0.09-0.02,0.18-0.038,0.27-0.059s0.182-0.037,0.271-0.061c0.091-0.021,0.181-0.047,0.271-0.07
		c0.089-0.024,0.179-0.047,0.267-0.074c0.092-0.025,0.181-0.058,0.27-0.086c0.087-0.028,0.176-0.056,0.262-0.084
		c0.09-0.033,0.18-0.068,0.271-0.103c0.085-0.03,0.168-0.063,0.25-0.096c0.093-0.038,0.185-0.078,0.274-0.118
		c0.08-0.035,0.162-0.068,0.239-0.105c0.093-0.043,0.185-0.09,0.274-0.134c0.078-0.038,0.154-0.075,0.232-0.114
		c0.09-0.049,0.182-0.102,0.271-0.151c0.072-0.042,0.148-0.082,0.223-0.127c0.092-0.054,0.182-0.11,0.271-0.166
		c0.07-0.044,0.144-0.089,0.213-0.134c0.09-0.061,0.179-0.125,0.268-0.187c0.069-0.049,0.137-0.094,0.206-0.146
		c0.087-0.063,0.173-0.133,0.261-0.199c0.065-0.051,0.133-0.102,0.197-0.155c0.084-0.067,0.166-0.14,0.25-0.211
		c0.064-0.058,0.131-0.112,0.195-0.171c0.08-0.07,0.156-0.146,0.234-0.223c0.055-0.051,0.11-0.103,0.166-0.154
		c0.012-0.012,0.021-0.021,0.03-0.033c0.013-0.012,0.025-0.021,0.038-0.033c0.061-0.063,0.115-0.125,0.174-0.188
		c0.066-0.07,0.135-0.141,0.199-0.211c0.063-0.07,0.125-0.146,0.188-0.217c0.064-0.076,0.131-0.151,0.195-0.229
		c0.057-0.073,0.113-0.147,0.17-0.222c0.063-0.078,0.125-0.156,0.187-0.238c0.053-0.072,0.104-0.148,0.155-0.223
		c0.059-0.084,0.117-0.166,0.172-0.25c0.052-0.076,0.099-0.153,0.146-0.231c0.055-0.084,0.105-0.169,0.157-0.253
		c0.047-0.077,0.09-0.156,0.135-0.238c0.048-0.086,0.097-0.17,0.142-0.257c0.043-0.082,0.084-0.164,0.123-0.245
		c0.043-0.088,0.086-0.175,0.127-0.261c0.039-0.085,0.074-0.169,0.111-0.253c0.039-0.087,0.076-0.174,0.112-0.264
		c0.035-0.086,0.065-0.172,0.099-0.256c0.033-0.09,0.067-0.179,0.1-0.268c0.029-0.087,0.059-0.176,0.087-0.262
		c0.028-0.09,0.058-0.182,0.084-0.27c0.026-0.089,0.05-0.178,0.073-0.27c0.023-0.09,0.05-0.178,0.072-0.266
		c0.021-0.09,0.039-0.182,0.059-0.27c0.021-0.092,0.041-0.186,0.061-0.275c0.018-0.088,0.03-0.178,0.045-0.267
		c0.016-0.095,0.033-0.187,0.047-0.28c0.012-0.089,0.022-0.178,0.032-0.264c0.013-0.096,0.024-0.191,0.033-0.286
		c0.009-0.087,0.015-0.174,0.021-0.26c0.006-0.099,0.015-0.195,0.021-0.291c0.004-0.087,0.004-0.171,0.007-0.257
		c0.002-0.1,0.005-0.198,0.005-0.299c0-0.082-0.002-0.166-0.004-0.248c-0.002-0.101-0.004-0.203-0.009-0.303
		c-0.004-0.082-0.01-0.164-0.018-0.244c-0.008-0.104-0.014-0.207-0.022-0.309c-0.008-0.08-0.019-0.16-0.026-0.238
		c-0.013-0.104-0.022-0.207-0.039-0.313c-0.013-0.078-0.024-0.155-0.039-0.232c-0.018-0.105-0.033-0.21-0.054-0.314
		c-0.015-0.076-0.032-0.151-0.05-0.229c-0.021-0.103-0.044-0.206-0.068-0.312c-0.021-0.075-0.041-0.152-0.062-0.229
		c-0.027-0.103-0.054-0.205-0.085-0.309c-0.021-0.076-0.049-0.151-0.072-0.229c-0.031-0.101-0.063-0.199-0.1-0.3
		c-0.026-0.077-0.057-0.153-0.084-0.229c-0.037-0.098-0.073-0.196-0.113-0.295c-0.03-0.078-0.064-0.152-0.1-0.229
		c-0.041-0.094-0.08-0.188-0.125-0.282c-0.035-0.08-0.076-0.158-0.112-0.234c-0.046-0.092-0.089-0.184-0.138-0.271
		c-0.041-0.08-0.086-0.158-0.129-0.234c-0.049-0.088-0.096-0.174-0.146-0.26c-0.047-0.08-0.098-0.158-0.146-0.238
		c-0.052-0.082-0.101-0.164-0.154-0.244c-0.055-0.082-0.11-0.159-0.168-0.242c-0.053-0.075-0.104-0.152-0.159-0.229
		c-0.062-0.082-0.125-0.162-0.187-0.242c-0.057-0.073-0.111-0.146-0.17-0.217c-0.066-0.08-0.135-0.158-0.203-0.238
		c-0.058-0.068-0.117-0.139-0.18-0.207c-0.068-0.077-0.143-0.152-0.216-0.229c-0.054-0.056-0.104-0.112-0.158-0.167
		c-0.012-0.014-0.022-0.021-0.032-0.033c-0.014-0.011-0.023-0.023-0.037-0.035c-0.061-0.061-0.123-0.115-0.185-0.176
		c-0.069-0.066-0.14-0.133-0.212-0.199c-0.068-0.063-0.143-0.123-0.215-0.188c-0.075-0.063-0.153-0.131-0.231-0.195
		c-0.069-0.058-0.142-0.113-0.214-0.166c-0.082-0.063-0.163-0.129-0.246-0.191c-0.07-0.051-0.143-0.1-0.215-0.149
		c-0.085-0.062-0.172-0.12-0.259-0.178c-0.07-0.05-0.144-0.091-0.218-0.138c-0.088-0.057-0.178-0.111-0.268-0.168
		c-0.072-0.041-0.148-0.082-0.224-0.123c-0.091-0.051-0.181-0.103-0.271-0.15c-0.043-0.021-0.084-0.043-0.128-0.064v-9.869
		C147.416,226.034,147.848,225.833,148.242,225.572z M232.231,58.884c-3.66,0-7.11-0.914-10.138-2.52
		c-0.094-0.453-0.252-0.896-0.475-1.313l7.008-6.955c1.136,0.374,2.346,0.578,3.604,0.578c6.356,0,11.511-5.152,11.511-11.512
		c0-6.356-5.152-11.511-11.511-11.511s-11.513,5.152-11.513,11.511c0,1.229,0.193,2.41,0.552,3.521l-7.013,6.957
		c-0.41-0.217-0.846-0.369-1.293-0.462c-1.563-2.999-2.455-6.403-2.455-10.016c0-11.977,9.744-21.721,21.722-21.721
		s21.72,9.744,21.72,21.721C253.951,49.141,244.209,58.884,232.231,58.884z"/>
</g>
</svg>
