<?xml version="1.0" encoding="utf-8"?>
<!-- Generator: Adobe Illustrator 15.1.0, SVG Export Plug-In . SVG Version: 6.00 Build 0)  -->
<!DOCTYPE svg PUBLIC "-//W3C//DTD SVG 1.1//EN" "http://www.w3.org/Graphics/SVG/1.1/DTD/svg11.dtd">
<svg version="1.1" id="Layer_1" xmlns="http://www.w3.org/2000/svg" xmlns:xlink="http://www.w3.org/1999/xlink" x="0px" y="0px"
	 width="283.465px" height="283.465px" viewBox="0 0 283.465 283.465" enable-background="new 0 0 283.465 283.465"
	 xml:space="preserve">
<g>
	<path fill="#231F20" d="M146.021,219.165c0.036,0.02,0.069,0.035,0.104,0.055c0.073,0.039,0.147,0.082,0.223,0.123
		c0.063,0.035,0.123,0.068,0.184,0.103c0.073,0.046,0.146,0.091,0.221,0.138c0.06,0.037,0.119,0.072,0.179,0.112
		c0.069,0.047,0.142,0.097,0.212,0.146c0.061,0.043,0.117,0.082,0.176,0.125c0.068,0.051,0.135,0.104,0.202,0.156
		c0.06,0.043,0.118,0.09,0.177,0.137c0.063,0.054,0.127,0.107,0.189,0.16c0.059,0.053,0.119,0.103,0.177,0.153
		c0.06,0.056,0.114,0.108,0.174,0.164c0.05,0.05,0.103,0.095,0.151,0.144c0.01,0.01,0.019,0.021,0.029,0.029
		c0.008,0.01,0.018,0.018,0.026,0.027c0.044,0.044,0.086,0.091,0.13,0.137c0.061,0.063,0.12,0.126,0.178,0.189
		c0.051,0.057,0.101,0.113,0.146,0.17c0.057,0.064,0.111,0.129,0.167,0.193c0.048,0.06,0.093,0.119,0.14,0.18
		c0.051,0.064,0.104,0.132,0.152,0.199c0.046,0.062,0.088,0.125,0.132,0.188c0.048,0.066,0.093,0.131,0.138,0.197
		s0.084,0.135,0.127,0.201c0.041,0.065,0.082,0.129,0.121,0.195c0.041,0.07,0.08,0.143,0.119,0.213
		c0.036,0.063,0.072,0.129,0.106,0.193c0.039,0.072,0.075,0.146,0.11,0.223c0.031,0.063,0.064,0.127,0.095,0.192
		c0.036,0.077,0.067,0.155,0.103,0.231c0.027,0.063,0.057,0.125,0.081,0.189c0.033,0.08,0.063,0.162,0.093,0.242
		c0.023,0.063,0.049,0.124,0.069,0.188c0.029,0.082,0.056,0.164,0.081,0.246c0.021,0.063,0.041,0.127,0.061,0.188
		c0.024,0.086,0.047,0.17,0.069,0.254c0.017,0.062,0.033,0.126,0.05,0.188c0.021,0.086,0.038,0.17,0.057,0.254
		c0.015,0.064,0.029,0.127,0.041,0.189c0.017,0.086,0.029,0.172,0.045,0.258c0.011,0.063,0.021,0.127,0.031,0.191
		c0.013,0.085,0.021,0.171,0.031,0.257c0.008,0.063,0.016,0.129,0.021,0.194c0.009,0.084,0.014,0.168,0.02,0.254
		c0.006,0.064,0.012,0.133,0.014,0.199c0.006,0.082,0.006,0.166,0.009,0.248c0.001,0.067,0.003,0.138,0.003,0.205
		c0,0.082-0.003,0.164-0.004,0.246c-0.002,0.068-0.002,0.139-0.006,0.209c-0.006,0.078-0.012,0.158-0.018,0.238
		c-0.005,0.071-0.009,0.143-0.017,0.215c-0.007,0.077-0.017,0.155-0.027,0.234c-0.008,0.07-0.016,0.145-0.026,0.217
		c-0.01,0.076-0.024,0.152-0.037,0.229c-0.012,0.074-0.023,0.146-0.037,0.22c-0.016,0.073-0.032,0.151-0.049,0.226
		c-0.018,0.073-0.03,0.148-0.049,0.221c-0.02,0.074-0.039,0.146-0.061,0.22c-0.02,0.075-0.038,0.147-0.061,0.221
		c-0.021,0.073-0.045,0.147-0.068,0.222c-0.023,0.07-0.047,0.144-0.071,0.215c-0.024,0.072-0.054,0.146-0.081,0.219
		c-0.025,0.068-0.052,0.141-0.08,0.212c-0.029,0.071-0.062,0.144-0.094,0.215c-0.029,0.069-0.061,0.14-0.092,0.208
		c-0.032,0.07-0.069,0.143-0.104,0.213c-0.033,0.066-0.065,0.135-0.103,0.202c-0.037,0.071-0.077,0.142-0.115,0.21
		c-0.036,0.066-0.071,0.133-0.11,0.197c-0.041,0.068-0.086,0.138-0.129,0.207c-0.039,0.064-0.078,0.128-0.119,0.189
		c-0.045,0.068-0.094,0.137-0.142,0.205c-0.043,0.061-0.085,0.122-0.129,0.184c-0.049,0.066-0.103,0.131-0.151,0.197
		c-0.047,0.06-0.094,0.119-0.142,0.18c-0.052,0.063-0.106,0.125-0.159,0.188c-0.052,0.059-0.104,0.12-0.154,0.18
		c-0.054,0.058-0.108,0.113-0.164,0.172c-0.047,0.052-0.094,0.103-0.143,0.154c-0.011,0.008-0.021,0.018-0.031,0.026
		c-0.008,0.009-0.017,0.019-0.024,0.026c-0.046,0.045-0.091,0.086-0.138,0.127c-0.063,0.063-0.127,0.125-0.191,0.184
		c-0.053,0.048-0.107,0.094-0.16,0.141c-0.068,0.06-0.136,0.116-0.205,0.174c-0.054,0.043-0.107,0.086-0.163,0.127
		c-0.071,0.056-0.142,0.111-0.214,0.164c-0.057,0.043-0.111,0.078-0.168,0.119c-0.072,0.051-0.146,0.104-0.221,0.152
		c-0.057,0.036-0.116,0.073-0.174,0.109c-0.074,0.046-0.148,0.093-0.224,0.137c-0.062,0.036-0.122,0.068-0.183,0.104
		c-0.074,0.043-0.149,0.084-0.225,0.125c-0.063,0.033-0.127,0.063-0.19,0.094c-0.074,0.037-0.149,0.076-0.226,0.109
		c-0.063,0.031-0.131,0.059-0.197,0.088c-0.073,0.032-0.148,0.065-0.225,0.098c-0.068,0.027-0.137,0.053-0.205,0.078
		c-0.076,0.027-0.148,0.057-0.225,0.084c-0.07,0.022-0.143,0.045-0.214,0.068c-0.073,0.023-0.146,0.049-0.222,0.071
		c-0.072,0.021-0.146,0.04-0.219,0.06c-0.074,0.021-0.146,0.041-0.222,0.06c-0.073,0.019-0.149,0.032-0.224,0.049
		c-0.073,0.017-0.147,0.033-0.221,0.048c-0.076,0.016-0.15,0.027-0.228,0.04c-0.074,0.013-0.147,0.025-0.222,0.036
		c-0.076,0.012-0.151,0.02-0.228,0.027c-0.075,0.01-0.149,0.019-0.226,0.025c-0.074,0.008-0.149,0.012-0.227,0.019
		c-0.074,0.006-0.15,0.011-0.226,0.015c-0.076,0.004-0.151,0.006-0.228,0.008s-0.15,0.004-0.227,0.004s-0.151-0.002-0.227-0.004
		c-0.076-0.002-0.15-0.004-0.227-0.008s-0.15-0.009-0.227-0.015c-0.076-0.007-0.15-0.011-0.227-0.019
		c-0.074-0.008-0.15-0.017-0.225-0.025c-0.076-0.01-0.151-0.018-0.227-0.027c-0.074-0.011-0.148-0.023-0.223-0.036
		c-0.076-0.013-0.15-0.024-0.227-0.04c-0.074-0.015-0.146-0.031-0.221-0.048s-0.15-0.03-0.224-0.049
		c-0.074-0.019-0.147-0.038-0.222-0.06c-0.072-0.02-0.146-0.037-0.219-0.06c-0.074-0.022-0.148-0.048-0.222-0.071
		c-0.071-0.023-0.144-0.046-0.214-0.068c-0.075-0.027-0.148-0.057-0.223-0.084c-0.068-0.025-0.139-0.051-0.205-0.078
		c-0.076-0.031-0.15-0.064-0.226-0.098c-0.065-0.029-0.132-0.057-0.196-0.088c-0.078-0.033-0.151-0.072-0.227-0.109
		c-0.064-0.03-0.127-0.061-0.189-0.094c-0.076-0.041-0.149-0.082-0.225-0.125c-0.061-0.033-0.121-0.066-0.182-0.104
		c-0.076-0.044-0.149-0.091-0.223-0.137c-0.059-0.036-0.117-0.073-0.175-0.109c-0.075-0.05-0.147-0.104-0.22-0.152
		c-0.057-0.041-0.112-0.076-0.168-0.119c-0.072-0.053-0.143-0.108-0.213-0.164c-0.055-0.041-0.11-0.084-0.164-0.127
		c-0.069-0.058-0.137-0.114-0.205-0.174c-0.055-0.047-0.107-0.093-0.161-0.141c-0.065-0.059-0.128-0.12-0.192-0.184
		c-0.045-0.041-0.092-0.082-0.137-0.127c-0.008-0.01-0.016-0.019-0.025-0.026c-0.01-0.011-0.02-0.019-0.029-0.026
		c-0.049-0.053-0.096-0.104-0.145-0.154c-0.055-0.059-0.109-0.114-0.162-0.172c-0.054-0.06-0.104-0.121-0.156-0.18
		c-0.053-0.063-0.106-0.124-0.159-0.188c-0.048-0.061-0.095-0.12-0.14-0.18c-0.051-0.066-0.103-0.131-0.151-0.197
		c-0.044-0.062-0.086-0.123-0.129-0.184c-0.048-0.068-0.097-0.137-0.142-0.205c-0.041-0.063-0.08-0.125-0.119-0.189
		c-0.043-0.069-0.088-0.139-0.129-0.207c-0.037-0.064-0.074-0.131-0.11-0.197c-0.039-0.068-0.078-0.139-0.116-0.21
		c-0.036-0.067-0.066-0.136-0.102-0.202c-0.035-0.07-0.07-0.143-0.104-0.213c-0.031-0.068-0.063-0.139-0.092-0.208
		c-0.031-0.073-0.063-0.144-0.092-0.215c-0.028-0.071-0.055-0.144-0.082-0.214c-0.026-0.072-0.055-0.145-0.08-0.217
		c-0.024-0.071-0.047-0.145-0.071-0.215c-0.022-0.074-0.047-0.147-0.069-0.222c-0.021-0.073-0.041-0.146-0.06-0.221
		c-0.021-0.072-0.041-0.146-0.058-0.22c-0.02-0.071-0.034-0.146-0.051-0.221c-0.016-0.074-0.033-0.15-0.047-0.226
		c-0.015-0.073-0.025-0.146-0.037-0.22c-0.014-0.076-0.027-0.152-0.039-0.229c-0.011-0.072-0.018-0.146-0.026-0.217
		c-0.011-0.079-0.021-0.157-0.027-0.234c-0.006-0.072-0.011-0.144-0.016-0.215c-0.007-0.08-0.013-0.16-0.017-0.238
		c-0.004-0.07-0.004-0.141-0.006-0.209c-0.002-0.082-0.005-0.164-0.005-0.246c0-0.067,0.003-0.138,0.004-0.205
		c0.003-0.082,0.003-0.166,0.007-0.248c0.002-0.066,0.01-0.135,0.014-0.199c0.006-0.086,0.012-0.17,0.02-0.254
		c0.006-0.065,0.016-0.131,0.023-0.194c0.01-0.086,0.019-0.172,0.031-0.257c0.01-0.064,0.021-0.128,0.031-0.191
		c0.016-0.086,0.028-0.172,0.045-0.258c0.014-0.063,0.026-0.125,0.041-0.189c0.018-0.084,0.036-0.168,0.057-0.254
		c0.016-0.063,0.033-0.127,0.051-0.188c0.021-0.084,0.045-0.168,0.068-0.254c0.02-0.062,0.039-0.124,0.061-0.188
		c0.025-0.082,0.053-0.164,0.081-0.246c0.021-0.063,0.046-0.125,0.069-0.188c0.031-0.08,0.061-0.162,0.093-0.242
		c0.026-0.064,0.054-0.126,0.081-0.189c0.033-0.078,0.066-0.154,0.102-0.231c0.03-0.065,0.063-0.129,0.094-0.192
		c0.039-0.074,0.073-0.15,0.112-0.223c0.034-0.064,0.071-0.13,0.106-0.193c0.039-0.07,0.078-0.143,0.119-0.213
		c0.039-0.066,0.082-0.13,0.121-0.195c0.043-0.066,0.084-0.135,0.127-0.201s0.09-0.131,0.138-0.197
		c0.043-0.063,0.087-0.126,0.133-0.188c0.049-0.067,0.101-0.135,0.151-0.199c0.045-0.061,0.092-0.12,0.139-0.18
		c0.054-0.064,0.109-0.129,0.167-0.193c0.048-0.057,0.097-0.113,0.147-0.17c0.057-0.063,0.117-0.127,0.178-0.189
		c0.043-0.046,0.085-0.093,0.131-0.137c0.008-0.012,0.018-0.02,0.025-0.027c0.01-0.009,0.021-0.021,0.029-0.029
		c0.051-0.049,0.102-0.094,0.152-0.144c0.058-0.056,0.115-0.108,0.173-0.164c0.058-0.052,0.117-0.101,0.177-0.153
		c0.063-0.053,0.125-0.106,0.19-0.16c0.057-0.047,0.116-0.094,0.175-0.137c0.066-0.054,0.134-0.105,0.203-0.156
		c0.059-0.043,0.117-0.082,0.177-0.125c0.07-0.049,0.14-0.099,0.212-0.146c0.059-0.04,0.118-0.077,0.178-0.112
		c0.073-0.047,0.146-0.092,0.219-0.138c0.063-0.034,0.123-0.067,0.186-0.103c0.074-0.041,0.146-0.084,0.223-0.123
		c0.035-0.02,0.068-0.035,0.104-0.055v-8.102c-0.379-0.113-0.734-0.279-1.059-0.492c-0.209,0.064-0.42,0.133-0.627,0.205
		c-0.006,0.002-0.01,0.004-0.016,0.006c-0.261,0.094-0.518,0.191-0.773,0.297c-0.01,0.004-0.022,0.008-0.034,0.014
		c-0.244,0.101-0.486,0.207-0.726,0.318c-0.022,0.012-0.045,0.021-0.068,0.031c-0.227,0.107-0.451,0.221-0.674,0.337
		c-0.033,0.019-0.067,0.035-0.102,0.052c-0.208,0.11-0.414,0.229-0.617,0.348c-0.048,0.027-0.096,0.054-0.142,0.08
		c-0.19,0.113-0.375,0.233-0.56,0.353c-0.062,0.04-0.123,0.077-0.183,0.117c-0.168,0.112-0.333,0.231-0.499,0.351
		c-0.074,0.053-0.148,0.102-0.221,0.156c-0.15,0.109-0.299,0.229-0.445,0.344c-0.084,0.067-0.17,0.133-0.252,0.199
		c-0.135,0.111-0.266,0.227-0.398,0.342c-0.09,0.079-0.185,0.157-0.274,0.239c-0.121,0.108-0.239,0.226-0.356,0.338
		c-0.097,0.093-0.195,0.183-0.291,0.278c-0.117,0.117-0.229,0.236-0.343,0.355c-0.098,0.104-0.196,0.205-0.292,0.312
		c-0.105,0.116-0.208,0.239-0.311,0.358c-0.094,0.109-0.189,0.219-0.281,0.33c-0.098,0.121-0.191,0.244-0.287,0.368
		c-0.089,0.113-0.178,0.226-0.263,0.343c-0.093,0.125-0.181,0.254-0.269,0.381c-0.08,0.115-0.162,0.231-0.24,0.35
		c-0.086,0.131-0.168,0.264-0.25,0.396c-0.073,0.117-0.147,0.233-0.219,0.354c-0.08,0.135-0.154,0.271-0.229,0.41
		c-0.067,0.118-0.134,0.235-0.198,0.356c-0.072,0.139-0.143,0.282-0.211,0.422c-0.059,0.121-0.12,0.24-0.175,0.359
		c-0.066,0.146-0.128,0.292-0.191,0.438c-0.052,0.121-0.104,0.24-0.155,0.361c-0.06,0.147-0.115,0.297-0.17,0.446
		c-0.045,0.122-0.093,0.242-0.135,0.362c-0.053,0.15-0.101,0.303-0.148,0.453c-0.039,0.125-0.08,0.246-0.117,0.371
		c-0.045,0.15-0.084,0.303-0.124,0.455c-0.034,0.127-0.069,0.25-0.101,0.375c-0.037,0.151-0.068,0.305-0.102,0.459
		c-0.027,0.127-0.057,0.254-0.083,0.385c-0.028,0.148-0.054,0.301-0.077,0.449c-0.021,0.133-0.046,0.267-0.064,0.397
		c-0.022,0.147-0.039,0.295-0.057,0.444c-0.016,0.137-0.035,0.271-0.047,0.408c-0.014,0.145-0.021,0.289-0.033,0.436
		c-0.01,0.141-0.021,0.281-0.027,0.422c-0.006,0.141-0.008,0.281-0.012,0.423c-0.004,0.146-0.009,0.289-0.009,0.437
		c0,0.137,0.005,0.272,0.007,0.408c0.004,0.15,0.006,0.299,0.014,0.449c0.006,0.131,0.018,0.266,0.027,0.396
		c0.01,0.152,0.02,0.307,0.034,0.459c0.013,0.13,0.029,0.257,0.044,0.387c0.018,0.154,0.036,0.313,0.059,0.467
		c0.019,0.127,0.039,0.25,0.061,0.373c0.025,0.159,0.053,0.316,0.082,0.475c0.023,0.123,0.053,0.242,0.078,0.363
		c0.035,0.16,0.068,0.32,0.105,0.477c0.029,0.121,0.063,0.24,0.094,0.357c0.043,0.159,0.084,0.317,0.131,0.477
		c0.035,0.119,0.074,0.234,0.111,0.353c0.051,0.156,0.1,0.313,0.153,0.47c0.041,0.117,0.087,0.231,0.13,0.35
		c0.057,0.154,0.114,0.311,0.176,0.463c0.047,0.113,0.1,0.23,0.149,0.346c0.063,0.151,0.127,0.301,0.197,0.45
		c0.054,0.117,0.112,0.233,0.17,0.351c0.071,0.145,0.142,0.289,0.216,0.433c0.063,0.118,0.128,0.235,0.194,0.353
		c0.077,0.139,0.151,0.276,0.233,0.413c0.069,0.12,0.145,0.237,0.217,0.354c0.084,0.134,0.164,0.267,0.25,0.396
		c0.078,0.121,0.162,0.235,0.242,0.354c0.088,0.125,0.174,0.253,0.267,0.377c0.086,0.115,0.178,0.232,0.269,0.348
		c0.092,0.122,0.184,0.243,0.281,0.361c0.094,0.115,0.191,0.229,0.29,0.341c0.101,0.116,0.198,0.233,0.301,0.349
		c0.101,0.11,0.205,0.219,0.31,0.326c0.106,0.112,0.213,0.229,0.324,0.34c0.103,0.104,0.207,0.199,0.312,0.301
		c0.11,0.104,0.221,0.213,0.334,0.314c0.099,0.092,0.2,0.176,0.303,0.264c0.123,0.106,0.245,0.215,0.371,0.317
		c0.093,0.077,0.188,0.147,0.284,0.224c0.137,0.106,0.273,0.217,0.414,0.319c0.085,0.063,0.171,0.122,0.256,0.183
		c0.154,0.109,0.307,0.221,0.463,0.324c0.075,0.051,0.15,0.098,0.227,0.145c0.17,0.109,0.34,0.222,0.514,0.322
		c0.064,0.041,0.13,0.075,0.195,0.113c0.187,0.107,0.373,0.215,0.563,0.316c0.056,0.029,0.11,0.056,0.166,0.084
		c0.203,0.105,0.406,0.207,0.61,0.307c0.046,0.021,0.094,0.04,0.141,0.061c0.216,0.101,0.434,0.199,0.652,0.291
		c0.041,0.016,0.082,0.029,0.123,0.047c0.227,0.091,0.455,0.181,0.685,0.263c0.039,0.013,0.079,0.024,0.118,0.038
		c0.232,0.082,0.467,0.16,0.704,0.23c0.043,0.014,0.088,0.023,0.132,0.037c0.232,0.066,0.466,0.133,0.702,0.192
		c0.057,0.013,0.114,0.024,0.172,0.038c0.224,0.054,0.448,0.105,0.674,0.15c0.079,0.016,0.159,0.026,0.24,0.041
		c0.205,0.039,0.409,0.076,0.618,0.105c0.115,0.018,0.229,0.029,0.346,0.044c0.174,0.021,0.348,0.047,0.523,0.063
		c0.179,0.017,0.358,0.026,0.539,0.039c0.113,0.008,0.227,0.02,0.34,0.023c0.296,0.016,0.593,0.021,0.891,0.021
		s0.596-0.008,0.891-0.021c0.113-0.005,0.228-0.018,0.34-0.023c0.181-0.013,0.361-0.022,0.539-0.039
		c0.176-0.018,0.35-0.043,0.522-0.063c0.115-0.015,0.231-0.026,0.347-0.044c0.207-0.029,0.412-0.066,0.617-0.105
		c0.079-0.015,0.16-0.025,0.24-0.041c0.227-0.045,0.447-0.098,0.674-0.15c0.057-0.014,0.115-0.025,0.172-0.038
		c0.236-0.06,0.471-0.126,0.704-0.192c0.043-0.014,0.086-0.023,0.13-0.037c0.236-0.07,0.471-0.148,0.703-0.23
		c0.039-0.014,0.079-0.025,0.117-0.038c0.229-0.082,0.458-0.172,0.684-0.263c0.041-0.018,0.084-0.031,0.125-0.047
		c0.221-0.092,0.437-0.19,0.652-0.289c0.047-0.021,0.094-0.041,0.139-0.063c0.207-0.1,0.408-0.199,0.609-0.306
		c0.057-0.029,0.111-0.056,0.167-0.085c0.188-0.102,0.376-0.209,0.562-0.316c0.065-0.037,0.133-0.072,0.198-0.113
		c0.173-0.102,0.343-0.213,0.513-0.32c0.076-0.049,0.151-0.096,0.228-0.145c0.155-0.105,0.31-0.216,0.463-0.324
		c0.085-0.062,0.172-0.121,0.257-0.184c0.141-0.104,0.275-0.213,0.414-0.32c0.096-0.074,0.189-0.146,0.283-0.223
		c0.125-0.104,0.247-0.211,0.371-0.318c0.1-0.088,0.201-0.172,0.301-0.263c0.113-0.103,0.225-0.21,0.335-0.315
		c0.104-0.101,0.211-0.199,0.312-0.301c0.113-0.109,0.219-0.225,0.326-0.339c0.104-0.106,0.207-0.216,0.31-0.327
		c0.103-0.113,0.2-0.23,0.3-0.348c0.098-0.113,0.196-0.227,0.291-0.341c0.096-0.118,0.188-0.239,0.281-0.361
		c0.089-0.114,0.181-0.231,0.267-0.348c0.093-0.124,0.179-0.253,0.267-0.378c0.082-0.118,0.166-0.232,0.242-0.354
		c0.086-0.129,0.168-0.262,0.25-0.396c0.074-0.115,0.147-0.232,0.219-0.354c0.082-0.137,0.156-0.277,0.234-0.414
		c0.063-0.117,0.131-0.232,0.192-0.352c0.075-0.143,0.146-0.288,0.216-0.432c0.059-0.119,0.116-0.233,0.171-0.352
		c0.068-0.148,0.132-0.299,0.196-0.447c0.05-0.117,0.104-0.231,0.148-0.349c0.063-0.153,0.117-0.31,0.176-0.461
		c0.043-0.117,0.091-0.233,0.131-0.351c0.055-0.156,0.104-0.313,0.152-0.471c0.039-0.119,0.078-0.232,0.111-0.354
		c0.049-0.157,0.09-0.315,0.133-0.475c0.03-0.119,0.063-0.236,0.094-0.357c0.039-0.156,0.072-0.316,0.105-0.477
		c0.025-0.121,0.055-0.242,0.077-0.363c0.03-0.157,0.056-0.315,0.082-0.476c0.021-0.122,0.043-0.247,0.063-0.372
		c0.021-0.156,0.039-0.314,0.058-0.47c0.015-0.128,0.03-0.255,0.043-0.386c0.017-0.151,0.026-0.305,0.034-0.459
		c0.011-0.133,0.021-0.264,0.027-0.395c0.008-0.152,0.01-0.3,0.014-0.451c0.004-0.135,0.008-0.271,0.008-0.408
		c0-0.146-0.006-0.289-0.01-0.436c-0.004-0.141-0.006-0.283-0.012-0.423c-0.007-0.144-0.018-0.28-0.029-0.422
		c-0.008-0.146-0.019-0.291-0.031-0.437c-0.014-0.137-0.03-0.271-0.047-0.408c-0.018-0.148-0.035-0.297-0.055-0.443
		c-0.021-0.132-0.045-0.266-0.065-0.396c-0.024-0.15-0.05-0.303-0.078-0.451c-0.024-0.131-0.056-0.258-0.083-0.385
		c-0.031-0.154-0.064-0.308-0.102-0.459c-0.03-0.123-0.065-0.248-0.1-0.375c-0.039-0.15-0.08-0.305-0.126-0.455
		c-0.036-0.125-0.077-0.246-0.116-0.371c-0.049-0.15-0.096-0.303-0.146-0.451c-0.044-0.122-0.092-0.242-0.137-0.364
		c-0.055-0.149-0.109-0.299-0.17-0.446c-0.049-0.121-0.104-0.24-0.154-0.361c-0.063-0.146-0.125-0.291-0.192-0.438
		c-0.056-0.119-0.116-0.238-0.175-0.359c-0.068-0.14-0.139-0.281-0.211-0.422c-0.064-0.121-0.133-0.238-0.198-0.356
		c-0.073-0.138-0.149-0.274-0.229-0.41c-0.07-0.121-0.146-0.237-0.219-0.354c-0.082-0.133-0.164-0.266-0.25-0.396
		c-0.076-0.117-0.16-0.233-0.24-0.349c-0.088-0.129-0.176-0.256-0.269-0.381c-0.085-0.117-0.175-0.229-0.263-0.344
		c-0.096-0.123-0.188-0.248-0.287-0.367c-0.092-0.111-0.188-0.222-0.281-0.33c-0.103-0.121-0.203-0.242-0.311-0.359
		c-0.096-0.105-0.195-0.207-0.293-0.313c-0.112-0.117-0.227-0.238-0.342-0.354c-0.097-0.095-0.192-0.187-0.289-0.278
		c-0.119-0.113-0.237-0.229-0.358-0.34c-0.09-0.08-0.183-0.156-0.272-0.236c-0.133-0.115-0.266-0.23-0.4-0.343
		c-0.082-0.067-0.166-0.13-0.248-0.194c-0.148-0.119-0.299-0.237-0.45-0.349c-0.069-0.053-0.144-0.103-0.213-0.153
		c-0.169-0.119-0.336-0.24-0.507-0.354c-0.059-0.038-0.117-0.075-0.176-0.111c-0.188-0.121-0.375-0.242-0.564-0.357
		c-0.045-0.026-0.091-0.051-0.136-0.075c-0.206-0.122-0.414-0.239-0.623-0.353c-0.032-0.017-0.065-0.033-0.097-0.049
		c-0.226-0.117-0.451-0.232-0.681-0.342c-0.021-0.009-0.038-0.018-0.057-0.023c-0.243-0.112-0.489-0.223-0.735-0.324
		c-0.011-0.004-0.02-0.008-0.027-0.012c-0.258-0.104-0.519-0.205-0.779-0.299c-0.004-0.002-0.006-0.002-0.008-0.004
		c-0.209-0.072-0.422-0.142-0.635-0.207c-0.324,0.213-0.681,0.379-1.06,0.492v8.1H146.021z"/>
	<path fill="#231F20" d="M67.426,38.044c-9.833,0-17.833,8-17.833,17.833c0,9.835,8,17.835,17.833,17.835
		c3.006,0,5.837-0.75,8.323-2.068c0.078-0.371,0.207-0.734,0.391-1.078l-5.756-5.71c-0.931,0.307-1.925,0.475-2.958,0.475
		c-5.22,0-9.45-4.23-9.45-9.452c0-5.22,4.23-9.451,9.45-9.451c5.222,0,9.453,4.231,9.453,9.451c0,1.009-0.16,1.979-0.452,2.892
		l5.757,5.712c0.337-0.178,0.694-0.305,1.061-0.379c1.285-2.463,2.017-5.26,2.017-8.225C85.261,46.044,77.261,38.044,67.426,38.044z
		"/>
	<path fill="#231F20" d="M207.767,7.087H75.698c-26.203,0-47.444,19.962-47.444,44.588V231.79c0,24.625,21.241,44.588,47.444,44.588
		h132.068c26.202,0,47.444-19.963,47.444-44.588V51.675C255.211,27.05,233.971,7.087,207.767,7.087z M216.039,80.573
		c-4.246,0-8.238-1.072-11.727-2.958l-33.521,33.104c-1.271,1.256-3.16,1.495-4.672,0.731l-20.1,19.943v21.58
		c1.689,0.491,2.926,2.048,2.922,3.896l-0.063,31.502l0.031,15.584c0.174,0.053,0.346,0.11,0.518,0.168
		c0.154,0.051,0.31,0.096,0.463,0.15c0.224,0.079,0.445,0.166,0.667,0.25c0.151,0.059,0.305,0.111,0.454,0.173
		c0.222,0.091,0.438,0.187,0.658,0.283c0.147,0.065,0.299,0.127,0.446,0.196c0.216,0.099,0.429,0.207,0.644,0.314
		c0.146,0.073,0.297,0.143,0.441,0.221c0.211,0.109,0.415,0.229,0.622,0.346c0.147,0.082,0.298,0.162,0.442,0.248
		c0.203,0.117,0.398,0.246,0.599,0.371c0.147,0.094,0.298,0.183,0.442,0.277c0.191,0.127,0.382,0.264,0.572,0.396
		c0.147,0.104,0.297,0.201,0.44,0.311c0.185,0.135,0.363,0.276,0.542,0.418c0.148,0.113,0.301,0.227,0.446,0.346
		c0.171,0.141,0.338,0.287,0.508,0.433c0.149,0.129,0.302,0.257,0.448,0.39c0.158,0.144,0.314,0.295,0.471,0.443
		c0.128,0.122,0.258,0.236,0.383,0.361c0.025,0.025,0.047,0.051,0.071,0.074c0.024,0.024,0.051,0.047,0.076,0.072
		c0.125,0.127,0.243,0.26,0.366,0.389c0.146,0.152,0.295,0.307,0.437,0.463c0.138,0.15,0.269,0.309,0.401,0.465
		c0.141,0.162,0.283,0.324,0.418,0.49c0.128,0.156,0.248,0.314,0.371,0.475c0.133,0.169,0.266,0.339,0.393,0.51
		c0.118,0.163,0.23,0.326,0.346,0.49c0.12,0.174,0.244,0.348,0.359,0.523c0.109,0.168,0.215,0.338,0.32,0.508
		c0.111,0.178,0.224,0.353,0.328,0.531c0.104,0.172,0.199,0.352,0.299,0.527c0.099,0.178,0.199,0.354,0.293,0.534
		c0.097,0.181,0.186,0.364,0.275,0.549c0.088,0.179,0.178,0.354,0.262,0.534c0.088,0.189,0.168,0.381,0.25,0.572
		c0.078,0.177,0.156,0.354,0.229,0.531c0.079,0.195,0.151,0.394,0.226,0.588c0.066,0.178,0.138,0.354,0.199,0.533
		c0.068,0.201,0.131,0.401,0.195,0.602c0.059,0.18,0.118,0.357,0.172,0.537c0.061,0.203,0.112,0.408,0.166,0.611
		c0.049,0.18,0.102,0.359,0.145,0.54c0.051,0.204,0.095,0.41,0.138,0.616c0.04,0.182,0.082,0.363,0.119,0.547
		c0.038,0.204,0.071,0.41,0.104,0.615c0.031,0.188,0.064,0.369,0.092,0.557c0.029,0.204,0.053,0.408,0.076,0.612
		c0.022,0.188,0.047,0.377,0.065,0.565c0.021,0.201,0.03,0.403,0.046,0.605c0.016,0.193,0.029,0.387,0.039,0.58
		c0.01,0.197,0.012,0.396,0.018,0.594c0.004,0.197,0.012,0.395,0.012,0.594c0,0.194-0.008,0.387-0.012,0.58
		c-0.006,0.203-0.008,0.403-0.018,0.605c-0.01,0.189-0.023,0.379-0.038,0.568c-0.015,0.205-0.026,0.41-0.047,0.615
		c-0.021,0.186-0.043,0.37-0.063,0.557c-0.025,0.207-0.049,0.416-0.078,0.623c-0.025,0.184-0.06,0.365-0.09,0.545
		c-0.035,0.211-0.066,0.42-0.107,0.627c-0.035,0.182-0.077,0.357-0.115,0.537c-0.045,0.209-0.09,0.418-0.141,0.627
		c-0.043,0.177-0.094,0.354-0.141,0.529c-0.057,0.209-0.109,0.414-0.17,0.621c-0.054,0.176-0.111,0.352-0.169,0.525
		c-0.063,0.204-0.128,0.408-0.198,0.611c-0.063,0.177-0.13,0.35-0.195,0.523c-0.075,0.2-0.148,0.398-0.229,0.598
		c-0.071,0.178-0.149,0.352-0.226,0.525c-0.084,0.193-0.164,0.389-0.256,0.58c-0.082,0.175-0.168,0.35-0.256,0.523
		c-0.092,0.188-0.183,0.375-0.279,0.559c-0.094,0.177-0.191,0.352-0.288,0.525c-0.101,0.181-0.198,0.359-0.304,0.537
		c-0.104,0.178-0.215,0.349-0.323,0.521c-0.107,0.174-0.214,0.348-0.325,0.518c-0.115,0.174-0.236,0.346-0.357,0.518
		c-0.113,0.166-0.229,0.33-0.348,0.494c-0.126,0.173-0.259,0.339-0.389,0.508c-0.125,0.158-0.246,0.32-0.375,0.479
		c-0.135,0.166-0.276,0.325-0.416,0.488c-0.135,0.156-0.266,0.313-0.403,0.466c-0.142,0.157-0.29,0.31-0.437,0.464
		c-0.121,0.129-0.239,0.26-0.366,0.389c-0.024,0.025-0.052,0.048-0.075,0.072c-0.025,0.023-0.047,0.049-0.072,0.074
		c-0.125,0.124-0.256,0.243-0.385,0.363c-0.154,0.146-0.311,0.299-0.468,0.441c-0.149,0.135-0.304,0.264-0.456,0.396
		c-0.166,0.142-0.332,0.287-0.499,0.424c-0.151,0.124-0.306,0.239-0.458,0.356c-0.176,0.138-0.352,0.275-0.528,0.408
		c-0.153,0.111-0.309,0.217-0.463,0.324c-0.185,0.129-0.364,0.258-0.551,0.383c-0.156,0.1-0.313,0.195-0.472,0.295
		c-0.189,0.119-0.377,0.24-0.569,0.354c-0.158,0.094-0.319,0.18-0.479,0.271c-0.193,0.106-0.387,0.219-0.584,0.322
		c-0.162,0.086-0.33,0.164-0.496,0.245c-0.194,0.099-0.391,0.198-0.588,0.29c-0.17,0.078-0.344,0.148-0.517,0.227
		c-0.194,0.084-0.39,0.173-0.589,0.254c-0.178,0.07-0.357,0.137-0.536,0.203c-0.194,0.072-0.39,0.152-0.585,0.22
		c-0.188,0.065-0.374,0.122-0.563,0.183c-0.191,0.063-0.383,0.127-0.574,0.184c-0.196,0.06-0.396,0.109-0.594,0.162
		c-0.186,0.049-0.369,0.104-0.557,0.149c-0.212,0.052-0.424,0.093-0.637,0.14c-0.176,0.037-0.35,0.08-0.525,0.114
		c-0.229,0.044-0.456,0.078-0.686,0.116c-0.161,0.027-0.322,0.059-0.486,0.08c-0.247,0.036-0.498,0.063-0.747,0.091
		c-0.144,0.017-0.286,0.039-0.429,0.052c-0.289,0.027-0.579,0.045-0.868,0.063c-0.104,0.006-0.21,0.017-0.315,0.021
		c-0.395,0.02-0.789,0.027-1.185,0.027c0,0,0,0-0.001,0c0,0,0,0-0.001,0c-0.396,0-0.79-0.009-1.185-0.027
		c-0.105-0.005-0.211-0.016-0.314-0.021c-0.29-0.019-0.579-0.036-0.868-0.063c-0.144-0.013-0.287-0.035-0.43-0.052
		c-0.25-0.026-0.499-0.055-0.749-0.091c-0.162-0.021-0.324-0.053-0.486-0.08c-0.229-0.038-0.458-0.072-0.686-0.116
		c-0.176-0.034-0.35-0.077-0.525-0.114c-0.212-0.047-0.424-0.088-0.635-0.14c-0.188-0.046-0.372-0.101-0.557-0.149
		c-0.199-0.053-0.396-0.104-0.594-0.162c-0.191-0.057-0.383-0.121-0.574-0.184c-0.188-0.061-0.375-0.117-0.563-0.183
		c-0.195-0.067-0.389-0.146-0.583-0.22c-0.181-0.066-0.36-0.133-0.538-0.203c-0.197-0.081-0.393-0.17-0.588-0.254
		c-0.172-0.076-0.346-0.147-0.518-0.227c-0.196-0.092-0.392-0.191-0.586-0.29c-0.166-0.081-0.334-0.159-0.498-0.245
		c-0.196-0.104-0.389-0.216-0.584-0.322c-0.158-0.092-0.32-0.178-0.479-0.271c-0.191-0.111-0.38-0.234-0.57-0.354
		c-0.156-0.1-0.314-0.195-0.47-0.295c-0.187-0.125-0.368-0.254-0.551-0.383c-0.154-0.107-0.31-0.213-0.462-0.324
		c-0.18-0.133-0.354-0.271-0.529-0.408c-0.152-0.117-0.307-0.232-0.458-0.356c-0.169-0.137-0.334-0.282-0.5-0.424
		c-0.151-0.132-0.306-0.261-0.457-0.396c-0.157-0.144-0.312-0.295-0.467-0.441c-0.128-0.12-0.261-0.239-0.388-0.363
		c-0.023-0.025-0.045-0.051-0.07-0.074c-0.023-0.024-0.051-0.047-0.077-0.072c-0.125-0.129-0.243-0.26-0.364-0.389
		c-0.146-0.154-0.295-0.307-0.437-0.464c-0.138-0.151-0.271-0.31-0.404-0.466c-0.139-0.163-0.281-0.322-0.417-0.488
		c-0.128-0.156-0.25-0.318-0.374-0.479c-0.13-0.17-0.263-0.335-0.388-0.508c-0.12-0.164-0.233-0.328-0.35-0.494
		c-0.12-0.172-0.242-0.344-0.356-0.518c-0.112-0.17-0.218-0.344-0.325-0.518c-0.108-0.173-0.219-0.344-0.323-0.521
		s-0.203-0.356-0.303-0.537c-0.098-0.176-0.197-0.35-0.289-0.525c-0.098-0.184-0.188-0.371-0.28-0.559
		c-0.086-0.174-0.175-0.35-0.257-0.523c-0.089-0.191-0.171-0.387-0.254-0.58c-0.076-0.175-0.153-0.35-0.226-0.525
		c-0.08-0.197-0.152-0.397-0.229-0.598c-0.065-0.175-0.133-0.348-0.195-0.523c-0.069-0.203-0.134-0.408-0.199-0.611
		c-0.058-0.176-0.115-0.35-0.168-0.525c-0.062-0.207-0.114-0.412-0.17-0.621c-0.048-0.177-0.097-0.354-0.141-0.529
		c-0.051-0.209-0.095-0.418-0.14-0.627c-0.039-0.18-0.08-0.355-0.116-0.537c-0.04-0.207-0.073-0.416-0.108-0.627
		c-0.029-0.18-0.063-0.361-0.089-0.545c-0.03-0.207-0.053-0.416-0.077-0.623c-0.021-0.187-0.046-0.371-0.064-0.557
		c-0.02-0.205-0.032-0.41-0.046-0.615c-0.015-0.189-0.029-0.379-0.038-0.568c-0.011-0.202-0.014-0.403-0.019-0.605
		c-0.004-0.193-0.011-0.386-0.011-0.58c0-0.199,0.006-0.396,0.012-0.594c0.004-0.197,0.007-0.396,0.018-0.594
		c0.009-0.193,0.024-0.387,0.039-0.58c0.015-0.202,0.025-0.404,0.045-0.605c0.019-0.188,0.043-0.377,0.065-0.565
		c0.024-0.204,0.047-0.408,0.076-0.612c0.026-0.188,0.062-0.369,0.091-0.557c0.035-0.205,0.066-0.411,0.106-0.615
		c0.036-0.184,0.078-0.365,0.118-0.547c0.045-0.206,0.087-0.412,0.138-0.616c0.044-0.181,0.095-0.36,0.143-0.54
		c0.056-0.203,0.107-0.408,0.168-0.611c0.054-0.18,0.113-0.357,0.171-0.537c0.063-0.199,0.126-0.399,0.195-0.602
		c0.064-0.179,0.133-0.357,0.201-0.533c0.073-0.197,0.146-0.393,0.223-0.588c0.073-0.179,0.152-0.354,0.229-0.533
		c0.082-0.189,0.163-0.381,0.251-0.57c0.083-0.18,0.173-0.355,0.26-0.534c0.091-0.185,0.181-0.368,0.275-0.549
		c0.094-0.181,0.196-0.356,0.294-0.534c0.099-0.177,0.195-0.355,0.298-0.527c0.105-0.18,0.218-0.354,0.328-0.531
		c0.106-0.17,0.211-0.34,0.321-0.508c0.115-0.178,0.239-0.351,0.361-0.523c0.114-0.164,0.226-0.327,0.345-0.49
		c0.127-0.171,0.261-0.341,0.393-0.51c0.122-0.159,0.242-0.316,0.37-0.475c0.135-0.166,0.278-0.328,0.418-0.49
		c0.133-0.156,0.266-0.313,0.402-0.465c0.142-0.156,0.291-0.311,0.438-0.463c0.122-0.129,0.239-0.262,0.365-0.389
		c0.025-0.025,0.053-0.048,0.077-0.072c0.022-0.023,0.045-0.05,0.069-0.074c0.127-0.125,0.256-0.239,0.385-0.361
		c0.156-0.148,0.313-0.301,0.471-0.443c0.148-0.133,0.299-0.261,0.45-0.39c0.168-0.146,0.335-0.292,0.506-0.433
		c0.147-0.119,0.298-0.231,0.447-0.349c0.18-0.141,0.358-0.28,0.54-0.415c0.146-0.107,0.297-0.207,0.445-0.313
		c0.189-0.133,0.377-0.268,0.57-0.396c0.146-0.095,0.294-0.184,0.443-0.277c0.199-0.125,0.396-0.252,0.598-0.371
		c0.145-0.086,0.294-0.164,0.441-0.248c0.207-0.116,0.412-0.234,0.623-0.344c0.146-0.078,0.295-0.147,0.443-0.222
		c0.213-0.106,0.428-0.215,0.643-0.315c0.148-0.068,0.299-0.131,0.449-0.195c0.219-0.096,0.437-0.193,0.656-0.283
		c0.15-0.063,0.303-0.113,0.453-0.173c0.223-0.084,0.444-0.171,0.669-0.25c0.152-0.056,0.306-0.101,0.459-0.149
		c0.173-0.057,0.345-0.115,0.521-0.168l0.031-15.584l-0.063-31.502c-0.003-1.85,1.23-3.406,2.922-3.896v-21.58l-20.1-19.943
		c-1.511,0.764-3.401,0.522-4.673-0.731l-33.52-33.104c-3.488,1.886-7.482,2.958-11.728,2.958
		c-13.638,0-24.695-11.059-24.695-24.696s11.058-24.694,24.695-24.694c13.641,0,24.696,11.058,24.696,24.694
		c0,4.193-1.048,8.142-2.892,11.6l33.486,33.074c1.32,1.306,1.554,3.292,0.697,4.84l18.322,18.18l18.318-18.18
		c-0.856-1.548-0.625-3.534,0.695-4.84l33.488-33.074c-1.846-3.458-2.893-7.405-2.893-11.6c0-13.638,11.057-24.693,24.695-24.693
		c13.637,0,24.695,11.057,24.695,24.693C240.734,69.515,229.678,80.573,216.039,80.573z"/>
	<path fill="#231F20" d="M216.039,38.044c-9.834,0-17.834,8-17.834,17.833c0,2.965,0.73,5.762,2.016,8.225
		c0.367,0.074,0.725,0.201,1.062,0.379l5.759-5.712c-0.295-0.911-0.453-1.883-0.453-2.892c0-5.22,4.231-9.451,9.451-9.451
		c5.221,0,9.452,4.231,9.452,9.451c0,5.221-4.231,9.452-9.452,9.452c-1.033,0-2.025-0.168-2.957-0.475l-5.756,5.71
		c0.184,0.344,0.313,0.707,0.391,1.078c2.486,1.318,5.317,2.068,8.322,2.068c9.834,0,17.834-8,17.834-17.835
		C233.873,46.044,225.873,38.044,216.039,38.044z"/>
</g>
</svg>
