<?xml version="1.0" encoding="utf-8"?>
<!-- Generator: Adobe Illustrator 15.1.0, SVG Export Plug-In . SVG Version: 6.00 Build 0)  -->
<!DOCTYPE svg PUBLIC "-//W3C//DTD SVG 1.0//EN" "http://www.w3.org/TR/2001/REC-SVG-20010904/DTD/svg10.dtd">
<svg version="1.0" id="Layer_1" xmlns="http://www.w3.org/2000/svg" xmlns:xlink="http://www.w3.org/1999/xlink" x="0px" y="0px"
	 width="283.46px" height="283.46px" viewBox="0 0 283.46 283.46" enable-background="new 0 0 283.46 283.46" xml:space="preserve">
<g>
	<path d="M66.689,86.411h175.655v-8.267c0-6.289-5.118-11.405-11.405-11.405h-120.28c-0.409-0.576-0.917-1.078-1.514-1.47
		L85.251,49.543c-0.891-0.586-1.918-0.896-2.966-0.896H37.368c-8.841,0-16.035,7.194-16.035,16.036v12.184
		c-0.047,0.42-0.075,0.845-0.075,1.276v146.138L50.373,98.748C51.976,91.83,59.143,86.411,66.689,86.411z"/>
	<path d="M261.959,98.495c0.284-0.92,0.463-2.237-0.309-3.282c-0.705-0.955-2.097-1.502-3.818-1.502H66.689
		c-4.149,0-8.366,3.063-9.207,6.688L27.476,229.775c-0.323,1.396-0.108,2.658,0.606,3.557c0.76,0.957,2.044,1.482,3.617,1.482
		h180.811c3.886,0,8.297-3.242,9.438-6.941L261.959,98.495z"/>
</g>
</svg>
