<?xml version="1.0" encoding="utf-8"?>
<!-- Generator: Adobe Illustrator 15.1.0, SVG Export Plug-In . SVG Version: 6.00 Build 0)  -->
<!DOCTYPE svg PUBLIC "-//W3C//DTD SVG 1.1//EN" "http://www.w3.org/Graphics/SVG/1.1/DTD/svg11.dtd">
<svg version="1.1" id="Layer_4" xmlns="http://www.w3.org/2000/svg" xmlns:xlink="http://www.w3.org/1999/xlink" x="0px" y="0px"
	 width="283.46px" height="283.46px" viewBox="0 0 283.46 283.46" enable-background="new 0 0 283.46 283.46" xml:space="preserve">
<g>
	<path fill="none" d="M227.373,167.153H56.088c-3.131,0-5.669,2.538-5.669,5.669v8.661c0,3.132,2.538,5.67,5.669,5.67h171.285
		c3.131,0,5.668-2.538,5.668-5.67v-8.661C233.041,169.691,230.504,167.153,227.373,167.153z"/>
	<path fill="none" d="M248.646,16.439H34.815c-1.168,0-2.471,1.513-2.471,3.684v27.986h218.771V20.123
		C251.115,17.952,249.814,16.439,248.646,16.439z M181.43,38.646c-3.439,0-6.229-2.789-6.229-6.229s2.789-6.229,6.229-6.229
		c3.441,0,6.23,2.789,6.23,6.229S184.871,38.646,181.43,38.646z M204.106,38.646c-3.439,0-6.229-2.789-6.229-6.229
		s2.789-6.229,6.229-6.229c3.441,0,6.23,2.789,6.23,6.229S207.548,38.646,204.106,38.646z M226.783,38.646
		c-3.439,0-6.229-2.789-6.229-6.229s2.789-6.229,6.229-6.229c3.441,0,6.23,2.789,6.23,6.229S230.225,38.646,226.783,38.646z"/>
	<path fill="none" d="M227.373,82.103H56.088c-3.131,0-5.669,2.538-5.669,5.669v8.661c0,3.131,2.538,5.669,5.669,5.669h171.285
		c3.131,0,5.668-2.538,5.668-5.669v-8.661C233.041,84.641,230.504,82.103,227.373,82.103z"/>
	<path fill="none" d="M227.373,124.623H56.088c-3.131,0-5.669,2.538-5.669,5.669v8.665c0,3.137,2.538,5.677,5.669,5.677h171.285
		c3.131,0,5.668-2.54,5.668-5.677v-8.665C233.041,127.161,230.504,124.623,227.373,124.623z"/>
	<path d="M253.167,7.084H30.295c-3.725,0-6.745,3.606-6.745,8.056v33.533V268.32c0,4.449,3.02,8.056,6.745,8.056h222.872
		c3.726,0,6.743-3.606,6.743-8.056V48.672V15.14C259.91,10.69,256.893,7.084,253.167,7.084z M233.041,215.342v25.055v5.748
		c0,3.927-3.184,7.111-7.111,7.111h-82c-3.927,0-7.109-3.185-7.109-7.111v-31.423c0-3.927,3.182-7.109,7.109-7.109h82
		c3.928,0,7.111,3.183,7.111,7.109V215.342z M233.041,181.483c0,3.132-2.537,5.67-5.668,5.67H56.088
		c-3.131,0-5.669-2.538-5.669-5.67v-8.661c0-3.131,2.538-5.669,5.669-5.669h171.285c3.131,0,5.668,2.538,5.668,5.669V181.483z
		 M233.041,138.957c0,3.137-2.537,5.677-5.668,5.677H56.088c-3.131,0-5.669-2.54-5.669-5.677v-8.665
		c0-3.131,2.538-5.669,5.669-5.669h171.285c3.131,0,5.668,2.538,5.668,5.669V138.957z M233.041,96.434
		c0,3.131-2.537,5.669-5.668,5.669H56.088c-3.131,0-5.669-2.538-5.669-5.669v-8.661c0-3.131,2.538-5.669,5.669-5.669h171.285
		c3.131,0,5.668,2.538,5.668,5.669V96.434z M251.115,48.109H32.345V20.123c0-2.171,1.302-3.684,2.471-3.684h213.831
		c1.168,0,2.469,1.513,2.469,3.684V48.109z"/>
	<circle cx="181.43" cy="32.417" r="6.229"/>
	<circle cx="204.106" cy="32.417" r="6.229"/>
	<circle cx="226.783" cy="32.417" r="6.229"/>
	<path d="M151.199,230.6c-0.355-0.348-0.8-0.651-1.335-0.912c-0.534-0.261-1.164-0.525-1.887-0.792
		c-0.348-0.122-0.665-0.238-0.952-0.352c-0.288-0.114-0.542-0.241-0.762-0.381c-0.221-0.142-0.393-0.298-0.513-0.472
		s-0.181-0.389-0.181-0.644c0-0.427,0.164-0.745,0.492-0.952c0.327-0.207,0.864-0.312,1.614-0.312c0.669,0,1.242,0.077,1.717,0.23
		c0.475,0.154,0.905,0.332,1.294,0.532l0.903-2.469c-0.441-0.24-1.004-0.461-1.687-0.661c-0.682-0.201-1.491-0.302-2.429-0.302
		c-0.788,0-1.496,0.097-2.126,0.292c-0.63,0.193-1.163,0.472-1.604,0.831c-0.442,0.361-0.784,0.8-1.024,1.315
		c-0.241,0.515-0.361,1.094-0.361,1.735c0,0.643,0.114,1.188,0.342,1.636c0.227,0.448,0.522,0.83,0.882,1.144
		c0.361,0.314,0.769,0.576,1.225,0.783c0.454,0.206,0.908,0.392,1.364,0.552c1.043,0.348,1.778,0.671,2.207,0.973
		c0.429,0.301,0.642,0.68,0.642,1.134c0,0.215-0.033,0.408-0.101,0.582c-0.066,0.174-0.186,0.324-0.36,0.452
		c-0.174,0.127-0.405,0.228-0.692,0.3c-0.288,0.075-0.652,0.111-1.093,0.111c-0.885,0-1.629-0.091-2.239-0.271
		c-0.607-0.181-1.119-0.384-1.534-0.611l-0.883,2.487c0.188,0.108,0.419,0.221,0.693,0.342c0.273,0.12,0.601,0.234,0.982,0.341
		c0.383,0.107,0.819,0.197,1.315,0.271c0.495,0.072,1.05,0.11,1.666,0.11c1.832,0,3.203-0.357,4.112-1.074
		c0.909-0.715,1.365-1.722,1.365-3.021c0-0.668-0.088-1.236-0.262-1.704C151.817,231.355,151.553,230.948,151.199,230.6z"/>
	<path d="M162.104,237.624c0.989,0,1.847-0.135,2.569-0.401c0.723-0.268,1.317-0.646,1.786-1.135
		c0.468-0.487,0.815-1.072,1.043-1.755c0.227-0.682,0.341-1.432,0.341-2.247v-8.649h-3.131v8.389c0,1.123-0.237,1.919-0.712,2.387
		c-0.476,0.469-1.093,0.703-1.856,0.703c-0.374,0-0.719-0.054-1.032-0.16c-0.315-0.108-0.583-0.284-0.804-0.532
		c-0.22-0.247-0.394-0.569-0.521-0.964c-0.127-0.395-0.19-0.873-0.19-1.434v-8.389h-3.131v8.649c0,0.815,0.11,1.562,0.33,2.236
		c0.222,0.676,0.563,1.258,1.024,1.746c0.462,0.489,1.047,0.87,1.756,1.145C160.284,237.485,161.128,237.624,162.104,237.624z"/>
	<path d="M177.495,237.523c2.101,0,3.683-0.368,4.746-1.104c1.064-0.736,1.596-1.833,1.596-3.291c0-0.723-0.162-1.371-0.482-1.947
		c-0.321-0.574-0.923-1.03-1.806-1.364c1.07-0.642,1.604-1.518,1.604-2.628c0-0.736-0.149-1.355-0.45-1.857
		c-0.302-0.501-0.72-0.905-1.255-1.214c-0.535-0.307-1.173-0.523-1.915-0.651c-0.743-0.127-1.556-0.191-2.439-0.191
		c-0.654,0-1.365,0.031-2.127,0.091c-0.762,0.061-1.465,0.151-2.106,0.271v13.485c0.815,0.174,1.603,0.284,2.357,0.33
		C175.974,237.5,176.733,237.523,177.495,237.523z M175.91,225.865c0.24-0.027,0.515-0.044,0.823-0.051
		c0.308-0.007,0.595-0.011,0.862-0.011c0.83,0,1.457,0.114,1.886,0.342s0.642,0.622,0.642,1.185c0,0.549-0.205,0.945-0.62,1.192
		c-0.416,0.249-1.104,0.373-2.066,0.373h-1.526V225.865z M177.877,231.282c0.896,0,1.585,0.137,2.067,0.411
		c0.48,0.274,0.722,0.732,0.722,1.375c0,0.723-0.288,1.218-0.863,1.485c-0.574,0.267-1.33,0.401-2.268,0.401
		c-0.32,0-0.616-0.007-0.883-0.021s-0.515-0.033-0.742-0.061v-3.592H177.877z"/>
	<path d="M202.829,226.536c-0.113-1.143-0.238-2.177-0.371-3.1h-2.85c-0.241,0.442-0.521,0.987-0.834,1.635
		c-0.316,0.649-0.645,1.353-0.987,2.108c-0.342,0.755-0.681,1.528-1.016,2.316c-0.335,0.79-0.65,1.532-0.945,2.229
		c-0.295-0.696-0.611-1.438-0.946-2.229c-0.336-0.788-0.674-1.562-1.016-2.316c-0.342-0.756-0.67-1.459-0.986-2.108
		c-0.315-0.647-0.593-1.192-0.835-1.635h-2.989c-0.134,0.923-0.259,1.957-0.371,3.1c-0.114,1.144-0.215,2.336-0.302,3.572
		c-0.087,1.237-0.167,2.479-0.24,3.723s-0.137,2.415-0.19,3.512h3.049c0.041-1.352,0.094-2.822,0.162-4.414
		c0.066-1.593,0.167-3.198,0.3-4.816c0.241,0.562,0.511,1.184,0.805,1.865c0.297,0.683,0.588,1.364,0.877,2.047
		c0.288,0.684,0.566,1.335,0.836,1.957c0.268,0.622,0.495,1.154,0.683,1.595h2.188c0.188-0.44,0.417-0.973,0.685-1.595
		c0.269-0.622,0.548-1.273,0.836-1.957c0.287-0.683,0.58-1.364,0.875-2.047c0.296-0.682,0.563-1.304,0.807-1.865
		c0.132,1.618,0.232,3.224,0.301,4.816c0.066,1.592,0.12,3.063,0.159,4.414h3.051c-0.054-1.097-0.117-2.268-0.19-3.512
		s-0.153-2.485-0.241-3.723C203.044,228.872,202.943,227.68,202.829,226.536z"/>
	<rect x="208.356" y="223.437" width="3.131" height="13.906"/>
	<polygon points="227.019,223.437 215.5,223.437 215.5,226.105 219.694,226.105 219.694,237.343 222.825,237.343 222.825,226.105 
		227.019,226.105 	"/>
</g>
</svg>
