<?xml version="1.0" encoding="utf-8"?>
<!-- Generator: Adobe Illustrator 15.1.0, SVG Export Plug-In . SVG Version: 6.00 Build 0)  -->
<!DOCTYPE svg PUBLIC "-//W3C//DTD SVG 1.0//EN" "http://www.w3.org/TR/2001/REC-SVG-20010904/DTD/svg10.dtd">
<svg version="1.0" id="Layer_1" xmlns="http://www.w3.org/2000/svg" xmlns:xlink="http://www.w3.org/1999/xlink" x="0px" y="0px"
	 width="283.46px" height="283.46px" viewBox="0 0 283.46 283.46" enable-background="new 0 0 283.46 283.46" xml:space="preserve">
<g>
	<path fill="none" d="M52.347,34.502h77.024c2.525,0,4.571-1.595,4.571-3.56c0-1.967-2.046-3.563-4.571-3.563H52.347
		c-2.526-0.001-4.574,1.597-4.574,3.563C47.773,32.906,49.821,34.502,52.347,34.502z"/>
	<path fill="none" d="M52.347,60.634h77.024c2.525,0,4.571-1.594,4.571-3.559s-2.046-3.563-4.571-3.563H52.347
		c-2.526,0-4.574,1.597-4.574,3.563C47.773,59.04,49.821,60.634,52.347,60.634z"/>
	<path fill="none" d="M47.773,83.082c0,1.966,2.048,3.56,4.574,3.56h64.919v-7.12H52.347C49.821,79.521,47.773,81.116,47.773,83.082
		z"/>
	<g>
		<path fill="none" d="M129.371,53.512H52.347c-2.526,0-4.574,1.597-4.574,3.563c0,1.965,2.048,3.559,4.574,3.559h77.024
			c2.525,0,4.571-1.594,4.571-3.559S131.896,53.512,129.371,53.512z"/>
		<path fill="none" d="M129.371,27.38H52.347c-2.526-0.001-4.574,1.597-4.574,3.563c0,1.963,2.048,3.56,4.574,3.56h77.024
			c2.525,0,4.571-1.595,4.571-3.56C133.942,28.976,131.896,27.38,129.371,27.38z"/>
		<path fill="#010101" d="M148.272,14.479H33.442c-3.566,0-6.46,2.892-6.46,6.459v70.753c0,3.567,2.894,6.459,6.46,6.459h8.737
			l-1.889,27.347c-0.032,0.455,0.209,0.885,0.614,1.093c0.164,0.083,0.344,0.127,0.522,0.127c0.258,0,0.516-0.088,0.724-0.26
			l34.4-28.306h40.714V86.641H52.347c-2.526,0-4.574-1.594-4.574-3.56s2.048-3.56,4.574-3.56h64.919v-2.45
			c0-6.73,5.475-12.206,12.207-12.206h25.258V20.938C154.73,17.371,151.84,14.479,148.272,14.479z M129.371,60.634H52.347
			c-2.526,0-4.574-1.594-4.574-3.559c0-1.966,2.048-3.563,4.574-3.563h77.024c2.525,0,4.571,1.598,4.571,3.563
			S131.896,60.634,129.371,60.634z M129.371,34.502H52.347c-2.526,0-4.574-1.596-4.574-3.56c0-1.966,2.048-3.564,4.574-3.563h77.024
			c2.525,0,4.571,1.596,4.571,3.563C133.942,32.908,131.896,34.502,129.371,34.502z"/>
	</g>
	<path fill="#010101" d="M244.271,70.615H154.73h-25.258c-3.566,0-6.458,2.89-6.458,6.457v2.45v7.12V98.15v49.653
		c0,3.567,2.892,6.458,6.458,6.458h71.7l34.392,28.299c0.21,0.17,0.466,0.258,0.725,0.258c0.182,0,0.358-0.041,0.521-0.125
		c0.407-0.211,0.647-0.641,0.616-1.094l-1.89-27.34h8.734c3.565,0,6.457-2.889,6.457-6.456V77.071
		C250.729,73.506,247.837,70.615,244.271,70.615z M156.098,120.463c-4.165,0-7.543-3.377-7.543-7.542
		c0-4.166,3.378-7.542,7.543-7.542c4.164,0,7.543,3.376,7.543,7.542C163.641,117.086,160.262,120.463,156.098,120.463z
		 M186.265,120.463c-4.165,0-7.542-3.377-7.542-7.542c0-4.166,3.377-7.542,7.542-7.542s7.543,3.376,7.543,7.542
		C193.808,117.086,190.43,120.463,186.265,120.463z M216.432,120.463c-4.164,0-7.538-3.377-7.538-7.542
		c0-4.166,3.374-7.542,7.538-7.542c4.165,0,7.543,3.376,7.543,7.542C223.975,117.086,220.597,120.463,216.432,120.463z"/>
	<path fill="#010101" d="M108.983,251.854c-0.301-2.564-0.946-5.063-1.926-7.422c-1.382-3.352-3.429-6.436-6.04-9.043
		c-2.619-2.613-5.696-4.656-9.045-6.045c-3.349-1.387-6.972-2.119-10.672-2.119c0,0,0,0-0.008,0h-0.177
		c5.029-1.496,9.381-4.58,12.471-8.666c3.077-4.074,4.902-9.145,4.902-14.641c0-6.713-2.722-12.789-7.125-17.191
		c-4.401-4.402-10.479-7.129-17.188-7.129c-6.709,0-12.788,2.727-17.19,7.129s-7.131,10.479-7.131,17.191
		c0,5.496,1.825,10.566,4.905,14.639c3.09,4.088,7.439,7.172,12.468,8.668c-3.659,0.012-7.241,0.746-10.556,2.119
		c-3.351,1.389-6.432,3.428-9.044,6.045c-2.614,2.615-4.655,5.691-6.043,9.043c-0.979,2.359-1.625,4.857-1.926,7.422h0.042h69.241
		H108.983z"/>
	<path fill="#010101" d="M235.836,235.389c-2.619-2.613-5.697-4.656-9.045-6.045c-3.35-1.387-6.971-2.119-10.672-2.119
		c0,0,0,0-0.008,0h-0.178c5.029-1.496,9.383-4.58,12.471-8.666c3.078-4.074,4.902-9.145,4.902-14.641
		c0-6.713-2.723-12.789-7.125-17.191c-4.398-4.402-10.479-7.129-17.188-7.129s-12.789,2.727-17.189,7.129
		c-4.402,4.402-7.131,10.479-7.131,17.189c0,5.498,1.824,10.568,4.904,14.641c3.09,4.088,7.439,7.172,12.469,8.668
		c-3.66,0.012-7.242,0.746-10.557,2.119c-3.35,1.389-6.432,3.428-9.045,6.045c-2.613,2.615-4.654,5.691-6.041,9.043
		c-0.98,2.359-1.625,4.857-1.926,7.422h0.041h69.242h0.039c-0.299-2.564-0.945-5.063-1.926-7.422
		C240.494,241.08,238.447,237.996,235.836,235.389z"/>
	<path fill="#010101" d="M168.463,252.516c-2.619-2.611-5.697-4.654-9.047-6.043c-3.348-1.389-6.969-2.119-10.67-2.119
		c0,0,0,0-0.01,0h-0.174c5.027-1.498,9.381-4.582,12.469-8.666c3.078-4.074,4.902-9.148,4.902-14.643
		c0-6.713-2.721-12.789-7.123-17.191s-10.479-7.127-17.191-7.127c-6.708,0-12.787,2.725-17.189,7.127
		c-4.403,4.402-7.131,10.479-7.131,17.189c0,5.496,1.826,10.57,4.906,14.643c3.089,4.086,7.439,7.17,12.468,8.668
		c-3.66,0.01-7.241,0.746-10.556,2.119c-3.351,1.389-6.432,3.426-9.044,6.043c-2.615,2.615-4.655,5.693-6.043,9.045
		c-0.979,2.357-1.625,4.857-1.926,7.42h0.042h69.24h0.041c-0.299-2.563-0.945-5.063-1.924-7.42
		C173.121,258.209,171.072,255.125,168.463,252.516z"/>
</g>
</svg>
