<?xml version="1.0" encoding="iso-8859-1"?>
<!-- Generator: Adobe Illustrator 15.1.0, SVG Export Plug-In . SVG Version: 6.00 Build 0)  -->
<!DOCTYPE svg PUBLIC "-//W3C//DTD SVG 1.1//EN" "http://www.w3.org/Graphics/SVG/1.1/DTD/svg11.dtd">
<svg version="1.1" id="Layer_4" xmlns="http://www.w3.org/2000/svg" xmlns:xlink="http://www.w3.org/1999/xlink" x="0px" y="0px"
	 width="283.46px" height="283.46px" viewBox="0 0 283.46 283.46" style="enable-background:new 0 0 283.46 283.46;"
	 xml:space="preserve">
<g>
	<path d="M275.745,154.754c0.842-8.66,0.842-17.385,0-26.045l-20.884-4.29c-1.269-8.303-3.45-16.44-6.5-24.262L264.299,86
		c-3.599-7.919-7.962-15.474-13.019-22.553l-20.232,6.727c-5.252-6.556-11.208-12.509-17.761-17.762l6.728-20.23
		c-7.077-5.059-14.633-9.42-22.554-13.023L183.302,35.1c-7.822-3.05-15.959-5.231-24.262-6.5l-4.289-20.884
		c-8.662-0.842-17.384-0.842-26.045,0l-4.29,20.883c-8.299,1.271-16.437,3.452-24.261,6.501L86,19.158
		c-7.923,3.603-15.477,7.964-22.556,13.023l6.728,20.23c-6.555,5.253-12.51,11.206-17.763,17.762L32.18,63.447
		C27.121,70.524,22.761,78.08,19.158,86l15.94,14.158c-3.052,7.822-5.229,15.959-6.502,24.262l-20.88,4.29
		c-0.842,8.66-0.842,17.385,0,26.045l20.88,4.289c1.273,8.3,3.45,16.437,6.502,24.262l-15.94,14.154
		c3.603,7.924,7.962,15.475,13.022,22.558l20.229-6.729c5.252,6.557,11.208,12.513,17.763,17.764l-6.728,20.229
		c7.078,5.06,14.632,9.42,22.556,13.021l14.156-15.939c7.824,3.052,15.961,5.229,24.261,6.501l4.29,20.881
		c8.661,0.842,17.383,0.842,26.045,0l4.289-20.881c8.303-1.271,16.439-3.449,24.262-6.501l14.159,15.939
		c7.918-3.602,15.474-7.962,22.554-13.021l-6.728-20.229c6.553-5.251,12.509-11.207,17.761-17.764l20.232,6.729
		c5.057-7.08,9.42-14.632,13.019-22.558l-15.938-14.154c3.05-7.825,5.231-15.962,6.5-24.262L275.745,154.754z M141.729,223.083
		c-44.899,0-81.352-36.45-81.352-81.352c0-44.9,36.452-81.352,81.352-81.352s81.352,36.453,81.352,81.352
		C223.081,186.632,186.627,223.083,141.729,223.083z"/>
	<path style="fill:#010101;" d="M150.577,122.908V98.433c-0.002-1.986-1.612-3.598-3.6-3.598H83c-1.986,0-3.599,1.611-3.599,3.598
		v39.421c0,1.987,1.612,3.598,3.599,3.598h4.868l-1.053,15.237c-0.018,0.253,0.116,0.493,0.343,0.608
		c0.091,0.046,0.191,0.071,0.29,0.071c0.145,0,0.288-0.049,0.403-0.145l19.166-15.771h22.685v-6.412H93.533
		c-1.407,0-2.549-0.889-2.549-1.984c0-1.095,1.142-1.983,2.549-1.983h36.17v-1.365c0-3.749,3.05-6.8,6.801-6.8H150.577z
		 M93.533,102.023h42.914c1.406,0,2.547,0.889,2.547,1.984s-1.141,1.983-2.547,1.983H93.533c-1.407,0-2.549-0.889-2.549-1.983
		S92.125,102.022,93.533,102.023z M93.533,120.55c-1.407,0-2.549-0.888-2.549-1.982c0-1.096,1.142-1.985,2.549-1.985h42.914
		c1.406,0,2.547,0.89,2.547,1.985c0,1.095-1.141,1.982-2.547,1.982H93.533z"/>
	<path style="fill:#010101;" d="M136.502,126.111c-1.986,0-3.598,1.61-3.598,3.598v1.365v3.967v6.411v27.665
		c0,1.987,1.611,3.599,3.598,3.599h39.948l19.161,15.767c0.117,0.094,0.259,0.144,0.404,0.144c0.102,0,0.199-0.022,0.29-0.069
		c0.227-0.118,0.36-0.357,0.343-0.61l-1.052-15.231h4.865c1.986,0,3.598-1.61,3.598-3.598v-39.409
		c0.001-1.985-1.61-3.597-3.597-3.597h-49.889H136.502z M184.953,145.48c2.321,0,4.203,1.882,4.203,4.203
		c0,2.319-1.882,4.2-4.203,4.2c-2.32,0-4.2-1.881-4.2-4.2C180.752,147.362,182.632,145.48,184.953,145.48z M168.146,145.48
		c2.319,0,4.201,1.882,4.201,4.203c0,2.319-1.882,4.2-4.201,4.2c-2.321,0-4.203-1.881-4.203-4.2
		C163.943,147.362,165.825,145.48,168.146,145.48z M155.541,149.683c0,2.319-1.883,4.2-4.203,4.2s-4.203-1.881-4.203-4.2
		c0-2.321,1.883-4.203,4.203-4.203S155.541,147.362,155.541,149.683z"/>
</g>
</svg>
