<?xml version="1.0" encoding="utf-8"?>
<!-- Generator: Adobe Illustrator 15.1.0, SVG Export Plug-In . SVG Version: 6.00 Build 0)  -->
<!DOCTYPE svg PUBLIC "-//W3C//DTD SVG 1.1//EN" "http://www.w3.org/Graphics/SVG/1.1/DTD/svg11.dtd">
<svg version="1.1" id="Layer_1" xmlns="http://www.w3.org/2000/svg" xmlns:xlink="http://www.w3.org/1999/xlink" x="0px" y="0px"
	 width="283.46px" height="283.46px" viewBox="0 0 283.46 283.46" enable-background="new 0 0 283.46 283.46" xml:space="preserve">
<g>
	<path fill="none" d="M55.223,27.262h77.023c2.525,0,4.571-1.594,4.571-3.56c0-1.967-2.046-3.563-4.571-3.563H55.223
		c-2.526-0.001-4.574,1.598-4.574,3.563C50.649,25.667,52.697,27.262,55.223,27.262z"/>
	<circle fill="none" cx="158.974" cy="105.681" r="7.542"/>
	<circle fill="none" cx="189.141" cy="105.681" r="7.542"/>
	<circle fill="none" cx="219.308" cy="105.681" r="7.542"/>
	<path fill="none" d="M55.223,53.394h77.023c2.525,0,4.571-1.594,4.571-3.559s-2.046-3.563-4.571-3.563H55.223
		c-2.526,0-4.574,1.597-4.574,3.563C50.649,51.8,52.697,53.394,55.223,53.394z"/>
	<path fill="#010101" d="M120.14,90.912v-11.51H55.223c-2.526,0-4.574-1.595-4.574-3.561s2.048-3.56,4.574-3.56h64.919v-2.45
		c0-6.73,5.475-12.206,12.207-12.206h25.258V13.699c-0.001-3.567-2.892-6.459-6.459-6.459H36.318c-3.566,0-6.46,2.892-6.46,6.459
		v70.753c0,3.566,2.894,6.459,6.46,6.459h8.737l-1.89,27.347c-0.032,0.455,0.209,0.885,0.614,1.093
		c0.164,0.083,0.344,0.127,0.521,0.127c0.259,0,0.517-0.088,0.725-0.26l34.399-28.306H120.14z M55.223,20.139h77.023
		c2.525,0,4.571,1.597,4.571,3.563c0,1.966-2.046,3.56-4.571,3.56H55.223c-2.526,0-4.574-1.596-4.574-3.56
		C50.649,21.737,52.697,20.138,55.223,20.139z M55.223,46.273h77.023c2.525,0,4.571,1.598,4.571,3.563s-2.046,3.559-4.571,3.559
		H55.223c-2.526,0-4.574-1.594-4.574-3.559C50.649,47.87,52.697,46.273,55.223,46.273z"/>
	<path fill="#010101" d="M247.147,63.375h-89.541h-25.258c-3.566,0-6.458,2.89-6.458,6.457v2.45v7.12v11.508v49.653
		c0,3.567,2.892,6.458,6.458,6.458h71.699l34.393,28.299c0.21,0.17,0.466,0.258,0.725,0.258c0.183,0,0.358-0.041,0.521-0.125
		c0.406-0.211,0.646-0.641,0.615-1.094l-1.889-27.34h8.733c3.565,0,6.457-2.889,6.457-6.456V69.832
		C253.605,66.266,250.713,63.375,247.147,63.375z M158.974,113.223c-4.165,0-7.543-3.377-7.543-7.542
		c0-4.166,3.378-7.542,7.543-7.542c4.164,0,7.543,3.376,7.543,7.542C166.517,109.846,163.138,113.223,158.974,113.223z
		 M189.141,113.223c-4.165,0-7.542-3.377-7.542-7.542c0-4.166,3.377-7.542,7.542-7.542s7.543,3.376,7.543,7.542
		C196.684,109.846,193.306,113.223,189.141,113.223z M219.308,113.223c-4.164,0-7.538-3.377-7.538-7.542
		c0-4.166,3.374-7.542,7.538-7.542c4.165,0,7.543,3.376,7.543,7.542C226.851,109.846,223.473,113.223,219.308,113.223z"/>
	<path d="M108.747,210.445c0-5.595,1.64-10.939,4.692-15.49c-1.444-1.033-2.995-1.899-4.625-2.574
		c-0.079-0.034-0.16-0.066-0.241-0.098c-0.576-0.231-1.161-0.438-1.758-0.624c-0.036-0.012-0.072-0.024-0.111-0.035
		c-0.094-0.03-0.188-0.056-0.284-0.084c-0.087-0.025-0.176-0.051-0.264-0.075c-0.054-0.016-0.106-0.03-0.161-0.044
		c-0.129-0.036-0.262-0.07-0.393-0.104c-0.019-0.003-0.036-0.008-0.055-0.015c-1.631-0.405-3.313-0.635-5.019-0.677
		c-0.014-0.001-0.027-0.001-0.041-0.001c-0.148-0.002-0.297-0.007-0.446-0.007c4.179-1.244,7.795-3.805,10.36-7.201
		c2.561-3.384,4.077-7.599,4.077-12.165c0-5.578-2.267-10.627-5.926-14.284c-3.658-3.66-8.71-5.924-14.283-5.924
		c-0.041,0-0.081,0.002-0.122,0.002c-0.039,0-0.08-0.002-0.121-0.002c-5.575,0-10.626,2.264-14.283,5.924
		c-3.659,3.657-5.925,8.706-5.925,14.284c0,4.566,1.515,8.781,4.076,12.165c2.566,3.396,6.182,5.957,10.36,7.201
		c-0.148,0-0.298,0.005-0.446,0.007c-0.014,0-0.028,0-0.041,0.001c-1.709,0.042-3.393,0.272-5.024,0.679
		c-0.017,0.005-0.033,0.01-0.048,0.013c-0.135,0.034-0.269,0.069-0.402,0.105c-0.05,0.015-0.102,0.027-0.152,0.04
		c-0.092,0.026-0.183,0.056-0.274,0.081c-0.092,0.027-0.183,0.051-0.274,0.08c-0.041,0.012-0.083,0.024-0.124,0.039
		c-0.588,0.182-1.167,0.389-1.736,0.616c-0.083,0.034-0.166,0.065-0.249,0.1c-2.521,1.044-4.854,2.532-6.882,4.416
		c-0.216,0.199-0.428,0.399-0.637,0.605c-2.104,2.104-3.763,4.577-4.908,7.262c-0.036,0.084-0.074,0.168-0.109,0.254
		c-0.094,0.225-0.182,0.45-0.267,0.677c-0.664,1.761-1.111,3.603-1.333,5.492v13.179h47.06
		C110.004,220.074,108.747,215.36,108.747,210.445z"/>
	<path d="M206.688,204.916c-0.034-0.085-0.074-0.17-0.11-0.254c-1.145-2.685-2.806-5.158-4.909-7.261
		c-0.208-0.207-0.418-0.407-0.634-0.605c-2.029-1.884-4.363-3.372-6.883-4.417c-0.084-0.033-0.167-0.065-0.248-0.098
		c-0.57-0.229-1.15-0.437-1.737-0.618c-0.041-0.014-0.082-0.027-0.124-0.039c-0.092-0.028-0.182-0.053-0.274-0.079
		c-0.092-0.026-0.184-0.055-0.273-0.08c-0.053-0.015-0.103-0.027-0.155-0.042c-0.131-0.035-0.267-0.071-0.4-0.105
		c-0.016-0.002-0.032-0.006-0.049-0.013c-1.632-0.406-3.315-0.636-5.025-0.678c-0.012-0.001-0.026-0.001-0.039-0.001
		c-0.148-0.002-0.297-0.007-0.444-0.007c4.178-1.243,7.793-3.806,10.357-7.202c2.562-3.383,4.077-7.599,4.077-12.164
		c0-5.578-2.265-10.626-5.925-14.284c-3.655-3.66-8.707-5.925-14.283-5.925c-0.041,0-0.081,0.001-0.122,0.002
		c-0.04,0-0.082-0.002-0.122-0.002c-5.572,0-10.624,2.264-14.283,5.924c-3.659,3.657-5.925,8.706-5.925,14.284
		c0,4.566,1.518,8.781,4.075,12.165c2.566,3.397,6.184,5.957,10.362,7.201c-0.148,0-0.298,0.005-0.447,0.007
		c-0.014,0-0.027,0-0.039,0.001c-1.708,0.042-3.388,0.271-5.021,0.677c-0.017,0.007-0.035,0.012-0.055,0.015
		c-0.129,0.033-0.262,0.067-0.392,0.104c-0.055,0.014-0.109,0.028-0.161,0.044c-0.088,0.024-0.177,0.05-0.264,0.075
		c-0.097,0.028-0.19,0.054-0.285,0.084c-0.038,0.011-0.076,0.023-0.111,0.035c-0.594,0.186-1.18,0.393-1.758,0.624
		c-0.08,0.031-0.161,0.063-0.24,0.098c-1.631,0.676-3.182,1.541-4.626,2.576c3.052,4.549,4.691,9.895,4.691,15.488
		c0,4.917-1.258,9.63-3.66,13.818h47.062v-13.179c-0.222-1.89-0.669-3.731-1.334-5.492
		C206.869,205.366,206.781,205.14,206.688,204.916z"/>
	<path d="M170.569,252.214c-0.046-0.104-0.093-0.211-0.137-0.317c-1.422-3.329-3.483-6.398-6.093-9.005
		c-0.257-0.256-0.521-0.508-0.787-0.755c-2.517-2.335-5.413-4.183-8.538-5.478c-0.104-0.044-0.205-0.082-0.309-0.123
		c-0.708-0.283-1.427-0.54-2.157-0.766c-0.049-0.015-0.102-0.033-0.152-0.05c-0.115-0.033-0.228-0.065-0.341-0.1
		c-0.113-0.032-0.228-0.066-0.341-0.098c-0.063-0.019-0.126-0.034-0.188-0.051c-0.167-0.045-0.332-0.09-0.499-0.132
		c-0.02-0.006-0.04-0.011-0.061-0.015c-2.024-0.505-4.113-0.791-6.233-0.843c-0.018-0.001-0.034-0.001-0.052-0.001
		c-0.183-0.006-0.367-0.01-0.552-0.01c5.184-1.542,9.669-4.722,12.855-8.935c3.176-4.199,5.057-9.429,5.057-15.094
		c0.001-6.921-2.812-13.186-7.351-17.724c-4.541-4.539-10.807-7.349-17.724-7.349c-0.05,0-0.1,0.001-0.15,0.002
		c-0.052,0-0.101-0.002-0.152-0.002c-6.915,0-13.183,2.81-17.721,7.349c-4.541,4.538-7.353,10.802-7.353,17.724
		c0,5.666,1.881,10.895,5.058,15.094c3.184,4.214,7.67,7.393,12.854,8.936c-0.186,0-0.367,0.004-0.554,0.009
		c-0.017,0-0.035,0-0.051,0.002c-2.115,0.051-4.203,0.337-6.228,0.841c-0.021,0.006-0.043,0.01-0.066,0.016
		c-0.162,0.04-0.326,0.084-0.487,0.129c-0.068,0.016-0.135,0.033-0.2,0.054c-0.109,0.029-0.219,0.063-0.327,0.094
		c-0.119,0.034-0.235,0.067-0.352,0.104c-0.049,0.016-0.095,0.029-0.14,0.044c-0.737,0.23-1.464,0.488-2.18,0.775
		c-0.1,0.038-0.2,0.078-0.299,0.12c-3.129,1.297-6.027,3.146-8.549,5.487c-0.262,0.243-0.523,0.49-0.778,0.744
		c-2.631,2.628-4.703,5.726-6.127,9.085c-0.033,0.079-0.068,0.16-0.101,0.237c-0.092,0.222-0.177,0.447-0.263,0.669
		c-0.861,2.234-1.44,4.581-1.723,6.983h0.001v16.354h71.472v-16.354c-0.276-2.341-0.83-4.629-1.654-6.812
		C170.794,252.773,170.683,252.492,170.569,252.214z"/>
</g>
</svg>
