<?xml version="1.0" encoding="utf-8"?>
<!-- Generator: Adobe Illustrator 15.1.0, SVG Export Plug-In . SVG Version: 6.00 Build 0)  -->
<!DOCTYPE svg PUBLIC "-//W3C//DTD SVG 1.1//EN" "http://www.w3.org/Graphics/SVG/1.1/DTD/svg11.dtd">
<svg version="1.1" id="Layer_5" xmlns="http://www.w3.org/2000/svg" xmlns:xlink="http://www.w3.org/1999/xlink" x="0px" y="0px"
	 width="283.46px" height="283.46px" viewBox="0 0 283.46 283.46" enable-background="new 0 0 283.46 283.46" xml:space="preserve">
<g>
	<path fill="#231F20" d="M217.502,163.883c-1.165,0-2.366,0.167-3.566,0.499l-4.517,1.244l-6.653-16.209
		c-3.729-9.085-14.757-16.478-24.58-16.478h-73.029c-9.822,0-20.85,7.394-24.579,16.479l-6.643,16.178l-4.408-1.214
		c-1.201-0.331-2.4-0.499-3.565-0.499c-5.859,0-10.113,4.203-10.113,9.994c0,5.717,4.173,10.53,9.827,11.976
		c-3.101,8.564-5.511,21.401-5.511,29.835v0.301v34.188c0,7.363,5.99,13.353,13.353,13.353h4.896
		c7.363,0,13.353-5.989,13.353-13.353v-6.452h99.81v6.452c0,7.363,5.989,13.353,13.352,13.353h4.899
		c7.362,0,13.352-5.989,13.352-13.353V215.99v-0.301c0-8.426-2.404-21.246-5.501-29.809c5.711-1.41,9.938-6.25,9.938-12.002
		C227.614,168.085,223.361,163.883,217.502,163.883z M90.697,164.881l9.419-16.853c1.937-3.465,7.691-6.299,12.789-6.299h58.733
		c5.097,0,10.853,2.834,12.788,6.299l9.419,16.853c1.938,3.465-0.65,6.299-5.748,6.299H96.446
		C91.347,171.18,88.761,168.346,90.697,164.881z M96.66,225.679c-0.666,0.141-1.355,0.217-2.063,0.217s-1.396-0.076-2.063-0.217
		c-4.52-0.95-7.913-4.957-7.913-9.759c0-4.8,3.393-8.806,7.909-9.758c0.667-0.141,1.357-0.217,2.066-0.217s1.399,0.076,2.066,0.217
		c4.517,0.952,7.909,4.958,7.909,9.758C104.573,220.722,101.178,224.729,96.66,225.679z M190.57,225.679
		c-0.666,0.141-1.355,0.217-2.063,0.217s-1.397-0.076-2.063-0.217c-4.518-0.95-7.912-4.957-7.912-9.759
		c0-4.8,3.393-8.806,7.909-9.758c0.667-0.141,1.357-0.217,2.066-0.217s1.399,0.076,2.066,0.217c4.517,0.952,7.909,4.958,7.909,9.758
		C198.482,220.722,195.088,224.729,190.57,225.679z"/>
	<path fill="#231F20" d="M270.45,83.502L147.689,11.543c-1.629-0.955-3.744-1.48-5.958-1.48c-2.213,0-4.329,0.525-5.958,1.48
		L13.012,83.502c-3.378,1.98-5.928,6.429-5.928,10.346v171.537c0,4.418,3.594,8.012,8.012,8.012h13.793
		c1.842,0,3.536-0.631,4.891-1.681h215.9c1.354,1.05,3.047,1.681,4.89,1.681h13.795c4.418,0,8.011-3.594,8.011-8.012V93.848
		C276.377,89.931,273.829,85.483,270.45,83.502z M246.559,256.803l-20.53-20.854v14.229c0,8.934-7.269,16.203-16.202,16.203h-4.899
		c-8.934,0-16.202-7.27-16.202-16.203v-3.602H94.616v3.602c0,8.934-7.269,16.203-16.202,16.203h-4.896
		c-8.934,0-16.202-7.27-16.202-16.203v-14.106l-20.414,20.735v-136.58c0-1.473,1.198-2.671,2.671-2.671h204.316
		c1.473,0,2.671,1.198,2.671,2.671V256.803z M247.788,89.672c-0.218,0.836-0.973,1.419-1.838,1.419H141.731H37.512
		c-0.864,0-1.62-0.583-1.839-1.419s0.154-1.715,0.908-2.138l103.338-58.003c0.291-0.163,0.61-0.243,0.931-0.243
		c0.304,0,0.606,0.072,0.881,0.217c0.274-0.145,0.577-0.217,0.881-0.217c0.319,0,0.641,0.08,0.93,0.243l103.338,58.003
		C247.634,87.958,248.007,88.836,247.788,89.672z"/>
	<path fill="#231F20" d="M141.731,31.869l-0.881-0.681L37.512,89.192h104.219H245.95L142.612,31.188L141.731,31.869z
		 M141.732,78.238c-3.102,0-5.992-0.873-8.47-2.364h16.938C147.724,77.365,144.833,78.238,141.732,78.238z M154.566,72.074h-25.669
		c-1.031-1.282-1.867-2.724-2.479-4.279h30.628C156.433,69.35,155.597,70.792,154.566,72.074z M158.199,61.77
		c0,0.757-0.068,1.495-0.168,2.225h-32.599c-0.099-0.729-0.168-1.468-0.168-2.225c0-0.697,0.058-1.38,0.142-2.054h32.65
		C158.141,60.39,158.199,61.073,158.199,61.77z M157.108,55.916h-30.752c0.591-1.553,1.406-2.992,2.413-4.278h25.925
		C155.701,52.923,156.515,54.363,157.108,55.916z M132.983,47.836c2.537-1.596,5.53-2.533,8.749-2.533s6.211,0.938,8.748,2.533
		H132.983z"/>
</g>
</svg>
