<?xml version="1.0" encoding="iso-8859-1"?>
<!-- Generator: Adobe Illustrator 15.1.0, SVG Export Plug-In . SVG Version: 6.00 Build 0)  -->
<!DOCTYPE svg PUBLIC "-//W3C//DTD SVG 1.1//EN" "http://www.w3.org/Graphics/SVG/1.1/DTD/svg11.dtd">
<svg version="1.1" id="Layer_2" xmlns="http://www.w3.org/2000/svg" xmlns:xlink="http://www.w3.org/1999/xlink" x="0px" y="0px"
	 width="283.46px" height="283.46px" viewBox="0 0 283.46 283.46" style="enable-background:new 0 0 283.46 283.46;"
	 xml:space="preserve">
<g>
	<path d="M128.429,194.406c1.865-1.108,3.671-2.313,5.407-3.612l13.402,10.176c3.297-2.788,6.354-5.848,9.142-9.144l-10.175-13.403
		c1.302-1.735,2.507-3.541,3.614-5.405l16.276,4.272c1.978-3.838,3.632-7.835,4.948-11.947l-14.53-8.487
		c0.536-2.104,0.961-4.233,1.27-6.381l16.671-2.281c0.36-4.303,0.36-8.627,0-12.93l-16.671-2.282
		c-0.311-2.146-0.735-4.276-1.27-6.38l14.53-8.487c-1.314-4.112-2.971-8.109-4.948-11.946l-16.276,4.272
		c-1.107-1.864-2.313-3.67-3.614-5.407l10.175-13.403c-2.785-3.295-5.845-6.354-9.142-9.143l-13.402,10.177
		c-1.737-1.3-3.542-2.506-5.407-3.613l4.273-16.275c-3.839-1.979-7.834-3.635-11.946-4.947l-8.489,14.529
		c-2.103-0.535-4.231-0.959-6.379-1.269l-2.283-16.671c-4.304-0.359-8.627-0.359-12.93,0l-2.282,16.672
		c-2.146,0.31-4.276,0.734-6.379,1.269l-8.489-14.529c-4.114,1.313-8.11,2.97-11.946,4.948l4.272,16.275
		c-1.865,1.108-3.672,2.313-5.407,3.613L47.043,82.491c-3.296,2.788-6.354,5.847-9.144,9.143l10.176,13.402
		c-1.301,1.737-2.505,3.542-3.613,5.408l-16.276-4.271c-1.979,3.837-3.636,7.833-4.949,11.944l14.531,8.488
		c-0.537,2.104-0.96,4.233-1.269,6.38l-16.671,2.282c-0.36,4.302-0.36,8.627,0,12.931l16.671,2.281
		c0.31,2.147,0.733,4.275,1.269,6.378l-14.531,8.488c1.313,4.112,2.969,8.108,4.949,11.946l16.276-4.272
		c1.108,1.864,2.312,3.671,3.613,5.405l-10.176,13.403c2.788,3.296,5.846,6.355,9.143,9.144l13.403-10.176
		c1.736,1.3,3.543,2.504,5.407,3.612l-4.272,16.278c3.836,1.979,7.833,3.633,11.946,4.948l8.489-14.531
		c2.103,0.535,4.232,0.959,6.379,1.268l2.283,16.674c4.304,0.358,8.626,0.358,12.93,0l2.282-16.674
		c2.148-0.309,4.275-0.733,6.379-1.268l8.489,14.531c4.112-1.315,8.107-2.97,11.946-4.948L128.429,194.406z M97.14,178.975
		c-20.538,0-37.247-16.708-37.247-37.247c0-20.537,16.709-37.247,37.247-37.247s37.247,16.709,37.247,37.247
		C134.387,162.267,117.679,178.975,97.14,178.975z"/>
	<path d="M263.697,199.019l-9.51-16.472c-0.537-0.929-2-1.145-3.633-0.656c-0.544,0.163-1.106,0.404-1.657,0.721l-10.724,6.19
		c-2.265-2.109-4.775-3.965-7.485-5.53c-2.899-1.739-5.944-3.078-9.066-4.034v-12.373c0-1.779-0.57-3.305-1.396-4.074
		c-0.356-0.335-0.758-0.54-1.19-0.54h-19.019c-1.199,0-2.195,1.456-2.491,3.424c-0.058,0.383-0.098,0.775-0.098,1.19v12.382
		c-2.962,0.907-5.827,2.154-8.538,3.72c-2.954,1.641-5.636,3.606-8.023,5.832l-10.714-6.187c-0.204-0.118-0.406-0.212-0.61-0.308
		c-1.315-0.62-2.616-0.799-3.55-0.541c-0.501,0.139-0.903,0.388-1.13,0.779l-9.509,16.472c-0.583,1.013,0.132,2.553,1.613,3.78
		c0.331,0.274,0.688,0.538,1.09,0.77l10.723,6.19c-0.694,3.014-1.046,6.114-1.049,9.24c-0.056,3.383,0.306,6.692,1.039,9.879
		l-3.315,1.911l-7.397,4.273c-0.177,0.101-0.335,0.216-0.5,0.325c-1.113,0.757-1.92,1.695-2.243,2.574
		c-0.226,0.606-0.229,1.182,0.038,1.646l9.51,16.472c0.626,1.084,2.516,1.198,4.458,0.354c0.278-0.119,0.557-0.261,0.833-0.421
		l10.723-6.188c2.262,2.107,4.772,3.963,7.479,5.528c2.903,1.739,5.948,3.082,9.071,4.036v12.373c0,0.526,0.062,1.022,0.153,1.493
		c0.142,0.741,0.384,1.394,0.701,1.911c0.457,0.745,1.063,1.214,1.731,1.214l19.02-0.002c1.43,0,2.59-2.066,2.59-4.614v-0.002
		v-12.38c2.957-0.906,5.818-2.15,8.525-3.711c2.96-1.644,5.645-3.61,8.035-5.838l10.716,6.184c1.472,0.85,3.002,1.133,4.078,0.87
		c0.538-0.13,0.972-0.388,1.21-0.801l9.509-16.472c0.177-0.311,0.237-0.669,0.19-1.053c-0.036-0.29-0.147-0.596-0.297-0.901
		c-0.248-0.511-0.626-1.032-1.14-1.521c-0.413-0.391-0.903-0.756-1.456-1.075l-10.723-6.19c0.694-3.013,1.046-6.113,1.05-9.239
		c0.056-3.384-0.308-6.693-1.041-9.878l10.716-6.187C263.203,202.289,264.41,200.254,263.697,199.019z M220.559,234.313
		c-8.271,6.008-19.891,4.167-25.901-4.104c-6.01-8.271-4.171-19.893,4.105-25.903c8.27-6.009,19.889-4.17,25.898,4.102
		C230.672,216.682,228.832,228.3,220.559,234.313z"/>
	<path d="M263.697,43.853l-9.51-16.472c-0.537-0.929-2-1.145-3.633-0.655c-0.544,0.162-1.106,0.403-1.657,0.72l-10.724,6.191
		c-2.265-2.11-4.775-3.966-7.485-5.531c-2.899-1.739-5.944-3.077-9.066-4.034V11.699c0-1.779-0.57-3.305-1.396-4.074
		c-0.356-0.335-0.758-0.54-1.19-0.54h-19.019c-1.199,0-2.195,1.457-2.491,3.424c-0.058,0.384-0.098,0.775-0.098,1.19v12.382
		c-2.962,0.908-5.827,2.154-8.538,3.72c-2.954,1.641-5.636,3.606-8.023,5.832l-10.714-6.187c-0.204-0.118-0.406-0.212-0.61-0.308
		c-1.315-0.62-2.616-0.799-3.55-0.541c-0.501,0.139-0.903,0.389-1.13,0.779l-9.509,16.473c-0.583,1.012,0.132,2.552,1.613,3.779
		c0.331,0.274,0.688,0.538,1.09,0.77l10.723,6.191c-0.694,3.013-1.046,6.113-1.049,9.239c-0.056,3.383,0.306,6.692,1.039,9.88
		l-3.315,1.911l-7.397,4.272c-0.177,0.101-0.335,0.217-0.5,0.326c-1.113,0.756-1.92,1.694-2.243,2.573
		c-0.226,0.606-0.229,1.182,0.038,1.646l9.51,16.472c0.626,1.084,2.516,1.198,4.458,0.355c0.278-0.12,0.557-0.262,0.833-0.422
		l10.723-6.188c2.262,2.107,4.772,3.963,7.479,5.528c2.903,1.739,5.948,3.082,9.071,4.036v12.373c0,0.526,0.062,1.022,0.153,1.493
		c0.142,0.741,0.384,1.394,0.701,1.911c0.457,0.745,1.063,1.215,1.731,1.215l19.02-0.003c1.43,0,2.59-2.065,2.59-4.614v-0.002
		v-12.379c2.957-0.907,5.818-2.151,8.525-3.711c2.96-1.645,5.645-3.611,8.035-5.839l10.716,6.184
		c1.472,0.851,3.002,1.134,4.078,0.87c0.538-0.129,0.972-0.388,1.21-0.801l9.509-16.472c0.177-0.31,0.237-0.669,0.19-1.053
		c-0.036-0.29-0.147-0.596-0.297-0.9c-0.248-0.511-0.626-1.033-1.14-1.521c-0.413-0.39-0.903-0.756-1.456-1.075l-10.723-6.19
		c0.694-3.013,1.046-6.113,1.05-9.239c0.056-3.384-0.308-6.693-1.041-9.878l10.716-6.186
		C263.203,47.123,264.41,45.088,263.697,43.853z M220.559,79.147c-8.271,6.009-19.891,4.167-25.901-4.104
		c-6.01-8.271-4.171-19.893,4.105-25.902c8.27-6.01,19.889-4.171,25.898,4.101C230.672,61.516,228.832,73.135,220.559,79.147z"/>
</g>
</svg>
