<?xml version="1.0" encoding="iso-8859-1"?>
<!-- Generator: Adobe Illustrator 15.1.0, SVG Export Plug-In . SVG Version: 6.00 Build 0)  -->
<!DOCTYPE svg PUBLIC "-//W3C//DTD SVG 1.1//EN" "http://www.w3.org/Graphics/SVG/1.1/DTD/svg11.dtd">
<svg version="1.1" id="Layer_1" xmlns="http://www.w3.org/2000/svg" xmlns:xlink="http://www.w3.org/1999/xlink" x="0px" y="0px"
	 width="283.46px" height="283.46px" viewBox="0 0 283.46 283.46" style="enable-background:new 0 0 283.46 283.46;"
	 xml:space="preserve">
<g id="Layer_3">
</g>
<g id="Layer_4">
	<g>
		<path d="M275.909,152.948c0.623-7.466,0.623-14.972,0-22.441l-28.936-3.959c-0.535-3.727-1.274-7.422-2.203-11.072l25.217-14.731
			c-2.28-7.135-5.154-14.072-8.587-20.731l-28.248,7.414c-1.922-3.237-4.016-6.371-6.271-9.385l17.659-23.26
			c-4.837-5.721-10.145-11.028-15.869-15.868l-23.258,17.662c-3.014-2.256-6.147-4.348-9.384-6.271l7.414-28.247
			c-6.662-3.434-13.596-6.308-20.731-8.588L167.98,38.688c-3.649-0.929-7.344-1.666-11.073-2.202l-3.96-28.933
			c-7.467-0.625-14.973-0.625-22.441,0l-3.959,28.934c-3.726,0.537-7.422,1.274-11.072,2.202l-14.731-25.217
			c-7.139,2.279-14.074,5.154-20.732,8.587l7.415,28.247c-3.237,1.923-6.372,4.015-9.385,6.271L54.783,38.917
			c-5.72,4.84-11.028,10.147-15.868,15.868l17.659,23.26c-2.255,3.015-4.348,6.147-6.269,9.385l-28.247-7.414
			c-3.437,6.659-6.308,13.595-8.588,20.731l25.218,14.731c-0.931,3.65-1.666,7.346-2.202,11.072l-28.934,3.959
			c-0.624,7.467-0.624,14.973,0,22.44l28.934,3.959c0.537,3.729,1.272,7.422,2.202,11.072L13.47,182.711
			c2.28,7.137,5.153,14.072,8.588,20.732l28.247-7.414c1.921,3.236,4.014,6.37,6.269,9.384l-17.66,23.262
			c4.84,5.72,10.147,11.027,15.868,15.867l23.262-17.66c3.013,2.256,6.147,4.349,9.385,6.271L80.014,261.4
			c6.659,3.434,13.593,6.309,20.732,8.588l14.73-25.218c3.649,0.929,7.345,1.666,11.072,2.203l3.96,28.936
			c7.468,0.623,14.973,0.623,22.44,0l3.959-28.936c3.729-0.537,7.422-1.274,11.072-2.203l14.733,25.218
			c7.135-2.279,14.069-5.155,20.731-8.588l-7.413-28.247c3.235-1.922,6.37-4.015,9.383-6.271l23.26,17.66
			c5.723-4.838,11.029-10.147,15.868-15.867l-17.659-23.262c2.255-3.014,4.348-6.147,6.27-9.384l28.248,7.414
			c3.433-6.66,6.306-13.596,8.588-20.732l-25.216-14.731c0.928-3.649,1.667-7.347,2.203-11.073L275.909,152.948z M141.729,206.373
			c-35.644,0-64.643-29-64.643-64.643c0-35.645,28.999-64.643,64.643-64.643s64.641,28.999,64.641,64.643
			C206.37,177.375,177.373,206.373,141.729,206.373z"/>
	</g>
</g>
</svg>
