<?xml version="1.0" encoding="utf-8"?>
<!-- Generator: Adobe Illustrator 15.1.0, SVG Export Plug-In . SVG Version: 6.00 Build 0)  -->
<!DOCTYPE svg PUBLIC "-//W3C//DTD SVG 1.1//EN" "http://www.w3.org/Graphics/SVG/1.1/DTD/svg11.dtd">
<svg version="1.1" id="Layer_1" xmlns="http://www.w3.org/2000/svg" xmlns:xlink="http://www.w3.org/1999/xlink" x="0px" y="0px"
	 width="283.46px" height="283.46px" viewBox="0 0 283.46 283.46" enable-background="new 0 0 283.46 283.46" xml:space="preserve">
<g>
	<g transform="matrix(.07991 0 0 .07991 546.18 750.15)">
		<path id="_x30_" d="M-3977.409-6884.895c-4.571-5.939-10.51-9.581-18.038-10.73l-156.793-23.977
			c-8.554-27.423-20.335-55.36-35.147-83.933c10.339-14.298,25.762-34.414,46.292-60.468c20.555-25.957,35.147-44.948,43.702-56.924
			c4.57-6.355,6.868-12.832,6.868-19.7c0-8.041-1.98-14.298-6.037-18.893c-20.556-29.183-67.679-77.651-141.37-145.647
			c-6.893-5.719-13.98-8.652-21.386-8.652c-8.652,0-15.423,2.615-20.629,7.724l-121.67,91.754
			c-23.464-12.001-49.128-22.633-77.162-31.799l-23.977-157.648c-0.514-7.503-3.862-13.541-9.801-18.453
			c-6.037-4.889-13.027-7.284-21.068-7.284h-190.253c-16.596,0-26.813,8.017-30.87,23.977
			c-7.406,28.548-15.74,81.732-24.808,159.408c-26.91,8.555-52.867,19.382-77.993,32.532l-118.321-91.656
			c-7.406-5.719-14.812-8.652-22.218-8.652c-12.612,0-39.62,20.433-81.005,61.299c-41.392,40.867-69.542,71.639-84.452,92.169
			c-5.108,7.406-7.711,13.98-7.711,19.7c0,6.893,2.811,13.663,8.549,20.556c38.263,46.292,68.809,85.692,91.748,118.321
			c-14.286,26.177-25.444,52.549-33.467,78.824l-159.31,23.977c-6.361,1.149-11.781,4.791-16.37,11.146
			c-4.479,6.257-6.776,12.832-6.776,19.724v190.253c0,7.406,2.297,14.079,6.776,20.14c4.589,6.037,10.534,9.581,18.038,10.73
			l156.805,23.146c8.029,27.937,19.706,56.289,35.135,84.763c-10.216,14.274-25.645,34.389-46.292,60.371
			c-20.537,26.055-35.135,45.021-43.683,57.022c-4.583,6.257-6.88,12.832-6.88,19.7c0,7.406,2.083,13.98,6.049,19.7
			c22.309,30.87,69.432,78.922,141.364,143.985c6.257,6.355,13.467,9.483,21.484,9.483c8.555,0,15.643-2.591,21.387-7.699
			l120.814-91.753c23.464,11.977,49.225,22.608,77.162,31.798l23.977,157.624c0.636,7.406,3.862,13.565,9.899,18.454
			c5.939,4.913,12.93,7.308,20.971,7.308h190.253c16.596,0,26.91-8.017,30.87-23.978c7.406-28.572,15.74-81.732,24.808-159.408
			c26.91-8.555,52.965-19.407,78.091-32.532l118.224,92.585c8.042,5.108,15.447,7.601,22.315,7.601
			c12.514,0,39.424-20.213,80.486-60.786c41.184-40.548,69.438-71.418,84.763-92.56c5.206-5.744,7.724-12.319,7.724-19.725
			s-2.811-14.591-8.554-21.459c-41.086-50.252-71.736-89.676-91.632-118.249c11.341-21.166,22.511-47.123,33.363-77.968
			l158.577-23.977c6.77-1.149,12.49-4.913,17.085-11.17c4.595-6.257,6.892-12.808,6.892-19.7v-190.277
			c0-7.406-2.297-14.176-6.892-20.115 M-4473.67-6616.331c-42.846,42.846-94.564,64.331-155.131,64.331
			c-60.566,0-112.284-21.484-155.13-64.331c-42.871-42.846-64.232-94.442-64.232-155.033c0-60.566,21.362-112.284,64.232-155.13
			c42.846-42.846,94.564-64.33,155.13-64.33c60.566,0,112.285,21.484,155.131,64.33c42.846,42.846,64.232,94.564,64.232,155.13
			C-4409.438-6710.773-4430.825-6659.177-4473.67-6616.331"/>
	</g>
	<g transform="matrix(.12786 0 0 .12786 547.52 745.89)">
		<path id="_x30__1_" d="M-2126.036-5227.251c-3.651-4.823-8.417-7.691-14.405-8.6l-125.504-19.159
			c-6.843-22.023-16.222-44.437-28.076-67.243c8.203-11.468,20.591-27.5,37.012-48.351c16.482-20.717,28.076-35.966,34.981-45.609
			c3.651-4.953,5.484-10.295,5.484-15.768c0-6.389-1.635-11.338-4.827-14.989c-16.482-23.326-54.152-62.16-113.115-116.632
			c-5.469-4.563-11.212-6.779-17.139-6.779c-6.844,0-12.312,2.085-16.482,6.125l-97.29,73.368
			c-18.758-9.643-39.35-18.113-61.698-25.411l-19.232-126.149c-0.443-5.996-3.116-10.815-7.882-14.726
			c-4.812-3.911-10.418-5.866-16.803-5.866h-152.22c-13.29,0-21.493,6.385-24.685,19.289
			c-5.942,22.807-12.587,65.288-19.874,127.451c-21.508,6.775-42.237,15.508-62.431,26.064l-94.616-73.368
			c-5.927-4.563-11.854-6.909-17.781-6.909c-10.097,0-31.666,16.421-64.829,49c-33.102,32.709-55.587,57.341-67.579,73.762
			c-4.094,5.862-6.125,11.205-6.125,15.768c0,5.473,2.292,10.945,6.844,16.417c30.627,37.013,55.068,68.549,73.368,94.613
			c-11.472,21.11-20.393,42.091-26.778,63.072l-127.444,19.159c-5.087,0.913-9.394,3.911-13.045,8.99
			c-3.643,4.953-5.469,10.296-5.469,15.768v152.213c0,5.996,1.825,11.338,5.469,16.162c3.651,4.819,8.417,7.557,14.405,8.47
			l125.427,18.506c6.462,22.413,15.78,45.09,28.153,67.896c-8.203,11.468-20.591,27.496-37.074,48.347
			c-16.421,20.851-28.076,35.966-34.92,45.612c-3.651,4.949-5.484,10.296-5.484,15.765c0,5.866,1.573,11.212,4.766,15.772
			c17.857,24.631,55.572,63.072,113.115,115.204c5.087,4.949,10.754,7.424,17.139,7.424c6.905,0,12.572-1.955,17.2-6.125
			l96.633-73.364c18.758,9.639,39.35,18.109,61.698,25.411l19.232,126.149c0.443,5.988,3.055,10.815,7.882,14.726
			c4.751,3.911,10.418,5.866,16.803,5.866h152.22c13.29,0,21.493-6.385,24.685-19.156c5.942-22.944,12.587-65.425,19.873-127.585
			c21.508-6.774,42.359-15.512,62.37-26.067l94.662,74.159c6.4,4.033,12.327,6.125,17.796,6.125
			c10.036,0,31.544-16.299,64.447-48.748c32.904-32.445,55.511-57.077,67.823-74.017c4.109-4.56,6.187-9.776,6.187-15.772
			c0-5.858-2.276-11.594-6.828-17.071c-32.919-40.266-57.405-71.802-73.384-94.608c9.135-16.941,18.056-37.792,26.717-62.423
			l126.802-19.156c5.484-0.913,10.097-3.91,13.748-8.993c3.651-4.953,5.484-10.296,5.484-15.768v-152.213
			c0-5.996-1.833-11.338-5.484-16.158 M-2523.062-5012.356c-34.278,34.271-75.644,51.345-124.129,51.345
			c-48.408,0-89.789-17.074-124.068-51.345c-34.263-34.274-51.402-75.717-51.402-124.063c0-48.481,17.139-89.919,51.402-124.194
			c34.278-34.274,75.66-51.345,124.068-51.345c48.485,0,89.851,17.07,124.129,51.345c34.278,34.274,51.417,75.713,51.417,124.194
			C-2471.644-5088.073-2488.783-5046.63-2523.062-5012.356"/>
	</g>
	<g transform="matrix(.12786 0 0 .12786 547.88 727.43)">
		<path id="_x30__2_" d="M-3181.898-4784.38c-3.647-4.823-8.405-7.691-14.401-8.604l-125.496-19.221
			c-6.84-21.894-16.223-44.306-28.084-67.113c8.21-11.468,20.526-27.564,37.012-48.351c16.421-20.851,28.084-36.031,34.989-45.609
			c3.651-5.018,5.476-10.296,5.476-15.768c0-6.385-1.631-11.403-4.823-15.119c-16.421-23.326-54.148-62.16-113.115-116.571
			c-5.476-4.495-11.208-6.84-17.139-6.84c-6.84,0-12.316,2.085-16.486,6.19l-97.347,73.368
			c-18.701-9.578-39.292-18.048-61.705-25.411l-19.156-126.149c-0.458-5.931-3.128-10.88-7.886-14.726
			c-4.823-3.911-10.426-5.866-16.811-5.866h-152.213c-13.293,0-21.5,6.385-24.693,19.224
			c-5.931,22.802-12.579,65.353-19.877,127.516c-21.5,6.839-42.286,15.508-62.419,26.063l-94.613-73.372
			c-5.931-4.56-11.857-6.84-17.788-6.84c-10.101,0-31.666,16.292-64.833,49c-33.102,32.644-55.645,57.275-67.571,73.693
			c-4.105,5.931-6.125,11.208-6.125,15.772c0,5.472,2.215,10.945,6.844,16.417c30.624,37.012,55.06,68.548,73.368,94.612
			c-11.468,21.046-20.328,42.092-26.782,63.138l-127.451,19.159c-5.014,0.913-9.383,3.842-13.03,8.925
			c-3.65,5.018-5.537,10.295-5.537,15.768v152.212c0,5.927,1.887,11.273,5.537,16.093c3.647,4.827,8.406,7.691,14.401,8.6
			l125.431,18.51c6.385,22.409,15.768,45.017,28.084,67.823c-8.211,11.411-20.527,27.496-37.013,48.347
			c-16.417,20.79-28.084,35.974-34.924,45.612c-3.651,5.026-5.472,10.235-5.472,15.703c0,6.003,1.562,11.212,4.754,15.78
			c17.853,24.685,55.58,63.134,113.115,115.192c5.083,5.026,10.754,7.562,17.204,7.562c6.844,0,12.576-2.078,17.135-6.187
			l96.633-73.368c18.766,9.639,39.357,18.04,61.705,25.403l19.224,126.161c0.455,5.927,3.059,10.876,7.882,14.726
			c4.823,3.911,10.426,5.866,16.811,5.866h152.213c13.293,0,21.504-6.4,24.697-19.232c5.927-22.806,12.575-65.349,19.873-127.443
			c21.5-6.92,42.351-15.581,62.355-26.075l94.677,74.025c6.385,4.109,12.316,6.187,17.788,6.187
			c10.036,0,31.536-16.223,64.443-48.667c32.904-32.445,55.515-57.146,67.831-74.086c4.105-4.567,6.19-9.776,6.19-15.764
			c0-5.927-2.28-11.67-6.843-17.139c-32.904-40.205-57.405-71.749-73.368-94.617c9.123-16.94,18.048-37.73,26.717-62.354
			l126.798-19.22c5.472-0.917,10.101-3.911,13.748-8.929c3.651-5.018,5.472-10.295,5.472-15.772v-152.208
			c0-5.931-1.822-11.338-5.472-16.093 M-3578.912-4569.488c-34.274,34.278-75.652,51.417-124.129,51.417
			c-48.412,0-89.79-17.139-124.064-51.417c-34.274-34.274-51.41-75.648-51.41-124.125c0-48.48,17.071-89.789,51.41-124.128
			c34.274-34.209,75.652-51.41,124.064-51.41c48.477,0,89.854,17.2,124.129,51.41c34.274,34.339,51.41,75.648,51.41,124.128
			C-3527.503-4645.136-3544.638-4603.763-3578.912-4569.488"/>
	</g>
</g>
</svg>
