<?xml version="1.0" encoding="utf-8"?>
<!-- Generator: Adobe Illustrator 15.1.0, SVG Export Plug-In . SVG Version: 6.00 Build 0)  -->
<!DOCTYPE svg PUBLIC "-//W3C//DTD SVG 1.1//EN" "http://www.w3.org/Graphics/SVG/1.1/DTD/svg11.dtd">
<svg version="1.1" id="Layer_2" xmlns="http://www.w3.org/2000/svg" xmlns:xlink="http://www.w3.org/1999/xlink" x="0px" y="0px"
	 width="283.46px" height="283.46px" viewBox="0 0 283.46 283.46" enable-background="new 0 0 283.46 283.46" xml:space="preserve">
<g>
	<polygon fill="none" points="166.269,108.203 166.269,81.587 166.269,45.757 159.575,45.757 123.885,45.757 117.191,45.757 
		117.191,81.587 117.191,108.203 	"/>
	<polygon fill="none" points="117.191,116.183 117.191,240.131 166.269,240.131 166.269,116.185 166.269,114.616 117.191,114.616 	
		"/>
	<path d="M233.01,125.037c-2.842,0-5.525-0.864-7.977-2.569l-11.286-7.852h-47.479v1.569l46.321,32.223
		c3.618,2.517,7.528,3.913,11.431,4.349l0.236,1.018l0.117,0.508l9.299,50.458l-16.242-9.438c-2.513-1.459-5.371-2.231-8.271-2.231
		c-5.002,0-9.675,2.23-12.819,6.116l-11.827,14.632l-18.244-97.634v123.946h-49.078V116.183l-18.244,97.636l-11.829-14.632
		c-3.143-3.886-7.815-6.116-12.817-6.116c-2.898,0-5.759,0.771-8.271,2.231l-16.244,9.438l9.299-50.458l0.118-0.508l0.236-1.02
		c3.902-0.434,7.813-1.832,11.43-4.348l46.322-32.224v-1.567H69.714l-11.286,7.852c-2.452,1.705-5.136,2.569-7.977,2.569
		c-5.79,0-11.952-3.904-13.694-10.421H17.715v132.551v4.354c0,6.291,5.099,11.392,11.391,11.392H105.8h71.858h76.696
		c6.291,0,11.39-5.101,11.39-11.392v-4.354V114.616h-19.041C244.961,121.132,238.799,125.037,233.01,125.037z"/>
	<path d="M36.258,40.258c0-8.742,7.367-14.155,14.193-14.155c2.841,0,5.525,0.867,7.977,2.571l56.276,39.149l2.485,1.729
		L79.376,55.276c-2.713-1.022-6.013-0.191-7.369,1.855c-1.355,2.048-0.256,4.539,2.457,5.563l34.107,12.877L74.464,88.447
		c-2.713,1.024-3.813,3.515-2.457,5.563c0.963,1.453,2.901,2.292,4.917,2.292c0.824,0,1.663-0.141,2.451-0.438l37.815-14.275v-35.83
		h6.694h35.689h6.694v35.83l37.816,14.275c0.789,0.298,1.627,0.438,2.453,0.438c2.014,0,3.952-0.839,4.915-2.292
		c1.356-2.048,0.257-4.539-2.456-5.562l-34.109-12.876l34.109-12.876c2.713-1.024,3.813-3.516,2.456-5.563
		c-1.357-2.048-4.653-2.879-7.368-1.854l-37.814,14.273l2.485-1.729l56.277-39.149c2.451-1.705,5.135-2.571,7.979-2.571
		c6.823,0,14.19,5.413,14.19,14.155v67.944h18.542v-0.782c5.935-0.392,10.631-5.316,10.631-11.353V34.255
		c0-0.685-0.067-1.354-0.184-2.005v-0.312c0-6.291-5.531-11.392-12.357-11.392h-83.214h-77.965H19.443
		c-6.827,0-12.358,5.101-12.358,11.392v2.316v2.039v59.773c0,6.035,4.696,10.96,10.631,11.353v0.782h18.543V40.258z"/>
	<polygon points="78.933,108.203 117.191,108.203 117.191,81.587 114.705,83.318 	"/>
	<polygon points="204.528,108.203 168.756,83.318 166.269,81.587 166.269,108.203 	"/>
	<rect x="117.191" y="108.203" width="49.078" height="6.413"/>
</g>
</svg>
