<?xml version="1.0" encoding="utf-8"?>
<!-- Generator: Adobe Illustrator 15.1.0, SVG Export Plug-In . SVG Version: 6.00 Build 0)  -->
<!DOCTYPE svg PUBLIC "-//W3C//DTD SVG 1.1//EN" "http://www.w3.org/Graphics/SVG/1.1/DTD/svg11.dtd">
<svg version="1.1" id="Layer_5" xmlns="http://www.w3.org/2000/svg" xmlns:xlink="http://www.w3.org/1999/xlink" x="0px" y="0px"
	 width="283.465px" height="283.465px" viewBox="0 0 283.465 283.465" enable-background="new 0 0 283.465 283.465"
	 xml:space="preserve">
<g>
	<path fill="none" d="M243.971,208.406l-5.471-2.35l-9.621-4.131c-0.563-0.24-1.211,0.02-1.451,0.578
		c-0.24,0.561,0.02,1.211,0.578,1.451l9.547,4.098l5.547,2.383c0.142,0.061,0.29,0.09,0.436,0.09c0.428,0,0.836-0.252,1.016-0.67
		C244.789,209.297,244.53,208.646,243.971,208.406z"/>
	<circle fill="none" cx="253.035" cy="209.421" r="6.212"/>
	<circle fill="none" cx="223.293" cy="199.73" r="4.193"/>
	<path fill="none" d="M262.08,214.66c-1.699-2.059-3.973,0.283-2.168,1.873c5.094,4.496,7.402,13.133,7.402,13.133
		S265.756,219.104,262.08,214.66z"/>
	<path fill="#231F20" d="M67.606,182.854c23.981,13.59,51.063,21.385,74.302,21.385c17.569,0,32.655-4.217,45.086-12.521
		c-1.686-0.939-3.336-1.881-4.935-2.814c-11.19,6.828-24.61,10.277-40.152,10.277c-0.002,0,0,0-0.002,0
		c-0.606,0-1.216-0.004-1.825-0.016c-22.177-0.375-47.975-8.09-70.778-21.168c-3.894-2.232-7.613-4.6-11.123-7.068
		c-1.583,1.102-3.332,1.959-5.21,2.551C57.388,176.688,62.301,179.848,67.606,182.854z"/>
	<path fill="#231F20" d="M69.108,84.69l-0.33,11.791l-0.023,0.849c3.123-2.044,6.753-3.373,10.661-3.746
		c-0.277-0.197-0.548-0.408-0.823-0.61C75.296,90.552,72.128,87.803,69.108,84.69z"/>
	<path fill="#231F20" d="M59.353,127.582c0.944,1.42,1.81,2.873,2.591,4.346c0.067-0.078,0.129-0.157,0.194-0.237
		c0.155-0.188,0.312-0.375,0.46-0.563c-2.881-3.92-4.587-8.754-4.587-13.982c0-7.474,3.485-14.145,8.912-18.486l0.025-0.913
		l0.489-17.479l1.495,1.624c3.915,4.25,8.086,7.868,12.49,10.887c0.346,0.237,0.688,0.485,1.037,0.715
		c6.623,0.215,12.569,3.156,16.74,7.745c0.417,0.121,0.829,0.257,1.249,0.37c2.514,0.673,5.089,1.175,7.713,1.536
		c0.224,0.031,0.448,0.057,0.673,0.086c5.084-6.893,13.258-11.374,22.461-11.374c7.914,0,15.063,3.317,20.146,8.628
		c0.232-0.044,0.464-0.089,0.697-0.135c20.824-4.02,38.111-11.462,50.898-22.049c6.313-5.227,11.59-11.301,15.684-18.054
		l1.449-2.391l0.213,2.788c3.764,49.251-2.252,85.786-17.879,108.588c-2.024,2.955-4.203,5.689-6.524,8.209
		c1.606,0.688,3.226,1.398,4.844,2.135c22.623-25.73,30.63-70.267,23.784-132.408c-0.387-3.02-1.416-4.375-2.266-4.375
		c-0.752,0-1.905,1.049-2.887,3.993c-4.311,12.93-13.08,22.182-19.677,27.666c-13.125,10.911-30.663,18.216-52.334,21.841
		c-0.372-0.256-0.75-0.504-1.134-0.743c-4.364-2.717-9.51-4.292-15.018-4.292c-6.917,0-13.266,2.479-18.208,6.593
		c-0.321,0.267-0.638,0.539-0.946,0.82c-30.229-2.542-45.789-26.323-49.373-32.577l-0.856,36.822c-0.325,0.45-0.636,0.91-0.93,1.383
		c-2.326,3.733-3.675,8.135-3.675,12.848c0,3.235,0.64,6.323,1.789,9.149c0.137,0.338,0.282,0.67,0.434,1
		C59.473,127.388,59.413,127.485,59.353,127.582z"/>
	<path fill="#2E3436" d="M199.78,74.45c6.597-5.484,15.366-14.735,19.677-27.666c0.98-2.944,2.135-3.993,2.887-3.993
		c0.85,0,1.88,1.355,2.266,4.375c6.846,62.142-1.161,106.678-23.784,132.408c0.284,0.129,0.567,0.256,0.851,0.387
		c22.66-25.959,30.683-70.653,23.826-132.901c-0.414-3.235-1.594-5.166-3.156-5.166c-1.422,0-2.75,1.636-3.74,4.607
		c-4.242,12.729-12.891,21.85-19.396,27.259c-13.195,10.97-30.938,18.247-52.895,21.788c0.384,0.239,0.762,0.487,1.134,0.743
		C169.117,92.666,186.655,85.36,199.78,74.45z"/>
	<path fill="#2E3436" d="M59.531,127.294c-0.152-0.33-0.296-0.662-0.434-1c-0.093,0.162-0.201,0.318-0.299,0.479
		c0.186,0.269,0.374,0.537,0.554,0.808C59.413,127.485,59.473,127.388,59.531,127.294z"/>
	<path fill="#2E3436" d="M141.91,204.238c-23.24,0-50.322-7.795-74.303-21.385c-5.305-3.006-10.218-6.166-14.637-9.375
		c-0.371,0.115-0.75,0.213-1.131,0.309c22.365,16.455,57.334,31.35,90.071,31.35c17.936,0,33.32-4.354,45.969-12.93
		c-0.297-0.162-0.59-0.326-0.883-0.49C174.563,200.021,159.478,204.238,141.91,204.238z"/>
	<path fill="#2E3436" d="M62.77,66.091c3.584,6.254,19.144,30.035,49.373,32.577c0.309-0.281,0.625-0.553,0.946-0.82
		c-34.772-2.429-50.167-33.321-50.325-33.646l-0.809-1.667l-0.972,41.761c0.294-0.473,0.605-0.933,0.93-1.383L62.77,66.091z"/>
	<path fill="#231F20" d="M27.771,108.774c-4.376,0-8.244,1.189-11.494,3.534c-11.242,8.11-11.048,27.654,0.432,43.569
		c7.87,10.908,19.256,17.684,29.714,17.684c4.148,0,7.833-1.082,10.974-3.188c-1.585-1.135-3.13-2.283-4.622-3.455
		c-3.843,2.049-8.718,2.203-14.183,0.436c-6.943-2.244-13.791-7.357-18.787-14.027c-4.995-6.67-7.976-14.679-8.178-21.974
		c-0.184-6.662,1.872-11.795,5.944-14.846c2.416-1.81,5.39-2.727,8.84-2.727c2.293,0,4.76,0.416,7.333,1.233
		c6.91,2.198,13.719,7.258,18.68,13.882c1.836,2.449,3.399,5.08,4.656,7.828c1.585-1.318,2.992-2.68,4.229-4.064
		c-1.104-2.119-2.378-4.195-3.824-6.199C49.617,115.55,38.231,108.774,27.771,108.774z"/>
	<path fill="#231F20" d="M194.223,176.695c2.432-2.586,4.699-5.412,6.803-8.479c14.887-21.727,21.016-57.899,17.768-104.728
		c-3.965,6.003-8.869,11.44-14.607,16.192c-13.016,10.775-29.975,18.229-50.637,22.299c-0.219,0.043-0.439,0.084-0.66,0.126
		c3.941,4.812,6.31,10.958,6.31,17.649c0,15.385-12.516,27.901-27.901,27.901c-15.384,0-27.9-12.516-27.9-27.901
		c0-5.458,1.581-10.551,4.301-14.855c-0.218-0.031-0.438-0.055-0.655-0.088c-1.671-0.251-3.315-0.583-4.942-0.959
		c-0.333-0.077-0.669-0.146-1.001-0.229c1.433,2.052,2.549,4.339,3.278,6.792c-1.019,2.928-1.58,6.068-1.58,9.339
		c0,2.223,0.264,4.384,0.748,6.461c-3.567,8.563-12.021,14.599-21.86,14.599c-7.161,0-13.583-3.2-17.928-8.239
		c-0.146,0.182-0.305,0.361-0.458,0.543c-0.158,0.186-0.307,0.372-0.471,0.557c2.762,5.759,4.26,11.792,4.303,17.565
		c0.059,7.857-2.58,14.371-7.458,18.539c3.33,2.322,6.848,4.551,10.525,6.658c22.549,12.934,48.032,20.563,69.916,20.932
		c0.599,0.012,1.198,0.016,1.794,0.016c14.805,0,27.631-3.195,38.385-9.525c-11.511-6.83-20.015-12.891-20.18-13.008
		c-0.21-0.178-0.396-0.365-0.584-0.551c-0.768,0.391-1.555,0.76-2.382,1.092c-0.003,0.018-0.009,0.035-0.011,0.053
		c-0.479,0.172-1.065,0.371-1.727,0.582c-0.111,0.037-0.228,0.07-0.34,0.107c-0.271,0.084-0.559,0.17-0.857,0.258
		c-0.369,0.107-0.742,0.215-1.121,0.314c-4.051,1.088-9.864,2.137-16.115,1.539l0.102-0.16c-11.923-0.529-26.438-3.854-43.029-9.709
		c23.703,4.74,40.479,4.041,52.681,0.766c7.154-2.115,13.545-5.605,16.893-7.615c0.832-0.568,1.627-1.148,2.387-1.734
		c-3.133-4.047-8.485-8.486-8.485-8.486s13.903,3.863,18.8,10.186c2.676,3.451,2.958,6.184,2.461,9.27
		C183.338,172.373,188.67,174.373,194.223,176.695z"/>
	<path fill="#231F20" d="M66.231,151.248c-0.041-5.535-1.457-11.315-4.063-16.855c-1.42,1.521-3.037,3.014-4.878,4.47l-0.924,0.73
		l-0.459-1.084c-1.274-3.012-2.929-5.883-4.918-8.539c-4.742-6.333-11.225-11.16-17.788-13.247c-2.732-0.87-5.302-1.234-7.631-1.115
		c5.542,0.305,9.961,5.778,9.961,12.504c0,6.923-4.676,12.534-10.444,12.534c-5.769,0-10.445-5.611-10.445-12.534
		c0-5.103,2.545-9.484,6.191-11.439c-0.782,0.343-1.512,0.766-2.184,1.27c-3.586,2.686-5.394,7.306-5.227,13.359
		c0.192,6.933,3.043,14.567,7.821,20.948c4.779,6.381,11.304,11.264,17.903,13.395c5.217,1.688,9.779,1.488,13.256-0.576
		l0.532-0.314l0.485,0.385c1.763,1.4,3.601,2.771,5.499,4.113C63.702,165.264,66.289,158.928,66.231,151.248z"/>
	<path fill="#231F20" d="M67.128,151.242c-0.043-5.775-1.541-11.808-4.303-17.565c-0.212,0.238-0.435,0.478-0.658,0.716
		c2.606,5.54,4.022,11.32,4.063,16.855c0.058,7.68-2.53,14.016-7.314,18.002c0.25,0.178,0.501,0.355,0.753,0.531
		C64.548,165.613,67.188,159.1,67.128,151.242z"/>
	<path fill="#231F20" d="M58.18,170.928c-0.262-0.184-0.522-0.371-0.783-0.557c-3.141,2.105-6.826,3.188-10.974,3.188
		c-10.458,0-21.845-6.773-29.714-17.684C5.23,139.96,5.037,120.417,16.277,112.306c3.25-2.345,7.118-3.534,11.494-3.534
		c10.459,0,21.846,6.776,29.715,17.685c1.445,2.004,2.72,4.08,3.824,6.198c0.217-0.243,0.427-0.485,0.632-0.729
		c-0.781-1.475-1.646-2.926-2.591-4.346c-0.18-0.271-0.368-0.539-0.554-0.809c-0.194-0.28-0.384-0.563-0.584-0.84
		c-8.035-11.137-19.7-18.057-30.443-18.057c-4.504,0-8.661,1.281-12.019,3.704c-11.643,8.4-11.541,28.505,0.229,44.822
		c8.035,11.137,19.699,18.057,30.441,18.057c1.878,0,3.691-0.236,5.415-0.672c0.381-0.096,0.76-0.193,1.131-0.309
		C54.849,172.887,56.598,172.029,58.18,170.928z"/>
	<path fill="#2E3436" d="M82.852,123.372c-2.712,0-5.105-1.352-6.553-3.415c-0.017,0.248-0.038,0.494-0.038,0.746
		c0,6.087,4.952,11.041,11.04,11.041s11.04-4.953,11.04-11.041c0-5.666-4.292-10.343-9.793-10.964
		c1.429,1.446,2.313,3.432,2.313,5.625C90.858,119.787,87.273,123.372,82.852,123.372z"/>
	<path fill="#231F20" d="M98.339,120.703c0,6.087-4.952,11.041-11.04,11.041s-11.04-4.953-11.04-11.041
		c0-0.252,0.021-0.498,0.038-0.746c-0.344-0.489-0.634-1.017-0.862-1.578c-0.147,0.753-0.229,1.529-0.229,2.324
		c0,6.667,5.425,12.093,12.093,12.093s12.093-5.426,12.093-12.093c0-6.668-5.425-12.093-12.093-12.093
		c-0.05,0-0.099,0.007-0.148,0.007c0.506,0.323,0.975,0.696,1.395,1.122C94.048,110.36,98.339,115.038,98.339,120.703z"/>
	<path fill="#2E3436" d="M132.666,127.067c-3.283,0-6.168-1.687-7.851-4.237c-0.03,0.365-0.056,0.73-0.056,1.103
		c0,7.24,5.89,13.129,13.129,13.129c7.24,0,13.129-5.891,13.129-13.129c0-6.815-5.221-12.43-11.872-13.066
		c1.796,1.712,2.92,4.122,2.92,6.799C142.067,122.858,137.858,127.067,132.666,127.067z"/>
	<path fill="#231F20" d="M151.019,123.933c0,7.24-5.89,13.129-13.129,13.129s-13.129-5.891-13.129-13.129
		c0-0.373,0.025-0.738,0.056-1.103c-0.278-0.421-0.52-0.867-0.727-1.332c-0.14,0.792-0.226,1.603-0.226,2.435
		c0,7.734,6.292,14.027,14.026,14.027c7.735,0,14.026-6.293,14.026-14.027c0-7.706-6.244-13.976-13.94-14.022
		c0.417,0.286,0.807,0.609,1.172,0.957C145.799,111.503,151.019,117.118,151.019,123.933z"/>
	<path fill="#231F20" d="M216.561,190.305c-6.758-4.174-14.635-7.961-22.202-11.162c-0.002,0.002-0.004,0.004-0.006,0.006
		c-2.319-1.008-4.483-1.898-6.324-2.588l-0.001,0.002c-12.813-5.039-23.327-8.105-23.523-8.162l-0.16-0.061
		c-1.037-0.482-2.004-0.738-2.799-0.738c-0.711,0-1.629,0.197-1.973,1.141c-0.373,1.02,0.061,2.822,1.895,4.367
		c0.119,0.084,7.306,5.205,17.373,11.313l0,0c2.254,1.406,4.955,2.986,7.884,4.613c7.399,4.178,15.586,8.334,23.403,11.344
		c0.867,0.34,1.713,0.662,2.506,0.941c0-0.002,0-0.004,0-0.004c0.097,0.033,0.193,0.074,0.289,0.107
		c0.519-3.521,2.815-7.576,5.211-10.145C217.646,190.969,217.115,190.641,216.561,190.305z"/>
	<path fill="#231F20" d="M248.256,200.111c-2.908,0.266-5.282,1.301-7.119,2.826c-0.586,0.486-1.116,1.023-1.59,1.604l-16.375-10.49
		l-2.279-0.195l-0.529-1.689c-2.559,2.393-5.412,7.34-5.359,10.695l1.828-0.689l1.666,1.607l18.35,6.699
		c-0.137,0.74-0.221,1.496-0.244,2.26c-0.199,6.258,3.396,13.078,11.107,16.029c14.856,5.686,28.668,12.803,28.668,12.803
		C269.291,217.512,266.776,198.41,248.256,200.111z M224.478,203.752c-2.222,0.654-4.552-0.615-5.206-2.836
		c-0.652-2.221,0.615-4.553,2.837-5.207s4.554,0.615,5.206,2.836C227.971,200.768,226.699,203.098,224.478,203.752z
		 M244.549,209.855c-0.18,0.418-0.586,0.67-1.016,0.67c-0.145,0-0.293-0.029-0.435-0.09l-5.548-2.383l-9.545-4.098
		c-0.561-0.24-0.819-0.893-0.58-1.451c0.24-0.561,0.889-0.818,1.451-0.578l9.623,4.131l5.469,2.35
		C244.53,208.646,244.789,209.297,244.549,209.855z M254.791,215.379c-3.293,0.971-6.746-0.912-7.717-4.203
		c-0.971-3.293,0.912-6.746,4.204-7.715c3.291-0.973,6.746,0.91,7.716,4.203C259.963,210.955,258.082,214.41,254.791,215.379z
		 M259.912,216.533c-1.805-1.59,0.469-3.932,2.168-1.873c3.676,4.443,5.234,15.006,5.234,15.006S265.006,221.029,259.912,216.533z"
		/>
</g>
</svg>
