<?xml version="1.0" encoding="iso-8859-1"?>
<!-- Generator: Adobe Illustrator 15.1.0, SVG Export Plug-In . SVG Version: 6.00 Build 0)  -->
<!DOCTYPE svg PUBLIC "-//W3C//DTD SVG 1.1//EN" "http://www.w3.org/Graphics/SVG/1.1/DTD/svg11.dtd">
<svg version="1.1" id="Layer_1" xmlns="http://www.w3.org/2000/svg" xmlns:xlink="http://www.w3.org/1999/xlink" x="0px" y="0px"
	 width="283.46px" height="283.46px" viewBox="0 0 283.46 283.46" style="enable-background:new 0 0 283.46 283.46;"
	 xml:space="preserve">
<g>
	<path d="M271.298,129.737L153.721,12.164c-6.769-6.773-17.75-6.773-24.527,0L104.78,36.581l30.97,30.971
		c7.198-2.431,15.452-0.8,21.188,4.937c5.77,5.773,7.387,14.097,4.894,21.321l29.852,29.848c7.224-2.49,15.552-0.88,21.321,4.897
		c8.06,8.058,8.06,21.119,0,29.184c-8.064,8.063-21.124,8.063-29.192,0c-6.062-6.067-7.562-14.977-4.487-22.445l-27.842-27.839
		v73.257c1.964,0.973,3.818,2.27,5.455,3.9c8.06,8.06,8.06,21.119,0,29.19c-8.06,8.056-21.127,8.056-29.181,0
		c-8.059-8.071-8.059-21.131,0-29.19c1.992-1.988,4.299-3.494,6.76-4.502v-73.935c-2.461-1.007-4.763-2.5-6.76-4.503
		c-6.104-6.102-7.573-15.063-4.442-22.56L92.783,48.576L12.16,129.191c-6.771,6.779-6.771,17.76,0,24.534l117.583,117.571
		c6.769,6.771,17.748,6.771,24.528,0L271.298,154.27C278.072,147.495,278.072,136.508,271.298,129.737z"/>
</g>
</svg>
