<?xml version="1.0" encoding="utf-8"?>
<!-- Generator: Adobe Illustrator 15.1.0, SVG Export Plug-In . SVG Version: 6.00 Build 0)  -->
<!DOCTYPE svg PUBLIC "-//W3C//DTD SVG 1.1//EN" "http://www.w3.org/Graphics/SVG/1.1/DTD/svg11.dtd">
<svg version="1.1" id="Layer_1" xmlns="http://www.w3.org/2000/svg" xmlns:xlink="http://www.w3.org/1999/xlink" x="0px" y="0px"
	 width="283.465px" height="283.465px" viewBox="0 0 283.465 283.465" enable-background="new 0 0 283.465 283.465"
	 xml:space="preserve">
<g>
	<path fill="#212121" d="M270.49,136.107l-0.278-0.35l-0.198-0.401c-0.274-0.557-0.611-1.051-1.03-1.511l-50.473-54.695
		l-1.721-1.713c-5.003-4.562-11.487-7.073-18.266-7.073H186.98l-1.115,0.075c-3.036,0.474-5.31,3.123-5.31,6.211
		c0,3.466,2.82,6.286,6.286,6.286h11.683h0.145l0.146,0.01l1.449,0.102l0.135,0.01l0.134,0.019c3.301,0.452,6.383,2.056,8.679,4.519
		l28.907,31.349l6.378,6.916l-9.408,0.001l-48.246,0.006c-13.867,0-25.447,10.376-26.938,24.138l-0.398,3.679h-3.7h-28.141h-3.699
		l-0.399-3.677c-1.496-13.762-13.079-24.14-26.943-24.14l-48.097-0.006l-9.385-0.001l6.35-6.911l28.772-31.313l0.097-0.105
		l0.104-0.098l1.051-0.995l0.104-0.098l0.11-0.091c2.592-2.136,5.872-3.313,9.235-3.313h11.538l1.113-0.075
		c3.036-0.473,5.31-3.122,5.31-6.211c0-3.466-2.82-6.286-6.286-6.286H85.048l-2.433,0.101c-6.761,0.586-13.012,3.663-17.607,8.668
		l-50.225,54.666l-0.427,0.512l-0.422,0.612l-0.127,0.184l-0.146,0.169c-4.239,4.908-6.574,11.191-6.574,17.694v27.154v2.916
		c0,16.575,18.383,30.06,40.98,30.06h34.68c22.447,0,40.737-13.308,40.977-29.731l-0.007-3.242l-0.004-9.748l-0.002-4.124h4.124
		h27.769h4.12l0.002,4.12l0.003,5.972l0.01,3.775l0.002,2.916c0,16.578,18.383,30.063,40.979,30.063h34.68
		c22.597,0,40.98-13.484,40.98-30.06v-2.916v-27.156C276.38,146.766,274.344,140.936,270.49,136.107z M111.153,155.969
		c-2.666-9.396-10.964-16.412-21.125-17.141l-4.364-0.313l0.257-3.6l4.365,0.314c12.229,0.877,21.996,9.673,24.656,21.012
		L111.153,155.969z M264.742,155.969c-2.667-9.396-10.964-16.412-21.125-17.141l-4.364-0.314l0.258-3.599l4.363,0.314
		c12.229,0.878,21.997,9.673,24.656,21.012L264.742,155.969z"/>
</g>
</svg>
