<?xml version="1.0" encoding="utf-8"?>
<!-- Generator: Adobe Illustrator 15.1.0, SVG Export Plug-In . SVG Version: 6.00 Build 0)  -->
<!DOCTYPE svg PUBLIC "-//W3C//DTD SVG 1.1//EN" "http://www.w3.org/Graphics/SVG/1.1/DTD/svg11.dtd">
<svg version="1.1" id="Layer_4" xmlns="http://www.w3.org/2000/svg" xmlns:xlink="http://www.w3.org/1999/xlink" x="0px" y="0px"
	 width="283.465px" height="283.465px" viewBox="0 0 283.465 283.465" enable-background="new 0 0 283.465 283.465"
	 xml:space="preserve">
<g>
	<path fill="#212121" d="M271.382,107.587c-4.987-5.826-12.396-9.466-20.608-9.466h-0.043v-0.002h-4.103h-1.084h-2.973l-0.011-0.005
		l0,0l-0.004-0.002l-6.104,0.001h-1.518l-40.992,0.005l-3.393,0.001h-1.07h-2.642c-0.001,0-0.002,0-0.003,0
		c-0.197,0-0.391,0.014-0.587,0.019c-0.276,0.007-0.555,0.01-0.829,0.023c-0.028,0.001-0.056,0.004-0.084,0.006
		c-0.021,0.001-0.044,0.001-0.066,0.002c-0.151,0.009-0.303,0.021-0.453,0.032c-0.103,0.007-0.202,0.02-0.305,0.029
		c-0.168,0.014-0.337,0.024-0.504,0.042c-0.08,0.008-0.16,0.019-0.241,0.028c-0.041,0.004-0.083,0.007-0.124,0.012
		c-0.139,0.017-0.277,0.03-0.414,0.049c-0.138,0.018-0.273,0.045-0.41,0.065c-0.071,0.01-0.144,0.019-0.215,0.03
		c-0.173,0.027-0.347,0.055-0.519,0.086c-0.009,0.001-0.018,0.004-0.027,0.005c-0.116,0.02-0.234,0.034-0.35,0.056
		c-0.048,0.01-0.097,0.021-0.144,0.031c-0.119,0.023-0.234,0.054-0.353,0.079c-0.007,0.002-0.015,0.003-0.021,0.004
		c-0.156,0.034-0.313,0.063-0.469,0.1c-0.074,0.017-0.147,0.039-0.221,0.056c-0.099,0.024-0.199,0.042-0.298,0.067
		c-0.131,0.032-0.26,0.067-0.391,0.102c-0.053,0.014-0.104,0.031-0.156,0.046c-0.09,0.022-0.179,0.044-0.267,0.069
		c-0.143,0.041-0.281,0.089-0.423,0.132c-0.119,0.036-0.241,0.067-0.359,0.105c-0.092,0.028-0.183,0.055-0.271,0.085
		c-0.048,0.016-0.094,0.035-0.141,0.051c-0.037,0.012-0.074,0.022-0.11,0.034c-0.107,0.036-0.213,0.077-0.319,0.115
		c-0.133,0.047-0.263,0.098-0.395,0.147c-0.166,0.061-0.337,0.115-0.501,0.18c-0.04,0.017-0.08,0.034-0.12,0.05
		c-0.063,0.025-0.125,0.055-0.188,0.081c-0.065,0.028-0.131,0.054-0.196,0.082c-0.272,0.114-0.544,0.231-0.813,0.354
		c-0.005,0.002-0.01,0.005-0.015,0.007c-0.028,0.013-0.059,0.024-0.087,0.038c-0.092,0.042-0.182,0.084-0.271,0.127
		c-0.078,0.037-0.152,0.079-0.23,0.117c-0.215,0.104-0.429,0.21-0.64,0.32c-0.063,0.033-0.125,0.066-0.188,0.099
		c-0.079,0.042-0.162,0.08-0.241,0.123c-0.019,0.01-0.037,0.019-0.056,0.029c-0.155,0.085-0.305,0.18-0.458,0.268
		c-0.109,0.063-0.222,0.124-0.331,0.188c-0.104,0.063-0.212,0.123-0.315,0.186c-0.024,0.015-0.047,0.031-0.071,0.045
		c-0.072,0.044-0.148,0.084-0.221,0.129c-0.018,0.011-0.035,0.023-0.053,0.034c-0.14,0.088-0.272,0.185-0.409,0.275
		c-0.129,0.084-0.262,0.163-0.389,0.249c-0.016,0.011-0.029,0.022-0.046,0.033c-0.066,0.045-0.129,0.095-0.195,0.141
		c-0.069,0.048-0.142,0.093-0.211,0.142c-0.048,0.034-0.096,0.067-0.143,0.102c-0.084,0.061-0.163,0.127-0.246,0.188
		c-0.082,0.061-0.167,0.118-0.249,0.18c-0.102,0.077-0.202,0.158-0.303,0.237c-0.051,0.039-0.099,0.08-0.149,0.12
		c-0.174,0.137-0.348,0.275-0.519,0.417c-0.028,0.023-0.058,0.045-0.086,0.069c-0.113,0.095-0.226,0.191-0.336,0.288
		c-0.089,0.076-0.174,0.156-0.261,0.233c-0.109,0.097-0.225,0.188-0.332,0.287c-0.007,0.006-0.014,0.012-0.02,0.018
		c-0.058,0.053-0.11,0.11-0.168,0.164c-0.076,0.071-0.152,0.142-0.228,0.215c-0.148,0.141-0.291,0.288-0.436,0.433
		c-0.097,0.098-0.2,0.19-0.296,0.289c-0.021,0.021-0.041,0.041-0.062,0.062c-0.03,0.032-0.058,0.065-0.088,0.097
		c-0.023,0.023-0.047,0.047-0.069,0.071c-0.071,0.075-0.135,0.156-0.205,0.232c-0.303,0.328-0.601,0.66-0.888,1.002
		c-0.102,0.121-0.197,0.247-0.297,0.37c-0.184,0.228-0.373,0.45-0.55,0.684c-0.014,0.019-0.027,0.037-0.041,0.056
		c-0.064,0.086-0.123,0.177-0.187,0.264c-0.094,0.128-0.184,0.259-0.275,0.389c-0.146,0.207-0.297,0.408-0.438,0.619
		c-0.009,0.015-0.021,0.028-0.028,0.042c-0.006,0.009-0.012,0.018-0.018,0.026c-0.087,0.132-0.165,0.27-0.25,0.403
		c-0.066,0.105-0.132,0.211-0.197,0.318c-0.243,0.395-0.477,0.797-0.7,1.206c-0.052,0.095-0.104,0.189-0.154,0.285
		c-0.078,0.146-0.163,0.289-0.238,0.437c-0.03,0.061-0.06,0.122-0.09,0.183c-0.137,0.273-0.263,0.552-0.39,0.831
		c-0.01,0.021-0.021,0.043-0.03,0.065c-0.037,0.08-0.077,0.158-0.112,0.238c-0.05,0.113-0.1,0.227-0.148,0.341
		c-0.15,0.356-0.293,0.716-0.43,1.079c-0.041,0.109-0.086,0.217-0.125,0.327c-0.158,0.442-0.309,0.891-0.445,1.345
		c-0.051,0.172-0.096,0.348-0.146,0.521c-0.079,0.284-0.157,0.568-0.228,0.856c-0.057,0.232-0.109,0.466-0.16,0.7
		c-0.051,0.232-0.098,0.467-0.143,0.702c-0.049,0.257-0.098,0.515-0.14,0.774c-0.032,0.205-0.06,0.411-0.087,0.617
		c-0.034,0.254-0.078,0.504-0.105,0.76l-0.166,1.532l-0.231,2.146h-3.686h-0.006h-0.001H155.8h-28.131h-0.003h-0.001h-0.006h-3.686
		l-0.231-2.146l-0.166-1.532c-0.027-0.256-0.071-0.506-0.105-0.76c-0.027-0.206-0.055-0.412-0.087-0.617
		c-0.042-0.259-0.091-0.517-0.14-0.774c-0.045-0.235-0.092-0.47-0.143-0.702c-0.051-0.234-0.104-0.468-0.16-0.7
		c-0.07-0.288-0.148-0.572-0.228-0.856c-0.05-0.173-0.095-0.349-0.146-0.521c-0.137-0.454-0.287-0.903-0.445-1.345
		c-0.039-0.11-0.084-0.218-0.125-0.327c-0.137-0.363-0.279-0.723-0.43-1.079c-0.049-0.114-0.099-0.228-0.148-0.341
		c-0.036-0.081-0.076-0.158-0.112-0.238c-0.01-0.022-0.021-0.043-0.031-0.065c-0.127-0.278-0.253-0.557-0.39-0.831
		c-0.03-0.061-0.06-0.122-0.09-0.183c-0.075-0.148-0.16-0.291-0.238-0.437c-0.051-0.096-0.103-0.19-0.155-0.285
		c-0.224-0.409-0.457-0.811-0.7-1.206c-0.065-0.106-0.13-0.212-0.197-0.318c-0.085-0.133-0.163-0.271-0.25-0.403
		c-0.006-0.008-0.012-0.017-0.018-0.026c-0.008-0.014-0.02-0.027-0.028-0.042c-0.14-0.211-0.292-0.412-0.438-0.619
		c-0.092-0.13-0.182-0.261-0.275-0.389c-0.063-0.087-0.122-0.178-0.187-0.264c-0.014-0.019-0.027-0.037-0.041-0.056
		c-0.177-0.234-0.366-0.457-0.55-0.684c-0.099-0.123-0.195-0.249-0.297-0.37c-0.287-0.343-0.584-0.675-0.888-1.002
		c-0.07-0.076-0.134-0.157-0.205-0.232c-0.022-0.024-0.046-0.047-0.069-0.071c-0.03-0.032-0.058-0.065-0.088-0.097
		c-0.021-0.021-0.04-0.041-0.062-0.062c-0.096-0.099-0.199-0.191-0.296-0.289c-0.144-0.145-0.287-0.292-0.435-0.433
		c-0.072-0.069-0.146-0.137-0.218-0.206c-0.061-0.057-0.117-0.117-0.177-0.173c-0.006-0.006-0.013-0.012-0.02-0.018
		c-0.109-0.101-0.227-0.193-0.338-0.292c-0.085-0.076-0.168-0.153-0.255-0.228c-0.111-0.097-0.223-0.193-0.336-0.288
		c-0.028-0.023-0.058-0.045-0.086-0.069c-0.171-0.142-0.345-0.279-0.519-0.417c-0.05-0.04-0.099-0.081-0.149-0.12
		c-0.101-0.079-0.201-0.16-0.303-0.237c-0.079-0.06-0.162-0.115-0.241-0.174c-0.086-0.063-0.167-0.132-0.254-0.194
		c-0.047-0.035-0.095-0.068-0.143-0.102c-0.071-0.051-0.146-0.097-0.218-0.146c-0.063-0.044-0.125-0.092-0.188-0.136
		c-0.016-0.011-0.03-0.022-0.046-0.033c-0.125-0.084-0.254-0.162-0.381-0.244c-0.14-0.092-0.274-0.19-0.417-0.28
		c-0.018-0.011-0.035-0.023-0.053-0.034c-0.073-0.045-0.148-0.085-0.222-0.129c-0.024-0.015-0.046-0.031-0.07-0.045
		c-0.104-0.063-0.211-0.123-0.316-0.186c-0.106-0.062-0.214-0.121-0.321-0.182c-0.156-0.09-0.309-0.187-0.468-0.274
		c-0.019-0.01-0.037-0.019-0.056-0.029c-0.079-0.043-0.162-0.08-0.242-0.123c-0.063-0.033-0.125-0.066-0.188-0.099
		c-0.211-0.11-0.425-0.216-0.64-0.32c-0.077-0.038-0.152-0.08-0.23-0.117c-0.09-0.043-0.18-0.085-0.271-0.127
		c-0.028-0.013-0.058-0.024-0.087-0.038c-0.005-0.002-0.01-0.004-0.015-0.007c-0.269-0.123-0.54-0.24-0.813-0.354
		c-0.063-0.026-0.126-0.052-0.189-0.079c-0.065-0.027-0.129-0.058-0.195-0.084c-0.04-0.016-0.08-0.033-0.12-0.05
		c-0.165-0.064-0.334-0.119-0.5-0.18c-0.132-0.049-0.262-0.1-0.395-0.147c-0.107-0.038-0.212-0.079-0.319-0.115
		c-0.036-0.012-0.074-0.022-0.11-0.034c-0.048-0.016-0.093-0.035-0.141-0.051c-0.089-0.03-0.18-0.057-0.271-0.085
		c-0.119-0.038-0.24-0.069-0.359-0.105c-0.142-0.043-0.28-0.091-0.423-0.132c-0.088-0.025-0.178-0.047-0.267-0.069
		c-0.053-0.015-0.104-0.032-0.156-0.046c-0.131-0.035-0.26-0.07-0.391-0.102c-0.098-0.025-0.199-0.043-0.297-0.067
		c-0.074-0.018-0.147-0.039-0.221-0.056c-0.155-0.036-0.313-0.066-0.469-0.1c-0.006-0.001-0.012-0.002-0.018-0.003
		c-0.119-0.025-0.236-0.057-0.356-0.08c-0.047-0.01-0.096-0.021-0.144-0.031c-0.116-0.022-0.234-0.036-0.35-0.056
		c-0.009-0.001-0.018-0.004-0.027-0.005c-0.172-0.031-0.346-0.059-0.519-0.086c-0.071-0.011-0.143-0.019-0.214-0.03
		c-0.138-0.02-0.272-0.047-0.411-0.065c-0.137-0.019-0.275-0.032-0.414-0.049c-0.042-0.005-0.084-0.007-0.125-0.012
		c-0.08-0.01-0.16-0.02-0.24-0.028c-0.167-0.018-0.336-0.028-0.504-0.042c-0.102-0.009-0.202-0.021-0.304-0.029
		c-0.15-0.011-0.302-0.023-0.453-0.032c-0.022-0.001-0.045-0.001-0.067-0.002c-0.028-0.002-0.056-0.004-0.083-0.006
		c-0.275-0.014-0.553-0.016-0.829-0.023c-0.196-0.005-0.39-0.019-0.587-0.019c-0.001,0-0.002,0-0.003,0h-2.642h-1.07l-3.393-0.001
		l-40.992-0.005h-1.518l-6.104-0.001l-0.004,0.002l0,0l-0.011,0.005h-2.972h-1.084h-4.103v0.002h-0.043
		c-8.212,0-15.621,3.64-20.608,9.466c-2.171,2.536-3.88,5.488-5,8.733v7.477v1.426v0.005v13.285v13.864v0.001v0.004v0.001v2.91
		v0.001v0.004v0.001v7.975c1.11,2.945,2.798,5.718,5,8.229c6.27,7.15,16.551,12.239,28.5,13.527c0.165,0.018,0.334,0.023,0.5,0.041
		v-0.125c0.216,0.025,0.428,0.061,0.646,0.084v-0.036c0.019,0.002,0.039,0.003,0.058,0.005c1.005,0.114,2.022,0.202,3.05,0.262
		c0.024,0.001,0.048,0.002,0.072,0.003c1.042,0.059,2.092,0.095,3.154,0.095h0.002h34.678h0.002c0,0,0.002,0,0.003,0
		c0.839,0,1.669-0.025,2.495-0.063c0.105-0.005,0.213-0.012,0.318-0.018c0.816-0.041,1.624-0.104,2.426-0.18
		c0.111-0.01,0.22-0.024,0.332-0.036c0.653-0.065,1.303-0.141,1.946-0.229c0.23-0.031,0.457-0.067,0.686-0.102
		c0.518-0.078,1.034-0.161,1.544-0.253c0.274-0.049,0.546-0.101,0.817-0.154c0.217-0.042,0.438-0.078,0.653-0.123
		c0.005-0.001,0.012-0.002,0.016-0.003c0.006-0.001,0.012-0.003,0.02-0.005c0.235-0.049,0.464-0.108,0.698-0.161
		c0.168-0.037,0.34-0.067,0.507-0.106c0.071-0.017,0.142-0.035,0.213-0.053c0.078-0.019,0.153-0.041,0.231-0.06
		c0.122-0.03,0.248-0.055,0.369-0.085c0.002,0,0.006-0.002,0.008-0.002c0.131-0.033,0.256-0.076,0.387-0.11
		c0.271-0.07,0.546-0.135,0.815-0.21c0.109-0.03,0.217-0.063,0.325-0.094c0.345-0.099,0.684-0.207,1.025-0.313
		c0.196-0.061,0.395-0.116,0.589-0.179c0.016-0.005,0.032-0.01,0.048-0.015c0.117-0.037,0.232-0.076,0.348-0.113
		c0.543-0.182,1.081-0.369,1.611-0.565c0.104-0.039,0.208-0.077,0.311-0.116c0.052-0.02,0.103-0.042,0.155-0.063
		c0.207-0.079,0.408-0.164,0.613-0.245c0.288-0.115,0.581-0.227,0.865-0.347c0.072-0.029,0.145-0.061,0.217-0.09
		c0.284-0.121,0.558-0.253,0.837-0.379c0.207-0.094,0.414-0.185,0.618-0.28c0.097-0.046,0.199-0.088,0.295-0.134
		c0.01-0.006,0.021-0.011,0.031-0.016c0.274-0.132,0.529-0.281,0.798-0.417c0.537-0.271,1.073-0.542,1.591-0.831
		c0.33-0.185,0.645-0.38,0.967-0.571c0.51-0.303,1.018-0.607,1.508-0.928c0.301-0.197,0.589-0.404,0.883-0.607
		c0.483-0.335,0.962-0.673,1.422-1.024c0.278-0.213,0.544-0.434,0.814-0.652c0.444-0.359,0.882-0.723,1.302-1.098
		c0.093-0.083,0.198-0.16,0.29-0.244c0.002-0.003,0.005-0.005,0.008-0.008c0.316-0.289,0.616-0.587,0.918-0.885
		c0.101-0.1,0.214-0.192,0.313-0.293c0.008-0.008,0.018-0.019,0.027-0.028c0.391-0.397,0.77-0.8,1.134-1.211
		c0.028-0.033,0.056-0.065,0.085-0.097c0.018-0.021,0.034-0.042,0.052-0.063c0,0,0-0.001,0.001-0.001c0,0,0-0.001,0.001-0.001
		c0.005-0.006,0.009-0.012,0.014-0.018c0.318-0.364,0.627-0.73,0.924-1.104c0.04-0.049,0.079-0.101,0.119-0.151
		c0.05-0.063,0.095-0.13,0.145-0.194c0.088-0.114,0.171-0.229,0.257-0.345c0.157-0.21,0.319-0.418,0.469-0.631
		c0.022-0.035,0.05-0.066,0.072-0.1c0.022-0.031,0.041-0.063,0.062-0.094c0.076-0.109,0.144-0.223,0.218-0.334
		c0.123-0.183,0.241-0.366,0.359-0.551c0.091-0.143,0.189-0.282,0.277-0.426c0.039-0.066,0.08-0.131,0.119-0.195
		c0.09-0.15,0.168-0.305,0.255-0.456c0.112-0.194,0.222-0.389,0.328-0.585c0.069-0.129,0.146-0.254,0.214-0.383
		c0.018-0.035,0.037-0.067,0.055-0.102c0.108-0.211,0.199-0.428,0.301-0.641c0.092-0.192,0.185-0.384,0.271-0.578
		c0.173-0.388,0.331-0.779,0.482-1.174c0.071-0.184,0.146-0.365,0.212-0.55c0.029-0.081,0.065-0.16,0.093-0.241
		c0.039-0.117,0.072-0.235,0.11-0.353c0.084-0.255,0.156-0.514,0.231-0.771c0.04-0.138,0.086-0.273,0.123-0.411
		c0.003-0.011,0.007-0.021,0.01-0.032c0.053-0.194,0.097-0.392,0.144-0.587c0.08-0.337,0.156-0.674,0.222-1.016
		c0.003-0.015,0.005-0.028,0.007-0.043c0.02-0.105,0.037-0.212,0.055-0.317c0.018-0.105,0.037-0.211,0.055-0.317
		c0.051-0.32,0.094-0.641,0.131-0.963c0.009-0.075,0.015-0.15,0.023-0.226c0.007-0.073,0.023-0.146,0.03-0.22
		c0.002-0.021,0.005-0.041,0.007-0.062c0.005-0.06,0.005-0.12,0.01-0.181c0-0.008,0.001-0.016,0.002-0.024
		c0.028-0.329,0.042-0.66,0.056-0.991c0.004-0.118,0.012-0.234,0.019-0.352c0.001-0.055,0.008-0.107,0.009-0.162v-0.287
		c0-0.016,0.002-0.029,0.002-0.044l0.003-2.916l0.01-3.774l0.002-5.973l0.002-4.12h4.092h0.001h0.026h0.002h27.738h0.002h0.026
		h0.001h4.092l0.002,4.12l0.002,5.973l0.01,3.774l0.003,2.916c0,0.015,0.002,0.028,0.002,0.044v0.287
		c0.002,0.1,0.014,0.196,0.017,0.295c0.005,0.073,0.009,0.146,0.012,0.219c0.014,0.331,0.027,0.662,0.056,0.991
		c0.001,0.008,0.002,0.016,0.003,0.023c0.005,0.061,0.004,0.122,0.01,0.182c0.002,0.021,0.005,0.04,0.007,0.062
		c0.007,0.074,0.022,0.146,0.03,0.22c0.009,0.075,0.015,0.15,0.023,0.226c0.037,0.322,0.08,0.643,0.131,0.963
		c0.018,0.106,0.037,0.212,0.055,0.317c0.019,0.105,0.035,0.212,0.055,0.317c0.003,0.015,0.005,0.028,0.008,0.043
		c0.065,0.342,0.142,0.679,0.222,1.016c0.047,0.195,0.091,0.393,0.144,0.587c0.003,0.011,0.007,0.021,0.01,0.031
		c0.037,0.14,0.084,0.277,0.124,0.416c0.075,0.257,0.147,0.514,0.23,0.768c0.038,0.117,0.071,0.235,0.11,0.353
		c0.027,0.08,0.063,0.158,0.092,0.239c0.067,0.188,0.145,0.373,0.217,0.56c0.15,0.391,0.306,0.778,0.477,1.162
		c0.089,0.197,0.184,0.393,0.276,0.589c0.101,0.211,0.191,0.425,0.298,0.634c0.018,0.034,0.037,0.066,0.055,0.102
		c0.066,0.127,0.143,0.25,0.211,0.377c0.108,0.2,0.221,0.399,0.335,0.598c0.085,0.149,0.162,0.302,0.251,0.449
		c0.039,0.064,0.08,0.129,0.119,0.195c0.087,0.142,0.184,0.278,0.272,0.418c0.121,0.189,0.243,0.378,0.369,0.565
		c0.072,0.108,0.139,0.22,0.213,0.327c0.021,0.031,0.039,0.063,0.062,0.094c0.022,0.033,0.05,0.064,0.072,0.1
		c0.147,0.209,0.307,0.413,0.461,0.619c0.09,0.12,0.178,0.242,0.271,0.362c0.048,0.063,0.091,0.127,0.14,0.188
		c0.04,0.051,0.079,0.103,0.119,0.151c0.289,0.364,0.591,0.722,0.9,1.077c0.013,0.015,0.024,0.03,0.037,0.045
		c0.001,0,0.001,0.001,0.001,0.001c0.001,0.001,0.002,0.002,0.002,0.002c0.001,0.001,0.002,0.002,0.003,0.003
		c0.017,0.02,0.032,0.039,0.049,0.059c0.029,0.031,0.057,0.063,0.085,0.097c0.364,0.411,0.743,0.813,1.134,1.211
		c0.01,0.01,0.02,0.021,0.027,0.028c0.1,0.101,0.212,0.193,0.313,0.293c0.302,0.298,0.602,0.596,0.918,0.885
		c0.003,0.003,0.006,0.005,0.008,0.008c0.094,0.086,0.2,0.164,0.296,0.249c0.415,0.371,0.848,0.729,1.287,1.085
		c0.273,0.223,0.544,0.446,0.827,0.663c0.456,0.349,0.932,0.684,1.411,1.017c0.296,0.206,0.588,0.414,0.892,0.614
		c0.488,0.319,0.994,0.622,1.502,0.924c0.323,0.192,0.641,0.389,0.971,0.573c0.518,0.289,1.054,0.56,1.589,0.83
		c0.271,0.137,0.525,0.286,0.8,0.418c0.01,0.005,0.021,0.01,0.031,0.016c0.097,0.047,0.198,0.088,0.296,0.134
		c0.203,0.096,0.411,0.187,0.617,0.279c0.279,0.127,0.554,0.259,0.838,0.38c0.071,0.029,0.145,0.061,0.217,0.09
		c0.286,0.121,0.579,0.232,0.869,0.349c0.202,0.08,0.401,0.164,0.605,0.242c0.053,0.021,0.104,0.043,0.158,0.063
		c0.104,0.039,0.207,0.077,0.312,0.116c0.529,0.196,1.067,0.384,1.61,0.565c0.116,0.037,0.231,0.076,0.349,0.113
		c0.016,0.005,0.032,0.01,0.049,0.015c0.192,0.063,0.39,0.118,0.584,0.178c0.342,0.106,0.682,0.214,1.028,0.313
		c0.108,0.031,0.217,0.063,0.325,0.094c0.271,0.075,0.546,0.141,0.818,0.211c0.13,0.034,0.254,0.076,0.384,0.109
		c0.002,0,0.006,0.002,0.008,0.002c0.121,0.03,0.246,0.055,0.368,0.085c0.077,0.019,0.153,0.041,0.231,0.06
		c0.07,0.018,0.142,0.036,0.213,0.053c0.167,0.039,0.34,0.069,0.508,0.107c0.233,0.052,0.462,0.111,0.697,0.16
		c0.008,0.002,0.014,0.004,0.02,0.005c0.004,0.001,0.011,0.002,0.016,0.003c0.215,0.045,0.436,0.08,0.651,0.123
		c0.272,0.054,0.546,0.105,0.82,0.154c0.51,0.092,1.024,0.175,1.542,0.252c0.229,0.035,0.457,0.071,0.688,0.103
		c0.643,0.088,1.292,0.163,1.944,0.229c0.111,0.012,0.221,0.026,0.333,0.036c0.802,0.076,1.609,0.139,2.426,0.18
		c0.105,0.006,0.213,0.013,0.318,0.018c0.826,0.037,1.656,0.063,2.495,0.063c0.001,0,0.003,0,0.003,0h0.002H235.4h0.002
		c1.062,0,2.112-0.036,3.154-0.095c0.023-0.001,0.048-0.002,0.071-0.003c1.029-0.06,2.046-0.147,3.052-0.262
		c0.019-0.002,0.037-0.003,0.056-0.005v0.036c0.218-0.023,0.43-0.059,0.646-0.084v0.125c0.166-0.018,0.335-0.023,0.5-0.041
		c11.948-1.288,22.229-6.377,28.5-13.527c2.201-2.511,3.89-5.283,5-8.229v-7.975v-0.001v-0.004v-0.001v-2.91v-0.001v-0.004v-0.001
		v-13.864v-13.285v-0.005v-1.426v-7.477C275.262,113.075,273.553,110.123,271.382,107.587z M85.921,107.165l4.365,0.314
		c12.229,0.877,21.995,9.671,24.656,21.011l-3.789-0.27c-2.666-9.396-10.964-16.411-21.125-17.141l-4.364-0.313L85.921,107.165z
		 M268.527,128.491l-3.786-0.271c-2.667-9.396-10.966-16.411-21.125-17.141l-4.364-0.313l0.26-3.6l4.361,0.314
		C256.102,108.357,265.87,117.151,268.527,128.491z"/>
</g>
</svg>
