<?xml version="1.0" encoding="utf-8"?>
<!-- Generator: Adobe Illustrator 15.1.0, SVG Export Plug-In . SVG Version: 6.00 Build 0)  -->
<!DOCTYPE svg PUBLIC "-//W3C//DTD SVG 1.1//EN" "http://www.w3.org/Graphics/SVG/1.1/DTD/svg11.dtd">
<svg version="1.1" id="Layer_3" xmlns="http://www.w3.org/2000/svg" xmlns:xlink="http://www.w3.org/1999/xlink" x="0px" y="0px"
	 width="283.46px" height="283.46px" viewBox="0 0 283.46 283.46" enable-background="new 0 0 283.46 283.46" xml:space="preserve">
<g>
	<path d="M141.73,7.084C67.486,7.084,7.084,67.486,7.084,141.73c0,74.243,60.401,134.646,134.646,134.646
		c74.243,0,134.646-60.402,134.646-134.646C276.375,67.486,215.973,7.084,141.73,7.084z M235.191,191.371
		c-6.836,6.247-11.993,5.913-15.974,13.314c-3.995,7.388-1.111,12.574-9.08,19.977c-7.976,7.402-16.285,13.627-24.821,18.763
		c-4.488,2.687-15.704,15.036-22.395,19.372c-6.058,3.93-7.866,0-7.866,0s1.859-12.109,7.003-17.229
		c5.113-5.121,8.025-24.291,6.313-29.985c-1.701-5.688-9.88-7.41-12.713-9.683c-2.847-2.267-10.293-11.244-10.293-16.954
		c0-4.217,6.808-13.372,10.343-17.843c-2.684-1.305-7.123-5.5-9.74-6.368c-3.414-1.141-11.2-12.029-17.861-13.177
		c-6.653-1.154-9.9-5.085-15.021-9.08c-5.129-3.987-17.659-9.675-17.092-15.943c0.573-6.262-12.53-11.39-14.805-11.39
		c-2.28,0-7.401,0-11.963-7.977c-4.555-7.976-12.531-15.951-10.25-21.639c2.273-5.695,2.848-12.545,1.7-18.807
		C59.542,60.46,51,58.18,49.292,59.886c-1.652,1.66-10.241,9.193-11.829,2.952c11.074-14.613,25.147-26.825,41.306-35.722
		c3.275-0.078,5.555,0.595,6.065,2.632c1.134,4.563,2.259,10.613,8.521,8.339c6.262-2.28,22.104-4.061,29.514-9.748
		c7.402-5.688,16.3-5.716,23.709-3.436c7.402,2.273,28.162,1.648,23.608,8.478c-4.555,6.835-13.257,6.007-17.805,13.976
		c-4.554,7.982,1.25,13.264,7.512,13.264c6.282,0,12.414,0.98,16.408-5.281c3.988-6.269-2.774-17.891,2.361-17.121
		c5.128,0.771,10.729,6.291,14.746,14.841c3.974,8.542,10.227,3.414,12.515,8.542c2.275,5.121,14.819,14.812,8.551,13.104
		c-6.275-1.715-12.538-2.848-14.245,3.414c-1.714,6.269,2.826,12.537-1.714,11.964c-4.555-0.574-6.255,0.646-12.53,0.028
		c-6.262-0.603-9.684-4.583-14.812,3.959c-5.121,8.535-9.109,14.244-11.383,18.226c-2.288,3.987-5.702,6.254-3.995,14.237
		c1.707,7.982-4.562,5.701-4.562-1.134c0-6.828-3.98-7.976-9.102-6.842c-5.128,1.14-13.097,2.272-12.522,7.976
		c0.559,5.694-2.288,12.53,2.273,17.084c4.555,4.569,9.661-0.553,12.515,1.147c2.855,1.722,11.078,0.168,8.231,3.022
		c-2.855,2.84-12.785,6.399-7.09,10.961c5.71,4.547,11.462,6.021,13.751,6.588c2.272,0.582,0.449-5.622,7.866-8.469
		c7.387-2.848,18.944-9.371,21.792-4.242c2.84,5.12,2.455,4.321,12.711,5.447c10.243,1.134,13.003,4.249,17.558,13.926
		c4.554,9.683,3.24,8.658,10.619,11.484C237.254,186.336,242.026,185.095,235.191,191.371z"/>
</g>
</svg>
