<?xml version="1.0" encoding="utf-8"?>
<!-- Generator: Adobe Illustrator 15.1.0, SVG Export Plug-In . SVG Version: 6.00 Build 0)  -->
<!DOCTYPE svg PUBLIC "-//W3C//DTD SVG 1.1//EN" "http://www.w3.org/Graphics/SVG/1.1/DTD/svg11.dtd">
<svg version="1.1" id="Layer_4" xmlns="http://www.w3.org/2000/svg" xmlns:xlink="http://www.w3.org/1999/xlink" x="0px" y="0px"
	 width="283.465px" height="283.465px" viewBox="0 0 283.465 283.465" enable-background="new 0 0 283.465 283.465"
	 xml:space="preserve">
<g>
	<path d="M193.547,208.76c0.072-1.227,0.113-2.422,0.141-3.6c7.838-7.064,11.688-15.014,11.428-23.65
		c-0.453-14.977-13.225-27.25-18.053-31.369c3.242-9.127,2.875-18.689-1.156-27.947c-2.816-6.47-6.611-10.959-8.172-12.646
		c-1.555-8.221-12.947-65.907-33.018-100.985c-0.615-1.077-1.836-1.554-2.984-1.463c-1.15-0.091-2.371,0.386-2.986,1.463
		c-20.068,35.078-31.463,92.767-33.018,100.985c-1.559,1.688-5.355,6.178-8.172,12.646c-4.029,9.258-4.398,18.82-1.154,27.947
		c-4.83,4.119-17.6,16.393-18.053,31.369c-0.262,8.637,3.588,16.588,11.426,23.65c0.027,1.178,0.068,2.373,0.141,3.6l-6.563,13.529
		c-0.469,0.967-0.396,2.107,0.188,3.01c0.248,0.383,3.646,5.379,13.895,9.92l4.947,20.479c-4.701,1.484-10.547,6.102-12.383,17.105
		c-0.148,0.893,0.102,1.801,0.686,2.488c0.584,0.689,1.439,1.086,2.344,1.086h38.016c1.695,0,3.07-1.373,3.07-3.068v-15.484
		c0.084-1.227,0.836-6.762,7.297-6.762v0.02c0.104-0.006,0.213-0.006,0.32-0.01c0.107,0.004,0.217,0.004,0.32,0.01v-0.02
		c6.461,0,7.213,5.535,7.299,6.762v15.484c0,1.695,1.373,3.068,3.068,3.068h38.018c0.9,0,1.758-0.395,2.342-1.086
		c0.584-0.688,0.834-1.598,0.686-2.488c-1.834-11.006-7.682-15.621-12.383-17.105l4.947-20.479
		c10.248-4.541,13.646-9.537,13.895-9.92c0.584-0.9,0.654-2.043,0.188-3.01L193.547,208.76z M113.262,103.322
		c3.693-17.361,13.434-58.438,28.146-86.813v0.002l0,0c0.107,0.209,0.215,0.42,0.32,0.631c0.107,0.211,0.215,0.42,0.322,0.631
		v-1.262l0,0V16.51c14.715,28.375,24.453,69.449,28.146,86.813l0,0v0.001c-0.324-0.198-0.65-0.393-0.979-0.581
		c-0.031-0.018-0.063-0.035-0.094-0.054c-0.314-0.179-0.627-0.351-0.941-0.521c-0.047-0.024-0.094-0.051-0.141-0.074
		c-0.309-0.163-0.617-0.321-0.926-0.477c-0.055-0.025-0.105-0.053-0.158-0.078c-0.309-0.152-0.617-0.3-0.926-0.442
		c-0.055-0.025-0.105-0.05-0.16-0.073c-0.313-0.145-0.625-0.283-0.938-0.419c-0.045-0.019-0.09-0.038-0.135-0.058
		c-0.322-0.139-0.645-0.272-0.969-0.401c-0.027-0.011-0.053-0.021-0.08-0.031c-0.326-0.131-0.652-0.257-0.979-0.379
		c-0.02-0.007-0.037-0.015-0.057-0.021c-0.326-0.121-0.65-0.238-0.977-0.353c-0.043-0.016-0.086-0.03-0.129-0.046
		c-0.314-0.107-0.625-0.212-0.938-0.313c-0.053-0.019-0.105-0.035-0.16-0.053c-0.305-0.099-0.607-0.193-0.912-0.283
		c-0.057-0.019-0.111-0.035-0.168-0.051c-0.303-0.091-0.604-0.178-0.902-0.262c-0.055-0.016-0.107-0.029-0.16-0.044
		c-0.305-0.084-0.607-0.165-0.908-0.243c-0.041-0.011-0.082-0.021-0.125-0.031c-0.311-0.08-0.623-0.156-0.93-0.229
		c-0.02-0.005-0.037-0.009-0.059-0.015c-0.303-0.071-0.604-0.141-0.902-0.207c-0.031-0.006-0.063-0.014-0.096-0.021
		c-0.295-0.065-0.588-0.127-0.879-0.187c-0.047-0.01-0.094-0.02-0.139-0.027c-0.281-0.057-0.561-0.109-0.834-0.162
		c-0.055-0.01-0.107-0.02-0.16-0.029c-0.271-0.051-0.541-0.098-0.807-0.144c-0.053-0.009-0.104-0.019-0.154-0.026
		c-0.266-0.045-0.529-0.087-0.787-0.128c-0.047-0.007-0.094-0.014-0.141-0.021c-0.264-0.041-0.523-0.08-0.779-0.115
		c-0.033-0.004-0.064-0.01-0.098-0.014c-0.258-0.035-0.514-0.069-0.764-0.103c-0.016-0.002-0.031-0.004-0.047-0.006
		c-0.256-0.032-0.504-0.062-0.75-0.09c-0.035-0.005-0.07-0.009-0.104-0.013c-0.234-0.026-0.463-0.051-0.688-0.074
		c-0.045-0.004-0.09-0.008-0.133-0.014c-0.217-0.021-0.43-0.041-0.637-0.061c-0.047-0.004-0.092-0.008-0.137-0.012
		c-0.205-0.02-0.404-0.035-0.6-0.051c-0.045-0.004-0.088-0.006-0.131-0.011c-0.193-0.015-0.381-0.028-0.564-0.04
		c-0.037-0.003-0.074-0.005-0.111-0.008c-0.188-0.012-0.369-0.023-0.545-0.033c-0.021,0-0.043-0.002-0.066-0.003
		c-0.17-0.01-0.334-0.018-0.492-0.024c-0.02-0.002-0.045-0.002-0.064-0.004c-0.16-0.008-0.314-0.014-0.463-0.02
		c-0.029-0.001-0.063-0.002-0.094-0.003c-0.139-0.005-0.27-0.009-0.398-0.013c-0.033-0.002-0.066-0.002-0.1-0.004
		c-0.121-0.002-0.236-0.004-0.346-0.006c-0.031-0.002-0.063-0.002-0.094-0.002c-0.105-0.002-0.207-0.004-0.299-0.004
		c-0.027,0-0.055,0-0.078-0.002c-0.09,0-0.176,0-0.252,0c-0.043,0-0.084,0-0.123,0c-0.01,0-0.021,0-0.031,0
		c-0.037,0-0.072,0-0.105,0c-0.014,0-0.025,0-0.037,0.002c-0.029,0-0.059,0-0.084,0c-0.016,0-0.027,0-0.041,0
		c-0.021,0-0.043,0.002-0.064,0.002c-0.029,0-0.057,0-0.08,0c-0.002,0-0.004,0-0.004,0v-0.004c-0.021,0-0.049,0-0.07,0
		c-0.133,0-0.244,0-0.34,0c-0.008,0.002-0.018,0.002-0.025,0.002c-0.031,0-0.061,0-0.088,0c-0.014,0-0.027,0-0.039,0.002
		c-0.031,0-0.061,0-0.084,0s-0.051,0-0.08,0c-0.02,0-0.041-0.002-0.064-0.002c-0.012,0-0.025,0-0.041,0c-0.025,0-0.055,0-0.084,0
		c-0.012-0.002-0.023-0.002-0.037-0.002c-0.035,0-0.068,0-0.105,0c-0.012,0-0.021,0-0.031,0c-0.041,0-0.08,0-0.123,0
		c-0.078,0-0.162,0-0.252,0c-0.025,0.002-0.051,0.002-0.078,0.002c-0.092,0-0.193,0.002-0.299,0.004c-0.031,0-0.063,0-0.092,0.002
		c-0.109,0.002-0.227,0.004-0.348,0.006c-0.031,0.002-0.064,0.002-0.1,0.004c-0.127,0.004-0.26,0.008-0.398,0.013
		c-0.031,0.001-0.063,0.002-0.094,0.003c-0.146,0.006-0.301,0.012-0.461,0.02c-0.021,0.002-0.045,0.002-0.066,0.004
		c-0.158,0.008-0.322,0.016-0.492,0.025c-0.021,0-0.043,0.002-0.066,0.002c-0.174,0.01-0.357,0.021-0.543,0.033
		c-0.039,0.003-0.074,0.005-0.111,0.008c-0.184,0.012-0.373,0.025-0.566,0.041c-0.043,0.004-0.086,0.006-0.129,0.01
		c-0.195,0.016-0.396,0.031-0.6,0.051c-0.045,0.004-0.092,0.008-0.137,0.012c-0.207,0.02-0.42,0.039-0.637,0.061
		c-0.043,0.006-0.088,0.01-0.133,0.015c-0.227,0.022-0.453,0.047-0.688,0.073c-0.035,0.004-0.07,0.008-0.104,0.013
		c-0.246,0.028-0.496,0.058-0.75,0.09c-0.016,0.002-0.033,0.004-0.049,0.006c-0.25,0.032-0.504,0.065-0.762,0.103
		c-0.033,0.004-0.064,0.01-0.098,0.014c-0.256,0.036-0.518,0.074-0.779,0.115c-0.047,0.008-0.094,0.015-0.141,0.021
		c-0.258,0.041-0.521,0.083-0.787,0.128c-0.051,0.01-0.104,0.018-0.156,0.026c-0.266,0.046-0.533,0.093-0.805,0.144
		c-0.053,0.01-0.105,0.021-0.16,0.029c-0.275,0.053-0.553,0.105-0.834,0.162c-0.045,0.009-0.092,0.02-0.139,0.027
		c-0.291,0.06-0.584,0.121-0.881,0.187c-0.029,0.007-0.063,0.015-0.094,0.021c-0.299,0.066-0.6,0.136-0.904,0.207
		c-0.018,0.006-0.037,0.01-0.055,0.015c-0.309,0.073-0.619,0.149-0.932,0.229c-0.041,0.012-0.082,0.021-0.125,0.031
		c-0.301,0.078-0.604,0.159-0.908,0.243c-0.053,0.015-0.105,0.028-0.158,0.044c-0.301,0.084-0.602,0.171-0.904,0.262
		c-0.057,0.016-0.111,0.032-0.166,0.051c-0.305,0.09-0.609,0.186-0.914,0.283c-0.055,0.018-0.107,0.034-0.16,0.053
		c-0.313,0.101-0.623,0.205-0.936,0.313c-0.043,0.016-0.086,0.03-0.129,0.046c-0.326,0.113-0.65,0.229-0.979,0.353
		c-0.018,0.007-0.037,0.015-0.057,0.021c-0.324,0.122-0.652,0.248-0.979,0.379c-0.025,0.011-0.053,0.021-0.078,0.031
		c-0.324,0.129-0.646,0.265-0.971,0.401c-0.045,0.02-0.088,0.039-0.135,0.058c-0.313,0.136-0.625,0.274-0.938,0.419
		c-0.053,0.023-0.105,0.048-0.158,0.073c-0.311,0.144-0.619,0.291-0.926,0.442c-0.053,0.025-0.105,0.053-0.158,0.078
		c-0.311,0.154-0.619,0.313-0.926,0.477c-0.047,0.023-0.094,0.05-0.141,0.074c-0.314,0.17-0.629,0.342-0.941,0.521
		c-0.031,0.019-0.063,0.036-0.092,0.054C113.914,102.93,113.586,103.123,113.262,103.322L113.262,103.322L113.262,103.322z
		 M159.328,115.242c0,0.811-0.33,1.602-0.902,2.174c-0.57,0.57-1.361,0.896-2.166,0.896h-0.002l0,0
		c-0.811,0-1.602-0.325-2.172-0.896c-0.572-0.572-0.896-1.363-0.896-2.174c0-0.805,0.324-1.597,0.896-2.166
		c0.35-0.353,0.789-0.599,1.26-0.748c-0.678-0.127-1.375-0.209-2.082-0.234c-0.818-0.028-1.65,0.023-2.475,0.193
		c-0.416,0.084-0.828,0.082-1.221,0.002c-1.174-0.233-2.15-1.145-2.408-2.39c-0.34-1.66,0.729-3.282,2.389-3.626
		c1.275-0.264,2.543-0.354,3.775-0.32c6.65,0.178,12.266,3.991,12.543,4.184c1.395,0.964,1.744,2.875,0.779,4.271
		c-0.596,0.862-1.553,1.325-2.527,1.325l0,0l0,0c-0.6,0-1.205-0.175-1.734-0.54c-0.053-0.034-1.584-1.06-3.799-1.924
		C159.051,113.818,159.328,114.517,159.328,115.242z M141.73,127.725c-0.113,0.011-0.221,0.017-0.32,0.018c-0.014,0-0.027,0-0.039,0
		c-0.268-0.002-0.521-0.039-0.885-0.107c-2.344-0.342-4.123-1.961-4.123-3.901l0,0c0-0.737,0.26-1.425,0.705-2.019
		c0.879-1.168,2.494-1.957,4.342-1.957c0.217,0,0.432,0.016,0.643,0.037v-0.037c1.848,0,3.461,0.789,4.34,1.957
		c0.445,0.594,0.707,1.281,0.707,2.019l0,0c0,1.94-1.779,3.56-4.123,3.901c-0.363,0.068-0.617,0.105-0.885,0.107
		c-0.014,0-0.025,0-0.039,0v-0.06C141.934,127.701,141.83,127.713,141.73,127.725z M129.377,113.076
		c0.57,0.57,0.895,1.362,0.895,2.168c0,0.809-0.324,1.602-0.895,2.172c-0.572,0.571-1.363,0.896-2.174,0.896l0,0l0,0
		c-0.803,0-1.596-0.325-2.166-0.896c-0.572-0.57-0.902-1.363-0.902-2.172c0-0.728,0.277-1.426,0.742-1.976
		c-2.215,0.864-3.748,1.89-3.797,1.924c-0.531,0.365-1.137,0.54-1.736,0.54l0,0l0,0c-0.975,0-1.932-0.463-2.527-1.325
		c-0.965-1.396-0.613-3.307,0.781-4.271c0.277-0.191,5.891-4.006,12.541-4.184c1.232-0.033,2.5,0.059,3.775,0.32
		c1.662,0.343,2.729,1.966,2.389,3.626c-0.258,1.245-1.234,2.155-2.408,2.39c-0.391,0.08-0.805,0.082-1.221-0.002
		c-0.824-0.17-1.654-0.223-2.475-0.193c-0.705,0.025-1.404,0.107-2.08,0.234C128.588,112.479,129.025,112.725,129.377,113.076z
		 M91.627,201.758l-3.227-3.965c-4.104-5.041-6.102-10.471-5.936-16.135c0.346-11.797,9.666-22.049,15.189-27.109l1.922-1.76
		l1.227,2.301c0.869,1.633,1.85,3.287,2.916,4.914l0.791,1.209l-0.889,1.141c-3.053,3.908-10.301,15.078-11.639,34.307
		L91.627,201.758z M106.012,262.268c-0.559,0.01-5.391,0.297-7.928,7.563c-0.082,0.229-0.158,0.465-0.234,0.707l-1.93-0.598
		c2.072-6.691,5.986-8.766,8.295-9.406c0,0,0,0,0.002,0c0.904-0.252,1.563-0.283,1.77-0.285l0,0l0.027,1.008l0.113,1.004
		L106.012,262.268z M128.42,220.635c-19.896-2.502-29.793-10.262-32.393-12.619c-0.205-3.789-0.174-7.33,0.045-10.619
		c5.404,3.883,15.664,9.338,32.348,11.289V220.635L128.42,220.635z M148.902,221.207c-2.186,0.137-4.459,0.219-6.852,0.219l0,0
		v-0.006c-0.215,0.002-0.426,0.006-0.643,0.006c-2.393,0-4.666-0.082-6.85-0.219v-11.984c2.189,0.127,4.467,0.199,6.85,0.199
		c0.217,0,0.428-0.004,0.643-0.006v0.006c2.383,0,4.662-0.072,6.852-0.199V221.207z M142.076,201.049L142.076,201.049
		c-0.346,0.305-0.338,0.311-0.346,0.305c-0.238,0.174,0.129-0.113-0.074,0.031c-5.623-3.986-24.982-19.092-34.482-41.787
		l-0.041-0.096l-0.059-0.086c-1.518-2.211-2.865-4.467-4.002-6.701c-4.979-9.779-3.529-19.58-2.221-24.551
		c2.129-8.097,6.242-13.58,9.461-15.158l1.35,2.199c-0.676,3.483-2.012,12.217,0.127,18.067l0.074,0.203l0.148,0.153
		c1.346,1.385,3.129,2.127,5.301,2.205l0.07,0.002l0,0c0.289,0,0.553-0.053,0.805-0.158c0.047-0.02,5.164-2.072,13.492-2.762
		l0.463-0.07c0.387-0.061,0.846-0.133,1.32-0.204l0.178-0.026c0.193-0.029,0.379-0.058,0.566-0.084
		c0.691-0.098,1.383-0.186,2.074-0.262c0.309-0.025,0.537-0.051,0.697-0.072l0.033-0.004c0.926-0.09,1.822-0.146,2.67-0.169
		c0.48-0.002,1.037-0.003,1.727-0.003c0.178,0,0.344-0.001,0.5-0.004h0.131c0.004,0,0.008,0,0.012,0v0.004l0,0
		c0.689,0,1.246,0.001,1.729,0.003c0.848,0.022,1.746,0.079,2.672,0.169l0.031,0.004c0.162,0.021,0.389,0.047,0.699,0.072
		c0.689,0.076,1.381,0.164,2.072,0.262c0.188,0.026,0.373,0.055,0.566,0.084l0.178,0.026c0.475,0.071,0.934,0.144,1.32,0.204
		l0.463,0.07c8.328,0.688,13.443,2.742,13.49,2.762c0.254,0.105,0.518,0.158,0.807,0.158l0,0l0.068-0.002
		c2.172-0.078,3.955-0.82,5.301-2.205l0.15-0.153l0.074-0.203c2.141-5.853,0.801-14.584,0.127-18.067l1.348-2.199
		c3.221,1.578,7.334,7.063,9.463,15.158c1.309,4.971,2.758,14.771-2.221,24.551c-1.139,2.234-2.484,4.49-4.004,6.701l-0.059,0.086
		l-0.039,0.096C166.787,182.293,147.699,197.063,142.076,201.049z M187.541,269.941l-1.93,0.598
		c-0.074-0.242-0.152-0.479-0.232-0.707c-2.539-7.268-7.371-7.555-7.93-7.564l-0.115-0.006l0.113-1.006l0.025-1.008h0.002
		c0.205,0.004,0.863,0.035,1.77,0.285h0.002C181.555,261.174,185.469,263.248,187.541,269.941z M187.434,208.016
		c-2.6,2.357-12.496,10.117-32.393,12.619v-11.949c16.684-1.951,26.941-7.406,32.346-11.289
		C187.605,200.686,187.637,204.227,187.434,208.016z M191.479,196.66c-1.338-19.229-8.584-30.396-11.639-34.307l-0.891-1.141
		l0.793-1.209c1.064-1.627,2.047-3.281,2.916-4.914l1.225-2.301l1.922,1.76c5.525,5.063,14.846,15.314,15.189,27.109
		c0.168,5.664-1.83,11.094-5.936,16.135l-3.227,3.965L191.479,196.66z"/>
	<path d="M141.402,93.43c0.127-0.002,0.322-0.006,0.578-0.006c0.023,0,0.049,0,0.07,0v0.006c0.002,0,0.006,0,0.008,0
		c0.123-0.002,0.305-0.004,0.541-0.004c3.316,0,13.654,0.396,23.736,4.848c-4-17.797-12.361-50.689-24.285-75.71l0,0v1.364
		c-0.213-0.457-0.428-0.912-0.643-1.364c-11.926,25.021-20.287,57.913-24.287,75.71c10.082-4.452,20.42-4.848,23.734-4.848
		C141.096,93.426,141.279,93.428,141.402,93.43z"/>
	<path d="M157.061,210.467v7.85c16.5-2.506,25.322-8.67,28.398-11.258c0.09-2.031,0.113-4.043,0.068-6.01
		C179.563,204.693,170.365,208.67,157.061,210.467z"/>
	<path d="M198.977,181.717c-0.33-11.232-9.67-21.221-14.535-25.678c-0.93,1.746-1.938,3.436-3.01,5.07
		c3.316,4.246,10.693,15.762,12.063,35.408C197.283,191.863,199.129,186.906,198.977,181.717z"/>
	<path d="M126.4,218.316v-7.85c-13.303-1.797-22.502-5.773-28.467-9.418c-0.045,1.967-0.021,3.979,0.068,6.01
		C101.078,209.646,109.9,215.811,126.4,218.316z"/>
	<path d="M84.484,181.717c-0.152,5.189,1.693,10.146,5.482,14.803c1.367-19.648,8.746-31.162,12.063-35.408
		c-1.07-1.637-2.08-3.326-3.01-5.072C94.154,160.496,84.813,170.484,84.484,181.717z"/>
</g>
</svg>
