<?xml version="1.0" encoding="utf-8"?>
<!-- Generator: Adobe Illustrator 15.1.0, SVG Export Plug-In . SVG Version: 6.00 Build 0)  -->
<!DOCTYPE svg PUBLIC "-//W3C//DTD SVG 1.0//EN" "http://www.w3.org/TR/2001/REC-SVG-20010904/DTD/svg10.dtd">
<svg version="1.0" id="Layer_1" xmlns="http://www.w3.org/2000/svg" xmlns:xlink="http://www.w3.org/1999/xlink" x="0px" y="0px"
	 width="283.46px" height="283.46px" viewBox="0 0 283.46 283.46" enable-background="new 0 0 283.46 283.46" xml:space="preserve">
<g>
	<path d="M210.73,186.891l4.064-50.762l-73.066,32.808l-72.299-31.831l5.337,49.785c0.08,0.746,0.739,1.502,1.806,2.075
		c1.184,0.639,2.711,0.99,4.308,0.99h123.821c1.594,0,3.113-0.353,4.279-0.99C210.031,188.394,210.669,187.637,210.73,186.891z"/>
	<path d="M69.084,130.398l72.619,31.973l105.259-47.264L142.214,59.065L36.499,116.051l19.965,8.79
		c-0.661,1.848-1.275,3.768-1.858,5.738c-0.11,0.374-0.229,0.735-0.337,1.113c-1.404,4.923-2.586,10.207-3.601,15.813
		c-0.07,0.387-0.134,0.788-0.202,1.178c-3.515,2.244-6.228,7.057-6.929,13.249c-0.646,6.186,0.668,12.286,3.162,16.503
		c-0.191,2.063-0.377,4.141-0.556,6.251c-0.568,6.735-1.421,13.437-1.934,20.616c-0.513,7.178-4.885,14.953-5.451,22.496
		c0.477-0.084,5.162-0.256,5.652-0.288c0.49-0.028,0.986-0.031,1.487-0.025c0.499,0.009,1.003,0.032,1.508,0.062
		c0.508,0.031,1.016,0.064,1.521,0.097c0.509,0.032,1.016,0.06,1.521,0.075c0.506,0.021,1.011,0.025,1.51,0.015
		c0.499-0.015,0.993-0.045,1.481-0.106c0.49-0.061,6.564,0.269,7.04,0.146c0.576-5.83-3.085-11.267-3.254-17.213
		c-0.442-5.255-0.56-11.095,0.032-16.879c0.201-3.607,0.401-7.133,0.617-10.582c3.634-1.972,6.69-7.037,7.824-13.728
		c1.338-7.496-0.411-14.864-4.105-18.908c0.815-3.879,1.802-7.515,3.019-10.853c0.496-1.357,1.042-2.652,1.618-3.913
		C67.086,133.82,68.029,132.045,69.084,130.398z"/>
</g>
</svg>
