<?xml version="1.0" encoding="utf-8"?>
<!-- Generator: Adobe Illustrator 15.1.0, SVG Export Plug-In . SVG Version: 6.00 Build 0)  -->
<!DOCTYPE svg PUBLIC "-//W3C//DTD SVG 1.1//EN" "http://www.w3.org/Graphics/SVG/1.1/DTD/svg11.dtd">
<svg version="1.1" id="Layer_1" xmlns="http://www.w3.org/2000/svg" xmlns:xlink="http://www.w3.org/1999/xlink" x="0px" y="0px"
	 width="283.465px" height="283.465px" viewBox="0 0 283.465 283.465" enable-background="new 0 0 283.465 283.465"
	 xml:space="preserve">
<title>ic_fluent_text_grammar_options_24_filled</title>
<desc>Created with Sketch.</desc>
<g id="_xD83D__xDD0D_-System-Icons">
	<g id="ic_fluent_text_grammar_options_24_filled">
		<path id="_xD83C__xDFA8_-Color" fill="#212121" d="M165.703,178.333c3.943,3.932,3.943,10.335,0,14.28l-60.592,60.59
			c-3.943,3.945-10.335,3.945-14.279,0c-3.944-3.944-3.944-10.348,0-14.279l60.59-60.591
			C155.368,174.388,161.758,174.388,165.703,178.333z M121.823,188.879l-26.929,26.93H20.551c-7.437,0-13.464-6.022-13.464-13.466
			c0-6.901,5.2-12.597,11.893-13.372l1.571-0.092H121.823L121.823,188.879z M202.322,67.697c5.103,0,9.401,3.8,10.021,8.863
			l1.867,15.213c2.459,19.927,18.172,35.634,38.093,38.092l15.213,1.867c5.063,0.618,8.862,4.918,8.862,10.02
			c0,5.103-3.801,9.401-8.862,10.021l-15.213,1.866c-19.921,2.459-35.634,18.173-38.093,38.094l-1.868,15.213
			c-0.618,5.063-4.918,8.861-10.021,8.861s-9.4-3.8-10.02-8.861l-1.867-15.213c-2.459-19.921-18.172-35.635-38.093-38.094
			l-15.212-1.866c-5.063-0.618-8.862-4.918-8.862-10.021c0-5.102,3.8-9.402,8.862-10.02l15.213-1.867
			c19.921-2.458,35.634-18.165,38.093-38.092l1.867-15.213C192.921,71.497,197.22,67.697,202.322,67.697z M115.781,135.02
			c-0.638,2.13-0.979,4.392-0.979,6.732c0,7.784,3.807,14.779,9.75,19.092l1.67,1.104H20.551c-7.437,0-13.464-6.021-13.464-13.464
			c0-6.364,4.431-11.716,10.375-13.11l1.519-0.263l1.571-0.092L115.781,135.02L115.781,135.02z M155.196,81.162
			c7.442,0,13.465,6.029,13.465,13.464c0,6.903-5.207,12.597-11.888,13.373l-1.577,0.092H20.551
			c-7.437,0-13.464-6.029-13.464-13.465c0-6.903,5.2-12.597,11.893-13.373l1.571-0.092L155.196,81.162L155.196,81.162z
			 M262.913,27.303c7.441,0,13.465,6.029,13.465,13.465c0,6.371-4.432,11.715-10.374,13.109l-1.514,0.263l-1.577,0.092H20.551
			c-7.437,0-13.464-6.029-13.464-13.464c0-6.371,4.431-11.716,10.375-13.11l1.519-0.263l1.571-0.092H262.913z"/>
	</g>
</g>
</svg>
