<?xml version="1.0" encoding="utf-8"?>
<!-- Generator: Adobe Illustrator 15.1.0, SVG Export Plug-In . SVG Version: 6.00 Build 0)  -->
<!DOCTYPE svg PUBLIC "-//W3C//DTD SVG 1.1//EN" "http://www.w3.org/Graphics/SVG/1.1/DTD/svg11.dtd">
<svg version="1.1" id="Layer_2" xmlns="http://www.w3.org/2000/svg" xmlns:xlink="http://www.w3.org/1999/xlink" x="0px" y="0px"
	 width="283.465px" height="283.465px" viewBox="0 0 283.465 283.465" enable-background="new 0 0 283.465 283.465"
	 xml:space="preserve">
<title>1185</title>
<g>
	<path d="M249.74,223.502c-14.697,0-26.617,11.744-26.617,26.249s11.92,26.248,26.617,26.248c14.716,0,26.638-11.743,26.638-26.248
		S264.456,223.502,249.74,223.502z"/>
	<path d="M249.74,151.49c-14.697,0-26.617,11.744-26.617,26.248c0,14.506,11.92,26.248,26.617,26.248
		c14.716,0,26.638-11.742,26.638-26.248C276.378,163.234,264.456,151.49,249.74,151.49z"/>
	<path d="M177.729,223.502c-14.696,0-26.617,11.744-26.617,26.249s11.921,26.248,26.617,26.248
		c14.717,0,26.635-11.743,26.635-26.248S192.445,223.502,177.729,223.502z"/>
	<path d="M105.727,223.502c-14.707,0-26.626,11.744-26.626,26.249s11.92,26.248,26.626,26.248c14.706,0,26.626-11.743,26.626-26.248
		S120.433,223.502,105.727,223.502z"/>
	<path d="M177.729,151.49c-14.696,0-26.617,11.744-26.617,26.248c0,14.506,11.921,26.248,26.617,26.248
		c14.717,0,26.635-11.742,26.635-26.248C204.363,163.234,192.445,151.49,177.729,151.49z"/>
	<path d="M249.74,79.479c-14.697,0-26.617,11.753-26.617,26.249c0,14.495,11.92,26.248,26.617,26.248
		c14.716,0,26.638-11.753,26.638-26.248C276.378,91.23,264.456,79.479,249.74,79.479z"/>
	<path d="M249.74,59.963c14.716,0,26.638-11.753,26.638-26.249c0-14.495-11.922-26.249-26.638-26.249
		c-14.697,0-26.617,11.754-26.617,26.249C223.123,48.21,235.043,59.963,249.74,59.963z"/>
	<path d="M177.729,79.479c-14.696,0-26.617,11.753-26.617,26.249c0,14.495,11.921,26.248,26.617,26.248
		c14.717,0,26.635-11.753,26.635-26.248C204.363,91.23,192.445,79.479,177.729,79.479z"/>
	<path d="M105.727,151.49c-14.707,0-26.626,11.744-26.626,26.248c0,14.506,11.92,26.248,26.626,26.248
		c14.706,0,26.626-11.742,26.626-26.248C132.353,163.234,120.433,151.49,105.727,151.49z"/>
	<path d="M33.713,223.502c-14.707,0-26.626,11.744-26.626,26.249s11.92,26.248,26.626,26.248c14.706,0,26.626-11.743,26.626-26.248
		S48.419,223.502,33.713,223.502z"/>
</g>
</svg>
