<?xml version="1.0" encoding="utf-8"?>
<!-- Generator: Adobe Illustrator 15.1.0, SVG Export Plug-In . SVG Version: 6.00 Build 0)  -->
<!DOCTYPE svg PUBLIC "-//W3C//DTD SVG 1.1//EN" "http://www.w3.org/Graphics/SVG/1.1/DTD/svg11.dtd">
<svg version="1.1" id="Layer_2" xmlns="http://www.w3.org/2000/svg" xmlns:xlink="http://www.w3.org/1999/xlink" x="0px" y="0px"
	 width="283.465px" height="283.465px" viewBox="0 0 283.465 283.465" enable-background="new 0 0 283.465 283.465"
	 xml:space="preserve">
<title>1185</title>
<g>
	<path d="M249.741,223.503c-14.697,0-26.617,11.744-26.617,26.249S235.044,276,249.741,276c14.716,0,26.638-11.743,26.638-26.248
		S264.457,223.503,249.741,223.503z"/>
	<path d="M249.741,151.49c-14.697,0-26.617,11.744-26.617,26.248c0,14.506,11.92,26.249,26.617,26.249
		c14.716,0,26.638-11.743,26.638-26.249C276.379,163.234,264.457,151.49,249.741,151.49z"/>
	<path d="M177.729,223.503c-14.697,0-26.618,11.744-26.618,26.249S163.032,276,177.729,276c14.716,0,26.635-11.743,26.635-26.248
		S192.445,223.503,177.729,223.503z"/>
	<path d="M105.727,223.503c-14.707,0-26.627,11.744-26.627,26.249S91.02,276,105.727,276c14.706,0,26.626-11.743,26.626-26.248
		S120.433,223.503,105.727,223.503z"/>
	<path d="M177.729,151.49c-14.697,0-26.618,11.744-26.618,26.248c0,14.506,11.921,26.249,26.618,26.249
		c14.716,0,26.635-11.743,26.635-26.249C204.364,163.234,192.445,151.49,177.729,151.49z"/>
	<path d="M249.741,79.478c-14.697,0-26.617,11.753-26.617,26.249c0,14.495,11.92,26.248,26.617,26.248
		c14.716,0,26.638-11.753,26.638-26.248C276.379,91.23,264.457,79.478,249.741,79.478z"/>
	<path d="M249.741,59.963c14.716,0,26.638-11.753,26.638-26.249S264.457,7.465,249.741,7.465c-14.697,0-26.617,11.754-26.617,26.249
		C223.124,48.21,235.044,59.963,249.741,59.963z"/>
	<path d="M177.729,79.478c-14.697,0-26.618,11.753-26.618,26.249c0,14.495,11.921,26.248,26.618,26.248
		c14.716,0,26.635-11.753,26.635-26.248C204.364,91.23,192.445,79.478,177.729,79.478z"/>
	<path d="M105.727,151.49c-14.707,0-26.627,11.744-26.627,26.248c0,14.506,11.92,26.249,26.627,26.249
		c14.706,0,26.626-11.743,26.626-26.249C132.353,163.234,120.433,151.49,105.727,151.49z"/>
	<path d="M33.713,223.503c-14.707,0-26.627,11.744-26.627,26.249S19.006,276,33.713,276c14.706,0,26.626-11.743,26.626-26.248
		S48.419,223.503,33.713,223.503z"/>
</g>
</svg>
