<?xml version="1.0" encoding="utf-8"?>
<!-- Generator: Adobe Illustrator 15.1.0, SVG Export Plug-In . SVG Version: 6.00 Build 0)  -->
<!DOCTYPE svg PUBLIC "-//W3C//DTD SVG 1.1//EN" "http://www.w3.org/Graphics/SVG/1.1/DTD/svg11.dtd">
<svg version="1.1" id="Layer_9" xmlns="http://www.w3.org/2000/svg" xmlns:xlink="http://www.w3.org/1999/xlink" x="0px" y="0px"
	 width="283.46px" height="283.46px" viewBox="0 0 283.46 283.46" enable-background="new 0 0 283.46 283.46" xml:space="preserve">
<g>
	<path d="M255.457,75.144c-13.491-13.491-31.401-20.921-50.432-20.921H78.439c-39.345,0-71.354,32.009-71.354,71.353v95.787
		c0,4.343,3.533,7.875,7.875,7.875h253.542c4.342,0,7.874-3.532,7.874-7.875v-95.787C276.376,106.545,268.948,88.635,255.457,75.144
		z M268.984,221.363c0,0.267-0.216,0.483-0.482,0.483H14.959c-0.267,0-0.483-0.217-0.483-0.483v-95.787
		c0-35.269,28.694-63.961,63.963-63.961h126.586c17.056,0,33.109,6.661,45.204,18.756c12.096,12.096,18.756,28.148,18.755,45.205
		V221.363z"/>
	<path fill="#231F20" d="M78.439,66.275c-31.293,0-56.998,24.366-59.15,55.123h118.263h0.038
		C135.436,90.641,109.732,66.275,78.439,66.275z"/>
	<rect x="19.289" y="129.754" fill="#231F20" width="28.312" height="87.429"/>
	<polygon fill="#231F20" points="109.24,217.183 137.55,217.183 137.551,217.183 137.551,129.754 109.24,129.754 	"/>
	<polygon fill="#231F20" points="145.954,130.686 146.096,217.183 172.16,217.183 172.16,129.754 145.954,129.754 	"/>
	<polygon fill="#231F20" points="180.731,129.754 180.73,129.754 180.73,217.183 203.588,217.183 203.588,129.754 181.399,129.754 	
		"/>
	<path fill="#231F20" d="M146.307,66.275h-35.322c19.632,10.817,33.345,31.095,34.952,54.647l0.01,0.476h30.833h27.015
		C201.679,91.176,176.848,67.136,146.307,66.275z"/>
	<rect x="212.829" y="129.754" fill="#231F20" width="22.188" height="87.429"/>
	<path fill="#231F20" d="M205.025,66.275h-27.872c19.762,10.889,33.522,31.366,34.979,55.123h22.886h29.156
		C262.02,90.641,236.316,66.275,205.025,66.275z"/>
	<rect x="244.256" y="129.754" fill="#231F20" width="20.066" height="87.429"/>
	<path fill="#231F20" d="M90.526,129.754h-2.499H68.85h-2.498c-5.146,0-9.318,3.31-9.318,7.392v72.646
		c0,4.082,4.172,7.392,9.318,7.392h2.498h19.177h2.499c5.146,0,9.317-3.31,9.317-7.392v-72.646
		C99.843,133.064,95.672,129.754,90.526,129.754z"/>
</g>
</svg>
