<?xml version="1.0" encoding="utf-8"?>
<!-- Generator: Adobe Illustrator 15.1.0, SVG Export Plug-In . SVG Version: 6.00 Build 0)  -->
<!DOCTYPE svg PUBLIC "-//W3C//DTD SVG 1.1//EN" "http://www.w3.org/Graphics/SVG/1.1/DTD/svg11.dtd">
<svg version="1.1" id="Layer_4" xmlns="http://www.w3.org/2000/svg" xmlns:xlink="http://www.w3.org/1999/xlink" x="0px" y="0px"
	 width="283.46px" height="283.46px" viewBox="0 0 283.46 283.46" enable-background="new 0 0 283.46 283.46" xml:space="preserve">
<g>
	<rect x="16.094" y="146.236" fill="none" width="56.061" height="56.061"/>
	<rect x="81.165" y="146.236" fill="none" width="56.061" height="56.061"/>
	<rect x="81.165" y="81.165" fill="none" width="56.061" height="56.061"/>
	<rect x="146.235" y="146.236" fill="none" width="56.061" height="56.061"/>
	<rect x="146.235" y="81.165" fill="none" width="56.061" height="56.061"/>
	<rect x="211.305" y="16.092" fill="none" width="56.061" height="56.061"/>
	<rect x="211.305" y="146.236" fill="none" width="56.061" height="56.061"/>
	<rect x="211.305" y="81.165" fill="none" width="56.061" height="56.061"/>
	<rect x="16.094" y="81.165" fill="none" width="56.061" height="56.061"/>
	<rect x="211.305" y="211.307" fill="none" width="56.061" height="56.061"/>
	<rect x="146.235" y="211.307" fill="none" width="56.061" height="56.061"/>
	<rect x="81.165" y="211.307" fill="none" width="56.061" height="56.061"/>
	<rect x="146.235" y="16.092" fill="none" width="56.061" height="56.061"/>
	<rect x="16.094" y="211.307" fill="none" width="56.061" height="56.061"/>
	<rect x="81.165" y="16.092" fill="none" width="56.061" height="56.061"/>
	<rect x="16.094" y="16.092" fill="none" width="56.061" height="56.061"/>
	<path d="M211.305,7.083h-9.01h-56.061h-9.01H81.165h-9.01H7.084v65.072v9.008v56.063v9.009v56.063v9.009v65.071h65.07h9.01h56.061
		h9.01h56.061h9.01h65.07v-65.071v-9.009v-56.063v-9.009V81.163v-9.008V7.083H211.305z M211.305,16.092h56.061v56.061h-56.061
		V16.092z M211.305,81.165h56.061v56.061h-56.061V81.165z M211.305,146.236h56.061v56.061h-56.061V146.236z M72.155,202.296H16.094
		v-56.061h56.061V202.296z M72.155,137.225H16.094V81.165h56.061V137.225z M137.225,202.296H81.165v-56.061h56.061V202.296z
		 M137.225,137.225H81.165V81.165h56.061V137.225z M146.235,146.236h56.061v56.061h-56.061V146.236z M146.235,81.165h56.061v56.061
		h-56.061V81.165z M146.235,16.092h56.061v56.061h-56.061V16.092z M81.165,16.092h56.061v56.061H81.165V16.092z M16.094,16.092
		h56.061v56.061H16.094V16.092z M72.155,267.368H16.094v-56.061h56.061V267.368z M137.225,267.368H81.165v-56.061h56.061V267.368z
		 M202.295,267.368h-56.061v-56.061h56.061V267.368z M267.366,267.368h-56.061v-56.061h56.061V267.368z"/>
</g>
</svg>
