<?xml version="1.0" encoding="utf-8"?>
<!-- Generator: Adobe Illustrator 15.1.0, SVG Export Plug-In . SVG Version: 6.00 Build 0)  -->
<!DOCTYPE svg PUBLIC "-//W3C//DTD SVG 1.1//EN" "http://www.w3.org/Graphics/SVG/1.1/DTD/svg11.dtd">
<svg version="1.1" id="Layer_4" xmlns="http://www.w3.org/2000/svg" xmlns:xlink="http://www.w3.org/1999/xlink" x="0px" y="0px"
	 width="283.46px" height="283.46px" viewBox="0 0 283.46 283.46" enable-background="new 0 0 283.46 283.46" xml:space="preserve">
<g>
	<path d="M75.685,274.686c0,0.931-0.758,1.689-1.69,1.689H7.775c-0.932,0-1.691-0.759-1.691-1.689v-66.22
		c0-0.931,0.759-1.69,1.691-1.69h66.219c0.932,0,1.69,0.76,1.69,1.69V274.686z"/>
	<path d="M75.685,174.837c0,0.933-0.758,1.692-1.69,1.692H7.775c-0.932,0-1.691-0.76-1.691-1.692V108.62
		c0-0.932,0.759-1.691,1.691-1.691h66.219c0.932,0,1.69,0.759,1.69,1.691V174.837z"/>
	<path d="M75.685,74.994c0,0.932-0.758,1.69-1.69,1.69H7.775c-0.932,0-1.691-0.758-1.691-1.69V8.775
		c0-0.932,0.759-1.691,1.691-1.691h66.219c0.932,0,1.69,0.759,1.69,1.691V74.994z"/>
	<path d="M175.53,274.686c0,0.931-0.76,1.689-1.69,1.689H107.62c-0.932,0-1.691-0.759-1.691-1.689v-66.22
		c0-0.931,0.759-1.69,1.691-1.69h66.219c0.931,0,1.69,0.76,1.69,1.69V274.686z"/>
	<path d="M175.53,174.837c0,0.933-0.76,1.692-1.69,1.692H107.62c-0.932,0-1.691-0.76-1.691-1.692V108.62
		c0-0.932,0.759-1.691,1.691-1.691h66.219c0.931,0,1.69,0.759,1.69,1.691V174.837z"/>
	<path d="M175.53,74.994c0,0.932-0.76,1.69-1.69,1.69H107.62c-0.932,0-1.691-0.758-1.691-1.69V8.775
		c0-0.932,0.759-1.691,1.691-1.691h66.219c0.931,0,1.69,0.759,1.69,1.691V74.994z"/>
	<path d="M275.375,274.686c0,0.931-0.759,1.689-1.689,1.689h-66.22c-0.931,0-1.69-0.759-1.69-1.689v-66.22
		c0-0.931,0.76-1.69,1.69-1.69h66.22c0.931,0,1.689,0.76,1.689,1.69V274.686z"/>
	<path d="M275.375,174.837c0,0.933-0.759,1.692-1.689,1.692h-66.22c-0.931,0-1.69-0.76-1.69-1.692V108.62
		c0-0.932,0.76-1.691,1.69-1.691h66.22c0.931,0,1.689,0.759,1.689,1.691V174.837z"/>
	<path d="M275.375,74.994c0,0.932-0.759,1.69-1.689,1.69h-66.22c-0.931,0-1.69-0.758-1.69-1.69V8.775c0-0.932,0.76-1.691,1.69-1.691
		h66.22c0.931,0,1.689,0.759,1.689,1.691V74.994z"/>
</g>
</svg>
