<?xml version="1.0" encoding="utf-8"?>
<!-- Generator: Adobe Illustrator 15.1.0, SVG Export Plug-In . SVG Version: 6.00 Build 0)  -->
<!DOCTYPE svg PUBLIC "-//W3C//DTD SVG 1.1//EN" "http://www.w3.org/Graphics/SVG/1.1/DTD/svg11.dtd">
<svg version="1.1" id="Layer_4" xmlns="http://www.w3.org/2000/svg" xmlns:xlink="http://www.w3.org/1999/xlink" x="0px" y="0px"
	 width="283.46px" height="283.46px" viewBox="0 0 283.46 283.46" enable-background="new 0 0 283.46 283.46" xml:space="preserve">
<g>
	<g>
		<path d="M118.078,118.463c0,0.932-0.759,1.69-1.69,1.69h-66.22c-0.932,0-1.69-0.759-1.69-1.69v-66.22
			c0-0.932,0.759-1.69,1.69-1.69h66.22c0.932,0,1.69,0.759,1.69,1.69V118.463z"/>
	</g>
	<g>
		<path d="M234.984,118.463c0,0.932-0.76,1.69-1.691,1.69h-66.219c-0.932,0-1.691-0.759-1.691-1.69v-66.22
			c0-0.932,0.76-1.69,1.691-1.69h66.219c0.932,0,1.691,0.759,1.691,1.69V118.463z"/>
	</g>
	<g>
		<path d="M118.078,231.216c0,0.932-0.759,1.691-1.69,1.691h-66.22c-0.932,0-1.69-0.76-1.69-1.691v-66.219
			c0-0.932,0.759-1.691,1.69-1.691h66.22c0.932,0,1.69,0.76,1.69,1.691V231.216z"/>
	</g>
	<g>
		<path d="M234.984,231.216c0,0.932-0.76,1.691-1.691,1.691h-66.219c-0.932,0-1.691-0.76-1.691-1.691v-66.219
			c0-0.932,0.76-1.691,1.691-1.691h66.219c0.932,0,1.691,0.76,1.691,1.691V231.216z"/>
	</g>
</g>
</svg>
