<?xml version="1.0" encoding="utf-8"?>
<!-- Generator: Adobe Illustrator 15.1.0, SVG Export Plug-In . SVG Version: 6.00 Build 0)  -->
<!DOCTYPE svg PUBLIC "-//W3C//DTD SVG 1.1//EN" "http://www.w3.org/Graphics/SVG/1.1/DTD/svg11.dtd">
<svg version="1.1" id="Layer_3" xmlns="http://www.w3.org/2000/svg" xmlns:xlink="http://www.w3.org/1999/xlink" x="0px" y="0px"
	 width="283.46px" height="283.46px" viewBox="0 0 283.46 283.46" enable-background="new 0 0 283.46 283.46" xml:space="preserve">
<g>
	<path fill="none" d="M240.396,13.044c0.191,0.222,0.379,0.449,0.563,0.68C240.775,13.493,240.587,13.266,240.396,13.044z"/>
	<path fill="none" d="M239.546,12.12c0.189,0.195,0.376,0.394,0.559,0.597C239.922,12.514,239.736,12.315,239.546,12.12z"/>
	<path fill="none" d="M241.187,14.006c0.255,0.329,0.505,0.665,0.745,1.009C241.692,14.67,241.442,14.335,241.187,14.006z"/>
	<path fill="none" d="M242.837,16.412c0.152,0.25,0.302,0.5,0.446,0.756C243.139,16.912,242.99,16.662,242.837,16.412z"/>
	<path fill="none" d="M243.504,17.564c0.137,0.25,0.27,0.501,0.399,0.755C243.774,18.065,243.641,17.814,243.504,17.564z"/>
	<path fill="none" d="M241.978,15.083c0.224,0.322,0.44,0.651,0.649,0.985C242.418,15.734,242.202,15.406,241.978,15.083z"/>
	<path fill="none" d="M238.606,11.214c0.216,0.194,0.429,0.393,0.638,0.598C239.035,11.607,238.822,11.408,238.606,11.214z"/>
	<path fill="none" d="M234.321,8.364c0.24,0.109,0.479,0.223,0.713,0.344C234.798,8.587,234.561,8.473,234.321,8.364z"/>
	<path fill="none" d="M233.094,7.873c0.287,0.1,0.572,0.206,0.852,0.324C233.667,8.079,233.381,7.972,233.094,7.873z"/>
	<path fill="none" d="M235.411,8.91c0.237,0.131,0.47,0.27,0.7,0.414C235.88,9.181,235.648,9.042,235.411,8.91z"/>
	<path fill="none" d="M237.413,10.214c0.319,0.243,0.631,0.499,0.936,0.765C238.043,10.713,237.732,10.457,237.413,10.214z"/>
	<path fill="none" d="M236.437,9.527c0.292,0.192,0.58,0.394,0.862,0.605C237.017,9.921,236.729,9.719,236.437,9.527z"/>
	<path fill="none" d="M244.645,19.871c0.172,0.39,0.337,0.783,0.493,1.178C244.982,20.653,244.817,20.26,244.645,19.871z"/>
	<path fill="none" d="M246.723,26.316c0.083,0.401,0.158,0.801,0.226,1.199C246.881,27.118,246.806,26.718,246.723,26.316z"/>
	<path fill="none" d="M246.999,27.837c0.045,0.29,0.088,0.579,0.125,0.866C247.086,28.416,247.043,28.127,246.999,27.837z"/>
	<path fill="none" d="M247.28,30.302c0.019,0.265,0.03,0.526,0.04,0.787C247.31,30.829,247.298,30.567,247.28,30.302z"/>
	<path fill="none" d="M247.17,29.115c0.03,0.259,0.055,0.516,0.076,0.772C247.225,29.631,247.201,29.374,247.17,29.115z"/>
	<path fill="none" d="M247.333,31.444c0.008,0.373,0.01,0.742,0.001,1.104C247.343,32.186,247.341,31.816,247.333,31.444z"/>
	<path fill="none" d="M67.382,96.816c0.265-0.241,0.531-0.483,0.797-0.718C67.913,96.333,67.647,96.575,67.382,96.816z"/>
	<path fill="none" d="M245.719,22.648c0.091,0.271,0.178,0.542,0.262,0.813C245.897,23.19,245.81,22.919,245.719,22.648z"/>
	<path fill="none" d="M231.675,7.454c0.392,0.091,0.776,0.2,1.155,0.323C232.452,7.654,232.067,7.545,231.675,7.454z"/>
	<path fill="none" d="M245.23,21.291c0.122,0.316,0.24,0.634,0.352,0.954C245.47,21.925,245.352,21.607,245.23,21.291z"/>
	<path fill="none" d="M246.11,23.891c0.08,0.274,0.155,0.548,0.228,0.822C246.265,24.439,246.19,24.165,246.11,23.891z"/>
	<path fill="none" d="M246.443,25.111c0.084,0.335,0.161,0.67,0.233,1.004C246.604,25.781,246.527,25.447,246.443,25.111z"/>
	<path fill="none" d="M244.102,18.711c0.141,0.287,0.276,0.577,0.409,0.868C244.378,19.288,244.243,18.999,244.102,18.711z"/>
	<path fill="none" d="M69.962,94.586c-0.022,0.019-0.046,0.038-0.068,0.057C69.916,94.624,69.939,94.605,69.962,94.586
		C69.962,94.587,69.962,94.586,69.962,94.586z"/>
	<path fill="none" d="M221.855,8.497c0.389-0.161,0.774-0.308,1.155-0.439C222.629,8.189,222.244,8.336,221.855,8.497z"/>
	<rect x="85.076" y="132.409" fill="none" width="0" height="0"/>
	<path fill="none" d="M223.261,7.967c0.452-0.149,0.897-0.276,1.338-0.386C224.159,7.691,223.713,7.818,223.261,7.967z"/>
	<path fill="none" d="M236.913,130.797c0.035,0.075,0.062,0.153,0.084,0.234C236.974,130.949,236.948,130.872,236.913,130.797z"/>
	<path fill="none" d="M236.718,130.485c0.05,0.063,0.097,0.128,0.137,0.198C236.814,130.614,236.768,130.548,236.718,130.485z"/>
	<path fill="none" d="M237.058,131.524c0.006-0.132-0.007-0.258-0.031-0.38C237.051,131.266,237.064,131.393,237.058,131.524z"/>
	<path fill="none" d="M236.404,130.182c0.088,0.063,0.169,0.135,0.243,0.215C236.573,130.317,236.492,130.244,236.404,130.182z"/>
	<path fill="none" d="M220.047,9.328c0.48-0.248,0.954-0.466,1.424-0.67C221.001,8.862,220.528,9.08,220.047,9.328z"/>
	<path fill="none" d="M235.737,129.918c0.081,0.012,0.159,0.031,0.236,0.056C235.896,129.949,235.818,129.93,235.737,129.918z"/>
	<path fill="none" d="M226.297,7.247c0.427-0.061,0.848-0.107,1.264-0.132C227.145,7.14,226.724,7.185,226.297,7.247z"/>
	<path fill="none" d="M236.079,130.007c0.108,0.043,0.212,0.095,0.308,0.16C236.291,130.102,236.187,130.05,236.079,130.007z"/>
	<path fill="none" d="M66.979,97.181c-0.167,0.154-0.334,0.313-0.501,0.469c0,0,0,0,0,0.001
		C66.645,97.494,66.812,97.334,66.979,97.181z"/>
	<path fill="none" d="M68.657,95.685c0.242-0.21,0.484-0.42,0.727-0.624C69.141,95.265,68.899,95.475,68.657,95.685z"/>
	<path fill="none" d="M228.463,7.084c-0.23,0-0.463,0.012-0.696,0.023c0.34-0.017,0.676-0.018,1.009-0.011
		C228.671,7.094,228.569,7.084,228.463,7.084z"/>
	<path fill="none" d="M229.233,7.115c0.278,0.015,0.554,0.039,0.826,0.069C229.787,7.153,229.511,7.129,229.233,7.115z"/>
	<path fill="none" d="M235.513,129.895c-0.05,0-0.102,0.011-0.152,0.016c0.085-0.008,0.168-0.011,0.25-0.005
		C235.578,129.902,235.546,129.895,235.513,129.895z"/>
	<path fill="none" d="M230.48,7.233c0.312,0.045,0.619,0.103,0.923,0.167C231.099,7.336,230.792,7.278,230.48,7.233z"/>
	<path fill="none" d="M234.881,130.031c0.12-0.054,0.243-0.086,0.364-0.108C235.125,129.945,235.001,129.977,234.881,130.031z"/>
	<path fill="none" d="M224.924,7.507c0.354-0.082,0.704-0.15,1.05-0.208C225.628,7.356,225.278,7.425,224.924,7.507z"/>
	<path fill="#231F20" d="M117.708,134.353l-0.586-2.68c-0.082,1.063-0.187,2.123-0.338,3.17
		C117.096,134.689,117.404,134.526,117.708,134.353z"/>
	<path fill="#231F20" d="M111.401,105.495l-0.518-2.37c-2.701-12.366,3.425-20.182,7.897-25.89c0.549-0.701,1.084-1.383,1.586-2.052
		c0.182-0.242,0.334-0.479,0.465-0.722c0.645-1.211,0.467-2.362,0.204-3.111c-0.502-1.433-1.726-2.688-3.273-3.355
		c-0.564-0.244-1.088-0.555-1.566-0.919c-0.029-0.01-0.056-0.026-0.085-0.037c-0.316-0.117-0.623-0.254-0.917-0.414
		c-0.051-0.027-0.1-0.057-0.15-0.086c-0.3-0.173-0.592-0.362-0.864-0.577c-0.015-0.012-0.028-0.025-0.043-0.037
		c-0.266-0.213-0.513-0.449-0.745-0.699c-0.033-0.035-0.067-0.068-0.099-0.103c-0.226-0.253-0.43-0.526-0.618-0.813
		c-0.036-0.055-0.071-0.109-0.105-0.165c-0.179-0.291-0.339-0.595-0.476-0.916c-0.021-0.051-0.04-0.104-0.06-0.156
		c-0.135-0.341-0.252-0.693-0.333-1.062l-0.487-2.221c-0.815-3.728,1.572-7.452,5.301-8.267l33.792-7.383
		c0.24-0.053,0.48-0.091,0.72-0.118c0.077-0.008,0.153-0.008,0.229-0.014c0.164-0.013,0.325-0.025,0.486-0.026
		c0.012,0,0.025-0.002,0.037-0.002c0.024,0,0.047,0.006,0.07,0.006c0.349,0.004,0.691,0.034,1.03,0.089
		c0.037,0.006,0.074,0.009,0.111,0.016c0.34,0.061,0.672,0.151,0.996,0.262c0.06,0.02,0.119,0.039,0.177,0.061
		c0.316,0.116,0.621,0.254,0.916,0.413c0.052,0.028,0.102,0.058,0.152,0.087c0.3,0.172,0.59,0.361,0.861,0.575
		c0.017,0.013,0.03,0.026,0.045,0.039c0.266,0.213,0.512,0.448,0.744,0.698c0.032,0.035,0.066,0.067,0.1,0.104
		c0.225,0.253,0.429,0.526,0.617,0.813c0.035,0.054,0.07,0.108,0.104,0.164c0.18,0.292,0.339,0.597,0.476,0.917
		c0.021,0.051,0.04,0.104,0.061,0.155c0.135,0.341,0.251,0.693,0.332,1.063l0.487,2.22c0.519,2.375-0.263,4.74-1.856,6.36
		c-0.271,0.537-0.604,1.044-1.003,1.507c-1.131,1.311-1.643,3.049-1.368,4.651c0.153,0.899,0.626,2.135,2,2.936
		c0.043,0.023,0.09,0.05,0.136,0.077c0.699,0.385,1.468,0.789,2.259,1.205c4.356,2.291,9.521,5.019,13.316,10.177
		c1.888-3.934,3.851-7.807,5.876-11.627c0.089-2.281,0.142-3.899,0.156-4.641c0.206-10.537-6.484-19.526-15.852-22.813
		c-0.657-9.569-8.611-17.134-18.348-17.134c-0.028,0-0.054,0.005-0.083,0.005c0.172-1.449,0.074-2.981-0.393-4.578
		c-1.316-4.49-5.266-7.938-9.913-8.493c-3.812-0.452-7.31,0.914-9.761,3.335c-2.333-2.107-5.389-3.424-8.778-3.424
		c-7.265,0-13.15,5.89-13.15,13.15c0,0.024,0.005,0.044,0.005,0.069c-8.827,0.668-15.788,8.031-15.788,17.031
		c0,1.375,0.182,2.707,0.487,3.989c-10.507,0.437-18.898,9.072-18.898,19.688c0,3.596,0.978,6.956,2.658,9.859
		c-3.227,2.652-5.291,6.675-5.291,11.18c0,2.733,0.781,5.269,2.106,7.44c4.879-3.991,10.763-7.469,17.35-7.469
		C94.311,84.142,102.98,91.146,111.401,105.495z"/>
	<path fill="#231F20" d="M105.979,103.914c0.458,0.708,0.919,1.439,1.383,2.203C106.898,105.354,106.438,104.623,105.979,103.914z"
		/>
	<path fill="#231F20" d="M95.709,92.022c0.436,0.336,0.874,0.699,1.314,1.081C96.583,92.721,96.145,92.358,95.709,92.022z"/>
	<path fill="#231F20" d="M92.996,90.208c0.425,0.242,0.851,0.501,1.278,0.786C93.847,90.709,93.421,90.45,92.996,90.208z"/>
	<path fill="#231F20" d="M94.345,91.042c0.435,0.292,0.872,0.604,1.311,0.941C95.217,91.646,94.78,91.333,94.345,91.042z"/>
	<path fill="#231F20" d="M97.148,93.211c0.425,0.373,0.852,0.771,1.28,1.189C98,93.983,97.573,93.584,97.148,93.211z"/>
	<path fill="#231F20" d="M90.266,88.925c0.397,0.147,0.795,0.31,1.195,0.493C91.061,89.235,90.663,89.073,90.266,88.925z"/>
	<path fill="#231F20" d="M88.901,88.485c0.39,0.107,0.782,0.229,1.175,0.37C89.684,88.714,89.292,88.592,88.901,88.485z"/>
	<path fill="#231F20" d="M98.599,94.565c0.419,0.415,0.84,0.853,1.263,1.311C99.439,95.418,99.018,94.98,98.599,94.565z"/>
	<path fill="#231F20" d="M91.632,89.5c0.408,0.191,0.817,0.399,1.228,0.629C92.449,89.899,92.04,89.691,91.632,89.5z"/>
	<path fill="#231F20" d="M101.531,97.788c0.422,0.511,0.846,1.043,1.271,1.599C102.376,98.832,101.953,98.299,101.531,97.788z"/>
	<path fill="#231F20" d="M70.592,94.076c-0.21,0.167-0.42,0.339-0.63,0.51c0,0,0,0,0,0C70.172,94.416,70.382,94.243,70.592,94.076z"
		/>
	<path fill="#231F20" d="M160.456,140.246c-0.123,0.012-0.245,0.028-0.369,0.037c0.001,0,0.002,0,0.002,0
		c0.128-0.009,0.256-0.027,0.384-0.039C160.466,140.245,160.46,140.246,160.456,140.246z"/>
	<path fill="#231F20" d="M107.458,106.278c0.484,0.802,0.971,1.63,1.46,2.493C108.429,107.908,107.942,107.08,107.458,106.278z"/>
	<path fill="#231F20" d="M71.123,93.666c0.227-0.175,0.454-0.351,0.682-0.519C71.577,93.315,71.35,93.49,71.123,93.666z"/>
	<path fill="#231F20" d="M87.541,88.176c0.388,0.069,0.777,0.155,1.167,0.257C88.317,88.332,87.928,88.246,87.541,88.176z"/>
	<path fill="#231F20" d="M104.492,101.701c0.442,0.632,0.885,1.286,1.33,1.969C105.377,102.987,104.934,102.333,104.492,101.701z"/>
	<path fill="#231F20" d="M100.06,96.091c0.418,0.459,0.839,0.942,1.261,1.446C100.899,97.033,100.479,96.55,100.06,96.091z"/>
	<path fill="#231F20" d="M103.007,99.657c0.43,0.568,0.862,1.157,1.296,1.772C103.869,100.814,103.438,100.225,103.007,99.657z"/>
	<path fill="#231F20" d="M118.552,138.208c-0.863,0.428-1.748,0.79-2.65,1.088l0,0C116.804,138.998,117.689,138.637,118.552,138.208
		L118.552,138.208z"/>
	<path fill="#231F20" d="M74.806,91.132c0.225-0.135,0.449-0.267,0.674-0.394C75.255,90.865,75.03,90.997,74.806,91.132z"/>
	<path fill="#231F20" d="M73.575,91.909c0.225-0.148,0.449-0.295,0.674-0.437C74.023,91.614,73.799,91.76,73.575,91.909z"/>
	<path fill="#231F20" d="M77.28,89.804c0.228-0.107,0.455-0.208,0.683-0.306C77.735,89.596,77.507,89.697,77.28,89.804z"/>
	<path fill="#231F20" d="M76.041,90.429c0.225-0.121,0.451-0.238,0.676-0.352C76.492,90.191,76.266,90.308,76.041,90.429z"/>
	<path fill="#231F20" d="M72.348,92.754c0.226-0.162,0.451-0.322,0.677-0.478C72.799,92.432,72.574,92.592,72.348,92.754z"/>
	<path fill="#231F20" d="M86.186,87.998c0.389,0.033,0.78,0.083,1.171,0.148C86.966,88.081,86.575,88.031,86.186,87.998z"/>
	<path fill="#231F20" d="M84.93,87.942c-0.023,0-0.046,0.002-0.07,0.002c0.387-0.001,0.776,0.013,1.166,0.042
		C85.66,87.959,85.293,87.942,84.93,87.942z"/>
	<path fill="#231F20" d="M78.526,89.261c0.229-0.092,0.46-0.176,0.69-0.259C78.986,89.085,78.756,89.169,78.526,89.261z"/>
	<path fill="#231F20" d="M83.578,88.006c0.264-0.024,0.529-0.032,0.794-0.042C84.106,87.975,83.841,87.982,83.578,88.006z"/>
	<path fill="#231F20" d="M82.303,88.174c0.248-0.043,0.497-0.072,0.746-0.103C82.8,88.102,82.551,88.131,82.303,88.174z"/>
	<path fill="#231F20" d="M81.038,88.441c0.238-0.06,0.479-0.108,0.718-0.158C81.516,88.333,81.276,88.382,81.038,88.441z"/>
	<path fill="#231F20" d="M79.778,88.806c0.233-0.076,0.468-0.144,0.702-0.21C80.246,88.662,80.011,88.73,79.778,88.806z"/>
	<path fill="#231F20" d="M158.575,49.442c-0.081-0.37-0.197-0.722-0.332-1.063C158.377,48.72,158.494,49.073,158.575,49.442z"/>
	<path fill="#231F20" d="M157.602,47.143c-0.188-0.287-0.393-0.56-0.617-0.813C157.209,46.583,157.414,46.857,157.602,47.143z"/>
	<path fill="#231F20" d="M158.182,48.224c-0.137-0.32-0.296-0.625-0.476-0.917C157.885,47.598,158.046,47.903,158.182,48.224z"/>
	<path fill="#231F20" d="M115.194,66.625c0.295,0.16,0.602,0.297,0.917,0.414C115.796,66.923,115.489,66.786,115.194,66.625z"/>
	<path fill="#231F20" d="M114.181,65.963c0.272,0.215,0.563,0.404,0.864,0.577C114.744,66.367,114.452,66.178,114.181,65.963z"/>
	<path fill="#231F20" d="M112.676,64.312c0.188,0.286,0.392,0.559,0.618,0.813C113.068,64.871,112.864,64.598,112.676,64.312z"/>
	<path fill="#231F20" d="M151.258,44.01c0.164-0.012,0.326-0.025,0.486-0.026C151.583,43.984,151.422,43.997,151.258,44.01z"/>
	<path fill="#231F20" d="M114.138,65.926c-0.265-0.213-0.513-0.449-0.745-0.699C113.625,65.478,113.872,65.713,114.138,65.926z"/>
	<path fill="#231F20" d="M156.141,45.529c0.266,0.213,0.512,0.448,0.744,0.698C156.653,45.977,156.407,45.742,156.141,45.529z"/>
	<path fill="#231F20" d="M151.029,44.024c-0.239,0.026-0.479,0.065-0.72,0.118C150.549,44.089,150.79,44.05,151.029,44.024z"/>
	<path fill="#231F20" d="M152.882,44.077c-0.339-0.055-0.682-0.085-1.03-0.089C152.2,43.992,152.543,44.022,152.882,44.077z"/>
	<path fill="#231F20" d="M111.703,62.012c0.081,0.369,0.197,0.721,0.333,1.062C111.9,62.733,111.783,62.381,111.703,62.012z"/>
	<path fill="#231F20" d="M112.095,63.23c0.136,0.321,0.296,0.625,0.476,0.916C112.392,63.856,112.231,63.551,112.095,63.23z"/>
	<path fill="#231F20" d="M153.99,44.354c-0.324-0.11-0.656-0.201-0.996-0.262C153.333,44.153,153.666,44.244,153.99,44.354z"/>
	<path fill="#231F20" d="M155.083,44.828c-0.295-0.159-0.6-0.297-0.916-0.413C154.483,44.531,154.789,44.668,155.083,44.828z"/>
	<path fill="#231F20" d="M156.096,45.49c-0.271-0.214-0.562-0.403-0.861-0.575C155.535,45.087,155.826,45.276,156.096,45.49z"/>
	<path fill="#231F20" d="M134.034,128.604c4.397,0,8.714,1.197,12.482,3.46l3.502,2.102c0.428,0.256,0.868,0.485,1.314,0.701
		c5.168-18.203,11.635-35.706,19.314-52.266c-3.307-5.633-8.513-8.382-13.187-10.84c-0.814-0.428-1.606-0.845-2.363-1.263
		l-0.124-0.069c-2.092-1.199-3.472-3.191-3.885-5.609c-0.463-2.708,0.373-5.614,2.236-7.773c0.763-0.885,1.06-2.04,0.814-3.171
		l-0.593-2.706c-0.364-1.667-1.867-2.875-3.574-2.875c-0.259,0-0.52,0.029-0.775,0.084l-29.853,6.514
		c-0.947,0.207-1.761,0.776-2.29,1.602c-0.529,0.825-0.706,1.801-0.499,2.748l0.595,2.711c0.247,1.133,1.038,2.086,2.12,2.553
		c2.505,1.082,4.505,3.17,5.353,5.586c0.727,2.073,0.571,4.262-0.439,6.163c-0.225,0.416-0.484,0.82-0.777,1.211
		c-0.518,0.689-1.068,1.392-1.634,2.113c-4.45,5.68-9.495,12.117-7.175,22.734l6.554,29.988l0.397-0.239
		C125.319,129.8,129.637,128.604,134.034,128.604z"/>
	<path fill="#231F20" d="M66.478,97.65c-0.231,0.217-0.463,0.432-0.694,0.653C66.015,98.082,66.247,97.867,66.478,97.65
		C66.478,97.65,66.478,97.65,66.478,97.65z"/>
	<path fill="#231F20" d="M64.323,94.459c-4.922-6.443-12.755-12.321-21.74-12.052c-2.711,0.083-4.843,2.348-4.76,5.064
		c0.078,2.707,2.309,4.613,5.059,4.76c5.229-0.167,9.911,3.495,13.107,7.486c2.676-0.799,5.151-2.23,7.167-4.16
		C63.536,95.194,63.926,94.827,64.323,94.459z"/>
	<path fill="#231F20" d="M39.622,128.075c1.31,0,2.605,0.361,3.748,1.046l6.606,3.964c3.134,1.88,6.721,2.874,10.375,2.874
		s7.241-0.994,10.372-2.873l1.702-1.022c3.771-2.264,8.089-3.46,12.486-3.46c4.397,0,8.714,1.197,12.483,3.46l3.502,2.102
		c2.591,1.555,5.557,2.376,8.576,2.376c1.088,0,2.167-0.11,3.226-0.319c1.816-9.332,0.472-19.953-3.78-27.451
		c-0.489-0.863-0.976-1.691-1.46-2.493c-0.032-0.053-0.064-0.108-0.096-0.161c-0.463-0.764-0.924-1.495-1.383-2.203
		c-0.052-0.081-0.104-0.164-0.157-0.244c-0.445-0.683-0.888-1.337-1.33-1.969c-0.063-0.09-0.126-0.182-0.189-0.271
		c-0.434-0.615-0.866-1.205-1.296-1.772c-0.068-0.091-0.137-0.181-0.205-0.27c-0.426-0.556-0.85-1.088-1.271-1.599
		c-0.07-0.084-0.14-0.168-0.21-0.251c-0.422-0.504-0.842-0.986-1.261-1.446c-0.066-0.072-0.132-0.143-0.198-0.214
		c-0.423-0.458-0.844-0.896-1.263-1.311c-0.057-0.056-0.113-0.109-0.17-0.165c-0.428-0.418-0.855-0.816-1.28-1.189
		c-0.042-0.037-0.084-0.072-0.125-0.108c-0.44-0.382-0.878-0.745-1.314-1.081c-0.018-0.014-0.036-0.026-0.053-0.04
		c-0.439-0.336-0.875-0.649-1.311-0.941c-0.023-0.016-0.047-0.033-0.071-0.048c-0.428-0.285-0.854-0.543-1.278-0.786
		c-0.045-0.026-0.091-0.054-0.137-0.079c-0.411-0.23-0.82-0.438-1.228-0.629c-0.057-0.027-0.114-0.055-0.171-0.082
		c-0.4-0.183-0.798-0.346-1.195-0.493c-0.063-0.024-0.126-0.047-0.189-0.07c-0.393-0.141-0.785-0.263-1.175-0.37
		c-0.064-0.018-0.129-0.035-0.194-0.052c-0.39-0.102-0.779-0.188-1.167-0.257c-0.061-0.01-0.122-0.02-0.183-0.03
		c-0.392-0.065-0.782-0.115-1.171-0.148c-0.053-0.005-0.106-0.008-0.161-0.012c-0.39-0.029-0.779-0.043-1.166-0.042
		c-0.163,0.001-0.325,0.015-0.488,0.021c-0.265,0.01-0.53,0.018-0.794,0.042c-0.177,0.016-0.353,0.042-0.529,0.064
		c-0.249,0.031-0.498,0.06-0.746,0.103c-0.183,0.031-0.365,0.072-0.548,0.11c-0.239,0.049-0.479,0.098-0.718,0.158
		c-0.187,0.047-0.372,0.102-0.558,0.154c-0.234,0.066-0.469,0.134-0.702,0.21c-0.188,0.061-0.375,0.129-0.561,0.196
		c-0.23,0.083-0.461,0.167-0.69,0.259c-0.188,0.075-0.376,0.156-0.563,0.237c-0.228,0.098-0.456,0.199-0.683,0.306
		c-0.188,0.088-0.375,0.18-0.563,0.273c-0.226,0.113-0.451,0.23-0.676,0.352c-0.188,0.101-0.375,0.203-0.562,0.309
		c-0.225,0.127-0.449,0.259-0.674,0.394c-0.186,0.112-0.372,0.224-0.557,0.34c-0.226,0.142-0.45,0.288-0.674,0.437
		c-0.183,0.121-0.367,0.242-0.55,0.368c-0.226,0.155-0.451,0.315-0.677,0.478c-0.181,0.13-0.362,0.258-0.543,0.393
		c-0.228,0.168-0.455,0.344-0.682,0.519c-0.177,0.136-0.354,0.271-0.531,0.411c-0.21,0.167-0.419,0.339-0.629,0.511
		c-0.023,0.019-0.046,0.037-0.069,0.056c-0.17,0.139-0.34,0.275-0.51,0.418c-0.243,0.204-0.485,0.414-0.727,0.624
		c-0.159,0.138-0.318,0.272-0.478,0.413c-0.266,0.235-0.532,0.477-0.797,0.718c-0.135,0.122-0.269,0.241-0.403,0.364
		c-0.167,0.154-0.334,0.313-0.5,0.47c-0.232,0.216-0.463,0.431-0.695,0.652c-2.515,2.407-5.59,4.17-8.94,5.128
		c-13.301,3.802-23.368,9.847-20.036,25.215C37.694,128.276,38.65,128.075,39.622,128.075z"/>
	<path fill="#231F20" d="M154.926,136.125c1.199,0.271,2.429,0.417,3.668,0.417c3.02,0,5.983-0.821,8.572-2.375l3.503-2.103
		c3.771-2.263,8.09-3.459,12.486-3.459c4.397,0,8.714,1.197,12.483,3.46l3.501,2.102c2.591,1.555,5.557,2.376,8.576,2.376
		s5.983-0.821,8.57-2.375c0.134-0.081,0.272-0.152,0.414-0.215l13.571-6.031c0.499-1.442,0.863-2.532,1.068-3.195
		c9.235-29.704,15.184-60.979,15.994-92.177c0.009-0.362,0.007-0.732-0.001-1.104c-0.003-0.118-0.01-0.237-0.014-0.355
		c-0.01-0.26-0.021-0.522-0.04-0.787c-0.01-0.138-0.021-0.276-0.033-0.416c-0.021-0.256-0.046-0.513-0.076-0.772
		c-0.015-0.137-0.03-0.274-0.047-0.411c-0.037-0.287-0.08-0.576-0.125-0.866c-0.017-0.107-0.032-0.214-0.05-0.322
		c-0.067-0.397-0.143-0.797-0.226-1.199c-0.016-0.066-0.032-0.134-0.047-0.201c-0.072-0.334-0.149-0.668-0.233-1.004
		c-0.034-0.132-0.07-0.265-0.105-0.398c-0.072-0.274-0.147-0.548-0.228-0.822c-0.042-0.144-0.085-0.287-0.129-0.43
		c-0.084-0.271-0.171-0.542-0.262-0.813c-0.046-0.134-0.09-0.27-0.138-0.404c-0.111-0.319-0.229-0.637-0.352-0.954
		c-0.031-0.08-0.061-0.162-0.092-0.242c-0.156-0.396-0.321-0.789-0.493-1.178c-0.043-0.098-0.091-0.194-0.134-0.292
		c-0.133-0.291-0.269-0.581-0.409-0.868c-0.065-0.131-0.133-0.261-0.198-0.392c-0.13-0.254-0.263-0.506-0.399-0.755
		c-0.073-0.133-0.146-0.265-0.221-0.397c-0.145-0.255-0.294-0.506-0.446-0.756c-0.069-0.114-0.138-0.23-0.21-0.343
		c-0.209-0.334-0.426-0.663-0.649-0.985c-0.016-0.022-0.03-0.046-0.046-0.068c-0.24-0.345-0.49-0.68-0.745-1.009
		c-0.074-0.096-0.152-0.188-0.228-0.282c-0.185-0.23-0.372-0.458-0.563-0.68c-0.096-0.11-0.193-0.219-0.291-0.327
		c-0.183-0.203-0.369-0.402-0.559-0.597c-0.101-0.104-0.201-0.207-0.303-0.308c-0.209-0.205-0.422-0.404-0.638-0.598
		c-0.086-0.078-0.17-0.159-0.258-0.235c-0.305-0.266-0.616-0.522-0.936-0.765c-0.037-0.029-0.075-0.054-0.113-0.082
		c-0.282-0.211-0.57-0.413-0.862-0.605c-0.107-0.071-0.218-0.136-0.326-0.203c-0.23-0.144-0.463-0.283-0.7-0.414
		c-0.125-0.069-0.251-0.136-0.377-0.202c-0.234-0.121-0.473-0.235-0.713-0.344c-0.124-0.057-0.248-0.115-0.375-0.168
		c-0.279-0.118-0.564-0.224-0.852-0.324c-0.089-0.031-0.175-0.067-0.264-0.096c-0.379-0.123-0.764-0.231-1.155-0.323
		c-0.089-0.021-0.182-0.034-0.272-0.054c-0.304-0.064-0.611-0.122-0.923-0.167c-0.139-0.02-0.28-0.033-0.421-0.049
		c-0.272-0.031-0.548-0.055-0.826-0.069c-0.151-0.008-0.304-0.015-0.457-0.018c-0.333-0.007-0.669-0.005-1.009,0.011
		c-0.069,0.003-0.137,0.002-0.206,0.007c-0.416,0.025-0.837,0.071-1.264,0.132c-0.106,0.015-0.216,0.035-0.323,0.053
		c-0.346,0.057-0.696,0.126-1.05,0.208c-0.108,0.024-0.216,0.047-0.325,0.074c-0.44,0.11-0.886,0.237-1.338,0.386
		c-0.083,0.028-0.167,0.061-0.251,0.09c-0.381,0.132-0.767,0.279-1.155,0.439c-0.128,0.052-0.255,0.105-0.384,0.161
		c-0.47,0.204-0.943,0.422-1.424,0.67c-16.942,8.734-29.076,42.23-37.604,58.136C170.907,88.991,161.673,112.314,154.926,136.125z
		 M200.511,51.784c2.868-8.459,12.1-12.998,20.558-10.138c1.62,0.55,3.35,0.442,4.878-0.31c1.527-0.752,2.673-2.059,3.222-3.675
		c0.87-2.569,3.655-3.949,6.234-3.075c2.568,0.874,3.944,3.665,3.069,6.234c-1.394,4.101-4.298,7.417-8.179,9.328
		c-3.886,1.916-8.281,2.195-12.384,0.805c-3.33-1.135-6.966,0.659-8.096,3.994c-0.697,2.044-2.607,3.331-4.651,3.331
		c-0.521,0-1.056-0.083-1.582-0.26C201.012,57.144,199.637,54.354,200.511,51.784z M188.894,86.013
		c1.587-4.672,4.896-8.449,9.318-10.63c4.421-2.181,9.427-2.51,14.104-0.924c4.523,1.542,9.431-0.889,10.963-5.408
		c0.87-2.575,3.659-3.955,6.229-3.076c2.568,0.875,3.944,3.665,3.069,6.234c-3.271,9.647-13.783,14.815-23.421,11.559
		c-2.187-0.747-4.534-0.594-6.603,0.427c-2.067,1.022-3.614,2.785-4.362,4.976c-0.692,2.048-2.604,3.335-4.651,3.335
		c-0.521,0-1.056-0.083-1.577-0.26C189.395,91.372,188.019,88.582,188.894,86.013z M200.698,108.683
		c4.515,1.538,9.432-0.889,10.965-5.403c0.868-2.569,3.649-3.955,6.232-3.075c2.569,0.874,3.944,3.664,3.07,6.233
		c-3.271,9.643-13.784,14.82-23.421,11.554c-4.51-1.533-9.428,0.899-10.964,5.403c-0.703,2.054-2.614,3.335-4.657,3.335
		c-0.521,0-1.056-0.083-1.577-0.26c-2.568-0.874-3.944-3.664-3.069-6.233C180.552,110.599,191.075,105.44,200.698,108.683z"/>
	<path fill="#231F20" d="M236.997,131.031c-0.022-0.081-0.049-0.159-0.084-0.234c-0.019-0.039-0.037-0.077-0.058-0.113
		c-0.04-0.07-0.087-0.135-0.137-0.198c-0.023-0.029-0.046-0.061-0.071-0.089c-0.074-0.08-0.155-0.152-0.243-0.215
		c-0.007-0.004-0.012-0.011-0.018-0.015c-0.096-0.065-0.199-0.117-0.308-0.16c-0.034-0.014-0.07-0.022-0.105-0.033
		c-0.077-0.025-0.155-0.044-0.236-0.056c-0.042-0.007-0.084-0.01-0.126-0.013c-0.082-0.005-0.165-0.003-0.25,0.005
		c-0.038,0.004-0.076,0.006-0.115,0.013c-0.121,0.022-0.244,0.054-0.364,0.108l-16.638,7.393c-3.19,1.916-6.774,2.883-10.362,2.912
		c0.001,0,0.001,0,0.002,0c-3.7,0.03-7.406-0.937-10.698-2.912l-3.502-2.102c-0.404-0.243-0.816-0.471-1.232-0.684
		c-2.918-1.49-6.106-2.234-9.295-2.234c-2.733,0-5.468,0.547-8.03,1.642c-0.854,0.364-1.69,0.79-2.502,1.276l-3.502,2.102
		c-2.688,1.613-5.653,2.548-8.666,2.822c0.005,0,0.011-0.001,0.017-0.001c-0.128,0.012-0.256,0.029-0.384,0.039
		c-3.679,0.27-7.415-0.453-10.791-2.175c-0.417-0.212-0.828-0.441-1.233-0.684l-3.504-2.102c-3.239-1.945-6.882-2.918-10.527-2.918
		c-3.644,0-7.289,0.973-10.531,2.918L120,137.424c-0.474,0.285-0.958,0.542-1.448,0.785c-0.863,0.428-1.748,0.79-2.65,1.088
		c-5.149,1.706-10.818,1.315-15.727-1.188c-0.417-0.212-0.829-0.441-1.234-0.684l-3.503-2.102c-1.62-0.973-3.34-1.702-5.111-2.188
		c-1.718-0.472-3.484-0.71-5.251-0.724l0,0l0,0c-0.055,0-0.11-0.005-0.165-0.005c-3.188,0-6.378,0.744-9.297,2.234
		c-0.417,0.212-0.829,0.44-1.234,0.684l-1.7,1.021c-1.897,1.138-3.913,1.992-5.987,2.562c-0.519,0.142-1.042,0.267-1.566,0.373
		c-1.575,0.321-3.176,0.481-4.776,0.481c-1.601,0-3.201-0.16-4.776-0.481c-0.525-0.106-1.048-0.231-1.566-0.373
		c-2.075-0.569-4.09-1.423-5.988-2.562l-6.606-3.964c-0.148-0.088-0.297-0.164-0.449-0.228c-0.053-0.022-0.106-0.036-0.159-0.055
		c-0.1-0.037-0.199-0.075-0.299-0.103c-0.063-0.017-0.126-0.025-0.189-0.039c-0.091-0.019-0.181-0.041-0.271-0.051
		c-0.143-0.018-0.284-0.028-0.425-0.028c-0.685,0-1.346,0.211-1.907,0.575c-0.041,0.026-0.08,0.054-0.119,0.082
		c-0.154,0.109-0.3,0.228-0.436,0.36c-0.013,0.013-0.029,0.024-0.042,0.038c-0.144,0.145-0.27,0.306-0.387,0.475
		c-0.028,0.041-0.055,0.083-0.082,0.125c-0.105,0.168-0.201,0.344-0.276,0.533c-0.004,0.01-0.011,0.02-0.015,0.03
		c-0.077,0.196-0.13,0.406-0.171,0.621c-0.01,0.053-0.018,0.105-0.025,0.159c-0.031,0.222-0.05,0.449-0.038,0.686l8.365,118.915
		c0.629,12.275,10.763,21.904,23.053,21.904h137.892c12.29,0,22.424-9.629,23.052-21.904l8.572-122.948
		c0.006-0.132-0.007-0.258-0.031-0.38C237.02,131.105,237.006,131.069,236.997,131.031z M92.609,191.841
		c0,2.445-1.833,4.42-4.093,4.42H59.861c-2.26,0-4.093-1.975-4.093-4.42c0-2.447,1.833-4.422,4.093-4.422h28.655
		C90.776,187.419,92.609,189.394,92.609,191.841z M60.68,213.183h44.21c2.712,0,4.913,1.975,4.913,4.42s-2.201,4.422-4.913,4.422
		H60.68c-2.711,0-4.912-1.977-4.912-4.422S57.969,213.183,60.68,213.183z M129.033,247.787h-67.16c-3.37,0-6.105-1.977-6.105-4.42
		c0-2.445,2.735-4.422,6.105-4.422h67.16c3.371,0,6.105,1.977,6.105,4.422C135.139,245.81,132.404,247.787,129.033,247.787z
		 M158.84,247.787h-9.825c-2.711,0-4.911-1.977-4.911-4.42c0-2.445,2.2-4.422,4.911-4.422h9.825c2.711,0,4.912,1.977,4.912,4.422
		C163.752,245.81,161.551,247.787,158.84,247.787z"/>
</g>
</svg>
