<?xml version="1.0" encoding="utf-8"?>
<!-- Generator: Adobe Illustrator 15.1.0, SVG Export Plug-In . SVG Version: 6.00 Build 0)  -->
<!DOCTYPE svg PUBLIC "-//W3C//DTD SVG 1.1//EN" "http://www.w3.org/Graphics/SVG/1.1/DTD/svg11.dtd">
<svg version="1.1" id="Layer_1" xmlns="http://www.w3.org/2000/svg" xmlns:xlink="http://www.w3.org/1999/xlink" x="0px" y="0px"
	 width="283.465px" height="283.465px" viewBox="0 0 283.465 283.465" enable-background="new 0 0 283.465 283.465"
	 xml:space="preserve">
<path fill="none" d="M569.287,163.75c-2.354,3.111-5.168,5.854-8.311,8.135c0.027,0.01,0.055,0.018,0.082,0.026
	c1.107,0.345,2.229,0.743,3.314,1.179l0.078,0.031c0.139,0.054,0.273,0.107,0.402,0.162c4.889,2.025,9.334,4.878,13.217,8.482
	c0.404,0.377,0.809,0.758,1.193,1.146c3.619,3.612,6.545,7.774,8.725,12.389c2.178-4.61,5.104-8.772,8.719-12.382
	c0.393-0.395,0.795-0.773,1.203-1.156c3.879-3.601,8.324-6.453,13.205-8.476c0.139-0.058,0.273-0.111,0.41-0.165l0.063-0.023
	c1.104-0.441,2.223-0.842,3.33-1.187c0.029-0.009,0.057-0.019,0.084-0.026c-3.145-2.279-5.959-5.021-8.311-8.134
	c-1.021-1.353-1.945-2.758-2.775-4.206h-31.854C571.232,160.993,570.311,162.398,569.287,163.75z"/>
<g>
	<path d="M127.294,140.025c0,9.26-2.37,18.142-6.894,26.035h42.669c-4.522-7.894-6.891-16.773-6.891-26.035
		c0-14.035,5.476-27.238,15.421-37.179c0.086-0.088,0.177-0.169,0.267-0.255c-0.259-0.113-0.516-0.233-0.777-0.344
		c-0.162-0.065-0.321-0.128-0.484-0.194c-1.153-0.462-2.323-0.879-3.516-1.248c-0.074-0.024-0.144-0.048-0.223-0.072
		c-0.188-0.057-0.38-0.111-0.57-0.167c-0.175-0.048-0.351-0.104-0.528-0.152c-0.105-0.029-0.213-0.059-0.322-0.087
		c-0.259-0.07-0.525-0.139-0.787-0.206c-0.034-0.008-0.071-0.016-0.107-0.025c-3.266-0.813-6.63-1.274-10.044-1.356
		c-0.026-0.003-0.055-0.003-0.084-0.003c-0.298-0.005-0.594-0.014-0.889-0.014c8.361-2.489,15.595-7.618,20.733-14.414
		c5.123-6.773,8.158-15.209,8.158-24.349c0-11.163-4.536-21.265-11.857-28.588c-7.323-7.32-17.433-11.853-28.589-11.853
		c-0.081,0-0.159,0.003-0.246,0.003c-0.079,0-0.16-0.003-0.241-0.003c-11.156,0-21.266,4.532-28.589,11.853
		c-7.32,7.323-11.86,17.428-11.86,28.588c0,9.14,3.038,17.576,8.158,24.349c5.141,6.794,12.375,11.924,20.737,14.414
		c-0.298,0-0.597,0.008-0.892,0.014c-0.026,0-0.058,0-0.084,0.003c-3.419,0.084-6.787,0.543-10.055,1.357
		c-0.031,0.009-0.068,0.017-0.097,0.024c-0.27,0.068-0.536,0.14-0.803,0.215c-0.102,0.025-0.204,0.052-0.306,0.081
		c-0.186,0.05-0.366,0.104-0.549,0.158c-0.186,0.056-0.366,0.104-0.55,0.16c-0.081,0.024-0.164,0.053-0.248,0.08
		c-1.175,0.362-2.334,0.777-3.478,1.235c-0.167,0.067-0.332,0.13-0.5,0.197c-0.259,0.11-0.518,0.23-0.777,0.344
		c0.086,0.086,0.181,0.167,0.267,0.255C121.818,112.787,127.294,125.992,127.294,140.025z"/>
	<path d="M136.375,232.821l0.037-0.308c0.453-3.868,1.292-7.676,2.486-11.37c-0.139-0.388-0.259-0.782-0.408-1.166
		c-0.163-0.418-0.322-0.844-0.495-1.259c-0.063-0.148-0.128-0.299-0.191-0.446c-2.682-6.332-6.585-12.167-11.543-17.116
		c-0.479-0.479-0.971-0.945-1.465-1.405c-4.749-4.408-10.212-7.894-16.104-10.334c-0.188-0.08-0.377-0.151-0.565-0.228
		c-1.348-0.539-2.716-1.028-4.105-1.458c-0.084-0.029-0.173-0.058-0.259-0.085c-0.22-0.069-0.442-0.132-0.665-0.195
		c-0.204-0.06-0.411-0.123-0.617-0.181c-0.123-0.033-0.251-0.067-0.377-0.099c-0.304-0.084-0.612-0.165-0.918-0.243
		c-0.042-0.011-0.086-0.019-0.128-0.029c-3.814-0.949-7.742-1.488-11.732-1.585c-0.029-0.003-0.065-0.003-0.097-0.003
		c-0.348-0.008-0.693-0.016-1.039-0.016c9.767-2.906,18.217-8.897,24.217-16.833c5.983-7.911,9.526-17.763,9.526-28.438
		c0-13.038-5.298-24.839-13.851-33.391c-8.55-8.55-20.358-13.844-33.387-13.844c-0.094,0-0.188,0.004-0.285,0.004
		c-0.094-0.001-0.188-0.004-0.282-0.004c-13.032,0-24.837,5.294-33.39,13.844c-8.55,8.552-13.851,20.353-13.851,33.391
		c0,10.675,3.545,20.526,9.528,28.438c6.002,7.936,14.45,13.927,24.217,16.833c-0.348,0-0.693,0.008-1.041,0.016
		c-0.029,0-0.065,0-0.094,0.003c-3.993,0.097-7.928,0.636-11.745,1.588c-0.037,0.008-0.079,0.02-0.115,0.027
		c-0.312,0.08-0.625,0.165-0.937,0.25c-0.118,0.03-0.241,0.063-0.359,0.094c-0.214,0.06-0.426,0.123-0.641,0.187
		c-0.214,0.065-0.426,0.123-0.641,0.188c-0.097,0.029-0.196,0.063-0.291,0.092c-1.374,0.425-2.726,0.911-4.061,1.441
		c-0.193,0.082-0.387,0.153-0.583,0.233c-5.889,2.439-11.344,5.92-16.088,10.321c-0.502,0.466-0.994,0.936-1.48,1.421
		c-4.916,4.91-8.799,10.692-11.476,16.967c-0.083,0.196-0.172,0.397-0.256,0.596c-0.217,0.524-0.424,1.053-0.623,1.584
		c-1.554,4.112-2.598,8.422-3.116,12.833v30.81h129.289l-0.002-30.81v-0.314H136.375z"/>
	<path d="M272.642,218.717c-0.083-0.197-0.173-0.397-0.256-0.595c-2.677-6.276-6.557-12.057-11.476-16.968
		c-0.483-0.483-0.979-0.955-1.48-1.419c-4.743-4.403-10.198-7.883-16.088-10.321c-0.196-0.081-0.387-0.154-0.584-0.233
		c-1.334-0.533-2.687-1.018-4.058-1.443c-0.097-0.027-0.196-0.063-0.293-0.091c-0.212-0.066-0.424-0.124-0.642-0.187
		c-0.214-0.063-0.426-0.129-0.641-0.188c-0.118-0.032-0.24-0.063-0.358-0.096c-0.311-0.083-0.625-0.167-0.937-0.248
		c-0.036-0.008-0.075-0.019-0.115-0.026c-3.814-0.952-7.75-1.491-11.742-1.59c-0.031-0.002-0.068-0.002-0.097-0.002
		c-0.349-0.009-0.695-0.018-1.041-0.018c9.767-2.906,18.218-8.897,24.217-16.832c5.983-7.909,9.528-17.762,9.528-28.438
		c0-13.036-5.3-24.839-13.851-33.39c-8.55-8.551-20.357-13.844-33.39-13.844c-0.095,0-0.188,0.002-0.282,0.004
		c-0.094,0-0.191-0.004-0.285-0.004c-13.029,0-24.837,5.293-33.388,13.844c-8.553,8.551-13.851,20.351-13.851,33.39
		c0,10.676,3.542,20.525,9.529,28.438c5.999,7.938,14.447,13.926,24.213,16.832c-0.347,0-0.692,0.009-1.038,0.018
		c-0.031,0-0.065,0-0.097,0.002c-3.987,0.096-7.917,0.635-11.731,1.584c-0.042,0.014-0.086,0.021-0.126,0.03
		c-0.309,0.077-0.614,0.16-0.921,0.242c-0.128,0.033-0.251,0.068-0.377,0.101c-0.204,0.058-0.413,0.121-0.617,0.18
		c-0.223,0.065-0.444,0.128-0.662,0.195c-0.089,0.029-0.178,0.056-0.262,0.085c-1.39,0.43-2.76,0.918-4.104,1.46
		c-0.188,0.074-0.377,0.146-0.565,0.225c-5.892,2.441-11.354,5.926-16.104,10.335c-0.494,0.461-0.986,0.924-1.465,1.405
		c-4.958,4.949-8.862,10.786-11.543,17.115c-0.063,0.149-0.129,0.3-0.192,0.447c-0.172,0.417-0.331,0.84-0.493,1.26
		c-1.622,4.211-2.716,8.63-3.245,13.156l0,0v30.811h134.644v-30.811c-0.518-4.411-1.562-8.721-3.113-12.833
		C273.065,219.769,272.859,219.24,272.642,218.717z"/>
</g>
</svg>
