<?xml version="1.0" encoding="utf-8"?>
<!-- Generator: Adobe Illustrator 15.1.0, SVG Export Plug-In . SVG Version: 6.00 Build 0)  -->
<!DOCTYPE svg PUBLIC "-//W3C//DTD SVG 1.1//EN" "http://www.w3.org/Graphics/SVG/1.1/DTD/svg11.dtd">
<svg version="1.1" id="Layer_1" xmlns="http://www.w3.org/2000/svg" xmlns:xlink="http://www.w3.org/1999/xlink" x="0px" y="0px"
	 width="283.465px" height="283.465px" viewBox="0 0 283.465 283.465" enable-background="new 0 0 283.465 283.465"
	 xml:space="preserve">
<path fill="none" d="M569.287,163.75c-2.353,3.111-5.167,5.854-8.311,8.135c0.027,0.009,0.055,0.018,0.083,0.026
	c1.108,0.345,2.229,0.743,3.314,1.179l0.079,0.031c0.137,0.054,0.272,0.108,0.402,0.162c4.888,2.025,9.333,4.878,13.217,8.483
	c0.404,0.377,0.808,0.758,1.193,1.145c3.619,3.613,6.544,7.774,8.724,12.389c2.178-4.61,5.103-8.772,8.719-12.382
	c0.392-0.394,0.795-0.774,1.204-1.156c3.879-3.601,8.324-6.453,13.205-8.476c0.137-0.057,0.272-0.111,0.409-0.165l0.063-0.024
	c1.103-0.441,2.223-0.841,3.331-1.186c0.028-0.009,0.056-0.018,0.083-0.026c-3.144-2.28-5.958-5.022-8.31-8.134
	c-1.022-1.353-1.946-2.758-2.776-4.206h-31.854C571.233,160.993,570.31,162.398,569.287,163.75z"/>
<g>
	<g>
		<path d="M97.688,106.546c-2.719-1.949-5.642-3.579-8.712-4.851c-0.15-0.063-0.303-0.123-0.455-0.183
			c-1.086-0.435-2.188-0.828-3.309-1.175c-0.069-0.023-0.139-0.046-0.211-0.068c-0.178-0.055-0.355-0.105-0.536-0.157
			c-0.163-0.047-0.331-0.098-0.497-0.144c-0.1-0.027-0.2-0.055-0.304-0.081c-0.244-0.068-0.493-0.133-0.74-0.196
			c-0.034-0.008-0.068-0.013-0.101-0.024c-3.075-0.765-6.242-1.198-9.455-1.277c-0.026-0.002-0.053-0.002-0.079-0.002
			c-0.28-0.005-0.559-0.013-0.84-0.013c7.873-2.341,14.685-7.17,19.519-13.565c4.823-6.377,7.68-14.317,7.68-22.919
			c0-10.51-4.27-20.02-11.162-26.912C81.594,28.087,72.076,23.82,61.576,23.82c-0.077,0-0.153,0.004-0.23,0.004
			c-0.074-0.001-0.151-0.004-0.228-0.004c-10.502,0-20.02,4.267-26.91,11.159c-6.892,6.892-11.163,16.404-11.163,26.912
			c0,8.603,2.857,16.543,7.681,22.919c4.835,6.394,11.645,11.224,19.518,13.565c-0.281,0-0.56,0.008-0.84,0.013
			c-0.026,0-0.053,0-0.078,0.002c-3.219,0.079-6.39,0.513-9.465,1.28c-0.03,0.008-0.063,0.016-0.092,0.021
			c-0.251,0.065-0.504,0.133-0.755,0.201c-0.096,0.025-0.193,0.05-0.289,0.076c-0.173,0.047-0.344,0.1-0.516,0.151
			c-0.174,0.051-0.344,0.098-0.518,0.15c-0.076,0.023-0.156,0.049-0.233,0.073c-1.106,0.344-2.197,0.735-3.272,1.164
			c-0.156,0.063-0.312,0.123-0.47,0.187c-4.746,1.966-9.143,4.771-12.964,8.319c-0.406,0.374-0.805,0.753-1.197,1.143
			c-3.963,3.959-7.09,8.619-9.249,13.676c-0.067,0.16-0.139,0.319-0.206,0.48c-0.176,0.423-0.342,0.848-0.503,1.276
			c-1.252,3.315-2.093,6.788-2.51,10.344v24.831h88.657c-4.525-7.893-6.895-16.775-6.895-26.036
			C88.85,125.188,91.938,115.118,97.688,106.546z"/>
	</g>
	<g>
		<path d="M273.365,125.312c-0.068-0.161-0.141-0.32-0.208-0.48c-2.159-5.057-5.287-9.717-9.249-13.676
			c-0.392-0.39-0.79-0.769-1.195-1.143c-3.823-3.548-8.22-6.353-12.966-8.319c-0.157-0.064-0.313-0.124-0.469-0.187
			c-1.075-0.429-2.166-0.82-3.272-1.164c-0.078-0.024-0.157-0.05-0.234-0.073c-0.173-0.052-0.343-0.1-0.517-0.15
			c-0.173-0.051-0.344-0.104-0.516-0.151c-0.097-0.026-0.193-0.051-0.29-0.076c-0.25-0.068-0.503-0.136-0.755-0.201
			c-0.029-0.005-0.061-0.013-0.092-0.021c-3.075-0.767-6.246-1.201-9.465-1.28c-0.024-0.002-0.052-0.002-0.077-0.002
			c-0.279-0.005-0.56-0.013-0.84-0.013c7.873-2.341,14.684-7.171,19.519-13.565c4.821-6.376,7.679-14.317,7.679-22.919
			c0-10.507-4.27-20.02-11.161-26.912S232.849,23.82,222.345,23.82c-0.076,0-0.15,0.002-0.228,0.004
			c-0.076,0-0.153-0.004-0.229-0.004c-10.502,0-20.018,4.267-26.909,11.159c-6.894,6.892-11.163,16.402-11.163,26.912
			c0,8.603,2.857,16.542,7.679,22.919c4.835,6.396,11.647,11.224,19.519,13.565c-0.28,0-0.559,0.008-0.84,0.013
			c-0.025,0-0.053,0-0.077,0.002c-3.215,0.079-6.382,0.512-9.456,1.277c-0.034,0.011-0.066,0.016-0.102,0.024
			c-0.246,0.063-0.495,0.128-0.739,0.196c-0.104,0.026-0.205,0.054-0.304,0.081c-0.167,0.046-0.333,0.097-0.498,0.144
			c-0.18,0.052-0.358,0.102-0.535,0.157c-0.072,0.022-0.142,0.044-0.211,0.068c-1.119,0.347-2.223,0.74-3.31,1.175
			c-0.151,0.06-0.304,0.12-0.454,0.183c-3.071,1.273-5.994,2.901-8.715,4.852c5.75,8.572,8.838,18.643,8.838,29.179
			c0,9.264-2.37,18.145-6.896,26.036h88.662v-24.831c-0.419-3.556-1.26-7.029-2.511-10.344
			C273.705,126.16,273.539,125.735,273.365,125.312z"/>
	</g>
	<path d="M175.403,102.337c-8.551-8.55-20.358-13.845-33.39-13.845c-0.094,0-0.188,0.003-0.282,0.004
		c-0.096,0-0.189-0.004-0.285-0.004c-13.029,0-24.837,5.294-33.387,13.845c-8.554,8.55-13.852,20.351-13.852,33.39
		c0,10.675,3.545,20.525,9.529,28.438c5.999,7.937,14.45,13.927,24.217,16.833c-0.349,0-0.693,0.008-1.042,0.016
		c-0.031,0-0.065,0-0.097,0.003c-3.987,0.097-7.917,0.635-11.731,1.584c-0.042,0.012-0.084,0.02-0.126,0.03
		c-0.306,0.077-0.614,0.159-0.918,0.242c-0.128,0.032-0.254,0.066-0.377,0.101c-0.206,0.058-0.413,0.12-0.617,0.179
		c-0.223,0.064-0.444,0.127-0.664,0.195c-0.09,0.027-0.176,0.055-0.262,0.084c-1.39,0.43-2.758,0.918-4.105,1.458
		c-0.188,0.075-0.377,0.148-0.565,0.227c-5.892,2.441-11.354,5.926-16.104,10.335c-0.494,0.46-0.986,0.925-1.465,1.404
		c-4.958,4.95-8.861,10.786-11.543,17.116c-0.063,0.149-0.129,0.299-0.191,0.447c-0.173,0.416-0.332,0.84-0.494,1.26
		c-1.622,4.212-2.716,8.631-3.245,13.157h0.002v30.81h134.645v-30.81c-0.518-4.411-1.562-8.721-3.114-12.834
		c-0.2-0.53-0.407-1.06-0.624-1.583c-0.084-0.198-0.173-0.398-0.257-0.596c-2.678-6.274-6.56-12.057-11.476-16.968
		c-0.486-0.483-0.98-0.954-1.483-1.419c-4.743-4.402-10.198-7.882-16.086-10.321c-0.195-0.08-0.389-0.153-0.583-0.233
		c-1.334-0.532-2.688-1.016-4.061-1.442c-0.097-0.029-0.194-0.063-0.29-0.092c-0.215-0.065-0.427-0.123-0.641-0.188
		c-0.215-0.063-0.427-0.126-0.642-0.186c-0.117-0.032-0.239-0.063-0.358-0.096c-0.312-0.083-0.624-0.168-0.937-0.248
		c-0.036-0.008-0.076-0.019-0.113-0.026c-3.816-0.952-7.751-1.491-11.744-1.588c-0.031-0.003-0.065-0.003-0.097-0.003
		c-0.347-0.008-0.693-0.016-1.041-0.016c9.767-2.906,18.218-8.898,24.217-16.833c5.983-7.911,9.528-17.763,9.528-28.438
		C189.253,122.689,183.954,110.887,175.403,102.337z"/>
</g>
</svg>
