<?xml version="1.0" encoding="utf-8"?>
<!-- Generator: Adobe Illustrator 15.1.0, SVG Export Plug-In . SVG Version: 6.00 Build 0)  -->
<!DOCTYPE svg PUBLIC "-//W3C//DTD SVG 1.1//EN" "http://www.w3.org/Graphics/SVG/1.1/DTD/svg11.dtd">
<svg version="1.1" id="Layer_2" xmlns="http://www.w3.org/2000/svg" xmlns:xlink="http://www.w3.org/1999/xlink" x="0px" y="0px"
	 width="283.46px" height="283.46px" viewBox="0 0 283.46 283.46" enable-background="new 0 0 283.46 283.46" xml:space="preserve">
<path d="M253.534,83.123c0,1.703,0,3.406,0,5.109c-3.856,45.119-22.365,75.775-41.475,107.896
	c-13.362,22.465-27.927,46.559-46.584,65.219c-6.162,6.161-13.914,15.19-24.044,15.027c-9.217-0.149-17.407-8.69-23.142-14.428
	c-18.634-18.633-32.935-42.828-46.585-65.518C52.63,164.732,34.297,134.34,29.927,88.833c0-2.104,0-4.208,0-6.312
	c1.064-28.076,15.478-47.086,35.765-58.606c20.75-11.796,47.586-16.831,76.64-16.831C201.187,7.084,250.241,27.759,253.534,83.123z"
	/>
</svg>
