<?xml version="1.0" encoding="utf-8"?>
<!-- Generator: Adobe Illustrator 15.1.0, SVG Export Plug-In . SVG Version: 6.00 Build 0)  -->
<!DOCTYPE svg PUBLIC "-//W3C//DTD SVG 1.1//EN" "http://www.w3.org/Graphics/SVG/1.1/DTD/svg11.dtd">
<svg version="1.1" id="Layer_1" xmlns="http://www.w3.org/2000/svg" xmlns:xlink="http://www.w3.org/1999/xlink" x="0px" y="0px"
	 width="30px" height="30px" viewBox="0 0 30 30" enable-background="new 0 0 30 30" xml:space="preserve">
<path fill-rule="evenodd" clip-rule="evenodd" d="M3.156,8.484H3.153c-0.368,0.001-0.387,0.25-0.305,0.5
	c-0.082,0.249-0.063,0.499,0.305,0.5h10.9c0.276,0,0.5-0.224,0.5-0.5s-0.224-0.5-0.5-0.5H3.156z M1.193,12.494H1.19
	c-0.368,0.001-0.387,0.25-0.305,0.5c-0.082,0.249-0.063,0.499,0.305,0.5H12.09c0.276,0,0.5-0.224,0.5-0.5s-0.224-0.5-0.5-0.5H1.193z
	 M3.156,16.491H3.153c-0.368,0.001-0.387,0.251-0.305,0.5c-0.082,0.249-0.063,0.498,0.305,0.5h10.9c0.276,0,0.5-0.224,0.5-0.5
	s-0.224-0.5-0.5-0.5H3.156z M24.2,9.781c-0.902-0.904-0.9-2.371,0.004-3.272s2.37-0.9,3.272,0.004
	c0.902,0.904,0.9,2.371-0.004,3.272S25.103,10.685,24.2,9.781l1.2,1.203c0.309,0.31,0.444,0.727,0.406,1.13l0.083,2.953l1.571-0.034
	c0.318-0.007,0.627,0.113,0.856,0.333c0.23,0.22,0.363,0.523,0.37,0.842c0.001,0.047,0.002,0.095,0.003,0.142
	c0.007,0.318-0.113,0.627-0.333,0.856c-0.221,0.23-0.523,0.363-0.842,0.37l-2.537,0.055c-0.071,0.016-0.145,0.024-0.219,0.026
	c-0.047,0.001-0.095,0.003-0.142,0.004c-0.319,0.009-0.628-0.109-0.859-0.328s-0.366-0.521-0.375-0.839l-0.041-1.462l-1.598,1.593
	c-0.038,0.038-0.076,0.074-0.115,0.108l1.324,2.099c0.135,0.213,0.197,0.462,0.184,0.71c0,0.018,0,0.034,0,0.051
	c-0.005,0.318-0.137,0.622-0.366,0.844c-0.97,0.938-2.536,2.452-3.506,3.391c-0.229,0.222-0.536,0.344-0.855,0.338
	c-0.318-0.005-0.621-0.137-0.843-0.365c-0.033-0.034-0.066-0.068-0.099-0.103c-0.222-0.229-0.344-0.537-0.338-0.855
	c0.005-0.318,0.137-0.621,0.366-0.843l2.761-2.672l-1.823-2.889c-0.029-0.046-0.055-0.093-0.076-0.142l-0.029-0.025l-1.495,3.231
	c-0.1,0.217-0.262,0.396-0.462,0.52l-2.858,3.427c-0.204,0.244-0.497,0.397-0.814,0.427c-0.317,0.028-0.633-0.07-0.877-0.274
	c-0.037-0.03-0.073-0.061-0.109-0.091c-0.245-0.204-0.398-0.497-0.427-0.814s0.07-0.633,0.274-0.877l3.141-3.766l2.182-4.716
	c0.09-0.33,0.285-0.657,0.607-0.979l2.243-2.237l-1.461-0.452l-2.884,2.919c-0.224,0.227-0.529,0.355-0.847,0.357
	c-0.319,0.002-0.625-0.123-0.852-0.347c-0.034-0.033-0.067-0.067-0.101-0.1c-0.227-0.224-0.355-0.528-0.357-0.847
	c-0.002-0.318,0.123-0.625,0.347-0.852c0.948-0.96,2.479-2.51,3.428-3.47c0.194-0.197,0.449-0.319,0.722-0.35
	c0.188-0.035,0.385-0.023,0.571,0.034c1.192,0.368,3.047,0.942,4.238,1.31c0.181,0.056,0.344,0.153,0.478,0.281
	c0.043,0.034,0.085,0.071,0.124,0.111L24.2,9.781z"/>
</svg>
