<?xml version="1.0" encoding="utf-8"?>
<!-- Generator: Adobe Illustrator 15.1.0, SVG Export Plug-In . SVG Version: 6.00 Build 0)  -->
<!DOCTYPE svg PUBLIC "-//W3C//DTD SVG 1.1//EN" "http://www.w3.org/Graphics/SVG/1.1/DTD/svg11.dtd">
<svg version="1.1" id="Layer_1" xmlns:serif="http://www.serif.com/"
	 xmlns="http://www.w3.org/2000/svg" xmlns:xlink="http://www.w3.org/1999/xlink" x="0px" y="0px" width="283.46px"
	 height="283.46px" viewBox="0 0 283.46 283.46" enable-background="new 0 0 283.46 283.46" xml:space="preserve">
<path fill="none" stroke="#000000" stroke-width="4.17" stroke-linecap="round" stroke-linejoin="round" stroke-miterlimit="2.2561" d="
	M94.128,176.506c-12.985,0-24.583-5.977-32.192-15.327c-5.813-7.141-9.297-16.248-9.297-26.163c0-22.899,18.59-41.49,41.49-41.49
	c0-22.899,18.593-41.492,41.492-41.492s41.491,18.593,41.491,41.492h18.666c22.901,0,41.492,18.591,41.492,41.49
	c0,9.915-3.486,19.022-9.297,26.163c-7.61,9.351-19.211,15.327-32.195,15.327"/>
<g>
	<path fill="none" stroke="#010001" stroke-width="4.17" stroke-linecap="round" stroke-miterlimit="1.25" d="M121.898,216.509
		l24.869-51.088"/>
	<circle cx="113.515" cy="233.857" r="4.516"/>
</g>
<g>
	<circle cx="146.32" cy="227.967" r="4.516"/>
	<path fill="none" stroke="#010001" stroke-width="4.17" stroke-linecap="round" stroke-miterlimit="1.25" d="M154.704,210.62
		l22.001-45.198"/>
</g>
<g>
	<path fill="none" stroke="#010001" stroke-width="4.17" stroke-linecap="round" stroke-miterlimit="1.25" d="M99.477,201.028
		l17.333-35.606"/>
	<circle cx="91.093" cy="218.377" r="4.516"/>
</g>
</svg>
