<?xml version="1.0" encoding="utf-8"?>
<!-- Generator: Adobe Illustrator 15.1.0, SVG Export Plug-In . SVG Version: 6.00 Build 0)  -->
<!DOCTYPE svg PUBLIC "-//W3C//DTD SVG 1.1//EN" "http://www.w3.org/Graphics/SVG/1.1/DTD/svg11.dtd">
<svg version="1.1" id="Layer_2" xmlns="http://www.w3.org/2000/svg" xmlns:xlink="http://www.w3.org/1999/xlink" x="0px" y="0px"
	 width="283.465px" height="283.465px" viewBox="0 0 283.465 283.465" enable-background="new 0 0 283.465 283.465"
	 xml:space="preserve">
<g>
	<path d="M270.53,7.086H12.983H7.087v5.848V270.48v5.898h5.896H270.53h5.848v-5.898V12.935V7.086H270.53z M191.404,197.389h-0.043
		c-1.432,27.367-24.095,49.123-51.816,49.123c-26.867,0-49.014-20.455-51.654-46.629l-0.029,0.023
		c-16.454-28.499,3.736-32.748-13.375-62.386c0,0,10.676,2.603,17.981,12.219c-7.885-13.657,13.626-27.146,2.166-46.995
		c7.298,1.955,11.368,7.367,12.833,12.832c10.503-18.194,11.737-28.831,3.8-40.376c14.421,3.864,17.372,7.034,17.899,7.806
		c-5.655-10.145-4.376-36.735,11.769-46.056c0,32.028,21.536,31.796,21.536,52.227c5.077-5.077,0.408-7.887,0.408-14.834
		c18,14.996,14.559,28.426,16.225,42.581c5.418-9.384,3.928-13.856,3.885-22.231c6.979,6.982,20.503,19.299,8.621,48.508
		c5.668,0,12.954-4.903,12.954-4.903C186.4,166.838,207.696,187.982,191.404,197.389z"/>
	<circle cx="139.525" cy="194.171" r="41.659"/>
	<path d="M137.665,142.67c3.072,0,4.924-0.08,8.745,0.816c0-16.737-6.824-20.156-6.824-33.836
		c-11.943,6.896-2.404,24.139-8.05,33.919C133.437,142.506,136.956,142.67,137.665,142.67z"/>
	<path d="M121.401,146.021c2.838-4.916,1.618-10.11-4.168-15.897c2.767,4.792-5.806,15.404-1.921,19.289
		C117.055,147.67,119.775,146.479,121.401,146.021z"/>
	<path d="M99.701,162.367c0.014-0.015,0.028-0.027,0.041-0.041c1.593-1.748,2.866-4.1,5.108-5.395
		c-1.396-5.209-2.686-5.172-0.49-13.362c-7.24,4.179-5.272,19.41-5.272,19.41C99.248,162.78,99.461,162.584,99.701,162.367z"/>
	<path d="M178.49,162.041c0.434-0.978,2.615-4.662,2.615-15.611c-5.509,1.478-8.703,8.529-8.908,9.113
		C174.477,157.53,176.588,159.688,178.49,162.041z"/>
	<path d="M183.354,169.191c-0.002,0.012-0.005,0.029,0,0.041c2.019,3.585,3.655,7.438,4.779,11.482
		c2.495-2.877-1.166-8.136,1.637-18.594C185.92,165.973,184.722,164.08,183.354,169.191z"/>
	<path d="M167.213,129.919c-8.256,0-10.85,13.266-11.076,16.06c3.348,1.243,6.541,2.827,9.521,4.7
		C163.554,142.824,167.213,129.919,167.213,129.919z"/>
</g>
</svg>
