<?xml version="1.0" encoding="utf-8"?>
<!-- Generator: Adobe Illustrator 15.1.0, SVG Export Plug-In . SVG Version: 6.00 Build 0)  -->
<!DOCTYPE svg PUBLIC "-//W3C//DTD SVG 1.1//EN" "http://www.w3.org/Graphics/SVG/1.1/DTD/svg11.dtd">
<svg version="1.1" id="Layer_2" xmlns="http://www.w3.org/2000/svg" xmlns:xlink="http://www.w3.org/1999/xlink" x="0px" y="0px"
	 width="283.465px" height="283.465px" viewBox="0 0 283.465 283.465" enable-background="new 0 0 283.465 283.465"
	 xml:space="preserve">
<g>
	<path d="M270.53,7.086H12.983H7.087v5.848V270.48v5.898h5.896H270.53h5.848v-5.898V12.935V7.086H270.53z M195.848,238.578v6.244
		l-99.161-0.09v-6.154l13.856-0.055c-47.07-25.332-14.884-55.696-39.344-93.816c0,0,10.699,2.619,18.004,12.235
		c8.769-24.257,0.553-44.81-5.693-52.246c8.322-0.461,17.118,10.547,23.314,18.084c12.029-20.836,3.858-41.932-4.079-53.479
		c16.598,4.448,23.239,21.085,23.239,21.085c2.081-5.779-2.833-39.267,6.462-59.325c0,22.193,25.466,39.659,25.466,60.088
		c4.518,4.517,3.381-13.787,1.693-20.075c26.471,19.303,22.418,59.79,24.082,73.945c5.416-9.383,10.127-18.101,10.082-26.474
		c7.505,12.996,12.232,45.132,12.232,48.859c3.705,0,5.771-6.229,5.771-6.229c0,19.916,6.914,46.227-31.503,77.4h15.578V238.578z"/>
	<path d="M134.453,75.542c2.999,11.194,1.519,23.384-2.312,37.682C136.942,108.423,147.939,98.903,134.453,75.542z"/>
	<path d="M173.021,170.114c-4.351,2.513-6.906,5.138-16.019,20.924c0,0,8.464-35.71-14.06-48.712
		c7.935,13.741-1.152,35.938,2.125,45.115c-6.906-3.987-9.549-7.715-12.914-20.27c0,0-12.263,20.76-0.654,40.865
		c0,0-9.281,0.932-17.327-29.096c-11.762,20.371-0.074,53.943,25.827,53.943c25.737,0,41.356-28.756,41.356-44.137
		c-4.82,1.291-11.934,8.174-11.934,8.174C173.429,189.989,173.021,180.424,173.021,170.114z"/>
</g>
</svg>
