<?xml version="1.0" encoding="utf-8"?>
<!-- Generator: Adobe Illustrator 15.1.0, SVG Export Plug-In . SVG Version: 6.00 Build 0)  -->
<!DOCTYPE svg PUBLIC "-//W3C//DTD SVG 1.0//EN" "http://www.w3.org/TR/2001/REC-SVG-20010904/DTD/svg10.dtd">
<svg version="1.0" id="Layer_6" xmlns="http://www.w3.org/2000/svg" xmlns:xlink="http://www.w3.org/1999/xlink" x="0px" y="0px"
	 width="283.46px" height="283.46px" viewBox="0 0 283.46 283.46" enable-background="new 0 0 283.46 283.46" xml:space="preserve">
<path d="M269.653,96.479c0.008-0.328,0.024-0.655,0.024-0.986c0-2.41-0.217-4.768-0.611-7.065
	c-1.18-16.118-12.582-35.855-29.448-48.045c-13.942-10.076-51.261-28.272-97.888,18.737C95.105,12.111,57.785,30.307,43.842,40.383
	C26.977,52.573,15.575,72.31,14.395,88.428c-0.395,2.297-0.612,4.655-0.612,7.065c0,0.331,0.018,0.658,0.025,0.986
	c-1.65,28.832,35.421,65.822,74.28,104.594c17.043,17.004,34.581,34.519,48.293,51.042c1.087,1.791,3.038,3.001,5.286,3.001
	c1.867,0,3.522-0.844,4.658-2.149c0.008,0.008,0.016,0.016,0.022,0.022c13.816-16.776,31.682-34.613,49.024-51.916
	C234.231,162.301,271.302,125.311,269.653,96.479z"/>
</svg>
