<?xml version="1.0" encoding="utf-8"?>
<!-- Generator: Adobe Illustrator 15.1.0, SVG Export Plug-In . SVG Version: 6.00 Build 0)  -->
<!DOCTYPE svg PUBLIC "-//W3C//DTD SVG 1.0//EN" "http://www.w3.org/TR/2001/REC-SVG-20010904/DTD/svg10.dtd">
<svg version="1.0" xmlns="http://www.w3.org/2000/svg" xmlns:xlink="http://www.w3.org/1999/xlink" x="0px" y="0px"
	 width="283.46px" height="283.46px" viewBox="0 0 283.46 283.46" enable-background="new 0 0 283.46 283.46" xml:space="preserve">
<g id="Layer_6">
</g>
<g id="Layer_2">
	<g>
		<path d="M204.161,190.747c-1.045-0.004-2.048-0.189-2.824-0.521l-1.072-0.46c-0.8-0.345-1.285-0.813-1.374-1.32L179.807,75.818
			l-17.142,95.562c-0.09,0.498-0.567,0.958-1.344,1.297l-1.043,0.457c-0.565,0.25-1.269,0.419-2.026,0.492
			c-0.236,0.024-0.479,0.039-0.723,0.043l-2.161,0.035c-0.048,0.001-0.093,0.001-0.138,0.001c-0.463,0-0.918-0.037-1.349-0.109
			c-0.487-0.075-0.928-0.186-1.314-0.333l-1.118-0.424c-0.821-0.314-1.363-0.756-1.526-1.244l-8.415-24.943H81.323L75.5,171.211
			c-0.119,0.503-0.63,0.961-1.442,1.29l-1.09,0.445c-0.77,0.314-1.757,0.488-2.779,0.488c-0.014,0-0.025,0-0.039,0l-2.088-0.01
			h-0.081c-1.038-0.006-2.029-0.188-2.797-0.513l-1.078-0.457c-0.795-0.339-1.285-0.801-1.386-1.303l-10.927-56.444l-8.791,39.143
			c12.921,15.119,28.841,31.013,45.085,47.221c17.043,17.005,34.581,34.519,48.293,51.042c1.087,1.791,3.038,3.002,5.286,3.002
			c1.868,0,3.522-0.845,4.659-2.15c0.008,0.009,0.016,0.017,0.021,0.022c13.816-16.776,31.682-34.612,49.023-51.916
			c3.464-3.456,6.912-6.896,10.32-10.32l-1.467-0.006H204.161z"/>
		<path d="M51.844,106.709c0.001,0,0.002,0,0.003,0c0.001,0,0.002,0,0.003,0c0.248,0,0.49,0.01,0.734,0.018
			c6.073,0.176,10.982,2.349,11.563,5.191l6.108,31.548c2.162-1.697,6.143-2.814,10.647-2.814h60.978c6.15,0,11.3,2.041,12.23,4.854
			l0.2,0.591l13.17-73.404c0.539-2.998,5.85-5.258,12.356-5.258c6.488,0,11.784,2.269,12.321,5.276l13.834,81.625l1.795-8.51
			c0.624-2.949,5.922-5.173,12.324-5.173h30.949c11.955-16.027,19.347-30.958,18.591-44.172c0.009-0.328,0.024-0.655,0.024-0.986
			c0-2.41-0.217-4.768-0.611-7.065c-1.18-16.118-12.582-35.855-29.447-48.045c-13.943-10.076-51.262-28.272-97.889,18.737
			C95.105,12.111,57.785,30.307,43.842,40.383C26.977,52.573,15.575,72.31,14.395,88.428c-0.395,2.297-0.612,4.655-0.612,7.065
			c0,0.331,0.018,0.658,0.025,0.986c-0.767,13.401,6.838,28.566,19.093,44.851l6.622-29.489
			C40.178,108.916,45.474,106.709,51.844,106.709z"/>
		<path d="M212.705,183.671c12.522-12.727,24.213-25.145,33.715-37.021h-25.896L212.705,183.671z"/>
	</g>
</g>
</svg>
