<?xml version="1.0" encoding="UTF-8" standalone="no"?><!DOCTYPE svg PUBLIC "-//W3C//DTD SVG 1.1//EN" "http://www.w3.org/Graphics/SVG/1.1/DTD/svg11.dtd"><svg width="100%" height="100%" viewBox="0 0 130 125" version="1.1" xmlns="http://www.w3.org/2000/svg" xmlns:xlink="http://www.w3.org/1999/xlink" xml:space="preserve" xmlns:serif="http://www.serif.com/" style="fill-rule:evenodd;clip-rule:evenodd;stroke-linejoin:round;stroke-miterlimit:2;"><rect id="help" x="3.972" y="0.007" width="125" height="125" style="fill:none;"/><clipPath id="_clip1"><rect x="3.972" y="0.007" width="125" height="125"/></clipPath><g clip-path="url(#_clip1)"><path d="M128.972,4.234c0,-2.335 -1.892,-4.227 -4.227,-4.227c-17.99,-0 -98.556,-0 -116.546,-0c-2.334,-0 -4.227,1.892 -4.227,4.227c0,13.344 0,103.202 0,116.546c0,2.334 1.893,4.227 4.227,4.227c17.99,-0 98.556,-0 116.546,-0c2.335,-0 4.227,-1.893 4.227,-4.227c0,-13.344 0,-103.202 0,-116.546Zm-71.899,85.366l15.343,-0l0,16.449l-15.343,0l-0,-16.449Zm0.414,-14.791c0,-3.133 0.231,-5.598 0.691,-7.395c0.461,-1.797 1.521,-3.525 3.18,-5.184c1.658,-1.658 4.377,-3.594 8.155,-5.805l3.594,-2.074c3.318,-1.843 5.552,-3.525 6.704,-5.045c1.152,-1.521 1.728,-3.479 1.728,-5.875c0,-3.041 -1.221,-5.368 -3.663,-6.981c-2.442,-1.612 -6.151,-2.419 -11.127,-2.419c-5.069,0 -9.008,0.922 -11.819,2.765c-2.811,1.843 -4.216,4.562 -4.216,8.156l-0,1.797l-16.311,-0l-0,-1.659c-0,-8.018 2.995,-14.376 8.985,-19.076c5.99,-4.7 13.961,-7.05 23.914,-7.05c9.676,0 17.301,2.166 22.877,6.497c5.575,4.331 8.362,10.367 8.362,18.108c0,4.7 -1.036,8.455 -3.11,11.266c-2.073,2.811 -5.322,5.506 -9.745,8.086l-3.041,1.797c-3.133,1.843 -5.391,3.341 -6.773,4.493c-1.383,1.152 -2.304,2.235 -2.765,3.248c-0.461,1.014 -0.691,2.304 -0.691,3.871l0,4.008l-14.929,0l0,-5.529Z"/></g></svg>