<?xml version="1.0" encoding="utf-8"?>
<!-- Generator: Adobe Illustrator 15.1.0, SVG Export Plug-In . SVG Version: 6.00 Build 0)  -->
<!DOCTYPE svg PUBLIC "-//W3C//DTD SVG 1.1//EN" "http://www.w3.org/Graphics/SVG/1.1/DTD/svg11.dtd">
<svg version="1.1" id="Layer_1" xmlns:serif="http://www.serif.com/"
	 xmlns="http://www.w3.org/2000/svg" xmlns:xlink="http://www.w3.org/1999/xlink" x="0px" y="0px" width="283.46px"
	 height="283.46px" viewBox="0 0 283.46 283.46" enable-background="new 0 0 283.46 283.46" xml:space="preserve">
<g>
	<rect x="121.236" y="200.805" fill="none" width="33.455" height="35.867"/>
	<path fill="none" d="M193.423,60.954c-12.158-9.443-28.785-14.167-49.883-14.167c-21.702,0-39.083,5.124-52.144,15.372
		C78.335,72.407,71.805,86.27,71.805,103.753v3.618h35.565v-3.919c0-7.837,3.063-13.765,9.193-17.784
		c6.129-4.018,14.718-6.029,25.771-6.029c10.851,0,18.938,1.76,24.263,5.275c5.324,3.518,7.986,8.591,7.986,15.222
		c0,5.224-1.256,9.493-3.768,12.81c-2.512,3.314-7.383,6.982-14.618,11.001l-7.837,4.522c-8.237,4.82-14.166,9.042-17.781,12.657
		c-3.617,3.618-5.929,7.386-6.934,11.304c-1.003,3.918-1.507,9.293-1.507,16.125v12.055h32.552v-8.738
		c0-3.417,0.502-6.23,1.507-8.441c1.005-2.209,3.014-4.57,6.029-7.082c3.013-2.512,7.937-5.777,14.769-9.797l6.631-3.918
		c9.644-5.625,16.729-11.502,21.248-17.631c4.522-6.129,6.781-14.317,6.781-24.565C211.656,83.558,205.58,70.397,193.423,60.954z"/>
	<path d="M268.792,5.452H14.668c-5.089,0-9.217,4.125-9.217,9.217v254.124c0,5.089,4.128,9.217,9.217,9.217h254.124
		c5.092,0,9.217-4.128,9.217-9.217V14.668C278.009,9.577,273.884,5.452,268.792,5.452z M154.691,236.672h-33.455v-35.867h33.455
		V236.672z M204.875,125.002c-4.52,6.129-11.604,12.006-21.248,17.631l-6.631,3.918c-6.832,4.02-11.756,7.285-14.769,9.797
		c-3.016,2.512-5.024,4.873-6.029,7.082c-1.005,2.211-1.507,5.024-1.507,8.441v8.738h-32.552v-12.055
		c0-6.832,0.504-12.207,1.507-16.125c1.005-3.918,3.316-7.686,6.934-11.304c3.615-3.615,9.544-7.837,17.781-12.657l7.837-4.522
		c7.235-4.019,12.106-7.687,14.618-11.001c2.512-3.316,3.768-7.586,3.768-12.81c0-6.631-2.662-11.704-7.986-15.222
		c-5.325-3.516-13.412-5.275-24.263-5.275c-11.053,0-19.642,2.012-25.771,6.029c-6.13,4.02-9.193,9.947-9.193,17.784v3.919H71.805
		v-3.618c0-17.483,6.53-31.347,19.592-41.595c13.061-10.248,30.441-15.372,52.144-15.372c21.098,0,37.725,4.724,49.883,14.167
		c12.156,9.443,18.232,22.604,18.232,39.483C211.656,110.685,209.397,118.874,204.875,125.002z"/>
</g>
</svg>
