<?xml version="1.0" encoding="utf-8"?>
<!-- Generator: Adobe Illustrator 15.1.0, SVG Export Plug-In . SVG Version: 6.00 Build 0)  -->
<!DOCTYPE svg PUBLIC "-//W3C//DTD SVG 1.1//EN" "http://www.w3.org/Graphics/SVG/1.1/DTD/svg11.dtd">
<svg version="1.1" id="Layer_1" xmlns="http://www.w3.org/2000/svg" xmlns:xlink="http://www.w3.org/1999/xlink" x="0px" y="0px"
	 width="283.46px" height="283.46px" viewBox="0 0 283.46 283.46" enable-background="new 0 0 283.46 283.46" xml:space="preserve">
<g>
	<polygon fill="none" points="293.315,26.999 283.074,44.732 293.315,62.466 313.737,62.466 323.976,44.733 313.737,26.999 	"/>
	<path fill="none" d="M274.164,166.136h3.661l10.237-17.733l-10.238-17.735h-1.902c0.297,3.649,0.455,7.337,0.455,11.062
		C276.376,150.065,275.614,158.22,274.164,166.136z"/>
	<polygon fill="none" points="293.315,68.466 283.075,86.202 293.313,103.934 313.684,103.934 323.95,86.153 313.736,68.466 	"/>
	<polygon fill="none" points="313.683,145.403 323.921,127.668 313.684,109.935 293.313,109.935 283.075,127.668 293.313,145.403 	
		"/>
	<path fill="none" d="M98.531,269.807l0.248-0.43c-9.653-3.247-18.816-7.561-27.352-12.796l7.638,13.226H98.531z"/>
	<path fill="none" d="M170.25,311.275l10.238-17.734l-10.238-17.733h-16.17c-1.457,0.133-2.921,0.243-4.392,0.329l-10.049,17.404
		l10.24,17.734H170.25z"/>
	<path fill="none" d="M134.391,290.541l8.184-14.175c-0.282,0.002-0.563,0.011-0.845,0.011c-12.561,0-24.718-1.726-36.253-4.943
		l-0.793,1.374l10.237,17.733H134.391z"/>
	<polygon fill="none" points="134.391,0.265 144.629,-17.469 134.391,-35.203 113.967,-35.203 103.728,-17.469 113.967,0.265 	"/>
	<polygon fill="none" points="185.739,0.265 206.105,0.265 216.373,-17.518 206.162,-35.203 185.739,-35.203 175.499,-17.469 	"/>
	<polygon fill="none" points="170.25,-20.469 180.516,-38.251 170.303,-55.937 149.826,-55.937 139.613,-38.249 149.879,-20.469 	
		"/>
	<polygon fill="none" points="221.596,20.999 241.965,20.999 252.204,3.265 241.965,-14.469 221.597,-14.469 211.359,3.265 	"/>
	<polygon fill="none" points="277.825,0.264 288.091,-17.518 277.878,-35.204 257.4,-35.204 247.187,-17.514 257.454,0.264 	"/>
	<polygon fill="none" points="293.315,20.999 313.737,20.999 323.976,3.264 313.737,-14.469 293.315,-14.469 283.074,3.265 	"/>
	<polygon fill="none" points="43.206,290.542 63.575,290.542 73.814,272.807 63.576,255.074 43.205,255.074 32.965,272.807 	"/>
	<path fill="none" d="M134.391,6.265h-20.424l-2.437,4.222c7.586-1.739,15.417-2.837,23.432-3.234L134.391,6.265z"/>
	<polygon fill="none" points="-28.514,47.734 -38.753,65.467 -28.513,83.202 -8.144,83.202 2.096,65.467 -8.144,47.734 	"/>
	<path fill="none" d="M277.825,47.733h-20.37l-7.79,13.488c5.119,6.852,9.601,14.208,13.357,21.98h14.802l10.239-17.736
		L277.825,47.733z"/>
	<path fill="none" d="M277.825,124.668l10.238-17.733l-10.238-17.733h-12.081c4.723,11.135,7.989,23.037,9.561,35.467H277.825z"/>
	<path fill="none" d="M12.47,103.935c3.527-12.081,8.7-23.458,15.262-33.874l-0.921-1.595H7.347l-10.24,17.734l10.24,17.734H12.47z"
		/>
	<path fill="none" d="M36.33,225.514l-3.364,5.826l10.239,17.732h17.241C51.458,242.255,43.352,234.336,36.33,225.514z"/>
	<polygon fill="none" points="329.172,124.668 349.595,124.668 359.834,106.934 349.595,89.201 329.172,89.201 318.932,106.935 	"/>
	<path fill="none" d="M7.125,145.024c-0.026-1.095-0.042-2.192-0.042-3.294c0-10.954,1.318-21.6,3.786-31.795H7.347l-10.24,17.735
		L7.125,145.024z"/>
	<path fill="none" d="M149.879-14.468L139.64,3.265l2.206,3.82c11.721,0.01,23.09,1.52,33.929,4.344l4.713-8.165L170.25-14.468
		H149.879z"/>
	<path fill="none" d="M7.346,186.873h7.502c-3.99-11.214-6.538-23.109-7.415-35.469H7.344l-10.238,17.733L7.346,186.873z"/>
	<path fill="none" d="M221.597,26.999l-2.581,4.47c9.945,6.984,18.907,15.274,26.626,24.629l6.562-11.365l-10.238-17.734H221.597z"
		/>
	<path fill="none" d="M185.739,6.265l-3.968,6.873c11.471,3.568,22.281,8.631,32.209,14.957l2.364-4.096L206.106,6.265H185.739z"/>
	<polygon fill="none" points="277.825,6.265 257.454,6.265 247.213,24 257.455,41.733 277.825,41.733 288.063,23.999 	"/>
	<path fill="none" d="M272.929,172.136c-2.906,12.592-7.587,24.502-13.751,35.468h18.7l10.212-17.686l-10.267-17.782H272.929z"/>
	<polygon fill="none" points="293.313,151.403 283.075,169.135 293.314,186.871 313.738,186.871 323.95,169.184 313.684,151.403 	
		"/>
	<polygon fill="none" points="185.739,296.541 175.5,314.273 185.739,332.007 206.162,332.007 216.401,314.275 206.162,296.541 	"/>
	<polygon fill="none" points="149.879,317.275 139.613,335.052 149.826,352.744 170.304,352.744 180.516,335.054 170.25,317.275 	
		"/>
	<polygon fill="none" points="329.172,130.668 318.934,148.401 329.172,166.136 349.595,166.136 359.834,148.403 349.595,130.668 	
		"/>
	<path fill="none" d="M27.715,228.339l4.652-8.058c-6.083-8.455-11.208-17.645-15.221-27.409H7.346L-2.92,210.651l10.212,17.688
		H27.715z"/>
	<polygon fill="none" points="257.456,213.604 247.215,231.337 257.456,249.072 277.878,249.072 288.118,231.337 277.878,213.604 	
		"/>
	<polygon fill="none" points="98.532,275.807 79.065,275.807 68.825,293.542 79.065,311.275 98.531,311.275 108.77,293.541 	"/>
	<polygon fill="none" points="43.206,296.542 32.939,314.321 43.151,332.009 63.629,332.009 73.841,314.323 63.575,296.542 	"/>
	<polygon fill="none" points="27.715,275.807 7.292,275.807 -2.947,293.542 7.292,311.275 27.716,311.275 37.955,293.542 	"/>
	<polygon fill="none" points="27.715,269.807 37.955,252.074 27.715,234.339 7.292,234.339 -2.947,252.073 7.292,269.807 	"/>
	<polygon fill="none" points="134.391,296.541 114.923,296.541 104.206,315.103 113.966,332.007 134.391,332.007 144.628,314.275 	
		"/>
	<path fill="none" d="M175.978,271.976l-0.479,0.83l10.24,17.734h20.423l10.212-17.687l-8.108-14.045
		C198.237,264.52,187.404,268.979,175.978,271.976z"/>
	<polygon fill="none" points="7.347,62.467 26.811,62.467 37.529,43.904 27.769,27 7.347,27 -2.894,44.733 	"/>
	<path fill="none" d="M43.205,47.733l-3.631,6.289c1.854-2.158,3.779-4.253,5.764-6.289H43.205z"/>
	<polygon fill="none" points="-8.144,172.137 -28.567,172.137 -38.807,189.873 -28.567,207.605 -8.143,207.605 2.096,189.873 	"/>
	<path fill="none" d="M239.467,234.337c-7.729,8.154-16.469,15.338-26.017,21.359l8.146,14.109h20.423l10.214-17.688l-10.268-17.781
		H239.467z"/>
	<polygon fill="none" points="-8.144,41.733 2.124,23.952 -8.09,6.265 -28.567,6.265 -38.779,23.954 -28.514,41.733 	"/>
	<polygon fill="none" points="-44.002,62.467 -33.763,44.733 -44.002,27 -64.426,27 -74.665,44.733 -64.426,62.467 	"/>
	<polygon fill="none" points="-8.143,166.137 2.096,148.403 -8.143,130.669 -28.567,130.669 -38.807,148.403 -28.567,166.137 	"/>
	<polygon fill="none" points="-8.143,124.669 2.096,106.935 -8.144,89.202 -28.513,89.202 -38.779,106.981 -28.567,124.669 	"/>
	<polygon fill="none" points="-44.002,68.467 -64.426,68.467 -74.665,86.202 -64.426,103.935 -44.002,103.935 -33.763,86.202 	"/>
	<path fill="#231F20" d="M149.878,275.807l-0.19,0.329c1.471-0.086,2.935-0.196,4.392-0.329H149.878z"/>
	<polygon fill="#231F20" points="114.019,47.733 103.779,65.467 114.019,83.201 134.39,83.201 144.628,65.467 134.391,47.733 	"/>
	<path fill="#231F20" d="M37.955,210.605l-10.24-17.732H17.147c4.013,9.765,9.137,18.954,15.221,27.409L37.955,210.605z"/>
	<path fill="#231F20" d="M142.575,276.366l2.055-3.56l-10.238-17.733h-19.469l-9.445,16.36c11.535,3.218,23.692,4.943,36.253,4.943
		C142.012,276.376,142.292,276.368,142.575,276.366z"/>
	<path fill="#231F20" d="M71.146,27.055c-6.973,4.301-13.524,9.217-19.577,14.678H62.67L71.146,27.055z"/>
	<path fill="#231F20" d="M206.108,255.073h-20.369l-9.761,16.903c11.426-2.997,22.259-7.456,32.287-13.167L206.108,255.073z"/>
	<path fill="#231F20" d="M26.811,103.935l10.24-17.734l-9.319-16.14c-6.563,10.416-11.735,21.792-15.262,33.874H26.811z"/>
	<polygon fill="#231F20" points="241.965,228.337 252.206,210.604 241.965,192.871 221.594,192.871 211.356,210.605 
		221.596,228.337 	"/>
	<path fill="#231F20" d="M103.358,12.642c-7.38,2.19-14.494,4.996-21.285,8.357h16.46L103.358,12.642z"/>
	<polygon fill="#231F20" points="241.965,151.403 221.598,151.403 211.358,169.139 221.595,186.871 241.965,186.871 
		252.205,169.138 	"/>
	<polygon fill="#231F20" points="149.875,62.467 170.25,62.467 180.488,44.733 170.25,27 149.879,27 139.639,44.735 	"/>
	<path fill="#231F20" d="M149.879,21h20.37l5.525-9.57c-10.839-2.824-22.208-4.334-33.929-4.344L149.879,21z"/>
	<polygon fill="#231F20" points="170.248,234.337 149.879,234.337 139.639,252.074 149.878,269.806 170.25,269.806 180.488,252.074 
			"/>
	<polygon fill="#231F20" points="79.064,228.337 98.531,228.337 108.77,210.605 98.531,192.871 79.064,192.871 68.824,210.605 	"/>
	<path fill="#231F20" d="M257.456,172.136l-10.24,17.734l10.24,17.733h1.723c6.164-10.966,10.845-22.876,13.751-35.468H257.456z"/>
	<polygon fill="#231F20" points="98.529,62.467 108.77,44.73 98.532,26.999 78.106,26.999 67.894,44.687 78.16,62.467 	"/>
	<polygon fill="#231F20" points="43.206,130.669 32.965,148.403 43.206,166.137 62.671,166.137 72.911,148.404 62.671,130.669 	"/>
	<path fill="#231F20" d="M43.204,83.201H62.67l10.24-17.734L62.67,47.733H45.337c-1.985,2.036-3.91,4.131-5.764,6.289l-6.608,11.445
		L43.204,83.201z"/>
	<polygon fill="#231F20" points="206.107,249.072 216.345,231.337 206.108,213.604 185.738,213.604 175.5,231.337 185.739,249.072 	
		"/>
	<path fill="#231F20" d="M60.446,249.073h3.129l9.788-16.952l-10.691-18.516H43.206l-6.876,11.909
		C43.352,234.336,51.458,242.255,60.446,249.073z"/>
	<path fill="#231F20" d="M175.5,23.999l10.238,17.734h20.367l7.874-13.638c-9.928-6.326-20.738-11.389-32.209-14.957L175.5,23.999z"
		/>
	<polygon fill="#231F20" points="170.25,109.935 149.876,109.935 139.639,127.667 149.879,145.403 170.25,145.403 180.488,127.669 	
		"/>
	<polygon fill="#231F20" points="241.964,103.935 252.204,86.201 241.966,68.467 221.598,68.467 211.357,86.202 221.598,103.935 	
		"/>
	<polygon fill="#231F20" points="206.108,130.669 185.737,130.669 175.5,148.403 185.737,166.136 206.107,166.136 216.346,148.402 	
		"/>
	<polygon fill="#231F20" points="206.108,124.669 216.346,106.935 206.108,89.202 185.737,89.202 175.5,106.935 185.737,124.669 	
		"/>
	<polygon fill="#231F20" points="241.965,145.402 252.203,127.668 241.965,109.935 221.598,109.935 211.358,127.667 
		221.598,145.402 	"/>
	<polygon fill="#231F20" points="98.531,186.871 108.77,169.136 98.531,151.403 79.063,151.403 68.824,169.137 79.062,186.871 	"/>
	<polygon fill="#231F20" points="149.876,68.467 139.638,86.201 149.876,103.935 170.25,103.935 180.489,86.202 170.25,68.467 	"/>
	<polygon fill="#231F20" points="170.249,228.337 180.486,210.604 170.249,192.871 149.879,192.871 139.64,210.604 149.879,228.337 
			"/>
	<polygon fill="#231F20" points="62.671,207.605 72.911,189.871 62.672,172.137 43.206,172.137 32.966,189.872 43.206,207.605 	"/>
	<polygon fill="#231F20" points="43.205,89.201 32.965,106.935 43.206,124.668 62.671,124.668 72.91,106.935 62.67,89.201 	"/>
	<polygon fill="#231F20" points="78.16,68.467 67.92,86.201 78.16,103.935 98.529,103.935 108.768,86.201 98.529,68.467 	"/>
	<polygon fill="#231F20" points="114.019,89.201 103.779,106.935 114.019,124.668 134.39,124.668 144.628,106.935 134.39,89.201 	
		"/>
	<path fill="#231F20" d="M7.125,145.024l0.219,0.379h20.37l9.788-16.952l-10.692-18.516H10.87
		c-2.468,10.195-3.786,20.841-3.786,31.795C7.084,142.832,7.099,143.929,7.125,145.024z"/>
	<polygon fill="#231F20" points="185.739,47.733 175.5,65.468 185.738,83.201 206.108,83.201 216.346,65.468 206.106,47.733 	"/>
	<path fill="#231F20" d="M239.467,234.337h-17.871l-10.239,17.732l2.094,3.627C222.999,249.675,231.738,242.492,239.467,234.337z"/>
	<path fill="#231F20" d="M27.714,186.873l10.24-17.735l-10.239-17.733H7.433c0.877,12.359,3.425,24.255,7.415,35.469H27.714z"/>
	<path fill="#231F20" d="M274.164,166.136c1.45-7.916,2.213-16.071,2.213-24.406c0-3.725-0.158-7.413-0.455-11.062h-18.466
		l-10.239,17.735l10.239,17.733H274.164z"/>
	<path fill="#231F20" d="M219.016,31.469l-7.658,13.266l10.239,17.731h20.369l3.676-6.368
		C237.923,46.743,228.961,38.453,219.016,31.469z"/>
	<path fill="#231F20" d="M108.77,252.073l-10.238-17.733H79.065l-10.241,17.734l2.604,4.508c8.536,5.235,17.698,9.549,27.352,12.796
		L108.77,252.073z"/>
	<polygon fill="#231F20" points="134.391,249.073 144.628,231.337 134.39,213.605 114.021,213.605 104.232,230.556 114.922,249.073 
			"/>
	<path fill="#231F20" d="M275.304,124.668c-1.571-12.43-4.838-24.332-9.561-35.467h-8.289l-10.238,17.734l10.238,17.733H275.304z"/>
	<polygon fill="#231F20" points="144.628,148.403 134.389,130.668 114.019,130.668 103.78,148.402 114.02,166.136 134.39,166.136 	
		"/>
	<path fill="#231F20" d="M247.214,65.464l10.24,17.737h5.567c-3.757-7.772-8.238-15.128-13.357-21.98L247.214,65.464z"/>
	<polygon fill="#231F20" points="206.108,207.604 216.345,189.871 206.108,172.137 185.737,172.137 175.5,189.871 185.737,207.604 	
		"/>
	<polygon fill="#231F20" points="170.248,186.871 180.487,169.135 170.25,151.403 149.879,151.403 139.639,169.136 149.879,186.871 
			"/>
	<path fill="#231F20" d="M134.391,41.733L144.628,24l-9.667-16.747c-8.015,0.397-15.846,1.495-23.432,3.234l-7.776,13.468
		l10.265,17.778H134.391z"/>
	<polygon fill="#231F20" points="78.16,109.935 68.372,126.886 79.063,145.403 98.531,145.403 108.769,127.67 98.529,109.935 	"/>
	<polygon fill="#231F20" points="114.021,207.605 134.39,207.605 144.628,189.871 134.39,172.137 114.02,172.137 103.78,189.871 	
		"/>
</g>
</svg>
