<?xml version="1.0" encoding="utf-8"?>
<!-- Generator: Adobe Illustrator 15.1.0, SVG Export Plug-In . SVG Version: 6.00 Build 0)  -->
<!DOCTYPE svg PUBLIC "-//W3C//DTD SVG 1.1//EN" "http://www.w3.org/Graphics/SVG/1.1/DTD/svg11.dtd">
<svg version="1.1" id="Layer_1" xmlns="http://www.w3.org/2000/svg" xmlns:xlink="http://www.w3.org/1999/xlink" x="0px" y="0px"
	 width="283.46px" height="283.46px" viewBox="0 0 283.46 283.46" enable-background="new 0 0 283.46 283.46" xml:space="preserve">
<g>
	<path d="M271.292,99.212l-28.015-48.52h-48.986l-24.551-42.52h-56.024L89.167,50.691H40.181l-28.013,48.52l24.549,42.521
		L12.168,184.25l28.013,48.521h48.988l24.549,42.519h56.024l24.551-42.519h48.985l28.015-48.521l-24.551-42.518L271.292,99.212z
		 M120.645,263.289L99.561,226.77l21.085-36.521h42.058l21.141,36.616l-21.03,36.423H120.645z M162.813,20.172l21.031,36.425
		l-21.14,36.614h-42.06L99.56,56.691l21.084-36.519H162.813z M99.561,141.731l21.084-36.519h42.059l21.086,36.52l-21.085,36.518
		h-42.06L99.561,141.731z M194.181,135.731l-21.085-36.519l21.085-36.52h42.169l21.085,36.52l-21.085,36.519H194.181z
		 M110.252,99.212l-21.084,36.519H47.109l-21.085-36.52l21.085-36.52h42.058L110.252,99.212z M47.109,147.731h42.06l21.084,36.519
		L89.168,220.77H47.109L26.024,184.25L47.109,147.731z M173.096,184.25l21.085-36.518h42.169l21.085,36.518L236.35,220.77h-42.169
		L173.096,184.25z"/>
</g>
</svg>
