<?xml version="1.0" encoding="utf-8"?>
<!-- Generator: Adobe Illustrator 15.1.0, SVG Export Plug-In . SVG Version: 6.00 Build 0)  -->
<!DOCTYPE svg PUBLIC "-//W3C//DTD SVG 1.1//EN" "http://www.w3.org/Graphics/SVG/1.1/DTD/svg11.dtd">
<svg version="1.1" id="Layer_1" xmlns="http://www.w3.org/2000/svg" xmlns:xlink="http://www.w3.org/1999/xlink" x="0px" y="0px"
	 width="283.46px" height="283.46px" viewBox="0 0 283.46 283.46" enable-background="new 0 0 283.46 283.46" xml:space="preserve">
<g>
	<polygon fill="#231F20" points="120.905,105.488 99.98,141.73 120.906,177.973 162.555,177.973 183.479,141.73 162.555,105.488 	
		"/>
	<polygon fill="#231F20" points="167.851,102.487 188.778,138.73 230.525,138.73 251.452,102.487 230.525,66.243 188.778,66.243 	
		"/>
	<polygon fill="#231F20" points="120.906,99.487 162.555,99.487 183.531,63.154 162.655,26.999 120.805,26.999 99.93,63.156 	"/>
	<polygon fill="#231F20" points="115.609,180.975 94.684,144.73 52.934,144.73 32.007,180.974 52.934,217.216 94.684,217.216 	"/>
	<polygon fill="#231F20" points="162.555,183.974 120.907,183.974 99.93,220.303 120.806,256.46 162.656,256.46 183.531,220.306 	
		"/>
	<polygon fill="#231F20" points="94.684,138.73 115.609,102.487 94.684,66.243 52.934,66.243 32.007,102.487 52.934,138.73 	"/>
	<polygon fill="#231F20" points="230.525,144.73 188.778,144.73 167.852,180.973 188.778,217.216 230.526,217.216 251.454,180.974 	
		"/>
	<path fill="#231F20" d="M141.73,7.084C67.367,7.084,7.084,67.367,7.084,141.73c0,74.363,60.283,134.646,134.646,134.646
		c74.363,0,134.646-60.283,134.646-134.646C276.376,67.367,216.093,7.084,141.73,7.084z M233.989,223.216h-45.211l-22.657,39.244
		h-48.778l-22.659-39.244H49.47l-24.392-42.242l22.659-39.244l-22.659-39.243L49.47,60.243h45.214l22.657-39.244h48.779
		l22.658,39.244h45.212l24.39,42.244l-22.657,39.243l22.659,39.244L233.989,223.216z"/>
</g>
</svg>
