<?xml version="1.0" encoding="utf-8"?>
<!-- Generator: Adobe Illustrator 15.1.0, SVG Export Plug-In . SVG Version: 6.00 Build 0)  -->
<!DOCTYPE svg PUBLIC "-//W3C//DTD SVG 1.1//EN" "http://www.w3.org/Graphics/SVG/1.1/DTD/svg11.dtd">
<svg version="1.1" id="Layer_1" xmlns="http://www.w3.org/2000/svg" xmlns:xlink="http://www.w3.org/1999/xlink" x="0px" y="0px"
	 width="283.46px" height="283.46px" viewBox="0 0 283.46 283.46" enable-background="new 0 0 283.46 283.46" xml:space="preserve">
<g>
	<polygon fill="#231F20" points="139.398,138.73 160.358,102.398 139.499,66.243 97.649,66.243 76.725,102.487 97.649,138.73 	"/>
	<path fill="#231F20" d="M141.73,7.084C67.367,7.084,7.084,67.367,7.084,141.73c0,74.363,60.283,134.646,134.646,134.646
		c74.363,0,134.646-60.283,134.646-134.646C276.376,67.367,216.093,7.084,141.73,7.084z M210.816,183.974h-45.21l-22.642,39.244
		H94.185l-24.388-42.244l22.656-39.244l-22.656-39.244l24.388-42.244h48.779l22.642,39.244h45.21l24.39,42.243L210.816,183.974z"/>
	<polygon fill="#231F20" points="165.606,105.487 144.695,141.73 165.606,177.974 207.351,177.974 228.278,141.73 207.351,105.487 	
		"/>
	<polygon fill="#231F20" points="139.399,144.731 97.649,144.731 76.725,180.974 97.649,217.218 139.499,217.218 160.358,181.062 	
		"/>
</g>
</svg>
