<?xml version="1.0" encoding="utf-8"?>
<!-- Generator: Adobe Illustrator 15.1.0, SVG Export Plug-In . SVG Version: 6.00 Build 0)  -->
<!DOCTYPE svg PUBLIC "-//W3C//DTD SVG 1.1//EN" "http://www.w3.org/Graphics/SVG/1.1/DTD/svg11.dtd">
<svg version="1.1" id="Layer_1" xmlns="http://www.w3.org/2000/svg" xmlns:xlink="http://www.w3.org/1999/xlink" x="0px" y="0px"
	 width="283.46px" height="283.46px" viewBox="0 0 283.46 283.46" enable-background="new 0 0 283.46 283.46" xml:space="preserve">
<g>
	<path d="M276.376,119.029l-28.063-48.605h-52.307l-26.215-45.402h-56.124L87.457,70.424H35.147L7.084,119.029l26.214,45.402
		L7.084,209.833l28.063,48.605h56.125l26.214-45.402h52.306l26.215-45.402h52.307L276.376,119.029z M38.846,252.031l-24.363-42.197
		l24.363-42.199h48.611l24.423,42.303l-24.307,42.094H38.846z M166.093,31.429L190.4,73.524l-24.424,42.302h-48.608L93.004,73.627
		l24.364-42.199H166.093z M111.82,119.029l-24.363,42.199H38.846l-24.363-42.199l24.363-42.199h48.611L111.82,119.029z
		 M93.004,164.431l24.364-42.197h48.608l24.424,42.301l-24.307,42.096h-48.725L93.004,164.431z M171.525,119.029l24.363-42.199
		h48.727l24.363,42.199l-24.363,42.199h-48.727L171.525,119.029z"/>
</g>
</svg>
