<?xml version="1.0" encoding="utf-8"?>
<!-- Generator: Adobe Illustrator 15.1.0, SVG Export Plug-In . SVG Version: 6.00 Build 0)  -->
<!DOCTYPE svg PUBLIC "-//W3C//DTD SVG 1.1//EN" "http://www.w3.org/Graphics/SVG/1.1/DTD/svg11.dtd">
<svg version="1.1" id="Layer_2" xmlns="http://www.w3.org/2000/svg" xmlns:xlink="http://www.w3.org/1999/xlink" x="0px" y="0px"
	 width="283.465px" height="283.465px" viewBox="0 0 283.465 283.465" enable-background="new 0 0 283.465 283.465"
	 xml:space="preserve">
<path fill="#231F20" d="M275.697,140.383L170.18,36.414c-0.916-0.922-2.404-0.924-3.326-0.008c-0.002,0.002-0.006,0.004-0.008,0.008
	l-71.068,70.027c-0.932,0.922-0.943,2.424-0.029,3.363l0.029,0.029l11.908,11.732l-34.893,34.328
	c-0.932,0.924-0.945,2.424-0.031,3.363l0.031,0.029l11.76,11.582l-55.408,54.793L7.086,247.744h22.059h14.082h71.486
	c0.625,0,1.221-0.238,1.666-0.686l22.658-22.51l12.029,11.852c0.916,0.92,2.404,0.924,3.324,0.008
	c0.004-0.002,0.006-0.006,0.01-0.008l34.863-34.418l11.939,11.76c0.916,0.922,2.404,0.926,3.326,0.01
	c0.002-0.004,0.006-0.006,0.008-0.01l71.068-70.025C276.621,142.824,276.621,141.334,275.697,140.383z"/>
</svg>
