<?xml version="1.0" encoding="utf-8"?>
<!-- Generator: Adobe Illustrator 15.1.0, SVG Export Plug-In . SVG Version: 6.00 Build 0)  -->
<!DOCTYPE svg PUBLIC "-//W3C//DTD SVG 1.1//EN" "http://www.w3.org/Graphics/SVG/1.1/DTD/svg11.dtd">
<svg version="1.1" id="Layer_2_1_" xmlns="http://www.w3.org/2000/svg" xmlns:xlink="http://www.w3.org/1999/xlink" x="0px" y="0px"
	 width="283.465px" height="283.465px" viewBox="0 0 283.465 283.465" enable-background="new 0 0 283.465 283.465"
	 xml:space="preserve">
<g>
	<path d="M276.12,67.346c-22.345-12.177-44.991-18.352-67.313-18.352c-22.063,0-44.444,6.041-66.536,17.938
		c-0.167-0.064-0.347-0.104-0.538-0.104s-0.371,0.039-0.538,0.104C119.111,55.034,96.731,48.994,74.66,48.994
		c-22.33,0-44.978,6.175-67.312,18.352c-0.16,0.087-0.26,0.255-0.26,0.438v166.162c0,0.173,0.089,0.333,0.236,0.424
		c0.146,0.092,0.33,0.1,0.485,0.021c22.207-11.092,44.699-16.717,66.851-16.717c21.852,0,44.037,5.488,65.953,16.284
		c0.275,0.312,0.672,0.512,1.121,0.512c0.448,0,0.845-0.2,1.12-0.512c21.925-10.796,44.108-16.284,65.954-16.284
		c22.144,0,44.635,5.625,66.852,16.717c0.152,0.076,0.339,0.066,0.484-0.021c0.146-0.091,0.234-0.251,0.234-0.424V67.784
		C276.38,67.601,276.279,67.434,276.12,67.346z M143.232,142.799c0-0.021-0.006-0.039-0.006-0.06v-29.771
		c0-0.021,0.006-0.04,0.006-0.06c0.016-1.046,0.425-2.028,1.165-2.769c0.757-0.755,1.761-1.171,2.829-1.171h2.304
		c2.207,0,4.001,1.794,4.001,4v27.597c3.13,3.052,15.795,15.393,19.764,19.261c1.579,1.543,1.61,4.08,0.073,5.658l-1.609,1.65
		c-0.734,0.754-1.762,1.194-2.815,1.206h-0.05c-1.047,0-2.038-0.402-2.787-1.133l-21.324-20.778
		C143.794,145.467,143.248,144.179,143.232,142.799z M196.464,177.543c-2.815,3.736-6.084,7.145-9.715,10.13
		c-9.972,8.208-22.061,12.863-34.962,13.463c-2.082,0.096-4.029-0.874-5.205-2.594c-1.178-1.718-1.378-3.882-0.534-5.79
		c0.231-0.519,0.463-1.034,0.699-1.558c0.178-0.39,0.4-0.759,0.657-1.102c1.063-1.41,2.671-2.279,4.415-2.385
		c9.743-0.59,18.877-4.181,26.414-10.381c2.819-2.32,5.351-4.96,7.527-7.849c12.855-17.061,12.353-40.5-1.223-57
		c-2.744-3.335-5.924-6.26-9.451-8.689c-6.367-4.389-13.86-7.109-21.666-7.868c-3.436-0.334-6.847-0.275-10.188,0.134
		c-1.006,0.124-2.007,0.274-3,0.463c-7.475,1.425-14.511,4.696-20.54,9.655c-2.816,2.317-5.348,4.957-7.524,7.845
		c-3.127,4.149-5.496,8.736-7.062,13.666l13.281,0.021c0.651,0,1.252,0.349,1.576,0.913c0.324,0.563,0.323,1.258-0.003,1.821
		l-20.812,35.915c-0.039,0.066-0.082,0.132-0.128,0.192c-0.605,0.801-1.746,0.962-2.549,0.355c-0.253-0.19-0.442-0.435-0.564-0.703
		L75.296,130.37c-0.325-0.564-0.323-1.259,0.003-1.822c0.325-0.562,0.928-0.908,1.579-0.907l14.331,0.022
		c1.906-7.903,5.353-15.201,10.258-21.71c2.811-3.73,6.079-7.137,9.712-10.127c8.464-6.964,18.462-11.358,29.054-12.903
		c0.995-0.145,1.995-0.263,3-0.357c3.779-0.356,7.621-0.358,11.485,0.018c10.434,1.015,20.4,4.735,28.819,10.76
		c4.216,3.016,8.035,6.589,11.353,10.621c8.519,10.357,13.32,23.449,13.516,36.866C208.597,154.031,204.355,167.07,196.464,177.543z
		"/>
</g>
</svg>
