<?xml version="1.0" encoding="UTF-8" standalone="no"?><!DOCTYPE svg PUBLIC "-//W3C//DTD SVG 1.1//EN" "http://www.w3.org/Graphics/SVG/1.1/DTD/svg11.dtd"><svg width="100%" height="100%" viewBox="0 0 130 125" version="1.1" xmlns="http://www.w3.org/2000/svg" xmlns:xlink="http://www.w3.org/1999/xlink" xml:space="preserve" xmlns:serif="http://www.serif.com/" style="fill-rule:evenodd;clip-rule:evenodd;stroke-linejoin:round;stroke-miterlimit:2;"><rect id="history" x="4.095" y="0.007" width="125" height="125" style="fill:none;"/><path d="M16.256,62.223c0.151,-27.781 22.65,-50.249 50.368,-50.233c27.783,0.016 50.327,22.665 50.31,50.546c-0.016,27.881 -22.586,50.504 -50.369,50.487c-11.596,-0.006 -22.804,-4.03 -31.761,-11.329c-0.581,-0.486 -0.937,-1.187 -0.988,-1.942c-0.051,-0.755 0.209,-1.498 0.719,-2.057c0.674,-0.741 1.431,-1.571 2.108,-2.292c0.993,-1.09 2.667,-1.207 3.802,-0.266c7.385,5.96 16.597,9.237 26.125,9.242c23.029,0.014 41.737,-18.738 41.751,-41.848c0.013,-23.11 -18.673,-41.883 -41.702,-41.897c-22.959,-0.013 -41.598,18.584 -41.749,41.589l7.537,0l-11.851,23.785l-11.851,-23.785l7.551,0Zm47.012,0.284l-0,-35.121c-0,-0.522 0.207,-1.022 0.576,-1.391c0.369,-0.369 0.87,-0.577 1.392,-0.577c0.858,0 1.86,0 2.718,0c1.087,0 1.968,0.881 1.968,1.968c-0,6.688 -0,28.37 -0,32.888c-0,0.53 0.214,1.038 0.594,1.408c3.235,3.153 18.764,18.285 23.554,22.952c0.778,0.759 0.795,2.005 0.036,2.784c-0.598,0.614 -1.298,1.332 -1.897,1.946c-0.364,0.374 -0.862,0.588 -1.384,0.594c-0.522,0.007 -1.025,-0.194 -1.399,-0.558l-25.153,-24.511c-0.62,-0.604 -1.005,-1.449 -1.005,-2.382Z"/></svg>