<?xml version="1.0" encoding="utf-8"?>
<!-- Generator: Adobe Illustrator 15.1.0, SVG Export Plug-In . SVG Version: 6.00 Build 0)  -->
<!DOCTYPE svg PUBLIC "-//W3C//DTD SVG 1.1//EN" "http://www.w3.org/Graphics/SVG/1.1/DTD/svg11.dtd">
<svg version="1.1" id="Layer_5" xmlns="http://www.w3.org/2000/svg" xmlns:xlink="http://www.w3.org/1999/xlink" x="0px" y="0px"
	 width="283.46px" height="283.46px" viewBox="0 0 283.46 283.46" enable-background="new 0 0 283.46 283.46" xml:space="preserve">
<g>
	<path d="M276.364,139.934c-0.396-27.091-10.09-53.528-27.294-74.443c-6.698-8.14-14.41-15.355-22.921-21.445
		c-17.005-12.167-37.13-19.68-58.199-21.729c-31.959-3.11-63.183,6.386-87.918,26.739c-7.337,6.037-13.936,12.917-19.612,20.45
		c-9.905,13.144-16.866,27.879-20.715,43.839l-28.937-0.045c-1.314-0.001-2.531,0.699-3.188,1.833
		c-0.658,1.137-0.661,2.54-0.006,3.679l41.621,72.351c0.246,0.544,0.628,1.038,1.139,1.423c1.622,1.222,3.925,0.899,5.148-0.72
		c0.093-0.122,0.18-0.252,0.259-0.388l42.026-72.523c0.658-1.137,0.661-2.54,0.006-3.678c-0.655-1.139-1.868-1.843-3.182-1.844
		l-26.819-0.043c3.162-9.954,7.946-19.218,14.26-27.596c4.395-5.832,9.508-11.162,15.194-15.84
		c19.155-15.76,43.34-23.114,68.105-20.705c15.765,1.533,30.894,7.026,43.752,15.888c7.121,4.906,13.543,10.811,19.087,17.547
		c27.412,33.319,28.427,80.649,2.466,115.101c-4.394,5.831-9.507,11.163-15.198,15.848c-15.22,12.522-33.666,19.772-53.34,20.965
		c-3.522,0.212-6.771,1.967-8.916,4.813c-0.521,0.692-0.968,1.439-1.326,2.225c-0.479,1.058-0.947,2.099-1.412,3.147
		c-1.704,3.851-1.3,8.223,1.077,11.692c2.376,3.472,6.307,5.43,10.513,5.234c26.049-1.21,50.462-10.61,70.599-27.183
		c7.332-6.029,13.932-12.912,19.617-20.456C268.186,192.921,276.75,166.592,276.364,139.934z"/>
	<path d="M196.576,195.49h0.103c2.127-0.026,4.199-0.915,5.685-2.438l3.248-3.333c3.105-3.187,3.042-8.311-0.147-11.427
		c-8.016-7.807-33.59-32.729-39.911-38.891V83.675c0-4.455-3.623-8.079-8.078-8.079h-4.652c-2.156,0-4.186,0.84-5.712,2.365
		c-1.526,1.525-2.367,3.554-2.367,5.713v60.116c0,2.834,1.118,5.481,3.144,7.451l43.058,41.959
		C192.46,194.676,194.461,195.49,196.576,195.49z"/>
</g>
</svg>
