<?xml version="1.0" encoding="utf-8"?>
<!-- Generator: Adobe Illustrator 15.1.0, SVG Export Plug-In . SVG Version: 6.00 Build 0)  -->
<!DOCTYPE svg PUBLIC "-//W3C//DTD SVG 1.1//EN" "http://www.w3.org/Graphics/SVG/1.1/DTD/svg11.dtd">
<svg version="1.1" id="Layer_7" xmlns="http://www.w3.org/2000/svg" xmlns:xlink="http://www.w3.org/1999/xlink" x="0px" y="0px"
	 width="283.465px" height="283.465px" viewBox="0 0 283.465 283.465" enable-background="new 0 0 283.465 283.465"
	 xml:space="preserve">
<g>
	<path fill="#231F20" d="M141.843,130.924c-4.908,0-9.752,0.096-14.525,0.278l-7.773-58.613c-0.023-0.179-0.142-0.316-0.297-0.384
		l0.009-0.002l-0.019-0.003c-0.07-0.029-0.146-0.048-0.228-0.043l-0.004,0l-12.148-2.237l-12.596,3.23l-0.083,0.01
		c-0.189,0.022-0.325,0.193-0.302,0.378l0.215,1.796l5.669,50.039l-45.19,12.886l-6.908-51.478
		c-0.035-0.262-0.265-0.449-0.532-0.432l-12.398-2.283l-12.158,3.225l-0.259,0.031c-0.186,0.022-0.318,0.192-0.296,0.377
		l0.115,0.959c0.001,0.009-0.003,0.018-0.002,0.027l0.108,0.856l0.209,1.746c0.002,0.02,0.012,0.035,0.018,0.054l7.642,60.657
		c0.004,0.031,0.021,0.058,0.03,0.087c-14.553,7.671-23.053,16.922-23.053,26.88c0,26.533,60.332,48.042,134.756,48.042
		c74.423,0,134.755-21.509,134.755-48.042C276.598,152.433,216.266,130.924,141.843,130.924z M109.03,81.195l6.638-1.805
		c0.277-0.075,0.575-0.028,0.815,0.132s0.4,0.415,0.438,0.701l18.796,141.26c-3.138-0.052-6.259-0.144-9.36-0.272L108.301,82.289
		C108.236,81.793,108.548,81.326,109.03,81.195z M107.553,184.787c3.986-1.001,7.271-1.1,8.561,3.151
		c1.147,3.78-1.587,6.367-5.392,7.092l-47.152,14.06l-1.517-11.299l45.463-12.967l0.051,0.016L107.553,184.787z M100.514,130.342
		c0.997-0.25,2.146-0.537,3.035-0.621s1.714-0.057,2.454,0.134s1.396,0.545,1.948,1.119c0.552,0.573,0.999,1.363,1.321,2.426
		c0.294,0.968,0.333,1.859,0.166,2.66c-0.168,0.801-0.543,1.513-1.079,2.124s-1.23,1.121-2.039,1.518
		c-0.688,0.339-1.471,0.577-2.294,0.746l-47.758,14.242l-1.517-11.299L100.514,130.342z M36.696,97.48l6.634-1.917
		c0.278-0.08,0.581-0.036,0.824,0.124c0.244,0.159,0.406,0.416,0.445,0.704l15.35,114.269c0.036,0.103,0.055,0.213,0.055,0.328
		c0,0.179-0.063,0.338-0.148,0.484c-3.261-0.91-6.406-1.879-9.43-2.9c-0.01-0.039-0.026-0.074-0.032-0.114L35.981,98.571
		C35.917,98.081,36.221,97.617,36.696,97.48z M135.107,225.482c-0.022,0-0.045-0.009-0.067-0.01c0.041,0,0.082,0.001,0.122,0.001
		c-0.015,0.001-0.029,0.009-0.044,0.009C135.114,225.482,135.111,225.482,135.107,225.482z"/>
</g>
</svg>
