<?xml version="1.0" encoding="utf-8"?>
<!-- Generator: Adobe Illustrator 15.1.0, SVG Export Plug-In . SVG Version: 6.00 Build 0)  -->
<!DOCTYPE svg PUBLIC "-//W3C//DTD SVG 1.0//EN" "http://www.w3.org/TR/2001/REC-SVG-20010904/DTD/svg10.dtd">
<svg version="1.0" id="Layer_1" xmlns:serif="http://www.serif.com/"
	 xmlns="http://www.w3.org/2000/svg" xmlns:xlink="http://www.w3.org/1999/xlink" x="0px" y="0px" width="283.46px"
	 height="283.46px" viewBox="0 0 283.46 283.46" enable-background="new 0 0 283.46 283.46" xml:space="preserve">
<path d="M246.704,122.814L142.29,45.981l-104.41,76.833v153.431h78.267v-92.141h52.291v92.14h78.27v-153.43H246.704z M66.315,63.123
	L142.29,7.215c0,0,76.396,56.215,121.69,89.543c4.629,3.407,6.547,9.405,4.756,14.869c-1.793,5.464-6.893,9.156-12.642,9.156
	c-1.229,0-2.346,0-3.321,0c-2.72,0-5.365-0.869-7.555-2.479C227.125,104.99,142.29,42.565,142.29,42.565
	s-84.421,62.123-102.793,75.641c-2.277,1.679-5.027,2.578-7.85,2.578c-1.369,0-3.002,0-4.824,0c-5.514,0-10.403-3.541-12.123-8.779
	c-1.721-5.237,0.119-10.987,4.559-14.255l18.621-13.702V7.215h28.436V63.123z"/>
<path d="M246.834,122.815c0-0.04-0.019-0.081-0.053-0.103L142.369,45.879c-0.048-0.035-0.111-0.035-0.154,0L37.8,122.712
	c-0.035,0.022-0.054,0.063-0.054,0.103v153.431c0,0.074,0.061,0.131,0.133,0.131h78.267c0.072,0,0.129-0.057,0.129-0.131v-92.01
	c0,0.002,52.034,0.002,52.034,0.002c0-0.002,0,92.008,0,92.008c0,0.074,0.057,0.131,0.127,0.131h78.27
	c0.071,0,0.131-0.057,0.131-0.131V122.815H246.834z M246.703,122.815L142.29,45.982l-104.41,76.833v153.431h78.267v-92.141h52.29
	v92.141h78.27V122.815H246.703z M66.445,62.866V7.217c0-0.072-0.056-0.132-0.128-0.132H37.879c-0.072,0-0.133,0.061-0.133,0.132
	v76.767L19.183,97.642c-2.246,1.652-3.832,3.929-4.639,6.456c-0.811,2.528-0.838,5.301,0.029,7.948
	c0.87,2.647,2.541,4.863,4.688,6.418c2.149,1.558,4.775,2.453,7.561,2.453h4.824c1.426,0,2.833-0.229,4.172-0.668
	c1.338-0.439,2.606-1.09,3.756-1.935L142.288,42.73c0.003,0,102.852,75.682,102.852,75.682c1.107,0.814,2.329,1.442,3.617,1.862
	c1.287,0.423,2.645,0.644,4.014,0.644h3.321c2.903,0,5.643-0.932,7.882-2.556c2.239-1.62,3.979-3.931,4.889-6.691
	c0.902-2.758,0.872-5.652,0.03-8.286c-0.847-2.631-2.497-5.009-4.837-6.73L142.369,7.112c-0.048-0.034-0.111-0.034-0.154,0
	L66.445,62.866L66.445,62.866z M66.315,63.124L142.29,7.217c0,0,76.396,56.215,121.689,89.543c4.629,3.407,6.547,9.405,4.756,14.869
	c-1.793,5.464-6.893,9.157-12.642,9.157c-1.229,0-2.346,0-3.321,0c-2.72,0-5.365-0.87-7.555-2.48
	C227.125,104.991,142.29,42.566,142.29,42.566s-84.421,62.123-102.793,75.641c-2.277,1.678-5.027,2.578-7.85,2.578
	c-1.369,0-3.002,0-4.824,0c-5.514,0-10.403-3.541-12.123-8.779c-1.721-5.238,0.119-10.986,4.559-14.255l18.621-13.702V7.217h28.436
	V63.124z"/>
</svg>
