<?xml version="1.0" encoding="utf-8"?>
<!-- Generator: Adobe Illustrator 15.1.0, SVG Export Plug-In . SVG Version: 6.00 Build 0)  -->
<!DOCTYPE svg PUBLIC "-//W3C//DTD SVG 1.0//EN" "http://www.w3.org/TR/2001/REC-SVG-20010904/DTD/svg10.dtd">
<svg version="1.0" id="Layer_1" xmlns:serif="http://www.serif.com/"
	 xmlns="http://www.w3.org/2000/svg" xmlns:xlink="http://www.w3.org/1999/xlink" x="0px" y="0px" width="283.46px"
	 height="283.46px" viewBox="0 0 283.46 283.46" enable-background="new 0 0 283.46 283.46" xml:space="preserve">
<path d="M108.661,153.422c0,0-8.295,6.485-8.626,14.952c-0.182,4.602,1.628,10.013,8.681,15.162c4.188,3.062,5.615,6.268,5.397,9.3
	c-0.431,5.974-5.814,10.78-5.814,10.78c-1.918,1.77-2.039,4.76-0.27,6.677c1.769,1.916,4.76,2.036,6.676,0.27
	c0,0,8.157-7.685,8.833-17.046c0.403-5.613-1.499-11.949-9.25-17.611c-3.483-2.541-4.9-4.889-4.812-7.161
	c0.177-4.497,4.864-7.771,4.864-7.771c2.084-1.567,2.503-4.531,0.937-6.615S110.745,151.855,108.661,153.422z M137.932,153.422
	c0,0-8.295,6.485-8.628,14.952c-0.182,4.602,1.628,10.013,8.681,15.162c4.19,3.062,5.617,6.268,5.396,9.3
	c-0.43,5.974-5.814,10.78-5.814,10.78c-1.916,1.77-2.036,4.76-0.27,6.677c1.769,1.916,4.76,2.036,6.675,0.27
	c0,0,8.16-7.685,8.833-17.046c0.406-5.613-1.497-11.949-9.249-17.611c-3.481-2.541-4.901-4.889-4.811-7.161
	c0.175-4.497,4.864-7.771,4.864-7.771c2.084-1.567,2.503-4.531,0.937-6.615S140.016,151.855,137.932,153.422z M167.316,153.422
	c0,0-8.295,6.485-8.626,14.952c-0.181,4.602,1.628,10.013,8.681,15.162c4.191,3.062,5.615,6.268,5.396,9.3
	c-0.43,5.974-5.813,10.78-5.813,10.78c-1.919,1.77-2.039,4.76-0.271,6.677c1.77,1.916,4.76,2.036,6.676,0.27
	c0,0,8.158-7.685,8.834-17.046c0.402-5.613-1.5-11.949-9.25-17.611c-3.484-2.541-4.9-4.889-4.813-7.161
	c0.177-4.497,4.864-7.771,4.864-7.771c2.084-1.567,2.503-4.531,0.937-6.615S169.4,151.855,167.316,153.422L167.316,153.422z
	 M78.985,137.02H54.787c-2.608,0-4.724,2.118-4.724,4.726s2.116,4.724,4.724,4.724h24.198c2.608,0,4.724-2.116,4.724-4.724
	S81.593,137.02,78.985,137.02z M227.331,137.02h-24.076c-2.608,0-4.726,2.118-4.726,4.726s2.117,4.724,4.726,4.724h24.076
	c2.607,0,4.726-2.116,4.726-4.724S229.938,137.02,227.331,137.02z M182.097,141.746c0-11.333-4.595-21.593-12.021-29.019
	c-7.424-7.425-17.686-12.019-29.017-12.019s-21.59,4.594-29.017,12.019c-7.427,7.426-12.019,17.686-12.019,29.019
	c0,2.607,2.116,4.724,4.724,4.724c2.607,0,4.724-2.116,4.724-4.724c0-8.724,3.535-16.62,9.252-22.336s13.615-9.252,22.336-9.252
	c8.724,0,16.621,3.535,22.337,9.252s9.252,13.613,9.252,22.336c0,2.607,2.117,4.724,4.723,4.724
	C179.979,146.469,182.097,144.353,182.097,141.746z M203.992,84.945l-17.269,15.806c-1.925,1.76-2.058,4.751-0.298,6.674
	c1.763,1.923,4.754,2.057,6.677,0.295l17.269-15.803c1.923-1.762,2.057-4.751,0.295-6.676
	C208.906,83.317,205.915,83.185,203.992,84.945z M72.468,90.587l17.346,15.767c1.93,1.753,4.92,1.61,6.673-0.317
	c1.753-1.93,1.612-4.921-0.317-6.674l-17.345-15.77c-1.93-1.753-4.921-1.61-6.674,0.32C70.396,85.841,70.539,88.832,72.468,90.587z
	 M136.335,60.066V82.29c0,2.608,2.116,4.726,4.724,4.726s4.726-2.118,4.726-4.726V60.066c0-2.608-2.118-4.726-4.726-4.726
	S136.335,57.458,136.335,60.066z"/>
</svg>
