<?xml version="1.0" encoding="utf-8"?>
<!-- Generator: Adobe Illustrator 15.1.0, SVG Export Plug-In . SVG Version: 6.00 Build 0)  -->
<!DOCTYPE svg PUBLIC "-//W3C//DTD SVG 1.1//EN" "http://www.w3.org/Graphics/SVG/1.1/DTD/svg11.dtd">
<svg version="1.1" id="Layer_2" xmlns="http://www.w3.org/2000/svg" xmlns:xlink="http://www.w3.org/1999/xlink" x="0px" y="0px"
	 width="283.465px" height="283.465px" viewBox="0 0 283.465 283.465" enable-background="new 0 0 283.465 283.465"
	 xml:space="preserve">
<g>
	<path fill="none" d="M122.907,141.732c-14.651-15.935-36.423-51.096-45.528-79.229v158.457
		C86.484,192.829,108.256,157.668,122.907,141.732z"/>
	<path fill="none" d="M206.525,222.323V61.142c-8.832,28.348-31.082,64.399-45.969,80.591
		C175.443,157.926,197.693,193.976,206.525,222.323z"/>
	<path fill="none" d="M140.838,131.679l0.892,8.649l0.893-8.649c9.06-5.439,40.22-48.329,40.22-66.72
		c0-2.428-14.135-9.456-41.125-9.456c-26.991,0-41.128,7.021-41.128,9.456C100.604,83.35,131.78,126.239,140.838,131.679z"/>
	<path fill="none" d="M141.731,172.501c0,39.992-46.234,54.535-46.234,77.706c0,0.006,0.012,0.017,0.014,0.027h92.442
		c0.002-0.011,0.011-0.021,0.011-0.027C187.964,227.872,141.731,212.493,141.731,172.501z"/>
	<path d="M224.768,32.23c2.654,0,4.803-1.212,4.803-2.707V9.793c0-1.495-2.148-2.706-4.803-2.706H58.696
		c-2.653,0-4.802,1.211-4.802,2.706v19.73c0,1.495,2.148,2.707,4.802,2.707h8.788v219.004h-8.788c-2.653,0-4.802,1.213-4.802,2.706
		v19.729c0,1.497,2.148,2.708,4.802,2.708h166.071c2.654,0,4.803-1.211,4.803-2.708V253.94c0-1.493-2.148-2.706-4.803-2.706h-8.348
		V32.23H224.768z M206.525,222.323c-8.832-28.348-31.082-64.397-45.969-80.591c14.887-16.191,37.137-52.243,45.969-80.591V222.323z
		 M141.717,55.503c26.99,0,41.125,7.028,41.125,9.456c0,18.391-31.16,61.28-40.22,66.72l-0.893,8.649l-0.892-8.649
		c-9.058-5.439-40.233-48.329-40.249-66.72C100.589,62.523,114.726,55.503,141.717,55.503z M77.379,62.504
		c9.105,28.133,30.877,63.294,45.528,79.229c-14.651,15.936-36.423,51.097-45.528,79.229V62.504z M187.953,250.234H95.511
		c-0.002-0.011-0.014-0.021-0.014-0.027c0-23.171,46.234-37.714,46.234-77.706c0,39.992,46.232,55.371,46.232,77.706
		C187.964,250.214,187.955,250.224,187.953,250.234z"/>
</g>
</svg>
