<?xml version="1.0" encoding="utf-8"?>
<!-- Generator: Adobe Illustrator 15.1.0, SVG Export Plug-In . SVG Version: 6.00 Build 0)  -->
<!DOCTYPE svg PUBLIC "-//W3C//DTD SVG 1.1//EN" "http://www.w3.org/Graphics/SVG/1.1/DTD/svg11.dtd">
<svg version="1.1" id="Layer_1" xmlns="http://www.w3.org/2000/svg" xmlns:xlink="http://www.w3.org/1999/xlink" x="0px" y="0px"
	 width="30px" height="30px" viewBox="0 0 30 30" enable-background="new 0 0 30 30" xml:space="preserve">
<path d="M16.011,3.333l0.298,0.03c0.109,0.011,0.194,0.009,0.254-0.003c0.06-0.013,0.104-0.039,0.131-0.076
	c0.028-0.038,0.046-0.092,0.053-0.164c0.01-0.098-0.014-0.17-0.07-0.218c-0.057-0.047-0.165-0.08-0.327-0.095l-0.283-0.028
	L16.011,3.333z M12.941,3.453c0.105-0.016,0.184-0.037,0.236-0.064c0.052-0.027,0.086-0.062,0.101-0.104
	c0.015-0.042,0.017-0.099,0.007-0.168c-0.01-0.067-0.03-0.118-0.059-0.153c-0.03-0.035-0.075-0.057-0.137-0.066
	c-0.062-0.009-0.146-0.005-0.253,0.01l-0.294,0.044L12.624,3.5L12.941,3.453z M14.313,2.761l0.012,0.419l0.822-0.024l0.01,0.335
	l-0.821,0.025l0.013,0.441l0.888-0.027l0.01,0.336l-1.263,0.038l-0.056-1.871l1.262-0.038l0.011,0.339L14.313,2.761z M17.124,3.166
	c-0.016,0.157-0.061,0.277-0.135,0.36S16.8,3.664,16.645,3.688l0.356,0.726L16.57,4.372l-0.321-0.68l-0.271-0.027l-0.063,0.642
	L15.541,4.27l0.185-1.863L16.37,2.47c0.287,0.029,0.489,0.099,0.607,0.211C17.097,2.793,17.146,2.955,17.124,3.166z M12.792,2.575
	c0.279-0.042,0.485-0.023,0.62,0.056c0.134,0.079,0.217,0.225,0.249,0.436c0.021,0.146,0.015,0.267-0.019,0.361
	c-0.035,0.094-0.104,0.169-0.206,0.227c-0.103,0.057-0.247,0.099-0.433,0.126L12.673,3.83l0.095,0.641l-0.371,0.055l-0.276-1.852
	L12.792,2.575z M17.943,3.049L17.85,3.458l0.771,0.177l-0.075,0.327l-0.771-0.177l-0.174,0.757l-0.365-0.084l0.418-1.825
	l1.214,0.278l-0.076,0.331L17.943,3.049z M19.438,4.726c0.136,0.049,0.243,0.061,0.322,0.033c0.079-0.027,0.139-0.096,0.178-0.205
	l0.188-0.513c0.039-0.109,0.038-0.199-0.005-0.271c-0.043-0.072-0.132-0.133-0.268-0.182c-0.135-0.049-0.242-0.06-0.321-0.033
	c-0.079,0.028-0.139,0.096-0.179,0.205l-0.188,0.513c-0.039,0.109-0.038,0.2,0.005,0.272C19.213,4.616,19.303,4.677,19.438,4.726z
	 M21.099,4.735l0.265,0.142c0.097,0.052,0.175,0.084,0.235,0.095c0.06,0.011,0.109,0.004,0.149-0.02
	c0.04-0.024,0.078-0.068,0.111-0.131c0.047-0.086,0.054-0.163,0.02-0.229s-0.122-0.137-0.265-0.214l-0.251-0.135L21.099,4.735z
	 M19.318,5.053c-0.236-0.086-0.398-0.208-0.486-0.364c-0.088-0.156-0.094-0.338-0.019-0.545L19,3.631
	c0.075-0.207,0.197-0.342,0.365-0.405s0.37-0.052,0.606,0.035c0.237,0.086,0.399,0.208,0.487,0.364
	c0.087,0.157,0.094,0.338,0.019,0.545L20.29,4.683c-0.075,0.207-0.197,0.342-0.364,0.405C19.758,5.151,19.556,5.14,19.318,5.053z
	 M9.065,4.046L9.234,4.43l0.752-0.333l0.136,0.308L9.371,4.737l0.178,0.403l0.812-0.359l0.136,0.307L9.342,5.6L8.584,3.888
	L9.74,3.377l0.137,0.31L9.065,4.046z M22.191,5.01c-0.075,0.139-0.163,0.232-0.264,0.281c-0.102,0.048-0.228,0.053-0.381,0.016
	l0.049,0.807l-0.38-0.205l-0.035-0.751l-0.24-0.129l-0.306,0.568l-0.33-0.178l0.888-1.647l0.571,0.307
	c0.253,0.137,0.413,0.28,0.479,0.429C22.309,4.655,22.292,4.823,22.191,5.01z M8.427,4.341L7.925,4.643l0.791,1.313L8.395,6.149
	L7.604,4.836L7.103,5.137L6.928,4.847L8.252,4.05L8.427,4.341z M6.244,5.798L6.501,6.13l0.65-0.503l0.206,0.266l-0.65,0.503
	l0.27,0.349l0.703-0.544l0.206,0.266L6.886,7.24L5.74,5.759l0.999-0.773l0.208,0.268L6.244,5.798z M24.492,5.927l-1.14,1.485
	l-0.285-0.219l0.718-0.936l-1.083,0.455l-0.033-0.025l0.151-1.188l-0.727,0.947l-0.283-0.217l1.139-1.485l0.274,0.21L23.076,6.22
	l1.156-0.493L24.492,5.927z M24.768,7.882l0.319-0.64l-0.004-0.004l-0.666,0.265L24.768,7.882z M6.5,7.133l0.236,0.239L5.859,8.239
	L4.542,6.908l0.267-0.264l1.08,1.092L6.5,7.133z M24.613,8.192l-0.52-0.562l-0.387,0.153l-0.25-0.271l1.894-0.71l0.199,0.216
	l-0.854,1.833l-0.267-0.289L24.613,8.192z M4.139,7.351l1.498,1.123l-0.225,0.3L4.79,8.308L4.296,8.966l0.622,0.466l-0.225,0.3
	L3.195,8.608l0.225-0.3l0.607,0.455l0.493-0.657L3.914,7.651L4.139,7.351z M11.182,9.619c-0.09-0.012-0.28,0.019-0.452,0.061
	c-0.171,0.042-0.325,0.095-0.345,0.125C10.647,9.744,10.915,9.682,11.182,9.619z M11.269,9.812c0.08,0.004,0.159,0.013,0.239,0.012
	c0.259-0.004,0.518-0.005,0.776-0.021c0.105-0.007,0.213-0.04,0.312-0.081c0.109-0.045,0.208-0.113,0.323-0.177
	c-0.014-0.066-0.08-0.094-0.161-0.088c-0.204,0.015-0.408,0.03-0.611,0.055c-0.123,0.014-0.244,0.045-0.366,0.068
	c0,0.007,0.001,0.014,0.002,0.021h0.831c-0.073,0.105-0.166,0.134-0.265,0.142C11.988,9.766,11.628,9.788,11.269,9.812z
	 M9.344,10.121C9.298,9.944,8.947,9.562,8.867,9.565C8.9,9.65,8.93,9.734,9.021,9.781c0.031,0.016,0.042,0.069,0.064,0.105
	c0.01,0.016,0.025,0.04,0.038,0.04c0.108-0.004,0.149,0.069,0.186,0.152C9.316,10.094,9.333,10.107,9.344,10.121z M9.258,9.782
	c0.059,0.071,0.113,0.13,0.16,0.195c0.066,0.093,0.196,0.167,0.104,0.319c0.054-0.048,0.108-0.097,0.162-0.144
	C9.486,9.882,9.38,9.787,9.258,9.782z M27.262,9.331l-1.563,1.03l-0.186-0.28l0.511-1.482l-1.037,0.683l-0.194-0.295l1.563-1.03
	l0.185,0.281L26.013,9.73l1.055-0.695L27.262,9.331z M8.671,10.443c-0.028-0.111-0.043-0.227-0.067-0.339
	C8.58,9.991,8.547,9.881,8.483,9.78C8.485,10.018,8.533,10.244,8.671,10.443z M9.809,10.177l-0.03-0.036
	c-0.188,0.083-0.299,0.25-0.429,0.395c0.008,0.009,0.016,0.018,0.023,0.026C9.518,10.434,9.664,10.306,9.809,10.177z M9.021,10.273
	C9,10.295,8.959,10.321,8.963,10.337c0.021,0.094-0.054,0.121-0.105,0.155c-0.068,0.046-0.147,0.076-0.2,0.101
	c-0.032-0.019-0.051-0.039-0.061-0.035c-0.137,0.053-0.252,0.01-0.333-0.097c-0.076-0.1-0.128-0.217-0.187-0.32
	c-0.032,0.061-0.022,0.129,0.004,0.222c0.057,0.196,0.184,0.292,0.365,0.328c0.192,0.039,0.367-0.037,0.517-0.142
	c0.067-0.048,0.089-0.16,0.129-0.245c0.002-0.004-0.023-0.021-0.035-0.033c0.049-0.27-0.086-0.559-0.266-0.556
	C8.815,9.751,8.83,9.803,8.859,9.814c0.163,0.057,0.143,0.2,0.162,0.324C9.027,10.182,9.021,10.228,9.021,10.273L9.021,10.273z
	 M3.251,9.15L2.975,9.666l1.352,0.724L4.149,10.72L2.798,9.996l-0.276,0.516l-0.299-0.16L2.953,8.99L3.251,9.15z M10.161,10.761
	c-0.013-0.105,0.047-0.263,0.128-0.397c0.081-0.135,0.184-0.247,0.255-0.26C10.417,10.322,10.289,10.542,10.161,10.761z
	 M11.022,9.903c-0.227,0.059-0.461,0.093-0.681,0.17c-0.14,0.049-0.265,0.15-0.386,0.242c-0.15,0.113-0.29,0.24-0.434,0.361
	l0.02,0.025c0.225-0.141,0.449-0.282,0.69-0.433c-0.064,0.149-0.123,0.274-0.172,0.401c-0.026,0.067-0.031,0.144,0.059,0.168
	c0.074,0.021,0.13-0.006,0.17-0.086c0.092-0.188,0.215-0.362,0.29-0.555c0.052-0.133,0.154-0.147,0.255-0.181
	c0.129-0.043,0.26-0.079,0.389-0.119c0.042-0.013,0.075-0.033,0.046-0.082l-0.003-0.005L11.022,9.903z M7.542,10.773
	c-0.065,0.011-0.121,0.02-0.188,0.031c0.105,0.115,0.202,0.22,0.298,0.325C7.65,10.992,7.472,10.93,7.542,10.773z M13.251,10.775
	c-0.107,0.101-0.196,0.181-0.28,0.265c-0.018,0.018-0.027,0.055-0.023,0.08c0.002,0.013,0.043,0.028,0.066,0.028
	c0.287-0.008,0.574-0.018,0.861-0.028c0.403-0.016,0.806-0.034,1.209-0.049c0.021-0.001,0.043,0.007,0.079,0.013
	c-0.081,0.075-0.153,0.137-0.219,0.205c-0.04,0.042-0.069,0.093-0.103,0.14c0.067,0.015,0.135,0.045,0.201,0.042
	c0.669-0.036,1.337-0.077,2.006-0.117c0.137-0.008,0.272-0.021,0.427-0.034c-0.025-0.031-0.034-0.053-0.045-0.055
	c-0.571-0.056-1.143-0.11-1.746-0.168c0.109-0.095,0.198-0.168,0.281-0.246c0.023-0.022,0.032-0.062,0.048-0.092
	c-0.03-0.011-0.061-0.032-0.091-0.032c-0.146,0.002-0.293,0.011-0.44,0.016c-0.505,0.016-1.011,0.031-1.517,0.046
	c-0.072,0.002-0.144,0-0.243,0c0.113-0.101,0.205-0.177,0.29-0.26c0.041-0.041,0.069-0.094,0.104-0.141
	c-0.057-0.012-0.116-0.037-0.171-0.032c-0.503,0.048-1.005,0.1-1.507,0.155c-0.37,0.041-0.738,0.088-1.107,0.137
	c-0.03,0.004-0.057,0.043-0.085,0.065c0.03,0.016,0.059,0.043,0.089,0.044c0.276,0.009,0.554,0.016,0.831,0.018L13.251,10.775z
	 M14.792,9.943l-0.009,0.049c0.121,0.028,0.243,0.053,0.362,0.086c0.309,0.085,0.623,0.155,0.921,0.267
	c0.445,0.167,0.878,0.365,1.317,0.549c0.059,0.024,0.131,0.025,0.181,0.059c0.292,0.2,0.578,0.407,0.868,0.608
	c0.026,0.018,0.069,0.011,0.104,0.016c-0.012-0.039-0.015-0.083-0.037-0.114c-0.034-0.049-0.078-0.094-0.125-0.133
	c-0.035-0.029-0.079-0.052-0.123-0.068c-0.089-0.031-0.188-0.04-0.268-0.085c-0.169-0.096-0.319-0.224-0.49-0.313
	c-0.31-0.161-0.604-0.348-0.934-0.472c-0.127-0.047-0.232-0.151-0.38-0.156c-0.058-0.002-0.115-0.013-0.172-0.025
	c-0.219-0.049-0.438-0.099-0.655-0.151c-0.075-0.019-0.146-0.056-0.222-0.07C15.02,9.969,14.905,9.959,14.792,9.943L14.792,9.943z
	 M8.464,11.268l0.021,0.02c-0.135,0.144-0.27,0.287-0.406,0.429c-0.002,0.002-0.021-0.012-0.013-0.007
	C8.198,11.563,8.331,11.415,8.464,11.268z M26.123,11.316c-0.102-0.229-0.128-0.424-0.08-0.586c0.049-0.163,0.171-0.287,0.366-0.374
	l0.554-0.246c0.196-0.087,0.37-0.094,0.523-0.02c0.152,0.073,0.279,0.224,0.381,0.453c0.201,0.453,0.107,0.767-0.282,0.939
	L27.5,11.52l-0.152-0.343l0.085-0.038c0.094-0.041,0.15-0.095,0.172-0.161c0.021-0.066,0.003-0.163-0.054-0.291
	c-0.061-0.136-0.125-0.218-0.194-0.249c-0.069-0.03-0.149-0.026-0.238,0.014l-0.56,0.248c-0.088,0.039-0.144,0.096-0.167,0.171
	c-0.023,0.075-0.007,0.177,0.051,0.307c0.056,0.126,0.116,0.204,0.181,0.233s0.146,0.022,0.242-0.021l0.074-0.033l0.151,0.343
	l-0.079,0.035c-0.199,0.088-0.372,0.097-0.519,0.025C26.346,11.69,26.223,11.542,26.123,11.316z M19.777,11.554
	c-0.185-0.187-0.36-0.373-0.545-0.549c-0.068-0.065-0.125-0.118-0.059-0.214c-0.051-0.035-0.095-0.068-0.141-0.096
	c-0.062-0.037-0.115-0.033-0.159,0.033c-0.019,0.028-0.045,0.05-0.067,0.076c-0.063,0.072-0.051,0.256,0.003,0.332
	c0.065,0.093,0.16,0.053,0.24,0.068c0.138,0.026,0.204,0.079,0.221,0.213c0.002,0.013,0.007,0.028,0.016,0.036
	c0.128,0.118,0.255,0.237,0.387,0.351c0.019,0.017,0.077,0.019,0.093,0.003c0.06-0.06,0.113-0.127,0.162-0.197
	c0.012-0.018,0.009-0.061-0.005-0.078c-0.013-0.016-0.05-0.018-0.076-0.016C19.829,11.516,19.812,11.534,19.777,11.554z
	 M3.053,11.409l-0.715,0l-0.002,0.005l0.536,0.477L3.053,11.409z M17.93,11.952c0.108,0.014,0.218,0.024,0.326,0.041
	c0.094,0.015,0.187,0.044,0.28,0.053c0.117,0.011,0.182,0.079,0.238,0.203c-0.293-0.104-0.598-0.098-0.854-0.252L17.93,11.952z
	 M18.836,12.317c-0.003-0.157-0.174-0.374-0.312-0.394c-0.201-0.029-0.404-0.047-0.607-0.066c-0.035-0.003-0.072,0.013-0.122,0.022
	c0.095,0.153,0.187,0.27,0.357,0.292c0.054,0.007,0.106,0.021,0.159,0.032L18.836,12.317z M11.731,12.465
	c-0.023,0.036-0.045,0.07-0.067,0.104l0.012,0.009c0.033-0.02,0.066-0.04,0.094-0.057c0.034,0.021,0.062,0.039,0.089,0.057
	l0.03-0.015c-0.104-0.06-0.066-0.118-0.013-0.17h-0.188L11.731,12.465z M7.439,12.442l-0.026,0.167l0.031,0.004
	c0.04-0.061,0.075-0.121,0.031-0.19l-0.033-0.004L7.439,12.442z M12.017,12.462c-0.001,0.158-0.104,0.269-0.248,0.266
	c-0.135-0.003-0.245-0.121-0.244-0.262c0-0.147,0.106-0.252,0.25-0.249C11.925,12.22,12.017,12.314,12.017,12.462L12.017,12.462z
	 M3.4,11.408l-0.27,0.716l0.31,0.277l-0.13,0.345l-1.483-1.375l0.104-0.275l2.021-0.058l-0.139,0.368L3.4,11.408z M7.38,12.492
	c0.011-0.031,0.021-0.062,0.032-0.092c-0.009-0.007-0.019-0.015-0.028-0.021c-0.042,0.079-0.185,0.014-0.176,0.148
	c-0.023-0.005-0.048-0.02-0.058-0.013c-0.063,0.046-0.069,0.183-0.016,0.3c0.023-0.03,0.045-0.058,0.065-0.084
	c0.238,0.07,0.318,0.054,0.343-0.064c-0.057,0.017-0.118,0.055-0.171,0.046c-0.058-0.01-0.109-0.062-0.163-0.096
	c0.031-0.049,0.052-0.081,0.086-0.134v0.159c0.011,0.002,0.021,0.004,0.032,0.006L7.38,12.492z M12.356,11.55
	c0.205,0.063,0.317,0.196,0.397,0.35c0.143,0.271,0.152,0.562,0.079,0.856c-0.019,0.075-0.07,0.102-0.148,0.077
	c-0.071-0.022-0.145-0.038-0.218-0.054c-0.076-0.016-0.089-0.067-0.093-0.136c-0.008-0.138,0.002-0.286-0.045-0.411
	c-0.087-0.231-0.288-0.344-0.529-0.351c-0.237-0.007-0.412,0.115-0.533,0.319c-0.094,0.159-0.074,0.329-0.063,0.499
	c0.006,0.104-0.115,0.236-0.215,0.219c-0.024-0.004-0.055-0.035-0.063-0.06c-0.026-0.083-0.059-0.169-0.063-0.255
	c-0.019-0.34,0.107-0.631,0.331-0.883c-0.033,0.058-0.07,0.114-0.099,0.173c-0.03,0.06-0.052,0.123-0.068,0.195
	c0.208-0.425,0.533-0.627,1.004-0.532c0.469,0.094,0.643,0.458,0.757,0.883C12.827,12.191,12.727,11.986,12.356,11.55z
	 M15.125,13.062c0.022-0.02,0.089-0.048,0.1-0.091c0.017-0.069-0.042-0.103-0.112-0.113c-0.172-0.025-0.343-0.055-0.514-0.083
	c-0.416-0.068-0.832-0.136-1.248-0.206c-0.07-0.012-0.133-0.017-0.147,0.074c-0.014,0.091,0.042,0.118,0.119,0.13
	c0.45,0.073,0.899,0.148,1.349,0.222C14.81,13.017,14.948,13.036,15.125,13.062z M7.018,13.1c0.176-0.077,0.262,0.014,0.335,0.131
	c-0.027-0.146-0.061-0.18-0.228-0.244c-0.006-0.037-0.012-0.075-0.018-0.112l-0.019-0.001L7.018,13.1z M28.101,12.2l-0.405,0.111
	l0.217,0.792l-0.324,0.089L27.371,12.4l-0.425,0.116l0.234,0.856l-0.324,0.089l-0.334-1.218l1.806-0.495l0.334,1.218l-0.327,0.089
	L28.101,12.2z M11.666,13.328c-0.016,0.051-0.032,0.102-0.047,0.153l-0.04,0.025l-0.162-0.226l-0.032,0.03
	c0.078,0.116,0.157,0.231,0.235,0.347l0.031-0.011c0.018-0.122,0.037-0.243,0.055-0.364c-0.008-0.002-0.016-0.003-0.024-0.005
	L11.666,13.328z M12.936,13.66c0.007,0.002,0.014,0.004,0.021,0.006c0.021-0.048,0.051-0.095,0.06-0.146
	c0.005-0.028-0.018-0.083-0.04-0.09c-0.06-0.022-0.126-0.031-0.19-0.032c-0.023,0-0.063,0.031-0.068,0.054
	c-0.016,0.068-0.018,0.14-0.026,0.214c0.046,0.01,0.081,0.017,0.116,0.024c0.002-0.005,0.004-0.011,0.007-0.017
	c-0.027-0.016-0.054-0.032-0.08-0.048c0.025-0.104,0.096-0.139,0.211-0.105L12.936,13.66z M10.248,13.806
	c0.014-0.017,0.032-0.032,0.042-0.052c0.134-0.265,0.317-0.474,0.619-0.552c0.018-0.004,0.028-0.04,0.041-0.061
	c-0.023-0.01-0.052-0.033-0.069-0.027c-0.082,0.032-0.166,0.063-0.239,0.111C10.43,13.362,10.31,13.564,10.248,13.806z
	 M13.474,13.549c-0.101-0.005-0.211-0.043-0.264-0.004c-0.054,0.04-0.05,0.156-0.074,0.247c0.063,0.009,0.104,0.015,0.145,0.021
	c-0.073-0.051-0.107-0.119-0.056-0.181c0.03-0.035,0.11-0.028,0.177-0.042v0.12l0.014,0.002
	C13.433,13.666,13.449,13.619,13.474,13.549z M10.642,13.579c0.067,0.083,0.133,0.165,0.2,0.247l-0.01,0.009
	c-0.069-0.08-0.139-0.159-0.208-0.239L10.642,13.579z M13.834,13.803l0.04,0.002c-0.004-0.058,0.013-0.147-0.017-0.168
	c-0.125-0.086-0.206-0.044-0.24,0.105c-0.003,0.017-0.008,0.033-0.01,0.05c-0.013,0.093,0.021,0.117,0.118,0.085
	c-0.033-0.014-0.066-0.027-0.099-0.04c0.039-0.172,0.045-0.176,0.216-0.13C13.84,13.739,13.837,13.771,13.834,13.803z
	 M11.866,11.243c-0.15,0-0.303,0.037-0.451,0.103c-0.084,0.037-0.185,0.092-0.223,0.167c-0.064,0.124-0.151,0.139-0.267,0.132
	c-0.189-0.011-0.367,0.029-0.52,0.147c-0.129,0.1-0.256,0.203-0.384,0.304c-0.03,0.023-0.063,0.042-0.092,0.065
	c-0.029,0.023-0.055,0.05-0.082,0.076l0.013,0.023c0.35-0.228,0.689-0.487,1.128-0.407c-0.056,0.164-0.134,0.326-0.166,0.497
	c-0.042,0.225-0.048,0.457,0.079,0.666c0.02,0.033,0.054,0.076,0.085,0.079c0.108,0.011,0.201,0.064,0.324,0.051
	c0.431-0.049,0.865-0.074,1.298-0.086c0.192-0.005,0.327-0.082,0.359-0.321l0.052-0.46c0.211,0.036,0.422,0.066,0.631,0.107
	c0.458,0.09,0.915,0.179,1.37,0.28c0.191,0.043,0.385,0.099,0.563,0.18c0.36,0.165,0.641,0.446,0.947,0.688
	c0.131,0.104,0.254,0.218,0.38,0.328l0.009-0.01c-0.123-0.13-0.245-0.26-0.382-0.405c0.091,0.059,0.165,0.106,0.239,0.154
	c0.006-0.008,0.012-0.016,0.018-0.023l-0.257-0.235l0.024-0.026c0.224,0.202,0.447,0.403,0.671,0.604
	c-0.049-0.079-0.101-0.158-0.169-0.22c-0.346-0.308-0.688-0.621-1.047-0.913c-0.159-0.129-0.342-0.257-0.534-0.31
	c-0.492-0.134-0.994-0.229-1.494-0.333c-0.336-0.071-0.675-0.127-1.012-0.198c-0.048-0.01-0.103-0.057-0.125-0.101
	c-0.12-0.241-0.346-0.375-0.558-0.493c-0.135-0.075-0.279-0.109-0.426-0.109H11.866z M10.666,13.955
	c-0.034-0.014-0.081-0.02-0.101-0.045c-0.029-0.039-0.041-0.092-0.059-0.139c0.014-0.008,0.029-0.016,0.043-0.023
	c0.046,0.057,0.092,0.113,0.138,0.17L10.666,13.955z M21.293,13.962c0.152,0.031,0.199,0.009,0.247-0.097
	c0.016-0.036,0.036-0.07,0.056-0.104c0.036-0.062-0.003-0.144-0.074-0.146c-0.032,0-0.064,0.017-0.097,0.025
	C21.511,13.865,21.492,13.917,21.293,13.962z M14.259,13.934c0.09-0.156,0.081-0.182-0.055-0.223
	c-0.107-0.032-0.123-0.021-0.139,0.095c-0.004,0.03-0.01,0.061-0.014,0.091c-0.01,0.079,0.032,0.101,0.113,0.097
	c-0.036-0.025-0.061-0.043-0.089-0.063c0.018-0.049,0.033-0.092,0.051-0.141c0.049,0.007,0.091,0.013,0.133,0.02L14.259,13.934z
	 M10.549,13.958c-0.06,0.026-0.106,0.046-0.173,0.074c0.026-0.075,0.046-0.131,0.07-0.2C10.481,13.876,10.508,13.909,10.549,13.958z
	 M9.8,12.483c-0.014,0.021-0.017,0.039-0.013,0.055c0.04,0.144,0.086,0.287,0.122,0.432c0.026,0.105,0.074,0.163,0.191,0.147
	c0.137-0.018,0.2,0.08,0.264,0.175c-0.084-0.032-0.118-0.153-0.228-0.136c0.029,0.036,0.058,0.071,0.087,0.106l0.085,0.105
	c-0.224-0.175-0.227-0.176-0.528-0.149c0.067,0.021,0.135,0.038,0.205,0.041c0.115,0.006,0.2,0.054,0.266,0.148
	c0.036,0.052,0.035,0.092-0.038,0.15c-0.013-0.021-0.021-0.044-0.034-0.064c-0.083-0.123-0.196-0.175-0.348-0.165
	c-0.048,0.003-0.099-0.057-0.152-0.082c-0.035-0.017-0.077-0.035-0.112-0.029c-0.042,0.007-0.085,0.032-0.116,0.062
	c-0.14,0.133-0.277,0.269-0.412,0.408c-0.081,0.084-0.087,0.184-0.026,0.27c0.061,0.085,0.214,0.124,0.314,0.075
	c-0.019-0.035-0.038-0.069-0.057-0.104c0.116-0.129,0.229-0.255,0.343-0.381c0.009-0.007,0.018-0.015,0.027-0.022
	c0.008-0.007,0.017-0.011,0.017-0.026c-0.015,0.016-0.029,0.032-0.043,0.048c-0.112,0.093-0.222,0.188-0.335,0.278
	c-0.024,0.02-0.063,0.021-0.095,0.031c0.009-0.033,0.008-0.075,0.028-0.097c0.093-0.099,0.185-0.202,0.292-0.285
	c0.199-0.154,0.206-0.151,0.363,0.05c0.055,0.069,0.105,0.094,0.192,0.058c0.072-0.03,0.154-0.045,0.164,0.083
	c0.055-0.09,0.098-0.173,0.153-0.245c0.054-0.071,0.122-0.131,0.184-0.196l-0.006-0.011c-0.035,0.017-0.069,0.034-0.113,0.055
	c-0.077-0.152-0.207-0.207-0.369-0.208c-0.028,0-0.067-0.03-0.083-0.058c-0.028-0.05-0.042-0.107-0.062-0.162
	c-0.042-0.121-0.083-0.242-0.124-0.363L9.8,12.483z M11.515,14.104c-0.015-0.067-0.026-0.114-0.041-0.18
	c-0.042,0.061-0.07,0.104-0.106,0.158L11.515,14.104z M14.505,13.831c-0.012,0.056-0.022,0.107-0.035,0.159
	c-0.028,0.116-0.002,0.142,0.096,0.124c-0.017-0.052-0.041-0.105-0.046-0.16c-0.001-0.015,0.054-0.054,0.078-0.05
	c0.041,0.007,0.078,0.039,0.122,0.064c0.006-0.015,0.019-0.047,0.034-0.085c-0.038-0.011-0.063-0.02-0.088-0.024L14.505,13.831z
	 M15.867,14.163c-0.037-0.05-0.105-0.088-0.18-0.107c-0.075-0.019-0.157-0.019-0.222,0.006
	C15.598,14.135,15.726,14.157,15.867,14.163z M21.097,14.082c-0.068,0.073-0.054,0.11,0.027,0.144
	c0.119-0.054,0.213-0.099,0.309-0.138c0.13-0.053,0.169-0.104,0.139-0.208c-0.05,0.092-0.111,0.165-0.222,0.15
	c-0.081-0.01-0.137,0.013-0.165,0.093c-0.008,0.02-0.025,0.036-0.055,0.077L21.097,14.082z M15.469,14.222
	c0.018,0.08,0.063,0.133,0.118,0.154c0.057,0.021,0.124,0.01,0.186-0.04C15.645,14.36,15.547,14.34,15.469,14.222z M21.01,13.717
	c-0.134,0.164-0.148,0.288-0.069,0.448c0.073,0.146,0.194,0.228,0.356,0.235c0.132,0.006,0.289-0.096,0.342-0.222
	c-0.159,0.136-0.323,0.23-0.501,0.107C20.946,14.154,20.907,13.961,21.01,13.717z M15.672,13.875
	c0.141-0.027,0.279,0.119,0.28,0.282c0,0.15-0.136,0.284-0.29,0.284c-0.159,0-0.29-0.13-0.291-0.293
	C15.371,13.986,15.492,13.875,15.672,13.875z M10.623,13.461c-0.26,0.2-0.435,0.808-0.274,0.984v-0.254
	c0.03,0.078,0.026,0.177,0.138,0.117c0.208-0.113,0.433-0.179,0.668-0.208c0.113-0.014,0.251-0.14,0.278-0.249
	c0.003-0.012,0.002-0.028-0.003-0.039c-0.051-0.103-0.093-0.212-0.158-0.307c-0.068-0.1-0.154-0.192-0.288-0.203
	c0.197,0.114,0.295,0.249,0.345,0.48c-0.126,0.021-0.252,0.044-0.378,0.063c-0.019,0.003-0.048,0-0.057-0.012
	C10.802,13.711,10.712,13.586,10.623,13.461z M4.628,14.46c-0.126-0.056-0.073-0.148-0.073-0.226c0-0.054,0.021-0.108,0.018-0.162
	c-0.007-0.095,0.039-0.12,0.132-0.112L4.628,14.46z M8.56,14.489c0.021,0.045,0.042,0.092,0.068,0.147
	c0.014-0.03,0.027-0.059,0.04-0.088c0.01,0.008,0.02,0.016,0.03,0.023c0.013,0.042,0.026,0.084,0.039,0.126
	C8.78,14.475,8.769,14.463,8.56,14.489L8.56,14.489z M16.844,13.88c-0.112-0.02-0.225-0.041-0.337-0.061
	c-0.295-0.052-0.589-0.11-0.886-0.153c-0.135-0.02-0.262,0.026-0.372,0.112c-0.229,0.178-0.251,0.649,0.091,0.753
	c0.179,0.054,0.36,0.101,0.542,0.142c0.107,0.024,0.219,0.031,0.327,0.046c0.001-0.007,0.002-0.015,0.003-0.021
	c-0.093-0.024-0.187-0.048-0.28-0.073l0.003-0.015l0.21,0.015l0.002-0.015c-0.126-0.03-0.252-0.06-0.402-0.096
	c0.138-0.065,0.249-0.134,0.26-0.269c0.009-0.115-0.02-0.232-0.031-0.348c0.068,0.008,0.155,0.018,0.269,0.03
	c-0.045-0.025-0.068-0.037-0.096-0.052C16.383,13.871,16.613,13.926,16.844,13.88z M11.193,14.246
	c-0.049-0.003-0.071-0.012-0.087-0.005c-0.199,0.079-0.396,0.16-0.594,0.239c-0.063,0.025-0.05,0.071-0.037,0.119
	c0.002,0.007-0.001,0.016-0.003,0.026c-0.024-0.022-0.044-0.041-0.064-0.06l-0.021,0.016c0.05,0.08,0.1,0.161,0.155,0.251
	C10.752,14.625,10.992,14.474,11.193,14.246L11.193,14.246z M9.269,14.917c0.01-0.005,0.02-0.012,0.029-0.017
	c-0.017-0.035-0.032-0.071-0.051-0.105c-0.076-0.141-0.11-0.283-0.032-0.437c0.029-0.057,0.043-0.121,0.066-0.181
	c0.02-0.051,0.006-0.078-0.049-0.083c-0.027-0.003-0.054-0.007-0.08-0.012c-0.079-0.016-0.113,0.015-0.135,0.095
	c-0.057,0.204,0.015,0.374,0.117,0.539L9.269,14.917z M10.405,14.958l-0.254-0.542C10.139,14.631,10.275,14.935,10.405,14.958z
	 M20.63,14.208c0.107-0.061,0.042-0.127,0.021-0.192c-0.069-0.217-0.14-0.433-0.207-0.651c-0.022-0.07-0.045-0.142-0.057-0.214
	c-0.017-0.106-0.018-0.116-0.094-0.177c0.027,0.158,0.049,0.322,0.087,0.483c0.017,0.072,0.005,0.173,0.14,0.197
	c-0.119,0.034-0.064,0.097-0.061,0.156c0.007,0.107,0.036,0.236-0.011,0.318c-0.087,0.152-0.067,0.286-0.011,0.428
	c0.018,0.045,0.052,0.097,0.092,0.115c0.034,0.015,0.088-0.016,0.133-0.026c0.017-0.004,0.034-0.006,0.049-0.014
	c0.032-0.018,0.076-0.032,0.089-0.06c0.012-0.025-0.013-0.066-0.021-0.101c0.061,0.025,0.091,0.111,0.047,0.169
	c-0.084,0.113-0.049,0.24-0.051,0.368c0.047-0.046,0.094-0.095,0.108-0.152c0.019-0.067,0.009-0.143,0.012-0.214
	c0.011-0.238-0.002-0.251-0.229-0.229l0.086-0.066c-0.004-0.009-0.008-0.018-0.012-0.026c-0.038,0.002-0.076,0.005-0.123,0.008
	c0.043-0.029,0.077-0.052,0.128-0.087C20.698,14.228,20.674,14.221,20.63,14.208z M8.66,14.985c0.03,0.057,0.052,0.097,0.074,0.137
	c0.021-0.2-0.021-0.243-0.185-0.194c0.025,0.043,0.05,0.088,0.078,0.137C8.635,15.045,8.642,15.028,8.66,14.985z M5.358,14.249
	l-0.032-0.003L5.258,15.15l0.048,0.003L5.358,14.249z M22.16,14.557c-0.02,0.062-0.03,0.103-0.046,0.143
	c-0.052,0.131-0.148,0.215-0.286,0.232c-0.141,0.017-0.271-0.029-0.382-0.116c-0.091-0.071-0.171-0.155-0.262-0.238
	c0.092,0.263,0.37,0.467,0.636,0.467c0.072,0,0.101,0.021,0.078,0.098c-0.01,0.036,0.003,0.078,0.007,0.129
	C22.11,15.138,22.284,14.805,22.16,14.557L22.16,14.557z M21.275,15.304c0.025-0.107,0.034-0.181,0.025-0.237
	c-0.008-0.057-0.032-0.097-0.073-0.137C21.243,15.051,21.259,15.177,21.275,15.304z M14.246,15.389
	c-0.025,0.023-0.05,0.047-0.075,0.07l-0.025,0.023c-0.003-0.036-0.016-0.076-0.004-0.106c0.006-0.015,0.059-0.012,0.09-0.018
	L14.246,15.389z M10.843,15.528c0.181,0.061,0.297-0.07,0.284-0.299c0.029,0.047,0.058,0.093,0.072,0.116
	c0.044-0.068,0.08-0.157,0.144-0.208c0.071-0.058,0.169-0.084,0.257-0.122c0.031-0.014,0.064-0.021,0.097-0.031
	c0.028-0.009,0.055-0.019,0.082-0.029c-0.186,0.008-0.359,0.048-0.514,0.151c-0.029,0.02-0.069,0.029-0.104,0.032
	c-0.023,0.002-0.067-0.013-0.069-0.025c-0.004-0.025,0.006-0.063,0.025-0.078c0.065-0.054,0.132-0.11,0.207-0.148
	c0.153-0.078,0.312-0.144,0.484-0.221c-0.354,0.045-0.631,0.205-0.862,0.452c-0.056-0.087-0.058-0.089,0.006-0.149
	c0.04-0.037,0.084-0.068,0.127-0.102c0.458-0.36,0.971-0.455,1.533-0.32c0.108,0.026,0.215,0.055,0.348,0.088
	c-0.265-0.196-0.581-0.293-0.726-0.604c0.059,0.015,0.111,0.029,0.179,0.046c-0.073-0.111-0.169-0.174-0.288-0.189
	c-0.017-0.002-0.033-0.01-0.05-0.012c-0.084-0.006-0.168-0.011-0.255-0.016c-0.005,0.051-0.008,0.085-0.012,0.127
	c-0.044-0.108-0.086-0.208-0.137-0.333c-0.048,0.083-0.079,0.135-0.108,0.187c0.006,0.004,0.012,0.008,0.019,0.013
	c0.026-0.023,0.051-0.047,0.078-0.072c0.124,0.195,0.141,0.406,0.072,0.62c-0.024,0.075-0.055,0.052-0.069,0.032
	c-0.027-0.16-0.054-0.319-0.082-0.479c-0.012,0.001-0.023,0.003-0.035,0.005c0.006,0.073,0.012,0.146,0.019,0.222
	c-0.034,0.004-0.062,0.012-0.088,0.009c-0.104-0.009-0.183,0.016-0.232,0.122c-0.025,0.052-0.081,0.091-0.127,0.131
	c-0.175,0.151-0.356,0.297-0.529,0.452c-0.169,0.151-0.167,0.155-0.001,0.313c0.072,0.068,0.143,0.137,0.218,0.201
	c0.018,0.015,0.054,0.007,0.081,0.01c-0.007-0.026-0.01-0.054-0.022-0.078c-0.009-0.017-0.03-0.027-0.046-0.04
	c-0.106-0.089-0.213-0.179-0.322-0.269c0.127-0.078,0.172-0.088,0.228-0.038c0.11,0.103,0.239,0.192,0.257,0.372
	c0.022-0.028,0.034-0.044,0.052-0.066C11.021,15.377,10.958,15.453,10.843,15.528L10.843,15.528z M8.605,15.511
	c0.026-0.029,0.047-0.051,0.067-0.074c0.021,0.033,0.041,0.066,0.078,0.127c-0.012-0.084-0.001-0.165-0.034-0.191
	c-0.04-0.031-0.116-0.016-0.184-0.021L8.605,15.511z M5.721,14.97c-0.009-0.001-0.018-0.001-0.027-0.002v0.797H5.73
	C5.758,15.5,5.742,15.235,5.721,14.97z M14.299,15.468c0.016,0.088,0.037,0.169,0.042,0.252c0.001,0.025-0.036,0.068-0.063,0.074
	c-0.02,0.005-0.055-0.032-0.075-0.058c-0.015-0.02-0.013-0.052-0.024-0.077C14.137,15.56,14.165,15.498,14.299,15.468z
	 M1.458,14.295l-0.031,0.584l1.531,0.083l-0.021,0.375l-1.531-0.083l-0.031,0.584L1.037,15.82l0.083-1.542L1.458,14.295z
	 M21.411,15.475c0.01,0.167,0.033,0.196,0.177,0.205c0.076,0.005,0.153,0.001,0.229,0.001c0.004,0.124,0.024,0.191,0.062,0.203
	c0.043-0.119,0.043-0.12,0.183-0.118c0.137,0.002,0.273,0.008,0.41,0.01c0.049,0.001,0.098-0.004,0.146-0.007l0.002-0.026
	c-0.034-0.009-0.068-0.022-0.104-0.027c-0.132-0.021-0.264-0.039-0.395-0.058c-0.111-0.016-0.188-0.07-0.23-0.163
	C21.811,15.604,21.512,15.599,21.411,15.475z M7.609,15.984l0,0.001l-0.004-0.002C7.607,15.983,7.608,15.983,7.609,15.984z
	 M8.681,15.986c0.009,0,0.019-0.001,0.028-0.001c0-0.054,0.021-0.139-0.004-0.156c-0.048-0.034-0.124-0.029-0.188-0.041
	c0.027,0.061,0.049,0.108,0.071,0.158c0.016-0.021,0.03-0.041,0.053-0.073L8.681,15.986z M5.512,16.022h0.484
	c-0.156-0.034-0.314-0.045-0.472-0.054C5.521,15.969,5.517,15.997,5.512,16.022z M7.13,15.024c-0.026-0.049-0.052-0.099-0.079-0.147
	l-0.022,0.01c0.036,0.092,0.077,0.183,0.107,0.277c0.076,0.231,0.152,0.463,0.217,0.698c0.019,0.068,0.03,0.165-0.067,0.2
	c-0.084,0.031-0.155-0.018-0.193-0.132c-0.034-0.102-0.059-0.208-0.078-0.315c-0.019-0.111-0.021-0.224-0.038-0.335
	c-0.012-0.081-0.045-0.159-0.051-0.239c-0.009-0.115-0.002-0.232,0.012-0.35C7.027,14.792,7.129,14.88,7.13,15.024l0.001,0.001
	l0.002,0.003l-0.003,0v-0.002V15.024z M8.08,15.326H8.05c0,0.226,0,0.451,0,0.676c0,0.064,0.011,0.122,0.09,0.12
	c0.07-0.002,0.1-0.05,0.101-0.116c0.002-0.12,0.004-0.24,0.008-0.359c0.011-0.32,0.02-0.641,0.037-0.962
	c0.006-0.126-0.012-0.192-0.085-0.201c-0.075-0.01-0.117,0.042-0.119,0.177L8.08,15.326z M24.433,16.184l0.243,0.03
	c-0.001,0.012-0.002,0.024-0.003,0.036c-0.082-0.008-0.164-0.016-0.246-0.023L24.433,16.184z M22.107,16.05
	c-0.031,0.032-0.08,0.062-0.087,0.098c-0.006,0.03,0.042,0.07,0.065,0.105l0.047-0.001c0.025-0.035,0.074-0.076,0.068-0.105
	c-0.007-0.037-0.06-0.066-0.092-0.098L22.107,16.05z M7.375,16.09l0.03-0.012l0.125,0.275l-0.037,0.02
	C7.453,16.278,7.414,16.185,7.375,16.09z M20.181,16.521c-0.019,0.037-0.026,0.073,0.056,0.088c0.095,0.016,0.188,0.047,0.291,0.074
	c0.023-0.039-0.002-0.068-0.064-0.085L20.181,16.521z M27.055,16.053c0.007-0.25,0.067-0.438,0.181-0.564s0.277-0.186,0.491-0.18
	l0.605,0.017c0.214,0.006,0.374,0.075,0.48,0.207s0.156,0.323,0.149,0.573c-0.013,0.495-0.232,0.737-0.658,0.726l-0.094-0.002
	l0.011-0.375l0.093,0.003c0.102,0.003,0.177-0.021,0.224-0.072c0.048-0.05,0.073-0.146,0.077-0.286
	c0.004-0.147-0.019-0.25-0.068-0.308c-0.049-0.057-0.123-0.087-0.221-0.09l-0.612-0.017c-0.096-0.003-0.17,0.025-0.224,0.082
	c-0.054,0.058-0.083,0.158-0.087,0.299c-0.003,0.139,0.018,0.234,0.063,0.289c0.045,0.055,0.121,0.082,0.227,0.086l0.081,0.002
	l-0.01,0.375l-0.087-0.002c-0.218-0.006-0.378-0.073-0.479-0.201S27.048,16.299,27.055,16.053z M2.236,16.386l-0.648,0.302v0.006
	L2.275,16.9L2.236,16.386z M20.161,16.775c-0.004,0.008-0.009,0.015-0.013,0.021c0.109,0.038,0.219,0.076,0.357,0.123
	c-0.03-0.037-0.044-0.068-0.064-0.074C20.35,16.818,20.255,16.799,20.161,16.775z M13.147,15.212
	c0.009,0.026,0.009,0.031,0.011,0.032c0.021,0.017,0.042,0.034,0.065,0.048c0.386,0.255,0.649,0.616,0.851,1.022
	c0.099,0.201,0.164,0.417,0.249,0.625c0.011,0.028,0.047,0.047,0.071,0.07c0.007-0.031,0.025-0.066,0.019-0.097
	c-0.019-0.097-0.042-0.193-0.071-0.287c-0.154-0.49-0.418-0.911-0.794-1.261c-0.028-0.027-0.063-0.046-0.095-0.069l-0.007,0.012
	c0.091,0.106,0.182,0.212,0.273,0.318C13.538,15.484,13.38,15.314,13.147,15.212L13.147,15.212z M7.2,16.824l0.005-0.025
	c-0.025-0.01-0.05-0.025-0.076-0.025l-0.8-0.008c-0.016,0-0.034,0.002-0.048,0.01c-0.045,0.021-0.087,0.05-0.134,0.068
	c-0.046,0.02-0.1,0.023-0.144,0.047c-0.057,0.031-0.065,0.107-0.021,0.135c0.046,0.029,0.204,0.016,0.239-0.029
	c0.08-0.107,0.202-0.125,0.315-0.141c0.157-0.022,0.318-0.017,0.478-0.023L7.2,16.824z M20.133,17.082
	c0.104,0.021,0.199,0.041,0.299,0.063c0.001-0.008,0.008-0.037,0.004-0.037c-0.1-0.035-0.2-0.068-0.303-0.102V17.082z
	 M21.882,16.881c-0.093,0.059-0.168,0.219-0.139,0.275c0.079,0.158,0.238,0.232,0.379,0.18c0.107-0.041,0.162-0.129,0.138-0.221
	c-0.09,0.152-0.218,0.209-0.329,0.145C21.804,17.186,21.786,17.076,21.882,16.881z M5.218,16.655
	c0.073-0.05,0.122-0.083,0.182-0.124c-0.035-0.018-0.056-0.037-0.075-0.035c-0.093,0.006-0.186,0.025-0.278,0.023
	c-0.044,0-0.098-0.029-0.131-0.063c-0.041-0.041-0.064-0.1-0.104-0.166c-0.011,0.031-0.021,0.046-0.017,0.054
	c0.063,0.129,0.128,0.258,0.196,0.385C5,16.746,5.034,16.746,5.054,16.758c0.084,0.047,0.17,0.094,0.252,0.145
	c0.033,0.021,0.057,0.057,0.089,0.08c0.096,0.07,0.191,0.143,0.292,0.207c0.093,0.061,0.184,0.125,0.307,0.119
	c0.065-0.002,0.131,0.029,0.197,0.047c0.042-0.018,0.094-0.039,0.146-0.063c0.12-0.057,0.258-0.029,0.376-0.098
	c0.076-0.043,0.163-0.068,0.242-0.107c0.021-0.01,0.032-0.037,0.064-0.076L6.215,17.15c-0.277,0.047-0.484-0.106-0.692-0.247
	C5.42,16.834,5.329,16.746,5.218,16.655z M12.079,17.377c0.011-0.07-0.02-0.164,0.082-0.154c0.047,0.006,0.088,0.064,0.132,0.1
	c-0.006,0.008-0.012,0.018-0.017,0.027c0.022-0.004,0.044-0.008,0.067-0.012c0-0.107-0.065-0.162-0.154-0.176
	c-0.04-0.008-0.099,0.021-0.128,0.055C12.024,17.258,12.004,17.32,12.079,17.377z M8.062,17.08
	c-0.038,0.055-0.054,0.123-0.048,0.189c0.005,0.064,0.031,0.125,0.077,0.166C8.081,17.316,8.072,17.209,8.062,17.08z M20.414,17.457
	c0.04-0.098-0.007-0.125-0.08-0.141c-0.083-0.02-0.165-0.045-0.25-0.068c-0.018,0.059,0.012,0.09,0.094,0.098
	C20.265,17.354,20.359,17.354,20.414,17.457z M2.549,16.238l0.058,0.764l0.397,0.119l0.028,0.369l-1.925-0.621l-0.022-0.293
	l1.809-0.905l0.03,0.392L2.549,16.238z M13.45,17.602c0.004-0.016,0.011-0.029,0.009-0.039c-0.015-0.082,0.006-0.129,0.097-0.143
	c0.131-0.02,0.26-0.049,0.39-0.074c0.106-0.021,0.212-0.047,0.318-0.07c0-0.012-0.001-0.023-0.001-0.037
	c-0.033-0.006-0.068-0.025-0.098-0.02c-0.224,0.045-0.447,0.09-0.668,0.145C13.368,17.395,13.35,17.492,13.45,17.602z
	 M20.075,17.479c-0.037,0.082,0.003,0.1,0.056,0.113c0.082,0.021,0.164,0.047,0.247,0.072c0.014-0.047-0.005-0.072-0.067-0.086
	c-0.048-0.01-0.091-0.045-0.136-0.068C20.15,17.527,20.115,17.557,20.075,17.479z M14.082,17.592l-0.003-0.002
	c-0.001,0.002-0.002,0.002-0.003,0.004c-0.157,0.021-0.313,0.041-0.471,0.063c0.02,0.035,0.039,0.055,0.054,0.053
	c0.127-0.023,0.253-0.049,0.378-0.076c0.015-0.004,0.026-0.025,0.039-0.039L14.082,17.592z M20.346,17.896
	c-0.015-0.084-0.07-0.1-0.131-0.109c-0.062-0.008-0.128-0.008-0.165-0.059C20.084,17.885,20.267,17.805,20.346,17.896z
	 M20.521,17.793c-0.03,0.094-0.062,0.188-0.093,0.285c0.022,0.006,0.051,0.014,0.086,0.023c0.009-0.107,0.018-0.209,0.026-0.309
	c0.009-0.039,0.02-0.078,0.027-0.117c0.06-0.33,0.118-0.663,0.178-0.995c0.032-0.181,0.138-0.252,0.318-0.215
	c0.109,0.022,0.153,0.071,0.148,0.183c-0.005,0.102-0.021,0.203-0.03,0.305c-0.018,0.172-0.034,0.346-0.052,0.518
	c0.045-0.133,0.066-0.27,0.086-0.404c0.02-0.142,0.033-0.283,0.06-0.424c0.007-0.039,0.042-0.098,0.073-0.104
	c0.168-0.037,0.246,0.027,0.258,0.197c0.003,0.033,0.001,0.068-0.003,0.102c-0.032,0.221-0.067,0.439-0.096,0.66
	c-0.016,0.115-0.021,0.232-0.031,0.35l0.03,0.004c0.078-0.455,0.156-0.91,0.237-1.383c0.175,0.139,0.343,0.168,0.504,0.03
	c0.069-0.058,0.112-0.142,0.076-0.247c-0.169,0.145-0.256,0.156-0.369,0.053c-0.075-0.068-0.08-0.189-0.012-0.295
	c-0.029-0.03-0.057-0.06-0.096-0.101c-0.042,0.067-0.089,0.122-0.113,0.188c-0.023,0.065-0.023,0.138-0.035,0.214
	c-0.267-0.037-0.522-0.071-0.778-0.112c-0.086-0.014-0.164-0.032-0.177,0.089c-0.13-0.014-0.254-0.014-0.372-0.043
	c-0.131-0.033-0.218,0.002-0.283,0.115c-0.013,0.022-0.061,0.052-0.064,0.048c-0.075-0.067-0.131-0.009-0.176,0.02
	c-0.048-0.03-0.085-0.054-0.122-0.077c-0.021,0.036-0.049,0.07-0.06,0.108c-0.04,0.144-0.079,0.288-0.107,0.435
	c-0.036,0.18-0.062,0.361-0.091,0.541c0.125-0.246,0.063-0.537,0.195-0.812c0.1,0.216-0.037,0.401,0.001,0.61
	c0.067-0.209,0.063-0.419,0.206-0.582c0.07,0.236-0.036,0.461-0.05,0.689c-0.015,0.236-0.025,0.471-0.037,0.705l0.028,0.008
	c0.006-0.025,0.016-0.049,0.017-0.072c0.002-0.033-0.008-0.066-0.004-0.1c0.02-0.178,0.034-0.355,0.066-0.529
	c0.045-0.24,0.095-0.48,0.158-0.717c0.039-0.145,0.097-0.169,0.245-0.146c0.104,0.016,0.206,0.033,0.309,0.053
	c0.063,0.012,0.08,0.055,0.067,0.115c-0.019,0.089-0.037,0.178-0.052,0.269c-0.021,0.132-0.041,0.265-0.059,0.397
	c-0.02,0.156-0.076,0.309-0.04,0.469V17.793z M20.294,18.127c0.02-0.086-0.057-0.078-0.111-0.092
	c-0.057-0.016-0.113-0.029-0.18-0.047l-0.028,0.063L20.294,18.127z M8.365,18.051c0.301,0.248,0.632,0.184,0.764-0.145
	c0.06-0.148,0.1-0.314,0.1-0.475c0.001-0.539,0.007-1.079,0.111-1.611c0.068-0.346,0.171-0.682,0.452-0.929
	c0.082-0.072,0.161-0.149,0.231-0.232c0.034-0.041,0.054-0.101,0.06-0.154c0.018-0.165,0.022-0.331,0.039-0.496
	c0.008-0.072,0.034-0.143,0.052-0.214l-0.025-0.006c-0.034,0.126-0.067,0.252-0.102,0.378c-0.02,0.071-0.02,0.161-0.064,0.208
	c-0.185,0.189-0.384,0.366-0.574,0.543c-0.061-0.113-0.104-0.255-0.047-0.413c0.022-0.061,0.049-0.122,0.059-0.185
	c0.014-0.084,0.021-0.171,0.017-0.257c-0.004-0.073,0.006-0.131,0.062-0.184c0.063-0.061,0.116-0.13,0.174-0.196
	c-0.009-0.008-0.018-0.017-0.027-0.025c-0.088,0.078-0.18,0.153-0.262,0.236c-0.018,0.018-0.016,0.074-0.001,0.102
	c0.046,0.09,0.041,0.174,0,0.264c-0.1,0.219-0.166,0.441-0.032,0.673c0.005,0.009,0.008,0.02,0.007,0.029
	c-0.003,0.029-0.009,0.058-0.02,0.116c-0.196-0.199-0.303-0.413-0.391-0.64c0,0.259,0.167,0.448,0.275,0.663
	c-0.069-0.074-0.135-0.151-0.182-0.238c-0.09-0.164-0.176-0.332-0.142-0.534c-0.026,0.082-0.06,0.172-0.034,0.242
	c0.083,0.229,0.183,0.453,0.378,0.616c-0.16,0.429-0.216,0.878-0.238,1.331c-0.018,0.355-0.02,0.711-0.025,1.066
	c-0.004,0.297-0.231,0.531-0.468,0.49L8.365,18.051z M10.848,18.178l0.01,0.035c0.778-0.145,1.559-0.275,2.33-0.496
	c-0.034-0.031-0.075-0.064-0.108-0.059c-0.389,0.084-0.776,0.174-1.164,0.264c-0.143,0.033-0.283,0.074-0.425,0.109L10.848,18.178z
	 M24.957,16.872c-0.087-0.013-0.109,0.026-0.104,0.094c0.003,0.03,0.011,0.061,0.008,0.091c-0.037,0.355-0.075,0.713-0.114,1.068
	c-0.007,0.068-0.017,0.137-0.024,0.205c0.006,0,0.012,0,0.018,0.002L24.957,16.872z M24.182,18.35l0.03,0.002
	c0.03-0.229,0.06-0.457,0.091-0.686c0.031-0.227,0.064-0.453,0.099-0.688c-0.135,0.07-0.101,0.201-0.12,0.303
	c-0.021,0.109-0.011,0.225-0.022,0.338L24.182,18.35z M6.173,18.16v-0.242l0.016,0.004C6.184,18.002,6.178,18.08,6.173,18.16v0.203
	H6.159C6.163,18.295,6.168,18.227,6.173,18.16z M20.4,18.367c-0.003-0.049-0.001-0.088-0.012-0.125
	c-0.002-0.008-0.055-0.016-0.068-0.006c-0.072,0.063-0.121,0.033-0.172-0.027c-0.014-0.016-0.052-0.016-0.078-0.014
	c-0.011,0.002-0.029,0.031-0.025,0.043c0.007,0.021,0.024,0.051,0.043,0.055C20.184,18.32,20.281,18.34,20.4,18.367z M28.46,17.699
	l-0.414-0.074l-0.145,0.809l-0.331-0.059l0.146-0.811l-0.435-0.078l-0.156,0.875l-0.331-0.059l0.223-1.244l1.843,0.33l-0.223,1.244
	l-0.334-0.061L28.46,17.699z M19.095,12.362c0.035-0.054,0.024-0.104-0.012-0.156c-0.068-0.097-0.133-0.197-0.198-0.297
	c-0.014-0.021-0.021-0.046-0.032-0.07l-0.03,0.03L19.095,12.362v0.002l0.07,0.367c0.041,0.163,0.003,0.302-0.102,0.429
	c-0.021,0.027-0.046,0.063-0.045,0.095c0.001,0.083,0.015,0.167,0.024,0.252c-0.034-0.021-0.07-0.045-0.107-0.069
	c-0.6,0.149-1.22,0.127-1.836,0.219c0.02,0.033,0.029,0.064,0.051,0.083c0.1,0.088,0.138,0.2,0.133,0.329
	c-0.003,0.095-0.02,0.192-0.004,0.284c0.015,0.086-0.004,0.152-0.048,0.221c-0.059,0.092-0.116,0.184-0.168,0.28
	c-0.04,0.071-0.012,0.12,0.069,0.126c0.061,0.004,0.123-0.006,0.184-0.001c0.152,0.012,0.306,0.023,0.456,0.046
	c0.191,0.028,0.379,0.091,0.575,0.043c0.012-0.002,0.025,0.01,0.039,0.012l0.585,0.048c0.054,0.004,0.107,0.013,0.161,0.021
	c0.136,0.022,0.271,0.062,0.405,0.064c0.142,0.002,0.289,0.126,0.438-0.035c0.034,0.093,0.065,0.163,0.085,0.236
	c0.036,0.135-0.055,0.217-0.189,0.182c-0.221-0.058-0.44-0.117-0.663-0.163c-0.145-0.029-0.293-0.036-0.439-0.053
	c0.21,0.065,0.424,0.104,0.634,0.158c0.144,0.037,0.282,0.095,0.421,0.149c0.024,0.009,0.038,0.043,0.057,0.065
	c-0.007,0.008-0.014,0.017-0.021,0.025c-0.027-0.015-0.055-0.031-0.082-0.045c-0.058-0.028-0.114-0.061-0.175-0.083
	c-0.328-0.116-0.674-0.145-1.017-0.182c-0.392-0.042-0.787-0.068-1.182-0.08c-0.464-0.014-0.929-0.02-1.389,0.069
	c-0.331,0.064-0.665,0.067-1,0.026c-0.138-0.017-0.272-0.051-0.397-0.157c0.102,0.04,0.184,0.085,0.272,0.104
	c0.452,0.099,0.902,0.043,1.332-0.094c0.327-0.104,0.557-0.359,0.739-0.647c0.016-0.024,0.012-0.064,0.011-0.097
	c-0.001-0.042-0.009-0.085-0.014-0.128c-0.028,0.066-0.029,0.149-0.065,0.213c-0.041,0.074-0.111,0.132-0.17,0.197l-0.008-0.007
	c0.058-0.079,0.114-0.157,0.172-0.234c-0.009-0.008-0.018-0.015-0.026-0.023l-0.376,0.382l-0.013-0.013
	c0.071-0.095,0.144-0.19,0.216-0.286c-0.007-0.005-0.014-0.011-0.021-0.017c-0.063,0.06-0.126,0.12-0.188,0.179l-0.006-0.005
	l0.23-0.351c-0.007-0.004-0.015-0.01-0.022-0.014c-0.063,0.079-0.126,0.159-0.189,0.238c-0.093,0.114-0.182,0.233-0.337,0.267
	c-0.374,0.081-0.749,0.152-1.135,0.13c-0.054-0.003-0.114-0.005-0.159-0.03c-0.219-0.118-0.433-0.246-0.65-0.367
	c-0.422-0.235-0.836-0.49-1.326-0.566c-0.148-0.023-0.296-0.051-0.445-0.076c-0.008,0.013-0.016,0.026-0.024,0.039
	c0.046,0.038,0.09,0.08,0.14,0.112c0.253,0.161,0.497,0.334,0.769,0.467c0.225,0.109,0.435,0.25,0.648,0.381
	c0.09,0.055,0.173,0.122,0.273,0.193c-0.075,0.02-0.117,0.031-0.13,0.034c-0.155-0.102-0.293-0.193-0.432-0.284
	c0.085,0.142,0.191,0.258,0.279,0.386c0.049,0.071,0.094,0.106,0.175,0.074l0.004-0.003l0.001,0.001
	c-0.002,0-0.003,0.001-0.005,0.002c-0.026,0.02-0.053,0.04-0.08,0.06c0.015,0.028,0.028,0.052,0.04,0.077
	c0.01,0.021,0.017,0.043,0.025,0.065c-0.227-0.271-0.459-0.526-0.773-0.694c-0.31-0.166-0.631-0.291-0.983-0.32
	c0.108,0.039,0.218,0.073,0.328,0.104c0.354,0.099,0.667,0.272,0.937,0.521c0.306,0.284,0.497,0.645,0.662,1.02
	c0.078,0.176,0.135,0.363,0.202,0.545c0.006-0.001,0.011-0.002,0.017-0.004l-0.196-0.981c0.009-0.002,0.019-0.004,0.028-0.006
	c0.018,0.069,0.038,0.138,0.052,0.206c0.086,0.424,0.18,0.846,0.252,1.271c0.019,0.113,0.132,0.266-0.06,0.355l0.152-0.012
	l0.016,0.035c-0.062,0.045-0.124,0.088-0.203,0.146c0.054-0.008,0.089-0.018,0.123-0.014c0.03,0.002,0.058,0.02,0.086,0.029
	c-0.017,0.027-0.028,0.063-0.052,0.078c-0.042,0.025-0.093,0.039-0.155,0.063c0.175,0.027,0.195,0.025,0.246-0.049
	c0.013,0.113,0.024,0.211,0.035,0.307c-0.006,0-0.012,0-0.018,0.002c-0.005-0.02-0.009-0.041-0.014-0.061
	c-0.011,0.057,0.017,0.115,0.002,0.16c-0.041,0.123,0.032,0.133,0.127,0.135c-0.021,0.051-0.04,0.096-0.059,0.141
	c0.125,0.01,0.189-0.074,0.252-0.145c0.068-0.074,0.04-0.18-0.043-0.236c-0.021-0.016-0.039-0.045-0.042-0.07
	c-0.017-0.146-0.023-0.295-0.044-0.441c-0.019-0.131-0.052-0.26-0.079-0.389c-0.075-0.363-0.149-0.727-0.225-1.09
	c-0.039-0.185-0.079-0.37-0.117-0.545c0.274,0.109,0.542,0.223,0.814,0.324c0.303,0.112,0.608,0.163,0.931,0.065
	c0.22-0.066,0.447-0.123,0.675-0.146c0.394-0.038,0.79-0.045,1.187-0.064c0.467-0.021,0.936-0.035,1.402-0.065
	c0.123-0.008,0.269-0.001,0.361-0.107c0.078-0.089,0.136-0.197,0.183-0.267c-0.037-0.143-0.102-0.264-0.09-0.376
	c0.025-0.237-0.112-0.416-0.181-0.618c-0.045-0.133-0.145-0.246-0.211-0.373c-0.047-0.089-0.117-0.105-0.206-0.096
	c-0.021,0.003-0.044-0.002-0.037-0.002c-0.033-0.057-0.055-0.095-0.077-0.132c-0.044-0.074-0.094-0.145-0.131-0.222
	c-0.046-0.097-0.077-0.197-0.086-0.31c-0.008-0.1,0.017-0.179,0.083-0.239c0.087-0.078,0.06-0.171,0.053-0.26
	c-0.005-0.072-0.028-0.144-0.042-0.216c-0.014-0.077-0.02-0.156-0.039-0.231c-0.007-0.022-0.048-0.035-0.073-0.052V12.362z
	 M2.89,18.215c-0.027-0.121-0.066-0.201-0.117-0.236c-0.051-0.037-0.119-0.047-0.205-0.027c-0.082,0.02-0.137,0.059-0.165,0.117
	c-0.027,0.059-0.027,0.15,0.001,0.275l0.084,0.371l0.489-0.111L2.89,18.215z M8.092,18.76c0-0.059,0.013-0.119-0.002-0.172
	C8,18.277,7.724,18.133,7.494,17.959c-0.137-0.104-0.331-0.139-0.314-0.371c-0.021,0.051-0.042,0.1-0.063,0.152
	c-0.092-0.021-0.189-0.092-0.307-0.025c0.029,0.027,0.052,0.049,0.074,0.07c0.054-0.021,0.111-0.039,0.148-0.018
	c0.115,0.061,0.177,0.162,0.181,0.277c-0.06-0.061-0.128-0.131-0.196-0.199c-0.011,0.01-0.022,0.02-0.034,0.027
	c0.016,0.023,0.031,0.049,0.048,0.07c0.077,0.105,0.157,0.205,0.089,0.352c-0.02,0.041-0.003,0.102-0.003,0.16
	c0.118-0.063,0.161-0.148,0.173-0.322c0.071,0.084,0.122,0.082,0.21-0.025c-0.024-0.012-0.05-0.025-0.076-0.039
	c0.006-0.006,0.013-0.012,0.019-0.018C7.714,18.227,7.989,18.4,8.092,18.76L8.092,18.76z M7.569,18.295
	c-0.036,0.033-0.06,0.066-0.093,0.084c-0.119,0.066-0.137,0.133-0.062,0.248c0.111,0.168,0.24,0.223,0.388,0.16
	c0.119-0.049,0.134-0.086,0.051-0.186L7.569,18.295z M1.825,18.213c-0.064,0.016-0.108,0.049-0.132,0.104
	c-0.023,0.053-0.023,0.133,0,0.238l0.074,0.324l0.407-0.092l-0.083-0.365c-0.021-0.094-0.054-0.156-0.096-0.188
	C1.952,18.205,1.896,18.197,1.825,18.213z M6.405,17.85c-0.019,0.08-0.036,0.154-0.059,0.248c0.063-0.039,0.141,0.068,0.166-0.063
	c0.008,0.078,0.021,0.146,0.022,0.217c0.004,0.125,0.103,0.189,0.181,0.256c0.15,0.133,0.254,0.293,0.368,0.467
	c-0.048,0-0.082,0.01-0.107,0c-0.221-0.092-0.449-0.17-0.6-0.377c-0.143-0.197-0.164-0.492-0.029-0.693
	C6.36,17.885,6.382,17.871,6.405,17.85z M6.237,17.803c0.028-0.041,0.079-0.107,0.122-0.18c0.015-0.025,0.014-0.061,0.021-0.092
	c-0.046,0.008-0.093,0.012-0.138,0.023c-0.004,0.002,0.005,0.053,0.009,0.098c-0.286,0.414-0.21,0.908,0.038,1.066
	c-0.036-0.08-0.075-0.164-0.113-0.25l0.027-0.014c0.007,0.01,0.016,0.02,0.022,0.029c0.195,0.311,0.474,0.49,0.838,0.535
	c0.021,0.002,0.053,0,0.063-0.014c0.009-0.014,0.002-0.047-0.008-0.064c-0.04-0.074-0.083-0.148-0.125-0.221
	c-0.009-0.018-0.016-0.035-0.023-0.053c0.027-0.016,0.048-0.029,0.079-0.047c-0.172-0.033-0.275-0.121-0.254-0.223
	c0.009-0.047,0.042-0.105,0.081-0.123c0.058-0.025,0.129-0.021,0.191-0.031c-0.061-0.102-0.14-0.148-0.231-0.115
	c-0.036,0.012-0.062,0.053-0.093,0.08l0.004,0.008c-0.033,0.023-0.065,0.045-0.099,0.068c-0.083-0.088-0.03-0.186,0.003-0.279
	c-0.104-0.041-0.082,0.033-0.091,0.084c-0.011-0.146-0.011-0.287-0.012-0.428c0-0.023-0.004-0.047-0.007-0.07
	c-0.023,0.008-0.05,0.012-0.069,0.025L6.237,17.803z M7.294,19.066c0.228,0.047,0.459,0.002,0.685-0.166
	c-0.122,0.021-0.224,0.027-0.319,0.055c-0.157,0.047-0.272,0.018-0.341-0.141c-0.009-0.02-0.03-0.035-0.045-0.055l-0.011,0.023
	c-0.039-0.012-0.079-0.023-0.121-0.035L7.294,19.066z M24.597,19.242c0.002-0.014,0.004-0.027,0.006-0.041
	c-0.085-0.008-0.17-0.01-0.253-0.027c-0.164-0.031-0.199-0.039-0.235,0C24.283,19.197,24.44,19.221,24.597,19.242z M2.107,17.98
	c0.016-0.111,0.055-0.199,0.116-0.264s0.148-0.111,0.261-0.137c0.189-0.043,0.342-0.016,0.459,0.078
	c0.117,0.096,0.203,0.264,0.258,0.506l0.167,0.734l-1.825,0.416l-0.168-0.74c-0.047-0.207-0.042-0.365,0.015-0.479
	c0.058-0.113,0.167-0.188,0.329-0.225c0.074-0.016,0.143-0.018,0.208,0C1.991,17.887,2.051,17.924,2.107,17.98z M25.111,18.986
	c0.033,0.016,0.078,0.033,0.12,0.057c0.014,0.01,0.033,0.037,0.029,0.045c-0.073,0.125,0.049,0.174,0.084,0.25
	c0.031-0.137,0.062-0.271,0.089-0.406c0.006-0.027,0-0.057-0.002-0.086c-0.031,0.004-0.068-0.002-0.095,0.012
	C25.261,18.895,25.189,18.939,25.111,18.986z M12.707,19.564c-0.11,0.025-0.22,0.049-0.331,0.072l-0.008-0.029
	c0.109-0.027,0.219-0.057,0.328-0.084C12.7,19.537,12.703,19.551,12.707,19.564z M14.082,17.592c0.085,0.055,0.186,0.096,0.25,0.17
	c0.104,0.119,0.134,0.273,0.105,0.432c-0.029,0.168-0.08,0.326-0.267,0.387c-0.068,0.021-0.139,0.033-0.208,0.051
	c-0.062,0.018-0.124,0.037-0.186,0.055l0.007,0.027h0.254c0.08-0.07,0.087-0.072,0.167,0.006c-0.111,0.031-0.211,0.059-0.312,0.088
	c0.057,0.031,0.121,0.037,0.181,0.057c0.03,0.008,0.075,0.039,0.075,0.063c0.004,0.133-0.117,0.262-0.249,0.281
	c-0.089,0.012-0.196-0.01-0.247,0.113c0.071-0.006,0.138-0.012,0.205-0.012c0.03,0,0.059,0.016,0.089,0.025
	c-0.014,0.029-0.02,0.066-0.042,0.086c-0.096,0.08-0.197,0.154-0.295,0.23c-0.012,0.01-0.018,0.029-0.029,0.047
	c0.018,0.002,0.026,0.006,0.03,0.002c0.316-0.209,0.573-0.469,0.714-0.83c0.063-0.16,0.124-0.322,0.194-0.479
	c0.03-0.068,0.054-0.129,0.033-0.205c-0.021-0.074-0.026-0.154-0.045-0.229c-0.029-0.113-0.065-0.225-0.099-0.338
	c-0.007-0.014-0.014-0.025-0.021-0.039c-0.039,0.125-0.073,0.061-0.109,0.045c-0.055-0.025-0.111-0.049-0.168-0.07
	C14.107,17.553,14.092,17.578,14.082,17.592z M11.975,19.705c0.101-0.025,0.201-0.049,0.302-0.074
	c0.002,0.01,0.004,0.02,0.007,0.029c-0.103,0.021-0.206,0.041-0.31,0.061L11.975,19.705z M8.086,19.379
	c0.264,0.141,0.471,0.318,0.751,0.35c0.107,0.012,0.213,0.043,0.32,0.057c0.192,0.021,0.385,0.037,0.578,0.055
	c0.181,0.016,0.36,0.02,0.527-0.066c0.027-0.016,0.062-0.043,0.065-0.068c0.003-0.021-0.034-0.049-0.054-0.072
	c-0.02-0.023-0.042-0.043-0.06-0.066c-0.036-0.049-0.061-0.109-0.104-0.148c-0.078-0.074-0.172-0.129-0.248-0.203
	c-0.068-0.068-0.146-0.143-0.174-0.229c-0.054-0.164-0.161-0.266-0.303-0.346c-0.068-0.037-0.134-0.078-0.204-0.111
	c-0.043-0.021-0.091-0.041-0.136-0.041c-0.064,0.004-0.128,0.033-0.192,0.037c-0.117,0.006-0.235,0.002-0.361,0.002
	C8.616,18.914,8.479,19.191,8.086,19.379z M24.071,19.117l-0.009-0.039c-0.062-0.014-0.123-0.027-0.187-0.037
	c-0.158-0.025-0.328-0.023-0.475-0.08c-0.236-0.09-0.42-0.035-0.581,0.137c-0.034,0.035-0.066,0.113-0.05,0.146
	c0.03,0.057,0.094,0.121,0.152,0.131c0.126,0.02,0.257,0.01,0.386,0.006c0.077-0.002,0.155-0.027,0.231-0.023
	c0.17,0.006,0.34,0.023,0.509,0.039c0.14,0.012,0.278,0.025,0.417,0.047c0.028,0.006,0.077,0.053,0.072,0.07
	c-0.031,0.117,0.043,0.205,0.088,0.291c0.054,0.1,0.147,0.164,0.281,0.139s0.271-0.037,0.406-0.053c0.1-0.012,0.2-0.039,0.233-0.137
	c0.038-0.109,0.008-0.219-0.084-0.32c0,0.064,0.016,0.119-0.003,0.156c-0.039,0.08-0.081,0.191-0.149,0.219
	c-0.207,0.082-0.347-0.008-0.37-0.24c-0.016-0.152-0.024-0.184-0.178-0.199c-0.412-0.037-0.825-0.064-1.237-0.1
	c-0.195-0.016-0.39-0.043-0.585-0.064v-0.133c0.084,0,0.168-0.008,0.252,0.002c0.263,0.023,0.525,0.057,0.789,0.082
	C24.01,19.158,24.041,19.131,24.071,19.117L24.071,19.117z M9.959,20.156c0.114-0.025,0.229-0.049,0.343-0.074
	c0.002,0.01,0.004,0.02,0.006,0.029c-0.115,0.025-0.229,0.051-0.344,0.076C9.963,20.178,9.961,20.166,9.959,20.156z M12.92,18.604
	c0.117-0.031,0.233-0.063,0.345-0.094c-0.055-0.08-0.156-0.139-0.254-0.121c-0.221,0.037-0.441,0.08-0.66,0.129
	c-0.298,0.068-0.594,0.145-0.892,0.215c-0.262,0.061-0.526,0.111-0.787,0.178c-0.177,0.045-0.202,0.094-0.186,0.271
	c-0.034-0.063-0.063-0.127-0.091-0.191c-0.015-0.035-0.021-0.086-0.045-0.1c-0.091-0.045-0.09-0.131-0.108-0.209
	c-0.021-0.088-0.038-0.18-0.05-0.27c-0.005-0.043,0.006-0.088,0.008-0.117c-0.042-0.064-0.104-0.123-0.122-0.193
	c-0.024-0.098-0.017-0.203-0.021-0.307c-0.018-0.473,0.047-0.934,0.189-1.383c0.076-0.236,0.186-0.462,0.282-0.696
	c0.237,0.135,0.329,0.144,0.409,0.062c-0.069-0.007-0.155,0.001-0.226-0.027c-0.075-0.03-0.136-0.093-0.214-0.15
	c-0.476,0.775-0.585,1.652-0.47,2.58c-0.037-0.033-0.069-0.072-0.074-0.113c-0.063-0.572-0.021-1.143,0.099-1.701
	c0.065-0.305,0.222-0.589,0.339-0.882c0.02-0.05,0.059-0.061,0.108-0.032c0.053,0.031,0.108,0.057,0.162,0.085
	c-0.117-0.14-0.246-0.26-0.38-0.375c-0.02-0.017-0.079-0.017-0.098,0c-0.118,0.103-0.232,0.211-0.342,0.323
	c-0.032,0.033-0.053,0.091,0.012,0.117c0.071,0.028,0.074,0.08,0.073,0.141c0,0.262,0,0.523,0,0.786
	c0,0.031-0.004,0.063-0.007,0.093H9.908c-0.009-0.097-0.018-0.193-0.026-0.291l-0.017,0.001v1.726c-0.106,0-0.146-0.043-0.141-0.141
	c0.005-0.084-0.002-0.17-0.004-0.256c-0.011-0.438-0.024-0.875-0.034-1.313c-0.002-0.099,0.004-0.203,0.143-0.212
	c0.004-0.001,0.008-0.014,0.013-0.022c-0.146-0.002-0.218-0.076-0.218-0.224c0-0.024,0.001-0.048,0-0.072
	c-0.003-0.068,0.023-0.101,0.096-0.097c0.047,0.002,0.095-0.007,0.143-0.011c-0.001-0.006-0.002-0.012-0.003-0.018
	c-0.062-0.017-0.125-0.034-0.186-0.051c0.043-0.046,0.074-0.074,0.098-0.105c0.051-0.066,0.092-0.141,0.15-0.199
	c0.094-0.093,0.198-0.174,0.298-0.26c-0.063-0.102-0.121-0.195-0.18-0.291c-0.071,0.082-0.135,0.156-0.199,0.23
	c-0.316,0.365-0.472,0.793-0.491,1.271c-0.016,0.387-0.01,0.771-0.024,1.158c-0.01,0.256-0.087,0.494-0.251,0.697
	c-0.036,0.045-0.086,0.076-0.129,0.113c0.07-0.002,0.13-0.029,0.192-0.037c0.045-0.006,0.122,0,0.136,0.027
	c0.076,0.145,0.253,0.105,0.354,0.203c0.012,0.012,0.046,0,0.069-0.002c0.033-0.004,0.064-0.01,0.09-0.014
	c-0.011,0.064-0.047,0.139-0.024,0.176c0.074,0.119,0.168,0.225,0.258,0.334c0.092,0.109,0.205,0.205,0.279,0.324
	c0.106,0.172,0.213,0.338,0.371,0.469c-0.077,0.037-0.148,0.078-0.224,0.107c-0.201,0.074-0.401,0.15-0.624,0.121
	c-0.155-0.02-0.312-0.037-0.468-0.041c-0.153-0.004-0.293-0.096-0.452-0.061c-0.009,0.002-0.021,0-0.03-0.004
	c-0.174-0.074-0.348-0.146-0.521-0.223c-0.04-0.018-0.075-0.049-0.114-0.068c-0.164-0.078-0.302-0.189-0.44-0.328
	c0.051-0.014,0.086-0.021,0.122-0.029c0.413-0.096,0.62-0.449,0.386-0.844c-0.102-0.17-0.25-0.295-0.406-0.412
	c-0.16-0.119-0.162-0.115-0.097-0.305c0.021-0.063-0.027-0.115-0.09-0.129c-0.094-0.02-0.191-0.045-0.274-0.09
	c-0.099-0.053-0.185-0.129-0.3-0.213c0.018,0.041,0.02,0.057,0.029,0.066c0.112,0.123,0.227,0.242,0.336,0.365
	c0.041,0.047,0.071,0.102,0.105,0.154c-0.009,0.01-0.019,0.02-0.028,0.029c-0.056-0.018-0.111-0.035-0.167-0.053
	c0.037,0.035,0.078,0.059,0.119,0.082c0.253,0.143,0.504,0.287,0.672,0.539c0.137,0.205,0.17,0.52-0.078,0.656
	c-0.109,0.063-0.237,0.094-0.361,0.125c-0.104,0.025-0.213,0.029-0.327,0.043c0.231,0.283,0.564,0.502,0.764,0.518
	c-0.178-0.133-0.369-0.275-0.56-0.418l0.019-0.033c0.689,0.625,1.51,0.818,2.413,0.754c-0.075,0.023-0.151,0.047-0.234,0.072
	c0.011,0.021,0.02,0.037,0.035,0.066c-0.062,0.008-0.118,0.023-0.174,0.023c-0.205,0.004-0.412,0.016-0.615,0
	c-0.143-0.014-0.283-0.068-0.423-0.105c-0.039-0.012-0.074-0.035-0.112-0.049c-0.444-0.16-0.849-0.385-1.197-0.709
	c-0.082-0.074-0.171-0.117-0.291-0.125c-0.26-0.018-0.512-0.078-0.735-0.225c-0.073-0.049-0.146-0.1-0.236-0.16
	c0.017,0.029,0.021,0.039,0.027,0.047c0.265,0.322,0.637,0.42,1.024,0.467c0.122,0.016,0.209,0.055,0.296,0.133
	c0.237,0.213,0.497,0.395,0.787,0.529c0.041,0.018,0.095,0.016,0.129,0.041c0.193,0.141,0.42,0.213,0.644,0.236
	c0.32,0.035,0.647,0.012,0.972,0.01c0.051,0,0.103-0.018,0.154-0.025c0.081-0.012,0.177,0.004,0.24-0.035
	c0.076-0.049,0.146-0.086,0.236-0.102c0.057-0.01,0.108-0.057,0.163-0.084c0.085-0.041,0.167-0.104,0.257-0.119
	c0.222-0.041,0.448-0.061,0.643-0.086c0.06,0.029,0.098,0.063,0.138,0.064c0.253,0.018,0.507,0.025,0.76,0.037
	c0.013,0,0.026-0.006,0.039-0.01c0.043-0.016,0.086-0.037,0.131-0.051c0.036-0.012,0.074-0.018,0.111-0.025
	c-0.001-0.01-0.003-0.02-0.004-0.029h-0.631c-0.001-0.008-0.002-0.018-0.003-0.025c0.26-0.047,0.517-0.102,0.761-0.211
	c-0.119,0.02-0.237,0.039-0.356,0.057c-0.001-0.008-0.003-0.016-0.005-0.023c0.024-0.008,0.048-0.02,0.073-0.025
	c0.201-0.047,0.403-0.09,0.604-0.137c0.153-0.037,0.202-0.1,0.184-0.256c-0.021-0.172-0.05-0.342-0.084-0.514
	c-0.026-0.131-0.103-0.176-0.233-0.146c-0.076,0.016-0.151,0.033-0.227,0.051H12.92c-0.126,0.029-0.252,0.059-0.378,0.09
	l-0.007-0.039L12.92,18.604z M9.498,12.364L9.498,12.364c-0.041-0.103-0.065-0.109-0.148-0.045
	c-0.071,0.054-0.146,0.103-0.218,0.154c0.225-0.19,0.451-0.381,0.676-0.571l0.021,0.017c-0.013,0.017-0.021,0.041-0.039,0.05
	c-0.186,0.094-0.209,0.247-0.172,0.432c0.035,0.177,0.055,0.357,0.083,0.536c0.005,0.03,0.009,0.07,0.029,0.085
	c0.039,0.03,0.087,0.047,0.132,0.069c-0.001-0.04,0.005-0.081-0.005-0.119c-0.063-0.247-0.131-0.493-0.191-0.741
	c-0.007-0.03,0.011-0.08,0.035-0.101c0.118-0.104,0.236-0.208,0.365-0.297c0.08-0.055,0.089-0.093,0.014-0.153
	c-0.008,0.002-0.02,0.001-0.027,0.007c-0.219,0.157-0.441,0.31-0.654,0.474c-0.283,0.219-0.555,0.452-0.839,0.67
	c-0.175,0.135-0.315,0.277-0.304,0.52c0.008,0.192-0.149,0.29-0.263,0.406c-0.194,0.197-0.325,0.429-0.365,0.699
	c-0.021,0.145-0.105,0.2-0.215,0.248c-0.037,0.016-0.074,0.029-0.111,0.044l0.005,0.03c0.063-0.005,0.126-0.02,0.188-0.015
	c0.061,0.005,0.12,0.03,0.179,0.046c0,0.011,0,0.022,0,0.032c-0.08,0.04-0.16,0.079-0.261,0.128c0.123,0.019,0.2,0.062,0.198,0.18
	c-0.001,0.088,0,0.176,0,0.264c-0.009,0.003-0.018,0.005-0.027,0.008c-0.031-0.062-0.069-0.121-0.093-0.186
	c-0.067-0.187-0.138-0.372-0.298-0.502c-0.03-0.025-0.083-0.022-0.116-0.044c-0.049-0.032-0.119-0.069-0.13-0.117
	c-0.031-0.124-0.04-0.255-0.047-0.384c-0.002-0.038,0.016-0.094,0.044-0.113c0.146-0.1,0.299-0.19,0.45-0.283
	c0.01-0.006,0.021-0.01,0.032-0.015L7.441,13.8c-0.116,0.101-0.232,0.202-0.348,0.303c0.003,0.005,0.006,0.011,0.009,0.017
	c0.111-0.06,0.223-0.12,0.357-0.191c0,0.234-0.188,0.278-0.29,0.4c0.082-0.023,0.164-0.047,0.25-0.071
	c0.046,0.197-0.135,0.226-0.218,0.317c0.122-0.01,0.242-0.02,0.374-0.031C7.562,14.51,7.536,14.47,7.53,14.426
	c-0.015-0.096-0.051-0.201-0.026-0.287c0.101-0.35,0.218-0.694,0.335-1.039c0.049-0.144,0.112-0.283,0.189-0.425
	c0.014,0.067,0.027,0.133,0.045,0.221c0.038-0.004,0.103,0.009,0.125-0.016c0.034-0.041,0.051-0.105,0.054-0.16
	c0.003-0.056-0.01-0.118-0.033-0.169c-0.069-0.151-0.011-0.278,0.067-0.401c0.219-0.344,0.458-0.672,0.776-0.933
	c0.108-0.089,0.075-0.17-0.003-0.251c-0.136-0.142-0.188-0.146-0.339-0.01C8.6,11.06,8.493,11.18,8.38,11.294
	c-0.096,0.097-0.196,0.191-0.288,0.292c-0.066,0.074-0.122,0.158-0.183,0.237c-0.027,0.035-0.055,0.068-0.083,0.103L7.802,11.91
	c0.005-0.019,0.009-0.038,0.015-0.057c0.022-0.07,0.008-0.08-0.064-0.075c-0.028,0.002-0.067-0.028-0.087-0.054
	c-0.177-0.229-0.352-0.459-0.527-0.69c-0.012,0.006-0.023,0.012-0.035,0.017c0.016,0.033,0.027,0.069,0.048,0.098
	c0.215,0.285,0.432,0.568,0.669,0.879c0.067-0.094,0.132-0.185,0.194-0.271c0.122,0.074,0.17,0.197,0.309,0.161
	c-0.142,0.2-0.276,0.397-0.418,0.587c-0.14,0.188-0.306,0.359-0.366,0.598c0.049-0.066,0.097-0.132,0.162-0.221
	c-0.016,0.055-0.024,0.083-0.032,0.112l0.012,0.009c0.021-0.023,0.041-0.046,0.064-0.073c0.011,0.017,0.022,0.027,0.021,0.033
	c-0.104,0.334-0.269,0.623-0.585,0.804c-0.069,0.04-0.122,0.108-0.19,0.15c-0.065,0.04-0.142,0.062-0.221,0.095
	c-0.038-0.121-0.04-0.2,0.051-0.264c0.234-0.164,0.465-0.333,0.698-0.499c0.01-0.007,0.019-0.017,0.028-0.025l-0.018-0.027
	c-0.27,0.174-0.54,0.347-0.821,0.528c-0.013-0.06-0.016-0.118-0.039-0.167c-0.063-0.137-0.184-0.181-0.327-0.185
	c-0.2-0.006-0.399-0.018-0.627-0.029c0.084-0.109,0.143-0.196,0.214-0.272c0.022-0.024,0.075-0.027,0.114-0.027
	c0.125,0,0.25,0.016,0.374,0.005c0.128-0.011,0.254-0.042,0.379-0.072c0.026-0.006,0.057-0.041,0.064-0.068
	c0.02-0.078,0.029-0.158,0.041-0.238c0.006-0.041,0.017-0.082,0.011-0.122c-0.018-0.141,0.042-0.26,0.156-0.337
	c0.174-0.115,0.341-0.239,0.522-0.367c-0.139-0.173-0.26-0.324-0.38-0.476c-0.095-0.12-0.191-0.239-0.279-0.364
	c-0.074-0.105-0.054-0.212,0.04-0.299c0.067-0.062,0.131-0.128,0.204-0.183c0.047-0.036,0.11-0.048,0.159-0.082
	c0.108-0.075,0.211-0.158,0.318-0.237c0.038-0.028,0.076-0.066,0.119-0.076c0.077-0.019,0.09-0.078,0.098-0.134
	c0.019-0.134,0.052-0.255,0.173-0.336c0.077-0.052,0.149-0.11,0.218-0.171c0.041-0.037,0.072-0.057,0.119-0.011
	c0.006,0.006,0.047-0.02,0.069-0.034c0.025-0.017,0.048-0.037,0.079-0.061c0.01,0.053,0.016,0.083,0.021,0.113
	C8.57,9.492,8.604,9.495,8.612,9.481C8.625,9.46,8.629,9.428,8.625,9.402C8.607,9.305,8.65,9.237,8.761,9.198
	c0.015,0.024,0.031,0.049,0.046,0.074c0.019-0.023,0.038-0.047,0.069-0.085C8.995,9.228,9.14,9.25,9.25,9.323
	c0.102,0.067,0.166,0.192,0.251,0.288C9.557,9.674,9.62,9.73,9.684,9.784C9.7,9.797,9.736,9.798,9.756,9.79
	c0.11-0.044,0.224-0.084,0.327-0.144c0.072-0.041,0.127-0.11,0.191-0.166c0.136-0.118,0.312-0.125,0.475-0.161
	c0.189-0.042,0.38-0.08,0.572-0.107c0.148-0.021,0.299-0.027,0.448-0.035c0.314-0.017,0.628-0.03,0.942-0.045
	c0.121-0.006,0.206,0.048,0.278,0.141c0.03,0.038,0.081,0.074,0.126,0.081c0.38,0.061,0.762,0.114,1.143,0.172
	c0.057,0.008,0.111,0.035,0.168,0.044c0.13,0.021,0.261,0.047,0.392,0.053c0.137,0.006,0.268,0.005,0.398,0.07
	c0.075,0.038,0.174,0.029,0.259,0.049c0.182,0.044,0.36,0.096,0.542,0.14c0.105,0.025,0.222,0.023,0.318,0.065
	c0.209,0.091,0.409,0.204,0.612,0.308c0.124,0.063,0.247,0.128,0.371,0.191c0.061,0.03,0.126,0.052,0.183,0.088
	c0.165,0.103,0.321,0.22,0.491,0.313c0.072,0.04,0.171,0.04,0.258,0.043c0.089,0.004,0.18-0.01,0.277-0.016
	c-0.103-0.268,0.104-0.407,0.271-0.545c0.115-0.096,0.264-0.032,0.388,0.031c0.376,0.193,0.675,0.479,0.943,0.799
	c0.086,0.102,0.087,0.292-0.011,0.33c-0.153,0.059-0.087,0.167-0.091,0.26c-0.001,0.016,0.043,0.053,0.054,0.048
	c0.086-0.034,0.119,0.035,0.14,0.083c0.041,0.101,0.085,0.188,0.199,0.223c0.096,0.029,0.101,0.121,0.122,0.197
	c0.023,0.082,0.063,0.107,0.148,0.09c0.126-0.025,0.21,0.03,0.251,0.152c0.039,0.115,0.073,0.231,0.109,0.346
	c0.24-0.046,0.254-0.034,0.394,0.356c0.116-0.074,0.232-0.06,0.345,0.007c0.102,0.059,0.154,0.158,0.115,0.258
	c-0.033,0.085,0.011,0.111,0.063,0.156c0.132,0.112,0.267,0.224,0.38,0.354c0.171,0.196,0.195,0.434,0.141,0.696
	c0.242,0.035,0.478,0.069,0.714,0.102c0.126,0.017,0.232,0.061,0.313,0.169c0.066,0.09,0.147,0.17,0.225,0.252
	c0.017,0.018,0.046,0.027,0.071,0.032c0.205,0.035,0.41,0.066,0.615,0.102c0.214,0.037,0.429,0.074,0.642,0.118
	c0.137,0.029,0.189,0.115,0.174,0.256c-0.004,0.034-0.007,0.068-0.014,0.102c-0.041,0.218-0.09,0.266-0.332,0.315
	c0.011-0.066,0.021-0.129,0.031-0.192c0.014-0.077-0.067-0.148-0.128-0.104c-0.109,0.08-0.218,0.025-0.322,0.019
	c-0.187-0.011-0.372-0.042-0.561-0.044c0.259,0.042,0.518,0.084,0.776,0.126v0.035c-0.041,0.004-0.083,0.016-0.122,0.01
	c-0.228-0.029-0.453-0.062-0.68-0.093c-0.036-0.005-0.073-0.004-0.11-0.006c-0.002,0.009-0.005,0.017-0.008,0.026
	c0.054,0.017,0.106,0.036,0.161,0.048c0.091,0.021,0.149,0.062,0.132,0.167c-0.018,0.107-0.025,0.217-0.049,0.322
	c-0.008,0.03-0.054,0.066-0.087,0.072c-0.03,0.006-0.068-0.023-0.1-0.043c-0.05-0.03-0.098-0.062-0.143-0.099
	c-0.021-0.018-0.044-0.05-0.043-0.073c0.007-0.095,0.022-0.188,0.02-0.285c-0.029,0.111-0.067,0.221-0.086,0.334
	c-0.016,0.104-0.066,0.123-0.154,0.102c-0.036-0.01-0.074-0.014-0.125-0.021v-0.309c-0.007,0-0.015,0-0.021-0.001
	c-0.016,0.101-0.046,0.202-0.038,0.3c0.003,0.043,0.085,0.08,0.131,0.119c-0.109-0.045-0.266,0.029-0.327-0.133
	c-0.001-0.004-0.012-0.006-0.019-0.006c-0.188-0.021-0.375-0.043-0.563-0.064l-0.007,0.037c0.178,0.033,0.355,0.065,0.532,0.098
	l-0.012,0.023c0.026,0.021,0.05,0.055,0.079,0.061c0.104,0.017,0.209,0.023,0.313,0.035v-0.002c-0.03,0.246-0.06,0.492-0.091,0.738
	c-0.017,0.135-0.034,0.271-0.055,0.406c-0.008,0.047-0.026,0.092-0.04,0.139l0.033,0.012c0.023-0.066,0.058-0.131,0.07-0.199
	c0.043-0.238,0.078-0.477,0.116-0.715c0.006-0.037,0.009-0.074,0.012-0.111c0.006-0.076,0-0.156,0.116-0.146
	c0.016,0.002,0.039-0.022,0.051-0.041c0.053-0.074,0.143-0.078,0.17,0.004c0.037,0.107,0.125,0.096,0.2,0.102
	c0.057,0.005,0.139-0.121,0.146-0.188c0.015-0.141,0.033-0.281,0.052-0.428c0.093,0.017,0.168,0.03,0.251,0.046
	c-0.061,0.145,0.027,0.316-0.152,0.432c0.052,0.008,0.079,0.021,0.095,0.014c0.132-0.068,0.267-0.023,0.401-0.019
	c0.032,0.001,0.064-0.022,0.098-0.036c0.066-0.025,0.134-0.074,0.199-0.072c0.19,0.006,0.381,0.03,0.571,0.047
	c0.171,0.016,0.235,0.08,0.246,0.251c0.014,0.212,0.025,0.425,0.038,0.638c0.006,0.111,0.006,0.219-0.112,0.283
	c-0.014,0.008-0.011,0.049-0.013,0.074c-0.021,0.32-0.037,0.639-0.062,0.957c-0.004,0.051-0.038,0.1-0.061,0.15
	c-0.034,0.078-0.033,0.145,0.031,0.215c0.09,0.098,0.137,0.215,0.129,0.354c-0.008,0.133,0.016,0.262-0.071,0.393
	c-0.097,0.145-0.213,0.234-0.38,0.258c-0.169,0.023-0.34,0.031-0.509,0.055c-0.163,0.021-0.327-0.145-0.368-0.271
	c-0.023-0.068-0.047-0.141-0.086-0.201c-0.019-0.031-0.069-0.053-0.107-0.059c-0.227-0.025-0.454-0.045-0.682-0.066
	c-0.021-0.004-0.041-0.004-0.061-0.008c-0.076-0.021-0.14-0.039-0.226,0.014c-0.091,0.055-0.212,0.051-0.309-0.033
	c-0.015-0.012-0.053-0.008-0.072,0.002c-0.096,0.051-0.128,0.035-0.188-0.059c-0.021-0.033-0.088-0.037-0.138-0.045
	c-0.13-0.131-0.087-0.27,0.019-0.416c-0.188-0.018-0.357-0.029-0.524-0.053c-0.117-0.018-0.23-0.061-0.347-0.08
	c-0.049-0.008-0.103,0.018-0.153,0.02c-0.071,0-0.137-0.006-0.201,0.047c-0.036,0.031-0.104,0.037-0.155,0.033
	c-0.176-0.018-0.352-0.041-0.526-0.068c-0.089-0.014-0.195-0.014-0.261-0.064c-0.117-0.088-0.22-0.17-0.377-0.184
	c-0.083-0.008-0.167-0.092-0.234-0.156c-0.041-0.041-0.053-0.111-0.084-0.184c-0.052,0.006-0.123,0.012-0.193,0.021
	c-0.135,0.018-0.259-0.088-0.264-0.223c-0.021-0.521,0.032-1.035,0.159-1.542c0.024-0.099,0.046-0.198,0.083-0.292
	c0.052-0.133,0.144-0.174,0.277-0.131c0.104,0.033,0.188,0.037,0.283-0.039c0.121-0.098,0.272-0.068,0.415-0.049
	c0.072,0.011,0.135,0.034,0.199-0.044c0.033-0.04,0.127-0.052,0.189-0.044c0.233,0.027,0.465,0.066,0.696,0.102
	c0.038-0.075,0.076-0.146,0.11-0.219c0.023-0.052,0.016-0.093-0.053-0.104c-0.05-0.008-0.105-0.01-0.147-0.034
	c-0.064-0.037-0.122-0.088-0.176-0.14c-0.028-0.027-0.049-0.066-0.061-0.104c-0.054-0.184-0.271-0.257-0.302-0.468l-0.437,0.336
	c-0.156,0.102-0.303,0.205-0.391,0.385c-0.076,0.157-0.256,0.177-0.41,0.185c-0.44,0.023-0.882,0.027-1.322,0.047
	c-0.494,0.021-0.989,0.041-1.483,0.082c-0.179,0.016-0.353,0.095-0.53,0.142c-0.375,0.099-0.742,0.077-1.101-0.077
	c-0.16-0.07-0.324-0.131-0.509-0.205c0.057,0.303,0.105,0.576,0.162,0.848c0.088,0.42,0.182,0.838,0.274,1.256
	c0.007,0.033,0.018,0.068,0.037,0.094c0.095,0.125,0.114,0.334,0.037,0.449c-0.074,0.113-0.338,0.229-0.484,0.174
	c-0.063-0.023-0.125-0.051-0.19-0.078c-0.046,0.1-0.092,0.197-0.139,0.295c-0.189,0.402-0.483,0.699-0.9,0.859
	c-0.257,0.098-0.521,0.178-0.787,0.252c-0.103,0.027-0.218,0.023-0.326,0.014c-0.407-0.035-0.814-0.08-1.222-0.117
	c-0.153-0.014-0.283,0.027-0.421,0.121c-0.16,0.111-0.362,0.186-0.555,0.217c-0.274,0.045-0.556,0.039-0.835,0.051
	c-0.125,0.006-0.251,0.008-0.375-0.004c-0.125-0.014-0.25-0.039-0.371-0.074c-0.528-0.158-0.993-0.43-1.4-0.797
	c-0.093-0.084-0.202-0.076-0.306-0.09c-0.334-0.043-0.637-0.156-0.89-0.379c-0.317-0.277-0.479-0.625-0.387-1.055
	c0.022-0.105,0.081-0.201,0.115-0.305c0.027-0.08,0.042-0.166,0.064-0.254c-0.282-0.07-0.482-0.232-0.685-0.395
	c-0.104-0.084-0.232-0.136-0.35-0.202c-0.029-0.017-0.069-0.027-0.085-0.053c-0.097-0.155-0.212-0.304-0.206-0.505
	c0.002-0.063-0.009-0.131-0.116-0.12c-0.148,0.015-0.249-0.085-0.286-0.233c-0.126-0.493-0.051-0.982,0.026-1.471
	c0.02-0.123,0.074-0.24,0.094-0.364c0.022-0.132,0.108-0.124,0.21-0.122c-0.026,0.123-0.058,0.24-0.075,0.36
	c-0.028,0.205-0.063,0.41-0.067,0.616c-0.006,0.276,0.011,0.553,0.024,0.829c0.011,0.243,0.107,0.259,0.342,0.238
	c0-0.146,0.004-0.292-0.002-0.438c-0.002-0.075-0.059-0.18-0.028-0.217c0.055-0.064,0.046-0.125,0.052-0.188
	c0.028-0.278,0.047-0.558,0.083-0.835c0.021-0.159,0.063-0.315,0.107-0.469c0.01-0.035,0.069-0.055,0.115-0.089l0.025,0.091
	c0.152-0.032,0.24,0.043,0.284,0.183c0.013-0.009,0.022-0.011,0.023-0.015c0.041-0.203,0.133-0.239,0.332-0.268
	c0.219-0.032,0.429,0.058,0.645,0.004C6.43,13.787,6.5,13.828,6.565,13.84c0.031,0.006,0.063,0.005,0.09,0.007v0.177
	C6.267,14.04,5.884,14.057,5.5,14.073l0.001,0.049c0.085,0,0.17,0.007,0.254-0.001c0.29-0.031,0.579-0.038,0.868-0.001
	c0.091,0.012,0.149,0.091,0.146,0.192c-0.002,0.068-0.009,0.137-0.005,0.205c0.005,0.102-0.048,0.144-0.14,0.148
	c-0.303,0.014-0.605,0.026-0.908,0.038c-0.077,0.002-0.15,0.006-0.22,0.076H6.55c0.031,0,0.066-0.011,0.091,0
	c0.038,0.017,0.09,0.044,0.098,0.077c0.036,0.146,0.06,0.294,0.083,0.442c0.029,0.184,0.053,0.368,0.079,0.553
	c0.01,0.071,0.024,0.135-0.09,0.133c-0.173-0.003-0.346,0.009-0.519,0.014c-0.037,0.001-0.073,0-0.109,0v0.031h0.68
	c-0.005,0.032-0.005,0.056-0.012,0.075c-0.052,0.141-0.016,0.256,0.08,0.369c0.063,0.074,0.105,0.168,0.157,0.254l0.036-0.019
	c-0.05-0.112-0.088-0.23-0.151-0.335c-0.063-0.104-0.021-0.184,0.028-0.266c0.032-0.053,0.094-0.041,0.116,0.018
	c0.018,0.048,0.024,0.1,0.038,0.148c0.06,0.225,0.187,0.413,0.315,0.604c0.082,0.123,0.13,0.268,0.217,0.387
	c0.104,0.145,0.148,0.33,0.31,0.436c0.077,0.051,0.148,0.082,0.224,0.027c0.076-0.059,0.121-0.139,0.083-0.26
	c-0.031,0.07-0.057,0.127-0.082,0.184l-0.021-0.008c0.011-0.035,0.023-0.072,0.035-0.109c-0.171-0.029-0.259-0.1-0.268-0.262
	c-0.008-0.141-0.104-0.197-0.2-0.296c0.011,0.046,0.016,0.069,0.022,0.093c-0.004,0.002-0.007,0.006-0.011,0.008
	c-0.022-0.029-0.069-0.07-0.062-0.09c0.037-0.096-0.035-0.154-0.076-0.207c-0.147-0.188-0.258-0.391-0.323-0.619
	c-0.004-0.016-0.007-0.031-0.007-0.029c0.112,0.211,0.232,0.436,0.352,0.66l0.036-0.018l-0.169-0.361l0.011-0.003
	c0.089,0.122,0.178,0.245,0.267,0.368c-0.123-0.235-0.247-0.471-0.376-0.718c0.073-0.03,0.125-0.05,0.177-0.071
	c0-0.001,0-0.002,0-0.004l0.004,0.003l-0.003,0.001c0.001,0.016,0.001,0.032,0.007,0.046c0.129,0.283,0.261,0.565,0.389,0.85
	c0.012,0.028,0.001,0.065,0.001,0.108c-0.042-0.027-0.07-0.045-0.099-0.063c0.037,0.139,0.133,0.094,0.22,0.08
	c-0.042-0.102-0.08-0.197-0.123-0.291c-0.11-0.24-0.221-0.48-0.335-0.719c-0.005-0.012-0.036-0.012-0.057-0.016
	c-0.066-0.143-0.128-0.289-0.198-0.429c-0.089-0.177-0.185-0.351-0.278-0.526l0.113-0.007c-0.011-0.046-0.015-0.096-0.037-0.137
	c-0.029-0.055-0.072-0.103-0.099-0.161c0.084,0.074,0.166,0.142,0.192,0.267c0.021,0.1,0.086,0.19,0.129,0.286
	c0.063,0.141,0.123,0.282,0.184,0.423c0.009-0.002,0.019-0.004,0.029-0.006c0.002-0.024,0.006-0.049,0.007-0.074
	c0.021-0.371,0.034-0.742,0.065-1.112c0.017-0.202,0.108-0.384,0.218-0.554c0.176-0.271,0.41-0.487,0.669-0.705
	c0.022,0.304-0.059,0.614,0.18,0.859c-0.185-0.311-0.073-0.651-0.111-0.985c-0.029,0.011-0.056,0.021-0.111,0.042
	c0.033-0.079,0.056-0.136,0.08-0.192l-0.014-0.02c-0.074,0.064-0.167,0.116-0.215,0.196c-0.047,0.076-0.047,0.18-0.085,0.267
	c-0.019-0.154,0.002-0.295,0.132-0.399c0.225-0.182,0.449-0.365,0.674-0.547c-0.037,0.034-0.078,0.066-0.11,0.104
	c-0.055,0.065-0.144,0.132-0.151,0.205c-0.026,0.257-0.025,0.517-0.03,0.776c0,0.036,0.028,0.072,0.044,0.107
	c0.034-0.019,0.072-0.033,0.101-0.058c0.165-0.146,0.32-0.305,0.493-0.44c0.093-0.072,0.136-0.146,0.126-0.257
	c-0.008-0.098-0.009-0.198-0.027-0.295c-0.014-0.075-0.049-0.147-0.074-0.22l-0.001-0.004c0,0.001,0.001,0.003,0.001,0.004
	c0.008,0.188,0.021,0.375,0.022,0.562c0,0.042-0.024,0.095-0.056,0.124c-0.086,0.08-0.182,0.15-0.279,0.229
	c-0.048-0.084-0.095-0.164-0.14-0.243c-0.008,0.005-0.015,0.01-0.022,0.015c0.014,0.038,0.027,0.075,0.041,0.113
	c0.016,0.042,0.035,0.082,0.046,0.124c0.008,0.03,0.005,0.063,0.008,0.093c-0.042-0.037-0.059-0.074-0.077-0.11
	c-0.138-0.287-0.13-0.322,0.115-0.517l0.177-0.167c-0.005-0.005-0.011-0.011-0.017-0.017c-0.113,0.075-0.225,0.15-0.337,0.226
	c0.001-0.052,0.01-0.1,0.039-0.125c0.124-0.106,0.253-0.207,0.383-0.306C9.431,12.374,9.467,12.373,9.498,12.364z M27.965,20.74
	l-1.768-0.617l0.11-0.316l1.488-0.496l-1.173-0.408l0.116-0.334l1.768,0.617l-0.11,0.316l-1.508,0.488l1.192,0.416L27.965,20.74z
	 M1.735,19.965l1.717-0.746l0.144,0.33l-1.082,0.469l1.167,0.129l0.017,0.037L2.99,21.15l1.095-0.477l0.143,0.328L2.51,21.748
	l-0.138-0.316l0.744-1.037l-1.25-0.131L1.735,19.965z M26.773,22.313l0.274-0.518l-1.353-0.721l0.177-0.33l1.353,0.721l0.275-0.516
	l0.299,0.158l-0.727,1.363L26.773,22.313z M4.535,22.066c-0.08-0.119-0.16-0.191-0.24-0.215c-0.08-0.025-0.168-0.006-0.265,0.059
	l-0.454,0.305c-0.096,0.064-0.148,0.139-0.156,0.223c-0.008,0.082,0.028,0.184,0.108,0.305c0.08,0.119,0.16,0.191,0.24,0.215
	c0.081,0.025,0.168,0.006,0.265-0.059l0.454-0.305c0.096-0.064,0.148-0.139,0.156-0.223C4.651,22.289,4.615,22.188,4.535,22.066z
	 M4.824,21.873c0.141,0.209,0.2,0.404,0.178,0.582s-0.124,0.328-0.307,0.451l-0.454,0.303c-0.183,0.123-0.36,0.16-0.534,0.111
	c-0.173-0.047-0.329-0.176-0.47-0.385c-0.14-0.209-0.199-0.404-0.178-0.582s0.124-0.328,0.307-0.451L3.821,21.6
	c0.183-0.123,0.361-0.16,0.534-0.111C4.528,21.535,4.684,21.664,4.824,21.873z M26.379,22.879l-0.341-0.244l-0.479,0.668
	l-0.273-0.197l0.48-0.666l-0.358-0.258l-0.519,0.721l-0.272-0.195l0.736-1.027l1.521,1.094l-0.736,1.025l-0.275-0.197L26.379,22.879
	z M24.847,23.92l-0.209,0.215c-0.076,0.08-0.128,0.146-0.154,0.201s-0.034,0.105-0.022,0.15c0.013,0.045,0.044,0.092,0.096,0.143
	c0.07,0.068,0.143,0.096,0.215,0.08c0.072-0.014,0.165-0.08,0.278-0.197l0.198-0.203L24.847,23.92z M5.893,23.234
	c0.168,0.186,0.256,0.361,0.262,0.531s-0.07,0.326-0.229,0.471l-0.447,0.408c-0.158,0.145-0.321,0.207-0.489,0.186
	c-0.168-0.021-0.337-0.123-0.506-0.309c-0.334-0.365-0.345-0.691-0.03-0.98l0.069-0.063l0.253,0.277l-0.068,0.063
	c-0.076,0.068-0.113,0.139-0.111,0.207c0.001,0.07,0.049,0.156,0.143,0.26c0.1,0.109,0.188,0.168,0.263,0.174
	c0.075,0.008,0.149-0.021,0.222-0.088l0.452-0.414c0.071-0.064,0.105-0.137,0.104-0.215s-0.05-0.17-0.146-0.275
	c-0.093-0.102-0.175-0.156-0.245-0.164c-0.07-0.006-0.145,0.025-0.223,0.098l-0.06,0.055l-0.253-0.277l0.064-0.059
	c0.161-0.148,0.322-0.211,0.484-0.189C5.563,22.951,5.727,23.053,5.893,23.234z M24.285,24.896c-0.113-0.109-0.18-0.221-0.198-0.33
	s0.011-0.234,0.088-0.371l-0.79-0.172l0.3-0.311l0.733,0.172l0.189-0.197l-0.464-0.447l0.261-0.27l1.346,1.301l-0.451,0.467
	c-0.2,0.207-0.381,0.322-0.542,0.344C24.595,25.105,24.438,25.043,24.285,24.896z M10.381,25.602c0.212,0,0.375-0.02,0.487-0.057
	c0.112-0.039,0.189-0.098,0.232-0.178c0.042-0.08,0.063-0.191,0.063-0.332c0-0.135-0.024-0.242-0.072-0.32s-0.132-0.137-0.253-0.172
	c-0.12-0.037-0.289-0.055-0.505-0.055H9.737v1.113H10.381z M14.299,24.494v0.844h1.648v0.674h-1.648v0.883h1.781v0.674h-2.533
	v-3.754h2.533v0.68H14.299z M10.345,23.814c0.565,0,0.97,0.098,1.212,0.295s0.364,0.51,0.364,0.939c0,0.297-0.048,0.533-0.145,0.709
	c-0.096,0.178-0.255,0.307-0.476,0.389c-0.22,0.082-0.52,0.123-0.896,0.123H9.737v1.299H8.985v-3.754H10.345z M19.293,27.605
	c-0.501,0-0.881-0.111-1.14-0.33c-0.259-0.221-0.389-0.547-0.389-0.977v-1.215c0-0.43,0.13-0.754,0.389-0.975s0.639-0.33,1.14-0.33
	c0.995,0,1.492,0.426,1.492,1.281v0.186h-0.752v-0.186c0-0.205-0.052-0.354-0.156-0.445s-0.297-0.139-0.577-0.139
	c-0.297,0-0.502,0.051-0.614,0.154c-0.112,0.102-0.168,0.25-0.168,0.447v1.229c0,0.191,0.059,0.34,0.177,0.445
	c0.119,0.104,0.32,0.156,0.605,0.156c0.276,0,0.468-0.049,0.574-0.143s0.159-0.248,0.159-0.459v-0.164h0.752v0.176
	c0,0.438-0.125,0.76-0.376,0.971C20.159,27.5,19.787,27.605,19.293,27.605z"/>
</svg>
