<?xml version="1.0" encoding="utf-8"?>
<!-- Generator: Adobe Illustrator 15.1.0, SVG Export Plug-In . SVG Version: 6.00 Build 0)  -->
<!DOCTYPE svg PUBLIC "-//W3C//DTD SVG 1.1//EN" "http://www.w3.org/Graphics/SVG/1.1/DTD/svg11.dtd">
<svg version="1.1" id="Layer_1" xmlns="http://www.w3.org/2000/svg" xmlns:xlink="http://www.w3.org/1999/xlink" x="0px" y="0px"
	 width="283.46px" height="283.46px" viewBox="0 0 283.46 283.46" enable-background="new 0 0 283.46 283.46" xml:space="preserve">
<title>Asset 19</title>
<g>
	<path d="M141.73,7.084C67.368,7.084,7.084,67.368,7.084,141.73S67.368,276.375,141.73,276.375
		c74.329-0.079,134.566-60.316,134.646-134.646C276.375,67.368,216.092,7.084,141.73,7.084z M141.73,270.208
		c-70.956,0-128.478-57.522-128.478-128.479S70.774,13.252,141.73,13.252c70.925,0.079,128.399,57.554,128.479,128.478
		C270.208,212.686,212.686,270.208,141.73,270.208z"/>
	<path d="M68.877,141.73c-0.034,40.27,32.583,72.941,72.853,72.975c40.299-0.009,72.966-32.677,72.975-72.975
		c-0.035-40.222-32.633-72.818-72.853-72.853C101.583,68.843,68.912,101.46,68.877,141.73z M208.539,141.73
		c-0.034,36.814-29.869,66.651-66.685,66.685c-36.863,0.035-66.775-29.822-66.809-66.685c-0.034-36.863,29.821-66.774,66.685-66.809
		C178.623,74.933,208.528,104.837,208.539,141.73z"/>
	<polygon points="83.104,78.416 75.868,70.194 82.384,64.52 89.62,72.742 95.046,68.343 76.299,46.78 71.016,51.363 78.354,59.812 
		71.837,65.486 64.499,57.057 59.319,61.559 78.232,83.288 	"/>
	<path d="M94.717,57.079c2.452,5.676,9.042,8.291,14.718,5.838c5.678-2.452,8.291-9.043,5.839-14.719l-7.153-16.446l-6.476,2.57
		l7.34,16.856c0.936,2.167-0.063,4.687-2.231,5.622s-4.686-0.063-5.622-2.231l-7.359-16.814l-6.167,3.042l7.154,16.446
		L94.717,57.079z"/>
	<polygon points="127.258,42.36 133.857,53.892 139.017,53.521 143.868,41.188 146.499,55.31 153.694,55.578 148.267,27.765 
		142.634,27.765 135.894,45.792 126.047,28.36 121.031,28.976 119.53,58.105 126.623,56.749 	"/>
	<path d="M179.944,52.658c0.771-3.232-0.994-6.531-4.111-7.688c2.563-0.242,4.653-2.155,5.118-4.688
		c0.902-4.461-1.85-8.119-7.011-9.168l-11.369-2.302l-5.61,27.771l12.171,2.446C175.833,60.408,179.122,56.769,179.944,52.658z
		 M168.145,36.069l3.7,0.74c1.625,0.328,2.037,1.542,1.748,3.001c-0.018,0.113-0.042,0.224-0.075,0.33
		c-0.365,1.184-1.62,1.845-2.802,1.479l-3.557-0.72L168.145,36.069z M165.966,46.43l4.279,0.864
		c0.102,0.007,0.206,0.021,0.306,0.042c1.561,0.3,2.581,1.809,2.282,3.369c-0.015,0.085-0.037,0.17-0.062,0.254
		c-0.45,1.548-2.07,2.438-3.618,1.987l-4.316-0.863L165.966,46.43z"/>
	<polygon points="193.265,71.139 196.061,65.835 187.036,61.066 197.458,41.311 191.292,38.064 178.074,63.123 	"/>
	<polygon points="196.206,73.379 210.738,85.199 214.48,80.389 205.25,72.927 208.394,69.022 216.268,75.374 219.969,70.81 
		212.116,64.643 215.529,60.327 224.614,67.563 228.396,62.896 214.007,51.343 	"/>
	<path d="M93.423,214.234l-9.477-6.848l-16.713,22.86l10.031,7.318c5.57,4.091,10.052,2.056,12.478-1.255
		c2.058-2.588,1.872-6.302-0.431-8.675c2.436,0.853,5.141-0.021,6.619-2.139C98.625,221.817,97.678,217.336,93.423,214.234z
		 M84.193,231.562c-0.05,0.068-0.103,0.139-0.158,0.2c-1.055,1.221-2.899,1.349-4.117,0.296l-3.557-2.593l3.392-4.646l3.536,2.631
		c0.07,0.041,0.139,0.089,0.205,0.135C84.787,228.49,85.099,230.272,84.193,231.562z M89.498,221.843
		c-0.779,1.117-2.317,1.392-3.435,0.612l-2.919-2.179l2.836-3.987l3.063,2.239C90.036,219.347,90.233,220.789,89.498,221.843z"/>
	<path d="M111.923,242.023c-0.813,2.051-3.053,3.145-5.171,2.527c-2.267-0.659-3.568-3.034-2.907-5.301l5.715-16.733l-6.435-2.527
		l-5.817,17.041l-0.021,0.123c-1.677,5.601,1.245,11.55,6.704,13.646c5.765,2.214,12.233-0.668,14.448-6.433l5.817-17.041
		l-6.618-2.056L111.923,242.023z"/>
	<polygon points="142.327,242.495 134.537,227.737 127.938,227.737 127.342,255.281 134.208,255.425 134.537,239.967 
		142.759,255.611 148.925,255.47 149.46,227.41 142.635,227.672 	"/>
	<path d="M164.321,224.984l-10.997,2.282l5.674,27.771l10.995-2.237c8.02-1.687,11.411-8.552,9.788-16.447
		C178.157,228.458,172.338,223.341,164.321,224.984z M168.762,246.733l-4.235,0.864l-3.227-15.77l4.233-0.861
		c3.906-0.781,6.662,2.672,7.504,6.744C173.88,241.779,172.667,245.931,168.762,246.733z"/>
	<polygon points="193.287,237.873 183.335,217.892 177.17,220.997 189.792,246.363 205.045,238.714 202.373,233.351 	"/>
	<polygon points="211.005,226.322 207.819,222.437 215.651,216.023 211.931,211.48 204.099,217.894 200.667,213.783 
		209.567,206.485 205.763,201.837 191.539,213.473 209.484,235.386 223.998,223.446 220.195,218.798 	"/>
	<path d="M146.292,116.302l-0.066,0.037c0.031,0.027,0.059,0.059,0.089,0.087L146.292,116.302z"/>
	<path d="M149.191,134.104l40.847,21.687c1.559,0.294,3.123-0.489,3.821-1.912c0.734-1.535,0.454-3.366-0.72-4.604l-39.467-20.906
		L149.191,134.104z"/>
	<path d="M138.958,123.948c-8.963,3.536-26.004,8.859-26.004,29.211s10.998,26.374,28.882,26.374
		c16.445,0,25.964-6.271,25.964-19.796c0-12.19-4.48-14.163-4.48-14.163v-0.02h-0.004l-15.664-8.37
		c-1.789,0.843-9.741,8.223-9.741,13.508c-0.208,2.762,0.772,5.482,2.693,7.483c-13.465-5.735,2.057-22.245,7.237-27.938
		c9.147-10.052,9.745-16.157,9.745-20.556c0.02-2.561-1.363-4.926-3.598-6.168c-0.781-0.35-1.502,0-0.309,1.192
		c0.836,1.049,1.28,2.357,1.253,3.7C154.93,116.629,144.057,121.913,138.958,123.948z"/>
	<path d="M139.099,120.556l0.04-0.02l-34.616-18.645c-1.636-0.627-3.48,0.095-4.255,1.665c-0.932,1.666-0.441,3.768,1.13,4.851
		l29.026,15.623L139.099,120.556z"/>
	<path d="M141.688,118.872l4.538-2.533c-2.309-2.091-3.68-5.022-3.797-8.136c-0.021-1.341,0.424-2.648,1.253-3.7
		c1.129-1.192,0.412-1.563-0.309-1.192c-2.237,1.242-3.619,3.607-3.599,6.167C139.694,112.713,140.348,115.925,141.688,118.872z"/>
</g>
</svg>
