<?xml version="1.0" encoding="UTF-8" standalone="no"?><!DOCTYPE svg PUBLIC "-//W3C//DTD SVG 1.1//EN" "http://www.w3.org/Graphics/SVG/1.1/DTD/svg11.dtd"><svg width="100%" height="100%" viewBox="0 0 125 130" version="1.1" xmlns="http://www.w3.org/2000/svg" xmlns:xlink="http://www.w3.org/1999/xlink" xml:space="preserve" xmlns:serif="http://www.serif.com/" style="fill-rule:evenodd;clip-rule:evenodd;stroke-linecap:round;stroke-linejoin:round;stroke-miterlimit:1.5;"><rect id="hurricane" x="0.011" y="4.097" width="125" height="125" style="fill:none;"/><circle cx="62.511" cy="66.597" r="19.028" style="fill:none;stroke:#010001;stroke-width:4.17px;"/><path d="M62.56,28.484c1.128,-0.026 2.035,-0.949 2.035,-2.082c-0,-1.15 -0.934,-2.084 -2.084,-2.084c-0.963,0 -2.631,0.583 -4.567,2.048c-2.831,2.141 -6.622,6.244 -9.859,12.258c-3.69,6.856 -6.686,16.223 -6.686,27.973c0,1.15 0.934,2.084 2.084,2.084c1.15,-0 2.083,-0.934 2.083,-2.084c0,-8.765 1.778,-16.109 4.255,-21.962c2.973,-7.025 6.937,-11.884 9.984,-14.427c0.723,-0.603 1.384,-1.068 1.957,-1.383c0.309,-0.17 0.755,-0.326 0.798,-0.341Z"/><path d="M62.462,103.642c-1.127,0.025 -2.034,0.948 -2.034,2.082c-0,1.15 0.933,2.083 2.083,2.083c0.963,0 2.631,-0.582 4.568,-2.047c2.83,-2.141 6.622,-6.244 9.859,-12.259c3.689,-6.855 6.685,-16.223 6.685,-27.973c-0,-1.15 -0.934,-2.083 -2.083,-2.083c-1.15,-0 -2.084,0.933 -2.084,2.083c0,8.766 -1.778,16.109 -4.255,21.963c-2.973,7.024 -6.937,11.883 -9.983,14.426c-0.723,0.603 -1.384,1.068 -1.958,1.384c-0.309,0.169 -0.755,0.326 -0.798,0.341Z"/></svg>