<?xml version="1.0" encoding="UTF-8" standalone="no"?><!DOCTYPE svg PUBLIC "-//W3C//DTD SVG 1.1//EN" "http://www.w3.org/Graphics/SVG/1.1/DTD/svg11.dtd"><svg width="100%" height="100%" viewBox="0 0 130 125" version="1.1" xmlns="http://www.w3.org/2000/svg" xmlns:xlink="http://www.w3.org/1999/xlink" xml:space="preserve" xmlns:serif="http://www.serif.com/" style="fill-rule:evenodd;clip-rule:evenodd;stroke-linejoin:round;stroke-miterlimit:2;"><rect id="i" x="4.032" y="0" width="125" height="125" style="fill:none;"/><clipPath id="_clip1"><rect x="4.032" y="0" width="125" height="125"/></clipPath><g clip-path="url(#_clip1)"><path d="M129.032,4.227c0,-2.334 -1.893,-4.227 -4.227,-4.227c-17.99,0 -98.556,0 -116.546,0c-2.334,-0 -4.227,1.893 -4.227,4.227c0,13.344 0,103.202 0,116.546c0,2.334 1.893,4.227 4.227,4.227c17.99,0 98.556,0 116.546,0c2.334,0 4.227,-1.893 4.227,-4.227c0,-13.344 0,-103.202 0,-116.546Zm-71.4,35.194l17.8,0l-0,73.46l-17.8,0l0,-73.46Zm0,-27.302l17.8,-0l-0,15.989l-17.8,-0l0,-15.989Z"/></g></svg>