<?xml version="1.0" encoding="UTF-8" standalone="no"?><!DOCTYPE svg PUBLIC "-//W3C//DTD SVG 1.1//EN" "http://www.w3.org/Graphics/SVG/1.1/DTD/svg11.dtd"><svg width="100%" height="100%" viewBox="0 0 130 125" version="1.1" xmlns="http://www.w3.org/2000/svg" xmlns:xlink="http://www.w3.org/1999/xlink" xml:space="preserve" xmlns:serif="http://www.serif.com/" style="fill-rule:evenodd;clip-rule:evenodd;stroke-linejoin:round;stroke-miterlimit:2;"><rect id="ia-training" x="0.116" y="0" width="125" height="125" style="fill:none;"/><g id="ia-training1" serif:id="ia-training"><path d="M61.442,4.635l-0.346,0.002c-7.98,0.351 -16.62,1.18 -25.396,2.75c-8.32,1.49 -16.759,3.645 -24.88,6.683l-3.128,1.17l-0.052,3.339c-0.378,24.34 3.819,42.921 10.961,57.736c9.335,19.361 23.724,32.361 39.99,43.228l2.65,1.771l2.692,-1.707c16.944,-10.745 31.952,-23.586 41.784,-42.601c7.725,-14.938 12.279,-33.721 11.875,-58.431l-0.056,-3.397l-3.201,-1.136c-8.542,-3.033 -17.419,-5.184 -26.168,-6.668c-9.21,-1.563 -18.277,-2.388 -26.652,-2.738l-0.073,-0.001Zm0.133,19.855l-0,-12.692l18.327,-0l-0,5.034l9.817,0c0.333,-0.498 0.9,-0.826 1.543,-0.826c1.024,0 1.855,0.831 1.855,1.855c-0,1.024 -0.831,1.855 -1.855,1.855c-0.632,-0 -1.191,-0.317 -1.525,-0.801l-11.919,0c0,0 0,-5.034 0,-5.034l-14.16,-0l0,10.944l25.895,4.151l5.849,41.111l-20.971,2.956l5.471,4.575c1.052,0.413 1.645,0.881 1.645,1.376c0,1.669 -6.735,3.024 -15.032,3.024c-0.976,0 -1.931,-0.018 -2.857,-0.055c0,0 0,3.406 0,3.406l21.261,0l-0,-9.392l6.338,0c0.334,-0.49 0.897,-0.813 1.535,-0.813c1.023,0 1.855,0.831 1.855,1.855c-0,1.024 -0.832,1.855 -1.855,1.855c-0.638,-0 -1.201,-0.323 -1.535,-0.813l-4.255,-0l0,9.392c0,-0 -23.344,-0 -23.344,-0l0,4.483l9.786,-0c0,-0 0,7.225 0,7.225l1.798,-0c0.334,-0.491 0.897,-0.813 1.535,-0.813c1.023,-0 1.855,0.831 1.855,1.854c-0,1.024 -0.832,1.855 -1.855,1.855c-0.638,0 -1.201,-0.322 -1.535,-0.813l-3.881,-0c-0,-0 -0,-7.225 0,-7.225l-9.786,0l-0,-6.566l-10.583,-0l0,10.327l-4.145,-0c-0.334,0.49 -0.897,0.813 -1.534,0.813c-1.024,-0 -1.855,-0.831 -1.855,-1.855c0,-1.024 0.831,-1.855 1.855,-1.855c0.637,0 1.2,0.323 1.534,0.813l2.062,0l0,-8.243l-12.666,-0l0,-11.476l6.598,0c0.334,-0.49 0.897,-0.813 1.535,-0.813c1.023,0 1.855,0.831 1.855,1.855c-0,1.024 -0.832,1.855 -1.855,1.855c-0.638,-0 -1.201,-0.323 -1.535,-0.813l-4.514,-0.001c-0,0 -0,7.309 -0,7.309c-0,0 23.248,0 23.248,0l-0,-3.518c-5.874,-0.412 -10.092,-1.536 -10.092,-2.857c-0,0 -0.174,0 -0.174,0l0.195,-0.163c0.1,-0.378 0.547,-0.738 1.277,-1.067l1.626,-1.36l-2.697,0.615l-5.776,-51.568l8.003,-2.185l7.638,1.224Zm-18.448,6.848l-8.479,-0l-0,-12.926c-0.491,-0.334 -0.813,-0.897 -0.813,-1.535c-0,-1.023 0.831,-1.854 1.855,-1.854c1.023,-0 1.854,0.831 1.854,1.854c0,0.638 -0.322,1.201 -0.813,1.535l0,10.842l7.326,0l1.526,-3.421l5.726,51.186l-7.652,-3.157l-8.926,0c-0.472,-1.408 -0.898,-2.816 -1.276,-4.226l-2.451,0l-0,5.848c0.491,0.334 0.813,0.897 0.813,1.535c0,1.024 -0.831,1.855 -1.855,1.855c-1.023,-0 -1.855,-0.831 -1.855,-1.855c0,-0.638 0.323,-1.201 0.814,-1.535l-0,-7.931l4.009,-0c-0.761,-3.234 -1.273,-6.475 -1.53,-9.723l-4.433,0l0,-10.15c-0.49,-0.334 -0.813,-0.897 -0.813,-1.534c0,-1.024 0.831,-1.855 1.855,-1.855c1.024,-0 1.855,0.831 1.855,1.855c-0,0.637 -0.323,1.2 -0.813,1.534l-0,8.067l2.22,-0c-0.191,-4.261 0.06,-8.531 0.771,-12.813l7.79,-4.212l0.33,-0.738l-17.348,-0l-0,6.627c0.49,0.334 0.813,0.897 0.813,1.535c-0,1.023 -0.831,1.855 -1.855,1.855c-1.024,-0 -1.855,-0.832 -1.855,-1.855c0,-0.638 0.323,-1.201 0.813,-1.535l0,-8.711l6.237,0l0.001,-9.025l-8.794,0c-0.334,0.491 -0.897,0.813 -1.535,0.813c-1.023,0 -1.854,-0.831 -1.854,-1.855c-0,-1.023 0.831,-1.854 1.854,-1.854c0.638,-0 1.201,0.322 1.535,0.813l10.877,-0c-0,-0 -0,11.108 -0,11.108l12.04,0l2.036,-4.562Zm60.959,20.262c0.334,-0.49 0.897,-0.813 1.535,-0.813c1.024,0 1.855,0.831 1.855,1.855c-0,1.024 -0.831,1.855 -1.855,1.855c-0.638,-0 -1.201,-0.323 -1.535,-0.813l-3.332,-0l0,14.907l-5.59,-0.175l-0.298,-2.094l3.805,0.119l-0,-14.841l5.415,0Zm-16.424,-18.157l-29.597,-4.467l4.551,37.375l29.387,-2.627l-4.341,-30.281Zm8.519,-6.568c-0.334,0.491 -0.897,0.813 -1.534,0.813c-1.024,0 -1.855,-0.831 -1.855,-1.855c-0,-1.023 0.831,-1.854 1.855,-1.854c0.637,-0 1.2,0.322 1.534,0.813l10.481,-0l0,13.192l-8.718,-0l0,5.141l9.078,0c0.333,-0.491 0.896,-0.813 1.534,-0.813c1.024,-0 1.855,0.831 1.855,1.855c-0,1.023 -0.831,1.854 -1.855,1.854c-0.638,0 -1.201,-0.322 -1.534,-0.813l-11.161,0l-0,-7.224l-5.026,-0l-0.297,-2.084l14.041,0c0,0 0,-9.025 0,-9.025l-8.398,0Z"/></g></svg>