<?xml version="1.0" encoding="UTF-8" standalone="no"?><!DOCTYPE svg PUBLIC "-//W3C//DTD SVG 1.1//EN" "http://www.w3.org/Graphics/SVG/1.1/DTD/svg11.dtd"><svg width="100%" height="100%" viewBox="0 0 125 125" version="1.1" xmlns="http://www.w3.org/2000/svg" xmlns:xlink="http://www.w3.org/1999/xlink" xml:space="preserve" xmlns:serif="http://www.serif.com/" style="fill-rule:evenodd;clip-rule:evenodd;stroke-linejoin:round;stroke-miterlimit:2;"><rect id="iam-mgmt" x="-0.009" y="0" width="125" height="125" style="fill:none;"/><clipPath id="_clip1"><rect x="-0.009" y="0" width="125" height="125"/></clipPath><g clip-path="url(#_clip1)"><path d="M68.536,0.293c-4.02,-0.391 -8.069,-0.391 -12.089,-0l-1.992,9.693c-3.853,0.59 -7.63,1.602 -11.262,3.018l-6.571,-7.399c-3.677,1.672 -7.183,3.696 -10.469,6.044l3.122,9.391c-3.042,2.437 -5.807,5.202 -8.244,8.244l-9.39,-3.122c-2.349,3.286 -4.373,6.792 -6.045,10.469l7.399,6.571c-1.416,3.632 -2.428,7.409 -3.018,11.262l-9.693,1.991c-0.39,4.021 -0.39,8.069 0,12.09l9.693,1.991c0.59,3.853 1.602,7.63 3.018,11.262l-7.399,6.571c1.672,3.677 3.696,7.183 6.045,10.469l9.39,-3.122c2.437,3.042 5.202,5.807 8.244,8.244l-3.122,9.391c3.286,2.348 6.792,4.372 10.469,6.044l6.571,-7.399c3.632,1.416 7.409,2.428 11.262,3.018l1.992,9.693c4.02,0.391 8.069,0.391 12.089,0l1.991,-9.693c3.853,-0.59 7.63,-1.602 11.262,-3.018l6.571,7.399c3.677,-1.672 7.183,-3.696 10.469,-6.044l-3.122,-9.391c3.042,-2.437 5.807,-5.202 8.245,-8.244l9.39,3.122c2.348,-3.286 4.373,-6.792 6.044,-10.469l-7.399,-6.571c1.416,-3.632 2.428,-7.409 3.018,-11.262l9.693,-1.991c0.391,-4.021 0.391,-8.069 0,-12.09l-9.693,-1.991c-0.59,-3.853 -1.602,-7.63 -3.018,-11.262l7.399,-6.571c-1.671,-3.677 -3.696,-7.183 -6.044,-10.469l-9.39,3.122c-2.438,-3.042 -5.203,-5.807 -8.245,-8.244l3.122,-9.391c-3.286,-2.348 -6.792,-4.372 -10.469,-6.044l-6.571,7.399c-3.632,-1.416 -7.409,-2.428 -11.262,-3.018l-1.991,-9.693Zm-6.045,24.445c20.842,-0 37.762,16.92 37.762,37.762c0,20.842 -16.92,37.762 -37.762,37.762c-20.841,0 -37.762,-16.92 -37.762,-37.762c-0,-20.842 16.921,-37.762 37.762,-37.762Zm31.522,23.615l0,28.294l-5.441,0l-0,-17.82l-8.797,15.417l-0.634,-0l-9.114,-15.644l-0,18.047l-5.396,0l-0,-28.294l5.214,-0l9.885,16.55l9.341,-16.55l4.942,-0Zm-37.757,22.445l-11.562,-0l-2.267,5.849l-5.577,0l11.562,-28.294l4.444,-0l11.562,28.294l-5.94,0l-2.222,-5.849Zm-25.287,-22.445l5.668,-0l0,28.294l-5.668,0l0,-28.294Zm23.428,17.548l-3.808,-10.112l-0.091,0l-3.9,10.112l7.799,-0Zm-28.977,-36.626l1.062,-1.147l5.724,5.298l-1.061,1.146l-5.725,-5.297Zm73.64,1.413l-1.718,-1.729l-4.53,4.504l-1.102,-1.109l4.53,-4.503l-1.718,-1.728l1.001,-0.996l4.539,4.565l-1.002,0.996Zm-61.836,-3.743l-2.529,1.939l0.485,1.66l-1.22,0.936l-2.217,-8.129l0.972,-0.746l7.276,4.25l-1.299,0.997l-1.468,-0.907Zm54.817,-4.707l-4.096,6.638l-1.277,-0.788l2.58,-4.181l-4.296,2.343l-0.148,-0.092l0.126,-4.989l-2.612,4.234l-1.266,-0.782l4.096,-6.637l1.224,0.755l-0.078,5.313l4.588,-2.53l1.159,0.716Zm-56.045,3.947l-2.529,-1.573l-0.02,0.016l0.843,2.866l1.706,-1.309Zm10.704,-11.08l3.062,7.174l-1.379,0.589l-1.929,-4.518l-0.562,4.861l-0.16,0.069l-4.004,-2.98l1.953,4.575l-1.368,0.584l-3.063,-7.173l1.323,-0.565l4.297,3.126l0.577,-5.207l1.253,-0.535Zm32.325,4.291l-1.187,3.886l-1.207,-0.369l0.185,-0.819c-0.287,0.252 -0.622,0.394 -1.006,0.425c-0.384,0.03 -0.831,-0.032 -1.341,-0.188c-1.881,-0.574 -2.545,-1.766 -1.993,-3.575l0.646,-2.116c0.283,-0.925 0.758,-1.538 1.425,-1.84c0.667,-0.301 1.503,-0.299 2.507,0.008c1.084,0.331 1.789,0.788 2.116,1.372c0.328,0.583 0.37,1.274 0.126,2.071l-0.04,0.131l-1.494,-0.456l0.033,-0.108c0.085,-0.279 0.11,-0.513 0.077,-0.702c-0.034,-0.189 -0.146,-0.358 -0.336,-0.507c-0.189,-0.15 -0.487,-0.286 -0.894,-0.411c-0.605,-0.184 -1.059,-0.199 -1.359,-0.042c-0.301,0.156 -0.521,0.466 -0.662,0.928l-0.654,2.14c-0.131,0.43 -0.116,0.792 0.047,1.086c0.163,0.294 0.548,0.533 1.153,0.718c0.558,0.171 0.994,0.184 1.308,0.04c0.314,-0.143 0.533,-0.419 0.657,-0.825l0.004,-0.012l-1.279,-0.391l0.394,-1.291l2.774,0.847Zm-10.292,-6.454l-0.339,7.792l-1.499,-0.065l0.214,-4.908l-2.608,4.14l-0.175,-0.007l-2.322,-4.418l-0.217,4.97l-1.486,-0.065l0.34,-7.792l1.436,0.062l2.524,4.677l2.771,-4.446l1.361,0.06Z"/></g></svg>