<?xml version="1.0" encoding="utf-8"?>
<!-- Generator: Adobe Illustrator 15.1.0, SVG Export Plug-In . SVG Version: 6.00 Build 0)  -->
<!DOCTYPE svg PUBLIC "-//W3C//DTD SVG 1.1//EN" "http://www.w3.org/Graphics/SVG/1.1/DTD/svg11.dtd">
<svg version="1.1" id="Livello_1" xmlns="http://www.w3.org/2000/svg" xmlns:xlink="http://www.w3.org/1999/xlink" x="0px" y="0px"
	 width="283.465px" height="283.465px" viewBox="0 0 283.465 283.465" enable-background="new 0 0 283.465 283.465"
	 xml:space="preserve">
<g>
	<g>
		<polygon id="Rectangle-path" fill="#231F20" points="7.087,188.225 59.446,188.225 59.446,195.719 7.087,195.719 		"/>
		<polygon id="Rectangle-path_1_" fill="#231F20" points="7.087,173.848 59.446,173.848 59.446,181.367 7.087,181.367 		"/>
		<polygon id="Rectangle-path_2_" fill="#231F20" points="22.022,159.496 44.481,159.496 44.481,167.02 22.022,167.02 		"/>
		<polygon id="Rectangle-path_3_" fill="#231F20" points="22.022,145.146 44.481,145.146 44.481,152.668 22.022,152.668 		"/>
		<polygon id="Rectangle-path_4_" fill="#231F20" points="22.022,130.796 44.481,130.796 44.481,138.318 22.022,138.318 		"/>
		<polygon id="Rectangle-path_5_" fill="#231F20" points="22.022,116.419 44.481,116.419 44.481,123.941 22.022,123.941 		"/>
		<rect id="Rectangle-path_6_" x="7.087" y="102.069" fill="#231F20" width="52.359" height="7.522"/>
		<rect id="Rectangle-path_7_" x="7.087" y="87.72" fill="#231F20" width="52.359" height="7.521"/>
	</g>
	<g>
		<path id="Shape_16_" fill="#231F20" d="M66.913,181.367h80.525c1.359-2.318,2.375-4.854,2.988-7.52H66.913V181.367z"/>
		<path id="Shape_17_" fill="#231F20" d="M141.171,145.146H81.878v7.521h65.563C145.733,149.787,143.626,147.254,141.171,145.146z"
			/>
		<path id="Shape_18_" fill="#231F20" d="M81.878,130.796v7.521h59.293c2.508-2.107,4.615-4.641,6.268-7.521H81.878z"/>
		<path id="Shape_19_" fill="#231F20" d="M147.438,102.069H66.913v7.522h83.514C149.733,106.923,148.72,104.39,147.438,102.069z"/>
		<path id="Shape_20_" fill="#231F20" d="M122.687,87.72H66.913v7.521h75.004C136.903,90.599,130.103,87.72,122.687,87.72z"/>
		<rect id="Rectangle-path_8_" x="81.878" y="116.419" fill="#231F20" width="22.432" height="7.521"/>
		<path id="Shape_21_" fill="#231F20" d="M126.767,123.941h23.475c0.666-2.4,1.012-4.936,1.012-7.521h-24.484v7.521H126.767z"/>
		<polygon id="Rectangle-path_9_" fill="#231F20" points="81.878,159.496 104.31,159.496 104.31,167.02 81.878,167.02 		"/>
		<path id="Shape_22_" fill="#231F20" d="M126.767,159.496v7.521h24.486c0-2.588-0.348-5.121-1.014-7.521H126.767z"/>
		<path id="Shape_23_" fill="#231F20" d="M66.913,195.664l55.773,0.08c7.469,0,14.217-2.879,19.258-7.52H66.913V195.664z"/>
	</g>
	<g>
		<polygon id="Rectangle-path_10_" fill="#231F20" points="156.696,188.225 194.091,188.225 194.091,195.719 156.696,195.719 		"/>
		<polygon id="Rectangle-path_11_" fill="#231F20" points="156.696,173.848 194.091,173.848 194.091,181.367 156.696,181.367 		"/>
		<polygon id="Rectangle-path_12_" fill="#231F20" points="171.632,159.496 194.091,159.496 194.091,167.02 171.632,167.02 		"/>
		<polygon id="Rectangle-path_13_" fill="#231F20" points="171.632,145.146 194.091,145.146 194.091,152.668 171.632,152.668 		"/>
		<polygon id="Shape_24_" fill="#231F20" points="204.493,102.069 156.696,102.069 156.696,109.591 207.081,109.591 		"/>
		<polygon id="Shape_25_" fill="#231F20" points="199.532,87.72 156.696,87.72 156.696,95.241 202.12,95.241 		"/>
		<polygon id="Rectangle-path_14_" fill="#231F20" points="238.954,188.225 276.378,188.225 276.378,195.719 238.954,195.719 		"/>
		<polygon id="Rectangle-path_15_" fill="#231F20" points="238.954,173.848 276.378,173.848 276.378,181.367 238.954,181.367 		"/>
		<polygon id="Rectangle-path_16_" fill="#231F20" points="238.954,159.496 261.413,159.496 261.413,167.02 238.954,167.02 		"/>
		<polygon id="Rectangle-path_17_" fill="#231F20" points="238.954,145.146 261.413,145.146 261.413,152.668 238.954,152.668 		"/>
		<polygon id="Shape_26_" fill="#231F20" points="238.954,138.318 261.413,138.318 261.413,130.796 238.954,130.796 
			238.954,130.796 218.63,130.796 216.522,136.878 214.415,130.796 194.091,130.796 194.091,130.796 171.632,130.796 
			171.632,138.318 194.091,138.318 194.091,131.41 196.466,138.318 236.581,138.318 238.954,131.41 		"/>
		<polygon id="Shape_27_" fill="#231F20" points="261.413,116.419 223.591,116.419 221.005,123.941 261.413,123.941 		"/>
		<polygon id="Shape_28_" fill="#231F20" points="233.54,87.72 230.952,95.241 276.378,95.241 276.378,87.72 		"/>
		<polygon id="Shape_29_" fill="#231F20" points="216.522,195.664 219.11,188.225 213.935,188.225 		"/>
		<polygon id="Shape_30_" fill="#231F20" points="211.562,181.367 221.483,181.367 224.151,173.848 208.921,173.848 		"/>
		<polygon id="Shape_31_" fill="#231F20" points="206.521,167.02 226.526,167.02 229.167,159.496 203.88,159.496 		"/>
		<polygon id="Shape_32_" fill="#231F20" points="201.507,152.668 231.567,152.668 234.128,145.146 198.919,145.146 		"/>
		<polygon id="Shape_33_" fill="#231F20" points="171.632,123.941 212.042,123.941 209.454,116.419 171.632,116.419 		"/>
		<polygon id="Shape_34_" fill="#231F20" points="225.991,109.591 276.378,109.591 276.378,102.069 228.552,102.069 		"/>
	</g>
</g>
</svg>
