<?xml version="1.0" encoding="utf-8"?>
<!-- Generator: Adobe Illustrator 15.1.0, SVG Export Plug-In . SVG Version: 6.00 Build 0)  -->
<!DOCTYPE svg PUBLIC "-//W3C//DTD SVG 1.1//EN" "http://www.w3.org/Graphics/SVG/1.1/DTD/svg11.dtd">
<svg version="1.1" id="Layer_4" xmlns="http://www.w3.org/2000/svg" xmlns:xlink="http://www.w3.org/1999/xlink" x="0px" y="0px"
	 width="283.46px" height="283.46px" viewBox="0 0 283.46 283.46" enable-background="new 0 0 283.46 283.46" xml:space="preserve">
<g>
	<path fill="#010101" d="M81.981,79.147c0,1.565-1.269,2.834-2.834,2.834H28.566c-1.565,0-2.835-1.269-2.835-2.834V28.566
		c0-1.565,1.27-2.835,2.835-2.835h50.581c1.565,0,2.834,1.27,2.834,2.835V79.147z"/>
	<path fill="#010101" d="M169.855,79.147c0,1.565-1.27,2.834-2.835,2.834h-50.58c-1.565,0-2.835-1.269-2.835-2.834V28.566
		c0-1.565,1.27-2.835,2.835-2.835h50.58c1.565,0,2.835,1.27,2.835,2.835V79.147z"/>
	<path fill="#010101" d="M257.729,79.147c0,1.565-1.27,2.834-2.835,2.834h-50.581c-1.565,0-2.834-1.269-2.834-2.834V28.566
		c0-1.565,1.269-2.835,2.834-2.835h50.581c1.565,0,2.835,1.27,2.835,2.835V79.147z"/>
	<path fill="#010101" d="M81.981,167.02c0,1.565-1.269,2.835-2.834,2.835H28.566c-1.565,0-2.835-1.27-2.835-2.835v-50.58
		c0-1.565,1.27-2.835,2.835-2.835h50.581c1.565,0,2.834,1.27,2.834,2.835V167.02z"/>
	<path fill="#010101" d="M169.855,167.02c0,1.565-1.27,2.835-2.835,2.835h-50.58c-1.565,0-2.835-1.27-2.835-2.835v-50.58
		c0-1.565,1.27-2.835,2.835-2.835h50.58c1.565,0,2.835,1.27,2.835,2.835V167.02z"/>
	<path fill="#010101" d="M257.729,167.02c0,1.565-1.27,2.835-2.835,2.835h-50.581c-1.565,0-2.834-1.27-2.834-2.835v-50.58
		c0-1.565,1.269-2.835,2.834-2.835h50.581c1.565,0,2.835,1.27,2.835,2.835V167.02z"/>
	<path fill="#010101" d="M81.981,254.894c0,1.565-1.269,2.835-2.834,2.835H28.566c-1.565,0-2.835-1.27-2.835-2.835v-50.581
		c0-1.565,1.27-2.834,2.835-2.834h50.581c1.565,0,2.834,1.269,2.834,2.834V254.894z"/>
	<path fill="#010101" d="M169.855,254.894c0,1.565-1.27,2.835-2.835,2.835h-50.58c-1.565,0-2.835-1.27-2.835-2.835v-50.581
		c0-1.565,1.27-2.834,2.835-2.834h50.58c1.565,0,2.835,1.269,2.835,2.834V254.894z"/>
	<path fill="#010101" d="M257.729,254.894c0,1.565-1.27,2.835-2.835,2.835h-50.581c-1.565,0-2.834-1.27-2.834-2.835v-50.581
		c0-1.565,1.269-2.834,2.834-2.834h50.581c1.565,0,2.835,1.269,2.835,2.834V254.894z"/>
</g>
</svg>
