<?xml version="1.0" encoding="utf-8"?>
<!-- Generator: Adobe Illustrator 15.1.0, SVG Export Plug-In . SVG Version: 6.00 Build 0)  -->
<!DOCTYPE svg PUBLIC "-//W3C//DTD SVG 1.1//EN" "http://www.w3.org/Graphics/SVG/1.1/DTD/svg11.dtd">
<svg version="1.1" id="Layer_3" xmlns="http://www.w3.org/2000/svg" xmlns:xlink="http://www.w3.org/1999/xlink" x="0px" y="0px"
	 width="283.46px" height="283.46px" viewBox="0 0 283.46 283.46" enable-background="new 0 0 283.46 283.46" xml:space="preserve">
<g>
	<path fill="none" d="M124.564,25.499h34.33c1.566,0,2.836-1.269,2.836-2.834v-5.831c0-1.565-1.27-2.834-2.836-2.834h-34.33
		c-1.565,0-2.834,1.269-2.834,2.834v5.831C121.73,24.23,122.999,25.499,124.564,25.499z"/>
	<path d="M198.861,7.084H84.597c-16.671,0-30.185,14.299-30.185,31.939v205.412c0,17.641,13.514,31.939,30.185,31.939h114.264
		c16.672,0,30.186-14.299,30.186-31.939V39.023C229.046,21.384,215.533,7.084,198.861,7.084z M121.73,16.834
		c0-1.565,1.269-2.834,2.834-2.834h34.33c1.566,0,2.836,1.269,2.836,2.834v5.831c0,1.565-1.27,2.834-2.836,2.834h-34.33
		c-1.565,0-2.834-1.269-2.834-2.834V16.834z M200.941,189.896v27.1H82.516v-27.1c0.456-3.879,1.374-7.668,2.739-11.287
		c0.176-0.467,0.357-0.932,0.549-1.392c0.074-0.175,0.152-0.351,0.225-0.524c2.355-5.519,5.769-10.604,10.093-14.923
		c0.428-0.425,0.863-0.839,1.305-1.249c4.172-3.871,8.97-6.931,14.149-9.076c0.172-0.071,0.342-0.135,0.512-0.205
		c1.174-0.469,2.365-0.895,3.571-1.27c0.085-0.025,0.171-0.056,0.256-0.081c0.188-0.058,0.375-0.107,0.564-0.165
		c0.188-0.055,0.375-0.111,0.563-0.162c0.104-0.029,0.211-0.057,0.315-0.084c0.274-0.074,0.549-0.148,0.824-0.219
		c0.032-0.008,0.066-0.017,0.1-0.023c3.356-0.838,6.817-1.313,10.329-1.396c0.027-0.004,0.058-0.004,0.085-0.004
		c0.305-0.006,0.61-0.013,0.916-0.013c-8.59-2.556-16.023-7.826-21.299-14.806c-5.263-6.957-8.381-15.623-8.381-25.011
		c0-11.466,4.661-21.847,12.181-29.367c7.521-7.521,17.907-12.176,29.367-12.176c0.084,0,0.166,0.002,0.25,0.003
		c0.083,0,0.167-0.003,0.25-0.003c11.46,0,21.845,4.656,29.365,12.177c7.522,7.521,12.183,17.899,12.183,29.367
		c0,9.389-3.117,18.053-8.381,25.011c-5.277,6.981-12.709,12.25-21.299,14.806c0.306,0,0.609,0.006,0.915,0.014
		c0.028,0,0.058,0,0.085,0.002c3.507,0.085,6.963,0.559,10.318,1.393c0.037,0.012,0.074,0.018,0.11,0.027
		c0.269,0.068,0.54,0.141,0.808,0.213c0.112,0.029,0.225,0.059,0.332,0.088c0.182,0.051,0.363,0.105,0.543,0.158
		c0.195,0.057,0.391,0.112,0.584,0.172c0.078,0.023,0.155,0.049,0.23,0.073c1.222,0.38,2.426,0.808,3.611,1.282
		c0.165,0.066,0.331,0.13,0.496,0.199c5.183,2.147,9.988,5.213,14.164,9.09c0.436,0.405,0.867,0.814,1.289,1.236
		c4.361,4.354,7.793,9.486,10.152,15.055c0.056,0.131,0.113,0.262,0.168,0.393c0.152,0.366,0.292,0.738,0.436,1.108
		C199.516,182.031,200.478,185.917,200.941,189.896L200.941,189.896z"/>
</g>
</svg>
