<?xml version="1.0" encoding="utf-8"?>
<!-- Generator: Adobe Illustrator 15.1.0, SVG Export Plug-In . SVG Version: 6.00 Build 0)  -->
<!DOCTYPE svg PUBLIC "-//W3C//DTD SVG 1.0//EN" "http://www.w3.org/TR/2001/REC-SVG-20010904/DTD/svg10.dtd">
<svg version="1.0" id="Layer_3" xmlns="http://www.w3.org/2000/svg" xmlns:xlink="http://www.w3.org/1999/xlink" x="0px" y="0px"
	 width="283.46px" height="283.46px" viewBox="0 0 283.46 283.46" enable-background="new 0 0 283.46 283.46" xml:space="preserve">
<g>
	<path d="M198.861,7.084H84.597c-16.671,0-30.185,14.299-30.185,31.939v205.412c0,17.641,13.514,31.939,30.185,31.939h114.264
		c16.672,0,30.186-14.299,30.186-31.939V39.023C229.046,21.384,215.533,7.084,198.861,7.084z M121.73,16.834
		c0-1.565,1.269-2.834,2.834-2.834h34.33c1.566,0,2.836,1.269,2.836,2.834v5.831c0,1.565-1.27,2.834-2.836,2.834h-34.33
		c-1.565,0-2.834-1.269-2.834-2.834V16.834z M192.352,163.375H91.109h-0.061c0.44-3.749,1.386-7.403,2.815-10.853
		c2.029-4.897,5.014-9.398,8.837-13.223c3.818-3.825,8.323-6.809,13.223-8.838c4.848-2.007,10.084-3.081,15.436-3.098
		c-7.353-2.188-13.714-6.699-18.23-12.673c-4.504-5.956-7.173-13.373-7.173-21.409c0-9.814,3.988-18.699,10.426-25.135
		c6.437-6.437,15.326-10.422,25.135-10.422c9.811,0,18.699,3.985,25.135,10.422s10.416,15.321,10.416,25.135
		c0,8.036-2.668,15.453-7.168,21.409c-4.516,5.974-10.882,10.484-18.233,12.673h0.258c0.012,0,0.012,0,0.012,0
		c5.411,0,10.708,1.069,15.604,3.099c4.896,2.028,9.396,5.018,13.225,8.837c3.819,3.814,6.813,8.325,8.833,13.223
		c1.433,3.449,2.376,7.104,2.815,10.853H192.352z"/>
</g>
</svg>
