<?xml version="1.0" encoding="utf-8"?>
<!-- Generator: Adobe Illustrator 15.1.0, SVG Export Plug-In . SVG Version: 6.00 Build 0)  -->
<!DOCTYPE svg PUBLIC "-//W3C//DTD SVG 1.1//EN" "http://www.w3.org/Graphics/SVG/1.1/DTD/svg11.dtd">
<svg version="1.1" id="Layer_2" xmlns="http://www.w3.org/2000/svg" xmlns:xlink="http://www.w3.org/1999/xlink" x="0px" y="0px"
	 width="283.465px" height="283.465px" viewBox="0 0 283.465 283.465" enable-background="new 0 0 283.465 283.465"
	 xml:space="preserve">
<g>
	<path d="M263.736,248.714c-5.148-12.481-12.776-23.978-22.512-33.702c-9.762-9.732-21.229-17.353-33.709-22.523
		c-12.479-5.174-25.98-7.897-39.771-7.897c0,0,0,0-0.031,0h-0.657c18.739-5.579,34.965-17.075,46.475-32.302
		c11.471-15.181,18.271-34.085,18.271-54.568c0-25.015-10.146-47.66-26.549-64.067C188.85,17.247,166.195,7.089,141.188,7.089
		c-25.001,0-47.661,10.159-64.068,26.565C60.713,50.06,50.546,72.705,50.546,97.72c0,20.483,6.803,39.388,18.284,54.568
		c11.513,15.228,27.727,26.724,46.467,32.302c-13.64,0.042-26.986,2.781-39.344,7.896c-12.486,5.173-23.969,12.777-33.702,22.525
		c-9.746,9.75-17.352,21.221-22.524,33.702c-3.646,8.795-6.055,18.106-7.176,27.664h0.154h258.059h0.15
		C269.795,266.82,267.389,257.509,263.736,248.714z M190.98,89.779c0-1.126,0.912-2.042,2.041-2.044c2.59,0,6.976,0,9.527,0
		c1.132,0,2.045,0.916,2.045,2.044c0,0.004,0,0.004,0.004,0.005c0,0.544-0.215,1.063-0.6,1.448
		c-0.381,0.382-0.904,0.596-1.449,0.596c-2.552,0-6.938,0-9.527,0c-0.545,0-1.064-0.214-1.445-0.6c-0.387-0.383-0.6-0.9-0.6-1.445
		C190.977,89.783,190.977,89.783,190.98,89.779z M176.551,52.069c1.832-1.832,4.932-4.934,6.741-6.739
		c0.798-0.798,2.093-0.798,2.89,0c0,0.002,0,0.002,0.005,0c0.386,0.384,0.601,0.905,0.601,1.448s-0.219,1.063-0.601,1.446
		c-1.806,1.808-4.909,4.908-6.741,6.738c-0.382,0.384-0.904,0.599-1.444,0.599c-0.544,0-1.063-0.215-1.444-0.599
		c0,0-0.006-0.002,0-0.004C175.758,54.161,175.754,52.868,176.551,52.069z M176.551,124.605c0-0.005,0.006-0.005,0.006,0
		c0.797-0.798,2.092-0.803,2.889-0.005c1.832,1.831,4.936,4.932,6.741,6.737c0.797,0.802,0.797,2.097,0,2.895
		c-0.005,0-0.005,0,0,0.004c-0.386,0.386-0.905,0.601-1.45,0.601c-0.543,0-1.063-0.219-1.444-0.601
		c-1.81-1.81-4.909-4.91-6.741-6.741c-0.381-0.386-0.596-0.904-0.596-1.444C175.955,125.506,176.17,124.986,176.551,124.605z
		 M139.686,28.964c0-1.13,0.915-2.045,2.046-2.045c0.002,0,0.002,0,0.002-0.004c0.544,0,1.063,0.217,1.449,0.601
		c0.382,0.384,0.601,0.907,0.597,1.449c0,2.554,0,6.94,0,9.53c0,0.543-0.215,1.061-0.597,1.445
		c-0.386,0.383-0.905,0.598-1.449,0.598c0,0,0,0-0.002-0.002c-1.128,0-2.044-0.913-2.046-2.042
		C139.686,35.904,139.686,31.518,139.686,28.964z M92.485,89.783c0,1.128-0.913,2.045-2.041,2.045c-2.59,0-6.977,0-9.529,0
		c-1.13,0-2.046-0.913-2.046-2.045c0,0,0,0-0.002-0.004c0-0.541,0.217-1.063,0.601-1.445c0.384-0.384,0.905-0.601,1.447-0.599
		c2.554,0,6.94,0,9.53,0c0.542,0,1.063,0.215,1.444,0.599c0.384,0.384,0.601,0.904,0.601,1.445
		C92.49,89.783,92.49,89.783,92.485,89.783z M106.915,127.495c-1.831,1.831-4.934,4.932-6.741,6.737
		c-0.797,0.802-2.093,0.802-2.89,0c-0.003,0-0.003,0-0.007,0c-0.384-0.382-0.598-0.905-0.598-1.445c0-0.545,0.217-1.064,0.601-1.45
		c1.807-1.805,4.907-4.905,6.74-6.736c0.384-0.381,0.902-0.6,1.445-0.6c0.542,0,1.063,0.219,1.444,0.6c0.003,0,0.003,0,0,0.005
		C107.708,125.403,107.71,126.698,106.915,127.495z M106.915,54.961c-0.002,0-0.002,0.002-0.007,0
		c-0.797,0.797-2.091,0.799-2.888,0.002c-1.833-1.831-4.934-4.931-6.738-6.738c-0.8-0.798-0.8-2.093,0-2.893c0,0,0,0,0-0.004
		c0.384-0.384,0.904-0.601,1.447-0.599c0.542,0,1.063,0.217,1.447,0.601c1.805,1.806,4.907,4.907,6.738,6.739
		c0.382,0.383,0.598,0.904,0.598,1.446S107.297,54.577,106.915,54.961z M152.252,146.019l-13.347,4.627
		c-0.929,0.321-1.944-0.172-2.267-1.103c-0.323-0.93,0.17-1.946,1.101-2.268l13.347-4.622c0.93-0.322,1.945,0.171,2.268,1.097
		C153.676,144.681,153.182,145.697,152.252,146.019z M153.885,140.226l-20.573,7.127c-0.928,0.321-1.944-0.172-2.266-1.099
		c-0.324-0.93,0.169-1.945,1.1-2.268l20.573-7.13c0.931-0.322,1.947,0.171,2.269,1.102
		C155.309,138.888,154.816,139.904,153.885,140.226z M153.885,134.694l-23.15,8.022c-0.928,0.322-1.944-0.171-2.267-1.102
		c-0.323-0.931,0.17-1.947,1.101-2.268l23.15-8.023c0.931-0.321,1.947,0.172,2.269,1.102
		C155.309,133.356,154.816,134.373,153.885,134.694z M153.885,129.472l-23.15,8.022c-0.928,0.322-1.944-0.171-2.267-1.102
		c-0.323-0.926,0.17-1.943,1.101-2.264l23.15-8.023c0.931-0.321,1.947,0.172,2.269,1.098
		C155.309,128.134,154.816,129.15,153.885,129.472z M153.898,124.283l-23.15,8.019c-0.929,0.326-1.945-0.168-2.267-1.098
		c-0.324-0.931,0.169-1.947,1.1-2.269l23.15-8.022c0.931-0.321,1.947,0.172,2.269,1.103
		C155.322,122.946,154.829,123.958,153.898,124.283z M129.581,123.709l5.128-1.779c0.929-0.322,1.945,0.171,2.267,1.102
		c0.323,0.931-0.169,1.946-1.1,2.269l-5.129,1.775c-0.928,0.321-1.944-0.172-2.266-1.102
		C128.157,125.047,128.65,124.03,129.581,123.709z M141.732,121.304c-17.3,0-31.345-14.043-31.345-31.345
		c0-17.3,14.045-31.345,31.345-31.345c17.303,0,31.346,14.045,31.346,31.345C173.078,107.261,159.035,121.304,141.732,121.304z"/>
</g>
</svg>
