<?xml version="1.0" encoding="utf-8"?>
<!-- Generator: Adobe Illustrator 15.1.0, SVG Export Plug-In . SVG Version: 6.00 Build 0)  -->
<!DOCTYPE svg PUBLIC "-//W3C//DTD SVG 1.1//EN" "http://www.w3.org/Graphics/SVG/1.1/DTD/svg11.dtd">
<svg version="1.1" id="Layer_3" xmlns="http://www.w3.org/2000/svg" xmlns:xlink="http://www.w3.org/1999/xlink" x="0px" y="0px"
	 width="283.465px" height="283.465px" viewBox="0 0 283.465 283.465" enable-background="new 0 0 283.465 283.465"
	 xml:space="preserve">
<g>
	<path d="M242.555,207.202c-0.256-0.661-0.506-1.328-0.779-1.982c-0.098-0.234-0.2-0.47-0.299-0.703
		c-4.221-9.961-10.36-19.143-18.162-26.932c-0.754-0.755-1.526-1.486-2.307-2.21c-7.471-6.937-16.066-12.42-25.338-16.261
		c-0.295-0.125-0.592-0.239-0.889-0.356c-2.119-0.851-4.273-1.616-6.459-2.295c-0.135-0.045-0.271-0.089-0.412-0.132
		c-0.346-0.105-0.695-0.206-1.045-0.307c-0.32-0.094-0.646-0.191-0.971-0.282c-0.193-0.054-0.394-0.106-0.595-0.158
		c-0.478-0.13-0.963-0.259-1.444-0.381c-0.064-0.017-0.131-0.028-0.197-0.048c-6.002-1.493-12.186-2.34-18.459-2.492
		c-0.049-0.004-0.102-0.004-0.152-0.004c-0.547-0.014-1.09-0.024-1.637-0.024c15.367-4.573,28.662-13.998,38.102-26.486
		c9.416-12.448,14.992-27.948,14.992-44.743c0-20.515-8.336-39.081-21.793-52.535C181.258,15.417,162.68,7.088,142.18,7.088
		c-0.149,0-0.298,0.006-0.447,0.006c-0.15-0.002-0.297-0.006-0.447-0.006c-20.501,0-39.08,8.329-52.535,21.782
		C75.298,42.324,66.96,60.893,66.96,81.405c0,16.795,5.578,32.297,14.993,44.743c9.439,12.486,22.736,21.914,38.104,26.486
		c-0.548,0-1.094,0.012-1.64,0.023c-0.049,0-0.103,0-0.151,0.005c-6.282,0.151-12.475,1.001-18.479,2.499
		c-0.06,0.013-0.122,0.029-0.179,0.041c-0.492,0.126-0.983,0.26-1.475,0.392c-0.187,0.05-0.378,0.099-0.563,0.15
		c-0.337,0.092-0.671,0.192-1.008,0.292c-0.338,0.102-0.671,0.191-1.009,0.294c-0.15,0.046-0.306,0.099-0.457,0.146
		c-2.159,0.67-4.289,1.432-6.39,2.271c-0.305,0.125-0.608,0.239-0.916,0.366c-9.264,3.839-17.847,9.313-25.311,16.238
		c-0.791,0.731-1.568,1.473-2.334,2.233c-7.735,7.728-13.842,16.823-18.056,26.696c-0.131,0.311-0.271,0.625-0.402,0.938
		c-0.342,0.823-0.667,1.654-0.982,2.49c-2.442,6.473-4.085,13.251-4.899,20.191v48.478h211.85v-48.478h0.002
		C246.828,220.78,245.107,213.827,242.555,207.202z M178.267,115.358c-0.006,0-0.006,0,0,0.002
		c-0.318,0.317-0.746,0.495-1.192,0.495c-0.447,0-0.873-0.181-1.188-0.495c-1.487-1.487-4.033-4.035-5.539-5.539
		c-0.313-0.317-0.489-0.743-0.489-1.187c-0.001-0.448,0.176-0.875,0.488-1.188c0-0.004,0.005-0.004,0.005,0
		c0.655-0.655,1.72-0.66,2.373-0.004c1.507,1.505,4.058,4.054,5.542,5.537C178.921,113.637,178.921,114.701,178.267,115.358z
		 M182.204,78.825c0-0.925,0.751-1.678,1.678-1.679c2.129,0,5.733,0,7.83,0c0.93,0,1.68,0.752,1.68,1.679
		c0,0.003,0,0.003,0.004,0.004c0,0.447-0.178,0.875-0.493,1.19c-0.313,0.314-0.744,0.49-1.19,0.49c-2.099,0-5.703,0-7.83,0
		c-0.447,0-0.874-0.176-1.188-0.493c-0.317-0.315-0.492-0.74-0.492-1.188C182.202,78.829,182.202,78.829,182.204,78.825z
		 M170.347,47.835c1.505-1.505,4.053-4.054,5.539-5.538c0.657-0.656,1.721-0.656,2.375,0c0,0.001,0,0.001,0.006,0
		c0.316,0.315,0.493,0.744,0.493,1.19c0,0.446-0.181,0.874-0.493,1.188c-1.485,1.485-4.035,4.033-5.542,5.537
		c-0.313,0.316-0.742,0.492-1.186,0.492c-0.446,0-0.873-0.176-1.187-0.492c0,0-0.005-0.002,0-0.003
		C169.695,49.554,169.691,48.492,170.347,47.835z M140.05,28.847c0-0.929,0.753-1.68,1.683-1.68c0.001,0,0.001,0,0.001-0.003
		c0.447,0,0.873,0.178,1.191,0.494c0.314,0.316,0.495,0.745,0.49,1.191c0,2.099,0,5.703,0,7.832c0,0.446-0.176,0.872-0.49,1.188
		c-0.318,0.315-0.744,0.491-1.191,0.491c0,0,0,0-0.001-0.001c-0.927,0-1.68-0.75-1.683-1.678
		C140.05,34.551,140.05,30.946,140.05,28.847z M101.26,78.829c0,0.927-0.75,1.681-1.677,1.681c-2.128,0-5.733,0-7.831,0
		c-0.929,0-1.681-0.75-1.681-1.681c0,0,0,0-0.002-0.003c0-0.444,0.179-0.874,0.494-1.188c0.315-0.315,0.744-0.494,1.189-0.492
		c2.099,0,5.704,0,7.832,0c0.444,0,0.874,0.177,1.186,0.492c0.316,0.316,0.495,0.743,0.495,1.188
		C101.265,78.829,101.265,78.829,101.26,78.829z M113.119,109.821c-1.504,1.504-4.055,4.054-5.54,5.537
		c-0.655,0.659-1.72,0.659-2.375,0c-0.002,0-0.002,0-0.005,0c-0.316-0.314-0.491-0.745-0.491-1.188c0-0.448,0.178-0.875,0.493-1.191
		c1.485-1.483,4.034-4.031,5.539-5.536c0.316-0.313,0.742-0.493,1.188-0.493c0.445,0,0.873,0.181,1.187,0.493
		c0.002,0,0.002,0,0,0.005C113.771,108.102,113.773,109.166,113.119,109.821z M113.119,50.212c-0.001,0-0.001,0.001-0.005,0
		c-0.655,0.655-1.72,0.657-2.375,0.001c-1.505-1.505-4.054-4.052-5.537-5.537c-0.657-0.656-0.657-1.72,0-2.377c0,0,0,0,0-0.003
		c0.315-0.316,0.743-0.494,1.189-0.493c0.446,0,0.874,0.178,1.189,0.494c1.483,1.484,4.033,4.032,5.538,5.538
		c0.314,0.315,0.491,0.743,0.491,1.188C113.609,49.469,113.433,49.896,113.119,50.212z M150.378,125.044l-10.969,3.802
		c-0.763,0.263-1.597-0.141-1.862-0.906c-0.267-0.765,0.139-1.599,0.903-1.864l10.97-3.799c0.764-0.264,1.598,0.142,1.863,0.902
		C151.548,123.944,151.143,124.779,150.378,125.044z M151.719,120.283l-16.906,5.858c-0.763,0.263-1.598-0.142-1.862-0.904
		c-0.266-0.764,0.138-1.599,0.904-1.863l16.907-5.86c0.765-0.265,1.6,0.14,1.865,0.905
		C152.89,119.185,152.485,120.018,151.719,120.283z M151.719,115.737l-19.024,6.592c-0.762,0.265-1.597-0.14-1.863-0.905
		c-0.266-0.766,0.141-1.6,0.904-1.863l19.026-6.594c0.765-0.264,1.6,0.141,1.865,0.905
		C152.89,114.638,152.485,115.472,151.719,115.737z M151.719,111.445l-19.024,6.593c-0.762,0.264-1.597-0.141-1.863-0.905
		c-0.266-0.762,0.141-1.597,0.904-1.861l19.026-6.593c0.765-0.265,1.6,0.14,1.865,0.902
		C152.89,110.345,152.485,111.181,151.719,111.445z M151.73,107.181l-19.025,6.591c-0.764,0.268-1.599-0.139-1.863-0.903
		c-0.266-0.764,0.139-1.6,0.904-1.864l19.024-6.593c0.766-0.264,1.601,0.141,1.865,0.907
		C152.9,106.082,152.495,106.914,151.73,107.181z M131.747,106.709l4.214-1.462c0.764-0.264,1.599,0.142,1.864,0.906
		c0.265,0.765-0.14,1.6-0.904,1.864l-4.215,1.459c-0.763,0.265-1.598-0.141-1.862-0.904
		C130.576,107.809,130.981,106.974,131.747,106.709z M141.732,104.733c-14.217,0-25.76-11.54-25.76-25.76
		c0-14.216,11.542-25.759,25.76-25.759c14.22,0,25.76,11.543,25.76,25.759C167.492,93.193,155.952,104.733,141.732,104.733z"/>
</g>
</svg>
