<?xml version="1.0" encoding="utf-8"?>
<!-- Generator: Adobe Illustrator 15.1.0, SVG Export Plug-In . SVG Version: 6.00 Build 0)  -->
<!DOCTYPE svg PUBLIC "-//W3C//DTD SVG 1.1//EN" "http://www.w3.org/Graphics/SVG/1.1/DTD/svg11.dtd">
<svg version="1.1" id="Layer_2" xmlns="http://www.w3.org/2000/svg" xmlns:xlink="http://www.w3.org/1999/xlink" x="0px" y="0px"
	 width="283.465px" height="283.465px" viewBox="0 0 283.465 283.465" enable-background="new 0 0 283.465 283.465"
	 xml:space="preserve">
<path d="M211.473,76.825c-17.338,0-33.637,6.752-45.896,19.012c-0.178,0.176-0.352,0.359-0.521,0.551l-65.242,73.668
	c-7.469,7.338-17.344,11.379-27.818,11.379c-10.693,0-20.723-4.188-28.238-11.793c-15.39-15.566-15.244-40.756,0.326-56.145
	c7.48-7.395,17.393-11.468,27.912-11.468c10.475,0,20.35,4.041,27.818,11.378l9.195,10.385c2.389,2.701,5.832,4.254,9.445,4.254
	c3.074,0,6.035-1.121,8.34-3.156c2.521-2.229,4.027-5.307,4.236-8.666c0.207-3.359-0.906-6.6-3.135-9.122
	c-0.012-0.015-0.023-0.028-0.037-0.042l-9.445-10.666c-0.172-0.193-0.344-0.377-0.523-0.557
	c-12.26-12.26-28.559-19.011-45.896-19.011c-17.336,0-33.637,6.751-45.896,19.011c-12.258,12.258-19.01,28.559-19.01,45.895
	c0,17.34,6.752,33.639,19.01,45.896c12.26,12.26,28.561,19.012,45.896,19.012c17.338,0,33.637-6.752,45.896-19.01
	c0.014-0.014,0.025-0.027,0.039-0.041c0.168-0.168,0.328-0.34,0.484-0.516l65.24-73.664c7.469-7.339,17.344-11.379,27.818-11.379
	c10.691,0.001,20.721,4.188,28.236,11.792c7.455,7.542,11.527,17.536,11.467,28.142c-0.063,10.605-4.25,20.551-11.791,28.006
	c-7.48,7.395-17.393,11.467-27.91,11.467c-10.477,0-20.352-4.041-27.82-11.379l-9.195-10.383c-2.396-2.693-5.83-4.236-9.43-4.236
	c-3.088,0-6.059,1.131-8.367,3.182c-5.18,4.602-5.662,12.57-1.074,17.762l9.469,10.693c0.17,0.191,0.35,0.381,0.533,0.564
	c12.248,12.248,28.547,19,45.885,19c17.336,0,33.637-6.752,45.896-19.012s19.01-28.559,19.01-45.895
	C276.379,105.942,247.262,76.825,211.473,76.825z"/>
</svg>
