<?xml version="1.0" encoding="utf-8"?>
<!-- Generator: Adobe Illustrator 15.1.0, SVG Export Plug-In . SVG Version: 6.00 Build 0)  -->
<!DOCTYPE svg PUBLIC "-//W3C//DTD SVG 1.0//EN" "http://www.w3.org/TR/2001/REC-SVG-20010904/DTD/svg10.dtd">
<svg version="1.0" id="Layer_4" xmlns="http://www.w3.org/2000/svg" xmlns:xlink="http://www.w3.org/1999/xlink" x="0px" y="0px"
	 width="283.46px" height="283.46px" viewBox="0 0 283.46 283.46" enable-background="new 0 0 283.46 283.46" xml:space="preserve">
<g>
	<path d="M170.261,59.744c-3.18-3.178-7.112-4.79-11.688-4.79c-4.577,0-8.509,1.612-11.686,4.79c-3.179,3.178-4.79,7.11-4.79,11.687
		c0,4.497,1.633,8.408,4.85,11.622c3.218,3.222,7.13,4.855,11.626,4.855c4.495,0,8.407-1.633,11.626-4.854
		c3.22-3.219,4.853-7.13,4.853-11.624C175.051,66.856,173.44,62.925,170.261,59.744z"/>
	<path d="M162.393,192.61l-4.366-2.87c-1.81-1.188-4.235-0.723-5.476,1.051c-4.582,6.556-9.142,11.644-13.498,15.083
		c-1.132,0.863-1.77,1.097-1.987,1.156c-0.043-0.064-0.071-0.246-0.072-0.426c0.014-0.255,0.19-1.915,2.348-9.564l24.703-87.464
		c0.371-1.315,0.046-2.729-0.864-3.75c-0.91-1.021-2.278-1.505-3.626-1.286l-43.046,6.987c-1.936,0.314-3.359,1.986-3.359,3.948
		v4.866c0,1.171,0.513,2.283,1.403,3.043c0.891,0.76,2.07,1.091,3.226,0.907c6.865-1.093,9.622-1.323,10.726-1.323
		c1.212,0,2.094,0.241,2.621,0.716c0.369,0.333,0.614,0.719,0.614,1.522c0,0.879-0.374,4.207-3.833,16.104l-16.219,55.895
		c-2.206,7.586-3.278,12.972-3.278,16.463c0,4.211,1.514,7.772,4.501,10.587c2.919,2.75,6.654,4.145,11.103,4.145
		c6.042,0,12.327-2.509,18.664-7.446c7.97-6.149,14.99-13.825,20.867-22.813C164.75,196.296,164.236,193.822,162.393,192.61z"/>
</g>
</svg>
