<?xml version="1.0" encoding="utf-8"?>
<!-- Generator: Adobe Illustrator 15.1.0, SVG Export Plug-In . SVG Version: 6.00 Build 0)  -->
<!DOCTYPE svg PUBLIC "-//W3C//DTD SVG 1.1//EN" "http://www.w3.org/Graphics/SVG/1.1/DTD/svg11.dtd">
<svg version="1.1" id="Layer_1" xmlns="http://www.w3.org/2000/svg" xmlns:xlink="http://www.w3.org/1999/xlink" x="0px" y="0px"
	 width="283.465px" height="283.465px" viewBox="0 0 283.465 283.465" enable-background="new 0 0 283.465 283.465"
	 xml:space="preserve">
<g id="Layer_1_1_">
</g>
<g id="Layer_2">
	<g>
		<path d="M183.285,112.044c-0.417-3.567-1.315-7.044-2.68-10.327c-1.921-4.659-4.77-8.952-8.403-12.582
			c-3.646-3.633-7.925-6.479-12.585-8.408c-4.658-1.932-9.699-2.948-14.848-2.948c0,0,0,0-0.012,0h-0.246
			c6.996-2.083,13.054-6.374,17.351-12.059c4.283-5.668,6.822-12.726,6.822-20.372c0-9.339-3.789-17.792-9.911-23.917
			c-6.124-6.125-14.581-9.917-23.917-9.917c-9.333,0-17.792,3.792-23.917,9.917c-6.125,6.126-9.921,14.579-9.921,23.917
			c0,7.646,2.541,14.704,6.826,20.372c4.298,5.685,10.351,9.977,17.347,12.06c-5.092,0.016-10.074,1.038-14.688,2.947
			c-4.663,1.931-8.95,4.771-12.583,8.409c-3.638,3.64-6.478,7.923-8.409,12.582c-1.361,3.283-2.26,6.759-2.679,10.327h0.058h0.014
			c-0.082,0.36-0.096,0.751-0.026,1.161l27.229,159.997c0.299,1.752,1.161,3.175,1.924,3.175h39.24c0.764,0,1.614-1.421,1.899-3.175
			l26.075-159.997c0.065-0.41,0.048-0.8-0.036-1.161h0.021L183.285,112.044L183.285,112.044z"/>
		<path d="M262.022,10.102c-0.377-1.121-1.169-2.028-2.229-2.554c-0.608-0.301-1.289-0.461-1.967-0.461
			c-1.692,0-3.211,0.942-3.964,2.459l-65.738,132.433c-0.526,1.056-0.609,2.257-0.231,3.378c0.376,1.12,1.167,2.026,2.225,2.554
			c0.61,0.303,1.29,0.463,1.968,0.463c1.694,0,3.215-0.943,3.967-2.462L261.792,13.48C262.317,12.422,262.4,11.222,262.022,10.102z
			 M258.412,9.128c-0.055-0.013-0.11-0.017-0.165-0.026C258.302,9.111,258.356,9.115,258.412,9.128z M257.892,9.062
			c-0.054-0.002-0.106,0.003-0.161,0.005c0.033-0.001,0.063-0.013,0.097-0.013C257.848,9.054,257.87,9.061,257.892,9.062z
			 M257.256,9.133c-0.047,0.011-0.093,0.019-0.138,0.032C257.163,9.151,257.209,9.144,257.256,9.133z M256.575,9.401
			c-0.031,0.018-0.06,0.043-0.09,0.063C256.516,9.443,256.544,9.42,256.575,9.401z M256.096,9.782
			c-0.039,0.039-0.077,0.078-0.114,0.12C256.019,9.859,256.057,9.821,256.096,9.782z"/>
	</g>
</g>
</svg>
