<?xml version="1.0" encoding="utf-8"?>
<!-- Generator: Adobe Illustrator 15.1.0, SVG Export Plug-In . SVG Version: 6.00 Build 0)  -->
<!DOCTYPE svg PUBLIC "-//W3C//DTD SVG 1.1//EN" "http://www.w3.org/Graphics/SVG/1.1/DTD/svg11.dtd">
<svg version="1.1" id="Layer_3_2_" xmlns="http://www.w3.org/2000/svg" xmlns:xlink="http://www.w3.org/1999/xlink" x="0px" y="0px"
	 width="283.46px" height="283.46px" viewBox="0 0 283.46 283.46" enable-background="new 0 0 283.46 283.46" xml:space="preserve">
<g>
	<path fill="none" d="M48.761,53.112c0.06-0.126,0.105-0.255,0.17-0.38c1.031-1.992,2.653-3.533,4.584-4.467
		C51.15,48.843,49.295,50.727,48.761,53.112z"/>
	<path d="M48.761,53.112c0.534-2.385,2.389-4.269,4.754-4.847c1.341-0.647,2.829-1.005,4.378-1.005h127.032V10.671
		c0-1.981-1.602-3.587-3.578-3.587H13.671c-1.977,0-3.579,1.606-3.579,3.587v168.714c0,1.979,1.603,3.585,3.579,3.585h34.115V57.375
		C47.787,55.9,48.125,54.47,48.761,53.112z"/>
	<path d="M93.154,99.432c1.748-3.374,5.181-5.47,8.961-5.47h127.031V57.375v-0.003c0-1.177-0.572-2.211-1.447-2.865
		c-0.045-0.033-0.082-0.075-0.131-0.106c-0.57-0.387-1.258-0.613-2-0.613h-34.932v0.001H57.893h-0.001
		c-1.383,0-2.568,0.794-3.164,1.944c-0.256,0.494-0.414,1.047-0.414,1.643v168.713c0,1.979,1.603,3.585,3.579,3.585h34.115V104.078
		C92.008,102.465,92.393,100.904,93.154,99.432z"/>
	<path d="M271.921,101.209c-0.047-0.033-0.084-0.075-0.131-0.106c-0.57-0.387-1.26-0.613-2-0.613h-34.932v0.001H102.115h-0.001
		c-1.382,0-2.567,0.794-3.164,1.944c-0.256,0.494-0.414,1.047-0.414,1.643v168.713c0,1.979,1.603,3.585,3.579,3.585h34.931v-0.001
		h97.813v0.001h34.932c1.977,0,3.578-1.606,3.578-3.585v-0.002V141.481v-37.403v-0.003
		C273.369,102.899,272.794,101.864,271.921,101.209z"/>
</g>
</svg>
