<?xml version="1.0" encoding="utf-8"?>
<!-- Generator: Adobe Illustrator 15.1.0, SVG Export Plug-In . SVG Version: 6.00 Build 0)  -->
<!DOCTYPE svg PUBLIC "-//W3C//DTD SVG 1.1//EN" "http://www.w3.org/Graphics/SVG/1.1/DTD/svg11.dtd">
<svg version="1.1" id="Layer_2" xmlns="http://www.w3.org/2000/svg" xmlns:xlink="http://www.w3.org/1999/xlink" x="0px" y="0px"
	 width="283.465px" height="283.465px" viewBox="0 0 283.465 283.465" enable-background="new 0 0 283.465 283.465"
	 xml:space="preserve">
<g>
	<path fill="none" d="M150.147,257.999c10.451-3.813,20.582-14.563,28.687-30.771c1.104-2.207,2.145-4.509,3.15-6.856
		c-10.191-3.705-20.896-5.996-31.837-6.779V257.999L150.147,257.999z"/>
	<path fill="none" d="M183.324,251.96c10.248-3.879,19.818-9.146,28.48-15.574c-4.598-3.405-9.418-6.459-14.42-9.144
		C193.328,236.647,188.6,244.966,183.324,251.96z"/>
	<path fill="none" d="M150.147,196.702c12.918,0.807,25.567,3.465,37.589,7.834c1.678-5.527,3.102-11.328,4.303-17.313h-41.892
		V196.702L150.147,196.702z"/>
	<path fill="none" d="M95.729,204.536c12.021-4.369,24.668-7.027,37.587-7.834v-9.479H91.426
		C92.629,193.208,94.053,199.009,95.729,204.536z"/>
	<path fill="none" d="M104.631,227.229c8.103,16.208,18.233,26.956,28.687,30.771v-44.406c-10.938,0.783-21.646,3.074-31.837,6.779
		C102.486,222.72,103.527,225.021,104.631,227.229z"/>
	<path fill="none" d="M211.805,47.081c-8.662-6.429-18.232-11.694-28.481-15.574c5.277,6.992,10.005,15.313,14.062,24.715
		C202.387,53.54,207.207,50.487,211.805,47.081z"/>
	<path fill="none" d="M178.834,56.239c-8.104-16.208-18.234-26.957-28.687-30.772v44.405c10.938-0.781,21.646-3.074,31.837-6.777
		C180.978,60.747,179.938,58.446,178.834,56.239z"/>
	<path fill="none" d="M133.317,86.765c-12.919-0.809-25.567-3.467-37.588-7.834c-1.677,5.527-3.101,11.326-4.304,17.312h41.892
		V86.765L133.317,86.765z"/>
	<path fill="none" d="M71.662,236.386c8.66,6.429,18.231,11.693,28.479,15.574c-5.277-6.994-10.004-15.313-14.061-24.718
		C81.078,229.927,76.258,232.98,71.662,236.386z"/>
	<path fill="none" d="M133.317,25.467c-10.452,3.815-20.581,14.563-28.687,30.772c-1.104,2.207-2.146,4.508-3.15,6.854
		c10.191,3.707,20.898,5.998,31.837,6.779V25.467L133.317,25.467z"/>
	<path fill="none" d="M100.141,31.507c-10.248,3.88-19.819,9.146-28.48,15.574c4.598,3.406,9.416,6.459,14.42,9.143
		C90.137,46.819,94.864,38.499,100.141,31.507z"/>
	<path fill="none" d="M250.111,127.642v5.676h9.133c-2.072-29.213-14.838-55.518-34.404-75.009
		c-6.766,5.315-13.986,9.946-21.563,13.841c2.38,7.559,4.371,15.623,5.938,24.093h15.736
		C239.059,96.242,250.111,110.036,250.111,127.642z"/>
	<path fill="none" d="M250.111,150.148v5.677c0,17.605-11.053,31.398-25.158,31.398h-15.736c-1.566,8.47-3.559,16.533-5.938,24.094
		c7.574,3.895,14.795,8.525,21.563,13.842c19.564-19.49,32.332-45.797,34.404-75.011H250.111z"/>
	<path fill="none" d="M187.735,78.931c-12.021,4.369-24.67,7.027-37.588,7.834v9.478h41.892
		C190.836,90.257,189.412,84.458,187.735,78.931z"/>
	<path fill="none" d="M33.354,155.825v-5.677h-9.133c2.072,29.214,14.838,55.521,34.403,75.011
		c6.768-5.316,13.986-9.947,21.563-13.842c-2.38-7.561-4.372-15.623-5.938-24.094H58.514
		C44.405,187.224,33.354,173.431,33.354,155.825z"/>
	<path fill="none" d="M58.514,96.242h15.734c1.566-8.47,3.558-16.532,5.938-24.093c-7.574-3.895-14.793-8.525-21.562-13.841
		c-19.563,19.491-32.33,45.796-34.403,75.009h9.135v-5.676C33.354,110.036,44.405,96.242,58.514,96.242z"/>
	<path d="M231.527,41.494c-0.453-0.514-0.955-0.948-1.488-1.321c-23.656-20.597-54.55-33.086-88.307-33.086
		c-33.754,0-64.646,12.487-88.303,33.083c-0.535,0.375-1.039,0.811-1.49,1.322C24.427,66.167,7.088,101.962,7.088,141.733
		c0,39.773,17.339,75.568,44.85,100.238c0.454,0.514,0.957,0.947,1.49,1.322c23.656,20.597,54.549,33.084,88.305,33.084
		c33.75,0,64.637-12.482,88.291-33.072c0.539-0.375,1.047-0.816,1.5-1.331c27.516-24.673,44.854-60.468,44.854-100.241
		C276.379,101.96,259.039,66.165,231.527,41.494z M211.805,47.081c-4.598,3.406-9.418,6.459-14.42,9.143
		c-4.057-9.403-8.784-17.725-14.063-24.716C193.571,35.387,203.142,40.652,211.805,47.081z M150.147,25.467
		c10.451,3.815,20.583,14.563,28.687,30.772c1.104,2.207,2.145,4.508,3.15,6.855c-10.191,3.705-20.896,5.996-31.837,6.777V25.467
		L150.147,25.467z M104.631,56.239c8.104-16.208,18.233-26.957,28.687-30.772v44.405c-10.938-0.781-21.646-3.074-31.837-6.779
		C102.486,60.747,103.527,58.446,104.631,56.239z M100.141,31.507c-5.276,6.992-10.004,15.313-14.061,24.715
		c-5.004-2.682-9.822-5.735-14.42-9.142C80.321,40.652,89.893,35.387,100.141,31.507z M71.662,236.386
		c4.596-3.405,9.416-6.459,14.418-9.144c4.057,9.404,8.783,17.724,14.062,24.718C89.894,248.079,80.322,242.814,71.662,236.386z
		 M133.317,257.999c-10.452-3.814-20.583-14.563-28.687-30.771c-1.104-2.207-2.146-4.508-3.15-6.855
		c10.191-3.705,20.898-5.996,31.837-6.779V257.999L133.317,257.999z M178.834,227.229c-8.104,16.208-18.234,26.956-28.687,30.771
		v-44.408c10.938,0.783,21.646,3.074,31.837,6.779C180.978,222.722,179.938,225.022,178.834,227.229z M183.324,251.96
		c5.275-6.994,10.004-15.313,14.061-24.718c5.004,2.685,9.822,5.737,14.421,9.144C203.143,242.814,193.572,248.081,183.324,251.96z
		 M224.842,225.159c-6.768-5.314-13.988-9.947-21.563-13.842c2.38-7.561,4.371-15.624,5.938-24.094h-17.178
		c-1.203,5.984-2.627,11.785-4.304,17.313c-12.021-4.369-24.671-7.027-37.589-7.834v-9.479h-16.831v9.479
		c-12.919,0.807-25.567,3.465-37.587,7.834c-1.678-5.527-3.102-11.328-4.303-17.313H74.248c1.565,8.471,3.557,16.533,5.938,24.094
		c-7.575,3.895-14.795,8.525-21.563,13.842c-19.564-19.49-32.331-45.797-34.403-75.011h9.133v-16.831h-9.135
		c2.073-29.213,14.84-55.518,34.403-75.009c6.769,5.315,13.987,9.946,21.562,13.841c-2.38,7.561-4.371,15.623-5.938,24.093h17.178
		c1.203-5.985,2.627-11.784,4.304-17.312c12.021,4.369,24.669,7.027,37.588,7.834v9.478h16.831v-9.478
		c12.918-0.809,25.568-3.467,37.588-7.834c1.677,5.527,3.102,11.326,4.303,17.312h17.178c-1.566-8.47-3.559-16.534-5.938-24.093
		c7.575-3.895,14.797-8.525,21.563-13.841c19.566,19.491,32.332,45.796,34.404,75.009h-9.135v16.831h9.135
		C257.172,179.362,244.406,205.667,224.842,225.159z"/>
	<path d="M250.111,155.825v-5.677v-16.831v-5.676c0-17.607-11.053-31.399-25.158-31.399h-15.736h-17.178h-41.892h-16.831H91.426
		H74.248H58.512c-14.106,0-25.157,13.792-25.157,31.399v5.676v16.831v5.677c0,17.605,11.051,31.398,25.157,31.398h15.736h17.178
		h41.892h16.831h41.893h17.178h15.734C239.059,187.224,250.111,173.431,250.111,155.825z M49.354,155.825v-28.183
		c0-8.813,4.835-15.399,9.157-15.399h166.441c4.322,0,9.158,6.586,9.158,15.399v28.183c0,8.813-4.836,15.398-9.158,15.398H58.514
		C54.189,171.224,49.354,164.638,49.354,155.825z"/>
	<polygon points="72.889,162.511 81.137,131.444 89.414,162.511 98.314,162.511 108.405,120.956 99.959,120.956 93.58,149.981 
		86.297,120.956 76.318,120.956 68.723,149.499 62.459,120.956 53.869,120.956 63.791,162.511 	"/>
	<polygon points="124.387,162.511 133.484,162.511 141.732,131.444 150.01,162.511 158.91,162.511 169,120.956 160.555,120.956 
		154.176,149.981 146.892,120.956 136.914,120.956 129.317,149.499 123.055,120.956 114.465,120.956 	"/>
	<polygon points="184.98,162.511 194.08,162.511 202.328,131.444 210.604,162.511 219.506,162.511 229.596,120.956 221.148,120.956 
		214.771,149.981 207.486,120.956 197.51,120.956 189.914,149.499 183.648,120.956 175.061,120.956 	"/>
</g>
</svg>
