<?xml version="1.0" encoding="utf-8"?>
<!-- Generator: Adobe Illustrator 15.1.0, SVG Export Plug-In . SVG Version: 6.00 Build 0)  -->
<!DOCTYPE svg PUBLIC "-//W3C//DTD SVG 1.1//EN" "http://www.w3.org/Graphics/SVG/1.1/DTD/svg11.dtd">
<svg version="1.1" id="Layer_1" xmlns="http://www.w3.org/2000/svg" xmlns:xlink="http://www.w3.org/1999/xlink" x="0px" y="0px"
	 width="283.465px" height="283.465px" viewBox="0 0 283.465 283.465" enable-background="new 0 0 283.465 283.465"
	 xml:space="preserve">
<path d="M164.968,269.029l-2.185,7.349H51.969l2.78-7.349c11.121-0.264,18.469-1.19,22.043-2.779
	c5.826-2.251,10.128-5.361,12.909-9.334c4.369-6.223,8.868-17.344,13.504-33.363l46.867-162.449
	c3.973-13.504,5.959-23.699,5.959-30.583c0-3.442-0.86-6.355-2.582-8.738c-1.721-2.383-4.336-4.201-7.844-5.461
	c-3.509-1.258-10.36-1.887-20.556-1.887l2.383-7.348h104.063l-2.186,7.348c-8.473-0.129-14.762,0.794-18.865,2.78
	c-5.959,2.651-10.492,6.424-13.604,11.32c-3.11,4.899-7.116,15.758-12.015,32.569l-46.669,162.449
	c-4.239,14.961-6.355,24.493-6.355,28.598c0,3.311,0.825,6.123,2.482,8.439c1.655,2.316,4.3,4.104,7.944,5.362
	C145.87,267.21,153.449,268.236,164.968,269.029z"/>
</svg>
