<?xml version="1.0" encoding="utf-8"?>
<!-- Generator: Adobe Illustrator 15.1.0, SVG Export Plug-In . SVG Version: 6.00 Build 0)  -->
<!DOCTYPE svg PUBLIC "-//W3C//DTD SVG 1.1//EN" "http://www.w3.org/Graphics/SVG/1.1/DTD/svg11.dtd">
<svg version="1.1" id="Layer_3" xmlns="http://www.w3.org/2000/svg" xmlns:xlink="http://www.w3.org/1999/xlink" x="0px" y="0px"
	 width="283.465px" height="283.465px" viewBox="0 0 283.465 283.465" enable-background="new 0 0 283.465 283.465"
	 xml:space="preserve">
<g>
	<path fill="none" d="M146.727,138.015c-0.889-0.445-2.332-0.929-4.287-1.438c-1.465-0.373-2.459-0.666-2.951-0.871
		c-0.453-0.188-0.832-0.488-1.125-0.891c-0.291-0.4-0.434-0.854-0.434-1.385c0-0.686,0.281-1.262,0.861-1.762
		c0.586-0.504,1.453-0.76,2.578-0.76c1.865,0,3.297,0.766,4.371,2.342v1.445c0,0.165,0.135,0.299,0.299,0.299h2.691
		c0.164,0,0.297-0.134,0.297-0.299v-6.682c0-0.165-0.133-0.299-0.297-0.299h-2.691c-0.164,0-0.299,0.134-0.299,0.299v0.896
		c-1.426-0.951-2.975-1.432-4.609-1.432c-1.924,0-3.549,0.582-4.83,1.73c-1.289,1.156-1.941,2.719-1.941,4.646
		c0,1.246,0.301,2.341,0.895,3.257c0.592,0.913,1.396,1.626,2.389,2.116c0.965,0.477,2.459,0.986,4.441,1.518
		c1.654,0.441,2.787,0.887,3.365,1.32c0.537,0.402,0.799,1.063,0.799,2.018c0,0.998-0.334,1.779-1.023,2.391
		c-0.689,0.613-1.551,0.924-2.557,0.924c-2.014,0-3.611-1.105-4.879-3.373v-1.871c0-0.164-0.133-0.297-0.299-0.297h-2.754
		c-0.164,0-0.297,0.133-0.297,0.297v7.996c0,0.164,0.133,0.297,0.297,0.297h2.754c0.166,0,0.299-0.133,0.299-0.297v-1.182
		c1.531,1.213,3.25,1.826,5.115,1.826c2.021,0,3.744-0.645,5.119-1.916c1.383-1.279,2.082-2.918,2.082-4.875
		c0-1.381-0.334-2.621-0.994-3.688S147.648,138.475,146.727,138.015z"/>
	<path fill="none" d="M98.074,127.828h-7.617c-0.123,0-0.232,0.075-0.277,0.189l-5.58,14.379l-5.518-14.377
		c-0.045-0.115-0.154-0.191-0.279-0.191h-7.537c-0.164,0-0.297,0.133-0.297,0.297v2.756c0,0.164,0.133,0.297,0.297,0.297h2.348
		v15.92h-2.348c-0.164,0-0.297,0.133-0.297,0.297v2.756c0,0.164,0.133,0.299,0.297,0.299h7.791c0.164,0,0.297-0.135,0.297-0.299
		v-2.756c0-0.164-0.133-0.297-0.297-0.297h-2.125v-14.62l6.947,18.001c0.043,0.115,0.154,0.191,0.277,0.191h0.648
		c0.123,0,0.232-0.076,0.277-0.189l7.025-18.018v14.635h-2.33c-0.164,0-0.299,0.133-0.299,0.297v2.756
		c0,0.164,0.135,0.299,0.299,0.299h8.297c0.164,0,0.297-0.135,0.297-0.299v-2.756c0-0.164-0.133-0.297-0.297-0.297h-2.363v-15.92
		h2.363c0.164,0,0.297-0.133,0.297-0.297v-2.756C98.371,127.961,98.238,127.828,98.074,127.828z"/>
	<path fill="none" d="M127.805,147.1h-2.256l-5.945-16.189h2.328c0.164,0,0.297-0.133,0.297-0.298v-2.485
		c0-0.166-0.133-0.297-0.297-0.297h-11.258c-0.166,0-0.297,0.133-0.297,0.297v2.485c0,0.165,0.133,0.298,0.297,0.298h2.238
		l-5.801,16.189h-2.455c-0.164,0-0.297,0.133-0.297,0.297v2.756c0,0.164,0.133,0.297,0.297,0.297h8.678
		c0.164,0,0.297-0.133,0.297-0.297v-2.756c0-0.164-0.133-0.297-0.297-0.297h-2.262l1.482-4.395h7.506l1.443,4.395h-2.328
		c-0.164,0-0.297,0.133-0.297,0.297v2.756c0,0.164,0.133,0.297,0.297,0.297h8.629c0.166,0,0.297-0.133,0.297-0.297v-2.756
		C128.102,147.232,127.971,147.1,127.805,147.1z M113.164,139.828l3.051-9.217h0.301l2.932,9.217H113.164z"/>
	<path fill="none" d="M212.199,127.828h-9.043c-0.164,0-0.297,0.133-0.297,0.297v2.756c0,0.164,0.133,0.297,0.297,0.297h2.822
		v12.936l-9.105-16.134c-0.051-0.093-0.15-0.151-0.258-0.151h-7.52c-0.164,0-0.297,0.133-0.297,0.297v2.756
		c0,0.164,0.133,0.297,0.297,0.297h2.854v15.92h-2.854c-0.164,0-0.297,0.133-0.297,0.297v2.756c0,0.164,0.133,0.299,0.297,0.299
		h9.025c0.164,0,0.297-0.135,0.297-0.299v-2.756c0-0.164-0.133-0.297-0.297-0.297h-2.855v-14.389l10.014,17.809
		c0.053,0.094,0.15,0.152,0.26,0.152h3.412c0.164,0,0.297-0.135,0.297-0.299v-19.193h2.949c0.164,0,0.297-0.133,0.297-0.297v-2.756
		C212.496,127.961,212.363,127.828,212.199,127.828z"/>
	<path fill="none" d="M169.801,127.48c-3.426,0-6.246,1.117-8.383,3.32c-2.137,2.201-3.221,4.972-3.221,8.234
		c0,2,0.463,3.955,1.377,5.809c0.92,1.865,2.314,3.342,4.148,4.387c1.826,1.039,3.854,1.566,6.029,1.566
		c3.412,0,6.266-1.113,8.482-3.309c2.219-2.195,3.342-5.02,3.342-8.391c0-3.307-1.105-6.098-3.283-8.301
		C176.113,128.596,173.256,127.48,169.801,127.48z M175.436,145.076c-1.467,1.674-3.34,2.51-5.619,2.51
		c-2.303,0-4.16-0.818-5.574-2.455c-1.414-1.635-2.121-3.662-2.121-6.08c0-2.375,0.713-4.359,2.137-5.953
		c1.426-1.594,3.264-2.391,5.512-2.391c2.26,0,4.135,0.81,5.629,2.43c1.492,1.621,2.24,3.603,2.24,5.945
		C177.639,141.406,176.904,143.404,175.436,145.076z"/>
	<path d="M206.961,21.873H76.504c-0.777,0-1.521-0.137-2.217-0.375c-0.752,1.529-1.209,3.178-1.311,4.904h137.512
		c-0.102-1.727-0.559-3.375-1.311-4.904C208.482,21.736,207.738,21.873,206.961,21.873z"/>
	<path d="M76.504,18.699h130.457c1.961,0,3.551-1.51,3.551-3.373v-4.865c0-1.863-1.59-3.373-3.551-3.373H76.504
		c-1.961,0-3.549,1.51-3.549,3.373v4.865C72.955,17.189,74.543,18.699,76.504,18.699z"/>
	<path d="M52.992,253.383c0,12.68,7.492,22.994,16.697,22.994h144.086c9.207,0,16.697-10.314,16.697-22.994v-18.023H52.992V253.383z
		"/>
	<path d="M213.775,29.576H69.689c-9.207,0-16.697,10.315-16.697,22.995v12.901h177.48V52.571
		C230.473,39.892,222.982,29.576,213.775,29.576z"/>
	<path d="M52.992,109.229v1.433V230.6h177.48V110.66v-1.432v-39.62H52.992V109.229z M98.371,130.881
		c0,0.166-0.133,0.297-0.297,0.297h-2.363V147.1h2.363c0.164,0,0.297,0.133,0.297,0.297v2.756c0,0.162-0.133,0.297-0.297,0.297
		h-8.297c-0.164,0-0.297-0.135-0.297-0.297v-2.756c0-0.164,0.133-0.297,0.297-0.297h2.332v-14.637l-7.027,18.018
		c-0.045,0.115-0.154,0.189-0.277,0.189h-0.648c-0.123,0-0.232-0.076-0.277-0.189l-6.945-18.002V147.1h2.125
		c0.164,0,0.297,0.133,0.297,0.297v2.756c0,0.162-0.133,0.297-0.297,0.297h-7.791c-0.164,0-0.297-0.135-0.297-0.297v-2.756
		c0-0.164,0.133-0.297,0.297-0.297h2.348v-15.922h-2.348c-0.164,0-0.297-0.133-0.297-0.297v-2.754c0-0.166,0.133-0.297,0.297-0.297
		h7.537c0.123,0,0.234,0.075,0.277,0.19l5.52,14.376l5.58-14.378c0.043-0.114,0.154-0.188,0.277-0.188h7.617
		c0.164,0,0.297,0.133,0.297,0.297v2.754H98.371z M128.102,150.152c0,0.164-0.133,0.297-0.297,0.297h-8.629
		c-0.164,0-0.297-0.133-0.297-0.297v-2.756c0-0.164,0.133-0.297,0.297-0.297h2.328l-1.443-4.395h-7.506l-1.482,4.395h2.262
		c0.164,0,0.297,0.133,0.297,0.297v2.756c0,0.164-0.133,0.297-0.297,0.297h-8.678c-0.164,0-0.299-0.133-0.299-0.297v-2.756
		c0-0.164,0.135-0.297,0.299-0.297h2.455l5.801-16.189h-2.238c-0.166,0-0.297-0.133-0.297-0.298v-2.485
		c0-0.166,0.133-0.297,0.297-0.297h11.258c0.164,0,0.297,0.133,0.297,0.297v2.485c0,0.165-0.133,0.298-0.297,0.298h-2.328
		l5.945,16.189h2.256c0.166,0,0.297,0.133,0.297,0.297V150.152L128.102,150.152z M148.021,148.881
		c-1.375,1.271-3.096,1.916-5.117,1.916c-1.867,0-3.584-0.613-5.117-1.826v1.182c0,0.164-0.133,0.297-0.297,0.297h-2.754
		c-0.166,0-0.299-0.133-0.299-0.297v-7.996c0-0.164,0.135-0.297,0.299-0.297h2.754c0.164,0,0.297,0.133,0.297,0.297v1.871
		c1.27,2.27,2.865,3.373,4.879,3.373c1.008,0,1.867-0.311,2.559-0.924c0.688-0.609,1.023-1.393,1.023-2.391
		c0-0.955-0.262-1.615-0.799-2.018c-0.58-0.436-1.713-0.879-3.367-1.32c-1.982-0.531-3.477-1.041-4.439-1.518
		c-0.994-0.49-1.799-1.203-2.391-2.116c-0.592-0.916-0.895-2.011-0.895-3.257c0-1.928,0.654-3.491,1.943-4.646
		c1.281-1.148,2.906-1.73,4.83-1.73c1.635,0,3.184,0.48,4.609,1.432v-0.896c0-0.165,0.133-0.299,0.297-0.299h2.691
		c0.164,0,0.299,0.134,0.299,0.299v6.682c0,0.165-0.135,0.299-0.299,0.299h-2.691c-0.164,0-0.297-0.134-0.297-0.299v-1.445
		c-1.074-1.576-2.506-2.342-4.373-2.342c-1.125,0-1.992,0.256-2.576,0.76c-0.582,0.5-0.863,1.076-0.863,1.762
		c0,0.531,0.143,0.984,0.436,1.385c0.293,0.402,0.67,0.701,1.125,0.891c0.492,0.205,1.484,0.498,2.951,0.871
		c1.955,0.51,3.396,0.992,4.287,1.438c0.922,0.46,1.725,1.235,2.383,2.304c0.66,1.066,0.994,2.309,0.994,3.688
		C150.105,145.963,149.404,147.602,148.021,148.881z M178.236,147.49c-2.219,2.193-5.072,3.309-8.482,3.309
		c-2.176,0-4.205-0.527-6.031-1.568c-1.832-1.043-3.229-2.52-4.148-4.387c-0.912-1.854-1.375-3.807-1.375-5.807
		c0-3.265,1.082-6.035,3.219-8.236c2.139-2.202,4.959-3.319,8.383-3.319c3.455,0,6.314,1.116,8.494,3.317
		c2.178,2.203,3.283,4.994,3.283,8.301C181.578,142.471,180.453,145.293,178.236,147.49z M212.496,130.881
		c0,0.166-0.133,0.297-0.297,0.297h-2.949v19.195c0,0.164-0.133,0.297-0.299,0.297h-3.412c-0.107,0-0.205-0.059-0.258-0.152
		l-10.014-17.807V147.1h2.854c0.164,0,0.299,0.133,0.299,0.297v2.756c0,0.162-0.135,0.297-0.299,0.297h-9.025
		c-0.164,0-0.297-0.135-0.297-0.297v-2.756c0-0.164,0.133-0.297,0.297-0.297h2.855v-15.922h-2.855c-0.164,0-0.297-0.133-0.297-0.297
		v-2.754c0-0.166,0.133-0.297,0.297-0.297h7.52c0.107,0,0.207,0.057,0.26,0.15l9.104,16.135v-12.938h-2.82
		c-0.164,0-0.297-0.133-0.297-0.297v-2.754c0-0.166,0.133-0.297,0.297-0.297h9.041c0.164,0,0.297,0.133,0.297,0.297V130.881
		L212.496,130.881z"/>
	<polygon points="116.215,130.612 113.164,139.828 119.447,139.828 116.516,130.612 	"/>
	<path d="M169.768,130.707c-2.248,0-4.086,0.797-5.51,2.392c-1.426,1.594-2.137,3.579-2.137,5.954c0,2.418,0.705,4.443,2.121,6.08
		c1.414,1.637,3.271,2.455,5.574,2.455c2.279,0,4.152-0.838,5.619-2.51c1.469-1.674,2.201-3.672,2.201-5.994
		c0-2.344-0.748-4.326-2.24-5.945C173.904,131.517,172.027,130.707,169.768,130.707z"/>
</g>
</svg>
