<?xml version="1.0" encoding="iso-8859-1"?>
<!-- Generator: Adobe Illustrator 15.1.0, SVG Export Plug-In . SVG Version: 6.00 Build 0)  -->
<!DOCTYPE svg PUBLIC "-//W3C//DTD SVG 1.1//EN" "http://www.w3.org/Graphics/SVG/1.1/DTD/svg11.dtd">
<svg version="1.1" id="Layer_4" xmlns="http://www.w3.org/2000/svg" xmlns:xlink="http://www.w3.org/1999/xlink" x="0px" y="0px"
	 width="283.46px" height="283.46px" viewBox="0 0 283.46 283.46" style="enable-background:new 0 0 283.46 283.46;"
	 xml:space="preserve">
<path d="M271.196,7.084H12.265c-2.861,0-5.181,2.608-5.181,5.827v257.638c0,3.218,2.319,5.826,5.181,5.826h258.931
	c2.861,0,5.18-2.608,5.18-5.826V12.912C276.375,9.693,274.057,7.084,271.196,7.084z M92.124,262.204H21.258V21.256h70.866V262.204z
	 M177.163,262.204h-70.866V21.256h70.866V262.204z M262.204,262.204h-70.869V21.256h70.869V262.204z"/>
<path d="M28.905,92.413h55.571c0.391,0,0.706-0.316,0.706-0.706V56.73v-4.897c0-0.207-0.091-0.393-0.235-0.521L70.811,35.663
	c-0.134-0.148-0.324-0.233-0.524-0.233h-2.758H28.905c-0.39,0-0.706,0.316-0.706,0.706v55.571
	C28.199,92.096,28.516,92.413,28.905,92.413z M69.394,38.137l1.295,1.435l11.778,13.037l1.109,1.229v0.067H70.041
	c-0.357,0-0.647-0.29-0.647-0.648V38.137z"/>
<path d="M113.944,92.413h55.571c0.391,0,0.707-0.316,0.707-0.706V56.73v-4.897c0-0.207-0.092-0.393-0.236-0.521l-14.137-15.648
	c-0.133-0.148-0.324-0.233-0.523-0.233h-2.758h-38.624c-0.39,0-0.706,0.316-0.706,0.706v55.571
	C113.238,92.096,113.555,92.413,113.944,92.413z M154.433,38.137l1.295,1.435l11.777,13.037l1.109,1.229v0.067H155.08
	c-0.357,0-0.646-0.29-0.646-0.648V38.137z"/>
<path d="M198.984,92.413h55.57c0.391,0,0.707-0.316,0.707-0.706V56.73v-4.897c0-0.207-0.092-0.393-0.236-0.521l-14.137-15.648
	c-0.133-0.148-0.324-0.233-0.523-0.233h-2.758h-38.623c-0.391,0-0.707,0.316-0.707,0.706v55.571
	C198.277,92.096,198.593,92.413,198.984,92.413z M239.472,38.137l1.295,1.435l11.777,13.037l1.109,1.229v0.067h-13.535
	c-0.357,0-0.646-0.29-0.646-0.648V38.137z"/>
<path d="M198.984,163.569h55.57c0.391,0,0.707-0.316,0.707-0.706v-34.977v-4.897c0-0.207-0.092-0.393-0.236-0.521l-14.137-15.648
	c-0.133-0.148-0.324-0.233-0.523-0.233h-2.758h-38.623c-0.391,0-0.707,0.316-0.707,0.706v55.571
	C198.277,163.252,198.593,163.569,198.984,163.569z M239.472,109.293l1.295,1.435l11.777,13.037l1.109,1.229v0.067h-13.535
	c-0.357,0-0.646-0.29-0.646-0.648V109.293z"/>
<path d="M198.984,234.725h55.57c0.391,0,0.707-0.316,0.707-0.706v-34.977v-4.897c0-0.207-0.092-0.393-0.236-0.521l-14.137-15.648
	c-0.133-0.148-0.324-0.233-0.523-0.233h-2.758h-38.623c-0.391,0-0.707,0.316-0.707,0.706v55.571
	C198.277,234.409,198.593,234.725,198.984,234.725z M239.472,180.45l1.295,1.435l11.777,13.037l1.109,1.229v0.067h-13.535
	c-0.357,0-0.646-0.29-0.646-0.648V180.45z"/>
<path d="M113.944,163.569h55.571c0.391,0,0.707-0.316,0.707-0.706v-34.977v-4.897c0-0.207-0.092-0.393-0.236-0.521l-14.137-15.648
	c-0.133-0.148-0.324-0.233-0.523-0.233h-2.758h-38.624c-0.39,0-0.706,0.316-0.706,0.706v55.571
	C113.238,163.252,113.555,163.569,113.944,163.569z M154.433,109.293l1.295,1.435l11.777,13.037l1.109,1.229v0.067H155.08
	c-0.357,0-0.646-0.29-0.646-0.648V109.293z"/>
</svg>
