<?xml version="1.0" encoding="utf-8"?>
<!-- Generator: Adobe Illustrator 15.1.0, SVG Export Plug-In . SVG Version: 6.00 Build 0)  -->
<!DOCTYPE svg PUBLIC "-//W3C//DTD SVG 1.1//EN" "http://www.w3.org/Graphics/SVG/1.1/DTD/svg11.dtd">
<svg version="1.1" id="key-8" xmlns="http://www.w3.org/2000/svg" xmlns:xlink="http://www.w3.org/1999/xlink" x="0px" y="0px"
	 width="283.465px" height="283.465px" viewBox="0 0 283.465 283.465" enable-background="new 0 0 283.465 283.465"
	 xml:space="preserve">
<path d="M146.983,276.378c-6.141,0-11.117-4.977-11.117-11.117v-2.605h-24.5c-6.141,0-11.117-4.979-11.117-11.119
	s4.979-11.117,11.117-11.117h24.5v-32.666H95.308c-6.141,0-11.117-4.977-11.117-11.117s4.979-11.117,11.117-11.117h40.559v-75.035
	C112.353,105.374,94.69,84.401,94.69,59.38c0-28.834,23.457-52.293,52.291-52.293s52.293,23.459,52.293,52.293
	c0,25.021-17.662,45.994-41.176,51.104v154.777C158.101,271.401,153.124,276.378,146.983,276.378z M146.983,29.322
	c-16.574,0-30.059,13.483-30.059,30.06c0,16.572,13.484,30.058,30.059,30.058s30.059-13.483,30.059-30.058
	C177.042,42.806,163.558,29.322,146.983,29.322z"/>
</svg>
