<?xml version="1.0" encoding="utf-8"?>
<!-- Generator: Adobe Illustrator 15.1.0, SVG Export Plug-In . SVG Version: 6.00 Build 0)  -->
<!DOCTYPE svg PUBLIC "-//W3C//DTD SVG 1.1//EN" "http://www.w3.org/Graphics/SVG/1.1/DTD/svg11.dtd">
<svg version="1.1" id="Layer_2" xmlns="http://www.w3.org/2000/svg" xmlns:xlink="http://www.w3.org/1999/xlink" x="0px" y="0px"
	 width="283.465px" height="283.465px" viewBox="0 0 283.465 283.465" enable-background="new 0 0 283.465 283.465"
	 xml:space="preserve">
<g>
	<path d="M240.945,63.779H42.52c-19.537,0-35.434,15.896-35.434,35.434v85.039c0,19.544,15.896,35.434,35.434,35.434h198.426
		c19.543,0,35.434-15.89,35.434-35.434v-85.04C276.379,79.675,260.488,63.779,240.945,63.779z M266.122,181.013
		c0,18.063-14.686,32.733-32.734,32.733H50.069c-18.048,0-32.734-14.671-32.734-32.733V102.45c0-18.049,14.687-32.734,32.734-32.734
		h183.317c18.05,0,32.734,14.686,32.734,32.734L266.122,181.013L266.122,181.013z"/>
	<path d="M233.387,73.26H50.069c-16.098,0-29.19,13.094-29.19,29.19v78.563c0,16.097,13.095,29.19,29.19,29.19h183.317
		c16.099,0,29.19-13.094,29.19-29.19V102.45C262.578,86.354,249.485,73.26,233.387,73.26z M141.732,79.122
		c7.834,0,14.173,6.347,14.173,14.173c0,7.827-6.339,14.174-14.173,14.174c-7.827,0-14.173-6.347-14.173-14.174
		S133.905,79.122,141.732,79.122z M141.732,111.26c7.834,0,14.173,6.347,14.173,14.174c0,7.827-6.339,14.173-14.173,14.173
		c-7.827,0-14.173-6.346-14.173-14.173C127.56,117.607,133.905,111.26,141.732,111.26z M141.732,143.4
		c7.834,0,14.173,6.346,14.173,14.166c0,7.834-6.339,14.174-14.173,14.174c-7.827,0-14.173-6.34-14.173-14.174
		C127.56,149.746,133.905,143.4,141.732,143.4z M99.212,79.122c7.827,0,14.173,6.347,14.173,14.173
		c0,7.827-6.346,14.174-14.173,14.174s-14.173-6.347-14.173-14.174S91.385,79.122,99.212,79.122z M99.212,111.26
		c7.827,0,14.173,6.347,14.173,14.174c0,7.827-6.345,14.173-14.173,14.173s-14.173-6.346-14.173-14.173
		C85.039,117.607,91.385,111.26,99.212,111.26z M56.692,203.878c-7.827,0-14.173-6.34-14.173-14.174
		c0-7.82,6.346-14.173,14.173-14.173s14.173,6.353,14.173,14.173C70.866,197.539,64.521,203.878,56.692,203.878z M56.692,171.74
		c-7.827,0-14.173-6.34-14.173-14.174c0-7.82,6.346-14.166,14.173-14.166s14.173,6.346,14.173,14.166
		C70.866,165.4,64.521,171.74,56.692,171.74z M56.692,139.607c-7.827,0-14.173-6.346-14.173-14.173
		c0-7.827,6.346-14.174,14.173-14.174s14.173,6.347,14.173,14.174C70.865,133.261,64.521,139.607,56.692,139.607z M56.692,107.468
		c-7.827,0-14.173-6.347-14.173-14.174c0-7.826,6.346-14.173,14.173-14.173s14.173,6.347,14.173,14.173
		C70.866,101.122,64.521,107.468,56.692,107.468z M85.039,157.566c0-7.82,6.346-14.166,14.173-14.166s14.173,6.346,14.173,14.166
		c0,7.834-6.346,14.174-14.173,14.174S85.039,165.4,85.039,157.566z M184.252,193.456h-85.04c-3.917,0-7.087-3.169-7.087-7.086
		s3.17-7.087,7.087-7.087h85.04c3.917,0,7.087,3.17,7.087,7.087S188.169,193.456,184.252,193.456z M184.252,171.74
		c-7.834,0-14.173-6.34-14.173-14.174c0-7.82,6.339-14.166,14.173-14.166s14.174,6.346,14.174,14.166
		C198.425,165.4,192.086,171.74,184.252,171.74z M184.252,139.607c-7.834,0-14.173-6.346-14.173-14.173
		c0-7.827,6.339-14.174,14.173-14.174s14.174,6.347,14.174,14.174C198.426,133.261,192.086,139.607,184.252,139.607z
		 M184.252,107.468c-7.834,0-14.173-6.347-14.173-14.174c0-7.826,6.339-14.173,14.173-14.173s14.174,6.347,14.174,14.173
		C198.425,101.122,192.086,107.468,184.252,107.468z M226.771,203.878c-7.834,0-14.173-6.34-14.173-14.174
		c0-7.82,6.339-14.173,14.173-14.173s14.174,6.353,14.174,14.173C240.945,197.539,234.605,203.878,226.771,203.878z M226.771,171.74
		c-7.834,0-14.173-6.34-14.173-14.174c0-7.82,6.339-14.166,14.173-14.166s14.174,6.346,14.174,14.166
		C240.945,165.4,234.605,171.74,226.771,171.74z M226.771,139.607c-7.834,0-14.173-6.346-14.173-14.173
		c0-7.827,6.339-14.174,14.173-14.174s14.174,6.347,14.174,14.174C240.945,133.261,234.605,139.607,226.771,139.607z
		 M226.771,107.468c-7.834,0-14.173-6.347-14.173-14.174c0-7.826,6.339-14.173,14.173-14.173s14.174,6.347,14.174,14.173
		C240.945,101.122,234.605,107.468,226.771,107.468z"/>
</g>
</svg>
