<?xml version="1.0" encoding="utf-8"?>
<!-- Generator: Adobe Illustrator 15.1.0, SVG Export Plug-In . SVG Version: 6.00 Build 0)  -->
<!DOCTYPE svg PUBLIC "-//W3C//DTD SVG 1.1//EN" "http://www.w3.org/Graphics/SVG/1.1/DTD/svg11.dtd">
<svg version="1.1" id="Layer_5" xmlns="http://www.w3.org/2000/svg" xmlns:xlink="http://www.w3.org/1999/xlink" x="0px" y="0px"
	 width="283.46px" height="283.46px" viewBox="0 0 283.46 283.46" enable-background="new 0 0 283.46 283.46" xml:space="preserve">
<g>
	<rect x="66.353" y="95.988" fill="none" width="9.165" height="8.455"/>
	<rect x="57.686" y="127.476" fill="none" width="10.626" height="9.678"/>
	<rect x="57.686" y="143.362" fill="none" width="10.626" height="9.676"/>
	<rect x="57.686" y="159.245" fill="none" width="10.626" height="9.679"/>
	<rect x="57.686" y="111.591" fill="none" width="10.626" height="9.679"/>
	<rect x="71.301" y="111.591" fill="none" width="10.626" height="9.679"/>
	<rect x="71.301" y="159.245" fill="none" width="10.626" height="9.679"/>
	<rect x="71.301" y="143.362" fill="none" width="10.626" height="9.676"/>
	<rect x="71.301" y="127.476" fill="none" width="10.626" height="9.678"/>
	<rect x="30.456" y="111.591" fill="none" width="10.626" height="9.679"/>
	<rect x="44.071" y="175.129" fill="none" width="10.626" height="9.679"/>
	<rect x="30.456" y="175.129" fill="none" width="10.626" height="9.679"/>
	<rect x="27.202" y="95.988" fill="none" width="9.166" height="8.455"/>
	<rect x="44.071" y="143.362" fill="none" width="10.626" height="9.676"/>
	<polygon fill="none" points="30.456,159.245 30.456,168.923 43.27,168.923 54.697,168.923 54.697,159.245 43.27,159.245 	"/>
	<rect x="40.252" y="95.988" fill="none" width="9.165" height="8.455"/>
	<rect x="30.456" y="127.476" fill="none" width="10.626" height="9.678"/>
	<rect x="53.302" y="95.988" fill="none" width="9.166" height="8.455"/>
	<rect x="79.403" y="95.988" fill="none" width="9.166" height="8.455"/>
	<rect x="30.456" y="143.362" fill="none" width="10.626" height="9.676"/>
	<rect x="118.553" y="95.988" fill="none" width="9.165" height="8.455"/>
	<rect x="131.603" y="95.988" fill="none" width="9.166" height="8.455"/>
	<rect x="112.148" y="127.476" fill="none" width="10.626" height="9.678"/>
	<rect x="112.148" y="159.245" fill="none" width="10.626" height="9.679"/>
	<rect x="112.148" y="143.362" fill="none" width="10.626" height="9.676"/>
	<rect x="44.071" y="127.476" fill="none" width="10.626" height="9.678"/>
	<rect x="235.101" y="96.176" fill="none" width="9.166" height="8.456"/>
	<rect x="139.378" y="111.591" fill="none" width="10.622" height="9.679"/>
	<rect x="144.654" y="95.988" fill="none" width="9.166" height="8.455"/>
	<rect x="84.917" y="111.591" fill="none" width="10.626" height="9.679"/>
	<rect x="98.533" y="127.476" fill="none" width="10.626" height="9.678"/>
	<rect x="92.453" y="95.988" fill="none" width="9.166" height="8.455"/>
	<rect x="84.917" y="143.362" fill="none" width="10.626" height="9.676"/>
	<rect x="84.917" y="127.476" fill="none" width="10.626" height="9.678"/>
	<rect x="98.533" y="111.591" fill="none" width="10.626" height="9.679"/>
	<rect x="112.148" y="111.591" fill="none" width="10.626" height="9.679"/>
	<rect x="105.503" y="95.988" fill="none" width="9.165" height="8.455"/>
	<rect x="98.533" y="159.245" fill="none" width="10.626" height="9.679"/>
	<rect x="98.533" y="143.362" fill="none" width="10.626" height="9.676"/>
	<rect x="84.917" y="159.245" fill="none" width="10.626" height="9.679"/>
	<rect x="222.015" y="141.113" fill="none" width="9.457" height="8.724"/>
	<rect x="222.015" y="164.203" fill="none" width="9.457" height="8.724"/>
	<rect x="189.83" y="111.936" fill="none" width="9.458" height="8.724"/>
	<rect x="234.956" y="175.75" fill="none" width="9.458" height="8.724"/>
	<rect x="222.56" y="96.176" fill="none" width="9.165" height="8.456"/>
	<rect x="222.015" y="175.75" fill="none" width="9.457" height="8.724"/>
	<rect x="202.772" y="123.481" fill="none" width="9.456" height="8.725"/>
	<rect x="202.772" y="175.75" fill="none" width="9.456" height="8.724"/>
	<rect x="202.772" y="111.936" fill="none" width="9.456" height="8.724"/>
	<rect x="222.015" y="152.658" fill="none" width="9.457" height="8.725"/>
	<rect x="247.898" y="164.203" fill="none" width="9.455" height="8.724"/>
	<rect x="234.956" y="164.203" fill="none" width="9.458" height="8.724"/>
	<rect x="247.898" y="141.113" fill="none" width="9.455" height="8.724"/>
	<rect x="247.898" y="152.658" fill="none" width="9.455" height="8.725"/>
	<rect x="247.898" y="175.75" fill="none" width="9.455" height="8.724"/>
	<rect x="234.956" y="152.658" fill="none" width="9.458" height="8.725"/>
	<rect x="234.956" y="141.113" fill="none" width="9.458" height="8.724"/>
	<rect x="247.644" y="96.176" fill="none" width="9.166" height="8.456"/>
	<rect x="125.763" y="127.476" fill="none" width="10.626" height="9.678"/>
	<rect x="125.763" y="111.591" fill="none" width="10.626" height="9.679"/>
	<rect x="152.991" y="175.129" fill="none" width="10.625" height="9.679"/>
	<rect x="44.071" y="111.591" fill="none" width="10.626" height="9.679"/>
	<polygon fill="none" points="139.378,159.245 139.377,168.923 150.801,168.923 163.616,168.923 163.616,159.245 150.801,159.245 	
		"/>
	<polygon fill="none" points="149.201,144.376 149.201,142.413 140.178,142.413 140.178,154.052 148.672,154.052 150.801,154.052 
		162.815,154.052 162.815,145.978 150.801,145.978 150,145.978 149.201,145.978 149.201,145.177 	"/>
	<polygon fill="none" points="123.574,175.129 111.347,175.129 109.958,175.129 97.732,175.129 96.343,175.129 84.117,175.129 
		82.728,175.129 70.501,175.129 57.686,175.129 57.686,184.808 70.501,184.808 82.728,184.808 84.117,184.808 96.343,184.808 
		97.732,184.808 109.958,184.808 111.347,184.808 123.574,184.808 124.962,184.808 136.389,184.808 136.389,175.129 
		124.962,175.129 	"/>
	<rect x="189.83" y="123.481" fill="none" width="9.458" height="8.725"/>
	<rect x="125.763" y="159.245" fill="none" width="10.626" height="9.679"/>
	<rect x="125.763" y="143.362" fill="none" width="10.626" height="9.676"/>
	<rect x="139.378" y="175.129" fill="none" width="10.622" height="9.679"/>
	<rect x="176.89" y="123.481" fill="none" width="9.456" height="8.725"/>
	<rect x="176.89" y="175.75" fill="none" width="9.456" height="8.724"/>
	<rect x="176.89" y="111.936" fill="none" width="9.456" height="8.724"/>
	<polygon fill="none" points="139.378,127.476 139.377,137.154 150.801,137.154 163.616,137.154 163.616,127.476 150.801,127.476 	
		"/>
	<rect x="189.83" y="164.204" fill="none" width="9.458" height="8.724"/>
	<rect x="157.704" y="95.988" fill="none" width="9.166" height="8.455"/>
	<rect x="189.83" y="175.75" fill="none" width="9.458" height="8.724"/>
	<rect x="152.991" y="111.591" fill="none" width="10.625" height="9.679"/>
	<path d="M259.067,79.722H102.78H80.692h-22.12H29.628v0.001h-5.235c-9.544-0.001-17.309,7.765-17.309,17.308v89.399
		c0,9.544,7.765,17.308,17.309,17.308h234.675c9.544,0,17.308-7.764,17.308-17.308V97.031
		C276.375,87.488,268.612,79.722,259.067,79.722z M264.566,186.43h-0.002c0,3.031-2.466,5.496-5.497,5.496H24.393
		c-3.031,0-5.497-2.466-5.497-5.496V97.031c0-3.031,2.466-5.497,5.497-5.497h5.235h51.063h22.088h156.288
		c3.031,0,5.498,2.466,5.498,5.497V186.43z"/>
	<path d="M259.068,93.433H102.78H80.692H29.628h-5.235c-1.983,0-3.597,1.613-3.597,3.598v89.399c0,1.983,1.613,3.597,3.597,3.597
		h234.674c1.983,0,3.597-1.613,3.597-3.597v-1.9h0.002V97.031C262.666,95.046,261.051,93.433,259.068,93.433z M235.101,96.176h9.166
		v8.456h-9.166V96.176z M144.654,95.988h9.166v8.455h-9.166V95.988z M150,111.591v9.679h-10.622v-9.679H150z M131.603,95.988h9.166
		v8.455h-9.166V95.988z M118.553,95.988h9.165v8.455h-9.165V95.988z M112.148,153.038v-9.676h10.626v9.676H112.148z
		 M122.774,159.245v9.679h-10.626v-9.679H122.774z M112.148,137.154v-9.678h10.626v9.678H112.148z M112.148,121.27v-9.679h10.626
		v9.679H112.148z M105.503,95.988h9.165v8.455h-9.165V95.988z M109.159,111.591v9.679H98.533v-9.679H109.159z M98.533,153.038
		v-9.676h10.626v9.676H98.533z M109.159,159.245v9.679H98.533v-9.679H109.159z M98.533,137.154v-9.678h10.626v9.678H98.533z
		 M92.453,95.988h9.166v8.455h-9.166V95.988z M84.917,153.038v-9.676h10.626v9.676H84.917z M95.542,159.245v9.679H84.917v-9.679
		H95.542z M84.917,137.154v-9.678h10.626v9.678H84.917z M84.917,121.27v-9.679h10.626v9.679H84.917z M79.403,95.988h9.166v8.455
		h-9.166V95.988z M71.301,153.038v-9.676h10.626v9.676H71.301z M81.927,159.245v9.679H71.301v-9.679H81.927z M71.301,137.154v-9.678
		h10.626v9.678H71.301z M71.301,121.27v-9.679h10.626v9.679H71.301z M66.353,95.988h9.165v8.455h-9.165V95.988z M57.686,153.038
		v-9.676h10.626v9.676H57.686z M68.312,159.245v9.679H57.686v-9.679H68.312z M57.686,137.154v-9.678h10.626v9.678H57.686z
		 M57.686,121.27v-9.679h10.626v9.679H57.686z M53.302,95.988h9.166v8.455h-9.166V95.988z M40.252,95.988h9.165v8.455h-9.165V95.988
		z M30.456,137.154v-9.678h10.626v9.678H30.456z M41.082,143.362v9.676H30.456v-9.676H41.082z M30.456,121.27v-9.679h10.626v9.679
		H30.456z M27.202,95.988h9.166v8.455h-9.166V95.988z M41.082,184.808H30.456v-9.679h10.626V184.808z M54.697,184.808H44.071v-9.679
		h10.626V184.808z M54.697,168.923H43.27H30.456v-9.679H43.27h11.427V168.923z M54.697,153.038H44.071v-9.676h10.626V153.038z
		 M54.697,137.154H44.071v-9.678h10.626V137.154z M54.697,121.27H44.071v-9.679h10.626V121.27z M136.389,184.808h-11.427h-1.389
		h-12.227h-1.389H97.732h-1.389H84.117h-1.389H70.501H57.686v-9.679h12.815h12.227h1.389h12.227h1.389h12.227h1.389h12.227h1.389
		h11.427V184.808z M136.389,168.923h-10.626v-9.679h10.626V168.923z M136.389,153.038h-10.626v-9.676h10.626V153.038z
		 M136.389,137.154h-10.626v-9.678h10.626V137.154z M136.389,121.27h-10.626v-9.679h10.626V121.27z M150,184.808h-10.622v-9.679H150
		V184.808z M163.616,184.808h-10.625v-9.679h10.625V184.808z M163.616,168.923h-12.814h-11.424l0.001-9.679h11.423h12.814V168.923z
		 M150,145.978h0.801h12.014v8.074h-12.014h-2.129h-8.494v-11.64h9.022v1.964v0.801v0.801H150z M163.616,137.154h-12.814h-11.424
		l0.001-9.678h11.423h12.814V137.154z M163.616,121.27h-10.625v-9.679h10.625V121.27z M166.87,104.443h-9.166v-8.455h9.166V104.443z
		 M186.346,184.474h-9.456v-8.724h9.456V184.474z M186.346,132.206h-9.456v-8.725h9.456V132.206z M186.346,120.66h-9.456v-8.724
		h9.456V120.66z M199.288,184.474h-9.458v-8.724h9.458V184.474z M199.288,172.927h-9.458v-8.724h9.458V172.927z M199.288,132.206
		h-9.458v-8.725h9.458V132.206z M199.288,120.66h-9.458v-8.724h9.458V120.66z M212.228,184.474h-9.456v-8.724h9.456V184.474z
		 M212.228,132.206h-9.456v-8.725h9.456V132.206z M212.228,120.66h-9.456v-8.724h9.456V120.66z M231.472,184.473h-9.457v-8.724
		h9.457V184.473z M231.472,172.926h-9.457v-8.724h9.457V172.926z M231.472,161.382h-9.457v-8.725h9.457V161.382z M231.472,149.836
		h-9.457v-8.724h9.457V149.836z M231.725,104.632h-9.165v-8.456h9.165V104.632z M244.414,184.473h-9.458v-8.724h9.458V184.473z
		 M244.414,172.926h-9.458v-8.724h9.458V172.926z M244.414,161.382h-9.458v-8.725h9.458V161.382z M244.414,149.836h-9.458v-8.724
		h9.458V149.836z M247.644,96.176h9.166v8.456h-9.166V96.176z M257.353,184.473h-9.455v-8.724h9.455V184.473z M257.353,172.926
		h-9.455v-8.724h9.455V172.926z M257.353,161.382h-9.455v-8.725h9.455V161.382z M257.353,149.836h-9.455v-8.724h9.455V149.836z"/>
</g>
</svg>
