<?xml version="1.0" encoding="utf-8"?>
<!-- Generator: Adobe Illustrator 15.1.0, SVG Export Plug-In . SVG Version: 6.00 Build 0)  -->
<!DOCTYPE svg PUBLIC "-//W3C//DTD SVG 1.1//EN" "http://www.w3.org/Graphics/SVG/1.1/DTD/svg11.dtd">
<svg version="1.1" id="Layer_4" xmlns="http://www.w3.org/2000/svg" xmlns:xlink="http://www.w3.org/1999/xlink" x="0px" y="0px"
	 width="283.46px" height="283.46px" viewBox="0 0 283.46 283.46" enable-background="new 0 0 283.46 283.46" xml:space="preserve">
<g>
	<g>
		<path d="M86.229,42.445c11.84-11.026,27.288-17.1,43.499-17.1c10.103,0,20.082,2.391,28.988,6.93l-10.033,11.669l47.766,9.014
			L180.373,7.084L170.14,18.987c-2.668-1.538-5.438-2.93-8.246-4.145c-10.17-4.405-20.992-6.64-32.168-6.64
			c-21.577,0-41.881,8.386-57.174,23.612l-2.373,2.363l14.444,9.762L86.229,42.445z"/>
	</g>
	<g>
		<path d="M84.881,219.145c-15.352-5.107-28.084-15.757-35.852-29.985c-4.839-8.866-7.522-18.77-7.806-28.762l15.049,3.214
			l-14.976-46.226L8.736,153.469l15.349,3.272c-0.071,3.074,0.035,6.171,0.314,9.22c1.006,11.037,4.232,21.606,9.585,31.414
			c10.339,18.938,27.428,32.742,48.121,38.868l3.211,0.95l1.647-17.355L84.881,219.145z"/>
	</g>
	<g>
		<path d="M181.628,219.838l1.646,17.355l3.211-0.95c20.693-6.126,37.781-19.931,48.121-38.868
			c5.354-9.808,8.58-20.377,9.584-31.414c0.279-3.049,0.385-6.146,0.314-9.22l15.35-3.272l-32.561-36.083l-14.977,46.226
			l15.051-3.214c-0.285,9.992-2.969,19.896-7.807,28.762c-7.768,14.229-20.5,24.878-35.854,29.985L181.628,219.838z"/>
	</g>
	<g>
		<path d="M172.814,169.272c-9.023,3.93-20.973,6.095-33.648,6.095c-12.675,0-24.624-2.165-33.648-6.095
			c-5.569-2.427-9.647-5.343-12.241-8.714v11.72c3.75,9.562,22.867,16.838,45.889,16.838c24.228,0,44.132-8.059,46.349-18.357
			v-10.827C182.957,163.57,178.726,166.696,172.814,169.272z"/>
		<path d="M172.814,151.293c-9.023,3.929-20.973,6.092-33.648,6.092c-12.675,0-24.624-2.163-33.648-6.092
			c-5.569-2.428-9.647-5.344-12.241-8.715v11.721c3.75,9.561,22.867,16.838,45.889,16.838c24.228,0,44.132-8.06,46.349-18.357
			v-10.827C182.957,145.589,178.726,148.716,172.814,151.293z"/>
		<path d="M172.814,133.314c-9.023,3.929-20.973,6.093-33.648,6.093c-12.675,0-24.624-2.164-33.648-6.093
			c-5.569-2.427-9.647-5.343-12.241-8.715v11.721c3.75,9.561,22.867,16.838,45.889,16.838c24.228,0,44.132-8.059,46.349-18.358
			v-10.826C182.957,127.612,178.726,130.739,172.814,133.314z"/>
		<path d="M185.373,106.407c0.008-0.164,0.014-0.328,0.014-0.494c0-10.873-20.734-19.721-46.221-19.721
			c-23.616,0-43.149,7.597-45.889,17.364v14.996c3.75,9.561,22.867,16.837,45.889,16.837c24.229,0,44.131-8.059,46.35-18.357
			v-10.827C185.466,106.272,185.421,106.34,185.373,106.407z"/>
	</g>
	<g transform="matrix(.07991 0 0 .07991 546.18 750.15)">
		<path id="_x30_" d="M-4714.566-6464.476c-3.178-4.118-7.284-6.648-12.514-7.442l-108.814-16.645
			c-5.939-19.028-14.127-38.422-24.417-58.256c7.186-9.923,17.891-23.879,32.141-41.966c14.274-18.014,24.393-31.2,30.332-39.51
			c3.177-4.412,4.766-8.897,4.766-13.675c0-5.572-1.369-9.923-4.18-13.113c-14.274-20.25-46.977-53.894-98.133-101.078
			c-4.791-3.972-9.703-6.013-14.836-6.013c-6.013,0-10.706,1.821-14.323,5.365l-84.446,63.683
			c-16.278-8.335-34.096-15.716-53.558-22.071l-16.638-109.425c-0.354-5.206-2.683-9.398-6.801-12.808
			c-4.191-3.385-9.043-5.047-14.628-5.047h-132.046c-11.518,0-18.606,5.561-21.423,16.645
			c-5.139,19.81-10.925,56.716-17.219,110.635c-18.679,5.939-36.693,13.455-54.132,22.584l-82.124-63.622
			c-5.139-3.972-10.278-6-15.423-6c-8.75,0-27.497,14.176-56.215,42.541c-28.737,28.365-48.272,49.727-58.623,63.976
			c-3.544,5.133-5.347,9.703-5.347,13.675c0,4.778,1.949,9.471,5.933,14.262c26.55,32.128,47.753,59.479,63.676,82.124
			c-9.917,18.172-17.659,36.467-23.231,54.712l-110.574,16.633c-4.412,0.807-8.176,3.324-11.353,7.735
			c-3.11,4.351-4.705,8.909-4.705,13.7v132.045c0,5.133,1.595,9.765,4.705,13.98c3.177,4.18,7.308,6.648,12.514,7.443
			l108.832,16.058c5.573,19.394,13.675,39.07,24.387,58.843c-7.088,9.899-17.8,23.867-32.128,41.893
			c-14.256,18.086-24.387,31.249-30.32,39.583c-3.177,4.338-4.772,8.896-4.772,13.675c0,5.133,1.442,9.704,4.192,13.663
			c15.49,21.435,48.193,54.786,98.121,99.941c4.345,4.412,9.349,6.575,14.909,6.575c5.939,0,10.858-1.796,14.849-5.34l83.853-63.683
			c16.284,8.31,34.164,15.691,53.552,22.071l16.645,109.4c0.44,5.145,2.676,9.41,6.868,12.808c4.125,3.41,8.976,5.071,14.555,5.071
			h132.046c11.524,0,18.679-5.56,21.429-16.645c5.139-19.822,10.925-56.717,17.219-110.635
			c18.686-5.939,36.748-13.467,54.199-22.584l82.05,64.269c5.597,3.544,10.73,5.267,15.496,5.267
			c8.677,0,27.35-14.029,55.849-42.186c28.596-28.145,48.199-49.567,58.831-64.245c3.617-3.984,5.377-8.542,5.377-13.687
			c0-5.145-1.955-10.131-5.939-14.897c-28.523-34.878-49.788-62.24-63.597-82.063c7.87-14.702,15.618-32.715,23.146-54.126
			l110.06-16.632c4.717-0.807,8.677-3.41,11.854-7.76c3.202-4.338,4.791-8.884,4.791-13.675v-132.058
			c0-5.145-1.589-9.837-4.791-13.968 M-5058.997-6278.072c-29.739,29.745-65.638,44.655-107.671,44.655
			c-42.04,0-77.932-14.91-107.671-44.655c-29.758-29.733-44.582-65.552-44.582-107.604c0-42.04,14.824-77.932,44.582-107.665
			c29.739-29.746,65.632-44.655,107.671-44.655c42.033,0,77.932,14.909,107.671,44.655c29.746,29.733,44.582,65.625,44.582,107.665
			C-5014.416-6343.624-5029.251-6307.805-5058.997-6278.072"/>
	</g>
	<g>
		<path d="M53.061,61.272c0.581,0.101,1.102,0.019,1.43-0.434c0.588-0.803,0.842-1.43,0.874-1.935
			c0.032-0.543-0.224-0.891-0.475-1.098L53.061,61.272z"/>
		<path d="M51.071,56.685c-0.328-0.46-0.984-0.695-1.985-0.695c-0.382,0-0.681,0.045-0.901,0.137
			c-0.136,0.057-0.232,0.125-0.282,0.225c-0.104,0.207-0.039,0.474,0.074,0.771c0.286,0.724,0.957,1.559,1.776,2.294
			c0.171,0.157,0.354,0.311,0.539,0.456c0.492-0.636,0.823-1.29,0.952-1.896C51.349,57.484,51.317,57.031,51.071,56.685z"/>
		<path d="M43.467,55.99c-0.992,0-1.597,0.184-1.872,0.59c-0.125,0.18-0.165,0.401-0.15,0.64c0.018,0.384,0.16,0.81,0.381,1.248
			c0.349,0.693,0.884,1.409,1.505,2.043c0.377-0.41,0.681-0.845,0.909-1.278C45.085,57.636,44.979,55.99,43.467,55.99z"/>
		<path d="M39.018,57.147c-0.17-0.526-0.553-0.884-1.159-0.884c-0.873,0-1.461,0.271-1.789,0.738
			c-0.557,0.79-0.406,2.017,0.107,3.113c0.299,0.623,0.727,1.22,1.247,1.668c0.803-0.785,1.327-1.761,1.566-2.691
			C39.17,58.375,39.192,57.686,39.018,57.147z"/>
		<path d="M32.369,56.452c-0.121-0.145-0.342-0.185-0.667-0.188c-0.559-0.012-0.955,0.083-1.201,0.304
			c-0.274,0.242-0.317,0.626-0.257,1.058c0.082,0.593,0.371,1.268,0.792,1.926c0.125-0.163,0.25-0.331,0.364-0.496
			c0.485-0.704,0.855-1.382,0.995-1.947C32.462,56.838,32.498,56.606,32.369,56.452z"/>
		<path d="M40.372,34.194c-14.383,0-26.06,11.677-26.06,26.06c0,14.385,11.677,26.061,26.06,26.061
			c14.386,0,26.061-11.676,26.061-26.061C66.433,45.871,54.758,34.194,40.372,34.194z M55.41,61.512
			c-0.609,0.834-1.55,1.076-2.63,0.866c-0.089-0.015-0.178-0.036-0.268-0.061l-9.503,18.025c-0.146,0.277-0.493,0.385-0.771,0.238
			c-0.278-0.146-0.385-0.492-0.235-0.771l9.429-17.893c-0.324-0.153-0.648-0.335-0.97-0.538c-0.784,0.787-1.774,1.508-2.93,2.039
			c-0.72,0.335-1.708,0.186-2.731-0.357c-0.484-0.26-0.98-0.599-1.454-0.997c-0.639,0.53-1.398,0.997-2.282,1.365
			c-1.301,0.538-2.535,0.367-3.565-0.214c-0.076,0.057-0.146,0.107-0.225,0.16c-1.098,0.741-2.403,0.667-3.662,0.071
			c-0.944-0.449-1.864-1.201-2.624-2.063c-0.471,0.521-0.97,1.02-1.467,1.458L38.882,79.8c0.154,0.278,0.054,0.624-0.225,0.777
			c-0.274,0.15-0.62,0.051-0.773-0.224c0,0-5.771-10.464-9.259-16.777c-0.754,0.56-1.463,0.935-2.003,1.044
			c-0.292,0.057-0.565-0.025-0.802-0.274c-0.223-0.238-0.432-0.748-0.565-1.43c-0.422-2.153-0.365-6.266-0.365-6.266
			c0.003-0.259,0.18-0.481,0.431-0.544c0.25-0.062,0.511,0.053,0.636,0.277l3,5.435c0.451-0.414,0.9-0.87,1.322-1.349
			c-0.135-0.195-0.264-0.392-0.378-0.592c-0.79-1.361-1.037-2.746-0.576-3.629c0.349-0.671,1.089-1.151,2.397-1.128
			c0.987,0.02,1.508,0.419,1.736,0.953c0.25,0.6,0.085,1.524-0.46,2.55c-0.317,0.597-0.759,1.244-1.266,1.882
			c0.792,0.935,1.794,1.743,2.809,2.093c0.685,0.235,1.377,0.257,1.983-0.1c-0.57-0.531-1.045-1.19-1.376-1.9
			c-0.707-1.496-0.771-3.173-0.015-4.251c0.506-0.724,1.38-1.227,2.724-1.227c1.693,0,2.545,1.412,2.402,3.253
			c-0.1,1.305-0.72,2.824-1.847,4.025c0.667,0.271,1.419,0.306,2.214-0.021c0.716-0.3,1.341-0.674,1.872-1.095
			c-0.695-0.717-1.301-1.522-1.693-2.305c-0.582-1.158-0.674-2.273-0.156-3.039c0.424-0.623,1.291-1.089,2.816-1.089
			c0.895,0,1.537,0.351,1.94,0.897c0.517,0.696,0.641,1.769,0.289,2.941c-0.257,0.848-0.764,1.756-1.52,2.587
			c0.382,0.307,0.774,0.574,1.159,0.777c0.648,0.346,1.259,0.545,1.718,0.331c0.959-0.442,1.801-1.03,2.474-1.672
			c-0.549-0.436-1.054-0.917-1.482-1.41c-0.595-0.694-1.035-1.408-1.22-2.029c-0.138-0.467-0.143-0.895-0.017-1.253
			c0.225-0.646,0.887-1.171,2.277-1.171c1.498,0,2.424,0.486,2.913,1.173c0.417,0.588,0.539,1.351,0.361,2.19
			c-0.157,0.729-0.549,1.529-1.141,2.304c0.246,0.149,0.496,0.285,0.745,0.396c0,0,1.708-3.427,2.196-4.163
			c0.143-0.216,0.132-0.49,0.727-0.26c0.036,0.016,0.114,0.046,0.213,0.098c0.4,0.202,1.177,0.735,1.366,1.755
			C56.597,59.079,56.433,60.118,55.41,61.512z"/>
		<path d="M26.545,63.351c0.013,0.032,0.028,0.068,0.044,0.101c0.416-0.139,0.92-0.456,1.462-0.87l0.018-0.014
			c-1.206-2.189-2.026-3.676-2.026-3.68C26.082,60.46,26.203,62.442,26.545,63.351z"/>
		<path d="M49.506,94.645l-19.248,6.671c-0.773,0.267-1.184,1.111-0.914,1.885c0.267,0.774,1.112,1.184,1.883,0.917l19.248-6.671
			c0.774-0.267,1.183-1.112,0.917-1.886C51.125,94.788,50.28,94.377,49.506,94.645z"/>
		<path d="M31.239,91.113l4.264-1.477c0.773-0.268,1.184-1.112,0.915-1.886c-0.268-0.773-1.112-1.185-1.884-0.916l-4.264,1.479
			c-0.773,0.267-1.184,1.112-0.915,1.883C29.623,90.97,30.467,91.379,31.239,91.113z"/>
		<path d="M49.506,90.306l-19.248,6.671c-0.773,0.267-1.184,1.112-0.914,1.882c0.267,0.773,1.112,1.184,1.883,0.916l19.248-6.671
			c0.774-0.266,1.183-1.111,0.917-1.885C51.125,90.449,50.28,90.039,49.506,90.306z"/>
		<path d="M49.517,85.99l-19.248,6.669c-0.773,0.269-1.184,1.112-0.915,1.887c0.268,0.773,1.112,1.184,1.885,0.912l19.247-6.666
			c0.773-0.271,1.184-1.112,0.916-1.886C51.136,86.132,50.291,85.722,49.517,85.99z"/>
		<path d="M48.148,104.064l-11.096,3.843c-0.773,0.268-1.184,1.112-0.915,1.886c0.268,0.773,1.112,1.184,1.884,0.916l11.096-3.846
			c0.773-0.269,1.184-1.112,0.916-1.887C49.766,104.207,48.921,103.796,48.148,104.064z"/>
		<path d="M49.506,99.245l-17.105,5.928c-0.773,0.268-1.184,1.112-0.915,1.886c0.268,0.771,1.112,1.18,1.884,0.913l17.105-5.925
			c0.774-0.268,1.183-1.112,0.917-1.886C51.125,99.386,50.28,98.977,49.506,99.245z"/>
	</g>
	<path d="M272.73,98.153c-1.428-3.466-3.547-6.657-6.25-9.358c-2.711-2.702-5.895-4.817-9.359-6.254
		c-3.465-1.436-7.213-2.192-11.043-2.192c0,0,0,0-0.008,0h-0.184c5.203-1.549,9.709-4.74,12.904-8.969
		c3.186-4.215,5.074-9.464,5.074-15.151c0-6.945-2.816-13.233-7.371-17.789s-10.846-7.376-17.789-7.376
		c-6.941,0-13.234,2.821-17.789,7.376c-4.557,4.556-7.379,10.843-7.379,17.789c0,5.687,1.889,10.937,5.076,15.151
		c3.197,4.229,7.699,7.42,12.902,8.969c-3.787,0.012-7.492,0.771-10.924,2.192c-3.467,1.437-6.656,3.548-9.357,6.254
		c-2.707,2.707-4.818,5.893-6.256,9.358c-1.012,2.442-1.68,5.027-1.992,7.682h0.043h71.654h0.041
		C274.412,103.18,273.746,100.595,272.73,98.153z"/>
</g>
</svg>
