<?xml version="1.0" encoding="utf-8"?>
<!-- Generator: Adobe Illustrator 15.1.0, SVG Export Plug-In . SVG Version: 6.00 Build 0)  -->
<!DOCTYPE svg PUBLIC "-//W3C//DTD SVG 1.1//EN" "http://www.w3.org/Graphics/SVG/1.1/DTD/svg11.dtd">
<svg version="1.1" id="Layer_2" xmlns="http://www.w3.org/2000/svg" xmlns:xlink="http://www.w3.org/1999/xlink" x="0px" y="0px"
	 width="283.465px" height="283.465px" viewBox="0 0 283.465 283.465" enable-background="new 0 0 283.465 283.465"
	 xml:space="preserve">
<g>
	<path d="M125.084,122.005c0.816,0.598,1.822,0.946,2.91,0.946c2.658,0,4.822-2.101,4.934-4.729l0.119-0.06l1.664-29.394
		c-1.986,0.239-3.979,0.576-5.975,1.028c-10.918,2.479-20.395,7.862-27.803,15.146l24.104,17.086L125.084,122.005z"/>
	<path d="M112.239,144.216c0.975-0.267,1.883-0.838,2.561-1.688c1.658-2.078,1.365-5.074-0.623-6.801l0.025-0.121l-22.008-19.684
		c-6.531,10.641-9.625,23.401-8.189,36.53l28.209-8.142L112.239,144.216z"/>
	<path d="M150.444,118.126c0.043,1.01,0.398,2.012,1.078,2.861c1.656,2.076,4.65,2.462,6.775,0.91l0.084,0.035l23.947-16.978
		c-9.035-8.847-20.824-14.62-33.572-16.188l1.664,29.347L150.444,118.126z"/>
	<polygon points="133.61,152.86 141.727,156.763 149.823,152.872 151.835,144.132 146.231,137.127 137.213,137.127 131.598,144.12 	
		"/>
	<path d="M191.106,115.935l-21.889,19.588l0.014,0.06c-0.764,0.663-1.326,1.562-1.568,2.622c-0.592,2.59,0.969,5.173,3.508,5.867
		l0.023,0.119l28.354,8.166c0.602-6.117,0.234-12.446-1.221-18.787C196.851,127.153,194.376,121.233,191.106,115.935z"/>
	<path d="M121.852,165.06c-0.518-2.267-2.516-3.812-4.74-3.842c-0.318-0.006-0.646,0.023-0.971,0.084l-0.049-0.062l-28.928,4.909
		c4.465,12.352,12.811,22.418,23.289,29.143l11.207-27.083l-0.084-0.106C121.977,167.174,122.094,166.122,121.852,165.06z"/>
	<path d="M146.075,175.681c-0.479-0.892-1.234-1.636-2.215-2.106c-0.748-0.36-1.535-0.521-2.313-0.491
		c-1.707,0.063-3.324,1.016-4.178,2.609h-0.025l-14.225,25.719c9.844,3.355,20.715,4.105,31.624,1.629
		c1.945-0.441,3.848-0.973,5.699-1.594l-14.262-25.766H146.075z"/>
	<path d="M275.931,170.079l-23.133-100.48c-1.213-5.268-4.777-9.701-9.686-12.045l-93.631-44.707
		c-2.701-1.291-5.688-1.889-8.682-1.736c-2.381,0.119-4.713,0.709-6.861,1.736L40.319,57.578c-4.908,2.344-8.474,6.776-9.688,12.045
		L7.536,170.103c-1.078,4.678-0.201,9.588,2.43,13.613c0.316,0.486,0.656,0.958,1.019,1.412l64.8,80.568
		c3.396,4.225,8.549,6.684,13.996,6.682l103.917-0.023c5.445,0.004,10.598-2.451,13.998-6.67l64.773-80.58
		C275.87,180.88,277.144,175.349,275.931,170.079z M240.317,168.856c-0.684,2.992-3.91,4.811-7.232,4.095
		c-0.023-0.005-0.059-0.007-0.084-0.013c-0.037-0.008-0.07-0.025-0.107-0.035c-0.463-0.102-1.045-0.203-1.449-0.313
		c-1.916-0.513-3.305-1.279-5.027-1.939c-3.709-1.328-6.779-2.439-9.771-2.873c-1.52-0.119-2.295,0.605-3.137,1.162
		c-0.41-0.082-1.67-0.305-2.395-0.42c-5.371,16.875-16.805,31.484-32.305,40.637c0.268,0.646,0.723,2.021,0.934,2.264
		c-0.354,0.945-0.885,1.852-0.432,3.305c1.09,2.822,2.85,5.578,4.971,8.896c1.025,1.533,2.078,2.713,3.004,4.467
		c0.223,0.42,0.518,1.064,0.73,1.508c1.441,3.082,0.385,6.631-2.383,7.963c-2.787,1.344-6.254-0.076-7.746-3.174
		c-0.215-0.438-0.514-1.021-0.693-1.438c-0.795-1.816-1.07-3.377-1.629-5.137c-1.271-3.727-2.316-6.813-3.844-9.422
		c-0.854-1.264-1.902-1.424-2.861-1.736c-0.18-0.307-0.842-1.521-1.197-2.156c-3.096,1.172-6.297,2.146-9.615,2.898
		c-14.539,3.301-29.094,1.963-42.098-3.029l-1.27,2.301c-0.943,0.252-1.855,0.508-2.414,1.176
		c-2.041,2.434-2.855,6.342-4.338,10.064c-0.559,1.762-0.822,3.318-1.617,5.139c-0.18,0.412-0.48,0.986-0.693,1.424
		c-0.002,0.004,0,0.01,0,0.012c-0.002,0.006-0.01,0.008-0.012,0.014c-1.496,3.088-4.951,4.5-7.736,3.16
		c-2.768-1.332-3.822-4.881-2.383-7.963c0.215-0.441,0.498-1.088,0.719-1.508c0.928-1.756,1.979-2.945,3.006-4.479
		c2.121-3.318,3.984-6.297,5.072-9.115c0.271-0.938-0.131-2.221-0.498-3.17l1.018-2.441c-14.916-8.838-26.695-22.924-32.316-40.351
		l-2.441,0.419c-0.655-0.365-1.971-1.234-3.221-1.138c-2.992,0.435-6.063,1.544-9.771,2.874c-1.723,0.66-3.112,1.414-5.029,1.928
		c-0.404,0.107-0.984,0.223-1.449,0.323c-0.037,0.01-0.07,0.026-0.106,0.036c-0.025,0.005-0.06,0.006-0.085,0.012
		c-3.322,0.716-6.549-1.104-7.231-4.096c-0.683-2.99,1.438-6.025,4.742-6.824c0.024-0.005,0.058-0.018,0.083-0.023
		c0.018-0.004,0.032-0.009,0.048-0.012c0.47-0.109,1.068-0.268,1.497-0.348c1.95-0.369,3.537-0.278,5.376-0.432
		c3.917-0.41,7.162-0.744,10.045-1.652c0.914-0.375,1.788-1.631,2.407-2.43l2.348-0.684c-2.631-18.21,1.819-36.082,11.434-50.551
		l-1.795-1.604c-0.114-0.699-0.266-2.316-1.125-3.232c-2.205-2.069-4.982-3.786-8.334-5.855c-1.59-0.936-3.049-1.54-4.646-2.718
		c-0.339-0.25-0.792-0.634-1.161-0.935c-0.027-0.021-0.057-0.037-0.084-0.06c-2.688-2.144-3.306-5.842-1.377-8.262
		c1.085-1.361,2.744-2.035,4.467-1.976c1.34,0.045,2.727,0.535,3.902,1.473c0.382,0.302,0.902,0.699,1.245,0.994
		c1.504,1.293,2.421,2.572,3.688,3.914c2.764,2.808,5.047,5.138,7.555,6.826c1.316,0.767,2.328,0.457,3.328,0.322
		c0.322,0.238,1.406,1.016,2.023,1.438c9.539-10.119,22.064-17.614,36.613-20.918c3.383-0.768,6.768-1.276,10.131-1.555l0.131-2.371
		c0.746-0.723,1.584-1.762,1.82-2.897c0.244-3.013-0.15-6.255-0.623-10.165c-0.26-1.827-0.693-3.346-0.766-5.328
		c-0.016-0.407,0.006-0.971,0.012-1.438c-0.002-0.051-0.012-0.103-0.012-0.154c0-3.439,2.508-6.227,5.604-6.227
		c3.094,0,5.602,2.787,5.604,6.227c0.002,0.486,0.027,1.141,0.012,1.592c-0.074,1.982-0.506,3.501-0.768,5.328
		c-0.471,3.91-0.877,7.152-0.635,10.165c0.223,1.508,1.104,2.104,1.832,2.802c0.018,0.406,0.082,1.756,0.133,2.502
		c17.814,1.583,34.361,9.73,46.516,22.475l2.131-1.521c0.725,0.043,2.314,0.262,3.4-0.371c2.508-1.688,4.793-4.029,7.557-6.836
		c1.266-1.343,2.193-2.621,3.699-3.916c0.344-0.295,0.861-0.689,1.244-0.994c2.688-2.145,6.428-1.916,8.357,0.504
		s1.311,6.116-1.377,8.26c-0.379,0.306-0.873,0.728-1.232,0.994c-1.598,1.18-3.066,1.782-4.658,2.719
		c-3.352,2.07-6.129,3.785-8.334,5.854c-1.039,1.113-0.961,2.167-1.053,3.173c-0.313,0.286-1.406,1.256-1.988,1.784
		c4.83,7.188,8.451,15.349,10.502,24.271c2.029,8.838,2.346,17.674,1.172,26.162l2.266,0.658c0.404,0.575,1.24,1.975,2.418,2.43
		c2.883,0.908,6.127,1.242,10.045,1.652c1.84,0.152,3.426,0.063,5.377,0.432c0.467,0.088,1.146,0.273,1.627,0.383
		C238.878,162.829,240.999,165.865,240.317,168.856z"/>
	<path d="M167.255,161.181c-0.373-0.068-0.754-0.104-1.137-0.084c-0.639,0.032-1.279,0.196-1.893,0.491
		c-2.395,1.152-3.436,3.988-2.395,6.405l-0.037,0.048l11.328,27.358c10.918-6.955,19.09-17.348,23.359-29.346l-29.18-4.934
		L167.255,161.181z"/>
</g>
</svg>
