<?xml version="1.0" encoding="utf-8"?>
<!-- Generator: Adobe Illustrator 15.1.0, SVG Export Plug-In . SVG Version: 6.00 Build 0)  -->
<!DOCTYPE svg PUBLIC "-//W3C//DTD SVG 1.1//EN" "http://www.w3.org/Graphics/SVG/1.1/DTD/svg11.dtd">
<svg version="1.1" id="Layer_2" xmlns="http://www.w3.org/2000/svg" xmlns:xlink="http://www.w3.org/1999/xlink" x="0px" y="0px"
	 width="283.465px" height="283.465px" viewBox="0 0 283.465 283.465" enable-background="new 0 0 283.465 283.465"
	 xml:space="preserve">
<g>
	<path d="M104.641,192.318c0.138,0.254,0.171,0.541,0.063,0.832c-0.958,2.592-1.364,3.69-1.601,4.158l0.057,0.021
		c-0.06,0.164-0.167,0.318-0.306,0.456h1.03c-0.208-0.284-0.267-0.63-0.148-0.97c0.906-2.582,1.293-3.689,1.526-4.164l-0.059-0.021
		c0.039-0.11,0.103-0.215,0.179-0.313H104.641L104.641,192.318z"/>
	<path d="M59.634,191.5c-0.021,0.025-0.053,0.041-0.077,0.064h0.684c-0.032-0.074-0.075-0.146-0.087-0.228
		c-0.035-0.226,0.032-0.446,0.153-0.653L59.634,191.5z"/>
	<path d="M188.971,186.859c0.021,0.033,0.053,0.063,0.068,0.098c0.001,0,1.761,3.646,1.796,3.721
		c0.146,0.299,0.133,0.613-0.007,0.889h0.74c-0.057-0.069-0.127-0.135-0.166-0.209l-1.871-3.729
		c-0.129-0.258-0.133-0.522-0.043-0.769H188.971L188.971,186.859z"/>
	<path d="M176.348,186.859c0.032,0.056,0.076,0.106,0.098,0.166c0.027,0.076,1.289,3.662,1.313,3.729
		c0.103,0.282,0.066,0.563-0.067,0.81h0.74c-0.068-0.09-0.132-0.184-0.17-0.283l-1.387-3.731c-0.086-0.235-0.075-0.474,0.01-0.69
		H176.348L176.348,186.859z"/>
	<path d="M118.049,193.064l-1,4.182c-0.046,0.195-0.157,0.379-0.311,0.54h1.042c-0.196-0.257-0.274-0.567-0.205-0.884l0.921-4.182
		c0.031-0.144,0.096-0.277,0.186-0.402h-0.751C118.062,192.546,118.113,192.803,118.049,193.064z"/>
	<path d="M75.732,203.521l2.728-4.728c0.072-0.126,0.176-0.243,0.3-0.353h-1.104c-0.032,0-0.06-0.006-0.091-0.006
		c0.233,0.342,0.254,0.75,0.026,1.131l-2.824,4.729c-0.118,0.197-0.318,0.368-0.551,0.521h1.638
		C75.522,204.441,75.478,203.957,75.732,203.521z"/>
	<path d="M164.997,204.063l-1.003-4.729c-0.067-0.322,0.009-0.634,0.21-0.893h-1.222c0.164,0.175,0.281,0.373,0.322,0.588
		l0.908,4.729c0.075,0.394-0.066,0.769-0.376,1.06h1.663C165.236,204.605,165.059,204.348,164.997,204.063z"/>
	<path d="M180.428,204.816c-0.248-0.188-0.429-0.418-0.515-0.666c0,0-1.603-4.66-1.624-4.725c-0.12-0.347-0.057-0.695,0.154-0.984
		h-1.215c0.151,0.15,0.267,0.32,0.324,0.502c0,0,1.502,4.646,1.525,4.721c0.136,0.416,0.018,0.837-0.301,1.152H180.428z"/>
	<path d="M201.6,186.859c0.006,0.01,0.02,0.018,0.024,0.027c0.001,0,2.237,3.648,2.284,3.723c0.131,0.211,0.183,0.445,0.15,0.679
		c-0.016,0.101-0.066,0.188-0.109,0.276h0.734c-0.043-0.047-0.101-0.09-0.133-0.141l-2.359-3.73
		c-0.133-0.211-0.186-0.445-0.149-0.678c0.009-0.058,0.046-0.104,0.063-0.156H201.6L201.6,186.859z"/>
	<path d="M209.768,204.301l0.006-0.004c-0.391-0.578-2.362-3.586-2.822-4.754l-0.051,0.031c-0.232-0.379-0.215-0.788,0.014-1.133
		h-1.189c0.123,0.106,0.228,0.223,0.301,0.347c1.744,2.976,2.465,4.202,2.705,4.765l0.065-0.039c0.261,0.44,0.218,0.928-0.112,1.303
		c-0.002,0-0.002,0-0.002,0.002h1.639C210.086,204.666,209.887,204.497,209.768,204.301z"/>
	<path d="M90.587,203.592l2.107-4.727c0.068-0.153,0.176-0.295,0.313-0.424h-1.206c0.221,0.313,0.267,0.688,0.099,1.055
		l-2.204,4.729c-0.106,0.229-0.309,0.422-0.554,0.592h1.667C90.482,204.477,90.396,204.021,90.587,203.592z"/>
	<path d="M143.762,212.762c-0.391-0.281-0.607-0.662-0.613-1.072l-0.098-5.381c-0.004-0.363,0.164-0.691,0.463-0.951h-1.762
		c0.295,0.258,0.469,0.59,0.467,0.94l-0.012,5.38c0,0.416-0.214,0.799-0.602,1.081c-0.052,0.037-0.114,0.066-0.171,0.101h2.494
		C143.873,212.826,143.813,212.798,143.762,212.762z"/>
	<path d="M105.447,203.675l1.486-4.729c0.059-0.184,0.172-0.354,0.323-0.504h-1.216c0.21,0.285,0.274,0.633,0.16,0.976l-1.58,4.728
		c-0.085,0.252-0.265,0.484-0.514,0.674h1.649C105.435,204.5,105.317,204.092,105.447,203.675z"/>
	<path d="M127.723,212.738c-0.376-0.301-0.564-0.719-0.516-1.149l0.612-5.381c0.036-0.321,0.216-0.616,0.501-0.851h-1.758
		c0.307,0.279,0.462,0.648,0.411,1.035l-0.722,5.383c-0.051,0.388-0.294,0.744-0.685,1.002c-0.045,0.031-0.099,0.054-0.148,0.08
		h2.493C127.848,212.818,127.779,212.783,127.723,212.738z"/>
	<path d="M214.232,186.859c0.033,0.045,0.107,0.145,0.219,0.293c-0.002-0.077-0.02-0.153-0.001-0.23
		c0.006-0.023,0.022-0.04,0.028-0.063H214.232z"/>
	<path d="M120.318,203.766l0.862-4.728c0.041-0.22,0.156-0.42,0.321-0.597h-1.223c0.202,0.258,0.28,0.567,0.215,0.888l-0.957,4.728
		c-0.061,0.287-0.239,0.549-0.503,0.762h1.662C120.389,204.527,120.246,204.152,120.318,203.766z"/>
	<path d="M184.412,192.318c0.072,0.09,0.15,0.177,0.189,0.273l1.728,4.186c0.146,0.352,0.096,0.711-0.118,1.009h1.023
		c-0.133-0.127-0.234-0.269-0.299-0.416c0,0-1.765-4.091-1.803-4.179c-0.131-0.303-0.109-0.605,0.031-0.873H184.412z"/>
	<path d="M171.137,192.318c0.082,0.113,0.145,0.232,0.18,0.361l1.181,4.18c0.093,0.326,0.026,0.656-0.175,0.927h1.031
		c-0.146-0.149-0.256-0.317-0.311-0.498l-1.26-4.183c-0.084-0.275-0.04-0.547,0.094-0.787H171.137z"/>
	<path d="M135.199,203.861c0.145-2.853,0.21-4.137,0.317-4.719l-0.078-0.004c0.012-0.252,0.124-0.492,0.305-0.697h-1.236
		c0.19,0.229,0.29,0.5,0.271,0.785c-0.204,2.861-0.295,4.146-0.415,4.724l0.077,0.006c-0.022,0.326-0.194,0.623-0.475,0.86h1.67
		C135.343,204.557,135.179,204.221,135.199,203.861z"/>
	<path d="M197.721,192.318c0.057,0.066,0.127,0.129,0.166,0.201l2.271,4.185c0.201,0.368,0.172,0.757-0.051,1.082h1.018
		c-0.118-0.104-0.221-0.22-0.29-0.343c-1.501-2.67-2.097-3.732-2.303-4.209l-0.048,0.025c-0.176-0.313-0.182-0.648-0.035-0.941
		H197.721z"/>
	<path d="M125.988,187.414l-0.637,3.729c-0.026,0.149-0.092,0.291-0.183,0.424h0.745c-0.121-0.203-0.17-0.434-0.134-0.67
		c0.354-2.336,0.499-3.297,0.603-3.717l-0.039-0.005c0.016-0.11,0.066-0.214,0.119-0.315h-0.548
		C125.99,187.034,126.021,187.223,125.988,187.414z"/>
	<path d="M78.159,192.624c0.025,0.229-0.03,0.461-0.159,0.667c-1.698,2.695-2.36,3.746-2.681,4.154l0.044,0.029
		c-0.07,0.11-0.172,0.213-0.285,0.312H76c0.033,0,0.063,0.006,0.095,0.007c-0.228-0.341-0.247-0.745-0.019-1.121l2.559-4.188
		c0.037-0.06,0.101-0.109,0.15-0.166h-0.716C78.114,192.416,78.146,192.518,78.159,192.624z"/>
	<path d="M211.754,192.318h-0.721c0.043,0.048,0.101,0.088,0.134,0.139l2.819,4.186c0.254,0.379,0.25,0.793,0.022,1.145h1.019
		c-0.104-0.086-0.213-0.171-0.291-0.285l-2.896-4.182c-0.178-0.256-0.237-0.553-0.165-0.838
		C211.691,192.424,211.729,192.374,211.754,192.318z"/>
	<path d="M221.075,199.629c-0.183-0.247-0.259-0.525-0.218-0.809c0.021-0.137,0.068-0.264,0.14-0.379h-1.031
		c0.11,0.09,0.214,0.185,0.288,0.285l3.396,4.729c0.183,0.256,0.259,0.538,0.22,0.817c-0.024,0.205-0.132,0.384-0.271,0.543h1.493
		c-0.194-0.119-0.39-0.264-0.534-0.461L221.075,199.629z"/>
	<path d="M150.091,203.964l-0.382-4.728c-0.023-0.289,0.075-0.563,0.268-0.795h-1.234c0.179,0.203,0.291,0.438,0.307,0.688
		l0.286,4.729c0.022,0.357-0.14,0.697-0.435,0.961h1.668C150.288,204.582,150.116,204.287,150.091,203.964z"/>
	<path d="M91.352,193.229c-1.32,2.645-1.857,3.719-2.138,4.154l0.05,0.025c-0.067,0.135-0.169,0.262-0.295,0.378h1.021
		c-0.217-0.313-0.257-0.688-0.083-1.05l2.011-4.184c0.041-0.084,0.116-0.156,0.18-0.234h-0.743
		C91.498,192.602,91.507,192.923,91.352,193.229z"/>
	<path d="M227.93,197.786h0.979c-0.095-0.073-0.194-0.142-0.271-0.233l-2.324-2.822l1.494,1.858
		c0.246,0.308,0.273,0.603,0.254,0.795C228.049,197.525,228.002,197.662,227.93,197.786z"/>
	<path d="M217.174,191.072c0.012,0.104,0.025,0.207,0.004,0.313c-0.016,0.065-0.055,0.12-0.08,0.182h0.479
		c-0.028-0.03-0.069-0.057-0.094-0.088L217.174,191.072z"/>
	<path d="M195.379,204.816c-0.179-0.125-0.338-0.262-0.443-0.418l-0.023-0.012l-0.075-0.156c-1.459-3.071-2.019-4.246-2.196-4.752
		l-0.049,0.023c-0.174-0.365-0.129-0.746,0.094-1.061h-1.203c0.136,0.127,0.242,0.266,0.311,0.416l-0.008,0.004
		c0.107,0.217,0.373,0.799,1.148,2.504c0.506,1.109,0.991,2.179,1.01,2.217c0.197,0.434,0.113,0.889-0.213,1.234H195.379
		L195.379,204.816z"/>
	<path d="M131.386,192.964l-0.455,4.187c-0.024,0.23-0.136,0.447-0.305,0.637h1.056c-0.188-0.229-0.283-0.501-0.258-0.786
		l0.376-4.185c0.016-0.178,0.093-0.342,0.197-0.496h-0.764C131.354,192.516,131.41,192.736,131.386,192.964z"/>
	<path d="M157.82,192.318c0.099,0.141,0.171,0.289,0.195,0.453c0,0,0.625,4.121,0.635,4.179c0.047,0.303-0.039,0.593-0.232,0.836
		h1.051c-0.16-0.175-0.271-0.374-0.31-0.591l-0.716-4.18c-0.043-0.246,0.016-0.484,0.142-0.697H157.82z"/>
	<path d="M144.51,192.318c0.112,0.17,0.192,0.354,0.196,0.553l0.091,4.182c0.008,0.266-0.096,0.518-0.277,0.733h1.06
		c-0.177-0.202-0.284-0.437-0.295-0.687l-0.171-4.185c-0.006-0.216,0.074-0.414,0.191-0.597H144.51L144.51,192.318z"/>
	<path d="M225.039,192.318h-0.688c0.029,0.031,0.069,0.052,0.098,0.086l0.691,0.861c-0.144-0.217-0.221-0.453-0.19-0.69
		C224.96,192.484,225.003,192.402,225.039,192.318z"/>
	<path d="M207.887,212.818c-0.396-0.205-0.693-0.476-0.857-0.777l-2.936-5.382c-0.24-0.442-0.188-0.927,0.143-1.296
		c0.002-0.002,0.006-0.004,0.008-0.006h-1.739c0.251,0.17,0.461,0.359,0.577,0.58l2.824,5.383c0.146,0.279,0.184,0.578,0.105,0.863
		c-0.07,0.256-0.23,0.485-0.466,0.662c-0.007,0.004-0.015,0.008-0.021,0.012h2.472C207.962,212.842,207.92,212.836,207.887,212.818z
		"/>
	<path d="M218.492,186.021h0.496l-0.596-0.725c0.115,0.209,0.176,0.434,0.127,0.659C218.516,185.98,218.498,185.999,218.492,186.021
		z"/>
	<path d="M159.104,211.788l-0.808-5.382c-0.06-0.391,0.095-0.764,0.406-1.049h-1.759c0.283,0.229,0.466,0.521,0.506,0.84
		l0.697,5.381c0.057,0.432-0.129,0.854-0.506,1.158c-0.058,0.045-0.127,0.082-0.19,0.121h2.491
		c-0.049-0.025-0.103-0.049-0.146-0.078C159.406,212.521,159.161,212.17,159.104,211.788z"/>
	<path d="M60.664,204.273c-0.039-0.278,0.036-0.562,0.216-0.813l3.348-4.726c0.075-0.104,0.18-0.2,0.292-0.293h-0.806
		c-0.161,0-0.3-0.029-0.445-0.053c0.09,0.129,0.158,0.271,0.182,0.426c0.031,0.193,0.02,0.494-0.213,0.813l-3.445,4.727
		c-0.127,0.172-0.322,0.324-0.545,0.465h1.688C60.796,204.658,60.691,204.479,60.664,204.273z"/>
	<path d="M62.194,197.818c-0.078-0.119-0.132-0.252-0.154-0.396c-0.031-0.192-0.02-0.493,0.213-0.81l3.104-4.186
		c0.029-0.039,0.079-0.072,0.114-0.109H64.59c0.031,0.07,0.074,0.139,0.087,0.216c0.035,0.196,0.028,0.497-0.211,0.813
		c0-0.002-3.12,4.092-3.185,4.178c-0.071,0.094-0.17,0.178-0.272,0.261h0.761C61.919,197.786,62.06,197.799,62.194,197.818z"/>
	<path d="M63.462,212.454c-0.202-0.37-0.175-0.806,0.073-1.19l3.45-5.381c0.127-0.197,0.334-0.369,0.576-0.525H65.8
		c0.139,0.156,0.245,0.332,0.279,0.533c0.048,0.28-0.018,0.567-0.19,0.826l-3.561,5.381c-0.186,0.281-0.495,0.533-0.896,0.729
		c-0.027,0.014-0.061,0.019-0.089,0.03h2.5C63.687,212.745,63.551,212.615,63.462,212.454z"/>
	<path d="M113.828,186.859h-0.521c0.083,0.203,0.103,0.426,0.037,0.646l-1.125,3.729c-0.036,0.117-0.099,0.228-0.175,0.33h0.742
		c-0.13-0.231-0.175-0.494-0.098-0.762c0.631-2.234,0.917-3.248,1.109-3.707l-0.057-0.018c0.022-0.079,0.071-0.148,0.112-0.223
		C113.844,186.857,113.836,186.859,113.828,186.859z"/>
	<path d="M62.952,187.16c-0.003,0.086-0.028,0.171-0.055,0.255c0.279-0.347,0.471-0.585,0.487-0.604
		c0.063-0.078,0.145-0.129,0.221-0.19c-0.218,0.082-0.458,0.142-0.708,0.183C62.938,186.914,62.957,187.035,62.952,187.16z"/>
	<path d="M191.048,211.971l-2.228-5.385c-0.18-0.434-0.086-0.889,0.244-1.229h-1.76c0.266,0.189,0.477,0.406,0.572,0.658
		l2.116,5.381c0.179,0.455,0.081,0.922-0.269,1.278c-0.067,0.068-0.15,0.126-0.234,0.183h2.318c0.062,0,0.123,0.01,0.184,0.013
		c-0.045-0.022-0.094-0.04-0.135-0.063C191.473,212.592,191.184,212.294,191.048,211.971z"/>
	<path d="M233.236,181.887h-0.002V51.376H50.228v130.511L7.087,225.027v7.062h269.291v-7.062L233.236,181.887z M55.895,56.509
		h171.673v120.244H55.895V56.509z M228.208,215.883l2.946,4.309c0.302,0.445,0.332,0.938,0.086,1.357
		c-0.28,0.471-0.909,0.751-1.682,0.751h-10.992c-0.633,0-1.311-0.171-1.858-0.469c-0.415-0.224-0.731-0.511-0.914-0.828
		l-2.479-4.308c-0.229-0.396-0.236-0.836-0.022-1.207c0.286-0.494,0.911-0.778,1.716-0.778h10.48c0.603,0,1.259,0.153,1.8,0.425
		C227.693,215.34,228.012,215.598,228.208,215.883z M259.615,215.793l4.023,4.309c0.377,0.401,0.508,0.879,0.358,1.309
		c-0.091,0.266-0.283,0.488-0.554,0.645c-0.283,0.161-0.664,0.246-1.1,0.246h-10.99c-1.092,0-2.379-0.521-2.931-1.189
		c-2.297-2.779-3.19-3.861-3.508-4.348l-0.049,0.041c-0.347-0.418-0.425-0.9-0.216-1.322c0.117-0.234,0.314-0.426,0.572-0.555
		c0.272-0.142,0.637-0.217,1.049-0.217h10.48C257.79,214.71,259.047,215.186,259.615,215.793z M19.826,220.102l5.779-6.188
		c0.488-0.521,1.507-0.943,2.443-1.036c-0.159-0.122-0.292-0.262-0.367-0.433c-0.186-0.424-0.079-0.896,0.294-1.293l5.035-5.381
		c0.423-0.451,1.306-0.815,2.152-0.922c-0.051-0.06-0.108-0.115-0.144-0.185c-0.22-0.415-0.134-0.896,0.232-1.286l4.421-4.727
		c0.362-0.385,1.079-0.688,1.818-0.809c-0.074-0.113-0.135-0.236-0.157-0.371c-0.054-0.326,0.057-0.654,0.313-0.929l3.914-4.185
		c0.307-0.326,0.912-0.592,1.559-0.717c-0.012-0.021-0.033-0.039-0.043-0.063c-0.156-0.359-0.067-0.768,0.237-1.092
		c0,0,3.415-3.647,3.486-3.725c0.27-0.289,0.794-0.52,1.366-0.645c-0.035-0.086-0.077-0.17-0.084-0.266
		c-0.021-0.276,0.083-0.551,0.291-0.771l1.338-1.432c0.215-0.231,0.536-0.383,0.767-0.471c0.417-0.15,0.91-0.236,1.357-0.236h8.423
		c0.568,0,1.043,0.154,1.304,0.424c0.18,0.188,0.272,0.417,0.271,0.664c-0.001,0.119-0.027,0.234-0.071,0.345
		c0.263-0.325,0.443-0.542,0.561-0.666l-0.018-0.015c0.206-0.256,0.524-0.42,0.756-0.51c0.405-0.154,0.892-0.242,1.341-0.242h8.425
		c0.55,0,1.022,0.143,1.294,0.391c0.18,0.165,0.289,0.371,0.316,0.598c0.029,0.233-0.03,0.467-0.169,0.672l-0.984,1.435
		c-0.029,0.042-0.08,0.077-0.117,0.116c0.219-0.057,0.44-0.094,0.671-0.11c-0.021-0.062-0.051-0.12-0.06-0.187
		c-0.032-0.231,0.025-0.469,0.167-0.678c0.524-0.789,0.798-1.201,0.971-1.416l-0.02-0.015c0.121-0.181,0.311-0.343,0.55-0.468
		c0.404-0.209,0.987-0.338,1.525-0.338h8.423c0.534,0,1.002,0.131,1.286,0.359c0.175,0.143,0.296,0.324,0.349,0.528
		c0.063,0.241,0.03,0.487-0.094,0.711l-0.788,1.431c-0.02,0.035-0.054,0.066-0.079,0.102c0.198-0.034,0.4-0.059,0.599-0.059
		c-0.086-0.244-0.079-0.511,0.059-0.77l0.76-1.432c0.111-0.207,0.299-0.389,0.545-0.524c0.388-0.218,0.952-0.349,1.506-0.349h8.423
		c0.652,0,1.206,0.195,1.482,0.523c0.245,0.285,0.305,0.65,0.161,0.999l-0.596,1.433c-0.02,0.049-0.06,0.092-0.088,0.137
		c0.103-0.008,0.206-0.018,0.31-0.018h0.281c-0.082-0.219-0.088-0.457,0.005-0.691l0.567-1.434c0.092-0.232,0.274-0.435,0.526-0.588
		c0.378-0.227,0.937-0.361,1.497-0.361h8.425c0.629,0,1.181,0.181,1.477,0.479c0.258,0.263,0.353,0.608,0.259,0.952l-0.402,1.438
		c-0.021,0.072-0.069,0.139-0.107,0.207c0.011,0,0.021-0.002,0.032-0.002h0.57c-0.077-0.191-0.1-0.397-0.046-0.604l0.372-1.433
		c0.069-0.261,0.242-0.488,0.5-0.658c0.362-0.237,0.917-0.379,1.49-0.379h8.424c0.611,0,1.163,0.166,1.475,0.445
		c0.268,0.242,0.389,0.557,0.344,0.889l-0.209,1.438c-0.017,0.106-0.066,0.204-0.116,0.302h0.601
		c-0.069-0.16-0.098-0.332-0.075-0.509l0.178-1.43c0.036-0.289,0.202-0.552,0.466-0.74c0.34-0.247,0.895-0.396,1.481-0.396h8.423
		c0.597,0,1.148,0.156,1.478,0.418c0.271,0.22,0.416,0.511,0.41,0.822l-0.014,1.428c-0.001,0.143-0.04,0.277-0.1,0.404h0.597
		c-0.061-0.127-0.1-0.264-0.101-0.406l-0.016-1.43c-0.002-0.313,0.144-0.602,0.409-0.816c0.333-0.264,0.885-0.42,1.479-0.42h8.424
		c0.586,0,1.142,0.148,1.483,0.397c0.263,0.188,0.429,0.451,0.462,0.74l0.18,1.425c0.022,0.178-0.006,0.352-0.074,0.51h0.601
		c-0.05-0.097-0.099-0.193-0.114-0.3l-0.209-1.435c-0.05-0.327,0.074-0.654,0.342-0.895c0.313-0.279,0.865-0.445,1.477-0.445h8.423
		c0.571,0,1.128,0.142,1.487,0.375c0.262,0.176,0.439,0.41,0.504,0.668l0.371,1.428c0.054,0.205,0.031,0.412-0.046,0.604h0.6
		c-0.036-0.066-0.084-0.132-0.104-0.205l-0.401-1.434c-0.096-0.342-0.002-0.689,0.257-0.954c0.295-0.301,0.848-0.479,1.477-0.479
		h8.426c0.561,0,1.12,0.135,1.496,0.359c0.257,0.155,0.439,0.359,0.529,0.59l0.564,1.432c0.094,0.234,0.088,0.474,0.006,0.691h0.578
		c-0.023-0.039-0.061-0.076-0.077-0.117l-0.596-1.433c-0.142-0.349-0.083-0.712,0.16-1c0.276-0.327,0.831-0.522,1.481-0.522h8.424
		c0.547,0,1.127,0.134,1.51,0.35c0.244,0.137,0.434,0.316,0.541,0.523l0.761,1.431c0.138,0.258,0.146,0.524,0.06,0.771h0.555
		c-0.01-0.017-0.024-0.029-0.033-0.045l-0.789-1.433c-0.125-0.224-0.156-0.47-0.091-0.713c0.067-0.269,0.265-0.505,0.551-0.657
		c0.272-0.146,0.656-0.227,1.081-0.227h8.424c0.459,0,0.941,0.09,1.327,0.248c0.34,0.138,0.601,0.332,0.75,0.562l0.951,1.429
		c0.139,0.207,0.194,0.44,0.165,0.676c-0.008,0.059-0.045,0.104-0.063,0.16h0.543l-0.969-1.412
		c-0.141-0.205-0.199-0.437-0.173-0.668c0.04-0.317,0.228-0.584,0.528-0.756c0.268-0.154,0.644-0.238,1.084-0.238h8.424
		c0.449,0,0.938,0.088,1.336,0.24c0.24,0.096,0.563,0.26,0.764,0.516l0.01,0.011c0.051,0.063,0.319,0.399,0.584,0.729
		c-0.095-0.191-0.146-0.396-0.104-0.604c0.059-0.268,0.219-0.486,0.466-0.641c0.259-0.162,0.646-0.252,1.087-0.252h8.426
		c0.446,0,0.939,0.086,1.353,0.235c0.233,0.089,0.554,0.239,0.771,0.472l1.34,1.433c0.207,0.222,0.311,0.493,0.289,0.769
		c-0.008,0.109-0.053,0.209-0.097,0.305c0.483,0.123,0.945,0.32,1.209,0.604l3.481,3.728c0.261,0.277,0.311,0.563,0.306,0.75
		c-0.003,0.145-0.041,0.281-0.104,0.406c0.644,0.125,1.244,0.389,1.549,0.715l3.908,4.185c0.26,0.278,0.318,0.556,0.324,0.737
		c0.006,0.205-0.07,0.39-0.182,0.558c0.74,0.121,1.473,0.435,1.826,0.813c2.787,2.984,3.937,4.215,4.341,4.791l0.071-0.066
		c0.365,0.391,0.453,0.872,0.231,1.289c-0.036,0.068-0.093,0.124-0.144,0.184c0.846,0.104,1.728,0.471,2.148,0.922l5.025,5.381
		c0.372,0.397,0.479,0.869,0.29,1.295c-0.108,0.244-0.304,0.441-0.563,0.574c-0.269,0.135-0.621,0.207-1.023,0.207h-28.51
		c-0.588,0-1.225-0.146-1.748-0.402c-0.398-0.194-0.709-0.444-0.897-0.723l-3.637-5.383c-0.175-0.257-0.243-0.543-0.199-0.824
		c0.03-0.203,0.138-0.381,0.276-0.541h-1.57c0.238,0.153,0.445,0.322,0.574,0.518l3.535,5.383c0.256,0.391,0.285,0.826,0.084,1.198
		c-0.267,0.491-0.879,0.774-1.683,0.774h-10.161c0.037,0.018,0.078,0.031,0.114,0.051c0.397,0.209,0.697,0.479,0.867,0.783
		l3.435,6.188c0.229,0.414,0.232,0.87,0.01,1.25c-0.299,0.507-0.94,0.797-1.762,0.797h-11.835c-0.641,0-1.309-0.175-1.831-0.479
		c-0.412-0.241-0.71-0.549-0.859-0.891l-2.723-6.188c-0.199-0.457-0.123-0.93,0.213-1.299c0.072-0.08,0.162-0.149,0.256-0.215
		h-2.383c-0.061,0-0.121-0.009-0.182-0.012c0.051,0.025,0.105,0.046,0.154,0.073c0.396,0.224,0.68,0.517,0.818,0.848l2.598,6.188
		c0.195,0.465,0.119,0.949-0.209,1.33c-0.346,0.408-0.967,0.643-1.701,0.643h-14.864c-0.651,0-1.308-0.182-1.799-0.496
		c-0.401-0.258-0.679-0.604-0.781-0.977l-1.743-6.184c-0.127-0.451,0.006-0.906,0.365-1.244c0.117-0.11,0.266-0.199,0.424-0.278
		c-0.296-0.074-0.574-0.185-0.809-0.326c-0.391-0.233-0.66-0.56-0.76-0.914c0,0-1.495-5.312-1.514-5.377
		c-0.121-0.42,0.006-0.83,0.329-1.146h-1.743c0.268,0.207,0.455,0.465,0.526,0.746c0,0,1.386,5.303,1.405,5.375
		c0.117,0.45-0.023,0.897-0.391,1.229c-0.117,0.106-0.266,0.19-0.425,0.267c0.288,0.077,0.558,0.188,0.786,0.332
		c0.391,0.242,0.657,0.574,0.751,0.936l1.615,6.188c0.12,0.459-0.015,0.924-0.369,1.274c-0.386,0.379-1.013,0.596-1.72,0.596H93.938
		c-0.728,0-1.35-0.229-1.708-0.631c-0.335-0.371-0.426-0.853-0.249-1.317l2.333-6.186c0.127-0.336,0.412-0.645,0.802-0.871
		c0.268-0.154,0.583-0.27,0.913-0.344c-0.147-0.076-0.282-0.164-0.389-0.27c-0.353-0.357-0.456-0.82-0.283-1.275l2.031-5.381
		c0.093-0.248,0.282-0.479,0.539-0.668h-1.729c0.327,0.338,0.426,0.787,0.254,1.221l-2.142,5.381
		c-0.132,0.332-0.411,0.625-0.805,0.848c-0.275,0.156-0.601,0.268-0.941,0.34c0.15,0.08,0.287,0.172,0.394,0.285
		c0.342,0.361,0.435,0.83,0.254,1.287l-2.462,6.188c-0.14,0.353-0.43,0.666-0.839,0.912c-0.516,0.307-1.18,0.482-1.822,0.482H73.227
		c-0.821,0-1.465-0.291-1.768-0.798c-0.225-0.377-0.227-0.829-0.005-1.241l3.314-6.186c0.167-0.309,0.464-0.582,0.861-0.793
		c0.037-0.021,0.079-0.034,0.118-0.053H73.22c0.015,0.01,0.033,0.019,0.047,0.028c0.235,0.185,0.391,0.425,0.452,0.694
		c0.063,0.285,0.017,0.582-0.136,0.854l-3.442,6.188c-0.179,0.322-0.494,0.611-0.91,0.837c-0.542,0.298-1.218,0.469-1.854,0.469
		h-12.21c-0.772,0-1.402-0.278-1.683-0.746c-0.252-0.418-0.225-0.913,0.077-1.358l4.168-6.187c0.191-0.282,0.504-0.538,0.906-0.737
		c0.037-0.018,0.081-0.024,0.119-0.041h-2.552c0.228,0.17,0.397,0.381,0.466,0.641c0.086,0.332,0.014,0.688-0.204,1.001
		l-4.295,6.188c-0.484,0.695-1.736,1.24-2.85,1.24H37.107c-0.429,0-0.809-0.081-1.097-0.234c-0.261-0.14-0.458-0.34-0.572-0.58
		c-0.2-0.433-0.116-0.92,0.228-1.344l5.023-6.188c0.23-0.281,0.611-0.532,1.053-0.725h-2.531c0.139,0.107,0.259,0.23,0.335,0.379
		c0.216,0.42,0.143,0.9-0.205,1.315l-5.149,6.188c-0.556,0.666-1.846,1.188-2.936,1.188H21.119c-0.436,0-0.815-0.085-1.097-0.244
		c-0.271-0.156-0.463-0.38-0.556-0.648C19.32,220.979,19.451,220.503,19.826,220.102z"/>
	<path d="M100.704,186.859c0.086,0.229,0.092,0.479-0.014,0.727l-1.613,3.73c-0.038,0.088-0.101,0.168-0.164,0.248h0.735
		c-0.137-0.258-0.163-0.551-0.042-0.842l1.539-3.729c0.023-0.056,0.066-0.103,0.098-0.153c-0.101,0.01-0.202,0.02-0.305,0.02
		H100.704L100.704,186.859z"/>
	<path d="M79.847,212.857c-0.094-0.065-0.182-0.137-0.252-0.219c-0.323-0.369-0.38-0.861-0.152-1.311l2.742-5.381
		c0.114-0.225,0.324-0.42,0.577-0.592h-1.741c0,0.002,0.002,0.002,0.002,0.002c0.333,0.365,0.393,0.848,0.16,1.291l-2.854,5.383
		c-0.163,0.308-0.458,0.578-0.854,0.785c-0.033,0.019-0.075,0.024-0.109,0.041c0.001,0,0.002,0,0.003,0H79.847L79.847,212.857z"/>
	<path d="M64.62,185.85l-0.203,0.246c-0.057,0.068-0.133,0.113-0.202,0.17c0.238-0.09,0.5-0.149,0.769-0.189
		c-0.036-0.102-0.061-0.207-0.06-0.317c0-0.143,0.045-0.28,0.111-0.415C64.886,185.523,64.734,185.708,64.62,185.85z"/>
	<path d="M88.139,186.963c0.052,0.237,0.015,0.479-0.108,0.696l-2.1,3.729c-0.036,0.063-0.101,0.116-0.152,0.176h0.728
		c-0.141-0.285-0.143-0.61,0.024-0.918c0,0,1.438-2.644,1.89-3.476l-0.001-0.002l0.139-0.252c0.022-0.041,0.061-0.076,0.089-0.114
		c-0.182,0.03-0.367,0.051-0.551,0.053C88.109,186.893,88.131,186.926,88.139,186.963z"/>
	<path d="M111.683,212.713c-0.367-0.324-0.515-0.77-0.406-1.219l1.322-5.383c0.07-0.284,0.257-0.545,0.526-0.754h-1.746
		c0.32,0.313,0.449,0.717,0.34,1.131l-1.433,5.384c-0.094,0.354-0.36,0.683-0.75,0.922c-0.04,0.024-0.086,0.042-0.128,0.063h2.485
		C111.82,212.813,111.745,212.768,111.683,212.713z"/>
	<path d="M151.125,186.859c0.057,0.113,0.104,0.229,0.116,0.354l0.337,3.729c0.021,0.218-0.035,0.43-0.15,0.621h0.754
		c-0.097-0.146-0.168-0.301-0.187-0.467l-0.409-3.729c-0.02-0.179,0.012-0.351,0.083-0.511h-0.544V186.859z"/>
	<path d="M163.73,186.859c0.045,0.082,0.098,0.166,0.117,0.256l0.824,3.732c0.057,0.25,0.018,0.498-0.107,0.717h0.73
		c-0.082-0.114-0.143-0.239-0.175-0.371l-0.897-3.729c-0.05-0.207-0.023-0.414,0.057-0.604H163.73L163.73,186.859z"/>
	<path d="M75.552,187.059c0.021,0.229-0.042,0.459-0.182,0.66l-2.587,3.729c-0.029,0.043-0.08,0.078-0.116,0.117h0.696
		c-0.045-0.101-0.075-0.205-0.085-0.315c-0.019-0.229,0.042-0.457,0.178-0.66l2.516-3.731c0.033-0.049,0.089-0.088,0.131-0.133
		c-0.201,0.051-0.402,0.086-0.615,0.104C75.515,186.902,75.544,186.979,75.552,187.059z"/>
	<path d="M138.528,186.859c0.066,0.144,0.1,0.297,0.092,0.457l-0.148,3.728c-0.009,0.188-0.084,0.36-0.189,0.521h0.783
		c-0.113-0.176-0.19-0.365-0.186-0.569c0.046-2.192,0.068-3.228,0.141-3.724l-0.063-0.002c0.003-0.145,0.043-0.281,0.105-0.41
		H138.528L138.528,186.859z"/>
	<path d="M139.607,185.859c0.454,0,0.778-0.127,0.886-0.213l0.055-1.473c-0.135-0.105-0.445-0.227-0.888-0.227h-8.423
		c-0.42,0-0.759,0.107-0.896,0.207l-0.236,1.482c0.113,0.098,0.417,0.221,0.863,0.221h8.639V185.859z"/>
	<path d="M156.747,185.859h8.64c0.451,0,0.732-0.133,0.791-0.191l-0.359-1.432c-0.004-0.008-0.027-0.039-0.086-0.078
		c-0.153-0.1-0.515-0.211-0.938-0.211h-8.423c-0.449,0-0.739,0.13-0.81,0.191l0.189,1.438
		C155.964,185.746,156.316,185.859,156.747,185.859z"/>
	<path d="M53.1,185.771c0.021,0.016,0.199,0.088,0.531,0.088h8.64c0.339,0,0.717-0.068,1.01-0.185
		c0.216-0.083,0.331-0.175,0.365-0.216l0.021,0.018c0.169-0.252,0.512-0.668,1.153-1.449c-0.013,0.021-0.204-0.08-0.564-0.08h-8.423
		c-0.33,0-0.708,0.066-1.011,0.177c-0.207,0.077-0.335,0.164-0.382,0.214L53.1,185.771z"/>
	<path d="M118.077,185.859h8.642c0.429,0,0.781-0.113,0.926-0.219l0.276-1.498c-0.089-0.065-0.379-0.195-0.829-0.195h-8.424
		c-0.423,0-0.783,0.111-0.939,0.213c-0.057,0.037-0.081,0.072-0.084,0.082l-0.371,1.427
		C117.347,185.729,117.626,185.859,118.077,185.859z"/>
	<path d="M152.497,185.859c0.444,0,0.749-0.125,0.836-0.203l0.051-0.008c-0.054-0.246-0.106-0.674-0.202-1.441
		c-0.195-0.15-0.533-0.26-0.953-0.26h-8.424c-0.441,0-0.753,0.121-0.854,0.201l-0.021,1.457c0.148,0.127,0.473,0.254,0.928,0.254
		H152.497z"/>
	<path d="M220.182,185.676c0.297,0.115,0.676,0.184,1.012,0.184h8.642c0.319,0,0.5-0.065,0.552-0.102l-1.361-1.419
		c-0.047-0.052-0.176-0.138-0.385-0.216c-0.299-0.109-0.677-0.176-1.007-0.176h-8.425c-0.314,0-0.498,0.064-0.557,0.101l1.17,1.412
		C219.855,185.502,219.971,185.594,220.182,185.676z"/>
	<path d="M79.409,185.859h8.641c0.444,0,0.851-0.117,1.057-0.232c0.106-0.061,0.152-0.113,0.161-0.13l0.79-1.435
		c-0.053-0.013-0.269-0.115-0.667-0.115h-8.423c-0.435,0-0.847,0.113-1.063,0.226c-0.108,0.058-0.165,0.113-0.181,0.138
		c-0.038,0.057-0.951,1.431-0.951,1.431C78.8,185.752,79.003,185.859,79.409,185.859z"/>
	<path d="M194.357,185.626c0.207,0.116,0.613,0.233,1.057,0.233h8.641c0.305,0,0.518-0.061,0.605-0.111l-0.92-1.439
		c-0.018-0.025-0.104-0.108-0.293-0.186c-0.268-0.109-0.622-0.176-0.95-0.176h-8.424c-0.3,0-0.513,0.057-0.609,0.109l0.733,1.438
		C194.207,185.514,194.253,185.566,194.357,185.626z"/>
	<path d="M65.935,185.757c0.01,0.001,0.203,0.103,0.585,0.103h8.64c0.335,0,0.702-0.067,0.98-0.182
		c0.202-0.082,0.297-0.174,0.316-0.201l0.982-1.433c-0.048,0.004-0.225-0.097-0.615-0.097h-8.425c-0.327,0-0.693,0.066-0.979,0.175
		c-0.2,0.079-0.308,0.166-0.338,0.205C67.036,184.383,65.935,185.757,65.935,185.757z"/>
	<path d="M181.514,185.632c0.188,0.112,0.574,0.228,1.014,0.228h8.639c0.41,0,0.63-0.104,0.682-0.146l-0.748-1.424
		c-0.01-0.017-0.051-0.065-0.146-0.118c-0.198-0.111-0.59-0.223-1.021-0.223h-8.424c-0.414,0-0.669,0.117-0.721,0.171l0.598,1.399
		C181.391,185.531,181.425,185.578,181.514,185.632z"/>
	<path d="M92.299,185.859h8.64c0.438,0,0.826-0.115,1.016-0.229c0.085-0.052,0.12-0.099,0.126-0.11l0.596-1.433
		c-0.052-0.022-0.306-0.14-0.719-0.14h-8.423c-0.431,0-0.823,0.111-1.019,0.223c-0.099,0.055-0.141,0.105-0.149,0.12l-0.759,1.431
		C91.671,185.754,91.888,185.859,92.299,185.859z"/>
	<path d="M207.322,185.678c0.279,0.113,0.646,0.182,0.98,0.182h8.643c0.322,0,0.515-0.066,0.576-0.105l0.022-0.018
		c-0.205-0.213-0.535-0.625-1.163-1.409c-0.029-0.038-0.135-0.123-0.343-0.206c-0.279-0.105-0.646-0.172-0.974-0.172h-8.424
		c-0.3,0-0.502,0.056-0.584,0.104l0.95,1.424C207.033,185.512,207.13,185.598,207.322,185.678z"/>
	<path d="M105.188,185.859h8.64c0.435,0,0.809-0.116,0.973-0.225c0.067-0.044,0.092-0.08,0.096-0.093l0.4-1.431
		c-0.063-0.041-0.333-0.164-0.771-0.164h-8.425c-0.426,0-0.799,0.109-0.98,0.218c-0.076,0.046-0.108,0.088-0.114,0.101l-0.566,1.432
		C104.544,185.759,104.789,185.859,105.188,185.859z"/>
	<path d="M168.667,185.639c0.16,0.104,0.535,0.221,0.97,0.221h8.641c0.4,0,0.645-0.101,0.717-0.153l-0.536-1.44
		c-0.006-0.013-0.038-0.054-0.114-0.1c-0.179-0.107-0.553-0.217-0.98-0.217h-8.424c-0.438,0-0.707,0.123-0.762,0.18l0.393,1.419
		C168.572,185.555,168.6,185.594,168.667,185.639z"/>
	<path d="M64.165,187.436l-0.045-0.037c-0.287,0.449-1.059,1.408-2.954,3.764c0.065,0.084,0.262,0.158,0.604,0.158h8.786
		c0.355,0,0.748-0.076,1.05-0.204c0.215-0.093,0.326-0.192,0.357-0.237l2.587-3.729c-0.024-0.02-0.225-0.129-0.627-0.129H65.55
		c-0.34,0-0.72,0.07-1.018,0.188C64.33,187.29,64.208,187.381,64.165,187.436z"/>
	<path d="M203.079,187.137l2.315,3.75c0.026,0.043,0.129,0.141,0.334,0.229c0.293,0.127,0.68,0.202,1.033,0.202h8.786
		c0.321,0,0.531-0.063,0.613-0.118l0.086-0.071c-0.372-0.386-1.101-1.363-2.84-3.701c-0.029-0.041-0.138-0.133-0.347-0.219
		c-0.289-0.117-0.666-0.188-1.004-0.188h-8.371C203.38,187.021,203.168,187.083,203.079,187.137z"/>
	<path d="M102.203,187.257c-0.093,0.058-0.127,0.104-0.133,0.119l-1.539,3.728c0.109,0.104,0.359,0.217,0.783,0.217h8.785
		c0.462,0,0.856-0.127,1.042-0.254c0.087-0.059,0.117-0.107,0.121-0.121l1.124-3.729c-0.059-0.054-0.332-0.195-0.792-0.195h-8.369
		C102.782,187.021,102.392,187.141,102.203,187.257z"/>
	<path d="M114.801,187.253c-0.081,0.056-0.098,0.097-0.098,0.097c-0.02,0.067-1.053,3.729-1.053,3.729
		c0.18,0.152,0.471,0.242,0.844,0.242h8.785c0.456,0,0.837-0.129,0.999-0.248c0.065-0.049,0.086-0.09,0.088-0.1l0.637-3.728
		c-0.094-0.085-0.388-0.224-0.85-0.224h-8.369C115.344,187.021,114.974,187.139,114.801,187.253z"/>
	<path d="M140.007,187.238l-0.127,3.779c0.16,0.16,0.498,0.301,0.977,0.301h8.786c0.475,0,0.803-0.141,0.899-0.23l-0.297-3.781
		c-0.199-0.17-0.546-0.285-0.978-0.285h-8.371C140.44,187.021,140.114,187.152,140.007,187.238z"/>
	<path d="M77.121,187.208c-0.197,0.083-0.295,0.172-0.322,0.211l-2.513,3.728c0.028,0.054,0.234,0.174,0.665,0.174h8.785
		c0.355,0,0.735-0.076,1.016-0.202c0.196-0.089,0.288-0.183,0.309-0.22l2.099-3.729c-0.053-0.038-0.271-0.147-0.681-0.147h-8.37
		C77.77,187.021,77.4,187.092,77.121,187.208z"/>
	<path d="M48.587,191.318h8.787c0.356,0,0.761-0.076,1.083-0.205c0.22-0.09,0.354-0.188,0.405-0.25l3.074-3.729
		c-0.006-0.012-0.194-0.112-0.574-0.112h-8.37c-0.639,0-1.303,0.256-1.461,0.424l-0.046-0.043c-0.333,0.449-1.226,1.404-3.443,3.771
		C48.011,191.208,48.176,191.318,48.587,191.318z"/>
	<path d="M177.85,187.182l1.348,3.75c0,0,0.023,0.059,0.138,0.131c0.197,0.129,0.603,0.258,1.065,0.258h8.789
		c0.418,0,0.658-0.109,0.726-0.168l0.081-0.043c-0.258-0.405-0.729-1.381-1.857-3.721c-0.011-0.021-0.051-0.072-0.148-0.13
		c-0.2-0.116-0.604-0.237-1.045-0.237h-8.373C178.168,187.021,177.922,187.125,177.85,187.182z"/>
	<path d="M152.607,187.23l0.381,3.758c0.002,0.008,0.019,0.043,0.074,0.087c0.151,0.116,0.521,0.243,0.976,0.243h8.785
		c0.483,0,0.782-0.148,0.853-0.221l-0.803-3.764c0,0.001,0,0.001,0,0.001c-0.001,0-0.016-0.037-0.085-0.085
		c-0.159-0.111-0.526-0.229-0.961-0.229h-8.372C153.007,187.021,152.697,187.148,152.607,187.23z"/>
	<path d="M230.307,187.021h-14.268c-0.325,0-0.521,0.068-0.587,0.109l2.825,3.739c0.043,0.058,0.17,0.155,0.383,0.243
		c0.313,0.128,0.71,0.205,1.066,0.205h14.978c0.335,0,0.522-0.074,0.575-0.113l-3.514-3.76
		C231.607,187.275,230.947,187.021,230.307,187.021z"/>
	<path d="M127.676,191.318h8.785c0.452,0,0.81-0.125,0.95-0.239l0.211-3.804c-0.141-0.125-0.457-0.254-0.911-0.254h-8.37
		c-0.433,0-0.789,0.115-0.937,0.225c-0.06,0.044-0.072,0.074-0.072,0.074l-0.564,3.729
		C126.889,191.182,127.205,191.318,127.676,191.318z"/>
	<path d="M89.598,187.262c-0.101,0.059-0.151,0.114-0.164,0.139l-0.043-0.023c-0.186,0.447-0.709,1.41-1.982,3.75
		c0.065,0.076,0.289,0.193,0.723,0.193h8.785c0.467,0,0.883-0.131,1.088-0.26c0.102-0.063,0.145-0.119,0.154-0.141l1.612-3.729
		c-0.097-0.069-0.333-0.17-0.735-0.17h-8.37C90.223,187.021,89.81,187.143,89.598,187.262z"/>
	<path d="M165.214,187.221l0.88,3.736c0.004,0.014,0.027,0.059,0.104,0.109c0.179,0.127,0.563,0.252,1.023,0.252h8.785
		c0.426,0,0.68-0.108,0.764-0.174l0.113-0.047c-0.217-0.432-0.566-1.429-1.379-3.734c0,0-0.021-0.049-0.115-0.107
		c-0.183-0.117-0.563-0.234-1.004-0.234h-8.369C165.561,187.021,165.273,187.158,165.214,187.221z"/>
	<path d="M190.441,187.173l1.854,3.733c0.015,0.029,0.093,0.123,0.283,0.211c0.272,0.127,0.647,0.201,1.002,0.201h8.785
		c0.323,0,0.546-0.063,0.646-0.125l0.1-0.067c-0.291-0.377-0.875-1.327-2.34-3.717c-0.019-0.029-0.104-0.118-0.299-0.202
		c-0.271-0.116-0.636-0.186-0.974-0.186h-8.37C190.717,187.021,190.493,187.131,190.441,187.173z"/>
	<path d="M185.363,197.251l0.041-0.093l-1.727-4.186c-0.011-0.025-0.08-0.117-0.261-0.205c-0.254-0.125-0.632-0.203-0.983-0.203
		h-8.854c-0.432,0-0.695,0.113-0.783,0.181l1.203,4.254c0.012,0.038,0.077,0.131,0.246,0.222c0.261,0.139,0.639,0.223,1.011,0.223
		h9.32C185.025,197.441,185.288,197.316,185.363,197.251z"/>
	<path d="M146.165,192.805l0.118,4.254c0.001,0.029,0.044,0.101,0.156,0.17c0.164,0.104,0.498,0.215,0.933,0.215h9.319
		c0.431,0,0.738-0.11,0.871-0.207c0.033-0.021,0.106-0.082,0.1-0.131l0.066-0.012c-0.146-0.519-0.32-1.658-0.701-4.173
		c-0.002-0.012-0.021-0.053-0.09-0.104c-0.156-0.119-0.537-0.25-0.994-0.25h-8.854C146.605,192.564,146.271,192.709,146.165,192.805
		z"/>
	<path d="M235.417,192.564h-8.853c-0.342,0-0.541,0.076-0.604,0.121l3.449,4.231c0.063,0.075,0.213,0.19,0.456,0.293
		c0.346,0.146,0.78,0.231,1.163,0.231h9.318c0.37,0,0.557-0.09,0.598-0.123c0.013-0.016,0-0.047-0.043-0.092l-3.905-4.184
		C236.814,192.85,236.107,192.564,235.417,192.564z"/>
	<path d="M106.282,192.826c-0.09,0.061-0.127,0.115-0.135,0.137c-0.021,0.061-1.467,4.184-1.467,4.184
		c-0.008,0.023-0.015,0.043,0.054,0.101c0.089,0.073,0.358,0.196,0.81,0.196h9.318c0.367,0,0.748-0.086,0.995-0.221
		c0.162-0.091,0.215-0.182,0.221-0.207l1-4.186c0-0.016-0.017-0.044-0.068-0.082c-0.118-0.084-0.399-0.184-0.804-0.184h-8.854
		C106.884,192.564,106.477,192.695,106.282,192.826z"/>
	<path d="M159.512,192.752c-0.051,0.035-0.086,0.074-0.082,0.094l-0.066,0.012c0.156,0.516,0.353,1.654,0.783,4.172
		c0.004,0.025,0.047,0.109,0.197,0.195c0.182,0.105,0.532,0.219,0.971,0.219h9.32c0.426,0,0.715-0.107,0.832-0.199
		c0.08-0.063,0.072-0.094,0.067-0.11l-1.183-4.185c-0.006-0.018-0.033-0.066-0.117-0.125c-0.186-0.129-0.58-0.258-1.045-0.258
		h-8.854C159.93,192.564,159.639,192.666,159.512,192.752z"/>
	<path d="M213.166,197.271l-2.828-4.256c-0.038-0.057-0.154-0.154-0.357-0.244c-0.299-0.129-0.693-0.207-1.055-0.207h-8.854
		c-0.434,0-0.659,0.121-0.709,0.168c0.043,0.125,2.342,4.22,2.342,4.22c0.035,0.062,0.148,0.168,0.352,0.264
		c0.303,0.142,0.709,0.228,1.088,0.228h9.319C212.921,197.441,213.134,197.309,213.166,197.271z"/>
	<path d="M188.15,197.217c0.283,0.143,0.676,0.227,1.05,0.227h9.321c0.461,0,0.691-0.131,0.742-0.182l-2.256-4.265
		c-0.021-0.037-0.111-0.136-0.311-0.226c-0.278-0.129-0.66-0.207-1.02-0.207h-8.854c-0.426,0-0.674,0.113-0.746,0.174l-0.1,0.052
		c0.258,0.438,0.725,1.521,1.873,4.185C187.874,197.02,187.957,197.12,188.15,197.217z"/>
	<path d="M132.87,192.813c-0.059,0.047-0.073,0.082-0.074,0.092l-0.376,4.185c-0.003,0.037,0.043,0.095,0.118,0.146
		c0.141,0.097,0.458,0.209,0.891,0.209h9.32c0.433,0,0.756-0.109,0.915-0.213c0.098-0.063,0.134-0.127,0.133-0.153l-0.091-4.187
		c0-0.014-0.017-0.043-0.062-0.082c-0.113-0.098-0.461-0.242-0.947-0.242h-8.854C133.387,192.564,133.019,192.693,132.87,192.813z"
		/>
	<path d="M42.32,197.314c0.133,0.076,0.326,0.127,0.61,0.127h15.975c0.383,0,0.812-0.086,1.146-0.229
		c0.235-0.103,0.377-0.215,0.432-0.287l0.049,0.037c0.287-0.479,1.093-1.536,3.14-4.221c-0.076-0.101-0.279-0.177-0.623-0.177
		H47.872c-0.691,0-1.399,0.285-1.583,0.48l-3.914,4.184C42.333,197.275,42.32,197.309,42.32,197.314z"/>
	<path d="M118.634,197.238c0.126,0.095,0.424,0.203,0.85,0.203h9.321c0.436,0,0.778-0.11,0.954-0.217
		c0.137-0.082,0.175-0.16,0.177-0.182l0.455-4.186c-0.134-0.148-0.463-0.293-0.939-0.293h-8.854c-0.465,0-0.849,0.127-1.022,0.256
		c-0.076,0.055-0.1,0.1-0.103,0.111l-0.921,4.186C118.549,197.131,118.541,197.169,118.634,197.238z"/>
	<path d="M212.688,192.689l2.871,4.244c0.049,0.069,0.18,0.18,0.404,0.278c0.322,0.144,0.742,0.229,1.123,0.229h9.318
		c0.361,0,0.566-0.084,0.633-0.133l-3.368-4.277c-0.052-0.063-0.187-0.166-0.41-0.258c-0.317-0.131-0.726-0.209-1.089-0.209h-8.854
		C212.993,192.564,212.775,192.633,212.688,192.689z"/>
	<path d="M63.057,197.209c0.096,0.161,0.317,0.232,0.656,0.232h9.32c0.381,0,0.795-0.084,1.107-0.229
		c0.212-0.097,0.336-0.207,0.377-0.271c0.042-0.066,2.636-4.184,2.636-4.184c-0.041-0.074-0.256-0.193-0.685-0.193h-8.853
		c-0.36,0-0.762,0.078-1.073,0.209c-0.213,0.09-0.339,0.19-0.383,0.25L63.057,197.209z"/>
	<path d="M93.104,192.771c-0.192,0.09-0.271,0.188-0.286,0.217l-2.011,4.183c0.096,0.149,0.346,0.272,0.792,0.272h9.32
		c0.375,0,0.76-0.084,1.031-0.226c0.182-0.093,0.257-0.192,0.271-0.231c0.029-0.076,1.545-4.182,1.545-4.182
		c-0.125-0.129-0.379-0.238-0.806-0.238h-8.853C93.75,192.564,93.374,192.643,93.104,192.771z"/>
	<path d="M79.822,192.771c-0.206,0.094-0.306,0.191-0.333,0.234l-2.557,4.186c0.044,0.119,0.271,0.25,0.725,0.25h9.319
		c0.379,0,0.779-0.084,1.069-0.226c0.206-0.101,0.3-0.207,0.324-0.254c0.041-0.081,2.09-4.185,2.09-4.185
		c-0.096-0.112-0.352-0.213-0.744-0.213h-8.853C80.503,192.564,80.114,192.643,79.822,192.771z"/>
	<path d="M222.827,204.205c0.056-0.089,0.039-0.126,0.011-0.166l-3.395-4.727c-0.053-0.071-0.192-0.188-0.424-0.291
		c-0.334-0.147-0.762-0.235-1.145-0.235h-9.396c-0.455,0-0.684,0.134-0.728,0.181c0.056,0.176,2.868,4.813,2.868,4.813
		c0.048,0.08,0.184,0.205,0.416,0.316c0.338,0.164,0.779,0.262,1.186,0.262h9.924C222.506,204.357,222.738,204.275,222.827,204.205z
		"/>
	<path d="M192.998,204.143c0.064-0.063,0.059-0.088,0.034-0.143l0.053-0.023c-0.278-0.471-0.819-1.66-2.203-4.703
		c-0.021-0.047-0.112-0.153-0.315-0.256c-0.287-0.145-0.688-0.23-1.065-0.23h-9.396c-0.455,0-0.728,0.127-0.816,0.201
		c-0.072,0.061-0.064,0.08-0.055,0.111l-0.063,0.021c0.247,0.508,0.669,1.736,1.688,4.705c0.021,0.063,0.113,0.175,0.299,0.277
		c0.289,0.158,0.699,0.254,1.099,0.254h9.923C192.654,204.357,192.923,204.217,192.998,204.143z"/>
	<path d="M241.15,198.786h-18.614c-0.365,0-0.578,0.086-0.646,0.137l-0.012,0.112l3.484,4.729c0.029,0.041,0.152,0.184,0.478,0.334
		c0.36,0.162,0.819,0.26,1.226,0.26h19.658c0.318,0,0.486-0.062,0.545-0.088c0.063-0.029,0.09-0.059,0.099-0.072
		c0.003-0.014-0.011-0.059-0.079-0.133l-4.414-4.729C242.633,199.076,241.844,198.786,241.15,198.786z"/>
	<path d="M35.899,204.191c0.004,0.01,0.022,0.041,0.1,0.078c0.057,0.025,0.226,0.088,0.543,0.088h20.743
		c0.406,0,0.864-0.099,1.226-0.262c0.214-0.1,0.392-0.225,0.473-0.334l3.445-4.727l-0.002-0.001l-0.01-0.112
		c-0.085-0.063-0.306-0.137-0.648-0.137H42.127c-0.69,0-1.48,0.291-1.726,0.552l-4.421,4.728
		C35.911,204.139,35.899,204.184,35.899,204.191z"/>
	<path d="M118.316,204.105c0.159-0.094,0.229-0.194,0.242-0.252l0.956-4.726c0.003-0.015,0.012-0.058-0.088-0.134
		c-0.128-0.096-0.432-0.209-0.862-0.209h-9.396c-0.372,0-0.764,0.088-1.022,0.229c-0.175,0.094-0.244,0.19-0.258,0.233l-1.485,4.726
		c-0.011,0.035-0.024,0.076,0.069,0.157c0.121,0.104,0.422,0.228,0.871,0.228h9.922
		C117.654,204.357,118.057,204.262,118.316,204.105z"/>
	<path d="M207.932,204.152c0.039-0.043,0.049-0.053,0.002-0.131c-0.045-0.078-2.771-4.727-2.771-4.727
		c-0.04-0.068-0.158-0.178-0.368-0.275c-0.311-0.146-0.725-0.233-1.105-0.233h-9.396c-0.448,0-0.7,0.125-0.771,0.19l-0.025,0.104
		c0.043,0.092,1.827,3.85,2.182,4.594l0.063,0.129c0.033,0.069,0.146,0.189,0.355,0.297c0.314,0.162,0.741,0.258,1.144,0.258h9.921
		C207.646,204.357,207.882,204.21,207.932,204.152z"/>
	<path d="M163.128,204.124c0.119-0.095,0.106-0.156,0.104-0.177l-0.908-4.727c-0.008-0.037-0.061-0.123-0.211-0.211
		c-0.188-0.107-0.545-0.225-0.987-0.225h-9.396c-0.434,0-0.75,0.111-0.902,0.216c-0.078,0.054-0.125,0.112-0.122,0.155l0.382,4.727
		c0.004,0.051,0.059,0.141,0.194,0.229c0.184,0.119,0.547,0.246,1.01,0.246h9.921C162.667,204.357,162.988,204.23,163.128,204.124z"
		/>
	<path d="M103.376,204.104c0.184-0.102,0.274-0.213,0.296-0.276l1.58-4.726c0.01-0.031,0.017-0.053-0.057-0.113
		c-0.09-0.075-0.363-0.201-0.82-0.201H94.98c-0.38,0-0.778,0.086-1.065,0.23c-0.198,0.101-0.287,0.207-0.308,0.254l-2.107,4.728
		c-0.023,0.054-0.031,0.078,0.035,0.144c0.077,0.074,0.347,0.217,0.824,0.217h9.922C102.681,204.357,103.09,204.264,103.376,204.104
		z"/>
	<path d="M73.497,204.098c0.232-0.111,0.365-0.236,0.412-0.314l2.824-4.729c-0.046-0.135-0.274-0.269-0.732-0.269h-9.396
		c-0.383,0-0.81,0.088-1.143,0.235c-0.229,0.103-0.367,0.219-0.42,0.293l-3.347,4.725c-0.03,0.041-0.044,0.076-0.041,0.1
		c0.143,0.137,0.377,0.219,0.738,0.219h9.923C72.721,204.357,73.163,204.26,73.497,204.098z"/>
	<path d="M148.191,204.117c0.095-0.067,0.147-0.143,0.145-0.199l-0.286-4.729c-0.002-0.033-0.048-0.108-0.166-0.184
		c-0.17-0.107-0.507-0.221-0.946-0.221h-9.396c-0.438,0-0.773,0.113-0.942,0.22c-0.125,0.079-0.16,0.151-0.161,0.181l-0.24,4.729
		c-0.004,0.062,0.051,0.135,0.146,0.202c0.164,0.115,0.502,0.24,0.962,0.24h9.923C147.689,204.357,148.027,204.232,148.191,204.117z
		"/>
	<path d="M88.437,204.1c0.207-0.105,0.318-0.224,0.353-0.297l2.203-4.727l-0.031-0.098c-0.07-0.066-0.323-0.192-0.773-0.192h-9.396
		c-0.381,0-0.794,0.087-1.103,0.233c-0.209,0.099-0.326,0.209-0.363,0.271l-2.729,4.729c-0.044,0.076-0.034,0.09,0.005,0.133
		c0.072,0.08,0.34,0.203,0.773,0.203H87.3C87.7,204.357,88.125,204.262,88.437,204.1z"/>
	<path d="M133.255,204.111c0.133-0.088,0.185-0.174,0.189-0.227l0.337-4.727c0.002-0.043-0.045-0.104-0.126-0.159
		c-0.152-0.103-0.47-0.214-0.904-0.214h-9.396c-0.443,0-0.798,0.115-0.983,0.224c-0.151,0.089-0.203,0.177-0.209,0.21l-0.862,4.727
		c-0.004,0.021-0.016,0.084,0.106,0.179c0.138,0.106,0.462,0.233,0.918,0.233h9.922C132.71,204.357,133.071,204.23,133.255,204.111z
		"/>
	<path d="M178.063,204.131c0.092-0.078,0.08-0.117,0.066-0.154l0.063-0.021c-0.231-0.505-0.627-1.727-1.59-4.706
		c-0.015-0.042-0.084-0.14-0.262-0.235c-0.261-0.141-0.654-0.228-1.025-0.228h-9.396c-0.43,0-0.73,0.112-0.859,0.209
		c-0.098,0.073-0.088,0.114-0.084,0.133l1.002,4.728c0.01,0.045,0.072,0.149,0.246,0.254c0.258,0.152,0.661,0.248,1.051,0.248h9.924
		C177.615,204.357,177.934,204.244,178.063,204.131z"/>
	<path d="M112.347,211.965c0.138,0.122,0.47,0.266,0.956,0.266h10.608c0.417,0,0.84-0.109,1.104-0.285
		c0.142-0.094,0.233-0.205,0.246-0.299l0.722-5.383c0.003-0.023,0.013-0.1-0.121-0.201c-0.154-0.119-0.482-0.244-0.943-0.244H114.91
		c-0.401,0-0.804,0.097-1.077,0.259c-0.17,0.101-0.249,0.211-0.264,0.274l-1.321,5.381
		C112.238,211.771,112.219,211.852,112.347,211.965z"/>
	<path d="M130.054,205.816c-0.469,0-0.839,0.131-1.03,0.254c-0.145,0.095-0.204,0.191-0.21,0.25l-0.613,5.382
		c-0.009,0.084,0.04,0.17,0.146,0.255c0.166,0.132,0.516,0.271,1.007,0.271h10.608c0.494,0,0.869-0.145,1.056-0.278
		c0.12-0.089,0.189-0.188,0.189-0.272l0.012-5.383c0.001-0.07-0.063-0.154-0.167-0.229c-0.172-0.119-0.522-0.248-0.989-0.248
		h-10.009V205.816z"/>
	<path d="M145.197,205.816c-0.467,0-0.813,0.129-0.983,0.248c-0.049,0.035-0.164,0.129-0.163,0.229l0.098,5.379
		c0,0.087,0.072,0.188,0.197,0.278c0.188,0.135,0.565,0.278,1.061,0.278h10.607c0.488,0,0.838-0.141,1.002-0.271
		c0.104-0.083,0.15-0.167,0.141-0.249l-0.697-5.383c-0.008-0.062-0.068-0.158-0.217-0.253c-0.192-0.125-0.564-0.256-1.036-0.256
		H145.197z"/>
	<path d="M160.341,205.816c-0.461,0-0.792,0.131-0.935,0.242c-0.135,0.104-0.124,0.176-0.121,0.199l0.808,5.383
		c0.013,0.073,0.085,0.191,0.255,0.305c0.266,0.175,0.691,0.283,1.108,0.283h10.606c0.485,0,0.815-0.143,0.951-0.264
		c0.125-0.111,0.104-0.188,0.094-0.23l0.066-0.018c-0.216-0.551-0.572-1.917-1.474-5.363c-0.019-0.065-0.099-0.176-0.271-0.276
		c-0.277-0.163-0.682-0.261-1.084-0.261H160.341z"/>
	<path d="M69.48,205.816c-0.409,0-0.861,0.102-1.21,0.269c-0.305,0.147-0.416,0.296-0.443,0.337l-3.45,5.381
		c-0.07,0.11-0.045,0.156-0.037,0.172c0.048,0.088,0.279,0.256,0.808,0.256h10.609c0.433,0,0.901-0.111,1.253-0.297
		c0.208-0.108,0.371-0.246,0.435-0.369l2.852-5.381c0.042-0.08,0.031-0.103-0.013-0.15c-0.068-0.075-0.321-0.215-0.795-0.215H69.48
		V205.816z"/>
	<path d="M176.033,211.611c0.021,0.082,0.115,0.209,0.313,0.326c0.301,0.184,0.734,0.291,1.161,0.291h10.606
		c0.449,0,0.773-0.127,0.896-0.252c0.082-0.084,0.082-0.142,0.053-0.217l-2.115-5.381c-0.028-0.07-0.131-0.191-0.331-0.302
		c-0.298-0.163-0.72-0.261-1.125-0.261h-10.009c-0.457,0-0.762,0.125-0.885,0.231c-0.105,0.093-0.092,0.146-0.082,0.181
		l-0.072,0.021C174.682,206.813,175.07,208.197,176.033,211.611z"/>
	<path d="M28.599,212.045c0.009,0.021,0.041,0.055,0.104,0.087c0.055,0.028,0.229,0.099,0.568,0.099h30.418
		c0.435,0,0.922-0.112,1.304-0.301c0.23-0.113,0.417-0.256,0.501-0.384l3.562-5.383c0.021-0.03,0.043-0.073,0.038-0.106l0.244-0.477
		l-0.304,0.396c-0.096-0.074-0.338-0.16-0.704-0.16H35.631c-0.739,0-1.607,0.338-1.89,0.64l-5.035,5.381
		C28.626,211.922,28.582,212.008,28.599,212.045z"/>
	<path d="M247.637,205.816h-26.894c-0.364,0-0.604,0.086-0.701,0.16c-0.062,0.11-0.037,0.153-0.017,0.186l3.637,5.382
		c0.087,0.127,0.277,0.271,0.509,0.386c0.388,0.188,0.876,0.301,1.31,0.301h28.504c0.34,0,0.514-0.069,0.572-0.101
		c0.051-0.024,0.088-0.058,0.102-0.087c0.017-0.036-0.026-0.119-0.106-0.205l-5.026-5.382
		C249.242,206.154,248.376,205.816,247.637,205.816z"/>
	<path d="M97.251,212.229h10.607c0.427,0,0.859-0.107,1.157-0.289c0.242-0.147,0.294-0.285,0.304-0.324l1.433-5.383
		c0.009-0.035,0.024-0.09-0.083-0.182c-0.126-0.107-0.438-0.234-0.895-0.234H99.767c-0.404,0-0.823,0.099-1.121,0.263
		c-0.194,0.108-0.294,0.229-0.321,0.299l-2.031,5.382c-0.025,0.065-0.036,0.122,0.057,0.217
		C96.476,212.102,96.803,212.229,97.251,212.229z"/>
	<path d="M84.624,205.816c-0.406,0-0.842,0.101-1.167,0.267c-0.219,0.112-0.341,0.237-0.381,0.317l-2.742,5.381
		c-0.05,0.101-0.036,0.144,0.017,0.203c0.074,0.086,0.344,0.244,0.849,0.244h10.609c0.429,0,0.88-0.108,1.205-0.293
		c0.275-0.156,0.352-0.307,0.369-0.349l2.142-5.381c0.021-0.054,0.03-0.09-0.046-0.163c-0.088-0.085-0.364-0.227-0.846-0.227H84.624
		L84.624,205.816z"/>
	<path d="M204.165,212.229c0.394,0,0.662-0.096,0.782-0.186c0.035-0.025,0.084-0.07,0.099-0.124
		c0.005-0.019,0.017-0.058-0.024-0.136l-2.823-5.381c-0.042-0.078-0.169-0.207-0.392-0.32c-0.328-0.166-0.766-0.266-1.17-0.266
		h-10.012c-0.48,0-0.752,0.141-0.836,0.224c-0.075,0.073-0.066,0.108-0.044,0.161l2.228,5.384c0.018,0.042,0.098,0.192,0.375,0.349
		c0.33,0.186,0.78,0.295,1.211,0.295H204.165z"/>
	<path d="M205.771,205.816c-0.439,0-0.713,0.127-0.789,0.213c-0.041,0.046-0.055,0.066-0.01,0.15l2.936,5.383
		c0.066,0.121,0.23,0.26,0.439,0.367c0.358,0.188,0.83,0.299,1.262,0.299h10.607c0.528,0,0.756-0.162,0.803-0.25
		c0.022-0.041,0.01-0.1-0.041-0.174l-3.533-5.382c-0.073-0.11-0.242-0.237-0.451-0.338c-0.352-0.168-0.807-0.269-1.217-0.269
		H205.771L205.771,205.816z"/>
	<path d="M72.742,214.171c-0.009-0.042-0.04-0.084-0.091-0.124c-0.117-0.091-0.382-0.188-0.776-0.188H60.403
		c-0.438,0-0.932,0.115-1.324,0.31c-0.24,0.119-0.43,0.265-0.521,0.399l-4.169,6.188c-0.116,0.172-0.069,0.249-0.049,0.282
		c0.064,0.106,0.336,0.263,0.827,0.263h12.21c0.465,0,0.979-0.13,1.375-0.347c0.244-0.132,0.431-0.294,0.515-0.445l3.442-6.187
		C72.751,214.244,72.749,214.197,72.742,214.171z"/>
	<path d="M193.038,214.162c-0.336-0.189-0.795-0.305-1.228-0.305h-13.965c-0.488,0-0.814,0.146-0.945,0.27
		c-0.125,0.118-0.103,0.2-0.09,0.245l1.744,6.187c0.036,0.135,0.168,0.281,0.357,0.403c0.329,0.212,0.8,0.338,1.259,0.338h14.864
		c0.479,0,0.818-0.146,0.941-0.292c0.082-0.096,0.096-0.178,0.047-0.294l-2.596-6.187
		C193.378,214.408,193.232,214.271,193.038,214.162z"/>
	<path d="M91.334,213.857H77.37c-0.436,0-0.911,0.115-1.272,0.308c-0.213,0.112-0.381,0.257-0.45,0.384l-3.313,6.186
		c-0.081,0.15-0.035,0.228-0.017,0.256c0.085,0.145,0.375,0.311,0.909,0.311H88.09c0.46,0,0.95-0.128,1.31-0.343
		c0.212-0.127,0.366-0.28,0.422-0.421l2.462-6.188c0.032-0.08,0.034-0.143-0.05-0.23C92.111,213.988,91.785,213.857,91.334,213.857z
		"/>
	<path d="M173.52,214.156c-0.302-0.188-0.736-0.299-1.168-0.299H96.829c-0.433,0-0.885,0.113-1.211,0.303
		c-0.186,0.107-0.324,0.242-0.369,0.359l-2.333,6.187c-0.044,0.114-0.027,0.201,0.058,0.295c0.124,0.14,0.45,0.299,0.964,0.299
		h80.386c0.52,0,0.871-0.166,1.017-0.308c0.132-0.129,0.124-0.233,0.104-0.311l-1.616-6.188
		C173.801,214.387,173.686,214.26,173.52,214.156z"/>
	<path d="M209.704,214.165c-0.365-0.19-0.845-0.308-1.279-0.308h-11.12c-0.512,0-0.793,0.162-0.879,0.256
		c-0.07,0.078-0.08,0.134-0.037,0.228l2.723,6.188c0.062,0.143,0.225,0.298,0.447,0.428c0.369,0.215,0.864,0.344,1.326,0.344h11.836
		c0.53,0,0.815-0.164,0.897-0.305c0.019-0.028,0.063-0.105-0.022-0.258l-3.433-6.188
		C210.093,214.424,209.921,214.279,209.704,214.165z"/>
	<path d="M20.413,221.083c0.015,0.044,0.065,0.08,0.105,0.103c0.06,0.035,0.239,0.114,0.602,0.114h10.139
		c0.87,0,1.841-0.437,2.168-0.827l5.149-6.188c0.056-0.066,0.114-0.157,0.083-0.22c-0.018-0.035-0.063-0.071-0.123-0.102
		c-0.135-0.066-0.351-0.105-0.592-0.105h-9.526c-0.819,0-1.753,0.391-2.08,0.738l-5.779,6.188
		C20.423,220.928,20.396,221.034,20.413,221.083z"/>
	<path d="M227.383,216.447c-0.097-0.141-0.296-0.295-0.544-0.42c-0.399-0.198-0.905-0.317-1.351-0.317h-10.481
		c-0.476,0-0.771,0.142-0.851,0.28c-0.014,0.023-0.047,0.082,0.025,0.207l2.479,4.309c0.087,0.151,0.277,0.313,0.521,0.445
		c0.402,0.219,0.92,0.349,1.385,0.349h10.99c0.488,0,0.76-0.155,0.821-0.261c0.019-0.032,0.065-0.111-0.052-0.284L227.383,216.447z"
		/>
	<path d="M256.755,215.71h-10.479c-0.352,0-0.534,0.075-0.598,0.106c-0.064,0.033-0.109,0.07-0.129,0.108
		c-0.033,0.067,0.03,0.167,0.09,0.238l0.203,0.247c0.749,0.908,3.354,4.063,3.354,4.063c0.324,0.391,1.291,0.826,2.16,0.826h10.99
		c0.362,0,0.543-0.08,0.604-0.113c0.055-0.031,0.093-0.068,0.104-0.104c0.018-0.051-0.011-0.156-0.145-0.299l-4.023-4.309
		C258.546,216.113,257.588,215.71,256.755,215.71z"/>
	<path d="M55.7,214.123c-0.014-0.055-0.071-0.1-0.117-0.126c-0.069-0.042-0.272-0.14-0.674-0.14H43.437
		c-0.789,0-1.691,0.385-1.971,0.728l-5.023,6.187c-0.067,0.084-0.14,0.201-0.098,0.291c0.019,0.041,0.067,0.084,0.136,0.121
		c0.14,0.073,0.368,0.116,0.627,0.116h12.211c0.838,0,1.762-0.429,2.029-0.812l4.295-6.188
		C55.677,214.251,55.714,214.18,55.7,214.123z"/>
</g>
</svg>
