<?xml version="1.0" encoding="utf-8"?>
<!-- Generator: Adobe Illustrator 15.1.0, SVG Export Plug-In . SVG Version: 6.00 Build 0)  -->
<!DOCTYPE svg PUBLIC "-//W3C//DTD SVG 1.1//EN" "http://www.w3.org/Graphics/SVG/1.1/DTD/svg11.dtd">
<svg version="1.1" id="Layer_1" xmlns="http://www.w3.org/2000/svg" xmlns:xlink="http://www.w3.org/1999/xlink" x="0px" y="0px"
	 width="283.465px" height="283.465px" viewBox="0 0 283.465 283.465" enable-background="new 0 0 283.465 283.465"
	 xml:space="preserve">
<g>
	<path fill="none" d="M147.388,32.086c-1.16-2.029-3.318-3.283-5.656-3.283c-2.338,0-4.497,1.254-5.657,3.283L14.46,244.912
		c-1.152,2.018-1.145,4.494,0.021,6.504c1.166,2.008,3.313,3.244,5.636,3.244h243.23c2.322,0,4.469-1.236,5.635-3.244
		c1.164-2.01,1.176-4.486,0.021-6.502L147.388,32.086z M31.343,241.631l110.389-193.18l72.662,127.16h-13.811v-0.227l-6.082,0.227
		h-33.242c-0.02-0.125-0.045-0.247-0.066-0.371l19.127-4.447l-1.24-4.629l-18.783,5.711c-0.186-0.508-0.396-1.002-0.621-1.488
		l34.457-18.227l0.201-0.105l-3.268-5.656l-33.211,20.85c-0.311-0.438-0.637-0.865-0.98-1.274l14.182-13.267l0.164-0.154
		l-3.389-3.389l-13.42,14.346c-0.412-0.346-0.838-0.672-1.277-0.981l20.852-33.21l-5.656-3.266l-18.332,34.656
		c-0.486-0.227-0.98-0.436-1.488-0.621l5.711-18.783l-4.629-1.24l-4.447,19.127c-0.525-0.092-1.059-0.164-1.598-0.214l1.443-38.952
		l0.008-0.227h-6.531l1.451,39.178c-0.539,0.05-1.072,0.122-1.598,0.215l-4.396-18.908l-0.051-0.219l-4.629,1.24l5.709,18.783
		c-0.506,0.186-1,0.396-1.486,0.619l-18.334-34.658l-5.656,3.267l20.85,33.211c-0.438,0.312-0.863,0.638-1.275,0.981l-13.42-14.346
		l-3.389,3.389l14.348,13.42c-0.346,0.41-0.672,0.838-0.981,1.275l-33.021-20.73l-0.191-0.119l-3.266,5.656l34.656,18.332
		c-0.225,0.486-0.435,0.981-0.619,1.488l-18.785-5.711l-1.239,4.629l19.127,4.448c-0.093,0.524-0.165,1.058-0.214,1.597
		l-38.952-1.442l-0.226-0.009v6.531l39.178-1.451c0.05,0.539,0.123,1.07,0.214,1.598l-19.127,4.447l1.239,4.629l18.785-5.711
		c0.186,0.508,0.396,1.002,0.619,1.488L89.33,205.144l-0.199,0.106l3.266,5.655l33.211-20.851c0.311,0.438,0.637,0.863,0.98,1.275
		l-14.183,13.266l-0.164,0.154l3.39,3.389l13.42-14.346c0.412,0.344,0.838,0.67,1.275,0.98l-20.85,33.212l5.656,3.267l18.332-34.656
		c0.486,0.225,0.98,0.435,1.488,0.619l-5.711,18.783l4.629,1.24l4.449-19.127c0.525,0.094,1.057,0.165,1.596,0.215l-1.441,38.951
		l-0.01,0.227h6.533l-1.451-39.178c0.539-0.05,1.07-0.122,1.596-0.214l4.449,19.127L154.22,216l-5.711-18.785
		c0.506-0.186,1-0.396,1.486-0.619l18.229,34.457l0.105,0.199l5.656-3.266l-20.852-33.211c0.439-0.313,0.865-0.639,1.275-0.982
		l13.268,14.184l0.154,0.164l3.389-3.389l-14.346-13.422c0.344-0.41,0.67-0.836,0.98-1.275l33.021,20.73l0.189,0.119l3.266-5.656
		l-34.656-18.332c0.227-0.486,0.436-0.98,0.621-1.488l18.783,5.711l1.24-4.629l-19.129-4.448c0.021-0.124,0.049-0.246,0.068-0.371
		h33.234l5.863,0.218l0.227,0.008v-0.226h17.285l34.25,59.938H31.343V241.631z"/>
	<path d="M200.585,181.691v0.227l-0.225-0.008l-5.865-0.219h-33.234c-0.021,0.125-0.047,0.247-0.066,0.371l19.127,4.447l-1.24,4.631
		l-18.783-5.711c-0.186,0.507-0.396,1.001-0.621,1.486l34.656,18.334l-3.266,5.655l-0.189-0.118l-33.021-20.73
		c-0.311,0.438-0.637,0.863-0.98,1.275l14.346,13.42l-3.389,3.39l-0.154-0.164l-13.268-14.183c-0.41,0.345-0.836,0.67-1.275,0.981
		l20.852,33.211l-5.656,3.267l-0.105-0.199l-18.229-34.459c-0.486,0.226-0.98,0.436-1.486,0.621L154.222,216l-4.629,1.24
		l-4.449-19.127c-0.523,0.092-1.057,0.164-1.596,0.215l1.451,39.178h-6.533l0.01-0.228l1.441-38.95
		c-0.539-0.051-1.07-0.123-1.596-0.216l-4.449,19.127L129.244,216l5.711-18.783c-0.507-0.187-1.002-0.396-1.488-0.62l-18.332,34.655
		l-5.656-3.266l20.85-33.212c-0.438-0.312-0.863-0.637-1.275-0.979l-13.42,14.346l-3.389-3.389l0.164-0.154l14.182-13.268
		c-0.344-0.41-0.67-0.838-0.98-1.274l-33.211,20.851l-3.266-5.656l0.199-0.105l34.457-18.229c-0.225-0.485-0.435-0.979-0.619-1.486
		l-18.784,5.71l-1.24-4.63l19.127-4.446c-0.092-0.526-0.165-1.06-0.214-1.597l-39.178,1.451v-6.531l0.226,0.008l38.952,1.441
		c0.05-0.539,0.122-1.069,0.214-1.596l-19.127-4.447l1.24-4.629l18.784,5.709c0.186-0.506,0.396-1,0.619-1.486l-34.656-18.334
		l3.266-5.655l0.191,0.119l33.021,20.729c0.31-0.438,0.636-0.863,0.981-1.274l-14.348-13.421l3.389-3.389l13.421,14.346
		c0.411-0.344,0.837-0.67,1.274-0.98l-20.85-33.211l5.656-3.266l18.332,34.656c0.486-0.226,0.98-0.436,1.488-0.621l-5.709-18.782
		l4.629-1.24l0.051,0.22l4.396,18.907c0.525-0.093,1.057-0.165,1.596-0.215l-1.451-39.177h6.533l-0.01,0.226l-1.441,38.952
		c0.537,0.05,1.07,0.122,1.596,0.214l4.447-19.127l4.629,1.239l-5.709,18.783c0.506,0.188,1,0.396,1.486,0.621l18.334-34.656
		l5.656,3.267l-20.852,33.21c0.438,0.311,0.865,0.637,1.275,0.98l13.42-14.346l3.389,3.389l-0.162,0.154l-14.182,13.268
		c0.344,0.41,0.67,0.838,0.98,1.275l33.211-20.851l3.266,5.655l-0.199,0.105l-34.457,18.229c0.225,0.486,0.436,0.979,0.619,1.486
		l18.785-5.709l1.24,4.629l-19.127,4.446c0.02,0.124,0.047,0.246,0.064,0.371h33.242l6.082-0.226v0.226h13.811L141.732,48.451
		L31.343,241.631H252.12l-34.252-59.938L200.585,181.691L200.585,181.691z"/>
	<path d="M274.661,241.682L153.046,28.854c-2.32-4.06-6.639-6.565-11.312-6.565c-4.677,0-8.995,2.506-11.314,6.565L8.804,241.682
		c-2.305,4.031-2.288,8.986,0.043,13.004c2.332,4.02,6.625,6.49,11.27,6.49h243.23c4.645,0,8.938-2.473,11.27-6.489
		C276.948,250.668,276.966,245.713,274.661,241.682z M268.981,251.416c-1.166,2.008-3.313,3.244-5.635,3.244H20.117
		c-2.322,0-4.47-1.236-5.636-3.244c-1.166-2.01-1.174-4.486-0.021-6.504L136.075,32.086c1.16-2.029,3.319-3.283,5.657-3.283
		c2.337,0,4.496,1.254,5.656,3.283l121.615,212.828C270.157,246.93,270.146,249.407,268.981,251.416z"/>
</g>
</svg>
