<?xml version="1.0" encoding="utf-8"?>
<!-- Generator: Adobe Illustrator 15.1.0, SVG Export Plug-In . SVG Version: 6.00 Build 0)  -->
<!DOCTYPE svg PUBLIC "-//W3C//DTD SVG 1.1//EN" "http://www.w3.org/Graphics/SVG/1.1/DTD/svg11.dtd">
<svg version="1.1" id="Layer_4" xmlns="http://www.w3.org/2000/svg" xmlns:xlink="http://www.w3.org/1999/xlink" x="0px" y="0px"
	 width="283.465px" height="283.465px" viewBox="0 0 283.465 283.465" enable-background="new 0 0 283.465 283.465"
	 xml:space="preserve">
<g>
	<path d="M189.425,125.598h0.057c-0.414-3.543-1.307-6.991-2.658-10.25c-1.908-4.625-4.734-8.885-8.34-12.487
		c-3.617-3.604-7.867-6.429-12.49-8.345c-4.623-1.917-9.625-2.926-14.734-2.926c0,0,0,0-0.012,0h-0.244
		c6.943-2.067,12.955-6.326,17.219-11.969c4.25-5.625,6.771-12.627,6.771-20.217c0-9.268-3.762-17.658-9.838-23.736
		c-6.076-6.08-14.471-9.843-23.734-9.843s-17.658,3.765-23.738,9.843c-6.078,6.078-9.844,14.467-9.844,23.735
		c0,7.589,2.521,14.593,6.773,20.218c4.266,5.641,10.273,9.9,17.217,11.967c-5.055,0.017-9.998,1.031-14.578,2.926
		c-4.625,1.916-8.879,4.734-12.486,8.346c-3.609,3.611-6.428,7.861-8.344,12.486c-1.352,3.259-2.244,6.709-2.66,10.25h0.059h95.605
		V125.598z"/>
	<path d="M273.718,247.389c-1.906-4.625-4.732-8.883-8.34-12.486c-3.617-3.605-7.865-6.43-12.488-8.344
		c-4.623-1.918-9.627-2.928-14.734-2.928c0,0,0,0-0.012,0h-0.244c6.943-2.066,12.953-6.326,17.219-11.967
		c4.25-5.625,6.77-12.629,6.77-20.217c0-9.27-3.758-17.658-9.836-23.738c-6.078-6.078-14.471-9.842-23.734-9.842
		s-17.658,3.764-23.736,9.842c-6.08,6.08-9.848,14.469-9.848,23.736c0,7.59,2.521,14.594,6.773,20.219
		c4.268,5.641,10.273,9.898,17.217,11.967c-5.055,0.016-9.998,1.031-14.576,2.926c-4.627,1.916-8.881,4.734-12.486,8.346
		c-3.611,3.613-6.43,7.861-8.346,12.486c-1.352,3.258-2.242,6.709-2.658,10.25h0.057h95.609h0.057
		C275.964,254.098,275.071,250.646,273.718,247.389z"/>
	<path d="M91.808,234.902c-3.615-3.605-7.863-6.43-12.488-8.344c-4.623-1.918-9.625-2.928-14.734-2.928c0,0,0,0-0.012,0h-0.244
		c6.943-2.066,12.955-6.326,17.219-11.967c4.25-5.625,6.771-12.629,6.771-20.217c0-9.27-3.76-17.658-9.838-23.738
		c-6.076-6.078-14.471-9.842-23.734-9.842s-17.658,3.764-23.738,9.842c-6.078,6.08-9.846,14.469-9.846,23.736
		c0,7.59,2.521,14.594,6.774,20.219c4.267,5.641,10.272,9.898,17.216,11.967c-5.054,0.016-9.998,1.031-14.576,2.926
		c-4.627,1.916-8.881,4.734-12.488,8.346c-3.609,3.613-6.428,7.861-8.344,12.486c-1.352,3.258-2.244,6.709-2.66,10.25h0.058h95.608
		h0.057c-0.416-3.541-1.307-6.992-2.66-10.25C98.241,242.764,95.415,238.506,91.808,234.902z"/>
	<path d="M203.968,87.32c22.664,0,32.479,9.259,33.764,32.64l-8.928-3.793l12.436,29.474l12.434-29.474l-9.211,3.914
		c-0.65-12.939-3.701-22.095-9.461-28.543c-6.57-7.357-16.721-10.933-31.033-10.933c-1.854,0-3.355,1.503-3.355,3.358
		C200.612,85.818,202.114,87.32,203.968,87.32z"/>
	<path d="M42.001,145.641l12.434-29.474l-8.926,3.793c1.285-23.381,11.1-32.64,33.764-32.64c1.854,0,3.357-1.503,3.357-3.356
		c0-1.854-1.504-3.358-3.357-3.358c-14.311,0-24.461,3.575-31.031,10.933c-5.761,6.449-8.813,15.604-9.462,28.543l-9.21-3.914
		L42.001,145.641z"/>
</g>
</svg>
