<?xml version="1.0" encoding="utf-8"?>
<!-- Generator: Adobe Illustrator 15.1.0, SVG Export Plug-In . SVG Version: 6.00 Build 0)  -->
<!DOCTYPE svg PUBLIC "-//W3C//DTD SVG 1.0//EN" "http://www.w3.org/TR/2001/REC-SVG-20010904/DTD/svg10.dtd">
<svg version="1.0" id="Layer_1" xmlns:serif="http://www.serif.com/"
	 xmlns="http://www.w3.org/2000/svg" xmlns:xlink="http://www.w3.org/1999/xlink" x="0px" y="0px" width="283.46px"
	 height="283.46px" viewBox="0 0 283.46 283.46" enable-background="new 0 0 283.46 283.46" xml:space="preserve">
<path d="M87.7,84.466c-0.068-0.062-0.136-0.127-0.2-0.188c-2.683-2.602-4.223-6.16-4.283-9.899
	C82.969,58.549,82.571,33,82.32,17.169c-0.056-3.739,1.371-7.345,3.973-10.028c2.599-2.683,6.16-4.223,9.895-4.281
	c0.556-0.007,1.111-0.017,1.669-0.026c3.736-0.059,7.342,1.369,10.025,3.969c2.683,2.601,4.223,6.16,4.283,9.899l0.715,45.571
	l39.505,9.351c0.291,0.067,0.577,0.146,0.86,0.233c0.806,0.206,1.603,0.473,2.389,0.806l16.213,6.867
	c-13.795-5.841-20.25-21.785-14.407-35.579c5.84-13.795,21.783-20.25,35.578-14.409c13.796,5.841,20.251,21.785,14.407,35.579
	c-5.839,13.794-21.783,20.25-35.578,14.409l18.36,7.775c3.28,1.388,5.879,3.71,7.622,6.525c1.22,1.805,2.02,3.885,2.309,6.086
	l4.676,35.967l17.124-2.115c3.711-0.458,7.45,0.574,10.394,2.875c2.948,2.296,4.86,5.673,5.318,9.381
	c0.069,0.551,0.135,1.104,0.204,1.655c0.458,3.707-0.576,7.445-2.873,10.394c-2.3,2.946-5.674,4.859-9.385,5.316l-29.29,3.619
	c-0.527,0.134-1.066,0.237-1.611,0.305c-0.553,0.074-1.104,0.145-1.655,0.217c-0.766,0.099-1.535,0.136-2.295,0.108
	c-3.287,0.111-6.527-0.933-9.144-2.97c-1.733-1.352-3.108-3.078-4.04-5.023l-2.079,4.909l15.515,40.942
	c0.402,1.063,0.672,2.163,0.807,3.272c0.328,1.935,0.251,3.935-0.245,5.868c-3.945,15.331-10.312,40.08-14.261,55.414
	c-0.932,3.618-3.26,6.72-6.479,8.619c-3.215,1.902-7.059,2.444-10.678,1.513c-0.537-0.138-1.076-0.277-1.615-0.412
	c-3.617-0.935-6.719-3.262-8.62-6.482c-1.901-3.218-2.443-7.058-1.512-10.677l13.073-50.809L149.038,179
	c-4.529-0.535-9.304-1.836-14.118-3.662l-4.364,39.954c-0.406,3.712-2.269,7.113-5.183,9.452c-2.432,1.953-5.428,3.035-8.514,3.102
	L63.498,241.5c-3.621,0.927-7.46,0.376-10.672-1.53c-3.215-1.906-5.543-5.008-6.47-8.628c-0.138-0.538-0.276-1.078-0.413-1.615
	c-0.928-3.621-0.375-7.462,1.528-10.678c1.907-3.214,5.008-5.54,8.628-6.466l46.015-11.773l5.774-52.854
	c0.009-3.301,0.78-6.881,2.427-10.778l17.264-40.759l-32.712-7.741C92.088,88.027,89.597,86.546,87.7,84.466L87.7,84.466z"/>
</svg>
