<?xml version="1.0" encoding="utf-8"?>
<!-- Generator: Adobe Illustrator 15.1.0, SVG Export Plug-In . SVG Version: 6.00 Build 0)  -->
<!DOCTYPE svg PUBLIC "-//W3C//DTD SVG 1.1//EN" "http://www.w3.org/Graphics/SVG/1.1/DTD/svg11.dtd">
<svg version="1.1" id="Layer_2_2_" xmlns="http://www.w3.org/2000/svg" xmlns:xlink="http://www.w3.org/1999/xlink" x="0px" y="0px"
	 width="283.46px" height="283.46px" viewBox="0 0 283.46 283.46" enable-background="new 0 0 283.46 283.46" xml:space="preserve">
<path fill="#231F20" d="M198.362,122.8c-10.297-26.095-20.359-50.021-29.247-68.688c-6.608-15.473-13.105-32.576-20-40.563h-0.004
	c-3.162-4.176-5.868-6.465-7.997-6.465c-9.833,0-32.09,48.509-55.719,108.346c-28.743,55.863-12.22,101.84,42.452,107.699
	c-7.057-17.322-10.11-35.712-9.771-56.182c0.511-23.848,7.472-48.738,14.337-75.087c3.328-13.535,6.615-27.496,9.06-41.51
	l2.383-5.396l2.484-6.824v0.001l1.027,8.358c-1.215,10.038-3.418,21.582-5.962,32.706c-3.716,15.591-7.753,31.715-10.648,47.7
	c-0.014,0.067-0.022,0.131-0.031,0.196c-6.263,38.212-3.466,72.438,9.123,100.474c-0.036,0.021-0.076,0.039-0.114,0.062
	c4.375,10.02,7.151,21.111,8.399,33.058c0.536,5.081,0.817,10.303,0.774,15.689l7.249-5.075l3.043-2.137
	c0.073-4.203-0.036-8.381-0.282-12.556c-0.293-4.959-0.787-9.912-1.522-14.866c-0.282-1.83-0.476-3.757-0.673-5.628
	c-0.181-1.762-0.379-3.663-0.657-5.467C210.085,224.057,226.663,178.19,198.362,122.8z"/>
</svg>
