<?xml version="1.0" encoding="utf-8"?>
<!-- Generator: Adobe Illustrator 15.1.0, SVG Export Plug-In . SVG Version: 6.00 Build 0)  -->
<!DOCTYPE svg PUBLIC "-//W3C//DTD SVG 1.1//EN" "http://www.w3.org/Graphics/SVG/1.1/DTD/svg11.dtd">
<svg version="1.1" id="Layer_2" xmlns="http://www.w3.org/2000/svg" xmlns:xlink="http://www.w3.org/1999/xlink" x="0px" y="0px"
	 width="283.46px" height="283.46px" viewBox="0 0 283.46 283.46" enable-background="new 0 0 283.46 283.46" xml:space="preserve">
<g>
	<path d="M255.714,211.851l-76.315-55.676c-0.635-0.461-1.381-0.691-2.127-0.691c-0.758,0-1.518,0.238-2.156,0.716l-30.01,22.397
		c-0.986,0.733-2.154,1.123-3.383,1.123s-2.397-0.39-3.382-1.125l-30.005-22.412c-0.64-0.478-1.398-0.717-2.158-0.717
		c-0.745,0-1.49,0.229-2.124,0.692l-76.335,55.649c-1.262,0.918-1.789,2.545-1.305,4.029c0.483,1.484,1.867,2.489,3.428,2.489
		l223.746,0.042c1.561,0,2.943-1.004,3.43-2.488C257.5,214.399,256.974,212.772,255.714,211.851z"/>
	<path d="M272.778,84.218c-0.004,0-0.008,0-0.012,0c-0.013,0-0.027,0-0.04,0c-0.001,0-0.001,0-0.002,0s-0.003,0-0.004,0
		c-0.804,0.01-1.546,0.284-2.142,0.738l-79.928,59.651c-0.918,0.684-1.457,1.764-1.451,2.909c0.007,1.145,0.557,2.219,1.48,2.894
		l79.938,58.32c0.63,0.459,1.375,0.692,2.125,0.692c0.559,0,1.119-0.13,1.635-0.392c1.209-0.615,1.973-1.856,1.973-3.214
		l0.021-117.846c0.003-0.049,0.004-0.1,0.004-0.149C276.375,85.833,274.766,84.22,272.778,84.218z"/>
	<path d="M94.256,147.5c0.007-1.145-0.53-2.226-1.448-2.908L12.872,84.882c-0.635-0.475-1.394-0.717-2.158-0.717
		c-0.551,0-1.104,0.126-1.615,0.382c-1.219,0.612-1.989,1.859-1.989,3.224L7.084,205.763c0,1.357,0.761,2.601,1.971,3.215
		c0.518,0.264,1.077,0.393,1.636,0.393c0.75,0,1.496-0.232,2.124-0.691l79.96-58.287C93.7,149.718,94.25,148.644,94.256,147.5z"/>
	<path d="M13.103,72.494l2.11,1.539c0.188,0.196,0.397,0.372,0.63,0.522l0.756,0.487l82.627,60.238
		c0.109,0.081,0.228,0.143,0.344,0.212l40.077,29.933c0.616,0.46,1.346,0.69,2.075,0.69s1.459-0.229,2.074-0.688l40.346-30.108
		c0.029-0.021,0.062-0.035,0.092-0.057l86.101-62.816c1.421-1.039,2.017-2.875,1.472-4.546c-0.549-1.676-2.108-2.808-3.869-2.808
		L15.498,65.139c-1.762,0-3.322,1.134-3.867,2.809C11.083,69.623,11.679,71.458,13.103,72.494z"/>
</g>
</svg>
