<?xml version="1.0" encoding="utf-8"?>
<!-- Generator: Adobe Illustrator 15.1.0, SVG Export Plug-In . SVG Version: 6.00 Build 0)  -->
<!DOCTYPE svg PUBLIC "-//W3C//DTD SVG 1.1//EN" "http://www.w3.org/Graphics/SVG/1.1/DTD/svg11.dtd">
<svg version="1.1" id="Layer_5" xmlns="http://www.w3.org/2000/svg" xmlns:xlink="http://www.w3.org/1999/xlink" x="0px" y="0px"
	 width="283.46px" height="283.46px" viewBox="0 0 283.46 283.46" enable-background="new 0 0 283.46 283.46" xml:space="preserve">
<g>
	<path fill="none" d="M144.619,237.479c-0.936,0.307-1.91,0.46-2.883,0.46c-1.949,0-3.897-0.613-5.541-1.841
		C138.659,237.939,141.81,238.4,144.619,237.479z"/>
	<path d="M255.727,266.465l-76.316-55.676c-0.634-0.461-1.38-0.692-2.126-0.692c-0.758,0-1.518,0.238-2.156,0.716l-30.01,22.397
		c-0.986,0.734-2.155,1.123-3.383,1.123c-1.229,0-2.398-0.389-3.382-1.124l-30.005-22.412c-0.64-0.478-1.399-0.717-2.158-0.717
		c-0.745,0-1.491,0.229-2.124,0.692l-76.335,55.649c-1.262,0.919-1.789,2.546-1.305,4.03c0.483,1.484,1.867,2.489,3.428,2.489
		l223.746,0.042c1.561,0,2.944-1.004,3.43-2.488C257.513,269.012,256.987,267.385,255.727,266.465z M141.736,237.939
		c0.973,0,1.947-0.153,2.883-0.46c-2.809,0.921-5.959,0.46-8.424-1.381C137.838,237.326,139.787,237.939,141.736,237.939z"/>
	<path d="M272.79,138.832c-0.004,0-0.007,0-0.011,0c-0.013,0-0.027,0-0.04,0c-0.001,0-0.001,0-0.002,0s-0.003,0-0.004,0
		c-0.804,0.01-1.546,0.284-2.141,0.738l-79.929,59.651c-0.918,0.684-1.456,1.764-1.45,2.909c0.006,1.145,0.556,2.219,1.48,2.894
		l79.938,58.32c0.629,0.459,1.375,0.692,2.125,0.692c0.558,0,1.118-0.129,1.634-0.391c1.209-0.615,1.973-1.857,1.973-3.214
		l0.021-117.846c0.003-0.049,0.004-0.099,0.004-0.149C276.388,140.447,274.779,138.834,272.79,138.832z"/>
	<path d="M94.269,202.113c0.007-1.145-0.53-2.226-1.448-2.909l-79.937-59.708c-0.635-0.475-1.394-0.717-2.158-0.717
		c-0.551,0-1.104,0.126-1.615,0.382c-1.219,0.612-1.99,1.859-1.99,3.223L7.097,260.376c0,1.358,0.761,2.601,1.971,3.215
		c0.517,0.264,1.077,0.393,1.635,0.393c0.75,0,1.496-0.233,2.124-0.692l79.96-58.286C93.712,204.332,94.262,203.257,94.269,202.113z
		"/>
	<path d="M10.88,125.549l16.408,10.594l112.289,83.868c0.641,0.479,1.399,0.718,2.158,0.718c0.758,0,1.517-0.238,2.156-0.716
		l112.344-83.839L272.46,125.4c0.948-0.629,1.544-1.67,1.606-2.807c0.062-1.137-0.416-2.236-1.289-2.965L144.038,12.166
		c-0.669-0.558-1.491-0.837-2.312-0.837c-0.821,0-1.641,0.279-2.311,0.837L10.526,119.752c-0.88,0.734-1.358,1.844-1.289,2.988
		C9.308,123.884,9.917,124.927,10.88,125.549z"/>
</g>
</svg>
