<?xml version="1.0" encoding="utf-8"?>
<!-- Generator: Adobe Illustrator 15.1.0, SVG Export Plug-In . SVG Version: 6.00 Build 0)  -->
<!DOCTYPE svg PUBLIC "-//W3C//DTD SVG 1.1//EN" "http://www.w3.org/Graphics/SVG/1.1/DTD/svg11.dtd">
<svg version="1.1" id="Layer_4" xmlns="http://www.w3.org/2000/svg" xmlns:xlink="http://www.w3.org/1999/xlink" x="0px" y="0px"
	 width="229.572px" height="283.464px" viewBox="0 0 229.572 283.464" enable-background="new 0 0 229.572 283.464"
	 xml:space="preserve">
<g>
	<path d="M92.068,184.595l-2.977,2.479c0.086,0.104,0.181,0.201,0.276,0.302l2.798-2.671
		C92.133,184.668,92.099,184.632,92.068,184.595z"/>
	<path d="M216.306,166.562c-0.002-0.034-0.001-0.022-0.001-0.007c-0.002-0.072-0.004-0.146-0.011-0.222
		c0-0.005-0.001-0.011-0.001-0.017l-0.751,0.063v-0.001l0.751-0.063c-0.022-0.266-0.063-0.529-0.119-0.789
		c-0.018-0.101-0.066-0.268-0.092-0.359l-0.54,0.152v-0.002l0.539-0.151c-0.094-0.318-0.204-0.632-0.347-0.933l-0.819,0.387h-0.002
		l0.821-0.387l-26.181-55.763l-1.027,0.48l0,0l1.027-0.479c-0.056-0.118-0.124-0.228-0.187-0.341l-0.975,0.533l0,0l0.975-0.534
		c-1.893-3.431-6.716-4.296-9.635-1.377l-10.082,10.084l-5.716-5.716c-2.364-2.366-6.344-2.338-8.673,0.065l2.777,2.7l0,0
		l-0.003,0.003l-2.757-2.683l-65.901,67.707l0.02,0.021c-1.376,1.416-1.987,3.481-1.604,5.42l3.802-0.75c0,0.003,0,0.003,0,0.005
		c0-0.002,0-0.004,0-0.004l-3.802,0.75c0.043,0.203,0.084,0.391,0.147,0.6c0,0.003,0.001,0.005,0.001,0.008v0.001l0,0
		c0,0.001,0,0.002,0,0.003c0.164,0.531,0.402,1.036,0.703,1.503l3.256-2.094c-0.046-0.07-0.087-0.144-0.124-0.22l0,0
		c-0.209-0.404,0.243,0.406,0.124,0.22l-3.257,2.095c0.134,0.209,0.282,0.411,0.441,0.604l2.977-2.479
		c-0.373-0.451,0.304,0.301,0.099,0.11l-2.798,2.672c0.041,0.043,0.077,0.089,0.12,0.131l0,0l28.866,28.525H79.42v-53.276V101.59
		v-4.823l-1.718-1.473l0,0l1.718,1.473c19.229-2.564,34.835-18.932,37.683-37.863l-0.309-0.047l0,0l0.309,0.047
		c0.534-3.486,0.626-7.033,0.333-10.545h-0.008l0,0h0.008c-0.007-0.078-0.019-0.154-0.024-0.231
		c-1.399-20.863-17.712-37.742-38.637-40.573c-4.124-0.597-8.35-0.633-12.56-0.043c-2.851,0.399-5.603,1.071-8.236,1.983
		c-16.338,5.46-28.436,19.837-30.185,37.191c-0.618,4.676-0.502,9.508,0.463,14.342l0,0c0.344,1.746,0.801,3.471,1.355,5.16
		l0.643-0.185l0,0l-0.643,0.185c2.639,8.051,7.566,15.217,14.052,20.652l2.426-0.299c0,0,0,0,0.001,0l-2.427,0.299
		c1.02,0.844,2.058,1.635,3.141,2.393l3.365-0.109h0.001l-3.365,0.109c1.043,0.725,2.114,1.412,3.214,2.047
		c-15.025,6.688-26.983,18.728-35.183,32.844l-0.748,1.291l1.613,0.938l0,0l-1.614-0.938c-0.538,0.928-0.821,1.983-0.821,3.055
		v26.264v109.464v6.088h0.001c0,0.605,0.093,1.229,0.273,1.811c0,0.001,0,0.002,0.001,0.003c0.058,0.188,0.125,0.371,0.201,0.55
		c0.001,0.003,0.003,0.008,0.004,0.011c0.141,0.332,0.299,0.622,0.494,0.924l1.392-0.896v0.001l-1.392,0.896
		c0.382,0.579,0.839,1.093,1.392,1.516l0,0l0,0c0.278,0.217,0.573,0.412,0.887,0.576l0.305-0.576h0.001l-0.305,0.576
		c0.866,0.46,1.855,0.703,2.835,0.703h120.519c1.41,0,2.811-0.522,3.894-1.42l-2.479-2.97c-0.077,0.058-0.073,0.054,0.011-0.012
		c-0.004,0.003-0.006,0.008-0.01,0.011l2.478,2.97c0.41-0.343,0.792-0.745,1.099-1.185l8.425-12.066h19.674
		c2.531,0,4.872-1.644,5.726-4.021l-0.79-0.286l0,0v-0.001l0.79,0.286c0.237-0.66,0.367-1.363,0.367-2.064V222.13
		c-0.005-0.155-0.011-0.312-0.018-0.466c0-0.004-0.001-0.006-0.001-0.008l-1.14,0.088l0,0l1.14-0.088
		c-0.041-0.531-0.152-1.052-0.33-1.553l-0.81,0.266l0,0l0.81-0.267c-0.026-0.075-0.046-0.132-0.075-0.202l-0.733,0.264v-0.002
		l0.733-0.263c-0.561-1.433-1.684-2.624-3.074-3.28l39.284-45.828c0.11-0.12,0.213-0.248,0.302-0.385l-3.134-2.275h0.001
		l3.133,2.275c0.815-1.095,1.209-2.481,1.155-3.838C216.306,166.579,216.307,166.592,216.306,166.562z M39.569,52.493
		c0-18.361,14.746-33.248,32.937-33.248c18.189,0,32.936,14.887,32.936,33.248c0,18.363-14.746,33.248-32.936,33.248
		C54.315,85.741,39.569,70.856,39.569,52.493z M161.846,213.909l-11.613,14.174l0,0h16.649v0.132v5.327v2.422v2.906v5.328v5.328
		H158.5h-8.383h-8.132l-5.364,2.03v12.638H67.244H39.568H25.45V130.108h0.809c-0.13-0.211-0.266-0.427-0.414-0.652
		c2.63-3.478,4.703-7.053,7.62-9.954c2.543-3.136,5.184-6.063,8.203-8.71c3.019-2.646,6.416-5.016,10.472-7.031
		c4.058-2.018,8.773-3.682,14.431-4.923c0.488-0.107,0.684,0.034,0.674,0.352l0.002-0.001l-0.002,30.92v97.974h57.514h9.272
		l-0.01-0.029l0.31,0.029h2.291h6.933l-5.771-9.938l-35.436-35.052l57.346-58.986l9.276,9.396l0.629,0.573l3.934-3.92l0.002-0.015
		l8.684-8.644l20.825,44.353L161.846,213.909z"/>
</g>
</svg>
