<?xml version="1.0" encoding="utf-8"?>
<!-- Generator: Adobe Illustrator 15.1.0, SVG Export Plug-In . SVG Version: 6.00 Build 0)  -->
<!DOCTYPE svg PUBLIC "-//W3C//DTD SVG 1.1//EN" "http://www.w3.org/Graphics/SVG/1.1/DTD/svg11.dtd">
<svg version="1.1" id="Layer_1" xmlns="http://www.w3.org/2000/svg" xmlns:xlink="http://www.w3.org/1999/xlink" x="0px" y="0px"
	 width="283.465px" height="283.465px" viewBox="0 0 283.465 283.465" enable-background="new 0 0 283.465 283.465"
	 xml:space="preserve">
<g>
	<path d="M174.418,146.776c1.497,0.258,2.838,0.046,3.683-1.12c1.516-2.066,2.168-3.683,2.25-4.982
		c0.083-1.4-0.578-2.296-1.222-2.828L174.418,146.776z"/>
	<path d="M169.293,134.957c-0.845-1.185-2.534-1.791-5.115-1.791c-0.982,0-1.754,0.115-2.323,0.354
		c-0.349,0.143-0.597,0.322-0.726,0.578c-0.267,0.533-0.102,1.218,0.192,1.984c0.735,1.864,2.462,4.014,4.574,5.91
		c0.44,0.404,0.909,0.799,1.387,1.176c1.268-1.64,2.121-3.325,2.452-4.887C170.01,137.014,169.927,135.848,169.293,134.957z"/>
	<path d="M149.704,133.166c-2.553,0-4.114,0.473-4.821,1.52c-0.322,0.465-0.423,1.033-0.386,1.648
		c0.046,0.988,0.413,2.086,0.982,3.215c0.9,1.787,2.277,3.628,3.876,5.263c0.973-1.057,1.754-2.177,2.342-3.292
		C153.874,137.409,153.598,133.166,149.704,133.166z"/>
	<path d="M138.242,136.146c-0.44-1.354-1.424-2.277-2.984-2.277c-2.25,0-3.766,0.697-4.61,1.905
		c-1.433,2.034-1.047,5.193,0.275,8.018c0.771,1.607,1.874,3.141,3.214,4.298c2.066-2.021,3.417-4.537,4.032-6.934
		C138.637,139.311,138.692,137.537,138.242,136.146z"/>
	<path d="M121.114,134.355c-0.312-0.372-0.881-0.473-1.717-0.486c-1.442-0.027-2.461,0.215-3.095,0.785
		c-0.708,0.624-0.817,1.611-0.662,2.723c0.211,1.529,0.956,3.266,2.039,4.964c0.321-0.422,0.643-0.854,0.937-1.281
		c1.249-1.813,2.205-3.559,2.563-5.015C121.353,135.352,121.445,134.755,121.114,134.355z"/>
	<path d="M141.732,77.016c-37.053,0-67.135,30.082-67.135,67.135c0,37.057,30.082,67.135,67.135,67.135
		c37.058,0,67.135-30.078,67.135-67.135C208.867,107.098,178.79,77.016,141.732,77.016z M180.471,147.393
		c-1.571,2.148-3.995,2.773-6.778,2.231c-0.229-0.037-0.459-0.092-0.688-0.156l-24.484,46.434c-0.377,0.717-1.268,0.992-1.984,0.615
		c-0.716-0.376-0.991-1.267-0.605-1.983l24.291-46.094c-0.836-0.396-1.671-0.863-2.498-1.387c-2.021,2.029-4.573,3.885-7.549,5.253
		c-1.855,0.863-4.399,0.478-7.035-0.919c-1.249-0.67-2.525-1.543-3.747-2.571c-1.644,1.368-3.6,2.571-5.878,3.518
		c-3.352,1.387-6.529,0.946-9.184-0.551c-0.193,0.146-0.376,0.275-0.579,0.413c-2.829,1.91-6.19,1.718-9.432,0.184
		c-2.434-1.157-4.803-3.095-6.76-5.317c-1.212,1.341-2.498,2.627-3.779,3.756l24.112,43.688c0.396,0.716,0.138,1.607-0.579,2.002
		c-0.707,0.386-1.598,0.129-1.993-0.578c0,0-14.869-26.955-23.851-43.22c-1.942,1.441-3.77,2.406-5.161,2.69
		c-0.749,0.147-1.456-0.064-2.066-0.707c-0.574-0.615-1.111-1.929-1.456-3.683c-1.088-5.547-0.941-16.142-0.941-16.142
		c0.009-0.665,0.464-1.239,1.111-1.4c0.643-0.16,1.318,0.134,1.639,0.713l7.728,14c1.162-1.065,2.319-2.24,3.407-3.472
		c-0.349-0.505-0.679-1.01-0.973-1.524c-2.034-3.508-2.673-7.076-1.483-9.35c0.9-1.73,2.806-2.966,6.176-2.906
		c2.544,0.051,3.885,1.079,4.473,2.457c0.643,1.543,0.22,3.926-1.185,6.566c-0.817,1.538-1.957,3.205-3.261,4.85
		c2.039,2.405,4.62,4.49,7.237,5.391c1.763,0.606,3.545,0.661,5.106-0.257c-1.469-1.369-2.691-3.068-3.545-4.896
		c-1.818-3.853-1.984-8.174-0.037-10.951c1.304-1.865,3.554-3.16,7.017-3.16c4.362,0,6.558,3.637,6.189,8.381
		c-0.257,3.361-1.854,7.273-4.757,10.368c1.718,0.698,3.655,0.79,5.703-0.055c1.846-0.771,3.453-1.736,4.821-2.819
		c-1.79-1.847-3.352-3.922-4.362-5.938c-1.497-2.984-1.735-5.855-0.403-7.83c1.093-1.606,3.324-2.805,7.255-2.805
		c2.305,0,3.958,0.905,4.996,2.314c1.332,1.791,1.653,4.555,0.744,7.577c-0.661,2.182-1.966,4.523-3.913,6.663
		c0.983,0.79,1.993,1.479,2.985,2.002c1.671,0.891,3.242,1.405,4.427,0.854c2.47-1.14,4.638-2.654,6.373-4.308
		c-1.414-1.12-2.718-2.36-3.82-3.632c-1.533-1.787-2.663-3.628-3.141-5.227c-0.358-1.203-0.367-2.305-0.046-3.228
		c0.578-1.663,2.286-3.017,5.868-3.017c3.857,0,6.245,1.253,7.504,3.022c1.074,1.515,1.387,3.48,0.927,5.643
		c-0.403,1.879-1.414,3.94-2.938,5.934c0.634,0.386,1.276,0.734,1.92,1.02c0,0,4.398-8.826,5.657-10.723
		c0.367-0.556,0.34-1.263,1.873-0.67c0.092,0.041,0.294,0.119,0.551,0.252c1.029,0.523,3.031,1.893,3.518,4.523
		C183.528,141.124,183.106,143.801,180.471,147.393z"/>
	<path d="M106.112,152.131c0.032,0.083,0.074,0.175,0.115,0.257c1.07-0.357,2.37-1.175,3.766-2.24l0.046-0.037
		c-3.109-5.639-5.221-9.468-5.221-9.478C104.918,144.683,105.231,149.789,106.112,152.131z"/>
	<path d="M165.262,232.748l-49.584,17.183c-1.993,0.688-3.049,2.865-2.356,4.858c0.689,1.993,2.866,3.049,4.854,2.36l49.584-17.184
		c1.993-0.688,3.049-2.865,2.36-4.858C169.431,233.115,167.255,232.059,165.262,232.748z"/>
	<path d="M118.203,223.646l10.984-3.803c1.993-0.688,3.049-2.865,2.356-4.857c-0.689-1.993-2.866-3.05-4.854-2.36l-10.984,3.811
		c-1.993,0.689-3.049,2.866-2.355,4.85C114.038,223.279,116.215,224.335,118.203,223.646z"/>
	<path d="M165.262,221.57l-49.584,17.184c-1.993,0.688-3.049,2.865-2.356,4.849c0.689,1.993,2.866,3.05,4.854,2.36l49.584-17.183
		c1.993-0.688,3.049-2.865,2.36-4.858C169.431,221.938,167.255,220.882,165.262,221.57z"/>
	<path d="M165.289,210.449l-49.584,17.183c-1.993,0.689-3.049,2.865-2.355,4.858c0.688,1.993,2.865,3.049,4.854,2.352l49.584-17.174
		c1.993-0.698,3.049-2.866,2.36-4.858C169.459,210.816,167.282,209.76,165.289,210.449z"/>
	<path d="M161.763,257.012l-28.585,9.9c-1.993,0.688-3.049,2.865-2.356,4.858c0.689,1.992,2.866,3.049,4.854,2.36l28.585-9.91
		c1.993-0.688,3.049-2.865,2.36-4.858C165.932,257.379,163.756,256.322,161.763,257.012z"/>
	<path d="M165.262,244.595l-44.064,15.273c-1.993,0.688-3.049,2.865-2.356,4.857c0.689,1.984,2.866,3.04,4.854,2.352l44.064-15.264
		c1.993-0.688,3.049-2.865,2.36-4.858C169.431,244.962,167.255,243.906,165.262,244.595z"/>
</g>
</svg>
