<?xml version="1.0" encoding="UTF-8" standalone="no"?><!DOCTYPE svg PUBLIC "-//W3C//DTD SVG 1.1//EN" "http://www.w3.org/Graphics/SVG/1.1/DTD/svg11.dtd"><svg width="100%" height="100%" viewBox="0 0 130 130" version="1.1" xmlns="http://www.w3.org/2000/svg" xmlns:xlink="http://www.w3.org/1999/xlink" xml:space="preserve" xmlns:serif="http://www.serif.com/" style="fill-rule:evenodd;clip-rule:evenodd;stroke-linejoin:round;stroke-miterlimit:2;"><rect id="link" x="3.193" y="0.999" width="125" height="125" style="fill:none;"/><path d="M60.957,43.476c-3.541,0.927 -6.889,2.778 -9.664,5.553c-0,-0 -0.071,0.07 -0.071,0.07c-4.167,4.168 -6.251,9.63 -6.251,15.093c-0,5.462 2.084,10.924 6.251,15.092l16.072,16.072c4.168,4.167 9.63,6.251 15.092,6.251c5.462,-0 10.925,-2.084 15.092,-6.252c0,0 0.071,-0.07 0.071,-0.07c4.167,-4.168 6.251,-9.63 6.251,-15.092c0,-5.462 -2.084,-10.925 -6.251,-15.092l-10.547,-10.547c0.997,2.655 1.496,5.454 1.496,8.253c0,1.091 -0.076,2.181 -0.227,3.262l-0.218,1.556l3.485,3.486c5.016,5.016 5.016,13.148 0,18.163c-0.023,0.024 -0.047,0.047 -0.07,0.071c-5.016,5.016 -13.148,5.016 -18.164,0c-4.967,-4.968 -11.103,-11.104 -16.071,-16.072c-5.016,-5.015 -5.016,-13.147 -0,-18.163c0.023,-0.024 0.047,-0.047 0.07,-0.071c3.186,-3.185 7.628,-4.348 11.73,-3.487l-8.076,-8.076Z"/><path d="M44.384,72.445c-0.998,-2.655 -1.496,-5.454 -1.496,-8.254c-0,-1.09 0.075,-2.18 0.227,-3.262l0.218,-1.555l-3.486,-3.486c-5.016,-5.016 -5.015,-13.148 0,-18.164c0.024,-0.023 0.047,-0.047 0.071,-0.07c5.015,-5.016 13.147,-5.016 18.163,-0c4.968,4.968 11.104,11.104 16.072,16.072c5.016,5.015 5.016,13.147 -0,18.163c-0.024,0.023 -0.047,0.047 -0.071,0.071c-3.185,3.185 -7.628,4.347 -11.73,3.487l8.077,8.076c3.54,-0.927 6.889,-2.778 9.664,-5.553c-0,-0 0.07,-0.071 0.07,-0.071c4.168,-4.167 6.252,-9.629 6.252,-15.092c-0,-5.462 -2.084,-10.924 -6.252,-15.092l-16.071,-16.072c-4.168,-4.167 -9.63,-6.251 -15.093,-6.251c-5.462,0 -10.924,2.084 -15.092,6.251c0,0 -0.07,0.071 -0.07,0.071c-4.168,4.167 -6.252,9.63 -6.252,15.092c0,5.462 2.084,10.925 6.252,15.092l10.547,10.547Z"/></svg>