<?xml version="1.0" encoding="utf-8"?>
<!-- Generator: Adobe Illustrator 15.1.0, SVG Export Plug-In . SVG Version: 6.00 Build 0)  -->
<!DOCTYPE svg PUBLIC "-//W3C//DTD SVG 1.1//EN" "http://www.w3.org/Graphics/SVG/1.1/DTD/svg11.dtd">
<svg version="1.1" id="Layer_1" xmlns:serif="http://www.serif.com/"
	 xmlns="http://www.w3.org/2000/svg" xmlns:xlink="http://www.w3.org/1999/xlink" x="0px" y="0px" width="283.46px"
	 height="283.46px" viewBox="0 0 283.46 283.46" enable-background="new 0 0 283.46 283.46" xml:space="preserve">
<g>
	<path d="M276.349,110.679c-0.327-3.657-3.556-6.357-7.213-6.031l-48.244,4.306c-3.657,0.326-6.357,3.556-6.031,7.213
		s3.556,6.357,7.213,6.031l48.245-4.306C273.976,117.565,276.675,114.335,276.349,110.679z"/>
	<path d="M198.872,94.564l32.972-35.481c2.499-2.689,2.346-6.896-0.344-9.396s-6.896-2.345-9.396,0.345l-32.972,35.481
		c-2.499,2.689-2.345,6.896,0.345,9.396C192.167,97.408,196.373,97.253,198.872,94.564z"/>
	<path d="M166.417,71.149c3.671,0.058,6.693-2.872,6.752-6.543l0.761-48.43c0.059-3.671-2.872-6.694-6.543-6.752
		s-6.694,2.871-6.752,6.542l-0.761,48.431C159.816,68.068,162.746,71.091,166.417,71.149z"/>
	<path d="M52.615,70.691c-2.026,3.212-3.666,6.599-4.891,10.101c-1.868,5.345-2.804,10.943-2.804,16.542
		c0,12.795,4.883,25.595,14.646,35.358l24.711,24.711c-0.001-0.003-0.002-0.005-0.003-0.007l0.006,0.006
		c-2.338-6.221-3.505-12.777-3.505-19.339c0-2.553,0.175-5.106,0.532-7.642l0.511-3.644l-8.168-8.167
		c-11.577-11.577-11.739-30.232-0.509-42.021c0.17-0.178,0.333-0.359,0.508-0.534c0.005-0.005,0.009-0.009,0.014-0.014
		c0.051-0.05,0.103-0.103,0.153-0.151c7.344-7.345,17.539-10.1,27.021-8.264c5.69,1.102,11.124,3.856,15.53,8.264
		c11.637,11.639,26.012,26.017,37.652,37.655c11.752,11.75,11.752,30.801,0,42.554c-0.034,0.034-0.068,0.069-0.103,0.104
		c-0.02,0.02-0.039,0.039-0.06,0.061c-7.462,7.462-17.872,10.185-27.481,8.169l0.002,0.002c-0.001,0-0.003,0-0.005,0l18.923,18.921
		c0.001,0,0.002-0.001,0.003-0.001l0,0c0.38-0.1,0.758-0.208,1.135-0.317c0.139-0.039,0.277-0.074,0.415-0.115
		c0.004-0.001,0.008-0.002,0.011-0.004c2.868-0.851,5.673-1.97,8.38-3.347c4.577-2.327,8.873-5.397,12.7-9.226l0.164-0.166
		c9.765-9.765,14.648-22.561,14.648-35.358s-4.884-25.593-14.648-35.36l-37.652-37.653c-9.682-9.681-22.345-14.556-35.035-14.638
		c-0.108-0.001-0.217-0.008-0.325-0.008l0,0c-0.001,0-0.001,0-0.001,0c-12.796,0-25.593,4.883-35.358,14.646l-0.123,0.124
		l-0.043,0.042c-2.371,2.372-4.448,4.925-6.244,7.611c-0.052,0.078-0.109,0.153-0.161,0.232
		C52.971,70.106,52.798,70.401,52.615,70.691z"/>
	<path d="M238.514,185.058c-0.01-0.443-0.011-0.888-0.031-1.33c-0.262-5.477-1.427-10.917-3.479-16.087
		c-0.044-0.109-0.081-0.221-0.125-0.331c-0.111-0.273-0.237-0.54-0.354-0.812c-2.436-5.713-5.971-11.069-10.631-15.73l-24.71-24.711
		c0.001,0.003,0.001,0.005,0.002,0.007l-0.006-0.006c2.339,6.221,3.505,12.777,3.505,19.339c0,2.553-0.174,5.106-0.532,7.642
		l-0.51,3.644l8.167,8.167c11.385,11.386,11.739,29.62,1.067,41.433c-0.344,0.382-0.699,0.755-1.066,1.122
		c-0.008,0.008-0.016,0.017-0.023,0.024c-0.048,0.047-0.096,0.096-0.143,0.141c-7.712,7.712-18.566,10.364-28.439,7.954
		c-5.171-1.263-10.074-3.914-14.113-7.954c-11.637-11.639-26.012-26.017-37.652-37.655c-11.752-11.75-11.752-30.801,0-42.554
		c0.034-0.034,0.068-0.069,0.103-0.104c0.021-0.02,0.04-0.039,0.061-0.061c7.462-7.462,17.872-10.185,27.48-8.169l-0.001-0.002
		c0.001,0,0.003,0,0.004,0.001l-18.923-18.921c-0.001,0-0.002,0-0.003,0l0,0c-1.526,0.399-3.036,0.874-4.526,1.42
		c-0.028,0.011-0.056,0.02-0.084,0.029c-6.576,2.424-12.747,6.276-18.03,11.56l-0.164,0.166
		c-9.764,9.765-14.647,22.561-14.647,35.358s4.884,25.594,14.647,35.359l37.653,37.654c6.966,6.966,15.479,11.433,24.433,13.429
		c3.596,0.802,7.261,1.217,10.928,1.217c5.244,0,10.485-0.834,15.521-2.475c7.251-2.361,14.074-6.409,19.838-12.171l0.119-0.121
		l0.046-0.045c2.763-2.763,5.12-5.775,7.101-8.955c0.207-0.332,0.424-0.659,0.622-0.995c0.007-0.013,0.014-0.024,0.021-0.037
		c3.344-5.672,5.474-11.861,6.387-18.193c0.344-2.379,0.515-4.778,0.515-7.178l0,0l0,0
		C238.54,185.77,238.521,185.415,238.514,185.058z"/>
	<path d="M68.6,167.293c-0.327-3.657-3.557-6.357-7.214-6.031l-48.244,4.306c-3.657,0.327-6.357,3.557-6.031,7.213
		c0.327,3.657,3.557,6.357,7.214,6.031l48.244-4.307C66.226,174.18,68.925,170.951,68.6,167.293z"/>
	<path d="M84.588,188.896l-32.971,35.48c-2.5,2.69-2.346,6.896,0.344,9.396c2.689,2.499,6.896,2.345,9.396-0.345l32.972-35.481
		c2.499-2.689,2.346-6.896-0.345-9.396C91.294,186.052,87.088,186.207,84.588,188.896z"/>
	<path d="M117.043,212.311c-3.671-0.058-6.693,2.871-6.751,6.543l-0.762,48.431c-0.059,3.671,2.873,6.693,6.544,6.752
		c3.671,0.058,6.693-2.873,6.751-6.543l0.761-48.431C123.645,215.392,120.714,212.369,117.043,212.311z"/>
</g>
</svg>
