<?xml version="1.0" encoding="utf-8"?>
<!-- Generator: Adobe Illustrator 15.1.0, SVG Export Plug-In . SVG Version: 6.00 Build 0)  -->
<!DOCTYPE svg PUBLIC "-//W3C//DTD SVG 1.1//EN" "http://www.w3.org/Graphics/SVG/1.1/DTD/svg11.dtd">
<svg version="1.1" id="Layer_1" xmlns:serif="http://www.serif.com/"
	 xmlns="http://www.w3.org/2000/svg" xmlns:xlink="http://www.w3.org/1999/xlink" x="0px" y="0px" width="283.46px"
	 height="283.46px" viewBox="0 0 283.46 283.46" enable-background="new 0 0 283.46 283.46" xml:space="preserve">
<g>
	<path d="M131.405,98.07c-7.721,2.021-15.021,6.057-21.072,12.108l-0.154,0.153c-9.086,9.088-13.63,20.998-13.63,32.909
		c0,11.91,4.544,23.82,13.63,32.908l35.044,35.043c9.088,9.086,20.998,13.631,32.908,13.631c11.909,0,23.82-4.545,32.906-13.633
		l0.155-0.152c9.086-9.088,13.63-20.998,13.63-32.906c0-11.91-4.544-23.822-13.63-32.908l-22.997-22.998
		c2.174,5.79,3.262,11.893,3.262,17.996c0,2.379-0.166,4.756-0.494,7.113l-0.477,3.393l7.6,7.6c10.938,10.938,10.938,28.67,0,39.605
		c-0.051,0.051-0.103,0.102-0.152,0.154c-10.938,10.938-28.669,10.938-39.606,0c-10.83-10.832-24.209-24.213-35.042-35.045
		c-10.938-10.936-10.938-28.666,0-39.604c0.051-0.052,0.103-0.102,0.152-0.155c6.947-6.945,16.633-9.48,25.577-7.603L131.405,98.07z
		"/>
	<path d="M95.268,161.236c-2.176-5.789-3.262-11.893-3.262-17.998c0-2.376,0.163-4.753,0.495-7.112l0.475-3.391l-7.601-7.601
		c-10.938-10.938-10.936-28.669,0-39.606c0.052-0.05,0.103-0.103,0.154-0.153c10.936-10.937,28.667-10.937,39.604,0
		c10.832,10.833,24.211,24.212,35.043,35.044c10.938,10.935,10.938,28.666,0,39.604c-0.052,0.051-0.102,0.102-0.154,0.154
		c-6.944,6.945-16.633,9.479-25.576,7.604l17.611,17.609c7.719-2.021,15.021-6.057,21.072-12.107l0.152-0.154
		c9.088-9.088,13.632-20.996,13.632-32.908c0-11.91-4.544-23.819-13.632-32.908l-35.042-35.044
		c-9.088-9.086-20.998-13.63-32.91-13.63c-11.909,0-23.819,4.544-32.907,13.63l-0.152,0.154
		c-9.089,9.086-13.633,20.998-13.633,32.908s4.544,23.822,13.633,32.908L95.268,161.236z"/>
</g>
</svg>
