<?xml version="1.0" encoding="utf-8"?>
<!-- Generator: Adobe Illustrator 15.1.0, SVG Export Plug-In . SVG Version: 6.00 Build 0)  -->
<!DOCTYPE svg PUBLIC "-//W3C//DTD SVG 1.0//EN" "http://www.w3.org/TR/2001/REC-SVG-20010904/DTD/svg10.dtd">
<svg version="1.0" id="Layer_1" xmlns:serif="http://www.serif.com/"
	 xmlns="http://www.w3.org/2000/svg" xmlns:xlink="http://www.w3.org/1999/xlink" x="0px" y="0px" width="283.46px"
	 height="283.46px" viewBox="0 0 283.46 283.46" enable-background="new 0 0 283.46 283.46" xml:space="preserve">
<g>
	<path d="M124.471,68.747c-12.906,3.378-25.109,10.125-35.224,20.24l-0.257,0.256c-15.189,15.191-22.785,35.1-22.785,55.01
		c0,19.909,7.596,39.818,22.785,55.01l58.58,58.578c15.191,15.188,35.101,22.785,55.008,22.785c19.909,0,39.818-7.598,55.006-22.789
		l0.26-0.254c15.188-15.191,22.784-35.101,22.784-55.007c0-19.907-7.596-39.819-22.784-55.008l-38.442-38.444
		c3.634,9.679,5.453,19.881,5.453,30.083c0,3.977-0.278,7.95-0.826,11.889l-0.797,5.673l12.703,12.705
		c18.285,18.283,18.285,47.925,0,66.203c-0.084,0.085-0.171,0.172-0.253,0.257c-18.284,18.284-47.923,18.284-66.206,0
		c-18.104-18.107-40.467-40.475-58.576-58.582c-18.284-18.279-18.284-47.917,0-66.201c0.085-0.086,0.172-0.17,0.254-0.259
		c11.612-11.61,27.804-15.847,42.755-12.709L124.471,68.747z"/>
	<path d="M64.064,174.335c-3.638-9.677-5.453-19.879-5.453-30.085c0-3.972,0.272-7.945,0.828-11.889l0.794-5.668l-12.706-12.706
		c-18.284-18.284-18.281-47.923,0-66.206c0.087-0.083,0.172-0.172,0.257-0.255c18.281-18.283,47.92-18.283,66.202,0
		c18.107,18.108,40.472,40.473,58.578,58.58c18.284,18.279,18.284,47.919,0,66.202c-0.085,0.085-0.17,0.17-0.257,0.258
		c-11.608,11.61-27.804,15.845-42.753,12.71l29.439,29.437c12.902-3.379,25.108-10.124,35.223-20.239l0.255-0.258
		c15.191-15.191,22.788-35.097,22.788-55.008c0-19.909-7.597-39.816-22.788-55.01l-58.577-58.58
		c-15.191-15.188-35.1-22.784-55.012-22.784c-19.907,0-39.816,7.596-55.008,22.784l-0.254,0.257
		C10.428,41.063,2.832,60.976,2.832,80.885s7.596,39.821,22.789,55.009L64.064,174.335z"/>
</g>
</svg>
