<?xml version="1.0" encoding="utf-8"?>
<!-- Generator: Adobe Illustrator 15.1.0, SVG Export Plug-In . SVG Version: 6.00 Build 0)  -->
<!DOCTYPE svg PUBLIC "-//W3C//DTD SVG 1.1//EN" "http://www.w3.org/Graphics/SVG/1.1/DTD/svg11.dtd">
<svg version="1.1" id="Layer_1" xmlns:serif="http://www.serif.com/"
	 xmlns="http://www.w3.org/2000/svg" xmlns:xlink="http://www.w3.org/1999/xlink" x="0px" y="0px" width="283.46px"
	 height="283.46px" viewBox="0 0 283.46 283.46" enable-background="new 0 0 283.46 283.46" xml:space="preserve">
<g>
	<path d="M130.128,92.668c-8.676,2.271-16.879,6.807-23.679,13.606l-0.173,0.172c-10.211,10.212-15.317,23.596-15.317,36.98
		c0,13.383,5.106,26.767,15.317,36.979l39.379,39.379c10.211,10.209,23.596,15.315,36.979,15.315s26.768-5.106,36.977-15.319
		l0.174-0.171c10.211-10.213,15.318-23.597,15.318-36.977c0-13.383-5.107-26.769-15.318-36.979l-25.842-25.845
		c2.443,6.507,3.666,13.365,3.666,20.224c0,2.674-0.186,5.344-0.555,7.992l-0.535,3.813l8.539,8.542
		c12.291,12.29,12.291,32.216,0,44.505c-0.057,0.057-0.115,0.113-0.17,0.173c-12.291,12.29-32.217,12.29-44.506,0
		c-12.17-12.174-27.204-27.21-39.377-39.382c-12.291-12.288-12.291-32.212,0-44.503c0.057-0.058,0.115-0.114,0.17-0.174
		c7.807-7.806,18.691-10.653,28.742-8.544L130.128,92.668z"/>
	<path d="M89.521,163.65c-2.446-6.507-3.666-13.364-3.666-20.226c0-2.67,0.183-5.341,0.557-7.992l0.534-3.81l-8.542-8.542
		c-12.291-12.291-12.289-32.216,0-44.506c0.058-0.057,0.116-0.116,0.173-0.172c12.289-12.29,32.213-12.29,44.503,0
		c12.172,12.173,27.207,27.208,39.379,39.38c12.289,12.287,12.289,32.212,0,44.504c-0.059,0.057-0.115,0.114-0.174,0.174
		c-7.803,7.803-18.691,10.651-28.74,8.544l19.791,19.787c8.672-2.271,16.877-6.804,23.678-13.604l0.172-0.173
		c10.211-10.213,15.318-23.595,15.318-36.979c0-13.384-5.107-26.766-15.318-36.979l-39.378-39.379
		c-10.211-10.21-23.595-15.316-36.981-15.316c-13.382,0-26.766,5.106-36.978,15.316l-0.171,0.172
		c-10.212,10.211-15.319,23.597-15.319,36.98c0,13.383,5.106,26.769,15.32,36.979L89.521,163.65z"/>
</g>
</svg>
