<?xml version="1.0" encoding="utf-8"?>
<!-- Generator: Adobe Illustrator 15.1.0, SVG Export Plug-In . SVG Version: 6.00 Build 0)  -->
<!DOCTYPE svg PUBLIC "-//W3C//DTD SVG 1.1//EN" "http://www.w3.org/Graphics/SVG/1.1/DTD/svg11.dtd">
<svg version="1.1" id="Layer_3" xmlns="http://www.w3.org/2000/svg" xmlns:xlink="http://www.w3.org/1999/xlink" x="0px" y="0px"
	 width="283.465px" height="283.465px" viewBox="0 0 283.465 283.465" enable-background="new 0 0 283.465 283.465"
	 xml:space="preserve">
<g>
	<path d="M254.613,232.901c-0.547-0.967-1.346-1.768-2.219-2.461c-0.873-0.684-1.82-1.271-2.734-1.904
		c-1.957-1.336-3.776-2.852-5.598-4.375c-1.818-1.525-3.639-3.072-5.164-4.902c-1.515-1.818-2.746-3.955-3.197-6.279
		c-0.273-1.42-0.254-2.883-0.369-4.324c-0.137-1.619-0.463-3.238-1.063-4.754c-0.398-1.02-0.938-1.998-1.704-2.775
		c-0.959-0.98-2.231-1.59-3.528-2.018c1.343-3.189,2.011-6.771,2.678-10.092c1.23-6.174,0.631-12.645-0.452-18.881
		c-1.483-8.512-3.978-16.82-7.144-24.848c-2.334-5.912-5.321-11.551-8.877-16.789c-3.492-5.145-8.438-9.152-12.099-14.18
		c-1.272-1.746-2.798-3.555-4.039-5.322c-2.573-3.639-2.132-3.15-3.547-5.256c-3.276-5.637-6.146-10.715-8.519-18.225
		c-4.649-14.748-0.812-32.199-4.271-45.568c-1.23-4.545-3.197-8.889-5.732-12.865c-2.967-4.66-6.731-8.826-11.203-12.064
		c-7.131-5.176-16.095-7.932-25.203-7.932c-6.313,0-12.646,1.242-18.366,4.334c-6.08,3.271-11.066,8.51-14.128,14.695
		c-3.071,6.186-4.271,12.791-4.46,20.07c-0.347,13.822,0.314,28.318,1.356,41.457c0.273,3.998,0.778,6.332,0.264,10.445
		c-0.416,2.129-1.186,4.086-2.168,5.941c-1.45,2.439-5.299,6.191-7.699,9.205c-6.417,7.279-13.012,14.338-16.631,22.219
		c-1.799,3.996-2.641,8.34-3.871,12.549c-1.389,4.773-3.282,9.402-5.406,13.904c-1.968,4.156-4.135,8.217-6.291,12.268
		c-1.578,2.955-3.177,5.963-3.724,9.268c-0.433,2.607-0.189,5.301,0.483,7.857c0.293,1.131,0.666,2.24,1.094,3.328
		c-0.854,1.094-1.551,2.295-2.219,3.498c-0.748,1.336-1.474,2.682-2.367,3.914c-0.895,1.229-1.979,2.354-3.303,3.111
		c-1.39,0.801-2.998,1.158-4.598,1.283c-1.6,0.137-3.209,0.043-4.809,0.012c-1.599-0.031-3.219-0.021-4.785,0.305
		c-1.578,0.326-3.104,0.988-4.26,2.104c-1.252,1.199-1.988,2.871-2.314,4.576c-0.337,1.715-0.295,3.471-0.168,5.207
		c0.263,3.881,0.895,7.742,1.083,11.623c0.2,3.893-0.063,7.879-1.504,11.498c-0.884,2.219-2.199,4.25-3.009,6.49
		c-0.41,1.113-0.705,2.293-0.705,3.492c0,1.188,0.242,2.398,0.842,3.43c0.777,1.326,2.094,2.281,3.503,2.914
		c1.409,0.641,2.914,0.998,4.407,1.408c3.345,0.916,6.615,2.104,9.939,3.104c10.824,3.262,22.229,4.564,32.727,8.752
		c5.154,2.053,10.57,5.029,16.115,5.029c3.491,0,6.638-0.801,9.625-2.6c2.986-1.799,5.448-4.461,7.047-7.563
		c0.56-1.084,1.012-2.221,1.355-3.389c0.74-0.16,1.48-0.318,2.223-0.473c13.82-2.83,29.242-1.695,42.065,0.156
		c4.345,0.664,8.657,1.516,12.929,2.557c2.422,0.586,4.842,1.23,7.27,1.824c0.234,0.572,0.512,1.127,0.841,1.658
		c1.642,2.629,4.376,4.406,7.216,5.639c3.135,1.367,6.543,2.188,9.951,2.188c0.343,0,0.684-0.01,1.023-0.025
		c0.222,0.01,0.443,0.016,0.666,0.016c0.069,0,0.14-0.002,0.209-0.002c3.184-0.027,6.47-1.012,9.254-2.771
		c1.849-1.162,3.396-2.588,4.813-4.1c1.722-1.551,3.343-3.223,5.021-4.824c3.05-2.914,6.312-5.617,9.846-7.922
		c5.271-3.439,11.087-5.953,16.693-8.805c3.293-1.684,6.596-3.545,8.974-6.363c1.073-1.285,1.946-2.746,2.419-4.25
		c0.168-0.547,0.242-1.094,0.242-1.643C255.34,234.712,255.088,233.753,254.613,232.901z M163.224,88.347
		c-0.463,0.967-1.378,1.641-2.347,2.104c-0.967,0.451-2.01,0.715-3.008,1.082c-4.598,1.693-8.08,5.459-12.256,8.027
		c-2.188,1.357-4.576,2.377-7.048,3.104c-0.048,0.014-0.095,0.027-0.143,0.041c-0.099,0.029-0.197,0.057-0.296,0.084
		c-0.069,0.021-0.141,0.039-0.209,0.059c-0.084,0.021-0.168,0.045-0.252,0.066c-0.07,0.02-0.144,0.037-0.215,0.057
		c-0.084,0.02-0.17,0.041-0.254,0.063c-0.068,0.018-0.14,0.033-0.209,0.051c-0.106,0.025-0.216,0.049-0.324,0.072
		c-0.084,0.02-0.17,0.039-0.256,0.057c-0.104,0.021-0.211,0.045-0.315,0.064c-0.067,0.016-0.137,0.027-0.206,0.041
		c-0.087,0.018-0.175,0.033-0.262,0.049c-0.071,0.014-0.143,0.025-0.215,0.037c-0.088,0.016-0.176,0.029-0.266,0.043
		c-0.068,0.01-0.136,0.021-0.203,0.031c-0.119,0.018-0.238,0.035-0.357,0.051c-0.076,0.01-0.152,0.02-0.229,0.027
		c-0.108,0.014-0.217,0.025-0.325,0.039c-0.066,0.006-0.136,0.012-0.203,0.02c-0.09,0.008-0.181,0.018-0.271,0.023
		c-0.069,0.006-0.141,0.012-0.211,0.018c-0.092,0.006-0.185,0.012-0.274,0.018c-0.065,0.004-0.133,0.008-0.199,0.01
		c-0.131,0.006-0.262,0.012-0.393,0.014c-0.063,0.002-0.13,0.002-0.193,0.004c-0.094,0-0.188,0.002-0.28,0.002
		c-0.019,0-0.034,0-0.052,0c-0.066,0-0.135-0.002-0.201-0.002c-0.094-0.002-0.187-0.004-0.277-0.006
		c-0.068-0.002-0.137-0.004-0.204-0.008c-0.097-0.004-0.192-0.008-0.288-0.014c-0.063-0.004-0.125-0.008-0.188-0.012
		c-0.132-0.01-0.264-0.021-0.395-0.033c-0.023-0.002-0.049-0.004-0.072-0.006c-2.355-0.242-4.67-1.01-6.605-2.377
		c-2.746-1.926-4.564-4.859-6.617-7.512c-0.039-0.051-0.078-0.1-0.119-0.15c2.597,1.516,5.795,2.389,9.297,2.525
		c0.347,0.016,0.703,0.021,1.062,0.021c3.069,0,6.068-0.521,8.339-0.979c2.006-0.396,4.639-0.982,7.207-1.992
		c3.835-1.518,7.122-3.797,9.834-5.828c1.246-0.924,2.699-2.041,4.029-3.324c0.013-0.012,0.025-0.025,0.037-0.037
		c0.354-0.354,0.688-0.686,1.014-0.967c0.26-0.211,0.408-0.273,0.454-0.289c0.044-0.014,0.142-0.033,0.321-0.033
		c0.213,0,0.48,0.027,0.839,0.086c0.093,0.016,0.187,0.031,0.278,0.049c0.533,0.096,1.197,0.213,1.932,0.213
		c0.076,0,0.15,0,0.227-0.004c0.031-0.002,0.063-0.002,0.096-0.004c0.656-0.045,1.238-0.168,1.777-0.381
		c0.254-0.1,0.495-0.221,0.726-0.357c-0.194,1.023-0.513,2.021-0.662,3.049C163.644,86.349,163.666,87.421,163.224,88.347z
		 M111.185,87.001c-0.294-0.033-0.589-0.043-0.884-0.096c-0.284-0.063-0.567-0.18-0.778-0.389c-0.082-0.09-0.151-0.195-0.206-0.309
		l0,0l0,0c-0.021-0.049-0.041-0.096-0.057-0.145c-0.053-0.178-0.073-0.357-0.073-0.525c-0.011-0.357,0.073-0.705,0.146-1.053
		c0.189-0.936,0.295-1.883,0.601-2.787c0.079-0.24,0.176-0.477,0.28-0.707c0.396-0.857,0.953-1.646,1.549-2.385
		c0.752-0.918,1.584-1.771,2.476-2.557l0,0c0.692-0.609,1.422-1.178,2.187-1.693c0.643-0.756,1.332-1.469,2.06-2.141h0.001
		c1.487-1.373,3.141-2.566,4.911-3.545l0,0c1.239-0.686,2.536-1.268,3.874-1.73c0.008-0.002,0.017-0.004,0.023-0.008
		c0.121-0.041,0.242-0.082,0.363-0.123c0.047-0.014,0.094-0.029,0.139-0.045c0.086-0.027,0.171-0.053,0.256-0.08
		c0.053-0.018,0.105-0.033,0.158-0.049c0.08-0.023,0.16-0.047,0.24-0.07c0.055-0.016,0.108-0.033,0.163-0.047
		c0.081-0.023,0.163-0.045,0.245-0.068c0.053-0.014,0.104-0.027,0.154-0.041c0.095-0.023,0.188-0.049,0.283-0.072
		c0.039-0.01,0.078-0.02,0.117-0.029c0.133-0.031,0.266-0.063,0.396-0.094c0.037-0.008,0.074-0.016,0.111-0.023
		c0.098-0.021,0.195-0.041,0.293-0.063c0.052-0.01,0.102-0.02,0.151-0.029c0.087-0.018,0.171-0.033,0.257-0.049
		c0.055-0.01,0.107-0.02,0.16-0.029c0.085-0.016,0.17-0.029,0.256-0.043c0.053-0.008,0.104-0.018,0.156-0.025
		c0.091-0.014,0.184-0.027,0.274-0.041c0.045-0.006,0.09-0.012,0.135-0.02c0.133-0.018,0.267-0.035,0.397-0.051
		c0.004,0,0.008,0,0.011,0c0.138-0.016,0.274-0.029,0.411-0.043c0.041-0.004,0.082-0.006,0.123-0.01
		c0.098-0.008,0.193-0.018,0.289-0.023c0.051-0.004,0.1-0.008,0.147-0.01c0.09-0.006,0.181-0.012,0.271-0.016
		c0.051-0.002,0.101-0.006,0.15-0.008c0.091-0.004,0.184-0.006,0.274-0.01c0.047,0,0.093-0.004,0.14-0.004
		c0.107-0.002,0.215-0.004,0.322-0.004c0.027,0,0.058-0.002,0.087,0c0.183,0,0.362,0.002,0.543,0.01
		c0.036,0,0.071,0.002,0.106,0.002c0.181,0.008,0.358,0.016,0.539,0.027c0.022,0,0.045,0.004,0.068,0.004
		c0.17,0.014,0.339,0.027,0.507,0.043c0.025,0.002,0.052,0.006,0.076,0.008c0.179,0.02,0.354,0.041,0.531,0.064
		c0.036,0.006,0.071,0.01,0.108,0.016c0.179,0.025,0.355,0.055,0.533,0.084c0.016,0.002,0.03,0.008,0.045,0.01
		c0.17,0.029,0.338,0.063,0.506,0.1c0.031,0.006,0.063,0.012,0.095,0.021c0.173,0.037,0.346,0.078,0.518,0.123
		c0.034,0.008,0.069,0.018,0.104,0.027c0.178,0.045,0.354,0.094,0.529,0.148c1.705,0.525,3.305,1.336,4.883,2.178
		c1.524,0.82,3.039,1.672,4.597,2.439c3.124,1.557,6.427,2.768,9.825,3.588c0.283,0.068,0.568,0.137,0.854,0.205
		c0.822,0.197,1.644,0.408,2.416,0.752c0.757,0.336,1.483,0.818,1.903,1.535c0.211,0.357,0.337,0.768,0.337,1.188
		c0,0.051-0.002,0.104-0.007,0.154c-0.029,0.359-0.163,0.717-0.393,0.994c-0.2,0.252-0.475,0.43-0.77,0.547
		c-0.294,0.115-0.609,0.168-0.925,0.188c-0.046,0.002-0.089,0.002-0.134,0.002c-0.584,0-1.162-0.125-1.739-0.223
		c-0.433-0.07-0.873-0.125-1.31-0.125c-0.401,0-0.801,0.047-1.185,0.168c-0.525,0.168-0.999,0.473-1.42,0.82
		c-0.421,0.357-0.811,0.746-1.199,1.137c-1.168,1.125-2.451,2.125-3.755,3.092c-2.852,2.135-5.85,4.146-9.174,5.459
		c-2.167,0.854-4.438,1.4-6.723,1.854c-2.569,0.516-5.174,0.922-7.781,0.922c-0.315,0-0.633-0.006-0.948-0.02
		c-2.935-0.115-5.892-0.809-8.363-2.377c-1.125-0.705-2.135-1.588-3.229-2.334C113.709,87.788,112.5,87.157,111.185,87.001z
		 M154.282,39.884c1.872,0.432,3.65,1.242,5.249,2.293c3.324,2.209,5.807,5.48,7.531,9.1c-0.314,0.525-0.673,1-1.072,1.441
		c-1.715-3.473-4.154-6.586-7.374-8.721c-1.661-1.104-3.514-1.904-5.46-2.324C153.463,41.021,153.851,40.433,154.282,39.884z
		 M139.871,54.38c1.03-2.881,3.146-5.291,5.659-7.027c0.789-0.535,1.609-1.01,2.493-1.357c1.557-0.6,3.262-0.777,4.912-0.547
		c1.65,0.232,3.24,0.854,4.629,1.758c2.798,1.809,4.775,4.713,5.869,7.857c1.01,2.893,1.305,6.006,1.137,9.057
		c-0.137,2.41-0.568,4.818-1.578,7.008c-0.25,0.541-0.541,1.068-0.867,1.572c-0.877-0.326-1.741-0.535-2.522-0.721
		c-0.19-0.045-0.383-0.09-0.573-0.137c-0.007-0.002-0.012-0.004-0.018-0.004c-0.884-0.213-1.763-0.457-2.634-0.727
		c0.829-0.641,1.504-1.475,1.997-2.404c0.547-1.021,0.884-2.156,1.031-3.313c0.262-2.031-0.033-4.156-0.979-5.986
		c-0.937-1.83-2.535-3.334-4.46-4.039c-0.842-0.305-1.736-0.463-2.619-0.398c-0.947,0.063-1.873,0.389-2.684,0.893
		c-0.799,0.506-1.482,1.189-2.02,1.979c-1.084,1.566-1.558,3.482-1.631,5.387c-0.035,0.941,0.023,1.891,0.204,2.816
		c-1.552-0.828-3.368-1.756-5.339-2.363c-0.006-0.002-0.012-0.004-0.018-0.006c-0.053-0.016-0.106-0.029-0.16-0.045
		C138.938,60.567,138.811,57.331,139.871,54.38z M120.483,48.132c1.084,0.537,2.052,1.295,2.894,2.168
		c1.746,1.799,2.998,4.049,3.787,6.426c0.729,2.229,1.062,4.576,1.135,6.922c-0.655,0.172-1.313,0.373-1.967,0.602
		c-0.837,0.289-1.656,0.619-2.457,0.986c-0.018-1.258-0.228-2.52-0.604-3.723c-0.516-1.693-1.389-3.324-2.735-4.461
		c-0.651-0.547-1.409-0.979-2.229-1.166c-0.821-0.201-1.716-0.148-2.483,0.199c-0.852,0.389-1.515,1.125-1.945,1.957
		c-0.432,0.83-0.651,1.758-0.811,2.684c-0.336,2.041-0.348,4.176,0.348,6.109c0.463,1.285,1.23,2.453,2.156,3.451
		c0.124,0.137,0.253,0.268,0.387,0.396c-0.502,0.492-0.986,1.004-1.451,1.535c-0.769,0.535-1.502,1.115-2.201,1.736
		c-0.502-0.73-0.916-1.523-1.246-2.352c-1.094-2.715-1.315-5.691-1.525-8.605c-0.23-3.229-0.463-6.553,0.559-9.625
		c0.516-1.525,1.347-2.977,2.535-4.082c1.178-1.104,2.725-1.852,4.334-1.936C118.17,47.29,119.39,47.595,120.483,48.132z
		 M110.847,45.382c1.216-1.066,2.608-1.951,4.126-2.529c0.425,0.406,0.818,0.854,1.15,1.365c-1.58,0.58-3.037,1.463-4.299,2.582
		c-2.447,2.162-4.127,5.051-5.158,8.156c-0.385-0.322-0.739-0.678-1.065-1.082C106.625,50.646,108.321,47.616,110.847,45.382z
		 M99.725,266.37c-0.104,0.053-0.205,0.104-0.309,0.152c-0.063,0.029-0.125,0.057-0.188,0.084c-0.094,0.043-0.188,0.086-0.283,0.127
		c-0.066,0.029-0.135,0.057-0.201,0.084c-0.093,0.039-0.184,0.076-0.275,0.111c-0.07,0.027-0.141,0.055-0.213,0.08
		c-0.09,0.033-0.181,0.066-0.271,0.1c-0.073,0.025-0.146,0.051-0.22,0.074c-0.09,0.029-0.18,0.061-0.271,0.088
		c-0.074,0.023-0.148,0.047-0.224,0.068c-0.091,0.027-0.183,0.053-0.272,0.078c-0.076,0.021-0.15,0.041-0.228,0.063
		c-0.091,0.021-0.183,0.045-0.274,0.066c-0.076,0.02-0.151,0.037-0.229,0.055c-0.094,0.021-0.188,0.041-0.281,0.061
		c-0.074,0.018-0.148,0.031-0.226,0.047c-0.097,0.02-0.194,0.035-0.292,0.053c-0.072,0.012-0.146,0.025-0.217,0.037
		c-0.107,0.018-0.217,0.031-0.323,0.047c-0.063,0.008-0.126,0.018-0.188,0.025c-0.169,0.021-0.339,0.039-0.509,0.057
		c-0.042,0.004-0.084,0.006-0.127,0.01c-0.129,0.01-0.259,0.02-0.39,0.029c-0.066,0.004-0.135,0.006-0.203,0.01
		c-0.104,0.004-0.208,0.01-0.313,0.012c-0.073,0.002-0.146,0.004-0.222,0.004c-0.104,0.002-0.21,0.004-0.314,0.002
		c-0.035,0-0.072,0-0.106,0c-0.159-0.002-0.318-0.006-0.478-0.012c-4.505-0.182-8.674-2.199-12.97-3.549
		c-7.618-2.375-15.751-2.66-23.56-4.363c-3.286-0.711-6.532-1.688-9.854-2.219c-1.475-0.236-2.966-0.389-4.378-0.85
		c-1.411-0.461-2.765-1.271-3.539-2.521c-0.535-0.881-0.752-1.924-0.728-2.957c0.026-1.021,0.285-2.035,0.641-3.01
		c0.723-1.93,1.828-3.729,2.357-5.711c0.791-2.934,0.269-6.035-0.563-8.957c-0.819-2.91-1.951-5.754-2.396-8.744
		c-0.198-1.328-0.262-2.695-0.008-4.023c0.244-1.326,0.807-2.617,1.739-3.598c1.205-1.268,2.942-1.957,4.699-2.207
		c0.149-0.021,0.301-0.039,0.451-0.057c0.032-0.002,0.065-0.006,0.1-0.01c0.149-0.014,0.3-0.025,0.449-0.037
		c0.005,0,0.009,0,0.015,0c0.147-0.01,0.297-0.016,0.444-0.021c0.029,0,0.06-0.002,0.087-0.002c0.153-0.004,0.307-0.006,0.459-0.006
		c0.01,0,0.02,0,0.029,0c0.117,0,0.234,0.002,0.352,0.004c0.031,0,0.063,0,0.092,0.002c0.101,0.002,0.199,0.006,0.299,0.008
		c0.031,0.002,0.063,0.004,0.096,0.004c0.107,0.006,0.216,0.01,0.324,0.018c0.019,0,0.037,0.002,0.057,0.002
		c0.26,0.016,0.521,0.033,0.781,0.055c0.023,0.002,0.049,0.004,0.074,0.006c0.105,0.008,0.213,0.018,0.319,0.027
		c0.025,0.002,0.052,0.004,0.076,0.006c0.12,0.012,0.24,0.021,0.36,0.033c0.004,0,0.008,0,0.011,0
		c0.135,0.014,0.271,0.025,0.404,0.039c0.2,0.02,0.401,0.039,0.603,0.059c0.059,0.006,0.116,0.012,0.176,0.018
		c0.069,0.008,0.142,0.016,0.213,0.021c0.131,0.012,0.262,0.023,0.392,0.035c0.044,0.004,0.087,0.008,0.131,0.012
		c0.116,0.01,0.232,0.02,0.349,0.027c0.029,0.002,0.059,0.006,0.088,0.008c0.142,0.012,0.283,0.021,0.427,0.029
		c0.03,0.002,0.062,0.004,0.093,0.006c0.122,0.008,0.245,0.016,0.368,0.021c0.026,0,0.056,0.002,0.083,0.004
		c0.146,0.006,0.29,0.012,0.436,0.016c0.023,0,0.049,0,0.072,0.002c0.125,0.002,0.249,0.004,0.373,0.004
		c0.021,0,0.04,0.002,0.061,0.002c0.015,0,0.029,0,0.044,0c0.071-0.002,0.144-0.002,0.215-0.004c0.045,0,0.089-0.002,0.133-0.002
		c0.07-0.002,0.142-0.004,0.21-0.006c0.046-0.002,0.094-0.004,0.139-0.006c0.068-0.004,0.138-0.008,0.205-0.012
		c0.047-0.002,0.094-0.004,0.143-0.008c0.076-0.006,0.154-0.014,0.232-0.02c0.034-0.004,0.07-0.006,0.105-0.01
		c0.771-0.066,1.544-0.209,2.281-0.445c0.8-0.254,1.556-0.619,2.222-1.113c0.035-0.025,0.072-0.053,0.106-0.078
		c0.004-0.004,0.006-0.006,0.01-0.01c0.083-0.063,0.164-0.131,0.244-0.199c0.041-0.035,0.078-0.07,0.117-0.107
		c1.246-1.129,2-2.705,2.406-4.316c0.416-1.672,0.494-3.393,0.615-5.104s0.293-3.445,0.881-5.063
		c0.025-0.07,0.055-0.139,0.082-0.209c5.133,9.939,12.789,18.496,21.844,25.066c4.145,2.998,8.572,5.598,13.231,7.732
		c0.519,0.234,1.04,0.465,1.568,0.682c3.177,4.604,5.766,9.631,7.065,15.035c0.086,0.359,0.166,0.723,0.238,1.088
		c0.012,0.059,0.021,0.115,0.034,0.172c0.071,0.371,0.137,0.744,0.192,1.119c0.526,3.465,0.371,7.043-1.127,10.182
		c-1.219,2.555-3.277,4.691-5.772,6.08c-0.149,0.086-0.3,0.166-0.453,0.246C99.828,266.319,99.775,266.345,99.725,266.37z
		 M157.08,244.778c-13.56,7.227-30.601,7.217-44.392,0.432c-0.913-0.449-1.813-0.928-2.697-1.432
		c-0.475-0.715-0.97-1.416-1.479-2.104c-0.396-0.533-0.802-1.059-1.212-1.58c-0.914-2.119-2.025-4.246-3.342-6.398
		c0.699,0.127,1.406,0.205,2.123,0.217c1.39,0.031,2.787-0.199,4.062-0.758c1.262-0.557,2.397-1.451,3.155-2.619
		c0.926-1.432,1.24-3.209,1.052-4.9c-0.188-1.695-0.853-3.314-1.735-4.768c-2.167-3.555-5.586-6.133-8.878-8.678
		c-7.11-5.502-13.979-11.318-20.565-17.441c-0.689-0.646-1.381-1.299-2.045-1.977c-0.185-3.807-0.082-7.627,0.289-11.414
		c0.957-9.805,3.682-19.396,7.657-28.412c2.63-5.943,5.796-11.656,9.446-17.02c-0.348-3.398-0.021-6.859,0.957-10.121
		c1.609-5.396,4.913-10.109,8.186-14.695c1.883-2.639,3.808-5.365,4.67-8.5c0.811-2.934,0.621-6.027,0.735-9.066
		c0.002-0.053,0.006-0.105,0.009-0.156c0.577,0.609,1.168,1.305,1.78,2.094c0.406,0.525,0.804,1.063,1.226,1.633
		c1.696,2.297,3.451,4.672,6.002,6.461c2.238,1.58,4.989,2.576,7.955,2.881c0.004,0,0.008,0,0.01,0.002
		c0.64,0.063,1.298,0.096,1.957,0.096c2.326,0,4.735-0.379,7.367-1.156c2.816-0.826,5.422-1.975,7.738-3.412
		c1.678-1.031,3.215-2.213,4.702-3.357c2.345-1.803,4.562-3.506,7.041-4.42c0.308-0.113,0.635-0.219,0.981-0.332
		c0.688-0.225,1.47-0.479,2.248-0.844c0.008-0.002,0.016-0.006,0.022-0.01c0.719-0.346,1.351-0.742,1.894-1.191
		c0.688,1.578,1.288,3.197,1.957,4.785c2,4.732,4.618,9.182,6.774,13.863c2.978,6.469,5.028,13.381,6.06,20.428
		c3.902,4.029,7.152,8.678,9.594,13.729c7.09,14.652,7.027,31.736,5.103,47.895c-0.12,1.004-0.249,2.01-0.388,3.016
		c-0.139-0.006-0.275-0.012-0.414-0.012c-0.031,0-0.063,0-0.096,0c-0.006,0-0.012,0-0.02,0c-0.703,0.014-1.41,0.119-2.102,0.311
		c-1.25-0.188-2.51-0.377-3.768-0.307c-1.295,0.064-2.6,0.443-3.578,1.283c-1.051,0.906-1.619,2.283-1.829,3.662
		c-0.21,1.377-0.095,2.775,0.011,4.164c0.462,6.518,0.564,13.064,0.159,19.576c-1.759,1.971-3.649,3.834-5.545,5.67
		C170.155,235.479,164.17,241.001,157.08,244.778z M244.42,234.112c-0.049,1.404-0.784,2.723-1.734,3.777
		c-0.951,1.055-2.116,1.893-3.227,2.791c-2.502,2.021-4.729,4.379-7.117,6.535c-5.666,5.133-12.274,9.246-17.463,14.846
		c-2.92,3.164-5.418,6.826-9.067,9.123c-2.313,1.461-5.036,2.307-7.763,2.33c-0.004,0-0.006,0-0.01,0
		c-0.113,0-0.228-0.002-0.34-0.002c-0.082-0.002-0.164-0.002-0.246-0.006c-0.086-0.002-0.174-0.006-0.26-0.012
		c-0.082-0.004-0.164-0.008-0.246-0.014c-0.086-0.006-0.173-0.014-0.259-0.02c-0.082-0.008-0.163-0.016-0.245-0.023
		c-0.086-0.008-0.172-0.02-0.258-0.029c-0.081-0.012-0.163-0.021-0.243-0.031c-0.087-0.014-0.172-0.027-0.258-0.041
		c-0.08-0.014-0.161-0.025-0.241-0.039c-0.086-0.018-0.172-0.035-0.258-0.053c-0.078-0.016-0.157-0.029-0.236-0.049
		c-0.086-0.018-0.172-0.039-0.258-0.061c-0.077-0.02-0.155-0.037-0.232-0.057c-0.086-0.021-0.172-0.047-0.259-0.07
		c-0.075-0.021-0.149-0.043-0.226-0.064c-0.088-0.025-0.174-0.055-0.26-0.082c-0.073-0.023-0.146-0.047-0.221-0.072
		c-0.087-0.027-0.174-0.061-0.26-0.094c-0.071-0.025-0.143-0.051-0.213-0.076c-0.087-0.035-0.174-0.07-0.262-0.105
		c-0.067-0.027-0.137-0.055-0.204-0.084c-0.089-0.037-0.175-0.078-0.263-0.117c-0.064-0.029-0.131-0.059-0.194-0.09
		c-0.09-0.043-0.179-0.088-0.269-0.133c-0.061-0.029-0.121-0.061-0.182-0.092c-0.093-0.049-0.186-0.1-0.275-0.15
		c-0.056-0.031-0.109-0.061-0.164-0.092c-0.102-0.059-0.201-0.119-0.301-0.182c-0.043-0.025-0.087-0.051-0.129-0.078
		c-0.143-0.088-0.281-0.18-0.42-0.275c-0.843-0.582-1.6-1.26-2.279-2.01c-2.039-2.248-3.383-5.148-4.254-8.096
		c-1.068-3.645-1.501-7.443-1.499-11.26c0.001-2.291,0.158-4.588,0.427-6.861c0.395-3.359,1.028-6.684,1.533-10.025
		c0.168-1.113,0.321-2.229,0.447-3.35c0.462-4.244,0.518-8.51,0.516-12.771c0-1.162-0.005-2.326-0.007-3.488
		c-0.001-0.773-0.001-1.549,0.002-2.322c0.015-2.701,0.095-5.492,1.183-7.975c0.412-0.936,0.971-1.814,1.674-2.559
		c0.234-0.248,0.484-0.479,0.752-0.691c1.064-0.855,2.4-1.406,3.769-1.432c0.062,0,0.12,0.002,0.181,0.004
		c0.055,0.002,0.108,0.002,0.162,0.006c0.049,0.002,0.099,0.006,0.146,0.01c0.054,0.004,0.105,0.008,0.159,0.014
		c0.05,0.006,0.099,0.014,0.147,0.02c0.053,0.008,0.104,0.014,0.156,0.021c0.051,0.008,0.1,0.02,0.149,0.027
		c0.051,0.01,0.101,0.018,0.149,0.027c0.053,0.014,0.104,0.025,0.154,0.037c0.048,0.014,0.096,0.023,0.145,0.035
		c0.053,0.016,0.104,0.031,0.156,0.045c0.047,0.016,0.092,0.027,0.137,0.041c0.055,0.018,0.107,0.037,0.162,0.057
		c0.043,0.014,0.086,0.027,0.129,0.045c0.056,0.02,0.109,0.043,0.166,0.064c0.039,0.016,0.08,0.031,0.119,0.047
		c0.058,0.023,0.113,0.051,0.172,0.076c0.035,0.018,0.072,0.031,0.108,0.049c0.052,0.025,0.103,0.051,0.151,0.076
		c-0.314,1.752-0.382,3.557-0.242,5.332c0.189,2.387,0.801,4.85,2.367,6.648c1.271,1.461,3.07,2.377,4.923,2.924
		c3.197,0.947,6.681,0.895,9.846-0.137c4.587-1.541,8.71-4.41,11.771-8.15c0.068-0.049,0.137-0.1,0.201-0.148
		c0.628-0.488,1.194-1.021,1.709-1.592c0.58,0.188,1.123,0.467,1.619,0.816c0.523,0.367,0.998,0.811,1.41,1.297
		c0.844,0.98,1.442,2.145,1.91,3.342c1.059,2.691,1.473,5.59,2.182,8.395c0.701,2.818,1.746,5.643,3.801,7.697l0,0
		c0.014,0.016,0.027,0.027,0.042,0.041c1.243,1.236,2.792,2.139,4.187,3.217c0.151,0.117,0.301,0.234,0.448,0.357
		c0.188,0.158,0.376,0.324,0.556,0.494c0.541,0.51,1.027,1.07,1.41,1.697C244.127,232.157,244.443,233.128,244.42,234.112z"/>
	<path d="M137.935,70.476c0.548,0.283,0.989,0.904,1.61,0.924c0.588,0.012,1.515-0.209,1.588-0.799
		c0.095-0.768-1.031-1.262-1.758-1.545c-0.937-0.357-2.135-0.547-3.008-0.064c-0.199,0.117-0.421,0.379-0.357,0.602
		C136.221,70.265,137.304,70.149,137.935,70.476z"/>
</g>
</svg>
