<?xml version="1.0" encoding="utf-8"?>
<!-- Generator: Adobe Illustrator 15.1.0, SVG Export Plug-In . SVG Version: 6.00 Build 0)  -->
<!DOCTYPE svg PUBLIC "-//W3C//DTD SVG 1.1//EN" "http://www.w3.org/Graphics/SVG/1.1/DTD/svg11.dtd">
<svg version="1.1" id="Layer_1" xmlns="http://www.w3.org/2000/svg" xmlns:xlink="http://www.w3.org/1999/xlink" x="0px" y="0px"
	 width="283.465px" height="283.465px" viewBox="0 0 283.465 283.465" enable-background="new 0 0 283.465 283.465"
	 xml:space="preserve">
<g transform="translate(4 5)">
	<g>
		<path d="M260.315,145.68H91.453c-6.667,0-12.063-5.396-12.063-12.063s5.396-12.062,12.063-12.062h168.862
			c6.667,0,12.063,5.395,12.063,12.062S266.982,145.68,260.315,145.68z"/>
		<path d="M260.315,242.172H91.453c-6.667,0-12.063-5.395-12.063-12.063c0-6.666,5.396-12.062,12.063-12.062h168.862
			c6.667,0,12.063,5.396,12.063,12.062C272.378,236.777,266.982,242.172,260.315,242.172z"/>
		<path d="M260.315,49.186H91.453c-6.667,0-12.063-5.395-12.063-12.062s5.396-12.062,12.063-12.062h168.862
			c6.667,0,12.063,5.395,12.063,12.062S266.982,49.186,260.315,49.186z"/>
	</g>
	<path d="M28.247,73.309V20.916h-0.896L10.956,31.988V17.099L28.248,5.332h17.303v67.977H28.247z"/>
	<path d="M4.594,123.205c0-13.805,10.884-23.228,26.762-23.228c15.736,0,25.113,8.528,25.113,20.166
		c0,8.057-3.581,13.381-14.417,23.181l-13.381,12.107v0.896h28.6v13.475H5.585v-11.544l24.312-22.003
		c8.388-7.68,9.8-10.602,9.8-14.606c0-4.712-3.298-8.623-9.234-8.623c-6.313,0-10.036,4.288-10.036,10.177L4.594,123.205
		L4.594,123.205z M21.792,237.32v-11.686h8.717c5.748,0,9.47-3.346,9.47-8.244c0-4.619-3.534-8.011-9.376-8.011
		c-6.125,0-9.847,3.251-10.13,8.765H4.735c0.235-13.053,10.555-21.674,26.716-21.674c15.925,0,24.642,8.34,24.594,18.469
		c0,8.199-5.277,13.617-12.721,15.359v0.896c9.8,1.365,15.453,7.443,15.453,16.396c0,12.156-11.591,20.542-27.939,20.542
		c-16.161,0-27.139-8.716-27.751-22.097h16.491c0.235,5.229,4.476,8.479,11.024,8.479c6.313,0,10.602-3.438,10.602-8.574
		c0-5.371-4.053-8.623-10.695-8.623h-8.717V237.32z"/>
</g>
</svg>
