<?xml version="1.0" encoding="utf-8"?>
<!-- Generator: Adobe Illustrator 15.1.0, SVG Export Plug-In . SVG Version: 6.00 Build 0)  -->
<!DOCTYPE svg PUBLIC "-//W3C//DTD SVG 1.1//EN" "http://www.w3.org/Graphics/SVG/1.1/DTD/svg11.dtd">
<svg version="1.1" id="Layer_1" xmlns="http://www.w3.org/2000/svg" xmlns:xlink="http://www.w3.org/1999/xlink" x="0px" y="0px"
	 width="283.465px" height="283.465px" viewBox="0 0 283.465 283.465" enable-background="new 0 0 283.465 283.465"
	 xml:space="preserve">
<g transform="translate(4 6)">
	<path d="M243.526,49.174H12.705c-5.316,0-9.617-4.301-9.617-9.618c0-5.316,4.301-9.617,9.617-9.617h230.821
		c5.315,0,9.617,4.301,9.617,9.617C253.144,44.874,248.842,49.174,243.526,49.174z"/>
	<path d="M243.526,126.114H12.705c-5.316,0-9.617-4.302-9.617-9.618c0-5.316,4.301-9.617,9.617-9.617h230.821
		c5.315,0,9.617,4.301,9.617,9.617C253.144,121.813,248.842,126.114,243.526,126.114z"/>
	<path d="M147.351,203.055H12.704c-5.316,0-9.617-4.301-9.617-9.617c0-5.314,4.301-9.617,9.617-9.617h134.646
		c5.315,0,9.617,4.303,9.617,9.617C156.968,198.754,152.667,203.055,147.351,203.055z"/>
	<path d="M224.291,241.525c-5.314,0-9.617-4.302-9.617-9.617v-28.854h-28.853c-5.316,0-9.617-4.301-9.617-9.617
		c0-5.314,4.301-9.617,9.617-9.617h28.852v-28.854c0-5.315,4.303-9.617,9.617-9.617c5.316,0,9.618,4.302,9.618,9.617v28.854h28.853
		c5.315,0,9.617,4.303,9.617,9.617c0,5.316-4.302,9.617-9.617,9.617h-28.853v28.854
		C233.909,237.224,229.607,241.525,224.291,241.525z"/>
</g>
</svg>
