<?xml version="1.0" encoding="UTF-8" standalone="no"?><!DOCTYPE svg PUBLIC "-//W3C//DTD SVG 1.1//EN" "http://www.w3.org/Graphics/SVG/1.1/DTD/svg11.dtd"><svg width="100%" height="100%" viewBox="0 0 130 130" version="1.1" xmlns="http://www.w3.org/2000/svg" xmlns:xlink="http://www.w3.org/1999/xlink" xml:space="preserve" xmlns:serif="http://www.serif.com/" style="fill-rule:evenodd;clip-rule:evenodd;stroke-linejoin:round;stroke-miterlimit:2;"><rect id="little-dancing-man" x="3.274" y="0.999" width="125" height="125" style="fill:none;"/><path d="M41.982,36.929c-0.355,-0.31 -0.668,-0.672 -0.926,-1.076c-3.028,-4.74 -7.915,-12.389 -10.943,-17.129c-0.714,-1.118 -0.955,-2.475 -0.67,-3.771c0.286,-1.297 1.075,-2.426 2.194,-3.141c0.166,-0.106 0.333,-0.213 0.499,-0.319c1.118,-0.714 2.475,-0.955 3.771,-0.67c1.297,0.286 2.426,1.075 3.141,2.193l10.39,16.265l11.477,8.255c0.493,-0.135 1.012,-0.206 1.548,-0.206l6.254,-0c-5.321,-0 -9.641,-4.32 -9.641,-9.641c0,-5.321 4.32,-9.641 9.641,-9.641c5.322,-0 9.642,4.32 9.642,9.641c-0,5.321 -4.32,9.641 -9.642,9.641l7.083,-0c0.084,-0 0.167,0.002 0.25,0.005c0.09,-0.004 0.18,-0.006 0.27,-0.005c1.328,0.011 2.596,0.55 3.527,1.496c3.645,3.708 9.315,9.476 12.96,13.183c0.149,0.152 0.287,0.312 0.414,0.479c0.297,0.365 0.544,0.775 0.73,1.217c2.181,5.185 5.699,13.552 7.879,18.736c0.515,1.224 0.522,2.602 0.021,3.831c-0.502,1.229 -1.471,2.208 -2.694,2.723c-0.182,0.076 -0.365,0.153 -0.546,0.229c-1.224,0.515 -2.602,0.522 -3.831,0.021c-1.229,-0.501 -2.208,-1.47 -2.723,-2.694l-7.481,-17.791l-2.891,-2.941l-0,8.894c-0,0.996 -0.125,1.894 -0.359,2.702c0.025,0.115 0.047,0.231 0.065,0.347c0.77,5.142 1.969,13.141 2.739,18.283l3.02,20.151c0.196,1.313 -0.136,2.65 -0.926,3.717c-0.789,1.068 -1.969,1.778 -3.282,1.975c-0.195,0.029 -0.391,0.058 -0.586,0.087c-1.313,0.197 -2.65,-0.136 -3.717,-0.925c-1.067,-0.789 -1.777,-1.97 -1.974,-3.282c-0.834,-5.563 -2.179,-14.539 -3.012,-20.101l-2.097,-13.993c-0.917,0.091 -1.866,0.133 -2.832,0.133c-0.002,-0 -0.004,-0 -0.007,-0c-1.055,-0 -2.071,-0.05 -3.034,-0.16l-16.74,7.404l6.877,13.126c0.616,1.176 0.74,2.548 0.344,3.815c-0.395,1.267 -1.278,2.325 -2.454,2.941c-0.175,0.092 -0.35,0.183 -0.525,0.275c-1.176,0.616 -2.548,0.74 -3.815,0.344c-1.267,-0.396 -2.325,-1.279 -2.941,-2.454c-2.61,-4.982 -6.823,-13.022 -9.433,-18.004c-0.274,-0.524 -0.451,-1.087 -0.528,-1.662c-0.227,-0.973 -0.159,-1.999 0.206,-2.944c0.479,-1.238 1.43,-2.235 2.643,-2.772l17.331,-7.665c-0.046,-0.426 -0.07,-0.871 -0.07,-1.338l0,-17.237l-14.107,-10.146c-0.172,-0.124 -0.335,-0.258 -0.489,-0.401Z"/></svg>