<?xml version="1.0" encoding="utf-8"?>
<!-- Generator: Adobe Illustrator 15.1.0, SVG Export Plug-In . SVG Version: 6.00 Build 0)  -->
<!DOCTYPE svg PUBLIC "-//W3C//DTD SVG 1.1//EN" "http://www.w3.org/Graphics/SVG/1.1/DTD/svg11.dtd">
<svg version="1.1" id="Layer_1" xmlns="http://www.w3.org/2000/svg" xmlns:xlink="http://www.w3.org/1999/xlink" x="0px" y="0px"
	 width="283.46px" height="283.46px" viewBox="0 0 283.46 283.46" enable-background="new 0 0 283.46 283.46" xml:space="preserve">
<g>
	<rect x="29.218" y="92.042" width="22.502" height="99.377"/>
	<rect x="51.72" y="92.042" width="22.502" height="99.377"/>
	<rect x="74.223" y="92.042" width="22.502" height="99.377"/>
	<rect x="96.725" y="92.042" width="22.502" height="99.377"/>
	<rect x="119.228" y="92.042" width="22.502" height="99.377"/>
	<rect x="141.73" y="92.042" width="22.502" height="99.377"/>
	<rect x="164.232" y="92.042" width="22.502" height="99.377"/>
	<rect x="186.734" y="92.042" width="22.502" height="99.377"/>
	<rect x="209.236" y="92.042" width="22.502" height="99.377"/>
	<rect x="231.738" y="92.042" width="22.502" height="99.377"/>
	<g>
		<path fill="none" d="M254.242,187.764c0,2.179-2.109,3.944-4.711,3.944H33.929c-2.602,0-4.711-1.767-4.711-3.944V95.698
			c0-2.18,2.109-3.946,4.711-3.946h215.604c2.602,0,4.709,1.767,4.709,3.946V187.764L254.242,187.764z"/>
		<path d="M260.033,75.503H23.427c-9.012,0-16.343,6.143-16.343,13.691v105.073c0,7.55,7.331,13.689,16.343,13.689h236.605
			c9.012,0,16.344-6.141,16.344-13.689V89.194C276.376,81.646,269.044,75.503,260.033,75.503z M264.744,194.268
			c0,2.179-2.109,3.946-4.711,3.946H23.427c-2.602,0-4.71-1.769-4.71-3.946V89.194c0-2.18,2.108-3.946,4.71-3.946h236.605
			c2.602,0,4.711,1.767,4.711,3.946V194.268L264.744,194.268z"/>
	</g>
</g>
</svg>
