<?xml version="1.0" encoding="utf-8"?>
<!-- Generator: Adobe Illustrator 15.1.0, SVG Export Plug-In . SVG Version: 6.00 Build 0)  -->
<!DOCTYPE svg PUBLIC "-//W3C//DTD SVG 1.1//EN" "http://www.w3.org/Graphics/SVG/1.1/DTD/svg11.dtd">
<svg version="1.1" id="Layer_1" xmlns="http://www.w3.org/2000/svg" xmlns:xlink="http://www.w3.org/1999/xlink" x="0px" y="0px"
	 width="283.46px" height="283.46px" viewBox="0 0 283.46 283.46" enable-background="new 0 0 283.46 283.46" xml:space="preserve">
<g>
	<g>
		<path fill="none" d="M260.033,85.248H23.427c-2.602,0-4.71,1.767-4.71,3.946v105.073c0,2.179,2.108,3.946,4.71,3.946h236.606
			c2.601,0,4.71-1.768,4.71-3.946V89.194C264.743,87.015,262.634,85.248,260.033,85.248z"/>
		<path d="M260.033,75.503H23.427c-9.012,0-16.343,6.143-16.343,13.691v105.073c0,7.55,7.331,13.689,16.343,13.689h236.606
			c9.012,0,16.343-6.14,16.343-13.689V89.194C276.376,81.646,269.045,75.503,260.033,75.503z M264.743,194.268
			c0,2.179-2.109,3.946-4.71,3.946H23.427c-2.602,0-4.71-1.768-4.71-3.946V89.194c0-2.18,2.108-3.946,4.71-3.946h236.606
			c2.601,0,4.71,1.767,4.71,3.946V194.268z"/>
	</g>
</g>
</svg>
