<?xml version="1.0" encoding="utf-8"?>
<!-- Generator: Adobe Illustrator 15.1.0, SVG Export Plug-In . SVG Version: 6.00 Build 0)  -->
<!DOCTYPE svg PUBLIC "-//W3C//DTD SVG 1.0//EN" "http://www.w3.org/TR/2001/REC-SVG-20010904/DTD/svg10.dtd">
<svg version="1.0" id="Layer_2" xmlns="http://www.w3.org/2000/svg" xmlns:xlink="http://www.w3.org/1999/xlink" x="0px" y="0px"
	 width="283.46px" height="283.46px" viewBox="0 0 283.46 283.46" enable-background="new 0 0 283.46 283.46" xml:space="preserve">
<g>
	<path d="M228.394,139.045h-7.938l0.002-0.274h-26.25v0.274H88.926v-0.274h-0.131V91.142l0.076-0.597
		c3.144-33.478,25.769-58.724,52.627-58.724c26.694,0,49.2,25.277,52.347,58.761l0.076,1.075v9.573H220.3V89.714h-0.043
		c-4.219-47.13-38.021-82.63-78.758-82.63c-40.588,0-74.264,35.519-78.337,82.62h-0.001v0.01v8.066v41.265h-8.096
		c-2.592,0-4.693,2.42-4.693,5.408V270.97c0,2.984,2.103,5.404,4.693,5.404h173.331c2.594,0,4.693-2.42,4.693-5.404V144.455
		C233.089,141.466,230.99,139.045,228.394,139.045z M150.734,207.067v27.808c0,2.625-2.799,4.754-6.25,4.754h-5.506
		c-3.453,0-6.251-2.129-6.251-4.754v-27.808c-4.772-3.001-7.954-8.298-7.954-14.353c0-9.364,7.592-16.959,16.957-16.959
		c9.366,0,16.956,7.595,16.956,16.959C158.685,198.769,155.505,204.066,150.734,207.067z"/>
</g>
</svg>
