<?xml version="1.0" encoding="utf-8"?>
<!-- Generator: Adobe Illustrator 15.1.0, SVG Export Plug-In . SVG Version: 6.00 Build 0)  -->
<!DOCTYPE svg PUBLIC "-//W3C//DTD SVG 1.0//EN" "http://www.w3.org/TR/2001/REC-SVG-20010904/DTD/svg10.dtd">
<svg version="1.0" id="Layer_2" xmlns="http://www.w3.org/2000/svg" xmlns:xlink="http://www.w3.org/1999/xlink" x="0px" y="0px"
	 width="283.46px" height="283.46px" viewBox="0 0 283.46 283.46" enable-background="new 0 0 283.46 283.46" xml:space="preserve">
<g>
	<path fill="none" d="M141.499,50.403c-26.858,0-49.484,25.246-52.627,58.724l-0.076,0.597v29.047h0.131v0.274h104.996v-28.806
		l-0.076-1.075C190.699,75.681,168.193,50.403,141.499,50.403z"/>
	<path d="M228.394,139.045h-7.938l0.002-0.274H220.3v-30.475h-0.043c-4.219-47.13-38.021-82.63-78.758-82.63
		c-40.588,0-74.264,35.519-78.337,82.62h-0.001v0.01v8.066v22.683h-8.096c-2.592,0-4.693,2.42-4.693,5.407V270.97
		c0,2.984,2.103,5.405,4.693,5.405h173.331c2.594,0,4.693-2.42,4.693-5.405V144.454C233.089,141.466,230.99,139.045,228.394,139.045
		z M150.734,207.067v27.807c0,2.626-2.799,4.755-6.25,4.755h-5.506c-3.453,0-6.251-2.129-6.251-4.755v-27.807
		c-4.772-3.001-7.954-8.298-7.954-14.353c0-9.364,7.592-16.959,16.957-16.959c9.366,0,16.956,7.595,16.956,16.959
		C158.685,198.769,155.505,204.066,150.734,207.067z M193.921,139.045H88.926v-0.274h-0.131v-29.047l0.076-0.597
		c3.144-33.478,25.769-58.724,52.627-58.724c26.694,0,49.2,25.277,52.347,58.761l0.076,1.075V139.045z"/>
</g>
</svg>
