<?xml version="1.0" encoding="utf-8"?>
<!-- Generator: Adobe Illustrator 15.1.0, SVG Export Plug-In . SVG Version: 6.00 Build 0)  -->
<!DOCTYPE svg PUBLIC "-//W3C//DTD SVG 1.0//EN" "http://www.w3.org/TR/2001/REC-SVG-20010904/DTD/svg10.dtd">
<svg version="1.0" id="Layer_2" xmlns="http://www.w3.org/2000/svg" xmlns:xlink="http://www.w3.org/1999/xlink" x="0px" y="0px"
	 width="283.46px" height="283.46px" viewBox="0 0 283.46 283.46" enable-background="new 0 0 283.46 283.46" xml:space="preserve">
<g>
	<path d="M243.953,114.387h-9.362l0.088-9.247l0.001-0.093l-0.009-0.093c-4.816-55.795-44.771-97.87-92.94-97.87
		c-47.878,0-87.603,41.9-92.403,97.464l0,9.838h-9.822c-3.058,0-5.536,2.855-5.536,6.378v149.232c0,3.521,2.479,6.377,5.536,6.377
		h204.448c3.061,0,5.538-2.855,5.538-6.377V120.766C249.491,117.242,247.014,114.387,243.953,114.387z M152.35,194.621v32.799
		c0,3.098-3.299,5.609-7.372,5.609h-6.495c-4.072,0-7.373-2.512-7.373-5.609v-32.799c-5.629-3.539-9.382-9.787-9.382-16.928
		c0-11.047,8.955-20.004,20.002-20.004s20.001,8.957,20.001,20.004C161.731,184.834,157.979,191.082,152.35,194.621z
		 M203.632,114.387H79.446v-7.232l0.208-1.626c3.708-39.488,30.396-69.267,62.076-69.267c31.487,0,58.033,29.816,61.745,69.31
		l0.156,2.215V114.387z"/>
</g>
</svg>
