<?xml version="1.0" encoding="utf-8"?>
<!-- Generator: Adobe Illustrator 15.1.0, SVG Export Plug-In . SVG Version: 6.00 Build 0)  -->
<!DOCTYPE svg PUBLIC "-//W3C//DTD SVG 1.1//EN" "http://www.w3.org/Graphics/SVG/1.1/DTD/svg11.dtd">
<svg version="1.1" id="Layer_2" xmlns="http://www.w3.org/2000/svg" xmlns:xlink="http://www.w3.org/1999/xlink" x="0px" y="0px"
	 width="283.465px" height="283.465px" viewBox="0 0 283.465 283.465" enable-background="new 0 0 283.465 283.465"
	 xml:space="preserve">
<g>
	<path fill="none" d="M140.624,184.229c0.008,0,0.016,0,0.023,0c0.352,0.008,0.713,0.012,1.088,0.012
		c0.373,0,0.734-0.004,1.086-0.012c0.008,0,0.016,0,0.023,0c0.344-0.006,0.678-0.016,1.004-0.027
		c1.424-1.678,2.242-4.02,2.242-7.266c0-4.619-1.654-12.051-4.355-18.559c-2.701,6.508-4.354,13.941-4.354,18.559
		c0,3.246,0.816,5.588,2.24,7.266C139.946,184.213,140.28,184.223,140.624,184.229z"/>
	<path fill="none" d="M101.96,74.275c3.887,0,7.051-3.423,7.051-7.63V21.332c-4.9,1.939-9.613,4.307-14.104,7.049v38.265
		C94.907,70.853,98.071,74.275,101.96,74.275z"/>
	<path fill="none" d="M104.397,126.576c-0.281-0.063-0.566-0.123-0.854-0.185c-0.059-0.013-0.117-0.024-0.174-0.036
		c-0.227-0.047-0.453-0.094-0.682-0.139c-0.088-0.018-0.178-0.034-0.266-0.053c-0.201-0.039-0.404-0.078-0.607-0.115
		c-0.1-0.02-0.201-0.037-0.303-0.057c-0.193-0.035-0.389-0.07-0.584-0.105c-0.105-0.019-0.215-0.037-0.322-0.055
		c-0.191-0.033-0.385-0.065-0.58-0.098c-0.109-0.018-0.219-0.036-0.326-0.053c-0.199-0.032-0.4-0.063-0.6-0.094
		c-0.104-0.016-0.207-0.031-0.311-0.047c-0.221-0.033-0.443-0.063-0.668-0.095c-0.082-0.012-0.162-0.024-0.244-0.034
		c-0.307-0.041-0.613-0.082-0.92-0.119c-0.014-0.002-0.027-0.004-0.043-0.006c-0.289-0.035-0.58-0.07-0.871-0.102
		c-0.1-0.01-0.199-0.021-0.297-0.031c-0.205-0.021-0.41-0.043-0.615-0.063c-0.119-0.012-0.24-0.023-0.361-0.034
		c-0.182-0.017-0.365-0.033-0.551-0.05c-0.127-0.01-0.256-0.021-0.383-0.03c-0.176-0.015-0.354-0.028-0.529-0.04
		c-0.129-0.01-0.258-0.018-0.387-0.025c-0.174-0.012-0.35-0.021-0.525-0.031c-0.127-0.008-0.256-0.016-0.383-0.021
		c-0.178-0.009-0.355-0.018-0.535-0.023c-0.119-0.006-0.238-0.011-0.359-0.015c-0.195-0.007-0.389-0.012-0.58-0.017
		c-0.104-0.002-0.205-0.006-0.307-0.006c-0.289-0.006-0.576-0.008-0.861-0.008c-0.004,0-0.006,0-0.01,0c-0.002,0-0.004,0-0.004,0
		c-0.301,0-0.592,0.002-0.877,0.008c-0.045,0.002-0.09,0.002-0.133,0.004c-0.275,0.006-0.545,0.015-0.807,0.025
		c-0.254,0.355-0.463,0.735-0.613,1.149c-4.051,11.147,11.365,23.147,20.506,29.083c1.502-1.543,2.764-3.412,3.674-5.578
		C114.653,141.031,111.644,131.164,104.397,126.576z"/>
	<path fill="none" d="M181.507,74.275c3.889,0,7.053-3.423,7.053-7.63h0.002V28.381c-4.492-2.742-9.203-5.11-14.105-7.049v45.313
		C174.456,70.853,177.62,74.275,181.507,74.275z"/>
	<path fill="none" d="M127.706,69.117c0.049,0.122,0.12,0.217,0.203,0.284l13.357,33.05c0.096,0.238,0.274,0.384,0.466,0.384
		c0.192,0,0.37-0.146,0.466-0.384l13.355-33.048c0.085-0.066,0.159-0.162,0.21-0.286c0.063-0.156,0.069-0.332,0.05-0.504
		c0.017-0.168,0.009-0.339-0.053-0.491c-0.05-0.121-0.12-0.217-0.203-0.283l-13.357-33.05c-0.096-0.238-0.274-0.384-0.466-0.384
		c-0.192,0-0.37,0.146-0.466,0.384l-13.356,33.047c-0.085,0.067-0.159,0.162-0.209,0.286c-0.063,0.156-0.069,0.332-0.05,0.504
		C127.637,68.794,127.645,68.965,127.706,69.117z"/>
	<path fill="none" d="M133.298,203.984c-0.914,1.453-1.449,3.207-1.449,5.088s0.535,3.633,1.449,5.088h16.871
		c0.914-1.455,1.449-3.207,1.449-5.088c0-1.883-0.535-3.635-1.449-5.088H133.298z"/>
	<path fill="none" d="M195.931,124.828c-0.262-0.011-0.535-0.019-0.809-0.025c-0.043-0.002-0.088-0.002-0.133-0.004
		c-0.285-0.006-0.576-0.008-0.877-0.008c0,0-0.002,0-0.006,0s-0.006,0-0.01,0c-0.285,0-0.57,0.002-0.859,0.008
		c-0.104,0-0.205,0.004-0.309,0.006c-0.189,0.006-0.385,0.011-0.58,0.017c-0.119,0.004-0.236,0.009-0.357,0.015
		c-0.18,0.006-0.355,0.015-0.535,0.023c-0.127,0.006-0.256,0.014-0.383,0.021c-0.176,0.01-0.35,0.02-0.525,0.031
		c-0.129,0.008-0.258,0.016-0.387,0.025c-0.176,0.013-0.354,0.025-0.529,0.04c-0.127,0.01-0.256,0.021-0.383,0.03
		c-0.188,0.016-0.367,0.033-0.553,0.05c-0.121,0.012-0.24,0.022-0.359,0.034c-0.205,0.02-0.41,0.041-0.613,0.063
		c-0.1,0.01-0.199,0.02-0.299,0.031c-0.291,0.031-0.58,0.066-0.871,0.102c-0.014,0.002-0.027,0.004-0.043,0.006
		c-0.307,0.037-0.613,0.076-0.92,0.119c-0.082,0.012-0.162,0.022-0.244,0.034c-0.225,0.031-0.445,0.062-0.668,0.095
		c-0.104,0.016-0.207,0.031-0.311,0.047c-0.201,0.031-0.4,0.062-0.6,0.094c-0.107,0.017-0.219,0.035-0.328,0.053
		c-0.191,0.032-0.387,0.064-0.578,0.098c-0.107,0.018-0.217,0.036-0.32,0.055c-0.195,0.035-0.393,0.07-0.584,0.105
		c-0.104,0.02-0.203,0.037-0.305,0.057c-0.203,0.037-0.404,0.076-0.605,0.115c-0.09,0.018-0.178,0.034-0.268,0.053
		c-0.23,0.045-0.455,0.092-0.682,0.139c-0.059,0.012-0.117,0.023-0.176,0.036c-0.287,0.062-0.57,0.122-0.852,0.185
		c-7.244,4.588-10.258,14.455-6.709,22.906c0.908,2.166,2.172,4.035,3.674,5.578c9.143-5.934,24.557-17.934,20.508-29.083
		C196.392,125.563,196.183,125.184,195.931,124.828z"/>
	<path fill="none" d="M201.476,159.182c3.891-3.721,7.684-7.861,10.975-12.059c9.316-11.886,13.336-22.605,10.748-28.677
		c-2.592-6.071-12.736-9.721-27.143-9.763c-12.756-0.042-27.371,2.766-35.486,6.818c-7.281,3.633-12.861,10.461-15.313,18.73
		c-0.49,1.654-1.914,2.777-3.52,2.777c0,0,0,0-0.002,0c0,0,0,0-0.002,0c-1.605,0-3.029-1.123-3.52-2.777
		c-2.453-8.27-8.033-15.098-15.311-18.73c-8.117-4.053-22.73-6.86-35.49-6.818c-14.404,0.043-24.551,3.693-27.139,9.763
		c-2.588,6.071,1.43,16.79,10.748,28.677c3.289,4.199,7.084,8.338,10.971,12.059c0.012,0.012,0.023,0.02,0.035,0.029
		c4.889,4.666,9.852,8.596,14.045,11.158c0.002,0,0.002,0.002,0.004,0.002c0.266,0.164,0.527,0.316,0.787,0.467
		c0.094,0.057,0.189,0.111,0.283,0.164c0.15,0.088,0.299,0.168,0.447,0.252c0.16,0.088,0.322,0.178,0.479,0.262
		c0.02,0.01,0.037,0.018,0.057,0.027c0.242,0.129,0.482,0.254,0.721,0.373c3.686,1.84,7.607,2.801,11.658,2.854
		c1.236,0.016,2.383,0.699,3.055,1.82c0.674,1.121,0.785,2.531,0.299,3.76c-2.102,5.281-5.662,15.701-5.771,25.809
		c0.074,5.34,1.115,10.594,3.828,14.953c4.963,7.973,14.996,12.045,29.816,12.107c14.82-0.063,24.854-4.135,29.816-12.107
		c2.713-4.359,3.754-9.613,3.828-14.953c-0.109-10.107-3.67-20.527-5.771-25.809c-0.486-1.229-0.375-2.639,0.297-3.76
		c0.674-1.121,1.818-1.803,3.055-1.82c4.053-0.053,7.975-1.014,11.66-2.854c0.24-0.119,0.479-0.244,0.721-0.373
		c0.021-0.008,0.037-0.018,0.055-0.027c0.16-0.084,0.322-0.174,0.48-0.262c0.146-0.084,0.297-0.164,0.449-0.252
		c0.094-0.053,0.186-0.107,0.281-0.164c0.262-0.15,0.52-0.303,0.785-0.467c0.002,0,0.004-0.002,0.006-0.002
		c4.193-2.561,9.156-6.492,14.047-11.158C201.456,159.201,201.466,159.193,201.476,159.182z M130.899,148.531
		c0.014-0.02,0.027-0.037,0.041-0.057c0.32-0.461,0.648-0.902,0.982-1.33c0.691-0.877,1.41-1.682,2.16-2.395
		c0.166-0.158,0.332-0.311,0.502-0.459c0.217-0.193,0.438-0.377,0.662-0.555c0.133-0.105,0.266-0.205,0.398-0.305
		c0.848-0.625,1.729-1.131,2.641-1.5c0.4-0.162,0.807-0.299,1.219-0.404c0.725-0.188,1.469-0.285,2.229-0.285
		s1.504,0.098,2.229,0.285c0.412,0.105,0.82,0.242,1.219,0.404c0.912,0.367,1.793,0.875,2.643,1.5
		c0.131,0.1,0.264,0.201,0.396,0.305c0.225,0.178,0.445,0.361,0.662,0.555c0.17,0.148,0.336,0.301,0.502,0.459
		c0.75,0.713,1.471,1.518,2.16,2.395c0.336,0.428,0.662,0.869,0.982,1.33c0.014,0.02,0.027,0.037,0.041,0.057
		c2.969,4.281,5.291,9.896,6.84,15.279c1.436,4.988,2.205,9.779,2.205,13.125c0,14.348-12.693,15.242-18.76,15.301
		c-0.404,0.004-0.779,0.004-1.119,0.004s-0.715,0-1.119-0.004c-6.066-0.059-18.76-0.953-18.76-15.301
		c0-3.346,0.77-8.137,2.207-13.125C125.608,158.428,127.931,152.813,130.899,148.531z M107.815,164.014
		c-2.9,0-5.719-0.662-8.377-1.969c-4.961-2.436-12.775-8.828-18.586-15.197c-8.439-9.254-11.51-16.831-9.121-22.524
		c2.033-4.842,7.662-7.372,16.74-7.524c0.293-0.006,0.588-0.008,0.889-0.008c1.762,0,3.578,0.088,5.406,0.244
		c0.168,0.014,0.336,0.027,0.504,0.043c2.961,0.272,5.938,0.723,8.73,1.283c5.063,1.016,9.527,2.389,12.213,3.708
		c4.936,2.425,8.701,6.783,10.607,12.272c1.576,4.541,1.717,9.406,0.451,13.975c-0.266,0.953-0.586,1.895-0.973,2.816
		C123.015,158.959,115.761,164.014,107.815,164.014z M155.048,222.16h-26.627h-0.002c-6.668,0-12.094-5.871-12.094-13.086
		c0-7.217,5.424-13.088,12.094-13.088h0.002h26.627c6.67,0,12.096,5.871,12.096,13.088
		C167.144,216.289,161.718,222.16,155.048,222.16z M184.03,162.045c-2.66,1.307-5.479,1.969-8.379,1.969
		c-7.943,0-15.199-5.055-18.482-12.881c-0.389-0.922-0.709-1.863-0.971-2.816c-1.27-4.568-1.125-9.434,0.449-13.975
		c1.904-5.489,5.67-9.848,10.605-12.272c2.686-1.319,7.15-2.692,12.213-3.708c2.795-0.561,5.768-1.011,8.73-1.283
		c0.168-0.015,0.336-0.029,0.506-0.043c1.826-0.156,3.643-0.244,5.404-0.244c0.301,0,0.598,0.002,0.889,0.008
		c9.078,0.152,14.707,2.683,16.74,7.524c2.389,5.693-0.68,13.271-9.119,22.524C196.806,153.217,188.989,159.609,184.03,162.045z"/>
	<path fill="#231F20" d="M126.3,151.133c0.387-0.922,0.707-1.863,0.973-2.816c1.266-4.568,1.125-9.434-0.451-13.975
		c-1.906-5.489-5.672-9.848-10.607-12.272c-2.686-1.319-7.15-2.692-12.213-3.708c-2.793-0.561-5.77-1.011-8.73-1.283
		c-0.168-0.016-0.336-0.029-0.504-0.043c-1.828-0.156-3.645-0.244-5.406-0.244c-0.301,0-0.596,0.002-0.889,0.008
		c-9.078,0.152-14.707,2.683-16.74,7.524c-2.389,5.693,0.682,13.271,9.121,22.524c5.811,6.369,13.625,12.762,18.586,15.197
		c2.658,1.307,5.477,1.969,8.377,1.969C115.761,164.014,123.015,158.959,126.3,151.133z M111.106,149.482
		c-0.91,2.166-2.172,4.035-3.674,5.578c-9.141-5.936-24.557-17.936-20.506-29.083c0.15-0.414,0.359-0.794,0.613-1.149
		c0.262-0.011,0.531-0.02,0.807-0.025c0.043-0.002,0.088-0.002,0.133-0.004c0.285-0.006,0.576-0.008,0.877-0.008
		c0,0,0.002,0,0.004,0c0.004,0,0.006,0,0.01,0c0.285,0,0.572,0.002,0.861,0.008c0.102,0,0.203,0.004,0.307,0.006
		c0.191,0.005,0.385,0.01,0.58,0.017c0.121,0.004,0.24,0.009,0.359,0.015c0.18,0.006,0.357,0.015,0.535,0.023
		c0.127,0.006,0.256,0.014,0.383,0.021c0.176,0.01,0.352,0.02,0.525,0.031c0.129,0.008,0.258,0.016,0.387,0.025
		c0.176,0.012,0.354,0.025,0.529,0.04c0.127,0.01,0.256,0.021,0.383,0.03c0.186,0.017,0.369,0.033,0.551,0.05
		c0.121,0.011,0.242,0.022,0.361,0.034c0.205,0.02,0.41,0.041,0.615,0.063c0.098,0.01,0.197,0.021,0.297,0.031
		c0.291,0.031,0.582,0.066,0.871,0.102c0.016,0.002,0.029,0.004,0.043,0.006c0.307,0.037,0.613,0.078,0.92,0.119
		c0.082,0.01,0.162,0.022,0.244,0.034c0.225,0.031,0.447,0.062,0.668,0.095c0.104,0.016,0.207,0.031,0.311,0.047
		c0.199,0.031,0.4,0.062,0.6,0.094c0.107,0.017,0.217,0.035,0.326,0.053c0.195,0.032,0.389,0.064,0.58,0.098
		c0.107,0.018,0.217,0.036,0.322,0.055c0.195,0.035,0.391,0.07,0.584,0.105c0.102,0.02,0.203,0.037,0.303,0.057
		c0.203,0.037,0.406,0.076,0.607,0.115c0.088,0.019,0.178,0.035,0.266,0.053c0.229,0.045,0.455,0.092,0.682,0.139
		c0.057,0.012,0.115,0.023,0.174,0.036c0.287,0.062,0.572,0.122,0.854,0.185C111.644,131.164,114.653,141.031,111.106,149.482z"/>
	<path fill="#231F20" d="M211.735,124.323c-2.033-4.842-7.662-7.372-16.74-7.524c-0.291-0.006-0.588-0.008-0.889-0.008
		c-1.762,0-3.578,0.088-5.404,0.244c-0.17,0.014-0.338,0.028-0.506,0.043c-2.963,0.272-5.936,0.723-8.73,1.283
		c-5.063,1.016-9.527,2.389-12.213,3.708c-4.936,2.425-8.701,6.783-10.605,12.272c-1.574,4.541-1.719,9.406-0.449,13.975
		c0.262,0.953,0.582,1.895,0.971,2.816c3.283,7.826,10.539,12.881,18.482,12.881c2.9,0,5.719-0.662,8.379-1.969
		c4.959-2.436,12.775-8.828,18.586-15.197C211.056,137.594,214.124,130.017,211.735,124.323z M176.036,155.061
		c-1.502-1.543-2.766-3.412-3.674-5.578c-3.549-8.451-0.535-18.318,6.709-22.906c0.281-0.063,0.564-0.123,0.852-0.185
		c0.059-0.013,0.117-0.024,0.176-0.036c0.227-0.047,0.451-0.094,0.682-0.139c0.09-0.019,0.178-0.035,0.268-0.053
		c0.201-0.039,0.402-0.078,0.605-0.115c0.102-0.02,0.201-0.037,0.305-0.057c0.191-0.035,0.389-0.07,0.584-0.105
		c0.104-0.019,0.213-0.037,0.32-0.055c0.191-0.033,0.387-0.065,0.578-0.098c0.109-0.018,0.221-0.036,0.328-0.053
		c0.199-0.032,0.398-0.063,0.6-0.094c0.104-0.016,0.207-0.031,0.311-0.047c0.223-0.033,0.443-0.063,0.668-0.095
		c0.082-0.012,0.162-0.022,0.244-0.034c0.307-0.043,0.613-0.082,0.92-0.119c0.016-0.002,0.029-0.004,0.043-0.006
		c0.291-0.035,0.58-0.07,0.871-0.102c0.1-0.012,0.199-0.021,0.299-0.031c0.203-0.021,0.408-0.043,0.613-0.063
		c0.119-0.012,0.238-0.022,0.359-0.034c0.186-0.017,0.365-0.034,0.553-0.05c0.127-0.01,0.256-0.021,0.383-0.03
		c0.176-0.015,0.354-0.027,0.529-0.04c0.129-0.01,0.258-0.018,0.387-0.025c0.176-0.012,0.35-0.021,0.525-0.031
		c0.127-0.008,0.256-0.016,0.383-0.021c0.18-0.009,0.355-0.018,0.535-0.023c0.121-0.006,0.238-0.011,0.357-0.015
		c0.195-0.006,0.391-0.011,0.58-0.017c0.104-0.002,0.205-0.006,0.309-0.006c0.289-0.006,0.574-0.008,0.859-0.008
		c0.004,0,0.006,0,0.01,0s0.006,0,0.006,0c0.301,0,0.592,0.002,0.877,0.008c0.045,0.002,0.09,0.002,0.133,0.004
		c0.273,0.007,0.547,0.015,0.809,0.025c0.252,0.355,0.461,0.735,0.613,1.149C200.593,137.127,185.179,149.127,176.036,155.061z"/>
	<path fill="#231F20" d="M141.733,7.086c-56.762,0-102.941,49.965-102.941,111.383v58.178v0.002c0,0.01,0,0.02,0,0.029
		c0.008,20.408,8.322,35.816,8.676,36.463c0,0,2.723,5.826,9.996,14.617c33.211,42.598,77.273,48.018,77.273,48.018
		c0.078,0.012,0.162,0.023,0.242,0.039c0.143,0.039,0.219,0.061,0.219,0.061c2.242,0.363,4.391,0.504,6.363,0.504
		c0.059,0,0.113-0.002,0.17-0.002c0.059,0,0.113,0.002,0.172,0.002c1.973,0,4.121-0.141,6.363-0.504c0,0,0.076-0.021,0.219-0.061
		c0.08-0.016,0.166-0.027,0.242-0.039c0,0,44.064-5.42,77.273-48.018c7.271-8.791,9.996-14.617,9.996-14.617
		c0.354-0.646,8.668-16.055,8.676-36.463c0-0.01,0-0.02,0-0.029v-0.002v-58.178C244.675,57.053,198.495,7.086,141.733,7.086z
		 M174.456,21.332c4.902,1.938,9.613,4.307,14.105,7.049v38.265h-0.002c0,4.207-3.164,7.63-7.053,7.63
		c-3.887,0-7.051-3.423-7.051-7.63V21.332z M127.704,68.123c0.05-0.124,0.124-0.219,0.209-0.286l13.356-33.047
		c0.096-0.238,0.274-0.384,0.466-0.384c0.192,0,0.37,0.146,0.466,0.384l13.357,33.05c0.083,0.066,0.153,0.162,0.203,0.283
		c0.062,0.152,0.069,0.323,0.053,0.491c0.02,0.172,0.013,0.348-0.05,0.504c-0.051,0.124-0.125,0.219-0.21,0.286l-13.355,33.048
		c-0.096,0.238-0.274,0.384-0.466,0.384c-0.192,0-0.37-0.146-0.466-0.384l-13.357-33.05c-0.083-0.066-0.154-0.162-0.203-0.284
		c-0.062-0.152-0.069-0.323-0.052-0.491C127.634,68.454,127.641,68.278,127.704,68.123z M94.907,28.381
		c4.49-2.742,9.203-5.109,14.104-7.049v45.313c0,4.207-3.164,7.63-7.051,7.63c-3.889,0-7.053-3.423-7.053-7.63V28.381z M80.7,239.95
		c-0.141,0.274-0.4,0.469-0.703,0.526c-0.063,0.012-0.125,0.018-0.188,0.018c-0.241,0-0.476-0.087-0.66-0.248
		c-1.958-1.719-3.912-3.533-5.805-5.395c-0.3-0.295-0.383-0.746-0.208-1.129c2.201-4.812,3.364-10.193,3.364-15.563
		c0-10.083-2.964-18.297-8.809-24.415c-7.004-7.329-16.414-9.645-21.4-10.373c-0.459-0.066-0.813-0.441-0.852-0.904
		c-0.159-1.871-0.253-8.121-0.253-8.173c0-0.284,0.121-0.555,0.332-0.744c0.211-0.19,0.495-0.283,0.776-0.25
		c6.784,0.738,19.551,3.463,28.838,13.424c7.14,7.657,10.761,18.232,10.761,31.434C85.894,225.78,84.098,233.315,80.7,239.95z
		 M187.392,170.371c-0.266,0.164-0.523,0.316-0.785,0.467c-0.096,0.057-0.188,0.111-0.281,0.164
		c-0.152,0.088-0.303,0.168-0.449,0.252c-0.158,0.088-0.32,0.178-0.48,0.262c-0.018,0.01-0.033,0.02-0.055,0.027
		c-0.242,0.129-0.48,0.254-0.721,0.373c-3.686,1.84-7.607,2.801-11.66,2.854c-1.236,0.018-2.381,0.699-3.055,1.82
		c-0.672,1.121-0.783,2.531-0.297,3.76c2.102,5.281,5.662,15.701,5.771,25.809c-0.074,5.34-1.115,10.594-3.828,14.953
		c-4.963,7.973-14.996,12.045-29.816,12.107c-14.82-0.063-24.854-4.135-29.816-12.107c-2.713-4.359-3.754-9.613-3.828-14.953
		c0.109-10.107,3.67-20.527,5.771-25.809c0.486-1.229,0.375-2.639-0.299-3.76c-0.672-1.121-1.818-1.805-3.055-1.82
		c-4.051-0.053-7.973-1.014-11.658-2.854c-0.238-0.119-0.479-0.244-0.721-0.373c-0.02-0.01-0.037-0.018-0.057-0.027
		c-0.156-0.084-0.318-0.174-0.479-0.262c-0.148-0.084-0.297-0.164-0.447-0.252c-0.094-0.053-0.189-0.107-0.283-0.164
		c-0.26-0.15-0.521-0.303-0.787-0.467c-0.002,0-0.002-0.002-0.004-0.002c-4.193-2.563-9.156-6.492-14.045-11.158
		c-0.012-0.01-0.023-0.018-0.035-0.029c-3.887-3.721-7.682-7.859-10.971-12.059c-9.318-11.887-13.336-22.605-10.748-28.677
		c2.588-6.069,12.734-9.72,27.139-9.763c12.76-0.042,27.373,2.766,35.49,6.818c7.277,3.633,12.857,10.461,15.311,18.73
		c0.49,1.654,1.914,2.777,3.52,2.777c0.002,0,0.002,0,0.002,0c0.002,0,0.002,0,0.002,0c1.605,0,3.029-1.123,3.52-2.777
		c2.451-8.27,8.031-15.098,15.313-18.73c8.115-4.053,22.73-6.86,35.486-6.818c14.406,0.042,24.551,3.691,27.143,9.763
		c2.588,6.071-1.432,16.791-10.748,28.677c-3.291,4.197-7.084,8.338-10.975,12.059c-0.01,0.012-0.02,0.02-0.031,0.029
		c-4.891,4.666-9.854,8.598-14.047,11.158C187.396,170.369,187.394,170.371,187.392,170.371z M238.028,182.467
		c-0.039,0.463-0.392,0.838-0.852,0.905c-4.986,0.729-14.396,3.044-21.402,10.375c-5.845,6.118-8.809,14.332-8.809,24.413
		c0,5.369,1.163,10.751,3.364,15.563c0.175,0.383,0.092,0.833-0.207,1.129c-1.874,1.846-3.828,3.66-5.807,5.395
		c-0.184,0.161-0.419,0.248-0.659,0.248c-0.063,0-0.125-0.006-0.188-0.018c-0.303-0.058-0.563-0.252-0.702-0.526
		c-3.397-6.632-5.192-14.167-5.192-21.79c0-13.202,3.62-23.778,10.759-31.434c9.287-9.961,22.056-12.686,28.84-13.424
		c0.302-0.031,0.606,0.075,0.821,0.293c0.214,0.218,0.317,0.521,0.279,0.824l0.004,0.088
		C238.229,177.366,238.146,181.066,238.028,182.467z"/>
	<path fill="#231F20" d="M121.854,176.936c0,14.348,12.693,15.242,18.76,15.301c0.404,0.004,0.779,0.004,1.119,0.004
		s0.715,0,1.119-0.004c6.066-0.059,18.76-0.953,18.76-15.301c0-3.346-0.77-8.137-2.205-13.125
		c-1.549-5.383-3.871-10.998-6.84-15.279c-0.014-0.02-0.027-0.037-0.041-0.057c-0.32-0.461-0.646-0.902-0.982-1.33
		c-0.689-0.877-1.41-1.682-2.16-2.395c-0.166-0.158-0.332-0.311-0.502-0.459c-0.217-0.193-0.438-0.377-0.662-0.555
		c-0.133-0.104-0.266-0.205-0.396-0.305c-0.85-0.625-1.73-1.133-2.643-1.5c-0.398-0.162-0.807-0.299-1.219-0.404
		c-0.725-0.188-1.469-0.285-2.229-0.285s-1.504,0.098-2.229,0.285c-0.412,0.105-0.818,0.242-1.219,0.404
		c-0.912,0.369-1.793,0.875-2.641,1.5c-0.133,0.1-0.266,0.199-0.398,0.305c-0.225,0.178-0.445,0.361-0.662,0.555
		c-0.17,0.148-0.336,0.301-0.502,0.459c-0.75,0.713-1.469,1.518-2.16,2.395c-0.334,0.428-0.662,0.869-0.982,1.33
		c-0.014,0.02-0.027,0.037-0.041,0.057c-2.969,4.281-5.291,9.896-6.838,15.279C122.624,168.799,121.854,173.59,121.854,176.936z
		 M141.735,158.377c2.701,6.508,4.355,13.939,4.355,18.559c0,3.246-0.818,5.588-2.242,7.266c-0.326,0.012-0.66,0.021-1.004,0.027
		c-0.008,0-0.016,0-0.023,0c-0.352,0.008-0.713,0.012-1.086,0.012c-0.375,0-0.736-0.004-1.088-0.012c-0.008,0-0.016,0-0.023,0
		c-0.344-0.006-0.678-0.016-1.002-0.027c-1.424-1.678-2.24-4.02-2.24-7.266C137.382,172.318,139.034,164.885,141.735,158.377z"/>
	<path fill="#231F20" d="M155.048,195.986h-26.627h-0.002c-6.67,0-12.094,5.871-12.094,13.088c0,7.215,5.426,13.086,12.094,13.086
		h0.002h26.627c6.67,0,12.096-5.871,12.096-13.086C167.144,201.857,161.718,195.986,155.048,195.986z M150.169,214.16h-16.871
		c-0.914-1.455-1.449-3.207-1.449-5.088s0.535-3.635,1.449-5.088h16.871c0.914,1.453,1.449,3.205,1.449,5.088
		C151.618,210.953,151.083,212.705,150.169,214.16z"/>
</g>
</svg>
