<?xml version="1.0" encoding="utf-8"?>
<!-- Generator: Adobe Illustrator 15.1.0, SVG Export Plug-In . SVG Version: 6.00 Build 0)  -->
<!DOCTYPE svg PUBLIC "-//W3C//DTD SVG 1.1//EN" "http://www.w3.org/Graphics/SVG/1.1/DTD/svg11.dtd">
<svg version="1.1" id="Layer_4" xmlns="http://www.w3.org/2000/svg" xmlns:xlink="http://www.w3.org/1999/xlink" x="0px" y="0px"
	 width="283.465px" height="283.465px" viewBox="0 0 283.465 283.465" enable-background="new 0 0 283.465 283.465"
	 xml:space="preserve">
<g>
	<path d="M248.773,34.695c-36.819-36.811-96.569-36.811-133.374,0c-35.287,35.287-36.751,91.666-4.383,128.705l-17.049,17.05
		c-5.939-2.416-13-1.196-17.801,3.592l-64.263,64.28c-6.413,6.38-6.413,16.832,0,23.256c6.424,6.401,16.848,6.401,23.255,0
		l64.251-64.28c4.818-4.812,6.021-11.845,3.61-17.812l17.05-17.05c37.033,32.379,93.386,30.898,128.682-4.397
		C285.574,131.276,285.574,71.51,248.773,34.695z M238.037,157.345c-14.941,14.94-34.814,23.169-55.958,23.169
		s-41.016-8.229-55.954-23.17c-30.849-30.854-30.849-81.066,0-111.932c14.938-14.937,34.81-23.162,55.954-23.162
		c21.145,0,41.018,8.225,55.959,23.16c14.941,14.944,23.169,34.823,23.169,55.975C261.206,122.538,252.978,142.411,238.037,157.345z
		"/>
	<path d="M253.206,101.385c0-19.016-7.396-36.886-20.826-50.318c-13.429-13.424-31.294-20.817-50.302-20.817
		c-19.007,0-36.869,7.393-50.296,20.818c-27.73,27.746-27.73,72.884,0,100.62c13.428,13.43,31.29,20.826,50.297,20.826
		s36.871-7.396,50.302-20.826C245.811,138.264,253.206,120.4,253.206,101.385z M169.606,155.882
		c-0.338-0.413-0.513-0.915-0.708-1.416c-0.043-0.186-0.174-0.326-0.228-0.502c-0.175-0.696-0.207-1.437-0.088-2.155
		c0.043-0.239,0.087-0.424,0.185-0.653c0.457-2.678,2.896-4.573,5.618-4.322c14.272,0.99,28.438-4.235,38.672-14.479
		c11.475-11.458,16.45-27.593,13.892-43.157c-0.337-2.052-0.772-4.078-1.372-6.097c-0.044-0.158-0.021-0.3-0.065-0.457
		c-0.501-2.455,0.709-4.969,3.07-5.917c0.239-0.104,0.544-0.212,0.828-0.262c1.284-0.534,2.787-0.491,4.05,0.114
		c1.283,0.587,2.265,1.704,2.7,3.054c1.602,5.329,2.438,10.777,2.58,16.223c0.339,16.298-5.889,32.395-17.843,44.36
		c-12.587,12.597-30.019,18.955-47.589,17.735c-0.729-0.066-1.438-0.283-2.081-0.653
		C170.618,156.959,170.052,156.48,169.606,155.882z"/>
</g>
</svg>
