<?xml version="1.0" encoding="utf-8"?>
<!-- Generator: Adobe Illustrator 15.1.0, SVG Export Plug-In . SVG Version: 6.00 Build 0)  -->
<!DOCTYPE svg PUBLIC "-//W3C//DTD SVG 1.1//EN" "http://www.w3.org/Graphics/SVG/1.1/DTD/svg11.dtd">
<svg version="1.1" id="Layer_1" xmlns="http://www.w3.org/2000/svg" xmlns:xlink="http://www.w3.org/1999/xlink" x="0px" y="0px"
	 width="283.46px" height="283.46px" viewBox="0 0 283.46 283.46" enable-background="new 0 0 283.46 283.46" xml:space="preserve">
<g>
	<rect x="189.97" y="88.72" width="45.364" height="34.192"/>
	<path d="M189.97,186.701c0,7.146-1.194,13.878-3.553,20.012c-2.271,5.912-5.398,10.867-9.555,15.151
		c-3.991,4.115-8.8,7.302-14.699,9.739c-5.794,2.395-12.67,3.609-20.434,3.609c-7.766,0-14.638-1.215-20.431-3.609
		c-5.878-2.428-10.672-5.618-14.655-9.757c-4.17-4.328-7.307-9.334-9.589-15.298c-2.366-6.188-3.565-12.955-3.565-20.109v-47.738
		H48.126v48c0,11.862,2.102,23.249,6.245,33.836c4.263,10.904,10.552,20.601,18.692,28.819c8.224,8.308,18.242,14.947,29.774,19.731
		c11.65,4.836,24.735,7.288,38.893,7.288c14.154,0,27.24-2.452,38.893-7.288c11.534-4.786,21.553-11.426,29.773-19.728
		c8.136-8.217,14.424-17.914,18.692-28.821c4.144-10.596,6.246-21.98,6.246-33.838v-48H189.97V186.701z"/>
	<rect x="48.126" y="88.72" width="45.363" height="34.192"/>
	<polygon fill="#010101" points="124.502,119.229 183.683,43.979 158.042,44.715 187.639,7.084 147.73,7.084 122.859,62.777 
		149.71,62.777 	"/>
</g>
</svg>
