<?xml version="1.0" encoding="utf-8"?>
<!-- Generator: Adobe Illustrator 15.1.0, SVG Export Plug-In . SVG Version: 6.00 Build 0)  -->
<!DOCTYPE svg PUBLIC "-//W3C//DTD SVG 1.1//EN" "http://www.w3.org/Graphics/SVG/1.1/DTD/svg11.dtd">
<svg version="1.1" id="Layer_1" xmlns="http://www.w3.org/2000/svg" xmlns:xlink="http://www.w3.org/1999/xlink" x="0px" y="0px"
	 width="283.465px" height="283.465px" viewBox="0 0 283.465 283.465" enable-background="new 0 0 283.465 283.465"
	 xml:space="preserve">
<g>
	<path fill="none" d="M238.038,45.41c-14.94-14.935-34.813-23.16-55.959-23.16c-21.144,0-41.016,8.225-55.954,23.162
		c-30.849,30.866-30.849,81.078,0,111.932c14.938,14.941,34.811,23.17,55.954,23.17s41.017-8.229,55.958-23.168
		c14.941-14.935,23.169-34.808,23.17-55.96C261.207,80.233,252.979,60.354,238.038,45.41z M232.381,151.688
		c-13.431,13.431-31.296,20.826-50.302,20.826c-19.007,0-36.869-7.395-50.297-20.826c-27.73-27.735-27.73-72.874,0-100.62
		c13.427-13.425,31.289-20.818,50.296-20.818s36.873,7.393,50.302,20.817c13.431,13.432,20.826,31.302,20.826,50.318
		C253.206,120.4,245.811,138.264,232.381,151.688z"/>
	<path d="M248.773,34.695c-36.819-36.811-96.569-36.811-133.375,0c-35.287,35.287-36.751,91.666-4.383,128.706l-17.049,17.051
		c-5.939-2.416-13-1.196-17.801,3.592l-64.263,64.279c-6.413,6.381-6.413,16.832,0,23.257c6.424,6.399,16.848,6.399,23.255,0
		l64.251-64.28c4.818-4.813,6.021-11.845,3.61-17.813l17.05-17.051c37.034,32.379,93.386,30.898,128.682-4.396
		C285.574,131.276,285.574,71.51,248.773,34.695z M238.037,157.346c-14.941,14.939-34.814,23.168-55.958,23.168
		s-41.016-8.229-55.954-23.17c-30.849-30.854-30.849-81.066,0-111.932c14.938-14.937,34.811-23.162,55.954-23.162
		c21.146,0,41.019,8.225,55.959,23.16c14.94,14.944,23.169,34.823,23.169,55.975C261.206,122.538,252.979,142.411,238.037,157.346z"
		/>
	<path d="M232.38,51.067c-13.429-13.424-31.294-20.817-50.302-20.817s-36.869,7.393-50.296,20.818
		c-27.73,27.746-27.73,72.884,0,100.62c13.428,13.432,31.291,20.826,50.297,20.826c19.006,0,36.871-7.396,50.302-20.826
		c13.43-13.423,20.825-31.288,20.825-50.302C253.206,82.369,245.811,64.499,232.38,51.067z M141.103,102.086
		c0-2.636,2.137-4.773,4.774-4.773h70.746c2.637,0,4.773,2.137,4.773,4.773c0,2.636-2.138,4.773-4.773,4.773h-70.746
		C143.24,106.859,141.103,104.722,141.103,102.086z"/>
</g>
</svg>
