<?xml version="1.0" encoding="utf-8"?>
<!-- Generator: Adobe Illustrator 15.1.0, SVG Export Plug-In . SVG Version: 6.00 Build 0)  -->
<!DOCTYPE svg PUBLIC "-//W3C//DTD SVG 1.1//EN" "http://www.w3.org/Graphics/SVG/1.1/DTD/svg11.dtd">
<svg version="1.1" id="Layer_4" xmlns="http://www.w3.org/2000/svg" xmlns:xlink="http://www.w3.org/1999/xlink" x="0px" y="0px"
	 width="283.46px" height="283.46px" viewBox="0 0 283.46 283.46" enable-background="new 0 0 283.46 283.46" xml:space="preserve">
<g>
	<path fill="none" d="M113.456,127.353c1.07-0.511,2.157-0.984,3.253-1.434h-5.104L113.456,127.353z"/>
	<path fill="none" d="M169.806,127.29l1.818-1.37h-4.983C167.719,126.357,168.78,126.811,169.806,127.29z"/>
	<path fill="none" d="M124.914,204.048c4.691,4.694,10.19,6.976,16.811,6.976s12.119-2.281,16.811-6.973v-0.003
		c4.683-4.679,6.959-10.173,6.959-16.796c0-6.63-2.276-12.129-6.959-16.81c-4.691-4.693-10.19-6.974-16.811-6.974
		s-12.119,2.28-16.811,6.973c-4.685,4.681-6.961,10.18-6.961,16.811C117.953,193.875,120.229,199.37,124.914,204.048z"/>
	<path d="M100.471,117.292l11.134,8.628h5.104c0.878-0.361,1.761-0.71,2.652-1.031c1.044-8.577,2.026-14.678,2.927-18.149
		c0.926-3.638,3.733-5.819,7.506-5.819h23.872c1.858,0,3.589,0.604,5.003,1.746c1.541,1.276,2.426,2.923,2.6,4.797l2.647,17.408
		c0.926,0.332,1.831,0.687,2.726,1.049h4.983l11.452-8.638c1.337-1.208,3.061-1.846,5.008-1.846c1.174,0,2.305,0.281,3.381,0.829
		c-0.185-0.499-0.356-1.005-0.561-1.497c-2.073-5.031-5.149-9.663-9.073-13.585c-3.937-3.923-8.558-6.992-13.587-9.078
		c-5.028-2.084-10.47-3.183-16.028-3.183c0,0,0,0-0.013,0h-0.267c7.554-2.248,14.095-6.881,18.731-13.02
		c4.626-6.117,7.368-13.738,7.368-21.994c0-10.082-4.09-19.209-10.701-25.823c-6.612-6.612-15.744-10.706-25.823-10.706
		c-10.077,0-19.212,4.094-25.823,10.706c-6.614,6.614-10.711,15.74-10.711,25.823c0,8.254,2.74,15.877,7.367,21.994
		c4.642,6.139,11.177,10.771,18.73,13.02c-5.498,0.017-10.876,1.12-15.857,3.183c-5.032,2.086-9.662,5.15-13.584,9.078
		c-3.929,3.93-6.994,8.554-9.081,13.585c-0.227,0.549-0.42,1.11-0.623,1.668c1.411-0.763,2.483-1.011,3.459-1.011
		C97.157,115.425,98.867,116.053,100.471,117.292z"/>
	<path d="M80.647,213.212c-0.586-1.364-1.12-2.729-1.582-4.093l-17.346-2.561c-1.918-0.29-3.539-1.253-4.704-2.788
		c-1.082-1.464-1.614-3.064-1.614-4.798v-23.87c0-1.652,0.521-3.221,1.55-4.66c1.44-1.999,3.205-2.684,4.432-2.907l0.117-0.02
		l17.709-2.663c0.74-2.08,1.624-4.156,2.644-6.211c-2.643-3.63-6.001-7.914-10.012-12.767c-1.279-1.54-1.933-3.215-1.933-4.969
		c0-1.509,0.534-3.015,1.631-4.604c2.084-2.87,5.682-6.806,11.051-12.105c2.173-2.146,3.958-3.777,5.467-5.026
		c-1.014-1.338-2.113-2.606-3.298-3.791c-6.611-6.612-15.743-10.707-25.822-10.707c-10.076,0-19.212,4.095-25.823,10.707
		c-6.615,6.614-10.711,15.74-10.711,25.822c0,8.255,2.741,15.878,7.368,21.995c4.642,6.138,11.176,10.771,18.729,13.02
		c-5.497,0.017-10.874,1.12-15.857,3.183c-5.032,2.085-9.661,5.149-13.582,9.077c-3.931,3.93-6.995,8.556-9.082,13.586
		c-1.468,3.546-2.438,7.299-2.893,11.15h0.063H80.647z"/>
	<path d="M211.476,136.25c1.021,1.246,1.539,2.816,1.539,4.67c0,1.651-0.528,3.222-1.569,4.667
		c-1.105,1.546-2.987,3.999-5.588,7.278c-1.79,2.272-3.233,4.137-4.364,5.638c1.11,2.299,2.065,4.569,2.858,6.786l17.406,2.663
		c1.876,0.283,3.492,1.238,4.667,2.763l-0.008,0.007c1.075,1.393,1.644,3.056,1.644,4.811v23.874c0,1.678-0.539,3.262-1.598,4.699
		c-1.146,1.565-2.716,2.565-4.534,2.874l-17.764,2.686c-0.47,1.245-0.946,2.422-1.432,3.548h73.582h0.06
		c-0.453-3.852-1.42-7.604-2.894-11.15c-2.074-5.03-5.149-9.663-9.073-13.586c-3.937-3.922-8.558-6.992-13.587-9.077
		c-5.028-2.084-10.471-3.183-16.029-3.183c0,0,0,0-0.012,0h-0.268c7.553-2.248,14.096-6.882,18.732-13.02
		c4.625-6.117,7.366-13.738,7.366-21.995c0-10.081-4.088-19.208-10.7-25.822c-6.611-6.612-15.744-10.707-25.822-10.707
		c-10.077,0-19.211,4.095-25.823,10.707c-1.165,1.165-2.246,2.41-3.246,3.722C203.467,126.969,208.863,132.591,211.476,136.25z"/>
	<path d="M77.494,140.919c0.031,0.046,0.073,0.102,0.127,0.166c4.843,5.86,8.775,10.934,11.695,15.087l1.342,1.908l-1.118,2.049
		c-1.654,3.033-2.968,6.125-3.903,9.188l-0.691,2.264l-21.937,3.3c-0.068,0.104-0.102,0.187-0.102,0.222v23.87
		c0,0.054,0,0.1,0.041,0.18l21.934,3.237l0.667,2.322c0.94,3.271,2.319,6.599,4.101,9.887l1.119,2.064l-1.367,1.907
		c-1.311,1.834-3.304,4.432-5.922,7.727c-2.682,3.402-4.388,5.628-5.361,6.997c-0.129,0.175-0.167,0.268-0.167,0.295
		c0,0.187,0.042,0.263,0.088,0.328c2.607,3.606,8.397,9.487,17.172,17.423l0.156,0.151c0.031,0.031,0.056,0.054,0.074,0.068
		c0.104-0.003,0.146-0.018,0.146-0.018l0.215-0.183l17.036-12.936l2.099,1.069c2.775,1.416,5.853,2.683,9.148,3.768l2.19,0.72
		l3.36,22.086c0.037,0.01,0.084,0.015,0.157,0.015h23.872c0.075,0,0.138-0.002,0.186-0.007c0.015-0.042,0.029-0.09,0.044-0.151
		c0.905-3.492,1.922-10.052,3.028-19.532l0.281-2.41l2.312-0.731c3.151-1.002,6.247-2.291,9.195-3.833l2.146-1.121l16.571,12.979
		c0.198,0.119,0.35,0.188,0.457,0.229c0.681-0.345,2.772-1.661,7.655-6.486c4.993-4.913,8.435-8.66,10.234-11.146l0.24-0.296
		c-0.025-0.049-0.081-0.142-0.183-0.261c-5.358-6.552-9.176-11.479-11.695-15.096l-1.317-1.89l1.087-2.028
		c1.348-2.518,2.678-5.633,3.952-9.26l0.748-2.128l21.833-3.3c0.084-0.119,0.112-0.183,0.112-0.207v-23.874
		c0-0.077-0.006-0.118-0.045-0.177l-21.872-3.347l-0.698-2.238c-0.987-3.161-2.388-6.499-4.164-9.92l-1.064-2.055l1.356-1.875
		c1.299-1.796,3.23-4.318,5.903-7.709c2.529-3.192,4.336-5.546,5.377-7.003c0.143-0.196,0.162-0.281,0.162-0.282
		c0-0.048-0.002-0.088-0.004-0.12l-0.065-0.094c-2.393-3.394-8.155-9.313-17.131-17.596c-0.171-0.135-0.267-0.173-0.284-0.18
		l-0.269,0.22l-17.145,12.928l-2.093-1.071c-2.792-1.43-5.866-2.695-9.136-3.763l-2.199-0.718l-3.359-22.094
		c-0.037-0.009-0.087-0.014-0.158-0.014h-23.872c-0.074,0-0.134,0.004-0.183,0.008c-0.016,0.046-0.034,0.103-0.052,0.173
		c-0.899,3.469-1.914,10.026-3.022,19.512l-0.28,2.407l-2.311,0.734c-3.147,1-6.237,2.289-9.183,3.831l-2.136,1.116l-16.75-12.976
		c-0.133-0.104-0.245-0.175-0.33-0.221c-0.72,0.375-2.832,1.738-7.684,6.529c-5.005,4.94-8.437,8.674-10.198,11.101
		C77.591,140.75,77.535,140.843,77.494,140.919z M119.607,165.132c6.084-6.084,13.524-9.171,22.117-9.171
		c8.591,0,16.033,3.087,22.12,9.173c6.075,6.074,9.156,13.517,9.156,22.118c0,8.593-3.081,16.03-9.156,22.105
		c-0.002,0.003-0.002,0.003-0.002,0.003c-6.085,6.082-13.527,9.171-22.118,9.171c-8.593,0-16.033-3.089-22.119-9.174
		c-6.077-6.073-9.159-13.511-9.159-22.105C110.446,178.649,113.528,171.208,119.607,165.132z"/>
</g>
</svg>
