<?xml version="1.0" encoding="UTF-8" standalone="no"?><!DOCTYPE svg PUBLIC "-//W3C//DTD SVG 1.1//EN" "http://www.w3.org/Graphics/SVG/1.1/DTD/svg11.dtd"><svg width="100%" height="100%" viewBox="0 0 130 125" version="1.1" xmlns="http://www.w3.org/2000/svg" xmlns:xlink="http://www.w3.org/1999/xlink" xml:space="preserve" xmlns:serif="http://www.serif.com/" style="fill-rule:evenodd;clip-rule:evenodd;stroke-linejoin:round;stroke-miterlimit:2;"><rect id="map" x="0.166" y="0.007" width="125" height="125" style="fill:none;"/><path d="M119.894,10.487c-0,-2.876 -2.332,-5.208 -5.209,-5.208l-104.039,-0c-2.876,-0 -5.208,2.332 -5.208,5.208l-0,104.039c-0,2.877 2.332,5.209 5.208,5.209l104.039,-0c2.877,-0 5.209,-2.332 5.209,-5.209l-0,-104.039Zm-109.248,100.976l0,3.063l104.039,0l0,-3.063l-104.039,-0Zm47.091,-29.858l-9.117,-0l0,25.294l66.065,-0l0,-10.84l-0.159,0.161l-15.27,0.001l-0,-10.214l11.005,-0l4.424,-4.473l0,-7.891l-2.746,7.962l-44.344,-0l0,-4.564l41.09,-0l6,-17.395l0,-15.166l-15.429,0l-0,-15.27l15.429,-0l0,-11.095l-95.026,-0l-1.974,33.414l29.138,-0c0.662,1.666 1.58,3.204 2.705,4.564l-32.113,0l-3.002,50.806l29.643,-0l-0,-29.858l13.681,-0l-0,4.564Zm9.858,2.433l0,10.595c0,0.578 -0.229,1.132 -0.638,1.541c-0.409,0.409 -0.963,0.638 -1.541,0.638c-1.66,0 -3.931,0 -5.573,0c-0.559,0 -1.095,-0.222 -1.49,-0.617c-0.395,-0.395 -0.617,-0.931 -0.617,-1.49l0,-10.667l-6.916,-0l0,20.177l23.775,0l-0,-20.177l-7,-0Zm-25.655,6.639l-8.214,-0l0,5.587l8.214,-0l-0,-5.587Zm53.76,-4.67l-15.271,-0l0,10.214l15.271,0l-0,-10.214Zm-34.592,7.433l-0,-34.615c-6.812,-0.774 -12.112,-6.564 -12.112,-13.582c-0,-7.545 6.125,-13.67 13.67,-13.67c7.544,0 13.67,6.125 13.67,13.67c-0,7.018 -5.3,12.808 -12.112,13.582l-0,34.615l-3.116,0Zm-48.265,-37.347l-2.197,0l0,37.169l2.197,-37.169Zm17.929,23.23l-13.854,-0l-0,10.214l13.854,0l0,-10.214Zm11.168,2.945l-8.214,0l0,5.588l8.214,-0l-0,-5.588Zm53.76,-19.627l-15.271,0l0,10.215l15.271,0l-0,-10.215Zm-37.963,0l-9.117,0l0,10.215l9.117,0l0,-10.215Zm9.858,0l0,10.215l4.714,0l0,-10.215l-4.714,0Zm11.16,-12.041c-0.781,2.18 -1.981,4.176 -3.374,5.985c-1.912,2.483 -4.733,3.865 -6.402,4.511l4.495,0c2.96,0 5.359,-2.399 5.359,-5.359c0,-1.371 0,-2.846 0,-4.217c0,-0.314 -0.027,-0.621 -0.078,-0.92Zm1.674,-11.834l0,21.827l15.271,-0l-0,-21.827l-15.271,0Zm-69.783,12.763l2.466,-0l1.975,-33.414l-4.441,-0l0,20.651l1.094,0l0,10.773l-1.094,-0l0,1.99Zm50.671,-23.275l-23.411,0l0,14.369l7.919,0c0.564,-3.655 2.292,-6.928 4.792,-9.428c2.788,-2.788 6.535,-4.614 10.7,-4.941Zm5.15,6.396c-0.151,-0.04 -0.311,-0.016 -0.445,0.065c-0.133,0.081 -0.228,0.213 -0.262,0.366c-0.17,0.74 -0.458,2.03 -0.623,2.769c-0.065,0.303 0.119,0.604 0.419,0.683c1.87,0.446 2.704,1.206 3.383,3.009c0.108,0.27 0.401,0.417 0.682,0.342c0.728,-0.188 2.054,-0.541 2.819,-0.745c0.156,-0.04 0.288,-0.143 0.365,-0.285c0.077,-0.142 0.092,-0.309 0.04,-0.462c-0.97,-2.761 -2.88,-4.831 -6.378,-5.742Zm7.378,-2.266l0,-4.13l-9.83,0c3.747,0.294 7.155,1.802 9.83,4.13Zm40.84,-21.897l-104.039,0l0,3.064l104.039,-0l0,-3.064Z"/><path d="M119.894,10.487c-0,-2.876 -2.332,-5.208 -5.209,-5.208l-104.039,-0c-2.876,-0 -5.208,2.332 -5.208,5.208l-0,104.039c-0,2.877 2.332,5.209 5.208,5.209l104.039,-0c2.877,-0 5.209,-2.332 5.209,-5.209l-0,-104.039Zm-1.042,0l0,104.039c0,1.151 -0.466,2.193 -1.22,2.947c-0.754,0.754 -1.796,1.22 -2.947,1.22l-104.039,0c-1.151,0 -2.192,-0.466 -2.946,-1.22c-0.754,-0.754 -1.221,-1.796 -1.221,-2.947c0,0 0,-104.039 0,-104.039c0,-1.151 0.467,-2.192 1.221,-2.946c0.754,-0.754 1.795,-1.221 2.946,-1.221c0,0 104.039,0 104.039,0c1.151,0 2.193,0.467 2.947,1.221c0.754,0.754 1.22,1.795 1.22,2.946Zm-108.206,99.934c-0.575,0 -1.042,0.467 -1.042,1.042l0,3.063c0,0.576 0.467,1.042 1.042,1.042l104.039,0c0.576,0 1.042,-0.466 1.042,-1.042l0,-3.063c0,-0.575 -0.466,-1.042 -1.042,-1.042l-104.039,0Zm0,1.042l0,3.063l104.039,0l0,-3.063l-104.039,-0Zm104.039,-14.363l0,9.799l-66.065,-0l0,-25.294l9.117,-0l-0,-4.564l-13.681,-0l-0,29.858l-29.643,-0l3.002,-50.806l32.113,0c-1.125,-1.36 -2.043,-2.898 -2.705,-4.564l-29.138,-0l1.974,-33.414l95.026,-0l0,11.095l-15.429,-0l-0,15.27l15.429,0l0,15.166l-6,17.395l-41.09,-0l0,4.564l44.344,-0l2.746,-7.962l0,7.891l-4.424,4.473l-11.005,-0l-0,10.214l15.27,-0.001l0,-1.042l-14.228,0.001c-0,0 -0,-8.131 -0,-8.131c-0,0 9.963,0 9.963,0c0.279,0 0.545,-0.111 0.741,-0.309l4.424,-4.472c0.193,-0.195 0.301,-0.458 0.301,-0.733l0,-7.891c0,-0.509 -0.368,-0.944 -0.869,-1.028c-0.502,-0.084 -0.991,0.207 -1.157,0.688l-2.505,7.26c0,0 -42.559,0 -42.559,0c0,0 0,-2.481 0,-2.481c0,0 40.048,0 40.048,0c0.444,0 0.84,-0.282 0.985,-0.702l6,-17.394c0.038,-0.11 0.057,-0.224 0.057,-0.34l0,-15.166c0,-0.575 -0.466,-1.042 -1.042,-1.042l-14.387,0c-0,0 -0,-13.187 -0,-13.187c-0,0 14.387,0 14.387,0c0.576,0 1.042,-0.466 1.042,-1.041l0,-11.095c0,-0.575 -0.466,-1.042 -1.042,-1.042l-95.026,0c-0.551,0 -1.007,0.43 -1.04,0.98l-1.974,33.415c-0.017,0.286 0.085,0.567 0.282,0.775c0.197,0.209 0.471,0.328 0.758,0.328l28.446,-0c0.287,0.646 0.611,1.273 0.97,1.877c0.12,0.204 0.245,0.405 0.373,0.603c0.001,0.001 -30.059,0.001 -30.059,0.001c-0.551,-0 -1.007,0.429 -1.04,0.98l-3.002,50.805c-0.017,0.287 0.085,0.567 0.282,0.776c0.196,0.209 0.471,0.327 0.758,0.327l29.643,0c0.575,0 1.041,-0.466 1.041,-1.041l0,-28.817c0,0 11.598,0 11.598,0l-0,2.481l-8.075,0c-0.575,0 -1.042,0.467 -1.042,1.042l0,25.294c0,0.575 0.467,1.041 1.042,1.041l66.065,0c0.576,0 1.042,-0.466 1.042,-1.041l0,-10.84c0,0.294 -0.122,0.56 -0.318,0.749l-0.724,0.292Zm-47.09,-13.062l0,10.595c0,0.578 -0.229,1.132 -0.638,1.541c-0.409,0.409 -0.963,0.638 -1.541,0.638c-1.66,0 -3.931,0 -5.573,0c-0.559,0 -1.095,-0.222 -1.49,-0.617c-0.395,-0.395 -0.617,-0.931 -0.617,-1.49l0,-10.667l-6.916,-0l0,20.177l23.775,0l-0,-20.177l-7,-0Zm1.042,1.041l4.916,0c-0,0 -0,18.095 -0,18.095c-0,-0 -21.691,-0 -21.691,-0c0,-0 0,-18.095 0,-18.095c0,0 4.833,0 4.833,0c-0,0 -0.001,9.626 -0.001,9.626c0,0.418 0.083,0.827 0.24,1.205c0.157,0.379 0.387,0.726 0.683,1.022c0.295,0.295 0.643,0.525 1.021,0.682c0.379,0.157 0.787,0.24 1.205,0.24l5.573,-0c0.427,-0 0.846,-0.085 1.233,-0.245c0.387,-0.161 0.743,-0.397 1.045,-0.699c0.302,-0.302 0.538,-0.657 0.698,-1.045c0.16,-0.387 0.245,-0.805 0.245,-1.232l0,-9.554Zm46.771,11.729l-0.535,0.275c0.206,-0.037 0.391,-0.135 0.535,-0.275Zm-73.468,-6.131l-8.214,-0l0,5.587l8.214,-0l-0,-5.587Zm53.76,-4.67l-15.271,-0l0,10.214l15.271,0l-0,-10.214Zm-54.802,5.711l-0,3.504c-0,0 -6.13,0 -6.13,0c0,0 0,-3.504 0,-3.504l6.13,0Zm53.76,-4.67l0,8.132c0,-0 -13.187,-0 -13.187,-0c0,-0 0,-8.132 0,-8.132l13.187,0Zm-80.776,-30.893c0.017,-0.287 -0.085,-0.567 -0.281,-0.776c-0.197,-0.209 -0.472,-0.327 -0.758,-0.327l-2.197,-0c-0.575,-0 -1.042,0.466 -1.042,1.041l0,37.169c0,0.563 0.448,1.024 1.011,1.041c0.563,0.017 1.038,-0.417 1.071,-0.98l2.196,-37.168Zm47.226,37.285l-0,-34.615c-6.812,-0.774 -12.112,-6.564 -12.112,-13.582c-0,-7.545 6.125,-13.67 13.67,-13.67c7.544,0 13.67,6.125 13.67,13.67c-0,7.018 -5.3,12.808 -12.112,13.582l-0,34.615l-3.116,0Zm-48.265,-37.347l-2.197,0l0,37.169l2.197,-37.169Zm49.307,36.306l-0,-33.574c-0,-0.53 -0.398,-0.975 -0.925,-1.035c-3.161,-0.36 -5.97,-1.889 -7.982,-4.144c-1.993,-2.233 -3.205,-5.178 -3.205,-8.403c-0,-3.485 1.414,-6.642 3.7,-8.928c2.286,-2.285 5.443,-3.7 8.928,-3.7c3.485,-0 6.642,1.415 8.927,3.7c2.286,2.286 3.701,5.443 3.701,8.928c-0,3.225 -1.212,6.17 -3.205,8.403c-2.013,2.255 -4.821,3.784 -7.983,4.144c-0.526,0.06 -0.924,0.505 -0.924,1.035l-0,33.574l-1.032,-0Zm-31.378,-13.076l-13.854,-0l-0,10.214l13.854,0l0,-10.214Zm-1.041,1.041l-0,8.132c-0,-0 -11.772,-0 -11.772,-0c0,-0 0,-8.132 0,-8.132l11.772,0Zm12.209,1.904l-8.214,0l0,5.588l8.214,-0l-0,-5.588Zm-1.042,1.042l-0,3.504c-0,-0 -6.13,-0 -6.13,-0c0,-0 0,-3.504 0,-3.504l6.13,-0Zm16.839,-20.669l-9.117,0l0,10.215l9.117,0l0,-10.215Zm37.963,0l-15.271,0l0,10.215l15.271,0l-0,-10.215Zm-28.105,0l0,10.215l4.714,0l0,-10.215l-4.714,0Zm27.063,1.042l0,8.131c0,0 -13.187,0 -13.187,0c0,0 0,-8.131 0,-8.131l13.187,0Zm-26.021,0l2.63,0c0,0 0,8.131 0,8.131c0,0 -2.63,0 -2.63,0l0,-8.131Zm-11.941,0l-0.001,8.131c0,0 -7.033,0 -7.033,0c-0,0 -0,-8.131 -0,-8.131l7.034,0Zm22.059,-13.083c-0.781,2.18 -1.981,4.176 -3.374,5.985c-1.912,2.483 -4.733,3.865 -6.402,4.511l4.495,0c2.96,0 5.359,-2.399 5.359,-5.359c0,-1.371 0,-2.846 0,-4.217c0,-0.314 -0.027,-0.621 -0.078,-0.92Zm1.674,-11.834l0,21.827l15.271,-0l-0,-21.827l-15.271,0Zm-2.637,16.171c-0.489,0.791 -1.022,1.552 -1.585,2.284c-0.888,1.152 -1.955,2.088 -3.029,2.834l0.296,-0c1.193,-0.001 2.272,-0.484 3.053,-1.265c0.781,-0.781 1.265,-1.861 1.265,-3.053l-0,-0.8Zm3.679,-15.129l13.187,-0c0,-0 0,19.743 0,19.743c0,-0 -13.187,-0 -13.187,-0l0,-19.743Zm-70.773,8.69c-1.241,0.037 -0.052,2.082 -0.052,2.082c0,0 -1.042,-1.022 -1.042,-1.022l0,1.792c0,0.991 1.035,1.219 1.042,1.221l2.466,-0c0.552,-0 1.008,-0.43 1.04,-0.981l1.975,-33.414c0.017,-0.286 -0.085,-0.567 -0.282,-0.776c-0.197,-0.208 -0.471,-0.327 -0.758,-0.327l-4.441,0c-0.575,0 -1.042,0.467 -1.042,1.042l0,20.651c0,0.575 0.467,1.042 1.042,1.042l0.052,-0l0,8.69Zm-0.052,3.031l2.466,-0l1.975,-33.414l-4.441,-0l0,20.651l1.094,0l0,10.773l-1.094,-0l0,1.99Zm56.086,-17.887c-0.213,-0.055 -0.432,-0.067 -0.644,-0.036c-0.213,0.031 -0.42,0.105 -0.608,0.219c-0.187,0.115 -0.348,0.265 -0.473,0.44c-0.125,0.175 -0.216,0.374 -0.264,0.588l-0.624,2.777c-0.091,0.424 -0.008,0.846 0.203,1.19c0.211,0.345 0.55,0.61 0.969,0.721c0.008,0.002 0.016,0.004 0.024,0.005c0.733,0.176 1.274,0.391 1.687,0.761c0.416,0.373 0.695,0.891 0.963,1.603c0.002,0.006 0.005,0.013 0.007,0.019c0.152,0.38 0.434,0.673 0.776,0.845c0.342,0.171 0.745,0.222 1.14,0.117c-0,0 2.82,-0.745 2.82,-0.745c0.208,-0.054 0.41,-0.154 0.585,-0.29c0.174,-0.136 0.32,-0.307 0.428,-0.506c0.108,-0.198 0.171,-0.414 0.19,-0.634c0.019,-0.221 -0.007,-0.445 -0.08,-0.658c-0.001,-0.004 -0.002,-0.008 -0.003,-0.012c-0.572,-1.627 -1.444,-3.036 -2.707,-4.157c-1.122,-0.997 -2.557,-1.769 -4.389,-2.247l-0,0Zm-5.415,-5.388l-23.411,0l0,14.369l7.919,0c0.564,-3.655 2.292,-6.928 4.792,-9.428c2.788,-2.788 6.535,-4.614 10.7,-4.941Zm5.15,6.396c-0.151,-0.04 -0.311,-0.016 -0.445,0.065c-0.133,0.081 -0.228,0.213 -0.262,0.366c-0.17,0.74 -0.458,2.03 -0.623,2.769c-0.065,0.303 0.119,0.604 0.419,0.683c1.87,0.446 2.704,1.206 3.383,3.009c0.108,0.27 0.401,0.417 0.682,0.342c0.728,-0.188 2.054,-0.541 2.819,-0.745c0.156,-0.04 0.288,-0.143 0.365,-0.285c0.077,-0.142 0.092,-0.309 0.04,-0.462c-0.97,-2.761 -2.88,-4.831 -6.378,-5.742Zm-12.33,-5.354c-1.572,0.842 -3.005,1.911 -4.256,3.162c-1.341,1.341 -2.472,2.891 -3.34,4.596c-0.719,1.413 -1.258,2.932 -1.587,4.528c0,-0.001 -6.006,-0.001 -6.006,-0.001c-0,0 -0,-12.285 -0,-12.285l15.189,-0Zm19.708,3.088l0,-4.13l-9.83,0c3.747,0.294 7.155,1.802 9.83,4.13Zm-2.651,-3.088c0.554,0.296 1.091,0.621 1.608,0.973l0.001,-0.973l-1.609,-0Zm44.533,-18.809c0,-0.575 -0.466,-1.042 -1.042,-1.042l-104.039,0c-0.575,0 -1.042,0.467 -1.042,1.042l0,3.064c0,0.575 0.467,1.041 1.042,1.041l104.039,0c0.576,0 1.042,-0.466 1.042,-1.041l0,-3.064Zm-1.042,0l-104.039,0l0,3.064l104.039,-0l0,-3.064Z"/></svg>