<?xml version="1.0" encoding="utf-8"?>
<!-- Generator: Adobe Illustrator 15.1.0, SVG Export Plug-In . SVG Version: 6.00 Build 0)  -->
<!DOCTYPE svg PUBLIC "-//W3C//DTD SVG 1.1//EN" "http://www.w3.org/Graphics/SVG/1.1/DTD/svg11.dtd">
<svg version="1.1" id="Layer_1" xmlns="http://www.w3.org/2000/svg" xmlns:xlink="http://www.w3.org/1999/xlink" x="0px" y="0px"
	 width="283.46px" height="283.46px" viewBox="0 0 283.46 283.46" enable-background="new 0 0 283.46 283.46" xml:space="preserve">
<path d="M260.367,125.721H157.739V23.093c0-8.841-7.168-16.009-16.01-16.009c-8.841,0-16.009,7.168-16.009,16.009v102.628H23.094
	c-8.842,0-16.01,7.168-16.01,16.009c0,8.842,7.168,16.01,16.01,16.01h102.627v102.627c0,8.842,7.168,16.01,16.009,16.01
	c8.842,0,16.01-7.168,16.01-16.01V157.739h102.628c8.841,0,16.009-7.168,16.009-16.01
	C276.376,132.889,269.208,125.721,260.367,125.721z"/>
</svg>
