<?xml version="1.0" encoding="utf-8"?>
<!-- Generator: Adobe Illustrator 15.1.0, SVG Export Plug-In . SVG Version: 6.00 Build 0)  -->
<!DOCTYPE svg PUBLIC "-//W3C//DTD SVG 1.1//EN" "http://www.w3.org/Graphics/SVG/1.1/DTD/svg11.dtd">
<svg version="1.1" id="Layer_1" xmlns="http://www.w3.org/2000/svg" xmlns:xlink="http://www.w3.org/1999/xlink" x="0px" y="0px"
	 width="283.46px" height="283.46px" viewBox="0 0 283.46 283.46" enable-background="new 0 0 283.46 283.46" xml:space="preserve">
<path fill="#010101" d="M266.305,60.829H114.1c-1.853,0-3.587,0.776-5.087,2.115c-1.465,0.97-2.526,2.247-2.999,3.802l-0.205,0.673
	c-0.749,1.597-1.309,3.416-1.637,5.385l-25.067,82.462l-11.556-37.268c-0.614-1.981-3.836-2.896-8.23-2.663
	c-0.172-0.011-0.342-0.037-0.516-0.037H44.199H18.324h-0.165v0.012c-6.24,0.125-11.273,7.234-11.273,15.996
	c0,8.765,5.033,15.874,11.273,15.999v0.012h0.165h24.793l20.193,65.118c0.186,0.599,0.611,1.099,1.234,1.501
	c2.077,3.189,6.085,6.074,11.143,7.611c8.459,2.572,16.609,0.408,18.203-4.834l37.654-123.866h134.761
	c5.67,0,10.27-7.168,10.27-16.01C276.574,67.998,271.975,60.83,266.305,60.829z"/>
</svg>
