<?xml version="1.0" encoding="utf-8"?>
<!-- Generator: Adobe Illustrator 15.1.0, SVG Export Plug-In . SVG Version: 6.00 Build 0)  -->
<!DOCTYPE svg PUBLIC "-//W3C//DTD SVG 1.1//EN" "http://www.w3.org/Graphics/SVG/1.1/DTD/svg11.dtd">
<svg version="1.1" id="Layer_1" xmlns="http://www.w3.org/2000/svg" xmlns:xlink="http://www.w3.org/1999/xlink" x="0px" y="0px"
	 width="283.46px" height="283.46px" viewBox="0 0 283.46 283.46" enable-background="new 0 0 283.46 283.46" xml:space="preserve">
<path d="M214.298,46.521l-72.568,72.569L69.161,46.521c-6.252-6.251-16.389-6.251-22.641,0c-6.251,6.251-6.251,16.389,0,22.64
	l72.569,72.569l-72.567,72.567c-6.252,6.252-6.252,16.39-0.001,22.641c6.252,6.252,16.389,6.252,22.642,0l72.568-72.568
	l72.568,72.568c6.253,6.252,16.39,6.252,22.641,0c6.253-6.252,6.253-16.389,0-22.641l-72.568-72.568l72.569-72.57
	c6.251-6.25,6.251-16.388-0.001-22.64C230.688,40.27,220.551,40.27,214.298,46.521z"/>
</svg>
