<?xml version="1.0" encoding="utf-8"?>
<!-- Generator: Adobe Illustrator 15.1.0, SVG Export Plug-In . SVG Version: 6.00 Build 0)  -->
<!DOCTYPE svg PUBLIC "-//W3C//DTD SVG 1.1//EN" "http://www.w3.org/Graphics/SVG/1.1/DTD/svg11.dtd">
<svg version="1.1" id="Layer_1" xmlns="http://www.w3.org/2000/svg" xmlns:xlink="http://www.w3.org/1999/xlink" x="0px" y="0px"
	 width="283.46px" height="283.46px" viewBox="0 0 283.46 283.46" enable-background="new 0 0 283.46 283.46" xml:space="preserve">
<path d="M96.916,141.73L211.527,27.119c4.582-4.583,4.582-12.014,0-16.597c-4.584-4.583-12.015-4.583-16.598,0L73.153,132.297
	c-0.422,0.321-0.834,0.662-1.22,1.047c-2.313,2.313-3.456,5.353-3.433,8.385c-0.022,3.033,1.12,6.072,3.433,8.385
	c0.386,0.386,0.798,0.727,1.22,1.048L194.93,272.938c4.583,4.583,12.014,4.583,16.598,0c4.582-4.583,4.582-12.015,0-16.598
	L96.916,141.73z"/>
</svg>
