<?xml version="1.0" encoding="utf-8"?>
<!-- Generator: Adobe Illustrator 15.1.0, SVG Export Plug-In . SVG Version: 6.00 Build 0)  -->
<!DOCTYPE svg PUBLIC "-//W3C//DTD SVG 1.1//EN" "http://www.w3.org/Graphics/SVG/1.1/DTD/svg11.dtd">
<svg version="1.1" id="Layer_1" xmlns="http://www.w3.org/2000/svg" xmlns:xlink="http://www.w3.org/1999/xlink" x="0px" y="0px"
	 width="283.465px" height="283.465px" viewBox="0 0 283.465 283.465" enable-background="new 0 0 283.465 283.465"
	 xml:space="preserve">
<title>Mathworks icon</title>
<path d="M55.594,189.419c-13.386-10.037-30.104-21.742-48.507-35.121l65.241-25.095l26.766,20.075
	c-20.076,23.418-33.456,31.779-43.499,40.152L55.594,189.419L55.594,189.419z M234.583,119.17
	c-5.021-13.385-8.372-26.76-13.393-40.146c-5.019-15.062-10.037-28.437-18.41-40.15c-3.331-5.015-10.025-16.733-18.397-16.733
	c-1.677,0-3.343,1.671-5.009,1.671c-5.02,1.677-11.703,11.709-13.392,18.405c-5.019,8.361-15.057,21.747-21.747,30.107
	c-1.677,3.343-5.019,6.69-6.689,8.361c-5.015,3.341-10.032,8.36-16.733,11.702c-1.671,0-3.342,1.671-5.014,1.671
	c-5.013,0-8.361,3.342-11.704,5.013c-5.019,5.02-10.032,11.704-15.057,16.734c0,1.671-1.678,3.342-3.349,5.019l25.096,18.399
	c18.398-21.747,40.141-43.494,55.196-85.306c0,0-5.019,45.165-45.17,93.684c-25.089,28.426-45.165,43.482-48.507,46.836
	c0,0,6.69-1.678,13.386,1.664c13.387,5.021,20.076,23.43,25.096,36.799c3.342,10.039,8.354,18.41,11.703,28.426
	c13.386-3.329,21.747-8.35,30.103-16.723c8.361-8.371,16.732-18.41,25.095-26.76c15.059-18.41,33.445-41.816,56.874-30.113
	c3.332,1.676,8.352,5.021,10.027,6.685c5.008,3.354,8.36,6.696,13.38,11.705c8.372,6.694,11.704,11.702,18.41,15.065
	c-16.733-33.455-28.438-66.912-41.817-102.038L234.583,119.17z"/>
</svg>
