<?xml version="1.0" encoding="UTF-8" standalone="no"?>
<!DOCTYPE svg PUBLIC "-//W3C//DTD SVG 1.1//EN" "http://www.w3.org/Graphics/SVG/1.1/DTD/svg11.dtd">
<svg width="100%" height="100%" viewBox="0 0 31 30" version="1.1" xmlns="http://www.w3.org/2000/svg" xmlns:xlink="http://www.w3.org/1999/xlink" xml:space="preserve" xmlns:serif="http://www.serif.com/" style="fill-rule:evenodd;clip-rule:evenodd;stroke-linejoin:round;stroke-miterlimit:2;">
    <g transform="matrix(1.35979,0,0,1.35979,-5.41306,-5.39678)">
        <path d="M5.744,23.523L5.744,22.518C5.744,22.214 5.498,21.968 5.194,21.968C4.891,21.968 4.644,22.214 4.644,22.518L4.644,25.401L7.528,25.401C7.831,25.401 8.078,25.154 8.078,24.851C8.078,24.547 7.831,24.301 7.528,24.301L6.522,24.301L10.405,20.418C10.62,20.203 10.62,19.855 10.405,19.64C10.191,19.425 9.842,19.425 9.628,19.64L5.744,23.523ZM25.446,8.381L24.056,9.771L24.056,24.011L9.817,24.011L8.426,25.401L24.751,25.401C25.135,25.401 25.446,25.09 25.446,24.706L25.446,8.381ZM21.664,4.599L5.34,4.599C4.956,4.599 4.644,4.91 4.644,5.294L4.644,21.619L6.035,20.229L6.035,5.989L20.274,5.989L21.664,4.599Z"/>
    </g>
    <g transform="matrix(1.35979,0,0,1.35979,-5.41306,-5.39678)">
        <path d="M24.346,6.477L24.346,7.482C24.346,7.786 24.593,8.032 24.896,8.032C25.2,8.032 25.446,7.786 25.446,7.482L25.446,4.599L22.563,4.599C22.259,4.599 22.013,4.846 22.013,5.149C22.013,5.453 22.259,5.699 22.563,5.699L23.568,5.699L19.685,9.582C19.47,9.797 19.47,10.145 19.685,10.36C19.9,10.575 20.248,10.575 20.463,10.36L24.346,6.477ZM25.446,8.381L24.056,9.771L24.056,24.011L9.817,24.011L8.426,25.401L24.751,25.401C25.135,25.401 25.446,25.09 25.446,24.706L25.446,8.381ZM21.664,4.599L5.34,4.599C4.956,4.599 4.644,4.91 4.644,5.294L4.644,21.619L6.035,20.229L6.035,5.989L20.274,5.989L21.664,4.599Z"/>
    </g>
</svg>
