<?xml version="1.0" encoding="utf-8"?>
<!-- Generator: Adobe Illustrator 15.1.0, SVG Export Plug-In . SVG Version: 6.00 Build 0)  -->
<!DOCTYPE svg PUBLIC "-//W3C//DTD SVG 1.0//EN" "http://www.w3.org/TR/2001/REC-SVG-20010904/DTD/svg10.dtd">
<svg version="1.0" id="Layer_1" xmlns:serif="http://www.serif.com/"
	 xmlns="http://www.w3.org/2000/svg" xmlns:xlink="http://www.w3.org/1999/xlink" x="0px" y="0px" width="283.46px"
	 height="283.46px" viewBox="0 0 283.46 283.46" enable-background="new 0 0 283.46 283.46" xml:space="preserve">
<path d="M16.722,256.917v-12.7c0-3.835-3.11-6.943-6.944-6.943c-3.835,0-6.948,3.108-6.948,6.943v36.411h36.417
	c3.83,0,6.945-3.107,6.945-6.943c0-3.835-3.115-6.949-6.945-6.949H26.543l100.756-100.752c2.709-2.711,2.709-7.112,0-9.825
	c-2.709-2.712-7.111-2.711-9.822,0L16.722,256.917z M245.664,75.593l-13.89,13.888v142.291H89.482l-13.893,13.893h163.128
	c3.838,0,6.943-3.112,6.943-6.949V75.593H245.664z M207.872,37.798H44.744c-3.837,0-6.945,3.11-6.945,6.948v163.123l13.89-13.889
	V51.691h142.29L207.872,37.798z M256.917,16.725L155.945,117.692c-2.709,2.711-2.709,7.112,0,9.823c2.712,2.709,7.112,2.709,9.822,0
	L266.739,26.546v12.699c0,3.833,3.111,6.945,6.946,6.945c3.834,0,6.946-3.112,6.946-6.945V2.832h-36.416
	c-3.831,0-6.943,3.109-6.943,6.945c0,3.833,3.112,6.948,6.943,6.948H256.917L256.917,16.725z"/>
</svg>
