<?xml version="1.0" encoding="UTF-8" standalone="no"?><!DOCTYPE svg PUBLIC "-//W3C//DTD SVG 1.1//EN" "http://www.w3.org/Graphics/SVG/1.1/DTD/svg11.dtd"><svg width="100%" height="100%" viewBox="0 0 130 125" version="1.1" xmlns="http://www.w3.org/2000/svg" xmlns:xlink="http://www.w3.org/1999/xlink" xml:space="preserve" xmlns:serif="http://www.serif.com/" style="fill-rule:evenodd;clip-rule:evenodd;stroke-linejoin:round;stroke-miterlimit:2;"><rect id="maximize" x="0.188" y="0" width="125" height="125" style="fill:none;"/><path d="M25.193,97.049l0,-3.809c0,-1.15 -0.933,-2.083 -2.083,-2.083c-1.15,-0 -2.084,0.933 -2.084,2.083l0,10.922l10.923,0c1.149,0 2.083,-0.933 2.083,-2.083c-0,-1.15 -0.934,-2.084 -2.083,-2.084l-3.81,0l30.221,-30.22c0.813,-0.813 0.813,-2.134 -0,-2.947c-0.813,-0.813 -2.133,-0.813 -2.946,0l-30.221,30.221Zm68.669,-54.387l-4.166,4.166l-0,42.679l-42.679,0l-4.167,4.167l48.929,-0c1.151,-0 2.083,-0.933 2.083,-2.084l0,-48.928Zm-11.335,-11.336l-48.929,0c-1.151,0 -2.083,0.933 -2.083,2.084l-0,48.928l4.166,-4.166l0,-42.679l42.679,-0l4.167,-4.167Zm14.711,-6.321l-30.286,30.285c-0.813,0.813 -0.813,2.133 0,2.946c0.813,0.813 2.133,0.813 2.946,0l30.286,-30.285l-0,3.809c-0,1.15 0.933,2.083 2.083,2.083c1.15,0 2.084,-0.933 2.084,-2.083l-0,-10.922l-10.923,-0c-1.149,-0 -2.083,0.933 -2.083,2.083c0,1.15 0.934,2.084 2.083,2.084l3.81,-0Z"/></svg>