<?xml version="1.0" encoding="utf-8"?>
<!-- Generator: Adobe Illustrator 15.1.0, SVG Export Plug-In . SVG Version: 6.00 Build 0)  -->
<!DOCTYPE svg PUBLIC "-//W3C//DTD SVG 1.0//EN" "http://www.w3.org/TR/2001/REC-SVG-20010904/DTD/svg10.dtd">
<svg version="1.0" id="Layer_1" xmlns="http://www.w3.org/2000/svg" xmlns:xlink="http://www.w3.org/1999/xlink" x="0px" y="0px"
	 width="283.46px" height="283.46px" viewBox="0 0 283.46 283.46" enable-background="new 0 0 283.46 283.46" xml:space="preserve">
<g>
	<path d="M22.825,138.266l110.191-63.619c1.236-0.715,2.762-0.715,4,0s2,2.035,2,3.464V205.35c0,1.428-0.762,2.75-2,3.463
		c-0.619,0.357-1.311,0.537-2,0.537c-0.691,0-1.381-0.18-2-0.537L22.825,145.193c-1.236-0.714-2-2.034-2-3.464
		C20.825,140.301,21.589,138.98,22.825,138.266z"/>
	<path d="M146.443,138.266l110.191-63.619c1.237-0.715,2.763-0.715,4,0c1.238,0.715,2,2.035,2,3.464V205.35
		c0,1.428-0.762,2.75-2,3.463c-0.618,0.357-1.31,0.537-2,0.537s-1.381-0.18-2-0.537l-110.191-63.619c-1.236-0.714-2-2.034-2-3.464
		C144.443,140.301,145.207,138.98,146.443,138.266z"/>
</g>
</svg>
