<?xml version="1.0" encoding="utf-8"?>
<!-- Generator: Adobe Illustrator 15.1.0, SVG Export Plug-In . SVG Version: 6.00 Build 0)  -->
<!DOCTYPE svg PUBLIC "-//W3C//DTD SVG 1.1//EN" "http://www.w3.org/Graphics/SVG/1.1/DTD/svg11.dtd">
<svg version="1.1" id="Layer_1" xmlns="http://www.w3.org/2000/svg" xmlns:xlink="http://www.w3.org/1999/xlink" x="0px" y="0px"
	 width="283.46px" height="283.46px" viewBox="0 0 283.46 283.46" enable-background="new 0 0 283.46 283.46" xml:space="preserve">
<g>
	<path d="M56.651,121.275L15.492,10.096h46.932L82,68.824c7.864-17.23,20.161-31.832,36.893-43.795
		c16.727-11.96,34.716-17.945,53.957-17.945c20.413,0,38.022,5.232,52.83,15.686c14.807,10.457,25.557,25.725,32.25,45.803
		c6.688,20.077,10.039,50.281,10.039,90.601v117.203H130.688v-40.154h88.845v-78.053c0-29.447-0.967-50.905-2.888-64.375
		c-1.924-13.465-6.862-24.428-14.808-32.877c-7.946-8.445-17.944-12.674-29.99-12.674c-18.739,0-34.676,9.662-47.81,28.987
		c-13.138,19.324-24.306,52.829-33.504,100.515L71.71,276.376H23.272l21.082-103.901C46.361,162.603,50.46,145.537,56.651,121.275z"
		/>
</g>
</svg>
