<?xml version="1.0" encoding="utf-8"?>
<!-- Generator: Adobe Illustrator 15.1.0, SVG Export Plug-In . SVG Version: 6.00 Build 0)  -->
<!DOCTYPE svg PUBLIC "-//W3C//DTD SVG 1.1//EN" "http://www.w3.org/Graphics/SVG/1.1/DTD/svg11.dtd">
<svg version="1.1" id="Layer_1" xmlns="http://www.w3.org/2000/svg" xmlns:xlink="http://www.w3.org/1999/xlink" x="0px" y="0px"
	 width="283.46px" height="283.46px" viewBox="0 0 283.46 283.46" enable-background="new 0 0 283.46 283.46" xml:space="preserve">
<g>
	<path fill="#070707" d="M275.83,230.806h-12.493v3.091h13.809v4.473h-20.715v-19.532h20.519v4.407h-13.612v3.157h12.493V230.806
		L275.83,230.806z M193.302,219.297c-1.843-0.789-4.276-1.116-7.235-1.116c-5.13,0.131-8.745,1.578-10.85,4.535
		c-1.185,1.646-1.777,3.684-1.777,6.115c0,2.302,0.657,4.146,1.908,5.789c2.039,2.96,5.654,4.407,10.915,4.407
		c4.08,0,7.235-0.854,9.342-2.632l2.301-2.628c0.985-1.513,1.443-3.288,1.443-5.262C199.349,224.031,197.378,220.94,193.302,219.297
		z M192.183,228.635c0,2.697-0.985,4.473-2.961,5.458c-0.723,0.462-1.643,0.658-2.695,0.658c-1.974,0-3.553-0.658-4.538-1.971
		c-0.988-1.185-1.381-2.501-1.381-4.146s0.393-2.96,1.315-4.076c1.051-1.446,2.629-2.104,4.604-2.104
		c2.036,0.131,3.615,0.92,4.601,2.301C191.855,225.871,192.183,227.187,192.183,228.635L192.183,228.635z M169.824,231.332h-11.05
		v7.035h-6.904v-19.531h18.939v4.407h-12.035v3.749h11.05V231.332L169.824,231.332z M237.491,224.031
		c-1.25,1.055-1.774,2.629-1.774,4.604c0,1.644,0.459,2.961,1.313,4.012c0.989,1.315,2.501,1.974,4.407,1.974
		c1.382,0,2.697-0.396,3.946-1.316c0.657-0.523,1.054-1.182,1.381-1.97l6.577,0.654l-1.054,2.436
		c-1.905,3.091-5.589,4.604-10.981,4.604l-5.589-0.789c-4.803-1.513-7.234-4.669-7.234-9.604c0-2.628,0.788-4.865,2.301-6.708
		c2.17-2.497,5.723-3.814,10.653-3.814c6.25,0,10.195,2.039,11.574,6.115l-6.443,1.186c-0.313-0.84-0.89-1.555-1.644-2.039
		c-0.991-0.601-2.128-0.918-3.287-0.92C239.993,222.454,238.545,223.046,237.491,224.031L237.491,224.031z M225.194,225.086
		c0-2.171-0.789-3.815-2.301-4.935c-1.182-0.854-2.961-1.315-5.458-1.315h-14.272v19.531h6.905v-7.101h3.814l3.949,7.101h7.689
		l-4.8-7.759c1.381-0.461,2.497-1.119,3.157-1.908C224.736,227.714,225.194,226.529,225.194,225.086L225.194,225.086z
		 M218.159,225.086c0,1.246-0.985,1.773-2.828,1.773h-5.262v-3.487h5.92c0.788,0,1.315,0.065,1.776,0.396L218.159,225.086
		L218.159,225.086z M61.318,227.387c2.303,0.788,3.422,2.301,3.422,4.6c0,1.316-0.329,2.436-0.987,3.422
		c-1.512,2.302-4.933,3.488-10.192,3.488c-3.813,0-6.444-0.724-8.022-2.171c-1.052-0.988-1.71-2.301-2.039-4.145l6.904-0.262
		c0.2,1.446,1.645,2.235,4.274,2.235l2.368-0.462c0.658-0.458,0.987-0.854,0.987-1.446c0-0.721-0.395-1.182-1.381-1.513
		l-8.351-1.839c-2.499-0.985-3.814-2.632-3.814-4.932c0-1.446,0.525-2.631,1.512-3.88c1.643-1.646,4.404-2.369,8.221-2.369
		l5.917,0.723c2.303,0.789,3.748,2.436,4.274,4.935l-6.773,0.327c-0.329-1.182-1.447-1.708-3.418-1.708
		c-2.104,0-3.092,0.526-3.092,1.512l0.264,0.658c0.329,0.461,1.381,0.854,3.486,1.313L61.318,227.387L61.318,227.387z
		 M66.052,233.303h6.379v5.064h-6.379V233.303z M30.871,229.031c0,2.957-0.46,5.192-1.184,6.377
		c-1.578,2.433-4.932,3.619-10.325,3.619c-3.814,0-6.576-0.527-8.22-1.513c-2.17-1.119-3.288-3.222-3.288-6.181v-12.497h6.906
		v11.115c0,1.316,0.197,2.301,0.525,2.828c0.791,1.313,2.235,1.971,4.078,1.971c1.447,0,2.499-0.458,3.29-1.182
		c0.789-0.789,1.183-1.974,1.183-3.749v-10.984h7.036v10.195H30.871L30.871,229.031z M32.054,233.303h6.248v5.064h-6.248V233.303
		L32.054,233.303z M132.998,218.836h-14.205v19.531h6.972v-7.101h3.617l4.077,7.101h7.693l-4.931-7.759
		c1.381-0.33,2.499-0.984,3.288-1.908c0.779-1.043,1.195-2.313,1.183-3.614c0-2.171-0.789-3.815-2.17-4.935
		C137.272,219.297,135.562,218.836,132.998,218.836L132.998,218.836z M131.024,226.859h-5.26v-3.487h5.721
		c0.854,0,1.447,0.065,1.776,0.396c0.329,0.327,0.525,0.788,0.525,1.315C133.786,226.332,132.932,226.859,131.024,226.859z
		 M106.628,218.836h6.97v19.531h-6.97V218.836z M91.698,224.228l2.303,6.578H89.53L91.698,224.228z M87.754,218.836l-8.418,19.531
		h7.628l0.988-3.156h7.497l1.052,3.156h7.563l-8.417-19.531H87.754z M219.802,44.176l-21.896,45.572l32.551-23.543L219.802,44.176
		L219.802,44.176z M232.561,69.691l-89.7,65.235l5.394,16.308l69.244-50.307L232.561,69.691L232.561,69.691z M213.817,108.686
		l-64.248,46.69h27.949l21.239-15.452L213.817,108.686L213.817,108.686z M150.688,167.346c0,2.632-0.988,4.935-2.894,6.773
		c-1.84,1.908-4.142,2.894-6.906,2.894c-2.695,0-4.996-0.985-6.904-2.894c-1.841-1.839-2.828-4.142-2.828-6.773
		c0-2.761,0.985-5.065,2.828-6.904c1.908-1.84,4.209-2.828,6.904-2.828c2.765,0,5.065,0.988,6.906,2.828
		C149.7,162.28,150.688,164.585,150.688,167.346z M154.961,171.818l6.643,20.649l21.308-15.453l-17.558-12.759L154.961,171.818
		L154.961,171.818z M51.455,66.206l32.486,23.543L62.107,44.176L51.455,66.206z M64.277,100.928l69.377,50.307l5.394-16.308
		L49.283,69.691L64.277,100.928L64.277,100.928z M83.018,139.924l21.308,15.452h27.949l-64.249-46.69L83.018,139.924L83.018,139.924
		z M116.49,164.255l-17.557,12.758l21.372,15.454l6.708-20.65L116.49,164.255L116.49,164.255z M140.889,207.462l17.56-12.693
		l-17.56-12.758l-17.493,12.758L140.889,207.462z"/>
</g>
</svg>
