<?xml version="1.0" encoding="utf-8"?>
<!-- Generator: Adobe Illustrator 15.1.0, SVG Export Plug-In . SVG Version: 6.00 Build 0)  -->
<!DOCTYPE svg PUBLIC "-//W3C//DTD SVG 1.1//EN" "http://www.w3.org/Graphics/SVG/1.1/DTD/svg11.dtd">
<svg version="1.1" id="Layer_1" xmlns="http://www.w3.org/2000/svg" xmlns:xlink="http://www.w3.org/1999/xlink" x="0px" y="0px"
	 width="283.465px" height="283.465px" viewBox="0 0 283.465 283.465" enable-background="new 0 0 283.465 283.465"
	 xml:space="preserve">
<g>
	<path d="M108.195,246.596c-0.37,2.576-2.662,11.905-16.555,11.905c-1.748,0-1.604,6.566,0,6.566h100.18
		c1.607,0,1.757-6.566,0-6.566c-13.725,0-16.129-9.093-16.545-11.803v-27.069h-67.081V246.596z"/>
	<path d="M262.471,18.397H20.991c-7.128,0-12.929,5.802-12.929,12.93v171.054c0.002,7.127,5.8,12.923,12.925,12.923h241.47
		c7.125,0,12.926-5.796,12.926-12.923h0.02V31.327C275.402,24.199,269.602,18.397,262.471,18.397z M141.736,205.734
		c-5.559,0-10.067-4.506-10.069-10.062c-0.002-5.557,4.503-10.064,10.061-10.069c5.561,0,10.064,4.506,10.068,10.063
		S147.296,205.734,141.736,205.734z M265.832,34.675v137.511c0,3.704-3.002,6.707-6.707,6.707H24.346
		c-3.704,0-6.708-3.003-6.708-6.707V34.679c0-3.704,3.003-6.707,6.708-6.707h234.779c3.703-0.002,6.707,2.997,6.707,6.699
		C265.832,34.673,265.832,34.673,265.832,34.675z"/>
</g>
</svg>
