<?xml version="1.0" encoding="utf-8"?>
<!-- Generator: Adobe Illustrator 15.1.0, SVG Export Plug-In . SVG Version: 6.00 Build 0)  -->
<!DOCTYPE svg PUBLIC "-//W3C//DTD SVG 1.1//EN" "http://www.w3.org/Graphics/SVG/1.1/DTD/svg11.dtd">
<svg version="1.1" id="Layer_2" xmlns="http://www.w3.org/2000/svg" xmlns:xlink="http://www.w3.org/1999/xlink" x="0px" y="0px"
	 width="283.46px" height="283.46px" viewBox="0 0 283.46 283.46" enable-background="new 0 0 283.46 283.46" xml:space="preserve">
<g>
	<path d="M141.693,92.274c0,2.479,2.013,4.49,4.491,4.49s4.489-2.012,4.489-4.49V56.352c0-2.479-2.011-4.49-4.489-4.49
		s-4.491,2.012-4.491,4.49V92.274z"/>
	<circle cx="141.693" cy="204.531" r="13.471"/>
	<path d="M223.924,124.101c0.098-0.525,0.18-1.046,0.26-1.576l0.152-0.987c0-0.014-0.004-0.027,0-0.041
		c4.482-25.922,3.471-52.984-3.04-78.476c-2.34-15.582-14.759-27.907-30.35-30.14c-12.944-3.65-26.425-5.536-40.273-5.797v36.623
		c5.213,1.858,8.98,6.798,8.98,12.645v35.922c0,5.847-3.768,10.786-8.98,12.646v23.277c0,2.483-2.007,4.49-4.489,4.49
		c-2.484,0-4.491-2.007-4.491-4.49v-23.277c-5.213-1.859-8.98-6.799-8.98-12.646V56.352c0-5.847,3.767-10.786,8.98-12.645V7.17
		c-13.13,0.44-26.551,2.28-40.206,5.707c-15.626,2.2-28.082,14.548-30.421,30.152c-2.986,11.908-1.127,26.146,0.839,41.221
		c1.028,7.92,2.102,16.106,2.357,23.722c0.467,13.871-1.087,27.301-4.621,39.924c-1.199,4.274-3.121,8.845-5.159,13.681
		c-3.983,9.448-8.101,19.214-8.101,29.483c0,52.626,31.832,85.315,83.07,85.315c36.043,0,67.067-25.271,80.475-61.257
		c0.005-0.018,0.022-0.026,0.026-0.045c0.018-0.049,0.032-0.103,0.05-0.152c1.128-3.04,2.128-6.156,2.994-9.34
		c0.015-0.05,0.032-0.099,0.046-0.144c0.862-3.179,1.589-6.425,2.183-9.729c0.014-0.077,0.022-0.158,0.035-0.234
		c0.566-3.229,1.006-6.507,1.298-9.834c0.005-0.076,0.009-0.157,0.015-0.233c0.282-3.309,0.435-6.663,0.435-10.063
		c0-12.421-1.976-24.621-5.887-36.304L223.924,124.101z M82.879,186.31c-3.041,4.01-8.721,3.919-17.126,0.381
		c0.965-7.147,4.055-14.531,7.054-21.701c2.129-5.079,4.136-9.874,5.479-14.675c0.848-3.026,1.549-6.11,2.187-9.213
		c0.166-0.813,0.314-1.631,0.467-2.448c0.184-0.983,0.399-1.953,0.561-2.94C85.874,155.359,89.125,178.065,82.879,186.31z
		 M141.693,226.983c-12.38,0-22.452-10.072-22.452-22.452s10.072-22.451,22.452-22.451s22.451,10.071,22.451,22.451
		S154.073,226.983,141.693,226.983z M217.632,184.504c-0.09,1.063-0.273,2.114-0.395,3.175c-0.22,1.927-0.427,3.857-0.751,5.743
		c-0.237,1.404-0.579,2.779-0.875,4.171c-0.314,1.486-0.597,2.981-0.975,4.437c-0.426,1.635-0.952,3.241-1.459,4.854
		c-0.318,1.015-0.606,2.047-0.951,3.045c-3.422,1.022-6.381,1.54-8.807,1.54c-4.206,0-5.676-1.54-6.416-2.699
		c-6.29-9.833,6.884-41.752,16.627-63.327c0.212,0.711,0.445,1.415,0.639,2.134c0.287,1.055,0.565,2.115,0.821,3.183
		c0.396,1.652,0.736,3.314,1.051,4.985c0.197,1.047,0.404,2.087,0.569,3.138c0.288,1.819,0.494,3.655,0.688,5.487
		c0.095,0.903,0.22,1.801,0.292,2.708c0.212,2.743,0.342,5.5,0.342,8.271C218.028,178.438,217.889,181.487,217.632,184.504z"/>
</g>
</svg>
