<?xml version="1.0" encoding="utf-8"?>
<!-- Generator: Adobe Illustrator 15.1.0, SVG Export Plug-In . SVG Version: 6.00 Build 0)  -->
<!DOCTYPE svg PUBLIC "-//W3C//DTD SVG 1.0//EN" "http://www.w3.org/TR/2001/REC-SVG-20010904/DTD/svg10.dtd">
<svg version="1.0" id="Layer_2" xmlns="http://www.w3.org/2000/svg" xmlns:xlink="http://www.w3.org/1999/xlink" x="0px" y="0px"
	 width="283.46px" height="283.46px" viewBox="0 0 283.46 283.46" enable-background="new 0 0 283.46 283.46" xml:space="preserve">
<g>
	<path fill="none" d="M98.13,109.584c-6.02-4.458-13.43-6.63-20.904-6.125H46.909V179.8h14.873v-26.991h14.524
		c5.287,0.11,10.529-0.99,15.324-3.22c4.194-1.955,7.733-5.084,10.189-9.006c2.426-3.99,3.67-8.587,3.588-13.257
		C105.834,120.608,103.152,114.067,98.13,109.584z M85.887,137.772c-3.232,2.473-7.258,3.674-11.316,3.376H61.77v-25.871h13.276
		c9.779,0,14.667,4.206,14.667,12.619C89.961,131.592,88.56,135.208,85.887,137.772z"/>
	<path d="M152.527,16.479h-1.402h-1.402c-40.074,0.117-75.675,19.211-98.306,48.763h81.967c10.521,0,19.08,8.559,19.08,19.08V199.14
		c0,10.521-8.56,19.08-19.08,19.08H51.425c22.636,29.554,58.241,48.646,98.321,48.763h2.756
		c68.332-0.196,123.678-55.542,123.873-123.874v-1.378v-1.403C276.175,72.01,220.843,16.678,152.527,16.479z"/>
	<path d="M144.861,199.139V84.321c0-6.34-5.139-11.479-11.479-11.479H18.564c-6.34,0-11.479,5.14-11.479,11.479v114.818
		c0,6.34,5.14,11.479,11.479,11.479h114.818C139.721,210.619,144.861,205.479,144.861,199.139z M105.407,127.326
		c0.082,4.67-1.162,9.267-3.588,13.257c-2.456,3.922-5.995,7.051-10.189,9.006c-4.795,2.229-10.037,3.33-15.324,3.22H61.782V179.8
		H46.909v-76.341h30.317c7.474-0.505,14.884,1.667,20.904,6.125C103.152,114.067,105.834,120.608,105.407,127.326z"/>
	<path d="M75.046,115.277H61.77v25.871h12.801c4.058,0.298,8.084-0.903,11.316-3.376c2.673-2.564,4.074-6.18,3.826-9.876
		C89.713,119.483,84.825,115.277,75.046,115.277z"/>
</g>
</svg>
