<?xml version="1.0" encoding="utf-8"?>
<!-- Generator: Adobe Illustrator 15.1.0, SVG Export Plug-In . SVG Version: 6.00 Build 0)  -->
<!DOCTYPE svg PUBLIC "-//W3C//DTD SVG 1.1//EN" "http://www.w3.org/Graphics/SVG/1.1/DTD/svg11.dtd">
<svg version="1.1" id="Layer_2" xmlns="http://www.w3.org/2000/svg" xmlns:xlink="http://www.w3.org/1999/xlink" x="0px" y="0px"
	 width="283.46px" height="283.46px" viewBox="0 0 283.46 283.46" enable-background="new 0 0 283.46 283.46" xml:space="preserve">
<g>
	<path d="M145.14,203.068c0-27.225,0-94.873,0-122.096c0-6.42-5.204-11.624-11.624-11.624c-27.192,0-94.701,0-121.893,0
		C5.204,69.348,0,74.552,0,80.972c0,27.223,0,94.871,0,122.096c0,6.418,5.204,11.623,11.624,11.623c27.192,0,94.701,0,121.893,0
		C139.936,214.691,145.14,209.486,145.14,203.068z M104.377,115.361H80.244v65.59H64.939v-65.59H40.807V102.51h63.57V115.361z"/>
	<path d="M133.517,59.898c5.819,0,11.086,2.358,14.901,6.173c3.813,3.812,6.17,9.082,6.17,14.901v14.831
		c0.197,0.002,0.393,0.004,0.59,0.004c23.701,0,42.943-19.241,42.943-42.943c0-23.7-19.242-42.941-42.943-42.941
		c-23.699,0-42.941,19.241-42.941,42.941c0,2.397,0.195,4.749,0.574,7.034H133.517z"/>
	<path d="M277.425,65.786c0-16.57-13.451-30.022-30.02-30.022c-16.569,0-30.021,13.452-30.021,30.022
		c0,16.57,13.452,30.021,30.021,30.021C263.974,95.807,277.425,82.355,277.425,65.786z"/>
	<path d="M283.367,184.43v-63.928c0-6.42-5.204-11.622-11.624-11.622h-41.863c2.208,3.331,3.494,7.327,3.494,11.622v82.565
		l-0.086,1.898l0.034-0.508c-0.367,10.211-2.615,19.947-6.406,28.87c3.331,0.767,6.803,1.17,10.367,1.17
		c25.521,0,46.24-20.72,46.24-46.24C283.523,186.97,283.469,185.693,283.367,184.43z"/>
	<path d="M212.302,108.88h-57.715v94.188c0,5.819-2.357,11.088-6.17,14.899c-3.814,3.813-9.082,6.173-14.901,6.173H83.947
		c9.479,28.627,36.435,49.299,68.171,49.299c38.754,0,70.381-30.824,71.76-69.318c0.029-0.347,0.046-0.698,0.046-1.053
		c0-20.354,0-62.211,0-82.565C223.924,114.083,218.72,108.88,212.302,108.88z"/>
	<polygon fill="#FFFFFF" points="40.807,115.361 64.939,115.361 64.939,180.952 80.244,180.952 80.244,115.361 104.377,115.361 
		104.377,102.51 40.807,102.51 	"/>
</g>
</svg>
