<?xml version="1.0" encoding="utf-8"?>
<!-- Generator: Adobe Illustrator 15.1.0, SVG Export Plug-In . SVG Version: 6.00 Build 0)  -->
<!DOCTYPE svg PUBLIC "-//W3C//DTD SVG 1.0//EN" "http://www.w3.org/TR/2001/REC-SVG-20010904/DTD/svg10.dtd">
<svg version="1.0" id="Layer_3" xmlns="http://www.w3.org/2000/svg" xmlns:xlink="http://www.w3.org/1999/xlink" x="0px" y="0px"
	 width="283.46px" height="283.46px" viewBox="0 0 283.46 283.46" enable-background="new 0 0 283.46 283.46" xml:space="preserve">
<g>
	<path d="M264.896,16.479H81.19c-6.34,0-11.479,5.139-11.479,11.479v37.284h63.672c10.521,0,19.079,8.559,19.079,19.08v114.818
		c0,10.521-8.559,19.08-19.079,19.08H69.71v37.282c0,6.34,5.14,11.48,11.479,11.48h183.706c6.34,0,11.479-5.141,11.479-11.48
		v-51.146V141.73V79.104V27.958C276.375,21.618,271.236,16.479,264.896,16.479z"/>
	<path d="M144.861,199.139V84.321c0-6.34-5.139-11.479-11.479-11.479H18.564c-6.34,0-11.479,5.14-11.479,11.479v114.818
		c0,6.34,5.14,11.479,11.479,11.479h114.818C139.722,210.619,144.861,205.479,144.861,199.139z M106.315,179.042H89.713
		l-11.899-49.437c-0.344-1.422-0.738-3.282-1.171-5.567c-0.432-2.286-0.701-3.958-0.808-5.011h-0.207
		c-0.138,1.215-0.406,3.02-0.808,5.411c-0.4,2.393-0.723,4.163-0.965,5.311l-11.185,49.28H45.788l-17.642-74.612h14.467
		l10.878,52.199c0.244,1.07,0.476,2.498,0.701,4.264c0.226,1.773,0.376,3.314,0.444,4.635H54.9c0.1-1.252,0.309-2.762,0.626-4.527
		s0.604-3.259,0.858-4.478l12.074-52.092h15.612l12.525,51.309c0.728,3.19,1.248,6.425,1.56,9.682h0.206
		c0.233-3.156,0.669-6.293,1.303-9.394l9.989-51.622h14.209L106.315,179.042z"/>
</g>
</svg>
