<?xml version="1.0" encoding="utf-8"?>
<!-- Generator: Adobe Illustrator 15.1.0, SVG Export Plug-In . SVG Version: 6.00 Build 0)  -->
<!DOCTYPE svg PUBLIC "-//W3C//DTD SVG 1.1//EN" "http://www.w3.org/Graphics/SVG/1.1/DTD/svg11.dtd">
<svg version="1.1" id="Uploaded_to_svgrepo.com" xmlns="http://www.w3.org/2000/svg" xmlns:xlink="http://www.w3.org/1999/xlink"
	 x="0px" y="0px" width="283.465px" height="283.465px" viewBox="0 0 283.465 283.465" enable-background="new 0 0 283.465 283.465"
	 xml:space="preserve">
<g>
	<path fill="none" d="M194.743,74.939c-11.7,0-21.204,9.509-21.204,21.203c0,11.695,9.504,21.204,21.204,21.204
		c11.699,0,21.204-9.509,21.204-21.204C215.947,84.448,206.442,74.939,194.743,74.939z"/>
	<path d="M181.326,7.087c1.739,4.633,2.816,9.603,2.816,14.841c0,23.389-19.021,42.409-42.41,42.409s-42.409-19.02-42.409-42.409
		c0-5.239,1.083-10.208,2.822-14.841C51.289,23.74,14.507,71.517,14.507,127.95c0,23.419,18.989,42.409,42.409,42.409H226.55
		c23.419,0,42.408-18.989,42.408-42.409C268.958,71.517,232.182,23.74,181.326,7.087z M88.722,127.95
		c-17.57,0-31.806-14.242-31.806-31.807s14.236-31.806,31.806-31.806c17.57,0,31.807,14.242,31.807,31.806
		S106.292,127.95,88.722,127.95z M194.743,117.346c-11.7,0-21.204-9.509-21.204-21.204c0-11.694,9.504-21.203,21.204-21.203
		c11.699,0,21.204,9.509,21.204,21.203C215.947,107.837,206.442,117.346,194.743,117.346z"/>
	<path d="M187.993,180.96H95.479l-10.53,57.918c-3.561,19.525,11.441,37.5,31.288,37.5h51.007c19.837,0,34.829-17.975,31.288-37.5
		L187.993,180.96z"/>
</g>
</svg>
