<?xml version="1.0" encoding="utf-8"?>
<!-- Generator: Adobe Illustrator 15.1.0, SVG Export Plug-In . SVG Version: 6.00 Build 0)  -->
<!DOCTYPE svg PUBLIC "-//W3C//DTD SVG 1.1//EN" "http://www.w3.org/Graphics/SVG/1.1/DTD/svg11.dtd">
<svg version="1.1" id="Layer_3" xmlns="http://www.w3.org/2000/svg" xmlns:xlink="http://www.w3.org/1999/xlink" x="0px" y="0px"
	 width="283.46px" height="283.46px" viewBox="0 0 283.46 283.46" enable-background="new 0 0 283.46 283.46" xml:space="preserve">
<g>
	<path d="M193.896,7.084c-4.299,0-7.784,3.485-7.784,7.784V216.64c-10.947-7.252-26.776-11.821-44.394-11.821
		c-33.067,0-59.938,16.099-59.938,35.827c0,19.741,26.871,35.729,59.938,35.729c32.151,0,58.349-15.115,59.775-34.099
		c0.12-0.541,0.188-1.103,0.188-1.68V14.869C201.68,10.57,198.195,7.084,193.896,7.084z M151.593,258.075
		c-17.707,11.959-37.521,13.436-44.25,3.292c-6.73-10.143,2.142-28.128,19.85-40.086c9.949-6.718,20.552-10.089,29.146-9.974
		c6.682,0.097,12.151,2.251,15.105,6.681C178.173,228.13,169.289,246.128,151.593,258.075z"/>
</g>
</svg>
