<?xml version="1.0" encoding="utf-8"?>
<!-- Generator: Adobe Illustrator 15.1.0, SVG Export Plug-In . SVG Version: 6.00 Build 0)  -->
<!DOCTYPE svg PUBLIC "-//W3C//DTD SVG 1.1//EN" "http://www.w3.org/Graphics/SVG/1.1/DTD/svg11.dtd">
<svg version="1.1"
	 id="Layer_2" xmlns:rdf="http://www.w3.org/1999/02/22-rdf-syntax-ns#" xmlns:cc="http://creativecommons.org/ns#" xmlns:svg="http://www.w3.org/2000/svg" xmlns:dc="http://purl.org/dc/elements/1.1/"
	 xmlns="http://www.w3.org/2000/svg" xmlns:xlink="http://www.w3.org/1999/xlink" x="0px" y="0px" width="283.46px"
	 height="283.46px" viewBox="0 0 283.46 283.46" enable-background="new 0 0 283.46 283.46" xml:space="preserve">
<g id="g2644" transform="matrix(0.25,0,0,0.25,294.081,403.208)">
</g>
<g>
	<path fill="#010101" d="M141.621,61.291c-74.343,0-134.537,36.178-134.537,80.548c0,44.383,60.193,80.331,134.537,80.331
		s134.755-35.947,134.755-80.331C276.376,97.483,215.964,61.291,141.621,61.291z M218.904,188.426
		c-15.129,22.804-59.676,19.483-99.487-7.402c-39.784-26.858-59.758-67.323-44.628-90.126c6.64-9.959,18.939-14.803,33.96-15.021
		c19.321-0.258,43.159,7.32,65.528,22.423C214.087,125.185,234.035,165.623,218.904,188.426z"/>
</g>
</svg>
