<?xml version="1.0" encoding="utf-8"?>
<!-- Generator: Adobe Illustrator 15.1.0, SVG Export Plug-In . SVG Version: 6.00 Build 0)  -->
<!DOCTYPE svg PUBLIC "-//W3C//DTD SVG 1.1//EN" "http://www.w3.org/Graphics/SVG/1.1/DTD/svg11.dtd">
<svg version="1.1" id="Layer_2" xmlns="http://www.w3.org/2000/svg" xmlns:xlink="http://www.w3.org/1999/xlink" x="0px" y="0px"
	 width="283.465px" height="283.465px" viewBox="0 0 283.465 283.465" enable-background="new 0 0 283.465 283.465"
	 xml:space="preserve">
<g id="clef-000000037584520">
	<g>
		<g transform="scale(1,-1)">
			<path stroke="#000000" stroke-width="0.2138" d="M163.955-236.898c0.615-3.849,0.77-7.234,0.77-10.313
				c0-5.079-0.615-8.928-2.001-11.391c-3.694-6.466-12.007-13.085-21.551-13.085c-7.851,0-13.084,1.848-15.701,5.542
				c11.545,3.232,16.779,9.082,16.163,17.702c-0.616,7.235-8.005,14.009-15.855,13.393c-5.234-0.308-9.39-2.463-12.161-6.773
				c-2.309-3.694-3.387-8.158-3.079-13.392c0.462-7.082,4.619-12.47,12.315-16.164c6.311-3.079,12.623-4.464,19.088-4.002
				c10.775,0.615,18.935,6.003,24.322,15.854c1.385,2.617,2.154,6.157,2.154,10.775c0,3.388-0.153,7.544-0.923,12.315
				c-1.231,8.005-2.617,16.164-3.849,24.938c15.394,6.312,29.402,20.781,27.709,41.563c-0.924,12.314-6.004,21.705-15.086,28.324
				c-4.772,3.541-11.545,5.388-20.474,5.388c-1.539,0-3.079-0.154-4.311-0.308l-4.771,27.862c1.847,1.539,3.694,3.079,5.695,4.464
				c5.388,4.31,13.085,15.086,15.086,18.165c7.389,12.776,10.621,20.935,10.313,39.407c-0.308,6.773-2.309,14.932-6.312,24.476
				c-4.002,9.543-7.389,14.162-10.621,14.162c-3.849,0-8.467-4.311-13.7-12.623c-8.159-13.084-10.622-21.551-10.622-39.562
				c0-2.463,0.154-7.081,0.77-13.7c0.769-7.081,1.539-11.699,2.001-14.162c-8.774-6.465-16.625-13.084-23.552-19.55
				c-6.927-6.465-12.469-14.008-16.933-22.783c-5.08-10.16-7.389-19.857-6.773-29.094c0.77-11.237,3.387-20.319,7.389-27.093
				c5.696-9.391,15.24-17.241,28.786-23.706c4.31-2.001,10.929-3.079,20.012-3.079c4.311,0,8.158,0.308,11.699,0.924
				C161.185-220.581,162.724-228.74,163.955-236.898z M171.806-42.631c0.462-6.466-2.616-14.009-9.236-22.783
				c-5.388-7.081-11.853-13.7-19.55-19.704c-0.462,3.541-0.77,7.235-0.77,10.929c0,17.087,6.158,44.026,20.781,44.026
				C168.266-30.009,171.19-34.319,171.806-42.631z M179.656-178.249c1.078-14.778-4.464-24.168-16.779-28.324l-8.313,50.184
				C170.112-155.774,178.579-163.01,179.656-178.249z M159.183-207.651c-3.848-0.923-7.696-1.385-11.545-1.385
				c-12.007,0-22.321,3.694-31.249,11.237s-13.546,16.625-14.316,27.093c-0.616,8.466,2.771,18.472,10.314,30.017
				c3.54,5.388,9.082,11.545,16.779,18.318c6.157,5.542,10.929,9.236,14.162,11.238l4.465-26.169
				c-4.465-1.078-8.467-2.925-12.007-5.542c-7.081-5.388-14.316-14.932-13.546-26.169c1.078-12.931,8.159-21.397,18.934-26.478
				c0.462,0.77,1.078,1.231,1.54,1.54c-4.926,2.463-11.237,10.621-11.545,17.702c-0.616,11.854,8.313,19.242,19.704,19.55
				C153.642-173.631,156.258-190.563,159.183-207.651z"/>
		</g>
	</g>
</g>
</svg>
