<?xml version="1.0" encoding="utf-8"?>
<!-- Generator: Adobe Illustrator 15.1.0, SVG Export Plug-In . SVG Version: 6.00 Build 0)  -->
<!DOCTYPE svg PUBLIC "-//W3C//DTD SVG 1.1//EN" "http://www.w3.org/Graphics/SVG/1.1/DTD/svg11.dtd">
<svg version="1.1" id="Layer_2" xmlns="http://www.w3.org/2000/svg" xmlns:xlink="http://www.w3.org/1999/xlink" x="0px" y="0px"
	 width="283.465px" height="283.465px" viewBox="0 0 283.465 283.465" enable-background="new 0 0 283.465 283.465"
	 xml:space="preserve">
<path id="path2070" stroke="#131516" stroke-width="0.6211" d="M24.891,269.035c22.377-15.109,39.09-26.547,49.854-34.455
	c10.764-7.768,22.094-17.51,33.707-29.09c11.613-11.578,21.387-24.711,29.316-39.256c6.23-10.732,11.613-23.16,16.004-37.281
	c4.391-13.98,6.656-27.535,7.08-40.387c0-12.004-1.557-23.441-4.814-34.174c-3.115-10.873-8.496-19.77-16.146-26.971
	c-7.646-7.061-17.561-10.592-29.883-10.592c-11.895,0-23.084,2.4-33.564,7.061c-10.34,4.803-17.703,12.428-21.811,23.158
	c0,0.988-0.566,2.26-1.418,4.096c0.285,2.262,1.418,3.953,3.541,5.227c2.125,1.271,3.967,1.836,5.666,1.836
	c0.85,0,3.258-0.424,6.939-1.271c3.822-0.848,6.939-1.414,9.488-1.414c7.506,0,14.162,2.686,20.252,7.908
	c5.949,5.227,8.922,11.58,8.922,19.064c0,5.365-1.557,10.449-4.529,15.109c-2.975,4.658-7.082,8.473-12.322,11.154
	c-5.24,2.824-11.047,4.096-17.279,4.096c-11.33,0-20.959-3.391-28.891-10.309c-7.789-7.063-11.756-15.957-11.756-27.111
	c0-14.264,4.391-26.549,13.029-36.998c8.781-10.451,19.828-18.217,33.424-23.441c13.455-5.367,27.053-7.908,40.932-7.908
	c15.154,0,29.6,3.813,43.055,11.58c13.598,7.625,24.219,18.217,32.148,31.35c7.932,13.273,12.039,27.396,12.039,42.646
	c0,27.111-9.064,52.248-27.193,75.549c-18.129,23.299-40.504,43.492-67.271,60.721c-17.846,11.721-46.736,27.535-86.533,47.447
	L24.891,269.035L24.891,269.035L24.891,269.035L24.891,269.035L24.891,269.035z M221.611,50.58c0-5.084,1.84-9.32,5.521-12.709
	c3.541-3.531,7.932-5.227,13.172-5.227c4.533,0,8.781,1.979,12.605,5.791c3.824,3.67,5.664,8.049,5.664,12.85
	c0,5.084-1.98,9.463-5.664,12.992c-3.965,3.389-8.355,5.084-13.313,5.084c-5.24,0-9.49-1.695-12.889-5.508
	C223.309,60.182,221.611,55.805,221.611,50.58z M221.611,124.576c0-5.084,1.84-9.461,5.24-12.852
	c3.539-3.529,7.93-5.225,13.453-5.225c4.533,0,8.641,1.836,12.605,5.648c3.684,3.813,5.664,7.906,5.664,12.426
	c0,5.508-1.84,9.885-5.381,13.416c-3.682,3.529-7.932,5.365-12.889,5.365c-5.523,0-9.914-1.836-13.453-5.225
	C223.451,134.742,221.611,130.225,221.611,124.576z"/>
</svg>
