<?xml version="1.0" encoding="utf-8"?>
<!-- Generator: Adobe Illustrator 15.1.0, SVG Export Plug-In . SVG Version: 6.00 Build 0)  -->
<!DOCTYPE svg PUBLIC "-//W3C//DTD SVG 1.1//EN" "http://www.w3.org/Graphics/SVG/1.1/DTD/svg11.dtd">
<svg version="1.1" id="Layer_1" xmlns="http://www.w3.org/2000/svg" xmlns:xlink="http://www.w3.org/1999/xlink" x="0px" y="0px"
	 width="283.46px" height="283.46px" viewBox="0 0 283.46 283.46" enable-background="new 0 0 283.46 283.46" xml:space="preserve">
<path d="M113.359,47.635L243.513,7.086v181.162c0,13.518-1.718,23.708-5.153,30.579c-3.436,6.858-9.271,12.529-17.491,17.001
	c-8.234,4.472-17.525,6.708-27.88,6.708c-11.882,0-21.363-3.408-28.453-10.226c-7.082-6.81-10.627-15.609-10.627-26.407
	c0-10.893,4.199-20.3,12.591-28.2c8.397-7.9,19.236-11.854,32.542-11.854c4.356,0,8.194,0.382,11.521,1.146s8.753,2.727,16.271,5.89
	V54.502l-97.284,30.249v136.688c0,13.19-1.745,23.463-5.235,30.818c-3.486,7.361-9.481,13.224-17.982,17.58
	c-8.503,4.355-17.768,6.537-27.798,6.537c-11.882,0-21.281-3.354-28.204-10.055c-6.922-6.701-10.382-15.453-10.382-26.237
	c0-11.452,4.142-21.063,12.427-28.861c8.282-7.799,19.131-11.691,32.536-11.691c8.504,0,17.985,2.509,28.449,7.52V47.635z"/>
</svg>
