<?xml version="1.0" encoding="utf-8"?>
<!-- Generator: Adobe Illustrator 15.1.0, SVG Export Plug-In . SVG Version: 6.00 Build 0)  -->
<!DOCTYPE svg PUBLIC "-//W3C//DTD SVG 1.1//EN" "http://www.w3.org/Graphics/SVG/1.1/DTD/svg11.dtd">
<svg version="1.1" id="Layer_1" xmlns="http://www.w3.org/2000/svg" xmlns:xlink="http://www.w3.org/1999/xlink" x="0px" y="0px"
	 width="283.465px" height="283.465px" viewBox="0 0 283.465 283.465" enable-background="new 0 0 283.465 283.465"
	 xml:space="preserve">
<g>
	<g id="XMLID_1_">
		<g>
			<path d="M188.921,183.704c0,14.258,0,29.543,0,44.137c0,2.473-0.027,4.756-0.426,6.953c-0.369,2.051-0.896,3.955-1.561,5.748
				c-0.498,1.205-1.037,2.369-1.561,3.549c-0.389,0.465-0.576,1.127-0.924,1.633c-0.287,0.564-0.68,1.021-0.922,1.631
				c-0.252,0.199-0.326,0.572-0.568,0.781c-0.512,0.764-1.01,1.545-1.561,2.27c-0.75,0.953-1.479,1.93-2.271,2.84
				c-1.166,1.381-2.395,2.678-3.689,3.975c-0.426,0.424-0.85,0.855-1.35,1.205c-1.662,1.742-3.645,3.166-5.533,4.684
				c-2.012,1.398-4.057,2.758-6.244,3.975c-2.48,1.402-5.064,2.604-7.807,3.762c-0.816,0.346-1.764,0.775-2.695,1.135
				c-0.93,0.357-1.865,0.666-2.842,0.994c-0.395,0.133-0.77,0.297-1.203,0.426c-1.039,0.309-2.338,0.654-3.479,0.992
				c-0.625,0.188-1.584,0.33-2.342,0.498c-3.41,0.754-7.217,1.313-11.281,1.488c-1.064,0-2.131,0-3.195,0
				c-3.504-0.186-6.893-0.486-9.791-1.275c-1.055-0.152-1.908-0.504-2.91-0.711c-2.73-0.959-5.32-2.004-7.662-3.406
				c-0.744-0.443-1.488-0.926-2.129-1.488c-0.41-0.205-0.74-0.49-1.064-0.781c-0.381-0.232-0.645-0.588-1.064-0.779
				c-0.584-0.645-1.199-1.26-1.846-1.846c-1.129-1.307-2.203-2.668-3.121-4.188c-1.791-3.105-3.057-6.736-3.336-11.354
				c0-0.688,0-1.373,0-2.059c0.51-8.121,3.457-13.811,6.883-19.018c1.217-1.668,2.395-3.377,3.832-4.824
				c0.641-0.926,1.615-1.689,2.27-2.484c0.26-0.314,0.637-0.744,0.922-0.922c0.076-0.047,0.082-0.09,0.143-0.143
				c0.512-0.436,0.963-0.947,1.42-1.348c1.369-1.201,2.75-2.336,4.186-3.406c1.615-1.273,3.359-2.414,5.109-3.549
				c3.066-1.871,6.365-3.578,9.936-5.109c3.529-1.514,7.355-2.719,11.424-3.688c3.947-0.941,8.742-1.633,13.482-1.633
				c4.783,0,9.43,0.607,13.41,1.703c2.193,0.691,4.352,1.422,6.244,2.412c0.498,0.191,0.967,0.461,1.42,0.709
				c0.477,0.262,0.939,0.521,1.348,0.852c0.545,0.168,0.828,0.592,1.35,0.781c0.119,0.234,0.471,0.238,0.566,0.496
				c0.225-0.033,0.188,0.191,0.355,0.213c0.125,0.063,0.246,0.266,0.213-0.07c0-67.465,0-134.912,0-202.377c3.287,0,6.576,0,9.863,0
				C188.921,65.771,188.921,124.739,188.921,183.704z"/>
		</g>
	</g>
</g>
</svg>
