<?xml version="1.0" encoding="utf-8"?>
<!-- Generator: Adobe Illustrator 15.1.0, SVG Export Plug-In . SVG Version: 6.00 Build 0)  -->
<!DOCTYPE svg PUBLIC "-//W3C//DTD SVG 1.1//EN" "http://www.w3.org/Graphics/SVG/1.1/DTD/svg11.dtd">
<svg version="1.1"
	 id="svg3019" inkscape:version="0.48.5 r10040" sodipodi:docname="bécarre-bémol.svg" xmlns:rdf="http://www.w3.org/1999/02/22-rdf-syntax-ns#" xmlns:cc="http://creativecommons.org/ns#" xmlns:sodipodi="http://sodipodi.sourceforge.net/DTD/sodipodi-0.dtd" xmlns:svg="http://www.w3.org/2000/svg" xmlns:dc="http://purl.org/dc/elements/1.1/" xmlns:inkscape="http://www.inkscape.org/namespaces/inkscape"
	 xmlns="http://www.w3.org/2000/svg" xmlns:xlink="http://www.w3.org/1999/xlink" x="0px" y="0px" width="283.465px"
	 height="283.465px" viewBox="-138.906 -133.912 283.465 283.465" enable-background="new -138.906 -133.912 283.465 283.465"
	 xml:space="preserve">
<sodipodi:namedview  id="namedview3109" inkscape:window-maximized="1" inkscape:pageshadow="2" inkscape:window-height="1018" inkscape:current-layer="svg3019" fit-margin-right="0" inkscape:window-y="-8" inkscape:window-x="-8" inkscape:window-width="1920" fit-margin-bottom="0" inkscape:pageopacity="0" inkscape:zoom="5.6568542" objecttolerance="10" inkscape:cy="-33.087705" bordercolor="#666666" pagecolor="#ffffff" fit-margin-left="0" fit-margin-top="0" borderopacity="1" guidetolerance="10" showgrid="false" gridtolerance="10" inkscape:cx="55.801797">
	</sodipodi:namedview>
<path id="path3089" inkscape:connector-curvature="0" d="M-22.68,55l-0.437,28.298v4.708c0,9.433,0.437,18.882,1.715,28.314
	c19.303-16.31,39.882-34.317,39.882-59.605c0-14.157-6.002-28.734-18.444-28.734C-13.247,27.981-22.259,40.843-22.68,55z
	 M-40.704,131.756l-5.145-255.151c3.43-2.152,7.718-3.43,11.585-3.43c3.85,0,8.138,1.278,11.584,3.43L-25.69,24.55
	C-14.962,15.538-0.822,9.973,13.336,9.973c22.295,0,38.167,20.58,38.167,43.732c0,34.301-36.89,50.173-63.034,72.468
	c-6.44,5.583-10.291,16.293-19.303,16.293C-36.416,142.466-40.704,137.758-40.704,131.756z"/>
</svg>
