<?xml version="1.0" encoding="utf-8"?>
<!-- Generator: Adobe Illustrator 15.1.0, SVG Export Plug-In . SVG Version: 6.00 Build 0)  -->
<!DOCTYPE svg PUBLIC "-//W3C//DTD SVG 1.1//EN" "http://www.w3.org/Graphics/SVG/1.1/DTD/svg11.dtd">
<svg version="1.1" id="Layer_1" xmlns:serif="http://www.serif.com/"
	 xmlns="http://www.w3.org/2000/svg" xmlns:xlink="http://www.w3.org/1999/xlink" x="0px" y="0px" width="283.46px"
	 height="283.46px" viewBox="0 0 283.46 283.46" enable-background="new 0 0 283.46 283.46" xml:space="preserve">
<g>
	<polygon fill="none" points="31.637,131.29 56.039,173.171 57.737,173.171 81.288,131.896 81.288,179.607 95.856,179.607 
		95.856,103.853 95.856,103.852 82.625,103.852 57.617,148.164 31.151,103.852 17.189,103.852 17.189,179.606 31.637,179.606 	"/>
	<path fill="none" d="M222.083,153.507h11.045l15.66,26.101h17.483l-17.239-27.801c6.152-1.619,10.563-4.25,13.231-7.892
		c2.671-3.643,4.008-8.659,4.008-15.055c0-8.578-2.61-14.89-7.83-18.937c-5.219-4.047-13.657-6.07-25.313-6.07h-26.221v75.754
		h15.176V153.507z M222.083,117.451h11.533c6.555,0,11.067,0.85,13.536,2.549c2.468,1.699,3.702,4.533,3.702,8.497
		c0,2.915-0.486,5.181-1.456,6.799c-0.974,1.62-2.633,2.813-4.979,3.583c-2.344,0.767-5.746,1.152-10.197,1.152h-12.139V117.451z"/>
	<polygon fill="none" points="135.963,179.607 151.746,128.619 166.798,179.607 182.095,179.607 204.07,103.853 188.894,103.853 
		174.083,160.546 157.693,103.853 146.283,103.853 129.408,161.276 114.232,103.853 98.694,103.853 121.03,179.607 	"/>
	<path d="M5.452,14.648v254.164c0.011,5.074,4.123,9.187,9.196,9.197h254.164c5.081-0.011,9.197-4.134,9.197-9.217
		c0-29.097,0-225.028,0-254.125c0-5.089-4.127-9.217-9.217-9.217H14.668C9.585,5.451,5.463,9.568,5.452,14.648z M206.908,103.854
		h26.221c11.656,0,20.095,2.023,25.313,6.07c5.22,4.047,7.83,10.359,7.83,18.937c0,6.396-1.337,11.412-4.008,15.055
		c-2.669,3.642-7.079,6.272-13.231,7.892l17.239,27.801h-17.483l-15.66-26.101h-11.045v26.101h-15.176V103.854z M114.232,103.853
		l15.176,57.423l16.875-57.423h11.41l16.391,56.693l14.811-56.693h15.176l-21.975,75.754h-15.297l-15.053-50.988l-15.783,50.988
		H121.03l-22.336-75.754H114.232z M17.189,103.852h13.962l26.466,44.312l25.008-44.312h13.231v0.001v75.754H81.288v-47.711
		l-23.551,41.275h-1.698L31.637,131.29v48.316H17.189V103.852z"/>
	<path d="M244.419,138.879c2.347-0.77,4.006-1.963,4.979-3.583c0.97-1.618,1.456-3.884,1.456-6.799c0-3.964-1.234-6.798-3.702-8.497
		c-2.469-1.699-6.981-2.549-13.536-2.549h-11.533v22.58h12.139C238.673,140.031,242.076,139.646,244.419,138.879z"/>
</g>
</svg>
