<?xml version="1.0" encoding="utf-8"?>
<!-- Generator: Adobe Illustrator 15.1.0, SVG Export Plug-In . SVG Version: 6.00 Build 0)  -->
<!DOCTYPE svg PUBLIC "-//W3C//DTD SVG 1.1//EN" "http://www.w3.org/Graphics/SVG/1.1/DTD/svg11.dtd">
<svg version="1.1" id="Layer_1" xmlns:serif="http://www.serif.com/"
	 xmlns="http://www.w3.org/2000/svg" xmlns:xlink="http://www.w3.org/1999/xlink" x="0px" y="0px" width="283.46px"
	 height="283.46px" viewBox="0 0 283.46 283.46" enable-background="new 0 0 283.46 283.46" xml:space="preserve">
<g>
	<defs>
		<rect id="SVGID_1_" x="5.452" y="5.451" width="272.558" height="272.558"/>
	</defs>
	<clipPath id="SVGID_2_">
		<use xlink:href="#SVGID_1_"  overflow="visible"/>
	</clipPath>
	<g clip-path="url(#SVGID_2_)">
		<path d="M278.009,14.668c0-5.089-4.127-9.217-9.217-9.217c-39.227,0-214.897,0-254.124,0c-5.089,0-9.217,4.127-9.217,9.217
			c0,29.096,0,225.028,0,254.125c0,5.089,4.128,9.217,9.217,9.217c39.227,0,214.897,0,254.124,0c5.09,0,9.217-4.128,9.217-9.217
			C278.009,239.696,278.009,43.764,278.009,14.668z M266.272,128.861c0,6.396-1.337,11.412-4.008,15.055
			c-2.669,3.641-7.079,6.272-13.231,7.891l17.239,27.801h-17.483l-15.66-26.1h-11.046v26.1h-15.176v-75.754h26.222
			c11.655,0,20.094,2.023,25.313,6.07S266.272,120.283,266.272,128.861L266.272,128.861z M95.856,103.853v75.754H81.288v-47.711
			l-23.551,41.276h-1.698l-24.402-41.882v48.316H17.189v-75.754h13.962l26.466,44.312l25.008-44.312H95.856z M204.07,103.853
			l-21.975,75.754h-15.296l-15.054-50.988l-15.782,50.988h-14.933l-22.336-75.754h15.538l15.176,57.423l16.874-57.423h11.411
			l16.391,56.694l14.81-56.694H204.07z M222.083,140.031h12.139c4.452,0,7.853-0.385,10.198-1.152
			c2.346-0.77,4.006-1.963,4.979-3.583c0.97-1.618,1.456-3.884,1.456-6.799c0-3.964-1.234-6.798-3.702-8.497
			c-2.469-1.699-6.982-2.549-13.537-2.549h-11.532V140.031z"/>
	</g>
</g>
</svg>
