<?xml version="1.0" encoding="utf-8"?>
<!-- Generator: Adobe Illustrator 15.1.0, SVG Export Plug-In . SVG Version: 6.00 Build 0)  -->
<!DOCTYPE svg PUBLIC "-//W3C//DTD SVG 1.1//EN" "http://www.w3.org/Graphics/SVG/1.1/DTD/svg11.dtd">
<svg version="1.1" id="Layer_2" xmlns="http://www.w3.org/2000/svg" xmlns:xlink="http://www.w3.org/1999/xlink" x="0px" y="0px"
	 width="283.46px" height="283.46px" viewBox="0 0 283.46 283.46" enable-background="new 0 0 283.46 283.46" xml:space="preserve">
<g>
	<path d="M276.375,26.73h-54.793h-16.146H78.022H61.878H7.084v63.757v166.242h0.001h54.794h16.146h127.412h16.146h54.793v-63.758
		v-19.362v-63.758V26.73H276.375z M150.457,61.283h62.316V42.424l47.643,30.041l-47.643,30.047V83.381h-62.316V61.283z
		 M70.687,78.901V97.76h62.316v22.098H70.687v19.131l-47.642-30.047L70.687,78.901z M133.003,221.905H70.687v19.132l-47.642-30.048
		l47.642-30.041v18.859h62.316V221.905L133.003,221.905z M260.416,174.513l-47.643,30.047v-19.131h-62.316v-22.098h62.316v-18.859
		L260.416,174.513z"/>
</g>
</svg>
