<?xml version="1.0" encoding="utf-8"?>
<!-- Generator: Adobe Illustrator 15.1.0, SVG Export Plug-In . SVG Version: 6.00 Build 0)  -->
<!DOCTYPE svg PUBLIC "-//W3C//DTD SVG 1.1//EN" "http://www.w3.org/Graphics/SVG/1.1/DTD/svg11.dtd">
<svg version="1.1" id="Layer_3" xmlns="http://www.w3.org/2000/svg" xmlns:xlink="http://www.w3.org/1999/xlink" x="0px" y="0px"
	 width="283.465px" height="283.465px" viewBox="0 0 283.465 283.465" enable-background="new 0 0 283.465 283.465"
	 xml:space="preserve">
<g>
	<path d="M69.163,206.784H52.696c-0.42,0-0.758,0.338-0.758,0.758v16.467c0,0.42,0.338,0.756,0.758,0.756h16.467
		c0.42,0,0.758-0.336,0.758-0.756v-16.467C69.921,207.12,69.583,206.784,69.163,206.784z"/>
	<path d="M149.95,206.784h-16.465c-0.422,0-0.76,0.338-0.76,0.758v16.467c0,0.42,0.338,0.756,0.76,0.756h16.465
		c0.422,0,0.758-0.336,0.758-0.756v-16.467C150.708,207.12,150.372,206.784,149.95,206.784z"/>
	<path d="M251.673,7.087H31.792c-13.646,0-24.705,11.062-24.705,24.705v219.881c0,13.646,11.061,24.705,24.705,24.705h219.881
		c13.643,0,24.705-11.061,24.705-24.705V31.792C276.378,18.148,265.315,7.087,251.673,7.087z M249.448,240.474
		c0,1.234-1.012,2.244-2.244,2.244h-49.369c-1.234,0-2.244-1.01-2.244-2.244v-49.371c0-1.232,1.01-2.242,2.244-2.242h15.146v-20.197
		h-61.713v20.197h15.148c1.232,0,2.242,1.01,2.242,2.242v49.371c0,1.234-1.01,2.244-2.242,2.244h-49.371
		c-1.234,0-2.244-1.01-2.244-2.244v-49.371c0-1.232,1.01-2.242,2.244-2.242h15.146v-20.197H70.481v20.197h15.146
		c1.234,0,2.244,1.01,2.244,2.242v49.371c0,1.234-1.01,2.244-2.244,2.244H36.259c-1.234,0-2.244-1.01-2.244-2.244v-49.371
		c0-1.232,1.01-2.242,2.244-2.242h15.146v-39.271h80.787v-25.807H65.431c-2.467,0-4.486-2.021-4.486-4.488V45.239
		c0-2.469,2.02-4.488,4.486-4.488h152.6c2.469,0,4.488,2.02,4.488,4.488v74.055c0,2.469-2.02,4.488-4.488,4.488h-66.762v25.807
		h80.787v39.271h15.148c1.232,0,2.244,1.01,2.244,2.242V240.474L249.448,240.474z"/>
	<path d="M230.737,206.784h-16.465c-0.422,0-0.758,0.338-0.758,0.758v16.467c0,0.42,0.336,0.756,0.758,0.756h16.465
		c0.422,0,0.758-0.336,0.758-0.756v-16.467C231.495,207.12,231.159,206.784,230.737,206.784z"/>
	<path d="M204.565,58.702H78.896v47.125h125.67V58.702z M110.313,93.485c-6.195,0-11.221-5.023-11.221-11.221
		c0-6.195,5.023-11.221,11.221-11.221s11.221,5.023,11.221,11.221S116.511,93.485,110.313,93.485z"/>
</g>
</svg>
