<?xml version="1.0" encoding="iso-8859-1"?>
<!-- Generator: Adobe Illustrator 15.1.0, SVG Export Plug-In . SVG Version: 6.00 Build 0)  -->
<!DOCTYPE svg PUBLIC "-//W3C//DTD SVG 1.1//EN" "http://www.w3.org/Graphics/SVG/1.1/DTD/svg11.dtd">
<svg version="1.1" id="Layer_2" xmlns="http://www.w3.org/2000/svg" xmlns:xlink="http://www.w3.org/1999/xlink" x="0px" y="0px"
	 width="283.46px" height="283.46px" viewBox="0 0 283.46 283.46" style="enable-background:new 0 0 283.46 283.46;"
	 xml:space="preserve">
<g>
	<path d="M276.375,119.541h-44.398V32.638c0-4.538-2.593-8.217-5.791-8.217h-3.399c-3.198,0-5.791,3.679-5.791,8.217v86.903h-11.559
		H78.022H66.466V32.638c0-4.538-2.593-8.217-5.791-8.217h-3.399c-3.198,0-5.791,3.679-5.791,8.217v86.903H7.084v38.67V259.04h0.001
		h54.794h16.146h127.412h16.146h54.793v-38.671v-11.743v-38.67v-50.415H276.375z M123.613,219.178H99.394H99.11H64.736h-6.229v2.362
		v10.19l-31.258-19.715l24.236-15.281l7.022-4.428v12.373h7.959H99.11h0.284h24.219V219.178z M123.613,155.712H99.394H99.11H66.466
		h-7.959v12.551l-7.022-4.428L27.249,148.55l24.236-15.284l7.022-4.428v12.375h7.959H99.11h0.284h24.219V155.712z M220.955,249.743
		V237.19h-40.604h-0.283h-24.22v-14.498h24.22h0.283h40.604v-1.577v-10.796l10.438,6.581l20.82,13.128L220.955,249.743z
		 M231.976,179.322l-11.021,6.95v-12.55h-3.96h-36.644h-0.283h-24.22v-14.498h24.22h0.283h36.644h3.96v-12.375l11.021,6.95
		l20.236,12.761L231.976,179.322z"/>
	<path d="M117.092,69.053l-0.016,0.015C117.022,69.128,117.114,69.031,117.092,69.053z"/>
	<circle cx="141.731" cy="93.723" r="4.981"/>
	<path d="M173.429,69.068c1.945-1.943,1.945-5.1,0-7.044c-17.506-17.506-45.891-17.506-63.398,0c-1.944,1.944-1.944,5.101,0,7.044
		c1.944,1.944,5.1,1.944,7.043,0l0.017-0.015c13.574-13.348,35.732-13.342,49.292,0.015
		C168.33,71.012,171.486,71.012,173.429,69.068z"/>
	<path d="M159.341,83.157c1.943-1.944,1.943-5.101,0-7.045c-9.727-9.726-25.497-9.726-35.222,0c-1.944,1.944-1.944,5.101,0,7.045
		c1.944,1.943,5.101,1.943,7.044,0c5.801-5.656,15.332-5.656,21.132,0C154.24,85.1,157.398,85.1,159.341,83.157z"/>
	<path d="M103.006,54.961l-0.019,0.019C102.904,55.078,103.058,54.911,103.006,54.961z"/>
	<path d="M102.987,54.979l0.02-0.019c21.333-20.991,56.149-20.983,77.468,0.019c1.943,1.944,5.1,1.944,7.043,0
		c1.945-1.943,1.945-5.1,0-7.044c-25.287-25.287-66.286-25.287-91.574,0c-1.944,1.944-1.944,5.101,0,7.044
		C97.887,56.924,101.043,56.924,102.987,54.979z"/>
</g>
</svg>
