<?xml version="1.0" encoding="utf-8"?>
<!-- Generator: Adobe Illustrator 15.1.0, SVG Export Plug-In . SVG Version: 6.00 Build 0)  -->
<!DOCTYPE svg PUBLIC "-//W3C//DTD SVG 1.1//EN" "http://www.w3.org/Graphics/SVG/1.1/DTD/svg11.dtd">
<svg version="1.1" id="Layer_3" xmlns="http://www.w3.org/2000/svg" xmlns:xlink="http://www.w3.org/1999/xlink" x="0px" y="0px"
	 width="283.465px" height="283.465px" viewBox="0 0 283.465 283.465" enable-background="new 0 0 283.465 283.465"
	 xml:space="preserve">
<g>
	<path d="M141.733,226.773c-4.696,0-8.504,3.804-8.504,8.504c0,4.701,3.808,8.504,8.504,8.504c4.7,0,8.504-3.803,8.504-8.504
		C150.237,230.577,146.434,226.773,141.733,226.773z"/>
	<path d="M56.694,226.773c-4.696,0-8.504,3.804-8.504,8.504c0,4.701,3.808,8.504,8.504,8.504s8.5-3.803,8.504-8.504
		C65.198,230.577,61.391,226.773,56.694,226.773z"/>
	<path d="M141.733,56.694c4.7-0.004,8.504-3.809,8.504-8.504c0-4.696-3.804-8.503-8.504-8.503c-4.696,0-8.504,3.808-8.504,8.504
		C133.229,52.887,137.037,56.694,141.733,56.694z"/>
	<path d="M246.792,7.087H36.674c-16.34,0-29.587,13.247-29.587,29.587v210.117c0,16.34,13.247,29.587,29.587,29.587h210.117
		c16.341,0,29.587-13.247,29.587-29.587V36.674C276.38,20.334,263.132,7.087,246.792,7.087z M141.845,22.566
		c14.09,0.063,25.467,11.535,25.399,25.624c-0.033,10.774-6.843,20.362-17.008,23.946v44.085h-17.007V72.133
		c-10.231-3.616-17.055-13.313-17.009-24.162C116.284,33.878,127.753,22.508,141.845,22.566z M192.756,133.23v17.008H90.71V133.23
		H192.756z M56.694,22.679c14.089,0,25.512,11.424,25.512,25.513c-0.021,3.787-0.893,7.523-2.55,10.929l28.062,28.069v29.032H90.71
		v-21.99L67.623,71.146c-3.405,1.665-7.138,2.536-10.929,2.558c-14.089,0-25.512-11.423-25.512-25.512S42.605,22.679,56.694,22.679z
		 M107.717,196.279l-28.062,28.068c1.657,3.405,2.529,7.144,2.55,10.93c0,14.085-11.423,25.512-25.512,25.512
		s-25.513-11.427-25.513-25.512c0-14.084,11.424-25.513,25.513-25.513c3.791,0.018,7.527,0.897,10.933,2.559l23.083-23.086v-21.991
		h17.008V196.279z M150.237,259.436c-13.283,4.691-27.861-2.268-32.559-15.547c-4.696-13.278,2.268-27.861,15.551-32.563v-44.08
		h17.008v44.081c7.267,2.574,12.979,8.288,15.546,15.555C170.484,240.161,163.524,254.744,150.237,259.436z M226.772,260.789
		c-14.084,0-25.513-11.427-25.513-25.512c0.018-3.786,0.897-7.523,2.551-10.93l-28.062-28.068v-29.033h17.008v21.991l23.086,23.086
		c3.405-1.66,7.144-2.541,10.93-2.559c14.085,0,25.512,11.429,25.512,25.513C252.284,249.362,240.857,260.789,226.772,260.789z
		 M226.772,73.702c-3.786-0.021-7.523-0.893-10.93-2.558l-23.087,23.088v21.99h-17.007V87.19l28.063-28.069
		c-1.652-3.405-2.533-7.142-2.551-10.929c0.018-14.084,11.429-25.495,25.513-25.513c14.085,0,25.512,11.424,25.512,25.513
		S240.857,73.702,226.772,73.702z"/>
	<path d="M56.694,56.694c4.696-0.004,8.5-3.809,8.504-8.504c0-4.696-3.808-8.504-8.504-8.504s-8.504,3.808-8.504,8.504
		C48.19,52.886,51.998,56.694,56.694,56.694z"/>
	<path d="M226.772,39.688c-4.7,0-8.504,3.808-8.504,8.504c0,4.695,3.804,8.504,8.504,8.504c4.701-0.004,8.504-3.809,8.504-8.504
		C235.276,43.495,231.474,39.688,226.772,39.688z"/>
	<path d="M226.772,226.773c-4.7,0-8.504,3.804-8.504,8.504c0,4.701,3.804,8.504,8.504,8.504c4.701,0,8.504-3.803,8.504-8.504
		C235.276,230.577,231.474,226.773,226.772,226.773z"/>
</g>
</svg>
