<?xml version="1.0" encoding="utf-8"?>
<!-- Generator: Adobe Illustrator 15.1.0, SVG Export Plug-In . SVG Version: 6.00 Build 0)  -->
<!DOCTYPE svg PUBLIC "-//W3C//DTD SVG 1.0//EN" "http://www.w3.org/TR/2001/REC-SVG-20010904/DTD/svg10.dtd">
<svg version="1.0" xmlns="http://www.w3.org/2000/svg" xmlns:xlink="http://www.w3.org/1999/xlink" x="0px" y="0px"
	 width="283.46px" height="283.46px" viewBox="0 0 283.46 283.46" enable-background="new 0 0 283.46 283.46" xml:space="preserve">
<g id="Layer_4">
</g>
<g id="Layer_3">
</g>
<g id="Layer_2">
</g>
<g id="Layer_5">
	<g>
		<path fill="none" d="M165.13,237.389c0,0.004-66.938-0.111-93.167-0.066l-10.352,0.063c-2.28,0.099-2.373,2.396-2.366,2.502
			c0.068,1.31,1.185,2.316,2.495,2.243l0.107-0.01l10.125-0.055c26.225-0.05,93.153,0.064,93.153,0.064
			c1.311,0.003,2.369-1.061,2.376-2.369C167.504,238.452,166.438,237.391,165.13,237.389z"/>
		<path fill="none" d="M176.41,219.334c-0.487-1.216-1.867-1.805-3.085-1.322c-2.198,0.879-4.506,1.861-6.881,2.445
			c-1.423,0.349-2.871,0.555-4.331,0.463c-0.806-0.051-1.58-0.357-2.348-0.678c-1.101-0.458-2.189-0.964-3.285-1.274
			c-1.284-0.357-2.583-0.473-3.922-0.16c-1.297,0.299-2.695,0.994-4.127,1.835c-1.533,0.899-3.111,1.98-4.683,2.604
			c-0.613,0.243-1.21,0.435-1.796,0.411c-0.008-0.193-0.008-0.403,0-0.55c0.012-0.719-0.03-1.404-0.191-1.941
			c-0.367-1.251-1.138-2.121-2.649-2.373c-1.5-0.251-3.186,0.011-4.93,0.474c-1.739,0.463-3.559,1.156-5.267,1.19
			c-0.286,0.006-0.571-0.014-0.848-0.071l0.064-0.107c0.251-0.423,2.068-3.063,2.633-4.821c0.444-1.39,0.212-2.549-0.25-3.244
			c-0.442-0.666-1.628-1.641-3.341-0.743c-0.768,0.409-2.465,1.992-2.674,2.247c-0.883,1.108-2.185,3.556-2.355,5.592
			c-0.037,0.423-0.028,0.838,0.025,1.229c-0.401,0.483-0.825,0.948-1.269,1.392c-1.197,1.196-2.554,2.231-4.05,3.04
			c-0.396,0.215-0.906,0.413-1.435,0.521c-0.363,0.066-0.755,0.186-1.055,0.042c0.005-0.118,0.021-0.31,0.051-0.434
			c0.15-0.671,0.487-1.381,0.854-2.058c0.713-1.309,1.575-2.461,1.943-2.979l1.268-1.615c0.412-0.467,1.308-1.15,1.936-1.854
			c0.531-0.591,0.917-1.224,1.109-1.797c0.171-0.509,0.18-0.936,0.114-1.282c2.04-1.418,4.045-2.888,5.961-4.461
			c1.179-0.963,3.49-2.674,4.475-4.556c0.708-1.353,0.884-2.796,0.303-4.242c-0.728-1.825-2.136-3.149-3.942-4.053
			c-3.074-1.543-7.465-1.764-10.079-2.032l-3.99-0.267l-4.197-0.131c-2.054-0.032-4.094-0.011-6.131,0.076
			c-2.042,0.087-4.082,0.234-6.133,0.452c-0.925,0.099-1.843,0.199-2.755,0.305l-0.243-0.893c-0.571-2.085-1.213-5.34-2.481-7.818
			c-0.74-1.448-1.696-2.646-2.858-3.433c-1.434-0.966-2.933-0.805-4.329,0.445c-0.954,0.855-1.875,2.656-2.534,4.155l-0.772,1.013
			c-0.857,1.203-1.661,2.45-2.423,3.721c-1.118,1.865-2.149,3.781-3.155,5.702c-0.51,0.979-1.02,1.956-1.524,2.938
			c-0.827,0.497-1.634,1.03-2.43,1.613c-1.778-0.307-3.573-0.646-5.364-0.909c-1.157-0.168-2.314-0.312-3.467-0.398
			c-0.258-0.021-2.586-0.197-3.524,0.065c-0.735,0.209-1.211,0.607-1.493,0.976c-0.54,0.698-0.684,1.475-0.462,2.31
			c0.118,0.45,0.398,0.98,0.893,1.471c0.675,0.665,2.024,1.378,2.072,1.407l4.438,2.337c-0.565,0.917-1.056,1.883-1.443,2.874
			c-0.712,1.832-1.08,3.763-0.949,5.707c0.103,1.515,0.456,2.883,1.019,4.114c-0.483,0.996-0.96,2.004-1.418,3.019
			c-0.435,0.965-0.854,1.937-1.239,2.921c-0.046,0.076-0.29,0.475-0.395,0.686c-0.209,0.413-0.335,0.837-0.371,1.231
			c-0.059,0.642,0.071,1.251,0.442,1.83c0.724,1.124,1.726,1.428,2.901,1.113c0.665-0.178,1.709-1.062,2.198-1.642l2.612-3.703
			c0.292,0.204,0.589,0.403,0.895,0.596c4.615,2.896,10.977,4.272,15.32,5.42c1.055,0.276,1.958,0.486,2.833,0.671
			c1.312,0.274,2.557,0.488,4.166,0.783c1.406,0.259,5.745,1.015,8.66,0.482c2.373-0.436,3.946-1.69,4.358-3.558
			c0.523-1.636,0.592-3.459,0.339-5.304c-0.086-0.63-0.212-1.269-0.366-1.896l4.389-2.91l1.57-0.739
			c-0.53,0.999-0.998,2.068-1.22,3.053c-0.46,2.027-0.037,3.809,1.354,4.999c1.006,0.862,2.278,1.256,3.625,1.256
			c1.546,0.002,3.192-0.544,4.35-1.165c1.896-1.024,3.615-2.334,5.135-3.848c0.305-0.306,0.603-0.62,0.892-0.937
			c1.211,0.639,2.512,0.875,3.864,0.849c1.769-0.029,3.65-0.576,5.476-1.099c0.943-0.269,1.866-0.556,2.725-0.649
			c-0.009,0.472,0.006,0.946,0.073,1.384c0.231,1.494,0.959,2.671,2.599,3.217c1.801,0.601,3.696,0.37,5.608-0.391
			c1.514-0.602,3.051-1.544,4.538-2.447c1.259-0.761,2.464-1.521,3.596-1.779c0.542-0.124,1.059-0.036,1.569,0.108
			c2.186,0.612,4.324,1.979,6.625,2.118c1.938,0.122,3.868-0.123,5.761-0.589c2.589-0.655,5.111-1.708,7.511-2.668
			C176.302,221.932,176.894,220.549,176.41,219.334z M84.171,196.553h0.001l2.191-5.944l0.391-1.06v-0.001l1.172-1.524l0.169-0.191
			c0.173,0.326,0.33,0.676,0.478,1.04c0.853,2.063,1.308,4.469,1.752,6.089l0.061,0.226l0.017,0.062v0.001l0,0v0.001
			c-2.132,0.341-4.212,0.76-6.231,1.305V196.553z M82.078,202.194c3.026-1.132,6.227-1.833,9.558-2.344l2.143,8.586
			c-3.59-2.324-7.739-3.739-12.272-4.758L82.078,202.194z M79.71,208.125c4.285,0.9,8.208,2.15,11.567,4.342
			c1.532,0.999,2.94,2.203,4.206,3.667l0.46,2.291c-1.279-0.907-2.604-1.728-3.969-2.485c-1.223-0.681-2.484-1.3-3.758-1.896
			c-0.763-0.356-1.532-0.701-2.306-1.038c-2.324-1.011-4.691-1.95-7.048-2.919L79.71,208.125z M98.461,230.843
			c-2.182,0.036-4.625-0.43-5.548-0.598c-1.568-0.29-2.78-0.496-4.056-0.761c-0.802-0.169-1.628-0.364-2.593-0.616
			c-3.964-1.047-9.799-2.209-14.009-4.853c-0.248-0.155-0.492-0.315-0.727-0.485c0,0,0-0.001-0.001-0.001c0,0,0-0.001,0.001-0.001
			l-0.001-0.001c0.445-0.674,0.885-1.357,1.323-2.043c1.476-2.327,2.789-4.693,3.989-7.101c4.359,1.794,8.772,3.445,12.828,5.698
			c0.209,0.118,0.414,0.241,0.621,0.363c1.006,0.581,1.986,1.204,2.936,1.882c0.648,0.462,1.288,0.941,1.905,1.46h0l0,0.002
			c0,0,0,0,0.001,0c-0.858,0.522-1.797,1.156-2.18,1.627c-0.779,0.963-0.794,1.908-0.53,2.643c0.038,0.103,0.081,0.202,0.128,0.297
			c0.272,0.545,0.652,0.881,1.068,1.107c0.247,0.133,0.521,0.229,0.816,0.273c0.295,0.043,0.615,0.037,0.953-0.034
			c0.263-0.058,0.848-0.343,1.07-0.459c0.771-0.267,1.276-0.454,1.691-0.63l0.396,1.009l0.471,1.198l0.001,0.006
			C98.837,230.834,98.65,230.841,98.461,230.843z M109.303,216.068c-0.743,0.508-1.482,1.017-2.224,1.515
			c-1.307,0.615-2.612,1.223-3.911,1.851l-0.18-0.379c-0.917-1.896-1.956-3.564-3.102-5.031c-0.571-2.719-1.187-5.424-1.835-8.128
			c-0.536-2.225-1.095-4.449-1.672-6.66c0,0,0.001,0,0.001,0c0-0.004,0-0.006,0-0.006c0,0,0,0,0,0c0,0,0-0.002,0-0.004
			c0.669-0.078,1.345-0.147,2.019-0.221c1.946-0.207,3.888-0.348,5.83-0.429c1.946-0.081,3.895-0.103,5.858-0.07l4.044,0.129
			l3.736,0.243c1.921,0.198,4.98,0.285,7.466,1.152c1.15,0.401,2.21,0.923,2.633,1.977c0.018,0.048,0.021,0.091,0.01,0.135
			c-0.009,0.042-0.029,0.081-0.056,0.121c-0.052,0.077-0.126,0.153-0.181,0.238c-0.232,0.359-0.546,0.693-0.874,1.004
			c-0.807,0.772-1.715,1.416-2.277,1.879c-1.895,1.55-3.877,2.995-5.897,4.396C115.592,211.917,112.403,213.953,109.303,216.068z"/>
		<path fill="none" d="M134.474,179.292c28.261,0,52.783-16.176,64.845-39.766c0.096-0.665,0.311-1.324,0.664-1.942
			c0.428-0.751,0.929-1.629,1.482-2.6c3.743-8.77,5.82-18.419,5.82-28.551c0-40.211-32.648-72.859-72.812-72.859
			c-40.213,0-72.86,32.648-72.86,72.859C61.614,146.645,94.26,179.292,134.474,179.292z M138.499,170.781v-24.217h22.725
			c-0.203,0.466-0.406,0.924-0.615,1.382C155.147,159.891,147.586,168.742,138.499,170.781z M180.232,152.24
			c-6.181,6.181-13.603,11.118-21.859,14.41c4.572-5.345,8.505-12.176,11.563-20.086h15.344
			C183.709,148.554,182.023,150.45,180.232,152.24z M190.533,138.838c-0.492-0.218-1.043-0.339-1.616-0.339h-16.279
			c2.451-8.542,3.949-18.019,4.272-28.033h22.186C198.462,120.756,195.423,130.397,190.533,138.838z M188.917,74.368
			c0.573,0,1.124-0.121,1.616-0.338c4.893,8.439,7.93,18.083,8.563,28.371h-22.187c-0.323-10.012-1.821-19.491-4.273-28.033H188.917
			z M180.232,60.628c1.791,1.791,3.478,3.687,5.051,5.677h-15.348c-3.057-7.913-6.99-14.744-11.563-20.088
			C166.629,49.506,174.051,54.444,180.232,60.628z M138.505,42.087c9.086,2.043,16.643,10.888,22.107,22.835
			c0.21,0.455,0.413,0.915,0.615,1.381h-22.723V42.087z M138.504,74.368h25.718c2.655,8.425,4.284,17.934,4.623,28.033h-30.341
			V74.368z M138.497,110.466h0.002h30.342c-0.341,10.1-1.968,19.608-4.623,28.033h-25.722V110.466z M88.665,152.24
			c-1.789-1.79-3.477-3.686-5.051-5.678h15.348c3.057,7.908,6.99,14.741,11.563,20.083C102.269,163.36,94.848,158.42,88.665,152.24z
			 M130.439,170.781c-9.112-2.039-16.688-10.89-22.15-22.836c-0.207-0.457-0.412-0.915-0.615-1.381h22.765V170.781z M130.44,138.499
			H104.68c-2.654-8.426-4.281-17.934-4.622-28.033h30.383V138.499z M100.057,102.4c0.342-10.098,1.968-19.608,4.622-28.033h25.759
			V102.4H100.057z M130.439,42.085v24.218h-22.765c0.203-0.466,0.408-0.926,0.615-1.381
			C113.751,52.974,121.327,44.125,130.439,42.085z M88.665,60.628c6.183-6.182,13.604-11.121,21.86-14.411
			c-4.571,5.345-8.504,12.175-11.562,20.088h-15.35C85.188,64.314,86.875,62.417,88.665,60.628z M78.364,74.031
			c0.494,0.216,1.043,0.338,1.616,0.338h16.28c-2.452,8.542-3.955,18.02-4.274,28.033H69.802
			C70.435,92.113,73.475,82.468,78.364,74.031z M79.98,138.5c-0.574-0.001-1.123,0.119-1.616,0.338
			c-4.889-8.441-7.929-18.084-8.562-28.372h22.186c0.318,10.014,1.821,19.491,4.274,28.033L79.98,138.5L79.98,138.5z"/>
		<path fill="none" d="M235.205,91.021c-0.067-0.029-0.137-0.054-0.205-0.081c-0.17-0.064-0.342-0.123-0.516-0.172
			c-0.071-0.021-0.143-0.042-0.215-0.061c-0.22-0.055-0.441-0.1-0.667-0.131c-0.019-0.002-0.038-0.008-0.057-0.01
			c-0.243-0.031-0.488-0.045-0.734-0.047c-0.068-0.001-0.138,0.002-0.207,0.004c-0.191,0.004-0.382,0.017-0.572,0.038
			c-0.072,0.008-0.145,0.016-0.216,0.026c-0.251,0.037-0.502,0.084-0.749,0.151c-1.624,0.444-3.006,1.514-3.837,2.977
			c-6.361,11.153-20.579,36.087-25.563,44.829c-0.979,1.715-0.38,3.894,1.329,4.871c0.426,0.238,0.861,0.49,1.282,0.729
			c0.191,0.108,0.389,0.191,0.589,0.261c0.048,0.018,0.097,0.033,0.146,0.049c0.198,0.061,0.398,0.107,0.601,0.133
			c0.021,0.002,0.041,0.002,0.062,0.003c0.186,0.021,0.37,0.021,0.555,0.012c0.052-0.003,0.104-0.005,0.156-0.01
			c0.199-0.02,0.398-0.051,0.593-0.103c0.021-0.006,0.039-0.015,0.061-0.021c0.176-0.051,0.348-0.118,0.515-0.195
			c0.047-0.022,0.094-0.044,0.14-0.067c0.181-0.094,0.355-0.198,0.519-0.322c0.01-0.007,0.018-0.017,0.027-0.023
			c0.153-0.119,0.295-0.256,0.43-0.401c0.036-0.04,0.072-0.08,0.107-0.122c0.136-0.162,0.264-0.333,0.373-0.523
			c4.978-8.727,19.019-33.358,23.392-40.937c0.13-0.227,0.288-0.431,0.467-0.611c0.005-0.005,0.009-0.011,0.014-0.016
			c0.177-0.176,0.375-0.326,0.588-0.452c0.009-0.006,0.019-0.013,0.028-0.019c0.211-0.122,0.438-0.214,0.673-0.281
			c0.016-0.004,0.028-0.01,0.043-0.014c0.233-0.062,0.477-0.093,0.724-0.096c0.014,0,0.025-0.005,0.039-0.005c0.02,0,0.04,0,0.061,0
			c1.004,0.571,2.184,1.245,2.184,1.245l-56.886,99.762l26.255,14.972l60.942-106.883c0,0-21.418-12.214-31.797-18.132
			C235.658,91.223,235.433,91.117,235.205,91.021z"/>
		<path fill="none" d="M175.142,237.526c-0.089,0.797,0.305,1.573,1.004,1.973c0.698,0.397,1.566,0.344,2.207-0.145
			c8.167-6.178,26.856-20.321,26.856-20.321l-26.254-14.971C178.956,204.062,176.302,227.351,175.142,237.526z"/>
		<path d="M83.614,146.562c1.574,1.992,3.262,3.888,5.051,5.678c6.184,6.181,13.604,11.12,21.859,14.405
			c-4.572-5.342-8.505-12.175-11.563-20.083H83.614z"/>
		<path d="M108.289,147.945c5.462,11.946,13.038,20.797,22.15,22.836v-24.217h-22.765
			C107.876,147.03,108.082,147.488,108.289,147.945z"/>
		<path d="M168.841,110.466h-30.342h-0.002v28.033h25.722C166.874,130.074,168.5,120.566,168.841,110.466z"/>
		<path d="M185.283,66.305c-1.573-1.99-3.26-3.886-5.051-5.677c-6.181-6.184-13.603-11.122-21.859-14.412
			c4.572,5.345,8.506,12.175,11.563,20.088H185.283z"/>
		<path d="M130.438,74.367h-25.759c-2.654,8.425-4.28,17.935-4.622,28.033h30.381V74.367z"/>
		<path d="M107.674,66.304h22.765V42.085c-9.112,2.04-16.688,10.888-22.15,22.837C108.082,65.377,107.876,65.837,107.674,66.304z"/>
		<path d="M104.68,138.499h25.761v-28.033h-30.383C100.399,120.565,102.026,130.073,104.68,138.499z"/>
		<path d="M161.224,146.564h-22.725v24.217c9.087-2.039,16.648-10.89,22.11-22.835C160.818,147.488,161.021,147.03,161.224,146.564z
			"/>
		<path d="M158.373,166.65c8.257-3.292,15.679-8.229,21.859-14.41c1.791-1.79,3.478-3.686,5.047-5.676h-15.344
			C166.877,154.474,162.945,161.305,158.373,166.65z"/>
		<path d="M164.222,74.368h-25.718v28.033h30.341C168.506,92.302,166.877,82.793,164.222,74.368z"/>
		<path d="M172.637,138.499h16.279c0.573,0,1.124,0.121,1.616,0.339c4.891-8.441,7.93-18.082,8.563-28.372H176.91
			C176.586,120.48,175.088,129.958,172.637,138.499z"/>
		<path d="M176.909,102.401h22.187c-0.633-10.288-3.67-19.932-8.563-28.371c-0.492,0.217-1.043,0.338-1.616,0.338h-16.281
			C175.087,82.91,176.585,92.389,176.909,102.401z"/>
		<path d="M160.613,64.922c-5.465-11.947-13.021-20.792-22.107-22.835v24.217h22.723C161.026,65.837,160.823,65.377,160.613,64.922z
			"/>
		<path d="M90.402,195.25L90.402,195.25L90.402,195.25l-0.017-0.063l-0.061-0.226c-0.444-1.62-0.899-4.026-1.752-6.089
			c-0.148-0.364-0.304-0.714-0.478-1.04l-0.169,0.191l-1.172,1.524v0.001l-0.391,1.06l-2.191,5.944h-0.001v0.002
			C86.19,196.01,88.271,195.591,90.402,195.25L90.402,195.25z"/>
		<path d="M98.544,229.623l-0.396-1.009c-0.415,0.176-0.921,0.363-1.691,0.63c-0.222,0.116-0.808,0.401-1.07,0.459
			c-0.338,0.071-0.658,0.077-0.953,0.034c-0.295-0.044-0.569-0.141-0.816-0.273c-0.417-0.227-0.796-0.563-1.068-1.107
			c-0.047-0.095-0.091-0.194-0.128-0.297c-0.265-0.734-0.249-1.68,0.53-2.643c0.383-0.471,1.322-1.104,2.18-1.627
			c-0.001,0-0.001,0-0.001,0l0-0.002h0c-0.618-0.519-1.257-0.998-1.905-1.46c-0.949-0.678-1.93-1.301-2.936-1.882
			c-0.208-0.122-0.412-0.245-0.621-0.363c-4.055-2.253-8.468-3.904-12.828-5.698c-1.2,2.407-2.513,4.773-3.989,7.101
			c-0.438,0.686-0.878,1.369-1.323,2.043l0.001,0.001c-0.001,0-0.001,0.001-0.001,0.001c0.001,0,0.001,0.001,0.001,0.001
			c0.235,0.17,0.479,0.33,0.727,0.485c4.21,2.644,10.045,3.806,14.009,4.853c0.965,0.252,1.792,0.447,2.593,0.616
			c1.276,0.265,2.487,0.471,4.056,0.761c0.923,0.168,3.366,0.634,5.548,0.598c0.189-0.002,0.376-0.009,0.556-0.017l-0.001-0.006
			L98.544,229.623z"/>
		<path d="M91.636,199.85c-3.332,0.511-6.532,1.212-9.558,2.344l-0.572,1.484c4.534,1.019,8.683,2.434,12.272,4.758L91.636,199.85z"
			/>
		<path d="M124.589,205.383c0.563-0.463,1.471-1.106,2.277-1.879c0.328-0.311,0.642-0.645,0.874-1.004
			c0.055-0.085,0.129-0.161,0.181-0.238c0.027-0.04,0.047-0.079,0.056-0.121c0.011-0.044,0.008-0.087-0.01-0.135
			c-0.423-1.054-1.483-1.575-2.633-1.977c-2.486-0.867-5.545-0.954-7.466-1.152l-3.736-0.243l-4.044-0.129
			c-1.963-0.032-3.912-0.011-5.858,0.07c-1.942,0.081-3.884,0.222-5.83,0.429c-0.674,0.073-1.35,0.143-2.019,0.221
			c0,0.002,0,0.004,0,0.004c0,0,0,0,0,0c0,0,0,0.002,0,0.006c0,0-0.001,0-0.001,0c0.577,2.211,1.136,4.436,1.672,6.66
			c0.649,2.704,1.264,5.409,1.835,8.128c1.146,1.467,2.184,3.136,3.102,5.031l0.18,0.379c1.299-0.628,2.604-1.235,3.911-1.851
			c0.742-0.498,1.481-1.007,2.224-1.515c3.101-2.115,6.289-4.151,9.389-6.288C120.711,208.378,122.694,206.933,124.589,205.383z"/>
		<path d="M110.525,46.217c-8.256,3.29-15.677,8.229-21.86,14.411c-1.79,1.789-3.477,3.687-5.051,5.677h15.35
			C102.021,58.393,105.954,51.562,110.525,46.217z"/>
		<path d="M88.216,214.044c1.274,0.596,2.535,1.215,3.758,1.896c1.365,0.758,2.69,1.578,3.969,2.485l-0.46-2.291
			c-1.266-1.464-2.673-2.668-4.206-3.667c-3.359-2.191-7.282-3.441-11.567-4.342l-0.848,1.962c2.356,0.969,4.724,1.908,7.048,2.919
			C86.684,213.343,87.454,213.688,88.216,214.044z"/>
		<path d="M96.259,74.369h-16.28c-0.573,0-1.122-0.122-1.616-0.338c-4.889,8.438-7.929,18.082-8.562,28.371h22.184
			C92.304,92.389,93.807,82.911,96.259,74.369z"/>
		<path d="M91.989,110.466H69.803c0.633,10.288,3.673,19.931,8.562,28.372c0.493-0.219,1.042-0.339,1.616-0.338v-0.001h16.283
			C93.81,129.958,92.307,120.48,91.989,110.466z"/>
		<path d="M277.55,86.678c-0.634-2.332-2.175-4.313-4.276-5.511c-3.297-1.88-7.118-4.06-10.416-5.941
			c-2.099-1.196-4.592-1.513-6.922-0.872c-2.332,0.638-4.316,2.176-5.514,4.277c-2.931,5.139-6.206,10.889-6.206,10.889
			l26.251,14.968c0,0,3.285-5.746,6.212-10.888C277.875,91.501,278.19,89.011,277.55,86.678z"/>
		<path d="M223.421,256.923H45.476V26.535l177.947-0.002v64.769c0.699-1.175,1.604-2.193,2.67-3.017
			c1.111-0.866,2.4-1.512,3.786-1.893c1.386-0.38,2.819-0.476,4.225-0.298c1.399,0.175,2.764,0.626,4.014,1.339l1.633,0.93
			l3.119-5.472l0.008-0.013V16.809c0-5.372-4.354-9.726-9.725-9.726h-197.4c-5.372,0-9.726,4.354-9.726,9.726v249.84
			c0,5.371,4.354,9.726,9.726,9.726h197.393c5.371,0,9.724-4.354,9.724-9.726V162.083l-19.447,34.11V256.923z"/>
		<path d="M242.869,93.104V82.892l-3.119,5.472l-1.633-0.93c-1.25-0.713-2.614-1.164-4.014-1.339
			c-1.405-0.178-2.839-0.082-4.225,0.298c-1.386,0.38-2.675,1.027-3.786,1.893c-1.066,0.824-1.971,1.842-2.67,3.017V26.533
			L45.476,26.535v230.388h177.946v-60.729l19.447-34.11v-5.189l26.487-46.454l0.96-1.684l-1.684-0.96L242.869,93.104z
			 M134.474,33.574c40.164,0,72.812,32.648,72.812,72.859c0,10.132-2.077,19.781-5.82,28.551c-0.554,0.971-1.055,1.849-1.482,2.6
			c-0.354,0.618-0.568,1.277-0.664,1.942c-12.063,23.59-36.584,39.766-64.845,39.766c-40.214,0-72.86-32.646-72.86-72.858
			C61.614,66.222,94.261,33.574,134.474,33.574z M165.126,242.13c0,0-66.928-0.114-93.153-0.064l-10.125,0.055l-0.107,0.01
			c-1.31,0.073-2.426-0.934-2.495-2.243c-0.007-0.106,0.086-2.403,2.366-2.502l10.352-0.063c26.229-0.045,93.167,0.07,93.167,0.066
			c1.308,0.002,2.374,1.063,2.372,2.372C167.496,241.07,166.437,242.133,165.126,242.13z M167.578,225.084
			c-1.893,0.466-3.822,0.711-5.761,0.589c-2.301-0.139-4.439-1.506-6.625-2.118c-0.511-0.145-1.027-0.232-1.569-0.108
			c-1.132,0.259-2.337,1.019-3.596,1.779c-1.487,0.903-3.024,1.846-4.538,2.447c-1.912,0.761-3.808,0.991-5.608,0.391
			c-1.64-0.546-2.368-1.723-2.599-3.217c-0.067-0.438-0.082-0.912-0.073-1.384c-0.859,0.094-1.781,0.381-2.725,0.649
			c-1.826,0.522-3.708,1.069-5.476,1.099c-1.353,0.026-2.653-0.21-3.864-0.849c-0.289,0.316-0.587,0.631-0.892,0.937
			c-1.52,1.514-3.238,2.823-5.135,3.848c-1.157,0.621-2.803,1.167-4.35,1.165c-1.347,0-2.619-0.394-3.625-1.256
			c-1.391-1.19-1.814-2.972-1.354-4.999c0.223-0.984,0.69-2.054,1.22-3.053l-1.57,0.739l-4.389,2.91
			c0.154,0.627,0.28,1.266,0.366,1.896c0.253,1.845,0.185,3.668-0.339,5.304c-0.412,1.867-1.985,3.122-4.358,3.558
			c-2.915,0.532-7.254-0.224-8.66-0.482c-1.609-0.295-2.854-0.509-4.166-0.783c-0.875-0.185-1.778-0.395-2.833-0.671
			c-4.344-1.147-10.705-2.524-15.32-5.42c-0.305-0.192-0.603-0.392-0.895-0.596l-2.612,3.703c-0.488,0.58-1.533,1.464-2.198,1.642
			c-1.175,0.314-2.177,0.011-2.901-1.113c-0.372-0.579-0.501-1.188-0.442-1.83c0.035-0.395,0.161-0.818,0.371-1.231
			c0.104-0.211,0.349-0.609,0.395-0.686c0.385-0.984,0.804-1.956,1.239-2.921c0.458-1.015,0.935-2.022,1.418-3.019
			c-0.563-1.231-0.916-2.6-1.019-4.114c-0.13-1.944,0.237-3.875,0.949-5.707c0.387-0.991,0.878-1.957,1.443-2.874l-4.438-2.337
			c-0.048-0.029-1.397-0.742-2.072-1.407c-0.495-0.49-0.774-1.021-0.893-1.471c-0.221-0.835-0.078-1.611,0.462-2.31
			c0.282-0.368,0.758-0.767,1.493-0.976c0.938-0.263,3.266-0.087,3.524-0.065c1.152,0.087,2.31,0.23,3.467,0.398
			c1.791,0.263,3.586,0.603,5.364,0.909c0.796-0.583,1.604-1.116,2.43-1.613c0.504-0.981,1.014-1.958,1.524-2.938
			c1.006-1.921,2.038-3.837,3.155-5.702c0.762-1.271,1.566-2.518,2.423-3.721l0.772-1.013c0.658-1.499,1.58-3.3,2.534-4.155
			c1.396-1.25,2.896-1.411,4.329-0.445c1.163,0.786,2.118,1.984,2.858,3.433c1.268,2.479,1.911,5.733,2.481,7.818l0.243,0.893
			c0.912-0.105,1.83-0.206,2.755-0.305c2.051-0.218,4.09-0.365,6.133-0.452c2.038-0.087,4.077-0.108,6.131-0.076l4.197,0.131
			l3.99,0.267c2.613,0.269,7.005,0.489,10.079,2.032c1.807,0.903,3.214,2.228,3.942,4.053c0.581,1.446,0.405,2.89-0.303,4.242
			c-0.984,1.882-3.296,3.593-4.475,4.556c-1.917,1.573-3.921,3.043-5.961,4.461c0.066,0.347,0.058,0.773-0.114,1.282
			c-0.191,0.573-0.578,1.206-1.109,1.797c-0.628,0.703-1.524,1.387-1.936,1.854l-1.268,1.615c-0.368,0.519-1.229,1.671-1.943,2.979
			c-0.366,0.677-0.704,1.387-0.854,2.058c-0.03,0.124-0.045,0.315-0.051,0.434c0.3,0.144,0.692,0.024,1.055-0.042
			c0.529-0.108,1.039-0.307,1.435-0.521c1.496-0.809,2.853-1.844,4.05-3.04c0.444-0.443,0.868-0.908,1.269-1.392
			c-0.053-0.391-0.062-0.806-0.025-1.229c0.17-2.036,1.472-4.483,2.355-5.592c0.209-0.255,1.906-1.838,2.674-2.247
			c1.713-0.897,2.899,0.077,3.341,0.743c0.462,0.695,0.694,1.854,0.25,3.244c-0.565,1.758-2.382,4.398-2.633,4.821l-0.064,0.107
			c0.277,0.058,0.562,0.077,0.848,0.071c1.708-0.034,3.528-0.728,5.267-1.19c1.745-0.463,3.43-0.725,4.93-0.474
			c1.512,0.252,2.282,1.122,2.649,2.373c0.162,0.537,0.204,1.223,0.191,1.941c-0.008,0.146-0.008,0.356,0,0.55
			c0.586,0.023,1.183-0.168,1.796-0.411c1.571-0.624,3.149-1.705,4.683-2.604c1.432-0.841,2.83-1.536,4.127-1.835
			c1.339-0.313,2.638-0.197,3.922,0.16c1.096,0.311,2.185,0.816,3.285,1.274c0.768,0.32,1.542,0.627,2.348,0.678
			c1.46,0.092,2.908-0.114,4.331-0.463c2.375-0.584,4.683-1.566,6.881-2.445c1.218-0.482,2.598,0.106,3.085,1.322
			c0.484,1.215-0.107,2.598-1.321,3.082C172.689,223.376,170.167,224.429,167.578,225.084z M178.353,239.354
			c-0.641,0.488-1.509,0.542-2.207,0.145c-0.699-0.399-1.093-1.176-1.004-1.973c1.16-10.175,3.813-33.464,3.813-33.464
			l26.254,14.971C205.209,219.033,186.52,233.176,178.353,239.354z M206.729,216.363l-26.255-14.972l56.886-99.762
			c0,0-1.18-0.674-2.184-1.245c-0.021,0-0.041,0-0.061,0c-0.014,0-0.025,0.005-0.039,0.005c-0.247,0.003-0.49,0.034-0.724,0.096
			c-0.015,0.004-0.027,0.01-0.043,0.014c-0.235,0.067-0.462,0.159-0.673,0.281c-0.01,0.006-0.02,0.013-0.028,0.019
			c-0.213,0.126-0.411,0.276-0.588,0.452c-0.005,0.005-0.009,0.011-0.014,0.016c-0.179,0.181-0.337,0.385-0.467,0.611
			c-4.373,7.579-18.414,32.21-23.392,40.937c-0.109,0.19-0.237,0.361-0.373,0.523c-0.035,0.042-0.071,0.082-0.107,0.122
			c-0.135,0.146-0.276,0.282-0.43,0.401c-0.01,0.007-0.018,0.017-0.027,0.023c-0.163,0.124-0.338,0.229-0.519,0.322
			c-0.046,0.023-0.093,0.045-0.14,0.067c-0.167,0.077-0.339,0.145-0.515,0.195c-0.021,0.006-0.04,0.015-0.061,0.021
			c-0.194,0.052-0.394,0.083-0.593,0.103c-0.052,0.005-0.104,0.007-0.156,0.01c-0.185,0.01-0.369,0.009-0.555-0.012
			c-0.021-0.001-0.041-0.001-0.062-0.003c-0.202-0.025-0.402-0.072-0.601-0.133c-0.049-0.016-0.098-0.031-0.146-0.049
			c-0.2-0.069-0.397-0.152-0.589-0.261c-0.421-0.239-0.856-0.491-1.282-0.729c-1.709-0.978-2.309-3.156-1.329-4.871
			c4.984-8.742,19.202-33.676,25.563-44.829c0.831-1.462,2.213-2.532,3.837-2.977c0.247-0.067,0.498-0.114,0.749-0.151
			c0.071-0.01,0.144-0.018,0.216-0.026c0.19-0.021,0.381-0.034,0.572-0.038c0.069-0.001,0.139-0.005,0.207-0.004
			c0.246,0.002,0.491,0.016,0.734,0.047c0.019,0.002,0.038,0.007,0.057,0.01c0.226,0.031,0.447,0.076,0.667,0.131
			c0.072,0.018,0.144,0.04,0.215,0.061c0.174,0.049,0.346,0.107,0.516,0.172c0.068,0.027,0.138,0.052,0.205,0.081
			c0.229,0.097,0.453,0.203,0.67,0.327c10.379,5.918,31.797,18.132,31.797,18.132L206.729,216.363z"/>
	</g>
</g>
</svg>
