<?xml version="1.0" encoding="utf-8"?>
<!-- Generator: Adobe Illustrator 15.1.0, SVG Export Plug-In . SVG Version: 6.00 Build 0)  -->
<!DOCTYPE svg PUBLIC "-//W3C//DTD SVG 1.1//EN" "http://www.w3.org/Graphics/SVG/1.1/DTD/svg11.dtd">
<svg version="1.1" id="Layer_2" xmlns="http://www.w3.org/2000/svg" xmlns:xlink="http://www.w3.org/1999/xlink" x="0px" y="0px"
	 width="283.46px" height="283.46px" viewBox="0 0 283.46 283.46" enable-background="new 0 0 283.46 283.46" xml:space="preserve">
<g>
	<path fill="none" d="M178.244,138.636h15.59c0.55,0,1.076,0.115,1.549,0.325c4.682-8.083,7.592-17.315,8.198-27.168h-21.244
		C182.031,121.382,180.592,130.457,178.244,138.636z"/>
	<path fill="none" d="M182.336,104.069h21.244c-0.606-9.852-3.515-19.086-8.198-27.167c-0.473,0.207-0.999,0.323-1.549,0.323h-15.59
		C180.592,85.404,182.031,94.482,182.336,104.069z"/>
	<path fill="none" d="M108.729,104.069h29.094V77.226h-24.667C110.612,85.293,109.056,94.399,108.729,104.069z"/>
	<path fill="none" d="M113.155,138.636h24.667v-26.844h-29.094C109.056,121.463,110.612,130.568,113.155,138.636z"/>
	<path fill="none" d="M170.183,77.226h-24.646v26.844h29.071C174.282,94.399,172.725,85.293,170.183,77.226z"/>
	<path fill="none" d="M105.094,77.226h-15.59c-0.55,0-1.075-0.116-1.548-0.323c-4.681,8.081-7.592,17.315-8.198,27.167h21.244
		C101.306,94.482,102.745,85.404,105.094,77.226z"/>
	<path fill="none" d="M101.001,111.792H79.757c0.606,9.851,3.517,19.085,8.198,27.168c0.473-0.209,0.999-0.325,1.548-0.325h15.59
		C102.745,130.457,101.306,121.382,101.001,111.792z"/>
	<path fill="none" d="M174.609,111.792h-29.071v26.844h24.646C172.725,130.568,174.282,121.465,174.609,111.792z"/>
	<path d="M277.623,91.008c-0.61-2.233-2.082-4.13-4.095-5.277c-3.157-1.801-6.816-3.888-9.974-5.689
		c-2.01-1.146-4.396-1.448-6.629-0.835c-2.232,0.611-4.132,2.084-5.278,4.095c-2.807,4.921-5.944,10.427-5.944,10.427l25.139,14.334
		c0,0,3.141-5.503,5.946-10.427C277.935,95.626,278.236,93.241,277.623,91.008z"/>
	<path d="M181.604,235.351c0.669,0.381,1.5,0.328,2.114-0.139c7.82-5.916,25.717-19.459,25.717-19.459l-25.141-14.336
		c0,0-2.54,22.301-3.65,32.043C180.557,234.224,180.935,234.968,181.604,235.351z"/>
	<path d="M81.826,233.267l-9.912,0.061c-2.183,0.094-2.272,2.293-2.266,2.395c0.065,1.252,1.134,2.217,2.388,2.15l0.103-0.008
		l9.696-0.053c25.112-0.047,89.216,0.063,89.216,0.063c1.254,0.002,2.271-1.014,2.274-2.268c0.002-1.254-1.015-2.271-2.268-2.273
		C171.057,233.333,106.943,233.224,81.826,233.267z"/>
	<path d="M234.195,92.903c-1.555,0.425-2.877,1.45-3.674,2.85c-6.091,10.68-19.705,34.556-24.479,42.927
		c-0.936,1.642-0.364,3.728,1.275,4.664c0.408,0.23,0.824,0.469,1.23,0.699c1.641,0.936,3.729,0.365,4.664-1.275
		c4.764-8.357,18.213-31.943,22.401-39.199c0.515-0.903,1.485-1.452,2.524-1.431c0.96,0.547,2.09,1.193,2.09,1.193l-54.473,95.529
		l25.139,14.336l58.359-102.347c0,0-20.509-11.696-30.447-17.363C237.406,92.687,235.748,92.478,234.195,92.903z"/>
	<path d="M211.421,107.931c0-38.505-31.262-69.768-69.737-69.768c-38.507,0-69.769,31.263-69.769,69.768
		c0,38.506,31.261,69.768,69.769,69.768C180.16,177.699,211.421,146.437,211.421,107.931z M97.82,64.069
		c5.92-5.92,13.026-10.649,20.932-13.8c-4.378,5.118-8.144,11.659-11.072,19.236H92.983C94.49,67.599,96.106,65.782,97.82,64.069z
		 M87.955,76.903c0.473,0.207,0.999,0.323,1.548,0.323h15.59c-2.349,8.179-3.788,17.256-4.093,26.844H79.757
		C80.363,94.218,83.274,84.983,87.955,76.903z M89.503,138.636c-0.55,0-1.075,0.115-1.548,0.325
		c-4.681-8.083-7.592-17.317-8.198-27.168h21.244c0.305,9.589,1.744,18.665,4.093,26.844H89.503z M97.819,151.794
		c-1.713-1.715-3.329-3.529-4.836-5.436h14.696c2.928,7.574,6.694,14.117,11.072,19.234
		C110.846,162.443,103.74,157.712,97.819,151.794z M137.822,169.548c-8.726-1.953-15.98-10.428-21.211-21.867
		c-0.198-0.438-0.395-0.877-0.589-1.322h21.8V169.548z M137.822,138.636h-24.667c-2.542-8.068-4.099-17.173-4.426-26.844h29.094
		V138.636z M137.822,104.069h-29.094c0.327-9.67,1.884-18.776,4.426-26.844h24.667V104.069z M137.822,69.504h-21.8
		c0.194-0.447,0.391-0.887,0.589-1.323c5.231-11.441,12.485-19.915,21.211-21.868V69.504z M195.382,138.961
		c-0.473-0.209-0.999-0.325-1.549-0.325h-15.59c2.349-8.179,3.787-17.254,4.093-26.844h21.244
		C202.974,121.646,200.064,130.878,195.382,138.961z M193.833,77.226c0.55,0,1.076-0.116,1.549-0.323
		c4.684,8.081,7.592,17.315,8.198,27.167h-21.244c-0.306-9.587-1.744-18.665-4.093-26.844H193.833z M185.517,64.069
		c1.715,1.714,3.33,3.53,4.837,5.436h-14.696c-2.928-7.577-6.693-14.118-11.072-19.236C172.492,53.419,179.6,58.148,185.517,64.069z
		 M145.538,46.313c8.712,1.954,15.958,10.427,21.188,21.868c0.201,0.436,0.395,0.876,0.59,1.323h-21.778V46.313z M145.538,77.226
		h24.646c2.542,8.068,4.099,17.173,4.426,26.844h-29.071V77.226z M145.538,111.792h29.071c-0.327,9.672-1.884,18.776-4.426,26.844
		h-24.646V111.792z M145.538,169.548v-23.189h21.778c-0.195,0.445-0.389,0.885-0.59,1.322
		C161.496,159.121,154.25,167.595,145.538,169.548z M185.517,151.794c-5.917,5.918-13.025,10.648-20.932,13.799
		c4.379-5.117,8.145-11.66,11.072-19.234h14.696C188.847,148.265,187.232,150.08,185.517,151.794z"/>
	<path d="M180.592,218.994c1.162-0.465,1.729-1.787,1.265-2.951c-0.467-1.164-1.788-1.732-2.953-1.266
		c-2.105,0.842-4.316,1.781-6.589,2.342c-1.362,0.334-2.749,0.531-4.147,0.443c-0.775-0.049-1.513-0.344-2.248-0.65
		c-1.053-0.439-2.096-0.924-3.15-1.221c-1.226-0.342-2.469-0.453-3.755-0.154c-1.241,0.287-2.584,0.953-3.956,1.758
		c-1.467,0.861-2.986,1.895-4.492,2.494c-0.588,0.232-1.162,0.416-1.724,0.389c-0.003-0.182-0.003-0.383,0-0.527
		c0.012-0.689-0.027-1.344-0.179-1.863c-0.352-1.197-1.09-2.029-2.538-2.271c-1.438-0.24-3.05,0.01-4.721,0.453
		c-1.666,0.443-3.408,1.109-5.043,1.141c-0.274,0.006-0.547-0.014-0.813-0.068l0.063-0.104c0.24-0.404,1.98-2.934,2.521-4.617
		c0.425-1.33,0.203-2.441-0.24-3.107c-0.423-0.635-1.559-1.574-3.199-0.711c-0.735,0.389-2.361,1.908-2.56,2.154
		c-0.846,1.057-2.093,3.404-2.256,5.35c-0.035,0.408-0.026,0.803,0.024,1.176c-0.384,0.463-0.79,0.908-1.215,1.332
		c-1.147,1.145-2.446,2.135-3.879,2.91c-0.379,0.207-0.866,0.398-1.374,0.5c-0.347,0.068-0.722,0.178-1.01,0.041
		c0.004-0.113,0.02-0.295,0.048-0.416c0.144-0.639,0.467-1.322,0.818-1.967c0.683-1.252,1.507-2.359,1.86-2.855l1.214-1.545
		c0.395-0.449,1.252-1.104,1.854-1.777c0.508-0.568,0.879-1.17,1.062-1.719c0.164-0.49,0.172-0.896,0.109-1.227
		c1.954-1.359,3.873-2.766,5.708-4.27c1.129-0.922,3.343-2.561,4.285-4.363c0.678-1.297,0.846-2.676,0.29-4.063
		c-0.698-1.748-2.045-3.014-3.776-3.881c-2.944-1.477-7.148-1.689-9.651-1.945l-3.82-0.256l-4.019-0.125
		c-1.967-0.031-3.92-0.01-5.872,0.074c-1.956,0.082-3.909,0.225-5.872,0.432c-0.885,0.094-1.764,0.191-2.638,0.293l-0.233-0.855
		c-0.547-1.998-1.162-5.117-2.376-7.49c-0.708-1.385-1.623-2.535-2.736-3.287c-1.374-0.924-2.809-0.773-4.146,0.426
		c-0.914,0.82-1.796,2.543-2.427,3.977l-0.739,0.971c-0.822,1.152-1.591,2.344-2.32,3.563c-1.071,1.785-2.058,3.621-3.022,5.459
		c-0.489,0.936-0.977,1.873-1.459,2.813c-0.792,0.473-1.565,0.988-2.327,1.545c-1.703-0.295-3.421-0.619-5.137-0.871
		c-1.108-0.162-2.215-0.297-3.319-0.381c-0.247-0.021-2.477-0.186-3.375,0.064c-0.704,0.199-1.16,0.582-1.43,0.932
		c-0.517,0.668-0.654,1.412-0.443,2.211c0.113,0.43,0.382,0.941,0.855,1.408c0.646,0.637,1.938,1.322,1.984,1.348l4.25,2.238
		c-0.541,0.879-1.012,1.803-1.382,2.752c-0.683,1.754-1.034,3.605-0.909,5.465c0.098,1.449,0.436,2.758,0.975,3.941
		c-0.462,0.955-0.92,1.918-1.358,2.889c-0.417,0.924-0.818,1.857-1.187,2.797c-0.043,0.072-0.277,0.455-0.377,0.656
		c-0.201,0.398-0.321,0.803-0.355,1.18c-0.057,0.613,0.067,1.197,0.423,1.752c0.693,1.076,1.653,1.367,2.778,1.066
		c0.637-0.17,1.636-1.016,2.104-1.572l2.501-3.547c0.279,0.197,0.564,0.387,0.857,0.572c4.419,2.773,10.51,4.09,14.67,5.189
		c1.01,0.266,1.875,0.467,2.712,0.643c1.256,0.262,2.449,0.467,3.99,0.75c1.346,0.248,5.501,0.971,8.292,0.461
		c2.272-0.416,3.779-1.619,4.173-3.406c0.501-1.568,0.567-3.314,0.325-5.078c-0.083-0.607-0.203-1.215-0.351-1.818l4.202-2.787
		l1.504-0.707c-0.508,0.957-0.955,1.979-1.169,2.922c-0.44,1.943-0.035,3.646,1.297,4.789c0.964,0.824,2.181,1.201,3.472,1.201
		c1.48,0.002,3.057-0.516,4.165-1.115c1.816-0.984,3.462-2.236,4.917-3.684c0.292-0.293,0.578-0.592,0.854-0.898
		c1.16,0.613,2.405,0.838,3.7,0.814c1.694-0.029,3.496-0.549,5.244-1.049c0.904-0.258,1.787-0.535,2.609-0.623
		c-0.007,0.453,0.006,0.906,0.071,1.326c0.22,1.428,0.917,2.555,2.491,3.08c1.722,0.576,3.541,0.355,5.375-0.375
		c1.451-0.576,2.924-1.479,4.354-2.342c1.208-0.73,2.361-1.457,3.445-1.705c0.518-0.119,1.014-0.035,1.505,0.104
		c2.091,0.586,4.139,1.893,6.343,2.029c1.857,0.117,3.703-0.119,5.515-0.564C175.878,220.919,178.294,219.912,180.592,218.994z
		 M95.99,187.519l1.123-1.459l0.161-0.184c0.166,0.313,0.316,0.65,0.458,0.996c0.815,1.973,1.251,4.281,1.677,5.83l0.076,0.277
		c-2.041,0.326-4.034,0.729-5.968,1.248L95.99,187.519z M91.512,199.628c2.897-1.084,5.963-1.754,9.153-2.244l2.052,8.223
		c-3.437-2.227-7.411-3.582-11.752-4.557L91.512,199.628z M89.244,205.308c4.104,0.861,7.861,2.059,11.077,4.158
		c1.467,0.957,2.815,2.109,4.027,3.512l0.441,2.193c-1.224-0.867-2.493-1.654-3.801-2.381c-3.973-2.209-8.288-3.85-12.555-5.604
		L89.244,205.308z M107.2,227.062c-2.089,0.035-4.428-0.41-5.312-0.572c-1.502-0.277-2.662-0.475-3.883-0.729
		c-0.768-0.162-1.559-0.348-2.483-0.59c-3.796-1.002-9.383-2.115-13.414-4.646c-0.238-0.148-0.471-0.303-0.696-0.465
		c0.427-0.646,0.848-1.299,1.267-1.957c1.413-2.227,2.671-4.494,3.82-6.799c4.173,1.717,8.399,3.299,12.283,5.457
		c1.838,1.023,3.598,2.174,5.231,3.547c-0.822,0.5-1.721,1.107-2.087,1.557c-0.854,1.053-0.75,2.088-0.384,2.818
		c0.26,0.52,0.624,0.842,1.023,1.059c0.473,0.252,1.044,0.367,1.694,0.227c0.251-0.055,0.812-0.33,1.025-0.439
		c0.737-0.256,1.223-0.436,1.62-0.602l0.831,2.115C107.56,227.054,107.381,227.06,107.2,227.062z M117.581,212.914
		c-0.711,0.486-1.419,0.971-2.13,1.451c-1.251,0.588-2.501,1.17-3.744,1.77l-0.172-0.363c-0.879-1.816-1.873-3.412-2.97-4.818
		c-0.547-2.602-1.136-5.195-1.757-7.783c-0.513-2.131-1.049-4.26-1.601-6.379c0.641-0.074,1.287-0.143,1.934-0.211
		c1.864-0.199,3.722-0.334,5.582-0.412c1.864-0.078,3.73-0.1,5.61-0.07l3.873,0.123l3.578,0.236c1.84,0.188,4.769,0.271,7.149,1.1
		c1.101,0.385,2.117,0.885,2.521,1.893c0.069,0.178-0.111,0.307-0.216,0.467c-0.222,0.342-0.523,0.662-0.837,0.961
		c-0.772,0.738-1.642,1.357-2.181,1.797c-1.814,1.484-3.713,2.869-5.647,4.209C123.604,208.939,120.551,210.888,117.581,212.914z"/>
	<path d="M226.875,252.037H56.463V31.423l170.412-0.002v62.021c0.67-1.125,1.537-2.1,2.553-2.889
		c1.068-0.829,2.299-1.448,3.627-1.812c1.33-0.364,2.703-0.456,4.045-0.286c1.341,0.168,2.646,0.6,3.844,1.282l1.561,0.89
		l2.994-5.252V22.11c0-5.144-4.169-9.313-9.313-9.313H47.152c-5.144,0-9.313,4.169-9.313,9.313v239.239
		c0,5.145,4.169,9.314,9.313,9.314h189.033c5.144,0,9.313-4.17,9.313-9.314V161.22l-18.623,32.662V252.037z"/>
	<path fill="#FFFFFF" d="M105.283,225.529c-0.213,0.109-0.774,0.385-1.025,0.439c-0.649,0.141-1.221,0.025-1.694-0.227
		c-0.399-0.217-0.763-0.539-1.023-1.059c-0.366-0.73-0.471-1.766,0.384-2.818c0.366-0.449,1.265-1.057,2.087-1.557
		c-1.633-1.373-3.393-2.523-5.231-3.547c-3.883-2.158-8.109-3.74-12.283-5.457c-1.149,2.305-2.407,4.572-3.82,6.799
		c-0.419,0.658-0.84,1.311-1.267,1.957c0.225,0.162,0.458,0.316,0.696,0.465c4.031,2.531,9.618,3.645,13.414,4.646
		c0.924,0.242,1.716,0.428,2.483,0.59c1.221,0.254,2.381,0.451,3.883,0.729c0.883,0.162,3.223,0.607,5.312,0.572
		c0.181-0.002,0.36-0.008,0.535-0.02l-0.831-2.115C106.506,225.093,106.021,225.273,105.283,225.529z"/>
	<path fill="#FFFFFF" d="M132.221,202.673c0.539-0.439,1.409-1.059,2.181-1.797c0.314-0.299,0.615-0.619,0.837-0.961
		c0.105-0.16,0.286-0.289,0.216-0.467c-0.404-1.008-1.42-1.508-2.521-1.893c-2.381-0.828-5.309-0.912-7.149-1.1l-3.578-0.236
		l-3.873-0.123c-1.88-0.029-3.746-0.008-5.61,0.07c-1.86,0.078-3.718,0.213-5.582,0.412c-0.647,0.068-1.293,0.137-1.934,0.211
		c0.552,2.119,1.088,4.248,1.601,6.379c0.621,2.588,1.21,5.182,1.757,7.783c1.097,1.406,2.091,3.002,2.97,4.818l0.172,0.363
		c1.243-0.6,2.492-1.182,3.744-1.77c0.711-0.48,1.419-0.965,2.13-1.451c2.97-2.025,6.022-3.975,8.992-6.031
		C128.507,205.542,130.407,204.158,132.221,202.673z"/>
	<path fill="#FFFFFF" d="M104.789,215.171l-0.441-2.193c-1.212-1.402-2.56-2.555-4.027-3.512c-3.216-2.1-6.973-3.297-11.077-4.158
		l-0.811,1.879c4.267,1.754,8.583,3.395,12.555,5.604C102.296,213.517,103.565,214.304,104.789,215.171z"/>
	<path fill="#FFFFFF" d="M100.665,197.384c-3.19,0.49-6.256,1.16-9.153,2.244l-0.547,1.422c4.341,0.975,8.316,2.33,11.752,4.557
		L100.665,197.384z"/>
	<path fill="#FFFFFF" d="M99.409,192.703c-0.425-1.549-0.861-3.857-1.677-5.83c-0.142-0.346-0.292-0.684-0.458-0.996l-0.161,0.184
		l-1.123,1.459l-2.473,6.709c1.934-0.52,3.927-0.922,5.968-1.248L99.409,192.703z"/>
	<path fill="#FFFFFF" d="M167.316,146.359h-21.778v23.189c8.712-1.953,15.958-10.428,21.188-21.867
		C166.927,147.244,167.121,146.804,167.316,146.359z"/>
	<path fill="#FFFFFF" d="M116.611,147.681c5.231,11.439,12.485,19.914,21.211,21.867v-23.189h-21.8
		C116.216,146.804,116.413,147.244,116.611,147.681z"/>
	<path fill="#FFFFFF" d="M92.983,146.359c1.507,1.906,3.123,3.721,4.836,5.436c5.92,5.918,13.026,10.648,20.933,13.799
		c-4.378-5.117-8.144-11.66-11.072-19.234H92.983z"/>
	<path fill="#FFFFFF" d="M164.585,165.593c7.906-3.15,15.015-7.881,20.932-13.799c1.715-1.715,3.33-3.529,4.837-5.436h-14.696
		C172.73,153.933,168.964,160.476,164.585,165.593z"/>
	<path fill="#FFFFFF" d="M190.354,69.504c-1.507-1.906-3.122-3.722-4.837-5.436c-5.917-5.92-13.025-10.649-20.932-13.8
		c4.379,5.118,8.145,11.659,11.072,19.236H190.354z"/>
	<path fill="#FFFFFF" d="M166.726,68.181c-5.23-11.441-12.477-19.915-21.188-21.868v23.191h21.778
		C167.121,69.058,166.927,68.617,166.726,68.181z"/>
	<path fill="#FFFFFF" d="M118.752,50.269c-7.906,3.151-15.012,7.88-20.932,13.8c-1.714,1.713-3.33,3.53-4.836,5.436h14.696
		C110.608,61.927,114.374,55.386,118.752,50.269z"/>
	<path fill="#FFFFFF" d="M116.611,68.181c-0.198,0.436-0.395,0.876-0.589,1.323h21.8V46.313
		C129.096,48.267,121.842,56.74,116.611,68.181z"/>
</g>
</svg>
