<?xml version="1.0" encoding="utf-8"?>
<!-- Generator: Adobe Illustrator 15.1.0, SVG Export Plug-In . SVG Version: 6.00 Build 0)  -->
<!DOCTYPE svg PUBLIC "-//W3C//DTD SVG 1.1//EN" "http://www.w3.org/Graphics/SVG/1.1/DTD/svg11.dtd">
<svg version="1.1" id="Layer_2" xmlns="http://www.w3.org/2000/svg" xmlns:xlink="http://www.w3.org/1999/xlink" x="0px" y="0px"
	 width="283.465px" height="283.465px" viewBox="0 0 283.465 283.465" enable-background="new 0 0 283.465 283.465"
	 xml:space="preserve">
<g>
	<path fill="#231F20" d="M254.941,71.551C220.641,51.814,186.338,32.08,152.077,12.38c-3.047-1.868-6.205-3.584-9.389-5.102
		c-0.266-0.126-0.554-0.191-0.847-0.191h-0.62c-0.287,0-0.569,0.063-0.829,0.183c-2.558,1.186-4.998,2.606-7.358,3.98
		c-0.672,0.392-1.345,0.783-2.025,1.172C96.768,32.136,62.527,51.839,28.286,71.53c-3.076,1.539-4.916,4.725-4.707,8.152
		l0.002,124.593c-0.167,3.465,1.731,6.653,4.842,8.152c36.327,20.949,73.131,42.112,109.363,62.885
		c1.168,0.697,2.505,1.066,3.865,1.066c1.596,0,3.174-0.518,4.459-1.461c36.448-20.954,72.89-41.926,109.418-62.963
		c2.169-1.383,3.672-3.523,4.231-6.025c0.031-0.14,0.049-0.283,0.049-0.429c0.021-18.713,0.019-37.429,0.015-56.144
		c-0.004-22.458-0.008-45.678,0.032-68.523C260.238,76.989,258.298,73.343,254.941,71.551z M208.764,194.798
		c-0.677,6.564-5.562,11.91-12.022,13.188c-9.074,1.918-18.505-0.92-25.014-7.514c-23.079-27.438-46.097-54.907-69.073-82.415
		c-0.047,25.197,0,50.404,0,75.597c0,4.978-2.47,9.637-6.589,12.437c-6.247,4.095-14.503,3.269-19.815-1.974
		c-2.714-2.799-4.194-6.565-4.105-10.463c0-34.813,0-69.631,0-104.442c0.306-7.496,6.04-13.648,13.494-14.475
		c9.698-1.494,19.443,2.381,25.479,10.116c22.477,26.7,44.761,53.536,67.325,80.142c-0.15-25.596,0-51.168,0-76.774
		c0.646-7.359,6.48-13.193,13.846-13.836c8.369-0.733,15.742,5.462,16.476,13.836C208.82,123.744,208.82,159.274,208.764,194.798z"
		/>
</g>
</svg>
