<?xml version="1.0" encoding="utf-8"?>
<!-- Generator: Adobe Illustrator 15.1.0, SVG Export Plug-In . SVG Version: 6.00 Build 0)  -->
<!DOCTYPE svg PUBLIC "-//W3C//DTD SVG 1.1//EN" "http://www.w3.org/Graphics/SVG/1.1/DTD/svg11.dtd">
<svg version="1.1" id="Layer_3" xmlns="http://www.w3.org/2000/svg" xmlns:xlink="http://www.w3.org/1999/xlink" x="0px" y="0px"
	 width="283.46px" height="283.46px" viewBox="0 0 283.46 283.46" enable-background="new 0 0 283.46 283.46" xml:space="preserve">
<g>
	<path fill="#010101" d="M213.694,21.446h-10.94c0,3.446,0,6.447-0.008,6.443c2.808,2.186,4.604,5.592,4.604,9.419
		c0,6.589-5.352,11.941-11.939,11.941c-6.592,0-11.941-5.352-11.941-11.941c0-3.827,1.806-7.233,4.603-9.419v-6.443h-39.144
		c0,3.446,0,6.447-0.008,6.443c2.803,2.186,4.602,5.592,4.602,9.419c0,6.589-5.35,11.941-11.941,11.941
		c-6.589,0-11.941-5.352-11.941-11.941c0-3.827,1.804-7.233,4.607-9.419l-0.005-6.443H95.392c0,3.446,0,6.447-0.004,6.443
		c2.803,2.186,4.604,5.592,4.604,9.419c0,6.589-5.352,11.941-11.941,11.941c-6.589,0-11.941-5.352-11.941-11.941
		c0-3.827,1.801-7.233,4.604-9.419v-6.443H69.768c-7.716,0-13.973,6.258-13.973,13.974c0,13.057,0,33.814,0,55.941
		c0,5.292,0,10.66,0,16.021c0,43.893,0,87.268,0,127.167c0,7.082,0,14.066,0,20.914c0,2.285,0,4.438,0,6.406
		c0,3.848,1.528,7.541,4.249,10.26c2.721,2.718,6.407,4.246,10.256,4.246c32.419,0,110.437,0,142.864,0
		c3.846,0,7.533-1.528,10.254-4.246c2.721-2.719,4.248-6.411,4.248-10.26c0-1.969,0-4.121,0-6.406c0-6.848,0-13.832,0-20.914
		c0-39.897,0-83.272,0-127.167c0-5.362,0-10.73,0-16.021c0-22.126,0-42.884,0-55.941C227.666,27.703,221.41,21.446,213.694,21.446z
		 M210.669,70.096c0,1.585,0,3.311,0,5.15c0,4.878,0,10.579,0,16.814c0,7.016,0,14.689,0,22.583c0,4.253,0,8.569,0,12.88
		c0,22.64,0,45.105,0,66.773c0,4.328,0,8.621,0,12.881c0,7.654,0,15.195,0,22.582c0,5.693,0,11.311,0,16.814c0,1.838,0,3.568,0,5.15
		c0,0.141,0,0.291,0,0.428c0,6.203-5.029,11.234-11.232,11.234h-0.412c-0.004,0-0.01,0-0.016,0c-26.068,0-88.792,0-114.856,0
		c-0.005,0-0.011,0-0.016,0h-0.412c-6.203,0-11.233-5.033-11.233-11.234c0-0.137,0-0.287,0-0.428c0-1.582,0-3.313,0-5.15
		c0-5.504,0-11.121,0-16.814c0-7.387,0-14.928,0-22.582c0-4.26,0-8.553,0-12.881c0-21.67,0-44.133,0-66.773c0-4.31,0-8.626,0-12.88
		c0-7.894,0-15.568,0-22.583c0-6.235,0-11.936,0-16.814c0-1.84,0-3.565,0-5.15c0-0.139,0-0.289,0-0.427
		c0-6.203,5.03-11.234,11.233-11.234h0.412c0.005,0,0.011-0.001,0.016-0.001c26.063,0,88.788,0,114.856,0
		c0.006,0,0.012,0.001,0.016,0.001h0.412c6.203,0,11.232,5.03,11.232,11.234C210.669,69.807,210.669,69.957,210.669,70.096z"/>
	<path fill="#010101" d="M141.579,46.207c4.911,0,8.899-3.988,8.899-8.899c0-3.351-1.854-6.276-4.596-7.79V11.38
		c0-2.371-1.934-4.295-4.304-4.295c-2.373,0-4.294,1.924-4.294,4.295v18.139c-2.743,1.515-4.601,4.439-4.601,7.79
		C132.685,42.219,136.672,46.207,141.579,46.207z"/>
	<path fill="#010101" d="M88.051,46.207c4.911,0,8.898-3.988,8.898-8.899c0-3.351-1.857-6.276-4.6-7.79V11.38
		c0-2.371-1.927-4.295-4.299-4.295c-2.371,0-4.298,1.924-4.298,4.295v18.139c-2.742,1.515-4.6,4.439-4.6,7.79
		C79.153,42.219,83.141,46.207,88.051,46.207z"/>
	<path fill="#010101" d="M195.41,46.207c4.91,0,8.896-3.988,8.896-8.899c0-3.351-1.861-6.276-4.596-7.79V11.38
		c0-2.371-1.934-4.295-4.303-4.295c-2.371,0-4.296,1.924-4.296,4.295v18.139c-2.741,1.515-4.603,4.439-4.603,7.79
		C186.511,42.219,190.498,46.207,195.41,46.207z"/>
	<path fill="#010101" d="M130.338,113.158c0.501,0.629,1.114,1.115,1.84,1.456c0.725,0.342,1.557,0.512,2.496,0.512
		c0.917,0,1.744-0.17,2.48-0.512c0.736-0.341,1.354-0.826,1.856-1.456c0.501-0.629,0.885-1.381,1.152-2.256
		c0.267-0.875,0.4-1.856,0.4-2.944s-0.133-2.075-0.4-2.96c-0.267-0.885-0.651-1.643-1.152-2.272
		c-0.501-0.629-1.12-1.115-1.856-1.456c-0.736-0.341-1.563-0.512-2.48-0.512c-0.939,0-1.771,0.176-2.496,0.528
		c-0.726,0.352-1.339,0.843-1.84,1.472c-0.501,0.63-0.886,1.387-1.152,2.272c-0.267,0.886-0.4,1.862-0.4,2.928
		c0,1.088,0.133,2.069,0.4,2.944C129.453,111.776,129.837,112.528,130.338,113.158z"/>
	<path fill="#010101" d="M140.334,143.533c-0.286-0.727-0.537-1.367-0.753-1.921c-0.216-0.553-0.391-0.987-0.523-1.302
		c-0.111,0.322-0.274,0.76-0.489,1.314c-0.215,0.554-0.458,1.195-0.733,1.921c-0.274,0.727-0.58,1.526-0.919,2.399
		c-0.338,0.874-0.682,1.79-1.032,2.748h6.341c-0.339-0.961-0.668-1.88-0.986-2.756S140.621,144.259,140.334,143.533z"/>
	<path fill="#010101" d="M122.226,139.941c-0.416-0.245-0.923-0.416-1.52-0.512c-0.598-0.096-1.259-0.144-1.984-0.144
		c-0.363,0-0.72,0.011-1.072,0.032c-0.352,0.021-0.656,0.043-0.912,0.064v6.399h1.568c1.728,0,3.029-0.234,3.904-0.703
		c0.875-0.469,1.312-1.344,1.312-2.624c0-0.619-0.112-1.131-0.336-1.536S122.642,140.187,122.226,139.941z"/>
	<path fill="#010101" d="M160.322,139.286c-0.342,0-0.693,0.005-1.056,0.016c-0.363,0.011-0.704,0.038-1.024,0.08v14.017
		c0.234,0.021,0.507,0.037,0.816,0.047c0.309,0.012,0.677,0.017,1.104,0.017c2.496,0,4.347-0.629,5.553-1.888
		c1.205-1.259,1.808-2.997,1.808-5.217c0-2.324-0.576-4.084-1.728-5.279C164.642,139.883,162.818,139.286,160.322,139.286z"/>
	<path fill="#010101" d="M199.437,64.435h-0.412c-0.036,0-0.072,0-0.108-0.001H84.245c-0.036,0-0.072,0.001-0.107,0.001h-0.412
		c-2.886,0-5.233,2.348-5.233,5.234v0.427v5.15V92.06v22.583v12.88v66.773v12.881v22.582v16.814v5.15v0.428
		c0,2.887,2.348,5.234,5.233,5.234h0.412h114.872h0.428c2.885,0,5.232-2.348,5.232-5.234v-0.428v-5.15v-16.814v-22.582v-12.881
		v-66.773v-12.88V92.06V75.246v-5.15v-0.427C204.669,66.783,202.322,64.435,199.437,64.435z M147.218,96.886h18.367v4.256h-6.688
		v17.92h-4.992v-17.92h-6.688V96.886z M124.53,102.95c0.597-1.44,1.402-2.651,2.416-3.632c1.013-0.981,2.187-1.717,3.52-2.208
		c1.333-0.49,2.736-0.736,4.208-0.736c1.514,0,2.944,0.246,4.288,0.736c1.344,0.491,2.517,1.227,3.52,2.208
		c1.003,0.981,1.793,2.192,2.368,3.632c0.576,1.44,0.864,3.109,0.864,5.008c0,1.899-0.283,3.568-0.848,5.008
		c-0.566,1.44-1.34,2.646-2.32,3.616c-0.982,0.971-2.15,1.702-3.504,2.192c-1.355,0.491-2.811,0.736-4.368,0.736
		c-1.515,0-2.944-0.246-4.288-0.736c-1.344-0.49-2.518-1.221-3.52-2.192c-1.003-0.971-1.792-2.176-2.368-3.616
		c-0.576-1.44-0.864-3.109-0.864-5.008C123.634,106.059,123.933,104.39,124.53,102.95z M105.33,104.534v14.528h-4.928V96.886h4.064
		c0.704,0.704,1.482,1.568,2.336,2.592c0.853,1.024,1.723,2.118,2.608,3.28c0.885,1.163,1.765,2.368,2.64,3.616
		c0.875,1.248,1.696,2.448,2.464,3.6V96.886h4.96v22.176h-4.192c-1.429-2.539-2.976-5.045-4.64-7.52
		C108.979,109.067,107.208,106.731,105.33,104.534z M125.986,148.261c-1.792,1.184-4.352,1.776-7.68,1.776h-1.568v7.424h-4.992
		v-21.856c1.088-0.213,2.24-0.362,3.456-0.448c1.216-0.085,2.282-0.128,3.2-0.128c3.307,0,5.845,0.582,7.616,1.744
		c1.771,1.163,2.656,3.067,2.656,5.712C128.674,145.152,127.778,147.078,125.986,148.261z M145.056,157.461
		c-0.248-0.771-0.513-1.562-0.797-2.374c-0.283-0.813-0.566-1.621-0.848-2.426h-8.662c-0.28,0.809-0.561,1.619-0.842,2.432
		c-0.282,0.813-0.543,1.604-0.786,2.368h-5.184c0.834-2.39,1.626-4.597,2.375-6.624c0.749-2.026,1.481-3.936,2.199-5.729
		c0.717-1.791,1.423-3.493,2.119-5.104c0.695-1.61,1.418-3.184,2.167-4.72h4.732c0.728,1.536,1.447,3.109,2.154,4.72
		c0.707,1.611,1.42,3.313,2.139,5.104c0.717,1.793,1.451,3.702,2.201,5.729c0.75,2.027,1.543,4.234,2.379,6.624H145.056z
		 M171.778,151.381c-0.597,1.43-1.445,2.614-2.544,3.552c-1.1,0.939-2.438,1.644-4.016,2.112c-1.579,0.47-3.35,0.704-5.313,0.704
		c-0.896,0-1.941-0.037-3.136-0.112c-1.195-0.075-2.368-0.229-3.521-0.464v-21.6c1.152-0.213,2.353-0.357,3.601-0.432
		s2.319-0.112,3.216-0.112c1.898,0,3.621,0.214,5.168,0.64c1.547,0.427,2.875,1.099,3.984,2.016c1.109,0.917,1.963,2.091,2.56,3.52
		c0.597,1.429,0.896,3.147,0.896,5.151C172.673,148.277,172.375,149.953,171.778,151.381z M184.498,119.062h-15.711V96.886h14.976
		v4.192h-9.984v4.352h8.864v4.096h-8.864v5.344h10.72V119.062z"/>
</g>
</svg>
