<?xml version="1.0" encoding="utf-8"?>
<!-- Generator: Adobe Illustrator 15.1.0, SVG Export Plug-In . SVG Version: 6.00 Build 0)  -->
<!DOCTYPE svg PUBLIC "-//W3C//DTD SVG 1.1//EN" "http://www.w3.org/Graphics/SVG/1.1/DTD/svg11.dtd">
<svg version="1.1" id="Layer_1" xmlns="http://www.w3.org/2000/svg" xmlns:xlink="http://www.w3.org/1999/xlink" x="0px" y="0px"
	 width="283.465px" height="283.465px" viewBox="0 0 283.465 283.465" enable-background="new 0 0 283.465 283.465"
	 xml:space="preserve">
<path fill="#231F20" d="M205.601,15.251c0,0-7.482-12.024-16.188-6.887l0.03-0.063c-4.26,2.499-11.349,9.573-19.805,19.833
	l0.008,0.014c-0.572,0.694-1.146,1.402-1.734,2.141c-2.248,2.78-4.559,5.747-6.948,8.917c-2.688,3.561-5.437,7.372-8.25,11.369
	c-2.579,3.686-5.219,7.542-7.858,11.556c-2.248,3.404-4.479,6.902-6.711,10.494c-0.08,0.125-0.158,0.266-0.238,0.406l0.025,0.047
	c-0.148,0.247-0.305,0.504-0.464,0.734c-2.358,3.826-4.7,7.73-6.993,11.712c-2.328,4.029-4.604,8.136-6.838,12.306
	c-1.869,3.513-3.709,7.042-5.517,10.634c-0.362,0.718-0.707,1.452-1.069,2.17c-2.199,4.513-4.181,8.839-5.988,13.04
	c-2.043,4.731-3.836,9.26-5.391,13.554c-1.038,2.827-1.965,5.543-2.83,8.168c-0.708,2.232-1.367,4.48-2.027,6.715
	c-1.508,5.247-2.813,10.492-3.883,15.772c-1.271,6.372-2.119,12.769-2.576,19.108l-0.047,0.655
	c-3.174-5.044-11.646-9.965-11.63-9.916c6.082,8.742,10.688,17.49,11.364,25.92c-3.253,0.658-7.702-0.294-12.842-2.17
	c5.36,4.905,9.385,6.247,10.972,6.623c-4.936,0.312-10.06,3.668-15.231,7.543c7.56-3.063,13.674-4.278,18.076-3.297
	c-6.947,19.521-13.896,41.071-20.904,64.026c2.136-0.624,3.41-2.062,4.116-3.981c1.242-4.137,9.461-31.387,22.318-66.992
	c0.377-1.016,0.739-2.046,1.116-3.062c0.095-0.297,0.203-0.578,0.314-0.845c1.352-3.747,2.782-7.572,4.229-11.477
	c0.33-0.894,0.488-1.341,0.835-2.231c0-0.016,0.169-0.439,0.187-0.484l-0.002-0.004c1.291-3.425,2.629-6.746,3.993-10.268
	c0.425-1.048,0.802-2.078,1.209-3.077v-0.142c1.761-4.527,3.583-9.119,5.438-13.739c1.791-4.437,3.615-8.903,5.501-13.369
	c1.886-4.467,3.804-8.979,5.752-13.478c1.981-4.575,4.024-9.135,6.114-13.68c2.06-4.498,4.133-8.963,6.256-13.367
	c0.753-1.593,1.539-3.187,2.308-4.763c1.337-2.733,2.688-5.45,4.056-8.137c0.08-0.14,0.143-0.295,0.221-0.437l-0.026-0.053
	c2.126-4.271,4.315-8.448,6.504-12.518c2.356-4.388,4.745-8.667,7.15-12.82c2.5-4.342,5.046-8.527,7.606-12.586
	c0.144-0.235,0.314-0.484,0.455-0.718c2.531-3.982,5.094-7.824,7.655-11.479l-0.011-0.015c5.164-7.317,10.398-13.931,15.623-19.624
	c-2.375,2.71-7.461,8.949-14.67,19.92c-0.012,0.017-0.021,0.031-0.03,0.048c0.024-0.001,0.057-0.003,0.082-0.005
	c-2.272,3.472-4.745,7.409-7.438,11.874c-0.142,0.218-0.299,0.483-0.424,0.703c-2.313,3.872-4.764,8.12-7.373,12.79
	c-2.23,4.028-4.558,8.339-6.979,12.977c-2.092,4.018-4.248,8.285-6.479,12.797l-0.076,0.008c0,0.062-0.045,0.172-0.093,0.265
	l-0.032,0.078c-0.3,0.594-0.58,1.188-0.879,1.781c-0.881,1.795-1.762,3.623-2.673,5.496c-0.976,2.03-1.948,4.091-2.94,6.216
	c-0.502,1.061-1.004,2.139-1.506,3.233c-1.51,3.264-3.035,6.636-4.592,10.119c-1.9,4.263-3.865,8.714-5.83,13.336
	c-1.869,4.403-3.804,8.948-5.721,13.664c-1.839,4.468-3.693,9.09-5.58,13.835c-1.682,4.233-3.379,8.605-5.076,13.088
	c-0.08,0.202-0.158,0.438-0.236,0.641c-1.697,4.451-3.41,9.024-5.123,13.712l-0.865,2.325c-1.334,3.64-2.688,7.371-4.021,11.167
	c-0.017,0.046-0.033,0.108-0.063,0.154c-0.188,0.53-0.394,1.078-0.566,1.607c-0.911,2.563-1.696,4.872-3.505,10.105
	c2.971,1.342,5.361,4.9,7.624,8.932c-0.237-4.17-1.965-8.09-5.28-11.121c14.664,0.658,27.348-3.026,33.791-13.677
	c0.582-0.954,1.116-1.938,1.604-3.017c-2.971,3.749-6.662,5.326-13.594,4.951c10.217-4.543,15.324-8.9,19.804-16.084
	c1.067-1.719,2.12-3.576,3.188-5.653c-8.897,9.074-19.108,11.676-30.068,9.745l0.019-0.002c-0.155-0.028-0.329-0.045-0.485-0.075
	c9.76-1.202,22.789-8.464,31.119-17.491c3.865-4.122,7.371-8.994,10.607-14.694c2.406-4.23,4.686-8.947,6.854-14.147
	c1.885-4.545,3.692-9.48,5.438-14.805c-2.247,1.171-4.809,2.046-7.639,2.639c-0.502,0.109-1.006,0.203-1.523,0.297
	c-0.52,0.094-1.038,0.172-1.57,0.234c0,0,0.014,0,0.014-0.015c9.117-3.482,14.854-10.198,19.02-18.427
	c-2.389,1.624-6.287,3.748-10.956,4.764c-0.628,0.14-1.272,0.25-1.932,0.358c-0.144,0.014-0.298,0.043-0.438,0.07
	c3.166-1.31,5.817-2.792,8.125-4.521c0.502-0.375,0.988-0.75,1.43-1.156c0.707-0.609,1.367-1.249,2.027-1.904
	c0.407-0.438,0.801-0.875,1.194-1.328c0.91-1.078,1.758-2.233,2.545-3.483c0.237-0.389,0.487-0.765,0.707-1.17
	c0.313-0.578,0.599-1.156,0.882-1.703c1.271-2.529,2.293-4.81,3.096-6.792c0.408-1,0.756-1.906,1.068-2.779
	c0.125-0.345,0.236-0.672,0.346-1c0.33-0.952,0.584-1.796,0.787-2.546c0.313-1.124,0.502-2.014,0.596-2.654
	c-0.313,0.234-0.659,0.484-1.067,0.718c-2.751,1.64-7.465,3.108-11.269,3.81c-0.047,0.017-0.112,0.017-0.174,0.032
	c-0.301,0.047-0.584,0.09-0.877,0.13c7.442-3.41,10.771-6.481,14-10.952c0.85-1.233,1.729-2.515,2.577-3.858
	c2.642-4.091,5.22-8.589,7.529-13.071c2.229-4.325,4.194-8.604,5.705-12.477c0.96-2.452,1.729-4.731,2.263-6.746
	c0.473-1.764,0.834-3.452,1.116-5.06c-0.007,0.001-0.015,0.003-0.021,0.004C211.478,22.73,205.601,15.251,205.601,15.251z"/>
</svg>
