<?xml version="1.0" encoding="utf-8"?>
<!-- Generator: Adobe Illustrator 15.1.0, SVG Export Plug-In . SVG Version: 6.00 Build 0)  -->
<!DOCTYPE svg PUBLIC "-//W3C//DTD SVG 1.1//EN" "http://www.w3.org/Graphics/SVG/1.1/DTD/svg11.dtd">
<svg version="1.1" id="Layer_1" xmlns="http://www.w3.org/2000/svg" xmlns:xlink="http://www.w3.org/1999/xlink" x="0px" y="0px"
	 width="283.465px" height="283.465px" viewBox="0 0 283.465 283.465" enable-background="new 0 0 283.465 283.465"
	 xml:space="preserve">
<path d="M276.379,59.29L42.078,59.3l-0.141,0.778c0,0,137.742,28.292,140.473,28.771c31.648,5.586,30.666,11.695,30.666,11.695
	c22.178-0.111,24.9,0.783,28.779,4.019c11.662,9.737-7.293,38.442-7.293,38.442c-2.713,2-207.615,81.129-207.615,81.129h214.375
	l35.053-164.838L276.379,59.29z M154.623,97.398c-6.209-0.045-10.584,0.044-11.084,0.011H34L7.086,224.175
	c0,0,82.438-40.455,92.52-45.635c20.66-10.617,49.225-24.636,75.621-33.629c5.031-1.701,26.58-8.343,39.131-10.583
	c4.863-0.866,6.932-1.694,6.871-2.601c-0.189-2.602-5.082-2.774-13.363-2.368c-25.273,1.188-73.691,20.472-87.633,27.825
	l-15.734-48.77h100.533c3.391-9.482-31.777-10.861-50.414-11.006L154.623,97.398z M207.928,109.148
	c-0.729,0-1.355,0.489-2.201,1.639c-0.771,0.99-1.4,1.662-3.4,2.669c-3.104,1.528-11.225,2.385-15.025,2.701
	c-3.645,0.307-4.635,0.678-4.695,2.084c-0.039,1.262,0.539,1.979,5.775,1.979c12.039,0,33.711-4.541,40.242-2.461
	c3.443,1.1,0.678,7.242-2.152,15.317c-1.094,3.113,1.057,2.896,2.303,1.529c1.25-1.378,6.869-11.667,7.48-16.903
	c0.867-7.441-5.516-8.561-14.318-8.561H207.93v0.007H207.928z"/>
</svg>
