<?xml version="1.0" encoding="utf-8"?>
<!-- Generator: Adobe Illustrator 15.1.0, SVG Export Plug-In . SVG Version: 6.00 Build 0)  -->
<!DOCTYPE svg PUBLIC "-//W3C//DTD SVG 1.1//EN" "http://www.w3.org/Graphics/SVG/1.1/DTD/svg11.dtd">
<svg version="1.1" id="Layer_1" xmlns="http://www.w3.org/2000/svg" xmlns:xlink="http://www.w3.org/1999/xlink" x="0px" y="0px"
	 width="283.465px" height="283.465px" viewBox="0 0 283.465 283.465" enable-background="new 0 0 283.465 283.465"
	 xml:space="preserve">
<path d="M274.914,136.397c0.807,0.152,1.469,0.943,1.465,1.77l-0.004,34.037c0,0.818-0.66,1.621-1.467,1.768l-32.25,6.002
	c-0.811,0.148-1.666,0.914-1.916,1.695l-10.066,25.158c-0.357,0.738-0.273,1.893,0.188,2.568l18.32,26.699
	c0.465,0.678,0.369,1.707-0.213,2.289l-24.066,24.066c-0.576,0.576-1.605,0.67-2.283,0.211l-26.223-18.002
	c-0.674-0.465-1.809-0.498-2.516-0.084l-11.564,6.176c-0.734,0.369-1.588,0.061-1.9-0.697l-23.846-57.637
	c-0.313-0.758,0.004-1.727,0.701-2.152l2.896-1.773c0.533-0.328,1.262-0.891,1.826-1.402c10.443-6.688,17.369-18.385,17.369-31.707
	c0-20.791-16.85-37.644-37.633-37.644c-20.785,0-37.635,16.854-37.635,37.644c0,13.322,6.928,25.02,17.369,31.707
	c0.57,0.516,1.295,1.074,1.832,1.402l2.895,1.773c0.701,0.428,1.014,1.395,0.701,2.152l-23.848,57.633
	c-0.313,0.758-1.168,1.074-1.9,0.697L89.58,244.57c-0.703-0.41-1.836-0.377-2.514,0.088L60.842,262.66
	c-0.678,0.463-1.705,0.369-2.285-0.211L34.49,238.383c-0.58-0.582-0.674-1.611-0.213-2.289l18.32-26.701
	c0.465-0.676,0.549-1.832,0.188-2.57l-10.066-25.156c-0.246-0.783-1.109-1.553-1.916-1.695l-32.25-6.004
	c-0.807-0.148-1.467-0.943-1.467-1.768v-34.037c0-0.818,0.658-1.613,1.467-1.766l33.063-6.15c0.809-0.152,1.688-0.908,1.955-1.684
	l10.137-23.648c0.377-0.73,0.303-1.877-0.16-2.559L34.281,74.272c-0.465-0.674-0.369-1.703,0.211-2.285L58.557,47.92
	c0.578-0.58,1.607-0.674,2.285-0.213l28.57,19.611c0.674,0.465,1.83,0.545,2.568,0.186l22.924-9.385
	c0.777-0.256,1.537-1.129,1.688-1.934l6.363-34.209c0.148-0.807,0.943-1.467,1.764-1.467h34.029c0.82,0,1.615,0.662,1.764,1.469
	l6.367,34.207c0.152,0.805,0.91,1.678,1.689,1.934l22.92,9.385c0.734,0.363,1.891,0.279,2.568-0.186l28.568-19.611
	c0.676-0.465,1.703-0.371,2.283,0.213l24.063,24.066c0.578,0.582,0.67,1.611,0.211,2.285L229.92,102.36
	c-0.469,0.682-0.541,1.826-0.162,2.559l10.135,23.648c0.273,0.775,1.152,1.533,1.959,1.682l33.063,6.15"/>
</svg>
