<?xml version="1.0" encoding="utf-8"?>
<!-- Generator: Adobe Illustrator 15.1.0, SVG Export Plug-In . SVG Version: 6.00 Build 0)  -->
<!DOCTYPE svg PUBLIC "-//W3C//DTD SVG 1.1//EN" "http://www.w3.org/Graphics/SVG/1.1/DTD/svg11.dtd">
<svg version="1.1" xmlns="http://www.w3.org/2000/svg" xmlns:xlink="http://www.w3.org/1999/xlink" x="0px" y="0px"
	 width="283.46px" height="283.46px" viewBox="0 0 283.46 283.46" enable-background="new 0 0 283.46 283.46" xml:space="preserve">
<g id="Layer_1" display="none">
	<title>Asset 19</title>
	<g id="Layer_2" display="inline">
		<g id="Layer_1-2">
			<g>
				<path d="M141.275,2.792C64.542,2.792,2.337,64.996,2.337,141.73c0,76.734,62.205,138.938,138.938,138.938
					c76.734,0,138.939-62.203,138.939-138.938C280.214,64.996,218.009,2.792,141.275,2.792L141.275,2.792z M141.275,215.235
					c-40.631,0-73.569-32.938-73.569-73.57c0-40.632,32.938-73.57,73.569-73.57c40.633,0,73.57,32.938,73.57,73.57
					C214.845,182.296,181.908,215.235,141.275,215.235L141.275,215.235z"/>
			</g>
			<path d="M141.73,283.46C63.455,283.46,0,220.005,0,141.73C0,63.455,63.455,0,141.73,0c78.275,0,141.73,63.455,141.73,141.73
				C283.376,219.97,219.97,283.376,141.73,283.46z M141.73,6.492C67.04,6.492,6.492,67.04,6.492,141.73
				c0,74.689,60.548,135.238,135.238,135.238c74.689,0,135.238-60.549,135.238-135.238C276.885,67.074,216.386,6.575,141.73,6.492z"
				/>
			<path d="M141.73,218.544c-42.388-0.035-76.722-34.426-76.686-76.814c0.036-42.388,34.427-76.722,76.815-76.686
				c42.337,0.036,76.648,34.348,76.686,76.686C218.535,184.149,184.149,218.535,141.73,218.544z M141.73,71.406
				c-38.803,0.036-70.23,31.521-70.194,70.324c0.036,38.803,31.521,70.23,70.324,70.193c38.753-0.035,70.158-31.441,70.194-70.193
				C212.042,102.896,180.564,71.418,141.73,71.406z"/>
			<path d="M67.295,46.608l5.561-4.825L92.59,64.482l-5.712,4.63l-7.617-8.655l-6.859,5.972l7.617,8.655l-5.128,5.128L54.982,57.341
				l5.453-4.739l7.725,8.872l6.859-5.972L67.295,46.608z"/>
			<path d="M92.287,52.797l-7.53-17.311l6.491-3.203l7.747,17.7c0.986,2.282,3.635,3.333,5.918,2.348
				c2.283-0.985,3.333-3.636,2.348-5.918L99.536,28.67l6.816-2.705l7.53,17.311c2.581,5.975-0.17,12.912-6.146,15.493
				c-5.975,2.582-12.912-0.17-15.493-6.145L92.287,52.797z"/>
			<path d="M142.682,21.768h5.929l5.713,29.276l-7.574-0.281l-2.77-14.865l-5.106,12.982l-5.431,0.39l-6.946-12.139l-0.67,15.146
				l-7.465,1.428l1.58-30.662l5.28-0.649l10.365,18.349L142.682,21.768z"/>
			<path d="M177.626,39.879c3.281,1.217,5.138,4.689,4.328,8.092c-0.865,4.328-4.328,8.158-11.382,6.708l-12.811-2.575l5.907-29.233
				l11.967,2.423c5.431,1.104,8.33,4.955,7.378,9.651C182.525,37.61,180.326,39.624,177.626,39.879z M167.242,41.416l-1.189,5.95
				l4.544,0.909c1.629,0.474,3.334-0.463,3.809-2.092c0.025-0.088,0.048-0.177,0.064-0.267c0.315-1.643-0.759-3.231-2.402-3.547
				c-0.106-0.021-0.215-0.036-0.323-0.044L167.242,41.416z M172.24,36.352c1.244,0.385,2.565-0.312,2.95-1.557
				c0.035-0.113,0.062-0.229,0.079-0.348c0.303-1.536-0.13-2.813-1.84-3.159l-3.895-0.779l-1.039,5.085L172.24,36.352z"/>
			<path d="M179.986,58.986L193.9,32.609l6.491,3.418l-10.972,20.795l9.5,5.02l-2.942,5.583L179.986,58.986z"/>
			<path d="M199.072,69.783l18.738-23.196l15.146,12.161l-3.981,4.912l-9.563-7.617l-3.593,4.544l8.267,6.491l-3.896,4.804
				l-8.288-6.686l-3.311,4.111l9.717,7.854l-3.939,5.063L199.072,69.783z"/>
			<path d="M86.553,232.156c2.425,2.497,2.62,6.406,0.454,9.131c-2.553,3.484-7.27,5.627-13.134,1.32l-10.559-7.703l17.592-24.063
				l9.975,7.207c4.479,3.267,5.475,7.983,2.64,11.856C91.965,232.132,89.117,233.052,86.553,232.156z M76.491,229.191l-3.57,4.891
				l3.744,2.728c1.282,1.11,3.223,0.974,4.334-0.31c0.058-0.067,0.114-0.139,0.166-0.211c0.954-1.358,0.625-3.234-0.736-4.188
				c-0.07-0.049-0.142-0.097-0.216-0.14L76.491,229.191z M83.134,226.703c1.176,0.82,2.795,0.532,3.615-0.645
				c0.774-1.109,0.566-2.627-0.478-3.488l-3.224-2.357l-2.986,4.197L83.134,226.703z"/>
			<path d="M94.97,242.044l6.124-17.938l6.773,2.661l-6.015,17.613c-0.696,2.386,0.674,4.886,3.06,5.58
				c2.229,0.65,4.587-0.502,5.443-2.66l6.016-17.635l6.967,2.164l-6.124,17.938c-2.331,6.069-9.14,9.101-15.208,6.771
				c-5.746-2.207-8.822-8.469-7.057-14.365L94.97,242.044z"/>
			<path d="M149.867,231.917l-0.563,29.537l-6.491,0.149l-8.655-16.467l-0.346,16.272l-7.227-0.152l0.627-28.994h6.946l8.2,15.535
				l0.325-15.602L149.867,231.917z"/>
			<path d="M153.934,231.767l11.576-2.402c8.438-1.73,14.563,3.656,16.272,11.967c1.709,8.31-1.861,15.535-10.302,17.311
				L159.906,261L153.934,231.767z M165.726,253.167l4.458-0.91c4.11-0.844,5.388-5.215,4.501-9.497
				c-0.887-4.285-3.787-7.921-7.898-7.099l-4.457,0.908L165.726,253.167z"/>
			<path d="M192.32,251.869l-13.285-26.701l6.49-3.268L196,242.931l9.563-4.76l2.813,5.646L192.32,251.869z"/>
			<path d="M213.048,240.314l-18.889-23.066L209.132,205l4.004,4.892l-9.369,7.682l3.613,4.328l8.244-6.752l3.916,4.782
				l-8.244,6.751l3.354,4.09l9.674-7.92l4.002,4.892L213.048,240.314z"/>
		</g>
	</g>
</g>
<g id="Layer_2_1_" display="none">
	<circle display="inline" cx="141.73" cy="141.73" r="134.646"/>
</g>
<g id="Layer_3">
	<g id="Page-1">
		<g id="HB---White">
			<path fill="#231F20" d="M188.148,155.851l-44.651-23.854c-5.1,2.402-27.776,23.438-27.776,38.5
				c-0.591,7.878,2.202,15.633,7.677,21.332c-38.381-16.35,5.859-63.407,20.627-79.637c26.075-28.653,27.779-46.06,27.779-58.597
				c0.056-7.295-3.881-14.039-10.256-17.582c-2.227-0.996-4.279,0-0.878,3.399c2.383,2.99,3.649,6.723,3.57,10.547
				c0,23.44-30.994,38.5-45.53,44.303c-25.548,10.079-74.126,25.255-74.126,83.27c0,58.013,31.352,75.182,82.332,75.182
				c46.881,0,74.012-17.872,74.012-56.431c0-34.751-12.773-40.374-12.773-40.374v-0.059H188.148z M139.686,72.816
				c-6.736-5.975-10.735-14.443-11.073-23.44c-0.06-3.821,1.205-7.547,3.57-10.548c3.224-3.398,1.173-4.455-0.878-3.398
				c-6.379,3.543-10.315,10.286-10.256,17.58c-0.232,9.226,1.63,18.38,5.45,26.781l13.125-7.326L139.686,72.816z M119.233,84.535
				L20.555,31.389c-4.664-1.787-9.92,0.269-12.13,4.745c-2.653,4.751-1.259,10.741,3.223,13.827l82.741,44.536l24.728-9.904
				L119.233,84.535z M160.665,106.861l-12.778,16.349l116.438,61.822c4.443,0.835,8.902-1.397,10.899-5.45
				c2.097-4.378,1.287-9.598-2.053-13.126L160.665,106.861z"/>
		</g>
	</g>
</g>
</svg>
