<?xml version="1.0" encoding="utf-8"?>
<!-- Generator: Adobe Illustrator 15.1.0, SVG Export Plug-In . SVG Version: 6.00 Build 0)  -->
<!DOCTYPE svg PUBLIC "-//W3C//DTD SVG 1.1//EN" "http://www.w3.org/Graphics/SVG/1.1/DTD/svg11.dtd">
<svg version="1.1" id="Layer_6" xmlns="http://www.w3.org/2000/svg" xmlns:xlink="http://www.w3.org/1999/xlink" x="0px" y="0px"
	 width="283.465px" height="283.465px" viewBox="0 0 283.465 283.465" enable-background="new 0 0 283.465 283.465"
	 xml:space="preserve">
<g>
	<path d="M141.732,7.086c-74.36,0-134.646,60.285-134.646,134.646c0,74.371,60.285,134.646,134.646,134.646
		c74.36,0,134.646-60.275,134.646-134.646C276.379,67.372,216.092,7.086,141.732,7.086z M209.477,147.039
		c1.14-0.46,3.309-0.756,5.477-0.788c2.158-0.012,4.315,0.219,5.444,0.788C218.437,148.402,210.211,150.472,209.477,147.039z
		 M215.282,158.611c-3.658-0.197-3.133-4.567-3.855-7.711l0.012,0.021h2.552C214.044,153.857,215.6,155.281,215.282,158.611z
		 M208.853,143.824c1.501-0.471,3.1-0.689,4.677-0.635c2.99,0.017,6.255,0.662,7.524,1.928
		C216.716,143.632,212.466,146.694,208.853,143.824z M219.751,141.907c-4.666,0.394-7.438-1.128-12.213-0.635
		c-0.975-5.438-4.217-8.594-4.479-14.771c1.709-0.033,3.79,0.334,3.865-1.304c-0.471-2.475-3.308-4.437-5.158-1.928
		c-0.1-2.263-1.841-2.87-1.916-5.138C209.673,122.882,215.37,131.754,219.751,141.907z M201.142,124.568
		c2.837,8.11,3.297,16.665,7.063,23.778l0.701,3.211c2.037,7.151,4.02,17.162,5.137,23.144c-28.564,4.053-55.399,7.064-78.391,9.616
		c-19.075-3.101-39.316-1.632-56.54-3.209c-2.831-21.73,3.779-43.348,2.574-65.543c0.104-1.808,2.086-1.741,2.546-3.198
		c-1.632-0.099-3.292-0.131-3.215-1.938c1.875-19.863,22.719-37.427,44.335-31.479c2.233-0.345,2.87-1.09,5.143-1.287
		c1.21-0.099,2.438-0.121,3.642-0.055c8.79,0.416,19.142,4.419,23.972,5.827c1.325,0.378,3.065-0.405,4.49,0
		c4.578,1.265,11.293,4.451,14.141,6.439c7.952,5.569,13.438,17.048,18.62,26.325C197.198,119.536,200.232,121.945,201.142,124.568z
		 M213.989,182.378c-22.464,5.487-43.067,6.736-67.569,10.373l-11.474-0.087c-16.911,1.237-39.349,1.544-55.241-1.938
		c-0.323-2.258-0.953-4.186-0.635-7.055c21.533-1.577,43.801,2.957,65.532,1.292c23.833-1.851,46.702-7.394,68.095-8.368
		C214.833,176.836,213.705,180.297,213.989,182.378z M188.283,229.27c-2.914,2.004-4.721,5.169-8.993,5.794
		c-1.608-1.577-4.228-2.213-3.844-5.794c4.425-0.362,3.941-1.479,7.075,0.646c1.413-1.347-0.328-1.84,0-3.845
		c0.548-0.679,1.128-0.985,1.696-1.007C185.961,225.008,187.691,227.428,188.283,229.27z M187.647,223.519
		c2.509,0.044,5.225,4.271,4.49,9.605c-2.606,4.61-14.665,4.983-14.775,3.23c7.503,0.864,9.781-3.505,12.858-7.086
		C190.419,226.695,186.037,225.336,187.647,223.519z M176.366,223.409c0.515-0.712,0.832-1.512,1.183-2.377
		c0.077-0.175,0.208-0.328,0.396-0.405v-0.011c0.416-0.12,0.832,0.109,0.964,0.515c0,0.022,0.011,0.044,0.021,0.077
		c0.033,0.032,0.077,0.032,0.1,0.076c0.351,0.668,0.405,1.38,0.569,2.104c0.088,0.438-0.22,0.733-0.592,0.832
		c-0.625,0.188-1.281,0.297-1.928,0.317C176.507,224.57,175.949,223.946,176.366,223.409z M169.038,215.808
		c-0.361-3.57,0.352-6.079,0.636-8.992c2.19-0.044,4.403-0.065,6.583-0.044c6.527,0.064,12.749,0.427,17.843,1.948
		c-1.096,1.709-0.088,5.532-1.292,7.088C186.793,215.172,175.555,217.023,169.038,215.808z M181.546,203.507
		c3.998-0.021,8.105,0.405,11.884,2.641c-8.651-1.938-19.059,1.04-23.133-2.554C173.649,204.011,177.548,203.529,181.546,203.507z
		 M178.896,200.845c1.303-0.064,3.088,0.274,4.249,1.446h-1.916C175.852,202.128,176.728,200.955,178.896,200.845z M188.283,200.999
		c0.896,0.296,2.398-0.044,3.646-0.12c1.249-0.064,2.258,0.088,2.138,1.424C193.354,203.146,189.005,202.237,188.283,200.999z
		 M194.054,199.082c-9.639,0.657-13.898-0.92-22.485-1.303c2.925-8.6,14.622-8.227,23.144-9.617
		C194.799,193.08,193.923,193.638,194.054,199.082z M134.968,233.146h0.018c13.209,5.19-1.506,19.32-11.566,11.565
		c-0.887-2.508-2.924-9.102,0.63-10.273c1.128,1.852,1.528,4.47,1.304,7.688c2.81,4.469,13.051,2.881,13.488-2.552
		C136.19,238.853,137.592,235.063,134.968,233.146z M135.604,237.615c0.882,0.832,0.63,2.804,0.663,4.513
		c-3.133,0.416-6.703,2.256-8.368-1.292C131.841,241.12,132.537,238.195,135.604,237.615z M132.422,236.355
		c-1.243,1.216-1.615,0.055-3.23,0c0.35-0.953-0.745-3.353,0.646-3.209c0.833,0.844,2.399,0.953,2.597,2.476
		C132.46,235.852,132.449,236.104,132.422,236.355z M120.834,227.353c-1.386-5.062-2.996-13.298-1.292-19.288
		c5.411,0.984,18.116,1.796,23.769,2.596c-0.832,4.654,1.576,8.904,0,12.224C137.669,226.212,128.906,226.433,120.834,227.353z
		 M143.31,208.72c-9.174-1.172-16.44,0.197-24.403-3.187c1.769-0.264,3.543-0.373,5.329-0.351
		C130.648,205.117,139.486,206.081,143.31,208.72z M129.837,202.916c0.586-0.011,1.184-0.011,1.765,0v-0.011
		c1.729,0.076,3.182,0.383,4.003,1.304C133.282,204.187,130.549,204.57,129.837,202.916z M118.906,201.678
		c-0.723-2.025-0.061-1.479,0-3.878c5.689-3.777,18.051-2.156,23.144-3.209c0.429,2.322,0.889,4.655,0.637,7.7
		C134.486,202.565,126.294,200.2,118.906,201.678z M159.378,50.039c1.029,1.134,1.752,2.914,2.19,4.896l0.088-0.033
		c0.272,0.794,0.536,1.572,0.756,2.229c4.249-2.64,9.156-0.487,14.14,0c4.688,0.465,11.645-2.031,12.85,1.929
		c-7.472,0.794-19.617-3.26-27.427-0.056c-0.045,4.098-1.392,8.063-4.534,9.025C157.219,62.678,156.869,54.442,159.378,50.039z
		 M155.511,36.55c2.049,14.628-0.788,28.111,1.304,43.697c-15.542-2.64-33.105-5.843-48.828-3.226
		c0.755-15.373,1.38-32.399,5.771-46.25C128.336,32.037,143.638,32.585,155.511,36.55z M109.908,33.341c0-0.006,0-0.006,0-0.011
		C109.908,33.335,109.908,33.335,109.908,33.341c-0.893,14.514-3.735,26.813-3.844,43.682c-3.05,2.3-6.364,4.337-10.296,5.777
		c-0.352-5.373,0.186-12.635,1.292-16.697c0.915,1.002,2.502,1.353,4.484,1.298c5.235-6.035,2.634-16.446-0.635-23.779
		C103.555,39.858,105.527,35.405,109.908,33.341z M95.346,56.468c0.467-3.739,2.624-7.508,5.564-8.361
		c1.123,3.942,2.021,11.063,0.635,16.697c-4.314-0.104-6.052-3.033-6.227-6.407c-5.308-0.115-12.503-1.834-19.48-1.896
		c-4.364-0.055-10.897,2.65-12.224-1.922C71.506,55.493,84.59,55.226,95.346,56.468z M78.429,114.902v0.011
		c3.396,10.313-0.421,23.801-0.63,34.693c-5.339-0.854-10.087-2.327-16.067-2.553C64.847,133.884,67.996,120.735,78.429,114.902z
		 M77.131,152.192c-5.542-0.888-13.045,0.208-16.057-3.209C64.924,148.983,73.713,149.607,77.131,152.192z M65.871,152.127
		c4.058,0.1,8.91,1.084,9.979,3.253c-5.144-0.832-10.69-1.26-15.417-2.541C61.298,152.324,63.451,152.083,65.871,152.127z
		 M75.22,162.478c-0.202-1.117-2.974-4.951,0-5.138C75.346,158.523,76.884,161.579,75.22,162.478z M57.251,160.561
		c-0.197-2.761-0.06-5.202,2.559-5.138C59.633,157.8,58.801,159.508,57.251,160.561z M62.361,162.478
		c0-1.053-1.774-0.372-1.928-1.281c0.893-1.665,2.359-2.782,1.928-5.772c0.383-0.032,0.771-0.044,1.155-0.044
		c1.101,0,1.977,0.252,2.075,1.336C64.173,158.315,64.863,161.962,62.361,162.478z M70.729,162.444
		c-1.348-0.712-2.585-6.111,0.635-5.761C72.46,157.964,72.279,161.875,70.729,162.444z M151.031,242.818
		c-7.688,5.575-14.655,14.501-26.982,11.533c-3.724-0.889-7.239-5.763-11.556-6.407c-0.082,2.321-5.46,1.183-3.215,0
		c-5.005-0.285-12.623-1.325-15.4,0c-0.12-0.745,0.11-1.809-0.641-1.928c-6.934-1.425-15.778-0.593-20.548-2.554
		c17.076-0.975,26.445,1.513,42.388,1.906c0.904-0.143,0.69,0.832,0.761,1.512l-0.196,0.131c0.083,0.121,0.214,0.177,0.301,0.297
		c0.021,0.032,0.055,0.055,0.082,0.076c1.786,2.376,4.173,3.921,7.218,4.446c0.739,0.132,1.512,0.176,2.289,0.188
		c-4.222-1.15-6.955-4.502-5.356-11.184c0.657,11.095,16.791,8.97,21.205,2.573c2.137-9.036-4.14-9.824-7.069-15.411l0.011-0.011
		c8.363,0.241,11.09,6.035,12.185,13.482c0.274,1.785-2.388,0.613-2.552,1.917c0.733,0.273,1.391,0.712,1.917,1.292
		c-0.138,0.265-0.351,0.516-0.526,0.778c1.994-1.15,3.855-2.312,5.467-3.385c3.746-0.657,8.729-0.69,11.149,0.745
		C158.172,242.96,152.247,245.336,151.031,242.818z M171.623,245.403c0.942-4.35-6.977,0.142-7.075-3.21
		c2.333-0.021,5.071,0.351,5.783-1.292c-1.6-0.92-2.629-2.301-3.374-3.834c0.077,0,0.164,0,0.241,0
		c1.884,2.301,4.479,3.898,7.963,4.491c0.635,0.108,1.325,0.108,1.993,0.163c-3.965-0.668-7.547-2.344-9.452-5.398
		c0.088-6.759,0.044-13.681,5.147-15.39c0.612,4.601-2.06,5.554-1.929,8.356c0.56,11.424,21.545,12.99,23.146,2.541
		c1.236-8.072-5.851-8.478-8.981-13.473c8.981-0.404,13.253,7.229,12.181,13.494c-0.604,3.493-3.178,6.047-6.475,7.788
		c1.566-0.493,3.133-0.876,4.677-1.501c-0.732,1.073-1.565,2.06-2.66,2.761c5.574,4.009,18.159-0.613,19.276,5.137
		C201.634,245.03,175.927,241.93,171.623,245.403z M212.697,243.42c0.964-0.492,2.037-0.767,3.121-0.788
		C217.79,242.774,216.399,245.03,212.697,243.42z M218.491,157.964c-1.008-1.369-2.946-5.159-1.314-7.063v0.021
		C217.571,152.915,220.2,156.016,218.491,157.964z M220.397,150.275c2.004,2.52,2.364,4.535,2.563,7.688
		C220.484,157.461,220.276,151.283,220.397,150.275z M222.97,148.983c0.352-0.208,0.701-0.361,1.085-0.428
		c2.301-0.351,3.494,3.297,3.406,6.199C225.095,156.016,223.333,151.853,222.97,148.983z"/>
	<path fill="#231F20" d="M132.422,42.333c-4.484,1.955-7.52,5.34-7.069,12.218c6.861,9.54,18.593-2.136,11.55-11.556
		c4.479-0.323,12.605,3.1,18.608,2.558c-6.551-1.84-15.926-4.648-24.256-4.77c-2.634-0.082-5.285,0.229-7.837,0.92
		C126.558,41.758,130.21,41.354,132.422,42.333z M130.473,48.106c2.113,0.026,4.522-0.257,4.474,1.933
		c-0.322,0.898-1.034,1.593-1.927,1.922c-0.806-1.319-3.105-1.178-2.546-3.845L130.473,48.106L130.473,48.106z M134.624,44.124
		c2.793,0.383,3.045,7.086,2.278,9.699c-3.023,3.646-9.316,1.32-10.285-2.546c1.517-0.816-0.235-4.93,2.552-4.491
		c-0.783,4.857,1.55,6.616,5.143,7.076c1.029-1.292,1.704-2.849,1.922-4.491c-0.542-2.207-2.667-2.875-3.851-4.485
		c0.488-0.366,1.035-0.63,1.633-0.756C134.213,44.103,134.41,44.103,134.624,44.124z"/>
	<path fill="#231F20" d="M141.381,55.838c2.269,1.128,3.79,3.05,7.7,2.558c6.298-5.323,1.676-10.39-2.649-10.065
		C143.835,48.533,141.337,50.663,141.381,55.838z M143.332,52.612c0.153-0.553,1.193-1.978,1.949-1.922
		c0.241,0.021,0.48,0.203,0.624,0.635c-1.796,0.975-0.099,3.861,0.657,4.513C144.044,56.216,143.704,54.403,143.332,52.612z
		 M146.53,51.961c2.015-0.278,2.857,0.564,2.552,2.546C147.066,54.836,146.255,53.965,146.53,51.961z M146.53,48.741
		c2.825,0.197,4.841,1.139,4.49,4.485C148.928,52.333,148.414,49.858,146.53,48.741c0,0-0.006,0-0.012,0
		C146.524,48.741,146.53,48.741,146.53,48.741z"/>
	<path fill="#231F20" d="M152.291,66.727c-1.993-3.303-6.682-1.633-9.604-1.923c-8.922-0.888-17.854-4.271-27.012-4.48
		c-0.738,0.088-1.128-0.143-1.287-0.663c-0.744,0.121-0.542,1.178-0.63,1.922C128.161,63.314,139.914,67.717,152.291,66.727z"/>
	<path fill="#231F20" d="M121.857,113.436c-0.985-0.027-1.982,0.044-2.957,0.202c-2.125,3.292-1.457,6.249-1.292,10.932
		C128.123,135.813,135.242,113.867,121.857,113.436z M128.544,121.979c0.027,1.949-1.364,2.498-1.928,3.85
		c-3.62,0.213-6.742-0.143-7.076-3.209C122.953,123.342,125.888,123.468,128.544,121.979z M119.541,116.206
		c1.829,0.219,3.494-0.827,4.967-0.657c0.542,0.056,1.041,0.29,1.44,0.657c1.528,1.522-0.115,3.16,0,5.143
		c-2.618,0.63-2.585-0.056-5.772,0C120.643,118.966,119.081,118.594,119.541,116.206z"/>
	<path fill="#231F20" d="M176.07,125.856c2.397-7.612-1.293-11.835-5.148-12.219c-0.427-0.032-0.864-0.055-1.303-0.043
		C156.858,113.896,166.016,139.038,176.07,125.856z M170.539,115.697c2.52-0.011,4.907,1.539,4.907,5.021
		c-2.224,2.584-4.458,5.264-9.004,3.851c-0.285-1.556,1.149-1.424,0.646-3.22c-1.28,0.026-0.82,1.752-2.563,1.292
		C163.714,118.303,167.274,115.708,170.539,115.697z M174.777,123.906c-0.263,3.653-7.186,5.488-9.003,1.922
		C169.673,126.869,172.456,125.954,174.777,123.906z"/>
	<line fill="none" x1="147.362" y1="113.873" x2="147.373" y2="113.873"/>
	<line fill="none" x1="147.352" y1="113.873" x2="147.362" y2="113.873"/>
	<path fill="#231F20" d="M154.854,125.198c0.896-6.856-2.815-11.102-7.492-11.325c-2.433-0.044-4.781,0.783-6.638,2.333
		c-0.812,3.932,0.833,8.905,3.23,11.555C148.83,128.161,152.521,127.361,154.854,125.198z M146.201,115.576h0.022
		c5.629-0.504,8.695,7.585-0.997,7.076c-0.712-2.076-2.585-2.996-3.209-5.148C143.177,116.437,144.634,115.762,146.201,115.576z"/>
	<path fill="#231F20" d="M74.551,120.056c-0.832,2.738-0.568,4.907,2.559,5.144c1.002-1.807-0.169-2.64,0.663-5.144H74.551z"/>
	<path fill="#231F20" d="M116.974,143.2c-0.883-0.832-0.619-2.799-0.619-4.48c13.768-2.339,40.603,2.371,51.392-1.938
		c-16.035,0.979-35.126-0.115-52.695,0c1.21,4.748-1.265,5.979-1.922,10.295c8.729,0.625,18.675-0.197,26.326-0.038
		c0.417-0.559,0.778-1.145,0-1.281H118.25c24.098-4.979,39.705-3.444,66.167-2.558c0.712,2.004-0.186,1.697,0.625,3.22
		c-15.235,3.078-30.658-3.795-45.587,0.619c14.754-0.477,30.153,1.562,46.244,2.568c0.339-3.274,0.832-7.849,0-11.562
		c-2.322-0.603-0.657,2.76-1.928,3.227C166.179,139.958,139.651,140.101,116.974,143.2z"/>
	<path fill="#231F20" d="M206.924,178.512c0.056,1.873,0.23,3.625,2.553,3.231c0.088-1.589,0.109-3.122-0.624-3.855
		C208.294,178.304,207.615,178.534,206.924,178.512z"/>
	<path fill="#231F20" d="M186.99,184.317c0.504-0.56,0.701-1.412,0.636-2.552c-0.756-0.768-2.257-0.757-3.854-0.657
		C183.628,183.409,184.711,184.46,186.99,184.317z"/>
	<path fill="#231F20" d="M87.405,187.527c0.515-0.581,0.723-1.446,0.657-2.563h-3.221C84.409,187.111,85.938,187.319,87.405,187.527
		z"/>
	<path fill="#231F20" d="M150.374,185.587c-0.952,2.005-0.032,2.607,1.304,3.846c1.633-0.032,1.249-2.146,1.249-3.846H150.374z"/>
	<path fill="#231F20" d="M111.584,186.3c-0.613-0.032-1.216,0.176-1.676,0.592c-0.142,2.288,0.915,3.352,3.22,3.221
		C114.404,188.359,113.205,186.41,111.584,186.3z"/>
	<path fill="none" d="M109.908,33.341c0-0.006,0-0.006,0-0.011"/>
	<path fill="none" d="M146.519,48.741c0.006,0,0.012,0,0.012,0"/>
</g>
</svg>
