<?xml version="1.0" encoding="utf-8"?>
<!-- Generator: Adobe Illustrator 15.1.0, SVG Export Plug-In . SVG Version: 6.00 Build 0)  -->
<!DOCTYPE svg PUBLIC "-//W3C//DTD SVG 1.1//EN" "http://www.w3.org/Graphics/SVG/1.1/DTD/svg11.dtd">
<svg version="1.1" id="Layer_1" xmlns="http://www.w3.org/2000/svg" xmlns:xlink="http://www.w3.org/1999/xlink" x="0px" y="0px"
	 width="283.465px" height="283.465px" viewBox="0 0 283.465 283.465" enable-background="new 0 0 283.465 283.465"
	 xml:space="preserve">
<g>
	<path d="M170.009,105.153c-0.463-0.318-0.932-0.629-1.402-0.932C169.079,104.524,169.546,104.835,170.009,105.153z"/>
	<path d="M159.638,99.671c-0.629-0.244-1.262-0.471-1.9-0.688C158.376,99.2,159.011,99.429,159.638,99.671z"/>
	<path d="M174.054,108.251c-0.555-0.473-1.119-0.93-1.693-1.377C172.935,107.321,173.501,107.778,174.054,108.251z"/>
	<path d="M168.181,103.948c-0.611-0.385-1.232-0.754-1.859-1.111C166.948,103.194,167.569,103.565,168.181,103.948z"/>
	<path d="M161.774,100.556c-0.66-0.291-1.326-0.572-2-0.834C160.448,99.983,161.114,100.265,161.774,100.556z"/>
	<path d="M175.687,109.71c-0.484-0.451-0.979-0.893-1.479-1.322C174.71,108.817,175.202,109.259,175.687,109.71z"/>
	<path d="M163.774,101.493c-0.473-0.234-0.947-0.459-1.426-0.676C162.827,101.034,163.302,101.259,163.774,101.493z"/>
	<path d="M165.899,102.606c-0.496-0.275-0.996-0.543-1.502-0.801C164.903,102.063,165.403,102.331,165.899,102.606z"/>
	<path d="M171.87,106.501c-0.426-0.32-0.855-0.637-1.289-0.945C171.015,105.864,171.444,106.181,171.87,106.501z"/>
	<path d="M185.976,123.313c-0.279-0.545-0.568-1.082-0.865-1.611C185.407,122.231,185.696,122.769,185.976,123.313z"/>
	<path d="M187.013,125.466c-0.229-0.504-0.465-1.002-0.707-1.492C186.548,124.464,186.784,124.962,187.013,125.466z"/>
	<path d="M188.187,128.245c-0.277-0.727-0.576-1.438-0.887-2.145C187.61,126.806,187.909,127.519,188.187,128.245z"/>
	<path d="M184.892,121.306c-0.375-0.652-0.764-1.295-1.164-1.926C184.128,120.011,184.517,120.651,184.892,121.306z"/>
	<path d="M183.413,118.899c-0.309-0.473-0.623-0.941-0.947-1.4C182.79,117.958,183.104,118.427,183.413,118.899z"/>
	<path d="M180.687,115.11c-0.461-0.58-0.932-1.148-1.414-1.703C179.755,113.962,180.226,114.532,180.687,115.11z"/>
	<path d="M182.044,116.907c-0.322-0.445-0.65-0.883-0.988-1.316C181.394,116.024,181.722,116.462,182.044,116.907z"/>
	<path d="M179.063,113.179c-0.42-0.477-0.85-0.943-1.285-1.4C178.214,112.235,178.644,112.702,179.063,113.179z"/>
	<path d="M135.569,96.696c-0.445,0.057-0.891,0.119-1.336,0.188C134.678,96.815,135.124,96.753,135.569,96.696z"/>
	<path d="M126.211,98.794c-0.773,0.254-1.545,0.527-2.313,0.822C124.667,99.321,125.438,99.048,126.211,98.794z"/>
	<path d="M128.538,98.093c-0.521,0.145-1.043,0.307-1.563,0.469C127.497,98.399,128.016,98.237,128.538,98.093z"/>
	<path d="M130.875,97.513c-0.475,0.105-0.949,0.227-1.422,0.348C129.926,97.737,130.401,97.618,130.875,97.513z"/>
	<path d="M176.171,110.173c0.383,0.365,0.76,0.736,1.131,1.115C176.931,110.909,176.554,110.538,176.171,110.173z"/>
	<path d="M157.104,98.774c-0.494-0.162-0.99-0.314-1.488-0.461C156.114,98.46,156.61,98.612,157.104,98.774z"/>
	<path d="M133.219,97.046c-0.455,0.08-0.908,0.17-1.363,0.262C132.311,97.216,132.764,97.126,133.219,97.046z"/>
	<path d="M141.29,96.315c0.576-0.004,1.155,0.002,1.729,0.018c-0.447-0.012-0.893-0.025-1.342-0.025
		C141.547,96.308,141.418,96.315,141.29,96.315z"/>
	<path d="M184.476,34.687c-13.813-5.303-28.207-7.992-42.788-7.992c-0.057,0-0.113,0-0.168-0.002
		c-16.631,0.023-32.885,3.518-48.307,10.387c-29.107,12.967-51.426,36.496-62.84,66.25c-11.418,29.754-10.568,62.176,2.393,91.293
		c11.453,25.73,31.361,46.344,56.451,58.609l22.965-59.854c-10.236-6.395-18.127-15.924-22.502-27.301
		c-11.02-28.715,3.367-61.041,32.068-72.063c6.406-2.459,13.111-3.707,19.93-3.707c22.954,0,43.897,14.381,52.11,35.785
		c5.34,13.908,4.943,29.063-1.115,42.674c-4.533,10.189-12.021,18.773-21.381,24.621l22.951,59.83
		c26.844-13.197,48.104-36.361,58.854-64.377c11.416-29.758,10.564-62.18-2.396-91.295
		C237.741,68.431,214.222,46.106,184.476,34.687z"/>
	<path d="M152.839,97.581c-0.703-0.162-1.41-0.307-2.121-0.438C151.429,97.274,152.136,97.419,152.839,97.581z"/>
	<path d="M150.126,97.042c-0.525-0.092-1.055-0.176-1.584-0.25C149.071,96.868,149.599,96.95,150.126,97.042z"/>
	<path d="M154.95,98.122c-0.578-0.16-1.16-0.309-1.746-0.449C153.79,97.813,154.372,97.962,154.95,98.122z"/>
	<path d="M147.825,96.698c-0.533-0.068-1.068-0.125-1.605-0.174C146.755,96.575,147.292,96.63,147.825,96.698z"/>
	<path d="M140.284,96.339c-0.445,0.014-0.891,0.027-1.336,0.053C139.393,96.366,139.838,96.353,140.284,96.339z"/>
	<path d="M137.924,96.462c-0.443,0.033-0.887,0.072-1.33,0.119C137.04,96.534,137.481,96.495,137.924,96.462z"/>
	<path d="M145.624,96.468c-0.723-0.057-1.447-0.102-2.174-0.127C144.177,96.366,144.901,96.411,145.624,96.468z"/>
	<path d="M264.669,91.325c-14.621-32.848-41.156-58.035-74.713-70.92C156.396,7.521,119.829,8.481,86.993,23.106
		c-32.838,14.627-58.018,41.17-70.896,74.74c-12.883,33.568-11.922,70.146,2.699,102.996c14.621,32.848,41.156,58.033,74.715,70.918
		c2.395,0.92,5.082-0.277,6-2.674l30.391-79.209c0.918-2.396-0.277-5.084-2.672-6.004c-10.703-4.119-19.162-12.578-23.277-23.281
		c-7.998-20.84,2.445-44.301,23.277-52.303c20.833-8,44.286,2.445,52.284,23.285c3.875,10.094,3.588,21.094-0.809,30.971
		c-4.396,9.879-12.377,17.453-22.467,21.328c-2.396,0.92-3.594,3.607-2.674,6.004l30.389,79.209
		c0.688,1.797,2.414,2.982,4.338,2.982v-0.002c0.568,0,1.133-0.104,1.664-0.309c35.553-13.65,63.77-41.875,77.414-77.439
		C280.251,160.751,279.292,124.173,264.669,91.325z M258.696,190.991c-12.148,31.66-36.699,57.074-67.766,70.348l-27.104-70.65
		c10.391-5.127,18.594-13.641,23.363-24.359c5.404-12.146,5.76-25.672,0.996-38.084c-0.279-0.725-0.578-1.438-0.887-2.143
		c-0.094-0.213-0.191-0.424-0.289-0.637c-0.229-0.502-0.463-1-0.707-1.492c-0.107-0.221-0.219-0.441-0.328-0.66
		c-0.281-0.543-0.57-1.08-0.867-1.611c-0.074-0.131-0.145-0.266-0.217-0.395c-0.375-0.654-0.766-1.297-1.164-1.928
		c-0.105-0.162-0.211-0.318-0.316-0.479c-0.309-0.475-0.623-0.941-0.945-1.402c-0.139-0.197-0.279-0.395-0.422-0.59
		c-0.32-0.445-0.65-0.883-0.986-1.316c-0.125-0.16-0.246-0.322-0.371-0.48c-0.461-0.578-0.932-1.146-1.414-1.701
		c-0.068-0.08-0.141-0.154-0.209-0.23c-0.42-0.477-0.85-0.943-1.285-1.4c-0.156-0.164-0.316-0.326-0.477-0.49
		c-0.371-0.377-0.748-0.75-1.131-1.115c-0.16-0.154-0.32-0.311-0.484-0.463c-0.484-0.451-0.979-0.893-1.479-1.322
		c-0.053-0.045-0.102-0.092-0.152-0.137c-0.557-0.473-1.121-0.93-1.695-1.377c-0.162-0.125-0.328-0.248-0.49-0.371
		c-0.426-0.322-0.854-0.639-1.289-0.947c-0.189-0.135-0.379-0.27-0.57-0.4c-0.463-0.32-0.932-0.629-1.404-0.932
		c-0.143-0.092-0.281-0.188-0.424-0.275c-0.613-0.383-1.232-0.754-1.861-1.111c-0.139-0.078-0.279-0.152-0.42-0.229
		c-0.496-0.275-0.996-0.543-1.502-0.803c-0.207-0.105-0.416-0.209-0.625-0.313c-0.471-0.232-0.945-0.459-1.424-0.676
		c-0.191-0.086-0.383-0.176-0.574-0.262c-0.662-0.291-1.328-0.572-2-0.834c-0.045-0.018-0.092-0.033-0.137-0.051
		c-0.629-0.242-1.264-0.471-1.9-0.688c-0.211-0.072-0.422-0.139-0.635-0.207c-0.492-0.162-0.988-0.314-1.486-0.461
		c-0.223-0.064-0.443-0.129-0.666-0.191c-0.58-0.162-1.162-0.311-1.746-0.449c-0.123-0.029-0.244-0.064-0.365-0.092
		c-0.703-0.162-1.41-0.307-2.121-0.438c-0.195-0.037-0.395-0.068-0.594-0.104c-0.525-0.09-1.053-0.174-1.584-0.248
		c-0.238-0.033-0.477-0.064-0.717-0.096c-0.533-0.066-1.068-0.123-1.604-0.172c-0.199-0.02-0.396-0.041-0.596-0.057
		c-0.723-0.059-1.447-0.104-2.174-0.127c-0.145-0.006-0.289-0.004-0.432-0.01c-0.576-0.016-1.153-0.02-1.731-0.016
		c-0.334,0.002-0.67,0.012-1.006,0.021c-0.445,0.014-0.889,0.027-1.334,0.053c-0.342,0.02-0.682,0.043-1.023,0.068
		c-0.443,0.035-0.887,0.074-1.328,0.119c-0.344,0.037-0.686,0.074-1.027,0.117c-0.445,0.057-0.891,0.119-1.336,0.188
		c-0.338,0.053-0.676,0.104-1.014,0.162c-0.455,0.08-0.908,0.17-1.363,0.262c-0.328,0.066-0.654,0.131-0.98,0.205
		c-0.475,0.105-0.947,0.227-1.422,0.348c-0.305,0.078-0.611,0.15-0.916,0.234c-0.521,0.145-1.043,0.305-1.563,0.467
		c-0.254,0.08-0.51,0.15-0.766,0.234c-0.771,0.254-1.543,0.525-2.311,0.82c-25.615,9.836-38.455,38.686-28.621,64.311
		c4.482,11.654,13.176,21.203,24.363,26.758l-27.109,70.658c-29.203-12.443-52.268-35.117-65.248-64.279
		c-13.613-30.58-14.506-64.631-2.514-95.883c11.99-31.254,35.432-55.963,66.002-69.582c16.303-7.262,33.59-10.904,50.916-10.904
		v0.002c15.165,0,30.356,2.791,44.938,8.389c31.242,11.996,55.943,35.443,69.557,66.023
		C269.794,125.688,270.687,159.741,258.696,190.991z"/>
</g>
</svg>
