<?xml version="1.0" encoding="utf-8"?>
<!-- Generator: Adobe Illustrator 15.1.0, SVG Export Plug-In . SVG Version: 6.00 Build 0)  -->
<!DOCTYPE svg PUBLIC "-//W3C//DTD SVG 1.1//EN" "http://www.w3.org/Graphics/SVG/1.1/DTD/svg11.dtd">
<svg version="1.1" id="Layer_1" xmlns="http://www.w3.org/2000/svg" xmlns:xlink="http://www.w3.org/1999/xlink" x="0px" y="0px"
	 width="283.46px" height="283.46px" viewBox="0 0 283.46 283.46" enable-background="new 0 0 283.46 283.46" xml:space="preserve">
<title>Asset 19</title>
<g>
	<path fill="#231F20" d="M170.551,47.336c-0.1-0.021-0.204-0.035-0.306-0.042l-4.279-0.864l-1.129,5.653l4.316,0.863
		c1.548,0.45,3.168-0.439,3.618-1.987c0.024-0.084,0.047-0.169,0.062-0.254C173.132,49.145,172.112,47.636,170.551,47.336z"/>
	<path fill="#231F20" d="M171.844,36.809l-3.699-0.74l-0.987,4.831l3.557,0.72c1.183,0.365,2.438-0.296,2.803-1.479
		c0.034-0.106,0.059-0.217,0.075-0.33C173.88,38.351,173.469,37.137,171.844,36.809z"/>
	<path fill="#231F20" d="M89.043,218.529l-3.063-2.239l-2.836,3.987l2.919,2.179c1.117,0.779,2.655,0.505,3.435-0.612
		C90.233,220.789,90.036,219.347,89.043,218.529z"/>
	<path fill="#231F20" d="M165.534,230.966l-4.233,0.862l3.227,15.769l4.235-0.864c3.904-0.802,5.118-4.954,4.275-9.022
		C172.196,233.639,169.44,230.185,165.534,230.966z"/>
	<path fill="#231F20" d="M83.494,227.583c-0.066-0.046-0.135-0.093-0.205-0.134l-3.536-2.631l-3.392,4.646l3.557,2.592
		c1.218,1.054,3.063,0.926,4.117-0.295c0.056-0.063,0.108-0.132,0.158-0.2C85.099,230.272,84.787,228.49,83.494,227.583z"/>
	<path fill="#231F20" d="M141.73,7.084C67.368,7.084,7.084,67.368,7.084,141.73S67.368,276.375,141.73,276.375
		c74.329-0.079,134.566-60.316,134.646-134.646C276.375,67.368,216.092,7.084,141.73,7.084z M89.743,236.31
		c-2.426,3.311-6.907,5.346-12.478,1.255l-10.031-7.318l16.713-22.86l9.477,6.848c4.255,3.103,5.201,7.583,2.508,11.263
		c-1.479,2.117-4.184,2.991-6.619,2.139C91.615,230.008,91.8,233.722,89.743,236.31z M71.016,51.363l5.283-4.583l18.747,21.563
		l-5.427,4.398l-7.235-8.222l-6.517,5.674l7.236,8.222l-4.872,4.872L59.319,61.559l5.18-4.502l7.339,8.429l6.517-5.674
		L71.016,51.363z M108.985,51.178l-7.34-16.856l6.476-2.57l7.153,16.446c2.452,5.676-0.161,12.267-5.839,14.719
		c-5.676,2.453-12.266-0.162-14.718-5.838l0.042,0.164l-7.154-16.446l6.167-3.042l7.359,16.814c0.937,2.169,3.453,3.167,5.622,2.231
		S109.92,53.345,108.985,51.178z M97.288,237.153l0.021-0.123l5.817-17.041l6.435,2.527l-5.715,16.733
		c-0.661,2.267,0.641,4.642,2.907,5.301c2.118,0.617,4.358-0.477,5.171-2.527l5.716-16.753l6.618,2.056l-5.817,17.041
		c-2.215,5.765-8.684,8.646-14.448,6.433C98.533,248.703,95.611,242.753,97.288,237.153z M68.877,141.73
		c0.034-40.27,32.706-72.887,72.976-72.853c40.22,0.034,72.816,32.631,72.852,72.853c-0.009,40.299-32.676,72.966-72.975,72.975
		C101.46,214.671,68.843,182,68.877,141.73z M177.17,220.997l6.165-3.104l9.951,19.98l9.086-4.521l2.673,5.363l-15.254,7.648
		L177.17,220.997z M169.993,252.799l-10.995,2.238l-5.674-27.771l10.998-2.282c8.017-1.643,13.835,3.474,15.459,11.369
		C181.404,244.248,178.012,251.112,169.993,252.799z M191.539,213.473l14.225-11.636l3.804,4.647l-8.9,7.298l3.433,4.111
		l7.832-6.414l3.72,4.543l-7.832,6.414l3.187,3.885l9.189-7.523l3.803,4.647l-14.514,11.94L191.539,213.473z M215.529,60.327
		l-3.413,4.316l7.854,6.167l-3.701,4.563l-7.874-6.352l-3.145,3.905l9.23,7.462l-3.742,4.81l-14.532-11.819l17.802-22.036
		l14.389,11.553l-3.782,4.667L215.529,60.327z M196.061,65.835l-2.796,5.304l-15.191-8.017l13.219-25.059l6.166,3.247
		l-10.423,19.755L196.061,65.835z M179.944,52.658c-0.822,4.111-4.111,7.75-10.813,6.373l-12.171-2.446l5.611-27.771l11.369,2.302
		c5.16,1.049,7.913,4.707,7.01,9.168c-0.464,2.532-2.554,4.445-5.117,4.688C178.95,46.126,180.713,49.425,179.944,52.658z
		 M148.267,27.765l5.427,27.813l-7.195-0.268l-2.631-14.122l-4.851,12.333l-5.16,0.371l-6.599-11.532l-0.636,14.389l-7.093,1.356
		l1.501-29.129l5.017-0.616l9.847,17.432l6.74-18.026H148.267z M127.938,227.737h6.599l7.79,14.758l0.309-14.822l6.825-0.263
		l-0.535,28.061l-6.166,0.141l-8.223-15.644l-0.328,15.458l-6.866-0.145L127.938,227.737z"/>
	<path d="M141.688,118.872l4.538-2.533c-2.308-2.091-3.68-5.021-3.797-8.136c-0.021-1.341,0.424-2.648,1.253-3.7
		c1.13-1.192,0.412-1.563-0.309-1.192c-2.237,1.242-3.618,3.607-3.598,6.167C139.694,112.713,140.348,115.925,141.688,118.872z"/>
	<path d="M141.835,179.533c16.445,0,25.964-6.271,25.964-19.796c0-12.19-4.48-14.163-4.48-14.163v-0.02h-0.004l-15.664-8.369
		c-1.789,0.843-9.742,8.223-9.742,13.507c-0.208,2.763,0.772,5.483,2.693,7.483c-13.465-5.735,2.056-22.244,7.236-27.938
		c9.147-10.052,9.745-16.157,9.745-20.556c0.02-2.561-1.362-4.926-3.598-6.168c-0.781-0.35-1.501,0-0.309,1.192
		c0.836,1.049,1.28,2.357,1.253,3.7c0,8.223-10.873,13.506-15.973,15.541c-8.963,3.536-26.004,8.859-26.004,29.211
		S123.952,179.533,141.835,179.533z"/>
	<path d="M139.099,120.556l0.04-0.02l-34.616-18.645c-1.636-0.627-3.48,0.095-4.255,1.665c-0.932,1.666-0.441,3.768,1.13,4.851
		l29.026,15.623L139.099,120.556z"/>
	<path d="M190.038,155.791c1.559,0.294,3.123-0.489,3.822-1.912c0.735-1.535,0.453-3.366-0.72-4.604l-39.467-20.906l-4.482,5.735
		L190.038,155.791z"/>
	<path d="M146.292,116.302l-0.065,0.036c0.03,0.028,0.058,0.06,0.088,0.087L146.292,116.302z"/>
</g>
</svg>
