<?xml version="1.0" encoding="utf-8"?>
<!-- Generator: Adobe Illustrator 15.1.0, SVG Export Plug-In . SVG Version: 6.00 Build 0)  -->
<!DOCTYPE svg PUBLIC "-//W3C//DTD SVG 1.1//EN" "http://www.w3.org/Graphics/SVG/1.1/DTD/svg11.dtd">
<svg version="1.1" id="Layer_1" xmlns="http://www.w3.org/2000/svg" xmlns:xlink="http://www.w3.org/1999/xlink" x="0px" y="0px"
	 width="283.465px" height="283.465px" viewBox="0 0 283.465 283.465" enable-background="new 0 0 283.465 283.465"
	 xml:space="preserve">
<g>
	<path d="M153.115,222.121c39.152-5.533,69.271-39.172,69.271-79.852c0-24.713-11.119-46.826-28.623-61.621l-40.646,40.648v100.824
		H153.115z"/>
	<path d="M61.076,142.27c0,40.68,30.117,74.318,69.27,79.852V121.297L89.699,80.65C72.195,95.445,61.076,117.557,61.076,142.27z"/>
	<path d="M237.842,142.27c0,52.996-43.115,96.111-96.109,96.111c-52.996,0-96.111-43.115-96.111-96.111
		c0-28.932,12.852-54.918,33.145-72.555L51.818,42.768c-1.672,1.514-3.311,3.07-4.914,4.674
		C34.594,59.752,24.926,74.09,18.172,90.063c-6.998,16.547-10.547,34.111-10.547,52.207c0,18.098,3.549,35.66,10.547,52.205
		c6.756,15.975,16.424,30.314,28.732,42.623c12.311,12.311,26.65,21.979,42.623,28.732c16.545,6.998,34.109,10.547,52.207,10.547
		c18.096,0,35.658-3.549,52.205-10.547c15.973-6.756,30.313-16.422,42.621-28.732c12.311-12.311,21.979-26.65,28.732-42.623
		c6.998-16.545,10.547-34.107,10.547-52.205c0-18.096-3.549-35.66-10.547-52.207c-6.756-15.973-16.422-30.313-28.732-42.621
		c-1.604-1.604-3.24-3.162-4.912-4.674l-26.949,26.947C224.99,87.35,237.842,113.338,237.842,142.27z"/>
	<circle cx="141.73" cy="51.31" r="44.222"/>
</g>
</svg>
