<?xml version="1.0" encoding="utf-8"?>
<!-- Generator: Adobe Illustrator 15.1.0, SVG Export Plug-In . SVG Version: 6.00 Build 0)  -->
<!DOCTYPE svg PUBLIC "-//W3C//DTD SVG 1.1//EN" "http://www.w3.org/Graphics/SVG/1.1/DTD/svg11.dtd">
<svg version="1.1" id="Layer_2" xmlns="http://www.w3.org/2000/svg" xmlns:xlink="http://www.w3.org/1999/xlink" x="0px" y="0px"
	 width="283.465px" height="283.465px" viewBox="0 0 283.465 283.465" enable-background="new 0 0 283.465 283.465"
	 xml:space="preserve">
<g>
	<path fill="none" d="M186.155,124.295l-8.857-5.115c-0.242-0.139-0.541-0.139-0.785,0l-8.852,5.115
		c-0.236,0.139-0.383,0.396-0.383,0.674v10.226c0,0.276,0.146,0.535,0.389,0.673l8.857,5.104c0.24,0.139,0.537,0.139,0.777,0
		l8.855-5.104c0.24-0.138,0.391-0.396,0.391-0.673l-0.004-10.226C186.546,124.691,186.397,124.434,186.155,124.295z"/>
	<polygon fill="#231F20" points="79.101,115.936 79.101,142.393 86.591,129.578 	"/>
	<polygon fill="#231F20" points="133.849,138.711 133.849,116.588 127.599,128.033 	"/>
	<polygon fill="#231F20" points="80.124,146.068 102.849,159.192 88.128,132.377 	"/>
	<polygon fill="#231F20" points="132.608,113.143 111.882,101.186 125.983,125.274 	"/>
	<path fill="#231F20" d="M133.443,146.768c0.623-0.361,1.067-0.963,1.237-1.664l-27.901-47.665c-0.155-0.02-0.31-0.025-0.465-0.016
		l-0.128,0.008c-0.053,0.006-0.104,0.015-0.153,0.023c-0.058,0.01-0.104,0.019-0.149,0.029c-0.058,0.014-0.115,0.028-0.174,0.045
		l-0.086,0.029c-0.089,0.031-0.15,0.052-0.212,0.079c-0.104,0.048-0.182,0.086-0.258,0.129l-25.183,14.537l27.197,49.539
		c0.018-0.006,0.034-0.01,0.035-0.011c0.094-0.028,0.176-0.054,0.254-0.085l0.225,0.4l-0.176-0.42
		c0.101-0.043,0.199-0.09,0.295-0.146L133.443,146.768z"/>
	<path fill="#231F20" d="M167.062,172.531l-24.313-14.05c-1.529-0.871-3.574-0.871-5.113,0l-24.344,14.044
		c-1.578,0.9-2.552,2.605-2.552,4.432v28.063c0,1.819,0.974,3.524,2.552,4.438l6.379,3.676c3.092,1.521,4.201,1.521,5.606,1.521
		c4.571,0,7.201-2.77,7.201-7.591v-27.71c0-0.396-0.316-0.7-0.7-0.7h-3.08c-0.396,0-0.707,0.304-0.707,0.7v27.697
		c0,2.144-2.209,4.272-5.824,2.465l-6.66-3.848c-0.231-0.127-0.377-0.383-0.377-0.65v-28.063c0-0.269,0.149-0.529,0.385-0.664
		l24.305-14.025c0.225-0.135,0.523-0.135,0.749,0l24.31,14.025c0.229,0.141,0.377,0.389,0.377,0.67v28.063
		c0,0.268-0.146,0.529-0.371,0.656l-24.32,14.039c-0.208,0.121-0.528,0.121-0.753,0l-6.237-3.701
		c-0.186-0.11-0.423-0.146-0.604-0.043c-1.727,0.979-2.055,1.107-3.672,1.674c-0.399,0.139-0.992,0.378,0.222,1.057l8.118,4.807
		c0.779,0.449,1.662,0.683,2.552,0.683l-0.002-0.013c0.901,0,1.784-0.231,2.563-0.682l24.313-14.045
		c1.57-0.912,2.549-2.611,2.549-4.432v-28.063C169.61,175.137,168.632,173.438,167.062,172.531z"/>
	<path fill="#231F20" d="M274.827,112.098L249.2,97.22c-0.969-0.56-2.156-0.56-3.123,0l-25.787,14.884
		c-0.967,0.56-1.559,1.583-1.559,2.696v29.769c0,1.119,0.604,2.155,1.57,2.709l25.621,14.604c0.945,0.541,2.102,0.547,3.057,0.019
		l15.498-8.614c0.488-0.273,0.799-0.791,0.799-1.352s-0.299-1.084-0.785-1.357l-25.945-14.89c-0.486-0.274-0.785-0.792-0.785-1.345
		v-9.338c0-0.559,0.293-1.072,0.779-1.35l8.072-4.656c0.48-0.281,1.07-0.281,1.553,0l8.078,4.656
		c0.48,0.273,0.777,0.792,0.777,1.346v7.342c0,0.554,0.301,1.07,0.779,1.351c0.48,0.274,1.078,0.274,1.559-0.005l15.473-8.986
		c0.957-0.556,1.547-1.584,1.547-2.691v-7.217C276.378,113.682,275.788,112.657,274.827,112.098z"/>
	<path fill="#231F20" d="M204.284,68.029l-15.344-8.564c-0.482-0.269-1.07-0.262-1.549,0.017c-0.475,0.28-0.77,0.791-0.77,1.345
		v39.568c0,0.39-0.207,0.749-0.543,0.944c-0.336,0.195-0.752,0.195-1.09,0l-6.461-3.72c-0.961-0.557-2.145-0.557-3.109,0
		l-25.793,14.887c-0.965,0.553-1.56,1.582-1.56,2.689v29.779c0,1.115,0.595,2.138,1.56,2.697l25.793,14.896
		c0.963,0.554,2.146,0.554,3.113,0l25.793-14.902c0.963-0.56,1.559-1.582,1.559-2.695V70.752
		C205.886,69.621,205.269,68.583,204.284,68.029z M186.159,135.868l-8.857,5.104c-0.24,0.138-0.537,0.138-0.777,0l-8.855-5.104
		c-0.244-0.139-0.389-0.396-0.389-0.673v-10.225c0-0.279,0.145-0.537,0.383-0.676l8.852-5.113c0.242-0.141,0.541-0.141,0.785,0
		l8.857,5.113c0.242,0.141,0.389,0.396,0.389,0.676l0.004,10.225C186.548,135.473,186.399,135.73,186.159,135.868z"/>
	<path fill="#231F20" d="M63.322,111.684L37.538,96.849c-0.435-0.256-0.923-0.39-1.416-0.408h-0.268
		c-0.495,0.019-0.982,0.152-1.424,0.408L8.647,111.684c-0.96,0.561-1.561,1.59-1.561,2.709l0.058,39.959
		c0,0.554,0.286,1.07,0.772,1.346c0.476,0.292,1.071,0.292,1.547,0l15.328-8.777c0.967-0.576,1.559-1.595,1.559-2.703v-18.668
		c0-1.113,0.59-2.142,1.555-2.695l6.525-3.758c0.484-0.28,1.017-0.42,1.56-0.42c0.533,0,1.077,0.139,1.548,0.418l6.523,3.758
		c0.965,0.554,1.558,1.582,1.558,2.697v18.666c0,1.106,0.599,2.131,1.562,2.703l15.318,8.771c0.481,0.286,1.08,0.286,1.559,0
		c0.474-0.272,0.773-0.791,0.773-1.345l0.049-39.953C64.88,113.27,64.288,112.241,63.322,111.684z"/>
	<path fill="#231F20" d="M247.856,123.309c-0.186-0.108-0.414-0.108-0.596,0l-4.953,2.854c-0.188,0.106-0.299,0.304-0.299,0.519
		v5.716c0,0.213,0.117,0.411,0.305,0.519l4.947,2.854c0.182,0.108,0.41,0.108,0.596,0l4.949-2.854
		c0.186-0.107,0.299-0.306,0.299-0.519v-5.716c0-0.213-0.113-0.41-0.299-0.519L247.856,123.309z"/>
	<path fill="#231F20" d="M147.688,200.588c-6.436,0-7.848-1.615-8.321-4.815c-0.055-0.343-0.347-0.597-0.694-0.597h-3.141
		c-0.391,0-0.705,0.312-0.705,0.701c0,4.098,2.23,8.98,12.872,8.98l-0.034,0.027c7.707,0,12.125-3.037,12.125-8.332
		c0-5.254-3.549-6.653-11.023-7.646c-7.549-0.998-8.315-1.516-8.315-3.287c0-1.461,0.651-3.408,6.246-3.408
		c4.997,0,6.837,1.077,7.597,4.443c0.068,0.316,0.354,0.548,0.682,0.548h3.16c0.195,0,0.385-0.085,0.52-0.226
		c0.133-0.146,0.205-0.342,0.188-0.541c-0.488-5.809-4.348-8.512-12.133-8.512c-6.935,0-11.074,2.922-11.074,7.828
		c0,5.327,4.115,6.795,10.775,7.451c7.963,0.779,8.584,1.941,8.584,3.508C154.993,199.43,152.813,200.588,147.688,200.588z"/>
</g>
</svg>
