<?xml version="1.0" encoding="utf-8"?>
<!-- Generator: Adobe Illustrator 15.1.0, SVG Export Plug-In . SVG Version: 6.00 Build 0)  -->
<!DOCTYPE svg PUBLIC "-//W3C//DTD SVG 1.0//EN" "http://www.w3.org/TR/2001/REC-SVG-20010904/DTD/svg10.dtd">
<svg version="1.0" id="Layer_3" xmlns="http://www.w3.org/2000/svg" xmlns:xlink="http://www.w3.org/1999/xlink" x="0px" y="0px"
	 width="283.465px" height="283.465px" viewBox="92.102 92.128 283.465 283.465"
	 enable-background="new 92.102 92.128 283.465 283.465" xml:space="preserve">
<g>
	<path fill="none" d="M188.918,287.23c0.381-0.092,0.777-0.191,1.186-0.298C190.767,286.742,188.726,287.169,188.918,287.23z"/>
	<path d="M190.104,286.932c-0.409,0.106-0.805,0.206-1.186,0.298C189.571,287.073,189.927,286.982,190.104,286.932z"/>
	<path d="M354.26,174.32l-1.699,1.87c-28.454,38.503-51.237,70.164-90.772,82.562c0.801-0.251-5.628,2.7,20.104,0.167
		c0.916-0.091,10.721-0.67,12.898,6.198l-11.392,0.67c-37.189,5.026-65.835,39.2-94.481,21.443
		c-0.192-0.061,1.849-0.487,1.186-0.298c12.365-3.236,37.069-13.51,41.532-17.963c0.014-0.024-5.926-0.161-9.018-0.308
		c-71.225-3.377-93.133-62.71-113.44-70.386l-4.858-1.452c-4.764,15.615-4.718,28.241-4.914,39.536
		c-0.223,60.754,48.469,127.986,127.707,131.924l10.721,0.223c76.893-2.15,128.488-68.378,130.082-126.759
		C370.845,206.987,354.335,174.289,354.26,174.32z"/>
	<path d="M159.043,190.123c19.123,26.83,45.772,68.415,80.299,69.211c11.055,0.254,18.408-6.359,26.803-14.488
		c30.652-29.686,34.943-84.571,74.212-92.304c0,0-14.574-21.945-43.556-37.357c-2.764-1.47-25.967-15.412-61.592-15.97
		c-77.229,0.278-111.234,56.957-111.234,56.957C141.063,164.548,158.793,189.773,159.043,190.123z M262.605,158.176
		c0-3.704,2.978-6.681,6.681-6.681h9.172c3.702,0,6.68,2.977,6.68,6.681v28.771h-7.581v-14.239h-7.37v14.239h-7.581V158.176z
		 M233.585,158.176c0-3.704,2.977-6.681,6.679-6.681h9.172c3.703,0,6.681,2.977,6.681,6.681v28.771h-7.581v-14.239h-7.37v14.239
		h-7.581V158.176z M204.55,158.172c0-3.702,2.981-6.684,6.684-6.684h9.178c3.703,0,6.684,2.981,6.684,6.684v22.091
		c0,3.703-2.98,6.684-6.684,6.684h-9.178c-3.703,0-6.684-2.98-6.684-6.684V158.172z M175.508,151.495h15.873
		c3.703,0,6.68,2.977,6.68,6.681v28.771h-7.581v-27.83c0-0.854-0.695-1.55-1.549-1.55h-4.293c-0.854,0-1.528,0.696-1.528,1.55v27.83
		h-7.602V151.495z"/>
	<path d="M248.536,159.118c0-0.854-0.695-1.55-1.55-1.55h-4.271c-0.854,0-1.549,0.696-1.549,1.55v7.518h7.37V159.118z"/>
	<path d="M213.679,180.863h4.288c0.854,0,1.542-0.687,1.542-1.541v-20.208c0-0.854-0.688-1.542-1.542-1.542h-4.288
		c-0.854,0-1.541,0.688-1.541,1.542v20.208C212.138,180.176,212.825,180.863,213.679,180.863z"/>
	<path d="M277.556,159.118c0-0.854-0.695-1.55-1.549-1.55h-4.271c-0.854,0-1.55,0.696-1.55,1.55v7.518h7.37V159.118z"/>
</g>
</svg>
