<?xml version="1.0" encoding="utf-8"?>
<!-- Generator: Adobe Illustrator 15.1.0, SVG Export Plug-In . SVG Version: 6.00 Build 0)  -->
<!DOCTYPE svg PUBLIC "-//W3C//DTD SVG 1.1//EN" "http://www.w3.org/Graphics/SVG/1.1/DTD/svg11.dtd">
<svg version="1.1" id="Layer_1" xmlns="http://www.w3.org/2000/svg" xmlns:xlink="http://www.w3.org/1999/xlink" x="0px" y="0px"
	 width="283.465px" height="283.465px" viewBox="0 0 283.465 283.465" enable-background="new 0 0 283.465 283.465"
	 xml:space="preserve">
<path d="M275.636,262.468h-45.215c-0.41,0-0.742-0.332-0.742-0.742V235.06c0-0.408,0.332-0.74,0.742-0.74h17.391v-23.768v-5.938
	v-6.654h-63.766v6.654v5.938v23.768h17.391c0.41,0,0.742,0.332,0.742,0.74v26.666c0,0.41-0.332,0.742-0.742,0.742h-45.215
	c-0.41,0-0.742-0.332-0.742-0.742V235.06c0-0.408,0.332-0.74,0.742-0.74h17.391v-23.768v-5.938v-17.088h37.1v-12.592v-6.678v-17.09
	h-17.391c-0.41,0-0.742-0.332-0.742-0.742v-26.664c0-0.409,0.332-0.741,0.742-0.741h17.391v-21.541v-5.542H72.747v5.542v21.541
	h17.389c0.41,0,0.742,0.332,0.742,0.741v26.666c0,0.41-0.332,0.742-0.742,0.742H72.747v17.09v6.678v12.592h37.1v17.088v5.938v23.768
	h17.391c0.408,0,0.74,0.332,0.74,0.742v26.664c0,0.41-0.332,0.742-0.74,0.742H82.021c-0.408,0-0.74-0.332-0.74-0.742v-26.666
	c0-0.408,0.332-0.74,0.74-0.74h17.391v-23.77v-5.938v-6.654H35.652v5.912v6.68v23.768h17.386c0.41,0,0.742,0.332,0.742,0.74v26.666
	c0,0.41-0.334,0.742-0.742,0.742H7.829c-0.41,0-0.742-0.332-0.742-0.742V235.06c0-0.408,0.332-0.74,0.742-0.74H25.22v-23.768v-6.68
	v-16.346h37.094v-12.592v-6.678v-17.09H44.929c-0.41,0-0.742-0.332-0.742-0.742v-26.664c0-0.409,0.332-0.741,0.742-0.741h17.385
	v-21.541v-5.913V85.503h74.199v-7.769v-6.308V49.145h-17.391c-0.41,0-0.742-0.332-0.742-0.742V21.736
	c0-0.409,0.332-0.741,0.742-0.741h45.215c0.41,0,0.742,0.332,0.742,0.741v26.666c0,0.41-0.332,0.742-0.742,0.742h-17.391v22.282
	v6.308v7.769h74.199v10.063v5.913v21.541h17.391c0.41,0,0.742,0.332,0.742,0.741v26.666c0,0.41-0.332,0.742-0.742,0.742h-17.391
	v17.09v6.678v12.592h37.102v17.088v5.938v23.768h17.389c0.41,0,0.742,0.332,0.742,0.742v26.664
	C276.378,262.136,276.046,262.468,275.636,262.468z"/>
</svg>
