<?xml version="1.0" encoding="utf-8"?>
<!-- Generator: Adobe Illustrator 15.1.0, SVG Export Plug-In . SVG Version: 6.00 Build 0)  -->
<!DOCTYPE svg PUBLIC "-//W3C//DTD SVG 1.1//EN" "http://www.w3.org/Graphics/SVG/1.1/DTD/svg11.dtd">
<svg version="1.1" id="Layer_1" xmlns="http://www.w3.org/2000/svg" xmlns:xlink="http://www.w3.org/1999/xlink" x="0px" y="0px"
	 width="283.465px" height="283.464px" viewBox="0 0 283.465 283.464" enable-background="new 0 0 283.465 283.464"
	 xml:space="preserve">
<path d="M141.708,7.086c-11.986,29.385-19.215,48.607-32.561,77.121c8.182,8.673,18.225,18.771,34.534,30.179
	c-17.534-7.216-29.493-14.461-38.432-21.977c-17.078,35.637-43.837,86.401-98.136,183.968
	c42.678-24.631,75.761-39.83,106.591-45.615c-1.391-5.992-2.07-12.128-2.025-18.277l0.051-1.377
	c0.678-27.339,14.9-48.362,31.749-46.937c16.852,1.429,29.943,24.767,29.262,52.104c-0.111,5.151-0.695,10.095-1.717,14.681
	c30.498,5.964,63.23,21.114,105.328,45.421c-8.295-15.28-15.717-29.054-22.783-42.181c-11.148-8.637-22.766-19.884-46.49-32.052
	c16.303,4.245,27.969,9.122,37.076,14.583C172.207,82.77,166.385,64.973,141.705,7.093L141.708,7.086z"/>
</svg>
