<?xml version="1.0" encoding="utf-8"?>
<!-- Generator: Adobe Illustrator 15.1.0, SVG Export Plug-In . SVG Version: 6.00 Build 0)  -->
<!DOCTYPE svg PUBLIC "-//W3C//DTD SVG 1.1//EN" "http://www.w3.org/Graphics/SVG/1.1/DTD/svg11.dtd">
<svg version="1.1" id="Layer_3" xmlns="http://www.w3.org/2000/svg" xmlns:xlink="http://www.w3.org/1999/xlink" x="0px" y="0px"
	 width="283.465px" height="283.465px" viewBox="0 0 283.465 283.465" enable-background="new 0 0 283.465 283.465"
	 xml:space="preserve">
<path fill="#231F20" d="M234.324,141.697c-1.648,5.545-3.996,12.643-14.438,18.006c-1.521,0.773-2.102-0.502-1.398-1.701
	c3.941-6.713,4.646-8.389,5.795-11.039c1.604-3.869,2.439-9.375-0.748-20.863c-6.279-22.602-19.385-52.813-28.904-62.611
	c-9.195-9.459-25.848-12.121-40.898-8.26c-5.539,1.424-16.389,7.064-36.502,2.533C82.424,49.92,77.264,67.35,75.271,74.943
	c-2,7.596-6.795,29.178-6.795,29.178c-1.6,8.787-3.691,24.07,50.354,34.363c25.178,4.799,26.461,11.303,27.574,15.988
	c1.998,8.391,5.193,13.189,8.791,15.584c3.596,2.4,0,4.385-3.992,4.795c-10.723,1.111-50.354-10.254-73.801-23.574
	c-19.184-11.725-19.508-22.281-15.117-31.236c-28.975-3.135-50.721,2.719-54.664,16.436c-6.766,23.543,51.764,63.754,118.404,83.932
	c69.938,21.178,141.867,6.395,149.863-37.563C279.518,162.871,262.697,148.096,234.324,141.697 M127.092,98.65
	c-19.293,1.396-21.297,3.479-24.91,7.326c-5.094,5.428-11.805-7.041-11.805-7.041c-4.029-0.85-8.912-7.34-6.275-13.404
	c2.592-6,7.387-4.197,8.891-2.33c1.828,2.271,5.727,5.99,10.791,5.857c5.063-0.137,10.902-1.199,19.051-1.199
	c8.254,0,13.803,3.08,14.115,5.729C137.217,95.85,136.281,97.986,127.092,98.65 M147.355,66.775
	c-0.029,0.004-0.061,0.008-0.09,0.008c-0.299,0-0.539-0.232-0.539-0.51c0-0.201,0.123-0.377,0.305-0.457
	c3.738-1.979,9.32-3.547,15.707-4.197c1.855-0.191,3.723-0.297,5.59-0.316c0.314,0,0.633,0.004,0.953,0.01
	c10.705,0.24,19.275,4.494,19.146,9.502c-0.127,5.006-8.902,8.867-19.607,8.625c-3.471-0.078-6.721-0.578-9.52-1.389
	c-0.33-0.076-0.564-0.365-0.572-0.703c0.008-0.34,0.248-0.629,0.58-0.699c6.682-1.545,11.186-4.072,10.869-6.459
	c-0.422-3.16-9.16-4.885-19.514-3.84C149.531,66.463,148.424,66.607,147.355,66.775"/>
</svg>
