<?xml version="1.0" encoding="utf-8"?>
<!-- Generator: Adobe Illustrator 15.1.0, SVG Export Plug-In . SVG Version: 6.00 Build 0)  -->
<!DOCTYPE svg PUBLIC "-//W3C//DTD SVG 1.1//EN" "http://www.w3.org/Graphics/SVG/1.1/DTD/svg11.dtd">
<svg version="1.1" id="AW" xmlns="http://www.w3.org/2000/svg" xmlns:xlink="http://www.w3.org/1999/xlink" x="0px" y="0px"
	 width="283.465px" height="283.465px" viewBox="0 0 283.465 283.465" enable-background="new 0 0 283.465 283.465"
	 xml:space="preserve">
<path d="M141.733,7.087C67.365,7.087,7.086,67.364,7.086,141.731c0,74.359,60.277,134.646,134.646,134.646
	c74.363,0,134.646-60.285,134.646-134.646C276.379,67.364,216.098,7.087,141.733,7.087z M185.334,48.905
	c9.561,0,17.311,7.75,17.311,17.311s-7.75,17.311-17.311,17.311s-17.311-7.75-17.311-17.311S175.773,48.905,185.334,48.905z
	 M141.735,67.354c6.757,0,13.304,0.906,19.525,2.596c1.098,7.035,5.246,13.529,11.891,17.363c6.639,3.834,14.33,4.184,20.967,1.623
	c12.527,12.428,20.648,29.285,21.836,48.027l-25.043,0.393c-2.217-25.219-23.385-44.996-49.175-44.996
	c-7.436,0-14.482,1.646-20.807,4.588l-12.188-21.893C118.683,70.126,129.884,67.354,141.735,67.354z M54.535,159.042
	c-9.562,0-17.312-7.75-17.312-17.311s7.75-17.311,17.312-17.311c9.56,0,17.311,7.75,17.311,17.311S64.094,159.042,54.535,159.042z
	 M69.803,160.712c5.545-4.467,9.095-11.309,9.095-18.98c0-7.674-3.55-14.514-9.094-18.979c4.682-17.789,15.79-32.973,30.688-42.92
	l12.863,21.496c-12.694,8.936-20.992,23.697-20.992,40.402c0,16.703,8.297,31.469,20.992,40.402l-12.863,21.498
	C85.592,193.683,74.486,178.501,69.803,160.712z M185.332,234.556c-9.559,0-17.309-7.748-17.309-17.309s7.75-17.311,17.309-17.311
	c9.561,0,17.311,7.75,17.311,17.311S194.893,234.556,185.332,234.556z M194.117,194.526c-6.637-2.561-14.326-2.213-20.967,1.621
	c-6.646,3.836-10.793,10.33-11.891,17.363c-6.223,1.688-12.77,2.598-19.525,2.598c-11.852,0-23.052-2.771-32.994-7.703
	l12.188-21.893c6.322,2.941,13.369,4.59,20.806,4.59c25.791,0,46.958-19.779,49.175-44.996l25.045,0.393
	C214.77,165.239,206.645,182.097,194.117,194.526z"/>
</svg>
