<?xml version="1.0" encoding="utf-8"?>
<!-- Generator: Adobe Illustrator 15.1.0, SVG Export Plug-In . SVG Version: 6.00 Build 0)  -->
<!DOCTYPE svg PUBLIC "-//W3C//DTD SVG 1.1//EN" "http://www.w3.org/Graphics/SVG/1.1/DTD/svg11.dtd">
<svg version="1.1" id="Layer_4" xmlns="http://www.w3.org/2000/svg" xmlns:xlink="http://www.w3.org/1999/xlink" x="0px" y="0px"
	 width="283.46px" height="283.46px" viewBox="0 0 283.46 283.46" enable-background="new 0 0 283.46 283.46" xml:space="preserve">
<g>
	<path fill="none" d="M96.737,221.019L96.737,221.019c0.291,0.371,0.658,0.797,1.059,1.234
		C97.396,221.816,97.028,221.39,96.737,221.019z"/>
	<path d="M194.867,52.638c0.404,0.219,0.812,0.437,1.213,0.663C195.675,53.075,195.271,52.857,194.867,52.638z"/>
	<path d="M201.453,56.641c-0.351-0.239-0.707-0.465-1.062-0.698C200.746,56.176,201.102,56.402,201.453,56.641z"/>
	<path d="M158.966,194.332c0.371,0,0.742-0.021,1.113-0.025c-0.552,0.008-1.103,0.02-1.652,0.015
		C158.607,194.321,158.787,194.332,158.966,194.332z"/>
	<path d="M175.732,45.457c-0.377-0.085-0.752-0.18-1.129-0.259c-0.005,0-0.01,0-0.016,0C174.97,45.278,175.35,45.37,175.732,45.457z
		"/>
	<path d="M181.783,47.093c-0.435-0.137-0.867-0.276-1.305-0.405C180.916,46.817,181.348,46.956,181.783,47.093z"/>
	<path d="M198.792,54.91c-0.381-0.237-0.769-0.462-1.151-0.692C198.025,54.447,198.412,54.672,198.792,54.91z"/>
	<path d="M204.05,58.494c-0.285-0.213-0.578-0.414-0.866-0.623C203.472,58.081,203.765,58.281,204.05,58.494z"/>
	<path d="M109.664,181.173l-1.421,1.422c1.097,0,2.195,0,3.292,0C110.907,182.126,110.278,181.662,109.664,181.173z"/>
	<path d="M83.605,177.205c1.297,0.002,2.576,0.146,3.823,0.431l9.341-9.343c-1.821-2.293-3.489-4.683-5.032-7.139
		c-3.425-0.4-5.664-0.906-5.824-1.471c-0.215-1.563,0.297-2.398,1.348-2.695c0.682,0.038,1.376,0.064,2.07,0.09
		c-6.748-12.32-10.133-26.292-9.68-40.638c0.521-16.48,6.074-32.158,15.839-45.144c-5.709-0.445-9.343-1.076-9.579-1.909
		c-0.215-1.563,0.297-2.398,1.348-2.695c3.892,0.114,7.847,0.167,11.836,0.185c1.208-1.387,2.449-2.75,3.759-4.06
		c7.793-7.794,16.933-13.749,26.887-17.688c-14.608,0-29.217,0-43.83,0c0-1.348,0-2.695,0-4.043
		c11.994-2.817,132.374-5.862,133.422,1.348c-0.686-4.69,1.391,4.528,0,0c0.637,2.063-15.853,2.638-30.929,2.757
		c9.894,3.939,18.979,9.873,26.733,17.625c6.479,6.48,11.689,13.888,15.527,21.921c1.271-1.021,2.573-2.001,3.724-2.992
		c10.08-8.679,4.688-48.572,2.466-60.876c-13.963-12.885-24.689-14.137-44.018-13.72c-18.598,0.405-37.209,0.243-55.82,0.243
		c-14.637,0-25.58,13.261-40.661,5.445C82.545,5.68,68.906,7.392,53.569,7.392c6.723,0,3.147,3.008,0.96,2.878
		c2.187,0.128,5.758-2.878-0.962-2.878c-0.066,0.189-0.134,0.377-0.188,0.566c-0.027,0.095-0.054,0.189-0.067,0.27
		c0,0.027-0.014,0.054-0.014,0.081c-0.005,0.025-0.005,0.046-0.009,0.071c-0.784,3.774,2.112,7.388,3.919,10.374
		c3.409,5.633,3.099,10.189,3.1,16.739c0,13.127,0,26.254,0,39.394c0,15.755,0,31.509,0,47.264c0,10.108,6.334,16.065,6.738,25.405
		c-1.603,8.248-6.697,14.392-7.398,23.181c-0.621,7.769-0.4,15.589-0.071,23.392l11.917-11.92
		C74.731,178.982,79.032,177.205,83.605,177.205z"/>
	<path d="M192.061,51.195c0.418,0.204,0.835,0.408,1.25,0.62C192.896,51.603,192.479,51.399,192.061,51.195z"/>
	<path d="M238.207,111.166c-0.086-0.494-0.218-0.948-0.371-1.379c0.137,1.197,0.244,2.399,0.326,3.606
		C238.178,112.652,238.187,111.904,238.207,111.166z"/>
	<path d="M131.511,48.747c0.504-0.197,1.009-0.389,1.517-0.575C132.521,48.357,132.015,48.55,131.511,48.747z"/>
	<path d="M177.505,45.872c0.43,0.108,0.855,0.228,1.283,0.344C178.362,46.1,177.935,45.98,177.505,45.872z"/>
	<path d="M125.082,51.607c-0.525,0.264-1.044,0.541-1.564,0.818C124.038,52.148,124.557,51.871,125.082,51.607z"/>
	<path d="M119.985,54.422c-0.834,0.504-1.661,1.025-2.479,1.565C118.324,55.447,119.151,54.927,119.985,54.422z"/>
	<path d="M143.762,45.128c-0.435,0.089-0.87,0.177-1.304,0.274c0.438-0.098,0.879-0.184,1.318-0.274
		C143.773,45.128,143.767,45.128,143.762,45.128z"/>
	<path d="M135.75,47.236c-0.514,0.166-1.026,0.336-1.537,0.513C134.724,47.572,135.237,47.401,135.75,47.236z"/>
	<path d="M83.737,181.21c-0.044,0-0.088-0.006-0.132-0.006c-0.074,0-0.148,0.01-0.222,0.01
		C83.5,181.212,83.619,181.208,83.737,181.21z"/>
	<path d="M122.512,52.962c-0.569,0.315-1.132,0.646-1.695,0.976C121.379,53.607,121.942,53.277,122.512,52.962z"/>
	<path d="M79.175,247.287c-20.687-31.834,26.685-32.293,43.801-32.414c34.811-0.242,69.636,0.364,104.447,0.068
		c3.33-3.41,5.298-8.181,9.435-10.781c2.534-23.85,1.2-51.574,1.183-77.979c-1.656,18.488-9.64,35.639-22.918,48.895
		c-2.682,2.682-5.527,5.139-8.506,7.381c7.139,0.584,12.288,1.703,12.709,3.725v0.013c0.012,0.081,0.025,0.175,0.025,0.271
		c0,0.056,0,0.106-0.014,0.177c-0.392,0.024-0.781,0.052-1.158,0.08c-1.146,0.079-2.211,0.161-3.223,0.216
		c-0.539,0.041-1.052,0.066-1.552,0.093c-0.12,0.028-0.254,0.028-0.375,0.028c-0.595,0.041-1.174,0.08-1.768,0.093
		c-4.151,0.241-8.361,0.421-12.604,0.57c-11.938,6.911-25.527,10.612-39.691,10.612c-13.943,0-27.515-3.67-39.427-10.488
		c-5.526-0.037-11.033-0.057-16.506-0.04l-2.714,2.714c1.306,5.701-0.37,11.729-4.59,15.943l-36.672,36.69
		c0.369,8.326,1.729,16.281,5.293,23.002c14.42,9.259,35.283,11.646,39.083-10.78C91.911,256.113,82.8,254.442,79.175,247.287z"/>
	<path d="M270.548,229.764c-3.101-2.735-6.846-4.839-9.435-8.087c-45.038-2.022-97.932-2.25-144.225-0.512
		c4.526-0.215,8.823-0.432,9.847-0.483c-1.081,0.043-6.294,0.278-18.665,0.846c-0.122,0.005-0.245,0.011-0.366,0.015
		c-0.969,0.041-1.941,0.097-2.911,0.137c0.565,0,4.5-0.172,8.912-0.374c0.112-0.005,0.224-0.011,0.336-0.015
		c-4.546,0.211-8.669,0.391-9.249,0.391c1.765,0.025,1.213,2.357,2.682,2.693c1.227,11.308,4.272,24.488-0.377,35.404
		c-1.254,2.95-7.911,11.092-5.014,14.461c29.017,0,58.019,0,87.037-0.003c20.862,0,61.726,7.927,78.732-6.737
		C274.58,260.344,274.984,240.087,270.548,229.764z"/>
	<path d="M102.276,224.958c0-0.002,0-0.002,0-0.004c0-0.055-0.015-0.121-0.054-0.176c-0.027-0.123-0.081-0.257-0.135-0.404
		c-0.202-0.177-0.404-0.35-0.593-0.514c-0.013-0.025-0.027-0.039-0.04-0.039c-0.002-0.002-0.005-0.004-0.008-0.006
		c-5.854-5.143-6.125-4.604-4.711-2.799c-10.094-3.719-17.102,8.814-15.067,19.785c1.968,10.728,12.601,9.166,21.766,9.179
		C103.016,241.681,104.484,231.496,102.276,224.958z M96.737,221.019L96.737,221.019c0.292,0.371,0.659,0.797,1.059,1.234
		C97.395,221.816,97.028,221.39,96.737,221.019z"/>
	<path fill="none" d="M39.592,44.455c-0.134,0.067-0.256,0.148-0.377,0.243"/>
	<path d="M54.916,65.344c0-7.183,0-14.38,0-21.564c-4.555,0.782-11.982-1.307-15.324,0.674c1.441-0.758,2.868,0.305,2.786,0.956
		c0.082-0.651-1.346-1.713-2.786-0.955c-0.134,0.067-0.256,0.148-0.377,0.243c-0.014,0-0.014,0-0.014,0.013
		c-0.161,0.121-0.323,0.255-0.457,0.417c0,0,0,0-0.001,0l0,0l0,0c0.003,0.001,0.006,0.002,0.009,0.003
		c6.579,2.664,3.925,15.322,1.338,20.212C42.854,67.433,52.153,67.433,54.916,65.344z"/>
	<path d="M38.743,45.128c0.135-0.162,0.297-0.297,0.458-0.418C39.053,44.818,38.891,44.966,38.743,45.128z"/>
	<path d="M37.532,59.899c5.216-9.797-7.332-11.59-6.874-20.162c5.666-2.853,16.386-0.667,24.226-1.346
		c0.011-0.001,0.021,0,0.032-0.001c0,0,0,0,0-0.001c0,0,0,0,0.001,0c0,0,0,0-0.001,0c0.054-0.417,0.109-0.822,0.135-1.185
		c0.013,0,0-0.014,0-0.014c0.013-0.162,0.027-0.31,0.04-0.458c0.513-6.845-2.942-3.708-3.266-0.929
		c0.323-2.779,3.78-5.917,3.267,0.929c1.725-19.408-13.14-34.623-32.924-25.809C7.612,17.419,7.531,51.731,14.486,63.996
		C21.427,68.282,33.273,67.904,37.532,59.899z"/>
	<path d="M111.407,60.471c1.973-1.609,4.009-3.104,6.099-4.483C115.417,57.367,113.38,58.861,111.407,60.471z"/>
	<path d="M127.691,50.358c-0.508,0.231-1.013,0.474-1.517,0.718C126.678,50.832,127.183,50.589,127.691,50.358z"/>
	<path d="M130.342,49.212c-0.505,0.208-1.008,0.423-1.509,0.642C129.334,49.635,129.837,49.419,130.342,49.212z"/>
	<path d="M138.509,46.404c-0.524,0.147-1.047,0.297-1.568,0.456C137.462,46.701,137.985,46.551,138.509,46.404z"/>
	<path d="M187.634,49.21c-0.432-0.177-0.864-0.351-1.299-0.52C186.77,48.86,187.205,49.034,187.634,49.21z"/>
	<path d="M190.496,50.452c-0.426-0.195-0.853-0.385-1.279-0.572C189.643,50.066,190.07,50.256,190.496,50.452z"/>
	<path d="M184.73,48.091c-0.436-0.158-0.871-0.314-1.309-0.464C183.859,47.776,184.294,47.933,184.73,48.091z"/>
	<path d="M141.309,45.675c-0.541,0.13-1.081,0.261-1.62,0.403C140.228,45.936,140.768,45.805,141.309,45.675z"/>
	<path d="M172.96,67.379c0.15,0.014,0.299,0.027,0.461,0.025c0.039,0,0.08,0,0.121,0.014c1.563,0.108,3.477,0.27,5.819,0.526
		c0.298,0.027,0.595,0.067,0.892,0.094c0,0.04-0.015,0.081-0.027,0.121c-0.191,1.2-2.145,1.564-4.462,1.497
		c-8.917,1.512-29.69,2.376-49.021,2.452c-2.818,1.948-5.488,4.152-7.961,6.626c-9.246,9.251-14.621,20.923-16.155,32.993
		c0.526,0.268,0.988,0.587,1.333,0.989c0.457-0.364,0.902,0.014,0.822,2.291c0,0.067,0,0.135,0,0.202
		c-0.242,0.162-0.445,0.283-0.633,0.351c-0.014,0.013-0.027,0.013-0.041,0.026c-0.565,0.283-1.202,0.494-1.889,0.656
		c-0.684,14.43,4.089,29.066,14.305,40.53c5.556-0.024,10.905,0.159,15.696,0.903c0.015-0.012,0.042-0.012,0.055,0
		c0.889,0.106,2.048,0.322,3.504,0.66c-0.095,1.131-0.877,1.563-1.847,1.59c-2.407,0.955-6.961,1.551-12.332,1.867
		c10.357,9.067,23.487,14.033,37.392,14.033c14.25,0,27.696-5.201,38.172-14.703c-1.023-0.053-1.768-0.09-2.086-0.09
		c-2.572,0-13.541,0.653-24.674,0.915c-5.896,1.888-12.146,2.671-18.424,2.234c-0.584-0.054-1.15-0.228-1.664-0.522
		c-0.486-0.271-0.939-0.652-1.297-1.132c-0.266-0.323-0.404-0.717-0.557-1.108c-2.661-0.369-4.369-0.926-4.6-1.735
		c-0.215-1.563,0.299-2.397,1.348-2.695c1.265,0.048,2.539,0.082,3.82,0.111c0.829-1.208,2.256-1.948,3.809-1.806
		c11.41,0.791,22.736-3.385,30.918-11.574c9.174-9.161,13.15-22.06,11.105-34.503c-0.271-1.64-0.617-3.26-1.097-4.874
		c-0.035-0.126-0.019-0.24-0.054-0.365c-0.399-1.963,0.566-3.973,2.455-4.73c0.189-0.083,0.436-0.169,0.662-0.209
		c1.025-0.427,2.229-0.393,3.237,0.091c1.026,0.469,1.812,1.362,2.159,2.441c1.279,4.261,1.947,8.616,2.063,12.97
		c0.271,13.029-4.709,25.898-14.266,35.462c-2.633,2.636-5.535,4.92-8.631,6.853c6.77-0.101,13.477-0.136,19.941,0.067
		c9.383-10.439,14.52-23.8,14.52-37.962c0-15.203-5.912-29.489-16.65-40.228C188.47,68,174.188,62.09,158.992,62.09
		c-7.701,0-15.164,1.524-22.052,4.418C149.341,66.403,161.539,66.504,172.96,67.379z M154.646,115.209
		c-0.512,0.148-0.968,0.256-1.387,0.337c-0.039,0.027-0.068,0.027-0.108,0.027c-10.864,2.453-26.416,0.202-38.936,0.984
		c-0.714-1.078-1.402-2.184-1.348-4.043c3.331-2.197,31.804-3.854,39.731,0.148c1.118-0.229,2.144,0.282,2.048,2.439
		C154.66,115.142,154.646,115.169,154.646,115.209z"/>
	<path d="M95.787,189.394l13.631-13.631c0.905,0.792,1.826,1.557,2.76,2.297c0.316,0.252,0.642,0.484,0.962,0.729
		c0.623,0.479,1.245,0.961,1.879,1.418c0.388,0.278,0.785,0.539,1.177,0.81c0.578,0.399,1.153,0.803,1.74,1.185
		c0.426,0.276,0.861,0.536,1.292,0.805c0.563,0.35,1.124,0.703,1.693,1.037c0.453,0.265,0.912,0.513,1.369,0.768
		c0.559,0.313,1.117,0.626,1.682,0.923c0.471,0.247,0.948,0.479,1.423,0.715c0.56,0.279,1.12,0.56,1.686,0.823
		c0.486,0.229,0.978,0.439,1.469,0.656c0.563,0.248,1.126,0.496,1.694,0.73c0.499,0.204,1.001,0.396,1.503,0.592
		c0.568,0.22,1.136,0.438,1.708,0.644c0.509,0.183,1.02,0.354,1.531,0.524c0.573,0.191,1.147,0.381,1.724,0.559
		c0.516,0.159,1.034,0.309,1.553,0.456c0.579,0.165,1.159,0.325,1.741,0.476c0.521,0.137,1.044,0.264,1.567,0.387
		c0.584,0.139,1.171,0.271,1.757,0.395c0.526,0.111,1.055,0.217,1.582,0.316c0.588,0.109,1.178,0.214,1.768,0.311
		c0.529,0.088,1.062,0.171,1.593,0.246c0.593,0.085,1.187,0.16,1.78,0.23c0.531,0.063,1.063,0.123,1.596,0.174
		c0.598,0.059,1.195,0.104,1.795,0.148c0.53,0.039,1.061,0.077,1.592,0.104c0.604,0.03,1.207,0.05,1.811,0.065
		c0.527,0.016,1.057,0.031,1.585,0.035c0.551,0.004,1.102-0.007,1.651-0.015c0.644-0.011,1.284-0.021,1.926-0.046
		c0.545-0.022,1.088-0.057,1.632-0.09c0.637-0.039,1.272-0.082,1.907-0.138c0.549-0.047,1.095-0.104,1.641-0.165
		c0.631-0.068,1.261-0.142,1.891-0.227c0.547-0.073,1.092-0.155,1.639-0.241c0.623-0.099,1.248-0.202,1.871-0.315
		c0.545-0.1,1.09-0.205,1.635-0.317c0.619-0.127,1.236-0.263,1.854-0.405c0.543-0.126,1.083-0.256,1.622-0.395
		c0.614-0.156,1.226-0.322,1.835-0.495c0.538-0.151,1.074-0.308,1.608-0.47c0.606-0.188,1.211-0.385,1.813-0.586
		c0.529-0.178,1.061-0.355,1.588-0.547c0.6-0.215,1.194-0.443,1.791-0.675c0.521-0.203,1.045-0.405,1.563-0.622
		c0.593-0.244,1.181-0.506,1.769-0.768c0.512-0.229,1.024-0.454,1.532-0.694c0.587-0.276,1.167-0.569,1.748-0.862
		c0.499-0.252,1-0.5,1.494-0.765c0.58-0.31,1.153-0.638,1.728-0.963c0.484-0.274,0.972-0.544,1.451-0.83
		c0.575-0.345,1.143-0.709,1.711-1.069c0.465-0.296,0.934-0.582,1.394-0.89c0.577-0.384,1.144-0.791,1.712-1.192
		c0.438-0.311,0.881-0.609,1.314-0.931c0.588-0.437,1.164-0.896,1.742-1.351c0.399-0.313,0.805-0.615,1.199-0.938
		c0.634-0.521,1.253-1.065,1.874-1.608c0.324-0.283,0.657-0.555,0.978-0.845c0.936-0.846,1.854-1.718,2.756-2.618
		c29.438-29.392,29.438-77.171,0.018-106.604c-1.84-1.839-3.751-3.563-5.725-5.173c-0.834-0.68-1.682-1.337-2.536-1.977
		c-0.286-0.213-0.579-0.414-0.867-0.623c-0.574-0.416-1.147-0.833-1.731-1.23c-0.351-0.239-0.707-0.465-1.062-0.698
		c-0.531-0.349-1.062-0.699-1.599-1.034c-0.381-0.237-0.769-0.462-1.151-0.692c-0.521-0.31-1.038-0.62-1.563-0.916
		c-0.4-0.227-0.808-0.444-1.211-0.663c-0.518-0.279-1.035-0.557-1.557-0.823c-0.415-0.212-0.832-0.416-1.25-0.62
		c-0.521-0.253-1.041-0.502-1.564-0.743c-0.427-0.195-0.854-0.385-1.281-0.572c-0.523-0.229-1.051-0.452-1.579-0.669
		c-0.433-0.177-0.865-0.351-1.3-0.52c-0.533-0.207-1.068-0.406-1.605-0.6c-0.436-0.158-0.871-0.314-1.309-0.464
		c-0.545-0.186-1.092-0.361-1.639-0.534c-0.436-0.137-0.869-0.276-1.306-0.405c-0.562-0.166-1.125-0.319-1.688-0.472
		c-0.428-0.116-0.854-0.236-1.283-0.344c-0.59-0.148-1.182-0.282-1.773-0.416c-0.382-0.086-0.762-0.179-1.145-0.259
		c-0.024-0.005-0.051-0.012-0.075-0.017c-0.651-0.136-1.306-0.254-1.962-0.373c-0.352-0.064-0.701-0.137-1.053-0.196
		c-0.961-0.161-1.924-0.302-2.888-0.425c-0.091-0.011-0.182-0.023-0.272-0.034c-0.967-0.12-1.935-0.222-2.903-0.304
		c-0.354-0.03-0.71-0.046-1.063-0.071c-0.664-0.047-1.326-0.095-1.99-0.125c-0.412-0.019-0.826-0.023-1.24-0.035
		c-0.605-0.017-1.211-0.035-1.816-0.038c-0.57-0.002-1.141,0.007-1.711,0.018c-0.361,0.006-0.726,0.007-1.089,0.019
		c-0.649,0.021-1.301,0.058-1.95,0.096c-0.293,0.017-0.586,0.027-0.878,0.047c-1.888,0.132-3.772,0.334-5.647,0.608
		c-0.297,0.043-0.592,0.097-0.887,0.144c-0.64,0.101-1.279,0.203-1.916,0.32c-0.358,0.066-0.716,0.143-1.074,0.214
		c-0.131,0.026-0.262,0.055-0.393,0.082c-0.439,0.09-0.881,0.176-1.318,0.274c-0.384,0.086-0.768,0.181-1.15,0.273
		c-0.541,0.13-1.081,0.261-1.62,0.403c-0.394,0.104-0.787,0.215-1.18,0.326c-0.524,0.147-1.047,0.297-1.568,0.456
		c-0.398,0.121-0.794,0.248-1.19,0.376c-0.514,0.166-1.026,0.336-1.537,0.513c-0.396,0.138-0.792,0.279-1.186,0.423
		c-0.507,0.186-1.013,0.378-1.517,0.575c-0.391,0.152-0.781,0.306-1.169,0.465c-0.505,0.208-1.008,0.423-1.509,0.642
		c-0.381,0.166-0.763,0.332-1.142,0.504c-0.508,0.231-1.013,0.474-1.517,0.718c-0.364,0.176-0.73,0.349-1.092,0.531
		c-0.525,0.264-1.044,0.541-1.564,0.818c-0.335,0.179-0.673,0.353-1.006,0.537c-0.569,0.315-1.132,0.646-1.695,0.976
		c-0.277,0.163-0.557,0.318-0.832,0.484c-0.834,0.504-1.661,1.025-2.479,1.565c-2.09,1.379-4.126,2.874-6.099,4.483
		c-1.974,1.609-3.884,3.333-5.723,5.173c-28.211,28.211-29.381,73.284-3.504,102.896l-13.63,13.631
		c-0.356-0.146-0.719-0.27-1.084-0.381c-0.108-0.033-0.218-0.063-0.327-0.093c-0.271-0.075-0.542-0.144-0.816-0.2
		c-0.112-0.022-0.225-0.049-0.337-0.068c-0.362-0.066-0.725-0.122-1.09-0.158c-0.019-0.002-0.038-0.004-0.057-0.006
		c-0.366-0.034-0.733-0.049-1.101-0.053c-0.118-0.002-0.236,0.002-0.354,0.004c-0.272,0.006-0.544,0.019-0.815,0.039
		c-0.119,0.01-0.237,0.018-0.355,0.029c-0.361,0.038-0.721,0.088-1.078,0.155c-0.024,0.005-0.047,0.01-0.072,0.015
		c-0.359,0.069-0.715,0.159-1.068,0.26c-0.115,0.033-0.228,0.07-0.342,0.105c-0.262,0.083-0.522,0.174-0.78,0.271
		c-0.111,0.043-0.223,0.086-0.333,0.132c-0.344,0.144-0.685,0.298-1.018,0.472c-0.015,0.008-0.03,0.016-0.045,0.021
		c-0.334,0.178-0.661,0.373-0.982,0.58c-0.1,0.064-0.198,0.134-0.296,0.201c-0.238,0.161-0.471,0.332-0.7,0.512
		c-0.094,0.074-0.189,0.146-0.282,0.225c-0.307,0.255-0.608,0.521-0.896,0.809l-51.376,51.391c-5.127,5.1-5.127,13.457,0,18.593
		c0.642,0.64,1.334,1.199,2.063,1.679c2.188,1.439,4.713,2.159,7.237,2.159c0.841,0,1.683-0.08,2.512-0.239
		c2.486-0.479,4.858-1.68,6.779-3.599l51.366-51.392C96.752,199.789,97.714,194.166,95.787,189.394z M158.994,55.694
		c16.903,0,32.793,6.576,44.735,18.516c11.944,11.947,18.522,27.839,18.522,44.75s-6.578,32.799-18.522,44.738
		c-11.944,11.943-27.833,18.522-44.735,18.522c-16.905,0-32.792-6.579-44.733-18.524c-24.663-24.667-24.663-64.809,0-89.485
		C126.202,62.27,142.088,55.694,158.994,55.694z"/>
</g>
</svg>
