<?xml version="1.0" encoding="utf-8"?>
<!-- Generator: Adobe Illustrator 15.1.0, SVG Export Plug-In . SVG Version: 6.00 Build 0)  -->
<!DOCTYPE svg PUBLIC "-//W3C//DTD SVG 1.1//EN" "http://www.w3.org/Graphics/SVG/1.1/DTD/svg11.dtd">
<svg version="1.1" id="Layer_1" xmlns="http://www.w3.org/2000/svg" xmlns:xlink="http://www.w3.org/1999/xlink" x="0px" y="0px"
	 width="30px" height="30px" viewBox="0 0 30 30" enable-background="new 0 0 30 30" xml:space="preserve">
<path fill-rule="evenodd" clip-rule="evenodd" d="M21.055,5.462L6.717,19.799c-0.532,0.532-0.798,1.229-0.798,1.927
	s0.266,1.394,0.798,1.926h0c0.532,0.532,1.229,0.798,1.926,0.798s1.394-0.266,1.926-0.798L24.847,9.375
	c0.417-0.417,0.743-0.909,0.965-1.443c0.222-0.535,0.339-1.113,0.339-1.703c0-0.59-0.117-1.168-0.339-1.703
	C25.59,3.991,25.264,3.5,24.847,3.082l-0.004-0.004c-0.417-0.417-0.909-0.743-1.443-0.965c-0.535-0.221-1.113-0.338-1.703-0.338
	s-1.168,0.117-1.703,0.338c-0.534,0.222-1.026,0.547-1.443,0.965L4.041,17.587c-1.217,1.217-1.825,2.812-1.825,4.406
	c0,1.596,0.608,3.19,1.825,4.407l0.002,0.003c1.217,1.217,2.812,1.825,4.407,1.825c1.595,0,3.19-0.608,4.407-1.825l14.569-14.569
	c0.353-0.353,0.353-0.925,0-1.278c-0.353-0.353-0.926-0.353-1.278,0L11.579,25.125c-0.864,0.864-1.996,1.296-3.129,1.296
	c-1.132,0-2.265-0.432-3.128-1.296l-0.002-0.003c-0.864-0.863-1.296-1.996-1.296-3.129c0-1.132,0.432-2.265,1.296-3.128
	L19.828,4.356c0.247-0.248,0.539-0.441,0.856-0.572c0.318-0.132,0.661-0.201,1.012-0.201s0.693,0.069,1.011,0.201
	c0.317,0.131,0.609,0.325,0.857,0.572l0.004,0.004c0.248,0.248,0.441,0.54,0.573,0.857c0.131,0.318,0.201,0.661,0.201,1.011
	c0,0.351-0.07,0.694-0.201,1.011c-0.132,0.317-0.325,0.609-0.573,0.857L9.292,22.374c-0.179,0.179-0.414,0.268-0.648,0.268
	s-0.469-0.089-0.648-0.268l0-0.001c-0.179-0.179-0.269-0.413-0.269-0.647s0.09-0.47,0.269-0.648L22.333,6.74
	c0.353-0.353,0.353-0.925,0-1.278C21.98,5.109,21.407,5.109,21.055,5.462z"/>
</svg>
