<?xml version="1.0" encoding="utf-8"?>
<!-- Generator: Adobe Illustrator 15.1.0, SVG Export Plug-In . SVG Version: 6.00 Build 0)  -->
<!DOCTYPE svg PUBLIC "-//W3C//DTD SVG 1.1//EN" "http://www.w3.org/Graphics/SVG/1.1/DTD/svg11.dtd">
<svg version="1.1" id="Layer_1" xmlns="http://www.w3.org/2000/svg" xmlns:xlink="http://www.w3.org/1999/xlink" x="0px" y="0px"
	 width="283.465px" height="283.465px" viewBox="0 0 283.465 283.465" enable-background="new 0 0 283.465 283.465"
	 xml:space="preserve">
<path d="M203.842,44.62L57.886,190.566c-5.413,5.418-8.122,12.506-8.122,19.624c0,7.099,2.709,14.187,8.122,19.604l0,0
	c5.417,5.408,12.511,8.123,19.609,8.123c7.093,0,14.191-2.715,19.604-8.123l145.354-145.34c4.235-4.245,7.557-9.255,9.821-14.688
	c2.257-5.447,3.44-11.333,3.44-17.338c0-6.004-1.185-11.89-3.44-17.337c-2.266-5.442-5.586-10.442-9.821-14.697l-0.049-0.04
	c-4.245-4.245-9.256-7.565-14.685-9.827c-5.446-2.247-11.332-3.44-17.337-3.44s-11.891,1.193-17.337,3.44
	c-5.438,2.261-10.448,5.572-14.693,9.827L30.647,168.049c-12.387,12.396-18.58,28.62-18.58,44.855
	c0,16.243,6.193,32.477,18.58,44.864l0.02,0.02c12.387,12.396,28.625,18.59,44.865,18.59c16.234,0,32.472-6.192,44.859-18.59
	l148.307-148.302c3.601-3.594,3.601-9.415,0-13.008c-3.598-3.595-9.424-3.595-13.002,0L107.383,244.786
	c-8.798,8.787-20.32,13.191-31.852,13.191c-11.527,0-23.059-4.404-31.847-13.191l-0.02-0.03
	c-8.793-8.788-13.192-20.318-13.192-31.851c0-11.522,4.399-23.055,13.192-31.843L191.355,33.361c2.516-2.525,5.487-4.488,8.709-5.82
	c3.24-1.347,6.74-2.048,10.299-2.048c3.579,0,7.059,0.701,10.299,2.048c3.222,1.332,6.203,3.306,8.729,5.82l0.04,0.04
	c2.525,2.524,4.484,5.498,5.826,8.724c1.332,3.241,2.047,6.73,2.047,10.294c0,3.574-0.715,7.063-2.047,10.29
	c-1.342,3.23-3.302,6.203-5.826,8.729L84.101,216.781c-1.824,1.819-4.215,2.734-6.596,2.734s-4.777-0.915-6.596-2.734v-0.01
	c-1.824-1.829-2.738-4.205-2.738-6.581c0-2.388,0.914-4.792,2.738-6.602L216.854,57.627c3.589-3.588,3.589-9.414,0-13.007
	C213.266,41.026,207.431,41.026,203.842,44.62z"/>
</svg>
