<?xml version="1.0" encoding="utf-8"?>
<!-- Generator: Adobe Illustrator 15.1.0, SVG Export Plug-In . SVG Version: 6.00 Build 0)  -->
<!DOCTYPE svg PUBLIC "-//W3C//DTD SVG 1.1//EN" "http://www.w3.org/Graphics/SVG/1.1/DTD/svg11.dtd">
<svg version="1.1" id="Layer_1" xmlns="http://www.w3.org/2000/svg" xmlns:xlink="http://www.w3.org/1999/xlink" x="0px" y="0px"
	 width="283.465px" height="283.465px" viewBox="0 0 283.465 283.465" enable-background="new 0 0 283.465 283.465"
	 xml:space="preserve">
<path fill-rule="evenodd" clip-rule="evenodd" d="M147.057,138.269c8.15,0,14.381-0.73,18.687-2.191
	c4.307-1.462,7.268-3.73,8.883-6.807c1.615-3.076,2.422-7.305,2.422-12.689c0-5.229-0.923-9.343-2.769-12.342
	c-1.845-2.999-5.074-5.19-9.689-6.575c-4.614-1.384-11.073-2.076-19.379-2.076h-22.839v42.68H147.057z M145.673,69.751
	c21.686,0,37.181,3.767,46.486,11.304c9.305,7.536,13.957,19.533,13.957,35.989c0,11.382-1.845,20.456-5.536,27.225
	c-3.691,6.766-9.768,11.727-18.226,14.88c-8.46,3.153-19.917,4.729-34.375,4.729h-25.608v49.832H93.534V69.751H145.673z
	 M141.676,40.746c55.734,0,100.984,45.249,100.984,100.984c0,55.735-45.25,100.985-100.984,100.985
	c-55.735,0-100.984-45.25-100.984-100.985C40.691,85.995,85.94,40.746,141.676,40.746z M141.676,7.084
	c74.313,0,134.646,60.333,134.646,134.646c0,74.313-60.333,134.646-134.646,134.646c-74.313,0-134.646-60.333-134.646-134.646
	C7.03,67.417,67.362,7.084,141.676,7.084z"/>
</svg>
