<?xml version="1.0" encoding="utf-8"?>
<!-- Generator: Adobe Illustrator 15.1.0, SVG Export Plug-In . SVG Version: 6.00 Build 0)  -->
<!DOCTYPE svg PUBLIC "-//W3C//DTD SVG 1.1//EN" "http://www.w3.org/Graphics/SVG/1.1/DTD/svg11.dtd">
<svg version="1.1" id="Layer_4" xmlns="http://www.w3.org/2000/svg" xmlns:xlink="http://www.w3.org/1999/xlink" x="0px" y="0px"
	 width="283.465px" height="283.465px" viewBox="0.108 0.228 283.465 283.465" enable-background="new 0.108 0.228 283.465 283.465"
	 xml:space="preserve">
<g>
	<path d="M141.841,7.313C67.527,7.313,7.194,67.647,7.195,141.96c0,74.314,60.333,134.646,134.646,134.646
		c74.313,0,134.645-60.334,134.645-134.646C276.486,67.646,216.154,7.313,141.841,7.313z M141.841,242.944
		c-55.735,0-100.984-45.25-100.984-100.984C40.856,86.226,86.105,40.976,141.841,40.976c55.734,0,100.983,45.25,100.983,100.984
		S197.575,242.944,141.841,242.944z"/>
	<path d="M192.324,81.286c-9.307-7.537-24.802-11.305-46.486-11.305H93.698V213.94h28.84v-49.832h25.606
		c14.458,0,25.915-1.575,34.375-4.729c8.458-3.151,14.535-8.112,18.228-14.88c3.688-6.77,5.534-15.844,5.534-27.226
		C206.281,100.818,201.629,88.821,192.324,81.286z M174.792,129.502c-1.615,3.077-4.576,5.345-8.883,6.807
		c-4.308,1.461-10.537,2.191-18.688,2.191h-24.685V95.819h22.84c8.306,0,14.765,0.692,19.379,2.076
		c4.615,1.385,7.844,3.576,9.688,6.575c1.848,3,2.771,7.114,2.771,12.343C177.214,122.196,176.407,126.426,174.792,129.502z"/>
</g>
</svg>
