<?xml version="1.0" encoding="utf-8"?>
<!-- Generator: Adobe Illustrator 15.1.0, SVG Export Plug-In . SVG Version: 6.00 Build 0)  -->
<!DOCTYPE svg PUBLIC "-//W3C//DTD SVG 1.1//EN" "http://www.w3.org/Graphics/SVG/1.1/DTD/svg11.dtd">
<svg version="1.1" id="Layer_1" xmlns="http://www.w3.org/2000/svg" xmlns:xlink="http://www.w3.org/1999/xlink" x="0px" y="0px"
	 width="283.68px" height="283.92px" viewBox="0 0 283.68 283.92" enable-background="new 0 0 283.68 283.92" xml:space="preserve">
<path fill-rule="evenodd" clip-rule="evenodd" d="M147.222,138.5c8.15,0,14.381-0.73,18.687-2.191
	c4.307-1.462,7.268-3.73,8.883-6.807c1.615-3.076,2.422-7.305,2.422-12.688c0-5.229-0.923-9.343-2.769-12.343
	c-1.845-2.999-5.074-5.19-9.689-6.575c-4.614-1.384-11.073-2.076-19.379-2.076h-22.84v42.68H147.222z M145.838,69.982
	c21.686,0,37.181,3.767,46.486,11.304c9.305,7.536,13.957,19.533,13.957,35.989c0,11.382-1.846,20.456-5.536,27.225
	c-3.691,6.766-9.768,11.727-18.226,14.88c-8.46,3.153-19.917,4.729-34.375,4.729h-25.608v49.832H93.698V69.982H145.838z
	 M141.841,40.976c55.734,0,100.983,45.25,100.983,100.984c0,55.735-45.249,100.984-100.983,100.984
	c-55.735,0-100.984-45.249-100.984-100.984C40.856,86.226,86.105,40.976,141.841,40.976z M141.841,7.314
	c74.313,0,134.645,60.333,134.645,134.646c0,74.313-60.332,134.646-134.645,134.646c-74.313,0-134.646-60.332-134.646-134.646
	C7.194,67.648,67.527,7.314,141.841,7.314z"/>
</svg>
