<?xml version="1.0" encoding="utf-8"?>
<!-- Generator: Adobe Illustrator 15.1.0, SVG Export Plug-In . SVG Version: 6.00 Build 0)  -->
<!DOCTYPE svg PUBLIC "-//W3C//DTD SVG 1.0//EN" "http://www.w3.org/TR/2001/REC-SVG-20010904/DTD/svg10.dtd">
<svg version="1.0" id="Layer_1" xmlns="http://www.w3.org/2000/svg" xmlns:xlink="http://www.w3.org/1999/xlink" x="0px" y="0px"
	 width="283.465px" height="283.465px" viewBox="-126.732 -126.732 283.465 283.465"
	 enable-background="new -126.732 -126.732 283.465 283.465" xml:space="preserve">
<path d="M-32.17-51.201c-1.116-0.15-3.463,0.236-5.588,0.755c-2.112,0.518-4.019,1.169-4.265,1.543
	C-38.783-49.656-35.471-50.422-32.17-51.201z M-31.096-48.817c0.989,0.048,1.967,0.162,2.95,0.144
	c3.205-0.048,6.403-0.06,9.594-0.254c1.297-0.09,2.631-0.494,3.856-1.001c1.345-0.555,2.57-1.399,3.988-2.19
	c-0.175-0.814-0.989-1.158-1.991-1.085c-2.516,0.187-5.038,0.368-7.548,0.682c-1.521,0.168-3.017,0.555-4.525,0.839
	c0,0.084,0.018,0.174,0.03,0.258h10.263c-0.898,1.298-2.052,1.653-3.271,1.756C-22.214-49.385-26.662-49.113-31.096-48.817z
	 M-54.882-44.998c-0.573-2.191-4.911-6.909-5.895-6.873c0.405,1.05,0.779,2.088,1.901,2.667c0.386,0.199,0.519,0.856,0.791,1.303
	c0.126,0.193,0.308,0.495,0.47,0.495c1.333-0.055,1.84,0.851,2.299,1.876C-55.231-45.329-55.021-45.173-54.882-44.998z
	 M-55.949-49.192c0.73,0.881,1.399,1.612,1.979,2.415c0.814,1.146,2.419,2.064,1.285,3.94c0.669-0.591,1.333-1.201,2.003-1.78
	C-53.132-47.955-54.441-49.125-55.949-49.192z M-63.202-41.021c-0.344-1.37-0.531-2.806-0.826-4.188
	c-0.296-1.394-0.707-2.757-1.497-4.006C-65.501-46.271-64.904-43.478-63.202-41.021z M-49.138-44.304l-0.374-0.446
	c-2.322,1.025-3.693,3.089-5.297,4.881c0.096,0.108,0.199,0.223,0.283,0.32C-52.733-41.13-50.93-42.711-49.138-44.304z
	 M-58.876-43.121c-0.26,0.271-0.766,0.591-0.718,0.79c0.259,1.165-0.664,1.496-1.297,1.919c-0.838,0.567-1.816,0.935-2.468,1.249
	c-0.398-0.241-0.634-0.482-0.754-0.434c-1.696,0.651-3.114,0.12-4.115-1.201c-0.941-1.237-1.581-2.679-2.312-3.952
	c-0.398,0.754-0.271,1.593,0.048,2.739c0.707,2.426,2.275,3.609,4.507,4.055c2.377,0.482,4.538-0.458,6.39-1.755
	c0.827-0.591,1.104-1.974,1.593-3.023c0.03-0.054-0.283-0.26-0.428-0.41c0.603-3.337-1.063-6.909-3.289-6.873
	c0.296,0.446,0.483,1.091,0.839,1.225c2.015,0.706,1.768,2.475,2.003,4.007C-58.803-44.244-58.876-43.676-58.876-43.121
	L-58.876-43.121z M-44.787-37.087c-0.163-1.304,0.58-3.253,1.581-4.912c1.002-1.665,2.274-3.046,3.15-3.21
	C-41.625-42.518-43.206-39.796-44.787-37.087z M-34.149-47.695c-2.806,0.73-5.696,1.152-8.417,2.1
	c-1.726,0.609-3.271,1.857-4.767,2.992c-1.852,1.4-3.584,2.969-5.364,4.465l0.248,0.308c2.781-1.743,5.551-3.488,8.526-5.352
	c-0.791,1.84-1.521,3.385-2.124,4.954c-0.32,0.826-0.386,1.78,0.73,2.076c0.911,0.258,1.604-0.073,2.1-1.063
	c1.134-2.323,2.655-4.471,3.584-6.86c0.639-1.641,1.9-1.816,3.15-2.232c1.593-0.531,3.21-0.978,4.809-1.472
	c0.52-0.163,0.923-0.411,0.567-1.014l-0.037-0.06L-34.149-47.695z M-77.152-36.943c-0.803,0.139-1.497,0.248-2.324,0.387
	c1.298,1.418,2.499,2.716,3.681,4.012C-75.818-34.233-78.015-35-77.152-36.943z M-6.604-36.919c-1.322,1.25-2.419,2.239-3.458,3.277
	c-0.224,0.223-0.337,0.682-0.29,0.989c0.031,0.157,0.538,0.344,0.821,0.344c3.542-0.097,7.089-0.223,10.638-0.344
	c4.978-0.199,9.962-0.422,14.938-0.609c0.26-0.013,0.532,0.09,0.979,0.162c-1.002,0.929-1.895,1.696-2.71,2.534
	c-0.495,0.52-0.85,1.147-1.273,1.732c0.833,0.181,1.672,0.555,2.486,0.519c8.267-0.446,16.521-0.954,24.787-1.448
	c1.701-0.096,3.367-0.259,5.273-0.422c-0.301-0.38-0.41-0.652-0.555-0.676c-7.048-0.694-14.119-1.364-21.576-2.075
	c1.351-1.177,2.449-2.076,3.476-3.042c0.288-0.271,0.396-0.766,0.604-1.14c-0.387-0.134-0.763-0.393-1.136-0.393
	c-1.811,0.024-3.62,0.133-5.436,0.199c-6.24,0.193-12.491,0.38-18.748,0.567c-0.887,0.023-1.78,0-2.999,0
	c1.394-1.249,2.534-2.19,3.584-3.217c0.507-0.506,0.85-1.158,1.285-1.737c-0.706-0.151-1.436-0.458-2.118-0.398
	c-6.214,0.592-12.417,1.237-18.62,1.919c-4.574,0.507-9.118,1.085-13.68,1.689c-0.374,0.048-0.706,0.531-1.049,0.803
	c0.368,0.199,0.73,0.531,1.099,0.543c3.408,0.114,6.848,0.198,10.269,0.223H-6.604z M12.438-47.2l-0.108,0.609
	c1.49,0.344,2.999,0.651,4.47,1.062c3.821,1.049,7.693,1.913,11.387,3.3c5.503,2.064,10.836,4.507,16.268,6.783
	c0.724,0.295,1.616,0.307,2.245,0.729c3.597,2.469,7.144,5.027,10.716,7.513c0.325,0.223,0.856,0.133,1.291,0.199
	c-0.156-0.482-0.181-1.026-0.459-1.412c-0.423-0.604-0.965-1.159-1.545-1.642c-0.434-0.356-0.978-0.646-1.52-0.839
	c-1.099-0.385-2.329-0.494-3.318-1.05c-2.077-1.188-3.936-2.77-6.048-3.873c-3.825-1.986-7.469-4.297-11.548-5.829
	c-1.568-0.58-2.858-1.865-4.682-1.931c-0.725-0.024-1.424-0.157-2.137-0.308c-2.703-0.604-5.418-1.225-8.091-1.865
	c-0.93-0.235-1.805-0.694-2.746-0.869C15.256-46.874,13.832-47.001,12.438-47.2L12.438-47.2z M-65.76-30.825l0.259,0.248
	c-1.665,1.78-3.336,3.547-5.014,5.297c-0.024,0.03-0.259-0.145-0.163-0.084C-69.049-27.18-67.402-29.008-65.76-30.825z
	 M74.044-27.289c-2.294-2.312-4.453-4.61-6.733-6.789c-0.846-0.802-1.545-1.453-0.737-2.643c-0.628-0.434-1.17-0.839-1.738-1.188
	c-0.759-0.452-1.423-0.404-1.967,0.41c-0.241,0.345-0.554,0.616-0.82,0.942c-0.783,0.887-0.64,3.162,0.024,4.103
	c0.809,1.146,1.979,0.651,2.969,0.839c1.713,0.319,2.521,0.977,2.728,2.629c0.024,0.164,0.097,0.345,0.205,0.448
	c1.582,1.454,3.148,2.926,4.778,4.337c0.229,0.206,0.954,0.23,1.148,0.036c0.747-0.742,1.398-1.568,2.002-2.437
	c0.145-0.223,0.12-0.755-0.06-0.965c-0.157-0.193-0.617-0.218-0.931-0.193C74.684-27.759,74.479-27.536,74.044-27.289z
	 M51.212-22.371c1.339,0.168,2.702,0.294,4.03,0.507c1.158,0.18,2.316,0.543,3.464,0.651c1.435,0.138,2.244,0.978,2.932,2.511
	c-3.619-1.286-7.385-1.213-10.546-3.114L51.212-22.371z M62.41-17.864c-0.035-1.937-2.147-4.621-3.86-4.869
	c-2.486-0.356-4.984-0.579-7.495-0.815c-0.434-0.036-0.881,0.164-1.509,0.272c1.184,1.888,2.318,3.337,4.416,3.609
	c0.664,0.09,1.305,0.259,1.956,0.397L62.41-17.864z M-25.388-16.036c-0.283,0.447-0.555,0.869-0.827,1.285l0.145,0.115
	c0.41-0.248,0.821-0.494,1.165-0.706c0.423,0.26,0.767,0.483,1.099,0.706l0.374-0.187c-1.285-0.742-0.82-1.46-0.163-2.101h-2.324
	L-25.388-16.036z M-78.425-16.32l-0.32,2.064l0.38,0.048c0.494-0.748,0.929-1.491,0.385-2.347l-0.41-0.048L-78.425-16.32z
	 M-21.852-16.072c-0.012,1.956-1.285,3.326-3.065,3.289c-1.671-0.036-3.029-1.496-3.016-3.24c0-1.816,1.309-3.114,3.089-3.078
	C-22.993-19.058-21.852-17.9-21.852-16.072L-21.852-16.072z M-79.155-15.698c0.139-0.385,0.259-0.766,0.398-1.14
	c-0.115-0.085-0.235-0.181-0.35-0.26c-0.519,0.978-2.28,0.175-2.172,1.829c-0.284-0.061-0.591-0.248-0.719-0.157
	c-0.778,0.567-0.851,2.256-0.198,3.705c0.29-0.368,0.561-0.717,0.809-1.037c2.938,0.862,3.928,0.669,4.235-0.791
	c-0.706,0.211-1.46,0.682-2.111,0.566c-0.719-0.121-1.345-0.766-2.016-1.182c0.38-0.61,0.64-1.002,1.062-1.659v1.967
	c0.138,0.023,0.259,0.048,0.398,0.072L-79.155-15.698z M-17.665-27.343c2.534,0.778,3.917,2.426,4.906,4.327
	c1.768,3.349,1.876,6.944,0.978,10.578c-0.236,0.929-0.863,1.261-1.829,0.954c-0.88-0.272-1.791-0.471-2.697-0.67
	c-0.935-0.192-1.098-0.827-1.146-1.678c-0.097-1.707,0.024-3.535-0.555-5.08c-1.074-2.854-3.561-4.248-6.541-4.338
	c-2.927-0.084-5.087,1.424-6.583,3.946c-1.165,1.96-0.917,4.061-0.779,6.16c0.073,1.291-1.423,2.921-2.66,2.71
	c-0.296-0.049-0.676-0.436-0.779-0.742c-0.319-1.026-0.724-2.088-0.778-3.15c-0.235-4.2,1.327-7.795,4.091-10.909
	c-0.405,0.711-0.863,1.405-1.219,2.136c-0.374,0.741-0.646,1.52-0.844,2.407c2.57-5.25,6.588-7.747,12.405-6.57
	c5.798,1.158,7.947,5.659,9.359,10.909C-11.842-19.42-13.079-21.955-17.665-27.343z M16.553-8.657
	c0.271-0.247,1.098-0.591,1.238-1.122c0.211-0.856-0.52-1.273-1.388-1.399c-2.125-0.308-4.236-0.677-6.349-1.026
	c-5.14-0.838-10.281-1.677-15.422-2.546c-0.869-0.145-1.647-0.205-1.815,0.917c-0.176,1.123,0.519,1.461,1.466,1.605
	c5.563,0.906,11.114,1.829,16.671,2.746C12.662-9.211,14.364-8.977,16.553-8.657z M-83.627-8.186
	c2.173-0.954,3.234,0.169,4.14,1.617c-0.332-1.804-0.754-2.221-2.818-3.017c-0.072-0.453-0.15-0.923-0.223-1.382l-0.236-0.012
	L-83.627-8.186z M-26.19-5.368c-0.199,0.627-0.398,1.261-0.58,1.889l-0.495,0.308l-2.003-2.794l-0.398,0.375
	c0.966,1.436,1.943,2.854,2.909,4.284l0.379-0.133c0.224-1.508,0.458-3.005,0.682-4.502c-0.103-0.024-0.199-0.036-0.295-0.06
	L-26.19-5.368z M-10.497-1.265c0.084,0.024,0.175,0.048,0.26,0.073c0.26-0.592,0.627-1.177,0.742-1.805
	c0.06-0.344-0.224-1.026-0.495-1.11c-0.743-0.272-1.557-0.386-2.347-0.398c-0.284,0-0.779,0.386-0.838,0.67
	c-0.2,0.838-0.224,1.725-0.326,2.643c0.567,0.126,1.001,0.211,1.436,0.295c0.024-0.061,0.048-0.133,0.084-0.211
	c-0.332-0.199-0.663-0.392-0.989-0.591c0.313-1.285,1.189-1.719,2.606-1.297L-10.497-1.265z M-43.713,0.54
	c0.175-0.212,0.392-0.399,0.52-0.646c1.653-3.276,3.916-5.859,7.651-6.817c0.223-0.055,0.343-0.495,0.506-0.754
	c-0.283-0.127-0.646-0.411-0.856-0.338c-1.014,0.398-2.052,0.784-2.951,1.376C-41.462-4.951-42.946-2.454-43.713,0.54z
	 M-3.847-2.641c-1.249-0.06-2.607-0.53-3.264-0.048c-0.669,0.495-0.616,1.931-0.911,3.054c0.778,0.114,1.285,0.187,1.786,0.26
	c-0.899-0.628-1.322-1.473-0.688-2.239c0.369-0.429,1.358-0.344,2.185-0.52v1.484l0.175,0.024C-4.354-1.192-4.155-1.771-3.847-2.641
	z M-38.843-2.266c0.827,1.026,1.642,2.039,2.467,3.053l-0.12,0.108c-0.852-0.989-1.72-1.961-2.57-2.951L-38.843-2.266z M0.6,0.503
	l0.495,0.024c-0.048-0.718,0.164-1.816-0.21-2.075C-0.661-2.61-1.663-2.092-2.079-0.251c-0.042,0.206-0.103,0.405-0.126,0.616
	c-0.157,1.152,0.259,1.448,1.46,1.049c-0.41-0.175-0.815-0.332-1.225-0.494c0.483-2.125,0.555-2.172,2.667-1.605
	C0.672-0.293,0.636,0.105,0.6,0.503z M-23.717-31.132c-1.858,0-3.748,0.452-5.574,1.273c-1.039,0.453-2.288,1.134-2.758,2.064
	c-0.79,1.532-1.864,1.713-3.301,1.628c-2.335-0.139-4.532,0.356-6.426,1.816c-1.593,1.237-3.161,2.51-4.742,3.759
	c-0.368,0.283-0.778,0.518-1.134,0.802c-0.363,0.284-0.682,0.616-1.014,0.935l0.157,0.29c4.327-2.824,8.514-6.022,13.938-5.032
	c-0.688,2.028-1.653,4.031-2.051,6.143c-0.52,2.782-0.591,5.647,0.977,8.23c0.247,0.404,0.669,0.936,1.05,0.978
	c1.339,0.132,2.486,0.79,4.006,0.627c5.328-0.603,10.686-0.917,16.038-1.062c2.372-0.061,4.043-1.014,4.436-3.971l0.646-5.684
	c2.607,0.446,5.213,0.821,7.796,1.328c5.659,1.11,11.307,2.208,16.931,3.458c2.359,0.531,4.754,1.225,6.958,2.227
	c4.451,2.039,7.929,5.509,11.693,8.501c1.629,1.285,3.15,2.69,4.706,4.049l0.108-0.121c-1.521-1.606-3.03-3.217-4.719-5.008
	c1.123,0.73,2.04,1.314,2.944,1.906c0.085-0.097,0.157-0.199,0.23-0.284l-3.175-2.903l0.29-0.326
	c2.776,2.498,5.527,4.984,8.303,7.464c-0.604-0.978-1.256-1.949-2.1-2.715c-4.273-3.808-8.497-7.675-12.938-11.283
	c-1.955-1.593-4.223-3.18-6.594-3.832C14.888-17.526,8.68-18.702,2.5-19.988c-4.15-0.881-8.338-1.569-12.501-2.449
	c-0.592-0.121-1.273-0.7-1.545-1.243c-1.484-2.981-4.278-4.634-6.896-6.095c-1.666-0.929-3.446-1.345-5.262-1.345h-0.012V-31.132z
	 M-38.548,2.38c-0.422-0.175-1.002-0.247-1.249-0.555c-0.356-0.482-0.506-1.141-0.73-1.72c0.175-0.097,0.362-0.199,0.531-0.284
	c0.573,0.706,1.14,1.394,1.707,2.101L-38.548,2.38z M92.772,2.464c1.883,0.387,2.463,0.115,3.054-1.2
	c0.205-0.441,0.446-0.863,0.688-1.279c0.447-0.773-0.037-1.781-0.916-1.811c-0.389,0-0.785,0.211-1.194,0.313
	C95.477,1.264,95.235,1.909,92.772,2.464z M5.85,2.121c1.115-1.932,1-2.251-0.677-2.757c-1.322-0.393-1.521-0.26-1.72,1.177
	c-0.048,0.368-0.12,0.753-0.175,1.122c-0.121,0.977,0.398,1.249,1.4,1.2C4.232,2.555,3.925,2.331,3.581,2.083
	c0.216-0.608,0.403-1.14,0.627-1.743C4.811,0.424,5.331,0.503,5.85,0.588V2.121z M-39.996,2.416c-0.742,0.32-1.31,0.567-2.137,0.911
	c0.32-0.922,0.568-1.617,0.863-2.468C-40.835,1.402-40.503,1.813-39.996,2.416z M-49.251-15.813
	c-0.169,0.26-0.206,0.482-0.157,0.683c0.495,1.78,1.062,3.547,1.509,5.34c0.319,1.297,0.911,2.008,2.359,1.815
	c1.689-0.223,2.467,0.984,3.258,2.161c-1.039-0.393-1.455-1.889-2.812-1.684c0.356,0.447,0.712,0.881,1.074,1.315l1.05,1.297
	c-2.77-2.166-2.806-2.178-6.529-1.839c0.833,0.252,1.671,0.464,2.535,0.5c1.424,0.079,2.473,0.669,3.288,1.829
	c0.447,0.646,0.435,1.141-0.47,1.858c-0.157-0.259-0.26-0.543-0.417-0.791c-1.025-1.52-2.425-2.166-4.302-2.039
	c-0.591,0.036-1.225-0.706-1.876-1.014c-0.435-0.211-0.954-0.435-1.388-0.361c-0.52,0.09-1.05,0.397-1.43,0.766
	c-1.732,1.647-3.427,3.324-5.092,5.044c-1.001,1.038-1.074,2.275-0.32,3.337c0.753,1.05,2.643,1.532,3.879,0.922
	c-0.235-0.428-0.47-0.85-0.706-1.279c1.437-1.599,2.831-3.156,4.236-4.713c0.115-0.084,0.224-0.187,0.337-0.271
	c0.097-0.084,0.212-0.133,0.212-0.319c-0.187,0.198-0.362,0.392-0.538,0.59c-1.381,1.153-2.739,2.324-4.139,3.44
	c-0.296,0.247-0.779,0.26-1.17,0.379c0.108-0.409,0.097-0.928,0.344-1.2c1.152-1.219,2.287-2.492,3.608-3.518
	c2.462-1.907,2.546-1.87,4.489,0.616c0.676,0.855,1.297,1.164,2.372,0.717c0.887-0.367,1.9-0.555,2.027,1.026
	c0.676-1.11,1.207-2.136,1.888-3.029c0.67-0.875,1.508-1.617,2.275-2.419l-0.072-0.139c-0.435,0.211-0.857,0.423-1.4,0.682
	c-0.953-1.876-2.559-2.559-4.562-2.57c-0.344,0-0.827-0.375-1.025-0.718c-0.344-0.616-0.519-1.322-0.76-2.003
	c-0.525-1.491-1.026-2.987-1.533-4.483L-49.251-15.813z M-28.054,4.22c-0.188-0.827-0.326-1.411-0.508-2.227
	c-0.519,0.754-0.869,1.286-1.309,1.955L-28.054,4.22z M8.89,0.848C8.745,1.542,8.619,2.169,8.462,2.809
	c-0.35,1.435-0.03,1.756,1.183,1.532C9.433,3.702,9.138,3.043,9.077,2.367c-0.012-0.187,0.67-0.669,0.965-0.621
	c0.507,0.091,0.96,0.483,1.509,0.797c0.073-0.188,0.229-0.586,0.416-1.056c-0.47-0.134-0.778-0.248-1.085-0.296L8.89,0.848z
	 M25.725,4.95c-0.458-0.621-1.303-1.085-2.221-1.321c-0.94-0.236-1.954-0.236-2.752,0.073C22.394,4.606,23.988,4.872,25.725,4.95z
	 M90.359,3.948c-0.847,0.899-0.675,1.358,0.325,1.78c1.474-0.669,2.631-1.225,3.825-1.707c1.593-0.652,2.077-1.286,1.714-2.57
	c-0.626,1.14-1.374,2.04-2.75,1.852c-0.99-0.12-1.689,0.163-2.028,1.153c-0.097,0.248-0.313,0.446-0.688,0.953L90.359,3.948z
	 M20.807,5.681c0.218,0.99,0.779,1.641,1.454,1.9c0.712,0.26,1.533,0.126,2.307-0.495C22.973,7.382,21.767,7.134,20.807,5.681z
	 M89.273-0.564c-1.654,2.026-1.834,3.56-0.845,5.539c0.893,1.803,2.389,2.817,4.393,2.902c1.64,0.072,3.571-1.183,4.224-2.74
	c-1.955,1.677-3.982,2.842-6.179,1.321C88.477,4.835,88.006,2.453,89.273-0.564z M23.312,1.391c1.738-0.333,3.451,1.472,3.462,3.481
	c0,1.858-1.675,3.512-3.582,3.512c-1.967,0-3.585-1.606-3.597-3.621C19.595,2.76,21.091,1.391,23.312,1.391z M-39.079-3.726
	c-3.216,2.474-5.376,9.986-3.385,12.158V5.294c0.368,0.965,0.319,2.189,1.701,1.448c2.57-1.399,5.352-2.214,8.255-2.57
	c1.399-0.176,3.101-1.731,3.438-3.077c0.037-0.151,0.025-0.35-0.036-0.482c-0.634-1.273-1.152-2.619-1.955-3.796
	c-0.839-1.237-1.9-2.372-3.561-2.503c2.438,1.406,3.645,3.077,4.266,5.924c-1.557,0.266-3.112,0.55-4.669,0.785
	c-0.235,0.036-0.597,0-0.707-0.15C-36.864-0.637-37.981-2.182-39.079-3.726z M-113.163,8.619c-1.557-0.693-0.898-1.829-0.898-2.793
	c0-0.664,0.259-1.333,0.217-2.003c-0.085-1.171,0.482-1.479,1.635-1.382L-113.163,8.619z M-64.572,8.975
	c0.26,0.562,0.52,1.141,0.839,1.823c0.175-0.374,0.332-0.73,0.495-1.093c0.127,0.103,0.248,0.199,0.368,0.284
	c0.163,0.519,0.326,1.038,0.482,1.556C-61.856,8.806-61.989,8.655-64.572,8.975L-64.572,8.975z M37.793,1.451
	c-1.376-0.247-2.776-0.507-4.164-0.754c-3.645-0.639-7.276-1.357-10.945-1.888c-1.67-0.248-3.24,0.319-4.598,1.381
	c-2.83,2.202-3.101,8.025,1.122,9.305c2.221,0.669,4.453,1.249,6.698,1.755c1.314,0.295,2.715,0.386,4.042,0.573
	c0.012-0.091,0.024-0.187,0.036-0.266c-1.146-0.296-2.304-0.591-3.463-0.899l0.049-0.187l2.581,0.187l0.024-0.187
	c-1.544-0.368-3.114-0.742-4.96-1.183c1.702-0.808,3.077-1.659,3.21-3.324c0.11-1.424-0.252-2.866-0.373-4.302
	c0.832,0.096,1.906,0.223,3.318,0.374c-0.567-0.314-0.846-0.458-1.195-0.645C32.097,1.342,34.943,2.024,37.793,1.451z
	 M-32.037,5.976c-0.604-0.036-0.875-0.151-1.073-0.06c-2.457,0.971-4.895,1.973-7.338,2.95c-0.778,0.308-0.621,0.881-0.458,1.472
	c0.024,0.085-0.012,0.193-0.036,0.32c-0.302-0.271-0.543-0.507-0.792-0.742l-0.259,0.199c0.616,0.99,1.231,1.991,1.913,3.102
	C-37.486,10.658-34.517,8.794-32.037,5.976L-32.037,5.976z M-55.811,14.266c0.121-0.06,0.248-0.15,0.356-0.211
	c-0.211-0.434-0.393-0.875-0.627-1.297c-0.942-1.743-1.358-3.494-0.398-5.4c0.362-0.699,0.531-1.497,0.814-2.232
	c0.248-0.633,0.079-0.965-0.603-1.025c-0.333-0.042-0.664-0.09-0.99-0.151c-0.978-0.199-1.394,0.187-1.666,1.177
	c-0.705,2.517,0.187,4.623,1.442,6.656L-55.811,14.266z M-41.776,14.773l-3.138-6.698C-45.058,10.731-43.381,14.49-41.776,14.773z
	 M84.58,5.505c1.314-0.753,0.517-1.568,0.253-2.371c-0.845-2.686-1.716-5.353-2.56-8.05c-0.265-0.862-0.555-1.75-0.699-2.643
	c-0.205-1.309-0.217-1.43-1.159-2.184c0.339,1.949,0.604,3.977,1.075,5.968c0.204,0.887,0.06,2.136,1.725,2.432
	c-1.472,0.421-0.784,1.199-0.748,1.93c0.084,1.321,0.446,2.915-0.145,3.928c-1.063,1.876-0.82,3.536-0.121,5.292
	c0.217,0.555,0.628,1.194,1.136,1.418c0.408,0.187,1.085-0.199,1.641-0.321c0.218-0.047,0.409-0.071,0.604-0.174
	c0.398-0.224,0.941-0.393,1.098-0.742c0.156-0.309-0.156-0.815-0.253-1.243c0.748,0.308,1.122,1.37,0.578,2.088
	c-1.038,1.393-0.603,2.962-0.628,4.543c0.579-0.566,1.159-1.17,1.329-1.876c0.241-0.827,0.121-1.768,0.144-2.643
	c0.146-2.945-0.022-3.102-2.824-2.83l1.063-0.814c-0.049-0.115-0.098-0.224-0.145-0.326c-0.473,0.024-0.942,0.066-1.521,0.103
	c0.531-0.362,0.942-0.646,1.581-1.074C85.412,5.752,85.123,5.668,84.58,5.505z M-63.334,15.105c0.368,0.705,0.639,1.2,0.91,1.695
	c0.26-2.475-0.259-3.005-2.286-2.396c0.314,0.531,0.622,1.086,0.965,1.688C-63.649,15.848-63.558,15.636-63.334,15.105z
	 M-104.142,6.012l-0.392-0.036l-0.845,11.169l0.597,0.035L-104.142,6.012z M103.489,9.819c-0.241,0.767-0.374,1.273-0.58,1.768
	c-0.626,1.618-1.821,2.655-3.523,2.866c-1.737,0.206-3.354-0.362-4.73-1.436c-1.11-0.875-2.1-1.913-3.234-2.938
	c1.135,3.247,4.586,5.769,7.869,5.769c0.892,0,1.243,0.259,0.965,1.213c-0.12,0.447,0.022,0.965,0.072,1.592
	C102.862,16.999,105.021,12.885,103.489,9.819L103.489,9.819z M92.556,19.052c0.302-1.327,0.41-2.239,0.302-2.933
	c-0.096-0.7-0.398-1.195-0.905-1.69C92.158,15.926,92.351,17.483,92.556,19.052z M5.692,20.101c-0.308,0.284-0.622,0.58-0.929,0.864
	l-0.308,0.282c-0.037-0.445-0.199-0.94-0.048-1.309c0.072-0.188,0.73-0.151,1.11-0.223L5.692,20.101z M-36.363,21.81
	c2.238,0.759,3.674-0.858,3.511-3.687c0.356,0.578,0.718,1.146,0.893,1.436c0.543-0.847,0.983-1.944,1.774-2.57
	c0.88-0.718,2.094-1.038,3.18-1.509c0.38-0.176,0.79-0.26,1.195-0.387c0.35-0.108,0.682-0.235,1.013-0.355
	c-2.298,0.097-4.435,0.591-6.348,1.864c-0.362,0.248-0.857,0.362-1.285,0.397c-0.284,0.026-0.827-0.162-0.857-0.313
	c-0.048-0.308,0.079-0.777,0.313-0.959c0.803-0.669,1.629-1.363,2.558-1.828c1.889-0.966,3.856-1.781,5.979-2.733
	c-4.375,0.555-7.795,2.534-10.656,5.587c-0.688-1.081-0.711-1.105,0.079-1.841c0.495-0.459,1.038-0.845,1.568-1.261
	c5.66-4.453,11.995-5.624,18.94-3.958c1.34,0.32,2.661,0.683,4.302,1.093c-3.276-2.426-7.181-3.627-8.973-7.471
	c0.73,0.188,1.376,0.363,2.215,0.574c-0.906-1.376-2.088-2.155-3.561-2.335c-0.21-0.024-0.41-0.127-0.615-0.151
	c-1.038-0.072-2.075-0.139-3.155-0.199c-0.062,0.634-0.097,1.05-0.146,1.569c-0.543-1.334-1.061-2.571-1.695-4.115
	c-0.591,1.024-0.977,1.67-1.334,2.311c0.073,0.054,0.152,0.102,0.236,0.162c0.319-0.283,0.626-0.579,0.965-0.893
	c1.533,2.414,1.738,5.02,0.887,7.664c-0.295,0.929-0.675,0.645-0.851,0.397c-0.332-1.979-0.669-3.946-1.014-5.919
	c-0.151,0.011-0.284,0.036-0.434,0.061c0.079,0.905,0.15,1.803,0.235,2.746c-0.422,0.048-0.766,0.144-1.086,0.108
	c-1.285-0.108-2.263,0.199-2.866,1.508c-0.308,0.64-1.002,1.124-1.568,1.617c-2.167,1.871-4.399,3.675-6.541,5.588
	c-2.088,1.863-2.063,1.918-0.012,3.867c0.893,0.838,1.768,1.696,2.697,2.488c0.224,0.18,0.663,0.084,1.001,0.12
	c-0.091-0.32-0.126-0.664-0.278-0.967c-0.108-0.205-0.368-0.332-0.567-0.489c-1.309-1.104-2.63-2.214-3.976-3.324
	c1.569-0.965,2.124-1.092,2.817-0.47c1.357,1.273,2.95,2.372,3.174,4.598c0.272-0.352,0.422-0.55,0.646-0.815
	C-34.161,19.951-34.939,20.891-36.363,21.81L-36.363,21.81z M-64.017,21.615c0.321-0.368,0.58-0.638,0.827-0.922
	c0.259,0.409,0.507,0.813,0.966,1.574c-0.151-1.045-0.012-2.045-0.423-2.365c-0.494-0.387-1.429-0.199-2.269-0.26L-64.017,21.615z
	 M-99.653,14.924c-0.115-0.012-0.223-0.012-0.338-0.024v9.853h0.447C-99.2,21.47-99.393,18.194-99.653,14.924z M6.344,21.079
	c0.199,1.092,0.459,2.082,0.52,3.119c0.012,0.302-0.44,0.833-0.778,0.905c-0.248,0.06-0.677-0.398-0.924-0.712
	c-0.187-0.253-0.163-0.652-0.295-0.954C4.347,22.219,4.691,21.447,6.344,21.079z M94.233,21.163
	c0.121,2.069,0.399,2.421,2.184,2.529c0.941,0.071,1.896,0.023,2.824,0.023c0.049,1.521,0.302,2.353,0.772,2.498
	c0.531-1.461,0.531-1.485,2.27-1.461c1.688,0.025,3.366,0.098,5.068,0.121c0.604,0.024,1.206-0.047,1.797-0.071l0.024-0.327
	c-0.422-0.108-0.833-0.277-1.292-0.337c-1.629-0.254-3.257-0.471-4.874-0.714c-1.376-0.192-2.318-0.867-2.85-2.015
	C99.169,22.75,95.477,22.701,94.233,21.163z M-76.326,27.457L-76.326,27.457l-0.048-0.025
	C-76.35,27.432-76.338,27.432-76.326,27.457z M-63.075,27.48c0.108,0,0.234-0.023,0.343-0.023c0-0.652,0.26-1.714-0.048-1.92
	c-0.592-0.422-1.533-0.362-2.323-0.506c0.332,0.759,0.604,1.338,0.875,1.942c0.2-0.253,0.375-0.507,0.658-0.893L-63.075,27.48z
	 M-102.235,27.914h5.979c-1.931-0.408-3.879-0.554-5.834-0.651C-102.126,27.263-102.175,27.612-102.235,27.914z M-82.245,15.587
	c-0.321-0.603-0.64-1.224-0.978-1.816l-0.271,0.128c0.446,1.134,0.954,2.255,1.327,3.42c0.936,2.854,1.876,5.721,2.679,8.616
	c0.235,0.845,0.368,2.053-0.826,2.486c-1.039,0.386-1.919-0.229-2.39-1.642c-0.416-1.254-0.724-2.558-0.959-3.885
	c-0.236-1.377-0.26-2.771-0.471-4.145c-0.151-1.004-0.555-1.962-0.633-2.951c-0.109-1.418-0.024-2.867,0.15-4.327
	C-83.519,12.722-82.257,13.808-82.245,15.587l0.012,0.013l0.024,0.036h-0.036v-0.023V15.587z M-70.502,19.323h-0.375
	c0,2.799,0,5.575,0,8.351c0,0.795,0.138,1.508,1.116,1.484c0.864-0.025,1.238-0.616,1.249-1.437c0.024-1.472,0.048-2.969,0.097-4.44
	c0.133-3.945,0.248-7.917,0.458-11.881c0.073-1.557-0.15-2.372-1.05-2.486c-0.929-0.121-1.448,0.519-1.471,2.19L-70.502,19.323z
	 M131.582,29.919l2.994,0.373c-0.013,0.157-0.025,0.303-0.037,0.446c-1.015-0.096-2.027-0.192-3.028-0.289L131.582,29.919z
	 M102.837,28.265c-0.386,0.398-0.989,0.761-1.086,1.22c-0.072,0.362,0.532,0.869,0.809,1.29l0.58-0.012
	c0.313-0.436,0.916-0.94,0.843-1.303c-0.084-0.458-0.734-0.809-1.146-1.206V28.265z M-79.216,28.761l0.369-0.145l1.545,3.401
	l-0.453,0.241C-78.25,31.075-78.733,29.942-79.216,28.761z M79.04,34.094c-0.24,0.458-0.339,0.894,0.676,1.087
	c1.182,0.192,2.33,0.579,3.596,0.916c0.29-0.482-0.022-0.845-0.783-1.063L79.04,34.094z M78.785,37.231
	c-0.047,0.097-0.108,0.181-0.156,0.254c1.34,0.47,2.704,0.94,4.404,1.52c-0.373-0.459-0.542-0.832-0.783-0.904
	C81.115,37.762,79.944,37.521,78.785,37.231z M-7.89,17.911c0.109,0.32,0.109,0.386,0.138,0.398c0.26,0.211,0.519,0.415,0.803,0.59
	c4.766,3.149,8.019,7.616,10.517,12.636c1.219,2.486,2.021,5.141,3.072,7.723c0.139,0.339,0.585,0.58,0.88,0.858
	c0.084-0.376,0.308-0.81,0.235-1.195c-0.235-1.207-0.519-2.389-0.881-3.548c-1.901-6.058-5.165-11.26-9.811-15.586
	c-0.344-0.331-0.779-0.566-1.171-0.851l-0.09,0.151c1.128,1.31,2.25,2.624,3.379,3.928C-3.056,21.272-5.012,19.172-7.89,17.911
	L-7.89,17.911z M-81.376,37.834l0.06-0.313c-0.308-0.121-0.621-0.313-0.94-0.313l-9.884-0.096c-0.199,0-0.422,0.022-0.598,0.12
	c-0.554,0.266-1.073,0.628-1.653,0.845c-0.567,0.241-1.237,0.29-1.78,0.578c-0.707,0.387-0.803,1.329-0.26,1.666
	c0.567,0.362,2.523,0.205,2.957-0.351c0.983-1.315,2.492-1.544,3.892-1.748c1.937-0.267,3.929-0.207,5.908-0.278L-81.376,37.834z
	 M78.438,41.021c1.278,0.266,2.46,0.507,3.692,0.772c0.024-0.098,0.097-0.458,0.048-0.458c-1.231-0.436-2.462-0.834-3.74-1.255
	V41.021z M100.051,38.534c-1.147,0.724-2.077,2.705-1.716,3.404c0.979,1.954,2.934,2.87,4.685,2.22
	c1.314-0.507,2.002-1.593,1.7-2.727c-1.109,1.881-2.69,2.582-4.054,1.785C99.098,42.3,98.867,40.948,100.051,38.534z
	 M-105.874,35.735c0.906-0.604,1.509-1.015,2.251-1.521c-0.429-0.217-0.688-0.458-0.923-0.434c-1.153,0.072-2.299,0.313-3.44,0.289
	c-0.542,0-1.207-0.362-1.616-0.784c-0.507-0.507-0.79-1.242-1.286-2.052c-0.138,0.373-0.26,0.567-0.212,0.664
	c0.779,1.593,1.582,3.186,2.427,4.754c0.108,0.219,0.531,0.219,0.778,0.363c1.038,0.579,2.1,1.158,3.113,1.786
	c0.405,0.265,0.701,0.711,1.099,0.988c1.188,0.87,2.359,1.774,3.607,2.559c1.147,0.76,2.275,1.545,3.796,1.474
	c0.803-0.024,1.617,0.36,2.432,0.579c0.519-0.219,1.165-0.482,1.804-0.773c1.484-0.699,3.192-0.361,4.646-1.208
	c0.941-0.529,2.015-0.843,2.993-1.327c0.26-0.12,0.392-0.458,0.791-0.94l-9.938,1.714c-3.421,0.58-5.98-1.315-8.55-3.064
	C-103.375,37.955-104.498,36.87-105.874,35.735z M-21.086,44.666c0.133-0.869-0.247-2.028,1.014-1.907
	c0.579,0.071,1.085,0.797,1.629,1.23c-0.072,0.108-0.151,0.229-0.211,0.337c0.272-0.049,0.543-0.097,0.827-0.145
	c0-1.327-0.803-2.002-1.901-2.172c-0.495-0.096-1.225,0.266-1.581,0.677C-21.768,43.193-22.015,43.965-21.086,44.666z
	 M-70.726,40.996c-0.471,0.676-0.67,1.521-0.591,2.343c0.06,0.783,0.379,1.543,0.947,2.049
	C-70.491,43.918-70.606,42.589-70.726,40.996z M81.911,45.655c0.495-1.206-0.084-1.546-0.989-1.737
	c-1.026-0.256-2.038-0.557-3.09-0.847c-0.216,0.726,0.146,1.11,1.159,1.206C80.079,44.375,81.236,44.375,81.911,45.655z
	 M-4.143,47.44c0.048-0.192,0.133-0.362,0.108-0.482c-0.186-1.014,0.073-1.593,1.201-1.761c1.617-0.243,3.21-0.605,4.815-0.92
	c1.316-0.252,2.625-0.579,3.934-0.867c0-0.145-0.012-0.277-0.012-0.46c-0.41-0.071-0.845-0.301-1.212-0.239
	c-2.77,0.555-5.527,1.11-8.254,1.786C-5.157,44.882-5.38,46.089-4.143,47.44z M77.725,45.921c-0.459,1.013,0.036,1.243,0.687,1.398
	c1.016,0.267,2.028,0.579,3.055,0.894c0.182-0.578-0.06-0.894-0.833-1.063c-0.58-0.119-1.11-0.555-1.678-0.843
	C78.652,46.524,78.221,46.886,77.725,45.921z M3.666,47.319l-0.037-0.022c-0.012,0.022-0.024,0.022-0.036,0.047
	c-1.943,0.267-3.868,0.507-5.823,0.771c0.248,0.436,0.482,0.688,0.669,0.664c1.569-0.276,3.126-0.603,4.671-0.94
	c0.187-0.049,0.319-0.303,0.482-0.471L3.666,47.319z M81.067,51.084c-0.181-1.037-0.869-1.243-1.617-1.35
	c-0.773-0.098-1.581-0.098-2.039-0.726C77.832,50.94,80.102,49.951,81.067,51.084z M83.24,49.806
	c-0.376,1.159-0.773,2.317-1.159,3.523c0.278,0.073,0.628,0.169,1.062,0.29c0.122-1.327,0.23-2.583,0.327-3.826
	c0.107-0.482,0.253-0.964,0.324-1.447c0.749-4.068,1.473-8.194,2.209-12.296c0.398-2.232,1.702-3.114,3.921-2.656
	c1.352,0.266,1.896,0.882,1.836,2.27c-0.062,1.254-0.266,2.51-0.362,3.765c-0.23,2.124-0.435,4.271-0.652,6.396
	c0.555-1.642,0.82-3.331,1.063-4.995c0.24-1.751,0.41-3.488,0.748-5.237c0.085-0.483,0.507-1.207,0.894-1.28
	c2.075-0.458,3.04,0.339,3.186,2.438c0.048,0.411,0.024,0.845-0.023,1.254c-0.411,2.728-0.834,5.432-1.195,8.159
	c-0.194,1.424-0.255,2.871-0.375,4.32l0.362,0.047c0.965-5.624,1.932-11.247,2.932-17.088c2.162,1.715,4.237,2.075,6.228,0.376
	c0.857-0.713,1.389-1.752,0.931-3.055c-2.077,1.785-3.163,1.932-4.552,0.652c-0.928-0.845-0.988-2.329-0.155-3.646
	c-0.351-0.361-0.7-0.736-1.183-1.243c-0.506,0.834-1.099,1.511-1.399,2.329c-0.278,0.797-0.278,1.69-0.436,2.631
	c-3.281-0.458-6.444-0.868-9.605-1.374c-1.063-0.17-2.027-0.4-2.184,1.098c-1.606-0.182-3.15-0.182-4.598-0.531
	c-1.618-0.41-2.705,0.024-3.501,1.411c-0.156,0.278-0.748,0.652-0.797,0.604c-0.916-0.833-1.615-0.12-2.172,0.241
	c-0.591-0.361-1.038-0.666-1.496-0.941c-0.264,0.435-0.604,0.855-0.748,1.328c-0.495,1.785-0.978,3.56-1.327,5.382
	c-0.436,2.22-0.76,4.453-1.122,6.684c1.545-3.04,0.784-6.635,2.412-10.039c1.243,2.666-0.458,4.948,0.013,7.53
	c0.821-2.582,0.772-5.165,2.547-7.192c0.856,2.921-0.447,5.696-0.615,8.52c-0.192,2.921-0.314,5.816-0.46,8.714l0.339,0.096
	c0.072-0.313,0.205-0.604,0.217-0.893c0.024-0.41-0.096-0.809-0.047-1.229c0.239-2.198,0.409-4.395,0.818-6.543
	c0.557-2.968,1.159-5.925,1.943-8.857c0.483-1.786,1.195-2.087,3.029-1.809c1.279,0.204,2.547,0.409,3.813,0.663
	c0.785,0.156,0.991,0.687,0.834,1.412c-0.229,1.11-0.458,2.206-0.64,3.33c-0.266,1.641-0.505,3.281-0.725,4.899
	c-0.253,1.932-0.939,3.825-0.506,5.804v0.013H83.24z M80.427,53.934c0.254-1.063-0.711-0.967-1.363-1.135
	c-0.71-0.194-1.399-0.362-2.231-0.58l-0.351,0.772L80.427,53.934z M-66.979,52.991c3.717,3.065,7.808,2.27,9.438-1.785
	c0.742-1.834,1.237-3.887,1.237-5.865c0.011-6.662,0.084-13.347,1.369-19.91c0.844-4.279,2.118-8.432,5.587-11.483
	c1.014-0.894,1.992-1.841,2.854-2.867c0.422-0.507,0.67-1.249,0.742-1.907c0.223-2.04,0.272-4.091,0.482-6.13
	c0.097-0.887,0.417-1.762,0.639-2.643l-0.307-0.073c-0.417,1.557-0.827,3.114-1.261,4.671c-0.248,0.874-0.248,1.991-0.79,2.57
	c-2.287,2.334-4.743,4.525-7.09,6.71c-0.754-1.395-1.286-3.15-0.585-5.105c0.271-0.754,0.609-1.509,0.73-2.287
	c0.174-1.039,0.26-2.112,0.211-3.173c-0.048-0.905,0.073-1.618,0.766-2.276c0.779-0.754,1.437-1.604,2.149-2.418
	c-0.109-0.103-0.224-0.211-0.332-0.309c-1.087,0.96-2.227,1.889-3.241,2.915c-0.216,0.223-0.192,0.918-0.011,1.261
	c0.573,1.109,0.506,2.148,0,3.264c-1.231,2.703-2.052,5.449-0.392,8.315c0.06,0.108,0.097,0.247,0.084,0.355
	c-0.037,0.363-0.108,0.718-0.247,1.437c-2.42-2.462-3.742-5.105-4.834-7.911c0,3.198,2.07,5.54,3.403,8.194
	c-0.856-0.917-1.671-1.864-2.25-2.944c-1.109-2.028-2.172-4.103-1.755-6.595c-0.32,1.014-0.743,2.125-0.422,2.987
	c1.025,2.83,2.262,5.598,4.676,7.615c-1.979,5.304-2.673,10.843-2.944,16.442c-0.224,4.393-0.248,8.784-0.308,13.178
	c-0.048,3.67-2.854,6.564-5.781,6.059L-66.979,52.991z M-36.297,54.562l0.121,0.433c9.618-1.786,19.266-3.401,28.793-6.129
	c-0.421-0.387-0.929-0.798-1.333-0.726c-4.809,1.038-9.588,2.148-14.385,3.259c-1.768,0.411-3.5,0.918-5.25,1.352L-36.297,54.562z
	 M138.051,38.426c-1.073-0.155-1.352,0.327-1.279,1.159c0.024,0.374,0.121,0.759,0.096,1.122c-0.458,4.393-0.928,8.811-1.411,13.202
	c-0.085,0.845-0.204,1.689-0.302,2.535c0.073,0,0.146,0,0.23,0.022L138.051,38.426z M128.469,56.684l0.374,0.025
	c0.374-2.825,0.737-5.647,1.122-8.472c0.387-2.801,0.798-5.6,1.232-8.497c-1.666,0.858-1.257,2.488-1.484,3.741
	c-0.253,1.353-0.133,2.776-0.279,4.176L128.469,56.684z M-94.071,54.343V51.35l0.199,0.049
	C-93.932,52.388-94.005,53.354-94.071,54.343v2.511h-0.168C-94.192,56.009-94.131,55.162-94.071,54.343z M81.743,56.9
	c-0.049-0.603-0.024-1.085-0.145-1.544c-0.024-0.096-0.688-0.194-0.845-0.071c-0.894,0.771-1.497,0.409-2.125-0.339
	c-0.181-0.192-0.651-0.192-0.965-0.168c-0.145,0.024-0.363,0.384-0.314,0.531c0.097,0.252,0.291,0.626,0.531,0.675
	C79.063,56.321,80.271,56.563,81.743,56.9z M65.62-17.309c0.423-0.664,0.29-1.286-0.157-1.925c-0.832-1.201-1.64-2.438-2.449-3.669
	c-0.17-0.259-0.265-0.573-0.387-0.869l-0.387,0.374L65.62-17.309v0.024l0.858,4.538c0.505,2.015,0.035,3.734-1.27,5.303
	c-0.252,0.332-0.554,0.778-0.554,1.17c0.023,1.026,0.194,2.064,0.302,3.113c-0.422-0.259-0.858-0.555-1.315-0.851
	C56.22-2.169,48.557-2.441,40.954-1.307c0.241,0.41,0.35,0.796,0.628,1.026c1.23,1.092,1.701,2.474,1.64,4.066
	c-0.047,1.176-0.241,2.377-0.047,3.512c0.182,1.062-0.049,1.876-0.604,2.727c-0.724,1.141-1.423,2.275-2.075,3.463
	c-0.484,0.875-0.145,1.484,0.856,1.557c0.761,0.048,1.521-0.073,2.28-0.012c1.871,0.151,3.778,0.283,5.624,0.567
	c2.366,0.351,4.683,1.129,7.12,0.531c0.145-0.024,0.302,0.127,0.482,0.15l7.217,0.591c0.675,0.049,1.327,0.164,1.991,0.26
	c1.677,0.273,3.343,0.767,5.007,0.791c1.763,0.024,3.573,1.556,5.407-0.428c0.423,1.146,0.809,2.009,1.063,2.914
	c0.434,1.664-0.689,2.679-2.341,2.244c-2.728-0.711-5.431-1.442-8.194-2.01c-1.8-0.361-3.621-0.445-5.419-0.657
	c2.583,0.803,5.238,1.286,7.82,1.956c1.786,0.458,3.499,1.17,5.214,1.846c0.288,0.097,0.458,0.53,0.699,0.796
	c-0.085,0.096-0.169,0.219-0.266,0.314c-0.325-0.193-0.675-0.387-1.014-0.556c-0.7-0.35-1.4-0.759-2.147-1.037
	c-4.056-1.425-8.329-1.787-12.575-2.244c-4.851-0.52-9.727-0.839-14.603-0.983c-5.743-0.176-11.488-0.248-17.16,0.85
	c-4.102,0.784-8.224,0.833-12.363,0.319c-1.708-0.211-3.36-0.627-4.906-1.937c1.261,0.489,2.274,1.052,3.361,1.284
	c5.582,1.215,11.143,0.531,16.467-1.163c4.029-1.284,6.878-4.436,9.123-7.995c0.191-0.295,0.145-0.791,0.145-1.2
	c-0.024-0.519-0.122-1.05-0.182-1.582c-0.35,0.815-0.35,1.84-0.808,2.637c-0.507,0.91-1.364,1.629-2.102,2.432l-0.096-0.084
	c0.725-0.978,1.412-1.943,2.124-2.896c-0.108-0.097-0.217-0.182-0.313-0.284l-4.657,4.725l-0.146-0.164
	c0.869-1.176,1.772-2.347,2.656-3.536c-0.073-0.06-0.172-0.132-0.256-0.211c-0.783,0.742-1.556,1.484-2.328,2.214l-0.072-0.06
	l2.847-4.338c-0.095-0.048-0.19-0.127-0.264-0.175c-0.785,0.977-1.57,1.967-2.342,2.944c-1.159,1.407-2.245,2.879-4.175,3.295
	c-4.61,1.001-9.251,1.883-14.018,1.61c-0.67-0.035-1.412-0.066-1.967-0.374c-2.703-1.453-5.346-3.034-8.031-4.531
	C0.044,8.95-5.072,5.801-11.124,4.86c-1.834-0.284-3.663-0.627-5.503-0.936c-0.097,0.163-0.199,0.319-0.295,0.483
	c0.567,0.465,1.11,0.983,1.731,1.382c3.125,1.991,6.143,4.127,9.503,5.768c2.776,1.352,5.376,3.089,8.007,4.713
	c1.11,0.675,2.136,1.508,3.373,2.382c-0.929,0.247-1.448,0.387-1.605,0.423c-1.919-1.261-3.626-2.39-5.34-3.512
	c1.05,1.756,2.36,3.188,3.445,4.773c0.61,0.874,1.166,1.304,2.167,0.91l0.048-0.036l0.012,0.012c-0.024,0-0.036,0.013-0.06,0.024
	c-0.326,0.248-0.658,0.489-0.99,0.742c0.181,0.352,0.344,0.64,0.495,0.953c0.121,0.266,0.211,0.531,0.308,0.797
	C1.366,20.397-1.5,17.248-5.38,15.166c-3.832-2.052-7.795-3.597-12.146-3.952c1.333,0.483,2.691,0.905,4.049,1.285
	c4.374,1.225,8.242,3.361,11.579,6.438c3.783,3.513,6.142,7.964,8.182,12.599c0.965,2.185,1.671,4.488,2.498,6.735
	c0.072,0,0.133-0.026,0.211-0.049L6.567,26.105c0.115-0.024,0.235-0.049,0.35-0.072c0.218,0.845,0.465,1.701,0.64,2.546
	c1.062,5.238,2.226,10.45,3.113,15.698c0.236,1.402,1.629,3.283-0.742,4.394l1.883-0.145l0.193,0.435
	c-0.766,0.557-1.533,1.086-2.504,1.8c0.664-0.11,1.098-0.231,1.521-0.183c0.367,0.023,0.712,0.254,1.062,0.362
	c-0.21,0.337-0.35,0.772-0.646,0.965c-0.519,0.313-1.146,0.482-1.913,0.773c2.16,0.337,2.408,0.313,3.041-0.604
	c0.157,1.4,0.296,2.606,0.429,3.802c-0.073,0-0.145,0-0.224,0.023c-0.061-0.254-0.108-0.507-0.169-0.761
	c-0.139,0.7,0.206,1.424,0.024,1.979c-0.508,1.52,0.392,1.642,1.568,1.664c-0.259,0.628-0.495,1.184-0.729,1.751
	c1.544,0.12,2.335-0.917,3.113-1.798c0.84-0.917,0.494-2.221-0.532-2.921c-0.258-0.193-0.48-0.555-0.518-0.857
	c-0.21-1.797-0.284-3.644-0.542-5.44c-0.236-1.619-0.646-3.223-0.979-4.816c-0.923-4.477-1.84-8.99-2.781-13.468
	c-0.483-2.28-0.972-4.572-1.443-6.733c3.386,1.339,6.699,2.763,10.059,3.993c3.735,1.401,7.512,2.028,11.507,0.81
	c2.715-0.81,5.526-1.509,8.339-1.797c4.861-0.473,9.762-0.557,14.661-0.797c5.77-0.267,11.573-0.435,17.33-0.798
	c1.521-0.096,3.332-0.024,4.465-1.327c0.967-1.099,1.677-2.438,2.257-3.3c-0.458-1.769-1.268-3.259-1.11-4.646
	c0.303-2.927-1.388-5.141-2.232-7.639c-0.556-1.642-1.799-3.035-2.606-4.604c-0.578-1.104-1.448-1.296-2.559-1.189
	c-0.253,0.037-0.53-0.023-0.459-0.023c-0.397-0.706-0.675-1.177-0.941-1.629c-0.543-0.917-1.159-1.792-1.616-2.745
	c-0.579-1.201-0.954-2.432-1.062-3.832c-0.097-1.237,0.204-2.209,1.014-2.951c1.084-0.965,0.747-2.118,0.663-3.216
	c-0.062-0.886-0.35-1.779-0.52-2.666c-0.168-0.954-0.241-1.931-0.482-2.854c-0.084-0.271-0.591-0.434-0.904-0.645v0.048H65.62z
	 M-70.358,61.752c0-0.723,0.164-1.472-0.024-2.122c-1.11-3.838-4.519-5.624-7.36-7.773c-1.696-1.278-4.091-1.711-3.881-4.584
	c-0.259,0.626-0.518,1.23-0.778,1.882c-1.141-0.265-2.335-1.134-3.795-0.313c0.356,0.337,0.639,0.603,0.911,0.868
	c0.669-0.266,1.375-0.482,1.834-0.216c1.418,0.748,2.185,2.002,2.232,3.414c-0.742-0.761-1.581-1.617-2.419-2.451
	c-0.139,0.122-0.272,0.243-0.422,0.327c0.199,0.278,0.386,0.604,0.592,0.856c0.953,1.305,1.942,2.535,1.104,4.357
	c-0.248,0.507-0.037,1.266-0.037,1.979c1.455-0.784,1.985-1.823,2.136-3.982c0.875,1.038,1.508,1.014,2.595-0.301
	c-0.295-0.146-0.616-0.314-0.941-0.484c0.078-0.072,0.162-0.144,0.235-0.229C-75.028,55.162-71.631,57.312-70.358,61.752
	L-70.358,61.752z M-76.82,56.009c-0.44,0.409-0.743,0.82-1.146,1.037c-1.473,0.821-1.696,1.642-0.767,3.064
	c1.37,2.078,2.962,2.754,4.796,1.979c1.466-0.604,1.653-1.061,0.628-2.292L-76.82,56.009z M-91.205,50.505
	c-0.229,0.99-0.44,1.907-0.724,3.065c0.778-0.482,1.737,0.846,2.051-0.771c0.097,0.965,0.26,1.81,0.271,2.679
	c0.048,1.544,1.273,2.342,2.233,3.161c1.858,1.642,3.144,3.621,4.549,5.77c-0.591,0-1.013,0.12-1.321,0
	c-2.733-1.135-5.552-2.1-7.417-4.659c-1.768-2.438-2.026-6.081-0.356-8.567C-91.76,50.94-91.489,50.771-91.205,50.505z
	 M-93.28,49.926c0.35-0.507,0.978-1.328,1.508-2.22c0.187-0.314,0.175-0.748,0.26-1.135c-0.567,0.097-1.146,0.146-1.702,0.29
	c-0.054,0.024,0.06,0.652,0.109,1.206c-3.536,5.116-2.595,11.224,0.471,13.18c-0.447-0.989-0.93-2.028-1.4-3.091l0.337-0.181
	c0.085,0.121,0.199,0.254,0.271,0.35c2.408,3.851,5.86,6.059,10.354,6.614c0.26,0.023,0.658,0,0.778-0.17
	c0.108-0.169,0.024-0.578-0.096-0.797c-0.495-0.904-1.025-1.821-1.545-2.726c-0.114-0.218-0.199-0.436-0.283-0.652
	c0.332-0.193,0.591-0.361,0.971-0.58c-2.123-0.409-3.397-1.495-3.138-2.752c0.115-0.579,0.52-1.301,1.002-1.521
	c0.718-0.311,1.594-0.264,2.359-0.385c-0.754-1.255-1.726-1.834-2.854-1.423c-0.446,0.144-0.766,0.652-1.146,0.989l0.048,0.097
	c-0.41,0.29-0.802,0.554-1.225,0.845c-1.026-1.086-0.367-2.294,0.036-3.452c-1.285-0.507-1.013,0.411-1.122,1.039
	c-0.139-1.812-0.139-3.549-0.151-5.287c0-0.288-0.048-0.578-0.084-0.867c-0.284,0.095-0.616,0.144-0.852,0.313L-93.28,49.926z
	 M-80.217,65.543c2.817,0.578,5.672,0.024,8.465-2.053c-1.508,0.254-2.769,0.339-3.94,0.677c-1.943,0.579-3.361,0.217-4.218-1.738
	c-0.108-0.253-0.368-0.435-0.555-0.687l-0.133,0.275c-0.482-0.145-0.977-0.275-1.497-0.421L-80.217,65.543z M133.61,67.714
	c0.024-0.169,0.047-0.337,0.071-0.506c-1.062-0.097-2.1-0.122-3.137-0.339c-2.027-0.386-2.463-0.482-2.896,0
	C129.724,67.158,131.655,67.448,133.61,67.714z M139.957,64.553c0.411,0.193,0.967,0.41,1.474,0.7
	c0.181,0.12,0.409,0.458,0.362,0.554c-0.894,1.546,0.603,2.149,1.037,3.09c0.385-1.688,0.772-3.354,1.109-5.021
	c0.071-0.337,0-0.699-0.024-1.061c-0.385,0.049-0.843-0.024-1.183,0.144C141.815,63.419,140.924,63.973,139.957,64.553z
	 M-13.326,71.697c-1.358,0.301-2.721,0.604-4.091,0.894l-0.096-0.362c1.344-0.339,2.703-0.713,4.048-1.038
	C-13.411,71.359-13.375,71.527-13.326,71.697z M3.666,47.319c1.05,0.677,2.298,1.184,3.089,2.1c1.285,1.475,1.653,3.38,1.297,5.335
	c-0.355,2.075-0.989,4.029-3.301,4.79c-0.838,0.254-1.72,0.398-2.57,0.628c-0.767,0.229-1.534,0.46-2.299,0.688l0.091,0.325H3.11
	c0.989-0.856,1.073-0.881,2.063,0.084c-1.376,0.375-2.607,0.725-3.856,1.088c0.707,0.372,1.497,0.458,2.232,0.699
	c0.375,0.096,0.929,0.482,0.929,0.772c0.049,1.641-1.448,3.233-3.077,3.475c-1.098,0.145-2.42-0.121-3.053,1.4
	c0.881-0.072,1.707-0.146,2.534-0.146c0.374,0,0.729,0.194,1.098,0.301c-0.168,0.352-0.247,0.81-0.519,1.063
	c-1.183,0.989-2.431,1.907-3.645,2.836c-0.145,0.133-0.223,0.363-0.355,0.58c0.224,0.035,0.319,0.084,0.368,0.035
	c3.904-2.583,7.084-5.805,8.828-10.258c0.779-1.979,1.526-3.981,2.396-5.925c0.368-0.845,0.663-1.593,0.404-2.534
	c-0.259-0.917-0.32-1.907-0.555-2.825c-0.356-1.398-0.802-2.774-1.219-4.175c-0.09-0.17-0.175-0.313-0.259-0.482
	c-0.483,1.545-0.906,0.748-1.353,0.556c-0.675-0.314-1.369-0.604-2.074-0.869C3.973,46.837,3.785,47.15,3.666,47.319z
	 M-22.371,73.435c1.249-0.313,2.48-0.604,3.729-0.918c0.023,0.121,0.048,0.242,0.09,0.362c-1.273,0.266-2.546,0.507-3.832,0.748
	L-22.371,73.435z M-70.431,69.403c3.265,1.738,5.823,3.936,9.28,4.32c1.322,0.157,2.631,0.531,3.958,0.713
	c2.372,0.252,4.755,0.446,7.138,0.675c2.239,0.205,4.453,0.254,6.517-0.808c0.332-0.206,0.766-0.531,0.802-0.845
	c0.036-0.266-0.422-0.604-0.669-0.894c-0.248-0.289-0.519-0.531-0.742-0.819c-0.441-0.604-0.754-1.341-1.285-1.823
	c-0.966-0.906-2.125-1.594-3.065-2.497c-0.839-0.846-1.805-1.774-2.148-2.85c-0.669-2.015-1.991-3.282-3.747-4.271
	c-0.839-0.458-1.654-0.965-2.516-1.376c-0.532-0.241-1.129-0.507-1.685-0.507c-0.79,0.062-1.581,0.41-2.371,0.458
	c-1.448,0.086-2.902,0.024-4.458,0.024C-63.878,63.659-65.573,67.086-70.431,69.403z M127.094,66.169l-0.098-0.482
	c-0.771-0.168-1.52-0.338-2.316-0.459c-1.955-0.313-4.054-0.288-5.864-0.989c-2.921-1.11-5.189-0.434-7.193,1.689
	c-0.41,0.436-0.809,1.4-0.603,1.811c0.362,0.699,1.159,1.497,1.869,1.617c1.559,0.241,3.175,0.121,4.768,0.072
	c0.953-0.024,1.918-0.338,2.86-0.29c2.1,0.073,4.2,0.29,6.287,0.482c1.738,0.159,3.439,0.314,5.152,0.58
	c0.352,0.084,0.953,0.663,0.894,0.869c-0.387,1.447,0.531,2.535,1.086,3.596c0.664,1.231,1.821,2.026,3.463,1.714
	c1.667-0.302,3.355-0.458,5.021-0.651c1.243-0.146,2.484-0.483,2.884-1.689c0.47-1.352,0.108-2.703-1.037-3.958
	c0,0.795,0.204,1.472-0.036,1.932c-0.483,0.988-1.003,2.363-1.835,2.701c-2.56,1.015-4.296-0.096-4.586-2.967
	c-0.194-1.871-0.29-2.27-2.196-2.451c-5.093-0.458-10.186-0.783-15.278-1.241c-2.413-0.194-4.827-0.532-7.24-0.785v-1.654
	c1.037,0,2.075-0.096,3.114,0.037c3.259,0.276,6.492,0.699,9.75,1.002C126.346,66.678,126.73,66.338,127.094,66.169L127.094,66.169z
	 M-47.285,79.009c1.406-0.313,2.83-0.602,4.242-0.916c0.024,0.12,0.048,0.241,0.073,0.361c-1.424,0.315-2.83,0.628-4.255,0.942
	C-47.236,79.276-47.261,79.129-47.285,79.009z M-10.696,59.822c1.449-0.387,2.878-0.772,4.266-1.159
	c-0.682-0.99-1.93-1.714-3.138-1.495c-2.733,0.458-5.454,0.988-8.158,1.593c-3.68,0.845-7.343,1.797-11.024,2.654
	c-3.24,0.761-6.498,1.376-9.726,2.208c-2.185,0.556-2.492,1.159-2.299,3.343c-0.416-0.772-0.778-1.568-1.122-2.354
	c-0.188-0.434-0.26-1.073-0.555-1.243c-1.128-0.554-1.116-1.617-1.334-2.582c-0.26-1.085-0.471-2.22-0.622-3.33
	c-0.06-0.53,0.072-1.087,0.103-1.448c-0.519-0.795-1.285-1.521-1.508-2.39c-0.296-1.207-0.212-2.511-0.26-3.789
	c-0.223-5.841,0.58-11.537,2.334-17.088c0.936-2.92,2.299-5.709,3.482-8.604c2.932,1.677,4.067,1.772,5.056,0.76
	c-0.851-0.071-1.913,0.023-2.793-0.326c-0.923-0.374-1.677-1.147-2.643-1.847c-5.883,9.57-7.229,20.407-5.811,31.883
	c-0.453-0.409-0.85-0.894-0.911-1.4c-0.779-7.07-0.26-14.131,1.225-21.022c0.802-3.764,2.74-7.287,4.188-10.901
	c0.248-0.615,0.73-0.754,1.334-0.394c0.657,0.382,1.333,0.702,2.002,1.052c-1.447-1.733-3.04-3.218-4.7-4.635
	c-0.241-0.211-0.971-0.211-1.206,0c-1.461,1.271-2.866,2.606-4.23,3.989c-0.393,0.415-0.651,1.128,0.151,1.453
	c0.875,0.338,0.917,0.989,0.899,1.738c0,3.233,0,6.467,0,9.701c0,0.387-0.049,0.798-0.086,1.159h-0.132
	c-0.114-1.207-0.224-2.39-0.326-3.596l-0.206,0.012v21.323c-1.315,0-1.803-0.53-1.743-1.738c0.06-1.036-0.024-2.1-0.048-3.16
	c-0.139-5.407-0.301-10.814-0.423-16.219c-0.024-1.232,0.048-2.511,1.768-2.631c0.048,0,0.096-0.17,0.157-0.267
	c-1.803-0.024-2.691-0.941-2.691-2.775c0-0.291,0.012-0.579,0-0.894c-0.036-0.832,0.284-1.229,1.189-1.182
	c0.579,0.024,1.17-0.097,1.762-0.146c-0.013-0.072-0.024-0.146-0.036-0.217c-0.767-0.217-1.545-0.423-2.299-0.628
	c0.53-0.579,0.917-0.916,1.212-1.303c0.628-0.815,1.134-1.744,1.852-2.463c1.165-1.146,2.45-2.147,3.687-3.209
	c-0.778-1.262-1.497-2.413-2.226-3.597c-0.876,1.014-1.671,1.926-2.462,2.842c-3.904,4.508-5.828,9.805-6.063,15.707
	c-0.199,4.778-0.127,9.521-0.296,14.3c-0.126,3.173-1.08,6.105-3.102,8.616c-0.446,0.556-1.067,0.942-1.599,1.4
	c0.869-0.024,1.611-0.364,2.378-0.458c0.555-0.074,1.502,0,1.677,0.337c0.941,1.786,3.125,1.304,4.375,2.51
	c0.15,0.145,0.567,0,0.851-0.023c0.41-0.049,0.796-0.12,1.116-0.169c-0.139,0.783-0.585,1.713-0.295,2.173
	c0.911,1.471,2.076,2.774,3.186,4.126c1.135,1.352,2.534,2.533,3.445,4.006c1.309,2.124,2.637,4.175,4.586,5.794
	c-0.948,0.458-1.828,0.965-2.77,1.327c-2.48,0.905-4.954,1.846-7.711,1.484c-1.913-0.254-3.85-0.446-5.781-0.507
	c-1.888-0.049-3.62-1.183-5.587-0.761c-0.109,0.023-0.26,0-0.368-0.049c-2.148-0.904-4.302-1.798-6.438-2.751
	c-0.495-0.218-0.93-0.603-1.412-0.844c-2.021-0.967-3.729-2.331-5.436-4.057c0.633-0.168,1.062-0.239,1.508-0.35
	c5.104-1.194,7.663-5.538,4.772-10.426c-1.261-2.111-3.089-3.657-5.02-5.093c-1.979-1.472-2.004-1.425-1.195-3.776
	c0.259-0.772-0.338-1.412-1.117-1.594c-1.158-0.242-2.359-0.555-3.385-1.11c-1.226-0.65-2.287-1.593-3.705-2.63
	c0.223,0.507,0.247,0.699,0.355,0.82c1.381,1.519,2.806,2.992,4.151,4.514c0.507,0.577,0.881,1.254,1.297,1.905
	c-0.108,0.121-0.236,0.242-0.344,0.351c-0.693-0.229-1.369-0.436-2.063-0.663c0.458,0.434,0.965,0.736,1.472,1.013
	c3.125,1.774,6.227,3.549,8.302,6.663c1.69,2.533,2.1,6.431-0.965,8.108c-1.346,0.785-2.927,1.157-4.459,1.546
	c-1.285,0.313-2.63,0.36-4.042,0.53c2.854,3.499,6.969,6.202,9.442,6.396c-2.202-1.641-4.561-3.391-6.919-5.165l0.234-0.398
	c8.514,7.724,18.657,10.102,29.819,9.316c-0.929,0.276-1.87,0.579-2.896,0.881c0.139,0.267,0.248,0.458,0.435,0.82
	c-0.766,0.097-1.46,0.29-2.148,0.29c-2.534,0.047-5.092,0.192-7.603,0c-1.768-0.169-3.494-0.844-5.226-1.304
	c-0.482-0.146-0.917-0.434-1.381-0.604c-5.491-1.979-10.493-4.754-14.795-8.762c-1.013-0.917-2.111-1.447-3.595-1.543
	c-3.21-0.219-6.324-0.967-9.082-2.776c-0.905-0.604-1.804-1.23-2.92-1.979c0.211,0.362,0.259,0.482,0.338,0.579
	c3.27,3.983,7.869,5.188,12.653,5.768c1.508,0.194,2.583,0.677,3.657,1.644c2.932,2.629,6.142,4.887,9.726,6.539
	c0.507,0.219,1.17,0.194,1.593,0.507c2.384,1.738,5.189,2.631,7.958,2.92c3.953,0.435,7.996,0.146,12.014,0.122
	c0.628,0,1.273-0.217,1.9-0.314c1.002-0.144,2.191,0.047,2.969-0.434c0.936-0.604,1.804-1.063,2.915-1.255
	c0.706-0.121,1.333-0.7,2.015-1.039c1.051-0.507,2.064-1.278,3.174-1.472c2.746-0.508,5.54-0.747,7.947-1.062
	c0.742,0.362,1.212,0.772,1.708,0.795c3.125,0.219,6.263,0.315,9.389,0.46c0.163,0,0.319-0.073,0.482-0.122
	c0.532-0.204,1.062-0.458,1.617-0.638c0.446-0.146,0.917-0.217,1.375-0.303c-0.019-0.121-0.042-0.254-0.055-0.36h-7.795
	c-0.012-0.098-0.024-0.219-0.036-0.315c3.209-0.58,6.39-1.255,9.4-2.606c-1.466,0.242-2.927,0.483-4.399,0.7
	c-0.012-0.097-0.037-0.193-0.061-0.278c0.296-0.096,0.591-0.252,0.905-0.301c2.48-0.579,4.979-1.11,7.464-1.701
	c1.889-0.447,2.492-1.23,2.269-3.163c-0.259-2.124-0.615-4.224-1.039-6.358c-0.32-1.617-1.272-2.174-2.878-1.799
	c-0.935,0.204-1.864,0.41-2.805,0.64h-0.037c-1.557,0.35-3.113,0.724-4.67,1.11l-0.084-0.482L-10.696,59.822z M-52.981-17.285
	L-52.981-17.285c-0.507-1.267-0.802-1.346-1.828-0.555c-0.881,0.67-1.804,1.273-2.697,1.907c2.781-2.347,5.575-4.712,8.357-7.059
	l0.259,0.211c-0.163,0.211-0.259,0.506-0.483,0.621c-2.298,1.159-2.582,3.047-2.123,5.334c0.428,2.19,0.676,4.411,1.025,6.625
	c0.061,0.369,0.108,0.863,0.355,1.051c0.483,0.374,1.074,0.579,1.629,0.851c-0.012-0.49,0.066-0.996-0.06-1.466
	c-0.779-3.053-1.616-6.094-2.359-9.159c-0.084-0.369,0.139-0.99,0.435-1.25c1.454-1.285,2.914-2.57,4.507-3.668
	c0.989-0.683,1.099-1.153,0.175-1.889c-0.103,0.024-0.248,0.012-0.332,0.084c-2.709,1.943-5.455,3.833-8.085,5.859
	c-3.494,2.703-6.855,5.581-10.367,8.278c-2.166,1.666-3.892,3.421-3.759,6.426c0.103,2.371-1.84,3.584-3.246,5.014
	c-2.401,2.438-4.018,5.304-4.513,8.641c-0.26,1.792-1.297,2.468-2.655,3.065c-0.459,0.199-0.917,0.356-1.37,0.543l0.06,0.368
	c0.779-0.061,1.557-0.248,2.323-0.181c0.754,0.061,1.484,0.368,2.209,0.567c0,0.133,0,0.272,0,0.393
	c-0.983,0.494-1.974,0.977-3.222,1.586c1.52,0.23,2.468,0.76,2.443,2.22c-0.012,1.088,0,2.179,0,3.266
	c-0.108,0.036-0.223,0.061-0.332,0.096c-0.38-0.767-0.851-1.497-1.146-2.299c-0.833-2.312-1.708-4.598-3.688-6.203
	c-0.368-0.308-1.025-0.271-1.43-0.543c-0.609-0.398-1.472-0.851-1.611-1.449c-0.38-1.532-0.488-3.149-0.579-4.743
	c-0.025-0.47,0.198-1.158,0.543-1.393c1.803-1.237,3.698-2.347,5.563-3.5c0.121-0.072,0.26-0.127,0.393-0.187l0.187,0.283
	c-1.43,1.249-2.866,2.499-4.303,3.747c0.042,0.06,0.079,0.133,0.115,0.211c1.37-0.742,2.758-1.484,4.411-2.36
	c0,2.89-2.322,3.434-3.584,4.942c1.014-0.283,2.027-0.585,3.089-0.881c0.567,2.438-1.665,2.794-2.691,3.922
	c1.503-0.127,2.987-0.248,4.623-0.386c-0.164-0.417-0.483-0.911-0.561-1.454c-0.181-1.189-0.628-2.486-0.32-3.548
	c1.25-4.327,2.697-8.581,4.139-12.84c0.609-1.781,1.389-3.5,2.335-5.255c0.175,0.832,0.338,1.648,0.555,2.733
	c0.471-0.049,1.274,0.108,1.545-0.199c0.422-0.507,0.634-1.297,0.669-1.973c0.036-0.694-0.12-1.46-0.404-2.087
	c-0.857-1.871-0.139-3.44,0.826-4.96c2.703-4.248,5.661-8.302,9.588-11.531c1.334-1.099,0.929-2.1-0.036-3.101
	c-1.684-1.756-2.324-1.805-4.188-0.121c-1.484,1.285-2.806,2.77-4.207,4.175c-1.182,1.201-2.419,2.359-3.56,3.608
	c-0.814,0.917-1.502,1.955-2.256,2.927c-0.338,0.435-0.682,0.845-1.026,1.279l-0.296-0.199c0.061-0.235,0.108-0.471,0.181-0.707
	c0.271-0.862,0.103-0.99-0.79-0.93c-0.344,0.024-0.827-0.343-1.075-0.663c-2.189-2.83-4.35-5.672-6.51-8.526
	c-0.151,0.073-0.284,0.145-0.436,0.211c0.2,0.404,0.333,0.851,0.592,1.207c2.661,3.524,5.34,7.018,8.266,10.861
	c0.833-1.158,1.636-2.281,2.402-3.348c1.508,0.917,2.099,2.437,3.819,1.991c-1.756,2.473-3.416,4.905-5.171,7.252
	c-1.726,2.323-3.777,4.435-4.519,7.391c0.603-0.814,1.2-1.629,2.003-2.733c-0.199,0.681-0.295,1.026-0.398,1.387l0.15,0.108
	c0.26-0.283,0.507-0.566,0.792-0.898c0.132,0.206,0.271,0.332,0.259,0.405c-1.285,4.127-3.325,7.699-7.229,9.938
	c-0.857,0.494-1.508,1.333-2.347,1.852c-0.803,0.496-1.755,0.767-2.733,1.177c-0.471-1.496-0.496-2.473,0.626-3.264
	c2.896-2.027,5.751-4.115,8.628-6.167c0.122-0.084,0.236-0.211,0.345-0.308l-0.223-0.337c-3.337,2.154-6.667,4.29-10.144,6.528
	c-0.162-0.742-0.199-1.459-0.482-2.063c-0.779-1.695-2.276-2.239-4.043-2.286c-2.468-0.073-4.93-0.224-7.748-0.356
	c1.038-1.352,1.768-2.426,2.649-3.367c0.272-0.296,0.923-0.332,1.406-0.332c1.544,0,3.089,0.198,4.622,0.06
	c1.581-0.133,3.137-0.519,4.682-0.887c0.32-0.072,0.706-0.507,0.79-0.838c0.248-0.966,0.362-1.955,0.508-2.945
	c0.078-0.507,0.21-1.014,0.138-1.508c-0.223-1.738,0.519-3.21,1.925-4.164c2.154-1.418,4.218-2.95,6.45-4.531
	c-1.713-2.143-3.21-4.007-4.693-5.883c-1.171-1.484-2.36-2.957-3.446-4.501c-0.917-1.297-0.67-2.619,0.495-3.692
	c0.827-0.767,1.617-1.582,2.517-2.264c0.584-0.446,1.364-0.591,1.967-1.013c1.333-0.923,2.607-1.949,3.928-2.927
	c0.47-0.344,0.941-0.814,1.472-0.941c0.954-0.235,1.11-0.959,1.212-1.653c0.236-1.659,0.64-3.156,2.136-4.151
	c0.954-0.646,1.841-1.364,2.697-2.118c0.507-0.453,0.887-0.7,1.466-0.133c0.079,0.073,0.586-0.247,0.858-0.422
	c0.308-0.205,0.591-0.459,0.971-0.754c0.126,0.657,0.199,1.025,0.259,1.399c0.26-0.036,0.682,0,0.778-0.175
	c0.163-0.26,0.212-0.651,0.163-0.978c-0.223-1.195,0.308-2.04,1.684-2.522c0.181,0.302,0.38,0.609,0.567,0.917
	c0.235-0.283,0.47-0.58,0.851-1.05c1.472,0.507,3.264,0.779,4.622,1.678c1.262,0.832,2.052,2.377,3.103,3.56
	c0.693,0.778,1.472,1.472,2.262,2.142c0.199,0.157,0.639,0.169,0.887,0.073c1.364-0.543,2.77-1.038,4.043-1.78
	c0.887-0.506,1.569-1.357,2.359-2.051c1.683-1.46,3.855-1.544,5.871-1.992c2.335-0.518,4.694-0.989,7.065-1.321
	c1.834-0.26,3.7-0.332,5.539-0.429c3.88-0.211,7.76-0.374,11.639-0.561c1.497-0.072,2.546,0.597,3.434,1.744
	c0.374,0.47,1.001,0.917,1.562,1.001c4.694,0.754,9.414,1.413,14.119,2.124c0.706,0.103,1.376,0.435,2.076,0.543
	c1.611,0.26,3.228,0.586,4.846,0.658c1.695,0.073,3.312,0.06,4.918,0.863c0.928,0.471,2.153,0.362,3.204,0.609
	c2.249,0.543,4.446,1.183,6.702,1.726c1.292,0.308,2.728,0.283,3.923,0.803c2.581,1.128,5.057,2.522,7.565,3.807
	c1.521,0.778,3.042,1.581,4.586,2.359c0.748,0.375,1.544,0.646,2.257,1.092c2.039,1.273,3.971,2.715,6.07,3.868
	c0.894,0.495,2.112,0.495,3.186,0.531c1.099,0.049,2.221-0.127,3.428-0.199c-1.28-3.313,1.279-5.032,3.343-6.734
	c1.423-1.188,3.269-0.398,4.79,0.38c4.659,2.39,8.352,5.919,11.658,9.877c1.062,1.262,1.075,3.609-0.133,4.073
	c-1.894,0.73-1.074,2.064-1.123,3.216c-0.022,0.2,0.531,0.658,0.664,0.592c1.062-0.416,1.473,0.434,1.726,1.025
	c0.506,1.249,1.062,2.323,2.463,2.757c1.181,0.356,1.255,1.497,1.508,2.432c0.276,1.014,0.783,1.322,1.822,1.116
	c1.568-0.313,2.606,0.368,3.113,1.877c0.482,1.418,0.893,2.854,1.34,4.278c2.969-0.573,3.15-0.422,4.864,4.399
	c1.447-0.917,2.87-0.742,4.271,0.084c1.254,0.73,1.906,1.955,1.424,3.186c-0.409,1.056,0.133,1.375,0.772,1.931
	c1.642,1.382,3.307,2.77,4.706,4.375c2.1,2.42,2.402,5.364,1.738,8.599c2.993,0.434,5.9,0.857,8.822,1.261
	c1.556,0.211,2.858,0.754,3.872,2.088c0.81,1.116,1.812,2.099,2.776,3.114c0.205,0.223,0.566,0.337,0.869,0.396
	c2.534,0.436,5.067,0.815,7.603,1.262c2.655,0.46,5.31,0.912,7.94,1.454c1.689,0.368,2.329,1.431,2.147,3.168
	c-0.047,0.41-0.097,0.845-0.17,1.256c-0.505,2.701-1.108,3.281-4.102,3.896c0.133-0.809,0.253-1.592,0.386-2.377
	c0.169-0.94-0.844-1.834-1.592-1.28c-1.352,0.991-2.692,0.314-3.983,0.243c-2.306-0.145-4.586-0.531-6.927-0.556
	c3.198,0.52,6.396,1.038,9.583,1.568v0.423c-0.509,0.049-1.015,0.205-1.497,0.133c-2.823-0.361-5.6-0.772-8.4-1.157
	c-0.456-0.062-0.916-0.051-1.375-0.074c-0.023,0.109-0.048,0.218-0.096,0.313c0.675,0.217,1.315,0.46,2.002,0.605
	c1.11,0.253,1.836,0.759,1.618,2.051c-0.218,1.327-0.302,2.69-0.604,3.982c-0.096,0.374-0.663,0.82-1.063,0.894
	c-0.385,0.071-0.843-0.291-1.243-0.531c-0.614-0.362-1.217-0.773-1.772-1.231c-0.254-0.217-0.532-0.604-0.532-0.893
	c0.099-1.183,0.278-2.317,0.254-3.523c-0.362,1.374-0.832,2.726-1.062,4.126c-0.204,1.279-0.808,1.521-1.907,1.256
	c-0.446-0.121-0.903-0.17-1.544-0.254v-3.825c-0.084,0-0.182,0-0.253,0c-0.194,1.243-0.579,2.486-0.482,3.704
	c0.047,0.53,1.063,0.989,1.629,1.46c-1.341-0.556-3.294,0.362-4.042-1.64c-0.013-0.049-0.146-0.073-0.243-0.073
	c-2.316-0.254-4.634-0.531-6.95-0.785l-0.085,0.447c2.197,0.411,4.381,0.82,6.579,1.219l-0.147,0.276
	c0.315,0.268,0.604,0.688,0.966,0.763c1.292,0.204,2.582,0.276,3.874,0.433v-0.023c-0.375,3.04-0.736,6.07-1.123,9.112
	c-0.217,1.676-0.421,3.354-0.675,5.02c-0.109,0.578-0.337,1.133-0.507,1.713l0.411,0.157c0.289-0.81,0.724-1.617,0.867-2.449
	c0.531-2.945,0.967-5.902,1.425-8.846c0.072-0.459,0.12-0.906,0.157-1.365c0.072-0.94,0-1.93,1.436-1.809
	c0.192,0.024,0.482-0.267,0.628-0.507c0.65-0.919,1.762-0.966,2.1,0.047c0.458,1.328,1.544,1.184,2.461,1.255
	c0.713,0.073,1.727-1.496,1.811-2.316c0.193-1.738,0.41-3.474,0.651-5.285c1.135,0.205,2.076,0.361,3.09,0.568
	c-0.748,1.797,0.338,3.896-1.87,5.332c0.639,0.108,0.979,0.254,1.169,0.182c1.644-0.846,3.308-0.29,4.962-0.241
	c0.397,0.013,0.783-0.266,1.207-0.447c0.807-0.301,1.651-0.905,2.461-0.881c2.352,0.073,4.705,0.363,7.06,0.58
	c2.099,0.192,2.896,0.989,3.041,3.088c0.169,2.633,0.302,5.263,0.458,7.894c0.073,1.376,0.073,2.703-1.376,3.499
	c-0.168,0.098-0.144,0.604-0.168,0.917c-0.253,3.946-0.458,7.893-0.761,11.826c-0.047,0.628-0.471,1.231-0.761,1.847
	c-0.41,0.965-0.41,1.799,0.387,2.655c1.11,1.219,1.689,2.666,1.593,4.38c-0.097,1.643,0.194,3.234-0.868,4.852
	c-1.207,1.785-2.632,2.896-4.707,3.188c-2.075,0.288-4.199,0.385-6.274,0.675c-2.027,0.264-4.056-1.786-4.563-3.343
	c-0.278-0.834-0.58-1.75-1.063-2.475c-0.228-0.386-0.843-0.664-1.314-0.735c-2.812-0.301-5.611-0.557-8.435-0.81
	c-0.254-0.06-0.507-0.06-0.75-0.108c-0.94-0.254-1.736-0.482-2.799,0.182c-1.11,0.675-2.605,0.626-3.813-0.41
	c-0.182-0.146-0.65-0.097-0.892,0.024c-1.184,0.627-1.57,0.433-2.318-0.725c-0.266-0.41-1.086-0.458-1.714-0.566
	c-1.592-1.619-1.061-3.345,0.242-5.13c-2.316-0.229-4.417-0.361-6.47-0.664c-1.447-0.229-2.848-0.761-4.295-0.989
	c-0.604-0.096-1.28,0.229-1.882,0.253c-0.883,0-1.703-0.071-2.486,0.579c-0.447,0.387-1.291,0.46-1.919,0.411
	c-2.185-0.229-4.357-0.507-6.505-0.845c-1.098-0.17-2.412-0.17-3.222-0.796c-1.449-1.087-2.716-2.1-4.659-2.269
	c-1.025-0.097-2.063-1.135-2.884-1.931c-0.506-0.507-0.664-1.378-1.036-2.27c-0.652,0.071-1.521,0.144-2.39,0.253
	c-1.667,0.229-3.212-1.085-3.259-2.751c-0.267-6.433,0.384-12.791,1.954-19.056c0.301-1.23,0.579-2.449,1.026-3.608
	c0.641-1.652,1.772-2.159,3.427-1.628c1.292,0.409,2.329,0.458,3.487-0.482c1.497-1.208,3.368-0.834,5.143-0.604
	c0.892,0.144,1.664,0.435,2.46-0.531c0.398-0.507,1.568-0.652,2.329-0.556c2.885,0.339,5.745,0.821,8.604,1.267
	c0.458-0.928,0.941-1.797,1.353-2.715c0.288-0.628,0.192-1.134-0.652-1.279c-0.616-0.096-1.303-0.119-1.811-0.411
	c-0.796-0.456-1.52-1.084-2.185-1.736c-0.35-0.339-0.602-0.821-0.747-1.279c-0.664-2.28-3.343-3.18-3.729-5.787l-5.405,4.151
	c-1.932,1.251-3.742,2.529-4.829,4.749c-0.94,1.955-3.161,2.196-5.068,2.293c-5.44,0.29-10.908,0.339-16.338,0.578
	c-6.107,0.266-12.213,0.509-18.319,1.016c-2.221,0.192-4.368,1.182-6.565,1.761c-4.634,1.219-9.158,0.942-13.593-0.965
	c-1.98-0.857-4.007-1.617-6.295-2.533c0.707,3.752,1.298,7.119,2.003,10.486c1.086,5.189,2.25,10.354,3.386,15.53
	c0.084,0.399,0.223,0.833,0.458,1.159c1.169,1.544,1.406,4.127,0.458,5.552c-0.916,1.388-4.176,2.823-5.985,2.146
	c-0.779-0.29-1.545-0.638-2.348-0.965c-0.566,1.23-1.133,2.438-1.713,3.644C6.423,70.031,2.79,73.701-2.363,75.68
	c-3.18,1.206-6.444,2.196-9.726,3.112c-1.274,0.325-2.698,0.278-4.031,0.169c-5.026-0.435-10.058-0.988-15.102-1.447
	c-1.888-0.169-3.494,0.337-5.202,1.495c-1.974,1.376-4.471,2.294-6.854,2.68c-3.392,0.555-6.873,0.482-10.324,0.628
	c-1.545,0.071-3.102,0.097-4.634-0.049c-1.545-0.168-3.089-0.482-4.58-0.918c-6.528-1.953-12.273-5.31-17.305-9.847
	c-1.146-1.037-2.492-0.94-3.777-1.108c-4.127-0.531-7.874-1.932-10.999-4.684c-3.916-3.427-5.919-7.723-4.779-13.032
	c0.271-1.303,0.996-2.486,1.418-3.766c0.331-0.99,0.518-2.052,0.79-3.149c-3.482-0.858-5.955-2.86-8.465-4.887
	c-1.285-1.039-2.866-1.668-4.327-2.486c-0.355-0.218-0.851-0.34-1.05-0.652c-1.194-1.919-2.619-3.766-2.546-6.252
	c0.03-0.771-0.109-1.615-1.43-1.472c-1.829,0.182-3.078-1.062-3.536-2.885c-1.557-6.094-0.628-12.134,0.319-18.18
	c0.248-1.52,0.918-2.962,1.166-4.494c0.271-1.629,1.333-1.533,2.594-1.51c-0.32,1.521-0.718,2.97-0.929,4.448
	c-0.344,2.534-0.779,5.068-0.827,7.614c-0.072,3.409,0.139,6.824,0.296,10.25c0.139,2.995,1.321,3.188,4.23,2.934
	c0-1.797,0.048-3.608-0.023-5.418c-0.025-0.916-0.731-2.215-0.351-2.674c0.683-0.79,0.567-1.544,0.646-2.322
	c0.345-3.439,0.58-6.897,1.026-10.318c0.26-1.967,0.778-3.892,1.322-5.798c0.12-0.435,0.851-0.683,1.417-1.099l0.314,1.122
	c1.876-0.392,2.963,0.532,3.505,2.263c0.163-0.114,0.271-0.138,0.283-0.187c0.507-2.51,1.648-2.95,4.104-3.313
	c2.709-0.392,5.304,0.719,7.971,0.054c0.869-0.199,1.732,0.308,2.534,0.453c0.387,0.079,0.779,0.066,1.111,0.09V3.23
	c-4.791,0.2-9.527,0.41-14.27,0.604l0.012,0.61c1.05,0,2.099,0.084,3.138-0.012c3.583-0.386,7.156-0.471,10.728-0.012
	c1.122,0.145,1.841,1.122,1.804,2.371c-0.024,0.839-0.114,1.691-0.06,2.534c0.06,1.262-0.597,1.781-1.732,1.829
	c-3.747,0.175-7.476,0.32-11.223,0.471c-0.948,0.024-1.853,0.073-2.715,0.935h13.021c0.385,0,0.82-0.132,1.127,0
	c0.471,0.212,1.11,0.544,1.208,0.953c0.447,1.804,0.742,3.634,1.025,5.462c0.362,2.273,0.659,4.549,0.979,6.842
	c0.126,0.869,0.294,1.665-1.111,1.642c-2.136-0.049-4.277,0.107-6.414,0.169c-0.458,0.011-0.899,0-1.345,0v0.385h8.399
	c-0.061,0.387-0.061,0.689-0.145,0.918c-0.645,1.75-0.199,3.161,0.99,4.562c0.778,0.918,1.296,2.077,1.936,3.138l0.447-0.229
	c-0.615-1.388-1.086-2.838-1.865-4.141c-0.778-1.279-0.258-2.269,0.345-3.281c0.398-0.652,1.164-0.509,1.436,0.217
	c0.217,0.591,0.295,1.23,0.465,1.834c0.742,2.776,2.311,5.093,3.898,7.457c1.013,1.521,1.605,3.308,2.679,4.78
	c1.285,1.799,1.829,4.078,3.832,5.394c0.954,0.628,1.829,1.002,2.769,0.327c0.936-0.725,1.491-1.714,1.026-3.21
	c-0.386,0.868-0.706,1.567-1.014,2.268l-0.26-0.097c0.134-0.434,0.284-0.892,0.429-1.339c-2.113-0.362-3.198-1.243-3.313-3.247
	c-0.096-1.738-1.285-2.425-2.468-3.644c0.133,0.555,0.199,0.844,0.272,1.135c-0.049,0.024-0.084,0.084-0.139,0.108
	c-0.271-0.362-0.85-0.869-0.766-1.123c0.458-1.184-0.429-1.895-0.936-2.559c-1.815-2.316-3.192-4.826-3.994-7.639
	c-0.048-0.205-0.084-0.387-0.084-0.36c1.381,2.617,2.866,5.394,4.35,8.156l0.447-0.229l-2.094-4.453l0.139-0.037
	c1.098,1.497,2.201,3.019,3.3,4.539c-1.521-2.896-3.054-5.818-4.646-8.858c0.899-0.387,1.545-0.628,2.185-0.892c0,0,0-0.025,0-0.049
	l0.048,0.049h-0.036c0.012,0.204,0.012,0.408,0.09,0.578c1.594,3.499,3.222,6.975,4.803,10.499c0.151,0.35,0.013,0.81,0.013,1.339
	c-0.52-0.337-0.864-0.566-1.22-0.784c0.452,1.715,1.641,1.159,2.715,0.991c-0.519-1.256-0.989-2.438-1.52-3.597
	c-1.358-2.971-2.729-5.938-4.14-8.883c-0.06-0.144-0.447-0.144-0.706-0.192c-0.815-1.774-1.581-3.572-2.443-5.311
	c-1.099-2.184-2.287-4.332-3.434-6.499l1.393-0.084c-0.138-0.567-0.186-1.182-0.458-1.689c-0.355-0.682-0.887-1.28-1.225-1.992
	c1.038,0.911,2.051,1.756,2.377,3.301c0.259,1.23,1.062,2.346,1.593,3.528c0.779,1.746,1.521,3.482,2.275,5.232
	c0.108-0.035,0.235-0.06,0.356-0.084c0.024-0.29,0.072-0.604,0.084-0.905c0.26-4.587,0.421-9.171,0.809-13.745
	c0.205-2.492,1.333-4.743,2.691-6.843c2.172-3.348,5.068-6.022,8.266-8.712c0.272,3.759-0.73,7.584,2.227,10.613
	c-2.287-3.844-0.906-8.042-1.375-12.169c-0.356,0.138-0.688,0.259-1.371,0.519c0.411-0.978,0.695-1.684,0.99-2.372l-0.175-0.248
	c-0.912,0.791-2.064,1.43-2.655,2.42c-0.58,0.941-0.58,2.227-1.051,3.301c-0.235-1.901,0.024-3.645,1.629-4.93
	c2.782-2.25,5.551-4.514,8.333-6.758c-0.458,0.417-0.965,0.815-1.363,1.279c-0.676,0.809-1.78,1.636-1.865,2.535
	c-0.319,3.179-0.308,6.39-0.368,9.594c0,0.441,0.344,0.888,0.543,1.322c0.417-0.236,0.887-0.411,1.249-0.718
	c2.034-1.804,3.952-3.771,6.088-5.437c1.153-0.893,1.685-1.804,1.557-3.18c-0.096-1.207-0.108-2.444-0.331-3.645
	c-0.175-0.924-0.604-1.816-0.918-2.716l-0.011-0.048c0,0.012,0.011,0.037,0.011,0.048c0.104,2.324,0.26,4.635,0.272,6.945
	c0,0.519-0.296,1.171-0.688,1.533c-1.062,0.989-2.25,1.852-3.451,2.83c-0.591-1.038-1.171-2.026-1.726-3.004
	c-0.103,0.06-0.187,0.126-0.272,0.187c0.169,0.47,0.332,0.924,0.507,1.394c0.193,0.519,0.429,1.014,0.567,1.532
	c0.097,0.375,0.06,0.778,0.097,1.153c-0.519-0.458-0.731-0.917-0.948-1.364c-1.708-3.542-1.611-3.976,1.418-6.39l2.19-2.064
	c-0.065-0.06-0.139-0.133-0.211-0.206c-1.399,0.923-2.781,1.853-4.163,2.794c0.011-0.646,0.12-1.237,0.476-1.545
	c1.532-1.309,3.131-2.559,4.737-3.783C-53.808-17.158-53.367-17.169-52.981-17.285z"/>
</svg>
