<?xml version="1.0" encoding="iso-8859-1"?>
<!-- Generator: Adobe Illustrator 15.1.0, SVG Export Plug-In . SVG Version: 6.00 Build 0)  -->
<!DOCTYPE svg PUBLIC "-//W3C//DTD SVG 1.1//EN" "http://www.w3.org/Graphics/SVG/1.1/DTD/svg11.dtd">
<svg version="1.1" id="Layer_2" xmlns="http://www.w3.org/2000/svg" xmlns:xlink="http://www.w3.org/1999/xlink" x="0px" y="0px"
	 width="283.46px" height="283.46px" viewBox="0 0 283.46 283.46" style="enable-background:new 0 0 283.46 283.46;"
	 xml:space="preserve">
<path d="M49.48,64.166c0.437-0.509,0.607-1.032,0.521-1.598c-0.087-0.576-0.417-1.113-0.982-1.597
	c-0.547-0.47-1.131-0.698-1.729-0.652c-0.602,0.034-1.134,0.321-1.587,0.85l-0.505,0.586l3.657,3.139L49.48,64.166z"/>
<polygon points="138.121,261.71 140.211,261.742 139.216,258.115 "/>
<polygon points="141.163,18.304 140.067,21.898 142.158,21.931 "/>
<path d="M113.207,24.783c0.654-0.152,1.101-0.471,1.366-0.977c0.272-0.514,0.324-1.144,0.156-1.87
	c-0.163-0.7-0.502-1.221-1.008-1.55c-0.502-0.326-1.104-0.411-1.783-0.255l-0.753,0.176L112.274,25L113.207,24.783z"/>
<path d="M61.34,55.888c0.408,0.461,0.957,0.744,1.628,0.836c0.665,0.094,1.174-0.03,1.561-0.371
	c0.231-0.205,0.391-0.458,0.478-0.752c0.08-0.269,0.112-0.623,0.102-1.053c-1.664-0.387-3.116-0.625-4.321-0.708
	c-0.056,0.309-0.048,0.634,0.023,0.97C60.904,55.231,61.081,55.593,61.34,55.888z"/>
<path d="M100.311,33.303c0.947,0.706,1.915,0.883,2.91,0.531c1.014-0.359,1.653-1.107,1.955-2.288c0.308-1.21,0.2-2.574-0.322-4.052
	c-0.563-1.591-1.344-2.766-2.321-3.49c-0.631-0.469-1.274-0.707-1.912-0.707c-0.316,0-0.638,0.058-0.962,0.171
	c-1.049,0.372-1.708,1.104-2.019,2.241c-0.317,1.163-0.197,2.549,0.358,4.121C98.554,31.404,99.332,32.572,100.311,33.303z"/>
<polygon points="198.406,32.248 195.8,34.96 197.653,35.934 "/>
<path d="M203.888,45.519l0.886,0.595c0.976,0.651,1.979,0.805,3.011,0.459c1.062-0.354,2.035-1.185,2.899-2.475
	c0.922-1.374,1.351-2.694,1.271-3.925c-0.076-1.198-0.666-2.176-1.752-2.906l-1.373-0.924l-4.727,7.041
	c-0.548,0.814-0.684,1.231-0.698,1.438C203.389,45.061,203.544,45.289,203.888,45.519z"/>
<path d="M41.756,84.344c0.206,0,0.359-0.11,0.51-0.366l0.435-0.74c0.258-0.439,0.299-0.881,0.125-1.356
	c-0.181-0.492-0.579-0.921-1.183-1.275c-0.685-0.401-1.361-0.518-2.012-0.342c-0.653,0.177-1.193,0.621-1.606,1.323l-0.339,0.578
	l2.74,1.611C41.197,84.23,41.574,84.335,41.756,84.344z"/>
<path d="M58.957,51.51c0.405,0.124,0.854,0.195,1.336,0.214c0.131-0.723-0.059-1.361-0.576-1.946
	c-0.282-0.32-0.589-0.512-0.918-0.57c-0.063-0.012-0.128-0.017-0.19-0.017c-0.228,0-0.42,0.077-0.606,0.24
	c-0.228,0.203-0.337,0.43-0.342,0.718c-0.007,0.295,0.102,0.565,0.333,0.826C58.186,51.194,58.511,51.374,58.957,51.51z"/>
<polygon points="248.736,80.829 245.08,81.695 246.104,83.515 "/>
<polygon points="226.589,52.45 223.335,54.33 224.841,55.781 "/>
<path d="M37.14,80.963c0.331-0.567,0.43-1.122,0.289-1.645c-0.141-0.525-0.507-0.963-1.091-1.306
	c-0.617-0.364-1.195-0.485-1.717-0.357c-0.517,0.125-0.959,0.496-1.313,1.098l-0.366,0.623l3.813,2.242L37.14,80.963z"/>
<polygon points="108.361,257.154 110.377,257.703 110.312,253.94 "/>
<path d="M168.104,30.45c1.034,0.248,2.004-0.041,2.884-0.856c0.92-0.849,1.57-2.052,1.936-3.576c0.395-1.643,0.377-3.052-0.051-4.19
	c-0.414-1.11-1.105-1.768-2.119-2.01c-0.268-0.065-0.533-0.098-0.787-0.098c-0.76,0-1.477,0.296-2.125,0.878
	c-0.898,0.804-1.553,2.033-1.939,3.654c-0.392,1.621-0.372,3.025,0.055,4.17C166.365,29.539,167.071,30.203,168.104,30.45z"/>
<path d="M168.617,254.448c-0.666-0.637-1.387-0.961-2.144-0.961c-0.208,0-0.423,0.024-0.64,0.07
	c-1.086,0.235-1.834,0.88-2.283,1.971c-0.463,1.113-0.518,2.505-0.164,4.134c0.354,1.631,0.98,2.887,1.861,3.732
	c0.846,0.816,1.771,1.119,2.815,0.895c1.054-0.229,1.781-0.892,2.229-2.023c0.457-1.162,0.521-2.529,0.188-4.061
	C170.125,256.554,169.496,255.291,168.617,254.448z"/>
<path d="M99.181,254.358l-0.628-0.231l-1.104,2.981c-0.311,0.837-0.348,1.228-0.324,1.408c0.016,0.123,0.079,0.301,0.448,0.438
	l0.805,0.299c0.472,0.176,0.924,0.137,1.357-0.117c0.453-0.266,0.805-0.731,1.048-1.389c0.276-0.746,0.271-1.434-0.016-2.043
	C100.479,255.096,99.946,254.642,99.181,254.358z"/>
<path d="M102.406,252.07c0.249-0.674,0.265-1.262,0.049-1.753c-0.215-0.485-0.655-0.856-1.312-1.101l-0.679-0.25l-1.537,4.146
	l0.712,0.265c0.617,0.229,1.18,0.228,1.67-0.002C101.802,253.143,102.169,252.705,102.406,252.07z"/>
<path d="M236.938,46.521c-25.431-25.432-59.242-39.437-95.21-39.437c-35.964,0-69.777,14.005-95.209,39.437
	C21.089,71.952,7.083,105.765,7.083,141.73s14.005,69.777,39.436,95.209c25.432,25.432,59.245,39.438,95.209,39.438
	c35.968,0,69.779-14.006,95.21-39.438s39.438-59.244,39.438-95.209S262.369,71.952,236.938,46.521z M141.729,275.753
	c-73.9,0-134.022-60.123-134.022-134.022c0-73.9,60.122-134.022,134.022-134.022c73.901,0,134.024,60.123,134.024,134.022
	C275.753,215.63,215.63,275.753,141.729,275.753z"/>
<path d="M264.071,90.049c-6.687-15.812-16.263-30.013-28.454-42.205c-12.195-12.195-26.396-21.769-42.205-28.457
	c-16.369-6.922-33.757-10.433-51.684-10.433c-17.925,0-35.314,3.511-51.682,10.433c-15.81,6.688-30.009,16.262-42.204,28.457
	C35.649,60.036,26.075,74.237,19.387,90.049c-6.923,16.368-10.433,33.756-10.433,51.682c0,17.925,3.51,35.313,10.433,51.681
	c6.688,15.813,16.262,30.014,28.456,42.207c12.195,12.192,26.394,21.77,42.204,28.454c16.368,6.925,33.757,10.435,51.682,10.435
	c17.927,0,35.313-3.51,51.683-10.435c15.813-6.687,30.01-16.261,42.207-28.454c12.19-12.192,21.769-26.396,28.453-42.207
	c6.926-16.367,10.436-33.756,10.436-51.681C274.505,123.805,270.996,106.417,264.071,90.049z M252.167,87.996
	c1.15,0.028,2.194,0.324,3.109,0.883c0.924,0.563,1.598,1.314,2,2.231c0.241,0.546,0.396,1.194,0.455,1.928
	c0.048,0.506,0.119,0.755,0.172,0.874c0.068,0.157,0.153,0.189,0.256,0.189l0.146-0.009c0.063-0.008,0.124,0.033,0.151,0.094
	l0.235,0.54c0.037,0.078,0,0.171-0.079,0.205l-3.496,1.545c-0.037,0.017-0.08,0.017-0.119,0.002s-0.067-0.045-0.088-0.082
	l-0.234-0.536c-0.03-0.072-0.006-0.157,0.063-0.197l0.119-0.07c0.771-0.458,1.29-1.073,1.538-1.828
	c0.246-0.753,0.209-1.499-0.107-2.219c-0.4-0.911-1.137-1.459-2.24-1.674c-1.127-0.219-2.416-0.02-3.801,0.591
	c-1.531,0.675-2.653,1.598-3.345,2.741c-0.674,1.123-0.78,2.171-0.327,3.201c0.396,0.896,0.85,1.187,1.457,0.918l1.182-0.523
	c0.767-0.338,1.063-0.593,1.179-0.75c0.082-0.112,0.172-0.304,0.008-0.676l-0.226-0.508c-0.033-0.078,0.004-0.17,0.082-0.205
	l0.602-0.266c0.036-0.017,0.082-0.017,0.118-0.003c0.04,0.015,0.069,0.044,0.088,0.083l1.817,4.119
	c0.017,0.038,0.02,0.081,0.002,0.12c-0.016,0.039-0.045,0.069-0.08,0.086l-0.604,0.266c-0.037,0.017-0.08,0.017-0.119,0.002
	c-0.039-0.014-0.068-0.045-0.088-0.083l-0.062-0.143c-0.146-0.327-0.322-0.523-0.528-0.579c-0.217-0.057-0.595,0.017-1.05,0.217
	l-3.034,1.341c-0.021,0.009-0.042,0.013-0.063,0.013c-0.045,0-0.086-0.02-0.117-0.053l-0.074-0.088
	c-0.184-0.208-0.434-0.604-0.771-1.209c-0.332-0.603-0.566-1.06-0.719-1.398c-0.804-1.821-0.912-3.5-0.324-4.986
	c0.586-1.487,1.744-2.62,3.437-3.366c1.108-0.491,2.231-0.74,3.344-0.74L252.167,87.996z M251.149,79.253l0.638,1.132
	c0.034,0.061,0.023,0.136-0.022,0.187l-7.55,7.734c-0.521,0.534-0.643,0.798-0.668,0.909c-0.041,0.171,0.025,0.417,0.189,0.71
	l0.076,0.136c0.043,0.074,0.018,0.169-0.061,0.211l-0.571,0.321c-0.022,0.015-0.05,0.021-0.076,0.021
	c-0.015,0-0.028-0.003-0.042-0.005c-0.04-0.012-0.074-0.039-0.094-0.074l-1.941-3.449c-0.043-0.075-0.016-0.17,0.061-0.211
	l0.572-0.322c0.072-0.042,0.172-0.016,0.213,0.06l0.076,0.135c0.213,0.376,0.367,0.376,0.422,0.376c0.062,0,0.131-0.023,0.213-0.067
	c0.088-0.051,0.185-0.129,0.283-0.238l2.252-2.295l-1.399-2.49l-2.204,0.505c-0.582,0.133-0.979,0.263-1.191,0.38
	c-0.24,0.136-0.35,0.296-0.146,0.674l0.07,0.135c0.039,0.074,0.014,0.167-0.063,0.208l-0.566,0.32
	c-0.076,0.041-0.173,0.016-0.216-0.058l-1.464-2.603c-0.021-0.036-0.025-0.08-0.018-0.118c0.015-0.041,0.039-0.074,0.074-0.094
	l0.556-0.312c0.063-0.039,0.149-0.022,0.198,0.038l0.082,0.106c0.194,0.246,0.412,0.398,0.646,0.452
	c0.249,0.059,0.753,0.009,1.429-0.142l10.073-2.347C251.046,79.162,251.115,79.194,251.149,79.253z M243.494,66.729l0.301,0.44
	c0.023,0.037,0.031,0.081,0.021,0.124l-0.018,0.066c-0.067,0.301,0.089,0.748,0.457,1.29l3.052,4.493
	c0.384,0.567,0.764,0.905,1.101,0.977l0.061,0.015c0.037,0.008,0.072,0.03,0.097,0.063l0.308,0.451
	c0.047,0.073,0.027,0.168-0.043,0.217l-2.517,1.71c-0.034,0.022-0.077,0.032-0.119,0.022c-0.04-0.006-0.075-0.03-0.099-0.064
	l-0.274-0.403c-0.042-0.062-0.034-0.144,0.019-0.197l0.092-0.091c0.413-0.416,0.624-0.793,0.635-1.119
	c0.012-0.341-0.152-0.764-0.488-1.255l-0.705-1.043l-7.318,4.966c-0.713,0.485-0.908,0.757-0.965,0.876
	c-0.073,0.164-0.02,0.374,0.164,0.646l0.088,0.127c0.047,0.073,0.029,0.169-0.041,0.217l-0.543,0.37
	c-0.026,0.018-0.061,0.027-0.088,0.027c-0.012,0-0.02,0-0.028-0.003c-0.043-0.008-0.077-0.032-0.101-0.066l-2.233-3.288
	c-0.021-0.034-0.032-0.075-0.021-0.118c0.006-0.04,0.027-0.077,0.063-0.099l0.545-0.369c0.07-0.047,0.166-0.03,0.217,0.041
	l0.088,0.129c0.237,0.351,0.434,0.392,0.563,0.392c0.223-0.018,0.582-0.127,1.227-0.564l7.266-4.932l-0.666-0.983
	c-0.357-0.531-0.711-0.851-1.036-0.952c-0.317-0.095-0.701-0.01-1.147,0.25l-0.124,0.074c-0.073,0.041-0.159,0.02-0.209-0.046
	l-0.344-0.506c-0.022-0.034-0.031-0.077-0.022-0.116c0.008-0.042,0.03-0.077,0.064-0.101l2.518-1.707
	C243.348,66.639,243.442,66.657,243.494,66.729z M233.804,57.833c0.076-0.304-0.016-0.649-0.268-1.03l-0.078-0.116
	c-0.043-0.066-0.029-0.154,0.029-0.206l0.489-0.411c0.063-0.055,0.164-0.046,0.219,0.02l1.863,2.213
	c0.03,0.04,0.045,0.093,0.03,0.142l-0.021,0.078l-2.653,9.99l4.576-3.848c0.633-0.535,0.84-0.864,0.897-1.047
	c0.071-0.214-0.011-0.457-0.248-0.74l-0.104-0.119c-0.024-0.032-0.037-0.074-0.033-0.115c0.002-0.041,0.022-0.08,0.057-0.106
	l0.502-0.423c0.064-0.054,0.164-0.046,0.221,0.021l2.213,2.63c0.024,0.032,0.039,0.071,0.032,0.113
	c-0.003,0.041-0.022,0.078-0.056,0.106l-0.502,0.421c-0.066,0.056-0.164,0.046-0.221-0.017l-0.102-0.12
	c-0.236-0.283-0.465-0.427-0.679-0.427l-0.046,0.001c-0.174,0.013-0.521,0.139-1.131,0.653l-7.529,6.333
	c-0.029,0.024-0.066,0.037-0.102,0.037c-0.005,0-0.012,0-0.014-0.001c-0.043-0.004-0.08-0.023-0.107-0.054l-0.354-0.424
	c-0.031-0.04-0.045-0.091-0.031-0.14l0.019-0.078l2.959-11.331l-5.65,4.752c-0.389,0.325-0.615,0.627-0.66,0.872
	c-0.043,0.226,0.063,0.492,0.313,0.789l0.099,0.119c0.029,0.032,0.043,0.071,0.037,0.114c-0.003,0.041-0.022,0.079-0.054,0.105
	l-0.504,0.423c-0.066,0.054-0.164,0.046-0.221-0.018l-2.224-2.643c-0.056-0.066-0.047-0.166,0.021-0.221l0.502-0.424
	c0.03-0.026,0.07-0.046,0.112-0.034c0.043,0.002,0.082,0.022,0.104,0.054l0.102,0.12c0.246,0.291,0.48,0.419,0.708,0.379
	c0.198-0.035,0.574-0.192,1.24-0.753l5.333-4.485C233.41,58.555,233.722,58.157,233.804,57.833z M228.446,50.247l0.937,0.903
	c0.052,0.047,0.063,0.123,0.031,0.184l-5.006,9.58c-0.354,0.687-0.384,0.971-0.378,1.061c0.011,0.178,0.146,0.394,0.386,0.626
	l0.113,0.108c0.063,0.059,0.063,0.158,0.004,0.221l-0.455,0.473c-0.029,0.03-0.074,0.046-0.111,0.047
	c-0.038,0-0.077-0.016-0.106-0.043l-2.853-2.745c-0.063-0.059-0.063-0.158-0.004-0.221l0.455-0.473
	c0.06-0.061,0.158-0.063,0.221-0.004l0.113,0.108c0.297,0.29,0.479,0.334,0.693,0.112c0.071-0.072,0.141-0.178,0.204-0.308
	l1.496-2.848l-2.06-1.981l-1.965,1.118c-0.646,0.368-0.916,0.587-1.029,0.706c-0.193,0.2-0.252,0.385,0.05,0.69l0.106,0.108
	c0.061,0.061,0.061,0.156,0.002,0.217l-0.455,0.472c-0.028,0.03-0.063,0.04-0.11,0.048c-0.039,0-0.079-0.016-0.108-0.044
	l-2.15-2.071c-0.062-0.061-0.063-0.158-0.006-0.221l0.441-0.457c0.053-0.054,0.141-0.065,0.2-0.02l0.11,0.077
	c0.231,0.163,0.477,0.25,0.701,0.25l0.047-0.001c0.184-0.012,0.562-0.116,1.324-0.547l8.977-5.147
	C228.319,50.19,228.396,50.198,228.446,50.247z M216.382,41.142l0.412-0.505c0.056-0.067,0.151-0.077,0.219-0.022l3.156,2.573
	c0.031,0.026,0.053,0.063,0.058,0.104c0.003,0.041-0.011,0.082-0.037,0.115l-0.414,0.509c-0.054,0.066-0.151,0.075-0.22,0.022
	l-0.119-0.098c-0.166-0.138-0.313-0.207-0.428-0.207c-0.077,0-0.19,0.021-0.344,0.209c-0.09,0.11-0.17,0.26-0.238,0.448l-2.551,6.67
	l5.748-3.713c0.248-0.164,0.438-0.325,0.564-0.478c0.206-0.254,0.254-0.477-0.141-0.801l-0.121-0.099
	c-0.065-0.054-0.076-0.152-0.021-0.22l0.411-0.509c0.026-0.032,0.063-0.051,0.104-0.055c0.043-0.004,0.082,0.008,0.113,0.034
	l2.584,2.105c0.029,0.027,0.053,0.063,0.058,0.104c0.003,0.041-0.011,0.082-0.034,0.115l-0.428,0.523
	c-0.057,0.067-0.153,0.077-0.221,0.022l-0.121-0.098c-0.475-0.387-1.338-0.169-2.555,0.624l-8.396,5.41
	c-0.025,0.017-0.057,0.025-0.086,0.025c-0.035,0-0.069-0.012-0.1-0.036l-0.402-0.328c-0.053-0.042-0.066-0.114-0.047-0.176
	l3.662-9.622c0.41-1.095,0.455-1.516,0.444-1.67c-0.017-0.234-0.144-0.452-0.386-0.665l-0.114-0.099
	C216.337,41.303,216.328,41.207,216.382,41.142z M201.306,43.596c0.169-0.078,0.463-0.311,0.904-0.97l4.139-6.166
	c0.451-0.671,0.555-1.029,0.563-1.213c0.01-0.133-0.026-0.341-0.394-0.587l-0.129-0.086c-0.035-0.023-0.06-0.059-0.065-0.099
	c-0.009-0.041,0-0.083,0.022-0.118l0.364-0.545c0.022-0.035,0.062-0.058,0.102-0.066c0.039-0.006,0.082,0.001,0.116,0.024
	l4.106,2.755c1.539,1.033,2.443,2.385,2.691,4.021c0.249,1.624-0.152,3.231-1.188,4.773c-1.021,1.519-2.291,2.451-3.783,2.771
	c-0.352,0.076-0.711,0.114-1.063,0.114c-1.156,0-2.345-0.403-3.533-1.2l-4.217-2.831c-0.066-0.048-0.09-0.144-0.042-0.217
	l0.367-0.544c0.021-0.035,0.06-0.058,0.099-0.066c0.043-0.008,0.086,0.001,0.118,0.024l0.127,0.087
	C200.889,43.639,201.113,43.688,201.306,43.596z M191.08,37.977c0.17-0.061,0.502-0.264,1.121-0.893l7.193-7.436
	c0.048-0.05,0.125-0.062,0.184-0.029l1.151,0.607c0.062,0.031,0.093,0.1,0.079,0.167l-2.148,10.593
	c-0.146,0.728-0.104,1.018-0.068,1.126c0.063,0.165,0.248,0.335,0.546,0.493l0.141,0.071c0.034,0.02,0.063,0.053,0.073,0.093
	c0.014,0.04,0.009,0.082-0.012,0.119l-0.307,0.582c-0.029,0.052-0.082,0.082-0.138,0.082c-0.022,0-0.048-0.005-0.071-0.019
	l-3.502-1.843c-0.076-0.04-0.105-0.135-0.063-0.21l0.307-0.582c0.037-0.077,0.133-0.104,0.209-0.066l0.137,0.073
	c0.164,0.087,0.303,0.131,0.405,0.131c0.091,0,0.195-0.025,0.296-0.215c0.047-0.091,0.084-0.21,0.11-0.353l0.646-3.15l-2.527-1.332
	l-1.575,1.619c-0.517,0.531-0.718,0.818-0.793,0.966c-0.132,0.244-0.136,0.438,0.235,0.646l0.137,0.075
	c0.072,0.041,0.101,0.134,0.063,0.209l-0.306,0.578c-0.021,0.037-0.054,0.064-0.092,0.077c-0.04,0.012-0.082,0.008-0.119-0.011
	l-2.642-1.393c-0.037-0.02-0.065-0.053-0.076-0.093c-0.014-0.038-0.01-0.082,0.011-0.119l0.297-0.562
	c0.034-0.066,0.116-0.1,0.188-0.074l0.125,0.042C190.589,38.045,190.853,38.056,191.08,37.977z M175.593,32.336
	c0.027-0.081,0.117-0.123,0.199-0.092l0.146,0.054c0.358,0.131,0.621,0.127,0.806-0.022c0.154-0.127,0.399-0.451,0.703-1.268
	l2.411-6.539c0.235-0.638,0.31-1.127,0.22-1.452c-0.086-0.3-0.334-0.557-0.744-0.761l-0.125-0.062
	c-0.07-0.037-0.104-0.121-0.076-0.194l0.223-0.602c0.029-0.079,0.119-0.122,0.2-0.091l2.715,1.001
	c0.048,0.017,0.085,0.057,0.099,0.107l2.664,10.07l2.068-5.608c0.286-0.78,0.299-1.167,0.262-1.354
	c-0.045-0.221-0.236-0.391-0.584-0.519l-0.146-0.054c-0.036-0.014-0.068-0.042-0.088-0.081c-0.017-0.037-0.02-0.081-0.006-0.119
	l0.229-0.616c0.013-0.039,0.045-0.07,0.081-0.087c0.035-0.019,0.08-0.02,0.117-0.005l3.227,1.189c0.079,0.029,0.122,0.119,0.094,0.2
	l-0.229,0.617c-0.016,0.038-0.042,0.07-0.082,0.087c-0.037,0.017-0.079,0.02-0.119,0.005l-0.146-0.056
	c-0.364-0.135-0.646-0.141-0.832-0.013c-0.15,0.102-0.391,0.381-0.666,1.13l-3.404,9.232c-0.014,0.039-0.042,0.07-0.082,0.087
	c-0.018,0.009-0.042,0.015-0.063,0.015s-0.037-0.003-0.058-0.009l-0.521-0.192c-0.047-0.019-0.084-0.058-0.098-0.105l-0.021-0.078
	l-3.043-11.308l-2.557,6.929c-0.175,0.473-0.223,0.849-0.141,1.083c0.074,0.218,0.299,0.396,0.663,0.53l0.146,0.054
	c0.08,0.03,0.122,0.12,0.094,0.201l-0.229,0.616c-0.014,0.039-0.042,0.07-0.082,0.087c-0.037,0.017-0.079,0.02-0.117,0.005
	l-3.24-1.196c-0.041-0.015-0.072-0.043-0.088-0.081c-0.02-0.038-0.021-0.081-0.006-0.12L175.593,32.336z M163.755,23.715
	c0.425-1.787,1.334-3.17,2.701-4.113c1.364-0.943,2.899-1.231,4.517-0.846c1.575,0.378,2.776,1.324,3.569,2.813
	c0.789,1.475,0.977,3.11,0.556,4.866c-0.429,1.785-1.349,3.185-2.728,4.16c-1.009,0.71-2.082,1.069-3.192,1.069
	c-0.427,0-0.867-0.053-1.31-0.159c-1.582-0.38-2.787-1.339-3.578-2.847C163.505,27.163,163.323,25.5,163.755,23.715z
	 M157.705,28.017c0.11-0.136,0.274-0.466,0.398-1.275l1.123-7.341c0.133-0.868,0.063-1.221,0.006-1.352
	c-0.074-0.184-0.277-0.297-0.618-0.349l-0.153-0.024c-0.043-0.006-0.076-0.027-0.104-0.063c-0.023-0.034-0.034-0.077-0.029-0.116
	l0.103-0.65c0.014-0.084,0.098-0.144,0.177-0.131l3.991,0.611c0.042,0.006,0.075,0.029,0.104,0.062
	c0.022,0.033,0.033,0.075,0.025,0.116l-0.102,0.649c-0.012,0.084-0.088,0.142-0.176,0.131l-0.154-0.024
	c-0.319-0.049-0.549,0.004-0.686,0.167c-0.119,0.139-0.285,0.473-0.406,1.274l-1.123,7.341c-0.125,0.798-0.063,1.165,0.008,1.331
	c0.082,0.193,0.279,0.311,0.604,0.359l0.153,0.023c0.042,0.005,0.076,0.028,0.104,0.061c0.022,0.034,0.033,0.075,0.028,0.116
	l-0.101,0.65c-0.016,0.077-0.08,0.132-0.156,0.132c-0.006,0-0.016-0.001-0.021-0.002l-3.99-0.611
	c-0.043-0.005-0.076-0.027-0.104-0.061c-0.021-0.033-0.034-0.075-0.027-0.116l0.102-0.65c0.005-0.041,0.027-0.078,0.063-0.103
	c0.035-0.024,0.077-0.033,0.117-0.028l0.153,0.025C157.335,28.22,157.572,28.171,157.705,28.017z M147.033,15.303
	c0.002-0.041,0.023-0.08,0.055-0.106c0.029-0.026,0.068-0.042,0.111-0.036l0.531,0.044c0.042,0.004,0.084,0.025,0.109,0.059
	l0.041,0.053c0.19,0.244,0.64,0.401,1.291,0.456l5.41,0.449c0.689,0.059,1.186-0.025,1.451-0.24l0.051-0.04
	c0.03-0.025,0.07-0.039,0.109-0.035l0.542,0.045c0.088,0.008,0.149,0.083,0.144,0.169l-0.25,3.031
	c-0.008,0.086-0.084,0.153-0.17,0.142l-0.482-0.04c-0.074-0.007-0.135-0.063-0.145-0.139l-0.014-0.126
	c-0.064-0.58-0.225-0.983-0.473-1.196c-0.262-0.222-0.693-0.359-1.285-0.408l-1.255-0.104l-0.732,8.813
	c-0.069,0.86,0.021,1.185,0.076,1.301c0.08,0.157,0.283,0.251,0.604,0.278l0.152,0.013c0.043,0.002,0.079,0.024,0.108,0.054
	c0.026,0.032,0.04,0.073,0.034,0.114L153,28.508c-0.002,0.041-0.021,0.079-0.056,0.105c-0.026,0.025-0.063,0.037-0.1,0.037
	c-0.003,0-0.009,0-0.015,0l-3.959-0.329c-0.086-0.008-0.149-0.083-0.144-0.169l0.053-0.654c0.009-0.086,0.089-0.153,0.171-0.143
	l0.151,0.013c0.333,0.026,0.562-0.043,0.68-0.219c0.107-0.156,0.248-0.505,0.313-1.282l0.727-8.752l-1.184-0.098
	c-0.635-0.053-1.11,0.019-1.395,0.211c-0.271,0.185-0.449,0.538-0.525,1.049l-0.021,0.144c-0.013,0.081-0.084,0.146-0.166,0.131
	l-0.609-0.05c-0.084-0.007-0.147-0.082-0.142-0.168L147.033,15.303z M136.242,27.227c0.001-0.077,0.058-0.142,0.135-0.152
	l0.131-0.018c0.311-0.044,0.552-0.155,0.716-0.329c0.125-0.132,0.331-0.465,0.596-1.305l3.047-9.887
	c0.02-0.066,0.084-0.11,0.15-0.11l1.299,0.021c0.07,0.001,0.13,0.047,0.148,0.114l2.879,10.416c0.199,0.719,0.367,0.957,0.449,1.035
	c0.127,0.122,0.371,0.189,0.711,0.194l0.156,0.003c0.037,0,0.077,0.017,0.105,0.046c0.027,0.03,0.046,0.07,0.046,0.111l-0.013,0.657
	c-0.002,0.084-0.069,0.153-0.154,0.153c-0.003,0-0.003,0-0.003,0l-3.957-0.06c-0.041-0.001-0.081-0.019-0.108-0.047
	c-0.029-0.031-0.046-0.07-0.045-0.111l0.01-0.657c0.002-0.087,0.088-0.164,0.16-0.154l0.154,0.002c0.581,0,0.583-0.235,0.584-0.391
	c0.003-0.102-0.02-0.225-0.061-0.366l-0.852-3.1l-2.857-0.043l-0.673,2.158c-0.218,0.707-0.267,1.055-0.271,1.22
	c-0.004,0.278,0.081,0.452,0.508,0.469l0.152,0.005c0.084,0.004,0.152,0.074,0.15,0.159l-0.012,0.654
	c-0.001,0.085-0.074,0.139-0.157,0.153l-2.987-0.046c-0.041,0-0.079-0.018-0.108-0.048c-0.031-0.029-0.046-0.069-0.045-0.111
	L136.242,27.227z M120.881,17.12c0.026-0.033,0.063-0.054,0.104-0.058l2.87-0.325c0.07-0.008,0.129,0.026,0.159,0.086l4.015,8.248
	l2.104-8.942c0.016-0.063,0.069-0.111,0.134-0.119l2.693-0.305c0.083-0.009,0.163,0.051,0.173,0.137l0.074,0.647
	c0.009,0.085-0.049,0.16-0.132,0.172l-0.152,0.021c-0.255,0.036-0.854,0.119-0.712,1.361c0.009,0.081,0.021,0.164,0.036,0.251
	l1.347,7.233c0.177,0.933,0.361,1.256,0.453,1.366c0.135,0.16,0.379,0.241,0.726,0.241h0.14c0.07,0,0.131,0.046,0.149,0.115
	l0.038,0.139l0.062,0.521c0.003,0.041-0.008,0.082-0.033,0.114c-0.028,0.033-0.063,0.054-0.106,0.058l-4.009,0.456
	c-0.088,0.011-0.164-0.052-0.173-0.137l-0.071-0.626c-0.008-0.074,0.037-0.144,0.108-0.167L131,27.566
	c0.305-0.094,0.507-0.227,0.601-0.395c0.101-0.18,0.131-0.479,0.087-0.864c-0.011-0.088-0.024-0.189-0.042-0.297l-1.147-6.137
	l-2.1,8.855c-0.016,0.063-0.069,0.111-0.135,0.119l-0.488,0.055c-0.067,0.008-0.129-0.026-0.159-0.086l-3.994-8.153l0.198,5.887
	c0.007,0.101,0.016,0.204,0.028,0.3c0.098,0.873,0.5,1.313,1.265,1.386l0.125,0.012c0.073,0.006,0.131,0.064,0.14,0.137l0.07,0.624
	c0.009,0.086-0.052,0.163-0.138,0.171l-3.51,0.399c-0.007,0.001-0.012,0.001-0.019,0.001c-0.078,0-0.146-0.059-0.155-0.138
	l-0.071-0.632c-0.009-0.075,0.04-0.146,0.112-0.167l0.13-0.036c0.334-0.094,0.556-0.248,0.674-0.469
	c0.091-0.173,0.193-0.582,0.165-1.549l-0.296-8.08c-0.337-0.303-0.726-0.472-1.152-0.503l-0.128-0.009
	c-0.075-0.005-0.136-0.063-0.144-0.138l-0.07-0.626C120.842,17.192,120.855,17.151,120.881,17.12z M108.008,19.935l4.288-0.995
	c1.089-0.251,2.065-0.142,2.872,0.322c0.817,0.472,1.345,1.2,1.569,2.167c0.322,1.386-0.057,2.516-1.126,3.362
	c0.234,0.143,0.473,0.316,0.711,0.519c0.393,0.334,0.941,0.916,1.63,1.726c0.738,0.86,1.288,1.414,1.634,1.644
	c0.302,0.201,0.58,0.283,0.826,0.249l0.143-0.021c0.08-0.013,0.156,0.041,0.173,0.119l0.146,0.627
	c0.008,0.04,0.001,0.083-0.021,0.118c-0.02,0.036-0.056,0.06-0.095,0.069l-2.294,0.531c-0.05,0.013-0.101,0-0.138-0.034
	l-0.061-0.052c-0.568-0.496-1.299-1.255-2.168-2.258c-0.891-1.014-1.549-1.643-1.958-1.871c-0.369-0.205-0.738-0.266-1.101-0.184
	l-0.514,0.119l0.671,2.887c0.18,0.78,0.373,1.097,0.503,1.227c0.155,0.155,0.383,0.189,0.701,0.116l0.152-0.036
	c0.086-0.021,0.168,0.033,0.188,0.116l0.151,0.64c0.008,0.041,0.002,0.083-0.021,0.118c-0.021,0.036-0.055,0.061-0.096,0.07
	l-3.934,0.911c-0.011,0.004-0.022,0.004-0.034,0.004c-0.028,0-0.059-0.008-0.082-0.023c-0.036-0.021-0.061-0.056-0.069-0.097
	l-0.149-0.638c-0.02-0.084,0.033-0.168,0.118-0.188l0.151-0.036c0.333-0.078,0.526-0.21,0.585-0.404
	c0.054-0.173,0.079-0.543-0.102-1.328l-1.686-7.273c-0.183-0.781-0.364-1.095-0.484-1.222c-0.135-0.14-0.367-0.168-0.707-0.091
	l-0.153,0.036c-0.084,0.017-0.167-0.033-0.186-0.116l-0.147-0.641C107.874,20.038,107.926,19.954,108.008,19.935z M95.935,25.629
	c0.638-1.545,1.758-2.61,3.33-3.165c1.517-0.538,3.062-0.396,4.529,0.415c1.463,0.81,2.51,2.083,3.109,3.782
	c0.612,1.731,0.603,3.407-0.026,4.977c-0.636,1.584-1.74,2.664-3.28,3.208c-0.603,0.214-1.209,0.321-1.809,0.321
	c-0.921,0-1.845-0.256-2.744-0.762c-1.473-0.827-2.528-2.125-3.138-3.856C95.292,28.816,95.303,27.162,95.935,25.629z
	 M84.391,29.091l6.71-3.16c0.078-0.034,0.172-0.002,0.209,0.076l1.031,2.191c0.037,0.078,0.004,0.17-0.074,0.208l-0.475,0.225
	c-0.068,0.03-0.15,0.009-0.194-0.053l-0.076-0.107c-0.436-0.613-0.682-0.778-0.789-0.822c-0.107-0.041-0.354-0.049-1.002,0.256
	l-2.106,0.993l1.858,3.944l2.162-1.018c0.243-0.115,0.383-0.255,0.428-0.431c0.037-0.142,0.042-0.421-0.144-0.953l-0.046-0.132
	c-0.028-0.075,0.007-0.159,0.08-0.193l0.523-0.247c0.037-0.019,0.081-0.02,0.119-0.007c0.04,0.015,0.07,0.044,0.088,0.081
	l1.561,3.313c0.018,0.037,0.02,0.081,0.005,0.119c-0.013,0.04-0.042,0.071-0.081,0.088l-0.531,0.251
	c-0.077,0.033-0.167,0.004-0.206-0.07l-0.069-0.133c-0.334-0.646-0.695-0.833-1.179-0.605L90,33.938l1.366,2.902
	c0.345,0.732,0.596,1.001,0.75,1.1c0.178,0.116,0.408,0.102,0.712-0.041l0.142-0.067c0.036-0.019,0.079-0.019,0.119-0.005
	c0.039,0.013,0.07,0.042,0.087,0.081l0.279,0.593c0.037,0.078,0.004,0.17-0.074,0.208L89.73,40.43
	c-0.021,0.009-0.044,0.014-0.066,0.014c-0.058,0-0.113-0.033-0.141-0.09l-0.28-0.593c-0.037-0.078-0.002-0.17,0.075-0.208
	l0.14-0.066c0.303-0.143,0.46-0.312,0.482-0.518c0.02-0.178-0.03-0.546-0.374-1.278L86.4,30.97c-0.347-0.74-0.599-1.015-0.749-1.114
	c-0.172-0.116-0.403-0.099-0.707,0.045l-0.142,0.067c-0.075,0.036-0.169,0.003-0.206-0.075l-0.28-0.595
	c-0.019-0.037-0.021-0.081-0.006-0.119C84.323,29.14,84.352,29.108,84.391,29.091z M72.148,36.091l2.49-1.473
	c0.043-0.027,0.096-0.029,0.144-0.008l9.495,4.285l-3.047-5.142c-0.424-0.716-0.716-0.971-0.885-1.059
	c-0.204-0.107-0.455-0.063-0.772,0.125l-0.135,0.08c-0.074,0.042-0.169,0.018-0.212-0.054l-0.336-0.566
	c-0.02-0.036-0.026-0.078-0.016-0.118c0.01-0.041,0.036-0.075,0.071-0.095l2.958-1.752c0.074-0.043,0.169-0.02,0.212,0.054
	l0.334,0.564c0.045,0.074,0.02,0.171-0.054,0.214l-0.133,0.079c-0.338,0.201-0.518,0.417-0.539,0.64
	c-0.016,0.183,0.051,0.542,0.458,1.23l5.015,8.464c0.021,0.036,0.027,0.078,0.017,0.118c-0.011,0.041-0.036,0.076-0.071,0.097
	l-0.476,0.281c-0.043,0.026-0.096,0.029-0.143,0.008l-0.073-0.032L75.753,37.26l3.764,6.353c0.257,0.436,0.518,0.709,0.752,0.794
	c0.218,0.079,0.497,0.017,0.83-0.18l0.134-0.08c0.036-0.021,0.078-0.028,0.117-0.017c0.041,0.011,0.077,0.036,0.097,0.071
	l0.335,0.567c0.044,0.073,0.019,0.169-0.055,0.213l-2.972,1.76c-0.024,0.015-0.051,0.022-0.079,0.022
	c-0.013,0-0.025-0.003-0.039-0.005c-0.041-0.011-0.074-0.036-0.095-0.071l-0.334-0.567c-0.022-0.036-0.029-0.078-0.018-0.118
	c0.009-0.041,0.036-0.074,0.072-0.097l0.133-0.078c0.332-0.196,0.493-0.404,0.49-0.636c0-0.201-0.095-0.597-0.538-1.347
	l-3.554-5.997c-0.346-0.585-0.679-0.95-0.99-1.084c-0.287-0.125-0.645-0.091-1.059,0.096l-0.128,0.057
	c-0.073,0.035-0.158,0.007-0.197-0.062l-0.326-0.551C72.05,36.231,72.074,36.135,72.148,36.091z M67.281,39.601l3.301-2.322
	c0.034-0.023,0.077-0.034,0.118-0.026c0.04,0.007,0.076,0.03,0.1,0.065l0.378,0.538c0.024,0.035,0.033,0.076,0.025,0.116
	c-0.007,0.041-0.031,0.077-0.065,0.101l-0.127,0.09c-0.356,0.251-0.386,0.458-0.378,0.593c0.011,0.183,0.12,0.538,0.587,1.201
	l4.27,6.077c0.467,0.663,0.761,0.885,0.926,0.955c0.197,0.082,0.418,0.029,0.688-0.16l0.128-0.089
	c0.07-0.05,0.168-0.033,0.217,0.037l0.378,0.538c0.024,0.033,0.033,0.075,0.025,0.116c-0.007,0.04-0.031,0.077-0.063,0.101
	l-3.304,2.32c-0.026,0.02-0.057,0.029-0.09,0.029c-0.008,0-0.018,0-0.027-0.003c-0.041-0.006-0.076-0.03-0.102-0.063l-0.375-0.538
	c-0.049-0.071-0.032-0.168,0.038-0.217l0.127-0.09c0.277-0.196,0.406-0.389,0.393-0.589c-0.012-0.177-0.125-0.53-0.595-1.197
	l-4.27-6.078c-0.506-0.719-0.799-0.922-0.93-0.979c-0.187-0.083-0.407-0.022-0.69,0.176l-0.125,0.09
	c-0.034,0.023-0.075,0.036-0.118,0.026c-0.04-0.007-0.077-0.031-0.1-0.065l-0.378-0.537c-0.024-0.033-0.035-0.075-0.027-0.116
	C67.223,39.66,67.247,39.625,67.281,39.601z M57.366,48.364c0.494-0.438,1.083-0.633,1.756-0.578
	c0.663,0.054,1.228,0.34,1.677,0.846c0.677,0.768,0.851,1.822,0.521,3.136c0.878,0.08,1.99,0.269,3.316,0.562
	c-0.243-0.777-0.534-1.361-0.87-1.741c-0.277-0.316-0.427-0.367-0.465-0.375c-0.094-0.005-0.193,0.023-0.358,0.149l-0.115,0.09
	c-0.066,0.049-0.158,0.04-0.212-0.021l-0.427-0.485c-0.057-0.063-0.052-0.163,0.013-0.219l2.443-2.158
	c0.032-0.028,0.07-0.038,0.114-0.038c0.041,0.002,0.079,0.021,0.107,0.053l0.433,0.492c0.057,0.064,0.052,0.163-0.013,0.221
	l-0.118,0.103c-0.384,0.338-0.442,0.523-0.449,0.586c-0.02,0.187-0.006,0.396,0.041,0.619c0.049,0.235,0.189,0.628,0.411,1.166
	c0.305,0.713,0.523,1.337,0.649,1.854c1.021,0.251,1.715,0.391,2.064,0.415c0.366,0.024,0.539-0.045,0.567-0.07
	c0.041-0.036,0.138-0.162,0.148-0.554l0.005-0.156c0.001-0.041,0.019-0.081,0.049-0.109c0.031-0.028,0.077-0.035,0.112-0.042
	l0.608,0.019c0.073,0.002,0.134,0.054,0.147,0.127l0.023,0.122c0.175,0.908-0.041,1.636-0.637,2.163
	c-0.267,0.235-0.591,0.382-0.965,0.439c-0.346,0.053-0.876,0.009-1.567-0.128c-0.066-0.015-0.128-0.026-0.186-0.037
	c0.056,1.361-0.348,2.433-1.2,3.185c-0.601,0.532-1.303,0.802-2.084,0.802c-0.083,0-0.167-0.002-0.251-0.009
	c-0.879-0.062-1.629-0.438-2.23-1.118c-0.441-0.501-0.719-1.138-0.818-1.893c-0.083-0.633-0.039-1.324,0.137-2.056
	c-1.029-0.164-1.85-0.585-2.442-1.255c-0.575-0.65-0.862-1.369-0.853-2.134C56.457,49.556,56.766,48.894,57.366,48.364z
	 M42.419,63.337l2.866-3.341c0.731-0.852,1.574-1.337,2.503-1.442c0.937-0.105,1.794,0.172,2.549,0.817
	c1.078,0.928,1.443,2.062,1.083,3.375c0.272-0.022,0.564-0.024,0.879-0.001c0.518,0.037,1.303,0.181,2.337,0.426
	c1.01,0.234,1.775,0.358,2.213,0.358l0.077-0.001c0.362-0.018,0.634-0.115,0.812-0.29l0.103-0.102
	c0.057-0.054,0.149-0.06,0.21-0.005l0.49,0.417c0.03,0.028,0.049,0.066,0.053,0.107c0.004,0.041-0.011,0.082-0.037,0.114
	l-1.532,1.787c-0.033,0.037-0.081,0.058-0.132,0.053l-0.08-0.005c-0.753-0.063-1.791-0.244-3.087-0.536
	c-1.303-0.286-2.215-0.407-2.684-0.348c-0.424,0.053-0.75,0.218-0.996,0.503l-0.342,0.399l2.249,1.931
	c0.606,0.521,0.952,0.664,1.134,0.691c0.209,0.032,0.42-0.075,0.633-0.324l0.102-0.118c0.026-0.032,0.063-0.052,0.106-0.056
	c0.042-0.005,0.082,0.011,0.113,0.039l0.499,0.427c0.066,0.056,0.072,0.155,0.017,0.221l-2.627,3.063
	c-0.032,0.036-0.075,0.053-0.119,0.053c-0.036,0-0.073-0.012-0.102-0.037l-0.498-0.428c-0.032-0.026-0.051-0.063-0.056-0.106
	c-0.001-0.041,0.012-0.081,0.039-0.112l0.102-0.119c0.222-0.26,0.297-0.481,0.231-0.673c-0.06-0.172-0.259-0.486-0.868-1.01
	l-5.668-4.861c-0.61-0.522-0.941-0.669-1.113-0.699c-0.18-0.028-0.399,0.084-0.624,0.346l-0.101,0.116
	c-0.026,0.032-0.066,0.052-0.107,0.056c-0.042,0.008-0.082-0.011-0.114-0.039l-0.498-0.427c-0.032-0.026-0.05-0.064-0.054-0.105
	C42.379,63.41,42.393,63.369,42.419,63.337z M36.039,72.188l4.495-6.339c0.025-0.033,0.061-0.057,0.102-0.063
	c0.041-0.008,0.082,0.003,0.116,0.026l1.876,1.332c0.035,0.025,0.057,0.06,0.065,0.102c0.006,0.04-0.004,0.082-0.028,0.115
	l-0.277,0.391c-0.044,0.063-0.125,0.083-0.192,0.052l-0.118-0.054c-0.455-0.21-0.792-0.304-0.995-0.262
	c-0.083,0.017-0.327,0.125-0.777,0.761l-1.546,2.179l3.648,2.587l1.493-2.108c0.237-0.332,0.233-0.494,0.22-0.55
	c-0.015-0.066-0.094-0.263-0.482-0.634l-0.098-0.092c-0.057-0.052-0.064-0.14-0.02-0.202l0.346-0.49
	c0.024-0.033,0.061-0.056,0.102-0.063c0.041-0.007,0.082,0.002,0.117,0.028l2.614,1.854c0.034,0.022,0.057,0.059,0.064,0.1
	c0.007,0.041-0.004,0.083-0.027,0.117l-0.342,0.481c-0.041,0.061-0.119,0.082-0.187,0.053l-0.116-0.049
	c-0.606-0.255-0.776-0.217-0.806-0.208c-0.033,0.009-0.21,0.081-0.591,0.619l-1.306,1.841l3.223,2.286
	c0.21,0.148,0.323,0.17,0.37,0.17c0.046-0.005,0.146-0.035,0.297-0.246l1.046-1.477c0.44-0.621,0.588-0.928,0.633-1.076
	c0.058-0.19,0.057-0.383-0.007-0.589c-0.071-0.237-0.251-0.578-0.519-0.986l-0.06-0.09c-0.035-0.053-0.032-0.123,0.004-0.174
	l0.353-0.496c0.027-0.04,0.07-0.063,0.117-0.066c0.048,0.001,0.093,0.016,0.125,0.05l1.752,1.91c0.05,0.054,0.056,0.136,0.014,0.195
	l-4.478,6.314c-0.023,0.035-0.061,0.057-0.102,0.063c-0.008,0-0.015,0-0.025,0c-0.032,0-0.063-0.009-0.09-0.028l-0.535-0.38
	c-0.035-0.025-0.057-0.06-0.063-0.102c-0.008-0.04,0.002-0.082,0.026-0.115l0.09-0.127c0.201-0.284,0.259-0.511,0.176-0.691
	c-0.074-0.164-0.299-0.454-0.948-0.914l-6.075-4.308c-0.674-0.479-1.027-0.594-1.203-0.607l-0.037-0.001
	c-0.185,0-0.369,0.128-0.555,0.391l-0.09,0.128c-0.024,0.033-0.06,0.056-0.101,0.063c-0.04,0.007-0.083-0.002-0.118-0.026
	l-0.535-0.38c-0.033-0.022-0.057-0.06-0.065-0.101C36.004,72.263,36.015,72.22,36.039,72.188z M30.484,81.425l2.059-3.502
	c0.603-1.024,1.337-1.701,2.187-2.01c0.863-0.312,1.742-0.223,2.566,0.262c1.021,0.6,1.523,1.522,1.496,2.748
	c0.481-0.345,1.027-0.564,1.631-0.653c0.854-0.123,1.676,0.04,2.425,0.481c0.836,0.492,1.345,1.189,1.511,2.073
	c0.163,0.866-0.031,1.775-0.574,2.703l-2.499,4.249c-0.027,0.05-0.079,0.077-0.133,0.077c-0.026,0-0.054-0.007-0.079-0.021
	l-0.566-0.333c-0.036-0.021-0.062-0.055-0.073-0.095c-0.01-0.041-0.004-0.083,0.016-0.118l0.079-0.136
	c0.168-0.282,0.201-0.511,0.104-0.696c-0.083-0.159-0.331-0.436-1.027-0.846l-6.402-3.764c-0.708-0.417-1.071-0.503-1.248-0.503
	c-0.128,0-0.327,0.047-0.559,0.442l-0.079,0.134c-0.044,0.075-0.139,0.099-0.214,0.057L30.54,81.64
	c-0.036-0.02-0.062-0.054-0.073-0.094C30.457,81.502,30.463,81.46,30.484,81.425z M25.168,92.357l1.863-3.946
	c0.018-0.038,0.048-0.066,0.087-0.081c0.038-0.013,0.082-0.012,0.119,0.005l0.594,0.281c0.039,0.018,0.066,0.049,0.081,0.089
	c0.013,0.038,0.012,0.081-0.007,0.119l-0.066,0.142c-0.097,0.205-0.301,0.692-0.099,0.789c0.066,0.03,0.235,0.067,0.502,0.047
	l3.579-0.271l-1.676-2.306c-0.266-0.362-0.522-0.604-0.761-0.718c-0.082-0.038-0.154-0.058-0.21-0.058c-0.036,0-0.148,0-0.266,0.249
	l-0.064,0.14c-0.037,0.079-0.131,0.109-0.208,0.075l-0.595-0.28c-0.037-0.017-0.066-0.049-0.081-0.088
	c-0.013-0.039-0.012-0.082,0.005-0.119l1.348-2.853c0.017-0.037,0.049-0.066,0.088-0.081c0.039-0.013,0.081-0.012,0.119,0.007
	l0.584,0.276c0.074,0.035,0.108,0.12,0.078,0.197l-0.053,0.135c-0.114,0.297-0.149,0.545-0.104,0.743
	c0.035,0.149,0.166,0.45,0.583,1.032l2.776,3.846l3.32,1.567c0.765,0.359,1.102,0.403,1.288,0.387
	c0.196-0.02,0.357-0.17,0.495-0.461l0.067-0.141c0.017-0.037,0.049-0.066,0.087-0.081c0.04-0.013,0.082-0.012,0.121,0.007
	l0.593,0.281c0.078,0.036,0.111,0.128,0.074,0.207l-1.746,3.697c-0.026,0.058-0.082,0.091-0.141,0.091
	c-0.021,0-0.045-0.005-0.066-0.015l-0.593-0.28c-0.078-0.038-0.112-0.131-0.075-0.208l0.067-0.142
	c0.167-0.354,0.19-0.623,0.073-0.795c-0.106-0.155-0.381-0.41-1.093-0.747l-3.319-1.567l-4.432,0.305
	c-0.886,0.058-1.274,0.157-1.444,0.231c-0.213,0.091-0.4,0.287-0.558,0.579l-0.07,0.132c-0.038,0.073-0.129,0.101-0.204,0.066
	l-0.588-0.276c-0.037-0.019-0.066-0.05-0.08-0.089C25.148,92.437,25.149,92.394,25.168,92.357z M26.159,156.027l-4.276-3.113
	l-4.286,3.104l1.642-5.031l-4.278-3.114l5.291,0.006l1.643-5.03l1.629,5.034l5.291,0.008l-4.286,3.104L26.159,156.027z
	 M33.113,105.482c-0.788,0.614-1.712,0.984-2.75,1.099c-0.23,0.027-0.462,0.04-0.692,0.04c-0.815,0-1.676-0.16-2.557-0.473
	c-1.847-0.656-3.222-1.711-4.087-3.137c-0.879-1.447-1.046-2.961-0.5-4.5c0.181-0.509,0.516-1.123,0.993-1.821
	c0.326-0.471,0.42-0.665,0.446-0.741c0.048-0.132,0.025-0.216-0.084-0.314l-0.077-0.07c-0.046-0.042-0.062-0.108-0.041-0.168
	l0.184-0.518c0.013-0.04,0.042-0.071,0.081-0.088c0.037-0.019,0.079-0.02,0.118-0.005l3.642,1.294
	c0.082,0.028,0.125,0.118,0.095,0.198l-0.197,0.556c-0.025,0.069-0.092,0.11-0.167,0.103l-0.124-0.016
	c-1.052-0.127-1.906-0.036-2.515,0.272c-0.596,0.3-1.037,0.843-1.312,1.615c-0.361,1.016-0.229,1.945,0.402,2.841
	c0.646,0.917,1.715,1.646,3.177,2.165c1.602,0.568,3.04,0.706,4.235,0.405c1.168-0.296,1.912-0.935,2.274-1.948
	c0.504-1.42,0.119-2.713-1.18-3.948l-0.17-0.162c-0.039-0.037-0.056-0.09-0.046-0.141c0.009-0.052,0.043-0.095,0.091-0.116
	l0.674-0.29c0.053-0.024,0.116-0.015,0.161,0.022l0.073,0.061c0.822,0.682,1.379,1.521,1.656,2.493
	c0.277,0.974,0.241,1.969-0.111,2.958C34.47,104.082,33.902,104.868,33.113,105.482z M49.536,218.987l-4.277-3.112l-4.284,3.104
	l1.641-5.031l-4.276-3.114l5.292,0.006l1.641-5.03l1.628,5.034l5.292,0.008l-4.285,3.105L49.536,218.987z M102.823,258.609
	c-0.338,0.911-0.935,1.533-1.776,1.852c-0.375,0.145-0.775,0.215-1.192,0.215c-0.496,0-1.024-0.103-1.57-0.305l-4.62-1.713
	c-0.04-0.016-0.071-0.043-0.088-0.08c-0.017-0.039-0.019-0.08-0.004-0.119l0.229-0.617c0.015-0.036,0.044-0.068,0.081-0.086
	c0.039-0.019,0.08-0.02,0.119-0.006l0.146,0.057c0.308,0.111,0.538,0.107,0.706-0.021c0.143-0.111,0.373-0.4,0.653-1.158l2.58-6.965
	c0.287-0.777,0.309-1.146,0.277-1.318c-0.038-0.196-0.211-0.352-0.534-0.469l-0.147-0.058c-0.081-0.028-0.122-0.119-0.091-0.198
	L97.817,247c0.015-0.039,0.043-0.069,0.082-0.086c0.037-0.017,0.081-0.02,0.119-0.006l3.809,1.412
	c1.114,0.412,1.91,1.018,2.363,1.801c0.464,0.801,0.53,1.666,0.194,2.571c-0.412,1.112-1.233,1.769-2.442,1.954
	c0.424,0.415,0.736,0.914,0.928,1.49C103.143,256.957,103.126,257.789,102.823,258.609z M113.371,264.753
	c-0.009,0.039-0.037,0.074-0.071,0.094c-0.025,0.014-0.051,0.021-0.078,0.021c-0.015,0-0.029-0.003-0.042-0.007l-3.818-1.036
	c-0.083-0.022-0.132-0.109-0.109-0.191l0.171-0.633c0.011-0.041,0.037-0.074,0.073-0.096c0.037-0.021,0.078-0.025,0.119-0.016
	l0.149,0.041c0.399,0.105,0.584,0.058,0.665-0.235c0.026-0.101,0.038-0.225,0.032-0.368l-0.057-3.216l-2.756-0.751l-1.187,1.926
	c-0.387,0.633-0.522,0.954-0.564,1.114c-0.073,0.269-0.036,0.458,0.375,0.581l0.144,0.044c0.082,0.022,0.129,0.108,0.107,0.188
	l-0.17,0.633c-0.011,0.037-0.037,0.072-0.073,0.094c-0.036,0.021-0.08,0.025-0.119,0.016l-2.882-0.783
	c-0.083-0.021-0.131-0.106-0.11-0.189l0.167-0.611c0.02-0.072,0.092-0.121,0.167-0.115l0.132,0.018
	c0.314,0.036,0.572-0.014,0.777-0.143c0.155-0.098,0.436-0.369,0.9-1.116l5.398-8.826c0.036-0.06,0.108-0.086,0.173-0.067
	l1.254,0.34c0.066,0.021,0.112,0.078,0.113,0.146l0.214,10.807c0.016,0.746,0.119,1.019,0.18,1.113
	c0.094,0.148,0.314,0.273,0.64,0.361l0.149,0.042c0.083,0.021,0.132,0.106,0.109,0.19L113.371,264.753z M124.766,257.071
	c-0.016,0.085-0.099,0.142-0.181,0.124l-0.479-0.088c-0.073-0.014-0.127-0.077-0.128-0.152l-0.001-0.127
	c-0.004-0.584-0.123-1.002-0.348-1.236c-0.235-0.247-0.651-0.43-1.235-0.538l-1.238-0.229l-1.62,8.692
	c-0.159,0.846-0.104,1.179-0.057,1.304c0.063,0.166,0.251,0.273,0.573,0.337l0.153,0.027c0.084,0.016,0.14,0.097,0.125,0.185
	l-0.121,0.646c-0.008,0.04-0.03,0.075-0.064,0.1c-0.026,0.019-0.057,0.026-0.089,0.026c-0.009,0-0.019,0-0.027-0.002l-3.909-0.729
	c-0.084-0.016-0.14-0.098-0.124-0.183l0.122-0.646c0.006-0.041,0.03-0.076,0.063-0.101c0.035-0.024,0.076-0.034,0.118-0.024
	l0.153,0.028c0.331,0.065,0.558,0.017,0.698-0.147c0.122-0.145,0.297-0.479,0.439-1.244l1.609-8.633l-1.168-0.219
	c-0.624-0.117-1.109-0.093-1.408,0.07c-0.288,0.154-0.5,0.488-0.629,0.988l-0.037,0.141c-0.021,0.079-0.102,0.128-0.178,0.114
	l-0.601-0.11c-0.04-0.009-0.077-0.031-0.099-0.066c-0.024-0.032-0.033-0.073-0.025-0.114l0.558-2.99
	c0.008-0.041,0.031-0.077,0.065-0.101c0.034-0.024,0.075-0.033,0.118-0.025l0.523,0.1c0.043,0.01,0.081,0.032,0.103,0.069
	l0.037,0.06c0.166,0.26,0.594,0.463,1.24,0.582l5.336,0.994c0.673,0.129,1.182,0.094,1.468-0.092l0.05-0.033
	c0.035-0.021,0.077-0.031,0.116-0.023l0.535,0.102c0.085,0.018,0.14,0.1,0.125,0.182L124.766,257.071z M132.737,256.296
	l-1.254-0.118l-0.826,8.804c-0.081,0.855,0.004,1.184,0.062,1.303c0.079,0.159,0.276,0.254,0.603,0.283l0.155,0.016
	c0.086,0.008,0.148,0.084,0.141,0.168l-0.062,0.654c-0.008,0.082-0.075,0.143-0.154,0.143c-0.005,0-0.011,0-0.015,0l-3.959-0.371
	c-0.041-0.004-0.079-0.024-0.105-0.057c-0.025-0.031-0.039-0.074-0.036-0.115l0.062-0.652c0.004-0.041,0.025-0.079,0.057-0.104
	c0.032-0.025,0.072-0.041,0.114-0.037l0.155,0.016c0.335,0.035,0.558-0.032,0.681-0.21c0.108-0.155,0.253-0.503,0.325-1.279
	l0.821-8.741l-1.183-0.11c-0.63-0.062-1.111,0.007-1.396,0.194c-0.272,0.183-0.453,0.533-0.535,1.043l-0.025,0.146
	c-0.013,0.08-0.086,0.136-0.167,0.129l-0.608-0.059c-0.086-0.008-0.148-0.084-0.14-0.17l0.284-3.027
	c0.004-0.042,0.025-0.079,0.057-0.104c0.03-0.026,0.07-0.041,0.114-0.035l0.53,0.05c0.042,0.005,0.083,0.026,0.108,0.061
	l0.041,0.054c0.189,0.246,0.634,0.408,1.289,0.472l5.405,0.507c0.683,0.063,1.184-0.014,1.454-0.227l0.05-0.039
	c0.03-0.022,0.074-0.039,0.109-0.031l0.542,0.052c0.042,0.004,0.079,0.021,0.105,0.056c0.028,0.031,0.04,0.072,0.036,0.113
	l-0.284,3.028c-0.004,0.041-0.024,0.08-0.056,0.104c-0.033,0.026-0.073,0.043-0.114,0.035l-0.485-0.046
	c-0.074-0.008-0.133-0.063-0.14-0.14l-0.013-0.127c-0.06-0.582-0.214-0.985-0.46-1.2
	C133.76,256.492,133.329,256.352,132.737,256.296z M144.854,267.833c0,0.086-0.067,0.152-0.156,0.152c0,0,0,0-0.002,0l-3.956-0.063
	c-0.041,0-0.081-0.018-0.11-0.047c-0.028-0.028-0.043-0.068-0.043-0.109l0.01-0.656c0.001-0.086,0.087-0.154,0.159-0.152
	l0.156,0.002c0.579,0,0.581-0.235,0.584-0.393c0.002-0.104-0.019-0.227-0.06-0.365l-0.851-3.103l-2.857-0.043l-0.674,2.157
	c-0.218,0.707-0.267,1.055-0.27,1.221c-0.004,0.275,0.08,0.451,0.506,0.468l0.152,0.009c0.086,0.004,0.151,0.072,0.149,0.156
	l-0.009,0.653c-0.001,0.087-0.074,0.147-0.159,0.153l-2.986-0.047c-0.041,0-0.081-0.018-0.11-0.047
	c-0.028-0.029-0.043-0.07-0.043-0.111l0.011-0.635c0.001-0.076,0.059-0.142,0.135-0.15l0.131-0.02
	c0.311-0.044,0.552-0.154,0.716-0.33c0.126-0.131,0.331-0.465,0.596-1.304l3.047-9.888c0.02-0.066,0.074-0.123,0.151-0.109
	l1.299,0.02c0.069,0.002,0.131,0.05,0.148,0.115l2.881,10.418c0.197,0.717,0.366,0.955,0.448,1.032
	c0.127,0.122,0.373,0.189,0.708,0.193l0.155,0.003c0.043,0.001,0.082,0.02,0.11,0.047c0.026,0.03,0.042,0.07,0.042,0.111
	L144.854,267.833z M154.691,267.173c-0.011,0.07-0.068,0.123-0.143,0.13l-0.121,0.008l-7.637,0.558c-0.006,0-0.008,0-0.012,0
	c-0.082,0-0.148-0.063-0.154-0.145l-0.052-0.654c-0.003-0.042,0.013-0.083,0.037-0.113c0.029-0.029,0.063-0.052,0.106-0.053
	l0.154-0.012c0.313-0.021,0.506-0.135,0.614-0.352c0.091-0.182,0.187-0.569,0.125-1.389l-0.545-7.479
	c-0.056-0.721-0.185-1.025-0.288-1.156c-0.119-0.155-0.338-0.214-0.677-0.191l-0.155,0.012c-0.039,0.009-0.08-0.012-0.111-0.037
	c-0.03-0.026-0.051-0.065-0.056-0.105l-0.048-0.656c-0.002-0.041,0.012-0.082,0.037-0.112c0.025-0.032,0.066-0.05,0.105-0.054
	l4.01-0.293c0.005,0,0.008,0,0.011,0c0.082,0,0.149,0.063,0.155,0.145l0.048,0.654c0.006,0.041-0.009,0.082-0.037,0.115
	c-0.026,0.03-0.063,0.049-0.104,0.053l-0.156,0.013c-0.301,0.021-0.49,0.127-0.6,0.333c-0.091,0.172-0.186,0.534-0.131,1.29
	l0.579,7.938c0.037,0.477,0.153,0.629,0.204,0.67c0.036,0.031,0.161,0.106,0.516,0.106c0.063,0,0.133-0.001,0.203-0.007l2.051-0.148
	c0.537-0.041,0.914-0.17,1.09-0.371c0.136-0.156,0.336-0.552,0.522-1.541l0.021-0.117c0.016-0.069,0.072-0.121,0.146-0.125
	l0.626-0.047c0.055-0.006,0.096,0.017,0.124,0.051c0.034,0.035,0.048,0.082,0.04,0.131L154.691,267.173z M160.457,266.46
	c-0.025,0.033-0.063,0.056-0.104,0.062l-4.002,0.538c-0.005,0-0.015,0.001-0.021,0.001c-0.031,0-0.065-0.011-0.094-0.033
	c-0.031-0.022-0.056-0.063-0.063-0.102l-0.088-0.651c-0.01-0.085,0.05-0.163,0.135-0.176l0.154-0.021
	c0.338-0.045,0.541-0.158,0.621-0.343c0.07-0.163,0.133-0.524,0.023-1.336l-0.991-7.36c-0.116-0.871-0.286-1.188-0.373-1.299
	c-0.127-0.154-0.358-0.209-0.692-0.16l-0.154,0.021c-0.042,0.004-0.081-0.007-0.116-0.032c-0.03-0.022-0.053-0.063-0.06-0.102
	l-0.088-0.651c-0.012-0.086,0.05-0.164,0.135-0.176l4.001-0.538c0.088-0.004,0.164,0.049,0.175,0.134l0.09,0.65
	c0.012,0.086-0.048,0.164-0.135,0.176l-0.152,0.021c-0.438,0.06-0.559,0.229-0.613,0.354c-0.073,0.167-0.139,0.533-0.028,1.335
	l0.987,7.362c0.107,0.801,0.269,1.134,0.385,1.271c0.132,0.163,0.363,0.221,0.682,0.176l0.153-0.021
	c0.085-0.007,0.164,0.048,0.177,0.136l0.088,0.649C160.49,266.387,160.479,266.428,160.457,266.46z M171.969,262.567
	c-0.83,1.493-2.062,2.427-3.658,2.772c-0.401,0.086-0.802,0.131-1.188,0.131c-1.148,0-2.252-0.383-3.271-1.141
	c-1.354-1.009-2.238-2.43-2.627-4.223c-0.394-1.795-0.177-3.438,0.646-4.878c0.827-1.452,2.072-2.368,3.703-2.722
	c1.575-0.342,3.084-0.012,4.438,0.979c1.351,0.988,2.229,2.384,2.61,4.144C173.009,259.429,172.791,261.087,171.969,262.567z
	 M185.987,259.837c-0.019,0.039-0.051,0.064-0.09,0.08l-0.522,0.178c-0.051,0.016-0.102,0.008-0.144-0.022l-0.063-0.047
	l-9.481-6.874l2.374,6.992c0.161,0.479,0.357,0.803,0.572,0.934c0.195,0.125,0.477,0.12,0.85-0.006l0.146-0.049
	c0.039-0.016,0.082-0.012,0.119,0.007c0.039,0.019,0.064,0.05,0.08,0.091l0.211,0.621c0.014,0.04,0.01,0.082-0.01,0.118
	c-0.02,0.038-0.051,0.065-0.09,0.079l-3.271,1.109c-0.019,0.006-0.033,0.009-0.049,0.009c-0.065,0-0.127-0.04-0.147-0.106
	l-0.211-0.621c-0.015-0.039-0.013-0.082,0.008-0.117c0.021-0.039,0.05-0.065,0.09-0.08l0.146-0.051
	c0.363-0.123,0.563-0.295,0.61-0.521c0.04-0.196,0.029-0.603-0.251-1.429l-2.238-6.6c-0.22-0.646-0.471-1.07-0.744-1.267
	c-0.254-0.185-0.612-0.226-1.059-0.124l-0.135,0.027c-0.079,0.02-0.155-0.026-0.18-0.104l-0.207-0.605
	c-0.012-0.039-0.01-0.082,0.009-0.117c0.019-0.037,0.048-0.065,0.09-0.079l2.741-0.933c0.047-0.018,0.098-0.008,0.143,0.022
	l0.063,0.048l8.341,6.104l-1.919-5.659c-0.271-0.788-0.502-1.099-0.649-1.22c-0.175-0.146-0.431-0.153-0.779-0.035l-0.146,0.051
	c-0.04,0.013-0.082,0.011-0.119-0.007c-0.035-0.021-0.064-0.052-0.078-0.093l-0.213-0.621c-0.013-0.038-0.011-0.08,0.01-0.117
	c0.019-0.037,0.051-0.066,0.09-0.079l3.254-1.104c0.082-0.028,0.172,0.017,0.197,0.097l0.211,0.622
	c0.015,0.039,0.012,0.082-0.008,0.119s-0.051,0.064-0.091,0.078l-0.146,0.051c-0.37,0.125-0.592,0.3-0.658,0.516
	c-0.053,0.174-0.061,0.54,0.195,1.296l3.16,9.319C186.009,259.757,186.005,259.802,185.987,259.837z M242.464,218.987l-4.275-3.112
	l-4.287,3.104l1.643-5.031l-4.275-3.114l5.291,0.006l1.643-5.03l1.629,5.034l5.293,0.008l-4.287,3.105L242.464,218.987z
	 M217.875,217.876c-0.265,0.266-0.537,0.521-0.804,0.785c-0.073,0.07-0.149,0.146-0.225,0.217c-0.007,0.004-0.009,0.009-0.015,0.015
	c-0.072,0.071-0.146,0.146-0.226,0.218c-20.188,19.555-46.706,30.307-74.88,30.307c-28.173,0-54.691-10.752-74.879-30.308
	c-0.075-0.071-0.15-0.146-0.226-0.219c-0.004-0.004-0.006-0.009-0.012-0.013c-0.074-0.071-0.148-0.146-0.223-0.219
	c-0.267-0.263-0.54-0.52-0.805-0.783c-20.337-20.34-31.54-47.383-31.54-76.146c0-28.763,11.202-55.806,31.54-76.145
	c0.3-0.3,0.605-0.59,0.909-0.886c0.074-0.073,0.148-0.145,0.222-0.218c0.008-0.007,0.016-0.015,0.024-0.022
	c0.075-0.074,0.149-0.147,0.225-0.22c20.174-19.484,46.646-30.194,74.766-30.194c28.121,0,54.593,10.71,74.769,30.194
	c0.074,0.073,0.148,0.146,0.225,0.22c0.008,0.006,0.016,0.016,0.023,0.022c0.072,0.073,0.146,0.145,0.223,0.218
	c0.304,0.295,0.609,0.585,0.908,0.886c20.338,20.339,31.539,47.382,31.539,76.145C249.414,170.494,238.212,197.537,217.875,217.876z
	 M254.384,107.155c-0.022-0.069,0.006-0.146,0.068-0.183l0.107-0.064c0.55-0.325,0.638-0.496,0.646-0.526
	c0.012-0.031,0.06-0.215-0.146-0.841l-0.703-2.146l-3.756,1.232c-0.283,0.095-0.354,0.188-0.367,0.214
	c-0.018,0.032-0.048,0.128,0.031,0.369l0.564,1.719c0.237,0.723,0.396,1.024,0.488,1.15c0.116,0.158,0.271,0.272,0.479,0.345
	c0.236,0.083,0.605,0.14,1.104,0.168l0.104,0.006c0.063,0.004,0.119,0.046,0.139,0.107l0.189,0.577
	c0.017,0.045,0.008,0.094-0.018,0.134s-0.068,0.064-0.115,0.07l-2.578,0.276c-0.004,0-0.01,0-0.016,0
	c-0.068,0-0.127-0.044-0.146-0.107l-0.041-0.122l-2.373-7.233c-0.016-0.04-0.01-0.082,0.01-0.119c0.02-0.037,0.05-0.065,0.09-0.077
	l0.624-0.205c0.084-0.028,0.169,0.017,0.194,0.098l0.051,0.149c0.107,0.33,0.257,0.511,0.451,0.552
	c0.24,0.054,0.707-0.025,1.299-0.219l7.074-2.323c0.785-0.259,1.086-0.473,1.199-0.606c0.133-0.153,0.146-0.386,0.039-0.708
	l-0.047-0.148c-0.014-0.039-0.011-0.082,0.008-0.118c0.021-0.039,0.051-0.066,0.09-0.078l0.623-0.206
	c0.041-0.012,0.082-0.009,0.119,0.009c0.037,0.018,0.066,0.052,0.078,0.091l2.426,7.382c0.015,0.04,0.008,0.082-0.012,0.12
	c-0.02,0.036-0.05,0.065-0.09,0.077l-2.186,0.718c-0.041,0.013-0.082,0.01-0.119-0.009s-0.065-0.052-0.079-0.09l-0.147-0.456
	c-0.023-0.071,0.008-0.148,0.073-0.185l0.114-0.062c0.584-0.321,0.75-0.542,0.801-0.644c0.034-0.077,0.092-0.336-0.15-1.079
	l-0.832-2.539l-4.25,1.395l0.808,2.455c0.126,0.387,0.259,0.481,0.313,0.502c0.041,0.02,0.127,0.042,0.286,0.042
	c0.142,0,0.313-0.019,0.509-0.053l0.135-0.024c0.076-0.015,0.149,0.03,0.175,0.104l0.188,0.571c0.024,0.082-0.021,0.169-0.103,0.196
	l-3.044,1c-0.082,0.029-0.17-0.017-0.196-0.099L254.384,107.155z M261.563,152.914l-4.285,3.104l1.642-5.031l-4.277-3.114
	l5.292,0.006l1.646-5.03l1.627,5.034l5.295,0.008l-4.287,3.104l1.631,5.033L261.563,152.914z"/>
<path d="M215.41,65.792c-0.055-0.052-0.105-0.106-0.162-0.157c-0.076-0.073-0.146-0.147-0.226-0.22
	c-19.017-18.268-44.843-29.5-73.294-29.5c-28.45,0-54.277,11.231-73.293,29.5c-0.076,0.073-0.149,0.147-0.225,0.22
	c-0.054,0.053-0.107,0.104-0.163,0.157c-0.074,0.074-0.148,0.146-0.222,0.218c-19.685,19.216-31.913,46.04-31.913,75.721
	c0,29.631,12.184,56.412,31.81,75.619c0.074,0.073,0.149,0.146,0.223,0.219c0.05,0.05,0.099,0.099,0.151,0.147
	c0.075,0.072,0.149,0.146,0.225,0.219c19.028,18.334,44.9,29.611,73.407,29.611c28.509,0,54.381-11.277,73.408-29.611
	c0.076-0.071,0.15-0.146,0.225-0.219c0.051-0.049,0.102-0.1,0.15-0.147c0.076-0.073,0.15-0.146,0.225-0.219
	c19.624-19.207,31.809-45.988,31.809-75.619c0-29.682-12.227-56.505-31.91-75.721C215.56,65.938,215.485,65.865,215.41,65.792z
	 M141.729,37.161c27.172,0,52.759,10.296,72.312,29.037l-11.881,9.48c-4.781-2.625-10.437-5.371-16.928-7.901
	c-18.021-7.026-39.643-7.358-43.237-7.47h-0.53c-3.593,0.112-25.215,0.444-43.238,7.47c-6.49,2.531-12.147,5.277-16.927,7.901
	l-11.882-9.48C88.972,47.457,114.558,37.161,141.729,37.161z M152.96,115.261c0.072,0.133,0.228,0.194,0.371,0.151L167,111.039
	l-21.041,21.916l-0.129-33.574l-3.766-29.21c-0.018-0.148-0.185-0.255-0.336-0.267v-0.245l0.119-0.001l0.406,0.01
	c19.672,0.553,32.381,4.015,39.582,6.822c4.254,1.658,8.373,3.518,12.351,5.551l-41.144,32.83
	C152.923,114.964,152.892,115.129,152.96,115.261z M144.207,191.941l1.139,1.762l-0.893,2.223c-0.014,0.029-0.021,0.063-0.021,0.096
	l-1.091,15.273c-0.004,0.045,0.004,0.095,0.021,0.14l0.632,1.562l-0.623,1.305c-0.033,0.068-0.039,0.146-0.021,0.218l1.014,3.663
	c0.017,0.05,0.042,0.096,0.079,0.135l1.823,1.854l0.063,2.807l-2.093,1.452h-2.508h-2.505l-2.092-1.452l0.062-2.807l1.822-1.854
	c0.038-0.039,0.064-0.085,0.079-0.135l1.014-3.663c0.02-0.072,0.012-0.149-0.02-0.218l-0.624-1.305l0.632-1.562
	c0.017-0.045,0.025-0.095,0.021-0.14l-1.09-15.273c-0.002-0.032-0.01-0.063-0.021-0.096l-0.891-2.223l1.135-1.762
	c0.074-0.113,0.064-0.266-0.024-0.369l-0.679-0.801c-0.058-0.07-0.147-0.111-0.238-0.111h-1.694l-18.136-8.455l0.804-2.287
	l0.84,1.838c0.037,0.086,0.112,0.148,0.204,0.174l14.338,3.738c0.08,0.021,0.166,0.011,0.237-0.031l2.104-1.246
	c0.07-0.043,0.122-0.108,0.143-0.188l0.779-2.885c0.005-0.025,0.009-0.054,0.009-0.08l0.119-31.513l0.002-0.452l0.001-0.452
	l0.005-1.169l0.05-13.16v-0.448l0.001-0.448l0.129-34.136l3.482-27.021l3.479,26.982l0.129,34.178l0.002,0.447l0.005,0.449
	l0.047,13.157l0.006,1.168l0.003,0.453l0.002,0.452l0.119,31.513c0,0.026,0.003,0.055,0.012,0.08l0.778,2.885
	c0.021,0.077,0.069,0.145,0.144,0.188l2.104,1.246c0.07,0.042,0.156,0.057,0.234,0.031l14.338-3.738
	c0.091-0.023,0.166-0.088,0.205-0.174l0.838-1.838l0.806,2.287l-18.138,8.455h-1.693c-0.09,0-0.177,0.041-0.236,0.111l-0.681,0.801
	C144.144,191.675,144.132,191.828,144.207,191.941z M130.497,167.998c-0.071-0.134-0.227-0.192-0.37-0.147l-13.669,4.373
	l20.975-21.847l-0.118,30.817l-0.736,2.722l-1.882,1.117l-14.068-3.671l-1.1-2.405c-0.053-0.115-0.177-0.199-0.297-0.183
	c-0.128,0.006-0.238,0.089-0.28,0.208l-1.154,3.282c-0.053,0.149,0.017,0.317,0.163,0.386l18.455,8.604
	c0.041,0.021,0.084,0.029,0.131,0.029h1.619l0.438,0.519l-1.097,1.7c-0.054,0.084-0.066,0.188-0.027,0.283l0.932,2.326l1.082,15.152
	l-0.655,1.623c-0.033,0.078-0.03,0.172,0.008,0.249l0.633,1.323l-0.96,3.473l-1.854,1.886c-0.056,0.056-0.089,0.132-0.09,0.212
	l-0.067,3.096c-0.001,0.104,0.049,0.201,0.133,0.263l2.309,1.604c0.052,0.036,0.114,0.057,0.177,0.057h2.604v7.322
	c-17.606-14.479-31.192-28.974-40.777-40.472l29.465-23.511C130.534,168.294,130.567,168.13,130.497,167.998z M182.291,75.329
	c-7.293-2.843-20.149-6.349-40-6.906l-0.423-0.012l-0.701,0.012c-19.85,0.558-32.707,4.063-39.998,6.906
	c-4.47,1.743-8.792,3.708-12.961,5.863l-4.266-3.405c4.924-2.648,10.071-5.021,15.417-7.106c7.658-2.985,21.104-6.666,41.668-7.243
	l0.482-0.013h0.44l0.482,0.013c20.563,0.577,34.012,4.258,41.668,7.243c5.348,2.085,10.491,4.459,15.417,7.106l-4.268,3.405
	C191.08,79.037,186.759,77.072,182.291,75.329z M87.604,81.509l0.533,0.423l0.531,0.425l40.034,31.943l-13.227-4.23
	c-0.136-0.042-0.284,0.011-0.359,0.131c-0.076,0.122-0.06,0.279,0.038,0.382l22.341,23.265l-0.029,7.613
	c-0.012-0.017-0.019-0.036-0.033-0.05L92.662,96.206l11.969,5.946c0.139,0.072,0.304,0.028,0.391-0.098
	c0.09-0.124,0.076-0.296-0.034-0.403l-18.482-18.16l-0.465-0.457l-0.466-0.458l-3.71-3.647l-1.378-1.353l-0.933-0.918l-8.536-8.385
	l9.695,7.734l1.057,0.845l1.581,1.261L87.604,81.509z M130.809,147.652l-36.116,36.467c-5.545-7.158-8.987-12.358-10.313-14.436
	c-2.434-7.085-4.378-14.57-5.935-22.031H130.809z M81.301,79.25l3.708,3.644c-4.79,2.648-9.36,5.562-13.664,8.738l-0.262,0.191
	l0.008,0.325c0.346,13.857,2.223,49.202,12.134,78.01l0.063,0.135c1.311,2.058,4.821,7.371,10.52,14.721l-2.91,2.938
	c-0.107,0.107-0.12,0.278-0.032,0.401c0.09,0.123,0.255,0.168,0.393,0.097l3.771-1.873c0.568,0.723,1.154,1.456,1.76,2.213
	l-3.564,3.504c-8.727-10.811-13.579-18.408-14.502-19.89c-11.451-32.797-12.566-74.528-12.673-83.021
	C70.83,85.681,75.925,82.299,81.301,79.25z M96.17,186.009l6.981-3.471l-5.466,5.371C97.166,187.264,96.661,186.63,96.17,186.009z
	 M92.289,194.085l1.332-1.312l3.564-3.499l0.456-0.447l0.001-0.002l0.433-0.428l6.912-6.79c0.11-0.106,0.124-0.278,0.034-0.401
	c-0.087-0.125-0.252-0.168-0.391-0.1l-8.853,4.398l-0.558,0.275l-0.003,0.002l-0.579,0.289l-1.976,0.979l1.532-1.548l0.451-0.455
	h0.002l0.431-0.437l36.606-36.965l5.749-5.803c0.013-0.015,0.02-0.033,0.032-0.049l-0.022,5.852l-0.006,1.821l-22.282,23.201
	c-0.098,0.104-0.114,0.263-0.038,0.383c0.075,0.121,0.225,0.175,0.359,0.133l13.227-4.23l-28.15,22.461l-0.474,0.379l-0.003,0.002
	l-0.497,0.396l-3.887,3.103l-1.454,1.158l-1.007,0.805l-22.216,17.727l20.353-19.996L92.289,194.085z M99.978,192.677
	c9.701,11.641,23.481,26.332,41.356,40.979l0.395,0.324l0.395-0.324c17.915-14.678,31.685-29.353,41.372-40.973l3.881,3.098
	c-10.518,12.623-25.746,28.786-45.646,44.604c-19.883-15.807-35.119-31.979-45.64-44.608L99.978,192.677z M183.892,192.207
	l-0.497-0.396l-0.008-0.008l-0.468-0.374l-28.164-22.471l13.229,4.23c0.135,0.042,0.282-0.011,0.359-0.133
	c0.074-0.12,0.058-0.277-0.04-0.383l-22.28-23.203l-0.008-1.819l-0.021-5.853c0.01,0.017,0.018,0.036,0.031,0.05l5.746,5.803
	l36.618,36.976l0.426,0.43l0.009,0.009l0.448,0.454l1.522,1.536l-1.961-0.976l-0.58-0.287l-0.01-0.006l-0.552-0.272l-8.866-4.405
	c-0.139-0.068-0.302-0.027-0.392,0.1c-0.09,0.123-0.074,0.295,0.034,0.401l6.922,6.804l0.428,0.418l0.01,0.01l0.455,0.447
	l3.557,3.493l1.332,1.31l0.918,0.9l20.351,19.996l-22.214-17.727l-1.002-0.799l-1.453-1.158L183.892,192.207z M192.589,94.909
	c-0.09-0.125-0.254-0.168-0.393-0.097l-11.894,5.91l17.219-16.917c4.767,2.615,9.308,5.499,13.588,8.639
	c-0.271,10.504-1.405,32.733-6.098,55.209h-52.365l-5.962-6.022l45.874-46.32C192.666,95.202,192.679,95.032,192.589,94.909z
	 M190.234,192.294l-3.559-3.496c0.611-0.758,1.195-1.493,1.764-2.217l3.759,1.865c0.138,0.069,0.302,0.027,0.392-0.097
	c0.091-0.123,0.076-0.294-0.027-0.402l-2.898-2.927c5.699-7.355,9.199-12.672,10.506-14.729l0.063-0.131
	c9.934-28.868,11.795-64.175,12.139-78.017l0.008-0.324l-0.264-0.193c-4.306-3.176-8.871-6.088-13.662-8.736l3.707-3.645
	c5.375,3.049,10.475,6.431,15.25,10.131c-0.105,8.488-1.217,50.201-12.677,83.022C203.809,173.884,198.964,181.481,190.234,192.294z
	 M202.977,77.574l-1.38,1.354l-3.715,3.649l-0.465,0.457l-0.465,0.458l-18.481,18.159c-0.108,0.107-0.124,0.279-0.034,0.403
	c0.09,0.125,0.253,0.168,0.391,0.098l11.969-5.946l-44.771,45.205c-0.016,0.015-0.022,0.035-0.034,0.052l-0.029-7.612l22.343-23.268
	c0.098-0.103,0.112-0.26,0.04-0.382c-0.077-0.12-0.227-0.173-0.359-0.131l-13.229,4.23l40.033-31.941l0.535-0.427l0.529-0.423
	l4.258-3.397l1.58-1.261l1.059-0.846l9.693-7.733l-8.535,8.385L202.977,77.574z M67.788,215.671
	c-19.75-19.75-30.627-46.01-30.627-73.94c0-27.93,10.877-54.191,30.627-73.942c0.306-0.305,0.618-0.603,0.927-0.904L78.987,76.98
	c-10.241,5.883-15.826,10.844-16.06,10.844c-0.001,0-0.002,0-0.002-0.001c0,0-0.222,48.421,12.972,85.931
	c0,0,5.019,8.313,15.078,20.752l-22.362,21.974C68.337,216.207,68.06,215.944,67.788,215.671z M141.729,246.298
	c-27.223,0-52.857-10.336-72.424-29.147l24.327-19.409c10.899,13.094,26.833,29.951,47.833,46.407h0.53
	c20.999-16.456,36.934-33.313,47.833-46.405l24.326,19.407C194.587,235.962,168.953,246.298,141.729,246.298z M246.296,141.73
	c0,27.932-10.875,54.189-30.627,73.941c-0.271,0.271-0.549,0.535-0.823,0.805l-22.362-21.973
	c10.061-12.438,15.078-20.752,15.078-20.752c13.193-37.509,12.973-85.932,12.973-85.932c0,0.001,0,0.001-0.002,0.001
	c-0.234,0-5.818-4.961-16.061-10.846l10.271-10.093c0.309,0.301,0.619,0.599,0.926,0.904
	C235.421,87.539,246.296,113.8,246.296,141.73z"/>
</svg>
