<?xml version="1.0" encoding="utf-8"?>
<!-- Generator: Adobe Illustrator 15.1.0, SVG Export Plug-In . SVG Version: 6.00 Build 0)  -->
<!DOCTYPE svg PUBLIC "-//W3C//DTD SVG 1.1//EN" "http://www.w3.org/Graphics/SVG/1.1/DTD/svg11.dtd">
<svg version="1.1" xmlns="http://www.w3.org/2000/svg" xmlns:xlink="http://www.w3.org/1999/xlink" x="0px" y="0px"
	 width="283.465px" height="283.465px" viewBox="0 0 283.465 283.465" enable-background="new 0 0 283.465 283.465"
	 xml:space="preserve">
<g id="Layer_3">
	<g>
		<path d="M40.722,111.452c0,0,0.783-0.23,1.054-1.687c0.069-0.396-0.19-0.777-0.587-0.852c-0.397-0.068-0.777,0.196-0.852,0.587
			C40.071,110.957,40.722,111.452,40.722,111.452z"/>
		<path d="M29.133,128.477c0.403,0,0.731-0.322,0.731-0.731c0-1.48-0.731-1.843-0.731-1.843s-0.731,0.363-0.731,1.843
			C28.402,128.154,28.73,128.477,29.133,128.477z"/>
		<path d="M33.975,117.664c0.95-1.14,0.622-1.888,0.622-1.888s-0.794-0.184-1.745,0.95c-0.253,0.311-0.213,0.771,0.098,1.03
			C33.254,118.016,33.715,117.969,33.975,117.664z"/>
		<path d="M38.396,125.091c1.376,0.546,1.987,0,1.987,0s-0.07-0.812-1.446-1.359c-0.374-0.15-0.8,0.034-0.95,0.409
			C37.838,124.515,38.022,124.941,38.396,125.091z"/>
		<path d="M129.387,109.608c0.746-0.739,1.715-1.256,2.799-1.421c-1.294,0.064-2.583,0.154-3.845,0.274
			c0.325,0.44,0.58,0.937,0.752,1.473C129.189,109.819,129.285,109.711,129.387,109.608z"/>
		<path d="M221.044,31.829c1.14-0.375,1.944-0.958,2.417-1.735c0.47-0.79,0.706-1.887,0.706-3.295c0-1.922-0.597-3.296-1.789-4.122
			c-1.194-0.826-3.387-1.235-6.565-1.235h-5.591v10.943h5.884C218.271,32.384,219.906,32.196,221.044,31.829z"/>
		<path d="M113.708,111.063c-0.28,0.077-0.555,0.153-0.829,0.236c0.198,0.077,0.389,0.166,0.574,0.268
			C113.53,111.394,113.614,111.222,113.708,111.063z"/>
		<path d="M60.627,43.528c1.271,1.041,3.324,1.561,6.148,1.561s4.872-0.52,6.147-1.561c1.271-1.034,1.909-2.693,1.909-4.969V27.853
			c0-2.276-0.638-3.927-1.909-4.968c-1.276-1.041-3.323-1.562-6.147-1.562s-4.877,0.521-6.148,1.562
			c-1.277,1.041-1.915,2.692-1.915,4.968v10.706C58.712,40.835,59.35,42.494,60.627,43.528z"/>
		<path d="M110.38,119.014c0.051,0.088,0.108,0.178,0.172,0.268c0.006,0.893,0.396,1.696,1.007,2.257c0,0.032,0,0.064,0,0.096
			c0,1.543,1.135,2.824,2.615,3.047c-1.447,0.249-2.551,1.517-2.551,3.028c0,1.703,1.383,3.08,3.079,3.08
			c1.627,0,2.958-1.262,3.073-2.862c0.606-0.102,1.154-0.389,1.583-0.791c0.325,0.427,0.765,0.765,1.268,0.969
			c-0.191,0.402-0.306,0.854-0.306,1.339c0,1.045,0.529,1.976,1.332,2.53l4.808-2.206c0.013-0.108,0.019-0.217,0.019-0.325
			c0-1.288-0.791-2.391-1.914-2.85c0.045-0.09,0.083-0.179,0.116-0.274c0.044,0,0.082,0.006,0.12,0.006
			c0.236,0,0.466-0.032,0.689-0.076c0.268,1.147,1.187,2.053,2.352,2.302c0.09,0.152,0.198,0.306,0.32,0.439l5.368-2.506
			c-0.096-0.593-0.364-1.134-0.752-1.562c0.07-0.058,0.141-0.115,0.21-0.173c0.173,0.268,0.389,0.504,0.632,0.708
			c0.057,0.299,0.153,0.586,0.292,0.848l5.573-2.602c-0.14-0.318-0.325-0.612-0.555-0.867c0.076-0.058,0.146-0.115,0.217-0.172
			c0.209,0.318,0.477,0.605,0.785,0.829l4.87-2.277c0-0.07,0-0.147,0-0.223c0-0.796-0.293-1.518-0.789-2.065
			c0.764-0.555,1.262-1.46,1.262-2.481c0-1.702-1.377-3.079-3.073-3.079c-1.695,0-3.08,1.377-3.08,3.079
			c0,0.791,0.3,1.512,0.795,2.06c-0.076,0.057-0.152,0.115-0.215,0.172c-0.18-0.268-0.384-0.503-0.631-0.701
			c-0.078-0.409-0.23-0.785-0.447-1.117c0.019-0.133,0.025-0.274,0.025-0.415c0-1.447-0.994-2.658-2.339-2.989
			c-0.076-0.173-0.173-0.332-0.274-0.485c-0.109-1.601-1.441-2.87-3.074-2.87c-1.696,0-3.073,1.384-3.073,3.08
			c0,0.561,0.146,1.084,0.408,1.542c-0.051,0.09-0.102,0.186-0.146,0.288c-0.064-0.07-0.127-0.134-0.198-0.198
			c0-0.032,0-0.064,0-0.096c0-1.543-1.135-2.824-2.614-3.042c0.006-0.076,0.006-0.146,0.006-0.223c0-1.179-0.669-2.206-1.645-2.722
			c-1.206,0.14-2.392,0.312-3.558,0.497c-0.586,0.561-0.95,1.351-0.95,2.225c0,0.562,0.146,1.091,0.408,1.537
			c-0.051,0.096-0.103,0.191-0.147,0.293c-0.096-0.108-0.205-0.21-0.312-0.3c-0.268-1.434-1.524-2.518-3.028-2.518
			c-1.703,0-3.08,1.376-3.08,3.073c0,0.956,0.44,1.81,1.122,2.378c0.064,0.35,0.192,0.682,0.364,0.982
			c-0.128,0.216-0.23,0.453-0.3,0.701c-0.033-0.057-0.077-0.115-0.115-0.166c-0.006-1.473-1.045-2.704-2.436-2.997
			c-0.536-0.906-1.523-1.517-2.646-1.517c-1.702,0-3.08,1.376-3.08,3.079C107.945,117.483,108.99,118.713,110.38,119.014z"/>
		<path d="M62.158,130.394c0.391-0.116,0.609-0.524,0.494-0.909c-0.426-1.416-1.232-1.555-1.232-1.555s-0.599,0.558-0.173,1.975
			C61.363,130.29,61.765,130.508,62.158,130.394z"/>
		<path d="M47.844,118.43c0.38-0.121,0.599-0.536,0.472-0.916c-0.115-0.386-0.529-0.599-0.915-0.478
			c-1.411,0.449-1.537,1.261-1.537,1.261S46.434,118.878,47.844,118.43z"/>
		<path d="M55.03,112.063c0.311,0.247,0.771,0.189,1.024-0.132c0.242-0.317,0.185-0.778-0.139-1.02
			c-1.163-0.904-1.9-0.553-1.9-0.553S53.854,111.165,55.03,112.063z"/>
		<path d="M63.723,118.637c0.391,0.104,0.794-0.132,0.898-0.523c0.104-0.392-0.138-0.789-0.529-0.893
			c-1.428-0.374-1.969,0.236-1.969,0.236S62.295,118.257,63.723,118.637z"/>
		<path d="M55.157,122.673c-1.232,0.806-1.141,1.618-1.141,1.618s0.702,0.415,1.946-0.397c0.334-0.219,0.426-0.673,0.208-1.008
			C55.95,122.546,55.501,122.449,55.157,122.673z"/>
		<path d="M174.015,43.528c1.275,1.041,3.316,1.561,6.146,1.561c2.818,0,4.871-0.52,6.148-1.561
			c1.276-1.034,1.901-2.693,1.901-4.969V27.853c0-2.276-0.625-3.927-1.901-4.968c-1.277-1.041-3.33-1.562-6.148-1.562
			c-2.83,0-4.871,0.521-6.146,1.562c-1.277,1.041-1.916,2.692-1.916,4.968v10.706C172.099,40.835,172.737,42.494,174.015,43.528z"/>
		<path d="M69.009,127.526c0,0,0.494-0.65-0.162-1.98c-0.172-0.362-0.61-0.512-0.967-0.333c-0.368,0.179-0.518,0.615-0.346,0.979
			C68.191,127.521,69.009,127.526,69.009,127.526z"/>
		<path d="M47.688,131.781c0.098,1.474,0.858,1.791,0.858,1.791s0.702-0.415,0.599-1.889c-0.022-0.403-0.368-0.708-0.771-0.679
			C47.971,131.033,47.66,131.378,47.688,131.781z"/>
		<path d="M23.197,121.446c-0.34,0.214-0.438,0.668-0.219,1.007c0.8,1.244,1.612,1.158,1.612,1.158s0.415-0.702-0.386-1.945
			C23.986,121.326,23.537,121.228,23.197,121.446z"/>
		<path d="M35.679,134.32c1.45-0.317,1.652-1.105,1.652-1.105s-0.519-0.639-1.963-0.323c-0.393,0.086-0.645,0.477-0.554,0.869
			C34.901,134.159,35.287,134.407,35.679,134.32z"/>
		<path d="M230.682,110.588c-0.082,0.031-0.66,1.196-0.854,1.656L230.682,110.588z"/>
		<path d="M244.064,113.308l0.071-0.634C244.044,112.776,244.044,113.033,244.064,113.308z"/>
		<path d="M244.064,114.044c0.052-0.164,0.021-0.46,0-0.736C244.034,113.615,244.023,113.891,244.064,114.044z"/>
		<path d="M183.237,129.648c0-11.91-20.658-21.583-46.097-21.583c-1.295,0-2.576,0.026-3.846,0.07
			c1.206,0.077,2.296,0.581,3.125,1.352c0.702,0.657,1.211,1.505,1.453,2.455c0.363,0.185,0.707,0.415,1.014,0.683
			c0.892-0.766,2.041-1.237,3.315-1.237c1.39,0,2.653,0.567,3.571,1.485c0.918,0.918,1.479,2.181,1.479,3.577
			c0,0.823-0.191,1.601-0.548,2.29c-0.076,0.153-0.154,0.3-0.256,0.446c0.142,0.357,0.243,0.733,0.294,1.129l11.731-5.483
			c4.642-1.97,8.135,0.337,9.576,3.532l0.306-0.147c4.642-1.963,8.137,0.338,9.578,3.533c1.529,3.405,0.662,7.849-3.585,9.57
			l-39.166,18.311c-0.358,0.154-0.709,0.293-1.059,0.395c-0.656,0.523-1.403,0.893-2.199,1.072c1.708,0.088,3.449,0.141,5.216,0.141
			C162.579,151.237,183.237,141.564,183.237,129.648z"/>
		<path d="M134.896,144.018c0-2.015-0.906-3.768-2.226-4.647c-0.185-0.088-0.356-0.19-0.517-0.293
			c-0.446-0.203-0.924-0.319-1.428-0.319c-2.174,0-3.965,2.116-4.151,4.808c0.23,2.933,2.991,5.591,6.619,4.698
			C134.226,147.297,134.896,145.761,134.896,144.018z"/>
		<path d="M205.924,118.031c-0.087-0.112-0.179-0.194-0.275-0.235c-0.058-0.123-0.139-0.225-0.251-0.297
			c-0.036-0.02-0.066-0.04-0.103-0.05C205.188,117.868,205.638,117.858,205.924,118.031z"/>
		<path d="M232.23,115.537c-0.047,0.522-0.455,1.023-0.986,1.289c0.152,0.071,1.364-1.074,1.462-0.941
			c0.188,0.255-0.895,1.809-1.049,2.065c0.307-0.041,0.634,0.051,0.798,0.255c0.199,0.246,0.107,0.542-0.194,0.706l0.02,0.041
			c0.083,0.01,0.165,0.031,0.241,0.051c0.144,0,0.287,0,0.429,0c-0.152-0.347-0.05-0.981-0.05-1.462c0-1.125,0.307-1.85,0.925-1.85
			c-0.419-0.44-0.624-1.309-0.542-2.127c-0.103,0.01-0.143,1.083-0.23,1.166c-0.822,0.807-0.347,0.009-0.347-0.093
			c-0.113,0.042-0.456-0.571-0.655-0.562c-0.106,0.378-0.736,0.144-1.14,0.399C231.709,114.362,232.297,114.832,232.23,115.537z"/>
		<path d="M124.936,146.346l-0.695,0.293c-0.982,0.772-2.155,1.204-3.398,1.204c-1.524,0-2.939-0.649-4.036-1.776
			c-1.25-1.289-2.079-3.24-2.079-5.433c0-0.103,0-0.211,0.007-0.312c-0.236-2.653,1.006-5.478,4.476-7.143l0.529-0.248
			c-0.319-0.338-0.599-0.721-0.815-1.135c-0.142-0.262-0.255-0.542-0.345-0.829c-0.134,0.153-0.274,0.306-0.427,0.447
			c-0.906,0.841-2.117,1.357-3.45,1.357c-1.396,0-2.659-0.567-3.577-1.479c-0.828-0.829-1.371-1.95-1.466-3.188
			c-0.356,0.083-0.733,0.121-1.11,0.121c-1.396,0-2.665-0.562-3.576-1.479c-0.638-0.638-1.104-1.435-1.333-2.334
			c-0.586-0.299-1.109-0.708-1.537-1.205c-0.765-0.886-1.224-2.04-1.224-3.302c0-1.396,0.567-2.659,1.479-3.577
			c0.918-0.918,2.181-1.479,3.577-1.479c0.052,0,0.109,0,0.159,0c0.115-0.492,0.3-0.957,0.549-1.384
			c-9.57,3.959-15.608,9.742-15.608,16.183c0,10.583,16.31,19.396,37.79,21.23c-0.791-0.293-1.517-0.791-2.136-1.428
			C125.906,148.647,125.288,147.577,124.936,146.346z"/>
		<path d="M215.263,116.569c0.031-0.061,0.066-0.184,0.113-0.327c0.03-0.081,0.051-0.133,0.036-0.113l-0.185,0.532
			C215.237,116.63,215.248,116.6,215.263,116.569z"/>
		<path d="M229.766,112.439c-0.01-0.01,0.017-0.082,0.062-0.195c-0.051,0.082-0.103,0.164-0.153,0.246
			C229.705,112.47,229.735,112.449,229.766,112.439z"/>
		<path d="M206.139,118.42c0.005-0.205-0.092-0.307-0.215-0.389c0.071,0.103,0.138,0.226,0.189,0.379
			C206.123,118.41,206.128,118.42,206.139,118.42z"/>
		<path d="M264.378,7.087H19.086c-6.627,0-12,5.373-12,12v245.291c0,6.627,5.373,12,12,12h245.292c6.627,0,12-5.373,12-12V19.087
			C276.378,12.459,271.005,7.087,264.378,7.087z M202.88,14.856h12.697c5.648,0,9.742,0.979,12.268,2.942
			c2.526,1.958,3.79,5.017,3.79,9.173c0,3.101-0.639,5.53-1.93,7.293c-1.305,1.769-3.441,3.039-6.412,3.822l8.342,13.476h-8.466
			l-7.592-12.649h-5.355v12.649h-7.342V14.856z M164.744,27.853c0-4.309,1.332-7.619,3.995-9.908
			c2.679-2.297,6.482-3.442,11.422-3.442c4.941,0,8.745,1.145,11.409,3.442c2.662,2.289,3.995,5.599,3.995,9.908v10.706
			c0,4.316-1.333,7.619-3.995,9.916c-2.664,2.29-6.468,3.442-11.409,3.442c-4.939,0-8.743-1.152-11.422-3.442
			c-2.663-2.297-3.995-5.599-3.995-9.916V27.853z M129.092,27.27c0-4.198,1.263-7.375,3.788-9.534
			c2.533-2.158,6.246-3.233,11.144-3.233c9.729,0,14.6,4.177,14.6,12.531v1.817h-7.355v-1.817c0-2.005-0.514-3.456-1.525-4.358
			c-1.028-0.901-2.915-1.353-5.648-1.353c-2.909,0-4.906,0.5-6.003,1.499c-1.103,1.007-1.651,2.464-1.651,4.385v11.998
			c0,1.887,0.583,3.337,1.735,4.356c1.158,1.021,3.129,1.527,5.919,1.527c2.706,0,4.579-0.458,5.604-1.381
			c1.041-0.923,1.569-2.422,1.569-4.503v-1.583h7.355v1.7c0,4.275-1.236,7.445-3.679,9.499c-2.455,2.062-6.092,3.095-10.921,3.095
			c-4.898,0-8.611-1.083-11.144-3.24c-2.525-2.159-3.788-5.33-3.788-9.527V27.27z M89.493,14.856h6.584l18.762,24.765V14.856h6.946
			v36.707h-6.592L96.431,27.207v24.356h-6.938V14.856z M51.364,27.853c0-4.309,1.333-7.619,3.997-9.908
			c2.665-2.297,6.474-3.442,11.414-3.442s8.743,1.145,11.407,3.442c2.672,2.289,4.004,5.599,4.004,9.908v10.706
			c0,4.316-1.333,7.619-4.004,9.916c-2.665,2.29-6.467,3.442-11.407,3.442s-8.75-1.152-11.414-3.442
			c-2.665-2.297-3.997-5.599-3.997-9.916V27.853z M73.752,129.795c0,13.702-55.772,13.702-55.772,0
			c0-13.703,12.494-24.826,27.883-24.826C61.247,104.969,73.752,116.092,73.752,129.795z M25.362,138.292l0.04,0.012
			c-1.958,0.881-1.031,2.066,2.257,2.7c3.052,0.593,7.162,0.518,9.771-0.104c0.259,0.028,0.519,0.052,0.777,0.075
			c0.743,0.909,3.903,1.606,7.657,1.606s6.908-0.697,7.657-1.606c0.265-0.023,0.519-0.046,0.783-0.075
			c2.603,0.622,6.713,0.697,9.766,0.104c3.281-0.634,4.214-1.819,2.256-2.7l0.046-0.012c2.373,0.138,4.825-0.051,6.621-0.472
			c-6.149,10.202-48.108,10.202-54.263,0C20.531,138.241,22.99,138.431,25.362,138.292z M17.98,134.844
			c0.006-0.334,0.018-0.668,0.041-1.002c0.294,0.086,0.622,0.173,0.979,0.242c0.104,0.15,0.218,0.293,0.34,0.438
			C18.838,134.614,18.384,134.723,17.98,134.844z M72.383,134.521c0.126-0.144,0.241-0.288,0.344-0.438
			c0.357-0.069,0.68-0.156,0.979-0.242c0.023,0.334,0.034,0.668,0.034,1.002C73.35,134.723,72.889,134.614,72.383,134.521z
			 M15.705,27.27c0-4.198,1.264-7.375,3.79-9.534c2.532-2.158,6.244-3.233,11.15-3.233c9.721,0,14.585,4.177,14.585,12.531v1.817
			h-7.348v-1.817c0-2.005-0.514-3.456-1.534-4.358c-1.02-0.901-2.9-1.353-5.648-1.353c-2.9,0-4.898,0.5-5.995,1.499
			c-1.104,1.007-1.651,2.464-1.651,4.385v11.998c0,1.887,0.582,3.337,1.734,4.356c1.16,1.021,3.129,1.527,5.912,1.527
			c2.706,0,4.58-0.458,5.621-1.381c1.041-0.923,1.561-2.422,1.561-4.503v-1.583h7.348v1.7c0,4.275-1.221,7.445-3.677,9.499
			c-2.45,2.062-6.085,3.095-10.908,3.095c-4.906,0-8.618-1.083-11.15-3.24c-2.526-2.159-3.79-5.33-3.79-9.527V27.27z M17.98,139.179
			c0-0.432,0.058-0.846,0.173-1.249c3.288,11.974,52.133,11.974,55.415,0c0.115,0.403,0.184,0.817,0.184,1.249
			c0,13.248-12.505,15.154-27.889,15.154C30.474,154.333,17.98,152.427,17.98,139.179z M83.625,265.704H72.252v-37.231
			L53.875,260.69h-1.33l-19.04-32.694v37.708H22.232v-59.115h10.896l20.654,34.587l19.516-34.587h10.327V265.704z M84.437,129.648
			c0-6.771,4.177-13.428,12.209-18.478c9.214-5.783,23.904-9.71,40.494-9.71c16.591,0,31.278,3.927,40.484,9.71
			c8.047,5.049,12.218,11.706,12.218,18.478c0,6.771-4.171,13.427-12.218,18.478c-9.206,5.789-23.894,9.715-40.484,9.715
			c-16.59,0-31.28-3.926-40.494-9.715C88.614,143.075,84.437,136.419,84.437,129.648z M137.17,217.293h-28.043v13.27h25.96v10.613
			h-25.96v13.918h28.043v10.61H97.286v-59.115h39.885V217.293z M200.012,265.704h-10.61l-30.233-39.216v39.216h-11.181v-59.115
			H158.6l30.231,39.892v-39.892h11.181V265.704z M261.232,244.391c0,7.712-2.024,13.283-6.06,16.724
			c-4.049,3.439-10.017,5.16-17.915,5.16c-7.886,0-13.879-1.734-17.955-5.214c-4.074-3.466-6.112-9.022-6.112-16.67v-37.802h11.854
			v37.417c0,3.667,0.86,6.431,2.594,8.296c1.746,1.866,4.948,2.792,9.619,2.792c4.618,0,7.793-0.952,9.526-2.884
			s2.606-4.658,2.606-8.204v-37.417h11.842V244.391z M256.2,144.072c-4.877,4.662-12.269,8.169-23.5,8.138
			c-11.205-0.03-18.582-3.538-23.458-8.179c-8.185-7.781-9.319-18.925-9.319-23.106c0-3.312,2.842-6.656,8.118-9.048
			c5.832-2.637,14.717-4.355,24.665-4.355c1.41,0,2.802,0.032,4.171,0.103c-0.143,0.195-0.266,0.419-0.378,0.634
			c-0.021,0-0.041-0.01-0.062-0.02c-0.572-0.194-1.206-0.103-1.758,0.481c-0.226,0.234-0.42,0.552-0.563,0.92l-2.254-0.011
			c-0.006-0.255-0.082-0.46-0.164-0.604c-0.163-0.266-0.409-0.439-0.73-0.49c-0.199-0.041-0.491-0.031-0.854,0.174
			c-0.246,0.133-0.625,0.45-1.16,1.002c-0.676,0.03-1.346,0.072-2.01,0.122c-0.833-0.49-1.952-0.808-2.545-0.726
			c-0.619,0.092-0.927,0.419-1.079,0.838c-0.031,0.071-0.051,0.143-0.066,0.235c-0.563,0.061-1.12,0.133-1.667,0.214
			c-0.062-0.031-0.117-0.062-0.164-0.082c-0.326-0.123-0.634-0.082-0.919,0.123h-0.017c-0.147-0.154-0.296-0.287-0.424-0.379
			c-0.276-0.184-0.537-0.235-0.726-0.235c-0.246,0-0.445,0.072-0.614,0.194c-0.199,0.144-0.388,0.379-0.443,0.767
			c-0.006,0.051-0.011,0.113-0.011,0.174c-6.001,1.186-10.813,3.078-13.598,5.377c-0.455,0.011-0.87,0.215-1.161,0.573
			c-0.225,0.266-0.373,0.624-0.388,1.033l-0.328,0.481c-0.188,0.153-0.327,0.45-0.424,0.735c0.03-0.031,0.057-0.071,0.087-0.112
			c0.2,0.02,0.802-0.869,0.802-1.278c0-0.399,0.287-0.715,0.634-0.715c0.354,0,0.635,0.316,0.635,0.715
			c0.159-0.306,0.48-0.429,0.767-0.316c0.026-0.113,0.097-0.255,0.221-0.44c0.235-0.357,0.884-0.092,0.884,0.695
			c0.21-0.685,0.675-0.92,1.038-0.521c0.362,0.399,0.49,1.268,0.276,1.963c0.367-0.399,0.832-0.164,1.042,0.521
			s0.088,1.564-0.28,1.963c0.081,0,0.163,0.02,0.234,0.072c0.408,0.103,0.828,0.235,1.263,0.388
			c0.025-0.051,0.057-0.102,0.092-0.144c-0.266,0-0.495-0.357-0.598-0.868c-0.899-1.104-0.777-1.994,0.465-2.27
			c-0.204-0.459-0.716-1.083-0.562-1.677c0.178-0.695,1.032-1.033,1.344-0.634c-0.179-0.695-1.104-1.379-0.798-1.789
			c0.313-0.398,1.744-0.368,1.922,0.327c0-0.797-0.454-1.277-0.097-1.277c0.362,0,1.4,0.48,1.4,1.277
			c0.18-0.695,1.191-2.269,1.503-1.861c0.313,0.399-0.193,2.628-0.373,3.323c0.271-0.347,0.941-0.878,1.141-0.368
			c0.193-0.654,0.47-1.696,0.675-1.604c-0.537-0.808,0.582-0.481,0.854-0.716c-0.006-0.439,0.025-0.798,0.158-0.828
			c0.082-0.01,0.654,1.575,0.721,1.595c0.164-0.143,0.343-0.102,0.501,0.154c-0.174-0.839,0.021-0.982,0.322-1.473
			c0.302-0.481,0.593-1.135,0.767-0.286c0-0.93-0.378-2.096-0.112-2.208l0.041-0.011c0.347,0,1.329,1.248,1.329,2.219
			c0.174-0.849,0.22-2.158,0.521-1.677c0.071,0.113,0.47,1.288,0.517,1.462c0.117-0.348,1.446,0.981,1.83,0.747
			c0.726-0.45,0.531-2.045,0.868-1.494c0.066-0.705-0.665-1.861,0.133-1.973c0.798-0.122,2.822,0.848,2.756,1.543
			c0.46-0.654,0.353,1.125,0.793,0.573c1.113-1.39,1.839-2.157,2.279-2.495l0.225-0.143l0.103-0.052l0.061-0.01h0.072
			c0.011,0.01,0.021,0.01,0.03,0.021l0.047,0.041l0.02,0.051l0.006,0.061l0.005,0.021c0.011,0.194-0.087,0.542-0.25,0.94
			c0.122-0.051-0.507,1.636-0.281,1.625c0.138-0.02,0.685-1.502,0.838-1.564c0.036,0.072,0.567,0.665,0.849,0.625
			c0.362-0.052,0,0,0.103,0.787c0-0.103,0.567-1.063,0.981-1.063c0.419,0,0.526,0.961,0.526,1.063
			c0.081-0.031,0.199-0.061,0.332-0.072c0.235-0.144,0.496-0.153,0.731,0.011c0.062,0.009,0.112,0.02,0.153,0.03
			c-0.215-0.808-0.123-1.758,0.226-2.372l0.163-0.225l0.164-0.174l0.152-0.102l0.164-0.051l0.143-0.021l0.184,0.032l0.154,0.07
			l0.153,0.113l0.123,0.133l0.112,0.143c0.092,0.153,0.174,0.327,0.235,0.532c0-0.144,0.02-0.307,0.061-0.47l0.287-0.777l0.46-0.787
			c0.103-0.144,0.204-0.276,0.307-0.388c0.306-0.359,0.613-0.594,0.828-0.594c0.245,0,0.338,0.296,0.368,0.727l-0.063,2.29
			c0.032-0.124,0.113-0.226,0.216-0.307l0.103-0.062l0.245-0.102l0.316-0.062l0.726,0.01l0.88,0.185l0.563,0.214l0.225,0.144
			l0.113,0.092c0.531,0.563-1.136,0.961-1.453,1.933c0.174-0.174,0.358-0.266,0.542-0.276c0.042-0.051,0.103-0.081,0.153-0.092
			c0.174-0.02,0.747-0.92,0.921-0.583c0.112,0.164-0.163,1.452-0.082,1.697c0.082,0.266,0.133,0.542,0.144,0.818
			c0.01,0.061,0.02,0.122,0.03,0.185c0.03-1.084,0.94-2.69,1.359-2.127c0.083,0.112,0.052,0.48,0,0.899
			c0.43-0.429,1.31,0.205,1.687,0.665c0.011-0.123,0.113-0.582,0.175-0.93c0.163,0.052,0.45-0.01,0.858-0.296
			c0.041-0.04,0.092-0.071,0.144-0.103c-0.082-0.388-0.338-0.858-0.389-1.236l-0.01-0.185l0.01-0.092l0.021-0.061l0.03-0.052
			l0.041-0.051c0-0.01,0.011-0.01,0.011-0.01c0.398-0.368,1.554-0.01,1.778,0.614v-0.031c0.011-0.686,0.286-0.439,0.736-0.439h0.041
			c0.439-0.011,0.868-0.225,0.868,0.47l0.235-0.45l0.409-0.521l0.276-0.235c0.225-0.174,0.449-0.235,0.604-0.103
			c0.092,0.092,0.153,0.255,0.184,0.46v0.788l-0.184,1.063c-0.03,0.123-0.063,0.225-0.093,0.316
			c0.063-0.061,0.144-0.113,0.246-0.163l0.357-0.144l0.338-0.051h0.296l0.174,0.051l0.133,0.061l0.092,0.083l0.062,0.071
			l0.041,0.092l0.041,0.113l0.011,0.194c-0.011,0.675-0.624,1.656-0.961,1.963c0.367,0,0.685,0.399,0.787,0.94
			c0.225-0.184,0.797-0.909,1.073-0.94c0.716-0.082,0.94,1.125,0.859,1.933c0.388-0.665,1.104-0.993,1.676-0.797
			c0.103-0.276,0.358-1.023,0.634-1.453l0.216-0.255l0.03-0.02c0.133-0.082,0.266-0.113,0.398-0.113h0.021
			c0.664,0.011,1.319,0.9,1.708,1.575l-0.194-0.716c0.081,0.021,0.521,0.695,1.124,0.695h0.041c0.337,0,0.572-0.041,0.746-0.041
			h0.021c0.255,0,0.336,0.124,0.336,0.686l0.011-0.01c0.185-0.296,0.654-0.144,1.043,0.185c0-0.246,0.01-0.471-0.011-0.655
			c1.688,1.688,2.566,3.548,2.566,5.388C265.483,125.097,264.359,136.281,256.2,144.072z M240.139,107.849
			c3.568,0.316,6.901,0.858,9.887,1.584c-0.021,0.02-0.041,0.041-0.062,0.071c-0.061-0.01-0.133-0.021-0.204-0.021
			c-0.154,0-0.349,0.042-0.532,0.042c-0.317,0-0.572-0.051-0.747-0.01c-0.04,0.01-0.071,0.02-0.111,0.031
			c-0.205-0.103-0.42-0.195-0.634-0.246c-0.665-0.153-1.299,0-1.656,0.327c-0.287,0.266-0.43,0.604-0.42,1.033v0.02
			c-0.685-0.112-1.391-0.225-2.105-0.327c-0.011-0.245-0.112-0.521-0.358-0.776c-0.205-0.215-0.563-0.45-1.033-0.614
			c-0.602-0.225-1.379-0.357-2.033-0.327C240.139,108.359,240.148,108.084,240.139,107.849z M254.196,111.958
			c-0.215-0.614-0.746-0.961-1.421-1.002l0.021-0.776c1.677,0.511,3.21,1.083,4.57,1.696c1.666,0.757,3.098,1.605,4.264,2.516
			c-0.021,0-0.052,0-0.072,0c-0.185,0-0.45,0.041-0.828,0.041c-0.082,0-0.122-0.093-0.174-0.133
			c-0.153-0.144-0.266-0.276-0.327-0.328c-0.163-0.133-0.327-0.194-0.471-0.214c-0.266-0.287-0.562-0.532-0.848-0.675
			c-0.563-0.276-1.146-0.296-1.719,0.042c-0.193,0.113-0.429,0.357-0.634,0.706c-0.715-0.327-1.481-0.645-2.3-0.941
			C254.309,112.541,254.289,112.214,254.196,111.958z M269.298,35.034c0,5.094-1.333,9.125-3.998,12.088
			c-2.664,2.956-6.549,4.441-11.644,4.441h-15.182V14.856h13.712c11.407,0,17.111,5.314,17.111,15.938V35.034z"/>
		<path d="M248.849,130.536l-6.124,1.074l-6.87,0.552l-7.637-0.062l-4.469-0.368l-10.561-2.096l-2.373-0.797l-3.005-1.319
			c-3.635-1.85-5.777-4.131-5.777-6.595l0.005,0.154c0.042,6.441,2.822,28.944,30.668,29.015
			c27.094,0.082,30.457-21.358,30.661-28.463c0.021-0.122,0.031-0.255,0.041-0.398c0-0.164,0-0.348-0.021-0.542l-0.011,0.052
			c0,0.061,0,0.123,0,0.184C263.377,124.984,257.56,128.542,248.849,130.536z"/>
		<path d="M159.239,116.629l-12.968,6.057c-0.192,0.223-0.435,0.396-0.715,0.51l-4.872,2.193c-0.114,0.077-0.23,0.147-0.344,0.204
			l-14.645,6.708l-3.06,1.435c0.439,0.152,0.859,0.369,1.249,0.637c3.143,1.103,11.158-0.727,20.001-4.718l2.078-0.969
			c8.85-4.278,15.506-9.347,16.704-12.509C161.661,115.978,160.514,116.087,159.239,116.629z"/>
		<path d="M173.57,129.533c4.247-1.677,3.789-7.122,0.741-9.226c-0.536,1.396-1.887,3.137-3.992,4.967
			c-3.276,2.856-8.428,6.114-14.522,8.977c-6.082,2.863-11.884,4.744-16.172,5.444c-1.435,0.236-2.714,0.325-3.817,0.293
			c0.643,1.142,1.04,2.531,1.04,4.029c0,1.047-0.192,2.034-0.523,2.921L173.57,129.533z"/>
		<path d="M108.55,126.25c1.696,0,3.074-1.384,3.074-3.08c0-1.542-1.136-2.824-2.614-3.041c0.006-0.076,0.006-0.146,0.006-0.223
			c0-1.696-1.377-3.08-3.08-3.08c-1.696,0-3.074,1.384-3.074,3.08c0,1.543,1.136,2.824,2.615,3.041
			c-0.006,0.077-0.006,0.147-0.006,0.223C105.471,124.866,106.848,126.25,108.55,126.25z"/>
		<path d="M164.43,116.922c-0.536,1.396-1.889,3.136-3.992,4.967l-0.075,0.07l5.915-2.774
			C165.883,118.287,165.244,117.483,164.43,116.922z"/>
		<path d="M169.121,120.014l-36.604,17.106c0.439,0.153,0.86,0.369,1.256,0.638c3.276,1.154,11.883-0.892,21.194-5.273
			c9.282-4.361,16.348-9.653,17.584-12.924C171.543,119.364,170.383,119.472,169.121,120.014z"/>
		<path d="M251.409,21.441h-5.578v23.53h6.355c3.566,0,6.037-0.792,7.438-2.38c1.387-1.589,2.082-4.108,2.082-7.557v-4.24
			c0-3.212-0.834-5.578-2.499-7.084C257.543,22.197,254.948,21.441,251.409,21.441z"/>
		<path d="M126.626,138.267c0.651-0.643,1.466-1.216,2.467-1.702l0.498-0.23c-1.371,0.211-2.603,0.301-3.667,0.268
			C126.211,137.114,126.448,137.675,126.626,138.267z"/>
		<path d="M122.788,135.979c-0.185-0.089-0.356-0.185-0.516-0.287c-0.446-0.204-0.925-0.318-1.429-0.318
			c-2.174,0-3.966,2.116-4.15,4.8c0.229,2.933,2.99,5.592,6.618,4.698c0.542-0.502,0.982-1.166,1.282-1.933
			c0.013-0.738,0.146-1.485,0.421-2.204c0-0.032,0-0.063,0-0.102C125.013,138.619,124.107,136.866,122.788,135.979z"/>
	</g>
</g>
<g id="Layer_2">
</g>
<g id="Layer_1">
</g>
</svg>
