<?xml version="1.0" encoding="utf-8"?>
<!-- Generator: Adobe Illustrator 15.1.0, SVG Export Plug-In . SVG Version: 6.00 Build 0)  -->
<!DOCTYPE svg PUBLIC "-//W3C//DTD SVG 1.0//EN" "http://www.w3.org/TR/2001/REC-SVG-20010904/DTD/svg10.dtd">
<svg version="1.0" id="Layer_4" xmlns="http://www.w3.org/2000/svg" xmlns:xlink="http://www.w3.org/1999/xlink" x="0px" y="0px"
	 width="283.46px" height="283.46px" viewBox="0 0 283.46 283.46" enable-background="new 0 0 283.46 283.46" xml:space="preserve">
<g>
	<path d="M198.795,74.97L90.96,213.833l-1.238-0.961L197.519,74.057c-2.021-1.459-4.046-2.969-6.025-4.506
		c-1.981-1.539-3.946-3.127-5.862-4.727L77.833,203.64l-1.238-0.962l107.831-138.86c-2.565-2.174-5.004-4.354-7.222-6.457
		L68.961,196.75l0.015,0.012l0.674,29.692l28.935-6.699l0.092,0.07l108.25-139.398C204.315,78.787,201.568,76.939,198.795,74.97z
		 M74.049,220.484l-0.27-14.452l14.342,11.136L74.049,220.484z M93.5,217.874l-21.443-16.651c-0.341-0.265-0.481-0.657-0.313-0.875
		c0.17-0.219,0.583-0.181,0.925,0.085l21.443,16.651c0.342,0.266,0.482,0.657,0.312,0.875
		C94.256,218.177,93.842,218.138,93.5,217.874z"/>
	<path d="M207.548,79.627l2.193-2.825l2.095-2.698l4.356-5.61c0.961-1.236-0.195-3.741-2.579-5.593l-21.076-16.366
		c-2.385-1.854-5.1-2.353-6.06-1.117l-4.356,5.61l-2.095,2.698l-2.2,2.833c3.831,3.659,8.642,7.823,14.28,12.202
		C197.779,73.166,203.036,76.813,207.548,79.627z M189.75,50.709c0.678-0.872,2.559-0.546,4.198,0.728l14.489,11.252
		c1.64,1.273,2.422,3.014,1.744,3.886l-4.555,5.863c-0.676,0.873-2.557,0.546-4.196-0.726L186.941,60.46
		c-1.641-1.275-2.42-3.014-1.744-3.887L189.75,50.709z"/>
</g>
</svg>
