<?xml version="1.0" encoding="utf-8"?>
<!-- Generator: Adobe Illustrator 15.1.0, SVG Export Plug-In . SVG Version: 6.00 Build 0)  -->
<!DOCTYPE svg PUBLIC "-//W3C//DTD SVG 1.1//EN" "http://www.w3.org/Graphics/SVG/1.1/DTD/svg11.dtd">
<svg version="1.1" id="Layer_1" xmlns="http://www.w3.org/2000/svg" xmlns:xlink="http://www.w3.org/1999/xlink" x="0px" y="0px"
	 width="283.46px" height="283.46px" viewBox="0 0 283.46 283.46" enable-background="new 0 0 283.46 283.46" xml:space="preserve">
<g id="XMLID_4_">
	<g>
		<path d="M79.127,194.853c-1.252-9.121,2.666-26.349-6.094-28.327c0.127-2.157-0.544-3.518-1.74-4.352
			c5.168-1.069,10.21-2.285,11.77-6.964c-2.557,28.818,13.129,39.426,25.263,53.57c-0.907,3.861-1.506,9.54,0.87,12.206
			C97.606,215.582,87.976,204.447,79.127,194.853z"/>
		<path d="M59.976,126.884c-0.29,3.645-4.661,5.024-3.065,9.157c1.396,0.6,3.899,0.653,4.806-0.434
			c-9.158-2.448,3.554-6.185,6.964-7.853C66.214,126.918,62.914,125.941,59.976,126.884z M76.081,55.432
			c2.194-1.16,5.149-1.523,7.416-2.612C80.034,52.712,77.621,53.637,76.081,55.432z M102.231,41.939
			c-3.899,0.599-7.852,1.143-10.464,3.046C96.156,46.292,100.399,44.552,102.231,41.939z M113.546,26.688
			c3.553-0.526,2.593-5.548,5.241-6.964c1.597-0.871,5.042,0.09,6.095-1.324c-0.654-0.943-2.503-0.689-2.612-2.176
			c1.742-0.127,3.463-0.291,4.352-1.306C117.645,14.229,112.749,17.602,113.546,26.688z M69.896,52.368
			c0.127-0.163,0.253-0.309,0.398-0.436c3.282-3.192,11.57-4.172,16.249-1.723c-2.032,0.163-4.896-0.543-5.223,1.306
			c7.943,1.342,13.184-2.812,18.733-5.223c-4.08-0.507-6.129,2.013-9.158,2.177c-4.625,0.272-7.254-4.263-13.076-3.482
			c-2.285,1.686-5.948,5.15-7.527,6.945C70.132,52.096,70.006,52.24,69.896,52.368z M156.688,35.828
			c-11.079,3.809-19.694-3.482-29.196-2.176c-7.182,0.999-17.537,11.57-22.651,15.686c-7.345,5.912-16.122,10.79-18.298,19.604
			c-1.323-2.339,0.29-5.513,0-8.269c-3.463-2.557-5.149,0.924-6.092,5.222c2.193,3.174,1.359,9.377,4.352,11.771
			c1.16,10.446-3.918,14.67-6.982,20.91c0.563,1.214,0.907-1.379,2.193-0.87c-0.326,7.525,2.43,14.38,0.437,21.345
			c-1.524,5.259-8.632,9.92-2.196,14.363c-1.54,7.688,8.542,24.102-3.046,23.106c-5.478-0.489-7.725-7.817-12.623-10.03
			c-0.017-3.753-1.378-6.185-4.805-6.528c-2.322,2.303-1.325,9.248,0,12.622c2.212,5.621,6.256,14.419,8.288,16.123
			c2.086,1.777,5.259,1.342,8.27,0.436c2.067,10.027,5.893,28.87,0,37.467c-6.057-1.487-13.129-1.959-19.604-3.048
			c3.227-9.357-2.593-14.308-4.788-20.91c-3.338-10.029-1.179-21.362-8.705-26.567c-2.484,1.45-2.412,5.44-4.805,6.963
			c-3.265-1.832-2.249-3.247-2.612-8.723c-0.253-3.861-1.197-8.505-2.612-12.623c-1.596-4.623-3.772-8.56-3.482-11.333
			c0.816-7.925,12.205-8.215,18.299-12.188c-0.146-0.599-1.089-0.363-1.74-0.436c2.975-5.458,9.775-7.072,13.057-12.206
			c-10.609,3.898-17.972,11.063-27.438,16.122c7.544-16.556,29.197-19.024,37.031-35.291c-2.919-0.943-3.972,3.519-6.963,3.918
			c-0.109-0.744,0.726-1.124,0-1.306c-12.241-1.632-15.542,5.677-23.974,7.853c-0.273-2.992,2.576-4.044,3.918-5.677
			c1.377-1.632,2.139-4.352,3.936-5.658c3.536-2.575,9.83-1.795,13.928-4.788c4.063-2.975,4.57-9.43,5.242-15.25
			c1.232-10.88,4.769-20.691,13.491-25.263c1.324-0.163,0.907,1.414,1.306,2.176c13.13,2.376,24.481-1.106,29.197-9.594
			c0.833-0.816,1.088-0.036,2.176,0c3.1-9.974,3.899-22.232,13.51-25.697c4.57,0.507,10.174,0,13.927,1.306
			c1.016,1.179,1.922,4.281,0.87,6.094c-4.188-0.471-9.484-2.593-10.447,1.741c-1.341,6.057,8.958,10.7,11.335,13.51
			c-0.363-1.504,0.635-1.669,0.436-3.047c0.58,0.435,0.851,1.179,1.74,1.306c1.324-1.759-0.762-3.1-0.87-4.788
			c1.776-0.327,1.487,1.396,3.481,0.87c-0.035-1.867-0.725-3.046-0.436-5.223c2.214-0.182,3.029,1.017,4.352,1.741
			c0.6,6.058,6.075,7.271,9.594,10.447C156.688,32.636,156.688,34.233,156.688,35.828z M80.451,58.932
			c1.613,0.018,2.485-0.707,3.046-1.759C82.227,57.518,80.994,57.862,80.451,58.932z M63.894,123.837
			c4.044-0.853,9.575-5.839,10.446-7.4c-6.728,1.814-14.253,2.865-21.344,4.352C54.7,124.018,59.903,124.671,63.894,123.837z
			 M69.986,140.394c-3.119-0.073-5.785,0.308-6.093,3.046C66.396,142.897,68.427,141.881,69.986,140.394z"/>
		<path d="M189.784,230.125c0.255,4.498,2.666,19.769,0.438,24.412c-3.284,6.835-3.483,14.108-4.353,21.777
			c-0.889-7.581,0.672-16.466,2.61-22.65c-1.739-3.301-4.769-2.612-4.352-7.853c-3.318,8.45-1.649,21.889-4.787,30.503
			c-3.954-0.272-8.976,0.544-12.204-0.436c1.505-5.621,7.436-6.801,7.833-13.512c-0.397-1.179-0.797,1.163-2.174,0.437
			c2.503-13.765,10.026-22.506,15.687-33.115C189.186,229.581,189.223,230.106,189.784,230.125z"/>
		<path d="M144.919,247.553c0.544,7.672-3.028,11.206-3.047,18.299c-8.94,7.889-16.919-1.725-25.28-7.834
			c-7.779-5.695-14.344-8.706-16.975-16.125c2.266,0.092,4.116-0.216,4.788-1.739c-1.723-8.216-8.451-13.474-9.158-23.957
			c5.168,2.685,8.288,7.398,14.381,9.14c8.523,11.896,26.803,14.437,48.801,13.946C153.916,242.039,147.386,242.764,144.919,247.553
			z"/>
		<path d="M135.327,52.386c-3.229,6.401-14.78,8.034-21.78,4.788c3.046-7.652,10.59-14.599,20.474-12.622
			c-0.307,1.178,0.87,0.87,0.87,1.74c-0.145,1.886-1.16,2.902-2.175,3.918C133.224,51.606,135.67,51.333,135.327,52.386z"/>
		<path d="M120.093,182.648c-4.842-0.908-6.238,0.871-7.852,3.918c0.888-6.818,4.369-11.026,8.288-14.815
			c5.132,5.458,9.376,11.823,16.539,15.251c0.654,0,3.573-0.163,2.194,0.436C132.061,189.54,125.17,183.611,120.093,182.648z"/>
		<path d="M145.355,129.93c-4.316-2.683-13.165,3.065-15.251-3.046c-5.096,3.282-18.262,1.542-27.438,1.741
			c3.083-10.935,18.136-10.99,28.308-11.752c-5.35-3.935-14.888-7.472-23.957-9.158c0.889-2.52,3.917-3.192,6.093-3.482
			c11.062-1.506,26.278,2.157,32.244,8.705c4.171,4.587,8.143,17.428,2.175,21.345C145.374,134.282,146.061,131.417,145.355,129.93z
			 M132.715,122.095c-3.826-2.32-13.075-5.077-16.557-1.306C122.85,118.723,128.326,123.002,132.715,122.095z M121.833,125.142
			c0.635,0.689,1.94,0.49,1.741-0.87C122.579,124.145,121.924,124.381,121.833,125.142z M123.139,108.151
			c1.904,4.587,11.57,9.357,16.557,5.223C136.089,109.728,128,110.544,123.139,108.151z"/>
		<path d="M91.331,29.299c6.111,0.998,11.189-1.25,13.946-2.175c-1.142,5.604-9.647,7.779-14.816,6.528
			C91.205,31.857,92.021,31.784,91.331,29.299z"/>
		<path d="M139.698,197.463c6.655,1.759,16.376,2.775,23.521,2.613C157.848,197.01,146.589,197.538,139.698,197.463z
			 M163.219,194.417c-7.745-0.126-16.341-1.669-22.217-2.195C145.646,195.579,156.708,196.957,163.219,194.417z M169.311,201.38
			c-22.45,2.539-41.22-5.712-54.458-15.25c-0.109-0.706,0.417-0.746,0.434-1.307c0.363-0.073,0.436-0.434,0.871-0.434
			c4.117-0.907,6.202,2.338,9.593,3.482c3.717,1.249,8.468,0.887,13.51,1.305c11.226,0.961,23.685,3.936,32.226,6.547
			c4.388,1.323,10.953-3.59,11.77,3.917c-2.485-1.993-7.888-0.941-10.9-1.306C171.378,199.386,170.527,200.546,169.311,201.38z"/>
		<path d="M169.311,159.128c3.229,1.921,7.636,1.938,6.095,8.705c-0.726-0.164-0.816,0.345-0.871,0.87
			c-4.153-1.65-7.146-0.036-10.882,0.872c-1.559-5.696,0.618-15.145-3.482-18.299c0.834-9.087,2.921-17.175,1.74-27.875
			c0.727,0,1.452,0,2.177,0c0.544,13.112,2.594,18.878,9.141,24.392C173.753,152.798,169.638,153.885,169.311,159.128z"/>
		<path d="M219.852,69.378c1.76,3.264,0.726,6.746,4.353,8.288C224.315,73.331,221.738,71.699,219.852,69.378z M228.556,71.118
			c8.053-10.137-7.288-15.832-11.75-21.78c0.127-0.563,1.123-1.396,1.306-3.046c-2.739,0.327-4.715,1.143-6.545,1.306
			c-1.813-1.669-1.942-5.023-3.919-6.528c-2.214,0.253-3.355,1.559-5.224,2.176c3.047,7.544,9.849,11.353,14.382,17.428
			C223.643,61.217,224.061,68.218,228.556,71.118z M233.344,61.978c0.817,7.908-2.465,12.623-3.047,17.863
			c-1.359,1.232-1.431-1.47-2.61-1.741c-1.216,3.609-1.505,11.824-3.919,15.668c-3.064-2.992-2.031-8.65-2.61-13.057
			c-2.466-18.842-14.89-28.999-25.698-40.079c5.713,0.2,6.203-4.842,10.447-6.111c-0.146,1.017,0.071,1.687,0.433,2.176
			c2.995-0.489,5.371-1.596,7.399-3.046c2.995,1.669,5.314,3.989,6.548,7.417c-0.852,1.07-1.632,2.466-2.175,1.74
			c-0.164,1.469,5.187,1.179,5.656,3.482c0.108,1.852-1.851,1.633-1.739,3.482C227.504,52.13,230.462,57.011,233.344,61.978z"/>
		<path d="M204.6,220.551c-1.686,0.054-3.826-0.345-4.35,0.871C201.682,222.074,204.112,222.054,204.6,220.551z M208.517,194.417
			c-1.938,8.161-7.088,14.162-8.704,21.779c5.713,1.288,14.057,0.236,13.493-4.806c-2.031-0.019-6.693,2.376-7.399-0.436
			c-0.236-2.104,2.994-0.78,3.483-2.176c0.161-2.338-3.21-1.142-3.048-3.482c1.415-4.987,2.05-10.735,6.094-13.075
			c1.378,0.091,0.055,2.864,1.741,2.631c0.327-6.167,9.793-6.167,10.898-11.771c0.799-4.081-2.23-8.343-3.481-12.642
			c-1.596,0.727-3.354,1.307-4.787,2.178C212.401,178.84,210.405,186.458,208.517,194.417z M241.596,130.782
			c1.069-1.723-1.234-5.241-2.141-6.51C240.018,127.971,240.253,130.273,241.596,130.782c0,0.018,0,0.018-0.019,0.037
			c-0.253,0.018-0.471,0.073-0.382,0.417c0.163-0.127,0.291-0.253,0.382-0.417c0.019-0.019,0.034-0.019,0.054-0.019
			C241.615,130.8,241.615,130.8,241.596,130.782z M238.15,129.06c0.236-7.78-3.951-13.474-4.37-19.169
			c2.594,2.212,3.645,5.948,6.548,7.852c0.887-3.609-0.146-9.14,0.868-12.64c0.51,0.507,1.543,0.49,2.613,0.434
			c0.67-3.427-2.431-3.083-3.481-4.789c1.104-0.344,2.466-0.434,3.046-1.306c-1.65-1.396-3.954-2.157-6.093-3.065
			c-1.362,0.398-1.434,2.067-2.612,2.63c-0.979-1.07-0.181-3.899-2.629-3.5c-2.521,5.168-1.07,14.326-3.048,20.039
			c-0.743-1.85-1.197-4.026-2.176-5.659C227.143,117.726,229.738,129.313,238.15,129.06z M239.023,134.282
			c-3.282-1.886-3.773-2.085-7.854-3.481c-2.738-8.142-8.888-18.752-4.788-29.613c1.033,1.142,1.432,2.919,1.742,4.788
			c2.374-3.736,0.833-11.37,3.917-14.38c6.582-0.236,18.66,6.274,17.862,14.38c-2.122,1.65-2.122,5.422-6.094,5.223
			c0.67,12.187,1.017,26.749,0.436,39.208c-0.163,3.663,1.071,9.158-2.176,11.333c-0.055-4.843,2.156-9.739,0.872-14.382
			c-4.063,5.931-4.534,13.71-9.158,19.605c-1.995,0.106-0.02-3.736-1.307-4.353c-3.173,1.016-4.369,4.042-6.527,6.094
			c3.481,3.753,0.851,11.77,2.61,16.556c-3.954,2.157-8.179,4.028-11.317,6.963c-0.036,1.779,1.379,2.104,1.306,3.936
			c-3.862,2.268-5.567,3.845-7.416,6.529c0.054,0.96,1.849,0.18,2.61,0.435c0.962,0.906-0.217,1.251,0,2.611
			c1.052,1.196,1.921-1.722,3.065-0.436c-1.777,1.813,0.108,3.175,1.307,4.352c-1.27,1.94-1.867,4.533-3.5,6.112
			c1.27,6.981-3.5,11.532-11.753,10.445c-2.395-1.961-5.021-3.7-6.527-6.529c2.176-7.671,8.107-14.487,10.88-22.649
			c1.561-4.588,1.705-9.03,3.482-13.511c1.577-3.937,3.592-7.652,3.918-11.77c2.195-2.014,1.451-6.963,3.5-9.141
			c-2.467-18.786-2.104-44.61,2.611-62.292c-0.019,13.076,0.651,25.48,7.834,31.355c3.046,0.599,4.968,2.303,6.548,4.371
			C237.191,136.241,237.951,135.116,239.023,134.282z M238.15,147.792c-0.054,2.285-2.357,4.605-1.305,6.528
			C237.407,152.562,239.167,149.716,238.15,147.792z M228.992,159.128c6.295-0.129,9.795-15.851,3.483-16.558
			c0.89,1.196,0.834,5.168-1.306,4.788c-2.157-0.398-4.297-5.15-5.224-3.919C229.954,146.397,231.767,155.555,228.992,159.128z
			 M238.15,140.828c0.037-1.089-2.194-2.139-2.61-1.306C236.211,140.14,237.225,140.43,238.15,140.828z M224.207,147.792
			c-0.074-3.845-0.581-7.272-3.049-8.705C220.924,141.717,220.632,147.576,224.207,147.792z"/>
		<path d="M140.567,187.873c0.181-0.961,2.14-0.183,3.047-0.436C143.414,188.416,141.456,187.616,140.567,187.873z"/>
		<path d="M130.538,205.297c3.772,0.329,10.645,1.235,11.77,5.66C137.285,212.172,130.594,209.052,130.538,205.297z"/>
		<path d="M177.598,161.303c6.766,3.681,10.138,13.075,13.059,19.169c0.669,0-0.218,2.048-0.436,2.61
			C185.017,176.828,178.088,172.276,177.598,161.303z"/>
		<path d="M183.257,135.605c0.578,0.127,0.835,0.617,1.74,0.434C185.686,134.826,183.111,134.826,183.257,135.605z M184.562,139.088
			c1.958,1.958,6.129,1.704,7.398,4.352c-4.769,1.107-11.262-0.417-13.057-4.788c2.539-0.29,0.762-2.356,2.611-3.482
			c-4.825,0.454-7.762-0.96-11.333-1.759c-3.646-3.99,1.396-7.289,1.739-10.445c0.073-0.67-0.67-2.268-0.436-3.046
			c2.215-7.308,21.998-9.014,27.456-3.482c-0.362,5.005-7.035,3.718-9.158,6.964c3.555,0.89,8.414,6.655,10.029,8.269
			c-5.438-0.616-6.637,5.169-13.944,3.936c-0.328,1.633,2.321,0.291,1.742,2.177C186.14,137.764,185.304,138.381,184.562,139.088z
			 M188.479,131.236c0.345-1.669-2.084-1.669-1.739,0C187.611,131.96,187.3,131.2,188.479,131.236z M178.905,119.049
			c1.288,2.339,6.765,2.067,9.142,0.87C187.827,116.71,179.647,115.204,178.905,119.049z M184.998,125.142
			c-5.204-0.761-9.956,0.906-11.77,4.788C178.324,129.514,181.082,126.738,184.998,125.142z"/>
		<path d="M60.412,60.673c1.143,2.321,0.326,6.419-2.193,6.529C56.277,65.17,59.179,62.233,60.412,60.673z"/>
		<path d="M118.334,62.848c2.103-2.52,5.858-3.046,9.594-2.176C125.896,62.287,121.018,64.663,118.334,62.848z"/>
		<path d="M95.249,230.125c-0.961,4.843-5.205,6.42-6.528,10.9c1.36-0.58,1.25,0.108,3.046,0
			C92.437,237.179,95.375,233.318,95.249,230.125z M94.377,276.316c-6.347-15.777-13.184-28.834-15.686-48.802
			c1.759,1.161,2.176,3.646,4.371,4.373c4.352-2.904,0.38-8.688,0-13.077c0.907,1.069,3.01,1.542,2.612,1.741
			c1.942,0.436-1.377-2.23-2.612-2.613c0.58-1.669-0.146-3.68,1.306-5.222c1.976,1.632,2.612,4.644,5.222,5.658
			c1.359-0.397,1.886-1.596,2.176-3.046c2.883,2.72,4.207,10.861,3.482,14.362c1.542,0.255,1.433-2.049,2.612-0.87
			c0.69,2.665,0.889,5.802,3.5,6.545c-0.453,1.145-1.74,1.471-2.176,2.613c0.436,0.996,1.995,0.889,3.482,0.87
			c-2.593,1.905-6.892,2.122-9.158,4.351c0.109,2.685,0.726,4.535,0.434,7.399c-1.087,10.789,2.502,19.241,7.417,25.717
			C99.039,276.316,96.7,276.316,94.377,276.316z M86.979,221.42c0.127-1.541,0.87,1.85,1.306,0
			C87.795,220.568,86.018,220.568,86.979,221.42z"/>
		<path d="M250.773,110.326c2.719,1.579,6.474,4.479,4.37,8.287C253.437,116.094,251.026,114.297,250.773,110.326z"/>
		<path d="M148.836,177.862c-5.276-6.057-17.173-5.496-18.732-15.252c-9.285,5.531-17.809,11.806-20.039,24.392
			c-5.476-8.797,3.1-13.893,8.269-18.3c6.528-5.548,10.754-13.582,16.993-16.992c1.831,2.23-4.353,6.002-1.741,10.465
			c4.189,2.685,9.485,1.215,13.076,3.917c2.811,2.122,3.21,5.44,5.658,7.854c3.518-0.037,6.583,0.381,9.158,1.305
			C162.439,185.802,151.485,186.838,148.836,177.862z"/>
		<path d="M177.163,16.659c-3.263,5.005,2.357,7.889,3.046,11.77c0.873,0,1.741,0,2.613,0
			C185.051,23.66,182.876,16.352,177.163,16.659z M173.664,38.458c1.905-2.646,1.851-10.518,1.306-14.382
			c-0.705-5.241-4.389-8.07-5.658-10.463c3.303,0.67,6.675,6.147,9.158,1.306c5.133,0.96,10.955,1.233,11.752,6.546
			c-0.579,0.726-2.901-0.726-3.917,0.436c-1.344,5.186-1.577,11.479-4.354,15.232c-7.905,1.687-13.761,5.423-23.521,5.242
			C161.568,37.969,170.652,42.665,173.664,38.458z"/>
	</g>
</g>
</svg>
