<?xml version="1.0" encoding="utf-8"?>
<!-- Generator: Adobe Illustrator 15.1.0, SVG Export Plug-In . SVG Version: 6.00 Build 0)  -->
<!DOCTYPE svg PUBLIC "-//W3C//DTD SVG 1.1//EN" "http://www.w3.org/Graphics/SVG/1.1/DTD/svg11.dtd">
<svg version="1.1" id="Layer_8" xmlns="http://www.w3.org/2000/svg" xmlns:xlink="http://www.w3.org/1999/xlink" x="0px" y="0px"
	 width="283.46px" height="283.46px" viewBox="0 0 283.46 283.46" enable-background="new 0 0 283.46 283.46" xml:space="preserve">
<g>
	<path fill="none" d="M69.659,152.311c-0.09-0.105-0.177-0.209-0.272-0.316C69.374,152.124,69.478,152.226,69.659,152.311z"/>
	<path fill="none" d="M69.543,151.706c-0.084,0.084-0.143,0.157-0.205,0.232c0.017,0.02,0.032,0.036,0.048,0.057
		C69.395,151.908,69.434,151.814,69.543,151.706z"/>
	<polygon fill="none" points="69.503,211.324 69.505,211.327 69.504,211.327 	"/>
	<path fill="none" d="M204.238,184.875L204.238,184.875C204.409,184.819,204.34,184.84,204.238,184.875z"/>
	<path d="M43.43,113.543c-1.392,2.488,0.377,8.399,0.949,10.938c0.881,3.922-0.015,13.938,2.513,16.831
		c0.551,0.631,1.089-9.778,0.894-10.923C47.288,127.472,42.649,114.939,43.43,113.543z"/>
	<path d="M43.43,113.543C43.738,112.991,42.786,114.695,43.43,113.543L43.43,113.543z"/>
	<path d="M69.505,211.327C69.797,211.547,69.65,211.436,69.505,211.327L69.505,211.327z"/>
	<path d="M67.986,208.413c-1.86-2.507-3.603-5.248-4.81-8.139c-1.267-0.973-2.55-3.559-3.138-5.008
		c-2.263-1.35,2.55,6.281,2.918,7.023c1.999,4.031,5.435,8.189,6.546,9.033c0,0.001,0,0.001,0.001,0.002
		C68.645,210.67,68.286,209.268,67.986,208.413z"/>
	<path d="M69.505,211.327c-0.001,0-0.002-0.002-0.002-0.003C69.358,211.213,69.216,211.107,69.505,211.327z"/>
	<path d="M57.051,189.786C57.247,189.85,57.631,189.978,57.051,189.786C56.897,189.734,56.951,189.752,57.051,189.786
		c-0.656,0.866-0.48,1.623,0.524,2.27C58.207,191.185,58.031,190.429,57.051,189.786z"/>
	<path fill="none" d="M56.85,188.398c0-0.084,0-0.104,0-0.094"/>
	<path fill="none" d="M56.85,188.398c0,0.042,0,0.084,0,0.095"/>
	<path d="M55.63,188.398c0.406,0.812,0.813,0.812,1.219,0C56.443,187.584,56.037,187.584,55.63,188.398z"/>
	<path d="M56.002,187.008c0.512-0.51-1.002-4.705-1.704-4.705C53.42,182.303,55.169,187.849,56.002,187.008z"/>
	<path d="M56.002,187.008C55.893,187.12,56.38,186.631,56.002,187.008L56.002,187.008z"/>
	<path d="M204.238,184.875c-2.091,0.697-0.255,11.942-2.938,11.621c1.396,0.168,8.216-4.08,7.578-5.105
		c-0.899-0.217-1.803-0.42-2.709-0.613c0-1.695,7.314,0.271,7.314-0.415c0-0.062-8.536-14.465-6.307-16.839
		C205.026,175.413,205.297,184.522,204.238,184.875C204.34,184.84,204.409,184.819,204.238,184.875z"/>
	<path d="M204.238,184.875c-0.02,0.006-0.038,0.014-0.06,0.021C204.202,184.888,204.209,184.885,204.238,184.875L204.238,184.875z"
		/>
	<path d="M207.446,173.313c0.165-0.082,0.338-0.154,0.572-0.154C207.811,173.159,207.624,173.217,207.446,173.313z"/>
	<path d="M204.178,184.896C203.905,184.986,204.036,184.944,204.178,184.896L204.178,184.896z"/>
	<path d="M207.177,173.523c0.087-0.077,0.173-0.158,0.269-0.21C207.34,173.365,207.254,173.44,207.177,173.523z"/>
	<path d="M81.829,164.422c-0.387,1.769-0.712,3.586-0.94,5.427c0.035,0.659-0.032,1.313-0.202,1.96
		c-0.345,4.107,1.484,9.462,0.103,13.27c-1.582,4.355-4.282,10.17-3.478,15.071c1.843,4.417,4.075,3.374,7.475,5.458
		c1.245-0.29,1.822-1.143,1.73-2.555c0.289-3.528-3.966-1.737-5.42-3.926c-3.87-5.822,7.028-3.541,7.436-4.651
		c-0.359-0.533-0.7-1.076-1.023-1.631c0.097-0.658,4.502-3.888,5.387-4.714c-1.262-1.853-5.421-8.269-4.34-10.107
		c-2.881-13.258,6.838-26.378,0.766-38.813c-0.408-0.053-0.732-0.172-0.994-0.376c1.728,6.771-3.617,18.957-6.386,25.031
		C81.875,164.156,81.843,164.325,81.829,164.422z"/>
	<path fill="none" d="M116.857,261.543c0.005,0-0.045,0-0.199,0"/>
	<path d="M94.953,249.848c-0.047-0.018-0.097-0.029-0.144-0.049C94.802,249.822,94.858,249.836,94.953,249.848z"/>
	<path d="M116.658,261.543c0.152-0.617,0.04-1.18-0.318-1.688c1.31,0.396,5.991-1.729,6.061-1.755
		c0.296-0.745,0.365-1.512,0.208-2.299c0.451,0.281,0.938,0.445,1.462,0.488c-0.084-1.111-0.382-2.158-0.84-3.156
		c0.378,0.046,1.486-1.303,1.54-1.65c0.683,0.193,2.038,1.691,2.684,1.292c2.097-1.297-5.018-2.487-4.52-3.789
		c0.372-0.967-8.259-0.133-8.568-0.118c-1.964,0.084-17.781,1.182-19.413,0.98c0.695,0.262,1.406,0.462,2.139,0.588
		c0,0.115-3.542,2.673-3.806,2.779c-0.094,0.037,3.196,2.785,3.196,2.906c0,1.129-3.656-1.201-3.656-0.193
		c0,2.566,6.647,7.908,6.464,6.674c-0.108,0.982-0.208,1.969-0.301,2.954c-0.111-0.369,2.042-0.075,2.297-0.185
		c3.247,2.5,2.433-1.953,2.058-3.322C104.716,263.596,116.381,261.543,116.658,261.543z"/>
	<path d="M206.954,221.033c-0.299-0.409-0.498-0.665-0.488-0.646C206.598,220.643,206.766,220.849,206.954,221.033z"/>
	<path d="M223.534,237.75c0.859,0.004,2.574,0.006-0.043,0c-4.863-0.01-7.629-9.023-7.904-13.065
		c-0.291-4.235-6.321-1.362-8.633-3.651c1.176,1.618,3.975,5.742,2.203,5.742c-0.291,0-5.177,4.725-4.801,1.813
		c0.071-0.543,3.061-0.405,2.67-2.133c-0.432-1.904-4.314,1.2-5.441,0.006c-0.092-0.1,0.127-5.305-0.369-4.84
		c3.418-3.207,2.029,5.608,4.172,3.191c-0.426-0.384-0.741-0.848-0.954-1.387c0.972,0.328,1.851,0.824,2.638,1.484
		c3.051,0.146-1.449-2.334-2.347-2.654c0.196-0.514,0.338-1.043,0.414-1.59c0.272,0.131-5.222-0.668-4.86-1.391
		c0.967-1.934,3.922-5.828,6.346-6.309l2.283-0.453l-3.046-0.463c-3.069-0.467-8.229,5.384-8.229,8.018
		c0.447,0.523,0.925,1.021,1.429,1.493c-0.329-0.851-2.745,4.578-2.438,4.519c0.032,0.476-0.111,0.971-0.403,1.366
		c0.991,0.433-3.103,3.617-3.784,4.025c-2.08,2.95-4.159,4.997-7.285,6.926c0.484,1.585-10.479,13.162-13.583,10.051
		c0.423-0.3,0.847-0.6,1.271-0.899c-0.785,0.283-1.551,0.283-2.299-0.002c-0.276,0.009-0.574-0.014-0.869-0.033
		c-0.01,0.42-0.197,0.814-0.439,1.18c0.006-0.018,0.018-0.027,0.023-0.045c0.057,0.096-4.313-0.354-4.357-0.334
		c-0.943,0.406,0.35,1.768-2.576,2.198c-1.871,0.274-3.15,0.444-4.824,0.159c0.289,0.697,0.575,1.393,0.864,2.088
		c-0.067,0.606-2.778-2.108-2.778-0.438c0.849,0.755,1.805,1.319,2.865,1.693c-0.814,0.038-1.557,0.304-2.225,0.797
		c0.947,0.308,1.847,0.722,2.695,1.244c-1.215,1.96-2.625-1.64-2.424,1.774l0.107,1.822l-2.375-1.335
		c-0.572-0.387-1.146-0.774-1.721-1.161c0.264-0.512,0.679-0.846,1.24-1.003c-0.029-1.389-3.813,0.392-4.1,1.528
		c0.576-0.088,1.131,0.004,1.667,0.271c0,1.019-4.108-0.037-4.503,0.086c0.118,0.521,0.322,1.01,0.609,1.463
		c-0.752,0.875-2.369,1.871-3.455,3.229l-1.217,1.524l0.36-1.828c0.255-1.301-3.446-0.998-3.685-0.777
		c-0.643,0.598,1.767,2.246,1.911,2.607c-0.249-0.625-6.026-0.289-6.478-0.447c1.783,0.631,2.864,2.347,4.439,3.256l-1.71-0.432
		c-3.508-0.881-0.093,1.382-1.078,1.505c0.309-0.04-2.999-0.648-4.764-0.25c0.203-0.468,0.198-0.854-0.52-0.854
		c-1.976,0.006-17.088,8.904-17.265,8.727h-0.001c1.9,1.899,8.568-1.213,10.456-1.381c4.287-0.385,8.22,0.684,13.129-0.766
		c12.161-3.586,21.499-10.436,30.667-19.005c7.492-7.007,19.801-6.362,29.566-7.603c3.646-0.463,34.6-4.16,34.6-7.984
		C232.374,237.874,224.386,237.756,223.534,237.75z"/>
	<path d="M87.657,230.456c0.837-0.895,2.306-1.826,3.288-1.828c0.402,0,0.215,0,0.001,0c1.613-0.002,3.153-0.531,4.717-0.838
		c0.641-0.012,1.275-0.017,1.901-0.021c3.239,1.369,8.369,0.417,11.624-0.425c1.612-0.732,3.241-1.521,4.881-2.305
		c1.776-0.472,24.142-2.119,25.185-3.807c0.221-0.357-1.053-4.402-0.252-5.152c-0.997,0.061-1.975,0.223-2.917,0.555
		c0.217-0.471,0.438-0.938,0.673-1.4c-0.077,0.01,5.238-0.902,6.105-0.494c-0.235-0.863-0.444-1.73-0.606-2.609
		c0.813-0.193,1.529-0.008,2.154,0.556c1.854-1.121-2.787-5.66-3.305-6.116c-0.98-0.863-6.422-1.088-8.159-1.378
		c-1.758-0.887-1.653-1.354-3.562-0.073c-2.932,0.525-5.291-2.039-1.651-3.234c1.258-1.703-3.832,1.691-3.832,1.193
		c0-5.58-2.904-12.236-3.227-18.717c-0.064-1.293-8.577-6.234-9.105-5.01c-0.578,1.338,4.06,4.115,2.42,6.972
		c0.414-0.721-5.415,0.983-4.383,2.804c-0.871-1.532-6.461,3.146-7.679,1.928c0.012,0.013-18.762,8.283-18.641,7.843
		c-0.446,1.622,4.929,1.39,5.405,2.166c0.614,1.006-2.695,3.634-0.197,2.724c-4.184,4.563-4.375,9.767-6.572,13.145
		c-2.04,3.097-6.287-0.454-6.054,5.221c2.437-0.718,2.838,5.448,2.102,5.924C78.121,227.976,85.864,230.588,87.657,230.456z"/>
	<path d="M142.864,214.741c0.024,0.09,0.038,0.184,0.064,0.274C143.027,214.889,142.993,214.799,142.864,214.741z"/>
	<path d="M139.002,216.081c0.218-0.014,0.43-0.055,0.65-0.056C139.351,215.904,139.147,215.945,139.002,216.081z"/>
	<path fill="none" d="M247.642,130.883c0.103,0.102,0.282,0.284,0.271,0.269"/>
	<path d="M247.642,130.883c-2.604-2.604-2.356-6.088-5.94-8.647c-1.197,0.437-2.449,0.759-3.455,1.375
		c-0.381,0.525-0.722,1.109-1,1.79c4.631,12.064,3.977,19.275-0.565,31.919c0.176,0.903,0.183,1.815,0.013,2.738
		c0.465,1.01,0.663,2.072,0.67,3.279c0.139-0.015,0.278-0.014,0.424,0.002c0.164-0.139,0.387-0.26,0.592-0.324
		c0.399-0.146,0.813-0.135,1.193,0.009c0.146,0.052,0.282,0.12,0.411,0.207c0.111,0.065,0.196,0.16,0.292,0.246
		C242.681,158.07,253.502,136.746,247.642,130.883z"/>
	<path fill="none" d="M81.576,151.879c0.216,0,0.295,0,0.299,0"/>
	<path d="M69.387,151.995c-0.016-0.021-0.032-0.037-0.048-0.057c-0.986,1.191,0.573,1.396,1.5,1.793
		c-0.303-0.369-0.711-0.875-1.179-1.42C69.478,152.226,69.374,152.124,69.387,151.995z"/>
	<path d="M71.44,154.319c0-0.265-0.256-0.439-0.602-0.588C71.215,154.191,71.44,154.447,71.44,154.319z"/>
	<path d="M69.387,151.995c0.095,0.107,0.182,0.211,0.272,0.316c1.852,0.863,12.731-0.432,11.917-0.432
		c2.072,0,0.617-7.895,0.233-8.953c-1.205-3.323-4.436-3.157-5.35-4.608c-0.995-1.575-0.838-3.64-4.256-3.217
		c-0.844,0.104-12.461,4.636-12.802,3.856c0.538-0.534,1.091-1.05,1.661-1.55c-0.202-2.178-7.412,6.408-6.256,6.108
		c-0.387,0.101,5.482-3.978,4.745-2.067c-0.819,0.748-1.645,1.488-2.479,2.22c0.327-0.698,1.664,1.131,1.173,1.816
		c0.912-0.43,1.817-0.873,2.695-1.369c-0.738,3.536-8.235,7.131-5.113,12.471c1.729,2.959,6.643-5.744,6.993-6.471
		c1.517-3.146,4.492-0.473,6.518,1.822c0.062-0.075,0.121-0.148,0.205-0.232C69.434,151.814,69.395,151.908,69.387,151.995z"/>
	<path d="M58.246,145.485c-0.171,0.08-0.334,0.18-0.507,0.258C58.004,145.727,58.148,145.622,58.246,145.485z"/>
	<path fill="none" d="M103.77,130.475c0,0.01,0,0.05,0,0.091"/>
	<path fill="none" d="M103.77,130.565c0,0.081,0,0.102,0,0.091"/>
	<path d="M124.83,139.23c0.064-0.053,0.137-0.095,0.199-0.151C124.914,139.08,124.857,139.14,124.83,139.23z"/>
	<path d="M116.365,130.321c-0.81,0.77-1.808,1.042-2.996,0.814l-1.372,0.552l1.371,0.039c4.05,0.115-1.529,3.047-1.594,2.672
		c0.739,0.714,1.493,1.414,2.262,2.095c-0.755-0.206-1.517-0.222-2.288-0.048c0.297,0.653,0.644,1.277,1.038,1.873
		c-0.614,0.077-1.17,0.308-1.669,0.691c0.014-0.051,1.066,2.508,1.223,2.508c1.029,0-2.449,2.302-2.441,2.28
		c-0.923,2.848,7.715-4.106,8.41-4.106c0.461,0.001-4.789,5.188-4.789,5.672c0,0.338,7.138-1.306,7.655-1.892
		c-0.712-0.308-1.31-0.769-1.793-1.386c0.872-2.724,5.51-0.031,6-0.145c0.546-0.127-0.721-2.151-0.553-2.712
		c-0.505,0.418-1.054,0.772-1.665,1.036c-1.873-0.022,2.96-4.056,2.841-4.249c-0.553-0.892,3.211-2.263,3.41-2.257
		c1.526,0.05,1.997,3.835,2.715,4.771c3.515,4.58,6.729,2.16,11.34,0.763c1.567-0.475,9.271,0.39,9.94-0.261
		c-0.572-0.432-1.172-0.822-1.799-1.172c0.949-0.17,1.751-0.594,2.406-1.271c-0.54-0.876-7.682-6.155-8.573-5.257
		c0.394-0.39,5.572,4.546,5.136,4.654c-1.787,0.437-9.324-4.233-11.735-4.736c-1.688-0.352-6.924-0.91-8.259-0.697
		c1.034-0.166,7.803-1.294,7.529-1.515c-1.519-1.23-4.862-1.001-6.568-1.655c-0.574-0.22,4.089-1.44,4.143-1.677
		c0.688-3.042-9.59-3.191-10.975-1.971c-1.983,1.749-2.017,0.942-3.322,0.805c-1.703-0.178-6.025-1.306-6.696-1.306
		c1.541,0-9.017,8.417-9.073,5.627c0.827-0.816,1.613-1.668,2.362-2.557c-1.58,0.023-2.833,0.718-3.761,2.085
		c0.074,0.998,0.526,1.697,1.359,2.099c-0.606-0.267-1.211-0.241-1.816,0.078C103.77,132.241,116.365,128.865,116.365,130.321z"/>
	<path d="M228.827,152.202c0.088-0.015,0.158-0.027,0.213-0.035C228.98,152.174,228.907,152.188,228.827,152.202z"/>
	<path d="M227.768,152.372c0.115-0.019,0.672-0.108,1.059-0.17C228.602,152.237,228.271,152.292,227.768,152.372
		c0.038-0.006-7.355-6.041-7.814-6.498l-1.414-1.401l-0.408,1.858c-0.211,0.969-2.244,3.972-0.938,4.816
		c0.832,0.538,3.369-0.646,1.881,3.346c-0.797,0.707-1.6,1.41-2.406,2.106c0.373,0.866,0.959,1.519,1.764,1.95
		c-0.555-0.635-0.898-1.375-1.03-2.221c1.58-1.582,11.63,14.135,0.964,6.744l-2.423-1.678c-0.603,0.639-3.51,4.277-3.473,4.682
		c0.499,0.471,0.97,0.969,1.405,1.497c-1.055,1.987-6.276,0.453-3.01,4.339l1.577,1.871c5.507-4.523,15.149-3.834,19.576-8.902
		c-0.427-0.258-0.894-0.393-1.399-0.403C230.62,162.29,237.42,150.813,227.768,152.372z"/>
	<path d="M229.04,152.167c0.015-0.002,0.023-0.004,0.039-0.006C229.065,152.163,229.053,152.165,229.04,152.167z"/>
	<path d="M229.079,152.161C229.234,152.133,229.208,152.139,229.079,152.161L229.079,152.161z"/>
	<path fill="none" d="M222.386,139.043c-0.204,0-0.263,0-0.247,0"/>
	<path d="M224.833,142.7c0.119-0.191,2.465-4.556,2.465-5.254c-0.49-0.191-0.995-0.322-1.516-0.391
		c0.687-0.606,1.168-1.358,1.449-2.256c-0.063-3.351-5.417,4.246-4.846,4.246C220.747,139.043,223.327,145.127,224.833,142.7z"/>
	<path fill="none" d="M234.374,89.147c0.166-0.167,0.379-0.38,0.39-0.39"/>
	<path d="M97.304,55.939c0.044-0.062,0.079-0.129,0.122-0.192C97.35,55.791,97.297,55.847,97.304,55.939z"/>
	<path d="M102.52,58.328c0.217-0.134,0.173-0.337-0.036-0.571C102.469,57.939,102.474,58.126,102.52,58.328z"/>
	<path d="M114.279,54.844c0.239-0.125,0.467-0.27,0.703-0.4C114.558,54.555,114.288,54.687,114.279,54.844z"/>
	<path d="M138.572,62.176c0.038,0.086,0.091,0.162,0.126,0.249C138.717,62.341,138.666,62.259,138.572,62.176z"/>
	<path d="M75.109,41.438c-0.064-0.003-0.15,0.044-0.278,0.185C74.923,41.56,75.016,41.499,75.109,41.438z"/>
	<path d="M135.421,25.443c-0.163,0.033-1.492-0.054-2.927-0.025C133.799,25.529,134.848,25.559,135.421,25.443z"/>
	<path d="M234.374,89.147c-0.979,0.979-6.679-0.007-5.859-1.84c1.349-3.026,1.236-3.494,2.343-6.43
		c1.332-3.529,0.752-8.477-0.665-11.885c-0.668-1.611-5.771-6.926-5.771-7.507c1.009-0.203,2.024-0.356,3.049-0.46
		c0-1.157-5.784-1.455-6.068-5.098c-0.26-3.334-1.146-5.837-1.789-7.781c0.309,0.927,0.196-6.579-0.291-7.033
		c0.99-0.025,1.868-0.371,2.635-1.053c-0.055-1.717-7.852-9.32-8.804-10.434c-2.387-2.794-4.018-6.772-6.5-9.327
		c-2.106-2.168-21.237-12.563-21.237-11.647c0.584,0.407,1.185,0.794,1.799,1.159c0.012,2.25-7.896,1.062-7.896,2.327
		c0,0.396,2.178,2.326,2.744,2.697l-2.169-0.292c-1.612-0.217-17.388-7.823-17.369-7.444c0.216,4.75,18.586,6.176,18.619,11.762
		c0.005,1.647-7.179-0.986-8.028-0.825c0.729-0.138,2.874,2.875,3.428,2.691c-1.695,0.563-5.564-1.961-6.875-1.078
		c-0.125,0.083,11.268,8.185,11.326,8.33c-0.015-0.033-7.518-1.887-8.16-1.518c0.5,0.484,0.897,1.043,1.193,1.675
		c-0.311-0.04-3.973,0.79-4.004,0.782l-1.372-0.343c0.813,0.936,1.626,1.872,2.438,2.806l-1.711-0.315
		c-1.168-0.215-4.229-1.081-5.467-1.081c0.232,0.907,0.596,1.761,1.092,2.561c-0.25,3.17-7.84-5.134-8.805-0.633
		c0.649,0.334,1.178,0.81,1.584,1.425c-1.271,1.462-2.568,1.114-3.894-1.044l-2.021-1.958l0.377,1.885
		c-0.105,0.763-0.213,1.525-0.318,2.289c-0.832,0.086-1.436-0.198-1.805-0.853c-0.809,0.072,2.729,2.758,2.94,2.888
		c-0.519,0.682-1.112,1.289-1.78,1.822c0.688-0.103,1.157,0.168,1.409,0.813c0.192-0.192-5.183-0.697-5.065-0.659
		c0.522,0.173,1.723-4.267-0.28-4.267c-3.859,0,0.604,8.533-1.313,8.533c1.021,0-7.683-8.556-10.744-11.13
		c1.226,0.49,3.067,0.88,2.939,0.46c-1.165-3.794-9.066-4.313-9.471-5.195c-0.546-1.188,1.703-1.461,3.738-1.501
		c-3.897-0.334-10.083-1.41-12.738-1.602c-2.286-0.167-19.686,1.616-19.717,2.204c0.321-6.146,35.394-4.817,35.394-3.923
		c0-1.226-4.875-0.523-4.875-1.787c0-1.042,8.605-0.479,8.6-0.551c-0.228-3.024-13.98-5.618-15.302-5.754
		c-3.255-0.338-15.768,2.512-18.917,5.109c0.218-0.242,0.437-0.483,0.654-0.724l2.11-1.844c-4.474,1.515-26.512,6.726-26.512,12.895
		c0,2.416,3.527-0.662,3.729,0.097c0.208,0.785-6.677,5.831-7.69,6.574l1.676-0.387c0.545,0.099,1.091,0.197,1.637,0.295
		c-0.142,0.584-7.021,3.899-3.143,3.272l1.658-0.268l-1.829,1.004c-0.707,0.469-1.414,0.939-2.12,1.408
		c0.536,0.024-0.981,4.593-1.041,4.811c0.999,0.028,1.953-0.214,2.863-0.729c0.609,0.37-11.818,6.744-12.134,6.851
		c-2.037,0.69-9.571,7.317-11.417,5.471c-1.322-1.322,11.422-7.811,11.395-8.74c-0.121-4.075-11.085,1.708-12.642,2.135
		c0.49-0.481,1.703-2.688,1.204-2.908c1.356-0.188,5.42-0.528,5.056-1.314c-0.493-1.065-8.286,1.054-8.286-0.441
		c0-1.304,1.761-1.219,3.136-1.256c-1.132-1.098-0.674-6.204-0.589-6.489c-0.156,0.52,5.083-0.585,5.272-0.789
		c0.902-0.97,0.014-0.454,3.647-1.058c-1.348,0.224-0.016-3.948,0.546-3.948c-11.08,0-17.577,14.607-21.715,22.406
		c-1.36,2.568-5.783,11.901-4.026,14.746c-0.051-0.083-0.741,14.305,0.071,13.682c-0.67-0.09-1.341-0.093-2.012-0.007
		c-2.75,6.378,12.208,20.153,14.018,15.419c0.18-0.75-0.148-0.939-0.982-0.568l-1.326,0.327l1.306-1.461
		c1.334-1.494,9.87-12.208,9.791-13.792c-0.521,0.088-1.042,0.083-1.563-0.015c-0.451-1.356,2.406-10.06,4.349-8.591
		c0.187,0.82,0.247,1.648,0.179,2.483c0.037,0.066,16.458-12.167,4.528-12.339l-2.133-0.032c1.016-0.581,2.032-1.161,3.047-1.741
		l-1.408-0.022c-4.616-0.071,13.143-2.623,11.096,0.69c-0.026,0.042,3.003,2.64,3.92,1.396c0.409-0.554,2.917-5.156,3.734-5.156
		c2.332,0,2.946-6.919,3.463-7.111c3.281-1.222,6.912-5.785,7.178-6.213c1.87-3.032,20.842-6.361,20.132-3.425
		c-0.557,2.307-12.484,1.358-15.849,3.721c0.164-0.168,0.327-0.336,0.491-0.504l1.372-1.233l-1.524,0.972
		c0.042-0.027-7.275,4.024-6.567,5.099c2.393,3.63,0.256,1.032,0.169,3.615c-0.048,1.466,3.644,1.818,4.239,0.855
		c-0.424-0.562-0.915-1.059-1.473-1.493c-0.368-2.113,3.5-1.72,3.909-0.738c-0.34,0.6-0.714,1.178-1.107,1.744
		c0.67-0.37,4.219,1.071,5.058,2.009c0.03-0.382,0.191-0.725,0.485-1.027c0.171,0.231,3.089,0.673,3.722,0.499
		c0.054,0.428,0.217,0.805,0.565,1.098c1.137-1.547,3.646-1.694,4.966-3.02c0.415-0.416-5.534,0.892-5.265,0.068
		c0.467-1.413,9.489-2.179,9.528-1.785c-0.491,0.303-0.999,0.577-1.503,0.856c2.138-0.556,8.575-0.497,9.443,0.125
		c2.851,2.041-7.418,2.225-6.569,3.286c1.615,2.015,7.573-0.826,8.823-0.135c-0.524,0.463-0.917,1.022-1.181,1.678
		c0.816,0.638,11.802,1.647,13.075,2.778c-0.167-0.384-0.348-0.758-0.562-1.112c3.335,3.229,12.961,6.707,16.028,6.707
		c3.332,0,7.043,2.675,10.346,3.136c0.525,0.073,9.967,6.062,9.396,3.697c0.109,0.459-4.383-2.127-4.216-1.984l-2.134-1.823
		c2.406,0.41,8.965-1.229,10.498-0.218c-0.094,0.899-0.36,1.739-0.799,2.521c0.574,1.009,4.441,0.409,5.09,0.883
		c-0.439-0.323,0.961,8.705,0.842,9.933c-0.193,2.037,0.521,5.436,0.521,6.521c0,0.869-3.143,0.875-3.166,0.793
		c0.287,0.951,3.873,2.813,3.188,3.638c-1.976,2.372-0.022,2.061-0.022,3.931c-0.68,0.226-1.369,0.301-2.076,0.227
		c-0.672,1.83,3.297,2.854,3.297,4.021c-0.475,0.177-0.959,0.285-1.459,0.322c0.287,0.947,6.002,3.821,2.654,5.529
		c0.112-0.058-3.049-2.87-2.852-1.95c0.555,2.578,6.652,5.483,6.964,7.159c-0.139,1.02-0.69,1.761-1.653,2.224l-1.522,0.712
		l1.416,0.05c0.663,0.023,4.826,3.368,4.358,4.321c-0.998,0.253-2.01,0.327-3.032,0.221c0,1.747,5.282,1.628,5.282,3.043
		c0,2.133-4.859-2.47-5.101-1.263c-0.579,2.909,5.157,6.018,4.644,9.03c-0.649,3.807,5.052,8.388,6.951,10.345
		c-1.412-1.455,0.015,8.238,0.012,8.537c1.805,4.784,3.464-3.102,2.51-3.102c1.254,0,0.169,4.582,2.1,3.389
		c3.84-2.369,1.508-6.015,2.235-7.986c1.063,0.018,2.087-0.199,3.063-0.649c-0.789-1.021-1.688-1.934-2.698-2.734
		c0.86-1.337,4.772,1.588,4.772-0.932c0-2.045-2.666-2.951-2.981-4.718c0.778,0.154,1.557,0.304,2.336,0.45
		c-0.461-0.608-0.97-1.173-1.504-1.717c0.829-0.163,3.438-1.644,3.579-2.028c0.336-0.024,0.672-0.047,1.008-0.072l2.742-0.021
		c-0.484,0.376-3,3.001-3.219,3c0.762,0.005,6.959-3.12,7.129-3.776c0.729-2.816,1.193-4.334,4.64-7.128
		c1.562-1.266,3.213-3.055,5.274-3.502c3.945-0.854-1.033-3.367-0.066-5.177c1.531-2.869,3.348-11.995,0.021-14.323
		c-3.787-2.653,1.728-2.595,2.258-4.191C234.959,95.218,236.831,86.689,234.374,89.147z"/>
	<path d="M54.699,45.034c-0.248,0.226-0.813,0.266-1.456,0.284C53.575,45.64,54.039,45.632,54.699,45.034z"/>
	<path d="M93.737,242.122c0.058,0.149,0.115,0.297,0-0.002c-0.483-1.259,1.94-0.339,1.894-0.457
		c-0.881-0.799-1.752-1.607-2.613-2.427c-0.219-0.612,11.282-3.808,13.21-3.616c4.763,0.475,4.443-3.178,6.792-4.846
		c0.083,0.02,6.776-4,2.831-3.943c-4.27,0.063-8.271,2.188-12.968,2.086c-3.574-0.076-14.933-2.055-14.933,4.211
		c0,3.849-1.923,8.854,2.712,8.922C88.459,242.016,94.731,244.72,93.737,242.122z"/>
	<path d="M129.4,241.676c0.693,0.951,5.476,4.722,5.476-0.262c0-1.078-6.735-3.137-5.478-3.914c0.589-0.363,3.649,1.826,3.649,0.352
		c0,0.145-3.937-2.965-1.477-3.521c-3.024,0.685-2.28,2.752-4.875,1.2c1.981,1.187,5.408-4.667,4.548-4.401
		c-1.035,0.316-1.811,2.223-3.181,2.691l-2.243,0.77l0.942-1.438c0.768-0.621,1.44-1.326,2.02-2.117
		c0,0.793-16.513,2.381-17.167,4.332c-1.271,3.77-12.145-0.08-11.811,4.172c0.165,2.092-0.016,8.308,3.513,8.613
		c-0.396-0.033,26.587-2.414,26.044-4.322c-0.499-0.291-0.985-0.604-1.47-0.92C128.372,242.786,129.214,242.043,129.4,241.676z"/>
</g>
</svg>
