<?xml version="1.0" encoding="utf-8"?>
<!-- Generator: Adobe Illustrator 15.1.0, SVG Export Plug-In . SVG Version: 6.00 Build 0)  -->
<!DOCTYPE svg PUBLIC "-//W3C//DTD SVG 1.1//EN" "http://www.w3.org/Graphics/SVG/1.1/DTD/svg11.dtd">
<svg version="1.1" id="Layer_1" xmlns="http://www.w3.org/2000/svg" xmlns:xlink="http://www.w3.org/1999/xlink" x="0px" y="0px"
	 width="283.465px" height="283.465px" viewBox="0 0 283.465 283.465" enable-background="new 0 0 283.465 283.465"
	 xml:space="preserve">
<g>
	<path d="M172.7,26.627c-1.863,1.494,2.646,2.643,2.481,0.992C173.598,28.043,173.298,27.187,172.7,26.627z"/>
	<path d="M166.743,111.027c-1.619-0.129-2.391,0.59-2.482,1.984C165.88,113.142,166.647,112.425,166.743,111.027z"/>
	<path d="M205.966,147.269c-0.434-2.499-4.358-3.188-4.967-0.493c0.332,0,0.662,0,0.994,0l0.746-0.25l-0.248,0.743
		C204.271,146.858,204.892,148.387,205.966,147.269z"/>
	<path d="M198.515,149.259c0.863,0.61,3.3-0.38,5.463,0c0.295-1.29-0.199-1.789-1.49-1.49l-0.742,0.249l0.248-0.748
		C199.976,147.076,198.532,147.451,198.515,149.259z"/>
	<path d="M197.522,148.762c-0.135,1.021-1.848,0.465-1.984,1.488C196.933,150.76,198.989,149.476,197.522,148.762z"/>
	<path d="M149.368,188.48c-0.414-3.064-4.146-2.811-4.473-5.955c-3.97-1.023-7.852-2.082-11.914-2.979
		c-0.842,0.979-2.504,1.141-1.985,3.477c7.051,0.889,12.936,2.947,17.377,6.453C148.237,188.023,148.493,187.768,149.368,188.48z"/>
	<path d="M217.802,213.053l-0.91-0.254c-2.074,2.672,0.979,4.172,1.486,6.953l0.91-0.25l0.578,0.744
		c0.068,0.072,0.141,0.143,0.209,0.217c1.084-1.369,2.154-2.75,3.203-4.148c-1.9-1.203-3.695-2.914-4.9-4.008L217.802,213.053z"/>
	<path d="M233.776,195.924c0.479,0.777,0.961,1.555,1.473,2.299c0.549-0.941,1.084-1.893,1.617-2.844
		C235.306,195.289,234.835,196.996,233.776,195.924z"/>
	<path d="M260.577,98.615l0.102-0.303c-0.096-3.475-0.293-6.924-0.574-10.35C258.478,91.521,257.503,96.465,260.577,98.615z"/>
	<path d="M248.554,63.188l0.605,0.671c0.332,0,0.66,0,0.992,0l0.578-0.746l0.914,0.25c0.336-2.068,0.598-2.324,1.984-2.482
		c-0.043-1.512,0.508-2.758,1.318-3.764c-0.252-0.994-0.521-1.979-0.789-2.967c-2.529,2.703-4.555,5.91-6.484,9.215L248.554,63.188z
		"/>
	<path d="M137.948,120.459c-5.908-5.531-21.318-7.838-28.302-1.489l0.845,0.349l0.646,0.646c1.735-0.5,3.384-1.252,4.966-1.489
		c10.25-1.549,15.577,2.935,21.848,5.959l0.494-0.249l0.495,0.247c1.388-1.043,0.724-2.544,0-3.974l-0.497,0.25L137.948,120.459z"/>
	<path d="M123.547,170.604c0.08-4.55,3.785-5.481,3.973-9.927l-0.744,0.248l-0.248-0.752c-3.787,6.057-12.563,11.6-8.937,21.848
		c3.555,4.225,8.218,7.342,14.397,8.938c0.43,0.727,0.742,1.572,1.984,1.488l-0.247-0.742l0.745-0.25
		c0.076-1.234-0.778-1.535-0.993-2.482c-4.7-4.732-15.062-3.803-13.405-14.895C121.36,173.053,121.627,171.004,123.547,170.604z"/>
	<path d="M43.118,106.561c-0.304,0.031-0.587,0.075-0.496,0.499l0.746,0.247l0.745-0.247c0-0.166,0-0.333,0-0.499l-0.497,0.249
		L43.118,106.561z"/>
	<path d="M44.11,107.554l-0.742-0.248l-0.251,0.744C43.502,107.938,44.095,108.037,44.11,107.554z"/>
	<path d="M90.78,150.25c-1.646,0.897-1.397,0.812-1.986,2.98l0.912-0.248l0.576,0.74C92.216,153.227,90.36,152.018,90.78,150.25z"/>
	<path d="M52.551,97.623c1.287-0.203,1.433-1.547,1.984-2.482C53.216,95.312,52.862,96.445,52.551,97.623z"/>
	<path d="M175.182,109.541l0.745,0.578l-0.248,0.912c0.579,0.082,0.539,0.783,0.497,1.486c4.932,0.167,8.256-2.555,11.416,0.497
		c0.745-0.576,1.213-1.433,2.481-1.487c-0.664,4.709,5.098,0.704,6.455,1.985c-0.854-0.029-1.271,0.384-1.49,0.993
		c0.697,0.127,0.566,1.087,0.994,1.486c1.778-0.043,2.869-0.771,4.471-0.992c-0.147,1.011-1.344,0.975-1.489,1.984
		c3.671,1.026,4.562,0.833,8.438,0.497l-0.246-0.909l0.746-0.578c-1.094-2.383-4.252-2.701-5.463-4.965
		c-3.393-0.414-6.47-1.146-7.945-3.477c-7.139-0.029-10.088-1.188-15.389-1.986l0.247,0.498l-0.247,0.497
		C178.63,108.352,175.915,107.955,175.182,109.541z"/>
	<path d="M209.438,117.483l-0.742,0.248l-0.748-0.246c-0.048,1.274-1.938,0.71-1.986,1.986c2.396,0.897,2.802,1.06,5.465,1.983
		l-0.25-0.744l0.746-0.25C211.942,118.621,210.059,118.684,209.438,117.483z"/>
	<path d="M200.501,138.328c1.136,2.096,0.201,4.293-1.488,4.967l0.646,0.645l0.348,0.846c1.755-0.229,1.744-2.225,3.973-1.986
		c-1.22,2.359,2.854,1.994,4.965,2.482c0.698-1.736-3.008-1.563-1.488-2.482c1.568,0.078,2.996,0.02,3.476-0.992l-0.742-0.247
		l0.247-0.744c0.807-1.342-0.527-2.396,1.982-2.481c-1.854-2.613-3.744-5.19-4.467-8.937c-1.875-0.237-1.48-1.944-2.481-2.979
		c-8.212-8.481-30.792-10.219-38.229-0.496l0.744,0.582l-0.249,0.91c0.169,0,0.333,0,0.499,0l0.249-0.75l0.247,0.744
		c3.17-2.021,7.234-4.348,11.418-4.963c14.16-2.087,22.248,4.822,26.314,11.916c-1.941-1.203-3.614-2.673-6.951-2.482
		c-1.301-3.063-9.247-4.605-13.902-4.965c-9.018-0.703-15.798,4.424-18.369,9.926c3.034,1.168,4.523-2.856,6.951-4.467
		c3.807-2.525,7.934-3.334,10.919-0.496c-0.026,0.637-0.638,0.686-0.495,1.488l0.745-0.246l0.743,0.246
		c1.167,0.01,1.462-0.854,2.98-0.498c-0.985,0.94-0.241,2.351,0,3.478c-1.854-0.53-1.416,1.231-2.98,0.993
		c0.411-1.401-0.699-1.287-0.496-2.482l-0.91,0.248l-0.578-0.746C180.952,145.361,197.761,145.783,200.501,138.328z"/>
	<path d="M72.411,136.35c0.347,1.527,0.347,0.952,0,2.482C74.377,139.15,73.058,136.469,72.411,136.35z"/>
	<path d="M178.161,235.15c0.246,1.568-2.463,0.184-1.984,1.984C177.427,237.35,179.192,235.58,178.161,235.15z"/>
	<path d="M152.839,211.32l0.746-0.246l0.246,0.74c4.42-0.766,8.045-0.457,11.418-0.494c-0.228-2.586-0.754-4.869-3.473-4.967
		c-1.566,0.256-0.482,3.156-2.482,2.979c-5.604-2.338-9.146-6.74-14.397-9.432c-2.669,1.465-7.168,1.098-9.929,2.479
		c-2.737-5.322-12.358-4.652-11.913,2.98c-1.362-1.346-2.408-2.541-3.976-2.48c0,1.322,0,2.646,0,3.969
		c2.309,1.498,6.479,1.137,7.945,3.479l0.909-0.242l0.58,0.742c0.864,0.459,2.664-0.016,2.481,1.49l0.742-0.248l0.25,0.74
		c1.159-0.15,2.051-0.971,2.979,0c0,0.166,0,0.332,0,0.498l0.91-0.248l0.578,0.742c0.58-0.082,0.539-0.783,0.498-1.486
		c0.91,1.557,1.682-1.668,2.483,0l0.909-0.248l0.581,0.74c0.803-0.668,1.929-0.984,2.976-2.479c1.652,0.891,2.809,1.174,4.967,0.494
		h0.992v0.992C150.856,211.928,151.872,209.602,152.839,211.32z"/>
	<path d="M147.382,219.76l-0.249-0.744l0.247-0.744c-0.496,0.002-0.594-0.398-0.993-0.492l-0.743,0.248l-0.249-0.746
		c-0.558,1.125-2.208,3.719-3.974,1.984l-0.743-0.246l-0.249-0.746c-0.957,0.201-0.391,1.926-1.984,1.488
		c-0.156-0.67-0.707-0.949-0.498-1.982l-0.91,0.248l-0.58-0.746c-1.186-0.197,0.279,2.26-1.487,1.488
		c0-0.498-0.401-0.592-0.497-0.99l-0.745,0.248l-0.744-0.248c-0.661,0-1.325,0-1.985,0c0.274-1.086,1.76-3.494,0.994-3.979
		l-0.746-0.246l-0.248-0.744c-1.563,0.09-0.635,2.674-2.481,2.482l-0.247,0.744l-0.746-0.248
		C128.487,225.613,141.771,225.109,147.382,219.76z"/>
	<path d="M127.024,214.791l0.744-0.248l0.744,0.25c0.645-0.654,0.654-1.846-0.495-1.984l-0.58,0.744l-0.911-0.248
		C126.841,214.385,125.12,214.885,127.024,214.791z"/>
	<path d="M260.757,103.617c0-1.492-0.021-2.979-0.057-4.463l-0.117-0.039c0,0.168,0,0.334,0,0.5
		c-1.916-0.098-3.658-0.02-4.965,0.496c0.371-3.926-0.436-7.26-1.486-11.914l-0.744,0.248l-0.25-0.742
		c-0.002-0.002-0.004-0.006-0.006-0.008l0.744-0.248l0.25,0.743c1.111,0.863,2.668-1.001,2.48-2.978h-0.994v-0.992
		c-1.367,0.617-2.406,1.563-2.482,3.471c-1.92-2.378-3.146-5.445-6.939-5.949c-0.539-1.447-1.109-2.863-0.996-4.967
		c2.354-1.886,3.787-1.646,4.965-4.468c1.32,0.582,2.926-0.951,2.98,0c1.389-0.489-0.719-1.325,0.498-1.985c0.16,0,0.326,0,0.494,0
		l-0.252-0.496l0.252-0.498c-0.461-0.529-1.83-0.156-1.486-1.49c0.105-0.84,1.836-0.975,2.48-3.477
		c0.666,0.279,1.164,0.354,1.576,0.313c-0.236-1.125-0.479-2.25-0.734-3.367c-1.518,0.246-2.689,0.498-2.828,0.573
		c-1.039,0.57-0.135,2.289-1.486,1.49l-0.58,0.742l-0.91-0.248c0,0.496,0,0.991,0,1.488c-0.559-0.102-0.771-0.549-0.992-0.992
		l-0.91,0.247l-0.578-0.743c-4.395-6.505,1.93-12.014,4.803-15.521c-5.764-17.372-8.834-22.815-10.939-24.479
		C230.913,8.457,212.097,6.69,201.083,7.147c-13.696,0.577-25.617,4.94-28.705,8.892c-1.762,0.963-3.479,1.994-5.115,3.151
		c-17.014,1.358-23.736,13.005-34.754,20.358c-6.315,7.088-14.752,12.06-18.37,21.843c-2.577,2.062-4.626,4.644-6.952,6.952
		c0,0.99,0,1.984,0,2.977c-3.863,4.081-5.219,10.672-8.439,15.391c-3.33-1.928-3.672-4.828-5.957-6.949
		c-2.051-1.902-4.951-2.906-7.944-3.971c-5.106-1.816-10.907-3.431-17.377-2.481c-0.998,0.146-1.856,0.974-2.978,0.991
		c-1.711,0.027-3.326-0.735-4.966-0.497c-1.731,0.251-3.522,1.896-5.461,2.481c-0.729,0.223-1.791-0.304-2.481,0
		c-2.665,1.164-4.455,4.227-7.447,3.476c-2.629,2.169-4.43,5.17-7.945,6.454c-1.549,4.738-4.7,7.875-7.942,10.921
		c-2.879,9.962-7.08,20.005-4.967,30.284c0.46,2.248,2.008,4.013,2.977,5.957c0.971,1.953,1.316,4.242,1.986,5.463
		c3.66,6.691,11.438,9.357,14.396,15.392c0.693,0.793,2.451,0.528,2.98,1.488c3.537,5.866,9.023,10.528,11.916,16.878
		c2.688,5.908,4.776,10.695,9.432,14.895c2.471,2.232,6.043,2.947,6.949,6.455c7.461,3.125,9.306,11.752,14.896,16.879
		c1.401,1.285,3.476,1.111,3.974,3.475c4.646,0.318,6.948,2.98,11.418,3.479c7.873,9.293,8.488,23.881,15.392,33.264
		c1.288,1.748,5.54,6.197,6.95,6.947c4.701,2.512,11.011-0.758,16.879,3.477c2.436,3.619,3.445,9.793,4.238,14.912
		c3.645-1.598,7.233-3.299,10.754-5.115c0.246-0.391,0.422-0.646,0.422-0.646l1.064-1.289c1.122-1.195,1.555-2.406,4.362-1.912
		l0.506-1.4l1.063,0.033c-0.111-0.938,0.979-1.219,0.914-2.107l-0.744-0.252l0.248-0.744c-1.858-0.01-3.026,1.721-2.482,1.486
		c-1.124,0.443-3.023-0.52-4.966-1.486c0.055-0.932,1.644-0.344,1.491-1.488l-0.844-0.348l-0.647-0.646
		c-1.483,0.648-4.155-0.463-4.964-0.498c-1.288-1.305,0.803-0.391,0.498-1.982h-0.993v-0.994c-2.622,1.723-5.986,0.625-8.44-0.494
		c1.475-0.93,5.787-1.74,7.447-3.969l-0.673-0.605l0.177-0.889c-2.396,0.674-5.393-0.063-6.453,2.482
		c-0.137-2.152-1.852,0.457-3.477,0.992c0.029-0.631,0.638-0.688,0.497-1.49c-3.288-0.232-5.465,0.873-8.936,0.498
		c-15.381-1.668-17.65-23.678-23.83-38.729c-0.847-2.064-2.258-3.77-2.98-5.461c-1.11-2.592-1.357-5.045-1.984-6.953
		c-4.482-13.668-10.613-26.045-9.433-43.192c0.413-5.978,1.351-11.854,1.489-16.88c1.025-1.62,2.369-2.926,1.983-5.957
		c3.017,2.264,7.707,0.146,10.923,3.475c1.555-0.922,2.291-1.238,3.476-0.992c1.043-0.921-2.444-1.502-2.482-2.98
		c-0.735-4.581,2.964-5.836,6.454-7.447c-0.576,7.764,12.01,10.838,15.391,4.469c1.035,0.764,2.887,2.654,0.994,3.477l0.745,0.248
		l-0.25,0.744c-0.251,5.213-2.747,8.172-3.473,12.91l0.743-0.252l0.744,0.252c2.885-6.057,5.984-11.892,7.449-19.363l-0.912,0.248
		l-0.578-0.746c-2.164,1.396-2.392-1.198-3.974-2.482c-2.702-2.195-8.606-5.1-11.915-5.46c-9.064-0.991-14.629,2.627-21.847,6.453
		c0.793-0.367-0.113-2.431,1.491-1.987c-2.188-3.842,0.078-9.763,0.496-12.906c1.869-0.416,5.856-1.312,7.447-3.478
		c5.713-2.509,13.31-1.449,19.36-1.487c0.171,1.318,1.304,1.674,2.481,1.986c1.242-6.588-4.537-10.725-10.92-8.936
		c0.026-0.637,0.638-0.689,0.496-1.492c-3.416,0.07-7.526,2.061-10.426,0.994c0.385,2.262-2.8,0.889-3.475,2.979
		c-0.848-0.203,0.104-0.642,0-1.491l-0.744,0.252l0.25-0.746c0.027-0.633,0.637-0.688,0.495-1.488l-0.744-0.247l-0.247-0.746
		c-1.846-1.144,1.089-4.872,1.986-6.454c0.173-0.98-1.202,0.218-0.993,0.497c-1.104-1.466,0.491-6.19,1.489-3.972
		c0.177-3.379,2.523-4.498,0.992-6.953c1.6-2.45,3.233-5.453,4.467-7.447c1.121-1.813,0.759-3.184,2.482-2.482
		c-1.363-0.599-0.972-2.19,0.498-0.99c0.92-2.047-0.918-0.934,0-2.979c0.732-0.573,1.249-0.573,1.984,0
		c-1.094-1.047,0.638-1.467,0.498-2.979c2.822-1.395,4.421-1.774,5.459-5.461c0.71,0.193,0.84,0.596,1.49,0
		c3.516-9.065,14.998-10.162,22.84-14.896c12.091-1.898,24.589-0.266,35.746,1.489l-0.248-0.911l0.744-0.58
		c-4.021-2.484-14.346-2.354-19.858-3.473c-0.595-0.12-1.185-0.1-0.992-0.993c-0.854,1.18-1.206-0.019-1.983,0
		c-4.853,0.116-10.332,2.799-15.393,1.489c-5.536,2.279-7.75,5.041-13.405,4.47c-1.291,0.198-1.498,1.481-2.979,1.489
		c0.37-1.75,2.333-1.309,3.476-1.986c2.742-1.628,4.659-4.213,6.948-5.461c7.343-3.993,18.165-5.141,26.314-3.971
		c4.16,0.598,7.981,0.029,11.914,0.994c5.637,1.377,10.25,4.029,15.889,4.965c2.355,2.938,7.158,3.434,10.921,4.967
		c0,0.497,0,0.99,0,1.488c2.704,0.351,6.33,1.615,9.433,2.979c3.361,1.478,6.201,3.571,9.434,4.964
		c4.846,2.09,11.031,3.975,15.393,5.465l-0.256-0.754l0.742,0.248c0.131-0.773,1.088-0.344,1.488,0c0,0.166,0,0.331,0,0.497
		l0.744,0.25l-0.744,0.249c1.014,1.473,2.205,2.762,2.982,4.469c-2.395-0.242-1.727,2.576-3.479,2.979
		c-0.762-1.055-1.789-1.85-2.479-2.979c-3.139,0.157-4.521-1.438-5.959-2.979c-12.947-5.095-24.841-11.241-38.23-15.89l0.248,0.91
		l-0.742,0.58c1.461,1.352,3.861,1.766,5.459,2.979c0.859,2.122,2.189,3.768,4.469,4.468c4.01,7.742,13.004,10.5,16.387,18.868
		c0.941,0.211,1.244,1.069,2.48,0.991c1.469,3.93,5.035,5.139,5.461,8.938c-5.139-2.975-8.955-7.263-13.902-10.427
		c-2.068,5.612,9.998,7.247,8.441,13.899c2.035,2.275,3.383,5.226,4.963,7.945c-1.479-0.514-6.166-2.1-6.453-5.463
		c-2.605-0.209-0.174,3.529-1.984,1.986c4.111,6.48,10.199,10.984,15.393,16.386c-0.254,2.062-2.096,2.539-2.979,3.969
		c0.117,4.49-2.57,7.956-2.48,12.912c0.059,3.347,1.803,6.292,1.488,9.431c-0.461,4.563-3.299,7.366-4.969,11.418
		c0.186,3.489-1.564,5.051-3.475,6.45c-3.838,6.454-7.338,13.444-12.411,18.372c-1.228,2.057-0.618,0.916-1.228,2.135
		c-0.684,0.836-0.34,0.342-1.633,2.016c-1.031,3.455-1.133,3.967-2.104,7.266c-1.563,5.326-4.712,13.135-4.466,19.859
		c0.359,9.789,2.887,18.504,9.432,22.844c-5.191,4.283-11.275,10.176-14.396,14.895l0.248,0.492l0.246,0.498
		c-0.279,0.41-0.506,0.873-0.713,1.354c8.559-7.5,16.436-15.758,23.521-24.672l-0.875,0.238l-0.578-0.742
		c-2.666-0.525-3.652-4.752-4.469-6.951c-0.98-2.643-2.924-5.643-3.475-7.943c-1.492-6.258,0.932-9.984,0.995-15.393
		c-0.028-0.303-0.073-0.588-0.497-0.496c2.313-0.67,0.457,3.043,0.497,3.977c0.108,2.688,0.665,5.744,0.991,8.439
		c0.104,0.602,0.553,0.307,0.992,0l-0.251-0.746l0.745,0.248c1.26-1.563,0.73-6.211,0.496-7.447
		c1.072-1.063,2.461,4.553,2.479,6.455c4.055,0.771,1.984-3.813,1.984-5.957c2.568,3.561,4.271,7.977,6.953,11.418
		c-1.381,1.666-2.324-1.285-3.477-1.49c-0.73,0.26-1.254,0.732-1.982,0.994c0.305,4.141,2,6.889,4.334,9
		c0.865-1.186,1.717-2.385,2.553-3.592c1.889-2.723,3.707-5.494,5.451-8.316c-2.352-0.68-4.621-1.311-6.877-1.064
		c-2.527-5.443-9.002-13.1-5.459-19.859c-2.217-0.146-0.02-4.992-0.494-7.941c2.113,5.551,1.221,16.107,6.451,20.854l0.254-0.75
		l0.74,0.246c0.266-0.016,0.633-0.088,0.496-0.492c-1.803-5.344-4.748-14.096-4.467-20.855c0.055-1.321,0.068-3.281,1.482-3.973
		c-0.891,9.496,1.938,17.371,4.469,22.842c0.99,0.824,0.633-0.043,1.986,0l-0.248-0.744l0.746,0.248
		c0.633,0.023,0.688,0.633,1.486,0.496c-2.346-4.797-5.27-11.578-4.465-17.871c-0.215-0.783-1.564-0.426-0.992-1.988
		c4.787,4.922,4.52,11.906,9.928,15.889c0.408,1.23,0.971,2.307,1.609,3.303c1.65-3.152,3.225-6.35,4.697-9.602
		c-4.748-6.514-8.371-14.962-10.271-22.49c-0.008-0.5-0.875-0.628-0.994,0c-1.77-3.117-1.479-7.671-1.486-10.924
		c3.576,8.951,4.877,20.205,11.908,26.811l-0.174-0.889l0.672-0.604c-1.766-5.024-3.141-10.436-5.463-14.895
		c1.65-0.666,1.406,2,1.986,2.979c1.893,3.188,5.613,6.787,5.963,9.434c0.77,0.047,1.717-0.064,1.484,0.99
		c2.439-4.564-3.986-8.482-5.465-12.41c2.74,1.329,5.232,6.533,6.957,9.432c0.006,0.01,0.02,0.02,0.023,0.027
		c0.721-1.951,1.4-3.925,2.059-5.906c-3.518-5.976-7.818-11.162-12.512-15.961c0.92-1.769,1.973,1.027,2.482,1.487
		c3.809,3.438,7.93,7.663,11.127,11.073c0.281-0.911,0.551-1.83,0.818-2.748c-2.482-4.112-6.391-6.799-8.971-10.807
		c4.352,1.631,6.621,4.142,10.057,6.941c0.297-1.1,0.586-2.199,0.863-3.307c-3.02-3.424-8.115-5.726-11.418-8.603
		c3.895-0.407,7.781,3.472,11.424,4.966c0.227,0.287,0.453,0.555,0.682,0.834c0.205-0.886,0.398-1.777,0.594-2.668
		c-0.279-0.359-0.545-0.736-0.771-1.149c-2.137-0.345-3.045-1.913-4.967-2.482c2.381-0.772,4.338,0.263,6.205,1.503
		c0.197-0.962,0.377-1.929,0.563-2.896c-1.07-0.554-2.199-1.05-3.289-1.584c1.084-0.796,2.35-0.826,3.691-0.536
		c0.217-1.219,0.416-2.443,0.609-3.671c-1.586-0.269-3.215-0.493-4.805-0.759c1.471-0.775,3.252-1.219,5.133-1.416
		C260.071,122.029,260.757,112.902,260.757,103.617z M153.346,263.947c2.058,0.924,4.304,1.652,6.454,2.479
		c-0.768,1.27-5.217,7.314-5.459,5.957c-0.021-0.732-0.248-1.191-0.174-1.758c0.799-1.408,1.479-2.281,2.772-3.348
		c-0.649-1.313-1.521-1.293-3.116-0.303C153.808,266.379,153.141,265.299,153.346,263.947z M53.058,100.6
		c-0.2-0.957-2.272-0.042-1.487-1.984c-2.729,2.238-4.773,5.155-6.456,8.441l0.247,0.744l-0.742-0.247
		c0.147,0.978-0.673,0.983-0.993,1.487c-0.387-0.109-0.579-0.416-0.498-0.994l-0.744,0.25l-0.249-0.746
		c-0.237-0.002-0.675,0.113-0.499,0.496c-2.755-5.957,5.857-13.172,9.434-15.887l-0.246-0.744l0.246-0.746
		c-1.828-0.791,2.01,0.113,0.993-1.489l-0.745-0.579l0.249-0.911c-8.737,1.188-11.018,8.839-16.878,12.908
		c0.688-5.271,5.168-6.747,6.948-10.923c2.528-0.51,2.949-2.719,4.47-3.971c1.075-0.884,2.664-1.057,3.475-1.49
		c9.925-5.307,19.808-6.844,30.285-4.965c1.75,2.717,4.76,4.174,6.453,6.951c-5.013-1.113-11.316-5.232-17.871-6.453
		c-1.088,0.073-1.067,1.25-0.996,2.481c-1.279,0.782-4.158-1.11-4.469,1.489l0.75,0.25l-0.248,0.742
		c1.894-0.073,2.391,1.25,3.971,1.49c9.808-1.724,13.047,4.166,18.371,8.441c-5.479-0.445-12.364-7.419-20.854-5.464
		c-0.757,0.174-0.931,1.231-1.985,0.993c-0.076,1.236,0.778,1.535,0.992,2.481c3.637-1.136,6.122-0.016,9.93,0.497
		c-12.356,4.026-22.065,10.702-26.313,22.84C46.335,110.631,50.364,104.943,53.058,100.6z M65.467,119.961
		c-0.583,0.682-0.367,2.246-0.991,3.475c-0.558,1.092-2.075,2.088-2.481,2.979c-1.649,3.604-2.207,8.479-4.471,12.414
		c-0.64-6.935,4.75-14.775,5.959-19.86l-0.91,0.248l-0.578-0.744c-2.902,1.675-1.892,4.39-4.967,5.461
		c0.594,4.547-2.699,8.663-2.979,13.901c-1.791-9.034,2.039-16.782,5.463-23.332c-0.055-1.758-1.643,1.052-1.489-0.5
		c-4.835,3.123-4.208,9.398-8.439,12.414c-2.246-1.545,0.336-5.627,1.489-6.948c0.733-6.88,6.213-11.313,11.916-14.399
		c3.196-1.729,5.911-3.396,9.432-3.971c4.613-0.753,10.248-1.1,12.412,1.488c-5.019-1.027-11.45,1.972-15.887,4.471l0.743,0.575
		l-0.247,0.911c3.383-0.24,5.934,0.351,8.439,0.992c-2.252,3.226-5.475,5.433-7.942,7.449
		C68.679,118.013,66.172,119.137,65.467,119.961z M81.855,108.547c0.069,1.396-1.217,1.431-2.481,1.488
		C79.145,108.484,80.431,108.449,81.855,108.547z M90.79,167.625c-2.709-1.774,0.34-8.371-0.994-10.424l-0.91,0.235l-0.579-0.744
		c-1.127,0.525-0.19,3.12-0.498,4.466c-4.231,1.137-3.536,7.293-4.468,10.426c-2.135-3.105,2.449-8.041,0-9.928
		c0.809-5.147,2.318-9.594,3.477-14.397l-0.91,0.251l-0.582-0.745c-3.216,2.604-4.142,9.418-5.461,15.392
		c-0.152,0.688-0.953,0.865-0.994,0.992c-0.522,1.846,0.908,5.512-1.488,5.96c0.705-7.676,0.095-18.979,2.977-26.313
		c-0.623,0.109-1.015,0.773-0.99-0.495c-5.256,5.165-4.18,15.394-7.447,20.354l0.248,0.746l-0.248,0.739
		c1.348-0.351-0.355,2.343,0.992,1.989c-0.109,0.384-0.416,0.572-0.992,0.492c0.012,2.832,0.752,2.576,0,4.965
		c-1.963-3.066-1.229-3.987-0.992-7.94c0.163,0,0.33,0,0.496,0l-0.248-0.497l-0.247-0.494c-2.168-4.932-0.2-10.92,0-14.4
		c0.082-1.073-1.761-0.221-2.481-0.494c-0.674-4.818,2.844-7.195,1.486-10.921l-0.745,0.25l0.249-0.744
		c-0.773-0.131-0.346-1.087,0-1.489c0.166,0,0.331,0,0.496,0l-0.247-0.744l0.744,0.248c-0.063-0.889,0.495-1.158,1.491-0.99
		c-1.531-0.621-0.709-3.596-2.482-3.971c2.877-5.895,6.215-11.328,13.404-12.91c-0.682,4.616-7.016,7.875-6.454,15.393
		c1.133-0.525,2.022-0.043,2.981-0.993c0.185-0.187,0.341-1.373,0.496-1.488c1.002-0.754,2.131-0.462,2.978-1.491
		c0.185-0.218,0.211-2.045,0.498-2.481c0.797-1.204,2.116-1.087,2.481-2.481c0.506-0.056,1.002,2.144,1.488,0.498
		c0.538,2.086,1.184,4.969,0.497,6.95c-1.021,2.953-0.478,7.431,2.481,10.427c1.313,0.151,1.285-1.037,1.492-1.986
		c1.013-0.154-0.162,1.951,0,3.97c0.213,0.778,1.562,0.424,0.992,1.985c1.189,0.194-0.277-2.262,1.489-1.488
		C93.2,151.803,91.305,157.865,90.79,167.625z M121.075,126.42c1.707,0.115,2.164,1.477,2.483,2.98
		c-1.194-0.203-1.079,0.906-2.483,0.495C121.075,128.736,121.075,127.578,121.075,126.42z M186.544,10.363
		c-2.555,0.731-5.026,1.564-7.409,2.512C181.206,11.968,183.708,11.101,186.544,10.363z M170.725,32.584
		c0.944,0.932,1.246,0.054,2.481,0C173.089,33.231,170.407,34.55,170.725,32.584z M180.65,30.599c0.591-1.336,2.591,0.002,3.478,0
		C183.65,31.826,182.222,29.912,180.65,30.599z M245.194,46.486c-20.941-8.035-43.906-16.076-68.017-19.363
		c-2.511,3.883-9.323,0.529-12.909,3.476c-4.904-0.812-9.973,0.815-14.398,2.979c-0.517-1.261,1.393-2.168,2.482-2.979
		c3.753-2.79,12.04-6.164,17.873-5.959c2.042,0.235-0.479-1.335,1.49-1.489c23.132-2.744,39.016,4.264,56.598,9.434
		c5.563,4.033,13.066,5.838,19.859,6.453C248.591,42.933,246.343,44.158,245.194,46.486z M213.917,222.238
		c-1.354,0.361-0.998-0.986-1.982-0.992C212.091,220.197,214.284,221.139,213.917,222.238z M212.429,218.766
		c-2.428-0.791-5.008-7.297-4.471-9.93C210.159,211.432,210.347,216.047,212.429,218.766z M214.909,185.004
		c0.188-0.945,0.631,0.316,0.494,0.994C215.216,186.941,214.774,185.68,214.909,185.004z M214.415,192.947c0-0.826,0-1.654,0-2.479
		C215.938,189.707,215.938,193.705,214.415,192.947z M224.837,166.633c-0.947-0.417-1.342-2.18-0.494-2.977
		C225.437,163.718,224.556,165.762,224.837,166.633z M247.177,127.414c-2.029-1,2.979-5.437,4.969-5.959
		C250.78,123.648,247.409,125.634,247.177,127.414z M249.661,109.043c1.039-0.787,2.021-1.619,3.475-1.984
		C252.323,108.063,251.478,109.039,249.661,109.043z"/>
</g>
</svg>
