<?xml version="1.0" encoding="utf-8"?>
<!-- Generator: Adobe Illustrator 15.1.0, SVG Export Plug-In . SVG Version: 6.00 Build 0)  -->
<!DOCTYPE svg PUBLIC "-//W3C//DTD SVG 1.1//EN" "http://www.w3.org/Graphics/SVG/1.1/DTD/svg11.dtd">
<svg version="1.1" id="Layer_1" xmlns="http://www.w3.org/2000/svg" xmlns:xlink="http://www.w3.org/1999/xlink" x="0px" y="0px"
	 width="283.465px" height="283.465px" viewBox="0 0 283.465 283.465" enable-background="new 0 0 283.465 283.465"
	 xml:space="preserve">
<g>
	<path d="M137.519,36.999c-4.65-7.901-12.438-19.419-16.829-23.385c-2.887-2.608-5.428-4.827-7.461-6.527h-9.966
		c3.112,1.789,8.039,5.59,11.774,11.637c2.999,4.856,5.473,13.982,7.04,21.095c-7.06,3.045-15.786,8.644-20.786,17.147
		c9.929-2.785,20.614,0.499,27.262,8.465l3.128,3.749c2.678,3.21,7.048,4.455,11.014,3.138c3.215-1.067,5.688-3.666,6.595-6.931
		l1.433-5.153c1.625-5.849,5.025-11.012,9.687-14.802C154.236,40.18,146.825,37.185,137.519,36.999z"/>
	<path d="M183.034,85.383c-4.764-13.593-9.839-25.086-16.438-33.457c-3.515,2.665-6.078,6.415-7.269,10.699l-1.434,5.154
		c-1.703,6.132-6.347,11.011-12.388,13.016c-7.449,2.475-15.657,0.137-20.685-5.892l-3.128-3.749
		c-4.533-5.432-11.911-7.566-18.644-5.392l-5.496,1.775c-0.037,0.263-0.071,0.529-0.101,0.795c-0.178,1.53-0.352,3.011-0.52,4.449
		c-2.395,20.37-3.814,32.433,3.593,54.742c5.153,15.523,5.704,34.678,3.587,50.878c-13.74,50.578,19.079,97.975,36.036,97.975
		s22.864-35.592,36.604-86.169C189.76,154.761,192.034,111.068,183.034,85.383z"/>
</g>
</svg>
