<?xml version="1.0" encoding="utf-8"?>
<!-- Generator: Adobe Illustrator 15.1.0, SVG Export Plug-In . SVG Version: 6.00 Build 0)  -->
<!DOCTYPE svg PUBLIC "-//W3C//DTD SVG 1.1//EN" "http://www.w3.org/Graphics/SVG/1.1/DTD/svg11.dtd">
<svg version="1.1" xmlns="http://www.w3.org/2000/svg" xmlns:xlink="http://www.w3.org/1999/xlink" x="0px" y="0px"
	 width="283.465px" height="283.465px" viewBox="258.268 258.267 283.465 283.465"
	 enable-background="new 258.268 258.267 283.465 283.465" xml:space="preserve">
<g id="Layer_1">
	<g>
		<path fill="none" d="M445.207,291.927c1.644,0,2.982-1.337,2.982-2.981s-1.339-2.981-2.982-2.981c-1.643,0-2.98,1.337-2.98,2.981
			S443.564,291.927,445.207,291.927z"/>
		<path fill="none" d="M354.794,285.966c-1.644,0-2.982,1.337-2.982,2.981s1.338,2.981,2.982,2.981c1.643,0,2.98-1.337,2.98-2.981
			S356.437,285.966,354.794,285.966z"/>
		<path fill="#020202" d="M400,511.048c-2.794,0-5.545-0.187-8.244-0.542v20.017h8.244v0.001h8.244v-0.001v-20.017
			C405.546,510.861,402.795,511.048,400,511.048z"/>
		<path fill="#020202" d="M355.406,404.152c-6.637-9.106-10.56-20.31-10.56-32.416c0-7.535,1.521-14.722,4.269-21.271
			c-7.386-5.679-15.213-9.662-23.39-11.888c-11.311-3.08-22.713-2.571-32.979,1.47c-16.733,6.588-27.485,21.356-27.39,37.623
			c0.055,9.404,3.779,18.592,10.77,26.568c5.693,6.496,13.443,12.127,23.111,16.8c-4.339,10.835-2.077,23.416,6.7,33.275
			c6.314,7.092,16.028,12.323,26.755,12.323c2.312,0,4.671-0.25,7.053-0.77c-1.633-5.584-2.512-11.485-2.512-17.59
			C337.232,431.093,344.177,415.499,355.406,404.152z"/>
		<path d="M507.255,340.049c-10.265-4.041-21.667-4.55-32.978-1.47c-8.178,2.226-16.005,6.209-23.391,11.888
			c2.747,6.549,4.269,13.735,4.269,21.27c0,12.105-3.924,23.31-10.561,32.416c11.229,11.347,18.174,26.94,18.174,44.127
			c0,6.104-0.879,12.006-2.512,17.59c2.383,0.521,4.742,0.771,7.055,0.771c10.727,0,20.439-5.231,26.754-12.324
			c8.776-9.858,11.039-22.439,6.7-33.274c9.667-4.673,17.417-10.304,23.11-16.8c6.99-7.977,10.714-17.165,10.77-26.569
			C534.74,361.405,523.99,346.637,507.255,340.049z"/>
		<path fill="#211915" d="M373.277,295.047c0.635-1.92,0.984-3.969,0.984-6.1c0-10.735-8.733-19.468-19.468-19.468
			s-19.468,8.733-19.468,19.468s8.733,19.468,19.468,19.468c2.474,0,4.838-0.469,7.017-1.313c4.322,5.777,7.083,13.063,8.438,18.212
			c4.646-2.987,9.768-5.294,15.224-6.785C383.226,311.039,379.246,302.181,373.277,295.047z M354.794,291.927
			c-1.644,0-2.982-1.337-2.982-2.981s1.338-2.981,2.982-2.981s2.98,1.337,2.98,2.981S356.437,291.927,354.794,291.927z"/>
		<path fill="#211915" d="M438.191,307.101c2.179,0.845,4.543,1.313,7.017,1.313c10.735,0,19.469-8.733,19.469-19.468
			s-8.733-19.468-19.469-19.468c-10.734,0-19.468,8.733-19.468,19.468c0,2.131,0.35,4.18,0.984,6.1
			c-5.969,7.134-9.948,15.993-12.195,23.481c5.456,1.491,10.577,3.797,15.223,6.785
			C431.108,320.164,433.868,312.878,438.191,307.101z M445.207,285.966c1.644,0,2.982,1.337,2.982,2.981s-1.339,2.981-2.982,2.981
			s-2.98-1.337-2.98-2.981S443.565,285.966,445.207,285.966z"/>
		<path fill="#211915" d="M400.001,319.445c-28.834,0-52.292,23.458-52.292,52.292c0,11.334,3.626,21.835,9.776,30.41
			c11.19-10.321,26.129-16.636,42.516-16.636c16.388,0,31.326,6.315,42.516,16.636c6.151-8.574,9.776-19.076,9.776-30.41
			C452.292,342.903,428.834,319.445,400.001,319.445z"/>
		<path d="M400,474.113c0-5.826,0-11.716,0-17.587h-59.162c0.862,6.217,2.68,12.132,5.307,17.587H400z"/>
		<path d="M400,490.6h-42.117c10.808,10.758,25.699,17.416,42.117,17.416C400,502.44,400,496.6,400,490.6z"/>
		<path d="M400,440.04c0-5.998,0-11.891,0-17.584h-53.855c-2.626,5.455-4.444,11.368-5.307,17.584H400z"/>
		<path d="M400,405.969c0-6.291,0-12.151,0-17.418c-16.418,0-31.31,6.659-42.118,17.418H400z"/>
		<path fill="#020202" d="M400,405.969L400,405.969h42.393h0.004c0.095,0.095-0.095-0.096,0,0c0.024,0.024-0.024-0.024,0,0h-0.004
			c-10.87-11.075-25.648-17.586-42.393-17.586c0,0.056,0,0.112,0,0.168C400,393.817,400,399.678,400,405.969z"/>
		<path fill="#020202" d="M442.392,490.6h-42.391h0c0,6,0,11.84,0,17.416c0,0.057,0,0.112,0,0.169
			c16.608,0,31.637-6.761,42.486-17.678c-0.03,0.031-0.06,0.063-0.09,0.093H442.392z"/>
		<path fill="#020202" d="M459.212,439.162c-0.957-6.265-2.411-11.238-5.151-16.706c0.161,0.322-0.156-0.326,0,0h-54.06h0
			c0,5.693,0,11.586,0,17.584h0h59.333"/>
		<path fill="#020202" d="M459.334,456.972c-0.016,0.167-0.238,1.539,0-0.445l0,0h-59.333c0,0,0,0,0-0.001h0
			c0,5.871,0,11.761,0,17.587h0h54.058h0.002C457.234,467.485,457.943,464.787,459.334,456.972"/>
		
			<line fill="none" stroke="#FCFCFC" stroke-width="0" stroke-linecap="round" stroke-linejoin="round" x1="454.061" y1="474.113" x2="454.061" y2="474.113"/>
		
			<line fill="none" stroke="#FCFCFC" stroke-width="0" stroke-linecap="round" stroke-linejoin="round" x1="454.059" y1="474.113" x2="454.061" y2="474.113"/>
	</g>
</g>
<g id="Layer_2">
</g>
</svg>
