<?xml version="1.0" encoding="utf-8"?>
<!-- Generator: Adobe Illustrator 15.1.0, SVG Export Plug-In . SVG Version: 6.00 Build 0)  -->
<!DOCTYPE svg PUBLIC "-//W3C//DTD SVG 1.1//EN" "http://www.w3.org/Graphics/SVG/1.1/DTD/svg11.dtd">
<svg version="1.1" id="Layer_1" xmlns="http://www.w3.org/2000/svg" xmlns:xlink="http://www.w3.org/1999/xlink" x="0px" y="0px"
	 width="283.465px" height="283.465px" viewBox="0 0 283.465 283.465" enable-background="new 0 0 283.465 283.465"
	 xml:space="preserve">
<g>
	<path d="M204.342,7.086c-0.004,0.001-0.004,0.001-0.004,0.001H79.134c-6.673,0.007-12.08,5.414-12.087,12.087v245.125
		c0.021,6.666,5.422,12.062,12.087,12.08h125.213c6.664-0.02,12.061-5.424,12.07-12.09V19.183
		C216.428,12.508,211.018,7.091,204.342,7.086z M141.732,15.435c2.087,0,3.78,1.692,3.78,3.78c0,2.087-1.693,3.78-3.78,3.78
		c-2.088,0-3.78-1.692-3.78-3.78C137.952,17.127,139.645,15.435,141.732,15.435z M202.975,230.482v29.25H80.53v-8.645v-0.284
		v-20.321v-7.819V41.236v-7.188v-1.219v-1.097h122.444V230.482z"/>
	<circle cx="141.733" cy="245.232" r="4.729"/>
	<polygon points="111.676,250.49 111.676,239.975 102.57,245.232 	"/>
	<polygon points="171.789,250.49 180.895,245.232 171.789,239.975 	"/>
</g>
</svg>
