<?xml version="1.0" encoding="utf-8"?>
<!-- Generator: Adobe Illustrator 15.1.0, SVG Export Plug-In . SVG Version: 6.00 Build 0)  -->
<!DOCTYPE svg PUBLIC "-//W3C//DTD SVG 1.1//EN" "http://www.w3.org/Graphics/SVG/1.1/DTD/svg11.dtd">
<svg version="1.1" id="Layer_1" xmlns="http://www.w3.org/2000/svg" xmlns:xlink="http://www.w3.org/1999/xlink" x="0px" y="0px"
	 width="283.465px" height="283.465px" viewBox="0 0 283.465 283.465" enable-background="new 0 0 283.465 283.465"
	 xml:space="preserve">
<g>
	<path fill="none" d="M141.729,240.857c-0.005,0-0.012,0-0.019,0c-7.353,0.021-13.297,5.998-13.278,13.352
		c0.019,7.352,5.995,13.293,13.348,13.273c7.353-0.02,13.298-5.992,13.279-13.348C155.003,246.807,149.059,240.885,141.729,240.857z
		"/>
	<polygon fill="none" points="80.53,32.829 80.53,222.663 80.53,230.482 202.975,230.482 202.975,24.232 80.53,24.232 	"/>
	<path d="M204.342,7.086c-0.004,0.001-0.004,0.001-0.004,0.001H79.134c-6.673,0.007-12.08,5.414-12.087,12.087v245.125
		c0.021,6.666,5.422,12.063,12.087,12.08h125.214c6.664-0.02,12.061-5.424,12.069-12.09V19.183
		C216.428,12.508,211.018,7.091,204.342,7.086z M141.732,12.03c2.087,0,3.78,1.692,3.78,3.78c0,2.087-1.693,3.78-3.78,3.78
		c-2.088,0-3.78-1.692-3.78-3.78C137.952,13.723,139.645,12.03,141.732,12.03z M141.78,267.482
		c-7.353,0.02-13.329-5.922-13.348-13.273c-0.019-7.354,5.925-13.331,13.278-13.352c0.007,0,0.014,0,0.019,0
		c7.33,0.027,13.274,5.949,13.33,13.277C155.078,261.49,149.133,267.463,141.78,267.482z M202.975,230.482H80.53v-7.819V32.829
		v-8.597h122.445V230.482z"/>
</g>
</svg>
