<?xml version="1.0" encoding="utf-8"?>
<!-- Generator: Adobe Illustrator 15.1.0, SVG Export Plug-In . SVG Version: 6.00 Build 0)  -->
<!DOCTYPE svg PUBLIC "-//W3C//DTD SVG 1.0//EN" "http://www.w3.org/TR/2001/REC-SVG-20010904/DTD/svg10.dtd">
<svg version="1.0" id="Layer_1" xmlns="http://www.w3.org/2000/svg" xmlns:xlink="http://www.w3.org/1999/xlink" x="0px" y="0px"
	 width="283.465px" height="283.465px" viewBox="-126.732 -126.732 283.465 283.465"
	 enable-background="new -126.732 -126.732 283.465 283.465" xml:space="preserve">
<path d="M-81.733-117.441c-2.854-2.854-7.483-2.854-10.33,0c-3.701,3.713-8.052,8.058-8.052,8.058l64.479,64.479
	c0,0,4.351-4.345,8.052-8.046c2.853-2.853,2.853-7.483,0-10.336C-39.666-75.361-69.658-105.366-81.733-117.441z M-102.245-107.403
	c-0.711,0.718-2.08,2.142-2.08,2.142c-34.474,34.474-8.807,116.128,57.293,182.228c66.101,66.101,147.754,91.762,182.216,57.3
	c0,0,1.374-1.387,2.104-2.116L72.823,67.658C62.512,77.982,58.18,92.007,59.801,105.425C35.02,90.521,8.784,70.308-15.8,45.725
	c-24.578-24.578-44.804-50.826-59.713-75.62c13.424,1.622,27.443-2.711,37.748-13.016L-102.245-107.403z M93.347,57.607
	c-2.872-2.847-7.489-2.847-10.336,0c-3.701,3.714-8.059,8.07-8.059,8.07l64.491,64.479c0,0,4.345-4.345,8.059-8.046
	c2.859-2.859,2.859-7.489,0-10.336C135.408,99.694,105.403,69.688,93.347,57.607z"/>
</svg>
