<?xml version="1.0" encoding="utf-8"?>
<!-- Generator: Adobe Illustrator 15.1.0, SVG Export Plug-In . SVG Version: 6.00 Build 0)  -->
<!DOCTYPE svg PUBLIC "-//W3C//DTD SVG 1.0//EN" "http://www.w3.org/TR/2001/REC-SVG-20010904/DTD/svg10.dtd">
<svg version="1.0" id="Layer_1" xmlns="http://www.w3.org/2000/svg" xmlns:xlink="http://www.w3.org/1999/xlink" x="0px" y="0px"
	 width="283.465px" height="283.465px" viewBox="-126.732 -126.732 283.465 283.465"
	 enable-background="new -126.732 -126.732 283.465 283.465" xml:space="preserve">
<path d="M-57.527-61.759H30.58c3.313,0,6.02-2.701,6.02-6.024s-2.706-6.025-6.02-6.025h-88.107c-3.319,0-6.02,2.701-6.02,6.025
	S-60.846-61.759-57.527-61.759z M-23.521-23.35H77.896c3.334,0,6.04-2.696,6.04-6.02s-2.706-6.024-6.04-6.024H-23.521
	c-3.333,0-6.025,2.701-6.025,6.024S-26.854-23.35-23.521-23.35z M-51.551-41.371c6.628,0,11.996,5.373,11.996,12
	c0,6.613-5.368,11.996-11.996,11.996c-6.618,0-11.985-5.382-11.985-11.996C-63.547-35.988-58.179-41.371-51.551-41.371z
	 M76.249,20.843c0.51-0.706,1.098-1.393,1.745-2.039l5.687-5.677c-0.745-2.5-3.06-4.329-5.785-4.329H-23.521
	c-3.333,0-6.025,2.701-6.025,6.024s2.701,6.02,6.025,6.02H76.249z M-51.551,2.827c6.628,0,11.996,5.368,11.996,11.996
	c0,6.618-5.368,11.981-11.996,11.981c-6.618,0-11.985-5.363-11.985-11.981C-63.547,8.195-58.179,2.827-51.551,2.827z M87.229,28.02
	c-1.706,1.706-1.706,4.441,0,6.138c2.206,2.196,4.784,4.784,4.784,4.784l38.306-38.305c0,0-2.578-2.579-4.774-4.78
	c-1.706-1.696-4.451-1.696-6.138,0C112.23,3.038,94.406,20.862,87.229,28.02z M-23.521,64.825H77.896c3.334,0,6.04-2.696,6.04-6.021
	c0-3.323-2.706-6.02-6.04-6.02H-23.521c-3.333,0-6.025,2.696-6.025,6.02C-29.545,62.129-26.854,64.825-23.521,64.825z
	 M-51.551,46.824c6.628,0,11.996,5.373,11.996,11.98c0,6.618-5.368,11.981-11.996,11.981c-6.618,0-11.985-5.363-11.985-11.981
	C-63.537,52.197-58.179,46.824-51.551,46.824z M56.395,97.022H37.061c2.873,2.961,5.226,6.235,6.99,9.726
	c2.206-1.598,4.402-3.274,6.589-5.02C52.571,100.209,54.483,98.649,56.395,97.022z M-0.211,97.022h-23.31
	c-3.333,0-6.025,2.706-6.025,6.029c0,3.324,2.701,6.029,6.025,6.029h11.275L-0.211,97.022z M-51.551,91.052
	c6.628,0,11.996,5.372,11.996,11.99c0,6.628-5.368,12.001-11.996,12.001c-6.618,0-11.985-5.373-11.985-12.001
	C-63.547,96.424-58.179,91.052-51.551,91.052z M-16.766,132.033c-1.696,1.696-1.696,4.441,0,6.138
	c2.201,2.206,4.78,4.794,4.78,4.794l38.301-38.314c0,0-2.579-2.589-4.795-4.785c-1.685-1.696-4.425-1.696-6.118,0
	C8.235,107.042-9.584,124.856-16.766,132.033z M-10.799,144.22c0.421,0.432,1.265,1.235,1.265,1.235
	c20.491,20.481,68.999,5.236,108.254-34.04c39.267-39.276,54.532-87.778,34.041-108.259c0,0-0.823-0.824-1.255-1.255L93.2,40.196
	c6.128,6.138,14.461,8.706,22.442,7.745c-8.863,14.746-20.874,30.335-35.473,44.924c-14.599,14.608-30.197,26.619-44.942,35.472
	c0.98-7.98-1.608-16.295-7.735-22.412L-10.799,144.22z M119.329,108.277c-3.55,4.196-7.344,8.334-11.393,12.363
	c-2.354,2.363-4.756,4.647-7.177,6.854v8.49h-9.991c-9.393,7.471-19.001,13.687-28.423,18.579h47.708
	c5.118,0,9.275-4.157,9.275-9.284V108.277L119.329,108.277z M-18.883,154.554l-2.068-2.127l-5.049-5.03
	c-3.172-3.156-4.858-7.274-5.069-11.412h-49.335v-240.632H50.365v43.379c0,3.888,3.138,7.03,7.02,7.03h43.375v50.276l9.412-9.407
	c2.598-2.588,5.804-4.196,9.157-4.809v-43.1c0-2.461-0.971-4.819-2.716-6.564l-52.669-52.668c-1.735-1.735-4.089-2.721-6.56-2.721
	H-89.68c-5.132,0-9.29,4.167-9.29,9.285V145.26c0,5.127,4.157,9.284,9.29,9.284h70.797V154.554z"/>
</svg>
