<?xml version="1.0" encoding="utf-8"?>
<!-- Generator: Adobe Illustrator 15.1.0, SVG Export Plug-In . SVG Version: 6.00 Build 0)  -->
<!DOCTYPE svg PUBLIC "-//W3C//DTD SVG 1.1//EN" "http://www.w3.org/Graphics/SVG/1.1/DTD/svg11.dtd">
<svg version="1.1" id="Layer_1" xmlns="http://www.w3.org/2000/svg" xmlns:xlink="http://www.w3.org/1999/xlink" x="0px" y="0px"
	 width="283.46px" height="283.46px" viewBox="0 0 283.46 283.46" enable-background="new 0 0 283.46 283.46" xml:space="preserve">
<g id="Layer_3">
</g>
<g>
	<path d="M105.543,128.05c0.156-6.463,0.405-12.602,0.745-18.41c-12.1,0.928-22.996,2.33-32.646,4.102
		c4.432,6.643,11.117,14.968,21.156,25.965C98.163,135.944,101.739,132.06,105.543,128.05z"/>
	<path d="M98.205,143.402c2.238,2.407,4.634,4.939,7.183,7.594c-0.018-2.351-0.031-4.748-0.031-7.25
		c0-2.812,0.019-5.558,0.052-8.257C102.912,138.176,100.511,140.815,98.205,143.402z"/>
	<path d="M124.727,108.635c-4.612,0.154-9.083,0.371-13.406,0.648c-0.261,4.305-0.471,8.774-0.63,13.404
		c2.184-2.246,4.431-4.527,6.751-6.848C119.967,113.315,122.393,110.917,124.727,108.635z"/>
	<path d="M91.544,143.382c-12.983-14.31-19.745-23.314-23.43-28.56c-62.765,13.1-66.559,42.55,2.615,54.556
		C76.392,161.485,83.27,152.833,91.544,143.382z"/>
	<path d="M76.237,170.275c8.804,1.337,18.681,2.406,29.644,3.15c-0.178-4.643-0.319-9.686-0.409-15.198
		c-3.865-4.001-7.355-7.701-10.524-11.131C87.729,155.373,81.509,163.108,76.237,170.275z"/>
	<path d="M170.285,68.812c-12.892-62.788-42.044-67.427-54.324-0.19c8.237,5.909,17.402,13.254,27.582,22.256
		C156.412,79.225,164.946,72.644,170.285,68.812z"/>
	<path d="M171.302,117.112c1.671,1.67,3.313,3.344,4.932,5.017c-0.174-4.451-0.408-8.765-0.697-12.941
		c-4.091-0.215-8.367-0.39-12.818-0.524C165.516,111.373,168.375,114.185,171.302,117.112z"/>
	<path d="M157.896,104.044c6.068,0.138,11.835,0.351,17.305,0.638c-0.906-11.184-2.219-21.319-3.854-30.37
		c-6.318,4.365-14.111,10.691-24.146,19.833C150.653,97.26,154.212,100.55,157.896,104.044z"/>
	<path d="M140.211,93.917c-9.261-8.185-17.598-14.92-25.094-20.4c-1.497,9.229-2.691,19.698-3.512,31.423
		c5.806-0.427,11.772-0.732,17.871-0.907C133.321,100.334,136.905,96.96,140.211,93.917z"/>
	<path d="M136.772,103.887c1.569-0.017,3.142-0.029,4.725-0.03c3.325,0,6.547,0.027,9.713,0.068c-2.504-2.339-4.945-4.581-7.33-6.73
		C141.619,99.293,139.257,101.512,136.772,103.887z"/>
	<path d="M72.979,174.803c-40.29,57.268-16.867,75.39,36.636,40.43c-1.11-6.547-2.63-17.793-3.522-36.778
		C93.556,177.626,82.571,176.376,72.979,174.803z"/>
	<path d="M116.15,169.085c-1.957-1.957-3.818-3.84-5.629-5.683c0.071,3.63,0.162,7.08,0.274,10.33
		c3.418,0.195,6.936,0.361,10.556,0.494C119.637,172.548,117.907,170.843,116.15,169.085z"/>
	<path d="M165.976,174.392c3.479-0.08,6.756-0.184,9.873-0.303c0.162-3.236,0.301-6.577,0.412-10.035
		c-2.219,2.275-4.486,4.581-6.846,6.941C168.27,172.141,167.123,173.27,165.976,174.392z"/>
	<path d="M189.635,143.234c-2.733-3.127-5.601-6.311-8.604-9.548c0.049,2.583,0.075,5.185,0.076,7.809
		c0,3.807-0.031,7.492-0.085,11.09C184.048,149.371,186.916,146.255,189.635,143.234z"/>
	<path d="M180.893,159.253c-0.127,5.104-0.313,9.973-0.546,14.646c13.566-0.639,23.539-1.685,31.076-3.077
		c-5.278-7.552-11.543-15.634-18.828-24.165C188.955,150.699,185.055,154.898,180.893,159.253z"/>
	<path d="M141.73,7.085C67.368,7.085,7.085,67.368,7.085,141.73S67.368,276.375,141.73,276.375s134.645-60.282,134.645-134.645
		S216.092,7.085,141.73,7.085z M48.787,70.189c-0.03,0.967-0.029,1.937,0.01,2.904C48.655,73.235,48.561,72.054,48.787,70.189z
		 M125.606,259.246c0.656,0.709,1.34,1.396,2.045,2.059C126.173,260.146,125.406,259.246,125.606,259.246z M259.248,159.358
		c0.709-0.655,1.396-1.339,2.058-2.043C260.147,158.792,259.248,159.56,259.248,159.358z M219.113,113.961
		c-6.148,8.728-13.947,18.527-23.66,29.498c7.601,9.086,14.328,18.01,20.063,26.524c5.028-1.151,8.791-2.496,11.791-4.004
		c6.521-3.276,18.84-8.763,19.586-1.207c1.14,11.496-21.228,8.781-24.642,9.297c-0.799,0.121-1.969,0.359-3.608,0.669
		c17.778,27.706,24.428,50.391,15.772,59.047c-7.894,7.894-26.439,7.953-59.002-14c-10.648,57.122-33.764,54.674-47.762,41.52
		c7.408,5.802,32.698,18.054,43.733-44.299c-8.403-5.926-17.685-13.252-27.902-22.205c-9.735,8.166-19.284,15.326-28.35,21.348
		c1.119,4.709,2.41,8.289,3.853,11.16c3.277,6.516,8.758,18.84,1.207,19.586c-11.496,1.136-8.781-21.227-9.297-24.645
		c-0.105-0.695-0.3-1.674-0.553-2.996c-27.046,17.084-49.095,23.355-57.599,14.852c-7.994-7.994-7.953-26.911,14.847-60.247
		c-39.785-7.446-53.217-20.81-53.217-32.125c0-12.054,20.111-23.231,51.429-30.273c-0.516-0.761-0.924-1.362-1.247-1.801
		c-2.05-2.781-19.785-16.676-10.851-24c5.867-4.812,10.703,7.774,12.996,14.703c0.95,2.874,2.438,6.094,4.729,9.902
		c10.67-2.142,22.481-3.821,35.129-4.922c0.909-13.402,2.301-25.013,4.056-35.035c-51.507-35.832-60.693-9.434-61.827-0.118
		c0.594-19.144,15.13-37.168,62.721-4.691c7.517-38.167,20.609-51.128,31.723-51.128c12.137,0,23.387,20.393,30.418,52.085
		c1.48-1.012,2.538-1.709,3.219-2.21c2.785-2.051,16.676-19.785,24-10.851c4.813,5.867-7.772,10.707-14.703,12.996
		c-3.23,1.069-6.897,2.815-11.348,5.622c1.994,10.054,3.577,21.11,4.656,32.913c14.638,0.892,27.089,2.312,37.609,4.142
		c34.576-50.443,8.479-59.468-0.754-60.59c-0.965-0.03-1.931-0.029-2.895,0.01c-0.143-0.142,1.034-0.236,2.895-0.01
		c18.977,0.587,36.851,14.876,5.535,61.478c54.969,10.818,52.434,33.537,39.441,47.36
		C267.041,149.992,279.087,125.189,219.113,113.961z"/>
	<path d="M180.853,126.982c4.074,4.351,7.968,8.699,11.669,13.018c8.853-10.008,16.002-18.934,21.717-26.892
		c-9.667-1.59-21.036-2.85-34.377-3.671C180.313,115.132,180.645,120.992,180.853,126.982z"/>
	<path d="M176.344,214.408c56.806,39.444,74.226,15.192,38.243-38.949c-6.436,1.066-17.112,2.463-34.508,3.334
		C179.263,192.501,177.986,204.301,176.344,214.408z"/>
	<path d="M110.994,178.751c0.649,14.799,1.765,25.455,3.275,33.356c8.076-5.56,16.774-12.267,25.992-20.159
		c-4.359-3.893-8.884-8.074-13.576-12.561C121.214,179.244,115.989,179.029,110.994,178.751z"/>
	<path d="M147.335,191.52c8.963,7.821,17.291,14.467,24.951,20.013c1.422-9.277,2.547-20.052,3.293-32.531
		c-4.522,0.188-9.479,0.34-14.867,0.445C156.244,183.666,151.775,187.694,147.335,191.52z"/>
	<path d="M128.741,174.448c4.835,0.114,9.833,0.175,15.006,0.175c5.58,0,10.777-0.039,15.66-0.11
		c2.254-2.173,4.527-4.402,6.827-6.701c3.578-3.578,6.966-7.039,10.203-10.408c0.11-5.073,0.168-10.37,0.168-15.908
		c0-4.337-0.056-8.56-0.157-12.679c-2.679-2.806-5.449-5.647-8.326-8.524c-4.172-4.171-8.184-8.083-12.07-11.793
		c-4.662-0.092-9.506-0.141-14.554-0.141c-3.213,0-6.361,0.031-9.454,0.088c-3.48,3.378-7.157,7.002-11.074,10.919
		c-3.657,3.656-7.147,7.231-10.483,10.73c-0.095,4.414-0.146,8.957-0.146,13.648c0,4.373,0.025,8.502,0.069,12.44
		c2.903,2.974,5.98,6.089,9.263,9.372C122.752,168.636,125.774,171.595,128.741,174.448z M143.289,125.964
		c10.555,0,19.125,8.567,19.125,19.125c0,10.555-8.57,19.125-19.125,19.125c-10.559,0-19.125-8.57-19.125-19.125
		C124.164,134.531,132.73,125.964,143.289,125.964z"/>
	<path d="M143.748,179.609c-3.292,0-6.502-0.023-9.644-0.068c3.401,3.186,6.725,6.223,9.968,9.105
		c3.282-2.883,6.627-5.916,10.028-9.096C150.802,179.587,147.357,179.608,143.748,179.609z"/>
	<path d="M133.209,144.627c1.786-0.124,2.855-4.45,4.726-6.832c2.628-3.352,9.761-4.895,5.762-7.785
		c-0.409-0.296-0.919-0.419-1.491-0.412c-2.48,0.03-6.135,2.517-7.833,4.072c-2.27,2.074-4.301,8.25-2.864,9.938
		C132.153,144.368,132.709,144.663,133.209,144.627z"/>
</g>
</svg>
