<?xml version="1.0" encoding="utf-8"?>
<!-- Generator: Adobe Illustrator 15.1.0, SVG Export Plug-In . SVG Version: 6.00 Build 0)  -->
<!DOCTYPE svg PUBLIC "-//W3C//DTD SVG 1.0//EN" "http://www.w3.org/TR/2001/REC-SVG-20010904/DTD/svg10.dtd">
<svg version="1.0" id="Layer_2" xmlns="http://www.w3.org/2000/svg" xmlns:xlink="http://www.w3.org/1999/xlink" x="0px" y="0px"
	 width="283.46px" height="283.46px" viewBox="0 0 283.46 283.46" enable-background="new 0 0 283.46 283.46" xml:space="preserve">
<g>
	<path fill="none" d="M184.375,57.146c-4.484-12.721-13.286-22.263-29.402-26.46c-0.7-0.185-1.438-0.072-2.051,0.301
		c-0.614,0.369-1.05,0.978-1.213,1.688c-0.779,3.413-2.107,9.353-2.867,12.764c-0.302,1.396,0.546,2.778,1.93,3.147
		c8.619,2.052,12.459,5.561,15.593,13.866c0.499,1.248,1.845,1.919,3.138,1.573c3.36-0.869,9.475-2.497,12.991-3.431
		c0.721-0.185,1.342-0.662,1.692-1.318C184.544,58.624,184.612,57.852,184.375,57.146z"/>
	<path fill="#231F20" d="M141.732,21.258c-29.88,0-54.1,24.222-54.1,54.1c0,24.454,16.229,45.108,38.503,51.805v55.161v79.879
		h31.191v-79.879v-55.16c22.274-6.697,38.502-27.352,38.502-51.805C195.831,45.479,171.611,21.258,141.732,21.258z M182.494,60.594
		c-3.517,0.935-9.631,2.563-12.991,3.431c-1.293,0.346-2.639-0.325-3.138-1.573c-3.134-8.306-6.974-11.814-15.593-13.866
		c-1.384-0.369-2.231-1.751-1.93-3.147c0.76-3.411,2.088-9.351,2.867-12.764c0.163-0.71,0.599-1.319,1.213-1.688
		c0.613-0.373,1.351-0.486,2.051-0.301c16.116,4.198,24.918,13.739,29.402,26.46c0.236,0.705,0.169,1.478-0.189,2.129
		C183.835,59.932,183.214,60.409,182.494,60.594z"/>
</g>
</svg>
