<?xml version="1.0" encoding="utf-8"?>
<!-- Generator: Adobe Illustrator 15.1.0, SVG Export Plug-In . SVG Version: 6.00 Build 0)  -->
<!DOCTYPE svg PUBLIC "-//W3C//DTD SVG 1.1//EN" "http://www.w3.org/Graphics/SVG/1.1/DTD/svg11.dtd">
<svg version="1.1" id="Layer_1" xmlns:serif="http://www.serif.com/"
	 xmlns="http://www.w3.org/2000/svg" xmlns:xlink="http://www.w3.org/1999/xlink" x="0px" y="0px" width="283.46px"
	 height="283.46px" viewBox="0 0 283.46 283.46" enable-background="new 0 0 283.46 283.46" xml:space="preserve">
<path d="M139.42,98.344c-10.093-1.146-17.949-9.727-17.949-20.128c0-11.182,9.079-20.259,20.258-20.259
	c11.182,0,20.26,9.077,20.26,20.259c0,10.401-7.854,18.981-17.949,20.128v112.957c0,0.797-0.07,1.596-0.21,2.381
	c-0.569,3.205-2.101,11.82-2.101,11.82s-1.527-8.615-2.097-11.82c-0.14-0.785-0.212-1.584-0.212-2.381V98.344L139.42,98.344z
	 M147.364,62.519c-0.225-0.059-0.462-0.023-0.66,0.097c-0.196,0.119-0.338,0.315-0.389,0.543c-0.25,1.097-0.678,3.007-0.922,4.104
	c-0.096,0.449,0.176,0.894,0.621,1.012c2.77,0.66,4.006,1.788,5.014,4.459c0.16,0.401,0.592,0.617,1.009,0.506
	c1.079-0.279,3.046-0.803,4.178-1.104c0.231-0.059,0.43-0.212,0.543-0.423c0.114-0.21,0.136-0.458,0.06-0.685
	C155.377,66.937,152.547,63.869,147.364,62.519L147.364,62.519z"/>
</svg>
