<?xml version="1.0" encoding="utf-8"?>
<!-- Generator: Adobe Illustrator 15.1.0, SVG Export Plug-In . SVG Version: 6.00 Build 0)  -->
<!DOCTYPE svg PUBLIC "-//W3C//DTD SVG 1.0//EN" "http://www.w3.org/TR/2001/REC-SVG-20010904/DTD/svg10.dtd">
<svg version="1.0" id="Layer_2" xmlns="http://www.w3.org/2000/svg" xmlns:xlink="http://www.w3.org/1999/xlink" x="0px" y="0px"
	 width="283.465px" height="283.465px" viewBox="0 0 283.465 283.465" enable-background="new 0 0 283.465 283.465"
	 xml:space="preserve">
<g>
	<path fill="none" d="M168.616,182.011c-0.195-0.515-0.431-0.999-0.653-1.513C168.205,181.012,168.421,181.496,168.616,182.011z"/>
	<path fill="none" d="M208.013,182.393c-0.094-0.024-0.185-0.051-0.279-0.074c-0.049-0.006-0.094-0.013-0.141-0.02
		c0.042,0.006,0.077,0.014,0.12,0.02C207.816,182.344,207.912,182.367,208.013,182.393z"/>
	<path fill="none" d="M206.501,182.122c0.046,0.012,0.103,0.016,0.15,0.024c-0.043-0.009-0.091-0.015-0.132-0.024l-14.138-1.307
		c-10.572-0.961-23.3-2.109-23.3-2.118c0,0.001-0.001,0.001-0.001,0.002c0.366,0.041,12.884,1.17,23.282,2.116L206.501,182.122z"/>
	<path fill="none" d="M146.869,176.72c0.116,0.262,0.229,0.517,0.344,0.773c-0.115-0.263-0.229-0.515-0.344-0.793l-34.722-3.145
		l-1.558,4.087l1.558-4.068L146.869,176.72z"/>
	<path fill="none" d="M209.393,182.757c-0.005-0.001-0.01-0.004-0.015-0.005c0.149,0.989,0.296,1.934,0.491,2.875
		c0.003,0.001,0.006,0.002,0.009,0.004C209.692,184.698,209.534,183.728,209.393,182.757z"/>
	<path fill="none" d="M50.066,162.9l0.346,0.019c11.953-38.781,56.986-72.169,121.377-89.949
		c-4.563-12.984-10.265-20.188-17.637-18.957C79.553,74.611,27.125,113.095,12.438,157.898
		C24.638,154.092,36.937,156.089,50.066,162.9z"/>
	<path fill="none" d="M51.349,167.809c-0.029,0.007-0.059,0.006-0.088,0.012c0.031-0.006,0.063-0.005,0.093-0.011L51.349,167.809z"
		/>
	<path fill="none" d="M230.016,193.404c0.494-0.438,1.018-0.821,1.334-1.055C231.014,192.582,230.511,192.966,230.016,193.404z"/>
	<path fill="none" d="M26.362,161.396c-4.266,0.056-8.48,0.911-12.641,2.661c-0.04,0.017-0.081,0.022-0.12,0.039
		c0.042-0.016,0.087-0.022,0.129-0.039C17.885,162.308,22.097,161.451,26.362,161.396z"/>
	<path fill="none" d="M12.169,164.429c-0.005,0-0.01,0.002-0.016,0.002l1.307,5.905l77.291,5.833
		c-0.006-0.021-0.014-0.038-0.02-0.06l-77.262-5.791L12.169,164.429z"/>
	<path fill="none" d="M147.883,179.216c0.056,0.169,0.109,0.335,0.156,0.481C147.992,179.551,147.938,179.386,147.883,179.216z"/>
	<path fill="none" d="M107.874,135.471c-12,0-21.756,4.013-21.756,8.954c0,4.944,9.747,8.957,21.756,8.957
		c12.014,0,21.761-4.013,21.761-8.957C129.635,139.483,119.879,135.471,107.874,135.471z"/>
	<path fill="none" d="M271.587,223.144c-0.326-0.859-0.625-1.699-0.924-2.558c-11.234-31.466-21.294-63.154-47.123-91.975
		l-47.589-51.093c-61.606,17.024-104.74,48.961-116.292,86.054l-0.131,0.438l32.277,2.249l0.122,0.466l2.151,4.629
		c0.611,1.409,1.25,3.135,1.759,5.151l0.821,4.852c0.299,3.173,0.182,6.877-0.658,11.16c-1.241,6.271,8.855,9.442,8.855-4.815
		l0.443-8.611l0.313-1.644c0.438-1.801,1.031-2.78,1.694-4.581l1.222-4.441l41.763,3.789l1.922,4.89l0.747,3.731l-0.132,0.625
		l-1.138,4.051c-5.734,24.458,18.588,19.979,13.381,0.999l-1.959-5.029c-0.431-1.056-0.058-2.156,0.578-3.332l2.557-4.199
		l0.13-0.261l40.573,3.658l1.688,0.278c2.091,0.179,4.519,0.074,5.086,1.382l0.065,0.242l0.644,5.001l1.644,8.391
		c0.225,1.502,0.316,2.883,0.158,4.208c-2.407,20.695,7.307,15.488,7.307-0.233l0.131-1.391l0.478-1.586l0.521-1.11l0.645-1.036
		c0.541-0.803,1.224-1.549,1.923-2.155l1.382-0.997l1.175-0.589l0.952-0.279l0.737-0.084l0.605,0.047l0.477,0.14l0.383,0.195
		l4.078,2.501c3.451,2.229,6.635,4.508,9.619,6.878l0.841,0.652c2.48,2.007,4.834,4.088,7.045,6.178l2.79,2.725
		c0.484,0.485,0.971,0.989,1.466,1.484l4.638,5.039l3.639,4.264c0.729,0.877,1.438,1.755,2.147,2.632
		C270.011,221.127,270.804,222.136,271.587,223.144z M130.166,152.281c-4.185,3.304-12.564,5.879-22.292,5.879
		c-9.723,0-18.103-2.557-22.288-5.879c-2.907-2.296-4.246-5.086-4.246-7.855c0-2.772,1.339-5.563,4.246-7.854
		c4.185-3.327,12.574-5.878,22.302-5.878c9.723,0,18.093,2.552,22.292,5.878c2.893,2.291,4.231,5.081,4.231,7.854
		C134.412,147.195,133.073,149.985,130.166,152.281z M136.237,116.426c-2.897-2.301-4.232-5.081-4.232-7.854
		c0-2.771,1.325-5.552,4.232-7.852c4.194-3.327,12.56-5.879,22.292-5.879c9.731,0,18.11,2.552,22.302,5.879
		c2.901,2.3,4.227,5.081,4.227,7.852c0,2.771-1.324,5.552-4.227,7.854c-4.191,3.325-12.569,5.879-22.302,5.879
		C148.796,122.305,140.43,119.751,136.237,116.426z M202.582,149.23c-4.189,3.33-12.561,5.878-22.302,5.878
		c-9.732,0-18.104-2.548-22.283-5.878c-2.894-2.301-4.246-5.082-4.246-7.854c0-2.771,1.335-5.552,4.246-7.856
		c4.171-3.322,12.551-5.874,22.283-5.874c9.741,0,18.111,2.552,22.302,5.874c2.902,2.305,4.255,5.095,4.236,7.856
		C206.818,144.14,205.484,146.93,202.582,149.23z M255.631,192.666c-1.139,1.12-4.152,2.911-7.288-0.336
		c-0.914-0.971-2.995-4.181-6.027-7.166c-2.229-2.202-5.059-4.433-8.558-4.433c-9.658,0-17.972-2.146-22.144-5.216
		c-2.985-2.185-4.387-4.929-4.387-7.782c0-3.584,1.783-6.047,5.524-7.466c3.883-1.465,11.664-1.187,20.632-1.895
		c5.721-0.457,11.076,3.274,15.116,9.023c4.937,7.035,7.997,16.786,8.52,20.342C257.431,190.727,256.144,192.153,255.631,192.666z"
		/>
	<path fill="none" d="M269.161,227.248c0.719,0.793,1.446,1.597,2.193,2.39l0.261-1.539l-0.168-0.179
		C270.644,227.883,269.843,227.668,269.161,227.248z"/>
	<path fill="none" d="M233.758,163.152c-11.963,0.942-21.751-0.364-21.751,4.582c0,4.936,9.752,8.248,21.751,8.248
		c12.01,0,19.224,17.347,18.522,12.467C251.515,183.093,244.256,162.321,233.758,163.152z"/>
	<path fill="none" d="M180.28,132.425c-12,0-21.751,4.012-21.751,8.962c0,4.937,9.751,8.953,21.751,8.953
		c12.019,0,21.778-4.018,21.761-8.953C202.041,136.437,192.29,132.425,180.28,132.425z"/>
	<path fill="none" d="M180.28,108.573c0-4.94-9.742-8.953-21.751-8.953c-11.991,0-21.747,4.013-21.747,8.953
		c0,4.941,9.755,8.954,21.747,8.954C170.519,117.526,180.28,113.515,180.28,108.573z"/>
	<path d="M180.831,116.426c2.901-2.301,4.227-5.081,4.227-7.854c0-2.771-1.324-5.552-4.227-7.852
		c-4.19-3.327-12.569-5.879-22.302-5.879c-9.733,0-18.099,2.553-22.292,5.88c-2.907,2.3-4.232,5.081-4.232,7.852
		c0,2.771,1.334,5.552,4.232,7.854c4.194,3.325,12.56,5.878,22.292,5.878C168.261,122.305,176.64,119.751,180.831,116.426z
		 M136.783,108.573c0-4.94,9.755-8.953,21.747-8.953c12.009,0,21.751,4.013,21.751,8.953c0,4.941-9.762,8.954-21.751,8.954
		C146.538,117.526,136.783,113.515,136.783,108.573z"/>
	<path d="M130.18,136.571c-4.199-3.327-12.569-5.878-22.292-5.878c-9.728,0-18.117,2.552-22.302,5.878
		c-2.907,2.291-4.246,5.081-4.246,7.854c0,2.771,1.339,5.561,4.246,7.855c4.185,3.322,12.564,5.879,22.288,5.879
		c9.728,0,18.107-2.575,22.292-5.879c2.907-2.296,4.246-5.086,4.246-7.855C134.412,141.652,133.073,138.862,130.18,136.571z
		 M107.874,153.382c-12.009,0-21.756-4.013-21.756-8.957c0-4.941,9.756-8.954,21.756-8.954c12.005,0,21.761,4.013,21.761,8.954
		C129.635,149.369,119.888,153.382,107.874,153.382z"/>
	<path d="M275.702,225.587c0.7-1.156,0.896-2.658,0.393-4.067c-11.813-32.855-21.984-65.981-48.99-96.1l-47.646-51.162
		c-0.766-0.83-1.791-1.345-2.893-1.479c-0.028-0.467-0.112-0.948-0.279-1.396c-2.529-7.214-5.44-12.774-8.697-16.404
		c-4.181-4.686-8.958-6.564-14.211-5.678c-0.178,0.027-0.327,0.069-0.486,0.106C75.35,70.81,21.536,111.545,7.297,158.252
		c-0.322,1.047-0.266,2.155,0.116,3.117c-0.336,0.858-0.42,1.801-0.21,2.763l1.596,7.223c0.448,2.071,2.207,3.583,4.307,3.751
		l78.709,5.916c0.364,2.968,0.336,6.467-0.48,10.601c-1.624,8.249,6.299,13.354,12.416,9.93c2.72-1.513,5.911-5.47,5.911-13.812
		c0-2.259,0.051-3.994,0.145-5.375l37.125,2.8c-2.268,10.73,0.742,17.001,4.235,19.718c2.445,1.895,5.375,2.585,8.259,2.09
		c6.057-0.998,13.241-8.165,10.693-20.09l36.364,2.742c1.55,0.41,3.015,0.841,4.479,1.308c0.41,1.939,0.746,3.77,0.55,5.374
		c-0.699,6.011-0.41,10.151,0.252,12.663c0.747,2.901,2.185,4.487,3.453,5.291c1.624,1.045,3.396,1.27,5.244,0.672
		c1.409-0.458,3.117-1.605,4.498-3.788c1.642-2.585,3.163-7.204,3.358-13.271c18.438,9.452,27.51,22.06,39.547,34.982
		c0.914,0.979,2.184,1.521,3.49,1.521c0,0,4.086-0.093,4.722-4.04l0.231-1.466C276.505,227.752,276.28,226.577,275.702,225.587z
		 M154.152,54.014c7.372-1.232,13.072,5.972,17.637,18.957C107.398,90.75,62.365,124.138,50.412,162.918l-0.346-0.019
		c-13.129-6.813-25.428-8.809-37.628-5.002C27.125,113.095,79.553,74.611,154.152,54.014z M90.751,176.169l-77.291-5.833
		l-1.307-5.905c0.005,0,0.01-0.002,0.016-0.002l-0.006-0.026c0.487-0.026,0.969-0.138,1.438-0.307
		c0.04-0.017,0.081-0.022,0.12-0.039c4.16-1.75,8.375-2.605,12.641-2.661c7.109-0.092,14.364,2.039,21.746,5.965
		c0.973,0.517,2.091,0.656,3.154,0.46c0.029-0.006,0.059-0.005,0.088-0.012l0.005,0.001c0.001-0.001,0.003-0.001,0.004-0.001
		l6.238,0.578c0.495,0.224,1.041,0.354,1.605,0.4l11.426,0.804l18.159,1.633c0.602,1.25,1.353,2.874,1.987,4.89l-0.043-0.003
		C90.737,176.131,90.744,176.148,90.751,176.169z M148.172,180.48l-37.583-2.837l1.558-4.087l34.722,3.145
		c0.113,0.278,0.229,0.53,0.344,0.793c0.094,0.211,0.187,0.425,0.282,0.635c0.126,0.313,0.265,0.713,0.388,1.088
		c0.058,0.17,0.109,0.335,0.156,0.481c0.091,0.286,0.16,0.512,0.188,0.596L148.172,180.48z M209.87,185.631
		c-0.84-0.242-1.708-0.485-2.585-0.709l-38.669-2.911c-0.195-0.515-0.411-0.999-0.653-1.513c0.262-0.411,0.672-1.072,1.103-1.801
		c0,0,0.012,0.001,0.018,0.002c0-0.001,0.001-0.001,0.001-0.002c0,0.009,12.728,1.157,23.3,2.118l14.138,1.307
		c0.041,0.011,0.089,0.017,0.132,0.024c0.297,0.06,0.611,0.107,0.941,0.151c0.047,0.007,0.092,0.014,0.141,0.02
		c0.096,0.023,0.187,0.05,0.279,0.074c0.462,0.114,0.918,0.229,1.361,0.336c0.001,0.009,0.003,0.017,0.004,0.023
		c0.005,0.001,0.01,0.003,0.015,0.005c0.142,0.971,0.3,1.94,0.485,2.873c-0.003-0.001-0.006-0.002-0.009-0.003
		C209.87,185.628,209.87,185.629,209.87,185.631z M230.016,193.404c0.494-0.438,0.998-0.821,1.334-1.055
		c15.388,9.201,25.635,20.07,34.666,31.446C255.845,212.458,246.523,201.745,230.016,193.404z M267.061,217.488l-3.639-4.264
		l-4.638-5.039c-0.495-0.495-0.98-0.999-1.466-1.484l-2.79-2.725c-2.211-2.09-4.563-4.171-7.045-6.178l-0.841-0.652
		c-2.984-2.37-6.168-4.647-9.619-6.878l-4.078-2.501l-0.384-0.195l-0.476-0.14l-0.606-0.047l-0.736,0.084l-0.952,0.279l-1.175,0.588
		l-1.382,0.998c-0.699,0.606-1.382,1.354-1.923,2.155l-0.645,1.036l-0.521,1.11l-0.477,1.586l-0.129,1.392
		c0,15.723-9.714,20.93-7.307,0.233c0.158-1.325,0.065-2.706-0.158-4.208l-1.644-8.391l-0.644-5.001l-0.065-0.242
		c-0.567-1.308-2.995-1.203-5.086-1.382l-1.688-0.278l-40.573-3.658l-0.13,0.261l-2.558,4.199c-0.635,1.176-1.008,2.276-0.577,3.332
		l1.959,5.029c5.207,18.979-19.115,23.459-13.382-0.999l1.139-4.051l0.132-0.625l-0.747-3.731l-1.922-4.891l-41.763-3.788
		l-1.222,4.441c-0.663,1.801-1.255,2.78-1.694,4.581l-0.313,1.644l-0.443,8.611c0,14.259-10.097,11.086-8.855,4.815
		c0.84-4.283,0.957-7.987,0.658-11.16l-0.821-4.853c-0.509-2.017-1.148-3.741-1.759-5.15l-2.151-4.629l-0.122-0.466l-32.277-2.249
		l0.131-0.438c11.552-37.092,54.686-69.028,116.292-86.053l47.589,51.094c25.829,28.819,35.889,60.509,47.123,91.975
		c0.299,0.857,0.598,1.697,0.924,2.558c-0.783-1.008-1.576-2.017-2.379-3.023C268.498,219.243,267.789,218.365,267.061,217.488z
		 M271.354,229.638c-0.747-0.793-1.475-1.597-2.193-2.39c0.682,0.42,1.482,0.635,2.286,0.672l0.168,0.179L271.354,229.638z"/>
	<path d="M202.582,133.521c-4.189-3.322-12.561-5.874-22.302-5.874c-9.732,0-18.112,2.552-22.283,5.874
		c-2.911,2.305-4.246,5.085-4.246,7.856s1.354,5.553,4.246,7.854c4.181,3.33,12.551,5.878,22.283,5.878
		c9.741,0,18.111-2.548,22.302-5.878c2.902-2.301,4.236-5.091,4.236-7.854C206.837,138.615,205.484,135.825,202.582,133.521z
		 M180.28,150.34c-12,0-21.751-4.018-21.751-8.953c0-4.95,9.751-8.962,21.751-8.962c12.01,0,21.761,4.012,21.761,8.962
		C202.059,146.323,192.299,150.34,180.28,150.34z"/>
	<path d="M248.501,167.398c-4.04-5.749-9.396-9.48-15.116-9.023c-8.968,0.708-16.749,0.43-20.632,1.895
		c-3.741,1.419-5.524,3.882-5.524,7.466c0,2.854,1.4,5.599,4.387,7.782c4.172,3.069,12.484,5.216,22.144,5.216
		c3.499,0,6.327,2.23,8.558,4.433c3.032,2.985,5.113,6.195,6.027,7.166c3.136,3.247,6.149,1.456,7.288,0.336
		c0.514-0.514,1.801-1.939,1.39-4.927C256.498,184.185,253.437,174.434,248.501,167.398z M233.758,175.982
		c-11.999,0-21.751-3.313-21.751-8.248c0-4.946,9.788-3.64,21.751-4.582c10.498-0.831,17.758,19.94,18.522,25.297
		C252.979,193.328,245.767,175.982,233.758,175.982z"/>
	<path fill="#FFFFFF" d="M88.787,171.224l-18.159-1.633l-11.426-0.804c-0.564-0.046-1.11-0.178-1.605-0.4l-6.238-0.578
		c-0.001,0-0.003,0-0.004,0.001c-0.03,0.006-0.062,0.005-0.093,0.011c-1.063,0.196-2.181,0.057-3.154-0.46
		c-7.381-3.926-14.637-6.057-21.746-5.965c-4.265,0.056-8.477,0.912-12.631,2.661c-0.042,0.017-0.087,0.023-0.129,0.039
		c-0.469,0.169-0.951,0.279-1.438,0.307l0.006,0.026l1.3,5.891l77.262,5.791l0.043,0.003
		C90.14,174.098,89.388,172.474,88.787,171.224z"/>
	<path fill="#FFFFFF" d="M147.883,179.216c-0.123-0.375-0.262-0.774-0.388-1.088c-0.097-0.21-0.188-0.424-0.282-0.635
		c-0.113-0.258-0.228-0.513-0.344-0.773l-34.722-3.146l-1.558,4.068l37.583,2.837l0.056-0.188c-0.027-0.084-0.098-0.31-0.188-0.596
		C147.992,179.551,147.938,179.385,147.883,179.216z"/>
	<path fill="#FFFFFF" d="M209.375,182.729c-0.443-0.106-0.899-0.222-1.361-0.336c-0.102-0.025-0.196-0.049-0.3-0.074
		c-0.043-0.006-0.078-0.014-0.12-0.02c-0.33-0.043-0.646-0.093-0.941-0.151c-0.049-0.01-0.104-0.014-0.15-0.024l-14.137-1.307
		c-10.398-0.946-22.916-2.075-23.282-2.116c-0.006-0.001-0.018-0.002-0.018-0.002c-0.431,0.729-0.841,1.391-1.103,1.801
		c0.224,0.514,0.458,0.998,0.653,1.513l38.669,2.911c0.877,0.224,1.745,0.467,2.585,0.709c0-0.001,0-0.003,0-0.004
		c-0.195-0.941-0.342-1.886-0.491-2.875C209.378,182.744,209.376,182.737,209.375,182.729z"/>
	<path fill="#FFFFFF" d="M231.35,192.35c-0.316,0.232-0.84,0.616-1.334,1.055c16.508,8.342,25.828,19.055,36,30.394
		C256.984,212.42,246.737,201.551,231.35,192.35z"/>
</g>
</svg>
