<?xml version="1.0" encoding="utf-8"?>
<!-- Generator: Adobe Illustrator 15.1.0, SVG Export Plug-In . SVG Version: 6.00 Build 0)  -->
<!DOCTYPE svg PUBLIC "-//W3C//DTD SVG 1.0//EN" "http://www.w3.org/TR/2001/REC-SVG-20010904/DTD/svg10.dtd">
<svg version="1.0" id="Layer_4" xmlns="http://www.w3.org/2000/svg" xmlns:xlink="http://www.w3.org/1999/xlink" x="0px" y="0px"
	 width="283.465px" height="283.465px" viewBox="0 0 283.465 283.465" enable-background="new 0 0 283.465 283.465"
	 xml:space="preserve">
<g>
	<path d="M275.962,221.234c-11.813-32.864-21.983-65.991-48.989-96.104l-47.646-51.16c-0.774-0.835-1.811-1.348-2.902-1.483
		c-0.02-0.471-0.104-0.947-0.271-1.4c-2.528-7.213-5.459-12.775-8.696-16.409c-4.181-4.68-8.958-6.56-14.229-5.678
		c-0.168,0.028-0.326,0.065-0.484,0.107C75.221,70.516,21.397,111.248,7.163,157.965c-0.322,1.045-0.266,2.146,0.117,3.117
		c-0.332,0.857-0.425,1.811-0.215,2.762l1.596,7.223c0.453,2.063,2.207,3.584,4.307,3.742l78.709,5.916
		c0.364,2.959,0.331,6.467-0.481,10.602c-1.624,8.258,6.294,13.371,12.411,9.938c2.725-1.521,5.916-5.468,5.916-13.818
		c0-2.26,0.051-3.994,0.14-5.366l37.125,2.8c-2.269,10.73,0.747,17.012,4.235,19.727c2.445,1.904,5.375,2.566,8.277,2.09
		c6.047-0.988,13.232-8.184,10.693-20.07l36.355,2.732c1.539,0.42,3.022,0.851,4.469,1.299c0.412,1.959,0.748,3.751,0.552,5.373
		c-0.7,6.021-0.41,10.145,0.252,12.674c0.756,2.893,2.185,4.479,3.452,5.281c1.634,1.055,3.416,1.27,5.254,0.682
		c1.419-0.458,3.107-1.605,4.488-3.779c1.643-2.584,3.162-7.203,3.351-13.27c18.438,9.451,27.519,22.061,39.546,34.982
		c0.905,0.971,2.176,1.521,3.499,1.521c0,0,4.078-0.084,4.722-4.04l0.233-1.465c0.196-1.13-0.019-2.296-0.615-3.285
		C276.27,224.137,276.466,222.635,275.962,221.234z M49.928,162.594c-13.129-6.803-25.423-8.8-37.633-5.012
		c14.692-44.786,67.13-83.269,141.725-103.873c7.362-1.236,13.073,5.973,17.627,18.957C107.27,90.452,62.227,123.84,50.273,162.621
		L49.928,162.594z M269.077,219.826c-0.709-0.879-1.418-1.756-2.146-2.633l-3.641-4.282l-4.639-5.039
		c-0.485-0.494-0.971-0.998-1.465-1.493l-2.789-2.725c-2.222-2.1-4.564-4.161-7.056-6.178l-0.84-0.672
		c-2.976-2.361-6.168-4.646-9.61-6.859l-4.078-2.5l-0.383-0.178l-0.477-0.14l-0.605-0.047l-0.738,0.084l-0.951,0.28l-1.176,0.588
		l-1.381,1.008c-0.699,0.615-1.362,1.352-1.922,2.154l-0.645,1.035l-0.523,1.111l-0.466,1.586l-0.131,1.409
		c0,15.714-9.705,20.94-7.297,0.252c0.149-1.325,0.065-2.726-0.149-4.228l-1.643-8.389l-0.653-5.021l-0.073-0.242
		c-0.552-1.307-2.986-1.204-5.086-1.381l-1.689-0.271l-40.572-3.666l-0.121,0.279l-2.548,4.219
		c-0.653,1.166-1.017,2.268-0.569,3.313l1.961,5.039c5.215,18.988-19.121,23.469-13.392-1.008l1.147-4.051l0.121-0.644l-0.746-3.714
		l-1.933-4.891l-41.753-3.779l-1.227,4.451c-0.658,1.802-1.256,2.781-1.694,4.572l-0.317,1.643l-0.438,8.623
		c0,14.248-10.097,11.076-8.86,4.806c0.84-4.283,0.952-7.978,0.658-11.161l-0.821-4.852c-0.504-2.016-1.143-3.723-1.759-5.151
		l-2.151-4.628l-0.122-0.467L59.4,163.723l0.135-0.438c11.557-37.093,54.687-69.024,116.293-86.058l47.59,51.094
		c25.848,28.825,35.898,60.504,47.133,91.979c0.299,0.85,0.606,1.698,0.915,2.559C270.673,221.842,269.88,220.834,269.077,219.826z"
		/>
	<path fill="#FFFFFF" d="M130.043,151.982c-4.194,3.322-12.569,5.879-22.297,5.879s-18.107-2.557-22.297-5.879
		c-2.902-2.299-4.241-5.084-4.241-7.855c0-2.772,1.339-5.557,4.241-7.857c4.19-3.327,12.569-5.874,22.297-5.874
		s18.103,2.547,22.297,5.874c2.898,2.3,4.237,5.085,4.237,7.857C134.28,146.898,132.94,149.684,130.043,151.982z M136.104,116.133
		c-2.902-2.305-4.236-5.085-4.236-7.857s1.334-5.552,4.236-7.857c4.194-3.327,12.568-5.875,22.292-5.875
		c9.732,0,18.112,2.548,22.301,5.875c2.902,2.305,4.238,5.085,4.238,7.857s-1.336,5.552-4.238,7.857
		c-4.189,3.327-12.569,5.874-22.301,5.874C148.673,122.007,140.298,119.46,136.104,116.133z M202.46,148.941
		c-4.198,3.328-12.569,5.879-22.304,5.879c-9.723,0-18.102-2.551-22.291-5.879c-2.902-2.305-4.246-5.09-4.246-7.856
		c0-2.772,1.344-5.557,4.246-7.857c4.189-3.327,12.568-5.879,22.292-5.879c9.733,0,18.104,2.552,22.303,5.879
		c2.892,2.3,4.235,5.086,4.235,7.857C206.695,143.852,205.354,146.637,202.46,148.941z M255.48,192.389
		c-1.139,1.12-4.143,2.893-7.27-0.346c-0.923-0.96-3.163-2.827-6.195-5.813c-2.229-2.192-6.951-5.076-10.451-5.076
		c-9.657,0-15.928-2.846-20.09-5.916c-2.996-2.202-4.377-4.946-4.377-7.801c0-3.574,1.782-6.047,5.523-7.465
		c3.882-1.467,12.925-1.279,20.585-0.767c4.274,0.431,11.198,3.882,13.735,8.063c4.453,7.334,9.426,16.619,9.938,20.192
		C257.3,190.439,255.995,191.875,255.48,192.389z"/>
	<path d="M180.697,116.133c2.902-2.305,4.238-5.085,4.238-7.857s-1.336-5.552-4.238-7.857c-4.188-3.327-12.568-5.875-22.301-5.875
		c-9.725,0-18.099,2.548-22.292,5.875c-2.902,2.305-4.236,5.085-4.236,7.857s1.334,5.552,4.236,7.857
		c4.194,3.327,12.569,5.874,22.292,5.874C168.128,122.007,176.508,119.46,180.697,116.133z"/>
	<path d="M202.46,133.228c-4.198-3.327-12.569-5.879-22.303-5.879c-9.724,0-18.103,2.552-22.292,5.879
		c-2.902,2.3-4.246,5.085-4.246,7.857c0,2.767,1.344,5.552,4.246,7.856c4.189,3.328,12.568,5.879,22.291,5.879
		c9.734,0,18.105-2.551,22.304-5.879c2.894-2.305,4.235-5.09,4.235-7.856C206.695,138.314,205.352,135.528,202.46,133.228z"/>
	<path d="M130.043,136.27c-4.194-3.327-12.569-5.874-22.297-5.874s-18.107,2.547-22.297,5.874c-2.902,2.3-4.241,5.085-4.241,7.857
		c0,2.771,1.339,5.557,4.241,7.855c4.19,3.322,12.569,5.879,22.297,5.879s18.103-2.557,22.297-5.879
		c2.897-2.299,4.237-5.084,4.237-7.855C134.28,141.355,132.941,138.57,130.043,136.27z"/>
	<path d="M246.941,167.27c-2.537-4.182-9.461-7.633-13.735-8.063c-7.66-0.513-16.703-0.7-20.585,0.767
		c-3.741,1.418-5.523,3.891-5.523,7.465c0,2.854,1.381,5.599,4.377,7.801c4.162,3.07,10.433,5.916,20.09,5.916
		c3.5,0,8.222,2.884,10.451,5.076c3.032,2.985,5.272,4.853,6.195,5.813c3.127,3.238,6.131,1.466,7.27,0.346
		c0.515-0.514,1.819-1.949,1.399-4.927C256.367,183.889,251.395,174.604,246.941,167.27z"/>
</g>
</svg>
