<?xml version="1.0" encoding="utf-8"?>
<!-- Generator: Adobe Illustrator 15.1.0, SVG Export Plug-In . SVG Version: 6.00 Build 0)  -->
<!DOCTYPE svg PUBLIC "-//W3C//DTD SVG 1.0//EN" "http://www.w3.org/TR/2001/REC-SVG-20010904/DTD/svg10.dtd">
<svg version="1.0" id="Layer_2" xmlns="http://www.w3.org/2000/svg" xmlns:xlink="http://www.w3.org/1999/xlink" x="0px" y="0px"
	 width="283.465px" height="283.465px" viewBox="-126.732 -126.732 283.465 283.465"
	 enable-background="new -126.732 -126.732 283.465 283.465" xml:space="preserve">
<g>
	<path fill="none" d="M41.75,54.996c-0.195-0.514-0.43-0.999-0.653-1.512C41.339,53.997,41.555,54.482,41.75,54.996z"/>
	<path fill="none" d="M81.147,55.378c-0.094-0.024-0.185-0.051-0.28-0.074c-0.048-0.006-0.093-0.013-0.14-0.02
		c0.042,0.006,0.077,0.014,0.12,0.02C80.95,55.329,81.046,55.353,81.147,55.378z"/>
	<path fill="none" d="M79.635,55.108c0.046,0.011,0.103,0.015,0.15,0.024c-0.043-0.009-0.09-0.015-0.131-0.024l-14.138-1.307
		c-10.572-0.961-23.3-2.109-23.3-2.118c0,0.001-0.001,0.001-0.001,0.002c0.366,0.041,12.884,1.17,23.282,2.116L79.635,55.108z"/>
	<path fill="none" d="M20.003,49.705c0.116,0.262,0.23,0.517,0.344,0.774c-0.115-0.263-0.23-0.515-0.344-0.793l-34.722-3.145
		l-1.558,4.087l1.558-4.068L20.003,49.705z"/>
	<path fill="none" d="M82.527,55.742c-0.005-0.001-0.01-0.003-0.015-0.004c0.149,0.989,0.296,1.933,0.491,2.875
		c0.003,0.001,0.006,0.002,0.009,0.003C82.826,57.684,82.668,56.713,82.527,55.742z"/>
	<path fill="none" d="M-76.8,35.886l0.346,0.019C-64.501-2.877-19.468-36.264,44.923-54.045
		c-4.563-12.984-10.265-20.188-17.637-18.957C-47.313-52.403-99.741-13.92-114.428,30.884
		C-102.228,27.077-89.929,29.074-76.8,35.886z"/>
	<path fill="none" d="M-75.517,40.794c-0.029,0.007-0.059,0.006-0.088,0.012c0.031-0.006,0.063-0.005,0.093-0.011L-75.517,40.794z"
		/>
	<path fill="none" d="M103.15,66.39c0.494-0.438,1.017-0.821,1.334-1.055C104.148,65.568,103.645,65.951,103.15,66.39z"/>
	<path fill="none" d="M-100.504,34.381c-4.266,0.056-8.48,0.911-12.641,2.661c-0.04,0.017-0.081,0.023-0.12,0.039
		c0.042-0.015,0.087-0.022,0.129-0.039C-108.981,35.293-104.769,34.437-100.504,34.381z"/>
	<path fill="none" d="M-114.697,37.414c-0.005,0-0.01,0.002-0.016,0.002l1.307,5.906l77.291,5.833
		c-0.006-0.021-0.014-0.039-0.02-0.06l-77.262-5.791L-114.697,37.414z"/>
	<path fill="none" d="M21.017,52.201c0.056,0.169,0.109,0.335,0.156,0.482C21.126,52.536,21.073,52.371,21.017,52.201z"/>
	<path fill="none" d="M-18.992,8.456c-12,0-21.756,4.013-21.756,8.954c0,4.945,9.747,8.957,21.756,8.957
		c12.014,0,21.761-4.012,21.761-8.957C2.769,12.469-6.987,8.456-18.992,8.456z"/>
	<path fill="none" d="M144.721,96.129c-0.326-0.859-0.625-1.699-0.924-2.557c-11.234-31.466-21.294-63.155-47.123-91.975
		L49.085-49.496C-12.521-32.471-55.655-0.535-67.207,36.558l-0.131,0.438l32.277,2.249l0.122,0.466l2.151,4.629
		c0.611,1.409,1.25,3.135,1.759,5.151l0.821,4.852c0.299,3.173,0.182,6.877-0.658,11.16c-1.241,6.271,8.855,9.443,8.855-4.815
		l0.443-8.612l0.313-1.643c0.438-1.801,1.031-2.78,1.694-4.581l1.222-4.442l41.763,3.789l1.922,4.89l0.747,3.732l-0.132,0.625
		l-1.138,4.05c-5.734,24.458,18.588,19.979,13.381,0.999l-1.959-5.029c-0.43-1.056-0.057-2.156,0.578-3.332l2.557-4.199l0.13-0.261
		l40.573,3.658l1.688,0.279c2.091,0.178,4.518,0.074,5.086,1.381l0.065,0.243l0.644,5.001l1.643,8.39
		c0.225,1.502,0.317,2.883,0.158,4.208c-2.407,20.696,7.307,15.489,7.307-0.233l0.131-1.391l0.477-1.586l0.521-1.11l0.645-1.036
		c0.541-0.803,1.223-1.549,1.922-2.155l1.382-0.998l1.175-0.588l0.952-0.28l0.737-0.084l0.606,0.047l0.476,0.14l0.383,0.195
		l4.078,2.501c3.452,2.23,6.635,4.508,9.62,6.878l0.84,0.652c2.481,2.007,4.834,4.088,7.045,6.178l2.79,2.725
		c0.485,0.485,0.971,0.989,1.466,1.484l4.638,5.039l3.639,4.264c0.728,0.877,1.437,1.755,2.146,2.632
		C143.144,94.113,143.937,95.121,144.721,96.129z M3.3,25.267c-4.185,3.304-12.564,5.879-22.292,5.879
		c-9.723,0-18.103-2.557-22.288-5.879c-2.907-2.296-4.246-5.086-4.246-7.856c0-2.772,1.339-5.562,4.246-7.853
		c4.185-3.327,12.574-5.878,22.302-5.878c9.723,0,18.093,2.552,22.292,5.878c2.893,2.291,4.231,5.081,4.231,7.853
		C7.546,20.181,6.207,22.971,3.3,25.267z M9.371-10.589c-2.897-2.3-4.232-5.081-4.232-7.853c0-2.771,1.325-5.552,4.232-7.852
		c4.194-3.327,12.56-5.879,22.292-5.879s18.111,2.552,22.302,5.879c2.901,2.3,4.227,5.081,4.227,7.852
		c0,2.771-1.325,5.552-4.227,7.853C49.774-7.263,41.396-4.71,31.663-4.71S13.564-7.263,9.371-10.589z M75.716,22.216
		c-4.189,3.33-12.56,5.878-22.302,5.878c-9.732,0-18.103-2.548-22.283-5.878c-2.893-2.301-4.246-5.082-4.246-7.853
		c0-2.771,1.335-5.552,4.246-7.857c4.171-3.322,12.551-5.874,22.283-5.874c9.742,0,18.112,2.552,22.302,5.874
		c2.902,2.305,4.255,5.095,4.236,7.857C79.952,17.125,78.618,19.915,75.716,22.216z M128.765,65.652
		c-1.139,1.12-4.152,2.911-7.288-0.336c-0.914-0.971-2.995-4.181-6.028-7.166c-2.229-2.202-5.058-4.433-8.557-4.433
		c-9.658,0-17.972-2.146-22.144-5.216c-2.985-2.184-4.386-4.928-4.386-7.782c0-3.584,1.783-6.047,5.524-7.466
		c3.883-1.465,11.664-1.186,20.632-1.894c5.721-0.457,11.076,3.274,15.116,9.023c4.937,7.035,7.997,16.786,8.52,20.342
		C130.565,63.712,129.278,65.139,128.765,65.652z"/>
	<path fill="none" d="M142.295,100.234c0.719,0.793,1.446,1.596,2.193,2.389l0.261-1.539l-0.168-0.178
		C143.778,100.868,142.976,100.654,142.295,100.234z"/>
	<path fill="none" d="M106.892,36.138c-11.963,0.942-21.751-0.364-21.751,4.582c0,4.936,9.752,8.248,21.751,8.248
		c12.01,0,19.223,17.347,18.522,12.467C124.649,56.078,117.39,35.307,106.892,36.138z"/>
	<path fill="none" d="M53.414,5.41c-12,0-21.751,4.012-21.751,8.962c0,4.937,9.751,8.953,21.751,8.953
		c12.019,0,21.779-4.017,21.761-8.953C75.175,9.422,65.424,5.41,53.414,5.41z"/>
	<path fill="none" d="M53.414-18.441c0-4.941-9.742-8.953-21.751-8.953c-11.991,0-21.747,4.012-21.747,8.953
		s9.755,8.954,21.747,8.954C43.653-9.488,53.414-13.5,53.414-18.441z"/>
	<path d="M53.965-10.589c2.901-2.3,4.227-5.081,4.227-7.853c0-2.771-1.325-5.552-4.227-7.852c-4.19-3.327-12.569-5.879-22.302-5.879
		S13.564-29.62,9.371-26.293c-2.907,2.3-4.232,5.081-4.232,7.852c0,2.771,1.334,5.552,4.232,7.853
		c4.194,3.326,12.56,5.878,22.292,5.878S49.774-7.263,53.965-10.589z M9.917-18.441c0-4.941,9.755-8.953,21.747-8.953
		c12.009,0,21.751,4.012,21.751,8.953s-9.761,8.954-21.751,8.954C19.672-9.488,9.917-13.5,9.917-18.441z"/>
	<path d="M3.314,9.557C-0.885,6.23-9.255,3.679-18.978,3.679c-9.728,0-18.117,2.552-22.302,5.878
		c-2.907,2.291-4.246,5.081-4.246,7.853c0,2.771,1.339,5.561,4.246,7.856c4.185,3.322,12.564,5.879,22.288,5.879
		c9.728,0,18.107-2.575,22.292-5.879c2.907-2.296,4.246-5.086,4.246-7.856C7.546,14.638,6.207,11.848,3.314,9.557z M-18.992,26.367
		c-12.009,0-21.756-4.012-21.756-8.957c0-4.941,9.756-8.954,21.756-8.954c12.005,0,21.761,4.013,21.761,8.954
		C2.769,22.355-6.978,26.367-18.992,26.367z"/>
	<path d="M148.836,98.573c0.7-1.157,0.896-2.659,0.392-4.068c-11.813-32.855-21.984-65.981-48.989-96.099L52.593-52.757
		c-0.766-0.83-1.791-1.344-2.893-1.479c-0.028-0.467-0.112-0.948-0.279-1.396c-2.529-7.213-5.44-12.774-8.697-16.404
		c-4.181-4.685-8.958-6.564-14.211-5.678c-0.178,0.028-0.327,0.07-0.486,0.107C-51.516-56.205-105.33-15.469-119.569,31.238
		c-0.322,1.046-0.266,2.155,0.116,3.117c-0.336,0.858-0.42,1.801-0.21,2.762l1.596,7.223c0.448,2.071,2.207,3.583,4.307,3.751
		l78.709,5.916c0.364,2.968,0.336,6.467-0.48,10.601c-1.624,8.249,6.299,13.353,12.416,9.929c2.72-1.512,5.911-5.469,5.911-13.811
		c0-2.259,0.051-3.994,0.145-5.375l37.125,2.8c-2.268,10.73,0.742,17.001,4.235,19.717c2.445,1.895,5.375,2.585,8.259,2.09
		c6.056-0.998,13.241-8.165,10.693-20.09l36.364,2.743c1.55,0.41,3.015,0.84,4.479,1.307c0.41,1.94,0.746,3.77,0.55,5.374
		c-0.699,6.011-0.41,10.152,0.252,12.663c0.747,2.902,2.184,4.488,3.453,5.291c1.624,1.045,3.396,1.27,5.244,0.672
		c1.409-0.458,3.117-1.605,4.498-3.788c1.642-2.585,3.163-7.204,3.358-13.27c18.439,9.452,27.51,22.059,39.547,34.982
		c0.914,0.98,2.184,1.521,3.49,1.521c0,0,4.086-0.093,4.722-4.04l0.232-1.466C149.639,100.738,149.414,99.563,148.836,98.573z
		 M27.286-73.001c7.372-1.232,13.073,5.972,17.637,18.957C-19.468-36.264-64.501-2.877-76.454,35.904l-0.346-0.019
		c-13.129-6.812-25.428-8.809-37.628-5.002C-99.741-13.92-47.313-52.403,27.286-73.001z M-36.115,49.155l-77.291-5.833l-1.307-5.906
		c0.005,0,0.01-0.002,0.016-0.002l-0.006-0.026c0.487-0.026,0.969-0.138,1.438-0.307c0.04-0.016,0.081-0.022,0.12-0.039
		c4.16-1.75,8.375-2.605,12.641-2.661c7.109-0.092,14.364,2.039,21.746,5.965c0.973,0.517,2.091,0.656,3.154,0.46
		c0.029-0.006,0.059-0.005,0.088-0.012l0.005,0.001c0.001-0.001,0.003-0.001,0.004-0.001l6.238,0.578
		c0.495,0.224,1.041,0.355,1.605,0.401l11.426,0.803l18.159,1.633c0.602,1.25,1.353,2.874,1.987,4.89l-0.043-0.003
		C-36.129,49.116-36.122,49.134-36.115,49.155z M21.306,53.466l-37.583-2.837l1.558-4.087l34.722,3.145
		c0.113,0.278,0.229,0.53,0.344,0.793c0.094,0.211,0.186,0.425,0.282,0.635c0.126,0.313,0.265,0.712,0.388,1.087
		c0.057,0.17,0.109,0.335,0.156,0.482c0.091,0.286,0.16,0.512,0.188,0.596L21.306,53.466z M83.004,58.616
		c-0.84-0.242-1.708-0.485-2.585-0.709L41.75,54.996c-0.195-0.514-0.411-0.999-0.653-1.512c0.262-0.411,0.672-1.073,1.102-1.801
		c0,0,0.012,0.001,0.018,0.002c0-0.001,0.001-0.001,0.001-0.002c0,0.009,12.728,1.157,23.3,2.118l14.138,1.307
		c0.041,0.01,0.088,0.016,0.131,0.024c0.297,0.06,0.612,0.108,0.942,0.151c0.047,0.007,0.092,0.014,0.14,0.02
		c0.096,0.023,0.187,0.05,0.28,0.074c0.462,0.114,0.918,0.229,1.361,0.336c0.001,0.009,0.003,0.017,0.004,0.024
		c0.005,0.001,0.01,0.003,0.015,0.004c0.141,0.971,0.299,1.941,0.485,2.874c-0.003-0.001-0.006-0.002-0.009-0.003
		C83.004,58.614,83.004,58.615,83.004,58.616z M103.15,66.39c0.494-0.438,0.998-0.821,1.334-1.055
		c15.387,9.201,25.634,20.071,34.666,31.447C128.979,85.444,119.657,74.731,103.15,66.39z M140.195,90.474l-3.639-4.264
		l-4.638-5.039c-0.495-0.495-0.98-0.999-1.466-1.484l-2.79-2.725c-2.211-2.09-4.563-4.171-7.045-6.178l-0.84-0.652
		c-2.985-2.37-6.168-4.647-9.62-6.878l-4.078-2.501l-0.383-0.195l-0.476-0.14l-0.606-0.047l-0.737,0.084l-0.952,0.28l-1.175,0.588
		l-1.382,0.998c-0.699,0.606-1.381,1.353-1.922,2.155l-0.645,1.036l-0.521,1.11l-0.477,1.586L96.674,69.6
		c0,15.723-9.714,20.93-7.307,0.233c0.159-1.325,0.066-2.706-0.158-4.208l-1.643-8.39l-0.644-5.001l-0.065-0.243
		c-0.568-1.307-2.995-1.203-5.086-1.381l-1.688-0.279L39.51,46.673l-0.13,0.261l-2.557,4.199c-0.635,1.176-1.008,2.276-0.578,3.332
		l1.959,5.029c5.207,18.979-19.115,23.459-13.381-0.999l1.138-4.05l0.132-0.625l-0.747-3.732l-1.922-4.89l-41.763-3.789
		l-1.222,4.442c-0.663,1.801-1.255,2.78-1.694,4.581l-0.313,1.643l-0.443,8.612c0,14.259-10.097,11.086-8.855,4.815
		c0.84-4.283,0.957-7.987,0.658-11.16l-0.821-4.852c-0.509-2.017-1.148-3.742-1.759-5.151l-2.151-4.629l-0.122-0.466l-32.277-2.249
		l0.131-0.438C-55.655-0.535-12.521-32.471,49.085-49.496L96.674,1.598c25.829,28.819,35.889,60.509,47.123,91.975
		c0.299,0.857,0.598,1.697,0.924,2.557c-0.784-1.008-1.577-2.016-2.379-3.023C141.632,92.229,140.923,91.351,140.195,90.474z
		 M144.488,102.623c-0.747-0.793-1.475-1.596-2.193-2.389c0.681,0.42,1.483,0.634,2.286,0.672l0.168,0.178L144.488,102.623z"/>
	<path d="M75.716,6.506c-4.189-3.322-12.56-5.874-22.302-5.874c-9.732,0-18.112,2.552-22.283,5.874
		c-2.911,2.305-4.246,5.085-4.246,7.857c0,2.771,1.354,5.552,4.246,7.853c4.181,3.33,12.551,5.878,22.283,5.878
		c9.742,0,18.112-2.548,22.302-5.878c2.902-2.301,4.236-5.091,4.236-7.853C79.971,11.601,78.618,8.811,75.716,6.506z M53.414,23.325
		c-12,0-21.751-4.017-21.751-8.953c0-4.95,9.751-8.962,21.751-8.962c12.01,0,21.761,4.012,21.761,8.962
		C75.193,19.309,65.433,23.325,53.414,23.325z"/>
	<path d="M121.635,40.384c-4.04-5.749-9.396-9.48-15.116-9.023c-8.968,0.708-16.749,0.429-20.632,1.894
		c-3.741,1.419-5.524,3.882-5.524,7.466c0,2.854,1.4,5.599,4.386,7.782c4.172,3.07,12.485,5.216,22.144,5.216
		c3.499,0,6.327,2.23,8.557,4.433c3.033,2.985,5.114,6.195,6.028,7.166c3.136,3.247,6.149,1.456,7.288,0.336
		c0.514-0.514,1.801-1.94,1.39-4.927C129.632,57.17,126.571,47.419,121.635,40.384z M106.892,48.968
		c-11.999,0-21.751-3.313-21.751-8.248c0-4.946,9.788-3.64,21.751-4.582c10.498-0.831,17.758,19.94,18.522,25.297
		C126.114,66.314,118.901,48.968,106.892,48.968z"/>
	<path fill="#FFFFFF" d="M-38.079,44.209l-18.159-1.633l-11.426-0.803c-0.564-0.046-1.11-0.178-1.605-0.401l-6.238-0.578
		c-0.001,0-0.003,0-0.004,0.001c-0.03,0.006-0.062,0.005-0.093,0.011c-1.063,0.196-2.181,0.057-3.154-0.46
		c-7.381-3.926-14.637-6.057-21.746-5.965c-4.265,0.056-8.477,0.912-12.631,2.661c-0.042,0.017-0.087,0.024-0.129,0.039
		c-0.469,0.169-0.951,0.28-1.438,0.307l0.006,0.026l1.3,5.891l77.262,5.791l0.043,0.003C-36.726,47.083-37.478,45.459-38.079,44.209
		z"/>
	<path fill="#FFFFFF" d="M21.017,52.201c-0.123-0.375-0.262-0.774-0.388-1.087c-0.097-0.21-0.188-0.424-0.282-0.635
		c-0.113-0.258-0.228-0.513-0.344-0.774l-34.722-3.145l-1.558,4.068l37.583,2.837l0.056-0.187c-0.028-0.084-0.098-0.31-0.188-0.596
		C21.126,52.536,21.072,52.37,21.017,52.201z"/>
	<path fill="#FFFFFF" d="M82.509,55.714c-0.443-0.106-0.899-0.222-1.361-0.336c-0.102-0.025-0.197-0.049-0.3-0.074
		c-0.043-0.006-0.078-0.014-0.12-0.02c-0.33-0.043-0.646-0.092-0.942-0.151c-0.048-0.01-0.104-0.014-0.15-0.024l-14.137-1.307
		c-10.398-0.946-22.916-2.075-23.282-2.116c-0.006-0.001-0.018-0.002-0.018-0.002c-0.43,0.728-0.84,1.39-1.102,1.801
		c0.224,0.513,0.458,0.998,0.653,1.512l38.669,2.911c0.877,0.224,1.745,0.467,2.585,0.709c0-0.001,0-0.002,0-0.003
		c-0.195-0.942-0.342-1.886-0.491-2.875C82.512,55.73,82.51,55.723,82.509,55.714z"/>
	<path fill="#FFFFFF" d="M104.484,65.335c-0.317,0.233-0.84,0.616-1.334,1.055c16.507,8.342,25.828,19.055,36,30.393
		C130.118,85.406,119.871,74.536,104.484,65.335z"/>
</g>
</svg>
