<?xml version="1.0" encoding="utf-8"?>
<!-- Generator: Adobe Illustrator 15.1.0, SVG Export Plug-In . SVG Version: 6.00 Build 0)  -->
<!DOCTYPE svg PUBLIC "-//W3C//DTD SVG 1.1//EN" "http://www.w3.org/Graphics/SVG/1.1/DTD/svg11.dtd">
<svg version="1.1" id="Layer_2" xmlns="http://www.w3.org/2000/svg" xmlns:xlink="http://www.w3.org/1999/xlink" x="0px" y="0px"
	 width="30px" height="30px" viewBox="0 0 30 30" enable-background="new 0 0 30 30" xml:space="preserve">
<g>
	<ellipse fill="none" cx="11.323" cy="15" rx="2.277" ry="0.937"/>
	<path fill="none" d="M28.2,23.668c0.076,0.083,0.152,0.167,0.23,0.25l0.026-0.161l-0.017-0.019
		C28.356,23.735,28.273,23.712,28.2,23.668z"/>
	<ellipse fill="none" cx="18.901" cy="14.681" rx="2.277" ry="0.937"/>
	<path fill="none" d="M5.272,16.933l0.036,0.003c1.251-4.059,5.965-7.553,12.702-9.414c-0.477-1.359-1.074-2.113-1.845-1.984
		C8.359,7.694,2.872,11.721,1.334,16.408C2.612,16.012,3.898,16.221,5.272,16.933z"/>
	<ellipse fill="none" cx="16.625" cy="11.248" rx="2.277" ry="0.937"/>
	<path fill="none" d="M23.429,13.346l-4.98-5.347c-6.447,1.783-10.961,5.125-12.17,9.006l-0.014,0.046l3.379,0.237l0.013,0.049
		l0.225,0.484c0.064,0.149,0.131,0.328,0.184,0.539l0.086,0.508c0.031,0.333,0.019,0.72-0.069,1.168
		c-0.129,0.656,0.927,0.988,0.927-0.503l0.046-0.902l0.033-0.172c0.046-0.188,0.108-0.29,0.177-0.479l0.128-0.466l4.37,0.396
		l0.202,0.512l0.078,0.389l-0.013,0.067l-0.12,0.424c-0.6,2.562,1.947,2.093,1.401,0.105l-0.205-0.527
		c-0.047-0.109-0.009-0.225,0.06-0.347l0.267-0.441l0.013-0.029l4.246,0.384l0.177,0.028c0.22,0.019,0.475,0.008,0.532,0.145
		l0.008,0.025l0.068,0.525l0.172,0.878c0.022,0.157,0.031,0.304,0.016,0.442c-0.252,2.165,0.764,1.618,0.764-0.026l0.014-0.147
		l0.049-0.166l0.055-0.116l0.067-0.108c0.059-0.084,0.128-0.161,0.201-0.226l0.145-0.105l0.123-0.062l0.1-0.029l0.077-0.009
		l0.063,0.005l0.05,0.015l0.04,0.019l0.427,0.262c0.36,0.231,0.694,0.471,1.006,0.718l0.088,0.07
		c0.261,0.211,0.506,0.427,0.738,0.646l0.292,0.285c0.052,0.052,0.103,0.104,0.153,0.156l0.485,0.527l0.381,0.448
		c0.076,0.092,0.15,0.184,0.225,0.275c0.084,0.105,0.167,0.211,0.25,0.317c-0.032-0.09-0.064-0.179-0.096-0.268
		C27.186,19.678,26.134,16.362,23.429,13.346z M13.657,15.822c-0.439,0.348-1.315,0.615-2.333,0.615S9.428,16.17,8.99,15.822
		C8.686,15.582,8.546,15.29,8.546,15s0.14-0.582,0.444-0.822c0.438-0.348,1.315-0.615,2.333-0.615s1.895,0.267,2.333,0.615
		C13.96,14.418,14.1,14.71,14.1,15S13.96,15.582,13.657,15.822z M14.291,12.07c-0.304-0.241-0.443-0.532-0.443-0.822
		s0.14-0.581,0.443-0.822c0.439-0.348,1.315-0.615,2.333-0.615c1.019,0,1.896,0.267,2.334,0.615
		c0.304,0.241,0.443,0.532,0.443,0.822s-0.14,0.581-0.443,0.822c-0.438,0.348-1.315,0.615-2.334,0.615
		C15.606,12.685,14.73,12.418,14.291,12.07z M21.235,15.504c-0.439,0.348-1.315,0.615-2.334,0.615c-1.018,0-1.895-0.267-2.333-0.615
		c-0.304-0.241-0.444-0.533-0.444-0.822c0-0.29,0.141-0.582,0.444-0.822c0.438-0.348,1.315-0.615,2.333-0.615
		c1.019,0,1.895,0.267,2.334,0.615c0.303,0.241,0.443,0.532,0.443,0.822C21.679,14.971,21.538,15.263,21.235,15.504z M26.784,20.051
		c-0.119,0.117-0.434,0.303-0.761-0.036c-0.097-0.101-0.313-0.438-0.631-0.75c-0.233-0.229-0.529-0.463-0.896-0.463
		c-1.011,0-1.883-0.225-2.318-0.546c-0.313-0.23-0.458-0.518-0.458-0.816c0-0.374,0.187-0.633,0.578-0.781
		c0.406-0.153,1.222-0.124,2.159-0.198c0.599-0.048,1.159,0.343,1.582,0.944c0.516,0.735,0.837,1.757,0.891,2.131
		C26.975,19.847,26.838,19.997,26.784,20.051z"/>
	<path d="M18.958,12.07c0.304-0.241,0.443-0.532,0.443-0.822s-0.14-0.581-0.443-0.822c-0.438-0.348-1.315-0.615-2.334-0.615
		c-1.018,0-1.894,0.267-2.333,0.615c-0.304,0.241-0.443,0.532-0.443,0.822s0.14,0.581,0.443,0.822
		c0.439,0.348,1.315,0.615,2.333,0.615C17.643,12.685,18.52,12.418,18.958,12.07z M14.348,11.248c0-0.517,1.021-0.937,2.276-0.937
		c1.257,0,2.277,0.42,2.277,0.937s-1.021,0.937-2.277,0.937C15.368,12.185,14.348,11.765,14.348,11.248z"/>
	<path d="M13.657,14.178c-0.439-0.348-1.315-0.615-2.333-0.615S9.428,13.83,8.99,14.178C8.686,14.418,8.546,14.71,8.546,15
		s0.14,0.582,0.444,0.822c0.438,0.348,1.315,0.615,2.333,0.615s1.895-0.268,2.333-0.615C13.96,15.582,14.1,15.29,14.1,15
		S13.96,14.418,13.657,14.178z M11.323,15.937c-1.257,0-2.277-0.42-2.277-0.937s1.021-0.937,2.277-0.937
		c1.256,0,2.277,0.42,2.277,0.937S12.58,15.937,11.323,15.937z"/>
	<path d="M28.928,23.069c-1.236-3.439-2.301-6.906-5.127-10.058l-4.986-5.354c-0.081-0.087-0.189-0.141-0.304-0.155
		c-0.002-0.049-0.011-0.099-0.028-0.146c-0.265-0.755-0.571-1.337-0.91-1.717c-0.438-0.49-0.938-0.687-1.489-0.594
		c-0.018,0.003-0.034,0.007-0.051,0.011C7.919,7.296,2.287,11.559,0.797,16.448c-0.034,0.109-0.028,0.225,0.012,0.326
		c-0.035,0.09-0.044,0.189-0.022,0.289l0.167,0.756c0.047,0.216,0.231,0.375,0.451,0.392l8.237,0.619
		c0.038,0.31,0.035,0.677-0.05,1.109c-0.17,0.864,0.659,1.399,1.299,1.04c0.285-0.159,0.619-0.572,0.619-1.446
		c0-0.236,0.005-0.418,0.015-0.562l3.885,0.293c-0.237,1.123,0.078,1.78,0.443,2.064c0.256,0.199,0.563,0.269,0.866,0.219
		c0.633-0.104,1.385-0.856,1.119-2.101l3.805,0.286c0.161,0.044,0.316,0.089,0.468,0.136c0.043,0.205,0.078,0.393,0.058,0.563
		c-0.073,0.63-0.043,1.062,0.026,1.326c0.079,0.303,0.229,0.469,0.361,0.553c0.171,0.11,0.357,0.133,0.55,0.071
		c0.148-0.048,0.325-0.168,0.47-0.396c0.172-0.271,0.331-0.754,0.351-1.389c1.93,0.989,2.88,2.309,4.139,3.661
		c0.095,0.102,0.228,0.159,0.366,0.159c0,0,0.427-0.009,0.494-0.423l0.024-0.153c0.021-0.118-0.002-0.24-0.064-0.344
		C28.96,23.373,28.98,23.216,28.928,23.069z M16.166,5.538c0.771-0.129,1.368,0.625,1.845,1.984
		C11.273,9.383,6.56,12.877,5.309,16.936l-0.036-0.003c-1.374-0.712-2.661-0.921-3.938-0.524C2.872,11.721,8.359,7.694,16.166,5.538
		z M1.442,17.712l-0.137-0.619c0.056-0.003,0.111-0.016,0.164-0.038c1.161-0.488,2.362-0.312,3.598,0.346
		c0.105,0.056,0.226,0.071,0.34,0.047l0.653,0.061c0.053,0.023,0.11,0.037,0.168,0.042l1.196,0.084l1.899,0.175
		c0.063,0.13,0.143,0.3,0.208,0.512L1.442,17.712z M15.54,18.772l-3.933-0.296l0.163-0.426l3.634,0.329
		c0.021,0.05,0.043,0.1,0.064,0.148c0.031,0.074,0.069,0.201,0.077,0.226L15.54,18.772z M21.728,19.238l-4.048-0.305
		c-0.021-0.052-0.044-0.104-0.068-0.158c0.027-0.042,0.07-0.11,0.116-0.187c0,0.001,1.333,0.121,2.438,0.221l1.48,0.137
		c0.039,0.008,0.082,0.014,0.127,0.02c0.059,0.015,0.116,0.029,0.174,0.045c0.014,0.103,0.031,0.204,0.05,0.302
		C21.908,19.287,21.818,19.263,21.728,19.238z M24.106,20.126c0.051-0.046,0.105-0.086,0.139-0.11
		c1.611,0.963,2.683,2.101,3.628,3.29C26.81,22.12,25.833,20.999,24.106,20.126z M28.431,23.918c-0.078-0.083-0.154-0.167-0.23-0.25
		c0.073,0.044,0.156,0.067,0.24,0.07l0.017,0.019L28.431,23.918z M28.207,22.922c-0.074-0.092-0.148-0.184-0.225-0.275l-0.381-0.448
		l-0.485-0.527c-0.051-0.052-0.102-0.104-0.153-0.156l-0.292-0.285c-0.232-0.22-0.478-0.436-0.738-0.646l-0.088-0.07
		c-0.312-0.247-0.646-0.486-1.006-0.718l-0.427-0.262l-0.04-0.019l-0.05-0.015l-0.063-0.005l-0.077,0.009l-0.1,0.029l-0.123,0.062
		L23.814,19.7c-0.073,0.064-0.143,0.142-0.201,0.226l-0.067,0.108l-0.055,0.116l-0.049,0.166l-0.014,0.147
		c0,1.645-1.016,2.191-0.764,0.026c0.016-0.139,0.007-0.285-0.016-0.442l-0.172-0.878l-0.068-0.525l-0.008-0.025
		c-0.058-0.137-0.313-0.126-0.532-0.145l-0.177-0.028l-4.246-0.384l-0.013,0.029l-0.267,0.441c-0.068,0.122-0.106,0.237-0.06,0.347
		l0.205,0.527c0.546,1.987-2.001,2.456-1.401-0.105l0.12-0.424l0.013-0.067l-0.078-0.389l-0.202-0.512l-4.37-0.396l-0.128,0.466
		c-0.069,0.188-0.131,0.291-0.177,0.479l-0.033,0.172l-0.046,0.902c0,1.491-1.057,1.159-0.927,0.503
		c0.088-0.448,0.1-0.835,0.069-1.168l-0.086-0.508c-0.053-0.211-0.12-0.39-0.184-0.539l-0.225-0.484l-0.013-0.049l-3.379-0.237
		l0.014-0.046c1.209-3.882,5.723-7.224,12.17-9.006l4.98,5.347c2.705,3.017,3.757,6.332,4.933,9.626
		c0.031,0.089,0.063,0.178,0.096,0.268C28.374,23.133,28.291,23.027,28.207,22.922z"/>
	<path d="M21.235,13.859c-0.439-0.348-1.315-0.615-2.334-0.615c-1.018,0-1.895,0.267-2.333,0.615
		c-0.304,0.241-0.444,0.532-0.444,0.822c0,0.29,0.141,0.581,0.444,0.822c0.438,0.348,1.315,0.615,2.333,0.615
		c1.019,0,1.895-0.267,2.334-0.615c0.303-0.241,0.443-0.533,0.443-0.822C21.679,14.392,21.538,14.1,21.235,13.859z M18.901,15.619
		c-1.257,0-2.277-0.42-2.277-0.937c0-0.518,1.021-0.938,2.277-0.938s2.277,0.42,2.277,0.938
		C21.179,15.199,20.158,15.619,18.901,15.619z"/>
	<path d="M26.04,17.404c-0.423-0.602-0.983-0.992-1.582-0.944c-0.938,0.074-1.753,0.045-2.159,0.198
		c-0.392,0.148-0.578,0.407-0.578,0.781c0,0.299,0.145,0.586,0.458,0.816c0.436,0.321,1.308,0.546,2.318,0.546
		c0.366,0,0.662,0.233,0.896,0.463c0.317,0.313,0.534,0.649,0.631,0.75c0.327,0.339,0.642,0.153,0.761,0.036
		c0.054-0.054,0.19-0.204,0.146-0.516C26.877,19.161,26.556,18.14,26.04,17.404z M24.497,18.302c-1.256,0-2.276-0.346-2.276-0.862
		c0-0.518,1.024-0.382,2.276-0.481c1.098-0.087,1.858,2.087,1.938,2.648C26.509,20.118,25.754,18.302,24.497,18.302z"/>
	<path fill="#FFFFFF" d="M7.425,17.634L6.229,17.55c-0.059-0.005-0.116-0.019-0.168-0.042l-0.653-0.061
		c-0.114,0.024-0.235,0.009-0.34-0.047c-1.236-0.657-2.438-0.834-3.598-0.346c-0.053,0.022-0.108,0.035-0.164,0.038l0.137,0.619
		l8.09,0.608c-0.066-0.212-0.145-0.382-0.208-0.512L7.425,17.634z"/>
	<path fill="#FFFFFF" d="M24.497,16.958c-1.252,0.1-2.276-0.036-2.276,0.481c0,0.517,1.021,0.862,2.276,0.862
		c1.257,0,2.012,1.816,1.938,1.305C26.355,19.045,25.595,16.871,24.497,16.958z"/>
	<path fill="#FFFFFF" d="M15.404,18.38l-3.634-0.329l-0.163,0.426l3.933,0.296l0.006-0.019c-0.008-0.024-0.046-0.151-0.077-0.226
		C15.447,18.479,15.426,18.43,15.404,18.38z"/>
	<path fill="#FFFFFF" d="M21.772,18.966c-0.045-0.006-0.088-0.012-0.127-0.02l-1.48-0.137c-1.104-0.1-2.438-0.22-2.438-0.221
		c-0.046,0.076-0.089,0.145-0.116,0.187c0.024,0.054,0.047,0.106,0.068,0.158l4.048,0.305c0.091,0.024,0.181,0.049,0.269,0.074
		c-0.019-0.098-0.036-0.199-0.05-0.302C21.889,18.995,21.831,18.98,21.772,18.966z"/>
	<path fill="#FFFFFF" d="M24.245,20.016c-0.033,0.024-0.088,0.064-0.139,0.11c1.727,0.873,2.703,1.994,3.767,3.18
		C26.928,22.116,25.856,20.979,24.245,20.016z"/>
</g>
</svg>
