<?xml version="1.0" encoding="utf-8"?>
<!-- Generator: Adobe Illustrator 15.1.0, SVG Export Plug-In . SVG Version: 6.00 Build 0)  -->
<!DOCTYPE svg PUBLIC "-//W3C//DTD SVG 1.1//EN" "http://www.w3.org/Graphics/SVG/1.1/DTD/svg11.dtd">
<svg version="1.1" id="Layer_2" xmlns="http://www.w3.org/2000/svg" xmlns:xlink="http://www.w3.org/1999/xlink" x="0px" y="0px"
	 width="30px" height="30px" viewBox="0 0 30 30" enable-background="new 0 0 30 30" xml:space="preserve">
<g>
	<ellipse fill="none" cx="11.323" cy="15" rx="2.277" ry="0.937"/>
	<path fill="none" d="M28.2,23.668c0.075,0.083,0.151,0.167,0.229,0.25l0.026-0.161l-0.017-0.019
		C28.355,23.734,28.273,23.712,28.2,23.668z"/>
	<ellipse fill="none" cx="18.9" cy="14.681" rx="2.277" ry="0.937"/>
	<path fill="none" d="M5.272,16.934l0.036,0.002c1.251-4.059,5.965-7.553,12.702-9.414c-0.477-1.359-1.074-2.113-1.845-1.984
		C8.359,7.694,2.872,11.721,1.334,16.408C2.612,16.012,3.898,16.221,5.272,16.934z"/>
	<ellipse fill="none" cx="16.625" cy="11.248" rx="2.277" ry="0.937"/>
	<path fill="none" d="M23.43,13.346l-4.98-5.347c-6.447,1.783-10.961,5.125-12.17,9.006l-0.014,0.046l3.379,0.237l0.013,0.049
		l0.225,0.483c0.064,0.15,0.131,0.328,0.184,0.539l0.086,0.509c0.031,0.333,0.019,0.72-0.069,1.168
		c-0.129,0.655,0.927,0.987,0.927-0.503l0.046-0.902l0.033-0.172c0.046-0.188,0.108-0.29,0.177-0.479l0.128-0.467l4.37,0.396
		l0.202,0.512l0.078,0.389l-0.013,0.067l-0.12,0.425c-0.6,2.561,1.946,2.092,1.401,0.104l-0.205-0.526
		c-0.047-0.108-0.01-0.226,0.06-0.347l0.267-0.441l0.014-0.029l4.246,0.385l0.177,0.027c0.22,0.02,0.476,0.008,0.532,0.146
		l0.008,0.024l0.068,0.525l0.172,0.878c0.021,0.157,0.031,0.304,0.016,0.442c-0.252,2.164,0.764,1.617,0.764-0.026l0.014-0.147
		l0.05-0.166l0.055-0.115l0.067-0.107c0.059-0.084,0.128-0.162,0.201-0.227l0.145-0.105l0.123-0.062l0.1-0.029l0.078-0.009
		l0.063,0.005l0.05,0.015l0.04,0.02l0.427,0.262c0.36,0.23,0.694,0.471,1.007,0.719l0.088,0.069c0.26,0.211,0.506,0.427,0.737,0.646
		l0.292,0.285c0.053,0.053,0.104,0.104,0.153,0.156l0.485,0.527l0.381,0.447c0.076,0.092,0.149,0.185,0.225,0.275
		c0.084,0.105,0.167,0.211,0.25,0.316c-0.031-0.09-0.064-0.178-0.096-0.268C27.186,19.678,26.134,16.361,23.43,13.346z
		 M13.657,15.822c-0.439,0.348-1.315,0.615-2.333,0.615c-1.018,0-1.896-0.268-2.334-0.615C8.686,15.582,8.546,15.29,8.546,15
		s0.14-0.582,0.444-0.822c0.438-0.348,1.315-0.615,2.333-0.615c1.018,0,1.895,0.267,2.333,0.615C13.96,14.418,14.1,14.71,14.1,15
		S13.96,15.582,13.657,15.822z M14.291,12.07c-0.304-0.241-0.443-0.532-0.443-0.822s0.14-0.581,0.443-0.822
		c0.439-0.348,1.314-0.615,2.333-0.615s1.896,0.267,2.334,0.615c0.304,0.241,0.442,0.532,0.442,0.822s-0.139,0.581-0.442,0.822
		c-0.438,0.348-1.315,0.615-2.334,0.615S14.73,12.418,14.291,12.07z M21.234,15.504c-0.438,0.348-1.314,0.615-2.334,0.615
		c-1.018,0-1.895-0.268-2.332-0.615c-0.305-0.241-0.444-0.533-0.444-0.822c0-0.29,0.142-0.582,0.444-0.822
		c0.438-0.348,1.314-0.615,2.332-0.615c1.02,0,1.896,0.267,2.334,0.615c0.304,0.241,0.443,0.532,0.443,0.822
		C21.68,14.971,21.538,15.263,21.234,15.504z M26.784,20.051c-0.119,0.117-0.435,0.303-0.761-0.035
		c-0.098-0.102-0.313-0.438-0.631-0.75c-0.233-0.229-0.529-0.463-0.896-0.463c-1.012,0-1.883-0.226-2.318-0.547
		c-0.313-0.23-0.457-0.518-0.457-0.816c0-0.373,0.187-0.633,0.577-0.78c0.406-0.153,1.222-0.124,2.159-0.198
		c0.6-0.048,1.159,0.344,1.582,0.943c0.516,0.736,0.837,1.758,0.891,2.132C26.975,19.848,26.838,19.997,26.784,20.051z"/>
	<path d="M18.958,12.07c0.304-0.241,0.442-0.532,0.442-0.822s-0.139-0.581-0.442-0.822c-0.438-0.348-1.315-0.615-2.334-0.615
		s-1.894,0.267-2.333,0.615c-0.304,0.241-0.443,0.532-0.443,0.822s0.14,0.581,0.443,0.822c0.439,0.348,1.314,0.615,2.333,0.615
		S18.52,12.418,18.958,12.07z M14.348,11.248c0-0.517,1.021-0.937,2.276-0.937c1.257,0,2.276,0.42,2.276,0.937
		s-1.021,0.937-2.276,0.937S14.348,11.765,14.348,11.248z"/>
	<path d="M13.657,14.178c-0.439-0.348-1.315-0.615-2.333-0.615c-1.018,0-1.896,0.267-2.334,0.615C8.686,14.418,8.546,14.71,8.546,15
		s0.14,0.582,0.444,0.822c0.438,0.348,1.315,0.615,2.333,0.615c1.018,0,1.895-0.269,2.333-0.615C13.96,15.582,14.1,15.29,14.1,15
		S13.96,14.418,13.657,14.178z M11.323,15.938c-1.257,0-2.277-0.42-2.277-0.938c0-0.517,1.021-0.937,2.277-0.937
		c1.256,0,2.277,0.42,2.277,0.937C13.6,15.518,12.58,15.938,11.323,15.938z"/>
	<path d="M28.928,23.068c-1.236-3.438-2.301-6.905-5.127-10.057l-4.986-5.354c-0.08-0.087-0.188-0.141-0.303-0.155
		c-0.003-0.049-0.012-0.099-0.029-0.146c-0.265-0.755-0.57-1.337-0.91-1.717c-0.438-0.49-0.938-0.687-1.488-0.594
		c-0.018,0.003-0.034,0.007-0.051,0.011C7.919,7.296,2.287,11.559,0.797,16.447c-0.034,0.109-0.028,0.226,0.012,0.326
		c-0.035,0.09-0.044,0.189-0.022,0.289l0.167,0.756c0.047,0.217,0.231,0.375,0.451,0.393l8.237,0.619
		c0.038,0.311,0.035,0.677-0.05,1.109c-0.17,0.863,0.659,1.398,1.299,1.039c0.285-0.158,0.619-0.572,0.619-1.445
		c0-0.236,0.005-0.418,0.015-0.563l3.885,0.293c-0.237,1.123,0.078,1.78,0.443,2.064c0.256,0.199,0.563,0.27,0.865,0.219
		c0.633-0.104,1.385-0.855,1.119-2.102l3.805,0.287c0.162,0.043,0.316,0.088,0.469,0.136c0.043,0.204,0.078,0.394,0.058,0.563
		c-0.073,0.629-0.043,1.062,0.026,1.325c0.078,0.304,0.229,0.47,0.361,0.554c0.17,0.109,0.356,0.133,0.549,0.07
		c0.148-0.048,0.326-0.168,0.471-0.396c0.172-0.271,0.331-0.754,0.352-1.389c1.93,0.989,2.879,2.309,4.139,3.661
		c0.095,0.103,0.228,0.159,0.365,0.159c0,0,0.428-0.01,0.494-0.423l0.024-0.153c0.021-0.117-0.003-0.24-0.063-0.344
		C28.96,23.373,28.98,23.216,28.928,23.068z M16.166,5.538c0.771-0.129,1.368,0.625,1.846,1.984
		C11.273,9.383,6.56,12.877,5.309,16.936l-0.036-0.002c-1.374-0.713-2.661-0.922-3.938-0.524C2.872,11.721,8.359,7.694,16.166,5.538
		z M1.442,17.712l-0.137-0.618c0.056-0.004,0.111-0.017,0.164-0.039c1.161-0.488,2.362-0.312,3.598,0.346
		c0.105,0.057,0.226,0.072,0.34,0.047L6.06,17.51c0.053,0.021,0.11,0.036,0.168,0.041l1.196,0.084l1.899,0.176
		c0.063,0.129,0.143,0.299,0.208,0.512L1.442,17.712z M15.54,18.771l-3.933-0.295l0.163-0.427l3.634,0.329
		c0.021,0.051,0.043,0.1,0.064,0.148c0.031,0.074,0.069,0.201,0.077,0.226L15.54,18.771z M21.729,19.238l-4.049-0.305
		c-0.021-0.053-0.043-0.104-0.068-0.158c0.027-0.043,0.07-0.11,0.117-0.188c0,0.001,1.332,0.121,2.438,0.221l1.48,0.137
		c0.039,0.009,0.082,0.015,0.127,0.021c0.059,0.015,0.115,0.029,0.174,0.046c0.014,0.102,0.031,0.203,0.05,0.301
		C21.908,19.287,21.818,19.264,21.729,19.238z M24.105,20.126c0.052-0.046,0.105-0.086,0.14-0.11
		c1.61,0.963,2.683,2.102,3.628,3.291C26.811,22.12,25.833,20.999,24.105,20.126z M28.432,23.918
		c-0.078-0.083-0.154-0.167-0.23-0.25c0.072,0.044,0.156,0.066,0.24,0.07l0.017,0.019L28.432,23.918z M28.207,22.922
		c-0.074-0.092-0.148-0.184-0.225-0.275l-0.381-0.447l-0.485-0.527c-0.052-0.052-0.103-0.104-0.153-0.156l-0.292-0.285
		c-0.231-0.219-0.478-0.436-0.737-0.646l-0.088-0.069c-0.313-0.248-0.646-0.486-1.007-0.719l-0.427-0.262l-0.04-0.02l-0.05-0.015
		l-0.063-0.005l-0.077,0.009l-0.1,0.029l-0.123,0.062L23.814,19.7c-0.073,0.063-0.144,0.142-0.201,0.226l-0.067,0.108l-0.055,0.116
		l-0.05,0.166l-0.014,0.146c0,1.645-1.016,2.191-0.764,0.025c0.016-0.139,0.007-0.284-0.016-0.441l-0.172-0.878l-0.068-0.524
		L22.4,18.619c-0.059-0.137-0.313-0.126-0.532-0.145l-0.177-0.029l-4.246-0.383l-0.014,0.028l-0.267,0.44
		c-0.067,0.123-0.106,0.238-0.06,0.348l0.205,0.527c0.545,1.986-2.001,2.455-1.401-0.105l0.12-0.424l0.013-0.066l-0.078-0.39
		l-0.202-0.512l-4.37-0.396l-0.128,0.465c-0.069,0.188-0.131,0.291-0.177,0.479l-0.033,0.172l-0.046,0.901
		c0,1.492-1.057,1.16-0.927,0.504c0.088-0.448,0.1-0.835,0.069-1.168l-0.086-0.508c-0.053-0.211-0.12-0.391-0.184-0.539
		l-0.225-0.484l-0.013-0.049L6.263,17.05l0.014-0.046C7.486,13.122,12,9.78,18.447,7.998l4.98,5.347
		c2.704,3.016,3.756,6.333,4.932,9.625c0.031,0.09,0.063,0.178,0.097,0.268C28.374,23.133,28.291,23.027,28.207,22.922z"/>
	<path d="M21.234,13.859c-0.438-0.348-1.314-0.615-2.334-0.615c-1.018,0-1.895,0.267-2.332,0.615
		c-0.305,0.241-0.444,0.532-0.444,0.822s0.142,0.581,0.444,0.822c0.438,0.349,1.314,0.615,2.332,0.615
		c1.02,0,1.896-0.267,2.334-0.615c0.304-0.241,0.443-0.533,0.443-0.822C21.68,14.392,21.538,14.1,21.234,13.859z M18.9,15.619
		c-1.256,0-2.276-0.42-2.276-0.937c0-0.518,1.021-0.938,2.276-0.938c1.257,0,2.277,0.42,2.277,0.938
		C21.18,15.199,20.158,15.619,18.9,15.619z"/>
	<path d="M26.04,17.404c-0.423-0.602-0.983-0.992-1.582-0.944c-0.938,0.074-1.753,0.045-2.159,0.198
		c-0.392,0.148-0.578,0.406-0.578,0.781c0,0.299,0.146,0.586,0.459,0.815c0.436,0.321,1.307,0.546,2.317,0.546
		c0.366,0,0.662,0.233,0.896,0.463c0.317,0.313,0.535,0.649,0.631,0.75c0.328,0.34,0.643,0.153,0.762,0.036
		c0.054-0.054,0.189-0.204,0.146-0.516C26.877,19.161,26.557,18.141,26.04,17.404z M24.497,18.303c-1.256,0-2.276-0.347-2.276-0.863
		c0-0.518,1.024-0.381,2.276-0.48c1.099-0.087,1.858,2.087,1.938,2.648C26.509,20.118,25.754,18.303,24.497,18.303z"/>
	<path fill="#FFFFFF" d="M7.425,17.634L6.229,17.55c-0.059-0.005-0.116-0.019-0.168-0.042l-0.653-0.061
		c-0.114,0.023-0.235,0.009-0.34-0.047c-1.236-0.657-2.438-0.834-3.598-0.346c-0.053,0.021-0.108,0.034-0.164,0.037l0.137,0.619
		l8.09,0.607c-0.066-0.211-0.145-0.381-0.208-0.512L7.425,17.634z"/>
	<path fill="#FFFFFF" d="M15.404,18.38l-3.634-0.329l-0.163,0.426l3.933,0.297l0.006-0.02c-0.008-0.023-0.046-0.15-0.077-0.227
		C15.447,18.479,15.426,18.43,15.404,18.38z"/>
	<path fill="#FFFFFF" d="M21.771,18.966c-0.045-0.006-0.088-0.012-0.127-0.021l-1.479-0.137c-1.104-0.1-2.438-0.22-2.438-0.221
		c-0.045,0.076-0.088,0.145-0.115,0.188c0.023,0.054,0.047,0.105,0.068,0.158l4.047,0.305c0.092,0.023,0.182,0.049,0.27,0.074
		c-0.02-0.099-0.036-0.199-0.051-0.303C21.889,18.995,21.831,18.98,21.771,18.966z"/>
	<path fill="#FFFFFF" d="M24.245,20.016c-0.033,0.024-0.088,0.064-0.14,0.11c1.728,0.873,2.703,1.994,3.768,3.181
		C26.928,22.116,25.855,20.979,24.245,20.016z"/>
</g>
</svg>
