<?xml version="1.0" encoding="utf-8"?>
<!-- Generator: Adobe Illustrator 15.1.0, SVG Export Plug-In . SVG Version: 6.00 Build 0)  -->
<!DOCTYPE svg PUBLIC "-//W3C//DTD SVG 1.1//EN" "http://www.w3.org/Graphics/SVG/1.1/DTD/svg11.dtd">
<svg version="1.1" id="Layer_3" xmlns="http://www.w3.org/2000/svg" xmlns:xlink="http://www.w3.org/1999/xlink" x="0px" y="0px"
	 width="283.465px" height="283.465px" viewBox="0 0 283.465 283.465" enable-background="new 0 0 283.465 283.465"
	 xml:space="preserve">
<g>
	<path d="M276.378,31.212L276.378,31.212l-47.901-3.227c-12.556-0.848-25.222,2.208-35.998,8.708
		c-10.115,6.102-18.42,15.125-23.613,25.741c-1.75,3.578-3.164,7.338-4.176,11.19c-1.898,5.144-3.043,10.574-3.408,16.042
		l-2.678,39.756l-14.849,12.975c-0.646-0.204-1.344-0.32-2.023-0.3c-0.68-0.02-1.375,0.098-2.021,0.3l-14.848-12.975l-2.68-39.756
		c-0.365-5.469-1.508-10.9-3.406-16.042c-3.063-11.642-9.686-22.254-18.686-30.231c-9.127-8.09-20.641-13.406-32.738-15.014
		c-4.094-0.545-8.244-0.673-12.363-0.395L7.087,31.212l0,0l0,0l3.227,47.902c0.83,12.307,5.379,24.213,12.994,33.916
		c2.174,2.771,4.586,5.32,7.176,7.701c-0.037-0.033-0.074-0.066-0.113-0.102c9.029,8.211,20.514,13.711,32.611,15.428
		c0.371,0.053,0.742,0.102,1.113,0.146c5.342,1.209,10.893,1.594,16.354,1.227l39.758-2.678l14.965,13.074
		c-0.035,0.277-0.061,0.557-0.061,0.842v1.758l0.006,98.623c0,3.525,3.021,6.688,6.615,6.568c3.596,0.119,6.618-3.045,6.618-6.568
		l0.006-98.623v-1.76c0-0.283-0.023-0.563-0.062-0.84l14.965-13.074l39.757,2.678c5.463,0.367,11.012-0.018,16.354-1.227
		c12.141-1.479,23.75-6.799,32.924-14.859c0.27-0.236,0.535-0.477,0.801-0.715c-0.037,0.033-0.072,0.068-0.111,0.102
		c0.039-0.033,0.084-0.072,0.117-0.105c9.08-8.268,15.615-19.215,18.476-31.164c0.813-3.396,1.344-6.863,1.577-10.347
		L276.378,31.212L276.378,31.212L276.378,31.212z M95.733,108.541c-1.268,1.451-3.539,1.604-4.992,0.336l-6.416-5.607l0.01-0.008
		L63.103,84.707l-13.15-11.493l-6.059-5.294c-1.451-1.27-1.604-3.541-0.336-4.992c1.266-1.447,3.543-1.604,4.992-0.336l6.418,5.607
		l40.461,35.355l-0.012,0.014C96.849,104.837,96.993,107.097,95.733,108.541C95.034,109.339,96.835,107.281,95.733,108.541z
		 M239.568,67.918l-6.059,5.294l-13.15,11.493l-0.127,0.11l-21.104,18.443l0.008,0.01l-6.416,5.607
		c-1.496,1.307-3.85,1.096-5.092-0.457c-1.16-1.449-0.971-3.621,0.418-4.854l-0.014-0.014l40.463-35.355l6.416-5.607
		c1.398-1.224,3.57-1.125,4.863,0.196C241.178,64.218,241.072,66.605,239.568,67.918C239.568,67.918,241.042,66.632,239.568,67.918z
		"/>
	<path d="M252.997,120.716c0.002,0,0.002,0,0.002-0.002C252.977,120.736,252.982,120.73,252.997,120.716z"/>
</g>
</svg>
