<?xml version="1.0" encoding="utf-8"?>
<!-- Generator: Adobe Illustrator 15.1.0, SVG Export Plug-In . SVG Version: 6.00 Build 0)  -->
<!DOCTYPE svg PUBLIC "-//W3C//DTD SVG 1.1//EN" "http://www.w3.org/Graphics/SVG/1.1/DTD/svg11.dtd">
<svg version="1.1" id="Layer_1" xmlns="http://www.w3.org/2000/svg" xmlns:xlink="http://www.w3.org/1999/xlink" x="0px" y="0px"
	 width="283.465px" height="283.465px" viewBox="458.268 458.268 283.465 283.465"
	 enable-background="new 458.268 458.268 283.465 283.465" xml:space="preserve">
<g>
	<path fill="none" d="M607.25,594.846c-2.91,0-5.146,1.102-6.709,3.304c-1.562,2.202-2.342,4.819-2.339,7.85
		c0,3.029,0.727,5.592,2.179,7.686c1.672,2.383,3.962,3.572,6.87,3.57s5.198-1.191,6.868-3.57c1.525-2.092,2.289-4.654,2.289-7.686
		c0-3.033-0.727-5.595-2.18-7.688C612.555,596.001,610.229,594.846,607.25,594.846z"/>
	<path fill="none" d="M658.048,596.947c-2.049-1.977-4.149-2.964-6.303-2.964c-3.088,0-5.53,1.258-7.326,3.772
		c-1.58,2.229-2.37,4.958-2.37,8.188c0,3.162,0.79,5.855,2.37,8.08c1.796,2.588,4.237,3.881,7.326,3.877
		c1.867,0,3.896-0.879,6.087-2.639c2.191-1.758,3.287-3.572,3.287-5.439v-6.68C661.119,600.988,660.096,598.923,658.048,596.947z"/>
	<path fill="none" d="M563.615,594.846c-2.908,0-5.144,1.102-6.708,3.304c-1.564,2.202-2.345,4.819-2.343,7.85
		c0,3.029,0.727,5.592,2.179,7.686c1.672,2.383,3.962,3.572,6.872,3.57c2.909-0.002,5.199-1.191,6.868-3.57
		c1.526-2.092,2.289-4.654,2.29-7.686c0.001-3.033-0.726-5.595-2.181-7.688C568.92,596.001,566.595,594.846,563.615,594.846z"/>
	<path fill="none" d="M719.345,595.816c-1.871-1.795-4.025-2.692-6.464-2.694c-2.516,0-4.617,0.862-6.304,2.585
		s-2.817,3.878-3.393,6.464h19.393C722.073,599.585,720.996,597.467,719.345,595.816z"/>
	<path d="M535.392,588.955c-3.157-2.371-7.427-3.556-12.81-3.556c-5.887,0-9.942,1.399-12.167,4.199
		c-0.592-0.642-1.262-1.206-2.005-1.7c-1.631-1.831-4.828-4.323-4.828-4.323l11.978-8.745l-0.154-0.535
		c-21.606,2.643-31.439,4.52-50.052,15.31l0.172,0.491l1.48,0.014c-0.137,1.492-0.373,5.173-0.069,10.71
		c-2.066,5.979-0.053,10.039,1.837,14.455c0.298-4.6,0.268-9.629-1.144-14.635c-0.293-5.499-0.051-9.116,0.082-10.523l12.34,0.118
		c0,0-0.081,3.729,0.366,7.235c0.003,0.001,0.007,0.002,0.01,0.004c-0.172,1.012-0.264,2.081-0.264,3.213v25.084h12.057v-23.686
		c0-1.322,0.147-2.467,0.438-3.437c3.112-0.51,6.047-1.656,8.665-3.376c2.04,1.015,3.061,3.285,3.061,6.813v23.686h12.058v-23.686
		c0.002-4.953,2.048-7.429,6.139-7.428c4.09,0,6.135,2.477,6.135,7.428v23.686h12.059v-25.084
		C540.775,595.517,538.98,591.606,535.392,588.955z"/>
	<rect x="676.5" y="557.999" width="12.069" height="67.664"/>
	<path d="M661.119,590.645c-2.267-2.771-6-5.171-12.391-5.171c-5.673,0-10.6,2.393-13.629,5.818
		c-3.423,3.872-5.119,8.693-5.119,14.438c0.002,5.816,1.744,10.701,5.227,14.652c3.483,3.951,8.098,5.926,13.844,5.926
		c2.082-0.002,4.273-0.396,6.574-1.184c2.584-0.863,4.415-2.012,5.494-3.447v3.986h11.747v-67.664h-11.747V590.645z
		 M661.119,609.822c0,1.867-1.096,3.682-3.287,5.439c-2.19,1.76-4.22,2.639-6.087,2.639c-3.089,0.004-5.53-1.289-7.326-3.877
		c-1.58-2.225-2.37-4.918-2.37-8.08c0-3.23,0.79-5.959,2.37-8.188c1.796-2.515,4.238-3.772,7.326-3.772
		c2.153,0,4.254,0.987,6.303,2.964c2.048,1.977,3.071,4.042,3.071,6.196V609.822z"/>
	<path d="M607.25,585.147c-6.105-0.001-11.151,1.938-15.139,5.819c-3.987,3.881-5.981,8.872-5.981,14.975
		c0.003,6.105,1.997,11.098,5.981,14.979c3.985,3.879,9.031,5.818,15.139,5.818c6.104-0.002,11.168-1.941,15.191-5.818
		c4.022-3.877,6.034-8.871,6.034-14.979c0.001-6.105-2.011-11.096-6.034-14.975C618.416,587.087,613.354,585.147,607.25,585.147z
		 M614.119,613.686c-1.67,2.379-3.96,3.568-6.868,3.57s-5.198-1.188-6.87-3.57c-1.453-2.094-2.179-4.656-2.179-7.686
		c-0.002-3.031,0.777-5.648,2.339-7.85c1.563-2.202,3.799-3.304,6.709-3.304c2.979,0,5.305,1.155,6.979,3.466
		c1.453,2.093,2.18,4.655,2.18,7.688C616.408,609.031,615.645,611.594,614.119,613.686z"/>
	<path d="M563.615,585.149c-6.106-0.003-11.152,1.936-15.138,5.817c-3.987,3.881-5.98,8.872-5.98,14.975
		c0,6.105,1.993,11.098,5.98,14.979c3.986,3.879,9.033,5.818,15.138,5.818c6.106,0,11.17-1.939,15.192-5.816
		c4.021-3.879,6.033-8.871,6.033-14.979c0.004-6.105-2.007-11.096-6.032-14.976C574.782,587.089,569.718,585.149,563.615,585.149z
		 M570.482,613.686c-1.669,2.379-3.958,3.568-6.868,3.57c-2.91,0.002-5.2-1.188-6.872-3.57c-1.453-2.094-2.179-4.656-2.179-7.686
		c-0.002-3.031,0.778-5.648,2.343-7.85c1.565-2.202,3.801-3.304,6.708-3.304c2.98,0,5.305,1.155,6.977,3.466
		c1.455,2.093,2.182,4.655,2.181,7.688C572.771,609.031,572.008,611.594,570.482,613.686z"/>
	<path d="M721.932,613.809c-0.141,1.398-2.967,4.848-8.942,4.848c-6.138,0-9.872-6.176-10.13-9.049l31.784,0.002
		c0-7.256-1.832-13.037-5.497-17.346c-3.95-4.669-9.444-7.003-16.483-7.003c-6.467,0-11.729,1.885-15.786,5.656
		s-6.086,8.852-6.086,15.244c0,6.18,2.025,11.189,6.086,15.031s9.713,5.764,15.891,5.764c14.854,0,20.491-9.012,21.878-13.254
		L721.932,613.809z M706.577,595.708c1.687-1.724,3.788-2.585,6.304-2.585c2.438,0.001,4.593,0.899,6.464,2.694
		c1.651,1.651,2.729,3.77,3.232,6.356h-19.393C703.76,599.585,704.891,597.431,706.577,595.708z"/>
</g>
</svg>
