<?xml version="1.0" encoding="utf-8"?>
<!-- Generator: Adobe Illustrator 15.1.0, SVG Export Plug-In . SVG Version: 6.00 Build 0)  -->
<!DOCTYPE svg PUBLIC "-//W3C//DTD SVG 1.0//EN" "http://www.w3.org/TR/2001/REC-SVG-20010904/DTD/svg10.dtd">
<svg version="1.0" id="Layer_3" xmlns="http://www.w3.org/2000/svg" xmlns:xlink="http://www.w3.org/1999/xlink" x="0px" y="0px"
	 width="283.46px" height="283.46px" viewBox="0 0 283.46 283.46" enable-background="new 0 0 283.46 283.46" xml:space="preserve">
<g>
	<path fill="#231F20" d="M271.375,7.084H155.73c-2.762,0-5,2.239-5,5V127.73c0,2.762,2.238,5,5,5h115.646c2.762,0,5-2.238,5-5
		V12.084C276.375,9.324,274.137,7.084,271.375,7.084z"/>
	<path fill="#231F20" d="M127.73,150.73H12.084c-2.761,0-5,2.238-5,5v115.646c0,2.762,2.239,5,5,5H127.73c2.762,0,5-2.238,5-5
		V155.73C132.73,152.968,130.492,150.73,127.73,150.73z"/>
	<path fill="#231F20" d="M271.375,150.73H155.73c-2.762,0-5,2.238-5,5v115.646c0,2.762,2.238,5,5,5h115.646c2.762,0,5-2.238,5-5
		V155.73C276.375,152.968,274.137,150.73,271.375,150.73z"/>
	<path fill="#231F20" d="M127.73,7.084H12.084c-2.761,0-5,2.239-5,5V127.73c0,2.762,2.239,5,5,5H127.73c2.762,0,5-2.238,5-5V12.084
		C132.73,9.324,130.492,7.084,127.73,7.084z"/>
</g>
</svg>
