<?xml version="1.0" encoding="utf-8"?>
<!-- Generator: Adobe Illustrator 15.1.0, SVG Export Plug-In . SVG Version: 6.00 Build 0)  -->
<!DOCTYPE svg PUBLIC "-//W3C//DTD SVG 1.1//EN" "http://www.w3.org/Graphics/SVG/1.1/DTD/svg11.dtd">
<svg version="1.1" id="Layer_1" xmlns="http://www.w3.org/2000/svg" xmlns:xlink="http://www.w3.org/1999/xlink" x="0px" y="0px"
	 width="283.465px" height="283.465px" viewBox="769.768 1108.267 283.465 283.465"
	 enable-background="new 769.768 1108.267 283.465 283.465" xml:space="preserve">
<g>
	<path fill="#FFC24A" d="M851.979,1117.121c0.039,0.012,0.077,0.024,0.116,0.037
		C852.056,1117.145,852.018,1117.133,851.979,1117.121z"/>
	<path fill="#FFC24A" d="M853.028,1117.565c0.035,0.019,0.07,0.039,0.104,0.059C853.098,1117.604,853.063,1117.584,853.028,1117.565
		z"/>
	<path fill="#FFC24A" d="M851.778,1117.063c0.039,0.01,0.078,0.021,0.116,0.032C851.855,1117.084,851.816,1117.073,851.778,1117.063
		z"/>
	<path fill="#FFC24A" d="M852.374,1117.258c0.063,0.024,0.126,0.05,0.188,0.077C852.5,1117.308,852.437,1117.282,852.374,1117.258z"
		/>
	<path fill="#FFC24A" d="M852.835,1117.464c0.037,0.019,0.073,0.037,0.109,0.056C852.908,1117.5,852.872,1117.482,852.835,1117.464z
		"/>
	<path fill="#FFC24A" d="M851.571,1117.013c0.041,0.009,0.082,0.019,0.123,0.028
		C851.652,1117.031,851.612,1117.022,851.571,1117.013z"/>
	<path fill="#FFC24A" d="M852.63,1117.366c0.042,0.019,0.083,0.038,0.124,0.057C852.713,1117.404,852.671,1117.385,852.63,1117.366z
		"/>
	<path fill="#FFC24A" d="M852.178,1117.186c0.042,0.015,0.084,0.03,0.126,0.046C852.262,1117.216,852.22,1117.2,852.178,1117.186z"
		/>
	<path fill="#FFC24A" d="M850.477,1116.88c0.042,0,0.083,0.002,0.125,0.004C850.561,1116.882,850.519,1116.881,850.477,1116.88z"/>
	<path fill="#FFC24A" d="M850.684,1116.888c0.042,0.002,0.084,0.006,0.126,0.009C850.768,1116.894,850.726,1116.89,850.684,1116.888
		z"/>
	<path fill="#FFC24A" d="M850.361,1116.878c-0.02,0-0.04,0.001-0.06,0.001c0.032,0,0.064,0,0.097,0
		C850.385,1116.879,850.373,1116.878,850.361,1116.878z"/>
	<path fill="#FFC24A" d="M851.343,1116.967c0.05,0.009,0.1,0.019,0.15,0.029C851.443,1116.985,851.392,1116.975,851.343,1116.967z"
		/>
	<path fill="#FFC24A" d="M851.092,1116.927c0.066,0.009,0.133,0.019,0.199,0.03C851.225,1116.946,851.158,1116.936,851.092,1116.927
		z"/>
	<path fill="#FFC24A" d="M850.889,1116.904c0.046,0.004,0.093,0.01,0.139,0.016C850.982,1116.913,850.935,1116.908,850.889,1116.904
		z"/>
	<path fill="#FFC24A" d="M850.062,1116.887c0.031-0.001,0.062-0.003,0.093-0.004
		C850.124,1116.884,850.093,1116.885,850.062,1116.887z"/>
	<path fill="#FFC24A" d="M854.864,1119.138c0.033,0.042,0.067,0.085,0.1,0.129C854.93,1119.223,854.897,1119.18,854.864,1119.138z"
		/>
	<path fill="#FFC24A" d="M854.661,1118.892c0.052,0.059,0.102,0.12,0.152,0.182C854.763,1119.012,854.713,1118.951,854.661,1118.892
		z"/>
	<path fill="#FFC24A" d="M853.216,1117.673c0.036,0.021,0.071,0.043,0.106,0.065
		C853.287,1117.716,853.252,1117.694,853.216,1117.673z"/>
	<path fill="#FFC24A" d="M855.304,1119.766c0.031,0.049,0.061,0.099,0.09,0.148C855.365,1119.865,855.335,1119.815,855.304,1119.766
		z"/>
	<path fill="#FFC24A" d="M855.438,1119.987c0.043,0.075,0.086,0.151,0.127,0.229
		C855.524,1120.138,855.481,1120.062,855.438,1119.987z"/>
	<path fill="#FFC24A" d="M855.166,1119.552c0.029,0.043,0.058,0.087,0.086,0.131
		C855.223,1119.639,855.195,1119.595,855.166,1119.552z"/>
	<path fill="#FFC24A" d="M854.504,1118.718c0.042,0.046,0.084,0.092,0.126,0.14C854.588,1118.81,854.546,1118.763,854.504,1118.718z
		"/>
	<path fill="#FFC24A" d="M855.02,1119.344c0.03,0.042,0.06,0.083,0.089,0.125C855.08,1119.427,855.05,1119.385,855.02,1119.344z"/>
	<path fill="#FFC24A" d="M853.581,1117.91c0.058,0.041,0.115,0.083,0.172,0.127C853.697,1117.994,853.639,1117.951,853.581,1117.91z
		"/>
	<path fill="#FFC24A" d="M854.341,1118.551c0.034,0.034,0.067,0.068,0.1,0.102C854.408,1118.618,854.375,1118.584,854.341,1118.551z
		"/>
	<path fill="#FFC24A" d="M853.4,1117.787c0.041,0.026,0.081,0.054,0.121,0.082C853.481,1117.842,853.441,1117.814,853.4,1117.787z"
		/>
	<path fill="#FFC24A" d="M853.818,1118.088c0.037,0.029,0.074,0.058,0.11,0.088C853.892,1118.146,853.855,1118.117,853.818,1118.088
		z"/>
	<path fill="#FFC24A" d="M854.001,1118.239c0.033,0.028,0.066,0.057,0.1,0.086C854.068,1118.295,854.034,1118.267,854.001,1118.239z
		"/>
	<path fill="#FFC24A" d="M854.174,1118.391c0.032,0.03,0.064,0.061,0.097,0.092C854.239,1118.451,854.206,1118.421,854.174,1118.391
		z"/>
	<path fill="#FFC24A" d="M849.592,1116.932c0.029-0.004,0.058-0.007,0.086-0.011C849.649,1116.925,849.62,1116.928,849.592,1116.932
		z"/>
	<path fill="#FFC24A" d="M845.582,1119.504c0.021-0.031,0.042-0.063,0.063-0.094
		C845.624,1119.441,845.603,1119.472,845.582,1119.504z"/>
	<path fill="#FFC24A" d="M845.443,1119.725c0.019-0.032,0.039-0.063,0.058-0.094
		C845.482,1119.662,845.462,1119.694,845.443,1119.725z"/>
	<path fill="#FFC24A" d="M845.312,1119.955c0.016-0.03,0.033-0.059,0.049-0.088C845.345,1119.896,845.328,1119.925,845.312,1119.955
		z"/>
	<path fill="#FFC24A" d="M845.729,1119.29c0.021-0.03,0.043-0.061,0.066-0.09C845.773,1119.229,845.751,1119.26,845.729,1119.29z"/>
	<path fill="#FFC24A" d="M845.885,1119.082c0.022-0.028,0.043-0.056,0.066-0.083
		C845.929,1119.026,845.907,1119.054,845.885,1119.082z"/>
	<path fill="#FFC24A" d="M846.28,1118.628c0.019-0.02,0.038-0.038,0.057-0.057C846.318,1118.59,846.298,1118.608,846.28,1118.628z"
		/>
	<path fill="#FFC24A" d="M846.055,1118.875c0.02-0.023,0.039-0.046,0.059-0.069C846.094,1118.829,846.075,1118.852,846.055,1118.875
		z"/>
	<path fill="#FFC24A" d="M845.19,1120.193c0.008-0.016,0.016-0.031,0.024-0.047C845.206,1120.161,845.198,1120.177,845.19,1120.193z
		"/>
	<path fill="#FFC24A" d="M844.839,1121.066c0.012-0.037,0.024-0.074,0.037-0.11C844.863,1120.992,844.85,1121.03,844.839,1121.066z"
		/>
	<path fill="#FFC24A" d="M844.755,1121.343c0.011-0.038,0.021-0.075,0.033-0.112
		C844.776,1121.268,844.765,1121.305,844.755,1121.343z"/>
	<path fill="#FFC24A" d="M844.681,1121.627c0.009-0.038,0.019-0.074,0.028-0.111C844.699,1121.553,844.69,1121.59,844.681,1121.627z
		"/>
	<path fill="#FFC24A" d="M845.042,1120.521c0.012-0.028,0.023-0.057,0.035-0.084
		C845.065,1120.464,845.053,1120.493,845.042,1120.521z"/>
	<path fill="#FFC24A" d="M844.933,1120.795c0.013-0.034,0.025-0.069,0.038-0.103C844.958,1120.726,844.946,1120.76,844.933,1120.795
		z"/>
	<path fill="#FFC24A" d="M846.455,1118.454c0.025-0.024,0.051-0.047,0.077-0.071C846.506,1118.406,846.48,1118.43,846.455,1118.454z
		"/>
	<path fill="#FFC24A" d="M847.22,1117.841c0.028-0.019,0.056-0.039,0.085-0.057C847.276,1117.802,847.248,1117.822,847.22,1117.841z
		"/>
	<path fill="#FFC24A" d="M848.819,1117.096c0.028-0.008,0.056-0.017,0.084-0.024C848.875,1117.08,848.847,1117.088,848.819,1117.096
		z"/>
	<path fill="#FFC24A" d="M848.586,1117.169c0.031-0.01,0.062-0.021,0.093-0.031C848.647,1117.148,848.616,1117.158,848.586,1117.169
		z"/>
	<path fill="#FFC24A" d="M848.36,1117.249c0.031-0.012,0.063-0.024,0.095-0.035C848.423,1117.225,848.391,1117.237,848.36,1117.249z
		"/>
	<path fill="#FFC24A" d="M846.636,1118.288c0.027-0.024,0.056-0.047,0.083-0.071
		C846.692,1118.241,846.664,1118.264,846.636,1118.288z"/>
	<path fill="#FFC24A" d="M848.139,1117.339c0.031-0.013,0.063-0.026,0.094-0.039
		C848.202,1117.312,848.171,1117.325,848.139,1117.339z"/>
	<path fill="#FFC24A" d="M849.36,1116.969c0.022-0.004,0.045-0.007,0.067-0.011C849.405,1116.962,849.382,1116.965,849.36,1116.969z
		"/>
	<path fill="#FFC24A" d="M849.081,1117.028c0.017-0.004,0.033-0.008,0.05-0.012C849.115,1117.019,849.098,1117.024,849.081,1117.028
		z"/>
	<path fill="#FFC24A" d="M849.826,1116.905c0.03-0.003,0.061-0.005,0.092-0.008C849.887,1116.899,849.856,1116.902,849.826,1116.905
		z"/>
	<path fill="#FFC24A" d="M847.018,1117.982c0.029-0.021,0.058-0.042,0.087-0.063C847.076,1117.94,847.047,1117.961,847.018,1117.982
		z"/>
	<path fill="#FFC24A" d="M846.824,1118.131c0.028-0.023,0.057-0.045,0.086-0.068
		C846.882,1118.086,846.853,1118.108,846.824,1118.131z"/>
	<path fill="#FFC24A" d="M847.439,1117.7c0.023-0.014,0.046-0.028,0.069-0.042C847.485,1117.672,847.462,1117.687,847.439,1117.7z"
		/>
	<path fill="#FFC24A" d="M847.711,1117.544c0.023-0.013,0.047-0.024,0.071-0.036C847.759,1117.52,847.735,1117.531,847.711,1117.544
		z"/>
	<path fill="#FFC24A" d="M847.923,1117.437c0.029-0.014,0.059-0.028,0.088-0.041
		C847.982,1117.409,847.952,1117.423,847.923,1117.437z"/>
	<path fill="#FFC24A" d="M844.617,1121.918c0.006-0.032,0.014-0.063,0.021-0.095
		C844.631,1121.854,844.624,1121.885,844.617,1121.918z"/>
	<path d="M885.857,1183.256l1.522-2.889l-31.814-60.151c-0.042-0.078-0.084-0.154-0.127-0.229c-0.014-0.024-0.029-0.048-0.043-0.073
		c-0.03-0.05-0.06-0.1-0.09-0.148c-0.017-0.028-0.035-0.055-0.052-0.083c-0.029-0.044-0.058-0.088-0.086-0.131
		c-0.019-0.028-0.038-0.055-0.057-0.083c-0.029-0.042-0.059-0.084-0.089-0.125c-0.019-0.026-0.038-0.052-0.057-0.077
		c-0.033-0.044-0.066-0.086-0.1-0.129c-0.017-0.021-0.033-0.043-0.05-0.064c-0.05-0.062-0.1-0.123-0.152-0.182
		c-0.01-0.012-0.021-0.023-0.032-0.035c-0.042-0.047-0.083-0.094-0.126-0.14c-0.021-0.022-0.042-0.043-0.063-0.065
		c-0.033-0.034-0.066-0.068-0.1-0.102c-0.023-0.023-0.047-0.045-0.07-0.068c-0.032-0.031-0.064-0.062-0.097-0.092
		c-0.024-0.022-0.049-0.044-0.073-0.066c-0.033-0.03-0.066-0.058-0.1-0.086c-0.024-0.021-0.048-0.042-0.073-0.062
		c-0.037-0.03-0.074-0.059-0.11-0.088c-0.021-0.017-0.043-0.034-0.064-0.051c-0.057-0.043-0.115-0.086-0.172-0.127
		c-0.02-0.014-0.041-0.027-0.061-0.042c-0.04-0.027-0.08-0.055-0.121-0.082c-0.026-0.017-0.052-0.033-0.078-0.049
		c-0.035-0.022-0.07-0.044-0.106-0.065c-0.028-0.017-0.056-0.033-0.083-0.049c-0.035-0.02-0.069-0.04-0.104-0.059
		c-0.028-0.015-0.056-0.031-0.084-0.045c-0.036-0.019-0.072-0.037-0.109-0.056c-0.027-0.013-0.054-0.027-0.082-0.041
		c-0.041-0.02-0.083-0.038-0.124-0.057c-0.022-0.01-0.045-0.021-0.067-0.031c-0.063-0.027-0.125-0.053-0.188-0.077
		c-0.023-0.009-0.046-0.018-0.069-0.026c-0.042-0.016-0.084-0.032-0.126-0.046c-0.028-0.01-0.055-0.019-0.083-0.028
		c-0.039-0.013-0.077-0.025-0.116-0.037c-0.029-0.009-0.057-0.017-0.085-0.025c-0.039-0.011-0.078-0.022-0.116-0.032
		c-0.028-0.007-0.056-0.015-0.084-0.022c-0.041-0.01-0.082-0.02-0.123-0.028c-0.026-0.006-0.052-0.012-0.078-0.018
		c-0.05-0.01-0.1-0.02-0.15-0.029c-0.017-0.003-0.034-0.007-0.051-0.01c-0.066-0.011-0.133-0.021-0.199-0.03
		c-0.021-0.003-0.043-0.005-0.064-0.007c-0.046-0.006-0.092-0.011-0.139-0.016c-0.026-0.002-0.052-0.004-0.079-0.006
		c-0.042-0.003-0.084-0.007-0.126-0.009c-0.027-0.001-0.055-0.003-0.082-0.004c-0.042-0.002-0.083-0.003-0.125-0.004
		c-0.026-0.001-0.053-0.001-0.08-0.001c-0.032,0-0.064,0-0.097,0c-0.049,0-0.098,0.001-0.146,0.003
		c-0.031,0.001-0.063,0.003-0.093,0.004c-0.048,0.002-0.096,0.006-0.144,0.01c-0.031,0.002-0.062,0.005-0.092,0.008
		c-0.049,0.005-0.099,0.01-0.148,0.017c-0.029,0.003-0.058,0.007-0.086,0.011c-0.055,0.008-0.11,0.017-0.165,0.026
		c-0.022,0.004-0.045,0.007-0.067,0.011c-0.076,0.014-0.152,0.029-0.229,0.046c-0.017,0.004-0.033,0.008-0.05,0.012
		c-0.06,0.014-0.119,0.028-0.178,0.044c-0.028,0.008-0.056,0.016-0.084,0.024c-0.047,0.013-0.094,0.027-0.141,0.042
		c-0.031,0.01-0.062,0.021-0.093,0.031c-0.044,0.015-0.087,0.03-0.131,0.045c-0.032,0.011-0.063,0.023-0.095,0.035
		c-0.042,0.016-0.085,0.033-0.127,0.05c-0.031,0.013-0.063,0.026-0.094,0.039c-0.043,0.019-0.085,0.038-0.128,0.058
		c-0.029,0.013-0.059,0.027-0.088,0.041c-0.047,0.022-0.094,0.046-0.141,0.071c-0.024,0.012-0.048,0.023-0.071,0.036
		c-0.068,0.037-0.136,0.075-0.203,0.114c-0.023,0.014-0.046,0.029-0.069,0.042c-0.045,0.027-0.09,0.055-0.134,0.083
		c-0.029,0.018-0.057,0.038-0.085,0.057c-0.038,0.026-0.077,0.051-0.114,0.078c-0.029,0.021-0.059,0.042-0.087,0.063
		c-0.036,0.026-0.072,0.053-0.107,0.081c-0.029,0.022-0.058,0.045-0.086,0.068c-0.035,0.028-0.07,0.057-0.104,0.086
		c-0.028,0.024-0.056,0.047-0.083,0.071c-0.035,0.031-0.07,0.063-0.105,0.095c-0.025,0.023-0.051,0.047-0.077,0.071
		c-0.04,0.038-0.079,0.077-0.118,0.117c-0.019,0.019-0.039,0.038-0.057,0.057c-0.056,0.058-0.111,0.118-0.165,0.179
		c-0.02,0.022-0.04,0.046-0.059,0.069c-0.035,0.041-0.07,0.081-0.104,0.123c-0.022,0.027-0.044,0.056-0.066,0.083
		c-0.031,0.039-0.061,0.078-0.09,0.118c-0.022,0.03-0.044,0.06-0.066,0.09c-0.028,0.04-0.057,0.08-0.084,0.12
		c-0.021,0.031-0.042,0.063-0.063,0.094c-0.027,0.042-0.054,0.084-0.081,0.127c-0.02,0.031-0.039,0.063-0.058,0.094
		c-0.028,0.047-0.055,0.094-0.082,0.142c-0.017,0.029-0.033,0.058-0.049,0.088c-0.034,0.063-0.066,0.126-0.099,0.19
		c-0.008,0.016-0.016,0.031-0.024,0.047c-0.039,0.08-0.077,0.161-0.113,0.244c-0.012,0.027-0.023,0.056-0.035,0.084
		c-0.024,0.057-0.048,0.113-0.07,0.171c-0.013,0.034-0.025,0.069-0.038,0.103c-0.02,0.053-0.04,0.107-0.058,0.162
		c-0.013,0.036-0.025,0.073-0.037,0.11c-0.018,0.055-0.035,0.109-0.051,0.165c-0.011,0.037-0.022,0.075-0.033,0.112
		c-0.016,0.057-0.031,0.115-0.046,0.173c-0.009,0.037-0.019,0.073-0.028,0.111c-0.015,0.064-0.029,0.129-0.043,0.195
		c-0.007,0.032-0.014,0.063-0.021,0.095c-0.019,0.098-0.037,0.198-0.053,0.298l-30.991,198.195L885.857,1183.256z"/>
	<path fill="#F4BD62" d="M914.336,1157.922c0.019,0.028,0.037,0.055,0.055,0.083
		C914.373,1157.976,914.355,1157.949,914.336,1157.922z"/>
	<path fill="#F4BD62" d="M911.335,1155.431c0.02,0.008,0.039,0.016,0.059,0.023C911.374,1155.447,911.355,1155.439,911.335,1155.431
		z"/>
	<path fill="#F4BD62" d="M911.135,1155.355c0.023,0.009,0.048,0.017,0.071,0.026
		C911.183,1155.372,911.158,1155.364,911.135,1155.355z"/>
	<path fill="#F4BD62" d="M911.556,1155.525c0.008,0.003,0.016,0.007,0.023,0.01C911.572,1155.531,911.564,1155.528,911.556,1155.525
		z"/>
	<path fill="#F4BD62" d="M910.745,1155.229c0.027,0.008,0.055,0.016,0.083,0.024
		C910.801,1155.245,910.773,1155.237,910.745,1155.229z"/>
	<path fill="#F4BD62" d="M910.94,1155.288c0.026,0.008,0.052,0.016,0.078,0.025C910.991,1155.304,910.966,1155.297,910.94,1155.288z
		"/>
	<path fill="#F4BD62" d="M912.128,1155.819c0.021,0.012,0.041,0.025,0.063,0.038
		C912.169,1155.844,912.149,1155.831,912.128,1155.819z"/>
	<path fill="#F4BD62" d="M911.766,1155.624c0.005,0.002,0.009,0.004,0.014,0.007
		C911.775,1155.628,911.771,1155.626,911.766,1155.624z"/>
	<path fill="#F4BD62" d="M911.948,1155.718c0.017,0.009,0.033,0.019,0.051,0.028
		C911.982,1155.737,911.965,1155.727,911.948,1155.718z"/>
	<path fill="#F4BD62" d="M909.969,1155.067c0.03,0.004,0.06,0.008,0.09,0.013C910.029,1155.075,909.999,1155.071,909.969,1155.067z"
		/>
	<path fill="#F4BD62" d="M909.223,1155.014c-0.012,0-0.024,0-0.036,0c0.031,0,0.063,0,0.094,0
		C909.262,1155.015,909.243,1155.014,909.223,1155.014z"/>
	<path fill="#F4BD62" d="M909.385,1155.017c0.031,0.001,0.061,0.002,0.092,0.004C909.446,1155.02,909.415,1155.018,909.385,1155.017
		z"/>
	<path fill="#F4BD62" d="M909.774,1155.043c0.03,0.003,0.06,0.006,0.09,0.01C909.834,1155.05,909.804,1155.046,909.774,1155.043z"/>
	<path fill="#F4BD62" d="M910.358,1155.134c0.029,0.006,0.058,0.012,0.087,0.019C910.416,1155.146,910.386,1155.14,910.358,1155.134
		z"/>
	<path fill="#F4BD62" d="M912.306,1155.927c0.022,0.014,0.045,0.029,0.066,0.043C912.351,1155.955,912.328,1155.94,912.306,1155.927
		z"/>
	<path fill="#F4BD62" d="M910.552,1155.178c0.028,0.007,0.057,0.014,0.085,0.021C910.608,1155.192,910.58,1155.185,910.552,1155.178
		z"/>
	<path fill="#F4BD62" d="M910.163,1155.096c0.029,0.005,0.059,0.011,0.089,0.016
		C910.222,1155.107,910.193,1155.102,910.163,1155.096z"/>
	<path fill="#F4BD62" d="M909.579,1155.027c0.03,0.002,0.061,0.004,0.091,0.007C909.64,1155.031,909.61,1155.029,909.579,1155.027z"
		/>
	<path fill="#F4BD62" d="M914.064,1157.542c0.021,0.026,0.041,0.053,0.062,0.08C914.105,1157.594,914.084,1157.568,914.064,1157.542
		z"/>
	<path fill="#F4BD62" d="M914.202,1157.728c0.02,0.027,0.039,0.054,0.058,0.082C914.241,1157.782,914.222,1157.755,914.202,1157.728
		z"/>
	<path fill="#F4BD62" d="M913.922,1157.362c0.021,0.026,0.042,0.052,0.063,0.078
		C913.964,1157.414,913.943,1157.388,913.922,1157.362z"/>
	<path fill="#F4BD62" d="M914.468,1158.126c0.017,0.026,0.033,0.052,0.049,0.079
		C914.501,1158.177,914.485,1158.152,914.468,1158.126z"/>
	<path fill="#F4BD62" d="M912.482,1156.041c0.022,0.016,0.046,0.032,0.068,0.048
		C912.528,1156.073,912.504,1156.056,912.482,1156.041z"/>
	<path fill="#F4BD62" d="M914.599,1158.344c0.013,0.022,0.026,0.045,0.039,0.067
		C914.625,1158.388,914.612,1158.366,914.599,1158.344z"/>
	<path fill="#F4BD62" d="M913.776,1157.189c0.022,0.025,0.044,0.05,0.065,0.075C913.82,1157.239,913.798,1157.214,913.776,1157.189z
		"/>
	<path fill="#F4BD62" d="M904.443,1157.964c-0.037,0.066-0.073,0.134-0.109,0.203
		C904.369,1158.098,904.406,1158.031,904.443,1157.964z"/>
	<path fill="#F4BD62" d="M912.823,1156.288c0.024,0.019,0.048,0.038,0.071,0.056
		C912.871,1156.326,912.848,1156.307,912.823,1156.288z"/>
	<path fill="#F4BD62" d="M912.654,1156.161c0.023,0.017,0.047,0.035,0.071,0.052C912.7,1156.196,912.677,1156.178,912.654,1156.161z
		"/>
	<path fill="#F4BD62" d="M912.99,1156.422c0.023,0.02,0.048,0.04,0.071,0.06C913.038,1156.462,913.014,1156.442,912.99,1156.422z"/>
	<path fill="#F4BD62" d="M913.315,1156.709c0.023,0.022,0.047,0.044,0.069,0.067
		C913.362,1156.754,913.338,1156.731,913.315,1156.709z"/>
	<path fill="#F4BD62" d="M913.472,1156.863c0.023,0.023,0.046,0.046,0.068,0.07C913.518,1156.909,913.495,1156.886,913.472,1156.863
		z"/>
	<path fill="#F4BD62" d="M913.625,1157.023c0.022,0.024,0.045,0.048,0.067,0.072C913.67,1157.071,913.648,1157.047,913.625,1157.023
		z"/>
	<path fill="#F4BD62" d="M913.155,1156.563c0.023,0.021,0.047,0.042,0.07,0.063C913.201,1156.605,913.178,1156.583,913.155,1156.563
		z"/>
	<path fill="#F4BD62" d="M907.538,1155.291c0.039-0.013,0.078-0.026,0.117-0.039
		C907.616,1155.264,907.577,1155.278,907.538,1155.291z"/>
	<path fill="#F4BD62" d="M905.679,1156.391c0.029-0.026,0.058-0.052,0.087-0.077
		C905.738,1156.339,905.708,1156.365,905.679,1156.391z"/>
	<path fill="#F4BD62" d="M905.533,1156.529c0.028-0.027,0.056-0.054,0.084-0.08C905.589,1156.475,905.561,1156.502,905.533,1156.529
		z"/>
	<path fill="#F4BD62" d="M909.004,1155.02c0.034-0.001,0.068-0.002,0.102-0.003C909.072,1155.017,909.037,1155.018,909.004,1155.02z
		"/>
	<path fill="#F4BD62" d="M905.249,1156.825c0.026-0.029,0.053-0.059,0.079-0.087
		C905.302,1156.767,905.276,1156.796,905.249,1156.825z"/>
	<path fill="#F4BD62" d="M906.139,1156.017c0.032-0.023,0.065-0.046,0.098-0.069C906.204,1155.97,906.171,1155.993,906.139,1156.017
		z"/>
	<path fill="#F4BD62" d="M905.983,1156.135c0.031-0.024,0.062-0.047,0.093-0.071
		C906.045,1156.087,906.013,1156.111,905.983,1156.135z"/>
	<path fill="#F4BD62" d="M905.83,1156.26c0.03-0.025,0.06-0.05,0.09-0.074C905.889,1156.21,905.86,1156.234,905.83,1156.26z"/>
	<path fill="#F4BD62" d="M905.113,1156.985c0.025-0.031,0.051-0.062,0.077-0.091
		C905.164,1156.923,905.138,1156.954,905.113,1156.985z"/>
	<path fill="#F4BD62" d="M904.603,1157.695c0.024-0.038,0.048-0.077,0.072-0.115
		C904.651,1157.618,904.627,1157.656,904.603,1157.695z"/>
	<path fill="#F4BD62" d="M906.298,1155.906c0.034-0.023,0.069-0.045,0.104-0.068C906.366,1155.86,906.332,1155.883,906.298,1155.906
		z"/>
	<path fill="#F4BD62" d="M904.725,1157.505c0.024-0.036,0.048-0.071,0.072-0.106
		C904.773,1157.433,904.749,1157.469,904.725,1157.505z"/>
	<path fill="#F4BD62" d="M904.48,1157.9c0.025-0.044,0.05-0.088,0.076-0.131C904.531,1157.812,904.506,1157.856,904.48,1157.9z"/>
	<path fill="#F4BD62" d="M904.98,1157.15c0.025-0.032,0.05-0.064,0.075-0.096C905.03,1157.086,905.005,1157.118,904.98,1157.15z"/>
	<path fill="#F4BD62" d="M904.851,1157.323c0.024-0.034,0.048-0.067,0.073-0.1C904.9,1157.256,904.875,1157.289,904.851,1157.323z"
		/>
	<path fill="#F4BD62" d="M905.389,1156.674c0.027-0.028,0.054-0.056,0.082-0.083
		C905.444,1156.617,905.416,1156.646,905.389,1156.674z"/>
	<path fill="#F4BD62" d="M908.452,1155.071c0.034-0.005,0.068-0.01,0.103-0.014C908.52,1155.061,908.486,1155.066,908.452,1155.071z
		"/>
	<path fill="#F4BD62" d="M908.269,1155.101c0.035-0.006,0.069-0.012,0.104-0.018
		C908.338,1155.089,908.303,1155.095,908.269,1155.101z"/>
	<path fill="#F4BD62" d="M908.086,1155.138c0.035-0.007,0.07-0.015,0.105-0.022C908.156,1155.123,908.121,1155.131,908.086,1155.138
		z"/>
	<path fill="#F4BD62" d="M907.905,1155.182c0.036-0.009,0.071-0.019,0.107-0.027C907.976,1155.163,907.94,1155.173,907.905,1155.182
		z"/>
	<path fill="#F4BD62" d="M906.459,1155.801c0.037-0.023,0.075-0.045,0.112-0.067
		C906.533,1155.756,906.496,1155.778,906.459,1155.801z"/>
	<path fill="#F4BD62" d="M908.819,1155.031c0.034-0.003,0.068-0.005,0.102-0.007
		C908.887,1155.026,908.853,1155.028,908.819,1155.031z"/>
	<path fill="#F4BD62" d="M908.635,1155.048c0.034-0.004,0.068-0.007,0.103-0.01C908.703,1155.04,908.669,1155.044,908.635,1155.048z
		"/>
	<path fill="#F4BD62" d="M907.137,1155.445c0.055-0.024,0.111-0.047,0.167-0.069
		C907.249,1155.398,907.193,1155.421,907.137,1155.445z"/>
	<path fill="#F4BD62" d="M906.789,1155.612c0.113-0.06,0.228-0.114,0.343-0.165C907.017,1155.497,906.902,1155.552,906.789,1155.612
		z"/>
	<path fill="#F4BD62" d="M907.722,1155.232c0.037-0.011,0.074-0.021,0.111-0.032
		C907.796,1155.211,907.759,1155.221,907.722,1155.232z"/>
	<path fill="#F4BD62" d="M907.35,1155.359c0.043-0.017,0.086-0.033,0.129-0.048C907.436,1155.326,907.393,1155.342,907.35,1155.359z
		"/>
	<path fill="#F4BD62" d="M906.623,1155.703c0.042-0.024,0.084-0.047,0.127-0.07C906.707,1155.656,906.665,1155.679,906.623,1155.703
		z"/>
	<polygon points="909.934,1231.293 887.9,1189.306 816.95,1323.931 	"/>
	<path fill="#FDE068" d="M973.23,1173.452c0.018-0.015,0.035-0.03,0.053-0.045C973.265,1173.422,973.247,1173.438,973.23,1173.452z"
		/>
	<path fill="#FDE068" d="M978.169,1172.277L978.169,1172.277L978.169,1172.277z"/>
	<path fill="#FDE068" d="M978.375,1172.343c0.018,0.006,0.036,0.013,0.055,0.02C978.411,1172.356,978.393,1172.349,978.375,1172.343
		z"/>
	<path fill="#FDE068" d="M978.581,1172.42c0.02,0.008,0.039,0.016,0.059,0.023C978.62,1172.435,978.601,1172.427,978.581,1172.42z"
		/>
	<path fill="#FDE068" d="M978.813,1172.517c0.008,0.004,0.017,0.007,0.025,0.011
		C978.829,1172.525,978.821,1172.521,978.813,1172.517z"/>
	<path fill="#FDE068" d="M977.686,1172.159c0.021,0.004,0.041,0.008,0.063,0.013
		C977.727,1172.168,977.706,1172.163,977.686,1172.159z"/>
	<path fill="#FDE068" d="M977.474,1172.123c0.008,0.001,0.016,0.002,0.023,0.004C977.49,1172.126,977.482,1172.124,977.474,1172.123
		z"/>
	<path fill="#FDE068" d="M977.904,1172.206c0.02,0.005,0.039,0.009,0.06,0.014C977.943,1172.216,977.923,1172.211,977.904,1172.206z
		"/>
	<path fill="#FDE068" d="M979.034,1172.624c0.015,0.008,0.03,0.016,0.045,0.024C979.065,1172.64,979.049,1172.632,979.034,1172.624z
		"/>
	<path fill="#FDE068" d="M980.559,1173.794c0.015,0.015,0.028,0.03,0.042,0.045C980.587,1173.824,980.573,1173.809,980.559,1173.794
		z"/>
	<path fill="#FDE068" d="M980.395,1173.622c0.016,0.015,0.03,0.03,0.045,0.045C980.425,1173.653,980.41,1173.637,980.395,1173.622z"
		/>
	<path fill="#FDE068" d="M977.203,1172.092c0.019,0.002,0.038,0.003,0.058,0.005
		C977.241,1172.095,977.222,1172.094,977.203,1172.092z"/>
	<path fill="#FDE068" d="M980.233,1173.465c0.005,0.004,0.009,0.009,0.014,0.013
		C980.241,1173.474,980.238,1173.469,980.233,1173.465z"/>
	<path fill="#FDE068" d="M980.021,1173.28c0.014,0.011,0.027,0.022,0.041,0.034C980.048,1173.302,980.034,1173.291,980.021,1173.28z
		"/>
	<path fill="#FDE068" d="M980.898,1174.198c0.014,0.017,0.025,0.034,0.038,0.05C980.923,1174.232,980.911,1174.215,980.898,1174.198
		z"/>
	<path fill="#FDE068" d="M979.435,1172.853c0.013,0.007,0.024,0.015,0.037,0.022
		C979.459,1172.868,979.448,1172.861,979.435,1172.853z"/>
	<path fill="#FDE068" d="M979.836,1173.132c0.017,0.013,0.033,0.026,0.05,0.039C979.869,1173.157,979.853,1173.145,979.836,1173.132
		z"/>
	<path fill="#FDE068" d="M979.656,1173c0.011,0.007,0.021,0.015,0.031,0.023C979.677,1173.015,979.667,1173.007,979.656,1173z"/>
	<path fill="#FDE068" d="M974.215,1172.762c0.021-0.012,0.042-0.023,0.063-0.035C974.257,1172.74,974.236,1172.751,974.215,1172.762
		z"/>
	<path fill="#FDE068" d="M974.446,1172.639c0.021-0.011,0.043-0.021,0.064-0.032
		C974.489,1172.618,974.467,1172.629,974.446,1172.639z"/>
	<path fill="#FDE068" d="M973.962,1172.913c0.012-0.007,0.023-0.015,0.035-0.022
		C973.986,1172.898,973.974,1172.906,973.962,1172.913z"/>
	<path fill="#FDE068" d="M974.731,1172.505c0.011-0.004,0.021-0.009,0.032-0.013C974.752,1172.496,974.741,1172.5,974.731,1172.505z
		"/>
	<path fill="#FDE068" d="M974.957,1172.413c0.023-0.009,0.046-0.018,0.069-0.026
		C975.003,1172.395,974.981,1172.404,974.957,1172.413z"/>
	<path fill="#FDE068" d="M973.007,1173.65c0.021-0.018,0.04-0.036,0.061-0.054C973.047,1173.614,973.028,1173.632,973.007,1173.65z"
		/>
	<path fill="#FDE068" d="M973.493,1173.239c0.016-0.011,0.03-0.022,0.046-0.034C973.524,1173.217,973.509,1173.228,973.493,1173.239
		z"/>
	<path fill="#FDE068" d="M973.712,1173.08c0.021-0.015,0.043-0.03,0.065-0.045C973.755,1173.05,973.734,1173.065,973.712,1173.08z"
		/>
	<path fill="#FDE068" d="M975.714,1172.187c0.022-0.005,0.044-0.01,0.066-0.014C975.758,1172.177,975.737,1172.182,975.714,1172.187
		z"/>
	<path fill="#FDE068" d="M976.478,1172.081c0.019-0.001,0.037-0.002,0.055-0.003C976.515,1172.079,976.496,1172.08,976.478,1172.081
		z"/>
	<path fill="#FDE068" d="M976.769,1172.072c-0.004,0-0.007,0-0.01,0c0.015,0,0.029,0,0.044,0
		C976.791,1172.073,976.78,1172.072,976.769,1172.072z"/>
	<path fill="#FDE068" d="M976.236,1172.101c0.021-0.002,0.042-0.004,0.063-0.006
		C976.278,1172.097,976.257,1172.099,976.236,1172.101z"/>
	<path fill="#FDE068" d="M976,1172.133c0.003,0,0.005-0.001,0.008-0.001C976.005,1172.132,976.003,1172.132,976,1172.133z"/>
	<path fill="#FDE068" d="M975.481,1172.243c0.019-0.005,0.037-0.01,0.056-0.014C975.518,1172.234,975.499,1172.238,975.481,1172.243
		z"/>
	<path fill="#FDE068" d="M975.205,1172.325c0.017-0.005,0.034-0.011,0.051-0.017C975.24,1172.314,975.222,1172.32,975.205,1172.325z
		"/>
	<path fill="#FDE068" d="M976.976,1172.077c0.022,0.001,0.045,0.002,0.067,0.003
		C977.021,1172.079,976.998,1172.078,976.976,1172.077z"/>
	<path fill="#FDE068" d="M979.229,1172.73c0.019,0.01,0.036,0.021,0.055,0.031C979.265,1172.75,979.247,1172.74,979.229,1172.73z"/>
	<path fill="#FDE068" d="M981.04,1174.392c0.014,0.019,0.026,0.038,0.039,0.056C981.067,1174.43,981.054,1174.411,981.04,1174.392z"
		/>
	<path fill="#FDE068" d="M981.889,1176.082c0.007,0.022,0.015,0.044,0.022,0.066
		C981.904,1176.127,981.896,1176.104,981.889,1176.082z"/>
	<path fill="#FDE068" d="M981.797,1175.826c0.01,0.025,0.019,0.05,0.028,0.076C981.816,1175.876,981.807,1175.851,981.797,1175.826z
		"/>
	<path fill="#FDE068" d="M981.988,1176.398c0.004,0.013,0.007,0.026,0.011,0.039C981.994,1176.424,981.991,1176.41,981.988,1176.398
		z"/>
	<path fill="#FDE068" d="M982.117,1176.927c0.006,0.027,0.012,0.054,0.017,0.081
		C982.129,1176.981,982.123,1176.954,982.117,1176.927z"/>
	<path fill="#FDE068" d="M982.056,1176.655c0.006,0.027,0.013,0.055,0.02,0.082C982.069,1176.709,982.062,1176.682,982.056,1176.655
		z"/>
	<path fill="#FDE068" d="M981.577,1175.312c0.008,0.016,0.016,0.032,0.023,0.049
		C981.593,1175.344,981.585,1175.328,981.577,1175.312z"/>
	<path fill="#FDE068" d="M981.195,1174.622c0.006,0.008,0.012,0.017,0.017,0.025C981.206,1174.639,981.2,1174.631,981.195,1174.622z
		"/>
	<path fill="#FDE068" d="M981.337,1174.855c0.01,0.017,0.02,0.035,0.029,0.053C981.357,1174.89,981.347,1174.872,981.337,1174.855z"
		/>
	<path fill="#FDE068" d="M981.455,1175.071c0.013,0.022,0.023,0.044,0.035,0.067
		C981.479,1175.115,981.468,1175.093,981.455,1175.071z"/>
	<path fill="#FDE068" d="M981.702,1175.59c0.007,0.017,0.014,0.034,0.021,0.051C981.716,1175.623,981.709,1175.606,981.702,1175.59z
		"/>
	<path fill="#EEAB37" d="M908.919,1386.164c-0.073-0.002-0.146-0.002-0.219-0.004
		C908.773,1386.162,908.846,1386.162,908.919,1386.164z"/>
	<path fill="#EEAB37" d="M908.307,1386.141c-0.065-0.003-0.13-0.005-0.195-0.009
		C908.177,1386.136,908.242,1386.138,908.307,1386.141z"/>
	<path fill="#EEAB37" d="M910.133,1386.148c-0.085,0.004-0.17,0.009-0.255,0.012
		C909.963,1386.157,910.048,1386.152,910.133,1386.148z"/>
	<path fill="#EEAB37" d="M907.665,1386.097c-0.047-0.005-0.094-0.007-0.141-0.012
		C907.572,1386.091,907.618,1386.093,907.665,1386.097z"/>
	<path fill="#EEAB37" d="M909.291,1386.17c0.083,0,0.167-0.003,0.25-0.004c-0.084,0.001-0.168,0.004-0.251,0.004
		C909.29,1386.17,909.29,1386.17,909.291,1386.17z"/>
	<path fill="#EEAB37" d="M907.055,1386.034c-0.039-0.005-0.078-0.008-0.116-0.013
		C906.977,1386.026,907.016,1386.029,907.055,1386.034z"/>
	<path fill="#EEAB37" d="M901.344,1384.395c-0.031-0.014-0.063-0.027-0.094-0.042
		C901.281,1384.368,901.313,1384.382,901.344,1384.395z"/>
	<path fill="#EEAB37" d="M900.918,1384.188c-0.07-0.035-0.14-0.068-0.209-0.104C900.778,1384.12,900.848,1384.153,900.918,1384.188z
		"/>
	<path fill="#EEAB37" d="M901.84,1384.621c-0.014-0.006-0.028-0.012-0.042-0.018C901.812,1384.609,901.826,1384.615,901.84,1384.621
		z"/>
	<path fill="#EEAB37" d="M910.719,1386.112c-0.084,0.007-0.169,0.015-0.253,0.021
		C910.551,1386.127,910.635,1386.119,910.719,1386.112z"/>
	<path fill="#EEAB37" d="M906.406,1385.945c-0.017-0.003-0.035-0.005-0.052-0.008
		C906.372,1385.94,906.389,1385.942,906.406,1385.945z"/>
	<path fill="#EEAB37" d="M905.806,1385.842c-0.011-0.002-0.022-0.004-0.034-0.006
		C905.783,1385.838,905.795,1385.84,905.806,1385.842z"/>
	<path fill="#EEAB37" d="M911.34,1386.054c-0.096,0.011-0.191,0.022-0.287,0.032C911.149,1386.077,911.244,1386.065,911.34,1386.054
		z"/>
	<path fill="#EEAB37" d="M914.333,1385.474c-0.124,0.035-0.249,0.071-0.374,0.104
		C914.084,1385.546,914.209,1385.51,914.333,1385.474z"/>
	<path fill="#EEAB37" d="M915.415,1385.135c-0.104,0.037-0.21,0.074-0.314,0.109C915.205,1385.21,915.311,1385.173,915.415,1385.135
		z"/>
	<path fill="#EEAB37" d="M916.277,1384.815c-0.018,0.007-0.035,0.015-0.053,0.021
		C916.241,1384.83,916.259,1384.822,916.277,1384.815z"/>
	<path fill="#EEAB37" d="M915.849,1384.98c-0.062,0.022-0.123,0.048-0.185,0.07C915.726,1385.028,915.787,1385.003,915.849,1384.98z
		"/>
	<path fill="#EEAB37" d="M914.916,1385.302c-0.128,0.04-0.256,0.081-0.384,0.119C914.66,1385.383,914.788,1385.342,914.916,1385.302
		z"/>
	<path fill="#EEAB37" d="M913.216,1385.751c-0.137,0.03-0.274,0.06-0.412,0.086C912.942,1385.81,913.079,1385.781,913.216,1385.751z
		"/>
	<path fill="#EEAB37" d="M912.604,1385.872c-0.127,0.022-0.254,0.046-0.381,0.066
		C912.35,1385.918,912.477,1385.894,912.604,1385.872z"/>
	<path fill="#EEAB37" d="M911.959,1385.975c-0.106,0.016-0.213,0.032-0.32,0.046
		C911.746,1386.008,911.853,1385.991,911.959,1385.975z"/>
	<path fill="#EEAB37" d="M913.794,1385.618c-0.137,0.033-0.273,0.067-0.411,0.099
		C913.521,1385.685,913.657,1385.651,913.794,1385.618z"/>
	<path d="M890.635,1184.557l22.674,43.206l23.068-23.625c0.228-0.514,0.55-0.993,0.965-1.407l0.377-0.377l-22.965-43.729
		c-0.037-0.072-0.076-0.143-0.116-0.213c-0.013-0.022-0.026-0.045-0.039-0.067c-0.027-0.047-0.054-0.093-0.082-0.139
		c-0.016-0.027-0.032-0.052-0.049-0.079c-0.025-0.041-0.051-0.082-0.077-0.122c-0.018-0.028-0.036-0.055-0.055-0.083
		c-0.025-0.037-0.05-0.075-0.076-0.112c-0.019-0.028-0.038-0.055-0.058-0.082c-0.026-0.036-0.052-0.072-0.077-0.106
		c-0.021-0.027-0.041-0.054-0.062-0.08c-0.026-0.034-0.052-0.068-0.079-0.102c-0.021-0.026-0.042-0.052-0.063-0.078
		c-0.027-0.033-0.054-0.065-0.081-0.098c-0.021-0.025-0.043-0.05-0.065-0.075c-0.027-0.032-0.055-0.063-0.083-0.094
		c-0.022-0.024-0.045-0.048-0.067-0.072c-0.027-0.03-0.056-0.061-0.085-0.09c-0.022-0.023-0.045-0.046-0.068-0.07
		c-0.029-0.029-0.058-0.058-0.088-0.086c-0.022-0.022-0.046-0.045-0.069-0.067c-0.029-0.028-0.06-0.056-0.09-0.083
		c-0.023-0.021-0.047-0.042-0.07-0.063c-0.031-0.027-0.062-0.054-0.093-0.081c-0.023-0.02-0.048-0.04-0.071-0.06
		c-0.031-0.026-0.063-0.052-0.096-0.078c-0.023-0.019-0.047-0.038-0.071-0.056c-0.032-0.025-0.065-0.05-0.099-0.075
		c-0.024-0.018-0.048-0.035-0.071-0.052c-0.034-0.025-0.068-0.049-0.104-0.073c-0.022-0.016-0.046-0.032-0.068-0.048
		c-0.036-0.024-0.072-0.048-0.109-0.071c-0.021-0.014-0.044-0.029-0.066-0.043c-0.038-0.024-0.077-0.047-0.115-0.07
		c-0.021-0.012-0.042-0.025-0.063-0.038c-0.043-0.025-0.086-0.048-0.129-0.072c-0.018-0.009-0.034-0.02-0.051-0.028
		c-0.057-0.03-0.112-0.06-0.169-0.087c-0.005-0.002-0.009-0.005-0.014-0.007c-0.062-0.031-0.124-0.061-0.187-0.089
		c-0.008-0.003-0.016-0.007-0.023-0.01c-0.054-0.024-0.108-0.048-0.162-0.07c-0.02-0.008-0.039-0.016-0.059-0.023
		c-0.043-0.017-0.086-0.034-0.129-0.05c-0.023-0.009-0.048-0.017-0.071-0.026c-0.039-0.014-0.078-0.028-0.117-0.042
		c-0.026-0.009-0.052-0.017-0.078-0.025c-0.038-0.012-0.075-0.024-0.112-0.035c-0.027-0.008-0.055-0.016-0.083-0.024
		c-0.036-0.01-0.072-0.021-0.108-0.03c-0.029-0.007-0.057-0.014-0.085-0.021c-0.036-0.009-0.071-0.017-0.107-0.025
		c-0.029-0.006-0.058-0.013-0.087-0.019c-0.035-0.007-0.07-0.015-0.105-0.021c-0.03-0.005-0.06-0.011-0.089-0.016
		c-0.035-0.006-0.07-0.012-0.105-0.017c-0.03-0.004-0.06-0.009-0.09-0.013c-0.035-0.005-0.069-0.009-0.104-0.014
		c-0.03-0.003-0.06-0.007-0.09-0.01c-0.035-0.003-0.069-0.007-0.104-0.01c-0.031-0.002-0.061-0.004-0.091-0.007
		c-0.034-0.002-0.069-0.004-0.103-0.005c-0.031-0.001-0.061-0.003-0.092-0.004c-0.034-0.001-0.068-0.001-0.103-0.002
		c-0.031,0-0.063,0-0.094,0c-0.027,0-0.055,0.001-0.082,0.001c-0.034,0.001-0.068,0.002-0.102,0.003
		c-0.028,0.001-0.055,0.002-0.083,0.004c-0.034,0.002-0.068,0.004-0.102,0.007c-0.027,0.002-0.054,0.004-0.082,0.007
		c-0.034,0.003-0.068,0.006-0.103,0.01c-0.027,0.003-0.054,0.006-0.081,0.009c-0.034,0.004-0.068,0.009-0.103,0.014
		c-0.026,0.004-0.053,0.008-0.08,0.012c-0.035,0.006-0.069,0.012-0.104,0.018c-0.026,0.005-0.052,0.009-0.077,0.015
		c-0.035,0.007-0.07,0.015-0.105,0.022c-0.025,0.006-0.05,0.011-0.075,0.017c-0.036,0.008-0.071,0.018-0.107,0.027
		c-0.024,0.006-0.048,0.012-0.072,0.019c-0.037,0.01-0.074,0.021-0.111,0.032c-0.022,0.007-0.044,0.013-0.067,0.02
		c-0.039,0.012-0.078,0.025-0.117,0.039c-0.02,0.007-0.04,0.013-0.059,0.02c-0.043,0.016-0.086,0.032-0.129,0.048
		c-0.015,0.005-0.03,0.011-0.045,0.017c-0.056,0.022-0.112,0.045-0.167,0.069c-0.002,0.001-0.003,0.001-0.005,0.002
		c-0.116,0.051-0.23,0.105-0.343,0.165c-0.013,0.007-0.026,0.014-0.039,0.021c-0.043,0.022-0.085,0.046-0.127,0.07
		c-0.018,0.01-0.035,0.021-0.052,0.031c-0.037,0.022-0.075,0.044-0.112,0.067c-0.019,0.012-0.038,0.024-0.058,0.037
		c-0.035,0.022-0.069,0.045-0.104,0.068c-0.021,0.014-0.041,0.028-0.061,0.042c-0.033,0.022-0.065,0.045-0.098,0.069
		c-0.021,0.015-0.042,0.031-0.063,0.047c-0.031,0.023-0.063,0.047-0.093,0.071c-0.021,0.017-0.042,0.034-0.063,0.051
		c-0.03,0.024-0.06,0.049-0.09,0.074c-0.021,0.018-0.042,0.036-0.063,0.054c-0.029,0.025-0.059,0.051-0.087,0.077
		c-0.021,0.019-0.042,0.038-0.063,0.058c-0.028,0.026-0.056,0.053-0.084,0.08c-0.021,0.021-0.042,0.041-0.062,0.062
		c-0.027,0.027-0.055,0.056-0.082,0.083c-0.021,0.021-0.041,0.043-0.061,0.064c-0.026,0.029-0.053,0.058-0.079,0.087
		c-0.02,0.022-0.04,0.045-0.059,0.068c-0.026,0.03-0.052,0.061-0.077,0.091c-0.02,0.023-0.039,0.046-0.058,0.07
		c-0.025,0.032-0.05,0.063-0.075,0.096c-0.019,0.024-0.038,0.048-0.056,0.073c-0.024,0.033-0.049,0.066-0.073,0.1
		c-0.018,0.025-0.036,0.05-0.054,0.075c-0.024,0.035-0.048,0.071-0.072,0.106c-0.017,0.025-0.034,0.05-0.05,0.075
		c-0.024,0.038-0.048,0.077-0.072,0.115c-0.016,0.025-0.031,0.049-0.046,0.074c-0.026,0.043-0.051,0.087-0.076,0.131
		c-0.012,0.021-0.025,0.042-0.038,0.064c-0.037,0.066-0.073,0.134-0.109,0.203L890.635,1184.557z"/>
	<path fill="#020202" d="M940.613,1206.004l0.144,0.273l-25.546,26.163h0.001h-0.001l-1.604,1.729l-99.592,99.223l-1.536,0.624
		l-0.727,0.727l88.424,49.055c0.177,0.099,0.355,0.195,0.535,0.287c0.069,0.036,0.139,0.069,0.209,0.104
		c0.111,0.055,0.221,0.111,0.333,0.165c0.031,0.015,0.063,0.028,0.094,0.042c0.151,0.071,0.302,0.142,0.454,0.208
		c0.014,0.006,0.028,0.012,0.042,0.018c1.272,0.553,2.592,0.958,3.933,1.215c0.011,0.002,0.023,0.004,0.034,0.006
		c0.183,0.034,0.366,0.067,0.549,0.096c0.017,0.003,0.035,0.005,0.052,0.008c0.177,0.027,0.354,0.054,0.532,0.076
		c0.039,0.005,0.078,0.008,0.116,0.013c0.156,0.019,0.313,0.037,0.47,0.052c0.047,0.005,0.094,0.007,0.141,0.012
		c0.149,0.013,0.298,0.025,0.447,0.035c0.065,0.004,0.13,0.006,0.195,0.009c0.131,0.007,0.262,0.015,0.393,0.019
		c0.073,0.002,0.146,0.002,0.219,0.004c0.124,0.002,0.247,0.006,0.37,0.006c0.083,0,0.167-0.003,0.251-0.004
		c0.112-0.002,0.225-0.002,0.337-0.006c0.085-0.003,0.17-0.008,0.255-0.012c0.111-0.005,0.222-0.009,0.333-0.016
		c0.084-0.006,0.169-0.014,0.253-0.021c0.111-0.008,0.223-0.016,0.333-0.025c0.096-0.01,0.191-0.021,0.287-0.032
		c0.1-0.011,0.199-0.021,0.299-0.033c0.107-0.014,0.214-0.03,0.32-0.046c0.088-0.012,0.176-0.023,0.264-0.037
		c0.127-0.021,0.254-0.044,0.381-0.066c0.067-0.013,0.134-0.022,0.2-0.035c0.138-0.026,0.275-0.056,0.412-0.086
		c0.056-0.012,0.111-0.021,0.167-0.034c0.138-0.031,0.274-0.065,0.411-0.099c0.055-0.014,0.11-0.026,0.165-0.04
		c0.125-0.032,0.25-0.068,0.374-0.104c0.066-0.019,0.133-0.035,0.199-0.054c0.128-0.038,0.256-0.079,0.384-0.119
		c0.062-0.02,0.123-0.037,0.185-0.057c0.104-0.035,0.21-0.072,0.314-0.109c0.083-0.028,0.167-0.056,0.249-0.085
		c0.062-0.022,0.123-0.048,0.185-0.07c0.125-0.047,0.25-0.094,0.375-0.144c0.018-0.007,0.035-0.015,0.053-0.021
		c0.723-0.291,1.433-0.629,2.123-1.015l0.001,0.001l89.235-49.768l-25.453-156.757c-0.015-0.091-0.031-0.181-0.049-0.27
		c-0.005-0.027-0.011-0.054-0.017-0.081c-0.014-0.064-0.027-0.127-0.042-0.19c-0.007-0.027-0.014-0.055-0.02-0.082
		c-0.019-0.073-0.038-0.146-0.058-0.218c-0.004-0.013-0.007-0.026-0.011-0.039c-0.024-0.084-0.05-0.167-0.076-0.249
		c-0.008-0.022-0.016-0.044-0.022-0.066c-0.021-0.061-0.042-0.121-0.063-0.181c-0.01-0.025-0.019-0.051-0.028-0.076
		c-0.023-0.063-0.049-0.125-0.074-0.186c-0.007-0.017-0.014-0.034-0.021-0.051c-0.032-0.078-0.066-0.154-0.102-0.229
		c-0.008-0.017-0.016-0.033-0.023-0.049c-0.028-0.059-0.057-0.117-0.087-0.175c-0.012-0.022-0.022-0.044-0.035-0.067
		c-0.028-0.055-0.059-0.109-0.089-0.163c-0.01-0.018-0.02-0.036-0.029-0.053c-0.041-0.07-0.083-0.14-0.126-0.208
		c-0.005-0.008-0.011-0.017-0.017-0.025c-0.037-0.059-0.075-0.117-0.115-0.174c-0.013-0.019-0.025-0.038-0.039-0.056
		c-0.034-0.049-0.069-0.097-0.104-0.144c-0.013-0.017-0.024-0.034-0.038-0.05c-0.095-0.125-0.194-0.244-0.297-0.358
		c-0.014-0.015-0.027-0.03-0.042-0.045c-0.039-0.043-0.079-0.085-0.119-0.126c-0.015-0.015-0.029-0.03-0.045-0.045
		c-0.049-0.049-0.098-0.097-0.148-0.144c-0.005-0.004-0.009-0.009-0.014-0.013c-0.057-0.052-0.113-0.102-0.171-0.151
		c-0.014-0.012-0.027-0.023-0.041-0.034c-0.044-0.037-0.089-0.074-0.135-0.109c-0.017-0.013-0.033-0.026-0.05-0.039
		c-0.049-0.037-0.099-0.074-0.148-0.109c-0.011-0.008-0.021-0.016-0.031-0.023c-0.061-0.043-0.123-0.084-0.185-0.124
		c-0.013-0.008-0.024-0.015-0.037-0.022c-0.05-0.032-0.101-0.063-0.151-0.092c-0.019-0.011-0.036-0.021-0.055-0.031
		c-0.05-0.028-0.1-0.055-0.149-0.082c-0.015-0.008-0.03-0.016-0.045-0.024c-0.065-0.033-0.131-0.065-0.196-0.096
		c-0.009-0.004-0.018-0.007-0.025-0.011c-0.058-0.026-0.115-0.051-0.173-0.074c-0.02-0.008-0.039-0.016-0.059-0.023
		c-0.05-0.02-0.101-0.039-0.151-0.057c-0.019-0.006-0.037-0.013-0.055-0.02c-0.068-0.023-0.138-0.046-0.206-0.066l0,0
		c-0.068-0.021-0.138-0.039-0.206-0.056c-0.021-0.005-0.04-0.009-0.06-0.014c-0.052-0.012-0.104-0.024-0.155-0.034
		c-0.021-0.004-0.042-0.009-0.063-0.013c-0.063-0.012-0.125-0.023-0.188-0.032c-0.008-0.001-0.016-0.003-0.023-0.004
		c-0.07-0.01-0.142-0.019-0.213-0.026c-0.02-0.002-0.039-0.003-0.058-0.005c-0.054-0.004-0.107-0.008-0.16-0.012
		c-0.022-0.001-0.045-0.002-0.067-0.003c-0.058-0.002-0.115-0.003-0.173-0.004c-0.015,0-0.029,0-0.044,0
		c-0.075,0-0.15,0.002-0.227,0.005c-0.018,0.001-0.036,0.002-0.055,0.003c-0.06,0.004-0.119,0.008-0.179,0.014
		c-0.021,0.002-0.042,0.004-0.063,0.006c-0.076,0.008-0.151,0.018-0.228,0.03c-0.003,0-0.005,0.001-0.008,0.001
		c-0.073,0.011-0.146,0.025-0.22,0.04c-0.022,0.004-0.044,0.009-0.066,0.014c-0.06,0.013-0.118,0.027-0.178,0.042
		c-0.019,0.004-0.037,0.009-0.056,0.014c-0.075,0.02-0.15,0.042-0.225,0.065c-0.017,0.005-0.034,0.011-0.051,0.017
		c-0.06,0.02-0.119,0.04-0.179,0.062c-0.023,0.008-0.046,0.017-0.069,0.026c-0.064,0.025-0.13,0.051-0.194,0.079
		c-0.011,0.004-0.021,0.009-0.032,0.013c-0.074,0.032-0.147,0.067-0.221,0.103c-0.021,0.011-0.043,0.021-0.064,0.032
		c-0.056,0.028-0.112,0.058-0.168,0.088c-0.021,0.012-0.042,0.023-0.063,0.035c-0.073,0.041-0.146,0.083-0.218,0.128
		c-0.012,0.007-0.023,0.015-0.035,0.022c-0.062,0.039-0.123,0.08-0.185,0.122c-0.022,0.015-0.044,0.03-0.065,0.045
		c-0.059,0.041-0.116,0.083-0.173,0.125c-0.016,0.011-0.03,0.022-0.046,0.034c-0.07,0.054-0.141,0.11-0.211,0.168
		c-0.018,0.015-0.035,0.03-0.053,0.045c-0.055,0.046-0.108,0.094-0.162,0.143c-0.021,0.018-0.04,0.036-0.061,0.054
		c-0.069,0.064-0.138,0.13-0.206,0.198L940.613,1206.004z"/>
	
		<line fill="none" stroke="#FFFFFF" stroke-width="0" stroke-linecap="round" stroke-linejoin="round" x1="915.21" y1="1232.44" x2="915.211" y2="1232.44"/>
</g>
</svg>
