<?xml version="1.0" encoding="utf-8"?>
<!-- Generator: Adobe Illustrator 15.1.0, SVG Export Plug-In . SVG Version: 6.00 Build 0)  -->
<!DOCTYPE svg PUBLIC "-//W3C//DTD SVG 1.1//EN" "http://www.w3.org/Graphics/SVG/1.1/DTD/svg11.dtd">
<svg version="1.1" xmlns="http://www.w3.org/2000/svg" xmlns:xlink="http://www.w3.org/1999/xlink" x="0px" y="0px"
	 width="283.465px" height="283.465px" viewBox="0 0 283.465 283.465" enable-background="new 0 0 283.465 283.465"
	 xml:space="preserve">
<g id="Layer_5">
</g>
<g id="Layer_2">
	<g>
		<path fill="none" d="M217.864,96.501c0.002,0.039,0.003,0.078,0.005,0.117c0,0.002,0,0.004,0,0.006s0,0.003,0,0.005
			c0.002,0.04,0.003,0.08,0.005,0.12c0.005,0.091,0.009,0.182,0.013,0.273c0.002,0.053,0.006,0.105,0.007,0.158
			c-0.003-0.207-0.014-0.414-0.025-0.62c-0.003-0.057-0.003-0.115-0.007-0.172c-0.001-0.013-0.002-0.025-0.004-0.038
			c0.001,0.021,0.002,0.041,0.003,0.062C217.861,96.441,217.863,96.472,217.864,96.501z"/>
		<path fill="none" d="M217.196,93.241c-0.008-0.02-0.015-0.039-0.021-0.058c-0.006-0.017-0.013-0.034-0.02-0.051
			c-0.034-0.093-0.071-0.186-0.106-0.279c-0.013-0.033-0.026-0.066-0.038-0.099c-0.023-0.062-0.045-0.124-0.071-0.185
			c-0.003-0.008-0.006-0.014-0.009-0.021c0.004,0.007,0.006,0.014,0.009,0.021c-0.003-0.009-0.006-0.018-0.01-0.026
			c-0.002-0.005-0.004-0.009-0.007-0.014c0-0.001-0.001-0.002-0.001-0.004c-0.004-0.009-0.008-0.018-0.012-0.026
			c-0.001-0.002-0.002-0.004-0.003-0.006c0.004,0.009,0.009,0.018,0.012,0.03C217.015,92.757,217.11,92.998,217.196,93.241z"/>
		<path fill="none" d="M249.109,81.064c-0.005-1.856-2.725-2.739-4.047-3.502c-1.799-1.038-3.597-2.076-5.396-3.114
			c-3.66-2.113-7.321-4.227-10.982-6.34c-7.46-4.306-14.92-8.612-22.38-12.917c-11.501-6.638-23.001-13.277-34.502-19.915
			c-5.741-3.314-11.483-6.627-17.224-9.942c-2.804-1.619-5.607-3.237-8.411-4.855c-1.386-0.8-3.775-3-5.477-1.96l-105.4,60.743
			c-0.645,0.371-1.041,1.058-1.041,1.802v36.906v8.654v21.637v9.275v45.008c0,0.744,0.396,1.434,1.041,1.805l105.4,60.752
			c0.412,0.236,0.983,0.324,1.451,0.233c0.219-0.044,0.432-0.119,0.631-0.231l40.83-23.574l64.405-37.185
			c0.644-0.37,1.103-1.059,1.103-1.801v-14.717v-9.272v-21.021v-0.002v-9.271h-0.002V81.064z M38.518,82.261L141.732,22.72
			l103.215,59.545v42.212v23.695v0.002v0.006h-41.35h-0.002c-5.943,0-11.199,4.035-12.959,9.473
			c-0.406,1.257-0.628,2.586-0.628,3.959v1.789h0.001c0,0,0.001,0,0.002,0v0.002c-0.001,0-0.002,0-0.003,0v0.006
			c-24.854-0.184-32.264-6.616-41.506-14.698c-7.683-6.719-17.307-14.071-36.662-17.142c0.001-0.001,0.003-0.003,0.004-0.005
			c0,0,0,0-0.001,0c-0.002,0-0.002,0-0.002-0.001c0.001,0,0.002,0,0.004,0c1.578-1.583,2.88-3.256,4.007-4.935
			c1.428-2.125,2.575-4.252,3.648-6.2c0.059-0.105,0.118-0.209,0.176-0.314c0.235-0.42,0.467-0.831,0.699-1.233
			c0.067-0.117,0.135-0.242,0.203-0.357c0.005-0.011,0.008-0.017,0.013-0.027c0.007-0.014,0.015-0.032,0.019-0.038
			c-0.003,0.006-0.011,0.022-0.018,0.036c-0.005,0.011-0.008,0.017-0.013,0.028c0.01-0.018,0.021-0.038,0.032-0.056
			c1.697-2.897,3.415-5.242,5.905-6.951c2.342-1.607,6.34-2.575,11.514-2.883v1.69c0,2.285,0.557,4.442,1.542,6.327
			c0.009,0.012,0.015,0.023,0.021,0.035c0.095,0.176,0.188,0.351,0.289,0.523c2.25,3.84,6.348,6.42,11.15,6.42h52.98
			c5.489,0,10.553-3.37,12.741-8.141c0.731-1.591,1.142-3.337,1.142-5.168v-0.006v-13.01V97.3c0-0.032-0.004-0.064-0.004-0.096
			c-0.005-0.054-0.012-0.266-0.02-0.467c-0.006-0.129-0.007-0.258-0.016-0.386c-0.01-0.095-0.019-0.19-0.027-0.285
			c-0.01-0.1-0.021-0.2-0.029-0.3c0,0.001,0,0.003,0,0.005c0,0,0,0,0,0.001c0.014,0.099,0.021,0.199,0.028,0.298
			c0.001,0.009,0.001,0.009,0.001,0.014c0.001,0.003,0.001,0.006,0.001,0.008c0,0.002,0.001,0.004,0.001,0.006
			c0.003,0.041,0.007,0.081,0.011,0.122c-0.001-0.014-0.002-0.027-0.004-0.041c0-0.002-0.001-0.004-0.001-0.006
			c-0.023-0.259-0.058-0.515-0.098-0.77c-0.01-0.071-0.021-0.146-0.035-0.217c0-0.001-0.001-0.002-0.001-0.004
			c-0.047-0.267-0.1-0.53-0.166-0.792v0c0,0,0-0.001,0-0.001c-0.001-0.001-0.001-0.002-0.001-0.004c0,0.001,0,0.002,0.001,0.002
			c-0.001-0.001-0.001-0.002-0.001-0.003c-0.001-0.002-0.001-0.003-0.001-0.004c-0.001-0.005-0.002-0.01-0.003-0.015
			c-0.005-0.022-0.011-0.044-0.016-0.065c-0.003-0.009-0.004-0.019-0.007-0.028c-0.058-0.227-0.129-0.449-0.2-0.671
			c-0.107-0.339-0.227-0.673-0.362-1c-0.016-0.036-0.026-0.073-0.041-0.108c-0.001-0.001-0.001-0.002-0.002-0.003
			c-0.001-0.003-0.003-0.006-0.004-0.008c-0.023-0.05-0.056-0.123-0.07-0.157c-0.009-0.022-0.019-0.043-0.028-0.065
			c-0.001-0.002-0.003-0.005-0.004-0.008c-0.09-0.197-0.182-0.391-0.28-0.584c-0.037-0.073-0.074-0.146-0.114-0.219
			c-0.115-0.219-0.24-0.434-0.368-0.644c-0.009-0.015-0.018-0.03-0.026-0.044c-0.024-0.042-0.049-0.083-0.074-0.123
			c0-0.002-0.002-0.004-0.002-0.003c0.021,0.035,0.042,0.069,0.063,0.104c-0.013-0.022-0.026-0.044-0.039-0.066
			c-0.001-0.001-0.001-0.002-0.002-0.003c0.001,0.001-0.001-0.001,0,0c-0.009-0.014-0.017-0.029-0.025-0.042
			c-0.008-0.012-0.017-0.023-0.023-0.035c-0.106-0.164-0.218-0.324-0.329-0.483c0.12,0.171,0.24,0.342,0.351,0.518l0.002,0.003
			c-0.156-0.247-0.32-0.491-0.492-0.727c0.004,0.004,0.007,0.01,0.011,0.016c-0.006-0.01-0.012-0.02-0.019-0.029
			c-0.16-0.219-0.326-0.435-0.5-0.644c-0.324-0.393-0.672-0.768-1.038-1.124c0.365,0.355,0.711,0.729,1.034,1.121
			c0.172,0.209,0.34,0.426,0.5,0.643c0.002,0.004,0.004,0.007,0.006,0.01c-0.002-0.003-0.004-0.006-0.006-0.009
			c-0.16-0.219-0.328-0.435-0.5-0.643c-2.592-3.138-6.607-5.156-10.887-5.156l-52.977-0.002c-0.133,0-0.263,0.012-0.395,0.016
			c-0.232,0.007-0.466,0.012-0.695,0.031c-0.067,0.005-0.133,0.016-0.2,0.022c-0.102,0.01-0.202,0.024-0.304,0.036
			c-0.205,0.025-0.411,0.048-0.612,0.082c-0.165,0.028-0.327,0.064-0.49,0.098c-0.193,0.041-0.386,0.081-0.575,0.129
			c-0.163,0.042-0.323,0.089-0.484,0.137c-0.183,0.055-0.365,0.112-0.545,0.174c-0.158,0.055-0.314,0.113-0.47,0.173
			c-0.176,0.069-0.35,0.143-0.521,0.219c-0.15,0.067-0.301,0.135-0.448,0.208c-0.172,0.084-0.34,0.175-0.508,0.266
			c-0.139,0.076-0.278,0.151-0.413,0.232c-0.177,0.105-0.349,0.219-0.52,0.333c-0.117,0.078-0.237,0.153-0.353,0.235
			c-0.222,0.158-0.436,0.326-0.646,0.498c-0.055,0.045-0.114,0.086-0.169,0.132c-0.395,0.332-0.763,0.693-1.115,1.07
			c-0.061,0.065-0.124,0.128-0.183,0.194c-0.328,0.365-0.633,0.75-0.918,1.151c-0.062,0.086-0.122,0.173-0.181,0.261
			c-0.276,0.408-0.533,0.831-0.763,1.271c-0.042,0.08-0.078,0.162-0.118,0.242c-0.226,0.455-0.432,0.92-0.606,1.404
			c-0.007,0.018-0.015,0.036-0.021,0.054c-0.505,1.418-0.777,2.95-0.777,4.551v2.369v0.005c-6.842,0.338-12.667,1.678-16.624,4.395
			c-0.504,0.346-0.971,0.711-1.429,1.081c-0.191,0.154-0.381,0.309-0.565,0.466c-0.348,0.299-0.683,0.604-1.006,0.914
			c-0.159,0.152-0.318,0.303-0.471,0.458c-0.328,0.331-0.641,0.668-0.944,1.008c-0.126,0.142-0.255,0.283-0.378,0.426
			c-0.315,0.37-0.615,0.744-0.906,1.121c-0.041,0.053-0.082,0.105-0.124,0.158c-0.052,0.066-0.104,0.131-0.154,0.198
			c-0.316,0.422-0.617,0.848-0.907,1.274c-0.051,0.075-0.105,0.149-0.156,0.225c-1.033,1.543-1.913,3.096-2.725,4.568
			c-0.12,0.217-0.234,0.426-0.352,0.639c-1.058,1.946-2.105,3.927-3.368,5.748c-0.36,0.519-0.749,1.017-1.149,1.505
			c-0.071,0.086-0.131,0.18-0.203,0.265c-0.004,0.004-0.008,0.009-0.011,0.013c-0.071,0.084-0.142,0.168-0.214,0.251
			c-0.004,0.005-0.009,0.011-0.013,0.016c0.013-0.015,0.026-0.028,0.039-0.041c-0.004,0.004-0.008,0.009-0.012,0.014
			c-0.097,0.112-0.189,0.227-0.29,0.336c-0.029,0.033-0.061,0.062-0.091,0.094c-0.138,0.146-0.277,0.289-0.418,0.431
			c-0.041,0.04-0.08,0.081-0.119,0.123c-0.057,0.061-0.113,0.122-0.174,0.18c-0.017,0.016-0.035,0.028-0.052,0.043
			c-0.058,0.056-0.111,0.117-0.17,0.171c-0.001,0.001-0.002,0.002-0.003,0.003c-1.959,1.795-4.609,3.095-8.67,3.817
			c-0.083,0.015-0.178,0.025-0.263,0.04c-0.134,0.023-0.268,0.04-0.402,0.061c-0.354,0.056-0.7,0.116-1.076,0.163
			c0-0.001,0-0.003,0-0.005c-0.006-0.061-0.016-0.121-0.023-0.181c0.007,0.061,0.017,0.12,0.023,0.181v0.002
			c-0.01-0.102-0.025-0.202-0.039-0.303c-0.007-0.051-0.013-0.103-0.02-0.154c-0.004-0.033-0.008-0.065-0.013-0.098
			c0-0.002,0-0.004,0-0.006c0-0.002,0-0.005-0.001-0.008c-0.002-0.014-0.004-0.028-0.006-0.042
			c-0.008-0.052-0.017-0.104-0.025-0.156c-0.016-0.106-0.036-0.211-0.055-0.316c-0.012-0.067-0.024-0.134-0.037-0.201
			c-0.002-0.012-0.005-0.024-0.008-0.036c-0.02-0.098-0.041-0.195-0.064-0.292c0.002,0.012,0.005,0.022,0.007,0.033
			c-0.029-0.125-0.059-0.252-0.092-0.375c0.002,0.006,0.004,0.012,0.005,0.018c0.001,0.006,0.003,0.012,0.004,0.018
			c0.004,0.017,0.006,0.023,0,0.003c0.023,0.087,0.045,0.174,0.065,0.262c-0.005-0.022-0.015-0.059-0.028-0.116
			c-0.011-0.047-0.023-0.094-0.035-0.141c-0.003-0.013-0.006-0.026-0.006-0.027c-0.019-0.072-0.043-0.141-0.063-0.212
			c-0.054-0.196-0.109-0.392-0.172-0.583c-0.002-0.006-0.003-0.013-0.005-0.02c-0.001-0.003-0.002-0.006-0.003-0.009
			c0-0.001,0-0.002-0.001-0.003c-0.001-0.005-0.005-0.017-0.005-0.016c0.003,0.008,0.002,0.006,0.004,0.013
			c0-0.001,0-0.002-0.001-0.003c-0.002-0.007-0.004-0.014-0.006-0.021c-0.013-0.037-0.027-0.07-0.039-0.106
			c-0.002-0.005-0.004-0.01-0.006-0.016c0.002,0.006,0.003,0.009,0.005,0.016c-0.021-0.061-0.051-0.117-0.073-0.177
			c0,0,0-0.001,0-0.001c-0.001-0.002-0.001-0.004-0.002-0.007c-0.286-0.775-0.636-1.518-1.061-2.21
			c-0.022-0.037-0.051-0.068-0.074-0.105c0.012,0.019,0.026,0.037,0.038,0.056c-0.245-0.395-0.515-0.772-0.8-1.136
			c-0.017-0.021-0.035-0.041-0.052-0.061c-0.077-0.094-0.156-0.188-0.235-0.28c-0.008-0.01-0.016-0.019-0.024-0.029
			c0.007,0.009,0.015,0.018,0.022,0.027c0.005,0.006,0.01,0.012,0.015,0.018c-0.223-0.266-0.455-0.524-0.7-0.771
			c0.003,0.003,0.007,0.007,0.01,0.01c0.004,0.004,0.009,0.009,0.014,0.014c-0.004-0.004-0.008-0.009-0.012-0.013
			c-0.058-0.062-0.109-0.129-0.17-0.188c-0.053-0.052-0.117-0.094-0.171-0.144c-0.001-0.001-0.002-0.002-0.004-0.003
			c0.006,0.006,0.012,0.012,0.018,0.017c0.001,0.001,0.001,0.001,0.002,0.002c-0.399-0.377-0.816-0.739-1.261-1.065
			c-0.008-0.007-0.017-0.014-0.025-0.021c-0.004-0.003-0.007-0.007-0.012-0.01c-0.04-0.029-0.083-0.053-0.123-0.082
			c-0.267-0.188-0.54-0.37-0.82-0.542c-0.03-0.019-0.063-0.035-0.093-0.052c-0.001,0-0.002-0.001-0.002-0.001
			c-0.001,0-0.001,0-0.002-0.001c0.006,0.004,0.012,0.008,0.018,0.012c0.351,0.208,0.694,0.429,1.022,0.667
			c0.006,0.004,0.011,0.009,0.017,0.013c-0.005-0.004-0.01-0.008-0.016-0.012c-0.336-0.244-0.686-0.47-1.045-0.683
			c-0.052-0.031-0.105-0.059-0.158-0.089c-0.024-0.014-0.048-0.027-0.072-0.041c-0.005-0.003-0.01-0.005-0.015-0.008
			c-0.165-0.094-0.328-0.191-0.498-0.279c0,0,0.001,0,0.002,0.001c-0.095-0.049-0.194-0.09-0.29-0.137
			c0.01,0.004,0.02,0.009,0.03,0.014c-0.03-0.014-0.06-0.028-0.09-0.042c-0.002-0.001-0.005-0.002-0.008-0.003
			c-0.004-0.002-0.008-0.004-0.012-0.006c0.083,0.039,0.16,0.085,0.242,0.126c-0.082-0.041-0.16-0.087-0.243-0.126
			c-0.095-0.045-0.19-0.089-0.286-0.132c-0.003-0.001-0.007-0.002-0.01-0.004c-0.083-0.038-0.164-0.079-0.249-0.115
			c-0.122-0.051-0.247-0.097-0.371-0.146c-0.102-0.04-0.206-0.077-0.309-0.115c-0.005-0.001-0.01-0.003-0.015-0.005
			c0.035,0.013,0.069,0.028,0.104,0.042c0.128,0.051,0.255,0.104,0.383,0.155c-0.166-0.067-0.329-0.14-0.499-0.201
			c-0.069-0.025-0.136-0.052-0.205-0.076c-0.38-0.13-0.768-0.244-1.163-0.343c-0.052-0.013-0.104-0.025-0.155-0.038
			c-0.042-0.01-0.083-0.021-0.125-0.031c0,0,0,0,0.001,0c-0.065-0.015-0.132-0.026-0.198-0.04c-0.147-0.031-0.295-0.063-0.444-0.09
			c-0.126-0.023-0.251-0.047-0.378-0.066c-0.248-0.038-0.499-0.067-0.75-0.092c-0.098-0.01-0.194-0.023-0.292-0.031
			c-0.356-0.028-0.715-0.046-1.077-0.048H47.062h-2.849h-5.695V82.261z M147.17,112.485c-0.013-0.02-0.021-0.042-0.033-0.061
			c-0.053-0.088-0.1-0.179-0.146-0.271c-0.047-0.095-0.092-0.19-0.132-0.29c-0.036-0.089-0.07-0.178-0.1-0.27
			c-0.04-0.124-0.07-0.251-0.099-0.381c-0.017-0.078-0.038-0.153-0.05-0.232c-0.009-0.053-0.015-0.107-0.021-0.161
			c0.002,0.018,0.009,0.033,0.011,0.051c-0.023-0.182-0.046-0.365-0.046-0.557V97.296c0-1.082,0.389-1.992,1.033-2.678
			c0.623-0.658,1.483-1.104,2.462-1.287c0.326-0.061,0.665-0.092,1.013-0.092v-0.002h52.979c2.47,0,4.283,1.587,4.283,4.059v13.016
			c0,0.115-0.011,0.229-0.017,0.34c-0.004,0.038-0.002,0.077-0.006,0.114c-0.01,0.095-0.027,0.188-0.041,0.282
			c-0.007,0.05-0.013,0.102-0.021,0.151c-0.015,0.067-0.033,0.132-0.05,0.198c-0.018,0.07-0.033,0.147-0.055,0.215
			c-0.031,0.099-0.066,0.191-0.102,0.287c-0.016,0.035-0.023,0.071-0.037,0.104c-0.211,0.506-0.518,0.948-0.902,1.312
			c-0.768,0.729-1.848,1.149-3.082,1.149h-52.979c-0.467,0-0.91-0.06-1.332-0.172c-1.092-0.291-1.997-0.946-2.555-1.851
			C147.157,112.455,147.161,112.471,147.17,112.485z M38.52,126.536v-0.002h42.72c0.443,0,0.866,0.067,1.26,0.19
			c0.143,0.044,0.278,0.103,0.413,0.163c0.112,0.049,0.219,0.103,0.326,0.161c0,0,0.001,0,0,0c-0.099-0.054-0.199-0.105-0.303-0.151
			c0.034,0.014,0.069,0.023,0.102,0.039c-0.023-0.01-0.046-0.019-0.068-0.029c-0.007-0.004-0.015-0.008-0.023-0.011
			c0.031,0.013,0.063,0.026,0.095,0.041c0.002,0.001,0.005,0.002,0.007,0.003c0.006,0.002,0.011,0.005,0.016,0.007
			c0.006,0.003,0.012,0.007,0.019,0.011c0,0,0.001,0,0.001,0.001c0.054,0.026,0.104,0.061,0.156,0.09
			c-0.006-0.004-0.007-0.006,0.013-0.001c0.025,0.014,0.053,0.025,0.078,0.041c-0.043-0.017-0.067-0.027-0.083-0.035
			c0.114,0.063,0.229,0.122,0.338,0.195c0.094,0.063,0.186,0.131,0.276,0.203c0.004,0.003,0.008,0.007,0.012,0.011
			c0.102,0.08,0.905,0.723,0.005,0.005c0.715,0.577,1.235,1.385,1.49,2.311c0.02,0.071,0.044,0.141,0.061,0.213
			c0.004,0.019,0.006,0.039,0.01,0.059c0.068,0.324,0.107,0.659,0.107,1.004c0,2.302,0,4.604,0,6.907c0,1.479,0,2.958,0,4.437
			c0,0.874,0.087,1.838-0.118,2.694c-0.006,0.027-0.019,0.051-0.025,0.077c0.007-0.026,0.02-0.05,0.026-0.077
			c-0.061,0.265-0.147,0.515-0.252,0.751c-0.004,0.011-0.007,0.017-0.014,0.032c-0.04,0.085-0.027,0.057-0.007,0.012
			c-0.095,0.2-0.199,0.394-0.321,0.57c0.129-0.185,0.238-0.386,0.333-0.598c0-0.001,0.001-0.003,0.001-0.005
			c-0.096,0.213-0.206,0.416-0.336,0.603c-0.015,0.021-0.03,0.037-0.045,0.058c-0.062,0.088-0.127,0.174-0.197,0.254
			c-0.053,0.063-0.111,0.119-0.17,0.176c-0.035,0.035-0.067,0.074-0.104,0.106c-0.183,0.173-0.386,0.326-0.605,0.462
			c-0.69,0.428-1.538,0.663-2.476,0.663H38.52V126.536z M244.951,201.34l-103.216,59.553l-17.647-10.182L38.521,201.34v-4.773
			v-39.176v-0.061h42.724c7.319,0,13.639-5.943,13.639-13.262l0.002-4.949c28.447,0.448,37.259,7.299,46.332,15.205
			c0.448,0.391,0.894,0.781,1.345,1.174c0.464,0.407,0.953,0.814,1.431,1.224c0.409,0.349,0.805,0.699,1.225,1.046
			c8.814,7.299,20.404,14.272,44.794,14.596v2.261c0,7.317,6.268,13.09,13.586,13.09h41.352v-0.001h0.001h0.001V201.34z
			 M244.952,178.555L244.952,178.555H203.6c-2.471,0-4.43-1.691-4.43-4.162v-12.789c0-2.47,1.959-4.272,4.43-4.272h41.352h0.001
			V178.555z"/>
		<path d="M141.732,7.087L25.199,74.481v134.6l116.533,67.297l116.534-67.293V74.523L141.732,7.087z M249.111,157.529v0.002v21.021
			v9.272v14.717c0,0.742-0.459,1.431-1.103,1.801l-64.405,37.185l-40.83,23.574c-0.199,0.112-0.412,0.188-0.631,0.231
			c-0.468,0.091-1.04,0.003-1.451-0.233l-105.4-60.752c-0.645-0.371-1.041-1.061-1.041-1.805v-45.008v-9.275v-21.637v-8.654V81.063
			c0-0.744,0.396-1.431,1.041-1.802l105.4-60.743c1.702-1.039,4.091,1.161,5.477,1.96c2.804,1.618,5.607,3.236,8.411,4.855
			c5.74,3.315,11.482,6.628,17.224,9.942c11.501,6.638,23.001,13.277,34.502,19.915c7.46,4.306,14.92,8.612,22.38,12.917
			c3.661,2.113,7.322,4.227,10.982,6.34c1.799,1.038,3.597,2.076,5.396,3.114c1.322,0.763,4.042,1.646,4.047,3.502v67.195h0.002
			V157.529z"/>
		<g opacity="0.98" enable-background="new    ">
			<path d="M149.703,114.292c0.422,0.112,0.865,0.172,1.332,0.172h52.979c1.234,0,2.314-0.42,3.082-1.149
				c0.385-0.364,0.691-0.806,0.902-1.312c0.014-0.033,0.021-0.069,0.037-0.104c0.035-0.096,0.07-0.188,0.102-0.287
				c0.021-0.068,0.037-0.145,0.055-0.215c0.017-0.066,0.035-0.131,0.05-0.198c0.008-0.049,0.014-0.101,0.021-0.151
				c0.014-0.094,0.031-0.187,0.041-0.282c0.004-0.037,0.002-0.076,0.006-0.114c0.006-0.111,0.017-0.225,0.017-0.34V97.296
				c0-2.472-1.813-4.059-4.283-4.059h-52.979v0.002c-0.348,0-0.687,0.031-1.013,0.092c-0.979,0.183-1.839,0.629-2.462,1.287
				c-0.645,0.686-1.033,1.596-1.033,2.678v13.017c0,0.192,0.022,0.375,0.046,0.557c-0.002-0.018-0.009-0.033-0.011-0.051
				c0.006,0.054,0.012,0.108,0.021,0.161c0.012,0.08,0.033,0.155,0.05,0.232c0.028,0.13,0.059,0.257,0.099,0.381
				c0.029,0.092,0.063,0.181,0.1,0.27c0.04,0.099,0.085,0.195,0.132,0.29c0.047,0.092,0.094,0.184,0.146,0.271
				c0.013,0.02,0.021,0.042,0.033,0.061c-0.009-0.014-0.013-0.03-0.021-0.044C147.706,113.346,148.611,114.001,149.703,114.292z"/>
		</g>
		<g opacity="0.98" enable-background="new    ">
			<path d="M203.6,157.331c-2.471,0-4.43,1.803-4.43,4.272v12.789c0,2.471,1.959,4.162,4.43,4.162h41.352h0.001v-21.224h-0.001
				H203.6z"/>
		</g>
		<g opacity="0.98" enable-background="new    ">
			<path d="M47.062,118.21h34.183c0.362,0.002,0.721,0.02,1.077,0.048c0.098,0.008,0.194,0.021,0.292,0.031
				c0.252,0.025,0.502,0.055,0.75,0.092c0.127,0.02,0.252,0.043,0.378,0.066c0.149,0.027,0.297,0.059,0.444,0.09
				c0.065,0.014,0.132,0.025,0.198,0.04c0,0,0,0-0.001,0c0.042,0.01,0.083,0.021,0.125,0.031c0.052,0.013,0.104,0.025,0.155,0.038
				c0.395,0.099,0.782,0.212,1.163,0.343c0.069,0.024,0.136,0.051,0.205,0.076c0.169,0.061,0.333,0.134,0.499,0.201
				c-0.128-0.052-0.255-0.104-0.383-0.155c-0.035-0.014-0.069-0.029-0.104-0.042c0.005,0.002,0.01,0.004,0.015,0.005
				c0.104,0.038,0.207,0.075,0.309,0.115c0.124,0.048,0.249,0.094,0.371,0.146c0.084,0.036,0.166,0.077,0.249,0.115
				c0.003,0.001,0.007,0.002,0.01,0.004c0.096,0.043,0.191,0.087,0.286,0.132c0.083,0.039,0.161,0.085,0.243,0.126
				c-0.082-0.041-0.159-0.087-0.242-0.126c0.004,0.002,0.008,0.004,0.012,0.006c0.003,0.001,0.005,0.002,0.008,0.003
				c0.03,0.014,0.061,0.027,0.09,0.042c-0.01-0.004-0.02-0.009-0.03-0.014c0.096,0.046,0.195,0.088,0.29,0.137
				c-0.001-0.001-0.002-0.001-0.002-0.001c0.17,0.087,0.333,0.185,0.498,0.279c0.005,0.003,0.01,0.005,0.015,0.008
				c0.024,0.014,0.048,0.027,0.072,0.041c0.052,0.03,0.106,0.058,0.158,0.089c0.359,0.213,0.709,0.439,1.045,0.683
				c0.005,0.004,0.01,0.008,0.016,0.012c-0.005-0.004-0.011-0.009-0.017-0.013c-0.328-0.239-0.671-0.459-1.022-0.667
				c-0.006-0.004-0.012-0.008-0.018-0.012c0.001,0,0.001,0,0.002,0.001c0,0,0.001,0.001,0.002,0.001
				c0.03,0.018,0.063,0.034,0.093,0.052c0.281,0.171,0.554,0.353,0.82,0.542c0.04,0.029,0.083,0.053,0.123,0.082
				c0.004,0.003,0.008,0.007,0.012,0.01c0.008,0.007,0.017,0.014,0.025,0.021c0.445,0.326,0.861,0.688,1.261,1.065
				c-0.001-0.001-0.001-0.001-0.002-0.002c-0.006-0.005-0.012-0.011-0.018-0.017c0.001,0.001,0.003,0.002,0.004,0.003
				c0.055,0.05,0.118,0.092,0.171,0.144c0.061,0.06,0.112,0.127,0.17,0.188c0.004,0.004,0.008,0.009,0.012,0.013
				c-0.004-0.005-0.009-0.009-0.014-0.014c-0.003-0.003-0.007-0.007-0.01-0.01c0.245,0.247,0.477,0.505,0.7,0.771
				c-0.005-0.006-0.01-0.012-0.015-0.018c-0.007-0.009-0.015-0.018-0.022-0.027c0.008,0.01,0.016,0.019,0.024,0.029
				c0.079,0.093,0.158,0.186,0.235,0.28c0.017,0.021,0.035,0.04,0.052,0.061c0.285,0.364,0.555,0.742,0.8,1.136
				c-0.012-0.02-0.026-0.037-0.038-0.056c0.023,0.037,0.051,0.068,0.074,0.105c0.425,0.692,0.775,1.435,1.061,2.21
				c0,0.003,0.001,0.005,0.002,0.007c0,0,0,0.001,0,0.001c0.022,0.06,0.051,0.116,0.073,0.177c-0.002-0.007-0.003-0.009-0.005-0.016
				c0.002,0.005,0.004,0.01,0.006,0.016c0.012,0.036,0.026,0.069,0.039,0.106c0.002,0.007,0.004,0.014,0.006,0.021
				c0,0.001,0,0.002,0.001,0.003c-0.002-0.007-0.001-0.005-0.004-0.013c0,0,0.003,0.011,0.005,0.016c0,0.001,0,0.002,0.001,0.003
				c0.001,0.003,0.002,0.006,0.003,0.009c0.001,0.007,0.002,0.014,0.005,0.02c0.063,0.191,0.118,0.388,0.172,0.583
				c0.02,0.071,0.044,0.141,0.063,0.212c0,0,0.003,0.014,0.006,0.027c0.012,0.047,0.023,0.094,0.035,0.141
				c0.013,0.057,0.022,0.093,0.028,0.116c-0.02-0.088-0.042-0.175-0.065-0.262c0.006,0.021,0.004,0.014,0-0.003
				c-0.001-0.006-0.003-0.012-0.004-0.018c-0.001-0.006-0.003-0.012-0.005-0.018c0.033,0.123,0.063,0.25,0.092,0.375
				c-0.002-0.011-0.005-0.021-0.007-0.033c0.023,0.097,0.044,0.194,0.064,0.292c0.002,0.012,0.005,0.024,0.008,0.036
				c0.013,0.066,0.025,0.134,0.037,0.201c0.019,0.105,0.039,0.21,0.055,0.316c0.009,0.052,0.018,0.104,0.025,0.156
				c0.002,0.014,0.004,0.028,0.006,0.042c0,0.002,0,0.005,0.001,0.008c0,0.002,0,0.004,0,0.006c0.005,0.033,0.009,0.065,0.013,0.098
				c0.007,0.051,0.013,0.103,0.02,0.154c0.014,0.101,0.029,0.201,0.039,0.303v-0.002c-0.006-0.061-0.016-0.121-0.023-0.181
				c0.008,0.061,0.017,0.12,0.023,0.181c0,0.001,0,0.003,0,0.005c0.375-0.047,0.721-0.106,1.076-0.163
				c0.134-0.021,0.268-0.038,0.402-0.061c0.085-0.014,0.179-0.024,0.263-0.04c4.061-0.722,6.711-2.021,8.67-3.817
				c0.001-0.001,0.002-0.002,0.003-0.003c0.059-0.054,0.112-0.115,0.17-0.171c0.017-0.016,0.035-0.028,0.052-0.043
				c0.061-0.058,0.117-0.119,0.174-0.18c0.039-0.042,0.079-0.083,0.119-0.123c0.141-0.142,0.28-0.285,0.418-0.431
				c0.03-0.032,0.062-0.061,0.091-0.094c0.101-0.109,0.193-0.224,0.29-0.336c0.004-0.005,0.008-0.009,0.012-0.014
				c-0.013,0.013-0.026,0.026-0.039,0.041c0.004-0.005,0.009-0.01,0.013-0.016c0.072-0.083,0.143-0.167,0.214-0.251
				c0.003-0.004,0.007-0.009,0.011-0.013c0.072-0.085,0.132-0.179,0.203-0.265c0.4-0.488,0.789-0.986,1.149-1.505
				c1.263-1.821,2.31-3.802,3.368-5.748c0.118-0.213,0.232-0.422,0.352-0.639c0.812-1.472,1.692-3.025,2.725-4.568
				c0.05-0.075,0.105-0.149,0.156-0.225c0.29-0.426,0.591-0.852,0.907-1.274c0.05-0.066,0.102-0.132,0.154-0.198
				c0.042-0.053,0.083-0.105,0.124-0.158c0.291-0.377,0.59-0.751,0.906-1.121c0.123-0.143,0.252-0.284,0.378-0.426
				c0.303-0.34,0.616-0.677,0.944-1.008c0.153-0.154,0.313-0.306,0.471-0.458c0.323-0.31,0.658-0.615,1.006-0.914
				c0.184-0.157,0.374-0.312,0.565-0.466c0.458-0.37,0.925-0.735,1.429-1.081c3.957-2.717,9.782-4.057,16.624-4.395v-0.005V97.3
				c0-1.601,0.272-3.133,0.777-4.551c0.006-0.018,0.015-0.036,0.021-0.054c0.174-0.483,0.38-0.949,0.606-1.404
				c0.04-0.08,0.077-0.162,0.118-0.242c0.23-0.44,0.487-0.862,0.763-1.271c0.059-0.088,0.119-0.175,0.181-0.261
				c0.285-0.401,0.59-0.787,0.918-1.151c0.059-0.066,0.122-0.129,0.183-0.194c0.353-0.376,0.721-0.738,1.115-1.07
				c0.055-0.046,0.114-0.087,0.169-0.132c0.211-0.171,0.425-0.339,0.646-0.498c0.115-0.082,0.235-0.157,0.353-0.235
				c0.171-0.114,0.343-0.227,0.52-0.333c0.135-0.081,0.274-0.156,0.413-0.232c0.168-0.091,0.336-0.182,0.508-0.266
				c0.147-0.073,0.298-0.141,0.448-0.208c0.172-0.076,0.346-0.149,0.521-0.219c0.155-0.061,0.312-0.119,0.47-0.173
				c0.18-0.063,0.362-0.12,0.545-0.174c0.161-0.048,0.321-0.095,0.484-0.137c0.189-0.048,0.382-0.089,0.575-0.129
				c0.163-0.034,0.325-0.07,0.49-0.098c0.201-0.034,0.407-0.057,0.612-0.082c0.102-0.012,0.202-0.026,0.304-0.036
				c0.067-0.006,0.133-0.017,0.2-0.022c0.229-0.019,0.463-0.024,0.695-0.031c0.132-0.004,0.262-0.016,0.395-0.016l52.977,0.002
				c4.279,0,8.295,2.018,10.887,5.156c0.172,0.208,0.34,0.424,0.5,0.643c0.002,0.003,0.004,0.006,0.006,0.009
				c-0.002-0.003-0.004-0.006-0.006-0.01c-0.16-0.217-0.328-0.434-0.5-0.643c-0.323-0.392-0.669-0.766-1.034-1.121
				c0.366,0.356,0.714,0.731,1.038,1.124c0.174,0.209,0.34,0.425,0.5,0.644c0.007,0.009,0.013,0.019,0.019,0.029
				c-0.004-0.005-0.007-0.011-0.011-0.016c0.172,0.236,0.336,0.48,0.492,0.727l-0.002-0.003c-0.11-0.176-0.23-0.347-0.351-0.518
				c0.111,0.159,0.223,0.319,0.329,0.483c0.007,0.012,0.016,0.023,0.023,0.035c0.009,0.014,0.017,0.028,0.025,0.042
				c-0.001-0.001,0.001,0.001,0,0c0.001,0.001,0.001,0.002,0.002,0.003c0.013,0.022,0.026,0.044,0.039,0.066
				c-0.021-0.035-0.041-0.069-0.063-0.104c0-0.001,0.002,0.001,0.002,0.003c0.025,0.04,0.05,0.082,0.074,0.123
				c0.009,0.015,0.018,0.029,0.026,0.044c0.128,0.21,0.253,0.425,0.368,0.644c0.04,0.073,0.077,0.146,0.114,0.219
				c0.099,0.193,0.19,0.387,0.28,0.584c0.001,0.002,0.003,0.005,0.004,0.008c0.01,0.021,0.02,0.043,0.028,0.065
				c0.015,0.034,0.047,0.106,0.07,0.157c0.001,0.002,0.003,0.005,0.004,0.008c0.001,0.001,0.001,0.002,0.002,0.003
				c0.001,0.002,0.002,0.004,0.003,0.006c0.004,0.009,0.008,0.018,0.012,0.026c0,0.001,0.001,0.003,0.001,0.004
				c0.003,0.005,0.005,0.009,0.007,0.014c0.004,0.009,0.007,0.018,0.01,0.026c-0.003-0.007-0.005-0.013-0.009-0.021
				c0.003,0.007,0.006,0.013,0.009,0.021c0.026,0.061,0.048,0.123,0.071,0.185c0.012,0.033,0.025,0.066,0.038,0.099
				c0.035,0.093,0.072,0.186,0.106,0.279c0.007,0.017,0.014,0.034,0.02,0.051c0.007,0.019,0.014,0.039,0.021,0.058
				c-0.086-0.243-0.182-0.484-0.277-0.72c-0.003-0.012-0.008-0.021-0.012-0.03c0.015,0.035,0.025,0.072,0.041,0.108
				c0.136,0.327,0.255,0.662,0.362,1c0.071,0.223,0.143,0.445,0.2,0.671c0.003,0.009,0.004,0.019,0.007,0.028
				c0.005,0.021,0.011,0.043,0.016,0.065c0.001,0.005,0.002,0.01,0.003,0.015c0,0.001,0,0.002,0.001,0.004
				c0,0.001,0,0.002,0.001,0.003c-0.001,0-0.001-0.001-0.001-0.002c0,0.001,0,0.002,0.001,0.004c0,0,0,0,0,0.001v0
				c0.066,0.262,0.119,0.525,0.166,0.792c0,0.001,0.001,0.002,0.001,0.004c0.014,0.071,0.025,0.146,0.035,0.217
				c0.04,0.255,0.074,0.51,0.098,0.77c0,0.002,0.001,0.004,0.001,0.006c0.002,0.014,0.003,0.027,0.004,0.041
				c-0.004-0.041-0.008-0.081-0.011-0.122c0-0.002-0.001-0.004-0.001-0.006c0-0.002,0-0.005-0.001-0.008
				c0-0.005,0-0.005-0.001-0.014c-0.008-0.099-0.015-0.199-0.028-0.298c0,0,0,0,0-0.001c0-0.001,0-0.003,0-0.005
				c0.009,0.1,0.02,0.2,0.029,0.3c0.009,0.095,0.018,0.19,0.027,0.285c0.002,0.013,0.003,0.025,0.004,0.038
				c0.004,0.057,0.004,0.115,0.007,0.172c0.012,0.207,0.022,0.413,0.025,0.62c-0.001-0.053-0.005-0.105-0.007-0.158
				c-0.004-0.091-0.008-0.182-0.013-0.273c-0.002-0.04-0.003-0.08-0.005-0.12c0-0.001,0-0.003,0-0.005s0-0.004,0-0.006
				c-0.002-0.039-0.003-0.078-0.005-0.117c-0.001-0.03-0.003-0.06-0.004-0.09c-0.001-0.021-0.002-0.041-0.003-0.062
				c0.009,0.128,0.01,0.257,0.016,0.386c0.008,0.201,0.015,0.414,0.02,0.467c0,0.032,0.004,0.064,0.004,0.096v0.002v13.01v0.006
				c0,1.831-0.41,3.577-1.142,5.168c-2.188,4.771-7.252,8.141-12.741,8.141h-52.98c-4.803,0-8.9-2.58-11.15-6.42
				c-0.101-0.172-0.194-0.347-0.289-0.523c-0.006-0.012-0.012-0.023-0.021-0.035c-0.985-1.885-1.542-4.042-1.542-6.327v-1.69
				c-5.174,0.308-9.172,1.276-11.514,2.883c-2.49,1.709-4.208,4.054-5.905,6.951c-0.011,0.018-0.021,0.038-0.032,0.056
				c0.005-0.011,0.008-0.017,0.013-0.028c0.006-0.014,0.014-0.03,0.018-0.036c-0.004,0.006-0.012,0.024-0.019,0.038
				c-0.005,0.01-0.008,0.017-0.013,0.027c-0.067,0.115-0.136,0.241-0.203,0.357c-0.232,0.403-0.464,0.813-0.699,1.233
				c-0.059,0.104-0.118,0.209-0.176,0.314c-1.073,1.947-2.22,4.075-3.648,6.2c-1.127,1.678-2.43,3.352-4.007,4.935
				c-0.001,0-0.002,0-0.004,0c0,0.001,0,0.001,0.002,0.001c0,0,0,0,0.001,0c-0.001,0.001-0.003,0.003-0.004,0.005
				c19.355,3.071,28.979,10.423,36.662,17.142c9.242,8.082,16.651,14.515,41.506,14.698v-0.006c0.001,0,0.002,0,0.003,0V163.4
				c-0.001,0-0.002,0-0.002,0h-0.001v-1.789c0-1.373,0.222-2.702,0.628-3.959c1.76-5.438,7.016-9.473,12.959-9.473h0.002h41.35
				v-0.006v-0.002v-23.695V82.265L141.732,22.72L38.518,82.261v35.949h5.695H47.062z"/>
		</g>
		<g opacity="0.98" enable-background="new    ">
			<path d="M83.716,147.512c0.219-0.136,0.422-0.289,0.605-0.462c0.037-0.032,0.069-0.071,0.104-0.106
				c0.059-0.057,0.117-0.113,0.17-0.176c0.07-0.08,0.135-0.166,0.197-0.254c0.015-0.021,0.03-0.037,0.045-0.058
				c0.13-0.187,0.24-0.39,0.336-0.603c0,0.002-0.001,0.004-0.001,0.005c-0.095,0.212-0.204,0.413-0.333,0.598
				c0.123-0.177,0.227-0.37,0.321-0.57c-0.02,0.045-0.033,0.073,0.007-0.012c0.007-0.016,0.01-0.021,0.014-0.032
				c0.105-0.236,0.191-0.486,0.252-0.751c-0.006,0.027-0.02,0.051-0.026,0.077c0.007-0.026,0.019-0.05,0.025-0.077
				c0.205-0.856,0.118-1.82,0.118-2.694c0-1.479,0-2.958,0-4.437c0-2.302,0-4.604,0-6.907c0-0.345-0.039-0.681-0.107-1.004
				c-0.004-0.02-0.005-0.04-0.01-0.059c-0.017-0.073-0.041-0.142-0.061-0.213c-0.255-0.926-0.775-1.734-1.49-2.311
				c0.9,0.718,0.097,0.075-0.005-0.005c-0.004-0.003-0.008-0.007-0.012-0.011c-0.09-0.072-0.182-0.14-0.276-0.203
				c-0.109-0.073-0.225-0.132-0.338-0.195c0.015,0.007,0.039,0.018,0.083,0.035c-0.025-0.016-0.053-0.027-0.078-0.041
				c-0.02-0.005-0.019-0.003-0.013,0.001c-0.053-0.029-0.102-0.063-0.156-0.09c0,0-0.001,0-0.001-0.001
				c-0.006-0.003-0.012-0.008-0.019-0.011c-0.005-0.002-0.01-0.005-0.016-0.007c-0.002-0.001-0.005-0.001-0.007-0.003
				c-0.032-0.015-0.063-0.028-0.095-0.041c0.008,0.003,0.016,0.007,0.023,0.011c0.022,0.01,0.045,0.02,0.068,0.029
				c-0.033-0.016-0.068-0.024-0.102-0.039c0.104,0.046,0.204,0.097,0.303,0.151c0,0-0.001,0,0,0
				c-0.106-0.058-0.214-0.112-0.326-0.161c-0.135-0.06-0.27-0.118-0.413-0.163c-0.395-0.124-0.817-0.19-1.26-0.19H38.52v0.002
				v21.639h42.72C82.178,148.175,83.026,147.939,83.716,147.512z"/>
		</g>
		<g opacity="0.98" enable-background="new    ">
			<path d="M244.949,187.713L244.949,187.713l-41.352,0.001c-7.318,0-13.586-5.772-13.586-13.09v-2.261
				c-24.39-0.323-35.979-7.297-44.794-14.596c-0.42-0.347-0.815-0.697-1.225-1.046c-0.478-0.409-0.967-0.816-1.431-1.224
				c-0.451-0.393-0.896-0.783-1.345-1.174c-9.073-7.906-17.885-14.757-46.332-15.205l-0.002,4.949
				c0,7.318-6.32,13.262-13.639,13.262H38.521v0.061v39.176v4.773l85.567,49.371l17.647,10.182l103.216-59.553v-13.627H244.949
				L244.949,187.713z"/>
		</g>
	</g>
</g>
</svg>
