<?xml version="1.0" encoding="utf-8"?>
<!-- Generator: Adobe Illustrator 15.1.0, SVG Export Plug-In . SVG Version: 6.00 Build 0)  -->
<!DOCTYPE svg PUBLIC "-//W3C//DTD SVG 1.1//EN" "http://www.w3.org/Graphics/SVG/1.1/DTD/svg11.dtd">
<svg version="1.1" id="Layer_1" xmlns:v="https://vecta.io/nano"
	 xmlns="http://www.w3.org/2000/svg" xmlns:xlink="http://www.w3.org/1999/xlink" x="0px" y="0px" width="283.46px"
	 height="283.46px" viewBox="0 0 283.46 283.46" enable-background="new 0 0 283.46 283.46" xml:space="preserve">
<g>
	<path d="M106.491,7.085H20.62c-7.434,0-13.537,6.104-13.537,13.538v13.14c134.582,0.397,244.078,108.832,244.875,242.612h10.881
		c7.568-0.129,13.537-6.1,13.537-13.535v-93.034C245.586,94.418,183.605,34.825,106.491,7.085z"/>
	<path d="M7.878,74.774H7.083v43.799c87.465,0.397,158.603,70.739,159.531,157.674h45.395
		C211.209,165.025,120.028,74.774,7.878,74.774z"/>
	<path d="M7.878,159.715H7.083v102.996c0,7.429,6.104,13.535,13.537,13.535h106.045C125.737,211.875,72.913,159.715,7.878,159.715z"
		/>
	<path d="M263.053,7.086c-0.027,0-0.053,0-0.08,0H194.62c15.926,11.015,32.385,23.624,46.319,37.56
		c12.478,12.476,25.22,28.27,35.438,42.207V20.49C276.399,13.109,270.435,7.108,263.053,7.086z"/>
</g>
</svg>
