<?xml version="1.0" encoding="utf-8"?>
<!-- Generator: Adobe Illustrator 15.1.0, SVG Export Plug-In . SVG Version: 6.00 Build 0)  -->
<!DOCTYPE svg PUBLIC "-//W3C//DTD SVG 1.1//EN" "http://www.w3.org/Graphics/SVG/1.1/DTD/svg11.dtd">
<svg version="1.1" id="Layer_1" xmlns="http://www.w3.org/2000/svg" xmlns:xlink="http://www.w3.org/1999/xlink" x="0px" y="0px"
	 width="283.68px" height="283.92px" viewBox="0 0 283.68 283.92" enable-background="new 0 0 283.68 283.92" xml:space="preserve">
<g>
	<path d="M219.311,69.718c-14.933-6.837-30.696-11.687-46.89-14.426c-2.216,3.961-4.221,8.036-6.007,12.209
		c-17.248-2.599-34.789-2.599-52.037,0c-1.787-4.172-3.792-8.248-6.007-12.209c-16.203,2.762-31.978,7.624-46.925,14.462
		c-29.675,43.904-37.719,86.717-33.697,128.923c17.378,12.84,36.829,22.604,57.508,28.87c4.656-6.263,8.776-12.906,12.317-19.86
		c-6.725-2.511-13.215-5.61-19.396-9.26c1.627-1.181,3.218-2.396,4.755-3.575c36.414,17.124,78.566,17.124,114.98,0
		c1.556,1.269,3.146,2.484,4.756,3.575c-6.193,3.655-12.696,6.76-19.432,9.277c3.536,6.951,7.656,13.589,12.316,19.843
		c20.696-6.24,40.162-16.001,57.544-28.853C257.816,149.75,245.034,107.33,219.311,69.718 M102.668,172.722
		c-11.209,0-20.469-10.172-20.469-22.686c0-12.513,8.938-22.774,20.433-22.774c11.494,0,20.683,10.261,20.486,22.774
		C122.921,162.55,114.09,172.722,102.668,172.722 M178.177,172.722c-11.226,0-20.449-10.172-20.449-22.686
		c0-12.513,8.938-22.774,20.449-22.774c11.513,0,20.629,10.261,20.434,22.774C198.413,162.55,189.6,172.722,178.177,172.722"/>
</g>
</svg>
