<?xml version="1.0" encoding="utf-8"?>
<!-- Generator: Adobe Illustrator 15.1.0, SVG Export Plug-In . SVG Version: 6.00 Build 0)  -->
<!DOCTYPE svg PUBLIC "-//W3C//DTD SVG 1.1//EN" "http://www.w3.org/Graphics/SVG/1.1/DTD/svg11.dtd">
<svg version="1.1" id="Layer_1" xmlns="http://www.w3.org/2000/svg" xmlns:xlink="http://www.w3.org/1999/xlink" x="0px" y="0px"
	 width="283.465px" height="283.465px" viewBox="1108.268 883.267 283.465 283.465"
	 enable-background="new 1108.268 883.267 283.465 283.465" xml:space="preserve">
<title>udemy</title>
<path d="M1207.526,914.608c12,3.724,15.723,13.344,15.723,24.309c-0.104,8.689-1.138,17.378-3.207,25.861
	c-4.448,19.344-9.931,38.48-14.482,57.721c-3.724,15.826-7.138,31.86-7.241,48.204c0.104,4.448,0.828,8.896,2.069,13.137
	c2.379,8.482,9.517,9.104,14.896,3.931c3.414-3.31,6.517-6.827,9.31-10.654c13.448-17.896,25.343-36.929,35.48-56.893
	c9.827-19.137,32.274-62.375,33.619-64.961c7.034-12.931,26.481-10.758,32.377,1.862c3.311,6.827,5.173,14.378,5.482,21.93
	c0.518,16.344,2.069,61.961,2.793,68.479c1.345,12.62,9.413,16.654,20.172,9.62c6.517-4.241,12.413-9.62,18.309-14.689
	c5.482-4.861,8.379-4.344,11.068,2.483c2.38,5.999,1.345,11.999-0.62,17.688c-6.62,19.24-20.999,29.48-40.136,33.618
	c-6.104,1.345-12.413,1.448-18.619,0.414c-13.759-2.275-22.551-10.241-27.826-22.551c-5.069-11.896-6.621-45.721-7.759-50.066
	c-1.861,3.931-23.895,49.342-35.48,66.617c-7.241,11.068-16.034,21.103-26.171,29.688c-10.034,8.379-21.413,13.551-34.756,13.861
	c-16.137,0.413-27.826-6.931-35.895-20.585c-5.172-8.793-7.345-18.62-8.068-28.757c-1.035-14.172,1.241-28.033,4.344-41.895
	c1.035-4.448,1.759-8.999,2.896-14.688c-4.448,2.275-7.344,4.345-10.654,5.482c-3.931,1.345-8.172,2.689-12.31,2.586
	c-14.688-0.414-16.861-16.654-16.861-19.344c4.965-3.828,10.241-7.345,14.792-11.482c21.723-19.654,38.066-43.239,49.859-69.927
	c3.931-8.792,8.792-16.344,17.481-20.999C1201.009,913.366,1203.595,913.263,1207.526,914.608z"/>
</svg>
