<?xml version="1.0" encoding="utf-8"?>
<!-- Generator: Adobe Illustrator 15.1.0, SVG Export Plug-In . SVG Version: 6.00 Build 0)  -->
<!DOCTYPE svg PUBLIC "-//W3C//DTD SVG 1.0//EN" "http://www.w3.org/TR/2001/REC-SVG-20010904/DTD/svg10.dtd">
<svg version="1.0" id="Layer_1" xmlns="http://www.w3.org/2000/svg" xmlns:xlink="http://www.w3.org/1999/xlink" x="0px" y="0px"
	 width="283.46px" height="283.46px" viewBox="0 0 283.46 283.46" enable-background="new 0 0 283.46 283.46" xml:space="preserve">
<path fill="#231F20" d="M204.951,67.698c0.79-0.573,0.967-1.678,0.394-2.468l-7.26-10.015c-0.574-0.79-1.678-0.966-2.468-0.393
	l-34.338,24.892L145.21,57.547c-33.101,24.218-48.071,61.67-37.46,89.173c-15.52,12.059-27,28.063-32.488,45.402
	c-6.522,20.609-4.156,40.961,6.664,57.307l1.463,2.213l17.783-11.77l-1.464-2.213c-7.193-10.869-8.655-24.756-4.114-39.104
	c4.072-12.869,12.615-24.877,24.222-34.188c22.444,20.43,64.062,18.402,98.329-6.213l-16.068-22.167l34.337-24.892
	c0.79-0.573,0.967-1.678,0.394-2.468l-7.261-10.015c-0.572-0.791-1.678-0.967-2.468-0.394l-34.338,24.893L170.614,92.59
	L204.951,67.698z"/>
</svg>
