<?xml version="1.0" encoding="utf-8"?>
<!-- Generator: Adobe Illustrator 15.1.0, SVG Export Plug-In . SVG Version: 6.00 Build 0)  -->
<!DOCTYPE svg PUBLIC "-//W3C//DTD SVG 1.0//EN" "http://www.w3.org/TR/2001/REC-SVG-20010904/DTD/svg10.dtd">
<svg version="1.0" id="Layer_1" xmlns="http://www.w3.org/2000/svg" xmlns:xlink="http://www.w3.org/1999/xlink" x="0px" y="0px"
	 width="283.46px" height="283.46px" viewBox="0 0 283.46 283.46" enable-background="new 0 0 283.46 283.46" xml:space="preserve">
<path d="M253.835,80.442l-9.701-13.379c-0.899-1.246-2.356-1.99-3.896-1.99c-1.02,0-1.995,0.317-2.819,0.916l-43.904,31.828
	l-26.698-36.824l43.903-31.827c2.146-1.555,2.627-4.566,1.073-6.714L202.09,9.067c-0.903-1.242-2.358-1.983-3.893-1.983
	c-1.02,0-1.994,0.316-2.821,0.916l-43.904,31.827l-21.478-29.63l-1.982,1.451C84.392,43.561,62.971,93.844,76.487,131.96
	c-20.382,16.264-35.561,37.776-42.833,60.754c-8.943,28.258-5.677,56.195,9.196,78.664l3.305,4.998l27.841-18.428l-3.305-4.998
	c-9.197-13.896-11.045-31.713-5.206-50.166c5.063-16,15.673-31.275,29.977-43.215c13.686,11.686,32.121,17.848,53.469,17.848
	c26.637,0,54.84-9.721,79.411-27.371l1.995-1.434l-21.477-29.63l43.902-31.826C254.911,85.601,255.391,82.588,253.835,80.442z"/>
</svg>
