<?xml version="1.0" encoding="utf-8"?>
<!-- Generator: Adobe Illustrator 15.1.0, SVG Export Plug-In . SVG Version: 6.00 Build 0)  -->
<!DOCTYPE svg PUBLIC "-//W3C//DTD SVG 1.1//EN" "http://www.w3.org/Graphics/SVG/1.1/DTD/svg11.dtd">
<svg version="1.1" id="svg4959" xmlns:svg="http://www.w3.org/2000/svg"
	 xmlns="http://www.w3.org/2000/svg" xmlns:xlink="http://www.w3.org/1999/xlink" x="0px" y="0px" width="283.465px"
	 height="283.465px" viewBox="0 0 283.465 283.465" enable-background="new 0 0 283.465 283.465" xml:space="preserve">
<g>
	<path fill="none" d="M178.723,231.905c0,0.003,0,0.006,0,0.009l0.004,0.039l-0.002-0.039
		C178.725,231.895,178.724,231.901,178.723,231.905z"/>
	<path d="M246.188,160.934v-26.056c0-14.037-2.771-27.682-8.24-40.556c-5.276-12.421-12.821-23.588-22.428-33.192
		c-9.604-9.604-20.771-17.149-33.19-22.426c-12.873-5.469-26.521-8.243-40.557-8.243c-14.036,0-27.682,2.773-40.556,8.243
		c-12.42,5.277-23.588,12.822-33.192,22.426c-9.603,9.604-17.148,20.771-22.426,33.192c-5.47,12.874-8.243,26.521-8.243,40.556
		v23.451c-16.709,0.378-30.267,14.421-30.267,31.546v31.564c-0.001,17.361,13.93,31.563,30.957,31.563h30.958v-94.691h-0.105
		v-23.435c0-40.183,32.691-72.874,72.874-72.874c40.185,0,72.875,32.691,72.875,72.874v26.037h-0.184V250.4h30.958
		c17.025,0,30.958-13.422,30.956-29.828v-29.829C276.377,174.588,262.861,161.332,246.188,160.934z"/>
	<path d="M178.723,231.905c-0.004,0.018-0.012,0.204,0.004,0.048l-0.004-0.039C178.723,231.911,178.723,231.908,178.723,231.905z"/>
	<path d="M97.343,135.779c-4.084,0-7.399,3.315-7.398,7.399c0,4.082,3.314,7.396,7.397,7.395
		c44.445,0.334,81.018,36.884,81.381,81.333c0.001-0.004,0.002-0.011,0.002,0.009l0.002,0.039c0,4.084,3.312,7.4,7.397,7.4
		c4.084,0,7.397-3.316,7.397-7.399C193.521,178.836,150.46,135.779,97.343,135.779z"/>
	<path d="M97.342,165.372c-4.084,0-7.399,3.313-7.398,7.396c0,4.082,3.316,7.397,7.398,7.397
		c28.271,0.216,51.551,23.481,51.787,51.757c0-0.046-0.006,0.15,0.003,0.031c0,4.083,3.315,7.4,7.398,7.4
		c4.082,0,7.397-3.316,7.397-7.399C163.928,195.182,134.117,165.372,97.342,165.372z"/>
	<path d="M97.343,194.964c-4.084,0-7.399,3.313-7.399,7.397c0,4.082,3.317,7.398,7.398,7.398
		c12.033,0.152,22.043,10.161,22.196,22.193c0,4.083,3.315,7.4,7.398,7.4s7.399-3.316,7.4-7.399
		C134.336,211.523,117.772,194.964,97.343,194.964z"/>
</g>
</svg>
