<?xml version="1.0" encoding="utf-8"?>
<!-- Generator: Adobe Illustrator 15.1.0, SVG Export Plug-In . SVG Version: 6.00 Build 0)  -->
<!DOCTYPE svg PUBLIC "-//W3C//DTD SVG 1.1//EN" "http://www.w3.org/Graphics/SVG/1.1/DTD/svg11.dtd">
<svg version="1.1" id="Layer_7" xmlns="http://www.w3.org/2000/svg" xmlns:xlink="http://www.w3.org/1999/xlink" x="0px" y="0px"
	 width="283.46px" height="283.46px" viewBox="0 0 283.46 283.46" enable-background="new 0 0 283.46 283.46" xml:space="preserve">
<g>
	<path d="M183.589,154.203H99.817c-4.596,0-7.977,3.168-7.554,7.074l11.716,108.025c0.424,3.906,3.548,7.074,6.978,7.074h62.521
		c3.43,0,6.527-3.168,6.918-7.074l10.807-108.025C191.593,157.371,188.185,154.203,183.589,154.203z"/>
	<path d="M72.109,68.852c3.652,0,7.145,1.241,9.835,3.496c3.901,3.272,5.86,8.394,5.328,13.813c2.582-0.93,5.06-2.463,7.191-4.602
		c6.843-6.87,7.528-17.283,1.53-23.259c-5.999-5.976-16.41-5.251-23.253,1.619c-2.509,2.518-4.187,5.513-5.014,8.589
		c-0.019,0.286-0.026,0.604-0.027,0.936c0.986-0.26,1.983-0.444,2.968-0.529C71.147,68.873,71.633,68.852,72.109,68.852z"/>
	<path d="M104.042,85.856c-2.314,2.314-4.309,4.886-5.959,7.648c4.53-1.43,10.182-2.265,16.346-2.265
		c13.585,0,24.805,3.93,27.34,9.447c2.701-5.527,13.999-9.447,27.667-9.447c6.009,0,11.454,0.758,15.836,2.084
		c-1.629-2.695-3.587-5.208-5.848-7.468c-3.698-3.687-8.043-6.574-12.771-8.533c-4.728-1.96-9.843-2.991-15.067-2.991
		c0,0,0,0-0.012,0h-0.248c7.1-2.114,13.245-6.469,17.605-12.238c4.346-5.751,6.922-12.913,6.922-20.673
		c0-9.477-3.844-18.056-10.059-24.271c-6.215-6.216-14.797-10.064-24.271-10.064c-9.472,0-18.056,3.849-24.272,10.064
		c-6.215,6.215-10.067,14.794-10.067,24.271c0,7.76,2.578,14.922,6.927,20.673c4.361,5.769,10.504,10.124,17.603,12.237
		c-5.167,0.016-10.223,1.054-14.905,2.992C112.08,79.282,107.729,82.162,104.042,85.856z"/>
	<path d="M140.785,100.973c-2.434-4.982-13.265-8.733-26.356-8.733c-12.75,0-23.078,3.557-25.49,8.344
		c3.657-4.493,13.443-7.508,25.49-7.508C126.725,93.075,137.029,96.31,140.785,100.973z"/>
	<path d="M142.674,101.109c3.794-4.744,14.25-8.034,26.761-8.034c11.869,0,21.522,2.974,25.125,7.402
		c-2.336-4.733-12.472-8.238-25.125-8.238C156.221,92.239,145.158,96.058,142.674,101.109z"/>
	<path d="M89.146,102.477c3.941-4.346,13.827-7.153,25.185-7.153c11.361,0,21.457,2.803,25.721,7.14
		c0.369,0.376,0.691,0.759,0.968,1.149c-1.601-5.378-12.899-9.537-26.688-9.537c-13.549,0-24.378,4.015-25.861,9.257
		C88.672,103.043,88.891,102.757,89.146,102.477z"/>
	<path d="M88.412,107.252l0.178,1.833l0.454,4.648l4.78,0.029l8.061-0.048h39.293v-9.864h-1.143
		c-3.467-4.37-13.592-7.527-25.605-7.527C99.471,96.323,87.822,101.216,88.412,107.252z"/>
	<path d="M169.337,95.323c11.346,0,21.131,2.807,24.932,7.152c0.199,0.227,0.375,0.46,0.539,0.695
		c-1.469-5.162-12.064-9.095-25.471-9.095c-13.994,0-25.586,4.282-27.12,9.775h-0.139v9.864h52.007l0.621-4.629l0.246-1.833
		c0.811-6.036-10.66-10.929-25.615-10.929c-12.014,0-22.254,3.157-25.883,7.527h-1.231
		C145.677,98.871,156.382,95.323,169.337,95.323z"/>
	<path d="M228.611,128.918c-0.021-0.292-0.066-0.58-0.134-0.864c-0.011-0.046-0.022-0.092-0.033-0.138
		c-0.075-0.287-0.169-0.569-0.287-0.846c-0.013-0.032-0.03-0.064-0.045-0.097c-0.129-0.29-0.276-0.575-0.452-0.853
		c-0.181-0.284-0.388-0.56-0.613-0.83c-0.018-0.02-0.031-0.04-0.049-0.059c-0.22-0.258-0.463-0.509-0.724-0.753
		c-0.032-0.03-0.063-0.061-0.097-0.09c-0.264-0.239-0.543-0.471-0.844-0.694c-0.037-0.028-0.076-0.056-0.112-0.083
		c-0.31-0.226-0.636-0.444-0.98-0.653c-0.028-0.018-0.058-0.034-0.088-0.052c-0.741-0.442-1.563-0.848-2.459-1.209
		c-0.006-0.002-0.012-0.005-0.019-0.007c-0.439-0.177-0.898-0.342-1.373-0.497c-0.037-0.012-0.072-0.024-0.109-0.036
		c-0.464-0.15-0.945-0.289-1.439-0.417c-0.047-0.012-0.092-0.023-0.139-0.035c-0.501-0.127-1.015-0.243-1.544-0.347
		c-0.034-0.006-0.069-0.012-0.104-0.019c-2.094-0.403-4.4-0.625-6.871-0.625h-4.932h-103.28l-8.061,0.048l-5.968-0.036v0.034
		l-12.125,0.007l-1.219,0.028l-3.675,0.085l-1.197,0.028c-0.456,0.044-0.904,0.097-1.347,0.153
		c-1.972-11.979,0.768-24.999,7.17-35.02c2.856,0.967,6.373,1.517,8.919,1.586c0-0.472,0.011-0.853,0.018-0.94
		c0.38-4.437-1.195-8.485-4.323-11.108c-2.197-1.842-4.952-2.815-7.967-2.815c-0.394,0-0.794,0.017-1.191,0.052
		c-0.609,0.052-1.229,0.15-1.896,0.301c-0.061,0.014-0.122,0.02-0.183,0.02c-0.101,0-0.54,0.111-0.972,0.205
		c0.263,2.459,0.837,5.255,1.713,7.465c-7.492,12.11-10.608,27.847-8.097,42.016c-0.782,0.33-1.514,0.688-2.173,1.082
		c-0.03,0.018-0.063,0.036-0.092,0.054c-0.344,0.208-0.668,0.426-0.976,0.65c-0.04,0.029-0.08,0.058-0.119,0.087
		c-0.298,0.223-0.579,0.454-0.839,0.691c-0.034,0.031-0.067,0.063-0.1,0.094c-0.26,0.243-0.502,0.492-0.721,0.749
		c-0.019,0.021-0.035,0.043-0.052,0.064c-0.224,0.268-0.429,0.541-0.607,0.822c-0.001,0.002-0.002,0.005-0.004,0.007
		c-0.174,0.276-0.322,0.56-0.45,0.848c-0.016,0.035-0.033,0.068-0.048,0.103c-0.117,0.275-0.209,0.555-0.285,0.84
		c-0.012,0.048-0.025,0.097-0.036,0.145c-0.065,0.282-0.11,0.567-0.132,0.857c-0.004,0.05-0.006,0.102-0.008,0.152
		c-0.014,0.295-0.01,0.593,0.022,0.896c0.004,0.04,0.012,0.081,0.017,0.121c0.039,0.315,0.099,0.633,0.19,0.955
		c0,0.004,0,0.008,0.002,0.012l3.981,13.929l6.233,21.809c0.447,1.565,1.365,3.058,2.639,4.414
		c3.825,4.068,10.873,6.924,18.135,6.924h0.001h0.168l-1.762-16.238c-0.404-3.729,1.023-7.411,3.917-10.107
		c2.885-2.688,7.051-4.23,11.431-4.23h83.771c4.369,0,8.535,1.535,11.433,4.215c2.903,2.686,4.354,6.357,3.983,10.076l-1.631,16.287
		h0.021h0.003c7.262,0,14.312-2.855,18.135-6.924c1.274-1.357,2.192-2.85,2.64-4.414l10.215-35.738
		c0.094-0.329,0.154-0.653,0.193-0.975c0.004-0.037,0.012-0.073,0.018-0.109c0.029-0.306,0.035-0.606,0.02-0.904
		C228.617,129.014,228.615,128.966,228.611,128.918z"/>
</g>
</svg>
