<?xml version="1.0" encoding="utf-8"?>
<!-- Generator: Adobe Illustrator 15.1.0, SVG Export Plug-In . SVG Version: 6.00 Build 0)  -->
<!DOCTYPE svg PUBLIC "-//W3C//DTD SVG 1.1//EN" "http://www.w3.org/Graphics/SVG/1.1/DTD/svg11.dtd">
<svg version="1.1" id="Layer_4" xmlns="http://www.w3.org/2000/svg" xmlns:xlink="http://www.w3.org/1999/xlink" x="0px" y="0px"
	 width="283.465px" height="283.465px" viewBox="0 0 283.465 283.465" enable-background="new 0 0 283.465 283.465"
	 xml:space="preserve">
<g>
	<path d="M216.654,244.292h-10.809V134.988v-36.93V76.803c0-6.585-4.601-11.925-10.314-11.925l-3.76,0.771l-0.009,0.002
		l-8.271,1.695c0,0.017-0.002,0.032-0.004,0.048l-11.235,2.368V45.482l0.776,0.306c0.933,0.377,1.889,0.571,2.845,0.571
		c2.919,0,5.685-1.705,6.86-4.559c1.576-3.764-0.224-8.063-4.02-9.633L150.68,19.736c0.023,0.333,0.053,0.665,0.053,1.004
		c0,4.801-2.34,9.054-5.931,11.715l-0.323,0.708l16.469,7.693v11.619h0.002v19.668l-1.444,0.304
		c-0.006-0.012-0.011-0.023-0.017-0.035L82.526,88.768c-4.947,0-9.034,3.992-10.073,9.29h-0.207v1.401
		c-0.037,0.409-0.057,0.822-0.057,1.242v26.101c0.019,0.001,0.038,0.003,0.057,0.005v117.485h-5.435
		c-4.796,0-8.684,3.394-8.684,7.58v16.927c0,4.186,3.888,7.579,8.684,7.579h27.658h11.655h61.005h36.609h12.914
		c4.799,0,8.686-3.395,8.686-7.579v-16.927C225.338,247.685,221.452,244.292,216.654,244.292z M167.872,148.944
		c0,11.493-7.46,21.271-17.79,24.765l-8.349,14.459l-8.349-14.459c-10.329-3.492-17.79-13.271-17.79-24.765
		c0-1.767,0.179-3.491,0.514-5.159l-8.457-14.648h17.057c4.578-3.941,10.526-6.331,17.026-6.331c6.499,0,12.447,2.39,17.024,6.331
		h17.057l-8.457,14.648C167.693,145.453,167.872,147.178,167.872,148.944z"/>
	<path d="M141.734,125.335c-13.02,0-23.609,10.591-23.609,23.609c0,13.02,10.59,23.609,23.609,23.609
		c13.018,0,23.608-10.591,23.608-23.609C165.342,135.927,154.752,125.335,141.734,125.335z M141.734,166.868
		c-9.884,0-17.924-8.041-17.924-17.924s8.04-17.924,17.924-17.924c9.881,0,17.92,8.041,17.92,17.924
		S151.615,166.868,141.734,166.868z"/>
	<path d="M141.734,132.707c-8.953,0-16.237,7.283-16.237,16.237c0,8.953,7.284,16.237,16.237,16.237
		c8.952,0,16.235-7.284,16.235-16.237C157.969,139.99,150.686,132.707,141.734,132.707z M131.065,156.497l10.669-18.478
		l10.668,18.478H131.065z"/>
	<circle cx="134.682" cy="20.271" r="13.184"/>
</g>
</svg>
