<?xml version="1.0" encoding="utf-8"?>
<!-- Generator: Adobe Illustrator 15.1.0, SVG Export Plug-In . SVG Version: 6.00 Build 0)  -->
<!DOCTYPE svg PUBLIC "-//W3C//DTD SVG 1.1//EN" "http://www.w3.org/Graphics/SVG/1.1/DTD/svg11.dtd">
<svg version="1.1" id="Layer_8" xmlns="http://www.w3.org/2000/svg" xmlns:xlink="http://www.w3.org/1999/xlink" x="0px" y="0px"
	 width="283.465px" height="283.465px" viewBox="0 0 283.465 283.465" enable-background="new 0 0 283.465 283.465"
	 xml:space="preserve">
<path d="M243.598,130.011c-0.022-1.031-0.119-2.182-0.29-3.499c-0.415-3.286-1.199-6.36-2.328-9.139
	c-3.648-8.987-10.423-14.053-19.588-14.649c-0.238-0.016-0.478-0.016-0.715,0c-4.834,0.315-9.001,1.876-12.396,4.601
	c-0.394-1.563-0.879-3.061-1.456-4.48c-3.648-8.987-10.422-14.053-19.588-14.649c-0.237-0.016-0.477-0.016-0.714,0
	c-5.699,0.371-10.472,2.474-14.145,6.175c-3.718-8.508-10.362-13.303-19.264-13.882c-0.237-0.015-0.478-0.015-0.715,0
	c-4.279,0.279-8.038,1.535-11.199,3.71V70.859v-3.687V35.815v-1.307v-1.774h-0.092c-0.048-0.579-0.114-1.193-0.199-1.848
	c-0.417-3.285-1.2-6.36-2.329-9.139c-3.649-8.987-10.422-14.052-19.587-14.649c-0.238-0.015-0.478-0.015-0.715,0
	c-9.157,0.597-15.925,5.662-19.573,14.647c-1.129,2.778-1.913,5.853-2.327,9.122c-0.086,0.667-0.155,1.286-0.205,1.866h-0.102v1.774
	v1.307v31.357v3.687v72.726c-3.475-3.487-6.769-6.288-9.935-8.454c-0.484-0.332-0.966-0.647-1.446-0.948l-5.001-3.669
	c-0.032-0.025-0.065-0.051-0.097-0.075c-0.822-0.623-1.783-1.264-2.921-1.948c-2.832-1.716-5.728-3.015-8.605-3.858
	c-9.308-2.729-17.486-0.573-23.652,6.234c-0.161,0.177-0.309,0.364-0.445,0.561c-5.225,7.542-5.465,15.994-0.696,24.437
	c1.474,2.611,3.396,5.137,5.698,7.494c0.924,0.951,1.748,1.731,2.519,2.387c0.046,0.04,0.094,0.078,0.142,0.116l10.644,10.194
	c21.923,24.427,37.55,56.239,45.745,95.396c0.041,0.191,0.094,0.378,0.153,0.562l0.005,0.022c0.029,0.083,0.362,1.057,0.723,2.06
	c0.396,1.104,0.827,2.243,0.921,2.267c0.043,0.011,0.088,0.016,0.133,0.016c0.136,0,0.27-0.051,0.374-0.146
	c12.442-11.491,30.101-17.078,53.987-17.078c21.128,0,39.126,5.91,52.049,17.09c0.102,0.087,0.229,0.134,0.36,0.134
	c0.041,0,0.082-0.004,0.123-0.013c0.171-0.04,0.313-0.158,0.383-0.319l1.123-3.124l0.175-0.486c0.08-0.166,0.154-0.336,0.219-0.513
	c0.522-1.441,1.056-2.958,1.6-4.544l0.024-0.067c0-0.002,0-0.004,0-0.006c3.415-9.965,7.255-22.759,11.444-38.13
	c4.942-18.102,9.554-42.734,11.263-76.391c0.005-0.084,0.109-1.71,0.109-1.794l0.411-6.775v-14.083
	C243.6,130.092,243.599,130.052,243.598,130.011z"/>
</svg>
