<?xml version="1.0" encoding="utf-8"?>
<!-- Generator: Adobe Illustrator 15.1.0, SVG Export Plug-In . SVG Version: 6.00 Build 0)  -->
<!DOCTYPE svg PUBLIC "-//W3C//DTD SVG 1.0//EN" "http://www.w3.org/TR/2001/REC-SVG-20010904/DTD/svg10.dtd">
<svg version="1.0" id="Layer_3" xmlns="http://www.w3.org/2000/svg" xmlns:xlink="http://www.w3.org/1999/xlink" x="0px" y="0px"
	 width="283.46px" height="283.46px" viewBox="0 0 283.46 283.46" enable-background="new 0 0 283.46 283.46" xml:space="preserve">
<g>
	<path fill="#231F20" d="M170.82,52.173c-0.571-0.156-1.188-0.04-1.661,0.32c-0.474,0.361-0.753,0.922-0.753,1.517v13.905
		c0,0.828,0.535,1.562,1.325,1.815c38.29,12.259,64.017,47.487,64.017,87.658c0,50.737-41.278,92.017-92.019,92.017
		c-50.738,0-92.017-41.279-92.017-92.017c0-40.172,25.727-75.4,64.017-87.658c0.789-0.253,1.325-0.987,1.325-1.815V54.01
		c0-0.595-0.279-1.156-0.753-1.517c-0.473-0.359-1.088-0.477-1.662-0.32c-47.147,13.049-80.075,56.315-80.075,105.215
		c0,60.195,48.971,109.166,109.165,109.166c60.196,0,109.168-48.971,109.168-109.166C250.897,108.488,217.969,65.222,170.82,52.173z
		"/>
	<path fill="#231F20" d="M141.731,130.602c6.169,0,11.169-5.089,11.169-11.369V28.275c0-6.278-5-11.369-11.169-11.369
		s-11.17,5.091-11.17,11.369v90.958C130.561,125.513,135.562,130.602,141.731,130.602z"/>
</g>
</svg>
