<?xml version="1.0" encoding="utf-8"?>
<!-- Generator: Adobe Illustrator 15.1.0, SVG Export Plug-In . SVG Version: 6.00 Build 0)  -->
<!DOCTYPE svg PUBLIC "-//W3C//DTD SVG 1.1//EN" "http://www.w3.org/Graphics/SVG/1.1/DTD/svg11.dtd">
<svg version="1.1" id="Layer_1" xmlns="http://www.w3.org/2000/svg" xmlns:xlink="http://www.w3.org/1999/xlink" x="0px" y="0px"
	 width="283.465px" height="283.465px" viewBox="911.768 1108.267 283.465 283.465"
	 enable-background="new 911.768 1108.267 283.465 283.465" xml:space="preserve">
<g>
	<path fill="none" d="M986.08,1242.238c-0.313-0.028-0.767,0.057-0.994,0.198c-0.227,0.143-1.05,0.54-1.846,0.853
		c-0.767,0.341-1.675,0.71-1.987,0.852c-1.619,0.738-3.663,1.42-4.288,1.42c-0.369,0-1.874,0.625-3.322,1.362
		c-11.642,6.077-18.4,13.261-20.927,22.205c-0.596,2.158-0.71,8.633-0.142,10.479c2.187,7.438,6.446,11.301,13.431,12.295
		c4.827,0.652,10.023-0.824,13.062-3.721c3.521-3.407,3.351-9.625-0.369-13.231c-2.243-2.158-3.805-2.073-2.726,0.142
		c0.71,1.477,1.448,4.26,1.448,5.452c0,3.151-2.187,5.963-5.367,6.843c-3.833,1.079-7.894,0.171-10.506-2.328
		c-1.761-1.703-2.385-3.18-2.527-6.076c-0.142-2.868,0.483-5.253,2.073-7.752c1.846-2.896,4.259-4.288,9.371-5.367
		c5.452-1.164,10.222,0.313,14.396,4.458c0.284,0.284,0.71,0.512,0.965,0.512c0.397,0,0.426-0.341,0.199-3.066
		c-0.454-5.85-0.284-13.602,0.568-24.619l0,0C986.648,1242.465,986.534,1242.295,986.08,1242.238z"/>
	<path fill="none" d="M1011.408,1205.438c-1.477-1.761-1.448-1.732-3.322-1.136c-2.101,0.653-2.129,0.71-2.044,2.385
		c0.028,0.852-0.113,2.243-0.369,3.096c-0.255,0.852-0.625,2.186-0.823,2.981c-0.228,0.767-0.625,2.186-0.88,3.123
		c-1.107,3.861-1.25,4.714-0.824,4.884c0.199,0.085,0.938-0.284,1.59-0.795c0.682-0.539,1.363-1.051,1.505-1.164
		c0.17-0.114,0.88-0.71,1.59-1.278c0.71-0.596,2.158-1.788,3.237-2.641c1.051-0.852,2.385-1.987,2.953-2.47
		c0.568-0.512,1.107-0.938,1.221-0.938c0.113,0,0.284-0.256,0.369-0.596c0.142-0.455-0.142-0.938-1.334-2.215
		C1013.452,1207.795,1012.146,1206.346,1011.408,1205.438z"/>
	<path fill="none" d="M1021.005,1219.749c6.162-4.372,10.023-7.638,15.334-12.947c4.884-4.855,8.632-9.314,8.66-10.279
		c0-0.256-2.527-4.714-3.55-6.247c-0.028-0.057-0.426-0.142-0.88-0.198c-0.938-0.114-2.925,0.113-7.212,0.823
		c-1.647,0.255-4.004,0.652-5.254,0.852c-1.249,0.199-3.293,0.597-4.543,0.852c-1.249,0.256-3.151,0.653-4.259,0.853
		c-3.777,0.767-5.963,1.221-7.951,1.703c-1.079,0.256-2.754,0.653-3.691,0.852c-3.776,0.881-5.48,1.278-6.957,1.732
		c-0.852,0.256-2.271,0.625-3.123,0.852c-1.675,0.397-3.833,1.051-4.543,1.335c-0.227,0.085-1.391,0.426-2.556,0.767
		c-5.508,1.59-15.049,5.253-15.475,5.935c-0.227,0.397,0.54,1.42,3.038,4.117l1.817,1.959l2.698-1.192
		c1.448-0.682,3.89-1.731,5.367-2.328c1.477-0.625,2.924-1.249,3.18-1.392c0.284-0.142,1.05-0.426,1.704-0.596
		c2.726-0.682,2.612-0.682,2.385-0.086c-0.114,0.284-0.341,1.363-0.483,2.386c-0.142,1.021-0.341,2.044-0.426,2.271
		c-0.085,0.227-0.341,1.448-0.568,2.697c-0.228,1.249-0.625,3.237-0.852,4.401c-0.682,3.294-1.902,10.393-2.3,13.261
		c-0.085,0.682-0.397,1.42-0.767,1.731c-0.653,0.625-6.9,4.884-7.127,4.884c-0.199,0-3.464,2.357-4.373,3.124
		c-0.426,0.397-0.568,0.71-0.397,0.88c0.255,0.256,1.079-0.057,5.054-1.874c0.795-0.341,2.187-0.993,3.124-1.392
		c0.937-0.426,1.931-0.88,2.186-1.021c0.284-0.171,0.625-0.284,0.795-0.284c0.369,0,0.369,1.533,0,4.259
		c-0.824,6.475-1.221,14.027-1.022,20.218c0.255,8.916,1.392,18.769,2.215,19.28c0.937,0.596,0.994,0.227,1.221-6.701
		c0.085-2.812,0.284-6.077,0.426-7.241s0.454-3.805,0.71-5.82c0.681-5.992,0.965-8.093,1.419-10.933
		c0.256-1.477,0.54-3.492,0.682-4.458c0.142-0.965,0.397-2.385,0.568-3.123s0.511-2.386,0.767-3.635
		c1.022-5.026,1.363-5.878,2.414-6.474c1.107-0.653,3.095-1.732,5.509-3.039c3.152-1.703,12.692-7.553,14.254-8.745
		C1018.649,1221.425,1019.926,1220.515,1021.005,1219.749z M1005.672,1222.135c-5.708,4.287-6.673,4.855-6.673,4.117
		c0-0.284,0.767-3.55,1.42-5.963c1.051-4.032,1.448-5.48,2.385-8.66c1.306-4.601,1.306-4.97-0.313-6.503l-1.051-0.966l1.136-0.482
		c0.597-0.256,1.562-0.567,2.102-0.71c0.54-0.142,1.704-0.454,2.556-0.71c3.351-0.993,10.023-2.669,13.629-3.407
		c1.022-0.198,2.754-0.596,3.833-0.852c1.107-0.228,2.812-0.568,3.834-0.738c1.021-0.171,2.413-0.397,3.123-0.511
		c0.71-0.143,1.363-0.256,1.505-0.284c0.597-0.086-0.028,0.795-2.328,3.294c-4.742,5.196-10.989,10.903-21.183,19.365
		C1009.335,1219.38,1007.546,1220.743,1005.672,1222.135z"/>
	<path fill="none" d="M1026.514,1185.874c0.568,1.136,1.164,2.328,1.307,2.641c0.341,0.653,1.306,0.966,2.215,0.71
		c0.823-0.255,5.082-0.937,8.489-1.363c2.073-0.255,2.925-0.255,3.465,0c0.71,0.312,3.208,3.89,4.713,6.73
		c0.625,1.164,0.796,1.817,0.653,2.356c-0.17,0.738-1.646,3.152-2.129,3.464c-0.114,0.086-0.256,0.455-0.284,0.824
		c-0.086,0.596,0.113,0.738,1.618,1.164c5.225,1.562,8.973,1.788,14.056,0.88c4.884-0.852,8.234-2.215,12.636-5.083
		c3.776-2.498,8.291-7.609,10.165-11.556c2.471-5.225,3.294-8.377,3.521-13.488c0.17-4.373-0.426-8.859-1.505-11.273
		c-0.228-0.482-0.397-1.022-0.397-1.221c0-0.738-2.67-5.651-4.117-7.553c-1.846-2.442-3.124-3.805-5.396-5.708
		c-1.817-1.505-5.906-4.061-6.474-4.061c-0.199,0-0.597-0.17-0.909-0.369s-1.533-0.653-2.697-1.022s-2.499-0.767-2.981-0.937
		c-0.88-0.284-10.052-0.54-11.784-0.341c-1.249,0.17-4.969,1.079-6.104,1.533c-6.56,2.471-11.415,6.02-15.163,11.074
		c-1.618,2.158-4.004,6.417-4.004,7.156c0,0.199-0.17,0.681-0.369,1.079c-1.221,2.385-1.902,8.093-1.562,13.346
		C1023.703,1178.832,1024.612,1182.069,1026.514,1185.874z"/>
	<path fill="none" d="M1056.102,1213.247c-0.114,0.369-0.512,1.392-0.852,2.3c-0.313,0.909-0.597,1.902-0.597,2.215
		c0,0.738,2.243,3.151,2.811,3.038c0.512-0.113,0.796-1.874,0.853-4.997c0.028-1.533-0.057-1.874-0.682-2.471
		C1056.783,1212.452,1056.414,1212.452,1056.102,1213.247z"/>
	<path fill="none" d="M1074.899,1244.282L1074.899,1244.282c-0.085-0.227-0.227-0.426-0.341-0.426c-0.198,0-1.618,1.704-4.713,5.622
		c-1.221,1.591-2.386,2.896-2.584,2.896c-0.171,0-0.512,0.228-0.767,0.512c-0.426,0.454-0.483,1.703-0.483,10.79
		c-0.028,5.65,0.058,10.421,0.143,10.563c0.085,0.171,1.306,0.284,2.726,0.284h2.527v-3.493c0.028-7.155,1.192-16.043,3.123-24.136
		C1074.842,1245.674,1075.013,1244.51,1074.899,1244.282z"/>
	<path fill="none" d="M1089.892,1227.529c0.142-0.142,0.255-0.426,0.255-0.653c0-0.227,0.171-0.795,0.398-1.277
		c0.681-1.618,1.021-2.499,1.021-2.669c0-0.085-1.107-1.277-2.47-2.669c-1.534-1.591-2.67-2.527-3.039-2.527
		c-0.596,0-2.811,1.817-6.417,5.225c-2.556,2.413-4.23,3.72-4.458,3.464c-0.113-0.085-0.057-0.937,0.143-1.817
		c0.567-2.754,0.482-3.436-0.512-3.776c-0.454-0.17-0.852-0.397-0.852-0.511c0-0.284-1.902-1.164-2.527-1.164
		c-0.567,0-1.192,1.107-2.158,3.833c-0.937,2.612-1.817,3.748-4.628,6.02c-1.533,1.192-2.812,2.271-2.896,2.357
		c-0.085,0.085-0.767,0.681-1.562,1.277c-0.767,0.625-1.477,1.221-1.562,1.307c-0.369,0.482-4.004,3.095-4.26,3.095
		c-0.369,0-0.142-1.562,0.454-3.124c0.199-0.539,0.625-1.959,0.994-3.123c0.341-1.164,0.738-2.271,0.852-2.441
		c0.143-0.171,0.341-0.881,0.427-1.563c0.17-1.249,0.17-1.277-1.761-3.18c-1.051-1.051-2.045-1.902-2.158-1.902
		c-0.284,0-1.363,2.129-1.363,2.669c0,0.256-0.198,0.908-0.454,1.505c-1.646,3.833-1.505,3.663-7.639,9.37
		c-4.089,3.776-4.884,4.43-5.225,4.231c-0.17-0.114-0.17-0.54,0.028-1.108c0.143-0.482,0.398-1.562,0.568-2.328
		c0.142-0.795,0.369-1.562,0.511-1.703c0.143-0.171,0.397-1.051,0.597-2.017l0.341-1.703l-1.618-2.471
		c-0.909-1.335-1.817-2.584-2.045-2.783c-0.228-0.17-0.397-0.426-0.397-0.567s-0.397-0.823-0.908-1.533
		c-0.909-1.278-0.909-1.307-0.455-2.215c1.392-2.669,2.812-8.746,2.357-10.108c-0.086-0.341-0.284-0.597-0.426-0.597
		c-0.341,0-1.903,1.987-3.777,4.827c-0.88,1.335-2.101,3.123-2.726,3.976c-0.625,0.852-1.477,2.016-1.846,2.584
		c-0.369,0.567-0.852,1.192-1.079,1.42c-0.198,0.227-1.192,1.477-2.215,2.811c-1.732,2.3-6.304,7.979-7.865,9.796
		c-2.3,2.67-6.304,7.44-6.957,8.292c-0.88,1.164-0.795,1.562,0.681,2.697c0.511,0.397,1.363,1.136,1.902,1.618
		c0.54,0.483,1.136,0.881,1.335,0.881s1.334-1.192,2.527-2.641c1.193-1.42,2.385-2.868,2.641-3.181
		c0.397-0.454,2.896-3.635,3.833-4.827c1.136-1.505,3.266-4.315,3.606-4.799c0.227-0.341,1.362-1.931,2.526-3.549l2.13-2.953
		l0.795,0.908c0.427,0.482,0.796,1.164,0.796,1.533c0,0.341-0.398,2.102-0.881,3.891c-1.874,7.014-3.351,15.446-2.925,16.753
		c0.171,0.539,4.004,3.407,4.544,3.407c0.454,0,2.612-1.846,5.225-4.486c3.662-3.663,5.679-5.537,5.82-5.396
		c0.086,0.058,0.028,1.051-0.113,2.215c-0.142,1.136-0.171,2.301-0.085,2.584c0.369,0.994,3.038,3.947,3.577,3.947
		c0.483,0,3.01-2.271,11.358-10.279c1.277-1.221,2.385-2.215,2.527-2.215c0.341,0,0.227,1.051-0.397,3.209
		c-1.051,3.606-1.136,4.202-0.824,4.6c0.171,0.199,1.25,0.824,2.414,1.392c2.045,0.994,2.158,1.022,2.84,0.568
		c0.397-0.256,0.71-0.568,0.71-0.682c0-0.143,0.17-0.426,0.368-0.625c0.171-0.198,1.42-1.704,2.755-3.351
		c3.691-4.6,8.632-9.938,9.172-9.938c0.283,0,0.17,0.767-0.483,3.266c-2.953,10.79-4.43,18.826-5.025,26.833
		c-0.568,8.064,0.397,19.593,1.59,18.429c0.057-0.085,0.313-1.676,0.568-3.55c1.05-7.979,2.669-16.554,4.4-23.113
		c0.738-2.754,1.193-4.543,1.563-5.82c0.227-0.796,0.624-2.187,0.88-3.124c0.256-0.937,0.795-2.669,1.164-3.833
		c0.397-1.164,0.88-2.697,1.079-3.407s1.164-3.521,2.13-6.247c0.965-2.727,1.874-5.424,2.044-5.963
		C1089.494,1228.267,1089.749,1227.7,1089.892,1227.529z"/>
	<path fill="none" d="M1127.997,1237.893c-0.426,0-0.511,0.738-0.113,0.966c0.313,0.198,0.937-0.512,0.682-0.767
		C1128.481,1237.978,1128.225,1237.893,1127.997,1237.893z"/>
	<path fill="none" d="M1103.521,1233.606l-1.136,1.731c-1.192,1.817-1.448,2.556-0.795,2.556c0.313,0,2.953-1.392,5.253-2.754
		c0.199-0.113,0.397-0.482,0.426-0.795c0.058-0.512-0.142-0.568-1.845-0.653L1103.521,1233.606z"/>
	<path fill="none" d="M1142.706,1215.064c-3.776-2.499-4.004-2.584-6.729-2.017c-1.25,0.228-3.01,0.568-3.947,0.738
		c-0.937,0.171-2.158,0.397-2.697,0.54c-0.54,0.142-2.386,0.567-4.117,0.965c-4.515,1.051-5.565,1.42-5.878,2.017
		c-0.17,0.284-0.397,3.351-0.482,6.786l-0.171,6.275l-1.703,1.136c-1.988,1.363-11.046,6.9-11.897,7.27
		c-0.341,0.142-1.051,0.539-1.591,0.852c-1.931,1.164-6.729,3.663-7.07,3.663c-0.17,0-0.313-0.199-0.313-0.454
		c0-0.455,2.471-5.651,3.777-7.951c1.164-2.102,4.997-7.638,6.332-9.2c0.738-0.852,1.505-1.846,1.731-2.187
		c0.625-0.965,0.853-0.795,1.022,0.653c0.199,1.959,0.625,2.215,3.407,2.243c1.533,0,2.527-0.142,2.812-0.369
		c0.369-0.284,0.482-1.362,0.653-5.14c0.198-4.685,0.057-5.991-0.71-5.991c-0.171,0-1.107-0.567-2.13-1.277
		c-1.022-0.682-2.414-1.59-3.066-1.987l0,0c-0.682-0.398-1.307-0.71-1.363-0.71c-0.852,0-7.638,8.802-11.329,14.651
		c-2.215,3.55-5.537,9.967-6.815,13.175c-0.313,0.853-0.71,1.817-0.823,2.13c-0.653,1.591-0.966,2.697-1.249,4.089l-0.313,1.533
		l0.965,0.796c1.505,1.277,6.418,4.515,6.815,4.515c0.17,0,1.051-0.397,1.931-0.881c2.13-1.164,9.257-5.423,9.427-5.65
		c0.086-0.085,1.051-0.71,2.13-1.363c1.107-0.681,3.266-2.044,4.827-3.066c3.407-2.187,4.43-2.754,4.571-2.584
		c0.057,0.057,0.256,2.84,0.397,6.19c0.483,9.796,0.597,11.074,1.022,11.244c0.597,0.228,2.868-1.703,8.462-7.155
		c2.782-2.726,7.383-8.036,8.973-10.336c0.397-0.567,0.795-1.079,0.938-1.107c0.227-0.113,0.283-1.477,0.057-1.477
		c-0.199,0-1.789,0.938-4.686,2.754c-3.748,2.357-7.865,4.629-8.434,4.629c-0.397,0-0.426-0.397-0.255-4.23
		c0.085-2.329,0.313-4.657,0.511-5.14c0.199-0.653,0.994-1.392,2.612-2.584c1.25-0.909,2.442-1.761,2.584-1.902
		c0.171-0.143,0.994-0.738,1.846-1.335s1.987-1.448,2.499-1.902c0.511-0.426,1.022-0.795,1.136-0.795s0.511-0.284,0.908-0.653
		s1.42-1.192,2.271-1.817c4.345-3.266,5.821-4.543,5.906-5.083C1145.517,1217.08,1144.949,1216.569,1142.706,1215.064z
		 M1127.061,1224.264c-0.397,0-0.341-2.925,0.085-3.465c0.17-0.256,0.738-0.539,1.192-0.596c1.591-0.228,4.401-0.199,4.401,0.028
		C1132.74,1220.601,1127.572,1224.264,1127.061,1224.264z"/>
	<path d="M1167.012,1260.609c-1.533-2.47-3.266-6.218-4.515-9.796c-4.771-13.374-5.196-23.426-1.731-41.599
		c0.397-2.102,0.823-4.401,0.937-5.111s0.426-2.187,0.71-3.266c0.256-1.107,0.653-2.754,0.852-3.69
		c0.482-2.244,1.079-4.544,1.959-7.667c1.193-4.146,0.909-5.679-0.709-3.947c-0.682,0.767-6.275,5.452-9.115,7.667
		c-0.823,0.653-2.896,2.13-4.628,3.294c-4.43,2.981-7.383,4.742-12.636,7.496c-1.563,0.795-6.787,3.237-6.985,3.237
		c-0.085,0-0.682,0.227-1.335,0.539c-2.044,0.881-6.701,2.527-9.427,3.294c-0.938,0.256-2.3,0.653-3.038,0.88
		c-0.738,0.228-1.505,0.397-1.732,0.397s-1.477-0.709-2.782-1.59c-3.635-2.413-4.032-2.556-5.311-1.987
		c-0.653,0.313-1.703,1.334-2.754,2.641c-2.726,3.379-2.783,3.436-5.225,3.635c-1.192,0.113-2.84,0.313-3.691,0.454
		c-1.704,0.284-5.793,0.341-6.048,0.085c-0.086-0.085,1.447-1.761,3.436-3.748c5.31-5.281,8.859-10.222,11.727-16.242
		c1.846-3.833,2.215-4.713,2.215-5.168c0-0.227,0.114-0.511,0.256-0.681c0.284-0.313,1.079-2.783,1.477-4.601
		c1.363-6.19,1.448-7.042,1.505-12.834c0.028-7.297-0.482-10.847-2.584-17.321c-1.022-3.152-1.136-3.436-2.754-6.815
		c-4.175-8.774-10.677-16.213-19.054-21.921c-3.322-2.243-10.421-5.906-11.472-5.906c-0.17,0-0.539-0.113-0.823-0.255
		c-1.249-0.682-5.054-1.619-10.278-2.584c-1.903-0.341-10.904-0.625-12.92-0.369l0,0c-1.363,0.142-6.56,1.079-8.377,1.477
		c-1.221,0.256-5.11,1.505-7.524,2.414c-1.335,0.483-6.247,2.953-8.149,4.061c-5.111,3.038-10.478,7.724-14.652,12.863
		c-2.783,3.379-3.01,3.691-4.515,6.247c-3.464,5.878-5.338,11.159-6.957,19.734c-0.596,3.124-0.482,13.516,0.142,17.009
		c0.71,3.833,1.363,6.36,2.442,9.398c0.511,1.392,0.994,2.896,1.079,3.322c0.17,0.823,0.596,0.653-7.723,2.925
		c-2.329,0.653-6.957,2.045-9.371,2.868c-3.691,1.221-7.951,2.726-8.802,3.095c-0.455,0.199-1.846,0.767-3.038,1.277
		c-1.704,0.71-2.244,1.079-2.499,1.704c-0.682,1.647,0.17,3.038,4.742,7.865c1.76,1.874,2.527,1.96,5.679,0.483
		c7.042-3.266,7.752-3.55,8.405-3.465c0.738,0.113,0.738,0.397,0.057,3.776c-0.256,1.25-0.653,3.237-0.852,4.401
		c-0.397,2.187-0.88,4.486-1.136,5.594c-0.085,0.341-0.426,0.71-0.795,0.795c-0.341,0.114-0.994,0.369-1.477,0.568
		c-0.455,0.198-2.385,0.994-4.259,1.789c-6.645,2.811-15.561,7.666-19.025,10.336c-0.142,0.142-1.107,0.852-2.129,1.59
		c-5.708,4.089-11.216,9.824-14.056,14.595c-2.868,4.771-4.401,9.37-5.225,15.419c-0.511,3.691-0.313,6.786,0.71,11.642
		c0.852,3.918,2.868,8.604,4.685,10.818c4.572,5.594,10.96,8.206,19.99,8.206c4.571,0,5.963-0.198,9.796-1.448
		c3.975-1.306,7.837-4.061,9.938-7.07c0.994-1.448,1.988-3.634,1.988-4.373c0-0.737,0.738-1.447,1.533-1.447
		c1.732,0,2.271-2.301,2.584-11.074c0.113-2.584,0.313-5.396,0.454-6.247c0.142-0.852,0.398-2.981,0.54-4.686
		c0.653-6.871,2.953-21.381,3.777-23.709c0.085-0.228,0.227-0.768,0.312-1.193c0.114-0.426,0.426-0.908,0.71-1.079
		c0.937-0.482,5.423-1.391,11.954-2.385c3.777-0.597,3.777-0.369,0.341,3.691c-1.59,1.874-3.18,3.748-3.578,4.202
		c-0.54,0.597-0.738,1.136-0.738,2.045c0,1.079,0.142,1.334,1.647,2.754c3.862,3.635,4.458,4.032,6.048,3.691
		c0.994-0.198,5.083-4.94,10.989-12.806c2.471-3.266,3.748-4.345,3.379-2.84c-0.681,2.612-1.136,4.686-1.477,6.758
		c-0.227,1.335-0.539,3.181-0.709,4.117c-0.143,0.938-0.284,2.357-0.284,3.181c0,1.392,0.057,1.505,1.334,2.641
		c1.874,1.646,5.026,3.691,5.68,3.691c0.88,0,2.867-1.505,5.479-4.117c1.335-1.335,2.612-2.414,2.896-2.414
		c0.256,0,0.71,0.454,1.051,1.022c0.568,0.966,0.597,1.335,0.597,11.926c0,10.733,0,10.903-0.597,11.5
		c-0.511,0.511-0.823,0.568-1.902,0.426c-0.682-0.085-2.697-0.17-4.458-0.17h-3.152l-4.571-3.663
		c-2.527-2.016-4.656-3.606-4.742-3.492c-0.255,0.227-0.198,33.789,0.057,33.932c0.114,0.085,1.732-1.307,3.606-3.124
		c1.874-1.788,3.72-3.464,4.117-3.72c0.568-0.397,1.562-0.511,5.565-0.567c3.266-0.085,5.083,0,5.48,0.198l0.597,0.341v24.562
		c0,21.666-0.058,24.563-0.427,24.704c-0.426,0.17-0.965-0.17-5.395-3.322c-1.079-0.795-2.499-1.761-3.095-2.158
		c-0.625-0.397-1.25-0.852-1.42-0.993c-1.051-0.881-4.345-3.067-4.629-3.067c-0.426,0-0.482,0.625-0.113,1.022
		c0.142,0.142,2.3,4.288,4.799,9.2c13.431,26.492,15.986,31.547,18.485,36.459c1.505,2.981,2.867,5.424,3.066,5.48
		c0.17,0.057,0.426-0.171,0.539-0.54c0.114-0.369,1.902-4.174,4.004-8.462c2.13-4.287,5.168-10.563,6.815-13.913
		c2.697-5.537,3.379-6.9,4.117-8.234c0.113-0.228,1.902-3.891,3.946-8.093c2.045-4.23,4.288-8.803,4.97-10.165
		c1.646-3.294,1.249-3.407-2.357-0.71c-4.458,3.379-10.79,7.553-11.103,7.354c-0.511-0.313-0.567-49.124-0.085-49.407
		c0.738-0.455,6.219-0.653,7.865-0.284c1.619,0.369,1.846,0.539,8.32,6.417c0.71,0.625,1.392,1.107,1.505,1.051
		c0.255-0.171,0.313-33.165,0.057-33.421c-0.113-0.085-0.938,0.426-1.874,1.136c-1.221,0.966-1.761,1.221-1.987,0.994
		c-0.228-0.228-0.228-0.512,0.028-1.107c0.17-0.426,0.454-1.505,0.596-2.357c0.341-1.846,0.938-4.571,1.533-6.956
		c1.079-4.345,1.307-5.225,1.704-6.673c0.227-0.853,0.539-1.96,0.682-2.414c0.17-0.482,0.369-1.192,0.454-1.646
		c0.228-0.938,0.908-0.994,1.874-0.114c0.397,0.341,1.931,1.448,3.407,2.442s3.01,2.044,3.379,2.356
		c1.222,0.938,2.925,0.682,5.339-0.767c1.136-0.71,2.157-1.277,2.243-1.277c0.085,0,0.71-0.397,1.391-0.852
		c0.682-0.483,1.335-0.853,1.448-0.853c0.114,0,0.994-0.511,1.932-1.136c5.764-3.805,10.08-6.36,10.335-6.133
		c0.086,0.113,0.284,1.76,0.369,3.663c0.682,11.471,0.568,10.591,1.392,11.5c1.022,1.078,2.471,0.852,4.571-0.71
		c2.158-1.591,12.21-11.586,13.602-13.517c0.511-0.738,1.221-1.42,1.562-1.505c0.568-0.142,5.622,2.271,6.701,3.181
		c0.228,0.227,0.54,0.397,0.653,0.397c0.313,0,6.048,4.004,7.724,5.395c0.482,0.397,1.505,1.222,2.271,1.817
		c1.959,1.562,7.24,6.929,8.575,8.746c1.646,2.243,3.691,4.259,4.23,4.146c0.256-0.057,0.568-0.284,0.738-0.54
		C1169.227,1264.585,1168.773,1263.477,1167.012,1260.609z M1025.037,1161.511c0.199-0.397,0.369-0.88,0.369-1.079
		c0-0.739,2.386-4.998,4.004-7.156c3.748-5.054,8.604-8.604,15.163-11.074c1.136-0.454,4.855-1.363,6.104-1.533
		c1.732-0.199,10.904,0.057,11.784,0.341c0.482,0.17,1.817,0.568,2.981,0.937s2.385,0.823,2.697,1.022s0.71,0.369,0.909,0.369
		c0.567,0,4.656,2.556,6.474,4.061c2.271,1.903,3.55,3.266,5.396,5.708c1.447,1.902,4.117,6.815,4.117,7.553
		c0,0.199,0.17,0.738,0.397,1.221c1.079,2.414,1.675,6.9,1.505,11.273c-0.228,5.111-1.051,8.263-3.521,13.488
		c-1.874,3.947-6.389,9.058-10.165,11.556c-4.401,2.868-7.752,4.231-12.636,5.083c-5.083,0.908-8.831,0.682-14.056-0.88
		c-1.505-0.426-1.704-0.568-1.618-1.164c0.028-0.369,0.17-0.738,0.284-0.824c0.482-0.312,1.959-2.726,2.129-3.464
		c0.143-0.539-0.028-1.192-0.653-2.356c-1.505-2.84-4.003-6.418-4.713-6.73c-0.54-0.255-1.392-0.255-3.465,0
		c-3.407,0.426-7.666,1.108-8.489,1.363c-0.909,0.256-1.874-0.057-2.215-0.71c-0.143-0.313-0.738-1.504-1.307-2.641
		c-1.902-3.805-2.811-7.042-3.038-11.017C1023.135,1169.604,1023.817,1163.896,1025.037,1161.511z M1058.317,1215.802
		c-0.057,3.123-0.341,4.884-0.853,4.997c-0.567,0.113-2.811-2.3-2.811-3.038c0-0.313,0.284-1.306,0.597-2.215
		c0.34-0.908,0.737-1.931,0.852-2.3c0.313-0.795,0.682-0.795,1.533,0.085C1058.26,1213.928,1058.345,1214.269,1058.317,1215.802z
		 M986.591,1243.146L986.591,1243.146c-0.852,11.018-1.022,18.77-0.568,24.619c0.228,2.726,0.199,3.066-0.199,3.066
		c-0.255,0-0.681-0.228-0.965-0.512c-4.174-4.146-8.944-5.622-14.396-4.458c-5.111,1.079-7.525,2.471-9.371,5.367
		c-1.59,2.499-2.215,4.884-2.073,7.752c0.142,2.896,0.767,4.373,2.527,6.076c2.612,2.499,6.673,3.407,10.506,2.328
		c3.18-0.88,5.367-3.691,5.367-6.843c0-1.192-0.738-3.976-1.448-5.452c-1.079-2.215,0.483-2.3,2.726-0.142
		c3.72,3.606,3.89,9.824,0.369,13.231c-3.038,2.896-8.234,4.373-13.062,3.721c-6.985-0.994-11.245-4.856-13.431-12.295
		c-0.568-1.846-0.454-8.32,0.142-10.479c2.527-8.944,9.285-16.128,20.927-22.205c1.448-0.737,2.953-1.362,3.322-1.362
		c0.625,0,2.669-0.682,4.288-1.42c0.312-0.142,1.221-0.511,1.987-0.852c0.795-0.313,1.619-0.71,1.846-0.853
		c0.227-0.142,0.682-0.227,0.994-0.198C986.534,1242.295,986.648,1242.465,986.591,1243.146z M1003.969,1230.51
		c-2.414,1.307-4.401,2.386-5.509,3.039c-1.05,0.596-1.391,1.447-2.414,6.474c-0.255,1.249-0.596,2.896-0.767,3.635
		s-0.426,2.158-0.568,3.123c-0.142,0.966-0.426,2.981-0.682,4.458c-0.454,2.84-0.738,4.94-1.419,10.933
		c-0.256,2.016-0.568,4.656-0.71,5.82s-0.341,4.43-0.426,7.241c-0.227,6.928-0.284,7.297-1.221,6.701
		c-0.823-0.512-1.959-10.364-2.215-19.28c-0.199-6.19,0.199-13.743,1.022-20.218c0.369-2.726,0.369-4.259,0-4.259
		c-0.17,0-0.511,0.113-0.795,0.284c-0.255,0.142-1.249,0.596-2.186,1.021c-0.937,0.398-2.329,1.051-3.124,1.392
		c-3.976,1.817-4.799,2.13-5.054,1.874c-0.17-0.17-0.028-0.482,0.397-0.88c0.909-0.767,4.174-3.124,4.373-3.124
		c0.228,0,6.474-4.259,7.127-4.884c0.369-0.312,0.681-1.05,0.767-1.731c0.397-2.868,1.618-9.967,2.3-13.261
		c0.227-1.164,0.625-3.152,0.852-4.401c0.227-1.249,0.482-2.471,0.568-2.697c0.085-0.228,0.284-1.25,0.426-2.271
		c0.142-1.022,0.369-2.102,0.483-2.386c0.227-0.596,0.341-0.596-2.385,0.086c-0.653,0.17-1.42,0.454-1.704,0.596
		c-0.256,0.143-1.704,0.767-3.18,1.392c-1.477,0.597-3.919,1.646-5.367,2.328l-2.698,1.192l-1.817-1.959
		c-2.499-2.697-3.265-3.72-3.038-4.117c0.426-0.682,9.967-4.345,15.475-5.935c1.165-0.341,2.329-0.682,2.556-0.767
		c0.71-0.284,2.868-0.938,4.543-1.335c0.852-0.227,2.271-0.596,3.123-0.852c1.477-0.454,3.181-0.852,6.957-1.732
		c0.937-0.198,2.612-0.596,3.691-0.852c1.987-0.482,4.174-0.937,7.951-1.703c1.107-0.199,3.01-0.597,4.259-0.853
		c1.25-0.255,3.294-0.652,4.543-0.852c1.25-0.199,3.606-0.597,5.254-0.852c4.287-0.71,6.274-0.938,7.212-0.823
		c0.454,0.057,0.852,0.142,0.88,0.198c1.022,1.533,3.55,5.991,3.55,6.247c-0.028,0.965-3.776,5.424-8.66,10.279
		c-5.311,5.31-9.172,8.575-15.334,12.947c-1.079,0.767-2.356,1.676-2.782,2.017
		C1016.661,1222.958,1007.12,1228.807,1003.969,1230.51z M1071.406,1274.523h-2.527c-1.42,0-2.641-0.113-2.726-0.284
		c-0.085-0.142-0.171-4.912-0.143-10.563c0-9.087,0.058-10.336,0.483-10.79c0.255-0.284,0.596-0.512,0.767-0.512
		c0.198,0,1.363-1.306,2.584-2.896c3.095-3.918,4.515-5.622,4.713-5.622c0.114,0,0.256,0.199,0.341,0.426l0,0
		c0.114,0.228-0.057,1.392-0.369,2.612c-1.931,8.093-3.095,16.98-3.123,24.136V1274.523z M1085.178,1241.017
		c-0.199,0.71-0.682,2.243-1.079,3.407c-0.369,1.164-0.908,2.896-1.164,3.833c-0.256,0.938-0.653,2.328-0.88,3.124
		c-0.369,1.277-0.824,3.066-1.563,5.82c-1.731,6.56-3.351,15.135-4.4,23.113c-0.256,1.874-0.512,3.465-0.568,3.55
		c-1.192,1.164-2.158-10.364-1.59-18.429c0.596-8.007,2.072-16.043,5.025-26.833c0.653-2.499,0.767-3.266,0.483-3.266
		c-0.54,0-5.48,5.339-9.172,9.938c-1.335,1.646-2.584,3.152-2.755,3.351c-0.198,0.199-0.368,0.482-0.368,0.625
		c0,0.113-0.313,0.426-0.71,0.682c-0.682,0.454-0.795,0.426-2.84-0.568c-1.164-0.567-2.243-1.192-2.414-1.392
		c-0.312-0.397-0.227-0.993,0.824-4.6c0.624-2.158,0.738-3.209,0.397-3.209c-0.143,0-1.25,0.994-2.527,2.215
		c-8.349,8.008-10.875,10.279-11.358,10.279c-0.539,0-3.208-2.953-3.577-3.947c-0.086-0.283-0.057-1.448,0.085-2.584
		c0.142-1.164,0.199-2.157,0.113-2.215c-0.142-0.142-2.158,1.732-5.82,5.396c-2.612,2.641-4.771,4.486-5.225,4.486
		c-0.54,0-4.373-2.868-4.544-3.407c-0.426-1.307,1.051-9.739,2.925-16.753c0.482-1.789,0.881-3.55,0.881-3.891
		c0-0.369-0.369-1.051-0.796-1.533l-0.795-0.908l-2.13,2.953c-1.164,1.618-2.3,3.208-2.526,3.549
		c-0.341,0.483-2.471,3.294-3.606,4.799c-0.937,1.192-3.436,4.373-3.833,4.827c-0.256,0.313-1.448,1.761-2.641,3.181
		c-1.192,1.448-2.328,2.641-2.527,2.641s-0.795-0.397-1.335-0.881c-0.539-0.482-1.391-1.221-1.902-1.618
		c-1.477-1.136-1.562-1.533-0.681-2.697c0.653-0.852,4.657-5.622,6.957-8.292c1.562-1.816,6.133-7.496,7.865-9.796
		c1.022-1.334,2.017-2.584,2.215-2.811c0.228-0.228,0.71-0.853,1.079-1.42c0.369-0.568,1.221-1.732,1.846-2.584
		c0.625-0.853,1.846-2.641,2.726-3.976c1.874-2.84,3.437-4.827,3.777-4.827c0.142,0,0.34,0.256,0.426,0.597
		c0.454,1.362-0.966,7.439-2.357,10.108c-0.454,0.908-0.454,0.937,0.455,2.215c0.511,0.71,0.908,1.392,0.908,1.533
		s0.17,0.397,0.397,0.567c0.228,0.199,1.136,1.448,2.045,2.783l1.618,2.471l-0.341,1.703c-0.199,0.966-0.454,1.846-0.597,2.017
		c-0.142,0.142-0.369,0.908-0.511,1.703c-0.17,0.767-0.426,1.846-0.568,2.328c-0.198,0.568-0.198,0.994-0.028,1.108
		c0.341,0.198,1.136-0.455,5.225-4.231c6.134-5.707,5.992-5.537,7.639-9.37c0.256-0.597,0.454-1.249,0.454-1.505
		c0-0.54,1.079-2.669,1.363-2.669c0.113,0,1.107,0.852,2.158,1.902c1.931,1.902,1.931,1.931,1.761,3.18
		c-0.086,0.682-0.284,1.392-0.427,1.563c-0.113,0.17-0.511,1.277-0.852,2.441c-0.369,1.164-0.795,2.584-0.994,3.123
		c-0.596,1.563-0.823,3.124-0.454,3.124c0.256,0,3.891-2.612,4.26-3.095c0.085-0.086,0.795-0.682,1.562-1.307
		c0.795-0.597,1.477-1.192,1.562-1.277c0.085-0.086,1.363-1.165,2.896-2.357c2.811-2.271,3.691-3.407,4.628-6.02
		c0.966-2.726,1.591-3.833,2.158-3.833c0.625,0,2.527,0.88,2.527,1.164c0,0.113,0.397,0.341,0.852,0.511
		c0.994,0.341,1.079,1.022,0.512,3.776c-0.199,0.881-0.256,1.732-0.143,1.817c0.228,0.256,1.902-1.051,4.458-3.464
		c3.606-3.407,5.821-5.225,6.417-5.225c0.369,0,1.505,0.937,3.039,2.527c1.362,1.392,2.47,2.584,2.47,2.669
		c0,0.17-0.341,1.051-1.021,2.669c-0.228,0.482-0.398,1.051-0.398,1.277c0,0.228-0.113,0.512-0.255,0.653
		c-0.143,0.171-0.397,0.738-0.54,1.278c-0.17,0.539-1.079,3.236-2.044,5.963C1086.342,1237.496,1085.377,1240.307,1085.178,1241.017
		z M1145.46,1217.562c-0.085,0.54-1.562,1.817-5.906,5.083c-0.852,0.625-1.874,1.448-2.271,1.817s-0.795,0.653-0.908,0.653
		s-0.625,0.369-1.136,0.795c-0.512,0.454-1.647,1.306-2.499,1.902s-1.675,1.192-1.846,1.335c-0.142,0.142-1.334,0.993-2.584,1.902
		c-1.618,1.192-2.413,1.931-2.612,2.584c-0.198,0.482-0.426,2.811-0.511,5.14c-0.171,3.833-0.143,4.23,0.255,4.23
		c0.568,0,4.686-2.271,8.434-4.629c2.896-1.816,4.486-2.754,4.686-2.754c0.227,0,0.17,1.363-0.057,1.477
		c-0.143,0.028-0.54,0.54-0.938,1.107c-1.59,2.3-6.19,7.61-8.973,10.336c-5.594,5.452-7.865,7.383-8.462,7.155
		c-0.426-0.17-0.539-1.448-1.022-11.244c-0.142-3.351-0.341-6.134-0.397-6.19c-0.142-0.17-1.164,0.397-4.571,2.584
		c-1.562,1.022-3.72,2.386-4.827,3.066c-1.079,0.653-2.044,1.278-2.13,1.363c-0.17,0.228-7.297,4.486-9.427,5.65
		c-0.88,0.483-1.761,0.881-1.931,0.881c-0.397,0-5.311-3.237-6.815-4.515l-0.965-0.796l0.313-1.533
		c0.283-1.392,0.596-2.498,1.249-4.089c0.113-0.313,0.511-1.277,0.823-2.13c1.278-3.208,4.601-9.625,6.815-13.175
		c3.691-5.85,10.478-14.651,11.329-14.651c0.057,0,0.682,0.312,1.363,0.71l0,0c0.652,0.397,2.044,1.306,3.066,1.987
		c1.022,0.71,1.959,1.277,2.13,1.277c0.767,0,0.908,1.307,0.71,5.991c-0.171,3.777-0.284,4.855-0.653,5.14
		c-0.284,0.228-1.278,0.369-2.812,0.369c-2.782-0.028-3.208-0.284-3.407-2.243c-0.17-1.448-0.397-1.618-1.022-0.653
		c-0.227,0.341-0.993,1.335-1.731,2.187c-1.335,1.563-5.168,7.099-6.332,9.2c-1.307,2.3-3.777,7.496-3.777,7.951
		c0,0.255,0.143,0.454,0.313,0.454c0.341,0,5.14-2.499,7.07-3.663c0.54-0.313,1.25-0.71,1.591-0.852
		c0.852-0.369,9.909-5.906,11.897-7.27l1.703-1.136l0.171-6.275c0.085-3.436,0.313-6.502,0.482-6.786
		c0.313-0.597,1.363-0.966,5.878-2.017c1.731-0.397,3.577-0.823,4.117-0.965c0.539-0.143,1.761-0.369,2.697-0.54
		c0.938-0.17,2.697-0.511,3.947-0.738c2.726-0.567,2.953-0.482,6.729,2.017C1144.949,1216.569,1145.517,1217.08,1145.46,1217.562z
		 M1127.884,1238.859c-0.397-0.228-0.313-0.966,0.113-0.966c0.228,0,0.483,0.085,0.568,0.199
		C1128.821,1238.347,1128.197,1239.057,1127.884,1238.859z M1107.269,1234.344c-0.028,0.313-0.227,0.682-0.426,0.795
		c-2.3,1.362-4.94,2.754-5.253,2.754c-0.653,0-0.397-0.738,0.795-2.556l1.136-1.731l1.903,0.085
		C1107.127,1233.776,1107.326,1233.833,1107.269,1234.344z"/>
	<path d="M1030.83,1199.76c2.3-2.499,2.925-3.38,2.328-3.294c-0.142,0.028-0.795,0.142-1.505,0.284
		c-0.71,0.113-2.102,0.34-3.123,0.511c-1.022,0.17-2.727,0.511-3.834,0.738c-1.079,0.256-2.811,0.653-3.833,0.852
		c-3.606,0.738-10.279,2.414-13.629,3.407c-0.852,0.256-2.016,0.568-2.556,0.71c-0.54,0.143-1.505,0.454-2.102,0.71l-1.136,0.482
		l1.051,0.966c1.619,1.533,1.619,1.902,0.313,6.503c-0.937,3.18-1.334,4.628-2.385,8.66c-0.653,2.413-1.42,5.679-1.42,5.963
		c0,0.738,0.965,0.17,6.673-4.117c1.874-1.392,3.663-2.755,3.976-3.01C1019.841,1210.663,1026.088,1204.956,1030.83,1199.76z
		 M1015.611,1210.89c-0.085,0.34-0.256,0.596-0.369,0.596c-0.114,0-0.653,0.426-1.221,0.938c-0.568,0.482-1.902,1.618-2.953,2.47
		c-1.079,0.853-2.527,2.045-3.237,2.641c-0.71,0.568-1.42,1.164-1.59,1.278c-0.142,0.113-0.823,0.625-1.505,1.164
		c-0.653,0.511-1.391,0.88-1.59,0.795c-0.426-0.17-0.284-1.022,0.824-4.884c0.255-0.938,0.653-2.356,0.88-3.123
		c0.199-0.796,0.568-2.13,0.823-2.981c0.256-0.853,0.397-2.244,0.369-3.096c-0.085-1.675-0.057-1.731,2.044-2.385
		c1.874-0.597,1.846-0.625,3.322,1.136c0.738,0.908,2.044,2.356,2.868,3.237C1015.469,1209.953,1015.752,1210.435,1015.611,1210.89z
		"/>
	<path d="M1128.338,1220.204c-0.454,0.057-1.022,0.34-1.192,0.596c-0.426,0.54-0.482,3.465-0.085,3.465
		c0.511,0,5.679-3.663,5.679-4.032C1132.74,1220.005,1129.929,1219.976,1128.338,1220.204z"/>
</g>
</svg>
