<?xml version="1.0" encoding="utf-8"?>
<!-- Generator: Adobe Illustrator 15.1.0, SVG Export Plug-In . SVG Version: 6.00 Build 0)  -->
<!DOCTYPE svg PUBLIC "-//W3C//DTD SVG 1.1//EN" "http://www.w3.org/Graphics/SVG/1.1/DTD/svg11.dtd">
<svg version="1.1" id="Layer_5" xmlns="http://www.w3.org/2000/svg" xmlns:xlink="http://www.w3.org/1999/xlink" x="0px" y="0px"
	 width="283.46px" height="283.46px" viewBox="0 0 283.46 283.46" enable-background="new 0 0 283.46 283.46" xml:space="preserve">
<g>
	<path d="M260.39,107.255h-29.965v27.914v2.21v2.169l-177.39,0.021v-2.189v-2.189v-27.935H23.071
		c-8.828,0-15.986,5.558-15.986,12.412v6.197v3.284v8.757v32.293v23.536H22.41h0.274h22.988v-23.536h6.294h5.557v71.494
		c0,3.959,3.206,7.164,7.163,7.164h154.091c3.958,0,7.161-3.205,7.161-7.164v-71.494h0.63h10.991v23.536h23.218h0.045h15.555
		v-23.536v-32.293v-8.757v-3.284v-6.197C276.375,112.813,269.218,107.255,260.39,107.255z M192.65,213.77H92.168
		c-3.296,0-5.969-2.082-5.969-4.647c0-2.567,2.675-4.646,5.969-4.646H192.65c3.291,0,5.967,2.081,5.965,4.646
		C198.615,211.686,195.944,213.77,192.65,213.77z M192.65,179.638H92.168c-3.296,0-5.969-2.082-5.969-4.643
		c0-2.564,2.675-4.646,5.969-4.646H192.65c3.294,0,5.967,2.082,5.965,4.646C198.615,177.558,195.941,179.638,192.65,179.638z
		 M254.482,128.784c-3.779,0-6.842-3.063-6.842-6.842c0-3.779,3.063-6.842,6.842-6.842c3.778,0,6.842,3.063,6.842,6.842
		C261.324,125.72,258.26,128.784,254.482,128.784z"/>
	<path d="M225.938,82.395c0-1.897-0.756-3.721-2.092-5.063l-40.63-40.631c-1.35-1.342-3.168-2.099-5.069-2.099H64.685
		c-3.956,0-7.162,3.211-7.162,7.165v93.421l168.415-0.019V82.395z M179.835,80.688l-0.063-34.408l36.047,34.408H179.835z"/>
</g>
</svg>
