<?xml version="1.0" encoding="utf-8"?>
<!-- Generator: Adobe Illustrator 15.1.0, SVG Export Plug-In . SVG Version: 6.00 Build 0)  -->
<!DOCTYPE svg PUBLIC "-//W3C//DTD SVG 1.1//EN" "http://www.w3.org/Graphics/SVG/1.1/DTD/svg11.dtd">
<svg version="1.1" id="Layer_2" xmlns="http://www.w3.org/2000/svg" xmlns:xlink="http://www.w3.org/1999/xlink" x="0px" y="0px"
	 width="283.46px" height="283.46px" viewBox="0 0 283.46 283.46" enable-background="new 0 0 283.46 283.46" xml:space="preserve">
<g>
	<g>
		<g>
			<polygon points="7.084,142.736 79.842,186.059 152.645,142.736 79.842,99.446 			"/>
			<polygon points="75.115,64.282 75.115,83.292 65.617,83.292 78.975,96.662 92.288,83.292 82.834,83.292 82.834,64.282 			"/>
			<polygon points="75.115,189.641 75.115,208.65 65.617,208.65 78.975,221.987 92.288,208.65 82.834,208.65 82.834,189.641 			"/>
			<polygon points="182.505,139.627 154.956,139.638 154.956,147.404 182.505,147.381 182.505,156.891 195.853,143.509 
				182.505,130.163 			"/>
			<polygon points="23.356,269.333 106.19,269.333 127.21,227.95 44.341,227.95 			"/>
			<path d="M253.136,119.219h-30.738c-12.805,0-23.252,10.424-23.252,23.25c0,12.861,10.436,23.286,23.252,23.286h30.738
				c12.827,0,23.239-10.425,23.239-23.286C276.375,129.643,265.963,119.231,253.136,119.219z"/>
			<path d="M57.065,60.653h47.749c12.851,0,23.298-10.436,23.298-23.251c0-12.851-10.447-23.274-23.298-23.274H57.065
				c-12.839,0-23.274,10.424-23.285,23.274C33.78,50.23,44.226,60.653,57.065,60.653z"/>
		</g>
	</g>
</g>
</svg>
