<?xml version="1.0" encoding="utf-8"?>
<!-- Generator: Adobe Illustrator 15.1.0, SVG Export Plug-In . SVG Version: 6.00 Build 0)  -->
<!DOCTYPE svg PUBLIC "-//W3C//DTD SVG 1.1//EN" "http://www.w3.org/Graphics/SVG/1.1/DTD/svg11.dtd">
<svg version="1.1" id="Layer_2" xmlns="http://www.w3.org/2000/svg" xmlns:xlink="http://www.w3.org/1999/xlink" x="0px" y="0px"
	 width="283.46px" height="283.46px" viewBox="0 0 283.46 283.46" enable-background="new 0 0 283.46 283.46" xml:space="preserve">
<g>
	<path fill="#5ABAA7" d="M270.253,38.857H33.749v1.5H11.994c-1.487,0-2.697,1.411-2.697,3.146V240.71
		c0,1.734,1.21,3.146,2.697,3.146h21.755v1.499h236.504c2.32,0,4.203-2.079,4.203-4.646V43.503
		C274.457,40.936,272.574,38.857,270.253,38.857z"/>
	<path d="M11.994,243.856c-1.487,0-2.697-1.411-2.697-3.146V43.503c0-1.735,1.21-3.146,2.697-3.146h21.755v-1.5v-1.5H11.994
		c-3.141,0-5.697,2.757-5.697,6.146V240.71c0,3.389,2.555,6.146,5.697,6.146h21.755v-1.501v-1.499H11.994z"/>
</g>
</svg>
