<?xml version="1.0" encoding="utf-8"?>
<!-- Generator: Adobe Illustrator 15.1.0, SVG Export Plug-In . SVG Version: 6.00 Build 0)  -->
<!DOCTYPE svg PUBLIC "-//W3C//DTD SVG 1.1//EN" "http://www.w3.org/Graphics/SVG/1.1/DTD/svg11.dtd">
<svg version="1.1" id="Layer_6" xmlns="http://www.w3.org/2000/svg" xmlns:xlink="http://www.w3.org/1999/xlink" x="0px" y="0px"
	 width="283.46px" height="283.46px" viewBox="0 0 283.46 283.46" enable-background="new 0 0 283.46 283.46" xml:space="preserve">
<g>
	<path fill="#FF8F80" d="M141.73,75.907c-36.295,0-65.823,29.528-65.823,65.823s29.528,65.823,65.823,65.823
		s65.823-29.528,65.823-65.823S178.025,75.907,141.73,75.907z"/>
	<path fill="#FF8F80" d="M141.73,72.907c-37.949,0-68.823,30.874-68.823,68.823s30.874,68.823,68.823,68.823
		s68.823-30.874,68.823-68.823S179.679,72.907,141.73,72.907z M141.73,207.553c-36.295,0-65.823-29.528-65.823-65.823
		s29.528-65.823,65.823-65.823s65.823,29.528,65.823,65.823S178.025,207.553,141.73,207.553z"/>
</g>
</svg>
