<?xml version="1.0" encoding="utf-8"?>
<!-- Generator: Adobe Illustrator 15.1.0, SVG Export Plug-In . SVG Version: 6.00 Build 0)  -->
<!DOCTYPE svg PUBLIC "-//W3C//DTD SVG 1.1//EN" "http://www.w3.org/Graphics/SVG/1.1/DTD/svg11.dtd">
<svg version="1.1" id="Layer_6" xmlns="http://www.w3.org/2000/svg" xmlns:xlink="http://www.w3.org/1999/xlink" x="0px" y="0px"
	 width="283.46px" height="283.46px" viewBox="0 0 283.46 283.46" enable-background="new 0 0 283.46 283.46" xml:space="preserve">
<g>
	<path fill="#A3D977" d="M274.833,30.026H8.609c-0.006,0.166-0.042,0.334-0.042,0.499l0.017,146.453H9.8
		c0.603,1.443,1.859,2.807,3.75,3.938l116.67,69.761c2.943,1.759,7.061,2.757,11.372,2.757c4.314,0,8.433-0.998,11.371-2.757
		l116.668-69.761c1.892-1.13,3.146-2.495,3.751-3.938h1.508l-0.016-146.452C274.876,30.36,274.841,30.192,274.833,30.026z"/>
	<path d="M141.593,254.917c-4.556,0-8.979-1.082-12.133-2.966L12.79,182.19c-1.742-1.043-3.073-2.318-3.901-3.729H8.584
		c-0.819,0-1.483-0.664-1.483-1.483L7.083,30.525c0-0.148,0.014-0.299,0.032-0.449l0.012-0.11c0.036-0.792,0.689-1.423,1.482-1.423
		h266.224c0.793,0,1.445,0.623,1.481,1.414l0.013,0.114c0.018,0.155,0.032,0.31,0.031,0.463l0.016,146.444
		c0,0.394-0.156,0.771-0.435,1.049c-0.277,0.278-0.655,0.435-1.049,0.435h-0.597c-0.828,1.413-2.159,2.688-3.9,3.729l-116.669,69.76
		C150.577,253.835,146.155,254.917,141.593,254.917z M10.067,175.519c0.488,0.089,0.906,0.419,1.102,0.888
		c0.495,1.183,1.582,2.302,3.144,3.237l116.669,69.761c2.708,1.618,6.576,2.546,10.611,2.546c4.039,0,7.906-0.928,10.609-2.546
		l116.669-69.761c1.56-0.934,2.646-2.053,3.143-3.238c0.231-0.552,0.771-0.911,1.369-0.911h0.024L273.391,31.51H10.05
		L10.067,175.519z"/>
</g>
</svg>
