<?xml version="1.0" encoding="utf-8"?>
<!-- Generator: Adobe Illustrator 15.1.0, SVG Export Plug-In . SVG Version: 6.00 Build 0)  -->
<!DOCTYPE svg PUBLIC "-//W3C//DTD SVG 1.1//EN" "http://www.w3.org/Graphics/SVG/1.1/DTD/svg11.dtd">
<svg version="1.1" id="Layer_6" xmlns="http://www.w3.org/2000/svg" xmlns:xlink="http://www.w3.org/1999/xlink" x="0px" y="0px"
	 width="283.46px" height="283.46px" viewBox="0 0 283.46 283.46" enable-background="new 0 0 283.46 283.46" xml:space="preserve">
<g>
	<path fill="#99D2F2" d="M141.729,105.184c-20.151,0-36.546,16.395-36.546,36.546s16.395,36.546,36.546,36.546
		s36.546-16.395,36.546-36.546S161.88,105.184,141.729,105.184z"/>
	<path fill="#99D2F2" d="M141.73,98.357c-23.916,0-43.373,19.457-43.373,43.373s19.457,43.373,43.373,43.373
		s43.373-19.457,43.373-43.373S165.646,98.357,141.73,98.357z M141.729,181.276c-21.806,0-39.546-17.74-39.546-39.546
		s17.74-39.546,39.546-39.546s39.546,17.74,39.546,39.546S163.535,181.276,141.729,181.276z"/>
	<path d="M141.73,95.357c-25.57,0-46.373,20.803-46.373,46.373s20.803,46.373,46.373,46.373s46.373-20.803,46.373-46.373
		S167.3,95.357,141.73,95.357z M141.73,185.103c-23.916,0-43.373-19.457-43.373-43.373s19.457-43.373,43.373-43.373
		s43.373,19.457,43.373,43.373S165.646,185.103,141.73,185.103z"/>
	<path fill="#99D2F2" d="M141.729,178.276c-20.151,0-36.546-16.395-36.546-36.546s16.395-36.546,36.546-36.546
		s36.546,16.395,36.546,36.546S161.88,178.276,141.729,178.276z"/>
</g>
</svg>
