<?xml version="1.0" encoding="utf-8"?>
<!-- Generator: Adobe Illustrator 15.1.0, SVG Export Plug-In . SVG Version: 6.00 Build 0)  -->
<!DOCTYPE svg PUBLIC "-//W3C//DTD SVG 1.1//EN" "http://www.w3.org/Graphics/SVG/1.1/DTD/svg11.dtd">
<svg version="1.1" id="Layer_6" xmlns="http://www.w3.org/2000/svg" xmlns:xlink="http://www.w3.org/1999/xlink" x="0px" y="0px"
	 width="283.46px" height="283.46px" viewBox="0 0 283.46 283.46" enable-background="new 0 0 283.46 283.46" xml:space="preserve">
<g>
	<path fill="#FF8F80" d="M276.75,141.457c0,23.521-16.636,42.589-37.158,42.589H44.617c-20.522,0-37.158-19.068-37.158-42.589l0,0
		c0-23.523,16.635-42.592,37.158-42.592h194.974C260.115,98.865,276.75,117.934,276.75,141.457L276.75,141.457z"/>
	<path d="M239.591,185.546H44.617c-21.316,0-38.658-19.778-38.658-44.089c0-24.313,17.342-44.092,38.658-44.092h194.974
		c21.316,0,38.658,19.78,38.658,44.092C278.25,165.768,260.908,185.546,239.591,185.546z M44.617,100.365
		c-19.662,0-35.658,18.434-35.658,41.092c0,22.657,15.996,41.089,35.658,41.089h194.974c19.662,0,35.658-18.433,35.658-41.089
		c0-22.658-15.996-41.092-35.658-41.092H44.617z"/>
</g>
</svg>
