<?xml version="1.0" encoding="utf-8"?>
<!-- Generator: Adobe Illustrator 15.1.0, SVG Export Plug-In . SVG Version: 6.00 Build 0)  -->
<!DOCTYPE svg PUBLIC "-//W3C//DTD SVG 1.1//EN" "http://www.w3.org/Graphics/SVG/1.1/DTD/svg11.dtd">
<svg version="1.1" id="Layer_6" xmlns="http://www.w3.org/2000/svg" xmlns:xlink="http://www.w3.org/1999/xlink" x="0px" y="0px"
	 width="283.46px" height="283.46px" viewBox="0 0 283.46 283.46" enable-background="new 0 0 283.46 283.46" xml:space="preserve">
<g>
	<g>
		<g>
			<path fill="#F9DC5F" d="M141.729,246.472c-0.315,0-0.629-0.102-0.892-0.307L9.138,142.869c-0.349-0.274-0.553-0.694-0.553-1.138
				s0.205-0.862,0.553-1.136L140.84,37.296c0.262-0.205,0.577-0.308,0.892-0.308s0.63,0.102,0.893,0.308l131.699,103.296
				c0.351,0.273,0.554,0.693,0.554,1.137s-0.203,0.862-0.554,1.138L142.621,246.166
				C142.359,246.371,142.045,246.472,141.729,246.472z"/>
			<path d="M141.729,247.971c-0.655,0-1.3-0.222-1.815-0.625L8.212,144.048c-0.717-0.563-1.127-1.407-1.127-2.317
				c0-0.908,0.41-1.752,1.125-2.314l131.705-103.3c1.036-0.812,2.603-0.809,3.634,0l131.7,103.296
				c0.714,0.557,1.127,1.402,1.127,2.316c0,0.91-0.411,1.754-1.126,2.316l-131.705,103.3
				C143.03,247.749,142.385,247.971,141.729,247.971z M141.699,38.476L10.063,141.774l131.666,103.184l131.669-103.272
				L141.699,38.476z"/>
		</g>
		<path d="M141.731,38.433l131.7,103.296L141.729,245.027l-131.7-103.296L141.731,38.433 M141.731,35.544
			c-0.629,0-1.259,0.205-1.783,0.617L8.245,139.459c-0.698,0.546-1.105,1.386-1.105,2.272c0,0.888,0.408,1.727,1.105,2.271
			L139.946,247.3c0.522,0.411,1.154,0.616,1.783,0.616c0.63,0,1.26-0.205,1.783-0.616l131.703-103.298
			c0.698-0.549,1.104-1.386,1.104-2.273c0-0.887-0.408-1.726-1.104-2.272L143.514,36.161
			C142.993,35.75,142.36,35.544,141.731,35.544L141.731,35.544z"/>
	</g>
</g>
</svg>
