<?xml version="1.0" encoding="utf-8"?>
<!-- Generator: Adobe Illustrator 15.1.0, SVG Export Plug-In . SVG Version: 6.00 Build 0)  -->
<!DOCTYPE svg PUBLIC "-//W3C//DTD SVG 1.1//EN" "http://www.w3.org/Graphics/SVG/1.1/DTD/svg11.dtd">
<svg version="1.1" id="Layer_6" xmlns="http://www.w3.org/2000/svg" xmlns:xlink="http://www.w3.org/1999/xlink" x="0px" y="0px"
	 width="283.46px" height="283.46px" viewBox="0 0 283.46 283.46" enable-background="new 0 0 283.46 283.46" xml:space="preserve">
<g>
	<path fill="#99D2F2" d="M10.019,185.734c-0.811,0-1.467-0.657-1.467-1.468V99.195c0-0.811,0.656-1.467,1.467-1.467h263.422
		c0.655,0,1.232,0.435,1.411,1.067c0.179,0.632-0.083,1.305-0.641,1.649l-66.963,41.284l66.963,41.29
		c0.558,0.345,0.819,1.018,0.641,1.649c-0.18,0.632-0.756,1.066-1.411,1.066H10.019L10.019,185.734z"/>
	<path d="M273.441,99.195h0.004 M273.441,99.195l-68.987,42.533l68.987,42.538h-68.987H79.007H10.019V99.195h68.987h125.447H273.441
		 M273.445,96.26h-0.004h-68.987H79.007H10.019c-1.621,0-2.935,1.313-2.935,2.935v85.071c0,1.622,1.314,2.935,2.935,2.935h68.987
		h125.447h68.986c1.313,0,2.467-0.871,2.825-2.134c0.356-1.263-0.167-2.609-1.285-3.298l-64.937-40.041l64.879-40
		c0.87-0.51,1.454-1.454,1.454-2.534C276.377,97.574,275.067,96.26,273.445,96.26L273.445,96.26z"/>
</g>
</svg>
