<?xml version="1.0" encoding="utf-8"?>
<!-- Generator: Adobe Illustrator 15.1.0, SVG Export Plug-In . SVG Version: 6.00 Build 0)  -->
<!DOCTYPE svg PUBLIC "-//W3C//DTD SVG 1.1//EN" "http://www.w3.org/Graphics/SVG/1.1/DTD/svg11.dtd">
<svg version="1.1" id="Layer_6" xmlns="http://www.w3.org/2000/svg" xmlns:xlink="http://www.w3.org/1999/xlink" x="0px" y="0px"
	 width="283.46px" height="283.46px" viewBox="0 0 283.46 283.46" enable-background="new 0 0 283.46 283.46" xml:space="preserve">
<g>
	<path fill="#99D2F2" d="M141.73,257.262c-0.524,0-1.008-0.279-1.271-0.733L8.75,28.398c-0.262-0.454-0.262-1.014,0-1.467
		s0.746-0.734,1.271-0.734h263.42c0.523,0,1.008,0.28,1.27,0.734c0.264,0.454,0.264,1.014,0,1.467L143,256.529
		C142.739,256.983,142.254,257.262,141.73,257.262z"/>
	<path d="M273.439,27.665h0.005 M273.439,27.665L141.73,255.794L10.02,27.665H273.439 M273.444,24.73h-0.005H10.02
		c-1.048,0-2.017,0.56-2.542,1.467c-0.524,0.908-0.524,2.027,0,2.935l131.71,228.13c0.524,0.908,1.493,1.467,2.542,1.467
		c1.049,0,2.018-0.559,2.541-1.467l131.657-228.04c0.284-0.451,0.448-0.986,0.448-1.558C276.376,26.043,275.066,24.73,273.444,24.73
		L273.444,24.73z"/>
</g>
</svg>
