<?xml version="1.0" encoding="utf-8"?>
<!-- Generator: Adobe Illustrator 15.1.0, SVG Export Plug-In . SVG Version: 6.00 Build 0)  -->
<!DOCTYPE svg PUBLIC "-//W3C//DTD SVG 1.1//EN" "http://www.w3.org/Graphics/SVG/1.1/DTD/svg11.dtd">
<svg version="1.1" id="Layer_6" xmlns="http://www.w3.org/2000/svg" xmlns:xlink="http://www.w3.org/1999/xlink" x="0px" y="0px"
	 width="283.46px" height="283.46px" viewBox="0 0 283.46 283.46" enable-background="new 0 0 283.46 283.46" xml:space="preserve">
<g>
	<path fill="#A3D977" d="M275.081,239.18c0,2.539-1.877,4.596-4.196,4.596H12.949c-2.314,0-4.192-2.057-4.192-4.596V44.135
		c0-2.54,1.878-4.596,4.192-4.596h257.936c2.319,0,4.196,2.056,4.196,4.596V239.18z"/>
	<path fill="#A3D977" d="M270.884,245.259H12.949c-3.129,0-5.676-2.728-5.676-6.079V44.135c0-3.353,2.546-6.08,5.676-6.08h257.936
		c3.132,0,5.68,2.727,5.68,6.08V239.18C276.564,242.532,274.016,245.259,270.884,245.259z M12.949,41.023
		c-1.494,0-2.709,1.396-2.709,3.112V239.18c0,1.716,1.215,3.112,2.709,3.112h257.936c1.496,0,2.713-1.396,2.713-3.112V44.135
		c0-1.716-1.217-3.112-2.713-3.112H12.949z"/>
</g>
</svg>
