<?xml version="1.0" encoding="utf-8"?>
<!-- Generator: Adobe Illustrator 15.1.0, SVG Export Plug-In . SVG Version: 6.00 Build 0)  -->
<!DOCTYPE svg PUBLIC "-//W3C//DTD SVG 1.1//EN" "http://www.w3.org/Graphics/SVG/1.1/DTD/svg11.dtd">
<svg version="1.1" id="Layer_6" xmlns="http://www.w3.org/2000/svg" xmlns:xlink="http://www.w3.org/1999/xlink" x="0px" y="0px"
	 width="283.46px" height="283.46px" viewBox="0 0 283.46 283.46" enable-background="new 0 0 283.46 283.46" xml:space="preserve">
<g>
	<path fill="#FF8F80" d="M274.893,239.252c0,2.539-1.88,4.595-4.197,4.595H12.761c-2.315,0-4.193-2.056-4.193-4.595V44.208
		c0-2.538,1.878-4.596,4.193-4.596h257.935c2.318,0,4.197,2.058,4.197,4.596V239.252L274.893,239.252z"/>
	<path d="M270.696,245.331H12.761c-3.13,0-5.676-2.727-5.676-6.078V44.208c0-3.352,2.546-6.079,5.676-6.079h257.935
		c3.132,0,5.681,2.727,5.681,6.079v195.045C276.376,242.604,273.828,245.331,270.696,245.331z M12.761,41.095
		c-1.494,0-2.709,1.396-2.709,3.112v195.045c0,1.716,1.216,3.111,2.709,3.111h257.935c1.496,0,2.714-1.396,2.714-3.111V44.208
		c0-1.716-1.218-3.112-2.714-3.112H12.761z"/>
</g>
</svg>
