<?xml version="1.0" encoding="utf-8"?>
<!-- Generator: Adobe Illustrator 15.1.0, SVG Export Plug-In . SVG Version: 6.00 Build 0)  -->
<!DOCTYPE svg PUBLIC "-//W3C//DTD SVG 1.1//EN" "http://www.w3.org/Graphics/SVG/1.1/DTD/svg11.dtd">
<svg version="1.1" id="Layer_6" xmlns="http://www.w3.org/2000/svg" xmlns:xlink="http://www.w3.org/1999/xlink" x="0px" y="0px"
	 width="283.46px" height="283.46px" viewBox="0 0 283.46 283.46" enable-background="new 0 0 283.46 283.46" xml:space="preserve">
<g>
	<path fill="#99D2F2" d="M141.726,60.303c-61.437,0-111.419,36.528-111.419,81.427c0,44.903,49.982,81.434,111.419,81.434
		c61.439,0,111.424-36.53,111.424-81.434C253.15,96.832,203.166,60.303,141.726,60.303z"/>
	<path fill="#99D2F2" d="M141.73,45.423c-72.608,0-131.679,43.203-131.679,96.307s59.071,96.307,131.679,96.307
		c72.607,0,131.679-43.203,131.679-96.307S214.337,45.423,141.73,45.423z M141.726,226.13c-63.073,0-114.386-37.862-114.386-84.4
		c0-46.535,51.313-84.394,114.386-84.394c63.075,0,114.392,37.859,114.392,84.394C256.118,188.268,204.801,226.13,141.726,226.13z"
		/>
	<path d="M141.73,42.457C67.486,42.457,7.084,86.99,7.084,141.73c0,54.739,60.402,99.273,134.646,99.273
		c74.244,0,134.646-44.534,134.646-99.273C276.375,86.99,215.974,42.457,141.73,42.457z M141.73,238.037
		c-72.608,0-131.679-43.203-131.679-96.307S69.122,45.423,141.73,45.423c72.607,0,131.679,43.203,131.679,96.307
		S214.337,238.037,141.73,238.037z"/>
	<path fill="#99D2F2" d="M141.726,223.164c-61.437,0-111.419-36.53-111.419-81.434c0-44.898,49.982-81.427,111.419-81.427
		c61.439,0,111.424,36.528,111.424,81.427C253.15,186.633,203.166,223.164,141.726,223.164z"/>
</g>
</svg>
