<?xml version="1.0" encoding="utf-8"?>
<!-- Generator: Adobe Illustrator 15.1.0, SVG Export Plug-In . SVG Version: 6.00 Build 0)  -->
<!DOCTYPE svg PUBLIC "-//W3C//DTD SVG 1.1//EN" "http://www.w3.org/Graphics/SVG/1.1/DTD/svg11.dtd">
<svg version="1.1" id="Layer_6" xmlns="http://www.w3.org/2000/svg" xmlns:xlink="http://www.w3.org/1999/xlink" x="0px" y="0px"
	 width="283.46px" height="283.46px" viewBox="0 0 283.46 283.46" enable-background="new 0 0 283.46 283.46" xml:space="preserve">
<g>
	<path fill="#A3D977" d="M260.628,49.08H22.828c-1.313,0-2.382,1.236-2.382,2.754v179.818c0,1.517,1.069,2.751,2.382,2.751h237.801
		c1.315,0,2.385-1.234,2.385-2.751V51.834C263.013,50.316,261.944,49.08,260.628,49.08z"/>
	<path fill="#A3D977" d="M270.696,41.097H12.761c-1.494,0-2.709,1.396-2.709,3.111V239.25c0,1.717,1.216,3.113,2.709,3.113h257.935
		c1.496,0,2.714-1.396,2.714-3.113V44.208C273.41,42.493,272.192,41.097,270.696,41.097z M265.981,231.653
		c0,3.152-2.401,5.718-5.353,5.718H22.828c-2.95,0-5.349-2.565-5.349-5.718V51.834c0-3.155,2.399-5.721,5.349-5.721h237.801
		c2.951,0,5.353,2.566,5.353,5.721V231.653z"/>
	<path d="M270.696,38.13H12.761c-3.13,0-5.676,2.727-5.676,6.078V239.25c0,3.353,2.546,6.08,5.676,6.08h257.935
		c3.132,0,5.681-2.728,5.681-6.08V44.208C276.376,40.857,273.828,38.13,270.696,38.13z M273.41,239.25
		c0,1.717-1.218,3.113-2.714,3.113H12.761c-1.494,0-2.709-1.396-2.709-3.113V44.208c0-1.716,1.216-3.111,2.709-3.111h257.935
		c1.496,0,2.714,1.396,2.714,3.111V239.25z"/>
	<path fill="#A3D977" d="M263.013,231.653c0,1.517-1.069,2.751-2.385,2.751H22.828c-1.313,0-2.382-1.234-2.382-2.751V51.834
		c0-1.519,1.069-2.754,2.382-2.754h237.801c1.315,0,2.385,1.236,2.385,2.754V231.653z"/>
</g>
</svg>
