<?xml version="1.0" encoding="utf-8"?>
<!-- Generator: Adobe Illustrator 15.1.0, SVG Export Plug-In . SVG Version: 6.00 Build 0)  -->
<!DOCTYPE svg PUBLIC "-//W3C//DTD SVG 1.1//EN" "http://www.w3.org/Graphics/SVG/1.1/DTD/svg11.dtd">
<svg version="1.1" id="Layer_6" xmlns="http://www.w3.org/2000/svg" xmlns:xlink="http://www.w3.org/1999/xlink" x="0px" y="0px"
	 width="283.46px" height="283.46px" viewBox="0 0 283.46 283.46" enable-background="new 0 0 283.46 283.46" xml:space="preserve">
<g>
	<path fill="#99D2F2" d="M173.113,39.951c-0.523,0-1.043,0.031-1.566,0.04c-0.313-0.242-0.662-0.379-1.027-0.379H11.158
		c-1.429,0-2.59,2.059-2.59,4.596v195.043c0,2.539,1.161,4.596,2.59,4.596h159.361c0.365,0,0.714-0.137,1.027-0.379
		c0.523,0.009,1.043,0.04,1.566,0.04c56.212,0,101.779-45.568,101.779-101.779S229.325,39.951,173.113,39.951z"/>
	<path d="M170.519,245.331H11.158c-2.322,0-4.074-2.613-4.074-6.079V44.208c0-3.466,1.751-6.08,4.074-6.08h159.361
		c0.495,0,0.984,0.125,1.438,0.368c0.065-0.002,0.13-0.004,0.194-0.007c0.321-0.011,0.641-0.021,0.962-0.021
		c56.939,0,103.263,46.322,103.263,103.261c0,56.939-46.323,103.263-103.263,103.263c-0.321,0-0.641-0.011-0.962-0.022
		c-0.064-0.002-0.128-0.004-0.193-0.006C171.504,245.205,171.015,245.331,170.519,245.331z M170.516,41.096H11.158
		c-0.211,0-1.107,1.037-1.107,3.112v195.043c0,2.075,0.896,3.112,1.107,3.112h159.361c0.01-0.002,0.054-0.018,0.12-0.07l0.412-0.317
		l0.521,0.009c0.227,0.004,0.455,0.012,0.682,0.02c0.286,0.01,0.571,0.021,0.859,0.021c55.304,0,100.296-44.992,100.296-100.296
		c0-55.303-44.992-100.294-100.296-100.294c-0.288,0-0.573,0.01-0.859,0.02c-0.227,0.008-0.455,0.016-0.682,0.02l-0.519,0.008
		l-0.412-0.316C170.559,41.103,170.517,41.096,170.516,41.096z"/>
</g>
</svg>
