<?xml version="1.0" encoding="utf-8"?>
<!-- Generator: Adobe Illustrator 15.1.0, SVG Export Plug-In . SVG Version: 6.00 Build 0)  -->
<!DOCTYPE svg PUBLIC "-//W3C//DTD SVG 1.1//EN" "http://www.w3.org/Graphics/SVG/1.1/DTD/svg11.dtd">
<svg version="1.1" id="Layer_6" xmlns="http://www.w3.org/2000/svg" xmlns:xlink="http://www.w3.org/1999/xlink" x="0px" y="0px"
	 width="283.46px" height="283.46px" viewBox="0 0 283.46 283.46" enable-background="new 0 0 283.46 283.46" xml:space="preserve">
<g>
	<path fill="#A3D977" d="M273.125,43.351H50.111c-2.826,0-5.125,2.629-5.125,5.862v29.892h35.989c3.326,0,6.032,2.706,6.032,6.031
		v35.737c0,1.61-0.626,3.125-1.766,4.264c-1.139,1.14-2.654,1.767-4.265,1.767h-35.99v38.098h35.989
		c3.326,0,6.032,2.706,6.032,6.031v35.735c0,1.61-0.626,3.125-1.766,4.265s-2.654,1.768-4.265,1.768h-35.99v21.555
		c0,3.232,2.299,5.861,5.125,5.861h223.012c2.826,0,5.128-2.629,5.131-5.861V49.213C278.253,45.98,275.953,43.351,273.125,43.351z"
		/>
	<path fill="#A3D977" d="M80.976,123.904c1.672,0,3.032-1.359,3.032-3.031l-0.001-35.737c0-1.671-1.36-3.031-3.032-3.031H11.993
		c-1.672,0-3.032,1.36-3.032,3.031v35.737c0,1.671,1.36,3.031,3.032,3.031H80.976z"/>
	<path fill="#A3D977" d="M8.961,120.873V85.136c0-1.671,1.36-3.031,3.032-3.031h68.982c1.672,0,3.032,1.36,3.032,3.031l0.001,35.737
		c0,1.671-1.36,3.031-3.032,3.031H11.993C10.321,123.904,8.961,122.544,8.961,120.873z"/>
	<path fill="#A3D977" d="M80.976,209.8c1.672,0,3.032-1.36,3.032-3.032l-0.001-35.735c0-1.672-1.36-3.031-3.032-3.031H11.993
		c-1.672,0-3.032,1.359-3.032,3.031v35.735c0,1.672,1.36,3.032,3.032,3.032H80.976z"/>
	<path fill="#A3D977" d="M8.961,206.768v-35.735c0-1.672,1.36-3.031,3.032-3.031h68.982c1.672,0,3.032,1.359,3.032,3.031
		l0.001,35.735c0,1.672-1.36,3.032-3.032,3.032H11.993C10.321,209.8,8.961,208.44,8.961,206.768z"/>
</g>
</svg>
