<?xml version="1.0" encoding="utf-8"?>
<!-- Generator: Adobe Illustrator 15.1.0, SVG Export Plug-In . SVG Version: 6.00 Build 0)  -->
<!DOCTYPE svg PUBLIC "-//W3C//DTD SVG 1.1//EN" "http://www.w3.org/Graphics/SVG/1.1/DTD/svg11.dtd">
<svg version="1.1" id="Layer_6" xmlns="http://www.w3.org/2000/svg" xmlns:xlink="http://www.w3.org/1999/xlink" x="0px" y="0px"
	 width="283.46px" height="283.46px" viewBox="0 0 283.46 283.46" enable-background="new 0 0 283.46 283.46" xml:space="preserve">
<g>
	<path fill="#99D2F2" d="M273.442,141.695l-25.564-20.051l-106.179-83.21L10.02,141.766l26.38,20.69l105.329,82.545L273.442,141.695
		z M34.264,143.826c-0.649-0.515-1.018-1.276-1.018-2.095c0-0.821,0.371-1.583,1.016-2.092l105.827-83.003
		c0.941-0.736,2.358-0.73,3.289,0.003l105.818,82.997c0.646,0.506,1.018,1.269,1.018,2.093c0,0.821-0.37,1.584-1.015,2.092
		l-105.828,83.006c-0.478,0.371-1.044,0.565-1.643,0.565c-0.592,0-1.174-0.2-1.64-0.564L34.264,143.826z"/>
	<path d="M275.304,139.412L143.55,36.073c-1.032-0.809-2.6-0.812-3.636,0L8.155,139.416c-0.715,0.563-1.125,1.407-1.125,2.315
		c0,0.91,0.411,1.755,1.127,2.318L139.913,247.39c0.516,0.403,1.161,0.625,1.816,0.625c0.656,0,1.302-0.223,1.817-0.626
		l131.759-103.343c0.716-0.563,1.127-1.407,1.127-2.317C276.432,140.814,276.019,139.968,275.304,139.412z M275.27,144.003
		L143.513,247.344c-0.523,0.411-1.154,0.616-1.784,0.616s-1.261-0.205-1.784-0.616L8.19,144.003
		c-0.698-0.545-1.106-1.385-1.106-2.272c0-0.887,0.408-1.726,1.106-2.273L139.947,36.117c0.524-0.412,1.154-0.617,1.784-0.617
		c0.629,0,1.263,0.206,1.784,0.617L275.27,139.456c0.696,0.547,1.104,1.386,1.104,2.273
		C276.375,142.617,275.969,143.455,275.27,144.003z"/>
	<polygon points="247.877,121.644 141.731,38.39 9.975,141.731 10.02,141.766 141.699,38.433 	"/>
	<polygon points="273.486,141.729 273.442,141.695 141.729,245.001 36.399,162.457 141.729,245.07 	"/>
	<path d="M275.27,139.456L143.515,36.117c-0.521-0.411-1.155-0.617-1.784-0.617c-0.63,0-1.26,0.205-1.784,0.617L8.19,139.458
		c-0.698,0.547-1.106,1.386-1.106,2.273c0,0.888,0.408,1.728,1.106,2.272l131.755,103.341c0.523,0.411,1.154,0.616,1.784,0.616
		s1.261-0.205,1.784-0.616L275.27,144.003c0.699-0.549,1.104-1.387,1.104-2.274C276.375,140.842,275.966,140.003,275.27,139.456z
		 M10.02,141.766l-0.044-0.035L141.731,38.39l106.146,83.253l25.564,20.051l0.044,0.034L141.729,245.07l-105.33-82.613
		L10.02,141.766z"/>
	<polygon fill="#99D2F2" points="141.731,59.161 36.456,141.731 141.729,224.301 247.005,141.729 	"/>
	<path fill="#99D2F2" d="M36.456,141.731l105.276-82.571l105.274,82.569l-105.276,82.572L36.456,141.731z"/>
</g>
</svg>
