<?xml version="1.0" encoding="utf-8"?>
<!-- Generator: Adobe Illustrator 15.1.0, SVG Export Plug-In . SVG Version: 6.00 Build 0)  -->
<!DOCTYPE svg PUBLIC "-//W3C//DTD SVG 1.1//EN" "http://www.w3.org/Graphics/SVG/1.1/DTD/svg11.dtd">
<svg version="1.1" id="Layer_6" xmlns="http://www.w3.org/2000/svg" xmlns:xlink="http://www.w3.org/1999/xlink" x="0px" y="0px"
	 width="283.46px" height="283.46px" viewBox="0 0 283.46 283.46" enable-background="new 0 0 283.46 283.46" xml:space="preserve">
<g>
	<path fill="#FF8F80" d="M141.731,109.57c-17.734,0-32.162,14.426-32.162,32.158c0,17.734,14.428,32.162,32.162,32.162
		c17.733,0,32.161-14.428,32.161-32.162C173.892,123.996,159.464,109.57,141.731,109.57z M141.731,161.527
		c-10.568,0-19.135-8.566-19.135-19.136c0-10.565,8.566-19.133,19.135-19.133c10.565,0,19.133,8.568,19.133,19.133
		C160.864,152.96,152.296,161.527,141.731,161.527z"/>
	<path d="M141.731,106.57c-19.389,0-35.162,15.772-35.162,35.158c0,19.389,15.773,35.162,35.162,35.162
		c19.388,0,35.161-15.773,35.161-35.162C176.892,122.342,161.119,106.57,141.731,106.57z M141.731,173.89
		c-17.734,0-32.162-14.428-32.162-32.162c0-17.732,14.428-32.158,32.162-32.158c17.733,0,32.161,14.426,32.161,32.158
		C173.892,159.462,159.464,173.89,141.731,173.89z"/>
</g>
</svg>
