<?xml version="1.0" encoding="utf-8"?>
<!-- Generator: Adobe Illustrator 15.1.0, SVG Export Plug-In . SVG Version: 6.00 Build 0)  -->
<!DOCTYPE svg PUBLIC "-//W3C//DTD SVG 1.1//EN" "http://www.w3.org/Graphics/SVG/1.1/DTD/svg11.dtd">
<svg version="1.1" id="Layer_6" xmlns="http://www.w3.org/2000/svg" xmlns:xlink="http://www.w3.org/1999/xlink" x="0px" y="0px"
	 width="283.46px" height="283.46px" viewBox="0 0 283.46 283.46" enable-background="new 0 0 283.46 283.46" xml:space="preserve">
<g>
	<path d="M170.853,138.82c-7.59-0.608-14.02-3.78-19.062-9.424c-5.008-5.606-7.547-12.554-7.547-20.652V42.217
		c0-10.899-3.753-19.793-11.475-27.193c-5.453-5.347-12.22-7.94-20.7-7.94c-1.548,0-2.756,0.271-3.229,0.729
		c-0.49,0.469-0.671,0.927-0.671,1.695c0,0.729,0.192,1.246,0.679,1.787c0.356,0.148,1.572,0.572,4.46,0.842
		c7.371,0.605,13.649,3.747,18.638,9.338c4.946,5.548,7.453,12.526,7.453,20.743v66.526c0,6.735,1.225,12.493,3.641,17.116
		c1.741,3.48,5.447,7.339,11.027,11.496l4.071,3.034l1.671,1.246l-1.671,1.245l-4.071,3.037c-5.597,4.172-9.485,8.34-11.56,12.385
		c-2.063,4.016-3.108,9.537-3.108,16.414v66.344c0,8.063-2.458,14.99-7.309,20.59c-4.909,5.66-11.217,8.914-18.749,9.67
		c-3.087,0.289-4.356,0.75-4.731,0.918c-0.271,0.344-0.44,0.77-0.44,1.531c0,1.143,0.343,1.566,0.665,1.873
		c0.478,0.461,1.688,0.734,3.235,0.734c8.788,0,16.173-3.24,22.574-9.908c6.461-6.73,9.601-14.98,9.601-25.225v-66.527
		c0-8.082,2.5-15.018,7.429-20.619c4.982-5.662,11.453-8.844,19.234-9.461c3.058-0.35,3.878-1.098,3.911-1.129
		c0.389-0.377,0.472-1.227,0.472-1.869c0-1.229-0.352-1.568-0.484-1.695C174.781,139.919,173.962,139.172,170.853,138.82z"/>
</g>
</svg>
