<?xml version="1.0" encoding="utf-8"?>
<!-- Generator: Adobe Illustrator 15.1.0, SVG Export Plug-In . SVG Version: 6.00 Build 0)  -->
<!DOCTYPE svg PUBLIC "-//W3C//DTD SVG 1.1//EN" "http://www.w3.org/Graphics/SVG/1.1/DTD/svg11.dtd">
<svg version="1.1" id="Layer_2" xmlns="http://www.w3.org/2000/svg" xmlns:xlink="http://www.w3.org/1999/xlink" x="0px" y="0px"
	 width="283.46px" height="283.46px" viewBox="0 0 283.46 283.46" enable-background="new 0 0 283.46 283.46" xml:space="preserve">
<g>
	<path fill="#A3D977" d="M221.064,218.685c-7.124-20.352-11.047-47.684-11.047-76.962c0-29.279,3.923-56.612,11.047-76.964
		c5.17-14.769,11.551-24.622,18.094-28.237L38.762,36.495c-15.693,0-33.178,43.217-33.178,105.231
		c0,62.012,17.485,105.227,33.178,105.227l200.508,0.026C232.688,243.416,226.263,233.539,221.064,218.685z"/>
	<path fill="#A3D977" d="M244.695,37.981c-13.229,0-31.678,39.47-31.678,103.742c0,64.271,18.449,103.737,31.678,103.737
		c13.231,0,31.682-39.467,31.682-103.737C276.376,77.451,257.925,37.981,244.695,37.981z"/>
</g>
</svg>
