<?xml version="1.0" encoding="utf-8"?>
<!-- Generator: Adobe Illustrator 15.1.0, SVG Export Plug-In . SVG Version: 6.00 Build 0)  -->
<!DOCTYPE svg PUBLIC "-//W3C//DTD SVG 1.1//EN" "http://www.w3.org/Graphics/SVG/1.1/DTD/svg11.dtd">
<svg version="1.1" id="Layer_3" xmlns="http://www.w3.org/2000/svg" xmlns:xlink="http://www.w3.org/1999/xlink" x="0px" y="0px"
	 width="283.465px" height="283.465px" viewBox="0 0 283.465 283.465" enable-background="new 0 0 283.465 283.465"
	 xml:space="preserve">
<g>
	<g>
		<path fill="#231F20" d="M255.389,181.609c-3.008-3.004-8.578-6.605-10.303-6.45c-0.031,0.658,0.28,2.193,0.471,3.067
			c3.443,16.659,0.593,23.333-2.159,29.749c-0.033,0.072-0.062,0.146-0.095,0.22c-1.981,3.634-7.768,10.099-13.466,10.522
			c-0.501,0.036-1.016,0.064-1.564,0.064c-1.881,0-4.043-0.251-6.422-0.881c-13.561-3.726-28.153-16.532-39.05-34.318
			c-5.574-9.112-10.082-17.883-14.061-25.646c-3.508-6.795-6.545-12.683-9.521-17.317c-14.812-23.079-30.53-40.021-45.467-49.007
			c-9.927-5.982-19.728-11.148-30.344-8.611C74.671,85.1,70.914,91.8,69.317,96.623c0.352,1.034,4.401,0.831,8.957,2.191
			c1.301,0.525,2.584,0.92,3.528,1.657c0.556,0.388,1.531,2.078,1.025,2.481c-0.418,0.333-1.561,0.306-2.805,0.13
			c-3.643-1.181-8.37-3.621-13.992-3.39c-7.422,0.313-13.622,4.448-17.63,7.579c-2.286,1.754-13.81,11.43-17.004,28.59
			c-4.853,26.211,16.222,50.978,28.81,65.761c9.144,10.74,17.035,17.128,27.024,25.208c35.041,28.369,64.322,39.581,72.463,42.339
			c13.649,4.604,25.553,7.608,39.174,7.168c15.565-0.438,30.091-5.572,42.086-14.746c11.742-9.051,19.98-21.418,23.801-35.761
			C269.635,207.541,266.504,192.632,255.389,181.609z"/>
	</g>
	<g>
		<path d="M38.284,94.87c-0.032,0.124-4.072,11.962-2.225,21.419c4.353-6.544,9.02-10.428,10.428-11.524
			c4.353-3.35,11.085-7.859,19.416-8.205h0.188c1.471-5.072,4.165-9.269,7.766-12.212c-8.455-4.385-19.29-2.538-19.415-2.538
			c-0.5,0.095-1.034-0.063-1.408-0.469c-8.268-8.737-15.738-21.25-17.969-30.608c-3.173-13.314,2.786-20.141,5.167-22.333
			c7.484-6.858,16.262-3.694,20.833-0.5c1.91,1.347,3.632,11.396,4.792,11.333c1.596-0.157,4.806,2.056,7.938-4.832
			c1.972-4.291,4.479-12.651-0.94-20.229c-2.974-3.477-11.492-7.266-21.199-7.078c-7.391,0.095-18.038,2.474-26.68,13.216
			C10.101,39.661,14.955,66.936,38.002,93.303C38.347,93.74,38.471,94.335,38.284,94.87z"/>
	</g>
</g>
</svg>
