<?xml version="1.0" encoding="utf-8"?>
<!-- Generator: Adobe Illustrator 15.1.0, SVG Export Plug-In . SVG Version: 6.00 Build 0)  -->
<!DOCTYPE svg PUBLIC "-//W3C//DTD SVG 1.1//EN" "http://www.w3.org/Graphics/SVG/1.1/DTD/svg11.dtd">
<svg version="1.1" id="Layer_2" xmlns="http://www.w3.org/2000/svg" xmlns:xlink="http://www.w3.org/1999/xlink" x="0px" y="0px"
	 width="283.465px" height="283.465px" viewBox="0 0 283.465 283.465" enable-background="new 0 0 283.465 283.465"
	 xml:space="preserve">
<g>
	<path fill="none" d="M185.267,229.77c0.037-0.092,0.076-0.184,0.113-0.273c0-0.004,0.002-0.006,0.004-0.01"/>
	<path fill="none" d="M145.503,273.617c0.023-0.004,0.049-0.008,0.072-0.014c0.002,0,0.004,0,0.004,0"/>
	<path fill="none" d="M172.333,253.65c0.035-0.049,0.07-0.1,0.105-0.146c0-0.002,0.002-0.004,0.004-0.006"/>
	<path d="M199.163,122.635c-1.385-12.754-3.541-25.797-6.406-38.768c-1.236-7.355-2.707-14.734-4.369-21.931
		c-0.338-1.461-1.564-2.562-3.055-2.739c-0.139-0.018-0.281-0.025-0.424-0.025c-1.002,0-1.959,0.424-2.635,1.162
		c-0.686,0.682-1.068,1.623-1.053,2.592c0.021,1.303-0.029,3.049-0.27,5.201c0.439,0.414,0.863,0.853,1.273,1.312
		c0.373-2.763,0.449-4.966,0.422-6.537c-0.01-0.601,0.232-1.171,0.656-1.579c0.354-0.398,0.844-0.652,1.373-0.71
		c0.076-0.008,0.152-0.013,0.23-0.013c0.084,0,0.17,0.005,0.254,0.015c0.896,0.106,1.629,0.765,1.832,1.644
		c1.824,7.893,3.811,17.709,5.451,28.779c6.34,31.5,12.102,81.344-1.883,124.332c-12.664,38.924-28.754,42.582-39.016,39.877
		c-3.986,2.371-7.258,3.254-9.375,3.572c-0.107,0.016-0.215,0.021-0.32,0.021c-0.545,0-1.053-0.213-1.439-0.564
		c-0.018-0.006-0.033-0.006-0.051-0.01c-0.771-0.176-1.613-0.412-2.516-0.719c-8.789,3.514-29.436,5.486-44.938-42.18
		c-13.988-42.992-8.225-92.844-1.885-124.343c1.645-11.056,3.607-20.739,5.33-28.243c0.125-0.545,0.457-1.01,0.908-1.309
		c0.053-0.047,0.109-0.09,0.166-0.131c0.307-0.221,0.674-0.363,1.072-0.396c0.059-0.005,0.119-0.007,0.178-0.007
		c0.041,0,0.08,0.001,0.121,0.003c1.127,0.063,2.021,0.995,2.021,2.139c0,0.028,0,0.057-0.002,0.084
		c-0.014,1.525,0.072,3.633,0.426,6.256c0.408-0.457,0.834-0.896,1.273-1.31c-0.225-2.019-0.283-3.67-0.271-4.917
		c0.002-0.038,0.002-0.077,0.002-0.115c0-1.895-1.482-3.459-3.373-3.563c-0.068-0.004-0.133-0.006-0.197-0.006
		c-0.098,0-0.197,0.005-0.297,0.014c-0.645,0.053-1.264,0.281-1.789,0.66c-0.068,0.048-0.135,0.1-0.199,0.154
		c-0.725,0.506-1.23,1.258-1.43,2.123c-1.602,6.971-3.027,14.142-4.236,21.315c-2.83,12.795-4.971,25.685-6.363,38.312
		c-1.777,16.129-2.293,31.617-1.529,46.031c0.924,17.473,3.742,33.555,8.377,47.799c4.209,12.943,9.133,24.047,14.635,32.998
		c4.578,7.449,9.602,13.49,14.928,17.955c8.113,6.797,15.039,8.436,18.82,8.762c0.461,0.465,1.098,0.744,1.775,0.744
		c0.119,0,0.24-0.008,0.361-0.027c0.121,0.02,0.242,0.027,0.363,0.027c0.678,0,1.314-0.279,1.775-0.744
		c3.779-0.326,10.707-1.965,18.816-8.762c5.328-4.463,10.352-10.504,14.93-17.953c5.504-8.953,10.43-20.057,14.641-33
		c4.605-14.16,7.42-30.141,8.357-47.494C201.396,154.09,200.905,138.682,199.163,122.635z M182.54,235.951
		c0.021-0.047,0.045-0.096,0.066-0.143C182.585,235.855,182.562,235.904,182.54,235.951z M181.72,237.672
		c-0.021,0.047-0.045,0.094-0.068,0.141C181.675,237.766,181.696,237.719,181.72,237.672z M180.827,239.477
		c-0.045,0.086-0.088,0.174-0.131,0.26C180.739,239.65,180.782,239.563,180.827,239.477z M172.438,253.502
		c0-0.002,0.002-0.004,0.004-0.006C172.44,253.498,172.438,253.5,172.438,253.502c-0.035,0.049-0.07,0.1-0.105,0.146
		C172.368,253.602,172.403,253.551,172.438,253.502z M173.298,252.287c0-0.004,0.002-0.006,0.004-0.008
		C173.3,252.281,173.298,252.285,173.298,252.287z M177.933,244.887c0.016-0.023,0.029-0.051,0.043-0.076
		C177.962,244.836,177.946,244.863,177.933,244.887z M177.005,246.484c0.029-0.051,0.059-0.102,0.09-0.152
		C177.063,246.383,177.034,246.434,177.005,246.484z M176.04,248.082c0.047-0.076,0.094-0.152,0.141-0.23
		C176.134,247.93,176.087,248.006,176.04,248.082z M175.087,249.598c0.049-0.076,0.098-0.15,0.145-0.229
		C175.183,249.447,175.136,249.521,175.087,249.598z M174.271,250.848c-0.039,0.059-0.074,0.113-0.113,0.17
		C174.196,250.961,174.231,250.906,174.271,250.848z M179.747,241.57c0.049-0.092,0.098-0.184,0.146-0.275
		C179.845,241.387,179.796,241.479,179.747,241.57z M178.815,243.301c0.041-0.074,0.082-0.146,0.123-0.223
		C178.897,243.154,178.856,243.227,178.815,243.301z M171.521,254.756c-0.049,0.064-0.098,0.131-0.146,0.195
		C171.423,254.887,171.472,254.822,171.521,254.756z M155.091,270.023c-0.041,0.023-0.082,0.049-0.123,0.07
		C155.009,270.072,155.05,270.047,155.091,270.023z M143.495,273.873c-0.021,0.002-0.039,0.004-0.059,0.004
		C143.456,273.877,143.476,273.875,143.495,273.873z M147.089,273.283c-0.012,0.004-0.023,0.006-0.035,0.01
		C147.065,273.289,147.077,273.287,147.089,273.283z M146.583,273.402c-0.018,0.004-0.037,0.008-0.055,0.012
		C146.546,273.41,146.565,273.406,146.583,273.402z M146.001,273.523c0.025-0.004,0.051-0.01,0.076-0.016
		C146.052,273.514,146.026,273.52,146.001,273.523z M144.206,273.805c0.018,0,0.035-0.004,0.051-0.006
		C144.241,273.801,144.224,273.805,144.206,273.805z M144.632,273.752c0.004,0,0.006,0,0.01,0
		C144.638,273.752,144.636,273.752,144.632,273.752z M145.042,273.693c0.02-0.004,0.037-0.006,0.059-0.01
		C145.079,273.688,145.06,273.689,145.042,273.693z M145.575,273.604c0.002,0,0.004,0,0.004,0S145.577,273.604,145.575,273.604
		c-0.023,0.006-0.049,0.01-0.072,0.014C145.526,273.613,145.552,273.609,145.575,273.604z M143.868,273.842
		c-0.021,0.002-0.043,0.004-0.064,0.006C143.825,273.846,143.847,273.844,143.868,273.842z M148.261,272.967
		c-0.033,0.01-0.064,0.02-0.098,0.029C148.196,272.986,148.228,272.977,148.261,272.967z M147.665,273.135
		c-0.027,0.008-0.053,0.016-0.08,0.021C147.612,273.148,147.638,273.143,147.665,273.135z M148.866,272.783
		c-0.029,0.008-0.061,0.018-0.092,0.027C148.806,272.801,148.837,272.791,148.866,272.783z M149.417,272.6
		c0.016-0.004,0.031-0.01,0.047-0.016C149.448,272.59,149.433,272.596,149.417,272.6z M150.024,272.385
		c0.021-0.008,0.039-0.014,0.061-0.02C150.063,272.371,150.046,272.377,150.024,272.385z M150.765,272.104
		c-0.033,0.016-0.066,0.027-0.102,0.039C150.696,272.131,150.729,272.119,150.765,272.104z M151.456,271.822
		c-0.037,0.016-0.074,0.029-0.111,0.047C151.382,271.852,151.419,271.836,151.456,271.822z M152.151,271.518
		c-0.031,0.016-0.064,0.029-0.098,0.043C152.087,271.547,152.12,271.533,152.151,271.518z M152.829,271.205
		c-0.014,0.006-0.025,0.012-0.039,0.018C152.804,271.217,152.815,271.211,152.829,271.205z M153.552,270.85
		c-0.027,0.016-0.057,0.027-0.084,0.043C153.495,270.877,153.522,270.865,153.552,270.85z M154.196,270.516
		c0.041-0.021,0.082-0.043,0.123-0.064C154.278,270.473,154.237,270.494,154.196,270.516z M155.763,269.635
		c0.031-0.02,0.063-0.039,0.096-0.059C155.825,269.596,155.794,269.617,155.763,269.635z M156.562,269.146
		c0.01-0.006,0.018-0.01,0.025-0.016C156.579,269.137,156.571,269.141,156.562,269.146z M157.306,268.668
		c0.037-0.023,0.072-0.047,0.107-0.07C157.378,268.621,157.343,268.645,157.306,268.668z M169.524,257.314
		c0.033-0.039,0.066-0.078,0.1-0.117C169.591,257.236,169.558,257.275,169.524,257.314z M168.665,258.354
		c0.014-0.016,0.027-0.033,0.041-0.051C168.692,258.32,168.679,258.338,168.665,258.354z M167.839,259.309
		c-0.041,0.047-0.082,0.096-0.123,0.143C167.757,259.404,167.798,259.355,167.839,259.309z M166.78,260.486
		c0.049-0.055,0.098-0.107,0.146-0.16C166.878,260.379,166.829,260.432,166.78,260.486z M165.868,261.453
		c0.045-0.047,0.09-0.092,0.135-0.139C165.958,261.361,165.913,261.408,165.868,261.453z M164.997,262.34
		c0.025-0.025,0.053-0.051,0.078-0.076C165.05,262.289,165.022,262.314,164.997,262.34z M164.144,263.176
		c0.023-0.023,0.047-0.047,0.07-0.07C164.19,263.129,164.167,263.152,164.144,263.176z M163.229,264.029
		c0.043-0.039,0.086-0.08,0.131-0.119C163.315,263.949,163.272,263.99,163.229,264.029z M162.478,264.703
		c-0.049,0.043-0.096,0.084-0.145,0.127C162.382,264.787,162.431,264.744,162.478,264.703z M161.589,265.467
		c-0.041,0.035-0.082,0.068-0.123,0.104C161.507,265.537,161.548,265.502,161.589,265.467z M160.649,266.238
		c0.018-0.016,0.035-0.027,0.053-0.041C160.685,266.209,160.667,266.223,160.649,266.238z M159.815,266.889
		c0.031-0.023,0.061-0.047,0.092-0.068C159.876,266.842,159.847,266.865,159.815,266.889z M159.085,267.434
		c-0.043,0.031-0.086,0.064-0.129,0.096C158.999,267.498,159.042,267.465,159.085,267.434z M158.249,268.031
		c-0.045,0.031-0.09,0.063-0.135,0.094C158.159,268.094,158.204,268.063,158.249,268.031z M170.433,256.178
		c0.049-0.061,0.098-0.121,0.146-0.184C170.528,256.057,170.479,256.119,170.433,256.178z M189.774,217.744
		c-0.033,0.098-0.064,0.195-0.1,0.293C189.71,217.939,189.741,217.84,189.774,217.744z M188.919,220.225
		c-0.045,0.125-0.088,0.252-0.133,0.377C188.831,220.477,188.874,220.35,188.919,220.225z M188.03,222.699
		c-0.043,0.117-0.088,0.234-0.131,0.352C187.942,222.934,187.987,222.816,188.03,222.699z M187.122,225.123
		c-0.029,0.076-0.061,0.148-0.088,0.227C187.062,225.273,187.093,225.199,187.122,225.123z M186.233,227.396
		c-0.014,0.031-0.023,0.063-0.035,0.092C186.21,227.457,186.222,227.428,186.233,227.396z M185.38,229.496
		c0.002-0.004,0.004-0.008,0.004-0.012C185.384,229.49,185.382,229.492,185.38,229.496c-0.037,0.09-0.074,0.182-0.113,0.271
		C185.306,229.678,185.343,229.586,185.38,229.496z M184.479,231.627c-0.047,0.109-0.094,0.217-0.139,0.324
		C184.388,231.844,184.433,231.736,184.479,231.627z M183.552,233.742c-0.043,0.096-0.086,0.189-0.129,0.287
		C183.466,233.932,183.509,233.838,183.552,233.742z M100.866,235.809c0.021,0.047,0.043,0.092,0.064,0.139
		C100.909,235.9,100.888,235.855,100.866,235.809z M101.757,237.682c0.02,0.041,0.041,0.084,0.061,0.127
		C101.798,237.766,101.776,237.723,101.757,237.682z M102.646,239.48c0.043,0.084,0.084,0.168,0.127,0.252
		C102.731,239.648,102.688,239.564,102.646,239.48z M109.3,251c-0.031-0.049-0.063-0.096-0.096-0.146
		C109.237,250.904,109.269,250.951,109.3,251z M103.581,241.299c0.045,0.088,0.092,0.176,0.139,0.264
		C103.673,241.475,103.626,241.387,103.581,241.299z M104.534,243.082c0.039,0.07,0.076,0.139,0.113,0.207
		C104.61,243.221,104.573,243.152,104.534,243.082z M106.382,246.342c0.027,0.045,0.053,0.092,0.08,0.137
		C106.435,246.434,106.409,246.387,106.382,246.342z M107.296,247.863c0.043,0.07,0.086,0.141,0.129,0.211
		C107.382,248.004,107.339,247.934,107.296,247.863z M108.243,249.375c0.045,0.072,0.09,0.141,0.135,0.211
		C108.333,249.516,108.288,249.447,108.243,249.375z M105.497,244.814c0.012,0.02,0.021,0.037,0.031,0.055
		C105.519,244.852,105.509,244.834,105.497,244.814z M111.132,253.643c-0.033-0.045-0.064-0.09-0.096-0.135
		C111.067,253.553,111.099,253.598,111.132,253.643z M121.003,264.713c0.039,0.035,0.078,0.068,0.117,0.102
		C121.081,264.781,121.042,264.748,121.003,264.713z M125.337,268.111c-0.035-0.023-0.068-0.047-0.104-0.07
		C125.267,268.064,125.302,268.088,125.337,268.111z M124.501,267.52c-0.033-0.023-0.068-0.051-0.104-0.074
		C124.433,267.469,124.468,267.494,124.501,267.52z M123.585,266.836c0.018,0.014,0.037,0.029,0.057,0.043
		C123.622,266.865,123.603,266.85,123.585,266.836z M122.776,266.203c0.004,0.004,0.008,0.006,0.01,0.01
		C122.784,266.209,122.78,266.205,122.776,266.203z M121.981,265.553c-0.029-0.025-0.061-0.051-0.09-0.076
		C121.921,265.502,121.952,265.527,121.981,265.553z M126.067,268.605c0.023,0.018,0.047,0.031,0.072,0.047
		C126.114,268.637,126.091,268.621,126.067,268.605z M120.124,263.922c0.035,0.031,0.068,0.064,0.104,0.096
		C120.192,263.986,120.159,263.953,120.124,263.922z M118.403,262.271c0.016,0.016,0.029,0.029,0.045,0.045
		C118.433,262.301,118.417,262.287,118.403,262.271z M117.476,261.324c0.037,0.039,0.072,0.074,0.109,0.113
		C117.548,261.398,117.513,261.363,117.476,261.324z M116.554,260.338c0.041,0.045,0.082,0.09,0.123,0.135
		C116.636,260.428,116.595,260.383,116.554,260.338z M115.745,259.439c-0.033-0.037-0.066-0.076-0.102-0.113
		C115.679,259.363,115.712,259.402,115.745,259.439z M114.782,258.326c0.006,0.006,0.01,0.014,0.016,0.02
		C114.792,258.338,114.788,258.332,114.782,258.326z M113.925,257.293c-0.023-0.029-0.047-0.061-0.072-0.09
		C113.878,257.234,113.901,257.264,113.925,257.293z M119.276,263.129c0.014,0.012,0.025,0.023,0.039,0.035
		C119.302,263.154,119.29,263.141,119.276,263.129z M113.024,256.162c-0.041-0.053-0.082-0.104-0.125-0.158
		C112.942,256.059,112.983,256.111,113.024,256.162z M112.087,254.939c-0.043-0.059-0.086-0.113-0.129-0.172
		C112.001,254.826,112.044,254.881,112.087,254.939z M128.392,270.033c0.033,0.018,0.064,0.035,0.098,0.055
		C128.456,270.068,128.425,270.051,128.392,270.033z M129.927,270.854c0.016,0.01,0.033,0.02,0.051,0.025
		C129.96,270.871,129.942,270.863,129.927,270.854z M130.663,271.215c0.002,0.002,0.004,0.002,0.006,0.004
		C130.667,271.217,130.665,271.217,130.663,271.215z M131.405,271.557c-0.025-0.01-0.051-0.021-0.074-0.033
		C131.354,271.535,131.38,271.547,131.405,271.557z M132.112,271.863c-0.029-0.012-0.059-0.023-0.088-0.037
		C132.054,271.838,132.083,271.852,132.112,271.863z M132.792,272.137c-0.027-0.01-0.051-0.02-0.078-0.029
		C132.741,272.119,132.765,272.127,132.792,272.137z M133.392,272.367c0.01,0.004,0.021,0.008,0.033,0.012
		C133.413,272.373,133.401,272.369,133.392,272.367z M134.019,272.588c0.008,0.004,0.02,0.006,0.027,0.01
		C134.038,272.594,134.028,272.592,134.019,272.588z M134.614,272.785c0.023,0.008,0.047,0.016,0.07,0.021
		C134.663,272.799,134.638,272.793,134.614,272.785z M137.466,273.523c-0.023-0.004-0.047-0.01-0.07-0.014
		C137.419,273.514,137.442,273.52,137.466,273.523z M136.937,273.412c-0.014-0.002-0.027-0.006-0.043-0.01
		C136.909,273.406,136.923,273.41,136.937,273.412z M136.397,273.287c-0.004-0.002-0.008-0.002-0.012-0.004
		C136.39,273.287,136.394,273.287,136.397,273.287z M135.874,273.154c-0.021-0.008-0.043-0.012-0.064-0.02
		C135.831,273.143,135.853,273.146,135.874,273.154z M135.298,272.992c-0.027-0.006-0.055-0.016-0.082-0.021
		C135.243,272.977,135.271,272.986,135.298,272.992z M138.425,273.693c-0.018-0.004-0.035-0.006-0.053-0.008
		C138.39,273.688,138.407,273.689,138.425,273.693z M137.962,273.617c-0.023-0.004-0.045-0.008-0.068-0.014
		C137.917,273.609,137.938,273.613,137.962,273.617z M139.218,273.801c0.014,0,0.029,0.004,0.043,0.004
		C139.247,273.805,139.231,273.801,139.218,273.801z M139.604,273.842c0.02,0.002,0.039,0.004,0.059,0.006
		C139.644,273.846,139.624,273.844,139.604,273.842z M129.255,270.506c-0.031-0.018-0.063-0.033-0.094-0.051
		C129.192,270.473,129.224,270.49,129.255,270.506z M139.976,273.873c0.02,0.002,0.037,0.004,0.055,0.004
		C140.013,273.877,139.995,273.875,139.976,273.873z M127.696,269.629c-0.021-0.014-0.045-0.027-0.066-0.041
		C127.651,269.602,127.675,269.615,127.696,269.629z M99.921,233.742c0.041,0.096,0.084,0.188,0.127,0.281
		C100.005,233.93,99.964,233.836,99.921,233.742z M99.132,231.951c-0.047-0.107-0.094-0.215-0.141-0.324
		C99.038,231.736,99.085,231.842,99.132,231.951z M98.204,229.768c-0.039-0.094-0.076-0.188-0.115-0.281
		C98.128,229.58,98.165,229.674,98.204,229.768z M97.274,227.488c-0.012-0.031-0.023-0.063-0.035-0.094
		C97.251,227.424,97.263,227.457,97.274,227.488z M96.438,225.348c-0.029-0.076-0.059-0.148-0.086-0.225
		C96.38,225.199,96.409,225.271,96.438,225.348z M95.573,223.051c-0.043-0.119-0.086-0.236-0.131-0.354
		C95.487,222.814,95.53,222.932,95.573,223.051z M94.688,220.602c-0.045-0.125-0.09-0.252-0.133-0.379
		C94.599,220.35,94.644,220.477,94.688,220.602z M93.798,218.037c-0.033-0.098-0.066-0.195-0.1-0.293
		C93.731,217.84,93.765,217.939,93.798,218.037z"/>
	<path fill="none" d="M152.79,271.223c0.014-0.006,0.025-0.012,0.039-0.018"/>
	<path fill="none" d="M153.468,270.893c0.027-0.016,0.057-0.027,0.084-0.043"/>
	<path fill="none" d="M154.319,270.451c-0.041,0.021-0.082,0.043-0.123,0.064"/>
	<path fill="none" d="M152.151,271.518c-0.031,0.016-0.064,0.029-0.098,0.043"/>
	<path fill="none" d="M151.345,271.869c0.037-0.018,0.074-0.031,0.111-0.047"/>
	<path fill="none" d="M150.024,272.385c0.021-0.008,0.039-0.014,0.061-0.02"/>
	<path fill="none" d="M150.765,272.104c-0.033,0.016-0.066,0.027-0.102,0.039"/>
	<path fill="none" d="M157.413,268.598c-0.035,0.023-0.07,0.047-0.107,0.07"/>
	<path fill="none" d="M158.249,268.031c-0.045,0.031-0.09,0.063-0.135,0.094"/>
	<path fill="none" d="M159.085,267.434c-0.043,0.031-0.086,0.064-0.129,0.096"/>
	<path fill="none" d="M159.815,266.889c0.031-0.023,0.061-0.047,0.092-0.068"/>
	<path fill="none" d="M161.466,265.57c0.041-0.033,0.082-0.068,0.123-0.104"/>
	<path fill="none" d="M155.856,269.578c-0.031,0.02-0.063,0.039-0.096,0.057"/>
	<path fill="none" d="M149.464,272.584c-0.016,0.006-0.031,0.012-0.047,0.016"/>
	<path fill="none" d="M156.589,269.131c-0.01,0.006-0.018,0.01-0.025,0.016"/>
	<path fill="none" d="M155.091,270.023c-0.041,0.023-0.082,0.049-0.123,0.07"/>
	<path fill="none" d="M143.868,273.842c-0.021,0.002-0.043,0.004-0.064,0.006"/>
	<path fill="none" d="M144.206,273.805c0.018,0,0.035-0.004,0.051-0.006"/>
	<path fill="none" d="M148.866,272.783c-0.029,0.008-0.061,0.018-0.092,0.027"/>
	<line fill="none" x1="144.632" y1="273.752" x2="144.642" y2="273.752"/>
	<path fill="none" d="M160.702,266.197c-0.018,0.014-0.035,0.025-0.053,0.041"/>
	<path fill="none" d="M143.437,273.877c0.02,0,0.037-0.002,0.059-0.004"/>
	<path fill="none" d="M162.335,264.828c0.047-0.041,0.096-0.084,0.143-0.125"/>
	<path fill="none" d="M145.101,273.684c-0.021,0.004-0.039,0.006-0.059,0.01"/>
	<path fill="none" d="M147.089,273.283c-0.012,0.004-0.023,0.006-0.035,0.01"/>
	<path fill="none" d="M148.261,272.967c-0.033,0.01-0.064,0.02-0.098,0.029"/>
	<path fill="none" d="M147.585,273.156c0.027-0.008,0.053-0.014,0.08-0.021"/>
	<path fill="none" d="M146.001,273.523c0.025-0.004,0.051-0.01,0.076-0.016"/>
	<path fill="none" d="M146.528,273.414c0.018-0.004,0.037-0.01,0.055-0.014"/>
	<path fill="none" d="M134.046,272.598c-0.008-0.004-0.018-0.006-0.027-0.01"/>
	<path fill="none" d="M137.396,273.51c0.023,0.004,0.047,0.01,0.07,0.014"/>
	<path fill="none" d="M136.937,273.412c-0.014-0.002-0.027-0.006-0.043-0.01"/>
	<path fill="none" d="M137.962,273.617c-0.023-0.004-0.045-0.008-0.068-0.014"/>
	<path fill="none" d="M135.874,273.154c-0.021-0.008-0.043-0.012-0.064-0.02"/>
	<line fill="none" x1="136.397" y1="273.287" x2="136.386" y2="273.285"/>
	<path fill="none" d="M135.298,272.992c-0.027-0.006-0.055-0.016-0.082-0.021"/>
	<path fill="none" d="M138.372,273.686c0.018,0.002,0.035,0.004,0.053,0.008"/>
	<path fill="none" d="M139.261,273.805c-0.014,0-0.029-0.004-0.043-0.004"/>
	<path fill="none" d="M121.892,265.477c0.029,0.025,0.061,0.051,0.09,0.076"/>
	<line fill="none" x1="122.776" y1="266.203" x2="122.788" y2="266.211"/>
	<path fill="none" d="M134.685,272.807c-0.023-0.008-0.047-0.014-0.07-0.021"/>
	<path fill="none" d="M139.663,273.848c-0.02-0.002-0.039-0.004-0.059-0.006"/>
	<path fill="none" d="M139.976,273.873c0.02,0.002,0.037,0.004,0.055,0.004"/>
	<path fill="none" d="M121.003,264.713c0.039,0.035,0.078,0.068,0.117,0.102"/>
	<path fill="none" d="M95.442,222.699c0.045,0.115,0.088,0.232,0.131,0.352"/>
	<path fill="none" d="M128.392,270.033c0.033,0.018,0.064,0.035,0.098,0.055"/>
	<path fill="none" d="M129.255,270.506c-0.031-0.018-0.063-0.033-0.094-0.051"/>
	<path fill="none" d="M126.14,268.652c-0.023-0.016-0.049-0.029-0.072-0.047"/>
	<path fill="none" d="M125.233,268.039c0.035,0.023,0.068,0.049,0.104,0.072"/>
	<path fill="none" d="M123.585,266.836c0.018,0.014,0.037,0.029,0.057,0.043"/>
	<path fill="none" d="M124.399,267.445c0.033,0.023,0.068,0.051,0.104,0.074"/>
	<path fill="none" d="M127.696,269.629c-0.021-0.014-0.045-0.027-0.066-0.041"/>
	<path fill="none" d="M132.112,271.863c-0.029-0.012-0.059-0.023-0.088-0.037"/>
	<path fill="none" d="M132.714,272.107c0.025,0.012,0.051,0.021,0.078,0.029"/>
	<path fill="none" d="M133.425,272.377c-0.012-0.004-0.023-0.008-0.033-0.012"/>
	<line fill="none" x1="130.669" y1="271.219" x2="130.663" y2="271.215"/>
	<path fill="none" d="M131.405,271.557c-0.025-0.01-0.051-0.021-0.074-0.033"/>
	<path fill="none" d="M129.978,270.879c-0.018-0.008-0.035-0.016-0.051-0.025"/>
	<path fill="none" d="M175.231,249.369c-0.049,0.078-0.098,0.152-0.145,0.229"/>
	<path fill="none" d="M178.938,243.078c-0.041,0.076-0.082,0.148-0.123,0.223"/>
	<path fill="none" d="M179.892,241.295c-0.047,0.092-0.096,0.184-0.145,0.275"/>
	<path fill="none" d="M180.696,239.736c0.043-0.086,0.086-0.174,0.131-0.26"/>
	<path fill="none" d="M177.976,244.811c-0.016,0.025-0.029,0.053-0.045,0.076"/>
	<path fill="none" d="M181.649,237.813c0.023-0.047,0.047-0.094,0.068-0.141"/>
	<path fill="none" d="M176.04,248.082c0.047-0.076,0.094-0.152,0.141-0.23"/>
	<path fill="none" d="M163.229,264.029c0.043-0.039,0.086-0.08,0.131-0.119"/>
	<path fill="none" d="M183.423,234.029c0.043-0.098,0.086-0.191,0.129-0.287"/>
	<path fill="none" d="M186.198,227.488c0.012-0.029,0.021-0.061,0.035-0.092"/>
	<path fill="none" d="M187.122,225.123c-0.029,0.076-0.061,0.148-0.088,0.227"/>
	<path fill="none" d="M164.144,263.176c0.023-0.023,0.047-0.047,0.07-0.07"/>
	<path fill="none" d="M182.606,235.809c-0.021,0.047-0.045,0.096-0.066,0.143"/>
	<path fill="none" d="M184.341,231.953c0.047-0.109,0.094-0.217,0.141-0.324"/>
	<path fill="none" d="M174.271,250.848c-0.039,0.059-0.074,0.113-0.113,0.17"/>
	<path fill="none" d="M177.005,246.484c0.029-0.051,0.059-0.102,0.09-0.152"/>
	<path fill="none" d="M166.78,260.486c0.049-0.055,0.098-0.107,0.146-0.16"/>
	<path fill="none" d="M187.899,223.051c0.043-0.117,0.088-0.234,0.131-0.354"/>
	<path fill="none" d="M165.868,261.453c0.045-0.047,0.09-0.092,0.135-0.139"/>
	<path fill="none" d="M188.786,220.602c0.045-0.125,0.088-0.252,0.133-0.377"/>
	<path fill="none" d="M94.556,220.223c0.043,0.127,0.088,0.254,0.133,0.379"/>
	<line fill="none" x1="173.302" y1="252.279" x2="173.298" y2="252.287"/>
	<path fill="none" d="M189.774,217.744c-0.033,0.098-0.064,0.195-0.1,0.293"/>
	<path fill="none" d="M171.374,254.953c0.049-0.066,0.098-0.131,0.146-0.197"/>
	<path fill="none" d="M170.433,256.178c0.049-0.061,0.098-0.121,0.146-0.184"/>
	<path fill="none" d="M167.839,259.309c-0.041,0.047-0.082,0.096-0.123,0.143"/>
	<path fill="none" d="M169.624,257.197c-0.033,0.039-0.066,0.078-0.1,0.117"/>
	<path fill="none" d="M168.665,258.354c0.014-0.016,0.027-0.033,0.041-0.051"/>
	<path fill="none" d="M103.581,241.299c0.045,0.088,0.092,0.176,0.139,0.264"/>
	<path fill="none" d="M108.243,249.375c0.045,0.072,0.09,0.141,0.135,0.211"/>
	<path fill="none" d="M102.646,239.48c0.043,0.084,0.084,0.168,0.127,0.252"/>
	<path fill="none" d="M164.997,262.34c0.025-0.025,0.053-0.051,0.078-0.076"/>
	<path fill="none" d="M107.296,247.863c0.043,0.07,0.086,0.141,0.129,0.211"/>
	<path fill="none" d="M105.53,244.869c-0.012-0.018-0.021-0.035-0.031-0.055"/>
	<path fill="none" d="M106.462,246.479c-0.025-0.045-0.053-0.092-0.08-0.137"/>
	<path fill="none" d="M104.534,243.082c0.039,0.07,0.076,0.139,0.113,0.207"/>
	<path fill="none" d="M96.351,225.123c0.029,0.074,0.059,0.148,0.086,0.225"/>
	<path fill="none" d="M97.239,227.395c0.012,0.029,0.023,0.063,0.035,0.094"/>
	<path fill="none" d="M93.7,217.744c0.031,0.098,0.064,0.195,0.098,0.293"/>
	<path fill="none" d="M98.991,231.627c0.047,0.107,0.094,0.215,0.141,0.322"/>
	<path fill="none" d="M99.921,233.742c0.041,0.096,0.084,0.188,0.127,0.281"/>
	<path fill="none" d="M98.089,229.486c0.039,0.094,0.078,0.188,0.115,0.281"/>
	<path fill="none" d="M100.866,235.809c0.021,0.047,0.043,0.092,0.064,0.139"/>
	<path fill="none" d="M101.757,237.682c0.02,0.041,0.041,0.084,0.061,0.127"/>
	<path fill="none" d="M118.448,262.316c-0.016-0.016-0.029-0.029-0.045-0.045"/>
	<path fill="none" d="M117.476,261.324c0.037,0.039,0.072,0.074,0.109,0.113"/>
	<path fill="none" d="M115.745,259.439c-0.033-0.037-0.066-0.076-0.102-0.113"/>
	<path fill="none" d="M116.554,260.338c0.041,0.045,0.082,0.09,0.123,0.135"/>
	<path fill="none" d="M119.276,263.129c0.014,0.012,0.025,0.023,0.039,0.035"/>
	<path fill="none" d="M120.124,263.922c0.035,0.031,0.068,0.064,0.104,0.096"/>
	<path fill="none" d="M112.899,256.004c0.043,0.055,0.084,0.105,0.125,0.158"/>
	<path fill="none" d="M111.132,253.643c-0.033-0.045-0.064-0.09-0.096-0.135"/>
	<path fill="none" d="M109.3,251c-0.031-0.049-0.063-0.096-0.096-0.146"/>
	<path fill="none" d="M111.958,254.768c0.043,0.059,0.086,0.113,0.129,0.172"/>
	<path fill="none" d="M113.925,257.293c-0.023-0.029-0.047-0.061-0.072-0.09"/>
	<path fill="none" d="M114.782,258.326c0.006,0.006,0.01,0.014,0.016,0.02"/>
	<path d="M141.595,174.145c0.779-5.686,1.68-11.084,2.705-16.18c-0.84,0.129-1.695,0.203-2.564,0.203
		c-0.914,0-1.813-0.08-2.695-0.223c0.377,2.027,0.732,4.109,1.068,6.236C140.649,167.398,141.146,170.717,141.595,174.145z"/>
	<path d="M159.868,105.678c-0.74,4.168-2.471,7.904-4.879,10.848c0.865,0.919,1.662,1.927,2.385,3.01
		c1.49-2.617,3.061-4.998,4.711-7.134c1.152-1.489,2.238-2.958,3.268-4.401C163.399,107.569,161.556,106.777,159.868,105.678z"/>
	<path d="M121.673,112.781c0.119,0.068,0.227,0.16,0.316,0.275c1.475,1.906,2.877,4.017,4.211,6.32
		c0.693-1.023,1.459-1.979,2.281-2.853c-2.408-2.944-4.139-6.685-4.879-10.854c-1.686,1.103-3.535,1.896-5.486,2.33
		c1.029,1.443,2.117,2.912,3.27,4.403C121.481,112.526,121.577,112.654,121.673,112.781z"/>
	<path d="M141.735,151.799c-1.482,0-2.873-0.227-4.078-0.621c0.328,1.475,0.645,2.975,0.947,4.508
		c1.018,0.221,2.063,0.342,3.131,0.342c1.033,0,2.045-0.113,3.031-0.32c0.326-1.535,0.662-3.041,1.012-4.518
		C144.581,151.578,143.204,151.799,141.735,151.799z"/>
	<path d="M153.554,118.109c-3.211,3.178-7.33,5.09-11.818,5.09c-4.486,0-8.605-1.914-11.816-5.091
		c-0.941,1.017-1.795,2.149-2.543,3.385c3.564,6.683,6.586,14.853,9.033,24.429c1.439,0.271,3.299,0.723,5.326,0.723
		c2.047,0,3.92-0.459,5.365-0.729c2.525-9.438,5.57-17.545,9.102-24.24C155.429,120.371,154.54,119.174,153.554,118.109z"/>
	<path d="M162.323,78.35c-2.371,0-4.609-0.69-6.584-1.905c-0.514,2.595-1.521,4.966-2.902,6.958
		c4.512,4.034,7.436,10.459,7.436,17.684c0,0.746-0.031,1.48-0.092,2.207c1.941,1.453,4.152,2.422,6.518,2.781
		c1.563-2.279,2.977-4.496,4.252-6.643c0.063-0.346,0.291-0.696,0.631-1.075c5.721-9.875,8.545-18.254,9.898-24.632
		c-1.596-2.4-3.639-4.34-5.975-5.635C173.278,74.123,168.21,78.35,162.323,78.35z M167.142,102.817
		c-0.596,0-1.078-0.582-1.078-1.298c0-0.717,0.482-1.299,1.078-1.299s1.078,0.582,1.078,1.299S167.737,102.817,167.142,102.817z"/>
	<path d="M111.899,98.369c0.332,0.37,0.553,0.715,0.617,1.053c1.277,2.149,2.693,4.369,4.256,6.651
		c2.367-0.36,4.578-1.334,6.521-2.791c-0.061-0.722-0.092-1.454-0.092-2.194c0-7.225,2.924-13.648,7.434-17.683
		c-1.385-1.993-2.393-4.368-2.906-6.966c-1.975,1.215-4.213,1.906-6.586,1.906c-5.887,0-10.955-4.227-13.18-10.26
		c-2.332,1.291-4.373,3.226-5.971,5.621C103.345,80.074,106.167,88.469,111.899,98.369z M115.251,101.519
		c0-0.718,0.48-1.298,1.078-1.298c0.596,0,1.078,0.58,1.078,1.298c0,0.717-0.482,1.298-1.078,1.298
		C115.731,102.816,115.251,102.235,115.251,101.519z"/>
	<path d="M141.735,121.059c9.041,0,16.396-8.959,16.396-19.971c0-6.551-2.607-12.373-6.625-16.014
		c-2.568,2.831-6.002,4.564-9.771,4.564s-7.201-1.733-9.77-4.563c-4.016,3.642-6.623,9.462-6.623,16.013
		C125.343,112.1,132.696,121.059,141.735,121.059z M131.603,109.95c0,0.72-0.484,1.302-1.082,1.302s-1.082-0.582-1.082-1.302
		s0.484-1.303,1.082-1.303S131.603,109.23,131.603,109.95z M151.538,110.596c-0.236,0-0.43-0.231-0.43-0.518
		c0-0.285,0.191-0.518,0.43-0.518s0.43,0.232,0.43,0.518C151.968,110.364,151.774,110.596,151.538,110.596z M141.735,112.318
		c4.227,0,7.652-2.119,7.652,0.33c0,2.467-3.426,4.443-7.652,4.443s-7.652-1.977-7.652-4.443
		C134.083,110.199,137.509,112.318,141.735,112.318z"/>
	<path d="M159.286,55.223c-1.945,0-3.816-0.526-5.508-1.516c-0.475,2.223-1.375,4.243-2.592,5.937
		c3.021,3.139,4.938,7.75,4.938,12.886c0,0.529-0.023,1.051-0.063,1.568c1.834,1.339,3.977,2.111,6.264,2.111
		c6.752,0,12.246-6.716,12.246-14.97c0-5.03-2.041-9.485-5.164-12.202c-0.377,0.631-0.801,1.233-1.271,1.801
		C165.784,53.664,162.642,55.223,159.286,55.223z M161.104,73.394c-0.453,0-0.818-0.441-0.818-0.986s0.365-0.985,0.818-0.985
		c0.451,0,0.818,0.44,0.818,0.985S161.558,73.394,161.104,73.394z M172.476,58.428c0.182,0,0.328,0.178,0.328,0.396
		s-0.146,0.396-0.328,0.396s-0.33-0.178-0.33-0.396S172.294,58.428,172.476,58.428z M172.481,61.621
		c1.094,1.324,0.139,4.607-2.146,7.352c-2.271,2.744-5,3.912-6.102,2.578c-1.1-1.316,1.699-2.404,3.975-5.14
		C170.485,63.668,171.38,60.297,172.481,61.621z"/>
	<path d="M121.142,76.205c2.289,0,4.434-0.773,6.268-2.115c-0.039-0.516-0.064-1.035-0.064-1.562c0-5.136,1.916-9.747,4.939-12.886
		c-1.219-1.693-2.119-3.713-2.594-5.936c-1.66,0.98-3.531,1.535-5.512,1.535c-4.17,0-7.863-2.453-10.117-6.203
		c-3.121,2.715-5.164,7.168-5.164,12.198C108.897,69.491,114.392,76.205,121.142,76.205z M122.366,73.394
		c-0.453,0-0.82-0.441-0.82-0.986s0.367-0.985,0.82-0.985c0.451,0,0.816,0.44,0.816,0.985S122.817,73.394,122.366,73.394z
		 M110.976,58.428c0.184,0,0.33,0.178,0.33,0.396s-0.146,0.396-0.33,0.396c-0.182,0-0.33-0.178-0.33-0.396
		S110.794,58.428,110.976,58.428z M110.989,61.621c1.104-1.326,1.992,2.047,4.273,4.79c2.277,2.734,5.07,3.823,3.973,5.14
		c-1.1,1.334-3.836,0.166-6.109-2.578C110.851,66.229,109.892,62.945,110.989,61.621z"/>
	<path d="M141.735,87.498c6.754,0,12.248-6.716,12.248-14.97c0-4.478-1.617-8.499-4.176-11.245
		c-2.174,2.211-4.992,3.551-8.072,3.551s-5.898-1.34-8.072-3.551c-2.557,2.746-4.176,6.768-4.176,11.245
		C129.487,80.783,134.981,87.498,141.735,87.498z M133.187,79.803c-0.453,0-0.822-0.442-0.822-0.99c0-0.547,0.369-0.99,0.822-0.99
		c0.455,0,0.822,0.443,0.822,0.99C134.009,79.36,133.642,79.803,133.187,79.803z M141.735,84.264c-3.219,0-5.83-1.508-5.83-3.381
		c0-1.864,2.611-0.254,5.83-0.254c3.223,0,5.83-1.609,5.83,0.254C147.563,82.756,144.958,84.264,141.735,84.264z M148.884,78.902
		c0-0.219,0.146-0.396,0.328-0.396c0.184,0,0.33,0.178,0.33,0.396s-0.146,0.396-0.33,0.396
		C149.03,79.299,148.884,79.121,148.884,78.902z"/>
	<path d="M154.142,38.85c-1.305,0-2.547-0.329-3.67-0.915c-0.105,0.429-0.234,0.847-0.385,1.252c2.498,2.698,4.07,6.588,4.07,10.903
		c0,0.432-0.02,0.856-0.051,1.278c1.559,1.115,3.332,1.712,5.178,1.712c2.709,0,5.268-1.283,7.205-3.613
		c4.111-4.955,4.111-13.018-0.002-17.973c-0.955-1.15-2.063-2.045-3.264-2.656C162.901,34.422,158.954,38.85,154.142,38.85z
		 M158.253,50.559c-0.387,0-0.699-0.377-0.699-0.844c0-0.465,0.313-0.842,0.699-0.842s0.701,0.377,0.701,0.842
		C158.954,50.182,158.64,50.559,158.253,50.559z M167.749,37.898c0.115-0.129,0.297-0.129,0.4,0.009
		c0.107,0.121,0.107,0.349,0,0.468c-0.104,0.139-0.281,0.139-0.4,0C167.653,38.256,167.653,38.028,167.749,37.898z M167.944,40.521
		c0.938,1.124,0.119,3.938-1.824,6.271c-1.941,2.334-4.264,3.328-5.201,2.194c-0.938-1.124,1.449-2.048,3.387-4.381
		C166.245,42.266,167.009,39.397,167.944,40.521z"/>
	<path d="M124.179,53.102c1.891,0,3.662-0.631,5.186-1.727c-0.031-0.424-0.051-0.852-0.051-1.285c0-4.315,1.57-8.205,4.07-10.903
		c-0.15-0.407-0.279-0.828-0.387-1.259c-1.127,0.591-2.373,0.922-3.684,0.922c-4.803,0-8.748-4.413-9.082-9.984
		c-3.715,1.9-6.334,6.398-6.334,11.635C113.897,47.448,118.511,53.102,124.179,53.102z M125.224,50.559
		c-0.385,0-0.699-0.377-0.699-0.844c0-0.465,0.313-0.842,0.699-0.842c0.389,0,0.701,0.377,0.701,0.842
		C125.925,50.182,125.612,50.559,125.224,50.559z M115.317,37.907c0.111-0.138,0.285-0.138,0.4-0.009
		c0.104,0.13,0.104,0.357,0,0.479c-0.119,0.137-0.293,0.137-0.4,0C115.214,38.256,115.214,38.028,115.317,37.907z M115.524,40.521
		c0.938-1.125,1.703,1.744,3.641,4.085c1.938,2.333,4.322,3.257,3.389,4.381c-0.936,1.134-3.266,0.14-5.207-2.194
		C115.407,44.461,114.587,41.646,115.524,40.521z"/>
	<path d="M141.735,62.693c5.67,0,10.281-5.652,10.281-12.602c0-3.433-1.127-6.545-2.947-8.82c-1.658,2.658-4.328,4.386-7.332,4.386
		c-3.006,0-5.676-1.728-7.336-4.386c-1.82,2.275-2.945,5.389-2.945,8.82C131.454,57.039,136.065,62.693,141.735,62.693z
		 M134.45,54.336c0.387,0,0.699,0.379,0.699,0.844c0,0.466-0.313,0.843-0.699,0.843s-0.699-0.377-0.699-0.843
		C133.751,54.715,134.063,54.336,134.45,54.336z M147.827,55.27c0-0.189,0.129-0.344,0.285-0.344c0.158,0,0.285,0.154,0.285,0.344
		s-0.127,0.343-0.285,0.343C147.956,55.612,147.827,55.459,147.827,55.27z M141.735,56.723c2.744,0,4.971-1.377,4.971,0.219
		c0,1.598-2.227,2.882-4.971,2.882s-4.971-1.289-4.971-2.882C136.765,55.35,138.991,56.723,141.735,56.723z"/>
	<path d="M150.843,34.905c0,0.255-0.01,0.507-0.025,0.757c0.988,0.668,2.123,1.047,3.326,1.047c3.84,0,6.965-3.863,6.965-8.611
		c0-4.746-3.125-8.608-6.965-8.608c-1.24,0-2.404,0.404-3.414,1.108c-0.334,2.49-1.395,4.697-2.916,6.31
		C149.671,28.877,150.843,31.732,150.843,34.905z M152.812,34.668c-0.271,0-0.496-0.268-0.496-0.598s0.225-0.598,0.496-0.598
		c0.273,0,0.498,0.268,0.498,0.598S153.087,34.668,152.812,34.668z M158.392,32.002c-1.377,1.649-3.018,2.346-3.686,1.547
		c-0.662-0.793,1.025-1.453,2.4-3.1c1.373-1.654,1.914-3.684,2.576-2.89C160.343,28.361,159.765,30.346,158.392,32.002z
		 M159.835,25.707c0.072,0.088,0.072,0.244,0,0.329c-0.08,0.107-0.211,0.107-0.287,0c-0.074-0.089-0.074-0.245,0-0.339
		C159.624,25.608,159.759,25.608,159.835,25.707z"/>
	<path d="M129.313,36.709c1.209,0,2.348-0.384,3.338-1.057c-0.014-0.247-0.023-0.496-0.023-0.747c0-3.173,1.172-6.028,3.029-7.998
		c-1.52-1.61-2.578-3.813-2.914-6.298c-1.014-0.711-2.184-1.12-3.43-1.12c-3.842,0-6.967,3.862-6.967,8.608
		C122.347,32.846,125.472,36.709,129.313,36.709z M128.765,33.549c-0.666,0.799-2.311,0.104-3.684-1.547
		c-1.375-1.656-1.953-3.641-1.293-4.442c0.664-0.794,1.205,1.235,2.578,2.89C127.739,32.096,129.425,32.756,128.765,33.549z
		 M130.657,34.668c-0.273,0-0.496-0.268-0.496-0.598s0.223-0.598,0.496-0.598s0.496,0.268,0.496,0.598
		S130.931,34.668,130.657,34.668z M123.64,25.707c0.074-0.1,0.199-0.1,0.277-0.01c0.078,0.094,0.078,0.25,0,0.339
		c-0.074,0.107-0.199,0.107-0.277,0C123.562,25.952,123.562,25.797,123.64,25.707z"/>
	<path d="M134.769,34.905c0,4.748,3.125,8.61,6.965,8.61c3.842,0,6.967-3.862,6.967-8.61c0-2.659-0.98-5.04-2.518-6.62
		c-1.316,0.874-2.834,1.375-4.449,1.375s-3.133-0.501-4.447-1.375C135.749,29.866,134.769,32.246,134.769,34.905z M146.255,38.237
		c-0.111,0-0.201-0.106-0.201-0.241c0-0.133,0.09-0.24,0.201-0.24c0.109,0,0.199,0.107,0.199,0.24S146.364,38.237,146.255,38.237z
		 M136.079,37.938c0-0.33,0.223-0.597,0.496-0.597s0.496,0.268,0.496,0.597c0,0.33-0.223,0.599-0.496,0.599
		S136.079,38.269,136.079,37.938z M141.735,41.221c-1.943,0.006-3.516-0.905-3.516-2.039c0-1.133,1.57-0.155,3.516-0.155
		c1.941,0,3.52-0.978,3.52,0.155C145.255,40.315,143.677,41.221,141.735,41.221z"/>
	<path d="M141.735,27.52c3.842,0,6.967-3.862,6.967-8.61c0-4.747-3.125-8.608-6.967-8.608s-6.967,3.861-6.967,8.608
		C134.769,23.657,137.894,27.52,141.735,27.52z M146.255,21.741c0.109,0,0.199,0.106,0.199,0.24c0,0.133-0.09,0.241-0.199,0.241
		c-0.111,0-0.201-0.108-0.201-0.241C146.054,21.85,146.144,21.741,146.255,21.741z M141.735,23.035c1.941,0,3.52-0.968,3.52,0.156
		s-1.578,2.039-3.52,2.039c-1.943,0-3.516-0.919-3.516-2.039C138.22,22.067,139.79,23.035,141.735,23.035z M137.071,21.938
		c0,0.33-0.223,0.597-0.496,0.597s-0.496-0.267-0.496-0.597s0.223-0.598,0.496-0.598S137.071,21.607,137.071,21.938z"/>
	<path d="M101.245,69.424c0.121,0.885,0.27,1.828,0.457,2.828c1.863-2.508,4.219-4.477,6.883-5.682
		c-0.49-1.668-0.758-3.462-0.758-5.332c0-5.888,2.635-11.031,6.563-13.82c-0.992-2.029-1.563-4.393-1.563-6.918
		c0-6.355,3.602-11.697,8.479-13.229c0.35-4.958,3.799-8.851,8.006-8.851c1.643,0,3.168,0.594,4.439,1.611
		c-0.035-0.367-0.055-0.742-0.055-1.121c0-5.346,3.598-9.68,8.035-9.68c4.439,0,8.037,4.333,8.037,9.68
		c0,0.375-0.02,0.745-0.053,1.109c1.27-1.012,2.789-1.6,4.424-1.6c4.201,0,7.646,3.883,8.004,8.83
		c1.895,0.592,3.686,1.777,5.166,3.563c3.736,4.5,4.324,11.359,1.764,16.602c3.928,2.789,6.566,7.936,6.566,13.826
		c0,1.872-0.27,3.667-0.76,5.336c2.668,1.208,5.023,3.182,6.887,5.694c0.188-1,0.338-1.944,0.457-2.831
		c-0.408-0.459-0.834-0.896-1.273-1.313c-1.105-1.041-2.307-1.94-3.586-2.681c0.275-1.375,0.416-2.784,0.416-4.208
		c0-5.777-2.254-11.063-6.104-14.484c2.131-5.811,1.104-12.707-2.719-17.311c-1.369-1.648-3.025-2.921-4.852-3.736
		c-0.414-2.343-1.43-4.494-2.934-6.162c-1.898-2.106-4.396-3.268-7.033-3.268c-0.824,0-1.637,0.113-2.424,0.335
		c-0.922-5.422-5.049-9.524-9.984-9.524c-4.938,0-9.064,4.104-9.986,9.528c-0.789-0.226-1.607-0.339-2.436-0.339
		c-2.643,0-5.143,1.163-7.043,3.275c-1.504,1.674-2.52,3.83-2.93,6.178c-5.158,2.314-8.654,8.172-8.654,14.77
		c0,2.157,0.377,4.291,1.1,6.26c-3.848,3.42-6.1,8.705-6.1,14.479c0,1.422,0.141,2.829,0.416,4.202
		c-1.277,0.737-2.477,1.634-3.582,2.673C102.079,68.527,101.655,68.965,101.245,69.424z"/>
	<path d="M187.269,197.93c-6.711,20.631-14.758,36.469-23.916,47.074c-4.285,4.963-8.316,8.17-11.805,10.242
		c10.262,2.705,26.352-0.953,39.016-39.877c13.982-42.986,8.223-92.832,1.883-124.332
		C197.003,121.781,198.897,162.197,187.269,197.93z"/>
	<path d="M163.778,113.711c-0.025,0.035-0.051,0.069-0.076,0.104c-0.02,0.193-0.088,0.386-0.217,0.552
		c-10.621,13.75-17.648,38.8-20.463,72.737c0.248,2.709,0.473,5.465,0.668,8.275c2.033,29.211,0.561,54.25,0.545,54.5
		c-0.006,0.094-0.018,0.188-0.035,0.281l-1.24,6.338c10.273-2.207,27.893-15.023,42.273-59.23
		c15.617-47.996,6.613-104.512-0.324-134.525c-0.027,0.055-0.07,0.094-0.119,0.125C184.913,70.082,183.015,88.819,163.778,113.711z"
		/>
	<path d="M120.03,244.521c-9.17-10.504-17.188-26.18-23.83-46.592c-6.916-21.26-9.75-46.275-8.418-74.356
		c0.549-11.565,1.766-22.61,3.244-32.547c-6.34,31.499-12.104,81.351,1.885,124.343c15.502,47.666,36.146,45.691,44.938,42.18
		C133.192,255.959,126.899,252.393,120.03,244.521z"/>
	<path d="M140.839,256.178l0.188-0.959v-5.471c0-0.027,0.002-0.053,0.004-0.08c0.02-0.248,1.844-25.098,0.18-54.104
		c-2.119-36.922-8.932-64.361-19.734-79.598l0.039,0.261c-0.592-0.868-1.199-1.708-1.824-2.517
		c-19.045-24.646-21.096-43.259-21.012-50.629c-0.008,0.012-0.016,0.023-0.023,0.035c-0.059,0.081-0.133,0.125-0.213,0.145
		c-6.924,30.145-15.732,86.287-0.207,134.004C113.149,243.098,131.536,254.055,140.839,256.178z"/>
</g>
</svg>
