<?xml version="1.0" encoding="utf-8"?>
<!-- Generator: Adobe Illustrator 15.1.0, SVG Export Plug-In . SVG Version: 6.00 Build 0)  -->
<!DOCTYPE svg PUBLIC "-//W3C//DTD SVG 1.1//EN" "http://www.w3.org/Graphics/SVG/1.1/DTD/svg11.dtd">
<svg version="1.1" id="Layer_2" xmlns="http://www.w3.org/2000/svg" xmlns:xlink="http://www.w3.org/1999/xlink" x="0px" y="0px"
	 width="283.465px" height="283.465px" viewBox="0 0 283.465 283.465" enable-background="new 0 0 283.465 283.465"
	 xml:space="preserve">
<g>
	<path d="M269.496,89.594c-7.336-15.086-20.033-24.803-36.711-28.096c-30.438-6.012-45.518,3.687-58.82,12.243
		c-9.566,6.154-17.828,11.47-32.223,11.47c-0.006,0-0.012,0-0.02,0c-14.391,0-22.652-5.315-32.219-11.471
		c-13.303-8.557-28.379-18.259-58.811-12.242c-16.688,3.293-29.389,13.014-36.727,28.107c-9.881,20.318-8.18,47.408-0.828,61.854
		c8.818,17.359,24.051,33.379,44.043,46.328c25.553,16.555,56.354,26.047,84.514,26.047c0.012,0,0.025,0,0.039,0
		c28.174,0,58.988-9.494,84.545-26.043c20.004-12.953,35.232-28.971,44.043-46.313C277.678,137.018,279.381,109.917,269.496,89.594z
		 M163.193,134.749c-7.223,3.187-14.305,4.801-21.051,4.801c-8.557,0-16.197-2.547-22.709-7.569c-0.848-0.655-1.4-1.62-1.539-2.683
		c-0.137-1.063,0.154-2.137,0.809-2.983l7.637-9.896c0.795-1.031,1.992-1.572,3.201-1.572c0.861,0,1.729,0.275,2.463,0.843
		c2.838,2.188,6.275,3.299,10.221,3.299c3.793,0,8.055-1.03,12.664-3.065c0.52-0.229,1.074-0.344,1.631-0.344
		c0.494,0,0.99,0.092,1.459,0.273c1,0.388,1.805,1.154,2.236,2.136l5.043,11.437C166.16,131.463,165.234,133.849,163.193,134.749z"
		/>
</g>
</svg>
