<?xml version="1.0" encoding="utf-8"?>
<!-- Generator: Adobe Illustrator 15.1.0, SVG Export Plug-In . SVG Version: 6.00 Build 0)  -->
<!DOCTYPE svg PUBLIC "-//W3C//DTD SVG 1.1//EN" "http://www.w3.org/Graphics/SVG/1.1/DTD/svg11.dtd">
<svg version="1.1" id="Layer_3" xmlns="http://www.w3.org/2000/svg" xmlns:xlink="http://www.w3.org/1999/xlink" x="0px" y="0px"
	 width="283.465px" height="283.465px" viewBox="0 0 283.465 283.465" enable-background="new 0 0 283.465 283.465"
	 xml:space="preserve">
<g>
	<path fill="none" d="M146.246,121.721l-4.427-0.698c0,0,0,0,0,0l-2.97,0.344c0.879,0.769,1.761,1.533,2.635,2.306
		C143.067,123.015,144.659,122.373,146.246,121.721z"/>
	<path fill="none" d="M88.51,205.101c0,0.026-0.003,0.054-0.003,0.079c-0.053,2.053-0.021,4.039,0.077,5.973l0.003-0.779
		L88.51,205.101z"/>
	<path fill="none" d="M129.443,125.456L129.443,125.456c-2.223,1.431-4.49,3.176-6.761,5.208l9.196-3.936L129.443,125.456z"/>
	<path fill="none" d="M95.321,207.185l-6.7-4.547l-0.035,7.735l0.021,1.438c-0.013-0.216-0.014-0.441-0.024-0.659l-0.007,1.503
		C90.798,210.866,93.038,209.052,95.321,207.185z"/>
	<path d="M88.586,210.373l-0.003,0.779c0.011,0.218,0.011,0.443,0.024,0.659L88.586,210.373z"/>
	<path d="M198.131,205.102c-0.065-2.535-0.226-4.957-0.491-7.404c-0.003-0.028-0.006-0.057-0.01-0.085
		c-2.02-18.469-9.929-38.354-21.708-54.596c-11.339-15.635-24.086-24.978-34.098-24.993c-0.003,0-0.006,0-0.009,0
		c-10.013,0.015-22.76,9.358-34.099,24.993c-11.78,16.243-19.688,36.131-21.705,54.573c0,0.004-0.002,0.008-0.002,0.012
		c-0.153,1.114-0.28,2.149-0.389,3.165c-0.143,1.366-0.248,2.754-0.313,4.13c-0.019,0.398,0.063,0.78,0.194,1.145
		c-0.03,1.979-0.006,3.917,0.1,5.754c-0.048,0.722-0.072,1.439-0.072,2.137c0,6.979,2.187,14.829,6.323,22.702
		c2.75,5.66,6.42,10.896,10.909,15.563c11.446,12.755,25.605,20.583,38.856,21.481c0.067,0.005,0.135,0.007,0.203,0.007
		s0.135-0.002,0.203-0.007c13.251-0.898,27.411-8.727,38.856-21.481c4.488-4.667,8.159-9.902,10.909-15.563
		c4.137-7.872,6.322-15.722,6.322-22.702c0-0.705-0.023-1.406-0.072-2.136C198.159,209.657,198.191,207.406,198.131,205.102z
		 M193.428,190.087c-4.297,2.402-8.554,4.94-12.766,7.612c-3.189-2.32-6.388-4.625-9.598-6.914c4.509-2.83,9.05-5.607,13.623-8.333
		c2.787,1.908,5.572,3.82,8.357,5.734C193.181,188.818,193.303,189.453,193.428,190.087z M142.217,210.073
		c3.554,2.387,7.09,4.799,10.609,7.236c-4.245,3.257-8.458,6.606-12.649,10.009l-11.111-7.542
		C133.4,216.474,137.785,213.24,142.217,210.073z M142.079,199.729c-4.454-2.946-8.933-5.855-13.436-8.729
		c4.224-3.386,8.55-6.802,13-10.225c4.741,3.19,9.458,6.419,14.146,9.687C151.177,193.487,146.604,196.576,142.079,199.729z
		 M149.698,204.829c4.495-3.091,9.033-6.119,13.611-9.086c3.251,2.302,6.488,4.622,9.716,6.956c-4.405,2.979-8.748,6.05-13.027,9.21
		C156.582,209.524,153.148,207.165,149.698,204.829z M148.825,175.334c4.015-3.002,8.073-5.95,12.172-8.839
		c5.332,3.509,10.632,7.074,15.921,10.665c-4.501,2.718-8.96,5.484-13.388,8.302C158.655,182.045,153.755,178.671,148.825,175.334z
		 M141.305,170.292c-4.132-2.74-8.289-5.45-12.47-8.132c4.11-2.798,8.249-5.557,12.414-8.275c4.036,2.495,8.05,5.03,12.042,7.602
		C149.257,164.37,145.261,167.305,141.305,170.292z M134.131,175.778c-4.499,3.487-8.868,6.961-13.127,10.391
		c-4.586-2.871-9.191-5.711-13.815-8.517h0c4.628-3.484,9.313-6.892,14.052-10.224C125.563,170.177,129.859,172.963,134.131,175.778
		z M121.645,196.662c4.346,2.753,8.669,5.542,12.971,8.364c-4.38,3.168-8.711,6.4-12.993,9.699l-12.049-8.18h0
		C113.589,203.241,117.613,199.945,121.645,196.662z M114.562,220.246c-2.679,2.134-5.346,4.315-8.006,6.524
		c-4.123-2.604-8.322-5.105-12.626-7.462c2.932-2.36,5.853-4.733,8.766-7.117L114.562,220.246z M121.968,225.271l11.331,7.691
		c-2.655,2.202-5.304,4.417-7.945,6.65c-3.724-2.707-7.49-5.37-11.32-7.954C116.658,229.502,119.302,227.374,121.968,225.271z
		 M140.68,237.971l11.562,7.852c-2.951,2.404-5.911,4.857-8.867,7.335c-3.626-2.78-7.264-5.56-10.943-8.317
		C135.177,242.526,137.926,240.239,140.68,237.971z M147.581,232.345L147.581,232.345c4.19-3.369,8.39-6.674,12.606-9.877
		c3.869,2.741,7.73,5.515,11.59,8.348c-4.12,2.9-8.312,6.08-12.567,9.422L147.581,232.345z M167.384,217.117
		C167.383,217.118,167.383,217.118,167.384,217.117L167.384,217.117C167.383,217.117,167.383,217.117,167.384,217.117
		c4.27-3.111,8.608-6.128,13.011-9.048c4.599,3.375,7.534,5.544,12.091,8.974c-4.615,2.497-8.089,5.594-13.15,8.743
		C175.376,222.862,171.392,219.971,167.384,217.117z M190.709,179.357c0.207,0.676,0.405,1.355,0.602,2.035
		c-0.61-0.372-1.217-0.756-1.828-1.127C189.889,179.959,190.302,179.662,190.709,179.357z M179.557,154.076
		c3.056,5.199,5.823,10.813,8.156,16.69c-0.899,0.526-1.799,1.052-2.694,1.579c-5.457-3.72-10.935-7.422-16.452-11.077
		C172.193,158.815,175.858,156.419,179.557,154.076z M172.936,148.167c-4.074,2.612-8.105,5.29-12.094,8.029
		c-3.865-2.51-7.754-4.992-11.667-7.441v-0.001c3.74-2.394,7.487-4.766,11.238-7.122L172.936,148.167z M154.975,126.124
		c0.006,0.004,0.012,0.009,0.017,0.013l0.14-0.059c2.038,1.388,4.108,3.033,6.18,4.914c-0.102,0.063-0.212,0.133-0.328,0.207
		c0.001,0.001,0.002,0.002,0.003,0.003c-0.319,0.2-0.64,0.399-0.958,0.599l-8.25-4.307L154.975,126.124z M141.113,143.795
		c-3.813-2.313-7.651-4.583-11.514-6.81l12.048-5.156l10.012,5.229C148.132,139.287,144.616,141.534,141.113,143.795z
		 M141.819,121.023C141.819,121.023,141.819,121.023,141.819,121.023l4.427,0.698c-1.587,0.652-3.179,1.294-4.762,1.952
		c-0.874-0.773-1.756-1.538-2.635-2.306L141.819,121.023z M129.444,125.456L129.444,125.456l2.434,1.272l-9.196,3.936
		C124.954,128.632,127.221,126.887,129.444,125.456z M109.606,145.543l0.126-0.054c0,0,0-0.001,0.001-0.001l10.01-4.283
		c4.515,2.529,8.993,5.118,13.434,7.769c-4.086,2.698-8.146,5.438-12.178,8.218c-4.504-2.821-9.034-5.603-13.588-8.343
		c0.008-0.012,0.017-0.023,0.025-0.036c-0.017-0.01-0.034-0.02-0.05-0.03C108.116,147.68,108.855,146.598,109.606,145.543z
		 M102.913,156.1c3.515,2.112,7.013,4.251,10.494,6.412c-4.758,3.391-9.459,6.857-14.101,10.401
		c-1.137-0.678-2.273-1.356-3.416-2.036C97.928,165.716,100.297,160.753,102.913,156.1z M93.449,177.754
		c0.325,0.213,0.651,0.424,0.976,0.638c-0.537,0.416-1.055,0.829-1.588,1.245C93.029,179.004,93.246,178.382,93.449,177.754z
		 M89.978,191.253c3.277-2.719,6.586-5.397,9.94-8.021c4.716,2.842,9.413,5.717,14.089,8.624c-4.022,3.284-7.975,6.532-11.806,9.686
		l-12.512-8.492C89.786,192.45,89.869,191.85,89.978,191.253z M88.506,205.18c0-0.025,0.003-0.053,0.003-0.079l0.077,5.272
		l0.035-7.735l6.7,4.547c-2.283,1.867-4.523,3.682-6.745,5.471l0.007-1.503C88.485,209.219,88.453,207.232,88.506,205.18z
		 M95.16,236.513l-0.63-1.232c-1.349-2.563-2.472-5.153-3.389-7.732c2.881,1.611,5.73,3.279,8.543,5.021
		C98.173,233.868,96.665,235.186,95.16,236.513z M104.958,250.155c-1.849-1.919-3.611-4.011-5.258-6.273
		c2.485-2.202,4.975-4.369,7.476-6.498c3.856,2.568,7.666,5.229,11.445,7.956c-3.345,2.86-6.684,5.732-10.019,8.605
		C107.347,252.723,106.127,251.46,104.958,250.155z M127.151,266.843c-4.176-1.873-8.221-4.337-12.02-7.245
		c3.523-3.032,7.045-6.054,10.568-9.056c3.664,2.729,7.309,5.499,10.954,8.282C133.46,261.522,130.284,264.212,127.151,266.843z
		 M141.819,270.686C141.819,270.686,141.819,270.686,141.819,270.686c-1.711-0.116-3.421-0.362-5.123-0.714
		c2.187-1.85,4.73-4.005,6.903-5.84c2.196,1.683,4.402,3.354,6.611,5.021C147.436,269.958,144.629,270.495,141.819,270.686z
		 M159.48,265.391c-3.064-2.29-6.12-4.591-9.156-6.915c3.075-2.577,6.174-5.125,9.293-7.648l10.741,7.289
		C166.927,260.933,163.274,263.402,159.48,265.391z M178.68,250.155c-0.614,0.685-1.251,1.351-1.892,2.012l-10.146-6.887
		c4.259-3.276,8.449-6.319,12.484-9.013c2.202,1.657,4.391,3.33,6.578,5.005C183.581,244.563,181.214,247.524,178.68,250.155z
		 M189.885,233.72c-0.558-0.426-1.115-0.85-1.673-1.274c-0.474-0.321-0.949-0.638-1.431-0.93h-0.001
		c0.036-0.027,0.072-0.053,0.107-0.08c-0.004-0.003-0.008-0.006-0.012-0.009c0.033-0.02,0.065-0.035,0.099-0.055
		c1.873-1.409,3.761-2.8,5.653-4.184L189.885,233.72z M188.089,203.142L188.089,203.142c2.213-1.37,4.438-2.688,6.667-3.979
		c0.194,2.059,0.326,4.069,0.376,6.018c0.028,1.091,0.033,2.163,0.02,3.221C192.799,206.645,190.452,204.884,188.089,203.142z"/>
	<path d="M121.915,60.661c6.485-9.807,13.394-19.33,20.704-28.539c-0.732-2.708-1.534-5.188-2.461-7.435
		c-3.338-8.098-8.208-14.081-18.334-19.942c0.353,20.935-0.548,32.523-4.274,53.074C119.026,58.749,120.483,59.697,121.915,60.661z"
		/>
	<path d="M141.638,111.854c4.01-0.025,7.997,1.185,11.978,3.279c12.887-10.738,28.935-21.984,44.144-29.376
		c-17.919-3.417-35.031-0.286-53.085,18.004l-3.069,3.108l-3.108-3.068c-18.466-18.229-40.684-18.503-57.67-11.922h0
		c15.688,5.943,33.537,14.492,47.833,23.986C132.962,113.364,137.277,111.882,141.638,111.854z"/>
	<path d="M141.355,77.424c4.796-6.65,12.021-13.711,20.05-20.233l13.56-48.487c-12.958,13.076-30.132,33.186-45.915,57.093
		C133.882,69.535,138.138,73.443,141.355,77.424z"/>
	<path d="M162.242,68.009c-7.945,7.137-14.48,14.595-16.817,19.346l-3.397,6.907c7.339-6.686,14.82-11.256,22.348-14.15
		l23.739-30.34c-0.193,0.097-0.371,0.167-0.565,0.268c-5.318,2.75-11.273,6.66-16.994,11.051
		C167.696,63.286,164.891,65.629,162.242,68.009z"/>
	<path d="M141.235,94.532l-3.622-7.127c-3.012-5.928-14.396-15.907-26.712-23.433c-7.209-4.407-14.772-7.898-21.076-10.173l0,0
		c7.353,9.326,15.392,18.136,23.675,26.821C122.981,82.578,132.483,86.953,141.235,94.532z"/>
</g>
</svg>
