<?xml version="1.0" encoding="utf-8"?>
<!-- Generator: Adobe Illustrator 15.1.0, SVG Export Plug-In . SVG Version: 6.00 Build 0)  -->
<!DOCTYPE svg PUBLIC "-//W3C//DTD SVG 1.1//EN" "http://www.w3.org/Graphics/SVG/1.1/DTD/svg11.dtd">
<svg version="1.1" id="Layer_2" xmlns="http://www.w3.org/2000/svg" xmlns:xlink="http://www.w3.org/1999/xlink" x="0px" y="0px"
	 width="283.465px" height="283.465px" viewBox="0 0 283.465 283.465" enable-background="new 0 0 283.465 283.465"
	 xml:space="preserve">
<g>
	<path d="M141.729,127.613c-3.229,2.338-6.912,3.717-10.768,4.049c-1,5.951-1.549,10.918-1.586,13.25
		c1.24,0.867,2.441,1.727,3.59,2.563c2.734-3.77,5.666-6.039,8.76-6.039c3.096,0,6.025,2.27,8.76,6.035
		c1.818-1.324,3.768-2.703,5.797-4.092c-0.182-2.633-0.691-6.813-1.504-11.648c-0.154,0.003-0.311,0.009-0.467,0.009
		C149.804,131.74,145.464,130.315,141.729,127.613z"/>
	<path d="M132.183,148.604c-7.537-5.479-17.35-11.932-25.615-16.046c-2.555,5.217-7.094,9.171-12.504,11.009
		c1.596,3.322,3.695,7.127,6.275,11.344c7.262,11.865,15.807,22.977,19.055,26.273C122.825,168.648,127.159,156.148,132.183,148.604
		z"/>
	<path d="M176.89,132.551c-8.268,4.115-18.084,10.568-25.621,16.051c5.025,7.543,9.357,20.045,12.789,32.582
		c3.248-3.299,11.793-14.408,19.055-26.273c2.58-4.219,4.68-8.021,6.273-11.348C183.976,141.725,179.438,137.769,176.89,132.551z"/>
	<path d="M248.854,98.316l-0.641-0.371l0.426-0.604c2.43-3.446,3.713-7.471,3.713-11.641c0-3.775-1.084-7.414-3.027-10.547
		c-1.561,0.857-3.291,1.311-5.049,1.311c-0.021,0-0.039,0-0.061,0c-1.578,10.119-9.932,17.68-20.162,18.203
		c-1.98,2.93-5.225,4.668-8.746,4.668c-1.443,0-2.869-0.313-4.242-0.928c-4.043,3.801-9.285,5.889-14.816,5.889
		c-9.48,0-17.881-6.297-20.627-15.381c-0.023,0.002-0.045,0.006-0.068,0.008c-0.453,0.063-0.924,0.127-1.416,0.127
		c-2.613,0-5.209-0.487-7.719-1.449c-3.604,2.447-7.781,3.738-12.105,3.738c-4.508,0-8.846-1.424-12.582-4.123
		c-3.734,2.699-8.074,4.123-12.58,4.123c-4.324,0-8.502-1.293-12.107-3.739c-2.52,0.963-5.111,1.45-7.713,1.45
		c-0.498,0-0.965-0.063-1.416-0.127c-0.025-0.002-0.049-0.006-0.074-0.01c-2.75,9.086-11.15,15.381-20.627,15.381
		c-5.533,0-10.775-2.086-14.818-5.887c-1.367,0.615-2.791,0.926-4.24,0.926c-3.518,0-6.76-1.738-8.746-4.668
		c-10.23-0.522-18.586-8.086-20.166-18.207c-0.021,0-0.043,0-0.064,0c-1.768,0-3.499-0.451-5.051-1.309
		c-1.942,3.135-3.025,6.773-3.025,10.549c0,4.167,1.282,8.193,3.708,11.643l0.425,0.604l-0.639,0.371
		c-2.861,1.66-4.641,4.712-4.641,7.965c0,5.09,4.143,9.23,9.232,9.23c0.07,0,0.155-0.012,0.253-0.025
		c0.118-0.016,0.235-0.031,0.354-0.037l0.621-0.025l0.078,0.617c1.248,9.896,9.373,17.336,19.316,17.69l0.357,0.013l0.191,0.303
		c1.713,2.715,4.627,4.336,7.795,4.336c1.391,0,2.76-0.334,4.07-0.99l0.432-0.217l0.346,0.338c3.83,3.76,8.879,5.828,14.213,5.828
		c9.063,0,17.076-6.147,19.484-14.949l0.15-0.549l0.566,0.055c0.242,0.023,0.482,0.057,0.721,0.089
		c0.412,0.058,0.803,0.111,1.193,0.111c2.545,0,5.086-0.5,7.551-1.487l0.342-0.136l0.301,0.211c3.441,2.421,7.463,3.7,11.629,3.7
		c4.375,0,8.584-1.438,12.172-4.155l0.408-0.31l0.408,0.31c3.588,2.718,7.797,4.155,12.174,4.155c4.164,0,8.186-1.279,11.629-3.7
		l0.301-0.211l0.34,0.137c2.453,0.986,4.996,1.486,7.555,1.486c0.389,0,0.779-0.054,1.193-0.111
		c0.238-0.032,0.479-0.065,0.717-0.088l0.566-0.056l0.15,0.551c2.402,8.802,10.416,14.949,19.484,14.949
		c5.332,0,10.377-2.068,14.209-5.828l0.344-0.338l0.434,0.216c1.316,0.657,2.688,0.991,4.074,0.991c3.172,0,6.086-1.621,7.797-4.336
		l0.189-0.303l0.357-0.013c9.945-0.354,18.066-7.793,19.313-17.688l0.078-0.617l0.621,0.025c0.121,0.004,0.24,0.02,0.359,0.036
		c0.098,0.015,0.182,0.024,0.252,0.024c5.09,0,9.23-4.141,9.23-9.23C253.501,102.978,251.761,100,248.854,98.316z"/>
	<path d="M57.306,47.152l0.424,0.667l-0.725,0.315c-1.262,0.552-2.467,1.195-3.607,1.921c-6.152,3.92-10.4,10.259-11.629,17.591
		l-0.055,0.316l-0.279,0.16c-2.553,1.448-4.801,3.482-6.539,5.91c1.322,0.705,2.788,1.074,4.281,1.074
		c0.08,0,0.169-0.012,0.271-0.025c0.116-0.015,0.231-0.029,0.347-0.033l0.619-0.023l0.078,0.615c1.25,9.9,9.375,17.34,19.316,17.689
		l0.357,0.012l0.191,0.303c1.715,2.715,4.629,4.336,7.797,4.336c1.391,0,2.76-0.333,4.068-0.989l0.434-0.217l0.344,0.338
		c3.832,3.759,8.879,5.829,14.213,5.829c9.064,0,17.078-6.146,19.486-14.95l0.15-0.553l0.57,0.06
		c0.227,0.022,0.453,0.053,0.678,0.084c0.424,0.06,0.826,0.114,1.23,0.114c2.545,0,5.086-0.5,7.551-1.485l0.342-0.137l0.299,0.211
		c3.443,2.42,7.465,3.7,11.629,3.7c4.375,0,8.584-1.435,12.174-4.151l0.408-0.309l0.408,0.309c3.588,2.717,7.797,4.151,12.172,4.151
		c4.166,0,8.188-1.278,11.629-3.7l0.301-0.211l0.342,0.137c2.453,0.986,4.996,1.486,7.555,1.486c0.4,0,0.805-0.056,1.232-0.113
		c0.225-0.031,0.447-0.063,0.672-0.086l0.572-0.059l0.15,0.555c2.402,8.801,10.416,14.949,19.484,14.949
		c5.332,0,10.377-2.07,14.209-5.829l0.344-0.338l0.432,0.215c1.318,0.657,2.689,0.99,4.074,0.99c3.172,0,6.086-1.621,7.797-4.336
		l0.191-0.304l0.357-0.012c9.943-0.351,18.066-7.789,19.313-17.689l0.078-0.616l0.621,0.024c0.121,0.004,0.24,0.021,0.357,0.037
		c0.1,0.014,0.184,0.025,0.252,0.025c1.484,0,2.949-0.37,4.279-1.076c-1.742-2.426-3.99-4.46-6.539-5.91l-0.277-0.158l-0.055-0.317
		c-1.457-8.694-7.152-15.987-15.236-19.511l-0.725-0.314l0.424-0.667c0.943-1.487,1.441-3.185,1.441-4.907
		c0-5.09-4.141-9.231-9.23-9.231c-1.482,0-2.945,0.381-4.35,1.134l-0.486,0.26l-0.354-0.423c-3.271-3.924-7.574-6.774-12.438-8.243
		l-0.42-0.127l-0.057-0.435c-1.293-10.093-9.902-17.703-20.029-17.703c-3.273,0-6.494,0.843-9.568,2.507l-0.314,0.17l-0.316-0.164
		c-3.73-1.928-7.734-2.906-11.898-2.906c-5.836,0-11.363,1.91-15.982,5.523l-0.418,0.326l-0.416-0.326
		c-4.623-3.613-10.15-5.523-15.982-5.523c-1.822,0-3.613,0.188-5.365,0.559c-2.25,0.479-4.434,1.26-6.529,2.343l-0.316,0.164
		l-0.314-0.17c-3.08-1.664-6.303-2.507-9.578-2.507c-2.846,0-5.572,0.602-8.051,1.691c-6.332,2.787-11.041,8.758-11.975,16.012
		l-0.057,0.436l-0.418,0.127c-4.867,1.473-9.168,4.322-12.439,8.244l-0.354,0.423l-0.484-0.26c-1.404-0.752-2.867-1.134-4.35-1.134
		c-5.094,0-9.236,4.142-9.236,9.232C55.86,43.963,56.36,45.66,57.306,47.152z M58.601,74.642c-1.789,0-3.24-1.45-3.24-3.239
		c0-1.79,1.451-3.238,3.24-3.238s3.24,1.449,3.24,3.238S60.39,74.642,58.601,74.642z M90.241,55.578
		c-1.367,0-2.475-1.107-2.475-2.474c0-1.367,1.107-2.474,2.475-2.474s2.475,1.106,2.475,2.474
		C92.714,54.471,91.608,55.578,90.241,55.578z M193.212,55.578c-1.365,0-2.473-1.107-2.473-2.474c0-1.367,1.105-2.474,2.473-2.474
		s2.475,1.106,2.475,2.474C195.685,54.471,194.579,55.578,193.212,55.578z M224.866,74.642c-1.789,0-3.24-1.45-3.24-3.239
		c0-1.79,1.451-3.238,3.24-3.238s3.238,1.449,3.238,3.238S226.655,74.642,224.866,74.642z M221.267,54.453
		c4.521,1.357,7.666,4.209,7.012,6.381c-0.645,2.17-3.984-0.037-8.506-1.395c-4.52-1.346-8.508-1.328-7.859-3.506
		C212.554,53.765,216.745,53.104,221.267,54.453z M214.747,40.342c1.061,0,1.906,0.851,1.906,1.904c0,1.053-0.846,1.906-1.906,1.906
		c-1.049,0-1.893-0.854-1.893-1.906C212.854,41.192,213.702,40.338,214.747,40.342z M200.419,37.387
		c4.217,2.131,6.809,5.484,5.781,7.51c-1.021,2.021-3.912-0.736-8.133-2.867c-4.213-2.123-8.148-2.813-7.121-4.837
		C191.966,35.174,196.206,35.258,200.419,37.387z M190.526,28.142c1.369,0,2.479,1.108,2.479,2.478s-1.109,2.479-2.479,2.479
		c-1.367,0-2.479-1.109-2.479-2.479S189.159,28.142,190.526,28.142z M172.981,14.103c0.965-2.039,5.215-2.034,9.473,0
		c4.25,2.047,6.91,5.354,5.93,7.396c-0.99,2.047-3.934-0.66-8.195-2.705C175.946,16.758,172.001,16.148,172.981,14.103z
		 M173.396,22.42c1.158,0,2.098,0.939,2.098,2.099s-0.938,2.098-2.098,2.098c-1.158,0-2.098-0.938-2.098-2.098
		S172.237,22.42,173.396,22.42z M172.589,31.736c6.355,1.898,10.766,5.907,9.857,8.957c-0.914,3.049-5.605-0.055-11.955-1.954
		c-6.354-1.897-11.977-1.877-11.049-4.926C160.354,30.768,166.241,29.838,172.589,31.736z M151.089,11.366
		c0.633,0,1.146,0.513,1.146,1.146c0,0.634-0.514,1.146-1.146,1.146c-0.631,0-1.145-0.513-1.145-1.146
		C149.944,11.879,150.456,11.366,151.089,11.366z M157.356,17.65c4.715,0.195,8.467,2.178,8.377,4.439
		c-0.09,2.268-3.879,0.961-8.594,0.763c-4.707-0.187-8.574,0.819-8.479-1.447C148.747,19.143,152.646,17.465,157.356,17.65z
		 M147.853,34.244c0.947,0,1.715,0.766,1.715,1.713c0,0.945-0.768,1.713-1.715,1.713c-0.943,0-1.711-0.768-1.711-1.713
		C146.142,35.01,146.909,34.244,147.853,34.244z M137.308,35.957c0,0.945-0.768,1.713-1.713,1.713s-1.713-0.768-1.713-1.713
		c0-0.947,0.768-1.713,1.713-1.713S137.308,35.012,137.308,35.957z M132.382,11.366c0.633,0,1.146,0.513,1.146,1.146
		c0,0.634-0.516,1.146-1.146,1.146c-0.633,0-1.146-0.513-1.146-1.146C131.235,11.879,131.749,11.366,132.382,11.366z M126.097,17.65
		c4.711-0.186,8.609,1.493,8.699,3.755c0.088,2.267-3.777,1.261-8.484,1.447c-4.715,0.198-8.504,1.505-8.592-0.763
		C117.63,19.828,121.382,17.846,126.097,17.65z M124.013,33.813c0.922,3.049-4.699,3.027-11.051,4.926s-11.041,5.003-11.959,1.954
		c-0.904-3.049,3.506-7.058,9.863-8.957C117.212,29.838,123.099,30.768,124.013,33.813z M112.151,24.518
		c0,1.158-0.939,2.098-2.1,2.098c-1.158,0-2.096-0.939-2.096-2.098c0-1.159,0.938-2.098,2.096-2.098
		C111.212,22.42,112.151,23.359,112.151,24.518z M100.999,14.103c4.258-2.034,8.504-2.039,9.48,0
		c0.977,2.046-2.973,2.655-7.215,4.69c-4.262,2.045-7.209,4.752-8.193,2.705C94.097,19.455,96.753,16.149,100.999,14.103z
		 M95.388,30.619c0,1.369-1.109,2.479-2.479,2.479s-2.479-1.109-2.479-2.479s1.109-2.478,2.479-2.478S95.388,29.252,95.388,30.619z
		 M83.034,37.387c4.213-2.129,8.449-2.213,9.473-0.195c1.023,2.025-2.908,2.715-7.121,4.837c-4.217,2.132-7.113,4.89-8.137,2.867
		C76.226,42.871,78.819,39.518,83.034,37.387z M68.7,40.342c1.051,0,1.902,0.853,1.902,1.904c0,1.051-0.852,1.902-1.902,1.902
		c-1.053,0-1.904-0.852-1.904-1.902C66.796,41.194,67.647,40.342,68.7,40.342z M62.187,54.453c4.521-1.349,8.707-0.688,9.35,1.48
		c0.656,2.178-3.336,2.16-7.855,3.506c-4.521,1.357-7.867,3.564-8.508,1.395C54.521,58.662,57.667,55.812,62.187,54.453z"/>
	<path d="M141.726,142.789c-7.639,0-16,17.24-23.539,48.543c-6.439,26.746-10.004,54.271-10.004,63.076
		c0,19.359,16.957,21.969,33.543,21.969c16.588,0,33.543-2.609,33.543-21.969c0-8.805-3.563-36.33-10.004-63.076
		C157.726,160.029,149.366,142.789,141.726,142.789z"/>
</g>
</svg>
