<?xml version="1.0" encoding="utf-8"?>
<!-- Generator: Adobe Illustrator 15.1.0, SVG Export Plug-In . SVG Version: 6.00 Build 0)  -->
<!DOCTYPE svg PUBLIC "-//W3C//DTD SVG 1.1//EN" "http://www.w3.org/Graphics/SVG/1.1/DTD/svg11.dtd">
<svg version="1.1" id="Layer_1" xmlns="http://www.w3.org/2000/svg" xmlns:xlink="http://www.w3.org/1999/xlink" x="0px" y="0px"
	 width="283.465px" height="283.465px" viewBox="0 0 283.465 283.465" enable-background="new 0 0 283.465 283.465"
	 xml:space="preserve">
<g>
	<polygon fill="none" points="149.438,122.575 149.44,122.571 149.438,122.57 	"/>
	<path fill="none" d="M141.776,245.698c-9.563,12.069-24.14,18.991-39.985,18.991c-14.861,0-28.824-6.09-38.322-16.718
		c-9.42-10.484-14.525-23.445-14.377-36.496c0.142-12.62,5.123-24.07,14.011-32.23c28.512-26.005,53.409-55.268,74.362-87.345
		c-4.15,2.786-8.352,5.503-12.575,8.146c-19.035,27.267-41.066,52.391-65.726,74.881c-20.611,18.924-21.818,52.713-0.043,76.949
		c11.014,12.323,26.811,18.656,42.672,18.656c16.594,0,33.258-6.938,44.563-21.205c28.679-36.146,52.431-75.859,70.692-118.084
		c-1.523-1.486-2.977-3.035-4.352-4.648C194.52,169.237,170.765,209.159,141.776,245.698z"/>
	<path fill="none" d="M118.791,136.732c-13.059,21.121-29.803,39.728-49.434,54.935c-6.117,4.748-7.725,13.598-3.141,19.916
		c4.57,6.309,14.346,6.861,20.892,0.713c20.133-18.894,36.715-41.242,48.961-65.988c2.642-5.333,0.767-11.436-3.965-13.732
		C127.365,130.271,121.614,132.177,118.791,136.732z"/>
	<path fill="none" d="M209.479,17.808c1.664-1.298,3.713-1.957,6.092-1.957c2.668,0,5.662,0.871,8.008,2.325
		c0.072,0.046,7.309,4.675,6.574,11.676c-0.168,1.592-0.697,2.976-1.352,4.133c1.094,1.044,2.143,2.127,3.141,3.248
		c1.188-1.771,2.27-4.088,2.568-6.923c1.018-9.669-8.127-15.55-8.617-15.854c-2.756-1.709-6.51-2.986-10.322-2.986
		c-3.051,0-6.141,0.817-8.787,2.884c-2.139,1.667-3.459,3.74-4.289,5.641c1.439,0.326,2.873,0.714,4.297,1.156
		C207.388,19.969,208.243,18.773,209.479,17.808z"/>
	<path fill="none" d="M220.718,34.739c-2.701-2.065-5.611-3.841-8.686-5.295c-7.207-3.392-14.643-4.984-21.795-4.985
		c-0.001,0-0.002,0-0.003,0c-15.922,0-30.458,7.894-38.085,21.401c-9.828,17.506-20.701,34.405-32.558,50.605
		c9.271-5.729,18.938-12.154,28.853-19.369c6.698-4.879,13.016-9.732,18.952-14.563c-0.008,21.334-6.248,42.201-17.956,60.037
		c0.385,0.023,1.152,0.066,2.23,0.077c0.152,0.001,0.313,0.002,0.479,0.002c7.309,0,26.414-1.554,39.354-17.092
		c5.942-7.271,9.607-16.132,10.539-25.476c-0.238,10.896,2.293,21.674,7.352,31.328c3.27,6.172,7.539,11.76,12.639,16.532
		c5.543-12.331,10.648-24.86,15.322-37.588C244.89,69.901,237.179,47.329,220.718,34.739z M233.241,88.845
		c-3.869,10.539-8.09,21.059-12.574,31.355c-2.859-3.318-5.334-6.941-7.391-10.824c-4.703-8.974-7.072-19.069-6.852-29.197
		c0.051-2.354-1.766-4.327-4.117-4.471c-0.09-0.006-0.18-0.008-0.268-0.008c-2.236,0-4.135,1.695-4.359,3.948
		c-0.848,8.506-4.152,16.501-9.557,23.12c-9.367,11.236-22.425,14.422-30.793,15.24c9.469-16.934,14.44-35.948,14.448-55.473
		c0-1.691-0.974-3.232-2.5-3.959c-0.601-0.285-1.243-0.425-1.883-0.425c-0.989,0-1.97,0.334-2.767,0.983
		c-5.849,4.757-12.164,9.609-18.767,14.416c-3.21,2.336-6.466,4.642-9.76,6.908c7.033-10.576,13.677-21.43,19.861-32.443
		c6.779-12.006,19.59-19.174,34.27-19.174h0.003c6.783,0,13.487,1.538,19.921,4.564c2.789,1.32,5.445,2.939,7.896,4.814
		C233.597,50.107,239.843,70.923,233.241,88.845z"/>
	<path d="M234.815,40.736c1.824-2.399,3.609-5.741,4.055-9.968c1.045-9.945-6.213-17.273-10.666-20.037
		c-3.734-2.316-8.338-3.645-12.633-3.645c-4.318,0-8.289,1.317-11.484,3.813c-3.141,2.45-4.943,5.554-5.982,8.281
		c-2.604-0.375-5.229-0.565-7.865-0.565c-0.001,0-0.004,0-0.004,0c-8.863,0-17.507,2.204-24.996,6.373
		c-7.646,4.258-13.933,10.481-18.178,18c-9.683,17.248-20.509,34.075-32.185,50.026c-1.651,2.256-1.475,5.365,0.424,7.419
		c0.416,0.448,0.888,0.817,1.396,1.106c-17.967,25.031-38.517,48.135-61.471,69.07c-11.319,10.391-17.643,24.854-17.822,40.734
		c-0.181,15.986,5.988,31.771,17.37,44.439c11.692,13.084,28.833,20.594,47.019,20.594c19.438,0,37.35-8.537,49.144-23.42
		c29.052-36.617,52.963-76.559,71.4-119.186c0.283-0.016,0.564-0.043,0.846-0.1c1.852-0.371,3.406-1.612,4.182-3.334
		c5.57-12.394,10.777-25.168,15.479-37.969C249.249,74.976,245.862,55.395,234.815,40.736z M206.784,14.353
		c2.646-2.066,5.736-2.884,8.787-2.884c3.813,0,7.566,1.277,10.322,2.986c0.49,0.305,9.635,6.186,8.617,15.854
		c-0.299,2.835-1.383,5.152-2.568,6.923c-0.998-1.121-2.047-2.204-3.141-3.248c0.652-1.158,1.184-2.542,1.352-4.133
		c0.734-7.001-6.502-11.63-6.574-11.676c-2.346-1.455-5.34-2.325-8.008-2.325c-2.379,0-4.428,0.659-6.092,1.957
		c-1.236,0.965-2.092,2.16-2.688,3.342c-1.424-0.442-2.857-0.83-4.297-1.156C203.325,18.094,204.646,16.021,206.784,14.353z
		 M146.354,249.327c-11.306,14.268-27.97,21.205-44.564,21.205c-15.861,0-31.658-6.333-42.67-18.656
		c-21.775-24.236-20.57-58.025,0.043-76.949c24.657-22.49,46.689-47.614,65.725-74.881c4.225-2.644,8.425-5.36,12.574-8.146
		c-20.951,32.077-45.85,61.34-74.361,87.345c-8.889,8.16-13.869,19.61-14.012,32.23c-0.146,13.051,4.959,26.012,14.377,36.496
		c9.498,10.628,23.463,16.718,38.324,16.718c15.846,0,30.42-6.922,39.984-18.991c28.99-36.54,52.745-76.461,70.919-119.104
		c1.375,1.613,2.828,3.162,4.354,4.648C198.784,173.468,175.034,213.181,146.354,249.327z M136.069,146.307
		c-12.246,24.745-28.828,47.096-48.961,65.987c-6.546,6.149-16.321,5.597-20.892-0.713c-4.584-6.318-2.978-15.168,3.141-19.916
		c19.631-15.205,36.375-33.813,49.434-54.934c2.823-4.557,8.574-6.461,13.313-4.159C136.835,134.872,138.71,140.974,136.069,146.307
		z M237.354,90.354c-4.674,12.729-9.779,25.257-15.322,37.588c-5.1-4.773-9.369-10.359-12.639-16.531
		c-5.059-9.654-7.59-20.433-7.352-31.328c-0.932,9.344-4.597,18.205-10.539,25.475c-12.938,15.537-32.045,17.092-39.354,17.092
		c-0.166,0-0.326,0-0.479-0.002c-1.078-0.01-1.847-0.053-2.23-0.077c0,0.001-0.002,0.002-0.003,0.005v-0.005
		c0.001,0,0.002,0,0.003,0c11.708-17.836,17.947-38.702,17.956-60.036c-5.937,4.829-12.254,9.682-18.952,14.561
		c-9.915,7.216-19.583,13.642-28.853,19.369c11.857-16.199,22.73-33.099,32.558-50.604c7.627-13.508,22.163-21.401,38.085-21.401
		c0.001,0,0.002,0,0.003,0c7.152,0.001,14.588,1.594,21.795,4.985c3.072,1.455,5.984,3.229,8.686,5.295
		C237.179,47.329,244.89,69.901,237.354,90.354z"/>
	<path d="M218.054,38.22c-2.449-1.875-5.105-3.494-7.896-4.814c-6.432-3.026-13.137-4.563-19.92-4.564h-0.003
		c-14.679,0-27.489,7.168-34.269,19.174c-6.185,11.014-12.83,21.867-19.862,32.443c3.294-2.267,6.55-4.572,9.76-6.908
		c6.604-4.807,12.918-9.659,18.766-14.416c0.797-0.648,1.777-0.983,2.768-0.983c0.641,0,1.283,0.14,1.883,0.425
		c1.527,0.727,2.5,2.268,2.5,3.959c-0.008,19.523-4.98,38.539-14.447,55.473c8.367-0.817,21.424-4.004,30.791-15.24
		c5.404-6.619,8.709-14.614,9.559-23.12c0.225-2.253,2.123-3.948,4.357-3.948c0.09,0,0.18,0.002,0.27,0.008
		c2.352,0.144,4.168,2.116,4.117,4.471c-0.223,10.127,2.146,20.224,6.852,29.197c2.055,3.883,4.529,7.506,7.389,10.823
		c4.486-10.296,8.707-20.815,12.576-31.354C239.843,70.923,233.597,50.107,218.054,38.22z"/>
</g>
</svg>
