<?xml version="1.0" encoding="utf-8"?>
<!-- Generator: Adobe Illustrator 15.1.0, SVG Export Plug-In . SVG Version: 6.00 Build 0)  -->
<!DOCTYPE svg PUBLIC "-//W3C//DTD SVG 1.1//EN" "http://www.w3.org/Graphics/SVG/1.1/DTD/svg11.dtd">
<svg version="1.1" id="Layer_4" xmlns="http://www.w3.org/2000/svg" xmlns:xlink="http://www.w3.org/1999/xlink" x="0px" y="0px"
	 width="283.465px" height="283.465px" viewBox="0 0 283.465 283.465" enable-background="new 0 0 283.465 283.465"
	 xml:space="preserve">
<g>
	<path d="M203.05,142.867c-3.818-4.475-5.784-10.176-5.533-16.063l0.018-0.469c0.832-28.041-20.195-51.814-47.625-54.875
		c0.098-0.652,0.187-1.307,0.258-1.955c0.045-0.375,0.088-0.75,0.117-1.113l0.135-1.667c0.035-0.544,0.07-1.091,0.084-1.591
		c0.072-1.533,0.05-3.026,0.013-4.465l-0.07-1.373c-0.014-0.287-0.028-0.576-0.055-0.834l-0.104-1.233
		c-0.012-0.146-0.023-0.29-0.041-0.438l-0.063-0.52c-0.287-2.536-0.758-5.068-1.382-7.555c0.724,0.043,1.448,0.07,2.169,0.07
		c9.324,0,18.199-3.521,24.986-9.908c8.142-7.633,12.299-18.393,11.406-29.517l-0.136-1.673l-1.662-0.237
		c-2.647-0.378-5.371-0.463-8.043-0.251c-16.837,1.335-30.125,13.95-33.041,29.827l-0.565-1.133
		c-0.152-0.29-0.312-0.577-0.469-0.865l-0.059-0.104c-0.273-0.514-0.568-1.015-0.863-1.516l-0.271-0.464
		c-0.186-0.318-0.382-0.629-0.58-0.939l-0.215-0.339c-0.15-0.243-0.303-0.485-0.448-0.698l-0.609-0.913
		c-0.147-0.222-0.301-0.438-0.454-0.655l-0.201-0.284c-0.343-0.495-0.703-0.976-1.065-1.456l-0.313-0.417
		c-1.033-1.334-1.986-2.487-2.912-3.523c-1.047-1.171-2.109-2.286-3.158-3.312c-1.077-1.053-2.219-2.094-3.395-3.093
		c-1.156-0.983-2.371-1.947-3.611-2.865c-1.217-0.9-2.514-1.784-3.853-2.628l-1.887-1.19l-8.345,15.201l2.063,0.936
		c1.022,0.464,2.028,0.968,3.076,1.538c1.012,0.554,2.021,1.152,3.008,1.786c0.979,0.622,1.947,1.29,2.876,1.986
		c0.943,0.706,1.871,1.449,2.76,2.207c3.592,3.071,6.69,6.656,9.223,10.676c0.15,0.233,0.291,0.476,0.436,0.72l0.189,0.315
		c0.088,0.146,0.177,0.293,0.259,0.439l0.454,0.816l0.832,1.592l0.757,1.594l0.353,0.829c0.942,2.218,1.719,4.526,2.307,6.866
		l0.115,0.451c0.021,0.08,0.037,0.16,0.055,0.238l0.252,1.135c0.05,0.207,0.087,0.418,0.126,0.625l0.206,1.098
		c0.218,1.367,0.383,2.513,0.486,3.707c0.047,0.437,0.076,0.875,0.105,1.313l0.078,1.465c0.016,0.295,0.02,0.592,0.025,0.902
		c0.015,0.701,0.01,1.41-0.004,2.122c-12.965,0.636-25.149,5.901-34.561,14.993c-10.076,9.732-15.876,22.805-16.334,36.807
		l-0.014,0.492c-0.115,5.877-2.433,11.439-6.519,15.658c-14.126,14.505-22.253,33.639-22.884,53.875
		c-0.674,21.582,7.098,42.135,21.881,57.871c14.784,15.738,34.813,24.775,56.395,25.449c0.853,0.026,1.717,0.041,2.567,0.041
		c21.059,0,41.006-8.078,56.167-22.748c15.194-14.699,23.925-34.435,24.585-55.565C223.19,177.815,216.269,158.209,203.05,142.867z
		 M183.268,11.414c0.257,9.228-3.399,18.042-10.188,24.406c-6.009,5.655-13.861,8.771-22.111,8.771c-0.193,0-0.389-0.01-0.584-0.014
		c-0.764-0.014-1.53-0.048-2.295-0.115c-0.031-1.188,0.009-2.361,0.104-3.521c1.281-15.504,13.66-28.282,29.66-29.551
		C179.649,11.246,181.468,11.254,183.268,11.414z M124.001,110.473c-3.002,7.15-7.469,12.191-10.854,11.363
		c-3.36-0.838-5.222-7.438-3.278-14.969c1.92-7.537,7.787-12.867,12.211-11.645C126.522,96.443,126.98,103.336,124.001,110.473z
		 M107.13,191.041c-2.438,19.635-5.346,37.184-12.203,38.045c-6.736,0.969-15.271-18.151-12.375-41.521
		c2.82-23.396,15.143-38.428,21.308-35.645C110.218,154.692,109.339,171.363,107.13,191.041z"/>
	<path d="M172.224,21.708c0.121-0.099,0.145-0.276,0.053-0.402c-0.093-0.127-0.27-0.158-0.398-0.074
		c-8.643,5.61-16.592,12.239-23.686,19.707c-0.096,1.16-0.136,2.333-0.104,3.521c0.765,0.067,1.531,0.102,2.295,0.115
		C156.698,36.092,164.036,28.397,172.224,21.708z"/>
</g>
</svg>
