<?xml version="1.0" encoding="utf-8"?>
<!-- Generator: Adobe Illustrator 15.1.0, SVG Export Plug-In . SVG Version: 6.00 Build 0)  -->
<!DOCTYPE svg PUBLIC "-//W3C//DTD SVG 1.0//EN" "http://www.w3.org/TR/2001/REC-SVG-20010904/DTD/svg10.dtd">
<svg version="1.0" id="Layer_1" xmlns="http://www.w3.org/2000/svg" xmlns:xlink="http://www.w3.org/1999/xlink" x="0px" y="0px"
	 width="283.465px" height="283.465px" viewBox="0 0 283.465 283.465" enable-background="new 0 0 283.465 283.465"
	 xml:space="preserve">
<path d="M124.918,124.605h-0.396c-18.205,0-35.662,7.229-48.539,20.111c-12.867,12.867-20.096,30.338-20.096,48.543v83.023h171.695
	V193.26c0-18.205-7.229-35.666-20.105-48.543c-12.877-12.868-30.33-20.111-48.535-20.111h-1.129
	c25.058-7.149,43.414-30.225,43.414-57.561c0-33.045-26.81-59.858-59.854-59.858c-33.031,0-59.858,26.813-59.858,59.858
	C81.504,94.38,99.87,117.456,124.918,124.605z M124.245,124.511c-9.023,0.028-17.852,1.84-26.027,5.224
	c-8.26,3.422-15.856,8.453-22.295,14.901c-6.448,6.451-11.479,14.039-14.901,22.295c-3.422,8.255-5.234,17.188-5.234,26.31v83.024
	c0,0.055,0.047,0.111,0.099,0.111h171.695c0.057,0,0.095-0.057,0.095-0.111v-83.024c0-9.121-1.808-18.055-5.233-26.31
	c-3.407-8.256-8.453-15.861-14.893-22.295c-6.457-6.438-14.044-11.479-22.299-14.9c-8.256-3.422-17.188-5.225-26.311-5.225
	c0,0,0,0-0.02,0h-0.434c12.396-3.69,23.129-11.296,30.744-21.368c7.588-10.043,12.086-22.549,12.086-36.099
	c0-16.548-6.711-31.529-17.563-42.383S157.916,7.087,141.372,7.087c-16.539,0-31.529,6.721-42.383,17.574
	C88.136,35.515,81.41,50.496,81.41,67.044c0,13.55,4.5,26.056,12.096,36.099C101.122,113.216,111.848,120.821,124.245,124.511z"/>
</svg>
