<?xml version="1.0" encoding="utf-8"?>
<!-- Generator: Adobe Illustrator 15.1.0, SVG Export Plug-In . SVG Version: 6.00 Build 0)  -->
<!DOCTYPE svg PUBLIC "-//W3C//DTD SVG 1.1//EN" "http://www.w3.org/Graphics/SVG/1.1/DTD/svg11.dtd">
<svg version="1.1" id="Layer_1" xmlns="http://www.w3.org/2000/svg" xmlns:xlink="http://www.w3.org/1999/xlink" x="0px" y="0px"
	 width="283.465px" height="283.465px" viewBox="0 0 283.465 283.465" enable-background="new 0 0 283.465 283.465"
	 xml:space="preserve">
<path d="M242.555,207.201c-0.256-0.661-0.506-1.328-0.779-1.982c-0.098-0.234-0.201-0.47-0.299-0.704
	c-4.221-9.96-10.361-19.142-18.162-26.931c-0.754-0.755-1.527-1.486-2.307-2.21c-7.471-6.937-16.066-12.42-25.338-16.261
	c-0.295-0.124-0.592-0.239-0.889-0.356c-2.119-0.85-4.273-1.617-6.459-2.295c-0.135-0.045-0.271-0.089-0.412-0.132
	c-0.346-0.106-0.695-0.206-1.045-0.307c-0.32-0.093-0.646-0.191-0.971-0.282c-0.193-0.053-0.393-0.106-0.594-0.158
	c-0.477-0.13-0.963-0.259-1.445-0.381c-0.064-0.017-0.131-0.028-0.197-0.047c-6.002-1.494-12.186-2.341-18.459-2.493
	c-0.049-0.004-0.102-0.004-0.152-0.004c-0.547-0.013-1.09-0.024-1.637-0.024c15.367-4.573,28.662-13.998,38.102-26.486
	c9.416-12.448,14.992-27.948,14.992-44.743c0-20.515-8.336-39.081-21.793-52.535C181.258,15.416,162.68,7.087,142.179,7.087
	c-0.149,0-0.297,0.006-0.447,0.006c-0.15-0.002-0.297-0.006-0.447-0.006c-20.501,0-39.08,8.329-52.535,21.782
	C75.298,42.323,66.96,60.892,66.96,81.404c0,16.795,5.578,32.297,14.993,44.743c9.439,12.486,22.736,21.913,38.103,26.486
	c-0.547,0-1.093,0.012-1.639,0.024c-0.049,0-0.103,0-0.152,0.004c-6.282,0.152-12.474,1.001-18.478,2.499
	c-0.06,0.013-0.122,0.029-0.179,0.041c-0.492,0.126-0.983,0.26-1.474,0.392c-0.187,0.049-0.378,0.099-0.564,0.15
	c-0.337,0.092-0.671,0.193-1.008,0.292c-0.338,0.101-0.671,0.191-1.009,0.294c-0.15,0.046-0.305,0.099-0.457,0.145
	c-2.159,0.671-4.289,1.433-6.389,2.271c-0.305,0.125-0.609,0.24-0.916,0.366c-9.264,3.839-17.847,9.313-25.311,16.239
	c-0.791,0.731-1.568,1.472-2.334,2.233c-7.735,7.727-13.842,16.824-18.055,26.696c-0.131,0.311-0.271,0.626-0.403,0.938
	c-0.342,0.823-0.667,1.654-0.982,2.49c-2.443,6.472-4.085,13.251-4.9,20.192v48.477h211.85v-48.477h0.002
	C246.828,220.779,245.107,213.826,242.555,207.201z"/>
</svg>
