<?xml version="1.0" encoding="utf-8"?>
<!-- Generator: Adobe Illustrator 15.1.0, SVG Export Plug-In . SVG Version: 6.00 Build 0)  -->
<!DOCTYPE svg PUBLIC "-//W3C//DTD SVG 1.1//EN" "http://www.w3.org/Graphics/SVG/1.1/DTD/svg11.dtd">
<svg version="1.1" id="Layer_1" xmlns="http://www.w3.org/2000/svg" xmlns:xlink="http://www.w3.org/1999/xlink" x="0px" y="0px"
	 width="283.46px" height="283.46px" viewBox="0 0 283.46 283.46" enable-background="new 0 0 283.46 283.46" xml:space="preserve">
<g>
	<g>
		<g>
			<g>
				<path fill="#231F20" d="M27.407,121.889c-0.525,0-0.656-0.262-0.394-0.655l2.753-3.54c0.263-0.394,0.918-0.656,1.442-0.656
					h46.808c0.524,0,0.655,0.394,0.394,0.787l-2.229,3.409c-0.262,0.394-0.918,0.787-1.311,0.787L27.407,121.889z"/>
			</g>
		</g>
	</g>
	<g>
		<g>
			<g>
				<path fill="#231F20" d="M7.609,133.952c-0.525,0-0.656-0.262-0.394-0.655l2.753-3.54c0.262-0.394,0.917-0.656,1.442-0.656
					h59.788c0.524,0,0.787,0.394,0.655,0.787l-1.049,3.146c-0.131,0.524-0.655,0.787-1.18,0.787L7.609,133.952z"/>
			</g>
		</g>
	</g>
	<g>
		<g>
			<g>
				<path fill="#231F20" d="M39.338,146.014c-0.524,0-0.656-0.393-0.393-0.786l1.835-3.278c0.262-0.393,0.787-0.787,1.311-0.787
					h26.223c0.525,0,0.787,0.394,0.787,0.918l-0.262,3.147c0,0.524-0.525,0.917-0.918,0.917L39.338,146.014z"/>
			</g>
		</g>
	</g>
	<g>
		<g id="CXHf1q_3_">
			<g>
				<g>
					<path fill="#231F20" d="M175.434,119.529c-8.259,2.098-13.898,3.671-22.026,5.769c-1.967,0.524-2.098,0.656-3.803-1.311
						c-1.967-2.229-3.409-3.671-6.162-4.982c-8.26-4.064-16.258-2.885-23.731,1.967c-8.916,5.769-13.505,14.292-13.374,24.912
						c0.131,10.488,7.343,19.143,17.701,20.585c8.916,1.18,16.389-1.967,22.29-8.654c1.18-1.442,2.229-3.015,3.54-4.851
						c-4.721,0-10.621,0-25.305,0c-2.753,0-3.409-1.704-2.491-3.934c1.704-4.064,4.852-10.882,6.687-14.291
						c0.394-0.787,1.312-2.098,3.278-2.098c6.687,0,31.336,0,47.726,0c-0.262,3.54-0.262,7.08-0.786,10.621
						c-1.443,9.44-4.982,18.093-10.752,25.698c-9.44,12.455-21.764,20.191-37.367,22.289c-12.849,1.705-24.781-0.786-35.27-8.653
						c-9.703-7.343-15.209-17.045-16.652-29.107c-1.704-14.291,2.491-27.14,11.145-38.417c9.309-12.193,21.634-19.929,36.712-22.683
						c12.324-2.229,24.125-0.787,34.744,6.425c6.949,4.589,11.932,10.882,15.211,18.487
						C177.533,118.48,177.008,119.136,175.434,119.529z"/>
				</g>
				<g>
					<path fill="#231F20" d="M218.833,192.035c-11.932-0.262-22.813-3.67-31.992-11.537c-7.735-6.687-12.587-15.21-14.161-25.305
						c-2.359-14.816,1.706-27.928,10.621-39.597c9.572-12.587,21.109-19.143,36.712-21.896c13.374-2.36,25.96-1.049,37.367,6.688
						c10.357,7.08,16.783,16.651,18.487,29.238c2.229,17.701-2.884,32.123-15.078,44.448c-8.653,8.784-19.273,14.292-31.467,16.782
						C225.783,191.511,222.243,191.641,218.833,192.035z M250.039,139.065c-0.131-1.705-0.131-3.016-0.394-4.327
						c-2.359-12.98-14.291-20.323-26.748-17.438c-12.193,2.753-20.059,10.489-22.944,22.814c-2.36,10.227,2.622,20.584,12.063,24.78
						c7.211,3.147,14.422,2.754,21.371-0.786C243.745,158.732,249.382,150.341,250.039,139.065z"/>
				</g>
			</g>
		</g>
	</g>
</g>
</svg>
