<?xml version="1.0" encoding="utf-8"?>
<!-- Generator: Adobe Illustrator 15.1.0, SVG Export Plug-In . SVG Version: 6.00 Build 0)  -->
<!DOCTYPE svg PUBLIC "-//W3C//DTD SVG 1.1//EN" "http://www.w3.org/Graphics/SVG/1.1/DTD/svg11.dtd">
<svg version="1.1"
	 id="svg2" xmlns:cc="http://creativecommons.org/ns#" xmlns:rdf="http://www.w3.org/1999/02/22-rdf-syntax-ns#" xmlns:svg="http://www.w3.org/2000/svg" xmlns:dc="http://purl.org/dc/elements/1.1/"
	 xmlns="http://www.w3.org/2000/svg" xmlns:xlink="http://www.w3.org/1999/xlink" x="0px" y="0px" width="283.465px"
	 height="283.465px" viewBox="0 0 283.465 283.465" enable-background="new 0 0 283.465 283.465" xml:space="preserve">
<g id="g8">
	<path id="path10" fill="#231F20" d="M49.314,226.949c-20.9-22.148-33.131-52.744-33.1-89.253
		C16.186,105.411,26.33,77.658,43.77,56.543l-0.028,0.01H7.087v170.4h42.202L49.314,226.949L49.314,226.949L49.314,226.949z"/>
	<path id="path12" fill="#231F20" d="M242.36,226.963c9.005-9.645,17.072-21.002,24.383-33.988l-40.572-20.286
		c-14.248,23.165-35.084,44.485-63.898,44.628c-41.936-0.143-58.412-36-58.321-82.156h156.708c0.207-5.211,0.207-7.635,0-10.143
		c1.021-27.459-6.256-50.541-19.494-68.516l-0.067,0.052h35.28v170.399h-34.094L242.36,226.963L242.36,226.963L242.36,226.963z"/>
	<path id="path14" fill="#231F20" d="M106.486,95.603c1.735-20.896,18.21-34.951,37.529-34.993
		c19.448,0.042,33.501,14.097,33.978,34.993H106.486L106.486,95.603z"/>
</g>
</svg>
