<?xml version="1.0" encoding="utf-8"?>
<!-- Generator: Adobe Illustrator 15.1.0, SVG Export Plug-In . SVG Version: 6.00 Build 0)  -->
<!DOCTYPE svg PUBLIC "-//W3C//DTD SVG 1.1//EN" "http://www.w3.org/Graphics/SVG/1.1/DTD/svg11.dtd">
<svg version="1.1" id="Layer_2" xmlns="http://www.w3.org/2000/svg" xmlns:xlink="http://www.w3.org/1999/xlink" x="0px" y="0px"
	 width="283.465px" height="283.465px" viewBox="0 0 283.465 283.465" enable-background="new 0 0 283.465 283.465"
	 xml:space="preserve">
<g>
	<polygon fill="#231F20" points="68.855,148.359 86.238,148.359 77.459,124.719 	"/>
	<path fill="#231F20" d="M261.52,86.258c-0.002-4.527-0.969-8.529-2.928-11.961c-1.924-3.377-4.805-6.209-8.668-8.445
		c-31.898-18.393-63.826-36.729-95.715-55.141c-8.596-4.963-16.932-4.781-25.463,0.254c-12.697,7.486-76.262,43.904-95.203,54.875
		c-7.801,4.518-11.598,11.428-11.6,20.41c-0.012,36.988,0,73.977-0.012,110.965c0,4.428,0.93,8.354,2.801,11.734
		c0.24,0.434,0.496,0.859,0.77,1.275c1.902,2.92,4.57,5.396,8.031,7.396c18.941,10.971,82.516,47.387,95.209,54.877
		c8.537,5.035,16.871,5.217,25.471,0.252c31.889-18.412,63.818-36.748,95.721-55.143c3.953-2.287,6.875-5.195,8.799-8.674
		c1.869-3.383,2.803-7.307,2.803-11.732C261.533,197.203,261.533,123.246,261.52,86.258z M95.929,173.564l-5.563-14.471H64.9
		l-5.258,14.471H45.997l24.814-63.708h13.602l25.509,63.708H95.929z M162.244,165.264c-2.029,3.188-4.896,5.557-8.605,7.105
		c-3.709,1.551-8.328,2.326-13.862,2.326c-8.055,0-14.24-1.861-18.556-5.586c-4.317-3.721-6.896-9.146-7.735-16.273l12.516-1.217
		c0.753,4.201,2.282,7.287,4.584,9.256c2.304,1.971,5.411,2.955,9.322,2.955c4.142,0,7.265-0.875,9.364-2.629
		c2.102-1.752,3.15-3.803,3.15-6.148c0-1.506-0.441-2.789-1.324-3.848c-0.885-1.057-2.428-1.977-4.629-2.759
		c-1.506-0.521-4.939-1.448-10.299-2.781c-6.896-1.709-11.733-3.809-14.515-6.301c-3.911-3.505-5.867-7.779-5.867-12.82
		c0-3.244,0.919-6.28,2.76-9.104c1.839-2.825,4.49-4.976,7.952-6.454s7.641-2.216,12.538-2.216c7.995,0,14.015,1.753,18.056,5.258
		c4.043,3.506,6.164,8.185,6.367,14.037l-12.863,0.565c-0.551-3.273-1.732-5.627-3.541-7.062c-1.813-1.434-4.527-2.151-8.149-2.151
		c-3.737,0-6.664,0.768-8.778,2.303c-1.362,0.985-2.042,2.303-2.042,3.955c0,1.507,0.637,2.796,1.912,3.868
		c1.622,1.362,5.563,2.781,11.82,4.259c6.257,1.478,10.886,3.006,13.884,4.585c3,1.579,5.346,3.737,7.041,6.475
		c1.695,2.738,2.541,6.121,2.541,10.146C165.285,158.658,164.271,162.078,162.244,165.264z M237.469,173.564h-11.951v-50.149
		l-12.646,50.149h-12.385l-12.604-50.149v50.149h-11.949v-63.708h19.25l11.561,43.458l11.43-43.458h19.295V173.564z"/>
</g>
</svg>
