<?xml version="1.0" encoding="utf-8"?>
<!-- Generator: Adobe Illustrator 15.1.0, SVG Export Plug-In . SVG Version: 6.00 Build 0)  -->
<!DOCTYPE svg PUBLIC "-//W3C//DTD SVG 1.1//EN" "http://www.w3.org/Graphics/SVG/1.1/DTD/svg11.dtd">
<svg version="1.1" id="Layer_3" xmlns="http://www.w3.org/2000/svg" xmlns:xlink="http://www.w3.org/1999/xlink" x="0px" y="0px"
	 width="283.465px" height="283.465px" viewBox="0 0 283.465 283.465" enable-background="new 0 0 283.465 283.465"
	 xml:space="preserve">
<g>
	<path d="M258.711,75.098l0.02-0.011l-0.393-0.678c-0.002-0.003-0.004-0.007-0.008-0.012l-0.383-0.665l-0.02,0.011
		c-1.839-2.971-4.259-5.543-6.908-7.074L152.094,9.554c-5.699-3.291-15.025-3.291-20.725,0L32.443,66.67
		c-5.699,3.29-10.361,11.367-10.361,17.948v114.229c0,3.063,1.018,6.442,2.672,9.521l-0.02,0.01l0.782,1.354l0.02-0.01
		c1.837,2.969,4.257,5.541,6.907,7.07l98.928,57.115c5.698,3.291,15.023,3.291,20.723,0l98.928-57.115
		c2.851-1.645,5.439-4.484,7.316-7.738s3.045-6.918,3.045-10.209V84.617C261.383,81.555,260.366,78.174,258.711,75.098z
		 M141.732,221.5c-43.983,0-79.767-35.783-79.767-79.767s35.783-79.767,79.767-79.767c28.381,0,54.852,15.273,69.077,39.858
		l-34.521,19.977c-7.121-12.306-20.36-19.951-34.557-19.951c-21.992,0-39.883,17.891-39.883,39.885
		c0,21.99,17.891,39.882,39.883,39.882c14.195,0,27.438-7.645,34.559-19.953l34.521,19.977
		C196.586,206.227,170.115,221.5,141.732,221.5z M221.5,146.164h-8.863v8.863h-8.861v-8.863h-8.862v-8.863h8.862v-8.863h8.861v8.863
		h8.863V146.164z M254.734,146.164h-8.861v8.863h-8.863v-8.863h-8.861v-8.863h8.861v-8.863h8.863v8.863h8.861V146.164z"/>
</g>
</svg>
