<?xml version="1.0" encoding="utf-8"?>
<!-- Generator: Adobe Illustrator 15.1.0, SVG Export Plug-In . SVG Version: 6.00 Build 0)  -->
<!DOCTYPE svg PUBLIC "-//W3C//DTD SVG 1.1//EN" "http://www.w3.org/Graphics/SVG/1.1/DTD/svg11.dtd">
<svg version="1.1" id="Layer_3" xmlns="http://www.w3.org/2000/svg" xmlns:xlink="http://www.w3.org/1999/xlink" x="0px" y="0px"
	 width="283.465px" height="283.465px" viewBox="0 0 283.465 283.465" enable-background="new 0 0 283.465 283.465"
	 xml:space="preserve">
<g>
	<path fill="#231F20" d="M121.432,144.271c-1.557-0.513-3.797-0.769-6.723-0.769h-10.626v15.798h11.441
		c1.963,0,3.343-0.073,4.137-0.22c1.399-0.251,2.57-0.669,3.51-1.254c0.94-0.584,1.713-1.436,2.319-2.555
		c0.606-1.117,0.909-2.408,0.909-3.87c0-1.714-0.439-3.203-1.317-4.467C124.207,145.672,122.989,144.783,121.432,144.271z"/>
	<path fill="#231F20" d="M76.705,125.496c-2.435-1.535-5.167-2.304-8.197-2.304c-4.305,0-8.008,1.479-11.111,4.436
		c-3.104,2.957-4.655,7.894-4.655,14.81c0,5.537,1.489,9.899,4.467,13.086c2.978,3.187,6.712,4.779,11.205,4.779
		c4.577,0,8.343-1.608,11.299-4.826c2.957-3.218,4.436-7.784,4.436-13.697c0-3.74-0.632-7.005-1.896-9.795
		C80.987,129.195,79.138,127.032,76.705,125.496z"/>
	<path fill="#231F20" d="M119.818,137.548c1.546-0.459,2.711-1.222,3.495-2.288c0.784-1.065,1.175-2.402,1.175-4.012
		c0-1.525-0.366-2.868-1.097-4.028c-0.731-1.159-1.776-1.953-3.134-2.382c-1.359-0.428-3.688-0.643-6.99-0.643h-9.184v13.885h9.936
		C116.715,138.08,118.647,137.903,119.818,137.548z"/>
	<path fill="#231F20" d="M261.521,86.257c-0.002-4.527-0.969-8.529-2.928-11.961c-1.924-3.377-4.805-6.209-8.668-8.445
		c-31.899-18.394-63.827-36.729-95.717-55.142c-8.596-4.963-16.932-4.781-25.463,0.254c-12.698,7.486-76.264,43.905-95.205,54.876
		c-7.801,4.518-11.599,11.428-11.601,20.41c-0.012,36.988,0,73.978-0.012,110.967c0,4.428,0.93,8.354,2.801,11.734
		c0.241,0.434,0.497,0.859,0.771,1.275c1.902,2.92,4.57,5.396,8.031,7.396c18.941,10.971,82.517,47.388,95.21,54.878
		c8.537,5.034,16.871,5.217,25.471,0.252c31.89-18.412,63.819-36.749,95.723-55.145c3.953-2.287,6.875-5.194,8.799-8.674
		c1.869-3.383,2.804-7.307,2.804-11.731C261.535,197.204,261.535,123.246,261.521,86.257z M44.315,117.049h-6.802v49.367h6.802v4.67
		H31.871v-58.707h12.444V117.049z M87.597,154.316c-1.881,3.679-4.545,6.462-7.993,8.354s-7.167,2.837-11.158,2.837
		c-4.326,0-8.192-1.045-11.598-3.135c-3.406-2.089-5.987-4.941-7.742-8.557c-1.755-3.615-2.633-7.438-2.633-11.472
		c0-7.628,2.048-13.599,6.144-17.913c4.095-4.315,9.382-6.473,15.86-6.473c4.242,0,8.066,1.014,11.472,3.04
		c3.406,2.027,6.002,4.854,7.789,8.479c1.787,3.626,2.68,7.737,2.68,12.334C90.417,146.47,89.477,150.64,87.597,154.316z
		 M131.338,157.404c-0.91,1.85-2.033,3.275-3.371,4.278s-3.014,1.761-5.03,2.272c-2.017,0.512-4.487,0.769-7.413,0.769H98.003
		v-45.951h17.239c3.511,0,6.327,0.466,8.447,1.395c2.121,0.931,3.782,2.362,4.984,4.295c1.201,1.933,1.801,3.955,1.801,6.065
		c0,1.964-0.532,3.813-1.598,5.548c-1.066,1.734-2.676,3.134-4.828,4.2c2.779,0.814,4.916,2.203,6.411,4.168
		c1.493,1.964,2.24,4.283,2.24,6.959C132.7,153.555,132.246,155.555,131.338,157.404z M163.229,150.085
		c0,3.846-0.465,6.822-1.396,8.934c-0.93,2.11-2.402,3.719-4.419,4.827c-2.017,1.107-4.383,1.661-7.099,1.661
		c-4.034,0-7.121-1.159-9.263-3.479c-2.143-2.319-3.171-5.768-3.087-10.344l5.484-0.752c0.146,3.511,0.805,5.914,1.975,7.209
		c1.17,1.296,2.79,1.943,4.858,1.943c1.525,0,2.843-0.35,3.949-1.05c1.107-0.7,1.87-1.651,2.288-2.853
		c0.419-1.202,0.627-3.119,0.627-5.752v-31.657h6.081V150.085z M186.755,142.14h-17.333v-5.673h17.333V142.14z M226.529,161.573
		c-3.313,2.623-7.361,3.934-12.146,3.934c-4.952,0-8.979-1.008-12.083-3.025c-3.103-2.016-5.464-4.936-7.084-8.761
		c-1.619-3.823-2.43-7.93-2.43-12.317c0-4.785,0.915-8.959,2.744-12.521c1.828-3.563,4.429-6.27,7.805-8.118
		c3.374-1.85,7.088-2.774,11.142-2.774c4.598,0,8.464,1.171,11.598,3.51c3.135,2.341,5.318,5.632,6.551,9.874l-5.986,1.41
		c-1.066-3.343-2.612-5.777-4.64-7.303c-2.026-1.525-4.575-2.288-7.647-2.288c-3.531,0-6.483,0.847-8.854,2.539
		c-2.372,1.692-4.038,3.965-4.999,6.817c-0.962,2.852-1.442,5.794-1.442,8.822c0,3.908,0.569,7.319,1.708,10.234
		c1.14,2.915,2.91,5.094,5.313,6.535c2.403,1.442,5.004,2.162,7.805,2.162c3.405,0,6.289-0.981,8.65-2.945s3.96-4.879,4.796-8.745
		l6.081,1.536C232.135,155.143,229.842,158.951,226.529,161.573z M251.594,171.086h-12.444v-4.67h6.802v-49.367h-6.802v-4.67h12.444
		V171.086z"/>
</g>
</svg>
