<?xml version="1.0" encoding="utf-8"?>
<!-- Generator: Adobe Illustrator 15.1.0, SVG Export Plug-In . SVG Version: 6.00 Build 0)  -->
<!DOCTYPE svg PUBLIC "-//W3C//DTD SVG 1.1//EN" "http://www.w3.org/Graphics/SVG/1.1/DTD/svg11.dtd">
<svg version="1.1" id="Layer_1" xmlns="http://www.w3.org/2000/svg" xmlns:xlink="http://www.w3.org/1999/xlink" x="0px" y="0px"
	 width="283.465px" height="283.465px" viewBox="1070.268 1108.267 283.465 283.465"
	 enable-background="new 1070.268 1108.267 283.465 283.465" xml:space="preserve">
<g>
	<path d="M1341.819,1276.671c-1.569-4.755-5.682-8.066-11-8.861c-2.508-0.374-5.38-0.215-8.778,0.486
		c-5.924,1.222-10.319,1.688-13.526,1.777c12.106-20.44,21.95-43.749,27.617-65.69c9.164-35.479,4.268-51.641-1.455-58.952
		c-15.144-19.351-37.238-29.746-63.894-30.064c-14.22-0.174-26.702,2.634-33.215,4.653c-6.063-1.07-12.582-1.667-19.422-1.778
		c-12.822-0.205-24.151,2.591-33.832,8.336c-5.359-1.813-13.96-4.368-23.894-5.998c-23.362-3.835-42.191-0.847-55.963,8.882
		c-16.677,11.78-24.408,32.248-22.979,60.834c0.454,9.076,5.531,36.69,13.525,62.879c4.594,15.054,9.493,27.554,14.561,37.157
		c7.187,13.618,14.877,21.638,23.51,24.518c4.839,1.612,13.63,2.741,22.877-4.96c1.172,1.419,2.736,2.83,4.811,4.14
		c2.636,1.662,5.858,3.021,9.077,3.825c11.6,2.899,22.464,2.175,31.733-1.89c0.057,1.648,0.101,3.224,0.138,4.584
		c0.062,2.206,0.123,4.369,0.204,6.392c0.549,13.679,1.48,24.314,4.237,31.756c0.151,0.409,0.355,1.033,0.569,1.695
		c1.376,4.211,3.676,11.263,9.528,16.784c6.061,5.72,13.391,7.475,20.104,7.475c3.367,0,6.58-0.442,9.397-1.046
		c10.043-2.152,21.45-5.432,29.702-17.181c7.802-11.107,11.594-27.837,12.28-54.196c0.089-0.746,0.171-1.458,0.249-2.136
		l0.164-1.393l1.838,0.161l0.474,0.032c10.229,0.466,22.737-1.703,30.42-5.271
		C1326.948,1300.804,1346.399,1290.535,1341.819,1276.671z M1317.493,1296.409c-6.093,2.828-15.808,4.617-24.227,4.617
		c-4.037,0.001-7.771-0.413-10.672-1.318c-1.374,12.635-4.297,36.19-5.999,46.055c-3.183,18.458-11.408,26.83-30.351,30.891
		c-3.225,0.691-6.156,1.001-8.819,1.001c-18.15,0.001-23.896-14.365-26.249-20.244c-2.872-7.182-3.869-30.75-3.667-54.668
		c-6.548,5.921-14.741,8.98-24.051,8.98c-3.828,0-7.842-0.514-12.009-1.558c-1.195-0.298-11.69-3.116-11.551-9.825
		c0.129-6.141,8.889-7.946,12.187-8.627c11.595-2.387,12.345-3.34,15.947-7.912c0.857-1.098,1.734-2.18,2.628-3.247
		c-0.012-0.136-0.025-0.271-0.036-0.407c-5.199-0.139-10.282-1.526-14.909-4.01c-7.131,7.615-14.042,15.435-20.722,23.448
		c-5.477,6.585-10.741,8.52-15.035,8.52c-1.752,0-3.34-0.321-4.718-0.78c-11.77-3.927-22.957-23.012-33.248-56.727
		c-7.818-25.615-12.772-52.362-13.207-61.057c-1.292-25.843,5.377-44.136,19.821-54.37c12.105-8.576,29.069-11.18,50.416-7.743
		c12.348,1.989,22.444,5.456,26.351,6.91c8.995-6.133,19.858-9.142,32.426-8.939c6.854,0.113,13.148,0.994,18.923,2.43
		c2.742-1.205,16.887-5.489,33.629-5.301c24.352,0.258,44.47,9.653,58.177,27.167c3.399,4.345,5.048,11.457,4.897,21.135
		c-0.136,8.818-1.798,19.637-4.807,31.286c-6.353,24.593-18.128,50.951-32.441,72.756c2.166,1.595,8.761,4.227,27.175,0.427
		c6.202-1.28,9.936-0.152,11.096,3.354C1336.689,1285.43,1324.338,1293.23,1317.493,1296.409z"/>
	<path d="M1286.98,1274.008c-0.546-0.783-1.265-1.681-2.005-2.605c-2.414-3.017-5.723-7.15-8.277-13.343
		c-0.391-0.946-1.632-3.176-3.071-5.754c-7.846-14.07-24.17-43.346-13.618-58.429c4.851-6.934,14.418-9.711,28.486-8.28
		c-1.871-5.558-6.558-15.862-15.215-26.09c-10.045-11.872-27.846-26.116-55.604-26.57c-14.087-0.233-25.649,4.091-34.332,12.846
		c-13.789,13.907-17.475,35.889-18.451,47.65c0.642-0.358,1.33-0.726,2.081-1.106c3.496-1.772,10.505-4.863,18.166-5.656
		c12.778-1.324,21.208,4.376,23.732,16.05c6.739,31.167,0.53,44.963-4.004,55.035c-0.839,1.865-1.632,3.628-2.265,5.329
		l-0.561,1.508c-1.339,3.587-2.574,6.9-3.285,9.833c3.338-0.854,6.116,0.297,7.629,0.924c3.81,1.579,6.985,5.388,8.289,9.941
		c0.208,0.725,0.363,1.464,0.466,2.211c0.114,0.379,0.174,0.78,0.163,1.196c-0.877,31.294,0.358,59.631,2.871,65.914
		c3.895,9.733,9.803,18.248,26.49,14.673v0.001c16.095-3.452,21.819-9.246,24.502-24.802c2.032-11.775,6.032-45.103,6.595-52.222
		C1275.066,1278.074,1282.719,1275.236,1286.98,1274.008z"/>
	<path d="M1166.747,1269.304c-8.281-8.641-12.051-20.61-10.341-32.839c1.841-13.16,1.151-24.78,0.781-31.024
		c-0.1-1.705-0.174-2.944-0.172-3.82c-0.053-2.27-0.563-39.392,20.951-61.119c0.186-0.189,0.383-0.363,0.571-0.549
		c-13.111-4.272-45.739-12.696-65.584,1.377c-12.194,8.648-17.792,24.742-16.638,47.833c0.366,7.302,4.985,33.34,12.889,59.234
		c9.134,29.926,19.495,48.798,28.423,51.776c1.371,0.456,5.538,1.848,11.572-5.408c8.528-10.258,16.539-18.988,20.225-22.937
		C1168.49,1271.032,1167.597,1270.19,1166.747,1269.304z"/>
	<path d="M1324.879,1282.68c-15.483,3.196-26.451,2.759-32.6-1.3c-0.385-0.254-0.735-0.513-1.056-0.773
		c-0.516,0.181-1.049,0.331-1.597,0.484c-3.482,0.978-6.772,1.901-6.343,10.742c0.916,0.747,4.812,1.962,12.461,1.604
		c6.927-0.326,14.218-1.844,18.575-3.865c5.066-2.354,8.64-4.974,10.729-6.926L1324.879,1282.68z"/>
	<path d="M1206.948,1292.087c1.139-1.596,0.791-3.645,0.481-4.725c-0.655-2.287-2.27-4.365-3.927-5.051
		c-2.046-0.849-3.174-1.317-5.64,1.444l-0.002,0.002c-1.656,1.849-2.852,3.367-3.906,4.707c-4.6,5.841-6.707,7.823-20.348,10.63
		c-2.819,0.581-4.444,1.166-5.357,1.596c1.093,0.746,2.957,1.645,5.029,2.162C1183.335,1305.37,1197.339,1305.543,1206.948,1292.087
		z"/>
	<path d="M1278.588,1154.114c12.007,13.977,17.898,29.419,18.384,34.58c0.075,0.792,0.018,1.458-0.125,2.023
		c0.19,5.381-0.5,9.945-1.178,14.356c-0.553,3.58-1.123,7.282-1.26,11.598c-0.134,4.073,0.389,8.408,0.94,12.998
		c1.344,11.185,2.854,23.801-4.867,36.552l0.378,0.473c0.304,0.379,0.606,0.76,0.906,1.142
		c29.878-47.017,40.199-101.517,30.826-113.494c-12.22-15.616-29.479-23.778-51.3-24.26c-8.612-0.191-16.305,0.896-21.93,2.062
		C1262.442,1137.913,1272.02,1146.469,1278.588,1154.114z"/>
	<path d="M1288.219,1203.925c0.544-3.535,1.058-6.921,1.12-10.651c-14.888-1.849-20.818,1.584-23.155,4.922
		c-7.846,11.215,7.48,38.701,14.025,50.438c1.683,3.015,2.897,5.194,3.457,6.549c0.58,1.406,1.246,2.775,1.994,4.101
		c4.501-9.579,3.338-19.287,2.205-28.717c-0.561-4.669-1.141-9.497-0.99-14.14
		C1287.028,1211.657,1287.633,1207.726,1288.219,1203.925z M1280.72,1201.741c-0.726,0.762-2.254,2.084-4.336,2.373
		c-0.269,0.038-0.534,0.055-0.798,0.055c-3.119,0-5.755-2.491-5.96-3.951c-0.256-1.877,2.807-3.303,5.965-3.742
		c3.162-0.44,6.495,0.094,6.757,1.967C1282.465,1199.284,1281.824,1200.579,1280.72,1201.741z"/>
	<path d="M1194.98,1261.958l0.559-1.5c0.72-1.938,1.563-3.813,2.457-5.797c4.333-9.627,9.725-21.606,3.51-50.349
		c-1.201-5.552-4.089-8.78-8.829-9.865c-10.387-2.38-24.952,5.424-28.095,8.211c0.028,0.629,0.076,1.427,0.13,2.337
		c0.386,6.505,1.103,18.612-0.841,32.514c-1.388,9.929,1.644,19.616,8.318,26.581v-0.001c5.249,5.479,12.151,8.51,19.247,8.53
		C1192.252,1269.272,1193.567,1265.748,1194.98,1261.958z M1185.201,1203.895c-0.487-0.645-1.279-1.894-1.121-3.024
		c0.059-0.426,0.278-1.046,0.984-1.581c1.256-0.951,3.738-1.304,6.479-0.922v0.001c3.364,0.467,6.832,2.06,6.5,4.449
		c-0.266,1.908-3.284,4.492-6.603,4.492c-0.286,0-0.573-0.019-0.861-0.06C1188.588,1206.974,1186.577,1205.72,1185.201,1203.895z"/>
</g>
</svg>
