<?xml version="1.0" encoding="utf-8"?>
<!-- Generator: Adobe Illustrator 15.1.0, SVG Export Plug-In . SVG Version: 6.00 Build 0)  -->
<!DOCTYPE svg PUBLIC "-//W3C//DTD SVG 1.1//EN" "http://www.w3.org/Graphics/SVG/1.1/DTD/svg11.dtd">
<svg version="1.1" id="Layer_1" xmlns="http://www.w3.org/2000/svg" xmlns:xlink="http://www.w3.org/1999/xlink" x="0px" y="0px"
	 width="283.46px" height="283.46px" viewBox="0 0 283.46 283.46" enable-background="new 0 0 283.46 283.46" xml:space="preserve">
<g>
	<path fill="#231F20" d="M7.084,7.084v269.291h269.291V7.084H7.084z M153.737,217.119c0,26.202-15.362,38.129-37.786,38.129
		c-20.261,0-31.994-10.485-37.961-23.115l20.599-12.471c3.976,7.054,7.591,13.016,16.285,13.016c8.314,0,13.559-3.253,13.559-15.9
		v-86.045h25.305V217.119z M213.529,255.293c-23.502,0-38.685-11.198-46.113-25.877l20.564-11.947
		c5.424,8.856,12.481,15.366,24.962,15.366c10.485,0,17.184-5.24,17.184-12.48c0-8.679-6.882-11.751-18.423-16.8l-6.325-2.714
		c-18.261-7.779-30.393-17.525-30.393-38.128c0-18.979,14.461-33.426,37.06-33.426c16.09,0,27.655,5.599,35.991,20.261
		L228.331,162.2c-4.339-7.779-9.019-10.844-16.286-10.844c-7.411,0-12.109,4.702-12.109,10.844c0,7.592,4.702,10.665,15.56,15.367
		l6.326,2.71c21.5,9.22,33.64,18.619,33.64,39.753C255.46,242.812,237.564,255.293,213.529,255.293z"/>
</g>
</svg>
