<?xml version="1.0" encoding="utf-8"?>
<!-- Generator: Adobe Illustrator 15.1.0, SVG Export Plug-In . SVG Version: 6.00 Build 0)  -->
<!DOCTYPE svg PUBLIC "-//W3C//DTD SVG 1.1//EN" "http://www.w3.org/Graphics/SVG/1.1/DTD/svg11.dtd">
<svg version="1.1" id="Layer_5" xmlns="http://www.w3.org/2000/svg" xmlns:xlink="http://www.w3.org/1999/xlink" x="0px" y="0px"
	 width="283.465px" height="283.465px" viewBox="0 0 283.465 283.465" enable-background="new 0 0 283.465 283.465"
	 xml:space="preserve">
<g>
	<path fill="#231F20" d="M86.79,122.379l-36.545-21.024c-0.615-0.365-1.31-0.553-2.01-0.58h-0.376
		c-0.703,0.026-1.392,0.215-2.019,0.58L9.299,122.379c-1.362,0.794-2.212,2.25-2.212,3.839l0.082,56.631
		c0,0.786,0.406,1.519,1.095,1.909c0.673,0.412,1.518,0.412,2.191,0l21.725-12.44c1.371-0.817,2.209-2.259,2.209-3.83v-26.458
		c0-1.58,0.836-3.036,2.204-3.822l9.248-5.324c0.686-0.397,1.441-0.597,2.21-0.597c0.756,0,1.526,0.197,2.194,0.594l9.246,5.324
		c1.367,0.786,2.206,2.242,2.206,3.825v26.455c0,1.567,0.851,3.019,2.215,3.83l21.711,12.432c0.682,0.403,1.529,0.403,2.209,0
		c0.671-0.388,1.094-1.124,1.094-1.906l0.071-56.625C88.997,124.627,88.161,123.168,86.79,122.379z"/>
	<path fill="#231F20" d="M268.693,86.062l-73.237-42.323c-4.602-2.624-10.761-2.624-15.403,0l-73.332,42.305
		c-4.748,2.712-7.684,7.849-7.684,13.35v84.536c0,5.483,2.936,10.619,7.684,13.373l19.222,11.072
		c5.207,2.563,8.522,3.669,11.193,4.166c2.107,0.395,3.824,0.418,5.692,0.418c13.773,0,21.692-8.343,21.692-22.869v-83.471
		c0-1.194-0.956-2.109-2.109-2.109h-9.278c-1.191,0-2.13,0.915-2.13,2.109v83.436c0,6.454-6.654,12.873-17.548,7.425l-20.063-11.591
		c-0.694-0.383-1.136-1.153-1.136-1.959V99.394c0-0.809,0.453-1.594,1.165-2l73.215-42.25c0.683-0.406,1.576-0.406,2.256,0
		l73.229,42.25c0.694,0.424,1.136,1.171,1.136,2.018v84.536c0,0.806-0.441,1.595-1.118,1.977l-73.262,42.291
		c-0.627,0.364-1.592,0.364-2.271,0l-18.786-11.149c-0.56-0.335-1.271-0.447-1.818-0.13c-5.201,2.948-6.189,3.336-11.061,5.043
		c-0.279,0.097-0.587,0.212-0.854,0.355c-0.882,0.471-1.284,1.256,1.522,2.827l24.454,14.479c2.354,1.354,5.007,2.053,7.687,2.053
		l-0.015-0.035c2.713,0,5.372-0.7,7.72-2.053l73.237-42.303c4.736-2.754,7.685-7.872,7.685-13.355V99.412
		C276.378,93.911,273.424,88.795,268.693,86.062z"/>
	<path fill="#231F20" d="M210.379,183.441l-0.108,0.088c23.216,0,36.53-9.148,36.53-25.099c0-15.828-10.689-20.043-33.212-23.035
		c-22.734-3.006-25.046-4.566-25.046-9.902c0-4.401,1.965-10.267,18.815-10.267c15.053,0,20.592,3.245,22.887,13.385
		c0.2,0.953,1.064,1.65,2.054,1.65h9.52c0.588,0,1.152-0.256,1.559-0.68c0.4-0.436,0.618-1.03,0.564-1.63
		c-1.465-17.498-13.091-25.64-36.548-25.64c-20.887,0-33.354,8.802-33.354,23.581c0,16.047,12.396,20.47,32.456,22.446
		c23.99,2.348,25.855,5.854,25.855,10.567c0,8.184-6.566,11.673-22.005,11.673c-19.38,0-23.64-4.86-25.066-14.503
		c-0.162-1.036-1.044-1.795-2.092-1.795h-9.461c-1.177,0-2.123,0.93-2.123,2.106C171.604,168.732,178.323,183.441,210.379,183.441z"
		/>
</g>
</svg>
