<?xml version="1.0" encoding="utf-8"?>
<!-- Generator: Adobe Illustrator 15.1.0, SVG Export Plug-In . SVG Version: 6.00 Build 0)  -->
<!DOCTYPE svg PUBLIC "-//W3C//DTD SVG 1.1//EN" "http://www.w3.org/Graphics/SVG/1.1/DTD/svg11.dtd">
<svg version="1.1" xmlns="http://www.w3.org/2000/svg" xmlns:xlink="http://www.w3.org/1999/xlink" x="0px" y="0px"
	 width="283.46px" height="283.46px" viewBox="0 0 283.46 283.46" enable-background="new 0 0 283.46 283.46" xml:space="preserve">
<g id="Layer_1">
	<circle fill="#231F20" cx="141.73" cy="141.73" r="134.645"/>
</g>
<g id="Layer_2">
	<g>
		<path fill="#FFFFFF" d="M156.183,68.09c8.259,0.464,15.249,3.441,20.991,8.947c5.73,5.506,8.603,12.388,8.603,20.647v14.453
			h-29.594V97.684h-28.905v88.093h28.905v-14.453h29.594v14.453c0,8.259-2.872,15.141-8.603,20.646
			c-5.742,5.506-12.732,8.498-20.991,8.947h-28.905c-8.259-0.449-15.261-3.441-20.991-8.947c-5.742-5.506-8.603-12.388-8.603-20.646
			V97.684c0-8.259,2.86-15.141,8.603-20.647c5.73-5.505,12.732-8.483,20.991-8.947H156.183z"/>
	</g>
</g>
</svg>
