<?xml version="1.0" encoding="utf-8"?>
<!-- Generator: Adobe Illustrator 15.1.0, SVG Export Plug-In . SVG Version: 6.00 Build 0)  -->
<!DOCTYPE svg PUBLIC "-//W3C//DTD SVG 1.1//EN" "http://www.w3.org/Graphics/SVG/1.1/DTD/svg11.dtd">
<svg version="1.1" id="Layer_3" xmlns="http://www.w3.org/2000/svg" xmlns:xlink="http://www.w3.org/1999/xlink" x="0px" y="0px"
	 width="283.46px" height="283.46px" viewBox="0 0 283.46 283.46" enable-background="new 0 0 283.46 283.46" xml:space="preserve">
<g>
	<path fill="#FFFFFF" d="M219.392,61.805c0.078,0.077,0.156,0.146,0.236,0.226l-46.045-46.046l45.922,45.923
		C219.466,61.869,219.431,61.842,219.392,61.805z"/>
	<path fill="#231F20" d="M274.578,116.979l-0.041-0.042l-54.908-54.906c-0.08-0.079-0.158-0.148-0.236-0.226
		c0.039,0.037,0.074,0.063,0.113,0.103l-45.922-45.923c-4.014-4.035-12.402-8.862-19.482-8.862c-6.09,0-12.064,1.227-15.941,3.541
		l-85.01,42.505h-0.021l-42.505,88.551c-1.522,3.223-3.539,8.823-3.539,12.4c0,7.736,3.401,15.646,8.86,21.264l45.533,45.529
		l0.085-0.015c-0.022-0.024-0.039-0.045-0.061-0.069c0.268,0.287,0.487,0.545,0.773,0.844l1.131,1.131l0.405,0.407l5.319,5.318
		l46.047,46.047l1.762,1.762h111.553v-47.74l0.057-0.006v-0.063h47.828v-0.12V118.716L274.578,116.979z M139.53,13.404
		c0.067-0.035,0.135-0.07,0.2-0.109c3.26-1.946,8.633-3.108,14.371-3.108c5.803,0,13.504,4.131,17.316,7.965l32.428,32.427
		c-1.701-0.23-3.445-0.353-5.258-0.411l-0.313-0.008l-0.254-0.006c-0.961-0.025-1.941-0.04-3.018-0.046
		c-0.021,0-0.156-0.002-0.178-0.002h-1.758H66.125L139.53,13.404z M225.429,273.275H118.207l-0.865-0.865l-46.047-46.047
		l-5.314-5.315l-0.41-0.41l-1.084-1.083c-3.485-3.638-5.465-6.249-6.646-8.804l-0.061-0.152c-1.128-3.021-1.568-6.935-1.568-13.952
		V60.584l168.33,168.333l0.225,0.225l0.662,0.661V273.275z"/>
</g>
</svg>
