<?xml version="1.0" encoding="utf-8"?>
<!-- Generator: Adobe Illustrator 15.1.0, SVG Export Plug-In . SVG Version: 6.00 Build 0)  -->
<!DOCTYPE svg PUBLIC "-//W3C//DTD SVG 1.1//EN" "http://www.w3.org/Graphics/SVG/1.1/DTD/svg11.dtd">
<svg version="1.1"
	 id="Layer_1" xmlns:cc="http://creativecommons.org/ns#" xmlns:dc="http://purl.org/dc/elements/1.1/" xmlns:rdf="http://www.w3.org/1999/02/22-rdf-syntax-ns#"
	 xmlns="http://www.w3.org/2000/svg" xmlns:xlink="http://www.w3.org/1999/xlink" x="0px" y="0px" width="283.465px"
	 height="283.464px" viewBox="0 0 283.465 283.464" enable-background="new 0 0 283.465 283.464" xml:space="preserve">
<g>
	<path fill="none" d="M142.37,30.593c0.311-0.044,0.617-0.078,0.925-0.114C142.987,30.516,142.681,30.55,142.37,30.593z"/>
	<path fill="none" d="M148.224,30.305c0.336,0.017,0.674,0.043,1.012,0.07C148.897,30.349,148.56,30.321,148.224,30.305z"/>
	<path fill="none" d="M146.795,30.261c-0.131,0-0.264,0.012-0.396,0.013c0.324-0.004,0.646-0.001,0.969,0.005
		C147.177,30.273,146.985,30.261,146.795,30.261z"/>
	<path fill="none" d="M144.412,30.368c0.305-0.024,0.604-0.04,0.907-0.055C145.019,30.328,144.715,30.343,144.412,30.368z"/>
	<path fill="none" d="M150.086,30.455c0.347,0.038,0.692,0.089,1.043,0.141C150.782,30.544,150.433,30.495,150.086,30.455z"/>
	<path fill="none" d="M151.978,30.726c0.359,0.063,0.729,0.136,1.094,0.21C152.705,30.861,152.337,30.787,151.978,30.726z"/>
	<path fill="none" d="M160.328,32.979c0.776,0.266,1.578,0.551,2.409,0.856C161.906,33.529,161.104,33.248,160.328,32.979z"/>
	<path fill="none" d="M155.948,31.619c0.422,0.115,0.859,0.247,1.3,0.377C156.81,31.865,156.37,31.732,155.948,31.619z"/>
	<path fill="none" d="M153.923,31.112c0.387,0.087,0.78,0.189,1.176,0.289C154.703,31.301,154.31,31.2,153.923,31.112z"/>
	<path fill="none" d="M158.074,32.24c0.499,0.158,1.022,0.33,1.546,0.506C159.099,32.572,158.576,32.397,158.074,32.24z"/>
	<path fill="none" d="M130.361,33.757c0.292-0.099,0.564-0.187,0.851-0.281C130.926,33.572,130.654,33.659,130.361,33.757z"/>
	<path fill="none" d="M135.644,32.085c0.342-0.098,0.666-0.182,1-0.271C136.312,31.903,135.986,31.987,135.644,32.085z"/>
	<path fill="none" d="M133.104,32.852c0.337-0.106,0.652-0.197,0.98-0.298C133.757,32.653,133.441,32.747,133.104,32.852z"/>
	<path fill="none" d="M140.251,30.957c0.321-0.064,0.634-0.116,0.95-0.172C140.885,30.839,140.572,30.893,140.251,30.957z"/>
	<path fill="none" d="M138.017,31.453c0.332-0.081,0.651-0.149,0.974-0.223C138.669,31.304,138.349,31.373,138.017,31.453z"/>
	<g>
		<path d="M157.604,222.1c-0.308,0.147-0.599,0.272-0.9,0.413C157.007,222.375,157.298,222.248,157.604,222.1z"/>
	</g>
	<g>
		<path d="M154.864,223.349c-0.352,0.156-0.69,0.287-1.037,0.428C154.174,223.634,154.513,223.503,154.864,223.349z"/>
	</g>
	<g>
		<path d="M152.261,224.406c-0.359,0.137-0.712,0.254-1.063,0.379C151.549,224.66,151.899,224.542,152.261,224.406z"/>
	</g>
	<g>
		<path d="M215.013,201.5c-21.976,9.444-44.695,19.209-52.39,23.22c-8.981,4.683-15.927,6.771-22.52,6.771
			c-5.471,0-10.865-1.41-17.482-4.576c-5.74-2.742-27.293-11.679-48.136-20.322c-23.125-9.588-47.04-19.506-54.268-22.957
			c-3.144-1.502-6.175-3.131-8.535-5.023v18.486c0,2.626,3.622,5.404,10.512,8.697c13.784,6.591,90.309,37.498,102.404,43.281
			c12.09,5.78,20.592,5.859,35.903-2.125c15.311-7.979,87.219-37.547,101.1-44.781c7.065-3.684,10.188-6.533,10.188-9.135
			c0-1.508,0.003-11.082,0.003-18.158c-2.252,1.865-5.11,3.519-8.065,5.061C256.804,183.542,236.502,192.267,215.013,201.5z"/>
	</g>
	<g>
		<path d="M138.789,226.856c-0.37-0.021-0.737-0.042-1.107-0.078C138.048,226.811,138.418,226.835,138.789,226.856z"/>
	</g>
	<g>
		<path d="M136.808,226.685c-0.369-0.046-0.736-0.102-1.104-0.161C136.071,226.583,136.44,226.639,136.808,226.685z"/>
	</g>
	<g>
		<path d="M134.838,226.373c-0.373-0.072-0.747-0.16-1.12-0.246C134.091,226.212,134.466,226.3,134.838,226.373z"/>
	</g>
	<g>
		<path d="M132.859,225.917c-0.384-0.103-0.769-0.219-1.156-0.334C132.09,225.703,132.477,225.816,132.859,225.917z"/>
	</g>
	<g>
		<path d="M140.106,226.902c0.188,0,0.379-0.02,0.57-0.023c-0.34,0.008-0.679,0.014-1.015,0.008
			C139.809,226.888,139.957,226.902,140.106,226.902z"/>
	</g>
	<g>
		<path d="M130.86,225.328c-0.407-0.133-0.816-0.281-1.228-0.428C130.043,225.044,130.457,225.195,130.86,225.328z"/>
	</g>
	<g>
		<path d="M126.74,223.751c-0.704-0.306-1.417-0.629-2.143-0.979C125.323,223.123,126.037,223.445,126.74,223.751z"/>
	</g>
	<g>
		<path d="M128.823,224.604c-0.454-0.175-0.918-0.369-1.38-0.563C127.905,224.235,128.369,224.429,128.823,224.604z"/>
	</g>
	<g>
		<path d="M142.856,226.748c-0.33,0.031-0.657,0.063-0.985,0.084C142.2,226.809,142.526,226.779,142.856,226.748z"/>
	</g>
	<g>
		<path d="M149.774,225.27c-0.354,0.11-0.705,0.211-1.055,0.312C149.069,225.479,149.419,225.38,149.774,225.27z"/>
	</g>
	<g>
		<path d="M147.392,225.944c-0.352,0.089-0.693,0.162-1.035,0.237C146.696,226.108,147.043,226.033,147.392,225.944z"/>
	</g>
	<g>
		<path d="M145.091,226.434c-0.342,0.062-0.677,0.114-1.012,0.16C144.414,226.55,144.752,226.496,145.091,226.434z"/>
	</g>
	<path d="M263.464,163.492l-0.184,0.094c-7.27,3.723-27.193,12.285-48.289,21.352c-21.963,9.439-44.678,19.2-52.369,23.211
		c-8.98,4.682-15.926,6.77-22.516,6.77c-5.474,0-10.868-1.412-17.488-4.576c-5.735-2.742-27.277-11.674-48.109-20.313
		c-23.136-9.59-47.061-19.513-54.292-22.967l-0.035-0.018l-0.036-0.02l-0.012-0.007c-1.155-0.554-2.293-1.125-3.39-1.72
		c-3.435,1.84-5.138,3.634-5.062,5.51c0.108,2.618,3.625,5.396,10.513,8.688c13.785,6.586,90.307,37.502,102.402,43.28
		c0.729,0.349,1.439,0.671,2.144,0.979c0.236,0.102,0.469,0.19,0.702,0.287c0.463,0.193,0.926,0.389,1.38,0.563
		c0.273,0.104,0.541,0.195,0.813,0.294c0.41,0.147,0.821,0.296,1.225,0.429c0.283,0.094,0.564,0.172,0.845,0.258
		c0.387,0.117,0.772,0.23,1.156,0.334c0.287,0.076,0.572,0.141,0.857,0.207c0.376,0.088,0.748,0.174,1.122,0.246
		c0.288,0.059,0.578,0.105,0.868,0.152c0.367,0.061,0.733,0.115,1.102,0.161c0.29,0.035,0.581,0.065,0.872,0.093
		c0.37,0.035,0.737,0.059,1.109,0.078c0.288,0.016,0.579,0.025,0.872,0.031c0.336,0.006,0.676,0,1.014-0.008
		c0.399-0.008,0.797-0.023,1.198-0.051c0.328-0.021,0.656-0.049,0.986-0.082c0.404-0.041,0.813-0.094,1.222-0.151
		c0.336-0.046,0.67-0.099,1.013-0.159c0.416-0.072,0.842-0.161,1.264-0.254c0.345-0.074,0.686-0.148,1.035-0.237
		c0.438-0.108,0.881-0.233,1.328-0.36c0.35-0.103,0.699-0.2,1.057-0.313c0.467-0.149,0.943-0.315,1.422-0.485
		c0.354-0.123,0.703-0.24,1.063-0.377c0.512-0.193,1.041-0.412,1.565-0.629c0.346-0.143,0.685-0.272,1.039-0.426
		c0.599-0.26,1.219-0.547,1.84-0.838c0.302-0.141,0.595-0.266,0.901-0.413c0.938-0.451,1.902-0.933,2.896-1.45
		c15.309-7.979,87.219-37.549,101.098-44.781c6.735-3.511,10.051-6.275,10.164-8.763c0.086-1.868-1.672-3.575-5.154-5.319
		c-0.947,0.543-1.918,1.071-2.906,1.588L263.464,163.492z"/>
	<path d="M263.72,137.063c-6.912,3.607-27.205,12.324-48.688,21.556c-21.983,9.445-44.715,19.213-52.41,23.228
		c-8.979,4.681-15.926,6.771-22.516,6.771c-5.473,0-10.866-1.412-17.488-4.576c-5.739-2.742-27.293-11.681-48.136-20.322
		c-23.127-9.588-47.037-19.506-54.265-22.958c-3.144-1.503-6.175-3.13-8.535-5.024v18.489c0,2.618,3.6,5.384,10.446,8.662
		c0.025,0.011,0.043,0.021,0.065,0.03c13.784,6.59,90.309,37.5,102.404,43.281c0.726,0.348,1.437,0.672,2.139,0.979
		c0.247,0.104,0.486,0.197,0.728,0.299c0.454,0.189,0.911,0.38,1.355,0.552c0.281,0.108,0.556,0.202,0.833,0.302
		c0.402,0.146,0.803,0.291,1.201,0.42c0.29,0.098,0.576,0.179,0.866,0.267c0.38,0.112,0.757,0.226,1.133,0.327
		c0.292,0.076,0.584,0.145,0.877,0.212c0.367,0.087,0.735,0.17,1.101,0.241c0.294,0.058,0.588,0.106,0.882,0.154
		c0.361,0.062,0.726,0.114,1.088,0.16c0.294,0.036,0.59,0.067,0.886,0.096c0.361,0.033,0.727,0.059,1.091,0.074
		c0.294,0.018,0.591,0.029,0.889,0.033c0.332,0.006,0.666,0,0.997-0.007c-0.185,0.004-0.376,0.022-0.561,0.022
		c5.911,0,12.168-1.959,20.396-6.248c15.176-7.912,85.931-37.02,100.688-44.576c0.131-0.066,0.289-0.146,0.412-0.209
		c7.065-3.684,10.188-6.534,10.188-9.133c0-1.512,0.003-11.084,0.003-18.16C269.541,133.867,266.683,135.519,263.72,137.063z
		 M141.88,210.253c0.322-0.021,0.645-0.049,0.969-0.082C142.524,210.205,142.202,210.235,141.88,210.253z M144.092,210.019
		c0.328-0.048,0.657-0.098,0.988-0.156C144.749,209.921,144.42,209.971,144.092,210.019z M146.374,209.604
		c0.334-0.072,0.666-0.147,1.005-0.229C147.043,209.457,146.708,209.532,146.374,209.604z M148.745,209
		c0.337-0.097,0.675-0.191,1.02-0.302C149.42,208.807,149.082,208.903,148.745,209z M151.228,208.201
		c0.34-0.119,0.679-0.231,1.026-0.363C151.905,207.966,151.567,208.082,151.228,208.201z M153.86,207.19
		c0.334-0.138,0.66-0.265,0.998-0.412C154.519,206.928,154.192,207.054,153.86,207.19z M156.737,205.928
		c0.289-0.136,0.568-0.259,0.867-0.4C157.308,205.669,157.026,205.792,156.737,205.928z"/>
	<path d="M22.195,136.621c13.785,6.584,90.307,37.502,102.402,43.279c0.729,0.35,1.441,0.672,2.146,0.979
		c-0.704-0.307-1.417-0.631-2.146-0.979c2.796,1.338,5.402,2.371,7.945,3.068c-0.286-0.079-0.572-0.176-0.859-0.264
		c0.397,0.119,0.793,0.237,1.185,0.342c0.279,0.074,0.557,0.138,0.834,0.203c0.382,0.09,0.765,0.178,1.145,0.252
		c0.282,0.056,0.563,0.102,0.844,0.146c0.376,0.063,0.752,0.118,1.13,0.164c0.282,0.035,0.564,0.066,0.847,0.092
		c0.379,0.034,0.755,0.061,1.135,0.08c0.283,0.014,0.565,0.025,0.848,0.03c0.345,0.006,0.693,0,1.04-0.007
		c-0.192,0.004-0.39,0.021-0.583,0.021c2.954,0,5.997-0.488,9.329-1.517c-0.244,0.077-0.479,0.13-0.725,0.2
		c0.354-0.104,0.707-0.203,1.064-0.315c0.469-0.147,0.943-0.313,1.421-0.483c0.354-0.123,0.702-0.242,1.063-0.379
		c0.512-0.193,1.041-0.412,1.568-0.629c0.348-0.142,0.682-0.273,1.036-0.424c0.601-0.26,1.221-0.549,1.843-0.839
		c0.303-0.142,0.591-0.267,0.898-0.413c0.938-0.45,1.901-0.932,2.896-1.449c15.309-7.984,87.219-37.548,101.098-44.785
		c6.735-3.51,10.053-6.276,10.164-8.763c0.096-2.125-2.188-4.046-6.701-6.046c-0.442,0.24-0.892,0.478-1.34,0.711
		c-0.656,0.343-1.472,0.747-2.357,1.176c-8.438,4.095-26.854,12.009-46.35,20.388c-21.976,9.443-44.697,19.208-52.396,23.223
		c-8.979,4.683-15.927,6.771-22.517,6.771c-5.473,0-10.866-1.412-17.485-4.578c-5.734-2.739-27.27-11.668-48.094-20.303
		c-21.446-8.892-43.623-18.088-52.451-22.111c-0.7-0.319-1.326-0.609-1.859-0.863c-0.646-0.311-1.289-0.627-1.92-0.947
		c-4.478,2.114-6.703,4.146-6.614,6.284C11.791,130.549,15.308,133.328,22.195,136.621z M127.423,181.16
		c0.471,0.197,0.943,0.396,1.406,0.572C128.366,181.554,127.894,181.357,127.423,181.16z M129.612,182.017
		c0.421,0.152,0.839,0.304,1.254,0.439C130.452,182.321,130.033,182.167,129.612,182.017z M141.865,183.957
		c0.332-0.021,0.668-0.052,1.002-0.084C142.531,183.905,142.196,183.934,141.865,183.957z M144.071,183.724
		c0.341-0.049,0.681-0.102,1.025-0.162C144.755,183.623,144.412,183.675,144.071,183.724z M146.347,183.31
		c0.351-0.076,0.696-0.152,1.053-0.24C147.043,183.16,146.694,183.234,146.347,183.31z"/>
	<path d="M23.979,119.286c17.565,8.008,88.971,36.884,100.618,42.449c0.726,0.351,1.438,0.671,2.141,0.978
		c0.246,0.106,0.484,0.199,0.729,0.3c0.454,0.19,0.908,0.381,1.356,0.553c0.279,0.106,0.555,0.201,0.83,0.302
		c0.403,0.146,0.803,0.29,1.201,0.42c0.291,0.098,0.579,0.178,0.868,0.268c0.379,0.111,0.757,0.224,1.133,0.326
		c0.292,0.076,0.583,0.143,0.875,0.211c0.371,0.087,0.736,0.171,1.102,0.242c0.293,0.057,0.588,0.105,0.882,0.154
		c0.363,0.061,0.726,0.113,1.089,0.16c0.292,0.036,0.589,0.066,0.885,0.096c0.363,0.032,0.728,0.058,1.092,0.074
		c0.295,0.018,0.591,0.028,0.888,0.033c0.332,0.004,0.665-0.002,0.999-0.009c-0.188,0.004-0.376,0.022-0.562,0.022
		c5.908,0,12.167-1.96,20.395-6.248c14.623-7.629,80.86-34.933,98.858-43.67c0.846-0.409,1.619-0.792,2.24-1.116
		c7.065-3.682,10.188-6.533,10.188-9.13c0-1.51,0.003-11.086,0.003-18.161c-2.252,1.864-5.106,3.516-8.069,5.06
		c-6.916,3.607-27.223,12.332-48.713,21.568c-21.971,9.441-44.693,19.206-52.386,23.218c-8.981,4.681-15.927,6.767-22.519,6.767
		c-5.471,0-10.863-1.411-17.485-4.576c-5.744-2.745-27.317-11.69-48.184-20.342c-23.103-9.58-46.995-19.487-54.217-22.938
		c-3.144-1.501-6.175-3.128-8.535-5.023v18.49c0,2.624,3.622,5.401,10.512,8.696C22.703,118.697,23.306,118.979,23.979,119.286z
		 M141.88,165.791c0.322-0.021,0.645-0.049,0.969-0.082C142.524,165.742,142.202,165.771,141.88,165.791z M144.092,165.556
		c0.328-0.047,0.657-0.098,0.988-0.157C144.749,165.458,144.42,165.509,144.092,165.556z M146.374,165.139
		c0.334-0.072,0.666-0.147,1.005-0.229C147.043,164.994,146.708,165.067,146.374,165.139z M148.745,164.537
		c0.337-0.098,0.675-0.192,1.02-0.301C149.42,164.343,149.082,164.438,148.745,164.537z M151.228,163.737
		c0.34-0.12,0.679-0.231,1.026-0.364C151.905,163.501,151.567,163.615,151.228,163.737z M153.86,162.726
		c0.334-0.139,0.66-0.264,0.998-0.412C154.519,162.462,154.192,162.589,153.86,162.726z M156.737,161.464
		c0.289-0.137,0.568-0.258,0.867-0.399C157.308,161.208,157.026,161.33,156.737,161.464z"/>
	<path d="M22.195,92.156c13.785,6.587,90.31,37.5,102.402,43.28c0.729,0.349,1.441,0.672,2.144,0.979
		c-0.703-0.306-1.418-0.63-2.144-0.979c2.796,1.338,5.402,2.368,7.944,3.065c-0.278-0.076-0.556-0.171-0.835-0.255
		c0.385,0.115,0.771,0.23,1.153,0.331c0.288,0.077,0.575,0.144,0.861,0.21c0.374,0.088,0.744,0.171,1.114,0.245
		c0.29,0.056,0.581,0.105,0.872,0.154c0.367,0.06,0.732,0.114,1.101,0.158c0.291,0.035,0.582,0.067,0.874,0.094
		c0.367,0.033,0.735,0.06,1.104,0.077c0.291,0.015,0.583,0.025,0.878,0.032c0.333,0.004,0.67,0,1.005-0.009
		c-0.188,0.004-0.376,0.023-0.564,0.023c2.956,0,5.999-0.49,9.331-1.517c-0.24,0.073-0.468,0.123-0.705,0.192
		c0.347-0.099,0.69-0.196,1.045-0.308c0.47-0.149,0.951-0.317,1.436-0.489c0.352-0.123,0.693-0.238,1.049-0.373
		c0.518-0.195,1.053-0.414,1.583-0.635c0.341-0.14,0.673-0.269,1.024-0.42c0.602-0.26,1.224-0.55,1.849-0.842
		c0.3-0.139,0.589-0.263,0.894-0.409c0.938-0.451,1.902-0.932,2.896-1.449c15.311-7.982,87.219-37.55,101.1-44.785
		c6.731-3.509,10.047-6.275,10.164-8.76c0.121-2.639-3.365-4.963-10.334-7.514c-13.525-4.956-85.006-33.405-98.693-38.419
		c-0.832-0.305-1.633-0.588-2.41-0.856c-0.24-0.084-0.469-0.154-0.708-0.234c-0.522-0.174-1.047-0.349-1.546-0.506
		c-0.283-0.088-0.553-0.162-0.828-0.245c-0.438-0.13-0.876-0.262-1.301-0.377c-0.288-0.079-0.567-0.146-0.852-0.217
		c-0.396-0.1-0.789-0.202-1.174-0.289c-0.287-0.064-0.566-0.12-0.854-0.176c-0.365-0.075-0.732-0.15-1.094-0.21
		c-0.287-0.049-0.566-0.089-0.85-0.128c-0.352-0.052-0.697-0.102-1.042-0.141c-0.287-0.032-0.567-0.055-0.853-0.079
		c-0.34-0.029-0.678-0.056-1.012-0.071c-0.287-0.013-0.572-0.021-0.857-0.027c-0.321-0.006-0.645-0.009-0.967-0.005
		c-0.357,0.005-0.722,0.021-1.082,0.039c-0.301,0.016-0.603,0.031-0.908,0.055c-0.366,0.029-0.739,0.07-1.115,0.114
		c-0.305,0.035-0.611,0.07-0.924,0.114c-0.384,0.055-0.778,0.122-1.171,0.191c-0.315,0.055-0.627,0.107-0.95,0.171
		c-0.411,0.081-0.834,0.177-1.259,0.273c-0.323,0.074-0.642,0.143-0.974,0.224c-0.446,0.11-0.911,0.237-1.374,0.362
		c-0.333,0.09-0.657,0.172-1,0.271c-0.505,0.144-1.031,0.308-1.56,0.468c-0.328,0.101-0.644,0.191-0.982,0.298
		c-0.606,0.192-1.248,0.408-1.891,0.624c-0.287,0.096-0.555,0.182-0.851,0.281c-0.953,0.324-1.938,0.671-2.971,1.041
		c-16.084,5.773-92.188,35.629-105.728,40.931c-6.776,2.653-10.088,5.115-9.979,7.738C11.791,86.085,15.308,88.864,22.195,92.156z
		 M104.827,104.66l60.273-9.25l-18.211,26.698L104.827,104.66z M127.436,136.702c0.466,0.193,0.93,0.39,1.387,0.565
		C128.366,137.091,127.9,136.896,127.436,136.702z M129.636,137.561c0.409,0.149,0.816,0.298,1.221,0.431
		C130.454,137.857,130.044,137.709,129.636,137.561z M141.877,139.49c0.325-0.021,0.649-0.051,0.976-0.083
		C142.526,139.439,142.2,139.47,141.877,139.49z M144.086,139.256c0.332-0.047,0.663-0.1,0.998-0.158
		C144.749,139.156,144.418,139.209,144.086,139.256z M146.365,138.842c0.337-0.073,0.675-0.148,1.021-0.234
		C147.043,138.693,146.702,138.768,146.365,138.842z M238.13,80.625l-35.645,14.083l-3.867,1.514L162.99,82.139l39.466-15.611
		L238.13,80.625z M133.482,54.797l-5.827-10.75l18.178,7.11l17.143-5.612l-4.634,11.116l17.479,6.544l-22.539,2.339l-5.045,12.141
		l-8.148-13.548L114.062,61.8L133.482,54.797z M88.573,69.955c17.792,0,32.216,5.592,32.216,12.488s-14.426,12.488-32.216,12.488
		c-17.792,0-32.216-5.592-32.216-12.488S70.781,69.955,88.573,69.955z"/>
	<polygon points="198.622,94.578 200.957,93.663 200.931,68.774 167.149,82.137 	"/>
</g>
</svg>
