<?xml version="1.0" encoding="utf-8"?>
<!-- Generator: Adobe Illustrator 15.1.0, SVG Export Plug-In . SVG Version: 6.00 Build 0)  -->
<!DOCTYPE svg PUBLIC "-//W3C//DTD SVG 1.1//EN" "http://www.w3.org/Graphics/SVG/1.1/DTD/svg11.dtd">
<svg version="1.1" id="Layer_1" xmlns="http://www.w3.org/2000/svg" xmlns:xlink="http://www.w3.org/1999/xlink" x="0px" y="0px"
	 width="283.46px" height="283.46px" viewBox="0 0 283.46 283.46" enable-background="new 0 0 283.46 283.46" xml:space="preserve">
<g>
	<path d="M237.016,46.6C211.577,21.12,177.736,7.088,141.73,7.088h-0.252c-25.889,0.048-51.067,7.5-72.813,21.548
		c-0.004,0.003-0.009,0.006-0.014,0.009c-2.41,1.552-4.799,3.206-7.102,4.919l0,0c-5.272,3.908-10.303,8.244-14.952,12.886
		c-25.45,25.41-39.482,59.212-39.511,95.178c-0.028,35.965,13.951,69.789,39.362,95.238c25.438,25.479,59.276,39.51,95.284,39.512
		c0.002,0,0.003,0,0.005,0c35.923,0,69.706-13.979,95.128-39.362c25.452-25.412,39.484-59.215,39.513-95.179
		S262.426,72.049,237.016,46.6z M83.489,149.189c7.166-18.625,17.018-42.58,29.976-63.56h16.873
		c-2.853,5.583-5.715,10.991-8.501,16.252c-22.755,42.993-40.889,77.242-6.376,118.646h-15.423
		c-24.272-39.54-43.969-77.922-60.742-134.898h17.03c5.447,22.314,13.413,42.056,22.476,63.631l2.433,5.793L83.489,149.189z
		 M232.897,233.042c-11.941,11.925-27.814,18.49-44.691,18.493c-0.002,0-0.003,0-0.005,0c-16.909,0-32.804-6.594-44.754-18.561
		c-11.937-11.955-18.504-27.844-18.491-44.739c0.013-16.896,6.605-32.774,18.56-44.713c13.045-13.022,20.237-30.347,20.251-48.779
		c0.015-18.433-7.15-35.768-20.175-48.811c-13.096-13.115-31.177-20.637-49.607-20.637c-3.596,0-7.181,0.287-10.715,0.85
		c17.75-8.827,37.67-13.443,58.35-13.443l1.119,0.005c34.133,0.276,66.201,13.721,90.301,37.859
		C283.309,100.916,283.246,182.775,232.897,233.042z"/>
	<path d="M184.836,60.398h-22.393c43.774,48.109,13.955,85.452-13.437,139.957h22.394c12.343-19.695,22.028-42.045,30.931-65.181
		c8.702,20.719,17.246,41.586,22.813,65.181h22.394C230.987,143.068,211.466,103.64,184.836,60.398z"/>
</g>
</svg>
