<?xml version="1.0" encoding="utf-8"?>
<!-- Generator: Adobe Illustrator 15.1.0, SVG Export Plug-In . SVG Version: 6.00 Build 0)  -->
<!DOCTYPE svg PUBLIC "-//W3C//DTD SVG 1.1//EN" "http://www.w3.org/Graphics/SVG/1.1/DTD/svg11.dtd">
<svg version="1.1" id="Layer_6" xmlns="http://www.w3.org/2000/svg" xmlns:xlink="http://www.w3.org/1999/xlink" x="0px" y="0px"
	 width="283.465px" height="283.465px" viewBox="0 0 283.465 283.465" enable-background="new 0 0 283.465 283.465"
	 xml:space="preserve">
<g>
	<path fill="none" d="M234.282,93.793c-24.735-12.675-57.604-19.654-92.549-19.654c-34.947,0-67.816,6.979-92.55,19.654
		c-24.899,12.76-38.612,29.784-38.612,47.939s13.713,35.178,38.612,47.938c24.735,12.678,57.603,19.656,92.55,19.656
		c34.945,0,67.815-6.979,92.549-19.656c24.901-12.758,38.612-29.783,38.612-47.938C272.895,123.578,259.182,106.555,234.282,93.793z
		 M141.731,209.268c-72.291,0-131.103-30.296-131.103-67.536S69.44,74.196,141.731,74.196s131.104,30.296,131.104,67.536
		S214.021,209.268,141.731,209.268z"/>
	<path fill="#231F20" d="M87.205,120.74h-9.39h-1.928l-0.367,1.891l-5.207,26.785l-0.541,2.785h2.836h7.633
		c6.402,0,11.269-1.248,14.463-3.705c3.211-2.473,5.401-6.607,6.506-12.295c1.088-5.613,0.562-9.512-1.608-11.92
		C97.45,121.897,93.395,120.74,87.205,120.74z"/>
	<path fill="#231F20" d="M207.891,120.74h-9.392h-1.929l-0.366,1.891l-5.205,26.785l-0.541,2.785h2.836h7.634
		c6.401,0,11.27-1.248,14.465-3.705c3.209-2.473,5.398-6.607,6.504-12.293c1.088-5.615,0.562-9.515-1.61-11.922
		C218.137,121.897,214.079,120.74,207.891,120.74z"/>
	<path fill="#231F20" d="M141.731,77.196c-70.636,0-128.103,28.951-128.103,64.536s57.467,64.536,128.103,64.536
		c70.637,0,128.104-28.95,128.104-64.536S212.368,77.196,141.731,77.196z M115.47,136.953c-0.652,3.356-1.769,6.467-3.32,9.244
		c-1.553,2.777-3.613,5.357-6.121,7.664l-0.008,0.008l-0.008,0.006c-2.975,2.786-6.322,4.793-9.955,5.975
		c-3.664,1.194-8.425,1.799-14.154,1.799H69.865h-1.928l-0.367,1.892l-3.301,16.979H50.593l13.455-69.229H93.06
		c8.64,0,15.002,2.269,18.91,6.742C115.866,122.492,117.044,128.857,115.47,136.953z M154.283,161.646l5.898-30.36
		c0.76-3.9,0.438-6.541-0.984-8.074c-1.393-1.5-4.121-2.229-8.338-2.229h-11.058h-1.928l-0.369,1.893l-7.533,38.772h-13.555
		L129.87,92.42h13.556l-3.127,16.088l-0.541,2.783h2.836h11.893c8.451,0,14.076,1.397,17.205,4.267
		c3.01,2.767,3.908,7.398,2.67,13.769l-6.281,32.319H154.283z M236.156,136.951c-0.653,3.359-1.771,6.471-3.321,9.246
		c-1.554,2.779-3.61,5.357-6.121,7.664l-0.008,0.008l-0.009,0.006c-2.973,2.786-6.321,4.793-9.956,5.975
		c-3.662,1.194-8.421,1.799-14.15,1.799H190.55h-1.928l-0.367,1.892l-3.299,16.979h-13.679l13.457-69.229h29.011
		c8.642,0,15.002,2.269,18.911,6.742C236.553,122.492,237.729,128.856,236.156,136.951z"/>
	<path fill="#231F20" d="M141.731,70.903c-74.361,0-134.645,31.712-134.645,70.829c0,39.118,60.283,70.829,134.645,70.829
		c74.363,0,134.646-31.711,134.646-70.829C276.377,102.615,216.096,70.903,141.731,70.903z M234.282,189.67
		c-24.734,12.678-57.604,19.656-92.549,19.656c-34.947,0-67.815-6.979-92.55-19.656c-24.899-12.76-38.612-29.783-38.612-47.938
		s13.713-35.179,38.612-47.939c24.734-12.675,57.603-19.654,92.55-19.654c34.945,0,67.814,6.979,92.549,19.654
		c24.899,12.762,38.612,29.785,38.612,47.939C272.895,159.887,259.184,176.912,234.282,189.67z"/>
</g>
</svg>
