<?xml version="1.0" encoding="utf-8"?>
<!-- Generator: Adobe Illustrator 15.1.0, SVG Export Plug-In . SVG Version: 6.00 Build 0)  -->
<!DOCTYPE svg PUBLIC "-//W3C//DTD SVG 1.1//EN" "http://www.w3.org/Graphics/SVG/1.1/DTD/svg11.dtd">
<svg version="1.1"
	 id="Layer_1" xmlns:cc="http://creativecommons.org/ns#" xmlns:svg="http://www.w3.org/2000/svg" xmlns:dc="http://purl.org/dc/elements/1.1/" xmlns:rdf="http://www.w3.org/1999/02/22-rdf-syntax-ns#"
	 xmlns="http://www.w3.org/2000/svg" xmlns:xlink="http://www.w3.org/1999/xlink" x="0px" y="0px" width="283.465px"
	 height="283.465px" viewBox="3.067 4.868 283.465 283.465" enable-background="new 3.067 4.868 283.465 283.465"
	 xml:space="preserve">
<path id="path35" d="M228.952,176.055c0,11.159-5.88,16.628-16.831,16.821v0.01H77.475v-0.01c-10.95-0.193-16.83-5.662-16.83-16.821
	c0-11.16,5.88-16.629,16.83-16.822v-0.009h134.646v0.009C223.073,159.426,228.952,164.895,228.952,176.055 M212.121,201.31v-0.009
	H77.475v0.009c-10.95,0.192-16.83,5.663-16.83,16.822s5.88,16.628,16.83,16.821v0.009h134.646v-0.009
	c10.95-0.193,16.831-5.662,16.831-16.821S223.073,201.502,212.121,201.31 M254.198,108.75v-0.009
	c-10.95,0.193-16.831,5.662-16.831,16.821v92.569c0,11.159,5.88,16.628,16.831,16.821v-0.019
	c16.427-0.58,25.246-16.986,25.246-50.466v-42.075C279.446,120.074,270.625,109.137,254.198,108.75 M35.399,108.741v0.009
	c-16.427,0.387-25.245,11.323-25.245,33.644v42.076c0,33.479,8.818,49.885,25.245,50.465v0.02
	c10.952-0.193,16.831-5.662,16.831-16.821v-92.57C52.23,114.403,46.351,108.935,35.399,108.741 M254.198,100.316
	c0-27.899-14.699-41.57-42.077-42.054v-0.023H77.475v0.023c-27.377,0.483-42.076,14.154-42.076,42.054v0.014
	c16.427,0.29,25.246,8.493,25.246,25.232s8.82,24.942,25.247,25.232v0.014h117.814v-0.014c16.427-0.29,25.246-8.493,25.246-25.232
	s8.818-24.942,25.246-25.232V100.316z"/>
</svg>
