<?xml version="1.0" encoding="utf-8"?>
<!-- Generator: Adobe Illustrator 15.1.0, SVG Export Plug-In . SVG Version: 6.00 Build 0)  -->
<!DOCTYPE svg PUBLIC "-//W3C//DTD SVG 1.1//EN" "http://www.w3.org/Graphics/SVG/1.1/DTD/svg11.dtd">
<svg version="1.1" id="Layer_1" xmlns="http://www.w3.org/2000/svg" xmlns:xlink="http://www.w3.org/1999/xlink" x="0px" y="0px"
	 width="283.465px" height="283.465px" viewBox="0 0 283.465 283.465" enable-background="new 0 0 283.465 283.465"
	 xml:space="preserve">
<g>
	<path d="M276.379,141.296c0-19.864-19.896-37.051-50.781-47.684c6.916-33.798,1.057-58.551-16.793-68.844
		c-17.209-9.923-42.037-1.273-66.676,20.169c-25.635-22.76-50.217-29.708-68.047-19.387c-17.193,9.952-22.1,35.782-15.828,67.839
		c-30.251,10.547-51.167,28.122-51.167,47.906c0,20.338,19.858,39.324,51.167,50.025c-6.252,31.473-1.119,56.842,16.02,66.727
		c17.617,10.162,43.865,3.129,68.778-18.648c24.283,20.896,48.824,29.121,65.949,19.209c17.602-10.189,22.953-37.279,16.527-69.736
		C258.139,178.089,276.379,161.901,276.379,141.296z M216.322,180.183c-1.449,0.48-2.934,0.941-4.447,1.389
		c0.539,2.172,1.021,4.305,1.434,6.393c5.414,27.34,1.246,49.813-11.582,57.238c-12.42,7.188-32.494,0.127-52.82-17.363
		c-2.209-1.906-4.365-3.873-6.465-5.898c-1.668,1.611-3.333,3.148-4.991,4.6c-20.984,18.342-42.533,25.953-55.373,18.549
		c-12.432-7.17-16.338-28.088-11.336-54.432c0.547-2.863,1.174-5.711,1.879-8.539c-2.172-0.619-4.328-1.293-6.467-2.021
		c-26.374-9.014-43.731-23.879-43.731-38.701c0-14.35,16.171-28.186,41.489-37.014c2.83-0.986,5.789-1.913,8.854-2.783
		c-0.656-2.625-1.246-5.266-1.77-7.921c-5.246-26.81-1.555-48.235,10.91-55.45c12.998-7.523,34.646,0.557,56.242,19.732
		c1.344,1.195,2.666,2.416,3.963,3.66c1.94-1.873,3.924-3.693,5.956-5.465c20.607-17.933,41.012-25.436,53.486-18.24
		c13.014,7.502,16.824,30.293,10.996,58.582c-0.365,1.758-0.762,3.508-1.189,5.25c2.586,0.744,5.152,1.553,7.697,2.426
		c25.83,8.893,42.521,22.82,42.521,37.223C261.576,156.413,243.738,171.099,216.322,180.183z"/>
	<path d="M107.107,105.208c-7.582,0.947-14.857,2.194-21.682,3.722c2.078,6.7,4.625,13.638,7.6,20.694
		c2.154-4.174,4.404-8.299,6.75-12.369C102.125,113.184,104.57,109.167,107.107,105.208z"/>
	<path d="M201.467,99.188c0.387-1.578,0.744-3.163,1.074-4.754c5.031-24.425,1.918-43.05-6.092-47.669
		c-7.52-4.336-24.021,1.73-41.678,17.097c-1.875,1.636-3.707,3.318-5.5,5.044c6.836,7.365,13.646,15.873,20.217,25.23
		C180.77,95.194,191.545,96.898,201.467,99.188z"/>
	<path d="M81.023,91.714c0.486,2.47,1.033,4.926,1.645,7.367c9.896-2.242,20.666-3.916,31.912-4.959
		c6.559-9.256,13.426-17.75,20.373-25.211c-1.199-1.146-2.396-2.254-3.588-3.313c-18.646-16.557-36.338-23.161-44.34-18.529
		C79.511,51.415,76.527,68.743,81.023,91.714L81.023,91.714z"/>
	<path d="M75.507,111.438c-2.77,0.783-5.514,1.646-8.232,2.59c-21.653,7.549-34.637,18.657-34.637,27.365
		c0,4.093,2.996,9.136,8.926,14.217c6.602,5.65,16.232,10.832,27.895,14.816c1.951,0.664,3.92,1.281,5.902,1.85
		c3.021-9.85,7.002-20.189,11.801-30.635C82.425,131.351,78.501,121.173,75.507,111.438z"/>
	<path d="M142,190.349c-4.744,0-9.414-0.092-13.992-0.271c4.717,6.217,9.547,11.996,14.389,17.221
		c4.682-5.152,9.383-10.939,14.041-17.27C151.693,190.239,146.875,190.349,142,190.349z"/>
	<path d="M201.992,184.163c-9.904,2.289-20.828,3.967-32.391,4.992c-6.572,9.516-13.307,18.084-20.047,25.455
		c2.014,1.938,4.021,3.768,6.014,5.48c17.381,14.959,33.5,20.629,41.037,16.268c3.541-2.051,6.406-7.168,7.83-14.848
		c1.586-8.545,1.244-19.475-1.148-31.563C202.912,188.062,202.48,186.132,201.992,184.163z"/>
	<path d="M215.73,113.833c-2.287-0.789-4.662-1.535-7.109-2.244c-2.941,9.52-6.867,19.578-11.639,29.854
		c4.998,10.526,9.084,20.716,12.111,30.296c1.367-0.404,2.709-0.822,4.016-1.256h0.002c23.67-7.844,38.25-19.846,38.25-29.091
		C251.361,132.714,237.861,121.45,215.73,113.833z"/>
	<path d="M82.527,184.62c-0.656,2.631-1.238,5.277-1.746,7.939c-4.277,22.527-1.143,39.324,6.402,43.676
		c3.543,2.045,9.408,1.971,16.771-0.631h0.002c8.193-2.896,17.49-8.648,26.77-16.76c1.553-1.361,3.072-2.762,4.557-4.195
		c-6.982-7.494-13.912-16.055-20.527-25.363C103.166,188.345,92.322,186.786,82.527,184.62z"/>
	<path d="M107.324,178.31c-2.6-4.033-5.104-8.129-7.508-12.281c-2.355-4.072-4.617-8.197-6.779-12.375
		c-3.039,7.207-5.641,14.295-7.752,21.111C92.105,176.249,99.492,177.435,107.324,178.31z"/>
	<path d="M120.347,179.448c6.971,0.453,14.211,0.684,21.652,0.684c7.473,0,14.805-0.262,21.901-0.768
		c4.023-6.045,7.852-12.219,11.475-18.514l0,0c3.654-6.326,7.082-12.784,10.275-19.357c-3.227-6.507-6.666-12.906-10.309-19.188
		c-3.625-6.267-7.467-12.403-11.523-18.397c-7.109-0.543-14.412-0.826-21.817-0.826c-7.373,0-14.664,0.28-21.777,0.818
		c-4.098,6.004-7.967,12.162-11.596,18.46v-0.002c-3.633,6.297-7.025,12.728-10.174,19.28c3.156,6.55,6.561,12.979,10.203,19.27
		C112.32,167.235,116.218,173.419,120.347,179.448z M142,120.038c11.795,0,21.356,9.562,21.356,21.355
		c0,11.795-9.561,21.357-21.356,21.357c-11.793,0-21.355-9.563-21.355-21.357C120.644,129.6,130.207,120.038,142,120.038z"/>
	<path d="M191.158,153.284c-2.217,4.273-4.527,8.5-6.936,12.672c-2.365,4.105-4.814,8.162-7.342,12.17
		c7.889-0.947,15.375-2.221,22.311-3.803C197.051,167.62,194.357,160.571,191.158,153.284z"/>
	<path d="M176.91,105.227c2.51,3.935,4.936,7.922,7.271,11.96c2.377,4.102,4.67,8.251,6.881,12.445
		c3.023-7.082,5.594-13.988,7.654-20.594C191.852,107.471,184.543,106.189,176.91,105.227z"/>
	<path d="M156.188,93.2c-4.641-6.185-9.361-11.885-14.075-16.988c-4.785,5.164-9.545,10.855-14.191,16.982
		C137.339,92.753,146.771,92.757,156.188,93.2z"/>
</g>
</svg>
