<?xml version="1.0" encoding="utf-8"?>
<!-- Generator: Adobe Illustrator 15.1.0, SVG Export Plug-In . SVG Version: 6.00 Build 0)  -->
<!DOCTYPE svg PUBLIC "-//W3C//DTD SVG 1.1//EN" "http://www.w3.org/Graphics/SVG/1.1/DTD/svg11.dtd">
<svg version="1.1" id="Layer_1" xmlns="http://www.w3.org/2000/svg" xmlns:xlink="http://www.w3.org/1999/xlink" x="0px" y="0px"
	 width="283.464px" height="283.465px" viewBox="0 0 283.464 283.465" enable-background="new 0 0 283.464 283.465"
	 xml:space="preserve">
<g>
	<path fill="#231F20" d="M106.392,215.342c0,0-10.291,5.984,7.324,8.011c21.339,2.435,32.246,2.085,55.762-2.364
		c0,0,6.185,3.877,14.817,7.233C131.577,250.814,64.984,226.912,106.392,215.342"/>
	<path fill="#231F20" d="M99.95,185.86c0,0-11.542,8.543,6.085,10.367c22.795,2.353,40.796,2.544,71.948-3.455
		c0,0,4.31,4.369,11.083,6.757C125.329,218.168,54.335,201,99.95,185.86"/>
	<path fill="#231F20" d="M154.254,135.848c12.989,14.955-3.413,28.413-3.413,28.413s32.982-17.026,17.837-38.348
		c-14.147-19.883-24.997-29.763,33.735-63.825C202.414,62.088,110.224,85.114,154.254,135.848"/>
	<path fill="#231F20" d="M223.977,237.15c0,0,7.616,6.273-8.388,11.131c-30.428,9.217-126.647,12-153.377,0.365
		c-9.608-4.18,8.41-9.98,14.079-11.197c5.911-1.281,9.289-1.043,9.289-1.043c-10.686-7.527-69.067,14.78-29.655,21.17
		C163.408,275.008,251.857,249.727,223.977,237.15"/>
	<path fill="#231F20" d="M111.339,155.313c0,0-48.943,11.624-17.332,15.848c13.347,1.785,39.955,1.381,64.738-0.695
		c20.256-1.709,40.594-5.342,40.594-5.342s-7.143,3.061-12.31,6.588c-49.701,13.07-145.714,6.99-118.073-6.381
		C92.333,154.031,111.339,155.313,111.339,155.313"/>
	<path fill="#231F20" d="M199.138,204.388c50.523-26.255,27.163-51.483,10.857-48.084c-3.996,0.832-5.777,1.553-5.777,1.553
		s1.482-2.323,4.316-3.331c32.258-11.34,57.064,33.447-10.412,51.188C198.125,205.713,198.905,205.014,199.138,204.388"/>
	<path fill="#231F20" d="M168.678,7.087c0,0,27.979,27.989-26.54,71.031c-43.719,34.526-9.969,54.211-0.019,76.705
		c-25.519-23.025-44.247-43.293-31.683-62.158C128.878,64.972,179.966,51.547,168.678,7.087"/>
	<path fill="#231F20" d="M116.305,275.531c48.497,3.104,122.967-1.723,124.732-24.67c0,0-3.392,8.698-40.08,15.605
		c-41.394,7.791-92.445,6.882-122.724,1.89C78.233,268.355,84.432,273.486,116.305,275.531"/>
</g>
</svg>
