<?xml version="1.0" encoding="utf-8"?>
<!-- Generator: Adobe Illustrator 15.1.0, SVG Export Plug-In . SVG Version: 6.00 Build 0)  -->
<!DOCTYPE svg PUBLIC "-//W3C//DTD SVG 1.1//EN" "http://www.w3.org/Graphics/SVG/1.1/DTD/svg11.dtd">
<svg version="1.1" id="Layer_2" xmlns="http://www.w3.org/2000/svg" xmlns:xlink="http://www.w3.org/1999/xlink" x="0px" y="0px"
	 width="283.465px" height="283.465px" viewBox="0 0 283.465 283.465" enable-background="new 0 0 283.465 283.465"
	 xml:space="preserve">
<path fill="#231F20" d="M274.508,138.434l-11.411-6.847c-0.101-1.203-0.205-2.401-0.341-3.594l9.844-8.93
	c1.002-0.908,1.451-2.274,1.188-3.6c-0.264-1.326-1.203-2.416-2.476-2.872l-12.515-4.484c-0.336-1.162-0.672-2.323-1.041-3.471
	l7.904-10.669c0.805-1.087,0.982-2.515,0.465-3.763c-0.517-1.249-1.65-2.134-2.988-2.333l-13.182-1.961
	c-0.549-1.061-1.103-2.118-1.682-3.16l5.688-12.043c0.576-1.223,0.472-2.658-0.279-3.781c-0.752-1.124-2.049-1.784-3.387-1.705
	l-13.351,0.649c-0.733-0.919-1.478-1.83-2.235-2.728l3.24-12.968c0.328-1.312-0.056-2.697-1.012-3.652
	c-0.954-0.956-2.337-1.345-3.654-1.013l-12.966,3.241c-0.896-0.759-1.809-1.501-2.728-2.234l0.647-13.354
	c0.065-1.35-0.581-2.635-1.706-3.385c-1.124-0.752-2.56-0.859-3.778-0.28l-12.044,5.689c-1.042-0.579-2.101-1.132-3.158-1.682
	l-1.962-13.183c-0.197-1.336-1.084-2.471-2.331-2.988c-1.242-0.514-2.678-0.342-3.762,0.463l-10.67,7.905
	c-1.149-0.368-2.313-0.703-3.475-1.038l-4.486-12.517c-0.454-1.272-1.545-2.212-2.869-2.477c-1.324-0.267-2.689,0.187-3.603,1.188
	l-8.931,9.843c-1.19-0.134-2.391-0.241-3.589-0.34l-6.849-11.412c-0.693-1.159-1.945-1.867-3.299-1.867
	c-1.351,0-2.604,0.708-3.298,1.867l-6.848,11.412c-1.201,0.099-2.401,0.206-3.593,0.341l-8.931-9.844
	c-0.907-1-2.273-1.448-3.599-1.188c-1.326,0.265-2.416,1.204-2.872,2.477l-4.484,12.518c-1.163,0.334-2.324,0.669-3.471,1.037
	l-10.666-7.906c-1.087-0.805-2.515-0.977-3.763-0.463c-1.249,0.518-2.135,1.651-2.333,2.988l-1.961,13.183
	c-1.061,0.551-2.116,1.103-3.158,1.682l-12.044-5.689c-1.221-0.576-2.658-0.471-3.781,0.28c-1.124,0.75-1.771,2.035-1.705,3.385
	l0.649,13.354c-0.919,0.733-1.83,1.476-2.729,2.235L50.175,45.51c-1.313-0.327-2.699,0.058-3.653,1.013
	c-0.956,0.955-1.34,2.341-1.012,3.652l3.242,12.968c-0.76,0.897-1.502,1.808-2.236,2.728l-13.353-0.649
	c-1.382-0.069-2.637,0.583-3.386,1.705c-0.751,1.123-0.857,2.559-0.279,3.781l5.688,12.044c-0.579,1.042-1.131,2.1-1.681,3.158
	L20.322,87.87c-1.336,0.199-2.471,1.084-2.987,2.333c-0.519,1.249-0.342,2.677,0.463,3.763l7.905,10.669
	c-0.368,1.147-0.703,2.31-1.037,3.472l-12.519,4.483c-1.271,0.456-2.212,1.545-2.476,2.872c-0.263,1.325,0.188,2.691,1.188,3.6
	l9.845,8.93c-0.136,1.192-0.242,2.392-0.342,3.593l-11.411,6.849c-1.159,0.694-1.867,1.946-1.867,3.298
	c0,1.353,0.708,2.604,1.867,3.299l11.411,6.848c0.1,1.199,0.206,2.398,0.341,3.591l-9.844,8.93c-1,0.909-1.45,2.276-1.188,3.602
	c0.264,1.325,1.204,2.415,2.476,2.87l12.518,4.486c0.335,1.162,0.67,2.323,1.038,3.474l-7.905,10.67
	c-0.805,1.084-0.98,2.512-0.463,3.762c0.517,1.247,1.65,2.135,2.987,2.331l13.184,1.962c0.549,1.06,1.102,2.116,1.681,3.158
	l-5.688,12.044c-0.578,1.224-0.472,2.657,0.279,3.779c0.716,1.072,1.917,1.711,3.198,1.711c0.063,0,0.124-0.003,0.188-0.005
	l13.353-0.648c0.734,0.919,1.477,1.83,2.235,2.729l-3.241,12.967c-0.328,1.313,0.057,2.699,1.012,3.653
	c0.73,0.731,1.711,1.127,2.721,1.127c0.311,0,0.623-0.038,0.933-0.114l12.967-3.242c0.898,0.76,1.809,1.504,2.729,2.236
	l-0.649,13.35c-0.066,1.352,0.581,2.636,1.705,3.388c0.644,0.431,1.389,0.647,2.138,0.647c0.561,0,1.121-0.123,1.644-0.367
	l12.043-5.688c1.042,0.579,2.099,1.134,3.16,1.681l1.961,13.183c0.198,1.338,1.084,2.473,2.333,2.987
	c0.475,0.195,0.974,0.293,1.473,0.293c0.812,0,1.617-0.258,2.291-0.756l10.668-7.904c1.148,0.367,2.31,0.703,3.472,1.039
	l4.485,12.516c0.456,1.271,1.545,2.212,2.872,2.475c0.25,0.051,0.501,0.075,0.75,0.075c1.073,0,2.112-0.45,2.849-1.262l8.931-9.845
	c1.191,0.137,2.392,0.242,3.594,0.342l6.846,11.41c0.695,1.16,1.947,1.869,3.298,1.869c1.354,0,2.604-0.709,3.299-1.869l6.846-11.41
	c1.202-0.1,2.4-0.205,3.594-0.342l8.929,9.845c0.739,0.812,1.776,1.262,2.852,1.262c0.25,0,0.501-0.024,0.751-0.075
	c1.325-0.263,2.415-1.201,2.87-2.475l4.485-12.516c1.162-0.336,2.324-0.672,3.475-1.039l10.67,7.904
	c0.673,0.498,1.478,0.756,2.289,0.756c0.498,0,0.999-0.098,1.473-0.293c1.247-0.519,2.134-1.649,2.331-2.987l1.962-13.183
	c1.059-0.547,2.118-1.102,3.16-1.681l12.042,5.688c0.521,0.244,1.085,0.367,1.644,0.367c0.748,0,1.495-0.218,2.137-0.647
	c1.125-0.752,1.771-2.036,1.706-3.388l-0.648-13.35c0.919-0.732,1.83-1.479,2.728-2.236l12.966,3.242
	c0.312,0.076,0.623,0.114,0.935,0.114c1.007,0,1.991-0.396,2.721-1.127c0.956-0.954,1.341-2.342,1.013-3.653l-3.242-12.967
	c0.76-0.897,1.504-1.81,2.236-2.729l13.35,0.648c0.063,0.002,0.125,0.005,0.188,0.005c1.279,0,2.481-0.639,3.198-1.711
	c0.751-1.122,0.855-2.557,0.279-3.779l-5.688-12.042c0.579-1.042,1.133-2.102,1.682-3.16l13.182-1.962
	c1.338-0.196,2.47-1.084,2.988-2.331s0.341-2.678-0.465-3.762l-7.904-10.67c0.369-1.148,0.705-2.312,1.041-3.474l12.515-4.486
	c1.272-0.455,2.212-1.545,2.476-2.87c0.266-1.324-0.186-2.691-1.188-3.602l-9.844-8.93c0.136-1.191,0.24-2.392,0.341-3.594
	l11.411-6.845c1.158-0.694,1.867-1.946,1.867-3.299C276.377,140.38,275.668,139.127,274.508,138.434z M75.207,220.205
	c2.499-3.438,7.31-4.2,10.747-1.703c3.438,2.499,4.199,7.309,1.701,10.747c-2.496,3.438-7.31,4.2-10.747,1.7
	C73.471,228.455,72.71,223.641,75.207,220.205z M99.381,230.909l-2.813-17.76c-0.317-2.018-1.425-3.822-3.077-5.021
	c-1.651-1.202-3.713-1.703-5.726-1.375l-17.693,2.804c-2.653-2.804-5.162-5.741-7.478-8.838h80.418c0.709,0,1.282-0.572,1.282-1.281
	v-28.212c0-0.709-0.573-1.282-1.282-1.282h-21.8V151.99h24.364c13.771,0,16.313,12.228,19.003,25.174
	c2.408,11.581,4.896,23.555,16.902,23.555h39.382c-2.313,3.097-4.823,6.034-7.477,8.838l-17.692-2.804
	c-2.014-0.331-4.076,0.175-5.728,1.375c-1.65,1.199-2.758,3.005-3.076,5.02l-2.813,17.763c-12.845,6.124-27.202,9.563-42.351,9.563
	C126.581,240.472,112.223,237.034,99.381,230.909z M36.847,107.652c1.313-4.041,5.654-6.254,9.695-4.94s6.252,5.654,4.939,9.695
	c-1.313,4.042-5.653,6.253-9.694,4.94C37.746,116.034,35.535,111.694,36.847,107.652z M42.99,141.731
	c0-4.314,0.309-8.555,0.849-12.724l16.015-8.159c3.787-1.929,5.292-6.563,3.362-10.349l-2.382-4.674h16.779v64.117H47.12
	C44.446,160.999,42.99,151.534,42.99,141.731z M149.425,39.145c0,4.249-3.446,7.693-7.694,7.693c-4.249,0-7.693-3.444-7.693-7.693
	s3.444-7.694,7.693-7.694C145.979,31.45,149.425,34.896,149.425,39.145z M121.213,123.778v-17.952h32.059
	c9.692,0,14.105,4.653,14.105,8.976c0,2.274-1.186,4.415-3.333,6.027c-2.572,1.93-6.299,2.949-10.772,2.949H121.213z
	 M206.554,230.949c-3.438,2.501-8.25,1.738-10.75-1.7c-2.497-3.438-1.732-8.248,1.703-10.747c3.437-2.497,8.25-1.735,10.747,1.703
	C210.752,223.641,209.99,228.455,206.554,230.949z M217.642,169.64c-4.864,0.003-10.659-3.125-11.819-8.925
	c-2.054-10.271-9.187-19.695-13.851-22.929c14.771-8.702,21.227-21.488,17.75-35.388c-3.896-15.591-19.345-27.35-35.933-27.35
	H68.982c14.167-15.442,33.177-26.357,54.595-30.355l12.714,12.714c1.501,1.502,3.471,2.254,5.439,2.254
	c1.97,0,3.938-0.751,5.439-2.254l12.716-12.714c29.56,5.519,54.532,24.228,68.522,49.79l-8.162,16.018
	c-1.93,3.786-0.424,8.419,3.36,10.349l16.017,8.159c0.539,4.17,0.848,8.41,0.848,12.724c0,2.592-0.131,5.151-0.328,7.693h-9.931
	c-0.709,0-1.282,0.573-1.282,1.282v5.129C228.93,166.013,223.099,169.64,217.642,169.64z M241.672,117.349
	c-4.039,1.313-8.379-0.899-9.691-4.94s0.896-8.381,4.938-9.695c4.043-1.313,8.381,0.899,9.695,4.94
	C247.926,111.694,245.715,116.034,241.672,117.349z"/>
</svg>
