<?xml version="1.0" encoding="utf-8"?>
<!-- Generator: Adobe Illustrator 15.1.0, SVG Export Plug-In . SVG Version: 6.00 Build 0)  -->
<!DOCTYPE svg PUBLIC "-//W3C//DTD SVG 1.1//EN" "http://www.w3.org/Graphics/SVG/1.1/DTD/svg11.dtd">
<svg version="1.1" id="Layer_1" xmlns="http://www.w3.org/2000/svg" xmlns:xlink="http://www.w3.org/1999/xlink" x="0px" y="0px"
	 width="283.465px" height="283.465px" viewBox="0 0 283.465 283.465" enable-background="new 0 0 283.465 283.465"
	 xml:space="preserve">
<g>
	<path fill="none" d="M141.958,183.659l0.037-0.1c-0.027-0.123-0.046-0.198-0.053-0.195
		C141.935,183.368,141.939,183.453,141.958,183.659z"/>
	<path fill="#231F20" d="M140.847,242.415c-0.746-1.59-3.015-5.731-4.151-7.06c-2.472-2.895-3.05-3.111-3.778-6.767
		c-1.263-6.36-4.609-17.897-8.552-25.859c-2.037-4.109-5.423-7.563-8.524-10.542c-2.707-2.612-8.807-7.014-9.869-6.794
		c-9.963,1.988-13.055,11.76-17.74,19.503c-2.594,4.279-5.342,7.922-7.385,12.478c-0.354,0.787-0.635,1.59-0.881,2.397
		c-0.49,1.612-0.836,3.25-1.322,4.832c-0.569,1.847-1.332,3.619-2.746,5.191c-2.9,3.232-4.913,6.645-6.458,10.645
		c-0.22,0.569-0.431,1.151-0.634,1.746c-0.287,0.85-1.073,9.271-1.953,12.176c-0.059,0.193-0.116,0.361-0.176,0.502
		c0,0.002,0,0.004,0,0.006l14.808-1.042c13.798,0.938,9.813,6.229,31.351,5.075l34.002-1.053h0.004
		c-1.058-3.115-2.506-6.724-3.068-7.898C142.822,247.977,141.634,244.113,140.847,242.415z"/>
	<path fill="#231F20" d="M242.448,24.398H41.013c-18.736,0-33.926,15.192-33.926,33.93v73.976v0.051
		c1.213-0.438,2.558-1.412,3.929-2.665c4.115-3.763,8.454-10.046,10.096-11.93c3.827-4.392,4.522-9.996,6.429-13.524
		c2.713-5.02,4.021-9.061,7.029-11.386c1.807-1.397,4.225-2.175,7.928-2.175c4.602,0,6.428,1.061,9.54,5.235
		c2.165,2.904,5.905,8.269,7.655,11.854c2.021,4.138,5.313,9.738,6.761,10.869c1.072,0.839,2.134,1.468,3.128,1.841
		c1.6,0.6,2.924-0.5,3.994-1.352c0,0,0.001-0.001,0.002-0.001c1.366-1.088,1.956-3.306,3.219-6.264
		c1.824-4.267,3.813-9.379,4.941-11.163c1.956-3.083,2.624-6.742,4.734-8.515c0-0.001,0-0.002,0.002-0.003
		c3.117-2.615,7.184-2.797,8.304-3.02c6.261-1.236,9.106,3.02,12.192,5.77c2.019,1.802,4.777,5.433,6.736,10.298
		c1.531,3.801,3.479,7.315,4.293,9.511c0.788,2.118,2.732,5.513,3.885,9.583c1.045,3.696,3.844,6.527,4.908,8.284
		c0,0,1.629,4.563,11.53,8.731c2.147,0.906,6.487,2.375,9.076,3.317c4.307,1.563,8.472,1.359,13.776,0.725
		c0.945,0,1.783-0.343,2.535-0.925c0.098-0.076,0.189-0.166,0.284-0.25c0.087-0.076,0.177-0.146,0.261-0.228
		c1.95-1.912,3.291-5.448,4.477-8.466c1.017-2.593,1.988-10.024,2.652-12.134c0.643-2.052-0.86-3.64,0.42-5.439
		c0.279-0.394,0.539-0.717,0.779-1.001c0.322-0.378,0.612-0.688,0.883-0.998c0.605-0.701,1.102-1.41,1.588-2.952
		c0.23-0.733,0.603-1.379,1.084-1.949c3.379-3.984,12.254-4.21,17.531-4.21c5.023,0,4.387,4.88,12.914,3.21
		c4.885-0.958,9.59,0.63,14.773,2.003c4.365,1.158,8.471,2.478,10.93,5.356c1.395,1.632,4.594,8.99,2.672,11.068
		c-0.275,0.296-0.652,0.485-1.154,0.535c0,0,0,0.001,0,0.002c0.389,0.473,0.672,1.327,1.395,1.793
		c-0.168,0.661-0.441,1.109-0.789,1.399c-1.51,1.255-4.414-0.471-6.176-0.839c-2.92-0.605-4.98,0.091-7.838,1.355
		c-4.58,2.039-11.145,1.943-15.451,4.846c-0.281,0.189-0.553,0.393-0.813,0.609c-0.006,0.004-0.01,0.007-0.016,0.011
		c-3.609,3.002-3.604,9.707-5.287,13.462c0,0-2.629,6.768-8.25,13.256c-1.873,2.162-4.078,4.294-6.629,6.133
		c-2.611,1.887-7.725,6.425-18.839,8.141c-4.983,0.772-9.651,0.836-14.772,0.58c-2.508-0.121-4.867-0.249-7.381-0.281
		c-1.393-0.01-5.861-0.15-6.191,0.227c-0.021,0.023-0.026,0.051-0.012,0.079l-0.553,1.381c0.086,0.452,0.268,1.588,0.318,1.86
		c0.203,1.115,0.259,2.004,0.302,3.025c0.076,2.106-0.175,4.302-0.067,6.429c0.223,4.41,1.859,8.431,2.067,12.879
		c0.226,4.953,2.675,10.195,5.044,14.241c0.898,1.539,2.27,1.715,2.865,3.611c0.701,2.174,0.037,4.479,0.378,6.795
		c1.335,8.982,3.922,18.369,7.966,26.476c0.029,0.067,0.061,0.14,0.096,0.2c0,0,0,0.002,0,0.003
		c4.994-0.84,9.998-2.635,16.486-3.595c11.898-1.766,28.445-0.855,39.072-1.852c26.896-2.527,41.496,11.029,65.648,5.473V58.33
		C276.376,39.59,261.19,24.398,242.448,24.398z M141.958,183.659c-0.019-0.206-0.023-0.291-0.016-0.295
		c0.007-0.003,0.025,0.072,0.053,0.195L141.958,183.659z"/>
	<path fill="#231F20" d="M69.183,214.783c1.877-4.097,2.961-8.761,4.515-12.948c1.489-4.02,3.815-9.697,7.78-11.722
		c0-0.001,0-0.002,0.002-0.002c-0.482-0.565-8.288-0.824-10.373-1.032c-2.322-0.234-4.479-0.5-6.735-0.956
		c-4.213-0.85-8.815-1.678-12.966-2.67c-2.521-0.61-10.913-3.583-12.736-4.42c-4.275-1.971-7.117-7.329-10.459-6.776
		c-2.134,0.349-4.214,1.08-5.539,3.231c-1.084,1.755-1.455,4.771-2.205,6.797c-0.87,2.348-2.373,4.542-3.688,6.779
		c-2.421,4.104-6.776,7.818-8.654,11.818c-0.378,0.822-0.712,1.744-1.026,2.703v0.454v0.008v14.884v26.549v3.836
		c2.189,0.373,4.479,0.834,7.043,1.52c18.919,5.051,23.536,5.477,42.093,3.354l1.74-0.229v-0.002
		c1.42-2.958,2.517-13.019,3.437-16.133c0.718-2.388,1.703-4.291,2.078-6.729c0.353-2.316-0.034-4.523-0.233-6.629
		C62.739,221.193,67.103,219.309,69.183,214.783z"/>
</g>
</svg>
