<?xml version="1.0" encoding="utf-8"?>
<!-- Generator: Adobe Illustrator 15.1.0, SVG Export Plug-In . SVG Version: 6.00 Build 0)  -->
<!DOCTYPE svg PUBLIC "-//W3C//DTD SVG 1.1//EN" "http://www.w3.org/Graphics/SVG/1.1/DTD/svg11.dtd">
<svg version="1.1" id="Layer_2" xmlns="http://www.w3.org/2000/svg" xmlns:xlink="http://www.w3.org/1999/xlink" x="0px" y="0px"
	 width="283.465px" height="283.465px" viewBox="0 0 283.465 283.465" enable-background="new 0 0 283.465 283.465"
	 xml:space="preserve">
<g>
	<path fill="#231F20" d="M7.087,7.086v134.646v134.646h269.291V7.088H7.087V7.086z M160.985,153.178h-35.008v99.639h-24.842v-99.639
		H66.128v-10.975l0,0l0.203,0.068V131.23l47.125-0.203c25.92,0,47.262,0.066,47.262,0.27c0.27,0.135,0.27,5.049,0.27,11.107v10.773
		H160.985z M252.14,232.348c-4.309,11.244-14.811,18.852-29.822,21.344c-4.713,0.807-15.484,0.672-20.533-0.203
		c-10.771-2.02-21.072-7.404-27.4-14.34c-2.492-2.691-7.271-9.896-7.002-10.367l2.559-1.615l10.1-5.855l7.607-4.443l1.75,2.354
		c2.223,3.502,7.203,8.215,10.098,9.83c8.752,4.512,20.467,3.904,26.256-1.346c2.492-2.289,3.568-4.713,3.568-8.08
		c0-3.096-0.471-4.51-2.02-6.867c-2.154-2.961-6.463-5.385-18.582-10.77c-13.936-5.924-19.859-9.695-25.381-15.484
		c-3.164-3.502-6.059-8.955-7.404-13.465c-1.01-3.904-1.348-13.465-0.404-17.303c2.896-13.463,13.061-22.889,27.604-25.582
		c4.713-0.943,15.82-0.539,20.465,0.672l-0.133,0.135c6.865,1.617,12.117,4.713,16.83,9.627c2.49,2.693,6.191,7.406,6.463,8.617
		c0,0.404-11.646,8.281-18.717,12.658c-0.27,0.201-1.348-0.943-2.424-2.693c-3.5-4.98-7.068-7.137-12.656-7.541
		c-8.078-0.537-13.465,3.703-13.465,10.771c0,2.154,0.404,3.365,1.213,5.117c1.818,3.701,5.184,5.924,15.619,10.502
		c19.254,8.279,27.602,13.732,32.65,21.543C254.7,208.314,255.978,222.049,252.14,232.348z"/>
</g>
</svg>
