<?xml version="1.0" encoding="utf-8"?>
<!-- Generator: Adobe Illustrator 15.1.0, SVG Export Plug-In . SVG Version: 6.00 Build 0)  -->
<!DOCTYPE svg PUBLIC "-//W3C//DTD SVG 1.1//EN" "http://www.w3.org/Graphics/SVG/1.1/DTD/svg11.dtd">
<svg version="1.1" id="Layer_2" xmlns="http://www.w3.org/2000/svg" xmlns:xlink="http://www.w3.org/1999/xlink" x="0px" y="0px"
	 width="283.465px" height="283.465px" viewBox="0 0 283.465 283.465" enable-background="new 0 0 283.465 283.465"
	 xml:space="preserve">
<g>
	<polygon fill="#231F20" points="179.669,127.792 179.591,128.359 176.501,151.189 176.497,151.219 199.149,151.219 
		199.673,151.219 199.745,150.662 202.688,127.835 202.694,127.792 180.188,127.792 	"/>
	<path fill="#231F20" d="M261.52,86.258c-0.002-4.527-0.969-8.529-2.928-11.961c-1.924-3.377-4.805-6.209-8.668-8.445
		c-31.898-18.393-63.826-36.729-95.715-55.141c-8.596-4.963-16.932-4.781-25.463,0.254c-12.697,7.486-76.262,43.904-95.203,54.875
		c-7.801,4.518-11.598,11.428-11.6,20.41c-0.012,36.988,0,73.977-0.012,110.965c0,4.428,0.93,8.354,2.801,11.734
		c0.24,0.434,0.496,0.859,0.77,1.275c1.902,2.92,4.57,5.396,8.031,7.396c18.941,10.971,82.516,47.387,95.209,54.877
		c8.537,5.034,16.871,5.217,25.471,0.252c31.889-18.412,63.818-36.748,95.721-55.144c3.953-2.287,6.875-5.194,8.799-8.674
		c1.869-3.383,2.804-7.307,2.804-11.731C261.533,197.203,261.533,123.246,261.52,86.258z M139.567,236.749L125.14,222.32
		l14.428-14.429V236.749z M139.567,202.121l-20.198,20.199l20.198,20.199v20.2L99.169,222.32l40.398-40.399V202.121z M87.966,81.366
		h-1.65v1.65v29.609v1.649h1.65h47.568h3v3v11.859v3h-3H87.966h-1.65v1.651v48.507v3h-3H67.358h-3v-3V66.504v-3h3h76.454h3v3v11.861
		v3h-3H87.966z M142.453,262.719V242.52l20.199-20.199l-20.199-20.199v-20.2l41.843,40.399L142.453,262.719z M237.026,119.219
		l-0.832,6.818l-0.213,1.758h-1.771h-20.254h-0.504l-0.068,0.552l-2.908,22.824l-0.006,0.047h0.01h20.385h2.26l-0.273,2.242
		l-0.832,6.811l-0.215,1.758h-1.77h-20.416h-0.525l-0.068,0.553l-2.615,20.533l-0.223,1.746h-1.762h-6.813h-2.275l0.291-2.256
		l2.648-20.531l0.006-0.045h-0.01h-22.699h-0.539l-0.076,0.568l-2.779,20.533l-0.234,1.73h-1.748h-6.816h-2.293l0.313-2.271
		l2.813-20.531l0.004-0.029h-20.404h-2.305l0.325-2.281l0.97-6.811l0.244-1.719h1.735h20.38h0.535l0.078-0.57l3.129-22.826
		l0.004-0.026h-20.222h-2.305l0.325-2.282l0.971-6.817l0.244-1.718h1.735h20.214h0.52l0.078-0.571l2.811-20.528l0.236-1.729h1.746
		h6.678h2.289l-0.309,2.269l-2.779,20.526l-0.006,0.033h22.455h0.504l0.072-0.556l2.648-20.528l0.225-1.744h1.758h6.67h2.271
		l-0.287,2.252l-2.613,20.528l-0.008,0.047h20.211h2.26L237.026,119.219z"/>
</g>
</svg>
