<?xml version="1.0" encoding="utf-8"?>
<!-- Generator: Adobe Illustrator 15.1.0, SVG Export Plug-In . SVG Version: 6.00 Build 0)  -->
<!DOCTYPE svg PUBLIC "-//W3C//DTD SVG 1.1//EN" "http://www.w3.org/Graphics/SVG/1.1/DTD/svg11.dtd">
<svg version="1.1" id="Layer_2_1_" xmlns="http://www.w3.org/2000/svg" xmlns:xlink="http://www.w3.org/1999/xlink" x="0px" y="0px"
	 width="283.46px" height="283.46px" viewBox="0 0 283.46 283.46" enable-background="new 0 0 283.46 283.46" xml:space="preserve">
<g>
	<polygon fill="none" points="101.947,91.549 101.947,91.547 103.893,88.177 93.78,82.339 91.833,85.71 91.834,85.71 	"/>
	<path fill="none" d="M99.695,104.933c0.061-0.061,0.095-0.143,0.095-0.229v-3.892c0-0.18-0.146-0.325-0.324-0.325H87.789
		c-0.019,0-0.037,0.008-0.055,0.012c-0.024,0.003-0.048,0.004-0.07,0.013c-0.039,0.018-0.075,0.041-0.105,0.071
		c-0.061,0.062-0.095,0.144-0.095,0.229v0.001v3.891v0.001c0,0.18,0.146,0.325,0.324,0.325h11.678
		C99.552,105.029,99.634,104.994,99.695,104.933z"/>
	<path fill="none" d="M123.308,77.293h3.893c0.179,0,0.324-0.145,0.324-0.323v-0.001V65.292c0-0.18-0.145-0.325-0.324-0.325h-3.893
		c-0.179,0-0.324,0.146-0.324,0.325v11.678C122.984,77.148,123.129,77.293,123.308,77.293z"/>
	<polygon fill="none" points="145.675,71.286 145.673,71.284 142.303,69.338 136.463,79.451 139.834,81.398 	"/>
	<polygon fill="none" points="101.947,113.967 91.835,119.806 91.834,119.807 93.78,123.178 103.894,117.338 103.893,117.337 	"/>
	<polygon fill="none" points="114.045,79.45 114.046,79.449 108.207,69.336 104.835,71.283 110.674,81.396 	"/>
	<polygon fill="none" points="148.561,91.547 151.538,89.829 158.672,85.71 156.727,82.339 146.614,88.176 146.612,88.177 
		148.559,91.547 	"/>
	<path fill="none" d="M188.517,109.628c-3.035,0-5.497,2.462-5.497,5.498c0,2.468,1.626,4.554,3.862,5.25
		c0.518,0.16,1.066,0.247,1.635,0.247c3.037,0,5.499-2.461,5.499-5.497S191.554,109.628,188.517,109.628z"/>
	<polygon fill="none" points="148.563,113.966 146.617,117.337 156.73,123.177 158.677,119.805 158.673,119.804 	"/>
	<path fill="none" d="M151.042,100.486c-0.085,0-0.168,0.035-0.229,0.095c-0.061,0.062-0.095,0.144-0.095,0.229v3.895
		c0,0.179,0.144,0.323,0.323,0.323h0.001h11.677c0.181,0,0.325-0.145,0.325-0.323v-3.893c0-0.087-0.033-0.169-0.095-0.229
		s-0.145-0.096-0.23-0.096H151.042L151.042,100.486z"/>
	<polygon fill="none" points="110.678,124.12 104.839,134.232 108.21,136.179 114.049,126.067 114.046,126.064 	"/>
	<path fill="none" d="M144.903,92.962c0.266-0.147,0.391-0.478,0.362-0.855c-0.012-0.152-0.05-0.311-0.11-0.471
		c-0.03-0.078-0.067-0.158-0.111-0.237c-0.305-0.548-0.822-0.858-1.233-0.769c-0.058,0.013-0.114,0.034-0.168,0.063l-14.191,7.888
		c-0.938-0.943-2.192-1.572-3.589-1.715c-0.201-0.02-0.403-0.03-0.608-0.03c-3.27,0-5.92,2.65-5.92,5.919
		c0,0.185,0.009,0.366,0.025,0.546c0.246,2.694,2.299,4.86,4.937,5.291c-0.208,0.076-0.339,0.179-0.339,0.29v10.164
		c0,0.239,0.581,0.435,1.298,0.435c0.717,0,1.298-0.195,1.298-0.435v-10.164c0-0.113-0.131-0.214-0.339-0.29
		c2.637-0.431,4.69-2.597,4.937-5.291c0.016-0.18,0.025-0.361,0.025-0.546c0-0.692-0.126-1.355-0.346-1.972L144.903,92.962z"/>
	<polygon fill="none" points="175.849,260.943 175.847,260.943 176.426,261.051 	"/>
	<path fill="none" d="M127.201,128.221h-3.892c-0.18,0-0.325,0.146-0.325,0.324v0.001v11.678c0,0.18,0.145,0.324,0.325,0.324h3.892
		c0.18,0,0.324-0.145,0.324-0.324v-11.678v-0.001C127.525,128.367,127.38,128.221,127.201,128.221z"/>
	<polygon fill="none" points="144.706,134.79 145.672,134.232 139.833,124.119 136.464,126.064 136.461,126.065 142.3,136.179 	"/>
	<path fill="none" d="M141.597,169.316c-0.075-0.101-0.155-0.196-0.233-0.295c-0.172-0.219-0.348-0.432-0.527-0.643
		c-0.092-0.105-0.183-0.21-0.275-0.313c-0.185-0.204-0.372-0.405-0.563-0.603c-0.085-0.087-0.17-0.177-0.256-0.263
		c-0.276-0.274-0.558-0.542-0.847-0.799c-0.012-0.01-0.022-0.017-0.034-0.027c-0.279-0.246-0.566-0.483-0.856-0.712
		c-0.099-0.077-0.199-0.153-0.299-0.227c-0.209-0.161-0.422-0.316-0.638-0.467c-0.112-0.079-0.226-0.157-0.34-0.234
		c-0.219-0.146-0.44-0.287-0.664-0.425c-0.105-0.065-0.208-0.131-0.313-0.194c-0.325-0.192-0.653-0.377-0.986-0.55
		c-0.027-0.015-0.055-0.025-0.082-0.04c-0.311-0.16-0.624-0.31-0.941-0.453c-0.116-0.052-0.233-0.101-0.349-0.15
		c-0.235-0.101-0.471-0.197-0.708-0.29c-0.13-0.049-0.258-0.097-0.389-0.145c-0.242-0.089-0.485-0.171-0.73-0.248
		c-0.118-0.039-0.234-0.079-0.352-0.113c-0.356-0.108-0.715-0.208-1.076-0.297c-0.038-0.011-0.077-0.016-0.115-0.025
		c-0.328-0.078-0.658-0.148-0.989-0.21c-0.125-0.022-0.251-0.043-0.377-0.063c-0.25-0.042-0.5-0.08-0.751-0.114
		c-0.137-0.017-0.274-0.033-0.41-0.048c-0.257-0.029-0.514-0.051-0.772-0.071c-0.122-0.008-0.243-0.019-0.365-0.025
		c-0.373-0.021-0.746-0.034-1.12-0.034c-0.005,0-0.011,0-0.015,0c-0.02,0-0.042,0.001-0.061,0.001
		c-0.417,0.003-0.833,0.02-1.25,0.047c-0.111,0.007-0.222,0.016-0.333,0.023c-0.439,0.036-0.878,0.08-1.316,0.143
		c-0.01,0.001-0.018,0.005-0.028,0.006c-0.43,0.063-0.859,0.145-1.287,0.234c-0.105,0.022-0.211,0.047-0.317,0.071
		c-0.436,0.101-0.873,0.21-1.305,0.341c-0.001,0-0.003,0.001-0.005,0.001c-0.428,0.129-0.854,0.277-1.275,0.436
		c-0.104,0.039-0.206,0.078-0.309,0.118c-0.424,0.167-0.847,0.343-1.262,0.54c-0.001,0-0.002,0-0.003,0.001
		c-0.412,0.195-0.819,0.41-1.221,0.635c-0.102,0.058-0.202,0.114-0.303,0.172c-0.402,0.234-0.801,0.478-1.193,0.741
		c-2.938,1.981-5.202,4.596-6.731,7.54c-3.366,6.476-3.18,14.549,1.18,21.013c0.227,0.338,0.464,0.662,0.707,0.981
		c0.075,0.098,0.155,0.193,0.231,0.293c0.174,0.219,0.35,0.434,0.531,0.644c0.09,0.105,0.181,0.21,0.273,0.313
		c0.185,0.206,0.374,0.407,0.564,0.603c0.086,0.088,0.169,0.178,0.255,0.263c0.277,0.274,0.558,0.543,0.848,0.8
		c0.009,0.009,0.02,0.016,0.03,0.024c0.28,0.249,0.568,0.485,0.86,0.715c0.098,0.078,0.198,0.151,0.297,0.227
		c0.211,0.16,0.423,0.316,0.639,0.468c0.113,0.078,0.227,0.156,0.34,0.232c0.219,0.146,0.441,0.289,0.665,0.426
		c0.105,0.065,0.208,0.132,0.313,0.193c0.324,0.192,0.653,0.378,0.986,0.551c0.028,0.014,0.055,0.026,0.082,0.041
		c0.311,0.159,0.625,0.309,0.941,0.451c0.116,0.053,0.233,0.102,0.349,0.152c0.235,0.099,0.472,0.196,0.709,0.289
		c0.129,0.049,0.257,0.098,0.387,0.145c0.243,0.088,0.486,0.171,0.731,0.251c0.117,0.036,0.233,0.076,0.352,0.111
		c0.356,0.107,0.715,0.208,1.076,0.297c0.039,0.009,0.077,0.016,0.116,0.025c0.327,0.076,0.657,0.146,0.987,0.208
		c0.125,0.023,0.251,0.044,0.377,0.065c0.25,0.041,0.5,0.08,0.752,0.112c0.135,0.018,0.272,0.033,0.41,0.05
		c0.255,0.027,0.513,0.05,0.771,0.069c0.122,0.009,0.243,0.02,0.365,0.027c0.373,0.02,0.745,0.032,1.12,0.032
		c0.004,0,0.01,0.001,0.015,0.001c0.021,0,0.042-0.002,0.062-0.002c0.416-0.001,0.831-0.02,1.246-0.045
		c0.115-0.008,0.228-0.016,0.343-0.025c0.437-0.034,0.872-0.078,1.306-0.142c0.019-0.003,0.038-0.007,0.057-0.01
		c0.42-0.062,0.837-0.141,1.255-0.229c0.11-0.024,0.223-0.048,0.333-0.074c0.434-0.099,0.865-0.208,1.294-0.337
		c0.01-0.004,0.018-0.006,0.026-0.009c0.421-0.127,0.837-0.273,1.252-0.429c0.106-0.039,0.213-0.08,0.318-0.121
		c0.422-0.165,0.842-0.342,1.256-0.537c0.004-0.002,0.008-0.004,0.012-0.006c0.41-0.194,0.814-0.407,1.215-0.632
		c0.102-0.057,0.203-0.113,0.303-0.171c0.402-0.234,0.801-0.478,1.192-0.742c3.526-2.377,6.08-5.665,7.561-9.344
		c2.468-6.126,1.953-13.333-2.01-19.21C142.079,169.96,141.84,169.635,141.597,169.316z"/>
	<path fill="#231F20" d="M265.677,88.224l-0.881-1.984l-1.801,1.215l-15.359,10.36l-1.229,0.828l0.559,1.37
		c5.008,12.283,7.545,25.323,7.545,38.757c0,27.411-10.674,53.181-30.059,72.564c-6.008,6.008-12.664,11.188-19.813,15.487
		l-7.484-21.36l-44.02,51.195l18.342,3.46v0.006l4.369,0.82c0.001,0,0.002,0,0.002,0l0.577,0.108l17.63,3.311l-0.003,0.016
		l25.431,4.799l-7.496-21.393c13.166-7.271,25.033-16.926,34.906-28.57c19.012-22.429,29.482-50.999,29.482-80.444
		C276.375,121.187,272.777,104.182,265.677,88.224z"/>
	<path fill="#231F20" d="M79.304,211.333c-19.382-19.383-30.057-45.154-30.057-72.564c0-5.251,0.39-10.436,1.159-15.537
		l23.023,4.345L51.099,63.862L7.084,115.057l21.831,4.119c-1.014,6.43-1.532,12.968-1.532,19.594
		c0,29.445,10.471,58.015,29.483,80.444c18.792,22.169,44.816,37.137,73.279,42.147l2.137,0.378v-2.172v-18.546v-1.482l-1.453-0.301
		C111.338,235.199,93.521,225.549,79.304,211.333z"/>
	<path fill="#231F20" d="M79.736,63.792l1.202,0.813l1.061-0.989c19.018-17.712,43.831-27.466,69.885-27.466
		c17.514,0,34.396,4.383,49.365,12.616L186.31,66.139l66.346,12.52l-22.33-63.715l-14.572,16.952
		c-4.631-2.771-9.451-5.249-14.449-7.414c-15.625-6.767-32.25-10.198-49.42-10.198c-33.164,0-64.357,12.883-87.849,36.273
		l-1.568,1.563l1.833,1.238L79.736,63.792z"/>
	<path fill="#010101" d="M138.129,144.498c17.84-5.496,30.808-22.098,30.808-41.74c0-12.063-4.888-22.983-12.793-30.889
		s-18.826-12.794-30.89-12.794c-24.125,0-43.682,19.558-43.682,43.683c0,15.269,7.837,28.696,19.705,36.502
		c3.302,2.172,6.917,3.908,10.762,5.128l-0.234-3.619l-0.075-1.155l1.11-0.323c2.352-0.687,4.785-1.183,7.232-1.471l1.148-0.136
		l0,0.001h0.001l0.382,1.092l2.488,7.111l0.188,0.537c0.005,0,0.011,0,0.016,0c0.319,0.007,0.637,0.016,0.958,0.016
		c0.223,0,0.441-0.014,0.663-0.017l0.171-0.503l2.441-7.176l0.374-1.096l1.149,0.125c2.442,0.267,4.88,0.741,7.245,1.41l1.111,0.314
		l0.001,0.001l-0.064,1.154L138.129,144.498z M156.73,123.177l-10.113-5.84l1.946-3.371l10.11,5.838l0.004,0.001L156.73,123.177z
		 M162.951,100.582c0.062,0.061,0.095,0.143,0.095,0.229v3.893c0,0.179-0.145,0.323-0.325,0.323h-11.677h-0.001
		c-0.18,0-0.323-0.145-0.323-0.323v-3.895c0-0.085,0.034-0.167,0.095-0.229c0.061-0.06,0.144-0.095,0.229-0.095h0.001h11.677
		C162.806,100.486,162.889,100.521,162.951,100.582z M146.614,88.176l10.113-5.837l1.945,3.371l-7.135,4.118l-2.977,1.719h-0.002
		l-1.947-3.37L146.614,88.176z M142.303,69.338l3.37,1.945l0.002,0.002l-5.841,10.112l-3.371-1.947L142.303,69.338z M122.984,65.292
		c0-0.18,0.146-0.325,0.324-0.325h3.893c0.179,0,0.324,0.146,0.324,0.325v11.678v0.001c0,0.179-0.145,0.323-0.324,0.323h-3.893
		c-0.179,0-0.324-0.146-0.324-0.324V65.292z M93.78,82.339l10.113,5.838l-1.946,3.37l0,0.002L91.834,85.71h0L93.78,82.339z
		 M87.463,104.705L87.463,104.705v-3.892v-0.001c0-0.086,0.034-0.168,0.095-0.229c0.03-0.03,0.066-0.054,0.105-0.071
		c0.022-0.009,0.046-0.01,0.07-0.013c0.018-0.004,0.036-0.012,0.055-0.012h11.678c0.179,0,0.324,0.146,0.324,0.325v3.892
		c0,0.087-0.034,0.169-0.095,0.229s-0.143,0.096-0.229,0.097H87.788C87.609,105.03,87.463,104.884,87.463,104.705z M93.78,123.178
		l-1.946-3.371l0.001-0.001l10.112-5.839l1.946,3.37l0.001,0.001L93.78,123.178z M108.207,69.336l5.839,10.112l-0.001,0.001
		l-3.371,1.946l-5.839-10.113L108.207,69.336z M108.21,136.179l-3.372-1.947l5.839-10.112l3.368,1.944l0.003,0.003L108.21,136.179z
		 M127.525,128.546v11.678c0,0.18-0.145,0.324-0.324,0.324h-3.892c-0.18,0-0.325-0.145-0.325-0.324v-11.678v-0.001
		c0-0.179,0.145-0.324,0.325-0.324h3.892C127.38,128.221,127.525,128.367,127.525,128.546L127.525,128.546z M131.15,103.301
		c-0.247,2.694-2.3,4.86-4.937,5.291c0.208,0.076,0.339,0.177,0.339,0.29v10.164c0,0.239-0.581,0.435-1.298,0.435
		c-0.717,0-1.298-0.195-1.298-0.435v-10.164c0-0.111,0.131-0.214,0.339-0.29c-2.637-0.431-4.69-2.597-4.937-5.291
		c-0.016-0.18-0.025-0.361-0.025-0.546c0-3.269,2.65-5.919,5.92-5.919c0.205,0,0.407,0.011,0.608,0.03
		c1.397,0.143,2.651,0.771,3.589,1.715l14.191-7.888c0.054-0.029,0.11-0.051,0.168-0.063c0.411-0.09,0.929,0.221,1.233,0.769
		c0.044,0.079,0.081,0.159,0.111,0.237c0.061,0.16,0.099,0.318,0.11,0.471c0.028,0.378-0.097,0.708-0.362,0.855l-14.074,7.821
		c0.22,0.616,0.346,1.279,0.346,1.972C131.175,102.94,131.166,103.122,131.15,103.301z M136.461,126.065l0.003-0.001l3.368-1.945
		l5.84,10.113l-0.967,0.558l-2.405,1.39L136.461,126.065z"/>
	<path fill="#010101" d="M150.51,204.306l0.002,0.001c0-0.001,0-0.001,0-0.001l8.373,4.03c1.475-1.871,2.792-3.862,3.938-5.953
		l-0.908-0.798l-0.144,0.571v-0.006l-0.001,0.006v-0.699l-5.928-5.206c0.511-1.084,0.966-2.192,1.359-3.325h0.001l4.567,0.257
		v-2.621v-5.409l-3.207-1.187l-0.825-0.307l-1.353-0.5l0.5-1.354l0.798-2.156l0.129-0.344l3.4-9.184l-4.068,0.264v0.712h-0.001
		h-1.44h-0.002h-4.065h-0.002c-5.677,0-10.294-4.314-10.294-9.619c0-3.979,2.67-7.555,6.594-8.97
		c0.278-0.102,0.564-0.193,0.856-0.271c0.004-0.003,0.009-0.003,0.014-0.004c0.374-0.101,0.753-0.175,1.132-0.234
		c0.003-0.002,0.008-0.003,0.013-0.004l1.844-3.829c-1.871-1.477-3.861-2.795-5.952-3.939l-6.132,6.979h-0.001
		c-1.084-0.513-2.194-0.966-3.323-1.36l0.275-4.92l0.244-4.355c-2.294-0.648-4.638-1.104-7.008-1.363l-2.442,7.177l-0.551,1.62
		c0,0-0.001,0-0.001,0c-0.573-0.028-1.145-0.04-1.717-0.039c-0.625,0-1.25,0.018-1.875,0.055c0,0,0,0-0.001,0l-0.581-1.659
		l-2.489-7.11c-2.368,0.279-4.708,0.754-6.995,1.423l0.27,4.156l0.331,5.117c-1.127,0.404-2.234,0.866-3.313,1.389l0-0.001
		c0,0.001,0,0.001-0.001,0.001l-6.192-6.927c-2.08,1.164-4.06,2.499-5.918,3.992l4.103,8.337c-0.888,0.804-1.731,1.656-2.529,2.55
		l-0.001-0.001c0,0.001,0,0.001,0,0.001l-8.372-4.029c-1.478,1.871-2.794,3.863-3.939,5.953l6.981,6.131
		c-0.511,1.084-0.967,2.192-1.36,3.324h-0.001l-9.275-0.521c-0.648,2.294-1.104,4.638-1.362,7.009l8.796,2.992
		c-0.059,1.197-0.054,2.397,0.016,3.592l-8.77,3.07c0.278,2.368,0.755,4.708,1.423,6.996l9.271-0.601h0.001
		c0.405,1.128,0.868,2.234,1.39,3.313l-6.927,6.191c1.164,2.08,2.5,4.061,3.992,5.918l8.335-4.102h0h0.001
		c0.805,0.889,1.656,1.731,2.55,2.528l-4.031,8.372c1.871,1.477,3.863,2.794,5.953,3.939l6.132-6.98c0,0,0,0,0.001,0.001v-0.001
		c1.083,0.512,2.191,0.967,3.323,1.36l-0.52,9.276c1.147,0.324,2.307,0.6,3.476,0.828c0.82,0.16,1.647,0.287,2.477,0.398
		c0.352,0.047,0.703,0.099,1.056,0.137l2.993-8.796c0,0,0.001,0,0.002,0c0.004,0,0.009,0,0.013,0.001
		c0.568,0.026,1.135,0.038,1.703,0.037c0.625-0.001,1.25-0.019,1.874-0.055c0,0,0.001,0,0.001,0l3.07,8.77
		c2.366-0.278,4.707-0.753,6.994-1.423l-0.602-9.271c1.128-0.405,2.235-0.867,3.313-1.389h0.001c0,0,0,0,0.001,0l6.191,6.926
		c2.081-1.163,4.061-2.499,5.918-3.99l-4.104-8.337C148.871,206.052,149.713,205.2,150.51,204.306z M144.315,189.504
		c-1.48,3.679-4.034,6.967-7.561,9.344c-0.392,0.265-0.79,0.508-1.192,0.742c-0.101,0.058-0.201,0.114-0.303,0.171
		c-0.401,0.225-0.805,0.438-1.215,0.632c-0.003,0.002-0.007,0.004-0.012,0.006c-0.414,0.195-0.833,0.372-1.256,0.537
		c-0.105,0.041-0.212,0.082-0.318,0.121c-0.415,0.155-0.831,0.302-1.252,0.429c-0.009,0.003-0.017,0.005-0.026,0.009
		c-0.429,0.129-0.86,0.238-1.294,0.337c-0.11,0.026-0.222,0.05-0.333,0.074c-0.418,0.089-0.835,0.168-1.255,0.229
		c-0.019,0.003-0.038,0.007-0.057,0.01c-0.435,0.063-0.87,0.107-1.306,0.142c-0.115,0.01-0.228,0.018-0.343,0.025
		c-0.416,0.025-0.831,0.044-1.246,0.045c-0.02,0-0.041,0.002-0.062,0.002c-0.005,0-0.011-0.001-0.015-0.001
		c-0.375,0-0.747-0.013-1.12-0.032c-0.123-0.008-0.243-0.019-0.365-0.027c-0.257-0.02-0.515-0.042-0.771-0.069
		c-0.137-0.017-0.274-0.032-0.41-0.05c-0.252-0.032-0.503-0.071-0.752-0.112c-0.126-0.021-0.253-0.042-0.377-0.065
		c-0.33-0.062-0.66-0.132-0.987-0.208c-0.039-0.01-0.077-0.017-0.116-0.025c-0.361-0.089-0.72-0.189-1.076-0.297
		c-0.118-0.035-0.234-0.075-0.352-0.111c-0.245-0.08-0.488-0.163-0.731-0.251c-0.13-0.047-0.258-0.096-0.387-0.145
		c-0.238-0.093-0.474-0.19-0.709-0.289c-0.116-0.051-0.233-0.1-0.349-0.152c-0.316-0.143-0.63-0.292-0.941-0.451
		c-0.026-0.015-0.054-0.027-0.082-0.041c-0.333-0.173-0.662-0.358-0.986-0.551c-0.105-0.062-0.208-0.128-0.313-0.193
		c-0.224-0.137-0.445-0.28-0.665-0.426c-0.114-0.076-0.228-0.154-0.34-0.232c-0.216-0.151-0.428-0.308-0.639-0.468
		c-0.099-0.075-0.199-0.148-0.297-0.227c-0.292-0.229-0.58-0.466-0.86-0.715c-0.01-0.009-0.021-0.016-0.03-0.024
		c-0.29-0.257-0.571-0.525-0.848-0.8c-0.086-0.085-0.169-0.175-0.255-0.263c-0.191-0.195-0.379-0.396-0.564-0.603
		c-0.092-0.103-0.183-0.207-0.273-0.313c-0.181-0.21-0.357-0.425-0.531-0.644c-0.076-0.1-0.156-0.195-0.231-0.293
		c-0.243-0.319-0.48-0.644-0.707-0.981c-4.36-6.464-4.546-14.537-1.18-21.013c1.529-2.944,3.792-5.559,6.731-7.54
		c0.392-0.264,0.791-0.507,1.193-0.741c0.101-0.058,0.202-0.114,0.303-0.172c0.402-0.225,0.809-0.439,1.221-0.635
		c0.001-0.001,0.002-0.001,0.003-0.001c0.415-0.197,0.837-0.373,1.262-0.54c0.103-0.04,0.205-0.079,0.309-0.118
		c0.421-0.158,0.847-0.307,1.275-0.436c0.001,0,0.003-0.001,0.005-0.001c0.433-0.131,0.869-0.24,1.305-0.341
		c0.105-0.024,0.212-0.049,0.317-0.071c0.428-0.09,0.856-0.172,1.287-0.234c0.01-0.001,0.019-0.005,0.028-0.006
		c0.438-0.063,0.877-0.106,1.316-0.143c0.111-0.008,0.222-0.017,0.333-0.023c0.417-0.027,0.834-0.044,1.25-0.047
		c0.02,0,0.041-0.001,0.061-0.001c0.004,0,0.01,0,0.015,0c0.375,0,0.747,0.014,1.12,0.034c0.122,0.007,0.243,0.018,0.365,0.025
		c0.258,0.021,0.515,0.042,0.772,0.071c0.136,0.015,0.273,0.031,0.41,0.048c0.251,0.034,0.501,0.072,0.751,0.114
		c0.125,0.021,0.251,0.041,0.377,0.063c0.331,0.062,0.661,0.132,0.989,0.21c0.038,0.01,0.077,0.015,0.115,0.025
		c0.361,0.089,0.72,0.188,1.076,0.297c0.118,0.034,0.234,0.074,0.352,0.113c0.245,0.077,0.488,0.159,0.73,0.248
		c0.13,0.048,0.259,0.096,0.389,0.145c0.238,0.093,0.473,0.189,0.708,0.29c0.116,0.05,0.233,0.099,0.349,0.15
		c0.317,0.144,0.63,0.293,0.941,0.453c0.026,0.015,0.054,0.025,0.082,0.04c0.333,0.173,0.661,0.357,0.986,0.55
		c0.105,0.063,0.208,0.129,0.313,0.194c0.224,0.138,0.445,0.279,0.664,0.425c0.114,0.077,0.228,0.155,0.34,0.234
		c0.216,0.15,0.429,0.306,0.638,0.467c0.1,0.073,0.2,0.149,0.299,0.227c0.29,0.229,0.577,0.466,0.856,0.712
		c0.012,0.011,0.022,0.018,0.034,0.027c0.289,0.257,0.57,0.524,0.847,0.799c0.086,0.086,0.171,0.176,0.256,0.263
		c0.19,0.197,0.378,0.398,0.563,0.603c0.093,0.104,0.184,0.208,0.275,0.313c0.18,0.211,0.355,0.424,0.527,0.643
		c0.078,0.099,0.158,0.194,0.233,0.295c0.243,0.319,0.481,0.645,0.708,0.979C146.268,176.171,146.783,183.378,144.315,189.504z"/>
	<path d="M225.45,169.655c4.888,0,8.852-3.659,8.852-8.176c0-3.668-2.615-6.773-6.219-7.809c-0.83-0.238-1.714-0.367-2.631-0.367
		h-4.067v5.313h-11.509v-0.001h-0.002l-12.071-32.589c3.083-2.627,5.039-6.533,5.039-10.899c0-6.155-3.883-11.401-9.333-13.426
		c-0.777-0.29-1.59-0.513-2.424-0.664c-0.002,0-0.002,0-0.002,0v-7.654h-5.727v7.775c-6.387,1.441-11.158,7.146-11.158,13.969
		c0,4.308,1.904,8.169,4.915,10.795l-12.102,32.693h-0.001h-5.738h-0.001h-5.566h-0.003v-2.2v-3.112h-4.065
		c-0.858,0-1.686,0.119-2.473,0.33c-3.685,0.989-6.38,4.124-6.38,7.847c0,3.387,2.229,6.293,5.406,7.534
		c1.058,0.413,2.222,0.642,3.442,0.642h4.067v-5.312h0.002h3.068h0.003h6.117l-2.101,5.677l-3.623,9.786l-0.127,0.344l-0.799,2.157
		l0.308,0.114l0.517,0.191l4.148,1.536v0.714v5.692l1.324-5.241l0.188-0.741l2.851-7.711l0.169-0.456l4.461-12.063h0.002h9.411
		v-5.728h-7.289v-0.001h-0.002l10.939-29.54c1.046,0.242,2.132,0.374,3.249,0.374c1.065,0,2.1-0.12,3.101-0.34v0.001l0.002-0.001
		l10.929,29.507h-10.758v-0.001v-7.785h-7.145v21.164h7.145v-7.65h12.876v0.001h0.002l7.494,20.231l1.513,5.979v-6.406l4.974-1.841
		l-6.653-17.965h9.387v0.001h0.002v5.311H225.45z M188.517,120.624c-0.568,0-1.117-0.087-1.635-0.247
		c-2.236-0.696-3.862-2.782-3.862-5.25c0-3.036,2.462-5.498,5.497-5.498c3.037,0,5.499,2.462,5.499,5.498
		S191.554,120.624,188.517,120.624z"/>
	<path fill="#010101" d="M157.145,156.415L157.145,156.415v0.758h3.146c-0.525-0.751-1.066-1.492-1.641-2.207l-1.505,0.74V156.415z"
		/>
	<path fill="#010101" d="M164.612,190.917l-0.605,2.391l2.474,0.139c0.647-2.293,1.104-4.638,1.36-7.008l-1.932-0.656
		L164.612,190.917z"/>
</g>
</svg>
