<?xml version="1.0" encoding="utf-8"?>
<!-- Generator: Adobe Illustrator 15.1.0, SVG Export Plug-In . SVG Version: 6.00 Build 0)  -->
<!DOCTYPE svg PUBLIC "-//W3C//DTD SVG 1.1//EN" "http://www.w3.org/Graphics/SVG/1.1/DTD/svg11.dtd">
<svg version="1.1" id="Layer_2" xmlns="http://www.w3.org/2000/svg" xmlns:xlink="http://www.w3.org/1999/xlink" x="0px" y="0px"
	 width="283.465px" height="283.465px" viewBox="0 0 283.465 283.465" enable-background="new 0 0 283.465 283.465"
	 xml:space="preserve">
<g>
	<path d="M280.628,75.444V46.775h-3.664c0-2.385-1.92-4.319-4.324-4.319c-2.385,0-4.313,1.934-4.313,4.319H15.129
		c0-2.385-1.925-4.319-4.319-4.319S6.5,44.39,6.5,46.775H2.835v28.684H6.5v130.977H2.835v11.246H140.49v12.614
		c-2.395,0.569-4.188,2.703-4.188,5.283c0,2.996,2.429,5.43,5.43,5.43s5.431-2.434,5.431-5.43c0-2.58-1.794-4.732-4.188-5.283
		v-12.614H280.63v-11.246h-3.664V75.444H280.628z M8.655,46.774c0-1.193,0.971-2.152,2.162-2.152c1.193,0,2.167,0.969,2.167,2.152
		H8.655z M144.441,235.57c0,1.502-1.222,2.705-2.71,2.705c-1.498,0-2.71-1.203-2.71-2.705c0-1.484,1.212-2.705,2.71-2.705
		C143.22,232.865,144.441,234.086,144.441,235.57z M268.529,206.436H14.938V75.487h253.591V206.436L268.529,206.436z
		 M270.487,46.774c0-1.193,0.971-2.152,2.172-2.152c1.184,0,2.152,0.969,2.152,2.152H270.487z"/>
</g>
</svg>
