<?xml version="1.0" encoding="utf-8"?>
<!-- Generator: Adobe Illustrator 15.1.0, SVG Export Plug-In . SVG Version: 6.00 Build 0)  -->
<!DOCTYPE svg PUBLIC "-//W3C//DTD SVG 1.1//EN" "http://www.w3.org/Graphics/SVG/1.1/DTD/svg11.dtd">
<svg version="1.1" xmlns="http://www.w3.org/2000/svg" xmlns:xlink="http://www.w3.org/1999/xlink" x="0px" y="0px"
	 width="283.46px" height="283.46px" viewBox="0 0 283.46 283.46" enable-background="new 0 0 283.46 283.46" xml:space="preserve">
<g id="Layer_8" display="none">
</g>
<g id="Layer_3">
</g>
<g id="Layer_2">
	<g>
		<path fill="none" d="M121.209,158.639c-3.085,0.001-6.069,0.914-8.631,2.642c-7.076,4.772-8.95,14.413-4.177,21.489
			c2.879,4.27,7.687,6.818,12.859,6.818c3.084,0,6.069-0.913,8.63-2.641c3.422-2.309,5.742-5.817,6.531-9.882
			c0.79-4.063-0.046-8.187-2.354-11.608C131.188,161.188,126.381,158.639,121.209,158.639z"/>
		<path fill="none" d="M151.64,161.153h-2.829l-1.498,1.339c0.172,0.384,0.335,0.773,0.489,1.166l2.982-0.193L151.64,161.153z"/>
		<path fill="none" d="M121.231,146.73c-0.018,0-0.035,0.001-0.052,0.001c0.463-0.001,0.926,0.009,1.39,0.031
			C122.123,146.741,121.677,146.73,121.231,146.73z"/>
		<path fill="none" d="M121.232,201.497c0.019,0,0.039-0.002,0.058-0.002c-0.464,0.001-0.927-0.008-1.391-0.03
			C120.343,201.486,120.788,201.497,121.232,201.497z"/>
		<path fill="none" d="M131.457,147.455c0.394,0.151,0.784,0.311,1.171,0.479l4.181-4.761c-1.67,0.787-3.415,1.452-5.223,1.985
			L131.457,147.455z"/>
		<path fill="none" d="M150.791,188.473v-3.974l-2.898-0.162c-0.15,0.392-0.311,0.781-0.479,1.17L150.791,188.473z"/>
		<path fill="none" d="M105.178,143.073l4.435,4.962c0.384-0.171,0.773-0.334,1.167-0.488l-0.16-2.469
			c-1.971-0.599-3.863-1.354-5.666-2.255L105.178,143.073z"/>
		<path fill="none" d="M141.726,60.378c-44.901,0-81.352,36.452-81.354,81.35c0,44.901,36.452,81.355,81.354,81.355
			c44.911,0,81.362-36.455,81.362-81.355C223.088,96.831,186.637,60.378,141.726,60.378z M210.665,157.668
			c0,4.293-3.738,7.785-8.333,7.785h-3.291h-1.168v-1.167v-3.133h-4.753l4.803,12.968l0.405,1.095l-1.095,0.405l-3.263,1.209v4.378
			v9.371l-2.3-9.084l-1.211-4.787l-5.761-15.555h-8.442v5.026v1.167h-1.168h-5.784h-1.168v-1.167v-17.132v-1.167h1.168h5.784h1.168
			v1.167v5.135h5.86l-7.924-21.395c-0.583,0.082-1.17,0.122-1.753,0.122c-0.625,0-1.253-0.047-1.877-0.14l-7.93,21.413h4.224h1.167
			v1.167v4.637v1.167h-1.167h-6.806l-3.227,8.727c0.001,0.014,0.004,0.026,0.005,0.04l0.108,0.929l-0.542,0.19l-1.916,5.182
			l1.6,0.544l0.887,0.302l-0.102,0.931c-0.216,1.979-0.599,3.951-1.139,5.864l-0.255,0.9l-0.934-0.053l-2.229-0.125l-1.08,4.274
			l1.185,1.04l0.704,0.618l-0.451,0.82c-0.959,1.749-2.068,3.425-3.297,4.981l-0.579,0.734l-0.844-0.406l-5.997-2.887
			c-0.29,0.306-0.587,0.605-0.89,0.898l2.94,5.971l0.413,0.84l-0.729,0.586c-1.551,1.247-3.218,2.37-4.953,3.341l-0.817,0.457
			l-0.624-0.698l-4.436-4.962c-0.385,0.171-0.774,0.334-1.167,0.489l0.431,6.641l0.06,0.934l-0.897,0.264
			c-1.904,0.556-3.874,0.957-5.854,1.189l-0.929,0.11l-0.31-0.884l-2.198-6.281c-0.254,0.007-0.508,0.011-0.759,0.011
			c-0.168,0-0.337-0.002-0.506-0.005l-2.144,6.302l-0.302,0.886l-0.931-0.102c-1.975-0.216-3.948-0.6-5.863-1.141l-0.901-0.255
			l0.053-0.935l0.372-6.645c-0.393-0.15-0.783-0.311-1.17-0.479l-4.392,5l-0.617,0.703l-0.821-0.449
			c-1.743-0.955-3.419-2.064-4.982-3.297l-0.734-0.58l0.406-0.843l2.887-5.997c-0.305-0.29-0.605-0.587-0.898-0.891l-5.971,2.938
			l-0.839,0.413l-0.586-0.729c-1.245-1.551-2.369-3.216-3.34-4.952l-0.458-0.817l0.698-0.623l4.962-4.435
			c-0.172-0.386-0.335-0.774-0.49-1.167l-6.641,0.431l-0.934,0.061l-0.262-0.898c-0.558-1.911-0.959-3.88-1.191-5.854l-0.109-0.93
			l0.883-0.309l6.281-2.199c-0.011-0.421-0.013-0.843-0.006-1.264l-6.3-2.145l-0.886-0.301l0.102-0.931
			c0.215-1.977,0.599-3.949,1.14-5.863l0.254-0.901l0.935,0.052l6.645,0.373c0.15-0.392,0.31-0.782,0.479-1.17l-5-4.392
			l-0.703-0.617l0.45-0.821c0.957-1.746,2.066-3.423,3.297-4.981l0.58-0.734l0.843,0.406l5.997,2.887
			c0.291-0.307,0.588-0.606,0.89-0.898l-2.939-5.97l-0.413-0.84l0.729-0.586c1.55-1.246,3.217-2.37,4.953-3.341l0.585-0.327
			c-11.835-6.203-19.613-18.623-19.613-32.368c0-20.14,16.385-36.525,36.525-36.525c20.141,0,36.526,16.385,36.526,36.525
			c0,13.781-7.771,26.177-19.615,32.372l0.312,0.171c1.741,0.952,3.417,2.063,4.982,3.297l0.735,0.58l-0.406,0.844l-1.195,2.481
			c0.004,0,0.01-0.001,0.015-0.001h3.292h1.168v1.168v0.644l0.703-0.346l0.84-0.414l0.586,0.729c0.627,0.782,1.243,1.629,1.837,2.52
			h3.206l9.242-24.971c-2.413-2.391-3.781-5.648-3.781-9.062c0-5.689,3.669-10.582,9.031-12.204v-5.396v-1.167h1.168h4.637h1.167
			v1.167v5.258c5.57,1.454,9.519,6.496,9.519,12.341c0,3.465-1.403,6.757-3.877,9.156l9.213,24.877h7.336v-3.133v-1.168h1.168h3.291
			C206.927,149.882,210.665,153.375,210.665,157.668z"/>
		<path fill="#010101" d="M110.349,140.905l-0.061-0.934l0.898-0.263c1.904-0.556,3.873-0.957,5.854-1.19l0.93-0.11l0.31,0.884
			l2.014,5.756l0.152,0.435c0.262,0.007,0.524,0.014,0.789,0.014c0.18,0,0.357-0.011,0.537-0.014l0.138-0.407l1.976-5.809
			l0.302-0.886l0.93,0.102c1.978,0.215,3.951,0.599,5.864,1.141l0.9,0.254l-0.052,0.935l-0.174,3.112
			c14.44-4.449,24.938-17.887,24.938-33.786c0-19.528-15.831-35.358-35.359-35.358c-19.527,0-35.357,15.83-35.357,35.358
			c0,15.797,10.366,29.163,24.662,33.697L110.349,140.905z M123.072,140.463c0,0.146-0.117,0.262-0.263,0.262h-3.15
			c-0.146,0-0.263-0.117-0.263-0.262v-9.452c0-0.145,0.117-0.262,0.263-0.262h3.15c0.146,0,0.263,0.117,0.263,0.262V140.463z
			 M136.978,136.065l-1.946,1.125l-4.727-8.186l0.002-0.001l2.726-1.574l4.727,8.186L136.978,136.065z M146.711,126.666
			l-8.186-4.727l1.575-2.729l8.184,4.725l0.002,0.001L146.711,126.666z M151.746,108.376c0.049,0.049,0.076,0.116,0.076,0.186v3.151
			c0,0.145-0.117,0.262-0.262,0.262h-9.453c-0.145,0-0.262-0.118-0.262-0.262v-3.152c0-0.069,0.027-0.136,0.077-0.186
			s0.116-0.077,0.186-0.077h9.453C151.63,108.299,151.696,108.327,151.746,108.376z M138.523,98.336l8.186-4.725l1.574,2.729v0
			l-5.775,3.333l-2.41,1.391l-0.001,0l-1.575-2.729L138.523,98.336z M130.307,91.274l4.727-8.186l2.728,1.575l0.001,0.001
			l-4.727,8.186L130.307,91.274L130.307,91.274z M119.396,79.813c0-0.146,0.118-0.263,0.263-0.263h3.151
			c0.145,0,0.262,0.117,0.262,0.263v9.452c0,0.145-0.117,0.262-0.262,0.262h-3.151c-0.145,0-0.263-0.117-0.263-0.262V79.813z
			 M121.234,105.346c0.166,0,0.33,0.008,0.492,0.024c1.13,0.115,2.145,0.625,2.904,1.388l11.487-6.384
			c0.345-0.192,0.853,0.063,1.134,0.571c0.036,0.063,0.065,0.128,0.09,0.192c0.049,0.129,0.08,0.258,0.089,0.381
			c0.023,0.306-0.078,0.573-0.293,0.692l-11.391,6.331c0.177,0.5,0.279,1.036,0.279,1.597c0,2.382-1.74,4.353-4.017,4.724
			c0.169,0.062,0.275,0.144,0.275,0.235v8.227c0,0.194-0.47,0.352-1.051,0.352s-1.051-0.158-1.051-0.352v-8.227
			c0-0.091,0.106-0.173,0.275-0.235c-2.276-0.372-4.016-2.342-4.016-4.724C116.442,107.49,118.587,105.346,121.234,105.346z
			 M95.759,93.611l8.186,4.726l-1.575,2.729l-8.185-4.726h0L95.759,93.611z M90.646,111.713v-3.15c0-0.07,0.028-0.136,0.077-0.186
			c0.024-0.024,0.054-0.044,0.085-0.057c0.018-0.007,0.038-0.008,0.056-0.011c0.015-0.003,0.029-0.009,0.045-0.009h9.452
			c0.145,0,0.263,0.118,0.263,0.263v3.15c0,0.07-0.028,0.136-0.077,0.186c-0.05,0.049-0.117,0.077-0.186,0.077h-9.452
			C90.764,111.976,90.646,111.858,90.646,111.713z M95.759,126.667l-1.576-2.729l0.001,0l8.185-4.726l1.575,2.727l0,0.001
			L95.759,126.667z M107.436,83.086l4.726,8.186l0,0l-2.728,1.575l-4.726-8.186L107.436,83.086z M104.71,135.614l4.726-8.186
			l2.726,1.574l0.003,0.001l-4.726,8.186L104.71,135.614z"/>
		<path fill="#010101" d="M148.265,152.395l-1.218,0.6v0.575v0.613h2.547C149.168,153.573,148.73,152.974,148.265,152.395z"/>
		<path fill="#010101" d="M150.791,190.592v-0.565l-4.798-4.213c0.413-0.877,0.781-1.775,1.101-2.691l3.697,0.208v-2.122v-4.378
			l-2.597-0.961l-0.666-0.247l-1.096-0.405l0.405-1.096l0.646-1.745l0.104-0.279l2.752-7.434l-3.293,0.214v0.576h-1.168h-3.292
			c-4.594,0-8.333-3.492-8.333-7.785c0-3.45,2.479-6.525,6.029-7.479c0.311-0.083,0.625-0.145,0.939-0.194l1.493-3.1
			c-1.515-1.195-3.127-2.264-4.819-3.19l-4.963,5.651c-0.877-0.415-1.775-0.783-2.69-1.102l0.223-3.983l0.198-3.525
			c-1.857-0.525-3.755-0.894-5.673-1.103l-1.976,5.809l-0.446,1.312c-0.463-0.022-0.926-0.032-1.39-0.031
			c-0.506,0.001-1.012,0.015-1.518,0.044l-0.47-1.342l-2.014-5.756c-1.917,0.227-3.812,0.611-5.664,1.152l0.218,3.364l0.268,4.141
			c-0.912,0.328-1.808,0.702-2.681,1.125l-5.012-5.607c-1.684,0.941-3.287,2.022-4.792,3.232l3.322,6.747
			c-0.718,0.65-1.401,1.341-2.047,2.064l-6.777-3.263c-1.196,1.515-2.262,3.127-3.189,4.819l5.65,4.962
			c-0.414,0.877-0.782,1.775-1.101,2.691l-7.509-0.422c-0.524,1.857-0.894,3.755-1.103,5.673l7.12,2.424
			c-0.047,0.968-0.043,1.938,0.013,2.906l-7.098,2.484c0.225,1.917,0.611,3.811,1.152,5.663l7.505-0.486
			c0.327,0.913,0.702,1.808,1.125,2.682l-5.607,5.011c0.942,1.684,2.023,3.287,3.231,4.791l6.748-3.321
			c0.652,0.719,1.34,1.401,2.064,2.047l-3.263,6.776c1.515,1.195,3.127,2.263,4.819,3.189l4.963-5.65
			c0.876,0.414,1.774,0.782,2.69,1.101l-0.421,7.509c1.857,0.524,3.754,0.894,5.673,1.104l2.423-7.12
			c0.463,0.022,0.927,0.031,1.391,0.03c0.505-0.001,1.011-0.014,1.516-0.043l2.485,7.098c1.916-0.226,3.811-0.61,5.663-1.151
			l-0.487-7.506c0.913-0.326,1.809-0.701,2.682-1.123l5.012,5.606c1.685-0.941,3.287-2.022,4.792-3.231l-3.322-6.747
			c0.719-0.652,1.401-1.341,2.046-2.065l6.777,3.263c1.195-1.514,2.262-3.126,3.189-4.819l-0.736-0.646L150.791,190.592z
			 M130.543,187.915c-0.317,0.214-0.64,0.41-0.966,0.6c-0.081,0.048-0.164,0.094-0.246,0.14c-0.324,0.181-0.651,0.354-0.983,0.511
			c-0.002,0.002-0.005,0.004-0.009,0.005c-0.335,0.158-0.675,0.301-1.017,0.435c-0.085,0.034-0.172,0.066-0.258,0.099
			c-0.336,0.126-0.673,0.244-1.014,0.347c-0.007,0.002-0.014,0.005-0.021,0.007c-0.347,0.104-0.697,0.192-1.047,0.272
			c-0.089,0.021-0.18,0.041-0.269,0.06c-0.338,0.072-0.676,0.137-1.016,0.187c-0.015,0.002-0.031,0.006-0.046,0.008
			c-0.352,0.051-0.704,0.087-1.057,0.115c-0.093,0.007-0.185,0.014-0.278,0.02c-0.335,0.021-0.672,0.035-1.008,0.036
			c-0.017,0-0.033,0.002-0.049,0.002c-0.005,0-0.009-0.001-0.013-0.001c-0.303,0-0.605-0.01-0.907-0.026
			c-0.099-0.006-0.196-0.015-0.295-0.021c-0.209-0.016-0.417-0.034-0.625-0.057c-0.111-0.012-0.222-0.025-0.332-0.04
			c-0.204-0.026-0.407-0.058-0.609-0.092c-0.102-0.017-0.204-0.033-0.306-0.052c-0.268-0.05-0.534-0.106-0.799-0.169
			c-0.031-0.008-0.063-0.014-0.094-0.021c-0.292-0.072-0.583-0.153-0.871-0.24c-0.096-0.028-0.19-0.062-0.284-0.092
			c-0.199-0.063-0.396-0.13-0.592-0.201c-0.105-0.038-0.209-0.078-0.313-0.118c-0.193-0.074-0.384-0.153-0.574-0.234
			c-0.094-0.04-0.189-0.079-0.283-0.122c-0.257-0.115-0.51-0.237-0.762-0.366c-0.022-0.011-0.044-0.021-0.066-0.032
			c-0.27-0.141-0.535-0.29-0.798-0.445c-0.085-0.051-0.169-0.104-0.254-0.156c-0.181-0.111-0.36-0.227-0.538-0.345
			c-0.092-0.063-0.184-0.125-0.275-0.188c-0.174-0.123-0.346-0.249-0.517-0.379c-0.08-0.061-0.161-0.12-0.24-0.183
			c-0.237-0.187-0.469-0.379-0.697-0.58c-0.008-0.007-0.017-0.013-0.024-0.02c-0.235-0.207-0.462-0.425-0.687-0.647
			c-0.07-0.069-0.137-0.142-0.207-0.212c-0.154-0.159-0.307-0.322-0.457-0.488c-0.075-0.083-0.148-0.168-0.221-0.253
			c-0.146-0.17-0.289-0.344-0.43-0.521c-0.062-0.079-0.126-0.156-0.188-0.237c-0.197-0.258-0.389-0.521-0.573-0.793
			c-5.133-7.61-3.118-17.978,4.493-23.11c0.317-0.214,0.64-0.411,0.966-0.6c0.082-0.048,0.163-0.094,0.245-0.14
			c0.326-0.182,0.655-0.356,0.988-0.514c0.001-0.001,0.002-0.001,0.003-0.002c0.336-0.158,0.678-0.301,1.021-0.437
			c0.083-0.032,0.167-0.064,0.25-0.096c0.341-0.128,0.685-0.248,1.032-0.353c0.002,0,0.003-0.001,0.004-0.001
			c0.35-0.105,0.703-0.194,1.057-0.275c0.085-0.02,0.171-0.038,0.256-0.057c0.346-0.073,0.693-0.14,1.042-0.191
			c0.008-0.001,0.015-0.003,0.022-0.004c0.354-0.051,0.71-0.087,1.065-0.115c0.09-0.008,0.18-0.014,0.27-0.02
			c0.337-0.021,0.675-0.035,1.012-0.037c0.017,0,0.033-0.001,0.05-0.001c0.004,0,0.008,0,0.012,0c0.303,0,0.605,0.011,0.907,0.027
			c0.099,0.006,0.196,0.015,0.295,0.021c0.209,0.016,0.417,0.033,0.625,0.057c0.111,0.012,0.221,0.025,0.332,0.04
			c0.203,0.026,0.406,0.058,0.608,0.092c0.102,0.017,0.204,0.032,0.306,0.052c0.268,0.05,0.535,0.106,0.801,0.17
			c0.031,0.007,0.062,0.013,0.093,0.02c0.292,0.072,0.583,0.153,0.871,0.24c0.096,0.028,0.19,0.061,0.285,0.092
			c0.198,0.063,0.395,0.13,0.59,0.201c0.105,0.038,0.21,0.077,0.315,0.117c0.192,0.075,0.383,0.153,0.573,0.235
			c0.094,0.04,0.189,0.079,0.283,0.122c0.257,0.115,0.51,0.237,0.762,0.365c0.022,0.012,0.044,0.021,0.066,0.033
			c0.27,0.14,0.535,0.29,0.798,0.445c0.086,0.051,0.169,0.104,0.254,0.156c0.181,0.111,0.36,0.226,0.538,0.345
			c0.092,0.062,0.184,0.125,0.275,0.188c0.174,0.123,0.347,0.249,0.517,0.378c0.08,0.062,0.162,0.121,0.241,0.184
			c0.236,0.186,0.468,0.378,0.694,0.577c0.009,0.008,0.019,0.015,0.027,0.022c0.234,0.207,0.462,0.425,0.686,0.646
			c0.07,0.069,0.138,0.143,0.208,0.214c0.154,0.158,0.306,0.32,0.456,0.486c0.075,0.084,0.148,0.169,0.222,0.254
			c0.146,0.17,0.288,0.343,0.428,0.52c0.063,0.08,0.127,0.158,0.189,0.239c0.197,0.258,0.389,0.521,0.573,0.793
			C140.167,172.414,138.153,182.782,130.543,187.915z"/>
		<path fill="#010101" d="M153.091,181.494l-0.49,1.937l2.002,0.112c0.524-1.856,0.893-3.755,1.102-5.673l-1.563-0.531
			L153.091,181.494z"/>
		<polygon fill="#010101" points="147.047,161.164 147.059,161.153 147.047,161.153 		"/>
		<path d="M199.041,155.35h-9.316l-9.769-26.377c2.494-2.126,4.077-5.289,4.077-8.823c0-5.694-4.106-10.426-9.518-11.404v-6.195
			h-4.637v6.294c-5.17,1.167-9.032,5.783-9.032,11.306c0,3.487,1.542,6.613,3.979,8.738l-9.795,26.462h-4.646h-4.507v-1.78v-2.52
			h-3.292c-0.695,0-1.366,0.097-2.001,0.267c-2.982,0.801-5.164,3.339-5.164,6.352c0,3.655,3.208,6.618,7.165,6.618h3.292v-4.3
			h2.485h4.952l-1.701,4.595l-2.933,7.921l-0.103,0.278l-0.646,1.746l0.666,0.247l3.358,1.244v0.578v4.612l1.073-4.247l0.152-0.6
			l2.308-6.243l0.137-0.368l3.61-9.764h7.619v-4.637h-5.901l8.855-23.91c0.845,0.195,1.724,0.303,2.629,0.303
			c0.861,0,1.7-0.097,2.509-0.275l8.846,23.883h-8.706v-6.302h-5.784v17.132h5.784v-6.193h10.423l6.064,16.375l1.227,4.847v-5.19
			l4.025-1.491l-5.386-14.54h7.599v4.3h3.291c3.957,0,7.165-2.963,7.165-6.618c0-3.654-3.208-6.618-7.165-6.618h-3.291V155.35z
			 M172.44,124.599c-2.457,0-4.45-1.992-4.45-4.449s1.993-4.45,4.45-4.45s4.449,1.992,4.449,4.45S174.897,124.599,172.44,124.599z"
			/>
		<path fill="#010101" d="M275.75,154.75c0.841-8.657,0.841-17.381,0-26.042l-20.882-4.292c-1.271-8.301-3.451-16.438-6.497-24.262
			l15.935-14.155c-3.599-7.919-7.962-15.473-13.021-22.556l-20.229,6.729c-5.253-6.556-11.21-12.512-17.762-17.761l6.727-20.231
			c-7.078-5.057-14.632-9.42-22.557-13.023L183.309,35.1c-7.824-3.05-15.959-5.231-24.262-6.5L154.76,7.716
			c-8.666-0.842-17.396-0.842-26.057,0L124.414,28.6c-8.303,1.269-16.438,3.449-24.261,6.5L85.997,19.158
			c-7.923,3.603-15.477,7.964-22.557,13.023l6.727,20.231c-6.553,5.249-12.509,11.205-17.761,17.761l-20.229-6.729
			c-5.06,7.082-9.422,14.636-13.022,22.556l15.939,14.156c-3.05,7.824-5.231,15.961-6.5,24.262L7.71,128.709
			c-0.842,8.66-0.842,17.384,0,26.041l20.884,4.29c1.269,8.304,3.45,16.439,6.5,24.267l-15.939,14.154
			c3.601,7.918,7.962,15.476,13.023,22.555l20.229-6.729c5.251,6.559,11.208,12.514,17.761,17.759l-6.727,20.233
			c7.079,5.059,14.633,9.419,22.557,13.021l14.154-15.941c7.825,3.051,15.958,5.231,24.261,6.5l4.291,20.885
			c8.66,0.842,17.392,0.842,26.056,0l4.289-20.885c8.305-1.269,16.436-3.449,24.262-6.5l14.156,15.941
			c7.92-3.603,15.476-7.965,22.554-13.021l-6.724-20.233c6.551-5.245,12.506-11.2,17.759-17.759l20.23,6.729
			c5.06-7.079,9.422-14.632,13.02-22.557l-15.935-14.152c3.046-7.826,5.226-15.963,6.496-24.267L275.75,154.75z M141.726,223.083
			c-44.901,0-81.354-36.454-81.354-81.355c0.001-44.898,36.453-81.35,81.354-81.35c44.911,0,81.362,36.453,81.362,81.35
			C223.088,186.628,186.637,223.083,141.726,223.083z"/>
	</g>
</g>
</svg>
