<?xml version="1.0" encoding="utf-8"?>
<!-- Generator: Adobe Illustrator 15.1.0, SVG Export Plug-In . SVG Version: 6.00 Build 0)  -->
<!DOCTYPE svg PUBLIC "-//W3C//DTD SVG 1.1//EN" "http://www.w3.org/Graphics/SVG/1.1/DTD/svg11.dtd">
<svg version="1.1" id="Layer_8" xmlns="http://www.w3.org/2000/svg" xmlns:xlink="http://www.w3.org/1999/xlink" x="0px" y="0px"
	 width="283.465px" height="283.465px" viewBox="0 0 283.465 283.465" enable-background="new 0 0 283.465 283.465"
	 xml:space="preserve">
<g>
	<path d="M270.497,105.616h-36.672c0.012,0.398,0.018,0.801,0.018,1.201c0,12.128-4.725,23.529-13.299,32.105
		c-8.576,8.576-19.979,13.298-32.107,13.298c-12.127,0-23.527-4.723-32.104-13.298c-8.576-8.576-13.299-19.979-13.299-32.105
		c0-0.4,0.006-0.803,0.016-1.201H12.966c-3.352,0-5.879,1.643-5.879,3.818v79.97c0,2.176,2.527,3.816,5.879,3.816h24.879v8.979
		c0,1.182,1.525,2.141,3.404,2.141H55.06v6.904h-1.719c-1.881,0-3.404,1.523-3.404,3.404v0.799c0,1.879,1.523,3.402,3.404,3.402
		h10.805c1.881,0,3.404-1.523,3.404-3.402v-0.799c0-1.881-1.523-3.404-3.404-3.404h-3.082v-6.904h13.811
		c1.881,0,3.404-0.959,3.404-2.141v-8.979h126.906v8.979c0,1.182,1.523,2.141,3.404,2.141h13.809v6.904h-2.967
		c-1.881,0-3.402,1.523-3.402,3.404v0.799c0,1.879,1.521,3.402,3.402,3.402h10.807c1.881,0,3.404-1.523,3.404-3.402v-0.799
		c0-1.881-1.523-3.404-3.404-3.404h-1.834v-6.904h13.811c1.881,0,3.404-0.959,3.404-2.141v-8.979h24.879
		c3.352,0,5.881-1.641,5.881-3.816v-79.97C276.378,107.256,273.849,105.616,270.497,105.616z M19.831,130.67h94.078
		c0.885,0,1.602,0.717,1.602,1.601s-0.717,1.603-1.602,1.603H19.831c-0.885,0-1.603-0.718-1.603-1.603
		C18.229,131.385,18.946,130.67,19.831,130.67z M18.229,121.562c0-0.884,0.717-1.601,1.603-1.601h94.078
		c0.885,0,1.602,0.717,1.602,1.601c0,0.885-0.717,1.603-1.602,1.603H19.831C18.946,123.163,18.229,122.447,18.229,121.562z
		 M19.831,141.379h94.078c0.885,0,1.602,0.717,1.602,1.599c0,0.885-0.717,1.604-1.602,1.604H19.831
		c-0.885,0-1.603-0.719-1.603-1.604C18.229,142.096,18.946,141.379,19.831,141.379z M19.831,152.086h94.078
		c0.885,0,1.602,0.719,1.602,1.602c0,0.885-0.717,1.604-1.602,1.604H19.831c-0.885,0-1.603-0.719-1.603-1.604
		C18.229,152.805,18.946,152.086,19.831,152.086z M19.831,162.795h94.078c0.885,0,1.602,0.719,1.602,1.602
		c0,0.885-0.717,1.602-1.602,1.602H19.831c-0.885,0-1.603-0.717-1.603-1.602C18.229,163.514,18.946,162.795,19.831,162.795z
		 M250.919,132.553c-1.881,0-3.404-1.524-3.404-3.404v-11.605c0-1.881,1.523-3.404,3.404-3.404h11.605
		c1.881,0,3.404,1.523,3.404,3.404v11.605c0,1.88-1.523,3.404-3.404,3.404H250.919z M260.925,178.275
		c0,2.32-1.883,4.203-4.203,4.203c-2.322,0-4.205-1.883-4.205-4.203s1.883-4.203,4.205-4.203
		C259.042,174.072,260.925,175.953,260.925,178.275z"/>
	<path d="M188.437,136.042c16.113,0,29.225-13.11,29.225-29.225c0-16.115-13.109-29.225-29.225-29.225s-29.225,13.109-29.225,29.225
		C159.214,122.93,172.323,136.042,188.437,136.042z M188.437,86.799c11.057,0,20.018,8.961,20.018,20.018
		c0,11.055-8.961,20.018-20.018,20.018c-11.055,0-20.018-8.961-20.018-20.018C168.421,95.76,177.382,86.799,188.437,86.799z"/>
	<path d="M188.437,149.018c23.309,0,42.201-18.894,42.201-42.201c0-23.309-18.895-42.202-42.201-42.202
		s-42.201,18.896-42.201,42.202S165.13,149.018,188.437,149.018z M188.437,75.59c17.219,0,31.227,14.009,31.227,31.227
		c0,17.219-14.008,31.227-31.227,31.227s-31.227-14.008-31.227-31.227C157.212,89.598,171.22,75.59,188.437,75.59z"/>
	<path d="M199.093,106.93c0.91,0.011,1.656-0.721,1.666-1.631c0.002-0.08,0.004-0.157,0.006-0.236
		c-0.711-4.965-4.162-8.98-8.938-10.229c-0.061-0.004-0.121-0.01-0.182-0.014c-0.908-0.061-1.693,0.627-1.754,1.535
		c-0.057,0.852,0.547,1.587,1.371,1.727v0.008c2.998,1.09,5.578,3.91,6.201,7.101l0,0c0,0.024,0,0.048,0,0.071
		C197.454,106.174,198.183,106.92,199.093,106.93z"/>
</g>
</svg>
