<?xml version="1.0" encoding="utf-8"?>
<!-- Generator: Adobe Illustrator 15.1.0, SVG Export Plug-In . SVG Version: 6.00 Build 0)  -->
<!DOCTYPE svg PUBLIC "-//W3C//DTD SVG 1.0//EN" "http://www.w3.org/TR/2001/REC-SVG-20010904/DTD/svg10.dtd">
<svg version="1.0" id="Layer_2" xmlns="http://www.w3.org/2000/svg" xmlns:xlink="http://www.w3.org/1999/xlink" x="0px" y="0px"
	 width="283.465px" height="283.465px" viewBox="-126.732 -126.732 283.465 283.465"
	 enable-background="new -126.732 -126.732 283.465 283.465" xml:space="preserve">
<g>
	<path d="M153.897-51.288v-28.669h-3.665c0-2.385-1.919-4.319-4.324-4.319c-2.385,0-4.314,1.934-4.314,4.319h-253.197
		c0-2.385-1.925-4.319-4.319-4.319c-2.395,0-4.31,1.934-4.31,4.319h-3.665v28.684h3.665V79.703h-3.665v11.246H13.759v12.615
		c-2.395,0.57-4.188,2.703-4.188,5.283c0,2.996,2.429,5.43,5.43,5.43s5.43-2.434,5.43-5.43c0-2.58-1.794-4.732-4.188-5.283V90.949
		h137.656V79.703h-3.665V-51.288H153.897z M-118.076-79.958c0-1.193,0.97-2.152,2.162-2.152c1.193,0,2.167,0.969,2.167,2.152
		H-118.076z M17.71,108.838c0,1.502-1.222,2.705-2.71,2.705c-1.498,0-2.71-1.203-2.71-2.705c0-1.484,1.212-2.705,2.71-2.705
		C16.488,106.133,17.71,107.354,17.71,108.838z M141.798,79.703h-253.591V-51.245h253.591V79.703L141.798,79.703z M143.756-79.958
		c0-1.193,0.97-2.152,2.172-2.152c1.183,0,2.152,0.969,2.152,2.152H143.756z"/>
</g>
</svg>
