<?xml version="1.0" encoding="utf-8"?>
<!-- Generator: Adobe Illustrator 15.1.0, SVG Export Plug-In . SVG Version: 6.00 Build 0)  -->
<!DOCTYPE svg PUBLIC "-//W3C//DTD SVG 1.0//EN" "http://www.w3.org/TR/2001/REC-SVG-20010904/DTD/svg10.dtd">
<svg version="1.0" id="Layer_1" xmlns="http://www.w3.org/2000/svg" xmlns:xlink="http://www.w3.org/1999/xlink" x="0px" y="0px"
	 width="283.465px" height="283.465px" viewBox="-126.732 -126.732 283.465 283.465"
	 enable-background="new -126.732 -126.732 283.465 283.465" xml:space="preserve">
<path d="M-60.9-61.755h88.1c3.333,0,6.02-2.701,6.02-6.025c0-3.324-2.687-6.025-6.02-6.025h-88.1c-3.319,0-6.02,2.701-6.02,6.025
	C-66.92-64.456-64.219-61.755-60.9-61.755z M-26.893-23.345h101.43c3.313,0,6.029-2.696,6.029-6.02s-2.716-6.025-6.029-6.025
	h-101.43c-3.333,0-6.025,2.701-6.025,6.025S-30.226-23.345-26.893-23.345z M-54.924-41.366c6.628,0,11.996,5.373,11.996,12.001
	c0,6.613-5.368,11.996-11.996,11.996c-6.618,0-11.996-5.383-11.996-11.996C-66.92-35.993-61.552-41.366-54.924-41.366z
	 M-26.893,20.85h101.43c3.313,0,6.029-2.696,6.029-6.021c0-3.324-2.716-6.025-6.029-6.025h-101.43c-3.333,0-6.025,2.701-6.025,6.025
	C-32.927,18.153-30.226,20.85-26.893,20.85z M-54.924,2.833c6.628,0,11.996,5.378,11.996,11.996c0,6.628-5.368,12.001-11.996,12.001
	c-6.618,0-11.996-5.373-11.996-12.001S-61.552,2.833-54.924,2.833z M67.379,49.459l20.609-10.177l20.6,10.177l-20.6,10.188
	L67.379,49.459z M45.868,52.773h-72.771c-3.333,0-6.025,2.716-6.025,6.039c0,3.324,2.701,6.021,6.025,6.021h72.771V52.773z
	 M-54.924,46.812c6.628,0,11.996,5.373,11.996,12.001c0,6.618-5.368,11.991-11.996,11.991c-6.618,0-11.996-5.373-11.996-11.991
	C-66.92,52.185-61.552,46.812-54.924,46.812z M63.065,77.089V55.46l21.267,10.53v28.198L63.065,83.678V77.089z M112.893,55.46
	v28.218L91.636,94.188V65.99L112.893,55.46z M57.81,78.638v6.021c0,1.392,0.785,2.667,2.04,3.255l10.196,5.06l-10.628,5.255
	L38.809,88.03L57.81,78.638z M118.128,78.638l19.012,9.402l-20.6,10.188l-10.628-5.245l10.196-5.05
	c1.245-0.607,2.02-1.883,2.02-3.265V78.638z M16.6,97.031h-43.502c-3.333,0-6.025,2.696-6.025,6.021c0,3.323,2.701,6.02,6.025,6.02
	H16.6V97.031z M87.165,101.307l0.647,0.098h0.382l0.696-0.118l-0.313,0.04l0.529-0.138c0.118-0.02,0.235-0.059,0.353-0.107
	l8.021-3.951l11.089,5.48l-20.6,10.187L67.359,102.61l11.09-5.48l7.893,3.892l0.706,0.167l-0.569-0.098l0.941,0.245L87.165,101.307z
	 M-54.924,91.07c6.628,0,11.996,5.363,11.996,11.981c0,6.608-5.368,11.981-11.996,11.981c-6.618,0-11.996-5.373-11.996-11.981
	C-66.92,96.434-61.552,91.07-54.924,91.07z M34.504,122.249V94.031l21.267,10.53v28.198L34.504,122.249z M141.463,94.051v28.208
	l-21.275,10.511v-28.208L141.463,94.051z M63.065,108.62l21.267,10.511v28.218l-21.267-10.511V108.62z M112.893,108.62v28.198
	l-21.257,10.53v-28.218L112.893,108.62z M58.751,152.418l0.049-0.068l-0.049-0.04V152.418z M58.555,154.565
	c0,0-35.306-18.021-36.031-18.57H-83.779v-240.65H46.985v43.381c0,3.877,3.147,7.03,7.021,7.03h43.386v78.486l18.58,9.178v-94.693
	c0-2.471-0.98-4.829-2.727-6.564l-52.67-52.67c-1.735-1.746-4.099-2.721-6.569-2.721h-147.06c-5.133,0-9.29,4.157-9.29,9.285V145.28
	c0,5.128,4.157,9.285,9.29,9.285H58.555z M29.396,124.21c0.039,0.687,0.411,1.313,1,1.687c0.255,0.235,0.568,0.451,0.892,0.617
	l26.521,13.109l0.579,0.156l-0.432-0.078l0.461,0.118c0.343,0.539,0.843,0.99,1.451,1.284l26.512,13.108l0.627,0.157h0.021
	l-0.5-0.078l0.774,0.166l0.078,0.039l-0.216-0.02l0.471,0.06l0.147,0.029h0.049l0,0l0.372-0.01l0.696-0.108l-0.313,0.029
	l0.539-0.146c0.118-0.02,0.226-0.039,0.343-0.079l0.128-0.068l26.521-13.108c0.599-0.295,1.089-0.745,1.461-1.295l0.098-0.039
	c0.138,0,0.245-0.039,0.373-0.078l0.128-0.059l26.512-13.119c0.401-0.196,0.755-0.471,1.049-0.784
	c0.353-0.274,0.617-0.687,0.726-1.118c0.167-0.431,0.245-0.882,0.245-1.362l-0.01-34.149v0.039c0.01-0.138,0-0.274-0.029-0.451
	l-0.05-0.265c-0.02-0.128-0.059-0.245-0.117-0.383l-0.098-0.274c-0.05-0.117-0.108-0.235-0.187-0.353l-0.187-0.274
	c-0.059-0.099-0.127-0.196-0.216-0.295l-0.216-0.234c-0.068-0.079-0.156-0.157-0.255-0.226l-0.49-0.334l-26.708-13.207l-0.02-22.295
	v0.059c0.02-0.157,0-0.294-0.02-0.471l-0.059-0.274c-0.02-0.118-0.039-0.235-0.098-0.373l-0.118-0.274
	c-0.039-0.117-0.098-0.235-0.177-0.353l-0.186-0.274c-0.05-0.099-0.128-0.196-0.206-0.285l-0.226-0.245
	c-0.068-0.078-0.167-0.156-0.265-0.216l-0.49-0.343L89.597,34.281c-1.02-0.51-2.216-0.51-3.226,0L59.85,47.391l-0.589,0.362
	l-0.51,0.471l-0.401,0.549L58.045,49.4l-0.176,0.667L57.83,50.43c0,0-0.021,0.618-0.021,0.187v22.237L31.278,85.972l-0.588,0.373
	l-0.51,0.47l-0.412,0.55l-0.284,0.627l-0.187,0.667l-0.049,0.373c0,0-0.01,0.607-0.01,0.186v34.091
	C29.259,123.572,29.317,123.896,29.396,124.21z"/>
</svg>
