<?xml version="1.0" encoding="utf-8"?>
<!-- Generator: Adobe Illustrator 15.1.0, SVG Export Plug-In . SVG Version: 6.00 Build 0)  -->
<!DOCTYPE svg PUBLIC "-//W3C//DTD SVG 1.0//EN" "http://www.w3.org/TR/2001/REC-SVG-20010904/DTD/svg10.dtd">
<svg version="1.0" id="Layer_7" xmlns="http://www.w3.org/2000/svg" xmlns:xlink="http://www.w3.org/1999/xlink" x="0px" y="0px"
	 width="283.465px" height="283.465px" viewBox="0 0 283.465 283.465" enable-background="new 0 0 283.465 283.465"
	 xml:space="preserve">
<g>
	<polygon fill="none" points="247.218,255.25 267.841,245.061 267.841,217.717 247.218,227.905 	"/>
	<path fill="none" d="M243.132,221.495l0.549,0.271l19.971-9.877l-18.432-9.112v5.845c0,1.338-0.751,2.576-1.957,3.165l-0.132,0.064
		L243.132,221.495L243.132,221.495z"/>
	<path d="M187.388,20.746c-0.551-0.527-1.274-0.805-2.009-0.805c-0.387,0-0.776,0.078-1.146,0.235
		c-0.403,0.173-0.753,0.43-1.03,0.745c-0.486,0.527-0.775,1.228-0.774,1.973v0.002c-0.001-0.747,0.288-1.447,0.774-1.974
		c0.271-0.296,0.606-0.54,0.989-0.705c0.369-0.158,0.761-0.235,1.146-0.235c0.736,0,1.457,0.278,2.009,0.805l45.3,43.242
		c0.859,0.821,1.134,2.082,0.693,3.185c-0.155,0.386-0.392,0.721-0.679,0.999c0.308-0.285,0.557-0.634,0.718-1.04
		c0.443-1.104,0.169-2.364-0.69-3.185L187.388,20.746z"/>
	<path d="M217.43,276.073c-0.112,0.038-0.218,0.056-0.331,0.076l-0.523,0.141l0.304-0.028l-0.675,0.106l-0.361,0.009h27.289v-13.012
		l-25.576,12.641L217.43,276.073z"/>
	<polygon points="233.377,216.681 243.132,221.495 243.132,211.849 	"/>
	<path d="M215.197,276.291l0.208,0.021l-0.072-0.037l-0.751-0.161l0.43,0.065l-0.575-0.144l-25.701-12.706
		c-0.588-0.285-1.072-0.723-1.406-1.244l-0.447-0.113l0.422,0.074l-0.562-0.15l-25.71-12.707c-0.316-0.161-0.618-0.37-0.865-0.599
		c-0.571-0.362-0.932-0.969-0.97-1.637c-0.076-0.303-0.132-0.617-0.153-0.871v-33.048c0,0.407,0.01-0.182,0.01-0.182l0.047-0.361
		l0.184-0.646l0.275-0.609l0.399-0.533l0.494-0.455l0.569-0.361l25.72-12.717v-21.555c0,0.416,0.021-0.182,0.021-0.182l0.038-0.353
		l0.17-0.646l0.297-0.607l0.387-0.532l0.496-0.458l0.571-0.35l25.709-12.708c0.979-0.495,2.14-0.495,3.13,0l25.572,12.64v-13.475
		l-18.012-8.897V73.959h-42.059c-3.757,0-6.806-3.056-6.806-6.814V25.092H49.511v233.286h103.032
		c0.702,0.53,34.928,17.999,34.928,17.999h28.325l-0.142-0.027L215.197,276.291z M202.964,146.757h-98.309
		c-3.231,0-5.849-2.616-5.84-5.837c0-3.223,2.609-5.841,5.84-5.841h98.309c3.213,0,5.846,2.618,5.846,5.841
		S206.176,146.756,202.964,146.757z M202.963,92.236c3.212,0,5.847,2.618,5.847,5.841c0,3.223-2.635,5.835-5.846,5.835h-98.309
		c-3.231,0-5.84-2.614-5.84-5.835c0-3.223,2.609-5.841,5.84-5.841H202.963z M71.689,54.997h85.386c3.23,0,5.837,2.619,5.837,5.841
		s-2.605,5.842-5.837,5.841H71.689c-3.218,0-5.837-2.619-5.837-5.841S68.472,54.997,71.689,54.997z M77.482,238.055
		c-6.416,0-11.629-5.209-11.629-11.612c0-6.415,5.204-11.615,11.629-11.615c6.424,0,11.629,5.199,11.629,11.615
		C89.111,232.846,83.908,238.055,77.482,238.055z M77.482,195.181c-6.416,0-11.629-5.208-11.629-11.624
		c0-6.425,5.204-11.634,11.629-11.634c6.424,0,11.629,5.209,11.629,11.634C89.111,189.973,83.908,195.181,77.482,195.181z
		 M77.482,152.553c-6.416,0-11.629-5.208-11.629-11.633c0-6.425,5.204-11.629,11.629-11.629c6.424,0,11.629,5.213,11.629,11.629
		C89.111,147.345,83.908,152.553,77.482,152.553z M77.482,109.706c-6.416,0-11.629-5.218-11.629-11.628
		c0-6.426,5.204-11.634,11.629-11.634c6.424,0,11.629,5.208,11.629,11.634C89.111,104.488,83.908,109.706,77.482,109.706z
		 M146.812,232.278h-42.165c-3.223,0-5.841-2.615-5.841-5.836c0-3.224,2.61-5.837,5.841-5.837h42.165V232.278z M104.646,189.392
		c-3.223,0-5.841-2.613-5.841-5.837c0-3.221,2.61-5.854,5.841-5.854h70.526v11.691H104.646z M187.66,274.297v-0.104l0.048,0.038
		L187.66,274.297z"/>
	<polygon points="191.842,259.194 212.458,269.384 212.458,242.029 191.842,231.839 	"/>
	<path d="M188.727,211.768c-1.217-0.57-1.978-1.806-1.978-3.156v-5.836l-18.42,9.104l19.977,9.888l10.304-5.095L188.727,211.768z"/>
	<polygon points="219.54,269.382 240.146,259.174 240.146,231.839 219.54,242.027 	"/>
	<polygon points="164.155,245.051 184.772,255.239 184.772,227.903 164.155,217.695 	"/>
	<path d="M225.204,220.704l-7.774,3.83c-0.115,0.046-0.229,0.083-0.344,0.102l-0.512,0.136l0.303-0.038l-0.674,0.113h-0.371
		l-0.627-0.097l0.248,0.026l-0.912-0.236l0.551,0.096l-0.684-0.162l-7.651-3.773l-10.751,5.312l19.979,9.877l19.97-9.875
		L225.204,220.704z"/>
	<polygon points="212.46,190.513 191.843,180.306 191.843,201.272 191.843,207.66 212.46,217.848 	"/>
	<polygon points="235.973,174.489 216.004,164.623 196.025,174.489 216.004,184.366 	"/>
	<polygon points="219.54,217.849 240.146,207.661 240.146,180.306 219.54,190.515 	"/>
	<polygon points="187.66,274.297 187.708,274.231 187.66,274.193 	"/>
	<path d="M49.511,258.378V25.092h126.744v42.053c0,3.758,3.05,6.814,6.807,6.814h42.059v76.084l18.012,8.897V68.963v-1.818
		c0-2.396-0.95-4.681-2.646-6.362L189.429,9.726c-1.682-1.693-3.974-2.639-6.367-2.639H40.52c-4.976,0-9.006,4.03-9.006,9.001
		v251.289c0,4.972,4.03,9.001,9.006,9.001h1.201h145.75c0,0-34.226-17.47-34.928-18H49.511z M233.379,67.173
		c-0.161,0.405-0.41,0.754-0.718,1.04c-0.011,0.009-0.019,0.023-0.028,0.032c-0.529,0.499-1.236,0.795-1.995,0.795h-45.225
		c-1.604,0-2.905-1.299-2.908-2.902l-0.075-43.242l0,0v-0.002c-0.001-0.746,0.287-1.446,0.773-1.973
		c0.277-0.315,0.627-0.572,1.031-0.745c0.369-0.157,0.758-0.235,1.146-0.235c0.735,0,1.459,0.278,2.009,0.805l45.3,43.242
		C233.548,64.809,233.822,66.069,233.379,67.173z"/>
	<path d="M272.918,212.889c0.006-0.121-0.004-0.243-0.027-0.397l-0.05-0.259c-0.021-0.124-0.059-0.237-0.112-0.371l-0.097-0.267
		c-0.047-0.111-0.103-0.227-0.182-0.342l-0.182-0.266c-0.058-0.096-0.123-0.189-0.211-0.286l-0.208-0.225
		c-0.065-0.078-0.151-0.153-0.248-0.221l-0.476-0.324l-25.89-12.803l-0.02-21.557c0.02-0.151,0-0.284-0.021-0.455l-0.06-0.265
		c-0.019-0.115-0.036-0.227-0.095-0.361l-0.113-0.265c-0.038-0.114-0.096-0.226-0.173-0.343l-0.181-0.266
		c-0.048-0.097-0.124-0.189-0.198-0.276l-0.221-0.236c-0.065-0.074-0.161-0.149-0.258-0.21l-0.474-0.333l-0.296-0.145v39.433
		l0.132-0.063c1.205-0.588,1.957-1.826,1.957-3.164v-5.846l18.432,9.113l-19.971,9.876l-0.549-0.271v41.872l0.133-0.064
		c0.581-0.286,1.057-0.722,1.416-1.256l0.096-0.037c0.135,0,0.237-0.038,0.36-0.076l0.126-0.059l25.701-12.718
		c0.387-0.188,0.731-0.456,1.017-0.757c0.343-0.267,0.599-0.668,0.705-1.085c0.162-0.42,0.238-0.854,0.238-1.32L272.918,212.889z
		 M267.841,245.061l-20.623,10.189v-27.345l20.623-10.188V245.061z"/>
</g>
</svg>
