<?xml version="1.0" encoding="utf-8"?>
<!-- Generator: Adobe Illustrator 15.1.0, SVG Export Plug-In . SVG Version: 6.00 Build 0)  -->
<!DOCTYPE svg PUBLIC "-//W3C//DTD SVG 1.0//EN" "http://www.w3.org/TR/2001/REC-SVG-20010904/DTD/svg10.dtd">
<svg version="1.0" id="Layer_1" xmlns="http://www.w3.org/2000/svg" xmlns:xlink="http://www.w3.org/1999/xlink" x="0px" y="0px"
	 width="283.465px" height="283.465px" viewBox="0 0 283.465 283.465" enable-background="new 0 0 283.465 283.465"
	 xml:space="preserve">
<g>
	<polygon fill="none" points="238.616,175.523 218.017,165.346 197.407,175.523 218.017,185.711 	"/>
	<polygon fill="none" points="164.532,248.313 185.8,258.823 185.8,230.625 164.532,220.095 	"/>
	<polygon fill="none" points="221.665,220.252 242.922,209.742 242.922,181.524 221.665,192.054 	"/>
	<path fill="none" d="M186.383,16.138c0.758,0,1.503,0.287,2.072,0.83l46.73,44.607c0.887,0.847,1.17,2.147,0.714,3.286
		c-0.165,0.413-0.417,0.771-0.728,1.064c0.33-0.3,0.597-0.674,0.77-1.105c0.456-1.138,0.173-2.439-0.714-3.286l-46.73-44.607
		c-0.569-0.543-1.314-0.83-2.072-0.83c-0.398,0-0.801,0.08-1.182,0.243c-0.415,0.178-0.775,0.443-1.063,0.768
		c0.28-0.305,0.624-0.557,1.021-0.727C185.582,16.217,185.984,16.138,186.383,16.138z"/>
	<path fill="none" d="M189.879,213.979c-1.255-0.588-2.04-1.863-2.04-3.255v-6.021l-19.001,9.392l20.608,10.199l10.628-5.255
		L189.879,213.979z"/>
	<polygon fill="none" points="233.114,63.745 186.384,19.138 186.461,63.745 	"/>
	<polygon fill="none" points="214.36,192.054 193.094,181.524 193.094,203.153 193.094,209.742 214.36,220.252 	"/>
	<path fill="none" d="M248.156,204.702v6.03c0,1.382-0.774,2.658-2.02,3.265l-10.196,5.05l10.628,5.245l20.601-10.188
		L248.156,204.702z"/>
	<polygon fill="none" points="221.665,273.412 242.922,262.882 242.922,234.685 221.665,245.194 	"/>
	<polygon fill="none" points="250.217,258.834 271.491,248.323 271.491,220.115 250.217,230.626 	"/>
	<path fill="none" d="M227.509,223.195l-8.021,3.951c-0.118,0.048-0.234,0.087-0.353,0.106l-0.529,0.139l0.313-0.04l-0.696,0.117
		h-0.382l-0.647-0.098l0.255,0.029l-0.94-0.245l0.568,0.098l-0.706-0.167l-7.893-3.892l-11.09,5.479l20.61,10.188l20.6-10.188
		L227.509,223.195z"/>
	<polygon fill="none" points="193.094,262.902 214.36,273.414 214.36,245.195 193.094,234.685 	"/>
	<path d="M75.123,128.897c-6.628,0-11.996,5.368-11.996,11.996s5.378,12.001,11.996,12.001c6.628,0,11.996-5.373,11.996-12.001
		C87.119,134.275,81.75,128.897,75.123,128.897z"/>
	<path d="M75.123,84.698c-6.628,0-11.996,5.373-11.996,12.001c0,6.613,5.378,11.996,11.996,11.996
		c6.628,0,11.996-5.383,11.996-11.996C87.119,90.071,81.75,84.698,75.123,84.698z"/>
	<path d="M210.595,140.894c0-3.324-2.716-6.025-6.029-6.025H103.154c-3.333,0-6.025,2.701-6.025,6.025
		c-0.009,3.323,2.692,6.021,6.025,6.021h101.412C207.879,146.914,210.595,144.218,210.595,140.894z"/>
	<path d="M163.249,58.284c0-3.324-2.688-6.025-6.021-6.025H69.147c-3.319,0-6.021,2.701-6.021,6.025s2.701,6.025,6.021,6.025h88.082
		C160.562,64.31,163.249,61.608,163.249,58.284z"/>
	<path d="M204.565,90.674H103.154c-3.333,0-6.025,2.701-6.025,6.025s2.692,6.02,6.025,6.02h101.412c3.313,0,6.029-2.695,6.029-6.02
		S207.879,90.674,204.565,90.674z"/>
	<path d="M276.728,215.135c0.006-0.125-0.003-0.251-0.029-0.411l-0.05-0.266c-0.021-0.128-0.06-0.245-0.117-0.383l-0.099-0.274
		c-0.049-0.116-0.107-0.234-0.187-0.353l-0.187-0.274c-0.059-0.099-0.127-0.195-0.217-0.295l-0.215-0.233
		c-0.068-0.079-0.156-0.157-0.256-0.227l-0.49-0.334l-26.707-13.207l-0.021-22.237c0.02-0.156,0-0.293-0.02-0.47l-0.06-0.273
		c-0.02-0.118-0.039-0.235-0.098-0.373l-0.118-0.274c-0.039-0.117-0.098-0.234-0.177-0.353l-0.187-0.274
		c-0.05-0.099-0.128-0.196-0.205-0.285l-0.227-0.245c-0.068-0.077-0.167-0.155-0.265-0.216l-0.49-0.343l-26.684-13.189
		c-1.021-0.51-2.217-0.51-3.227,0l-26.521,13.11l-0.589,0.362l-0.511,0.471l-0.4,0.549l-0.306,0.627l-0.176,0.667l-0.039,0.363
		c0,0-0.021,0.618-0.021,0.188v22.236l-26.531,13.118l-0.588,0.373l-0.51,0.47l-0.412,0.55l-0.284,0.628l-0.188,0.667l-0.049,0.373
		c0,0-0.01,0.606-0.01,0.186v34.091c0.021,0.263,0.079,0.587,0.158,0.901c0.039,0.687,0.411,1.313,1,1.687
		c0.255,0.235,0.567,0.451,0.892,0.617l26.521,13.109l0.579,0.155l-0.433-0.077l0.461,0.117c0.343,0.539,0.843,0.99,1.451,1.284
		l26.512,13.108l0.592,0.148l-0.443-0.069l0.774,0.166l0.077,0.039l-0.216-0.021l0.471,0.061l0.147,0.029h0.049l0.372-0.01
		l0.696-0.109l-0.313,0.029l0.539-0.146c0.118-0.021,0.227-0.039,0.343-0.079l0.129-0.068l26.521-13.107
		c0.599-0.296,1.089-0.745,1.461-1.296l0.098-0.039c0.139,0,0.245-0.038,0.373-0.077l0.129-0.06l26.512-13.119
		c0.4-0.195,0.754-0.471,1.049-0.783c0.353-0.274,0.617-0.688,0.726-1.118c0.167-0.432,0.245-0.882,0.245-1.362L276.728,215.135z
		 M218.017,165.346l20.6,10.178l-20.6,10.188l-20.609-10.188L218.017,165.346z M242.922,181.524v28.218l-21.257,10.51v-28.198
		L242.922,181.524z M193.094,203.153v-21.629l21.267,10.529v28.198l-21.267-10.51V203.153z M185.8,258.823l-21.268-10.51v-28.219
		l21.268,10.53V258.823z M189.446,224.293l-20.608-10.199l19.001-9.392v6.021c0,1.392,0.785,2.667,2.04,3.255l10.195,5.06
		L189.446,224.293z M214.36,273.414l-21.267-10.512v-28.218l21.267,10.511V273.414z M217.998,238.862l-20.61-10.188l11.09-5.479
		l7.893,3.892l0.706,0.167l-0.568-0.098l0.94,0.245l-0.255-0.029l0.647,0.098h0.382l0.696-0.117l-0.313,0.04l0.529-0.139
		c0.118-0.02,0.234-0.059,0.353-0.106l8.021-3.951l11.089,5.479L217.998,238.862z M242.922,262.882l-21.257,10.53v-28.218
		l21.257-10.51V262.882z M246.568,224.292l-10.628-5.245l10.196-5.05c1.245-0.606,2.02-1.883,2.02-3.265v-6.03l19.013,9.402
		L246.568,224.292z M271.491,248.323l-21.274,10.511v-28.208l21.274-10.511V248.323z"/>
	<polygon points="188.779,278.482 188.828,278.414 188.779,278.375 	"/>
	<path d="M75.123,217.134c-6.628,0-11.996,5.364-11.996,11.981c0,6.608,5.378,11.981,11.996,11.981
		c6.628,0,11.996-5.373,11.996-11.981C87.119,222.497,81.75,217.134,75.123,217.134z"/>
	<path d="M175.896,178.837h-72.752c-3.333,0-6.025,2.716-6.025,6.039c0,3.324,2.701,6.021,6.025,6.021h72.752V178.837z"/>
	<path d="M75.123,172.876c-6.628,0-11.996,5.373-11.996,12.001c0,6.618,5.378,11.991,11.996,11.991
		c6.628,0,11.996-5.373,11.996-11.991C87.119,178.249,81.75,172.876,75.123,172.876z"/>
	<path d="M46.268,262.06V21.409h130.746V64.79c0,3.877,3.146,7.03,7.021,7.03h43.387v78.486l18.58,9.178V64.791
		c0-2.471-0.98-4.829-2.728-6.563l-52.67-52.67c-1.735-1.746-4.099-2.722-6.569-2.722H36.993c-5.133,0-9.29,4.157-9.29,9.285
		v259.223c0,5.129,4.157,9.285,9.29,9.285h151.591c0,0-35.307-18.021-36.031-18.569H46.268z M184.181,17.107
		c0.287-0.325,0.647-0.59,1.063-0.768c0.381-0.163,0.783-0.243,1.182-0.243c0.758,0,1.503,0.287,2.072,0.83l46.73,44.607
		c0.887,0.847,1.17,2.147,0.714,3.286c-0.173,0.432-0.439,0.806-0.77,1.105c-0.546,0.515-1.275,0.82-2.058,0.82h-46.653
		c-1.655,0-2.997-1.34-3-2.995l-0.077-44.607C183.383,18.373,183.679,17.651,184.181,17.107z"/>
	<path d="M97.12,229.116c0,3.323,2.701,6.02,6.025,6.02h43.495v-12.041h-43.495C99.812,223.095,97.12,225.791,97.12,229.116z"/>
	<path d="M186.461,66.745h46.653c0.782,0,1.512-0.306,2.058-0.82c0.311-0.293,0.563-0.651,0.728-1.064
		c0.456-1.138,0.173-2.439-0.714-3.286l-46.73-44.607c-0.569-0.543-1.314-0.83-2.072-0.83c-0.398,0-0.801,0.08-1.182,0.243
		c-0.396,0.17-0.74,0.421-1.021,0.727c-0.502,0.544-0.798,1.266-0.797,2.036l0.077,44.607
		C183.464,65.405,184.806,66.745,186.461,66.745z M233.114,63.745h-46.653l-0.077-44.607L233.114,63.745z"/>
</g>
</svg>
