<?xml version="1.0" encoding="utf-8"?>
<!-- Generator: Adobe Illustrator 15.1.0, SVG Export Plug-In . SVG Version: 6.00 Build 0)  -->
<!DOCTYPE svg PUBLIC "-//W3C//DTD SVG 1.0//EN" "http://www.w3.org/TR/2001/REC-SVG-20010904/DTD/svg10.dtd">
<svg version="1.0" id="Layer_1" xmlns="http://www.w3.org/2000/svg" xmlns:xlink="http://www.w3.org/1999/xlink" x="0px" y="0px"
	 width="283.465px" height="283.465px" viewBox="0 0 283.465 283.465" enable-background="new 0 0 283.465 283.465"
	 xml:space="preserve">
<path d="M210.082,137.795h-44.831c-2.041,0-3.734,1.535-3.928,3.556l-5.891,60.722L142.498,35.809
	c-0.168-2.05-1.862-3.638-3.922-3.638c-2.061,0-3.778,1.569-3.946,3.619l-11.666,141.645l-5.63-36.299
	c-0.293-1.92-1.949-3.34-3.903-3.34h-40.39c-2.007,0-3.696,1.516-3.913,3.518l-3.894,35.765L57.709,92.42
	c-0.188-2.021-1.872-3.581-3.903-3.59c-2.031-0.009-3.734,1.511-3.941,3.527l-6.79,65.847l-2.103-16.949
	c-0.255-1.982-1.93-3.46-3.922-3.46H6.775c-2.18,0-3.94,1.761-3.94,3.941c0,2.18,1.771,3.94,3.94,3.94H33.57l5.953,47.955
	c0.245,1.982,1.944,3.476,3.951,3.455c2.002-0.028,3.667-1.54,3.884-3.542l6.141-59.546l7.444,83.522
	c0.174,2.021,1.854,3.581,3.889,3.6c2.021,0.021,3.738-1.501,3.956-3.521l7.805-71.921h2.57h0.01h30.899l10.197,65.828
	c0.309,1.974,2.041,3.407,4.042,3.34c1.992-0.076,3.619-1.627,3.787-3.618L138.455,85.5l12.627,162.155
	c0.153,2.041,1.848,3.609,3.889,3.639c2.04,0.02,3.772-1.521,3.965-3.562l9.885-102.056h13.041h0.021h24.706l5.957,47.955
	c0.23,1.982,1.935,3.476,3.945,3.455c2.003-0.028,3.667-1.54,3.89-3.542l6.14-59.546l7.432,83.522
	c0.183,2.021,1.856,3.581,3.889,3.6c2.03,0.021,3.743-1.501,3.965-3.521l7.815-71.9h27.063c2.194,0,3.946-1.762,3.946-3.941
	c0-2.179-1.762-3.941-3.946-3.941h-30.605c-2.013,0-3.696,1.516-3.907,3.518l-3.898,35.765l-7.536-84.658
	c-0.173-2.021-1.866-3.576-3.906-3.59c-2.041-0.01-3.734,1.521-3.946,3.542l-6.785,65.842L214,141.287
	C213.738,139.273,212.063,137.795,210.082,137.795z"/>
</svg>
