<?xml version="1.0" encoding="utf-8"?>
<!-- Generator: Adobe Illustrator 15.1.0, SVG Export Plug-In . SVG Version: 6.00 Build 0)  -->
<!DOCTYPE svg PUBLIC "-//W3C//DTD SVG 1.1//EN" "http://www.w3.org/Graphics/SVG/1.1/DTD/svg11.dtd">
<svg version="1.1" id="Layer_4" xmlns="http://www.w3.org/2000/svg" xmlns:xlink="http://www.w3.org/1999/xlink" x="0px" y="0px"
	 width="283.465px" height="283.465px" viewBox="0 0 283.465 283.465" enable-background="new 0 0 283.465 283.465"
	 xml:space="preserve">
<g>
	<rect x="90.66" y="7.087" width="9.286" height="9.286"/>
	<rect x="155.661" y="7.087" width="9.285" height="9.286"/>
	<rect x="183.52" y="7.087" width="9.285" height="9.286"/>
	<rect x="90.66" y="25.659" width="9.286" height="9.286"/>
	<rect x="155.661" y="44.23" width="9.285" height="9.286"/>
	<polygon points="109.232,62.802 118.518,62.802 118.518,53.516 109.232,53.516 109.232,62.802 99.946,62.802 99.946,72.088 
		109.232,72.088 	"/>
	<rect x="118.518" y="62.802" width="9.286" height="9.286"/>
	<rect x="155.661" y="62.802" width="9.285" height="9.286"/>
	<rect x="90.661" y="72.088" width="9.285" height="9.286"/>
	<rect x="109.232" y="72.088" width="9.285" height="9.286"/>
	<rect x="34.945" y="81.375" width="9.286" height="9.286"/>
	<rect x="81.375" y="81.375" width="9.286" height="9.286"/>
	<rect x="99.946" y="81.375" width="9.287" height="9.286"/>
	<rect x="25.659" y="90.66" width="9.286" height="9.286"/>
	<polygon points="72.088,90.66 72.088,81.375 62.803,81.375 62.802,81.375 53.517,81.375 53.517,90.66 53.517,99.946 62.803,99.946 
		62.803,90.66 	"/>
	<rect x="44.23" y="90.66" width="9.286" height="9.286"/>
	<polygon points="137.089,90.66 137.089,99.946 146.375,99.946 155.662,99.946 155.662,90.66 164.947,90.66 164.947,81.375 
		155.662,81.375 146.375,81.375 146.375,90.66 	"/>
	<rect x="267.094" y="90.66" width="9.285" height="9.286"/>
	<polygon points="72.089,99.946 81.375,99.946 81.375,90.66 72.088,90.66 72.088,99.946 62.803,99.946 62.803,109.232 
		72.089,109.232 	"/>
	<rect x="53.517" y="109.232" width="9.286" height="9.286"/>
	<polygon points="267.094,109.232 267.093,109.232 267.093,99.946 257.807,99.946 257.806,99.946 248.52,99.946 248.52,90.66 
		239.234,90.66 239.234,99.946 239.234,109.232 248.52,109.232 248.52,118.518 257.807,118.518 257.807,127.803 267.094,127.803 
		276.379,127.803 276.379,118.518 267.094,118.518 	"/>
	<rect x="62.803" y="118.518" width="9.286" height="9.286"/>
	<rect x="239.234" y="118.518" width="9.285" height="9.286"/>
	<rect x="220.664" y="137.089" width="9.285" height="9.286"/>
	<polygon points="257.807,137.089 248.521,137.089 248.521,146.375 257.807,146.375 257.807,155.661 257.807,164.946 
		267.094,164.946 267.094,155.661 267.094,146.375 276.379,146.375 276.379,137.089 267.094,137.089 	"/>
	<rect x="211.377" y="146.375" width="9.287" height="9.286"/>
	<polygon points="239.235,155.661 248.521,155.661 248.521,146.375 248.52,146.375 248.52,137.089 239.234,137.089 239.234,146.375 
		229.949,146.375 229.949,155.661 	"/>
	<polygon points="202.092,164.946 202.092,174.233 211.377,174.233 220.664,174.233 220.664,164.946 211.377,164.946 
		211.377,155.661 202.092,155.661 192.806,155.661 192.806,164.946 	"/>
	<rect x="239.235" y="164.946" width="9.285" height="9.287"/>
	<polygon points="16.374,174.233 25.659,174.233 25.659,164.946 16.374,164.946 16.374,174.233 7.088,174.233 7.088,183.52 
		16.374,183.52 	"/>
	<polygon points="257.807,174.233 257.807,183.52 257.807,192.805 267.094,192.805 276.379,192.805 276.379,183.52 276.379,174.233 
		276.379,164.946 267.094,164.946 267.094,174.233 	"/>
	<rect x="7.088" y="192.805" width="9.286" height="9.286"/>
	<rect x="44.231" y="192.805" width="9.286" height="9.286"/>
	<polygon points="248.521,202.091 248.521,211.376 257.807,211.376 257.807,220.663 248.521,220.663 248.521,229.948 
		257.807,229.948 267.094,229.948 267.094,239.234 276.379,239.234 276.379,229.948 276.379,220.663 267.094,220.663 
		267.094,211.376 276.379,211.376 276.379,202.091 267.094,202.091 257.807,202.091 257.807,192.805 248.521,192.805 	"/>
	<rect x="211.377" y="211.376" width="9.287" height="9.287"/>
	<rect x="81.375" y="239.234" width="9.286" height="9.285"/>
	<polygon points="99.947,239.234 90.662,239.234 90.662,248.52 90.662,257.806 99.947,257.806 99.947,267.093 109.233,267.093 
		109.233,257.806 109.233,248.52 99.947,248.52 	"/>
	<polygon points="109.233,239.234 109.233,248.52 118.519,248.52 118.519,257.806 127.804,257.806 127.804,248.52 127.804,239.234 
		118.519,239.234 	"/>
	<polygon points="164.946,34.945 174.232,34.945 174.232,44.23 183.52,44.23 183.52,34.945 192.805,34.945 202.091,34.945 
		202.091,25.659 202.091,16.373 192.805,16.373 192.805,25.659 183.52,25.659 174.232,25.659 164.946,25.659 155.661,25.659 
		155.661,34.945 	"/>
	<rect x="99.946" y="34.945" width="9.286" height="9.285"/>
	<rect x="99.946" y="44.23" width="9.286" height="9.286"/>
	<polygon points="90.66,62.802 90.66,53.516 81.375,53.516 81.375,62.802 81.375,72.088 90.66,72.088 	"/>
	<path d="M174.232,90.66h9.287h9.285v-9.286h9.286v-9.286v-9.286v-9.286h-9.286h-9.285V44.23h-9.287v9.286h-9.286v9.286h9.286v9.286
		h-9.285v9.286h9.285V90.66z M183.52,62.802h9.285v9.286h-9.285V62.802z"/>
	<polygon points="164.947,99.946 155.662,99.946 155.662,109.232 164.947,109.232 174.232,109.232 174.232,99.946 	"/>
	<polygon points="16.374,90.66 16.374,81.375 7.087,81.375 7.087,90.66 7.087,99.946 7.087,109.232 7.087,118.518 7.087,127.803 
		16.374,127.803 16.374,118.518 25.659,118.518 25.659,118.518 25.659,127.803 25.659,137.089 34.945,137.089 34.945,127.803 
		44.23,127.803 44.23,118.518 44.23,109.232 34.945,109.232 25.659,109.232 25.659,99.946 16.374,99.946 	"/>
	<polygon points="53.517,127.803 53.517,118.518 44.231,118.518 44.231,127.803 44.231,137.089 53.517,137.089 62.803,137.089 
		62.803,127.803 	"/>
	<polygon points="81.375,127.803 72.089,127.803 72.089,137.089 62.803,137.089 62.803,146.375 72.089,146.375 72.089,146.375 
		81.375,146.375 81.375,155.661 90.661,155.661 90.661,146.375 90.661,137.089 81.375,137.089 	"/>
	<polygon points="34.945,155.661 44.231,155.661 44.231,146.375 34.945,146.375 25.659,146.375 16.374,146.375 16.374,155.661 
		25.659,155.661 	"/>
	<polygon points="137.089,44.23 146.375,44.23 155.661,44.23 155.661,34.945 146.375,34.945 137.089,34.945 137.089,25.659 
		146.375,25.659 155.661,25.659 155.661,16.373 146.375,16.373 137.089,16.373 137.089,7.087 127.803,7.087 118.518,7.087 
		118.518,16.373 127.803,16.373 127.803,25.659 127.803,34.945 118.518,34.945 118.518,44.23 127.803,44.23 	"/>
	<polygon points="137.089,72.088 137.089,81.375 146.375,81.375 146.375,72.088 146.375,62.802 146.375,53.516 146.375,44.23 
		137.089,44.23 127.803,44.23 127.803,53.516 127.803,62.802 137.089,62.802 	"/>
	<polygon points="146.375,155.661 146.375,146.375 137.09,146.375 127.804,146.375 127.804,137.089 118.518,137.089 
		109.232,137.089 109.232,127.803 109.232,118.518 118.518,118.518 127.803,118.518 127.803,109.232 127.803,99.946 127.803,90.66 
		127.803,81.375 118.518,81.375 118.518,90.66 109.232,90.66 109.232,99.946 99.946,99.946 90.661,99.946 90.661,109.232 
		90.661,118.518 90.66,118.518 90.66,109.232 81.375,109.232 81.375,118.518 81.375,118.518 81.375,127.803 90.661,127.803 
		90.661,137.089 99.946,137.089 99.946,127.803 99.946,127.803 99.946,137.089 99.946,146.375 109.232,146.375 109.232,155.661 
		118.518,155.661 118.519,155.661 118.519,164.946 127.804,164.946 137.09,164.946 146.375,164.946 155.662,164.946 
		155.662,155.661 	"/>
	<polygon points="174.232,155.661 183.521,155.661 192.806,155.661 192.806,146.375 202.092,146.375 202.092,137.089 
		211.377,137.089 211.377,127.803 220.664,127.803 229.949,127.803 229.949,118.518 229.949,109.232 229.949,99.946 220.664,99.946 
		220.664,90.66 229.948,90.66 229.948,81.375 220.663,81.375 220.663,90.66 211.376,90.66 211.376,81.375 202.091,81.375 
		202.091,90.66 202.091,99.946 211.376,99.946 211.376,109.232 220.664,109.232 220.664,118.518 211.377,118.518 202.092,118.518 
		202.092,109.232 192.805,109.232 192.805,99.946 183.52,99.946 183.52,109.232 174.232,109.232 174.232,118.518 183.52,118.518 
		192.805,118.518 192.805,127.803 183.52,127.803 174.232,127.803 174.232,118.518 164.947,118.518 155.662,118.518 
		155.662,109.232 146.375,109.232 137.09,109.232 137.09,118.518 146.375,118.518 146.375,127.803 155.662,127.803 164.947,127.803 
		164.947,137.089 174.232,137.089 183.52,137.089 192.805,137.089 192.805,146.375 183.521,146.375 174.232,146.375 
		164.947,146.375 164.947,155.661 164.947,164.946 155.662,164.946 155.662,174.233 164.947,174.233 174.232,174.233 
		174.232,164.946 	"/>
	<polygon points="53.517,183.52 53.517,174.233 53.517,164.946 62.803,164.946 72.089,164.946 72.089,155.661 62.803,155.661 
		53.517,155.661 44.231,155.661 44.231,164.946 34.946,164.946 34.946,174.233 34.946,183.52 34.946,192.805 44.231,192.805 
		44.231,183.52 	"/>
	<polygon points="72.089,183.52 72.089,174.233 62.803,174.233 62.803,174.233 53.517,174.233 53.517,183.52 53.517,192.805 
		62.803,192.805 62.803,183.52 	"/>
	<path d="M248.521,239.234h-9.285v-9.286h9.284v-9.285h-9.284h-0.001v-9.287v-9.285v-9.286v-9.285h-9.286v9.285h-9.285v-9.285
		h-9.287v9.285h-9.285v-9.285v-9.286h-9.286v9.286h0.001v9.285v9.286h-9.286v9.285h-9.286h-0.001h-9.286v-9.285v-9.286h9.286h9.288
		v-9.285h-0.001v-9.286h-9.288v9.286h-9.285h-9.285h-9.286v9.285h-9.286v9.286h9.286h9.286v9.285v9.287v9.285h9.285v-9.285h9.286
		v9.285h-9.286v9.286h9.287v-9.286h9.287v-9.285v-9.287h9.285v9.287v9.285v9.286h9.285h9.285v9.285h9.287h9.285v9.286h9.287h9.285
		h9.285v-9.286h9.287v-9.285h-9.287H248.521z M229.949,211.376v9.287v9.285h-9.285h-9.287h-9.285v-9.285v-9.287v-9.285h9.285h9.287
		h9.285V211.376z"/>
	<rect x="81.375" y="220.663" width="9.286" height="9.285"/>
	<polygon points="137.09,174.233 127.804,174.233 127.804,183.52 127.804,192.805 137.09,192.805 137.09,183.52 	"/>
	<polygon points="99.946,164.946 99.947,164.946 99.947,174.233 90.661,174.233 90.661,183.52 90.661,192.805 81.375,192.805 
		72.089,192.805 62.803,192.805 62.803,202.091 72.089,202.091 81.375,202.091 81.375,211.376 90.661,211.376 90.661,220.663 
		90.662,220.663 90.662,229.948 99.947,229.948 109.233,229.948 118.519,229.948 127.804,229.948 127.804,220.663 118.519,220.663 
		109.233,220.663 109.233,211.376 118.519,211.376 118.519,202.091 109.233,202.091 109.233,202.091 109.233,192.805 
		118.519,192.805 127.804,192.805 127.804,183.52 127.804,174.233 118.519,174.233 109.233,174.233 109.233,164.946 
		109.232,164.946 109.232,155.661 99.946,155.661 	"/>
	<rect x="81.375" y="174.233" width="9.285" height="9.286"/>
	<polygon points="146.377,248.52 155.662,248.52 155.662,239.234 146.377,239.234 146.376,239.234 146.376,229.948 137.091,229.948 
		137.091,220.663 146.376,220.663 146.376,211.376 137.091,211.376 137.09,211.376 137.09,202.091 127.804,202.091 127.804,211.376 
		127.805,211.376 127.805,220.663 127.805,229.948 137.09,229.948 137.09,239.234 137.091,239.234 137.091,248.52 137.091,257.806 
		137.091,267.093 146.377,267.093 146.377,257.806 	"/>
	<polygon points="202.092,257.806 192.807,257.806 192.807,248.52 192.807,239.234 183.521,239.234 183.521,248.52 174.234,248.52 
		164.947,248.52 164.947,257.806 155.662,257.806 155.662,267.093 164.947,267.093 164.947,276.378 174.234,276.378 
		183.521,276.378 183.521,267.093 192.807,267.093 192.807,276.378 202.092,276.378 202.092,267.093 211.377,267.093 
		211.377,257.806 211.377,248.52 202.092,248.52 	"/>
	<rect x="267.094" y="248.52" width="9.285" height="9.286"/>
	<polygon points="257.807,267.093 257.807,276.378 267.094,276.378 267.094,267.093 267.094,257.806 257.807,257.806 	"/>
	<rect x="81.376" y="267.093" width="9.286" height="9.285"/>
	<rect x="146.377" y="267.093" width="9.285" height="9.285"/>
	<polygon points="229.949,267.093 220.664,267.093 220.664,276.378 229.949,276.378 239.236,276.378 248.521,276.378 
		248.521,267.093 239.236,267.093 	"/>
	<path d="M62.339,72.09h9.751v-9.751V16.837V7.086h-9.751H16.837H7.086v9.751v45.501v9.751h9.751H62.339z M16.837,16.837h45.501
		v45.501H16.837V16.837z"/>
	<path d="M266.629,7.086h-45.502h-9.75v9.751v45.501v9.751h9.75h45.502h9.751v-9.751V16.837V7.086H266.629z M266.629,62.339h-45.502
		V16.837h45.502V62.339z"/>
	<path d="M16.837,211.377H7.086v9.75v45.502v9.751h9.751h45.501h9.751v-9.751v-45.502v-9.75h-9.751H16.837z M62.339,266.629H16.837
		v-45.502h45.501V266.629z"/>
	<rect x="25.66" y="25.658" width="27.857" height="27.857"/>
	<rect x="229.949" y="25.659" width="27.857" height="27.857"/>
	<rect x="25.66" y="229.949" width="27.857" height="27.857"/>
</g>
</svg>
