<?xml version="1.0" encoding="utf-8"?>
<!-- Generator: Adobe Illustrator 15.1.0, SVG Export Plug-In . SVG Version: 6.00 Build 0)  -->
<!DOCTYPE svg PUBLIC "-//W3C//DTD SVG 1.0//EN" "http://www.w3.org/TR/2001/REC-SVG-20010904/DTD/svg10.dtd">
<svg version="1.0" id="Layer_2" xmlns="http://www.w3.org/2000/svg" xmlns:xlink="http://www.w3.org/1999/xlink" x="0px" y="0px"
	 width="283.46px" height="283.46px" viewBox="0 0 283.46 283.46" enable-background="new 0 0 283.46 283.46" xml:space="preserve">
<g>
	<path d="M141.729,7.085C67.367,7.085,7.084,67.368,7.084,141.73c0,74.362,60.283,134.646,134.645,134.646
		s134.646-60.284,134.646-134.646C276.376,67.368,216.092,7.085,141.729,7.085z M147.903,224.401h-27.919v-28.65h27.919V224.401z
		 M185.226,121.68c-2.586,5.651-6.033,10.726-10.242,15.081c-4.051,4.124-8.751,8.024-13.987,11.612
		c-4.648,3.182-9.606,6.312-14.764,9.317v24.91h-25.308v-37.094l1.668-0.948c4.507-2.565,9.438-5.408,14.652-8.448
		c5.022-2.926,9.164-5.906,12.311-8.857c3.813-3.419,6.758-6.926,8.804-10.476c1.926-3.342,2.903-7.764,2.903-13.138
		c0-6.813-2.17-11.7-6.632-14.939c-4.729-3.431-11.023-5.17-18.702-5.17c-7.111,0-13.933,1.132-20.274,3.366
		c-6.464,2.277-11.606,4.598-15.285,6.897l-0.802,0.501h-5.292V67.41l2.112-0.815c5.02-1.936,11.443-3.695,19.09-5.225
		c7.669-1.534,15.042-2.312,21.914-2.312c15.703,0,28.354,3.934,37.601,11.693c9.416,7.903,14.189,18.441,14.189,31.319
		C189.183,109.344,187.852,115.941,185.226,121.68z"/>
</g>
</svg>
