<?xml version="1.0" encoding="utf-8"?>
<!-- Generator: Adobe Illustrator 15.1.0, SVG Export Plug-In . SVG Version: 6.00 Build 0)  -->
<!DOCTYPE svg PUBLIC "-//W3C//DTD SVG 1.1//EN" "http://www.w3.org/Graphics/SVG/1.1/DTD/svg11.dtd">
<svg version="1.1" id="Layer_1" xmlns="http://www.w3.org/2000/svg" xmlns:xlink="http://www.w3.org/1999/xlink" x="0px" y="0px"
	 width="283.465px" height="283.465px" viewBox="0 0 283.465 283.465" enable-background="new 0 0 283.465 283.465"
	 xml:space="preserve">
<g>
	<path fill="none" d="M124.832,171.005l-39.434,68.303c34.86,20.127,77.81,20.127,112.67,0l-39.435-68.303
		C148.175,177.043,135.29,177.043,124.832,171.005z"/>
	<circle fill="none" cx="141.732" cy="141.732" r="22.534"/>
	<path fill="none" d="M124.832,112.46L85.397,44.157c-34.86,20.126-56.336,57.322-56.336,97.575h78.87
		C107.931,129.657,114.374,118.498,124.832,112.46z"/>
	<path fill="none" d="M198.067,44.157l-39.435,68.303c10.458,6.038,16.9,17.197,16.9,29.272h78.869
		C254.402,101.479,232.928,64.284,198.067,44.157z"/>
	<path d="M141.732,7.087C67.37,7.087,7.087,67.37,7.087,141.732c0,74.362,60.283,134.646,134.646,134.646
		c74.362,0,134.646-60.283,134.646-134.646C276.378,67.37,216.095,7.087,141.732,7.087z M141.732,119.198
		c12.445,0,22.534,10.089,22.534,22.534c0,12.445-10.089,22.534-22.534,22.534s-22.534-10.089-22.534-22.534
		C119.198,129.288,129.287,119.198,141.732,119.198z M29.062,141.732c0-40.253,21.476-77.449,56.336-97.575l39.434,68.303
		c-10.458,6.038-16.9,17.197-16.9,29.272H29.062z M85.397,239.308l39.434-68.303c10.458,6.038,23.343,6.038,33.801,0l39.435,68.303
		C163.207,259.435,120.258,259.435,85.397,239.308z M175.533,141.732c0-12.076-6.442-23.234-16.9-29.272l39.435-68.303
		c34.86,20.126,56.335,57.322,56.335,97.575H175.533z"/>
</g>
</svg>
