<?xml version="1.0" encoding="utf-8"?>
<!-- Generator: Adobe Illustrator 15.1.0, SVG Export Plug-In . SVG Version: 6.00 Build 0)  -->
<!DOCTYPE svg PUBLIC "-//W3C//DTD SVG 1.1//EN" "http://www.w3.org/Graphics/SVG/1.1/DTD/svg11.dtd">
<svg version="1.1" id="Layer_6" xmlns="http://www.w3.org/2000/svg" xmlns:xlink="http://www.w3.org/1999/xlink" x="0px" y="0px"
	 width="283.465px" height="283.465px" viewBox="0 0 283.465 283.465" enable-background="new 0 0 283.465 283.465"
	 xml:space="preserve">
<path fill="#231F20" d="M232.734,181.97H218.49c-4.232-7.936-10.141-15.305-17.379-21.463
	c-14.383-12.238-32.758-18.695-51.746-18.178c-28.793-1.607-39.359-15.291-41.008-56.766h4.893h8.271h0.25h0.596V85.54
	c5.012-0.369,8.984-5.36,8.984-11.451l1.254-16.18h5.676c1.729,0,3.133-1.402,3.133-3.132V26.79c0-1.729-1.404-3.131-3.133-3.131
	h-3.021l0.395-5.084c0-6.359-4.289-11.488-9.58-11.488h-4.553h-14.139h-2.947H87.986h-2.234c-5.291,0-9.58,5.129-9.58,11.488
	l4.301,55.514c0,5.48,3.217,10.068,7.514,11.203v0.272h1.473h0.594h8.518h5.375c0.834,20.468,3.816,34.089,9.375,43.304
	c6.865,11.381,17.936,16.896,35.895,17.879l0.092,0.006l0.092-0.002c29.195-0.818,52.414,15.344,64,35.221H50.73
	c-9.243,0-16.764,7.531-16.764,16.764v26.313v16.773v17.795c0,9.242,7.521,16.762,16.764,16.762h182.004
	c9.242,0,16.764-7.52,16.764-16.762v-11.625v-6.172v-4.938v-4.621v-7.215v-11.074v-15.238
	C249.498,189.501,241.977,181.97,232.734,181.97z M72.555,243.021c-7.652,0-13.857-6.205-13.857-13.859
	c0-7.652,6.205-13.857,13.857-13.857c7.654,0,13.859,6.205,13.859,13.857C86.414,236.815,80.209,243.021,72.555,243.021z
	 M107.273,243.021c-7.654,0-13.859-6.205-13.859-13.859c0-7.652,6.205-13.857,13.859-13.857s13.857,6.205,13.857,13.857
	C121.131,236.815,114.928,243.021,107.273,243.021z M152.451,255.913c0,1.893-1.529,3.447-3.434,3.447s-3.447-1.555-3.447-3.447
	v-15.857c0-1.904,1.543-3.434,3.447-3.434s3.434,1.529,3.434,3.434V255.913z M165.623,255.913c0,1.893-1.529,3.447-3.436,3.447
	c-1.902,0-3.445-1.555-3.445-3.447v-15.857c0-1.904,1.543-3.434,3.445-3.434c1.906,0,3.436,1.529,3.436,3.434V255.913z
	 M178.783,255.913c0,1.893-1.531,3.447-3.436,3.447c-1.902,0-3.436-1.555-3.436-3.447v-15.857c0-1.904,1.531-3.434,3.436-3.434
	c1.916,0,3.447,1.529,3.436,3.434V255.913z M191.967,255.913c0,1.893-1.555,3.447-3.447,3.447c-1.902,0-3.434-1.555-3.434-3.447
	v-15.857c0-1.904,1.531-3.434,3.434-3.434c1.895,0,3.447,1.529,3.447,3.434V255.913z M205.584,255.913
	c0,1.893-1.543,3.447-3.445,3.447c-1.893,0-3.436-1.555-3.436-3.447v-15.857c0-1.904,1.543-3.434,3.436-3.434
	c1.902,0,3.445,1.529,3.445,3.434V255.913z M218.768,255.913c0,1.893-1.555,3.447-3.445,3.447c-1.904,0-3.447-1.555-3.447-3.447
	v-15.857c0-1.904,1.543-3.434,3.447-3.434c1.893,0,3.445,1.529,3.445,3.434V255.913z M226.203,222.835c0,5.301-4.289,9.58-9.58,9.58
	h-68.256c-5.279,0-9.568-4.289-9.568-9.58v-11.967c0-5.289,4.289-9.58,9.568-9.58h68.256c5.303,0,9.58,4.303,9.58,9.58V222.835
	L226.203,222.835z"/>
</svg>
