<?xml version="1.0" encoding="utf-8"?>
<!-- Generator: Adobe Illustrator 15.1.0, SVG Export Plug-In . SVG Version: 6.00 Build 0)  -->
<!DOCTYPE svg PUBLIC "-//W3C//DTD SVG 1.1//EN" "http://www.w3.org/Graphics/SVG/1.1/DTD/svg11.dtd">
<svg version="1.1" id="Layer_1" xmlns:serif="http://www.serif.com/"
	 xmlns="http://www.w3.org/2000/svg" xmlns:xlink="http://www.w3.org/1999/xlink" x="0px" y="0px" width="283.46px"
	 height="283.46px" viewBox="0 0 283.46 283.46" enable-background="new 0 0 283.46 283.46" xml:space="preserve">
<g>
	
		<path fill="none" stroke="#000000" stroke-width="4.17" stroke-linecap="round" stroke-linejoin="round" stroke-miterlimit="2.2561" d="
		M90.906,169.884c-12.985,0-24.585-5.979-32.195-15.328c-5.811-7.142-9.295-16.25-9.295-26.164c0-22.899,18.59-41.49,41.49-41.49
		c0-22.899,18.59-41.492,41.49-41.492c22.899,0,41.492,18.593,41.492,41.492h18.667c22.899,0,41.49,18.591,41.49,41.49
		c0,9.914-3.484,19.022-9.295,26.164c-7.61,9.35-19.211,15.328-32.195,15.328"/>
	<g>
		<path fill="none" stroke="#010001" stroke-width="4.17" stroke-linecap="round" stroke-miterlimit="1.25" d="M118.676,238.05
			l24.867-79.254"/>
	</g>
	<g>
		<path fill="none" stroke="#010001" stroke-width="4.17" stroke-linecap="round" stroke-miterlimit="1.25" d="M151.479,228.912
			l22.001-70.115"/>
	</g>
	<g>
		<path fill="none" stroke="#010001" stroke-width="4.17" stroke-linecap="round" stroke-miterlimit="1.25" d="M96.254,214.035
			l17.333-55.238"/>
	</g>
</g>
</svg>
