<?xml version="1.0" encoding="utf-8"?>
<!-- Generator: Adobe Illustrator 15.1.0, SVG Export Plug-In . SVG Version: 6.00 Build 0)  -->
<!DOCTYPE svg PUBLIC "-//W3C//DTD SVG 1.1//EN" "http://www.w3.org/Graphics/SVG/1.1/DTD/svg11.dtd">
<svg version="1.1" id="Layer_1" xmlns:serif="http://www.serif.com/"
	 xmlns="http://www.w3.org/2000/svg" xmlns:xlink="http://www.w3.org/1999/xlink" x="0px" y="0px" width="283.46px"
	 height="283.46px" viewBox="0 0 283.46 283.46" enable-background="new 0 0 283.46 283.46" xml:space="preserve">
<g>
	
		<path fill="none" stroke="#000000" stroke-width="4.17" stroke-linecap="round" stroke-linejoin="round" stroke-miterlimit="2.2561" d="
		M90.907,175.001c-12.985,0-24.584-5.977-32.194-15.326c-5.811-7.141-9.298-16.249-9.298-26.163
		c0-22.899,18.593-41.492,41.492-41.492c0-22.899,18.591-41.49,41.49-41.49c22.9,0,41.49,18.591,41.49,41.49h18.67
		c22.898,0,41.49,18.593,41.49,41.492c0,9.914-3.484,19.022-9.299,26.163c-7.609,9.35-19.207,15.326-32.191,15.326"/>
	<g>
		<g>
			<path fill="none" stroke="#010001" stroke-width="4.17" stroke-linecap="round" stroke-miterlimit="1.25" d="M151.902,205.644
				l5.418-11.132"/>
			<path fill="none" stroke="#010001" stroke-width="4.17" stroke-linecap="round" stroke-miterlimit="1.25" d="M168.644,171.248
				l8.125-16.692"/>
			<ellipse cx="163.039" cy="182.806" rx="4.568" ry="4.516"/>
			<circle cx="146.248" cy="217.124" r="4.516"/>
		</g>
		<g>
			<path fill="none" stroke="#010001" stroke-width="4.17" stroke-linecap="round" stroke-miterlimit="1.25" d="M120.435,216.934
				l5.418-11.132"/>
			<path fill="none" stroke="#010001" stroke-width="4.17" stroke-linecap="round" stroke-miterlimit="1.25" d="M137.176,182.537
				l8.126-16.691"/>
			<ellipse cx="131.57" cy="194.096" rx="4.568" ry="4.516"/>
			<circle cx="114.778" cy="228.414" r="4.516"/>
		</g>
		<g>
			<path fill="none" stroke="#010001" stroke-width="4.17" stroke-linecap="round" stroke-miterlimit="1.25" d="M101.678,202.054
				l5.418-11.131"/>
			<path fill="none" stroke="#010001" stroke-width="4.17" stroke-linecap="round" stroke-miterlimit="1.25" d="M118.422,167.658
				l8.125-16.691"/>
			<ellipse cx="112.816" cy="179.214" rx="4.568" ry="4.516"/>
			<circle cx="96.024" cy="213.535" r="4.516"/>
		</g>
	</g>
</g>
</svg>
