<?xml version="1.0" encoding="utf-8"?>
<!-- Generator: Adobe Illustrator 15.1.0, SVG Export Plug-In . SVG Version: 6.00 Build 0)  -->
<!DOCTYPE svg PUBLIC "-//W3C//DTD SVG 1.1//EN" "http://www.w3.org/Graphics/SVG/1.1/DTD/svg11.dtd">
<svg version="1.1"
	 id="svg3735" xmlns:sodipodi="http://sodipodi.sourceforge.net/DTD/sodipodi-0.dtd" xmlns:inkscape="http://www.inkscape.org/namespaces/inkscape" xmlns:dc="http://purl.org/dc/elements/1.1/" xmlns:svg="http://www.w3.org/2000/svg" xmlns:cc="http://creativecommons.org/ns#" xmlns:rdf="http://www.w3.org/1999/02/22-rdf-syntax-ns#" inkscape:version="0.92.2 (5c3e80d, 2017-08-06)" sodipodi:docname="Raspberry_Pi_Logo.svg"
	 xmlns="http://www.w3.org/2000/svg" xmlns:xlink="http://www.w3.org/1999/xlink" x="0px" y="0px" width="283.465px"
	 height="283.465px" viewBox="0 0 283.465 283.465" enable-background="new 0 0 283.465 283.465" xml:space="preserve">
<sodipodi:namedview  units="px" id="base" inkscape:pagecheckerboard="true" inkscape:window-maximized="1" showgrid="false" inkscape:cx="309.80578" pagecolor="#ffffff" borderopacity="1.0" bordercolor="#666666" inkscape:zoom="1.4142136" inkscape:cy="186.02077" fit-margin-top="0" fit-margin-left="0" inkscape:pageopacity="0.0" inkscape:pageshadow="2" inkscape:window-height="1017" inkscape:window-width="1920" inkscape:current-layer="layer1" inkscape:document-units="mm" fit-margin-bottom="0" fit-margin-right="0" inkscape:window-y="-8" inkscape:window-x="-8">
	</sodipodi:namedview>
<g>
	<path d="M228.994,129.344l-1.906-3.396c0.075-24.401-11.076-34.346-24.08-41.907c3.935-1.053,7.998-1.919,9.111-6.937
		c6.762-1.757,8.176-4.935,8.854-8.301c1.769-1.197,7.688-4.557,7.066-10.335c3.313-2.322,5.162-5.301,4.221-9.523
		c3.563-3.943,4.5-7.202,2.987-10.206c4.274-5.391,2.378-8.186,0.554-11.015c3.201-5.895,0.375-12.217-8.574-11.158
		c-3.561-5.311-11.321-4.104-12.522-4.08c-1.343-1.705-3.114-3.165-8.569-2.457c-3.533-3.199-7.483-2.653-11.56-1.082
		c-4.839-3.818-8.04-0.757-11.696,0.399c-5.859-1.915-7.199,0.708-10.076,1.775c-6.39-1.35-8.33,1.589-11.394,4.692l-3.563-0.071
		c-9.637,5.679-14.422,17.242-16.119,23.186c-1.698-5.945-6.474-17.509-16.108-23.186l-3.563,0.071
		c-3.067-3.103-5.008-6.042-11.397-4.692c-2.878-1.067-4.214-3.69-10.076-1.775c-2.4-0.759-4.608-2.338-7.208-2.257L93.38,7.09
		c-1.362,0.042-2.829,0.545-4.492,1.858c-4.075-1.571-8.025-2.117-11.559,1.082c-5.456-0.708-7.229,0.752-8.572,2.458
		c-1.197-0.025-8.962-1.231-12.522,4.08c-8.948-1.059-11.776,5.263-8.572,11.159c-1.827,2.829-3.721,5.624,0.553,11.017
		c-1.512,3.004-0.575,6.262,2.987,10.206c-0.94,4.223,0.907,7.202,4.221,9.524c-0.62,5.778,5.299,9.138,7.066,10.335
		c0.679,3.367,2.093,6.544,8.854,8.301c1.115,5.018,5.178,5.884,9.113,6.937c-13.004,7.559-24.156,17.504-24.081,41.907
		l-1.905,3.397c-14.911,9.067-28.326,38.211-7.348,61.901c1.37,7.414,3.668,12.74,5.714,18.636
		c3.061,23.753,23.033,34.875,28.301,36.19c7.719,5.879,15.94,11.459,27.066,15.366c10.488,10.817,21.85,14.938,33.274,14.933
		c0.167,0,0.338,0.004,0.506,0c11.424,0.008,22.786-4.114,33.274-14.933c11.125-3.907,19.348-9.487,27.066-15.366
		c5.268-1.315,25.24-12.438,28.301-36.19c2.047-5.896,4.344-11.222,5.715-18.636C257.32,167.559,243.906,138.413,228.994,129.344z
		 M215.51,125.176c-0.777,9.828-51.229-34.227-42.521-35.69C196.633,85.494,216.303,99.54,215.51,125.176z M194.617,174.152
		c-12.688,8.313-30.975,2.948-40.841-11.982c-9.867-14.934-7.58-33.775,5.108-42.087c12.688-8.313,30.974-2.949,40.84,11.982
		C209.594,146.996,207.305,165.838,194.617,174.152z M160.121,22.481c0.438,2.207,0.932,3.602,1.497,4.013
		c2.804-3.052,5.097-6.178,8.706-9.115c0.014,1.725-0.857,3.597,1.293,4.966c1.936-2.644,4.553-5.004,8.025-7.006
		c-1.672,2.93-0.286,3.819,0.613,5.034c2.653-2.31,5.174-4.65,10.067-6.462c-1.339,1.654-3.208,3.269-1.226,5.169
		c2.732-1.732,5.482-3.462,11.973-4.694c-1.463,1.655-4.486,3.311-2.652,4.966c3.43-1.331,7.227-2.296,11.428-2.857
		c-2.012,1.68-3.688,3.325-2.041,4.625c3.672-1.146,8.729-2.691,13.674-1.36l-3.129,3.197c-0.348,0.428,7.318,0.333,12.381,0.408
		c-1.848,2.604-3.73,5.118-4.83,9.591c0.502,0.516,3.01,0.229,5.374,0c-2.425,5.182-6.638,6.489-7.619,8.707
		c1.481,1.139,3.537,0.842,5.782,0.068c-1.745,3.651-5.406,6.152-8.299,9.115c0.73,0.526,2.009,0.841,5.033,0.476
		c-2.672,2.884-5.9,5.52-9.728,7.891c0.678,0.795,3.009,0.764,5.169,0.816c-3.465,3.443-7.928,5.229-12.107,7.482
		c2.086,1.445,3.573,1.108,5.17,1.088c-2.957,2.466-7.984,3.749-12.651,5.237c0.887,1.401,1.774,1.784,3.673,2.177
		c-4.939,2.776-12.018,1.506-14.014,2.925c0.481,1.396,1.842,2.303,3.47,3.061c-7.954,0.469-29.707-0.294-33.875-17.006
		c8.142-9.083,23.001-19.741,48.562-32.921c-19.887,6.758-37.83,15.765-52.848,28.16C139.335,51.888,151.508,30.838,160.121,22.481z
		 M141.63,82.754c12.521-0.137,28.023,9.343,27.96,18.275c-0.054,7.884-10.888,14.267-27.864,14.146
		c-16.625-0.198-27.821-8.021-27.781-15.66C113.978,93.227,127.52,82.387,141.63,82.754L141.63,82.754z M78.345,76.016
		c1.898-0.393,2.786-0.776,3.673-2.177c-4.668-1.488-9.695-2.771-12.652-5.237c1.596,0.02,3.085,0.357,5.169-1.088
		c-4.181-2.253-8.642-4.039-12.108-7.482c2.162-0.053,4.492-0.021,5.169-0.816c-3.826-2.371-7.055-5.007-9.727-7.891
		c3.025,0.365,4.302,0.05,5.034-0.476c-2.893-2.963-6.554-5.464-8.299-9.115c2.246,0.774,4.301,1.071,5.782-0.068
		c-0.983-2.217-5.194-3.525-7.619-8.707c2.365,0.229,4.873,0.516,5.375,0c-1.098-4.472-2.981-6.985-4.828-9.59
		c5.061-0.075,12.728,0.02,12.381-0.408l-3.129-3.197c4.943-1.331,10.001,0.214,13.673,1.36c1.649-1.301-0.029-2.946-2.041-4.625
		c4.201,0.561,7.997,1.526,11.428,2.857c1.833-1.655-1.19-3.311-2.653-4.966c6.49,1.231,9.239,2.961,11.972,4.693
		c1.982-1.9,0.113-3.515-1.225-5.169c4.894,1.813,7.415,4.152,10.068,6.462c0.9-1.214,2.286-2.104,0.612-5.034
		c3.475,2.003,6.091,4.363,8.027,7.006c2.15-1.369,1.281-3.241,1.292-4.965c3.611,2.937,5.902,6.063,8.707,9.115
		c0.565-0.411,1.06-1.807,1.497-4.013c8.614,8.357,20.787,29.407,3.129,37.753C112.034,47.852,94.099,38.847,74.225,32.09
		c25.546,13.173,40.4,23.831,48.539,32.908c-4.17,16.712-25.922,17.475-33.876,17.006c1.629-0.758,2.987-1.666,3.469-3.061
		C90.363,77.522,83.286,78.792,78.345,76.016z M107.67,88.733c8.71,1.464-41.742,45.52-42.52,35.691
		C64.357,98.79,84.027,84.741,107.67,88.733z M54.701,186.899c-12.261-9.86-16.21-38.741,6.521-51.723
		C74.922,131.504,65.847,191.852,54.701,186.899z M102.494,238.59c-6.915,4.172-23.708,2.453-35.644-14.692
		c-8.05-14.39-7.013-29.03-1.36-33.332c8.452-5.147,21.511,1.806,31.563,13.47l0,0C105.811,214.586,109.804,233.127,102.494,238.59z
		 M88.907,175.658c-12.688-8.314-14.976-27.158-5.109-42.088c9.867-14.933,28.152-20.297,40.841-11.983
		c12.689,8.313,14.976,27.156,5.109,42.087C119.881,178.604,101.595,183.971,88.907,175.658z M141.676,267.979
		c-15.21,0.656-30.126-12.459-29.931-17.006c-0.228-6.665,18.521-11.869,30.747-11.564c12.304-0.535,28.812,3.963,28.843,9.932
		C171.537,255.137,156.362,268.232,141.676,267.979z M172.979,202.252c0.089,15.595-13.55,28.304-30.462,28.385
		c-16.912,0.082-30.694-12.492-30.783-28.088c0-0.1,0-0.197,0-0.297c-0.089-15.597,13.549-28.306,30.461-28.388
		c16.913-0.083,30.693,12.494,30.783,28.089C172.979,202.053,172.979,202.152,172.979,202.252z M215.799,224.726
		c-13.105,18.188-30.852,18.896-37.461,13.829c-6.912-6.52-1.638-26.766,7.84-37.865v-0.004
		c10.846-12.244,22.438-20.236,30.514-13.991C222.127,192.111,225.316,212.51,215.799,224.726z M226.057,186.151
		c-11.146,4.952-20.223-55.397-6.521-51.727C242.268,147.405,238.318,176.289,226.057,186.151z"/>
</g>
</svg>
