<?xml version="1.0" encoding="utf-8"?>
<!-- Generator: Adobe Illustrator 15.1.0, SVG Export Plug-In . SVG Version: 6.00 Build 0)  -->
<!DOCTYPE svg PUBLIC "-//W3C//DTD SVG 1.0//EN" "http://www.w3.org/TR/2001/REC-SVG-20010904/DTD/svg10.dtd">
<svg version="1.0" id="Layer_2" xmlns="http://www.w3.org/2000/svg" xmlns:xlink="http://www.w3.org/1999/xlink" x="0px" y="0px"
	 width="283.46px" height="283.46px" viewBox="0 0 283.46 283.46" enable-background="new 0 0 283.46 283.46" xml:space="preserve">
<path d="M42.068,154.282v74.98c0,2.485,2.016,4.5,4.5,4.5h24c2.484,0,4.5-2.015,4.5-4.5v-74.98c0-14.348,11.672-26.02,26.02-26.02
	h41.914v36.239c0,2.691,1.135,5.19,2.996,6.6c1.007,0.762,2.148,1.146,3.292,1.146c0.972,0,1.946-0.277,2.842-0.836l85.816-53.532
	c2.114-1.319,3.446-3.99,3.446-6.909c0-2.918-1.332-5.589-3.446-6.908l-85.816-53.531c-1.948-1.216-4.271-1.098-6.134,0.31
	c-1.861,1.41-2.996,3.908-2.996,6.599v37.823h-41.914C68.544,95.264,42.069,121.74,42.068,154.282z"/>
</svg>
