<?xml version="1.0" encoding="utf-8"?>
<!-- Generator: Adobe Illustrator 15.1.0, SVG Export Plug-In . SVG Version: 6.00 Build 0)  -->
<!DOCTYPE svg PUBLIC "-//W3C//DTD SVG 1.0//EN" "http://www.w3.org/TR/2001/REC-SVG-20010904/DTD/svg10.dtd">
<svg version="1.0" id="Layer_5" xmlns="http://www.w3.org/2000/svg" xmlns:xlink="http://www.w3.org/1999/xlink" x="0px" y="0px"
	 width="283.46px" height="283.46px" viewBox="0 0 283.46 283.46" enable-background="new 0 0 283.46 283.46" xml:space="preserve">
<path fill="#231F20" d="M242.712,215.947c-1.204-0.281-2.405-0.554-3.609-0.824c-3.271-0.721-6.751,0.443-8.914,2.979
	c-14.464,16.956-33.561,28.678-55.227,33.9c-8.098,1.951-16.391,2.941-24.647,2.941c-48.769,0-90.812-33.119-102.243-80.538
	c-6.572-27.262-2.111-55.49,12.563-79.487c14.673-23.996,37.769-40.83,65.032-47.402c8.095-1.952,16.385-2.941,24.639-2.941
	c13.716,0,27.14,2.681,39.69,7.83l-20.705,27.569l90.495,10.965l-35.75-83.855l-20.817,27.717
	c-16.543-7.656-34.504-11.658-52.915-11.658c-9.94,0-19.919,1.19-29.66,3.538C87.817,34.594,60.012,54.858,42.353,83.74
	c-17.661,28.88-23.029,62.863-15.116,95.69c6.692,27.754,22.8,52.687,45.357,70.207c22.201,17.242,49.802,26.738,77.721,26.738
	c9.948,0,19.93-1.19,29.67-3.539c26.729-6.441,50.13-21.033,67.672-42.194c2.031-2.449,2.637-5.712,1.622-8.727
	C248.266,218.901,245.81,216.669,242.712,215.947z"/>
</svg>
