<?xml version="1.0" encoding="utf-8"?>
<!-- Generator: Adobe Illustrator 15.1.0, SVG Export Plug-In . SVG Version: 6.00 Build 0)  -->
<!DOCTYPE svg PUBLIC "-//W3C//DTD SVG 1.0//EN" "http://www.w3.org/TR/2001/REC-SVG-20010904/DTD/svg10.dtd">
<svg version="1.0" id="Layer_5" xmlns="http://www.w3.org/2000/svg" xmlns:xlink="http://www.w3.org/1999/xlink" x="0px" y="0px"
	 width="283.46px" height="283.46px" viewBox="0 0 283.46 283.46" enable-background="new 0 0 283.46 283.46" xml:space="preserve">
<path fill="#231F20" d="M230.368,206.875c-1.056-0.246-2.11-0.486-3.167-0.723c-2.871-0.633-5.926,0.389-7.825,2.615
	c-12.696,14.883-29.459,25.172-48.476,29.756c-7.107,1.713-14.387,2.582-21.635,2.582c-42.807,0-79.711-29.07-89.745-70.693
	c-5.769-23.93-1.853-48.708,11.027-69.771c12.88-21.063,33.152-35.839,57.083-41.608c7.106-1.713,14.382-2.582,21.627-2.582
	c12.04,0,23.823,2.353,34.839,6.873l-18.175,24.199l79.434,9.625l-31.38-73.605l-18.273,24.329
	c-14.521-6.72-30.286-10.233-46.446-10.233c-8.726,0-17.485,1.045-26.035,3.105C94.407,47.69,70.001,65.477,54.5,90.828
	c-15.502,25.35-20.214,55.18-13.268,83.994c5.874,24.361,20.013,46.246,39.813,61.625c19.487,15.135,43.715,23.471,68.22,23.471
	c8.732,0,17.495-1.045,26.044-3.107c23.462-5.654,44.002-18.463,59.4-37.037c1.782-2.15,2.314-5.014,1.424-7.66
	S233.087,207.509,230.368,206.875z"/>
</svg>
