<?xml version="1.0" encoding="utf-8"?>
<!-- Generator: Adobe Illustrator 15.1.0, SVG Export Plug-In . SVG Version: 6.00 Build 0)  -->
<!DOCTYPE svg PUBLIC "-//W3C//DTD SVG 1.1//EN" "http://www.w3.org/Graphics/SVG/1.1/DTD/svg11.dtd">
<svg version="1.1" id="Layer_1" xmlns="http://www.w3.org/2000/svg" xmlns:xlink="http://www.w3.org/1999/xlink" x="0px" y="0px"
	 width="283.68px" height="283.92px" viewBox="0 0 283.68 283.92" enable-background="new 0 0 283.68 283.92" xml:space="preserve">
<g>
	<g>
		<path fill="#020202" d="M265.27,138.092h-12.414c-1.067,0-1.937-0.841-1.992-1.908c-3.003-57.092-50.26-102.457-108.108-102.423
			C84.787,33.796,35.439,82.456,34.632,140.418C33.789,200.881,82.55,250.159,142.82,250.159c34.131,0,64.566-15.807,84.396-40.493
			c0.604-0.753,0.574-1.837-0.06-2.565l-26.303-30.232c-0.873-1.003-2.464-0.891-3.183,0.229
			c-11.85,18.463-32.748,30.561-56.442,29.994c-34.766-0.828-63.05-29.395-63.552-64.167C77.15,106.501,106.518,76.81,142.82,76.81
			c33.93,0,61.79,25.939,64.859,59.068c0.108,1.184-0.802,2.214-1.99,2.214H192.12c-1.717,0-2.636,2.018-1.51,3.313l36.574,42.041
			c0.798,0.917,2.221,0.917,3.019,0l36.574-42.041C267.904,140.11,266.985,138.092,265.27,138.092"/>
	</g>
</g>
</svg>
