<?xml version="1.0" encoding="utf-8"?>
<!-- Generator: Adobe Illustrator 15.1.0, SVG Export Plug-In . SVG Version: 6.00 Build 0)  -->
<!DOCTYPE svg PUBLIC "-//W3C//DTD SVG 1.1//EN" "http://www.w3.org/Graphics/SVG/1.1/DTD/svg11.dtd">
<svg version="1.1" id="Layer_5" xmlns="http://www.w3.org/2000/svg" xmlns:xlink="http://www.w3.org/1999/xlink" x="0px" y="0px"
	 width="283.46px" height="283.46px" viewBox="0 0 283.46 283.46" enable-background="new 0 0 283.46 283.46" xml:space="preserve">
<g>
	<path d="M7.097,139.934c0.396-27.091,10.09-53.528,27.294-74.443c6.698-8.14,14.41-15.355,22.921-21.445
		c17.005-12.167,37.13-19.68,58.199-21.729c31.959-3.11,63.183,6.386,87.918,26.739c7.337,6.037,13.936,12.917,19.612,20.45
		c9.904,13.144,16.865,27.879,20.715,43.839l28.937-0.045c1.314-0.001,2.53,0.699,3.188,1.833c0.657,1.137,0.66,2.54,0.006,3.679
		l-41.621,72.351c-0.245,0.544-0.628,1.038-1.139,1.423c-1.622,1.222-3.926,0.899-5.148-0.72c-0.094-0.122-0.181-0.252-0.259-0.388
		l-42.026-72.523c-0.658-1.137-0.661-2.54-0.006-3.678c0.655-1.139,1.868-1.843,3.183-1.844l26.818-0.043
		c-3.161-9.954-7.946-19.218-14.26-27.596c-4.395-5.832-9.508-11.162-15.193-15.84c-19.155-15.76-43.341-23.114-68.105-20.705
		c-15.765,1.533-30.894,7.026-43.752,15.888c-7.121,4.906-13.543,10.811-19.087,17.547c-27.412,33.319-28.427,80.649-2.466,115.101
		c4.394,5.831,9.507,11.163,15.198,15.848c15.22,12.522,33.666,19.772,53.34,20.965c3.522,0.212,6.771,1.967,8.916,4.813
		c0.521,0.692,0.968,1.439,1.326,2.225c0.479,1.058,0.947,2.099,1.412,3.147c1.704,3.851,1.3,8.223-1.077,11.692
		c-2.376,3.472-6.307,5.43-10.513,5.234c-26.049-1.21-50.462-10.61-70.599-27.183c-7.332-6.029-13.932-12.912-19.617-20.456
		C15.275,192.921,6.71,166.592,7.097,139.934z"/>
</g>
</svg>
