<?xml version="1.0" encoding="utf-8"?>
<!-- Generator: Adobe Illustrator 15.1.0, SVG Export Plug-In . SVG Version: 6.00 Build 0)  -->
<!DOCTYPE svg PUBLIC "-//W3C//DTD SVG 1.1//EN" "http://www.w3.org/Graphics/SVG/1.1/DTD/svg11.dtd">
<svg version="1.1" id="Layer_3" xmlns="http://www.w3.org/2000/svg" xmlns:xlink="http://www.w3.org/1999/xlink" x="0px" y="0px"
	 width="283.46px" height="283.46px" viewBox="0 0 283.46 283.46" enable-background="new 0 0 283.46 283.46" xml:space="preserve">
<g>
	<path fill="none" d="M56.036,116.842c-3.456,0-6.265,2.808-6.265,6.264c0,3.458,2.809,6.265,6.265,6.265
		c3.458,0,6.267-2.806,6.267-6.265C62.302,119.65,59.494,116.842,56.036,116.842z M56.036,127.603c-2.479,0-4.494-2.015-4.494-4.496
		c0-2.481,2.015-4.494,4.494-4.494c2.481,0,4.496,2.013,4.496,4.494C60.532,125.588,58.517,127.603,56.036,127.603z"/>
	<path fill="none" d="M56.036,100.539c-3.456,0-6.265,2.806-6.265,6.264c0,3.456,2.809,6.265,6.265,6.265
		c3.458,0,6.267-2.809,6.267-6.265C62.302,103.345,59.494,100.539,56.036,100.539z M56.036,111.297
		c-2.479,0-4.494-2.015-4.494-4.494c0-2.481,2.015-4.496,4.494-4.496c2.481,0,4.496,2.015,4.496,4.496
		C60.532,109.283,58.517,111.297,56.036,111.297z"/>
	<path fill="none" d="M56.036,84.087c-3.456,0-6.265,2.806-6.265,6.264c0,3.458,2.809,6.265,6.265,6.265
		c3.458,0,6.267-2.806,6.267-6.265C62.302,86.894,59.494,84.087,56.036,84.087z M56.036,94.846c-2.479,0-4.494-2.013-4.494-4.494
		c0-2.481,2.015-4.496,4.494-4.496c2.481,0,4.496,2.015,4.496,4.496C60.532,92.833,58.517,94.846,56.036,94.846z"/>
	<path fill="none" d="M56.036,133.414c-3.456,0-6.265,2.806-6.265,6.265c0,3.458,2.809,6.265,6.265,6.265
		c3.458,0,6.267-2.807,6.267-6.265C62.302,136.22,59.494,133.414,56.036,133.414z M56.036,144.174c-2.479,0-4.494-2.015-4.494-4.496
		s2.015-4.494,4.494-4.494c2.481,0,4.496,2.013,4.496,4.494S58.517,144.174,56.036,144.174z"/>
	<path fill="none" d="M56.036,149.87c-3.456,0-6.265,2.806-6.265,6.265c0,3.458,2.809,6.264,6.265,6.264
		c3.458,0,6.267-2.806,6.267-6.264C62.302,152.675,59.494,149.87,56.036,149.87z M56.036,160.63c-2.479,0-4.494-2.016-4.494-4.496
		c0-2.481,2.015-4.494,4.494-4.494c2.481,0,4.496,2.013,4.496,4.494C60.532,158.615,58.517,160.63,56.036,160.63z"/>
	<polygon fill="none" points="70.909,124.616 68.878,124.616 68.878,123.606 70.758,123.606 70.758,122.838 68.878,122.838 
		68.878,121.879 70.909,121.879 70.909,121.103 68.021,121.103 68.021,125.383 70.909,125.383 	"/>
	<path fill="none" d="M69.805,104.623c-0.571,0-1.005,0.124-1.299,0.377c-0.294,0.251-0.443,0.622-0.443,1.11v1.385
		c0,0.491,0.148,0.861,0.443,1.112c0.294,0.251,0.728,0.377,1.299,0.377c0.563,0,0.986-0.12,1.271-0.36s0.429-0.61,0.429-1.108
		v-0.198h-0.857v0.183c0,0.244-0.061,0.419-0.183,0.525c-0.12,0.107-0.338,0.162-0.654,0.162c-0.325,0-0.554-0.059-0.689-0.179
		c-0.135-0.118-0.203-0.288-0.203-0.508v-1.397c0-0.225,0.063-0.395,0.192-0.51c0.129-0.118,0.362-0.177,0.7-0.177
		c0.32,0,0.539,0.052,0.658,0.159c0.118,0.104,0.179,0.275,0.179,0.506v0.214h0.857v-0.214
		C71.506,105.109,70.939,104.623,69.805,104.623z"/>
	<polygon fill="none" points="75.806,139.275 73.926,139.275 73.926,137.539 73.069,137.539 73.069,141.817 73.926,141.817 
		73.926,140.042 75.806,140.042 75.806,141.817 76.663,141.817 76.663,137.539 75.806,137.539 	"/>
	<polygon fill="none" points="67.98,158.273 70.867,158.273 70.867,157.505 68.837,157.505 68.837,156.498 70.717,156.498 
		70.717,155.728 68.837,155.728 68.837,154.769 70.867,154.769 70.867,153.996 67.98,153.996 	"/>
	<polygon fill="none" points="74.825,153.996 73.926,155.427 73.035,153.996 72.101,153.996 73.434,156.127 72.101,158.273 
		72.98,158.273 73.878,156.84 74.77,158.273 75.704,158.273 74.371,156.14 75.704,153.996 	"/>
	<path fill="none" d="M69.723,137.498c-0.571,0-1.005,0.126-1.3,0.377c-0.294,0.25-0.442,0.622-0.442,1.112v1.385
		c0,0.488,0.148,0.859,0.442,1.11c0.294,0.253,0.729,0.377,1.3,0.377v0c0.563,0,0.985-0.12,1.271-0.36
		c0.288-0.24,0.43-0.608,0.43-1.108v-0.198h-0.857v0.185c0,0.242-0.061,0.417-0.181,0.526c-0.122,0.106-0.34,0.159-0.656,0.159
		c-0.325,0-0.554-0.059-0.689-0.177c-0.135-0.12-0.203-0.288-0.203-0.508v-1.4c0-0.222,0.065-0.392,0.191-0.51
		c0.129-0.116,0.362-0.175,0.7-0.175c0.32,0,0.541,0.052,0.659,0.157c0.12,0.104,0.179,0.274,0.179,0.508v0.211h0.857v-0.211
		C71.423,137.984,70.856,137.498,69.723,137.498z"/>
	<polygon fill="none" points="70.95,91.723 68.92,91.723 68.92,90.716 70.8,90.716 70.8,89.946 68.92,89.946 68.92,88.987 
		70.95,88.987 70.95,88.213 68.063,88.213 68.063,92.491 70.95,92.491 	"/>
	<polygon fill="none" points="75.889,106.398 74.009,106.398 74.009,104.662 73.152,104.662 73.152,108.942 74.009,108.942 
		74.009,107.166 75.889,107.166 75.889,108.942 76.746,108.942 76.746,104.662 75.889,104.662 	"/>
	<polygon fill="none" points="89.774,91.723 87.744,91.723 87.744,90.716 89.624,90.716 89.624,89.946 87.744,89.946 87.744,88.987 
		89.774,88.987 89.774,88.213 86.887,88.213 86.887,92.491 89.774,92.491 	"/>
	<polygon fill="none" points="90.502,104.662 88.801,106.507 88.801,104.662 87.944,104.662 87.944,108.942 88.801,108.942 
		88.801,107.549 89.15,107.174 90.537,108.942 91.551,108.942 89.707,106.577 91.475,104.662 	"/>
	<path fill="none" d="M97.593,92.532c0.503,0,0.898-0.116,1.19-0.347c0.29-0.231,0.434-0.547,0.434-0.949
		c0-0.283-0.094-0.521-0.282-0.71c-0.188-0.19-0.478-0.345-0.87-0.462l-0.903-0.292c-0.116-0.048-0.198-0.101-0.247-0.162
		c-0.048-0.059-0.072-0.137-0.072-0.233c0-0.142,0.061-0.253,0.186-0.332c0.124-0.081,0.301-0.12,0.534-0.12
		c0.211,0,0.375,0.048,0.495,0.146c0.118,0.098,0.179,0.242,0.179,0.43v0.109h0.864v-0.061c0-0.442-0.135-0.785-0.401-1.022
		c-0.268-0.238-0.647-0.355-1.143-0.355c-0.325,0-0.606,0.052-0.846,0.157c-0.24,0.105-0.425,0.253-0.556,0.443
		c-0.131,0.189-0.196,0.408-0.196,0.654c0,0.229,0.042,0.42,0.124,0.573c0.083,0.153,0.218,0.283,0.404,0.39
		c0.188,0.107,0.451,0.209,0.789,0.305l0.281,0.083c0.211,0.059,0.369,0.113,0.478,0.164c0.107,0.05,0.183,0.107,0.227,0.168
		c0.041,0.063,0.063,0.144,0.063,0.244c0,0.284-0.238,0.425-0.713,0.425c-0.525,0-0.787-0.194-0.787-0.582v-0.111H95.96v0.159
		c0,0.405,0.144,0.724,0.43,0.948C96.675,92.419,97.076,92.532,97.593,92.532z"/>
	<polygon fill="none" points="89.735,124.616 87.705,124.616 87.705,123.606 89.582,123.606 89.582,122.838 87.705,122.838 
		87.705,121.879 89.735,121.879 89.735,121.103 86.846,121.103 86.846,125.383 89.735,125.383 	"/>
	<polygon fill="none" points="73.063,92.491 73.961,91.058 74.853,92.491 75.784,92.491 74.454,90.358 75.784,88.213 74.908,88.213 
		74.009,89.646 73.118,88.213 72.184,88.213 73.514,90.345 72.184,92.491 	"/>
	<polygon fill="none" points="73.021,125.383 73.92,123.948 74.812,125.383 75.743,125.383 74.413,123.25 75.743,121.103 
		74.866,121.103 73.968,122.538 73.076,121.103 72.143,121.103 73.473,123.235 72.143,125.383 	"/>
	<path fill="none" d="M82.801,91.017h0.624l0.885,1.474h0.988l-0.975-1.57c0.347-0.092,0.598-0.24,0.748-0.445
		c0.15-0.207,0.227-0.491,0.227-0.851c0-0.486-0.148-0.841-0.442-1.07s-0.772-0.342-1.431-0.342h-1.48v4.278h0.857V91.017z
		 M82.801,88.98h0.652c0.369,0,0.624,0.048,0.763,0.144c0.14,0.096,0.209,0.255,0.209,0.48c0,0.166-0.026,0.292-0.083,0.384
		c-0.054,0.091-0.148,0.159-0.279,0.203c-0.133,0.043-0.325,0.065-0.578,0.065h-0.685V88.98z"/>
	<path fill="none" d="M78.041,123.9h0.761c0.43,0,0.772-0.046,1.023-0.14c0.25-0.094,0.432-0.242,0.541-0.442
		c0.111-0.201,0.166-0.471,0.166-0.809c0-0.488-0.139-0.846-0.414-1.071c-0.277-0.222-0.739-0.335-1.382-0.335h-1.55v4.28h0.857
		V123.9z M78.041,121.87h0.678c0.249,0,0.44,0.022,0.578,0.063s0.233,0.107,0.288,0.194c0.055,0.09,0.083,0.212,0.083,0.369
		c0,0.159-0.026,0.286-0.074,0.377c-0.048,0.091-0.135,0.159-0.264,0.2c-0.126,0.044-0.312,0.065-0.554,0.065h-0.735V121.87z"/>
	<path fill="none" d="M78.083,91.01h0.761c0.43,0,0.77-0.048,1.022-0.142c0.251-0.094,0.432-0.24,0.541-0.44
		c0.109-0.203,0.166-0.471,0.166-0.812c0-0.488-0.139-0.846-0.417-1.068c-0.274-0.225-0.737-0.335-1.38-0.335h-1.55v4.278h0.857
		V91.01z M78.083,88.98h0.678c0.249,0,0.44,0.02,0.578,0.061c0.135,0.041,0.231,0.106,0.288,0.196
		c0.055,0.089,0.081,0.211,0.081,0.366c0,0.159-0.024,0.286-0.072,0.377c-0.048,0.092-0.135,0.159-0.264,0.203
		c-0.126,0.043-0.312,0.065-0.554,0.065h-0.735V88.98z"/>
	<path fill="none" d="M82.759,123.909h0.624l0.885,1.474h0.988l-0.975-1.57c0.349-0.091,0.598-0.242,0.748-0.447
		s0.227-0.489,0.227-0.851c0-0.484-0.148-0.841-0.442-1.07c-0.294-0.227-0.772-0.342-1.431-0.342h-1.48v4.28h0.857V123.909z
		 M82.759,121.87h0.652c0.371,0,0.624,0.048,0.763,0.144c0.14,0.098,0.209,0.257,0.209,0.482c0,0.164-0.026,0.292-0.081,0.384
		c-0.057,0.092-0.15,0.159-0.281,0.203c-0.133,0.042-0.325,0.063-0.578,0.063h-0.685V121.87z"/>
	<rect x="92.772" y="137.539" fill="none" width="0.857" height="4.278"/>
	<path fill="none" d="M93.287,122.954l-0.903-0.29c-0.115-0.048-0.198-0.103-0.246-0.162c-0.048-0.059-0.072-0.137-0.072-0.233
		c0-0.142,0.061-0.253,0.186-0.334c0.122-0.078,0.301-0.12,0.534-0.12c0.211,0,0.375,0.05,0.495,0.148
		c0.118,0.098,0.176,0.242,0.176,0.427v0.111h0.866v-0.063c0-0.443-0.135-0.783-0.401-1.021c-0.269-0.238-0.65-0.357-1.143-0.357
		c-0.325,0-0.606,0.052-0.846,0.159c-0.242,0.104-0.425,0.253-0.556,0.442c-0.131,0.19-0.196,0.408-0.196,0.654
		c0,0.229,0.042,0.418,0.125,0.573c0.083,0.153,0.216,0.284,0.403,0.391s0.451,0.209,0.79,0.305l0.281,0.081
		c0.209,0.061,0.368,0.116,0.478,0.166c0.106,0.05,0.181,0.107,0.225,0.168c0.043,0.061,0.065,0.144,0.065,0.244
		c0,0.284-0.238,0.425-0.713,0.425c-0.525,0-0.789-0.194-0.789-0.584v-0.109H91.18v0.157c0,0.408,0.144,0.724,0.43,0.951
		c0.286,0.227,0.687,0.34,1.204,0.34c0.501,0,0.898-0.115,1.188-0.347c0.292-0.231,0.436-0.547,0.436-0.951
		c0-0.283-0.094-0.519-0.281-0.708C93.969,123.229,93.679,123.074,93.287,122.954z"/>
	<rect x="92.855" y="104.662" fill="none" width="0.857" height="4.28"/>
	<polygon fill="none" points="89.624,139.451 91.394,137.539 90.419,137.539 88.719,139.384 88.719,137.539 87.862,137.539 
		87.862,141.817 88.719,141.817 88.719,140.426 89.067,140.049 90.454,141.817 91.468,141.817 	"/>
	<path fill="none" d="M93.245,155.846l-0.903-0.292c-0.115-0.048-0.198-0.101-0.246-0.162c-0.048-0.059-0.072-0.137-0.072-0.232
		c0-0.143,0.062-0.251,0.186-0.332c0.125-0.08,0.301-0.119,0.534-0.119c0.211,0,0.375,0.047,0.495,0.146
		c0.118,0.101,0.177,0.242,0.177,0.43v0.108h0.865v-0.061c0-0.442-0.135-0.785-0.401-1.022c-0.269-0.237-0.648-0.355-1.143-0.355
		c-0.325,0-0.606,0.052-0.846,0.157c-0.24,0.104-0.425,0.253-0.556,0.442c-0.131,0.19-0.196,0.407-0.196,0.654
		c0,0.229,0.042,0.421,0.125,0.573s0.218,0.283,0.403,0.391c0.188,0.109,0.452,0.209,0.79,0.305l0.281,0.083
		c0.211,0.06,0.368,0.114,0.478,0.166c0.107,0.05,0.183,0.104,0.225,0.168c0.043,0.062,0.065,0.142,0.065,0.241
		c0,0.284-0.238,0.426-0.713,0.426c-0.525,0-0.787-0.193-0.787-0.582v-0.109h-0.865v0.157c0,0.407,0.144,0.724,0.429,0.95
		c0.286,0.225,0.687,0.338,1.204,0.338c0.501,0,0.898-0.115,1.19-0.346c0.29-0.231,0.434-0.548,0.434-0.949
		c0-0.283-0.094-0.521-0.281-0.711S93.638,155.964,93.245,155.846z"/>
	<path fill="none" d="M93.328,90.064l-0.903-0.292c-0.115-0.048-0.198-0.101-0.246-0.162c-0.048-0.059-0.072-0.137-0.072-0.233
		c0-0.142,0.061-0.253,0.186-0.332c0.122-0.081,0.301-0.12,0.534-0.12c0.209,0,0.375,0.048,0.493,0.146
		c0.12,0.098,0.179,0.242,0.179,0.43v0.109h0.866v-0.061c0-0.442-0.135-0.785-0.401-1.022c-0.268-0.238-0.649-0.355-1.142-0.355
		c-0.325,0-0.606,0.052-0.849,0.157c-0.24,0.105-0.425,0.253-0.554,0.443c-0.131,0.189-0.196,0.408-0.196,0.654
		c0,0.229,0.042,0.42,0.125,0.573c0.081,0.153,0.216,0.283,0.403,0.39s0.451,0.209,0.789,0.305l0.282,0.083
		c0.209,0.059,0.368,0.113,0.475,0.164c0.109,0.05,0.183,0.107,0.227,0.168c0.044,0.063,0.065,0.144,0.065,0.244
		c0,0.284-0.237,0.425-0.713,0.425c-0.525,0-0.789-0.194-0.789-0.582v-0.111h-0.864v0.159c0,0.405,0.144,0.724,0.43,0.948
		c0.286,0.227,0.687,0.34,1.204,0.34c0.501,0,0.898-0.116,1.188-0.347s0.436-0.547,0.436-0.949c0-0.283-0.094-0.521-0.281-0.71
		C94.011,90.336,93.721,90.182,93.328,90.064z"/>
	<polygon fill="none" points="98.367,140.426 96.18,137.539 95.413,137.539 95.413,141.817 96.222,141.817 96.222,138.978 
		98.409,141.817 99.176,141.817 99.176,137.539 98.367,137.539 	"/>
	<polygon fill="none" points="98.45,107.549 96.263,104.662 95.493,104.662 95.493,108.942 96.304,108.942 96.304,106.104 
		98.491,108.942 99.259,108.942 99.259,104.662 98.45,104.662 	"/>
	<path fill="none" d="M97.983,155.846l-0.9-0.292c-0.118-0.048-0.201-0.101-0.249-0.162c-0.048-0.059-0.072-0.137-0.072-0.232
		c0-0.143,0.063-0.251,0.186-0.332c0.124-0.08,0.303-0.119,0.536-0.119c0.209,0,0.373,0.047,0.493,0.146
		c0.12,0.101,0.179,0.242,0.179,0.43v0.108h0.863v-0.061c0-0.442-0.133-0.785-0.401-1.022c-0.268-0.237-0.647-0.355-1.143-0.355
		c-0.322,0-0.606,0.052-0.846,0.157c-0.24,0.104-0.425,0.253-0.556,0.442c-0.131,0.19-0.194,0.407-0.194,0.654
		c0,0.229,0.039,0.421,0.122,0.573c0.083,0.152,0.218,0.283,0.405,0.391c0.188,0.109,0.449,0.209,0.787,0.305l0.281,0.083
		c0.212,0.06,0.371,0.114,0.478,0.166c0.107,0.05,0.184,0.104,0.227,0.168c0.043,0.062,0.065,0.142,0.065,0.241
		c0,0.284-0.238,0.426-0.713,0.426c-0.528,0-0.79-0.193-0.79-0.582v-0.109h-0.863v0.157c0,0.407,0.142,0.724,0.427,0.95
		c0.286,0.225,0.687,0.338,1.204,0.338c0.503,0,0.9-0.115,1.19-0.346c0.29-0.231,0.436-0.548,0.436-0.949
		c0-0.283-0.094-0.521-0.281-0.711S98.376,155.964,97.983,155.846z"/>
	<path fill="none" d="M237.906,64.04c-27.267,0-172.889,0-200.155,0c-1.167,0-2.288,0.462-3.112,1.289
		c-0.826,0.824-1.289,1.945-1.289,3.112v109.59c0,1.166,0.462,2.285,1.289,3.111c0.824,0.824,1.945,1.289,3.112,1.289
		c27.267,0,172.889,0,200.155,0c1.169,0,2.287-0.465,3.113-1.289c0.824-0.826,1.289-1.945,1.289-3.111c0-18.637,0-90.954,0-109.59
		c0-1.167-0.465-2.288-1.289-3.112C240.193,64.502,239.075,64.04,237.906,64.04z M111.494,167.479c0,2.46-1.993,4.452-4.453,4.452
		H44.643c-2.459,0-4.452-1.992-4.452-4.452V79.007c0-2.459,1.993-4.453,4.452-4.453h62.398c2.459,0,4.453,1.993,4.453,4.453V167.479
		z M235.468,167.477c0,2.457-1.993,4.45-4.453,4.45H118.473c-2.459,0-4.453-1.993-4.453-4.45v-44.235c0-2.457,1.993-4.45,4.453-4.45
		h112.542c2.46,0,4.453,1.993,4.453,4.45V167.477z M235.468,111.583c0,2.459-1.993,4.453-4.453,4.453H118.473
		c-2.459,0-4.453-1.993-4.453-4.453V79.016c0-2.459,1.993-4.453,4.453-4.453h112.542c2.46,0,4.453,1.993,4.453,4.453V111.583z"/>
	<polygon fill="none" points="86.806,158.273 89.693,158.273 89.693,157.505 87.663,157.505 87.663,156.498 89.541,156.498 
		89.541,155.728 87.663,155.728 87.663,154.769 89.693,154.769 89.693,153.996 86.806,153.996 	"/>
	<path fill="none" d="M98.025,122.954l-0.903-0.29c-0.116-0.048-0.198-0.103-0.247-0.162c-0.048-0.059-0.072-0.137-0.072-0.233
		c0-0.142,0.061-0.253,0.186-0.334c0.124-0.078,0.301-0.12,0.534-0.12c0.211,0,0.375,0.05,0.495,0.148
		c0.118,0.098,0.179,0.242,0.179,0.427v0.111h0.863v-0.063c0-0.443-0.133-0.783-0.401-1.021c-0.268-0.238-0.647-0.357-1.143-0.357
		c-0.325,0-0.606,0.052-0.846,0.159c-0.24,0.104-0.425,0.253-0.556,0.442c-0.131,0.19-0.196,0.408-0.196,0.654
		c0,0.229,0.042,0.418,0.125,0.573c0.083,0.153,0.218,0.284,0.405,0.391s0.449,0.209,0.787,0.305l0.281,0.081
		c0.212,0.061,0.371,0.116,0.478,0.166c0.107,0.05,0.183,0.107,0.227,0.168c0.043,0.061,0.065,0.144,0.065,0.244
		c0,0.284-0.24,0.425-0.715,0.425c-0.525,0-0.787-0.194-0.787-0.584v-0.109h-0.866v0.157c0,0.408,0.144,0.724,0.43,0.951
		c0.286,0.227,0.687,0.34,1.204,0.34c0.503,0,0.9-0.115,1.19-0.347c0.29-0.231,0.434-0.547,0.434-0.951
		c0-0.283-0.094-0.519-0.281-0.708C98.708,123.229,98.417,123.074,98.025,122.954z"/>
	<path fill="none" d="M84.515,137.498c-0.571,0-1.005,0.126-1.299,0.377c-0.294,0.25-0.443,0.622-0.443,1.112v1.385
		c0,0.488,0.148,0.859,0.443,1.11c0.294,0.253,0.728,0.377,1.299,0.377v0c0.563,0,0.986-0.12,1.273-0.36
		c0.286-0.24,0.427-0.608,0.427-1.108v-0.198h-0.857v0.185c0,0.242-0.061,0.417-0.181,0.526c-0.122,0.106-0.34,0.159-0.657,0.159
		c-0.325,0-0.554-0.059-0.689-0.177c-0.135-0.12-0.203-0.288-0.203-0.508v-1.4c0-0.222,0.065-0.392,0.192-0.51
		c0.128-0.116,0.362-0.175,0.7-0.175c0.321,0,0.541,0.052,0.659,0.157c0.12,0.104,0.179,0.274,0.179,0.508v0.211h0.857v-0.211
		C86.215,137.984,85.648,137.498,84.515,137.498z"/>
	<polygon fill="none" points="78.446,141.817 81.333,141.817 81.333,141.05 79.303,141.05 79.303,140.042 81.183,140.042 
		81.183,139.275 79.303,139.275 79.303,138.313 81.333,138.313 81.333,137.539 78.446,137.539 	"/>
	<path fill="none" d="M84.598,104.623c-0.571,0-1.005,0.124-1.3,0.377c-0.294,0.251-0.442,0.622-0.442,1.11v1.385
		c0,0.491,0.148,0.861,0.442,1.112c0.294,0.251,0.729,0.377,1.3,0.377c0.563,0,0.985-0.12,1.271-0.36s0.43-0.61,0.43-1.108v-0.198
		h-0.857v0.183c0,0.244-0.061,0.419-0.183,0.525c-0.12,0.107-0.338,0.162-0.654,0.162c-0.325,0-0.554-0.059-0.689-0.179
		c-0.135-0.118-0.203-0.288-0.203-0.508v-1.397c0-0.225,0.063-0.395,0.192-0.51c0.128-0.118,0.362-0.177,0.7-0.177
		c0.321,0,0.539,0.052,0.659,0.159c0.118,0.104,0.179,0.275,0.179,0.506v0.214h0.857v-0.214
		C86.298,105.109,85.731,104.623,84.598,104.623z"/>
	<path fill="none" d="M85.215,155.408c0-0.486-0.148-0.842-0.443-1.07s-0.772-0.342-1.43-0.342h-1.481v4.277h0.857v-1.474h0.624
		l0.885,1.474h0.988l-0.975-1.57c0.349-0.091,0.598-0.239,0.748-0.444C85.138,156.051,85.215,155.767,85.215,155.408z
		 M84.262,155.77c-0.055,0.091-0.148,0.159-0.281,0.202c-0.133,0.044-0.325,0.066-0.576,0.066h-0.687v-1.275h0.652
		c0.371,0,0.625,0.047,0.765,0.144c0.14,0.096,0.207,0.255,0.207,0.479C84.342,155.552,84.316,155.678,84.262,155.77z"/>
	<path fill="none" d="M78.693,153.996h-1.55v4.277H78v-1.48h0.761c0.43,0,0.772-0.048,1.023-0.142
		c0.25-0.092,0.432-0.239,0.541-0.44c0.111-0.203,0.166-0.471,0.166-0.809c0-0.491-0.14-0.847-0.415-1.07
		C79.798,154.107,79.338,153.996,78.693,153.996z M79.554,155.763c-0.048,0.092-0.137,0.159-0.264,0.203
		c-0.129,0.043-0.314,0.065-0.556,0.065H78v-1.269h0.68c0.247,0,0.438,0.02,0.576,0.061s0.233,0.107,0.288,0.196
		c0.054,0.089,0.083,0.212,0.083,0.366C79.626,155.547,79.602,155.671,79.554,155.763z"/>
	<polygon fill="none" points="78.527,108.942 81.416,108.942 81.416,108.175 79.386,108.175 79.386,107.166 81.264,107.166 
		81.264,106.398 79.386,106.398 79.386,105.438 81.416,105.438 81.416,104.662 78.527,104.662 	"/>
	<path d="M79.255,154.824c-0.137-0.041-0.329-0.061-0.576-0.061H78v1.269h0.735c0.242,0,0.427-0.022,0.556-0.065
		c0.126-0.044,0.216-0.111,0.264-0.203s0.072-0.216,0.072-0.377c0-0.154-0.028-0.277-0.083-0.366
		C79.489,154.931,79.393,154.865,79.255,154.824z"/>
	<path d="M83.37,154.763h-0.652v1.275h0.687c0.251,0,0.443-0.022,0.576-0.066c0.133-0.043,0.227-0.111,0.281-0.202
		c0.055-0.092,0.081-0.218,0.081-0.384c0-0.225-0.067-0.384-0.207-0.479C83.996,154.81,83.741,154.763,83.37,154.763z"/>
	<path d="M79.33,123.074c0.128-0.041,0.216-0.109,0.264-0.2c0.048-0.092,0.074-0.218,0.074-0.377c0-0.157-0.028-0.279-0.083-0.369
		c-0.054-0.087-0.15-0.152-0.288-0.194s-0.329-0.063-0.578-0.063h-0.678v1.269h0.735C79.018,123.139,79.203,123.118,79.33,123.074z"
		/>
	<path d="M79.371,90.184c0.128-0.044,0.216-0.111,0.264-0.203c0.048-0.091,0.072-0.218,0.072-0.377c0-0.155-0.026-0.277-0.081-0.366
		c-0.057-0.09-0.152-0.155-0.288-0.196C79.201,89,79.009,88.98,78.76,88.98h-0.678v1.269h0.735
		C79.059,90.25,79.245,90.228,79.371,90.184z"/>
	<path d="M56.036,85.855c-2.479,0-4.494,2.015-4.494,4.496c0,2.481,2.015,4.494,4.494,4.494c2.481,0,4.496-2.013,4.496-4.494
		C60.532,87.871,58.517,85.855,56.036,85.855z M59.474,88.446c-0.595,0.596-4.001,4.001-4.607,4.607
		c-0.024,0.024-0.057,0.037-0.092,0.037s-0.067-0.013-0.094-0.037c-0.366-0.366-1.72-1.723-2.083-2.082
		c-0.048-0.05-0.048-0.129,0-0.179c0.155-0.152,0.469-0.466,0.622-0.619c0.048-0.05,0.128-0.05,0.177,0
		c0.262,0.262,1.027,1.027,1.289,1.289c0.05,0.048,0.128,0.048,0.177,0c0.532-0.532,3.281-3.281,3.813-3.813
		c0.048-0.048,0.126-0.048,0.177,0c0.152,0.155,0.466,0.469,0.621,0.622C59.522,88.317,59.522,88.398,59.474,88.446z"/>
	<path d="M56.036,102.307c-2.479,0-4.494,2.015-4.494,4.496c0,2.479,2.015,4.494,4.494,4.494c2.481,0,4.496-2.015,4.496-4.494
		C60.532,104.322,58.517,102.307,56.036,102.307z M59.474,104.897c-0.595,0.595-4.001,4.001-4.607,4.607
		c-0.024,0.024-0.057,0.037-0.092,0.037s-0.067-0.013-0.094-0.037c-0.366-0.369-1.72-1.723-2.083-2.084
		c-0.048-0.048-0.048-0.126,0-0.177c0.155-0.152,0.469-0.466,0.622-0.621c0.048-0.048,0.128-0.048,0.177,0
		c0.262,0.261,1.027,1.027,1.289,1.289c0.05,0.05,0.128,0.05,0.177,0c0.532-0.53,3.281-3.282,3.813-3.812
		c0.048-0.048,0.126-0.048,0.177,0c0.152,0.153,0.466,0.466,0.621,0.622C59.522,104.769,59.522,104.85,59.474,104.897z"/>
	<path d="M56.036,151.64c-2.479,0-4.494,2.013-4.494,4.494c0,2.48,2.015,4.496,4.494,4.496c2.481,0,4.496-2.016,4.496-4.496
		C60.532,153.653,58.517,151.64,56.036,151.64z"/>
	<path d="M84.022,123.083c0.131-0.043,0.225-0.111,0.281-0.203c0.055-0.092,0.081-0.22,0.081-0.384c0-0.225-0.07-0.384-0.209-0.482
		c-0.139-0.096-0.392-0.144-0.763-0.144h-0.652v1.276h0.685C83.697,123.146,83.889,123.124,84.022,123.083z"/>
	<path d="M56.036,135.184c-2.479,0-4.494,2.013-4.494,4.494s2.015,4.496,4.494,4.496c2.481,0,4.496-2.015,4.496-4.496
		S58.517,135.184,56.036,135.184z"/>
	<path d="M84.063,90.19c0.131-0.043,0.225-0.111,0.279-0.203c0.057-0.092,0.083-0.218,0.083-0.384c0-0.225-0.07-0.384-0.209-0.48
		c-0.139-0.096-0.395-0.144-0.763-0.144h-0.652v1.275h0.685C83.738,90.256,83.93,90.234,84.063,90.19z"/>
	<path d="M56.036,118.613c-2.479,0-4.494,2.013-4.494,4.494c0,2.481,2.015,4.496,4.494,4.496c2.481,0,4.496-2.015,4.496-4.496
		C60.532,120.625,58.517,118.613,56.036,118.613z M59.474,121.203c-0.595,0.593-4.001,3.999-4.607,4.605
		c-0.024,0.024-0.057,0.04-0.092,0.04s-0.067-0.016-0.094-0.04c-0.366-0.366-1.72-1.723-2.083-2.082
		c-0.048-0.048-0.048-0.129,0-0.177c0.155-0.155,0.469-0.469,0.622-0.622c0.048-0.048,0.128-0.048,0.177,0
		c0.262,0.262,1.027,1.027,1.289,1.289c0.05,0.048,0.128,0.048,0.177,0c0.532-0.53,3.281-3.281,3.813-3.811
		c0.048-0.05,0.126-0.05,0.177,0c0.152,0.152,0.466,0.466,0.621,0.619C59.522,121.075,59.522,121.153,59.474,121.203z"/>
	<path d="M231.015,74.563H118.473c-2.459,0-4.453,1.993-4.453,4.453v32.567c0,2.459,1.993,4.453,4.453,4.453h112.542
		c2.46,0,4.453-1.993,4.453-4.453V79.016C235.468,76.556,233.475,74.563,231.015,74.563z"/>
	<path d="M237.658,59.502c-35.246,0-163.378,0-199.279,0c-2.495,0-4.887,0.992-6.65,2.756c-1.764,1.764-2.756,4.156-2.756,6.652
		c0,23.59,0,85.057,0,108.648c0,5.196,4.213,9.407,9.407,9.407h72.343c0,0-3.103,17.637-4.258,24.211
		c-0.107,0.604,0.059,1.224,0.453,1.692c0.393,0.469,0.975,0.739,1.587,0.739c10.137,0,48.511,0,58.65,0
		c0.613,0,1.193-0.271,1.588-0.739c0.393-0.469,0.561-1.088,0.453-1.692c-1.155-6.574-4.258-24.211-4.258-24.211s51.454,0,72.718,0
		c2.396,0,4.692-0.951,6.385-2.646c1.694-1.692,2.645-3.987,2.645-6.384c0-23.43,0-85.974,0-109.405
		C246.684,63.545,242.642,59.505,237.658,59.502z M242.308,178.031c0,1.166-0.465,2.285-1.289,3.111
		c-0.826,0.824-1.944,1.289-3.113,1.289c-27.267,0-172.889,0-200.155,0c-1.167,0-2.288-0.465-3.112-1.289
		c-0.826-0.826-1.289-1.945-1.289-3.111V68.44c0-1.167,0.462-2.288,1.289-3.112c0.824-0.826,1.945-1.289,3.112-1.289
		c27.267,0,172.889,0,200.155,0c1.169,0,2.287,0.462,3.113,1.289c0.824,0.824,1.289,1.945,1.289,3.112
		C242.308,87.077,242.308,159.394,242.308,178.031z"/>
	<path d="M107.041,74.554H44.643c-2.459,0-4.452,1.993-4.452,4.453v88.472c0,2.46,1.993,4.452,4.452,4.452h62.398
		c2.459,0,4.453-1.992,4.453-4.452V79.007C111.494,76.547,109.5,74.554,107.041,74.554z M95.96,91.084h0.866v0.111
		c0,0.388,0.262,0.582,0.787,0.582c0.475,0,0.713-0.142,0.713-0.425c0-0.1-0.022-0.181-0.063-0.244
		c-0.044-0.061-0.12-0.118-0.227-0.168c-0.109-0.05-0.266-0.104-0.478-0.164l-0.281-0.083c-0.338-0.096-0.602-0.198-0.789-0.305
		c-0.186-0.107-0.321-0.237-0.404-0.39c-0.083-0.153-0.124-0.345-0.124-0.573c0-0.247,0.065-0.465,0.196-0.654
		c0.131-0.19,0.316-0.338,0.556-0.443c0.24-0.104,0.521-0.157,0.846-0.157c0.495,0,0.875,0.118,1.143,0.355
		c0.266,0.237,0.401,0.58,0.401,1.022v0.061h-0.864v-0.109c0-0.188-0.061-0.332-0.179-0.43c-0.12-0.098-0.283-0.146-0.495-0.146
		c-0.233,0-0.41,0.039-0.534,0.12c-0.125,0.079-0.186,0.19-0.186,0.332c0,0.096,0.024,0.175,0.072,0.233
		c0.048,0.061,0.131,0.113,0.247,0.162l0.903,0.292c0.392,0.118,0.682,0.272,0.87,0.462c0.188,0.189,0.282,0.427,0.282,0.71
		c0,0.401-0.144,0.718-0.434,0.949c-0.292,0.231-0.687,0.347-1.19,0.347c-0.517,0-0.918-0.113-1.204-0.34
		c-0.286-0.225-0.43-0.543-0.43-0.948V91.084z M91.551,108.942h-1.014l-1.387-1.769l-0.349,0.375v1.394h-0.857v-4.28h0.857v1.845
		l1.701-1.845h0.972l-1.768,1.915L91.551,108.942z M86.887,88.213h2.887v0.774h-2.03v0.959h1.879v0.77h-1.879v1.007h2.03v0.768
		h-2.887V88.213z M86.846,121.103h2.889v0.776h-2.03v0.959h1.877v0.768h-1.877v1.01h2.03v0.768h-2.889V121.103z M81.944,88.213h1.48
		c0.659,0,1.136,0.113,1.431,0.342s0.442,0.584,0.442,1.07c0,0.36-0.076,0.644-0.227,0.851c-0.15,0.205-0.401,0.353-0.748,0.445
		l0.975,1.57H84.31l-0.885-1.474h-0.624v1.474h-0.857V88.213z M81.902,121.103h1.48c0.659,0,1.136,0.115,1.431,0.342
		c0.294,0.229,0.442,0.586,0.442,1.07c0,0.362-0.076,0.646-0.227,0.851s-0.399,0.355-0.748,0.447l0.975,1.57h-0.988l-0.885-1.474
		h-0.624v1.474h-0.857V121.103z M77.226,88.213h1.55c0.643,0,1.105,0.111,1.38,0.335c0.277,0.223,0.417,0.58,0.417,1.068
		c0,0.34-0.057,0.608-0.166,0.812c-0.109,0.201-0.29,0.347-0.541,0.44c-0.253,0.094-0.593,0.142-1.022,0.142h-0.761v1.48h-0.857
		V88.213z M77.184,121.103h1.55c0.643,0,1.105,0.113,1.382,0.335c0.275,0.225,0.414,0.583,0.414,1.071
		c0,0.338-0.054,0.608-0.166,0.809c-0.109,0.2-0.29,0.349-0.541,0.442c-0.251,0.094-0.593,0.14-1.023,0.14h-0.761v1.482h-0.857
		V121.103z M72.184,88.213h0.934l0.892,1.433l0.898-1.433h0.876l-1.33,2.146l1.33,2.132h-0.931l-0.892-1.433l-0.898,1.433h-0.879
		l1.33-2.146L72.184,88.213z M72.143,121.103h0.934l0.892,1.435l0.898-1.435h0.876l-1.33,2.147l1.33,2.133h-0.931l-0.892-1.435
		l-0.898,1.435h-0.879l1.33-2.148L72.143,121.103z M68.063,88.213h2.887v0.774h-2.03v0.959h1.88v0.77h-1.88v1.007h2.03v0.768h-2.887
		V88.213z M68.021,121.103h2.887v0.776h-2.03v0.959h1.88v0.768h-1.88v1.01h2.03v0.768h-2.887V121.103z M56.036,162.398
		c-3.456,0-6.265-2.806-6.265-6.264c0-3.459,2.809-6.265,6.265-6.265c3.458,0,6.267,2.806,6.267,6.265
		C62.302,159.592,59.494,162.398,56.036,162.398z M56.036,145.943c-3.456,0-6.265-2.807-6.265-6.265
		c0-3.458,2.809-6.265,6.265-6.265c3.458,0,6.267,2.806,6.267,6.265C62.302,143.136,59.494,145.943,56.036,145.943z M56.036,129.371
		c-3.456,0-6.265-2.806-6.265-6.265c0-3.456,2.809-6.264,6.265-6.264c3.458,0,6.267,2.808,6.267,6.264
		C62.302,126.565,59.494,129.371,56.036,129.371z M56.036,113.068c-3.456,0-6.265-2.809-6.265-6.265
		c0-3.458,2.809-6.264,6.265-6.264c3.458,0,6.267,2.806,6.267,6.264C62.302,110.259,59.494,113.068,56.036,113.068z M56.036,96.616
		c-3.456,0-6.265-2.806-6.265-6.265c0-3.458,2.809-6.264,6.265-6.264c3.458,0,6.267,2.806,6.267,6.264
		C62.302,93.81,59.494,96.616,56.036,96.616z M70.867,154.769c0,0-2.03,0-2.03,0v0.959h1.88v0.77h-1.879v1.008h2.03v0.768H67.98
		v-4.277h2.887V154.769z M71.423,139.17h-0.857v-0.211c0-0.233-0.059-0.403-0.179-0.508c-0.118-0.105-0.338-0.157-0.659-0.157
		c-0.338,0-0.571,0.059-0.7,0.175c-0.126,0.118-0.191,0.288-0.191,0.51v1.4c0,0.22,0.067,0.388,0.203,0.508
		c0.135,0.118,0.364,0.177,0.689,0.177c0.316,0,0.534-0.053,0.656-0.159c0.12-0.109,0.181-0.284,0.181-0.526v-0.185h0.857v0.198
		c0,0.5-0.142,0.868-0.43,1.108c-0.286,0.24-0.708,0.36-1.271,0.36v0c-0.571,0-1.005-0.124-1.3-0.377
		c-0.294-0.251-0.442-0.622-0.442-1.11v-1.385c0-0.49,0.148-0.861,0.442-1.112c0.294-0.251,0.729-0.377,1.3-0.377
		c1.134,0,1.701,0.486,1.701,1.461V139.17z M71.506,106.295h-0.857v-0.214c0-0.231-0.061-0.401-0.179-0.506
		c-0.12-0.107-0.338-0.159-0.658-0.159c-0.338,0-0.571,0.059-0.7,0.177c-0.128,0.115-0.192,0.286-0.192,0.51v1.397
		c0,0.22,0.068,0.391,0.203,0.508c0.135,0.12,0.364,0.179,0.689,0.179c0.316,0,0.534-0.055,0.654-0.162
		c0.122-0.106,0.183-0.281,0.183-0.525v-0.183h0.857v0.198c0,0.498-0.144,0.868-0.429,1.108s-0.709,0.36-1.271,0.36
		c-0.571,0-1.005-0.126-1.299-0.377c-0.294-0.25-0.443-0.621-0.443-1.112v-1.385c0-0.488,0.148-0.859,0.443-1.11
		c0.294-0.253,0.728-0.377,1.299-0.377c1.134,0,1.701,0.486,1.701,1.458V106.295z M75.704,158.273H74.77l-0.892-1.433l-0.898,1.433
		h-0.879l1.333-2.146l-1.333-2.132h0.934l0.892,1.432l0.898-1.432h0.879l-1.333,2.145L75.704,158.273z M76.663,141.817h-0.856
		v-1.775h-1.88v1.775h-0.857v-4.278h0.857v1.736h1.88v-1.736h0.856V141.817z M76.746,108.942h-0.857v-1.777h-1.879v1.777h-0.857
		v-4.28h0.857v1.736h1.879v-1.736h0.857V108.942z M80.324,156.21c-0.109,0.201-0.29,0.349-0.541,0.44
		c-0.251,0.094-0.593,0.142-1.023,0.142H78v1.48h-0.857v-4.277h1.55c0.646,0,1.105,0.111,1.382,0.336
		c0.275,0.224,0.415,0.579,0.415,1.07C80.49,155.74,80.435,156.007,80.324,156.21z M81.333,138.313h-2.03v0.962h1.88v0.768h-1.88
		v1.007h2.03v0.768h-2.887v-4.278h2.887V138.313z M81.416,105.438h-2.03v0.959h1.877v0.768h-1.877v1.009h2.03v0.768h-2.889v-4.28
		h2.889V105.438z M85.215,158.273h-0.988l-0.885-1.474h-0.624v1.474h-0.857v-4.277h1.481c0.658,0,1.136,0.113,1.43,0.342
		s0.443,0.584,0.443,1.07c0,0.359-0.077,0.644-0.227,0.851c-0.15,0.205-0.399,0.354-0.748,0.444L85.215,158.273z M86.215,139.17
		h-0.857v-0.211c0-0.233-0.059-0.403-0.179-0.508c-0.118-0.105-0.338-0.157-0.659-0.157c-0.338,0-0.571,0.059-0.7,0.175
		c-0.126,0.118-0.192,0.288-0.192,0.51v1.4c0,0.22,0.067,0.388,0.203,0.508c0.135,0.118,0.364,0.177,0.689,0.177
		c0.316,0,0.535-0.053,0.657-0.159c0.12-0.109,0.181-0.284,0.181-0.526v-0.185h0.857v0.198c0,0.5-0.142,0.868-0.427,1.108
		c-0.288,0.24-0.711,0.36-1.273,0.36v0c-0.571,0-1.005-0.124-1.299-0.377c-0.294-0.251-0.443-0.622-0.443-1.11v-1.385
		c0-0.49,0.148-0.861,0.443-1.112c0.294-0.251,0.728-0.377,1.299-0.377c1.134,0,1.701,0.486,1.701,1.461V139.17z M86.298,106.295
		h-0.857v-0.214c0-0.231-0.061-0.401-0.179-0.506c-0.12-0.107-0.338-0.159-0.659-0.159c-0.338,0-0.571,0.059-0.7,0.177
		c-0.129,0.115-0.192,0.286-0.192,0.51v1.397c0,0.22,0.067,0.391,0.203,0.508c0.135,0.12,0.364,0.179,0.689,0.179
		c0.316,0,0.534-0.055,0.654-0.162c0.122-0.106,0.183-0.281,0.183-0.525v-0.183h0.857v0.198c0,0.498-0.144,0.868-0.43,1.108
		s-0.708,0.36-1.271,0.36c-0.571,0-1.005-0.126-1.3-0.377c-0.294-0.25-0.442-0.621-0.442-1.112v-1.385
		c0-0.488,0.148-0.859,0.442-1.11c0.294-0.253,0.729-0.377,1.3-0.377c1.134,0,1.701,0.486,1.701,1.458V106.295z M89.693,154.769
		h-2.03v0.959h1.877v0.77h-1.877v1.008h2.03v0.768h-2.887v-4.277h2.887V154.769z M89.067,140.049l-0.349,0.377v1.391h-0.857v-4.278
		h0.857v1.845l1.701-1.845h0.975l-1.771,1.912l1.845,2.366h-1.014L89.067,140.049z M93.962,157.968
		c-0.292,0.23-0.689,0.346-1.19,0.346c-0.517,0-0.918-0.113-1.204-0.338c-0.286-0.227-0.429-0.543-0.429-0.95v-0.157h0.865v0.109
		c0,0.389,0.262,0.582,0.787,0.582c0.476,0,0.713-0.142,0.713-0.426c0-0.1-0.022-0.18-0.065-0.241
		c-0.042-0.063-0.118-0.118-0.225-0.168c-0.109-0.052-0.266-0.106-0.478-0.166l-0.281-0.083c-0.338-0.096-0.602-0.195-0.79-0.305
		c-0.185-0.107-0.32-0.238-0.403-0.391s-0.125-0.344-0.125-0.573c0-0.247,0.065-0.464,0.196-0.654
		c0.131-0.189,0.316-0.338,0.556-0.442c0.24-0.105,0.521-0.157,0.846-0.157c0.495,0,0.874,0.118,1.143,0.355
		c0.266,0.237,0.401,0.58,0.401,1.022v0.061h-0.865v-0.108c0-0.188-0.059-0.329-0.177-0.43c-0.12-0.099-0.284-0.146-0.495-0.146
		c-0.233,0-0.41,0.039-0.534,0.119c-0.124,0.081-0.186,0.189-0.186,0.332c0,0.096,0.024,0.174,0.072,0.232
		c0.048,0.062,0.131,0.114,0.246,0.162l0.903,0.292c0.393,0.118,0.683,0.272,0.87,0.462s0.281,0.428,0.281,0.711
		C94.396,157.42,94.252,157.737,93.962,157.968z M92.772,141.817v-4.278h0.857v4.278H92.772z M94.002,125.078
		c-0.29,0.231-0.687,0.347-1.188,0.347c-0.517,0-0.918-0.113-1.204-0.34c-0.286-0.227-0.43-0.543-0.43-0.951v-0.157h0.864v0.109
		c0,0.391,0.264,0.584,0.789,0.584c0.476,0,0.713-0.142,0.713-0.425c0-0.1-0.022-0.183-0.065-0.244
		c-0.044-0.061-0.118-0.118-0.225-0.168c-0.109-0.05-0.269-0.104-0.478-0.166l-0.281-0.081c-0.338-0.096-0.602-0.198-0.79-0.305
		s-0.32-0.238-0.403-0.391c-0.083-0.155-0.125-0.344-0.125-0.573c0-0.247,0.065-0.464,0.196-0.654
		c0.131-0.189,0.314-0.338,0.556-0.442c0.24-0.107,0.521-0.159,0.846-0.159c0.493,0,0.874,0.12,1.143,0.357
		c0.266,0.238,0.401,0.578,0.401,1.021v0.063h-0.866v-0.111c0-0.186-0.059-0.33-0.176-0.427c-0.12-0.099-0.284-0.148-0.495-0.148
		c-0.233,0-0.412,0.042-0.534,0.12c-0.125,0.081-0.186,0.192-0.186,0.334c0,0.096,0.024,0.174,0.072,0.233
		c0.048,0.059,0.131,0.114,0.246,0.162l0.903,0.29c0.393,0.12,0.683,0.275,0.87,0.464c0.188,0.19,0.281,0.425,0.281,0.708
		C94.438,124.531,94.294,124.847,94.002,125.078z M92.855,108.942v-4.28h0.857v4.28H92.855z M94.043,92.186
		c-0.29,0.231-0.687,0.347-1.188,0.347c-0.517,0-0.918-0.113-1.204-0.34c-0.286-0.225-0.43-0.543-0.43-0.948v-0.159h0.864v0.111
		c0,0.388,0.264,0.582,0.789,0.582c0.476,0,0.713-0.142,0.713-0.425c0-0.1-0.021-0.181-0.065-0.244
		c-0.043-0.061-0.118-0.118-0.227-0.168c-0.107-0.05-0.266-0.104-0.475-0.164l-0.282-0.083c-0.338-0.096-0.602-0.198-0.789-0.305
		s-0.323-0.237-0.403-0.39c-0.083-0.153-0.125-0.345-0.125-0.573c0-0.247,0.065-0.465,0.196-0.654
		c0.129-0.19,0.314-0.338,0.554-0.443c0.242-0.104,0.523-0.157,0.849-0.157c0.493,0,0.874,0.118,1.142,0.355
		c0.266,0.237,0.401,0.58,0.401,1.022v0.061h-0.866v-0.109c0-0.188-0.059-0.332-0.179-0.43c-0.118-0.098-0.283-0.146-0.493-0.146
		c-0.233,0-0.412,0.039-0.534,0.12c-0.125,0.079-0.186,0.19-0.186,0.332c0,0.096,0.024,0.175,0.072,0.233
		c0.048,0.061,0.131,0.113,0.246,0.162l0.903,0.292c0.393,0.118,0.683,0.272,0.87,0.462c0.188,0.189,0.281,0.427,0.281,0.71
		C94.479,91.638,94.333,91.955,94.043,92.186z M98.701,157.968c-0.29,0.23-0.687,0.346-1.19,0.346c-0.517,0-0.918-0.113-1.204-0.338
		c-0.286-0.227-0.427-0.543-0.427-0.95v-0.157h0.863v0.109c0,0.389,0.262,0.582,0.79,0.582c0.475,0,0.713-0.142,0.713-0.426
		c0-0.1-0.022-0.18-0.065-0.241c-0.043-0.063-0.12-0.118-0.227-0.168c-0.106-0.052-0.266-0.106-0.478-0.166l-0.281-0.083
		c-0.338-0.096-0.6-0.195-0.787-0.305c-0.188-0.107-0.323-0.238-0.405-0.391c-0.083-0.152-0.122-0.344-0.122-0.573
		c0-0.247,0.063-0.464,0.194-0.654c0.131-0.189,0.316-0.338,0.556-0.442c0.24-0.105,0.523-0.157,0.846-0.157
		c0.495,0,0.875,0.118,1.143,0.355c0.269,0.237,0.401,0.58,0.401,1.022v0.061h-0.863v-0.108c0-0.188-0.059-0.329-0.179-0.43
		c-0.12-0.099-0.284-0.146-0.493-0.146c-0.233,0-0.412,0.039-0.536,0.119c-0.122,0.081-0.186,0.189-0.186,0.332
		c0,0.096,0.024,0.174,0.072,0.232c0.048,0.062,0.131,0.114,0.249,0.162l0.9,0.292c0.393,0.118,0.685,0.272,0.872,0.462
		s0.281,0.428,0.281,0.711C99.137,157.42,98.991,157.737,98.701,157.968z M99.176,141.817h-0.768l-2.187-2.839v2.839h-0.809v-4.278
		h0.768l2.187,2.887v-2.887h0.809V141.817z M98.742,125.078c-0.29,0.231-0.687,0.347-1.19,0.347c-0.517,0-0.918-0.113-1.204-0.34
		c-0.286-0.227-0.43-0.543-0.43-0.951v-0.157h0.866v0.109c0,0.391,0.262,0.584,0.787,0.584c0.475,0,0.715-0.142,0.715-0.425
		c0-0.1-0.022-0.183-0.065-0.244c-0.044-0.061-0.12-0.118-0.227-0.168c-0.107-0.05-0.266-0.104-0.478-0.166l-0.281-0.081
		c-0.338-0.096-0.6-0.198-0.787-0.305s-0.323-0.238-0.405-0.391c-0.083-0.155-0.125-0.344-0.125-0.573
		c0-0.247,0.065-0.464,0.196-0.654c0.131-0.189,0.316-0.338,0.556-0.442c0.24-0.107,0.521-0.159,0.846-0.159
		c0.495,0,0.875,0.12,1.143,0.357c0.269,0.238,0.401,0.578,0.401,1.021v0.063h-0.863v-0.111c0-0.186-0.061-0.33-0.179-0.427
		c-0.12-0.099-0.283-0.148-0.495-0.148c-0.233,0-0.41,0.042-0.534,0.12c-0.125,0.081-0.186,0.192-0.186,0.334
		c0,0.096,0.024,0.174,0.072,0.233c0.048,0.059,0.131,0.114,0.247,0.162l0.903,0.29c0.393,0.12,0.683,0.275,0.87,0.464
		c0.188,0.19,0.281,0.425,0.281,0.708C99.176,124.531,99.032,124.847,98.742,125.078z M99.259,108.942h-0.768l-2.187-2.839v2.839
		h-0.811v-4.28h0.77l2.187,2.887v-2.887h0.809V108.942z"/>
	<path d="M231.015,118.792H118.473c-2.459,0-4.453,1.993-4.453,4.45v44.235c0,2.457,1.993,4.45,4.453,4.45h112.542
		c2.46,0,4.453-1.993,4.453-4.45v-44.235C235.468,120.785,233.475,118.792,231.015,118.792z"/>
	<path fill="#FFFFFF" d="M58.676,120.405c-0.532,0.53-3.282,3.281-3.813,3.811c-0.048,0.048-0.126,0.048-0.177,0
		c-0.262-0.262-1.027-1.027-1.289-1.289c-0.048-0.048-0.129-0.048-0.177,0c-0.153,0.153-0.467,0.467-0.622,0.622
		c-0.048,0.048-0.048,0.128,0,0.177c0.362,0.359,1.716,1.716,2.083,2.082c0.026,0.024,0.059,0.04,0.094,0.04s0.067-0.016,0.092-0.04
		c0.606-0.606,4.012-4.012,4.607-4.605c0.048-0.05,0.048-0.128,0-0.179c-0.155-0.153-0.469-0.467-0.621-0.619
		C58.803,120.355,58.724,120.355,58.676,120.405z"/>
	<path fill="#FFFFFF" d="M58.676,104.1c-0.532,0.53-3.282,3.282-3.813,3.812c-0.048,0.05-0.126,0.05-0.177,0
		c-0.262-0.262-1.027-1.027-1.289-1.289c-0.048-0.048-0.129-0.048-0.177,0c-0.153,0.155-0.467,0.469-0.622,0.621
		c-0.048,0.05-0.048,0.129,0,0.177c0.362,0.362,1.716,1.716,2.083,2.084c0.026,0.024,0.059,0.037,0.094,0.037
		s0.067-0.013,0.092-0.037c0.606-0.606,4.012-4.012,4.607-4.607c0.048-0.048,0.048-0.128,0-0.176
		c-0.155-0.155-0.469-0.469-0.621-0.622C58.803,104.052,58.724,104.052,58.676,104.1z"/>
	<path fill="#FFFFFF" d="M58.853,87.648c-0.05-0.048-0.129-0.048-0.177,0c-0.532,0.532-3.282,3.282-3.813,3.813
		c-0.048,0.048-0.126,0.048-0.177,0c-0.262-0.262-1.027-1.027-1.289-1.289c-0.048-0.05-0.129-0.05-0.177,0
		c-0.153,0.153-0.467,0.467-0.622,0.619c-0.048,0.05-0.048,0.129,0,0.179c0.362,0.359,1.716,1.716,2.083,2.082
		c0.026,0.024,0.059,0.037,0.094,0.037s0.067-0.013,0.092-0.037c0.606-0.606,4.012-4.012,4.607-4.607
		c0.048-0.048,0.048-0.128,0-0.176C59.319,88.117,59.005,87.803,58.853,87.648z"/>
</g>
</svg>
