<?xml version="1.0" encoding="utf-8"?>
<!-- Generator: Adobe Illustrator 15.1.0, SVG Export Plug-In . SVG Version: 6.00 Build 0)  -->
<!DOCTYPE svg PUBLIC "-//W3C//DTD SVG 1.1//EN" "http://www.w3.org/Graphics/SVG/1.1/DTD/svg11.dtd">
<svg version="1.1"
	 id="svg2" inkscape:version="0.45.1" sodipodi:docname="Faravahar.svg" xmlns:dc="http://purl.org/dc/elements/1.1/" xmlns:cc="http://web.resource.org/cc/" xmlns:rdf="http://www.w3.org/1999/02/22-rdf-syntax-ns#" xmlns:svg="http://www.w3.org/2000/svg" xmlns:sodipodi="http://sodipodi.sourceforge.net/DTD/sodipodi-0.dtd" xmlns:inkscape="http://www.inkscape.org/namespaces/inkscape" sodipodi:docbase="C:\Documents and Settings\Jeff\Desktop" sodipodi:version="0.32" inkscape:output_extension="org.inkscape.output.svg.inkscape"
	 xmlns="http://www.w3.org/2000/svg" xmlns:xlink="http://www.w3.org/1999/xlink" x="0px" y="0px" width="283.465px"
	 height="283.465px" viewBox="0 0 283.465 283.465" enable-background="new 0 0 283.465 283.465" xml:space="preserve">
<defs>
	
	
		<inkscape:perspective  id="perspective388" sodipodi:type="inkscape:persp3d" inkscape:vp_x="-50 : 600 : 1" inkscape:vp_y="0 : 1000 : 0" inkscape:vp_z="700 : 600 : 1" inkscape:persp3d-origin="300 : 400 : 1">
		</inkscape:perspective>
</defs>
<sodipodi:namedview  width="560px" height="300px" id="base" inkscape:window-y="-4" inkscape:window-x="-4" inkscape:window-height="712" inkscape:window-width="1024" inkscape:current-layer="layer1" inkscape:document-units="px" inkscape:pageshadow="2" inkscape:pageopacity="0.0" inkscape:cy="106.13482" inkscape:cx="375" inkscape:zoom="0.7" borderopacity="1.0" bordercolor="#666666" pagecolor="#ffffff" gridtolerance="10000" showborder="true" guidetolerance="10" objecttolerance="10">
	</sodipodi:namedview>
<g>
	<path fill="none" d="M7.855,127.449l0.008-0.022l0.022-0.01c0.963-0.394,2.009-0.401,3.023-0.409l0.062-0.001
		c5.715,0.072,11.526,0.123,17.147,0.173c3.114,0.026,6.228,0.055,9.344,0.085c3.518-0.17,7.232-0.25,11.691-0.25
		c3.608,0,7.276,0.054,10.825,0.104c3.529,0.052,7.178,0.104,10.77,0.104c2.607-0.196,5.458-0.291,8.718-0.291
		c2.962,0,5.975,0.076,8.888,0.151c2.914,0.076,5.927,0.153,8.89,0.153c1.902,0,3.622-0.031,5.255-0.096
		c0.765-0.004,1.529-0.006,2.293-0.006c3.167,0,6.388,0.028,9.501,0.057c3.114,0.028,6.333,0.059,9.498,0.059
		c2.933,0,5.531-0.025,7.938-0.077c-0.12-1.164-0.252-2.352-0.392-3.531c-1.111,0.304-2.256,0.546-3.364,0.779
		c-2.556,0.536-5.199,1.092-7.529,2.456l-0.017,0.007c-0.352,0.067-0.711,0.101-1.072,0.101c-2.537,0-5.064-1.673-6.438-4.263
		c-1.23-2.317-1.193-4.84,0.097-6.742c0.634-1.402,1.866-2.344,3.058-3.255c0.312-0.238,0.632-0.482,0.936-0.731
		c-2.399-0.894-4.915-1.379-7.348-1.846l-0.02-0.004l-0.012-0.013c-0.09-0.097-0.187-0.199-0.289-0.309
		c-1.059-1.117-2.658-2.809-2.52-4.245c0.049-0.521,0.331-0.967,0.833-1.325l0.023-0.011c0.376-0.05,0.759-0.074,1.169-0.074
		c1.21,0,2.429,0.22,3.605,0.433c0.246,0.044,0.489,0.088,0.733,0.131c-0.52-1.104-1.014-2.271-1.468-3.479l-0.034-0.089
		l0.306,0.052c2.51,0.433,5.104,0.877,7.077,2.604c1.215,1.02,2.715,1.535,4.167,2.034c1.077,0.371,2.19,0.754,3.192,1.343
		c0.928,0.636,1.964,0.722,2.855,0.722c0.38,0,0.767-0.019,1.143-0.036c0.439-0.02,0.895-0.043,1.333-0.033
		c0.112-1.291,0.121-2.619,0.131-3.903c0.022-2.932,0.048-5.962,1.256-8.764c0.963-2.244,0.734-4.871-0.645-7.401l-0.016-0.028
		l0.02-0.027c0.868-1.281,1.175-2.78,1.474-4.229c0.23-1.113,0.467-2.266,0.954-3.327c0.718-1.587,0.928-3.329,1.13-5.014
		c0.085-0.724,0.175-1.474,0.303-2.201l0.007-0.041l0.042-0.004c0.737-0.075,1.489-0.114,2.238-0.114
		c4.859,0,9.549,1.563,13.205,4.399l0.016,0.021c0.83,1.779-0.103,3.356-1.006,4.881c-0.461,0.78-0.938,1.589-1.166,2.408
		c-0.587,1.252-0.164,2.416,0.282,3.648c0.439,1.214,0.895,2.471,0.269,3.782c-1.006,1.304-2.176,2.512-3.213,3.58
		c2.214,1.548,3.787,3.44,4.676,5.625c0.31,0.319,0.626,0.639,0.943,0.96c2.183,2.2,4.438,4.473,4.985,7.635
		c0.624,4.898,0.079,10.234-1.708,16.788c5.131,0.066,10.347,0.143,15.391,0.215c13.637,0.201,27.734,0.407,41.604,0.433
		c4.573,0.086,9.427,0.123,15.735,0.123c2.857,0,5.763-0.008,8.57-0.015c2.81-0.009,5.716-0.016,8.575-0.016
		c7.203,0,12.695,0.051,17.811,0.167c1.229-0.103,2.507-0.153,3.895-0.153c2.771,0,5.53,0.2,8.59,0.44l0.036,0.004l0.011,0.036
		c0.596,2.068-0.086,3.971-0.743,5.813c-0.474,1.323-0.963,2.693-0.986,4.126v0.016l-0.009,0.014
		c-0.241,0.37-0.525,0.723-0.801,1.065c-0.728,0.912-1.481,1.854-1.471,3.118c-0.007,1.591-0.988,2.988-2.692,3.836
		c-1.008,0.372-1.236,1.287-1.479,2.259c-0.23,0.922-0.468,1.875-1.427,2.309c-1.268,0.606-2.218,1.615-3.136,2.59
		c-0.78,0.83-1.589,1.687-2.591,2.302c-0.922,0.505-1.415,1.414-1.892,2.293c-0.292,0.534-0.591,1.087-0.984,1.552l-0.015,0.013
		c-0.621,0.367-1.285,0.675-1.928,0.974c-0.534,0.25-1.089,0.507-1.614,0.795c-0.322,0.399-0.594,0.85-0.858,1.285
		c-0.389,0.648-0.794,1.317-1.375,1.834l-0.015,0.011c-0.873,0.398-1.854,0.56-2.802,0.713c-1.618,0.263-3.149,0.512-4.219,1.847
		c-0.895,1.149-2.225,1.317-3.513,1.481c-1.078,0.138-2.196,0.279-3.036,1.01c-1.503,1.342-3.301,1.515-4.694,1.515
		c-0.705,0-1.431-0.049-2.131-0.097c-0.707-0.047-1.439-0.097-2.15-0.097c-1.172,0-2.103,0.137-2.925,0.431
		c-0.979,0.305-2.057,0.452-3.295,0.452c-1.091,0-2.203-0.112-3.279-0.22c-1.076-0.106-2.187-0.219-3.273-0.219
		c-0.927,0-1.744,0.08-2.506,0.246c-0.48,0.097-0.987,0.146-1.501,0.146c-1.668,0-3.304-0.506-4.886-0.995
		c-0.482-0.151-0.984-0.306-1.476-0.443c-3.418,1.418-6.607,1.532-9.323,0.337c-1.367,0.165-2.593,0.245-3.745,0.245
		c-1.721,0-3.277-0.179-4.757-0.542c-1.094,0.07-2.206,0.094-3.28,0.115c-2.109,0.043-4.293,0.088-6.407,0.511l-0.011,0.002
		l-0.011-0.002c-2.801-0.543-5.831-0.784-9.817-0.784c-1.699,0-3.425,0.043-5.092,0.083c-0.513,0.014-1.025,0.023-1.537,0.037
		c0.726,0.574,1.514,1.091,2.275,1.591c1.305,0.855,2.654,1.744,3.727,2.933c3.501,4.067,6.467,8.72,8.812,13.832
		c0.941,2.316,2.54,4.517,4.761,6.542c-0.081-0.384-0.182-0.765-0.279-1.137c-0.182-0.685-0.369-1.392-0.436-2.113l-0.002-0.023
		l0.015-0.018c1.206-1.392,2.365-2.068,3.551-2.068c0.209,0,0.423,0.023,0.63,0.066c1.855,0.884,2.662,3.079,2.801,4.847
		c-0.41,2.824-2.946,5.113-5.658,5.113c-0.31,0-0.625-0.03-0.933-0.091c-2.716-0.187-4.667-2.425-6.063-4.353
		c-1.794-2.291-2.996-4.988-4.157-7.599c-1.431-3.211-2.908-6.533-5.496-9.088c-2.347-2.605-5.02-4.547-7.953-5.781l0.282,1.805
		c0.954,6.127,1.942,12.467,3.207,18.656c0.209,2.307,0.715,4.618,1.204,6.854c0.756,3.454,1.535,7.024,1.244,10.643v0.021
		l-0.015,0.016l-0.416,0.432l-0.013,0.004c-7.313,2.17-15.031,2.351-22.497,2.526c-1.092,0.025-2.219,0.053-3.328,0.085h-0.002
		h-0.002c-6.895-0.367-13.936-1.451-20.929-3.222l-0.024-0.015c-0.512-0.489-0.746-1.089-0.693-1.785
		c0.733-3.517,1.488-7.082,2.216-10.532c1.708-8.075,3.472-16.422,5.092-24.656c-2.646,0.689-5.263,2.166-7.778,4.391
		c-2.939,2.789-4.74,6.496-6.479,10.083c-0.253,0.523-0.508,1.048-0.763,1.567c-0.314,0.638-0.598,1.319-0.872,1.978
		c-0.804,1.925-1.634,3.914-3.301,5.292c-1.598,1.553-3.762,2.411-6.092,2.411c-0.765,0-1.53-0.097-2.27-0.285l-0.019-0.01
		c-1.322-0.982-3.475-3.011-3.052-5.558c0.254-2.057,2.259-3.732,4.472-3.732c0.352,0,0.699,0.045,1.028,0.135
		c1.147,0.594,1.537,1.764,1.917,2.896c0.121,0.362,0.247,0.738,0.394,1.081c1.903-1.641,2.89-3.94,3.844-6.163
		c0.491-1.15,1.001-2.336,1.631-3.423c3.125-6.215,7.893-10.94,13.437-13.325c-5.325-0.313-10.678-0.356-15.674-0.356
		c-1.191,0-2.382,0.005-3.574,0.007c-2.212,0.004-4.427,0.008-6.648-0.002c-0.715-0.133-1.346-0.197-1.944-0.197
		c-0.863,0-1.631,0.132-2.353,0.405c-0.453,0.191-0.932,0.285-1.46,0.285c-0.808,0-1.623-0.223-2.41-0.436
		c-0.775-0.213-1.577-0.432-2.359-0.432c-0.574,0-1.088,0.115-1.572,0.356c-1.058,0.391-2.153,0.587-3.26,0.587
		c-1.795,0-3.504-0.521-4.948-1.507c-0.449,0.16-0.902,0.335-1.341,0.504c-1.319,0.507-2.682,1.029-4.095,1.286
		c-0.136,0.012-0.268,0.016-0.4,0.016c-1.506,0-2.902-0.596-4.251-1.172c-0.461-0.196-0.937-0.399-1.406-0.573
		c-0.701,0.181-1.399,0.433-2.076,0.676c-1.319,0.477-2.684,0.967-4.125,0.967c-0.205,0-0.41-0.009-0.611-0.029
		c-0.143,0.013-0.298,0.021-0.454,0.021c-1.391,0-2.688-0.537-3.939-1.058c-0.395-0.164-0.803-0.333-1.205-0.481
		c-0.161-0.006-0.333-0.011-0.51-0.011c-0.588,0-1.203,0.038-1.8,0.072c-0.604,0.036-1.232,0.073-1.844,0.073
		c-1.237,0-2.83-0.136-4.173-1.194c-1.15-1.021-2.627-1.253-4.059-1.479c-1.48-0.233-3.015-0.476-4.198-1.582
		c-0.711-0.66-1.638-1.053-2.531-1.433c-1.321-0.56-2.687-1.139-3.354-2.595c-0.588-1.3-1.852-1.949-2.888-2.37
		c-0.996-0.26-1.469-1.1-1.928-1.91c-0.46-0.813-0.894-1.585-1.821-1.85c-1.851-0.613-3.292-2.099-4.168-4.296
		c-2.042-1.283-3.264-3.076-3.628-5.329c-1.263-1.102-2.68-2.657-2.502-4.942l-0.215-0.519
		C8.132,136.142,6.288,131.71,7.855,127.449z"/>
	<path d="M9.801,137.818c-0.179,2.286,1.238,3.841,2.502,4.942c0.363,2.255,1.584,4.046,3.627,5.329
		c0.876,2.197,2.318,3.683,4.17,4.296c0.927,0.265,1.36,1.035,1.821,1.849c0.457,0.812,0.931,1.65,1.927,1.911
		c1.035,0.422,2.299,1.072,2.888,2.37c0.667,1.456,2.032,2.034,3.354,2.594c0.895,0.38,1.821,0.773,2.532,1.434
		c1.183,1.107,2.715,1.349,4.198,1.582c1.429,0.226,2.908,0.46,4.057,1.479c1.343,1.059,2.937,1.195,4.174,1.195
		c0.611,0,1.238-0.038,1.845-0.074c0.594-0.035,1.21-0.071,1.799-0.071c0.177,0,0.348,0.005,0.509,0.011
		c0.402,0.148,0.81,0.316,1.206,0.48c1.252,0.521,2.548,1.057,3.94,1.057c0.155,0,0.311-0.006,0.453-0.02
		c0.201,0.02,0.407,0.028,0.611,0.028c1.44,0,2.805-0.491,4.124-0.967c0.678-0.244,1.377-0.496,2.077-0.675
		c0.47,0.173,0.946,0.376,1.407,0.572c1.349,0.576,2.745,1.172,4.251,1.172c0.133,0,0.265-0.004,0.4-0.015
		c1.414-0.258,2.778-0.779,4.096-1.288c0.439-0.168,0.892-0.341,1.34-0.504c1.443,0.988,3.154,1.51,4.949,1.51
		c1.107,0,2.203-0.198,3.26-0.589c0.483-0.24,0.997-0.356,1.572-0.356c0.781,0,1.584,0.218,2.359,0.431
		c0.788,0.214,1.603,0.436,2.411,0.436c0.53,0,1.008-0.092,1.46-0.284c0.722-0.272,1.49-0.405,2.353-0.405
		c0.596,0,1.23,0.064,1.944,0.196c2.221,0.012,4.436,0.007,6.649,0.002c1.191-0.002,2.382-0.006,3.573-0.006
		c4.997,0,10.351,0.045,15.674,0.356c-5.544,2.387-10.311,7.112-13.437,13.325c-0.629,1.087-1.138,2.272-1.63,3.423
		c-0.955,2.223-1.941,4.521-3.844,6.164c-0.147-0.343-0.273-0.72-0.394-1.083c-0.379-1.132-0.771-2.302-1.917-2.896
		c-0.331-0.087-0.677-0.132-1.03-0.132c-2.211,0-4.218,1.674-4.472,3.729c-0.423,2.548,1.73,4.576,3.052,5.559l0.02,0.01
		c0.739,0.188,1.503,0.284,2.269,0.284c2.329,0,4.493-0.858,6.091-2.41c1.665-1.377,2.497-3.367,3.302-5.291
		c0.273-0.66,0.558-1.341,0.871-1.979c0.256-0.519,0.51-1.042,0.764-1.566c1.74-3.586,3.539-7.294,6.478-10.082
		c2.516-2.226,5.132-3.701,7.778-4.392c-1.62,8.232-3.384,16.582-5.092,24.655c-0.728,3.449-1.483,7.017-2.216,10.533
		c-0.052,0.695,0.181,1.297,0.692,1.784l0.023,0.016c6.994,1.771,14.035,2.854,20.929,3.222h0.002h0.002
		c1.107-0.032,2.235-0.06,3.328-0.085c7.463-0.175,15.184-0.355,22.495-2.526l0.016-0.004l0.414-0.432l0.015-0.015l0.002-0.021
		c0.291-3.62-0.488-7.19-1.247-10.643c-0.486-2.237-0.99-4.548-1.204-6.855c-1.262-6.19-2.25-12.528-3.204-18.657l-0.282-1.804
		c2.934,1.233,5.606,3.177,7.951,5.781c2.588,2.556,4.067,5.876,5.498,9.089c1.161,2.609,2.363,5.307,4.154,7.599
		c1.399,1.929,3.349,4.167,6.066,4.353c0.308,0.06,0.621,0.09,0.933,0.09c2.71,0,5.246-2.289,5.658-5.114
		c-0.139-1.766-0.945-3.963-2.801-4.846c-0.21-0.044-0.423-0.067-0.632-0.067c-1.184,0-2.345,0.678-3.549,2.069l-0.016,0.02
		l0.003,0.021c0.065,0.722,0.254,1.428,0.434,2.113c0.098,0.371,0.2,0.754,0.281,1.137c-2.221-2.027-3.821-4.224-4.761-6.543
		c-2.347-5.111-5.311-9.765-8.814-13.831c-1.071-1.189-2.419-2.075-3.726-2.932c-0.762-0.502-1.548-1.019-2.273-1.593
		c0.512-0.012,1.024-0.023,1.537-0.036c1.665-0.041,3.393-0.083,5.09-0.083c3.986,0,7.016,0.241,9.817,0.784l0.011,0.002
		l0.013-0.002c2.113-0.424,4.298-0.469,6.405-0.511c1.076-0.021,2.187-0.044,3.279-0.115c1.482,0.364,3.036,0.544,4.757,0.542
		c1.155,0,2.379-0.079,3.748-0.246c2.716,1.198,5.905,1.083,9.321-0.335c0.493,0.137,0.993,0.293,1.478,0.442
		c1.58,0.49,3.216,0.996,4.885,0.996c0.515,0,1.019-0.05,1.501-0.146c0.761-0.166,1.58-0.246,2.507-0.246
		c1.087,0,2.197,0.112,3.273,0.221c1.074,0.106,2.187,0.219,3.277,0.219c1.238,0,2.316-0.148,3.297-0.454
		c0.821-0.292,1.753-0.429,2.925-0.429c0.709,0,1.441,0.049,2.147,0.096c0.703,0.047,1.429,0.096,2.131,0.096
		c1.396,0,3.194-0.172,4.697-1.514c0.84-0.729,1.956-0.873,3.036-1.01c1.288-0.163,2.618-0.333,3.513-1.481
		c1.069-1.337,2.599-1.584,4.217-1.847c0.948-0.155,1.933-0.314,2.804-0.714l0.013-0.01c0.583-0.515,0.986-1.186,1.377-1.832
		c0.265-0.436,0.536-0.889,0.858-1.287c0.523-0.289,1.078-0.545,1.614-0.795c0.643-0.297,1.305-0.606,1.928-0.974l0.013-0.012
		c0.396-0.467,0.694-1.018,0.984-1.553c0.479-0.878,0.972-1.788,1.892-2.294c1.004-0.614,1.811-1.472,2.592-2.302
		c0.919-0.976,1.868-1.983,3.135-2.589c0.961-0.435,1.197-1.389,1.429-2.309c0.241-0.973,0.47-1.889,1.479-2.258
		c1.703-0.847,2.684-2.245,2.692-3.836c-0.013-1.265,0.74-2.207,1.471-3.117c0.275-0.344,0.56-0.698,0.799-1.067l0.009-0.013v-0.017
		c0.023-1.434,0.514-2.802,0.986-4.126c0.659-1.842,1.341-3.745,0.745-5.813l-0.011-0.036l-0.039-0.003
		c-3.06-0.242-5.817-0.44-8.589-0.44c-1.388,0-2.665,0.05-3.895,0.152c-5.113-0.115-10.607-0.167-17.812-0.167
		c-2.856,0-5.763,0.008-8.572,0.016c-2.81,0.007-5.716,0.015-8.572,0.015c-6.308,0-11.16-0.037-15.736-0.123
		c-13.867-0.024-27.965-0.23-41.603-0.432c-5.043-0.073-10.261-0.149-15.392-0.216c1.789-6.554,2.334-11.89,1.708-16.787
		c-0.547-3.165-2.801-5.437-4.983-7.636c-0.32-0.321-0.636-0.641-0.943-0.96c-0.889-2.185-2.462-4.077-4.676-5.625
		c1.035-1.069,2.207-2.276,3.213-3.58c0.626-1.311,0.171-2.568-0.271-3.782c-0.445-1.232-0.868-2.396-0.281-3.648
		c0.229-0.819,0.707-1.628,1.166-2.408c0.902-1.524,1.836-3.101,1.008-4.881l-0.018-0.021c-3.655-2.837-8.344-4.398-13.205-4.398
		c-0.747,0-1.501,0.037-2.237,0.112l-0.042,0.005l-0.007,0.04c-0.129,0.729-0.218,1.479-0.305,2.202
		c-0.202,1.685-0.41,3.428-1.127,5.015c-0.488,1.061-0.725,2.212-0.955,3.326c-0.299,1.449-0.606,2.948-1.475,4.229l-0.018,0.027
		l0.016,0.029c1.379,2.527,1.608,5.157,0.645,7.399c-1.208,2.803-1.232,5.832-1.255,8.765c-0.01,1.286-0.021,2.613-0.132,3.904
		c-0.438-0.011-0.893,0.014-1.333,0.032c-0.375,0.019-0.763,0.036-1.142,0.036c-0.893,0-1.928-0.085-2.857-0.722
		c-1.001-0.588-2.116-0.972-3.192-1.343c-1.451-0.499-2.951-1.017-4.166-2.034c-1.973-1.727-4.568-2.172-7.077-2.604l-0.306-0.053
		l0.034,0.089c0.454,1.207,0.948,2.377,1.468,3.479c-0.243-0.043-0.488-0.087-0.732-0.13c-1.177-0.212-2.395-0.434-3.605-0.434
		c-0.41,0-0.794,0.024-1.168,0.074l-0.024,0.011c-0.502,0.357-0.783,0.804-0.834,1.325c-0.139,1.436,1.46,3.127,2.52,4.245
		c0.103,0.11,0.2,0.212,0.29,0.309l0.012,0.013l0.018,0.004c2.433,0.469,4.948,0.953,7.348,1.846
		c-0.303,0.25-0.623,0.493-0.935,0.731c-1.191,0.911-2.425,1.852-3.06,3.255c-1.29,1.902-1.326,4.425-0.096,6.742
		c1.373,2.59,3.901,4.263,6.439,4.263c0.36,0,0.72-0.033,1.072-0.102l0.017-0.006c2.33-1.364,4.973-1.92,7.529-2.457
		c1.108-0.232,2.254-0.474,3.364-0.777c0.14,1.18,0.272,2.366,0.392,3.53c-2.408,0.052-5.007,0.076-7.938,0.076
		c-3.166,0-6.385-0.027-9.5-0.058c-3.114-0.027-6.333-0.057-9.501-0.057c-0.765,0-1.529,0.003-2.293,0.006
		c-1.634,0.064-3.353,0.096-5.256,0.096c-2.961,0-5.975-0.077-8.888-0.153c-2.915-0.074-5.926-0.151-8.889-0.151
		c-3.257,0-6.111,0.095-8.717,0.292c-3.589,0-7.239-0.054-10.769-0.105c-3.549-0.052-7.218-0.104-10.825-0.104
		c-4.457,0-8.173,0.079-11.691,0.25c-3.116-0.03-6.23-0.059-9.344-0.085c-5.62-0.049-11.43-0.101-17.145-0.173l-0.063,0.001
		c-1.012,0.008-2.059,0.016-3.022,0.409l-0.022,0.01l-0.009,0.023c-1.568,4.259,0.275,8.691,1.902,12.603L9.801,137.818z
		 M8.604,129.621c0.076-1.14,0.212-2.285,0.405-3.407l0.007-0.045h0.046c2.04-0.03,4.081-0.063,6.119-0.096
		c4.309-0.07,8.763-0.142,13.146-0.184h0.054l0.002,0.053c0.053,0.99,0.129,2.298,0.248,3.607l0.005,0.062l-0.061-0.001
		c-0.383-0.007-0.783-0.012-1.189-0.012c-2.14,0-4.326,0.11-6.438,0.216c-2.115,0.107-4.301,0.218-6.446,0.218
		c-2.18,0-4.094-0.115-5.85-0.354l-0.05-0.007L8.604,129.621z M130.783,119.888c-1.063,0.298-2.15,0.571-3.202,0.837
		c-1.128,0.284-2.294,0.577-3.431,0.9l-0.03,0.009l-0.022-0.021c-0.364-0.347-1.092-1.04-1.455-1.387l-0.023-0.022l0.007-0.031
		c0.403-1.619,0.486-3.307,0.247-5.012l-0.005-0.037l0.032-0.019c1.307-0.709,2.347-1.712,3.094-2.983l0.033-0.058l0.05,0.045
		c0.898,0.812,1.888,1.541,2.844,2.248c0.467,0.344,0.952,0.703,1.42,1.064l0.014,0.013l0.004,0.019
		c0.254,0.975,0.311,1.994,0.364,2.98c0.026,0.461,0.051,0.935,0.098,1.397l0.004,0.045L130.783,119.888z M117.797,123.07
		c-3.206-0.777-4.609-4.06-4.832-6.632l-0.002-0.012l0.002-0.01c0.647-2.304,2.022-5.221,4.902-6.026
		c0.371-0.062,0.748-0.092,1.125-0.092c1.98,0,4.539,0.893,5.24,3.412l0.029,0.104l-0.101-0.037
		c-1.106-0.419-2.186-0.939-3.229-1.443c-0.62-0.299-1.261-0.608-1.899-0.893c-0.33,0.184-0.684,0.354-1.026,0.52
		c-1.248,0.603-2.539,1.226-3.056,2.594c-0.302,1.193-1.071,5.202,1.803,6.447c0.544,0.382,1.157,0.556,1.942,0.556
		c0.469,0,0.957-0.062,1.43-0.12c0.481-0.06,0.979-0.12,1.464-0.12c0.63,0,1.145,0.104,1.615,0.323l0.124,0.058l-0.129,0.044
		c-0.484,0.163-0.968,0.413-1.481,0.679c-0.888,0.46-1.807,0.935-2.743,0.935C118.559,123.354,118.171,123.262,117.797,123.07z
		 M113.903,102.416l0.036-0.063l0.05,0.053c0.253,0.262,0.504,0.528,0.755,0.797c0.756,0.805,1.536,1.636,2.413,2.342
		c-0.717-1.616-1.696-3.122-2.643-4.581c-0.12-0.186-0.241-0.37-0.361-0.557l-0.073-0.113l0.13,0.029
		c3.96,0.898,8.233,4.111,8.261,9.038v0.076l-0.073-0.023c-1.86-0.606-3.846-0.967-6.077-1.103l-0.021-0.006
		c-1.477-0.704-2.898-1.558-4.274-2.384l-0.146-0.087l0.03-0.047C112.618,104.661,113.286,103.501,113.903,102.416z M121.46,115.239
		c0.323,2.263,0.687,4.826-1.828,5.513c-0.195,0.032-0.384,0.049-0.57,0.049c-1.048,0-2.038-0.526-2.717-1.443
		c-0.772-1.044-1.027-2.433-0.663-3.623c0.274-2.35,2.608-2.703,3.976-2.703c0.5,0,1.04,0.047,1.558,0.137l0.044,0.008v0.047
		C121.256,113.814,121.354,114.506,121.46,115.239z M126.241,109.077l0.007-0.031l0.03-0.009c0.601-0.154,0.997-0.102,1.191,0.155
		c0.169,0.222,0.181,0.583,0.034,1.101l-0.009,0.03l-0.031,0.009c-0.205,0.048-0.388,0.071-0.542,0.071
		c-0.288,0-0.5-0.083-0.626-0.249C126.124,109.934,126.107,109.581,126.241,109.077z M131.317,107.372l0.265,0.162
		c1.251-1.425,2.306-2.975,3.278-4.441l0.17-0.256l-0.072,0.3c-0.634,2.658-1.951,4.991-3.279,7.118l-0.042,0.067l-0.048-0.063
		c-0.425-0.569-0.986-1.058-1.529-1.529c-0.983-0.856-2-1.744-2.233-3.133l-0.017-0.097l0.09,0.037
		C129.105,106.023,130.23,106.709,131.317,107.372z M133.214,84.979c0.212-0.263,0.4-0.569,0.582-0.865
		c0.434-0.707,0.884-1.438,1.721-1.728l0.03-0.011l0.023,0.022c0.684,0.631,1.036,1.456,1.051,2.452
		c0.879-0.173,1.808-0.314,2.761-0.421l-1.048-1.573l0.125,0.021c0.88,0.146,1.773,0.279,2.655,0.399
		c-0.652-1.164-1.701-1.731-3.201-1.731c-1.127,0-2.326,0.321-3.35,0.635l-0.092,0.029l0.023-0.095
		c0.259-1.067,0.581-2.209,0.98-3.489l0.015-0.045l0.047,0.008c1.119,0.198,2.253,0.413,3.35,0.621
		c0.99,0.188,2.018,0.383,3.028,0.563l0.027,0.006l0.013,0.026c0.137,0.32,0.277,0.641,0.418,0.959
		c0.517,1.176,1.053,2.393,1.384,3.66l0.002,0.012l-0.002,0.011c-0.221,1.499-0.739,2.95-1.166,4.047l-0.007,0.014l-0.013,0.011
		c-0.641,0.501-1.314,0.981-1.968,1.445c-0.738,0.525-1.499,1.068-2.216,1.643l-0.073,0.058l-0.017-0.091
		c-0.553-3.166-2.442-5.597-5.058-6.504l-0.072-0.025L133.214,84.979z M150.597,98.657c0.512,1.043,1.357,1.866,2.173,2.662
		c1.098,1.07,2.233,2.175,2.552,3.817c0.027,1.186-0.094,2.377-0.214,3.53c-0.068,0.674-0.141,1.373-0.181,2.058l-0.009,0.149
		c0.344,0.551,0.515,1.188,0.346,1.959l-0.009,0.033l-1.78,0.477c0.438,0.217,0.843,0.423,1.238,0.623l0.047,0.024l-0.023,0.049
		c-0.649,1.357-0.999,2.88-1.339,4.351c-0.542,2.349-1.102,4.776-2.882,6.584c-0.174,0.355-0.342,0.715-0.513,1.073
		c-0.707,1.502-1.441,3.056-2.554,4.372l-0.025,0.032l-1.288-0.664c0.856,1.262,1.409,2.686,1.8,3.799l0.037,0.107l-1.854-0.624
		c0.117,1.798,0.16,3.256,0.137,4.586l-0.002,0.068l-0.064-0.015c-1.855-0.423-2.773-1.994-3.664-3.517
		c-0.299-0.513-0.61-1.042-0.947-1.51c-1.945-4.066-3.369-8.313-4.663-12.318l-0.002-0.016c-0.009-0.329-0.002-0.673,0.003-1.005
		c0.03-1.63,0.061-3.315-1.579-4.267l-0.25-0.146l0.285,0.043c0.448,0.069,0.921,0.103,1.445,0.103c0.829,0,1.673-0.086,2.489-0.166
		c0.809-0.081,1.646-0.166,2.457-0.166c1.366,0,2.468,0.243,3.456,0.762c-0.038-0.3-0.07-0.605-0.103-0.901
		c-0.119-1.144-0.243-2.326-0.771-3.384l-0.019-0.04l0.033-0.025c1.315-1.07,2.509-2.432,3.647-4.157
		c-0.619-0.126-1.251-0.245-1.862-0.359c-0.386-0.072-0.774-0.146-1.161-0.22l-0.115-0.022l0.094-0.073
		c0.95-0.753,2.129-1.196,3.704-1.384c-0.452-0.227-0.905-0.451-1.355-0.674l-0.038-0.02l0.011-0.043
		c0.272-1.138,0.456-2.358,0.574-3.828c-1.762,1.874-2.834,4.284-3.777,6.416c-0.214,0.681-0.348,1.415-0.48,2.126
		c-0.25,1.363-0.508,2.771-1.35,3.937l-0.013,0.013c-1.169,0.797-2.54,1.225-3.865,1.638c-0.279,0.088-0.557,0.176-0.834,0.265
		l-0.085,0.027l0.014-0.088c0.202-1.259,0.452-2.825-0.694-3.947l-0.045-0.044l0.049-0.039c0.343-0.266,0.684-0.531,1.026-0.798
		c0.627-0.489,1.276-0.996,1.919-1.489c-0.667-0.478-1.333-0.953-1.996-1.432l-0.058-0.042l0.056-0.045
		c0.343-0.274,0.686-0.552,1.028-0.829c0.928-0.752,1.887-1.526,2.863-2.251l-1.252-0.698l0.031-0.048
		c1.328-2.063,2.645-4.311,3.913-6.682l0.041-0.075l1.697,2.273c0.058-1.368,0.103-2.964,0.047-4.541l-0.005-0.137l0.099,0.096
		c0.408,0.396,0.846,0.782,1.271,1.157C148.637,96.17,149.847,97.238,150.597,98.657z M273.239,126.093h0.017l0.016,0.01
		c1.586,1.08,1.159,2.818,0.533,4.375l-0.015,0.035l-1.094-0.017c-6.256-0.09-12.725-0.183-19.04-0.953l-0.052-0.007l0.005-0.051
		c0.07-1.179,0.145-2.354,0.22-3.53l0.004-0.052l0.052,0.001c5.617,0.089,11.984,0.189,18.293,0.189
		C272.532,126.094,272.885,126.094,273.239,126.093z M262.785,131.368c3.088,0.201,6.28,0.407,9.429,0.504l0.032,0.002l0.015,0.029
		c0.48,1.085,0.372,2.484-0.277,3.483c-0.493,0.76-1.228,1.179-2.07,1.179c-0.212,0-0.432-0.026-0.654-0.078
		c-2.818-0.427-5.715-0.646-8.515-0.857c-3.207-0.246-6.521-0.498-9.74-1.062l-0.074-0.013l0.036-0.068
		c0.643-1.153,1.268-2.366,1.861-3.605l0.016-0.031l0.034,0.001C256.186,130.941,259.542,131.158,262.785,131.368z M257.555,153.722
		c-0.914,1.017-2.765,2.721-4.915,2.721c-0.299,0-0.603-0.032-0.893-0.1c-3.693-0.908-7.388-2.044-10.96-3.143
		c-3.159-0.973-6.426-1.979-9.678-2.818l-0.103-0.026l0.079-0.069c0.222-0.19,0.443-0.38,0.666-0.569
		c0.777-0.661,1.58-1.344,2.354-2.036l0.021-0.021l0.028,0.009c2.921,0.775,5.918,1.468,8.813,2.138
		c4.811,1.114,9.785,2.265,14.56,3.826l0.081,0.026L257.555,153.722z M251.803,157.623c-0.175,0.484-0.523,1.459-0.7,1.945
		l-0.009,0.027l-0.444,0.106c-1.355,0.331-2.756,0.671-4.152,0.671c-0.73,0-1.393-0.092-2.024-0.279
		c-3.013-1.056-6.085-2.095-9.06-3.099c-3.303-1.115-6.719-2.27-10.061-3.45l-0.1-0.035l0.087-0.061
		c0.453-0.32,0.893-0.688,1.315-1.042c0.729-0.611,1.484-1.241,2.353-1.657l0.021-0.011l0.021,0.007
		c7.258,2.409,14.901,4.699,22.714,6.807l0.058,0.015L251.803,157.623z M215.578,165.177c-4.445-2.51-8.429-4.667-12.185-6.598
		l-0.139-0.07l0.153-0.03c0.769-0.155,1.533-0.386,2.276-0.607c0.862-0.258,1.755-0.525,2.662-0.678l0.018-0.004l0.017,0.009
		c4.061,1.938,8.212,3.873,12.224,5.744c2.101,0.979,4.199,1.957,6.296,2.939l0.109,0.051l-0.111,0.049
		c-1.242,0.538-2.619,0.812-4.089,0.812C220.162,166.793,217.554,165.931,215.578,165.177z M200.532,162.087
		c-1.355-0.867-2.637-1.684-3.943-2.393l-0.101-0.054l0.104-0.045c0.383-0.163,0.767-0.421,1.177-0.693
		c0.734-0.487,1.49-0.991,2.276-0.991c0.367,0,0.704,0.108,1.033,0.329c2.225,1.317,4.541,2.566,6.783,3.774
		c2.538,1.369,5.162,2.784,7.671,4.305l0.104,0.064l-0.115,0.036c-1.05,0.31-2.126,0.468-3.198,0.468
		C208.05,166.888,204.229,164.445,200.532,162.087z M195.327,166.178c-0.72,0.069-1.367,0.104-1.979,0.104
		c-2.402,0-4.253-0.543-5.656-1.659c-1.431-1.146-2.829-2.377-4.181-3.565c-0.643-0.565-1.307-1.146-1.962-1.713l-0.07-0.06
		l0.083-0.032c1.134-0.458,2.268-0.906,3.525-1.402l0.03-0.012l0.025,0.022c1.413,1.251,2.959,2.392,4.456,3.494
		c1.973,1.455,4.012,2.958,5.76,4.729l0.082,0.082L195.327,166.178z M182.044,190.451l-0.072,0.009l0.158-0.829
		c0.066-0.344,0.135-0.703,0.18-0.934l0.002-0.02l0.017-0.013c0.448-0.355,1.348-1.065,1.796-1.417l0.03-0.023l0.031,0.019
		c0.158,0.099,0.318,0.192,0.479,0.288c0.671,0.397,1.364,0.81,1.956,1.346l0.013,0.013l0.004,0.016
		c0.475,1.966,0.178,4.692-2.214,5.905l-0.02,0.006c-0.26,0.023-0.525,0.036-0.792,0.036c-1.958,0-3.864-0.675-5.227-1.853
		c-2.662-2.685-4.3-6.136-5.882-9.474c-1.824-3.848-3.709-7.828-7.172-10.603c-2.093-2.144-4.847-3.359-7.51-4.535l-0.227-0.101
		l-0.006-0.025c-0.096-0.43-0.29-1.286-0.387-1.713l-0.019-0.081l0.083,0.017c8.572,1.783,13.946,9.536,16.944,15.725
		c0.222,0.453,0.439,0.914,0.661,1.376c1.6,3.348,3.257,6.813,6.376,8.999c0.376,0.229,0.749,0.347,1.105,0.347
		c1.234,0,2.145-1.367,2.876-2.462c0.077-0.12,0.156-0.235,0.231-0.344C184.261,190.202,183.064,190.333,182.044,190.451z
		 M162.999,204.988l-0.023,0.021c-0.796,0.736-1.499,1.394-2.147,2.009l-0.064,0.063l-0.025-0.084
		c-0.771-2.396-1.175-4.915-1.561-7.355c-0.266-1.666-0.541-3.391-0.932-5.058l-0.011-0.047l0.047-0.018
		c0.906-0.312,1.846-0.63,2.868-0.974l0.066-0.021l0.006,0.068c0.18,2.418,0.624,4.838,1.053,7.177
		c0.252,1.37,0.513,2.786,0.718,4.188L162.999,204.988z M136.388,194.219l-0.06-0.002c-0.825-0.047-1.721-0.101-2.738-0.165
		l-0.05-0.003l-0.001-0.05c-0.084-3.382,0.323-6.78,0.718-10.067c0.042-0.342,0.081-0.686,0.122-1.029l0.006-0.052l2.304,0.184
		l-0.001,0.051c-0.033,1.248-0.088,2.517-0.142,3.742c-0.106,2.403-0.216,4.887-0.16,7.334L136.388,194.219z M101.052,193.88
		c-0.77,0.497-1.763,0.771-2.791,0.771c-1.862,0-3.922-0.949-4.337-3.071c-0.345-1.745,1.051-2.829,2.286-3.786
		c0.218-0.167,0.423-0.328,0.618-0.488l0.033-0.026l0.034,0.023c1.538,1.126,2.215,2.492,2.016,4.063l-0.013,0.09l-0.073-0.053
		c-0.214-0.145-0.427-0.292-0.641-0.439c-0.7-0.482-1.426-0.982-2.15-1.455c-0.069,1.099-0.092,2.225-0.07,3.349
		c0.419,0.096,0.845,0.145,1.269,0.145c3.349,0,6.049-2.988,7.141-5.764c2.498-5.953,5.522-11.991,10.704-15.85
		c2.394-2.022,5.658-3.309,9.187-3.623l0.134-0.013l-0.087,0.103c-0.941,1.101-2.274,1.643-3.56,2.167
		c-0.431,0.175-0.875,0.356-1.296,0.556c-5.732,2.324-9.158,7.993-11.023,12.338c-0.336,0.727-0.659,1.499-0.97,2.246
		C106.022,188.602,104.535,192.158,101.052,193.88z M84.148,165.337l0.064-0.049c1.074-0.838,2.185-1.661,3.258-2.458
		c1.729-1.283,3.518-2.608,5.195-4.018l0.024-0.021l0.03,0.012c1.4,0.493,2.909,0.894,4.611,1.225l0.113,0.023l-0.09,0.072
		c-0.697,0.57-1.39,1.17-2.06,1.755c-1.783,1.548-3.625,3.149-5.733,4.313c-0.544,0.167-1.104,0.25-1.672,0.25
		c-1.2,0-2.434-0.358-3.672-1.065L84.148,165.337z M45.105,165.017c-1.88,0-3.324-0.553-4.416-1.687l-0.06-0.061l0.08-0.027
		c1.861-0.664,3.763-1.314,5.604-1.944c5.335-1.826,10.853-3.713,16.035-6.158l0.034-0.015l0.025,0.023
		c0.594,0.562,1.207,1.123,1.798,1.667c0.354,0.325,0.707,0.649,1.06,0.977l0.063,0.06l-0.08,0.032
		c-0.858,0.339-1.719,0.675-2.578,1.013c-4.219,1.653-8.581,3.364-12.781,5.26C48.547,164.56,46.794,165.017,45.105,165.017z
		 M33.162,160.397l0.09-0.033c3.924-1.451,8.004-2.652,11.95-3.813c4.189-1.231,8.519-2.506,12.672-4.084l0.034-0.013l0.025,0.025
		c0.525,0.577,1.056,1.153,1.587,1.728c0.249,0.27,0.5,0.54,0.749,0.81l0.058,0.063l-0.081,0.026
		c-3.149,1.037-6.313,2.205-9.37,3.331c-3.259,1.203-6.63,2.443-9.994,3.535c-0.742,0.31-1.549,0.468-2.398,0.468
		c-1.805,0-3.716-0.724-5.246-1.982L33.162,160.397z M11.69,136.795l0.067-0.001c4.688-0.084,9.422-0.589,14.001-1.077
		c2.393-0.256,4.871-0.521,7.311-0.72l0.045-0.004l0.012,0.043c0.304,1.083,0.628,2.246,0.941,3.396l0.017,0.059l-0.061,0.01
		c-3.678,0.571-7.438,1.008-11.072,1.429c-3.096,0.358-6.298,0.73-9.431,1.183l-0.031,0.004l-0.021-0.023
		c-0.819-1.063-1.378-2.408-1.763-4.231L11.69,136.795z M14.975,142.266l0.013-0.024l0.026-0.002
		c2.258-0.322,4.567-0.602,6.798-0.871c4.787-0.576,9.737-1.174,14.522-2.236l0.047-0.011l0.016,0.046
		c0.366,1.07,0.765,2.15,1.152,3.194l0.137,0.368l-0.073,0.006c-3.489,0.204-6.976,0.873-10.347,1.518
		c-2.999,0.576-6.1,1.17-9.192,1.437c-0.158,0.034-0.331,0.054-0.507,0.054c-1.03,0-2.096-0.6-2.592-1.456
		C14.6,143.638,14.599,142.921,14.975,142.266z M119.555,165.933c-0.184-0.961,0.56-2.009,1.218-2.933l0.205-0.291l0.046,0.05
		c1.123,1.216,0.997,2.726-0.375,4.485l-0.031,0.037l-0.042-0.026C119.986,166.872,119.65,166.438,119.555,165.933z M119.23,164.448
		c-0.819,1.184-2.037,1.862-3.341,1.862c-0.123,0-0.25-0.006-0.375-0.019l-0.078-0.007l0.241-0.514
		c1.025-2.2,2.086-4.477,4.12-5.902l0.059-0.041l0.024,0.066C120.422,161.336,120.174,163.082,119.23,164.448z M94.654,157.792
		c0.666-0.448,1.333-0.895,2-1.341c2.853-1.907,5.802-3.88,8.58-5.989l0.014-0.011h0.017c0.828-0.032,1.647,0.128,2.44,0.283
		c0.323,0.064,0.657,0.129,0.985,0.18l0.13,0.021l-0.108,0.078c-1.239,0.892-2.39,1.939-3.502,2.956
		c-1.364,1.245-2.776,2.532-4.363,3.54c-0.814,0.559-1.782,0.829-2.954,0.829c-1.04,0-2.073-0.203-3.22-0.45l-0.126-0.026
		L94.654,157.792z M90.55,158.055l-0.013,0.002l-0.012-0.005l-2.55-0.95l1.053-0.64c3.283-1.999,6.678-4.065,10.115-5.919
		l0.014-0.007h0.016c0.811,0.054,1.603,0.275,2.368,0.489c0.298,0.083,0.605,0.169,0.908,0.243l0.125,0.032l-0.107,0.068
		c-1.059,0.679-2.101,1.476-3.111,2.248C96.713,155.635,93.982,157.724,90.55,158.055z M101.741,157.978
		c0.631-0.536,1.262-1.074,1.89-1.614c2.107-1.8,4.285-3.664,6.5-5.406c0.768-0.732,1.793-0.799,2.785-0.864
		c0.24-0.018,0.49-0.033,0.728-0.061l0.121-0.013l-0.068,0.099c-1.741,2.471-3.993,4.563-6.17,6.584
		c-0.273,0.253-0.547,0.507-0.819,0.759c-0.528,0.636-1.235,0.934-2.223,0.934c-0.555,0-1.134-0.092-1.692-0.182
		c-0.357-0.058-0.693-0.111-1.021-0.142l-0.129-0.013L101.741,157.978z M107.757,157.834c1.024-1.197,2.209-2.272,3.354-3.313
		c1.561-1.415,3.172-2.878,4.384-4.666l0.029-0.043l0.045,0.026c0.387,0.241,1.076,0.669,1.597,0.992l0.445,0.277l-0.046,0.049
		c-0.664,0.699-1.33,1.423-1.974,2.123c-1.694,1.845-3.448,3.754-5.39,5.404l-0.023,0.02l-0.028-0.01
		c-0.748-0.249-1.52-0.501-2.366-0.772l-0.079-0.025L107.757,157.834z M112.357,159.047l0.02-0.009l0.021,0.007l2.321,0.862
		l-0.07,0.061c-0.867,0.749-1.542,1.746-2.193,2.71c-1.161,1.718-2.362,3.496-4.682,3.862l-0.019,0.002l-0.017-0.009l-2.166-1.166
		l0.053-0.053c0.693-0.665,1.346-1.429,1.976-2.166C108.971,161.545,110.39,159.888,112.357,159.047z M111.681,165.961
		c0.883-2.08,2.219-3.936,3.509-5.731c0.313-0.432,0.635-0.88,0.945-1.323l0.031-0.045l1.968,1.418l-0.033,0.045
		c-1.196,1.621-2.384,3.47-3.632,5.651l-0.015,0.027h-0.032c-0.673,0.009-2.018,0.026-2.691,0.032l-0.082,0.002L111.681,165.961z
		 M117.625,156.854C120.159,156.848,116.514,159.156,117.625,156.854L117.625,156.854z M117.631,155.8
		c-0.681,1.42-2.303,2.446-3.856,2.446c-0.289,0-0.572-0.035-0.843-0.104l-0.07-0.021l0.038-0.063
		c1.146-1.913,2.56-3.529,4.289-5.44l0.043-0.049l0.041,0.051C118.03,153.572,118.158,154.7,117.631,155.8z M113.192,149.623
		c-0.132,0-0.269-0.005-0.406-0.018l-0.097-0.009l0.057-0.076c1.254-1.717,3.018-3.779,5.544-4.478l0.105-0.03l-0.041,0.103
		C117.526,147.172,115.957,149.623,113.192,149.623z M117.483,144.026c-0.5,0.406-1.011,0.848-1.503,1.275
		c-2.419,2.092-4.919,4.258-8.25,4.258c-0.113,0-0.225-0.002-0.338-0.007l-0.138-0.007l0.104-0.09
		c2.458-2.113,5.161-4.01,7.773-5.846c1.313-0.923,2.67-1.875,3.977-2.843l0.156-0.114l-0.072,0.18
		c-0.095,0.238-0.184,0.493-0.27,0.738C118.604,142.477,118.278,143.413,117.483,144.026z M117.546,140.461
		c-1.239,1.627-2.955,2.729-4.615,3.792c-0.996,0.641-2.026,1.302-2.942,2.07c-0.472,0.313-0.927,0.644-1.411,0.993
		c-1.818,1.317-3.697,2.68-5.916,2.68c-0.451,0-0.906-0.058-1.353-0.171l-0.098-0.025l0.075-0.068
		c1.798-1.659,3.939-2.909,6.014-4.116c0.605-0.354,1.232-0.72,1.839-1.089c0.81-0.441,1.604-0.972,2.368-1.481
		c1.819-1.216,3.7-2.473,5.99-2.669l0.123-0.011L117.546,140.461z M113.384,140.416c-1.546,1.74-3.606,2.842-5.601,3.908
		c-0.91,0.488-1.852,0.992-2.731,1.549c-0.869,0.444-1.726,1.025-2.556,1.59c-1.802,1.224-3.666,2.486-5.812,2.486
		c-0.606,0-1.222-0.103-1.829-0.303l-0.112-0.036l0.1-0.064c1.555-0.954,3.211-1.789,4.813-2.597c1.271-0.638,2.586-1.3,3.841-2.02
		c0.973-0.479,1.941-1.006,2.876-1.518c2.197-1.2,4.468-2.44,6.952-3.085l0.174-0.048L113.384,140.416z M109.193,140.463
		c-0.779,0.753-1.708,1.598-2.841,2.105c-4.316,2.015-8.599,4.272-12.743,6.459l-0.113,0.06l-0.02-0.004
		c-0.711-0.152-1.399-0.415-2.064-0.67c-0.252-0.097-0.505-0.195-0.76-0.285l-0.115-0.042l0.109-0.059
		c2.833-1.498,5.835-2.752,8.738-3.962c1.947-0.813,3.96-1.654,5.903-2.561c1.204-0.652,2.567-0.919,3.859-1.134l0.174-0.029
		L109.193,140.463z M93.01,150.353l0.023-0.011l0.023,0.011c0.549,0.245,1.572,0.698,2.251,1l0.404,0.179l-0.101,0.052
		c-1.302,0.681-2.594,1.443-3.843,2.182c-2.369,1.397-4.819,2.846-7.459,3.805c-0.516,0.21-1.065,0.312-1.679,0.312
		c-0.937,0-1.866-0.241-2.731-0.501l-0.115-0.034l0.102-0.064c3.051-1.922,6.335-3.546,9.512-5.12
		C90.585,151.574,91.813,150.967,93.01,150.353z M90.3,150.804c-1.844,0.669-3.695,1.687-5.485,2.67
		c-3.245,1.781-6.599,3.624-10.196,3.624c-1.029,0-2.056-0.153-3.049-0.455l-0.11-0.032l0.095-0.065
		c1.819-1.22,3.869-2.048,5.853-2.848c0.956-0.387,1.947-0.789,2.897-1.226c1.262-0.518,2.509-1.119,3.714-1.702
		c1.557-0.752,3.169-1.529,4.826-2.133l0.041-0.016l0.022,0.036l1.456,2.121L90.3,150.804z M84.913,149.296
		c-2.169,1.012-4.414,1.95-6.582,2.858c-2.777,1.162-5.649,2.365-8.395,3.729c-0.514,0.27-1.074,0.406-1.664,0.406
		c-1.291,0-2.549-0.625-3.833-1.32l-0.103-0.057l0.109-0.042c3.121-1.23,6.297-2.477,9.371-3.682
		c2.693-1.057,5.388-2.113,8.079-3.172c0.242-0.151,0.485-0.227,0.736-0.227c0.598,0,1.109,0.441,1.603,0.869
		c0.234,0.203,0.455,0.395,0.684,0.542l0.085,0.054L84.913,149.296z M79.98,147.009c-1.749,1.637-4.024,2.37-6.224,3.079
		c-1.17,0.379-2.38,0.769-3.495,1.291c-0.95,0.276-1.891,0.672-2.8,1.056c-1.686,0.707-3.43,1.442-5.277,1.442
		c-0.344,0-0.688-0.024-1.024-0.076l-0.029-0.004l-0.012-0.025l-0.938-1.864l0.061-0.02c3.276-1.042,6.588-2.162,9.792-3.246
		c2.312-0.782,4.701-1.591,7.058-2.363l0.012-0.004l0.013,0.002c0.955,0.128,1.912,0.342,2.845,0.64l0.088,0.029L79.98,147.009z
		 M74.856,146.143c-2.898,0.696-5.768,1.67-8.542,2.611c-2.276,0.771-4.629,1.57-6.988,2.211c-0.248,0.016-0.494,0.039-0.757,0.063
		c-0.481,0.045-0.981,0.09-1.473,0.09c-0.975,0-2.331-0.162-2.865-1.573l-0.021-0.052l0.053-0.02
		c2.366-0.855,4.839-1.489,7.231-2.104c2.412-0.618,4.905-1.257,7.286-2.121c1.604-0.604,3.184-1.063,4.697-1.369l0.037-0.006
		l0.021,0.031c0.267,0.424,0.743,1.182,1.1,1.749l0.297,0.472L74.856,146.143z M53.884,148.356c-0.443,0.12-0.897,0.182-1.354,0.182
		c-1.298,0-2.582-0.492-3.613-1.388l-0.028-0.025l0.441-1.162l0.028-0.007c3.014-0.787,6.115-1.435,9.115-2.058
		c3.38-0.704,6.875-1.431,10.259-2.364l0.038-0.01l0.551,0.789c0.323,0.464,0.649,0.93,0.974,1.395l0.042,0.063l-0.071,0.021
		c-2.354,0.683-4.76,1.33-7.086,1.953C60.12,146.565,56.959,147.412,53.884,148.356z M73.577,142.701
		c-1.297,0-2.382-0.361-3.313-1.103l-0.083-0.065l0.102-0.028c4.932-1.437,9.951-2.598,14.638-3.645
		c0.328-0.113,0.67-0.168,1.044-0.168c0.783,0,1.561,0.255,2.313,0.501c0.394,0.131,0.801,0.263,1.196,0.354l0.22,0.052
		l-0.218,0.056c-1.441,0.367-2.887,0.811-4.285,1.24c-1.923,0.59-3.912,1.199-5.92,1.622c-0.508,0.119-1.024,0.263-1.568,0.414
		C76.343,142.309,74.939,142.701,73.577,142.701z M84.153,136.471c-2.509,1.535-5.437,2.063-8.268,2.573
		c-1.764,0.315-3.587,0.645-5.293,1.212c-0.469,0.207-0.967,0.316-1.476,0.316c-1.303,0-2.517-0.674-3.633-1.402l-0.1-0.066
		l0.114-0.032c2.813-0.803,5.731-1.341,8.553-1.86c2.104-0.388,4.281-0.791,6.396-1.3c0.218-0.043,0.439-0.063,0.678-0.063
		c0.621,0,1.246,0.146,1.851,0.288c0.38,0.09,0.773,0.182,1.156,0.234l0.151,0.021L84.153,136.471z M66.243,140.72l0.139,0.056
		l-0.141,0.047c-3.188,1.059-6.54,1.746-9.781,2.409c-2.304,0.473-4.685,0.96-6.988,1.576c-0.775,0.263-1.615,0.404-2.427,0.404
		c-1.966,0-3.639-0.769-4.708-2.163l-0.052-0.068l0.083-0.02c3.728-0.823,7.552-1.468,11.252-2.09c2.596-0.438,5.28-0.891,7.906-1.4
		c0.264-0.069,0.541-0.104,0.819-0.104c1.006,0,1.953,0.45,2.869,0.886C65.551,140.416,65.902,140.582,66.243,140.72z
		 M61.467,138.465c-3.266,0.632-6.604,1.167-9.832,1.685c-1.691,0.271-3.44,0.551-5.156,0.842c-0.571,0.092-1.157,0.221-1.724,0.343
		c-1.135,0.246-2.308,0.5-3.471,0.5c-0.561,0-1.073-0.058-1.569-0.178l-0.016-0.004l-0.012-0.011
		c-0.604-0.668-1.174-1.378-1.696-2.112l-0.046-0.063l0.076-0.022c3.178-0.863,6.5-1.223,9.714-1.572
		c2.308-0.25,4.694-0.508,7.009-0.95c0.519-0.035,1.083-0.141,1.683-0.251c0.781-0.144,1.589-0.293,2.335-0.293
		c1.517,0,2.39,0.641,2.749,2.018l0.015,0.058L61.467,138.465z M57.724,135.593c-3.128,0.294-6.297,0.718-9.36,1.128
		c-3.412,0.457-6.939,0.931-10.425,1.224c-0.066,0.006-0.131,0.008-0.194,0.008c-1.398,0-2.093-1.251-2.706-2.351
		c-0.09-0.161-0.177-0.32-0.265-0.47l-0.042-0.074l0.083-0.009c6.875-0.741,13.733-1.296,21.913-1.9l0.038-0.002l0.016,0.036
		c0.326,0.777,0.655,1.555,0.987,2.334l0.03,0.07L57.724,135.593z M17.833,147.351c2.746-0.567,5.556-1.061,8.271-1.539
		c4.599-0.81,9.356-1.648,13.947-2.861l0.022-0.006l0.02,0.012c0.881,0.493,1.458,1.323,2.016,2.127
		c0.231,0.335,0.471,0.68,0.728,0.993l0.056,0.067l-0.085,0.021c-4.194,1.019-8.481,1.96-12.625,2.871
		c-2.084,0.457-4.237,0.932-6.354,1.409c-0.388,0.101-0.796,0.153-1.209,0.153c-2.095,0-4.079-1.304-4.826-3.172l-0.024-0.061
		L17.833,147.351z M22.966,151.93c4.571-0.928,9.182-2.038,13.642-3.11c3.264-0.787,6.639-1.601,9.974-2.335l0.035-0.009
		l0.021,0.029c0.843,1.155,1.632,2.15,2.411,3.044l0.059,0.069l-0.085,0.021c-3.828,0.948-7.702,1.983-11.449,2.982
		c-3.029,0.812-6.161,1.648-9.251,2.436c-0.265,0.056-0.529,0.082-0.788,0.082c-2.087,0-3.626-1.782-4.602-3.125l-0.05-0.069
		L22.966,151.93z M28.706,158.187l-0.034-0.011l-0.002-0.036c-0.034-0.491-0.103-1.475-0.137-1.964l-0.004-0.048l0.291-0.07
		c7.553-1.85,15.363-3.764,22.875-6.211l0.036-0.012l0.022,0.029c0.674,0.848,1.398,1.74,2.28,2.81l0.051,0.066l-0.079,0.023
		c-5.499,1.564-11.042,3.309-16.406,4.994c-1.349,0.425-2.696,0.848-4.047,1.271c-0.398,0.185-0.814,0.275-1.267,0.275
		c-0.918,0-1.817-0.383-2.686-0.752C29.306,158.426,29,158.297,28.706,158.187z M51.391,164.746
		c2.233-1.026,4.543-1.971,6.779-2.883c2.921-1.194,5.94-2.428,8.813-3.858c0.53-0.305,1.103-0.454,1.745-0.454
		c0.958,0,1.937,0.338,2.883,0.664c0.683,0.236,1.392,0.479,2.07,0.585l0.157,0.023l-0.139,0.079
		c-2.991,1.654-6.136,3.135-9.177,4.566c-0.792,0.374-1.584,0.746-2.374,1.122c-1.83,0.793-4.227,1.701-6.536,1.701
		c-1.669,0-3.094-0.491-4.234-1.454l-0.065-0.056L51.391,164.746z M63.141,165.688l-0.098-0.039l0.088-0.059
		c2.352-1.56,4.946-2.77,7.456-3.942c1.822-0.852,3.709-1.731,5.486-2.739c0.446-0.312,0.933-0.466,1.48-0.466
		c0.806,0,1.634,0.336,2.435,0.66c0.582,0.237,1.185,0.48,1.76,0.585l0.168,0.029l-0.155,0.071
		c-2.004,0.952-3.935,2.112-5.802,3.232c-1.471,0.883-2.993,1.797-4.541,2.603c-1.209,0.605-2.547,0.912-3.976,0.912
		C66.057,166.535,64.61,166.251,63.141,165.688z M74.596,165.439l0.052-0.047c1.893-1.767,4.203-3.013,6.436-4.219
		c1.64-0.884,3.335-1.8,4.856-2.915l0.027-0.019l0.029,0.014c1.488,0.712,2.89,1.237,4.284,1.604l0.13,0.034l-0.115,0.067
		c-2.298,1.302-4.596,2.899-7.453,5.176c-1.125,0.939-2.621,1.459-4.211,1.459c-1.392,0-2.802-0.396-3.974-1.115L74.596,165.439z
		 M92.44,166.155c1.155-2.073,3.015-3.536,4.813-4.954c0.973-0.766,1.978-1.559,2.86-2.437l0.028-0.027l0.035,0.018
		c1.04,0.525,2.082,1.026,3.327,1.618l0.081,0.036l-0.069,0.056c-0.849,0.673-1.611,1.497-2.349,2.294
		c-1.339,1.446-2.724,2.943-4.675,3.593l-0.015,0.002c-0.417,0.021-0.839,0.03-1.255,0.03c-0.911,0-1.832-0.05-2.739-0.147
		l-0.083-0.009L92.44,166.155z M99.565,166.33c1.774-2.759,3.89-5.101,6.289-6.961c0.283-0.26,0.596-0.395,0.93-0.395
		c0.702,0,1.366,0.57,1.954,1.074c0.13,0.114,0.256,0.222,0.376,0.317l0.046,0.035l-0.041,0.044
		c-0.419,0.452-0.839,0.927-1.243,1.386c-1.128,1.281-2.296,2.607-3.687,3.647c-0.985,0.445-2.063,0.582-3.104,0.717
		c-0.484,0.063-0.983,0.125-1.463,0.218l-0.126,0.023L99.565,166.33z M129.502,171.269l0.09,0.058
		c0.508,0.322,1.525,0.97,2.034,1.292l0.029,0.019l-0.004,0.034c-0.114,0.784-0.121,1.636-0.127,2.458
		c-0.018,2.174-0.038,4.424-1.952,5.884l-0.045,0.034l-0.033-0.045c-1.32-1.808-0.865-3.967-0.425-6.053
		c0.25-1.189,0.509-2.421,0.438-3.574L129.502,171.269z M131.525,180.699l-0.071,0.011l0.008-0.07
		c0.074-0.671,0.161-1.352,0.246-2.012c0.218-1.717,0.444-3.493,0.479-5.257l0.001-0.062l0.062,0.009
		c0.477,0.067,1.383,0.193,1.947,0.271l0.22,0.03l0.002,0.047c0.099,2.067-0.121,4.242-0.666,6.648l-0.008,0.037l-0.037,0.006
		C133.163,180.444,132.07,180.615,131.525,180.699z M133.688,182.915l-0.001,0.05c-0.026,1.975-0.273,3.958-0.513,5.88
		c-0.22,1.762-0.446,3.583-0.501,5.393l-0.002,0.089l-0.079-0.043c-0.252-0.142-0.614-0.237-0.997-0.34
		c-0.701-0.188-1.427-0.381-1.702-0.885c-0.135-0.251-0.144-0.546-0.028-0.902c0.143-0.917,0.31-1.855,0.472-2.763
		c0.389-2.201,0.792-4.474,0.936-6.74l0.003-0.061l0.058,0.009L133.688,182.915z M129.541,182.411
		c0.436,0.172,0.87,0.344,1.162,0.46l0.038,0.015l-0.004,0.043c-0.359,3.102-0.829,6.766-1.579,10.419l-0.007,0.041l-0.041,0.004
		l-2.365,0.23l-0.001-0.058c-0.126-4.048,0.743-8.097,1.567-11.573l0.015-0.061l0.06,0.023
		C128.671,182.067,129.106,182.238,129.541,182.411z M127.533,181.982c-0.104,0.758-0.205,1.519-0.303,2.276
		c-0.38,2.897-0.773,5.895-1.469,8.785l-0.013,0.053l-0.051-0.012c-0.596-0.123-1.787-0.374-2.385-0.5l-0.049-0.01l0.006-0.05
		c0.167-1.35,0.408-2.714,0.639-4.031c0.38-2.173,0.773-4.419,0.86-6.661l0.002-0.056l0.055,0.005
		c0.663,0.033,1.991,0.102,2.656,0.139l0.06,0.002L127.533,181.982z M123.163,189.376c-0.138,0.786-0.276,1.569-0.409,2.354
		l-0.007,0.046l-2.812-0.059l0.008-0.063c0.243-1.564,0.554-3.145,0.856-4.674c0.384-1.94,0.781-3.949,1.036-5.948l0.006-0.052
		l0.053,0.004c0.304,0.026,0.763,0.067,1.223,0.105c0.459,0.041,0.917,0.079,1.223,0.106l0.055,0.005l-0.005,0.056
		C124.111,183.984,123.628,186.725,123.163,189.376z M123.313,179.932l-0.069,0.059l-0.019-0.09
		c-0.833-4.152,0.408-8.448,1.752-12.493l0.03-0.091l0.063,0.07c1.247,1.38,1.633,2.939,1.089,4.39
		c-0.276,0.86-0.421,1.813-0.563,2.734C125.287,176.502,124.971,178.562,123.313,179.932z M117.179,204.447
		c0.251-1.985,0.704-3.962,1.142-5.871c0.343-1.488,0.695-3.029,0.95-4.56l0.008-0.048l0.048,0.002l3.106,0.111l-0.014,0.064
		c-0.714,3.2-1.269,6.488-1.804,9.667c-0.087,0.523-0.175,1.043-0.265,1.565l-0.01,0.06l-0.059-0.017
		c-0.992-0.284-2.024-0.594-3.065-0.914l-0.044-0.015L117.179,204.447z M121.193,205.746c0.137-2.609,0.627-5.224,1.102-7.755
		c0.2-1.059,0.406-2.154,0.582-3.232l0.007-0.047l0.048,0.002c0.685,0.031,2.052,0.094,2.736,0.125l0.063,0.003l-0.013,0.063
		c-0.361,1.802-0.569,3.658-0.771,5.453c-0.222,2-0.455,4.071-0.901,6.074l-0.011,0.054l-0.053-0.011
		c-0.919-0.192-1.845-0.419-2.752-0.673l-0.042-0.013L121.193,205.746z M124.87,206.842c0.042-1.987,0.306-3.984,0.562-5.917
		c0.265-2.001,0.539-4.073,0.564-6.127v-0.077l0.072,0.025c0.997,0.354,1.997,0.707,3,1.059l0.038,0.014v0.04
		c-0.06,4.136-0.508,7.803-1.373,11.209l-0.011,0.045l-0.046-0.004c-0.92-0.067-1.838-0.137-2.754-0.209l-0.051-0.005V206.842z
		 M129.215,200.962c0.27-1.717,0.549-3.493,0.369-5.235l-0.006-0.064l0.065,0.004c0.757,0.043,2.271,0.126,3.031,0.168l0.051,0.003
		v0.052c-0.001,1.845-0.208,3.704-0.408,5.5c-0.196,1.766-0.4,3.594-0.407,5.401v0.034l-0.032,0.016l-2.629,1.163l-0.018-0.059
		C128.478,205.654,128.852,203.27,129.215,200.962z M132.889,200.188c0.137-1.315,0.278-2.675,0.375-4.016l0.004-0.063l0.062,0.013
		c0.937,0.192,1.875,0.387,2.814,0.582l0.043,0.01v0.045c-0.008,3.456-0.241,6.965-0.466,10.359l-0.057,0.86l-0.05,0.002
		c-1.1,0.034-2.009,0.053-2.86,0.053c-0.106,0-0.209,0-0.315-0.001h-0.053v-0.054C132.351,205.37,132.625,202.735,132.889,200.188z
		 M135.004,175.481c0.162-0.744,0.329-1.515,0.438-2.266l0.013-0.09l0.073,0.052c1.978,1.4,1.668,3.757,1.371,6.035
		c-0.098,0.745-0.19,1.449-0.201,2.107v0.058l-0.058-0.004c-0.494-0.029-1.479-0.09-1.974-0.121l-0.042-0.002l-0.008-0.04
		C134.18,179.283,134.599,177.352,135.004,175.481z M136.45,200.293c0.021-1.313,0.043-2.671,0.056-4.007l0.001-0.063l0.061,0.009
		l3.25,0.434l-0.002,0.049c-0.06,1.567-0.076,3.162-0.092,4.703c-0.023,2.159-0.046,4.393-0.188,6.584l-0.004,0.053h-0.049
		l-3.092,0.038v-0.056C136.365,205.456,136.408,202.83,136.45,200.293z M139.223,173.848c0.141-0.1,0.282-0.196,0.417-0.295
		l0.077-0.058l0.022,0.223c0.262,2.572,0.532,5.232,0.053,7.814l-0.006,0.039l-0.039,0.007c-0.193,0.028-0.376,0.044-0.545,0.044
		c-0.555,0-0.984-0.165-1.279-0.485c-0.675-0.742-0.54-2.19-0.419-3.467c0.041-0.436,0.079-0.844,0.083-1.198
		C137.317,175.165,138.286,174.492,139.223,173.848z M142.923,181.455l0.013,0.069l-0.068-0.003
		c-0.395-0.018-1.061-0.047-1.621-0.068l-0.721-0.032l0.002-0.054c0.062-2.662,0.335-5.239,0.811-7.665l0.017-0.091l0.072,0.062
		c1.555,1.298,1.48,3.215,1.405,5.07C142.797,179.656,142.761,180.601,142.923,181.455z M140.539,188.074
		c0.019-1.704,0.038-3.466,0.141-5.197l0.004-0.081l0.073,0.034c0.192,0.088,0.402,0.169,0.607,0.249
		c0.901,0.347,1.836,0.707,1.941,1.841c-0.036,3.635-0.023,6.631,0.045,9.436l0.002,0.074l-0.072-0.021
		c-0.229-0.068-0.506-0.118-0.801-0.169c-0.742-0.13-1.583-0.277-1.932-0.816c-0.178-0.277-0.211-0.623-0.103-1.057
		C140.507,190.945,140.523,189.485,140.539,188.074z M140.48,196.598l0.004-0.052h0.051c0.974,0.02,1.934,0.043,2.853,0.072h0.049
		l0.002,0.052c0.058,1.087,0.128,2.192,0.194,3.262c0.143,2.258,0.29,4.591,0.331,6.893v0.021l-0.015,0.016
		c-0.538,0.65-1.108,1.28-1.688,1.876l-0.027,0.029l-1.094-0.586l-1.088-0.583l0.002-0.036c0.188-2.146,0.235-4.333,0.281-6.448
		C140.368,199.634,140.399,198.101,140.48,196.598z M145.781,181.21l0.005,0.051l-2.041,0.303v-0.062
		c-0.007-0.659-0.016-1.317-0.026-1.977c-0.025-1.943-0.055-3.955,0.026-5.932l0.004-0.099l0.081,0.057
		c1.938,1.304,1.928,3.727,1.917,5.864C145.743,180.05,145.739,180.646,145.781,181.21z M151.918,198.986
		c-0.139-1.037-0.284-2.111-0.378-3.171l-0.007-0.058l0.058-0.002l2.818-0.124l0.005,0.052c0.224,2.833,0.659,5.688,1.082,8.448
		c0.16,1.062,0.329,2.159,0.48,3.241l0.009,0.054l-0.056,0.009c-0.216,0.025-0.431,0.04-0.639,0.04c-0.929,0-2.538-0.284-2.896-2.19
		C152.479,203.156,152.193,201.036,151.918,198.986z M148.399,200.894c-0.103-1.375-0.207-2.8-0.192-4.204v-0.04l2.662-0.802
		l0.009,0.064c0.288,2.581,0.613,5.202,0.925,7.735c0.171,1.398,0.342,2.795,0.51,4.191l0.007,0.047l-0.047,0.013l-1.83,0.491
		l-0.023-0.021c-0.668-0.589-1.287-1.13-1.885-1.647l-0.023-0.018l0.002-0.029C148.688,204.745,148.542,202.787,148.399,200.894z
		 M153.887,192.858l0.006,0.028l-0.021,0.023c-0.415,0.439-0.867,0.662-1.346,0.662c-0.342,0-0.704-0.114-1.076-0.34l-0.02-0.013
		l-0.006-0.021c-0.521-2.043-0.711-4.177-0.895-6.242c-0.124-1.391-0.254-2.831-0.482-4.227l-0.011-0.074l0.074,0.012l2.176,0.343
		l0.005,0.042C152.541,185.935,153.032,188.96,153.887,192.858z M152.874,182.335l1.015-0.359c0.482-0.169,0.988-0.35,1.313-0.465
		l0.07-0.025l0.002,0.074c0.021,1.45,0.333,2.933,0.634,4.364c0.523,2.494,1.065,5.073,0.097,7.546l-0.032,0.076l-0.06-0.06
		l-1.722-1.762l-0.002-0.021c-0.166-2.083-0.504-4.18-0.828-6.208c-0.164-1.021-0.333-2.076-0.48-3.117L152.874,182.335z
		 M150.485,192.812l0.004,0.03l-0.023,0.019c-0.48,0.399-1.435,1.193-1.924,1.6l-0.065,0.054l-0.032-0.056
		c-1.288-2.233-1.296-4.821-1.305-7.323c-0.004-1.411-0.011-2.873-0.243-4.254l-0.013-0.067l0.151,0.01
		c0.606,0.037,1.701,0.105,2.259,0.142l0.049,0.002l0.002,0.049C149.503,186.408,150.018,189.851,150.485,192.812z M147.684,196.819
		l0.054,0.004l-0.002,0.054c-0.235,3.974,0.132,7.87,0.523,11.158l0.006,0.057l-0.056,0.005c-1.087,0.087-2.203,0.16-3.317,0.218
		l-0.05,0.004l-0.008-0.051c-0.259-1.937-0.329-3.912-0.397-5.826c-0.066-1.913-0.137-3.893-0.397-5.825l-0.008-0.068l0.068,0.007
		C145.293,196.645,146.488,196.731,147.684,196.819z M155.345,197.379c-0.103-0.79-0.205-1.576-0.31-2.365l-0.009-0.073l0.073,0.013
		c0.787,0.137,1.577,0.316,2.346,0.534l0.03,0.008l0.009,0.03c0.909,3.4,1.49,7.051,1.776,11.164l0.004,0.056l-0.058,0.002
		c-0.893,0.063-1.676,0.113-2.392,0.156l-0.047,0.003l-0.008-0.047C156.167,203.718,155.748,200.496,155.345,197.379z
		 M157.809,191.584l-0.009-0.049c-0.229-1.569-0.533-3.151-0.834-4.682c-0.325-1.664-0.658-3.39-0.891-5.099l-0.007-0.041
		l0.039-0.018c0.315-0.135,0.794-0.335,1.268-0.535c0.48-0.201,0.959-0.404,1.279-0.539l0.066-0.027l0.011,0.069
		c0.155,1.018,0.373,2.052,0.585,3.052c0.529,2.521,1.078,5.129,0.726,7.75l-0.006,0.046l-0.045,0.002
		c-0.534,0.017-1.602,0.051-2.134,0.068L157.809,191.584z M156.739,179.828l-0.041-0.049c-1.431-1.702-1.674-3.886-1.915-5.998
		c-0.139-1.24-0.284-2.521-0.666-3.698l-0.011-0.029l0.079-0.083c0.707-0.752,1.437-1.527,2.174-2.272l0.07-0.072l0.021,0.102
		c0.728,3.487,1.345,7.092,1.865,10.198l0.005,0.023L156.739,179.828z M154.434,180.079l-0.005,0.05l-1.917,0.125l-0.005-0.055
		c-0.254-2.974-0.832-5.931-1.449-8.95l-0.013-0.055l0.056-0.009l0.623-0.12c0.545-0.105,1.198-0.23,1.58-0.303l0.051-0.009
		l0.014,0.047C154.224,173.884,154.58,177.006,154.434,180.079z M151.119,181.547l-0.021,0.092l-0.068-0.063
		c-1.71-1.523-1.823-3.836-1.932-6.071c-0.054-1.07-0.106-2.178-0.342-3.162l-0.021-0.088l0.086,0.021
		c0.234,0.057,0.593,0.144,0.943,0.229l0.805,0.196l0.097,0.508C151.177,175.944,151.707,178.775,151.119,181.547z M148.589,180.744
		l-0.006,0.025l-0.023,0.011c-0.416,0.19-1.247,0.571-1.661,0.763l-0.077,0.034v-0.085c-0.011-0.934-0.186-1.905-0.353-2.847
		c-0.369-2.072-0.753-4.217,0.583-6.115l0.052-0.07l0.042,0.074C148.27,174.568,149.435,177.64,148.589,180.744z M146.537,188.55
		c0.088,1.285,0.18,2.616,0.404,3.903c0.1,0.525,0,0.986-0.289,1.335c-0.35,0.422-0.954,0.661-1.661,0.661
		c-0.256,0-0.512-0.032-0.756-0.096l-0.038-0.011l-0.002-0.039c-0.117-1.979-0.128-3.992-0.135-5.941
		c-0.009-1.798-0.017-3.655-0.11-5.479l-0.005-0.09l0.882,0.395c0.397,0.18,0.82,0.367,1.087,0.488l0.023,0.012l0.007,0.025
		C146.315,185.305,146.429,186.954,146.537,188.55z M137.466,182.907l0.003-0.059l2.397,0.309l0.002,0.044
		c0.129,2.347,0.069,4.734,0.013,7.042c-0.031,1.263-0.064,2.57-0.065,3.854v0.052l-0.05,0.003l-2.467,0.172l-0.002-0.058
		C137.17,190.121,137.226,186.405,137.466,182.907z M158.564,164.97c0.004-0.312,0.282-0.613,0.85-0.922l0.028-0.016l0.025,0.018
		c0.436,0.264,0.653,0.54,0.649,0.819c-0.007,0.312-0.278,0.611-0.827,0.916l-0.027,0.016l-0.025-0.016
		C158.786,165.522,158.561,165.247,158.564,164.97z M161.558,165.545c-0.493,0-0.884-0.424-1.053-0.842
		c-0.2-0.495-0.128-0.987,0.187-1.29l0.013-0.01c0.132-0.071,0.275-0.109,0.421-0.109c0.524,0,0.976,0.47,1.148,0.932
		c0.171,0.463,0.087,0.901-0.229,1.176C161.88,165.499,161.721,165.545,161.558,165.545z M161.62,159.713l0.004-0.098l0.081,0.057
		c1.967,1.404,2.957,3.632,3.916,5.785l0.16,0.353l-0.092-0.007C162.792,165.572,161.449,162.565,161.62,159.713z M164.426,161.513
		c-0.399-0.789-0.775-1.535-1.224-2.144l-0.028-0.036l0.032-0.033c0.325-0.334,0.974-1.003,1.305-1.346l0.062-0.064l0.037,0.064
		c0.591,1.046,1.328,2.027,2.039,2.977c1.031,1.377,2.099,2.801,2.75,4.449l0.023,0.062l-0.068,0.013
		c-0.229,0.038-0.455,0.059-0.669,0.059C166.443,165.51,165.418,163.478,164.426,161.513z M163.849,148.927l-0.004-0.137
		l0.096,0.096c3.164,3.117,5.712,5.679,8.018,8.061l0.056,0.058l-2.24,1.001l-0.025-0.029c-0.486-0.551-1.008-1.084-1.559-1.648
		C166.104,154.191,163.945,151.986,163.849,148.927z M167.743,157.521l-0.108-0.003c-0.979-0.023-1.967-0.078-2.926-0.131
		c-0.352-0.019-0.704-0.038-1.061-0.058l-0.056-0.002l0.004-0.056c0.064-0.878,0.097-1.771,0.124-2.637
		c0.02-0.56,0.038-1.136,0.068-1.703l0.007-0.12l0.085,0.083c1.42,1.396,2.699,2.921,3.801,4.536L167.743,157.521z M164.253,146.123
		l0.017-0.013c0.115-0.058,0.241-0.085,0.374-0.085c0.465,0,0.974,0.365,1.178,0.852c0.156,0.365,0.101,0.724-0.151,0.984
		l-0.013,0.01c-0.128,0.069-0.267,0.105-0.41,0.105c-0.433,0-0.886-0.332-1.1-0.807C163.971,146.78,164.009,146.396,164.253,146.123
		z M165.715,148.982l-0.083-0.097l0.128,0.007c1.238,0.065,3.023,0.31,4.188,1.691c1.332,1.37,2.862,2.562,4.347,3.713
		c1.14,0.888,2.321,1.804,3.405,2.801l0.064,0.061l-0.081,0.031c-0.856,0.34-1.582,0.504-2.223,0.504
		c-0.795,0-1.486-0.258-2.057-0.769C170.498,154.544,167.955,151.589,165.715,148.982z M175.494,159.081
		c1.159-0.335,2.356-0.639,3.411-0.905l0.026-0.006l0.021,0.017c2.907,2.268,5.565,4.624,7.901,7.006l0.081,0.081l-0.113,0.011
		c-0.354,0.032-0.713,0.082-1.093,0.134c-0.704,0.095-1.431,0.192-2.135,0.192c-1.234,0-2.146-0.306-2.865-0.961
		c-1.666-1.505-3.194-3.196-4.674-4.831c-0.196-0.216-0.391-0.434-0.588-0.648l-0.058-0.065L175.494,159.081z M177.866,156.313
		c-0.948-0.848-1.929-1.697-2.878-2.517c-1.583-1.367-3.216-2.781-4.76-4.247l-0.094-0.09l0.13-0.005
		c0.329-0.011,0.682-0.075,1.025-0.139c0.391-0.07,0.796-0.146,1.185-0.146c0.604,0,1.06,0.18,1.433,0.566
		c0.739,0.559,1.488,1.138,2.214,1.699c2.402,1.853,4.888,3.769,7.495,5.432l0.058,0.036l-0.05,0.049
		c-0.61,0.59-1.398,0.903-2.28,0.903C180.142,157.855,178.808,157.265,177.866,156.313z M183.144,155.678
		c-0.941-0.742-1.944-1.435-2.918-2.105c-1.722-1.188-3.502-2.417-4.983-3.962l-0.066-0.071l0.094-0.021
		c0.474-0.109,0.957-0.165,1.435-0.165c2.647,0,4.971,1.698,7.022,3.194l0.115,0.085c0.734,0.568,1.567,1.04,2.37,1.497
		c1.461,0.831,2.97,1.688,3.97,3.139l0.036,0.056l-0.06,0.025c-0.646,0.282-1.322,0.425-2.016,0.425
		C186.592,157.774,184.954,157.089,183.144,155.678z M187.209,153.824c-1.588-1.016-3.232-2.066-4.733-3.269l-0.094-0.074
		l0.117-0.021c0.771-0.142,1.593-0.271,2.396-0.271c1.202,0,2.163,0.295,2.94,0.899c1.68,1.131,3.517,2.071,5.288,2.983
		c1.734,0.89,3.525,1.81,5.18,2.91l0.068,0.046l-0.068,0.046c-0.83,0.551-1.773,0.832-2.805,0.832c-1.459,0-3.097-0.575-4.612-1.621
		C189.696,155.411,188.433,154.605,187.209,153.824z M197.759,155.655l-0.846-0.458c-2.684-1.457-5.459-2.963-8.169-4.481
		l-0.077-0.043l0.075-0.051c0.841-0.559,1.685-1.115,2.528-1.672l0.029-0.02l0.03,0.02c2.278,1.481,4.787,2.611,7.215,3.705
		c2.333,1.052,4.744,2.138,6.945,3.531l0.096,0.061l-0.106,0.037c-1.044,0.379-2.185,0.579-3.297,0.579
		C200.554,156.863,199.021,156.446,197.759,155.655z M205.398,154.981c-2.024-1.042-4.117-2.12-6.248-3.022
		c-0.341-0.152-0.7-0.297-1.046-0.44c-1.69-0.695-3.438-1.415-4.507-3.002l-0.056-0.079l0.096-0.006
		c0.436-0.023,0.893-0.108,1.333-0.189c0.54-0.099,1.1-0.201,1.644-0.201c0.568,0,1.057,0.112,1.488,0.35
		c1.179,0.5,2.376,1.031,3.533,1.548c2.483,1.108,5.054,2.255,7.674,3.156c1.847,0.634,3.455,1.473,4.783,2.493l0.089,0.071
		l-0.11,0.025c-1.35,0.32-2.795,0.615-4.213,0.615c-1.371,0-2.525-0.275-3.529-0.842
		C206.021,155.302,205.71,155.142,205.398,154.981z M210.744,152.708c-0.668-0.295-1.359-0.597-2.036-0.858
		c-1.753-0.661-3.506-1.396-5.201-2.109c-1.382-0.579-2.811-1.179-4.228-1.733l-0.088-0.034l0.222-0.18
		c0.779-0.632,1.664-1.35,2.652-1.35c0.354,0,0.704,0.094,1.044,0.275c5.601,2.129,11.104,4.185,16.777,5.938l0.086,0.026
		l-0.064,0.064c-0.41,0.413-1.231,1.242-1.644,1.654l-0.013,0.013l-0.018,0.002c-0.389,0.061-0.788,0.09-1.189,0.09
		C214.833,154.504,212.756,153.592,210.744,152.708z M219.631,151.641c-4.605-1.74-9.364-3.304-13.97-4.813l-0.354-0.115
		l0.034-0.061c0.236-0.407,0.645-1.112,0.976-1.682l0.344-0.599l0.04,0.011c6.515,1.711,12.815,3.661,19.784,5.847l0.088,0.027
		l-0.066,0.064c-1.181,1.161-2.861,1.853-4.494,1.853C221.162,152.174,220.361,151.993,219.631,151.641z M224.926,148.645
		c-2.84-0.978-5.773-1.802-8.608-2.598c-2.204-0.62-4.486-1.26-6.707-1.969l-0.081-0.027l1.817-1.976l0.032,0.01
		c3.256,0.908,6.604,1.696,9.843,2.456c3.679,0.866,7.483,1.76,11.177,2.838l0.086,0.023l-0.06,0.065
		c-0.98,1.063-2.336,1.579-4.149,1.579C227.159,149.047,226.006,148.854,224.926,148.645z M226.696,144.8
		c-4.211-1.024-8.564-2.08-12.927-2.666l-0.092-0.012l0.054-0.072c0.668-0.936,1.339-1.826,1.904-2.575l0.021-0.027l0.034,0.009
		c3.261,0.713,6.596,1.354,9.821,1.972c3.777,0.727,7.683,1.477,11.493,2.349l0.063,0.016l-0.021,0.058
		c-0.344,0.948-0.986,2.709-2.564,2.709c-0.058,0-0.117-0.003-0.177-0.007C231.756,146.027,229.184,145.403,226.696,144.8z
		 M228.867,141.069c-3.216-0.551-6.538-1.118-9.762-1.919l-0.072-0.019l0.04-0.064c0.259-0.417,0.52-0.835,0.777-1.252
		c0.293-0.474,0.585-0.947,0.88-1.421l0.021-0.03l0.036,0.006c3.326,0.716,6.756,1.167,10.069,1.604
		c3.76,0.498,7.646,1.011,11.407,1.907l0.064,0.017l-0.027,0.06c-0.664,1.42-1.986,2.938-3.707,2.938
		c-0.269,0-0.547-0.037-0.819-0.112C234.831,142.089,231.799,141.571,228.867,141.069z M236.69,137.692
		c-4.454-0.545-9.062-1.106-13.532-1.95l-0.092-0.017l0.06-0.072c0.649-0.79,1.332-1.614,2.03-2.449l0.021-0.023l0.03,0.006
		c4.007,0.696,8.124,1.055,12.102,1.401c2.844,0.248,5.779,0.504,8.658,0.882l0.074,0.009l-0.032,0.07
		c-0.476,1.007-1.001,2.024-1.605,3.108l-0.02,0.032l-0.036-0.005C241.804,138.319,239.203,138.002,236.69,137.692z
		 M226.284,130.372c-0.417,0.485-1.245,1.456-1.659,1.941l-0.02,0.021l-0.025-0.001c-2.991-0.118-6.019-0.433-8.944-0.733
		c-2.637-0.271-5.363-0.554-8.058-0.692l-0.032-0.002l-0.015-0.03l-0.391-0.902l0.029-0.025c0.854-0.724,1.911-1.061,3.327-1.061
		c0.839,0,1.69,0.115,2.515,0.229c0.147,0.02,0.295,0.04,0.44,0.06c1.64,0.218,3.341,0.229,4.985,0.239
		c2.601,0.018,5.291,0.034,7.82,0.87l0.077,0.025L226.284,130.372z M214.144,132.48c3.074,0.209,6.252,0.427,9.324,1.08l0.094,0.021
		l-0.066,0.069c-1.061,1.113-2.44,1.63-4.341,1.63c-0.994,0-2.02-0.137-3.01-0.269c-0.491-0.066-0.957-0.128-1.416-0.174
		c-1.896-0.296-3.826-0.545-5.694-0.787c-1.951-0.25-3.969-0.511-5.944-0.824l-0.117-0.019l0.092-0.077
		c0.139-0.113,0.273-0.235,0.419-0.365c0.653-0.583,1.33-1.188,2.19-1.188c0.2,0,0.403,0.033,0.606,0.101
		C208.876,132.124,211.556,132.305,214.144,132.48z M203.662,134.073c2.514,0.508,5.104,0.846,7.607,1.174
		c2.599,0.342,5.284,0.693,7.897,1.234l0.084,0.017l-0.052,0.069c-0.935,1.276-2.442,1.979-4.246,1.979
		c-0.745,0-1.501-0.117-2.244-0.353c-1.967-0.557-4.019-0.879-6.002-1.191c-2.44-0.384-4.967-0.779-7.354-1.617l-0.128-0.046
		l0.124-0.056c0.324-0.145,0.651-0.326,0.969-0.504c0.775-0.429,1.574-0.873,2.445-0.873
		C203.071,133.906,203.367,133.96,203.662,134.073z M206.729,137.89c2.48,0.479,5.045,0.975,7.49,1.76l0.134,0.043l-0.128,0.06
		c-0.31,0.143-0.619,0.308-0.948,0.485c-0.873,0.47-1.774,0.956-2.734,0.956c-0.291,0-0.574-0.045-0.848-0.137
		c-3.677-1.042-7.479-1.861-11.156-2.656c-1.476-0.317-3-0.646-4.494-0.983l-0.16-0.037l0.151-0.068
		c0.286-0.128,0.568-0.267,0.869-0.417c0.995-0.492,2.023-1.004,3.103-1.004c0.403,0,0.781,0.069,1.154,0.213
		C201.628,136.906,204.22,137.408,206.729,137.89z M196.557,138.461c1.015,0.356,2.061,0.726,3.092,0.855
		c1.181,0.387,2.423,0.653,3.625,0.91c2.249,0.48,4.571,0.978,6.547,2.28l0.098,0.063l-0.113,0.034
		c-0.999,0.297-2.063,0.587-3.106,0.587c-0.621,0-1.181-0.1-1.71-0.305c-0.756-0.223-1.521-0.448-2.28-0.675
		c-4.159-1.232-8.459-2.504-12.724-3.637l-0.11-0.029l0.094-0.068c0.841-0.617,1.751-0.918,2.777-0.918
		C194.01,137.56,195.306,138.017,196.557,138.461z M192.694,139.926c0.463,0.162,0.939,0.33,1.405,0.478
		c2.899,1.133,5.95,1.973,8.9,2.786c0.622,0.171,1.247,0.342,1.868,0.519l0.048,0.014l-0.007,0.048
		c-0.07,0.428-0.209,1.286-0.277,1.716l-0.009,0.044h-0.047c-2.163-0.01-3.862-0.31-5.354-0.942
		c-1.681-0.636-3.41-1.235-5.084-1.814c-2.891-1.003-5.885-2.038-8.73-3.307l-0.111-0.049l0.111-0.051
		c0.796-0.367,1.625-0.547,2.538-0.547C189.552,138.819,191.15,139.381,192.694,139.926z M187.216,141.078
		c0.715,0.31,1.456,0.628,2.184,0.876c0.779,0.279,1.559,0.561,2.338,0.843c2.3,0.835,4.677,1.696,7.062,2.413l0.042,0.013
		l-0.177,1.577l-0.043,0.007c-0.32,0.045-0.646,0.068-0.976,0.068c-1.977,0-3.809-0.824-5.579-1.621
		c-0.615-0.275-1.253-0.562-1.883-0.809c-1.283-0.579-2.613-1.106-3.899-1.616c-2.068-0.82-4.203-1.668-6.195-2.75l-0.109-0.06
		l0.115-0.041c0.653-0.23,1.312-0.342,2.012-0.342C183.87,139.637,185.571,140.369,187.216,141.078z M181.56,141.729
		c0.943,0.484,1.922,0.984,2.91,1.323c3.117,1.143,6.227,2.454,9.232,3.723l0.696,0.294l-0.081,0.056
		c-0.682,0.475-1.728,1.037-2.853,1.037c-0.543,0-1.053-0.132-1.512-0.395c-5.133-2.521-10.413-4.969-15.517-7.336l-0.236-0.111
		l0.13-0.043c0.628-0.211,1.251-0.313,1.9-0.313C178.113,139.964,179.866,140.861,181.56,141.729z M177.975,142.91
		c2.789,1.394,5.671,2.837,8.622,4.008c1.26,0.427,2.25,1.262,2.858,2.411l0.041,0.073l-0.083,0.007
		c-0.509,0.032-0.896,0.045-1.258,0.045c-1.616,0-2.759-0.303-3.707-0.986c-1.559-0.916-3.202-1.777-4.791-2.609
		c-3.171-1.663-6.45-3.38-9.272-5.647l-0.146-0.117l0.186,0.021c0.583,0.064,1.751,0.192,2.334,0.256l0.015,0.005
		C174.526,141.185,176.279,142.063,177.975,142.91z M175.336,144.307c2.777,1.414,5.649,2.875,7.987,5.058l0.135,0.126l-0.182-0.033
		c-2.759-0.49-5.199-1.023-7.161-2.58c-1.236-0.968-2.624-1.766-3.97-2.539c-1.987-1.142-4.043-2.322-5.639-4.075l-0.076-0.084
		l0.113-0.007c1.154-0.067,2.201,0.242,3.112,0.919C171.443,142.325,173.421,143.333,175.336,144.307z M168.495,142.919
		c0.732,0.506,1.49,1.028,2.25,1.521c0.592,0.399,1.22,0.763,1.828,1.117c1.258,0.728,2.56,1.481,3.6,2.564l0.072,0.076
		l-0.106,0.016c-0.308,0.045-0.615,0.068-0.92,0.068c-2.526,0-4.512-1.553-6.432-3.052c-0.745-0.578-1.509-1.179-2.288-1.669
		c-0.387-0.316-0.848-0.592-1.299-0.856c-1.233-0.73-2.511-1.486-2.381-3.164l0.007-0.079l0.07,0.033
		C164.891,140.425,166.721,141.693,168.495,142.919z M162.967,141.892c0.82,0.626,1.683,1.231,2.518,1.816
		c1.981,1.391,4.029,2.825,5.66,4.67l0.081,0.091h-0.147c-4.731,0-7.469-4.984-8.192-6.512l-0.098-0.204L162.967,141.892z
		 M168.137,161.607c-0.536-0.775-1.092-1.574-1.691-2.319l-0.038-0.047l0.053-0.033c0.297-0.184,0.781-0.481,1.222-0.752l0.76-0.467
		l0.03,0.037c0.713,0.869,1.447,1.747,2.158,2.593c1.292,1.541,2.626,3.134,3.886,4.745l0.075,0.096l-0.122-0.008
		c-0.23-0.013-0.468-0.021-0.702-0.029c-1.04-0.039-2.116-0.077-3.085-0.522l-0.018-0.014
		C169.714,163.879,168.913,162.724,168.137,161.607z M172.556,161.827c-0.72-0.939-1.465-1.909-2.306-2.747l-0.056-0.055
		l0.068-0.031c0.873-0.419,1.749-0.833,2.624-1.247l0.097-0.046l0.025,0.035c1.35,1.77,2.938,3.369,4.475,4.917
		c1.004,1.008,2.039,2.054,3,3.135l0.077,0.085l-0.113,0.007c-1.072,0.047-2.167,0.071-3.254,0.071
		c-0.207,0-0.416-0.001-0.621-0.003h-0.018l-0.013-0.009C174.906,164.891,173.711,163.332,172.556,161.827z M190.866,161.276
		c-0.9-0.732-1.834-1.488-2.777-2.167l-0.077-0.056l0.088-0.039c0.931-0.407,1.915-0.612,2.932-0.612
		c1.622,0,3.22,0.544,4.498,1.532c1.119,0.856,2.354,1.605,3.545,2.329c1.861,1.128,3.787,2.296,5.329,3.914l0.083,0.087
		l-0.119,0.005c-0.346,0.014-0.694,0.03-1.04,0.05c-0.677,0.034-1.375,0.07-2.063,0.07c-0.722,0-1.354-0.04-1.935-0.124
		C196.044,165.472,193.412,163.339,190.866,161.276z M224.6,163.776c-2.28-1.188-4.661-2.266-6.963-3.305
		c-1.815-0.82-3.689-1.669-5.507-2.566l-0.096-0.048l0.094-0.05c0.427-0.223,0.854-0.469,1.267-0.706
		c0.866-0.495,1.764-1.01,2.716-1.375l0.019-0.008l0.021,0.008c2.388,0.948,4.796,1.961,7.127,2.938
		c2.368,0.996,4.819,2.026,7.247,2.987c0.596,0.238,1.206,0.47,1.795,0.693c1.875,0.709,3.812,1.441,5.554,2.513l0.079,0.05
		l-0.081,0.045c-1.416,0.807-3.027,1.217-4.791,1.217C230.582,166.172,227.809,165.389,224.6,163.776z M218.902,155.929
		l-0.096-0.037l0.083-0.06c1.021-0.709,2.228-1.559,3.432-2.475l0.025-0.02l0.027,0.013c4.431,1.881,9.063,3.453,13.546,4.975
		c2.844,0.968,5.781,1.967,8.643,3.033l0.066,0.024l-0.039,0.057c-0.999,1.507-2.769,2.439-4.618,2.439
		c-0.648,0-1.274-0.115-1.857-0.346C231.848,160.936,225.451,158.453,218.902,155.929z M257.542,151.993
		c-0.151,0-0.306-0.009-0.459-0.028c-2.647-0.574-5.313-1.247-7.892-1.896c-3.909-0.984-7.953-2.003-11.993-2.703l-0.083-0.016
		l0.077-0.11c0.753-1.072,1.532-2.183,2.261-3.304l0.023-0.031l0.038,0.011c3.568,0.979,7.269,1.638,10.851,2.273
		c3.688,0.655,7.499,1.335,11.171,2.363l0.054,0.016l-0.015,0.051C261.052,150.577,259.356,151.993,257.542,151.993z
		 M260.875,147.026c-2.219-0.438-4.476-0.862-6.66-1.272c-3.845-0.722-7.822-1.471-11.711-2.316l-0.079-0.018l0.045-0.067
		c0.777-1.186,1.585-2.39,2.398-3.577l0.019-0.031l0.036,0.008c4.335,0.893,8.788,1.526,13.095,2.14
		c1.717,0.244,3.493,0.495,5.237,0.762l0.016,0.005c0.234,0.112,0.563,0.177,0.911,0.247c0.874,0.175,1.86,0.372,1.691,1.386
		c0.13,0.705,0.004,1.293-0.376,1.75c-0.781,0.94-2.412,1.081-3.315,1.081C261.737,147.12,261.284,147.088,260.875,147.026z
		 M264.09,141.652c-0.551-0.103-1.118-0.209-1.674-0.269c-2.489-0.509-5.047-0.815-7.521-1.114
		c-2.789-0.338-5.671-0.685-8.462-1.317l-0.077-0.018l0.045-0.068c0.698-1.024,1.42-2.124,2.27-3.457l0.021-0.031l0.037,0.009
		c3.781,0.836,7.698,1.137,11.486,1.428c3.401,0.261,6.918,0.53,10.33,1.188l0.06,0.011l-0.02,0.06
		c-0.418,1.336-0.939,2.999-2.47,3.728c-0.453,0.122-0.919,0.177-1.433,0.177C265.817,141.977,264.939,141.813,264.09,141.652z
		 M252.396,128.464c-0.273,0.123-0.547,0.283-0.812,0.436c-0.615,0.355-1.251,0.724-1.978,0.724c-0.094,0-0.189-0.007-0.286-0.02
		c-3.226-0.097-7.046-0.238-10.883-0.555c-1.095-0.099-2.218-0.102-3.305-0.104c-1.785-0.006-3.63-0.012-5.408-0.441l-0.062-0.015
		l0.023-0.058l0.943-2.62h0.038c0.639-0.003,1.277-0.004,1.916-0.004c6.283,0,12.539,0.142,18.925,0.301h0.036l0.014,0.033
		l0.886,2.3L252.396,128.464z M237.632,130.175c3.993,0.227,8.122,0.46,12.189,0.46c0.186,0,0.371,0,0.56-0.001h0.056l-0.003,0.058
		c-0.008,0.252-0.023,0.632-0.038,1.012s-0.027,0.758-0.04,1.012v0.03l-0.026,0.015c-1.528,0.859-3.243,1.26-5.397,1.26
		c-1.332,0-2.703-0.151-4.028-0.297c-1.322-0.146-2.688-0.296-4.013-0.296h-0.055c-2.825-0.396-5.712-0.554-8.5-0.703
		c-0.414-0.023-0.831-0.045-1.245-0.069l-0.066-0.003l0.016-0.064c0.211-0.937,0.425-1.874,0.64-2.81l0.009-0.042l0.045,0.001
		C231.036,129.801,234.391,129.992,237.632,130.175z M228.521,128.021c-0.322,0.085-0.647,0.223-0.961,0.356
		c-0.527,0.226-1.074,0.459-1.648,0.459c-0.137,0-0.269-0.014-0.399-0.038c-3.454-0.592-7.012-0.617-10.451-0.643
		c-1.883-0.014-3.828-0.027-5.737-0.134l-0.123-0.007l2.045-2.01l0.021-0.002c3.73-0.12,7.53-0.127,11.205-0.133
		c1.937-0.004,3.939-0.007,5.905-0.026h0.054l0.038,0.63c0.032,0.515,0.068,1.128,0.092,1.489l0.005,0.045L228.521,128.021z
		 M144.355,165.22c-0.02,0.442-0.018,0.896-0.018,1.339c0.003,1.575,0.007,3.205-0.862,4.597l-0.094,0.153l-0.007-0.179
		c-0.168-5.631-0.036-11.363,0.092-16.906c0.037-1.605,0.075-3.265,0.107-4.896l0.002-0.019l0.662-1.782l0.015,0.263
		c0.209,3.652,0.167,7.379,0.126,10.979C144.355,160.884,144.33,163.069,144.355,165.22z M144.334,147.518l-0.07-0.135l0.139,0.058
		c1.947,0.801,3.681,2.024,5.359,3.208c0.896,0.632,1.825,1.286,2.775,1.867c0.788,0.411,1.204,1.18,1.607,1.924
		c0.124,0.225,0.252,0.459,0.387,0.675l0.106,0.174l-0.179-0.097c-1.448-0.777-2.84-1.691-4.185-2.576
		c-1.211-0.796-2.465-1.617-3.75-2.336c-1.031-0.501-1.55-1.515-2.054-2.494C144.424,147.694,144.379,147.605,144.334,147.518z
		 M152.368,145.984c-1.813-0.301-3.612-0.774-5.354-1.231c-0.38-0.099-0.756-0.199-1.134-0.296l-0.119-0.031l0.102-0.068
		c1.653-1.086,3.325-2.099,4.598-2.861l0.056-0.031l0.023,0.058c0.294,0.701,0.604,1.409,0.905,2.094
		c0.326,0.75,0.666,1.525,0.984,2.293l0.038,0.092L152.368,145.984z M152.77,147.568l0.011,0.02l-0.006,0.021
		c-0.126,0.423-0.601,0.674-1.265,0.674c-0.695,0-1.357-0.277-1.609-0.676c-0.146-0.231-0.156-0.495-0.028-0.767l0.009-0.014
		l0.013-0.009c0.28-0.176,0.628-0.271,1.006-0.271C151.707,146.547,152.458,146.957,152.77,147.568z M150.41,148.779
		c0.885,0.662,1.798,1.348,2.735,1.945l0.021,0.02c0.194,0.346,0.585,1.039,0.779,1.388l0.099,0.175l-0.176-0.103
		c-0.478-0.282-0.963-0.561-1.451-0.841c-2.879-1.657-5.854-3.367-7.947-5.998l-0.115-0.146l0.175,0.06
		C146.726,146.019,148.598,147.422,150.41,148.779z M154.817,157.65c0.106,0.314,0.207,0.611,0.333,0.887l0.077,0.165l-0.506-0.315
		c-3.214-2.013-6.538-4.093-9.522-6.533l-0.014-0.011l-0.006-0.017l-0.171-0.568c-0.128-0.42-0.275-0.9-0.363-1.191l-0.04-0.134
		l0.119,0.07c1.209,0.72,2.392,1.524,3.534,2.302c1.611,1.098,3.279,2.229,5.043,3.143
		C154.209,155.849,154.519,156.765,154.817,157.65z M144.665,153.026c3.029,1.396,5.72,3.482,8.322,5.5
		c0.694,0.54,1.416,1.098,2.125,1.629l0.019,0.014l0.003,0.022l0.354,1.935l-0.111-0.075c-0.842-0.58-1.706-1.162-2.541-1.725
		c-2.491-1.681-5.07-3.414-7.426-5.365l-0.009-0.007l-0.006-0.013c-0.201-0.462-0.603-1.383-0.803-1.845l-0.058-0.132
		L144.665,153.026z M144.874,155.962l0.005-0.092l0.076,0.047c2.099,1.242,4.087,2.712,6.011,4.132
		c1.522,1.12,3.094,2.282,4.712,3.324l0.054,0.034l-0.043,0.049c-3.149,3.515-6.92,5.835-10.906,6.709l-0.066,0.015v-0.066
		C144.647,165.6,144.701,160.839,144.874,155.962z M154.95,154.032c-0.525-3.218-1.134-6.479-1.724-9.632
		c-0.785-4.208-1.597-8.558-2.221-12.865l-0.017-0.122l0.103,0.069c4.44,2.985,7.766,7.742,9.123,13.048
		c0.686,2.994,0.724,6.188,0.113,9.243c-0.61,3.058-1.879,5.993-3.664,8.493l-0.068,0.093l-0.029-0.109
		C155.874,159.747,155.345,157.06,154.95,154.032z M150.21,130.658c-0.47,0.487-0.954,0.991-1.343,1.525l-0.101,0.139l0.002-0.171
		c0.021-1.654,1.076-2.835,2.099-3.977c0.54-0.602,1.1-1.225,1.499-1.911l0.09-0.152l0.013,0.175
		C152.609,128.168,151.391,129.434,150.21,130.658z M141.771,90.741l-0.085-0.038l0.075-0.056c0.432-0.313,1.291-0.939,1.721-1.252
		l0.042-0.032l0.032,0.044c0.316,0.433,0.632,0.862,0.95,1.293c0.474,0.643,0.965,1.308,1.439,1.969l0.023,0.035l-0.028,0.031
		c-1.404,1.661-2.592,3.514-3.742,5.307c-1.106,1.727-2.252,3.513-3.588,5.123l-0.125,0.15l0.029-0.193
		c0.395-2.675,1.854-5.023,3.265-7.293c0.242-0.39,0.492-0.795,0.733-1.191l-1.477-1.486c-0.453,0.81-0.928,1.699-1.452,2.718
		l-0.03,0.059l-0.052-0.041c-1.837-1.435-3.414-3.196-4.683-5.229l-0.062-0.101l0.116,0.019c1.487,0.222,2.259,1.416,3.004,2.572
		c0.259,0.401,0.527,0.817,0.82,1.179c0.496-0.771,1.026-1.536,1.541-2.275c0.133-0.192,0.267-0.387,0.4-0.579l0.042-0.063
		l0.047,0.061c0.715,0.96,1.407,1.824,2.111,2.642l0.907-2.494C143.083,91.327,142.419,91.036,141.771,90.741z M141.932,79.379
		c0.032-2.977,0.399-6.164,2.899-7.258l0.095-0.041l-0.02,0.1c-0.07,0.417-0.128,0.851-0.19,1.312
		c-0.299,2.239-0.638,4.778-2.704,5.936l-0.083,0.046L141.932,79.379z M139.245,78.695l-0.085,0.03l0.014-0.09
		c0.4-2.637,0.898-5.159,2.558-7.012l0.08-0.09l0.015,0.119C142.282,75.547,141.415,77.916,139.245,78.695z M148.052,72.795
		c-0.487,2.452-1.698,4.627-2.866,6.729l-0.063,0.114l-0.039-0.125c-0.459-1.538-0.256-3.432,0.518-4.822
		c0.563-1.012,1.388-1.688,2.385-1.958l0.083-0.023L148.052,72.795z M148.297,87.683C150.849,87.859,147.061,89.966,148.297,87.683
		L148.297,87.683z M144.539,86.336c0.158-0.25,0.504-0.395,0.954-0.395c0.325,0,0.639,0.075,0.891,0.204
		c-0.144-0.293-0.122-0.662-0.011-0.952c0.139-0.369,0.393-0.598,0.666-0.598c0.144,0,0.363,0.067,0.59,0.384
		c0.433,0.369,0.465,0.839,0.35,1.156c-0.121,0.331-0.407,0.544-0.732,0.544c-0.192,0-0.391-0.086-0.583-0.224
		c0.056,0.287,0.009,0.579-0.177,0.835c-0.243,0.333-0.647,0.548-1.029,0.548c-0.237,0-0.666-0.087-0.875-0.669
		C144.42,86.838,144.402,86.556,144.539,86.336z M147.682,90.438l-0.011,0.027l-0.029,0.007c-0.205,0.045-0.387,0.069-0.538,0.069
		c-0.295,0-0.5-0.083-0.611-0.248c-0.153-0.226-0.128-0.588,0.077-1.106l0.011-0.026l0.028-0.007
		c0.574-0.13,0.954-0.069,1.125,0.176C147.892,89.556,147.874,89.917,147.682,90.438z M136.951,95.729
		C139.315,94.603,137.081,98.199,136.951,95.729L136.951,95.729z M139.703,97.211l0.099-0.014l-0.041,0.091
		c-0.36,0.799-0.73,1.644-1.098,2.509l-0.024,0.058l-0.053-0.032c-0.63-0.383-1.291-0.785-1.961-1.201
		c-0.618,0.986-1.406,2.085-2.562,2.819l-0.087,0.056l0.004-0.104C134.077,98.371,137.089,97.57,139.703,97.211z M137.846,101.304
		l-0.011,0.021l-0.021,0.009c-0.318,0.121-0.576,0.185-0.769,0.185c-0.187,0-0.319-0.06-0.392-0.173
		c-0.126-0.195-0.074-0.543,0.159-1.061l0.009-0.021l0.022-0.009c0.638-0.233,1.025-0.229,1.173,0.003
		C138.143,100.453,138.086,100.796,137.846,101.304z M136.997,102.557l0.089-0.167l0.014,0.188c0.163,2.147-0.569,4.159-1.278,6.104
		c-0.229,0.633-0.469,1.289-0.67,1.937l-0.008,0.022l-0.022,0.012c-1.097,0.454-2.203,0.899-3.287,1.32l-0.233,0.091l0.173-0.18
		c1.774-1.841,2.817-4.154,3.825-6.392C136.036,104.521,136.489,103.515,136.997,102.557z M135.286,112.476
		C137.809,112.813,133.952,114.622,135.286,112.476L135.286,112.476z M133.315,115.873l0.023-0.161l0.079,0.144
		c1.198,2.229,1.691,4.769,2.168,7.225c0.378,1.947,0.77,3.96,1.508,5.819c0.492,1.075,0.711,2.274,0.922,3.435
		c0.312,1.713,0.634,3.487,1.856,4.862c1,1.04,2.104,2.474,1.764,4.321l-0.023,0.126l-0.076-0.104
		c-0.759-1.056-1.597-2.183-2.558-3.443c-0.952-1.546-1.47-3.291-1.971-4.979c-0.375-1.268-0.764-2.578-1.333-3.793
		c-0.281-1.224-0.642-2.445-0.992-3.626C133.755,122.546,132.792,119.287,133.315,115.873z M141.215,150.077v-0.015l0.008-0.013
		l0.986-1.597l0.006,0.181c0.139,4.587,0.052,9.249-0.032,13.758c-0.035,1.889-0.072,3.842-0.092,5.764
		c0.042,1.075-0.221,2.095-0.78,3.027l-0.089,0.147l-0.014-0.171c-0.453-5.95-0.267-12.038-0.085-17.926
		C141.155,152.179,141.188,151.128,141.215,150.077z M140.421,71.234l0.101-0.039l-0.026,0.104c-0.096,0.366-0.186,0.75-0.271,1.12
		c-0.47,2.005-0.951,4.078-2.739,5.329l-0.124,0.087l0.04-0.146c0.138-0.514,0.234-1.07,0.334-1.658
		C138.059,74.147,138.425,72.009,140.421,71.234z M138.158,70.794c-0.012,1.59-0.483,3.12-0.94,4.6
		c-0.178,0.575-0.362,1.169-0.516,1.757l-0.107-0.022c0.101-0.621,0.118-1.294,0.133-1.941c0.04-1.599,0.082-3.251,1.338-4.435
		l0.094-0.088L138.158,70.794z M128.214,109.198c-0.087-0.239-0.175-0.474-0.262-0.701l-0.072-0.19l0.158,0.129
		c1.891,1.527,3.171,3.632,4.409,5.667l0.09,0.148l-0.119-0.021C129.91,113.794,129.009,111.353,128.214,109.198z M132.034,114.649
		l0.083-0.106l0.014,0.134c1.113,10.366,4.189,20.376,8.898,28.948l0.071,0.131l-0.139-0.054c-2.02-0.775-2.854-2.717-3.662-4.595
		c-0.305-0.712-0.621-1.448-0.996-2.092c-0.15-0.426-0.299-0.84-0.447-1.255c-1.904-5.341-3.873-10.864-4.314-16.617
		C130.957,117.349,131.123,115.832,132.034,114.649z M139.34,170.786l-0.012,0.179l-0.09-0.155
		c-0.813-1.389-0.721-2.955-0.631-4.471c0.024-0.397,0.047-0.81,0.055-1.208c0.104-2.225,0.103-4.489,0.102-6.68
		c-0.001-2.993-0.003-6.089,0.259-9.124l0.004-0.019c0.151-0.358,0.453-1.077,0.604-1.436l0.102-0.242l0.003,0.263
		C139.82,155.125,139.831,162.902,139.34,170.786z M138.521,147.056v0.018c-0.113,3.862-0.175,7.793-0.232,11.593
		c-0.045,2.874-0.091,5.847-0.159,8.77c0.014,1.179-0.373,2.309-0.744,3.403l-0.107,0.313l-0.018-0.274
		c-0.436-6.62-0.206-13.371,0.015-19.9c0.061-1.768,0.122-3.596,0.17-5.39l0.004-0.175l0.096,0.147
		c0.235,0.361,0.7,1.072,0.947,1.451L138.521,147.056z M130.979,131.52c-0.285,2.81-0.881,5.608-1.458,8.316
		c-0.321,1.509-0.653,3.069-0.929,4.614c-0.589,2.572-1.086,5.209-1.567,7.756c-0.635,3.368-1.292,6.852-2.171,10.228l-0.03,0.117
		l-0.068-0.101c-3.065-4.516-4.46-10.077-3.928-15.663c0.575-3.173,1.737-6.21,3.364-8.788c1.782-2.826,4.038-5.025,6.704-6.534
		l0.092-0.053L130.979,131.52z M132.398,129.724l0.038-0.134l0.063,0.124c0.867,1.686,1.458,3.512,2.027,5.277
		c0.375,1.161,0.763,2.362,1.227,3.515c0.63,1.336,0.536,2.794,0.444,4.203c-0.022,0.327-0.045,0.662-0.057,0.991v0.023
		l-0.016,0.015c-1.744,1.659-3.747,3.054-5.683,4.401c-0.636,0.443-1.292,0.9-1.93,1.361l-0.12,0.086l0.034-0.144
		c0.695-2.891,1.205-5.869,1.697-8.752C130.743,137.071,131.381,133.326,132.398,129.724z M132.891,149.975
		c1.125-0.683,2.291-1.39,3.348-2.184l0.138-0.104l-0.565,1.766l-0.015,0.011c-0.587,0.403-1.183,0.827-1.756,1.238
		c-2.251,1.605-4.579,3.268-7.208,4.238l-0.174,0.063l0.111-0.149C128.375,152.715,130.669,151.32,132.891,149.975z
		 M125.331,163.424c1.693-1.389,3.575-2.568,5.396-3.706c1.736-1.085,3.53-2.208,5.154-3.512l0.092-0.071l-0.002,0.115
		c-0.026,1.627-0.049,3.256-0.069,4.882c-0.037,2.893-0.077,5.882-0.15,8.819v0.07l-0.068-0.02
		c-3.725-1.046-7.208-3.233-10.357-6.497l-0.042-0.042L125.331,163.424z M135.574,155.569l-0.006,0.019l-0.018,0.011
		c-1.436,0.813-2.807,1.786-4.133,2.725c-1.831,1.298-3.722,2.639-5.813,3.584l-0.144,0.065l0.371-0.719
		c0.184-0.355,0.387-0.746,0.512-0.988l0.013-0.019c2.752-2.355,5.895-4.285,8.932-6.149c0.312-0.189,0.622-0.38,0.932-0.569
		l0.134-0.084l-0.054,0.149C136.117,154.087,135.756,155.076,135.574,155.569z M135.59,152.524l-0.012,0.009
		c-3.28,2.586-6.305,4.599-9.244,6.148l-0.137,0.072l1.006-2.356l0.011-0.009c1.726-1.3,3.599-2.449,5.409-3.562
		c1.207-0.74,2.453-1.505,3.645-2.306l0.145-0.1L135.59,152.524z M130.719,150.597c-0.95,0.509-1.931,1.035-2.772,1.627
		l-0.201,0.141l0.123-0.213c1.441-2.518,3.949-3.993,6.373-5.422c0.707-0.415,1.436-0.846,2.121-1.292l0.139-0.089l-0.058,0.155
		C135.505,148.032,133.072,149.337,130.719,150.597z M133.178,128.379l0.114,0.004l-0.076,0.087
		c-0.958,1.073-2.172,1.846-3.347,2.593c-1.116,0.708-2.27,1.441-3.193,2.43c-4.169,3.959-6.592,9.805-6.653,16.043
		c-0.059,6.139,2.205,11.929,6.212,15.886c3.702,3.847,8.946,6.145,14.03,6.145c0.809,0,1.62-0.059,2.408-0.173
		c6.758-0.444,13.163-5.001,16.723-11.887c3.313-6.877,2.98-15.217-0.871-21.759c-0.682-1.571-1.929-2.729-3.131-3.847
		c-1.185-1.103-2.41-2.242-3.102-3.773l-0.056-0.121l0.124,0.048c7.111,2.719,9.622,10.797,10.37,14.144
		c0.845,5.325,0.922,12.917-3.523,18.855c-3.918,6.322-11.269,10.41-18.72,10.41c-1.463,0-2.915-0.159-4.31-0.474
		c-2.774-0.585-5.423-1.772-7.813-3.437c0.784,2.922,0.168,5.933-0.434,8.845c-0.108,0.521-0.219,1.057-0.318,1.58l-0.012,0.055
		l-0.053-0.012l-2.22-0.466l0.02-0.058c0.398-1.185,0.54-2.491,0.678-3.758c0.246-2.25,0.502-4.575,2.204-6.282
		c-1.768-1.248-3.394-2.751-4.801-4.499c-3.316-4.126-5.152-9.152-5.172-14.15c-0.262-4.975,1.183-10.268,4.065-14.898
		c2.057-3.538,5.641-5.785,8.839-7.615l0.014-0.009l0.016,0.001C131.686,128.31,132.68,128.355,133.178,128.379z M105.03,140.137
		l0.169-0.003l-0.135,0.102c-1.996,1.502-4.35,2.414-6.626,3.294c-1.065,0.412-2.167,0.839-3.216,1.321
		c-0.82,0.308-1.652,0.707-2.456,1.094c-1.827,0.877-3.716,1.785-5.701,1.785c-0.761,0-1.479-0.129-2.196-0.396l-0.11-0.041
		l0.102-0.058c1.964-1.127,4.121-1.906,6.205-2.664c1.298-0.47,2.639-0.955,3.92-1.519c0.654-0.245,1.315-0.511,1.954-0.769
		C99.514,141.249,102.177,140.182,105.03,140.137z M99.962,140.075c-2.375,1.298-4.978,2.169-7.493,3.011
		c-1.572,0.526-3.199,1.071-4.753,1.716c-0.451,0.171-0.916,0.365-1.367,0.551c-1.699,0.707-3.456,1.435-5.244,1.435
		c-0.852,0-1.633-0.162-2.389-0.497l-0.083-0.039l0.073-0.055c1.695-1.295,3.767-1.771,5.77-2.229
		c1.412-0.324,2.87-0.658,4.191-1.274c1.167-0.31,2.328-0.739,3.451-1.154c2.167-0.799,4.405-1.623,6.744-1.623
		c0.362,0,0.725,0.019,1.077,0.058l0.173,0.02L99.962,140.075z M94.708,139.523c-5.203,1.975-10.632,3.63-15.882,5.231l-0.379,0.115
		c-0.297,0.125-0.607,0.189-0.918,0.189c-0.796,0-1.624-0.419-2.529-1.278l-0.067-0.064l0.087-0.027
		c2.368-0.744,4.797-1.423,7.148-2.08c2.688-0.75,5.468-1.525,8.167-2.403c0.389-0.154,0.816-0.23,1.297-0.23
		c0.611,0,1.236,0.121,1.841,0.241c0.402,0.079,0.82,0.16,1.222,0.202l0.229,0.023L94.708,139.523z M80.664,134.901
		c-1.96,0.691-4.04,0.949-6.051,1.2c-1.311,0.162-2.667,0.331-3.977,0.617c-0.995,0.153-1.982,0.414-2.939,0.666
		c-1.263,0.331-2.569,0.675-3.896,0.777l-0.011,0.001l-0.01-0.004c-0.793-0.254-1.304-0.896-1.798-1.516
		c-0.113-0.141-0.226-0.281-0.34-0.416l-0.062-0.071l0.095-0.017c2.196-0.371,4.442-0.651,6.616-0.92
		c3.198-0.399,6.503-0.812,9.71-1.519l0.016-0.004l0.016,0.006l2.767,1.149L80.664,134.901z M77.101,132.952
		c-1.56,0.392-3.179,0.551-4.744,0.703c-1.306,0.127-2.655,0.258-3.963,0.524c-0.762,0.092-1.535,0.218-2.283,0.342
		c-1.445,0.235-2.938,0.48-4.415,0.48c-0.636,0-1.222-0.045-1.792-0.135l-0.02-0.004l-0.014-0.016l-1.601-1.91l0.103-0.011
		c1.922-0.194,3.883-0.329,5.779-0.456c3.528-0.238,7.175-0.483,10.711-1.141l0.016-0.003l0.015,0.007
		c0.659,0.275,1.222,0.725,1.767,1.159c0.153,0.121,0.306,0.245,0.462,0.363l0.089,0.069L77.101,132.952z M74.681,129.76
		c-1.793,0.922-3.98,1.397-6.499,1.414c-1.878,0.047-3.779,0.238-5.616,0.423c-1.37,0.138-2.789,0.28-4.186,0.36
		c-0.034,0.002-0.065,0.002-0.097,0.002c-1.131,0-1.868-0.791-2.581-1.557c-0.18-0.192-0.364-0.391-0.549-0.569l-0.086-0.084
		l0.12-0.011c3.474-0.317,7.019-0.425,10.447-0.527c1.957-0.06,3.979-0.12,5.967-0.219c0.081-0.008,0.167-0.011,0.252-0.011
		c0.656,0,1.292,0.205,1.907,0.405c0.298,0.098,0.607,0.196,0.912,0.271l0.142,0.034L74.681,129.76z M71.544,128.131
		c-0.872-0.058-1.787-0.087-2.795-0.087c-1.714,0-3.459,0.084-5.146,0.165c-1.687,0.08-3.429,0.164-5.14,0.164
		c-1.458,0-2.753-0.062-3.959-0.185l-0.02-0.002l-0.015-0.015c-0.365-0.369-1.097-1.105-1.463-1.475l-0.066-0.067l0.092-0.024
		c2.072-0.542,4.385-0.796,7.276-0.796c1.49,0,3.01,0.064,4.479,0.126c1.467,0.062,2.982,0.126,4.464,0.126
		c0.508,0,0.98-0.008,1.441-0.023l0.037-0.001l0.014,0.034c0.212,0.495,0.638,1.484,0.85,1.98l0.035,0.081L71.544,128.131z
		 M53.591,129.866l0.016,0.007l0.011,0.016c0.5,0.777,0.982,1.587,1.438,2.407l0.046,0.082l-0.094-0.001
		c-2.297-0.031-4.641,0.165-6.9,0.357c-1.762,0.151-3.584,0.308-5.384,0.35c-1.203,0.024-2.432,0.18-3.62,0.334
		c-1.29,0.164-2.621,0.335-3.929,0.335c-1.152,0-2.169-0.133-3.113-0.406l-0.03-0.008l-0.009-0.03
		c-0.138-0.604-0.41-1.791-0.555-2.421l-0.023-0.106l0.061-0.007c3.341-0.354,6.748-0.453,10.042-0.55
		c2.889-0.084,5.876-0.171,8.805-0.432c0.32-0.003,0.65-0.034,0.969-0.065c0.344-0.032,0.698-0.068,1.046-0.068
		C52.847,129.661,53.236,129.726,53.591,129.866z M52.843,128.744c-0.69-0.016-1.405-0.023-2.129-0.023
		c-4.395,0-8.855,0.273-13.167,0.537c-1.388,0.085-2.823,0.173-4.234,0.25c-0.11,0.011-0.224,0.017-0.34,0.017
		c-0.839,0-1.65-0.27-2.435-0.53l-0.239-0.078l-0.004-0.033l-0.421-2.795l0.061-0.001c2.116-0.061,4.359-0.09,6.86-0.09
		c3.424,0,6.905,0.057,10.272,0.11c1.624,0.024,3.249,0.051,4.873,0.07h0.038l0.013,0.036l0.933,2.532L52.843,128.744z
		 M30.105,132.755c0.083,0.471,0.167,0.938,0.247,1.41l0.01,0.062l-0.064,0.002c-2.437,0.081-4.915,0.313-7.312,0.532
		c-3.008,0.277-6.118,0.565-9.183,0.565c-1.118,0-2.155-0.036-3.169-0.113l-0.039-0.003l-0.011-0.035
		c-0.356-1.272-0.663-2.554-0.94-3.748l-0.016-0.069l0.069,0.001c0.648,0.012,1.315,0.018,1.985,0.018
		c5.987,0,12.055-0.468,17.923-0.92l0.106-0.009l0.007,0.05C29.841,131.25,29.976,132.015,30.105,132.755z"/>
	<path d="M142.916,144.362c-0.813-1.36-1.152-2.906-1.477-4.4c-0.265-1.213-0.538-2.464-1.064-3.615
		c-0.015,1.027,0.209,2.039,0.426,3.021c0.245,1.1,0.495,2.237,0.415,3.402l0.128,0.104
		C141.9,143.318,142.498,143.794,142.916,144.362z"/>
	<path d="M140.926,140.946c0.106,0.146,0.285,0.223,0.533,0.223c0.22,0,0.501-0.061,0.836-0.178l0.025-0.009l0.009-0.025
		c0.19-0.577,0.201-0.97,0.034-1.199c-0.2-0.278-0.653-0.292-1.362-0.034l-0.024,0.01l-0.008,0.023
		C140.775,140.329,140.76,140.717,140.926,140.946z"/>
	<path d="M143.191,142.908l-0.045-0.283c-0.074-0.479-0.151-0.962-0.228-1.44c-0.174-1.08-0.353-2.195-0.513-3.295l-0.009-0.046
		h-0.045c-0.538-0.011-1.612-0.03-2.15-0.041l-0.102-0.002l0.055,0.086c0.98,1.545,1.89,3.076,2.892,4.773L143.191,142.908z"/>
</g>
</svg>
