<?xml version="1.0" encoding="utf-8"?>
<!-- Generator: Adobe Illustrator 15.1.0, SVG Export Plug-In . SVG Version: 6.00 Build 0)  -->
<!DOCTYPE svg PUBLIC "-//W3C//DTD SVG 1.1//EN" "http://www.w3.org/Graphics/SVG/1.1/DTD/svg11.dtd">
<svg version="1.1"
	 id="Layer_2" inkscape:version="0.92.3 (2405546, 2018-03-11)" sodipodi:docname="religion-sikhism.svg" xmlns:dc="http://purl.org/dc/elements/1.1/" xmlns:cc="http://creativecommons.org/ns#" xmlns:rdf="http://www.w3.org/1999/02/22-rdf-syntax-ns#" xmlns:svg="http://www.w3.org/2000/svg" xmlns:sodipodi="http://sodipodi.sourceforge.net/DTD/sodipodi-0.dtd" xmlns:inkscape="http://www.inkscape.org/namespaces/inkscape"
	 xmlns="http://www.w3.org/2000/svg" xmlns:xlink="http://www.w3.org/1999/xlink" x="0px" y="0px" width="283.465px"
	 height="283.465px" viewBox="0 0 283.465 283.465" enable-background="new 0 0 283.465 283.465" xml:space="preserve">
<sodipodi:namedview  id="namedview8867" inkscape:window-y="-8" inkscape:window-x="-8" inkscape:window-height="1017" inkscape:window-width="1920" inkscape:current-layer="layer8" inkscape:pageshadow="2" inkscape:pageopacity="0" inkscape:cy="141.7325" inkscape:cx="141.7325" inkscape:zoom="0.83255429" borderopacity="1" bordercolor="#ffffff" showgrid="false" pagecolor="#505050" inkscape:window-maximized="1" gridtolerance="10" guidetolerance="10" objecttolerance="10">
	</sodipodi:namedview>
<path id="path4039" inkscape:connector-curvature="0" d="M236.586,86.232c-6.181-14.308-19.522-33.012-47.997-40.858
	c-0.084-0.023-0.174,0.02-0.208,0.1c-0.037,0.08-0.009,0.172,0.063,0.221c18.96,12.431,30.157,28.851,32.386,47.481
	c2.355,19.713-5.602,40.46-22.412,58.424c-10.405,11.117-30.235,27.363-49.188,42.076l0.002-12.617
	c0.933-0.679,10.504-7.64,17.181-11.932l0.104-0.066l-0.026-0.121c-0.804-3.635-1.589-7.476-2.336-11.506
	c23.393-9.027,40.031-31.75,40.031-58.287c0-26.48-16.567-49.16-39.88-58.229c0.581-2.738,1.209-5.486,1.894-8.237l0.024-0.1
	l-0.069-0.069c-15.161-15.118-24.205-25.179-24.296-25.279l-0.13-0.146l-0.131,0.146c-0.089,0.1-9.122,10.159-24.283,25.279
	l-0.072,0.069l0.026,0.1c0.685,2.751,1.311,5.5,1.893,8.237c-23.313,9.07-39.879,31.75-39.879,58.229
	c0,26.538,16.641,49.258,40.03,58.287c-0.747,4.03-1.529,7.871-2.335,11.506l-0.027,0.121l0.104,0.066
	c6.675,4.292,16.241,11.253,17.171,11.932l0.004,12.609c-18.948-14.711-38.776-30.956-49.18-42.068
	c-16.811-17.963-24.769-38.711-22.411-58.424c2.229-18.63,13.426-35.05,32.384-47.481c0.072-0.048,0.101-0.141,0.063-0.221
	c-0.036-0.08-0.124-0.123-0.205-0.099c-28.474,7.845-41.817,26.55-47.999,40.857c-7.959,18.433-7.596,37.394-4.866,48.032
	c7.144,27.832,24.896,45.15,39.157,59.067c10.095,9.85,18.072,17.632,18.171,25.641c0.002,0.065,0.039,0.127,0.099,0.156
	s0.129,0.025,0.185-0.021l22.531-16.551l8.168,5.543c-15.671,11.776-27.617,20.328-27.908,20.539c-0.003,0-0.003,0-0.003,0
	c-2.91,2.063-4.81,5.447-4.81,9.271c0,6.291,5.118,11.387,11.433,11.387c6.315,0,11.436-5.096,11.436-11.387
	c0-2.346-0.713-4.523-1.936-6.338l15.698-10.649l0.008,26.827c-4.656,2.621-7.803,7.609-7.803,13.334
	c0,8.445,6.848,15.294,15.294,15.294c8.445,0,15.294-6.849,15.294-15.294c0-5.727-3.147-10.713-7.807-13.334l0.004-26.831
	l15.703,10.653c-1.221,1.814-1.936,3.994-1.936,6.339c0,6.29,5.121,11.386,11.436,11.386c6.315,0,11.434-5.096,11.434-11.386
	c0-3.827-1.899-7.21-4.811-9.272l0,0c-0.291-0.209-12.236-8.763-27.908-20.539l8.17-5.543l22.529,16.553
	c0.055,0.041,0.124,0.043,0.184,0.02c0.061-0.029,0.098-0.092,0.1-0.156c0.102-8.009,8.076-15.789,18.172-25.641
	c14.265-13.917,32.011-31.235,39.156-59.067C244.18,123.626,244.545,104.667,236.586,86.232L236.586,86.232z M192.213,99.145
	c0,20.581-12.382,38.32-30.082,46.17c-3.896-26.201-5.586-58.452-0.074-92.377C179.798,60.774,192.213,78.537,192.213,99.145
	L192.213,99.145z M91.247,99.145c0-20.609,12.415-38.37,30.158-46.206c5.509,33.923,3.821,66.177-0.075,92.377
	C103.626,137.465,91.247,119.725,91.247,99.145L91.247,99.145z"/>
<g id="layer8" inkscape:label="Layer 1" inkscape:groupmode="layer">
</g>
</svg>
