<?xml version="1.0" encoding="utf-8"?>
<!-- Generator: Adobe Illustrator 15.1.0, SVG Export Plug-In . SVG Version: 6.00 Build 0)  -->
<!DOCTYPE svg PUBLIC "-//W3C//DTD SVG 1.1//EN" "http://www.w3.org/Graphics/SVG/1.1/DTD/svg11.dtd">
<svg version="1.1" id="Layer_1" xmlns="http://www.w3.org/2000/svg" xmlns:xlink="http://www.w3.org/1999/xlink" x="0px" y="0px"
	 width="283.465px" height="283.465px" viewBox="-7.087 -7.087 283.465 283.465"
	 enable-background="new -7.087 -7.087 283.465 283.465" xml:space="preserve">
<path d="M260.035,177.553c-13.763,0-23.223-0.458-33.736-1.625c-16.842-1.845-29.924-5.197-39.725-10.174
	c-8.869-4.503-14.269-9.9-16.484-16.469l-0.491-1.439l-0.052-53.875l-0.033-53.858h22.849V0H76.929v20.058v20.056h22.848
	l0.019,52.503c0.018,28.894,0,52.978-0.019,53.539c-0.068,1.928-0.981,4.736-2.251,6.939c-6.737,11.713-25.693,19.649-54.535,22.833
	c-10.511,1.167-19.973,1.625-33.716,1.625H0.591v26.37c0,28.858-0.051,27.164,0.981,28.826c0.695,1.065,1.862,1.979,3.2,2.47
	c0.932,0.338,1.777,0.457,4.536,0.643c37.524,2.675,73.883,10.24,100.371,20.903c8.226,3.319,16.029,7.177,22.664,11.205
	c1.203,0.728,2.235,1.321,2.304,1.321c0.067,0,1.37-0.746,2.894-1.676c14.32-8.616,32.55-15.691,54.756-21.243
	c20.549-5.146,43.669-8.75,66.604-10.426c3.774-0.272,4.654-0.39,5.602-0.728c1.895-0.677,3.167-1.93,3.859-3.775
	c0.339-0.913,0.339-1.202,0.339-27.401v-26.489H260.035L260.035,177.553z"/>
</svg>
