<?xml version="1.0" encoding="utf-8"?>
<!-- Generator: Adobe Illustrator 15.1.0, SVG Export Plug-In . SVG Version: 6.00 Build 0)  -->
<!DOCTYPE svg PUBLIC "-//W3C//DTD SVG 1.1//EN" "http://www.w3.org/Graphics/SVG/1.1/DTD/svg11.dtd">
<svg version="1.1" id="Layer_1" xmlns="http://www.w3.org/2000/svg" xmlns:xlink="http://www.w3.org/1999/xlink" x="0px" y="0px"
	 width="283.465px" height="283.465px" viewBox="0 0 283.465 283.465" enable-background="new 0 0 283.465 283.465"
	 xml:space="preserve">
<title>Eye of Horus</title>
<g>
	<path fill="none" d="M58.02,117.777c-0.008-3.475,0.551-6.9,1.626-10.154c-0.715,0.301-1.391,0.617-2.021,0.946
		c-4.799,2.333-6.435,3.541-10.398,7.103c-1.885,1.693-4.364,4.424-5.526,6.088c-2.368,3.388-4.569,6.093-8.724,10.72
		c-6.192,6.896-6.568,7.911-6.581,8.045c0.069,0.38,2.733,1.181,7.795,1.407c12.287,1.559,25.687,2.524,38.437,2.79
		C63.835,138.98,58.02,129.06,58.02,117.777z"/>
	<path fill="none" d="M109.872,143.197c20.227-2.368,39.326-7.833,47.873-19.354c0.072-0.881-2.004-3.656-5.053-5.707
		c-4.688-3.152-10.131-5.221-15.393-7.219l-0.172-0.065c-5.428-1.774-11.078-3.261-16.805-4.446
		c1.344,3.615,2.039,7.465,2.02,11.371C122.343,128.119,117.456,137.314,109.872,143.197z"/>
	<path d="M263.739,191.867c0.115,1.863-0.289,3.645-1.151,5.172c0.483-0.791,0.86-1.646,1.104-2.543
		c0.623-2.293,0.314-4.943-1.346-7.053c-1.023-1.301-2.494-2.182-4.172-2.477c-0.427-0.074-0.879-0.098-1.336-0.066
		C259.849,184.926,263.429,187.895,263.739,191.867z"/>
	<path d="M256.252,187.182c-0.398,0-0.771,0.064-1.107,0.191c-0.49,0.186-0.908,0.283-1.209,0.283c-0.408,0-0.559-0.178-0.611-0.326
		c-0.086-0.24-0.049-0.68,1.183-1.711c-0.49,0.295-0.939,0.684-1.313,1.18c-0.814,1.084-0.873,2.08-0.645,3.256
		c0.112,0.588,0.356,1.301,1.076,1.83c0.719,0.531,1.965,0.891,2.557,0.27c0.508-0.529-0.31-1.441-0.334-2.178
		c-0.019-0.381-0.035-0.793,0.119-1.133c0.41-0.525,0.848-0.615,1.588-0.484c0.758,0.135,1.67,0.666,2.1,1.211v0.027
		c0.438,0.563,0.699,1.166,0.816,1.795c-0.053-0.922-0.275-1.75-0.644-2.311C259.084,187.945,257.646,187.182,256.252,187.182z"/>
	<path d="M254.071,201.721c-3.319,0-6.576-1.371-8.711-3.664c-2.688-2.891-4.02-6.463-3.844-10.332
		c0.186-4.096,2.135-8.188,5.213-10.949c0.557-0.5,1.068-0.934,1.578-1.313c-6.203,4.117-8.924,13.148-5.047,19.975
		c2.633,4.637,8.252,7.355,13.383,5.979c-0.621,0.15-1.269,0.25-1.935,0.287C254.502,201.713,254.286,201.721,254.071,201.721z"/>
	<path d="M259.218,195.975c0.334-0.432,0.594-0.932,0.791-1.463c-0.474,1.027-1.236,1.967-2.158,2.596l-0.135,0.107
		c-0.517,0.328-1.044,0.574-1.574,0.748C257.382,197.682,258.409,197.02,259.218,195.975z"/>
	<path d="M271.36,192.285c-0.151-1.449-0.313-2.717-0.731-4.111c0.692,2.951,0.924,5.846,0.858,8.387
		C271.53,195.549,271.545,194.031,271.36,192.285z"/>
	<path d="M270.319,203.695h0.019c0.063-0.178,0.118-0.357,0.176-0.539C270.45,203.346,270.386,203.529,270.319,203.695z"/>
	<path d="M270.956,201.461c0.22-1.008,0.365-2.047,0.437-3.117C271.295,199.496,271.147,200.547,270.956,201.461z"/>
	<path d="M274.384,184.564c-2.921-7.369-9.154-11.77-16.677-11.77c-1.459,0-2.95,0.168-4.436,0.502
		c-2.223,0.5-3.586,1.139-4.965,2.166c-0.51,0.379-1.021,0.813-1.578,1.313c-3.078,2.76-5.027,6.854-5.213,10.949
		c-0.176,3.869,1.154,7.441,3.844,10.332c2.135,2.293,5.391,3.664,8.711,3.664c0.215,0,0.43-0.008,0.639-0.02
		c0.666-0.037,1.313-0.137,1.935-0.287c0.031-0.006,0.063-0.018,0.092-0.021c0.055-0.014,0.104-0.033,0.156-0.047
		c1.817-0.49,3.42-1.445,4.627-2.805c0.41-0.465,0.766-0.971,1.067-1.502c0.863-1.527,1.269-3.311,1.152-5.172
		c-0.311-3.975-3.891-6.941-6.902-6.969c-0.012,0-0.026-0.002-0.041-0.002c-0.563,0-1.094,0.104-1.573,0.305
		c-0.203,0.084-0.4,0.188-0.604,0.32c-0.039,0.033-0.076,0.064-0.113,0.098c-1.229,1.029-1.268,1.471-1.182,1.711
		c0.053,0.146,0.203,0.324,0.611,0.324c0.301,0,0.719-0.098,1.209-0.281c0.336-0.127,0.709-0.191,1.107-0.191
		c1.395,0,2.831,0.764,3.575,1.9c0.367,0.561,0.59,1.389,0.644,2.311c0.059,1.006-0.086,2.119-0.461,3.119
		c-0.197,0.531-0.457,1.031-0.791,1.463c-0.81,1.045-1.836,1.707-3.076,1.988c-0.955,0.217-2.033,0.209-3.234-0.027
		c-2.385-0.469-4.379-1.924-5.617-4.1c-1.498-2.637-1.733-6.049-0.631-9.139c1.642-4.6,5.562-7.24,10.732-7.252
		c7.93,0.656,11.41,5.699,12.932,9.814c0.117,0.313,0.215,0.615,0.305,0.914c0.418,1.395,0.58,2.662,0.732,4.109
		c0.184,1.746,0.17,3.266,0.127,4.275c-0.014,0.363-0.031,0.664-0.045,0.883c-0.008,0.146-0.016,0.258-0.02,0.34
		c-0.007,0.189-0.021,0.375-0.031,0.563c-0.07,1.07-0.217,2.109-0.437,3.117c-0.021,0.1-0.043,0.203-0.065,0.303
		c-0.019,0.076-0.035,0.152-0.055,0.229c-0.054,0.217-0.107,0.432-0.166,0.646c-0.009,0.025-0.017,0.051-0.023,0.076
		c-0.041,0.146-0.088,0.295-0.133,0.439c-0.058,0.184-0.113,0.361-0.176,0.539c-4.843,14.289-24.892,21.73-44.441,21.73
		c-5.629,0-11.188-0.598-16.529-1.775c-5.713-0.98-12.772-3.35-22.893-7.682c-16.548-7.322-48.232-22.918-74.536-45.117
		c-7.002-5.711-11.941-10.43-13.551-12.945c-1.493-2.334-1.456-2.361-0.825-2.822c1.383-1.012,2.466-1.229,16.563-3.299
		c18.711-3.477,28.269-7.275,40.372-12.083c2.382-0.946,4.845-1.925,7.533-2.967c4.576-2.14,5.582-2.812,5.961-3.063
		c0.187-0.125,0.187-0.125,0.554-0.195c0.172-0.031,0.409-0.076,0.764-0.15c2.002-0.419,4.164-0.624,6.613-0.624
		c3.004,0,6.094,0.31,9.08,0.608c2.498,0.25,5.079,0.508,7.604,0.584l1.281,0.041c16.616,0.51,41.729,1.281,47.016,1.757
		c9.5,0.856,15.66,1.455,18.619,1.743c0.977,0.095,1.564,0.152,1.76,0.168l1.334,0.111c7.129,0.596,7.266,0.607,10.799,1.221
		l0.248,0.043l0.021-0.25c0.16-2.109,0.231-3.805,0.223-5.332c-0.006-0.889,0.058-1.766,0.119-2.614
		c0.137-1.894,0.244-3.392-0.463-4.097c-0.451-0.452-1.049-0.543-1.867-0.543c-0.531,0-1.217,0.043-2.086,0.096
		c-1.633,0.1-4.103,0.251-7.729,0.251c-1.894,0-3.933-0.042-6.063-0.123c-13.033-0.498-33.9-2.034-34.107-2.05
		c-4.217-0.313-7.975-0.487-11.608-0.655c-10.031-0.464-18.695-0.864-30.476-4.09c-7.84-2.146-10.912-3.595-16.168-6.858
		c-7.348-4.563-7.604-4.701-13.817-7.412c-12.246-5.342-31.161-10.707-42.163-11.961c-0.592-0.066-1.334-0.183-2.194-0.316
		c-3.032-0.473-8.108-1.266-15.425-1.266c-1.042,0-2.113,0.017-3.184,0.049C71.367,92.257,67.7,93.417,59.665,95.96l-1.457,0.461
		c-12.15,3.821-13.933,5.795-26.445,22.604c-6.795,9.128-10.61,13.526-17.748,20.464c-5.273,5.124-7.083,7.555-6.917,9.292
		c0.069,0.732,0.495,1.332,1.336,1.885c0.661,0.432,1.327,0.625,3.538,0.625c1.49,0,3.701-0.084,7.015-0.23
		c4.87-0.217,7.996-0.309,10.453-0.309c3.844,0,6.202,0.227,8.699,0.836c4.134,1.01,5.813,2.193,6.196,4.379
		c0.174,0.99,0.366,5.795,0.43,10.709c0.128,9.914-0.094,11.029-2.953,14.926c-3.252,4.432-3.372,9.48-0.337,14.217
		c1.829,2.855,3.02,6.139,4.396,12.117c0.584,2.51,1.261,4.996,1.913,7.4c1.079,3.973,2.194,8.08,2.893,12.297
		c1.576,9.295,2.528,12.023,5.762,12.049l0.048,0.002c2,0,5.479-0.295,6.297-2.277c0.365-0.885,0.841-9.504,1.595-28.824
		c0.476-12.207,1.233-17.902,2.705-20.316c0.936-1.533,0.98-2.258,0.982-15.498c0.001-9.494,0.207-13.412,0.387-13.93
		c0.061-0.027,0.141-0.039,0.238-0.039c0.96,0,4.134,1.27,14.593,9.77c30.353,24.469,79.646,49.967,95.283,55.135
		c15.283,6.291,23.565,8.441,36.932,9.594c2.152,0.15,4.332,0.229,6.48,0.229c18.602-0.002,35.397-5.762,44.93-15.406
		c6.248-6.322,9.361-14.008,9.256-22.84C276.12,191.645,275.961,188.547,274.384,184.564z M137.128,110.852l0.17,0.065
		c5.263,2,10.707,4.066,15.394,7.219c3.049,2.051,5.125,4.824,5.053,5.707c-8.547,11.521-27.646,16.986-47.874,19.354
		c7.584-5.883,12.471-15.079,12.471-25.42c0.021-3.906-0.674-7.756-2.019-11.371C126.05,107.593,131.7,109.078,137.128,110.852z
		 M34.189,141.931c-5.062-0.227-7.726-1.027-7.795-1.407c0.013-0.134,0.389-1.149,6.581-8.045c4.154-4.626,6.355-7.332,8.724-10.72
		c1.162-1.664,3.642-4.395,5.526-6.088c3.964-3.562,5.601-4.769,10.398-7.103c0.631-0.329,1.307-0.646,2.021-0.946
		c-1.075,3.254-1.634,6.68-1.626,10.154c0,11.283,5.815,21.203,14.606,26.944C59.876,144.455,46.477,143.49,34.189,141.931z"/>
	<path d="M15.947,74.532c0.31,0.091,0.632,0.138,0.96,0.138c1.316,0,2.602-0.732,3.844-1.442c0.752-0.429,1.527-0.871,2.285-1.134
		c2.537-0.881,5.102-1.826,7.58-2.741c5.342-1.97,10.866-4.007,16.445-5.517c10.624-2.873,21.048-5.52,31.783-6.348
		c6.548-0.505,13.127-0.762,19.554-0.762c13.379,0,26.464,1.104,38.892,3.277c6.151,1.076,12.149,3.289,17.95,5.428
		c1.216,0.447,2.429,0.896,3.644,1.332c2.719,0.98,5.428,2.134,8.047,3.248c1.129,0.48,2.258,0.961,3.391,1.431
		c1.387,0.573,2.768,1.163,4.148,1.751c2.086,0.889,4.242,1.809,6.387,2.66c1.889,0.75,3.805,1.535,5.656,2.294
		c5.955,2.44,12.115,4.966,18.406,6.759c7.555,2.152,15.753,3.773,26.59,5.258c9.428,1.291,21.211,2.004,29.096,2.243l0.002,0.003
		c0.996,0.029,2.15,0.045,3.432,0.045c4.591,0,11.363-0.22,11.974-0.576c0.848-0.498,0.063-5.67-0.732-7.207
		c-0.758-1.463-0.996-1.565-3.664-1.565h-0.584c-6.963,0-30.379-0.806-46.082-4.386c-10.192-2.324-20.043-6.453-29.569-10.446
		c-4.463-1.871-9.08-3.806-13.672-5.53c-4.263-1.602-8.519-3.486-12.636-5.313c-7.854-3.479-15.973-7.077-24.489-8.856
		c-15.227-3.181-31.537-4.793-48.481-4.793c-8.63,0-17.531,0.421-26.456,1.251c-9.327,0.867-18.537,3.6-27.1,6.422l-0.654,0.215
		c-8.53,2.812-17.352,5.717-24.889,10.711c-0.422,0.279-0.879,0.553-1.362,0.844c-2.067,1.24-4.41,2.646-4.58,4.949
		C10.857,70.925,13.474,73.798,15.947,74.532z"/>
</g>
</svg>
