<?xml version="1.0" encoding="utf-8"?>
<!-- Generator: Adobe Illustrator 15.1.0, SVG Export Plug-In . SVG Version: 6.00 Build 0)  -->
<!DOCTYPE svg PUBLIC "-//W3C//DTD SVG 1.1//EN" "http://www.w3.org/Graphics/SVG/1.1/DTD/svg11.dtd">
<svg version="1.1" id="svg2947" xmlns:svg="http://www.w3.org/2000/svg"
	 xmlns="http://www.w3.org/2000/svg" xmlns:xlink="http://www.w3.org/1999/xlink" x="0px" y="0px" width="283.465px"
	 height="283.465px" viewBox="146.833 117.023 283.465 283.465" enable-background="new 146.833 117.023 283.465 283.465"
	 xml:space="preserve">
<g>
	<path d="M288.565,163.193c-24.469,0-47.439,5.239-67.258,14.392l8.891,7.941c16.704-6.993,35.683-10.955,55.797-10.955
		c66.685,0,120.937,43.489,120.937,96.943c0,18.216-6.305,35.272-17.25,49.848c0.237,0.772,0.446,1.554,0.625,2.346
		c6.078,26.953-49.967,43.475-75.41,49.548l-15.737-0.468c0,0-0.43-2.865-5.029-3.208c-1.674,0.367-2.604,0.559-2.604,0.559
		l0.064-0.749c-13.881-1.051-33.048-1.699-34.029-2.68c-0.271-0.271-0.198-0.59,0.019-0.962
		c-53.02-10.272-92.522-48.621-92.522-94.233c0-31.837,19.247-60.137,48.901-77.821l-8.851-7.322
		c-31.456,19.851-51.689,50.639-51.689,85.144c0,59.729,60.626,108.321,135.146,108.321c74.52,0,135.146-48.593,135.146-108.321
		S363.085,163.193,288.565,163.193z"/>
	<path fill="none" stroke="#000000" stroke-width="0" stroke-linecap="round" stroke-linejoin="round" d="M286.961,230.958
		c0.015,0.015,0.005,0.004-0.004-0.005"/>
	<path d="M213.959,193.693l12.629,10.448c0.209,1.109,0.419,2.164,0.585,3.112c-3.71,5.989-9.939,16.046-20.405,32.943
		c-20.546,33.171-20.838,40.679-19.698,44.707c0.122,2.206,0.846,2.813,0.846,2.813c0.779,4.675,28.732,20.533,28.732,20.533
		c2.74,15.926,2.528,23.485,7.259,28.857c4.562,6.164,9.036,16.516,29.603,20.878c8.426,3.729,4.978,6.208,4.07,7.763
		c-0.217,0.372-0.29,0.691-0.019,0.962c0.98,0.98,20.147,1.629,34.029,2.68l-0.064,0.749c0,0,0.931-0.191,2.604-0.559
		c4.6,0.343,5.029,3.208,5.029,3.208l15.737,0.468c25.443-6.073,81.488-22.595,75.41-49.548c-0.179-0.792-0.388-1.573-0.625-2.346
		c-7.409-24.122-42.378-38.476-42.378-38.476s-3.116-3.115-1.558-4.674s14.957-7.79,14.957-12.152c0-4.363,6.436-12.532,0-34.589
		c-2.312-7.926-7.323-13.532-13.252-17.5h-0.001c-10.908-7.302-24.92-9.056-30.963-9.476c-1.881-0.131-2.993-0.133-2.993-0.133
		l-3.038,3.539c-2.639,9.549-8.899,15.23-9.114,15.274c-9.691,1.979-11.682,1.906-12.659,2.415
		c-2.766,1.441-3.435,3.654-1.721,5.368c-2.78,0.161-5.633,0.132-6.342-0.577c-0.425-0.426-3.132-2.758-6.77-5.865l-12.563-11.221
		c-0.201-1.737-0.634-3.558-1.311-5.428c-3.973-10.984-17.996-17.996-17.996-17.996c-2.721-1.592-2.664-0.235-6.34,0.516
		l-5.443-4.861l-8.891-7.941l-19.213-17.161l-3.428-22.748c0,0-24.617,14.022-31.784,35.212c-4.207,4.207,23.059,0.935,23.059,0.935
		l15.167,12.548L213.959,193.693z M238.887,226.092l0.001-0.002c2.396,1.294,5.146,2.109,8.234,2.109
		c2.642,0,4.911-0.415,6.818-1.163c1.36,1.039,2.775,2.119,4.216,3.221l0.002,0.002c8.125,6.212,17.04,13.06,21.393,16.507
		c-1.303,2.087-2.67,4.589-2.67,5.894c0,2.089,6.783,12.706,17.046,19.943h-9.255c0,0-40.784-0.716-55.999-0.895
		c-1.44-1.362-1.723-3.457-0.092-6.584C236.06,250.79,238.887,226.092,238.887,226.092z"/>
</g>
</svg>
