<?xml version="1.0" encoding="utf-8"?>
<!-- Generator: Adobe Illustrator 15.1.0, SVG Export Plug-In . SVG Version: 6.00 Build 0)  -->
<!DOCTYPE svg PUBLIC "-//W3C//DTD SVG 1.1//EN" "http://www.w3.org/Graphics/SVG/1.1/DTD/svg11.dtd">
<svg version="1.1"
	 id="svg1923" inkscape:version="0.44.1" sodipodi:docname="Flaming Chalice.svg" xmlns:dc="http://purl.org/dc/elements/1.1/" xmlns:cc="http://web.resource.org/cc/" xmlns:rdf="http://www.w3.org/1999/02/22-rdf-syntax-ns#" xmlns:svg="http://www.w3.org/2000/svg" xmlns:sodipodi="http://sodipodi.sourceforge.net/DTD/sodipodi-0.dtd" xmlns:inkscape="http://www.inkscape.org/namespaces/inkscape" sodipodi:docbase="E:\Bryan\Temp" sodipodi:version="0.32"
	 xmlns="http://www.w3.org/2000/svg" xmlns:xlink="http://www.w3.org/1999/xlink" x="0px" y="0px" width="283.465px"
	 height="283.465px" viewBox="0 0 283.465 283.465" enable-background="new 0 0 283.465 283.465" xml:space="preserve">
<sodipodi:namedview  id="base" inkscape:window-y="-4" inkscape:window-x="-4" inkscape:window-height="721" inkscape:window-width="1024" inkscape:current-layer="svg1923" inkscape:pageshadow="2" inkscape:pageopacity="0.0" inkscape:cy="230.88104" inkscape:cx="249.32183" inkscape:zoom="1.1714922" borderopacity="1.0" bordercolor="#666666" pagecolor="#ffffff" gridtolerance="10.0" guidetolerance="10.0" objecttolerance="10.0">
	</sodipodi:namedview>
<g>
	<path fill="none" d="M141.731,27.526C84.57,34.136,40.044,82.827,40.044,141.731S84.57,249.327,141.731,255.937
		c5.499-0.637,10.881-1.658,16.118-3.045c-9.816,0.008-17.367-0.016-18.408-0.092c2.739-5.873,23.054-4.51,33.843-5.197
		c0.163-0.068,0.325-0.145,0.488-0.215l2.518-84.715c-0.123-0.219-2.899-0.399-6.172-0.4c-25.733-0.008-52.6-5.279-74.522-14.624
		c-3.216-1.37-6.744-3.108-6.744-3.108s1.053-0.33,4.915-1.143c10.13-2.133,15.636-3.001,32.391-3.029
		c15.637-0.027,23.553,0.768,42.32,2.543c26.018,2.461,53.313,3.133,68.783,1.691c1.185-0.109,4.008-0.609,6.133-0.695
		c0.014-0.725,0.027-1.449,0.027-2.177C243.419,82.827,198.893,34.136,141.731,27.526z M185.035,121.603
		c-2.814,10.253-6.911,20.854-6.911,20.854s-0.591-0.201-1.477-2.244c-5.672-13.078-8.107-22.951-8.13-32.955
		c-0.017-6.484,0.685-10.853,3.433-21.432c4.27-16.428,4.538-22.011,1.777-36.775l-0.618-2.131l1.718,2.663
		c2.805,4.635,7.754,15.376,9.844,21.63C189.859,86.737,190.265,102.558,185.035,121.603z"/>
	<path fill="none" d="M243.31,146.589c-1.529,0.732-3.424,1.494-4.904,2.146c-7.482,3.293-17.593,6.686-25.863,8.678
		c-8.76,2.108-23.719,4.328-29.187,4.33l-3.933,0.543l1.51,81.727C216.65,225.604,241.538,189.034,243.31,146.589z"/>
	<path fill="none" d="M178.031,97.511c-0.676-1.289-0.709-1.252-1.43,1.556c-0.962,3.749-0.99,21.61-0.043,26.796
		c1.245,6.816,1.705,7.041,2.717,1.329c1.169-6.606,1.312-15.75,0.345-22.287C179.128,101.563,178.411,98.236,178.031,97.511z"/>
	<path fill="none" d="M170.341,255.687c4.892-0.654,9.686-1.619,14.363-2.871c-2.389,0.012-4.842,0.021-7.312,0.029
		C175.074,253.868,172.721,254.812,170.341,255.687z"/>
	<path fill="none" d="M33.665,141.731c0-32.416,12.623-62.891,35.543-85.812c12.65-12.65,27.605-22.157,43.914-28.144
		c-56.182,7.515-99.657,55.75-99.657,113.955s43.476,106.439,99.657,113.955c-16.309-5.986-31.263-15.492-43.914-28.143
		C46.288,204.622,33.665,174.146,33.665,141.731z"/>
	<path fill="none" d="M170.339,27.777c16.311,5.986,31.265,15.492,43.914,28.144c22.922,22.92,35.545,53.396,35.545,85.812
		c0,32.415-12.622,62.892-35.545,85.813c-8.129,8.129-17.213,14.955-26.992,20.391c3.133,0.176,6.586,0.422,9.861,0.793
		c42.633-16.836,72.875-58.45,72.875-106.996C269.999,83.526,226.522,35.291,170.339,27.777z"/>
	<path d="M174.827,49.583l-1.718-2.663l0.618,2.131c2.761,14.766,2.491,20.348-1.777,36.774c-2.748,10.58-3.447,14.947-3.433,21.432
		c0.022,10.004,2.458,19.877,8.13,32.957c0.886,2.041,1.477,2.244,1.477,2.244s4.097-10.602,6.911-20.854
		c5.229-19.045,4.824-34.866-0.364-50.392C182.581,64.96,177.63,54.218,174.827,49.583z M179.275,127.191
		c-1.012,5.712-1.472,5.487-2.717-1.329c-0.947-5.188-0.919-23.048,0.043-26.796c0.721-2.81,0.754-2.845,1.43-1.556
		c0.38,0.727,1.097,4.054,1.589,7.395C180.587,111.442,180.444,120.585,179.275,127.191z"/>
	<path d="M276.378,141.731c0-32.416-12.623-62.891-35.545-85.812s-53.396-35.544-85.813-35.544c-4.473,0-8.905,0.249-13.289,0.724
		c-4.383-0.475-8.816-0.724-13.289-0.724C96.026,20.376,65.552,33,42.63,55.92C19.71,78.841,7.087,109.315,7.087,141.731
		c0,32.415,12.623,62.891,35.543,85.813c22.922,22.922,53.396,35.545,85.813,35.545c4.473,0,8.906-0.25,13.289-0.725
		c4.384,0.475,8.816,0.725,13.289,0.725c17.265,0,33.979-3.582,49.293-10.393c3.422-0.031,5.66-0.063,6.104-0.092
		c-0.393-0.625-1.232-1.168-2.392-1.645c12.008-5.838,23.089-13.697,32.808-23.416C263.753,204.622,276.378,174.146,276.378,141.731
		z M180.933,244.011l-1.51-81.727l3.933-0.541c5.468-0.002,20.427-2.223,29.187-4.332c8.271-1.992,18.381-5.384,25.863-8.677
		c1.48-0.651,3.375-1.413,4.904-2.146C241.538,189.034,216.65,225.604,180.933,244.011z M243.393,143.907
		c-2.125,0.086-4.948,0.586-6.133,0.696c-15.472,1.44-42.767,0.771-68.783-1.69c-18.767-1.777-26.683-2.572-42.32-2.545
		c-16.754,0.028-22.26,0.898-32.391,3.03c-3.862,0.813-4.915,1.142-4.915,1.142s3.527,1.739,6.744,3.109
		c21.923,9.346,48.789,14.615,74.522,14.624c3.271,0.001,6.05,0.183,6.171,0.401l-2.517,84.715c-0.163,0.07-0.325,0.145-0.488,0.213
		c-10.788,0.689-31.104-0.676-33.843,5.197c1.042,0.076,8.592,0.1,18.408,0.092c-5.237,1.389-10.619,2.41-16.118,3.045
		c-57.161-6.607-101.688-55.301-101.688-114.204S84.57,34.136,141.731,27.526c57.161,6.609,101.688,55.301,101.688,114.205
		C243.419,142.46,243.406,143.184,243.393,143.907z M13.465,141.731c0-58.205,43.476-106.44,99.657-113.955
		C96.813,33.763,81.858,43.269,69.208,55.92c-22.92,22.921-35.543,53.396-35.543,85.812c0,32.415,12.623,62.891,35.543,85.813
		c12.65,12.65,27.604,22.156,43.914,28.143C56.94,248.173,13.465,199.937,13.465,141.731z M170.341,255.687
		c2.38-0.875,4.732-1.818,7.053-2.842c2.47-0.008,4.923-0.018,7.313-0.029C180.026,254.069,175.232,255.032,170.341,255.687z
		 M197.122,248.728c-3.274-0.371-6.729-0.619-9.86-0.793c9.78-5.436,18.864-12.262,26.993-20.391
		c22.922-22.922,35.545-53.397,35.545-85.813s-12.623-62.892-35.545-85.812c-12.65-12.65-27.604-22.157-43.914-28.144
		c56.183,7.515,99.658,55.75,99.658,113.955C269.999,190.277,239.755,231.892,197.122,248.728z"/>
</g>
</svg>
