<?xml version="1.0" encoding="utf-8"?>
<!-- Generator: Adobe Illustrator 15.1.0, SVG Export Plug-In . SVG Version: 6.00 Build 0)  -->
<!DOCTYPE svg PUBLIC "-//W3C//DTD SVG 1.1//EN" "http://www.w3.org/Graphics/SVG/1.1/DTD/svg11.dtd">
<svg version="1.1"
	 id="Layer_2" inkscape:version="0.92.3 (2405546, 2018-03-11)" sodipodi:docname="religion-judaism.svg" xmlns:dc="http://purl.org/dc/elements/1.1/" xmlns:cc="http://creativecommons.org/ns#" xmlns:rdf="http://www.w3.org/1999/02/22-rdf-syntax-ns#" xmlns:svg="http://www.w3.org/2000/svg" xmlns:sodipodi="http://sodipodi.sourceforge.net/DTD/sodipodi-0.dtd" xmlns:inkscape="http://www.inkscape.org/namespaces/inkscape"
	 xmlns="http://www.w3.org/2000/svg" xmlns:xlink="http://www.w3.org/1999/xlink" x="0px" y="0px" width="283.465px"
	 height="283.465px" viewBox="0 0 283.465 283.465" enable-background="new 0 0 283.465 283.465" xml:space="preserve">
<sodipodi:namedview  id="namedview8307" inkscape:window-y="-8" inkscape:window-x="-8" inkscape:window-height="1017" inkscape:window-width="1920" inkscape:current-layer="layer7" inkscape:pageshadow="2" inkscape:pageopacity="0" inkscape:cy="141.7325" inkscape:cx="141.7325" inkscape:zoom="0.83255429" borderopacity="1" bordercolor="#ffffff" showgrid="false" pagecolor="#505050" inkscape:window-maximized="1" gridtolerance="10" guidetolerance="10" objecttolerance="10">
	</sodipodi:namedview>
<path id="path4041" inkscape:connector-curvature="0" d="M219.471,141.732l42.355-73.36h-84.713L141.731,7.087l-35.383,61.286
	h-84.71l42.356,73.36l-42.356,73.361h84.71l35.383,61.284l35.382-61.284h84.713L219.471,141.732z M227.584,88.142l-19.527,33.821
	l-19.524-33.821H227.584L227.584,88.142L227.584,88.142z M196.643,141.732l-30.94,53.592h-47.939l-30.938-53.592l30.94-53.59h47.939
	L196.643,141.732z M141.731,46.626l12.556,21.746h-25.11L141.731,46.626z M55.879,88.142h39.055l-19.525,33.821L55.879,88.142z
	 M55.879,195.324l19.528-33.821l19.525,33.821H55.879z M141.731,236.839l-12.555-21.745h25.11L141.731,236.839z M208.057,161.503
	l19.527,33.821h-39.053L208.057,161.503z"/>
<g id="layer7" inkscape:label="Layer 1" inkscape:groupmode="layer">
</g>
</svg>
