<?xml version="1.0" encoding="utf-8"?>
<!-- Generator: Adobe Illustrator 15.1.0, SVG Export Plug-In . SVG Version: 6.00 Build 0)  -->
<!DOCTYPE svg PUBLIC "-//W3C//DTD SVG 1.1//EN" "http://www.w3.org/Graphics/SVG/1.1/DTD/svg11.dtd">
<svg version="1.1"
	 id="Layer_2" inkscape:version="0.92.3 (2405546, 2018-03-11)" sodipodi:docname="religion-islam.svg" xmlns:dc="http://purl.org/dc/elements/1.1/" xmlns:cc="http://creativecommons.org/ns#" xmlns:rdf="http://www.w3.org/1999/02/22-rdf-syntax-ns#" xmlns:svg="http://www.w3.org/2000/svg" xmlns:sodipodi="http://sodipodi.sourceforge.net/DTD/sodipodi-0.dtd" xmlns:inkscape="http://www.inkscape.org/namespaces/inkscape"
	 xmlns="http://www.w3.org/2000/svg" xmlns:xlink="http://www.w3.org/1999/xlink" x="0px" y="0px" width="283.465px"
	 height="283.465px" viewBox="0 0 283.465 283.465" enable-background="new 0 0 283.465 283.465" xml:space="preserve">
<sodipodi:namedview  id="namedview7187" inkscape:window-y="-8" inkscape:window-x="-8" inkscape:window-height="1017" inkscape:window-width="1920" inkscape:current-layer="layer5" inkscape:pageshadow="2" inkscape:pageopacity="0" inkscape:cy="141.7325" inkscape:cx="141.7325" inkscape:zoom="0.83255429" borderopacity="1" bordercolor="#ffffff" showgrid="false" pagecolor="#505050" inkscape:window-maximized="1" gridtolerance="10" guidetolerance="10" objecttolerance="10">
	</sodipodi:namedview>
<g id="g5556" transform="matrix(1.316791,0,0,1.316791,-377.70393,-32.918777)">
	<path id="path4027" inkscape:connector-curvature="0" d="M492.395,132.681l-32.901,11.437l-0.709,34.824l-21.046-27.756
		L404.4,161.273l19.895-28.593L404.4,104.09l33.339,10.088l21.046-27.758l0.709,34.825L492.395,132.681z"/>
	<path id="path4045" inkscape:connector-curvature="0" d="M396.822,30.386c-55.532,1.058-100.275,46.452-100.275,102.236
		c0,56.445,45.82,102.264,102.265,102.264c26.391,0,50.453-10.025,68.599-26.457c-12.792,7.352-27.634,11.554-43.441,11.554
		c-48.2,0-87.302-39.104-87.302-87.302c0-48.199,39.103-87.303,87.302-87.303c15.932,0,30.878,4.273,43.741,11.735
		c-18.179-16.596-42.364-26.728-68.9-26.728C398.153,30.386,397.482,30.375,396.822,30.386z"/>
</g>
<g id="layer5" inkscape:label="Layer 1" inkscape:groupmode="layer">
</g>
</svg>
