<?xml version="1.0" encoding="utf-8"?>
<!-- Generator: Adobe Illustrator 15.1.0, SVG Export Plug-In . SVG Version: 6.00 Build 0)  -->
<!DOCTYPE svg PUBLIC "-//W3C//DTD SVG 1.1//EN" "http://www.w3.org/Graphics/SVG/1.1/DTD/svg11.dtd">
<svg version="1.1"
	 id="svg4546" inkscape:version="0.92.3 (2405546, 2018-03-11)" sodipodi:docname="religion-wicca.svg" xmlns:dc="http://purl.org/dc/elements/1.1/" xmlns:cc="http://creativecommons.org/ns#" xmlns:rdf="http://www.w3.org/1999/02/22-rdf-syntax-ns#" xmlns:svg="http://www.w3.org/2000/svg" xmlns:sodipodi="http://sodipodi.sourceforge.net/DTD/sodipodi-0.dtd" xmlns:inkscape="http://www.inkscape.org/namespaces/inkscape"
	 xmlns="http://www.w3.org/2000/svg" xmlns:xlink="http://www.w3.org/1999/xlink" x="0px" y="0px" width="283.465px"
	 height="283.465px" viewBox="0 0 283.465 283.465" enable-background="new 0 0 283.465 283.465" xml:space="preserve">
<sodipodi:namedview  id="namedview4548" inkscape:window-y="-8" inkscape:window-x="-8" inkscape:window-height="1017" inkscape:window-width="1920" inkscape:current-layer="layer1" inkscape:pageshadow="2" inkscape:pageopacity="0" inkscape:cy="141.7325" inkscape:cx="141.7325" inkscape:zoom="2.991551" borderopacity="1" bordercolor="#ffffff" showgrid="false" pagecolor="#505050" inkscape:window-maximized="1" gridtolerance="10" guidetolerance="10" objecttolerance="10">
	</sodipodi:namedview>
<g id="Layer_2">
</g>
<g id="layer1" inkscape:label="Layer 1" inkscape:groupmode="layer">
	<g id="Layer_3">
		<g id="layer1-2" transform="matrix(2.6916855,0,0,2.6916855,-364.27189,-766.28563)">
			<g id="g4540">
				<path id="path4538" inkscape:connector-curvature="0" d="M187.964,387.365c-10.604,0-20.757-3.304-29.362-9.556
					c-10.809-7.853-17.913-19.446-20.003-32.642c-2.09-13.197,1.084-26.417,8.937-37.226c9.382-12.913,24.524-20.622,40.506-20.622
					c10.604,0,20.757,3.304,29.361,9.556c22.313,16.212,27.277,47.554,11.066,69.868
					C219.088,379.656,203.946,387.365,187.964,387.365z M188.042,292.263c-14.404,0-28.051,6.947-36.506,18.584
					c-7.077,9.74-9.937,21.654-8.054,33.546c1.883,11.892,8.285,22.338,18.026,29.415c7.755,5.634,16.903,8.612,26.456,8.612
					c14.404,0,28.051-6.947,36.506-18.584c14.609-20.108,10.135-48.352-9.972-62.962
					C206.743,295.241,197.595,292.263,188.042,292.263z"/>
			</g>
			<path id="path4542" inkscape:connector-curvature="0" d="M215.492,375.239l-27.489-19.972l-27.489,19.972l10.5-32.315
				l-27.489-19.972h33.978l10.5-32.315l10.5,32.315h33.978l-27.489,19.972L215.492,375.239z M175.22,345.98l-5.301,16.315
				l13.879-10.083L175.22,345.98z M192.209,352.212l13.879,10.083l-5.302-16.315L192.209,352.212z M176.826,341.036l11.177,8.12
				l11.177-8.12l-4.269-13.139h-13.815L176.826,341.036z M172.621,337.98l3.276-10.084h-17.155L172.621,337.98z M200.109,327.896
				l3.277,10.084l13.878-10.084H200.109z M182.702,322.952h10.602l-5.301-16.315L182.702,322.952z"/>
		</g>
	</g>
</g>
</svg>
