<?xml version="1.0" encoding="utf-8"?>
<!-- Generator: Adobe Illustrator 15.1.0, SVG Export Plug-In . SVG Version: 6.00 Build 0)  -->
<!DOCTYPE svg PUBLIC "-//W3C//DTD SVG 1.1//EN" "http://www.w3.org/Graphics/SVG/1.1/DTD/svg11.dtd">
<svg version="1.1" id="Layer_1" xmlns="http://www.w3.org/2000/svg" xmlns:xlink="http://www.w3.org/1999/xlink" x="0px" y="0px"
	 width="283.465px" height="283.465px" viewBox="0 0 283.465 283.465" enable-background="new 0 0 283.465 283.465"
	 xml:space="preserve">
<g>
	<polygon fill="none" points="141.732,51.586 122.301,111.454 161.164,111.454 	"/>
	<polygon fill="none" points="240.474,123.124 177.219,123.124 189.293,160.323 	"/>
	<polygon fill="none" points="80.863,239.128 131.809,202.102 100.312,179.21 	"/>
	<polygon fill="none" points="106.245,123.124 42.991,123.124 94.172,160.323 	"/>
	<polygon fill="none" points="164.95,123.124 118.515,123.124 104.1,167.536 141.732,194.888 179.365,167.536 	"/>
	<polygon fill="none" points="151.656,202.102 202.602,239.128 183.154,179.21 	"/>
	<path d="M276.379,111.454H173.432l-31.699-97.668l-31.699,97.668H7.086l83.297,60.541L58.68,269.679l83.053-60.364l83.053,60.362
		l-31.703-97.684L276.379,111.454z M240.474,123.124l-51.181,37.199l-12.074-37.199H240.474z M141.732,51.586l19.432,59.868h-38.862
		L141.732,51.586z M42.991,123.124h63.254l-12.073,37.199L42.991,123.124z M80.863,239.128l19.448-59.918l31.497,22.892
		L80.863,239.128z M104.1,167.536l14.415-44.412h46.436l14.415,44.412l-37.633,27.352L104.1,167.536z M202.602,239.128
		l-50.945-37.026l31.498-22.892L202.602,239.128z"/>
</g>
</svg>
