<?xml version="1.0" encoding="utf-8"?>
<!-- Generator: Adobe Illustrator 15.1.0, SVG Export Plug-In . SVG Version: 6.00 Build 0)  -->
<!DOCTYPE svg PUBLIC "-//W3C//DTD SVG 1.1//EN" "http://www.w3.org/Graphics/SVG/1.1/DTD/svg11.dtd">
<svg version="1.1" id="Layer_1" xmlns="http://www.w3.org/2000/svg" xmlns:xlink="http://www.w3.org/1999/xlink" x="0px" y="0px"
	 width="283.465px" height="283.465px" viewBox="0 0 283.465 283.465" enable-background="new 0 0 283.465 283.465"
	 xml:space="preserve">
<title>Modern Neo-Pagan Spiral Goddess symbol</title>
<g>
	<path d="M132.176,106.851c0.656,0,0.733-0.615,0.733-1.078c0-0.701-0.229-1.352-0.708-1.352c-0.341,0-0.728,0.301-0.728,1.035
		C131.475,105.661,131.54,106.851,132.176,106.851z"/>
	<path d="M215.498,10.72c-2.768-2.539-6.73-3.633-10.857-3.633c-4.658,0-9.563,1.387-13.088,3.457
		c-2.828,1.682-6.016,4.238-6.396,7.781c0.85,0.352,1.844,0.816,3.324,0.816c0.373,0,0.775-0.029,1.217-0.098
		c2.873-0.559,6.221-2.291,11.199-2.291c4.742,0,9.027,2.004,9.027,6.889c0,4.842-3.73,10.846-5.85,13.914
		c-2.961,4.389-6.539,8.486-10.48,12.295c-2.928,3.377-27.24,23.412-35.129,23.412c-8.449,0-9.461-10.166-9.461-16.156
		c0-8.803,4.916-10.342,4.916-15.23c0-8.9-6.713-13.424-12.188-13.424c-5.476,0-12.188,4.523-12.188,13.424
		c0,4.891,4.916,6.43,4.916,15.23c0,3.125-0.356,16.156-9.461,16.156c-7.692,0-31.443-19.35-35.127-23.412
		c-3.941-3.809-7.521-7.906-10.481-12.295c-2.118-3.068-5.849-9.07-5.849-13.914c0-4.885,4.285-6.889,9.026-6.889
		c4.979,0,8.328,1.73,11.2,2.291c0.439,0.068,0.844,0.098,1.217,0.098c1.48,0,2.475-0.465,3.322-0.816
		c-0.379-3.541-3.565-6.1-6.395-7.781c-3.525-2.07-8.43-3.457-13.089-3.457c-4.126,0-8.09,1.094-10.857,3.633
		c-2.71,2.418-3.929,8.68-3.929,14.244c0,7.453,3.028,14.701,5.697,20.023c5.948,12.125,14.085,22.934,23.6,32.48
		c6.264,6.346,13.507,11.789,19.268,18.51c3.816,4.445,6.958,9.641,9.2,15.346c2.319,5.959,3.969,12.449,3.969,17.008
		c0,14.313-16.846,20.793-18.218,34.482c-0.245,2.354-0.348,4.879-0.348,7.479c0,4.803,0.348,9.859,0.779,14.555
		c0.366,3.676,0.768,7.094,1.051,9.875c2.097,19.639,6.885,39.219,10.387,58.49c2.215,12.188,14.67,23.166,22.311,23.166
		c7.64,0,20.138-10.973,22.31-23.166c3.436-19.283,8.289-38.852,10.387-58.49c0.283-2.783,0.686-6.199,1.053-9.875
		c0.432-4.695,0.777-9.752,0.777-14.553c0-2.6-0.102-5.127-0.348-7.48c-1.373-13.689-18.217-20.17-18.217-34.482
		c0-4.559,1.648-11.049,3.967-17.008c2.242-5.705,5.385-10.9,9.201-15.346c5.76-6.721,13.004-12.164,19.266-18.51
		c9.518-9.547,17.652-20.355,23.602-32.48c2.67-5.322,5.697-12.57,5.697-20.023C219.426,19.399,218.209,13.138,215.498,10.72z
		 M125.508,102.96c0-4.57,2.772-7.66,6.062-7.66c3.495,0,6.349,3.447,6.349,8.109c0,4.686-2.774,7.443-6.057,7.443
		C127.989,110.853,125.508,107.335,125.508,102.96z M142.559,267.294c0,0.457-0.37,0.826-0.826,0.826s-0.826-0.369-0.826-0.826
		v-51.471c0-0.455,0.37-0.826,0.826-0.826s0.826,0.371,0.826,0.826V267.294z M162.602,156.144c1.426,1.607,2.818,3.67,3.775,5.594
		c0.943,1.893,1.74,4.209,2.158,6.281c0.412,2.037,0.578,4.441,0.445,6.518c-0.129,2.043-0.586,4.367-1.242,6.305
		c-0.646,1.906-1.674,3.998-2.791,5.67c-1.1,1.645-2.609,3.365-4.098,4.666c-1.463,1.279-3.336,2.529-5.08,3.383
		c-1.715,0.842-3.811,1.547-5.684,1.912c-1.84,0.357-4.008,0.492-5.877,0.359c-1.836-0.129-3.925-0.555-5.664-1.158
		c-1.707-0.592-3.578-1.527-5.071-2.543c-1.466-0.996-2.999-2.361-4.154-3.703c-1.134-1.316-2.237-3.002-2.989-4.566
		c-0.736-1.537-1.352-3.412-1.664-5.088c-0.305-1.641-0.408-3.57-0.275-5.234c0.129-1.629,0.523-3.482,1.074-5.023
		c0.537-1.506,1.384-3.158,2.295-4.473c0.894-1.287,2.113-2.631,3.311-3.641c1.171-0.988,2.666-1.947,4.055-2.596
		c1.356-0.635,3.012-1.158,4.487-1.418c1.442-0.252,3.137-0.322,4.594-0.189c1.424,0.129,3.041,0.492,4.381,0.988
		c1.311,0.484,2.74,1.238,3.877,2.049c1.109,0.791,2.264,1.863,3.129,2.918c0.842,1.023,1.654,2.33,2.201,3.541
		c0.531,1.178,0.963,2.611,1.168,3.891c0.199,1.242,0.24,2.701,0.107,3.953c-0.129,1.219-0.461,2.598-0.906,3.74
		c-0.43,1.109-1.094,2.32-1.801,3.277c-0.688,0.932-1.615,1.896-2.521,2.615c-0.881,0.697-1.996,1.365-3.027,1.809
		c-1,0.43-2.215,0.77-3.293,0.922c-1.045,0.145-2.268,0.154-3.314,0.021c-1.012-0.129-2.156-0.43-3.098-0.82
		c-0.912-0.377-1.901-0.949-2.681-1.555c-0.754-0.582-1.53-1.367-2.104-2.129c-0.552-0.734-1.074-1.66-1.414-2.516
		c-0.326-0.82-0.576-1.816-0.674-2.695c-0.093-0.844-0.072-1.83,0.063-2.672c0.127-0.805,0.397-1.713,0.735-2.457
		c0.324-0.713,0.806-1.482,1.306-2.084c0.48-0.574,1.121-1.162,1.735-1.588c0.588-0.408,1.327-0.785,2.002-1.021
		c0.645-0.225,1.418-0.385,2.099-0.428c0.646-0.041,1.396,0.012,2.031,0.146c0.602,0.129,1.271,0.367,1.816,0.652
		c0.514,0.27,1.063,0.66,1.484,1.061c0.398,0.375,0.799,0.869,1.076,1.34c0.264,0.441,0.496,0.992,0.627,1.49
		c0.123,0.465,0.189,1.02,0.18,1.5c-0.012,0.447-0.096,0.963-0.23,1.389c-0.125,0.396-0.334,0.832-0.566,1.176
		c-0.217,0.318-0.516,0.648-0.813,0.889c-0.271,0.223-0.623,0.434-0.947,0.564c-0.297,0.119-0.658,0.207-0.977,0.232
		c-0.287,0.021-0.623,0-0.904-0.068c-0.25-0.063-0.529-0.176-0.746-0.314c-0.195-0.123-0.395-0.303-0.535-0.482
		c-0.123-0.16-0.234-0.369-0.291-0.564c-0.051-0.17-0.07-0.377-0.051-0.555c0.02-0.154,0.078-0.33,0.162-0.463
		c0.074-0.117,0.193-0.236,0.314-0.307c0.113-0.064,0.268-0.105,0.398-0.105s0.285-0.041,0.398-0.107
		c0.123-0.068,0.24-0.188,0.316-0.305c0.082-0.133,0.143-0.309,0.16-0.463c0.021-0.176,0-0.385-0.051-0.555
		c-0.057-0.193-0.168-0.404-0.291-0.564c-0.141-0.182-0.34-0.359-0.533-0.482c-0.219-0.139-0.498-0.254-0.748-0.314
		c-0.281-0.068-0.617-0.092-0.902-0.068c-0.32,0.025-0.681,0.113-0.978,0.232c-0.326,0.133-0.676,0.342-0.947,0.563
		c-0.297,0.242-0.597,0.572-0.812,0.891c-0.233,0.344-0.44,0.779-0.567,1.176c-0.136,0.428-0.219,0.939-0.229,1.389
		c-0.011,0.48,0.057,1.037,0.179,1.502c0.131,0.496,0.364,1.047,0.627,1.488c0.28,0.471,0.678,0.965,1.076,1.342
		c0.422,0.4,0.973,0.789,1.488,1.061c0.543,0.283,1.215,0.523,1.814,0.65c0.633,0.135,1.385,0.188,2.031,0.146
		c0.68-0.043,1.453-0.203,2.098-0.426c0.676-0.236,1.414-0.613,2.002-1.021c0.615-0.426,1.256-1.014,1.734-1.59
		c0.502-0.602,0.984-1.371,1.307-2.084c0.338-0.742,0.609-1.65,0.736-2.457c0.135-0.84,0.156-1.826,0.063-2.672
		c-0.098-0.879-0.348-1.873-0.674-2.695c-0.34-0.854-0.861-1.781-1.414-2.516c-0.572-0.762-1.35-1.545-2.102-2.129
		c-0.781-0.604-1.771-1.178-2.682-1.555c-0.943-0.391-2.088-0.691-3.1-0.82c-1.047-0.133-2.269-0.123-3.313,0.023
		c-1.078,0.15-2.293,0.492-3.293,0.92c-1.032,0.443-2.148,1.111-3.028,1.809c-0.907,0.719-1.836,1.686-2.523,2.615
		c-0.707,0.959-1.369,2.168-1.801,3.279c-0.442,1.143-0.775,2.521-0.904,3.738c-0.133,1.252-0.092,2.711,0.107,3.955
		c0.205,1.275,0.637,2.711,1.168,3.891c0.545,1.209,1.359,2.516,2.201,3.541c0.864,1.053,2.02,2.127,3.128,2.916
		c1.138,0.811,2.568,1.564,3.876,2.049c1.34,0.496,2.958,0.861,4.38,0.99c1.457,0.133,3.152,0.061,4.596-0.193
		c1.477-0.258,3.131-0.781,4.488-1.416c1.387-0.646,2.883-1.605,4.053-2.594c1.197-1.01,2.418-2.354,3.313-3.643
		c0.912-1.314,1.758-2.965,2.295-4.475c0.551-1.539,0.945-3.393,1.074-5.021c0.133-1.662,0.027-3.594-0.275-5.234
		c-0.313-1.676-0.928-3.551-1.664-5.086c-0.752-1.566-1.855-3.25-2.988-4.566c-1.156-1.344-2.689-2.709-4.154-3.705
		c-1.494-1.016-3.365-1.951-5.07-2.543c-1.738-0.604-3.828-1.027-5.664-1.158c-1.869-0.133-4.037,0.002-5.876,0.359
		c-1.874,0.365-3.969,1.072-5.683,1.912c-1.745,0.854-3.618,2.104-5.081,3.383c-1.488,1.301-2.999,3.023-4.098,4.668
		c-1.117,1.672-2.146,3.764-2.791,5.668c-0.656,1.938-1.113,4.264-1.243,6.305c-0.132,2.076,0.034,4.479,0.444,6.518
		c0.418,2.072,1.217,4.391,2.158,6.281c0.958,1.924,2.352,3.984,3.776,5.594c1.446,1.635,3.358,3.289,5.181,4.49
		c1.85,1.223,4.162,2.342,6.266,3.039c2.137,0.709,4.699,1.197,6.947,1.328c4.561,0.264,5.395,5.217,0,4.953
		c-2.66-0.129-5.695-0.68-8.229-1.496c-2.501-0.805-5.255-2.107-7.461-3.533c-2.179-1.408-4.468-3.354-6.207-5.277
		c-1.716-1.898-3.399-4.342-4.563-6.619c-1.148-2.25-2.128-5.006-2.652-7.477c-0.519-2.436-0.746-5.313-0.614-7.801
		c0.13-2.453,0.649-5.252,1.411-7.588c0.752-2.301,1.963-4.834,3.287-6.863c1.305-2,3.105-4.1,4.885-5.691
		c1.754-1.57,4.005-3.109,6.107-4.17c2.069-1.047,4.606-1.936,6.877-2.406c2.237-0.465,4.877-0.662,7.16-0.529
		c2.246,0.131,4.809,0.617,6.945,1.326c2.104,0.699,4.416,1.818,6.266,3.039C159.244,152.854,161.156,154.511,162.602,156.144z
		 M151.605,110.853c-3.283,0-6.059-2.758-6.059-7.443c0-4.662,2.854-8.109,6.35-8.109c3.289,0,6.061,3.09,6.061,7.66
		C157.957,107.335,155.479,110.853,151.605,110.853z"/>
	<path d="M151.264,104.421c-0.48,0-0.709,0.65-0.709,1.352c0,0.375,0.023,1.078,0.734,1.078c0.607,0,0.701-1.063,0.701-1.395
		C151.99,104.722,151.604,104.421,151.264,104.421z"/>
</g>
</svg>
