<?xml version="1.0" encoding="utf-8"?>
<!-- Generator: Adobe Illustrator 15.1.0, SVG Export Plug-In . SVG Version: 6.00 Build 0)  -->
<!DOCTYPE svg PUBLIC "-//W3C//DTD SVG 1.1//EN" "http://www.w3.org/Graphics/SVG/1.1/DTD/svg11.dtd">
<svg version="1.1" id="Layer_2" xmlns="http://www.w3.org/2000/svg" xmlns:xlink="http://www.w3.org/1999/xlink" x="0px" y="0px"
	 width="283.465px" height="283.465px" viewBox="0 0 283.465 283.465" enable-background="new 0 0 283.465 283.465"
	 xml:space="preserve">
<g transform="translate(491.49 120.51)">
	<path d="M-306.608,70.01L-306.608,70.01L-306.608,70.01z"/>
	<path d="M-366.491-82.719c10.213,13.929,17.64,20.891,22.281,21.354c1.394,0,2.784-0.464,3.714-1.394
		c2.785-2.319,3.249-6.962,0-12.998c-1.857-3.249-5.106-6.034-9.284-7.891c-6.962-3.715-12.067-6.035-15.317-6.5
		c-0.93,0-1.394,0-2.321,0.929C-368.812-88.287-368.346-85.968-366.491-82.719L-366.491-82.719z"/>
	<path d="M-319.14-60.435c9.283-6.035,18.104-12.535,25.994-19.497c6.5-5.57,11.605-8.819,14.393-10.677
		c2.32-1.393,3.248-2.785,3.248-4.642c0-3.714-4.178-6.965-12.533-10.678c-4.178-1.856-7.893-2.785-10.213-2.319
		c-2.32,0.463-2.785,1.855-1.856,4.178l0,0c0.464,2.785,0,6.035-1.856,10.213c-2.321,4.642-8.82,14.391-19.961,29.71
		c-0.465,0.928-0.465,1.392-0.465,1.856C-322.39-59.971-321.463-59.507-319.14-60.435z"/>
	<path d="M-450.514-71.113c0.465,1.856,1.856,4.178,4.643,6.5c7.893,6.963,14.391,13.462,19.497,19.033
		c2.786,2.786,5.57,3.713,9.285,3.713c1.855,0,3.714-1.393,5.104-4.178c0.93-2.785,0.464-7.428-0.929-13.927
		c0-0.464-0.463-0.929-0.463-1.393c-2.322-4.643-9.285-8.82-19.962-12.533c-8.356-2.786-13.463-3.715-15.783-2.786
		C-450.514-75.289-450.514-73.433-450.514-71.113L-450.514-71.113z"/>
	<path d="M-215.157,122.003c-0.463-0.928-2.32-1.393-5.57-1.393c-64.991,3.249-120.696-3.715-167.117-19.961
		c-19.961-7.893-32.96-11.143-39.458-10.213c3.249-1.857,5.568-4.178,6.963-6.965c4.642-8.819,1.393-19.496-9.749-32.959
		c-6.963-8.819-1.394-20.426,16.248-34.816c4.178-3.249,4.643-6.963,0.929-10.212c-3.714-3.25-9.284-6.5-16.248-9.749
		c-4.178-2.786-9.748-1.393-17.177,4.644c-13.926,6.963-22.281,10.677-25.995,10.213c-1.393,0-2.321,0.464-2.786,1.393
		c-0.464,0.464,0.465,1.393,1.857,2.785c6.964,3.713,16.712,2.786,29.246-2.785c1.393-0.929,2.784-0.464,4.642,0.93
		c0.929,0.928,1.394,1.855,1.857,2.784c0.929,2.322,0,5.106-2.321,8.82c-3.714,5.57-6.499,9.748-7.428,12.07
		c-1.394,4.178-0.465,8.819,3.25,13.926c10.677,17.176,14.392,29.711,11.142,38.066l0,0c-9.749-0.466-18.569-0.466-26.925,1.393
		c-8.355,1.394-15.319,2.32-20.426,1.857c-2.785-0.465-4.18,0.928-4.18,3.248c0,1.857,4.18,6.035,12.534,12.07
		c3.714,2.32,8.82,1.855,15.319-1.393c1.394-0.93,3.25-2.322,6.035-3.25c11.604-4.644,24.604-4.18,38.529,0.463
		c27.391,8.82,53.85,19.033,79.845,31.104c18.105,7.893,30.176,12.999,37.139,15.318c7.892,2.322,16.712,1.857,26.461-1.855
		c18.104-6.499,32.494-12.068,47.35-21.354C-217.941,125.253-214.692,123.395-215.157,122.003z"/>
	<path d="M-391.558-33.511c2.32,2.321,4.643,3.714,6.964,4.643c3.249,1.393,8.354,0.929,15.318-0.929
		c14.391-3.714,24.603-6.034,30.638-6.964c0,1.857-3.25,11.606-10.213,28.782c-4.178,0.464-6.964,0.928-8.819,1.393
		c-0.464-0.465-1.393-1.393-2.785-2.321c-4.642-2.786-8.355-3.713-11.142-2.321c-0.465,0.464-0.93,0.929-0.93,2.321
		c0,2.321,0.93,4.178,2.322,6.035c4.178,8.355,5.106,27.852,2.784,58.955c-1.856,10.213-2.32,18.104-1.394,24.141
		c0.466,5.105,2.321,9.748,5.571,13.461c0.928,1.394,2.321,1.857,3.25,1.857c2.32,0,4.177-3.25,5.105-9.283l0,0
		c1.856-1.857,18.104-3.715,49.206-5.106c2.32,3.249,4.643,6.034,6.5,8.819l10.213,15.318c1.393,2.321,3.248,3.25,4.643,3.25
		c2.32,0,4.643-2.32,6.963-6.035c4.643-7.428,6.499-16.711,5.57-27.389c-1.394-17.641-2.785-38.529-4.178-63.598
		c0-2.321,0-4.642,0.929-6.499c0.463-1.393,1.855-4.178,3.713-7.892c1.394-2.321,1.394-4.18-0.464-5.571
		c-1.394-1.857-3.715-3.713-7.428-6.035c-9.283-6.5-16.248-8.355-20.891-6.035c-10.213,4.179-22.747,8.356-37.138,11.143
		c0,0,0-0.464,0.465-0.464c2.321-2.321,4.178-4.179,5.569-6.035c3.25-3.713,5.57-6.499,7.893-7.893
		c4.18-3.25,2.785-7.892-4.178-13.926c18.104-3.25,40.852-5.105,69.169-6.035c10.213,0,16.247-0.928,17.64-2.786
		c0.93-1.855,0-4.178-3.249-6.499c-9.748-6.034-17.177-8.355-22.747-6.963c-24.604,5.571-65.455,12.998-123.017,22.283
		C-393.88-37.688-394.344-36.296-391.558-33.511z M-306.144-7.978c4.645-0.464,8.357-0.464,10.678,1.393
		c3.715,2.785,5.106,23.211,4.18,60.348c0.463,10.213,0,16.713-0.93,19.961c-0.929,3.715-2.785,4.644-6.498,2.787
		c-0.93-1.857-3.25-4.178-7.894-6.965c-0.463,0-0.463-0.463-0.928-0.463c-2.786-1.395-7.429-1.395-13.927,0.463
		c-15.784,3.25-26.926,5.571-32.959,6.5V53.762c0,0,0.464,0,0.928,0c4.179,1.393,8.82,1.393,14.391,0.463
		c6.5-0.928,15.319-1.855,25.997-3.248c4.179-0.465,6.498-0.93,6.962-1.393c1.395-1.395,1.857-2.785,1.395-3.715
		c-1.395-1.857-3.715-3.713-8.355-5.57c-3.715-0.929-12.999,0.465-27.854,3.25c-5.106,0-9.749,0.463-13.462,1.393
		c0-6.035,0-12.534,0.464-19.497c2.785,0.929,6.963,0.929,12.533,0.929c13.461,0,25.067-1.857,35.279-5.105
		c1.394-1.393,1.394-2.321,0.93-3.713c-0.465-1.394-1.394-2.321-2.785-2.786c-2.785-1.855-9.284-1.855-19.497,0
		c-12.998,2.321-21.817,3.713-26.46,3.713c0-5.57,0.464-11.141,0.929-17.176C-352.099,1.306-336.318-1.48-306.144-7.978z"/>
</g>
</svg>
