<?xml version="1.0" encoding="utf-8"?>
<!-- Generator: Adobe Illustrator 15.1.0, SVG Export Plug-In . SVG Version: 6.00 Build 0)  -->
<!DOCTYPE svg PUBLIC "-//W3C//DTD SVG 1.1//EN" "http://www.w3.org/Graphics/SVG/1.1/DTD/svg11.dtd">
<svg version="1.1" id="Layer_1" xmlns="http://www.w3.org/2000/svg" xmlns:xlink="http://www.w3.org/1999/xlink" x="0px" y="0px"
	 width="283.465px" height="283.465px" viewBox="0 0 283.465 283.465" enable-background="new 0 0 283.465 283.465"
	 xml:space="preserve">
<g id="Layer_2">
</g>
<g id="Layer_3">
	<path d="M266.847,153.106h-29.146v-22.747h29.146c2.278,0,4.443-0.994,5.929-2.721c1.485-1.728,2.145-4.017,1.805-6.269
		c-4.321-28.576-17.407-54.482-37.844-74.919s-46.344-33.521-74.92-37.842C88.553-2.474,19.96,48.119,8.887,121.37
		c-0.341,2.252,0.317,4.542,1.803,6.269s3.65,2.721,5.93,2.721h30.566v22.747H16.618c-2.278,0-4.443,0.994-5.93,2.722
		c-1.484,1.728-2.144,4.017-1.803,6.269c4.319,28.576,17.405,54.483,37.841,74.92c20.438,20.437,46.345,33.521,74.92,37.842
		c6.778,1.025,13.513,1.521,20.168,1.521c65.283-0.001,122.715-47.81,132.765-114.28c0.34-2.252-0.318-4.543-1.804-6.27
		C271.29,154.101,269.125,153.106,266.847,153.106z M225.364,66.193c12.442,13.492,21.625,30.051,26.428,48.526h-83.757V60.39
		c14.359,4.958,27.146,13.345,37.376,24.473h-19.604c-4.317,0-7.818,3.501-7.818,7.819s3.501,7.819,7.818,7.819h35.545
		c2.869,0,5.508-1.571,6.875-4.095c1.366-2.522,1.242-5.592-0.324-7.996c-3.248-4.979-6.885-9.619-10.826-13.929L225.364,66.193z
		 M31.668,114.72c4.257-16.378,11.928-31.307,22.448-43.979l8.313,8.313c-2.434,2.98-4.737,6.093-6.865,9.357
		c-1.566,2.403-1.691,5.473-0.324,7.996c1.366,2.523,4.007,4.095,6.876,4.095h35.544c4.317,0,7.818-3.501,7.818-7.819
		s-3.501-7.819-7.818-7.819H78.053c10.229-11.128,23.017-19.515,37.377-24.473v54.33L31.668,114.72L31.668,114.72z M56.529,217.422
		c-11.958-13.718-20.651-30.349-24.898-48.676h83.799v55.751c-14.36-4.958-27.146-13.344-37.377-24.473h19.605
		c4.317,0,7.818-3.502,7.818-7.819s-3.501-7.819-7.818-7.819H62.114c-2.869,0-5.51,1.571-6.876,4.094
		c-1.367,2.523-1.242,5.594,0.324,7.996c2.874,4.408,6.038,8.564,9.461,12.453L56.529,217.422z M202.661,238.442
		c-25.429,16.271-55.672,21.672-85.164,15.199c-17.853-3.918-34.13-12.06-47.732-23.318l8.65-8.65
		c12.472,9.993,27.111,17.145,43.088,20.809c2.317,0.524,4.755-0.024,6.619-1.508c1.861-1.484,2.946-3.734,2.946-6.115v-73.932
		c0-4.318-3.501-7.82-7.819-7.82H65.668v-22.747h57.581c4.318,0,7.819-3.501,7.819-7.82V50.03c0-2.381-1.085-4.633-2.946-6.116
		c-1.863-1.482-4.301-2.036-6.619-1.506c-17.321,3.97-33.083,12.03-46.199,23.382l-8.253-8.253
		c4.875-4.224,10.146-8.063,15.775-11.473c25.987-15.733,56.551-20.406,86.054-13.154c15.919,3.913,30.45,11.071,42.874,20.755
		l-8.277,8.278c-12.121-9.338-26.213-16.028-41.515-19.535c-2.319-0.531-4.757,0.023-6.62,1.506
		c-1.861,1.483-2.945,3.735-2.945,6.116v72.509c0,4.319,3.502,7.82,7.818,7.82h59.003v22.747h-59.003
		c-4.316,0-7.818,3.502-7.818,7.82v73.932c0,2.381,1.084,4.631,2.945,6.115c1.862,1.482,4.303,2.035,6.62,1.508
		c17.991-4.125,34.291-12.67,47.699-24.725l8.655,8.653C213.505,230.823,208.275,234.851,202.661,238.442z M230.875,212.83
		l-8.572-8.569c1.967-2.502,3.842-5.092,5.6-7.785c1.566-2.402,1.69-5.473,0.324-7.996c-1.367-2.521-4.006-4.094-6.875-4.094
		h-35.545c-4.317,0-7.818,3.502-7.818,7.819s3.501,7.819,7.818,7.819h19.604c-10.229,11.129-23.017,19.515-37.376,24.473v-55.751
		h83.801C248.064,185.046,240.9,200.007,230.875,212.83z"/>
</g>
</svg>
