<?xml version="1.0" encoding="utf-8"?>
<!-- Generator: Adobe Illustrator 15.1.0, SVG Export Plug-In . SVG Version: 6.00 Build 0)  -->
<!DOCTYPE svg PUBLIC "-//W3C//DTD SVG 1.1//EN" "http://www.w3.org/Graphics/SVG/1.1/DTD/svg11.dtd">
<svg version="1.1"
	 id="svg4550" inkscape:version="0.92.3 (2405546, 2018-03-11)" sodipodi:docname="religion-jainism.svg" xmlns:dc="http://purl.org/dc/elements/1.1/" xmlns:cc="http://creativecommons.org/ns#" xmlns:rdf="http://www.w3.org/1999/02/22-rdf-syntax-ns#" xmlns:svg="http://www.w3.org/2000/svg" xmlns:sodipodi="http://sodipodi.sourceforge.net/DTD/sodipodi-0.dtd" xmlns:inkscape="http://www.inkscape.org/namespaces/inkscape"
	 xmlns="http://www.w3.org/2000/svg" xmlns:xlink="http://www.w3.org/1999/xlink" x="0px" y="0px" width="283.465px"
	 height="283.465px" viewBox="0 0 283.465 283.465" enable-background="new 0 0 283.465 283.465" xml:space="preserve">
<sodipodi:namedview  id="namedview4552" inkscape:window-y="-8" inkscape:window-x="-8" inkscape:window-height="1017" inkscape:window-width="1920" inkscape:current-layer="layer1" inkscape:pageshadow="2" inkscape:pageopacity="0" inkscape:cy="141.7325" inkscape:cx="141.7325" inkscape:zoom="0.83255429" borderopacity="1" bordercolor="#ffffff" showgrid="false" pagecolor="#505050" inkscape:window-maximized="1" gridtolerance="10" guidetolerance="10" objecttolerance="10">
	</sodipodi:namedview>
<g id="Layer_2">
</g>
<g id="layer1" inkscape:label="Layer 1" inkscape:groupmode="layer">
	<g id="Layer_3" transform="translate(-4.1884982e-7,3.7194515e-6)">
		<g id="g5560" transform="matrix(1.3749979,0,0,1.3749979,-444.72568,-154.18811)">
			<circle id="circle4035" cx="425.839" cy="250.48" r="1.438"/>
			<path id="path4043" inkscape:connector-curvature="0" d="M479.348,183.335c-0.116-0.431-0.426-1.577-4.92-3.102
				c-2.161-0.732-5.477-1.495-9.011-0.98c-4.217,0.615-8.832,3.016-12.064,9.528v-44.323c0-0.284-0.058-0.566-0.17-0.826
				c-0.128-0.296-3.209-7.252-9.507-8.429c-3.254-0.609-6.625,0.428-10.064,3.069l-0.061-12.975c0-0.421-0.132-0.831-0.374-1.176
				c-0.19-0.276-4.781-6.764-11.363-6.83c-4.005-0.028-7.718,2.247-11.02,6.795c-0.259,0.356-0.395,0.783-0.395,1.223v9.289
				c-2.167-1.577-5.297-3.204-8.771-2.929c-3.621,0.285-6.749,2.494-9.302,6.566c-0.208,0.33-0.318,0.713-0.318,1.104v16.312
				c-2.526-1.423-6.126-2.798-9.769-1.979c-3.616,0.811-6.395,3.515-8.261,8.036c-0.103,0.251-0.157,0.518-0.157,0.79l-0.202,95.507
				c-0.155,8.832,2.966,27.271,15.656,40.369c9.272,9.568,21.827,14.531,37.318,14.75c0.304,0,0.605,0.016,0.908,0.016
				c18.946,0,33.573-8.42,42.331-24.392c6.324-11.531,7.689-23.452,7.956-26.832v-0.084c0.045-0.401,0.016-1.07-0.196-4.642
				c-0.751-12.962-3.041-52.404,1.77-72.823c0.082-0.341,0.077-0.692-0.016-1.025L479.348,183.335z M473.445,257.42
				c0.114,1.952,0.21,3.643,0.21,4.023c0,0.038-0.016,0.082-0.016,0.136c-0.631,7.956-5.803,47.391-46.112,47.391
				c-0.291,0-0.587,0-0.881,0c-14.345-0.202-25.914-4.74-34.389-13.486c-11.74-12.119-14.63-29.213-14.485-37.433l0.203-95.119
				c1.303-2.972,3.042-4.719,5.173-5.199c3.27-0.734,7.069,1.496,8.858,2.859v1.692c0,0.153,0.018,0.303,0.049,0.447
				c0.049,8.728,0,34.803-0.049,52.997c0,1.149,0.926,2.081,2.071,2.085l0,0c1.146,0,2.077-0.929,2.08-2.072
				c0,0,0.04-13.996,0.06-28.009c0.015-8.137,0.015-14.629,0-19.292c0-2.637-0.014-4.839-0.021-6.387
				c-0.015-1.105-0.015-1.839-0.046-2.36V139.96c1.732-2.576,3.673-3.969,5.775-4.139c4.263-0.351,8.294,4.143,8.365,4.225
				c0.031,0.032,0.062,0.055,0.092,0.087v69.364c0,1.149,0.931,2.079,2.078,2.079c1.148,0,2.078-0.93,2.078-2.079v-83.491
				c2.34-3.038,4.756-4.577,7.202-4.55c3.603,0.028,6.619,3.317,7.64,4.571l0.396,82.146c0,1.143,0.935,2.067,2.08,2.067
				c0,0,0,0,0.014,0c1.148-0.006,2.075-0.94,2.068-2.089l-0.313-64.351c0.038-0.033,0.082-0.061,0.119-0.097
				c3.374-3.419,6.446-4.9,9.135-4.406c3.49,0.641,5.696,4.46,6.304,5.648v64.824c-0.05,1.827-0.05,3.755,0,5.798
				c0.027,1.127,0.952,2.026,2.077,2.026c0.016,0,0.018,0,0.026,0c1.138-0.014,2.053-0.94,2.053-2.08v-5.737
				c0.374-13.51,3.509-22.194,9.172-25.254c4.77-2.577,10.193-0.619,12.45,0.43c-4.497,21.359-2.274,59.677-1.531,72.475
				L473.445,257.42z"/>
			<path id="path4047" inkscape:connector-curvature="0" d="M425.816,223.933c-9.872,0.01-19.147,3.861-26.123,10.847
				c-6.973,6.986-10.81,16.268-10.802,26.141v0.064c0.018,20.358,16.596,36.923,36.955,36.923h0.031
				c20.379-0.018,36.943-16.611,36.927-36.987v-0.063C462.787,240.498,446.209,223.933,425.816,223.933L425.816,223.933z
				 M442,250.109c-0.486-0.689-1.013-1.345-1.582-1.963l12.244-10.712c1.016,1.161,1.956,2.384,2.817,3.668L442,250.109z
				 M457.831,245.173c0.679,1.376,1.274,2.803,1.773,4.271l-15.237,5.173c-0.293-0.8-0.641-1.572-1.03-2.317L457.831,245.173z
				 M441.815,254.859v13.366c0,0.271-0.22,0.489-0.491,0.489c-0.27,0-0.489-0.217-0.489-0.489v-13.366
				c0-0.27,0.219-0.489,0.489-0.489c0.27,0,0.49,0.22,0.49,0.489H441.815z M438.571,246.387c-0.641-0.536-1.318-1.027-2.024-1.474
				l9.128-13.628c1.284,0.864,2.507,1.807,3.666,2.824L438.571,246.387z M435.614,257.955c-0.088-0.162-0.078-0.359,0.028-0.514
				c2.04-2.966,1.351-7.838,1.344-7.886c-0.04-0.271,0.149-0.521,0.416-0.56c0.267-0.04,0.518,0.146,0.558,0.415
				c0.03,0.21,0.714,5.057-1.342,8.34c2.139,4.298,1.52,12.78,1.49,13.145c-0.02,0.26-0.234,0.455-0.49,0.455
				c-0.016,0-0.028,0-0.037,0c-0.274-0.021-0.476-0.26-0.455-0.53c0.001-0.089,0.653-8.916-1.511-12.864H435.614z M432.79,261.093
				c-0.599-2.256-1.697-2.531-2.499-2.732c-0.486-0.121-1.149-0.287-1.179-1.038c-0.033-0.857,0.791-0.987,1.337-1.075
				c0.851-0.136,1.817-0.288,2.355-1.773c0.886-2.447,0.969-6.175-1.717-8.624c-0.2-0.185-0.215-0.494-0.03-0.696
				c0.185-0.202,0.496-0.214,0.696-0.031c3.044,2.778,2.969,6.955,1.98,9.688c-0.737,2.028-2.233,2.267-3.128,2.411
				c-0.142,0.024-0.318,0.051-0.435,0.084c0.097,0.035,0.246,0.072,0.364,0.101c0.92,0.232,2.462,0.618,3.209,3.435
				c0.892,3.352,0.543,11.659,0.398,14.359c0.56-0.293,1.339-0.741,1.983-1.251c0.213-0.169,0.523-0.134,0.692,0.08
				c0.168,0.213,0.134,0.524-0.08,0.692c-1.241,0.984-2.866,1.716-2.935,1.746c-0.065,0.031-0.132,0.041-0.202,0.041
				c-0.099,0-0.199-0.03-0.283-0.087c-0.141-0.099-0.222-0.264-0.209-0.438C433.122,275.872,433.798,264.881,432.79,261.093
				L432.79,261.093z M434.324,243.693c-0.75-0.349-1.524-0.653-2.321-0.905l5.328-15.642c1.469,0.501,2.898,1.098,4.274,1.781
				L434.324,243.693z M429.551,242.191c-0.805-0.143-1.622-0.239-2.459-0.278l1.107-16.588c1.558,0.102,3.091,0.305,4.591,0.602
				L429.551,242.191z M424.581,241.957c-0.826,0.068-1.643,0.18-2.438,0.348l-3.24-16.385c1.505-0.294,3.039-0.489,4.59-0.588
				L424.581,241.957z M419.735,242.982c-0.78,0.273-1.533,0.595-2.262,0.962l-7.393-15.031c1.385-0.683,2.813-1.274,4.277-1.77
				L419.735,242.982z M414.667,272.424c0,0.19-0.105,0.364-0.275,0.447c-0.068,0.033-0.143,0.051-0.216,0.051
				c-0.108,0-0.215-0.035-0.303-0.105c-1.048-0.814-2.615-2.919-3.326-4.902c-0.09-0.257,0.042-0.54,0.299-0.631
				c0.257-0.092,0.538,0.041,0.63,0.298c0.466,1.305,1.374,2.726,2.196,3.67l-0.067-8.903l-2.088-0.058
				c-0.271-0.007-0.486-0.234-0.478-0.506c0-0.273,0.231-0.479,0.507-0.479l2.053,0.054l-0.073-9.793
				c-1.176,1.639-1.918,3.091-2.401,4.107c-0.118,0.247-0.41,0.352-0.656,0.234c-0.247-0.115-0.351-0.409-0.234-0.656
				c0.612-1.293,1.63-3.264,3.39-5.442c0.131-0.161,0.349-0.22,0.545-0.152c0.197,0.068,0.329,0.253,0.33,0.459l0.086,11.267
				l2.925,0.08l-0.167-14.474c0-0.271,0.214-0.497,0.488-0.5l0,0c0.269,0,0.489,0.216,0.492,0.489l0.332,28.565
				c0,0.271-0.214,0.496-0.486,0.499c0,0,0,0-0.015,0c-0.27,0-0.489-0.217-0.492-0.487l-0.152-13.104l-2.931-0.081l0.073,10.051
				h0.014V272.424z M415.315,245.2c-0.678,0.46-1.324,0.967-1.94,1.507L402.346,234.1c1.168-1.028,2.387-1.977,3.66-2.834
				L415.315,245.2z M411.612,248.468c-0.54,0.614-1.047,1.26-1.506,1.939l-13.908-9.315c0.855-1.273,1.803-2.493,2.826-3.662
				L411.612,248.468z M408.843,252.562c-0.368,0.73-0.691,1.486-0.964,2.263l-15.795-5.382c0.495-1.463,1.084-2.891,1.767-4.276
				L408.843,252.562z M407.198,257.235c-0.168,0.798-0.285,1.614-0.352,2.442l-16.559-1.104c0.097-1.55,0.287-3.084,0.582-4.587
				L407.198,257.235z M406.798,262.194c0.039,0.837,0.136,1.658,0.277,2.466l-16.196,3.202c-0.295-1.499-0.496-3.027-0.597-4.584
				L406.798,262.194z M407.675,267.116c0.252,0.8,0.556,1.574,0.906,2.322l-14.712,7.236c-0.68-1.376-1.275-2.803-1.774-4.271
				L407.675,267.116z M409.805,271.668c0.45,0.709,0.943,1.386,1.479,2.027l-12.247,10.715c-1.015-1.159-1.955-2.382-2.817-3.666
				L409.805,271.668z M413.05,275.545c0.62,0.571,1.279,1.099,1.969,1.584l-8.996,13.428c-1.282-0.861-2.504-1.805-3.662-2.821
				L413.05,275.545z M417.217,278.467c0.749,0.389,1.525,0.737,2.325,1.027l-5.18,15.2c-1.469-0.501-2.895-1.099-4.272-1.778
				L417.217,278.467z M422.032,280.208c0.822,0.179,1.666,0.303,2.526,0.374l-1.062,15.933c-1.559-0.102-3.09-0.305-4.588-0.602
				L422.032,280.208z M423.743,250.481c0-1.156,0.94-2.095,2.096-2.095c1.157,0,2.097,0.939,2.097,2.095
				c0,1.155-0.94,2.097-2.097,2.097C424.683,252.577,423.743,251.637,423.743,250.481z M425.714,278.168
				c-0.243-0.03-0.429-0.236-0.431-0.484c0,0-0.147-11.553-0.165-13.384c0-0.497,0.297-0.616,0.429-0.643
				c0.519-0.108,0.645,0.182,1.625,2.447c0.538,1.239,1.591,3.676,2.18,4.375c0.629-2.111,0.415-5.912-0.159-8.456
				c-1.938-0.608-2.712-1.629-3.333-2.629c-0.835-1.34-0.686-3.435,0.351-4.876c1.025-1.423,2.424-1.763,3.06-1.842
				c0.219-0.581,0.651-2.098-0.135-3.531c-0.925-1.683-3.289-2.803-6.861-3.256c-0.02,7.453,0.331,31.284,0.335,31.531
				c0,0.271-0.213,0.496-0.485,0.499l0,0c-0.271,0-0.49-0.215-0.494-0.484c0-0.254-0.374-25.349-0.332-32.098
				c0-0.139,0.061-0.271,0.162-0.365c0.104-0.092,0.242-0.139,0.381-0.122c4.279,0.446,7.027,1.736,8.172,3.834
				c1.237,2.271,0.089,4.585,0.04,4.685c-0.085,0.165-0.254,0.271-0.44,0.271l0,0c-0.06,0-1.558,0.023-2.594,1.46
				c-0.803,1.115-0.939,2.777-0.313,3.778c0.593,0.953,1.23,1.783,3.04,2.283c0.173,0.047,0.305,0.183,0.347,0.358
				c0.581,2.357,1.011,6.838,0.156,9.428c-0.19,0.571-0.548,0.672-0.747,0.68c-0.014,0-0.024,0-0.034,0
				c-0.824,0-1.561-1.362-3.19-5.125c-0.046-0.108-0.093-0.219-0.144-0.33c0.042,3.291,0.118,9.379,0.14,11.063
				c1.117,0.078,2.499-0.055,3.721-0.361c0.266-0.067,0.531,0.094,0.598,0.358c0.065,0.264-0.094,0.531-0.359,0.598
				c-1.081,0.27-2.25,0.413-3.305,0.413c-0.423,0-0.827-0.027-1.202-0.072h-0.013V278.168z M427.158,280.629
				c0.865-0.044,1.714-0.149,2.547-0.304l3.084,15.591c-1.499,0.295-3.03,0.499-4.588,0.601L427.158,280.629z M432.234,279.676
				c0.82-0.27,1.616-0.588,2.384-0.962l6.986,14.205c-1.378,0.68-2.801,1.278-4.273,1.778L432.234,279.676z M436.886,277.413
				c0.716-0.476,1.398-1.001,2.043-1.568l10.406,11.893c-1.159,1.017-2.382,1.96-3.665,2.822L436.886,277.413z M440.776,273.992
				c0.563-0.648,1.085-1.33,1.56-2.048l13.141,8.8c-0.862,1.286-1.804,2.509-2.818,3.669L440.776,273.992z M443.631,269.673
				c0.369-0.768,0.686-1.567,0.953-2.386l15.018,5.119c-0.5,1.467-1.094,2.895-1.776,4.27L443.631,269.673z M445.223,264.758
				c0.148-0.83,0.253-1.679,0.294-2.544l15.898,1.06c-0.102,1.558-0.304,3.088-0.598,4.587L445.223,264.758z M445.466,259.619
				c-0.074-0.857-0.2-1.699-0.381-2.52l15.732-3.109c0.294,1.496,0.497,3.026,0.597,4.585L445.466,259.619z M425.847,296.727h0.021
				l0,0l-0.027,0.527v-0.524L425.847,296.727z"/>
		</g>
	</g>
</g>
</svg>
