<?xml version="1.0" encoding="utf-8"?>
<!-- Generator: Adobe Illustrator 15.1.0, SVG Export Plug-In . SVG Version: 6.00 Build 0)  -->
<!DOCTYPE svg PUBLIC "-//W3C//DTD SVG 1.1//EN" "http://www.w3.org/Graphics/SVG/1.1/DTD/svg11.dtd">
<svg version="1.1" id="Layer_1" xmlns="http://www.w3.org/2000/svg" xmlns:xlink="http://www.w3.org/1999/xlink" x="0px" y="0px"
	 width="283.465px" height="283.465px" viewBox="0 0 283.465 283.465" enable-background="new 0 0 283.465 283.465"
	 xml:space="preserve">
<path d="M147.921,275.998c12.507-0.664,26.603-3.408,38.264-7.445c8.685-3.01,20.563-8.674,25.877-12.344l1.327-0.914l-31.628-0.223
	l-31.628-0.221l-0.113-46.115c-0.089-36.707,0.001-46.115,0.441-46.115c0.305,0,18.507,17.951,40.447,39.893l39.896,39.893
	l3.347-2.996c3.983-3.564,11.319-11.801,15.65-17.568c8.071-10.752,15.009-23.938,19.399-36.881
	c1.554-4.578,3.834-13.047,3.582-13.299c-15.881,15.484-28.314,29.074-44.214,43.547c-0.67,0.42-5.218-3.932-33.303-31.873
	c-17.891-17.797-32.527-32.523-32.527-32.729c41.284-0.648,67.805-0.668,113.19-0.771c0.832-0.527,0.433-17.55-0.592-25.255
	c-1.534-11.533-5.251-25.109-9.741-35.582c-3.531-8.233-8.747-17.906-9.854-18.275c-0.054,21.973-0.551,35.139-0.551,62.703
	c-30.455-0.443-61.976-0.094-92.452-0.354c0-0.197,17.916-18.256,39.813-40.133c21.897-21.877,39.813-39.994,39.813-40.262
	c0-0.785-12.237-12.576-16.81-16.193c-12.037-9.525-25.558-16.93-39.871-21.832c-6.103-2.09-12.092-3.756-13.505-3.756
	c-0.5,0,7.727,8.535,21.525,22.338l22.337,22.34l-32.706,32.709c-17.988,17.988-32.867,32.607-33.064,32.486
	c-0.197-0.123-0.357-25.717-0.357-56.875V7.241l-10.728,0.24c-11.38,0.256-17.614,0.979-27.425,3.178
	c-12.982,2.912-27.463,8.621-37.805,14.906l-3.889,2.361l31.629,0.223l31.627,0.221l0.114,45.783
	c0.063,25.18,0.003,46.072-0.131,46.426c-0.164,0.432-13.44-12.555-40.457-39.567l-40.211-40.21l-2.345,2.189
	c-3.987,3.722-12.174,12.627-15.024,16.344c-8.065,10.513-15.276,23.504-19.766,35.609c-2.384,6.43-5.173,16.273-4.733,16.713
	c0.148,0.148,10.266-9.719,22.484-21.926l22.215-22.195l32.498,32.459c17.874,17.853,32.57,32.678,32.66,32.945
	c0.117,0.35-15.633,0.516-56.606,0.598l-56.768,0.111l-0.14,6.414c-0.437,19.99,4.655,42.607,13.668,60.71
	c2.891,5.809,6.711,12.26,7.114,12.012c0.203-0.125,0.369-14.25,0.369-31.389v-31.16H74.49c26.243,0,46.227,0.168,46.227,0.389
	c0,0.215-17.916,18.193-39.813,39.953c-21.896,21.76-39.812,39.816-39.812,40.127c0,0.875,9.825,10.43,15.403,14.98
	c14.567,11.885,32.154,20.92,50.063,25.717c3.287,0.881,4.868,1.135,4.868,0.785c0-0.287-9.903-10.426-22.006-22.531l-22.007-22.01
	l32.513-32.512c17.882-17.881,32.761-32.512,33.065-32.512c0.438,0,0.553,11.605,0.553,56.555v56.559l3.384,0.285
	C140.209,276.297,142.363,276.293,147.921,275.998L147.921,275.998z"/>
</svg>
