<?xml version="1.0" encoding="utf-8"?>
<!-- Generator: Adobe Illustrator 15.1.0, SVG Export Plug-In . SVG Version: 6.00 Build 0)  -->
<!DOCTYPE svg PUBLIC "-//W3C//DTD SVG 1.0//EN" "http://www.w3.org/TR/2001/REC-SVG-20010904/DTD/svg10.dtd">
<svg version="1.0" id="Layer_1" xmlns="http://www.w3.org/2000/svg" xmlns:xlink="http://www.w3.org/1999/xlink" x="0px" y="0px"
	 width="283.465px" height="283.465px" viewBox="-126.732 -126.732 283.465 283.465"
	 enable-background="new -126.732 -126.732 283.465 283.465" xml:space="preserve">
<g id="Layer_1_1_">
</g>
<g id="Layer_2">
</g>
<g>
	<path fill="none" d="M55.181-61.94v-43.382H-75.593v240.649h181.171V-54.919H62.211C58.318-54.919,55.181-58.062,55.181-61.94z
		 M50.602-41.398h9.815v73.518h-9.815V-41.398z M-52.723-74.49h88.098c3.334,0,6.03,2.701,6.03,6.025
		c0,3.333-2.696,6.035-6.03,6.035h-88.098c-3.324,0-6.025-2.691-6.025-6.035C-58.749-71.789-56.047-74.49-52.723-74.49z
		 M48.405-13.886v46.005h-9.814v-46.005H48.405z M36.591-26.598v58.717h-9.806v-58.717H36.591z M24.697-4.64v36.759h-9.81V-4.64
		H24.697z M-3.875-29.892l-25.322,22.14v-33.646C-19.499-41.398-10.263-37.211-3.875-29.892z M-46.747,114.364
		c-6.623,0-11.991-5.363-11.991-11.982c0-6.628,5.368-11.991,11.991-11.991c6.619,0,11.987,5.363,11.987,11.991
		C-34.76,109.001-40.128,114.364-46.747,114.364z M-46.747,70.134c-6.628,0-12.001-5.373-12.001-12.002
		c0-6.618,5.374-11.991,12.001-11.991c6.624,0,11.997,5.373,11.997,11.991C-34.75,64.761-40.124,70.134-46.747,70.134z
		 M-66.033-1.517c0-18.576,15.06-33.636,33.631-33.636v33.636l25.704-21.688c5.133,6.064,7.932,13.756,7.932,21.688
		c0,18.565-15.07,33.636-33.636,33.636C-50.963,32.119-66.033,17.049-66.033-1.517z M82.733,108.422H-18.714
		c-3.324,0-6.025-2.706-6.025-6.03c0-3.323,2.701-6.029,6.025-6.029H82.723c3.324,0,6.03,2.706,6.03,6.029
		C88.753,105.716,86.057,108.422,82.733,108.422z M82.733,64.162H-18.714c-3.324,0-6.025-2.696-6.025-6.021
		c0-3.323,2.701-6.039,6.025-6.039H82.723c3.324,0,6.03,2.716,6.03,6.039C88.753,61.466,86.057,64.162,82.733,64.162z M86.224-4.64
		h9.805v36.759h-9.805V-4.64z M74.33-9.792h9.814v41.911H74.33V-9.792z M62.476,6.568h9.806v25.551h-9.806V6.568z"/>
	<path d="M121.443-68.504L68.79-121.177c-1.745-1.745-4.118-2.721-6.569-2.721H-84.878c-5.133,0-9.291,4.157-9.291,9.285v259.225
		c0,5.128,4.157,9.285,9.291,9.285h199.752c5.138,0,9.295-4.157,9.295-9.285V-61.94C124.169-64.411,123.188-66.779,121.443-68.504z
		 M105.578,135.327H-75.593v-240.649H55.181v43.382c0,3.878,3.138,7.021,7.03,7.021h43.367V135.327z"/>
	<path d="M-52.723-62.43h88.098c3.334,0,6.03-2.701,6.03-6.035c0-3.324-2.696-6.025-6.03-6.025h-88.098
		c-3.324,0-6.025,2.701-6.025,6.025C-58.749-65.122-56.047-62.43-52.723-62.43z"/>
	<path d="M-29.196-7.752l25.322-22.14c-6.388-7.319-15.625-11.506-25.322-11.506V-7.752z"/>
	<rect x="26.785" y="-26.598" width="9.806" height="58.717"/>
	<rect x="38.591" y="-13.886" width="9.814" height="46.005"/>
	<rect x="50.602" y="-41.398" width="9.815" height="73.518"/>
	<rect x="74.33" y="-9.792" width="9.814" height="41.911"/>
	<rect x="14.887" y="-4.64" width="9.81" height="36.759"/>
	<rect x="86.224" y="-4.64" width="9.805" height="36.759"/>
	<rect x="62.476" y="6.568" width="9.806" height="25.551"/>
	<path d="M1.234-1.517c0-7.932-2.799-15.624-7.932-21.688L-32.402-1.517v-33.636c-18.571,0-33.631,15.06-33.631,33.636
		c0,18.565,15.07,33.636,33.631,33.636C-13.836,32.119,1.234,17.049,1.234-1.517z"/>
	<path d="M82.723,52.103H-18.714c-3.324,0-6.025,2.716-6.025,6.039c0,3.324,2.701,6.021,6.025,6.021H82.733
		c3.323,0,6.02-2.696,6.02-6.021C88.753,54.818,86.047,52.103,82.723,52.103z"/>
	<path d="M-46.747,46.141c-6.628,0-12.001,5.373-12.001,11.991c0,6.629,5.374,12.002,12.001,12.002
		c6.624,0,11.997-5.373,11.997-12.002C-34.75,51.514-40.124,46.141-46.747,46.141z"/>
	<path d="M82.723,96.362H-18.714c-3.324,0-6.025,2.706-6.025,6.029c0,3.324,2.701,6.03,6.025,6.03H82.733
		c3.323,0,6.02-2.706,6.02-6.03C88.753,99.068,86.047,96.362,82.723,96.362z"/>
	<path d="M-46.747,90.391c-6.623,0-11.991,5.363-11.991,11.991c0,6.619,5.368,11.982,11.991,11.982
		c6.619,0,11.987-5.363,11.987-11.982C-34.76,95.754-40.128,90.391-46.747,90.391z"/>
</g>
</svg>
