<?xml version="1.0" encoding="utf-8"?>
<!-- Generator: Adobe Illustrator 15.1.0, SVG Export Plug-In . SVG Version: 6.00 Build 0)  -->
<!DOCTYPE svg PUBLIC "-//W3C//DTD SVG 1.0//EN" "http://www.w3.org/TR/2001/REC-SVG-20010904/DTD/svg10.dtd">
<svg version="1.0" id="Layer_4" xmlns="http://www.w3.org/2000/svg" xmlns:xlink="http://www.w3.org/1999/xlink" x="0px" y="0px"
	 width="283.465px" height="283.465px" viewBox="0 0 283.465 283.465" enable-background="new 0 0 283.465 283.465"
	 xml:space="preserve">
<g>
	<path fill="#231F20" d="M244.917,60.785L193.875,9.725c-1.69-1.691-3.991-2.638-6.367-2.638H44.911
		c-4.976,0-9.006,4.03-9.006,9.001v251.29c0,4.972,4.03,9,9.006,9h193.637c4.981,0,9.011-4.028,9.011-9V67.148
		C247.559,64.752,246.608,62.458,244.917,60.785z M187.756,133.559h9.506v24.77h-9.506V133.559z M176.244,87.062h9.514v71.268
		h-9.514V87.062z M76.082,54.983h85.401c3.232,0,5.845,2.618,5.845,5.84c0,3.232-2.612,5.85-5.845,5.85H76.082
		c-3.221,0-5.842-2.61-5.841-5.85C70.241,57.602,72.86,54.983,76.082,54.983z M174.114,113.731v44.598h-9.514v-44.598H174.114z
		 M162.663,101.409v56.92h-9.506v-56.92H162.663z M151.133,122.694v35.635h-9.509v-35.635H151.133z M123.437,98.214L98.89,119.677
		V87.061C108.29,87.061,117.245,91.12,123.437,98.214z M81.875,238.054c-6.42,0-11.624-5.197-11.624-11.613
		c0-6.426,5.203-11.624,11.624-11.624c6.417,0,11.621,5.198,11.62,11.624C93.495,232.856,88.292,238.054,81.875,238.054z
		 M81.875,195.18c-6.424,0-11.634-5.209-11.634-11.635c0-6.416,5.209-11.624,11.634-11.624c6.42,0,11.63,5.208,11.63,11.624
		C93.505,189.971,88.296,195.18,81.875,195.18z M63.18,125.721c0-18.007,14.599-32.606,32.602-32.606v32.606l24.917-21.024
		c4.976,5.878,7.689,13.335,7.689,21.024c0,17.998-14.608,32.608-32.606,32.608C77.788,158.329,63.18,143.719,63.18,125.721z
		 M207.392,232.295h-98.341c-3.222,0-5.84-2.625-5.84-5.846c0-3.222,2.618-5.844,5.84-5.844h98.331c3.223,0,5.845,2.622,5.847,5.844
		C213.229,229.67,210.614,232.295,207.392,232.295z M207.392,189.392h-98.341c-3.222,0-5.84-2.615-5.84-5.837
		c0-3.221,2.618-5.854,5.84-5.854h98.331c3.223,0,5.845,2.632,5.847,5.854C213.229,186.777,210.614,189.392,207.392,189.392z
		 M199.246,158.327V117.7h9.515v40.627H199.246z M220.281,158.329h-9.505v-35.635h9.505V158.329z M189.616,65.001l-0.075-43.241
		l45.3,43.241H189.616z"/>
</g>
</svg>
