<?xml version="1.0" encoding="utf-8"?>
<!-- Generator: Adobe Illustrator 15.1.0, SVG Export Plug-In . SVG Version: 6.00 Build 0)  -->
<!DOCTYPE svg PUBLIC "-//W3C//DTD SVG 1.1//EN" "http://www.w3.org/Graphics/SVG/1.1/DTD/svg11.dtd">
<svg version="1.1" xmlns="http://www.w3.org/2000/svg" xmlns:xlink="http://www.w3.org/1999/xlink" x="0px" y="0px" width="30px"
	 height="30px" viewBox="0 0 30 30" enable-background="new 0 0 30 30" xml:space="preserve">
<g id="Layer_1">
</g>
<g id="Layer_2">
</g>
<g id="Layer_3">
	<g>
		<path d="M25.602,6.683l-5.245-5.246c-0.174-0.174-0.409-0.271-0.654-0.271H5.052c-0.511,0-0.925,0.414-0.925,0.925v25.818
			c0,0.511,0.414,0.925,0.925,0.925h19.896c0.511,0,0.925-0.414,0.925-0.925V7.337C25.873,7.091,25.775,6.855,25.602,6.683z
			 M24.022,26.984H5.977V3.016h13.025v4.321c0,0.386,0.313,0.699,0.7,0.699h4.32V26.984z"/>
		<path d="M8.255,7.288h8.775c0.331,0,0.6-0.269,0.6-0.601c0-0.331-0.269-0.6-0.6-0.6H8.255c-0.331,0-0.6,0.269-0.6,0.6
			C7.655,7.02,7.924,7.288,8.255,7.288z"/>
		<path d="M13.12,10.529c-0.636-0.729-1.556-1.146-2.522-1.146v3.351L13.12,10.529z"/>
		<rect x="16.174" y="10.857" width="0.977" height="5.848"/>
		<rect x="17.35" y="12.123" width="0.977" height="4.582"/>
		<rect x="18.546" y="9.383" width="0.977" height="7.322"/>
		<rect x="20.909" y="12.531" width="0.977" height="4.174"/>
		<rect x="14.989" y="13.044" width="0.977" height="3.661"/>
		<rect x="22.094" y="13.044" width="0.977" height="3.661"/>
		<rect x="19.728" y="14.16" width="0.977" height="2.545"/>
		<path d="M13.629,13.355c0-0.79-0.279-1.556-0.79-2.16l-2.56,2.16v-3.35c-1.85,0-3.35,1.5-3.35,3.35c0,1.849,1.501,3.35,3.35,3.35
			S13.629,15.204,13.629,13.355z"/>
		<path d="M21.745,18.696H11.642c-0.331,0-0.6,0.27-0.6,0.601s0.269,0.6,0.6,0.6h10.104c0.331,0,0.6-0.269,0.6-0.6
			S22.076,18.696,21.745,18.696z"/>
		<circle cx="8.85" cy="19.296" r="1.195"/>
		<path d="M21.745,23.104H11.642c-0.331,0-0.6,0.269-0.6,0.6s0.269,0.6,0.6,0.6h10.104c0.331,0,0.6-0.269,0.6-0.6
			S22.076,23.104,21.745,23.104z"/>
		<circle cx="8.85" cy="23.703" r="1.194"/>
	</g>
</g>
</svg>
