<?xml version="1.0" encoding="utf-8"?>
<!-- Generator: Adobe Illustrator 15.1.0, SVG Export Plug-In . SVG Version: 6.00 Build 0)  -->
<!DOCTYPE svg PUBLIC "-//W3C//DTD SVG 1.1//EN" "http://www.w3.org/Graphics/SVG/1.1/DTD/svg11.dtd">
<svg version="1.1" id="Capa_1" xmlns="http://www.w3.org/2000/svg" xmlns:xlink="http://www.w3.org/1999/xlink" x="0px" y="0px"
	 width="283.465px" height="283.465px" viewBox="0 0 283.465 283.465" enable-background="new 0 0 283.465 283.465"
	 xml:space="preserve">
<g>
	<path d="M148.605,266.162h4.166c2.715-0.691,22.65-6.758,35.549-36.629c-6.848-18.688-12.006-46.918-11.758-89.524
		c0.178-8.061,2.066-124.928-38.791-127.077h-16.336H71.745c1.632,1.314,3.404,2.78,5.395,4.414
		c7.708,6.354,13.371,14.135,17.52,22.447c4.959,9.93,7.746,20.601,9.257,30.495c3.702,17.238,6.067,39.639,5.897,68.787
		C109.632,147.143,107.739,264.01,148.605,266.162z"/>
	<path d="M79.856,110.5c0.842-30.08,5.947-50.977,12.311-65.475c-3.997-9.083-9.694-17.622-17.822-24.312
		c-4-3.292-7.066-5.867-9.704-7.778H50.155C7.829,15.164,7.087,110.499,7.087,110.499l46.774-28.466L79.856,110.5z"/>
	<path d="M203.605,172.965c-0.777,27.916-6.113,47.912-13.031,62.236c-8.414,17.428-19.158,26.42-26.965,30.961
		c-6.045,3.518-10.324,4.371-10.324,4.371h80.021c42.328-2.229,43.07-97.561,43.07-97.561l-38.031,32.834L203.605,172.965z"/>
</g>
</svg>
