<?xml version="1.0" encoding="utf-8"?>
<!-- Generator: Adobe Illustrator 15.1.0, SVG Export Plug-In . SVG Version: 6.00 Build 0)  -->
<!DOCTYPE svg PUBLIC "-//W3C//DTD SVG 1.1//EN" "http://www.w3.org/Graphics/SVG/1.1/DTD/svg11.dtd">
<svg version="1.1" id="Layer_2" xmlns="http://www.w3.org/2000/svg" xmlns:xlink="http://www.w3.org/1999/xlink" x="0px" y="0px"
	 width="283.46px" height="283.46px" viewBox="0 0 283.46 283.46" enable-background="new 0 0 283.46 283.46" xml:space="preserve">
<g>
	<path d="M83.49,156.231H62.506c-1.588,0-1.926,0.873-0.751,1.941l20.731,18.387c0,0,3.89,3.724,3.89-1.735v-15.706
		C86.376,157.531,85.077,156.231,83.49,156.231z"/>
	<path d="M45.139,146.334v-13.33H11.208c-1.521,0-2.918,0.837-3.636,2.178c-0.717,1.342-0.639,2.968,0.205,4.233l12.684,19.026
		L7.777,177.468c-0.843,1.266-0.921,2.893-0.205,4.233c0.718,1.341,2.115,2.178,3.636,2.178h70.228l-33.397-30.546
		C46.167,151.461,45.138,148.977,45.139,146.334z"/>
	<path d="M220.955,156.231h-20.983c-1.588,0-2.887,1.3-2.887,2.887v15.706c0,5.459,3.89,1.735,3.89,1.735l20.731-18.387
		C222.88,157.104,222.542,156.231,220.955,156.231z"/>
	<path d="M263,158.442l12.684-19.026c0.843-1.266,0.922-2.892,0.204-4.233c-0.718-1.341-2.115-2.178-3.636-2.178h-33.931v13.33
		c0.001,2.643-1.028,5.127-2.899,6.999l-33.397,30.546h70.228c1.521,0,2.918-0.837,3.636-2.178c0.717-1.341,0.639-2.968-0.204-4.233
		L263,158.442z"/>
	<path d="M232.548,103.705c0-2.276-1.846-4.124-4.123-4.124h-18.68h-52.366h-31.298H71.617H55.036c-2.277,0-4.123,1.848-4.123,4.124
		l-0.001,42.63c0,1.094,0.434,2.143,1.208,2.915c0.773,0.773,1.823,1.209,2.917,1.209h16.581h54.464h31.3h52.365h18.68
		c1.094,0,2.143-0.436,2.916-1.209c0.773-0.772,1.208-1.821,1.208-2.915L232.548,103.705z"/>
</g>
</svg>
