<?xml version="1.0" encoding="utf-8"?>
<!-- Generator: Adobe Illustrator 15.1.0, SVG Export Plug-In . SVG Version: 6.00 Build 0)  -->
<!DOCTYPE svg PUBLIC "-//W3C//DTD SVG 1.1//EN" "http://www.w3.org/Graphics/SVG/1.1/DTD/svg11.dtd">
<svg version="1.1" id="Layer_2" xmlns="http://www.w3.org/2000/svg" xmlns:xlink="http://www.w3.org/1999/xlink" x="0px" y="0px"
	 width="283.46px" height="283.46px" viewBox="0 0 283.46 283.46" enable-background="new 0 0 283.46 283.46" xml:space="preserve">
<g>
	<path d="M73.868,164.068c17.19,9.3,19.22,10.397,34.664,18.754v-18.754C103.526,164.068,76.507,164.068,73.868,164.068z"/>
	<path d="M50.519,164.068c0-14.718,0-27.674,0-44.677H7.084l37.407,32.306L7.084,184.001h78.935
		C51.62,164.686,85.133,183.504,50.519,164.068z"/>
	<path d="M276.375,119.391h-43.847c0,5.544,0,39.168,0,44.677c-34.618,19.44-1.099,0.618-35.499,19.934h79.346l-37.407-32.305
		L276.375,119.391z"/>
	<rect x="62.891" y="99.458" width="157.265" height="52.238"/>
	<path d="M174.929,164.068v18.531c19.054-10.309,15.173-8.209,34.251-18.531C196.771,164.068,187.034,164.068,174.929,164.068z"/>
</g>
</svg>
