<?xml version="1.0" encoding="utf-8"?>
<!-- Generator: Adobe Illustrator 15.1.0, SVG Export Plug-In . SVG Version: 6.00 Build 0)  -->
<!DOCTYPE svg PUBLIC "-//W3C//DTD SVG 1.1//EN" "http://www.w3.org/Graphics/SVG/1.1/DTD/svg11.dtd">
<svg version="1.1" id="Layer_2" xmlns="http://www.w3.org/2000/svg" xmlns:xlink="http://www.w3.org/1999/xlink" x="0px" y="0px"
	 width="283.465px" height="283.465px" viewBox="0 0 283.465 283.465" enable-background="new 0 0 283.465 283.465"
	 xml:space="preserve">
<g>
	<path d="M141.732,7.087C67.369,7.087,7.086,67.37,7.086,141.733c0,74.364,60.282,134.645,134.646,134.645
		c74.364,0,134.647-60.279,134.647-134.645C276.377,67.37,216.096,7.087,141.732,7.087z M141.732,260.702
		c-65.601,0-118.971-53.368-118.971-118.971c0-65.6,53.373-118.97,118.971-118.97c65.598,0,118.971,53.373,118.971,118.97
		C260.705,207.334,207.334,260.702,141.732,260.702z"/>
	<path fill="#FFFFFF" d="M141.73,25.729c57.645,0,105.6,42.27,114.51,97.438h-62.262c-7.631-21.488-28.139-36.878-52.247-36.878
		c-24.104,0-44.607,15.39-52.242,36.878H27.226C36.137,68.002,84.086,25.729,141.73,25.729z M141.736,257.733
		c-57.646,0-105.599-42.27-114.511-97.441H89.49c7.633,21.488,28.139,36.882,52.242,36.882c24.11,0,44.614-15.394,52.249-36.882
		h62.264C247.332,215.464,199.379,257.733,141.736,257.733z"/>
	<path d="M141.732,86.288c24.108,0,44.616,15.391,52.247,36.879h62.262c-8.91-55.17-56.865-97.438-114.51-97.438
		c-57.644,0-105.593,42.271-114.504,97.438H89.49C97.125,101.679,117.626,86.288,141.732,86.288z"/>
	<path d="M193.98,160.292c-7.635,21.488-28.139,36.882-52.249,36.882c-24.104,0-44.609-15.394-52.242-36.882H27.225
		c8.912,55.173,56.865,97.441,114.511,97.441c57.645,0,105.596-42.271,114.508-97.441H193.98z"/>
</g>
</svg>
