<?xml version="1.0" encoding="utf-8"?>
<!-- Generator: Adobe Illustrator 15.1.0, SVG Export Plug-In . SVG Version: 6.00 Build 0)  -->
<!DOCTYPE svg PUBLIC "-//W3C//DTD SVG 1.1//EN" "http://www.w3.org/Graphics/SVG/1.1/DTD/svg11.dtd">
<svg version="1.1" id="Layer_2" xmlns="http://www.w3.org/2000/svg" xmlns:xlink="http://www.w3.org/1999/xlink" x="0px" y="0px"
	 width="283.46px" height="283.46px" viewBox="0 0 283.46 283.46" enable-background="new 0 0 283.46 283.46" xml:space="preserve">
<g>
	<path d="M102.947,214.114V179.76c0-3.472,2.841-6.314,6.313-6.314h45.896c3.474,0,4.213,1.911,1.644,4.247l-45.344,40.215
		C111.454,217.909,102.947,226.053,102.947,214.114z"/>
	<path d="M171.497,49.54H16.104c-3.326,0-6.382,1.831-7.953,4.764c-1.569,2.933-1.397,6.493,0.448,9.26l27.743,41.618L8.601,146.796
		c-1.846,2.769-2.018,6.326-0.447,9.26c1.568,2.932,4.625,4.764,7.951,4.764h155.392c2.392,0,4.687-0.952,6.379-2.643
		c1.691-1.691,2.641-3.985,2.641-6.377l-0.002-93.24C180.514,53.58,176.477,49.54,171.497,49.54z"/>
	<path d="M186.801,167.109l-73.048,66.812h153.604c3.326,0,6.382-1.831,7.952-4.764c1.568-2.934,1.396-6.492-0.447-9.26
		l-27.742-41.615l27.742-41.614c1.844-2.768,2.017-6.325,0.447-9.259c-1.57-2.934-4.626-4.764-7.952-4.764h-74.214V151.8
		C193.144,157.58,190.894,163.014,186.801,167.109z"/>
</g>
</svg>
