<?xml version="1.0" encoding="utf-8"?>
<!-- Generator: Adobe Illustrator 15.1.0, SVG Export Plug-In . SVG Version: 6.00 Build 0)  -->
<!DOCTYPE svg PUBLIC "-//W3C//DTD SVG 1.1//EN" "http://www.w3.org/Graphics/SVG/1.1/DTD/svg11.dtd">
<svg version="1.1" id="Layer_1" xmlns="http://www.w3.org/2000/svg" xmlns:xlink="http://www.w3.org/1999/xlink" x="0px" y="0px"
	 width="283.465px" height="283.465px" viewBox="857.768 1108.267 283.465 283.465"
	 enable-background="new 857.768 1108.267 283.465 283.465" xml:space="preserve">
<title>Purple Awareness Ribbon</title>
<title>Layer 1</title>
<g>
	<path d="M967.754,1127.574c-1.058,1.224-1.873,2.738-2.498,4.455c0.396,0.774,0.438,2.316,0.125,4.599
		c-0.892,4.597,1.334,17.607,7.326,35.488c10.895-8.282,20.371-12.188,29.463-12.188c8.511,0,16.957,3.382,26.342,10.567
		c6.337-19.269,8.408-33.543,7.38-39.566c-0.117-0.968-0.171-1.739-0.183-2.36c-0.803-1.245-1.639-2.252-2.499-2.936
		c-5.017-3.986-17.957-6.664-32.201-6.664C985.083,1118.97,972.34,1122.267,967.754,1127.574z"/>
	<path d="M999.768,1318.814c-7.653-10.631-17.58-25.263-26.936-41.569c-18.873,25.265-43.55,53.239-75.628,81.896l52.341,21.374
		c2.265-0.4,11.592-8.748,28.025-30.251C984.391,1341.34,992.034,1330.621,999.768,1318.814z"/>
	<path d="M1013.33,1212.191c-3.384,6.785-7.381,14.253-12.069,22.284c6.927,11.974,15.367,25.037,25.475,38.331
		c18.493-35.976,31.299-73.713,24.246-99.625c-7.971-29.292-11.594-39.955-13.226-43.76c0.026,0.397,0.064,0.814,0.114,1.221
		C1039.457,1139.924,1034.207,1170.329,1013.33,1212.191z"/>
	<path d="M963.409,1136.301c0.079-0.583,0.133-1.199,0.158-1.745c-1.681,3.176-5.725,13.269-15.351,44.389
		c-13.109,42.383,35.256,114.464,56.659,143.487c26.752,36.277,53.08,62.739,58.636,63.797l44.073-36.228
		C999.428,1283.453,959.859,1154.576,963.409,1136.301z"/>
</g>
</svg>
