<?xml version="1.0" encoding="utf-8"?>
<!-- Generator: Adobe Illustrator 15.1.0, SVG Export Plug-In . SVG Version: 6.00 Build 0)  -->
<!DOCTYPE svg PUBLIC "-//W3C//DTD SVG 1.1//EN" "http://www.w3.org/Graphics/SVG/1.1/DTD/svg11.dtd">
<svg version="1.1" xmlns="http://www.w3.org/2000/svg" xmlns:xlink="http://www.w3.org/1999/xlink" x="0px" y="0px"
	 width="283.465px" height="283.465px" viewBox="0 0 283.465 283.465" enable-background="new 0 0 283.465 283.465"
	 xml:space="preserve">
<g id="Layer_10">
</g>
<g id="Layer_2">
	<g>
		<path fill="none" d="M157.944,57.65c-0.531,1.287-0.837,2.644-0.933,4.013c-0.01,0.209-0.023,0.416-0.023,0.627
			c0,7.184,5.844,13.027,13.025,13.027c0.098,0,0.186-0.026,0.284-0.029c-0.038,0.025-0.081,0.055-0.118,0.081
			c3.157-0.094,6.286-1.33,8.69-3.735c5.005-5.004,5.005-13.146,0.001-18.149c-3.772-3.772-9.329-4.696-13.98-2.778
			c-0.07,0.042-0.151,0.087-0.203,0.123c-1.435,0.622-2.787,1.495-3.963,2.659c-1.165,1.177-2.038,2.529-2.66,3.964
			C158.029,57.503,157.984,57.583,157.944,57.65z M170.014,51.605c5.893,0,10.687,4.794,10.687,10.685
			c0,5.892-4.794,10.686-10.687,10.686s-10.685-4.793-10.685-10.686C159.329,56.399,164.122,51.605,170.014,51.605z"/>
		<g>
			<path d="M77.364,225.093c-25.846,0-63.043-2.828-70.113-10.4c-0.303,3.426-0.19,6.878,0.364,10.278
				c0.043,0.102,0.095,0.199,0.156,0.286c2.262,6.006,32.55,10.762,69.593,10.762c37.043,0,67.328-4.756,69.592-10.762
				c0.061-0.087,0.113-0.185,0.152-0.286c0.558-3.398,0.665-6.853,0.359-10.275C140.396,222.268,103.206,225.093,77.364,225.093z"/>
			<path d="M77.362,221.972c44.768,0,68.185-6.463,68.185-9.926c-0.548-2.344-8.883-5.236-23.795-7.295
				c0.79,1.755,1.351,3.208,1.593,4.235c0.137,0.579,0.545,2.337-0.674,3.108c-5.359,3.398-26.847,5.18-45.305,5.18
				c-18.438,0-39.916-1.777-45.295-5.176c-0.506-0.321-1.555-1.018-2.328-6.874c-12.856,1.999-20.048,4.611-20.541,6.73
				C9.175,215.509,32.594,221.972,77.362,221.972z"/>
			<path d="M54.629,166.798c-8.84,0-16.857-3.57-22.708-9.331c-1.381,19.731-1.178,50.279,1.428,52.672
				c4.318,2.725,23.252,4.795,44.017,4.795c20.451,0,39.109-2.003,43.828-4.684c0.29-4.604-21.938-40.59-37.234-62.196
				C78.8,159.104,67.609,166.798,54.629,166.798z"/>
			<path d="M54.629,164.457c16.566,0,30.043-13.477,30.043-30.045c0-16.565-13.478-30.043-30.043-30.043
				s-30.044,13.479-30.044,30.044C24.585,150.98,38.063,164.457,54.629,164.457z"/>
			<path d="M170.014,51.605c-5.892,0-10.685,4.794-10.685,10.685c0,5.893,4.792,10.686,10.685,10.686S180.7,68.182,180.7,62.29
				C180.7,56.399,175.906,51.605,170.014,51.605z"/>
			<path d="M275.841,131.94l-12.175-34.246c-0.467-1.308-1.222-2.499-2.202-3.479c-16.569-16.571-43.438-16.569-60.009,0.001
				c-16.571,16.572-16.573,43.44-0.002,60.011c0.982,0.982,2.174,1.733,3.482,2.199l34.246,12.173
				c0.548,0.194,1.101,0.315,1.651,0.406c0.155,0.026,0.313,0.04,0.473,0.058c0.431,0.047,0.858,0.065,1.285,0.051
				c0.131-0.001,0.266,0.003,0.394-0.007c0.539-0.037,1.072-0.122,1.59-0.25c0.103-0.027,0.199-0.063,0.302-0.094
				c0.424-0.121,0.834-0.27,1.238-0.448c0.139-0.063,0.278-0.128,0.412-0.195c0.422-0.213,0.829-0.451,1.215-0.727
				c0.057-0.038,0.116-0.069,0.172-0.112c0.415-0.305,0.793-0.658,1.153-1.035c0.298-0.311,0.557-0.659,0.812-1.011
				c0.125-0.178,0.272-0.334,0.386-0.52c0.35-0.561,0.648-1.159,0.88-1.803c1.731-4.873-0.814-10.229-5.688-11.96l-32.084-11.403
				c-7.351-8.805-7.35-21.607,0.001-30.412c0.466-0.558,0.95-1.087,1.453-1.591c0.037-0.036,0.075-0.066,0.111-0.1
				c0.213-0.21,0.438-0.397,0.656-0.599c0.354-0.323,0.705-0.648,1.073-0.948c0.25-0.203,0.514-0.384,0.77-0.576
				c0.354-0.262,0.707-0.529,1.074-0.771c0.277-0.183,0.565-0.348,0.85-0.52c0.361-0.217,0.721-0.434,1.092-0.63
				c0.304-0.162,0.612-0.306,0.921-0.453c0.365-0.173,0.729-0.344,1.104-0.5c0.32-0.132,0.646-0.251,0.975-0.37
				c0.369-0.135,0.742-0.267,1.118-0.382c0.336-0.104,0.672-0.194,1.011-0.282c0.379-0.1,0.758-0.191,1.139-0.271
				c0.344-0.071,0.689-0.135,1.038-0.191c0.381-0.063,0.763-0.115,1.147-0.159c0.352-0.04,0.702-0.074,1.054-0.096
				c0.385-0.026,0.77-0.042,1.154-0.049c0.354-0.008,0.708-0.013,1.061-0.003c0.387,0.01,0.773,0.034,1.159,0.063
				c0.354,0.024,0.702,0.052,1.055,0.093c0.39,0.045,0.777,0.109,1.165,0.174c0.344,0.06,0.688,0.114,1.029,0.188
				c0.392,0.083,0.779,0.188,1.169,0.293c0.332,0.091,0.668,0.172,0.997,0.278c0.396,0.124,0.784,0.274,1.172,0.422
				c0.317,0.118,0.635,0.229,0.946,0.359c0.406,0.174,0.802,0.375,1.202,0.573c0.285,0.139,0.573,0.267,0.852,0.421
				c0.442,0.238,0.866,0.513,1.296,0.782c0.227,0.146,0.461,0.272,0.686,0.423c0.645,0.438,1.275,0.909,1.886,1.421l11.407,32.081
				c-0.001,0.004,0.002,0.007,0.005,0.014c1.735,4.868,7.091,7.415,11.962,5.678c1.313-0.461,2.5-1.206,3.483-2.189
				c0.2-0.202,0.372-0.421,0.55-0.638c0.109-0.127,0.231-0.247,0.332-0.379c0.188-0.254,0.347-0.524,0.508-0.793
				c0.065-0.108,0.144-0.21,0.205-0.322c0.145-0.26,0.254-0.533,0.374-0.803c0.054-0.131,0.126-0.257,0.176-0.389
				c0.079-0.213,0.132-0.432,0.193-0.65c0.059-0.2,0.135-0.396,0.182-0.6c0.021-0.104,0.025-0.207,0.049-0.31
				C276.515,135.231,276.413,133.543,275.841,131.94z"/>
			<path d="M191.065,105.021L191.065,105.021c2.137-4.502,5.014-8.737,8.732-12.457c3.721-3.72,7.956-6.598,12.458-8.733l0,0
				l0.001-0.001L181.758,53.33c-0.391-0.506-0.805-0.999-1.27-1.464c-5.895-5.895-15.486-5.894-21.383,0.003
				c-1.419,1.418-2.487,3.053-3.223,4.797c-19.724,9.179-64.716,31.519-93.831,46.253c12.637,2.98,22.416,13.367,24.508,26.319
				c24.634-15.565,60.453-38.306,78.396-50.324L191.065,105.021C191.065,105.021,191.065,105.021,191.065,105.021z M178.87,71.634
				c-2.404,2.405-5.533,3.642-8.69,3.735c0.037-0.026,0.08-0.056,0.118-0.081c-0.099,0.003-0.187,0.029-0.284,0.029
				c-7.12,0-12.918-5.747-13.017-12.847c0.002-0.27-0.004-0.539,0.015-0.808c0.096-1.369,0.401-2.726,0.933-4.013
				c0.04-0.067,0.085-0.147,0.12-0.198c0.622-1.435,1.495-2.787,2.66-3.964c1.176-1.164,2.528-2.037,3.963-2.659
				c0.052-0.036,0.133-0.081,0.203-0.123c4.651-1.918,10.208-0.994,13.98,2.778C183.875,58.487,183.875,66.63,178.87,71.634z"/>
		</g>
	</g>
</g>
</svg>
