<?xml version="1.0" encoding="utf-8"?>
<!-- Generator: Adobe Illustrator 15.1.0, SVG Export Plug-In . SVG Version: 6.00 Build 0)  -->
<!DOCTYPE svg PUBLIC "-//W3C//DTD SVG 1.1//EN" "http://www.w3.org/Graphics/SVG/1.1/DTD/svg11.dtd">
<svg version="1.1" id="Layer_2" xmlns="http://www.w3.org/2000/svg" xmlns:xlink="http://www.w3.org/1999/xlink" x="0px" y="0px"
	 width="283.46px" height="283.46px" viewBox="0 0 283.46 283.46" enable-background="new 0 0 283.46 283.46" xml:space="preserve">
<g>
	<circle fill="none" cx="240.979" cy="61.175" r="2.553"/>
	<path fill="none" d="M175.402,187.176l-7.211,2.006c25.691-0.76,46.208-15.117,53.934-38.773
		c5.754-15.171,5.653-31.377,0.877-46.031l0.496,14.265c0.17,9.864-1.963,20.15-5.758,30.088
		C211.326,167.499,192.261,181.728,175.402,187.176z"/>
	<path fill="none" d="M52.719,137.265c-9.848-1.79-19.404-6.71-25.107-12.432l-2.306-2.417c5.293,8.716,15.667,15.8,27.971,18.037
		c8.134,1.478,15.755,0.591,21.85-2.075l-6.221,0.132C64.271,139.127,58.058,138.234,52.719,137.265z"/>
	<path fill="none" d="M116.316,131.093c-9.957-2.865-25.676,0.317-31.788,8.349c-4.227,5.051-7.081,13.625-7.198,19.776l2.528-6.814
		c1.248-3.766,3.97-8.35,6.748-11.657c4.959-6.337,14.337-9.327,21.531-9.325L116.316,131.093z"/>
	<path fill="none" d="M181.8,147.223c10.846-5.665,18.804-14.588,23.279-24.809l-6.77,8.042
		c-4.782,5.48-11.105,10.133-18.227,13.833c-13.009,7.334-31.115,6.367-43.601,1.604l-5.179-2.214
		C146.598,155.067,165.613,156.631,181.8,147.223z"/>
	<path fill="none" d="M189.238,166.413c12.987-7.8,22.46-20.187,27.729-34.429l-8.053,11.168
		c-5.69,7.609-13.248,14.044-21.775,19.14c-15.568,10.104-37.367,8.547-52.446,1.744l-6.258-3.154
		C146.966,176.98,169.866,179.385,189.238,166.413z"/>
	<path fill="none" d="M120.481,198.389c0.101,0.547,0.23,1.064,0.351,1.592c1.458,6.385,4.293,11.342,7.928,14.46l-2.763-4.71
		c-1.865-3.318-3.218-7.57-4.08-12.271c-0.114-0.54-0.211-1.091-0.294-1.65c-1.237-8.388,0.951-18.861,4.069-26.034l1.483-3.157
		C120.715,175.691,118.096,187.642,120.481,198.389z"/>
	<path fill="none" d="M115.165,99.563c9.027,6.36,16.309,15.716,19.364,24.089l1.188,3.489
		c-1.255-11.179-8.353-23.082-19.633-31.027c-7.455-5.253-15.494-7.9-22.833-8.058l6.289,2.753
		C104.465,92.34,110.271,96.116,115.165,99.563z"/>
	<path fill="none" d="M39.784,102.582l5.751-2.42c13.851-5.232,33.796-6.609,47.93,0.793c7.746,3.725,14.592,8.462,19.72,14.096
		l7.253,8.271c-4.677-10.596-13.217-19.764-25.013-25.468C77.841,88.346,56.884,90.367,39.784,102.582z"/>
	<path fill="none" d="M44.853,112.416l4.318-1.816c10.399-3.928,25.373-4.962,35.984,0.596c5.815,2.797,10.955,6.353,14.805,10.582
		l5.445,6.21c-3.511-7.955-9.923-14.839-18.779-19.121C73.424,101.728,57.69,103.245,44.853,112.416z"/>
	<path fill="none" d="M38.908,90.246c10.134-7.663,25.513-8.91,36.582-6.315l4.62,1.277c-14.191-7.861-30.403-7.015-42.983,2.761
		c-8.5,6.012-14.195,14.443-16.804,23.57l4.791-7.553C28.521,98.82,33.325,94.178,38.908,90.246z"/>
	<path fill="none" d="M35.733,76.88c12.203-9.198,30.004-8.733,42.576-3.546l5.234,2.434C67.737,62.821,49.004,61.68,33.839,73.462
		c-10.208,7.137-17.35,18.033-20.986,30.34l6.041-9.806C23.176,87.309,29.03,81.543,35.733,76.88z"/>
	<path fill="none" d="M84.777,125.104c-5.681,2.382-12.227,3.56-19.024,3.717c-12.628,0.72-26.037-6.773-33.753-15.055l-3.113-3.617
		c7.38,14.367,21.255,22.654,37.077,21.542c10.362-0.26,19.745-4.075,26.962-10.176L84.777,125.104z"/>
	<path fill="none" d="M171.902,230.407c-0.121,0.28-0.21,0.563-0.31,0.846c-1.208,3.414-1.04,6.966,0.268,10.176l-0.204-3.41
		c-0.092-2.359,0.464-4.835,1.49-7.238c0.108-0.284,0.23-0.564,0.365-0.839c2.025-4.13,6.976-7.316,11.417-8.644l2.026-0.526
		C179.706,221.124,173.977,224.695,171.902,230.407z"/>
	<path fill="none" d="M186.486,207.481c-14.473,2.712-30.188,0.971-41.029-3.895l-4.439-2.109
		c11.85,9.197,29.828,13.482,47.91,10.093c11.953-2.239,21.959-7.462,28.934-14.329l-8.479,3.449
		C203.337,203.973,194.332,206.01,186.486,207.481z"/>
	<path fill="none" d="M246.039,116.183l3.059,6.471c3.004,4.642,4.625,11.458,5.734,17.386c2.047,10.934-0.414,22.648-5.771,30.604
		l-2.311,3.252c9.729-8.563,14.836-21.881,12.278-35.545C257.337,129.319,252.58,121.643,246.039,116.183z"/>
	<path fill="none" d="M233.114,130.682c2.028,5.143,2.271,12.145,2.185,18.175c-0.153,11.122-4.881,22.12-11.707,28.858l-2.907,2.73
		c11.231-6.471,18.868-18.517,19.063-32.414c0.127-9.186-3.019-17.652-8.352-24.298L233.114,130.682z"/>
	<path fill="none" d="M107.206,187.854c0.184,4.088,1.199,7.938,2.873,11.434c1.516,3.165,3.572,6.04,6.065,8.527l-3.134-6.016
		c-1.482-2.985-2.447-6.323-2.964-9.837c-0.21-1.428-0.354-2.882-0.417-4.358c-0.768-9.48,5.392-19.813,12.292-25.885l3.016-2.458
		C112.892,165.277,106.066,175.985,107.206,187.854z"/>
	<path fill="none" d="M90.784,181.305c-0.364-4.944,0.613-10.227,2.578-15.43c0.319-0.956,0.731-1.892,1.187-2.815
		c4.209-8.521,13.873-15.532,22.691-18.849l4.188-1.409c-15.096,1.815-26.783,10.166-30.692,22.478
		c-0.248,0.66-0.462,1.321-0.662,1.982c-2.205,7.3-1.552,14.677,1.387,21.179L90.784,181.305z"/>
	<path fill="none" d="M99.705,174.888c-1.132,3.756-1.535,7.427-1.305,10.886c0.215,3.231,0.982,6.277,2.243,9.026L100,188.728
		c-0.214-2.485-0.06-5.137,0.391-7.868c0.315-1.908,0.771-3.854,1.366-5.814c2.386-8.897,10.687-17.465,18.237-21.973l3.238-1.789
		C111.51,154.909,102.548,163.72,99.705,174.888z"/>
	<path fill="none" d="M122.492,215.766c-0.62-0.219-1.235-0.441-1.845-0.668c-1.425-0.529-2.821-1.076-4.164-1.619
		c-1.51-0.61-2.985-1.313-4.435-2.074c-0.72-0.378-1.43-0.775-2.134-1.186c-5.56-3.244-10.6-7.454-14.924-11.925
		c-0.189-0.195-0.384-0.39-0.57-0.586c-3.746-3.947-6.933-8.063-9.416-11.855l-2.6-4.169c5.023,14.133,17.853,27.436,34.91,34.328
		c1.738,0.703,3.475,1.311,5.205,1.846c0.163,0.051,0.326,0.102,0.489,0.15c9.325,2.804,18.438,3.218,26.4,1.535l-9.675-0.439
		C134.641,219.474,128.396,217.849,122.492,215.766z"/>
	<path fill="none" d="M168.039,229.931c-1.32-6.227-6.089-10.889-12.506-12.51l1.755,0.894c3.829,2.134,7.94,6.266,9.361,10.858
		c0.095,0.305,0.178,0.614,0.247,0.925c0.692,2.646,0.959,5.284,0.659,7.691l-0.496,3.467c1.46-3.069,1.937-6.688,1.176-10.403
		C168.172,230.546,168.119,230.241,168.039,229.931z"/>
	<path fill="#010101" d="M252.916,73.058c4.26-7.267,11.071-13.449,23.977-11.066c-2.594-3.428-10.264-6.595-16.291-4.304
		c-7.936,3.016-14.035,13.554-13.219,23.363c6.145-3.76,16.811-7.998,26.297-7.414C269.751,69.539,257.695,69.436,252.916,73.058z"
		/>
	<path fill="#010101" d="M241.541,84.432c0.928,7.501,9.772,19.296,15.985,16.908c8.104-3.114,1.508-19.97-4.61-20.904
		c-2.697,1.607-5.568,3.04-8.607,4.304c0.328-4.181,1.506-9.151,1.537-12.604C243.091,75.302,240.781,78.285,241.541,84.432z"/>
	<path fill="#010101" d="M243.292,93.804c-1.107-1.101-2.047-2.37-2.781-3.765c-0.004-0.003-0.006-0.007-0.008-0.01l0.002,0.001
		c-1.127-2.143-1.767-4.581-1.767-7.171c0-3.369,1.082-6.483,2.912-9.021c1.465-2.191,3.485-3.916,5.729-5.393
		c2.008-5.37,6.203-8.552,10.451-11.682c-14-4.436-26.627-0.627-33.813,7.686c-9.759,11.294-13.162,30.522-21.214,45.497
		c-3.649,6.8-8.528,13.824-14.446,18.752c-5.612,4.679-13.854,9.791-23.058,10.452c-5.172,0.371-10.844-0.766-15.983-1.23
		c-6.683-0.601-13.071-0.865-19.085-0.625c-0.691-0.18-1.685-0.28-3.103-0.28c-6.49,0-12.392,1.223-17.664,3.42
		c-2.756,1.148-5.335,2.568-7.742,4.212c-2.808,1.706-5.396,3.751-7.74,6.184c-4.561,4.733-8.431,11.104-10.928,18.533
		c-1.254,3.342-2.235,6.827-2.926,10.399c-1.148,5.937,1.517,12.515,6.568,18.903c5.05,6.388,12.486,12.584,20.879,17.758
		c8.393,5.177,17.866,6.672,26.742,8.973c8.833,1.833,17.167-6.167,27.085,7.209c3.025,5.864,4.519,12.439,2.464,19.049
		c-0.021,0.063-0.031,0.124-0.054,0.188c0.041-0.06,0.091-0.113,0.132-0.171c7.104-9.899,21.588-15.646,31.482-22.512
		c10.146-7.033,18.83-15.545,29.816-20.844c19.383-9.35,35.816-28.707,39.67-55.521c1.328-12.895-0.67-28.373-9.332-40.646
		C247.867,101.218,247.671,99.903,243.292,93.804z M240.979,58.622c1.412,0,2.556,1.143,2.556,2.553
		c0,1.411-1.144,2.554-2.556,2.554c-1.409,0-2.554-1.143-2.554-2.554C238.425,59.764,239.57,58.622,240.979,58.622z
		 M223.001,104.377c4.776,14.654,4.877,30.86-0.877,46.031c-7.726,23.656-28.242,38.014-53.934,38.773l7.211-2.006
		c16.859-5.448,35.924-19.678,42.338-38.445c3.795-9.938,5.928-20.225,5.758-30.088L223.001,104.377z M136.482,145.894
		c12.486,4.763,30.592,5.729,43.601-1.604c7.121-3.7,13.444-8.353,18.227-13.833l6.77-8.042
		c-4.476,10.22-12.434,19.144-23.279,24.809c-16.188,9.408-35.202,7.844-50.497-3.543L136.482,145.894z M134.692,164.036
		c15.079,6.803,36.877,8.36,52.446-1.744c8.527-5.096,16.085-11.53,21.775-19.14l8.053-11.168
		c-5.269,14.243-14.741,26.629-27.729,34.429c-19.372,12.973-42.271,10.567-60.803-5.531L134.692,164.036z M127.175,166.618
		l-1.483,3.157c-3.118,7.173-5.306,17.646-4.069,26.034c0.083,0.56,0.18,1.11,0.294,1.65c0.862,4.701,2.215,8.953,4.08,12.271
		l2.763,4.71c-3.635-3.118-6.47-8.075-7.928-14.46c-0.12-0.527-0.25-1.045-0.351-1.592
		C118.096,187.642,120.715,175.691,127.175,166.618z M121.919,161.719c-6.9,6.072-13.06,16.404-12.292,25.885
		c0.063,1.477,0.208,2.931,0.417,4.358c0.518,3.514,1.482,6.852,2.964,9.837l3.134,6.016c-2.493-2.487-4.549-5.362-6.065-8.527
		c-1.674-3.496-2.689-7.346-2.873-11.434c-1.139-11.869,5.686-22.577,17.73-28.593L121.919,161.719z M119.994,153.073
		c-7.55,4.508-15.851,13.075-18.237,21.973c-0.595,1.96-1.05,3.906-1.366,5.814c-0.451,2.731-0.605,5.383-0.391,7.868l0.643,6.072
		c-1.261-2.749-2.028-5.795-2.243-9.026c-0.23-3.459,0.173-7.13,1.305-10.886c2.844-11.168,11.806-19.979,23.527-23.604
		L119.994,153.073z M90.074,167.262c0.2-0.661,0.415-1.322,0.662-1.982c3.909-12.312,15.596-20.662,30.692-22.478l-4.188,1.409
		c-8.818,3.316-18.481,10.327-22.691,18.849c-0.456,0.924-0.868,1.859-1.187,2.815c-1.965,5.203-2.942,10.485-2.578,15.43
		l0.677,7.136C88.522,181.939,87.869,174.562,90.074,167.262z M123.008,218.008c-0.163-0.049-0.326-0.1-0.489-0.15
		c-1.73-0.535-3.467-1.143-5.205-1.846c-17.057-6.893-29.887-20.195-34.91-34.328l2.6,4.169c2.483,3.793,5.67,7.908,9.416,11.855
		c0.187,0.196,0.381,0.391,0.57,0.586c4.324,4.471,9.364,8.681,14.924,11.925c0.704,0.41,1.414,0.808,2.134,1.186
		c1.449,0.761,2.925,1.464,4.435,2.074c1.343,0.543,2.739,1.09,4.164,1.619c0.61,0.227,1.225,0.449,1.845,0.668
		c5.903,2.083,12.148,3.708,17.241,3.338l9.675,0.439C141.446,221.226,132.333,220.812,123.008,218.008z M167.059,241.256
		l0.496-3.467c0.3-2.407,0.033-5.045-0.659-7.691c-0.069-0.311-0.152-0.62-0.247-0.925c-1.421-4.593-5.532-8.725-9.361-10.858
		l-1.755-0.894c6.417,1.621,11.186,6.283,12.506,12.51c0.08,0.31,0.134,0.615,0.196,0.922
		C168.996,234.569,168.519,238.187,167.059,241.256z M184.928,221.297c-4.441,1.327-9.392,4.514-11.417,8.644
		c-0.135,0.274-0.257,0.555-0.365,0.839c-1.026,2.403-1.582,4.879-1.49,7.238l0.204,3.41c-1.308-3.21-1.476-6.762-0.268-10.176
		c0.1-0.282,0.188-0.565,0.31-0.846c2.075-5.712,7.804-9.283,15.053-9.636L184.928,221.297z M188.927,211.57
		c-18.082,3.39-36.06-0.896-47.91-10.093l4.439,2.109c10.842,4.865,26.557,6.606,41.029,3.895
		c7.846-1.471,16.852-3.508,22.896-6.791l8.479-3.449C210.886,204.108,200.88,209.331,188.927,211.57z M220.684,180.446l2.907-2.73
		c6.826-6.738,11.554-17.736,11.707-28.858c0.086-6.03-0.156-13.032-2.185-18.175l-1.718-6.948
		c5.333,6.646,8.479,15.112,8.352,24.298C239.552,161.929,231.916,173.975,220.684,180.446z M246.75,173.895l2.311-3.252
		c5.357-7.955,7.818-19.67,5.771-30.604c-1.109-5.928-2.73-12.744-5.734-17.386l-3.059-6.471
		c6.541,5.46,11.299,13.137,12.989,22.167C261.585,152.014,256.479,165.333,246.75,173.895z"/>
	<path fill="#010101" d="M112.247,135.123c8.833-2.667,30.001-3.138,43.501,0l-1.392-1.406
		c-9.329-23.293-37.853-49.763-58.563-63.073c-1.658-1.295-4.064-2.698-6.888-4.099c-3.318-1.794-6.272-3.094-8.73-3.825
		c-1.774-0.695-3.572-1.357-5.344-1.967c-1.961-0.845-3.933-1.448-5.903-1.867c-4.033-1.153-7.521-1.871-9.647-1.871
		c-3.422,0-7.861,0.105-12.288,0.652C28.708,58.917,3.816,75.229,6.816,94.729c-0.104,8.833,19.341,44.895,38.346,49.388
		c5.5,3,18.889,0.858,26.333,0.858c4.175,0.373,1.94,19.576,6.083,20.646C83.891,154.473,90.649,141.643,112.247,135.123z
		 M116.083,96.113c11.28,7.945,18.378,19.848,19.633,31.027l-1.188-3.489c-3.055-8.373-10.337-17.729-19.364-24.089
		c-4.893-3.447-10.699-7.222-15.625-8.754l-6.289-2.753C100.589,88.213,108.628,90.86,116.083,96.113z M95.425,97.854
		c11.796,5.704,20.336,14.872,25.013,25.468l-7.253-8.271c-5.128-5.634-11.974-10.371-19.72-14.096
		c-14.134-7.402-34.079-6.025-47.93-0.793l-5.751,2.42C56.884,90.367,77.841,88.346,95.425,97.854z M105.404,127.987l-5.445-6.21
		c-3.85-4.229-8.99-7.785-14.805-10.582c-10.611-5.558-25.585-4.524-35.984-0.596l-4.318,1.816
		c12.838-9.171,28.572-10.688,41.773-3.549C95.481,113.148,101.894,120.033,105.404,127.987z M9.352,95.824
		c1.384-7.644,4.928-15.936,12.128-22.531C31.772,62.311,47.362,58.14,61.831,61.802l-4.504-0.078
		c-10.457-0.818-22.073,1.514-30.854,9.935c-5.406,4.065-11.149,12.377-13.74,17.111L9.352,95.824z M12.854,103.803
		c3.636-12.307,10.778-23.203,20.986-30.34c15.165-11.783,33.898-10.641,49.704,2.306l-5.234-2.434
		c-12.572-5.187-30.373-5.652-42.576,3.546c-6.703,4.663-12.557,10.428-16.839,17.116L12.854,103.803z M20.323,111.539
		c2.609-9.127,8.304-17.558,16.804-23.57c12.58-9.776,28.792-10.622,42.983-2.761l-4.62-1.277
		c-11.069-2.595-26.448-1.348-36.582,6.315c-5.583,3.932-10.387,8.575-13.794,13.74L20.323,111.539z M53.277,140.453
		c-12.304-2.237-22.678-9.321-27.971-18.037l2.306,2.417c5.703,5.722,15.259,10.642,25.107,12.432
		c5.338,0.97,11.552,1.863,16.187,1.245l6.221-0.132C69.032,141.043,61.412,141.931,53.277,140.453z M65.964,131.69
		c-15.822,1.112-29.697-7.175-37.077-21.542L32,113.766c7.716,8.282,21.125,15.775,33.753,15.055
		c6.797-0.157,13.343-1.335,19.024-3.717l8.149-3.589C85.709,127.616,76.326,131.431,65.964,131.69z M86.606,140.746
		c-2.778,3.308-5.5,7.892-6.748,11.657l-2.528,6.814c0.117-6.15,2.971-14.725,7.198-19.776c6.112-8.032,21.831-11.214,31.788-8.349
		l-8.179,0.328C100.943,131.418,91.565,134.409,86.606,140.746z"/>
	<path fill="#010101" d="M209.059,53.123c1.282,0.673,1.642,1.938,2.661,2.72c-1.604,0.967-3.725,2.405-4.536,4.092
		c-1.5,1.313-2.586,3.188-2.688,5.625c2.268,2.233,3.604,2.759,6.318,3.021c2.717,0.263,5.889-0.185,8.283-0.749
		c2.303-6.108,7.478-10.909,14.14-13.511c6.661-2.603,14.81-3.007,23.058-0.323c1.004-0.621,1.828-1.273,2.41-2.098
		c0.584-0.825,0.928-1.821,0.971-3.128c0.15-4.301-2.723-8.901-6.914-12.254s-9.702-5.458-14.827-4.771
		c-0.281,1.594,0.354,3.455,1.079,5.117c0.725,1.661,1.535,3.123,1.604,3.916c-1.571-0.974-3.467-2.384-5.559-3.346
		c-2.093-0.961-4.38-1.473-6.738-0.65c0.33,1.336,1.084,2.323,1.763,3.175c0.68,0.851,1.282,1.566,1.313,2.358
		c-2.77-2.262-8.38-3.506-11.398-3.506c-2.121,2.102-0.938,3.875,0.332,8.118c-2.746-0.432-6.428-0.473-9.427,0.113
		c-2.998,0.587-4.981,0.406-7.218,2.144C203.675,50.627,207.88,51.872,209.059,53.123z"/>
</g>
</svg>
