<?xml version="1.0" encoding="utf-8"?>
<!-- Generator: Adobe Illustrator 15.1.0, SVG Export Plug-In . SVG Version: 6.00 Build 0)  -->
<!DOCTYPE svg PUBLIC "-//W3C//DTD SVG 1.1//EN" "http://www.w3.org/Graphics/SVG/1.1/DTD/svg11.dtd">
<svg version="1.1" id="Layer_1" xmlns:serif="http://www.serif.com/"
	 xmlns="http://www.w3.org/2000/svg" xmlns:xlink="http://www.w3.org/1999/xlink" x="0px" y="0px" width="283.46px"
	 height="283.46px" viewBox="0 0 283.46 283.46" enable-background="new 0 0 283.46 283.46" xml:space="preserve">
<g id="wifi1" serif:id="wifi">
	<path d="M99.144,226.904c-0.293-23.089-19.497-42.293-42.587-42.587l0,0c-7.832-0.001-14.195-6.364-14.196-14.196
		c0.001-7.835,6.362-14.195,14.197-14.197l0,0c39.2,0,70.979,31.779,70.979,70.979c-0.001,7.833-6.363,14.195-14.198,14.197
		C105.506,241.097,99.145,234.736,99.144,226.904L99.144,226.904z M155.927,226.903l-0.004-0.063
		c-0.454-54.253-45.119-98.893-99.364-99.306l0,0c-7.834,0.001-14.195-6.36-14.196-14.196c-0.001-7.835,6.36-14.196,14.196-14.196
		l0,0c70.559,0.001,127.758,57.201,127.76,127.761l0,0c-0.002,7.835-6.363,14.195-14.196,14.195
		C162.288,241.097,155.927,234.737,155.927,226.903L155.927,226.903L155.927,226.903z M155.927,226.902
		c-0.014,0.229-0.004-0.151-0.004-0.063L155.927,226.902z M212.708,226.902l-0.003-0.076
		C212.017,141.533,141.841,71.389,56.557,70.75c-7.835,0.001-14.194-6.358-14.194-14.194c-0.002-7.834,6.359-14.195,14.195-14.195
		l0,0c101.918,0.001,184.539,82.622,184.541,184.541l0,0c0,7.836-6.361,14.197-14.195,14.195
		C219.068,241.097,212.708,234.739,212.708,226.902L212.708,226.902L212.708,226.902z M212.708,226.901l-0.002-0.076
		C212.704,226.62,212.677,227.266,212.708,226.901z"/>
</g>
</svg>
