<?xml version="1.0" encoding="utf-8"?>
<!-- Generator: Adobe Illustrator 15.1.0, SVG Export Plug-In . SVG Version: 6.00 Build 0)  -->
<!DOCTYPE svg PUBLIC "-//W3C//DTD SVG 1.1//EN" "http://www.w3.org/Graphics/SVG/1.1/DTD/svg11.dtd">
<svg version="1.1" id="Layer_3" xmlns="http://www.w3.org/2000/svg" xmlns:xlink="http://www.w3.org/1999/xlink" x="0px" y="0px"
	 width="283.46px" height="283.46px" viewBox="0 0 283.46 283.46" enable-background="new 0 0 283.46 283.46" xml:space="preserve">
<g>
	<path fill="none" d="M78.861,173.007c0.059-0.012,0.116-0.026,0.175-0.036C78.977,172.98,78.919,172.996,78.861,173.007z"/>
	<path fill="none" d="M79.546,172.898c0.055-0.006,0.109-0.016,0.164-0.021C79.656,172.882,79.601,172.893,79.546,172.898z"/>
	<path fill="none" d="M203.644,172.878c0.054,0.004,0.106,0.015,0.163,0.021C203.75,172.893,203.698,172.882,203.644,172.878z"/>
	<path fill="none" d="M204.316,172.971c0.062,0.01,0.118,0.024,0.179,0.038C204.433,172.996,204.375,172.98,204.316,172.971z"/>
	<path fill="none" d="M206.805,173.931c0.027,0.02,0.057,0.035,0.084,0.053C206.862,173.966,206.833,173.949,206.805,173.931z"/>
	<path fill="none" d="M205.604,173.33c0.054,0.021,0.105,0.043,0.157,0.063C205.709,173.373,205.658,173.351,205.604,173.33z"/>
	<path fill="none" d="M206.214,173.599c0.044,0.021,0.086,0.044,0.13,0.064C206.3,173.642,206.258,173.621,206.214,173.599z"/>
	<path fill="none" d="M62.412,175.698c-5.449,0-9.641-2.151-10.143-5.094C52.771,173.546,56.962,175.698,62.412,175.698z"/>
	<path fill="none" d="M76.466,173.982c0.025-0.018,0.053-0.033,0.078-0.05C76.519,173.949,76.493,173.966,76.466,173.982z"/>
	<polygon fill="none" points="140.174,45.665 143.178,45.665 176.83,45.665 176.83,43.152 143.178,43.152 140.174,43.152 
		104.539,43.152 104.539,45.665 	"/>
	<path fill="none" d="M78.211,173.173c0.057-0.018,0.113-0.035,0.169-0.051C78.325,173.138,78.268,173.156,78.211,173.173z"/>
	<path fill="none" d="M77.593,173.394c0.052-0.021,0.102-0.043,0.154-0.063C77.695,173.351,77.645,173.373,77.593,173.394z"/>
	<path fill="none" d="M77.011,173.664c0.041-0.021,0.083-0.043,0.127-0.063C77.094,173.621,77.052,173.642,77.011,173.664z"/>
	<path fill="none" d="M204.972,173.121c0.057,0.018,0.113,0.035,0.171,0.053C205.085,173.156,205.029,173.138,204.972,173.121z"/>
	<path d="M197.869,25.145h31.393c-3.973-5.899-11.172-9.842-19.393-9.842h-12.21c-1.035-4.669-5.933-8.219-11.813-8.219
		c-5.879,0-10.776,3.55-11.812,8.219h-30.856h-3.006h-32.838c-1.035-4.669-5.933-8.219-11.813-8.219
		c-5.879,0-10.778,3.55-11.812,8.219H73.482c-8.221,0-15.42,3.942-19.394,9.842H83.5v2.513H52.656
		c-1.182,2.474-1.838,5.198-1.838,8.062c0,8.646,5.972,16.033,14.401,19.009c0.84-1.503,1.833-2.917,2.977-4.21
		c4.205-4.749,9.881-7.365,15.98-7.365h2.329v-1.31V39.33V17.24v-0.104c0-4.162,4.037-7.538,9.017-7.538
		c4.98,0,9.016,3.376,9.016,7.538v0.104v22.09v2.513v1.31h35.635h3.006h33.651v-1.31V39.33V17.24v-0.104
		c0-4.162,4.036-7.538,9.017-7.538s9.017,3.376,9.017,7.538v0.104v22.09v2.513v1.31h4.313c6.102,0,11.776,2.616,15.98,7.365
		c1.145,1.293,2.136,2.707,2.977,4.21c8.43-2.976,14.402-10.362,14.402-19.009c0-2.863-0.658-5.588-1.839-8.062h-32.827V25.145
		L197.869,25.145z M173.825,27.657h-66.281v-2.513h66.281V27.657z"/>
	<path d="M62.092,123.567v-32.01c-18.551,4.365-32.416,21.194-32.416,41.241c0,1.104,0.051,2.263,0.157,3.545
		c0.146,1.788,1.627,3.164,3.403,3.164h18.98v-10.255C52.218,126.066,56.443,123.656,62.092,123.567z"/>
	<path d="M231.135,129.252v10.255h19.087c1.777,0,3.258-1.376,3.405-3.164c0.104-1.282,0.156-2.441,0.156-3.545
		c0-20.047-13.866-36.876-32.415-41.242v32.015C226.963,123.688,231.135,126.087,231.135,129.252z"/>
	<path d="M241.276,258.569v-11.09h0.002v-18.388h-1.49h-16.919v47.115C233.263,275.028,241.276,267.583,241.276,258.569z"/>
	<path d="M212.35,229.093V240.4v11.089c0,9.746-8.251,17.908-19.22,19.868c2.54,2.055,5.682,3.591,9.193,4.391v0.629h5.346h0.264
		h7.237h4.695v-47.283H212.35L212.35,229.093z"/>
	<path d="M220.943,175.698h-9.084c0.162,0.404,0.281,0.825,0.365,1.257h0.126h27.436h3.796c3.778,0,7.567,0.596,10.093,1.857
		v-33.666c0-1.782-2.862-3.226-6.39-3.226h-16.152v28.085C231.135,173.251,226.752,175.698,220.943,175.698z"/>
	<path d="M243.582,179.466h-3.794h-27.437v22.205v24.908h9.018h18.419h3.794c5.575,0,10.094-1.424,10.094-3.18v-40.754
		C253.675,180.89,249.157,179.466,243.582,179.466z"/>
	<path d="M172.976,123.55c0,0.003-0.001,0.007-0.001,0.01h45.386V81.154C194.082,81.757,174.427,100.271,172.976,123.55z"/>
	<path d="M107.755,123.55c-1.398-22.435-19.706-40.445-42.765-42.262v42.271h42.766C107.756,123.557,107.756,123.553,107.755,123.55
		z"/>
	<path d="M143.178,45.665h-3.006h-35.635H86.506h-2.329c-10.595,0-19.186,9.703-19.186,21.672c0,1.456,0.129,2.877,0.373,4.252
		c-0.237,0.519-0.373,1.074-0.373,1.655v4.276c11.711,0.85,22.683,5.56,31.224,13.503c9.271,8.624,14.728,20.157,15.438,32.536
		h28.522h3.006h25.9c0.709-12.379,6.167-23.912,15.438-32.536c9.174-8.534,21.153-13.338,33.844-13.628v-4.151
		c0-0.581-0.136-1.137-0.373-1.655c0.241-1.375,0.373-2.796,0.373-4.252c0-11.969-8.592-21.672-19.187-21.672h-4.312h-18.033
		H143.178z M153.996,107.329c0,2.95-2.862,5.343-6.389,5.343h-14.772c-3.529,0-6.389-2.393-6.389-5.343v-0.204
		c0-2.95,2.859-5.343,6.389-5.343h14.772c3.526,0,6.389,2.393,6.389,5.343V107.329z"/>
	<path d="M206.889,173.983c-0.027-0.019-0.057-0.034-0.084-0.053c-0.149-0.095-0.305-0.183-0.461-0.267
		c-0.044-0.021-0.086-0.045-0.13-0.065c-0.146-0.073-0.299-0.142-0.453-0.205c-0.052-0.021-0.104-0.043-0.157-0.063
		c-0.15-0.058-0.307-0.107-0.461-0.156c-0.058-0.018-0.114-0.035-0.171-0.053c-0.158-0.043-0.316-0.078-0.478-0.111
		c-0.062-0.014-0.119-0.028-0.179-0.038c-0.168-0.031-0.337-0.054-0.509-0.072c-0.057-0.006-0.109-0.017-0.163-0.021
		c-0.227-0.021-0.457-0.032-0.688-0.032h-14.969v36.245h-18.033v-36.245h-26.776h-3.006h-29.687v36.245H92.454v-36.245H80.397
		c-0.231,0-0.461,0.012-0.687,0.032c-0.055,0.004-0.109,0.015-0.164,0.021c-0.172,0.021-0.342,0.041-0.511,0.072
		c-0.06,0.01-0.117,0.024-0.175,0.036c-0.162,0.035-0.324,0.07-0.48,0.115c-0.056,0.016-0.112,0.033-0.169,0.051
		c-0.156,0.049-0.313,0.1-0.464,0.158c-0.053,0.02-0.103,0.041-0.154,0.063c-0.155,0.063-0.308,0.132-0.455,0.206
		c-0.044,0.021-0.085,0.042-0.127,0.063c-0.161,0.084-0.316,0.174-0.467,0.27c-0.025,0.018-0.053,0.033-0.078,0.05
		c-0.359,0.235-0.693,0.505-0.991,0.806c-0.007,0.008-0.017,0.012-0.024,0.02c-0.901,0.921-1.443,2.098-1.443,3.381v1.279v22.203
		v24.91v13.819v11.089c0,8.242,6.699,15.174,15.791,17.202c1.277,4.402,6.019,7.685,11.671,7.685c5.393,0,9.966-2.983,11.484-7.08
		h27.221h3.005h24.309c1.519,4.097,6.092,7.08,11.484,7.08c5.443,0,10.047-3.043,11.521-7.199
		c10.611-1.016,18.854-8.545,18.854-17.688V240.4v-13.82v-24.908v-22.205v-1.278c0-1.283-0.542-2.461-1.444-3.382
		c-0.008-0.008-0.017-0.012-0.023-0.018C207.58,174.487,207.246,174.219,206.889,173.983z M113.431,211.604
		c1.938,0,3.509,1.595,3.509,3.562v4.354c0,1.967-1.571,3.562-3.509,3.562H89.508c-1.937,0-3.509-1.595-3.509-3.562v-4.354
		c0-1.967,1.57-3.562,3.509-3.562H113.431z M101.469,273.863c-4.979,0-9.016-3.375-9.016-7.537v-20.521l0,0v-20.211h18.032v20.211
		l0,0v20.521C110.486,270.488,106.449,273.863,101.469,273.863z M190.933,211.604c1.937,0,3.509,1.595,3.509,3.562v4.354
		c0,1.967-1.571,3.562-3.509,3.562h-23.925c-1.936,0-3.509-1.595-3.509-3.562v-4.354c0-1.967,1.57-3.562,3.509-3.562H190.933z
		 M178.972,273.863c-4.98,0-9.018-3.375-9.018-7.537v-20.521l0,0v-20.211h18.033v20.211l0,0v20.521
		C187.988,270.488,183.951,273.863,178.972,273.863z"/>
	<path d="M43.565,229.093h-1.489v18.387l0,0v11.09c0,8.701,7.467,15.941,17.334,17.494v-46.971H43.565L43.565,229.093z"/>
	<path d="M71.002,251.489V240.4v-11.309h-8.587v47.264c0.002,0,0.003,0,0.003,0v0.021h0.956h4.811h7.237h0.261h5.347v-0.629
		c3.512-0.8,6.652-2.336,9.192-4.391C79.253,269.397,71.002,261.235,71.002,251.489z"/>
	<path d="M52.269,170.604c-0.033-0.196-0.051-0.396-0.051-0.599V141.92h-16.15c-3.528,0-6.391,1.443-6.391,3.226v33.666
		c2.525-1.264,6.315-1.857,10.093-1.857h3.795h27.437h0.127c0.081-0.432,0.202-0.853,0.364-1.257h-9.082
		C56.962,175.698,52.771,173.546,52.269,170.604z"/>
	<path d="M71.002,201.671v-22.205H43.565H39.77c-5.574,0-10.093,1.424-10.093,3.181V223.4c0,1.756,4.519,3.18,10.093,3.18h3.795
		h17.349h10.089V201.671z"/>
	<path d="M140.174,126.072H64.991h-2.579c-3.969,0-7.189,1.423-7.189,3.18v40.753c0,1.757,3.22,3.181,7.189,3.181H73.16
		c1.725-1.741,4.328-2.853,7.237-2.853h59.777h3.005h59.777c2.91,0,5.513,1.11,7.237,2.853h10.749c3.969,0,7.188-1.424,7.188-3.181
		v-40.753c0-1.757-3.218-3.18-7.188-3.18h-2.579h-75.183H140.174z M185.413,142.405h20.881c0.827,0,1.501,0.563,1.501,1.257
		s-0.674,1.256-1.501,1.256H186.95c0.661,1.44,1.038,2.998,1.038,4.633c0,7.156-6.939,12.957-15.498,12.957h-64.54
		c-8.558,0-15.496-5.801-15.496-12.957c0-1.635,0.377-3.191,1.038-4.633H81.067c-0.829,0-1.503-0.563-1.503-1.256
		s0.674-1.257,1.503-1.257h13.962c2.774-3.5,7.523-5.812,12.922-5.812h64.541C177.89,136.594,182.639,138.905,185.413,142.405z"/>
	<path d="M133.016,142.405H95.028H81.067c-0.829,0-1.503,0.563-1.503,1.257s0.674,1.256,1.503,1.256h12.425h38.739
		C132.296,144.021,132.57,143.173,133.016,142.405z"/>
	<path d="M148.209,144.917h38.74h19.344c0.827,0,1.501-0.563,1.501-1.256s-0.674-1.257-1.501-1.257h-20.881h-37.987
		C147.871,143.173,148.146,144.021,148.209,144.917z"/>
	<path d="M132.207,145.326v8.447c0,3.701,3.588,6.701,8.016,6.701c4.426,0,8.014-3,8.014-6.701v-8.447
		c0-0.138-0.016-0.271-0.025-0.408c-0.064-0.896-0.339-1.744-0.785-2.513c-1.299-2.235-4.032-3.779-7.202-3.779
		c-3.173,0-5.906,1.544-7.204,3.779c-0.446,0.769-0.722,1.615-0.786,2.513C132.22,145.054,132.207,145.188,132.207,145.326z"/>
</g>
</svg>
