<?xml version="1.0" encoding="utf-8"?>
<!-- Generator: Adobe Illustrator 15.1.0, SVG Export Plug-In . SVG Version: 6.00 Build 0)  -->
<!DOCTYPE svg PUBLIC "-//W3C//DTD SVG 1.1//EN" "http://www.w3.org/Graphics/SVG/1.1/DTD/svg11.dtd">
<svg version="1.1" id="Layer_2" xmlns="http://www.w3.org/2000/svg" xmlns:xlink="http://www.w3.org/1999/xlink" x="0px" y="0px"
	 width="283.46px" height="283.46px" viewBox="0 0 283.46 283.46" enable-background="new 0 0 283.46 283.46" xml:space="preserve">
<g>
	<path d="M264.564,7.142c-0.37-0.038-0.746-0.057-1.127-0.057H20.023c-1.141,0-2.243,0.175-3.281,0.5
		c-4.497,1.407-7.784,5.621-7.784,10.565v225.159c0,4.942,3.287,9.157,7.784,10.563c1.038,0.323,2.141,0.5,3.281,0.5h7.316v2.877
		v2.049v2.099v1.705c0,1,0.39,1.938,1.099,2.647l9.528,9.528c0.708,0.707,1.648,1.099,2.649,1.099h3.107h13.452h3.107
		c1.001,0,1.942-0.392,2.649-1.099l9.529-9.528c0.708-0.709,1.098-1.647,1.098-2.647v-1.705v-2.099v-2.049v-2.877h136.342v2.407
		v2.519v2.099v1.705c0,1,0.39,1.938,1.099,2.647l9.528,9.528c0.708,0.707,1.647,1.099,2.649,1.099h3.106h13.451h3.106
		c1,0,1.94-0.392,2.648-1.099l9.529-9.528c0.708-0.709,1.098-1.647,1.098-2.647v-1.705v-2.099v-2.519v-2.407h7.316
		c0.381,0,0.757-0.021,1.127-0.06c5.563-0.567,9.938-5.301,9.938-11.006V18.149C274.501,12.444,270.125,7.711,264.564,7.142z
		 M258.814,233.714c0,2.47-2.009,4.479-4.479,4.479H29.125c-2.47,0-4.479-2.009-4.479-4.479V26.629c0-2.47,2.009-4.479,4.479-4.479
		h225.21c2.47,0,4.479,2.009,4.479,4.479V233.714z"/>
	<path d="M111.857,105.558c-13.83,0-24.895,11.064-24.895,24.895c0,13.832,11.064,24.895,24.895,24.895s24.895-11.063,24.895-24.895
		C136.752,116.622,125.687,105.558,111.857,105.558z M124.646,136.695c0,1.004-0.536,1.932-1.405,2.434l-9.98,5.763
		c-0.434,0.25-0.92,0.377-1.405,0.377s-0.97-0.127-1.405-0.377l-9.98-5.763c-0.869-0.502-1.405-1.429-1.405-2.434V125.17
		c0-1.004,0.536-1.932,1.405-2.434l9.98-5.762c0.434-0.251,0.92-0.376,1.405-0.376s0.97,0.125,1.405,0.376l9.98,5.762
		c0.869,0.502,1.405,1.43,1.405,2.434V136.695z"/>
	<path d="M254.335,25.15H29.125c-0.815,0-1.479,0.664-1.479,1.479v207.085c0,0.815,0.664,1.479,1.479,1.479h225.21
		c0.815,0,1.479-0.663,1.479-1.479V26.629C255.814,25.813,255.151,25.15,254.335,25.15z M158.326,134.878h-9.404
		c-0.543,6.51-3.223,13.01-7.498,17.952l6.391,6.393c1.659,1.658,1.659,4.424,0,6.086c-1.106,0.551-2.213,1.104-3.319,1.104
		c-1.104,0-2.211,0-3.317-1.104l-6.638-6.643c-4.98,4.426-11.618,7.193-18.257,7.746v9.404c0,2.766-2.213,4.426-4.426,4.426
		c-2.212,0-4.426-2.213-4.426-4.426v-8.85c-6.639-1.107-13.277-3.875-18.256-7.746l-7.192,6.086c-1.659,1.66-4.426,1.66-6.085,0
		c-1.66-1.662-1.66-4.426,0-6.086l6.639-6.641c-4.427-4.979-7.192-11.063-7.745-18.256h-9.405c-2.212,0-4.425-2.212-4.426-4.426
		c0-2.766,2.212-4.426,4.425-4.426h9.404c1.106-6.638,3.873-13.277,7.745-18.256l-6.639-6.639c-1.659-1.659-1.659-4.425,0-6.085
		c1.66-1.66,4.426-1.66,6.086,0l6.639,6.639c-0.554,0.553-0.554,0.553-0.554,0.553c5.533-3.872,11.619-7.192,18.81-7.745v-9.405
		c0-2.765,2.213-4.425,4.426-4.425c2.766,0,4.426,2.212,4.426,4.425v9.405c7.192,1.106,13.277,3.873,18.256,7.745l6.639-6.639
		c1.659-1.66,4.424-1.66,6.084,0c0.554,1.106,1.106,2.213,1.106,3.319c0,1.106,0,2.213-1.106,3.319l-6.639,6.639
		c4.426,4.979,7.192,11.065,7.745,18.257h9.404c2.212,0,3.872,1.66,5.532,3.873C162.751,133.218,160.539,134.878,158.326,134.878z
		 M230.242,174.929c0,2.934-2.378,5.313-5.311,5.313h-1.545c-2.932,0-5.311-2.379-5.311-5.313V85.42
		c0-2.934,2.377-5.311,5.311-5.311h1.545c2.933,0,5.311,2.377,5.311,5.311V174.929z"/>
</g>
</svg>
