<?xml version="1.0" encoding="utf-8"?>
<!-- Generator: Adobe Illustrator 15.1.0, SVG Export Plug-In . SVG Version: 6.00 Build 0)  -->
<!DOCTYPE svg PUBLIC "-//W3C//DTD SVG 1.1//EN" "http://www.w3.org/Graphics/SVG/1.1/DTD/svg11.dtd">
<svg version="1.1" id="Layer_1" xmlns:serif="http://www.serif.com/"
	 xmlns="http://www.w3.org/2000/svg" xmlns:xlink="http://www.w3.org/1999/xlink" x="0px" y="0px" width="283.46px"
	 height="283.46px" viewBox="0 0 283.46 283.46" enable-background="new 0 0 283.46 283.46" xml:space="preserve">
<g>
	<defs>
		<rect id="SVGID_1_" x="0" width="283.46" height="283.46"/>
	</defs>
	<clipPath id="SVGID_2_">
		<use xlink:href="#SVGID_1_"  overflow="visible"/>
	</clipPath>
	<g clip-path="url(#SVGID_2_)">
		<path d="M283.46,9.585c0-5.293-4.291-9.585-9.586-9.585C233.08,0,50.382,0,9.586,0C4.293,0,0,4.292,0,9.585
			c0,30.26,0,234.029,0,264.289c0,5.293,4.293,9.586,9.585,9.586c40.796,0,223.494,0,264.289,0c5.295,0,9.586-4.293,9.586-9.586
			C283.46,243.615,283.46,39.845,283.46,9.585L283.46,9.585z M40.547,181.074c-9.32,0-16.559-2.043-21.713-6.125
			c-5.157-4.082-7.732-9.793-7.732-17.135v-2.846h15.588v1.98c0,7.01,4.742,10.515,14.228,10.515c8.579,0,12.867-2.556,12.867-7.669
			c0-1.816-0.39-3.279-1.175-4.393c-0.782-1.113-2.145-2.125-4.082-3.031c-1.939-0.908-4.805-1.898-8.599-2.969l-5.073-1.486
			c-6.105-1.732-10.847-3.566-14.228-5.506c-3.383-1.938-5.817-4.287-7.3-7.052c-1.485-2.763-2.227-6.206-2.227-10.329
			c0-4.456,1.174-8.393,3.526-11.817c2.35-3.422,5.69-6.081,10.021-7.979c4.329-1.896,9.422-2.846,15.28-2.846
			c8.907,0,15.774,2.145,20.6,6.434c4.826,4.29,7.238,10.434,7.238,18.436v1.113h-15.59v-1.979c0-3.384-1.073-5.96-3.215-7.733
			c-2.146-1.773-5.114-2.659-8.91-2.659c-4.207,0-7.422,0.721-9.649,2.165c-2.227,1.442-3.34,3.443-3.34,6
			c0,1.73,0.433,3.135,1.299,4.207c0.866,1.07,2.349,2.041,4.454,2.907c2.102,0.866,5.463,2,10.082,3.401l6.186,1.857
			c7.094,2.143,12.332,4.928,15.713,8.35c3.381,3.424,5.073,7.691,5.073,12.806c0,7.259-2.619,12.972-7.855,17.135
			C56.774,178.99,49.62,181.074,40.547,181.074L40.547,181.074z M241.679,181.074c-10.309,0-18.125-2.27-23.445-6.805
			c-5.32-4.537-7.98-11.219-7.98-20.044v-24.99c0-8.825,2.66-15.507,7.98-20.044c5.32-4.535,13.137-6.805,23.445-6.805
			c20.453,0,30.684,8.785,30.684,26.352v3.838h-15.465v-3.838c0-4.206-1.074-7.256-3.219-9.154
			c-2.143-1.897-6.102-2.846-11.875-2.846c-6.105,0-10.313,1.053-12.621,3.154c-2.311,2.104-3.465,5.178-3.465,9.219v25.238
			c0,3.96,1.219,7.012,3.652,9.155c2.43,2.146,6.576,3.218,12.434,3.218c5.689,0,9.627-0.971,11.814-2.907
			c2.186-1.938,3.279-5.093,3.279-9.466v-3.34h15.465v3.588c0,8.991-2.578,15.651-7.732,19.98
			C259.474,178.909,251.824,181.074,241.679,181.074L241.679,181.074z M205.236,128.617c0,6.514-1.361,11.628-4.082,15.34
			c-2.725,3.713-7.219,6.393-13.486,8.041l17.568,28.333h-17.816L171.46,153.73h-11.26v26.601h-15.465v-77.201h26.725
			c11.875,0,20.475,2.062,25.795,6.187C202.576,113.439,205.236,119.872,205.236,128.617L205.236,128.617z M120.169,164.371h-31.55
			l-6.186,15.96H67.214l31.55-77.201h12.125l31.549,77.201h-16.208L120.169,164.371z M115.097,151.009l-10.393-27.591h-0.248
			l-10.64,27.591H115.097z M160.201,139.998h12.373c4.535,0,8-0.393,10.393-1.175c2.391-0.784,4.082-2,5.07-3.651
			c0.99-1.648,1.486-3.957,1.486-6.928c0-4.041-1.258-6.928-3.773-8.66s-7.115-2.599-13.795-2.599h-11.754V139.998z"/>
	</g>
</g>
</svg>
