<?xml version="1.0" encoding="utf-8"?>
<!-- Generator: Adobe Illustrator 15.1.0, SVG Export Plug-In . SVG Version: 6.00 Build 0)  -->
<!DOCTYPE svg PUBLIC "-//W3C//DTD SVG 1.1//EN" "http://www.w3.org/Graphics/SVG/1.1/DTD/svg11.dtd">
<svg version="1.1" id="Layer_2" xmlns="http://www.w3.org/2000/svg" xmlns:xlink="http://www.w3.org/1999/xlink" x="0px" y="0px"
	 width="283.46px" height="283.46px" viewBox="0 0 283.46 283.46" enable-background="new 0 0 283.46 283.46" xml:space="preserve">
<g>
	<polygon fill="none" points="155.007,67.542 157.328,54.714 102.985,54.714 191.212,142.942 191.212,93.938 183.401,95.936 	"/>
	<path d="M175.395,43.393c0,0.335-0.038,0.664-0.107,0.979l-3.228,17.835l16.166,16.161l13.198-3.373
		c0.368-0.094,0.742-0.14,1.115-0.14c0.99,0,1.965,0.327,2.765,0.947c1.099,0.854,1.742,2.167,1.742,3.559v2.227
		c4.72-7.212,7.766-14.942,8.747-22.428c1.28-9.752-1.118-17.851-6.751-22.803c-3.728-3.276-8.75-5.009-14.526-5.009
		c-7.361,0-15.446,2.759-23.041,7.597C173.684,39.235,175.395,41.104,175.395,43.393z"/>
	<path d="M207.046,158.785l-4.507-4.506V79.361l-15.686,4.007l-19.647-19.642l3.679-20.333H91.661l-4.506-4.506L55.355,7.084
		l-4.002,4.002C34.597,27.848,31.207,87.659,64.282,139.625l0.361,0.567c-3.165,4.693-5.015,10.34-5.015,16.415
		c0,14.393,10.388,26.398,24.058,28.93v50.32c0,0.078,0.02,0.148,0.022,0.225c-6.704,1.279-12.414,4.965-15.543,10.254l-5.86,9.912
		h53.479l-6.095-10.068c-3.093-5.111-8.404-8.629-14.771-9.979c0.007-0.115,0.035-0.227,0.035-0.344v-50.412
		c3.332-0.68,6.46-1.928,9.281-3.631l0.472,0.334c38.267,27.148,77.716,30.082,92.899,30.082c0.003,0,0.003,0,0.003,0
		c19.644,0,35.273-4.367,42.894-11.984l4.002-4.002L207.046,158.785z M89.059,169c-6.844,0-12.392-5.549-12.392-12.393
		s5.547-12.393,12.392-12.393s12.393,5.549,12.393,12.393S95.903,169,89.059,169z M191.212,142.942l-88.228-88.228h54.343
		l-2.32,12.828l28.394,28.394l7.812-1.998V142.942z"/>
	<polygon points="116.49,258.501 61.628,258.501 49.694,258.501 49.694,276.376 128.945,276.376 128.945,258.501 	"/>
</g>
</svg>
