<?xml version="1.0" encoding="utf-8"?>
<!-- Generator: Adobe Illustrator 15.1.0, SVG Export Plug-In . SVG Version: 6.00 Build 0)  -->
<!DOCTYPE svg PUBLIC "-//W3C//DTD SVG 1.1//EN" "http://www.w3.org/Graphics/SVG/1.1/DTD/svg11.dtd">
<svg version="1.1" id="Layer_2" xmlns="http://www.w3.org/2000/svg" xmlns:xlink="http://www.w3.org/1999/xlink" x="0px" y="0px"
	 width="283.46px" height="283.46px" viewBox="0 0 283.46 283.46" enable-background="new 0 0 283.46 283.46" xml:space="preserve">
<g>
	<path d="M177.987,88.916c1.338-1.806,2.139-4.031,2.139-6.444V70.18c0-5.994-4.877-10.871-10.871-10.871h-12.526l-6.839-48.618
		c-0.291-2.068-2.061-3.606-4.148-3.606h-8.021c-2.089,0-3.859,1.538-4.15,3.606l-6.839,48.618h-12.525
		c-5.995,0-10.872,4.877-10.872,10.871v12.292c0,2.414,0.8,4.639,2.137,6.444H177.987L177.987,88.916z M136.747,59.309h1.008h1.298
		h0.157h0.848h3.619h0.572h0.156h2.307c1.777,0,3.218,0.938,3.218,2.095c0,1.158-1.44,2.096-3.218,2.096h-2.307h-0.156h-0.572
		h-3.619h-0.848h-0.157h-1.298h-1.008c-1.777,0-3.218-0.938-3.218-2.096C133.529,60.247,134.97,59.309,136.747,59.309z"/>
	<path d="M180.411,94.435l-1.663-0.83h-74.036l-1.661,0.831c-5.099,2.55-8.267,7.675-8.267,13.376v157.691
		c0,5.994,4.876,10.873,10.871,10.873h72.15c5.995,0,10.871-4.877,10.871-10.873v-157.69
		C188.676,102.111,185.51,96.985,180.411,94.435z M174.981,228.511c0,2.314-1.874,4.191-4.189,4.191s-4.189-1.877-4.189-4.191
		v-8.551c0-2.314,1.874-4.189,4.189-4.189s4.189,1.875,4.189,4.189V228.511z M174.981,202.857c0,2.316-1.874,4.191-4.189,4.191
		s-4.189-1.875-4.189-4.191v-85.513c0-2.314,1.874-4.19,4.189-4.19s4.189,1.875,4.189,4.19V202.857z"/>
</g>
</svg>
