<?xml version="1.0" encoding="utf-8"?>
<!-- Generator: Adobe Illustrator 15.1.0, SVG Export Plug-In . SVG Version: 6.00 Build 0)  -->
<!DOCTYPE svg PUBLIC "-//W3C//DTD SVG 1.1//EN" "http://www.w3.org/Graphics/SVG/1.1/DTD/svg11.dtd">
<svg version="1.1" id="Layer_3" xmlns="http://www.w3.org/2000/svg" xmlns:xlink="http://www.w3.org/1999/xlink" x="0px" y="0px"
	 width="283.46px" height="283.46px" viewBox="0 0 283.46 283.46" enable-background="new 0 0 283.46 283.46" xml:space="preserve">
<g>
	<circle fill="none" cx="189.478" cy="36.996" r="17.283"/>
	<circle fill="none" cx="93.98" cy="36.997" r="17.283"/>
	<circle fill="none" cx="141.73" cy="115.099" r="2.379"/>
	<path d="M189.478,7.084c-16.493,0-29.912,13.418-29.912,29.912c0,6.461,2.086,12.709,5.918,17.853l-23.248,46.295
		c-0.003,0.006-0.006,0.012-0.009,0.018c-0.165-0.006-0.33-0.009-0.496-0.009c-0.185,0-0.37,0.004-0.554,0.011l-23.233-46.266
		c3.854-5.151,5.949-11.411,5.949-17.902c0-16.494-13.418-29.912-29.912-29.912S64.069,20.503,64.069,36.997
		c0,16.493,13.418,29.911,29.911,29.911c2.446,0,4.858-0.293,7.206-0.876l24.475,48.738c0.091,0.181,0.196,0.352,0.303,0.522
		c-0.273,0.727-0.511,1.465-0.698,2.215L95.3,238.242c-0.749,3.02-0.787,6.1-0.112,9.152l3.411,15.461l2.983,13.52l4.216-13.188
		l35.616-111.416l35.614,111.416l4.216,13.188l2.984-13.52l3.411-15.461c0.675-3.055,0.637-6.133-0.113-9.15l-29.966-120.736
		c-0.113-0.458-0.251-0.914-0.401-1.37c0.18-0.256,0.348-0.523,0.489-0.807l24.502-49.332c2.387,0.604,4.84,0.908,7.327,0.908
		c16.494,0,29.913-13.418,29.913-29.911C219.391,20.503,205.972,7.084,189.478,7.084z M189.478,54.28
		c-9.545,0-17.284-7.738-17.284-17.283c0-9.545,7.739-17.284,17.284-17.284s17.283,7.738,17.283,17.284
		C206.761,46.542,199.022,54.28,189.478,54.28z M76.697,36.997c0-9.545,7.738-17.284,17.283-17.284s17.283,7.738,17.283,17.284
		c0,9.545-7.738,17.283-17.283,17.283S76.697,46.542,76.697,36.997z M144.109,115.099c0,1.313-1.065,2.379-2.379,2.379
		c-1.314,0-2.379-1.065-2.379-2.379c0-1.314,1.065-2.379,2.379-2.379C143.044,112.72,144.109,113.785,144.109,115.099z"/>
</g>
</svg>
