<?xml version="1.0" encoding="utf-8"?>
<!-- Generator: Adobe Illustrator 15.1.0, SVG Export Plug-In . SVG Version: 6.00 Build 0)  -->
<!DOCTYPE svg PUBLIC "-//W3C//DTD SVG 1.1//EN" "http://www.w3.org/Graphics/SVG/1.1/DTD/svg11.dtd">
<svg version="1.1" id="Layer_12" xmlns="http://www.w3.org/2000/svg" xmlns:xlink="http://www.w3.org/1999/xlink" x="0px" y="0px"
	 width="283.465px" height="283.465px" viewBox="0 0 283.465 283.465" enable-background="new 0 0 283.465 283.465"
	 xml:space="preserve">
<g>
	<path d="M47.89,221.239c4.285,13.996,14.934,31.517,25.135,34.939c0.111,0.035,0.224,0.066,0.336,0.1
		c0.221,0.067,0.441,0.136,0.661,0.19c1.732,0.455,3.544,0.7,5.411,0.7c4.544,0,8.768-1.437,12.283-3.896h0.425
		c1.69-1.205,3.14-2.693,4.277-4.419c3.23-4.038,5.178-9.241,5.178-14.924c0-4.559-1.256-8.807-3.419-12.395
		c-0.157-0.557-0.244-1.133-0.244-1.716c0-6.563,5.339-11.902,11.902-11.902h105.75l19.113-121.721l3.217-20.482
		c2.498-6.363,3.533-13.069,3.085-19.643l0.061-0.386c0.228-1.453-0.001-2.803-0.575-3.931c-0.396-2.333-0.973-4.636-1.754-6.883
		c-3.563-10.244-10.742-18.246-20.218-22.532c-4.079-1.845-8.392-2.91-12.847-3.198c-0.372-0.078-0.757-0.121-1.152-0.121H46.796
		c-0.246,0-0.487,0.021-0.725,0.053c-0.241-0.005-0.48-0.019-0.722-0.019C29.633,9.054,14.708,18.775,7.328,33.821
		c-0.217,0.442-0.287,0.938-0.211,1.418c-0.015,0.167-0.026,0.336-0.026,0.507c0,3.067,2.487,5.554,5.555,5.554h58.396
		c0.327,1.327,0.562,2.688,0.714,4.071c-0.02,0.104-0.047,0.208-0.063,0.313l-2.479,16.513c-0.107,0.392-0.167,0.801-0.184,1.222
		l-3.419,22.777L46.769,211.712l0,0C46.71,214.649,46.974,218.245,47.89,221.239z M23.48,30.191
		c5.854-6.154,13.731-9.84,21.849-9.841c3.716,0,7.299,0.77,10.651,2.285c3.881,1.756,7.135,4.366,9.674,7.556H23.48z
		 M93.798,56.202c0.388-2.556,2.793-4.635,5.369-4.635h68.262h0.001c2.571,0,4.351,2.08,3.956,4.635
		c-0.394,2.556-2.815,4.634-5.385,4.634H166H97.764C95.188,60.836,93.411,58.758,93.798,56.202z M188.859,187.457
		c-0.398,2.556-3.394,4.63-6.685,4.63H81.69c-3.089,0-5.355-1.824-5.307-4.157c0.003-0.154,0.017-0.313,0.041-0.473
		c0.387-2.559,3.375-4.634,6.67-4.634h100.522C186.911,182.823,189.261,184.9,188.859,187.457z M194.135,153.623
		c-0.398,2.557-3.397,4.632-6.693,4.632H86.817c-0.02,0-0.039-0.003-0.059-0.003h-1.064c-3.089,0-5.355-1.823-5.308-4.156
		c0.003-0.155,0.017-0.313,0.041-0.473c0.387-2.559,3.375-4.634,6.67-4.634h1.124h99.398h1.263
		C192.183,148.989,194.537,151.066,194.135,153.623z M198.139,119.746c-0.398,2.559-3.397,4.637-6.693,4.637H90.821
		c-3.298,0-5.661-2.078-5.274-4.637c0.388-2.558,3.379-4.634,6.679-4.634h100.662C196.187,115.112,198.541,117.189,198.139,119.746z
		 M203.438,85.75c-0.398,2.558-3.399,4.631-6.701,4.631h-0.001H95.975c-3.304,0-5.669-2.075-5.283-4.631
		c0.387-2.555,3.382-4.635,6.686-4.634h100.801c3.099,0,5.36,1.826,5.303,4.161C203.478,85.433,203.464,85.591,203.438,85.75z"/>
	<path d="M271.53,215.605c-0.171-0.066-0.348-0.107-0.525-0.134c-0.947-0.754-2.146-1.207-3.451-1.207H214.59H109.835
		c-3.068,0-5.554,2.486-5.554,5.555c5.097,9.266,4.18,20.088-0.477,28.594c-3.68,9.028-12.279,14.225-21.658,14.652
		c-0.385,0.022-0.772,0.033-1.161,0.039c-0.031,0-0.063,0.003-0.094,0.003c-0.726,0.145-1.478,0.214-2.25,0.214
		c-2.906,0-6.102-0.979-9.291-2.597c-3.484-1.507-6.732-3.684-9.565-6.412c-1.693-1.559-3.344-3.379-4.919-5.391
		c-1.538-1.837-2.867-3.702-3.887-5.506c-0.361-0.432-0.692-0.845-1.01-1.252h-2.058c-3.068,0-5.554,2.487-5.554,5.555
		c0,0.171,0.01,0.339,0.025,0.507c-0.076,0.48-0.005,0.976,0.211,1.418c7.381,15.046,22.306,24.767,38.022,24.767
		c0.242,0,0.482-0.014,0.722-0.019c0.239,0.031,0.479,0.053,0.725,0.053h157.718c0.396,0,0.78-0.043,1.152-0.121
		c4.455-0.288,8.767-1.354,12.846-3.198c9.476-4.286,16.656-12.288,20.218-22.532c3.529-10.152,3.123-21.404-1.145-31.686
		C272.607,216.313,272.129,215.843,271.53,215.605z M263.12,252.162l-149.77,1.11c1.229-6.165,3.785-12.776,4.538-20.747
		c-0.466-0.875-0.739-1.902-0.739-3.008c0-3.16,2.196-5.721,4.904-5.721h139.287c1.154,0,2.211,0.467,3.05,1.243
		c0.156,0.027,0.313,0.068,0.462,0.138c0.529,0.244,0.777,0.823,1.17,1.341C270.803,232.821,266.219,244.054,263.12,252.162z"/>
</g>
</svg>
