<?xml version="1.0" encoding="utf-8"?>
<!-- Generator: Adobe Illustrator 15.1.0, SVG Export Plug-In . SVG Version: 6.00 Build 0)  -->
<!DOCTYPE svg PUBLIC "-//W3C//DTD SVG 1.1//EN" "http://www.w3.org/Graphics/SVG/1.1/DTD/svg11.dtd">
<svg version="1.1" id="Layer_1" xmlns="http://www.w3.org/2000/svg" xmlns:xlink="http://www.w3.org/1999/xlink" x="0px" y="0px"
	 width="283.46px" height="283.46px" viewBox="0 0 283.46 283.46" enable-background="new 0 0 283.46 283.46" xml:space="preserve">
<g id="XMLID_1_">
	<g>
		<path d="M217.573,67.434c-7.428-2.13-19.165,0.08-27.885-0.742c-1.052,0.297-1.563,1.132-1.348,2.695
			c0.473,1.685,23.141,3.248,29.407,0.418c0.82,0.377,1.645,0.148,1.59-1.726c0-0.013,0-0.026,0-0.04
			c-0.728-0.31-1.307-0.512-1.751-0.606H217.573z M213.125,157.623c-20.89-1.955-45.891,0.189-67.912-0.634
			c-1.05,0.297-1.563,1.132-1.348,2.695c1.24,4.381,45.675,1.348,51.213,1.348c2.211,0,24.313,1.793,24.313-2.306
			c0.014-0.053,0-0.134-0.013-0.201c-0.015-0.054-0.015-0.121-0.041-0.188c-2.642-0.377-4.622-0.593-6.078-0.701
			C213.218,157.623,213.177,157.623,213.125,157.623z M112.867,112.514c-0.054,1.859,0.634,2.965,1.348,4.043
			c12.52-0.782,28.072,1.469,38.936-0.984c0.04,0,0.069,0,0.108-0.027c0.419-0.081,0.875-0.189,1.387-0.337
			c0-0.04,0.014-0.067,0-0.108c0.095-2.157-0.929-2.668-2.048-2.439C144.672,108.66,116.198,110.317,112.867,112.514z
			 M172.961,67.379c-26.751-2.048-57.735,0.134-85.701-0.688c-1.051,0.297-1.563,1.132-1.348,2.695
			c1.065,3.76,71.253,3.423,89.852,0.27c2.318,0.067,4.271-0.297,4.462-1.497c0.014-0.04,0.027-0.081,0.027-0.121
			c-0.296-0.027-0.594-0.067-0.89-0.094c-2.344-0.256-4.258-0.418-5.821-0.526c-0.04-0.014-0.082-0.014-0.121-0.014
			C173.259,67.406,173.112,67.393,172.961,67.379z M132.22,157.676c-13.18-2.048-30.565,0.121-44.959-0.688
			c-1.051,0.297-1.563,1.132-1.348,2.695c0.688,2.411,39.083,3.787,48.019,0.242c0.97-0.026,1.752-0.458,1.847-1.59
			c-1.456-0.337-2.615-0.553-3.504-0.66C132.262,157.663,132.235,157.663,132.22,157.676z M103.96,112.716
			c-3.167-3.692-14.866-1.334-18.046-0.202c0,1.348,0,2.695,0,4.043c5.835-0.553,13.935,1.159,18.194-0.971
			c0.014-0.013,0.027-0.013,0.041-0.026c0.188-0.068,0.391-0.189,0.633-0.351c0-0.067,0-0.135,0-0.202
			C104.862,112.73,104.417,112.352,103.96,112.716z M219.336,42.433c-1.05-7.21-121.429-4.165-133.423-1.348
			c0,1.348,0,2.695,0,4.043c26.361,0,52.708,0,79.07,0C170.994,45.128,220.429,45.978,219.336,42.433
			C220.726,46.961,218.651,37.743,219.336,42.433z M87.261,182.595c-1.293,1.59-1.751,3.396-1.348,5.392
			c41.227-0.838,85.567,1.469,125.35-0.838c0.594-0.013,1.173-0.052,1.768-0.093c0.121,0,0.254,0,0.375-0.028
			c0.5-0.027,1.011-0.052,1.551-0.093c1.011-0.055,2.075-0.136,3.222-0.216c0.377-0.028,0.768-0.055,1.158-0.08
			c0.014-0.069,0.014-0.121,0.014-0.177c0-0.095-0.014-0.188-0.026-0.269v-0.013c-1.377-6.618-53.451-3.586-60.095-3.586
			C135.239,182.595,111.25,182.595,87.261,182.595z M57.208,18.754c-1.819-3.005-4.744-6.645-3.908-10.445
			c-0.958,4.905,9.622-0.917,0.269-0.917c15.337,0,28.976-1.712,42.79,5.445c15.081,7.816,26.024-5.445,40.661-5.445
			c18.613,0,37.224,0.162,55.821-0.243c19.327-0.417,30.054,0.835,44.017,13.72c2.223,12.304,7.614,52.197-2.466,60.876
			c-4.893,4.219-12.561,8.221-8.828,16.227c2.763,5.943,11.389,6.092,12.642,13.194c-0.81,30.634,1.672,64.57-1.348,92.993
			c-4.137,2.601-6.105,7.372-9.434,10.782c-34.812,0.296-69.637-0.311-104.448-0.068c-17.116,0.121-64.488,0.579-43.801,32.413
			c3.625,7.156,12.736,8.827,24.259,8.086c-3.8,22.426-24.663,20.04-39.083,10.782c-9.286-17.507-3.638-43.384-4.366-62.427
			c-0.418-10.971-1.213-22.034-0.337-32.99c0.701-8.789,5.795-14.933,7.398-23.181c-0.404-9.34-6.738-15.297-6.738-25.405
			c0-15.755,0-31.509,0-47.264c0-13.14,0-26.267,0-39.394C60.307,28.943,60.617,24.387,57.208,18.754z"/>
		<path d="M115.551,221.221c-0.108,0-0.229,0.013-0.337,0.013c-0.229,0.014-0.445,0.014-0.674,0.028
			c-0.054,0.015-0.108,0.015-0.162,0.015c-2.237,0.08-4.461,0.173-6.671,0.268c12.642-0.58,17.938-0.82,19.03-0.863
			c-1.024,0.053-5.324,0.269-9.852,0.484c-0.337,0.014-0.66,0.028-0.997,0.041C115.78,221.207,115.657,221.221,115.551,221.221z"/>
		<path d="M107.706,221.543c2.21-0.094,4.434-0.189,6.671-0.27c-4.677,0.216-8.989,0.405-9.582,0.405
			C105.765,221.638,106.737,221.584,107.706,221.543z"/>
		<path d="M102.085,274.24c-2.897-3.369,3.76-11.511,5.014-14.461c4.649-10.916,1.604-24.098,0.377-35.404
			c-1.469-0.337-0.917-2.669-2.682-2.695c0.593,0,4.905-0.189,9.582-0.405c0.054,0,0.108,0,0.162-0.014
			c0.229-0.014,0.444-0.014,0.674-0.028c0.107,0,0.229-0.014,0.337-0.014c0.107,0,0.229-0.013,0.337-0.013
			c0.337-0.015,0.66-0.029,0.997-0.04c46.294-1.739,99.191-1.511,144.232,0.511c2.587,3.248,6.334,5.352,9.434,8.087
			c4.435,10.323,4.03,30.58-2.695,37.735c-17.008,14.664-57.87,6.738-78.733,6.738C160.104,274.24,131.102,274.24,102.085,274.24z"
			/>
		<path d="M103.434,249.981c-9.165-0.013-19.798,1.549-21.766-9.179c-2.035-10.971,4.973-23.503,15.068-19.785
			c1.765,2.251,6.172,6.456,5.539,3.936C104.485,231.49,103.016,241.679,103.434,249.981z"/>
		<path d="M102.276,224.954c0.633,2.521-3.774-1.685-5.539-3.936c1.509,0.553,3.086,1.469,4.717,2.804
			c0.013,0,0.027,0.014,0.04,0.039c0.189,0.164,0.391,0.337,0.593,0.514c0.054,0.147,0.108,0.281,0.135,0.404
			C102.261,224.833,102.276,224.9,102.276,224.954z"/>
		<path d="M101.453,223.822c-1.631-1.335-3.208-2.251-4.717-2.804C95.32,219.212,95.591,218.671,101.453,223.822z"/>
		<path d="M55.091,36.732c-0.013,0.148-0.027,0.296-0.04,0.458c0,0,0.013,0.014,0,0.014c-0.027,0.391-0.081,0.782-0.135,1.186
			C47.438,39.051,55.873,26.301,55.091,36.732z"/>
		<path d="M54.916,38.39c0.054-0.404,0.108-0.795,0.135-1.186C55.025,37.568,54.97,37.972,54.916,38.39z"/>
		<path d="M53.312,8.228c0.013-0.081,0.04-0.175,0.067-0.27c0.054-0.189,0.122-0.377,0.188-0.566c9.353,0-1.227,5.822-0.269,0.917
			C53.298,8.282,53.312,8.255,53.312,8.228z"/>
		<path d="M39.592,44.455c2.561-1.348,5.081,3.059-0.849,0.674c0.135-0.162,0.297-0.297,0.458-0.418c0-0.013,0-0.013,0.014-0.013
			C39.336,44.603,39.458,44.522,39.592,44.455z"/>
		<path d="M39.592,44.455c-0.134,0.068-0.256,0.148-0.377,0.243C39.336,44.589,39.471,44.508,39.592,44.455z"/>
		<path d="M54.916,65.344c-2.763,2.089-12.062,2.089-14.825,0c2.588-4.892,5.243-17.561-1.348-20.216
			c5.93,2.385,3.41-2.021,0.849-0.674c3.342-1.981,10.769,0.108,15.324-0.674C54.916,50.964,54.916,58.161,54.916,65.344z"/>
		<path d="M39.201,44.71c-0.161,0.121-0.323,0.256-0.458,0.418C38.891,44.966,39.053,44.818,39.201,44.71z"/>
		<path d="M37.532,59.899c-4.259,8.005-16.105,8.383-23.046,4.097c-6.955-12.265-6.874-46.577,7.682-53.073
			c19.784-8.814,34.649,6.401,32.924,25.809c0.782-10.432-7.655,2.318-0.175,1.657c-7.843,0.688-18.585-1.509-24.259,1.348
			C30.2,48.309,42.748,50.102,37.532,59.899z"/>
	</g>
</g>
</svg>
