<?xml version="1.0" encoding="utf-8"?>
<!-- Generator: Adobe Illustrator 15.1.0, SVG Export Plug-In . SVG Version: 6.00 Build 0)  -->
<!DOCTYPE svg PUBLIC "-//W3C//DTD SVG 1.1//EN" "http://www.w3.org/Graphics/SVG/1.1/DTD/svg11.dtd">
<svg version="1.1" id="Layer_3" xmlns="http://www.w3.org/2000/svg" xmlns:xlink="http://www.w3.org/1999/xlink" x="0px" y="0px"
	 width="283.46px" height="283.46px" viewBox="0 0 283.46 283.46" enable-background="new 0 0 283.46 283.46" xml:space="preserve">
<g>
	<path d="M274.796,231.673c-3.156-3.192-8.227-2.631-13.15-2.631c-5.078,0-10.948,0-16.3,0c-11.187,0-22.654,0.429-32.089-0.525
		c2.302-38.084,13.109-73.279,21.041-107.821c0.625-2.735,1.299-4.524,1.578-6.838c0.057-0.491,0.492-0.884,0.526-1.052
		c1.011-4.987,2.687-11.846,3.156-15.781c0.203-1.683,0.356-1.465,0.524-2.63c0.26-1.796,0.4-2.083,0.526-3.156
		c1.173-9.749,3.052-19.302,3.683-28.925c0.399-6.059,1.207-15.676,0-20.515c-0.406-1.634-0.414-3.212-0.525-3.682
		c-0.385-1.543-0.203-1.473-0.525-2.623c-0.506-1.795-1.853-4.25-2.104-5.26c-0.491-1.971-1.157-2.139-2.104-3.682
		c-0.314-0.512-0.273-1.157-0.525-1.578c-1.17-1.978-3.514-4.51-4.733-5.787c-0.806-0.842-1.381-1.017-2.104-1.578
		c-0.441-0.344-0.616-1.206-1.051-1.578c-0.834-0.715-1.404-0.737-2.104-1.052c-0.161-0.077-0.343-0.919-0.526-1.052
		c-0.428-0.301-1.199-0.301-1.576-0.526c-0.43-0.253-1.066-0.751-1.578-1.052c-1.201-0.708-2.308-1.725-3.156-2.104
		c-0.436-0.196-1.122,0.141-1.578,0c-0.197-0.063-0.78-0.961-1.053-1.052c-1.508-0.526-3.549-0.856-4.209-1.052
		c-1.935-0.589-3.26-0.056-4.733-1.052c-56.271,0-112.555,0-168.833,0c0.105,0.47-0.21,0.47-0.526,0.526
		c-9.608,1.802-16.18,5.183-22.086,11.046c-1.192,1.185-2.806,2.581-3.682,3.682c-0.364,0.449-0.561,1.88-1.052,2.63
		c-0.4,0.61-1.255,1.038-1.578,1.578c-1.697,2.791-2.651,5.638-3.682,9.461c-0.442,1.655-0.688,3.331-1.052,5.26
		c-0.007,0.035-0.484-0.021-0.526,0c0,2.454,0,4.909,0,7.364c1.08,0.856,1.326,2.532,2.104,3.682
		c3.571,2.798,8.768,2.104,13.677,2.104c5.197,0,10.409,0,15.774,0c10.829,0,22.191-0.428,31.562,0.526
		c-2.231,39.017-14.287,77.417-22.62,113.608c-0.926,4.047-2.265,9.63-2.63,12.625c-0.196,1.676-0.295,1.486-0.526,2.63
		c-0.063,0.337,0.084,0.724,0,1.052c-0.063,0.26-0.533,0.575-0.526,0.526c-0.421,2.224-0.098,3.556-0.526,5.26
		c-0.898,3.584-1.466,8.269-2.104,12.618c-1.192,8.164-2.244,16.518-2.63,24.724c-0.217,4.755-0.231,11.685,0.526,14.202
		c0.147,0.477-0.084,1.087,0,1.578c0.589,3.205,1.809,6.495,2.63,8.417c0.666,1.543,0.982,2.701,1.578,3.683
		c1.143,1.852,1.691,2.266,2.63,3.683c1.431,2.125,2.707,3.752,4.208,5.253c1.683,1.684,3.563,3.072,5.26,4.208
		c0.652,0.435,1.129,1.305,1.578,1.577c0.673,0.414,1.431,0.147,2.104,0.527c0.568,0.321,1.066,1.332,1.578,1.577
		c0.659,0.322,1.816,0.183,2.63,0.526c0.273,0.119,1.381,0.814,2.104,1.052c1.269,0.429,2.23,0.724,3.682,1.052
		c1.291,0.295,2.883,0.352,4.208,1.053c56.103,0,112.205,0,168.308,0c0.07-0.729,0.856-0.414,1.578-0.525
		c4.545-0.702,8.389-2.048,11.573-3.684c7.646-3.92,13.614-10.064,17.353-17.352c0.449-0.877,0.597-2.076,1.052-3.156
		c0.112-0.26,0.919-0.736,1.053-1.052c0.126-0.295-0.077-0.743,0-1.053c0.09-0.356,0.504-0.455,0.524-0.525
		c0.822-2.692,0.484-5.499,1.578-7.364c0-2.279,0-4.56,0-6.838C275.535,234.093,275.039,233.02,274.796,231.673z M24.442,38.638
		c3.016-9.65,12.842-16.937,24.717-15.773c1.136,0.112,1.136,0.147,2.63,0.525c0.386,0.091,1.347,0.133,2.63,0.526
		c0.323,0.099,0.807,0.948,1.052,1.052c0.968,0.401,2.314,0.582,3.156,1.053c0.365,0.197,0.737,0.856,1.053,1.052
		c0.364,0.224,1.178,0.217,1.578,0.526c0.821,0.617,1.396,1.865,2.104,2.63c0.392,0.414,1.234,0.611,1.578,1.052
		c1.235,1.585,2.89,4.637,3.682,7.357C53.892,38.638,39.164,38.638,24.442,38.638z M104.386,230.619
		c-2.988,2.848-2.083,6.102-2.63,8.942c-0.54,2.813-1.214,5.751-2.631,8.417c-0.139,0.266-0.49-0.064-0.525,0.525
		c-0.071,1.416-3.648,5.533-5.261,6.838c-1.417,1.143-3.703,2.068-5.783,3.158c-0.331,0.172-0.742,0.348-1.183,0.522
		c-0.782,0.308-1.714,0.606-2.748,0.862c-0.113,0.029-0.222,0.061-0.338,0.087c-0.226,0.053-0.46,0.099-0.694,0.147
		c-0.216,0.045-0.432,0.088-0.654,0.127c-0.209,0.039-0.419,0.071-0.633,0.104c-0.263,0.04-0.53,0.075-0.799,0.106
		c-0.195,0.023-0.388,0.045-0.586,0.064c-0.311,0.027-0.625,0.047-0.94,0.064c-0.165,0.006-0.328,0.02-0.494,0.024
		c-0.484,0.013-0.969,0.013-1.451-0.009c-0.463-0.027-1.143,0.127-1.578,0c-0.259-0.084-0.582-0.54-0.525-0.525
		c-1.544-0.217-3.36-0.07-4.734-0.525c-0.045-0.016-0.092-0.043-0.138-0.076c-0.014-0.012-0.028-0.025-0.042-0.037
		c-0.033-0.027-0.066-0.055-0.099-0.087c-0.014-0.015-0.029-0.032-0.043-0.048c-0.033-0.035-0.066-0.069-0.099-0.108
		c-0.014-0.017-0.029-0.036-0.044-0.054c-0.032-0.039-0.064-0.077-0.096-0.117c-0.178-0.223-0.348-0.447-0.49-0.523
		c-0.197-0.112-0.919,0.16-1.052,0c-0.316-0.387-1.613-0.955-2.63-1.578c-3.03-1.866-5.323-4.047-7.364-7.364
		c-0.771-1.257-1.403-2.42-2.104-3.683c-0.533-0.969-1.382-5.051-1.578-7.364c-0.582-6.866,0.449-14.015,1.052-21.041
		c0.149-1.718,0.314-3.378,0.488-5.009c0.255-2.396,0.537-4.709,0.842-6.963c0.007-0.06,0.015-0.121,0.023-0.181
		c0.118-0.869,0.242-1.724,0.367-2.577c0.056-0.381,0.11-0.764,0.167-1.142c0.114-0.759,0.232-1.513,0.351-2.263
		c0.075-0.474,0.151-0.946,0.228-1.416c0.112-0.686,0.226-1.369,0.342-2.049c0.094-0.55,0.189-1.1,0.286-1.648
		c0.107-0.607,0.214-1.217,0.323-1.822c0.124-0.688,0.252-1.376,0.379-2.064c0.088-0.472,0.174-0.942,0.263-1.416
		c0.221-1.172,0.446-2.347,0.676-3.531c1.067-5.499,2.056-11.061,3.683-16.833c1.486-5.253,3.275-13.019,4.734-18.937
		c1.367-5.549,2.791-11.419,4.208-17.354c1.093-4.594,2.244-9.132,3.156-13.677c0.393-1.956,1.347-6.269,2.104-8.942
		c2.034-7.21,3.387-17.724,4.734-26.294c0.337-2.189,0.779-4.062,1.053-6.313c0.778-6.531,1.199-12.562,1.578-20.516
		c-0.015,0.211,0.483-0.378,0.525-0.525c0.054-0.214,0.101-0.454,0.143-0.708c0.015-0.091,0.026-0.193,0.04-0.288
		c0.025-0.17,0.048-0.341,0.069-0.525c0.014-0.129,0.025-0.267,0.038-0.402c0.015-0.163,0.029-0.326,0.041-0.497
		c0.011-0.162,0.02-0.328,0.029-0.495c0.008-0.156,0.016-0.312,0.022-0.473c0.007-0.191,0.013-0.385,0.018-0.582
		c0.003-0.143,0.006-0.287,0.008-0.433c0.004-0.221,0.006-0.444,0.006-0.672c0-0.119-0.001-0.24-0.001-0.36
		c-0.001-0.259-0.003-0.518-0.008-0.782c-0.001-0.077-0.003-0.154-0.005-0.231c-0.083-3.876-0.509-8.178-0.925-10.384
		c-1.053-5.534-3.705-10.613-6.313-14.722c-0.365-0.428-0.821-1.445,0-1.578c36.829,0,79.205,0,118.342,0
		c4.369,0,8.348-0.162,12.092,0.525c2.182,0.393,3.739,0.771,5.26,1.578c1.334,0.702,3.185,1.494,4.734,2.631
		c0.872,0.635,1.676,1.31,2.43,2.027c0.858,0.818,1.649,1.697,2.375,2.657c0.023,0.033,0.047,0.068,0.072,0.101
		c0.303,0.406,0.594,0.828,0.875,1.264c0.07,0.111,0.145,0.222,0.215,0.336c0.301,0.484,0.594,0.981,0.873,1.505
		c0.377,0.709,0.146,1.362,0.524,2.098c0.533,1.038,1.101,1.838,1.578,4.208c1.108,5.512,0.47,13.382,0,19.989
		c-1.804,25.361-8.374,51.754-13.677,73.111c-0.59,2.371-1.183,4.75-1.779,7.134c-5.662,22.644-11.477,45.902-14.221,70.415
		c0,0.006,0,0.01-0.002,0.016c-0.61,5.465-1.082,10.984-1.351,16.58c-26.841,0.315-55.597-0.42-83.105,0
		c-1.929,0.028-3.886-0.314-5.786,0C107.115,229.287,106.02,230.367,104.386,230.619z M246.925,258.501
		c-0.197,0.091-0.926-0.162-1.053,0c-0.123,0.149-0.252,0.271-0.39,0.375c-0.046,0.037-0.097,0.063-0.146,0.095
		c-0.094,0.062-0.189,0.121-0.293,0.169c-0.059,0.027-0.121,0.05-0.182,0.072c-0.103,0.039-0.209,0.076-0.32,0.105
		c-0.062,0.018-0.125,0.032-0.188,0.047c-0.138,0.03-0.278,0.059-0.427,0.082c-0.038,0.006-0.077,0.014-0.115,0.021
		c-0.834,0.126-1.868,0.208-3.201,0.612c-3.156,0.953-11.081,0.524-16.833,0.524c-17.198,0-36.522,0-55.778,0
		c-19.793,0-39.513,0-56.776,0c-0.153,0.011-0.278,0.006-0.391-0.006c-0.033-0.004-0.062-0.011-0.093-0.017
		c-0.074-0.015-0.14-0.033-0.196-0.058c-0.022-0.009-0.046-0.019-0.066-0.03c-0.063-0.035-0.115-0.078-0.151-0.129
		c-0.002-0.003-0.005-0.005-0.007-0.008c-0.038-0.055-0.058-0.12-0.07-0.189c-0.003-0.018-0.003-0.035-0.004-0.056
		c-0.004-0.056-0.002-0.114,0.006-0.178c0.003-0.021,0.005-0.038,0.008-0.06c0.032-0.168,0.101-0.355,0.191-0.545
		c0.003-0.006,0.005-0.01,0.007-0.015c0.047-0.098,0.098-0.196,0.152-0.294c0.227-0.412,0.497-0.807,0.615-1.049
		c0.526-1.087,1.487-2.462,2.104-2.631c0.688-2.293,1.312-4.657,2.63-6.313c-0.168-1.221,0.084-2.021,0.526-2.63
		c-0.021-0.905,0.393-1.368,1.052-1.578c41.374,0,82.75,0,124.129,0c5.785,0,11.57,0,17.358,0.003
		C257.306,250.968,252.158,255.898,246.925,258.501z"/>
	<path d="M181.178,180.652c4.938-0.708,7.722-2.938,7.89-7.891c0.43-3.611-2.623-5.533-3.682-6.838
		c-0.135-0.161-0.862,0.104-1.053,0c-0.272-0.154-0.701-0.961-1.053-1.053c-3.871-1.002-10.212,0-14.201,0
		c-27.853,0-57.534,0-83.625,0c-0.323,0.027-0.625,0.077-0.526,0.525c-3.893,1.107-6.46,4.531-5.786,8.941
		c0.231,1.522,1.599,2.59,2.104,3.156c0.169,0.189-0.182,0.87,0,1.053c0.176,0.183,0.849-0.162,1.053,0
		c0.891,0.716,1.262,1.248,2.104,1.578c4.586,1.797,13.473,0.527,19.455,0.527c22.275,0,41.745,0,62.064,0
		C170.951,180.652,176.99,181.255,181.178,180.652z"/>
	<path d="M88.611,145.941c0.028,0.604,0.33,0.23,0.526,0.525c2.883,4.35,15.634,2.623,22.612,2.623c20.943,0,41.864,0,61.538,0
		c4.938,0,10.711,0.64,15.256,0c4.691-0.651,7.806-2.84,7.891-7.883c-0.387-9.91-11.04-7.89-19.464-7.89
		c-23.966,0-46.711,0-69.428,0c-4.812,0-10.584-0.813-14.203,0c-3.752,0.842-8.227,5.744-5.779,11.046
		C87.798,144.882,88.584,145.41,88.611,145.941z"/>
	<path d="M95.969,114.38c0.035,0.61,0.337,0.231,0.526,0.526c2.869,4.32,15.627,2.63,22.619,2.63c22.262,0,39.908,0,62.064,0
		c5.329,0,11.18,0.589,15.255,0c4.896-0.701,7.883-3.626,7.883-7.891c0-2.721-1.508-4.671-2.623-5.786
		c-0.421-0.421-0.512-0.147-1.052-0.526c-0.632-0.428-1.726-1.473-2.104-1.577c-3.437-0.912-9.188,0-14.201,0
		c-20.334,0-37.629,0-55.752,0c-9.539,0-18.938-0.652-27.88,0c-0.483,0.034-0.371,0.483-0.525,0.525
		c-0.316,0.099-0.744-0.119-1.053,0c-3.569,1.396-5.926,6.789-4.208,10.521C95.162,113.321,95.941,113.847,95.969,114.38z"/>
	<path d="M107.016,85.455c4.86,1.642,12.793,0.526,18.938,0.526c22.282,0,39.936,0,62.063,0c5.345,0,11.208,0.694,15.248,0
		c4.686-0.813,7.54-4.067,7.363-8.416c-0.063-1.726-1.03-3.55-2.104-4.734c-3.359-3.738-10.268-2.631-17.878-2.631
		c-28.917,0-55.548,0-82.579,0c-0.322,0.028-0.624,0.077-0.525,0.526c-2.314,0.646-3.654,1.298-4.734,3.156
		c-1.479,2.553-1.199,6.284,0,8.417C103.866,84.179,105.178,84.831,107.016,85.455z"/>
</g>
</svg>
