<?xml version="1.0" encoding="utf-8"?>
<!-- Generator: Adobe Illustrator 15.1.0, SVG Export Plug-In . SVG Version: 6.00 Build 0)  -->
<!DOCTYPE svg PUBLIC "-//W3C//DTD SVG 1.0//EN" "http://www.w3.org/TR/2001/REC-SVG-20010904/DTD/svg10.dtd">
<svg version="1.0" id="Layer_2" xmlns="http://www.w3.org/2000/svg" xmlns:xlink="http://www.w3.org/1999/xlink" x="0px" y="0px"
	 width="283.46px" height="283.46px" viewBox="0 0 283.46 283.46" enable-background="new 0 0 283.46 283.46" xml:space="preserve">
<g>
	<path d="M7.084,54.12v49.93h269.291V54.12H7.084z M185.521,86.042H20.181V72.128h165.341V86.042z M247.318,89.315
		c-5.65,0-10.23-4.58-10.23-10.23c0-5.651,4.58-10.232,10.23-10.232s10.232,4.581,10.232,10.232
		C257.551,84.735,252.969,89.315,247.318,89.315z"/>
	<path d="M7.084,166.695h269.291v-49.93H7.084V166.695z M247.318,131.499c5.65,0,10.232,4.581,10.232,10.231
		s-4.582,10.231-10.232,10.231s-10.23-4.58-10.23-10.231S241.668,131.499,247.318,131.499z M20.181,134.773h165.341v13.915H20.181
		V134.773z"/>
	<path d="M7.084,229.34h269.291v-49.93H7.084V229.34z M247.318,194.144c5.65,0,10.232,4.581,10.232,10.232
		c0,5.649-4.582,10.229-10.232,10.229s-10.23-4.58-10.23-10.229C237.088,198.725,241.668,194.144,247.318,194.144z M20.181,197.418
		h165.341v13.914H20.181V197.418z"/>
</g>
</svg>
