<?xml version="1.0" encoding="utf-8"?>
<!-- Generator: Adobe Illustrator 15.1.0, SVG Export Plug-In . SVG Version: 6.00 Build 0)  -->
<!DOCTYPE svg PUBLIC "-//W3C//DTD SVG 1.1//EN" "http://www.w3.org/Graphics/SVG/1.1/DTD/svg11.dtd">
<svg version="1.1" id="Layer_1" xmlns="http://www.w3.org/2000/svg" xmlns:xlink="http://www.w3.org/1999/xlink" x="0px" y="0px"
	 width="283.465px" height="283.465px" viewBox="0 0 283.465 283.465" enable-background="new 0 0 283.465 283.465"
	 xml:space="preserve">
<g>
	<polygon fill="#231F20" points="100.179,34.699 183.286,34.699 197.03,20.955 183.286,7.211 100.179,7.211 86.434,20.955 	"/>
	<polygon fill="#231F20" points="183.463,39.79 183.463,122.898 197.207,136.641 210.95,122.898 210.95,39.79 197.207,26.046 	"/>
	<path d="M183.338,160.514v83.213l13.869,13.867l13.868-13.867v-83.213l-13.868-13.867L183.338,160.514z M208.075,242.483
		l-10.868,10.868l-10.869-10.868v-80.727l10.869-10.868l10.868,10.868V242.483z"/>
	<polygon fill="#231F20" points="183.286,248.766 100.179,248.766 86.434,262.508 100.179,276.254 183.286,276.254 197.03,262.508 	
		"/>
	<polygon fill="#231F20" points="100.002,243.675 100.002,160.565 86.257,146.823 72.515,160.565 72.515,243.675 86.257,257.417 	
		"/>
	<path d="M100.127,122.95V39.738l-13.87-13.869L72.39,39.738v83.212l13.867,13.868L100.127,122.95z M75.39,40.98l10.867-10.869
		l10.87,10.869v80.727l-10.87,10.868L75.39,121.708V40.98z"/>
	<polygon fill="#231F20" points="100.179,155.477 183.286,155.477 197.03,141.732 183.286,127.989 100.179,127.989 86.434,141.732 	
		"/>
</g>
</svg>
