<?xml version="1.0" encoding="utf-8"?>
<!-- Generator: Adobe Illustrator 15.1.0, SVG Export Plug-In . SVG Version: 6.00 Build 0)  -->
<!DOCTYPE svg PUBLIC "-//W3C//DTD SVG 1.1//EN" "http://www.w3.org/Graphics/SVG/1.1/DTD/svg11.dtd">
<svg version="1.1" id="Layer_1" xmlns="http://www.w3.org/2000/svg" xmlns:xlink="http://www.w3.org/1999/xlink" x="0px" y="0px"
	 width="283.465px" height="283.465px" viewBox="0 0 283.465 283.465" enable-background="new 0 0 283.465 283.465"
	 xml:space="preserve">
<g>
	<polygon fill="#231F20" points="183.286,34.699 197.03,20.955 183.286,7.211 100.179,7.211 86.434,20.955 100.179,34.699 	"/>
	<path d="M211.075,39.738l-13.868-13.869l-13.869,13.869v83.212l13.869,13.868l13.868-13.868V39.738z M208.075,121.708
		l-10.868,10.868l-10.869-10.868V40.98l10.869-10.869l10.868,10.869V121.708z"/>
	<polygon fill="#231F20" points="183.463,160.565 183.463,243.675 197.207,257.417 210.95,243.675 210.95,160.565 197.207,146.823 	
		"/>
	<polygon fill="#231F20" points="100.179,248.766 86.434,262.508 100.179,276.254 183.286,276.254 197.03,262.508 183.286,248.766 	
		"/>
	<polygon fill="#231F20" points="100.002,243.675 100.002,160.565 86.257,146.823 72.515,160.565 72.515,243.675 86.257,257.417 	
		"/>
	<polygon fill="#231F20" points="100.002,122.898 100.002,39.79 86.257,26.046 72.515,39.79 72.515,122.898 86.257,136.641 	"/>
	<polygon fill="#231F20" points="100.179,127.989 86.434,141.732 100.179,155.477 183.286,155.477 197.03,141.732 183.286,127.989 	
		"/>
</g>
</svg>
