<?xml version="1.0" encoding="utf-8"?>
<!-- Generator: Adobe Illustrator 15.1.0, SVG Export Plug-In . SVG Version: 6.00 Build 0)  -->
<!DOCTYPE svg PUBLIC "-//W3C//DTD SVG 1.1//EN" "http://www.w3.org/Graphics/SVG/1.1/DTD/svg11.dtd">
<svg version="1.1" id="Layer_1" xmlns="http://www.w3.org/2000/svg" xmlns:xlink="http://www.w3.org/1999/xlink" x="0px" y="0px"
	 width="283.465px" height="283.465px" viewBox="0 0 283.465 283.465" enable-background="new 0 0 283.465 283.465"
	 xml:space="preserve">
<g>
	<polygon fill="#231F20" points="183.338,34.824 197.207,20.955 183.338,7.086 100.127,7.086 86.257,20.955 100.127,34.824 	"/>
	<polygon fill="#231F20" points="197.207,25.869 183.338,39.738 183.338,122.95 197.207,136.818 211.075,122.95 211.075,39.738 	"/>
	<polygon fill="#231F20" points="183.338,160.514 183.338,243.727 197.207,257.594 211.075,243.727 211.075,160.514 
		197.207,146.646 	"/>
	<polygon fill="#231F20" points="100.127,248.641 86.257,262.508 100.127,276.379 183.338,276.379 197.207,262.508 183.338,248.641 
			"/>
	<path d="M100.127,243.727v-83.213l-13.87-13.867L72.39,160.514v83.213l13.867,13.867L100.127,243.727z M75.39,161.756
		l10.867-10.867l10.87,10.868v80.727l-10.87,10.868L75.39,242.484V161.756z"/>
	<polygon fill="#231F20" points="100.127,122.95 100.127,39.738 86.257,25.869 72.39,39.738 72.39,122.95 86.257,136.818 	"/>
	<polygon fill="#231F20" points="86.257,141.732 100.127,155.602 183.338,155.602 197.207,141.732 183.338,127.864 100.127,127.864 
			"/>
</g>
</svg>
