<?xml version="1.0" encoding="utf-8"?>
<!-- Generator: Adobe Illustrator 15.1.0, SVG Export Plug-In . SVG Version: 6.00 Build 0)  -->
<!DOCTYPE svg PUBLIC "-//W3C//DTD SVG 1.1//EN" "http://www.w3.org/Graphics/SVG/1.1/DTD/svg11.dtd">
<svg version="1.1" id="Layer_1" xmlns="http://www.w3.org/2000/svg" xmlns:xlink="http://www.w3.org/1999/xlink" x="0px" y="0px"
	 width="283.465px" height="283.465px" viewBox="0 0 283.465 283.465" enable-background="new 0 0 283.465 283.465"
	 xml:space="preserve">
<g>
	<path d="M183.338,34.824l13.869-13.869L183.338,7.086h-83.211l-13.87,13.869l13.87,13.869H183.338z M101.784,11.086h79.897
		l9.869,9.869l-9.869,9.869h-79.897l-9.87-9.869L101.784,11.086z"/>
	<polygon fill="#231F20" points="183.463,39.79 183.463,122.898 197.207,136.641 210.95,122.898 210.95,39.79 197.207,26.046 	"/>
	<polygon fill="#231F20" points="183.463,160.565 183.463,243.675 197.207,257.417 210.95,243.675 210.95,160.565 197.207,146.823 	
		"/>
	<path d="M100.127,248.641l-13.87,13.867l13.87,13.871h83.211l13.869-13.871l-13.869-13.867H100.127z M181.681,272.379h-79.897
		l-9.87-9.871l9.87-9.867h79.898l9.868,9.867L181.681,272.379z"/>
	<path d="M100.127,243.727v-83.213l-13.87-13.867L72.39,160.514v83.213l13.867,13.867L100.127,243.727z M76.39,162.171l9.867-9.868
		l9.87,9.868v79.898l-9.87,9.868l-9.867-9.868V162.171z"/>
	<polygon fill="#231F20" points="100.002,122.898 100.002,39.79 86.257,26.046 72.515,39.79 72.515,122.898 86.257,136.641 	"/>
	<polygon fill="#231F20" points="100.179,155.477 183.286,155.477 197.03,141.732 183.286,127.989 100.179,127.989 86.434,141.732 	
		"/>
</g>
</svg>
