<?xml version="1.0" encoding="utf-8"?>
<!-- Generator: Adobe Illustrator 15.1.0, SVG Export Plug-In . SVG Version: 6.00 Build 0)  -->
<!DOCTYPE svg PUBLIC "-//W3C//DTD SVG 1.1//EN" "http://www.w3.org/Graphics/SVG/1.1/DTD/svg11.dtd">
<svg version="1.1" id="Layer_1" xmlns="http://www.w3.org/2000/svg" xmlns:xlink="http://www.w3.org/1999/xlink" x="0px" y="0px"
	 width="283.465px" height="283.465px" viewBox="0 0 283.465 283.465" enable-background="new 0 0 283.465 283.465"
	 xml:space="preserve">
<g>
	<g>
		<path d="M182.044,10.211l10.744,10.744l-10.744,10.744h-80.623L90.676,20.955l10.745-10.744H182.044 M183.286,7.211h-83.107
			L86.434,20.955l13.745,13.744h83.107l13.744-13.744L183.286,7.211L183.286,7.211z"/>
	</g>
	<polygon fill="#231F20" points="183.463,39.79 183.463,122.898 197.207,136.641 210.95,122.898 210.95,39.79 197.207,26.046 	"/>
	<polygon fill="#231F20" points="183.463,160.565 183.463,243.675 197.207,257.417 210.95,243.675 210.95,160.565 197.207,146.823 	
		"/>
	<g>
		<path d="M182.044,251.766l10.744,10.742l-10.745,10.746h-80.622l-10.745-10.746l10.745-10.742H182.044 M183.286,248.766h-83.107
			l-13.745,13.742l13.745,13.746h83.107l13.744-13.746L183.286,248.766L183.286,248.766z"/>
	</g>
	<g>
		<path d="M86.257,151.065l10.745,10.743v80.623l-10.745,10.743l-10.742-10.742v-80.625L86.257,151.065 M86.257,146.823
			l-13.742,13.742v83.109l13.742,13.742l13.745-13.742v-83.109L86.257,146.823L86.257,146.823z"/>
	</g>
	<g>
		<path d="M86.257,30.289l10.745,10.744v80.624l-10.745,10.743l-10.742-10.743V41.032L86.257,30.289 M86.257,26.046L72.515,39.79
			v83.109l13.742,13.743l13.745-13.743V39.79L86.257,26.046L86.257,26.046z"/>
	</g>
	<path d="M86.257,141.732l13.87,13.87h83.211l13.869-13.87l-13.869-13.868h-83.211L86.257,141.732z M182.51,129.864l11.869,11.868
		l-11.869,11.87h-81.554l-11.87-11.87l11.87-11.868H182.51z"/>
</g>
</svg>
