<?xml version="1.0" encoding="utf-8"?>
<!-- Generator: Adobe Illustrator 15.1.0, SVG Export Plug-In . SVG Version: 6.00 Build 0)  -->
<!DOCTYPE svg PUBLIC "-//W3C//DTD SVG 1.1//EN" "http://www.w3.org/Graphics/SVG/1.1/DTD/svg11.dtd">
<svg version="1.1" id="Layer_1" xmlns="http://www.w3.org/2000/svg" xmlns:xlink="http://www.w3.org/1999/xlink" x="0px" y="0px"
	 width="283.465px" height="283.465px" viewBox="0 0 283.465 283.465" enable-background="new 0 0 283.465 283.465"
	 xml:space="preserve">
<g>
	<polygon fill="#231F20" points="183.338,34.824 197.207,20.955 183.338,7.086 100.127,7.086 86.257,20.955 100.127,34.824 	"/>
	<polygon fill="#231F20" points="197.207,25.869 183.338,39.738 183.338,122.95 197.207,136.818 211.075,122.95 211.075,39.738 	"/>
	<polygon fill="#231F20" points="183.338,160.514 183.338,243.727 197.207,257.594 211.075,243.727 211.075,160.514 
		197.207,146.646 	"/>
	<path d="M100.127,248.641l-13.87,13.867l13.87,13.871h83.211l13.869-13.871l-13.869-13.867H100.127z M182.095,273.379H101.37
		L90.5,262.508l10.87-10.867h80.726l10.869,10.867L182.095,273.379z"/>
	<path d="M100.127,243.727v-83.213l-13.87-13.867L72.39,160.514v83.213l13.867,13.867L100.127,243.727z M75.39,161.756
		l10.867-10.867l10.87,10.868v80.727l-10.87,10.868L75.39,242.484V161.756z"/>
	<path d="M100.127,122.95V39.738l-13.87-13.869L72.39,39.738v83.212l13.867,13.868L100.127,122.95z M75.39,40.98l10.867-10.869
		l10.87,10.869v80.727l-10.87,10.868L75.39,121.708V40.98z"/>
	<path d="M86.257,141.732l13.87,13.87h83.211l13.869-13.87l-13.869-13.868h-83.211L86.257,141.732z M182.096,130.864l10.869,10.868
		l-10.869,10.87H101.37l-10.87-10.87l10.87-10.868H182.096z"/>
</g>
</svg>
