<?xml version="1.0" encoding="utf-8"?>
<!-- Generator: Adobe Illustrator 15.1.0, SVG Export Plug-In . SVG Version: 6.00 Build 0)  -->
<!DOCTYPE svg PUBLIC "-//W3C//DTD SVG 1.1//EN" "http://www.w3.org/Graphics/SVG/1.1/DTD/svg11.dtd">
<svg version="1.1" id="Layer_1" xmlns="http://www.w3.org/2000/svg" xmlns:xlink="http://www.w3.org/1999/xlink" x="0px" y="0px"
	 width="283.465px" height="283.465px" viewBox="0 0 283.465 283.465" enable-background="new 0 0 283.465 283.465"
	 xml:space="preserve">
<title>ic_fluent_shapes_24_filled</title>
<desc>Created with Sketch.</desc>
<g>
	<path d="M250.412,59.328h-71.73c-14.34,0-25.966,11.456-25.966,25.587v12.672c32.85,5.555,57.954,34.19,57.954,68.595
		c0,5.796-0.723,11.423-2.064,16.809h41.807c14.342,0,25.966-11.456,25.966-25.587V84.915
		C276.378,70.783,264.754,59.328,250.412,59.328z"/>
	<path d="M104.317,107.14L79.345,59.676c-1.361-2.589-4.148-4.226-7.196-4.226s-5.833,1.635-7.197,4.226L7.937,168.047
		c-1.248,2.369-1.115,5.186,0.352,7.439c1.466,2.254,4.056,3.626,6.843,3.626h57.587c-0.791-4.192-1.223-8.511-1.223-12.93
		C71.496,141.304,84.628,119.444,104.317,107.14z"/>
	<circle cx="141.083" cy="166.183" r="61.831"/>
</g>
</svg>
