<?xml version="1.0" encoding="utf-8"?>
<!-- Generator: Adobe Illustrator 15.1.0, SVG Export Plug-In . SVG Version: 6.00 Build 0)  -->
<!DOCTYPE svg PUBLIC "-//W3C//DTD SVG 1.0//EN" "http://www.w3.org/TR/2001/REC-SVG-20010904/DTD/svg10.dtd">
<svg version="1.0" id="Layer_3" xmlns="http://www.w3.org/2000/svg" xmlns:xlink="http://www.w3.org/1999/xlink" x="0px" y="0px"
	 width="283.46px" height="283.46px" viewBox="0 0 283.46 283.46" enable-background="new 0 0 283.46 283.46" xml:space="preserve">
<g>
	<path d="M149.026,81.3v28.747c13.919-19.156,36.483-31.646,61.921-31.646c4.473,0,8.849,0.408,13.112,1.147
		c-1.504-42.365-36.302-76.253-79.033-76.253c-37.784,0-69.361,26.499-77.211,61.921h65.128
		C141.811,65.217,149.026,72.432,149.026,81.3z"/>
	<path d="M210.947,86.401c-27.303,0-50.919,16.058-61.921,39.221v38.769c1.938-0.189,3.901-0.292,5.888-0.292
		c32.824,0,59.565,26.484,60.012,59.204c35.934-2.069,64.535-31.947,64.535-68.39C279.46,117.136,248.725,86.401,210.947,86.401z"/>
	<path d="M154.914,172.099c-1.991,0-3.954,0.123-5.888,0.343v29.718c0,8.868-7.215,16.083-16.083,16.083h-29.719
		c-0.219,1.935-0.343,3.896-0.343,5.889c0,28.69,23.342,52.032,52.032,52.032c28.691,0,52.033-23.342,52.033-52.032
		S183.605,172.099,154.914,172.099z"/>
	<path d="M141.026,202.16V81.3c0-4.457-3.626-8.083-8.083-8.083H12.083C7.626,73.217,4,76.843,4,81.3V202.16
		c0,4.457,3.626,8.083,8.083,8.083h120.859C137.4,210.243,141.026,206.617,141.026,202.16z M98.268,173.946
		c-2.915,3.559-6.812,6.181-11.207,7.541c-5.168,1.62-10.563,2.403-15.979,2.32c-4.859,0.022-9.711-0.374-14.503-1.187
		c-4.045-0.662-7.993-1.822-11.753-3.454v-15.985c3.594,2.566,7.61,4.485,11.866,5.669c4.241,1.321,8.65,2.027,13.092,2.097
		c4.111,0.26,8.215-0.611,11.866-2.519c2.558-1.443,4.113-4.177,4.048-7.113c0.017-2.042-0.791-4.006-2.241-5.444
		c-1.804-1.771-3.892-3.227-6.177-4.305c-2.637-1.318-6.52-3.057-11.648-5.215c-4.08-1.641-7.986-3.684-11.662-6.098
		c-2.832-1.878-5.197-4.379-6.915-7.311c-1.665-3.065-2.495-6.514-2.406-10c-0.148-4.721,1.445-9.332,4.476-12.954
		c3.186-3.626,7.303-6.312,11.905-7.766c5.246-1.727,10.741-2.577,16.263-2.518c7.262-0.265,14.514,0.75,21.424,3v15.162
		c-3.002-1.819-6.272-3.154-9.69-3.956c-3.708-0.909-7.514-1.365-11.332-1.358c-4.026-0.148-8.027,0.699-11.648,2.465
		c-2.796,1.206-4.608,3.957-4.614,7.001c-0.012,1.847,0.698,3.625,1.978,4.958c1.511,1.57,3.299,2.848,5.274,3.771
		c2.197,1.094,5.493,2.549,9.888,4.364c0.484,0.153,0.956,0.342,1.411,0.567c4.326,1.69,8.498,3.748,12.473,6.15
		c3.01,1.856,5.536,4.399,7.37,7.422c1.881,3.427,2.792,7.301,2.637,11.207C102.675,165.305,101.193,170.075,98.268,173.946z"/>
</g>
</svg>
