<?xml version="1.0" encoding="utf-8"?>
<!-- Generator: Adobe Illustrator 15.1.0, SVG Export Plug-In . SVG Version: 6.00 Build 0)  -->
<!DOCTYPE svg PUBLIC "-//W3C//DTD SVG 1.1//EN" "http://www.w3.org/Graphics/SVG/1.1/DTD/svg11.dtd">
<svg version="1.1" id="Layer_5" xmlns="http://www.w3.org/2000/svg" xmlns:xlink="http://www.w3.org/1999/xlink" x="0px" y="0px"
	 width="283.46px" height="283.46px" viewBox="0 0 283.46 283.46" enable-background="new 0 0 283.46 283.46" xml:space="preserve">
<g>
	<path fill="none" d="M115.615,237.187c-4.378,0-8.407,3.639-8.407,8.402c0,4.381,3.642,8.408,8.407,8.408
		c4.378,0,8.406-3.645,8.406-8.408C124.021,240.83,119.993,237.187,115.615,237.187z"/>
	<path fill="none" d="M210.212,237.181c-4.379,0-8.407,3.641-8.407,8.402c0,4.379,3.64,8.408,8.407,8.408
		c4.377,0,8.406-3.643,8.404-8.408C218.617,240.824,214.589,237.181,210.212,237.181z"/>
	<path fill="#231F20" d="M245.71,73.475h-16.379H83.63H62.097l-6.869-27.479c-3.463-13.74-15.443-23.467-29.238-23.467H7.084v11.486
		H25.99c8.573,0,16.048,5.715,18.356,14.344L74.55,166.556l0.11,0.088c-0.036-0.02-0.074-0.039-0.11-0.061l0.188,0.729
		c-6.266,4.508-10.388,11.873-10.388,20.281c0,13.738,11.486,25.225,25.226,25.225H244.28v-11.486H89.576
		c-7.475,0-13.739-6.316-13.739-13.736c0-7.063,5.561-13.063,12.373-13.777c-0.062-0.031-0.123-0.063-0.186-0.102h0.051h1.501
		h158.716v-1.072l0.209,0.063l17.808-63.596l0.032,0.185l8.896-31.757l1.14-4.062L245.71,73.475z M239.048,162.285H85.014
		L64.956,84.356h195.915L239.048,162.285z"/>
	<path d="M88.206,173.787c0.002,0.002,0.003,0.002,0.004,0.002c0.013,0,0.025,0,0.038-0.002c0.438-0.045,0.882-0.07,1.328-0.07
		h-1.501C88.119,173.742,88.162,173.763,88.206,173.787z"/>
	<path d="M210.212,230.242c-8.407,0-15.344,6.938-15.344,15.342c0,8.408,6.937,15.346,15.344,15.346
		c8.404,0,15.341-6.938,15.341-15.346C225.553,237.179,218.619,230.242,210.212,230.242z M210.212,253.992
		c-4.768,0-8.407-4.029-8.407-8.408c0-4.762,4.028-8.402,8.407-8.402c4.377,0,8.404,3.643,8.404,8.402
		C218.619,250.349,214.589,253.992,210.212,253.992z"/>
	<path d="M115.615,230.248c-8.407,0-15.343,6.938-15.343,15.342c0,8.408,6.936,15.344,15.343,15.344
		c8.406,0,15.341-6.936,15.341-15.344C130.956,237.185,124.021,230.248,115.615,230.248z M115.615,253.998
		c-4.765,0-8.407-4.027-8.407-8.408c0-4.764,4.029-8.402,8.407-8.402c4.378,0,8.406,3.643,8.406,8.402
		C124.021,250.353,119.993,253.998,115.615,253.998z"/>
</g>
</svg>
