<?xml version="1.0" encoding="UTF-8" standalone="no"?><!DOCTYPE svg PUBLIC "-//W3C//DTD SVG 1.1//EN" "http://www.w3.org/Graphics/SVG/1.1/DTD/svg11.dtd"><svg width="100%" height="100%" viewBox="0 0 130 130" version="1.1" xmlns="http://www.w3.org/2000/svg" xmlns:xlink="http://www.w3.org/1999/xlink" xml:space="preserve" xmlns:serif="http://www.serif.com/" style="fill-rule:evenodd;clip-rule:evenodd;stroke-linecap:round;stroke-linejoin:round;stroke-miterlimit:2.2561;"><rect id="showers" x="2.723" y="0.999" width="125" height="125" style="fill:none;"/><path d="M41.914,75.752c-5.955,-0 -11.275,-2.742 -14.765,-7.03c-2.665,-3.275 -4.264,-7.452 -4.264,-11.999c0,-10.502 8.526,-19.028 19.029,-19.028c-0,-10.502 8.526,-19.029 19.028,-19.029c10.502,0 19.028,8.527 19.028,19.029l8.562,-0c10.502,-0 19.028,8.526 19.028,19.028c0,4.547 -1.598,8.724 -4.264,11.999c-3.49,4.288 -8.809,7.03 -14.764,7.03" style="fill:none;stroke:#000;stroke-width:4.17px;"/><g><path d="M54.649,107.014l3.993,-12.725" style="fill:none;stroke:#010001;stroke-width:4.17px;stroke-linejoin:miter;stroke-miterlimit:1.25;"/><path d="M69.728,102.823l3.993,-12.725" style="fill:none;stroke:#010001;stroke-width:4.17px;stroke-linejoin:miter;stroke-miterlimit:1.25;"/><path d="M44.366,96.461l3.993,-12.725" style="fill:none;stroke:#010001;stroke-width:4.17px;stroke-linejoin:miter;stroke-miterlimit:1.25;"/><path d="M62.781,81.098l3.273,-10.431" style="fill:none;stroke:#010001;stroke-width:4.17px;stroke-linejoin:miter;stroke-miterlimit:1.25;"/><path d="M77.86,76.907l3.273,-10.431" style="fill:none;stroke:#010001;stroke-width:4.17px;stroke-linejoin:miter;stroke-miterlimit:1.25;"/><path d="M52.498,70.544l3.273,-10.43" style="fill:none;stroke:#010001;stroke-width:4.17px;stroke-linejoin:miter;stroke-miterlimit:1.25;"/></g></svg>