<?xml version="1.0" encoding="utf-8"?>
<!-- Generator: Adobe Illustrator 15.1.0, SVG Export Plug-In . SVG Version: 6.00 Build 0)  -->
<!DOCTYPE svg PUBLIC "-//W3C//DTD SVG 1.1//EN" "http://www.w3.org/Graphics/SVG/1.1/DTD/svg11.dtd">
<svg version="1.1" id="Layer_2" xmlns="http://www.w3.org/2000/svg" xmlns:xlink="http://www.w3.org/1999/xlink" x="0px" y="0px"
	 width="283.46px" height="283.46px" viewBox="0 0 283.46 283.46" enable-background="new 0 0 283.46 283.46" xml:space="preserve">
<g>
	<path fill="none" d="M205.248,133.183h14.618c-3.991-36.32-32.671-65.205-68.896-69.51v14.539c0,5.188-4.205,9.394-9.394,9.394
		c-5.188,0-9.394-4.206-9.394-9.394V63.674c-35.992,4.278-64.536,32.822-68.814,68.815h13.843c5.188,0,9.394,4.206,9.394,9.394
		c0,5.188-4.206,9.394-9.394,9.394H63.369c4.25,35.761,32.455,64.173,68.12,68.732v-13.762c0-5.188,4.206-9.394,9.394-9.394
		c5.188,0,9.394,4.205,9.394,9.394v13.922c36.088-3.965,64.84-32.304,69.429-68.198h-14.458c-5.188,0-9.394-4.206-9.394-9.394
		C195.854,137.389,200.059,133.183,205.248,133.183z M141.577,156.875c-8.28,0-14.993-6.713-14.993-14.994
		c0-8.28,6.713-14.994,14.993-14.994c8.28,0,14.993,6.713,14.993,14.994S149.857,156.875,141.577,156.875z"/>
	<path d="M266.482,133.183h-31.618c-4.104-44.57-39.419-80.099-83.894-84.526V16.978c0-5.188-4.205-9.394-9.394-9.394
		c-5.188,0-9.394,4.206-9.394,9.394v31.679c-44.243,4.405-79.426,39.588-83.831,83.833H15.978c-5.188,0-9.394,4.206-9.394,9.394
		c0,5.188,4.206,9.394,9.394,9.394h32.375c4.382,44.011,39.22,79.054,83.136,83.756v32.449c0,5.188,4.206,9.394,9.394,9.394
		c5.188,0,9.394-4.205,9.394-9.394v-32.313c44.336-4.084,79.724-39.051,84.45-83.198h31.755c5.188,0,9.394-4.206,9.394-9.394
		C275.875,137.389,271.67,133.183,266.482,133.183z M205.248,151.971h14.458c-4.589,35.895-33.341,64.233-69.429,68.198v-13.922
		c0-5.188-4.206-9.394-9.394-9.394c-5.188,0-9.394,4.205-9.394,9.394v13.762c-35.666-4.56-63.87-32.972-68.12-68.732h13.843
		c5.188,0,9.394-4.206,9.394-9.394c0-5.188-4.206-9.394-9.394-9.394H63.369c4.278-35.993,32.822-64.537,68.814-68.815v14.539
		c0,5.188,4.206,9.394,9.394,9.394c5.188,0,9.394-4.206,9.394-9.394V63.673c36.225,4.305,64.904,33.189,68.896,69.51h-14.618
		c-5.188,0-9.394,4.206-9.394,9.395C195.854,147.765,200.059,151.971,205.248,151.971z"/>
	<circle cx="141.577" cy="141.882" r="14.994"/>
</g>
</svg>
