<?xml version="1.0" encoding="utf-8"?>
<!-- Generator: Adobe Illustrator 15.1.0, SVG Export Plug-In . SVG Version: 6.00 Build 0)  -->
<!DOCTYPE svg PUBLIC "-//W3C//DTD SVG 1.1//EN" "http://www.w3.org/Graphics/SVG/1.1/DTD/svg11.dtd">
<svg version="1.1" id="Layer_6" xmlns="http://www.w3.org/2000/svg" xmlns:xlink="http://www.w3.org/1999/xlink" x="0px" y="0px"
	 width="283.46px" height="283.46px" viewBox="0 0 283.46 283.46" enable-background="new 0 0 283.46 283.46" xml:space="preserve">
<g>
	<path d="M85.462,105.147l-0.129-0.482c-0.945-3.441-1.912-8.557-3.725-12.941c-0.315-0.776-0.646-1.519-1.016-2.213l-0.359,0.407
		l-2.492,3.238v0.003l-0.832,2.253l-4.657,12.635H72.25v0.005c4.294-1.156,8.717-2.047,13.248-2.773L85.462,105.147z"/>
	<path d="M88.122,115.059c-7.083,1.086-13.885,2.577-20.318,4.982l-1.216,3.155c9.638,2.165,18.458,5.173,26.087,10.113
		L88.122,115.059z"/>
	<path d="M270.367,55.98H13.095c-3.319,0-6.011,3.689-6.011,8.24v155.021c0,4.551,2.691,8.238,6.011,8.238h257.271
		c3.318,0,6.01-3.688,6.01-8.238V64.221C276.376,59.67,273.685,55.98,270.367,55.98z M244.338,204.933
		c0,0-142.268-0.243-198.014-0.136l-21.523,0.117l-0.226,0.019c-2.785,0.159-5.158-1.982-5.304-4.765
		c-0.016-0.227,0.183-5.108,5.028-5.318l22.006-0.137c55.754-0.094,198.042,0.15,198.042,0.142c2.781,0.006,5.048,2.263,5.045,5.043
		C249.374,202.678,247.125,204.938,244.338,204.933z M265.507,163.027c-5.093,2.042-10.453,4.279-15.959,5.671
		c-4.022,0.991-8.125,1.51-12.244,1.255c-4.892-0.297-9.436-3.202-14.084-4.504c-1.086-0.309-2.181-0.494-3.336-0.231
		c-2.404,0.554-4.965,2.169-7.643,3.784c-3.159,1.918-6.428,3.922-9.646,5.201c-4.063,1.617-8.095,2.105-11.922,0.831
		c-3.483-1.161-5.031-3.663-5.522-6.839c-0.145-0.931-0.175-1.938-0.157-2.943c-1.825,0.201-3.784,0.812-5.791,1.381
		c-3.883,1.11-7.883,2.272-11.64,2.335c-2.877,0.057-5.64-0.443-8.214-1.804c-0.614,0.673-1.248,1.343-1.896,1.99
		c-3.23,3.222-6.884,6.003-10.914,8.181c-2.46,1.321-5.959,2.481-9.248,2.478c-2.863,0-5.568-0.84-7.706-2.67
		c-2.957-2.529-3.855-6.318-2.878-10.626c0.474-2.09,1.466-4.366,2.592-6.491l-3.336,1.573l-9.33,6.184
		c0.329,1.334,0.597,2.693,0.779,4.031c0.538,3.922,0.394,7.797-0.721,11.274c-0.875,3.969-4.219,6.638-9.262,7.565
		c-6.197,1.128-15.421-0.478-18.41-1.026c-3.42-0.626-6.066-1.085-8.855-1.666c-1.859-0.394-3.78-0.838-6.022-1.425
		c-9.235-2.439-22.756-5.367-32.566-11.521c-0.647-0.41-1.281-0.834-1.901-1.268l-5.553,7.871c-1.037,1.231-3.257,3.112-4.672,3.49
		c-2.498,0.669-4.628,0.022-6.167-2.365c-0.79-1.231-1.064-2.525-0.939-3.892c0.074-0.839,0.342-1.739,0.789-2.615
		c0.222-0.449,0.742-1.296,0.839-1.458c0.819-2.093,1.709-4.158,2.635-6.21c0.973-2.158,1.987-4.298,3.013-6.419
		c-1.196-2.615-1.946-5.525-2.164-8.743c-0.278-4.134,0.503-8.237,2.017-12.131c0.822-2.107,1.866-4.16,3.067-6.109l-9.435-4.968
		c-0.101-0.062-2.97-1.578-4.404-2.991c-1.052-1.04-1.645-2.169-1.898-3.126c-0.471-1.774-0.167-3.425,0.982-4.909
		c0.599-0.785,1.611-1.632,3.173-2.076c1.994-0.56,6.943-0.185,7.49-0.137c2.45,0.183,4.911,0.488,7.37,0.845
		c3.808,0.559,7.624,1.281,11.403,1.933c1.692-1.239,3.409-2.373,5.165-3.429c1.072-2.084,2.157-4.162,3.241-6.244
		c2.137-4.085,4.332-8.158,6.706-12.124c1.621-2.7,3.329-5.351,5.15-7.909l1.642-2.152c1.398-3.187,3.359-7.014,5.386-8.833
		c2.968-2.657,6.155-2.998,9.202-0.946c2.472,1.672,4.503,4.218,6.076,7.299c2.695,5.268,4.063,12.186,5.273,16.619l0.517,1.897
		c1.939-0.224,3.891-0.438,5.855-0.647c4.361-0.465,8.694-0.776,13.037-0.961c4.332-0.184,8.667-0.229,13.033-0.162l8.922,0.278
		l8.482,0.567c5.553,0.573,14.889,1.042,21.425,4.322c3.839,1.918,6.831,4.735,8.379,8.614c1.234,3.073,0.859,6.143-0.645,9.018
		c-2.091,3.999-7.005,7.637-9.512,9.685c-4.078,3.344-8.336,6.468-12.673,9.482c0.14,0.736,0.125,1.642-0.24,2.727
		c-0.407,1.215-1.23,2.561-2.357,3.818c-1.337,1.495-3.24,2.947-4.116,3.939l-2.695,3.434c-0.782,1.105-2.613,3.553-4.13,6.332
		c-0.779,1.441-1.497,2.95-1.815,4.376c-0.063,0.263-0.097,0.668-0.109,0.921c0.638,0.308,1.471,0.053,2.242-0.087
		c1.125-0.229,2.209-0.653,3.052-1.108c3.179-1.72,6.065-3.919,8.609-6.463c0.943-0.939,1.845-1.93,2.697-2.958
		c-0.113-0.831-0.132-1.714-0.053-2.612c0.36-4.328,3.128-9.531,5.004-11.887c0.445-0.542,4.052-3.909,5.684-4.776
		c3.642-1.906,6.162,0.162,7.103,1.578c0.982,1.478,1.478,3.942,0.532,6.895c-1.202,3.739-5.064,9.351-5.596,10.249l-0.138,0.229
		c0.591,0.123,1.197,0.165,1.802,0.152c3.63-0.074,7.5-1.548,11.197-2.531c3.71-0.984,7.29-1.541,10.479-1.008
		c3.215,0.535,4.851,2.385,5.632,5.045c0.343,1.143,0.432,2.6,0.405,4.124c-0.018,0.31-0.018,0.759,0,1.17
		c1.247,0.05,2.513-0.356,3.817-0.872c3.34-1.328,6.693-3.624,9.955-5.536c3.043-1.788,6.016-3.265,8.772-3.901
		c2.847-0.664,5.606-0.418,8.337,0.342c2.329,0.66,4.646,1.734,6.983,2.707c1.632,0.68,3.277,1.332,4.989,1.441
		c3.104,0.196,6.183-0.242,9.207-0.985c5.049-1.241,9.954-3.327,14.627-5.195c2.589-1.026,5.524,0.226,6.558,2.808
		C269.343,159.057,268.086,161.998,265.507,163.027z"/>
	<path d="M80.851,145.231c2.709,1.268,5.389,2.584,7.99,4.029c2.9,1.612,5.718,3.354,8.436,5.284l-0.978-4.871
		c-2.691-3.112-5.682-5.67-8.94-7.796c-7.14-4.656-15.478-7.313-24.588-9.229l-1.802,4.172c5.008,2.059,10.042,4.056,14.982,6.203
		C77.595,143.742,79.232,144.474,80.851,145.231z"/>
	<path d="M158.168,126.818c1.197-0.983,3.128-2.349,4.841-3.993c0.696-0.66,1.365-1.37,1.859-2.134
		c0.116-0.179,0.274-0.34,0.382-0.504c0.058-0.085,0.1-0.168,0.121-0.258c0.022-0.093,0.015-0.185-0.021-0.289
		c-0.9-2.237-3.153-3.346-5.597-4.201c-5.286-1.844-11.787-2.026-15.871-2.45l-7.942-0.514l-8.595-0.275
		c-4.173-0.068-8.316-0.024-12.452,0.15c-4.128,0.169-8.256,0.469-12.393,0.909c-1.433,0.157-2.871,0.305-4.292,0.471
		c0,0.004,0,0.008,0,0.008s0,0.005,0,0.013h-0.003c1.227,4.7,2.416,9.431,3.554,14.157c1.38,5.748,2.688,11.499,3.903,17.276
		c2.436,3.119,4.641,6.668,6.593,10.695l0.382,0.807c2.76-1.336,5.536-2.627,8.313-3.936c1.577-1.06,3.148-2.139,4.728-3.221
		c6.59-4.494,13.368-8.824,19.957-13.366C149.925,133.188,154.14,130.116,158.168,126.818z"/>
	<path d="M102.806,178.346l-0.842-2.145c-0.881,0.376-1.956,0.772-3.595,1.34c-0.471,0.246-1.717,0.854-2.274,0.975
		c-0.719,0.152-1.399,0.163-2.025,0.072c-0.627-0.093-1.211-0.298-1.734-0.578c-0.887-0.485-1.692-1.199-2.271-2.355
		c-0.1-0.2-0.193-0.41-0.271-0.63c-0.563-1.561-0.53-3.57,1.127-5.618c0.813-1.003,2.81-2.347,4.633-3.456c-0.003,0-0.003,0-0.003,0
		v-0.006c-1.312-1.104-2.671-2.121-4.047-3.104c-2.019-1.442-4.104-2.767-6.243-4c-0.441-0.262-0.875-0.522-1.319-0.771
		c-8.621-4.791-18.001-8.301-27.27-12.113c-2.55,5.117-5.341,10.145-8.479,15.092c-0.931,1.459-1.867,2.912-2.813,4.345l0.001,0.002
		c-0.001,0-0.001,0.002-0.001,0.002c0.001,0,0.001,0.004,0.001,0.004c0.502,0.362,1.02,0.699,1.546,1.03
		c8.95,5.621,21.353,8.089,29.781,10.316c2.05,0.535,3.809,0.949,5.51,1.308c2.714,0.565,5.287,1,8.623,1.619
		c1.963,0.357,7.155,1.345,11.792,1.271c0.403-0.004,0.799-0.021,1.184-0.038l-0.003-0.012L102.806,178.346z"/>
</g>
</svg>
