<?xml version="1.0" encoding="utf-8"?>
<!-- Generator: Adobe Illustrator 15.1.0, SVG Export Plug-In . SVG Version: 6.00 Build 0)  -->
<!DOCTYPE svg PUBLIC "-//W3C//DTD SVG 1.1//EN" "http://www.w3.org/Graphics/SVG/1.1/DTD/svg11.dtd">
<svg version="1.1" id="Layer_3" xmlns="http://www.w3.org/2000/svg" xmlns:xlink="http://www.w3.org/1999/xlink" x="0px" y="0px"
	 width="283.46px" height="283.46px" viewBox="0 0 283.46 283.46" enable-background="new 0 0 283.46 283.46" xml:space="preserve">
<g>
	<polygon fill="#231F20" points="131.583,103.882 131.583,106.517 131.583,114.029 151.876,114.029 151.876,106.517 
		151.876,103.882 151.876,103.882 131.583,103.882 	"/>
	<rect x="131.583" y="164.762" fill="#231F20" width="20.293" height="10.146"/>
	<rect x="131.583" y="185.055" fill="#231F20" width="20.293" height="10.146"/>
	<rect x="131.583" y="205.348" fill="#231F20" width="20.293" height="10.147"/>
	<rect x="131.583" y="225.642" fill="#231F20" width="20.293" height="10.147"/>
	<path fill="#231F20" d="M90.997,276.375h30.439V101.444h0.001v-2.635c0-2.807,2.272-5.074,5.072-5.074h30.441
		c2.8,0,5.073,2.268,5.073,5.074v2.635l0,0v174.932h30.44V81.161H90.997V276.375z"/>
	<rect x="131.583" y="245.936" fill="#231F20" width="20.293" height="10.146"/>
	<rect x="131.583" y="124.175" fill="#231F20" width="20.293" height="10.146"/>
	<rect x="131.583" y="144.468" fill="#231F20" width="20.293" height="10.146"/>
	<path fill="#231F20" d="M141.73,7.084c-28.021,0-50.733,22.714-50.733,50.734v3.048h101.468v-3.048
		C192.464,29.798,169.75,7.084,141.73,7.084z"/>
	<rect x="131.583" y="266.229" fill="#231F20" width="20.293" height="10.146"/>
</g>
</svg>
