<?xml version="1.0" encoding="utf-8"?>
<!-- Generator: Adobe Illustrator 15.1.0, SVG Export Plug-In . SVG Version: 6.00 Build 0)  -->
<!DOCTYPE svg PUBLIC "-//W3C//DTD SVG 1.1//EN" "http://www.w3.org/Graphics/SVG/1.1/DTD/svg11.dtd">
<svg version="1.1" id="Layer_3_1_" xmlns="http://www.w3.org/2000/svg" xmlns:xlink="http://www.w3.org/1999/xlink" x="0px" y="0px"
	 width="283.465px" height="283.465px" viewBox="0 0 283.465 283.465" enable-background="new 0 0 283.465 283.465"
	 xml:space="preserve">
<g>
	<path fill="none" d="M143.76,170.844l-0.369,0.303c4.092,4.998,6.809,7.252,9.113,7.541c0.051,0.004,0.102,0.004,0.152,0.004
		c0.658,0,1.309-0.283,1.896-0.834c1.787-1.668,2.899-5.658,2.899-10.396c0.05-1.966-0.351-5.739-0.897-8.413
		c-0.533-2.604-2.414-6.506-3.517-8.209c-2.731-4.224-3.897-5.609-9.097-9.524l-0.573,0.762c0.103,0.077,0.19,0.146,0.291,0.22
		L143.76,170.844z"/>
	<path fill="none" d="M126.2,167.387c0.038,4.844,1.13,8.735,2.92,10.408c0.592,0.555,1.257,0.844,1.954,0.844
		c0.052,0,0.104-0.002,0.155-0.004c2.275-0.285,4.993-2.539,9.086-7.539l-0.37-0.302l0.047-28.593
		c0.097-0.075,0.187-0.143,0.289-0.222l-0.578-0.759c-5.162,3.924-6.333,5.311-9.112,9.542c-1.098,1.783-2.962,5.627-3.483,8.221
		C126.601,161.488,126.194,165.254,126.2,167.387z"/>
	<path fill="none" d="M116.799,144.882c5.97-6.944,10.059-13.056,12.891-19.288c0.004-0.013,0.008-0.026,0.012-0.04
		c1.553-4.972,0.41-10.796-2.789-14.179c-2.363-2.498-5.607-3.377-9.066-2.489c-6.817,0.757-13.031,1.48-19.437,2.567l0.32-0.32
		l-1.748,0.484c-5.043,1.397-7.571,4.368-8.804,6.614c-1.238,2.255-1.739,4.875-1.461,7.328c0.073,0.661,0.194,1.313,0.384,1.938
		c1.008,2.738,1.832,4.661,2.63,6.52c0.793,1.846,1.54,3.587,2.33,5.853l0.061,0.118c3.378,4.825,6.746,7.508,10.897,8.694
		c1.294,0.43,2.801,0.752,4.417,0.752C110.401,149.434,113.734,148.35,116.799,144.882z"/>
	<path fill="none" d="M192.009,139.875c0.783-2.174,1.509-3.852,2.278-5.629c0.828-1.916,1.688-3.896,2.744-6.771
		c0.195-0.62,0.318-1.268,0.394-1.927c0.28-2.416-0.211-5.014-1.435-7.261c-1.232-2.266-3.768-5.261-8.848-6.669l-0.271-0.074
		l-0.125,0.125c-6.652-1.182-13.016-1.93-20.563-2.77c-3.539-0.902-6.787-0.018-9.145,2.494c-3.18,3.379-4.296,9.166-2.723,14.159
		c0.009,0.032,0.017,0.065,0.025,0.097c2.842,6.242,6.951,12.352,12.932,19.242c3.107,3.465,6.44,4.547,9.388,4.547
		c1.604,0,3.094-0.32,4.368-0.752c4.234-1.207,7.601-3.892,10.923-8.701L192.009,139.875z"/>
	<path fill="none" d="M174.102,207.725l-0.014-1.183l-0.145-15.22l-0.002-0.09h-0.023c-0.202,0.07-0.406,0.142-0.626,0.211
		l-0.093-0.291h-0.604h-0.152c-1.072,0.494-2.161,0.961-3.266,1.4l0.006,0.692l0.06,6.069c-0.804,0.518-1.62,0.986-2.449,1.416
		l-0.03-6.776l-0.002-0.494c-1.561,0.554-3.15,1.058-4.771,1.5l0.032,7.763c-1.01,0.33-2.049,0.618-3.125,0.868l-0.065-7.844
		c-1.565,0.351-3.161,0.647-4.771,0.901l0.066,7.811c-0.689,0.094-1.398,0.176-2.123,0.248l-0.031-7.744
		c-1.572,0.203-3.168,0.346-4.777,0.453l0.035,7.658c-0.939,0.051-1.892,0.098-2.879,0.131v-7.643
		c-0.899,0.031-1.799,0.058-2.709,0.058c-0.669,0-1.339-0.007-2.013-0.022c-0.019,0-0.037-0.002-0.056-0.002v7.729
		c-1.089,0.008-2.154-0.012-3.202-0.051l0.038-7.813c-1.634-0.101-3.219-0.254-4.777-0.437l-0.037,7.902
		c-0.794-0.091-1.571-0.199-2.338-0.32l0.073-7.881c-1.639-0.238-3.236-0.511-4.771-0.826l-0.072,7.722
		c-1.032-0.269-2.033-0.577-3.013-0.912l0.034-7.502c-1.669-0.415-3.264-0.871-4.772-1.36l-0.001,0.254l-0.032,6.625
		c-0.797-0.396-1.576-0.822-2.337-1.27l0.058-6.03l0.004-0.378c-1.62-0.596-3.12-1.229-4.496-1.88l-0.297,18.464
		c1.569,0.779,3.108,1.503,4.614,2.161l0.006-0.854l0.059-6.065c0.775,0.39,1.563,0.761,2.368,1.108l-0.029,6.471l-0.001,0.354
		c1.625,0.657,3.218,1.256,4.768,1.78v-0.007l0.032-6.857c0.976,0.299,1.973,0.566,2.99,0.805l-0.065,6.984v0.01
		c1.63,0.48,3.221,0.894,4.767,1.236l0.002-0.218l0.065-7.103c0.776,0.11,1.564,0.205,2.361,0.291l-0.034,7.16l-0.002,0.354
		c1.641,0.299,3.232,0.523,4.775,0.681l0.003-0.569l0.035-7.297c0.876,0.032,1.761,0.053,2.663,0.053c0.184,0,0.376-0.01,0.56-0.012
		v7.439v0.001v0.62c1.647,0.072,3.242,0.076,4.777,0.008v-0.504v-7.676c0.967-0.031,1.932-0.072,2.896-0.123l0.032,7.705
		l0.003,0.377c1.655-0.168,3.253-0.403,4.774-0.703l-0.002-0.168l-0.031-7.557c0.718-0.068,1.433-0.146,2.145-0.238l0.064,7.422
		v0.061c1.672-0.406,3.261-0.873,4.768-1.385l-0.061-6.914c1.043-0.223,2.082-0.475,3.104-0.77l0.03,6.549
		c0.877-0.348,1.729-0.706,2.546-1.067c0.187-0.122,0.397-0.211,0.621-0.28c0.547-0.246,1.083-0.494,1.602-0.738l-0.026-6.168
		c0.834-0.36,1.66-0.743,2.478-1.174l0.06,6.121c0.375-0.188,0.746-0.369,1.104-0.549c1.297-0.648,2.504-1.246,3.646-1.771h-0.002
		V207.725z"/>
	<path d="M242.736,180.822c1.517-0.586,2.761-0.87,3.799-0.87c0.963,0,1.852,0.243,3.082,0.577c0.216,0.06,0.438,0.121,0.668,0.183
		c1.605,0.429,3.563,0.878,6.033,0.878h0.002c1.158,0,2.32-0.097,3.533-0.294c5.746-0.159,10.315-1.917,13.238-5.095
		c2.398-2.609,3.521-5.992,3.244-9.779c-0.057-0.781-0.268-1.541-0.615-2.236c-0.115-0.23-0.246-0.457-0.393-0.674
		c-3.219-4.765-6.333-7.98-10.678-12.054c-0.086-5.198-1.17-10.37-3.281-15.72c-0.17-0.433-0.393-0.844-0.657-1.226
		c-2.374-3.399-5.782-5.271-9.594-5.271c-3.671,0-7.421,1.758-11.146,5.226c-0.488,0.383-0.939,0.775-1.359,1.172
		c-2.928,2.783-4.227,5.856-5.299,8.396c-1.066,2.525-1.924,4.551-4.328,6.712c-5.297,2.636-10.367,5.12-15.615,7.688
		c2.197-5.738,3.122-12.94,2.38-20.254l-0.058-0.399c-0.375-2.205-0.827-4.442-1.31-6.813c-0.063-0.307-0.125-0.618-0.188-0.927
		c8.017-8.18,18.961-23.895,17.834-47.983c-0.695-22.259-11.198-41.875-29.514-55.194c-11.05-8.227-40.217-14.926-53.565-14.989
		c-16.249-0.8-48.997,1.683-69.508,16.121c-18.021,12.956-28.946,35.137-27.833,56.52c0.995,18.528,7.702,35.875,18.058,47.001
		c-0.456,2.25-0.887,4.392-1.245,6.496l-0.054,0.396c-0.761,7.488,0.219,14.863,2.543,20.665H70.91
		c-5.522-2.685-11.065-5.479-16.993-8.75c-2-1.699-2.823-3.472-3.938-5.878c-0.956-2.061-2.044-4.406-3.942-6.75
		c-1.476-1.822-3.442-3.643-6.217-5.326c-0.146-0.088-0.295-0.17-0.446-0.246c-2.075-1.028-4.522-2.125-7.31-2.125
		c-4.154,0-7.632,2.344-10.341,6.963c-0.13,0.221-0.246,0.45-0.345,0.687c-2.063,4.856-2.284,9.74-2.479,14.042
		c-0.003,0.088-0.007,0.176-0.011,0.262c-0.648,0.604-1.325,1.193-2.026,1.803c-2.449,2.135-5.225,4.553-7.508,8.254
		c-2.992,4.817-2.483,8.625-1.527,10.969c0.549,1.35,1.379,2.541,2.466,3.588c1.923,1.854,4.669,3.232,8.229,4.109
		c2.489,0.62,4.844,0.922,7.204,0.922c2.739,0,5.03-0.408,7.051-0.768c1.732-0.309,3.23-0.576,4.865-0.576
		c0.818,0,1.637,0.066,2.489,0.206c15.967,7.446,32.252,15.248,48.445,23.199c-0.005,0.396,0.006,0.792,0.01,1.188l-0.18,0.094
		c-10.853,5.779-21.108,11.238-33.571,16.045c-1.23,0.289-2.294,0.428-3.242,0.428c-1.344,0-2.378-0.283-3.81-0.678
		c-1.813-0.5-4.071-1.121-7.093-1.121c-2.98,0-6.282,0.617-10.096,1.889c-0.653,0.221-1.263,0.547-1.804,0.975
		c-3.105,2.442-4.95,5.765-5.198,9.351c-0.252,3.646,1.144,7.249,3.93,10.144c0.04,0.041,0.08,0.082,0.12,0.121
		c1.886,1.852,3.472,3.342,5.005,4.782c1.028,0.968,2.015,1.896,3.044,2.886c0.417,2.307,0.629,4.568,0.883,7.297
		c0.119,1.278,0.245,2.627,0.402,4.082c0.045,0.42,0.135,0.834,0.267,1.232c2.786,8.438,8.854,9.35,11.333,9.35c0,0,0,0,0.002,0
		c3.004,0,6.143-1.199,9.077-3.464c0.371-0.284,0.706-0.612,0.999-0.977c0.504-0.623,1.083-1.271,1.699-1.954
		c1.433-1.594,3.055-3.398,4.25-5.536l0.285-0.492c1.488-2.565,3.153-5.437,4.963-7.784l29.791-15.781
		c4.286,4.996,9.5,9.104,14.735,11.24l0.212,0.082c9.541,3.479,15.927,4.567,27.015,4.6v0.033c0,0,0.001,0,0.002,0
		c1.232,0,2.396-0.018,3.522-0.045c0.198-0.006,0.405-0.008,0.601-0.014c0.18-0.006,0.348-0.018,0.521-0.021
		c1.111-0.041,2.186-0.094,3.213-0.166c0.203-0.016,0.396-0.033,0.596-0.051c6.85-0.545,12.137-1.93,19.027-4.742
		c0.253-0.104,0.504-0.229,0.758-0.342c5.02-2.217,9.977-6.117,14.075-10.803l29.33,15.249c2.823,2.582,3.737,4.582,4.787,6.878
		c1.135,2.484,2.542,5.564,6.069,8.375c2.892,2.633,6.748,5.579,11.222,5.579c0,0,0,0,0.002,0c2.411,0,5.851-0.864,8.923-4.834
		c0.205-0.265,0.408-0.543,0.609-0.836c0-0.001,0-0.001,0-0.002c0.175-0.255,0.33-0.521,0.461-0.797
		c2.277-4.744,2.619-9.39,2.921-13.487c0.063-0.854,0.125-1.684,0.198-2.502c0.813-0.712,1.608-1.367,2.389-2.009
		c2.01-1.654,4.087-3.366,6.206-5.822c0.709-0.795,1.293-1.575,1.772-2.337c2.073-3.295,2.166-6.213,1.789-8.23
		c-0.468-2.506-2.113-6.043-7.306-8.68c-0.153-0.078-0.313-0.15-0.476-0.216c-2.662-1.071-6.271-2.304-10.561-2.304
		c-2.273,0-4.51,0.334-6.834,1.019c-0.045,0.015-0.088,0.026-0.133,0.039c-1.521,0.487-2.615,0.694-3.665,0.694
		c-1.056,0-2.075-0.217-3.205-0.682l-33.396-15.502c0.01-0.603,0.024-1.205,0.015-1.802L242.736,180.822z M143.941,141.316
		c5.199,3.915,6.365,5.3,9.097,9.524c1.103,1.703,2.983,5.605,3.517,8.209c0.547,2.674,0.947,6.447,0.897,8.413
		c0,4.737-1.112,8.728-2.899,10.396c-0.588,0.551-1.238,0.834-1.896,0.834c-0.051,0-0.102,0-0.152-0.004
		c-2.305-0.289-5.021-2.543-9.113-7.541l0.369-0.303l-0.101-28.546c-0.101-0.074-0.188-0.143-0.291-0.22L143.941,141.316z
		 M139.703,141.22l0.578,0.759c-0.102,0.079-0.192,0.147-0.289,0.222l-0.047,28.593l0.37,0.302c-4.093,5-6.811,7.254-9.086,7.539
		c-0.051,0.002-0.103,0.004-0.155,0.004c-0.697,0-1.362-0.289-1.954-0.844c-1.79-1.673-2.882-5.564-2.92-10.408
		c-0.006-2.133,0.401-5.898,0.908-8.404c0.521-2.594,2.385-6.438,3.483-8.221C133.37,146.531,134.541,145.145,139.703,141.22z
		 M103.019,148.682c-4.151-1.186-7.519-3.869-10.897-8.694l-0.061-0.118c-0.79-2.266-1.537-4.007-2.33-5.853
		c-0.798-1.859-1.622-3.782-2.63-6.52c-0.19-0.625-0.311-1.277-0.384-1.938c-0.278-2.453,0.223-5.073,1.461-7.328
		c1.233-2.246,3.761-5.217,8.804-6.614l1.748-0.484l-0.32,0.32c6.406-1.087,12.62-1.81,19.437-2.567
		c3.459-0.888,6.703-0.009,9.066,2.489c3.199,3.383,4.342,9.207,2.789,14.179c-0.004,0.014-0.008,0.027-0.012,0.04
		c-2.832,6.232-6.921,12.344-12.891,19.288c-3.065,3.468-6.398,4.552-9.363,4.552C105.82,149.434,104.313,149.111,103.019,148.682z
		 M170.458,210.385c-0.358,0.18-0.729,0.361-1.104,0.549l-0.06-6.121c-0.817,0.431-1.644,0.813-2.478,1.174l0.026,6.168
		c-0.519,0.244-1.055,0.492-1.602,0.738c-0.224,0.069-0.435,0.158-0.621,0.28c-0.817,0.361-1.669,0.72-2.546,1.067l-0.03-6.549
		c-1.022,0.295-2.062,0.547-3.104,0.77l0.061,6.914c-1.507,0.512-3.096,0.979-4.768,1.385v-0.061l-0.064-7.422
		c-0.712,0.092-1.427,0.17-2.145,0.238l0.031,7.557l0.002,0.168c-1.521,0.3-3.119,0.535-4.774,0.703l-0.003-0.377l-0.032-7.705
		c-0.964,0.051-1.929,0.092-2.896,0.123v7.676v0.504c-1.535,0.068-3.13,0.064-4.777-0.008v-0.62v-0.001v-7.439
		c-0.184,0.002-0.376,0.012-0.56,0.012c-0.902,0-1.787-0.021-2.663-0.053l-0.035,7.297l-0.003,0.569
		c-1.543-0.157-3.134-0.382-4.775-0.681l0.002-0.354l0.034-7.16c-0.797-0.086-1.585-0.181-2.361-0.291l-0.065,7.103l-0.002,0.218
		c-1.546-0.343-3.137-0.756-4.767-1.236v-0.01l0.065-6.984c-1.017-0.238-2.014-0.506-2.99-0.805l-0.032,6.857v0.007
		c-1.55-0.524-3.143-1.123-4.768-1.78l0.001-0.354l0.029-6.471c-0.805-0.348-1.593-0.719-2.368-1.108l-0.059,6.065l-0.006,0.854
		c-1.506-0.658-3.045-1.382-4.614-2.161l0.297-18.464c1.376,0.651,2.876,1.284,4.496,1.88l-0.004,0.378l-0.058,6.03
		c0.761,0.447,1.54,0.873,2.337,1.27l0.032-6.625l0.001-0.254c1.508,0.489,3.103,0.945,4.772,1.36l-0.034,7.502
		c0.98,0.335,1.981,0.644,3.013,0.912l0.072-7.722c1.535,0.315,3.132,0.588,4.771,0.826l-0.073,7.881
		c0.767,0.121,1.544,0.229,2.338,0.32l0.037-7.902c1.558,0.183,3.143,0.336,4.777,0.437l-0.038,7.813
		c1.048,0.039,2.113,0.059,3.202,0.051v-7.729c0.019,0,0.037,0.002,0.056,0.002c0.674,0.016,1.344,0.022,2.013,0.022
		c0.911,0,1.81-0.026,2.709-0.058v7.643c0.987-0.033,1.939-0.08,2.879-0.131l-0.035-7.658c1.609-0.107,3.205-0.25,4.777-0.453
		l0.031,7.744c0.725-0.072,1.434-0.154,2.123-0.248l-0.066-7.811c1.609-0.254,3.205-0.551,4.771-0.901l0.065,7.844
		c1.076-0.25,2.115-0.538,3.125-0.868l-0.032-7.763c1.62-0.442,3.21-0.946,4.771-1.5l0.002,0.494l0.03,6.776
		c0.829-0.43,1.646-0.898,2.449-1.416l-0.06-6.069l-0.006-0.692c1.104-0.439,2.193-0.906,3.266-1.4h0.152h0.604l0.093,0.291
		c0.22-0.069,0.424-0.141,0.626-0.211h0.023l0.002,0.09l0.145,15.22l0.014,1.183v0.889h0.002
		C172.962,209.139,171.755,209.736,170.458,210.385z M181.029,148.686c-1.274,0.432-2.764,0.752-4.368,0.752
		c-2.947,0-6.28-1.082-9.388-4.547c-5.98-6.89-10.09-13-12.932-19.242c-0.009-0.032-0.017-0.065-0.025-0.097
		c-1.573-4.993-0.457-10.78,2.723-14.159c2.357-2.512,5.605-3.396,9.145-2.494c7.547,0.84,13.91,1.588,20.563,2.77l0.125-0.125
		l0.271,0.074c5.08,1.408,7.615,4.403,8.848,6.669c1.224,2.247,1.715,4.845,1.435,7.261c-0.075,0.659-0.198,1.307-0.394,1.927
		c-1.057,2.875-1.916,4.855-2.744,6.771c-0.77,1.777-1.495,3.455-2.278,5.629l-0.057,0.11
		C188.63,144.794,185.264,147.479,181.029,148.686z"/>
</g>
</svg>
