<?xml version="1.0" encoding="utf-8"?>
<!-- Generator: Adobe Illustrator 15.1.0, SVG Export Plug-In . SVG Version: 6.00 Build 0)  -->
<!DOCTYPE svg PUBLIC "-//W3C//DTD SVG 1.1//EN" "http://www.w3.org/Graphics/SVG/1.1/DTD/svg11.dtd">
<svg version="1.1" id="Layer_3_1_" xmlns="http://www.w3.org/2000/svg" xmlns:xlink="http://www.w3.org/1999/xlink" x="0px" y="0px"
	 width="283.465px" height="283.465px" viewBox="0 0 283.465 283.465" enable-background="new 0 0 283.465 283.465"
	 xml:space="preserve">
<g>
	<path d="M242.737,180.822c1.516-0.586,2.76-0.87,3.798-0.87c0.963,0,1.851,0.243,3.082,0.578c0.216,0.059,0.438,0.12,0.668,0.182
		c1.606,0.429,3.562,0.878,6.034,0.878h0.002l0,0c1.158,0,2.32-0.097,3.533-0.294c5.746-0.159,10.315-1.917,13.238-5.095
		c2.398-2.609,3.521-5.992,3.244-9.779c-0.057-0.781-0.268-1.541-0.615-2.236c-0.115-0.231-0.246-0.457-0.393-0.674
		c-3.219-4.765-6.333-7.981-10.678-12.054c-0.086-5.198-1.17-10.37-3.281-15.72c-0.17-0.433-0.393-0.844-0.657-1.226
		c-2.374-3.399-5.782-5.271-9.594-5.271c-3.671,0-7.421,1.758-11.146,5.226c-0.488,0.383-0.939,0.775-1.359,1.172
		c-2.928,2.783-4.227,5.856-5.299,8.396c-1.066,2.525-1.924,4.551-4.328,6.712c-5.297,2.636-10.367,5.12-15.615,7.688
		c2.197-5.737,3.122-12.94,2.38-20.254l-0.058-0.399c-0.375-2.205-0.827-4.442-1.309-6.813c-0.063-0.307-0.125-0.618-0.188-0.927
		c8.016-8.18,18.961-23.895,17.834-47.983c-0.696-22.259-11.199-41.875-29.514-55.194c-11.05-8.227-40.217-14.926-53.566-14.989
		c-16.249-0.8-48.997,1.683-69.508,16.121c-18.021,12.956-28.946,35.137-27.833,56.52c0.995,18.528,7.702,35.875,18.058,47.001
		c-0.456,2.25-0.887,4.392-1.245,6.496l-0.054,0.396c-0.761,7.488,0.219,14.863,2.543,20.665h-0.001
		c-5.522-2.685-11.065-5.479-16.993-8.75c-2-1.699-2.823-3.472-3.938-5.877c-0.956-2.062-2.044-4.407-3.942-6.75
		c-1.476-1.822-3.442-3.643-6.217-5.326c-0.146-0.088-0.295-0.17-0.446-0.246c-2.075-1.028-4.522-2.125-7.31-2.125
		c-4.154,0-7.632,2.344-10.341,6.963c-0.13,0.221-0.246,0.45-0.345,0.687c-2.063,4.856-2.284,9.74-2.479,14.042
		c-0.003,0.088-0.007,0.176-0.011,0.262c-0.648,0.604-1.325,1.193-2.026,1.803c-2.449,2.135-5.225,4.553-7.508,8.254
		c-2.992,4.817-2.483,8.625-1.527,10.969c0.549,1.349,1.379,2.541,2.466,3.588c1.923,1.853,4.669,3.232,8.229,4.109
		c2.489,0.62,4.844,0.922,7.204,0.922c2.739,0,5.03-0.408,7.051-0.768c1.732-0.309,3.23-0.576,4.865-0.576
		c0.818,0,1.637,0.066,2.489,0.206c15.967,7.446,32.252,15.248,48.445,23.199c-0.005,0.396,0.006,0.792,0.01,1.188l-0.18,0.094
		c-10.853,5.779-21.108,11.238-33.571,16.045c-1.23,0.289-2.294,0.428-3.242,0.428c-1.344,0-2.378-0.283-3.81-0.678
		c-1.813-0.5-4.071-1.121-7.093-1.121c-2.98,0-6.282,0.617-10.096,1.889c-0.653,0.221-1.263,0.547-1.804,0.975
		c-3.105,2.442-4.95,5.764-5.198,9.35c-0.252,3.646,1.144,7.249,3.93,10.143c0.04,0.041,0.08,0.082,0.12,0.121
		c1.886,1.852,3.472,3.342,5.005,4.783c1.028,0.967,2.015,1.895,3.044,2.885c0.417,2.307,0.629,4.569,0.883,7.297
		c0.119,1.279,0.245,2.627,0.402,4.082c0.045,0.42,0.135,0.834,0.267,1.233c2.786,8.438,8.854,9.349,11.333,9.349c0,0,0,0,0.002,0
		c3.004,0,6.143-1.199,9.077-3.463c0.371-0.285,0.706-0.613,0.999-0.977c0.504-0.623,1.083-1.27,1.699-1.954
		c1.433-1.593,3.055-3.399,4.25-5.536l0.285-0.492c1.488-2.566,3.153-5.436,4.963-7.785l29.791-15.781
		c4.286,4.996,9.5,9.104,14.735,11.24l0.212,0.082c9.541,3.479,15.927,4.568,27.015,4.6v0.033c0,0,0.001,0,0.002,0
		c1.232,0,2.396-0.017,3.522-0.045c0.198-0.006,0.405-0.008,0.601-0.013c0.179-0.006,0.347-0.017,0.521-0.021
		c1.111-0.041,2.186-0.094,3.213-0.166c0.203-0.016,0.396-0.034,0.596-0.051c6.849-0.545,12.137-1.93,19.027-4.742
		c0.253-0.104,0.504-0.23,0.758-0.342c5.02-2.217,9.977-6.117,14.075-10.803l29.33,15.249c2.823,2.582,3.737,4.582,4.787,6.878
		c1.135,2.484,2.542,5.565,6.069,8.375c2.892,2.633,6.748,5.579,11.222,5.579c0,0,0,0,0.002,0c2.411,0,5.851-0.864,8.923-4.834
		c0.205-0.265,0.408-0.543,0.609-0.836c0-0.001,0-0.001,0-0.002c0.175-0.255,0.33-0.521,0.461-0.797
		c2.277-4.744,2.619-9.39,2.921-13.487c0.063-0.854,0.125-1.684,0.198-2.502c0.813-0.712,1.609-1.367,2.389-2.009
		c2.01-1.654,4.087-3.366,6.206-5.822c0.709-0.795,1.293-1.575,1.772-2.337c2.074-3.295,2.166-6.213,1.789-8.23
		c-0.467-2.506-2.113-6.043-7.305-8.68c-0.154-0.078-0.313-0.15-0.475-0.216c-2.663-1.071-6.271-2.304-10.561-2.304
		c-2.273,0-4.51,0.334-6.834,1.019c-0.045,0.015-0.088,0.026-0.133,0.039c-1.521,0.487-2.615,0.694-3.665,0.694
		c-1.055,0-2.075-0.217-3.205-0.682l-33.396-15.502c0.01-0.602,0.025-1.205,0.015-1.801L242.737,180.822z M143.942,141.316
		c5.199,3.915,6.365,5.3,9.096,9.524c1.102,1.703,2.984,5.605,3.516,8.209c0.547,2.674,0.948,6.447,0.898,8.413
		c0,4.737-1.112,8.728-2.9,10.396c-0.587,0.55-1.238,0.834-1.896,0.834c-0.051,0-0.102,0-0.152-0.004
		c-2.305-0.289-5.021-2.543-9.113-7.541l0.369-0.303l-0.101-28.546c-0.101-0.074-0.189-0.143-0.291-0.22L143.942,141.316z
		 M139.703,141.22l0.578,0.759c-0.102,0.079-0.192,0.147-0.289,0.222l-0.047,28.593l0.37,0.302c-4.093,5-6.811,7.254-9.086,7.539
		c-0.051,0.002-0.103,0.004-0.155,0.004c-0.697,0-1.362-0.289-1.954-0.844c-1.79-1.673-2.882-5.564-2.92-10.408
		c-0.006-2.133,0.401-5.898,0.908-8.404c0.521-2.594,2.385-6.438,3.483-8.221C133.37,146.531,134.541,145.145,139.703,141.22z
		 M44.281,169.742c-0.397-0.186-0.815-0.323-1.244-0.408c-1.843-0.367-3.607-0.547-5.393-0.547c-2.647,0-4.892,0.4-6.873,0.753
		c-1.775,0.315-3.309,0.589-5.043,0.589c-1.415,0-2.869-0.191-4.446-0.585c-0.803-0.198-1.493-0.418-2.046-0.653
		c-0.126-0.055-0.224-0.16-0.267-0.289c-0.043-0.131-0.028-0.273,0.042-0.393c0.001-0.003,0.051-0.085,0.053-0.088
		c1.422-2.305,3.233-3.885,5.331-5.712c1.423-1.239,2.89-2.517,4.371-4.114c0.861-0.928,1.378-2.132,1.457-3.395
		c0.057-0.893,0.097-1.789,0.137-2.687c0.16-3.519,0.311-6.838,1.428-9.713c0.186-0.31,0.312-0.493,0.419-0.639
		c0.129-0.175,0.361-0.24,0.563-0.159c0.298,0.12,0.709,0.304,1.275,0.579c3.226,2.016,4.192,4.098,5.529,6.979
		c1.416,3.057,3.174,6.853,7.573,10.336c0.234,0.186,0.487,0.354,0.75,0.498c9.882,5.473,18.56,9.592,27.747,13.952
		c2.03,0.966,4.565,2.212,7.044,3.431l3.335,1.637c0.108,0.054,0.192,0.146,0.236,0.259c1.689,4.401,2.704,7.806,3.281,11.013
		c0.032,0.064,0.049,0.137,0.049,0.211c0,0.27-0.21,0.508-0.487,0.479c-0.003,0-0.006,0-0.009,0c-0.072,0-0.143-0.017-0.209-0.05
		C74.043,183.793,57.787,176.035,44.281,169.742z M93.325,225.979l-29.925,15.978c-0.632,0.334-1.183,0.78-1.64,1.326
		c-2.719,3.241-4.881,6.972-6.789,10.262l-0.33,0.569c-0.613,1.095-1.681,2.283-2.811,3.541c-0.521,0.58-1.052,1.171-1.579,1.796
		c-0.029,0.034-0.063,0.063-0.1,0.09c-0.336,0.224-0.659,0.401-0.957,0.53c-0.062,0.027-0.126,0.039-0.189,0.039
		c-0.171,0-0.335-0.092-0.421-0.252c-0.073-0.135-0.155-0.31-0.245-0.526c-0.017-0.043-0.028-0.086-0.033-0.132
		c-0.118-1.131-0.217-2.192-0.312-3.211c-0.326-3.491-0.634-6.789-1.458-10.436c-0.232-1.031-0.753-1.968-1.506-2.709
		c-1.624-1.598-3.035-2.924-4.528-4.326c-1.466-1.377-2.982-2.803-4.754-4.537c-0.556-0.598-0.731-1.09-0.715-1.358
		c0.007-0.128,0.062-0.269,0.174-0.437c0.062-0.094,0.155-0.162,0.263-0.194c2.063-0.609,3.771-0.906,5.223-0.906
		c1.479,0,2.613,0.313,4.049,0.71c1.767,0.486,3.962,1.09,6.855,1.09c1.977,0,4.055-0.277,6.353-0.851
		c0.214-0.054,0.428-0.122,0.638-0.201c11.944-4.581,21.938-9.729,31.151-14.608c0.127-0.067,0.278-0.074,0.411-0.02
		c0.133,0.057,0.232,0.169,0.272,0.309c0.742,2.582,1.786,5.217,3.104,7.828C93.644,225.574,93.555,225.855,93.325,225.979z
		 M103.019,148.682c-4.151-1.186-7.519-3.869-10.897-8.694l-0.061-0.118c-0.79-2.266-1.537-4.007-2.33-5.853
		c-0.798-1.859-1.622-3.782-2.63-6.52c-0.19-0.625-0.311-1.277-0.384-1.938c-0.278-2.453,0.223-5.073,1.461-7.328
		c1.233-2.246,3.761-5.217,8.804-6.614l1.748-0.484l-0.32,0.32c6.406-1.087,12.62-1.81,19.437-2.567
		c3.459-0.888,6.703-0.009,9.066,2.489c3.199,3.383,4.342,9.207,2.789,14.179c-0.004,0.014-0.008,0.027-0.012,0.04
		c-2.832,6.232-6.921,12.344-12.891,19.288c-3.065,3.468-6.398,4.552-9.363,4.552C105.82,149.434,104.313,149.111,103.019,148.682z
		 M174.104,208.614c-1.142,0.524-2.349,1.122-3.646,1.771c-0.359,0.18-0.729,0.361-1.104,0.549l-0.06-6.121
		c-0.817,0.43-1.644,0.813-2.478,1.174l0.027,6.168c-0.519,0.244-1.055,0.492-1.602,0.738c-0.223,0.069-0.434,0.158-0.621,0.28
		c-0.818,0.361-1.669,0.72-2.546,1.068l-0.03-6.55c-1.023,0.295-2.061,0.547-3.104,0.77l0.06,6.914
		c-1.507,0.512-3.095,0.979-4.767,1.385v-0.061l-0.065-7.422c-0.712,0.092-1.427,0.17-2.144,0.238l0.031,7.557l0.002,0.168
		c-1.522,0.3-3.119,0.535-4.775,0.703l-0.002-0.377l-0.033-7.705c-0.964,0.051-1.928,0.092-2.896,0.123v7.676v0.504
		c-1.535,0.068-3.13,0.064-4.777-0.008v-0.62v-0.001v-7.439c-0.184,0.002-0.376,0.012-0.56,0.012c-0.902,0-1.787-0.021-2.663-0.053
		l-0.035,7.297l-0.003,0.569c-1.543-0.157-3.134-0.382-4.775-0.681l0.002-0.354l0.034-7.16c-0.797-0.086-1.585-0.18-2.361-0.291
		l-0.065,7.103l-0.002,0.218c-1.546-0.343-3.137-0.756-4.767-1.236v-0.01l0.065-6.984c-1.017-0.239-2.014-0.506-2.99-0.805
		l-0.032,6.857v0.007c-1.55-0.524-3.143-1.123-4.768-1.78l0.001-0.354l0.029-6.47c-0.805-0.348-1.593-0.719-2.368-1.109
		l-0.059,6.066l-0.006,0.854c-1.506-0.658-3.045-1.382-4.614-2.161l0.297-18.464c1.376,0.652,2.876,1.284,4.496,1.88l-0.004,0.378
		l-0.058,6.03c0.761,0.448,1.54,0.873,2.337,1.269l0.032-6.625l0.001-0.254c1.508,0.49,3.103,0.946,4.772,1.361l-0.034,7.502
		c0.98,0.335,1.981,0.643,3.013,0.912l0.072-7.721c1.535,0.315,3.132,0.588,4.771,0.826l-0.073,7.881
		c0.767,0.121,1.544,0.229,2.338,0.32l0.037-7.902c1.558,0.182,3.143,0.336,4.777,0.436l-0.038,7.814
		c1.048,0.039,2.113,0.058,3.202,0.05v-7.729c0.019,0,0.037,0.002,0.056,0.002c0.674,0.017,1.344,0.023,2.013,0.023
		c0.91,0,1.81-0.027,2.709-0.057v7.642c0.988-0.033,1.94-0.08,2.879-0.131l-0.035-7.658c1.609-0.108,3.205-0.25,4.777-0.453
		l0.032,7.744c0.724-0.073,1.433-0.155,2.123-0.248l-0.067-7.81c1.61-0.254,3.205-0.551,4.771-0.902l0.066,7.844
		c1.076-0.25,2.115-0.539,3.125-0.869l-0.033-7.762c1.621-0.443,3.21-0.947,4.771-1.5l0.002,0.494l0.03,6.777
		c0.829-0.43,1.646-0.899,2.449-1.416l-0.06-6.07l-0.006-0.693c1.105-0.438,2.194-0.906,3.266-1.4h0.152h0.604l0.093,0.291
		c0.22-0.069,0.424-0.141,0.626-0.211h0.023l0.002,0.09l0.145,15.22l0.014,1.183V208.614L174.104,208.614z M181.03,148.686
		c-1.275,0.431-2.764,0.752-4.369,0.752c-2.947,0-6.28-1.082-9.387-4.547c-5.981-6.89-10.09-13-12.932-19.242
		c-0.009-0.032-0.017-0.065-0.025-0.097c-1.574-4.993-0.457-10.78,2.722-14.159c2.358-2.512,5.606-3.396,9.144-2.494
		c7.547,0.84,13.911,1.588,20.563,2.77l0.125-0.125l0.271,0.074c5.08,1.408,7.616,4.403,8.848,6.669
		c1.224,2.247,1.715,4.845,1.435,7.261c-0.075,0.659-0.198,1.307-0.394,1.927c-1.057,2.875-1.916,4.855-2.744,6.771
		c-0.77,1.777-1.495,3.455-2.278,5.629l-0.057,0.11C188.63,144.794,185.263,147.479,181.03,148.686z M223.888,231.137
		c2.588,1.088,5.118,1.616,7.742,1.616c2.924,0,5.443-0.692,7.086-1.215c1.313-0.382,2.439-0.56,3.559-0.56
		c1.731,0,3.526,0.416,6,1.391c0.177,0.091,0.289,0.156,0.391,0.218c0.118,0.071,0.199,0.188,0.225,0.326
		c0.024,0.135-0.011,0.274-0.098,0.383c-0.094,0.114-0.2,0.243-0.325,0.384l-0.446-0.217l0.361,0.313
		c-1.486,1.729-3.038,3.009-4.836,4.49c-1.367,1.125-2.916,2.398-4.591,4.008c-0.886,0.854-1.468,1.992-1.638,3.211
		c-0.258,1.887-0.392,3.705-0.51,5.31c-0.238,3.265-0.445,6.082-1.521,8.688c-0.054,0.129-0.161,0.229-0.293,0.271
		c-0.05,0.018-0.101,0.023-0.147,0.023c-0.088,0-0.175-0.024-0.25-0.069c-0.539-0.33-1.479-0.998-2.9-2.306
		c-0.113-0.104-0.23-0.205-0.354-0.301c-1.39-1.076-1.885-2.078-2.868-4.237c-1.313-2.869-3.104-6.784-8.195-11.214
		c-0.332-0.286-0.693-0.531-1.071-0.728l-28.767-14.956c-0.231-0.119-0.323-0.404-0.209-0.638c1.129-2.274,1.97-4.496,2.498-6.604
		c0.068-0.258,0.125-0.515,0.185-0.771l0.114-0.508c0.035-0.139,0.129-0.256,0.258-0.317c0.13-0.062,0.279-0.063,0.408-0.003
		L223.888,231.137z M194.772,190.752c-0.064,0.031-0.135,0.046-0.203,0.046c-0.104,0-0.207-0.032-0.291-0.099
		c-0.144-0.109-0.211-0.29-0.18-0.467c0.59-3.207,1.618-6.623,3.336-11.072c0.045-0.119,0.137-0.215,0.254-0.266l0.154-0.063
		c0.061-0.024,0.119-0.048,0.178-0.075c6.485-3.217,12.422-6.121,18.191-8.943l0.342-0.166c6.178-3.022,12.012-5.877,18.219-8.967
		c0.388-0.193,0.748-0.43,1.074-0.701c4.916-4.105,6.717-8.364,8.031-11.475c1.066-2.527,1.695-3.898,3.289-5.102
		c0.163-0.125,0.32-0.26,0.473-0.402c1.426-1.355,2.414-1.906,2.877-2.114c0.119-0.055,0.258-0.056,0.383-0.004
		c0.121,0.052,0.218,0.153,0.263,0.278c1.555,4.328,2.206,8.439,1.987,12.568c-0.086,1.639,0.554,3.215,1.759,4.328
		c4.805,4.44,7.194,6.805,9.556,9.957c0.078,0.104,0.109,0.233,0.09,0.36c-0.021,0.128-0.09,0.242-0.195,0.315
		c-0.367,0.262-1.823,1.111-5.137,1.148c-0.312,0.004-0.625,0.034-0.929,0.092c-0.706,0.129-1.353,0.191-1.972,0.191
		c-1.291,0-2.293-0.273-3.68-0.652c-1.617-0.441-3.613-0.986-6.106-0.986c-2.546,0-5.224,0.57-8.183,1.74
		c-0.107,0.043-0.217,0.092-0.326,0.141L194.772,190.752z"/>
</g>
</svg>
