<?xml version="1.0" encoding="utf-8"?>
<!-- Generator: Adobe Illustrator 15.1.0, SVG Export Plug-In . SVG Version: 6.00 Build 0)  -->
<!DOCTYPE svg PUBLIC "-//W3C//DTD SVG 1.1//EN" "http://www.w3.org/Graphics/SVG/1.1/DTD/svg11.dtd">
<svg version="1.1" id="Layer_1" xmlns:serif="http://www.serif.com/"
	 xmlns="http://www.w3.org/2000/svg" xmlns:xlink="http://www.w3.org/1999/xlink" x="0px" y="0px" width="283.46px"
	 height="283.46px" viewBox="0 0 283.46 283.46" enable-background="new 0 0 283.46 283.46" xml:space="preserve">
<g>
	
		<path fill="none" stroke="#000000" stroke-width="4.17" stroke-linecap="round" stroke-linejoin="round" stroke-miterlimit="2.2561" d="
		M90.908,179.437c-12.985,0-24.585-5.977-32.195-15.328c-5.811-7.139-9.297-16.246-9.297-26.161
		c0-22.901,18.591-41.492,41.492-41.492c0-22.899,18.59-41.49,41.489-41.49s41.49,18.591,41.49,41.49h18.669
		c22.899,0,41.489,18.591,41.489,41.492c0,9.915-3.484,19.022-9.297,26.161c-7.609,9.352-19.207,15.328-32.192,15.328"/>
	<g>
		<path fill="none" stroke="#010001" stroke-width="4.17" stroke-linecap="round" stroke-miterlimit="1.25" d="M114.352,228.322
			l10.289-21.135"/>
		<path fill="none" stroke="#010001" stroke-width="4.17" stroke-linecap="round" stroke-miterlimit="1.25" d="M135.6,184.673
			l9.42-19.354"/>
		<circle cx="129.997" cy="196.099" r="4.516"/>
	</g>
	<g>
		<circle cx="168.965" cy="172.869" r="4.516"/>
		<path fill="none" stroke="#010001" stroke-width="4.17" stroke-linecap="round" stroke-miterlimit="1.25" d="M164.195,183.296
			l-21.999,45.197"/>
	</g>
	<g>
		<path fill="none" stroke="#010001" stroke-width="4.17" stroke-linecap="round" stroke-miterlimit="1.25" d="M104.302,183.296
			l-17.333,35.607"/>
		<circle cx="109.071" cy="172.869" r="4.516"/>
	</g>
</g>
</svg>
