<?xml version="1.0" encoding="utf-8"?>
<!-- Generator: Adobe Illustrator 15.1.0, SVG Export Plug-In . SVG Version: 6.00 Build 0)  -->
<!DOCTYPE svg PUBLIC "-//W3C//DTD SVG 1.0//EN" "http://www.w3.org/TR/2001/REC-SVG-20010904/DTD/svg10.dtd">
<svg version="1.0" id="Layer_2" xmlns="http://www.w3.org/2000/svg" xmlns:xlink="http://www.w3.org/1999/xlink" x="0px" y="0px"
	 width="283.46px" height="283.46px" viewBox="0 0 283.46 283.46" enable-background="new 0 0 283.46 283.46" xml:space="preserve">
<path d="M141.73,256.815c-63.684,0-115.495-51.811-115.495-115.494c0-63.684,51.811-115.495,115.495-115.495
	c63.683,0,115.494,51.811,115.494,115.495C257.224,205.004,205.414,256.815,141.73,256.815z M141.73,43.826
	c-53.759,0-97.495,43.736-97.495,97.495s43.736,97.494,97.495,97.494c53.758,0,97.494-43.735,97.494-97.494
	S195.489,43.826,141.73,43.826z"/>
<g>
	<circle cx="108.397" cy="110.665" r="20"/>
	<circle cx="175.064" cy="110.666" r="20"/>
</g>
<path d="M141.73,198.128c17.751,0,33.544-8.869,43.509-22.565h20.975c-12.061,24.064-36.429,40.565-64.483,40.565
	s-52.422-16.501-64.482-40.565h20.975C108.187,189.259,123.98,198.128,141.73,198.128z"/>
</svg>
