<?xml version="1.0" encoding="utf-8"?>
<!-- Generator: Adobe Illustrator 15.1.0, SVG Export Plug-In . SVG Version: 6.00 Build 0)  -->
<!DOCTYPE svg PUBLIC "-//W3C//DTD SVG 1.1//EN" "http://www.w3.org/Graphics/SVG/1.1/DTD/svg11.dtd">
<svg version="1.1" id="Layer_1" xmlns:serif="http://www.serif.com/"
	 xmlns="http://www.w3.org/2000/svg" xmlns:xlink="http://www.w3.org/1999/xlink" x="0px" y="0px" width="283.46px"
	 height="283.46px" viewBox="0 0 283.46 283.46" enable-background="new 0 0 283.46 283.46" xml:space="preserve">
<path d="M165.935,231.626c0.014,0.2,0.018,0.402,0.018,0.607c0,5.493-4.457,9.949-9.949,9.949s-9.951-4.456-9.951-9.949
	c0-1.469,0.32-2.867,0.894-4.123c-6.437-3.299-10.844-10-10.844-17.723c0-4.797,1.701-9.201,4.531-12.638
	c-10.159-4.06-18.342-12.019-22.694-22.021c-1.129,0.092-2.272,0.14-3.428,0.14c-14.192,0-26.73-7.144-34.211-18.024
	c-17.792-4.674-30.932-20.882-30.932-40.133c0-22.899,18.591-41.49,41.49-41.49c0-22.899,18.593-41.492,41.492-41.492
	c22.9,0,41.49,18.593,41.49,41.492h18.667c22.901,0,41.492,18.591,41.492,41.49c0,13.876-6.827,26.172-17.302,33.705
	c1.854,2.27,2.965,5.17,2.965,8.328c0,7.102-5.627,12.898-12.664,13.172c0.29,0.934,0.447,1.923,0.447,2.952
	c0,5.196-3.992,9.468-9.075,9.912c0.486,1.574,0.748,3.249,0.748,4.985c0,6.771-3.99,12.619-9.747,15.314
	c1.383,1.71,2.211,3.886,2.211,6.252c0,5.492-4.459,9.949-9.951,9.949c-0.962,0-1.893-0.135-2.773-0.393
	c-1.518,5.605-6.645,9.736-12.728,9.736C166.064,231.626,165.999,231.626,165.935,231.626L165.935,231.626z"/>
</svg>
