<?xml version="1.0" encoding="utf-8"?>
<!-- Generator: Adobe Illustrator 15.1.0, SVG Export Plug-In . SVG Version: 6.00 Build 0)  -->
<!DOCTYPE svg PUBLIC "-//W3C//DTD SVG 1.1//EN" "http://www.w3.org/Graphics/SVG/1.1/DTD/svg11.dtd">
<svg version="1.1" id="Layer_1" xmlns:serif="http://www.serif.com/"
	 xmlns="http://www.w3.org/2000/svg" xmlns:xlink="http://www.w3.org/1999/xlink" x="0px" y="0px" width="283.46px"
	 height="283.46px" viewBox="0 0 283.46 283.46" enable-background="new 0 0 283.46 283.46" xml:space="preserve">
<path d="M165.984,231.303c0.01,0.203,0.017,0.405,0.017,0.61c0,5.49-4.459,9.949-9.952,9.949c-5.49,0-9.949-4.459-9.949-9.949
	c0-1.472,0.318-2.867,0.893-4.123c-6.435-3.299-10.844-10-10.844-17.723c0-4.797,1.703-9.201,4.533-12.639
	c-10.159-4.06-18.342-12.018-22.694-22.021c-1.129,0.094-2.274,0.139-3.428,0.139c-14.192,0-26.73-7.141-34.211-18.023
	c-17.792-4.672-30.932-20.88-30.932-40.131c0-22.899,18.59-41.49,41.49-41.49c0-22.899,18.59-41.492,41.49-41.492
	c22.899,0,41.492,18.593,41.492,41.492h18.667c22.899,0,41.49,18.591,41.49,41.49c0,13.876-6.827,26.172-17.303,33.706
	c1.854,2.27,2.966,5.17,2.966,8.327c0,7.103-5.628,12.899-12.661,13.173c0.289,0.933,0.444,1.923,0.444,2.949
	c0,5.199-3.99,9.471-9.073,9.912c0.486,1.577,0.748,3.252,0.748,4.987c0,6.772-3.99,12.62-9.746,15.315
	c1.382,1.709,2.208,3.884,2.208,6.252c0,5.49-4.456,9.949-9.949,9.949c-0.964,0-1.896-0.138-2.776-0.393
	c-1.518,5.605-6.643,9.736-12.727,9.736C166.112,231.306,166.046,231.306,165.984,231.303L165.984,231.303z M97.1,82.703
	c-0.371-2.058-0.564-4.18-0.564-6.345c0-19.781,16.131-35.842,36.001-35.842c19.869,0,36,16.062,36,35.842
	c0,1.965-0.159,3.895-0.467,5.774h24.484c19.43,0,35.203,15.706,35.203,35.049s-15.773,35.049-35.203,35.049
	c-0.968,0-1.926-0.04-2.871-0.116c0.39,2.059,0.593,4.178,0.593,6.348c0,18.817-15.347,34.096-34.249,34.096
	c-15.762,0-29.05-10.621-33.031-25.063c-2.316,0.486-4.719,0.742-7.18,0.742c-12.412,0-23.303-6.509-29.389-16.271
	c-17.394-2.121-30.879-16.898-30.879-34.784c0-19.343,15.773-35.049,35.204-35.049C92.918,82.131,95.042,82.328,97.1,82.703
	L97.1,82.703z"/>
<path d="M125.954,134.504c-4.849,0-9.245-1.971-12.426-5.152s-5.15-7.575-5.15-12.426c0-4.85,1.969-9.243,5.15-12.427
	c3.181-3.181,7.577-5.15,12.426-5.15c2.006,0,3.635-1.628,3.635-3.635c0-2.006-1.629-3.632-3.635-3.632
	c-6.855,0-13.067,2.782-17.565,7.278c-4.496,4.498-7.281,10.71-7.281,17.566c0,6.857,2.785,13.069,7.281,17.565
	c4.498,4.499,10.71,7.281,17.565,7.281c2.006,0,3.635-1.629,3.635-3.635C129.589,136.13,127.96,134.504,125.954,134.504
	L125.954,134.504z M161.54,106.361c2.931,0,5.582,1.221,7.497,3.184c1.912,1.96,3.089,4.659,3.089,7.636s-1.177,5.676-3.089,7.636
	c-1.915,1.962-4.566,3.184-7.497,3.184c-1.88,0-3.405,1.526-3.405,3.406c0,1.882,1.525,3.408,3.405,3.408
	c4.837,0,9.214-2.001,12.374-5.237c3.105-3.184,5.025-7.564,5.025-12.396s-1.92-9.212-5.025-12.394
	c-3.16-3.238-7.537-5.24-12.374-5.24c-1.88,0-3.405,1.526-3.405,3.408C158.134,104.834,159.66,106.361,161.54,106.361
	L161.54,106.361z"/>
</svg>
