<?xml version="1.0" encoding="utf-8"?>
<!-- Generator: Adobe Illustrator 15.1.0, SVG Export Plug-In . SVG Version: 6.00 Build 0)  -->
<!DOCTYPE svg PUBLIC "-//W3C//DTD SVG 1.1//EN" "http://www.w3.org/Graphics/SVG/1.1/DTD/svg11.dtd">
<svg version="1.1" id="Layer_1" xmlns:serif="http://www.serif.com/"
	 xmlns="http://www.w3.org/2000/svg" xmlns:xlink="http://www.w3.org/1999/xlink" x="0px" y="0px" width="283.46px"
	 height="283.46px" viewBox="0 0 283.46 283.46" enable-background="new 0 0 283.46 283.46" xml:space="preserve">
<g>
	<circle cx="107.375" cy="215.007" r="4.538"/>
	<path d="M107.375,210.469c2.505,0,4.538,2.035,4.538,4.538c0,2.505-2.032,4.537-4.538,4.537c-2.503,0-4.538-2.032-4.538-4.537
		C102.838,212.504,104.872,210.469,107.375,210.469z M107.375,217.739c-0.752,0-1.437-0.305-1.93-0.8
		c-0.495-0.495-0.8-1.177-0.8-1.932c0-0.753,0.305-1.437,0.8-1.931c0.493-0.494,1.177-0.799,1.93-0.799
		c0.754,0,1.437,0.305,1.932,0.799s0.8,1.178,0.8,1.931c0,0.755-0.305,1.437-0.8,1.932S108.13,217.739,107.375,217.739z"/>
	<circle cx="126.607" cy="237.926" r="4.538"/>
	<path d="M126.607,233.388c2.505,0,4.538,2.032,4.538,4.538c0,2.505-2.032,4.537-4.538,4.537s-4.538-2.032-4.538-4.537
		C122.069,235.42,124.102,233.388,126.607,233.388z M126.607,240.656c-0.754,0-1.437-0.306-1.932-0.798
		c-0.493-0.495-0.798-1.178-0.798-1.932c0-0.755,0.305-1.438,0.798-1.932c0.495-0.493,1.177-0.799,1.932-0.799
		s1.437,0.306,1.932,0.799c0.493,0.494,0.798,1.177,0.798,1.932c0,0.754-0.305,1.437-0.798,1.932
		C128.044,240.35,127.361,240.656,126.607,240.656z"/>
	<circle cx="162.572" cy="228.851" r="4.538"/>
	<path d="M162.572,224.313c2.506,0,4.537,2.032,4.537,4.538c0,2.503-2.031,4.537-4.537,4.537c-2.504,0-4.537-2.034-4.537-4.537
		C158.035,226.345,160.068,224.313,162.572,224.313z M162.572,231.581c-0.752,0-1.438-0.305-1.93-0.798
		c-0.495-0.495-0.801-1.18-0.801-1.932c0-0.755,0.306-1.437,0.801-1.933c0.492-0.494,1.178-0.797,1.93-0.797
		c0.754,0,1.438,0.303,1.932,0.797c0.496,0.496,0.801,1.178,0.801,1.933c0,0.752-0.305,1.437-0.801,1.932
		C164.009,231.276,163.326,231.581,162.572,231.581z"/>
	<circle cx="119.566" cy="182.25" r="4.538"/>
	<path d="M119.566,177.712c2.505,0,4.538,2.034,4.538,4.538c0,2.505-2.032,4.537-4.538,4.537s-4.538-2.032-4.538-4.537
		C115.029,179.747,117.061,177.712,119.566,177.712z M119.566,184.982c-0.754,0-1.437-0.306-1.932-0.8
		c-0.493-0.495-0.798-1.178-0.798-1.932c0-0.753,0.305-1.438,0.798-1.93c0.495-0.496,1.178-0.801,1.932-0.801
		s1.437,0.305,1.932,0.801c0.495,0.492,0.798,1.177,0.798,1.93c0,0.754-0.303,1.437-0.798,1.932
		C121.003,184.676,120.321,184.982,119.566,184.982z"/>
	<circle cx="141.009" cy="205.932" r="4.537"/>
	<path d="M141.009,201.395c2.503,0,4.538,2.033,4.538,4.537c0,2.506-2.034,4.537-4.538,4.537c-2.505,0-4.538-2.031-4.538-4.537
		C136.471,203.428,138.503,201.395,141.009,201.395z M141.009,208.663c-0.754,0-1.437-0.304-1.932-0.799
		c-0.495-0.494-0.798-1.178-0.798-1.932s0.303-1.438,0.798-1.932c0.495-0.493,1.177-0.799,1.932-0.799
		c0.752,0,1.437,0.306,1.932,0.799c0.492,0.494,0.798,1.178,0.798,1.932s-0.306,1.437-0.798,1.932
		C142.446,208.359,141.761,208.663,141.009,208.663z"/>
	<circle cx="174.992" cy="196.857" r="4.538"/>
	<path d="M174.992,192.319c2.506,0,4.537,2.033,4.537,4.538s-2.031,4.538-4.537,4.538c-2.504,0-4.537-2.033-4.537-4.538
		S172.488,192.319,174.992,192.319z M174.992,199.586c-0.754,0-1.438-0.305-1.932-0.798c-0.492-0.495-0.799-1.177-0.799-1.932
		s0.307-1.437,0.799-1.933c0.494-0.494,1.178-0.797,1.932-0.797s1.438,0.303,1.932,0.797c0.496,0.496,0.799,1.178,0.799,1.933
		s-0.303,1.437-0.799,1.932C176.429,199.282,175.746,199.586,174.992,199.586z"/>
	
		<path fill="none" stroke="#000000" stroke-width="4.17" stroke-linecap="round" stroke-linejoin="round" stroke-miterlimit="2.0732" d="
		M64.845,115.369c2.288-10.817,8.794-20.087,17.714-25.998c6.561-4.35,14.428-6.881,22.879-6.881
		c0-22.899,18.593-41.492,41.492-41.492c22.898,0,41.49,18.593,41.49,41.492h18.668c22.9,0,41.49,18.59,41.49,41.489
		s-18.59,41.492-41.49,41.492h-6.51"/>
	<g>
		<path fill="none" stroke="#010001" stroke-width="4.17" stroke-linecap="round" stroke-miterlimit="1.25" d="M34.881,147.402
			h107.75"/>
	</g>
	<g>
		<path fill="none" stroke="#010001" stroke-width="4.17" stroke-linecap="round" stroke-miterlimit="1.25" d="M74.978,165.471
			h107.748"/>
	</g>
	<g>
		<path fill="none" stroke="#010001" stroke-width="4.17" stroke-linecap="round" stroke-miterlimit="1.25" d="M48.965,129.28
			h107.747"/>
	</g>
</g>
</svg>
