<?xml version="1.0" encoding="utf-8"?>
<!-- Generator: Adobe Illustrator 15.1.0, SVG Export Plug-In . SVG Version: 6.00 Build 0)  -->
<!DOCTYPE svg PUBLIC "-//W3C//DTD SVG 1.0//EN" "http://www.w3.org/TR/2001/REC-SVG-20010904/DTD/svg10.dtd">
<svg version="1.0" id="Layer_1" xmlns="http://www.w3.org/2000/svg" xmlns:xlink="http://www.w3.org/1999/xlink" x="0px" y="0px"
	 width="283.46px" height="283.46px" viewBox="0 0 283.46 283.46" enable-background="new 0 0 283.46 283.46" xml:space="preserve">
<g id="Layer_6">
	<path d="M7.084,87.947h129.18v25.588H7.084V87.947z"/>
	<path d="M7.084,129.432h129.18v25.588H7.084V129.432z"/>
	<path d="M7.084,168.185h129.18v25.588H7.084V168.185z"/>
	<path d="M7.084,46.708h129.18v25.588H7.084V46.708z"/>
	<path d="M7.084,209.922h129.18v25.588H7.084V209.922z"/>
	<path d="M151.667,87.947h54.9v25.588h-54.9V87.947z"/>
	<path d="M151.667,129.432h54.9v25.588h-54.9V129.432z"/>
	<path d="M151.667,168.185h54.9v25.588h-54.9V168.185z"/>
	<path d="M151.667,46.708h54.9v25.588h-54.9V46.708z"/>
	<path d="M151.667,209.922h54.9v25.588h-54.9V209.922z"/>
	<path d="M221.473,89.189h54.902v25.588h-54.902V89.189z"/>
	<path d="M221.473,130.674h54.902v25.588h-54.902V130.674z"/>
	<path d="M221.473,169.427h54.902v25.588h-54.902V169.427z"/>
	<path d="M221.473,47.95h54.902v25.588h-54.902V47.95z"/>
	<path d="M221.473,211.165h54.902v25.588h-54.902V211.165z"/>
</g>
</svg>
