<?xml version="1.0" encoding="utf-8"?>
<!-- Generator: Adobe Illustrator 15.1.0, SVG Export Plug-In . SVG Version: 6.00 Build 0)  -->
<!DOCTYPE svg PUBLIC "-//W3C//DTD SVG 1.1//EN" "http://www.w3.org/Graphics/SVG/1.1/DTD/svg11.dtd">
<svg version="1.1" id="Layer_1" xmlns="http://www.w3.org/2000/svg" xmlns:xlink="http://www.w3.org/1999/xlink" x="0px" y="0px"
	 width="283.465px" height="283.465px" viewBox="0 0 283.465 283.465" enable-background="new 0 0 283.465 283.465"
	 xml:space="preserve">
<g id="Icons">
	<g id="Color-" transform="translate(-503.000000, -362.000000)">
		<path id="Vine" d="M761.813,502.958c-6.877,1.601-13.537,2.306-19.521,2.306c-33.705,0-59.647-23.73-59.647-64.992
			c0-20.222,7.756-30.741,18.723-30.741c10.436,0,17.387,9.442,17.387,28.588c0,10.889-2.895,22.813-5.023,29.875
			c0,0,10.386,18.26,38.779,12.656c6.027-13.49,9.309-30.977,9.309-46.311c0-41.252-20.866-65.252-59.112-65.252
			c-39.313,0-62.321,30.473-62.321,70.646c0,39.805,18.458,73.979,48.888,89.549c-12.797,25.801-29.08,48.541-46.066,65.674
			c-30.809-37.56-58.662-87.653-70.098-185.425h-45.458c21.001,162.83,83.595,214.677,100.14,224.632
			c9.365,5.664,17.428,5.396,25.984,0.539c13.438-7.709,53.787-48.373,76.148-96.013c9.381-0.024,20.658-1.11,31.895-3.678v-32.055
			L761.813,502.958L761.813,502.958z"/>
	</g>
</g>
</svg>
