<?xml version="1.0" encoding="utf-8"?>
<!-- Generator: Adobe Illustrator 15.1.0, SVG Export Plug-In . SVG Version: 6.00 Build 0)  -->
<!DOCTYPE svg PUBLIC "-//W3C//DTD SVG 1.0//EN" "http://www.w3.org/TR/2001/REC-SVG-20010904/DTD/svg10.dtd">
<svg version="1.0"
	 id="svg2" sodipodi:docname="Twitter_bird_logo_2012.svg" inkscape:version="0.48.4 r9939" xmlns:dc="http://purl.org/dc/elements/1.1/" xmlns:rdf="http://www.w3.org/1999/02/22-rdf-syntax-ns#" xmlns:sodipodi="http://sodipodi.sourceforge.net/DTD/sodipodi-0.dtd" xmlns:svg="http://www.w3.org/2000/svg" xmlns:inkscape="http://www.inkscape.org/namespaces/inkscape" xmlns:cc="http://creativecommons.org/ns#"
	 xmlns="http://www.w3.org/2000/svg" xmlns:xlink="http://www.w3.org/1999/xlink" x="0px" y="0px" width="283.465px"
	 height="283.465px" viewBox="-55.98 -72.043 283.465 283.465" enable-background="new -55.98 -72.043 283.465 283.465"
	 xml:space="preserve">
<sodipodi:namedview  id="base" inkscape:current-layer="layer1" fit-margin-right="0" inkscape:window-width="1280" inkscape:window-height="962" fit-margin-bottom="0" inkscape:window-y="-8" inkscape:document-units="px" inkscape:window-x="-8" inkscape:pageopacity="0.0" inkscape:pageshadow="2" inkscape:window-maximized="1" pagecolor="#ffffff" showgrid="false" inkscape:zoom="3.7200571" fit-margin-top="0" fit-margin-left="0" bordercolor="#666666" inkscape:cy="50.181142" inkscape:cx="101.29413" borderopacity="1.0">
	</sodipodi:namedview>
<g id="layer1" transform="translate(-282.32053,-396.30734)" inkscape:groupmode="layer" inkscape:label="Layer 1">
	<path id="path5" inkscape:connector-curvature="0" fill="#231F20" d="M502.719,382.479c-9.906,4.394-20.557,7.363-31.73,8.7
		c11.405-6.839,20.167-17.665,24.291-30.566c-10.676,6.331-22.499,10.928-35.085,13.406c-10.075-10.738-24.436-17.446-40.325-17.446
		c-30.512,0-55.249,24.736-55.249,55.247c0,4.331,0.488,8.547,1.431,12.59c-45.917-2.303-86.625-24.299-113.875-57.725
		c-4.756,8.159-7.481,17.649-7.481,27.773c0,19.169,9.753,36.079,24.578,45.987c-9.056-0.288-17.575-2.774-25.024-6.911
		c-0.006,0.229-0.006,0.461-0.006,0.694c0,26.768,19.044,49.097,44.319,54.175c-4.635,1.264-9.516,1.938-14.555,1.938
		c-3.561,0-7.021-0.347-10.395-0.991c7.03,21.948,27.433,37.922,51.611,38.366c-18.91,14.82-42.73,23.651-68.616,23.651
		c-4.459,0-8.857-0.262-13.179-0.771c24.451,15.676,53.491,24.822,84.69,24.822c101.622,0,157.194-84.184,157.194-157.195
		c0-2.395-0.054-4.776-0.159-7.148C485.945,403.288,495.311,393.559,502.719,382.479L502.719,382.479z"/>
</g>
</svg>
