<?xml version="1.0" encoding="utf-8"?>
<!-- Generator: Adobe Illustrator 15.1.0, SVG Export Plug-In . SVG Version: 6.00 Build 0)  -->
<!DOCTYPE svg PUBLIC "-//W3C//DTD SVG 1.0//EN" "http://www.w3.org/TR/2001/REC-SVG-20010904/DTD/svg10.dtd">
<svg version="1.0" id="Layer_1" xmlns:v="https://vecta.io/nano"
	 xmlns="http://www.w3.org/2000/svg" xmlns:xlink="http://www.w3.org/1999/xlink" x="0px" y="0px" width="283.46px"
	 height="283.46px" viewBox="0 0 283.46 283.46" enable-background="new 0 0 283.46 283.46" xml:space="preserve">
<g>
	<path fill="#231F20" d="M270.433,76.967c-3.144-11.619-12.219-20.691-23.835-23.835c-20.896-5.7-105.004-5.7-105.004-5.7
		s-84.108,0.173-105.005,5.872C24.973,56.448,15.898,65.521,12.755,77.14c-6.322,37.131-8.773,93.709,0.172,129.356
		c3.143,11.616,12.218,20.691,23.833,23.832c20.897,5.7,105.005,5.7,105.005,5.7s84.109,0,105.005-5.7
		c11.616-3.141,20.691-12.216,23.836-23.832C277.272,169.312,279.328,112.769,270.433,76.967z M114.825,182.143v-80.826
		l69.773,40.413L114.825,182.143z"/>
</g>
</svg>
