<?xml version="1.0" encoding="utf-8"?>
<!-- Generator: Adobe Illustrator 15.1.0, SVG Export Plug-In . SVG Version: 6.00 Build 0)  -->
<!DOCTYPE svg PUBLIC "-//W3C//DTD SVG 1.0//EN" "http://www.w3.org/TR/2001/REC-SVG-20010904/DTD/svg10.dtd">
<svg version="1.0" id="Layer_1" xmlns="http://www.w3.org/2000/svg" xmlns:xlink="http://www.w3.org/1999/xlink" x="0px" y="0px"
	 width="283.465px" height="283.465px" viewBox="-75.73 -75.732 283.465 283.465"
	 enable-background="new -75.73 -75.732 283.465 283.465" xml:space="preserve">
<g>
	<circle fill="#231F20" cx="65.994" cy="66.006" r="33.146"/>
	<path fill="#231F20" d="M143.508,7.355c-1.807-4.64-3.962-7.955-7.441-11.436s-6.787-5.634-11.427-7.437
		c-3.506-1.361-8.768-2.981-18.463-3.425c-10.485-0.476-13.632-0.571-40.183-0.571c-3.319,0-6.272-0.004-8.921,0v-0.024
		c-18.533,0.021-22.087,0.145-31.261,0.56c-9.695,0.445-14.959,2.061-18.465,3.428C2.708-9.744-0.607-7.589-4.088-4.109
		c-3.479,3.48-5.638,6.795-7.441,11.436c-1.361,3.506-2.981,8.767-3.424,18.463c-0.477,10.482-0.573,13.615-0.573,40.17
		c0,26.554,0.096,29.702,0.573,40.186c0.441,9.695,2.063,14.959,3.424,18.459c1.807,4.641,3.961,7.949,7.441,11.431
		c3.481,3.479,6.796,5.632,11.436,7.437c3.508,1.359,8.77,2.98,18.465,3.428c10.482,0.478,13.629,0.58,40.182,0.58
		c26.551,0,29.699-0.103,40.183-0.58c9.695-0.443,14.961-2.06,18.463-3.428c4.642-1.801,7.947-3.957,11.427-7.437
		c3.479-3.478,5.639-6.781,7.441-11.423c1.361-3.5,2.981-8.764,3.423-18.459c0.478-10.483,0.582-13.631,0.582-40.169
		c0-26.537-0.104-29.686-0.582-40.168C146.489,16.119,144.869,10.856,143.508,7.355z M65.994,117.062
		c-28.201,0-51.066-22.854-51.066-51.055c0-28.201,22.864-51.066,51.065-51.066c0,0,0,0-0.001,0h0.002c0,0,0,0-0.001,0
		c28.202,0,51.061,22.866,51.061,51.066C117.054,94.208,94.196,117.062,65.994,117.062z M119.074,24.859
		c-6.589,0-11.932-5.345-11.932-11.933c0-6.59,5.343-11.928,11.932-11.928V0.994c6.59,0,11.935,5.344,11.935,11.933
		C131.009,19.514,125.664,24.859,119.074,24.859z"/>
	<path fill="#231F20" d="M200.43-10.289c-0.85-10.813-2.703-18.085-6.479-25.771c-3.095-6.292-6.534-10.989-11.527-15.794
		c-8.91-8.51-19.807-13.689-32.793-15.562c-6.291-0.91-7.544-1.179-39.739-1.235H66.057c-56.229,0-72.674,0.058-75.871,0.323
		c-11.54,0.96-18.72,2.776-26.542,6.671c-6.029,2.993-10.783,6.464-15.476,11.329c-8.545,8.87-13.725,19.784-15.599,32.756
		c-0.911,6.298-1.177,7.583-1.231,39.752c-0.02,10.723,0,24.834,0,43.764c0,56.183,0.063,72.612,0.332,75.801
		c0.932,11.229,2.692,18.293,6.422,26.021c7.126,14.791,20.737,25.896,36.771,30.039c5.552,1.428,11.684,2.217,19.557,2.589
		c3.335,0.146,37.331,0.247,71.348,0.247c34.016,0,68.032-0.04,71.285-0.206c9.116-0.429,14.408-1.139,20.262-2.65
		c16.138-4.163,29.501-15.104,36.771-30.102c3.656-7.54,5.511-14.876,6.351-25.518c0.182-2.318,0.259-39.313,0.259-76.257
		C200.696,28.957,200.611-7.969,200.43-10.289z M164.823,107c-0.498,10.583-2.175,17.81-4.621,24.134
		c-2.547,6.539-5.944,12.086-11.476,17.613c-5.526,5.531-11.066,8.938-17.604,11.479c-6.324,2.458-13.559,4.135-24.146,4.618
		c-10.607,0.483-13.986,0.602-40.995,0.602c-27.004,0-30.391-0.118-40.998-0.602c-10.584-0.483-17.813-2.16-24.139-4.618
		c-6.537-2.541-12.084-5.948-17.609-11.479c-5.529-5.527-8.927-11.074-11.469-17.613c-2.457-6.324-4.133-13.551-4.62-24.136
		c-0.48-10.606-0.601-13.985-0.601-40.992s0.125-30.397,0.599-41.004c0.476-10.582,2.154-17.811,4.62-24.135
		c2.548-6.539,5.946-12.086,11.477-17.613c5.527-5.529,11.074-8.927,17.615-11.467c6.322-2.459,13.549-4.135,24.135-4.62
		c10.605-0.482,13.995-0.601,40.986-0.601c-0.005,0-0.01,0-0.016,0h0.031c-0.005,0-0.01,0-0.016,0
		c27.001,0,30.378,0.118,40.983,0.601c10.585,0.484,17.815,2.161,24.156,4.62c6.547,2.538,12.078,5.936,17.608,11.467
		c5.531,5.527,8.929,11.074,11.476,17.615c2.446,6.322,4.123,13.548,4.621,24.134c0.477,10.607,0.601,13.996,0.601,41.002
		S165.3,96.394,164.823,107z"/>
	<path fill="#FFFFFF" d="M65.963-33.433c0.005,0,0.01,0,0.016,0s0.01,0,0.016,0H65.963z"/>
	<polygon fill="#FFFFFF" points="65.992,14.94 65.993,14.94 65.994,14.94 	"/>
</g>
</svg>
