<?xml version="1.0" encoding="utf-8"?>
<!-- Generator: Adobe Illustrator 15.1.0, SVG Export Plug-In . SVG Version: 6.00 Build 0)  -->
<!DOCTYPE svg PUBLIC "-//W3C//DTD SVG 1.0//EN" "http://www.w3.org/TR/2001/REC-SVG-20010904/DTD/svg10.dtd">
<svg version="1.0"
	 id="svg906" sodipodi:docname="Reddit_Lockup_OnWhite.svg" inkscape:version="1.1.1 (3bf5ae0d25, 2021-09-20)" xmlns:sodipodi="http://sodipodi.sourceforge.net/DTD/sodipodi-0.dtd" xmlns:svg="http://www.w3.org/2000/svg" xmlns:inkscape="http://www.inkscape.org/namespaces/inkscape"
	 xmlns="http://www.w3.org/2000/svg" xmlns:xlink="http://www.w3.org/1999/xlink" x="0px" y="0px" width="283.465px"
	 height="283.465px" viewBox="101.573 -57.932 283.465 283.465" enable-background="new 101.573 -57.932 283.465 283.465"
	 xml:space="preserve">
<sodipodi:namedview  id="namedview908" inkscape:pagecheckerboard="0" inkscape:current-layer="svg906" fit-margin-right="0" inkscape:window-width="1920" inkscape:window-height="1001" fit-margin-bottom="0" inkscape:window-y="-9" inkscape:window-x="-9" inkscape:pageopacity="0.0" inkscape:pageshadow="2" inkscape:window-maximized="1" pagecolor="#ffffff" showgrid="false" inkscape:zoom="1.8559973" fit-margin-top="0" fit-margin-left="0" bordercolor="#666666" inkscape:cy="83.782448" inkscape:cx="243.26544" borderopacity="1.0">
	</sodipodi:namedview>
<g>
	<path fill="#231F20" d="M226.433,97.78c0-7.713-6.265-13.979-13.977-13.979c-7.714,0-13.979,6.267-13.979,13.979
		c0,7.712,6.266,14.139,13.979,13.979C220.168,111.758,226.433,105.491,226.433,97.78z"/>
	<path fill="#231F20" d="M271.584,129.752c-5.944,6.107-18.958,8.195-28.118,8.195c-9.159,0-22.013-2.088-28.118-8.195
		c-1.447-1.444-3.695-1.444-5.142,0c-1.446,1.447-1.446,3.697,0,5.143c9.48,9.48,27.797,10.283,33.26,10.283
		c5.303,0,23.621-0.643,33.261-10.283c1.283-1.445,1.283-3.695,0-5.143C275.28,128.308,273.03,128.308,271.584,129.752z"/>
	<path fill="#231F20" d="M274.154,83.96c-7.711,0-13.978,6.267-13.978,13.979c0,7.713,6.267,13.979,13.978,13.979
		c7.713,0,13.98-6.427,13.98-13.979C288.135,90.227,281.867,83.96,274.154,83.96z"/>
	<path fill="#231F20" d="M243.304-50.845c-74.362,0-134.646,60.283-134.646,134.646c0,74.362,60.283,134.646,134.646,134.646
		c74.363,0,134.648-60.283,134.648-134.646C377.953,9.437,317.668-50.845,243.304-50.845z M321.552,101.796
		c0.323,1.929,0.483,4.017,0.483,5.945c0,30.366-35.188,54.789-78.57,54.789c-43.382,0-78.571-24.583-78.571-54.789
		c0-2.09,0.162-4.017,0.481-5.945c-6.747-3.054-11.567-9.803-11.567-17.836c0-10.764,8.676-19.601,19.602-19.601
		c5.303,0,10.124,2.088,13.657,5.462c13.657-9.801,32.457-16.067,53.345-16.709l9.963-46.917c0.16-0.965,0.644-1.769,1.446-2.25
		c0.641-0.482,1.607-0.642,2.57-0.482l32.615,6.909c2.25-4.658,7.07-7.872,12.534-7.872c7.714,0,13.978,6.266,13.978,13.978
		c0,7.714-6.264,13.979-13.978,13.979c-7.551,0-13.657-5.945-13.978-13.335l-29.245-6.267l-8.997,42.097
		c20.567,0.804,39.046,7.07,52.54,16.711c3.536-3.375,8.356-5.463,13.657-5.463c10.767,0,19.604,8.677,19.604,19.603
		C333.124,91.834,328.303,98.742,321.552,101.796z"/>
</g>
<g id="Spacing_Guides" transform="translate(-56,-56)" display="none">
	
		<rect id="rect895" x="0" y="0" display="inline" fill="none" stroke="#D8D8D8" stroke-width="0.4925" stroke-miterlimit="10" width="598.601" height="55.899"/>
	
		<rect id="rect897" x="0" y="223.6" display="inline" fill="none" stroke="#D8D8D8" stroke-width="0.4925" stroke-miterlimit="10" width="598.601" height="55.9"/>
	
		<rect id="rect899" x="0" y="0" display="inline" fill="none" stroke="#D8D8D8" stroke-width="0.5589" stroke-miterlimit="10" width="55.9" height="279.6"/>
	
		<rect id="rect901" x="542.7" y="0" display="inline" fill="none" stroke="#D8D8D8" stroke-width="0.5589" stroke-miterlimit="10" width="55.9" height="279.6"/>
	<g id="reddit_round" display="inline">
	</g>
	<g id="icon_2" display="inline">
	</g>
</g>
</svg>
