<?xml version="1.0" encoding="utf-8"?>
<!-- Generator: Adobe Illustrator 15.1.0, SVG Export Plug-In . SVG Version: 6.00 Build 0)  -->
<!DOCTYPE svg PUBLIC "-//W3C//DTD SVG 1.1//EN" "http://www.w3.org/Graphics/SVG/1.1/DTD/svg11.dtd">
<svg version="1.1" id="Layer_1" xmlns="http://www.w3.org/2000/svg" xmlns:xlink="http://www.w3.org/1999/xlink" x="0px" y="0px"
	 width="283.465px" height="283.465px" viewBox="0 0 283.465 283.465" enable-background="new 0 0 283.465 283.465"
	 xml:space="preserve">
<path d="M237.053,26.772c-37.43-1.206-62.764,19.514-76.063,62.128c6.822-2.821,13.475-4.169,19.918-4.169
	c13.68,0,19.713,7.523,18.098,22.663c-0.824,9.185-6.824,22.506-18.098,40.043c-11.273,17.508-19.73,26.254-25.35,26.254
	c-7.252,0-13.872-13.512-19.92-40.593c-2.01-7.963-5.652-28.273-10.83-60.953c-4.859-30.264-17.75-44.417-38.648-42.411
	c-8.867,0.831-22.152,8.776-39.822,23.917C33.433,65.187,20.354,76.752,7.085,88.273l12.668,16.159
	c12.097-8.385,19.111-12.57,21.123-12.57c9.246,0,17.891,14.342,25.967,43.039c7.252,26.236,14.471,52.552,21.74,78.867
	c10.846,28.682,24.131,42.975,39.805,42.975c25.352,0,56.37-23.492,92.977-70.514c35.373-44.964,53.707-80.402,54.879-106.325
	C277.875,45.283,264.781,27.542,237.053,26.772z"/>
</svg>
