<?xml version="1.0" encoding="utf-8"?>
<!-- Generator: Adobe Illustrator 15.1.0, SVG Export Plug-In . SVG Version: 6.00 Build 0)  -->
<!DOCTYPE svg PUBLIC "-//W3C//DTD SVG 1.1//EN" "http://www.w3.org/Graphics/SVG/1.1/DTD/svg11.dtd">
<svg version="1.1" id="Layer_1" xmlns="http://www.w3.org/2000/svg" xmlns:xlink="http://www.w3.org/1999/xlink" x="0px" y="0px"
	 width="283.465px" height="283.465px" viewBox="1023.768 1108.268 283.465 283.465"
	 enable-background="new 1023.768 1108.268 283.465 283.465" xml:space="preserve">
<g>
	<path fill="#020202" d="M1291.341,1203.914c0-58.417-38.271-75.539-38.271-75.539c-19.297-8.865-52.435-12.591-86.855-12.874
		h-0.849c-34.424,0.283-67.539,4.008-86.836,12.874c0,0-38.271,17.122-38.271,75.539c0,13.379-0.263,29.372,0.162,46.334
		c1.388,57.127,10.472,113.432,63.288,127.415c24.353,6.443,45.26,7.794,62.102,6.867c30.537-1.693,47.679-10.896,47.679-10.896
		l-1.007-22.16c0,0-21.823,6.882-46.331,6.043c-24.28-0.832-49.913-2.617-53.84-32.434c-0.364-2.617-0.546-5.416-0.546-8.356
		c0,0,23.838,5.827,54.045,7.208c18.469,0.849,35.792-1.081,53.385-3.18c33.74-4.028,63.116-24.818,66.808-43.815
		C1291.819,1247.015,1291.341,1203.914,1291.341,1203.914z M1246.198,1278.18h-28.024v-68.654c0-14.474-6.087-21.816-18.267-21.816
		c-13.467,0-20.213,8.71-20.213,25.943v37.58h-27.86v-37.58c0-17.232-6.75-25.943-20.213-25.943c-12.18,0-18.27,7.343-18.27,21.816
		v68.654h-28.021v-70.732c0-14.457,3.682-25.946,11.075-34.445c7.623-8.498,17.606-12.857,30.001-12.857
		c14.339,0,25.199,5.514,32.376,16.539l6.979,11.702l6.983-11.702c7.178-11.024,18.037-16.539,32.376-16.539
		c12.393,0,22.38,4.359,30.002,12.857c7.394,8.499,11.075,19.988,11.075,34.445V1278.18z"/>
</g>
</svg>
