<?xml version="1.0" encoding="utf-8"?>
<!-- Generator: Adobe Illustrator 15.1.0, SVG Export Plug-In . SVG Version: 6.00 Build 0)  -->
<!DOCTYPE svg PUBLIC "-//W3C//DTD SVG 1.0//EN" "http://www.w3.org/TR/2001/REC-SVG-20010904/DTD/svg10.dtd">
<svg version="1.0" id="Calque_1" xmlns="http://www.w3.org/2000/svg" xmlns:xlink="http://www.w3.org/1999/xlink" x="0px" y="0px"
	 width="283.465px" height="283.465px" viewBox="181.768 -74.732 283.465 283.465"
	 enable-background="new 181.768 -74.732 283.465 283.465" xml:space="preserve">
<g>
	<path fill="#231F20" d="M323.499-67.646C249.137-67.646,188.854-7.363,188.854,67c0,74.362,60.283,134.646,134.646,134.646
		c74.363,0,134.648-60.283,134.648-134.646C458.148-7.363,397.863-67.646,323.499-67.646z M345.84,162.765
		c-42.623,0.717-55.986-29.724-55.986-51.151V52.347h-22.593v-28.07c29.68-10.471,36.823-36.687,38.506-51.622
		c0.115-1.026,0.938-1.433,1.406-1.433h28.671v48.495h36.363v32.629h-36.509v56.297c0.133,8.114,3.165,19.29,18.83,18.888v-0.008
		c5.2-0.131,12.154-1.61,15.798-3.298l9.413,27.32C376.2,156.629,360.225,162.529,345.84,162.765z"/>
</g>
</svg>
