<?xml version="1.0" encoding="utf-8"?>
<!-- Generator: Adobe Illustrator 15.1.0, SVG Export Plug-In . SVG Version: 6.00 Build 0)  -->
<!DOCTYPE svg PUBLIC "-//W3C//DTD SVG 1.0//EN" "http://www.w3.org/TR/2001/REC-SVG-20010904/DTD/svg10.dtd">
<svg version="1.0" id="Layer_1" xmlns="http://www.w3.org/2000/svg" xmlns:xlink="http://www.w3.org/1999/xlink" x="0px" y="0px"
	 width="283.465px" height="283.465px" viewBox="189.268 -82.732 283.465 283.465"
	 enable-background="new 189.268 -82.732 283.465 283.465" xml:space="preserve">
<g>
	<path fill="#2F3337" d="M409.364,97.653v70.852h-166.89V97.653h-25.141v95.992h217.125V97.653H409.364z"/>
	<path fill="#2F3337" d="M265.458,145.649h121.003v-22.855H265.458V145.649z M267.877,90.991l117.541,24.67l4.837-23.46
		L272.714,67.529l-4.839,23.462H267.877z M283.356,34.639l108.833,50.79l10.158-21.768L293.513,12.872L283.356,34.639z
		 M313.588-18.81l92.387,76.907l15.479-18.38l-92.633-76.907L313.588-18.81z M373.082-75.646l-19.351,14.269l71.59,96.498
		l19.347-14.268L373.082-75.646z"/>
</g>
</svg>
