<?xml version="1.0" encoding="utf-8"?>
<!-- Generator: Adobe Illustrator 15.1.0, SVG Export Plug-In . SVG Version: 6.00 Build 0)  -->
<!DOCTYPE svg PUBLIC "-//W3C//DTD SVG 1.1//EN" "http://www.w3.org/Graphics/SVG/1.1/DTD/svg11.dtd">
<svg version="1.1" id="Layer_3" xmlns="http://www.w3.org/2000/svg" xmlns:xlink="http://www.w3.org/1999/xlink" x="0px" y="0px"
	 width="283.465px" height="283.464px" viewBox="0 0 283.465 283.464" enable-background="new 0 0 283.465 283.464"
	 xml:space="preserve">
<g>
	<path d="M141.732,7.087C67.489,7.087,7.086,67.489,7.086,141.733s60.402,134.645,134.646,134.645
		c74.244,0,134.646-60.4,134.646-134.646C276.379,67.488,215.977,7.087,141.732,7.087z M141.732,273.378
		c-72.59,0-131.647-59.056-131.647-131.646c0-72.59,59.057-131.646,131.647-131.646c72.592,0,131.646,59.057,131.646,131.646
		C273.379,214.323,214.324,273.378,141.732,273.378z"/>
	<path d="M141.732,19.019c-67.772,0-122.713,54.94-122.713,122.713c0,67.773,54.94,122.714,122.713,122.714
		c67.771,0,122.713-54.94,122.713-122.714C264.445,73.96,209.504,19.019,141.732,19.019z M255.816,128.067
		c0.83,0.081,1.512,0.733,1.602,1.597c0.104,0.984-0.605,1.861-1.594,1.965l-20.523,2.142c-0.986,0.104-1.863-0.606-1.967-1.593
		c-0.102-0.986,0.609-1.862,1.596-1.965l20.521-2.144C255.576,128.055,255.697,128.055,255.816,128.067z M253.639,116.174v-0.002
		c0.834-0.007,1.582,0.569,1.762,1.419c0.205,0.969-0.41,1.916-1.379,2.122l-8.49,1.804c-0.971,0.206-1.916-0.41-2.123-1.379
		c-0.205-0.97,0.41-1.916,1.379-2.121l8.492-1.804C253.398,116.192,253.52,116.175,253.639,116.174z M250.803,104.547
		c0.693,0.06,1.316,0.523,1.549,1.23c0.305,0.943-0.207,1.948-1.15,2.255l-19.625,6.38c-0.941,0.306-1.947-0.206-2.254-1.148
		c-0.307-0.943,0.205-1.948,1.148-2.255l19.625-6.379C250.33,104.551,250.57,104.526,250.803,104.547z M246.223,93.412
		c0.697-0.015,1.365,0.383,1.668,1.062c0.4,0.906-0.002,1.959-0.908,2.362l-7.93,3.53c-0.904,0.403-1.959-0.001-2.361-0.906
		c-0.404-0.906,0-1.958,0.906-2.362l7.93-3.53C245.752,93.467,245.99,93.417,246.223,93.412z M241.041,82.686
		c0.57,0.04,1.111,0.356,1.422,0.893c0.496,0.858,0.205,1.948-0.652,2.443L223.938,96.34c-0.857,0.496-1.947,0.203-2.443-0.655
		s-0.203-1.948,0.654-2.444l17.873-10.317C240.342,82.737,240.695,82.66,241.041,82.686z M234.277,72.757
		c0.574-0.021,1.146,0.237,1.51,0.739c0.582,0.803,0.406,1.917-0.395,2.499l-7.027,5.098c-0.801,0.582-1.918,0.405-2.498-0.398
		c-0.582-0.801-0.404-1.917,0.396-2.499l7.023-5.098C233.59,72.88,233.936,72.77,234.277,72.757z M228.236,63.976
		c0.662,0.737,0.602,1.864-0.135,2.526l-15.35,13.796c-0.148,0.135-0.322,0.221-0.502,0.296l10.375-13.982l3.082-2.771
		c0.369-0.332,0.836-0.484,1.293-0.458C227.457,63.408,227.904,63.608,228.236,63.976z M216.959,55.511
		c0.332-0.368,0.781-0.566,1.238-0.591l0,0c0.457-0.024,0.92,0.127,1.289,0.458c0.736,0.664,0.795,1.791,0.133,2.526l-5.809,6.45
		c-0.662,0.737-1.791,0.796-2.527,0.133c-0.734-0.663-0.795-1.79-0.133-2.526L216.959,55.511z M209.17,47.333
		c0.344,0.013,0.689,0.125,0.988,0.344c0.803,0.583,0.979,1.698,0.396,2.499l-12.141,16.688c-0.584,0.802-1.697,0.978-2.502,0.395
		c-0.801-0.583-0.977-1.698-0.393-2.5l12.141-16.688C208.023,47.568,208.598,47.311,209.17,47.333z M193.049,49.271l4.342-7.517
		c0.311-0.537,0.852-0.854,1.424-0.893c0.344-0.022,0.699,0.053,1.021,0.237c0.857,0.496,1.15,1.586,0.654,2.444l-4.34,7.518
		c-0.498,0.858-1.586,1.15-2.445,0.655C192.848,51.22,192.555,50.13,193.049,49.271z M188.426,35.353c0.002,0,0.002,0,0.002,0
		S188.428,35.353,188.426,35.353c0.232,0.005,0.469,0.056,0.695,0.157c0.904,0.403,1.309,1.458,0.904,2.362l-8.408,18.846
		c-0.402,0.905-1.457,1.309-2.363,0.905c-0.903-0.403-1.309-1.457-0.903-2.363l8.408-18.846
		C187.059,35.736,187.729,35.34,188.426,35.353z M172.72,40.628l2.685-8.255c0.229-0.707,0.853-1.173,1.549-1.23
		c0.23-0.02,0.471,0.005,0.707,0.082c0.942,0.306,1.455,1.313,1.146,2.254l-2.684,8.256c-0.307,0.942-1.313,1.455-2.254,1.148
		C172.927,42.576,172.414,41.57,172.72,40.628z M159.492,49.523l4.289-20.186c0.18-0.85,0.928-1.426,1.76-1.418l0.002,0.001
		c0.117,0,0.24,0.013,0.359,0.038c0.971,0.206,1.586,1.151,1.381,2.122l-4.291,20.186c-0.205,0.97-1.15,1.584-2.121,1.379
		C159.901,51.439,159.287,50.493,159.492,49.523z M151.916,27.761c0.091-0.863,0.772-1.515,1.604-1.595l0,0
		c0.119-0.012,0.239-0.012,0.363,0.001c0.984,0.104,1.697,0.979,1.592,1.967l-0.908,8.633c-0.104,0.986-0.979,1.696-1.965,1.592
		c-0.984-0.104-1.695-0.98-1.593-1.966L151.916,27.761z M139.943,27.208c0-0.991,0.798-1.79,1.79-1.79
		c0.992,0,1.789,0.798,1.789,1.79v20.637c0,0.991-0.798,1.79-1.789,1.79c-0.991,0-1.79-0.798-1.79-1.79V27.208z M129.665,26.16
		c0.123-0.015,0.246-0.015,0.364-0.001c0.829,0.081,1.512,0.732,1.602,1.597l0.901,8.633c0.104,0.986-0.607,1.863-1.594,1.965
		c-0.985,0.104-1.862-0.606-1.965-1.593l-0.902-8.634C127.969,27.139,128.68,26.262,129.665,26.16z M225.518,61.468l-83.778,79.999
		l-13.745-14.395L225.518,61.468z M117.644,27.94c0.121-0.025,0.242-0.038,0.361-0.038l0.001-0.001
		c0.833-0.006,1.579,0.57,1.759,1.419l4.273,20.189c0.206,0.97-0.41,1.915-1.379,2.12c-0.97,0.206-1.916-0.41-2.121-1.379
		l-4.273-20.189C116.059,29.091,116.675,28.146,117.644,27.94z M105.825,31.22c0.236-0.078,0.475-0.104,0.707-0.083
		c0.695,0.059,1.318,0.522,1.547,1.229l2.683,8.257c0.306,0.941-0.206,1.947-1.148,2.254c-0.943,0.307-1.949-0.206-2.255-1.148
		l-2.683-8.256C104.37,32.531,104.882,31.526,105.825,31.22z M94.491,35.445c0.226-0.101,0.461-0.151,0.694-0.155
		c0.697-0.014,1.365,0.385,1.667,1.063l8.382,18.858c0.403,0.904-0.003,1.958-0.909,2.36c-0.905,0.403-1.959-0.003-2.361-0.907
		l-8.381-18.858C93.18,36.901,93.584,35.848,94.491,35.445z M83.634,41.099c0.321-0.186,0.676-0.262,1.019-0.237l0,0
		c0.572,0.04,1.114,0.355,1.424,0.893l4.341,7.518c0.495,0.858,0.203,1.948-0.655,2.444s-1.948,0.204-2.444-0.655l-4.34-7.518
		C82.481,42.685,82.774,41.595,83.634,41.099z M73.435,47.583c0.301-0.219,0.646-0.329,0.99-0.342
		c0.574-0.02,1.145,0.237,1.509,0.739l12.118,16.705c0.583,0.802,0.405,1.917-0.397,2.499c-0.802,0.582-1.917,0.404-2.499-0.397
		L73.038,50.082C72.455,49.278,72.633,48.165,73.435,47.583z M63.993,55.366c0.368-0.331,0.834-0.483,1.291-0.458
		c0.457,0.023,0.905,0.224,1.236,0.593l5.808,6.45c0.663,0.736,0.604,1.864-0.133,2.527c-0.737,0.663-1.863,0.604-2.526-0.133
		l-5.808-6.452C63.197,57.156,63.255,56.029,63.993,55.366z M55.287,63.916c0.332-0.368,0.779-0.566,1.236-0.592
		c-0.001,0-0.001,0-0.001,0s0,0,0.001,0c0.456-0.023,0.922,0.127,1.29,0.459l15.339,13.807c0.736,0.664,0.795,1.79,0.132,2.526
		c-0.664,0.736-1.79,0.797-2.527,0.133L55.418,66.442C54.683,65.778,54.623,64.652,55.287,63.916z M47.726,73.43
		c0.365-0.5,0.937-0.759,1.51-0.738c0.344,0.013,0.69,0.124,0.99,0.342l7.022,5.104c0.802,0.583,0.979,1.698,0.396,2.5
		s-1.697,0.978-2.499,0.396l-7.022-5.103C47.321,75.346,47.144,74.232,47.726,73.43z M41.002,83.577
		c0.31-0.535,0.851-0.854,1.423-0.892c0.344-0.023,0.699,0.051,1.021,0.237L61.317,93.24c0.858,0.496,1.15,1.585,0.654,2.444
		c-0.496,0.858-1.585,1.15-2.444,0.655l-17.87-10.317C40.8,85.526,40.508,84.436,41.002,83.577z M35.609,94.399
		c0.303-0.679,0.972-1.078,1.669-1.061c0.232,0.004,0.468,0.055,0.694,0.155l7.928,3.537c0.906,0.403,1.31,1.458,0.906,2.362
		c-0.403,0.906-1.458,1.309-2.363,0.905l-7.928-3.537C35.609,96.358,35.207,95.304,35.609,94.399z M31.143,105.7
		c0.23-0.707,0.853-1.171,1.548-1.229c0.231-0.021,0.472,0.005,0.707,0.082l19.622,6.394c0.942,0.308,1.453,1.313,1.146,2.255
		c-0.308,0.942-1.313,1.454-2.256,1.146l-19.621-6.394C31.347,107.649,30.835,106.643,31.143,105.7z M28.071,117.576
		c0.18-0.848,0.928-1.427,1.761-1.418v0.001c0.12,0,0.24,0.014,0.362,0.038l8.491,1.806c0.969,0.207,1.584,1.151,1.377,2.122
		c-0.206,0.969-1.152,1.584-2.122,1.378l-8.492-1.806C28.479,119.492,27.865,118.546,28.071,117.576z M27.668,127.914
		c0.118-0.012,0.24-0.012,0.363,0.001l20.522,2.17c0.986,0.104,1.696,0.981,1.591,1.967c-0.104,0.986-0.981,1.696-1.967,1.592
		l-20.522-2.17c-0.986-0.104-1.694-0.982-1.59-1.967C26.156,128.643,26.838,127.992,27.668,127.914z M27.322,139.946h8.68
		c0.992,0,1.79,0.798,1.79,1.789c0,0.992-0.798,1.789-1.79,1.789h-8.68c-0.991,0-1.79-0.797-1.79-1.789
		C25.532,140.745,26.33,139.946,27.322,139.946z M26.047,153.808c-0.103-0.985,0.608-1.862,1.593-1.965l20.525-2.144
		c0.124-0.014,0.245-0.014,0.363-0.002c0.83,0.081,1.512,0.732,1.602,1.598c0.103,0.984-0.608,1.861-1.593,1.965l-20.525,2.141
		C27.026,155.503,26.15,154.793,26.047,153.808z M28.067,165.877c-0.207-0.971,0.409-1.916,1.378-2.124l8.492-1.804
		c0.121-0.023,0.242-0.035,0.361-0.037v-0.001c0.834-0.009,1.581,0.57,1.761,1.417c0.206,0.972-0.408,1.917-1.377,2.123
		l-8.492,1.804C29.221,167.461,28.273,166.846,28.067,165.877z M31.117,177.693c-0.306-0.941,0.206-1.948,1.149-2.255l19.625-6.38
		c0.236-0.078,0.475-0.104,0.707-0.084c0.695,0.061,1.318,0.524,1.548,1.231c0.307,0.942-0.206,1.948-1.149,2.256l-19.625,6.38
		C32.429,179.147,31.424,178.635,31.117,177.693z M35.578,188.999c-0.403-0.906,0-1.959,0.906-2.363l7.931-3.53
		c0.227-0.102,0.462-0.15,0.694-0.155c0.697-0.014,1.365,0.383,1.668,1.063c0.403,0.906-0.001,1.959-0.907,2.363l-7.931,3.528
		C37.034,190.308,35.98,189.903,35.578,188.999z M41.002,199.893c-0.496-0.857-0.204-1.947,0.655-2.441l17.871-10.319
		c0.322-0.187,0.677-0.262,1.021-0.237c0.572,0.04,1.114,0.356,1.423,0.893c0.496,0.857,0.204,1.948-0.654,2.445L43.448,200.55
		C42.588,201.044,41.499,200.751,41.002,199.893z M47.679,209.975c-0.582-0.803-0.405-1.917,0.397-2.5l7.026-5.096
		c0.301-0.221,0.646-0.331,0.99-0.343c0.573-0.021,1.146,0.237,1.51,0.739c0.582,0.802,0.404,1.916-0.397,2.498l-7.027,5.098
		C49.375,210.955,48.261,210.778,47.679,209.975z M55.23,219.495c-0.663-0.736-0.603-1.862,0.135-2.526l15.348-13.795
		c0.148-0.134,0.319-0.217,0.491-0.292l-10.379,13.989l-3.068,2.759C57.021,220.292,55.894,220.233,55.23,219.495z M127.722,127.333
		l13.746,14.393l-83.773,79.996L127.722,127.333z M66.507,227.958c-0.663,0.737-1.79,0.796-2.527,0.135
		c-0.736-0.665-0.795-1.793-0.131-2.526l5.808-6.453c0.332-0.368,0.779-0.564,1.236-0.592l0,0c0.457-0.022,0.922,0.129,1.29,0.461
		c0.737,0.662,0.796,1.789,0.133,2.525L66.507,227.958z M73.308,235.795c-0.801-0.584-0.977-1.698-0.394-2.501l12.14-16.688
		c0.364-0.5,0.937-0.759,1.51-0.735c0.344,0.012,0.689,0.124,0.989,0.343c0.801,0.582,0.977,1.695,0.394,2.499l-12.14,16.688
		C75.224,236.202,74.109,236.378,73.308,235.795z M90.417,234.194l-4.341,7.519c-0.495,0.858-1.585,1.151-2.443,0.655
		c-0.859-0.495-1.151-1.586-0.655-2.443l4.34-7.518c0.31-0.537,0.852-0.855,1.424-0.895c0.343-0.023,0.698,0.053,1.02,0.237
		C90.621,232.246,90.913,233.336,90.417,234.194z M94.347,247.958c-0.906-0.403-1.309-1.458-0.906-2.363l8.408-18.846
		c0.303-0.68,0.971-1.077,1.667-1.063c0.233,0.006,0.47,0.055,0.696,0.157c0.905,0.403,1.309,1.457,0.905,2.363l-8.408,18.846
		C96.305,247.958,95.25,248.36,94.347,247.958z M110.747,242.838l-2.684,8.255c-0.307,0.942-1.312,1.455-2.255,1.149
		c-0.942-0.309-1.454-1.313-1.148-2.256l2.683-8.256c0.23-0.705,0.854-1.172,1.549-1.229c0.231-0.021,0.471,0.006,0.707,0.082
		C110.541,240.89,111.053,241.897,110.747,242.838z M123.975,233.944l-4.289,20.188c-0.206,0.971-1.153,1.585-2.122,1.378
		c-0.969-0.206-1.584-1.151-1.378-2.122l4.289-20.188c0.18-0.848,0.927-1.426,1.761-1.418v0.002c0.119,0,0.24,0.014,0.361,0.039
		C123.564,232.028,124.181,232.975,123.975,233.944z M131.551,255.705c-0.104,0.985-0.981,1.694-1.967,1.593
		c-0.986-0.105-1.696-0.98-1.592-1.967l0.907-8.635c0.091-0.861,0.774-1.514,1.604-1.594l0,0l0,0
		c0.119-0.011,0.24-0.011,0.362,0.004c0.986,0.102,1.696,0.979,1.593,1.965L131.551,255.705z M143.521,256.257
		c0,0.993-0.798,1.79-1.789,1.79c-0.991,0-1.79-0.797-1.79-1.79v-20.635c0-0.993,0.798-1.789,1.79-1.789
		c0.992,0,1.789,0.796,1.789,1.789V256.257z M153.803,257.306c-0.987,0.103-1.863-0.606-1.967-1.593l-0.9-8.634
		c-0.104-0.987,0.605-1.863,1.594-1.966c0.122-0.015,0.243-0.015,0.362-0.002c0.829,0.08,1.513,0.73,1.603,1.596l0.901,8.634
		C155.498,256.327,154.785,257.204,153.803,257.306z M57.955,221.993l83.771-79.994l13.746,14.395L57.955,221.993z M150.607,150.756
		l-8.61-9.019l83.776-79.997l-70.029,94.393L150.607,150.756z M165.824,255.524c-0.972,0.207-1.918-0.41-2.123-1.379l-4.272-20.189
		c-0.205-0.971,0.409-1.914,1.379-2.12c0.121-0.024,0.241-0.037,0.36-0.038c0.834-0.008,1.58,0.568,1.76,1.419l4.275,20.187
		C167.408,254.374,166.793,255.319,165.824,255.524z M177.643,252.246c-0.941,0.308-1.947-0.205-2.255-1.148l-2.683-8.256
		c-0.307-0.942,0.207-1.946,1.148-2.255c0.234-0.076,0.475-0.104,0.706-0.082c0.694,0.061,1.317,0.523,1.548,1.23l2.684,8.256
		C179.097,250.936,178.584,251.94,177.643,252.246z M188.976,248.022c-0.906,0.401-1.959-0.002-2.36-0.908l-8.383-18.857
		c-0.402-0.906,0.003-1.958,0.907-2.361c0.228-0.1,0.463-0.148,0.696-0.154c0.695-0.012,1.363,0.385,1.666,1.063l8.383,18.859
		C190.287,246.567,189.883,247.618,188.976,248.022z M199.834,242.368c-0.857,0.496-1.947,0.203-2.443-0.655l-4.34-7.517
		c-0.496-0.859-0.203-1.948,0.654-2.445c0.322-0.186,0.678-0.262,1.02-0.237c0.572,0.041,1.115,0.356,1.426,0.894l4.34,7.519
		C200.984,240.782,200.691,241.873,199.834,242.368z M210.031,235.886c-0.803,0.583-1.918,0.405-2.5-0.396l-12.117-16.704
		c-0.582-0.804-0.402-1.919,0.398-2.499c0.301-0.219,0.645-0.328,0.99-0.342c0.572-0.02,1.145,0.236,1.508,0.738l12.117,16.704
		C211.012,234.19,210.834,235.305,210.031,235.886z M219.475,228.102c-0.736,0.661-1.863,0.604-2.527-0.134l-5.807-6.453
		c-0.662-0.735-0.605-1.862,0.135-2.524c0.367-0.332,0.83-0.485,1.287-0.459c0.457,0.022,0.906,0.223,1.236,0.592l5.807,6.451
		C220.27,226.309,220.211,227.438,219.475,228.102z M228.182,219.556c-0.664,0.736-1.791,0.798-2.527,0.132l-15.338-13.806
		c-0.736-0.663-0.797-1.789-0.131-2.526c0.33-0.369,0.777-0.565,1.234-0.593c0.457-0.022,0.922,0.13,1.289,0.46l15.34,13.807
		C228.783,217.694,228.846,218.819,228.182,219.556z M235.74,210.041c-0.584,0.803-1.697,0.979-2.5,0.396l-7.021-5.102
		c-0.803-0.583-0.979-1.698-0.396-2.5c0.363-0.5,0.938-0.76,1.51-0.737v-0.002c0.346,0.015,0.689,0.126,0.988,0.345l7.023,5.104
		C236.146,208.125,236.322,209.239,235.74,210.041z M242.463,199.893c-0.494,0.858-1.586,1.151-2.441,0.656l-17.873-10.317
		c-0.857-0.497-1.15-1.588-0.654-2.445c0.311-0.535,0.854-0.854,1.424-0.893c0.344-0.023,0.697,0.052,1.021,0.237l17.871,10.318
		C242.668,197.946,242.959,199.034,242.463,199.893z M247.855,189.071c-0.402,0.906-1.457,1.311-2.363,0.905l-7.928-3.535
		c-0.904-0.403-1.309-1.458-0.904-2.362c0.303-0.681,0.971-1.078,1.668-1.062c0.232,0.003,0.469,0.055,0.693,0.155l7.928,3.536
		C247.855,187.112,248.26,188.167,247.855,189.071z M252.324,177.772c-0.307,0.941-1.313,1.454-2.256,1.146l-19.621-6.395
		c-0.943-0.308-1.453-1.313-1.146-2.255c0.23-0.709,0.854-1.172,1.549-1.229c0.23-0.021,0.471,0.006,0.709,0.082l19.619,6.394
		C252.119,175.822,252.633,176.829,252.324,177.772z M255.395,165.896c-0.207,0.971-1.152,1.583-2.121,1.378l-8.49-1.804
		c-0.971-0.207-1.584-1.154-1.379-2.124c0.182-0.848,0.928-1.426,1.762-1.417v0.001c0.117,0,0.24,0.014,0.361,0.04l8.49,1.804
		C254.986,163.979,255.602,164.926,255.395,165.896z M255.434,155.556l-20.521-2.17c-0.984-0.104-1.693-0.981-1.59-1.968
		c0.09-0.861,0.773-1.514,1.604-1.595v0.002c0.117-0.012,0.24-0.012,0.363,0.001l20.521,2.172c0.984,0.103,1.695,0.979,1.592,1.966
		C257.297,154.95,256.422,155.66,255.434,155.556z M256.145,143.524h-8.682c-0.99,0-1.787-0.797-1.787-1.789
		c0-0.99,0.797-1.789,1.787-1.789h8.682c0.992,0,1.789,0.798,1.789,1.789C257.934,142.727,257.137,143.524,256.145,143.524z"/>
</g>
</svg>
