<?xml version="1.0" encoding="utf-8"?>
<!-- Generator: Adobe Illustrator 15.1.0, SVG Export Plug-In . SVG Version: 6.00 Build 0)  -->
<!DOCTYPE svg PUBLIC "-//W3C//DTD SVG 1.1//EN" "http://www.w3.org/Graphics/SVG/1.1/DTD/svg11.dtd">
<svg version="1.1" id="Layer_6" xmlns="http://www.w3.org/2000/svg" xmlns:xlink="http://www.w3.org/1999/xlink" x="0px" y="0px"
	 width="283.465px" height="283.465px" viewBox="0 0 283.465 283.465" enable-background="new 0 0 283.465 283.465"
	 xml:space="preserve">
<g>
	<path fill="none" d="M149.442,119.383c0-0.789-0.156-1.42-0.369-1.895c-0.262-0.475-0.525-0.737-0.895-0.737
		c-0.789,0-1.947,1.947-3.42,5.843c-1.527,3.895-3,9.367-4.42,16.418c2.736-3,4.893-6.314,6.578-10.052
		C148.601,125.278,149.442,122.068,149.442,119.383z"/>
	<path fill="none" d="M229.187,161.412c-0.025-0.016-0.055-0.029-0.082-0.044c-0.092,0.114-0.188,0.222-0.283,0.323
		C228.94,161.592,229.062,161.5,229.187,161.412z"/>
	<path fill="none" d="M126.603,126.331c1.422-2.473,2.105-4.789,2.105-6.895c0-0.895-0.158-1.631-0.475-2.209
		c-0.314-0.58-0.736-0.842-1.209-0.842c-0.947,0-1.895,1.262-2.842,3.684c-0.947,2.421-2.105,6.842-3.42,13.262
		C123.233,131.172,125.183,128.803,126.603,126.331z"/>
	<path fill="none" d="M63.136,137.119c0-2.052-0.738-3.052-2.211-3.052c-1.42,0-2.789,1.105-4.051,3.21
		c-1.264,2.104-1.896,4.896-1.896,8.315C60.397,144.064,63.136,141.223,63.136,137.119z"/>
	<path fill="none" d="M88.292,134.014c-2.158,0-4.158,1.789-6.053,5.42c-1.895,3.578-2.842,6.893-2.842,9.947
		c0,1.156,0.262,2.104,0.842,2.788c0.578,0.685,1.264,1.054,2.158,1.054c2.105,0,4.105-1.789,6-5.422
		c1.842-3.631,2.789-6.947,2.842-9.998c0-1.211-0.264-2.105-0.789-2.789C89.87,134.33,89.185,134.014,88.292,134.014z"/>
	<path fill="none" d="M167.757,137.119c0-2.052-0.736-3.052-2.209-3.052c-1.369,0-2.738,1.052-4.053,3.21
		c-1.264,2.104-1.896,4.896-1.896,8.315C165.021,144.064,167.757,141.223,167.757,137.119z"/>
	<path d="M133.444,156.696c1.367,1.735,3.209,2.631,5.473,2.631c1.947,0,4.053-0.632,6.209-1.896
		c2.158-1.262,4.686-3.209,7.58-5.895c0.367,2,1.156,3.633,2.473,5c1.789,1.842,4.104,2.789,7,2.789
		c2.578,0,4.945-0.632,7.104-1.895c2.053-1.211,4.367-3.104,6.945-5.578c0.105,2.104,0.686,3.842,1.686,5.156
		c1.156,1.526,2.631,2.315,4.422,2.315c1.734,0,3.631-0.632,5.578-1.896c1.945-1.262,4.262-3.209,6.945-5.895v-3.684
		c-2.264,2.104-3.842,3.578-4.895,4.263s-2.158,1.054-3.211,1.054c-0.789,0-1.42-0.316-1.947-0.947
		c-0.473-0.633-0.736-1.422-0.736-2.422c0-1.474,0.369-3.42,1.105-5.894l2.104-7.158l4.947-0.368l1.053-4.894l-4.473,0.263
		l3.314-11.052l-8.525,1.735l-3,9.947l-3.053,0.105l-0.998,5l2.42-0.105l-1.369,4.842c-0.631,2.158-1.104,4.052-1.367,5.736
		c-2.525,2.578-4.422,4.211-5.684,4.946c-1.264,0.737-2.631,1.104-4,1.104c-3.578,0-5.789-2.053-6.631-6.209
		c9.314-2.736,13.998-6.315,13.998-10.683c0-1.631-0.578-3-1.789-4s-2.789-1.525-4.736-1.525c-3.789,0-7.262,1.842-10.367,5.473
		c-2.842,3.314-4.367,6.947-4.631,11c-2.578,2.525-4.525,4.21-5.789,4.998c-1.314,0.843-2.525,1.265-3.684,1.265
		c-1.105,0-2.053-0.526-2.684-1.632c-0.686-1.105-1-2.525-1-4.368c0-0.842,0.104-2.368,0.262-4.526
		c4.264-4.578,7.369-8.947,9.369-12.998c1.998-4.054,2.998-8.264,2.998-12.578c0-1.526-0.209-2.737-0.578-3.631
		c-0.369-0.896-0.896-1.369-1.525-1.369c-0.105,0-0.316,0.054-0.58,0.105l-8.104,2.842c-2.736,5.264-5.105,11-7.051,17.262
		c-1.736,5.631-2.686,10.578-2.844,14.734c-3.367,4.053-6.473,6.053-9.314,6.053c-2.051,0-3.631-1.104-4.684-3.314l2.684-13.314
		c4.369-4.053,7.314-7.42,8.895-10.158c1.578-2.736,2.367-5.631,2.367-8.578c0-1.736-0.262-3.105-0.789-4.157
		c-0.525-1.054-1.156-1.579-1.945-1.579c-0.105,0-0.896,0.21-2.369,0.579c-1.475,0.368-2.895,0.79-4.209,1.157
		c-1.316,0.422-2.105,0.843-2.475,1.316c-0.314,0.475-1.156,2.211-2.473,5.315s-2.316,5.896-3,8.473
		c-0.738,2.526-1.684,6.685-2.791,12.367l-5.314,5.526v-0.053c-1.791,1.789-3.211,3.157-4.211,4c-1,0.895-1.895,1.314-2.734,1.314
		c-1.316,0-1.947-0.895-1.947-2.736c0-1.736,0.736-4.947,2.158-9.63l2.789-9.314h-1.789l-6.527,3.578
		c-1.053-2.42-2.895-3.684-5.578-3.684c-2.105,0-4.525,0.895-7.262,2.684c-2.738,1.789-5,4.105-6.736,7
		c-1.367,2.263-2.211,4.58-2.475,7c-2.42,2.422-4.262,4.053-5.525,4.789s-2.631,1.104-4,1.104c-3.578,0-5.789-2.052-6.631-6.21
		c9.314-2.736,13.998-6.314,13.998-10.683c0-1.631-0.578-3-1.789-4c-1.209-1-2.787-1.525-4.734-1.525
		c-3.789,0-7.264,1.842-10.369,5.473c-2.842,3.314-4.367,6.999-4.631,11.052c-3.105,3.42-6.367,5.156-9.789,5.156
		c-1.789,0-3.895-0.474-6.367-1.421c-2.473-0.946-4.369-1.579-5.684-1.946c-1.316-0.315-2.896-0.422-4.686-0.315
		c2.789-2.896,4.631-5.843,5.686-8.842c1-3,1.734-6.42,2.156-10.314s0.844-6.684,1.211-8.42s1.053-3.21,2-4.475
		c0.947-1.262,2.316-1.895,4.053-1.895c1.42,0,2.578,0.525,3.42,1.579c0.842,1.052,1.264,2.474,1.264,4.315
		c0,2.367-0.527,4.42-1.631,6.156c-1.105,1.737-2.369,2.58-3.791,2.58c-0.895,0-1.578-0.316-2.158-1
		c-0.262,0.895-0.367,1.631-0.367,2.315c0,1.263,0.367,2.263,1.158,3c0.789,0.737,1.789,1.104,3.158,1.104
		c2.578,0,4.842-1.263,6.789-3.736c1.945-2.526,2.945-5.42,2.945-8.736c0-2.895-0.945-5.264-2.842-7.105
		c-1.895-1.842-4.262-2.789-7.209-2.789c-4.264,0-8.209,2.105-11.842,6.369c-3.631,4.209-5.631,10.104-6,17.578
		c-0.209,3.631-0.473,6.208-0.789,7.788c-0.314,1.579-1.105,3.21-2.314,4.843c-2.896,0.474-5.105,1.314-6.686,2.525
		c-1.578,1.21-2.367,2.631-2.367,4.264c0,0.789,0.264,1.42,0.789,1.946c0.527,0.526,1.211,0.789,2,0.789
		c2.316,0,4.895-1.579,7.789-4.685c1.527,0.422,3.316,1.105,5.369,2.054c2,0.946,3.736,1.578,5.156,1.999
		c1.422,0.369,2.895,0.579,4.422,0.579c5.262,0,10.367-2.526,15.418-7.632c0.369,1.947,1.158,3.633,2.475,4.947
		c1.789,1.842,4.105,2.789,7,2.789c2.578,0,4.947-0.632,7.104-1.895c2.053-1.211,4.369-3.105,6.947-5.578
		c0.211,1.842,0.842,3.473,1.842,4.841c1.314,1.737,2.895,2.632,4.736,2.632c1.895,0,3.736-0.736,5.578-2.158
		c1.789-1.42,3.736-3.684,5.895-6.734c-0.209,5.895,1.369,8.895,4.736,8.895c1.316,0,2.736-0.475,4.209-1.475
		c1.475-1,3.896-3.053,7.264-6.314l2.156-2.369c0.58,1.633,1,2.633,1.264,3.054c-1.684,9.262-2.842,16.788-3.525,22.629
		c3.105-0.631,5.736-1.052,7.947-1.368c0.684-5.42,1.473-10.42,2.367-15.104c1.422,0.631,2.525,0.895,3.314,0.895
		c1.686,0,3.631-0.686,5.789-2c2.105-1.314,4.211-3.156,6.369-5.525C131.761,153.749,132.392,155.379,133.444,156.696z
		 M161.495,137.277c1.314-2.158,2.684-3.21,4.053-3.21c1.473,0,2.209,1,2.209,3.052c0,4.104-2.736,6.946-8.156,8.473
		C159.601,142.17,160.231,139.381,161.495,137.277z M144.759,122.594c1.475-3.896,2.633-5.843,3.422-5.843
		c0.367,0,0.631,0.263,0.895,0.737c0.211,0.475,0.367,1.105,0.367,1.895c0,2.684-0.842,5.896-2.523,9.578
		c-1.686,3.737-3.842,7.053-6.58,10.053C141.759,131.961,143.231,126.489,144.759,122.594z M124.183,120.068
		c0.947-2.421,1.895-3.685,2.842-3.685c0.475,0,0.895,0.264,1.209,0.842c0.316,0.58,0.475,1.316,0.475,2.211
		c0,2.104-0.686,4.42-2.105,6.894s-3.367,4.843-5.84,7C122.077,126.91,123.233,122.489,124.183,120.068z M56.872,137.277
		c1.264-2.104,2.631-3.21,4.053-3.21c1.473,0,2.209,1,2.209,3.052c0,4.104-2.736,6.946-8.156,8.473
		C54.978,142.17,55.608,139.381,56.872,137.277z M88.396,147.801c-1.895,3.633-3.895,5.422-6,5.422c-0.895,0-1.58-0.369-2.158-1.054
		s-0.842-1.632-0.842-2.788c0-3.054,0.947-6.369,2.842-9.947c1.895-3.631,3.895-5.42,6.053-5.42c0.895,0,1.578,0.315,2.156,1
		c0.527,0.684,0.789,1.578,0.789,2.789C91.185,140.856,90.237,144.17,88.396,147.801z"/>
	<path d="M276.38,147.645c-1.053-0.791-2.58,0.578-3.58,1.314c-2.578,1.842-7.42,6.999-10.525,7.684
		c-1.549,0.359-3.824,0.269-6.025-0.166c-0.191,0.345-0.391,0.681-0.594,1.009c3.367,0.157,6.803,0.405,9.619-0.158
		c1.475-0.263-1-1.054,0.264-1.789c2.633-2.053,5.367-4.052,7.947-6.21c0.684,0.211,1.631-0.842,2.104,0.053
		C276.483,149.643,275.642,148.17,276.38,147.645z"/>
	<path d="M229.187,161.412c-0.125,0.088-0.246,0.182-0.365,0.279c-1.049,1.097-2.32,1.465-3.012,2.47
		c-1.152,1.554-2.734,3.487-5.607,3.487c-0.146,0-0.293-0.004-0.443-0.014c-0.225-0.015-0.447-0.033-0.672-0.06
		c-3.34,1.831-6.906,3.672-9.648,4.907c-0.895,0.105-0.264-0.842-0.314-1.368c-3.264,8.263-22.367,0.685-29.998-1.104
		c-0.789-1.367,2.105-1.474,1.422-2.685c-1.475-0.843-3.369,0.843-4.578,0.896c-3.842,0.264-7.684-0.104-11.578,0.211
		c-3.684,0.314-7.367,1-11.104,0.525c-1.686,0.105-0.264-0.632-0.896-1.158c-1.684-0.104-2.367,0.896-3.947,0.211
		c-5.262,2.685-11.682,3.736-16.893,6.525l-0.158,1.264l0,0c1.686,1.264,5.789-1.104,8.316-2c6.473-2.158,11.473-2.367,19.523-2.736
		c3.789-0.157,7.736-0.684,11.105-0.525c8.473,0.475,18.051,4.104,26.996,5.42c2.736,0.368,7,1.422,9.053,1
		c0.842-0.158,1.053-0.947,2.053-1.525c0.789-0.475,1.789-0.631,2.475-0.947c4.051-1.999,8.787-5.789,12.682-7.895
		c2.721-1.467,5.398-2.435,8.074-3.225c-0.236-0.227-0.469-0.454-0.695-0.682C230.464,162.174,229.849,161.784,229.187,161.412z"/>
	<path d="M221.788,166.07c0.412-0.16,0.785-0.383,1.129-0.646C222.55,165.635,222.173,165.852,221.788,166.07z"/>
	<path d="M220.2,167.648c2.875,0,4.457-1.934,5.607-3.487c0.691-1.005,1.965-1.373,3.012-2.47c0.098-0.102,0.193-0.209,0.285-0.323
		c-0.193-0.108-0.391-0.215-0.592-0.323c-2.207-1.191-4.955-2.675-6.594-8.012c-1.168-3.8-1.279-7.672-0.344-11.837
		c0.014-0.068,0.029-0.137,0.047-0.204c-5.619-4.038-14.666-7.121-15.232-7.774c0,0-0.686,3.051-0.896,6.894
		c-0.264,3.791-0.475,10.631,2.633,17.895c2.939,6.877,6.965,9.129,10.959,9.571c0.225,0.024,0.447,0.045,0.672,0.06
		C219.907,167.645,220.056,167.648,220.2,167.648z M225.587,162.518c-0.299,0.25-0.582,0.535-0.83,0.89
		c-0.014,0.021-0.029,0.041-0.045,0.062l-17.396-28.141c0.004-0.019,0.006-0.038,0.01-0.058L225.587,162.518z M222.917,165.424
		c-0.344,0.264-0.717,0.485-1.129,0.646C222.173,165.852,222.55,165.635,222.917,165.424z"/>
	<path d="M258.856,147.326c3.148-12.294,1.357-23.222-0.266-30.374c-1.113-4.903-2.533-9.039-3.074-10.543
		c-0.691,0.544-2.021,1.388-4.209,2.765c-6.479,4.077-18.541,11.666-22.928,18.752c-6.141,9.889-7.879,17.554-5.637,24.854
		c1.535,4.999,4.002,6.331,6.18,7.506c0.973,0.524,1.891,1.021,2.658,1.789c2.102,2.101,4.66,4.343,8.424,4.343
		c0.719,0,1.471-0.084,2.232-0.25C250.663,164.253,256.101,158.09,258.856,147.326z M232.192,161.465
		c-0.426-0.426-0.891-0.775-1.373-1.084l24.383-52.253c0.002,0.006,0.004,0.01,0.006,0.014l-22.855,53.482
		C232.298,161.57,232.245,161.518,232.192,161.465z"/>
</g>
</svg>
