<?xml version="1.0" encoding="utf-8"?>
<!-- Generator: Adobe Illustrator 15.1.0, SVG Export Plug-In . SVG Version: 6.00 Build 0)  -->
<!DOCTYPE svg PUBLIC "-//W3C//DTD SVG 1.1//EN" "http://www.w3.org/Graphics/SVG/1.1/DTD/svg11.dtd">
<svg version="1.1" id="Layer_1" xmlns="http://www.w3.org/2000/svg" xmlns:xlink="http://www.w3.org/1999/xlink" x="0px" y="0px"
	 width="283.46px" height="283.46px" viewBox="0 0 283.46 283.46" enable-background="new 0 0 283.46 283.46" xml:space="preserve">
<title>Blender logo</title>
<desc>A free and open source 3D computer graphics software</desc>
<g transform="matrix(2.6642 0 0 2.6642 -520.32 532.51)">
	<path fill="#231F20" d="M250.651-141.582c0.189-3.372,1.84-6.342,4.33-8.448c2.442-2.068,5.73-3.332,9.317-3.332
		c3.583,0,6.871,1.264,9.315,3.332c2.489,2.105,4.14,5.075,4.33,8.443c0.189,3.464-1.203,6.682-3.646,9.067
		c-2.491,2.426-6.033,3.949-9.999,3.949c-3.967,0-7.517-1.523-10.005-3.949c-2.445-2.385-3.833-5.603-3.642-9.064L250.651-141.582
		L250.651-141.582z"/>
	<path fill="#231F20" d="M228.918-134.755c0.023,1.32,0.444,3.883,1.075,5.884c1.326,4.238,3.576,8.159,6.707,11.614
		c3.213,3.551,7.169,6.403,11.738,8.43c4.803,2.126,10.007,3.21,15.413,3.202c5.397-0.008,10.601-1.113,15.404-3.257
		c4.569-2.044,8.522-4.909,11.729-8.462c3.129-3.47,5.375-7.397,6.705-11.635c0.669-2.14,1.091-4.314,1.26-6.494
		c0.166-2.149,0.096-4.3-0.209-6.451c-0.595-4.189-2.045-8.119-4.277-11.703c-2.042-3.293-4.673-6.176-7.801-8.602l0.007-0.005
		l-31.575-24.244c-0.029-0.021-0.052-0.045-0.082-0.064c-2.072-1.59-5.555-1.585-7.834,0.008c-2.303,1.612-2.567,4.277-0.517,5.958
		l-0.009,0.009l13.17,10.709l-40.14,0.043h-0.053c-3.318,0.004-6.507,2.181-7.138,4.931c-0.649,2.802,1.605,5.127,5.054,5.14
		l-0.005,0.012l20.346-0.04l-36.305,27.866c-0.046,0.034-0.096,0.07-0.139,0.104c-3.425,2.622-4.532,6.982-2.375,9.743
		c2.189,2.806,6.844,2.811,10.305,0.016l19.814-16.215C229.184-138.258,228.895-136.068,228.918-134.755L228.918-134.755z
		 M279.834-127.425c-4.083,4.16-9.798,6.518-15.983,6.532c-6.194,0.01-11.909-2.328-15.992-6.48
		c-1.995-2.024-3.46-4.351-4.364-6.832c-0.886-2.438-1.23-5.023-1.002-7.635c0.216-2.55,0.975-4.984,2.188-7.186
		c1.191-2.164,2.831-4.12,4.856-5.775c3.969-3.234,9.021-4.985,14.305-4.992c5.289-0.007,10.339,1.728,14.31,4.951
		c2.022,1.647,3.661,3.596,4.852,5.757c1.217,2.2,1.971,4.625,2.196,7.182c0.225,2.608-0.12,5.19-1.005,7.63
		C283.289-131.785,281.829-129.455,279.834-127.425L279.834-127.425z"/>
</g>
</svg>
