<?xml version="1.0" encoding="utf-8"?>
<!-- Generator: Adobe Illustrator 15.1.0, SVG Export Plug-In . SVG Version: 6.00 Build 0)  -->
<!DOCTYPE svg PUBLIC "-//W3C//DTD SVG 1.1//EN" "http://www.w3.org/Graphics/SVG/1.1/DTD/svg11.dtd">
<svg version="1.1" id="Layer_1" xmlns="http://www.w3.org/2000/svg" xmlns:xlink="http://www.w3.org/1999/xlink" x="0px" y="0px"
	 width="283.465px" height="283.465px" viewBox="-125.732 -125.732 283.465 283.465"
	 enable-background="new -125.732 -125.732 283.465 283.465" xml:space="preserve">
<path d="M130.442,88.922L20.825,150.646v-48.093l68.298-37.418L130.442,88.922z M137.948,82.147V-46.979L97.824-23.901v82.976
	L137.948,82.147z M-98.434,88.922l109.617,61.724v-48.093l-68.303-37.418L-98.434,88.922z M-105.948,82.147V-46.979l40.128,23.078
	v82.976L-105.948,82.147z M-101.25-55.338l112.434-63.308v46.503l-72.551,39.739L-101.25-55.338z M133.26-55.338L20.825-118.646
	v46.503l72.552,39.739L133.26-55.338z M11.184,91.637l-67.362-36.918v-73.088l67.362,38.747V91.637z M20.825,91.637l67.362-36.918
	v-73.088L20.825,20.378V91.637z M-51.633-26.815L16.021-63.83l67.654,37.015L16.021,12.08L-51.633-26.815z"/>
</svg>
