<?xml version="1.0" encoding="utf-8"?>
<!-- Generator: Adobe Illustrator 15.1.0, SVG Export Plug-In . SVG Version: 6.00 Build 0)  -->
<!DOCTYPE svg PUBLIC "-//W3C//DTD SVG 1.0//EN" "http://www.w3.org/TR/2001/REC-SVG-20010904/DTD/svg10.dtd">
<svg version="1.0" id="Layer_3" xmlns="http://www.w3.org/2000/svg" xmlns:xlink="http://www.w3.org/1999/xlink" x="0px" y="0px"
	 width="283.46px" height="283.46px" viewBox="0 0 283.46 283.46" enable-background="new 0 0 283.46 283.46" xml:space="preserve">
<g>
	<path d="M264.732,14.686H174.74H78.396c-6.431,0-11.644,5.213-11.644,11.644v41.672h64.583c8.546,0,15.498,6.952,15.498,15.498
		V199.96c0,8.547-6.952,15.498-15.498,15.498H66.752v41.674c0,6.43,5.213,11.643,11.644,11.643h186.336
		c6.431,0,11.644-5.213,11.644-11.643v-51.879V141.73V78.208V26.33C276.375,19.899,271.163,14.686,264.732,14.686z"/>
	<path d="M131.335,207.75c4.295,0,7.789-3.494,7.789-7.789V83.5c0-4.294-3.494-7.789-7.789-7.789H14.875
		c-4.295,0-7.79,3.495-7.79,7.789V199.96c0,4.295,3.494,7.789,7.788,7.789H131.335z M39.292,179.578l24.494-37.956l-22.441-37.745
		h18.052l12.247,24.139c1.132,2.293,1.906,3.996,2.326,5.12h0.158c0.805-1.83,1.651-3.605,2.541-5.33L89.76,103.89h16.573
		l-23.015,37.523l23.599,38.165H89.284l-14.146-26.496c-0.666-1.127-1.231-2.313-1.689-3.537h-0.21
		c-0.414,1.201-0.964,2.352-1.639,3.43l-14.565,26.604H39.292z"/>
</g>
</svg>
