<?xml version="1.0" encoding="utf-8"?>
<!-- Generator: Adobe Illustrator 15.1.0, SVG Export Plug-In . SVG Version: 6.00 Build 0)  -->
<!DOCTYPE svg PUBLIC "-//W3C//DTD SVG 1.1//EN" "http://www.w3.org/Graphics/SVG/1.1/DTD/svg11.dtd">
<svg version="1.1" id="Layer_2" xmlns="http://www.w3.org/2000/svg" xmlns:xlink="http://www.w3.org/1999/xlink" x="0px" y="0px"
	 width="283.465px" height="283.465px" viewBox="0 0 283.465 283.465" enable-background="new 0 0 283.465 283.465"
	 xml:space="preserve">
<g>
	<path fill="#231F20" d="M269.277,106.961c-0.967-1.125-2.441-1.765-4.051-2.213c-1.52,0.894-3.176,1.398-4.926,1.398
		c-1.947,0-3.779-0.615-5.432-1.709c-2.227,2.551-5.014,4.067-8.08,4.067c-7.461,0-13.305-8.86-13.305-20.171
		c0-3.667,0.623-7.07,1.707-10.001c-0.574-1.283-1.357-1.996-2.52-1.996c-0.801,0-1.729,0.344-2.836,1.053l-0.129,0.112
		c-5.824,5.676-5.91,5.908-9.055,24.743l-0.154,0.478c-0.521,1.046-1.002,2.114-1.486,3.177
		c-2.967,6.552-6.034,13.324-17.053,13.324c-0.996,0-2.064-0.074-3.164-0.181c-0.715,0.85-1.551,1.708-2.64,2.595
		c-4.469,4.401-6.344,11.999-8.51,20.794c-0.901,3.655-1.878,7.445-3.071,11.357l0.496,0.021c4.087,0.178,5.354,0.36,8.557,3.096
		c1.244,0.137,2.447,0.222,3.602,0.222c8.252,0,12.38-3.588,15.695-6.473c0.681-0.59,1.283-1.114,1.994-1.681
		c1.191-1.126,2.268-2.546,3.307-3.921c2.887-3.813,5.871-7.754,13.637-8.426c14.621-0.227,20.057-1.35,22.59-5.167
		c-12.41,0-22.449-6.822-22.449-15.252l5.982-3.373l0.844,1.496c2.217,3.926,4.773,6.932,9.096,8.707
		c2.439,0.87,5.207,1.461,8.182,1.704c0.432,0.029,0.857,0.06,1.313,0.077l1.717,0.061l-0.117,3.348
		c1.609-0.294,3.027-0.396,4.309-0.472c4.393-0.258,7.297-0.429,12.172-8.655C277.605,115.931,276.084,113.001,269.277,106.961z"/>
	<path fill="#231F20" d="M36.305,141.829c1.031-2.86,4.15-4.29,7.399-4.8l-27.74-9.74c-1.579-0.625-6.033-2.185-8.449-2.185
		c-0.178,0-0.318,0.008-0.429,0.022c0.199,0.538,0.853,1.765,2.989,4.107c0.024,0,12.265,9.973,27.729,19.734
		C36.072,146.275,35.557,143.903,36.305,141.829z"/>
	<path fill="#231F20" d="M174.903,166.248c1.334-3.125,2.709-6.29,4.455-8.698c0.487-1.026,0.983-2.089,1.496-3.2
		c1.372-4.271,2.435-8.576,3.461-12.74c2.289-9.304,4.271-17.339,9.556-22.53c2.551-2.085,3.784-3.862,3.598-5.11
		c-0.174-1.167-1.711-2.393-4.325-3.45c-0.312-0.034-0.901-0.098-1.459-0.098c-2.423,0-4.442,1.309-6.235,3.621l-4.074,7.62
		c-0.201,0.491-0.398,0.989-0.597,1.505l-4.718,15.449c-1.053,4.403-2.217,8.209-3.486,11.413l-0.893,2.919l-1.163,1.563
		c-2.907,5.431-6.28,8.202-10.097,8.202c-0.233,0-0.476-0.082-0.715-0.104l-1.088,0.218l-14.352-5.25l-4.315-0.416l-9.537,1.044
		l-13.209,3.885l-1.521,0.292c-1.948,0.48-3.93,0.896-5.985,1.146l-3.147,0.604l-7.535-0.248l-7.891-2.729l-4.799-2.538
		l-2.148-1.703c-6.094-4.4-10.532-7.348-15.219-9.664l-2.697-1.244c-4.738-2.063-10.053-3.671-17.737-5.585
		c-0.458-0.121-1.174-0.189-1.941-0.189c-3.008,0-6.395,0.949-7.048,2.763c-0.376,1.038-0.325,4.13,7.272,10.648
		c0.557-0.031,1.121-0.11,1.67-0.11c4.681,0,8.474,1.155,11.562,2.285c9.539,5.57,12.771,8.32,14.948,13.02
		c1.248,1.008,2.501,1.858,3.853,2.481c3.83,0.918,7.379,2.374,10.813,3.78c5.403,2.215,10.514,4.311,17.514,4.63
		c0.399-0.186,0.856-0.313,1.269-0.488c1.264-1.266,2.739-2.407,4.481-3.361c4.803-1.862,11.803-2.873,19.41-2.873
		c4.18,0,17.99,0.413,24.471,5.445c0.896,0.227,1.789,0.405,2.687,0.652l0.187,0.002c6.063,0,9.977-3.293,14.947-12.195
		C174.713,166.688,174.809,166.469,174.903,166.248z"/>
	<path fill="#231F20" d="M69.975,189.17c-0.366-0.769-0.702-1.539-0.946-2.309c-1.098-0.153-2.107-0.267-3.143-0.392
		c3.023,5.874,5.531,12.452,4.354,22.606c0.536-0.38,1.083-0.846,1.654-1.492c1.081-1.199,2.069-1.993,2.862-2.632
		c0.164-0.134,0.303-0.246,0.441-0.363c0.885-1.996,0.576-4.06-0.4-6.395C72.82,195.039,71.166,192.039,69.975,189.17z"/>
	<path fill="#231F20" d="M53.38,186.867c-5.131,1.681-9.167,6.225-11.878,16.993c5.786,2.507,11.16,4.312,15.814,5.347
		c2.201-12.736-0.629-17.188-3.637-21.869L53.38,186.867z"/>
	<path fill="#231F20" d="M59.557,182.563c2.7,0,5.596,0.334,8.657,0.746c-0.75-4.597,0.244-8.814,3.813-12.737
		c-1.721-3.908-4.164-6.215-13.445-11.66c-2.67-0.948-5.97-1.947-10.104-1.947c-0.966,0-1.953,0.056-2.942,0.168l-0.196,0.189
		c-2.063,1.979-8.347,8.001-11.848,14.447c-4.316,7.959-4.367,15.266-0.162,24.429c1.061,2.782,2.766,4.81,4.964,6.396
		C41.948,188.418,48.198,182.563,59.557,182.563z"/>
	<path fill="#231F20" d="M59.557,185.998c-0.884,0-1.738,0.045-2.575,0.13c3.096,4.851,6.044,10.219,3.707,23.712
		c0.057,0.008,0.109,0.011,0.168,0.02c0.082-0.002,0.169-0.017,0.251-0.017c1.063,0,2.077,0.102,3.063,0.204
		c0.537,0.057,1.054,0.109,1.563,0.146c0.332-0.008,0.627-0.031,0.927-0.053c1.668-11.171-1.384-17.557-4.843-24.019
		C61.066,186.08,60.28,185.998,59.557,185.998z"/>
	<path fill="#231F20" d="M160.053,190.023l0.062-0.382c-3.088,0.188-6.267,0.604-9.415,1.488c4.264,3.99,8.399,8.514,9.393,18.606
		c1.152-1.761,1.935-3.914,2.18-6.525c0.583-6.248-1.891-12.563-2.783-13.426C159.49,189.792,159.68,189.969,160.053,190.023z"/>
	<path fill="#231F20" d="M158.893,186.292c-1.025-1.935-2.27-3.588-3.745-4.783c-3.53-3.096-12.467-5.069-22.82-5.069
		c-7.098,0-13.816,0.951-17.973,2.549c-2.361,1.299-4.1,3.065-5.422,5.051c-0.174,2.729-0.754,5.819-3.01,8.59
		c-0.299,2.646-0.186,5.28,0.273,7.602c0.534,5.487,6.639,9.395,19.014,12.206l0.022-0.059
		C133.583,191.313,147.373,187.166,158.893,186.292z"/>
	<path fill="#231F20" d="M138.238,198.201c-3.507,3.356-6.729,7.988-9.42,14.473c0.266,0.283,0.5,0.498,0.744,0.665
		c0.949,0.179,1.923,0.351,2.934,0.519c0.897-0.056,1.787-0.078,2.67-0.078c2.367,0,4.633,0.175,6.832,0.353
		c0.063,0.003,0.131,0.003,0.193,0.005c1.895,0.064,3.719,0.099,5.503,0.09C146.055,205.371,141.97,200.251,138.238,198.201z"/>
	<path fill="#231F20" d="M147.366,192.72c-0.114-0.104-0.229-0.215-0.343-0.32c-2.079,0.872-4.121,2.011-6.096,3.492
		c4.255,2.84,8.561,8.696,10.217,18.188c1.747-0.145,3.355-0.463,4.832-0.955c0.287-0.136,0.576-0.271,0.861-0.433
		C156.405,201.144,152.026,197.028,147.366,192.72z"/>
	<path fill="#231F20" d="M200.476,168.374c-2.712-2.971-5.603-5.739-8.278-8.175c-3.111-2.778-3.347-2.79-7.271-2.959l-0.289-0.013
		c-2.668,1.224-4.653,5.869-6.574,10.369c-2.122,4.962-4.309,10.076-7.993,11.981c-0.54,6.226,0.918,14.859,5.517,20.076
		c1.301,1.477,2.771,2.522,4.381,3.209c-1.887-5.063-1.699-10.434,0.613-15.695C184.547,178.137,193.914,171.03,200.476,168.374z"/>
	<path fill="#231F20" d="M202.809,171.145c-2.195,0.732-4.945,2.195-7.711,4.19c0.302,0.26,0.587,0.508,0.929,0.797
		c3.959,3.319,10.373,8.811,13.425,19.95c1.805-2.201,2.184-5.266,2.082-7.522C211.265,182.529,207.791,175.646,202.809,171.145z"/>
	<path fill="#231F20" d="M193.82,178.762c-0.543-0.456-1.025-0.867-1.469-1.26c-1.613,1.382-3.155,2.936-4.547,4.617
		c3.578,2.485,10.082,8.813,12.457,20.663c1.756-1.001,3.561-2.317,5.738-3.933c0.172-0.126,0.373-0.271,0.547-0.397
		C203.967,187.318,197.881,182.168,193.82,178.762z"/>
	<path fill="#231F20" d="M185.75,184.91c-0.771,1.175-1.476,2.382-2.029,3.642c-2.205,5.021-2.172,9.953,0.105,14.663
		c3.604,1.107,6.547,1.647,8.98,1.647c1.929,0,3.563-0.328,5.123-0.938l-0.897,0.165C194.92,192.521,188.486,186.85,185.75,184.91z"
		/>
	<path fill="#231F20" d="M256.885,101.579c1.072,0.699,2.219,1.133,3.416,1.133c5.354,0,9.871-7.665,9.871-16.738
		c0-9.073-4.52-16.737-9.871-16.737c-2.014,0-3.908,1.088-5.488,2.925c3.223,3.648,5.281,9.469,5.281,16.169
		C260.094,93.452,258.887,98.059,256.885,101.579z M265.021,80.285c2.494,0,4.514,3.269,4.514,7.296c0,4.03-2.02,7.295-4.514,7.295
		c-2.486,0-4.506-3.266-4.506-7.295C260.516,83.551,262.535,80.285,265.021,80.285z"/>
	<path fill="#231F20" d="M246.789,105.069c5.352,0,9.871-7.665,9.871-16.737c0-9.072-4.52-16.738-9.871-16.738
		s-9.871,7.665-9.871,16.738C236.918,97.405,241.438,105.069,246.789,105.069z M250.859,83.182c2.729,0,4.941,3.41,4.941,7.619
		c0,4.21-2.213,7.62-4.941,7.62c-2.723,0-4.936-3.41-4.936-7.62S248.137,83.182,250.859,83.182z"/>
	<path fill="#231F20" d="M63.396,140.91l10.65,4.924l7.928,4.96l6.23,4.967l4.291,2.259l7.387,2.532l6.381,0.141l10.139-1.936
		l13.348-3.906l10.18-1.139l5.302,0.563l13.676,4.995l3.019-0.604l2.478-1.488l4.329-6.008l9.171-30.217l4.685-8.815l1.096-2.709
		l-0.451-2.478l-1.768-2.521l-6.484-5.157l-12.893-8.086l-13.684-6.017l-17.241-2.845l-14.176-0.283l-15.158,2.556l-15.332,5.536
		L75.486,96.84l-10.455,11.351c0.025,0-9.177,13.769-13.738,28.185l-0.031,0.099l1.397,0.853L63.396,140.91z"/>
	<path fill="#231F20" d="M87.841,178.369c-2.256,3.021-2.19,3.461-1.514,8.083l0.111,0.772c0.335,0.806,0.607,1.544,0.855,2.219
		c1.301,3.534,1.709,4.646,8.479,5.509c8.521-2.697,9.563-7.29,9.767-11.648c-6.953-0.508-11.72-2.526-14.953-3.895
		C89.537,178.961,88.455,178.504,87.841,178.369z"/>
</g>
</svg>
