<?xml version="1.0" encoding="utf-8"?>
<!-- Generator: Adobe Illustrator 15.1.0, SVG Export Plug-In . SVG Version: 6.00 Build 0)  -->
<!DOCTYPE svg PUBLIC "-//W3C//DTD SVG 1.1//EN" "http://www.w3.org/Graphics/SVG/1.1/DTD/svg11.dtd">
<svg version="1.1" id="Layer_2" xmlns="http://www.w3.org/2000/svg" xmlns:xlink="http://www.w3.org/1999/xlink" x="0px" y="0px"
	 width="283.46px" height="283.46px" viewBox="0 0 283.46 283.46" enable-background="new 0 0 283.46 283.46" xml:space="preserve">
<g>
	<path fill="none" d="M72.942,140.489c-3.392,6.021-7.971,12.212-6.953,19.505c4.749,0,9.667-0.087,14.077-2.375
		c-3.476-5.513-4.664-11.957-2.544-18.23C75.995,139.811,74.468,140.15,72.942,140.489C69.55,146.509,74.468,140.15,72.942,140.489z
		"/>
	<path fill="none" d="M69.635,170.678l0.001-0.005c0.028,0.002,0.056,0.004,0.083,0.005l1.356-3.054
		c-1.832-2.072-4.322-2.418-6.908-2.439c-1.12-0.014-2.258,0.038-3.371,0.039c-0.835-0.002-1.655-0.032-2.44-0.143
		c-0.02,0-0.042,0-0.063,0.002c-0.007-0.002-0.015-0.002-0.022-0.002c-0.059,0.004-0.121,0.006-0.181,0.01
		c-3.579,0.158-8.542-0.307-11.424,1.932c-0.012,0.007-0.021,0.016-0.03,0.025c-0.865,0.681-1.548,1.598-1.933,2.867
		C45.381,170,45.975,170,46.654,170C54.286,170.167,62.003,170.337,69.635,170.678C69.635,170.678,62.003,170.337,69.635,170.678z"
		/>
	<path fill="none" d="M41.481,164.912l-0.247-0.678l-0.093-0.255c-0.084,0.339-0.339,1.019-0.509,1.356l-0.933,1.103
		c-0.169,0.254-0.423,0.594-0.594,0.765c-2.205,1.864-1.78,4.748-2.034,7.293c0.338,0.678,1.102,1.95,1.44,2.543
		c0.135,0.08,0.262,0.146,0.386,0.199c3.184,1.417,2.719-5.439,0.328-6.369c-0.035-0.014-0.071-0.022-0.106-0.035
		c-0.114-0.035-0.23-0.063-0.352-0.067c1.56-1.892,3.347-3.704,3.844-6.128c0.016-0.079,0.043-0.153,0.056-0.233l-1.067,0.458
		L41.481,164.912L41.481,164.912z"/>
	<path fill="none" d="M104.852,219.085c2.909-0.015,5.718-0.738,7.692-3.295c-1.158-1.403-2.078-2.89-3.223-4.221
		c-0.029-0.033-0.055-0.068-0.084-0.104c0,2.035,0.084,4.072,0.169,6.021c-1.246,0.77-2.461,1.043-3.646,0.991
		c-3.573-0.153-6.868-3.313-9.886-5.188c-0.068-0.043-0.138-0.09-0.206-0.131c1.696,1.866,3.477,3.73,5.173,5.598
		C102.151,218.948,103.512,219.091,104.852,219.085C107.761,219.072,103.512,219.091,104.852,219.085z"/>
	<path fill="none" d="M54.371,180.429c0.594,7.718,2.12,15.52,4.749,22.813c5.088,8.987,9.328,18.486,15.857,26.459
		c6.7,6.698,13.398,15.096,23.745,15.604c7.547,0,15.857,1.695,22.642-2.629c8.734-4.07,13.738-15.01,10.346-24.254
		c-2.883-7.715-4.919-16.705-12.296-21.452c-10.346-6.192-25.864,4.067-23.745,16.194c-0.509-12.211,18.063-20.688,25.186-9.496
		c4.155,9.496,10.176,20.438,5.342,30.783c-7.548,11.615-25.186,12.803-35.871,4.916c-5.003-3.813-10.345-7.548-13.568-13.059
		c-3.052-5.344-5.682-10.855-8.904-16.113c-5.511-8.902-5.766-19.758-9.751-29.255C57.084,180.855,55.303,180.599,54.371,180.429
		C54.965,188.147,55.303,180.599,54.371,180.429z"/>
	<path fill="none" d="M32.232,171.251c0.018-0.226,0.038-0.448,0.072-0.674c0.21-1.355,0.717-2.709,1.334-4.021
		c0.042-0.093,0.083-0.183,0.127-0.271c0.021-0.043,0.044-0.089,0.066-0.134c0.514-1.045,1.086-2.062,1.628-3.022
		c-1.442,0.17-2.968,0.255-4.41,0.34c-0.927,2.107-1.939,4.3-3.119,6.324c-0.006,0.012-0.012,0.021-0.019,0.035
		c0.209,0.558,0.442,1.098,0.679,1.635c0.051,0.115,0.094,0.238,0.146,0.353c0.012,0.026,0.026,0.052,0.038,0.076
		c0.291,0.631,0.6,1.251,0.93,1.858c0.676,1.244,1.434,2.443,2.277,3.625c0.424-0.17,1.441-0.594,1.951-0.848
		c-0.018-0.021-0.031-0.044-0.049-0.064c-1.336-1.615-1.772-3.325-1.67-5.045C32.218,171.364,32.228,171.308,32.232,171.251
		C32.25,171.027,32.228,171.308,32.232,171.251z"/>
	<path fill="none" d="M158.845,101.396l-0.17,1.018c5.927,5.926,14.146,10.004,22.525,9.732c1.934-0.063,3.875-0.357,5.799-0.913
		c1.655-0.921,3.336-1.933,4.869-3.117c1.998-1.544,3.74-3.388,4.797-5.787c6.359-13.145,7.463-28.663,3.139-42.57
		c-1.957-1.404-3.852-2.895-5.551-4.577c-1.688-1.67-3.188-3.529-4.371-5.684c-3.863-5.438-10.021-11.118-16.945-10.925
		c-1.282,0.036-2.592,0.272-3.916,0.75c-8.648,1.188-14.755,8.819-17.129,16.79c-3.223,10.177-4.325,21.709,0,31.716
		C152.826,92.747,153.671,99.022,158.845,101.396C158.845,101.396,153.671,99.022,158.845,101.396z M162.059,76.102
		c0.126-0.118,0.267-0.228,0.405-0.33c0.092-0.067,0.188-0.128,0.285-0.19c0.053-0.034,0.102-0.07,0.153-0.103
		c3.291-1.98,9.099-1.165,12.224,0.9c1.002,3.101,0.502,6.899-1.336,9.629c-1.431,2.124-3.666,3.601-6.637,3.601
		c-2.848-1.979-6.729-3.884-6.683-7.711c0.003-0.261,0.022-0.53,0.063-0.809c0.002-0.015,0-0.029,0.004-0.045
		C160.232,78.781,160.873,77.173,162.059,76.102C162.082,76.081,160.873,77.173,162.059,76.102z"/>
	<path fill="none" d="M27.791,161.996c-2.734,0.522-5.681,0.6-8.431,0.213c-1.995,3.291-3.996,5.388-6.667,6.988
		c-2.476,1.626-1.807,5.027-1.27,7.76c0.06,0.307,0.118,0.602,0.169,0.883c3.705,0.679,7.557,0.729,11.283,0.777
		c1.525,0.021,3.098,0.041,4.647,0.104c-0.389-0.872-0.817-1.742-1.233-2.587c-1.022-2.075-2.079-4.221-2.605-6.502
		c-0.342-1.951,0.873-3.219,2.048-4.443C26.634,164.248,27.564,163.278,27.791,161.996
		C25.057,162.518,27.564,163.278,27.791,161.996z"/>
	<path fill="none" d="M176.06,153.718c-1.525-1.441-2.12-4.325-4.495-4.579c-4.579,0.593-9.157,1.356-13.821,1.103h-0.255h-4.834
		c-0.254,2.799-0.254,5.598-0.254,8.396c1.103,0.594,3.392,1.863,4.494,2.459c1.61-2.969,4.664-4.154,7.717-5.002
		c4.58,7.461,13.567,6.527,21.115,6.357C182.589,159.485,178.774,157.11,176.06,153.718
		C174.535,152.277,178.774,157.11,176.06,153.718z"/>
	<path fill="none" d="M185.218,147.697c-1.525-1.781-3.985-1.949-5.428,0.086c1.949,6.104,8.479,9.073,11.192,14.756
		c-1.188,2.629-4.153,5.258-2.12,8.142c0.68-5.599,5.26-8.312,10.094-10.093c-2.375-0.17-4.834-0.34-7.293-0.508
		C189.712,155.837,188.102,151.428,185.218,147.697C183.693,145.916,188.102,151.428,185.218,147.697z"/>
	<path fill="none" d="M46.654,174.41c0.254,0.594,0.848,1.78,1.188,2.375c8.988,0.936,18.147,0.254,27.221,0.254
		c-0.424-0.425-1.102-1.188-1.441-1.608C64.632,175.087,55.643,172.968,46.654,174.41C46.908,175.003,55.643,172.968,46.654,174.41z
		"/>
	<path fill="none" d="M168.937,166.692c-2.12,0.511-6.529-0.169-5.938,3.308c2.896,0.17,5.791,0.256,8.696,0.275
		c2.917,0.021,5.847-0.021,8.771-0.105c2.375,0.084,3.394-1.103,3.139-3.562C178.689,166.608,173.855,166.354,168.937,166.692
		C166.817,167.203,173.855,166.354,168.937,166.692z"/>
	<path fill="none" d="M232.197,108.519c3.902-4.155,8.652-7.292,12.807-11.193c5.127-7.566,9.681-16.844,9.811-26.097
		c0.051-3.607-0.57-7.211-2.093-10.708c-1.949-8.311-11.533-11.194-19.079-10.261c-9.921,1.696-20.857,5.258-26.117,14.667
		c0,0.001-0.001,0.002-0.002,0.003c0.15,8.151,1.255,16.438,0.188,24.679c-0.112,0.879-0.248,1.757-0.414,2.634
		c-0.012,0.054-0.019,0.108-0.027,0.163C216.934,94.781,227.451,99.022,232.197,108.519
		C236.099,104.364,227.451,99.022,232.197,108.519z M239.322,69.765c2.034-0.424,3.985-0.932,5.938-1.526
		c1.377,2.121,1.86,4.804,1.737,7.43c-0.072,1.575-0.36,3.128-0.808,4.527c-3.953,3.784-9.401-0.022-11.062-4.222
		c-0.017-0.035-0.033-0.069-0.047-0.104C236.523,73.835,237.878,71.8,239.322,69.765C241.356,69.341,237.878,71.8,239.322,69.765z"
		/>
	<path fill="none" d="M194.546,167.117c-0.34,0.594-1.02,1.865-1.357,2.545c5.004,1.525,10.348,0.592,15.436,1.271v0.002
		c0.063,0.008,0.131,0.018,0.194,0.023c6.642,0.92,13.603,1.557,19.733-1.467c-2.121-1.357-4.071-3.394-6.615-3.902
		C212.694,165.082,203.621,166.354,194.546,167.117C194.207,167.71,203.621,166.354,194.546,167.117z"/>
	<path fill="none" d="M223.326,176.032c-0.027-0.063-0.046-0.135-0.078-0.192c-1.416-2.627-6.756-1.645-9.535-1.854
		c-8.312,1.442-16.791,0.424-25.103,1.525c-8.903-1.781-17.978-2.119-27.051-1.355c0.003,0.025,0.005,0.059,0.008,0.084
		c-0.003,0.002-0.005,0.002-0.008,0.002c0.085,0.846,0.17,2.543,0.255,3.391c8.902-0.51,17.977,0.341,26.796-1.525
		c7.718,1.696,15.604,1.02,23.405,0.512c3.986-0.342,7.632,2.118,11.533,1.608c0.109-0.71,0.078-1.295-0.063-1.786
		C223.449,176.291,223.384,176.164,223.326,176.032C223.298,175.969,223.384,176.164,223.326,176.032z"/>
	<path fill="none" d="M203.705,185.772c-5.088-1.694-9.836-3.985-14.67-6.104c3.139,3.054,5.682,6.955,9.752,8.903
		c5.258,1.188,10.433-2.29,14.246-5.682C210.66,178.225,206.587,184.585,203.705,185.772
		C198.617,184.078,206.587,184.585,203.705,185.772z"/>
	<path fill="none" d="M155.708,170.507l0.084-0.594c1.356-4.918,6.444-6.359,10.517-8.312c-2.459-5.937-8.479-0.933-11.194,2.206
		c-2.035-1.781-3.9-3.646-5.597-5.77c5.258,7.803,0.935,19.506,9.668,25.104c-1.269-4.145-2.873-8.286-3.472-12.598
		C155.712,170.535,155.71,170.522,155.708,170.507C155.708,170.507,155.71,170.522,155.708,170.507z"/>
	<path fill="none" d="M236.523,165.335c-0.169,2.021-0.421,4.047-0.675,6.153c-0.863,0.527-2.401,1.577-3.142,2.069
		c0,0.01,0,0.021,0,0.027c-0.027,0.019-0.061,0.039-0.084,0.058c0,1.866-0.086,3.815-0.256,5.683
		c7.038-0.168,13.481-3.223,20.352-4.494c0.013-0.023,0.019-0.049,0.029-0.074c0.02-0.002,0.037-0.008,0.057-0.01
		c1.104-2.205,0.426-4.748,0.34-6.953C247.548,167.203,242.205,165.082,236.523,165.335
		C236.354,167.358,242.205,165.082,236.523,165.335z"/>
	<path fill="none" d="M140.19,152.107c-7.378,0.34-14.755,0.084-22.133,0.34c-0.933,3.477-2.12,6.867-2.799,10.346
		c10.515,0.934,21.116,0.595,31.631,0.424C145.278,159.23,143.751,154.821,140.19,152.107
		C132.812,152.447,143.751,154.821,140.19,152.107z"/>
	<path fill="none" d="M96.771,170.678c0.61,0.636,1.277,0.842,1.975,0.817c0.836-0.027,1.715-0.388,2.587-0.726
		c0.727-0.282,1.449-0.551,2.138-0.604c5.088-1.524,9.922,1.867,15.01,1.867c9.752,0.254,19.504,0.168,29.257-0.171
		c-0.086-1.103-0.255-3.393-0.34-4.495c-12.975,0-26.373-2.035-39.008,1.696c-3.562-0.085-6.869-1.696-10.346-2.29
		c-2.375-3.223-8.565-0.934-12.466-1.865c0.509,1.78,1.103,3.646,1.611,5.512c2.366,0,4.78,0.099,7.17,0.146
		C95.154,170.6,95.957,170.636,96.771,170.678C97.381,171.314,95.957,170.636,96.771,170.678z"/>
	<path fill="none" d="M94.397,160.585c2.29-1.779,4.664-3.729,7.293-5.172c0.339-2.035,0.764-3.985,1.272-5.938
		c-3.138-2.971-7.887-2.798-11.788-3.984C90.157,150.833,91.344,156.093,94.397,160.585
		C96.687,158.806,91.344,156.093,94.397,160.585z"/>
	<path fill="none" d="M81.168,164.828c2.544-3.478,7.717-2.63,11.448-3.73c-2.544-3.309-5.936-6.359-7.039-10.432
		c-0.339-6.273,2.629-12.042,4.749-17.724c1.612,0.339,3.138,0.594,4.75,0.933c0.169,2.205,0.423,4.494,0.593,6.699
		c5.427,2.968,11.703,3.138,17.469,5.003c7.971,2.629,16.536,1.696,24.592-0.17c-0.001-0.021-0.002-0.043-0.003-0.063
		c0.029-0.009,0.059-0.015,0.088-0.021c-0.085-1.864-0.254-3.731-0.254-5.597c-0.02-0.006-0.039-0.013-0.058-0.019
		c0.752-2.968,2.278-7.264,5.683-7.005c0.487,0.038,1.015,0.168,1.584,0.41c-0.341,4.409-0.935,8.734-1.103,13.144
		c0.084,3.986,2.119,7.38,4.578,10.433c-0.084-2.289-0.256-4.664-0.425-6.954c-0.003-0.023-0.005-0.052-0.008-0.076
		c-0.669-6.168-0.485-12.581,2.976-17.901c1.02-0.084,3.139-0.254,4.155-0.339c0,0.002-0.001,0.005-0.001,0.007
		c-0.849,4.322-1.949,8.476-2.883,12.714c2.036,0.254,4.154,0.508,6.189,0.763c8.312,0.934,16.791-1.188,24.082-5.088
		c0.017-0.007,0.028-0.016,0.043-0.023c2.022-1.097,4.129-2.359,6.148-3.454c3.984,2.29,8.479,4.833,13.313,3.392
		c11.619-2.713,24.593-5.003,33.412-13.822c-0.765-1.781-1.439-3.561-2.205-5.342l-0.508-1.272
		c-2.97-4.833-5.344-10.43-10.262-13.568c-4.749-2.798-10.262-3.901-15.18-6.36c-0.01,0.008-0.021,0.018-0.029,0.026
		c-5.236,4.411-7.613,11.092-12.691,15.662c-4.043,2.695-8.854,3.892-13.682,3.955c-2.158,0.028-4.318-0.169-6.415-0.563
		c-7.632-1.78-13.993-6.869-20.099-11.532c-3.646-2.884-5.512-7.293-6.953-11.618c-0.934-2.883-1.696-5.852-2.459-8.735
		c-0.934-3.815-0.68-8.819-4.919-10.515l-0.509-0.254c-9.583-4.409-20.183-7.632-30.783-7.038
		C99.143,71.72,88.798,73.67,81.59,80.794c-2.813,2.515-5.315,5.293-7.566,8.261c-2.512,3.312-4.703,6.866-6.67,10.554
		c-3.287,6.16-5.938,12.703-8.321,19.175c-0.254,0.848-0.678,2.459-0.932,3.307c-0.17,0.594-0.424,1.696-0.594,2.206
		c-1.696,6.784-4.664,13.059-6.36,19.758c-0.16,1.438-0.223,2.864-0.217,4.288c0.009,2.328,0.204,4.647,0.463,7.002
		c-0.027,0.023-0.05,0.05-0.077,0.074c0.085,0.763,0.17,2.203,0.17,2.883c2.29,0,4.58,0.085,6.869,0.169
		c0-0.001,0.001-0.002,0.001-0.003c0.027,0.001,0.055,0.002,0.083,0.003c4.741-8.211,7.793-17.773,15.649-23.796
		c0.013-0.01,0.025-0.022,0.039-0.032c1.866-1.951,3.477-4.07,5.427-5.851c2.459-1.442,3.986,1.356,5.342,2.968
		c-0.012,0.014-0.022,0.029-0.034,0.043c-6.823,7.634-4.451,19.306,0.798,27.179c-3.647,2.713-7.124,5.512-9.922,8.988
		c1.95,6.361,8.395,9.412,14.077,11.703C85.832,175.511,79.642,171.611,81.168,164.828C83.712,161.35,79.642,171.611,81.168,164.828
		z"/>
	<path fill="none" d="M103.046,161.266c2.714,0.508,5.427,0.678,8.226,0.932c2.799-3.222,1.018-7.632,0.764-11.446l-1.441,0.764
		C109.406,155.837,106.693,158.806,103.046,161.266C105.76,161.774,106.693,158.806,103.046,161.266z"/>
	<path fill="none" d="M103.385,175.257c-3.9,0.086-7.717,0-11.533,0c0.763,1.103,1.526,2.119,2.29,3.138
		c3.052,0.085,6.19,0.255,9.243,0.34v0.085c14.671,0.084,29.256,0.34,43.928-0.17c0.254-0.425,0.849-1.357,1.103-1.865
		c-0.018-0.002-0.033-0.003-0.052-0.004c0.017-0.025,0.036-0.059,0.052-0.082C133.405,175.681,118.395,175.428,103.385,175.257
		C99.485,175.343,118.395,175.428,103.385,175.257z"/>
	<path d="M242.458,162.198c-8.732-1.524-17.554-0.084-26.287-0.254c-3.9-2.63-7.717-5.682-12.551-6.021
		c-1.525,0.679-3.055,1.271-4.578,1.865c3.983,0.424,8.141,1.355,11.19,4.239c-3.813-0.255-7.717-0.085-11.276-1.44
		c-4.834,1.781-9.412,4.494-10.093,10.092c-2.032-2.883,0.935-5.512,2.12-8.141c-2.713-5.684-9.242-8.65-11.193-14.758
		c1.441-2.033,3.901-1.865,5.428-0.085c2.885,3.731,4.496,8.144,6.445,12.384c2.459,0.168,4.918,0.338,7.293,0.508v-2.799
		c-1.188,0.51-2.459,1.019-3.646,1.61c-2.121-4.664-3.898-9.413-5.43-14.247c2.886,0.68,5.684,1.696,8.565,2.29
		c13.229-2.035,27.39-4.664,37.737-13.823c2.204-2.205,6.104-4.156,5.426-7.802c-0.255-1.865-0.847-3.646-1.695-5.257
		c-1.439-3.054-3.478-5.852-4.748-9.074c2.967-1.102,6.021-2.206,8.903-3.562c10.347-10.091,15.519-24.508,16.62-38.753
		c-1.018-7.548-3.137-15.858-8.988-21.201c-10.686-5.342-23.236-3.646-34.091,0.254c-4.918,1.95-8.479,5.936-12.635,9.159
		c-3.308-0.763-5.343-4.58-7.548-7.124c-4.24-7.208-10.006-13.822-17.893-16.96c-6.615-0.254-14.162-2.035-19.845,2.205
		c-2.884,1.865-6.104,3.562-8.142,6.53c-4.58,8.565-7.209,18.062-7.973,27.645c-1.442-0.593-2.884-1.102-4.325-1.696
		c-10.091-3.731-20.606-6.275-31.377-5.936c-7.462,1.441-14.755,3.646-21.708,6.784c-14.162,7.377-23.151,21.793-28.408,36.464
		c-3.223,6.445-5.512,13.229-6.784,20.268c-1.188,6.36-3.647,12.551-3.986,19.08c0,4.409,0.338,8.817,0.254,13.229
		c-0.17,0.086-0.424,0.256-0.594,0.34c-4.58,2.545-10.007,2.461-15.095,3.309c-3.816-0.085-7.463-1.951-11.278-0.848H20.19
		c-4.071,1.949-8.395,3.052-12.466,4.916c-0.933,5.768-1.866,13.738,5.088,15.941h7.462c8.819,0,17.554,0.085,26.373,0.172h2.035
		c2.12,11.022,4.24,22.387,10.091,32.141c6.869,11.107,13.653,22.727,24.083,30.867c10.007,6.697,22.643,6.953,34.091,4.918
		c4.324-0.508,7.377-3.9,11.278-5.515c2.374-1.438,5.936-1.778,6.784-4.833c7.803-12.719,1.865-28.406-5.258-40.023
		c-4.495-7.971-14.331-9.584-22.642-9.243c-4.919,0.762-7.971,4.918-11.957,7.461c-4.325,2.63-8.565,8.228-5.257,13.313
		c2.798,5.344,6.275,12.467,13.399,12.043c4.494-0.511,10.43-1.527,12.38-6.19c0.848-5.683-5.851-8.396-10.346-9.412
		c0.255,2.797,0.51,5.512,0.764,8.312c-2.29-1.61-4.665-3.14-7.04-4.75c1.442-7.463,9.752-7.293,15.519-9.582
		c5.851,9.072,11.957,20.776,7.208,31.629c-5.512,6.869-15.434,6.022-23.066,4.242c-10.007-1.526-16.707-10.516-21.116-18.912
		c-6.699-11.619-14.84-24.084-13.398-38.076c4.664-0.084,9.413-0.422,13.992,0.087c4.494,1.018,8.48,4.918,13.313,3.054
		c10.346-2.8,21.116-1.104,31.715-1.271c8.311-0.426,16.707-0.848,25.016-0.34c2.97,0.85,4.665,4.493,8.142,4.24
		c3.986,1.354,6.275-2.799,9.244-4.495c6.699-0.253,13.482-0.423,20.1,0c3.137,5.513,7.886,11.449,14.67,12.298
		c8.226,0.338,15.264-5.514,19.674-11.957c5.852,1.355,12.125,3.139,17.809,0.254c12.297-5.172,25.863-5.172,38.5-8.817v-3.646
		C266.458,163.216,253.908,165.082,242.458,162.198C233.726,160.673,253.908,165.082,242.458,162.198z M185.727,162.453
		c-7.548,0.17-16.535,1.104-21.115-6.357c-3.053,0.848-6.104,2.033-7.717,5.002c-1.103-0.596-3.392-1.865-4.494-2.459
		c0-2.799,0-5.598,0.254-8.396h4.834h0.255c4.664,0.254,9.242-0.51,13.821-1.103c2.375,0.254,2.97,3.138,4.495,4.579
		C178.774,157.11,182.589,159.485,185.727,162.453C178.179,162.623,182.589,159.485,185.727,162.453z M180.468,170.167
		c-2.926,0.086-5.854,0.127-8.771,0.105c-2.904-0.021-5.802-0.104-8.695-0.273c-0.594-3.479,3.814-2.799,5.937-3.31
		c4.918-0.338,9.752-0.084,14.67-0.084C183.862,169.067,182.843,170.253,180.468,170.167
		C177.542,170.253,182.843,170.253,180.468,170.167z M207.296,92.245c0.166-0.877,0.301-1.755,0.414-2.634
		c1.064-8.24-0.037-16.528-0.188-24.679c0.001-0.001,0.002-0.002,0.002-0.003c5.259-9.41,16.196-12.972,26.117-14.667
		c7.546-0.933,17.13,1.95,19.079,10.261c1.521,3.497,2.144,7.1,2.093,10.708c-0.13,9.253-4.683,18.53-9.81,26.097
		c-4.153,3.901-8.903,7.039-12.808,11.193c-4.747-9.497-15.263-13.738-24.93-16.112C207.278,92.353,207.285,92.299,207.296,92.245
		C207.462,91.368,207.285,92.299,207.296,92.245z M151.892,56.112c2.374-7.971,8.48-15.604,17.129-16.79
		c1.324-0.477,2.634-0.714,3.916-0.75c6.924-0.192,13.082,5.487,16.945,10.925c1.184,2.155,2.683,4.014,4.371,5.684
		c1.699,1.683,3.594,3.173,5.551,4.577c4.324,13.907,3.223,29.425-3.139,42.57c-1.057,2.399-2.799,4.243-4.797,5.787
		c-1.533,1.185-3.214,2.196-4.869,3.117c-1.924,0.556-3.865,0.85-5.799,0.913c-8.379,0.271-16.601-3.806-22.525-9.732l0.17-1.018
		c-5.174-2.374-6.021-8.649-6.953-13.568C147.567,77.821,148.669,66.289,151.892,56.112
		C154.266,48.141,148.669,66.289,151.892,56.112z M23.684,169.632c0.526,2.281,1.583,4.427,2.605,6.502
		c0.416,0.845,0.845,1.715,1.233,2.587c-1.549-0.063-3.122-0.084-4.647-0.104c-3.727-0.05-7.578-0.101-11.283-0.777
		c-0.052-0.281-0.11-0.576-0.169-0.883c-0.537-2.73-1.206-6.134,1.27-7.76c2.671-1.603,4.672-3.697,6.667-6.988
		c2.75,0.387,5.697,0.312,8.431-0.213c-0.227,1.282-1.157,2.252-2.059,3.193C24.557,166.414,23.342,167.681,23.684,169.632
		C24.21,171.914,23.342,167.681,23.684,169.632z M33.885,176.464c0.018,0.021,0.031,0.045,0.049,0.064
		c-0.51,0.254-1.527,0.678-1.951,0.848c-0.843-1.182-1.602-2.381-2.277-3.625c-0.33-0.607-0.639-1.229-0.93-1.858
		c-0.071-0.14-0.133-0.281-0.184-0.429c-0.237-0.537-0.47-1.077-0.679-1.635c0.007-0.014,0.013-0.023,0.019-0.035
		c1.179-2.024,2.191-4.217,3.119-6.324c1.442-0.085,2.968-0.17,4.41-0.34c-0.542,0.964-1.114,1.979-1.628,3.022
		c-0.067,0.134-0.132,0.269-0.193,0.404c-0.618,1.312-1.125,2.663-1.334,4.021c-0.035,0.226-0.054,0.448-0.072,0.674
		c-0.004,0.057-0.014,0.11-0.017,0.168C32.113,173.139,32.549,174.849,33.885,176.464C33.903,176.486,32.549,174.849,33.885,176.464
		z M42.612,164.636c-0.498,2.424-2.284,4.238-3.844,6.128c0.122,0.007,0.238,0.034,0.352,0.067c0.035,0.013,0.071,0.021,0.106,0.037
		c2.392,0.93,2.856,7.784-0.328,6.367c-0.124-0.056-0.251-0.117-0.386-0.199c-0.338-0.593-1.102-1.863-1.44-2.543
		c0.254-2.543-0.17-5.429,2.034-7.293c0.17-0.171,0.424-0.511,0.594-0.765l0.933-1.104c0.169-0.338,0.424-1.018,0.509-1.354
		l0.093,0.255l0.247,0.68l0.12-0.053l1.067-0.458C42.655,164.483,42.628,164.557,42.612,164.636
		C42.114,167.06,42.628,164.557,42.612,164.636z M44.704,169.916c0.385-1.271,1.068-2.188,1.933-2.867
		c0.009-0.01,0.019-0.019,0.03-0.024c2.882-2.235,7.846-1.772,11.424-1.933c0.06-0.004,0.122-0.006,0.181-0.01
		c0.007,0,0.015,0,0.022,0.002c0.02-0.002,0.042-0.002,0.063-0.002c0.785,0.109,1.605,0.142,2.44,0.144
		c1.113-0.001,2.251-0.054,3.371-0.039c2.586,0.021,5.076,0.367,6.908,2.438l-1.356,3.055c-0.028-0.001-0.056-0.004-0.083-0.006
		l-0.001,0.006c-7.632-0.342-15.349-0.512-22.981-0.68C45.975,170,45.381,170,44.704,169.916
		C45.089,168.645,45.381,170,44.704,169.916z M80.065,157.619c-4.409,2.289-9.328,2.375-14.077,2.375
		c-1.018-7.293,3.562-13.482,6.953-19.504c1.527-0.339,3.054-0.679,4.58-1.102C75.401,145.662,76.589,152.107,80.065,157.619
		C75.656,159.908,76.589,152.107,80.065,157.619z M67.854,210.195c3.223,5.258,5.852,10.77,8.904,16.113
		c3.223,5.511,8.565,9.243,13.568,13.059c10.685,7.887,28.323,6.699,35.871-4.916c4.834-10.348-1.187-21.287-5.342-30.783
		c-7.123-11.192-25.695-2.715-25.186,9.496c0.068,0.041,0.137,0.088,0.206,0.131c3.018,1.875,6.313,5.033,9.886,5.188
		c1.185,0.054,2.4-0.223,3.646-0.989c-0.085-1.951-0.169-3.988-0.169-6.022c0.029,0.034,0.056,0.069,0.084,0.104
		c1.145,1.33,2.065,2.814,3.223,4.219c-2.807,3.636-7.573,3.559-11.702,2.971c-1.696-1.866-3.477-3.729-5.173-5.598
		c-2.12-12.127,13.398-22.39,23.745-16.195c7.377,4.748,9.413,13.736,12.296,21.454c3.392,9.243-1.612,20.182-10.346,24.253
		c-6.784,4.324-15.095,2.628-22.642,2.628c-10.346-0.509-17.045-8.903-23.745-15.604c-6.53-7.972-10.77-17.471-15.857-26.459
		c-2.629-7.291-4.155-15.094-4.749-22.812c0.933,0.17,2.713,0.426,3.731,0.511C62.088,190.437,62.342,201.292,67.854,210.195
		C71.077,215.453,62.342,201.292,67.854,210.195z M47.841,176.785c-0.339-0.595-0.933-1.781-1.188-2.375
		c8.989-1.439,17.978,0.678,26.967,1.021c0.339,0.422,1.017,1.187,1.441,1.608C65.988,177.039,56.83,177.718,47.841,176.785
		C47.502,176.19,56.83,177.718,47.841,176.785z M75.741,167.964c2.798-3.479,6.274-6.275,9.922-8.988
		c-5.249-7.873-7.621-19.545-0.798-27.179c0.012-0.014,0.022-0.029,0.034-0.043c-1.356-1.611-2.883-4.41-5.342-2.968
		c-1.95,1.781-3.561,3.9-5.427,5.851c-0.014,0.01-0.026,0.022-0.039,0.032c-7.856,6.023-10.908,15.584-15.649,23.795
		c-0.027,0-0.055-0.002-0.083-0.002l-0.001,0.002c-2.29-0.084-4.579-0.168-6.869-0.168c0-0.68-0.085-2.121-0.17-2.883
		c0.027-0.024,0.05-0.053,0.077-0.074c-0.26-2.354-0.454-4.674-0.463-7.002c-0.006-1.424,0.057-2.852,0.217-4.289
		c1.696-6.698,4.665-12.973,6.36-19.757c0.169-0.51,0.424-1.612,0.594-2.206c0.254-0.848,0.678-2.459,0.932-3.307
		c2.383-6.473,5.034-13.015,8.321-19.175c1.968-3.688,4.159-7.242,6.67-10.554c2.251-2.968,4.753-5.747,7.566-8.261
		c7.208-7.124,17.554-9.074,26.966-12.042c10.601-0.594,21.2,2.629,30.783,7.038l0.509,0.254c4.24,1.696,3.984,6.7,4.919,10.515
		c0.763,2.883,1.524,5.852,2.459,8.735c1.44,4.325,3.308,8.734,6.954,11.618c6.104,4.664,12.466,9.752,20.098,11.532
		c2.096,0.393,4.258,0.59,6.415,0.563c4.826-0.063,9.64-1.259,13.683-3.955c5.078-4.57,7.455-11.251,12.69-15.662
		c0.011-0.008,0.021-0.018,0.029-0.026c4.918,2.459,10.431,3.562,15.18,6.36c4.918,3.138,7.292,8.734,10.261,13.568l0.51,1.272
		c0.765,1.781,1.439,3.561,2.203,5.342c-8.817,8.819-21.793,11.109-33.41,13.822c-4.834,1.441-9.327-1.103-13.313-3.392
		c-2.021,1.095-4.126,2.357-6.146,3.454c-0.016,0.007-0.028,0.016-0.043,0.023c-7.293,3.901-15.772,6.021-24.084,5.088
		c-2.035-0.255-4.153-0.509-6.189-0.763c0.934-4.238,2.034-8.394,2.883-12.714c0-0.002,0.002-0.004,0.002-0.007
		c-1.02,0.084-3.139,0.254-4.156,0.339c-3.461,5.32-3.645,11.733-2.976,17.9c0.003,0.025,0.005,0.053,0.009,0.077
		c0.168,2.29,0.338,4.665,0.422,6.954c-2.459-3.053-4.494-6.445-4.578-10.432c0.17-4.411,0.765-8.733,1.104-13.145
		c-0.567-0.242-1.096-0.373-1.584-0.41c-3.404-0.259-4.931,4.037-5.683,7.005c0.019,0.006,0.038,0.013,0.058,0.019
		c0,1.866,0.169,3.732,0.254,5.597c-0.029,0.007-0.059,0.014-0.088,0.021c0.001,0.021,0.002,0.043,0.003,0.063
		c-8.056,1.866-16.621,2.799-24.592,0.17c-5.767-1.864-12.042-2.034-17.469-5.004c-0.169-2.205-0.424-4.495-0.593-6.699
		c-1.612-0.339-3.138-0.594-4.75-0.933c-2.12,5.682-5.088,11.447-4.749,17.724c1.103,4.07,4.495,7.123,7.039,10.431
		c-3.731,1.104-8.904,0.256-11.448,3.73c-1.526,6.784,4.664,10.686,8.65,14.842C84.136,177.376,77.691,174.326,75.741,167.964
		C78.539,164.487,77.691,174.326,75.741,167.964z M146.888,163.216c-10.515,0.169-21.116,0.508-31.631-0.426
		c0.679-3.479,1.866-6.869,2.799-10.346c7.378-0.256,14.755,0,22.133-0.34C143.751,154.821,145.278,159.23,146.888,163.216
		C136.373,163.385,145.278,159.23,146.888,163.216z M111.272,162.198c-2.798-0.254-5.512-0.424-8.226-0.932
		c3.647-2.46,6.36-5.429,7.548-9.753l1.441-0.764C112.29,154.566,114.071,158.976,111.272,162.198
		C108.474,161.944,114.071,158.976,111.272,162.198z M102.962,149.478c-0.509,1.95-0.933,3.9-1.272,5.938
		c-2.629,1.44-5.003,3.393-7.293,5.172c-3.052-4.492-4.24-9.752-3.223-15.094C95.075,146.68,99.824,146.509,102.962,149.478
		C102.453,151.428,99.824,146.509,102.962,149.478z M87.189,170.423c-0.509-1.865-1.103-3.731-1.611-5.512
		c3.901,0.933,10.091-1.357,12.466,1.863c3.477,0.596,6.784,2.205,10.346,2.29c12.635-3.729,26.033-1.694,39.008-1.694
		c0.085,1.103,0.254,3.394,0.34,4.493c-9.753,0.341-19.504,0.425-29.257,0.171c-5.088,0-9.922-3.394-15.01-1.867
		c-0.689,0.054-1.411,0.32-2.138,0.604c-0.872,0.338-1.751,0.695-2.587,0.725c-0.697,0.023-1.365-0.183-1.975-0.816
		c-0.813-0.042-1.616-0.078-2.412-0.111C91.969,170.52,89.555,170.423,87.189,170.423C86.68,168.558,89.555,170.423,87.189,170.423z
		 M148.416,176.785c-0.254,0.508-0.849,1.44-1.103,1.865c-14.671,0.51-29.257,0.254-43.928,0.17v-0.085
		c-3.053-0.085-6.19-0.255-9.243-0.34c-0.764-1.019-1.527-2.035-2.29-3.138c3.816,0,7.632,0.086,11.533,0
		c15.01,0.171,30.02,0.424,45.031,1.439c-0.017,0.023-0.035,0.059-0.053,0.082C148.38,176.782,148.398,176.783,148.416,176.785
		C148.162,177.292,148.398,176.783,148.416,176.785z M149.517,158.042c1.695,2.119,3.563,3.984,5.597,5.768
		c2.716-3.139,8.735-8.143,11.194-2.206c-4.07,1.95-9.158,3.394-10.516,8.312l-0.086,0.595c0.002,0.014,0.006,0.024,0.008,0.038
		c0.598,4.312,2.201,8.453,3.471,12.598C150.451,177.546,154.775,165.844,149.517,158.042
		C151.212,160.162,154.775,165.844,149.517,158.042z M198.787,188.571c-4.07-1.948-6.613-5.852-9.752-8.903
		c4.834,2.119,9.582,4.41,14.67,6.104c2.885-1.187,6.955-7.547,9.328-2.883C209.216,186.281,204.044,189.757,198.787,188.571
		C194.716,186.623,204.044,189.757,198.787,188.571z M223.548,178.225c-3.901,0.51-7.547-1.95-11.533-1.608
		c-7.803,0.506-15.688,1.187-23.405-0.512c-8.819,1.866-17.894,1.018-26.796,1.527c-0.085-0.851-0.17-2.545-0.255-3.394
		c0.003,0,0.005,0,0.008-0.001c-0.003-0.025-0.005-0.059-0.008-0.084c9.073-0.764,18.147-0.426,27.051,1.355
		c8.312-1.104,16.791-0.084,25.103-1.525c2.779,0.209,8.119-0.771,9.535,1.854c0.032,0.059,0.051,0.131,0.078,0.191
		c0.059,0.133,0.123,0.26,0.162,0.407C223.626,176.93,223.66,177.515,223.548,178.225
		C219.647,178.735,223.66,177.515,223.548,178.225z M208.819,170.958c-0.063-0.008-0.131-0.019-0.194-0.024v-0.002
		c-5.088-0.679-10.432,0.255-15.436-1.271c0.34-0.682,1.02-1.951,1.357-2.545c9.074-0.765,18.146-2.035,27.391-1.527
		c2.544,0.51,4.494,2.543,6.615,3.902C222.421,172.514,215.46,171.878,208.819,170.958
		C208.755,170.951,215.46,171.878,208.819,170.958z M252.804,174.748c-0.02,0.004-0.037,0.008-0.057,0.013
		c-0.013,0.022-0.019,0.05-0.029,0.073c-6.868,1.271-13.313,4.326-20.352,4.494c0.17-1.865,0.256-3.814,0.256-5.683
		c0.023-0.017,0.057-0.039,0.084-0.058c0-0.008,0-0.02,0-0.027c0.738-0.492,2.276-1.542,3.142-2.068
		c0.254-2.106,0.506-4.133,0.675-6.156c5.682-0.254,11.025,1.867,16.621,2.461C253.23,170,253.908,172.542,252.804,174.748
		C252.785,174.751,253.908,172.542,252.804,174.748z"/>
	<path d="M160.539,81.089c-0.041,0.279-0.063,0.548-0.063,0.809c-0.045,3.827,3.835,5.732,6.683,7.711
		c2.971,0,5.206-1.477,6.637-3.601c1.838-2.73,2.338-6.528,1.336-9.629c-3.125-2.065-8.933-2.88-12.223-0.9
		c-0.055,0.032-0.104,0.069-0.154,0.103c-0.098,0.062-0.193,0.123-0.285,0.19c-0.139,0.103-0.279,0.212-0.405,0.33
		c-1.187,1.072-1.827,2.679-1.519,4.942C160.539,81.06,160.541,81.074,160.539,81.089C160.498,81.368,160.541,81.074,160.539,81.089
		z"/>
	<path d="M246.19,80.196c0.444-1.399,0.735-2.953,0.808-4.527c0.123-2.625-0.36-5.309-1.738-7.43
		c-1.95,0.594-3.901,1.102-5.938,1.526c-1.443,2.035-2.799,4.071-4.238,6.106c0.013,0.035,0.03,0.069,0.045,0.104
		C236.789,80.173,242.237,83.98,246.19,80.196C246.634,78.797,242.237,83.98,246.19,80.196z"/>
</g>
</svg>
