<?xml version="1.0" encoding="utf-8"?>
<!-- Generator: Adobe Illustrator 15.1.0, SVG Export Plug-In . SVG Version: 6.00 Build 0)  -->
<!DOCTYPE svg PUBLIC "-//W3C//DTD SVG 1.1//EN" "http://www.w3.org/Graphics/SVG/1.1/DTD/svg11.dtd">
<svg version="1.1"
	 id="Layer_1" xmlns:cc="http://creativecommons.org/ns#" xmlns:rdf="http://www.w3.org/1999/02/22-rdf-syntax-ns#" xmlns:dc="http://purl.org/dc/elements/1.1/"
	 xmlns="http://www.w3.org/2000/svg" xmlns:xlink="http://www.w3.org/1999/xlink" x="0px" y="0px" width="283.465px"
	 height="283.465px" viewBox="0 0 283.465 283.465" enable-background="new 0 0 283.465 283.465" xml:space="preserve">
<g>
	<path d="M110.931,100.858c5.88,5.792,18.126,11.814,25.442,15.411c3.479,1.71,5.08,2.521,5.852,3.059l0.294,0.167l0.239,0.192
		c0.326,0.217,0.22,0.676,0.222,0.726l-0.104,0.294l-0.123,0.343c-1.396,4.214-12.239,14.623-16.464,14.623
		c-34.667,0-41.88,19.995-42.454,21.785c1.522,17.005,13.164,33.127,30.4,42.03l-0.025,0.054c0.007,0.003,0.014,0.007,0.02,0.011
		l0.009-0.018c0.715,0.373,1.443,0.706,2.169,1.035c1.261,0.563,2.527,1.08,3.795,1.554c5.401,1.911,11.056,3.001,16.788,3.235
		c34.515,1.658,51.977-20.082,56.749-40.299c5.791-24.542-5.035-49.119-26.328-59.765l-2.521-1.261l2.795-0.364
		c1.965-0.256,3.967-0.385,5.949-0.385c8.471,0,16.651,2.311,23.85,6.669c-2.871-4.509-6.221-8.696-10.043-12.451l-0.385-0.375
		l0.021-0.067c-0.958-0.97-1.833-1.945-2.714-2.92c-0.662-0.557-1.317-1.128-2.002-1.657c-11.37-8.798-25.504-13.806-40.354-13.833
		c-1.563,0-3.078,0.128-4.606,0.232c0-0.007,0.002-0.015,0.002-0.021c-0.009,0.002-0.019,0.002-0.029,0.002c0-0.002,0-0.006,0-0.007
		c-0.003,0-0.007,0-0.01,0c-12.868,0.881-25.169,5.563-35.396,13.402c1.825,1.559,3.829,3.535,7.769,7.423L110.931,100.858z"/>
	<path d="M177.486,87.041c-12.842-18.367-13.43-36.69-11.202-49.755c1.663-9.757,5.165-18.146,8.51-24.007
		c-25.079,19.149-34.099,48.322-35.553,63.731c0.894-0.056,1.807-0.1,2.738-0.1C154.721,76.934,166.977,80.556,177.486,87.041z"/>
	<path d="M263.137,96.77l-0.016,0.017c-5.696-13.701-17.25-28.496-26.293-33.174c5.916,11.455,10.146,23.692,12.622,36.333
		c0.479,1.109,0.991,2.156,1.452,3.308c0.011,0.059,0.011,0.118,0.021,0.177l0.062,0.146c10.147,29.206,8.664,60.778-4.176,88.905
		c-14.47,31.043-49.676,64.207-105.092,64.207c-1.323,0-2.662-0.021-4.007-0.058c-61.935-1.735-116.265-47.911-126.538-107.489
		l-0.078-0.318c-0.097-0.45-0.167-0.938-0.241-1.42c1.137,71.521,59.5,129.102,131.264,128.975
		c39.781-0.068,75.938-17.996,100.119-46.738c14.52-17.262,24.723-38.414,28.802-61.947c0.224-1.691,0.399-3.366,0.601-5.075
		C274.335,140.304,271.412,117.669,263.137,96.77z"/>
	<path d="M96.461,88.24c-2.289-9.332-2.368-19.085-0.226-28.452c-10.806,5.487-20.341,12.853-28.382,21.927
		c5.522,0.067,19.754,0.774,27.792,6C95.929,87.895,96.201,88.072,96.461,88.24z"/>
	<path d="M12.623,147.548l0.185,0.942c9.98,58.953,63.696,104.703,124.948,106.42c56.936,1.561,92.904-31.863,107.487-63.146
		c11.524-25.248,13.766-53.318,6.514-79.874c0.896,25.905-12.106,52.273-35.856,71.941l-0.238,0.308
		c-25.723,20.951-50.311,25.348-66.41,25.353c-18.556,0-31.515-5.496-35.775-8.401c-0.528-0.236-1.174-0.559-1.817-0.895
		c-30.026-14.353-38.617-40.743-36.88-59.425c-13.228-0.172-25.313-7.997-30.876-20.03l-0.321-0.696l0.654-0.4
		c7.912-4.847,16.998-7.408,26.279-7.408c7.866,0,15.735,1.881,22.752,5.44c8.384,3.805,17.341,5.744,26.586,5.744
		c6.94,0,13.777-1.109,20.347-3.299c-1.126-0.605-2.875-1.465-4.585-2.306c-7.411-3.644-19.812-9.742-25.893-15.728l-1.194-1.177
		c-3.972-3.92-5.966-5.887-7.764-7.415c-1.066-0.901-2.179-1.745-3.306-2.503c-0.779-0.533-1.651-1.105-2.698-1.791
		c-8.383-5.45-24.649-5.726-27.826-5.726c-0.502,0-0.811,0.007-0.881,0.009l-0.432,0.012l-0.328-0.34
		c-4.912-6.225-5.07-25.051-4.788-32.018c-1.031,0.489-2.025,1.056-2.963,1.689c-4.512,3.221-8.783,6.88-12.678,10.864
		c-4.458,4.492-8.566,9.388-12.215,14.561c-8.402,11.905-14.273,25.158-17.45,39.391c-0.048,0.205-4.434,19.265-2.599,29.914
		L12.623,147.548z"/>
	<path d="M188.671,96.222l0.377,0.375l-0.021,0.059c4.643,4.625,8.627,9.854,11.854,15.552c0.688,0.526,1.332,1.044,1.885,1.552
		c0.09,0.082,0.168,0.166,0.256,0.249l0.222,0.203l-0.003,0.008c1.824,1.721,3.472,3.484,4.964,5.282
		c0.069,0.084,0.144,0.166,0.211,0.25c0.644,0.785,1.26,1.576,1.845,2.371c0.106,0.145,0.219,0.289,0.322,0.436
		c0.527,0.729,1.025,1.463,1.503,2.199c0.129,0.195,0.267,0.389,0.388,0.584c0.414,0.652,0.795,1.307,1.17,1.962
		c12.326,21.375,6.334,44.772,3.491,53.149c24.279-21.186,36.257-49.658,32.121-76.75c-8.743-21.738-21.104-35.76-34.192-50.605
		c-8.777-9.953-17.853-20.248-26.147-33.376c-1.047-1.649-2.093-3.301-3.104-5.047c-0.592-1.01-1.063-1.92-1.478-2.761
		c-0.79-1.539-1.422-3.163-1.877-4.828c-2.765,2.063-10.792,14.297-13.58,30.409C166.251,52.645,167.555,75.13,188.671,96.222z"/>
</g>
</svg>
