<?xml version="1.0" encoding="utf-8"?>
<!-- Generator: Adobe Illustrator 15.1.0, SVG Export Plug-In . SVG Version: 6.00 Build 0)  -->
<!DOCTYPE svg PUBLIC "-//W3C//DTD SVG 1.1//EN" "http://www.w3.org/Graphics/SVG/1.1/DTD/svg11.dtd">
<svg version="1.1" id="Layer_1" xmlns="http://www.w3.org/2000/svg" xmlns:xlink="http://www.w3.org/1999/xlink" x="0px" y="0px"
	 width="283.465px" height="283.465px" viewBox="0 0 283.465 283.465" enable-background="new 0 0 283.465 283.465"
	 xml:space="preserve">
<g>
	<path d="M248.71,71.685l6.327-15.502c0,0-8.052-8.611-17.831-18.372c-9.776-9.76-30.481-4.02-30.481-4.02L183.143,7.086h-41.41
		h-0.002h-41.41L76.738,33.792c0,0-20.706-5.741-30.483,4.02c-9.777,9.761-17.83,18.372-17.83,18.372l6.327,15.502L26.7,94.651
		c0,0,23.683,89.539,26.456,100.474c5.465,21.532,9.204,29.855,24.732,40.764c15.528,10.91,43.712,29.855,48.313,32.727
		c4.602,2.869,10.353,7.764,15.531,7.764c5.175,0,10.927-4.895,15.527-7.764c4.603-2.869,32.785-21.816,48.313-32.727
		c15.531-10.906,19.268-19.23,24.733-40.764c2.772-10.936,26.457-100.474,26.457-100.474L248.71,71.685z M176.396,195.328
		c-1.711,1.209-24.695,18.975-26.927,20.938c-0.284,0.254-0.586,0.523-0.901,0.81c-2.151,1.933-4.894,4.399-6.834,4.399
		c-1.944,0-4.688-2.469-6.838-4.403c-0.313-0.281-0.615-0.554-0.9-0.806c-2.23-1.963-25.215-19.729-26.926-20.938
		c-1.709-1.205-2.854-3.418-0.977-4.591c1.452-0.908,5.294-2.884,10.708-5.668c1.59-0.819,3.313-1.703,5.147-2.655
		c8.104-4.185,18.208-7.744,19.784-7.744s11.677,3.561,19.782,7.744c1.842,0.952,3.566,1.84,5.157,2.659
		c5.41,2.784,9.248,4.756,10.7,5.664C179.25,191.91,178.105,194.123,176.396,195.328z M224.763,107.135
		c-0.643,0.625-1.308,1.268-1.972,1.972l-22.743,24.108c-0.225,0.239-0.476,0.491-0.743,0.757c-2.27,2.278-5.61,5.633-3.253,11.208
		c0.159,0.369,0.319,0.75,0.484,1.134c2.587,6.036,5.78,13.491,1.715,21.043c-4.322,8.034-11.727,13.396-16.473,12.509
		c-4.746-0.886-15.888-6.7-19.987-9.355c-4.097-2.653-17.085-13.348-17.085-17.439c0-3.41,9.341-9.088,13.878-11.845
		c0.904-0.549,1.617-0.982,2.028-1.259c0.468-0.314,1.251-0.8,2.215-1.398c4.143-2.569,11.622-7.208,11.811-9.265
		c0.231-2.536,0.144-3.28-3.196-9.545c-0.709-1.331-1.541-2.758-2.398-4.233c-3.179-5.46-6.74-11.575-5.953-15.955
		c0.891-4.945,8.652-7.779,15.226-10.181c0.82-0.3,1.625-0.593,2.394-0.883c1.918-0.723,4.33-1.624,6.847-2.566
		c6.565-2.454,13.857-5.182,15.062-5.735c1.665-0.766,1.235-1.496-3.808-1.973c-0.667-0.063-1.496-0.152-2.448-0.252
		c-6.242-0.663-17.753-1.884-23.352-0.327c-1.101,0.307-2.335,0.64-3.629,0.99c-6.288,1.699-13.994,3.783-14.734,4.984
		c-0.128,0.21-0.255,0.391-0.375,0.56c-0.709,1.005-1.171,1.661-0.389,5.932c0.235,1.271,0.713,3.773,1.309,6.866
		c1.736,9.056,4.445,23.181,4.788,26.354c0.046,0.444,0.101,0.873,0.15,1.284c0.435,3.541,0.724,5.897-3.396,6.836
		c-0.342,0.079-0.703,0.161-1.077,0.247c-4.647,1.064-11.461,2.625-13.922,2.625c-2.464,0-9.283-1.562-13.931-2.627
		c-0.371-0.085-0.73-0.167-1.07-0.245c-4.119-0.939-3.83-3.295-3.396-6.836c0.05-0.412,0.104-0.84,0.151-1.284
		c0.341-3.178,3.059-17.338,4.796-26.393c0.588-3.075,1.066-5.561,1.299-6.828c0.783-4.271,0.321-4.925-0.388-5.931
		c-0.121-0.17-0.247-0.351-0.375-0.561c-0.741-1.201-8.447-3.284-14.735-4.984c-1.293-0.349-2.527-0.684-3.629-0.99
		c-5.598-1.558-17.108-0.337-23.35,0.326c-0.954,0.1-1.784,0.188-2.45,0.252c-5.043,0.477-5.473,1.207-3.808,1.973
		c1.202,0.553,8.491,3.279,15.055,5.733c2.521,0.942,4.933,1.845,6.853,2.568c0.77,0.29,1.573,0.584,2.395,0.883
		c6.575,2.402,14.335,5.237,15.225,10.181c0.788,4.379-2.771,10.492-5.951,15.952c-0.858,1.476-1.69,2.904-2.399,4.236
		c-3.34,6.265-3.429,7.009-3.197,9.545c0.189,2.057,7.666,6.694,11.809,9.263c0.965,0.599,1.75,1.085,2.218,1.4
		c0.412,0.277,1.125,0.71,2.025,1.258c4.537,2.756,13.88,8.436,13.88,11.846c0,4.093-12.987,14.786-17.085,17.439
		c-4.099,2.655-15.24,8.471-19.986,9.355c-4.746,0.889-12.15-4.475-16.474-12.509c-4.064-7.552-0.872-15.003,1.713-21.041
		c0.165-0.384,0.327-0.763,0.484-1.136c2.36-5.573-0.984-8.93-3.253-11.208c-0.265-0.266-0.516-0.517-0.741-0.756
		c-1.245-1.319-7.375-7.816-13.063-13.847c-4.147-4.397-8.063-8.546-9.679-10.261c-0.665-0.704-1.329-1.348-1.972-1.972
		c-3.073-2.981-5.679-5.513-5.679-11.982c0-7.821,30.326-44.416,30.332-44.424c0.037,0.008,25.594,4.88,29.042,4.88c0,0,0,0,0.001,0
		h0.001c0.396,0,0.86-0.047,1.356-0.118c0.149-0.021,0.314-0.053,0.473-0.081c0.375-0.064,0.768-0.141,1.187-0.235
		c0.189-0.043,0.38-0.087,0.576-0.136c0.455-0.111,0.931-0.238,1.424-0.375c0.165-0.046,0.322-0.087,0.49-0.137
		c1.392-0.402,2.907-0.89,4.492-1.421c0.099-0.032,0.199-0.066,0.297-0.099c1.086-0.366,2.195-0.745,3.32-1.132
		c1.401-0.483,2.819-0.97,4.215-1.434c6.893-2.293,11.49-2.313,11.502-2.313c0.011,0,4.608,0.019,11.502,2.313
		c0.113,0.038,0.229,0.078,0.342,0.116c1.224,0.41,2.461,0.833,3.689,1.255c0.509,0.176,1.017,0.349,1.521,0.521
		c0.501,0.171,0.997,0.339,1.488,0.506c0.311,0.105,0.622,0.211,0.928,0.313c0.692,0.231,1.371,0.454,2.033,0.666
		c0.073,0.023,0.153,0.05,0.226,0.073c0.71,0.225,1.393,0.432,2.051,0.623c0.212,0.061,0.409,0.113,0.614,0.17
		c0.453,0.125,0.892,0.242,1.312,0.346c0.217,0.053,0.428,0.102,0.635,0.149c0.4,0.089,0.775,0.163,1.136,0.225
		c0.169,0.029,0.346,0.064,0.505,0.086c0.491,0.07,0.948,0.115,1.341,0.116c0.003,0,0.007,0.001,0.01,0.001h0.001
		c0.001,0,0.001,0,0.001,0c3.45,0,29.044-4.88,29.044-4.88s30.332,36.601,30.332,44.424
		C230.442,101.621,227.836,104.154,224.763,107.135z"/>
</g>
</svg>
