<?xml version="1.0" encoding="utf-8"?>
<!-- Generator: Adobe Illustrator 15.1.0, SVG Export Plug-In . SVG Version: 6.00 Build 0)  -->
<!DOCTYPE svg PUBLIC "-//W3C//DTD SVG 1.1//EN" "http://www.w3.org/Graphics/SVG/1.1/DTD/svg11.dtd">
<svg version="1.1" id="Layer_1" xmlns="http://www.w3.org/2000/svg" xmlns:xlink="http://www.w3.org/1999/xlink" x="0px" y="0px"
	 width="283.465px" height="283.465px" viewBox="1108.268 1085.767 283.465 283.465"
	 enable-background="new 1108.268 1085.767 283.465 283.465" xml:space="preserve">
<g>
	<path fill="none" d="M1302.596,1100.267c0.916-0.558,1.78-0.985,2.596-1.298
		C1303.629,1099.524,1302.596,1100.267,1302.596,1100.267z"/>
	<path fill="#2489CA" d="M1312.063,1352.719c0.545-0.883,0.649-1.845,0.654-1.899v-59.18l-167.832-127.067l-0.118-0.103
		c-0.943-0.818-1.547-0.818-1.746-0.818c-1.139,0-2.404,1.056-2.556,1.215l-0.132,0.139l-0.143,0.128l-18.471,16.517l-0.099,0.079
		c-1.672,1.342-2.114,2.286-2.114,2.597c0,0.263,0.374,0.742,0.647,0.979l0.279,0.181l0.094,0.127l186.341,169.202
		C1310.78,1354.8,1311.744,1353.234,1312.063,1352.719z"/>
	<path fill="#1070B3" d="M1195.924,1260.453l-34.863-31.659l-3.514,3.194l-40.196,36.544c0,0-4.492,3.342,0,9.312l20.293,18.459
		c0,0,4.82,5.176,11.941-0.712l42.508-32.233L1195.924,1260.453z"/>
	<path fill="#0877B9" d="M1195.924,1197.354l41.875,31.769l3.979-3.039l75.662-57.774v-61.634
		c-3.306-9.212-8.954-8.876-12.248-7.707c-0.815,0.313-1.68,0.74-2.596,1.298l-103.082,93.819L1195.924,1197.354z"/>
	<path fill="#3C99D4" d="M1384.592,1319.746v-183.821c0-8.08-8.271-10.873-8.271-10.873l-54.144-26.1
		c-11.831-7.312-19.582,1.315-19.582,1.315s1.033-0.743,2.596-1.298c3.294-1.17,8.942-1.505,12.248,7.707v61.634v115.058v66.366
		c0,1.671-0.356,3.313-1.068,4.793c-1.424,2.876-4.519,5.56-11.94,4.437l0.521,0.575c3.244,3.32,6.966,3.569,8.926,3.415
		c0.853-0.067,1.371-0.211,1.371-0.211l62.47-30.782C1385.715,1326.51,1384.592,1319.746,1384.592,1319.746z"/>
</g>
</svg>
