<?xml version="1.0" encoding="utf-8"?>
<!-- Generator: Adobe Illustrator 15.1.0, SVG Export Plug-In . SVG Version: 6.00 Build 0)  -->
<!DOCTYPE svg PUBLIC "-//W3C//DTD SVG 1.1//EN" "http://www.w3.org/Graphics/SVG/1.1/DTD/svg11.dtd">
<svg version="1.1" id="Layer_1" xmlns="http://www.w3.org/2000/svg" xmlns:xlink="http://www.w3.org/1999/xlink" x="0px" y="0px"
	 width="283.465px" height="283.465px" viewBox="0 0 283.465 283.465" enable-background="new 0 0 283.465 283.465"
	 xml:space="preserve">
<g id="Icons">
	<g id="Color-" transform="translate(-805.000000, -1043.000000)">
		<path id="Evernote" d="M1001.674,1177.463c-3.621-0.125-7.107,0.102-10.361,0.623c0.914-7.414,3.967-16.52,14.771-16.14
			c11.961,0.421,13.637,11.765,13.678,19.456C1014.715,1179.137,1008.471,1177.708,1001.674,1177.463 M1052.82,1096.938
			c-2.004-10.746-8.365-16.039-14.123-18.118c-6.203-2.255-18.793-4.585-34.609-6.463c-12.725-1.498-27.678-1.38-36.713-1.103
			c-1.082-7.455-6.287-14.264-12.121-16.619c-15.524-6.278-39.522-4.764-45.674-3.031c-4.895,1.373-10.318,4.191-13.336,8.525
			c-2.02,2.896-3.328,6.613-3.336,11.799c0,2.937,0.084,9.846,0.15,15.988c0.076,6.159,0.16,11.672,0.16,11.713
			c0,5.479-4.434,9.947-9.924,9.957h-25.172c-5.373,0-9.479,0.908-12.605,2.33c-3.145,1.439-5.364,3.366-7.059,5.646
			c-3.36,4.535-3.947,10.124-3.931,15.828c0,0,0.05,4.672,1.173,13.693c0.93,6.983,8.475,55.784,15.641,70.62
			c2.775,5.771,4.627,8.181,10.084,10.722c12.162,5.233,39.949,11.049,52.965,12.718c13,1.663,21.156,5.176,26.02-5.06
			c0.016-0.024,0.973-2.552,2.287-6.244c4.227-12.843,4.813-24.235,4.813-32.476c0-0.844,1.225-0.875,1.225,0
			c0,5.814-1.106,26.416,14.394,31.943c6.118,2.18,18.81,4.115,31.698,5.639c11.66,1.349,20.125,5.949,20.125,35.984
			c0,18.27-3.819,20.775-23.805,20.775c-16.203,0-22.379,0.422-22.379-12.496c0-10.443,10.293-9.35,17.912-9.35
			c3.41,0,0.938-2.541,0.938-8.986c0-6.414,3.99-10.115,0.22-10.209c-26.369-0.732-41.887-0.033-41.887,33.072
			c0,30.059,11.458,35.639,48.875,35.639c29.349,0,39.689-0.967,51.803-38.701c2.396-7.457,8.197-30.186,11.701-68.367
			C1060.549,1188.176,1056.24,1115.325,1052.82,1096.938 M856.941,1102.249h0.018h25.17c1.441,0,2.605-1.188,2.605-2.617
			c0-0.008-0.301-21.67-0.301-27.694v-0.076c0-4.948,1.031-9.256,2.832-12.875l0.865-1.614c-0.102,0.008-0.193,0.059-0.293,0.15
			l-48.91,48.699c-0.092,0.074-0.158,0.186-0.185,0.287c1.015-0.506,2.397-1.188,2.591-1.271
			C845.591,1103.299,850.755,1102.249,856.941,1102.249"/>
	</g>
</g>
</svg>
