<?xml version="1.0" encoding="utf-8"?>
<!-- Generator: Adobe Illustrator 15.1.0, SVG Export Plug-In . SVG Version: 6.00 Build 0)  -->
<!DOCTYPE svg PUBLIC "-//W3C//DTD SVG 1.1//EN" "http://www.w3.org/Graphics/SVG/1.1/DTD/svg11.dtd">
<svg version="1.1" id="Layer_1" xmlns="http://www.w3.org/2000/svg" xmlns:xlink="http://www.w3.org/1999/xlink" x="0px" y="0px"
	 width="283.465px" height="283.465px" viewBox="0 0 283.465 283.465" enable-background="new 0 0 283.465 283.465"
	 xml:space="preserve">
<g id="Icons">
	<g id="Color-" transform="translate(-400.000000, -1043.000000)">
		<g id="chrome" transform="translate(400.000000, 1043.000000)">
			<path id="chrome-icon-path" d="M39.6,53.996c62.594-72.849,178.65-58.469,222.037,26.625c-30.541,0.01-78.367-0.01-104.27,0
				c-18.787,0.006-30.918-0.421-44.055,6.494c-15.441,8.129-27.094,23.198-31.162,40.896L39.6,53.996L39.6,53.996z"/>
			<path id="chrome-icon-path_1_" d="M96.936,141.727c0,24.689,20.076,44.775,44.75,44.775c24.676,0,44.75-20.086,44.75-44.775
				c0-24.688-20.074-44.773-44.75-44.773C117.012,96.953,96.936,117.039,96.936,141.727L96.936,141.727z"/>
			<path id="chrome-icon-path_2_" d="M159.055,200.334c-25.117,7.465-54.51-0.813-70.611-28.604
				C76.154,150.516,43.682,93.946,28.922,68.225c-51.691,79.229-7.141,187.195,86.703,205.623L159.055,200.334L159.055,200.334z"/>
			<path id="chrome-icon-path_3_" d="M183.256,96.953c20.92,19.457,25.479,50.963,11.307,75.393
				c-10.676,18.406-44.75,75.916-61.264,103.766c96.688,5.961,167.172-88.803,135.334-179.158H183.256L183.256,96.953z"/>
		</g>
	</g>
</g>
</svg>
