<?xml version="1.0" encoding="utf-8"?>
<!-- Generator: Adobe Illustrator 15.1.0, SVG Export Plug-In . SVG Version: 6.00 Build 0)  -->
<!DOCTYPE svg PUBLIC "-//W3C//DTD SVG 1.1//EN" "http://www.w3.org/Graphics/SVG/1.1/DTD/svg11.dtd">
<svg version="1.1" id="Layer_1" xmlns="http://www.w3.org/2000/svg" xmlns:xlink="http://www.w3.org/1999/xlink" x="0px" y="0px"
	 width="283.46px" height="283.46px" viewBox="0 0 283.46 283.46" enable-background="new 0 0 283.46 283.46" xml:space="preserve">
<path fill="#010101" d="M57.882,54.688c8.375,6.805,11.518,6.286,27.246,5.236l148.277-8.903c3.146,0,0.53-3.137-0.519-3.659
	l-24.626-17.803c-4.719-3.663-11.005-7.858-23.054-6.809L41.63,33.222c-5.236,0.519-6.282,3.137-4.197,5.236L57.882,54.688z
	 M66.785,89.244v156.013c0,8.385,4.19,11.521,13.62,11.003l162.957-9.43c9.436-0.519,10.486-6.285,10.486-13.097V78.767
	c0-6.8-2.616-10.467-8.392-9.944L75.165,78.767C68.88,79.295,66.784,82.438,66.785,89.244L66.785,89.244z M227.655,97.612
	c1.044,4.717,0,9.429-4.726,9.959l-7.852,1.564v115.18c-6.817,3.663-13.104,5.758-18.342,5.758c-8.387,0-10.487-2.619-16.77-10.468
	l-51.358-80.626v78.008l16.252,3.667c0,0,0,9.419-13.112,9.419l-36.146,2.097c-1.05-2.097,0-7.327,3.667-8.375l9.433-2.614V118.039
	l-13.096-1.05c-1.051-4.716,1.565-11.517,8.906-12.045l38.777-2.614l53.448,81.675v-72.252l-13.628-1.564
	c-1.045-5.766,3.141-9.953,8.381-10.472L227.655,97.612z M29.575,19.087L178.918,8.089c18.34-1.573,23.059-0.52,34.586,7.854
	l47.672,33.507c7.866,5.762,10.488,7.331,10.488,13.611V246.83c0,11.518-4.196,18.329-18.864,19.371L79.367,276.674
	c-11.011,0.525-16.252-1.044-22.019-8.378l-35.106-45.549c-6.29-8.385-8.906-14.657-8.906-21.996V37.405
	C13.336,27.986,17.533,20.13,29.575,19.087z"/>
</svg>
