<?xml version="1.0" encoding="utf-8"?>
<!-- Generator: Adobe Illustrator 15.1.0, SVG Export Plug-In . SVG Version: 6.00 Build 0)  -->
<!DOCTYPE svg PUBLIC "-//W3C//DTD SVG 1.1//EN" "http://www.w3.org/Graphics/SVG/1.1/DTD/svg11.dtd">
<svg version="1.1" id="Layer_1" xmlns="http://www.w3.org/2000/svg" xmlns:xlink="http://www.w3.org/1999/xlink" x="0px" y="0px"
	 width="283.465px" height="283.465px" viewBox="0 0 283.465 283.465" enable-background="new 0 0 283.465 283.465"
	 xml:space="preserve">
<g>
	<path fill="#231F20" d="M196.678,188.88c23.929-16.847,111.832-25.396,71.302-65.929L163.713,16.244
		c-12.94-12.21-34.186-12.21-46.149,0L16.96,119.288c-38.094,38.096,24.661,34.919,47.371,49.327
		c10.5,6.838-33.697,15.625-24.663,24.662c8.791,9.033,52.986,17.34,61.777,26.127c2.023,2.08,2.158,4.188,1.293,6.309
		c-2.382,4.566-8.97,9.195-11.024,13.762c-1.455,2.531-1.717,5.045,0.694,7.523c8.547,9.033,29.059,0.488,32.722,21.002
		c2.685,15.139,37.601,7.566,53.23-5.373c2.271-1.932,2.563-3.408,1.803-4.66c-0.25-3.732-9.963-5.369-11.655-9.129
		c-0.048-1.018,0.463-2.178,1.797-3.551c21.976-22.221,41.508-10.012,49.568-30.521c1.148-2.875-0.585-5.527-3.577-8.012
		c-5.27-4.775-15.623-8.904-19.9-12.695C194.625,192.27,194.31,190.555,196.678,188.88z M194.72,196.5
		c2.433,2.261,5.729,4.089,9.223,6.027l0.812,0.451c3.569,1.985,7.617,4.235,10.019,6.322c1.085,0.945,1.938,1.963,2.291,2.719
		c0.334,0.728,0.354,1.045,0.089,1.696c-1.674,4.256-3.731,6.925-6.881,8.905c-2.812,1.775-6.54,2.846-10.771,3.969l-0.637,0.166
		c-8.683,2.291-19.492,5.145-30.678,16.461c-1.521,1.561-2.347,3.031-2.587,4.625c-0.232,1.574,0.255,3.396,1.253,4.654
		c1.626,2.053,3.67,3.035,5.647,3.99l0.865,0.424c1.988,0.984,3.121,1.746,3.516,2.029l0.509,0.359l-0.38,0.49
		c-0.145,0.211-0.201,0.264-0.547,0.557c-7.079,5.857-19.404,11.025-29.984,12.57c-2.174,0.324-4.286,0.484-6.281,0.484
		c-2.712,0-5.117-0.307-6.96-0.879c-3.336-1.043-4.751-2.412-5.218-5.047c-0.943-5.273-3.171-9.563-6.441-12.395
		c-3.294-2.855-7.22-4.041-10.277-4.756c-1.744-0.406-3.441-0.74-5.053-1.059c-5.002-0.986-9.318-1.838-11.652-4.303
		c-0.845-0.867-0.952-1.285-1-1.717c-0.059-0.51,0.089-1.135,0.438-1.855c0.722-1.494,2.548-3.551,5.068-6.186l0.53-0.553
		c2.06-2.141,4.187-4.355,5.543-7.154c0.856-1.766,1.196-3.475,1.011-5.086c-0.204-1.766-1.147-3.594-2.657-5.145
		c-2.826-2.824-6.96-4.773-13.144-7.186c-5.091-1.989-11.132-3.942-16.977-5.833l-1.99-0.644c-7.098-2.303-13.393-4.371-18.58-6.425
		c-4.783-1.896-8.997-4.124-10.777-5.69l-0.143,0.015h-0.784l0.165-0.603c-0.059-0.209-0.101-0.463,0.073-0.7l0.18-0.242
		l0.314-0.015c0.263-0.321,0.628-0.711,1.125-1.108c2.145-1.741,6.193-3.757,10.875-6.026l1.273-0.613
		c3.882-1.871,7.547-3.641,10.3-5.733c1.509-1.147,2.902-2.36,3.364-4.603c0.231-1.115,0.023-2.418-0.542-3.396
		c-0.506-0.873-1.244-1.609-2.327-2.314c-6.248-3.957-14.495-6.408-23.105-8.773l-3.892-1.059c-7.4-2.004-14.386-3.898-19.912-6.217
		c-3.371-1.414-6.094-2.98-7.869-4.527c-1.821-1.584-2.776-3.15-3.099-5.083c-0.53-3.183,0.947-9.085,11.001-19.143l100.57-103.006
		c5.152-5.258,12.68-8.27,20.652-8.27c8.064,0,15.636,2.932,21.316,8.25l104.258,106.696c4.524,4.526,7.499,8.786,8.836,12.663
		c1.158,3.355,1.104,6.172-0.166,9.131c-2.199,5.107-8.872,10.385-19.299,15.26c-8.646,4.046-18.993,7.621-29.005,11.08
		l-3.562,1.229c-10.248,3.557-20.844,7.23-27.699,12.059c-1.526,1.08-3.104,3.027-2.951,5.27
		C192.152,193.836,193.396,195.268,194.72,196.5z"/>
	<path fill="#231F20" d="M222.258,173.246l3.561-1.229c9.98-3.451,20.303-7.015,28.891-11.031
		c10.155-4.754,16.623-9.818,18.703-14.65c1.146-2.664,1.188-5.214,0.137-8.268c-1.277-3.702-4.151-7.809-8.553-12.209
		L160.831,19.251c-5.519-5.169-12.798-7.984-20.557-7.984c-7.653,0-14.869,2.881-19.794,7.909L19.906,122.183
		C9.693,132.396,8.837,137.906,9.234,140.285c0.273,1.639,1.106,2.986,2.703,4.377c1.683,1.465,4.292,2.961,7.547,4.322
		c5.451,2.289,12.401,4.174,19.762,6.166l3.894,1.063c8.702,2.393,17.045,4.869,23.437,8.924c1.252,0.814,2.113,1.68,2.715,2.721
		c0.706,1.224,0.966,2.851,0.678,4.238c-0.546,2.648-2.181,4.078-3.812,5.316c-2.851,2.172-6.57,3.961-10.508,5.861l-1.269,0.614
		c-4.445,2.154-8.603,4.222-10.643,5.878c-0.369,0.297-0.653,0.586-0.865,0.838c1.555,1.315,5.198,3.403,10.401,5.463
		c5.152,2.039,11.429,4.102,18.507,6.397l1.989,0.646c5.862,1.896,11.922,3.854,17.045,5.854c6.333,2.473,10.581,4.482,13.561,7.459
		c1.701,1.75,2.761,3.822,2.995,5.852c0.211,1.846-0.167,3.775-1.125,5.75c-1.439,2.971-3.634,5.254-5.759,7.461l-0.528,0.553
		c-2.11,2.207-4.161,4.443-4.854,5.875c-0.326,0.676-0.343,1.037-0.324,1.193c0.022,0.195,0.044,0.377,0.598,0.947
		c2.152,2.27,6.296,3.092,11.096,4.037c1.622,0.316,3.331,0.656,5.093,1.068c3.186,0.742,7.293,1.986,10.788,5.012
		c3.481,3.016,5.844,7.541,6.834,13.09c0.384,2.17,1.494,3.205,4.396,4.113c1.727,0.539,4.006,0.824,6.601,0.824
		c1.938,0,3.992-0.156,6.105-0.463c10.331-1.506,22.344-6.523,29.278-12.219c-0.565-0.361-1.473-0.895-2.749-1.529l-0.854-0.416
		c-1.998-0.969-4.269-2.061-6.067-4.328c-0.946-1.197-1.835-3.291-1.494-5.576c0.278-1.852,1.204-3.533,2.912-5.287
		c11.42-11.553,22.873-14.576,31.229-16.781l0.636-0.168c4.137-1.092,7.773-2.139,10.441-3.82c2.912-1.838,4.827-4.33,6.399-8.336
		c0.133-0.33,0.133-0.33-0.062-0.754c-0.219-0.471-0.854-1.33-1.987-2.313c-2.308-2.006-6.295-4.229-9.819-6.188l-0.806-0.449
		c-3.559-1.974-6.917-3.838-9.46-6.197c-1.431-1.332-2.918-3.035-3.086-5.588c-0.191-2.732,1.66-5.061,3.455-6.328
		C201.256,180.529,211.932,176.83,222.258,173.246z M179.084,61.409l-3.907,23.684l-16.362-8.79l-26.616,16.849l-8.791-35.407
		l-14.161,30.766l-35.407-0.246c-6.837,0-5.862-7.08,1.221-14.162c13.918-15.385,41.022-41.512,49.569-50.548
		c8.791-9.03,24.173-8.788,32.966,0.002l39.802,40.536c3.661,3.664,3.661,11.233,1.464,13.432L179.084,61.409z"/>
</g>
</svg>
