<?xml version="1.0" encoding="utf-8"?>
<!-- Generator: Adobe Illustrator 15.1.0, SVG Export Plug-In . SVG Version: 6.00 Build 0)  -->
<!DOCTYPE svg PUBLIC "-//W3C//DTD SVG 1.1//EN" "http://www.w3.org/Graphics/SVG/1.1/DTD/svg11.dtd">
<svg version="1.1" id="Layer_1" xmlns:serif="http://www.serif.com/"
	 xmlns="http://www.w3.org/2000/svg" xmlns:xlink="http://www.w3.org/1999/xlink" x="0px" y="0px" width="283.46px"
	 height="283.46px" viewBox="0 0 283.46 283.46" enable-background="new 0 0 283.46 283.46" xml:space="preserve">
<g>
	<path fill="#010001" d="M99.438,142.263c0.144-22.775,18.68-41.221,41.49-41.221c22.899,0,41.49,18.59,41.49,41.49
		c0,22.898-18.591,41.491-41.49,41.491c-22.814,0-41.353-18.455-41.49-41.238c0.135,21.512,17.642,38.932,39.185,38.932
		c21.626,0,39.185-17.557,39.185-39.185c0-21.626-17.559-39.185-39.185-39.185c-21.628,0-39.187,17.559-39.187,39.185
		L99.438,142.263z"/>
	<g>
		<path fill="#010001" d="M60.171,138.901l-0.129-0.002l-0.013,0.009c-2.185,0.133-2.265,1.879-1.762,3.624
			c-0.503,1.746-0.423,3.49,1.762,3.626l0.013,0.009l0.129-0.005l0.137,0.005h26.405c2.004,0,3.633-1.629,3.633-3.635
			c0-2.006-1.629-3.633-3.633-3.633H60.308L60.171,138.901z"/>
		<path fill="#010001" d="M195.272,138.901l-0.128-0.002l-0.014,0.009c-2.185,0.133-2.266,1.879-1.76,3.624
			c-0.506,1.746-0.423,3.49,1.76,3.626l0.014,0.009l0.128-0.005l0.138,0.005h26.405c2.006,0,3.633-1.629,3.633-3.635
			c0-2.006-1.627-3.633-3.633-3.633H195.41L195.272,138.901z"/>
	</g>
	<g>
		<path fill="#010001" d="M137.298,223.289l-0.004,0.129l0.011,0.014c0.133,2.184,1.877,2.266,3.624,1.762
			c1.745,0.504,3.491,0.422,3.624-1.762l0.012-0.014l-0.005-0.129l0.005-0.137v-26.404c0-2.006-1.629-3.635-3.635-3.635
			s-3.635,1.629-3.635,3.635v26.404L137.298,223.289z"/>
		<path fill="#010001" d="M140.588,90.181l0.34-0.089c1.745,0.504,3.491,0.423,3.624-1.762l0.012-0.013l-0.005-0.128l0.005-0.137
			V61.645c0-2.006-1.629-3.632-3.635-3.632s-3.635,1.626-3.635,3.632v26.406l0.004,0.137l-0.004,0.128l0.011,0.013
			C137.429,90.373,138.962,90.576,140.588,90.181z"/>
	</g>
	<g>
		<path fill="#010001" d="M195.569,82.765l-0.016,0.002l-0.089,0.094l-0.099,0.094l-18.671,18.671c-1.418,1.417-1.418,3.722,0,5.14
			c1.42,1.417,3.722,1.417,5.139,0l18.672-18.671l0.094-0.098l0.094-0.089l0.002-0.015c1.452-1.64,0.275-2.933-1.316-3.81
			C198.501,82.49,197.208,81.315,195.569,82.765L195.569,82.765z"/>
		<path fill="#010001" d="M100.038,178.294l-0.015,0.005l-0.089,0.092l-0.1,0.096l-18.669,18.669c-1.419,1.42-1.419,3.723,0,5.14
			c1.417,1.419,3.72,1.419,5.14,0l18.669-18.669l0.096-0.101l0.094-0.087l0.002-0.018c1.45-1.64,0.272-2.931-1.317-3.807
			C102.969,178.023,101.678,176.847,100.038,178.294L100.038,178.294z"/>
	</g>
	<g>
		<path fill="#010001" d="M195.464,202.204l0.089,0.092l0.016,0.002c1.64,1.452,2.933,0.274,3.81-1.317
			c1.592-0.876,2.767-2.167,1.316-3.807l-0.002-0.018l-0.094-0.087l-0.094-0.101l-18.672-18.671c-1.417-1.417-3.719-1.417-5.139,0
			c-1.418,1.419-1.418,3.722,0,5.14l18.671,18.671L195.464,202.204z"/>
		<path fill="#010001" d="M99.934,106.672l0.089,0.094l0.015,0.002c1.64,1.45,2.931,0.275,3.81-1.317
			c1.589-0.876,2.767-2.169,1.317-3.809l-0.002-0.016l-0.094-0.089l-0.096-0.098L86.304,82.768c-1.419-1.417-3.722-1.417-5.14,0
			c-1.419,1.417-1.419,3.722,0,5.139l18.669,18.671L99.934,106.672L99.934,106.672z"/>
	</g>
</g>
</svg>
