<?xml version="1.0" encoding="utf-8"?>
<!-- Generator: Adobe Illustrator 15.1.0, SVG Export Plug-In . SVG Version: 6.00 Build 0)  -->
<!DOCTYPE svg PUBLIC "-//W3C//DTD SVG 1.1//EN" "http://www.w3.org/Graphics/SVG/1.1/DTD/svg11.dtd">
<svg version="1.1" id="Solar_Panel" xmlns="http://www.w3.org/2000/svg" xmlns:xlink="http://www.w3.org/1999/xlink" x="0px"
	 y="0px" width="283.465px" height="283.465px" viewBox="0 0 283.465 283.465" enable-background="new 0 0 283.465 283.465"
	 xml:space="preserve">
<g>
	<path d="M231.554,75.688l7.854,32.072c9.207-7.128,15.159-18.258,15.159-30.801c0-21.521-17.446-38.967-38.966-38.967
		c-16.843,0-31.146,10.706-36.59,25.666h38.013C224.768,63.658,231.116,68.99,231.554,75.688z"/>
	<path d="M220.725,32.553l-4.253-15.792c-0.201-0.777-1.513-0.777-1.72,0l-4.275,15.905c1.525-0.429,3.372-0.682,5.365-0.682
		C217.637,31.984,219.294,32.2,220.725,32.553z"/>
	<path d="M180.655,49.261c0.777-1.381,1.903-2.865,3.313-4.275c1.268-1.27,2.593-2.289,3.854-3.051l-14.176-8.159
		c-0.691-0.407-1.619,0.521-1.216,1.216L180.655,49.261z"/>
	<path d="M250.544,104.659c-0.779,1.379-1.906,2.863-3.314,4.273c-1.27,1.27-2.594,2.29-3.857,3.052l14.178,8.155
		c0.689,0.409,1.619-0.518,1.213-1.215L250.544,104.659z"/>
	<path d="M275.794,76.112l-15.897-4.276c0.424,1.526,0.677,3.372,0.677,5.365c0.004,1.795-0.215,3.452-0.57,4.886l15.795-4.258
		C276.57,77.63,276.573,76.318,275.794,76.112z"/>
	<path d="M250.622,49.187l8.158-14.179c0.405-0.689-0.52-1.617-1.216-1.213l-14.267,8.219c1.379,0.779,2.863,1.905,4.272,3.315
		C248.843,46.597,249.859,47.921,250.622,49.187z"/>
	<polygon points="186.752,195.185 239.128,195.185 231.911,166.427 183.69,166.427 	"/>
	<polygon points="173.052,166.427 93.319,166.427 90.26,195.185 176.113,195.185 	"/>
	<polygon points="98.226,120.337 94.445,155.852 171.926,155.852 168.148,120.337 	"/>
	<polygon points="41.574,109.761 88.715,109.761 91.54,83.214 46.831,83.214 	"/>
	<polygon points="79.624,195.185 82.684,166.427 30.354,166.427 24.659,195.185 	"/>
	<polygon points="99.35,109.761 167.023,109.761 164.197,83.214 102.176,83.214 	"/>
	<polygon points="83.81,155.852 87.589,120.337 39.48,120.337 32.447,155.852 	"/>
	<polygon points="174.836,83.214 177.661,109.761 217.694,109.761 211.033,83.214 	"/>
	<polygon points="220.35,120.337 178.787,120.337 182.565,155.852 229.261,155.852 	"/>
	<path d="M226.289,76.423c0-4.11-4.152-7.477-9.266-7.477H40.634c-5.113,0-9.282,3.366-9.282,7.477L7.087,201.969
		c0,4.126,4.155,7.48,9.283,7.48h14.051h12.17h173.38h11.351h20.43c5.123,0,9.285-3.359,9.285-7.48L226.289,76.423z
		 M187.315,200.472h-10.639h-86.98H79.062H18.221l6.741-34.045l2.095-10.575l7.033-35.515l2.094-10.576l6.305-31.835h49.615h10.636
		h60.896h10.638h40.888l7.987,31.835l2.112,8.423l9.449,37.667l2.654,10.575l8.542,34.045H187.315z"/>
	<path d="M159.616,248.451h-15.46v-28.057c0-2.189-1.774-3.967-3.965-3.967h-16.118c-2.191,0-3.967,1.776-3.967,3.967v28.057
		h-14.972c-2.191,0-3.966,1.776-3.966,3.967v10.903c0,2.188,1.774,3.966,3.966,3.966h54.482c2.19,0,3.968-1.775,3.968-3.966v-10.903
		C163.584,250.229,161.808,248.451,159.616,248.451z"/>
</g>
</svg>
