<?xml version="1.0" encoding="utf-8"?>
<!-- Generator: Adobe Illustrator 15.1.0, SVG Export Plug-In . SVG Version: 6.00 Build 0)  -->
<!DOCTYPE svg PUBLIC "-//W3C//DTD SVG 1.1//EN" "http://www.w3.org/Graphics/SVG/1.1/DTD/svg11.dtd">
<svg version="1.1" id="Layer_1" xmlns="http://www.w3.org/2000/svg" xmlns:xlink="http://www.w3.org/1999/xlink" x="0px" y="0px"
	 width="283.465px" height="283.465px" viewBox="0 0 283.465 283.465" enable-background="new 0 0 283.465 283.465"
	 xml:space="preserve">
<path fill-rule="evenodd" clip-rule="evenodd" d="M226.847,139.354c5.595,0,9.87-0.501,12.825-1.504
	c2.955-1.002,4.987-2.56,6.096-4.671c1.108-2.111,1.662-5.014,1.662-8.708c0-3.589-0.633-6.413-1.899-8.471
	c-1.268-2.059-3.483-3.563-6.65-4.513s-7.6-1.425-13.3-1.425h-15.676v29.292H226.847z M140.495,173.713
	c7.6,0,13.115-1.399,16.545-4.195c3.431-2.798,5.146-7.257,5.146-13.38v-28.816c0-6.123-1.716-10.583-5.146-13.379
	c-3.431-2.797-8.945-4.196-16.545-4.196s-13.115,1.399-16.545,4.196c-3.431,2.797-5.146,7.257-5.146,13.379v28.816
	c0,6.123,1.715,10.582,5.146,13.38C127.379,172.313,132.895,173.713,140.495,173.713z M225.896,92.329
	c14.884,0,25.519,2.586,31.904,7.758c6.386,5.172,9.579,13.406,9.579,24.7c0,7.812-1.267,14.039-3.8,18.683
	c-2.533,4.645-6.703,8.049-12.509,10.213s-13.67,3.245-23.591,3.245h-17.576v34.202h-19.791V92.329H225.896z M140.495,192.08
	c-13.3,0-23.539-3.088-30.717-9.264c-7.178-6.174-10.767-15.068-10.767-26.679v-28.816c0-11.611,3.589-20.504,10.767-26.68
	c7.178-6.175,17.417-9.262,30.717-9.262c13.299,0,23.539,3.087,30.716,9.262c7.179,6.175,10.767,15.068,10.767,26.68v28.816
	c0,11.61-3.588,20.505-10.767,26.679C164.033,188.992,153.794,192.08,140.495,192.08z M53.798,192.08
	c-11.928,0-21.19-2.612-27.788-7.839c-6.597-5.224-9.896-12.534-9.896-21.929v-3.642h19.95v2.534
	c0,8.972,6.069,13.458,18.208,13.458c10.978,0,16.467-3.272,16.467-9.817c0-2.321-0.501-4.195-1.504-5.62
	c-1.003-1.426-2.745-2.719-5.225-3.88c-2.481-1.161-6.149-2.428-11.004-3.8l-6.492-1.899c-7.811-2.218-13.881-4.565-18.208-7.046
	c-4.328-2.48-7.441-5.489-9.341-9.025c-1.9-3.536-2.85-7.943-2.85-13.221c0-5.7,1.504-10.741,4.512-15.121
	s7.283-7.785,12.825-10.212c5.542-2.428,12.06-3.642,19.554-3.642c11.4,0,20.188,2.744,26.362,8.233
	c6.175,5.489,9.263,13.353,9.263,23.591v1.425H68.681v-2.533c0-4.328-1.372-7.626-4.117-9.896s-6.544-3.404-11.4-3.404
	c-5.383,0-9.5,0.924-12.35,2.771c-2.85,1.847-4.275,4.407-4.275,7.679c0,2.217,0.554,4.012,1.663,5.384
	c1.108,1.373,3.008,2.612,5.7,3.721c2.691,1.108,6.993,2.56,12.904,4.354l7.917,2.375c9.078,2.745,15.781,6.307,20.109,10.688
	c4.328,4.38,6.492,9.842,6.492,16.387c0,9.288-3.352,16.599-10.054,21.93C74.565,189.415,65.409,192.08,53.798,192.08z
	 M276.393,16.191c0-5.03-4.077-9.107-9.106-9.107c-38.756,0-212.323,0-251.079,0c-5.029,0-9.106,4.078-9.106,9.107
	c0,28.747,0,222.332,0,251.078c0,5.03,4.077,9.107,9.106,9.107c38.756,0,212.323,0,251.079,0c5.029,0,9.106-4.077,9.106-9.107
	C276.393,238.522,276.393,44.938,276.393,16.191z"/>
</svg>
