<?xml version="1.0" encoding="utf-8"?>
<!-- Generator: Adobe Illustrator 15.1.0, SVG Export Plug-In . SVG Version: 6.00 Build 0)  -->
<!DOCTYPE svg PUBLIC "-//W3C//DTD SVG 1.0//EN" "http://www.w3.org/TR/2001/REC-SVG-20010904/DTD/svg10.dtd">
<svg version="1.0" id="Layer_1" xmlns="http://www.w3.org/2000/svg" xmlns:xlink="http://www.w3.org/1999/xlink" x="0px" y="0px"
	 width="283.46px" height="283.46px" viewBox="0 0 283.46 283.46" enable-background="new 0 0 283.46 283.46" xml:space="preserve">
<g>
	<path fill="none" d="M200.109,236.447c0.007-0.007-0.001,0,0.003-0.004C200.11,236.445,200.109,236.446,200.109,236.447
		l-0.039,0.041c0.001,0,0,0,0.001,0L200.109,236.447z"/>
	<path d="M128.003,81.287c-1.016-0.789-2.27-0.789-3.289,0l-43.821,33.958c-1.052-0.745-2.272-1.18-3.581-1.18h-41.33
		c-3.913,0-7.085,3.821-7.085,8.535v65.431c0,4.713,3.172,8.534,7.085,8.534h41.33c1.308,0,2.53-0.435,3.582-1.18l43.82,33.956
		c0.51,0.395,1.078,0.594,1.645,0.594c0.568,0,1.137-0.199,1.645-0.594c1.02-0.786,1.645-2.245,1.645-3.819V85.11
		C129.647,83.533,129.022,82.076,128.003,81.287z"/>
	<path d="M200.112,236.443c0.049-0.053-0.23,0.205-0.042,0.045l0.038-0.041C200.109,236.446,200.11,236.445,200.112,236.443z"/>
	<path d="M155.793,118.417c-4.073-4.07-10.687-4.07-14.761,0c-4.07,4.074-4.07,10.688,0,14.76c11.852,12.157,11.852,32.122,0,44.278
		c-4.07,4.072-4.07,10.686,0,14.758c4.075,4.072,10.688,4.072,14.761,0C176.171,171.835,176.171,138.795,155.793,118.417z"/>
	<path d="M214.829,59.384c-4.073-4.074-10.688-4.074-14.76,0c-4.073,4.073-4.073,10.685,0,14.758
		c44.002,44.665,44.021,117.606,0.043,162.301c-0.004,0.004,0.004-0.003-0.003,0.004l-0.038,0.041c-0.001,0,0,0-0.001,0
		l-0.001,0.002c-4.073,4.072-4.073,10.684,0,14.758c4.073,4.072,10.687,4.072,14.76,0
		C267.808,198.264,267.808,112.365,214.829,59.384z"/>
	<path d="M185.312,88.9c-4.074-4.074-10.687-4.074-14.759,0c-4.073,4.073-4.073,10.688,0,14.758
		c27.984,28.415,27.997,74.839,0.03,103.278c0.047-0.047-0.156,0.146-0.03,0.035c-4.073,4.072-4.073,10.686,0,14.758
		c4.072,4.072,10.685,4.072,14.759,0C221.991,185.05,221.991,125.581,185.312,88.9z"/>
</g>
</svg>
