<?xml version="1.0" encoding="utf-8"?>
<!-- Generator: Adobe Illustrator 15.1.0, SVG Export Plug-In . SVG Version: 6.00 Build 0)  -->
<!DOCTYPE svg PUBLIC "-//W3C//DTD SVG 1.0//EN" "http://www.w3.org/TR/2001/REC-SVG-20010904/DTD/svg10.dtd">
<svg version="1.0" id="Layer_1" xmlns="http://www.w3.org/2000/svg" xmlns:xlink="http://www.w3.org/1999/xlink" x="0px" y="0px"
	 width="283.46px" height="283.46px" viewBox="0 0 283.46 283.46" enable-background="new 0 0 283.46 283.46" xml:space="preserve">
<path d="M190.46,67.702c-1.016-0.789-2.27-0.789-3.289,0L143.35,101.66c-1.052-0.745-2.272-1.18-3.58-1.18H98.44
	c-3.913,0-7.085,3.821-7.085,8.535v65.431c0,4.713,3.172,8.534,7.085,8.534h41.33c1.308,0,2.529-0.435,3.581-1.18l43.82,33.956
	c0.51,0.395,1.078,0.594,1.645,0.594c0.568,0,1.137-0.199,1.645-0.594c1.02-0.786,1.645-2.245,1.645-3.819V71.525
	C192.105,69.948,191.48,68.491,190.46,67.702z"/>
</svg>
