<?xml version="1.0" encoding="utf-8"?>
<!-- Generator: Adobe Illustrator 15.1.0, SVG Export Plug-In . SVG Version: 6.00 Build 0)  -->
<!DOCTYPE svg PUBLIC "-//W3C//DTD SVG 1.1//EN" "http://www.w3.org/Graphics/SVG/1.1/DTD/svg11.dtd">
<svg version="1.1" id="Layer_1" xmlns="http://www.w3.org/2000/svg" xmlns:xlink="http://www.w3.org/1999/xlink" x="0px" y="0px"
	 width="283.46px" height="283.46px" viewBox="0 0 283.46 283.46" enable-background="new 0 0 283.46 283.46" xml:space="preserve">
<g>
	<path d="M153.17,65.811c0,2.176-3.544,3.94-7.913,3.94h-7.055c-4.37,0-7.912-1.764-7.912-3.94V11.024
		c0-2.176,3.542-3.94,7.912-3.94h7.055c4.369,0,7.913,1.764,7.913,3.94V65.811z"/>
	<path d="M96.137,79.958c1.539,1.539,0.28,5.293-2.81,8.382l-4.988,4.988c-3.09,3.09-6.842,4.347-8.381,2.809l-38.739-38.74
		c-1.539-1.539-0.282-5.292,2.809-8.381l4.988-4.988c3.089-3.089,6.843-4.348,8.382-2.809L96.137,79.958z"/>
	<path d="M65.811,130.29c2.176,0,3.94,3.544,3.94,7.914v7.055c0,4.37-1.764,7.912-3.94,7.912H11.025
		c-2.176,0-3.941-3.542-3.94-7.912v-7.055c0-4.369,1.764-7.914,3.94-7.914H65.811z"/>
	<path d="M79.958,187.323c1.539-1.539,5.293-0.28,8.382,2.81l4.988,4.987c3.09,3.091,4.348,6.843,2.809,8.383l-38.74,38.739
		c-1.539,1.539-5.292,0.281-8.381-2.81l-4.988-4.987c-3.09-3.09-4.349-6.843-2.81-8.383L79.958,187.323z"/>
	<path d="M130.29,217.649c0-2.177,3.544-3.941,7.914-3.941h7.054c4.37,0,7.912,1.765,7.912,3.941v54.786
		c0,2.176-3.542,3.94-7.912,3.939h-7.054c-4.37,0.001-7.914-1.763-7.914-3.939V217.649z"/>
	<path d="M217.649,153.17c-2.177,0-3.941-3.545-3.941-7.914v-7.054c0-4.371,1.765-7.913,3.941-7.913h54.786
		c2.176,0,3.94,3.542,3.939,7.913v7.054c0.001,4.37-1.763,7.914-3.939,7.914H217.649z"/>
	<path d="M203.503,96.137c-1.54,1.539-5.294,0.279-8.384-2.81l-4.987-4.987c-3.091-3.09-4.347-6.843-2.809-8.382l38.739-38.739
		c1.54-1.539,5.292-0.283,8.382,2.809l4.987,4.987c3.091,3.09,4.35,6.843,2.811,8.383L203.503,96.137z"/>
</g>
</svg>
