<?xml version="1.0" encoding="utf-8"?>
<!-- Generator: Adobe Illustrator 15.1.0, SVG Export Plug-In . SVG Version: 6.00 Build 0)  -->
<!DOCTYPE svg PUBLIC "-//W3C//DTD SVG 1.1//EN" "http://www.w3.org/Graphics/SVG/1.1/DTD/svg11.dtd">
<svg version="1.1" id="Layer_2" xmlns="http://www.w3.org/2000/svg" xmlns:xlink="http://www.w3.org/1999/xlink" x="0px" y="0px"
	 width="283.465px" height="283.465px" viewBox="0 0 283.465 283.465" enable-background="new 0 0 283.465 283.465"
	 xml:space="preserve">
<g>
	<path fill="#231F20" d="M175.292,272.16c49.303-12.646,87.688-52.518,98.207-102.639
		C224.387,213.275,188.345,256.02,175.292,272.16z"/>
	<path fill="#231F20" d="M155.004,7.737c-4.367-0.427-8.793-0.651-13.271-0.651C74.42,7.086,18.646,56.481,8.675,121.001
		C25.518,113.8,93.045,81.75,155.004,7.737z"/>
	<path fill="#231F20" d="M273.255,155.939l2.59-2.262c0.348-3.938,0.533-7.92,0.533-11.946c0-65.686-47.04-120.377-109.27-132.247
		l-1.146,1.391C93.516,98.849,9.61,131.749,8.771,132.071l-1.37,0.526c-0.203,3.02-0.315,6.064-0.315,9.135
		c0,74.361,60.283,134.646,134.646,134.646c6.097,0,12.098-0.414,17.98-1.199l1.991-2.574
		C162.165,272.01,208.411,212.549,273.255,155.939z"/>
</g>
</svg>
