<?xml version="1.0" encoding="utf-8"?>
<!-- Generator: Adobe Illustrator 15.1.0, SVG Export Plug-In . SVG Version: 6.00 Build 0)  -->
<!DOCTYPE svg PUBLIC "-//W3C//DTD SVG 1.1//EN" "http://www.w3.org/Graphics/SVG/1.1/DTD/svg11.dtd">
<svg version="1.1" id="svg2" xmlns:svg="http://www.w3.org/2000/svg"
	 xmlns="http://www.w3.org/2000/svg" xmlns:xlink="http://www.w3.org/1999/xlink" x="0px" y="0px" width="283.465px"
	 height="283.465px" viewBox="0 0 283.465 283.465" enable-background="new 0 0 283.465 283.465" xml:space="preserve">
<g>
	<path d="M7.087,141.732c0,74.244,60.4,134.646,134.646,134.646s134.646-60.402,134.646-134.646S215.976,7.086,141.731,7.086
		S7.087,67.488,7.087,141.732z M25.831,93c-0.002,0.004-0.003,0.006-0.005,0.01c-1.406,3.859-3.6,6.75-4.897,6.457
		s-1.21-3.659,0.196-7.52c0.002-0.004,0.003-0.007,0.004-0.011c1.407-3.858,3.6-6.749,4.896-6.456
		C27.324,85.775,27.236,89.141,25.831,93z M30.91,95.66c2.803,0.721,3.854,6.076,2.352,11.965c-0.001,0.006-0.003,0.012-0.004,0.019
		c-1.504,5.888-4.995,10.077-7.798,9.356c-2.804-0.72-3.855-6.076-2.353-11.965c0.001-0.006,0.003-0.012,0.004-0.018
		C24.615,99.131,28.106,94.941,30.91,95.66z M248.983,123.955c0.002,0.006,0.002,0.012,0.004,0.019
		c0.973,6.118-1.855,11.649-6.313,12.356c-4.461,0.707-8.863-3.68-9.838-9.798c0-0.006-0.002-0.012-0.002-0.019
		c-0.974-6.118,1.854-11.65,6.312-12.357C243.606,113.451,248.011,117.836,248.983,123.955z M239.003,103.328
		c-2.496,0.616-5.561-3.063-6.842-8.218c-0.002-0.005-0.004-0.011-0.005-0.017c-1.282-5.154-0.299-9.836,2.197-10.452
		c2.497-0.617,5.562,3.062,6.844,8.217c0,0.005,0.003,0.011,0.003,0.017C242.483,98.03,241.499,102.711,239.003,103.328z
		 M242.468,149.707c-0.004,6.371-3.164,11.532-7.061,11.527c-3.896-0.006-7.051-5.175-7.048-11.547c0-0.008,0-0.014,0-0.02
		c0.004-6.373,3.164-11.533,7.06-11.527c3.896,0.005,7.053,5.175,7.049,11.547C242.468,149.694,242.468,149.701,242.468,149.707z
		 M230.618,130.83c0,0.006,0.002,0.014,0.002,0.02c0.969,6.477-2.601,12.376-7.97,13.177c-5.37,0.8-10.507-3.802-11.474-10.278
		c-0.002-0.007-0.004-0.013-0.004-0.019c-0.967-6.478,2.601-12.377,7.971-13.179C224.513,119.752,229.649,124.354,230.618,130.83z
		 M222.812,108.316c-2.964,0.523-6.182-3.632-7.189-9.283c0-0.006,0-0.012-0.002-0.017c-1.008-5.652,0.579-10.658,3.543-11.183
		c2.963-0.525,6.182,3.631,7.188,9.282c0.001,0.007,0.001,0.011,0.003,0.017C227.36,102.785,225.774,107.791,222.812,108.316z
		 M124.271,127.235c0,0.009,0,0.015,0,0.021c-0.006,6.845-5.559,12.388-12.4,12.383c-6.845-0.006-12.388-5.559-12.382-12.402
		c0-0.007,0-0.014,0-0.021c0.007-6.842,5.56-12.385,12.401-12.381C118.733,114.84,124.276,120.393,124.271,127.235z
		 M108.352,109.567c-4.306,0.317-8.136-3.998-8.552-9.638c0-0.006-0.002-0.012-0.002-0.018c-0.418-5.64,2.736-10.468,7.041-10.783
		c4.308-0.316,8.137,3.998,8.554,9.638c0.001,0.006,0.002,0.012,0.002,0.017C115.811,104.422,112.659,109.25,108.352,109.567z
		 M133.898,156.907c-0.001,0.007-0.002,0.015-0.003,0.021c-0.979,6.773-6.977,11.513-13.398,10.586
		c-6.423-0.928-10.838-7.17-9.861-13.942c0-0.008,0.002-0.014,0.004-0.021c0.977-6.773,6.976-11.514,13.398-10.586
		C130.46,143.892,134.876,150.133,133.898,156.907z M128.021,134.297c0.007-6.844,5.558-12.387,12.401-12.381
		c6.843,0.006,12.387,5.558,12.381,12.4c0,0.007,0,0.014,0,0.021c-0.006,6.842-5.559,12.386-12.4,12.381
		c-6.844-0.006-12.388-5.559-12.382-12.401C128.021,134.311,128.021,134.303,128.021,134.297z M137.585,79.115
		c0-0.007,0-0.013,0-0.02c0.004-6.266,4.022-11.341,8.976-11.336c4.953,0.006,8.964,5.09,8.96,11.354c0,0.006,0,0.013,0,0.019
		c-0.004,6.267-4.021,11.342-8.977,11.336C141.593,90.465,137.581,85.381,137.585,79.115z M156.778,98.332
		c5.268,0.004,9.535,5.045,9.53,11.258c0,0.006,0,0.013,0,0.02c-0.005,6.213-4.278,11.246-9.546,11.24s-9.535-5.047-9.53-11.26
		c0-0.006,0-0.012,0-0.019C147.237,103.358,151.511,98.326,156.778,98.332z M161.472,80.788c0.004-6.214,4.277-11.246,9.546-11.24
		c5.269,0.005,9.534,5.045,9.53,11.26c0,0.006,0,0.012,0,0.019c-0.006,6.213-4.278,11.246-9.547,11.241
		c-5.269-0.006-9.535-5.047-9.529-11.26C161.472,80.8,161.472,80.794,161.472,80.788z M182.556,138.723
		c0.001,0.007,0.002,0.014,0.004,0.021c1.131,6.762-2.867,12.944-8.93,13.807c-6.063,0.863-11.893-3.92-13.022-10.685
		c-0.001-0.007-0.003-0.014-0.004-0.021c-1.13-6.764,2.866-12.944,8.929-13.809C175.595,127.176,181.427,131.959,182.556,138.723z
		 M178.794,184.941c0.002,0.006,0.002,0.012,0.002,0.016c0.569,5.399-3.346,10.237-8.744,10.808
		c-5.398,0.569-10.235-3.347-10.805-8.745c-0.002-0.005-0.002-0.01-0.004-0.016c-0.568-5.398,3.346-10.236,8.745-10.807
		S178.225,179.543,178.794,184.941z M152.999,171.481c-6.254-0.005-11.318-5.175-11.313-11.546c0-0.008,0-0.014,0-0.02
		c0.006-6.373,5.079-11.533,11.334-11.527c6.253,0.005,11.319,5.175,11.313,11.547c0,0.006,0,0.013,0,0.02
		C164.327,166.326,159.253,171.487,152.999,171.481z M147.253,183.223c-0.004,6.019-4.887,10.894-10.904,10.888
		c-6.018-0.005-10.893-4.887-10.889-10.905c0-0.006,0-0.012,0-0.018c0.006-6.02,4.889-10.895,10.905-10.889
		c6.019,0.004,10.894,4.889,10.888,10.906C147.253,183.211,147.253,183.217,147.253,183.223z M131.321,208.838
		c-0.001,0.004-0.002,0.01-0.003,0.016c-1.032,5.271-6.146,8.71-11.417,7.677c-5.271-1.032-8.71-6.146-7.677-11.417
		c0.001-0.006,0.002-0.011,0.003-0.016c1.031-5.271,6.145-8.711,11.417-7.678S132.354,203.565,131.321,208.838z M105.351,189.385
		c-5.881-0.489-10.241-5.752-9.742-11.754c0.001-0.006,0.001-0.012,0.001-0.019c0.5-6.002,5.671-10.472,11.55-9.981
		c5.881,0.488,10.242,5.75,9.743,11.754c0,0.006-0.001,0.012-0.002,0.018C116.402,185.404,111.231,189.873,105.351,189.385z
		 M93.143,160.754c-5.874-0.553-10.118-6.522-9.479-13.336c0.001-0.008,0.002-0.015,0.003-0.021
		c0.638-6.813,5.917-11.891,11.792-11.338c5.873,0.553,10.119,6.521,9.479,13.337c0,0.007-0.001,0.013-0.002,0.021
		C104.298,156.23,99.017,161.307,93.143,160.754z M81.938,134.215c-5.158-1.392-7.896-7.877-6.118-14.483
		c0.001-0.006,0.004-0.013,0.006-0.021c1.778-6.607,7.403-10.836,12.562-9.444c5.158,1.391,7.898,7.875,6.119,14.483
		c-0.002,0.006-0.004,0.014-0.006,0.021C92.722,131.377,87.098,135.606,81.938,134.215z M76.547,145.492
		c-0.001,0.006-0.003,0.014-0.004,0.02c-1.576,6.66-7.043,11.064-12.211,9.841c-5.167-1.226-8.078-7.617-6.502-14.276
		c0.001-0.007,0.003-0.014,0.005-0.021c1.576-6.658,7.042-11.063,12.21-9.838C75.212,132.44,78.124,138.832,76.547,145.492z
		 M51.863,115.721c0.001-0.006,0.003-0.012,0.006-0.02c1.419-6.182,6.462-10.298,11.263-9.193c4.8,1.104,7.54,7.014,6.12,13.195
		c-0.001,0.006-0.003,0.012-0.004,0.02c-1.421,6.182-6.463,10.298-11.265,9.191C53.183,127.811,50.442,121.903,51.863,115.721z
		 M55.968,91.392c0-0.005,0.001-0.011,0.002-0.017c0.509-5.185,4.104-9.073,8.032-8.686c3.927,0.388,6.697,4.904,6.188,10.089
		c-0.001,0.005-0.001,0.011-0.001,0.017c-0.51,5.185-4.105,9.072-8.033,8.686C58.229,101.092,55.458,96.576,55.968,91.392z
		 M69.04,72.437c0-0.006,0.001-0.01,0.001-0.015c0.446-4.548,3.602-7.959,7.046-7.619c3.444,0.341,5.877,4.304,5.43,8.851
		c0,0.005-0.001,0.009-0.001,0.014c-0.446,4.548-3.602,7.959-7.047,7.619S68.594,76.984,69.04,72.437z M83.126,85.334
		c4.912,0.006,8.892,4.474,8.887,9.979c0,0.005,0,0.011,0,0.017c-0.004,5.506-3.988,9.967-8.901,9.963
		c-4.912-0.006-8.891-4.473-8.887-9.979c0-0.005,0-0.011,0-0.017C74.228,89.791,78.215,85.33,83.126,85.334z M88.923,70.813
		c0.004-5.508,3.99-9.968,8.901-9.962c4.912,0.004,8.892,4.472,8.888,9.978c0,0.006,0,0.012,0,0.017
		c-0.004,5.508-3.989,9.968-8.902,9.963c-4.911-0.005-8.891-4.473-8.887-9.979C88.923,70.824,88.923,70.818,88.923,70.813z
		 M113.929,40.058c4.877-0.482,9.221,3.079,9.703,7.955c0,0.006,0,0.011,0,0.016c0.482,4.877-3.08,9.221-7.955,9.702
		c-4.877,0.48-9.221-3.08-9.702-7.956c-0.001-0.006-0.001-0.011-0.002-0.016C105.491,44.882,109.054,40.539,113.929,40.058z
		 M130.091,74.283c0.002,0.005,0.002,0.011,0.002,0.016c0.418,5.642-2.734,10.47-7.041,10.785c-4.307,0.316-8.135-3.998-8.553-9.639
		c0-0.005-0.002-0.011-0.002-0.017c-0.416-5.641,2.736-10.469,7.043-10.784C125.845,64.328,129.675,68.643,130.091,74.283z
		 M131.861,92.244c4.952,0.006,8.964,5.09,8.96,11.354c0,0.006,0,0.013,0,0.019c-0.004,6.266-4.021,11.342-8.977,11.336
		c-4.95-0.006-8.963-5.089-8.959-11.354c0-0.008,0-0.014,0-0.02C122.89,97.315,126.909,92.24,131.861,92.244z M133.13,48.402
		c0.006-5.269,4.279-9.534,9.547-9.53c5.268,0.005,9.533,4.278,9.529,9.546c0,0.006,0,0.011,0,0.017
		c-0.004,5.269-4.277,9.534-9.545,9.529c-5.269-0.004-9.535-4.276-9.531-9.546C133.13,48.412,133.13,48.408,133.13,48.402z
		 M149.694,32.293c0.001-0.003,0.001-0.006,0.001-0.009c0.235-3.003,4.604-5.114,9.757-4.715c5.153,0.397,9.139,3.156,8.903,6.16
		c0,0.003,0,0.006-0.001,0.009c-0.234,3.003-4.604,5.113-9.756,4.714C153.446,38.054,149.46,35.295,149.694,32.293z M173.347,41.589
		c5.133,0.557,8.844,5.167,8.287,10.302c0,0.005,0,0.01-0.002,0.015c-0.555,5.133-5.166,8.844-10.299,8.287
		c-5.134-0.557-8.845-5.167-8.287-10.3c0-0.007,0-0.011,0-0.016C163.603,44.743,168.216,41.034,173.347,41.589z M192.406,111.957
		c0.001,0.006,0.003,0.012,0.003,0.019c1.065,6.067-2.445,11.754-7.841,12.7c-5.396,0.945-10.633-3.207-11.696-9.274
		c-0.002-0.006-0.004-0.012-0.004-0.019c-1.064-6.067,2.444-11.754,7.842-12.699C186.104,101.738,191.343,105.889,192.406,111.957z
		 M195.995,125.853c5.563-0.688,10.756,4.261,11.598,11.053c0,0.007,0.002,0.015,0.002,0.021c0.843,6.791-2.985,12.854-8.549,13.541
		c-5.563,0.688-10.756-4.26-11.598-11.051c-0.001-0.008-0.002-0.015-0.002-0.021C186.604,132.604,190.432,126.541,195.995,125.853z
		 M196.7,74.104c5.396-0.946,10.635,3.206,11.698,9.272c0.001,0.006,0.002,0.012,0.003,0.019c1.064,6.067-2.445,11.755-7.841,12.7
		s-10.634-3.207-11.697-9.273c-0.002-0.006-0.003-0.013-0.004-0.02C187.796,80.736,191.304,75.049,196.7,74.104z M211.876,109.024
		c0,0.006,0.002,0.013,0.002,0.019c0.955,5.979-1.187,11.289-4.78,11.86c-3.595,0.569-7.282-3.815-8.236-9.796
		c-0.001-0.006-0.001-0.012-0.003-0.018c-0.954-5.98,1.188-11.291,4.781-11.86S210.921,103.045,211.876,109.024z M231.794,177.457
		c-0.004,5.666-3.547,10.828-7.914,11.53c-4.369,0.702-7.905-3.319-7.901-8.985c0-0.006,0-0.011,0-0.017
		c0.004-5.666,3.547-10.827,7.914-11.53c4.366-0.703,7.905,3.319,7.901,8.985C231.794,177.446,231.794,177.451,231.794,177.457z
		 M210.671,169.229c-5.024-0.719-8.342-6.604-7.412-13.145c0.002-0.008,0.004-0.015,0.004-0.021
		c0.932-6.542,5.759-11.263,10.783-10.546c5.023,0.718,8.342,6.604,7.41,13.145c-0.002,0.008-0.002,0.014-0.004,0.021
		C220.521,165.225,215.693,169.945,210.671,169.229z M208.189,214.371c-4.399,0.489-8.422-3.188-8.981-8.215
		c0-0.006,0-0.011,0-0.016c-0.562-5.026,2.553-9.498,6.953-9.986c4.399-0.488,8.42,3.188,8.98,8.217c0,0.004,0.001,0.01,0.002,0.014
		C215.702,209.412,212.591,213.883,208.189,214.371z M190.155,186.736c-0.001-0.004-0.002-0.01-0.003-0.016
		c-1.121-5.069,2.081-10.09,7.149-11.209c5.07-1.121,10.091,2.08,11.211,7.15c0.002,0.004,0.003,0.01,0.005,0.014
		c1.12,5.072-2.081,10.091-7.151,11.211C196.296,195.008,191.276,191.808,190.155,186.736z M185.876,175.752
		c-6.019-0.006-10.893-5.559-10.888-12.401c0-0.007,0-0.013,0-0.021c0.005-6.844,4.888-12.387,10.905-12.381
		c6.02,0.006,10.895,5.559,10.888,12.4c0,0.007,0,0.014,0,0.021C196.777,170.215,191.895,175.758,185.876,175.752z M181.115,218.183
		c-5.028,0.534-9.53-3.022-10.055-7.947c0-0.005-0.001-0.011-0.002-0.015c-0.522-4.926,3.128-9.352,8.157-9.889
		c5.029-0.533,9.531,3.023,10.056,7.948c0,0.005,0.001,0.011,0.002,0.015C189.798,213.221,186.145,217.647,181.115,218.183z
		 M165.919,239.303c-4.877,0.48-9.221-3.082-9.703-7.957c0-0.006,0-0.01,0-0.014c-0.482-4.877,3.08-9.222,7.955-9.703
		c4.877-0.481,9.221,3.08,9.703,7.957c0,0.004,0,0.01,0.002,0.015C174.356,234.477,170.794,238.82,165.919,239.303z
		 M152.388,219.375c-5.059-0.006-9.154-4.449-9.149-9.928c0-0.006,0-0.011,0-0.018c0.005-5.477,4.106-9.914,9.165-9.909
		c5.059,0.004,9.154,4.448,9.15,9.927c0,0.006,0,0.012,0,0.018C161.55,214.942,157.445,219.379,152.388,219.375z M146.718,230.957
		c-0.004,5.268-4.277,9.534-9.545,9.529c-5.269-0.004-9.535-4.277-9.53-9.546c0-0.005,0-0.011,0-0.017
		c0.004-5.268,4.278-9.533,9.546-9.529c5.268,0.005,9.534,4.277,9.529,9.546C146.718,230.946,146.718,230.951,146.718,230.957z
		 M130.152,247.066c0,0.003,0,0.006,0,0.01c-0.235,3.002-4.604,5.112-9.757,4.715c-5.152-0.399-9.139-3.158-8.902-6.16
		c0-0.004,0-0.006,0-0.01c0.234-3.004,4.604-5.113,9.756-4.715S130.388,244.063,130.152,247.066z M106.501,237.77
		c-5.133-0.557-8.844-5.167-8.287-10.301c0-0.004,0-0.01,0.002-0.014c0.556-5.135,5.166-8.845,10.3-8.289
		c5.133,0.558,8.843,5.168,8.286,10.301c0,0.006,0,0.011,0,0.016C116.245,234.615,111.634,238.325,106.501,237.77z M88.761,211.03
		c-4.825-1.805-8.263-7.293-7.679-12.26c0-0.007,0.001-0.011,0.002-0.017c0.584-4.967,4.968-7.529,9.794-5.725
		c4.824,1.805,8.264,7.293,7.679,12.26c0,0.004-0.001,0.01-0.001,0.016C97.97,210.271,93.585,212.834,88.761,211.03z
		 M75.112,183.217c-5.544-1.164-9.094-6.603-7.93-12.146c0.001-0.005,0.002-0.011,0.003-0.017c1.164-5.543,6.603-9.094,12.146-7.93
		c5.542,1.162,9.093,6.601,7.929,12.145c-0.002,0.006-0.002,0.011-0.004,0.018C86.095,180.83,80.655,184.381,75.112,183.217z
		 M69.8,196.894c-0.001,0.005-0.001,0.01-0.001,0.017c-0.475,5.407-4.412,8.68-8.797,7.311c-4.387-1.368-7.558-6.862-7.083-12.271
		c0-0.005,0-0.011,0.001-0.017c0.474-5.406,4.412-8.68,8.797-7.311S70.272,191.486,69.8,196.894z M49.747,174.631
		c-3.817-2.346-5.891-8.625-4.629-14.025c0.001-0.005,0.003-0.012,0.004-0.016c1.261-5.4,5.377-7.877,9.193-5.53
		c3.817,2.346,5.891,8.626,4.629,14.026c-0.002,0.004-0.003,0.01-0.004,0.015C57.68,174.5,53.563,176.978,49.747,174.631z
		 M41.101,148.082c-3.896-1.605-5.508-7.537-3.6-13.248c0.002-0.006,0.004-0.013,0.006-0.019c1.907-5.711,6.613-9.039,10.51-7.435
		c3.896,1.606,5.508,7.539,3.6,13.25c-0.002,0.006-0.003,0.012-0.006,0.018C49.704,146.36,44.998,149.688,41.101,148.082z
		 M36.498,159.562c-0.001,0.005-0.002,0.009-0.003,0.015c-1.115,4.949-4.145,7.502-6.767,5.7c-2.621-1.802-3.843-7.274-2.728-12.226
		c0.002-0.006,0.003-0.01,0.004-0.016c1.114-4.949,4.144-7.502,6.765-5.699C36.392,149.137,37.612,154.611,36.498,159.562z
		 M24.698,142.729c-3.435-0.864-5.104-6.018-3.727-11.514c0.001-0.006,0.003-0.01,0.004-0.016c1.377-5.494,5.278-9.248,8.713-8.385
		c3.437,0.863,5.104,6.02,3.729,11.514c-0.002,0.006-0.003,0.01-0.005,0.016C32.035,139.838,28.135,143.592,24.698,142.729z
		 M35.483,82.926c-0.002,0.004-0.003,0.009-0.005,0.013c-1.422,4.082-3.752,6.978-5.203,6.469c-1.452-0.509-1.476-4.229-0.054-8.313
		c0.001-0.004,0.002-0.008,0.004-0.012c1.422-4.082,3.752-6.979,5.203-6.469C36.882,75.123,36.905,78.844,35.483,82.926z
		 M41.808,103.563c3.571,0.386,5.939,5.608,5.291,11.668c-0.001,0.007-0.002,0.013-0.002,0.019
		c-0.649,6.06-4.071,10.657-7.643,10.271c-3.571-0.387-5.939-5.609-5.29-11.669c0-0.007,0.001-0.013,0.002-0.019
		C34.814,107.775,38.236,103.178,41.808,103.563z M48.118,58.92c-0.002,0.005-0.003,0.009-0.004,0.015
		c-1.119,4.464-4.188,8.826-6.856,9.745c-2.667,0.92-3.922-1.954-2.803-6.419c0.001-0.005,0.002-0.009,0.003-0.014
		c1.119-4.464,4.188-8.826,6.856-9.745C47.981,51.582,49.236,54.456,48.118,58.92z M50.606,90.168
		c-0.001,0.006-0.003,0.01-0.004,0.016c-1.555,4.923-5.383,8.102-8.553,7.098c-3.17-1.003-4.479-5.808-2.925-10.73
		c0.001-0.004,0.003-0.01,0.005-0.014c1.554-4.924,5.383-8.103,8.553-7.099C50.853,80.441,52.162,85.244,50.606,90.168z
		 M51.576,69.482c0.001-0.004,0.002-0.009,0.004-0.014c1.422-4.082,3.752-6.978,5.202-6.469c1.452,0.51,1.478,4.23,0.056,8.313
		c-0.002,0.005-0.003,0.008-0.005,0.012c-1.422,4.082-3.752,6.979-5.203,6.47C50.178,77.284,50.153,73.564,51.576,69.482z
		 M61.141,44.672c-3.554,2.75-7.7,3.933-9.261,2.642c-0.002-0.002-0.003-0.002-0.005-0.004c-1.562-1.291,0.055-4.567,3.607-7.317
		c3.555-2.751,7.7-3.933,9.262-2.642c0.002,0.002,0.003,0.003,0.005,0.005C66.31,38.646,64.694,41.922,61.141,44.672z
		 M71.466,54.577c0,0.003,0,0.007,0,0.011c0.152,3.82-2.931,7.563-6.886,8.36c-3.954,0.798-7.284-1.652-7.438-5.474
		c0-0.004,0-0.008,0-0.012c-0.152-3.819,2.93-7.563,6.885-8.359S71.312,50.756,71.466,54.577z M80.46,30.08
		c-3.719,1.762-7.235,2.118-7.858,0.796c-0.001-0.001-0.002-0.002-0.003-0.004c-0.622-1.321,1.886-3.821,5.604-5.583
		c3.717-1.761,7.233-2.117,7.857-0.795c0.001,0.001,0.001,0.003,0.002,0.003C86.685,25.821,84.177,28.32,80.46,30.08z M78.77,43.58
		c-4.492,1.218-8.394,0.114-8.715-2.464c0-0.003-0.001-0.006-0.001-0.009c-0.32-2.578,3.061-5.655,7.554-6.872
		c4.492-1.218,8.394-0.114,8.715,2.464c0,0.002,0.001,0.005,0.001,0.007C86.645,39.285,83.263,42.363,78.77,43.58z M88.841,42.679
		c4.73-1.009,8.652,1.848,8.759,6.379c0,0.004,0,0.009,0,0.013c0.104,4.531-3.646,9.021-8.378,10.031
		c-4.732,1.009-8.653-1.847-8.758-6.377c-0.001-0.006-0.001-0.01-0.001-0.015C80.356,48.18,84.107,43.689,88.841,42.679z
		 M98.949,27.292c-3.973,1.415-7.801,0.85-8.552-1.265c-0.001-0.002-0.001-0.004-0.002-0.006c-0.75-2.114,1.861-4.976,5.835-6.391
		c3.972-1.416,7.801-0.85,8.552,1.265c0,0.002,0.002,0.005,0.002,0.007C105.534,23.017,102.923,25.877,98.949,27.292z
		 M105.103,40.502c-4.287,0.973-8.4-0.823-9.188-4.013c0-0.004-0.002-0.007-0.002-0.01c-0.787-3.188,2.049-6.563,6.336-7.536
		c4.287-0.974,8.401,0.823,9.188,4.013c0.001,0.003,0.002,0.006,0.002,0.01C112.228,36.155,109.39,39.529,105.103,40.502z
		 M121.111,23.505c-4.506,0.494-8.385-1.19-8.664-3.766c-0.001-0.003-0.001-0.005-0.001-0.008c-0.279-2.574,3.146-5.062,7.651-5.556
		c4.505-0.493,8.384,1.191,8.663,3.767c0,0.002,0,0.005,0.002,0.007C129.042,20.524,125.618,23.011,121.111,23.505z M137.546,33.067
		c0,0.003,0.002,0.007,0.002,0.011c0.188,3.477-3.84,6.523-8.994,6.805c-5.155,0.282-9.486-2.309-9.674-5.784
		c0-0.005,0-0.008,0-0.011c-0.188-3.478,3.838-6.523,8.994-6.807C133.027,26.999,137.358,29.589,137.546,33.067z M152.361,20.73
		c0,0.003-0.001,0.005-0.001,0.007c-0.227,2.369-3.98,3.952-8.391,3.537c-4.406-0.415-7.797-2.671-7.571-5.039
		c0-0.003,0.001-0.005,0.001-0.008c0.227-2.368,3.98-3.951,8.391-3.536C149.196,16.106,152.587,18.362,152.361,20.73z
		 M175.546,22.709c0,0.002,0,0.005-0.002,0.007c-0.474,2.167-4.72,3.085-9.483,2.051c-4.765-1.036-8.241-3.633-7.767-5.801
		c0-0.001,0-0.004,0-0.006c0.476-2.168,4.722-3.086,9.485-2.05C172.542,17.946,176.021,20.542,175.546,22.709z M185.988,31.438
		c4.724,1.815,7.575,5.823,6.37,8.953c-0.001,0.003-0.002,0.006-0.004,0.009c-1.205,3.128-6.012,4.19-10.734,2.376
		c-4.724-1.817-7.576-5.825-6.369-8.953c0-0.003,0.002-0.006,0.004-0.009C176.46,30.686,181.265,29.621,185.988,31.438z
		 M196.718,29.519c0,0.001,0,0.003-0.002,0.005c-0.699,1.823-4.521,2.061-8.532,0.526c-4.013-1.532-6.697-4.257-5.996-6.081
		c0.001-0.002,0.001-0.004,0.002-0.006c0.701-1.823,4.521-2.061,8.533-0.526C194.734,24.97,197.419,27.693,196.718,29.519z
		 M198.866,48.573c5.064,1.017,8.791,5.854,8.323,10.808c-0.001,0.006-0.001,0.012-0.002,0.016
		c-0.468,4.953-4.953,8.145-10.019,7.128c-5.064-1.018-8.791-5.855-8.324-10.809c0.002-0.005,0.003-0.011,0.003-0.015
		C189.315,50.747,193.802,47.558,198.866,48.573z M213.386,41.036c4.472,2.621,6.847,6.874,5.304,9.499
		c-0.001,0.003-0.003,0.006-0.004,0.009c-1.543,2.626-6.418,2.629-10.89,0.009s-6.846-6.874-5.303-9.5
		c0.002-0.003,0.002-0.005,0.004-0.008C204.04,38.419,208.915,38.415,213.386,41.036z M220.171,39.963
		c-0.002,0.001-0.002,0.003-0.004,0.004c-0.67,1.153-4.316,0.295-8.146-1.918c-3.829-2.212-6.391-4.939-5.721-6.094
		c0-0.001,0-0.002,0.002-0.004c0.67-1.153,4.316-0.294,8.146,1.918C218.277,36.081,220.839,38.811,220.171,39.963z M224.071,58.853
		c4.305,1.067,7.542,5.266,7.229,9.375c0,0.003,0,0.008,0,0.012c-0.313,4.107-4.055,6.573-8.36,5.504
		c-4.306-1.068-7.542-5.266-7.229-9.374c0-0.004,0-0.009,0-0.013C216.022,60.247,219.766,57.783,224.071,58.853z M237.99,60.43
		c-0.002,0.004-0.003,0.005-0.005,0.007c-1.357,1.852-5.111,1.406-8.385-0.989c-3.273-2.397-4.825-5.841-3.467-7.691
		c0-0.002,0.002-0.004,0.002-0.006c1.359-1.851,5.113-1.407,8.388,0.989C237.796,55.136,239.349,58.58,237.99,60.43z
		 M246.544,82.981c-1.926,0.743-5.045-2.678-6.969-7.638c-0.002-0.005-0.003-0.01-0.006-0.015c-1.923-4.961-1.92-9.584,0.005-10.326
		c1.927-0.743,5.046,2.677,6.97,7.638c0.002,0.006,0.004,0.011,0.006,0.015C248.472,77.616,248.47,82.239,246.544,82.981z
		 M256.405,105.36c-1.928,0.743-5.047-2.677-6.971-7.638c-0.002-0.006-0.004-0.01-0.006-0.016c-1.922-4.959-1.92-9.584,0.006-10.326
		s5.045,2.679,6.969,7.639c0.002,0.005,0.004,0.01,0.006,0.016C258.333,99.994,258.329,104.617,256.405,105.36z M257.446,130.502
		c-2.754,0.354-6.008-4.24-7.27-10.265c-0.002-0.006-0.002-0.012-0.004-0.019c-1.26-6.022-0.051-11.192,2.703-11.549
		c2.752-0.354,6.008,4.24,7.268,10.265c0.002,0.006,0.002,0.012,0.004,0.019C261.409,124.977,260.2,130.147,257.446,130.502z
		 M266.521,125.696c-1.826,0.161-3.994-4.11-4.844-9.544c-0.002-0.006-0.002-0.011-0.002-0.018
		c-0.85-5.432-0.059-9.967,1.768-10.129c1.824-0.162,3.994,4.11,4.844,9.543c0,0.006,0.002,0.011,0.002,0.017
		C269.138,120.998,268.347,125.535,266.521,125.696z M266.675,147.115c-1.887,0.141-3.742-4.039-4.146-9.334
		c0-0.005,0-0.011-0.002-0.016c-0.402-5.295,0.799-9.702,2.686-9.842c1.885-0.142,3.742,4.037,4.145,9.334
		c0,0.004,0.002,0.01,0.004,0.016C269.763,142.568,268.562,146.975,266.675,147.115z M257.394,166.326
		c0.002-4.723,1.822-9.503,4.068-10.679c2.244-1.175,4.064,1.7,4.061,6.423c0,0.004,0,0.01,0,0.014c0,4.723-1.822,9.504-4.066,10.68
		c-2.246,1.175-4.064-1.701-4.063-6.424C257.394,166.334,257.394,166.33,257.394,166.326z M254.327,155.977
		c-3.283,1.201-6.765-3.313-7.775-10.08c-0.002-0.008-0.002-0.014-0.004-0.021c-1.012-6.769,0.828-13.229,4.111-14.432
		c3.281-1.201,6.764,3.313,7.775,10.08c0,0.007,0,0.014,0.002,0.02C259.45,148.313,257.608,154.774,254.327,155.977z
		 M246.776,195.965c0.001-0.006,0.002-0.01,0.003-0.015c0.769-4.469,2.946-9.29,4.866-10.769c1.924-1.479,2.857,0.945,2.092,5.414
		c-0.002,0.004-0.002,0.009-0.002,0.014c-0.77,4.469-2.949,9.289-4.869,10.768C246.944,202.856,246.009,200.433,246.776,195.965z
		 M238.352,175.477c0-0.006,0-0.012,0-0.016c0.003-5.179,2.991-10.119,6.675-11.035c3.684-0.914,6.668,2.541,6.664,7.721
		c0,0.005,0,0.011,0,0.016c-0.004,5.18-2.992,10.119-6.676,11.034S238.349,180.655,238.352,175.477z M231.73,220.438
		c0.001-0.004,0.002-0.009,0.003-0.015c1.12-4.463,4.188-8.826,6.857-9.746c2.666-0.918,3.922,1.957,2.803,6.421
		c-0.001,0.004-0.002,0.009-0.004,0.013c-1.118,4.464-4.188,8.827-6.855,9.746C231.865,227.776,230.61,224.902,231.73,220.438z
		 M226.233,202.248c0-0.004-0.001-0.009-0.002-0.013c-0.688-4.269,1.376-9.187,4.611-10.983c3.236-1.799,6.418,0.205,7.106,4.474
		c0.001,0.004,0.001,0.008,0.003,0.013c0.688,4.268-1.377,9.186-4.613,10.982C230.104,208.519,226.923,206.517,226.233,202.248z
		 M218.708,234.687c3.553-2.749,7.699-3.933,9.26-2.64c0.002,0,0.004,0.002,0.006,0.002c1.561,1.293-0.057,4.568-3.609,7.318
		s-7.699,3.934-9.261,2.641c-0.001,0-0.003-0.002-0.004-0.004C213.538,240.713,215.153,237.437,218.708,234.687z M208.384,224.782
		c0-0.004,0-0.008,0-0.011c-0.152-3.821,2.931-7.564,6.885-8.361c3.955-0.797,7.283,1.653,7.438,5.475c0,0.004,0,0.008,0,0.011
		c0.152,3.821-2.93,7.563-6.885,8.36S208.536,228.603,208.384,224.782z M199.389,249.278c3.718-1.762,7.235-2.118,7.858-0.796
		c0,0.002,0.002,0.003,0.002,0.004c0.623,1.322-1.886,3.822-5.604,5.583c-3.717,1.763-7.234,2.117-7.857,0.796
		c-0.002-0.002-0.002-0.003-0.002-0.004C193.163,253.539,195.673,251.039,199.389,249.278z M201.077,235.779
		c4.492-1.218,8.396-0.113,8.717,2.465c0,0.002,0,0.004,0,0.008c0.32,2.578-3.061,5.655-7.553,6.873
		c-4.492,1.217-8.396,0.113-8.716-2.465c0-0.002-0.001-0.005-0.001-0.008C193.204,240.073,196.585,236.996,201.077,235.779z
		 M191.009,236.68c-4.732,1.009-8.653-1.848-8.76-6.377c0-0.006,0-0.01,0-0.014c-0.104-4.531,3.646-9.021,8.379-10.031
		c4.73-1.01,8.652,1.846,8.758,6.377c0,0.004,0,0.01,0,0.014C199.49,231.18,195.74,235.67,191.009,236.68z M180.898,252.067
		c3.974-1.416,7.801-0.851,8.552,1.265c0,0.002,0.002,0.004,0.002,0.006c0.75,2.113-1.861,4.975-5.834,6.391
		c-3.973,1.415-7.802,0.85-8.553-1.264c-0.001-0.004-0.001-0.006-0.002-0.008C174.313,256.342,176.925,253.482,180.898,252.067z
		 M174.745,238.857c4.286-0.973,8.4,0.822,9.188,4.012c0,0.004,0.001,0.008,0.002,0.01c0.787,3.189-2.05,6.563-6.337,7.537
		s-8.401-0.824-9.188-4.013c-0.002-0.003-0.003-0.007-0.004-0.01C167.62,243.205,170.458,239.83,174.745,238.857z M158.736,255.854
		c4.505-0.494,8.386,1.19,8.664,3.765c0,0.004,0,0.006,0.001,0.01c0.279,2.572-3.146,5.061-7.65,5.555
		c-4.506,0.494-8.386-1.191-8.664-3.766c0-0.002,0-0.006-0.002-0.008C150.806,258.836,154.23,256.348,158.736,255.854z
		 M142.302,246.291c0-0.002,0-0.006,0-0.01c-0.188-3.477,3.839-6.523,8.992-6.806c5.156-0.282,9.487,2.309,9.676,5.784
		c0,0.004,0,0.008,0,0.012c0.188,3.479-3.84,6.523-8.994,6.807C146.82,252.359,142.489,249.77,142.302,246.291z M127.486,258.629
		c0-0.002,0.001-0.004,0.001-0.008c0.227-2.367,3.98-3.951,8.391-3.535c4.406,0.414,7.797,2.67,7.572,5.039
		c0,0.002-0.002,0.004-0.002,0.006c-0.226,2.369-3.98,3.951-8.39,3.537C130.651,263.254,127.261,260.998,127.486,258.629z
		 M104.302,256.649c0-0.002,0.002-0.004,0.002-0.006c0.475-2.168,4.721-3.085,9.484-2.052c4.764,1.037,8.241,3.633,7.768,5.801
		c-0.002,0.002-0.002,0.004-0.002,0.006c-0.475,2.169-4.721,3.086-9.484,2.051C107.307,261.414,103.827,258.817,104.302,256.649z
		 M93.859,247.92c-4.724-1.815-7.575-5.824-6.37-8.953c0.001-0.002,0.002-0.006,0.004-0.008c1.204-3.129,6.012-4.191,10.734-2.375
		c4.723,1.815,7.576,5.824,6.37,8.953c-0.001,0.002-0.003,0.006-0.005,0.008C103.389,248.674,98.583,249.737,93.859,247.92z
		 M83.131,249.842c0.001-0.002,0.001-0.004,0.001-0.006c0.701-1.824,4.521-2.062,8.533-0.527c4.012,1.533,6.696,4.257,5.996,6.082
		c0,0.001-0.002,0.004-0.002,0.005c-0.701,1.825-4.521,2.062-8.533,0.526C85.113,254.39,82.43,251.666,83.131,249.842z
		 M80.981,230.785c-5.063-1.017-8.791-5.855-8.322-10.808c0.001-0.005,0.001-0.011,0.001-0.015
		c0.469-4.953,4.953-8.145,10.019-7.129c5.064,1.018,8.791,5.856,8.324,10.809c-0.002,0.006-0.002,0.011-0.002,0.016
		C90.532,228.611,86.048,231.803,80.981,230.785z M66.463,238.322c-4.472-2.619-6.847-6.874-5.303-9.499
		c0.001-0.003,0.003-0.006,0.004-0.008c1.543-2.626,6.417-2.63,10.889-0.009s6.846,6.873,5.304,9.498
		c-0.002,0.004-0.003,0.007-0.005,0.01C75.809,240.94,70.934,240.943,66.463,238.322z M59.679,239.396
		c0.001-0.002,0.002-0.003,0.003-0.004c0.67-1.153,4.317-0.295,8.147,1.917c3.828,2.212,6.391,4.94,5.721,6.095
		c-0.001,0-0.001,0.002-0.002,0.003c-0.67,1.153-4.317,0.296-8.147-1.917C61.569,243.277,59.01,240.549,59.679,239.396z
		 M55.776,220.508c-4.305-1.069-7.542-5.268-7.229-9.375c0-0.004,0-0.008,0-0.012c0.313-4.109,4.056-6.574,8.36-5.505
		c4.306,1.068,7.543,5.267,7.23,9.374c0,0.004-0.001,0.008-0.001,0.012C63.826,219.111,60.083,221.576,55.776,220.508z
		 M41.857,218.928c0.002-0.002,0.003-0.004,0.005-0.006c1.357-1.851,5.112-1.406,8.386,0.99c3.272,2.397,4.824,5.84,3.467,7.691
		c-0.001,0.002-0.003,0.003-0.004,0.006c-1.358,1.85-5.113,1.407-8.387-0.99C42.052,224.223,40.5,220.779,41.857,218.928z
		 M39.093,193.162c-3.701-1.59-6.559-6.824-6.381-11.693c0-0.004,0.001-0.01,0.001-0.014c0.178-4.867,3.322-7.527,7.023-5.938
		s6.56,6.824,6.382,11.693c0,0.004-0.002,0.01-0.002,0.015C45.938,192.094,42.795,194.752,39.093,193.162z M29.21,198.229
		c0-0.003,0.001-0.009,0.001-0.013c0.57-3.91,3.303-5.805,6.103-4.229c2.8,1.578,4.607,6.027,4.036,9.938
		c0,0.006-0.001,0.01-0.001,0.013c-0.57,3.912-3.304,5.806-6.103,4.229C30.445,206.592,28.638,202.142,29.21,198.229z
		 M16.942,175.58c0.002-4.008,2.23-6.4,4.978-5.348c2.747,1.055,4.972,5.156,4.97,9.162c0,0.004,0,0.008,0,0.013
		c-0.003,4.007-2.229,6.399-4.978,5.347c-2.748-1.054-4.973-5.156-4.97-9.162C16.942,175.586,16.942,175.584,16.942,175.58z
		 M15.136,148.09c0-0.004,0.001-0.008,0.002-0.012c0.858-4.041,2.875-6.408,4.505-5.287s2.256,5.307,1.397,9.349
		c-0.001,0.004-0.002,0.007-0.003,0.012c-0.857,4.041-2.875,6.408-4.505,5.287C14.901,156.317,14.276,152.131,15.136,148.09z
		 M13.676,117.308c0.002-0.005,0.003-0.011,0.004-0.015c1.291-5.037,4.024-8.764,6.106-8.326c2.08,0.438,2.723,4.875,1.432,9.91
		c-0.001,0.006-0.003,0.01-0.004,0.016c-1.291,5.035-4.025,8.763-6.106,8.324C13.026,126.779,12.386,122.342,13.676,117.308z"/>
</g>
</svg>
