<?xml version="1.0" encoding="utf-8"?>
<!-- Generator: Adobe Illustrator 15.1.0, SVG Export Plug-In . SVG Version: 6.00 Build 0)  -->
<!DOCTYPE svg PUBLIC "-//W3C//DTD SVG 1.1//EN" "http://www.w3.org/Graphics/SVG/1.1/DTD/svg11.dtd">
<svg version="1.1" id="Layer_2" xmlns="http://www.w3.org/2000/svg" xmlns:xlink="http://www.w3.org/1999/xlink" x="0px" y="0px"
	 width="283.465px" height="283.465px" viewBox="0 0 283.465 283.465" enable-background="new 0 0 283.465 283.465"
	 xml:space="preserve">
<g>
	<path fill="#231F20" d="M190.186,217.09l0.262-0.209c-0.002-0.003-0.004-0.004-0.006-0.006c-0.071-0.096-0.188-0.037-0.332,0.131
		c0.017,0.025,0.027,0.038,0.037,0.051C190.197,217.131,190.188,217.096,190.186,217.09z"/>
	<path fill="#231F20" d="M250.374,87.85c-0.026,0.047-0.043,0.101-0.063,0.15c0.681-0.215,1.336-0.402,1.969-0.563
		C251.512,86.525,251.053,86.689,250.374,87.85z"/>
	<path fill="#231F20" d="M80.575,53.123c0,0-0.002-0.027,0.002-0.053c-0.009,0.034-0.02,0.065-0.037,0.095L80.575,53.123z"/>
	<path fill="#231F20" d="M184.484,170.547c0.113-0.123,0.16-0.242,0.148-0.359c-0.055,0.129-0.115,0.262-0.172,0.389
		C184.471,170.566,184.477,170.557,184.484,170.547z"/>
	<path fill="#231F20" d="M194.993,261.381c0.155,0.023,0.313,0.053,0.467,0.069C195.398,261.314,195.227,261.301,194.993,261.381z"
		/>
	<path fill="#231F20" d="M275.805,116.398c-0.027-0.162-0.145-0.276-0.287-0.345c-0.027-0.157-0.059-0.314-0.086-0.471
		c-0.048-0.344-0.11-0.685-0.188-1.021c-0.601-3.271-1.306-6.525-2.144-9.754c-0.282-1.276-0.675-2.537-1.295-3.804
		c-0.693-2.386-1.449-4.757-2.274-7.107c-0.022-1.151-1.807-4.777-2.426-5.833c-0.025-0.054-0.054-0.116-0.073-0.159
		c-0.01-0.021-0.019-0.043-0.028-0.064c-0.742-1.835-1.523-3.656-2.349-5.46c-0.06-0.13-0.174-0.204-0.305-0.247
		c-0.079-0.136-0.16-0.27-0.241-0.402c-0.123-0.204-0.248-0.408-0.364-0.617c-0.223-0.397-0.428-0.805-0.633-1.211
		c-0.212-0.421-0.425-0.841-0.655-1.253c-0.151-0.269-0.329-0.512-0.505-0.756c-0.126-0.248-0.259-0.501-0.383-0.748
		c-1.235-2.438-2.805-4.733-4.189-6.757c-0.267-0.389-0.554-0.764-0.842-1.138c-0.452-0.588-0.88-1.145-1.229-1.762l-0.191-0.344
		c-0.194-0.354-0.396-0.721-0.651-1.075c-0.07-0.098-0.16-0.203-0.244-0.306c-1.298-2.105-2.82-4.383-4.761-6.322
		c-0.159-0.159-0.309-0.33-0.463-0.496c-0.682-0.849-1.367-1.692-2.066-2.522c-0.271-0.365-0.539-0.736-0.808-1.11l-0.133-0.188
		c-0.886-1.259-1.477-1.988-1.935-2.352c-0.008-0.017-0.009-0.038-0.019-0.054c-0.06-0.096-0.12-0.189-0.197-0.274
		c-18.815-20.668-43.049-34.938-70.35-41.491c-7.225-1.833-14.587-3.086-22.053-3.74c-10.091-0.882-20.4-0.625-30.526,0.741
		l-0.002-0.099c-0.547,0.01-1.202,0.146-1.828,0.367c-0.601,0.089-1.204,0.167-1.804,0.264c-0.037,0.006-0.064,0.027-0.095,0.042
		c-0.764,0.123-1.525,0.263-2.278,0.45c-0.521,0.129-1.021,0.258-1.516,0.387c-1.346,0.259-2.689,0.538-4.028,0.837
		c-1.935,0.374-3.949,0.823-5.957,1.41c-1.447,0.422-2.884,0.944-4.273,1.449c-0.503,0.183-1.016,0.367-1.529,0.548
		c-0.793,0.255-1.585,0.519-2.375,0.789c-0.68,0.207-1.357,0.406-2.032,0.605c-1.249,0.367-2.493,0.733-3.742,1.143
		c-0.482,0.159-0.935,0.344-1.388,0.537c-0.178,0.03-0.354,0.075-0.524,0.144C57.86,28.912,33.658,51.091,19.227,79.372
		c-2.048,3.98-3.907,8.072-5.55,12.272c-0.167,0.429-0.325,0.86-0.488,1.29c-1.152,3.006-2.198,6.062-3.131,9.163
		c-1.242,4.076-2.296,8.223-3.142,12.431c-3.111,15.485-3.438,31.195-0.972,46.694c2.338,14.696,7.131,28.856,14.234,42.101
		l-0.081,0.06l0.161,0.366c0.269,0.611,0.783,1.188,1.237,1.696c0.161,0.181,0.316,0.354,0.451,0.52
		c0.554,0.681,1.098,1.381,1.644,2.082l0.146,0.188c1.026,1.737,2.079,3.457,3.176,5.146c-0.049,0.145-0.05,0.302,0.036,0.433
		c2.086,3.178,4.313,6.25,6.646,9.236c-0.045,0.154-0.032,0.319,0.069,0.448c2.355,2.983,4.841,5.85,7.425,8.62
		c-0.023,0.15,0.003,0.304,0.11,0.418c2.842,3.017,5.826,5.884,8.917,8.626c6.573,5.83,13.673,11.038,21.24,15.519
		c5.177,3.065,10.537,5.781,16.058,8.146c14.202,6.32,29.161,10.205,44.554,11.553c4.005,0.351,8.068,0.528,12.074,0.528
		c0.002,0,0.001,0,0.002,0c7.407,0,14.82-0.618,22.146-1.813c3.385-0.551,6.752-1.214,10.088-2.017
		c0.06-0.015,0.101-0.057,0.148-0.09c0.254,0.063,0.518,0.093,0.791,0.093c1.525,0,3.301-0.88,4.809-1.626
		c0.473-0.234,0.908-0.442,1.309-0.616c1.146-0.343,2.289-0.7,3.427-1.073c0.362-0.089,0.724-0.174,1.08-0.257
		c1.33-0.311,2.705-0.632,4.072-1.14c1.613-0.6,3.16-1.472,4.655-2.315c1.041-0.587,2.118-1.194,3.192-1.693
		c1.06-0.119,2.394-0.679,3.531-1.377c3.334-1.754,6.578-3.635,9.731-5.633c0.061-0.005,0.121-0.012,0.174-0.033
		c0.105-0.042,0.209-0.087,0.308-0.15c3.199-2.054,6.295-4.229,9.29-6.514c0.068-0.009,0.14-0.017,0.198-0.047
		c0.102-0.052,0.203-0.107,0.296-0.18c3.025-2.338,5.936-4.791,8.735-7.345c0.048-0.015,0.101-0.014,0.141-0.039
		c0.099-0.062,0.196-0.126,0.284-0.208c5.687-5.246,10.871-10.91,15.542-16.931c0.169-0.217,0.34-0.432,0.507-0.649
		c0.151-0.196,0.304-0.393,0.454-0.591c6.207-8.19,11.466-17.032,15.704-26.404c2.622-5.634,4.846-11.392,6.686-17.249
		c0.762-2.424,1.465-4.863,2.092-7.32c0.089-0.269,0.178-0.536,0.262-0.813c0.064-0.214,0.165-0.668,0.243-1.205
		c1.66-6.93,2.786-13.98,3.363-21.123C278.221,139.208,277.717,127.718,275.805,116.398z M79.001,24.026
		c0.924-0.466,1.853-0.923,2.79-1.368c0.124-0.017,0.255-0.044,0.399-0.09c-0.021,0.13-0.07,0.252-0.189,0.327
		c-0.02,0.013-0.031,0.023-0.051,0.036c0.146-0.04,0.293-0.005,0.41,0.074c0.748-0.466,1.602-0.929,2.561-1.384
		c0.545-0.258,1.006-0.5,1.402-0.721c0.009,0.031,0.013,0.06,0.025,0.091c0.135,0.36,0.33,0.574,0.575,0.655
		c-1.31,0.513-2.791,1.312-4.125,2.258c0.029,0.086,0.039,0.178,0.021,0.267c-0.032,0.116-0.104,0.217-0.204,0.286
		c-0.439,0.329-0.857,0.677-1.238,1.024c-0.955,0.875-1.584,1.396-2.027,1.646c-0.139,0.079-0.248,0.093-0.213,0.081
		c-0.17,0.053-0.355,0.012-0.487-0.107c-0.134-0.119-0.192-0.297-0.158-0.474c0.006-0.028,0.015-0.122,0.05-0.218
		c0.391-1.116,1.479-2.139,2.99-3.177c-0.754,0.488-1.521,0.986-2.01,1.416c-0.688,0.603-1.225,1.072-1.633,1.38
		c-0.137,0.103-0.225,0.147-0.295,0.194c-0.003,0.002-0.006,0.001-0.009,0.003C78.022,25.339,78.423,24.611,79.001,24.026z
		 M15.66,184.479c-0.025,0.094-0.083,0.168-0.153,0.232c-0.224-0.5-0.452-1.001-0.647-1.495c-0.268-0.758-0.544-1.515-0.798-2.275
		c0.002-0.006,0.003-0.014,0.005-0.019c0.039-0.094,0.053-0.152,0.181-0.275c0.053-0.051,0.175-0.141,0.32-0.166
		c0.145-0.023,0.272-0.002,0.368,0.035c0.251,0.1,0.293,0.225,0.359,0.34c0.064,0.117,0.114,0.244,0.15,0.404
		c0.074,0.328,0.072,0.713,0.023,1.104c-0.019,0.152-0.016,0.459,0.035,0.887c0.032,0.268,0.108,0.652,0.168,1.014
		C15.682,184.333,15.679,184.408,15.66,184.479z M19.615,194.088c-0.027-0.011-0.057-0.028-0.085-0.041
		c-0.236-0.41-0.437-0.8-0.584-1.239c0.32,0.222,0.65,0.521,0.857,0.802C20.309,194.297,20.287,194.352,19.615,194.088z
		 M117.199,34.131c-0.002,0.001-0.021-0.003-0.06,0.013c-0.177,0.071-0.351,0.109-0.595,0.168c-0.494,0.119-1.185,0.26-1.922,0.357
		c-1.465,0.195-3.191,0.318-4.418,0.271c-0.619-0.022-1.27,0.049-1.951,0.146c-0.139,0.021-0.281-0.016-0.393-0.104
		c-0.063-0.049-0.105-0.113-0.139-0.185c-4.146,0.724-8.485,3.375-9.575,6.157l-0.767,1.956l-0.326-0.995
		c-0.002,0.896-0.018,1.829-0.045,2.8c0.035-0.065,0.06-0.133,0.06-0.208c0-0.705,0.095-0.699,0.503,0.021
		c0.42,0.742,0.83,0.604,2.447-0.813c2.525-2.213,5.332-3.631,7.9-4.186c0.041-0.19,0.186-0.346,0.384-0.387
		c2.708-0.482,5.164,0.017,6.724,1.648l-0.093,0.236l0.108-0.229c0.054,0.058,0.129,0.085,0.181,0.144l-0.245,0.207
		c0.021,0.025,0.038,0.043,0.059,0.064l0.301-0.1l-0.027-0.065c0.012,0.017,0.027,0.015,0.041,0.034
		c0.025,0.038,0.07,0.098,0.111,0.134c0.017,0.017,0.082,0.071,0.232,0.056c0.023-0.076,0.041-0.164,0.096-0.289
		c0.088-0.207,0.168-0.311,0.334-0.435c0.136-0.103,0.391-0.11,0.485-0.082c0.095,0.029,0.093,0.031,0.032,0.013
		c0.102,0.035,0.191,0.101,0.253,0.189c0.021,0.027,0.056,0.053,0.126,0.141c0.088,0.116,0.116,0.264,0.086,0.405
		c0.012-0.007,0.074,0.345,0.023,0.474c-0.002,0.01-0.021,0.086-0.062,0.16c-0.319,0.59-0.991,0.928-1.963,1.25
		c-0.963,0.32-2.215,0.565-3.651,0.682c-0.883,0.072-1.865,0.277-2.877,0.566c-0.154,0.043-0.318,0.012-0.445-0.084
		c-0.045-0.033-0.074-0.08-0.104-0.125c-3.437,1.064-7.104,3.15-9.071,5.326c-1.269,1.4-1.873,2.027-2.369,2.154
		c-0.043,0.472-0.09,0.949-0.139,1.436c0.153,0.25,0.17,0.721,0.025,1.09c-0.153,0.393-0.105,0.772,0.105,0.844
		c0.683,0.236,2.656-0.473,2.875-1.029c0.116-0.297,1.871-1.268,3.896-2.157c1.479-0.647,3-1.084,4.479-1.308
		c0.045-0.206,0.209-0.369,0.424-0.396c2.131-0.258,4.158-0.082,5.851,0.58c0.334,0.131,0.714,0.229,1.065,0.254
		c0.357,0.023,0.675-0.023,0.836-0.092c0.095-0.041,0.181-0.076,0.257-0.1c0.075-0.022,0.101-0.045,0.271-0.04
		c0.123,0.007,0.238,0.06,0.325,0.146c0.009,0.01,0.017,0.02,0.024,0.029c0.004,0.007,0.008,0.014,0.011,0.021
		c0.009,0.01,0.017,0.02,0.024,0.028c0.006,0.003,0.011,0.003,0.017,0.007c0.003,0.004,0.006,0.016,0.009,0.021
		c0.003,0.008,0.008,0.016,0.01,0.021c0.01,0.01,0.018,0.02,0.025,0.028c-0.001,0.005-0.004,0.011-0.006,0.017
		c0.004,0.006,0.007,0.015,0.01,0.021c0.005,0.002,0.01,0.004,0.016,0.006c-0.002,0.006-0.004,0.012-0.006,0.016
		c0.004,0.002,0.01,0.004,0.016,0.006c-0.004,0.012-0.008,0.021-0.012,0.033c0.004,0.002,0.01,0.004,0.016,0.006
		c0.005,0.021,0,0.02,0.003,0.037c0.006,0.049,0.005,0.098-0.002,0.146c0,0.004-0.007,0.013-0.007,0.017
		c-0.002,0.019,0.011,0.053,0.008,0.074c-0.01,0.08-0.029,0.182-0.059,0.287c-0.052,0.193-0.131,0.428-0.246,0.723
		c-0.133,0.344-0.297,0.668-0.569,0.94s-0.634,0.463-1.121,0.635c-0.989,0.349-2.563,0.627-5.42,1.062
		c-0.472,0.072-0.923,0.142-1.38,0.225c-0.152,0.027-0.309-0.016-0.426-0.118c-0.039-0.034-0.063-0.081-0.088-0.125
		c-4.981,0.953-9.072,2.529-9.555,3.763c-0.124,0.315-0.836,0.801-1.584,1.074c-0.391,0.145-0.781,0.371-1.095,0.616
		c-0.289,1.813-0.623,3.697-1.011,5.651c0.018,0.015,0.035,0.031,0.056,0.037c0.22,0.078,1.854-0.791,3.631-1.93
		c3.89-2.492,5.876-3.23,8.937-2.727c0.035-0.053,0.074-0.102,0.127-0.139c0.115-0.082,0.261-0.112,0.399-0.082
		c0.769,0.147,1.603,0.332,2.56,0.619c1.732,0.52,2.729,0.844,3.369,1.154c0.084-0.006,0.149-0.042,0.242-0.014
		c0.209,0.064,0.354,0.232,0.422,0.365c0.195,0.404,0.147,0.295,0.172,0.904c-0.004,0.018-0.01,0.033-0.019,0.047
		c-0.138,0.354-0.401,0.588-0.739,0.821c-0.336,0.233-0.768,0.44-1.267,0.634c-0.988,0.379-2.242,0.68-3.549,0.793
		c-0.582,0.049-1.169,0.137-1.761,0.219c-0.158,0.025-0.318-0.026-0.433-0.14c-0.039-0.038-0.062-0.089-0.085-0.137
		c-4.757,0.749-9.036,2.524-12.266,5.12c-0.434,0.348-0.854,0.66-1.215,0.91c-0.488,2.029-1.029,4.123-1.633,6.283
		c0.232,0.306,0.51,0.293,0.705-0.205c0.166-0.424,0.527-0.682,0.805-0.573c0.276,0.108,0.595-0.032,0.703-0.312
		c0.224-0.568,4.397-2.156,6.412-2.439c0.561-0.079,2.733-0.036,4.946,0.057c0.077-0.191,0.259-0.324,0.472-0.322
		c1.154,0.051,2.291,0.106,3.188,0.176c0.466,0.035,0.865,0.078,1.174,0.113c0.156,0.019,0.29,0.047,0.395,0.063
		c0.08,0.013,0.139,0.024,0.217,0.049c0,0,0.008-0.015,0.023-0.01c0.008,0.003,0.024,0.01,0.047,0.019
		c0.023,0.01,0.047,0.02,0.047,0.02l0.099,0.074l0.116,0.119l0.052,0.147c0,0,0.015,0.075,0.017,0.099
		c0,0.006-0.007,0.008-0.006,0.016c0.016,0.216-0.013,0.295-0.132,0.476c0,0.001,0.007,0.002-0.026,0.117
		c-0.029,0.101-0.062,0.192-0.074,0.28c-0.03,0.219-0.041,0.506-0.029,0.771c0.012,0.258,0,0.52-0.104,0.778
		c-0.217,0.532-0.699,0.934-1.353,1.219c-0.653,0.286-1.506,0.483-2.558,0.582c-0.316,0.028-1.121,0.172-1.979,0.315
		c-0.168,0.029-0.34-0.029-0.457-0.155c-0.034-0.038-0.062-0.082-0.083-0.128c-1.455,0.251-3.29,0.595-5.041,0.951
		c-4.049,0.824-7.355,1.992-9.186,3.158c-0.725,2.334-1.52,4.738-2.387,7.209c0.316,0.234,0.899,0.022,2.393-0.611
		c3.826-1.627,7.146-2.082,11.705-1.518c0.1-0.181,0.297-0.291,0.508-0.26c0.529,0.07,1.072,0.145,1.65,0.246
		c0.824,0.143,1.373,0.289,1.816,0.564c0.436,0.271,0.743,0.688,0.946,1.207c0.22,0.563,0.305,1.061,0.168,1.522
		c-0.041,0.138-0.224,0.343-0.277,0.382c-0.095,0.071-0.138,0.09-0.271,0.131c-0.118,0.037-0.235,0.053-0.379,0.088
		c-0.305,0.072-0.726,0.178-1.238,0.279c-0.95,0.189-2.271,0.436-3.705,0.68c-0.174,0.027-0.352-0.037-0.465-0.17
		c-0.021-0.024-0.036-0.052-0.051-0.078c-0.782,0.131-1.607,0.265-2.457,0.396c-7.188,1.127-10.99,2.359-13.012,4.334
		c-0.813,2.089-1.676,4.223-2.593,6.396c0.313,0.338,1.454,0.24,4.149-0.303c3.277-0.66,6.906-0.688,9.674-0.252
		c0.109-0.171,0.307-0.268,0.512-0.232c1.123,0.207,2.12,0.48,2.869,0.851c0.777,0.386,1.309,0.877,1.439,1.528
		c0.08,0.396,0.084,0.777-0.021,1.119c-0.149,0.5-0.532,0.895-1.019,1.113c-0.489,0.223-1.09,0.284-1.784,0.192
		c-0.558-0.073-2.005,0.074-3.371,0.337c-0.187,0.038-0.38-0.031-0.499-0.184c-0.01-0.012-0.016-0.026-0.023-0.039
		c-1.092,0.23-2.103,0.517-2.619,0.781c-0.201,0.103-0.763,0.203-1.25,0.224c-1.998,0.079-5.215,0.847-8.754,2.088
		c-1.949,0.683-2.772,1.347-3.75,3.021c-1.537,2.627-1.488,3.121,0.285,2.791c1.721-0.319,6.723-0.053,8.086,0.433
		c0.396,0.142,1.397,0.337,2.518,0.504c0.005-0.009,0.01-0.019,0.016-0.028c0.104-0.171,0.297-0.267,0.496-0.242
		c0.33,0.045,0.659,0.09,0.971,0.125c1.231,0.139,2.033,0.258,2.693,0.508c0.652,0.25,1.137,0.633,1.672,1.164
		c0.395,0.393,0.696,0.748,0.896,1.061c0.604,1.031,0.121,0.02,0.217,0.977c-0.123,0.349-0.42,0.52-0.785,0.658
		c-0.378,0.143-0.865,0.225-1.502,0.303c-1.27,0.154-3.145,0.258-5.799,0.313c-0.289,0.005-0.537,0.024-0.817,0.044
		c-0.187,0.012-0.366-0.082-0.463-0.242c-0.017-0.025-0.024-0.053-0.035-0.08c-0.735,0.071-1.259,0.183-1.304,0.297
		c-0.069,0.178-1.197,0.217-2.506,0.088c-1.309-0.127-3.805,0.063-5.545,0.424c-1.885,0.391-3.146,0.6-3.982,0.576
		c-0.997,1.943-2.011,3.869-3.038,5.777c0.753,0.209,2.388,0.445,4.19,0.588c2.357,0.188,4.337,0.455,4.4,0.594
		c0.045,0.101,0.985,0.359,2.291,0.646c0.113-0.171,0.316-0.26,0.519-0.22c0.354,0.074,0.737,0.148,1.131,0.224
		c2.022,0.386,3.632,0.929,4.722,1.558c0.549,0.316,0.961,0.647,1.219,1.023c0.248,0.362,0.358,0.848,0.197,1.26
		c-0.105,0.27-0.259,0.334-0.439,0.43c-0.204,0.104-0.393,0.139-0.645,0.203c-0.521,0.131-1.222,0.246-2.093,0.326
		c-1.669,0.152-3.979,0.217-6.663,0.194c-0.182-0.001-0.348-0.103-0.438-0.26c-0.012-0.022-0.02-0.048-0.027-0.072
		c-3.143-0.039-6.811-0.196-10.693-0.483c-0.354-0.026-0.672-0.035-0.968-0.035c-1.203,2.131-2.419,4.232-3.646,6.301
		c0.604,0.147,1.592,0.283,3.201,0.52c1.688,0.25,4.412,1.066,7.021,2.01c0.132-0.15,0.341-0.219,0.538-0.152
		c1.613,0.596,3.181,1.236,4.387,1.81c0.623,0.295,1.141,0.572,1.551,0.825c0.209,0.13,0.387,0.255,0.528,0.371
		c0.141,0.115,0.248,0.181,0.353,0.354c0.289,0.49,0.394,0.992,0.28,1.42c-0.093,0.354-0.39,0.648-0.696,0.805
		c-0.336,0.166-0.754,0.238-1.237,0.188c-1.444-0.154-2.138-0.146-7.548,0.082c-0.211,0.01-0.441,0.025-0.682,0.023
		c-0.183-0.002-0.349-0.102-0.439-0.26c-0.014-0.023-0.021-0.051-0.029-0.078c-3.877,0.002-8.747-0.737-10.811-1.691
		c-0.053-0.023-0.104-0.045-0.155-0.066c-0.916,1.475-1.835,2.928-2.755,4.357l7.3,2.881c0.888,0.352,1.671,0.664,2.378,0.949
		c0.137-0.146,0.346-0.205,0.54-0.133c1.974,0.809,3.293,1.391,4.205,1.9c0.937,0.524,1.467,1.021,1.862,1.565
		c0.242,0.334,0.436,0.571,0.576,0.808c0.139,0.233,0.232,0.354,0.211,0.666c-0.002,0.055-0.041,0.231-0.137,0.348
		c-0.095,0.113-0.182,0.164-0.262,0.205c-0.221,0.113-0.409,0.139-0.682,0.207c-0.729,0.186-1.601,0.211-2.242-0.039
		c-0.163-0.064-0.553-0.103-1.075-0.039c-0.513,0.061-1.117,0.209-1.685,0.396c-1.354,0.442-2.615,0.464-4.184,0.091
		c-0.156-0.039-0.283-0.152-0.344-0.302c-0.016-0.041-0.014-0.084-0.02-0.125c-0.149-0.041-0.297-0.078-0.455-0.127
		c-2.082-0.625-2.769-0.638-2.769-0.043c0,0.433-0.258,0.687-0.574,0.563c-0.315-0.125-0.573-0.59-0.575-1.037
		c0-0.586-0.883-1.15-3.192-2.041c-1.325-0.51-2.142-0.784-2.726-0.854c-0.908,1.348-1.813,2.668-2.716,3.965
		c0.164,0.916,0.808,1.236,4.177,2.557c1.853,0.726,3.695,1.59,5.362,2.479c0.154-0.146,0.386-0.188,0.58-0.081
		c1.878,1.023,3.502,2.098,4.642,3.016c0.281,0.229,0.426,0.426,0.644,0.636c0.028-0.007,0.06-0.013,0.06-0.013
		c0-0.002,0.139,0.018,0.139,0.018l0.101,0.021c0,0,0.042,0.028,0.058,0.039c0.062,0.039,0.08,0.058,0.098,0.076
		c0.035,0.036,0.047,0.061,0.061,0.077c0.024,0.033,0.034,0.062,0.053,0.095c0.039,0.063,0.08,0.141,0.127,0.23
		c0.098,0.184,0.203,0.408,0.285,0.622c0.041,0.104,0.09,0.194,0.113,0.315c0.012,0.063,0.014,0.131-0.001,0.236
		c-0.004,0.037-0.071,0.094-0.093,0.146l0.047,0.019c-0.039,0.103-0.1,0.09-0.146,0.142c-0.037,0.041-0.023,0.084-0.08,0.114
		l-0.025-0.028c-0.063,0.039-0.102,0.138-0.175,0.168c-0.194,0.082-0.386,0.108-0.597,0.131c-0.437,0.043-0.949,0.004-1.519-0.12
		c-1.017-0.224-2.438-0.202-3.005,0.006c-0.234,0.087-0.455,0.103-0.729,0.097c-0.274-0.004-0.6-0.045-0.961-0.103
		c-0.649-0.103-1.451-0.284-2.291-0.515c-0.154-0.045-0.279-0.16-0.336-0.313c-0.014-0.039-0.01-0.078-0.014-0.119
		c-2.995-0.864-6.732-2.36-8.616-3.621c-0.685-0.459-1.297-0.776-1.792-0.948c-0.767,1.047-1.529,2.073-2.285,3.08
		c0.006,0.362,0.077,0.707,0.209,0.939c0.389,0.688,5.278,3.979,8.754,6.068c0.162-0.135,0.391-0.164,0.58-0.053
		c0.715,0.422,1.365,0.778,1.866,1.041c0.272,0.143,0.517,0.27,0.687,0.34c0.107,0.045,0.183,0.074,0.205,0.08
		c0.037,0.012,0.015,0.016,0.084,0.016c0.578,0.008,1.004,0.408,1.104,0.941c0.021,0.102,0.097,0.227,0.328,0.418
		c0.202,0.17,0.517,0.33,0.825,0.451c0.354,0.139,0.673,0.342,0.941,0.568c0.032,0.009,0.25,0.148,0.469,0.383
		c0.199,0.449,0.041,0.293,0.095,0.875c-0.009,0.031-0.022,0.063-0.038,0.096c-0.146,0.318-0.395,0.477-0.675,0.608
		c-0.281,0.134-0.613,0.218-0.974,0.257c-0.713,0.075-1.518-0.021-2.139-0.439c-0.216-0.145-0.637-0.285-1.145-0.375
		c-0.504-0.088-1.063-0.119-1.537-0.072c-0.864,0.082-1.93-0.143-3.08-0.497c-0.154-0.048-0.276-0.168-0.328-0.32
		c-0.014-0.041-0.008-0.082-0.012-0.123c-3.291-1.118-7.299-3.569-8.713-5.651c-0.321-0.474-0.681-0.859-0.967-1.069
		c-0.533,0.673-1.063,1.337-1.59,1.985c0.002,0.174-0.008,0.352-0.041,0.541c-0.189,1.099,0.203,1.944,1.521,3.287
		c1.424,1.446,4.125,3.64,6.492,5.348c0.17-0.121,0.402-0.133,0.582-0.006c1.125,0.797,2.164,1.477,2.877,1.854
		c0.98,0.521,1.924,1.36,2.599,2.146c0.332,0.388,0.606,0.738,0.784,1.109c0.146-0.244,0.287,0.615,0.128,1.066
		c0,0-0.074,0.1-0.074,0.102l-0.041,0.055c0,0-0.036,0.015-0.044,0.021c-0.016,0.013-0.025,0.022-0.027,0.024
		c-0.002,0-0.01,0-0.023,0.012c-0.375,0.275-0.957,0.255-1.268-0.15c-0.027,0.063-0.074,0.123-0.129,0.188
		c-0.063,0.07-0.141,0.125-0.162,0.136c-0.143,0.077-0.383,0.071-0.517,0.019c-0.334-0.14-0.483-0.354-0.795-0.713
		c-0.286-0.328-0.558-0.521-0.911-0.646c-0.352-0.126-0.807-0.164-1.467-0.155c-0.904,0.011-2.379-0.393-3.938-0.868
		c-0.158-0.053-0.279-0.18-0.326-0.34c-0.008-0.027,0-0.058-0.004-0.088c-2.287-0.729-4.545-1.68-4.63-2.115
		c-0.051-0.265-0.727-1.146-1.503-1.957c-0.775-0.813-1.383-1.94-1.349-2.51c0.034-0.566-0.334-1.348-0.82-1.736
		c-0.185-0.146-0.313-0.293-0.399-0.44c-0.254,0.294-0.504,0.584-0.756,0.871c0.489,0.239,0.773,0.68,0.639,1.026
		c-0.65,1.662,2.103,5.699,6.34,9.605c0.064-0.035,0.136-0.061,0.211-0.064c0.137-0.008,0.271,0.039,0.373,0.133
		c0.771,0.697,1.572,1.396,2.416,2.058c1.359,1.065,2.221,1.737,2.75,2.224c-0.982-0.719,0.609,0.438,0.529,0.555
		c0.022,0.313,0.172,0.238,0.187,0.638c-0.005,0.017-0.011,0.032-0.019,0.046c-0.058,0.273-0.193,0.438-0.375,0.637
		c-0.142,0.15-0.275,0.256-0.474,0.323c-0.151,0.054-0.407,0.048-0.588-0.03c-0.403-0.174-0.692-0.494-1.207-1.055
		c-0.481-0.523-0.812-0.809-1.185-0.973c-0.366-0.164-0.789-0.213-1.448-0.203c-0.938,0.012-2.077-0.434-3.31-1.077
		c-0.144-0.071-0.244-0.206-0.271-0.364c-0.009-0.05,0.003-0.098,0.008-0.146c-1.546-0.871-3.195-2.125-4.516-3.515
		c-1.465-1.537-2.924-4.84-3.012-6.529c-0.559,0.603-1.109,1.186-1.651,1.746c0.565,0.273,0.577,0.623,0.075,1.412
		c-0.541,0.854-0.405,1.768,0.584,3.91c0.97,2.104,2,3.319,5.242,6.022c0.185-0.104,0.416-0.095,0.582,0.052
		c0.172,0.145,0.324,0.28,0.52,0.439c1.333,1.088,2.586,2.109,3.514,2.922c0.444,0.389,0.799,0.727,1.071,0.982
		c0.006,0.004,0.011,0.004,0.017,0.008c0.063,0.025,0.123,0.066,0.17,0.121c0.055,0.06,0.069,0.07,0.103,0.111
		c0.032,0.04,0.056,0.088,0.08,0.122c0.096,0.128,0.125,0.295,0.079,0.449c-0.081,0.243-0.333,0.39-0.586,0.335
		c-0.02-0.008-0.027-0.014-0.047-0.02c-0.045-0.012-0.119-0.028-0.117-0.028c-0.234-0.056-0.514-0.113-0.874-0.231
		c-0.802-0.265-1.869-0.675-3.073-1.167c-1.361-0.559-2.423-1.059-3.343-1.546c-0.149-0.076-0.251-0.227-0.271-0.395
		c-0.004-0.037-0.003-0.075,0.002-0.11c-1.086-0.603-1.869-1.165-2.418-1.741c-1.801-1.886-3.871-6.123-3.479-7.123
		c0.155-0.396,0.069-0.801-0.188-0.9c-0.197-0.078-0.271-0.516-0.205-1.063c-0.397,0.382-0.791,0.754-1.177,1.108
		c0.397,0.246,0.431,0.796,0.093,1.66c-0.846,2.158,1.531,6.373,5.172,9.664c0.008-0.006,0.018-0.014,0.026-0.02
		c0.021-0.016,0.011-0.016,0.028-0.025c0.013-0.002,0.025-0.002,0.037-0.002c0.009-0.006,0.016-0.008,0.022-0.012
		c0.164-0.043,0.339-0.002,0.468,0.109c0.635,0.554,1.306,1.096,1.989,1.563c0.908,0.622,1.548,1.112,1.972,1.52
		c0.006,0.015,0.014,0.027,0.02,0.043c-0.018-0.02,0.003-0.006,0.016,0.008c0.002,0.002,0.014,0.004,0.016,0.007
		c0.004,0.007,0.007,0.017,0.01,0.021c0.008,0.009,0.016,0.02,0.025,0.027c0.021,0.021,0.049,0.025,0.072,0.047
		c0.021,0.021,0.018,0.035,0.035,0.051c-0.013-0.008-0.035-0.016-0.063-0.023c-0.002,0.005-0.004,0.012-0.006,0.016
		c-0.004-0.01-0.01-0.021-0.01-0.021c-0.011-0.003-0.018-0.01-0.033-0.014c-0.021-0.006-0.09,0.002-0.09,0.002
		c0-0.002-0.146-0.002-0.146-0.002c0-0.002-0.056,0.031-0.11,0.063c0.143,0.135,0.26,0.256,0.342,0.359l0.026-0.012
		c0.026-0.076,0.046-0.164,0.046-0.164c0,0.047-0.006,0.094-0.018,0.14l0.279-0.109c-0.197-0.516,0.24,0.495,0.102,0.622
		c-0.053,0.164-0.184,0.291-0.35,0.335c-0.065,0.021-0.125,0.021-0.172,0.022c-0.164,0.006-0.328-0.02-0.539-0.063
		c-0.418-0.091-0.981-0.257-1.685-0.53c-1.302-0.511-2.507-1.279-3.613-2.16c-0.118-0.096-0.187-0.238-0.188-0.394
		c0-0.045,0.019-0.086,0.029-0.129c-2.92-2.47-4.978-6.047-5.149-9.429c-0.038-0.741-0.091-1.326-0.175-1.807
		c-0.323,0.279-0.642,0.547-0.957,0.809c0.233,0.445,0.305,0.813,0.198,1.085c-0.719,1.836,1.452,6.18,4.833,10.215
		c0.194-0.075,0.42-0.028,0.563,0.138c0.882,1.026,1.837,2.022,2.847,2.95c0.009,0.011,0.017,0.021,0.025,0.028
		c0.005,0.002,0.01,0.004,0.016,0.007c0.011,0.003,0.021,0.007,0.031,0.013c0.004,0.008,0.007,0.016,0.01,0.021
		c0.011,0.003,0.021,0.007,0.032,0.012l0.624,0.59c0.146,0.135,0.2,0.34,0.14,0.528c-0.006,0.019-0.02,0.03-0.027,0.048l0.459,0.42
		l-0.559-0.266c-0.044,0.046-0.094,0.087-0.154,0.111c-0.135,0.06-0.287,0.057-0.42-0.008l-1.457-0.697
		c-1.223-0.582-2.353-1.357-3.377-2.25c-0.115-0.102-0.177-0.25-0.17-0.4c0.002-0.053,0.022-0.1,0.041-0.146
		c-2.634-2.43-4.436-5.746-4.688-8.984c-0.095-1.209-0.366-1.969-0.602-1.688c-0.547,0.646-0.049,3.234,1.275,6.632l0.117,0.299
		c0.074,0.136,0.151,0.269,0.225,0.404c-0.187-0.042-0.373-0.085-0.559-0.127c-0.24-0.367-0.465-0.722-0.691-1.077l0.192-0.504
		c0.051-0.135,0.042-0.284-0.025-0.411c-0.492-0.931-0.969-1.866-1.437-2.805c-0.063-0.215-0.122-0.427-0.177-0.634l0.168-0.273
		c-0.216-0.133-0.394-0.823-0.511-1.279c-0.003-0.013-0.006-0.023-0.01-0.035c-0.094-0.573-0.116-1.015-0.035-1.222
		c0.082-0.211,0.405-0.276,0.755-0.188c0.269-0.199,0.542-0.411,0.82-0.629c-0.198-0.488-0.689-1.108-1.379-1.55
		c-1.541-0.979-3.1-4.289-3.802-7.299c-0.057-0.012-0.114-0.026-0.164-0.061c-0.119-0.072-0.202-0.193-0.229-0.332
		c-0.341-1.667-0.479-3.189-0.06-4.263c0.096-0.246,0.217-0.445,0.32-0.585c0.034-0.047,0.071-0.069,0.057-0.051
		c0.114-0.137,0.291-0.203,0.466-0.176c0.176,0.026,0.325,0.146,0.391,0.312c-0.011-0.026-0.006-0.022,0.009,0.021
		c0.058,0.16,0.108,0.342,0.164,0.557c0.116,0.438,0.236,1.023,0.35,1.664c0.108,0.609,0.23,1.189,0.356,1.74
		c0.019,0.078,0.017,0.158-0.002,0.236c-0.031,0.115-0.103,0.217-0.203,0.284c-0.002,0.002-0.005,0.004-0.008,0.006
		c0.839,3.457,2.074,5.972,3.781,7.716c0.356,0.362,0.656,0.698,0.904,1.01c0.396-0.328,0.8-0.676,1.211-1.037
		c-0.23-0.442-0.559-0.76-1.039-1.078c-1.636-1.084-3.178-4.422-3.84-7.623c-0.015-0.004-0.031-0.004-0.045-0.01
		c-0.167-0.059-0.292-0.199-0.329-0.371c-0.276-1.516-0.385-2.998-0.153-4.211c0.114-0.596,0.235-1.108,0.388-1.502
		c0.084-0.215,0.184-0.365,0.254-0.465c0.1-0.143,0.267-0.225,0.44-0.215c0.173,0.008,0.331,0.105,0.416,0.26
		c0.007,0.012,0.041,0.098,0.039,0.086c0.068,0.152,0.116,0.301,0.158,0.48c0.084,0.369,0.146,0.84,0.161,1.355
		c0.026,0.983,0.163,2.057,0.343,3.117c0.012,0.064,0.01,0.135-0.004,0.198c-0.025,0.097-0.078,0.185-0.153,0.25
		c-0.038,0.033-0.073,0.063-0.11,0.097c0.574,3.028,1.663,5.955,2.813,7.229c0.528,0.586,1.12,1.152,1.604,1.557
		c0.732-0.67,1.486-1.389,2.26-2.152c-0.078-0.362-0.262-0.652-0.547-0.83c-0.938-0.586-1.612-1.618-3.639-5.571
		c-0.389-0.759-0.66-1.419-0.835-2.089c-0.01-0.002-0.021-0.002-0.032-0.006c-0.176-0.053-0.308-0.197-0.347-0.379
		c-0.199-1.004-0.243-2.072-0.098-3.512c0.14-1.386,0.212-2.146,0.371-2.621c0.021-0.064,0.065-0.115,0.1-0.162
		c0.006-0.008,0.013-0.019,0.02-0.027c0.089-0.126,0.229-0.208,0.384-0.217c0.162-0.01,0.318,0.062,0.42,0.188
		c-0.011-0.016,0.084,0.084,0.165,0.229c0.339,0.599,0.586,1.646,0.69,2.563c0.067,0.604,0.19,1.256,0.356,1.922
		c0.024,0.084,0.028,0.172,0.008,0.258c-0.026,0.084-0.075,0.16-0.14,0.219c-0.02,0.021-0.037,0.035-0.057,0.057
		c0.941,3.414,2.924,7.096,4.637,8.514c0.849-0.875,1.717-1.8,2.604-2.772c-0.249-0.478-0.827-0.94-1.682-1.317
		c-0.273-0.121-0.551-0.416-0.616-0.654c-0.065-0.237-0.802-1.557-1.634-2.926c-0.663-1.092-1.125-2.064-1.405-3.047
		c-0.028-0.003-0.058-0.004-0.085-0.012c-0.186-0.049-0.326-0.197-0.366-0.385c-0.348-1.514-0.278-3.096,0.103-5.092l0.352-1.828
		c0.044-0.203,0.209-0.349,0.409-0.383l0.044-0.233l0.066,0.226c0.211,0.012,0.396,0.149,0.459,0.355l0.461,1.563
		c0.324,1.098,0.666,2.09,1.022,3.059c0.04,0.096,0.05,0.201,0.028,0.303c-0.021,0.085-0.065,0.16-0.125,0.225
		c-0.02,0.021-0.04,0.043-0.059,0.063c1.5,3.949,3.232,6.681,5.004,7.877c0.809-0.926,1.631-1.889,2.465-2.885
		c-0.027-0.803-0.602-1.617-1.737-2.5c-1.254-0.969-2.647-3.102-3.583-5.174c-0.03,0-0.059,0.002-0.088-0.002
		c-0.172-0.025-0.316-0.139-0.387-0.295c-0.646-1.531-1.078-2.955-0.91-3.994c0.144-0.89,0.359-2.133,0.471-2.781
		c0.07-0.408,0.043-0.607-0.018-0.698c-0.039-0.06-0.155-0.108-0.482-0.115c-0.167-0.005-0.26-0.002-0.343-0.008
		c-0.218-0.017-0.399-0.169-0.454-0.38c-0.053-0.212,0.033-0.434,0.217-0.553c0.098-0.063,0.225-0.152,0.41-0.258
		c0.309-0.17,0.425-0.281,0.477-0.377c0.012-0.024,0.022-0.074,0.024-0.063c0-0.002,0-0.023-0.056-0.096
		c-0.168-0.223-0.239-0.453-0.287-0.657c-0.045-0.2-0.092-0.38,0.002-0.654c0.063-0.188,0.229-0.321,0.425-0.343
		c-0.017,0.001,0.259,0.004,0.418,0.093c0.263,0.142,0.458,0.367,0.685,0.668c0.258,0.339,0.461,0.815,0.662,1.423
		c0.201,0.602,0.393,1.301,0.489,1.956c0.149,1.005,0.608,2.369,1.249,3.782c0.051,0.111,0.059,0.236,0.023,0.354
		c-0.017,0.051-0.041,0.096-0.07,0.137c-0.021,0.031-0.039,0.058-0.061,0.088c1.145,2.406,2.731,4.884,4.104,6.186
		c0.554,0.521,0.935,0.961,1.187,1.375c0.521-0.646,1.047-1.307,1.576-1.979c0.021-0.06,0.039-0.113,0.063-0.177
		c0.756-1.965,0.529-2.682-1.438-4.529c-0.875-0.821-2.257-2.926-3.17-4.799c-0.031,0.004-0.063,0.009-0.095,0.008
		c-0.187-0.012-0.349-0.125-0.427-0.293c-0.646-1.401-1.029-2.407-1.198-3.309c-0.173-0.924-0.097-1.746,0.13-2.752
		c0.145-0.639,0.247-1.377,0.293-2.051c0.049-0.679,0.023-1.279-0.046-1.602c-0.089-0.409-0.134-0.738-0.103-1.04
		c0.01-0.081,0.053-0.199,0.078-0.243c0.076-0.162,0.231-0.271,0.412-0.287c0.178-0.018,0.352,0.063,0.455,0.209
		c0.008,0.01,0.004,0.012,0.01,0.021c0.059,0.082,0.147,0.207,0.239,0.365c0.171,0.299,0.388,0.707,0.636,1.215
		c0.492,1.008,1.104,2.375,1.728,3.858c0.221,0.524,0.438,1.013,0.653,1.493c0.049,0.104,0.061,0.227,0.031,0.339
		c-0.017,0.05-0.041,0.095-0.072,0.138c-0.026,0.041-0.051,0.08-0.076,0.121c2.008,4.439,3.643,6.713,5.252,7.348
		c0.404,0.158,0.65,0.332,0.765,0.563c0.265-0.355,0.528-0.713,0.794-1.074c-0.183-0.201-0.047-0.898,0.416-2.256
		c0.991-2.898,1-2.813-0.393-3.613c-0.575-0.332-1.211-0.971-1.414-1.422c-0.203-0.451-0.586-0.904-0.852-1.008
		c-0.527-0.207-1.399-1.52-2.082-2.925c-0.021,0.001-0.039,0.007-0.061,0.004c-0.184-0.017-0.344-0.129-0.419-0.296
		c-0.41-0.908-0.741-1.791-0.821-2.505c-0.115-1.019-0.018-2.326,0.295-3.124c0.225-0.575,0.166-1.506-0.115-1.938
		c-0.209-0.322-0.351-0.689-0.379-1.076c-0.029-0.39,0.026-0.75,0.237-1.071c0.222-0.339,0.354-0.583,0.733-0.714
		c0.188-0.063,0.304-0.073,0.521,0.021c0.116,0.053,0.277,0.172,0.402,0.321c0.491,0.593,0.923,1.69,1.635,3.679
		c0.244,0.684,0.545,1.396,0.853,2.1c0.049,0.102,0.061,0.216,0.037,0.324c-0.018,0.047-0.043,0.094-0.072,0.135
		c-0.028,0.049-0.057,0.093-0.086,0.141c1.826,4.059,4.358,7.895,5.466,8.029c0.384,0.048,0.661,0.226,0.845,0.529
		c0.4-0.58,0.805-1.168,1.207-1.758c-0.26,0.049-0.057-0.664,0.655-2.541c1.194-3.154,1.137-3.383-1.013-3.978
		c-0.535-0.147-1.229-0.899-1.543-1.673c-0.314-0.771-1.092-1.982-1.726-2.694c-0.296-0.332-0.589-0.759-0.862-1.229
		c-0.027,0.004-0.055,0.01-0.082,0.01c-0.179-0.002-0.343-0.1-0.433-0.252c-0.433-0.813-0.823-1.719-1.06-2.547
		c-0.133-0.459-0.217-0.885-0.252-1.262c-0.035-0.379-0.039-0.691,0.084-1.004c0.041-0.104,0.045-0.17,0.043-0.203
		c-0.002-0.011-0.033-0.068-0.029-0.064c-0.064-0.067-0.234-0.141-0.618-0.188c-0.284-0.035-0.476-0.07-0.644-0.125
		c-0.168-0.051-0.297-0.186-0.342-0.354c-0.045-0.17,0.002-0.35,0.123-0.479c0.025-0.026,0.049-0.068,0.059-0.104
		c0.023-0.096,0.027-0.244-0.014-0.387c-0.096-0.344-0.033-0.637,0.092-1.021c0.125-0.383,0.332-0.772,0.566-1.125l0.676-1.028
		c0.084-0.131,0.225-0.215,0.379-0.229c0.154-0.014,0.308,0.044,0.414,0.157l2.178,2.29c0.666,0.701,1.375,1.604,2.029,2.486
		c0.092,0.119,0.125,0.271,0.092,0.418c-0.018,0.05-0.041,0.095-0.072,0.136c-0.002,0.004-0.004,0.008-0.008,0.012
		c0.516,0.714,0.963,1.398,1.244,1.93c0.668,1.264,1.944,3.104,2.836,4.092c1.951,2.162,2.25,1.973,3.68-2.336
		c0.831-2.504,0.838-3.052,0.042-3.531c-1.591-0.957-3.542-3.191-4.896-5.292c-0.033,0.007-0.065,0.013-0.1,0.014
		c-0.175,0.002-0.338-0.087-0.432-0.234c-0.482-0.781-0.87-1.545-1.12-2.203c-0.275-0.722-0.446-1.289-0.244-1.842
		c-0.026-0.066-0.045-0.103-0.099-0.166c-0.119-0.138-0.346-0.307-0.604-0.455c-0.603-0.343-0.946-0.978-0.962-1.632
		c-0.016-0.661,0.259-1.38,0.811-1.976c0.301-0.325,0.672-0.553,1.084-0.631s0.846-0.004,1.256,0.183
		c0.844,0.381,1.66,1.222,2.514,2.458c0.292,0.422,0.594,0.791,0.891,1.167c0.1,0.122,0.137,0.285,0.1,0.438
		c-0.016,0.049-0.041,0.095-0.071,0.136c-0.005,0.009-0.011,0.019-0.015,0.026c0.459,0.561,0.84,0.957,1.004,1.021
		c0.297,0.117,0.462,0.413,0.365,0.659c-0.305,0.776,3.36,4.907,4.475,5.045c0.779,0.096,1.021,0.479,0.902,1.438
		c-0.049,0.401-0.101,0.688-0.074,0.905c1.074-1.813,2.141-3.653,3.197-5.517c-0.398,0.111-0.664,0.281-0.772,0.517
		c-0.238,0.517-0.345,0.306-0.282-0.56c0.055-0.762,0.447-1.951,0.872-2.641c0.504-0.822,0.56-1.418,0.158-1.726
		c-0.339-0.259-1.935-1.442-3.548-2.632c-1.178-0.867-2.116-1.736-2.85-2.629c-0.041,0.012-0.078,0.033-0.121,0.035
		c-0.166,0.006-0.326-0.067-0.427-0.201c-0.377-0.508-0.706-1.021-0.971-1.563c-0.308-0.635-0.657-1.239-0.959-1.687
		c-0.156-0.23-0.296-0.416-0.407-0.541c-0.021-0.023-0.068-0.074-0.158-0.152c-0.027-0.023-0.037-0.033-0.041-0.037
		c0.002,0.002,0.002,0.003,0,0.003c-0.195-0.077-0.279-0.183-0.377-0.293c-0.097-0.11-0.185-0.243-0.264-0.396
		c-0.157-0.301-0.243-0.637-0.288-0.985c-0.046-0.368-0.076-0.663-0.082-0.905c-0.006-0.244-0.015-0.414,0.063-0.63
		c0.072-0.196,0.345-0.391,0.474-0.416c0.169-0.034,0.337,0.009,0.517,0.075c0.029-0.042,0.055-0.121,0.055-0.325
		c0-0.19,0.104-0.465,0.205-0.573c0.168-0.179,0.381-0.226,0.565-0.234c0.416-0.02,0.828,0.123,1.358,0.387
		c1.031,0.508,2.371,1.477,3.855,2.747c0.154,0.13,0.215,0.341,0.155,0.534c-0.002,0.007-0.006,0.014-0.008,0.021
		c0.767,0.672,1.562,1.422,2.356,2.236c2.149,2.203,4.137,3.854,4.463,3.709c0.323-0.145,0.946-0.891,1.385-1.659
		c0.511-0.897,0.462-0.468-0.133,1.196c-0.172,0.48-0.314,0.949-0.424,1.376c0.748-1.403,1.486-2.819,2.219-4.241
		c-0.405-0.318-0.49-0.904-0.446-1.822c0.098-2.021-0.386-2.729-1.213-1.777c-0.339,0.389-0.638,0.195-1.119-0.723
		c-0.36-0.69-0.904-1.352-1.207-1.47c-0.599-0.235-1.787-1.332-2.854-2.517c-0.039,0.014-0.08,0.023-0.121,0.027
		c-0.166,0.014-0.33-0.054-0.436-0.182c-0.816-0.938-1.535-1.818-1.818-2.514c-0.299-0.73-0.984-1.547-1.438-1.764
		c-0.289-0.138-0.547-0.262-0.732-0.359c-0.115-0.059-0.16-0.112-0.082-0.067c-0.136-0.082-0.225-0.221-0.242-0.378
		c-0.018-0.156,0.039-0.313,0.154-0.42c0.094-0.091,0.195-0.167,0.309-0.279c0.275-0.275,0.636-0.674,1.049-1.1
		c0.652-0.676,1.129-1.055,1.677-1.219c0.538-0.16,1.079-0.053,1.771,0.22c0.863,0.34,1.806,0.892,2.789,1.565
		c0.174,0.117,0.258,0.332,0.209,0.537c0,0,0,0,0,0.002c1.338,0.965,2.776,2.211,4.254,3.707c1.209,1.226,2.424,2.315,2.699,2.424
		c0.297,0.115,0.619,0.017,0.938-0.238c0.64-1.342,1.271-2.688,1.892-4.038c0.036-0.188,0.068-0.377,0.096-0.57
		c0.397-2.825,0.387-2.853-1.752-4.103c-2.36-1.379-4.155-2.434-5.525-3.26c-0.045,0.033-0.094,0.065-0.148,0.082
		c-0.139,0.043-0.289,0.024-0.414-0.051c-1.668-1.015-2.664-1.676-3.246-2.162c-0.295-0.248-0.498-0.422-0.647-0.672
		c-0.126-0.211-0.19-0.466-0.19-0.675c0-0.292,0.109-0.549,0.236-0.745c0.133-0.205,0.254-0.404,0.62-0.467
		c0.047-0.01,0.095-0.029,0.222-0.241c0.118-0.196,0.23-0.483,0.287-0.778c0.055-0.279,0.114-0.504,0.247-0.724
		c0.12-0.196,0.341-0.375,0.56-0.454c0.516-0.188,1.115-0.139,2.138-0.019c0.804,0.094,1.623,0.315,2.438,0.646
		c0.207,0.077,0.324,0.276,0.317,0.487c1.636,0.741,3.322,1.961,5.08,3.677c0.772,0.752,1.979,1.446,2.683,1.538
		c0.254,0.034,0.469,0.093,0.649,0.169c0.499-1.191,0.981-2.369,1.448-3.535l0.055-0.402c0.544-4.102,0.493-4.303-1.407-5.53
		c-1.099-0.71-3.768-1.472-6.149-1.92c-0.103,0.19-0.311,0.3-0.526,0.261c-0.979-0.172-1.915-0.294-2.586-0.32
		c-0.354-0.015-0.642,0.004-0.834,0.037c-0.099,0.016-0.149,0.028-0.157,0.029c-0.006,0.016-0.012,0.034-0.018,0.047
		c-0.081,0.157-0.237,0.262-0.414,0.273c-0.176,0.014-0.346-0.066-0.449-0.211c-0.188-0.266-0.262-0.549-0.343-0.936
		c-0.08-0.38-0.138-0.799-0.147-1.203c-0.009-0.404,0.01-0.77,0.143-1.109c0.133-0.338,0.379-0.586,0.652-0.781
		c0.273-0.193,0.588-0.342,0.951-0.337c0.166,0.002,0.311-0.062,0.42-0.146c0.1-0.074,0.118-0.133,0.118-0.207
		c0-0.394,0.222-0.625,0.479-0.851c0.258-0.229,0.606-0.437,1.004-0.569c0.767-0.259,2.009-0.24,3.25-0.166
		c0.158,0.01,0.301,0.092,0.39,0.223c0.024,0.035,0.031,0.078,0.045,0.119c1.238,0.105,2.319,0.326,2.442,0.601
		c0.086,0.19,0.724,0.356,1.416,0.368c0.836,0.014,1.494,0.38,1.953,1.086c0.859,1.322,2.932,2.186,3.277,1.365
		c0.083-0.195,0.191-0.215,0.307-0.09c0.401-1.166,0.791-2.318,1.162-3.453c-0.037-0.012-0.074-0.037-0.111-0.084
		c-0.188-0.248-0.251-1.233-0.139-2.192c0.18-1.54-0.02-1.853-1.699-2.672c-1.678-0.819-4.018-1.271-6.307-1.281
		c0,0.001-0.002,0.003-0.002,0.004c-0.064,0.212-0.262,0.356-0.484,0.354c-0.885,0.02-1.758,0.066-2.543,0.224
		c-0.939,0.188-1.582,0.287-2.125,0.224c-0.523-0.061-0.971-0.336-1.25-0.707c-0.392-0.521-0.563-1.105-0.51-1.674
		c0.053-0.574,0.324-1.142,0.809-1.648c0.086-0.09,0.15-0.121,0.234-0.182s0.185-0.136,0.301-0.209
		c0.231-0.146,0.502-0.304,0.824-0.479c0.652-0.354,1.474-0.75,2.295-1.121c1.25-0.563,2.44-0.878,3.623-0.983
		c0.168-0.015,0.33,0.055,0.436,0.184c0.025,0.031,0.033,0.068,0.05,0.104c1.955-0.068,3.937,0.516,6.302,1.793
		c2.274,1.227,2.59,1.277,2.941,0.467c0.25-0.578,0.345-0.707,0.386-0.32c0.318-1.196,0.613-2.364,0.896-3.518
		c-0.105-0.255-0.192-0.717-0.217-1.225c-0.056-1.15-0.373-1.402-2.652-2.117c-1.999-0.625-4-0.757-6.047-0.404
		c-0.004,0.016-0.008,0.03-0.012,0.047c-0.049,0.19-0.205,0.336-0.399,0.371c-0.97,0.201-1.933,0.502-2.929,0.928
		c-0.939,0.398-1.781,0.621-2.486,0.682c-0.706,0.059-1.286-0.027-1.732-0.314c-0.414-0.266-0.673-0.793-0.593-1.324
		c0.083-0.543,0.403-1.133,0.988-1.778c0.271-0.3,0.565-0.579,0.84-0.799c0.144-0.115,0.282-0.211,0.401-0.28
		c0.117-0.068,0.183-0.105,0.328-0.145c0.058-0.014,0.035-0.002,0.166-0.1c0.099-0.07,0.225-0.178,0.354-0.298
		c0.269-0.249,0.575-0.56,0.86-0.899c0.861-1.028,2.652-1.555,4.789-1.729c0.156-0.011,0.308,0.051,0.41,0.166
		c0.037,0.04,0.057,0.089,0.077,0.139c1.862-0.101,3.95,0.09,5.826,0.613c2.449,0.686,3.149,0.676,3.683-0.049
		c0.103-0.139,0.184-0.246,0.256-0.339c0.219-1.173,0.418-2.317,0.599-3.435c-0.287-1.024-1.481-1.746-1.776-0.994
		c-0.101,0.256-0.894,0.045-1.764-0.465c-1.588-0.932-3.238-0.994-5.938-0.082c-0.004,0.029-0.006,0.058-0.01,0.086
		c0,0.018-0.002,0.035-0.004,0.053c-0.042,0.162-0.16,0.293-0.318,0.349c-0.664,0.238-1.379,0.511-2.174,0.858
		c-1.759,0.771-3.002,1.193-3.857,1.256c-0.438,0.031-0.77,0.008-1.041-0.316c-0.055-0.066-0.191-0.299-0.189-0.492
		c0.002-0.188,0.051-0.361,0.125-0.551c0.127-0.326,0.245-1.009,0.245-1.416c0-0.354,0.166-0.654,0.402-0.934
		c0.237-0.28,0.538-0.501,0.892-0.652c0.268-0.113,0.547-0.285,0.764-0.465c0.229-0.188,0.355-0.352,0.394-0.445
		c0.138-0.354,0.38-0.588,0.711-0.888c0.33-0.297,0.744-0.591,1.205-0.894c0.849-0.555,1.833-1.078,2.751-1.451
		c0.167-0.073,0.359-0.051,0.506,0.061c0.023,0.018,0.042,0.04,0.063,0.061c0.479-0.172,0.918-0.288,1.271-0.322
		c1.875-0.182,3.281,0.104,6.79,1.376c0.886,0.321,1.42,0.497,1.763,0.501c0.147-1.253,0.272-2.466,0.377-3.639
		c-0.035-0.024-0.068-0.047-0.105-0.074c-1.361-0.991-6.296-2.041-6.549-1.395c-0.092,0.236-0.412,0.334-0.711,0.217
		c-0.211-0.084-1.225,0.24-2.506,0.777c0,0.021-0.002,0.039-0.002,0.059c0.002,0.035,0,0.072-0.006,0.107
		c-0.043,0.146-0.15,0.264-0.289,0.322c-0.385,0.167-0.768,0.344-1.177,0.541c-0.995,0.477-1.97,0.904-2.707,1.195
		c-0.368,0.146-0.681,0.254-0.929,0.328c-0.092,0.029-0.162,0.037-0.239,0.053c-0.01,0.005-0.016,0.006-0.022,0.009
		c-0.006,0.004-0.014,0.009-0.021,0.011c-0.007,0-0.016,0.008-0.021,0.01c-0.01,0.002-0.019,0.008-0.022,0.01
		c-0.006,0.001-0.013-0.008-0.017-0.006c-0.006,0-0.019,0.01-0.021,0.01c-0.094,0.021-0.193,0.014-0.283-0.02
		c-0.201-0.08-0.371-0.252-0.455-0.416c-0.104-0.199-0.111-0.367-0.105-0.57c0.01-0.4,0.135-0.828,0.369-1.311
		c0.467-0.964,1.324-2.056,2.373-2.947c1.287-1.1,2.168-1.774,3.037-2.23c0.162-0.086,0.355-0.079,0.511,0.02
		c0.022,0.016,0.042,0.035,0.063,0.053c0.906-0.397,1.813-0.526,3.164-0.584c1.291-0.055,2.422-0.289,2.512-0.52
		c0.09-0.231,0.584-0.255,1.098-0.054c1.12,0.438,2.488,0.554,3.441,0.397c0.045-1.289,0.066-2.521,0.064-3.683
		c0-0.123-0.002-0.239-0.003-0.36c-0.086,0.026-0.177,0.051-0.272,0.067c-0.343,0.06-0.531-0.128-0.418-0.416
		c0.108-0.278,0.412-0.421,0.685-0.33c-0.002-0.171-0.005-0.344-0.007-0.513c-0.243-0.082-0.553-0.092-0.987-0.063
		c-0.774,0.053-2.7,0.16-4.278,0.238c-1.408,0.07-3.27,0.657-4.806,1.396c0,0.021,0.001,0.041,0.002,0.063
		c0,0.054-0.007,0.104-0.022,0.154c-0.037,0.137-0.127,0.254-0.254,0.319c-0.56,0.293-1.057,0.594-1.439,0.892
		c-0.407,0.315-0.665,0.603-0.756,0.813C83.37,43.98,83.321,44,83.273,44.055c-0.048,0.054-0.095,0.113-0.159,0.174
		c-0.139,0.129-0.307,0.25-0.497,0.387c-0.391,0.279-0.89,0.578-1.399,0.835c-0.752,0.379-1.196,0.61-1.694,0.61
		c-0.24,0-0.481-0.098-0.628-0.209c-0.176-0.135-0.307-0.315-0.43-0.531c-0.193-0.342-0.285-0.663-0.232-0.982
		c0.052-0.318,0.288-0.593,0.586-0.754c0.064-0.033,0.166-0.111,0.325-0.273c0.155-0.156,0.347-0.365,0.546-0.604
		c0.4-0.482,0.855-1.094,1.275-1.721c0.938-1.407,2.394-2.65,3.998-3.564c0.149-0.086,0.332-0.088,0.485-0.006
		c0.036,0.02,0.068,0.043,0.099,0.069c1.64-0.858,3.418-1.362,4.963-1.306c1.226,0.045,2.885,0.074,3.688,0.065
		c0.633-0.006,1.279,0.019,1.633,0.058c-0.062-1.043-0.141-2.037-0.232-2.988c-0.467-0.084-1.104-0.148-1.975-0.211
		c-3.338-0.239-5.619,0.42-8.102,2.451c0.005,0.055,0.012,0.107,0.018,0.164c0.006,0.06,0,0.119-0.015,0.176
		c-0.03,0.096-0.088,0.181-0.168,0.242c-0.247,0.213-0.488,0.438-0.737,0.676c-0.646,0.617-1.354,1.234-1.994,1.748
		c-0.646,0.52-1.201,0.897-1.568,1.08c-0.567,0.279-1.073,0.416-1.523,0.404c-0.439-0.011-0.824-0.172-1.031-0.477
		c-0.201-0.295-0.211-0.743-0.035-1.123c0.188-0.404,0.543-0.752,1.057-1.115c0.343-0.242,0.885-0.971,1.107-1.531
		c0.506-1.264,1.994-2.643,3.686-3.834c0.143-0.104,0.33-0.127,0.493-0.059c0.024,0.01,0.046,0.025,0.069,0.04
		c1.211-0.806,2.502-1.456,3.592-1.728c1.435-0.356,4.189-0.561,6.125-0.451c0.207,0.012,0.4,0.021,0.586,0.029
		c-0.08-0.554-0.163-1.084-0.25-1.596c-0.106,0.008-0.213,0.016-0.331,0.029c-0.937,0.109-2.372,0.086-3.188-0.053
		c-1.643-0.279-3.203,0.303-6.576,2.578c0,0.004,0,0.008,0.002,0.012c0.019,0.078,0.018,0.158-0.002,0.235
		c-0.031,0.116-0.104,0.216-0.203,0.284c-0.308,0.208-0.603,0.396-0.939,0.633c-0.936,0.658-1.911,1.311-2.748,1.817
		c-0.837,0.505-1.464,0.862-1.902,1.001c-0.203,0.064-0.328,0.089-0.41,0.113c-0.227,0.067-0.471-0.03-0.586-0.238
		c-0.115-0.207-0.072-0.467,0.105-0.624c0.191-0.181,0.451-0.39,0.797-0.688c0.377-0.324,0.779-0.757,1.112-1.166
		c0.33-0.406,0.565-0.793,0.659-1.033c0.184-0.471,0.553-0.922,1.033-1.435c0.48-0.51,1.078-1.062,1.729-1.579
		c0.133-0.109,0.313-0.142,0.475-0.089c0.039,0.013,0.065,0.042,0.1,0.063c1.363-1.034,2.906-1.938,4.025-2.246
		c1.125-0.311,3.111-0.469,4.412-0.355c0.688,0.061,1.344,0.055,1.91,0.004c-0.063-0.289-0.125-0.572-0.189-0.843
		c-0.031,0.015-0.069,0.024-0.101,0.041c-0.478,0.259-1.825,0.267-2.993,0.019c-2.287-0.484-4.811,0.34-7.24,2.342
		c0.002,0.008,0.006,0.017,0.008,0.023c0.033,0.096,0.037,0.198,0.013,0.297c-0.03,0.096-0.089,0.18-0.168,0.244
		c-0.112,0.096-0.224,0.207-0.345,0.32c-0.993,0.922-2.682,2.126-3.967,2.886c-0.127,0.074-0.279,0.089-0.418,0.042
		c-0.139-0.047-0.25-0.152-0.306-0.287c-0.036-0.092-0.103-0.199-0.19-0.349c-0.029-0.048-0.043-0.074-0.055-0.095
		c-0.025-0.045-0.042-0.096-0.052-0.146c-0.039-0.037-0.071-0.08-0.097-0.128c0.021,0.038,0,0.03-0.063-0.116
		c-0.04-0.093-0.06-0.156-0.073-0.229c-0.019-0.245,0.144-0.469,0.383-0.528c0.035-0.37,0.082-0.373,0.189-0.008
		c0.17,0.022,0.323,0.131,0.396,0.296c0.002,0.012,0.037,0.043,0.092,0.182c0.005,0.021,0.01,0.041,0.013,0.06
		c0.06-0.052,0.104-0.114,0.222-0.24c0.151-0.163,0.289-0.378,0.367-0.565c0.092-0.219,0.114-0.328,0.102-0.396
		c-0.118-0.613,0.137-1.23,0.615-1.852c0.445-0.578,1.104-1.137,1.862-1.691c0.128-0.098,0.296-0.127,0.451-0.081
		c0.048,0.015,0.086,0.046,0.126,0.073c1.637-1.119,3.813-2.148,6.021-2.72c1.447-0.374,1.718-0.594,1.066-0.863
		c-0.492-0.202-1.327-0.101-2.317,0.206c0.169-0.194,0.306-0.443,0.424-0.668c0.043-0.082,0.082-0.157,0.116-0.212
		c0.021-0.035,0.052-0.069,0.077-0.104c0.257-0.106,0.516-0.212,0.774-0.317c0.716,0.079,1.513-0.196,2.074-0.618
		c0.174-0.119,0.354-0.255,0.552-0.426c0.597-0.229,1.196-0.454,1.796-0.676c0.122-0.033,0.243-0.057,0.366-0.097
		c-0.183,0.331,0.021,0.258,0.69-0.269c0.118-0.05,0.237-0.093,0.353-0.147c0.643-0.227,1.287-0.446,1.932-0.665
		c-0.138,0.124-0.267,0.245-0.371,0.362c-1.967,2.204-2.035,3.027-0.102,1.195c0.967-0.915,2.73-2.118,3.924-2.673
		c0.001,0,0.002-0.001,0.002-0.001c1.997-0.617,4.007-1.19,6.03-1.714c0.357,0.031,0.695,0.082,0.962,0.16
		c0.27,0.072,0.43,0.345,0.36,0.614c-0.043,0.17-0.173,0.306-0.34,0.358c-0.125,0.042-0.236,0.074-0.408,0.113
		c-0.429,0.099-1.022,0.208-1.748,0.281c-0.224,0.022-0.44,0.051-0.669,0.083c-0.209,0.031-0.416-0.071-0.518-0.257
		c-0.006-0.009-0.014-0.021-0.019-0.03c-2.89,0.444-4.422,1.415-6.709,4.041c-1.509,1.732-2.007,2.161-2.739,2.018
		c0.059,0.194,0.116,0.396,0.176,0.607c0.793-0.193,1.774-0.65,2.502-1.286c2.334-2.037,5.146-3.37,7.763-3.828
		c0.01-0.048,0.015-0.098,0.04-0.142c0.074-0.138,0.211-0.233,0.367-0.257c1.678-0.229,3.293-0.108,4.645,0.453
		c0.2,0.083,0.297,0.128,0.436,0.188c0.201,0.084,0.314,0.286,0.303,0.497c0.311,0.149,0.294,0.192-0.047,0.18
		c-0.088,0.185-0.277,0.305-0.487,0.289c-0.099-0.007-0.155,0.007-0.29-0.005c-1.126-0.093-2.645,0.012-4.063,0.248
		c-0.211,0.031-0.41-0.078-0.51-0.259c-0.715,0.136-1.397,0.302-1.981,0.5c-1.396,0.472-5.933,4.42-6.374,5.549
		c-0.436,1.111,0.717,0.683,1.977-0.733c1.342-1.509,4.48-3.25,6.857-3.919c0.009-0.073,0.029-0.144,0.07-0.208
		c0.074-0.116,0.189-0.197,0.322-0.226c0.29-0.069,0.59-0.135,0.883-0.164c0.989-0.095,2.336,0.157,3.455,0.516
		c0.553,0.177,1.027,0.404,1.379,0.613c0.063,0.039,0.117,0.091,0.158,0.153c0.004,0.003,0.012,0.003,0.016,0.006
		c0.004,0.008,0.008,0.016,0.01,0.022c0.083,0.074,0.201,0.17,0.271,0.234c0.142,0.129,0.198,0.327,0.146,0.512
		c-0.016,0.054-0.042,0.104-0.076,0.15c-0.014,0.016-0.037,0.04-0.064,0.069c-0.067,0.068-0.105,0.097-0.135,0.111
		c-0.056,0.028-0.08,0.04-0.131,0.058c-0.143,0.05-0.346,0.101-0.582,0.136c-0.441,0.066-1.01,0.082-1.607,0.062
		c-0.666-0.021-1.9,0.168-3.135,0.483c-0.138,0.034-0.283,0.01-0.402-0.067c-0.053-0.035-0.094-0.081-0.131-0.131
		c-0.56,0.159-1.111,0.337-1.611,0.53c-2.581,0.998-3.604,1.771-5.376,4.069c-1.688,2.188-2.288,2.661-2.624,2.068
		c-0.146-0.26-0.367-0.432-0.684-0.525c0.082,0.496,0.16,1.014,0.233,1.551c1.749-0.004,2.306-0.353,3.54-1.604
		c0.945-0.958,1.768-1.853,1.825-1.985c0.224-0.509,2.634-1.426,5.009-1.998c0.029-0.203,0.174-0.376,0.385-0.424
		c0.545-0.125,1.098-0.256,1.621-0.329c1.754-0.244,2.702-0.346,3.48-0.202c0.773,0.142,1.304,0.549,2.093,1.255
		c0.3,0.268,0.528,0.527,0.673,0.791c0.137,0.252,0.201,0.562,0.143,0.801c-0.112,0.451-0.521,0.736-1.056,0.878
		c-0.541,0.146-1.231,0.155-2.069,0.081c-0.804-0.07-2.582,0.224-4.236,0.689c-0.141,0.039-0.292,0.012-0.414-0.07
		c-0.055-0.037-0.096-0.086-0.133-0.139c-0.282,0.086-0.561,0.176-0.825,0.271c-4.47,1.588-7.617,3.948-8.243,6.182
		c-0.523,1.871,0.283,2.947,1.334,1.78c0.984-1.092,5.342-3.313,8.051-4.217c0.004-0.221,0.147-0.42,0.366-0.479
		c0.315-0.093,0.625-0.172,0.886-0.217c1.69-0.293,2.818-0.082,4.477,0.788c0.738,0.387,1.256,0.612,1.521,0.668
		c0.061,0.013,0.076,0.019,0.102,0.021c0.06-0.09,0.146-0.154,0.246-0.19c0.005-0.081,0.035-0.091,0.09-0.026
		c0.037-0.006,0.076-0.011,0.115-0.008c0.179,0.01,0.338,0.115,0.42,0.275c0.08,0.16,0.248,0.347,0.433,0.478
		c0.171,0.122,0.358,0.179,0.511,0.183c0.028,0.002,0.057,0.008,0.084,0.015c0.019,0,0.036,0.001,0.055,0.002
		c1.31-0.329-0.277,0.04,0.51,0.091c0.337,0.287,0.166,0.135,0.23,0.618C117.455,33.944,117.346,34.069,117.199,34.131z
		 M266.844,99.699h-0.002c-0.133,0.341-0.275,0.56-0.355,0.679c-0.102,0.153-0.278,0.239-0.463,0.225
		c-0.184-0.016-0.344-0.129-0.418-0.295c-0.102-0.222-0.176-0.502-0.268-0.996c-0.092-0.506-0.211-1.196-0.342-2.1
		c-0.049-0.342-0.1-0.652-0.148-0.968c-0.027-0.172,0.035-0.345,0.164-0.461c0.031-0.028,0.068-0.054,0.105-0.072
		c-0.699-4.056-1.602-5.891-3.656-7.735c-0.07-0.063-0.129-0.123-0.193-0.184c-0.625-0.074-1.377-0.126-2.244-0.127
		c2.229,1.712,3.701,4.587,3.955,7.443c0.197,0.064,0.344,0.238,0.354,0.451c0.039,0.92-0.031,1.84-0.265,2.717l-0.43,1.652
		c-0.051,0.215-0.234,0.362-0.453,0.379l-0.106,0.418l-0.056-0.433c-0.198-0.052-0.354-0.216-0.379-0.429l-0.354-2.852
		c-0.065-0.543-0.146-1.054-0.228-1.562c-0.022-0.158,0.027-0.317,0.142-0.433c0.03-0.029,0.069-0.043,0.104-0.064
		c-0.631-3.391-1.688-5.73-2.863-6.189c-0.524-0.207-1.036-0.574-1.479-1.01c-0.508,0.045-1.043,0.107-1.604,0.191
		c1.207,1.426,2.9,4.605,3.527,6.705c0.213,0.021,0.395,0.171,0.442,0.38c0.032,0.131,0.078,0.274,0.099,0.401
		c0.366,2.199,0.266,4.227-0.281,5.512c-0.188,0.438-0.451,0.763-0.75,0.982c-0.033,0.025-0.063,0.014-0.104,0.031
		c0.031-0.025,0.078-0.061,0.078-0.061l0.101-0.162l0.021-0.19c0,0-0.011-0.079-0.019-0.13c-0.082,0.102-0.17,0.191-0.262,0.26
		c-0.238,0.174-0.43,0.045-0.586-0.412l-0.127,0.166l-0.018,0.139l0.039,0.18l0.026,0.064c-0.014-0.021-0.051-0.037-0.065-0.063
		c-0.06-0.092-0.121-0.223-0.168-0.357c-0.178-0.5-0.289-1.242-0.39-2.354c-0.103-1.106-0.344-2.444-0.668-3.735
		c-0.03-0.146-0.002-0.298,0.089-0.418c0.03-0.043,0.073-0.072,0.116-0.103c-0.633-2.39-1.478-4.522-2.012-4.731
		c-0.263-0.103-0.904-0.824-1.474-1.645c-0.811,0.191-1.662,0.425-2.555,0.711c0.195,0.46,0.549,1.008,1.084,1.679
		c1.1,1.378,1.936,2.779,2.506,4.162c0.207,0.002,0.396,0.124,0.471,0.322c0.912,2.45,1.035,4.881,0.226,7.001
		c-0.092,0.238-0.19,0.449-0.299,0.667l-0.642,1.313c-0.092,0.205-0.305,0.32-0.522,0.293l-0.052,0.103l-0.01-0.113
		c-0.215-0.055-0.373-0.237-0.383-0.461l-0.25-2.663c-0.146-1.586-0.613-3.882-1.092-5.395c-0.045-0.135-0.033-0.284,0.037-0.409
		c0.035-0.063,0.082-0.116,0.139-0.159c-0.008-0.018-0.014-0.041-0.02-0.059c-0.689-1.918-2.252-4.219-3.525-5.445
		c-1.313,0.518-2.697,1.145-4.15,1.9c0.119,0.57,0.568,1.143,1.238,1.404c0.566,0.223,1.521,1.756,2.336,3.486
		c0.207-0.012,0.404,0.098,0.492,0.294c0.729,1.622,1.348,3.259,1.359,4.335c0.018,1.498-0.188,2.814-0.613,3.982
		c-0.059,0.164-0.119,0.326-0.189,0.488c-0.188,0.436-0.432,0.844-0.682,1.227c-0.275,0.426-0.51,0.724-0.768,0.938
		c-0.135,0.112-0.275,0.194-0.398,0.227c-0.07,0.02-0.328,0.044-0.488-0.047c-0.184-0.104-0.25-0.229-0.313-0.359
		c-0.063-0.129-0.123-0.283-0.164-0.465c-0.082-0.355-0.146-0.819-0.158-1.408c-0.063-2.611-0.567-5.003-1.512-7.105
		c-0.086-0.194-0.035-0.412,0.108-0.556c-0.719-1.483-1.647-2.821-2.783-3.979c-0.237-0.243-0.438-0.467-0.612-0.68
		c-1.181,0.721-2.416,1.539-3.705,2.463c-0.321,1.026-0.099,1.428,0.992,2.32c0.815,0.669,1.504,1.526,2.058,2.48
		c0.063-0.01,0.129-0.01,0.192,0.006c0.146,0.035,0.267,0.131,0.33,0.264c1.344,2.588,1.728,5.748,0.825,8.166
		c-0.188,0.504-0.434,0.939-0.729,1.35c-0.2,0.281-0.282,0.476-0.541,0.682c-0.051,0.042-0.104,0.061-0.157,0.083
		c-0.027,0.019-0.072,0.044-0.072,0.044s-0.012-0.006-0.016-0.006c-0.039,0.009-0.078,0.009-0.113,0.01
		c-0.035,0.003-0.076,0.007-0.076,0.007c-0.01-0.001-0.031-0.013-0.031-0.013l-0.016-0.006c0,0-0.004,0.016-0.006,0.015
		c-0.006,0-0.019-0.006-0.019-0.006c-0.021-0.004-0.047-0.019-0.047-0.019s-0.08-0.045-0.104-0.06
		c-0.021-0.015-0.027-0.024-0.041-0.034c-0.022-0.021-0.043-0.027-0.057-0.041c-0.023-0.027-0.043-0.056-0.061-0.078
		c-0.188-0.25-0.271-0.511-0.4-0.977c-0.127-0.46-0.26-1.061-0.449-1.869c-0.49-2.078-0.936-3.545-1.445-4.77
		c-0.084-0.199-0.031-0.43,0.131-0.575c-0.646-1.423-1.432-2.505-2.604-3.755c-0.254-0.272-0.488-0.549-0.701-0.822
		c-1.666,1.335-3.404,2.842-5.217,4.543c0.283,0.672,1.021,1.365,2.301,2.313c0.73,0.541,1.391,1.181,1.971,1.877
		c0.06-0.021,0.121-0.035,0.187-0.033c0.147,0.005,0.287,0.076,0.379,0.193c2.093,2.726,3.054,6.228,2.08,8.91
		c-0.381,1.047-0.435,2.404-0.17,3.082c0.101,0.252,0.158,0.471,0.196,0.66c0.101-1.468,0.037,0.494,0.029,0.576
		c-0.047,0.168-0.178,0.3-0.346,0.35c-0.168,0.049-0.348,0.008-0.479-0.107c0.006,0.006-0.076-0.065-0.117-0.118
		c-0.09-0.112-0.166-0.24-0.266-0.396c-0.199-0.315-0.424-0.732-0.697-1.238c-0.549-1.019-1.236-2.394-1.918-3.881
		c-0.777-1.689-1.412-2.965-2.047-4.021c-0.111-0.182-0.094-0.409,0.037-0.574c-0.795-1.264-1.568-2.177-2.479-2.977
		c-0.763-0.672-1.283-1.207-1.642-1.698c-1.176,1.194-2.377,2.474-3.604,3.833c-0.367,1.17-0.021,1.553,1.985,3.438
		c0.677,0.633,1.404,1.402,2.035,2.133c0.043-0.012,0.08-0.03,0.125-0.031c0.15-0.003,0.301,0.063,0.396,0.182
		c0.486,0.582,0.945,1.125,1.207,1.563c0.6,0.999,0.941,2.571,1.066,4.021c0.061,0.721,0.063,1.406-0.012,1.979
		c-0.037,0.287-0.103,0.533-0.185,0.746s-0.168,0.4-0.379,0.558c-0.003,0.011-0.005,0.03-0.015,0.072
		c-0.021,0.093-0.029,0.202-0.018,0.321c0.031,0.283,0.145,0.67,0.322,1.035c0.219,0.442,0.373,0.787,0.471,1.075
		c-0.178-1.071,0.178,0.579,0.076,0.595c-0.043,0.16-0.162,0.287-0.318,0.342c-0.156,0.056-0.328,0.031-0.463-0.065
		c-0.186-0.131-0.354-0.315-0.576-0.571c-0.465-0.537-1.063-1.373-1.707-2.47c-1.281-2.18-2.225-3.688-3.031-4.897
		c-0.112-0.172-0.112-0.395,0.002-0.563c0.007-0.008,0.013-0.017,0.019-0.024c-1.096-1.601-1.961-2.578-3.114-3.662
		c-0.726-0.68-1.187-1.195-1.449-1.658c-1.383,1.66-2.793,3.427-4.23,5.307c-0.092,0.907,0.35,1.434,1.859,2.84
		c1.16,1.081,2.108,2.158,2.895,3.316c0.031-0.006,0.064-0.012,0.098-0.012c0.172,0.002,0.332,0.09,0.424,0.238
		c1.158,1.807,1.955,3.805,2.552,6.311c0.26,1.092,0.426,2.13,0.528,2.974c0.049,0.416,0.099,0.798,0.107,1.117
		c0.072-1.64-0.01,0.599-0.023,0.481c-0.063,0.201-0.246,0.342-0.457,0.353c-0.211,0.011-0.405-0.11-0.489-0.306
		c-0.07-0.159-0.164-0.365-0.283-0.767c-0.058-0.198-0.099-0.235-0.144-0.329c-0.024,0.036-0.039,0.088-0.065,0.12
		c-0.086,0.104-0.176,0.198-0.373,0.255c-0.387,0.11-0.603-0.072-0.849-0.296c-0.502-0.456-1.02-1.312-1.807-2.728
		c-0.397-0.717-1.147-1.713-2.004-2.785c-0.135-0.172-0.145-0.41-0.021-0.592c0.003-0.004,0.005-0.008,0.007-0.012
		c-1.832-2.254-4.136-4.681-5.361-5.563c-1.475,2.059-2.975,4.236-4.493,6.541c0.221,0.544,0.772,1.049,1.721,1.697
		c0.885,0.605,2.647,2.363,4.186,4.07c0.047-0.021,0.092-0.045,0.143-0.05c0.162-0.017,0.32,0.046,0.429,0.167
		c1.075,1.217,1.989,2.355,2.387,3.063c0.201,0.363,0.295,0.779,0.328,1.203c0.035,0.424,0.017,0.847-0.133,1.223
		c-0.091,0.229-0.134,0.592-0.104,1.014c0.027,0.417,0.133,0.881,0.279,1.237c0.23,0.567,0.334,0.998,0.236,1.438
		c-0.025,0.119-0.055,0.231-0.129,0.332c-0.074,0.1-0.189,0.221-0.41,0.258c-0.248,0.043-0.43,0.047-0.656-0.186
		c-0.082-0.084-0.094-0.115-0.113-0.172c-0.023-0.057-0.033-0.12-0.039-0.18c-0.008-0.084,0.002-0.166,0.023-0.245
		c-0.102-0.021-0.23-0.048-0.568,0.014c-0.553,0.099-1.152-0.032-1.746-0.521c-0.602-0.49-1.326-1.312-2.453-2.743
		c-0.117-0.148-0.217-0.284-0.328-0.42c-0.141-0.158-0.166-0.387-0.067-0.572c0.008-0.012,0.017-0.023,0.021-0.035
		c-2.346-2.847-4.67-4.971-6.149-5.699c-1.222,1.948-2.455,3.979-3.701,6.092c0.217,0.662,0.845,1.139,2,1.723
		c1.567,0.791,3.302,2.359,4.672,4.07c0.039-0.014,0.08-0.021,0.123-0.024c0.177-0.013,0.347,0.067,0.447,0.212
		c1.047,1.383,1.856,2.827,2.149,4.08c0.189,0.809,0.326,1.46,0.381,2.005c0.054,0.542,0.054,0.952-0.102,1.325
		c-0.092,0.219-0.305,0.425-0.486,0.501c-0.225,0.093-0.461,0.079-0.705,0.033c-0.51-0.095-1.114-0.364-1.891-0.794
		c-0.803-0.445-1.686-1.116-2.475-1.77c-0.162-0.131-0.219-0.341-0.164-0.533c-0.342-0.297-0.646-0.586-0.873-0.84
		c-0.787-0.882-2.762-2.482-4.391-3.561c-0.703-0.467-1.254-0.868-1.688-1.229c-1.047,1.859-2.104,3.776-3.166,5.758
		c0.306,0.498,1.131,0.936,2.789,1.625c1.976,0.82,3.795,1.99,5.08,3.181c0.03-0.013,0.062-0.034,0.094-0.04
		c0.162-0.025,0.328,0.027,0.442,0.145c0.818,0.826,1.429,1.629,1.607,2.449c0.197,0.896-0.082,2.045-0.533,3.084
		c-0.229,0.521-0.518,1.006-0.813,1.375c-0.289,0.36-0.541,0.641-0.961,0.734c-0.1,0.021-0.205,0.012-0.299-0.027
		c-0.023-0.01-0.008-0.003-0.016-0.006c-0.05-0.018-0.107-0.033-0.189-0.074c-0.162-0.078-0.316-0.193-0.516-0.311
		c-0.379-0.227-0.89-0.545-1.445-0.911c-0.178-0.115-0.256-0.326-0.213-0.528c-0.652-0.439-1.381-0.947-2.137-1.49
		c-2.361-1.701-4.843-3.199-5.511-3.332c-0.159-0.03-0.291-0.064-0.407-0.104c-0.855,1.674-1.677,3.322-2.462,4.947
		c0.212,0.133,0.281,0.404,0.373,0.873c0.125,0.632-0.038,1.436-0.362,1.785c-0.479,0.519-0.129,0.815,1.856,1.59
		c1.349,0.523,3.496,1.482,4.776,2.13c0.328,0.165,0.63,0.323,0.923,0.483c0.047-0.039,0.098-0.072,0.153-0.095
		c0.138-0.048,0.289-0.034,0.414,0.037c1.326,0.763,2.562,1.679,4.812,3.468c0.019,0.006,0.032,0.012,0.049,0.02
		c0.125,0.05,0.224,0.146,0.274,0.271c-0.024-0.096,0.13,0.152,0.095,0.454c-0.006,0.027-0.015,0.036-0.019,0.048
		c-0.006,0.016-0.01,0.023-0.012,0.032l-0.033-0.013c0,0.004-0.004,0.011-0.006,0.016l0.031,0.014
		c-0.004,0.008-0.004,0.01-0.006,0.016c-0.002,0.003-0.004,0.012-0.006,0.016c0,0-0.049-0.002-0.055-0.002
		c-0.062,0.15-0.121,0.295-0.273,0.42c-0.197,0.162-0.447,0.315-0.756,0.486c-1.775,0.986-2.723,1.512-3.666,1.604
		c-0.916,0.09-1.703-0.283-2.93-0.929c-0.191-0.099-0.289-0.302-0.269-0.507c-1.437-0.736-3.933-1.882-5.771-2.643
		c-2.328-0.963-3.182-1.438-3.168-1.824c-0.783,1.798-1.521,3.563-2.217,5.291c0.055,0.121,0.08,0.412,0.073,0.883
		c-0.021,1.246,0.29,1.626,1.836,2.247c1.022,0.411,3.783,1.552,6.136,2.534c0.197,0.082,0.396,0.162,0.592,0.242
		c0.047-0.056,0.104-0.103,0.17-0.131c0.125-0.06,0.271-0.063,0.398-0.012c0.955,0.379,1.9,0.729,2.652,0.982
		c0.4,0.138,0.742,0.248,1.02,0.326c0.289,0.082,0.484,0.123,0.564,0.131c0.242,0.02,0.465,0.101,0.68,0.176
		c0-0.001,0.176-0.077,0.176-0.077l0.129-0.004c0,0,0.078,0.017,0.103,0.021c0.024,0.006,0.03,0.012,0.047,0.02
		c0.063,0.023,0.086,0.044,0.104,0.061c0.041,0.025,0.074,0.036,0.09,0.053c0.031,0.027,0.049,0.056,0.074,0.084
		c0.055,0.058,0.104,0.131,0.172,0.213c0.137,0.164,0.305,0.373,0.434,0.57c0.063,0.098,0.109,0.183,0.156,0.297
		c0.023,0.058,0.049,0.117,0.059,0.224c0.004,0.042-0.061,0.123-0.074,0.188l0.053,0.004c-0.016,0.086-0.088,0.143-0.139,0.217
		c-0.02,0.021-0.002,0.043-0.025,0.063l-0.016-0.007c-0.043,0.052-0.049,0.126-0.1,0.162c-0.141,0.097-0.299,0.146-0.471,0.179
		c-0.131,0.025-0.383,0.182-0.699,0.438c-0.303,0.248-0.615,0.562-0.854,0.886c-0.648,0.875-1.42,1.431-2.427,1.543
		c-0.979,0.108-2.153-0.164-3.739-0.81c-0.209-0.08-0.326-0.285-0.314-0.5c-0.959-0.412-2.063-0.944-3.373-1.619
		c-2.907-1.498-5.539-2.678-5.846-2.625c-0.086,0.016-0.172-0.002-0.254-0.033c-0.533,1.505-1.029,2.979-1.496,4.432
		c0.07-0.104,0.136-0.216,0.185-0.328c0.297-0.687,0.405-0.274,0.3,1.14l-0.166,2.212l3.83,1.311
		c1.536,0.523,3.516,0.979,5.178,1.219c0.096-0.197,0.301-0.32,0.524-0.287c0.485,0.063,0.956,0.123,1.313,0.133
		c1.758,0.047,3.805,0.22,4.686,0.396c0.326,0.063,0.582,0.118,0.795,0.2c0.213,0.08,0.398,0.171,0.561,0.384l-0.27,0.194
		c0.09,0.134,0.094,0.308,0.035,0.538c0.035-0.039,0.072-0.13,0.262-0.341c0.021-0.277,0.025,0.563-0.055,0.834
		c-0.004,0.011-0.008,0.021-0.012,0.03c-0.164,0.416-0.246,0.679-0.629,0.863c-0.211,0.1-0.328,0.108-0.545,0.041
		c-0.136-0.041-0.279-0.134-0.412-0.252c-0.078-0.07-0.113-0.076-0.146-0.093c-0.019,0.028-0.021,0.034-0.058,0.142
		c-0.049,0.151-0.108,0.364-0.155,0.631c-0.19,1.107-0.904,1.924-2.043,2.293c-1.117,0.363-2.644,0.367-4.625,0.103
		c-0.138-0.021-0.261-0.099-0.339-0.211c-0.036-0.054-0.061-0.11-0.074-0.172c-0.245-0.038-0.493-0.077-0.754-0.123
		c-3.049-0.539-4.848-1.147-7.1-2.411l-2.379-1.332c-0.647,2.448-1.205,4.818-1.668,7.104c0.512-0.408,0.867-0.789,1.014-1.115
		c0.25-0.561,0.375-0.317,0.357,0.693c-0.025,1.594,0.684,2.258,1.869,1.754c0.368-0.156,2.193,0.16,4.057,0.707
		c1.148,0.336,2.354,0.563,3.56,0.676c0.086-0.184,0.271-0.305,0.481-0.291c0.933,0.064,1.855,0.061,2.752-0.016
		c1-0.084,1.978-0.089,2.775-0.021c0.404,0.031,0.77,0.094,1.064,0.162c0.293,0.066,0.504,0.123,0.727,0.283
		c0.016,0.012,0.025,0.025,0.041,0.039c-0.758-1.119,1.043,1.043,0.648,1.123c-0.016,0.055-0.104,0.28-0.271,0.457
		c-0.174,0.188-0.396,0.361-0.668,0.594c-0.646,0.553-1.641,1.522-2.188,2.107c-1.021,1.088-3.075,1.585-5.476,1.715
		c-0.146,0.01-0.286-0.045-0.391-0.146c-0.046-0.047-0.078-0.102-0.104-0.159c-1.934,0.054-4.076-0.177-6.056-0.722
		c-2.146-0.59-4.291-1.418-4.772-1.84c-0.146-0.129-0.285-0.217-0.43-0.277c-0.343,2.314-0.59,4.535-0.754,6.662l1.139-1.01
		l0.789,1.354c0.646,1.107,1.324,1.499,3.756,2.152c1.972,0.531,3.961,0.629,5.977,0.316c0.042-0.195,0.189-0.354,0.396-0.394
		c1.256-0.236,2.539-0.646,3.821-1.216c1.349-0.598,2.213-0.9,2.945-0.83c0.344,0.033,0.688,0.185,0.922,0.435
		c0.104,0.108,0.155,0.284,0.233,0.42c0.066-0.026,0.17-0.063,0.17-0.063c0.002,0,0.263,0.031,0.265,0.031
		c0.172,0.069,0.291,0.229,0.312,0.412c0,0,0,0.032-0.002,0.055c-0.002,0.004-0.006,0.011-0.009,0.017
		c0.007,0.06,0.003,0.117-0.014,0.177c-0.009,0.018-0.013,0.029-0.021,0.049c-0.01,0.014-0.021,0.026-0.033,0.039
		c-0.002,0.004-0.006,0.016-0.008,0.018c-0.059,0.095-0.149,0.166-0.256,0.203c0.027,0.125,0.074,0.418,0.033,0.51
		c-0.07,0.217-0.275,0.357-0.502,0.352c-0.232-0.013-0.336-0.061-0.563-0.146c-0.181-0.072-0.354-0.094-0.463-0.072
		c-0.084,0.018-0.111,0.053-0.121,0.079c-0.035,0.088-0.08,0.179-0.158,0.265c-0.078,0.088-0.209,0.161-0.326,0.182
		c-0.141,0.025-0.283-0.079-0.428-0.166c-0.021,0.021-0.035,0.037-0.113,0.154c-0.168,0.252-0.379,0.688-0.574,1.231
		c-0.311,0.858-0.611,1.461-1.08,1.924c-0.467,0.46-1.057,0.753-1.949,1.074c-0.537,0.194-1.18,0.347-1.813,0.454
		c-0.144,0.021-0.285-0.021-0.396-0.112c-0.048-0.039-0.082-0.09-0.111-0.144c-2.901,0.398-6.682,0.054-9.516-0.971
		c-1.171-0.422-2.013-0.646-2.555-0.685c-0.007,1.892,0.059,3.692,0.18,5.419c0.508-0.427,0.907-0.87,1.025-1.175
		c0.307-0.779,0.396-0.714,0.706,0.508c0.333,1.317,0.461,1.394,2.104,1.233c0.963-0.092,2.295,0.045,2.961,0.308
		c1.194,0.468,3.104,0.213,5.265-0.636c-0.001-0.002-0.001-0.004-0.001-0.004c-0.016-0.215,0.107-0.416,0.305-0.5
		c0.896-0.377,1.814-0.817,2.743-1.383c1.384-0.842,2.708-1.338,3.681-1.453c0.479-0.057,0.83-0.08,1.193,0.158
		c0.02,0.012,0.004-0.008,0.031,0.012c0.022,0.021,0.047,0.039,0.065,0.063c0.093,0.091,0.173,0.185,0.127,0.142
		c0.138,0.136,0.187,0.338,0.123,0.521c-0.047,0.112-0.071,0.229-0.079,0.389c-0.009,0.031-0.021,0.063-0.037,0.096
		c-0.043,0.091-0.088,0.15-0.134,0.203c-0.022,0.024-0.055,0.039-0.077,0.061c-0.013,0.012-0.017,0.025-0.035,0.041
		c-0.011,0.007-0.031,0.021-0.051,0.033c-0.011,0.007-0.025,0.011-0.044,0.021c-0.018,0.01-0.063,0.027-0.065,0.028
		c0,0-0.076,0.015-0.098,0.017s-0.046,0.012-0.06,0.012c-0.031,0.003-0.043-0.006-0.068-0.008c-0.051-0.006-0.098-0.021-0.147-0.041
		c-0.055-0.021-0.092-0.069-0.141-0.108c-0.076,0.073-0.197,0.229-0.314,0.479c-1.352,2.903-3.088,4.729-5.713,5.858
		c-0.146,0.063-0.312,0.058-0.447-0.019c-0.042-0.022-0.07-0.062-0.104-0.096c-1.049,0.406-2.242,0.721-3.629,0.963
		c-2.035,0.354-7.896-0.504-8.457-1.236c-0.035-0.045-0.097-0.061-0.17-0.063c0.223,1.608,0.495,3.141,0.813,4.586
		c0.207-0.269,0.32-0.523,0.287-0.709c-0.07-0.402,0.104-0.302,0.425,0.245c0.386,0.662,1.455,1.183,3.638,1.763
		c2.926,0.779,3.324,0.723,7.455-1.074c0.094-0.039,0.186-0.082,0.278-0.123c-0.031-0.217,0.077-0.432,0.276-0.527
		c1.028-0.475,2.026-0.957,2.789-1.402c0.399-0.233,0.739-0.459,0.998-0.646c0.272-0.196,0.432-0.332,0.487-0.408
		c0.56-0.778,1.308-1.271,2.051-1.381c0.688-0.103,1.412,0.218,1.729,0.878c0.006,0.008,0.008,0.014,0.012,0.021
		c0.004,0.002,0.01,0.004,0.016,0.006c0.004,0.008,0.006,0.018,0.008,0.021c0.004,0.004,0.017,0.002,0.019,0.008l-0.006,0.016
		c-0.035-0.053,0.062,0.096,0.082,0.16c-0.05-0.25,0.146,0.414,0.069,0.609c-0.053,0.184-0.207,0.319-0.395,0.354
		c0.006,0-0.164,0.021-0.273,0.002c-0.227-0.039-0.444-0.119-0.774-0.248c-0.313-0.123-0.517-0.199-0.629-0.209
		c-0.033-0.004-0.106,0.018-0.152,0.064c-0.086,0.1-0.182,0.289-0.307,0.646c-0.123,0.354-0.263,0.85-0.441,1.5
		c-0.346,1.26-0.6,2.029-1.098,2.664c-0.498,0.637-1.195,1.08-2.396,1.793c-0.15,0.091-0.342,0.188-0.508,0.273
		c-0.137,0.063-0.295,0.063-0.432,0c-0.049-0.021-0.086-0.06-0.124-0.096c-1.347,0.661-2.994,1.23-4.037,1.368
		c-1.94,0.252-5.786-0.301-7.858-1.063c0.229,0.727,0.463,1.428,0.707,2.102c0.045-0.32,0.184-0.16,0.576,0.52
		c0.504,0.873,1.029,1.053,3.65,1.248c2.91,0.217,4.615-0.123,7.451-1.852c-0.047-0.211,0.041-0.43,0.226-0.545
		c0.698-0.438,1.438-0.916,2.312-1.533c1.008-0.711,1.996-1.379,2.789-1.873c0.396-0.245,0.74-0.449,1.021-0.602
		c0.142-0.076,0.269-0.141,0.362-0.188c0.048-0.021,0.078-0.048,0.115-0.063c0.039-0.018,0.029-0.027,0.188-0.055
		c0.465-0.082,0.887,0.077,1.129,0.368c0.248,0.3,0.306,0.707,0.166,1.063c-0.125,0.318-0.424,0.613-0.842,0.746
		c-0.479,0.154-0.91,0.744-1.218,1.998c-0.192,0.785-0.453,1.416-0.899,1.978c-0.449,0.56-1.069,1.021-1.961,1.615
		c-0.586,0.389-1.138,0.729-1.694,1.028c-0.146,0.08-0.32,0.086-0.472,0.015c-0.039-0.021-0.065-0.056-0.101-0.084
		c-2.557,1.266-5.059,1.629-8.573,1.336l-2.109-0.175c0.491,0.979,0.989,1.884,1.485,2.714c0.419,0.075,0.908,0.103,1.371,0.06
		c0.918-0.087,2.307-0.041,3.084,0.1c1.402,0.254,3.699-0.467,5.939-1.76c-0.012-0.06-0.02-0.117-0.008-0.178
		c0.023-0.145,0.109-0.271,0.234-0.347c0.779-0.476,1.535-1.015,2.25-1.611c1.518-1.271,2.566-2.026,3.371-2.338
		c0.396-0.151,0.766-0.205,1.088-0.084c0.293,0.11,0.488,0.365,0.639,0.649c0.008,0.011,0.018,0.019,0.023,0.027
		c0.008,0.018,0.033,0.018,0.041,0.034c-0.002,0.005-0.004,0.011-0.006,0.017c0.006,0.002,0.012,0.004,0.016,0.006
		c0.002,0.013,0.002,0.025,0.004,0.037c0.006,0.013,0.016,0.002,0.016,0.008c0,0.005-0.004,0.011-0.006,0.015
		c0.01,0.011,0.018,0.021,0.025,0.029c0.014,0.026,0.006,0.032,0.014,0.06c0.01,0.01,0.018,0.02,0.023,0.028
		c0.002,0.004-0.006,0.012-0.006,0.017c-0.039-0.093,0.035,0.198,0.012,0.295c-0.047,0.168-0.178,0.301-0.344,0.352
		c-0.168,0.049-0.349,0.008-0.479-0.107c-0.021-0.018-0.032-0.023-0.082-0.068c-0.114-0.104-0.144-0.104-0.17-0.121
		c-0.039,0.048-0.094,0.134-0.17,0.334c-0.08,0.216-0.164,0.486-0.259,0.847c-0.577,2.224-1.438,3.446-3.471,4.685
		c-0.182,0.108-0.406,0.086-0.569-0.043c-0.378,0.217-0.791,0.438-1.257,0.67c-2.771,1.396-6.16,2.07-9.01,1.828
		c0.582,0.76,1.127,1.407,1.614,1.944c0.789-0.03,1.974,0.158,2.652,0.423c1.532,0.602,5.044-0.689,8.19-2.863
		c-0.013-0.047-0.027-0.092-0.025-0.142c0.008-0.153,0.084-0.295,0.207-0.387c0.516-0.371,1.025-0.771,1.498-1.179
		c0.834-0.719,1.621-1.395,2.248-1.885c0.32-0.25,0.598-0.445,0.791-0.582c0.063-0.043,0.119-0.088,0.223-0.148
		c0.16-0.1,0.359-0.102,0.521-0.008c0.16,0.095,0.258,0.269,0.252,0.455c-0.002,0.049-0.006,0.188-0.035,0.367
		c-0.063,0.387-0.187,0.916-0.389,1.504c-0.49,1.414-1.48,2.68-2.796,3.746c-0.174,0.135-0.407,0.135-0.588,0.016
		c-2.577,1.929-6.342,3.134-10.278,3.109c0.643,0.562,1.282,1.057,1.92,1.514c0.625-0.088,1.387-0.101,1.979-0.014
		c1.715,0.248,5.554-1.309,8.336-3.266c-0.012-0.037-0.028-0.072-0.03-0.111c-0.005-0.16,0.063-0.313,0.188-0.412
		c0.307-0.234,0.616-0.465,0.866-0.682c0.699-0.604,1.242-1.059,1.688-1.377c0.226-0.162,0.429-0.279,0.599-0.366
		c0.17-0.088,0.266-0.155,0.502-0.168c0.121-0.007,0.268,0.032,0.358,0.104c0.048,0.033,0.074,0.072,0.103,0.111
		c0.008,0.012-0.141,0.115-0.26,0.196c0.002,0.007,0.004,0.017,0.008,0.021l0.297-0.146c0.008,0.015,0.004,0.011,0.01,0.021
		l0.012,0.021l0.01,0.021c0.017,0.055,0.033,0.113,0.035,0.141c0.002,0.041-0.004,0.078-0.006,0.107
		c-0.002,0.059-0.012,0.115-0.021,0.19c-0.043,0.347-0.176,0.771-0.407,1.369c-0.297,0.76-0.843,1.51-1.533,2.237
		c-0.146,0.156-0.373,0.189-0.563,0.106c-1.535,1.492-3.711,2.812-5.656,3.28c-2.553,0.613-2.342,1.396,0.291,1.08
		c1.994-0.239,4.924-1.821,6.938-3.635c-0.018-0.039-0.043-0.072-0.051-0.115c-0.031-0.166,0.021-0.334,0.143-0.451
		c0.318-0.307,0.627-0.604,0.854-0.885c0.771-0.946,1.396-1.596,1.933-1.955c0.26-0.174,0.45-0.309,0.778-0.313
		c0.14,0.049,0.302-0.139,0.688,0.469c-0.096-0.192-0.008,0.386-0.008,0.58c-0.14,0.47-0.484,0.951-0.943,1.522
		c-0.439,0.55-1,1.149-1.602,1.722c-0.146,0.137-0.361,0.174-0.548,0.094c-0.004,0-0.006-0.002-0.012-0.004
		c-0.649,0.59-1.351,1.142-2.015,1.559c-1.305,0.818-2.309,1.633-2.229,1.805c0.205,0.459,3.129-1.132,5.699-2.939
		c-0.009-0.027-0.019-0.057-0.021-0.086c-0.018-0.18,0.063-0.354,0.209-0.457c0.748-0.541,1.467-1.104,2.029-1.605
		c0.611-0.547,1.082-0.958,1.438-1.257c0.244-0.205,0.371-0.296,0.47-0.362c0.183-0.131,0.422-0.131,0.603,0.002
		c0.091,0.068,0.151,0.163,0.182,0.267c-0.121,0.279-0.248,0.535-0.385,0.77c-0.001,0.001-0.002,0.002-0.003,0.003l-0.61,0.696
		l0.109,0.016c-0.317,0.383-0.685,0.714-1.137,1.023c-0.971,0.662-1.998,1.342-3.031,1.971c-0.141,0.016-0.283,0.03-0.422,0.047
		c-0.058,0.007-0.113,0.023-0.165,0.049c-1.983,0.984-3.997,1.899-6.022,2.782c-0.759,0.107-1.517,0.33-2.254,0.801
		c0.052-0.072,0.109-0.148,0.152-0.215c-0.443-0.061-0.896-0.146-1.354-0.256c-0.312,0.303-0.613,0.663-0.863,1.059
		c-0.119,0.188-0.289,0.395-0.491,0.605c-1.118,0.438-2.24,0.867-3.369,1.275l-0.011-0.016c0.212-0.242,0.431-0.5,0.649-0.777
		c0.102-0.125,0.258-0.19,0.418-0.184c0.055,0.002,0.105,0.006,0.162,0.01c0.855-1.139,1.604-2.326,1.525-2.588
		c-0.181-0.066-0.355-0.137-0.535-0.211c-0.793-0.02-2.187,0.413-2.365,0.877c-0.273,0.698-1.01,1.493-1.977,2.254
		c0.022,0.082,0.028,0.168,0.008,0.252c-0.029,0.115-0.103,0.217-0.201,0.285c-1.143,0.837-2.506,1.614-3.855,2.156
		c-0.654,0.201-1.305,0.416-1.963,0.607c-0.248,0.05-0.493,0.09-0.73,0.113c-0.221,0.021-0.328-0.005-0.418,0
		c-0.213,0.004-0.396-0.13-0.474-0.324c-0.077-0.017-0.09-0.051-0.028-0.104c-0.033-0.21,0.063-0.421,0.256-0.521
		c0.102-0.051,0.156-0.08,0.336-0.16c0.379-0.164,0.895-0.369,1.557-0.627c1.422-0.553,2.387-1.076,3.219-1.76
		c0.012-0.017,0.021-0.029,0.033-0.041c0.023-0.023,0.053-0.043,0.078-0.063c0.016-0.01,0.029-0.016,0.045-0.021
		c0.002-0.004,0.004-0.01,0.006-0.015c0.01-0.005,0.016-0.008,0.021-0.011c0.008-0.004,0.016-0.008,0.021-0.01
		c0.011-0.011,0.019-0.019,0.029-0.025c0.004,0.002,0.01,0.004,0.015,0.007c0.016-0.008,0.03-0.015,0.045-0.021
		c0,0,0.018,0.006,0.016,0.006c0.006,0,0.014-0.008,0.021-0.01c0.013,0,0.025-0.002,0.037-0.002
		c0.009-0.004,0.017-0.009,0.022-0.011c0.013-0.003,0.023-0.005,0.037-0.005c0.019,0,0.037,0.001,0.054,0.003
		c0.094-0.007,0.194-0.013,0.293-0.021c0.37-0.364,0.728-0.771,1.088-1.246l1.75-2.307l-1.222-0.479
		c-0.672-0.264-1.409-0.23-1.645,0.068c-1.549,2.004-3.176,3.604-4.799,4.765c0.014,0.071,0.01,0.147-0.01,0.225
		c-0.031,0.113-0.104,0.216-0.203,0.282c-2.426,1.63-4.873,2.352-7.092,1.848c-1.146-0.263-2.813-0.529-3.629-0.584
		c-0.426-0.027-0.795-0.074-1.076-0.132c-0.219-0.058-0.371-0.253-0.377-0.479c0-0.004-0.006-0.008-0.004-0.01
		c0-0.002,0.006-0.004,0.008-0.006c0.002-0.22,0.145-0.414,0.354-0.479c0.086-0.021,0.119-0.025,0.119-0.025
		c0.324-0.063,0.746-0.123,1.211-0.164c0.949-0.08,2.336-0.043,3.174,0.077c1.156,0.167,2.932-0.377,4.607-1.36
		c0.115-0.074,0.256-0.099,0.391-0.065c0.082,0.022,0.16,0.04,0.242,0.063c1.441-0.921,2.77-2.121,3.602-3.386
		c0.92-1.397,1.617-2.835,1.55-3.192c-0.084-0.427,0.282-0.359,1.069,0.192c0.537,0.379,1.099,0.565,1.64,0.563
		c-0.718-0.551-1.425-1.156-2.113-1.808c-1.787,0.009-3.047,0.259-3.526,0.718c-0.488,0.465-1.883,1.823-3.101,3.02
		c-1.006,0.988-2.336,1.896-3.521,2.438c0.002,0.055-0.002,0.106-0.018,0.158c-0.045,0.154-0.16,0.277-0.313,0.334
		c-0.186,0.074-0.385,0.161-0.596,0.221c-1.309,0.365-3.133,0.572-4.641,0.604c-0.756,0.017-1.42-0.017-1.912-0.092
		c-0.244-0.04-0.416-0.066-0.607-0.167c0.004,0.001-0.02,0.005-0.104-0.059c-0.084-0.063-0.123-0.143-0.139-0.164
		c-0.051-0.084-0.074-0.183-0.07-0.281c-0.012-0.014-0.01-0.018-0.057-0.041c-0.146-0.075-0.408-0.166-0.703-0.201
		c-0.27-0.033-0.469-0.057-0.664-0.115c-0.057-0.018-0.123-0.051-0.186-0.089c-0.002-0.009-0.007-0.017-0.009-0.021
		c-0.022-0.02-0.084-0.051-0.049-0.021c-0.133-0.097-0.213-0.253-0.209-0.419c0.002-0.166,0.088-0.318,0.226-0.411
		c0.006-0.004,0.133-0.097,0.299-0.155c0.707-0.26,2.024-0.47,3.709-0.551c1.012-0.05,1.942-0.193,2.828-0.439
		c0.141-0.035,0.289-0.01,0.41,0.07c0.055,0.034,0.118,0.067,0.176,0.104c2.143-0.705,4.063-2.051,6.196-4.27
		c1.757-1.822,2.259-2.654,2.146-3.552c-0.229-1.788-1.23-1.483-4.318,1.302c-2.365,2.137-4.99,3.59-7.389,4.161
		c-0.002,0.015,0.002,0.025-0.002,0.038c-0.055,0.186-0.205,0.321-0.396,0.354c-0.901,0.178-1.778,0.258-2.608,0.162
		c-1.933-0.221-3.228-0.519-3.969-0.972c-0.191-0.118-0.351-0.271-0.431-0.388c-0.084-0.122-0.155-0.379-0.133-0.543
		c0.057-0.398,0.332-0.656,0.76-0.922c0.119-0.073,0.271-0.141,0.478-0.194c0.182-0.048,0.438-0.112,0.717-0.157
		c0.531-0.084,1.168-0.137,1.797-0.17c0.707-0.037,1.432-0.143,2.166-0.279c0.213-0.043,0.418,0.063,0.525,0.242
		c3.16-0.684,6.17-2.195,7.614-3.953c0.697-0.849,1.55-1.676,1.896-1.838s0.793-0.721,0.996-1.238
		c0.104-0.268,0.225-0.438,0.358-0.521c-0.405-0.724-0.807-1.494-1.2-2.31l-0.646-0.055l-2.681,2.393
		c-2.686,2.394-4.912,3.813-7.174,4.438c-0.002,0.016,0.004,0.031,0,0.049c-0.045,0.188-0.192,0.336-0.385,0.377
		c-1.885,0.428-3.818,0.354-6.035-0.197c-0.809-0.201-1.414-0.383-1.863-0.584c-0.217-0.098-0.397-0.189-0.563-0.329
		c-0.184-0.155-0.258-0.36-0.273-0.509c0-0.002-0.033-0.069-0.014-0.203c0.023-0.135,0.105-0.262,0.17-0.336
		c0.16-0.184,0.313-0.266,0.514-0.381c0.4-0.229,0.949-0.446,1.709-0.694c0.595-0.194,1.228-0.315,1.785-0.375
		c0.563-0.062,0.996-0.103,1.412,0.062c0.396,0.156,1.299,0.066,2.373-0.252c0.137-0.039,0.279-0.018,0.398,0.059
		c0.061,0.035,0.109,0.084,0.148,0.143c2.373-0.797,5.334-2.471,6.899-4.131c1.244-1.316,2.513-2.521,2.817-2.68
		c-0.493-1.264-0.963-2.615-1.391-4.063c-0.668,0.182-1.751,0.938-3.26,2.281c-1.658,1.475-3.471,2.841-4.025,3.035
		c-0.445,0.154-1.084,0.285-1.813,0.388c0,0.001,0,0.003,0,0.004c-0.056,0.204-0.229,0.353-0.438,0.374
		c-1.272,0.148-2.734,0.244-3.943,0.221c-0.631-0.013-1.182-0.067-1.604-0.137c-0.201-0.031-0.357-0.037-0.559-0.107
		c-0.094-0.035-0.176-0.086-0.238-0.131c-0.031-0.021-0.055-0.043-0.082-0.067c-0.027-0.026-0.053-0.032-0.111-0.136
		c-0.067-0.121-0.246-0.321-0.498-0.541c-0.248-0.215-0.554-0.422-0.828-0.578c-0.271-0.154-0.471-0.305-0.616-0.424
		c-0.021-0.016-0.037-0.012-0.048-0.019c-0.004-0.004,0.002-0.015-0.01-0.022c-0.006-0.002-0.014,0.002-0.031-0.012
		c-0.01-0.007-0.021-0.017-0.041-0.033c-0.01-0.01-0.026-0.019-0.041-0.035c-0.016-0.016-0.061-0.077-0.061-0.077
		c-0.048-0.074-0.074-0.271-0.037-0.414c0.002-0.015-0.01-0.024-0.004-0.038c0.027-0.074,0.031-0.063,0.053-0.089
		c0.019-0.027,0.026-0.095,0.049-0.125c0.06-0.08,0.142-0.154,0.238-0.235c0.191-0.156,0.42-0.277,0.711-0.468
		c0.449-0.291,1.154-0.499,2.067-0.685c0.909-0.182,1.976-0.318,3.003-0.371c0.756-0.037,1.398-0.121,2.027-0.207
		c0.135-0.02,0.271,0.02,0.379,0.103c0.064,0.052,0.109,0.117,0.145,0.188c2.281-0.369,3.805-1.156,5.812-2.821
		c0.887-0.736,2.194-1.701,2.937-2.163c-0.354-1.553-0.656-3.193-0.9-4.934c-0.23,0.164-0.477,0.358-0.721,0.586
		c-1.502,1.39-4.162,2.91-7.552,4.332c0.007,0.064-0.001,0.129-0.021,0.191c-0.049,0.146-0.16,0.264-0.307,0.317
		c-1.229,0.485-3.008,0.521-4.674,0.317c-0.839-0.104-1.645-0.256-2.335-0.496c-0.692-0.24-1.235-0.541-1.594-0.951
		c-0.521-0.6-0.761-1.25-0.556-1.836c0.205-0.588,0.772-0.996,1.59-1.271c0.38-0.129,0.974-0.236,1.72-0.347
		c0.746-0.109,1.608-0.208,2.41-0.257c0.914-0.055,1.758-0.213,2.767-0.555c0.147-0.052,0.313-0.027,0.438,0.057
		c0.049,0.031,0.079,0.076,0.112,0.121c1.823-0.688,4.195-1.979,8.267-4.385c-0.132-1.707-0.207-3.488-0.213-5.356
		c0-0.048,0-0.095,0-0.142c-0.632,0.52-2.235,1.308-6.397,3.225c-0.494,0.229-1.146,0.451-1.824,0.643
		c-0.002,0.029,0,0.061-0.008,0.09c-0.056,0.164-0.191,0.289-0.365,0.33c-0.793,0.203-1.594,0.389-2.266,0.441
		c-1.025,0.08-1.727,0.091-2.384-0.096c-0.656-0.188-1.199-0.549-1.957-1.133c-0.58-0.442-1.026-0.783-1.354-1.095
		c-0.334-0.313-0.535-0.558-0.607-0.909c-0.027-0.146-0.004-0.365,0.076-0.519c0.078-0.151,0.17-0.243,0.279-0.347
		c0.246-0.227,0.59-0.443,1.039-0.703c0.479-0.273,1.229-0.526,2.12-0.771c0.896-0.243,1.91-0.452,2.847-0.575
		c0.693-0.095,1.313-0.189,1.922-0.307c0.147-0.029,0.303,0.007,0.42,0.104c0.047,0.037,0.078,0.088,0.107,0.138
		c3.5-0.712,5.864-1.884,8.239-3.992l0.304-0.271c0.161-2.461,0.43-4.974,0.801-7.533c-0.369,0.188-0.82,0.496-1.426,0.957
		c-2.455,1.877-5.127,3.15-7.636,3.772c0,0.021,0.002,0.044-0.002,0.063c-0.049,0.182-0.194,0.32-0.377,0.361
		c-3.28,0.715-6.317,0.35-8.187-1.402l-1.188-1.104c-0.121-0.113-0.181-0.279-0.155-0.445c0.024-0.164,0.131-0.307,0.278-0.379
		l2.153-1.086c1.351-0.682,3.318-1.303,4.562-1.381c0.779-0.049,1.771-0.229,2.839-0.508c0.164-0.047,0.342-0.006,0.471,0.105
		c0.031,0.029,0.063,0.063,0.084,0.098c3.188-0.896,7.021-2.551,9.424-4.047c0.512-2.66,1.135-5.37,1.859-8.131l-4.313,1.986
		c-1.937,0.891-3.769,1.51-5.453,1.857c-0.002,0.001-0.002,0.003-0.002,0.004c0,0.02,0,0.036-0.002,0.057
		c-0.06,0.174-0.207,0.305-0.39,0.34c-3.688,0.666-6.733,0.045-8.514-2.004c-0.264-0.308-0.477-0.539-0.602-0.838
		c-0.047-0.113-0.098-0.267-0.078-0.447c0.02-0.187,0.115-0.336,0.188-0.438c0.205-0.278,0.489-0.442,0.903-0.685
		c0.414-0.237,0.961-0.526,1.687-0.867c1.469-0.688,4.654-1.403,7.569-1.857c0.171-0.029,0.343,0.029,0.458,0.155
		c0.023,0.026,0.047,0.062,0.064,0.095c1.484-0.219,2.854-0.351,3.808-0.334c0.544,0.008,2.067-0.662,3.39-1.492
		c1.137-0.715,2.383-1.353,3.016-1.558c0.627-2.017,1.308-4.058,2.043-6.121c-0.53-0.015-1.521,0.255-2.891,0.8
		c-3.043,1.213-5.842,2.077-7.629,2.393c-0.004,0.016-0.009,0.031-0.012,0.046c-0.061,0.196-0.229,0.338-0.434,0.358
		c-0.309,0.039-0.586,0.062-0.823,0.06c-0.238-0.001-0.42,0-0.64-0.086c-0.021-0.008-0.036-0.009-0.056-0.015
		c0-0.002,0.001-0.003,0.001-0.004c0-0.354-0.408-0.607-0.725-0.446h-0.002c-0.019,0.01-0.037,0.021-0.056,0.032l0.277,0.416
		c-0.048,0.116-0.235,0.308-0.339,0.354c-0.113,0.053-0.285,0.094-0.473,0.088c-0.33-0.007-0.652-0.104-1.043-0.263
		c-0.781-0.315-1.729-0.895-2.613-1.643c-0.434-0.365-0.741-0.688-0.951-1.01c-0.201-0.309-0.318-0.701-0.209-1.047
		c0.121-0.379,0.393-0.635,0.768-0.938c0.375-0.302,0.875-0.641,1.533-1.037c1.434-0.864,3.635-1.344,6.92-1.549
		c0.168-0.016,0.33,0.055,0.437,0.184c0.028,0.033,0.039,0.076,0.057,0.115c2.664-0.18,6.07-0.729,7.716-1.252
		c1.291-0.41,2.521-0.719,3.149-0.803c0.968-2.468,2.004-4.962,3.119-7.49c-0.021-0.01-0.041-0.02-0.063-0.027
		c-0.724-0.282-1.398-0.292-1.507-0.021c-0.106,0.271-0.399,0.414-0.651,0.314c-0.254-0.1-2.461-0.066-4.904,0.074
		c-1.787,0.104-3.453,0.145-4.33,0.115c-0.09,0.207-0.301,0.338-0.533,0.301c-0.021-0.004-0.047-0.004-0.068-0.008
		c-0.01-0.002-0.021-0.011-0.031-0.013c-0.006-0.003-0.006-0.006-0.016-0.008c-0.008-0.002-0.084-0.017-0.084-0.017
		c-0.016-0.006,0.012-0.008-0.113,0.013c-0.102,0.014-0.19,0.026-0.319,0.073c-0.276,0.101-0.627,0.271-0.91,0.463
		c-0.435,0.3-0.771,0.478-1.174,0.486c-0.358,0.01-0.74-0.226-0.959-0.521c-0.103-0.14-0.396-0.37-0.812-0.627
		c-0.401-0.249-0.906-0.501-1.371-0.683c-0.789-0.31-1.248-0.515-1.539-0.949c-0.135-0.201-0.198-0.452-0.192-0.711
		c0.006-0.266,0.063-0.526,0.146-0.836c0.145-0.543,0.354-0.944,0.688-1.24c0.344-0.307,0.799-0.459,1.33-0.518
		c0.701-0.076,2.076-0.422,2.977-0.765c0.994-0.381,2.348-0.612,3.248-0.492c0.158,0.021,0.543,0.015,0.93-0.002
		c0.172-0.008,0.338,0.073,0.438,0.218c0.023,0.034,0.043,0.073,0.059,0.112c0.789-0.055,1.703-0.173,2.5-0.337
		c1.404-0.288,3.584-0.48,4.842-0.428c1.259,0.054,3.295-0.086,4.525-0.311c0.352-0.063,0.643-0.113,0.895-0.152
		c1.132-2.354,2.318-4.736,3.574-7.145c0.031-0.063,0.064-0.127,0.101-0.189c0.082-0.527-0.233-0.646-1.229-0.784
		c-0.834-0.117-2.08-0.089-2.77,0.063s-1.537,0.168-1.879,0.033c-0.342-0.134-2.045-0.025-3.785,0.238
		c-0.826,0.125-1.67,0.221-2.383,0.273c-0.018,0.028-0.031,0.062-0.049,0.09c-0.086,0.162-0.25,0.264-0.432,0.269
		c-0.269,0.013-0.513,0.026-0.722,0.026c-0.211,0-0.351-0.004-0.528-0.043c-0.431-0.092-1.459-0.123-2.148-0.041
		c-0.791,0.098-1.561,0.045-2.15-0.131c-0.295-0.088-0.518-0.15-0.748-0.365c-0.111-0.104-0.188-0.328-0.191-0.35
		c0,0-0.012-0.054-0.012-0.061c-0.002-0.006-0.012-0.021-0.012-0.021c0-0.006,0.008-0.012,0.008-0.016
		c-0.002-0.012-0.012-0.014-0.012-0.023c0-0.018,0.008-0.039,0.01-0.066c0.006-0.061-0.002-0.143,0.066-0.266
		c0.074-0.133,0.129-0.168,0.225-0.295c0.098-0.129,0.211-0.297,0.354-0.479c0.283-0.372,0.658-0.833,1.037-1.304
		c0.396-0.49,0.875-0.965,1.355-1.326c0.482-0.362,0.885-0.623,1.346-0.69c0.566-0.086,1.816-0.42,2.73-0.752
		c0.504-0.183,1.055-0.291,1.537-0.345c0.395-0.044,0.693-0.021,0.937,0.021c0.146,0.022,0.271,0.108,0.351,0.231
		c0.033,0.056,0.052,0.114,0.062,0.176c0.437,0.119,0.962,0.136,1.269,0.021c0.354-0.135,2.432-0.123,4.611,0.027
		c2.182,0.146,4.258,0.159,4.612,0.023c0.687-0.26,1.262-0.114,1.524,0.261c0.801-1.469,1.597-2.897,2.388-4.301
		c-0.272-0.343-0.394-0.642-0.361-0.904c0.136-1.198,0.146-1.196-4.26-1.465c-1.99-0.123-3.894-0.297-5.629-0.507
		c-0.007,0.009-0.013,0.02-0.019,0.025c-0.104,0.174-0.297,0.27-0.494,0.244c-2.213-0.281-4.147-0.609-5.604-0.976
		c-0.744-0.187-1.377-0.397-1.856-0.599c-0.494-0.207-0.801-0.376-1.021-0.691c-0.086-0.121-0.168-0.275-0.201-0.461
		s-0.012-0.383,0.051-0.545c0.133-0.354,0.394-0.65,0.787-1.038c0.725-0.712,1.285-1.165,2.098-1.454
		c0.814-0.289,1.849-0.441,3.588-0.615c1.478-0.146,3.472-0.086,5.552,0.045c0.099,0.002,0.192,0.033,0.272,0.09
		c-0.002-0.016,0-0.092,0-0.092c0.008-0.004,0.017-0.006,0.021-0.01l0.02,0.135c0.062,0.058,0.096,0.127,0.121,0.199
		c2.609,0.184,5.346,0.549,7.396,1.034c1.785,0.423,2.729,0.347,3.412-0.272c0.752-0.687,0.859-0.694,0.477,0.406
		c0.684-1.127,1.359-2.232,2.033-3.311c-0.07,0.018-0.135,0.042-0.189,0.081c-0.479,0.345-0.44-0.192,0.115-1.632l0.832-2.146
		l-2.268-0.522c-1.102-0.254-3.939-0.811-6.652-1.307c-0.002,0.006-0.006,0.01-0.01,0.016c-0.109,0.166-0.309,0.254-0.506,0.221
		c-0.203-0.039-0.408-0.075-0.611-0.111c-3.916-0.701-5.92-1.273-7.117-2.132c-0.461-0.332-0.822-0.661-1.092-0.974
		s-0.463-0.604-0.521-0.949c-0.047-0.294,0.127-0.689,0.354-0.861c0.252-0.189,0.588-0.287,1.022-0.291
		c0.519-0.004,2.17-0.234,3.56-0.535c2.164-0.471,5-0.56,8-0.309c0.156,0.01,0.302,0.092,0.39,0.223
		c0.03,0.049,0.045,0.104,0.061,0.157c2.928,0.279,5.986,0.87,8.674,1.735c1.141,0.367,1.521,0.501,1.369,1.056
		c0.834-1.218,1.662-2.397,2.48-3.543c-0.166-0.289-0.226-0.705-0.131-1.116c0.346-1.496-1.328-2.645-7.451-4.843
		c-0.133,0.165-0.354,0.233-0.558,0.162c-0.662-0.235-1.356-0.479-2.129-0.743c-1.942-0.662-3.679-1.293-4.94-1.789
		c-0.631-0.246-1.146-0.46-1.502-0.625c-0.104-0.047-0.15-0.072-0.216-0.102c-0.219-0.102-0.338-0.342-0.28-0.578
		c0.059-0.234,0.271-0.396,0.516-0.387c0.02,0,0.211-0.025,0.432,0.061c0.008-0.004,0.029-0.018,0.055-0.051
		c0.07-0.087,0.144-0.26,0.174-0.533c0.046-0.389,0.117-0.686,0.363-0.932c0.101-0.098,0.244-0.207,0.42-0.235
		c0.176-0.028,0.354,0.011,0.502,0.069c0.162,0.064,0.312,0.088,0.39,0.08c0.022-0.004,0.032-0.004,0.039-0.006
		c0.098-0.233,0.182-0.224,0.248-0.265c0.067-0.043,0.141-0.079,0.225-0.112c0.162-0.062,0.382-0.133,0.671-0.174
		c0.534-0.074,1.25-0.094,2.047-0.072c1.594,0.045,3.549,0.277,5.325,0.666c0.416,0.092,0.837,0.183,1.234,0.283
		c0.133,0.031,0.248,0.114,0.317,0.231c0.041,0.067,0.062,0.144,0.066,0.219c3.182,0.824,6.02,1.933,7.805,3.067
		c0.769,0.486,1.104,0.814,1.139,1.367c1.189-1.519,2.363-2.961,3.519-4.328c0.009-0.038,0.011-0.075,0.021-0.114
		c0.455-1.756-2.026-3.83-7.436-6.222c-0.141,0.158-0.367,0.216-0.564,0.134c-0.58-0.252-1.17-0.507-1.813-0.765
		c-1.551-0.621-3.064-1.272-4.252-1.828c-0.592-0.277-1.096-0.519-1.496-0.731c-0.4-0.212-0.652-0.358-0.848-0.532
		c-0.23-0.203-0.406-0.375-0.518-0.492c-0.021-0.022-0.039-0.049-0.062-0.08c-0.002-0.006-0.007-0.014-0.011-0.021
		c-0.014-0.021-0.037-0.052-0.024-0.028c-0.082-0.131-0.099-0.293-0.045-0.439c0.056-0.146,0.172-0.26,0.319-0.307
		c0.062-0.02,0.119-0.028,0.181-0.039c0.198-0.035,0.455-0.076,0.787-0.11c4.375-0.438,6.588-0.363,9.78,0.3
		c0.558,0.115,1.076,0.223,1.576,0.344c0.133,0.03,0.248,0.114,0.318,0.23c0.039,0.064,0.059,0.137,0.066,0.211
		c3.725,0.93,5.979,2.029,7.396,3.574c0.74,0.807,1.063,1.281,1.08,1.875c0.813-0.875,1.619-1.711,2.412-2.512
		c-0.088-0.301-0.127-0.607-0.117-0.943c0.033-1.111-0.512-2.145-1.778-3.375c-1.027-0.999-2.566-2.148-4.17-3.174
		c-0.164,0.129-0.394,0.146-0.572,0.035c-1.697-1.059-3.443-1.945-4.623-2.319c-0.574-0.183-1.035-0.353-1.379-0.521
		c-0.357-0.178-0.57-0.289-0.73-0.597c-0.055-0.103-0.063-0.382-0.035-0.469c0.045-0.14,0.082-0.147,0.105-0.177
		c0.023-0.028,0.045-0.051,0.063-0.066c0.035-0.035,0.07-0.066,0.113-0.102c0.203-0.176,0.477-0.33,0.898-0.485
		c2.543-0.937,6.18-0.38,9.369,0.976c0.2,0.084,0.313,0.283,0.303,0.491c2.272,1.032,4.266,2.491,5.33,4.146
		c0.899,1.404,1.057,1.483,1.863,0.938c0.651-0.44,0.549-0.147-0.402,1.149c-0.277,0.375-0.49,0.711-0.639,1.021
		c1.553-1.426,3.053-2.71,4.495-3.867c-0.325-0.537-0.493-0.978-0.418-1.188c0.347-0.965-1.963-3.396-5.301-5.758
		c-0.004,0.005-0.011,0.008-0.015,0.012c-0.176,0.126-0.409,0.129-0.586,0.007c-0.686-0.473-1.389-0.952-2.129-1.397
		c-1.377-0.825-2.418-1.459-3.19-1.978c-0.774-0.519-1.261-0.864-1.541-1.222c-0.076-0.096-0.132-0.199-0.164-0.282
		c-0.017-0.042-0.022-0.063-0.031-0.104c-0.006-0.02-0.004-0.051-0.008-0.076c-0.002-0.012-0.002-0.016-0.004-0.036
		c0-0.011-0.004-0.021-0.002-0.038c0-0.018,0.014-0.085,0.014-0.085c0.037-0.177,0.074-0.188,0.109-0.229
		c0.034-0.043,0.075-0.076,0.11-0.103c0.07-0.054,0.144-0.093,0.232-0.127c0.387-0.149,0.867-0.183,1.586-0.198
		c3.744-0.082,4.887,0.209,8.645,2.092c-0.063-0.031-0.059-0.031,0.017,0.006c0.047,0.027,0.088,0.063,0.125,0.103
		c0.076,0.082,0.08,0.071,0.131,0.125c0.029,0.008,0.095-0.017,0.115-0.011c0.101,0.033,0.174,0.068,0.276,0.127
		c0.183,0.1,0.273,0.299,0.252,0.5c2.181,1.16,2.865,1.834,3.677,3.365c0.61,1.149,1.478,2.233,1.926,2.41
		c0.367,0.143,0.521,0.411,0.474,0.887c0.885-0.606,1.739-1.162,2.569-1.672c-0.237-0.476-0.28-0.877-0.14-1.248
		c0.38-0.985-1.215-4.707-2.797-6.531c-0.037-0.043-0.092-0.096-0.151-0.153c-0.004,0.015-0.004,0.021-0.008,0.038l-0.117-0.027
		c-0.131,0.082-0.291,0.098-0.438,0.047l-0.131,0.332c-0.004-0.002-0.01-0.004-0.016-0.006s-0.027-0.012-0.031-0.013
		c-0.004-0.002-0.01-0.004-0.016-0.006s-0.027-0.011-0.031-0.013c-0.004-0.002-0.188-0.127-0.188-0.127s-0.006-0.018-0.01-0.022
		c-0.007-0.005-0.011,0-0.017-0.006c-0.015-0.015-0.115-0.173-0.115-0.173s-0.01-0.021-0.021-0.043
		c-0.004-0.012-0.006-0.016-0.01-0.022c-0.004-0.006-0.047-0.254-0.047-0.254s-0.01-0.013-0.01-0.022
		c0-0.011,0.012-0.019,0.012-0.031c0.002-0.014-0.004-0.027-0.004-0.037c0.002-0.008,0.02-0.067,0.029-0.117
		c-0.865-0.676-2.049-1.54-3.385-2.417l-3.316-2.171c-0.178-0.116-0.262-0.329-0.215-0.535l-0.039-0.025l0.047-0.004
		c0.059-0.199,0.232-0.347,0.441-0.363l1.756-0.113c2.82-0.176,5.998,1.414,8.387,3.72c0.143,0.13,0.199,0.329,0.146,0.513
		c-0.008,0.021-0.021,0.037-0.031,0.058c1.35,1.392,2.398,3.026,2.869,4.706c0.299,1.064,0.898,2.076,1.338,2.248
		c0.293,0.113,0.443,0.299,0.439,0.504c0.934-0.461,1.838-0.873,2.713-1.236c-0.187-0.087-0.351-0.124-0.484-0.1
		c-0.381,0.066-0.357-0.182,0.059-0.633c0.498-0.537,0.309-1.504-0.697-3.535c-0.789-1.592-1.479-2.756-2.369-3.854
		c-0.194,0.065-0.411,0.014-0.547-0.146c-0.983-1.139-2.248-2.247-4.178-3.782l-2.723-2.157c-0.178-0.132-0.25-0.365-0.176-0.574
		c0.072-0.209,0.273-0.347,0.496-0.338l1.24-0.006c3.211,0.006,6.729,1.854,9.375,4.543c0.133,0.133,0.184,0.327,0.129,0.506
		c-0.008,0.024-0.025,0.043-0.037,0.066c1.02,1.102,1.891,2.333,2.516,3.646c1.646,3.461,1.678,3.5,2.08,2.473
		c0.426-1.09-0.971-4.032-2.852-6.827c-0.209,0.06-0.437-0.015-0.56-0.2c-0.873-1.259-1.836-2.479-2.748-3.441
		c-0.938-0.992-1.825-1.697-2.476-1.951c-0.315-0.125-0.526-0.238-0.69-0.508c-0.063-0.106-0.098-0.356-0.08-0.451l0.316,0.066
		c0.012-0.064,0.051-0.121,0.118-0.172c0.101-0.072,0.234-0.113,0.4-0.125l-0.193-0.152l-0.141-0.019l-0.236,0.052
		c0.31-0.222,0.674-0.254,1.125-0.178c0.439,0.075,0.957,0.234,1.535,0.492c1.15,0.511,2.525,1.361,3.926,2.428
		c0.896,0.686,1.666,1.449,2.313,2.271c0.103,0.123,0.14,0.285,0.103,0.438c-0.014,0.052-0.045,0.093-0.072,0.138
		c1.357,1.875,2.1,4.117,2.254,6.799c0.076,1.324,0.299,2.519,0.543,3.027c0.623-0.113,1.217-0.199,1.781-0.267
		c-0.48-0.774-0.672-1.556-0.326-1.978c0.367-0.447,0.453-1.906,0.203-3.404c-0.242-1.442-1.148-3.193-2.504-4.975
		c-0.199,0.071-0.424,0.014-0.562-0.154c-1.18-1.484-2.655-2.981-4.332-4.315c-0.456-0.362-0.799-0.634-1.053-0.849
		c-0.011-0.008,0-0.012-0.008-0.021c-0.011-0.009-0.021-0.02-0.025-0.027c-0.067-0.07-0.116-0.158-0.139-0.254
		c-0.021-0.104-0.005-0.207,0.034-0.299c-0.036-0.056-0.024-0.082,0.039-0.08c0.023-0.037,0.056-0.072,0.091-0.103
		c0.137-0.119,0.327-0.156,0.5-0.097c0.192,0.066,0.352,0.129,0.637,0.231c1.869,0.667,4.209,2.638,5.979,4.761
		c0.108,0.127,0.151,0.299,0.108,0.461c-0.014,0.045-0.041,0.078-0.063,0.116c0.647,0.815,1.193,1.642,1.561,2.407
		c0.729,1.527,1.189,3.738,1.143,5.475c-0.041,1.516,0.054,2.377,0.394,2.965c0.885-0.045,1.683-0.037,2.381,0.004
		c-0.504-0.758-0.715-1.573-0.821-2.834c-0.256-2.977-1.396-5.787-3.435-8.459c-0.201,0.074-0.431,0.018-0.563-0.152
		c-0.361-0.451-0.742-0.902-1.15-1.342c-0.754-0.813-1.176-1.311-1.422-1.666c-0.141-0.2-0.117-0.473,0.053-0.646
		c0.172-0.175,0.443-0.201,0.645-0.064c0.133,0.084,0.25,0.171,0.378,0.256c2.238,3.437,4.346,6.975,6.282,10.634
		c0.068,0.128,0.189,0.221,0.331,0.253l0.043,0.01c0.044,0.319,0.092,0.634,0.124,0.968c0.122,1.296,0.432,2.537,0.764,3.171
		c0.515,0.064,0.951,0.143,1.312,0.22c0.031-0.37-0.041-0.979-0.187-1.728c-0.41-0.828-0.85-1.643-1.276-2.463l1.751,0.4
		c0.027,0.006,0.054,0.009,0.08,0.009c0.037,0,0.07-0.021,0.105-0.032c0.094,0.192,0.192,0.383,0.286,0.576
		c-0.136,0.662-0.288,1.373-0.462,2.093c-0.025,0.105-0.016,0.216,0.027,0.316c0.387,0.891,0.754,1.79,1.121,2.688
		c0.086,0.591,0.279,1.241,0.602,1.744c0.097,0.151,0.19,0.316,0.283,0.488c0.163,0.421,0.316,0.847,0.477,1.27
		c-0.019,0.63,0.443,1.716,0.851,2.54c0.091,0.408,0.172,0.814,0.231,1.213c0.019,0.006,0.037,0.012,0.056,0.018
		c0.18,0.066,0.307,0.229,0.327,0.419c0.032,0.276,0.056,0.542,0.074,0.802l-0.26,0.034c0.053,0.399,0.153,0.793,0.272,1.183
		C267.045,98.936,266.981,99.354,266.844,99.699z"/>
	<path fill="#231F20" d="M181.311,253.712c-0.401-0.495-0.819-1.034-1.246-1.62l-0.271-0.031l0.951,1.102
		C180.938,253.389,181.123,253.564,181.311,253.712z"/>
	<path fill="none" stroke="#FFFFFF" stroke-width="0" stroke-linecap="round" stroke-linejoin="round" d="M248.5,225.255
		c-0.167,0.218-0.338,0.433-0.507,0.649"/>
</g>
</svg>
