<?xml version="1.0" encoding="utf-8"?>
<!-- Generator: Adobe Illustrator 15.1.0, SVG Export Plug-In . SVG Version: 6.00 Build 0)  -->
<!DOCTYPE svg PUBLIC "-//W3C//DTD SVG 1.1//EN" "http://www.w3.org/Graphics/SVG/1.1/DTD/svg11.dtd">
<svg version="1.1" xmlns="http://www.w3.org/2000/svg" xmlns:xlink="http://www.w3.org/1999/xlink" x="0px" y="0px"
	 width="283.46px" height="283.46px" viewBox="0 0 283.46 283.46" enable-background="new 0 0 283.46 283.46" xml:space="preserve">
<g id="Layer_2">
</g>
<g id="Layer_1" display="none">
	<g display="inline">
		<path d="M141.73,269.287c-70.298,0-127.557-57.259-127.557-127.557S71.432,14.173,141.73,14.173S269.287,71.432,269.287,141.73
			S212.028,269.287,141.73,269.287z M141.73,21.259C75.4,21.259,21.259,75.4,21.259,141.73c0,66.33,54.141,120.471,120.471,120.471
			c66.33,0,120.471-54.141,120.471-120.471C262.201,75.4,208.06,21.259,141.73,21.259z"/>
	</g>
</g>
<g id="Layer_3">
	<g>
		<path d="M149.361,274.892c0.475,0.404,0.949,0.809,1.439,1.207c49.357-3.314,91.594-33.443,112.184-75.877
			C227.689,248.294,169.052,269.039,149.361,274.892z"/>
		<path d="M56.493,137.623c0.888,0.127,1.614,0.567,2.157,1.181c30.799,16.363,47.943,32.553,53.821,38.713
			c6.907-3.404,25.88-13.412,45.93-28.973c-11.502-12.257-56.122-55.3-129.629-79.949c-9.551,14.68-16.325,31.315-19.558,49.156
			c18.266,6.119,33.933,12.98,47.169,19.865C56.419,137.622,56.456,137.618,56.493,137.623z"/>
		<path d="M8.014,125.793c-0.624,5.233-0.953,10.554-0.953,15.949c0,6.542,0.481,12.976,1.391,19.274
			c2.353-13.73,6.575-25.866,8.828-31.961C14.277,127.944,11.177,126.86,8.014,125.793z"/>
		<path d="M164.921,143.304c11.635-9.669,23.225-21.151,32.672-34.25c-8.059-11.786-48.748-66.273-119.406-85.97
			c-17.572,9.465-32.825,22.718-44.65,38.656C109.209,87.554,153.671,131.08,164.921,143.304z"/>
		<path d="M167.728,151.796c-0.107,0.135-0.205,0.277-0.33,0.402c-0.217,0.145-0.434,0.266-0.648,0.377
			c-22.576,18.043-44.433,29.207-51.319,32.578c-0.61,6.91-1.462,29.994,8.199,53.77c20.843-9.557,121.976-59.998,140.208-153.85
			c-1.648-3.529-3.438-6.98-5.373-10.337c-8.855-5.892-24.859-9.755-32.447-11.577C220.296,100.846,193.673,130.85,167.728,151.796z
			"/>
		<path d="M224.664,54.908c4.002,0.802,15.146,3.121,25.396,7.017c-18.865-25.513-46.498-44.183-78.375-51.477
			C200.064,25.603,219.951,49.122,224.664,54.908z"/>
		<path d="M202.287,102.125c8.133-12.846,14.025-27.093,15.941-42.571c-6.184-7.478-37.316-43.349-77.402-52.469
			c-18.505,0.124-36.145,4.014-52.19,10.943C153.427,38.929,191.142,86.4,202.287,102.125z"/>
		<path d="M51.205,143.953c-8.036-4.142-16.983-8.259-26.859-12.18c-3.407,9.003-11.688,33.04-9.983,53.649
			c9.314,27.01,27.005,50.182,49.943,66.383C42.454,211.015,49.057,157.58,51.205,143.953z"/>
		<path d="M107.304,183.892c-4.123-4.4-19.597-19.818-48.457-35.846c-2.38,18.393-7.437,77.314,21.61,113.557
			c17.614,9.057,37.459,14.338,58.456,14.773C103.953,242.238,106.352,194.164,107.304,183.892z"/>
		<path d="M127.035,246.419c3.875,7.674,8.973,15.242,15.648,22.201c14.311-3.867,105.344-30.783,132.381-108.002
			c0.875-6.17,1.336-12.471,1.336-18.876c0-15.277-2.576-29.974-7.303-43.685C244.593,188.373,147.919,236.816,127.035,246.419z"/>
	</g>
</g>
</svg>
