<?xml version="1.0" encoding="utf-8"?>
<!-- Generator: Adobe Illustrator 15.1.0, SVG Export Plug-In . SVG Version: 6.00 Build 0)  -->
<!DOCTYPE svg PUBLIC "-//W3C//DTD SVG 1.1//EN" "http://www.w3.org/Graphics/SVG/1.1/DTD/svg11.dtd">
<svg version="1.1" id="Layer_1" xmlns:serif="http://www.serif.com/"
	 xmlns="http://www.w3.org/2000/svg" xmlns:xlink="http://www.w3.org/1999/xlink" x="0px" y="0px" width="283.46px"
	 height="283.46px" viewBox="0 0 283.46 283.46" enable-background="new 0 0 283.46 283.46" xml:space="preserve">
<g>
	
		<path fill="none" stroke="#000000" stroke-width="4.17" stroke-linecap="round" stroke-linejoin="round" stroke-miterlimit="2.2561" d="
		M90.907,189.189c-12.985,0-24.584-5.977-32.194-15.329c-5.811-7.141-9.298-16.246-9.298-26.163
		c0-22.898,18.593-41.489,41.492-41.489c0-22.899,18.591-41.49,41.49-41.49c22.9,0,41.492,18.591,41.492,41.49h18.668
		c22.898,0,41.49,18.591,41.49,41.489c0,9.917-3.484,19.022-9.297,26.163c-7.611,9.353-19.209,15.329-32.193,15.329"/>
	<path fill="#010001" d="M115.607,140.089c0,0-9.773,20.522-9.773,29.318c0,5.395,4.378,9.774,9.773,9.774s9.773-4.38,9.773-9.774
		C125.38,160.612,115.607,140.089,115.607,140.089z"/>
	<path d="M115.607,140.089c0,0-9.773,20.522-9.773,29.318c0,5.395,4.378,9.774,9.773,9.774s9.773-4.38,9.773-9.774
		C125.38,160.612,115.607,140.089,115.607,140.089z M115.607,159.181l0.168,0.489c1.247,3.674,2.337,7.263,2.337,9.737
		c0,0.691-0.281,1.317-0.735,1.771s-1.079,0.734-1.771,0.734s-1.317-0.281-1.771-0.734s-0.735-1.079-0.735-1.771
		c0-2.475,1.09-6.063,2.337-9.737L115.607,159.181L115.607,159.181z"/>
	<path fill="#010001" d="M152.736,119.091c0,0-5.25,11.024-5.25,15.747c0,2.898,2.352,5.251,5.25,5.251
		c2.896,0,5.248-2.353,5.248-5.251C157.984,130.116,152.736,119.091,152.736,119.091z"/>
	<path d="M152.736,119.091c0,0-5.25,11.024-5.25,15.747c0,2.898,2.352,5.251,5.25,5.251c2.896,0,5.248-2.353,5.248-5.251
		C157.984,130.116,152.736,119.091,152.736,119.091z"/>
	<path fill="#010001" d="M152.736,159.635c0,0-14.777,31.032-14.777,44.33c0,8.155,6.62,14.777,14.777,14.777
		c8.154,0,14.775-6.622,14.775-14.777C167.511,190.667,152.736,159.635,152.736,159.635z"/>
	<path d="M152.736,159.635c0,0-14.777,31.032-14.777,44.33c0,8.155,6.62,14.777,14.777,14.777c8.154,0,14.775-6.622,14.775-14.777
		C167.511,190.667,152.736,159.635,152.736,159.635z M152.736,177.892c1.287,3.223,2.604,6.7,3.775,10.151
		c2.035,5.997,3.732,11.882,3.732,15.922c0,2.072-0.842,3.947-2.201,5.308c-1.359,1.358-3.234,2.2-5.307,2.2
		c-2.074,0-3.949-0.842-5.307-2.2c-1.361-1.36-2.203-3.235-2.203-5.308c0-4.04,1.697-9.925,3.734-15.922
		C150.132,184.592,151.447,181.117,152.736,177.892z"/>
</g>
</svg>
