<?xml version="1.0" encoding="utf-8"?>
<!-- Generator: Adobe Illustrator 15.1.0, SVG Export Plug-In . SVG Version: 6.00 Build 0)  -->
<!DOCTYPE svg PUBLIC "-//W3C//DTD SVG 1.1//EN" "http://www.w3.org/Graphics/SVG/1.1/DTD/svg11.dtd">
<svg version="1.1" xmlns="http://www.w3.org/2000/svg" xmlns:xlink="http://www.w3.org/1999/xlink" x="0px" y="0px"
	 width="283.465px" height="283.465px" viewBox="370.268 370.267 283.465 283.465"
	 enable-background="new 370.268 370.267 283.465 283.465" xml:space="preserve">
<g id="Layer_1">
</g>
<g id="Layer_2">
	<g>
		<path d="M563.804,377.354c-29.533,0-44.099,11.772-51.803,41.755c-9.858,38.363,46.154,145.324,3.197,147.105
			c0-86.454-41.84-137.764-58.342-137.764c0.682-9.657-6.466-12.673-6.466-12.673s-2.925,2.139-4.043,6.479
			c-3.6-6.019-7.552-5.265-7.552-5.265l-1.773,11.131c0,0-24.449,12.271-24.781,61.926c2.838,6.479,20.658,11.613,33.312,8.316
			c11.939,0.887,8.98,15.203,6.308,19.045c-11.279,16.21-21.741-5.572-35.11-5.572s-13.369,19.212,0,19.212
			s13.369,19.212,40.106,19.212c-41.359,23.114,0,76.848,0,76.848h-13.368c-9.472,0-15.887,9.643-18.822,15.265
			c0.888-1.52,1.247-2.293,3.158-2.293c2.901,0,2.619,4.036,5.253,5.253c2.137,0.987,0.408,0.979-2.493,0.979
			c-0.137,0-0.284,0.003-0.438,0.008c16.954,0,59.124,0,80.186,0c40.105,0,62.79-18.406,62.79-65.89
			c0-16.313-3.918-37.749-7.123-55.911c-7.251-32.021-3.426-82.907,1.425-66.95c13.532,44.515,49.856,54.268,49.856-3.368
			C617.278,411.76,593.336,377.354,563.804,377.354z M444.383,469.678c-7.375,0-13.354-5.979-13.354-13.354
			c0-7.376,5.979-13.354,13.354-13.354c7.376,0,13.354,5.979,13.354,13.354C457.737,463.699,451.759,469.678,444.383,469.678z"/>
		<path d="M433.076,645.334c-2.634-1.217-2.352-5.253-5.253-5.253c-1.911,0-2.271,0.773-3.158,2.293
			c-0.46,0.787-1.062,1.774-2.095,2.96c-1.815,2.083,4.468,1.086,7.574,0.987c0.154-0.005,0.302-0.008,0.438-0.008
			C433.484,646.313,435.213,646.321,433.076,645.334z"/>
		<path fill="#FFFFFF" d="M442.78,461.132c-2.655,0-4.808-2.153-4.808-4.808c0-2.655,2.152-4.808,4.808-4.808
			s4.808,2.152,4.808,4.808C447.588,458.978,445.435,461.132,442.78,461.132z"/>
		<circle cx="442.78" cy="456.324" r="4.808"/>
	</g>
</g>
</svg>
