<?xml version="1.0" encoding="utf-8"?>
<!-- Generator: Adobe Illustrator 15.1.0, SVG Export Plug-In . SVG Version: 6.00 Build 0)  -->
<!DOCTYPE svg PUBLIC "-//W3C//DTD SVG 1.1//EN" "http://www.w3.org/Graphics/SVG/1.1/DTD/svg11.dtd">
<svg version="1.1" id="Layer_7" xmlns="http://www.w3.org/2000/svg" xmlns:xlink="http://www.w3.org/1999/xlink" x="0px" y="0px"
	 width="283.46px" height="283.46px" viewBox="0 0 283.46 283.46" enable-background="new 0 0 283.46 283.46" xml:space="preserve">
<g>
	<path d="M39.058,257.994h205.346c10.229,0,18.523-8.293,18.523-18.525s-8.295-18.525-18.523-18.525H39.058
		c-10.231,0-18.525,8.293-18.525,18.525S28.827,257.994,39.058,257.994z"/>
	<path d="M259.068,266.029H24.391c-2.131,0-3.858,0.482-3.858,1.078v8.189c0,0.596,1.727,1.078,3.858,1.078h234.677
		c2.131,0,3.859-0.482,3.859-1.078v-8.189C262.928,266.512,261.199,266.029,259.068,266.029z"/>
	<path d="M209.211,71.839c0-35.762-30.211-64.754-67.479-64.754c-37.27,0-67.481,28.992-67.481,64.754
		c0,21.758,11.195,40.991,28.349,52.727h78.303C198.037,112.824,209.211,93.585,209.211,71.839z M118.18,37.162
		c-5.159,1.589-10.313,5.933-14.511,12.229c-4.295,6.441-7.082,14.14-7.848,21.679l-9.243,2.847
		c1.078-10.611,5.042-21.51,11.166-30.694c6.22-9.33,13.916-15.782,21.665-18.168L118.18,37.162z"/>
	<path d="M120.215,160.928c-1.076,20.969-25.518,38.012-56.67,40.115v12.477h156.369v-12.418c-0.396-0.018-0.801-0.029-1.197-0.059
		c-31.15-2.104-55.593-19.146-56.668-40.115v-26.831h-41.833V160.928z"/>
</g>
</svg>
