<?xml version="1.0" encoding="iso-8859-1"?>
<!-- Generator: Adobe Illustrator 15.1.0, SVG Export Plug-In . SVG Version: 6.00 Build 0)  -->
<!DOCTYPE svg PUBLIC "-//W3C//DTD SVG 1.1//EN" "http://www.w3.org/Graphics/SVG/1.1/DTD/svg11.dtd">
<svg version="1.1" id="Layer_5" xmlns="http://www.w3.org/2000/svg" xmlns:xlink="http://www.w3.org/1999/xlink" x="0px" y="0px"
	 width="283.46px" height="283.46px" viewBox="0 0 283.46 283.46" style="enable-background:new 0 0 283.46 283.46;"
	 xml:space="preserve">
<g>
	<path d="M276.376,111.501l-15.109-0.106l-87.23-0.612L146.5,28.012l-4.769-14.332v-0.001l-0.001-0.003l0,0.001v-0.001
		l-4.769,14.336l-27.537,82.771l-87.23,0.612l-15.108,0.106l12.16,8.966l70.212,51.767l-26.374,83.149l-4.567,14.401h0l12.285-8.794
		l70.929-50.777l70.931,50.777l12.285,8.794l-4.568-14.401l-26.371-83.149l70.209-51.767L276.376,111.501z M185.697,160.965
		l-8.066,5.948l3.03,9.553l18.218,57.441l-49-35.078l-8.148-5.833V58.026l19.022,57.176l3.164,9.51l10.021,0.07l60.26,0.423
		L185.697,160.965z"/>
</g>
</svg>
