<?xml version="1.0" encoding="utf-8"?>
<!-- Generator: Adobe Illustrator 15.1.0, SVG Export Plug-In . SVG Version: 6.00 Build 0)  -->
<!DOCTYPE svg PUBLIC "-//W3C//DTD SVG 1.1//EN" "http://www.w3.org/Graphics/SVG/1.1/DTD/svg11.dtd">
<svg version="1.1" id="Layer_1" xmlns="http://www.w3.org/2000/svg" xmlns:xlink="http://www.w3.org/1999/xlink" x="0px" y="0px"
	 width="283.46px" height="283.46px" viewBox="0 0 283.46 283.46" enable-background="new 0 0 283.46 283.46" xml:space="preserve">
<g>
	<polygon points="9.62,196.062 7.289,195.981 7.084,193.483 9.459,193.71 	"/>
	<polygon points="182.887,87.8 189.521,86.739 194.236,90.491 197.309,99.017 209.451,101.688 214.715,107.116 220.912,104.038 
		228.875,108.636 234.18,107.806 238.289,103.484 243.266,102.136 245.434,109.084 253.771,116.312 254.52,123.869 252.33,127.702 
		260.893,142.466 270.586,153.429 276.375,154.653 263.063,166.427 251.541,172.878 245.082,183.388 238.264,185.657 
		235.975,190.024 214.67,197.601 68.716,192.649 60.708,190.263 61.225,198.714 12.102,196.308 14.357,190.513 19.337,193.106 
		22.74,186.485 24.038,176.517 22.165,171.989 25.991,166.755 32.1,165.534 46.684,172.761 48.607,170.022 46.161,162.546 
		47.165,159.005 61.332,154.925 59.352,147.226 63.51,141.098 66.764,142.327 68.639,140.292 67.861,136.134 72.299,138.299 
		76.203,137.182 77.106,140.814 79.1,139.486 79.387,134.227 81.023,137.07 86.082,135.981 95.885,143.062 99.505,137.424 
		106.605,134.277 113.221,140.691 116.85,137.054 117.12,132.554 119.758,131.364 119.204,128.339 123.703,128.01 122.011,125.878 
		125.138,127.755 126.173,131.95 133.343,136.04 137.592,133.504 141.318,122.627 147.047,121.295 149.756,114.661 155.877,110.666 
		154.596,103.022 161.416,102.468 163.857,104.572 172.531,100.298 176.551,100.464 177.799,95.903 174.586,94.702 176.48,92.307 
		174.779,88.444 179.715,84.746 	"/>
</g>
</svg>
