<?xml version="1.0" encoding="utf-8"?>
<!-- Generator: Adobe Illustrator 15.1.0, SVG Export Plug-In . SVG Version: 6.00 Build 0)  -->
<!DOCTYPE svg PUBLIC "-//W3C//DTD SVG 1.1//EN" "http://www.w3.org/Graphics/SVG/1.1/DTD/svg11.dtd">
<svg version="1.1" id="Layer_1" xmlns="http://www.w3.org/2000/svg" xmlns:xlink="http://www.w3.org/1999/xlink" x="0px" y="0px"
	 width="283.46px" height="283.46px" viewBox="0 0 283.46 283.46" enable-background="new 0 0 283.46 283.46" xml:space="preserve">
<g>
	<polygon points="254.59,109.732 254.627,111.75 263.559,118.329 264.98,124.278 274.963,131.112 276.375,135.862 274.793,146.887 
		270.109,151.893 268.676,159.958 264.834,163.57 253.936,169.104 240.266,171.635 237.686,181.649 243.389,188.191 
		244.439,195.653 238.979,203.825 236.279,213.224 225.852,218.603 226.895,229.117 222.133,228.661 211.744,216.822 
		114.315,219.99 39.632,217.342 39.493,213.968 35.499,210.038 37.639,201.143 35.478,191.243 36.9,185.063 33.949,183.206 
		36.39,177.609 32.721,175.847 34.315,169.399 31.164,167.864 31.463,164.489 27.847,163.877 28.645,148.847 25.465,144.319 
		25.583,139.297 18.112,128.224 16.424,110.521 12.939,109.19 11.493,101.593 7.084,96.407 15.25,75.5 14.395,70.158 10.745,69.361 
		12.575,61.226 10.154,54.343 121.99,56.397 227.934,55.18 229.813,62.298 234.887,65.264 231.813,74.132 236.016,94.631 
		238.982,98.778 251.771,101.794 	"/>
</g>
</svg>
