<?xml version="1.0" encoding="utf-8"?>
<!-- Generator: Adobe Illustrator 15.1.0, SVG Export Plug-In . SVG Version: 6.00 Build 0)  -->
<!DOCTYPE svg PUBLIC "-//W3C//DTD SVG 1.1//EN" "http://www.w3.org/Graphics/SVG/1.1/DTD/svg11.dtd">
<svg version="1.1" id="Layer_1" xmlns="http://www.w3.org/2000/svg" xmlns:xlink="http://www.w3.org/1999/xlink" x="0px" y="0px"
	 width="283.46px" height="283.46px" viewBox="0 0 283.46 283.46" enable-background="new 0 0 283.46 283.46" xml:space="preserve">
<g>
	<polygon points="29.922,184.382 28.39,182.775 28.985,180.363 30.058,182.656 	"/>
	<polygon points="73.791,151.411 72.275,149.878 73.717,148.493 74.864,149.373 	"/>
	<polygon points="68.424,148.571 66.374,145.526 69.02,142.535 68.255,144.011 	"/>
	<polygon points="83.648,137.313 85.518,138.62 81.971,140.92 83.036,138.101 82.251,137.835 80.559,141.102 80.702,134.884 
		82.613,132.662 	"/>
	<polygon points="81.376,127.575 81.216,129.095 78.565,127.509 79.712,121.731 	"/>
	<polygon points="75.73,104.966 74.901,107 74.386,102.238 74.979,102.484 	"/>
	<polygon points="79.173,87.84 81.376,92.758 78.829,91.998 74.39,95.627 79.141,98.014 80.452,107.222 81.269,102.974 
		85.67,106.836 85.37,112.404 82.436,108.225 79.54,108.134 78.204,99.74 76.145,99.851 73.306,95.807 76.823,88.074 	"/>
	<polygon points="70.471,84.063 71.137,86.307 67.376,83.27 69.687,78.799 	"/>
	<polygon points="75.759,80.082 74.366,78.356 75.123,76.926 76.441,78.829 	"/>
	<polygon points="65.77,81.323 66.596,84.466 61.144,82.388 59.712,76.861 62.245,76.417 	"/>
	<polygon points="70.516,71.638 74.004,74.444 71.613,76.675 69.221,72.052 70.236,77.012 67.846,77.398 66.349,75.048 
		65.729,77.115 64.998,74.817 68.137,71.588 	"/>
	<polygon points="78.583,74.872 75.22,71.436 75.295,70.236 77.888,73.104 	"/>
	<polygon points="64.677,57.609 63.23,58.181 63.193,57.146 65.03,57.198 	"/>
	<polygon points="263.387,55.144 269.662,186.42 273.508,192.206 274.904,197.03 273.252,200.017 276.375,205.059 202.021,207.956 
		198.891,210.577 182.008,211.975 178.99,214.826 169.467,216.654 159.115,221.832 145.346,222.214 135.509,226.705 
		126.514,227.667 122.418,223.295 104.075,222.493 87.433,230.034 71.272,225.53 68.7,208.905 63.308,200.835 58.312,198.14 
		51.86,199.253 46.671,193.405 41.296,193.878 38.333,191.486 32.252,194.112 27.662,190.961 24.499,192.502 26.228,174.463 
		29.17,187.468 30.535,184.506 33.324,185.746 30.39,182.751 31.649,179.209 29.725,175.17 31.813,176.279 32.602,171.816 
		34.805,173.387 36.493,172.655 32.475,169.528 25.648,169.717 24.42,161.092 27.918,164.568 27.248,161.643 35.342,158.499 
		28.974,157.328 26.081,153.552 22.863,159.395 22.842,146.501 19.067,137.797 17.867,123.251 8.395,105.394 7.084,97.307 
		9.57,88.904 7.639,85.522 33.444,97.997 56.294,101.292 61.012,98.001 59.562,99.706 63.843,104.827 67.356,102.415 
		69.044,107.559 70.733,105.513 69.044,101.88 72.71,100.24 71.905,103.15 77.453,113.607 71.103,123.391 71.133,115.169 
		69.919,118.226 69.39,116 69.875,120.005 58.361,139.282 61.323,139.984 69.46,135.818 62.101,138.879 60.046,137.613 
		65.942,127.417 72.34,123.962 77.296,115.133 79.046,116.55 77.761,110.18 80.591,112.272 82.449,119.804 79.396,120.548 
		78.057,122.952 75.891,120.966 78.057,128.445 75.102,124.907 74.543,126.333 76.453,128.696 74.95,131.149 79.383,128.441 
		80.854,131.647 78.496,144.479 74.515,142.515 76.602,138.607 76.453,137.366 73.207,140.583 71.4,148.88 70.562,137.563 
		64.821,148.301 61.23,149.973 60.851,150.749 62.935,150.807 60.802,152.463 66.004,148.67 63.123,153.215 65.766,150.885 
		67.097,155.101 68.643,149.217 68.363,150.955 69.867,149.213 73.019,153.133 78.331,147.228 79.617,141.898 83.131,144.536 
		86.799,139.971 84.273,128.972 86.414,129.649 86.644,127.812 83.694,124.661 84.664,117.787 87.643,110.579 92.068,106.425 
		87.125,103.129 86.056,96.921 84.047,95.804 82.971,99.575 86.825,104.925 82.133,100.997 81.241,95.487 85.633,95.569 
		85.802,92.36 80.919,88.695 80.144,85.69 77.181,87.146 75.977,85.785 75.427,82.362 77.764,81.5 79.445,84.453 79.893,82.896 
		82.51,84.692 80.044,78.081 83.312,79.704 84.265,78.405 82.182,69.563 80.016,68.268 76.877,70.635 74.498,61.238 72.459,60.338 
		75.023,59.159 74.349,57.45 172.17,58.008 	"/>
</g>
</svg>
