<?xml version="1.0" encoding="utf-8"?>
<!-- Generator: Adobe Illustrator 15.1.0, SVG Export Plug-In . SVG Version: 6.00 Build 0)  -->
<!DOCTYPE svg PUBLIC "-//W3C//DTD SVG 1.1//EN" "http://www.w3.org/Graphics/SVG/1.1/DTD/svg11.dtd">
<svg version="1.1" id="Layer_1" xmlns="http://www.w3.org/2000/svg" xmlns:xlink="http://www.w3.org/1999/xlink" x="0px" y="0px"
	 width="283.46px" height="283.46px" viewBox="0 0 283.46 283.46" enable-background="new 0 0 283.46 283.46" xml:space="preserve">
<g>
	<polygon points="238.217,258.274 237.457,258.526 238.139,254.667 238.266,257.056 	"/>
	<polygon points="147.098,139.527 145.805,139.01 146.959,137.596 147.961,138.135 	"/>
	<polygon points="150.965,136.438 149.35,136.339 149.107,133.08 150.752,133.993 	"/>
	<polygon points="155.246,122.824 155.074,123.543 153.73,120.901 154.582,121.546 	"/>
	<polygon points="163.699,115.234 161.111,114.557 163.1,107.769 165.063,108.323 	"/>
	<polygon points="187.705,107.501 193.789,111.434 201.811,112.884 205.068,118.222 210.115,118.539 226.703,127.262 
		230.451,137.096 226.059,135.694 224.846,138.587 229.682,146.501 229.439,165.517 223.621,169.347 222.08,177.815 214.08,181.05 
		211.955,191.954 220.035,196.696 224.127,191.667 225.582,192.597 229.957,184.259 227.871,183.478 232.402,180.634 
		241.287,176.769 247.582,180.302 251.021,187.192 259.025,219.79 256.375,236.362 252.879,239.077 253.08,233.958 247.531,235.396 
		248.875,237.517 246.188,239.356 245.613,245.771 238.582,251.614 236.775,258.415 237.316,262.071 228.803,273.874 
		187.594,276.376 187.549,273.964 124.112,274.103 129.931,269.329 138.581,253.681 143.531,234.886 143.307,222.702 
		140.314,213.63 142.488,211.649 139.435,212.159 133.888,196.833 137.126,188.8 134.747,177.968 142.271,165.933 142.25,152.944 
		147.488,150.269 147.961,143.505 152.07,140.731 155.168,141.948 163.008,131.058 160.244,146.069 161.711,148.843 
		165.031,139.971 163.688,149.657 168.055,139.577 168.691,127.829 181.969,122.343 178.254,121.402 176.289,118.086 
		176.877,113.764 180.887,109.556 179.355,107.621 	"/>
	<polygon points="196.535,106.445 197.031,108.672 195.002,109.252 191.258,106.001 	"/>
	<polygon points="165.643,106.314 164.525,106.676 164.27,105.193 164.365,105.356 	"/>
	<polygon points="197.039,98.536 196.893,99.082 198.092,99.933 195.697,99.415 	"/>
	<polygon points="222.969,97.273 220.643,100.557 211.221,98.22 216.986,95.577 216.834,93.103 	"/>
	<polygon points="204.424,87.705 201.918,85.909 202.303,84.232 204.145,85.698 	"/>
	<polygon points="204.219,83.558 202.455,83.632 199.506,78.121 201.713,75.418 203.869,76.244 202.369,80.074 	"/>
	<polygon points="131.932,77.908 132.927,78.992 130.864,78.891 130.568,75.073 	"/>
	<polygon points="78.764,54.141 81.017,56.915 79.792,65.503 82.023,61.73 89.419,57.63 84.924,63.127 90.085,59.417 99.211,60.74 
		103.879,63.847 110.947,76.494 115.146,77.563 121.795,75.612 124.967,79.453 128.484,77.781 131.344,80.452 146.063,70.035 
		163.844,70.282 180.012,65.881 177.682,77.546 184.006,79.453 188.641,77.53 191.18,80.731 197.805,77.151 202.547,87.618 
		200.295,89.287 206.984,91.755 206.248,93.757 211.084,97.364 210.736,99.069 194.846,97.653 192.643,98.629 188.953,95.988 
		186.838,104.276 178.459,97.426 163.893,94.167 160.473,98.972 153.176,99.645 152.551,101.556 142.939,100.516 139.85,106.342 
		135.018,108.455 132.142,114.803 129.536,112.067 132.002,107.493 133.896,107.657 134.377,103.458 127.675,104.116 
		125.361,109.638 122.21,111.319 121.659,101.638 118.458,110.838 103.243,132.407 103.308,135.242 99.454,131.543 101.492,123.831 
		95.284,123.785 97.893,111.015 89.1,105.989 88.861,100.664 77.252,96.439 68.381,95.708 60.435,90.74 32.098,81.458 
		29.268,74.329 24.435,72.144 42.375,61.661 53.699,60.786 61.515,55.209 66.125,54.856 75.211,46.104 75.757,49.719 76.36,50.381 
		79.159,51.463 	"/>
	<polygon points="101.636,38.777 93.459,40.117 95.345,41.839 87.698,47.308 81.51,56.492 79.923,53.382 81.682,51.586 
		82.471,48.031 81.288,51.388 76.209,49.67 76.71,46.124 86.034,38.178 99.108,36.579 	"/>
	<polygon points="80.786,7.569 82.191,7.084 76.961,13.133 66.565,18.195 69.027,18.573 60.595,19.867 63.302,15.532 	"/>
</g>
</svg>
