<?xml version="1.0" encoding="utf-8"?>
<!-- Generator: Adobe Illustrator 15.1.0, SVG Export Plug-In . SVG Version: 6.00 Build 0)  -->
<!DOCTYPE svg PUBLIC "-//W3C//DTD SVG 1.1//EN" "http://www.w3.org/Graphics/SVG/1.1/DTD/svg11.dtd">
<svg version="1.1" id="Layer_1" xmlns="http://www.w3.org/2000/svg" xmlns:xlink="http://www.w3.org/1999/xlink" x="0px" y="0px"
	 width="283.46px" height="283.46px" viewBox="0 0 283.46 283.46" enable-background="new 0 0 283.46 283.46" xml:space="preserve">
<g>
	<polygon points="201.779,190.712 200.945,193.272 199.635,192.632 199.691,191.653 	"/>
	<polygon points="205.469,181.208 204.229,183.896 203.793,184.351 204.689,181.435 	"/>
	<polygon points="219.592,168.067 214.67,170.681 211.051,174.112 212.719,171.757 216.631,169.099 	"/>
	<polygon points="244.428,163.116 244.004,163.325 240.809,161.382 243.557,162.071 	"/>
	<polygon points="239.982,160.892 235.523,161.073 227.24,163.21 233.387,161.296 238.379,160.47 	"/>
	<polygon points="245.004,164.077 248.258,157.38 254.367,151.655 248.619,157.626 	"/>
	<polygon points="256.188,149.835 258.008,146.853 259.266,147.192 256.631,149.116 	"/>
	<polygon points="263.107,144.296 259.854,146.671 260.629,144.854 267.217,141.892 	"/>
	<polygon points="274.051,140.351 268.277,142.238 274.803,138.19 275.891,128.003 274.148,120.077 276.375,127.337 
		275.518,136.481 	"/>
	<polygon points="270.82,118.364 269.793,118.183 267.775,114.206 269.629,114.904 	"/>
	<polygon points="265.199,100.333 267.775,107.372 273.922,119.58 267.768,111.811 268.926,110.778 264.451,101.298 262.299,92.017 
			"/>
	<polygon points="259.721,92.078 261.451,92.038 261.748,94.001 259.598,93.931 258.336,92.107 	"/>
	<polygon points="134.399,93.524 257.787,92.119 257.943,94.7 259.813,96.417 259.686,97.584 261.098,98.927 261.299,96.487 
		265.695,109.222 260.148,101.052 261.92,106.258 253.031,100.682 257.264,106.51 254.154,107.754 250.357,104.824 252.629,108.955 
		245.232,105.215 249.885,109.16 241.982,112.459 238.646,110.922 237.254,106.303 238.672,102.354 237.135,101.089 236.48,108.342 
		238.629,112.751 237.451,115.052 246.732,113.49 251.496,115.458 250.83,113.684 257.914,113.091 257.881,120.14 255.834,120.155 
		258.563,123.619 255.436,123.709 258.801,125.382 259.775,116.618 261.391,115.163 263.65,116.728 262.184,114.637 
		264.689,114.813 263.793,113.046 267.916,118.5 267.619,125.785 264.689,128.254 263.182,125.751 259.139,133.946 255.518,136.723 
		249.244,134.447 248.758,137.06 247.287,132.606 244.934,135.375 242.514,131.509 245.861,129.808 240.311,130.7 241.859,135.313 
		228.061,130.461 230.42,133.974 245.895,139.822 239.768,143.671 242.908,143.317 243.293,145.294 237.209,150.442 
		227.502,144.437 231.861,150.903 237.496,153.368 241.248,150.431 244.1,152.396 243.166,150.151 245.59,150.858 246.586,147.103 
		246.465,152.021 250.592,150.612 249.691,148.729 252.289,150.956 245.105,159.688 241.885,156.743 241.457,160.708 
		239.785,157.358 237.209,159.167 239.336,160.149 233.398,159.774 227.42,162.2 226.188,159.063 226.08,162.026 220.619,166.497 
		218.057,165.622 220.105,163.337 216.914,159.554 218.611,164.021 216.564,164.911 218.783,167.899 214.008,170.142 
		208.115,175.874 201.771,190.21 202.334,183.612 201.041,180.571 201.518,187.536 199.006,191.653 188.426,189.562 
		182.754,192.626 149.195,158.304 114.712,156.702 114.533,151.733 110.357,146.071 106.926,147.784 106.515,144.53 66.189,140.976 
		44.46,148.216 7.084,146.946 8.597,138.025 15.105,136.945 17.423,131.274 21.298,128.217 33.165,126.644 43.375,120.196 
		48.844,119.396 51.586,113.499 54.494,114.078 60.087,109.694 62.068,113.305 72.722,106.357 77.009,108.358 82.514,100.826 
		87.811,99.979 89.795,90.188 	"/>
</g>
</svg>
