<?xml version="1.0" encoding="utf-8"?>
<!-- Generator: Adobe Illustrator 15.1.0, SVG Export Plug-In . SVG Version: 6.00 Build 0)  -->
<!DOCTYPE svg PUBLIC "-//W3C//DTD SVG 1.1//EN" "http://www.w3.org/Graphics/SVG/1.1/DTD/svg11.dtd">
<svg version="1.1" id="Layer_1" xmlns="http://www.w3.org/2000/svg" xmlns:xlink="http://www.w3.org/1999/xlink" x="0px" y="0px"
	 width="283.46px" height="283.46px" viewBox="0 0 283.46 283.46" enable-background="new 0 0 283.46 283.46" xml:space="preserve">
<g>
	<polygon points="269.871,209.893 274.293,221.566 266.51,223.872 253.973,220.465 268.148,217.844 270.512,214.067 
		265.857,217.527 268.699,211.253 267.779,208.549 	"/>
	<polygon points="237.639,212.26 236.223,213.003 233.518,209.667 236.875,205.997 	"/>
	<polygon points="226.426,201.884 225.645,204.255 229.24,202.151 230,204.612 227.736,206.293 232.225,207.682 233.033,212.802 
		221.01,213.492 212.604,217.671 208.025,213.418 214.279,211.992 221.371,203.462 	"/>
	<polygon points="271.047,192.983 269.584,193.325 273.064,182.884 274.137,184.987 	"/>
	<polygon points="204.324,60.751 208.527,60.454 208.949,65.595 204.902,65.627 210.418,70.197 212.637,76.632 209.016,73.283 
		209.328,76.423 215.158,80.108 212.674,80.819 214.033,82.578 218.184,82.936 219.621,85.051 219.785,81.444 223.311,78.715 
		225.957,84.756 217.689,90.143 204.053,94.712 203.063,98.221 205.844,96.096 207.051,98.558 200.818,101.984 203.115,105.725 
		197.781,104.759 198.615,112.693 195.271,110.59 196.023,112.709 192.309,111.42 191.43,112.739 193.992,114.789 191.926,115.521 
		192.227,117.919 195.588,117.587 195.193,120.34 197.896,120.677 198.484,124.396 205.051,122.176 202.68,116.794 214.473,125.037 
		226.012,146.921 222.484,147.637 224.018,146.991 221.635,142.143 220.436,147.657 217.867,147.682 223.604,153.225 
		229.537,154.617 230.572,167.134 232.775,169.743 240.627,174.185 250.156,174.933 245.615,176.708 252.514,176.124 
		269.164,169.127 270.734,166.542 268.963,157.44 271.551,155.957 267.668,153.964 265.438,158.875 262.512,143.684 257.43,141.908 
		256.158,145.66 251.766,141.083 253.436,138.608 258.465,138.725 265.635,142.932 271.711,150.451 276.375,164.253 273.17,162.868 
		272.291,168.448 275.73,168.806 275.604,180.775 257.018,182.465 250.484,187.593 251.314,183.989 241.49,186.845 239.465,184.774 
		233.041,192.544 219.354,196 221.816,191.221 221.27,180.509 223.846,175.947 222.592,174.797 221.232,176.725 217.271,174.136 
		217.145,180.2 215.143,179.991 212.537,184.433 210.754,183.176 206.83,186.167 207.225,189.886 202.646,185.136 199.516,195.598 
		192.531,198.593 190.279,197.586 192.234,195.593 190.82,192.832 189.971,195.416 187.168,194.915 188.211,196.97 186.342,198.025 
		185.566,183.118 180.814,181.553 187.053,169.402 182.143,176.523 178.762,176.055 177.568,178.273 170.99,171.411 169.93,160.066 
		166.807,158.969 166.188,147.443 63.263,145.015 62.799,147.312 59.557,147.587 59.503,144.957 9.033,141.822 7.084,139.312 
		27.532,72.029 172.096,78.42 180.26,73.229 184.332,66.787 189.316,66.416 200.264,59.588 	"/>
</g>
</svg>
