<?xml version="1.0" encoding="utf-8"?>
<!-- Generator: Adobe Illustrator 15.1.0, SVG Export Plug-In . SVG Version: 6.00 Build 0)  -->
<!DOCTYPE svg PUBLIC "-//W3C//DTD SVG 1.1//EN" "http://www.w3.org/Graphics/SVG/1.1/DTD/svg11.dtd">
<svg version="1.1" id="Layer_1" xmlns="http://www.w3.org/2000/svg" xmlns:xlink="http://www.w3.org/1999/xlink" x="0px" y="0px"
	 width="283.46px" height="283.46px" viewBox="0 0 283.46 283.46" enable-background="new 0 0 283.46 283.46" xml:space="preserve">
<g>
	<polygon points="228.355,11.288 228.644,187.981 226.047,190.431 228.759,196.335 225.898,200.071 230.87,201.837 229.753,208.493 
		222.87,208.728 209.623,215.513 205.817,212.331 195.327,213.351 197.48,225.083 191.534,230.847 188.152,231.374 184.143,241.649 
		179.158,244.347 175.353,243.837 171.531,250.427 169.876,260.667 163.399,264.669 152.26,258.546 150.571,252.116 145.71,249.298 
		148.369,252.54 143.886,254.671 141.449,253.151 142.377,257.798 138.346,259.692 138.03,266.626 134.45,267.874 132.536,272.308 
		130.469,271.601 131.525,269.065 124.605,267.468 122.198,262.595 111.345,267.606 105.906,276.376 103.453,272.378 
		90.644,265.708 82.882,267.505 80.297,263.169 80.573,269.427 78.563,272.769 75.728,272.53 75.461,267.792 69.483,269.608 
		63.545,265.841 62.176,267.792 63.894,272.765 61.059,275.94 53.358,273.286 56.35,272.329 52.59,267.804 56.563,267.431 
		56.427,257.507 60.643,255.448 57.34,254.397 62.587,250.315 59.612,245.294 62.197,240.874 64.351,242.237 65.981,239.731 
		67.379,241.333 72.721,232.786 72.244,230.099 78.123,227.778 77.771,222.716 86.058,209.866 83.79,202.03 84.986,196.665 
		78.321,185.606 82.048,179.755 81.354,171.978 85.754,169.239 89.748,8.649 92.843,12.053 94.486,11.448 95.397,14.304 
		101.273,15.644 114.694,12.275 124.26,7.084 228.303,7.327 	"/>
</g>
</svg>
