<?xml version="1.0" encoding="utf-8"?>
<!-- Generator: Adobe Illustrator 15.1.0, SVG Export Plug-In . SVG Version: 6.00 Build 0)  -->
<!DOCTYPE svg PUBLIC "-//W3C//DTD SVG 1.1//EN" "http://www.w3.org/Graphics/SVG/1.1/DTD/svg11.dtd">
<svg version="1.1" id="Layer_1" xmlns="http://www.w3.org/2000/svg" xmlns:xlink="http://www.w3.org/1999/xlink" x="0px" y="0px"
	 width="283.46px" height="283.46px" viewBox="0 0 283.46 283.46" enable-background="new 0 0 283.46 283.46" xml:space="preserve">
<g>
	<polygon points="236.021,100.053 238.602,100.817 240.796,113.465 249.856,128.632 249.77,138.583 252.662,139.085 
		252.375,141.266 254.729,142.198 253.937,146.928 256.677,147.994 255.165,151.488 257.454,153.329 257.828,171.376 
		263.568,179.604 265.417,187.889 270.85,190.107 273.105,198.237 276.376,199.877 172.294,203.559 67.314,203.11 68.269,162.774 
		7.084,160.567 10.947,79.901 92.404,82.471 175.905,82.371 190.279,90.804 195.186,87.15 211.88,86.156 216.417,89.829 
		229.393,94.103 231.633,99.251 	"/>
</g>
</svg>
