<?xml version="1.0" encoding="utf-8"?>
<!-- Generator: Adobe Illustrator 15.1.0, SVG Export Plug-In . SVG Version: 6.00 Build 0)  -->
<!DOCTYPE svg PUBLIC "-//W3C//DTD SVG 1.1//EN" "http://www.w3.org/Graphics/SVG/1.1/DTD/svg11.dtd">
<svg version="1.1" id="Layer_1" xmlns="http://www.w3.org/2000/svg" xmlns:xlink="http://www.w3.org/1999/xlink" x="0px" y="0px"
	 width="283.46px" height="283.46px" viewBox="0 0 283.46 283.46" enable-background="new 0 0 283.46 283.46" xml:space="preserve">
<g>
	<polygon points="232.717,183.296 232.553,180.765 233.971,179.169 233.781,180.595 	"/>
	<polygon points="62.894,34.601 135.649,38.435 136.524,44.38 142.75,41.118 150.613,51.349 151.566,60.575 214.41,62.131 
		276.322,122.953 274.822,123.442 276.375,125.304 265.725,130.247 256.023,139.706 245.229,155.157 242.604,168.733 
		240.783,163.153 237.441,162.085 241.99,153.878 239.596,155.612 235.902,163.501 242.645,171.05 240.002,173.915 237.791,172.333 
		237.652,175.304 233.723,173.093 236.502,176.243 232.047,179.351 231.213,182.53 225.279,184.376 223.59,181.026 219.912,182.933 
		217.711,187.712 218.717,189.565 220.611,188.147 219.781,189.696 206.172,200.134 201.705,197.628 202.467,193.929 
		199.52,194.192 200.123,198.794 198.197,198.696 203.938,201.827 203.77,203.853 199.545,207.634 194.959,207.981 196.166,210.493 
		186.313,213.604 181.189,209.946 184.748,214.048 177.5,219.134 175.309,215.966 173.979,219.718 165.496,214.167 165.9,216.981 
		158.031,216.87 157.596,218.448 169.051,219.747 162.777,221.21 170.215,223.466 165.131,228.647 171.861,224.364 169.535,230.278 
		159.982,234.116 158.758,220.831 157.246,220.72 157.586,231.683 152.906,227.763 151.383,218.546 147.389,215.649 
		150.635,230.554 157.629,237.653 149.398,244.907 151.9,238.175 151.744,235.636 145.395,250.034 139.154,246.345 134.547,246.345 
		130.027,239.097 131.457,230.464 127.505,219.376 115.757,209.864 115.979,201.687 110.427,188.995 109.478,181.673 
		95.708,173.692 94.747,169.476 90.704,166.624 91.119,162.964 86.064,159.692 85.732,151.897 78.768,145.142 72.431,142.242 
		66.97,131.226 50.291,118.113 48.282,112.078 41.572,104.204 34.689,84.419 24.067,81.777 17.435,73.735 7.084,67.046 9.899,59.53 
		20.973,47.523 41.358,42.966 45.632,39.355 59.085,36.092 61.566,33.425 	"/>
</g>
</svg>
