<?xml version="1.0" encoding="utf-8"?>
<!-- Generator: Adobe Illustrator 15.1.0, SVG Export Plug-In . SVG Version: 6.00 Build 0)  -->
<!DOCTYPE svg PUBLIC "-//W3C//DTD SVG 1.1//EN" "http://www.w3.org/Graphics/SVG/1.1/DTD/svg11.dtd">
<svg version="1.1" id="Layer_1" xmlns="http://www.w3.org/2000/svg" xmlns:xlink="http://www.w3.org/1999/xlink" x="0px" y="0px"
	 width="283.46px" height="283.46px" viewBox="0 0 283.46 283.46" enable-background="new 0 0 283.46 283.46" xml:space="preserve">
<g>
	<polygon points="214.518,112.046 276.375,109.725 275.049,119.956 269.652,121.218 264.537,129.378 259.973,127.632 
		249.51,135.569 247.205,131.995 241.766,136.919 238.725,136.535 236.332,142.811 230.762,144.034 220.711,151.424 
		208.602,153.914 204.832,157.349 202.855,163.355 196.232,164.945 195.324,174.244 119.788,174.508 7.084,170.739 14.444,165.857 
		13.86,157.368 20.303,150.812 19.514,144.088 26.829,140.147 25.777,137.223 28.414,137.805 27.317,132.472 30.629,128.503 
		28.278,124.389 32.434,123.901 30.465,120.855 33.538,119.359 32.803,114.873 35.231,116.783 36.978,115.066 79.602,116.271 
		79.001,108.952 85.986,110.88 	"/>
</g>
</svg>
