<?xml version="1.0" encoding="utf-8"?>
<!-- Generator: Adobe Illustrator 15.1.0, SVG Export Plug-In . SVG Version: 6.00 Build 0)  -->
<!DOCTYPE svg PUBLIC "-//W3C//DTD SVG 1.1//EN" "http://www.w3.org/Graphics/SVG/1.1/DTD/svg11.dtd">
<svg version="1.1" id="Layer_1" xmlns="http://www.w3.org/2000/svg" xmlns:xlink="http://www.w3.org/1999/xlink" x="0px" y="0px"
	 width="283.46px" height="283.46px" viewBox="0 0 283.46 283.46" enable-background="new 0 0 283.46 283.46" xml:space="preserve">
<g>
	<polygon points="268.207,97.515 275.369,140.266 276.375,207.398 263.695,203.64 260.551,199.903 252.26,195.991 247.961,199.768 
		243.445,199.617 240.121,196.735 234.25,200.606 229.236,199.169 218.006,204.502 216.781,206.89 208.535,201.732 207.891,199.188 
		203.164,201.416 197.182,197.299 192.633,201.037 190.459,206.33 188.221,199.21 181.004,202.468 174.4,196.028 167.99,200.932 
		165.205,200.738 164.26,196.021 160.004,194.763 159.424,190.06 151.822,190.281 147.08,192.898 144.035,189.717 139.725,190.478 
		125.134,187.096 124.661,183.164 119.282,177.687 117.508,180.825 109.65,180.333 102.443,173.229 99.013,172.966 100.446,98.702 
		7.084,95.32 8.058,76.062 138.768,79.953 267.545,78.222 	"/>
</g>
</svg>
