<?xml version="1.0" encoding="utf-8"?>
<!-- Generator: Adobe Illustrator 15.1.0, SVG Export Plug-In . SVG Version: 6.00 Build 0)  -->
<!DOCTYPE svg PUBLIC "-//W3C//DTD SVG 1.1//EN" "http://www.w3.org/Graphics/SVG/1.1/DTD/svg11.dtd">
<svg version="1.1" id="Layer_1" xmlns="http://www.w3.org/2000/svg" xmlns:xlink="http://www.w3.org/1999/xlink" x="0px" y="0px"
	 width="283.46px" height="283.46px" viewBox="0 0 283.46 283.46" enable-background="new 0 0 283.46 283.46" xml:space="preserve">
<g>
	<polygon points="264.834,180.874 270.404,182.944 276.375,189.786 263.852,199.134 260.498,196.85 258.309,186.635 
		261.744,182.798 261.064,178.79 	"/>
	<polygon points="251.014,175.048 249.576,175.303 248.939,174.973 250.805,173.839 	"/>
	<polygon points="246.408,171.682 244.971,171.58 243.82,169.355 246.906,169.874 	"/>
	<polygon points="250.592,167.347 252.174,169.438 255.48,168.826 258.982,172.026 253.109,174.143 248.824,169.105 	"/>
	<polygon points="241.223,164.577 246.232,165.49 248.82,165.49 240.742,166.644 	"/>
	<polygon points="231.861,158.916 234.34,160.998 234.529,163.936 230.518,161.955 228.945,163.483 226.484,159.314 
		230.732,157.214 	"/>
	<polygon points="199.055,155.685 198.604,154.378 201.068,152.46 200.855,154.005 	"/>
	<polygon points="211.111,149.431 209.645,154.715 204.957,152.274 207.768,149.423 	"/>
	<polygon points="174.482,136.664 174.496,136.569 174.557,136.577 174.549,136.632 	"/>
	<polygon points="135.591,127.632 135.66,127.764 135.529,127.703 	"/>
	<polygon points="89.936,104.708 89.923,104.757 89.891,104.526 89.947,104.602 	"/>
	<polygon points="38.207,90.684 38.099,90.987 37.967,90.918 37.956,90.729 	"/>
	<polygon points="7.175,84.503 7.084,84.517 7.105,84.326 7.158,84.454 	"/>
</g>
</svg>
