<?xml version="1.0" encoding="utf-8"?>
<!-- Generator: Adobe Illustrator 15.1.0, SVG Export Plug-In . SVG Version: 6.00 Build 0)  -->
<!DOCTYPE svg PUBLIC "-//W3C//DTD SVG 1.1//EN" "http://www.w3.org/Graphics/SVG/1.1/DTD/svg11.dtd">
<svg version="1.1" id="Layer_1" xmlns="http://www.w3.org/2000/svg" xmlns:xlink="http://www.w3.org/1999/xlink" x="0px" y="0px"
	 width="283.46px" height="283.46px" viewBox="0 0 283.46 283.46" enable-background="new 0 0 283.46 283.46" xml:space="preserve">
<g>
	<polygon points="101.697,61.549 100.822,60.269 101.858,59.952 102.228,61.11 	"/>
	<polygon points="116.252,68.725 113.228,63.875 113.294,58.044 116.581,63.321 	"/>
	<polygon points="110.725,54.375 110.502,54.524 107.685,52.379 109.488,51.963 	"/>
	<path d="M56.966,7.492l104.596,1.047l0.291,53.553l81.273-1.36l6.037,214.241l-107.436,1.402L34.296,274.69l7.73-267.606
		L56.966,7.492 M89.046,27.659l-6.76,1.548l1.862,2.026l-1.871,2.363l3.106,10.227l-3.016,2.68l1.891,0.617l1.886-2.983l3.188,3.085
		l2.802,4.328l0.687,9.968l4.865,3.496l3.04,6l2.931-6.196l3.217,13.051l2.465,0.735l6.415-4.475l2.626-5.453l7.72-4.532
		l-6.997-5.366l-6.094-10.948l-2.757-0.356l2.946-4.097l6.258,0.649l1.717-3.029l-8.596,0.37l-0.608-3.361l-4.285-0.56l1.696,12.082
		L106,50.862l-3.365-11.391l-4.877-0.933l-3.423-3.632l0.966-7.286l-2.876-2.37L89.046,27.659z"/>
</g>
</svg>
