<?xml version="1.0" encoding="utf-8"?>
<!-- Generator: Adobe Illustrator 15.1.0, SVG Export Plug-In . SVG Version: 6.00 Build 0)  -->
<!DOCTYPE svg PUBLIC "-//W3C//DTD SVG 1.1//EN" "http://www.w3.org/Graphics/SVG/1.1/DTD/svg11.dtd">
<svg version="1.1" id="Layer_1" xmlns="http://www.w3.org/2000/svg" xmlns:xlink="http://www.w3.org/1999/xlink" x="0px" y="0px"
	 width="283.46px" height="283.46px" viewBox="0 0 283.46 283.46" enable-background="new 0 0 283.46 283.46" xml:space="preserve">
<g>
	<polygon points="139.581,13.1 131.865,19.888 130.212,27.752 121.473,39.698 114.487,43.783 112.885,51.812 118.477,57.864 
		120.096,64.813 115.72,76.063 130.035,102.554 134.719,103.976 139.22,109.696 143.715,121.616 142.975,138.833 145.133,156.778 
		149.373,159.407 156.342,173.233 157.891,185.114 179.307,208.235 191.93,209.899 193.158,212.308 195.053,233.165 
		193.504,240.409 192.93,231.292 190.879,228.452 183.594,228.476 186.17,236.437 181.063,236.452 189.402,240.413 185.955,243.745 
		175.473,246.622 172.758,249.884 175.889,249.876 172.77,253.866 185.266,249.847 189.93,254.421 195.533,244.694 197.9,276.313 
		193.023,274.913 191.795,276.376 96.449,276.317 85.559,29.676 98.001,14.062 113.172,7.084 129.127,8.021 	"/>
</g>
</svg>
