<?xml version="1.0" encoding="utf-8"?>
<!-- Generator: Adobe Illustrator 15.1.0, SVG Export Plug-In . SVG Version: 6.00 Build 0)  -->
<!DOCTYPE svg PUBLIC "-//W3C//DTD SVG 1.1//EN" "http://www.w3.org/Graphics/SVG/1.1/DTD/svg11.dtd">
<svg version="1.1" id="Layer_1" xmlns="http://www.w3.org/2000/svg" xmlns:xlink="http://www.w3.org/1999/xlink" x="0px" y="0px"
	 width="283.46px" height="283.46px" viewBox="0 0 283.46 283.46" enable-background="new 0 0 283.46 283.46" xml:space="preserve">
<g>
	<polygon points="120.188,275.84 113.282,277.105 109.973,275.039 109.127,270.502 111.691,263.924 117.498,261.113 117.41,253.273 
		121.195,254.617 121.393,264.347 125.292,272.659 	"/>
	<polygon points="162.191,180.223 160.231,178.611 160.732,167.858 164.077,163.399 161.55,160.499 165.647,144.42 169.994,148.023 
		170.45,157.347 167.155,174.252 	"/>
	<polygon points="198.441,168.594 199.473,172.045 192.158,169.925 183.176,179.203 178.521,178.479 173.097,182.864 
		171.133,181.742 171.881,175.669 181.854,170.146 177.904,162.508 181.734,154.339 181.804,147.58 188.646,139.649 
		191.345,127.322 202.365,118.582 199.629,135.64 	"/>
	<polygon points="225.685,164.534 210.711,178.39 206.894,167.829 208.353,162.146 204.802,136.744 205.575,123.021 
		208.558,113.487 223.28,118.335 220.791,135.433 223.367,138.843 	"/>
	<polygon points="165.881,45.174 174.835,46.936 174.161,76.12 178.118,82.073 191.214,90.776 198.503,103.334 197.583,112.127 
		191.391,116.901 183.357,118.906 182.186,111.087 187.688,91.06 183.994,88.795 181.697,99.455 175.069,95.781 170.722,91.895 
		167.262,77.631 162.359,69.27 162.393,93.085 167.969,98.909 168.786,102.578 164.012,114.403 160.745,109.555 156.02,108.014 
		149.44,113.458 154.927,116.293 157.987,127.276 157.494,133.581 150.386,145.484 154.651,156.636 154.959,173.015 
		154.339,178.517 139.73,209.15 137.508,210.489 127.083,206.422 116.272,206.898 77.277,221.395 55.808,224.341 59.453,202.452 
		62.365,195.771 65.439,194.978 67.597,162.787 66.947,9.24 163.239,7.814 	"/>
</g>
</svg>
