<?xml version="1.0" encoding="utf-8"?>
<!-- Generator: Adobe Illustrator 15.1.0, SVG Export Plug-In . SVG Version: 6.00 Build 0)  -->
<!DOCTYPE svg PUBLIC "-//W3C//DTD SVG 1.1//EN" "http://www.w3.org/Graphics/SVG/1.1/DTD/svg11.dtd">
<svg version="1.1" id="Layer_1" xmlns="http://www.w3.org/2000/svg" xmlns:xlink="http://www.w3.org/1999/xlink" x="0px" y="0px"
	 width="283.46px" height="283.46px" viewBox="0 0 283.46 283.46" enable-background="new 0 0 283.46 283.46" xml:space="preserve">
<g>
	<polygon points="275.209,118.329 271.576,120.17 264.771,132.509 256.303,140.608 259.799,148.099 257.75,152.799 253.99,155.153 
		253.66,158.671 254.627,166.511 258.953,167.111 261.66,175.683 264.496,175.625 276.375,190.426 258.604,202.433 257.434,206.801 
		244.674,212.939 236.424,211.292 231.771,213.585 228.398,218.544 211.885,218.869 7.085,217.496 11.42,80.817 25.559,74.703 
		31.144,69.912 28.994,72.771 45.951,64.591 45.579,80.821 245.008,80.518 248.512,83.401 249.256,87.351 257.039,90.399 
		258.268,103.828 261.949,110.185 273.113,113.858 	"/>
</g>
</svg>
