<?xml version="1.0" encoding="utf-8"?>
<!-- Generator: Adobe Illustrator 15.1.0, SVG Export Plug-In . SVG Version: 6.00 Build 0)  -->
<!DOCTYPE svg PUBLIC "-//W3C//DTD SVG 1.1//EN" "http://www.w3.org/Graphics/SVG/1.1/DTD/svg11.dtd">
<svg version="1.1" id="Layer_1" xmlns="http://www.w3.org/2000/svg" xmlns:xlink="http://www.w3.org/1999/xlink" x="0px" y="0px"
	 width="283.46px" height="283.46px" viewBox="0 0 283.46 283.46" enable-background="new 0 0 283.46 283.46" xml:space="preserve">
<g>
	<polygon points="206.428,261.831 200.773,244.713 200.32,237.642 200.539,235.997 200.838,235.632 	"/>
	<polygon points="204.57,224.566 202.75,228.511 200.584,235.25 203.012,224.656 207.125,220.034 	"/>
	<polygon points="207.605,219.355 209.801,213.78 211.021,212.966 211.193,214.388 	"/>
	<polygon points="220.291,207.365 214.197,211.495 211.498,214.371 211.957,211.553 	"/>
	<polygon points="221.412,205.759 222.137,204.526 223.801,203.696 223.809,203.856 	"/>
	<polygon points="252.428,181.216 253.76,181.602 246.498,187.691 252.193,182.074 	"/>
	<polygon points="88.436,15.063 140.995,15 141.751,60.918 148.484,65.233 153.35,65.365 154.377,63.389 158.199,69.066 
		169.934,70.275 171.883,72.174 179.447,70.147 183.252,76.615 188.828,73.509 193.049,77.344 197.432,75.169 198.973,79.521 
		202.926,73.797 206.715,76.208 209.582,74.729 215.24,79.295 222.77,74.253 225.896,75.033 229.438,72.515 234.348,74.22 
		236.92,71.796 254.133,80.224 260.926,79.907 263.807,116.946 268.314,121.58 268.889,126.249 276.375,138.888 272.842,150.599 
		274.029,162.17 269.699,167.988 271.785,171.646 266.777,172.558 253.484,180.813 254.619,178.426 258.625,176.626 258.941,175.64 
		252.424,176.818 252.938,170.639 249.986,173.93 246.729,172.833 249.621,179.74 252.252,180.719 245.184,185.152 245.678,189.039 
		241.523,193.111 229.475,198.593 229.809,200.089 234.352,197.672 224.092,203.68 228.775,199.689 223.805,201.346 
		225.645,200.298 224.486,198.818 221.221,200.327 220.307,198.096 218.969,197.352 220.727,200.561 219.539,201.37 218.17,201.839 
		219.074,200.43 214.658,198.392 218.254,203.475 217.152,204.526 220.242,205.196 215.08,208.229 211.934,204.526 212.439,210.229 
		210.463,212.51 209.109,213.155 209.693,209.831 208.506,213.003 207.553,211.24 204.221,212.593 204.898,216.254 207.52,213.857 
		204.328,220.342 197.1,219.767 202.861,223.814 199.977,232.6 197.223,233.791 198.287,231.1 195.309,233.627 192.059,229.698 
		194.494,233.404 192.215,233.804 199.729,234.329 197.051,240.94 198.92,243.665 197.215,244.692 203.375,261.684 205.557,262.365 
		204.701,264.63 206.879,262.698 207.303,265.11 203.16,266.277 202.434,268.468 195.842,264.223 183.539,263.586 170.736,256.81 
		164.084,255.754 160.779,246.089 156.055,240.653 154.648,227.886 147.762,223.489 142.855,214.885 138.159,211.602 
		129.616,191.558 117.688,179.481 116.052,180.081 114.1,175.755 99.386,175.15 94.985,172.919 93.182,175.697 87.22,176.605 
		83.546,188.723 77.899,194.221 72.353,193.346 50.472,179.375 41.058,154.602 32.154,148.311 8,123.578 7.084,119.876 
		80.262,122.333 82.415,14.992 	"/>
</g>
</svg>
