<?xml version="1.0" encoding="utf-8"?>
<!-- Generator: Adobe Illustrator 15.1.0, SVG Export Plug-In . SVG Version: 6.00 Build 0)  -->
<!DOCTYPE svg PUBLIC "-//W3C//DTD SVG 1.1//EN" "http://www.w3.org/Graphics/SVG/1.1/DTD/svg11.dtd">
<svg version="1.1" id="Layer_1" xmlns="http://www.w3.org/2000/svg" xmlns:xlink="http://www.w3.org/1999/xlink" x="0px" y="0px"
	 width="283.46px" height="283.46px" viewBox="0 0 283.46 283.46" enable-background="new 0 0 283.46 283.46" xml:space="preserve">
<g>
	<polygon points="187.238,275.103 185.948,275.278 187.962,274.896 	"/>
	<polygon points="212.25,274.929 210.2,275.241 208.576,274.526 	"/>
	<polygon points="181.321,273.808 180.355,276.097 177.02,274.181 181.658,272.632 	"/>
	<polygon points="206.473,274.72 196.291,273.405 196.291,273.056 199.126,272.632 	"/>
	<polygon points="214.584,7.647 222.654,7.61 226.874,12.599 209.103,181.44 213.183,266.933 210.138,268.931 203.921,264.964 
		196.977,267.267 187.99,262.339 185.34,263.444 191.294,264.249 172.828,269.095 168.395,265.923 167.243,267.417 168.933,269.56 
		164.047,272.567 162.986,276.368 157.041,276.376 151.679,261.374 145.831,255.235 143.637,248.696 149.131,230.995 
		56.586,229.438 60.437,226.405 57.425,214.28 63.178,213.194 64.933,206.649 63.452,201.616 68.018,197.667 72.402,182.8 
		85.01,173.382 84.967,166.265 87.976,165.978 93.991,156.21 84.885,148.153 85.288,142.466 82.206,138.061 86.833,134.44 
		82.79,131.001 87.002,122.574 82.539,119.212 83.033,111.549 86.299,108.895 85.506,102.574 82.305,100.27 85.079,91.488 
		80.123,86.41 83.842,85.338 84.126,82.777 80.583,80.048 89.311,72.76 88.283,68.868 89.911,66.283 87.306,62.922 97.303,59.137 
		93.889,53.69 98.202,51.026 100.29,46.626 102.625,46.761 103.261,41.366 106.667,41.896 110.974,39.023 112.461,22.559 
		116.619,21.643 117.363,16.597 126.3,11.415 124.871,7.084 	"/>
</g>
</svg>
