<?xml version="1.0" encoding="utf-8"?>
<!-- Generator: Adobe Illustrator 15.1.0, SVG Export Plug-In . SVG Version: 6.00 Build 0)  -->
<!DOCTYPE svg PUBLIC "-//W3C//DTD SVG 1.1//EN" "http://www.w3.org/Graphics/SVG/1.1/DTD/svg11.dtd">
<svg version="1.1" id="Layer_1" xmlns="http://www.w3.org/2000/svg" xmlns:xlink="http://www.w3.org/1999/xlink" x="0px" y="0px"
	 width="283.46px" height="283.46px" viewBox="0 0 283.46 283.46" enable-background="new 0 0 283.46 283.46" xml:space="preserve">
<g>
	<polygon points="174.475,223.714 168.775,224.597 166.824,221.704 170.99,223.964 174.496,218.655 173.744,216.683 
		179.361,216.692 	"/>
	<polygon points="185.27,207.581 183.256,210.298 196.68,184.356 192.74,195.601 	"/>
	<polygon points="204.516,67.747 202.047,77.054 193.676,83.365 194.781,77.723 188.496,84.914 182.734,96.296 181.92,104.708 
		187.07,108.224 194.352,107.929 205.137,112.597 206.637,112.182 205.371,105.312 207.377,109.642 208.469,124.653 
		201.094,147.179 203.502,152.897 198.83,179.636 197.592,182.081 201.154,155.845 199.65,150.362 199.252,155.093 194.471,157.587 
		196.176,160.491 193.59,164.63 197.197,166.19 190.16,181.917 191.848,189.034 178.193,205.86 179.746,211.827 174.459,207.237 
		170.301,206.493 172.352,216.019 171.27,218.663 166.816,218.677 165.064,223.978 168.02,224.454 169.828,228.649 159.797,233.827 
		163.955,227.835 161.549,226.257 158.035,233.831 150.166,234.271 148.576,236.173 158.039,236.925 150.076,244.563 
		145.041,254.47 141.503,255.157 144.449,257.429 137.552,263.925 136.228,269.624 130.003,274.388 123.112,276.376 
		124.036,265.478 128.38,256.304 127.377,248.323 117.38,247.226 115.834,244.415 106.659,247.419 104.921,242.177 98.486,235.675 
		93.198,234.45 90.834,229.911 87.758,230.05 73.754,214.929 72.952,211.497 74.437,213.056 75.657,205.897 71.613,199.894 
		84.827,179.007 92.997,174.606 107.264,171.185 111.163,167.704 109.717,162.579 112.884,162.481 125.117,149.61 139.248,143.036 
		142.766,139.339 124.196,117.598 121.95,111.434 116.751,111.352 112.342,95.458 104.453,94.082 104.025,73.22 106.413,69.698 
		111.068,69.144 115.136,60.659 108.307,48.446 117.79,41.33 125.274,32.396 133.142,16.301 138.549,10.219 145.334,7.084 
		211.848,47.329 210.984,53.908 	"/>
</g>
</svg>
