<?xml version="1.0" encoding="utf-8"?>
<!-- Generator: Adobe Illustrator 15.1.0, SVG Export Plug-In . SVG Version: 6.00 Build 0)  -->
<!DOCTYPE svg PUBLIC "-//W3C//DTD SVG 1.1//EN" "http://www.w3.org/Graphics/SVG/1.1/DTD/svg11.dtd">
<svg version="1.1" id="Layer_1" xmlns="http://www.w3.org/2000/svg" xmlns:xlink="http://www.w3.org/1999/xlink" x="0px" y="0px"
	 width="283.46px" height="283.46px" viewBox="0 0 283.46 283.46" enable-background="new 0 0 283.46 283.46" xml:space="preserve">
<g>
	<polygon points="266.446,107.601 257.571,112.153 261.849,119.795 260.648,127.307 262.379,132.008 254.995,150.458 
		253.873,161.804 251.37,162.181 251.761,166.409 247.599,173.813 249.723,177.599 247.553,184.522 227.365,202.175 
		219.144,205.853 216.069,201.739 213.584,201.747 208.32,206.493 206.816,211.69 200.891,212.073 196.786,219.128 196.781,224.569 
		193.055,226.521 195.508,229.864 196.338,237.208 192.787,235.946 188.284,242.007 186.127,233.272 182.269,230.958 
		179.026,232.364 170.262,248.733 172.147,261.825 166.271,263.612 163.075,274.497 147.855,276.376 141.412,267.591 
		133.839,263.728 129.673,251.294 121.836,253.94 114.683,261.181 105.61,262.421 101.898,257.999 92.181,254.31 87.329,256.093 
		85.249,259.591 81.506,259.353 72.708,249.917 66.467,247.78 59.893,248.532 52.098,244.95 47.146,230.3 37.983,222.995 
		27.887,225.325 22.582,220.007 17.014,223.532 23.773,27.991 98.76,26.537 119.522,35.65 125.477,41.382 131.397,41.979 
		133.604,37.829 141.908,43.454 121.368,47.518 129.044,49.786 136.851,46.523 146.951,50.18 142.678,45.089 150.493,51.414 
		155.485,52.752 179.067,43.856 195.898,44.756 217.964,27.079 264.162,7.084 	"/>
</g>
</svg>
