<?xml version="1.0" encoding="utf-8"?>
<!-- Generator: Adobe Illustrator 15.1.0, SVG Export Plug-In . SVG Version: 6.00 Build 0)  -->
<!DOCTYPE svg PUBLIC "-//W3C//DTD SVG 1.1//EN" "http://www.w3.org/Graphics/SVG/1.1/DTD/svg11.dtd">
<svg version="1.1" id="Layer_1" xmlns="http://www.w3.org/2000/svg" xmlns:xlink="http://www.w3.org/1999/xlink" x="0px" y="0px"
	 width="283.46px" height="283.46px" viewBox="0 0 283.46 283.46" enable-background="new 0 0 283.46 283.46" xml:space="preserve">
<g>
	<polygon points="181.539,86.818 181.096,122.896 191.729,115.978 201.895,104.606 204.869,103.518 209.771,105.486 217.846,97.42 
		219.404,92.617 221.631,94.433 220.945,96.672 224.627,98.921 236.26,99.684 238.178,97.691 236.99,95.982 239.611,95.407 
		238.092,93.315 246.412,92.428 251.52,87.526 263.297,94.536 269.908,93.706 270.459,95.843 268.154,97.088 269.324,100.461 
		270.451,98.537 271.482,101.727 274.193,101.328 272.328,105.129 275.545,106.825 276.375,113.257 271.121,126.454 
		244.301,105.388 239.715,118.195 239.213,126.044 230.561,137.87 225.521,142.402 221.738,142.123 214.99,152.112 207.787,148.369 
		192.197,177.543 179.924,173.841 177.742,167.94 172.145,166.256 164.051,188.251 157.275,194.867 152.594,207.28 141.015,220.289 
		136.603,229.346 139.902,233.829 135.332,237.844 135.966,241.669 127.072,247.171 122.895,244.41 110.748,250.314 
		105.077,247.221 102.933,254.123 83.698,259.507 76.721,252.989 64.805,261.778 59.4,261.236 49.539,255.389 41.688,242.828 
		43.207,238.431 34.381,235.945 24.836,227.271 14.838,209.166 15.595,206.076 7.085,193.736 10.594,187.212 10.035,175.155 
		24.293,173.923 27.609,163.885 33.137,162.401 31.788,150.152 40.462,135.178 43.528,133.966 47.049,136.247 48.788,144.448 
		53.168,138.942 56.435,140.232 53.714,130.17 57.248,128.472 57.421,123.401 61.463,116.963 66.999,116.79 68.56,111.999 
		73.614,107.741 75.927,107.812 78.664,111.74 86.439,108.571 105.806,92.765 108.045,86.379 106.187,82.788 110.3,76.021 
		110.069,72.066 112.412,71.797 113.817,61.256 121.283,44.298 119.816,39.864 121.357,33.924 118.013,24.245 125.849,21.682 
		125.158,86.526 	"/>
</g>
</svg>
