<?xml version="1.0" encoding="utf-8"?>
<!-- Generator: Adobe Illustrator 15.1.0, SVG Export Plug-In . SVG Version: 6.00 Build 0)  -->
<!DOCTYPE svg PUBLIC "-//W3C//DTD SVG 1.1//EN" "http://www.w3.org/Graphics/SVG/1.1/DTD/svg11.dtd">
<svg version="1.1" id="Layer_1" xmlns="http://www.w3.org/2000/svg" xmlns:xlink="http://www.w3.org/1999/xlink" x="0px" y="0px"
	 width="283.46px" height="283.46px" viewBox="0 0 283.46 283.46" enable-background="new 0 0 283.46 283.46" xml:space="preserve">
<g>
	<polygon points="39.801,210.543 39.752,210.099 40.084,210.042 40.064,210.461 	"/>
	<polygon points="40.684,210.136 40.631,209.996 40.943,209.503 41.14,209.955 	"/>
	<polygon points="30.966,203.221 32.602,206.064 33.427,206.664 32.285,206.327 	"/>
	<polygon points="29.076,200.677 29.503,201.006 29.635,201.49 29.379,201.38 	"/>
	<polygon points="43.013,207.202 42.656,206.742 43.022,206.442 43.265,206.726 	"/>
	<polygon points="54.791,210.826 55.106,211.41 54.556,211.706 54.499,210.601 55.209,210.798 	"/>
	<polygon points="55.945,211.139 56.245,211.176 56.471,211.64 55.617,211.645 	"/>
	<polygon points="56.553,210.962 56.804,210.995 56.747,211.381 56.106,210.871 	"/>
	<polygon points="47.674,208.114 48.758,208.472 46.584,209.931 45.984,207.264 	"/>
	<polygon points="50.752,210.305 47.995,209.968 47.916,209.528 51.125,208.661 	"/>
	<polygon points="58.271,210.843 58.456,211.027 57.967,211.04 58.193,210.814 	"/>
	<polygon points="54.137,209.528 54.182,211.438 51.154,211.648 53.052,209.281 	"/>
	<polygon points="57.519,210.411 57.835,210.576 57.445,210.604 57.104,210.444 	"/>
	<polygon points="30.72,200.825 30.514,200.308 30.953,200.057 31.205,200.533 	"/>
	<polygon points="35.971,203.249 35.281,202.612 36.308,201.992 36.768,202.789 	"/>
	<polygon points="57.042,209.914 56.628,210.37 56.163,209.38 56.891,209.216 	"/>
	<polygon points="26.558,198.138 24.832,198.804 24.597,198.108 27.215,197.172 	"/>
	<polygon points="68.947,212.745 69.96,213.579 71.896,214.154 69.135,213.912 66.617,212.261 	"/>
	<polygon points="20.397,192.031 20.119,191.854 20.147,191.6 20.57,191.99 	"/>
	<polygon points="75.127,213.337 74.333,213.497 73.857,213.268 75.097,212.453 	"/>
	<polygon points="66.974,210.021 66.399,212.293 63.177,212.096 60.148,211.118 	"/>
	<polygon points="11.223,185.941 10.475,186.846 9.057,185.699 10.479,185.56 	"/>
	<polygon points="81.154,213.575 80.719,213.452 81.126,213.008 81.298,213.313 	"/>
	<polygon points="84.491,213.193 83.376,213.506 83.2,213.387 84.322,212.396 	"/>
	<polygon points="13.712,185.223 13.736,185.366 13.327,185.05 13.56,184.96 	"/>
	<polygon points="87.002,212.848 86.681,212.766 86.927,212.302 87.417,212.671 	"/>
	<polygon points="88.999,211.944 89.061,212.955 87.782,212.347 88.004,212.014 	"/>
	<polygon points="87.746,211.874 87.4,211.734 87.412,211.414 88,211.591 	"/>
	<polygon points="9.242,180.251 10.244,180.896 10.926,182.671 7.084,179.762 	"/>
	<polygon points="89.414,211.562 89.393,210.929 89.705,210.908 89.771,211.217 	"/>
	<polygon points="98.77,208.488 99.213,210.128 93.962,212.931 92.121,213.263 	"/>
	<polygon points="108.39,208.11 107.797,208.57 107.592,209.101 107.349,208.328 	"/>
	<polygon points="108.446,207.194 108.082,207.055 108.126,206.853 108.59,207.038 	"/>
	<polygon points="102.69,210.078 105.254,208.55 104.07,206.344 107.752,206.968 104.604,210.679 99.086,210.736 	"/>
	<polygon points="112.712,206.939 112.47,207.178 111.602,206.75 112.141,206.729 	"/>
	<polygon points="114.277,206.808 114.027,207.178 112.86,206.853 113.356,206.594 	"/>
	<polygon points="109.893,205.641 110.711,206.413 108.903,206.606 108.919,205.41 	"/>
	<polygon points="111.718,205.168 112.149,205.892 111.159,206.393 110.924,205.205 	"/>
	<polygon points="126.641,206.426 126.481,206.557 126.309,206.142 126.641,206.294 	"/>
	<polygon points="125.684,205.769 125.54,206.438 124.755,205.259 124.916,205.291 	"/>
	<polygon points="140.613,204.855 140.316,204.827 140.321,204.33 140.686,204.634 	"/>
	<polygon points="265.635,188.67 266.227,188.707 266.588,189.734 265.627,189.176 	"/>
	<polygon points="141.878,203.463 142.219,203.673 141.825,204.03 141.615,203.496 	"/>
	<polygon points="127.714,202.744 127.052,202.033 127.928,201.639 128.018,202.214 	"/>
	<polygon points="272.168,185.95 272.082,186.969 271.23,186.71 272.008,185.814 	"/>
	<polygon points="121.033,200.105 122.089,200.397 122.578,202.683 123.56,202.871 123.88,203.796 115.19,204.581 117.149,200.944 	
		"/>
	<polygon points="141.611,202.649 141.644,203.159 141.044,203.336 141.122,202.387 	"/>
	<polygon points="130.585,200.541 130.965,200.924 130.303,201.347 129.76,200.492 	"/>
	<polygon points="264.734,186.78 265.602,187.553 265.375,188.104 264.723,187.968 	"/>
	<polygon points="132.398,200.245 132.472,200.578 132.402,200.73 131.976,200.397 	"/>
	<polygon points="140.872,201.91 140.238,202.485 140.917,200.829 140.986,201.495 	"/>
	<polygon points="263.502,187.093 263.625,187.845 266.555,190.462 263.699,189.007 	"/>
	<polygon points="131.409,200.245 131.051,200.323 130.816,200.146 131.474,199.867 	"/>
	<polygon points="271.268,184.98 270.512,186.328 269.965,184.101 270.959,184.401 	"/>
	<polygon points="139.083,200.911 139.372,201.667 137.412,203.611 137.731,201.614 	"/>
	<polygon points="262.166,186.369 262.615,187.067 261.846,187.475 261.521,186.607 	"/>
	<polygon points="138.636,200.114 138.443,200.143 138.294,199.917 138.501,199.847 	"/>
	<polygon points="137.263,199.67 137.169,200.513 136.318,199.802 136.548,199.592 	"/>
	<polygon points="135.563,199.867 136.533,200.948 134.811,201.347 135.406,199.042 	"/>
	<polygon points="268.416,183.447 269.529,184.056 269.58,185.424 269,185.12 	"/>
	<polygon points="260.635,185.941 261.313,186.106 260.938,187.471 260.383,186.994 	"/>
	<polygon points="124.295,197.727 124.048,197.616 124.32,197.419 124.36,197.574 	"/>
	<polygon points="137.785,198.914 138.143,198.951 138.093,199.51 137.268,199.243 	"/>
	<polygon points="260.955,185.794 260.441,185.802 260.676,185.083 261.18,185.325 	"/>
	<polygon points="261.566,185.297 260.982,184.939 261.008,184.713 261.689,184.688 	"/>
	<polygon points="260.002,185.128 260.277,185.798 259.557,186.082 259.656,185.153 	"/>
	<polygon points="142.396,196.691 142.07,196.515 142.224,196.313 142.318,196.33 	"/>
	<polygon points="259.586,182.938 259.645,182.758 260.867,182.65 260.084,183.784 	"/>
	<polygon points="144.959,196.1 145.107,196.375 144.229,196.474 144.475,195.837 	"/>
	<polygon points="260.877,182.055 261.086,181.984 261.164,182.741 260.613,182.388 	"/>
	<polygon points="256.434,182.979 257.063,182.786 256.619,183.805 256.008,183.197 	"/>
	<polygon points="159.629,197.315 158.783,197.036 159.531,196.247 159.658,196.375 	"/>
	<polygon points="258.336,182.86 257.877,182.766 258.09,182.285 258.295,182.576 	"/>
	<polygon points="269.633,178.394 271.662,180.3 271.803,184.241 269.838,180.933 270.016,183.883 268.273,183.062 	"/>
	<polygon points="154.533,195.171 154.447,195.43 154.221,195.212 154.436,194.961 	"/>
	<polygon points="259.574,179.931 260.338,181.089 258.57,182.317 258.67,180.469 	"/>
	<polygon points="154.131,194.234 153.979,194.017 154.139,193.63 154.176,194.028 	"/>
	<polygon points="263.436,178.369 265.363,178.479 265.66,179.922 262.676,179.293 263.391,177.033 	"/>
	<polygon points="258.25,178.693 266.699,183.316 264.752,182.864 264.492,184.422 268.107,184.923 269.518,189.319 
		265.191,185.913 262.586,186.566 263.037,183.365 260.967,184.064 261.398,181.796 260.025,179.729 258.498,179.84 	"/>
	<polygon points="149.422,192.647 149.143,192.5 149.094,192.385 149.488,192.336 	"/>
	<polygon points="262.113,176.664 262.207,178.282 260.572,178.016 260.863,176.992 	"/>
	<polygon points="264.455,176.659 265.799,177.428 265.479,178.319 263.133,175.924 	"/>
	<polygon points="167.301,191.357 166.977,191.608 166.195,191.559 166.73,191.193 	"/>
	<polygon points="152.984,190.655 153.293,191.091 151.74,191.07 152.09,190.602 	"/>
	<polygon points="164.736,190.774 164.975,190.992 164.963,191.251 163.332,192.446 	"/>
	<polygon points="166.445,190.774 165.953,191.584 165.309,191.48 165.559,190.84 	"/>
	<polygon points="96.37,182.269 97.328,182.531 97.5,182.77 96.711,182.991 	"/>
	<polygon points="260.148,174.206 262.162,175.279 261.32,176.454 260.561,176.363 	"/>
	<polygon points="255.264,175.213 257.113,176.886 256.824,182.211 253.508,175.948 	"/>
	<polygon points="255.691,173.257 259.455,173.352 260.248,175.834 258.066,174.613 259.832,177.28 257.658,177.921 	"/>
	<polygon points="170.465,186.073 171.787,186.258 169.758,187.487 169.535,186.648 	"/>
	<polygon points="95.84,177.021 94.944,177.802 94.566,177.156 96.029,176.849 	"/>
	<polygon points="247.611,174.268 247.879,176.166 247.008,176.59 246.252,173.936 	"/>
	<polygon points="167.572,183.821 167.342,183.616 167.404,183.065 167.564,183.209 	"/>
	<polygon points="247.818,172.427 250.686,173.229 252.889,177.12 253.98,181.582 251.98,177.732 249.412,177.28 	"/>
	<polygon points="173.682,179.516 174.113,179.905 173.928,180.152 173.332,179.844 	"/>
	<polygon points="170.045,180.21 170.264,180.826 168.816,179.827 169.072,179.479 	"/>
	<polygon points="172.203,179.832 171.816,179.721 171.809,179.527 172.342,179.396 	"/>
	<polygon points="171.117,179.856 174.924,182.379 171.344,183.238 172.746,185.009 170.473,184.619 166.199,189.64 
		167.979,186.435 164.613,186.591 166.359,186.6 165.451,188.72 163.232,184.66 165.854,181.973 166.738,182.207 166.336,183.053 
		167.104,183.131 167.305,184.175 167.941,185.038 168.459,185.301 167.148,180.863 168.986,182.367 170.975,180.646 
		169.877,179.22 	"/>
	<polygon points="242.648,169.041 242.533,169.279 242.67,170.023 242.533,170.504 241.68,168.864 	"/>
	<polygon points="170.275,178.468 170.65,178.455 170.953,178.969 171.641,179.281 169.344,178.751 	"/>
	<polygon points="176.131,177.712 175.908,177.571 176.189,176.964 176.34,177.128 	"/>
	<polygon points="244.777,166.613 245.652,168.766 248.525,167.262 248.717,169.279 244.58,168.717 249.207,169.395 
		250.074,171.667 245.406,170.418 247.201,172.46 246.203,173.426 242.793,170.701 242.723,169.197 244.297,170.02 242.131,167.431 
		242.525,167.349 243.105,168.326 243.545,168.421 	"/>
	<polygon points="172.018,176.89 171.545,176.729 171.447,176.479 171.805,176.491 	"/>
	<polygon points="250.201,164.661 250.891,165.097 248.877,164.735 249.277,164.312 	"/>
	<polygon points="247.752,164.518 251.307,165.253 254.326,169.271 250.924,165.935 254.582,171.207 252.227,174.896 
		252.621,171.474 	"/>
	<polygon points="171.98,176.882 172.137,177.132 172.154,176.285 171.615,175.899 172.68,175.25 175.576,176.43 172.014,179.326 
		170.152,177.893 	"/>
	<polygon points="173.32,175.271 172.535,174.745 173.777,173.96 173.822,174.671 	"/>
	<polygon points="140.165,172.735 139.958,172.345 140.083,172.058 140.234,172.596 	"/>
	<polygon points="139.516,172.37 139.445,172.283 139.622,171.885 139.695,172.058 	"/>
	<polygon points="137.74,172.333 136.548,173.027 138.475,171.12 137.822,172.251 	"/>
	<polygon points="174.117,171.306 174.607,171.351 173.748,171.675 173.879,171.215 	"/>
	<polygon points="180.617,168.133 180.277,167.985 180.773,167.356 180.971,167.563 	"/>
	<polygon points="169.303,168.265 168.809,168.335 168.697,168.034 169.33,167.686 	"/>
	<polygon points="198.697,165.836 198.611,165.754 198.768,165.458 198.797,165.528 	"/>
	<polygon points="182.221,166.934 182.18,167.159 181.654,167.353 181.77,166.982 	"/>
	<polygon points="177.471,165.812 177.557,165.845 177.49,165.824 	"/>
	<polygon points="205.512,161.575 205.93,160.52 206.785,159.771 206.094,160.581 	"/>
	<polygon points="191.371,161.443 190.834,162.2 190.414,162.266 190.471,161.863 190.805,161.99 	"/>
	<polygon points="191.479,162.039 191.215,162.081 192.008,161.008 191.91,161.592 	"/>
	<polygon points="191.471,160.63 191.725,160.889 190.861,161.723 191.396,160.412 	"/>
	<polygon points="172.709,161.867 172.416,161.538 172.441,161.287 172.654,161.452 	"/>
	<polygon points="190.943,160.634 190.66,161.464 190.068,161.559 191.027,160.125 	"/>
	<polygon points="193.34,159.628 193.229,159.36 193.779,158.982 193.809,159.213 	"/>
	<polygon points="194.684,158.436 193.645,162.517 191.877,163.383 194.375,158.424 	"/>
	<polygon points="191.088,159.184 190.607,159.299 191.027,158.53 191.188,158.621 	"/>
	<polygon points="202.746,157.741 202.068,157.692 202.746,156.978 202.713,157.491 	"/>
	<polygon points="118.083,155.137 119.743,158.847 116.969,160.248 112.429,155.502 	"/>
	<polygon points="196.891,157.269 197.646,157.672 198.484,157.33 198.809,157.598 196.857,159.126 	"/>
	<polygon points="192.25,157.458 192.596,158.37 192.066,160.239 191.527,159.274 	"/>
	<polygon points="174.771,159.816 174.561,159.751 175.275,158.481 175.473,158.679 	"/>
	<polygon points="92.742,149.19 93.831,150.168 92.257,149.52 91.185,147.247 	"/>
	<polygon points="198.66,156.969 197.729,157.203 199.869,155.584 199.854,155.966 	"/>
	<polygon points="91.262,146.766 91.098,146.466 91.336,146.253 91.353,146.322 	"/>
	<polygon points="193.225,155.77 193.586,156.057 192.994,156.295 192.949,155.847 	"/>
	<polygon points="191.084,155.703 191.471,155.958 191.137,156.246 190.787,155.765 	"/>
	<polygon points="190.395,156.414 189.963,155.991 189.945,155.556 190.381,155.691 	"/>
	<polygon points="194.125,153.92 194.158,154.355 193.426,154.249 193.768,153.97 	"/>
	<polygon points="190.555,154.084 191.109,154.902 190.693,155.223 190.217,154.976 	"/>
	<polygon points="181.744,153.106 181.551,153.114 181.893,152.708 181.926,152.811 	"/>
	<polygon points="121.114,142 120.873,141.979 121.086,141.604 121.028,141.827 	"/>
	<polygon points="127.678,134.59 127.553,134.599 127.525,134.484 127.661,134.447 	"/>
	<polygon points="108.599,130.592 108.644,130.717 108.66,130.876 	"/>
	<polygon points="108.599,130.592 108.48,130.362 108.303,129.891 108.467,130.21 	"/>
	<polygon points="110.518,128.526 110.336,128.444 110.263,128.378 110.222,128.283 	"/>
	<polygon points="107.013,128.192 107.193,128.764 106.038,127.149 106.729,127.753 	"/>
	<polygon points="104.806,126.464 104.986,126.504 105.792,126.973 104.863,126.545 	"/>
	<polygon points="105.114,125.132 105.18,125.16 105.167,125.16 	"/>
	<polygon points="105.114,125.132 104.885,125.021 104.941,125.021 	"/>
	<polygon points="136.318,131.032 136.322,131.669 135.056,131.267 135.41,130.917 	"/>
	<polygon points="104.885,125.021 105.591,125.53 108.064,125.082 112.819,130.153 108.886,131.678 108.693,130.092 
		107.234,129.121 107.501,128.468 105.681,126.517 104.806,126.405 103.393,127.071 102.345,126.332 103.286,123.004 	"/>
	<polygon points="118.255,116.811 118.103,116.725 118.243,116.593 118.362,116.658 	"/>
	<polygon points="116.805,109.854 116.657,109.854 116.689,109.687 116.812,109.682 	"/>
	<polygon points="120.334,110.704 120.396,110.545 120.691,110.458 120.597,110.545 	"/>
	<polygon points="120.951,110.471 120.696,110.786 120.757,110.467 121.362,110.261 	"/>
	<polygon points="122.66,109.728 122.561,109.734 124.102,108.935 123.511,109.308 	"/>
	<polygon points="124.48,108.79 124.233,108.88 126.017,108.042 126.485,107.984 	"/>
	<polygon points="126.703,107.894 126.732,107.751 127.036,107.669 127.011,107.71 	"/>
	<polygon points="127.294,107.68 127.135,107.71 127.874,107.271 127.87,107.303 	"/>
	<polygon points="129.054,106.789 128.643,106.986 128.301,107.094 128.342,106.982 	"/>
	<polygon points="129.054,106.789 129.202,106.735 129.284,106.728 	"/>
	<polygon points="129.284,106.728 129.568,106.649 129.428,106.714 	"/>
	<polygon points="129.568,106.649 129.625,106.628 129.637,106.628 	"/>
	<polygon points="129.637,106.628 131.601,106.078 131.646,106.132 131.211,106.341 	"/>
	<polygon points="140.152,82.496 140.053,83.146 140.173,82.114 140.263,81.74 140.394,81.555 	"/>
	<polygon points="203.137,79.73 202.512,79.349 201.533,79.052 202.68,79.369 	"/>
	<polygon points="140.563,81.177 140.436,81.399 140.863,80.388 141.512,79.645 	"/>
	<polygon points="141.853,79.336 141.627,79.55 142.219,78.671 142.479,78.485 	"/>
	<polygon points="142.555,78.325 142.773,77.869 143.336,77.384 143.775,77.207 	"/>
	<polygon points="144.627,76.629 145.547,76.961 144.758,76.727 144.34,76.933 	"/>
	<polygon points="180.129,75.859 180.836,76.295 181.033,76.213 181.342,76.443 180.783,76.366 179.916,75.941 	"/>
	<polygon points="177.471,165.812 176,165.208 175.551,164.443 177.248,156.533 181.148,153.797 186.658,155.033 182.365,152.831 
		185.404,149.799 182.648,152.066 180.314,151.216 173.25,160.289 172.453,160.914 171.262,160.239 170.547,160.326 
		172.084,163.465 169.984,165.705 169.076,164.521 165.723,169.839 169.939,172.222 165.365,178.595 155.549,184.664 
		155.422,187.458 146.719,191.485 145.646,192.792 148.029,193.235 146.5,195.027 146.365,193.494 145.639,193.358 145.301,195.339 
		141.303,195.599 140.71,198.117 139.893,195.795 132.867,199.193 133.651,197.792 131.523,196.909 129.255,200.94 127.11,201.108 
		126.469,198.877 126.509,201.688 123.794,199.851 124.192,201.54 122.61,202.35 123.066,199.908 130.965,194.555 134.03,193.852 
		135.401,196.485 135.612,195.085 138.007,196.235 137.826,192.093 144.918,187.635 145.963,188.748 147.725,184.323 
		151.773,183.115 151.205,178.012 153.248,177.597 151.506,175.896 154.313,172.949 155.125,169.538 148.885,173.685 
		147.844,170.472 149.221,170.405 149.809,171.589 149.916,171.313 149.369,170.221 147.75,168.963 146.09,175.213 140.206,169.247 
		133.688,172.756 132.045,171.708 134.388,170.788 135.041,168.302 133.631,168.47 133.179,166.798 134.802,165.072 
		132.489,158.156 135.283,155.145 131.543,158.316 131.976,160.602 127.319,161.6 121.123,154.635 123.466,151.524 124.374,152.597 
		125.898,153.155 125.007,154.964 129.267,153.953 127.328,152.814 128.396,151.767 127.031,152.712 123.724,151.389 
		122.696,151.504 124.369,150.234 122.183,148.993 122.841,148.669 123.263,147.456 123.584,147.506 124.098,147.005 
		124.595,147.009 125.315,146.269 123.075,147.497 121.422,149.914 120.219,143.549 122.237,143.569 124.871,138.556 
		126.813,139.624 126.242,136.063 128.564,134.997 128.65,133.219 130.965,133.675 130.401,135.511 136.569,131.665 
		140.551,132.503 142.342,130.055 140.098,125.066 143.02,122.732 141.837,120.775 135.657,124.963 134.716,122.226 
		134.379,124.236 124.045,121.104 123.826,118.442 122.475,116.475 122.328,115.813 122.422,115.423 125.429,115.6 121.291,113.614 
		119.179,111.079 121.295,111.013 126.111,108.17 128.654,108.855 128.031,107.319 133.256,105.88 135.003,106.135 135.311,106.456 
		133.015,109.233 134.56,110.417 143.186,111.136 142.848,109.077 140.616,109.566 139.441,103.798 141.702,108.219 
		146.275,109.073 146.313,107.081 142.228,107.627 142.551,103.917 139.564,103.53 140.103,102.359 140.053,102.166 
		135.645,102.026 134.921,97.717 127.751,90.401 130.368,86.478 138.335,85.878 144.549,76.887 143.775,78.152 150.248,75.239 
		149.525,77.381 150.453,78.515 152.031,75.872 149.865,74.837 156.17,73.506 160.168,69.306 162.58,71.669 160.805,73.271 
		161.338,74.595 163.854,71.471 166.184,74.525 171.434,73.834 172.195,76.053 170.65,76.254 174.643,77.605 179.439,76.152 
		192.699,79.218 197.35,77.368 204.332,79.948 219.219,154.951 226.836,153.073 226.891,155.313 235.855,163.194 238.219,160.482 
		239.184,160.153 239.35,156.217 243.359,154.396 253.932,162.188 265.203,174.301 274.137,175.521 276.375,184.438 274.082,186.76 
		274.609,181.943 272.697,184.594 274.045,182.453 270.027,176.787 266.395,182.626 265.787,177.893 267.385,177.148 
		267.656,176.676 262.051,175.045 259.768,171.807 256.336,172.152 256.422,171.256 257.342,170.969 258.041,170.303 
		258.037,169.999 254.635,168.187 254.943,167.973 257.658,168.938 257.795,168.771 254.508,166.396 256.426,166.28 
		254.463,166.284 254.256,167.55 253.369,164.682 252.014,165.824 252.088,161.896 251.285,164.907 249.523,164.155 
		248.393,164.259 243.467,156.353 247.338,165.812 245.154,164.328 243.631,165.635 243.027,161.329 241.17,160.708 241.58,163.046 
		237.471,161.395 237.645,163.453 239.822,162.688 242.793,165.072 240.84,167.771 225.131,160.33 225.887,156.39 227.379,159.582 
		228.525,157.314 225.596,155.966 222.979,159.483 218.109,158.933 218.75,158.193 218.016,156.771 217.102,158.461 
		206.596,159.632 203.48,157.791 204.291,154.261 201.623,157.573 199.293,156.965 199.902,156.299 200.33,155.107 197.859,155.683 
		198.582,154.318 196.232,155.42 198.324,154.011 195.699,153.624 197.223,151.718 193.232,154.154 192.242,152.059 191.27,154.787 
		191.479,151.105 187.982,155.44 190.119,156.62 188.984,157.101 188.258,158.193 191.289,157.901 189.588,159.574 189.625,162.2 
		186.193,163.17 185.549,161.156 185.295,164.529 184.35,162.553 184.377,165.047 183.17,163.987 183.334,165.393 180.701,166.161 
		179.578,169.095 176.309,169.526 175.602,167.521 177.725,167.184 179.221,164.361 	"/>
</g>
</svg>
