<?xml version="1.0" encoding="utf-8"?>
<!-- Generator: Adobe Illustrator 15.1.0, SVG Export Plug-In . SVG Version: 6.00 Build 0)  -->
<!DOCTYPE svg PUBLIC "-//W3C//DTD SVG 1.1//EN" "http://www.w3.org/Graphics/SVG/1.1/DTD/svg11.dtd">
<svg version="1.1" id="Layer_1" xmlns="http://www.w3.org/2000/svg" xmlns:xlink="http://www.w3.org/1999/xlink" x="0px" y="0px"
	 width="283.46px" height="283.46px" viewBox="0 0 283.46 283.46" enable-background="new 0 0 283.46 283.46" xml:space="preserve">
<g>
	<polygon points="254.547,51.569 256.959,276.376 175.537,276.161 26.501,217.489 31.021,207.134 38.398,206.802 41.602,201.438 
		40.295,193.64 32.714,190.024 33.889,184.628 32.131,179.073 32.184,174.825 36.219,173.794 40.156,167.769 42.218,160.483 
		41.599,149.226 47.15,141.919 57.743,134.362 48.342,125.585 46.632,117.852 39.532,106.001 39.198,94.48 41.972,90.408 
		38.931,75.923 39.675,58.604 37.189,52.444 38.706,48.027 44.626,45.861 52.159,46.958 56.604,52.797 60.837,51.963 64.239,44.354 
		65.845,7.084 254.066,9.964 	"/>
</g>
</svg>
