<?xml version="1.0" encoding="utf-8"?>
<!-- Generator: Adobe Illustrator 15.1.0, SVG Export Plug-In . SVG Version: 6.00 Build 0)  -->
<!DOCTYPE svg PUBLIC "-//W3C//DTD SVG 1.1//EN" "http://www.w3.org/Graphics/SVG/1.1/DTD/svg11.dtd">
<svg version="1.1" id="Layer_1" xmlns="http://www.w3.org/2000/svg" xmlns:xlink="http://www.w3.org/1999/xlink" x="0px" y="0px"
	 width="283.46px" height="283.46px" viewBox="0 0 283.46 283.46" enable-background="new 0 0 283.46 283.46" xml:space="preserve">
<g>
	<polygon points="273.49,57.76 276.375,64.699 271.684,63.959 270.393,66.093 273.844,68.986 261.428,76.686 263.83,81.394 
		261.625,84.776 263.535,88.401 258.402,90.952 257.934,94.921 252.93,100.608 254.865,115.443 253.746,117.131 249.785,116.778 
		247.432,122.341 242.477,124.803 244.838,130.773 234.307,137.339 233.609,143.429 229.422,143.327 227.285,149.921 
		227.486,164.521 222.424,168.132 218.314,167.628 217.752,174.128 214.945,174.058 212.604,179.421 207.523,182.782 
		211.67,186.606 211.123,190.399 199.963,194.118 203.219,198.06 201.361,201.224 202.742,205.858 192.531,214.938 196.887,218.087 
		196.643,221.173 192.215,222.599 198.357,228.515 198.027,234.942 195.35,239.171 199.281,241.821 200.469,249.382 
		196.639,252.692 196.404,259.716 33.535,258.946 33.954,222.421 25.801,219.573 14.825,221.476 15.171,219.726 12.393,219.468 
		9.529,215.589 14.957,98.821 7.084,23.745 126.128,25.581 248.928,24.702 254.4,33.031 254.348,38.882 242.004,50.815 
		237.709,59.329 	"/>
</g>
</svg>
