<?xml version="1.0" encoding="utf-8"?>
<!-- Generator: Adobe Illustrator 15.1.0, SVG Export Plug-In . SVG Version: 6.00 Build 0)  -->
<!DOCTYPE svg PUBLIC "-//W3C//DTD SVG 1.1//EN" "http://www.w3.org/Graphics/SVG/1.1/DTD/svg11.dtd">
<svg version="1.1" id="Layer_1" xmlns="http://www.w3.org/2000/svg" xmlns:xlink="http://www.w3.org/1999/xlink" x="0px" y="0px"
	 width="283.46px" height="283.46px" viewBox="0 0 283.46 283.46" enable-background="new 0 0 283.46 283.46" xml:space="preserve">
<g>
	<polygon points="258.939,110.271 261.549,110.185 261.709,113.003 258.582,113.324 259.361,118.728 257.068,118.411 
		259.178,120.745 253.828,128.516 254.373,131.429 247.75,138.505 245.037,134.917 245.133,130.081 249.287,124.723 250.77,118.013 
		255.27,116.023 	"/>
	<polygon points="263.314,102.436 266.697,103.413 266.359,107.152 261.783,106.926 	"/>
	<polygon points="106.254,24.769 103.851,25.748 111.859,19.181 112.438,20.768 	"/>
	<polygon points="113.824,15.701 113.807,17.222 109.295,16.133 114.686,13.926 	"/>
	<polygon points="102.417,14.9 105.333,17.821 97.272,34.841 104.394,33.165 105.416,29.22 112.96,35.014 119.47,36.111 
		120.151,38.539 126.73,40.877 131.263,50.792 172.172,61.937 183.816,68.421 196.469,68.822 210.883,72.529 214.885,77.181 
		213.982,81.54 222.631,83.933 226.834,88.054 227.078,99.078 224.037,106.38 232.859,106.006 230.516,117.113 236.258,122.093 
		234.404,128.733 226.018,133.155 218.498,153.485 220.576,155.507 223.635,154.989 230.471,148.181 237.115,136.742 242.9,134.778 
		248.178,139.482 239.828,168.011 242.059,175.333 236.426,181.321 233.166,191.142 234.42,204.431 226.275,230.741 
		226.941,245.147 232.92,258.724 231.971,276.343 108.107,276.376 105.486,267.882 92.144,264.134 89.201,259.636 85.685,237.853 
		89.321,228.649 84.107,225.3 82.504,219.976 82.98,203.624 80.922,193.052 75.958,187.118 65.978,183.968 59.008,178.255 
		53.617,167.925 47.327,161.798 39.643,159.597 35.291,153.046 27.311,151.124 17.733,141.96 20.654,132.164 19.126,123.132 
		21.423,120.363 21.344,111.101 25.631,102.817 22.257,94.87 16.821,93.678 16.763,86.151 24.903,74.095 36.438,67.414 
		39.112,67.816 42.112,64.604 43.229,30.461 46.225,30.502 50.614,24.462 56.486,29.188 63.414,28.448 79.385,24.038 86.608,18.364 
		90.488,19.901 96.722,14.748 100.712,13.409 	"/>
	<polygon points="107.418,16.285 104.976,15.097 105.819,13.458 107.754,15.295 	"/>
	<polygon points="97.744,13.313 96.446,12.43 98.086,10.959 98.653,11.773 	"/>
	<polygon points="118.655,10.971 116.921,11.753 119.675,7.084 119.564,9.904 	"/>
</g>
</svg>
