<?xml version="1.0" encoding="utf-8"?>
<!-- Generator: Adobe Illustrator 15.1.0, SVG Export Plug-In . SVG Version: 6.00 Build 0)  -->
<!DOCTYPE svg PUBLIC "-//W3C//DTD SVG 1.1//EN" "http://www.w3.org/Graphics/SVG/1.1/DTD/svg11.dtd">
<svg version="1.1" id="Layer_1" xmlns="http://www.w3.org/2000/svg" xmlns:xlink="http://www.w3.org/1999/xlink" x="0px" y="0px"
	 width="283.46px" height="283.46px" viewBox="0 0 283.46 283.46" enable-background="new 0 0 283.46 283.46" xml:space="preserve">
<g>
	<polygon points="212.109,168.775 211.979,168.771 211.982,168.644 	"/>
	<path d="M78.861,142.019l1.127-1.578l-1.599-3.654l-0.813-0.151h6.237l-3.982-4.91l-1.901-0.47l-3.559-6.558l5.424-2.004
		l3.768-2.417l0.748,0.362l-0.653-0.412l2.141-1.955l-1.348-4.233l0.271-1.968l2.822-2.474l3.944-0.751l7.525,0.439l4.244,2.034
		l7.03,0.862l3.879-0.886l3.801,0.537l4.179-0.604l3.974,1.775l3.521,0.336l3.521-1.824l4.709-0.461l4.22,1.043l3.188-0.513
		l0.074,0.156l0.781,0.378l0.957,0.287l-0.217,0.198l0.094,0.099l1.713-0.342l0.859,1.324l-0.074-1.011l2.799,0.818l8.082-2.412
		l1.723,1.076l0.279-0.595l3.965,0.394l4.939,1.45l1.762-0.896l2.93,1.237l3.729,0.218l2.342-0.946l-0.428,1.689l2.047,0.884
		l2.518-1.668l-0.299-0.879l1.035,0.365l-1.031,0.979l1.135,1.084l-1.008-0.587l0.111,0.715l1.266,0.937l1.322-0.267l0.32,1.726
		l2.582-1.39l-2.363-1.914l1.75,0.157l0.055-0.177l-1.85-0.526l-1.023,0.608l-0.83-1.36l8.473,1.804l1.545,1.104l1.932-0.188
		l1.016-1.258l0.566,0.928l-0.621,0.391l0.469-0.143l0.205,0.879l1.082,0.533l-0.07-0.981l-0.863-0.157l-0.617-1.737l6.525,1.627
		l2.158-0.842l2.523,1.554l4.322,0.645l1.84,2.255l2.508-1.187l-0.875,1.417l0.299,0.341l0.037,0.099l0.078,0.078l2.223-1.134
		l0.037,1.348l2.449,1.903l2.498-0.727l0.859,1.705l1.359,0.518l3.998,0.459l1.393-1.803l2.5-0.724l0.135,1.561h4.738l4.885,2.741
		l-10.318,6.11l0.084,1.097l1.848,1.66l-0.57,0.586l0.822,1.895l1.236,0.899l-0.686,2.021l-2.734-0.423l-0.316-2.321l-1.494,1.985
		l1.006-0.091l0.119,1.71l-3.217-0.658l-2.84,3.036l-3.102-1.085l-1.439,1.541l1.086,1.533l-0.432,0.511l-1.686,0.25v-1.044
		l-1.895,1.499l-1.861,5.86l-1.359,1.331l0.641,0.424l-0.465,1.293l-0.912,0.449l-0.912-0.667l-1.508,1.578l-0.041,3.728
		l-1.002-0.427l-1.336,1.146l-1.258-0.153l-1.408,1.949l-1.135-0.285l-2.207,1.57l-6.016,0.797l-2.443-1.759l-4.295,3.328
		l-2.01-1.442l-1.82,0.207l-7.162,3.734l0.498-1.438l-0.58,1.081l-3.016-0.699l-0.879,0.938l-0.695-0.287l-0.34,0.023l-0.979-1.495
		l1.4-0.723l-0.057-1.019L176.354,168l0.473,0.181l-0.051,1.311l-0.682-1.355l-0.99,0.508l0.215,0.884l-2.393-1.709l-1.758,0.55
		l-0.186-2.024l-0.695,0.233l-2.457-2.001l-3.947,1.073l0.27,0.718l-0.953,0.03l-0.027,1.002l-0.65-0.461l-0.83,1.727l0.045-0.297
		l-1.721-1.112l-2.396-0.683l0.104-0.871l-0.25,0.92l-3.334-3.279l-6.574,0.815l-5.078,2.16l-0.09-0.305l-0.297-0.15l-0.07,0.39
		l-0.707-0.818l-0.748,0.271l0.207-1.938l-0.308,1.848l-0.597-0.023l-0.39,0.538l-0.826,0.106l-0.449-2.116l-4.897,1.693
		l-4.322-2.462l-2.129,0.046l0.045-0.145l-0.136-0.653l-0.324,0.807L126,162.648l-0.974,2.19l-0.571-0.903l1.22-1.134l-0.591,0.428
		l-0.661-0.334l0.826-0.342l-2.03,0.658l-1.163,1.96l-3.455,1.89l-3.453,0.629l0.103-0.843l-0.666,1.169l-0.845-0.766l-0.642,0.51
		l-4.092,0.256l-0.403,1.893l-3.291-0.409l0.177-0.77l-2.445-1.372l-0.135-0.958l-2.108,0.034l-2.166-1.222l-3.735-0.329
		l-1.311,0.321l0.362,0.046l-0.477,1.409l-1.035-0.719l-0.879,0.879l0.349,0.571l-1.057,0.567l-0.991-0.758l-1.093,0.662
		l-3.336-0.739l-0.291-0.871l-1.66-0.271l-1.343,1.364l0.895,2.127l-1.113-0.168l-2.388-2.744l-0.272-4.008l4.837-1.746
		l-0.185-1.042l-3.505-1.111l1.105-1.215l-0.062-4.533l1.615-1.364l-0.361-3.171l0.986-1.723l-0.839-1.377l0.502-0.35
		L78.861,142.019 M195.842,118.649l-0.064-0.604l1.463,1.384l2.291,0.325l-0.719-0.317l0.871-0.271l-1.211-0.082l1.191-0.879
		l-1.41,0.049l0.234-1.689l-0.279,1.612l-2.092-2.026l-0.744,0.141l0.908,0.858l-0.525,0.765l-3.625-1.274l-0.521,0.188l4.098,1.127
		L195.842,118.649 M195.842,118.649l0.021,0.061l0.037,0.034l-0.045-0.063L195.842,118.649 M236.584,130.779l0.016,0.008
		l0.004-0.028h-0.012L236.584,130.779 M83.027,148.276l0.12,1.314l0.554,0.009l0.423-1.061l-0.517-0.708L83.027,148.276
		 M107.941,123.769l0.086,0.033l0.468-0.086l0.193-0.403l0.247,0.687l0.974-0.341l0.045,1.315l1.155-0.567l-2.17-1.422l-0.16-1.418
		L107.941,123.769 M187.459,119.372l-0.027,0.127l0.234-0.082v-0.016L187.459,119.372 M199.113,117.47l0.551,0.013v-0.021
		l-0.547,0.004L199.113,117.47 M189.889,118.402l0.012,0.004l0.074-0.16v0.004L189.889,118.402 M191.553,118.535l-0.018,0.016
		l0.018-0.004V118.535 M190.064,118.05l-0.074,0.18l0.834,0.181l-0.746-0.41L190.064,118.05z"/>
	<polygon points="10.568,155.807 7.881,153.876 9.233,150.621 11.419,149.944 13.691,150.684 16.207,149.689 17.464,150.889 
		17.929,153.667 15.25,156.351 12.82,156.926 	"/>
	<polygon points="7.084,146.263 7.24,145.99 7.552,146.278 7.483,146.361 	"/>
	<polygon points="145.424,111.693 145.404,111.705 145.395,111.701 145.398,111.693 	"/>
	<polygon points="261.242,129.012 260.885,128.86 260.643,128.503 261.172,128.556 	"/>
	<polygon points="261.242,129.012 261.246,128.992 261.246,129.005 	"/>
	<polygon points="252.047,152.644 249.707,152.426 244.781,153.942 242.053,152.832 241.23,149.973 247.283,149.028 247.57,146.689 
		248.143,148.525 253.969,147.191 255.074,145.986 258.871,145.486 268.219,147.704 269.748,146.97 271.814,148.416 
		269.016,149.138 267.924,148.3 267.73,149.254 266.197,149.273 265.814,149.849 264.414,150.655 264.43,150.807 261.238,150.444 
		260.318,151.419 258.592,150.811 255.055,152.865 254.773,151.53 253.939,151.513 254.732,152.298 253.76,153.387 253.068,152.389 
			"/>
	<polygon points="268.449,149.6 268.523,149.559 268.561,149.566 268.43,149.619 	"/>
	<polygon points="260.811,151.214 260.84,151.155 260.867,151.145 260.84,151.242 	"/>
	<polygon points="264.67,150.63 264.701,150.548 264.771,150.647 264.711,150.621 	"/>
	<polygon points="267.764,149.697 267.797,149.591 267.857,149.61 267.857,149.763 	"/>
	<polygon points="125.774,165.863 125.536,165.977 125.413,165.788 125.766,165.842 	"/>
	<polygon points="142.055,166.281 142.183,166.06 142.284,166.06 142.297,166.314 	"/>
	<polygon points="102.908,167.383 102.874,167.347 102.887,167.272 102.932,167.358 	"/>
	<polygon points="102.792,167.646 102.792,167.637 102.826,167.654 102.805,167.663 	"/>
	<polygon points="102.953,167.731 102.958,167.72 102.978,167.715 102.969,167.741 	"/>
	<polygon points="102.978,167.756 102.986,167.731 102.999,167.728 103.002,167.749 	"/>
	<polygon points="109.708,167.93 109.733,167.93 109.733,167.949 109.716,167.949 	"/>
	<polygon points="103.225,167.892 103.231,167.847 103.261,167.851 103.266,167.876 	"/>
	
		<rect x="109.748" y="167.903" transform="matrix(-0.6278 0.7784 -0.7784 -0.6278 309.3874 187.8905)" width="0.039" height="0.037"/>
	<polygon points="102.999,167.786 103.01,167.753 103.035,167.753 103.022,167.806 	"/>
	<polygon points="103.762,169.631 103.788,169.609 103.84,169.64 103.812,169.65 	"/>
	<polygon points="102.899,167.756 102.917,167.69 102.932,167.695 102.937,167.749 	"/>
	<polygon points="109.786,167.885 109.815,167.847 109.855,167.847 109.827,167.9 	"/>
	<polygon points="103.117,167.872 103.179,167.827 103.208,167.876 103.19,167.885 	"/>
	<polygon points="113.694,168.167 113.867,168.131 113.964,168.226 113.74,168.2 	"/>
	<polygon points="103.774,168.068 104.017,168.118 104.038,168.2 103.885,168.208 	"/>
	<polygon points="113.99,168.136 114.208,167.831 114.315,167.892 114.29,168.144 	"/>
	<polygon points="113.41,168.41 113.55,168.271 113.891,168.282 113.698,168.484 	"/>
	<rect x="102.597" y="167.593" width="0.009" height="0.01"/>
	<polygon points="94.652,165.9 94.665,165.879 94.689,165.883 94.678,165.912 	"/>
	<rect x="93.856" y="166.727" transform="matrix(-0.3271 0.945 -0.945 -0.3271 282.1444 132.5798)" width="0.027" height="0.031"/>
	<polygon points="94.512,165.833 94.538,165.813 94.553,165.842 94.538,165.85 	"/>
	<polygon points="102.817,167.215 102.822,167.189 102.85,167.178 102.846,167.219 	"/>
	<polygon points="96.612,167.166 96.642,167.17 96.646,167.197 96.621,167.193 	"/>
	<polygon points="97.131,166.521 97.151,166.499 97.192,166.495 97.155,166.521 	"/>
	<polygon points="102.221,167.543 102.262,167.527 102.279,167.538 102.255,167.572 	"/>
	<polygon points="97.59,166.244 97.627,166.208 97.648,166.208 97.619,166.265 	"/>
	<polygon points="94.73,165.953 94.747,165.924 94.78,165.928 94.76,165.969 	"/>
	<polygon points="94.109,166.236 94.139,166.221 94.152,166.281 94.126,166.272 	"/>
	<polygon points="92.002,166.479 92.04,166.454 92.064,166.462 92.027,166.507 	"/>
	<polygon points="97.788,166.101 97.808,166.081 97.862,166.126 97.833,166.13 	"/>
	<polygon points="97.5,166.33 97.532,166.31 97.57,166.359 97.541,166.363 	"/>
	<polygon points="92.524,166.389 92.553,166.381 92.594,166.43 92.557,166.43 	"/>
	<polygon points="102.525,167.538 102.578,167.551 102.574,167.601 102.529,167.576 	"/>
	<polygon points="102.768,167.103 102.781,167.062 102.822,167.042 102.805,167.099 	"/>
	<polygon points="102.628,167.622 102.669,167.609 102.747,167.67 102.702,167.67 	"/>
	<polygon points="96.443,167.182 96.506,167.148 96.547,167.178 96.53,167.201 	"/>
	<polygon points="97.48,165.365 97.537,165.329 97.562,165.365 97.512,165.394 	"/>
	<polygon points="96.226,165.863 96.271,165.837 96.296,165.92 96.247,165.908 	"/>
	<polygon points="97.224,166.479 97.377,166.462 97.401,166.495 97.332,166.507 	"/>
	<polygon points="102.382,167.527 102.432,167.502 102.497,167.56 102.459,167.576 	"/>
	<polygon points="96.3,165.374 96.362,165.36 96.403,165.415 96.338,165.419 	"/>
	<polygon points="97.134,165.349 97.176,165.312 97.221,165.346 97.163,165.39 	"/>
	<polygon points="94.065,166.047 94.109,166.006 94.147,166.04 94.098,166.101 	"/>
	<polygon points="92.611,166.408 92.729,166.363 92.753,166.412 92.68,166.449 	"/>
	<polygon points="98.827,165.611 98.852,165.551 99,165.633 98.852,165.628 	"/>
	<polygon points="94.221,165.217 94.279,165.119 94.34,165.119 94.312,165.201 	"/>
	<polygon points="100.121,166.295 100.183,166.299 100.241,166.438 100.151,166.381 	"/>
	<polygon points="94.993,165.267 95.075,165.242 95.104,165.333 95.047,165.349 	"/>
	<polygon points="94.71,165.078 94.764,165.024 94.816,165.123 94.747,165.143 	"/>
	<polygon points="91.949,166.548 92.031,166.558 91.99,166.713 91.94,166.647 	"/>
	<polygon points="94.85,165.065 94.924,164.954 95.006,164.954 94.911,165.078 	"/>
	<polygon points="95.146,165.082 95.178,165.033 95.346,165.037 95.338,165.078 	"/>
	<polygon points="92.491,166.204 92.549,166.122 92.656,166.19 92.598,166.285 	"/>
	<polygon points="94.155,165.3 94.37,165.217 94.431,165.255 94.23,165.353 	"/>
	<polygon points="94.447,165.21 94.508,164.983 94.603,165.012 94.632,165.176 	"/>
	<polygon points="93.551,165.652 93.794,165.41 93.876,165.415 93.749,165.6 	"/>
	<polygon points="96.551,165.438 96.719,165.41 97.002,165.574 96.76,165.718 	"/>
	<polygon points="92.01,166.652 92.434,166.422 92.236,167.374 91.995,167.31 	"/>
	<polygon points="171.094,169.245 171.102,169.224 171.105,169.286 171.098,169.277 	"/>
	<polygon points="173.264,168.188 173.264,168.167 173.305,168.177 173.279,168.208 	"/>
	<polygon points="173.193,168.229 173.234,168.212 173.242,168.245 173.223,168.258 	"/>
	<polygon points="170.484,166.911 170.498,166.89 170.535,166.89 170.518,166.935 	"/>
	<polygon points="175.441,171.077 175.486,171.073 175.465,171.127 175.457,171.127 	"/>
	<polygon points="172.746,169.927 172.75,169.886 172.799,169.864 172.773,169.943 	"/>
	<polygon points="173.283,168.299 173.287,168.271 173.379,168.245 173.336,168.308 	"/>
	<polygon points="173.514,168.517 173.529,168.493 173.604,168.534 173.58,168.558 	"/>
	<polygon points="168.09,169.532 168.135,169.556 168.172,169.681 168.15,169.767 168.068,169.849 	"/>
	<polygon points="167.695,169.89 167.852,169.931 168.031,169.868 167.852,169.943 	"/>
	<polygon points="173.365,168.331 173.465,168.267 173.498,168.295 173.387,168.373 	"/>
	<polygon points="173.805,168.789 173.887,168.734 173.912,168.734 173.867,168.846 	"/>
	<polygon points="171.123,169.252 171.15,169.157 171.168,169.129 171.209,169.248 	"/>
	<polygon points="174.344,169.027 174.393,168.978 174.496,169.068 174.434,169.097 	"/>
	<polygon points="175.918,169.635 176,169.646 176.008,169.741 175.926,169.726 	"/>
	<polygon points="174.643,170.683 174.721,170.601 174.768,170.649 174.734,170.711 	"/>
	<polygon points="170.764,169.097 170.797,169.027 170.871,169.001 170.855,169.15 	"/>
	<polygon points="175.971,168.647 176.033,168.62 176.115,168.706 176.016,168.76 	"/>
	<polygon points="173.617,168.616 173.842,168.62 173.842,168.677 173.752,168.722 	"/>
	<polygon points="175.453,169.331 175.639,169.399 175.662,169.532 175.598,169.541 	"/>
	<polygon points="176.744,171.011 176.867,170.9 176.953,170.961 176.867,171.097 	"/>
	<polygon points="173.686,170.086 173.883,170.148 173.83,170.308 173.73,170.226 	"/>
	<polygon points="173.875,170.3 173.9,170.181 174.213,170.416 174.02,170.428 	"/>
	<polygon points="176.123,170.938 176.275,170.966 176.25,171.299 176.156,171.131 	"/>
	<polygon points="175.877,171.168 176.053,171.225 176.064,170.966 176.086,171.332 	"/>
	<polygon points="170.889,169.011 171.123,169.019 171.064,169.265 170.945,169.24 	"/>
	<polygon points="174.799,170.729 175.006,170.642 174.988,170.78 175.051,170.912 175.029,170.966 	"/>
	<polygon points="169.951,169.064 170.182,168.892 170.398,169.105 170.037,169.138 	"/>
	<polygon points="175.051,170.811 175.4,170.855 175.396,171.101 175.07,171.011 	"/>
	<polygon points="171.221,169.068 171.746,169.154 171.768,169.207 171.318,169.331 	"/>
	<polygon points="175.918,168.915 176.275,168.82 176.309,169.116 175.982,169.12 	"/>
	<polygon points="175.49,170.938 175.967,170.826 176.033,170.879 175.754,171.241 	"/>
	<polygon points="170.357,166.926 170.658,166.812 170.781,167.642 170.51,167.538 	"/>
	<polygon points="175.975,169.184 176.258,169.281 176.533,169.594 176.201,169.963 	"/>
	<polygon points="176.361,171.086 176.809,171.266 176.973,171.024 177.445,171.304 176.619,171.341 	"/>
	<polygon points="141.463,166.599 141.488,166.527 141.578,166.536 141.57,166.594 	"/>
	<polygon points="132.493,167.141 132.62,167.23 132.608,167.31 132.558,167.292 	"/>
	<polygon points="132.316,167.211 132.415,167.144 132.431,167.288 132.349,167.279 	"/>
	<polygon points="136.942,166.766 136.992,166.725 137.181,166.816 137.042,166.894 	"/>
	<polygon points="144.646,166.277 144.816,166.204 145.115,166.265 145.201,166.19 145.186,166.253 145.051,166.314 	"/>
	<polygon points="147.006,174.614 147.08,174.5 147.307,174.393 147.24,174.565 	"/>
	<polygon points="147.43,174.36 148.174,172.934 149.336,172.584 148.818,173.468 	"/>
	<polygon points="178.605,170.395 178.637,170.416 178.643,170.439 178.629,170.436 	"/>
	<polygon points="178.766,170.288 178.785,170.28 178.826,170.325 178.785,170.308 	"/>
	<polygon points="179.279,169.918 179.283,169.894 179.344,169.95 179.328,169.959 	"/>
	<polygon points="178.559,170.447 178.592,170.428 178.605,170.48 178.568,170.473 	"/>
	<polygon points="179.201,169.922 179.242,169.972 179.242,170.008 179.201,169.967 	"/>
	<polygon points="179.172,170.018 179.188,169.967 179.217,170.045 179.201,170.049 	"/>
	<polygon points="178.678,169.972 178.752,170.012 178.752,170.045 178.721,170.025 	"/>
	<polygon points="179.385,169.754 179.443,169.773 179.48,169.86 179.443,169.831 	"/>
	<polygon points="178.568,170.259 178.67,170.325 178.707,170.406 178.629,170.357 	"/>
	<polygon points="178.584,170.209 178.674,170.235 178.766,170.366 178.729,170.354 	"/>
	<polygon points="178.629,170.123 178.748,170.131 178.875,170.308 178.789,170.275 	"/>
	<polygon points="178.773,170.066 178.852,169.946 179.045,170.161 178.979,170.173 	"/>
	<polygon points="179.426,169.511 179.686,169.631 179.752,169.823 179.686,169.819 	"/>
	<polygon points="179.143,169.466 179.369,169.5 179.637,169.808 179.414,169.718 	"/>
	<polygon points="178.207,170.465 178.432,170.177 178.576,170.575 178.338,170.525 	"/>
	<polygon points="178.975,169.549 179.262,169.631 179.463,169.955 179.283,169.872 	"/>
	<polygon points="178.834,169.898 179.053,169.759 179.176,170.127 179.041,170.075 	"/>
	<polygon points="154.703,170.144 154.723,170.12 154.76,170.12 154.752,170.173 	"/>
	<polygon points="154.719,170.229 154.85,170.107 154.965,170.209 154.838,170.293 	"/>
	<polygon points="154.436,169.334 154.85,169.623 154.867,170.058 154.697,170.111 154.641,170.271 	"/>
	<polygon points="166.064,165.859 166.109,165.883 166.098,165.92 166.064,165.891 	"/>
	<polygon points="161.52,168.711 161.584,168.644 161.609,168.665 161.584,168.748 	"/>
	<polygon points="163.623,169.635 163.701,169.617 163.727,169.709 163.656,169.704 	"/>
	<polygon points="163.482,169.786 163.525,169.688 163.574,169.718 163.574,169.804 	"/>
	<polygon points="161.174,168.571 161.289,168.488 161.33,168.504 161.281,168.606 	"/>
	<polygon points="161.342,168.459 161.479,168.406 161.557,168.459 161.449,168.508 	"/>
	<polygon points="159.982,167.543 160.045,167.551 160.172,167.704 160.076,167.715 	"/>
	<polygon points="163.236,169.688 163.463,169.663 163.488,169.754 163.285,169.79 	"/>
	<polygon points="164.609,169.996 164.922,169.922 164.996,169.59 164.938,169.946 	"/>
	<polygon points="161.396,168.571 161.42,168.529 161.58,168.472 161.568,168.652 	"/>
	<polygon points="161.824,170.47 161.996,170.361 162.021,170.566 161.926,170.589 	"/>
	<polygon points="161.471,170.589 161.598,170.457 161.691,170.489 161.621,170.688 	"/>
	<polygon points="160.188,167.72 160.59,167.84 160.906,168.072 160.939,168.313 	"/>
	<polygon points="163.635,166.701 163.758,166.412 163.992,166.445 163.895,166.84 	"/>
	<polygon points="88.981,167.854 89.007,167.831 89.072,167.835 89.04,167.868 	"/>
	<polygon points="79.947,167.342 79.958,167.301 80.057,167.256 79.999,167.333 	"/>
	<polygon points="87.975,167.523 88.317,167.478 88.427,167.617 88.259,167.687 	"/>
	<polygon points="125.272,165.805 125.372,165.829 125.36,165.883 125.322,165.874 	"/>
	<polygon points="126.65,164.281 126.727,164.161 126.822,164.165 126.793,164.309 	"/>
	<polygon points="129.469,164.182 129.62,164.219 129.777,164.342 129.691,164.35 	"/>
	<polygon points="127.319,165.57 127.451,165.541 127.497,165.694 127.332,165.731 	"/>
	<polygon points="128.865,164.466 128.943,164.391 129.107,164.594 128.885,164.594 	"/>
	<polygon points="127.335,165.323 127.43,165.251 127.579,165.329 127.411,165.521 	"/>
	<polygon points="125.701,164.897 126.161,164.992 126.279,165.16 125.766,165.049 	"/>
	<polygon points="126.744,164.141 127.036,163.936 127.156,164.042 126.975,164.255 126.822,164.281 126.839,164.165 	"/>
	<polygon points="219.752,155.262 219.766,155.228 219.773,155.228 219.781,155.277 	"/>
	<polygon points="219.789,155.22 219.826,155.187 219.863,155.22 219.814,155.262 	"/>
	<polygon points="82.494,150.257 82.539,150.22 82.597,150.284 82.531,150.289 	"/>
	<polygon points="81.249,153.848 81.318,153.831 81.339,153.917 81.269,153.897 	"/>
	<polygon points="81.208,153.979 81.393,153.999 81.393,154.111 81.323,154.127 	"/>
	<polygon points="222.148,150.375 222.156,150.348 222.223,150.339 222.189,150.416 	"/>
	<polygon points="239.033,135.842 240.475,135.694 240.766,136.75 239.205,136.676 	"/>
	<polygon points="240.984,136.635 241.301,136.392 241.432,136.483 241.238,136.804 	"/>
	<polygon points="267.701,146.974 267.768,146.939 267.805,147.052 267.742,147.038 	"/>
	<polygon points="249.959,145.506 250.152,145.531 250.313,145.629 250.156,145.551 	"/>
	<polygon points="249.029,145.486 249.207,145.486 249.334,145.547 249.412,145.629 	"/>
	<polygon points="235.338,138.895 235.359,138.871 235.383,138.903 235.342,138.928 	"/>
	<polygon points="264.549,126.317 268.873,128.212 272.936,126.871 273.939,127.632 273.561,129.637 275.668,129.403 
		275.756,128.766 276.375,129.995 273.459,130.693 272.381,132.349 271.137,131.736 269.979,133.611 268.055,131.038 
		265.773,131.749 264.85,131.067 265.684,128.544 	"/>
	<polygon points="273.561,131.462 273.561,131.609 273.377,131.469 273.467,131.428 	"/>
	<polygon points="262.445,125.203 262.49,125.203 262.5,125.224 262.463,125.232 	"/>
	<polygon points="273.277,131.285 273.318,131.296 273.303,131.331 273.289,131.326 	"/>
	<polygon points="262.516,125.162 262.561,125.167 262.545,125.203 262.523,125.196 	"/>
	<polygon points="263.9,125.158 263.949,125.175 263.953,125.211 263.918,125.211 	"/>
	<polygon points="263.789,130.102 263.803,130.064 263.885,130.068 263.83,130.106 	"/>
	<polygon points="263.346,129.785 263.398,129.752 263.424,129.809 263.375,129.813 	"/>
	<polygon points="264.402,125.939 264.418,125.881 264.443,125.881 264.436,125.996 	"/>
	<polygon points="264.266,125.959 264.361,125.918 264.377,125.977 264.307,125.996 	"/>
	<polygon points="264.045,126.099 264.143,126.136 264.176,126.206 264.109,126.214 	"/>
	<polygon points="263.896,130.085 263.922,130.011 264.004,130.011 263.99,130.117 	"/>
	<polygon points="263.279,129.309 263.301,129.193 263.361,129.206 263.367,129.313 	"/>
	<polygon points="261.689,124.846 261.73,124.788 261.895,124.949 261.715,124.974 	"/>
	<polygon points="274.818,126.33 274.83,126.309 274.855,126.33 274.844,126.345 	"/>
	<polygon points="274.691,126.621 274.707,126.58 274.729,126.552 274.756,126.608 	"/>
	<polygon points="273.951,127.348 274,127.27 274.045,127.336 273.992,127.41 	"/>
	<polygon points="274.354,128.625 274.461,128.602 274.518,128.684 274.436,128.697 	"/>
	<polygon points="269.525,127.5 269.566,127.418 269.584,127.36 269.633,127.496 	"/>
	<polygon points="275.172,127.11 275.213,127.052 275.545,127.365 275.164,127.205 	"/>
	<polygon points="259.422,127.496 259.459,127.488 259.467,127.533 259.422,127.513 	"/>
	<polygon points="259.492,127.87 259.516,127.87 259.541,127.928 259.508,127.919 	"/>
	<polygon points="259.422,127.714 259.52,127.591 259.627,127.71 259.492,127.846 	"/>
	<polygon points="120.967,111.146 120.976,111.133 121.013,111.138 121.004,111.154 	"/>
	<polygon points="121.144,111.092 121.168,111.068 121.209,111.126 121.168,111.129 	"/>
	<polygon points="161.445,111.34 161.453,111.335 161.461,111.344 161.449,111.344 	"/>
	<polygon points="160.586,111.212 160.594,111.204 160.604,111.208 160.59,111.216 	"/>
	<rect x="158.971" y="111.133" width="0.014" height="0.009"/>
	<polygon points="159.041,111.056 159.049,111.051 159.063,111.051 159.055,111.064 	"/>
	<polygon points="159.691,111.092 159.695,111.084 159.711,111.084 159.707,111.092 	"/>
	<polygon points="159.498,111.073 159.518,111.064 159.525,111.073 159.506,111.081 	"/>
	<polygon points="159.83,111.159 159.852,111.146 159.867,111.154 159.855,111.167 	"/>
	<polygon points="159.617,111.142 159.641,111.129 159.662,111.133 159.641,111.15 	"/>
	<polygon points="159.174,111.146 159.186,111.129 159.219,111.129 159.205,111.146 	"/>
	<polygon points="158.783,111.138 158.82,111.126 158.836,111.133 158.824,111.146 	"/>
	<polygon points="159.949,111.167 159.971,111.15 160.008,111.146 159.986,111.167 	"/>
	<polygon points="160.846,111.15 160.928,111.146 160.957,111.163 160.891,111.183 	"/>
	<polygon points="162.32,111.417 162.436,111.417 162.469,111.458 162.354,111.463 	"/>
	<polygon points="149.664,112.806 149.672,112.814 149.668,112.827 149.664,112.823 	"/>
	<rect x="148.066" y="112.204" width="0.013" height="0.008"/>
	<rect x="148.115" y="112.186" width="0.008" height="0.017"/>
	<polygon points="147.635,112.025 147.631,112.018 147.646,112.018 147.643,112.025 	"/>
	<polygon points="150.076,112.946 150.076,112.938 150.088,112.942 150.08,112.954 	"/>
	<polygon points="148.74,112.399 148.744,112.388 148.756,112.399 148.748,112.403 	"/>
	<polygon points="149.928,112.918 149.932,112.905 149.947,112.901 149.936,112.922 	"/>
	<polygon points="148.395,112.285 148.402,112.271 148.42,112.285 148.412,112.289 	"/>
	<polygon points="149.02,112.535 149.031,112.523 149.045,112.53 149.035,112.543 	"/>
	<polygon points="149.068,112.53 149.082,112.523 149.098,112.539 149.076,112.547 	"/>
	<polygon points="148.826,112.428 148.834,112.412 148.852,112.441 148.83,112.441 	"/>
	<polygon points="149.365,112.741 149.369,112.728 149.389,112.728 149.385,112.756 	"/>
	<polygon points="148.346,112.306 148.375,112.292 148.395,112.306 148.361,112.317 	"/>
	<polygon points="148.855,112.444 148.912,112.461 148.916,112.478 148.896,112.478 	"/>
	<polygon points="148.949,112.498 148.99,112.489 149.02,112.523 148.982,112.535 	"/>
	<polygon points="152.418,113.316 152.459,113.308 152.5,113.336 152.459,113.345 	"/>
	<polygon points="149.283,112.827 149.303,112.782 149.336,112.77 149.336,112.823 	"/>
	<polygon points="148.148,112.219 148.201,112.219 148.246,112.265 148.178,112.265 	"/>
	<polygon points="147.508,111.984 147.578,111.963 147.623,112.001 147.578,112.021 	"/>
	<rect x="145.322" y="111.644" width="0.004" height="0.004"/>
	<rect x="144.743" y="111.505" width="0.006" height="0.01"/>
	<polygon points="145.602,111.804 145.605,111.795 145.609,111.795 145.609,111.8 	"/>
	<polygon points="145.695,111.78 145.695,111.771 145.703,111.78 	"/>
	<rect x="145.386" y="111.633" width="0.006" height="0.013"/>
	<polygon points="145.605,111.754 145.617,111.75 145.625,111.763 145.609,111.754 	"/>
	<rect x="145.509" y="111.724" width="0.014" height="0.008"/>
	<polygon points="146.049,111.922 146.057,111.915 146.074,111.922 146.064,111.926 	"/>
	<rect x="142.624" y="111.991" width="0.012" height="0.014"/>
	<polygon points="145.736,111.767 145.736,111.742 145.752,111.746 145.748,111.775 	"/>
	<polygon points="145.811,111.795 145.822,111.775 145.844,111.8 145.83,111.808 	"/>
	<polygon points="145.555,111.726 145.555,111.722 145.588,111.705 145.584,111.742 	"/>
	
		<rect x="145.775" y="111.778" transform="matrix(-0.8517 0.5241 -0.5241 -0.8517 328.5416 130.5865)" width="0.03" height="0.021"/>
	<polygon points="142.979,111.364 143.02,111.372 143.02,111.409 142.992,111.4 	"/>
	<polygon points="144.672,111.537 144.705,111.513 144.746,111.553 144.709,111.562 	"/>
	<rect x="138.341" y="111.088" width="0.005" height="0.01"/>
	<rect x="140.11" y="111.185" width="0.007" height="0.008"/>
	<polygon points="139.865,111.146 139.865,111.138 139.885,111.138 139.876,111.146 	"/>
	<polygon points="140.16,111.216 140.185,111.212 140.193,111.229 140.18,111.229 	"/>
	<polygon points="139.979,111.163 140.012,111.146 140.021,111.154 140.012,111.171 	"/>
	<polygon points="237.85,120.683 237.873,120.663 237.895,120.667 237.883,120.687 	"/>
	<polygon points="240.955,122.441 240.98,122.409 240.996,122.4 240.996,122.43 	"/>
	<polygon points="241.244,122.517 241.256,122.487 241.293,122.462 241.256,122.521 	"/>
	<polygon points="239.152,121.258 239.184,121.202 239.201,121.193 239.193,121.234 	"/>
	<polygon points="240.754,122.344 240.754,122.331 240.813,122.303 240.799,122.351 	"/>
	<polygon points="240.902,122.396 240.918,122.36 240.936,122.351 240.936,122.396 	"/>
	<polygon points="242.357,123.234 242.455,123.181 242.488,123.174 242.385,123.239 	"/>
	<polygon points="242.545,123.161 242.604,123.133 242.648,123.136 242.563,123.169 	"/>
	<polygon points="237.873,120.832 237.891,120.803 237.947,120.818 237.939,120.839 	"/>
	<polygon points="242.801,123.469 242.83,123.424 242.887,123.407 242.824,123.469 	"/>
	<polygon points="243.754,123.638 243.803,123.58 243.828,123.58 243.82,123.625 	"/>
	<polygon points="239.164,121.103 239.213,121.044 239.242,121.057 239.238,121.111 	"/>
	<polygon points="242.031,122.808 242.068,122.743 242.127,122.75 242.127,122.829 	"/>
	<polygon points="241.756,122.784 241.912,122.648 241.986,122.676 241.982,122.726 	"/>
	<polygon points="240.836,122.729 241.037,122.623 241.174,122.685 241.041,122.84 	"/>
	<polygon points="245.709,124.838 245.771,124.677 246.182,124.625 246.025,124.793 	"/>
	<polygon points="241.834,123.31 241.979,123.017 242.348,123.095 241.979,123.33 	"/>
	<polygon points="239.662,121.797 240.568,122.101 240.66,122.541 239.957,122.558 	"/>
	<polygon points="197.963,115.798 198,115.811 198.004,115.867 197.982,115.867 	"/>
	<polygon points="195.209,114.195 195.205,114.142 195.268,114.108 195.271,114.138 	"/>
	<polygon points="190.604,113.621 190.637,113.599 190.719,113.657 190.627,113.673 	"/>
	<polygon points="200.699,115.165 200.93,115.189 200.963,115.321 200.777,115.386 	"/>
	<polygon points="180.943,112.979 181.029,112.873 181.168,112.918 181.053,113.012 	"/>
	<rect x="115.002" y="111.263" width="0.009" height="0.013"/>
	<polygon points="115.535,111.265 115.542,111.253 115.56,111.265 115.546,111.278 	"/>
	<polygon points="115.21,111.269 115.223,111.253 115.251,111.261 115.21,111.278 	"/>
	<polygon points="113.895,111.232 114.002,111.212 114.035,111.278 113.961,111.269 	"/>
	<polygon points="115.337,111.253 115.445,111.229 115.49,111.261 115.424,111.31 	"/>
	<rect x="131.068" y="112.212" width="0.01" height="0.01"/>
	<polygon points="131.207,112.243 131.215,112.227 131.228,112.235 131.211,112.243 	"/>
	<polygon points="130.435,112.371 130.435,112.366 130.45,112.362 130.443,112.379 	"/>
	<polygon points="130.348,112.396 130.356,112.379 130.36,112.379 130.364,112.403 	"/>
	<polygon points="130.319,112.416 130.332,112.407 130.344,112.424 130.332,112.428 	"/>
	<polygon points="130.277,112.53 130.294,112.523 130.307,112.539 130.277,112.543 	"/>
	<polygon points="130.993,112.301 131.001,112.285 131.03,112.276 131.026,112.292 	"/>
	<polygon points="52.756,122.146 53.792,121.719 54.552,122.648 54.002,123.046 	"/>
	<polygon points="109.228,123.7 109.252,123.655 109.273,123.646 109.252,123.696 	"/>
	<polygon points="196.109,117.733 196.162,117.671 196.281,117.704 196.158,117.803 	"/>
	<polygon points="193.27,117.257 193.355,117.227 193.471,117.334 193.443,117.331 	"/>
	<polygon points="192.074,116.837 192.145,116.735 192.324,116.895 192.297,116.912 	"/>
</g>
</svg>
