<?xml version="1.0" encoding="utf-8"?>
<!-- Generator: Adobe Illustrator 15.1.0, SVG Export Plug-In . SVG Version: 6.00 Build 0)  -->
<!DOCTYPE svg PUBLIC "-//W3C//DTD SVG 1.1//EN" "http://www.w3.org/Graphics/SVG/1.1/DTD/svg11.dtd">
<svg version="1.1" id="Layer_1" xmlns="http://www.w3.org/2000/svg" xmlns:xlink="http://www.w3.org/1999/xlink" x="0px" y="0px"
	 width="283.46px" height="283.46px" viewBox="0 0 283.46 283.46" enable-background="new 0 0 283.46 283.46" xml:space="preserve">
<g>
	<polygon points="59.517,45.964 62.174,45.841 69.033,51.171 73.396,70.86 88.238,75.044 103.557,68.166 120.412,68.963 
		124.164,72.998 132.435,72.147 141.491,68.058 154.148,67.763 175.234,58.797 190.764,57.593 193.652,55.198 262.023,52.941 
		266.219,60.313 273.381,63.469 276.375,71.675 265.602,97.956 265.549,103.684 259.701,111.693 254.211,127.599 255.629,132.632 
		262.475,133.101 265.367,137.21 262.963,140.867 264.246,144.644 261.422,153.481 265.564,237.952 144.582,240.54 17.119,237.587 
		12.575,232.194 10.087,221.729 11.999,207.417 7.084,198.468 12.212,189.124 14.883,175.485 16.593,174.417 17.345,177.495 
		19.831,171.583 22.818,174.245 21.441,169.101 16.847,173.337 20.957,161.741 23.372,158.171 25.661,159.054 23.706,157.356 
		21.717,159.222 25.514,131.165 27.144,125.947 28.912,126.58 26.668,124.238 27.946,117.19 29.754,117.113 28.099,116.168 
		28.176,107.354 31.936,92.302 31.315,83.447 34.171,80.185 32.528,78.528 33.46,73.701 34.089,76.98 36.165,76.573 33.202,72.809 
		36.251,67.31 33.982,68.614 32.511,64.286 32.865,56.06 35.26,51.577 33.264,42.919 38.802,46.141 39.353,48.721 40.088,46.856 
		37.738,44.806 40.548,43.959 42.508,45.578 49.271,43.075 52.309,46.979 55.708,47.731 	"/>
</g>
</svg>
