<?xml version="1.0" encoding="utf-8"?>
<!-- Generator: Adobe Illustrator 15.1.0, SVG Export Plug-In . SVG Version: 6.00 Build 0)  -->
<!DOCTYPE svg PUBLIC "-//W3C//DTD SVG 1.1//EN" "http://www.w3.org/Graphics/SVG/1.1/DTD/svg11.dtd">
<svg version="1.1" id="Layer_1" xmlns="http://www.w3.org/2000/svg" xmlns:xlink="http://www.w3.org/1999/xlink" x="0px" y="0px"
	 width="283.46px" height="283.46px" viewBox="0 0 283.46 283.46" enable-background="new 0 0 283.46 283.46" xml:space="preserve">
<g>
	<polygon points="72.854,275.14 62.093,275.36 72.013,273.351 	"/>
	<polygon points="90.877,7.631 193.554,9.735 212.978,124.92 217.731,140.786 224.281,153.046 223.172,158.491 227.688,162.271 
		221.36,167.864 216.101,187.374 221.085,203.567 218.401,223.405 222.444,228.765 223.041,233.638 97.787,233.132 96.132,240.667 
		106.651,251.792 104.794,258.817 107.123,264.192 100.098,271.177 96.341,269.058 96.6,272.132 98.602,271.745 94.164,275.106 
		75.805,276.376 88.835,273.476 86.175,266.392 81.795,265.812 80.439,261.874 81.918,256.245 77.05,247.628 71.224,270.524 
		62.655,266.12 57.84,266.772 55.772,182.237 78.467,13.807 74.169,7.084 	"/>
</g>
</svg>
