<?xml version="1.0" encoding="utf-8"?>
<!-- Generator: Adobe Illustrator 15.1.0, SVG Export Plug-In . SVG Version: 6.00 Build 0)  -->
<!DOCTYPE svg PUBLIC "-//W3C//DTD SVG 1.1//EN" "http://www.w3.org/Graphics/SVG/1.1/DTD/svg11.dtd">
<svg version="1.1" id="Layer_1" xmlns="http://www.w3.org/2000/svg" xmlns:xlink="http://www.w3.org/1999/xlink" x="0px" y="0px"
	 width="283.46px" height="283.46px" viewBox="0 0 283.46 283.46" enable-background="new 0 0 283.46 283.46" xml:space="preserve">
<g>
	<polygon points="151.087,217.571 148.321,216.89 146.896,212.817 152.619,214.825 	"/>
	<polygon points="159.712,206.05 157.838,207.581 159.329,209.312 155.163,209.55 156.844,203.222 	"/>
	<polygon points="178.178,200.79 173.074,200.813 173.859,204.427 171.858,206.073 167.695,201.349 171.226,193.71 174.813,192.716 
		178.766,197.79 	"/>
	<polygon points="144.524,21.613 148.05,23.438 163.747,16.412 167.766,17.136 172.927,12.497 185.883,21.396 193.537,30.087 
		196.57,102.044 194.557,114.857 203.271,120.515 210.947,121.789 211.223,125.783 208.338,128.31 211.227,134.843 209.469,142.342 
		216.22,149.212 218.985,146.003 222.926,147.935 228.925,159.095 227.976,161.704 225.556,160.692 225.42,164.026 221.816,163.446 
		224.314,168.94 226.887,164.399 228.925,167.72 228.164,163.8 231.862,168.804 222.383,179.579 219.474,178.786 218.677,180.429 
		216.335,175.63 213.532,176.329 214.855,180.729 213.019,182.714 211.848,178.802 211.021,182.196 206.571,179.8 204.484,187.013 
		201.99,184.646 198.982,188.603 198.197,182.882 196.397,187.122 196.513,182.546 194.499,183.626 191.318,195.233 
		191.277,189.704 189.77,194.536 187.92,188.952 185.677,190.858 188.105,195.37 184.321,199.544 182.008,190.159 180.331,188.886 
		178.909,191.474 177.989,187.394 177.113,191.034 173.288,187.159 174.87,191.938 171.233,191.06 168.821,194.872 167.814,189.798 
		165.765,189.378 166.36,195.788 165.46,193.179 161.499,194.485 162.958,205.224 154.489,199.581 150.544,200.415 151.305,197.038 
		155.956,194.548 155.113,192.325 150.771,195.005 154.062,186.649 151.452,185.212 151.186,190.62 143.218,193.788 
		145.367,199.319 138.582,211.374 139.582,215.647 133.915,220.218 133.894,222.753 130.664,224.097 132.669,219.251 
		128.561,223.356 128.918,220.903 125.948,221.409 126.235,215.968 119.434,229.864 118.26,225.97 117.877,229.845 118.634,218.327 
		116.259,222.79 115.855,231.497 115.778,228.933 112.429,227.37 114.582,224.692 113.09,222.325 114.372,217.888 108.451,226.521 
		108.965,230.987 110.851,229.302 108.385,234.376 107.555,215.87 102.896,221.097 103.599,222.374 105.455,220.714 
		106.897,235.991 105.177,238.116 103.064,227.421 102.821,231.743 98.178,236.259 100.911,229.979 96.28,235.388 99.822,228.687 
		96.716,229.901 98.281,227.815 89.34,234.192 86.993,239.896 84.523,240.688 87.917,241.716 88.09,246.298 81.816,247.501 
		80.604,251.952 82.695,252.909 73.101,260.165 66.563,275.825 63.283,274.116 62.737,276.376 59.192,271.466 59.483,266.173 
		52.744,256.845 51.598,138.464 56.75,136.134 59.854,143.036 63.667,131.453 68.675,133.742 71.124,132.575 67.414,126.321 
		73.771,117.581 81.262,113.735 81.569,108.319 88.342,101.124 86.106,97.36 86.401,91.386 89.438,87.651 87.951,83.225 
		92.121,74.239 97.085,70.557 100.273,52.991 132.958,7.084 140.563,8.453 141.003,18.511 	"/>
</g>
</svg>
