<?xml version="1.0" encoding="utf-8"?>
<!-- Generator: Adobe Illustrator 15.1.0, SVG Export Plug-In . SVG Version: 6.00 Build 0)  -->
<!DOCTYPE svg PUBLIC "-//W3C//DTD SVG 1.1//EN" "http://www.w3.org/Graphics/SVG/1.1/DTD/svg11.dtd">
<svg version="1.1" id="Layer_1" xmlns="http://www.w3.org/2000/svg" xmlns:xlink="http://www.w3.org/1999/xlink" x="0px" y="0px"
	 width="283.46px" height="283.46px" viewBox="0 0 283.46 283.46" enable-background="new 0 0 283.46 283.46" xml:space="preserve">
<g>
	<polygon points="224.9,181.538 226.197,276.376 141.478,275.989 57.262,272.698 60.871,203.218 65.459,190.229 63.438,186.618 
		57.46,185.138 57.652,178.108 67.736,164.091 68.96,158.108 80.265,136.803 78.259,130.537 70.723,124.492 66.372,106.372 
		72.786,7.084 97.53,8.514 95.604,46.092 103.484,58.04 102.876,63.501 105.153,66.51 102.906,67.837 112.702,75.011 
		126.803,96.387 129.405,95.236 131.793,99.271 138.038,98.417 134.8,116.579 132.918,117.712 135.684,128.125 131.258,131.979 
		132.668,135.003 131.254,140.131 137.661,143.554 146.08,135.442 150.965,139.154 153.102,150.548 160.387,161.577 
		160.367,167.626 163.037,170.272 168.223,171.011 172.049,182.874 176.301,186.265 178.693,182.044 188.514,183.239 
		192.537,179.058 213.764,179.718 212.811,176.126 215.994,171.882 	"/>
</g>
</svg>
