<?xml version="1.0" encoding="utf-8"?>
<!-- Generator: Adobe Illustrator 15.1.0, SVG Export Plug-In . SVG Version: 6.00 Build 0)  -->
<!DOCTYPE svg PUBLIC "-//W3C//DTD SVG 1.1//EN" "http://www.w3.org/Graphics/SVG/1.1/DTD/svg11.dtd">
<svg version="1.1" id="Layer_1" xmlns="http://www.w3.org/2000/svg" xmlns:xlink="http://www.w3.org/1999/xlink" x="0px" y="0px"
	 width="283.46px" height="283.46px" viewBox="0 0 283.46 283.46" enable-background="new 0 0 283.46 283.46" xml:space="preserve">
<g>
	<polygon points="181.98,12.624 192.5,187.255 191.209,204.61 203.047,219.753 202.895,228.608 209.125,236.579 208.369,239.144 
		211.775,238.462 211.873,240.524 204.025,257.983 195.545,257.112 184.318,264.147 179.207,264.534 175.041,271.157 
		167.434,276.376 78.189,273.339 71.953,262.558 71.586,257.89 74.24,247.825 78.14,244.739 80.844,219.206 83.515,214.329 
		84.645,187.71 89.12,181.974 91.203,170.97 98.205,164.343 100.728,153.999 106.772,144.874 105.49,142.013 110.257,131.318 
		111.275,113 115.672,107.066 124.876,106.22 138.342,96.054 144.246,88.912 144.596,83.262 147.855,81.521 141.518,65.622 
		150.365,49.605 149.088,38.745 158.16,17.489 155.049,15.232 165.072,8.235 176.141,13.178 181.652,7.084 	"/>
</g>
</svg>
