<?xml version="1.0" encoding="utf-8"?>
<!-- Generator: Adobe Illustrator 15.1.0, SVG Export Plug-In . SVG Version: 6.00 Build 0)  -->
<!DOCTYPE svg PUBLIC "-//W3C//DTD SVG 1.1//EN" "http://www.w3.org/Graphics/SVG/1.1/DTD/svg11.dtd">
<svg version="1.1" id="Layer_1" xmlns="http://www.w3.org/2000/svg" xmlns:xlink="http://www.w3.org/1999/xlink" x="0px" y="0px"
	 width="283.46px" height="283.46px" viewBox="0 0 283.46 283.46" enable-background="new 0 0 283.46 283.46" xml:space="preserve">
<g>
	<polygon points="198.955,275.851 198.586,275.96 199.145,275.702 	"/>
	<polygon points="213.012,275.144 213.336,275.837 210.268,276.376 210.428,275.743 	"/>
	<polygon points="216.221,274.351 216.385,275.044 213.566,275.837 214.109,274.153 	"/>
	<polygon points="198.947,274.181 199.309,274.53 199.268,275.368 197.969,274.251 	"/>
	<polygon points="225.289,271.86 225.133,272.173 224.775,271.876 225.031,271.696 	"/>
	<polygon points="230.648,271.671 230.232,271.782 230.879,271.21 230.943,271.38 	"/>
	<polygon points="224.225,271.655 223.432,271.489 223.629,270.8 223.904,270.833 	"/>
	<polygon points="219.939,270.509 221.748,272.821 216.895,274.745 218.961,271.979 220.963,273.097 	"/>
	<polygon points="222.727,271.157 221.559,271.608 221.42,270.126 222.229,270.356 	"/>
	<polygon points="228.824,270.886 227.994,270.327 228.035,269.899 228.635,270.282 	"/>
	<polygon points="237.48,270.089 235.492,269.776 239.063,268.671 238.924,269.077 	"/>
	<polygon points="227.895,272.218 227.072,272.843 224.574,267.812 226.156,268.931 	"/>
	<polygon points="242.066,268.06 239.314,269.226 243.369,267.003 	"/>
	<polygon points="247.873,264.903 247.881,265.597 245.926,265.868 247.947,264.226 	"/>
	<polygon points="250.988,263.579 250.24,263.933 251.629,262.704 251.686,262.894 	"/>
	<polygon points="253.625,261.735 253.244,261.884 254.674,260.235 254.391,260.942 	"/>
	<polygon points="238.627,246.569 238.068,246.63 237.848,245.278 238.961,245.386 	"/>
	<polygon points="236.377,244.132 237.252,244.106 237.189,245.163 236.023,244.202 	"/>
	<polygon points="264.162,251.339 256.156,259.874 255.438,259.882 264.301,248.577 263.861,246.19 268.18,243.8 	"/>
	<polygon points="269.449,240.905 268.674,241.3 270.484,237.528 270.289,239.122 	"/>
	<polygon points="271.541,230.173 270.678,230.095 271.361,227.909 271.611,227.909 	"/>
	<polygon points="226.811,224.692 224.365,225.181 224.34,223.616 224.744,223.271 	"/>
	<polygon points="223.438,222.667 223.635,224.409 221.424,223.349 222.043,222.657 	"/>
	<polygon points="215.688,221.187 216.275,221.79 215.156,222.735 214.5,221.286 	"/>
	<polygon points="220.814,222.444 220.471,223.147 220.014,221.122 220.717,221.454 	"/>
	<polygon points="199.23,198.312 202.973,198.899 197.961,198.579 196.494,194.651 	"/>
	<polygon points="195.635,191.261 195.766,192.173 194.533,188.503 195.051,188.782 	"/>
	<polygon points="201.01,196.376 200.006,196.077 197.549,188.532 199.48,189.56 	"/>
	<polygon points="194.586,187.04 194.313,187.944 193.803,184.099 194.463,185.298 	"/>
	<polygon points="182.707,162.407 182.844,163.032 179.568,158.532 180.525,159.128 	"/>
	<polygon points="182.412,153.806 182.531,153.757 182.465,153.835 	"/>
	<polygon points="182.412,153.806 181.738,154.081 182.018,153.614 	"/>
	<polygon points="270.814,168.476 266.207,159.552 260.611,141.685 263.648,148.021 	"/>
	<polygon points="253.91,128.557 253.639,128.557 253.199,126.858 253.799,128.174 	"/>
	<polygon points="254.465,112.785 252.828,118.131 253.152,126.764 249.883,114.889 252.906,111.795 	"/>
	<polygon points="180.213,105.517 180.83,105.66 180.543,106.47 179.744,106.006 	"/>
	<polygon points="180.268,104.601 179.721,104.542 179.822,103.483 180.584,103.923 	"/>
	<polygon points="167.82,89.056 167.057,89.101 167.09,88.534 167.352,88.312 	"/>
	<polygon points="95.39,64.825 94.1,66.888 90.891,64.545 93.549,64.36 	"/>
	<polygon points="99.434,67.98 96.59,68.124 94.906,67.192 98.806,67.606 109.48,62.096 	"/>
	<polygon points="112.496,61.18 110.491,61.545 113.68,59.967 	"/>
	<polygon points="44.298,33.469 20.137,35.272 18.194,34.91 39.441,32.662 45.731,33.534 	"/>
	<path d="M182.531,153.757l7.766-10.424l-1.098-4.327l-1.807-0.152l-0.445,4.022l-1.602-0.16l-0.447-4.804l-5.355-3.932l-0.02,2.721
		l1.66,0.105l-2.713,1.628l5.65,1.767l-3.436,7.729l-5.748-5.659l2.68,4.253l0.701,2.816l-4.828-9.439l7.244-22.592l1.295-10.047
		l-1.828-4.479l1.947,0.858l-0.064-4.199l-3.309-2.959l-2.502-8.806l-8.561-0.357l-6.068-9.487l-6.633-5.063l0.371-4.991
		l-5.141-3.103l-4.676-7.972l-11.975-7.844l-5.498,1.224l-1.052-1.422l-6.538,3.173l1.521,2.272l-3.757-1.553l-0.463,0.615
		l4.311,1.879l-0.268,1.815l-1.023,0.571l-4.602-1.557l-13.272,7.272l0.168-2.905l-4.774,3.447l-12.207,1.093l-1.559-1.594
		l-0.571-5.544l2.712,6.74l1.159-4.414l-1.787-3.768L75.034,45.75l8.218,4.988l1.734-1.377l-2.408,0.748l-0.986-4.347l-2.703,0.978
		l-5.202-3.555l5.991-3.401l-0.707-1.496l-4.779,2.831l-1.5-3.017l-3.624,2.072l3.427,1.504l1.09,4.01l-11.921-7.52l-15.532-4.873
		l5.761,0.789l1.332-1.628l2.387,1.8l-0.145-1.677l4.512,2.52l-0.542-4.266l-2.392-0.994l-7.187,1.435l-0.036-2.31l-2.663-0.382
		L42.926,32.7l-6.36-0.488L21.88,33.97l10.859-3.073l-4.146-2.741l1.957-2.055l-2.313-1.891l-2.585,6.342l-2.795-5.704l0.597,4.536
		l-4.126,4.573l-9.495,2.712l6.895-6.242l-3.123-3.809l1.525-5.703l-7.29-8.412l1.442-5.419l90.831,4.326l4.186,11.602l92.606,8.402
		l2.506,8.165l4.154-0.398l0.391-14.694l2.814-3.301l18.307,4.898l0.053,7.184l-1.787-3.944l-0.406,2.83l3.168,3.871l5.367,27.14
		l11.854,29.335l10.598,16.953l3.57,7.236l-2.354,2.893l0.09,7.879l5.156,13.862l-6.15-13.821l0.648-15.993l-5.941-0.478
		l0.477-5.271l-3.436-1.969l3.975,16.949l12.996,28.714l1.318,6.152l5.467,13.551l-0.74-1.17l-3.543-1.328l6.045,4.203l4.121,13.27
		l-3.016,42.135l-0.168-5.125l-6.354,11.543l-0.221,10.041l-3.994,4.846l0.771,2.688l-1.799-2.301l-1.764,0.928l1.48,0.447
		l0.57,1.463l-2.326-1.1l-0.234-1.945l-7.777,4.299l-4.883-1.742l-8.566,2.635l-2.314-1.805l-0.977-3.793l1.697-3.473l1.922,2.914
		l3.42,1.553l-0.762,0.834l3.021-2.008l-8.025-4.928l-1.697-7.133l-6.768-11.23l-9.199-4.545l-4.02,1.064l2.498-2.461l-2.469-0.797
		l-2.006-5.662l-0.51,1.664l-1.928-14.25l-0.969-1.92l-0.186,2.08l-4.342-1.254l8.324-9.705l-4.631,2.908l-1.672,4.012l-3.77-0.029
		l-1.416-14.879l4.352-3.492l-6.465,2.729l-4.289-3.633l4.422,8.695l-5.947-1.936l-8.83-17.461l-0.369-4.836l-4.492-2.49
		l-1.084-2.449l2.572,2.195l-0.719-1.701l3.217,0.041l-1.723-0.859l2.359-1.422L182.531,153.757 M247.143,168.825l-10.295,9.225
		l7.492,8.74l5.633,2.486l4.459-11.801l-2.219-5.508L247.143,168.825z"/>
</g>
</svg>
