<?xml version="1.0" encoding="utf-8"?>
<!-- Generator: Adobe Illustrator 15.1.0, SVG Export Plug-In . SVG Version: 6.00 Build 0)  -->
<!DOCTYPE svg PUBLIC "-//W3C//DTD SVG 1.0//EN" "http://www.w3.org/TR/2001/REC-SVG-20010904/DTD/svg10.dtd">
<svg version="1.0" xmlns="http://www.w3.org/2000/svg" xmlns:xlink="http://www.w3.org/1999/xlink" x="0px" y="0px"
	 width="283.46px" height="283.46px" viewBox="0 0 283.46 283.46" enable-background="new 0 0 283.46 283.46" xml:space="preserve">
<g id="Layer_3">
</g>
<g id="Layer_4">
	<g>
		<path d="M268.235,85.272l-63.291-70.059c-0.6-0.664-1.452-1.043-2.347-1.043H190.25H17.334c-1.747,0-3.163,1.416-3.163,3.163
			v248.793c0,1.747,1.416,3.162,3.163,3.162h248.793c1.747,0,3.162-1.415,3.162-3.162V109.533V87.608
			C269.289,86.684,268.88,85.851,268.235,85.272z M262.097,96.886h-60.598c-1.602,0-2.9-1.298-2.9-2.9v-67.69l5.801,6.42
			l52.731,58.371l4.966,5.496V96.886z"/>
	</g>
</g>
</svg>
