<?xml version="1.0" encoding="utf-8"?>
<!-- Generator: Adobe Illustrator 15.1.0, SVG Export Plug-In . SVG Version: 6.00 Build 0)  -->
<!DOCTYPE svg PUBLIC "-//W3C//DTD SVG 1.1//EN" "http://www.w3.org/Graphics/SVG/1.1/DTD/svg11.dtd">
<svg version="1.1" id="Layer_1" xmlns="http://www.w3.org/2000/svg" xmlns:xlink="http://www.w3.org/1999/xlink" x="0px" y="0px"
	 width="283.46px" height="283.46px" viewBox="0 0 283.46 283.46" enable-background="new 0 0 283.46 283.46" xml:space="preserve">
<g>
	<path d="M197.502,7.084H85.958L7.084,85.958v111.543l78.874,78.875h111.544l78.874-78.875V85.958L197.502,7.084z M77.456,155.243
		c-3.555,2.796-8.906,4.191-16.059,4.191c-2.402,0-4.571-0.144-6.502-0.43c-1.932-0.287-3.645-0.641-5.132-1.058
		c-1.489-0.419-2.768-0.861-3.839-1.333c-1.07-0.469-1.972-0.911-2.702-1.329l3.445-9.716c1.619,0.889,3.618,1.683,5.993,2.391
		c2.377,0.705,5.287,1.056,8.736,1.056c1.722,0,3.146-0.141,4.269-0.431c1.122-0.287,2.023-0.677,2.702-1.173
		c0.68-0.498,1.148-1.084,1.409-1.763s0.393-1.438,0.393-2.273c0-1.775-0.835-3.251-2.506-4.427
		c-1.674-1.173-4.545-2.438-8.618-3.797c-1.776-0.628-3.552-1.345-5.327-2.156c-1.774-0.808-3.369-1.825-4.777-3.055
		c-1.41-1.226-2.561-2.714-3.446-4.464c-0.89-1.75-1.332-3.877-1.332-6.385c0-2.507,0.468-4.766,1.408-6.776
		c0.94-2.01,2.273-3.721,3.997-5.131c1.722-1.41,3.81-2.494,6.268-3.25c2.454-0.758,5.221-1.137,8.303-1.137
		c3.652,0,6.814,0.392,9.479,1.176c2.662,0.782,4.854,1.645,6.579,2.585l-3.525,9.634c-1.514-0.781-3.2-1.475-5.052-2.074
		c-1.855-0.602-4.087-0.902-6.697-0.902c-2.926,0-5.027,0.406-6.308,1.215c-1.278,0.811-1.92,2.051-1.92,3.721
		c0,0.993,0.237,1.828,0.705,2.508c0.473,0.678,1.139,1.293,1.999,1.84c0.859,0.549,1.852,1.046,2.978,1.489
		c1.122,0.444,2.36,0.9,3.72,1.37c2.819,1.046,5.274,2.077,7.362,3.095c2.091,1.018,3.825,2.207,5.212,3.564
		c1.383,1.357,2.412,2.95,3.092,4.779c0.679,1.825,1.02,4.045,1.02,6.658C82.782,148.521,81.006,152.452,77.456,155.243z
		 M130.879,114.472h-16.372v43.867h-12.221v-43.867H85.915v-10.419h44.964V114.472z M186.54,143.415
		c-1.389,3.525-3.282,6.477-5.683,8.851c-2.405,2.379-5.263,4.167-8.577,5.368c-3.32,1.202-6.883,1.801-10.692,1.801
		c-3.708,0-7.208-0.599-10.499-1.801c-3.288-1.201-6.16-2.989-8.615-5.368c-2.458-2.374-4.389-5.325-5.798-8.851
		s-2.113-7.608-2.113-12.259c0-4.647,0.73-8.734,2.193-12.26c1.46-3.525,3.433-6.487,5.913-8.892
		c2.479-2.401,5.353-4.202,8.619-5.403c3.261-1.202,6.697-1.803,10.3-1.803c3.707,0,7.205,0.601,10.493,1.803
		c3.293,1.201,6.167,3.002,8.62,5.403c2.454,2.404,4.386,5.366,5.796,8.892s2.115,7.612,2.115,12.26
		C188.612,135.807,187.923,139.89,186.54,143.415z M233.657,135.815c-4.386,2.9-10.654,4.349-18.802,4.349h-3.837v18.175h-12.22
		v-53.504c2.658-0.521,5.483-0.888,8.459-1.096c2.976-0.209,5.585-0.313,7.835-0.313c8.093,0,14.309,1.424,18.64,4.269
		c4.338,2.848,6.506,7.508,6.506,13.984C240.238,128.206,238.043,132.918,233.657,135.815z"/>
	<path d="M172.199,118.349c-1.227-1.539-2.739-2.729-4.542-3.565c-1.802-0.834-3.825-1.252-6.069-1.252
		c-2.298,0-4.337,0.431-6.113,1.291c-1.775,0.862-3.277,2.065-4.504,3.604c-1.227,1.542-2.166,3.395-2.819,5.563
		c-0.654,2.167-0.979,4.557-0.979,7.167c0,2.664,0.325,5.067,0.979,7.206c0.653,2.142,1.593,3.985,2.819,5.523
		c1.227,1.541,2.729,2.729,4.504,3.564c1.776,0.835,3.815,1.252,6.113,1.252c2.244,0,4.268-0.417,6.069-1.252
		c1.803-0.836,3.315-2.023,4.542-3.564c1.228-1.538,2.169-3.382,2.82-5.523c0.656-2.139,0.979-4.542,0.979-7.206
		s-0.322-5.077-0.979-7.246C174.368,121.743,173.427,119.891,172.199,118.349z"/>
	<path d="M224.45,115.449c-1.017-0.599-2.255-1.018-3.718-1.252c-1.464-0.235-3.084-0.353-4.859-0.353
		c-0.888,0-1.76,0.026-2.621,0.078c-0.866,0.053-1.608,0.104-2.233,0.156v15.668h3.837c4.229,0,7.415-0.575,9.558-1.725
		c2.142-1.147,3.212-3.289,3.212-6.422c0-1.516-0.274-2.769-0.823-3.762C226.253,116.848,225.468,116.051,224.45,115.449z"/>
</g>
</svg>
