<?xml version="1.0" encoding="utf-8"?>
<!-- Generator: Adobe Illustrator 15.1.0, SVG Export Plug-In . SVG Version: 6.00 Build 0)  -->
<!DOCTYPE svg PUBLIC "-//W3C//DTD SVG 1.1//EN" "http://www.w3.org/Graphics/SVG/1.1/DTD/svg11.dtd">
<svg version="1.1" xmlns="http://www.w3.org/2000/svg" xmlns:xlink="http://www.w3.org/1999/xlink" x="0px" y="0px"
	 width="283.46px" height="283.46px" viewBox="0 0 283.46 283.46" enable-background="new 0 0 283.46 283.46" xml:space="preserve">
<g id="Layer_1">
</g>
<g id="Layer_2">
	<g>
		<path d="M241.297,115.91c1.681-1.773,2.268-4.356,1.536-6.744c-0.844-2.75-3.266-4.596-6.021-4.596h-49.587v-22.89l54.072-37.493
			c1.681-1.774,2.268-4.356,1.536-6.744c-0.844-2.75-3.266-4.596-6.021-4.596h-49.587V19.842c0-7.046-4.94-12.758-11.034-12.758
			h-67.908c-6.095,0-11.035,5.712-11.035,12.758v13.007H46.649c-2.757,0-5.177,1.846-6.022,4.596
			c-0.731,2.388-0.144,4.97,1.537,6.744l55.084,38.195v22.188H46.649c-2.757,0-5.177,1.846-6.022,4.596
			c-0.731,2.388-0.144,4.97,1.537,6.744l55.084,38.195v22.188H46.649c-2.757,0-5.177,1.846-6.022,4.596
			c-0.731,2.388-0.144,4.97,1.537,6.743l55.084,38.196v37.791c0,7.044,4.94,12.756,11.035,12.756h67.908
			c6.094,0,11.034-5.712,11.034-12.756v-38.494l54.072-37.494c1.681-1.774,2.268-4.355,1.536-6.743
			c-0.844-2.752-3.266-4.596-6.021-4.596h-49.587v-22.891L241.297,115.91z M142.236,228.194c-16.035,0-29.035-13-29.035-29.035
			s13-29.035,29.035-29.035s29.035,13,29.035,29.035S158.271,228.194,142.236,228.194z M142.236,161.989
			c-16.035,0-29.035-13-29.035-29.035s13-29.035,29.035-29.035s29.035,13,29.035,29.035S158.271,161.989,142.236,161.989z
			 M142.236,95.784c-16.035,0-29.035-13-29.035-29.035s13-29.034,29.035-29.034s29.035,12.999,29.035,29.034
			S158.271,95.784,142.236,95.784z"/>
	</g>
</g>
</svg>
