<?xml version="1.0" encoding="utf-8"?>
<!-- Generator: Adobe Illustrator 15.1.0, SVG Export Plug-In . SVG Version: 6.00 Build 0)  -->
<!DOCTYPE svg PUBLIC "-//W3C//DTD SVG 1.1//EN" "http://www.w3.org/Graphics/SVG/1.1/DTD/svg11.dtd">
<svg version="1.1" id="Layer_2" xmlns="http://www.w3.org/2000/svg" xmlns:xlink="http://www.w3.org/1999/xlink" x="0px" y="0px"
	 width="283.465px" height="283.465px" viewBox="0 0 283.465 283.465" enable-background="new 0 0 283.465 283.465"
	 xml:space="preserve">
<g>
	<path fill="none" d="M49.689,103.851c0,9.099,7.363,16.515,16.462,16.515s16.517-7.416,16.517-16.515V88.754H49.689V103.851
		L49.689,103.851z M55.336,94.275h21.687v9.705c0,5.99-4.874,10.863-10.865,10.863c-5.967,0-10.821-4.873-10.821-10.863V94.275
		L55.336,94.275z"/>
	<path fill="none" d="M82.982,84.021l9.257-57.277H65.783l-15.41,57.277H82.982z M70.041,32.215h15.77l-7.492,46.283H57.566
		L70.041,32.215z"/>
	<path fill="none" d="M141.68,120.365c9.101,0,16.517-7.416,16.517-16.515V88.754h-32.978h-0.053v15.097
		C125.164,112.949,132.58,120.365,141.68,120.365z M130.926,93.689h21.729v9.705c0,5.99-4.874,10.863-10.864,10.863
		c-5.992,0-10.865-4.873-10.865-10.863V93.689L130.926,93.689z"/>
	<path fill="none" d="M44.851,88.754H11.873v15.097c0,9.099,7.364,16.515,16.461,16.515c9.101,0,16.517-7.416,16.517-16.515V88.754
		L44.851,88.754z M39.205,103.395c0,5.99-4.873,10.863-10.865,10.863c-5.966,0-10.82-4.873-10.82-10.863v-9.705h21.688v9.705H39.205
		z"/>
	<path fill="none" d="M98.162,206.938c-1.322,0-2.394,1.213-2.394,2.709v13.832c0,1.496,1.071,2.709,2.394,2.709
		c1.32,0,2.393-1.213,2.393-2.709v-13.832C100.555,208.151,99.483,206.938,98.162,206.938z"/>
	<path fill="none" d="M60.893,26.743H45.851c-6.785,0-12.938,4.261-15.306,10.572L12.924,83.969h32.503L60.893,26.743z
		 M20.915,78.498l14.81-39.26c1.561-4.171,5.629-6.973,10.126-6.973h7.834L41.226,78.498H20.915L20.915,78.498z"/>
	<path fill="none" d="M154.986,26.743h-26.561l-3.051,57.277h32.715L154.986,26.743z M131.172,78.498l2.472-46.283h16.178
		l2.472,46.283H131.172z"/>
	<path fill="none" d="M233.092,84.021l-15.41-57.277h-26.456l9.257,57.277H233.092z M213.424,32.215l12.475,46.283h-20.752
		l-7.492-46.283H213.424z"/>
	<path fill="none" d="M195.592,84.021l-9.258-57.277h-26.562l3.104,57.277H195.592z M181.67,32.215l7.492,46.283h-21.068
		l-2.471-46.283H181.67z"/>
	<path fill="none" d="M163.035,103.851c0,9.099,7.362,16.515,16.461,16.515c9.1,0,16.516-7.416,16.516-16.515V88.754h-32.977
		V103.851z M168.68,93.689h21.688v9.705c0,5.99-4.873,10.863-10.865,10.863c-5.967,0-10.82-4.873-10.82-10.863v-9.705H168.68z"/>
	<path fill="none" d="M217.26,120.365c9.102,0,16.518-7.416,16.518-16.515V88.754h-32.979v15.097
		C200.799,112.949,208.215,120.365,217.26,120.365z M206.443,93.689h21.688v9.705c0,5.99-4.875,10.863-10.865,10.863
		c-5.967,0-10.82-4.873-10.82-10.863v-9.705H206.443z"/>
	<path fill="none" d="M100.498,188.213v-24.666c0-2.684-2.156-4.84-4.84-4.84H60.209c-2.684,0-4.84,2.156-4.84,4.84v24.666
		c0,2.685,2.156,4.84,4.84,4.84h35.449C98.342,193.053,100.498,190.897,100.498,188.213z"/>
	<path fill="none" d="M87.822,84.021h32.715l3.103-57.277H97.078L87.822,84.021z M117.842,32.215l-2.471,46.283H94.305l7.492-46.283
		H117.842z"/>
	<path fill="none" d="M87.453,103.851c0,9.099,7.364,16.515,16.463,16.515s16.516-7.416,16.516-16.515V88.754H87.453V103.851
		L87.453,103.851z M93.099,94.275h21.687v9.705c0,5.99-4.873,10.863-10.865,10.863c-5.967,0-10.821-4.873-10.821-10.863V94.275
		L93.099,94.275z"/>
	<path fill="none" d="M271.539,88.754h-32.979v15.097c0,9.099,7.416,16.515,16.518,16.515c9.098,0,16.514-7.416,16.514-16.515
		h-0.053V88.754L271.539,88.754z M255.078,114.844c-5.992,0-10.865-4.873-10.865-10.863v-9.705H265.9v9.705
		c0,0.146,0.012,0.287,0.033,0.427C265.709,110.201,260.926,114.844,255.078,114.844z"/>
	<path fill="none" d="M252.92,37.316c-2.418-6.313-8.572-10.572-15.305-10.572h-14.99l15.41,57.277h32.506L252.92,37.316z
		 M229.766,32.215h7.85c4.484,0,8.557,2.809,10.133,6.988l14.807,39.295H242.24L229.766,32.215z"/>
	<path fill="none" d="M228.096,147.451h-94.674c-5.364,0-9.678,4.366-9.678,9.678v48.441c0,5.364,4.365,9.678,9.678,9.678h94.672
		c5.365,0,9.678-4.365,9.678-9.678v-48.441C237.771,151.766,233.408,147.451,228.096,147.451z"/>
	<path fill="none" d="M104.6,147.451H51.268c-3.787,0-6.838,3.051-6.838,6.838v83.471v9.818v4.803h4.785v-0.039
		c0.222,0.023,0.447,0.039,0.68,0.039h55.809c0.326,0,0.643-0.026,0.948-0.074v0.074h4.733v-4.803v-9.818v-83.471
		C111.49,150.502,108.387,147.451,104.6,147.451z M106.651,237.76v9.367c-0.306-0.047-0.622-0.076-0.948-0.076H49.895
		c-0.232,0-0.458,0.017-0.68,0.041v-9.332v-83.471c0-1.156,0.947-2.052,2.053-2.052H104.6c1.156,0,2.052,0.947,2.052,2.052V237.76z"
		/>
	<g>
		<path d="M45.851,32.267c-4.497,0-8.565,2.802-10.126,6.973L20.915,78.5h20.311l12.459-46.232L45.851,32.267L45.851,32.267z"/>
		<polygon points="78.319,78.498 85.811,32.215 70.041,32.215 57.567,78.498 		"/>
		<polygon points="115.371,78.498 117.842,32.215 101.795,32.215 94.303,78.498 		"/>
		<polygon points="133.644,32.215 131.172,78.498 152.293,78.498 149.821,32.215 		"/>
		<polygon points="189.162,78.498 181.67,32.215 165.623,32.215 168.094,78.498 		"/>
		<polygon points="225.896,78.498 213.424,32.215 197.654,32.215 205.146,78.498 		"/>
		<path d="M262.555,78.498l-14.807-39.295c-1.576-4.181-5.648-6.988-10.133-6.988h-7.85l12.475,46.283H262.555z"/>
		<path d="M106.651,237.76v-83.471c0-1.104-0.896-2.052-2.052-2.052H51.268c-1.105,0-2.053,0.896-2.053,2.052v83.471v9.332
			c0.222-0.024,0.447-0.041,0.68-0.041h55.809c0.326,0,0.643,0.029,0.948,0.076V237.76z M60.209,193.053
			c-2.684,0-4.84-2.155-4.84-4.84v-24.666c0-2.684,2.156-4.84,4.84-4.84h35.449c2.684,0,4.84,2.156,4.84,4.84v24.666
			c0,2.685-2.156,4.84-4.84,4.84H60.209z M100.555,223.479c0,1.496-1.071,2.709-2.393,2.709c-1.322,0-2.393-1.213-2.393-2.709
			v-13.832c0-1.496,1.07-2.709,2.393-2.709c1.321,0,2.393,1.213,2.393,2.709V223.479z"/>
		<path d="M276.221,85.494l-18.775-49.861c-3.105-8.151-11.047-13.676-19.777-13.676H45.851c-8.731,0-16.673,5.471-19.776,13.676
			L7.246,85.494c-0.053,0.211-0.105,0.42-0.158,0.631v0.053v0.053v0.053v0.053v4.722v12.741c0,10.467,7.573,19.197,17.566,20.984
			v127.6h-2.419c-0.034,0-0.066,0.002-0.1,0.002v0.007h-1.718c-2.518,0-4.558,2.04-4.558,4.559s2.041,4.558,4.558,4.558h242.748
			c2.518,0,4.559-2.039,4.559-4.558s-2.041-4.559-4.559-4.559h-2.594v-0.009h-1.76v-127.6c9.941-1.787,17.566-10.52,17.566-20.984
			V91.061v-4.725v-0.053V86.23v-0.053v-0.053C276.379,85.914,276.326,85.705,276.221,85.494z M237.615,26.743
			c6.73,0,12.887,4.261,15.305,10.572l17.621,46.705h-32.506l-15.41-57.277H237.615L237.615,26.743z M217.68,26.743l15.41,57.277
			H200.48l-9.256-57.277H217.68z M233.775,88.754v15.097c0,9.099-7.416,16.515-16.516,16.515c-9.047,0-16.463-7.416-16.463-16.515
			V88.754H233.775z M186.334,26.743l9.258,57.277h-32.715l-3.104-57.277H186.334z M196.012,88.754v15.097
			c0,9.099-7.416,16.515-16.516,16.515c-9.099,0-16.462-7.416-16.462-16.515V88.754H196.012z M128.426,26.743h26.562l3.104,57.277
			h-32.715L128.426,26.743z M125.164,88.754h0.053h32.979v15.097c0,9.099-7.416,16.515-16.516,16.515s-16.516-7.416-16.516-16.515
			V88.754z M123.744,157.129c0-5.312,4.313-9.678,9.678-9.678h94.672c5.314,0,9.678,4.313,9.678,9.678v48.441
			c0,5.313-4.313,9.678-9.678,9.678h-94.672c-5.313,0-9.678-4.313-9.678-9.678V157.129L123.744,157.129z M123.64,26.743
			l-3.103,57.277H87.822l9.256-57.277H123.64z M105.703,252.381H49.895c-0.232,0-0.458-0.016-0.68-0.039v0.039H44.43v-4.803v-9.818
			v-83.471c0-3.787,3.051-6.838,6.838-6.838H104.6c3.787,0,6.891,3.051,6.785,6.838v83.471v9.818v4.803h-4.733v-0.074
			C106.346,252.354,106.029,252.381,105.703,252.381z M49.689,103.851V88.754h32.979v15.097c0,9.099-7.418,16.515-16.517,16.515
			S49.689,112.949,49.689,103.851z M103.916,120.365c-9.1,0-16.463-7.416-16.463-16.515V88.754h32.979v15.097
			C120.432,112.949,113.015,120.365,103.916,120.365z M92.239,26.743l-9.257,57.277H50.373l15.411-57.277H92.239z M30.545,37.316
			c2.367-6.313,8.521-10.572,15.306-10.572h15.042L45.43,83.971H12.925L30.545,37.316z M11.873,103.851V88.754h32.978v15.097
			c0,9.099-7.416,16.515-16.517,16.515C19.236,120.365,11.873,112.949,11.873,103.851z M255.078,120.365
			c-9.102,0-16.518-7.416-16.518-16.515V88.754h32.979v15.097h0.053C271.592,112.949,264.176,120.365,255.078,120.365z"/>
		<path d="M39.205,103.395v-9.705H17.519v9.705c0,5.99,4.854,10.863,10.821,10.863C34.332,114.258,39.205,109.385,39.205,103.395z"
			/>
		<path d="M66.157,114.844c5.991,0,10.865-4.873,10.865-10.863v-9.705H55.336v9.705C55.336,109.971,60.189,114.844,66.157,114.844z"
			/>
		<path d="M93.099,103.98c0,5.99,4.854,10.863,10.821,10.863c5.992,0,10.865-4.873,10.865-10.863v-9.705H93.099V103.98
			L93.099,103.98z"/>
		<path d="M141.791,114.258c5.99,0,10.864-4.873,10.864-10.863v-9.705h-21.729v9.705
			C130.926,109.385,135.799,114.258,141.791,114.258z"/>
		<path d="M179.502,114.258c5.99,0,10.864-4.873,10.864-10.863v-9.705H168.68v9.705C168.68,109.385,173.535,114.258,179.502,114.258
			z"/>
		<path d="M217.264,114.258c5.992,0,10.865-4.873,10.865-10.863v-9.705h-21.686v9.705
			C206.443,109.385,211.299,114.258,217.264,114.258z"/>
		<path d="M265.898,94.275h-21.686v9.705c0,5.99,4.873,10.863,10.865,10.863c5.848,0,10.631-4.643,10.854-10.438
			c-0.021-0.14-0.033-0.281-0.033-0.427V94.275L265.898,94.275z"/>
	</g>
</g>
</svg>
