<?xml version="1.0" encoding="utf-8"?>
<!-- Generator: Adobe Illustrator 15.1.0, SVG Export Plug-In . SVG Version: 6.00 Build 0)  -->
<!DOCTYPE svg PUBLIC "-//W3C//DTD SVG 1.1//EN" "http://www.w3.org/Graphics/SVG/1.1/DTD/svg11.dtd">
<svg version="1.1" id="Layer_3" xmlns="http://www.w3.org/2000/svg" xmlns:xlink="http://www.w3.org/1999/xlink" x="0px" y="0px"
	 width="283.465px" height="283.465px" viewBox="0 0 283.465 283.465" enable-background="new 0 0 283.465 283.465"
	 xml:space="preserve">
<g>
	<path fill="none" d="M141.731,22.968c3.701,0,6.712-3.005,6.712-6.708c0-3.706-3.01-6.712-6.712-6.712
		c-3.701,0-6.71,3.006-6.712,6.712C135.019,19.963,138.028,22.968,141.731,22.968z"/>
	<path d="M84.906,149.676c-0.507,0.636-0.903,1.423-1.178,2.337c-0.286,0.944-0.43,2.006-0.43,3.158
		c0,1.179,0.144,2.246,0.429,3.173c0.274,0.904,0.671,1.686,1.18,2.325c0.498,0.626,1.089,1.094,1.809,1.434
		c1.417,0.661,3.522,0.681,5.012-0.004c0.731-0.34,1.327-0.808,1.819-1.428c0.51-0.64,0.907-1.422,1.183-2.326
		c0.283-0.93,0.426-1.998,0.426-3.174s-0.144-2.251-0.428-3.196c-0.277-0.917-0.674-1.703-1.179-2.333
		c-0.488-0.615-1.101-1.096-1.825-1.432c-0.728-0.338-1.568-0.51-2.498-0.51c-0.949,0-1.79,0.175-2.499,0.521
		C86.016,148.563,85.404,149.053,84.906,149.676z"/>
	<path d="M141.889,239.369c-0.507,0.637-0.904,1.423-1.178,2.337c-0.286,0.945-0.431,2.007-0.431,3.158
		c0,1.177,0.144,2.244,0.429,3.173c0.273,0.903,0.67,1.685,1.18,2.325c0.498,0.626,1.089,1.094,1.809,1.434
		c1.417,0.661,3.521,0.681,5.013-0.004c0.721-0.335,1.333-0.816,1.817-1.428c0.511-0.64,0.908-1.422,1.185-2.326
		c0.282-0.929,0.426-1.996,0.426-3.174c0-1.177-0.144-2.252-0.428-3.195c-0.277-0.918-0.675-1.704-1.18-2.334
		c-0.487-0.615-1.1-1.096-1.824-1.432c-0.728-0.338-1.568-0.51-2.498-0.51c-0.949,0-1.79,0.175-2.499,0.521
		C142.998,238.257,142.387,238.746,141.889,239.369z"/>
	<path d="M199.427,149.676c-0.508,0.637-0.904,1.423-1.178,2.337c-0.286,0.945-0.431,2.007-0.431,3.158
		c0,1.177,0.145,2.244,0.429,3.173c0.273,0.903,0.67,1.685,1.181,2.325c0.497,0.626,1.089,1.094,1.809,1.434
		c1.418,0.661,3.521,0.68,5.013-0.004c0.721-0.335,1.333-0.816,1.817-1.428c0.511-0.64,0.908-1.422,1.185-2.326
		c0.282-0.929,0.426-1.996,0.426-3.174c0-1.177-0.144-2.252-0.428-3.195c-0.277-0.918-0.675-1.704-1.18-2.334
		c-0.487-0.615-1.1-1.096-1.824-1.432c-0.728-0.338-1.568-0.51-2.498-0.51c-0.949,0-1.79,0.175-2.499,0.521
		C200.536,148.563,199.925,149.053,199.427,149.676z"/>
	<path d="M226.629,33.045c-2.15-2.157-5.076-3.37-8.125-3.37h-34.222v10.748c0,3.088-2.493,5.587-5.582,5.587h-73.937
		c-3.084,0-5.587-2.499-5.587-5.587V29.675H64.96c-3.048,0-5.971,1.211-8.131,3.37c-2.152,2.153-3.365,5.081-3.365,8.13
		c0,41.882,0,186.069,0,227.957c0,3.05,1.213,5.972,3.365,8.127c2.158,2.151,5.081,3.371,8.131,3.371c31.957,0,121.583,0,153.544,0
		c3.049,0,5.969-1.217,8.125-3.371c2.153-2.155,3.373-5.075,3.373-8.127c0-41.888,0-186.075,0-227.957
		C230.001,38.127,228.782,35.2,226.629,33.045z M157.399,83.181h9.825l4.661,7.082l4.76-7.082h9.402l-9.476,14.095
		c2.128,2.7,3.922,5.222,5.337,7.505c1.545,2.501,2.716,4.517,3.581,6.165l0.769,1.465h-9.603l-0.277-0.549
		c-0.748-1.481-1.585-3.013-2.488-4.554c-0.658-1.125-1.399-2.125-2.211-2.985c-0.201,0.246-0.425,0.525-0.674,0.841
		c-0.543,0.696-1.1,1.455-1.65,2.25c-0.541,0.781-1.056,1.602-1.528,2.441c-0.475,0.84-0.832,1.509-1.064,1.99l-0.272,0.565h-9.298
		l0.795-1.475c1.155-2.145,2.54-4.392,4.116-6.679c1.461-2.118,3.079-4.363,4.816-6.68L157.399,83.181z M115.899,151.914
		C115.899,151.914,115.899,151.914,115.899,151.914l62.802,0.008c2.209,0,3.999,1.791,3.999,4.001c0,2.208-1.791,3.999-4,3.999
		c0,0,0,0-0.001,0l-62.801-0.008c-2.209,0-4-1.791-4-4.001C111.899,153.705,113.69,151.914,115.899,151.914z M89.156,58.899
		l15.151,26.253l-11.072-0.001l-0.007,44.082c0,2.209-1.791,4-4,4c0,0,0,0,0,0c-2.209,0-4-1.792-4-4l0.007-44.082l-11.242-0.001
		L89.156,58.899z M89.227,169.768c-1.881,0-3.693-0.312-5.386-0.925c-1.708-0.623-3.221-1.564-4.499-2.801
		c-1.279-1.242-2.294-2.792-3.018-4.607c-0.723-1.801-1.089-3.909-1.089-6.264c0-2.356,0.38-4.468,1.131-6.277
		c0.751-1.811,1.784-3.361,3.071-4.61c1.292-1.247,2.803-2.195,4.492-2.817c3.388-1.248,7.362-1.214,10.687-0.001
		c1.704,0.624,3.217,1.572,4.499,2.819c1.275,1.252,2.29,2.805,3.017,4.62c0.724,1.808,1.09,3.916,1.09,6.267
		c0,2.347-0.36,4.452-1.069,6.259c-0.71,1.814-1.705,3.364-2.956,4.604c-1.256,1.241-2.766,2.187-4.489,2.81
		C93,169.457,91.157,169.768,89.227,169.768z M117.349,219.078l-0.277-0.549c-0.747-1.479-1.584-3.012-2.489-4.555
		c-0.658-1.125-1.399-2.124-2.211-2.984c-0.201,0.246-0.425,0.525-0.673,0.842c-0.542,0.695-1.099,1.452-1.651,2.249
		c-0.54,0.779-1.054,1.601-1.528,2.441c-0.475,0.842-0.833,1.512-1.064,1.99l-0.273,0.565h-9.298l0.794-1.475
		c1.156-2.145,2.541-4.393,4.117-6.679c1.466-2.125,3.084-4.369,4.817-6.681l-9.521-14.396h9.825l4.661,7.082l4.76-7.082h9.402
		l-9.477,14.096c2.127,2.698,3.921,5.221,5.338,7.504c1.545,2.504,2.716,4.521,3.58,6.166l0.769,1.465H117.349z M159.135,251.124
		c-0.709,1.813-1.704,3.361-2.956,4.603c-1.257,1.241-2.767,2.187-4.489,2.81c-1.706,0.614-3.55,0.925-5.48,0.925
		c-1.881,0-3.692-0.312-5.386-0.925c-1.707-0.622-3.22-1.564-4.499-2.801c-1.28-1.244-2.294-2.794-3.017-4.607
		c-0.723-1.799-1.089-3.907-1.089-6.264s0.38-4.468,1.131-6.277c0.751-1.811,1.784-3.361,3.071-4.61
		c1.292-1.247,2.803-2.194,4.492-2.817c3.385-1.246,7.365-1.216,10.687-0.001c1.705,0.624,3.218,1.573,4.498,2.82
		c1.275,1.25,2.29,2.804,3.018,4.619c0.723,1.808,1.09,3.916,1.09,6.267C160.204,247.212,159.845,249.318,159.135,251.124z
		 M197.48,181.915l-31.189,41.07c-0.787,1.036-1.98,1.581-3.188,1.581c-0.843,0-1.693-0.266-2.416-0.814
		c-1.76-1.336-2.103-3.846-0.767-5.604l31.189-41.07c1.336-1.76,3.846-2.103,5.604-0.767
		C198.474,177.646,198.816,180.156,197.48,181.915z M216.673,161.431c-0.709,1.813-1.704,3.361-2.956,4.603
		c-1.257,1.241-2.767,2.187-4.489,2.81c-1.706,0.614-3.55,0.925-5.48,0.925c-1.881,0-3.692-0.312-5.386-0.925
		c-1.707-0.622-3.22-1.564-4.499-2.801c-1.28-1.244-2.295-2.794-3.017-4.607c-0.723-1.799-1.09-3.907-1.09-6.264
		s0.381-4.468,1.131-6.277c0.751-1.811,1.784-3.361,3.071-4.61c1.292-1.247,2.803-2.194,4.492-2.817
		c3.389-1.249,7.362-1.215,10.686-0.001c1.706,0.625,3.219,1.573,4.499,2.82c1.275,1.25,2.29,2.804,3.018,4.619
		c0.723,1.808,1.09,3.916,1.09,6.267C217.742,157.519,217.383,159.625,216.673,161.431z"/>
	<path d="M107.997,40.423c12.188,0,55.282,0,67.468,0c1.782,0,3.235-1.448,3.235-3.235v-18.26h-23.817
		c0.172-0.862,0.264-1.757,0.264-2.669c0-7.408-6.015-13.423-13.417-13.423c-7.409,0-13.419,6.015-13.419,13.423
		c0,0.912,0.093,1.809,0.264,2.669H104.76c0,0,0,12.26,0,18.261C104.762,38.976,106.208,40.423,107.997,40.423z M141.731,9.548
		c3.703,0,6.712,3.006,6.712,6.712c0,3.703-3.012,6.708-6.712,6.708c-3.703,0-6.712-3.005-6.712-6.708
		C135.021,12.554,138.03,9.548,141.731,9.548z"/>
</g>
</svg>
