<?xml version="1.0" encoding="utf-8"?>
<!-- Generator: Adobe Illustrator 15.1.0, SVG Export Plug-In . SVG Version: 6.00 Build 0)  -->
<!DOCTYPE svg PUBLIC "-//W3C//DTD SVG 1.1//EN" "http://www.w3.org/Graphics/SVG/1.1/DTD/svg11.dtd">
<svg version="1.1" id="Layer_1" xmlns="http://www.w3.org/2000/svg" xmlns:xlink="http://www.w3.org/1999/xlink" x="0px" y="0px"
	 width="283.465px" height="283.465px" viewBox="0 0 283.465 283.465" enable-background="new 0 0 283.465 283.465"
	 xml:space="preserve">
<path d="M267.942,128.233h-85.358c-10.242-3.087-23.321-6.433-39.253-10.037c-28.007-6.333-45.326-12.523-51.958-18.563
	c-6.75-6.04-10.125-13.737-10.125-23.092c0-10.774,4.767-19.983,14.3-27.622c9.53-7.638,24.718-11.458,45.563-11.458
	c20.011,0,35.142,4.204,45.386,12.612c10.24,8.411,16.253,20.845,18.029,37.303l33.04-2.487
	c-0.595-15.277-4.858-28.955-12.79-41.033c-7.935-12.079-19.273-21.228-34.017-27.444c-14.743-6.217-31.769-9.326-51.069-9.326
	c-17.526,0-33.457,2.96-47.783,8.881c-14.329,5.924-25.224,14.596-32.685,26.023c-7.461,11.43-11.19,23.714-11.19,36.859
	c0,11.963,3.047,22.767,9.147,32.418c4,6.333,9.374,11.985,16.101,16.965H15.523H7.087v8.436v10.125v8.437h8.436h133.84
	c15.982,4.014,26.747,7.095,32.247,9.237c10.896,4.148,18.711,9.268,23.448,15.365c4.734,6.102,7.105,13.234,7.105,21.405
	c0,8.056-2.46,15.483-7.372,22.293c-4.915,6.812-12.407,12.168-22.471,16.075c-10.065,3.908-21.671,5.863-34.816,5.863
	c-14.805,0-28.127-2.576-39.967-7.728c-11.843-5.151-20.578-11.901-26.201-20.251c-5.625-8.348-9.21-19.033-10.747-32.063
	l-32.506,2.843c0.471,17.407,5.239,33.013,14.299,46.806c9.06,13.797,21.553,24.131,37.48,30.997
	c15.926,6.866,35.675,10.303,59.24,10.303c18.59,0,35.319-3.404,50.182-10.214c14.859-6.809,26.26-16.342,34.194-28.599
	c7.932-12.257,11.901-25.313,11.901-39.168c0-13.972-3.614-26.317-10.836-37.036c-1.427-2.117-3.015-4.158-4.751-6.13h38.148h8.436
	v-8.437v-10.125v-8.436H267.942z"/>
</svg>
