<?xml version="1.0" encoding="utf-8"?>
<!-- Generator: Adobe Illustrator 15.1.0, SVG Export Plug-In . SVG Version: 6.00 Build 0)  -->
<!DOCTYPE svg PUBLIC "-//W3C//DTD SVG 1.1//EN" "http://www.w3.org/Graphics/SVG/1.1/DTD/svg11.dtd">
<svg version="1.1" id="Layer_1" xmlns="http://www.w3.org/2000/svg" xmlns:xlink="http://www.w3.org/1999/xlink" x="0px" y="0px"
	 width="283.465px" height="283.465px" viewBox="0 0 283.465 283.465" enable-background="new 0 0 283.465 283.465"
	 xml:space="preserve">
<g>
	<path d="M8.745,276.378L95.38,159.644L18.982,52.382h35.295l40.644,57.451c8.455,11.917,14.463,21.085,18.03,27.503
		c4.989-8.149,10.899-16.654,17.724-25.517l45.074-59.437h32.24L129.3,157.963l84.801,118.415H177.43l-56.381-79.911
		c-3.157-4.584-6.417-9.572-9.778-14.974c-4.992,8.151-8.557,13.751-10.696,16.808l-56.229,78.077H8.745z"/>
	<path d="M274.72,81.614v16.063h-60.619c0.656-6.072,2.625-11.827,5.908-17.264c3.283-5.435,9.765-12.646,19.447-21.631
		c7.795-7.262,12.576-12.185,14.34-14.77c2.378-3.57,3.569-7.099,3.569-10.585c0-3.856-1.036-6.821-3.107-8.894
		c-2.073-2.071-4.934-3.107-8.586-3.107c-3.609,0-6.483,1.087-8.615,3.262c-2.134,2.176-3.364,5.785-3.693,10.832l-17.231-1.723
		c1.025-9.518,4.246-16.35,9.662-20.494c5.416-4.144,12.186-6.215,20.309-6.215c8.902,0,15.899,2.4,20.986,7.2
		s7.631,10.77,7.631,17.909c0,4.062-0.728,7.928-2.186,11.602c-1.456,3.671-3.763,7.517-6.923,11.538
		c-2.092,2.667-5.867,6.502-11.323,11.509s-8.913,8.33-10.369,9.97c-1.458,1.641-2.638,3.24-3.54,4.8H274.72z"/>
</g>
</svg>
