<?xml version="1.0" encoding="utf-8"?>
<!-- Generator: Adobe Illustrator 15.1.0, SVG Export Plug-In . SVG Version: 6.00 Build 0)  -->
<!DOCTYPE svg PUBLIC "-//W3C//DTD SVG 1.1//EN" "http://www.w3.org/Graphics/SVG/1.1/DTD/svg11.dtd">
<svg version="1.1" id="Layer_2" xmlns="http://www.w3.org/2000/svg" xmlns:xlink="http://www.w3.org/1999/xlink" x="0px" y="0px"
	 width="283.46px" height="283.46px" viewBox="0 0 283.46 283.46" enable-background="new 0 0 283.46 283.46" xml:space="preserve">
<g>
	<path fill="none" d="M141.73,111.563c-16.634,0-30.166,13.533-30.166,30.167s13.532,30.166,30.166,30.166
		s30.165-13.531,30.165-30.166S158.364,111.563,141.73,111.563z"/>
	<path d="M266.913,132.156h-76.82c-4.517-22.666-24.815-39.74-48.362-39.74c-23.546,0-43.846,17.074-48.363,39.74H16.548
		c-5.218,0-9.464,4.294-9.464,9.573c0,5.278,4.246,9.573,9.464,9.573h76.818c4.517,22.668,24.816,39.742,48.363,39.742
		s43.847-17.074,48.363-39.742h76.819c5.218,0,9.463-4.295,9.463-9.573C276.375,136.451,272.13,132.156,266.913,132.156z
		 M141.73,171.896c-16.634,0-30.166-13.531-30.166-30.166s13.532-30.167,30.166-30.167s30.165,13.533,30.165,30.167
		S158.364,171.896,141.73,171.896z"/>
</g>
</svg>
