<?xml version="1.0" encoding="utf-8"?>
<!-- Generator: Adobe Illustrator 15.1.0, SVG Export Plug-In . SVG Version: 6.00 Build 0)  -->
<!DOCTYPE svg PUBLIC "-//W3C//DTD SVG 1.1//EN" "http://www.w3.org/Graphics/SVG/1.1/DTD/svg11.dtd">
<svg version="1.1" id="Layer_1" xmlns="http://www.w3.org/2000/svg" xmlns:xlink="http://www.w3.org/1999/xlink" x="0px" y="0px"
	 width="283.46px" height="283.46px" viewBox="0 0 283.46 283.46" enable-background="new 0 0 283.46 283.46" xml:space="preserve">
<g>
	<path fill="none" d="M141.729,164.458c12.532,0,22.729-10.196,22.729-22.729S154.261,119,141.729,119
		C129.197,119,119,129.198,119,141.73S129.197,164.458,141.729,164.458z"/>
	<path d="M266.914,164.458h-90.268c4.363-6.665,6.736-14.501,6.736-22.729c0-22.968-18.686-41.654-41.654-41.654
		c-22.969,0-41.655,18.687-41.655,41.654c0,8.228,2.374,16.063,6.737,22.729H16.547c-5.218,0-9.463,4.245-9.463,9.463
		s4.245,9.463,9.463,9.463h250.366c5.217,0,9.463-4.245,9.463-9.463S272.13,164.458,266.914,164.458z M119,141.73
		C119,129.198,129.197,119,141.729,119c12.532,0,22.729,10.197,22.729,22.729s-10.197,22.729-22.729,22.729
		C129.197,164.458,119,154.262,119,141.73z"/>
</g>
</svg>
