<?xml version="1.0" encoding="utf-8"?>
<!-- Generator: Adobe Illustrator 15.1.0, SVG Export Plug-In . SVG Version: 6.00 Build 0)  -->
<!DOCTYPE svg PUBLIC "-//W3C//DTD SVG 1.1//EN" "http://www.w3.org/Graphics/SVG/1.1/DTD/svg11.dtd">
<svg version="1.1" id="Layer_5" xmlns="http://www.w3.org/2000/svg" xmlns:xlink="http://www.w3.org/1999/xlink" x="0px" y="0px"
	 width="283.46px" height="283.46px" viewBox="0 0 283.46 283.46" enable-background="new 0 0 283.46 283.46" xml:space="preserve">
<g>
	<path d="M276.45,145.909c-0.484-5.678-5.84-9.874-11.465-9.026c-3.037,0.459-5.07,2.453-7.482,4.151
		c-2.496,1.756-5.166,3.272-8.002,4.403c-11.998,4.783-24.609,0.969-35.885-3.965c-11.65-5.097-22.654-11.534-34.295-16.649
		c-11.582-5.09-23.904-8.957-36.654-9.133c-9.65-0.133-19.185,1.933-27.986,5.861c-3.868,1.727-7.517,3.916-11.095,6.224
		c-6.021-20.438-24.913-35.359-47.299-35.359c-27.236,0-49.314,22.079-49.314,49.314c0,27.236,22.078,49.314,49.314,49.314
		c24.094,0,44.141-17.284,48.447-40.128c4.039-2.588,8.038-5.233,12.172-7.671c4.03-2.376,8.014-4.51,12.535-5.797
		c12.496-3.559,25.224-1.088,37.048,3.626c11.652,4.644,22.531,10.979,33.844,16.354c10.967,5.209,22.645,9.724,34.902,10.292
		c8.576,0.397,17.094-1.329,24.836-5.041c3.904-1.871,7.58-4.191,11.023-6.813c1.648-1.257,3.215-2.514,4.211-4.375
		C276.215,149.795,276.62,147.827,276.45,145.909z M56.286,171.896c-16.634,0-30.166-13.531-30.166-30.164
		c0-16.636,13.532-30.168,30.166-30.168s30.165,13.533,30.165,30.168C86.451,158.365,72.92,171.896,56.286,171.896z"/>
</g>
</svg>
