<?xml version="1.0" encoding="utf-8"?>
<!-- Generator: Adobe Illustrator 15.1.0, SVG Export Plug-In . SVG Version: 6.00 Build 0)  -->
<!DOCTYPE svg PUBLIC "-//W3C//DTD SVG 1.1//EN" "http://www.w3.org/Graphics/SVG/1.1/DTD/svg11.dtd">
<svg version="1.1" id="Layer_1" xmlns="http://www.w3.org/2000/svg" xmlns:xlink="http://www.w3.org/1999/xlink" x="0px" y="0px"
	 width="283.46px" height="283.46px" viewBox="0 0 283.46 283.46" enable-background="new 0 0 283.46 283.46" xml:space="preserve">
<g>
	<path fill="none" d="M141.352,248.339c3.427-12.104,7.413-24.204,11.952-36.309l57.729-153.979
		c-19.447-16.165-43.697-24.967-69.303-24.967c-24.708,0-48.153,8.197-67.241,23.295l55.215,155.651
		C134.341,224.942,138.225,237.044,141.352,248.339z"/>
	<path fill="none" d="M33.084,141.73c0,29.021,11.301,56.305,31.821,76.824c14.417,14.417,32.176,24.275,51.528,28.869L51.83,80.679
		C39.644,98.544,33.084,119.632,33.084,141.73z"/>
	<path fill="none" d="M166.141,247.633c19.696-4.499,37.776-14.44,52.414-29.078c20.52-20.52,31.819-47.803,31.819-76.825
		c0-22.145-6.587-43.274-18.822-61.163L166.141,247.633z"/>
	<path d="M214.846,254.81c-10.54,6.828-22.096,12.222-34.39,15.906C192.606,267.087,204.165,261.746,214.846,254.81z"/>
	<path d="M221.766,33.458c0.643,0.475,1.28,0.956,1.914,1.442C223.046,34.413,222.407,33.934,221.766,33.458z"/>
	<path d="M216.839,29.974c1.029,0.693,2.047,1.403,3.056,2.124C218.885,31.375,217.867,30.667,216.839,29.974z"/>
	<path d="M226.651,37.251c0.29,0.236,0.581,0.47,0.869,0.708C227.232,37.72,226.94,37.487,226.651,37.251z"/>
	<path d="M157.086,7.959c0.295,0.034,0.591,0.062,0.885,0.097C157.676,8.021,157.381,7.993,157.086,7.959z"/>
	<path d="M167.314,9.521c0.924,0.178,1.845,0.365,2.763,0.562C169.158,9.887,168.238,9.699,167.314,9.521z"/>
	<path d="M172.358,10.591c1.368,0.318,2.729,0.658,4.081,1.019C175.084,11.25,173.725,10.908,172.358,10.591z"/>
	<path d="M152.182,7.485c-0.035-0.003-0.07-0.006-0.104-0.009c-0.001,0-0.002,0-0.003,0c0.049,0.004,0.098,0.008,0.146,0.013
		C152.208,7.488,152.195,7.486,152.182,7.485z"/>
	<path d="M177.361,11.855c13.96,3.821,27.013,9.836,38.77,17.646C204.196,21.553,191.136,15.612,177.361,11.855z"/>
	<path d="M162.229,8.645c0.55,0.084,1.1,0.167,1.647,0.258C163.329,8.813,162.779,8.729,162.229,8.645z"/>
	<path d="M131.382,7.476c-0.028,0.002-0.056,0.005-0.083,0.007c-0.021,0.001-0.042,0.004-0.062,0.006
		c0.053-0.005,0.107-0.01,0.16-0.014C131.392,7.476,131.387,7.476,131.382,7.476z"/>
	<path d="M106.928,11.633c1.387-0.37,2.782-0.719,4.187-1.045C109.711,10.913,108.317,11.264,106.928,11.633z"/>
	<path d="M59.679,34.978c0.648-0.499,1.302-0.992,1.959-1.479C60.982,33.987,60.328,34.477,59.679,34.978z"/>
	<path d="M125.492,8.056c0.305-0.037,0.612-0.066,0.917-0.101C126.104,7.99,125.797,8.02,125.492,8.056z"/>
	<path d="M67.213,29.578c11.789-7.849,24.884-13.891,38.893-17.726C92.284,15.622,79.181,21.589,67.213,29.578z"/>
	<path d="M63.454,32.177c1.03-0.737,2.069-1.464,3.121-2.173C65.525,30.713,64.485,31.437,63.454,32.177z"/>
	<path d="M55.841,38.041c0.298-0.247,0.601-0.49,0.901-0.735C56.442,37.55,56.14,37.792,55.841,38.041z"/>
	<path d="M113.316,10.098c0.946-0.204,1.896-0.397,2.85-0.58C115.213,9.7,114.264,9.895,113.316,10.098z"/>
	<path d="M119.525,8.913c0.577-0.096,1.156-0.184,1.735-0.272C120.681,8.728,120.103,8.817,119.525,8.913z"/>
	<path d="M149.628,276.138c0.795-0.047,1.591-0.092,2.383-0.151c0.006,0,0.012-0.001,0.018-0.002
		c-0.865,0.066-1.735,0.117-2.605,0.166C149.492,276.146,149.56,276.142,149.628,276.138z"/>
	<path d="M7.128,145.185c0.003,0.121,0.01,0.241,0.013,0.361c0.002,0.088,0.007,0.176,0.01,0.264
		c-0.007-0.212-0.018-0.423-0.023-0.636C7.128,145.177,7.128,145.181,7.128,145.185z"/>
	<path d="M150.26,7.361c-0.419-0.026-0.838-0.058-1.257-0.08c-0.127-0.006-0.252-0.017-0.379-0.023c-0.005,0-0.01,0-0.015,0
		c0.202,0.01,0.402,0.026,0.604,0.037C149.564,7.313,149.912,7.34,150.26,7.361z"/>
	<path d="M236.939,46.523c-0.014-0.014-0.027-0.026-0.041-0.04c0.027,0.027,0.055,0.054,0.081,0.081
		C236.965,46.551,236.953,46.537,236.939,46.523z"/>
	<path d="M131.45,275.987c0.561,0.042,1.124,0.073,1.686,0.107c-0.567-0.034-1.135-0.065-1.7-0.108
		C131.441,275.986,131.446,275.987,131.45,275.987z"/>
	<path d="M51.121,42.133c-0.592,0.54-1.177,1.088-1.761,1.639c0.563-0.531,1.128-1.062,1.701-1.583
		C51.082,42.171,51.101,42.152,51.121,42.133z"/>
	<path d="M7.258,148.625c0.006,0.123,0.016,0.248,0.023,0.373c0.002,0.041,0.005,0.082,0.008,0.123
		c-0.011-0.171-0.022-0.34-0.031-0.511C7.257,148.615,7.257,148.62,7.258,148.625z"/>
	<path d="M7.141,137.913c-0.003,0.121-0.01,0.241-0.013,0.362c0,0.004,0,0.007,0,0.011c0.006-0.241,0.019-0.479,0.026-0.72
		C7.151,137.682,7.145,137.797,7.141,137.913z"/>
	<path d="M7.281,134.458c-0.006,0.126-0.017,0.252-0.023,0.378c0,0.005,0,0.01,0,0.015c0.01-0.189,0.024-0.376,0.034-0.564
		C7.289,134.343,7.284,134.4,7.281,134.458z"/>
	<path d="M254.949,68.827c7.607,11.79,13.42,24.846,17.059,38.78C268.431,93.853,262.686,80.792,254.949,68.827z"/>
	<path d="M275.984,131.406c0.072,0.952,0.13,1.908,0.182,2.865c0.011,0.195,0.026,0.389,0.036,0.583
		c0.045,0.893,0.074,1.79,0.102,2.687c0.008,0.252,0.021,0.503,0.028,0.756c0.028,1.135,0.043,2.273,0.043,3.416
		c0-0.656-0.015-1.309-0.023-1.963c-0.007-0.471-0.006-0.943-0.018-1.413c-0.013-0.482-0.037-0.962-0.054-1.443
		c-0.022-0.666-0.043-1.332-0.075-1.996c-0.018-0.347-0.043-0.692-0.063-1.038c-0.046-0.805-0.093-1.61-0.151-2.412
		c-0.017-0.204-0.037-0.406-0.054-0.61c-0.075-0.951-0.157-1.9-0.252-2.847c-0.006-0.057-0.015-0.112-0.021-0.168
		c-0.013-0.122-0.032-0.241-0.045-0.363c0.129,1.217,0.246,2.437,0.342,3.663C275.967,131.217,275.977,131.311,275.984,131.406z"/>
	<path d="M134.837,7.258c-0.125,0.006-0.249,0.016-0.374,0.023c-0.069,0.004-0.138,0.009-0.207,0.013
		c0.198-0.011,0.394-0.026,0.591-0.037C134.844,7.257,134.84,7.258,134.837,7.258z"/>
	<path d="M7.475,152.056c-0.007-0.095-0.011-0.19-0.018-0.285c0.007,0.103,0.012,0.206,0.02,0.309
		c0.002,0.026,0.005,0.055,0.007,0.082c2.331,30.626,14.91,59.192,36.071,81.705C23.202,212.19,9.945,183.775,7.498,152.323
		C7.49,152.234,7.481,152.146,7.475,152.056z"/>
	<path d="M103.05,270.731c-12.32-3.688-23.898-9.092-34.458-15.936C79.293,261.748,90.875,267.099,103.05,270.731z"/>
	<path d="M127.804,275.662c0.063,0.006,0.126,0.015,0.189,0.021c0.078,0.008,0.157,0.013,0.234,0.021
		c-0.283-0.028-0.563-0.063-0.846-0.093C127.523,275.625,127.663,275.647,127.804,275.662z"/>
	<path d="M11.887,105.979c3.85-14.009,9.907-27.104,17.772-38.889C21.655,79.055,15.671,92.156,11.887,105.979z"/>
	<path d="M37.509,56.491c0.231-0.282,0.46-0.566,0.693-0.846C37.968,55.925,37.741,56.209,37.509,56.491z"/>
	<path d="M33.688,61.383c0.47-0.63,0.943-1.257,1.424-1.879C34.63,60.125,34.158,60.753,33.688,61.383z"/>
	<path d="M7.485,131.278c-0.002,0.03-0.005,0.059-0.007,0.088c0.003-0.038,0.006-0.075,0.01-0.113
		C7.487,131.261,7.485,131.27,7.485,131.278z"/>
	<path d="M8.653,121.177c0.084-0.547,0.167-1.095,0.257-1.641C8.82,120.083,8.737,120.629,8.653,121.177z"/>
	<path d="M10.613,111.007c0.32-1.372,0.662-2.734,1.024-4.089C11.276,108.274,10.932,109.637,10.613,111.007z"/>
	<path d="M9.537,116.068c0.178-0.923,0.366-1.842,0.563-2.758C9.903,114.227,9.714,115.146,9.537,116.068z"/>
	<path d="M30.173,66.323c0.687-1.014,1.39-2.016,2.104-3.01C31.561,64.308,30.861,65.311,30.173,66.323z"/>
	<path d="M7.963,126.337c0.033-0.29,0.061-0.581,0.096-0.869C8.024,125.757,7.997,126.048,7.963,126.337z"/>
	<path d="M237.397,236.469c0.352-0.359,0.704-0.718,1.054-1.079c0.25-0.26,0.506-0.514,0.754-0.771
		c0.016-0.016,0.029-0.032,0.045-0.049c-0.01,0.011-0.02,0.021-0.029,0.031C238.62,235.231,238.009,235.851,237.397,236.469z"/>
	<path d="M276.303,145.922c-0.027,0.896-0.057,1.791-0.102,2.683c-0.01,0.197-0.025,0.394-0.036,0.591
		c-0.053,0.955-0.109,1.908-0.182,2.857c-0.007,0.098-0.017,0.194-0.024,0.292c-0.101,1.292-0.227,2.577-0.363,3.859
		c0.02-0.189,0.05-0.377,0.069-0.567c0.004-0.056,0.013-0.111,0.019-0.167c0.095-0.946,0.177-1.896,0.252-2.848
		c0.017-0.203,0.037-0.406,0.054-0.609c0.061-0.803,0.105-1.607,0.151-2.412c0.021-0.346,0.047-0.691,0.063-1.038
		c0.032-0.664,0.053-1.33,0.075-1.996c0.017-0.481,0.041-0.961,0.054-1.442c0.012-0.471,0.011-0.941,0.018-1.414
		c0.01-0.66,0.023-1.318,0.023-1.979v0c0,1.147-0.015,2.291-0.043,3.431C276.325,145.417,276.311,145.668,276.303,145.922z"/>
	<path d="M152.643,275.933c0.942-0.075,1.886-0.156,2.825-0.251c0.063-0.007,0.125-0.015,0.188-0.021
		c0.154-0.016,0.307-0.04,0.462-0.057c-1.211,0.129-2.425,0.246-3.646,0.343C152.53,275.943,152.586,275.938,152.643,275.933z"/>
	<path d="M145.548,7.141c-0.121-0.003-0.241-0.01-0.362-0.013c-0.004,0-0.009,0-0.013,0c0.231,0.006,0.46,0.018,0.69,0.025
		C145.758,7.15,145.654,7.144,145.548,7.141z"/>
	<path d="M46.4,236.815c-0.723-0.725-1.438-1.456-2.145-2.197c0.001,0.001,0.001,0.002,0.002,0.003
		c0.219,0.229,0.445,0.453,0.666,0.683c0.529,0.547,1.057,1.096,1.597,1.636c0.42,0.42,0.849,0.828,1.273,1.242
		c0.036,0.034,0.071,0.069,0.106,0.104c-0.422-0.41-0.847-0.817-1.264-1.233C46.557,236.973,46.479,236.894,46.4,236.815z"/>
	<path d="M48.071,45.008c-0.518,0.502-1.038,1.001-1.549,1.512c-0.325,0.325-0.643,0.656-0.962,0.986
		c0.943-0.962,1.897-1.913,2.868-2.846C48.309,44.777,48.19,44.893,48.071,45.008z"/>
	<path d="M138.276,7.128c-0.121,0.003-0.241,0.01-0.362,0.013c-0.105,0.003-0.21,0.009-0.315,0.012
		c0.229-0.007,0.457-0.019,0.687-0.025C138.282,7.128,138.279,7.128,138.276,7.128z"/>
	<path d="M141.731,7.084L141.731,7.084c0.062,0,0.124,0.002,0.187,0.002C141.855,7.086,141.793,7.084,141.731,7.084z"/>
	<path d="M44.296,48.801c-0.009,0.01-0.019,0.019-0.028,0.029c0.023-0.024,0.047-0.047,0.07-0.072
		C44.324,48.772,44.31,48.787,44.296,48.801z"/>
	<path d="M270.764,180.303c-3.701,12.402-9.141,24.054-16.036,34.673C261.733,204.213,267.12,192.558,270.764,180.303z"/>
	<path fill="#231F20" d="M276.332,138.298c-0.007-0.253-0.021-0.504-0.028-0.756c-0.027-0.897-0.057-1.794-0.102-2.687
		c-0.01-0.195-0.025-0.389-0.036-0.583c-0.052-0.957-0.109-1.913-0.182-2.865c-0.007-0.095-0.017-0.188-0.023-0.283
		c-0.096-1.226-0.213-2.446-0.342-3.663c-0.164-1.559-0.354-3.11-0.57-4.652c-0.052-0.365-0.104-0.73-0.159-1.095
		c-0.192-1.294-0.407-2.582-0.637-3.865c-0.122-0.684-0.247-1.366-0.38-2.046c-0.199-1.021-0.41-2.037-0.633-3.048
		c-0.243-1.111-0.502-2.216-0.772-3.316c-0.15-0.611-0.301-1.223-0.46-1.832c-3.639-13.934-9.451-26.99-17.059-38.78
		c-0.029-0.046-0.06-0.092-0.09-0.138c-0.899-1.391-1.827-2.762-2.776-4.117c-0.3-0.428-0.604-0.853-0.908-1.278
		c-0.671-0.934-1.354-1.859-2.048-2.775c-0.61-0.806-1.229-1.605-1.856-2.396c-0.403-0.508-0.81-1.013-1.22-1.514
		c-0.928-1.136-1.87-2.258-2.834-3.363c-0.139-0.16-0.279-0.318-0.419-0.477c-1.169-1.327-2.361-2.633-3.581-3.913
		c-0.706-0.742-1.423-1.475-2.146-2.2c-0.03-0.03-0.061-0.06-0.091-0.09c-0.026-0.027-0.054-0.054-0.081-0.081
		c-0.025-0.026-0.052-0.052-0.077-0.078c-0.731-0.729-1.47-1.452-2.218-2.164c-0.232-0.222-0.471-0.437-0.705-0.656
		c-0.51-0.479-1.018-0.959-1.535-1.43c-0.012-0.01-0.022-0.021-0.034-0.032c-0.023-0.021-0.045-0.042-0.068-0.063
		c-0.273-0.249-0.553-0.491-0.828-0.738c-1.282-1.146-2.587-2.267-3.912-3.363c-0.288-0.238-0.579-0.472-0.869-0.708
		c-0.979-0.797-1.969-1.581-2.971-2.351c-0.634-0.487-1.271-0.967-1.914-1.442c-0.62-0.459-1.243-0.912-1.871-1.361
		c-1.009-0.721-2.026-1.431-3.056-2.124c-0.235-0.159-0.472-0.315-0.709-0.472c-11.757-7.811-24.81-13.825-38.77-17.646
		c-0.306-0.084-0.614-0.164-0.922-0.245c-1.352-0.36-2.713-0.7-4.081-1.019c-0.758-0.176-1.519-0.345-2.281-0.508
		c-0.918-0.197-1.839-0.384-2.763-0.562c-1.141-0.219-2.286-0.428-3.438-0.619c-0.548-0.091-1.098-0.174-1.647-0.258
		c-1.413-0.216-2.831-0.417-4.258-0.588c-0.294-0.035-0.59-0.063-0.885-0.097c-1.574-0.179-3.154-0.336-4.744-0.46
		c-0.041-0.003-0.081-0.007-0.122-0.01c-0.048-0.004-0.097-0.009-0.146-0.013c-0.007-0.001-0.014-0.001-0.021-0.002
		c-0.596-0.045-1.195-0.078-1.794-0.113c-0.349-0.021-0.696-0.047-1.046-0.066c-0.202-0.011-0.402-0.027-0.604-0.037
		c-0.002,0-0.005,0-0.007,0c-0.899-0.045-1.803-0.075-2.706-0.103c-0.011,0-0.022-0.001-0.033-0.001
		c-0.23-0.007-0.459-0.019-0.69-0.025c-0.003,0-0.006,0-0.009,0c-1.079-0.027-2.162-0.04-3.247-0.041
		c-0.063,0-0.125-0.002-0.187-0.002h0c-1.148,0-2.293,0.015-3.435,0.043c-0.003,0-0.007,0-0.01,0
		c-0.229,0.006-0.458,0.018-0.687,0.025c-0.011,0-0.022,0.001-0.034,0.001c-0.905,0.027-1.808,0.058-2.708,0.103
		c-0.003,0-0.006,0-0.009,0c-0.198,0.01-0.394,0.025-0.591,0.037c0,0-0.001,0-0.001,0c-0.953,0.052-1.904,0.109-2.852,0.181
		c-0.002,0-0.004,0-0.006,0c-0.053,0.004-0.107,0.009-0.16,0.014c-0.032,0.003-0.063,0.006-0.095,0.008
		c-1.586,0.124-3.163,0.281-4.733,0.458c-0.305,0.035-0.612,0.064-0.917,0.101c-1.418,0.17-2.827,0.37-4.231,0.584
		c-0.58,0.088-1.159,0.177-1.735,0.272c-1.125,0.187-2.244,0.391-3.359,0.605c-0.954,0.183-1.903,0.376-2.85,0.58
		c-0.736,0.158-1.47,0.32-2.202,0.49c-1.404,0.327-2.8,0.675-4.187,1.045c-0.274,0.073-0.549,0.144-0.822,0.219
		c-14.008,3.834-27.104,9.876-38.893,17.726c-0.213,0.142-0.427,0.283-0.639,0.426c-1.052,0.709-2.091,1.436-3.121,2.173
		c-0.609,0.436-1.214,0.876-1.815,1.322c-0.658,0.487-1.311,0.98-1.959,1.479c-0.99,0.762-1.969,1.538-2.937,2.327
		c-0.301,0.245-0.603,0.488-0.901,0.735c-1.321,1.096-2.623,2.215-3.901,3.359c-0.246,0.22-0.495,0.437-0.739,0.658
		c-0.027,0.025-0.054,0.05-0.081,0.075c-0.02,0.019-0.04,0.038-0.06,0.056c-0.572,0.521-1.137,1.052-1.701,1.583
		c-0.167,0.157-0.336,0.309-0.501,0.467c-0.146,0.139-0.287,0.282-0.431,0.421c-0.971,0.934-1.925,1.884-2.868,2.846
		c-0.408,0.417-0.819,0.83-1.222,1.251c-0.023,0.024-0.046,0.048-0.07,0.072c-0.004,0.004-0.008,0.008-0.012,0.012
		c-0.006,0.006-0.013,0.013-0.019,0.019c-0.08,0.084-0.157,0.17-0.237,0.254c-0.585,0.619-1.167,1.241-1.742,1.871
		c-0.048,0.053-0.098,0.105-0.146,0.158c-0.019,0.02-0.038,0.041-0.057,0.061c-0.152,0.167-0.299,0.338-0.45,0.505
		c-1.16,1.289-2.293,2.602-3.403,3.935c-0.233,0.28-0.462,0.564-0.693,0.846c-0.813,0.993-1.613,1.997-2.397,3.013
		c-0.48,0.622-0.954,1.249-1.424,1.879c-0.476,0.639-0.946,1.282-1.411,1.93c-0.713,0.994-1.417,1.996-2.104,3.01
		c-0.172,0.255-0.343,0.511-0.514,0.767c-7.865,11.786-13.923,24.88-17.772,38.889c-0.085,0.312-0.167,0.625-0.25,0.938
		c-0.362,1.355-0.704,2.718-1.024,4.089c-0.178,0.765-0.349,1.533-0.514,2.303c-0.197,0.916-0.384,1.835-0.563,2.758
		c-0.222,1.151-0.434,2.307-0.626,3.468c-0.091,0.545-0.173,1.093-0.257,1.641c-0.218,1.424-0.421,2.853-0.594,4.291
		c-0.035,0.289-0.063,0.58-0.096,0.869c-0.181,1.587-0.34,3.182-0.465,4.785c-0.003,0.043-0.007,0.087-0.011,0.13
		c-0.003,0.038-0.006,0.075-0.01,0.113c-0.001,0.013-0.002,0.026-0.003,0.04c-0.071,0.944-0.128,1.894-0.18,2.843
		c0,0.012-0.001,0.024-0.002,0.037c-0.01,0.188-0.024,0.375-0.034,0.564c0,0.002,0,0.004,0,0.007
		c-0.045,0.9-0.075,1.803-0.103,2.708c0,0,0,0,0,0.001c-0.007,0.24-0.02,0.479-0.026,0.72c0,0.003,0,0.006,0,0.009
		c-0.028,1.142-0.043,2.286-0.043,3.435s0.015,2.293,0.043,3.435c0,0.003,0,0.007,0,0.01c0.005,0.213,0.016,0.424,0.023,0.636
		c0.001,0.029,0.002,0.058,0.003,0.087c0.027,0.903,0.058,1.807,0.103,2.706c0,0.002,0,0.005,0,0.007
		c0.009,0.171,0.021,0.34,0.031,0.511c0.002,0.029,0.004,0.059,0.005,0.088c0.047,0.856,0.101,1.711,0.163,2.563
		c0.007,0.095,0.011,0.19,0.018,0.285c0.007,0.09,0.016,0.178,0.023,0.267c2.447,31.452,15.705,59.867,36.056,81.544
		c0.23,0.245,0.457,0.494,0.689,0.738c0.004,0.004,0.008,0.009,0.013,0.013c0.706,0.741,1.422,1.473,2.145,2.197
		c0.079,0.079,0.157,0.158,0.236,0.236c0.417,0.416,0.842,0.823,1.264,1.233c0.32,0.312,0.635,0.628,0.958,0.936
		c0.704,0.671,1.417,1.333,2.136,1.988c0.07,0.064,0.139,0.131,0.209,0.195c0.498,0.452,1.002,0.896,1.506,1.342
		c0.146,0.128,0.289,0.259,0.434,0.387c1.151,1.006,2.323,1.989,3.508,2.956c0.446,0.364,0.894,0.726,1.344,1.084
		c0.854,0.679,1.717,1.347,2.587,2.005c0.845,0.639,1.696,1.268,2.556,1.887c0.468,0.337,0.938,0.672,1.411,1.003
		c1.222,0.856,2.457,1.695,3.708,2.512c0.111,0.072,0.222,0.146,0.333,0.217c10.56,6.844,22.138,12.247,34.458,15.936
		c0.201,0.061,0.403,0.119,0.604,0.179c1.422,0.418,2.855,0.812,4.297,1.184c0.553,0.144,1.108,0.282,1.664,0.418
		c1.07,0.262,2.146,0.511,3.226,0.746c0.915,0.2,1.833,0.392,2.755,0.572c0.704,0.139,1.41,0.273,2.118,0.4
		c1.266,0.229,2.538,0.438,3.815,0.63c0.342,0.051,0.681,0.107,1.024,0.156c1.6,0.229,3.21,0.422,4.828,0.594
		c0.282,0.029,0.563,0.064,0.846,0.093c0.956,0.096,1.915,0.181,2.876,0.256c0.102,0.008,0.203,0.019,0.305,0.025
		c0.009,0.001,0.019,0.001,0.028,0.002c0.565,0.043,1.133,0.074,1.7,0.108c0.37,0.022,0.738,0.05,1.109,0.07
		c0.204,0.011,0.408,0.026,0.612,0.037c0.888,0.045,1.781,0.074,2.674,0.102c0.256,0.008,0.51,0.021,0.767,0.028
		c1.141,0.028,2.285,0.043,3.432,0.043s2.291-0.015,3.432-0.043c0.258-0.007,0.513-0.021,0.77-0.028
		c0.892-0.027,1.783-0.058,2.671-0.102c0.206-0.011,0.411-0.026,0.616-0.038c0.068-0.004,0.137-0.009,0.205-0.013
		c0.87-0.049,1.74-0.1,2.605-0.166c0.008,0,0.016,0,0.022-0.001c0.104-0.008,0.206-0.018,0.31-0.026
		c0.037-0.003,0.074-0.007,0.111-0.01c1.221-0.097,2.435-0.214,3.646-0.343c1.597-0.17,3.188-0.361,4.768-0.586
		c0.354-0.051,0.706-0.109,1.06-0.162c1.272-0.191,2.54-0.4,3.801-0.627c0.705-0.127,1.408-0.261,2.109-0.398
		c0.931-0.184,1.857-0.376,2.78-0.578c1.063-0.232,2.122-0.477,3.175-0.733c0.58-0.142,1.158-0.287,1.735-0.436
		c1.409-0.365,2.812-0.75,4.202-1.158c0.236-0.069,0.473-0.139,0.709-0.21c12.294-3.685,23.85-9.078,34.39-15.906
		c0.125-0.081,0.25-0.162,0.375-0.244c1.244-0.813,2.474-1.647,3.689-2.5c0.471-0.329,0.938-0.662,1.404-0.998
		c0.867-0.624,1.726-1.259,2.577-1.902c0.854-0.646,1.699-1.301,2.536-1.966c0.474-0.377,0.945-0.757,1.414-1.141
		c1.165-0.951,2.317-1.918,3.449-2.907c0.172-0.149,0.34-0.303,0.51-0.454c0.485-0.428,0.972-0.855,1.45-1.291
		c0.105-0.095,0.207-0.193,0.312-0.288c0.684-0.626,1.363-1.255,2.034-1.895c0.948-0.903,1.879-1.824,2.8-2.755
		c0.612-0.618,1.223-1.238,1.823-1.868c0.01-0.01,0.02-0.021,0.029-0.031c0.695-0.73,1.384-1.47,2.063-2.216
		c0.029-0.031,0.059-0.063,0.088-0.094c0.429-0.472,0.85-0.949,1.271-1.427c0.164-0.187,0.331-0.369,0.494-0.557
		c0.969-1.108,1.915-2.236,2.848-3.377c0.428-0.523,0.854-1.051,1.274-1.582c0.614-0.775,1.22-1.557,1.817-2.346
		c0.694-0.916,1.377-1.841,2.048-2.774c0.284-0.395,0.565-0.79,0.845-1.188c0.905-1.29,1.793-2.595,2.654-3.918
		c0.025-0.038,0.051-0.077,0.076-0.116c6.896-10.619,12.335-22.271,16.036-34.673c0.036-0.122,0.072-0.245,0.108-0.367
		c0.444-1.504,0.859-3.02,1.252-4.544c0.122-0.474,0.24-0.947,0.357-1.423c0.284-1.157,0.553-2.321,0.807-3.49
		c0.18-0.828,0.353-1.659,0.518-2.492c0.158-0.802,0.31-1.606,0.454-2.413c0.209-1.167,0.401-2.339,0.58-3.517
		c0.068-0.453,0.14-0.904,0.204-1.359c0.21-1.489,0.391-2.988,0.552-4.493c0.137-1.282,0.263-2.567,0.363-3.859
		c0.008-0.098,0.018-0.194,0.024-0.292c0.072-0.949,0.129-1.902,0.182-2.857c0.011-0.197,0.026-0.394,0.036-0.591
		c0.045-0.892,0.074-1.787,0.102-2.683c0.008-0.254,0.021-0.506,0.028-0.761c0.028-1.141,0.043-2.284,0.043-3.431v0
		c0-0.006,0-0.011,0-0.017C276.375,140.571,276.36,139.433,276.332,138.298z M141.73,33.084c25.605,0,49.855,8.802,69.303,24.967
		l-57.729,153.979c-4.539,12.104-8.525,24.205-11.952,36.309c-3.127-11.295-7.011-23.397-11.648-36.309L74.489,56.379
		C93.577,41.281,117.022,33.084,141.73,33.084z M64.905,218.554c-20.521-20.52-31.821-47.803-31.821-76.824
		c0-22.098,6.56-43.186,18.746-61.051l64.603,166.744C97.082,242.83,79.323,232.971,64.905,218.554z M218.555,218.555
		c-14.638,14.638-32.718,24.579-52.414,29.078l65.411-167.066c12.235,17.889,18.822,39.018,18.822,61.163
		C250.375,170.752,239.075,198.036,218.555,218.555z"/>
</g>
</svg>
