<?xml version="1.0" encoding="utf-8"?>
<!-- Generator: Adobe Illustrator 15.1.0, SVG Export Plug-In . SVG Version: 6.00 Build 0)  -->
<!DOCTYPE svg PUBLIC "-//W3C//DTD SVG 1.1//EN" "http://www.w3.org/Graphics/SVG/1.1/DTD/svg11.dtd">
<svg version="1.1" id="Layer_1" xmlns="http://www.w3.org/2000/svg" xmlns:xlink="http://www.w3.org/1999/xlink" x="0px" y="0px"
	 width="283.46px" height="283.46px" viewBox="0 0 283.46 283.46" enable-background="new 0 0 283.46 283.46" xml:space="preserve">
<g>
	<g>
		<path d="M276.373,117.004c0-3.702-1.975-7.123-5.182-8.974c-1.604-0.925-3.393-1.388-5.182-1.388s-3.578,0.462-5.182,1.388
			l-116.271,67.13c-1.104,0.637-2.047,1.469-2.828,2.426c-0.781-0.957-1.725-1.789-2.828-2.426L22.63,108.03
			c-1.603-0.925-3.392-1.388-5.181-1.388c-1.79,0-3.579,0.462-5.182,1.388c-3.206,1.851-5.181,5.272-5.181,8.975L7.084,251.266
			c0,3.702,1.975,7.123,5.182,8.976c1.603,0.924,3.392,1.387,5.181,1.387c1.789,0,3.578-0.463,5.181-1.387l116.273-67.132
			c1.103-0.637,2.047-1.469,2.828-2.425c0.781,0.956,1.726,1.788,2.828,2.425l116.274,67.132c1.604,0.924,3.394,1.387,5.183,1.387
			s3.577-0.463,5.182-1.387c3.205-1.853,5.181-5.272,5.181-8.976L276.373,117.004z M17.447,251.266l0.001-134.261l116.271,67.129
			L17.447,251.266z"/>
	</g>
</g>
<g>
	<path d="M164.506,70.787c-2.965-1.347-8.433-2.923-16.402-4.725c-7.969-1.802-12.897-3.563-14.783-5.282
		c-1.921-1.718-2.881-3.908-2.881-6.571c0-3.066,1.356-5.687,4.07-7.859c2.711-2.173,7.033-3.26,12.963-3.26
		c5.694,0,9.999,1.196,12.915,3.588c2.913,2.393,4.624,5.931,5.129,10.615l9.402-0.708c-0.17-4.347-1.384-8.239-3.639-11.676
		c-2.26-3.437-5.485-6.04-9.681-7.809c-4.195-1.769-9.039-2.654-14.531-2.654c-4.986,0-9.521,0.843-13.596,2.528
		c-4.077,1.685-7.178,4.153-9.3,7.404c-2.124,3.252-3.185,6.748-3.185,10.488c0,3.404,0.867,6.479,2.603,9.225
		c1.735,2.747,4.372,5.046,7.911,6.899c2.729,1.449,7.496,2.991,14.304,4.625c6.806,1.634,11.203,2.839,13.191,3.613
		c3.1,1.181,5.323,2.638,6.671,4.372c1.349,1.736,2.022,3.766,2.022,6.092c0,2.292-0.699,4.406-2.098,6.343
		c-1.399,1.938-3.531,3.462-6.395,4.575c-2.864,1.113-6.166,1.668-9.906,1.668c-4.212,0-8.003-0.732-11.373-2.198
		c-3.369-1.465-5.854-3.387-7.455-5.763c-1.601-2.374-2.621-5.416-3.058-9.123l-9.249,0.808c0.133,4.953,1.49,9.394,4.068,13.319
		c2.578,3.925,6.132,6.865,10.664,8.819c4.533,1.956,10.152,2.931,16.857,2.931c5.289,0,10.049-0.968,14.279-2.905
		c4.228-1.938,7.471-4.651,9.729-8.138c2.257-3.488,3.387-7.202,3.387-11.146c0-3.976-1.028-7.488-3.085-10.538
		C172.004,75.294,168.818,72.775,164.506,70.787z"/>
	<g>
		<path d="M239.267,83.84l9.815,2.479c-2.059,8.061-5.76,14.208-11.105,18.44c-5.345,4.233-11.881,6.349-19.604,6.349
			c-7.993,0-14.494-1.627-19.502-4.882c-5.009-3.254-8.819-7.968-11.434-14.14s-3.921-12.799-3.921-19.882
			c0-7.723,1.475-14.46,4.426-20.21c2.952-5.75,7.15-10.119,12.598-13.104c5.446-2.984,11.441-4.477,17.985-4.477
			c7.42,0,13.659,1.889,18.718,5.666c5.059,3.777,8.583,9.089,10.573,15.936l-9.662,2.277c-1.721-5.396-4.218-9.326-7.488-11.788
			c-3.271-2.461-7.386-3.693-12.344-3.693c-5.7,0-10.464,1.366-14.291,4.098c-3.829,2.732-6.519,6.4-8.07,11.003
			c-1.551,4.604-2.327,9.352-2.327,14.241c0,6.307,0.92,11.813,2.759,16.518c1.837,4.705,4.694,8.221,8.574,10.548
			c3.877,2.327,8.076,3.491,12.597,3.491c5.496,0,10.151-1.585,13.963-4.755C235.338,94.785,237.918,90.08,239.267,83.84z"/>
	</g>
</g>
</svg>
