<?xml version="1.0" encoding="utf-8"?>
<!-- Generator: Adobe Illustrator 15.1.0, SVG Export Plug-In . SVG Version: 6.00 Build 0)  -->
<!DOCTYPE svg PUBLIC "-//W3C//DTD SVG 1.1//EN" "http://www.w3.org/Graphics/SVG/1.1/DTD/svg11.dtd">
<svg version="1.1" id="Layer_2" xmlns="http://www.w3.org/2000/svg" xmlns:xlink="http://www.w3.org/1999/xlink" x="0px" y="0px"
	 width="283.46px" height="283.46px" viewBox="0 0 283.46 283.46" enable-background="new 0 0 283.46 283.46" xml:space="preserve">
<g>
	<path fill="#231F20" d="M141.73,111.563c-16.634,0-30.166,13.532-30.166,30.167s13.532,30.166,30.166,30.166
		s30.165-13.532,30.165-30.166S158.364,111.563,141.73,111.563z M141.73,161.896c-11.12,0-20.166-9.047-20.166-20.166
		c0-11.12,9.046-20.167,20.166-20.167c11.119,0,20.165,9.047,20.165,20.167C161.895,152.849,152.849,161.896,141.73,161.896z"/>
	<path fill="#231F20" d="M266.914,132.156h-76.738c-4.459-22.677-24.48-39.84-48.445-39.84c-23.964,0-43.989,17.161-48.448,39.84
		H16.548c-5.218,0-9.464,4.294-9.464,9.573c0,5.278,4.246,9.573,9.464,9.573h76.744c4.482,22.648,24.494,39.779,48.438,39.779
		c23.945,0,43.955-17.131,48.438-39.779h76.746c5.217,0,9.463-4.295,9.463-9.573C276.375,136.451,272.13,132.156,266.914,132.156z
		 M141.73,181.082c-21.715,0-39.382-17.666-39.382-39.381c0-21.717,17.667-39.384,39.382-39.384s39.381,17.667,39.381,39.384
		C181.111,163.416,163.445,181.082,141.73,181.082z"/>
</g>
</svg>
