<?xml version="1.0" encoding="utf-8"?>
<!-- Generator: Adobe Illustrator 15.1.0, SVG Export Plug-In . SVG Version: 6.00 Build 0)  -->
<!DOCTYPE svg PUBLIC "-//W3C//DTD SVG 1.1//EN" "http://www.w3.org/Graphics/SVG/1.1/DTD/svg11.dtd">
<svg version="1.1" id="Layer_1" xmlns="http://www.w3.org/2000/svg" xmlns:xlink="http://www.w3.org/1999/xlink" x="0px" y="0px"
	 width="283.46px" height="283.46px" viewBox="0 0 283.46 283.46" enable-background="new 0 0 283.46 283.46" xml:space="preserve">
<g>
	<g>
		<path d="M276.373,117.004c0-3.702-1.975-7.123-5.182-8.974c-1.604-0.925-3.393-1.388-5.182-1.388s-3.578,0.462-5.182,1.388
			l-116.271,67.13c-1.104,0.637-2.047,1.469-2.828,2.426c-0.781-0.957-1.725-1.789-2.828-2.426L22.63,108.03
			c-1.603-0.925-3.392-1.388-5.181-1.388c-1.79,0-3.579,0.462-5.182,1.388c-3.206,1.851-5.181,5.272-5.181,8.975L7.084,251.266
			c0,3.702,1.975,7.123,5.182,8.976c1.603,0.924,3.392,1.387,5.181,1.387c1.789,0,3.578-0.463,5.181-1.387l116.273-67.132
			c1.103-0.637,2.047-1.469,2.828-2.425c0.781,0.956,1.726,1.788,2.828,2.425l116.274,67.132c1.604,0.924,3.394,1.387,5.183,1.387
			s3.577-0.463,5.182-1.387c3.205-1.853,5.181-5.272,5.181-8.976L276.373,117.004z M17.447,251.266l0.001-134.261l116.271,67.129
			L17.447,251.266z"/>
	</g>
</g>
<g>
	<path d="M135.157,123.963V16.832h47.5c9.549,0,16.81,0.962,21.778,2.887c4.97,1.925,8.939,5.323,11.911,10.194
		c2.972,4.872,4.458,10.255,4.458,16.15c0,7.6-2.461,14.007-7.381,19.219c-4.921,5.213-12.521,8.526-22.801,9.938
		c3.752,1.803,6.602,3.581,8.551,5.335c4.141,3.8,8.063,8.55,11.765,14.25l18.636,29.158h-17.831l-14.178-22.289
		c-4.142-6.431-7.552-11.351-10.231-14.762c-2.679-3.41-5.077-5.797-7.197-7.162c-2.119-1.363-4.274-2.313-6.467-2.85
		c-1.608-0.34-4.239-0.511-7.893-0.511h-16.443v47.573H135.157z M149.333,64.113h30.474c6.479,0,11.547-0.669,15.2-2.01
		c3.654-1.339,6.431-3.483,8.331-6.431c1.9-2.947,2.851-6.15,2.851-9.61c0-5.066-1.84-9.231-5.518-12.496
		c-3.679-3.264-9.488-4.896-17.43-4.896h-33.908V64.113z"/>
</g>
</svg>
