<?xml version="1.0" encoding="utf-8"?>
<!-- Generator: Adobe Illustrator 15.1.0, SVG Export Plug-In . SVG Version: 6.00 Build 0)  -->
<!DOCTYPE svg PUBLIC "-//W3C//DTD SVG 1.0//EN" "http://www.w3.org/TR/2001/REC-SVG-20010904/DTD/svg10.dtd">
<svg version="1.0" id="Layer_2" xmlns="http://www.w3.org/2000/svg" xmlns:xlink="http://www.w3.org/1999/xlink" x="0px" y="0px"
	 width="283.46px" height="283.46px" viewBox="0 0 283.46 283.46" enable-background="new 0 0 283.46 283.46" xml:space="preserve">
<g>
	<path fill="none" d="M141.73,86.633c-37.588,0-68.106,30.516-68.106,68.104c0,37.589,30.517,68.106,68.106,68.106
		c37.592,0,68.108-30.518,68.108-68.106C209.838,117.149,179.322,86.633,141.73,86.633z M141.73,203.605
		c-26.971,0-48.867-21.896-48.867-48.867s21.896-48.866,48.867-48.866c26.97,0,48.865,21.896,48.865,48.866
		S168.702,203.605,141.73,203.605z"/>
	<path d="M109.027,43.522c11.817,0,53.589,0,65.405,0c1.732,0,3.136-1.404,3.136-3.136V22.682h-23.087
		c0.169-0.835,0.26-1.703,0.26-2.589c0-7.18-5.831-13.008-13.011-13.008c-7.181,0-13.008,5.828-13.008,13.008
		c0,0.887,0.087,1.753,0.256,2.589h-23.084c0,0,0,11.886,0,17.705C105.895,42.119,107.298,43.522,109.027,43.522z M141.73,13.59
		c3.592,0,6.503,2.915,6.503,6.503c0,3.592-2.912,6.504-6.503,6.504c-3.589,0-6.505-2.912-6.505-6.504
		C135.226,16.504,138.141,13.59,141.73,13.59z"/>
	<path d="M224.035,36.366c-2.091-2.09-4.926-3.263-7.881-3.263h-33.172v10.419c0,2.99-2.427,5.414-5.416,5.414h-71.672
		c-2.993,0-5.417-2.425-5.417-5.414V33.104h-33.17c-2.955,0-5.788,1.172-7.877,3.263c-2.09,2.089-3.265,4.925-3.265,7.88
		c0,40.604,0,180.38,0,220.984c0,2.957,1.175,5.792,3.265,7.881c2.09,2.091,4.923,3.265,7.877,3.265c30.979,0,117.872,0,148.847,0
		c2.955,0,5.79-1.174,7.882-3.265c2.09-2.09,3.263-4.925,3.263-7.881c0-40.604,0-180.381,0-220.984
		C227.296,41.292,226.125,38.456,224.035,36.366z M141.73,222.846c-37.588,0-68.106-30.516-68.106-68.108
		c0-37.586,30.517-68.103,68.106-68.103c37.592,0,68.108,30.517,68.108,68.103C209.838,192.331,179.322,222.846,141.73,222.846z"/>
	<path d="M141.73,105.872c-26.971,0-48.867,21.896-48.867,48.866s21.896,48.867,48.867,48.867c26.97,0,48.865-21.896,48.865-48.867
		S168.702,105.872,141.73,105.872z M179.093,132.104c0.53,0.532,0.53,1.393,0,1.926c-6.465,6.463-43.492,43.493-50.078,50.079
		c-0.265,0.266-0.626,0.414-1.002,0.414c-0.375,0-0.734-0.148-1-0.414c-3.989-3.992-18.724-18.724-22.641-22.644
		c-0.533-0.531-0.533-1.394,0-1.925c1.669-1.67,5.079-5.081,6.748-6.749c0.533-0.533,1.395-0.533,1.925,0
		c2.841,2.84,11.167,11.164,14.006,14.006c0.533,0.532,1.394,0.532,1.926,0c5.766-5.766,35.675-35.677,41.442-41.441
		c0.533-0.532,1.393-0.532,1.925,0C174.011,127.023,177.421,130.436,179.093,132.104z"/>
	<circle fill="#FFFFFF" cx="141.73" cy="20.093" r="6.503"/>
</g>
</svg>
