<?xml version="1.0" encoding="utf-8"?>
<!-- Generator: Adobe Illustrator 15.1.0, SVG Export Plug-In . SVG Version: 6.00 Build 0)  -->
<!DOCTYPE svg PUBLIC "-//W3C//DTD SVG 1.1//EN" "http://www.w3.org/Graphics/SVG/1.1/DTD/svg11.dtd">
<svg version="1.1" id="Layer_1" xmlns="http://www.w3.org/2000/svg" xmlns:xlink="http://www.w3.org/1999/xlink" x="0px" y="0px"
	 width="283.46px" height="283.46px" viewBox="0 0 283.46 283.46" enable-background="new 0 0 283.46 283.46" xml:space="preserve">
<g>
	<path fill="none" d="M250.375,141.73c0-29.021-11.301-56.305-31.82-76.825c-20.52-20.521-47.803-31.821-76.824-31.821
		c-29.021,0-56.304,11.301-76.825,31.821c-20.52,20.521-31.821,47.804-31.821,76.825c0,29.021,11.301,56.305,31.821,76.824
		c20.52,20.52,47.804,31.82,76.825,31.82c29.022,0,56.306-11.3,76.825-31.819S250.375,170.752,250.375,141.73z M196.875,212.027
		h-18.606v-66.269h-73.077v66.269H86.586V71.434h18.605v57.732h73.077V71.434h18.606V212.027z"/>
	<path d="M276.166,149.196c-0.053,0.955-0.109,1.908-0.182,2.857C276.056,151.103,276.114,150.15,276.166,149.196z"/>
	<path d="M134.857,7.257c0.9-0.045,1.804-0.075,2.708-0.103C136.661,7.182,135.758,7.212,134.857,7.257z"/>
	<path d="M141.73,7.084c1.148,0,2.293,0.015,3.435,0.043C144.022,7.099,142.877,7.084,141.73,7.084z"/>
	<path d="M7.154,137.565c0.027-0.905,0.058-1.808,0.103-2.708C7.212,135.758,7.182,136.662,7.154,137.565z"/>
	<path d="M145.897,7.154c0.903,0.027,1.807,0.058,2.706,0.103C147.703,7.212,146.8,7.182,145.897,7.154z"/>
	<path d="M232.329,42.124c0.767,0.697,1.524,1.403,2.274,2.118C233.852,43.525,233.093,42.821,232.329,42.124z"/>
	<path d="M152.342,7.499c30.671,2.392,58.458,15.057,79.918,34.562C210.047,21.839,182.174,9.81,152.342,7.499z"/>
	<path d="M149.214,7.294c0.948,0.052,1.896,0.108,2.84,0.18C151.11,7.403,150.163,7.346,149.214,7.294z"/>
	<path d="M7.294,134.249c0.052-0.95,0.109-1.899,0.18-2.843C7.403,132.352,7.346,133.3,7.294,134.249z"/>
	<path d="M7.499,131.123c2.391-30.67,15.054-58.457,34.557-79.918C21.836,73.418,9.808,101.292,7.499,131.123z"/>
	<path d="M42.259,50.986c0.653-0.715,1.311-1.425,1.979-2.125C43.569,49.562,42.912,50.272,42.259,50.986z"/>
	<path d="M131.403,7.475c0.948-0.072,1.899-0.128,2.852-0.181C133.303,7.346,132.352,7.403,131.403,7.475z"/>
	<path d="M239.216,48.855c20.741,21.764,34.266,50.466,36.744,82.268C273.569,100.23,260.756,71.437,239.216,48.855z"/>
	<path d="M51.202,42.058c21.466-19.508,49.261-32.175,79.94-34.561C101.302,9.803,73.421,21.833,51.202,42.058z"/>
	<path d="M48.859,44.239c0.726-0.692,1.461-1.375,2.202-2.05C50.321,42.865,49.586,43.546,48.859,44.239z"/>
	<path d="M138.295,7.127c1.142-0.028,2.286-0.043,3.435-0.043C140.583,7.084,139.438,7.099,138.295,7.127z"/>
	<path d="M234.597,239.224c-0.671,0.64-1.351,1.269-2.034,1.895C233.245,240.494,233.925,239.865,234.597,239.224z"/>
	<path d="M232.251,241.407c-21.454,19.496-49.23,32.156-79.891,34.551C182.182,273.644,210.045,261.618,232.251,241.407z"/>
	<path d="M148.602,276.202c-0.888,0.044-1.779,0.074-2.671,0.102C146.823,276.276,147.713,276.246,148.602,276.202z"/>
	<path d="M152.051,275.984c-0.941,0.072-1.887,0.128-2.833,0.18C150.165,276.113,151.109,276.055,152.051,275.984z"/>
	<path d="M46.4,236.815c0.041,0.041,0.08,0.083,0.121,0.124c0.038,0.038,0.077,0.074,0.115,0.112
		C46.557,236.973,46.479,236.894,46.4,236.815z"/>
	<path d="M237.07,46.655c-0.044-0.044-0.087-0.089-0.131-0.134c-0.039-0.039-0.079-0.076-0.118-0.115
		C236.904,46.489,236.987,46.572,237.07,46.655z"/>
	<path d="M276.375,141.73c0,1.147-0.015,2.291-0.043,3.432C276.36,144.02,276.375,142.876,276.375,141.73z"/>
	<path d="M275.984,131.406c0.072,0.952,0.13,1.908,0.182,2.865C276.114,133.314,276.056,132.359,275.984,131.406z"/>
	<path d="M276.332,138.298c0.028,1.141,0.043,2.285,0.043,3.432C276.375,140.583,276.36,139.439,276.332,138.298z"/>
	<path d="M276.202,134.854c0.045,0.893,0.074,1.79,0.102,2.687C276.276,136.645,276.246,135.749,276.202,134.854z"/>
	<path d="M241.312,232.354c-0.688,0.757-1.386,1.507-2.092,2.247C239.928,233.86,240.624,233.109,241.312,232.354z"/>
	<path d="M276.303,145.922c-0.027,0.896-0.057,1.791-0.102,2.683C276.246,147.712,276.276,146.818,276.303,145.922z"/>
	<path d="M275.959,152.345c-2.393,30.67-15.057,58.455-34.56,79.915C261.62,210.048,273.648,182.176,275.959,152.345z"/>
	<path d="M141.73,276.375c-1.147,0-2.292-0.015-3.432-0.043C139.439,276.36,140.583,276.375,141.73,276.375z"/>
	<path d="M7.084,141.73c0-1.148,0.015-2.293,0.043-3.435C7.099,139.438,7.084,140.583,7.084,141.73z"/>
	<path d="M137.531,276.303c-0.893-0.027-1.786-0.057-2.674-0.102C135.747,276.246,136.639,276.276,137.531,276.303z"/>
	<path d="M145.162,276.332c-1.141,0.028-2.284,0.043-3.432,0.043C142.876,276.375,144.02,276.36,145.162,276.332z"/>
	<path d="M134.245,276.165c-0.948-0.053-1.894-0.108-2.836-0.181C132.352,276.055,133.298,276.113,134.245,276.165z"/>
	<path d="M131.104,275.958c-30.663-2.395-58.442-15.057-79.899-34.555C73.414,261.618,101.279,273.645,131.104,275.958z"/>
	<path d="M44.243,234.605c-20.744-21.768-34.27-50.474-36.745-82.282C9.886,183.221,22.699,212.02,44.243,234.605z"/>
	<path d="M50.995,241.208c-0.719-0.655-1.432-1.317-2.136-1.988C49.564,239.893,50.278,240.553,50.995,241.208z"/>
	<path d="M7.257,148.603c-0.045-0.899-0.075-1.803-0.103-2.706C7.182,146.8,7.212,147.703,7.257,148.603z"/>
	<path d="M7.127,145.165c-0.028-1.142-0.043-2.286-0.043-3.435C7.084,142.877,7.099,144.022,7.127,145.165z"/>
	<path d="M7.475,152.056c-0.072-0.945-0.128-1.896-0.181-2.848C7.346,150.16,7.403,151.109,7.475,152.056z"/>
	<polygon points="178.268,129.167 105.191,129.167 105.191,71.434 86.586,71.434 86.586,212.027 105.191,212.027 105.191,145.758 
		178.268,145.758 178.268,212.027 196.875,212.027 196.875,71.434 178.268,71.434 	"/>
	<path fill="#231F20" d="M148.602,276.202c0.206-0.011,0.411-0.026,0.616-0.038c0.946-0.052,1.892-0.107,2.833-0.18
		c0.104-0.008,0.206-0.018,0.31-0.026c30.66-2.395,58.437-15.055,79.891-34.551c0.105-0.095,0.207-0.193,0.312-0.288
		c0.684-0.626,1.363-1.255,2.034-1.895c1.578-1.503,3.119-3.045,4.623-4.623c0.706-0.74,1.403-1.49,2.092-2.247
		c0.029-0.031,0.059-0.063,0.088-0.094c19.503-21.46,32.167-49.245,34.56-79.915c0.008-0.098,0.018-0.194,0.024-0.292
		c0.072-0.949,0.129-1.902,0.182-2.857c0.011-0.197,0.026-0.394,0.036-0.591c0.045-0.892,0.074-1.787,0.102-2.683
		c0.008-0.254,0.021-0.506,0.028-0.761c0.028-1.141,0.043-2.284,0.043-3.432s-0.015-2.292-0.043-3.432
		c-0.007-0.253-0.021-0.504-0.028-0.756c-0.027-0.897-0.057-1.794-0.102-2.687c-0.01-0.195-0.025-0.389-0.036-0.583
		c-0.052-0.957-0.109-1.913-0.182-2.865c-0.007-0.095-0.017-0.188-0.023-0.283c-2.479-31.802-16.003-60.503-36.744-82.268
		c-0.706-0.742-1.423-1.475-2.146-2.2c-0.083-0.083-0.166-0.166-0.249-0.249c-0.731-0.729-1.47-1.452-2.218-2.164
		c-0.75-0.715-1.508-1.42-2.274-2.118c-0.023-0.021-0.045-0.042-0.068-0.063c-21.46-19.505-49.247-32.17-79.918-34.562
		c-0.097-0.007-0.192-0.017-0.288-0.025c-0.943-0.071-1.892-0.128-2.84-0.18c-0.204-0.011-0.407-0.027-0.611-0.038
		c-0.899-0.045-1.803-0.075-2.706-0.103c-0.245-0.007-0.487-0.021-0.732-0.027c-1.142-0.028-2.286-0.043-3.435-0.043
		s-2.293,0.015-3.435,0.043c-0.244,0.006-0.486,0.02-0.73,0.027c-0.905,0.027-1.808,0.058-2.708,0.103
		c-0.201,0.01-0.401,0.026-0.602,0.037c-0.953,0.052-1.904,0.109-2.852,0.181c-0.087,0.006-0.174,0.016-0.261,0.022
		c-30.679,2.386-58.474,15.053-79.94,34.561c-0.047,0.043-0.093,0.088-0.141,0.131c-0.741,0.675-1.476,1.358-2.202,2.05
		c-1.577,1.503-3.118,3.044-4.621,4.621c-0.667,0.701-1.326,1.41-1.979,2.125c-0.067,0.073-0.136,0.145-0.204,0.219
		C22.553,72.666,9.889,100.453,7.499,131.123c-0.007,0.095-0.017,0.188-0.024,0.283c-0.071,0.944-0.128,1.894-0.18,2.843
		c-0.011,0.203-0.027,0.405-0.037,0.608c-0.045,0.9-0.075,1.803-0.103,2.708c-0.007,0.244-0.021,0.486-0.027,0.73
		c-0.028,1.142-0.043,2.286-0.043,3.435s0.015,2.293,0.043,3.435c0.006,0.245,0.02,0.487,0.027,0.732
		c0.027,0.903,0.058,1.807,0.103,2.706c0.01,0.202,0.026,0.403,0.037,0.605c0.052,0.951,0.109,1.902,0.181,2.848
		c0.007,0.09,0.016,0.178,0.023,0.267c2.475,31.809,16.001,60.515,36.745,82.282c0.71,0.745,1.43,1.481,2.157,2.21
		c0.079,0.079,0.157,0.158,0.236,0.236c0.733,0.731,1.473,1.455,2.223,2.169c0.704,0.671,1.417,1.333,2.136,1.988
		c0.07,0.064,0.139,0.131,0.209,0.195c21.457,19.498,49.236,32.16,79.899,34.555c0.102,0.008,0.203,0.019,0.305,0.025
		c0.942,0.072,1.889,0.128,2.836,0.181c0.204,0.011,0.408,0.026,0.612,0.037c0.888,0.045,1.781,0.074,2.674,0.102
		c0.256,0.008,0.51,0.021,0.767,0.028c1.141,0.028,2.285,0.043,3.432,0.043s2.291-0.015,3.432-0.043
		c0.258-0.007,0.513-0.021,0.77-0.028C146.823,276.276,147.714,276.246,148.602,276.202z M141.73,250.375
		c-29.021,0-56.305-11.301-76.825-31.82c-20.521-20.52-31.821-47.803-31.821-76.824c0-29.021,11.301-56.304,31.821-76.825
		c20.521-20.52,47.804-31.821,76.825-31.821c29.021,0,56.305,11.301,76.824,31.821c20.52,20.52,31.82,47.804,31.82,76.825
		c0,29.022-11.3,56.306-31.819,76.825S170.752,250.375,141.73,250.375z"/>
</g>
</svg>
