<?xml version="1.0" encoding="utf-8"?>
<!-- Generator: Adobe Illustrator 15.1.0, SVG Export Plug-In . SVG Version: 6.00 Build 0)  -->
<!DOCTYPE svg PUBLIC "-//W3C//DTD SVG 1.1//EN" "http://www.w3.org/Graphics/SVG/1.1/DTD/svg11.dtd">
<svg version="1.1" id="Layer_1" xmlns="http://www.w3.org/2000/svg" xmlns:xlink="http://www.w3.org/1999/xlink" x="0px" y="0px"
	 width="283.46px" height="283.46px" viewBox="0 0 283.46 283.46" enable-background="new 0 0 283.46 283.46" xml:space="preserve">
<g>
	<g>
		<path d="M276.373,117.004c0-3.702-1.975-7.123-5.182-8.974c-1.604-0.925-3.393-1.388-5.182-1.388s-3.578,0.462-5.182,1.388
			l-116.271,67.13c-1.104,0.637-2.047,1.469-2.828,2.426c-0.781-0.957-1.725-1.789-2.828-2.426L22.63,108.03
			c-1.603-0.925-3.392-1.388-5.181-1.388c-1.79,0-3.579,0.462-5.182,1.388c-3.206,1.851-5.181,5.272-5.181,8.975L7.084,251.266
			c0,3.702,1.975,7.123,5.182,8.976c1.603,0.924,3.392,1.387,5.181,1.387c1.789,0,3.578-0.463,5.181-1.387l116.273-67.132
			c1.103-0.637,2.047-1.469,2.828-2.425c0.781,0.956,1.726,1.788,2.828,2.425l116.274,67.132c1.604,0.924,3.394,1.387,5.183,1.387
			s3.577-0.463,5.182-1.387c3.205-1.853,5.181-5.272,5.181-8.976L276.373,117.004z M17.447,251.266l0.001-134.261l116.271,67.129
			L17.447,251.266z"/>
	</g>
</g>
<g>
</g>
<g>
	<path d="M130.249,123.963l41.146-107.131h15.274l43.846,107.131h-16.15l-12.496-32.446h-44.797l-11.766,32.446H130.249z
		 M161.164,79.971h36.32l-11.182-29.669c-3.411-9.012-5.945-16.417-7.601-22.215c-1.365,6.869-3.289,13.69-5.772,20.461
		L161.164,79.971z"/>
</g>
</svg>
