<?xml version="1.0" encoding="utf-8"?>
<!-- Generator: Adobe Illustrator 15.1.0, SVG Export Plug-In . SVG Version: 6.00 Build 0)  -->
<!DOCTYPE svg PUBLIC "-//W3C//DTD SVG 1.1//EN" "http://www.w3.org/Graphics/SVG/1.1/DTD/svg11.dtd">
<svg version="1.1" id="Layer_1" xmlns="http://www.w3.org/2000/svg" xmlns:xlink="http://www.w3.org/1999/xlink" x="0px" y="0px"
	 width="283.46px" height="283.46px" viewBox="0 0 283.46 283.46" enable-background="new 0 0 283.46 283.46" xml:space="preserve">
<g>
	<path fill="none" d="M244.566,54.817c0,0.001,0.001,0.002,0.002,0.003c-0.16-0.188-0.314-0.38-0.476-0.568
		C244.252,54.438,244.406,54.629,244.566,54.817z"/>
	<path fill="none" d="M141.73,33.084c-29.021,0-56.304,11.301-76.825,31.821c-20.52,20.521-31.821,47.804-31.821,76.825
		c0,28.854,11.175,55.988,31.472,76.467l153.642-153.64C197.718,44.259,170.584,33.084,141.73,33.084z"/>
	<path fill="#FFFFFF" d="M246.194,56.762c-0.324-0.398-0.66-0.79-0.99-1.185c0.021,0.024,0.04,0.049,0.061,0.074
		C245.574,56.022,245.889,56.389,246.194,56.762z"/>
	<path fill="#FFFFFF" d="M239.772,49.45c0.013,0.014,0.024,0.027,0.037,0.041c-0.049-0.052-0.097-0.105-0.146-0.157
		c0,0,0.001,0.001,0.001,0.001C239.701,49.374,239.736,49.412,239.772,49.45z"/>
	<path fill="#FFFFFF" d="M244.092,54.251c0.161,0.188,0.315,0.38,0.476,0.568c0.022,0.026,0.045,0.052,0.067,0.079
		c-0.377-0.445-0.757-0.888-1.141-1.33c0.026,0.031,0.053,0.063,0.079,0.093C243.746,53.859,243.922,54.053,244.092,54.251z"/>
	<path fill="#FFFFFF" d="M242.303,52.215c0.031,0.036,0.063,0.071,0.096,0.107c-0.251-0.282-0.501-0.563-0.755-0.843
		c0.014,0.014,0.026,0.029,0.039,0.043C241.891,51.753,242.097,51.984,242.303,52.215z"/>
	<path fill="#FFFFFF" d="M229.674,39.777c0.026,0.022,0.054,0.045,0.079,0.067c-0.415-0.36-0.832-0.715-1.25-1.069
		c0.027,0.023,0.055,0.047,0.082,0.07C228.95,39.154,229.313,39.464,229.674,39.777z"/>
	<path fill="#FFFFFF" d="M231.792,41.644c0.018,0.016,0.036,0.032,0.054,0.048c-0.225-0.204-0.452-0.403-0.679-0.604
		c0.059,0.052,0.116,0.103,0.174,0.155C231.492,41.376,231.643,41.509,231.792,41.644z"/>
	<path fill="#FFFFFF" d="M227.741,38.138c-0.351-0.292-0.698-0.592-1.052-0.88c0.336,0.274,0.665,0.558,0.999,0.836
		C227.706,38.108,227.723,38.123,227.741,38.138z"/>
	<path fill="#FFFFFF" d="M234.13,43.801c0.006,0.006,0.014,0.013,0.02,0.019c-0.111-0.105-0.224-0.208-0.336-0.313
		c0.043,0.04,0.086,0.079,0.128,0.119C234.004,43.685,234.068,43.742,234.13,43.801z"/>
	<path fill="none" stroke="#FFFFFF" stroke-width="0" stroke-linecap="round" stroke-linejoin="round" d="M46.506,46.537
		c0.005-0.005,0.011-0.011,0.015-0.016"/>
	<path fill="#231F20" d="M276.332,145.162c0.001-0.025,0-0.05,0.001-0.075c0.027-1.117,0.044-2.235,0.044-3.357
		c0-1.107-0.017-2.212-0.043-3.315c-0.001-0.039-0.001-0.078-0.002-0.116c-0.004-0.137-0.01-0.273-0.016-0.409
		c-0.025-0.927-0.061-1.852-0.104-2.774c-0.004-0.087-0.006-0.174-0.01-0.26c-0.008-0.153-0.019-0.306-0.028-0.459
		c-0.049-0.908-0.105-1.815-0.172-2.719c-0.007-0.09-0.011-0.181-0.018-0.271c-0.007-0.095-0.017-0.188-0.023-0.283
		c-0.001-0.017-0.003-0.033-0.004-0.049c-2.132-27.375-12.442-53.1-29.764-74.313c-0.303-0.371-0.616-0.735-0.923-1.103
		c-0.002-0.002-0.004-0.005-0.006-0.007c-0.021-0.024-0.04-0.049-0.061-0.074c-0.189-0.227-0.378-0.454-0.568-0.679
		c-0.022-0.026-0.045-0.052-0.067-0.079c-0.001-0.001-0.002-0.002-0.002-0.003c-0.16-0.188-0.313-0.378-0.474-0.565
		c-0.17-0.198-0.347-0.392-0.519-0.589c-0.026-0.031-0.053-0.062-0.079-0.093c-0.362-0.418-0.729-0.833-1.096-1.246
		c-0.032-0.036-0.064-0.072-0.096-0.107c-0.206-0.231-0.412-0.462-0.62-0.692c-0.013-0.015-0.025-0.029-0.039-0.043
		c-0.604-0.669-1.217-1.332-1.835-1.989c-0.013-0.014-0.024-0.027-0.037-0.041c-0.036-0.038-0.071-0.076-0.107-0.114
		c0,0-0.001-0.001-0.001-0.001c-0.15-0.159-0.297-0.321-0.447-0.479c-0.635-0.667-1.279-1.324-1.929-1.977l0.005-0.004l-0.707-0.707
		l-0.006,0.004c-0.653-0.649-1.31-1.294-1.977-1.929c-0.149-0.142-0.303-0.28-0.453-0.421c-0.006-0.006-0.014-0.013-0.02-0.019
		c-0.063-0.059-0.126-0.116-0.188-0.175c-0.042-0.04-0.085-0.079-0.128-0.119c-0.493-0.463-0.984-0.928-1.485-1.383
		c-0.023-0.021-0.045-0.042-0.068-0.063c-0.137-0.124-0.276-0.245-0.414-0.369c-0.018-0.016-0.036-0.032-0.054-0.048
		c-0.149-0.135-0.301-0.268-0.451-0.402c-0.058-0.052-0.115-0.103-0.174-0.155c-0.469-0.417-0.939-0.832-1.414-1.243
		c-0.025-0.022-0.053-0.045-0.079-0.067c-0.361-0.313-0.725-0.623-1.089-0.932c-0.027-0.023-0.055-0.047-0.082-0.07
		c-0.253-0.213-0.508-0.426-0.763-0.638c-0.018-0.015-0.035-0.029-0.053-0.044c-0.334-0.278-0.663-0.562-0.999-0.836
		c-20.468-16.708-45.138-26.893-71.436-29.5c-0.045-0.005-0.091-0.009-0.137-0.013c-0.864-0.085-1.729-0.162-2.597-0.23
		c-0.06-0.004-0.118-0.011-0.178-0.016c-0.097-0.007-0.192-0.017-0.288-0.025c-0.163-0.012-0.328-0.02-0.492-0.031
		c-0.738-0.053-1.479-0.099-2.219-0.14c-0.043-0.002-0.086-0.006-0.129-0.008c-0.204-0.011-0.407-0.027-0.611-0.038
		c-0.112-0.005-0.227-0.008-0.339-0.013c-0.782-0.037-1.565-0.065-2.351-0.089c-0.005,0-0.011,0-0.017,0
		c-0.245-0.007-0.487-0.021-0.732-0.027c-0.035-0.001-0.07,0-0.105-0.001c-0.03,0-0.061-0.002-0.091-0.003
		c-0.268-0.007-0.534-0.005-0.801-0.01c-0.812-0.015-1.623-0.029-2.437-0.029h0h0c-0.005,0-0.01,0-0.016,0
		c-0.693,0-1.385,0.015-2.076,0.025c-0.383,0.006-0.767,0.005-1.15,0.014c-0.03,0-0.061,0.002-0.091,0.003
		c-0.034,0.001-0.067,0-0.101,0.001c-0.244,0.006-0.486,0.02-0.73,0.027c-0.018,0-0.036,0.001-0.054,0.002
		c-0.788,0.024-1.575,0.052-2.36,0.089c-0.098,0.005-0.196,0.006-0.294,0.011c-0.201,0.01-0.401,0.026-0.602,0.037
		c-0.061,0.003-0.121,0.008-0.182,0.011c-0.75,0.042-1.5,0.089-2.248,0.143c-0.141,0.01-0.282,0.016-0.422,0.027
		c-0.087,0.006-0.174,0.016-0.261,0.022c-0.093,0.007-0.186,0.017-0.279,0.025c-0.807,0.064-1.612,0.135-2.416,0.213
		c-0.106,0.011-0.212,0.021-0.319,0.032c-25.955,2.588-50.315,12.564-70.617,28.902c-0.065,0.052-0.131,0.104-0.196,0.157
		c-0.55,0.444-1.096,0.893-1.64,1.346c-0.255,0.212-0.51,0.425-0.763,0.64c-0.206,0.174-0.415,0.344-0.62,0.52
		c-0.064,0.055-0.128,0.107-0.192,0.162c-0.168,0.145-0.333,0.294-0.5,0.44c-0.413,0.358-0.822,0.72-1.23,1.083
		c-0.143,0.127-0.288,0.251-0.431,0.379c-0.144,0.13-0.291,0.255-0.435,0.386c-0.059,0.053-0.117,0.109-0.175,0.163
		c-0.042,0.038-0.086,0.075-0.128,0.114c-0.047,0.043-0.093,0.088-0.141,0.131c-0.283,0.257-0.559,0.522-0.84,0.782
		c-0.241,0.225-0.485,0.445-0.725,0.672c-0.17,0.16-0.344,0.316-0.514,0.478c-0.027,0.026-0.054,0.054-0.082,0.08
		c-0.013,0.013-0.027,0.025-0.041,0.039c-0.613,0.584-1.215,1.179-1.817,1.774c-0.172,0.17-0.348,0.335-0.52,0.507
		c-0.005,0.005-0.009,0.01-0.014,0.015c0,0-0.001,0.001-0.002,0.002c-0.765,0.766-1.521,1.54-2.269,2.324
		c-0.021,0.021-0.041,0.044-0.061,0.065c-0.017,0.018-0.035,0.035-0.052,0.053c-0.174,0.183-0.342,0.37-0.515,0.554
		c-0.15,0.159-0.296,0.321-0.445,0.48c-0.301,0.325-0.606,0.646-0.905,0.973c-0.067,0.073-0.136,0.145-0.204,0.219
		c-0.042,0.047-0.083,0.095-0.126,0.142c-0.047,0.052-0.097,0.103-0.144,0.155c-0.143,0.157-0.281,0.319-0.422,0.478
		c-0.057,0.063-0.112,0.128-0.168,0.191c-0.425,0.477-0.849,0.954-1.267,1.437c-0.143,0.164-0.289,0.324-0.43,0.488
		c-0.068,0.079-0.133,0.159-0.201,0.238c-0.178,0.208-0.349,0.418-0.525,0.627c-0.189,0.225-0.378,0.45-0.567,0.676
		c-0.469,0.563-0.934,1.128-1.394,1.698c-0.039,0.049-0.079,0.098-0.118,0.146c-15.743,19.55-25.583,42.868-28.605,67.75
		c-0.016,0.132-0.031,0.264-0.047,0.396c-0.089,0.753-0.172,1.507-0.249,2.264c-0.026,0.255-0.051,0.511-0.076,0.768
		c-0.062,0.64-0.118,1.28-0.17,1.921c-0.015,0.182-0.034,0.362-0.048,0.544c-0.007,0.095-0.017,0.188-0.024,0.283
		c-0.014,0.18-0.021,0.361-0.034,0.541c-0.04,0.56-0.073,1.121-0.106,1.682c-0.012,0.207-0.028,0.413-0.04,0.621
		c-0.011,0.203-0.027,0.405-0.037,0.608c-0.005,0.097-0.006,0.195-0.011,0.292c-0.001,0.026-0.003,0.053-0.004,0.079
		c-0.02,0.417-0.03,0.836-0.046,1.254c-0.003,0.078-0.005,0.156-0.008,0.234c-0.01,0.283-0.024,0.565-0.032,0.848
		c-0.007,0.244-0.021,0.486-0.027,0.73c-0.001,0.033,0,0.067-0.001,0.1c0,0.011,0,0.022-0.001,0.033
		c-0.011,0.481-0.011,0.964-0.018,1.446c-0.008,0.618-0.023,1.235-0.023,1.855c0,0.638,0.015,1.272,0.024,1.908
		c0.007,0.463,0.006,0.928,0.017,1.39c0,0.01,0.001,0.021,0.001,0.03c0.001,0.035,0,0.071,0.001,0.106
		c0.006,0.245,0.02,0.487,0.027,0.732c0.011,0.351,0.028,0.7,0.04,1.051c0.002,0.057,0.004,0.112,0.006,0.169
		c0.014,0.369,0.023,0.74,0.041,1.109c0,0.016,0.002,0.03,0.003,0.046c0.005,0.11,0.007,0.221,0.013,0.331
		c0.01,0.202,0.026,0.403,0.037,0.605c0.052,0.951,0.109,1.902,0.181,2.848c0.007,0.09,0.016,0.178,0.023,0.267
		c0.021,0.278,0.051,0.554,0.074,0.832c0.029,0.349,0.062,0.697,0.093,1.046c0.133,1.449,0.284,2.895,0.463,4.33
		c0.054,0.441,0.117,0.881,0.176,1.321c0.157,1.171,0.328,2.338,0.516,3.499c0.119,0.739,0.247,1.476,0.378,2.212
		c0.151,0.845,0.309,1.686,0.475,2.524c0.226,1.146,0.471,2.285,0.726,3.422c0.122,0.541,0.244,1.081,0.372,1.619
		c3.93,16.523,10.958,32.103,20.799,46.039c0.609,0.865,1.227,1.723,1.855,2.572c0.379,0.511,0.764,1.019,1.151,1.524
		c0.786,1.032,1.584,2.054,2.399,3.062c0.093,0.115,0.18,0.234,0.273,0.35c0.012,0.015,0.023,0.029,0.035,0.045
		c0.294,0.36,0.598,0.714,0.897,1.072c0.239,0.287,0.479,0.574,0.72,0.859c0.104,0.123,0.205,0.248,0.31,0.371
		c0.101,0.118,0.198,0.238,0.3,0.355c0.165,0.191,0.335,0.38,0.502,0.57c0.36,0.415,0.725,0.827,1.09,1.238
		c0.042,0.047,0.083,0.096,0.126,0.143c0.191,0.215,0.377,0.432,0.569,0.645c0.096,0.105,0.195,0.209,0.291,0.313
		c0.529,0.581,1.064,1.156,1.603,1.728c0.148,0.161,0.295,0.322,0.446,0.48c0.019,0.02,0.038,0.038,0.057,0.058
		c0.016,0.018,0.032,0.035,0.048,0.052c0.71,0.745,1.43,1.481,2.157,2.21c0.001,0.001,0.002,0.002,0.003,0.003
		c0.04,0.04,0.078,0.081,0.118,0.121c0.228,0.229,0.462,0.449,0.691,0.675c0.271,0.268,0.545,0.53,0.817,0.797
		c0.277,0.27,0.55,0.543,0.83,0.81c0.005,0.005,0.011,0.011,0.017,0.016c0.03,0.029,0.06,0.059,0.09,0.088
		c0.258,0.246,0.523,0.484,0.783,0.729c0.292,0.273,0.585,0.542,0.877,0.813c0.124,0.113,0.245,0.229,0.369,0.343
		c0.07,0.064,0.139,0.131,0.209,0.195c0.024,0.022,0.05,0.044,0.074,0.066c0.07,0.063,0.139,0.13,0.209,0.193
		c0.201,0.183,0.405,0.357,0.607,0.537c0.142,0.127,0.287,0.251,0.429,0.378c0.314,0.278,0.627,0.558,0.944,0.833
		c0.205,0.18,0.407,0.363,0.614,0.541c0.108,0.092,0.218,0.183,0.327,0.273c0.185,0.158,0.374,0.312,0.56,0.469
		c0.231,0.194,0.463,0.389,0.695,0.582c0.36,0.301,0.717,0.607,1.08,0.904c0.002,0.002,0.004,0.004,0.007,0.006
		c20.479,16.724,45.167,26.915,71.484,29.517c0.002,0,0.005,0.001,0.008,0.001c0.904,0.089,1.809,0.17,2.717,0.241
		c0.048,0.004,0.096,0.009,0.144,0.013c0.102,0.008,0.203,0.019,0.305,0.025c0.133,0.01,0.267,0.016,0.4,0.025
		c0.766,0.056,1.532,0.104,2.3,0.146c0.045,0.003,0.091,0.006,0.136,0.009c0.204,0.011,0.408,0.026,0.612,0.037
		c0.104,0.005,0.21,0.007,0.315,0.012c0.792,0.038,1.586,0.066,2.381,0.091c0.249,0.008,0.496,0.021,0.744,0.027
		c0.038,0.001,0.076,0,0.113,0.001c0.024,0.001,0.049,0.002,0.074,0.003c0.383,0.01,0.767,0.009,1.15,0.015
		c0.698,0.011,1.394,0.026,2.093,0.026c0.708-0.002,1.413-0.017,2.119-0.027c0.374-0.005,0.749-0.004,1.122-0.014
		c0.023-0.001,0.046-0.002,0.069-0.002c0.041-0.001,0.082-0.001,0.123-0.002c0.258-0.007,0.513-0.021,0.77-0.028
		c0.046-0.001,0.092-0.004,0.138-0.005c0.746-0.023,1.491-0.05,2.235-0.085c0.1-0.005,0.199-0.007,0.298-0.012
		c0.206-0.011,0.411-0.026,0.616-0.038c0.05-0.003,0.1-0.007,0.149-0.01c0.766-0.042,1.53-0.09,2.294-0.146
		c0.13-0.009,0.26-0.015,0.39-0.024c0.104-0.008,0.206-0.018,0.31-0.026c0.072-0.006,0.145-0.014,0.217-0.02
		c0.847-0.066,1.692-0.142,2.536-0.225c0.067-0.007,0.135-0.014,0.202-0.021c25.887-2.578,50.187-12.506,70.458-28.766
		c0.165-0.133,0.331-0.265,0.497-0.398c0.452-0.367,0.903-0.737,1.353-1.11c0.354-0.293,0.705-0.588,1.056-0.885
		c0.152-0.129,0.307-0.255,0.459-0.385c0.072-0.063,0.148-0.124,0.222-0.188c0.122-0.105,0.242-0.215,0.364-0.32
		c0.558-0.482,1.11-0.97,1.659-1.461c0.039-0.034,0.078-0.067,0.116-0.102c0.149-0.136,0.304-0.268,0.455-0.402
		c0.039-0.035,0.076-0.071,0.114-0.106c0.061-0.055,0.122-0.107,0.183-0.162c0.105-0.095,0.207-0.193,0.312-0.288
		c0.684-0.626,1.363-1.255,2.034-1.895c0.683-0.649,1.354-1.311,2.022-1.975c0.1-0.099,0.202-0.193,0.302-0.293
		c0.006-0.006,0.012-0.012,0.018-0.018v-0.001c0.77-0.77,1.53-1.549,2.281-2.337c0.02-0.021,0.039-0.042,0.059-0.063
		c0.02-0.02,0.039-0.039,0.059-0.06c0.16-0.167,0.313-0.339,0.472-0.506c0.242-0.258,0.479-0.519,0.72-0.777
		c0.26-0.281,0.525-0.558,0.783-0.841c0.029-0.031,0.059-0.063,0.088-0.094c0.04-0.044,0.078-0.089,0.117-0.132
		c0.054-0.06,0.109-0.117,0.163-0.176c0.123-0.138,0.241-0.277,0.364-0.414c0.052-0.058,0.102-0.116,0.153-0.174
		c0.47-0.526,0.937-1.055,1.398-1.589c0.122-0.141,0.249-0.278,0.37-0.42c0.051-0.058,0.1-0.117,0.148-0.175
		c0.157-0.184,0.31-0.371,0.466-0.556c0.262-0.311,0.522-0.621,0.782-0.934c0.415-0.498,0.826-0.999,1.234-1.503
		c0.086-0.107,0.171-0.215,0.258-0.322c16.904-21.038,26.984-46.425,29.096-73.427c0.003-0.032,0.006-0.063,0.009-0.095
		c0.008-0.098,0.018-0.194,0.024-0.292c0.006-0.072,0.009-0.146,0.014-0.219c0.066-0.899,0.123-1.802,0.172-2.705
		c0.011-0.175,0.023-0.35,0.032-0.524c0.003-0.063,0.004-0.125,0.007-0.188c0.047-0.964,0.083-1.93,0.109-2.896
		C276.323,145.401,276.329,145.282,276.332,145.162z M33.084,141.73c0-29.021,11.301-56.304,31.821-76.825
		c20.521-20.52,47.804-31.821,76.825-31.821c28.854,0,55.988,11.175,76.468,31.473L64.556,218.197
		C44.259,197.718,33.084,170.584,33.084,141.73z"/>
</g>
</svg>
