<?xml version="1.0" encoding="utf-8"?>
<!-- Generator: Adobe Illustrator 15.1.0, SVG Export Plug-In . SVG Version: 6.00 Build 0)  -->
<!DOCTYPE svg PUBLIC "-//W3C//DTD SVG 1.1//EN" "http://www.w3.org/Graphics/SVG/1.1/DTD/svg11.dtd">
<svg version="1.1" id="Layer_2" xmlns="http://www.w3.org/2000/svg" xmlns:xlink="http://www.w3.org/1999/xlink" x="0px" y="0px"
	 width="283.46px" height="283.46px" viewBox="0 0 283.46 283.46" enable-background="new 0 0 283.46 283.46" xml:space="preserve">
<g>
	<path d="M266.915,171.898h-40.684H95.396c6.461-8.34,10.316-18.801,10.316-30.168c0-27.235-22.076-49.314-49.313-49.314
		c-27.236,0-49.314,22.079-49.314,49.314c0,11.367,3.856,21.828,10.317,30.168h-0.854c-5.218,0-9.464,4.295-9.464,9.573
		s4.246,9.573,9.464,9.573h39.851h9.832h20h140h40.682c5.217,0,9.463-4.295,9.463-9.573
		C276.375,176.194,272.131,171.898,266.915,171.898z M81.166,160.875c-5.992,7.734-15.019,12.17-24.767,12.17
		s-18.776-4.436-24.768-12.17c-4.283-5.528-6.547-12.148-6.547-19.145c0-17.267,14.047-31.314,31.314-31.314
		c17.266,0,31.313,14.048,31.313,31.314C87.712,148.726,85.448,155.346,81.166,160.875z"/>
</g>
</svg>
