<?xml version="1.0" encoding="utf-8"?>
<!-- Generator: Adobe Illustrator 15.1.0, SVG Export Plug-In . SVG Version: 6.00 Build 0)  -->
<!DOCTYPE svg PUBLIC "-//W3C//DTD SVG 1.1//EN" "http://www.w3.org/Graphics/SVG/1.1/DTD/svg11.dtd">
<svg version="1.1" id="Layer_3" xmlns="http://www.w3.org/2000/svg" xmlns:xlink="http://www.w3.org/1999/xlink" x="0px" y="0px"
	 width="283.46px" height="283.46px" viewBox="0 0 283.46 283.46" enable-background="new 0 0 283.46 283.46" xml:space="preserve">
<g>
	<path d="M266.915,171.898h-40.684h-45.503c6.461-8.34,10.315-18.801,10.315-30.168c0-27.235-22.076-49.314-49.313-49.314
		c-27.235,0-49.314,22.079-49.314,49.314c0,11.367,3.856,21.828,10.317,30.168H86.231h-20H16.549c-5.218,0-9.464,4.295-9.464,9.573
		s4.246,9.573,9.464,9.573h49.682h20h55.501h84.499h40.682c5.217,0,9.463-4.295,9.463-9.573S272.131,171.898,266.915,171.898z
		 M141.732,173.044c-17.267,0-31.314-14.047-31.314-31.314c0-17.267,14.047-31.314,31.314-31.314
		c17.267,0,31.313,14.047,31.313,31.314C173.043,158.998,158.999,173.044,141.732,173.044z"/>
</g>
</svg>
