<?xml version="1.0" encoding="utf-8"?>
<!-- Generator: Adobe Illustrator 15.1.0, SVG Export Plug-In . SVG Version: 6.00 Build 0)  -->
<!DOCTYPE svg PUBLIC "-//W3C//DTD SVG 1.1//EN" "http://www.w3.org/Graphics/SVG/1.1/DTD/svg11.dtd">
<svg version="1.1" id="Layer_1" xmlns="http://www.w3.org/2000/svg" xmlns:xlink="http://www.w3.org/1999/xlink" x="0px" y="0px"
	 width="283.46px" height="283.46px" viewBox="0 0 283.46 283.46" enable-background="new 0 0 283.46 283.46" xml:space="preserve">
<g>
	<path fill="none" d="M170.679,90.233L170.679,90.233l-98.49-0.001c-28.439,0-51.496,23.056-51.496,51.496
		c0,28.441,23.057,51.498,51.496,51.498h7.677h1.777L184.636,90.233H170.679z"/>
	<path d="M211.271,76.624h-7.677h-32.916h-98.49c-35.899,0-65.104,29.206-65.104,65.104c0,35.9,29.205,65.107,65.104,65.107h7.677
		h32.916h98.49c35.899,0,65.104-29.206,65.104-65.105S247.171,76.624,211.271,76.624z M79.865,193.227h-7.677
		c-28.439,0-51.496-23.057-51.496-51.498c0-28.44,23.057-51.496,51.496-51.496h98.49v0.001h13.957L81.643,193.227H79.865z"/>
</g>
</svg>
