<?xml version="1.0" encoding="utf-8"?>
<!-- Generator: Adobe Illustrator 15.1.0, SVG Export Plug-In . SVG Version: 6.00 Build 0)  -->
<!DOCTYPE svg PUBLIC "-//W3C//DTD SVG 1.1//EN" "http://www.w3.org/Graphics/SVG/1.1/DTD/svg11.dtd">
<svg version="1.1" id="Layer_2" xmlns="http://www.w3.org/2000/svg" xmlns:xlink="http://www.w3.org/1999/xlink" x="0px" y="0px"
	 width="283.46px" height="283.46px" viewBox="0 0 283.46 283.46" enable-background="new 0 0 283.46 283.46" xml:space="preserve">
<g>
	<path fill="none" d="M250.374,141.683c-0.012-29.003-11.311-56.269-31.819-76.778c-20.509-20.509-47.773-31.809-76.777-31.821
		v108.599H250.374z"/>
	<path fill="none" d="M33.084,141.777c0.012,29.004,11.312,56.269,31.821,76.777c20.509,20.509,47.774,31.808,76.778,31.819V141.777
		H33.084z"/>
	<path d="M275.958,152.365c-2.395,30.65-15.049,58.418-34.534,79.869C261.624,210.032,273.643,182.176,275.958,152.365z"/>
	<path d="M7.499,131.123c2.391-30.672,15.056-58.46,34.561-79.922C21.838,73.415,9.808,101.29,7.499,131.123z"/>
	<path d="M51.198,42.062c21.467-19.511,49.264-32.178,79.944-34.565C101.3,9.803,73.417,21.834,51.198,42.062z"/>
	<path d="M241.4,51.201c19.502,21.459,32.166,49.243,34.559,79.91C273.647,101.281,261.618,73.412,241.4,51.201z"/>
	<path d="M152.322,7.497c31.811,2.476,60.519,16.003,82.287,36.75C212.024,22.7,183.222,9.886,152.322,7.497z"/>
	<path d="M131.097,275.958c-30.643-2.394-58.406-15.043-79.856-34.521C73.442,261.629,101.292,273.644,131.097,275.958z"/>
	<path d="M232.233,241.423c-21.452,19.486-49.221,32.141-79.872,34.534C182.173,273.644,210.029,261.625,232.233,241.423z"/>
	<path d="M236.939,46.521c-0.049-0.049-0.099-0.095-0.147-0.144c0.091,0.09,0.181,0.18,0.271,0.271
		C237.021,46.606,236.981,46.563,236.939,46.521z"/>
	<path d="M42.027,232.222c-19.485-21.455-32.138-49.227-34.528-79.88C9.809,182.157,21.826,210.016,42.027,232.222z"/>
	<path fill="#231F20" d="M276.332,138.298c-0.007-0.255-0.021-0.509-0.028-0.764c-0.027-0.894-0.057-1.788-0.102-2.677
		c-0.011-0.203-0.026-0.404-0.037-0.607c-0.052-0.95-0.108-1.898-0.181-2.842c-0.007-0.1-0.018-0.198-0.025-0.297
		c-2.393-30.667-15.057-58.451-34.559-79.91c-0.03-0.034-0.062-0.066-0.092-0.1c-0.688-0.756-1.385-1.505-2.09-2.245
		c-0.71-0.745-1.429-1.48-2.155-2.208c-0.091-0.091-0.181-0.181-0.271-0.271c-0.72-0.718-1.447-1.429-2.183-2.13
		C212.84,23.5,184.132,9.973,152.322,7.497c-0.089-0.007-0.177-0.016-0.265-0.022c-0.946-0.072-1.897-0.128-2.849-0.181
		c-0.202-0.011-0.403-0.027-0.605-0.037c-0.899-0.045-1.803-0.075-2.706-0.103c-0.245-0.007-0.487-0.021-0.732-0.027
		c-1.142-0.028-2.286-0.043-3.435-0.043s-2.293,0.015-3.435,0.043c-0.244,0.006-0.486,0.02-0.73,0.027
		c-0.905,0.027-1.808,0.058-2.708,0.103c-0.201,0.01-0.401,0.026-0.602,0.037c-0.953,0.052-1.904,0.109-2.852,0.181
		c-0.087,0.006-0.173,0.016-0.261,0.022c-30.681,2.387-58.478,15.054-79.944,34.565c-0.009,0.008-0.018,0.016-0.026,0.024
		c-0.78,0.709-1.552,1.428-2.315,2.155c-1.576,1.501-3.115,3.041-4.616,4.616c-0.702,0.737-1.396,1.482-2.081,2.235
		c-0.033,0.036-0.067,0.071-0.1,0.107c-19.505,21.462-32.17,49.25-34.561,79.922c-0.007,0.094-0.017,0.188-0.024,0.283
		c-0.071,0.944-0.128,1.894-0.18,2.843c-0.011,0.203-0.027,0.405-0.037,0.608c-0.045,0.9-0.075,1.803-0.103,2.708
		c-0.007,0.244-0.021,0.486-0.027,0.73c-0.028,1.142-0.043,2.286-0.043,3.435s0.015,2.293,0.043,3.435
		c0.006,0.245,0.02,0.487,0.027,0.732c0.027,0.903,0.058,1.807,0.103,2.706c0.01,0.204,0.026,0.407,0.038,0.611
		c0.052,0.948,0.108,1.896,0.18,2.84c0.008,0.096,0.018,0.191,0.025,0.288c2.39,30.653,15.042,58.425,34.528,79.88
		c0.379,0.417,0.767,0.826,1.15,1.238c0.342,0.367,0.681,0.739,1.027,1.103c1.526,1.603,3.09,3.167,4.692,4.692
		c0.35,0.333,0.707,0.658,1.061,0.987c0.427,0.398,0.851,0.801,1.284,1.193c21.45,19.479,49.213,32.128,79.856,34.521
		c0.104,0.009,0.208,0.019,0.312,0.027c0.94,0.071,1.885,0.127,2.831,0.179c0.207,0.012,0.411,0.027,0.618,0.038
		c0.887,0.044,1.778,0.074,2.67,0.102c0.257,0.008,0.513,0.021,0.771,0.028c1.14,0.028,2.284,0.043,3.432,0.043
		s2.291-0.015,3.432-0.043c0.258-0.007,0.513-0.021,0.77-0.028c0.892-0.027,1.783-0.058,2.671-0.102
		c0.206-0.011,0.411-0.026,0.616-0.038c0.946-0.052,1.892-0.107,2.833-0.18c0.104-0.008,0.206-0.018,0.31-0.026
		c30.651-2.394,58.42-15.048,79.872-34.534c0.293-0.266,0.579-0.539,0.869-0.808c0.493-0.456,0.989-0.91,1.476-1.373
		c1.593-1.518,3.148-3.072,4.665-4.665c0.468-0.491,0.927-0.992,1.388-1.49c0.264-0.285,0.531-0.566,0.793-0.854
		c19.485-21.451,32.14-49.219,34.534-79.869c0.008-0.104,0.019-0.209,0.027-0.314c0.071-0.939,0.127-1.883,0.179-2.828
		c0.012-0.207,0.027-0.413,0.038-0.62c0.044-0.887,0.074-1.777,0.102-2.669c0.008-0.258,0.021-0.514,0.028-0.771
		c0.028-1.141,0.043-2.284,0.043-3.432S276.36,139.438,276.332,138.298z M218.554,64.905c20.509,20.509,31.808,47.774,31.819,76.778
		H141.777V33.084C170.781,33.097,198.045,44.396,218.554,64.905z M64.905,218.554c-20.509-20.509-31.809-47.773-31.821-76.777
		h108.599v108.597C112.68,250.362,85.414,239.063,64.905,218.554z"/>
</g>
</svg>
