<?xml version="1.0" encoding="utf-8"?>
<!-- Generator: Adobe Illustrator 15.1.0, SVG Export Plug-In . SVG Version: 6.00 Build 0)  -->
<!DOCTYPE svg PUBLIC "-//W3C//DTD SVG 1.1//EN" "http://www.w3.org/Graphics/SVG/1.1/DTD/svg11.dtd">
<svg version="1.1" id="Layer_1" xmlns="http://www.w3.org/2000/svg" xmlns:xlink="http://www.w3.org/1999/xlink" x="0px" y="0px"
	 width="283.46px" height="283.46px" viewBox="0 0 283.46 283.46" enable-background="new 0 0 283.46 283.46" xml:space="preserve">
<g>
	<path fill="none" d="M204.273,224.424c16.651-0.396,31.547-9.211,39.842-23.582c8.297-14.371,8.485-31.679,0.502-46.296
		c-3.001,2.564-6.22,4.846-9.568,6.78c-0.84,0.486-1.786,0.734-2.738,0.734c-0.474,0-0.95-0.062-1.415-0.186
		c-1.403-0.376-2.598-1.292-3.325-2.55l-2.737-4.74c-1.513-2.618-0.617-5.965,2-7.477c2.661-1.539,5.188-3.35,7.507-5.38
		c-2.321-2.033-4.848-3.843-7.504-5.379c-2.617-1.512-3.514-4.858-2.002-7.476l2.735-4.738c0.726-1.257,1.92-2.175,3.323-2.551
		c0.467-0.125,0.942-0.187,1.417-0.187c0.953,0,1.897,0.249,2.736,0.732c3.341,1.929,6.561,4.21,9.57,6.782
		c7.982-14.619,7.795-31.927-0.502-46.297s-23.19-23.187-39.841-23.58v0.001c0.722,3.891,1.087,7.82,1.087,11.679
		c0,3.021-2.45,5.473-5.474,5.473h-5.474c-3.022,0-5.474-2.451-5.474-5.473c0-3.069-0.305-6.162-0.904-9.191
		c-2.925,0.996-5.755,2.277-8.41,3.812c-0.839,0.485-1.783,0.732-2.736,0.732c-0.475,0-0.95-0.061-1.417-0.186
		c-1.401-0.375-2.597-1.293-3.323-2.55l-2.736-4.739c-0.727-1.258-0.924-2.752-0.547-4.153c0.375-1.403,1.292-2.6,2.549-3.325
		c3.347-1.932,6.934-3.578,10.659-4.896c-8.667-14.223-23.75-22.714-40.344-22.714s-31.675,8.491-40.344,22.714
		c3.73,1.32,7.317,2.968,10.659,4.897c2.617,1.512,3.514,4.859,2.002,7.478l-2.737,4.74c-0.726,1.258-1.921,2.175-3.324,2.551
		c-0.466,0.124-0.942,0.186-1.416,0.186c-0.953,0-1.898-0.249-2.738-0.733c-2.654-1.533-5.483-2.815-8.409-3.811
		c-0.601,3.029-0.905,6.121-0.905,9.189c0,3.021-2.451,5.473-5.474,5.473h-5.474c-3.022,0-5.474-2.451-5.474-5.473
		c0-3.86,0.366-7.79,1.088-11.68c-16.651,0.395-31.546,9.21-39.843,23.581c-8.297,14.37-8.484,31.678-0.5,46.297
		c3.009-2.572,6.229-4.854,9.57-6.783c0.862-0.496,1.803-0.733,2.731-0.733c1.891,0,3.731,0.981,4.745,2.738l2.737,4.74
		c0.727,1.256,0.922,2.751,0.547,4.152c-0.375,1.402-1.293,2.598-2.55,3.324c-2.656,1.533-5.181,3.343-7.505,5.377l0.001,0.001
		c2.327,2.037,4.851,3.847,7.503,5.377c1.258,0.726,2.175,1.921,2.551,3.324c0.375,1.402,0.18,2.897-0.547,4.153l-2.737,4.74
		c-1.015,1.756-2.854,2.738-4.746,2.738c-0.929,0-1.869-0.236-2.731-0.735c-3.338-1.927-6.557-4.21-9.569-6.782
		c-7.983,14.62-7.796,31.927,0.501,46.296c8.296,14.372,23.191,23.187,39.842,23.582c-0.722-3.895-1.088-7.823-1.088-11.679
		c0-3.022,2.451-5.474,5.474-5.474h5.473c3.023,0,5.474,2.451,5.474,5.474c0,3.067,0.304,6.159,0.904,9.188
		c2.927-0.997,5.756-2.278,8.409-3.811c0.839-0.485,1.785-0.734,2.737-0.734c0.475,0,0.951,0.063,1.417,0.188
		c1.403,0.376,2.598,1.292,3.324,2.55l2.736,4.74c1.511,2.618,0.614,5.964-2.003,7.478c-3.336,1.927-6.921,3.573-10.658,4.896
		h-0.001c8.669,14.224,23.75,22.714,40.344,22.714c16.593,0.002,31.676-8.489,40.343-22.714c-3.724-1.317-7.31-2.964-10.654-4.894
		c-0.414-0.238-0.798-0.533-1.136-0.872c-1.752-1.751-2.108-4.461-0.87-6.607l2.737-4.741c0.725-1.258,1.92-2.174,3.323-2.55
		c0.466-0.125,0.941-0.188,1.416-0.188c0.953,0,1.897,0.249,2.737,0.734c2.656,1.533,5.485,2.815,8.41,3.811v-0.002
		c0.599-3.027,0.904-6.118,0.904-9.187c0-3.022,2.45-5.474,5.474-5.474h5.472h0.007c3.022,0,5.471,2.451,5.471,5.474
		c0,0.068-0.001,0.137-0.004,0.204C205.348,216.741,204.982,220.6,204.273,224.424z"/>
	<path d="M256.04,141.729L256.04,141.729c13.65-20.336,14.531-46.132,2.296-67.323c-11.328-19.625-32.464-31.816-55.16-31.816
		c-1.421,0-2.864,0.049-4.289,0.146h-0.002C188.1,20.744,166.197,7.084,141.729,7.084c-24.468,0-46.369,13.66-57.155,35.651
		c-1.426-0.097-2.869-0.146-4.29-0.146c-22.694,0-43.831,12.191-55.162,31.817c-12.234,21.191-11.354,46.987,2.297,67.323
		c-13.651,20.335-14.532,46.132-2.296,67.322c11.331,19.626,32.468,31.817,55.164,31.817c1.431,0,2.874-0.048,4.289-0.145h0
		c10.784,21.99,32.685,35.65,57.154,35.65c24.466,0.001,46.368-13.659,57.155-35.65h0.002c1.411,0.097,2.855,0.145,4.286,0.145
		c22.695,0,43.832-12.192,55.163-31.818C270.571,187.862,269.692,162.065,256.04,141.729z M199.894,207.271h-0.007h-5.472
		c-3.023,0-5.474,2.451-5.474,5.474c0,3.068-0.306,6.159-0.904,9.187v0.002c-2.925-0.995-5.754-2.277-8.41-3.811
		c-0.84-0.485-1.784-0.734-2.737-0.734c-0.475,0-0.95,0.063-1.416,0.188c-1.403,0.376-2.599,1.292-3.323,2.55l-2.737,4.741
		c-1.238,2.146-0.882,4.856,0.87,6.607c0.338,0.339,0.722,0.634,1.136,0.872c3.345,1.93,6.931,3.576,10.654,4.894
		c-8.667,14.225-23.75,22.716-40.343,22.714c-16.594,0-31.675-8.49-40.344-22.714h0.001c3.737-1.323,7.322-2.97,10.658-4.896
		c2.617-1.514,3.514-4.859,2.003-7.478l-2.736-4.74c-0.726-1.258-1.921-2.174-3.324-2.55c-0.466-0.125-0.942-0.188-1.417-0.188
		c-0.953,0-1.898,0.249-2.737,0.734c-2.653,1.532-5.482,2.813-8.409,3.811c-0.601-3.029-0.904-6.121-0.904-9.188
		c0-3.022-2.451-5.474-5.474-5.474h-5.473c-3.023,0-5.474,2.451-5.474,5.474c0,3.855,0.366,7.784,1.088,11.679
		c-16.651-0.396-31.545-9.21-39.842-23.582c-8.298-14.369-8.485-31.676-0.501-46.296c3.012,2.572,6.231,4.855,9.569,6.782
		c0.862,0.499,1.803,0.735,2.731,0.735c1.892,0,3.731-0.982,4.746-2.738l2.737-4.74c0.727-1.256,0.922-2.751,0.547-4.153
		c-0.376-1.403-1.293-2.599-2.551-3.324c-2.652-1.53-5.177-3.34-7.503-5.377l-0.001-0.001c2.325-2.034,4.85-3.844,7.505-5.377
		c1.257-0.727,2.175-1.922,2.55-3.324c0.375-1.401,0.18-2.896-0.547-4.152l-2.737-4.74c-1.014-1.757-2.854-2.738-4.745-2.738
		c-0.928,0-1.869,0.237-2.731,0.733c-3.341,1.929-6.561,4.211-9.57,6.783c-7.983-14.619-7.796-31.927,0.5-46.297
		c8.296-14.371,23.191-23.187,39.843-23.581c-0.722,3.89-1.088,7.819-1.088,11.68c0,3.021,2.451,5.473,5.474,5.473h5.474
		c3.022,0,5.474-2.451,5.474-5.473c0-3.068,0.304-6.16,0.905-9.189c2.925,0.995,5.754,2.277,8.409,3.811
		c0.84,0.484,1.785,0.733,2.738,0.733c0.474,0,0.95-0.062,1.416-0.186c1.403-0.376,2.598-1.293,3.324-2.551l2.737-4.74
		c1.512-2.618,0.615-5.966-2.002-7.478c-3.342-1.93-6.929-3.577-10.659-4.897c8.669-14.223,23.75-22.714,40.344-22.714
		s31.677,8.491,40.344,22.714c-3.726,1.318-7.313,2.965-10.659,4.896c-1.257,0.726-2.174,1.922-2.549,3.325
		c-0.377,1.401-0.18,2.896,0.547,4.153l2.736,4.739c0.727,1.257,1.922,2.175,3.323,2.55c0.467,0.125,0.942,0.186,1.417,0.186
		c0.953,0,1.897-0.247,2.736-0.732c2.655-1.534,5.485-2.815,8.41-3.812c0.6,3.029,0.904,6.122,0.904,9.191
		c0,3.021,2.451,5.473,5.474,5.473h5.474c3.023,0,5.474-2.451,5.474-5.473c0-3.858-0.365-7.788-1.087-11.679v-0.001
		c16.65,0.394,31.544,9.21,39.841,23.58s8.484,31.678,0.502,46.297c-3.01-2.572-6.229-4.854-9.57-6.782
		c-0.839-0.483-1.783-0.732-2.736-0.732c-0.475,0-0.95,0.062-1.417,0.187c-1.403,0.376-2.598,1.294-3.323,2.551l-2.735,4.738
		c-1.512,2.617-0.615,5.964,2.002,7.476c2.656,1.536,5.183,3.346,7.504,5.379c-2.319,2.03-4.846,3.841-7.507,5.38
		c-2.617,1.512-3.513,4.858-2,7.477l2.737,4.74c0.728,1.258,1.922,2.174,3.325,2.55c0.465,0.124,0.941,0.186,1.415,0.186
		c0.952,0,1.898-0.248,2.738-0.734c3.349-1.935,6.567-4.216,9.568-6.78c7.983,14.617,7.795,31.925-0.502,46.296
		c-8.295,14.371-23.19,23.187-39.842,23.582c0.709-3.824,1.074-7.683,1.087-11.475c0.003-0.067,0.004-0.136,0.004-0.204
		C205.364,209.723,202.916,207.271,199.894,207.271z"/>
</g>
</svg>
