<?xml version="1.0" encoding="utf-8"?>
<!-- Generator: Adobe Illustrator 15.1.0, SVG Export Plug-In . SVG Version: 6.00 Build 0)  -->
<!DOCTYPE svg PUBLIC "-//W3C//DTD SVG 1.1//EN" "http://www.w3.org/Graphics/SVG/1.1/DTD/svg11.dtd">
<svg version="1.1" id="Layer_4" xmlns="http://www.w3.org/2000/svg" xmlns:xlink="http://www.w3.org/1999/xlink" x="0px" y="0px"
	 width="283.46px" height="283.46px" viewBox="0 0 283.46 283.46" enable-background="new 0 0 283.46 283.46" xml:space="preserve">
<g>
	<path fill="#231F20" d="M225.539,172.645v0.002H169.71c4.847-1.035,9.646-2.427,14.389-4.22
		c11.21-4.24,22.087-10.564,32.634-18.971V89.276l-68.692,0.111v19.027h47.676v30.2c-4.574,4.058-11.283,7.873-20.135,11.449
		c-8.849,3.578-17.92,5.365-27.211,5.365c-10.699,0-20.801-2.359-30.313-7.08c-9.514-4.72-16.76-11.948-21.737-21.682
		c-4.979-9.735-7.467-21.83-7.467-36.285c0-11.726,2.063-22.604,6.195-32.634c2.434-5.824,5.845-11.172,10.233-16.04
		c4.387-4.868,10.158-8.796,17.313-11.782c7.152-2.985,15.634-4.479,25.446-4.479c8.184,0,15.631,1.42,22.342,4.259
		c6.714,2.839,11.875,6.62,15.488,11.338c3.612,4.721,6.64,11.212,9.07,19.47l19.357-5.311
		c-2.801-10.913-6.896-19.763-12.277-26.549c-5.383-6.785-12.813-12.074-22.29-15.874c-9.478-3.798-20.078-5.697-31.803-5.697
		c-16.155,0-30.425,3.318-42.815,9.956c-12.389,6.637-21.885,16.797-28.485,30.476c-6.601,13.681-9.9,28.413-9.9,44.195
		c0,15.929,3.319,30.349,9.956,43.253c6.638,12.907,16.464,22.772,29.48,29.592c7.074,3.707,14.582,6.398,22.518,8.091h-70.76
		h-9.959v9.959v41.905v41.906v9.959h9.959h83.808h83.809h9.959v-9.959v-41.906v-41.905v-9.959H225.539z M205.539,224.511v21.906
		H141.73H77.922v-21.906v-21.905h63.808h63.809V224.511z"/>
</g>
</svg>
