<?xml version="1.0" encoding="utf-8"?>
<!-- Generator: Adobe Illustrator 15.1.0, SVG Export Plug-In . SVG Version: 6.00 Build 0)  -->
<!DOCTYPE svg PUBLIC "-//W3C//DTD SVG 1.1//EN" "http://www.w3.org/Graphics/SVG/1.1/DTD/svg11.dtd">
<svg version="1.1" id="Layer_3" xmlns="http://www.w3.org/2000/svg" xmlns:xlink="http://www.w3.org/1999/xlink" x="0px" y="0px"
	 width="283.46px" height="283.46px" viewBox="0 0 283.46 283.46" enable-background="new 0 0 283.46 283.46" xml:space="preserve">
<g>
	<path fill="#231F20" d="M103.962,92.416c-27.236,0-49.314,22.079-49.314,49.314s22.078,49.314,49.314,49.314
		s49.314-22.078,49.314-49.314S131.199,92.416,103.962,92.416z M103.962,171.044c-16.164,0-29.314-13.15-29.314-29.314
		c0-16.164,13.15-29.314,29.314-29.314s29.314,13.15,29.314,29.314C133.277,157.894,120.126,171.044,103.962,171.044z"/>
	<path fill="#231F20" d="M153.277,109.23c2.56,0,5.118-0.976,7.071-2.929l51.093-51.093c3.905-3.905,3.905-10.237,0-14.143
		c-3.906-3.905-10.236-3.905-14.143,0l-51.093,51.093c-3.905,3.905-3.905,10.237,0,14.143
		C148.159,108.254,150.717,109.23,153.277,109.23z"/>
	<path fill="#231F20" d="M218.813,131.73H167.72c-5.522,0-10,4.477-10,10c0,5.522,4.478,10,10,10h51.093c5.522,0,10-4.478,10-10
		C228.813,136.208,224.335,131.73,218.813,131.73z"/>
	<path fill="#231F20" d="M160.355,177.159c-3.906-3.904-10.236-3.904-14.143,0c-3.905,3.905-3.905,10.237,0,14.143l51.093,51.093
		c1.953,1.952,4.512,2.929,7.071,2.929s5.118-0.977,7.071-2.929c3.905-3.905,3.905-10.237,0-14.143L160.355,177.159z"/>
</g>
</svg>
