<?xml version="1.0" encoding="utf-8"?>
<!-- Generator: Adobe Illustrator 15.1.0, SVG Export Plug-In . SVG Version: 6.00 Build 0)  -->
<!DOCTYPE svg PUBLIC "-//W3C//DTD SVG 1.1//EN" "http://www.w3.org/Graphics/SVG/1.1/DTD/svg11.dtd">
<svg version="1.1" id="Layer_1" xmlns="http://www.w3.org/2000/svg" xmlns:xlink="http://www.w3.org/1999/xlink" x="0px" y="0px"
	 width="283.46px" height="283.46px" viewBox="0 0 283.46 283.46" enable-background="new 0 0 283.46 283.46" xml:space="preserve">
<g>
	<path d="M211.268,90.23c28.441,0,51.499,23.058,51.499,51.501c0,28.443-23.058,51.5-51.499,51.5H72.195
		c-28.443,0-51.501-23.057-51.501-51.5c0-28.443,23.058-51.501,51.501-51.501H211.268 M211.268,76.62H72.195
		c-35.902,0-65.111,29.208-65.111,65.111c0,35.901,29.209,65.109,65.111,65.109h139.072c35.901,0,65.108-29.208,65.108-65.109
		C276.376,105.829,247.169,76.62,211.268,76.62L211.268,76.62z"/>
</g>
</svg>
