<?xml version="1.0" encoding="utf-8"?>
<!-- Generator: Adobe Illustrator 15.1.0, SVG Export Plug-In . SVG Version: 6.00 Build 0)  -->
<!DOCTYPE svg PUBLIC "-//W3C//DTD SVG 1.1//EN" "http://www.w3.org/Graphics/SVG/1.1/DTD/svg11.dtd">
<svg version="1.1" id="Layer_3" xmlns="http://www.w3.org/2000/svg" xmlns:xlink="http://www.w3.org/1999/xlink" x="0px" y="0px"
	 width="283.46px" height="283.46px" viewBox="0 0 283.46 283.46" enable-background="new 0 0 283.46 283.46" xml:space="preserve">
<g>
	<path d="M235.207,63.248c-3.394-4.043-9.405-4.605-13.401-1.252L190.64,88.146l-0.631,0.53l-0.09-0.089l-17.421,14.618
		c-8.436-6.746-19.126-10.789-30.768-10.789c-27.236,0-49.314,22.079-49.314,49.314c0,8.559,2.183,16.606,6.018,23.622
		l-19.754,16.575c-3.997,3.354-4.49,9.372-1.096,13.416c3.393,4.044,9.406,4.604,13.403,1.251l19.715-16.543
		c8.475,6.87,19.268,10.993,31.028,10.993c27.236,0,49.313-22.078,49.313-49.314c0-8.63-2.223-16.739-6.118-23.795l18.021-15.121
		l31.164-26.15C238.107,73.311,238.599,67.291,235.207,63.248z M112.68,153.398c-1.455-3.608-2.264-7.545-2.264-11.668
		c0-17.267,14.047-31.314,31.314-31.314c6.064,0,11.729,1.739,16.53,4.736l-26.201,21.984l-15.321,12.855L112.68,153.398z
		 M141.731,173.044c-6.186,0-11.954-1.811-16.816-4.919l4.132-3.467l15.321-12.855l26.287-22.058
		c1.536,3.694,2.389,7.741,2.389,11.984C173.043,158.997,158.997,173.044,141.731,173.044z"/>
</g>
</svg>
