<?xml version="1.0" encoding="iso-8859-1"?>
<!-- Generator: Adobe Illustrator 15.1.0, SVG Export Plug-In . SVG Version: 6.00 Build 0)  -->
<!DOCTYPE svg PUBLIC "-//W3C//DTD SVG 1.1//EN" "http://www.w3.org/Graphics/SVG/1.1/DTD/svg11.dtd">
<svg version="1.1" id="Layer_2" xmlns="http://www.w3.org/2000/svg" xmlns:xlink="http://www.w3.org/1999/xlink" x="0px" y="0px"
	 width="283.465px" height="283.465px" viewBox="92.268 -109.732 283.465 283.465"
	 style="enable-background:new 92.268 -109.732 283.465 283.465;" xml:space="preserve">
<g>
	<path style="fill:#231F20;" d="M361.545-2.771c-0.966-1.125-2.441-1.765-4.051-2.213c-1.52,0.894-3.176,1.398-4.926,1.398
		c-1.947,0-3.778-0.615-5.432-1.709c-2.226,2.551-5.012,4.067-8.08,4.067c-7.46,0-13.304-8.86-13.304-20.171
		c0-3.667,0.623-7.07,1.706-10.001c-0.573-1.283-1.357-1.996-2.518-1.996c-0.802,0-1.73,0.344-2.837,1.053l-0.128,0.112
		c-5.824,5.676-5.911,5.908-9.056,24.743l-0.154,0.478c-0.52,1.046-1.002,2.114-1.485,3.177
		c-2.968,6.552-6.035,13.324-17.053,13.324c-0.996,0-2.065-0.074-3.165-0.181c-0.715,0.85-1.55,1.708-2.639,2.595
		c-4.469,4.401-6.344,11.999-8.51,20.794c-0.901,3.655-1.878,7.445-3.071,11.357l0.496,0.022c4.087,0.178,5.354,0.36,8.557,3.096
		c1.244,0.136,2.447,0.221,3.601,0.221c8.252,0,12.38-3.588,15.695-6.472c0.681-0.59,1.284-1.115,1.995-1.681
		c1.19-1.126,2.267-2.546,3.306-3.921c2.887-3.813,5.871-7.754,13.637-8.426c14.621-0.227,20.057-1.35,22.589-5.167
		c-12.409,0-22.449-6.822-22.449-15.252l5.982-3.373l0.845,1.496c2.216,3.926,4.774,6.932,9.096,8.707
		c2.438,0.87,5.206,1.461,8.181,1.704c0.432,0.029,0.858,0.06,1.312,0.077l1.718,0.061l-0.118,3.348
		c1.61-0.294,3.027-0.396,4.309-0.472c4.393-0.258,7.296-0.429,12.172-8.655C369.873,6.199,368.351,3.269,361.545-2.771z"/>
	<path style="fill:#231F20;" d="M128.573,32.097c1.031-2.86,4.15-4.29,7.399-4.8l-27.74-9.74c-1.579-0.625-6.033-2.185-8.449-2.185
		c-0.178,0-0.318,0.008-0.429,0.022c0.199,0.538,0.853,1.765,2.989,4.107c0.024,0,12.265,9.973,27.729,19.734
		C128.34,36.544,127.825,34.172,128.573,32.097z"/>
	<path style="fill:#231F20;" d="M267.171,56.516c1.334-3.125,2.709-6.29,4.455-8.698c0.487-1.026,0.983-2.089,1.496-3.2
		c1.372-4.271,2.434-8.576,3.461-12.74c2.289-9.304,4.271-17.339,9.555-22.53c2.552-2.085,3.785-3.862,3.598-5.11
		c-0.174-1.167-1.71-2.393-4.325-3.45c-0.312-0.034-0.901-0.098-1.459-0.098c-2.423,0-4.442,1.309-6.235,3.621l-4.074,7.62
		c-0.201,0.491-0.399,0.989-0.597,1.505l-4.718,15.449c-1.052,4.404-2.217,8.209-3.486,11.414l-0.893,2.919l-1.163,1.563
		c-2.907,5.431-6.28,8.202-10.096,8.202c-0.234,0-0.476-0.082-0.715-0.103l-1.089,0.217l-14.351-5.25l-4.315-0.416l-9.536,1.044
		l-13.21,3.885l-1.521,0.292c-1.948,0.481-3.93,0.896-5.985,1.146l-3.148,0.604l-7.535-0.248l-7.89-2.729l-4.8-2.539l-2.147-1.703
		c-6.094-4.4-10.533-7.347-15.219-9.664l-2.697-1.244c-4.739-2.062-10.054-3.671-17.738-5.585c-0.458-0.121-1.174-0.189-1.941-0.189
		c-3.008,0-6.395,0.949-7.048,2.763c-0.376,1.038-0.325,4.13,7.272,10.649c0.557-0.031,1.121-0.111,1.67-0.111
		c4.681,0,8.473,1.156,11.562,2.286c9.538,5.57,12.771,8.32,14.948,13.019c1.248,1.008,2.501,1.859,3.852,2.482
		c3.831,0.918,7.38,2.374,10.813,3.78c5.403,2.215,10.513,4.31,17.514,4.63c0.399-0.186,0.856-0.314,1.268-0.489
		c1.264-1.265,2.739-2.407,4.481-3.361c4.804-1.862,11.804-2.873,19.411-2.873c4.18,0,17.989,0.413,24.47,5.445
		c0.896,0.227,1.79,0.406,2.687,0.653l0.187,0.002c6.063,0,9.976-3.293,14.947-12.196C266.98,56.956,267.076,56.737,267.171,56.516z
		"/>
	<path style="fill:#231F20;" d="M162.243,79.438c-0.366-0.768-0.702-1.539-0.946-2.308c-1.098-0.154-2.108-0.267-3.143-0.392
		c3.024,5.874,5.532,12.452,4.355,22.606c0.536-0.379,1.083-0.845,1.654-1.492c1.081-1.199,2.069-1.993,2.863-2.632
		c0.164-0.133,0.302-0.246,0.441-0.363c0.885-1.996,0.576-4.059-0.401-6.394C165.088,85.307,163.434,82.307,162.243,79.438z"/>
	<path style="fill:#231F20;" d="M145.648,77.135c-5.131,1.681-9.167,6.225-11.878,16.994c5.786,2.506,11.16,4.311,15.814,5.346
		c2.201-12.736-0.629-17.188-3.637-21.869L145.648,77.135z"/>
	<path style="fill:#231F20;" d="M151.825,72.832c2.701,0,5.596,0.334,8.657,0.746c-0.749-4.597,0.245-8.815,3.813-12.737
		c-1.721-3.909-4.164-6.215-13.445-11.661c-2.67-0.948-5.97-1.947-10.104-1.947c-0.966,0-1.953,0.056-2.942,0.168l-0.196,0.19
		c-2.063,1.979-8.347,8.001-11.848,14.447c-4.316,7.959-4.367,15.265-0.162,24.429c1.061,2.782,2.766,4.809,4.964,6.395
		C134.216,78.686,140.466,72.832,151.825,72.832z"/>
	<path style="fill:#231F20;" d="M151.825,76.266c-0.883,0-1.738,0.045-2.575,0.13c3.095,4.851,6.044,10.219,3.707,23.712
		c0.057,0.008,0.11,0.011,0.168,0.02c0.082-0.002,0.169-0.017,0.251-0.017c1.063,0,2.077,0.102,3.064,0.204
		c0.536,0.057,1.053,0.11,1.563,0.147c0.332-0.008,0.627-0.032,0.927-0.053c1.667-11.171-1.384-17.557-4.843-24.019
		C153.334,76.348,152.548,76.266,151.825,76.266z"/>
	<path style="fill:#231F20;" d="M252.321,80.292l0.061-0.382c-3.088,0.188-6.267,0.604-9.415,1.488
		c4.263,3.99,8.399,8.514,9.392,18.607c1.153-1.761,1.935-3.914,2.18-6.526c0.583-6.248-1.891-12.563-2.783-13.426
		C251.758,80.06,251.948,80.237,252.321,80.292z"/>
	<path style="fill:#231F20;" d="M251.16,76.56c-1.025-1.934-2.27-3.588-3.745-4.783c-3.53-3.096-12.467-5.069-22.82-5.069
		c-7.097,0-13.815,0.951-17.972,2.549c-2.361,1.298-4.099,3.065-5.422,5.05c-0.174,2.729-0.753,5.82-3.01,8.59
		c-0.299,2.646-0.185,5.28,0.274,7.602c0.534,5.487,6.638,9.394,19.013,12.206l0.023-0.059
		C225.851,81.582,239.64,77.434,251.16,76.56z"/>
	<path style="fill:#231F20;" d="M230.506,88.469c-3.507,3.357-6.728,7.989-9.42,14.473c0.265,0.283,0.5,0.498,0.744,0.665
		c0.949,0.179,1.923,0.351,2.933,0.519c0.898-0.056,1.788-0.078,2.67-0.078c2.368,0,4.633,0.174,6.832,0.352
		c0.063,0.003,0.131,0.003,0.194,0.005c1.894,0.064,3.719,0.099,5.503,0.09C238.323,95.639,234.238,90.519,230.506,88.469z"/>
	<path style="fill:#231F20;" d="M239.634,82.988c-0.114-0.104-0.229-0.215-0.343-0.32c-2.079,0.872-4.121,2.01-6.096,3.492
		c4.255,2.84,8.561,8.696,10.217,18.188c1.747-0.144,3.356-0.463,4.832-0.955c0.287-0.135,0.576-0.271,0.861-0.432
		C248.673,91.412,244.294,87.297,239.634,82.988z"/>
	<path style="fill:#231F20;" d="M292.743,58.642c-2.712-2.97-5.603-5.739-8.278-8.174c-3.111-2.779-3.347-2.791-7.272-2.959
		l-0.288-0.013c-2.669,1.223-4.654,5.869-6.575,10.369c-2.122,4.962-4.309,10.076-7.993,11.981
		c-0.54,6.226,0.918,14.86,5.516,20.077c1.301,1.476,2.772,2.522,4.382,3.209c-1.888-5.063-1.7-10.434,0.613-15.696
		C276.814,68.405,286.182,61.299,292.743,58.642z"/>
	<path style="fill:#231F20;" d="M295.076,61.413c-2.195,0.732-4.945,2.195-7.711,4.19c0.302,0.26,0.587,0.508,0.929,0.797
		c3.959,3.319,10.373,8.811,13.425,19.95c1.804-2.201,2.183-5.265,2.082-7.522C303.532,72.798,300.059,65.915,295.076,61.413z"/>
	<path style="fill:#231F20;" d="M286.088,69.03c-0.543-0.456-1.026-0.867-1.469-1.26c-1.613,1.382-3.155,2.936-4.547,4.617
		c3.578,2.486,10.082,8.813,12.457,20.664c1.756-1.001,3.561-2.318,5.739-3.933c0.172-0.126,0.372-0.271,0.546-0.398
		C296.234,77.587,290.149,72.436,286.088,69.03z"/>
	<path style="fill:#231F20;" d="M278.018,75.178c-0.771,1.175-1.476,2.382-2.029,3.642c-2.206,5.021-2.172,9.953,0.104,14.663
		c3.604,1.108,6.548,1.648,8.981,1.648c1.929,0,3.562-0.329,5.124-0.938l-0.898,0.165C287.188,82.789,280.754,77.118,278.018,75.178
		z"/>
	<path style="fill:#231F20;" d="M349.153-8.153c1.072,0.699,2.219,1.133,3.416,1.133c5.352,0,9.871-7.665,9.871-16.738
		s-4.52-16.737-9.871-16.737c-2.015,0-3.909,1.088-5.488,2.925c3.222,3.648,5.281,9.469,5.281,16.169
		C352.362-16.28,351.155-11.673,349.153-8.153z M357.289-29.447c2.495,0,4.514,3.269,4.514,7.296c0,4.03-2.019,7.295-4.514,7.295
		c-2.487,0-4.506-3.266-4.506-7.295C352.783-26.181,354.802-29.447,357.289-29.447z"/>
	<path style="fill:#231F20;" d="M339.057-4.663c5.352,0,9.871-7.665,9.871-16.737s-4.52-16.738-9.871-16.738
		c-5.351,0-9.871,7.665-9.871,16.738S333.706-4.663,339.057-4.663z M343.127-26.55c2.729,0,4.942,3.41,4.942,7.619
		c0,4.21-2.214,7.62-4.942,7.62c-2.723,0-4.936-3.41-4.936-7.62C338.192-23.141,340.405-26.55,343.127-26.55z"/>
	<path style="fill:#231F20;" d="M155.664,31.178l10.651,4.924l7.927,4.96l6.231,4.967l4.29,2.259l7.387,2.532l6.381,0.141
		l10.139-1.936l13.347-3.906l10.18-1.139l5.302,0.564l13.676,4.995l3.018-0.605l2.478-1.488l4.329-6.008l9.171-30.217l4.684-8.815
		l1.096-2.709L275.5-2.781l-1.768-2.521l-6.484-5.157l-12.893-8.086l-13.683-6.017l-17.241-2.845l-14.175-0.283l-15.158,2.556
		l-15.333,5.536l-11.011,6.706L157.299-1.541c0.025,0-9.177,13.769-13.738,28.185l-0.032,0.099l1.398,0.853L155.664,31.178z"/>
	<path style="fill:#231F20;" d="M180.109,68.637c-2.255,3.022-2.19,3.461-1.514,8.083l0.112,0.773
		c0.335,0.806,0.607,1.544,0.855,2.219c1.301,3.534,1.709,4.645,8.48,5.508c8.521-2.697,9.564-7.29,9.766-11.648
		c-6.952-0.508-11.719-2.526-14.952-3.895C181.804,69.229,180.723,68.772,180.109,68.637z"/>
</g>
<circle style="fill:#231F20;" cx="343.167" cy="-18.733" r="2.667"/>
<circle style="fill:#231F20;" cx="357.427" cy="-21.733" r="2.667"/>
</svg>
