<?xml version="1.0" encoding="utf-8"?>
<!-- Generator: Adobe Illustrator 15.1.0, SVG Export Plug-In . SVG Version: 6.00 Build 0)  -->
<!DOCTYPE svg PUBLIC "-//W3C//DTD SVG 1.1//EN" "http://www.w3.org/Graphics/SVG/1.1/DTD/svg11.dtd">
<svg version="1.1" id="svg3195" xmlns:svg="http://www.w3.org/2000/svg"
	 xmlns="http://www.w3.org/2000/svg" xmlns:xlink="http://www.w3.org/1999/xlink" x="0px" y="0px" width="283.465px"
	 height="283.465px" viewBox="0 0 283.465 283.465" enable-background="new 0 0 283.465 283.465" xml:space="preserve">
<g>
	<path d="M141.732,7.087C67.488,7.087,7.086,67.489,7.086,141.733c0,35.947,14.01,69.756,39.451,95.195
		c25.439,25.441,59.248,39.449,95.195,39.449c74.244,0,134.646-60.4,134.646-134.646C276.379,67.489,215.977,7.087,141.732,7.087z
		 M141.732,257.761c-30.975,0-60.107-12.072-82.031-33.996c-21.923-21.924-33.998-51.057-33.998-82.031
		c0-63.979,52.051-116.027,116.028-116.027S257.76,77.755,257.76,141.733C257.762,205.71,205.711,257.761,141.732,257.761z"/>
	<path d="M194.947,206.388l11.467-11.467l-30.672-30.687c2.854-4.304,4.951-9.162,6.01-14.397h43.326V133.63h-43.326
		c-1.059-5.24-3.154-10.135-6.01-14.438l30.672-30.673l-11.467-11.467l-30.674,30.672c-4.313-2.869-9.184-4.949-14.438-6.01V58.386
		h-16.207v43.328c-5.248,1.061-10.155,3.104-14.465,5.971L88.519,77.052L77.051,88.52l30.674,30.673
		c-2.858,4.305-4.939,9.199-5.997,14.438H58.387v16.207h43.341c1.058,5.237,3.142,10.096,5.997,14.398l-30.674,30.686l11.468,11.467
		l30.646-30.646c4.311,2.865,9.217,4.937,14.465,5.997v43.34h16.207v-43.34c5.254-1.063,10.125-3.168,14.438-6.038L194.947,206.388z
		"/>
	<path d="M199.863,220.38c-12.596,9.328-27.488,15.728-43.693,18.125v12.844c19.695-2.57,37.756-10.348,52.783-21.879l-9.049-9.09
		H199.863z"/>
	<path d="M220.352,199.905l9.076,9.076c11.543-15.023,19.332-33.092,21.92-52.783h-12.871
		C236.066,172.399,229.693,187.308,220.352,199.905z"/>
	<path d="M74.445,229.429c15.02,11.549,33.092,19.332,52.782,21.92v-12.885c-16.198-2.412-31.119-8.773-43.706-18.11L74.445,229.429
		z"/>
	<path d="M83.562,63.114c12.584-9.326,27.476-15.716,43.665-18.125V32.158c-19.682,2.584-37.727,10.353-52.742,21.88l9.036,9.076
		H83.562L83.562,63.114z"/>
	<path d="M208.953,53.97c-15.027-11.531-33.09-19.283-52.783-21.853v12.871c16.197,2.396,31.104,8.737,43.693,18.058L208.953,53.97z
		"/>
	<path d="M251.348,127.268c-2.584-19.704-10.365-37.793-21.92-52.822l-9.076,9.076c9.344,12.597,15.717,27.534,18.125,43.746
		H251.348z"/>
	<path d="M32.117,156.198c2.574,19.68,10.328,37.737,21.854,52.756l9.076-9.09c-9.314-12.582-15.646-27.482-18.045-43.666H32.117
		L32.117,156.198z"/>
	<path d="M63.086,83.603l-9.088-9.09c-11.533,15.015-19.3,33.074-21.881,52.755h12.885C47.407,111.083,53.762,96.187,63.086,83.603z
		"/>
</g>
</svg>
