<?xml version="1.0" encoding="utf-8"?>
<!-- Generator: Adobe Illustrator 15.1.0, SVG Export Plug-In . SVG Version: 6.00 Build 0)  -->
<!DOCTYPE svg PUBLIC "-//W3C//DTD SVG 1.1//EN" "http://www.w3.org/Graphics/SVG/1.1/DTD/svg11.dtd">
<svg version="1.1" id="Layer_3" xmlns="http://www.w3.org/2000/svg" xmlns:xlink="http://www.w3.org/1999/xlink" x="0px" y="0px"
	 width="283.465px" height="283.465px" viewBox="0 0 283.465 283.465" enable-background="new 0 0 283.465 283.465"
	 xml:space="preserve">
<path fill="#252123" d="M276.379,141.731c0,74.363-60.283,134.646-134.646,134.646S7.086,216.095,7.086,141.731
	c0-64.63,45.537-118.627,106.277-131.648C68.82,35.042,54.908,75.351,51.865,96.413c-3.264,22.58,1.154,45.318,17.625,59.5
	c13.809,11.891,29.709,9.264,36.994,5.342c10.686-5.752,17.961-15.73,20.551-30.93c2.365-13.873-2.053-29.904-10.994-42.338
	c-8.939-12.438-18.342-20.708-24.379-25.861l14.949-16.528c8.916,6.884,13.131,14.026,15.391,18.547
	c1.334-12.843-8.117-26.716-8.117-26.716l27.848-30.342l27.848,30.342c0,0-9.451,13.873-8.117,26.716
	c2.26-4.521,6.475-11.663,15.391-18.547l14.949,16.528c-6.037,5.153-15.439,13.426-24.381,25.861
	c-8.939,12.434-13.355,28.465-10.992,42.338c2.588,15.199,9.865,25.178,20.549,30.93c7.285,3.922,23.188,6.549,36.996-5.342
	c16.471-14.182,20.887-36.922,17.625-59.5c-3.043-21.063-16.957-61.371-61.498-86.33C230.84,23.104,276.379,77.102,276.379,141.731z
	"/>
</svg>
