<?xml version="1.0" encoding="iso-8859-1"?>
<!-- Generator: Adobe Illustrator 15.1.0, SVG Export Plug-In . SVG Version: 6.00 Build 0)  -->
<!DOCTYPE svg PUBLIC "-//W3C//DTD SVG 1.1//EN" "http://www.w3.org/Graphics/SVG/1.1/DTD/svg11.dtd">
<svg version="1.1" id="Layer_4" xmlns="http://www.w3.org/2000/svg" xmlns:xlink="http://www.w3.org/1999/xlink" x="0px" y="0px"
	 width="283.46px" height="283.46px" viewBox="0 0 283.46 283.46" style="enable-background:new 0 0 283.46 283.46;"
	 xml:space="preserve">
<g>
	<path d="M174.202,55.309c-1.494-2.214-3.65-3.922-6.317-4.99l-92.075-37c-5.727-2.299-13.172-1.38-19.44,2.398
		c-6.266,3.78-10.562,9.938-11.213,16.076L34.74,130.61c-0.304,2.847,0.195,5.546,1.446,7.904c0.138,0.296,0.295,0.587,0.465,0.873
		l69.612,115.759c10.92,18.159,38.569,21.621,61.635,7.711l54.43-32.821c23.069-13.91,32.95-39.994,22.033-58.155L174.745,56.122
		C174.576,55.839,174.394,55.569,174.202,55.309z M87.102,67.512c-5.234,3.152-12.033,1.464-15.188-3.772
		c-3.152-5.235-1.464-12.035,3.771-15.187c5.235-3.154,12.035-1.466,15.188,3.769C94.025,57.559,92.338,64.357,87.102,67.512z"/>
</g>
</svg>
