<?xml version="1.0" encoding="iso-8859-1"?>
<!-- Generator: Adobe Illustrator 15.1.0, SVG Export Plug-In . SVG Version: 6.00 Build 0)  -->
<!DOCTYPE svg PUBLIC "-//W3C//DTD SVG 1.1//EN" "http://www.w3.org/Graphics/SVG/1.1/DTD/svg11.dtd">
<svg version="1.1" xmlns="http://www.w3.org/2000/svg" xmlns:xlink="http://www.w3.org/1999/xlink" x="0px" y="0px"
	 width="283.46px" height="283.46px" viewBox="0 0 283.46 283.46" style="enable-background:new 0 0 283.46 283.46;"
	 xml:space="preserve">
<g id="Layer_3">
</g>
<g id="Layer_2">
</g>
<g id="Layer_4">
	<g>
		<path style="fill:none;" d="M110.778,268.354c-0.25-0.101-0.498-0.206-0.744-0.313
			C110.281,268.147,110.528,268.253,110.778,268.354z"/>
		<path style="fill:none;" d="M114.979,269.787c-0.164-0.045-0.323-0.1-0.486-0.146
			C114.656,269.688,114.816,269.742,114.979,269.787z"/>
		<path style="fill:none;" d="M112.854,269.128c-0.239-0.081-0.474-0.17-0.71-0.255C112.38,268.958,112.615,269.047,112.854,269.128
			z"/>
		<path style="fill:none;" d="M120.19,270.879c-0.259-0.039-0.52-0.073-0.777-0.116C119.67,270.806,119.931,270.84,120.19,270.879z"
			/>
		<path style="fill:none;" d="M117.622,270.423c-0.148-0.031-0.298-0.056-0.445-0.088
			C117.323,270.367,117.474,270.392,117.622,270.423z"/>
		<path style="fill:none;" d="M100.944,262.344c-0.192-0.17-0.377-0.346-0.564-0.52
			C100.567,261.998,100.752,262.174,100.944,262.344z"/>
		<path style="fill:none;" d="M104.518,265.079c-0.066-0.044-0.136-0.084-0.202-0.128
			C104.381,264.995,104.451,265.035,104.518,265.079z"/>
		<path style="fill:none;" d="M102.58,263.698c-0.156-0.12-0.304-0.249-0.458-0.371C102.275,263.449,102.424,263.578,102.58,263.698
			z"/>
		<path style="fill:none;" d="M106.737,266.42c-0.202-0.112-0.406-0.22-0.604-0.336C106.331,266.2,106.535,266.308,106.737,266.42z"
			/>
		<path style="fill:none;" d="M108.748,267.458c-0.237-0.113-0.475-0.226-0.709-0.344
			C108.273,267.232,108.511,267.345,108.748,267.458z"/>
		<path style="fill:none;" d="M122.576,271.169c-0.291-0.028-0.582-0.057-0.872-0.089
			C121.994,271.112,122.285,271.141,122.576,271.169z"/>
		<path style="fill:none;" d="M140.592,269.619c-0.464,0.12-0.927,0.233-1.391,0.342
			C139.665,269.853,140.128,269.739,140.592,269.619z"/>
		<path style="fill:none;" d="M136.392,270.547c-0.69,0.124-1.38,0.234-2.068,0.331
			C135.012,270.781,135.701,270.671,136.392,270.547z"/>
		<path style="fill:none;" d="M138.48,270.127c-0.522,0.114-1.044,0.219-1.565,0.317
			C137.437,270.346,137.958,270.241,138.48,270.127z"/>
		<path style="fill:none;" d="M142.768,269.006c-0.474,0.144-0.948,0.282-1.423,0.412
			C141.819,269.288,142.293,269.149,142.768,269.006z"/>
		<path style="fill:none;" d="M145.266,268.193c-0.605,0.213-1.211,0.415-1.818,0.607
			C144.055,268.608,144.66,268.406,145.266,268.193z"/>
		<path style="fill:none;" d="M124.947,271.335c-0.296-0.013-0.591-0.031-0.886-0.05
			C124.355,271.304,124.65,271.322,124.947,271.335z"/>
		<path style="fill:none;" d="M127.106,271.391c0.093,0,0.187-0.005,0.279-0.005c-0.292,0.001-0.58-0.007-0.871-0.011
			C126.713,271.378,126.908,271.391,127.106,271.391z"/>
		<path style="fill:none;" d="M129.427,271.33c-0.443,0.021-0.885,0.034-1.325,0.043
			C128.542,271.364,128.984,271.351,129.427,271.33z"/>
		<path style="fill:none;" d="M133.853,270.937c-0.531,0.07-1.062,0.134-1.59,0.188C132.791,271.07,133.321,271.007,133.853,270.937
			z"/>
		<path style="fill:none;" d="M131.536,271.188c-0.448,0.039-0.894,0.073-1.339,0.101
			C130.642,271.262,131.088,271.228,131.536,271.188z"/>
		<path style="fill:none;" d="M145.53,268.104c0.606-0.217,1.213-0.445,1.817-0.684c-0.004-0.001-0.008-0.001-0.012-0.002
			C146.735,267.655,146.134,267.888,145.53,268.104z"/>
		<path style="fill:none;" d="M61.149,12.375c0.061,0.011,0.12,0.027,0.181,0.038C61.27,12.401,61.21,12.386,61.149,12.375z"/>
		<path style="fill:none;" d="M54.191,12.355c0.164-0.026,0.327-0.052,0.49-0.074C54.518,12.303,54.355,12.329,54.191,12.355z"/>
		<path style="fill:none;" d="M59.21,12.137c0.135,0.01,0.271,0.02,0.405,0.032C59.481,12.156,59.346,12.147,59.21,12.137z"/>
		<path style="fill:none;" d="M55.829,12.156c0.104-0.009,0.209-0.022,0.314-0.03C56.038,12.133,55.933,12.147,55.829,12.156z"/>
		<path style="fill:none;" d="M57.666,12.07c-0.03,0-0.061,0.003-0.091,0.003c0.104,0,0.205,0.005,0.309,0.006
			C57.811,12.079,57.739,12.07,57.666,12.07z"/>
		<path style="fill:none;" d="M62.659,12.721c0.129,0.035,0.258,0.071,0.386,0.109C62.917,12.792,62.789,12.756,62.659,12.721z"/>
		<path style="fill:none;" d="M49.385,13.624c0.131-0.049,0.262-0.102,0.395-0.149C49.647,13.522,49.517,13.575,49.385,13.624z"/>
		<path style="fill:none;" d="M46.415,14.947c0.144-0.075,0.289-0.145,0.434-0.217C46.704,14.802,46.558,14.871,46.415,14.947z"/>
		<path style="fill:none;" d="M52.692,12.637c0.162-0.036,0.323-0.067,0.484-0.1C53.015,12.57,52.854,12.602,52.692,12.637z"/>
		<path style="fill:none;" d="M97.93,259.279c-0.173-0.202-0.348-0.403-0.517-0.611C97.582,258.876,97.757,259.077,97.93,259.279z"
			/>
		<path style="fill:none;" d="M96.525,257.511c-0.137-0.186-0.279-0.365-0.412-0.555C96.246,257.146,96.388,257.325,96.525,257.511z
			"/>
		<path style="fill:none;" d="M51.227,13.008c0.09-0.026,0.181-0.046,0.271-0.072C51.408,12.962,51.317,12.982,51.227,13.008z"/>
		<path style="fill:none;" d="M99.396,260.875c-0.191-0.193-0.378-0.39-0.564-0.588C99.017,260.485,99.205,260.682,99.396,260.875z"
			/>
		<path style="fill:none;" d="M47.847,14.255c0.16-0.072,0.321-0.143,0.482-0.211C48.167,14.112,48.007,14.183,47.847,14.255z"/>
		<path style="fill:#010101;" d="M153.915,264.359c-0.468,0.252-0.938,0.499-1.408,0.737
			C152.978,264.858,153.447,264.611,153.915,264.359z"/>
		<path style="fill:#010101;" d="M156.564,262.857c-0.667,0.402-1.339,0.786-2.013,1.16
			C155.226,263.644,155.897,263.26,156.564,262.857z"/>
		<path style="fill:#010101;" d="M151.769,265.463c-0.451,0.221-0.904,0.436-1.358,0.644
			C150.864,265.898,151.317,265.684,151.769,265.463z"/>
		<path style="fill:#010101;" d="M149.685,266.438c-0.498,0.221-0.997,0.432-1.497,0.637
			C148.688,266.869,149.187,266.658,149.685,266.438z"/>
		<path style="fill:#010101;" d="M147.348,267.42c0.088-0.035,0.177-0.071,0.265-0.106c-0.092,0.037-0.185,0.068-0.276,0.104
			C147.34,267.419,147.344,267.419,147.348,267.42z"/>
		<path style="fill:#010101;" d="M261.027,168.548L191.41,52.789c-0.168-0.283-0.35-0.552-0.543-0.813
			c-1.494-2.214-3.65-3.922-6.316-4.99l-92.075-37c-5.062-2.032-11.464-1.546-17.211,1.202l83.518,33.562
			c3.721,1.491,6.825,3.943,8.985,7.096c0.29,0.398,0.559,0.803,0.784,1.184L238.17,168.79c12.617,20.99,1.816,50.77-24.077,66.383
			l-54.147,32.652c8.169-0.775,16.666-3.505,24.619-8.301l54.43-32.822C262.063,212.792,271.943,186.708,261.027,168.548z"/>
		<path style="fill:#010101;" d="M233.027,171.881L163.41,56.122c-0.168-0.283-0.35-0.552-0.543-0.813
			c-1.494-2.214-3.65-3.922-6.316-4.99l-92.075-37c-0.465-0.187-0.945-0.344-1.431-0.489c-0.128-0.038-0.257-0.074-0.386-0.109
			c-0.436-0.118-0.878-0.223-1.329-0.309c-0.061-0.011-0.12-0.027-0.181-0.038c-0.504-0.09-1.017-0.156-1.534-0.206
			c-0.134-0.013-0.27-0.022-0.405-0.032c-0.438-0.033-0.881-0.053-1.327-0.058c-0.104-0.001-0.205-0.006-0.309-0.006
			c-0.475,0.002-0.953,0.019-1.433,0.053c-0.104,0.007-0.209,0.021-0.314,0.03c-0.381,0.032-0.764,0.073-1.147,0.125
			c-0.163,0.022-0.327,0.048-0.49,0.074c-0.338,0.053-0.676,0.114-1.015,0.182c-0.162,0.033-0.323,0.064-0.484,0.1
			c-0.398,0.089-0.796,0.19-1.194,0.299c-0.09,0.025-0.181,0.045-0.271,0.072c-0.484,0.14-0.967,0.296-1.447,0.467
			c-0.132,0.047-0.263,0.1-0.395,0.149c-0.354,0.132-0.706,0.271-1.056,0.419c-0.161,0.068-0.322,0.14-0.482,0.211
			c-0.335,0.15-0.668,0.309-0.999,0.475c-0.145,0.072-0.29,0.142-0.434,0.217c-0.465,0.243-0.926,0.497-1.379,0.771
			c-6.266,3.78-10.562,9.938-11.213,16.076L23.406,130.61c-0.304,2.847,0.195,5.546,1.446,7.904
			c0.138,0.296,0.295,0.587,0.465,0.873L94.93,255.146c0.374,0.622,0.771,1.223,1.184,1.81c0.133,0.189,0.275,0.369,0.412,0.555
			c0.289,0.393,0.583,0.781,0.889,1.157c0.168,0.208,0.343,0.409,0.517,0.611c0.294,0.343,0.593,0.68,0.901,1.008
			c0.186,0.198,0.373,0.395,0.564,0.588c0.32,0.324,0.65,0.64,0.984,0.949c0.188,0.174,0.373,0.35,0.564,0.52
			c0.383,0.338,0.778,0.663,1.178,0.983c0.153,0.122,0.302,0.251,0.458,0.371c0.564,0.435,1.142,0.854,1.736,1.253
			c0.066,0.044,0.136,0.084,0.202,0.128c0.528,0.349,1.065,0.685,1.615,1.005c0.199,0.116,0.403,0.224,0.604,0.336
			c0.429,0.238,0.861,0.473,1.302,0.694c0.234,0.118,0.472,0.23,0.709,0.344c0.424,0.202,0.853,0.397,1.286,0.583
			c0.247,0.106,0.494,0.212,0.744,0.313c0.45,0.183,0.906,0.354,1.365,0.52c0.237,0.085,0.471,0.174,0.71,0.255
			c0.54,0.184,1.088,0.352,1.64,0.513c0.163,0.047,0.322,0.102,0.486,0.146c0.723,0.201,1.456,0.385,2.197,0.548
			c0.146,0.032,0.297,0.057,0.445,0.088c0.592,0.124,1.188,0.239,1.791,0.34c0.257,0.043,0.518,0.077,0.777,0.116
			c0.502,0.074,1.006,0.143,1.515,0.201c0.29,0.032,0.581,0.061,0.872,0.089c0.492,0.046,0.987,0.085,1.485,0.116
			c0.294,0.019,0.589,0.037,0.886,0.05c0.52,0.022,1.043,0.034,1.568,0.04c0.291,0.004,0.579,0.012,0.871,0.011
			c0.238-0.001,0.478-0.009,0.717-0.013c0.44-0.009,0.882-0.022,1.325-0.043c0.256-0.012,0.513-0.025,0.77-0.041
			c0.445-0.027,0.892-0.062,1.339-0.101c0.242-0.021,0.483-0.04,0.726-0.064c0.529-0.054,1.059-0.117,1.59-0.188
			c0.157-0.021,0.314-0.036,0.471-0.059c0.688-0.097,1.377-0.207,2.068-0.331c0.174-0.031,0.349-0.069,0.524-0.103
			c0.521-0.099,1.043-0.203,1.565-0.317c0.24-0.053,0.48-0.11,0.721-0.166c0.463-0.108,0.927-0.222,1.391-0.342
			c0.251-0.065,0.502-0.132,0.753-0.201c0.475-0.13,0.949-0.269,1.423-0.412c0.227-0.068,0.453-0.134,0.68-0.205
			c0.607-0.192,1.213-0.395,1.818-0.607c0.089-0.031,0.177-0.059,0.265-0.09c0.604-0.216,1.205-0.448,1.806-0.686
			c0.092-0.036,0.185-0.067,0.276-0.104c0.192-0.077,0.384-0.16,0.575-0.239c0.5-0.205,0.999-0.416,1.497-0.637
			c0.242-0.107,0.484-0.22,0.726-0.331c0.454-0.208,0.907-0.423,1.358-0.644c0.246-0.12,0.493-0.241,0.738-0.366
			c0.471-0.238,0.94-0.485,1.408-0.737c0.212-0.114,0.425-0.226,0.637-0.342c0.674-0.374,1.346-0.758,2.013-1.16l54.43-32.822
			C234.063,216.125,243.943,190.041,233.027,171.881z M79.54,52.322c3.151,5.237,1.465,12.036-3.771,15.19
			c-5.234,3.152-12.033,1.464-15.188-3.772c-3.152-5.235-1.464-12.035,3.771-15.187C69.587,45.399,76.387,47.087,79.54,52.322z"/>
	</g>
</g>
</svg>
