<?xml version="1.0" encoding="utf-8"?>
<!-- Generator: Adobe Illustrator 15.1.0, SVG Export Plug-In . SVG Version: 6.00 Build 0)  -->
<!DOCTYPE svg PUBLIC "-//W3C//DTD SVG 1.1//EN" "http://www.w3.org/Graphics/SVG/1.1/DTD/svg11.dtd">
<svg version="1.1" id="Layer_1" xmlns="http://www.w3.org/2000/svg" xmlns:xlink="http://www.w3.org/1999/xlink" x="0px" y="0px"
	 width="283.46px" height="283.46px" viewBox="0 0 283.46 283.46" enable-background="new 0 0 283.46 283.46" xml:space="preserve">
<g>
	<path d="M141.729,79.121c-34.522,0-62.608,28.086-62.608,62.608s28.086,62.608,62.608,62.608c34.523,0,62.609-28.086,62.609-62.608
		S176.252,79.121,141.729,79.121z M141.729,163.277c-11.899,0-21.547-9.647-21.547-21.547c0-11.9,9.647-21.548,21.547-21.548
		c11.9,0,21.546,9.647,21.546,21.548C163.275,153.63,153.629,163.277,141.729,163.277z"/>
	<path d="M141.73,7.084C67.368,7.084,7.084,67.367,7.084,141.73c0,74.362,60.283,134.646,134.646,134.646
		c74.362,0,134.645-60.283,134.645-134.646C276.375,67.367,216.092,7.084,141.73,7.084z M141.73,254.928
		c-62.518,0-113.199-50.68-113.199-113.196c0-62.52,50.681-113.2,113.199-113.2s113.198,50.681,113.198,113.2
		C254.928,204.248,204.248,254.928,141.73,254.928z"/>
	<path d="M212.609,70.85C193.678,51.917,168.506,41.49,141.73,41.49c-26.775,0-51.948,10.427-70.88,29.359
		s-29.36,44.105-29.36,70.882c0,26.774,10.427,51.946,29.36,70.879s44.105,29.359,70.88,29.359
		c26.776,0,51.948-10.427,70.879-29.359c18.934-18.933,29.359-44.104,29.359-70.879C241.969,114.955,231.543,89.782,212.609,70.85z
		 M141.729,217.297c-41.734,0-75.566-33.832-75.566-75.567s33.832-75.567,75.566-75.567c41.734,0,75.568,33.832,75.568,75.567
		S183.463,217.297,141.729,217.297z"/>
</g>
</svg>
