<?xml version="1.0" encoding="utf-8"?>
<!-- Generator: Adobe Illustrator 15.1.0, SVG Export Plug-In . SVG Version: 6.00 Build 0)  -->
<!DOCTYPE svg PUBLIC "-//W3C//DTD SVG 1.1//EN" "http://www.w3.org/Graphics/SVG/1.1/DTD/svg11.dtd">
<svg version="1.1" id="Layer_5" xmlns="http://www.w3.org/2000/svg" xmlns:xlink="http://www.w3.org/1999/xlink" x="0px" y="0px"
	 width="283.46px" height="283.46px" viewBox="0 0 283.46 283.46" enable-background="new 0 0 283.46 283.46" xml:space="preserve">
<g>
	<path fill="none" d="M141.732,60.379c-44.901,0-81.353,36.452-81.354,81.35c0,44.902,36.452,81.355,81.354,81.355
		c44.901,0,81.352-36.455,81.352-81.355C223.084,96.832,186.633,60.379,141.732,60.379z M137.653,98.026h53.806
		c1.764,0,3.193,1.471,3.193,3.282c0,1.811-1.431,3.28-3.193,3.28h-53.805c-1.765,0-3.195-1.471-3.195-3.28
		C134.459,99.499,135.889,98.025,137.653,98.026z M88.229,85.39h31.835v31.834H88.229V85.39z M120.064,200.065H88.229V168.23h31.835
		V200.065z M120.064,143.696v14.948H88.229v-31.834h31.835v0.34c4.915-4.915,9.491-9.49,11.094-11.093
		c0.54-0.537,1.255-0.833,2.016-0.833c0.762,0,1.479,0.297,2.018,0.836l1.27,1.271c1.034,1.034,2.25,2.25,2.97,2.968
		c1.102,1.109,1.103,2.915-0.004,4.032l-15.608,15.61L120.064,143.696z M191.459,187.43h-53.805c-1.765,0-3.195-1.471-3.195-3.28
		c0-1.811,1.43-3.283,3.193-3.283h53.806c1.764,0,3.193,1.473,3.193,3.283C194.652,185.962,193.222,187.43,191.459,187.43z
		 M212.895,142.73c0,1.813-1.863,3.281-4.162,3.281h-70.11c-2.299,0-4.163-1.47-4.163-3.281c0-1.813,1.864-3.285,4.162-3.285h70.111
		C211.031,139.445,212.895,140.916,212.895,142.73z"/>
	<path fill="#010101" d="M275.746,154.752c0.842-8.658,0.842-17.382,0-26.043l-20.881-4.292c-1.271-8.301-3.451-16.438-6.498-24.262
		L264.303,86c-3.6-7.919-7.963-15.473-13.021-22.556l-20.229,6.729c-5.254-6.556-11.211-12.512-17.762-17.761l6.727-20.231
		c-7.078-5.057-14.633-9.42-22.557-13.023L183.305,35.1c-7.824-3.05-15.959-5.231-24.262-6.5l-4.287-20.884
		c-8.662-0.842-17.386-0.842-26.047,0L124.42,28.6c-8.303,1.269-16.438,3.45-24.262,6.5L86.003,19.158
		c-7.923,3.603-15.477,7.964-22.557,13.023l6.727,20.231c-6.553,5.249-12.509,11.205-17.761,17.761l-20.229-6.729
		C27.123,70.526,22.761,78.08,19.161,86L35.1,100.156c-3.05,7.824-5.231,15.961-6.5,24.262L7.716,128.71
		c-0.842,8.66-0.842,17.384,0,26.042l20.884,4.289c1.269,8.305,3.45,16.439,6.5,24.268l-15.939,14.154
		c3.601,7.918,7.962,15.475,13.023,22.555l20.229-6.729c5.251,6.559,11.208,12.514,17.761,17.76l-6.727,20.232
		c7.079,5.059,14.633,9.42,22.557,13.021l14.154-15.941c7.825,3.051,15.959,5.23,24.262,6.5l4.29,20.885
		c8.66,0.842,17.386,0.842,26.046,0l4.289-20.885c8.305-1.27,16.436-3.449,24.262-6.5l14.156,15.941
		c7.92-3.602,15.477-7.965,22.555-13.021l-6.725-20.232c6.551-5.246,12.506-11.201,17.76-17.76l20.23,6.729
		c5.059-7.08,9.422-14.633,13.02-22.557l-15.936-14.152c3.047-7.826,5.227-15.963,6.496-24.268L275.746,154.752z M141.732,223.084
		c-44.902,0-81.354-36.453-81.354-81.355c0.001-44.898,36.453-81.35,81.354-81.35s81.352,36.453,81.352,81.35
		C223.084,186.629,186.633,223.084,141.732,223.084z"/>
	<path d="M137.654,104.588h53.805c1.763,0,3.193-1.469,3.193-3.28c0-1.811-1.43-3.282-3.193-3.282h-53.806
		c-1.764-0.001-3.193,1.473-3.193,3.282C134.459,103.118,135.889,104.588,137.654,104.588z"/>
	<path d="M134.459,142.73c0,1.811,1.864,3.281,4.163,3.281h70.11c2.299,0,4.162-1.468,4.162-3.281c0-1.814-1.863-3.285-4.162-3.285
		h-70.111C136.324,139.445,134.459,140.917,134.459,142.73z"/>
	<path d="M191.459,180.866h-53.806c-1.764,0-3.193,1.473-3.193,3.283c0,1.81,1.43,3.28,3.195,3.28h53.805
		c1.763,0,3.193-1.468,3.193-3.28C194.652,182.339,193.223,180.866,191.459,180.866z"/>
	<path fill="#010101" d="M120.064,85.39H88.229v31.834h31.835V85.39z M117.821,114.981h-27.35V87.633h27.35V114.981z"/>
	<path fill="#010101" d="M88.229,200.065h31.835V168.23H88.229V200.065z M90.471,170.474h27.351v27.349H90.471V170.474z"/>
	<rect x="92.471" y="89.633" fill="#010101" width="23.35" height="23.348"/>
	<rect x="92.471" y="172.474" fill="#010101" width="23.351" height="23.349"/>
	<path fill="#010101" d="M117.821,156.402h-10.816c-0.332,0.129-0.686,0.203-1.045,0.203c-0.367,0-0.722-0.072-1.054-0.203H90.471
		v-14.095c-0.292-0.292-0.55-0.551-0.754-0.756c-0.542-0.539-0.842-1.257-0.842-2.022c0-0.765,0.298-1.484,0.836-2.019l0.76-0.76
		v-7.697h27.35v0.34c0.444-0.444,0.888-0.888,1.331-1.331c0.305-0.305,0.609-0.609,0.912-0.912v-0.34H88.229v31.834h31.835v-14.948
		l-2.243,2.243V156.402z"/>
	<polygon fill="#010101" points="115.821,154.402 115.821,147.939 109.359,154.402 	"/>
	<path fill="#010101" d="M95.965,132.438c0.763,0,1.48,0.298,2.017,0.835c1.563,1.562,5.769,5.77,7.979,7.983
		c1.974-1.975,5.773-5.775,9.861-9.863v-0.34h-23.35v3.696l1.477-1.478C94.487,132.735,95.203,132.438,95.965,132.438z"/>
	<path fill="#010101" d="M100.804,152.644c-2.543-2.544-5.876-5.877-8.333-8.334v10.093h10.091L100.804,152.644z"/>
	<path fill="#010101" d="M96.567,134.688c-0.166-0.167-0.384-0.25-0.603-0.25c-0.219,0-0.438,0.083-0.604,0.25
		C95.694,134.355,96.235,134.355,96.567,134.688z"/>
	<path d="M133.777,117.475c-0.167-0.167-0.385-0.25-0.604-0.25c-0.055,0-0.107,0.021-0.161,0.031
		c-0.161,0.031-0.318,0.094-0.444,0.219c-3.619,3.616-22.386,22.385-26.005,26.007c-0.117,0.116-0.261,0.177-0.411,0.212
		c-0.064,0.015-0.127,0.037-0.192,0.037c-0.109,0-0.219-0.021-0.322-0.063c-0.103-0.041-0.2-0.104-0.283-0.187
		c-1.781-1.786-7.005-7.012-8.789-8.794c-0.332-0.333-0.873-0.333-1.207,0c-1.048,1.048-3.188,3.189-4.234,4.236
		c-0.335,0.333-0.335,0.875,0,1.208c2.458,2.463,11.704,11.708,14.207,14.212c0.167,0.166,0.392,0.261,0.627,0.261
		c0.236,0,0.462-0.095,0.629-0.261c4.133-4.132,27.367-27.372,31.424-31.428c0.332-0.334,0.332-0.874,0-1.208
		C136.963,120.662,134.823,118.521,133.777,117.475z"/>
</g>
</svg>
