<?xml version="1.0" encoding="utf-8"?>
<!-- Generator: Adobe Illustrator 15.1.0, SVG Export Plug-In . SVG Version: 6.00 Build 0)  -->
<!DOCTYPE svg PUBLIC "-//W3C//DTD SVG 1.1//EN" "http://www.w3.org/Graphics/SVG/1.1/DTD/svg11.dtd">
<svg version="1.1" id="Layer_4" xmlns="http://www.w3.org/2000/svg" xmlns:xlink="http://www.w3.org/1999/xlink" x="0px" y="0px"
	 width="283.46px" height="283.46px" viewBox="0 0 283.46 283.46" enable-background="new 0 0 283.46 283.46" xml:space="preserve">
<g>
	<path fill="#010101" d="M267.27,7.085c-38.756,0-212.321,0-251.078,0c-5.028,0-9.106,4.077-9.106,9.105
		c0,28.748,0,222.33,0,251.079c0,5.028,4.078,9.106,9.105,9.106c38.757,0,212.323,0,251.079,0c5.03,0,9.106-4.078,9.106-9.106
		c0-28.747,0-222.331,0-251.079C276.376,11.162,272.3,7.085,267.27,7.085z M119.088,62.456h95.423c3.128,0,5.665,2.609,5.665,5.82
		c0,3.212-2.538,5.816-5.665,5.816h-95.422c-3.131,0-5.668-2.607-5.668-5.816C113.421,65.068,115.959,62.455,119.088,62.456z
		 M30.935,39.546h57.458v57.458H30.935V39.546z M88.393,243.914H30.935v-57.458h57.458V243.914z M88.393,172.684H30.935v-57.458
		h57.458v0.57c8.938-8.938,17.357-17.357,20.266-20.263c1.331-1.329,3.64-1.327,4.969-0.001l7.51,7.51
		c1.366,1.372,1.366,3.598,0.006,4.968l-32.75,32.75V172.684z M214.511,221.005h-95.422c-3.131,0-5.668-2.608-5.668-5.817
		c0-3.21,2.538-5.823,5.667-5.823h95.423c3.128,0,5.665,2.61,5.665,5.823C220.176,218.399,217.638,221.005,214.511,221.005z
		 M245.145,147.551H120.806c-4.078,0-7.385-2.608-7.385-5.82c0-3.209,3.309-5.821,7.384-5.82h124.34c4.075,0,7.381,2.609,7.381,5.82
		C252.525,144.945,249.22,147.551,245.145,147.551z"/>
	<path d="M88.393,39.546H30.935v57.458h57.458V39.546z M87.393,96.003H31.935V40.546h55.458V96.003z"/>
	<path d="M30.935,243.914h57.458v-57.458H30.935V243.914z M31.935,187.456h55.458v55.458H31.935V187.456z"/>
	<path d="M121.137,103.041l-7.51-7.51c-1.329-1.326-3.638-1.328-4.969,0.001c-2.908,2.905-11.328,11.325-20.266,20.263v-0.57H30.935
		v57.458h57.458v-31.924l32.75-32.75C122.503,106.639,122.503,104.413,121.137,103.041z M87.393,171.684H31.935v-55.458h55.458v0.57
		c-5.046,5.045-10.195,10.195-14.563,14.563l-9.949,9.949c-3.438-3.442-12.189-12.192-15.239-15.239
		c-1.325-1.333-3.644-1.335-4.975-0.005l-7.506,7.508c-0.667,0.664-1.035,1.548-1.034,2.49c0,0.941,0.368,1.825,1.03,2.482
		c2.507,2.509,8.993,8.996,14.898,14.9l10.297,10.299c0.676,0.676,1.573,1.048,2.527,1.048c0.944,0,1.867-0.383,2.529-1.048
		l21.983-21.983V171.684z M62.881,160.614l-9.997-9.999c-5.648-5.648-11.83-11.83-14.554-14.556l6.822-6.825
		c3.44,3.439,12.19,12.188,15.243,15.244c1.33,1.327,3.645,1.326,4.972-0.002l10.291-10.291
		c12.135-12.135,30.32-30.321,35.484-35.482l6.824,6.824L62.881,160.614z"/>
</g>
</svg>
