<?xml version="1.0" encoding="utf-8"?>
<!-- Generator: Adobe Illustrator 15.1.0, SVG Export Plug-In . SVG Version: 6.00 Build 0)  -->
<!DOCTYPE svg PUBLIC "-//W3C//DTD SVG 1.1//EN" "http://www.w3.org/Graphics/SVG/1.1/DTD/svg11.dtd">
<svg version="1.1" id="Layer_3" xmlns="http://www.w3.org/2000/svg" xmlns:xlink="http://www.w3.org/1999/xlink" x="0px" y="0px"
	 width="283.46px" height="283.46px" viewBox="0 0 283.46 283.46" enable-background="new 0 0 283.46 283.46" xml:space="preserve">
<g>
	<path d="M241.788,75.839h-12.892V32.868h12.891c2.373,0,4.297-1.924,4.297-4.297V11.382c0-2.373-1.924-4.298-4.297-4.298H106.562
		c-2.374,0-4.298,1.925-4.298,4.298v64.457H77.34c-2.373,0-4.297,1.925-4.297,4.298v4.297h-8.595v-4.297
		c0-2.373-1.924-4.298-4.297-4.298h-9.884c-7.109,0-12.892,5.783-12.892,12.893c0,7.108,5.782,12.892,12.892,12.892h9.884
		c2.373,0,4.297-1.925,4.297-4.298v-4.297h8.595v4.297c0,2.373,1.924,4.298,4.297,4.298h16.33v8.973
		c-11.701,2.043-20.627,12.269-20.627,24.545v67.049c0,12.277,8.926,22.501,20.627,24.545v17.281c0,5.04,3.743,9.214,8.594,9.912
		v18.15c0,2.373,1.924,4.297,4.298,4.297c2.373,0,4.297-1.924,4.297-4.297v-18.15c4.851-0.699,8.595-4.872,8.595-9.912v-17.281
		c11.7-2.044,20.626-12.268,20.626-24.545v-67.049c0-12.276-8.926-22.502-20.626-24.545v-8.973h122.334
		c2.373,0,4.297-1.925,4.297-4.298V80.137C246.084,77.764,244.161,75.839,241.788,75.839z M55.855,93.029h-5.587
		c-2.37,0-4.298-1.928-4.298-4.297c0-2.37,1.928-4.298,4.298-4.298h5.587V93.029z M110.859,15.679h126.632v8.595H110.859V15.679z
		 M102.264,101.624h8.595v8.594h-8.595V101.624z M110.859,244.016c0,0.775-0.656,1.433-1.433,1.433h-5.729
		c-0.776,0-1.433-0.657-1.433-1.433v-16.902h8.595V244.016z M118.593,206.488H94.529c-2.373,0-4.297-1.924-4.297-4.298
		c0-2.373,1.924-4.297,4.297-4.297h24.064c2.373,0,4.298,1.924,4.298,4.297C122.891,204.564,120.966,206.488,118.593,206.488z
		 M118.593,189.725H94.529c-2.373,0-4.297-1.924-4.297-4.297c0-2.374,1.924-4.298,4.297-4.298h24.064
		c2.373,0,4.298,1.924,4.298,4.298C122.891,187.801,120.966,189.725,118.593,189.725z M118.593,172.962H94.529
		c-2.373,0-4.297-1.924-4.297-4.297s1.924-4.298,4.297-4.298h24.064c2.373,0,4.298,1.925,4.298,4.298
		S120.966,172.962,118.593,172.962z M118.593,156.2H94.529c-2.373,0-4.297-1.924-4.297-4.297s1.924-4.297,4.297-4.297h24.064
		c2.373,0,4.298,1.924,4.298,4.297S120.966,156.2,118.593,156.2z M122.891,135.141c0,2.373-1.925,4.297-4.298,4.297H94.529
		c-2.373,0-4.297-1.924-4.297-4.297s1.924-4.297,4.297-4.297h24.064C120.966,130.844,122.891,132.768,122.891,135.141z
		 M121.353,77.74h-12.395V30.968h12.395V77.74z M171.778,75.839c0,1.05-0.851,1.9-1.9,1.9h-8.595c-1.05,0-1.9-0.851-1.9-1.9v-30.08
		c0-1.32-1.074-2.396-2.396-2.396c-1.322,0-2.399,1.075-2.399,2.396v30.08c0,1.05-0.851,1.9-1.899,1.9h-24.641
		c-1.05,0-1.9-0.851-1.9-1.9V32.868c0-1.049,0.851-1.899,1.9-1.899h41.83c1.05,0,1.9,0.851,1.9,1.899V75.839z M222.201,75.839
		c0,1.05-0.851,1.9-1.899,1.9h-8.595c-1.05,0-1.9-0.851-1.9-1.9v-30.08c0-1.321-1.075-2.396-2.397-2.396
		c-1.321,0-2.397,1.075-2.397,2.396v30.08c0,1.05-0.851,1.9-1.899,1.9H178.47c-1.049,0-1.899-0.851-1.899-1.9V32.868
		c0-1.049,0.851-1.899,1.899-1.899h41.831c1.049,0,1.899,0.851,1.899,1.899V75.839z"/>
	<rect x="112.758" y="34.768" width="4.795" height="39.172"/>
	<path d="M180.371,73.94h20.841V45.759c0-3.416,2.779-6.196,6.197-6.197c3.417,0,6.197,2.78,6.197,6.197V73.94h4.795V34.768h-38.03
		V73.94z"/>
	<path d="M129.948,73.94h20.84V45.759c0-3.417,2.781-6.197,6.2-6.197c3.416,0.002,6.194,2.782,6.194,6.197V73.94h4.796V34.768
		h-38.03V73.94z"/>
</g>
</svg>
