<?xml version="1.0" encoding="utf-8"?>
<!-- Generator: Adobe Illustrator 15.1.0, SVG Export Plug-In . SVG Version: 6.00 Build 0)  -->
<!DOCTYPE svg PUBLIC "-//W3C//DTD SVG 1.1//EN" "http://www.w3.org/Graphics/SVG/1.1/DTD/svg11.dtd">
<svg version="1.1" id="Layer_1" xmlns="http://www.w3.org/2000/svg" xmlns:xlink="http://www.w3.org/1999/xlink" x="0px" y="0px"
	 width="283.46px" height="283.46px" viewBox="0 0 283.46 283.46" enable-background="new 0 0 283.46 283.46" xml:space="preserve">
<g>
	<path d="M35.427,224.82h-9.093c-2.204,0-4.357-0.891-5.912-2.447c-1.021-1.021-1.768-2.311-2.149-3.713
		c-0.006-0.02-0.013-0.037-0.018-0.053c-0.175-0.678-0.275-1.375-0.275-2.078v-9.094c0-2.967-2.407-5.375-5.374-5.375
		c-2.968,0-5.375,2.408-5.375,5.375c0,3.266,0,6.307,0,9.094c0,1.664,0.238,3.297,0.656,4.881c0.006,0.023,0.008,0.049,0.015,0.072
		c0.005,0.018,0.012,0.035,0.017,0.055c0.125,0.459,0.271,0.912,0.429,1.361c0.005,0.014,0.01,0.025,0.014,0.039
		c0.942,2.645,2.442,5.084,4.465,7.104c0.007,0.006,0.014,0.014,0.02,0.02c0.002,0,0.004,0.002,0.005,0.004
		c0.006,0.008,0.012,0.014,0.019,0.02c0,0,0.001,0,0.002,0c0.005,0.008,0.011,0.014,0.017,0.018
		c0.002,0.002,0.002,0.004,0.003,0.004c0.008,0.006,0.015,0.014,0.02,0.018c0.001,0.002,0.001,0.002,0.001,0.002
		c0.007,0.006,0.014,0.014,0.02,0.018c0.001,0.002,0.003,0.004,0.003,0.004c0.014,0.012,0.025,0.027,0.039,0.039
		c0.001,0.002,0.003,0.002,0.004,0.004c0.006,0.008,0.013,0.012,0.02,0.02c0.001,0,0.001,0,0.001,0
		c0.006,0.008,0.011,0.012,0.019,0.016c0,0.002,0.001,0.004,0.003,0.006c0.007,0.004,0.013,0.012,0.02,0.018
		c0,0,0,0.002,0.001,0.002c0.007,0.006,0.013,0.012,0.019,0.018c0.002,0.002,0.002,0.002,0.003,0.004
		c0.007,0.006,0.014,0.012,0.02,0.02c0.001,0,0.002,0,0.002,0.002c0.006,0.004,0.013,0.01,0.019,0.018
		c0.001,0,0.003,0.002,0.003,0.002c0.007,0.006,0.014,0.014,0.02,0.02c0.001,0,0.001,0.002,0.002,0.002
		c0.006,0.004,0.011,0.01,0.019,0.016c0,0.002,0.001,0.002,0.003,0.002c0.007,0.006,0.013,0.014,0.02,0.02
		c0.001,0.002,0.002,0.002,0.002,0.002c0.006,0.006,0.012,0.012,0.018,0.018c0.001,0.002,0.003,0.002,0.003,0.002
		c0.007,0.006,0.014,0.014,0.021,0.02c0.001,0,0.001,0,0.002,0c0.006,0.008,0.012,0.014,0.019,0.02c0.002,0,0.002,0.002,0.003,0.002
		c0.007,0.008,0.013,0.014,0.019,0.02c0.001,0,0.002,0,0.002,0.002c0.008,0.006,0.014,0.012,0.02,0.016
		c0.001,0,0.002,0.002,0.002,0.002c0.007,0.008,0.015,0.014,0.021,0.02c0,0,0.001,0,0.002,0.002
		c0.005,0.006,0.011,0.012,0.018,0.018c0.001,0,0.002,0.002,0.003,0.002c0.007,0.008,0.014,0.014,0.021,0.02c0,0,0,0,0.002,0.002
		c0.006,0.006,0.013,0.012,0.019,0.018c0,0,0,0.002,0.002,0.002c0.006,0.008,0.014,0.014,0.02,0.02c0.002,0,0.002,0,0.002,0.002
		c0.007,0.006,0.015,0.01,0.021,0.016c0.001,0,0.001,0.002,0.002,0.002c0.007,0.006,0.013,0.012,0.02,0.02
		c0.001,0,0.001,0,0.002,0.002c0.007,0.006,0.013,0.012,0.02,0.018c0,0,0.001,0,0.002,0.002c0.007,0.006,0.014,0.012,0.021,0.018
		c0.001,0.002,0.002,0.002,0.003,0.004c0.006,0.006,0.012,0.01,0.018,0.016c0.001,0.002,0.002,0.002,0.003,0.002
		c0.007,0.008,0.013,0.012,0.021,0.02c0.001,0,0.002,0.002,0.002,0.002c0.007,0.006,0.014,0.01,0.02,0.016
		c0.001,0,0.001,0.002,0.001,0.002c0.007,0.006,0.014,0.012,0.021,0.018c0.001,0.002,0.002,0.002,0.004,0.004
		c0.005,0.006,0.013,0.01,0.018,0.016c0.001,0.002,0.002,0.002,0.003,0.004c0.007,0.006,0.013,0.01,0.02,0.018
		c0.002,0,0.002,0.002,0.003,0.004c0.007,0.006,0.013,0.01,0.019,0.016c0.001,0,0.001,0.002,0.002,0.002
		c0.007,0.006,0.014,0.012,0.021,0.018c0.002,0.002,0.002,0.002,0.004,0.004c0.006,0.006,0.012,0.008,0.019,0.014
		c0,0.002,0.001,0.002,0.002,0.002c0.006,0.008,0.013,0.012,0.02,0.018c0.002,0.002,0.002,0.004,0.003,0.004
		c0.008,0.006,0.014,0.012,0.02,0.018c0.001,0,0.002,0,0.002,0c0.007,0.008,0.014,0.012,0.021,0.02l0.002,0.002
		c0.007,0.008,0.014,0.012,0.021,0.018c0,0,0,0,0,0.002c0.007,0.006,0.014,0.01,0.021,0.018c0.001,0,0.001,0.002,0.002,0.004
		c0.008,0.006,0.014,0.01,0.021,0.016s0.014,0.01,0.021,0.018c0.002,0,0.004,0.002,0.005,0.004c0.006,0.006,0.013,0.01,0.018,0.016
		c0.002,0,0.002,0.002,0.002,0.002c0.007,0.006,0.014,0.01,0.021,0.018c0.001,0,0.002,0.002,0.004,0.004
		c0.007,0.006,0.014,0.01,0.02,0.016l0.001,0.002c0.007,0.006,0.013,0.012,0.02,0.018c0.002,0,0.004,0.002,0.005,0.004
		c0.006,0.006,0.013,0.01,0.02,0.016l0,0c0.008,0.006,0.015,0.012,0.021,0.016c0.001,0.002,0.003,0.004,0.003,0.004
		c0.015,0.012,0.028,0.025,0.042,0.035c0.001,0.002,0.002,0.004,0.004,0.004c0.008,0.006,0.014,0.014,0.019,0.018h0.001
		c0.008,0.006,0.014,0.012,0.021,0.018c0.002,0,0.004,0.002,0.006,0.004c0.013,0.012,0.026,0.021,0.04,0.031
		c0.001,0.002,0.002,0.004,0.004,0.004c0.014,0.014,0.027,0.023,0.041,0.035c0.002,0,0.003,0.002,0.004,0.004
		c0.007,0.006,0.014,0.012,0.021,0.018c0.008,0.006,0.014,0.012,0.02,0.018c0.003,0.002,0.004,0.002,0.007,0.002
		c0.006,0.006,0.012,0.014,0.02,0.02c0,0,0.001,0,0.002,0c0.005,0.006,0.011,0.01,0.018,0.014c0.002,0.002,0.004,0.004,0.006,0.004
		c0.006,0.006,0.014,0.012,0.02,0.018c0.001,0,0.003,0.002,0.005,0.002c0.004,0.004,0.01,0.01,0.015,0.014
		c0.002,0.002,0.005,0.004,0.006,0.006c0.007,0.004,0.014,0.01,0.02,0.016c0.001,0.002,0.003,0.002,0.005,0.004
		c0.005,0.002,0.011,0.008,0.016,0.012c0.001,0.002,0.004,0.004,0.007,0.006c0.006,0.004,0.012,0.01,0.02,0.016
		c0.001,0.002,0.002,0.002,0.003,0.004c0.006,0.004,0.011,0.008,0.017,0.012c0.002,0.002,0.005,0.004,0.007,0.006
		c0.005,0.004,0.012,0.008,0.019,0.014c0.001,0.002,0.002,0.002,0.004,0.004c0.005,0.004,0.011,0.008,0.016,0.012
		c0.003,0.002,0.006,0.004,0.007,0.006c0.008,0.006,0.013,0.01,0.02,0.016c0.002,0.002,0.004,0.002,0.004,0.004
		c0.005,0.004,0.011,0.008,0.016,0.012c0.003,0.002,0.005,0.004,0.007,0.006c0.007,0.006,0.012,0.01,0.02,0.016
		c0.002,0.002,0.003,0.002,0.005,0.004c0.006,0.004,0.011,0.01,0.015,0.012c0.002,0.002,0.005,0.004,0.008,0.006
		c0.005,0.006,0.013,0.01,0.018,0.012c0.003,0.002,0.005,0.004,0.007,0.006c0.005,0.004,0.009,0.008,0.015,0.014
		c0.002,0,0.005,0.002,0.007,0.004c0.006,0.004,0.012,0.01,0.019,0.016c0.002,0,0.004,0.002,0.006,0.004
		c0.005,0.004,0.01,0.008,0.014,0.012c0.004,0.002,0.006,0.004,0.008,0.004c0.007,0.006,0.013,0.012,0.019,0.018
		c0.001,0.002,0.004,0.002,0.006,0.002c0.004,0.004,0.01,0.01,0.015,0.014c0.002,0.002,0.005,0.004,0.008,0.006
		c0.006,0.004,0.012,0.008,0.019,0.014c0.003,0.002,0.004,0.004,0.006,0.006c0.006,0,0.01,0.004,0.015,0.008
		c0.002,0.002,0.004,0.004,0.006,0.006c0.007,0.006,0.014,0.01,0.02,0.016c0.003,0,0.005,0.002,0.006,0.004
		c0.006,0.004,0.01,0.006,0.016,0.012c0.002,0.002,0.005,0.004,0.006,0.006c0.007,0.004,0.013,0.008,0.019,0.014
		c0.003,0.002,0.005,0.004,0.008,0.006c0.004,0.004,0.01,0.008,0.013,0.01c0.004,0.002,0.006,0.004,0.009,0.006
		c0.006,0.006,0.012,0.01,0.018,0.014c0.003,0.002,0.005,0.004,0.008,0.006c0.004,0.004,0.009,0.008,0.013,0.012
		c0.003,0.002,0.006,0.002,0.009,0.004c0.006,0.004,0.011,0.008,0.019,0.014c0.002,0.002,0.005,0.002,0.007,0.006
		c0.004,0.002,0.008,0.006,0.012,0.01c0.003,0.002,0.007,0.004,0.01,0.006c0.006,0.004,0.012,0.008,0.018,0.014
		c0.003,0.002,0.006,0.004,0.009,0.006c0.004,0.002,0.008,0.006,0.011,0.01c0.004,0.002,0.006,0.004,0.009,0.006
		c0.006,0.004,0.013,0.008,0.018,0.014c0.004,0.002,0.007,0.004,0.01,0.008c0.004,0.002,0.008,0.004,0.012,0.006
		c0.004,0.004,0.007,0.008,0.011,0.01c0.004,0.004,0.01,0.008,0.015,0.012c0.004,0,0.007,0.002,0.01,0.006
		c0.004,0.002,0.008,0.006,0.011,0.008c0.005,0.002,0.008,0.004,0.012,0.008c0.006,0.004,0.011,0.008,0.016,0.012
		c0.002,0.002,0.006,0.004,0.01,0.008c0.003,0.002,0.007,0.004,0.01,0.008c0.005,0.004,0.01,0.006,0.014,0.01
		c0.006,0.002,0.009,0.006,0.015,0.01c0.003,0.002,0.007,0.004,0.01,0.006c0.002,0.004,0.005,0.006,0.009,0.008
		c0.005,0.006,0.011,0.01,0.016,0.012c0.005,0.004,0.008,0.006,0.012,0.008c0.004,0.004,0.008,0.008,0.012,0.01
		c0.003,0,0.005,0.002,0.009,0.006c0.004,0.002,0.012,0.008,0.017,0.012c0.004,0.002,0.007,0.004,0.011,0.006
		s0.007,0.006,0.011,0.01c0.004,0.002,0.006,0.004,0.01,0.006c0.005,0.004,0.011,0.008,0.016,0.012
		c0.003,0.002,0.008,0.006,0.011,0.008c0.004,0.002,0.007,0.004,0.011,0.008c0.004,0.002,0.006,0.004,0.009,0.006
		c0.007,0.006,0.015,0.01,0.021,0.016c0.002,0.002,0.004,0.004,0.007,0.006s0.007,0.004,0.012,0.008
		c0.002,0,0.005,0.002,0.007,0.004c0.008,0.006,0.015,0.012,0.022,0.016c0.002,0.002,0.004,0.004,0.006,0.006
		c0.004,0.002,0.01,0.004,0.013,0.008c0.002,0.002,0.003,0.002,0.006,0.002c0.008,0.008,0.017,0.014,0.023,0.02
		c0.002,0,0.004,0,0.006,0.002c0.004,0.004,0.009,0.006,0.013,0.01c0.002,0.002,0.004,0.002,0.006,0.004
		c0.008,0.004,0.016,0.012,0.024,0.018c0.001,0.002,0.002,0.002,0.004,0.004c0.005,0.002,0.01,0.004,0.014,0.008
		c0.002,0.002,0.003,0.002,0.005,0.004c0.008,0.006,0.017,0.012,0.024,0.018c0.002,0.002,0.004,0.002,0.006,0.004
		c0.003,0.004,0.009,0.008,0.013,0.008c0.001,0.002,0.003,0.002,0.004,0.004c0.01,0.006,0.018,0.012,0.027,0.016
		c0.001,0.002,0.002,0.002,0.004,0.004c0.003,0.004,0.008,0.006,0.013,0.01c0.001,0.002,0.002,0.002,0.004,0.002
		c0.009,0.006,0.019,0.014,0.028,0.021h0.002c0.006,0.002,0.011,0.006,0.016,0.01c0,0,0,0.002,0.001,0.002
		c0.009,0.006,0.019,0.012,0.028,0.02c0.001,0,0.002,0.002,0.004,0.002c0.006,0.004,0.01,0.008,0.015,0.01h0.001
		c0.01,0.008,0.019,0.016,0.029,0.021c0,0,0.002,0,0.002,0.002c0.017,0.01,0.032,0.02,0.046,0.029
		C15.7,232.4,15.7,232.4,15.702,232.4c0.017,0.01,0.032,0.021,0.048,0.031c0.016,0.012,0.031,0.023,0.048,0.033h0.001
		c0.016,0.012,0.031,0.021,0.047,0.033c0,0,0.001,0,0.002,0c1.685,1.104,3.53,1.934,5.472,2.463c0.319,0.086,0.641,0.133,0.96,0.16
		c1.323,0.285,2.681,0.447,4.056,0.447c2.786,0,5.828,0,9.093,0c2.967,0,5.374-2.404,5.374-5.373
		C40.801,227.228,38.394,224.82,35.427,224.82z"/>
	<path d="M12.606,137.342c-2.968,0-5.375,2.405-5.375,5.375c0,11.836,0,23.361,0,34.043c0,2.969,2.407,5.375,5.375,5.375
		c2.967,0,5.374-2.406,5.374-5.375v-34.043C17.98,139.747,15.573,137.342,12.606,137.342z"/>
	<path d="M17.98,63.887c0-2.968-2.407-5.374-5.374-5.374c-2.968,0-5.375,2.406-5.375,5.374c0,10.59,0,22.124,0,34.038
		c0,2.968,2.407,5.374,5.375,5.374c2.967,0,5.374-2.406,5.374-5.374V63.887z"/>
	<path d="M12.459,42.815c0.771,0,1.501-0.165,2.163-0.458c1.968-0.798,3.357-2.724,3.357-4.979v-9.092
		c0-0.705,0.101-1.4,0.275-2.076c0.005-0.019,0.012-0.037,0.018-0.056c0.174-0.643,0.435-1.257,0.754-1.837
		c0.123-0.223,0.262-0.437,0.405-0.647c0.078-0.115,0.148-0.236,0.231-0.347c0.213-0.282,0.444-0.55,0.691-0.806
		c0.023-0.025,0.044-0.054,0.067-0.078c1.035-1.034,2.337-1.767,3.742-2.146c0.704-0.19,1.433-0.298,2.17-0.298h0.047h1.375h1.045
		v-0.001h6.416c2.969,0,5.375-2.407,5.375-5.375c0-2.967-2.406-5.374-5.375-5.374c-2.583,0-5.021,0-7.312,0c-0.529,0-1.06,0-1.571,0
		c-0.068,0-0.142,0-0.21,0c-1.433,0-2.844,0.178-4.22,0.49c-0.196,0.03-0.392,0.065-0.586,0.119
		c-0.151,0.041-0.298,0.096-0.447,0.141c-0.252,0.072-0.5,0.153-0.749,0.235c-0.157,0.054-0.313,0.11-0.47,0.168
		c-2.62,0.944-5.036,2.436-7.041,4.442c-0.006,0.006-0.012,0.013-0.019,0.019c-0.002,0.001-0.003,0.003-0.004,0.004
		c-0.008,0.007-0.012,0.013-0.019,0.02c0,0,0,0-0.001,0c-0.007,0.006-0.013,0.012-0.018,0.019c-0.002,0.001-0.003,0.002-0.005,0.003
		c-0.006,0.007-0.013,0.013-0.019,0.019c-0.001,0-0.001,0-0.001,0c-0.006,0.007-0.012,0.013-0.018,0.019
		c-0.002,0.001-0.003,0.002-0.004,0.003c-0.012,0.014-0.025,0.026-0.038,0.039c-0.002,0.001-0.003,0.002-0.004,0.004
		c-0.006,0.006-0.012,0.013-0.019,0.019c0,0,0,0,0,0.001c-0.007,0.006-0.013,0.012-0.019,0.019c-0.001,0-0.002,0.002-0.004,0.003
		c-0.007,0.006-0.013,0.013-0.019,0.02c0,0-0.001,0-0.001,0.001c-0.006,0.006-0.012,0.012-0.018,0.019
		c-0.001,0.001-0.002,0.002-0.004,0.003c-0.006,0.007-0.013,0.014-0.019,0.02c-0.001,0-0.001,0.001-0.002,0.001
		c-0.005,0.006-0.012,0.012-0.018,0.019c-0.001,0.001-0.002,0.002-0.003,0.003c-0.005,0.006-0.013,0.013-0.019,0.019
		c0,0-0.001,0.002-0.002,0.002c-0.005,0.006-0.012,0.012-0.017,0.017c-0.002,0.001-0.003,0.003-0.004,0.004
		c-0.006,0.006-0.012,0.013-0.019,0.02c-0.001,0.001-0.001,0.001-0.001,0.001c-0.006,0.006-0.012,0.012-0.018,0.019
		c-0.001,0-0.002,0.002-0.003,0.003c-0.006,0.007-0.013,0.013-0.02,0.02c0,0,0,0.001,0,0.002c-0.007,0.006-0.013,0.012-0.02,0.019
		c0,0,0,0.001-0.001,0.002c-0.007,0.007-0.013,0.014-0.019,0.021c-0.001,0-0.001,0.001-0.002,0.002
		c-0.007,0.005-0.013,0.012-0.018,0.019c-0.001,0.001-0.002,0.001-0.002,0.002c-0.008,0.007-0.014,0.014-0.019,0.021
		c-0.001,0-0.001,0.001-0.002,0.001c-0.007,0.007-0.012,0.012-0.018,0.019c-0.001,0.001-0.002,0.002-0.003,0.002
		c-0.006,0.007-0.013,0.014-0.019,0.02c-0.001,0.001-0.001,0.001-0.002,0.002c-0.006,0.006-0.012,0.012-0.017,0.019
		c-0.001,0-0.002,0.001-0.003,0.002c-0.006,0.006-0.013,0.014-0.019,0.02c-0.001,0.001-0.001,0.001-0.002,0.002
		c-0.006,0.007-0.013,0.013-0.018,0.02c-0.001,0-0.002,0.001-0.002,0.002c-0.006,0.006-0.013,0.013-0.019,0.021
		c0,0-0.001,0.001-0.002,0.002c-0.006,0.006-0.012,0.012-0.018,0.019c0,0-0.001,0.001-0.002,0.002
		c-0.006,0.006-0.013,0.013-0.019,0.021c-0.001,0-0.002,0.001-0.003,0.002c-0.005,0.006-0.011,0.013-0.016,0.018
		c-0.001,0.001-0.001,0.002-0.002,0.003c-0.007,0.006-0.013,0.013-0.019,0.02c-0.001,0.001-0.002,0.001-0.003,0.002
		c-0.005,0.006-0.011,0.013-0.017,0.019c-0.001,0.001-0.002,0.001-0.002,0.002c-0.006,0.007-0.012,0.014-0.018,0.021
		c-0.001,0.001-0.002,0.002-0.003,0.003c-0.006,0.006-0.011,0.013-0.017,0.018c-0.001,0.001-0.002,0.002-0.003,0.003
		c-0.005,0.007-0.011,0.013-0.018,0.02c-0.001,0.001-0.002,0.002-0.003,0.003c-0.006,0.006-0.011,0.013-0.018,0.018
		c0,0,0,0.001,0,0.002c-0.006,0.007-0.012,0.014-0.019,0.021c-0.001,0.001-0.002,0.001-0.003,0.003
		c-0.005,0.006-0.011,0.012-0.017,0.019c-0.001,0.001-0.001,0.001-0.002,0.002c-0.006,0.007-0.012,0.013-0.018,0.02
		c-0.002,0.001-0.002,0.002-0.002,0.003c-0.006,0.007-0.012,0.013-0.018,0.019c-0.001,0-0.001,0.001-0.001,0.001
		c-0.006,0.007-0.012,0.014-0.019,0.021c-0.001,0-0.002,0.001-0.003,0.002c-0.006,0.007-0.011,0.013-0.018,0.021c0,0,0,0-0.001,0
		c-0.005,0.007-0.01,0.013-0.017,0.021c-0.001,0.001-0.002,0.002-0.003,0.003c-0.006,0.006-0.012,0.013-0.019,0.02
		c-0.005,0.007-0.012,0.014-0.018,0.021c-0.001,0.001-0.003,0.003-0.004,0.004c-0.004,0.006-0.009,0.012-0.016,0.019
		c0,0.001-0.001,0.001-0.001,0.001c-0.006,0.007-0.012,0.014-0.018,0.02c-0.001,0.001-0.003,0.003-0.004,0.004
		c-0.005,0.006-0.011,0.013-0.017,0.019l-0.001,0c-0.005,0.007-0.011,0.014-0.017,0.021c-0.001,0.001-0.002,0.003-0.004,0.004
		c-0.005,0.006-0.011,0.013-0.017,0.02c0,0,0,0-0.001,0.001c-0.005,0.007-0.012,0.014-0.017,0.02
		c-0.002,0.001-0.003,0.003-0.004,0.004c-0.012,0.014-0.022,0.027-0.034,0.041c-0.001,0.001-0.003,0.002-0.004,0.004
		c-0.005,0.006-0.012,0.013-0.017,0.02c0,0,0,0-0.001,0c-0.006,0.007-0.011,0.013-0.016,0.02c-0.001,0.001-0.003,0.003-0.005,0.005
		c-0.011,0.014-0.022,0.027-0.034,0.04c0,0.002-0.002,0.003-0.003,0.005c-0.012,0.013-0.022,0.027-0.034,0.04
		c-0.001,0.002-0.002,0.003-0.004,0.005c-0.006,0.007-0.011,0.014-0.018,0.02c-0.005,0.007-0.01,0.013-0.016,0.02
		c-0.002,0.002-0.003,0.003-0.003,0.006c-0.006,0.006-0.012,0.013-0.018,0.02c-0.001,0-0.001,0.001-0.002,0.001
		c-0.005,0.006-0.01,0.012-0.015,0.018c-0.002,0.002-0.004,0.004-0.005,0.006c-0.005,0.007-0.011,0.013-0.016,0.02
		c-0.001,0.001-0.003,0.002-0.004,0.004c-0.003,0.005-0.008,0.011-0.012,0.016c-0.002,0.002-0.004,0.005-0.006,0.006
		c-0.005,0.006-0.011,0.013-0.016,0.019c-0.001,0.001-0.002,0.003-0.003,0.004c-0.004,0.006-0.009,0.01-0.014,0.016
		c-0.001,0.002-0.003,0.004-0.005,0.007c-0.005,0.006-0.01,0.013-0.015,0.019c-0.001,0.001-0.002,0.002-0.003,0.003
		c-0.005,0.005-0.009,0.011-0.014,0.017c-0.002,0.002-0.003,0.005-0.005,0.006c-0.006,0.006-0.011,0.014-0.017,0.02
		c0,0.001-0.001,0.003-0.003,0.005c-0.004,0.005-0.008,0.01-0.012,0.015c-0.002,0.002-0.004,0.004-0.005,0.007
		c-0.006,0.006-0.011,0.012-0.016,0.019c-0.002,0.001-0.003,0.003-0.004,0.004c-0.004,0.005-0.009,0.011-0.013,0.016
		c-0.002,0.002-0.004,0.004-0.006,0.006c-0.005,0.006-0.01,0.012-0.015,0.019c-0.001,0.001-0.002,0.004-0.004,0.006
		c-0.003,0.004-0.008,0.009-0.012,0.014c-0.001,0.002-0.004,0.005-0.006,0.007c-0.004,0.006-0.01,0.012-0.014,0.018
		c-0.002,0.002-0.004,0.004-0.006,0.006c-0.004,0.005-0.007,0.01-0.012,0.015c-0.002,0.002-0.003,0.004-0.005,0.007
		c-0.004,0.006-0.009,0.012-0.015,0.019c-0.001,0.001-0.002,0.004-0.004,0.006c-0.004,0.004-0.008,0.009-0.012,0.014
		c-0.002,0.002-0.004,0.005-0.006,0.007c-0.005,0.006-0.01,0.012-0.015,0.019c-0.002,0.002-0.003,0.004-0.005,0.006
		c-0.003,0.005-0.007,0.01-0.01,0.015c-0.002,0.002-0.004,0.004-0.006,0.007c-0.005,0.006-0.01,0.013-0.015,0.019
		c-0.002,0.002-0.003,0.004-0.005,0.006c-0.004,0.005-0.008,0.01-0.012,0.015c-0.002,0.002-0.003,0.004-0.005,0.006
		c-0.006,0.006-0.01,0.013-0.015,0.019c-0.001,0.002-0.002,0.004-0.004,0.006c-0.004,0.005-0.008,0.01-0.012,0.015
		c-0.002,0.002-0.004,0.005-0.006,0.007c-0.004,0.006-0.009,0.012-0.014,0.019c-0.002,0.002-0.004,0.004-0.006,0.006
		c-0.003,0.005-0.007,0.01-0.01,0.014c-0.002,0.002-0.004,0.005-0.007,0.008c-0.003,0.006-0.008,0.012-0.013,0.018
		c-0.001,0.003-0.004,0.005-0.006,0.008c-0.004,0.004-0.006,0.008-0.01,0.013c-0.002,0.003-0.004,0.005-0.006,0.008
		c-0.005,0.006-0.009,0.012-0.014,0.018c-0.003,0.002-0.004,0.006-0.007,0.008c-0.003,0.004-0.006,0.008-0.008,0.012
		c-0.002,0.003-0.005,0.006-0.007,0.009c-0.004,0.006-0.009,0.012-0.013,0.018c-0.003,0.003-0.005,0.006-0.008,0.009
		c-0.002,0.003-0.006,0.008-0.009,0.011c-0.002,0.003-0.004,0.006-0.006,0.009c-0.005,0.006-0.009,0.012-0.014,0.017
		c-0.002,0.003-0.004,0.006-0.006,0.01c-0.003,0.003-0.005,0.007-0.008,0.011c-0.003,0.004-0.007,0.007-0.009,0.011
		c-0.004,0.005-0.008,0.01-0.012,0.016c-0.002,0.003-0.005,0.006-0.007,0.009c-0.003,0.003-0.006,0.007-0.009,0.011
		c-0.002,0.004-0.005,0.007-0.008,0.012s-0.007,0.009-0.011,0.015c-0.002,0.003-0.005,0.007-0.008,0.01
		c-0.002,0.004-0.004,0.007-0.007,0.01c-0.004,0.005-0.007,0.01-0.011,0.014c-0.003,0.005-0.006,0.009-0.01,0.014
		c-0.002,0.002-0.005,0.006-0.007,0.009c-0.003,0.003-0.006,0.006-0.008,0.01c-0.004,0.005-0.007,0.01-0.01,0.015
		c-0.004,0.004-0.006,0.008-0.009,0.011c-0.002,0.003-0.006,0.008-0.009,0.011c-0.002,0.003-0.003,0.006-0.006,0.009
		c-0.005,0.006-0.009,0.013-0.014,0.018c-0.002,0.003-0.004,0.007-0.007,0.009c-0.002,0.004-0.006,0.007-0.008,0.011
		c-0.002,0.003-0.004,0.006-0.007,0.01c-0.003,0.005-0.007,0.01-0.01,0.016c-0.003,0.003-0.006,0.007-0.009,0.011
		s-0.005,0.007-0.009,0.011c-0.002,0.003-0.003,0.005-0.005,0.008c-0.006,0.007-0.01,0.014-0.016,0.021
		c-0.002,0.002-0.003,0.005-0.005,0.007c-0.003,0.004-0.005,0.008-0.008,0.012c-0.001,0.002-0.003,0.005-0.005,0.007
		c-0.005,0.007-0.011,0.015-0.016,0.022c-0.002,0.002-0.003,0.004-0.005,0.006c-0.003,0.004-0.006,0.009-0.009,0.013
		c-0.002,0.001-0.003,0.003-0.004,0.005c-0.007,0.008-0.012,0.017-0.018,0.024c-0.001,0.001-0.001,0.003-0.002,0.005
		c-0.004,0.004-0.007,0.009-0.01,0.013c-0.001,0.001-0.002,0.003-0.004,0.005c-0.005,0.008-0.012,0.017-0.018,0.025
		c-0.001,0.001-0.002,0.002-0.003,0.004c-0.004,0.004-0.006,0.009-0.01,0.014c-0.001,0.002-0.002,0.002-0.003,0.004
		c-0.006,0.008-0.012,0.017-0.018,0.025c-0.001,0.001-0.002,0.003-0.003,0.005c-0.003,0.004-0.007,0.009-0.01,0.013
		c0,0.001-0.001,0.002-0.002,0.003c-0.007,0.01-0.013,0.018-0.019,0.027c-0.001,0.001-0.002,0.002-0.003,0.003
		c-0.004,0.005-0.007,0.01-0.01,0.015c-0.001,0.001-0.001,0.002-0.002,0.003c-0.006,0.009-0.013,0.019-0.02,0.028
		c0,0-0.001,0.001-0.001,0.001c-0.003,0.005-0.007,0.01-0.011,0.015c0,0-0.001,0.001-0.001,0.002
		c-0.006,0.009-0.013,0.019-0.02,0.028c-0.001,0.001-0.002,0.003-0.002,0.004c-0.004,0.005-0.008,0.01-0.01,0.015v0
		c-0.007,0.009-0.014,0.02-0.021,0.03c-0.001,0.001-0.001,0.002-0.002,0.002c-0.011,0.016-0.021,0.03-0.031,0.046
		c-0.001,0.001-0.001,0.001-0.002,0.002c-0.01,0.016-0.021,0.031-0.031,0.047c0,0,0,0,0,0c-0.011,0.017-0.021,0.032-0.032,0.048v0
		c-0.01,0.016-0.021,0.032-0.031,0.047c0,0,0,0.001-0.001,0.001c-1.105,1.685-1.937,3.531-2.464,5.471
		c-0.087,0.321-0.133,0.642-0.159,0.961c-0.288,1.323-0.449,2.68-0.449,4.055c0,2.787,0,5.829,0,9.093
		C7.084,40.409,9.491,42.815,12.459,42.815z"/>
	<path d="M65.893,19.995h34.041c2.968,0,5.374-2.407,5.374-5.375c0-2.967-2.406-5.374-5.374-5.374c-11.833,0-23.361,0-34.041,0
		c-2.969,0-5.374,2.407-5.374,5.374C60.519,17.588,62.924,19.995,65.893,19.995z"/>
	<path d="M144.735,19.995h34.05c2.968,0,5.374-2.407,5.374-5.375c0-2.967-2.406-5.374-5.374-5.374c-10.591,0-22.126,0-34.05,0
		c-2.974,0-5.384,2.407-5.384,5.374C139.351,17.588,141.761,19.995,144.735,19.995z"/>
	<path fill="#010101" d="M257.98,51.914h-3.609h-10.799h-19.335h-51.546h-19.338h-51.155H82.869h-11.02h-3.394
		c-10.16,0-18.398,8.24-18.398,18.4c0,41.598,0,142.544,0,184.798c0,5.064,2.012,9.93,5.595,13.512
		c3.582,3.574,8.437,5.59,13.505,5.59c42.69,0,145.424,0,188.123,0c5.066,0,9.921-2.016,13.503-5.59
		c3.582-3.582,5.593-8.447,5.593-13.512c0-42.254,0-143.201,0-184.798C276.376,60.153,268.14,51.914,257.98,51.914z"/>
	<path d="M205.845,19.995h0.005h6.411v0.001h1.045h1.375h0.047c0.737,0,1.466,0.107,2.17,0.298c1.405,0.379,2.707,1.112,3.742,2.146
		c0.023,0.024,0.044,0.053,0.067,0.078c0.247,0.255,0.479,0.523,0.691,0.806c0.084,0.111,0.153,0.232,0.231,0.347
		c0.144,0.211,0.282,0.424,0.405,0.647c0.319,0.58,0.58,1.194,0.754,1.837c0.006,0.019,0.013,0.037,0.018,0.056
		c0.175,0.676,0.275,1.372,0.275,2.076v9.092c0,2.255,1.39,4.181,3.357,4.979c0.662,0.292,1.393,0.458,2.164,0.458
		c2.968,0,5.374-2.406,5.374-5.375c0-2.204,0-4.297,0-6.289c0.002,0.001,0.003,0.002,0.005,0.003c0-0.417,0-0.829,0-1.235
		c0-0.529,0-1.06,0-1.572c0-1.375-0.161-2.731-0.448-4.055c-0.027-0.319-0.073-0.64-0.16-0.961c-0.526-1.94-1.359-3.787-2.464-5.471
		c-0.002,0-0.002-0.001-0.002-0.001c-0.011-0.016-0.021-0.031-0.03-0.047v0c-0.011-0.017-0.021-0.032-0.032-0.048c0,0,0,0,0,0
		c-0.011-0.016-0.021-0.031-0.031-0.047c-0.002-0.001-0.002-0.001-0.002-0.002c-0.011-0.016-0.021-0.03-0.032-0.046
		c0,0,0-0.001-0.001-0.002c-0.008-0.01-0.015-0.021-0.021-0.03v0c-0.002-0.005-0.006-0.01-0.009-0.015
		c-0.002-0.001-0.002-0.002-0.004-0.004c-0.006-0.009-0.013-0.019-0.02-0.028c0-0.001,0-0.001,0-0.002
		c-0.004-0.005-0.007-0.01-0.011-0.015c0,0-0.002-0.001-0.002-0.001c-0.007-0.01-0.012-0.02-0.019-0.028
		c-0.002-0.001-0.002-0.002-0.002-0.003c-0.003-0.005-0.007-0.01-0.011-0.015c0-0.001-0.001-0.002-0.001-0.003
		c-0.008-0.009-0.013-0.017-0.02-0.027c0-0.001-0.002-0.002-0.002-0.003c-0.004-0.004-0.008-0.009-0.011-0.013
		c0-0.002-0.002-0.003-0.002-0.005c-0.006-0.009-0.012-0.017-0.019-0.025c0-0.002-0.002-0.002-0.002-0.004
		c-0.003-0.004-0.007-0.009-0.011-0.014c0-0.001-0.002-0.003-0.002-0.004c-0.007-0.009-0.012-0.017-0.018-0.025
		c-0.002-0.001-0.003-0.003-0.003-0.005c-0.004-0.004-0.008-0.009-0.011-0.013c0-0.002-0.001-0.003-0.001-0.005
		c-0.007-0.008-0.013-0.016-0.018-0.024c-0.002-0.002-0.004-0.004-0.006-0.005c-0.002-0.004-0.005-0.009-0.009-0.013
		c-0.002-0.002-0.002-0.004-0.004-0.006c-0.005-0.007-0.011-0.015-0.016-0.022c-0.002-0.002-0.004-0.005-0.005-0.007
		c-0.003-0.004-0.005-0.008-0.009-0.012c-0.001-0.002-0.003-0.005-0.005-0.007c-0.005-0.006-0.009-0.014-0.015-0.021
		c-0.001-0.003-0.003-0.005-0.005-0.008c-0.004-0.003-0.006-0.007-0.009-0.011c-0.004-0.004-0.006-0.008-0.009-0.011
		c-0.004-0.005-0.008-0.01-0.011-0.016c-0.002-0.003-0.005-0.006-0.006-0.01c-0.002-0.004-0.006-0.007-0.008-0.011
		c-0.003-0.002-0.005-0.006-0.007-0.009c-0.005-0.005-0.009-0.012-0.015-0.018c-0.001-0.003-0.003-0.005-0.005-0.009
		c-0.004-0.003-0.007-0.008-0.009-0.011c-0.004-0.003-0.006-0.007-0.009-0.011c-0.003-0.005-0.007-0.01-0.01-0.015
		c-0.002-0.004-0.006-0.007-0.007-0.01c-0.004-0.003-0.006-0.007-0.008-0.009c-0.003-0.005-0.007-0.009-0.011-0.014
		c-0.003-0.004-0.007-0.009-0.011-0.014c-0.001-0.002-0.005-0.006-0.007-0.01c-0.002-0.003-0.005-0.007-0.007-0.01
		c-0.004-0.005-0.008-0.01-0.012-0.015c-0.002-0.004-0.005-0.008-0.007-0.012c-0.004-0.003-0.006-0.007-0.009-0.011
		c-0.002-0.003-0.006-0.006-0.008-0.009c-0.003-0.005-0.007-0.01-0.01-0.016c-0.004-0.004-0.008-0.007-0.01-0.011
		c-0.003-0.003-0.005-0.007-0.009-0.011c-0.001-0.003-0.002-0.007-0.006-0.01c-0.004-0.005-0.009-0.011-0.013-0.017
		c-0.002-0.003-0.005-0.006-0.007-0.009c-0.002-0.003-0.005-0.008-0.009-0.011c-0.002-0.003-0.004-0.005-0.007-0.009
		c-0.004-0.006-0.01-0.012-0.013-0.018c-0.002-0.003-0.006-0.006-0.006-0.009c-0.004-0.004-0.006-0.008-0.01-0.012
		c-0.001-0.002-0.003-0.006-0.007-0.008c-0.003-0.006-0.009-0.012-0.013-0.018c-0.003-0.002-0.005-0.005-0.007-0.008
		c-0.003-0.004-0.005-0.008-0.009-0.013c-0.002-0.003-0.005-0.005-0.007-0.008c-0.004-0.006-0.009-0.012-0.012-0.018
		c-0.004-0.002-0.005-0.005-0.007-0.008c-0.004-0.004-0.008-0.009-0.011-0.014c-0.002-0.002-0.004-0.004-0.006-0.006
		c-0.005-0.006-0.009-0.013-0.014-0.019c-0.002-0.002-0.004-0.005-0.006-0.007c-0.003-0.004-0.007-0.009-0.011-0.015
		c-0.001-0.002-0.003-0.003-0.004-0.006c-0.006-0.006-0.009-0.013-0.015-0.019c-0.001-0.002-0.003-0.004-0.005-0.006
		c-0.004-0.005-0.009-0.01-0.013-0.015c-0.002-0.002-0.002-0.004-0.003-0.006c-0.006-0.006-0.011-0.013-0.017-0.019
		c-0.002-0.002-0.003-0.004-0.005-0.007c-0.003-0.004-0.007-0.01-0.01-0.015c-0.002-0.002-0.004-0.004-0.006-0.006
		c-0.005-0.006-0.009-0.012-0.014-0.019c-0.002-0.002-0.004-0.005-0.006-0.007c-0.003-0.005-0.009-0.01-0.012-0.014
		c-0.002-0.002-0.004-0.004-0.004-0.006c-0.006-0.007-0.011-0.013-0.016-0.019c-0.001-0.002-0.003-0.005-0.005-0.007
		c-0.004-0.005-0.007-0.01-0.011-0.015c-0.002-0.002-0.004-0.004-0.005-0.006c-0.006-0.006-0.011-0.012-0.015-0.018
		c-0.002-0.002-0.005-0.005-0.007-0.007c-0.004-0.005-0.007-0.01-0.011-0.014c-0.002-0.002-0.003-0.004-0.005-0.006
		c-0.005-0.007-0.009-0.013-0.014-0.019c-0.002-0.002-0.004-0.004-0.006-0.006c-0.005-0.005-0.009-0.011-0.012-0.016
		c-0.002-0.001-0.004-0.003-0.006-0.004c-0.003-0.006-0.009-0.012-0.014-0.019c-0.002-0.003-0.004-0.005-0.006-0.007
		c-0.004-0.005-0.008-0.01-0.012-0.015c-0.001-0.002-0.003-0.003-0.003-0.005c-0.006-0.006-0.011-0.013-0.017-0.02
		c-0.001-0.001-0.003-0.004-0.005-0.006c-0.006-0.005-0.009-0.011-0.015-0.017c0-0.001-0.001-0.002-0.001-0.003
		c-0.006-0.006-0.01-0.013-0.016-0.019c-0.002-0.002-0.003-0.004-0.005-0.007c-0.006-0.006-0.009-0.01-0.015-0.016
		c0-0.001-0.002-0.002-0.002-0.004c-0.005-0.006-0.011-0.013-0.016-0.019c-0.002-0.001-0.004-0.004-0.006-0.006
		c-0.005-0.005-0.009-0.011-0.013-0.016c0-0.001-0.002-0.003-0.004-0.004c-0.005-0.006-0.011-0.013-0.016-0.02
		c0-0.001-0.002-0.004-0.004-0.006c-0.005-0.006-0.011-0.012-0.016-0.018c0,0,0-0.001-0.002-0.001
		c-0.005-0.007-0.011-0.014-0.016-0.02c-0.001-0.002-0.003-0.003-0.005-0.006c-0.005-0.007-0.011-0.013-0.016-0.02
		c-0.006-0.006-0.011-0.013-0.017-0.02c-0.001-0.002-0.003-0.003-0.005-0.005c-0.011-0.013-0.022-0.027-0.033-0.04
		c-0.001-0.001-0.003-0.003-0.003-0.005c-0.013-0.013-0.023-0.026-0.034-0.04c-0.002-0.002-0.004-0.003-0.005-0.005
		c-0.005-0.007-0.01-0.013-0.016-0.02c-0.002,0-0.002,0-0.002,0c-0.005-0.007-0.01-0.013-0.016-0.02
		c-0.002-0.002-0.004-0.003-0.004-0.004c-0.012-0.014-0.022-0.027-0.034-0.041c-0.002-0.001-0.002-0.003-0.004-0.004
		c-0.005-0.006-0.012-0.013-0.018-0.02c0,0,0-0.001,0-0.001c-0.007-0.006-0.013-0.013-0.018-0.02
		c-0.002-0.001-0.002-0.002-0.004-0.004c-0.005-0.007-0.011-0.014-0.017-0.021v0c-0.005-0.006-0.013-0.013-0.018-0.019
		c0-0.001-0.002-0.003-0.004-0.004c-0.005-0.006-0.011-0.013-0.018-0.02c0,0,0,0,0-0.001c-0.007-0.006-0.013-0.013-0.017-0.019
		c0-0.001-0.002-0.003-0.004-0.004c-0.005-0.007-0.013-0.014-0.018-0.021s-0.013-0.014-0.018-0.02
		c-0.002-0.001-0.002-0.002-0.004-0.003c-0.005-0.007-0.011-0.014-0.017-0.021c0,0,0,0,0,0c-0.007-0.007-0.013-0.014-0.018-0.021
		c-0.002-0.001-0.002-0.002-0.004-0.002c-0.005-0.007-0.013-0.014-0.018-0.021c0,0,0-0.001-0.002-0.001
		c-0.005-0.006-0.011-0.012-0.016-0.019c-0.001-0.001-0.001-0.002-0.003-0.003c-0.005-0.007-0.013-0.013-0.018-0.02
		c-0.002,0-0.002-0.001-0.002-0.002c-0.005-0.006-0.013-0.013-0.018-0.019c0-0.001-0.002-0.002-0.002-0.003
		c-0.007-0.007-0.013-0.014-0.019-0.021c0,0,0-0.001,0-0.002c-0.007-0.005-0.013-0.012-0.018-0.018
		c-0.002-0.001-0.002-0.002-0.004-0.003c-0.005-0.007-0.013-0.013-0.018-0.02c0-0.001-0.002-0.002-0.002-0.003
		c-0.005-0.005-0.011-0.012-0.018-0.018c0,0-0.001-0.001-0.001-0.003c-0.007-0.007-0.013-0.014-0.02-0.021c0,0,0-0.001-0.002-0.002
		c-0.005-0.005-0.011-0.012-0.016-0.019c-0.002-0.001-0.002-0.001-0.004-0.002c-0.005-0.007-0.011-0.014-0.018-0.02
		c-0.001-0.001-0.001-0.002-0.003-0.003c-0.005-0.005-0.011-0.012-0.016-0.018c0-0.001-0.002-0.002-0.002-0.002
		c-0.007-0.007-0.013-0.014-0.02-0.021c0-0.001-0.002-0.002-0.002-0.002c-0.005-0.006-0.011-0.012-0.018-0.019
		c0-0.001-0.001-0.002-0.001-0.002c-0.007-0.007-0.013-0.014-0.02-0.021c0,0,0-0.001-0.002-0.002
		c-0.005-0.007-0.011-0.013-0.018-0.02c0,0,0-0.001-0.002-0.002c-0.005-0.006-0.012-0.013-0.018-0.02
		c-0.002-0.001-0.002-0.002-0.003-0.002c-0.005-0.007-0.01-0.012-0.018-0.019c0-0.001,0-0.001-0.002-0.002
		c-0.005-0.006-0.012-0.013-0.018-0.02c-0.002,0-0.002-0.001-0.003-0.002c-0.006-0.007-0.011-0.012-0.018-0.019
		c0,0,0-0.001-0.001-0.001c-0.006-0.006-0.013-0.014-0.02-0.021c0,0,0-0.001-0.002-0.002c-0.006-0.006-0.011-0.013-0.018-0.019
		c0-0.001,0-0.001-0.002-0.002c-0.006-0.007-0.013-0.014-0.018-0.021c-0.001-0.001-0.001-0.001-0.003-0.002
		c-0.006-0.007-0.013-0.013-0.018-0.019c0,0-0.002-0.001-0.002-0.002c-0.006-0.006-0.013-0.013-0.02-0.02
		c0-0.001-0.002-0.002-0.002-0.003c-0.005-0.006-0.013-0.013-0.018-0.019c0,0-0.001,0-0.001-0.001
		c-0.007-0.007-0.013-0.014-0.02-0.02c0-0.001-0.002-0.003-0.004-0.004c-0.005-0.005-0.011-0.011-0.016-0.017
		c-0.002,0-0.002-0.002-0.002-0.002c-0.007-0.006-0.014-0.013-0.019-0.019c-0.002-0.001-0.002-0.002-0.004-0.003
		c-0.005-0.006-0.012-0.012-0.018-0.019c0,0,0-0.001-0.002-0.001c-0.005-0.006-0.012-0.013-0.018-0.02
		c-0.002-0.001-0.003-0.002-0.003-0.003c-0.008-0.007-0.013-0.013-0.019-0.019c0,0,0-0.001,0-0.001
		c-0.008-0.007-0.013-0.013-0.02-0.02c-0.002-0.001-0.002-0.003-0.004-0.003c-0.006-0.007-0.013-0.013-0.018-0.019
		c0,0-0.002,0-0.002-0.001c-0.006-0.006-0.013-0.013-0.019-0.019c0-0.001-0.002-0.002-0.004-0.004
		c-0.013-0.013-0.024-0.025-0.037-0.039c-0.002-0.001-0.002-0.002-0.004-0.003c-0.007-0.006-0.011-0.012-0.019-0.019c0,0,0,0,0,0
		c-0.007-0.006-0.012-0.012-0.02-0.019c-0.002-0.001-0.002-0.002-0.003-0.003c-0.006-0.006-0.013-0.013-0.019-0.019
		c-0.001,0-0.001,0-0.001,0c-0.008-0.007-0.012-0.013-0.019-0.02c0-0.001-0.002-0.003-0.004-0.004
		c-0.007-0.005-0.013-0.012-0.02-0.019c-1.444-1.445-3.108-2.612-4.901-3.51c-0.076-0.038-0.147-0.086-0.224-0.124
		c-0.436-0.211-0.888-0.384-1.338-0.563c-0.196-0.077-0.385-0.173-0.582-0.245c-0.01-0.003-0.021-0.006-0.03-0.01
		c-0.007-0.002-0.013-0.006-0.019-0.008c-0.02-0.008-0.04-0.015-0.06-0.021c-0.011-0.004-0.021-0.006-0.032-0.01
		c-0.109-0.04-0.219-0.08-0.329-0.118c-0.249-0.082-0.497-0.163-0.749-0.235c-0.149-0.045-0.296-0.1-0.446-0.141
		c-0.195-0.054-0.391-0.088-0.587-0.119c-0.11-0.025-0.223-0.044-0.334-0.067c-0.138-0.029-0.273-0.056-0.411-0.082
		c-0.229-0.043-0.458-0.082-0.688-0.117c-0.161-0.025-0.321-0.05-0.484-0.071c-0.235-0.03-0.472-0.052-0.709-0.074
		c-0.146-0.013-0.291-0.03-0.437-0.039c-0.374-0.025-0.75-0.039-1.128-0.04c-0.008,0-0.017-0.001-0.025-0.001
		c-0.001,0-0.003,0-0.004,0c-0.068,0-0.142,0-0.21,0c-0.515,0-1.04,0-1.571,0c-2.288,0-4.726,0-7.307,0c-0.002,0-0.003,0-0.005,0
		c-2.969,0-5.375,2.407-5.375,5.374C200.47,17.588,202.876,19.995,205.845,19.995z"/>
</g>
</svg>
