<?xml version="1.0" encoding="utf-8"?>
<!-- Generator: Adobe Illustrator 15.1.0, SVG Export Plug-In . SVG Version: 6.00 Build 0)  -->
<!DOCTYPE svg PUBLIC "-//W3C//DTD SVG 1.1//EN" "http://www.w3.org/Graphics/SVG/1.1/DTD/svg11.dtd">
<svg version="1.1" id="Layer_2" xmlns="http://www.w3.org/2000/svg" xmlns:xlink="http://www.w3.org/1999/xlink" x="0px" y="0px"
	 width="283.465px" height="283.465px" viewBox="0 0 283.465 283.465" enable-background="new 0 0 283.465 283.465"
	 xml:space="preserve">
<g>
	<path d="M265.104,46.317H18.615c-3.086,0-6.045,1.225-8.227,3.407c-2.183,2.184-3.409,5.142-3.409,8.229v134.388
		c0,6.427,5.209,11.638,11.635,11.638h89.482c0,0-3.838,21.814-5.268,29.946c-0.131,0.745,0.074,1.511,0.561,2.091
		c0.487,0.582,1.206,0.916,1.964,0.916h72.545c0.759,0,1.477-0.334,1.963-0.916c0.488-0.58,0.693-1.346,0.563-2.091
		c-1.432-8.133-5.27-29.948-5.27-29.948h89.949c2.961,0,5.801-1.177,7.896-3.271c2.096-2.095,3.271-4.935,3.271-7.896V57.484
		C276.271,51.317,271.271,46.317,265.104,46.317z M270.857,192.923c0,1.445-0.573,2.828-1.596,3.849
		c-1.021,1.021-2.404,1.596-3.849,1.596H17.837c-1.444,0-2.828-0.574-3.849-1.596c-1.021-1.021-1.594-2.404-1.594-3.849V57.371
		c-0.001-1.443,0.573-2.828,1.594-3.849c1.02-1.021,2.405-1.595,3.849-1.595h247.575c1.445,0,2.828,0.574,3.85,1.595
		s1.594,2.406,1.594,3.849h0.002V192.923z"/>
	<path d="M259.496,62.381c-0.289-0.28-0.629-0.499-0.998-0.646c-0.373-0.149-0.77-0.228-1.18-0.228H26.146
		c-0.409,0-0.808,0.079-1.178,0.228c-0.369,0.147-0.709,0.365-0.999,0.646c-0.287,0.28-0.514,0.609-0.667,0.968
		c-0.152,0.358-0.233,0.746-0.233,1.142v122.738c0,0.397,0.081,0.785,0.233,1.145c0.153,0.356,0.379,0.686,0.667,0.967
		c0.29,0.279,0.63,0.499,0.999,0.647c0.371,0.148,0.77,0.227,1.178,0.227h231.173c0.41,0,0.811-0.078,1.18-0.227
		s0.707-0.368,0.998-0.647c0.287-0.279,0.514-0.609,0.666-0.967c0.154-0.361,0.234-0.747,0.234-1.145V64.491
		c0-0.396-0.08-0.785-0.234-1.142C260.01,62.991,259.783,62.661,259.496,62.381z"/>
</g>
</svg>
