<?xml version="1.0" encoding="utf-8"?>
<!-- Generator: Adobe Illustrator 15.1.0, SVG Export Plug-In . SVG Version: 6.00 Build 0)  -->
<!DOCTYPE svg PUBLIC "-//W3C//DTD SVG 1.1//EN" "http://www.w3.org/Graphics/SVG/1.1/DTD/svg11.dtd">
<svg version="1.1" id="Layer_1" xmlns="http://www.w3.org/2000/svg" xmlns:xlink="http://www.w3.org/1999/xlink" x="0px" y="0px"
	 width="283.465px" height="283.465px" viewBox="0 0 283.465 283.465" enable-background="new 0 0 283.465 283.465"
	 xml:space="preserve">
<path fill-rule="evenodd" clip-rule="evenodd" d="M270.856,57.371c0-1.443-0.573-2.828-1.595-3.849
	c-1.021-1.021-2.404-1.595-3.849-1.595H17.837c-1.444,0-2.829,0.574-3.849,1.595c-1.021,1.021-1.595,2.406-1.594,3.849v135.552
	c0,1.444,0.573,2.828,1.594,3.849c1.021,1.021,2.405,1.595,3.849,1.595h247.576c1.444,0,2.827-0.574,3.849-1.595
	s1.595-2.404,1.595-3.849V57.371z M108.096,203.978H18.614c-6.426,0-11.635-5.21-11.635-11.637V57.953
	c0-3.087,1.226-6.045,3.409-8.229c2.182-2.182,5.141-3.407,8.227-3.407h246.488c6.168,0,11.168,5,11.168,11.167V192.81
	c0,2.961-1.176,5.802-3.271,7.896c-2.095,2.094-4.936,3.271-7.897,3.271h-89.948c0,0,3.837,21.815,5.269,29.948
	c0.131,0.745-0.075,1.511-0.562,2.091c-0.487,0.581-1.205,0.916-1.964,0.916h-72.545c-0.758,0-1.477-0.335-1.964-0.916
	c-0.487-0.58-0.692-1.346-0.561-2.091C104.258,225.793,108.096,203.978,108.096,203.978z M268.709,57.371v135.552
	c0,0.437-0.086,0.865-0.251,1.262c-0.163,0.396-0.405,0.76-0.715,1.068c-0.309,0.31-0.673,0.551-1.068,0.716
	c-0.396,0.164-0.825,0.25-1.262,0.25H17.837c-0.438,0-0.866-0.086-1.262-0.25c-0.396-0.165-0.76-0.406-1.07-0.716
	c-0.309-0.309-0.55-0.673-0.714-1.068c-0.164-0.396-0.251-0.825-0.251-1.262V57.371c0-0.437,0.087-0.865,0.251-1.261
	c0.164-0.396,0.406-0.76,0.714-1.069c0.31-0.31,0.674-0.551,1.07-0.714c0.396-0.164,0.824-0.251,1.262-0.251h247.576
	c0.437,0,0.865,0.087,1.262,0.251c0.396,0.163,0.76,0.405,1.068,0.714c0.31,0.309,0.552,0.673,0.715,1.069
	C268.623,56.505,268.709,56.934,268.709,57.371z"/>
</svg>
