<?xml version="1.0" encoding="UTF-8" standalone="no"?><!DOCTYPE svg PUBLIC "-//W3C//DTD SVG 1.1//EN" "http://www.w3.org/Graphics/SVG/1.1/DTD/svg11.dtd"><svg width="100%" height="100%" viewBox="0 0 1182 1182" version="1.1" xmlns="http://www.w3.org/2000/svg" xmlns:xlink="http://www.w3.org/1999/xlink" xml:space="preserve" xmlns:serif="http://www.serif.com/" style="fill-rule:evenodd;clip-rule:evenodd;stroke-linejoin:round;stroke-miterlimit:2;"><rect id="terminal" x="0" y="0" width="1181.1" height="1181.1" style="fill:none;"/><g id="terminal1" serif:id="terminal"><path d="M458.201,836.679l-353.215,-0c-25.367,-0.001 -45.93,-20.564 -45.93,-45.93l0,-530.483c0,-12.183 4.84,-23.862 13.453,-32.479c8.613,-8.612 20.296,-13.45 32.477,-13.45l972.978,0c24.35,0 44.083,19.738 44.083,44.083l0,534.175c0,11.691 -4.641,22.905 -12.912,31.172c-8.267,8.267 -19.479,12.912 -31.171,12.912l-355.058,-0c-0,-0 15.145,86.118 20.795,118.216c0.517,2.945 -0.295,5.968 -2.216,8.258c-1.925,2.29 -4.759,3.612 -7.75,3.612l-286.363,0c-2.991,0 -5.829,-1.322 -7.75,-3.612c-1.925,-2.29 -2.733,-5.313 -2.216,-8.258c5.645,-32.098 20.795,-118.216 20.795,-118.216Zm642.475,-578.709c0,-5.695 -2.262,-11.162 -6.295,-15.191c-4.03,-4.029 -9.492,-6.296 -15.192,-6.296l-977.272,-0c-5.699,-0 -11.165,2.267 -15.194,6.296c-4.03,4.029 -6.294,9.496 -6.294,15.191l0,535.073c-0,5.699 2.264,11.165 6.294,15.194c4.029,4.03 9.495,6.294 15.194,6.294l977.272,-0c5.7,0 11.162,-2.264 15.192,-6.294c4.033,-4.029 6.295,-9.495 6.295,-15.194l0,-535.073Z"/><path d="M1092.2,257.97l0,535.074c0,1.725 -0.341,3.416 -0.991,4.979c-0.646,1.564 -1.6,3.002 -2.821,4.222c-1.221,1.22 -2.658,2.173 -4.221,2.82c-1.562,0.648 -3.254,0.991 -4.979,0.991l-977.272,-0c-1.726,-0 -3.416,-0.343 -4.98,-0.991c-1.564,-0.647 -3.001,-1.6 -4.221,-2.82c-1.221,-1.22 -2.174,-2.658 -2.821,-4.222c-0.648,-1.563 -0.991,-3.254 -0.991,-4.979l0,-535.074c0,-1.725 0.343,-3.416 0.991,-4.979c0.647,-1.562 1.6,-3 2.821,-4.221c1.22,-1.22 2.657,-2.175 4.221,-2.82c1.564,-0.646 3.254,-0.992 4.979,-0.992l977.273,-0c1.725,-0 3.417,0.346 4.979,0.992c1.563,0.645 3,1.6 4.221,2.82c1.221,1.221 2.175,2.659 2.821,4.221c0.65,1.563 0.991,3.254 0.991,4.979Z"/></g></svg>