<?xml version="1.0" encoding="UTF-8" standalone="no"?><!DOCTYPE svg PUBLIC "-//W3C//DTD SVG 1.1//EN" "http://www.w3.org/Graphics/SVG/1.1/DTD/svg11.dtd"><svg width="100%" height="100%" viewBox="0 0 1182 1182" version="1.1" xmlns="http://www.w3.org/2000/svg" xmlns:xlink="http://www.w3.org/1999/xlink" xml:space="preserve" xmlns:serif="http://www.serif.com/" style="fill-rule:evenodd;clip-rule:evenodd;stroke-linejoin:round;stroke-miterlimit:2;"><rect id="terminal" x="0" y="0" width="1181.1" height="1181.1" style="fill:none;"/><g id="terminal1" serif:id="terminal"><path d="M458.199,836.679l-353.215,0c-25.366,-0 -45.929,-20.563 -45.929,-45.929c0,-115.181 0,-415.303 0,-530.484c0,-12.181 4.839,-23.863 13.452,-32.477c8.614,-8.613 20.296,-13.452 32.477,-13.452c175.284,-0 800.899,-0 972.98,-0c24.347,0 44.083,19.737 44.083,44.084c0,114.396 0,419.778 0,534.174c0,11.692 -4.644,22.905 -12.912,31.172c-8.267,8.268 -19.48,12.912 -31.172,12.912c-103.826,0 -355.059,0 -355.059,0c-0,0 15.148,86.118 20.794,118.216c0.518,2.945 -0.293,5.968 -2.215,8.258c-1.923,2.29 -4.76,3.613 -7.75,3.613c-49.498,-0 -236.866,-0 -286.364,-0c-2.99,-0 -5.827,-1.323 -7.749,-3.613c-1.923,-2.29 -2.734,-5.313 -2.216,-8.258c5.646,-32.098 20.795,-118.216 20.795,-118.216Zm642.476,-578.707c-0,-5.699 -2.264,-11.164 -6.294,-15.194c-4.03,-4.03 -9.495,-6.294 -15.194,-6.294c-133.135,0 -844.137,0 -977.272,0c-5.699,0 -11.164,2.264 -15.194,6.294c-4.029,4.03 -6.293,9.495 -6.293,15.194c-0,90.994 -0,444.078 -0,535.072c-0,5.699 2.264,11.164 6.293,15.194c4.03,4.03 9.495,6.294 15.194,6.293c133.135,0 844.137,0 977.272,0c5.699,0.001 11.164,-2.263 15.194,-6.293c4.03,-4.03 6.294,-9.495 6.294,-15.194c-0,-90.994 -0,-444.078 -0,-535.072Z"/><path d="M1092.2,257.972l-0,535.072c-0,1.726 -0.343,3.416 -0.991,4.98c-0.648,1.564 -1.6,3.001 -2.821,4.221c-1.22,1.22 -2.657,2.173 -4.221,2.821c-1.564,0.648 -3.254,0.99 -4.98,0.99l-977.272,0c-1.725,0 -3.416,-0.342 -4.979,-0.99c-1.564,-0.648 -3.002,-1.601 -4.222,-2.821c-1.22,-1.22 -2.173,-2.657 -2.821,-4.221c-0.647,-1.564 -0.99,-3.254 -0.99,-4.98l-0,-535.072c-0,-1.726 0.343,-3.416 0.99,-4.98c0.648,-1.564 1.601,-3.001 2.821,-4.221c1.22,-1.221 2.658,-2.173 4.222,-2.821c1.563,-0.648 3.254,-0.991 4.979,-0.991l977.272,0c1.726,0 3.416,0.343 4.98,0.991c1.564,0.648 3.001,1.6 4.221,2.821c1.221,1.22 2.173,2.657 2.821,4.221c0.648,1.564 0.991,3.254 0.991,4.98Z"/></g></svg>