<?xml version="1.0" encoding="utf-8"?>
<!-- Generator: Adobe Illustrator 15.1.0, SVG Export Plug-In . SVG Version: 6.00 Build 0)  -->
<!DOCTYPE svg PUBLIC "-//W3C//DTD SVG 1.1//EN" "http://www.w3.org/Graphics/SVG/1.1/DTD/svg11.dtd">
<svg version="1.1" id="Layer_2" xmlns="http://www.w3.org/2000/svg" xmlns:xlink="http://www.w3.org/1999/xlink" x="0px" y="0px"
	 width="283.46px" height="283.46px" viewBox="0 0 283.46 283.46" enable-background="new 0 0 283.46 283.46" xml:space="preserve">
<g>
	<path d="M263.577,134.436c0.044-8.407-3.895-13.22-11.704-14.306c-3.877-0.54-11.445-0.803-23.135-0.803
		c-13.537,0-29.154,0.365-37.896,0.603c0.712-2.911,1.624-7.125,2.789-13.257c1.62-8.535,3.426-19.764,2.817-24.788
		c-1.368-11.309-4.883-30.955-13.049-35.477c-2.966-1.642-6.153-2.474-9.474-2.474c-6.021,0-13.106,3.136-13.58,7.352
		c-0.033,0.309-0.033,0.309-0.047,4.793c-0.023,7.25-0.07,22.335-0.339,27.232c-0.638,5.09-20.535,34.865-30.727,48.736
		c-4.469,6.084-14.95,9.267-15.05,9.297l-2.867,0.847v79.553h10.421l11.58,7.208l1.142,0.001c0,0,40.076,0.029,69.28,0.029
		c16.966,0,26.829-0.01,29.315-0.029l0.292-0.013c7.22-0.585,13.84-6.554,15.398-13.883c1.034-4.865-0.301-9.531-3.637-13.304
		c5.681-3.181,9.197-7.893,9.737-13.342c0.448-4.528-1.273-8.952-4.673-12.493c5.53-3.348,8.84-8.152,9.152-13.6
		c0.247-4.302-1.465-8.312-4.751-11.486C260.334,146.966,263.54,141.246,263.577,134.436z M249,142.529
		c-2.508,1.684-4.121,4.41-4.389,7.419s0.84,5.978,3.013,8.076c1.828,1.767,1.743,3.238,1.716,3.723
		c-0.154,2.691-2.79,4.675-4.348,5.617c-2.598,1.572-4.34,4.24-4.736,7.251c-0.396,3.011,0.599,6.038,2.701,8.229
		c0.988,1.028,2.126,2.659,1.936,4.581c-0.272,2.752-3.044,4.691-4.672,5.603c-2.639,1.478-4.467,4.07-4.974,7.052
		c-0.506,2.981,0.364,6.032,2.368,8.298c1.68,1.899,1.573,3.535,1.347,4.6c-0.629,2.956-3.461,5.649-6.245,5.978
		c-2.825,0.019-12.568,0.027-28.979,0.027c-25.622,0-59.613-0.022-67.56-0.028l-9.157-5.699c-1.586-0.987-3.417-1.511-5.285-1.511
		h-0.421v-62.357c4.637-1.911,11.68-5.57,15.976-11.418c5.62-7.65,13.192-18.705,19.292-28.163
		c12.579-19.509,13.012-22.964,13.299-25.251c0.028-0.231,0.05-0.463,0.063-0.696c0.28-5.118,0.327-19.734,0.353-27.586l0.001-0.163
		c0.002-0.55,0.003-1.043,0.005-1.48c0.96-0.364,2.295-0.695,3.622-0.695c1.604,0,3.099,0.388,4.563,1.186
		c1.366,1.072,5.662,8.372,8.032,27.967c0.057,0.464,0.457,5.013-2.714,21.719c-1.016,5.343-1.916,9.632-2.679,12.748
		c-0.74,3.029-0.026,6.23,1.933,8.657c1.901,2.355,4.763,3.719,7.78,3.719c0.091,0,0.183-0.001,0.273-0.004
		c8.213-0.224,24.021-0.599,37.624-0.599c13.785,0,19.439,0.385,21.758,0.708c2.257,0.314,3.102,0.431,3.081,4.347
		C253.558,137.81,252.061,140.475,249,142.529z"/>
	<path d="M91.868,124.458H31.884c-6.627,0-12,5.373-12,12v91.069c0,6.627,5.373,12,12,12h59.984c6.627,0,12-5.373,12-12v-91.068
		C103.868,129.832,98.495,124.458,91.868,124.458z M93.868,227.527c0,1.103-0.897,2-2,2H31.884c-1.103,0-2-0.897-2-2v-91.069
		c0-1.103,0.897-2,2-2h59.984c1.103,0,2,0.897,2,2.001V227.527z"/>
</g>
</svg>
