<?xml version="1.0" encoding="utf-8"?>
<!-- Generator: Adobe Illustrator 15.1.0, SVG Export Plug-In . SVG Version: 6.00 Build 0)  -->
<!DOCTYPE svg PUBLIC "-//W3C//DTD SVG 1.1//EN" "http://www.w3.org/Graphics/SVG/1.1/DTD/svg11.dtd">
<svg version="1.1" id="Layer_2" xmlns="http://www.w3.org/2000/svg" xmlns:xlink="http://www.w3.org/1999/xlink" x="0px" y="0px"
	 width="283.46px" height="283.46px" viewBox="0 0 283.46 283.46" enable-background="new 0 0 283.46 283.46" xml:space="preserve">
<g>
	<path fill="none" d="M237.509,129.161c12.971-5.824,11.471-19.772-4.283-24.772c12.492-6.396,11.818-20.808-5.043-25.585
		c14.713-8.035,5.918-23.475-4.259-24.299c-8.393-0.067-98.577,0-98.577,0l-11.583,7.208h-7.562v72.562
		c0,0,11.792,3.484,17.141,10.765c5.349,7.281,31.137,44.067,31.51,50.844c0.372,6.777,0.327,31.461,0.372,31.859
		c0.155,1.393,8.537,6.567,17.137,1.805c6.441-3.564,9.914-23.352,11.016-32.457c1.021-8.43-6.314-41.685-7.01-41.722
		c-0.096-0.007,53.504,1.716,65.856-0.005c4.362-0.607,8.296-2.404,8.255-10.324C250.437,137.12,245.138,131.763,237.509,129.161z"
		/>
	<path d="M256.476,127.515c2.27-4.832,2.607-10.126,1.344-15.091c-0.898-3.528-2.759-7.158-5.729-10.433
		c2.186-4.906,2.547-10.218,1.275-15.176c-0.973-3.792-3.018-7.684-6.382-11.111c1.618-4.433,1.64-9.034,0.69-13.275
		c-2.35-10.508-12.254-19.299-22.762-20.149c-0.296-0.024-0.592-0.037-0.891-0.04h-98.684c-2.289,0.002-4.531,0.644-6.474,1.854
		l-8.604,5.355h-4.058c-0.408,0-0.811,0.022-1.21,0.059c-1.123-5.612-6.081-9.843-12.025-9.843H32.981
		c-6.772,0-12.265,5.493-12.265,12.265v91.069c0,6.773,5.493,12.266,12.265,12.266h59.986c5.473,0,10.109-3.585,11.688-8.535v0.001
		c1.247,0.495,2.957,1.253,4.699,2.278c1.474,0.865,3.07,1.884,4.106,3.293c2.544,3.465,9.816,13.756,16.659,24.176
		c5.381,8.197,10.57,16.426,12.5,21.055l0.42,31.576c0.202,1.81,0.858,4.35,2.988,6.93c1.396,1.689,4.797,4.6,9.883,6.297
		c5.809,1.938,14.041,2.568,22.393-2.057c4.102-2.268,8.414-7.547,11.236-14.957c3.225-8.475,5.215-20.131,6.018-26.76
		c0.637-5.266-1.445-19.251-3.604-30.528c17.38,0.362,43.67,0.635,51.965-0.521c5.88-0.82,11.082-3.217,14.678-8.134
		c2.295-3.138,4.186-7.601,4.148-14.403C262.707,138.044,260.388,132.221,256.476,127.515z M92.968,142.999H32.981V51.929h59.986
		V142.999z M242.225,155.364c-12.353,1.721-65.952-0.002-65.856,0.005c0.695,0.037,8.03,33.292,7.01,41.722
		c-1.102,9.105-4.574,28.893-11.016,32.457c-8.6,4.763-16.981-0.412-17.137-1.805c-0.045-0.398,0-25.082-0.372-31.859
		c-0.373-6.776-26.162-43.563-31.51-50.844c-5.349-7.281-17.141-10.765-17.141-10.765V61.713h7.562l11.583-7.208
		c0,0,90.184-0.067,98.577,0c10.177,0.824,18.972,16.264,4.259,24.299c16.861,4.777,17.535,19.19,5.043,25.585
		c15.754,5,17.254,18.948,4.283,24.772c7.629,2.602,12.928,7.959,12.971,15.878C250.521,152.959,246.587,154.756,242.225,155.364z"
		/>
	<rect x="32.981" y="51.929" fill="#FFFFFF" width="59.986" height="91.069"/>
</g>
</svg>
