<?xml version="1.0" encoding="utf-8"?>
<!-- Generator: Adobe Illustrator 15.1.0, SVG Export Plug-In . SVG Version: 6.00 Build 0)  -->
<!DOCTYPE svg PUBLIC "-//W3C//DTD SVG 1.1//EN" "http://www.w3.org/Graphics/SVG/1.1/DTD/svg11.dtd">
<svg version="1.1" id="Layer_1" xmlns="http://www.w3.org/2000/svg" xmlns:xlink="http://www.w3.org/1999/xlink" x="0px" y="0px"
	 width="283.46px" height="283.46px" viewBox="0 0 283.46 283.46" enable-background="new 0 0 283.46 283.46" xml:space="preserve">
<g id="Layer_1_1_" xmlns:serif="http://www.serif.com/">
</g>
<g>
	<rect x="62.972" y="201.538" fill="none" width="0.001" height="59.984"/>
	<path fill="none" d="M242.222,128.096c-12.352-1.721-65.952,0.002-65.855-0.005c0.696-0.037,8.03-33.291,7.012-41.721
		c-1.102-9.105-4.578-28.893-11.016-32.458c-8.602-4.762-16.982,0.412-17.139,1.805c-0.043,0.4,0,25.082-0.373,31.859
		c-0.373,6.775-26.161,43.563-31.51,50.844c-5.349,7.281-17.141,10.765-17.141,10.765v72.563h7.564l11.581,7.209
		c0,0,90.184,0.066,98.578,0c10.176-0.824,18.972-16.266,4.258-24.3c16.861-4.776,17.535-19.19,5.046-25.586
		c15.752-5,17.252-18.948,4.282-24.772c7.627-2.601,12.926-7.957,12.969-15.878C250.519,130.5,246.587,128.703,242.222,128.096z"/>
	<path d="M262.744,138.487c0.037-6.804-1.854-11.267-4.146-14.404c-3.598-4.917-8.801-7.313-14.68-8.134
		c-8.295-1.154-34.584-0.883-51.965-0.521c2.157-11.277,4.239-25.263,3.604-30.529c-0.803-6.628-2.791-18.285-6.016-26.758
		c-2.822-7.412-7.138-12.69-11.236-14.96c-8.352-4.623-16.588-3.992-22.395-2.054c-5.084,1.696-8.488,4.607-9.882,6.297
		c-2.131,2.578-2.789,5.12-2.991,6.93l-0.416,31.575c-1.933,4.629-7.121,12.858-12.501,21.055
		c-6.844,10.42-14.116,20.711-16.661,24.176c-1.034,1.409-2.632,2.428-4.106,3.293c-1.742,1.025-3.452,1.783-4.699,2.279
		c-1.579-4.95-6.214-8.535-11.688-8.535H32.981c-6.775,0-12.265,5.492-12.265,12.266v91.068c0,6.773,5.49,12.266,12.265,12.266
		h59.984c5.946,0,10.902-4.229,12.027-9.844c0.397,0.039,0.8,0.062,1.208,0.062h4.058l8.604,5.354
		c1.943,1.209,4.187,1.852,6.474,1.854h98.686c0.297-0.002,0.595-0.016,0.892-0.039c10.506-0.854,20.409-9.643,22.76-20.15
		c0.949-4.24,0.928-8.841-0.69-13.273c3.367-3.428,5.41-7.319,6.384-11.111c1.272-4.959,0.908-10.27-1.275-15.176
		c2.972-3.275,4.828-6.906,5.728-10.434c1.265-4.966,0.929-10.261-1.343-15.092C260.387,151.24,262.707,145.416,262.744,138.487z
		 M32.981,231.531L32.981,231.531v-91.068v-0.001h59.984v0.001v91.067v0.001H32.981z M237.509,154.298
		c12.97,5.824,11.47,19.772-4.282,24.772c12.489,6.396,11.815,20.81-5.046,25.586c14.714,8.034,5.918,23.476-4.258,24.3
		c-8.395,0.066-98.578,0-98.578,0l-11.581-7.209H106.2v-72.563c0,0,11.792-3.484,17.141-10.765
		c5.349-7.281,31.137-44.069,31.51-50.844c0.373-6.777,0.33-31.459,0.373-31.859c0.156-1.393,8.537-6.567,17.139-1.805
		c6.438,3.565,9.914,23.353,11.016,32.458c1.019,8.43-6.315,41.684-7.012,41.721c-0.097,0.007,53.504-1.716,65.855,0.005
		c4.365,0.607,8.297,2.404,8.256,10.324C250.435,146.341,245.136,151.698,237.509,154.298z"/>
</g>
</svg>
