<?xml version="1.0" encoding="utf-8"?>
<!-- Generator: Adobe Illustrator 15.1.0, SVG Export Plug-In . SVG Version: 6.00 Build 0)  -->
<!DOCTYPE svg PUBLIC "-//W3C//DTD SVG 1.1//EN" "http://www.w3.org/Graphics/SVG/1.1/DTD/svg11.dtd">
<svg version="1.1" id="Layer_2" xmlns="http://www.w3.org/2000/svg" xmlns:xlink="http://www.w3.org/1999/xlink" x="0px" y="0px"
	 width="283.46px" height="283.46px" viewBox="0 0 283.46 283.46" enable-background="new 0 0 283.46 283.46" xml:space="preserve">
<g>
	<path d="M254.573,132.627c3.286-3.175,4.998-7.185,4.751-11.486c-0.313-5.447-3.622-10.252-9.152-13.6
		c3.399-3.541,5.121-7.965,4.673-12.493c-0.54-5.449-4.057-10.161-9.737-13.342c3.336-3.772,4.671-8.438,3.637-13.304
		c-1.559-7.329-8.179-13.298-15.398-13.883l-0.292-0.013c-2.486-0.02-12.35-0.029-29.315-0.029c-29.204,0-69.28,0.029-69.28,0.029
		l-1.142,0.001l-11.58,7.208h-10.421v79.553l2.867,0.847c0.1,0.03,10.581,3.213,15.05,9.298
		c10.191,13.871,30.089,43.646,30.727,48.736c0.269,4.896,0.315,19.982,0.339,27.232c0.014,4.483,0.014,4.483,0.047,4.793
		c0.474,4.215,7.56,7.352,13.58,7.352c3.32,0,6.508-0.833,9.474-2.475c8.166-4.522,11.681-24.168,13.049-35.477
		c0.608-5.024-1.197-16.254-2.817-24.789c-1.165-6.131-2.077-10.346-2.789-13.256c8.742,0.238,24.359,0.603,37.896,0.603
		c11.689,0,19.258-0.263,23.135-0.803c7.81-1.086,11.748-5.899,11.704-14.306C263.54,142.214,260.334,136.494,254.573,132.627z"/>
	<path d="M91.868,43.933H31.884c-6.627,0-12,5.373-12,12v91.068c0,6.628,5.373,12,12,12h59.984c6.627,0,12-5.373,12-12V55.933
		C103.868,49.306,98.495,43.933,91.868,43.933z"/>
</g>
</svg>
