<?xml version="1.0" encoding="utf-8"?>
<!-- Generator: Adobe Illustrator 15.1.0, SVG Export Plug-In . SVG Version: 6.00 Build 0)  -->
<!DOCTYPE svg PUBLIC "-//W3C//DTD SVG 1.1//EN" "http://www.w3.org/Graphics/SVG/1.1/DTD/svg11.dtd">
<svg version="1.1" id="Layer_2" xmlns="http://www.w3.org/2000/svg" xmlns:xlink="http://www.w3.org/1999/xlink" x="0px" y="0px"
	 width="283.46px" height="283.46px" viewBox="0 0 283.46 283.46" enable-background="new 0 0 283.46 283.46" xml:space="preserve">
<g>
	<path d="M263.577,134.436c0.044-8.407-3.895-13.22-11.704-14.306c-3.877-0.54-11.445-0.803-23.135-0.803
		c-13.537,0-29.154,0.365-37.896,0.603c0.712-2.911,1.624-7.125,2.789-13.257c1.62-8.535,3.426-19.764,2.817-24.788
		c-1.368-11.309-4.883-30.955-13.049-35.477c-2.966-1.642-6.153-2.474-9.474-2.474c-6.021,0-13.106,3.136-13.58,7.352
		c-0.033,0.309-0.033,0.309-0.047,4.793c-0.023,7.25-0.07,22.335-0.339,27.232c-0.638,5.09-20.535,34.865-30.727,48.736
		c-4.469,6.084-14.95,9.267-15.05,9.297l-2.867,0.847v79.553h10.421l11.58,7.208l1.142,0.001c0,0,40.076,0.029,69.28,0.029
		c16.966,0,26.829-0.01,29.315-0.029l0.292-0.013c7.22-0.585,13.84-6.554,15.398-13.883c1.034-4.865-0.301-9.531-3.637-13.304
		c5.681-3.181,9.197-7.893,9.737-13.342c0.448-4.528-1.273-8.952-4.673-12.493c5.53-3.348,8.84-8.152,9.152-13.6
		c0.247-4.302-1.465-8.312-4.751-11.486C260.334,146.966,263.54,141.246,263.577,134.436z"/>
	<path d="M91.868,124.458H31.884c-6.627,0-12,5.373-12,12v91.069c0,6.627,5.373,12,12,12h59.984c6.627,0,12-5.373,12-12v-91.068
		C103.868,129.832,98.495,124.458,91.868,124.458z"/>
</g>
</svg>
