<?xml version="1.0" encoding="utf-8"?>
<!-- Generator: Adobe Illustrator 15.1.0, SVG Export Plug-In . SVG Version: 6.00 Build 0)  -->
<!DOCTYPE svg PUBLIC "-//W3C//DTD SVG 1.1//EN" "http://www.w3.org/Graphics/SVG/1.1/DTD/svg11.dtd">
<svg version="1.1" id="Layer_1" xmlns="http://www.w3.org/2000/svg" xmlns:xlink="http://www.w3.org/1999/xlink" x="0px" y="0px"
	 width="283.46px" height="283.46px" viewBox="0 0 283.46 283.46" enable-background="new 0 0 283.46 283.46" xml:space="preserve">
<path d="M180.74,119.78l-4.502-62.203h15.528c4.877,0,8.829-5.652,8.829-12.623V19.708c0-6.971-3.952-12.623-8.829-12.623H91.695
	c-4.877,0-8.83,5.652-8.83,12.623v25.247c0,6.971,3.953,12.623,8.83,12.623h15.528l-4.502,62.203
	c-17.846,11.862-31.63,33.133-31.63,59.819c0,6.973,3.953,12.623,8.83,12.623h50.036v54.703c0,0.654,0.106,1.297,0.311,1.881
	l8.83,25.246c1.082,3.096,4.181,3.102,5.265,0l8.83-25.246c0.204-0.584,0.311-1.227,0.311-1.881v-54.703h50.036
	c4.877,0,8.829-5.65,8.829-12.623C212.369,152.679,198.395,131.516,180.74,119.78z"/>
</svg>
