<?xml version="1.0" encoding="utf-8"?>
<!-- Generator: Adobe Illustrator 15.1.0, SVG Export Plug-In . SVG Version: 6.00 Build 0)  -->
<!DOCTYPE svg PUBLIC "-//W3C//DTD SVG 1.1//EN" "http://www.w3.org/Graphics/SVG/1.1/DTD/svg11.dtd">
<svg version="1.1" id="Layer_2" xmlns="http://www.w3.org/2000/svg" xmlns:xlink="http://www.w3.org/1999/xlink" x="0px" y="0px"
	 width="283.46px" height="283.46px" viewBox="0 0 283.46 283.46" enable-background="new 0 0 283.46 283.46" xml:space="preserve">
<g>
	<path d="M254.573,132.627c3.286-3.175,4.998-7.185,4.751-11.486c-0.313-5.447-3.622-10.252-9.152-13.6
		c3.399-3.541,5.121-7.965,4.673-12.493c-0.54-5.449-4.057-10.161-9.737-13.342c3.336-3.772,4.671-8.438,3.637-13.304
		c-1.559-7.329-8.179-13.298-15.398-13.883l-0.292-0.013c-2.486-0.02-12.35-0.029-29.315-0.029c-29.204,0-69.28,0.029-69.28,0.029
		l-1.142,0.001l-11.58,7.208h-10.421v79.553l2.867,0.847c0.1,0.03,10.581,3.213,15.05,9.298
		c10.191,13.871,30.089,43.646,30.727,48.736c0.269,4.896,0.315,19.982,0.339,27.232c0.014,4.483,0.014,4.483,0.047,4.793
		c0.474,4.215,7.56,7.352,13.58,7.352c3.32,0,6.508-0.833,9.474-2.475c8.166-4.522,11.681-24.168,13.049-35.477
		c0.608-5.024-1.197-16.254-2.817-24.789c-1.165-6.131-2.077-10.346-2.789-13.256c8.742,0.238,24.359,0.603,37.896,0.603
		c11.689,0,19.258-0.263,23.135-0.803c7.81-1.086,11.748-5.899,11.704-14.306C263.54,142.214,260.334,136.494,254.573,132.627z
		 M253.577,149.08c0.021,3.915-0.824,4.032-3.081,4.346c-2.318,0.323-7.973,0.708-21.758,0.708c-13.604,0-29.411-0.376-37.624-0.599
		c-0.091-0.003-0.183-0.004-0.273-0.004c-3.018,0-5.879,1.363-7.78,3.719c-1.959,2.426-2.673,5.628-1.933,8.656
		c0.763,3.116,1.663,7.404,2.679,12.748c3.171,16.707,2.771,21.256,2.714,21.719c-2.37,19.596-6.666,26.896-8.032,27.968
		c-1.464,0.798-2.958,1.187-4.563,1.187c-1.327,0-2.662-0.332-3.622-0.695c-0.002-0.438-0.003-0.93-0.005-1.48l-0.001-0.162
		c-0.025-7.853-0.072-22.469-0.353-27.587c-0.013-0.233-0.034-0.465-0.063-0.696c-0.287-2.286-0.72-5.742-13.299-25.25
		c-6.1-9.459-13.672-20.514-19.292-28.164c-4.295-5.848-11.339-9.507-15.976-11.418V71.716h0.421c1.868,0,3.699-0.523,5.285-1.511
		l9.157-5.699c7.946-0.006,41.938-0.028,67.56-0.028c16.411,0,26.154,0.009,28.979,0.027c2.784,0.328,5.616,3.021,6.245,5.978
		c0.227,1.064,0.333,2.7-1.347,4.6c-2.004,2.266-2.874,5.316-2.368,8.298c0.507,2.981,2.335,5.574,4.974,7.052
		c1.628,0.911,4.399,2.851,4.672,5.603c0.19,1.922-0.947,3.553-1.936,4.581c-2.103,2.191-3.097,5.219-2.701,8.229
		c0.396,3.011,2.139,5.679,4.736,7.251c1.558,0.942,4.193,2.926,4.348,5.617c0.027,0.484,0.112,1.956-1.716,3.723
		c-2.173,2.099-3.28,5.067-3.013,8.076s1.881,5.735,4.389,7.419C252.061,142.985,253.558,145.65,253.577,149.08z"/>
	<path d="M103.868,147.001V55.933c0-6.627-5.373-12-12-12H31.884c-6.627,0-12,5.373-12,12v91.068c0,6.628,5.373,12,12,12h59.984
		C98.495,159.001,103.868,153.628,103.868,147.001z M93.868,147.001c0,1.104-0.897,2-2,2H31.884c-1.103,0-2-0.896-2-2V55.933
		c0-1.103,0.897-2,2-2h59.984c1.103,0,2,0.897,2,2V147.001z"/>
</g>
</svg>
