<?xml version="1.0" encoding="utf-8"?>
<!-- Generator: Adobe Illustrator 15.1.0, SVG Export Plug-In . SVG Version: 6.00 Build 0)  -->
<!DOCTYPE svg PUBLIC "-//W3C//DTD SVG 1.1//EN" "http://www.w3.org/Graphics/SVG/1.1/DTD/svg11.dtd">
<svg version="1.1" id="Layer_1" xmlns:serif="http://www.serif.com/"
	 xmlns="http://www.w3.org/2000/svg" xmlns:xlink="http://www.w3.org/1999/xlink" x="0px" y="0px" width="283.46px"
	 height="283.46px" viewBox="0 0 283.46 283.46" enable-background="new 0 0 283.46 283.46" xml:space="preserve">
<g>
	
		<path fill="none" stroke="#000000" stroke-width="4.17" stroke-linecap="round" stroke-linejoin="round" stroke-miterlimit="2.2561" d="
		M90.907,167.61c-12.985,0-24.584-5.977-32.194-15.329c-5.811-7.141-9.298-16.247-9.298-26.164c0-22.899,18.593-41.49,41.492-41.49
		c0-22.899,18.591-41.49,41.49-41.49c22.9,0,41.492,18.59,41.492,41.49h18.668c22.898,0,41.49,18.591,41.49,41.49
		c0,9.917-3.484,19.023-9.297,26.164c-7.611,9.353-19.209,15.329-32.193,15.329"/>
	<g>
		<path fill="none" stroke="#010001" stroke-width="4.17" stroke-linecap="round" stroke-miterlimit="1.25" d="M121.542,226.639
			l24.844-79.173"/>
		<path fill="none" stroke="#010001" stroke-width="4.17" stroke-linecap="round" stroke-miterlimit="1.25" d="M157.515,207.638
			l18.881-60.172"/>
	</g>
	<path fill="#010001" d="M92.564,240.323l8.604-47.052H86.341l9.241-50.539l26.332,0.066l-18.744,41.387h14.563L92.564,240.323z"/>
	<path d="M92.564,240.323l8.604-47.052H86.341l9.241-50.539l26.332,0.066l-18.744,41.387h14.563L92.564,240.323z M95.527,183.446
		l15.128-33.408l-9.016-0.022L95.527,183.446z"/>
</g>
</svg>
