<?xml version="1.0" encoding="utf-8"?>
<!-- Generator: Adobe Illustrator 15.1.0, SVG Export Plug-In . SVG Version: 6.00 Build 0)  -->
<!DOCTYPE svg PUBLIC "-//W3C//DTD SVG 1.1//EN" "http://www.w3.org/Graphics/SVG/1.1/DTD/svg11.dtd">
<svg version="1.1" xmlns="http://www.w3.org/2000/svg" xmlns:xlink="http://www.w3.org/1999/xlink" x="0px" y="0px"
	 width="283.46px" height="283.46px" viewBox="0 0 283.46 283.46" enable-background="new 0 0 283.46 283.46" xml:space="preserve">
<g id="Layer_1" display="none">
	<path display="inline" d="M261.028,174.871c-7.057,0-12.983,4.768-14.778,11.252h-23.316v-30.861
		c3.738-1.236,6.719-4.113,8.105-7.78h20.748c2.547,0,4.609-2.063,4.609-4.608c0-2.546-2.063-4.609-4.609-4.609h-20.748
		c-1.388-3.667-4.367-6.544-8.105-7.78V62.52c1.572-1.223,2.588-3.129,2.588-5.276c0-3.692-2.992-6.686-6.684-6.686
		c-3.692,0-6.687,2.993-6.687,6.686c0,2.146,1.017,4.051,2.588,5.275v67.964c-3.737,1.236-6.718,4.113-8.103,7.779h-62.737
		c-1.38-3.653-4.344-6.521-8.062-7.765V61.341h23.274c1.794,6.485,7.723,11.252,14.777,11.252c8.477,0,15.349-6.873,15.349-15.349
		s-6.872-15.349-15.349-15.349c-7.057,0-12.983,4.767-14.777,11.252h-27.413c-2.262,0-4.097,1.834-4.097,4.097
		c0,0.137,0.027,0.268,0.041,0.401v72.823c-3.758,1.228-6.754,4.114-8.146,7.794H56.845c-1.386-3.667-4.366-6.543-8.104-7.779
		V62.241c1.573-1.223,2.589-3.128,2.589-5.275c0-3.692-2.993-6.685-6.686-6.685s-6.686,2.993-6.686,6.685
		c0,2.147,1.016,4.052,2.589,5.275v68.242c-3.737,1.236-6.718,4.113-8.104,7.779H11.692c-2.545,0-4.608,2.063-4.608,4.608
		c0,2.547,2.063,4.609,4.608,4.609h20.752c1.386,3.667,4.366,6.544,8.104,7.78v34.958c0,2.263,1.834,4.097,4.097,4.097h27.413
		c1.794,6.483,7.722,11.252,14.777,11.252c8.478,0,15.349-6.872,15.349-15.349c0-8.478-6.871-15.35-15.349-15.35
		c-7.056,0-12.983,4.769-14.777,11.252H48.741v-30.861c3.737-1.235,6.718-4.112,8.104-7.779h62.653
		c1.392,3.682,4.388,6.566,8.146,7.795v74.329c-1.573,1.224-2.589,3.129-2.589,5.274c0,3.691,2.994,6.686,6.686,6.686
		c3.693,0,6.686-2.993,6.686-6.686c0-2.146-1.016-4.053-2.588-5.274v-74.358c3.718-1.244,6.681-4.113,8.062-7.766h62.737
		c1.385,3.667,4.363,6.543,8.104,7.779v34.959c0,2.263,1.834,4.097,4.096,4.097h0.002l0,0h27.412
		c1.795,6.483,7.723,11.252,14.778,11.252c8.476,0,15.349-6.872,15.349-15.349C276.378,181.741,269.503,174.871,261.028,174.871z"/>
</g>
<g id="Layer_2">
	<path d="M259.557,69.116c-9.29,0-16.82,7.53-16.82,16.82c0,3.243,0.921,6.271,2.512,8.84l-43.088,43.087h-83.689l37.619-37.619
		c2.569,1.59,5.598,2.511,8.84,2.511c9.289,0,16.82-7.531,16.82-16.82s-7.531-16.82-16.82-16.82c-9.288,0-16.819,7.531-16.819,16.82
		c0,3.244,0.92,6.271,2.512,8.841l-43.088,43.087h-87.25l37.618-37.619c2.569,1.591,5.597,2.511,8.84,2.511
		c9.289,0,16.82-7.53,16.82-16.819c0-9.29-7.531-16.82-16.82-16.82s-16.82,7.53-16.82,16.82c0,3.243,0.92,6.271,2.511,8.84
		l-44.219,44.22c-0.01,0.01-0.016,0.021-0.025,0.031c-0.168,0.172-0.322,0.358-0.456,0.558c-0.066,0.1-0.113,0.207-0.169,0.311
		c-0.063,0.117-0.135,0.23-0.187,0.354c-0.054,0.131-0.085,0.267-0.125,0.401c-0.031,0.107-0.073,0.21-0.095,0.321
		c-0.099,0.5-0.099,1.016,0,1.515c0.022,0.113,0.065,0.217,0.097,0.326c0.039,0.133,0.069,0.268,0.122,0.395
		c0.054,0.129,0.127,0.246,0.194,0.369c0.054,0.1,0.098,0.201,0.161,0.297c0.284,0.424,0.648,0.789,1.072,1.072
		c0.093,0.063,0.194,0.104,0.291,0.158c0.124,0.068,0.243,0.143,0.375,0.195c0.127,0.055,0.259,0.084,0.39,0.123
		c0.11,0.031,0.217,0.074,0.332,0.098c0.25,0.051,0.503,0.076,0.757,0.076h54.192l43.086,43.088c-1.59,2.568-2.511,5.596-2.511,8.84
		c0,9.289,7.53,16.82,16.819,16.82s16.82-7.531,16.82-16.82s-7.531-16.82-16.82-16.82c-3.243,0-6.271,0.92-8.84,2.512
		l-37.618-37.619h87.252l43.086,43.088c-1.591,2.568-2.511,5.596-2.511,8.84c0,9.289,7.529,16.82,16.819,16.82
		c9.289,0,16.819-7.531,16.819-16.82s-7.53-16.82-16.819-16.82c-3.244,0-6.272,0.92-8.841,2.512l-37.618-37.619h29.496
		c0.253,0,0.507-0.025,0.757-0.076c0.116-0.023,0.224-0.066,0.336-0.1c0.129-0.037,0.26-0.068,0.386-0.119
		c0.134-0.057,0.255-0.131,0.381-0.201c0.094-0.053,0.193-0.094,0.283-0.154c0.215-0.143,0.414-0.305,0.595-0.486l44.217-44.216
		c2.568,1.591,5.597,2.511,8.841,2.511c9.289,0,16.819-7.531,16.819-16.82C276.376,76.646,268.846,69.116,259.557,69.116z"/>
</g>
</svg>
