<?xml version="1.0" encoding="iso-8859-1"?>
<!-- Generator: Adobe Illustrator 15.1.0, SVG Export Plug-In . SVG Version: 6.00 Build 0)  -->
<!DOCTYPE svg PUBLIC "-//W3C//DTD SVG 1.1//EN" "http://www.w3.org/Graphics/SVG/1.1/DTD/svg11.dtd">
<svg version="1.1" id="Layer_2" xmlns="http://www.w3.org/2000/svg" xmlns:xlink="http://www.w3.org/1999/xlink" x="0px" y="0px"
	 width="283.46px" height="283.46px" viewBox="0 0 283.46 283.46" style="enable-background:new 0 0 283.46 283.46;"
	 xml:space="preserve">
<g>
	<path d="M141.73,203.828c53.403,0,96.695-43.293,96.695-96.696c0-53.404-43.292-96.695-96.695-96.695s-96.695,43.291-96.695,96.695
		C45.035,160.535,88.327,203.828,141.73,203.828z M146.757,190.064c0,0.396-0.322,0.719-0.718,0.719h-8.616
		c-0.397,0-0.719-0.322-0.719-0.719v-25.85c0-0.396,0.321-0.717,0.719-0.717h8.616c0.396,0,0.718,0.32,0.718,0.717V190.064z
		 M184.785,178.037l-5.323,3.072l-12.925-22.385l0.006-0.004l7.456-4.305l12.926,22.385L184.785,178.037z M211.403,152.33
		l-22.385-12.924l4.304-7.462l22.384,12.922l0.004,0.003L211.403,152.33z M225.172,102.314c0.134,0.135,0.209,0.317,0.209,0.508
		v8.617c0,0.397-0.321,0.718-0.718,0.718h-25.851c-0.396,0-0.717-0.321-0.717-0.718v-8.618c0-0.191,0.076-0.372,0.21-0.507
		c0.135-0.135,0.315-0.211,0.507-0.211l25.852,0C224.856,102.103,225.034,102.18,225.172,102.314z M189.011,74.855l22.385-12.92
		l4.306,7.461v0.002l-15.793,9.115l-6.592,3.804l-0.002,0.003l-4.311-7.462L189.011,74.855z M166.542,55.541l12.926-22.386
		l7.459,4.307l0.004,0.002l-12.929,22.387l-7.463-4.309L166.542,55.541z M136.705,24.197c0-0.396,0.32-0.718,0.718-0.718h8.613
		c0.399,0,0.72,0.322,0.72,0.718v25.849c0,0.397-0.32,0.719-0.72,0.719h-8.613c-0.397,0-0.718-0.321-0.718-0.719V24.197z
		 M141.729,94.025c0.455,0,0.902,0.023,1.344,0.068c3.094,0.315,5.869,1.707,7.946,3.793l31.411-17.458
		c0.943-0.525,2.334,0.175,3.103,1.562c0.096,0.173,0.178,0.349,0.247,0.525c0.135,0.352,0.216,0.706,0.242,1.041
		c0.064,0.838-0.212,1.566-0.802,1.894l-31.15,17.311c0.485,1.369,0.763,2.834,0.763,4.369c0,6.513-4.756,11.901-10.983,12.917
		c0.463,0.17,0.752,0.395,0.752,0.644v22.499c0,0.531-1.284,0.962-2.872,0.962c-1.584,0-2.872-0.431-2.872-0.962V120.69
		c0-0.249,0.289-0.474,0.752-0.644c-6.227-1.015-10.984-6.403-10.984-12.917C128.625,99.892,134.492,94.025,141.729,94.025z
		 M116.927,158.726l-12.924,22.387l-7.463-4.309V176.8l12.926-22.385l7.455,4.307L116.927,158.726z M96.534,37.461l7.462-4.308
		l12.923,22.385l-0.001,0.001l-7.459,4.306L96.534,37.461L96.534,37.461z M67.754,69.394l4.307-7.462l22.385,12.925v0.001
		l-4.307,7.461L67.754,69.394L67.754,69.394z M58.082,111.44v-8.616c0-0.191,0.073-0.373,0.209-0.508
		c0.068-0.068,0.145-0.12,0.231-0.156c0.048-0.02,0.104-0.021,0.154-0.031c0.041-0.007,0.08-0.024,0.123-0.024h25.848
		c0.397,0,0.72,0.321,0.72,0.719v8.616c0,0.191-0.076,0.372-0.212,0.507c-0.135,0.133-0.317,0.21-0.508,0.21H58.799
		C58.402,112.158,58.082,111.837,58.082,111.44z M67.754,144.873l0.003-0.002l22.382-12.924l4.307,7.458l0.002,0.001l-22.386,12.925
		L67.754,144.873z"/>
	<path d="M255.663,238.529c-2.586-13.346-14.325-23.422-28.424-23.422c-14.101,0-25.84,10.076-28.425,23.422h-28.66
		c-2.585-13.346-14.324-23.422-28.424-23.422c-14.099,0-25.838,10.076-28.423,23.422H84.646
		c-2.584-13.346-14.325-23.422-28.423-23.422c-14.1,0-25.839,10.076-28.424,23.422H7.084v15.578h21.97
		c4.083,11.043,14.705,18.918,27.169,18.918c12.462,0,23.085-7.875,27.168-18.918h31.171c4.084,11.043,14.706,18.918,27.168,18.918
		c12.463,0,23.085-7.875,27.168-18.918h31.173c4.082,11.043,14.704,18.918,27.168,18.918c12.462,0,23.084-7.875,27.167-18.918h21.97
		v-15.578H255.663z M77.555,230.433l-7.985,7.986c0.736,1.734,1.146,3.645,1.146,5.646c0,7.992-6.501,14.492-14.492,14.492
		c-7.992,0-14.493-6.5-14.493-14.492s6.501-14.494,14.493-14.494c2.521,0,4.894,0.65,6.962,1.789
		c3.363-3.363,6.559-6.559,7.65-7.648c0.525-0.525,1.226-0.816,1.97-0.816s1.443,0.291,1.972,0.818
		c0.685,0.686,2.087,2.09,2.782,2.781C78.638,227.582,78.638,229.345,77.555,230.433z M162.083,230.433
		c-1.034,1.035-3.968,3.967-7.327,7.326c0.93,1.91,1.466,4.043,1.466,6.307c0,7.992-6.501,14.492-14.492,14.492
		c-7.99,0-14.492-6.5-14.492-14.492c0-1.084,0.129-2.135,0.355-3.15c-0.162-0.357-0.255-0.742-0.256-1.146
		c0-0.746,0.289-1.447,0.817-1.975l0.78-0.781l0.372-0.371c2.534-4.227,7.147-7.07,12.423-7.07c2.263,0,4.396,0.537,6.307,1.465
		c3.243-3.242,6.27-6.27,7.327-7.324c0.526-0.525,1.227-0.816,1.97-0.816c0.745,0,1.444,0.291,1.973,0.818
		c0.684,0.688,2.088,2.09,2.785,2.785C163.164,227.583,163.164,229.343,162.083,230.433z M227.239,258.558
		c-7.991,0-14.493-6.5-14.493-14.492s6.502-14.494,14.493-14.494c7.99,0,14.492,6.502,14.492,14.494
		S235.229,258.558,227.239,258.558z"/>
	<path d="M73.202,225.287c-0.109-0.109-0.253-0.166-0.396-0.166s-0.287,0.057-0.397,0.166c-2.376,2.373-14.697,14.697-17.072,17.07
		c-0.219,0.221-0.574,0.221-0.794,0c-1.169-1.17-4.599-4.6-5.769-5.77c-0.219-0.219-0.574-0.219-0.793,0
		c-0.688,0.688-2.094,2.094-2.78,2.781c-0.22,0.219-0.22,0.574,0,0.793c1.614,1.615,7.683,7.684,9.327,9.328
		c0.108,0.109,0.258,0.172,0.412,0.172s0.303-0.063,0.412-0.172c2.713-2.713,17.967-17.967,20.631-20.631
		c0.218-0.219,0.218-0.574,0-0.793C75.292,227.38,73.887,225.974,73.202,225.287z"/>
	<path d="M157.731,225.287c-0.109-0.109-0.254-0.166-0.397-0.166c-0.143,0-0.286,0.057-0.396,0.166
		c-2.377,2.373-14.697,14.697-17.073,17.07c-0.219,0.221-0.573,0.221-0.793,0c-1.17-1.17-4.6-4.6-5.77-5.77
		c-0.219-0.219-0.573-0.219-0.793,0c-0.688,0.688-2.093,2.094-2.78,2.781c-0.22,0.219-0.22,0.574,0,0.793
		c1.614,1.615,7.684,7.684,9.327,9.328c0.108,0.109,0.258,0.172,0.412,0.172s0.303-0.063,0.413-0.172
		c2.712-2.713,17.966-17.967,20.63-20.631c0.217-0.219,0.217-0.574,0-0.793C159.821,227.38,158.416,225.974,157.731,225.287z"/>
</g>
</svg>
