<?xml version="1.0" encoding="utf-8"?>
<!-- Generator: Adobe Illustrator 15.1.0, SVG Export Plug-In . SVG Version: 6.00 Build 0)  -->
<!DOCTYPE svg PUBLIC "-//W3C//DTD SVG 1.1//EN" "http://www.w3.org/Graphics/SVG/1.1/DTD/svg11.dtd">
<svg version="1.1" id="Layer_1" xmlns="http://www.w3.org/2000/svg" xmlns:xlink="http://www.w3.org/1999/xlink" x="0px" y="0px"
	 width="283.465px" height="283.465px" viewBox="0 0 283.465 283.465" enable-background="new 0 0 283.465 283.465"
	 xml:space="preserve">
<path fill-rule="evenodd" clip-rule="evenodd" d="M112.759,165.565c1.051,1.051,2.756,1.051,3.807,0.001
	c11.4-11.401,70.528-70.53,81.928-81.93c1.052-1.051,2.756-1.051,3.807,0c3.3,3.3,10.046,10.045,13.346,13.345
	c1.051,1.051,1.051,2.755,0,3.806c-12.78,12.78-85.985,85.984-99.004,99.003c-0.524,0.524-1.237,0.819-1.979,0.819
	c-0.743,0-1.456-0.295-1.981-0.819c-7.887-7.888-37.014-37.016-44.762-44.763c-1.052-1.052-1.052-2.755,0-3.806
	c3.299-3.3,10.044-10.045,13.344-13.345c1.051-1.052,2.756-1.052,3.807,0C90.688,143.493,107.144,159.949,112.759,165.565z
	 M141.783,40.746c55.735,0,100.983,45.25,100.983,100.984c0,55.735-45.248,100.984-100.983,100.984
	c-55.734,0-100.984-45.249-100.984-100.984C40.799,85.995,86.049,40.746,141.783,40.746z M141.783,7.084
	c74.313,0,134.646,60.333,134.646,134.646c0,74.313-60.333,134.646-134.646,134.646c-74.313,0-134.646-60.332-134.646-134.646
	C7.138,67.417,67.47,7.084,141.783,7.084z"/>
</svg>
