<?xml version="1.0" encoding="utf-8"?>
<!-- Generator: Adobe Illustrator 15.1.0, SVG Export Plug-In . SVG Version: 6.00 Build 0)  -->
<!DOCTYPE svg PUBLIC "-//W3C//DTD SVG 1.1//EN" "http://www.w3.org/Graphics/SVG/1.1/DTD/svg11.dtd">
<svg version="1.1" id="Layer_1" xmlns="http://www.w3.org/2000/svg" xmlns:xlink="http://www.w3.org/1999/xlink" x="0px" y="0px"
	 width="96px" height="96px" viewBox="0 0 96 96" enable-background="new 0 0 96 96" xml:space="preserve">
<g>
	<path d="M51.232,42.229c-3.045,0-4.558,2.813-4.558,5.899c0,3.043,1.639,5.752,4.535,5.752c2.896,0,4.535-2.666,4.535-5.879
		C55.746,45.169,54.275,42.229,51.232,42.229z"/>
	<path d="M83.443,34.017c-2.123-1.271-4.592-2.018-7.232-2.018h-57.03c-5.04,0-9.474,2.674-11.989,6.666
		c-1.922,2.615-3.074,5.834-3.074,9.32c0,3.477,1.139,6.684,3.043,9.297c2.507,4.02,6.958,6.719,12.02,6.719h57.03
		c2.65,0,5.127-0.752,7.254-2.031c5.004-2.666,8.418-7.93,8.418-13.982C91.883,41.938,88.459,36.675,83.443,34.017z M20.158,62.144
		c-7.811,0-14.143-6.332-14.143-14.143c0-7.813,6.332-14.143,14.143-14.143c7.809,0,14.141,6.33,14.141,14.143
		C34.299,55.812,27.967,62.144,20.158,62.144z M51.107,55.372c-3.76,0-6.363-2.918-6.363-7.201c0-4.492,2.771-7.434,6.553-7.434
		c3.883,0,6.381,2.961,6.381,7.182C57.678,52.771,54.719,55.372,51.107,55.372z M67.654,42.522h-5.773v4.703h5.334v1.512h-5.334
		v6.404h-1.848V40.989h7.621V42.522z M77.881,42.522h-5.773v4.703h5.332v1.512h-5.332v6.404H70.26V40.989h7.621V42.522z"/>
</g>
</svg>
