<?xml version="1.0" encoding="utf-8"?>
<!-- Generator: Adobe Illustrator 15.1.0, SVG Export Plug-In . SVG Version: 6.00 Build 0)  -->
<!DOCTYPE svg PUBLIC "-//W3C//DTD SVG 1.1//EN" "http://www.w3.org/Graphics/SVG/1.1/DTD/svg11.dtd">
<svg version="1.1" id="Layer_1" xmlns="http://www.w3.org/2000/svg" xmlns:xlink="http://www.w3.org/1999/xlink" x="0px" y="0px"
	 width="96px" height="96px" viewBox="0 0 96 96" enable-background="new 0 0 96 96" xml:space="preserve">
<g>
	<path d="M27.969,41.763c-3.045,0-4.557,2.813-4.557,5.899c0,3.044,1.639,5.753,4.535,5.753s4.535-2.666,4.535-5.879
		C32.482,44.702,31.012,41.763,27.969,41.763z"/>
	<path d="M88.841,38.717c-2.51-4.021-6.961-6.718-12.021-6.718H19.791c-2.65,0-5.128,0.751-7.255,2.029
		c-5.003,2.666-8.418,7.932-8.418,13.982c0.002,6.051,3.427,11.313,8.44,13.971c2.124,1.272,4.592,2.02,7.233,2.02H76.82
		c5.039,0,9.476-2.675,11.986-6.666c1.926-2.617,3.074-5.835,3.074-9.322C91.882,44.538,90.744,41.331,88.841,38.717z
		 M27.842,54.903c-3.758,0-6.361-2.918-6.361-7.199c0-4.493,2.771-7.434,6.551-7.434c3.885,0,6.383,2.959,6.383,7.182
		C34.414,52.302,31.454,54.903,27.842,54.903z M47.414,54.674h-1.848l-4.493-7.182c-0.987-1.574-1.933-3.19-2.625-4.724
		l-0.063,0.021c0.105,1.783,0.127,3.484,0.127,5.837v6.047h-1.723V40.524h2.016l4.515,7.158c1.028,1.658,1.869,3.149,2.521,4.6
		l0.063-0.021c-0.168-1.891-0.21-3.611-0.21-5.816v-5.92h1.722v14.149H47.414z M75.843,62.142c-7.811,0-14.143-6.33-14.143-14.143
		s6.334-14.143,14.143-14.143c7.812,0,14.144,6.33,14.144,14.143S83.652,62.142,75.843,62.142z"/>
</g>
</svg>
