<?xml version="1.0" encoding="utf-8"?>
<!-- Generator: Adobe Illustrator 15.1.0, SVG Export Plug-In . SVG Version: 6.00 Build 0)  -->
<!DOCTYPE svg PUBLIC "-//W3C//DTD SVG 1.1//EN" "http://www.w3.org/Graphics/SVG/1.1/DTD/svg11.dtd">
<svg version="1.1" id="Layer_1" xmlns="http://www.w3.org/2000/svg" xmlns:xlink="http://www.w3.org/1999/xlink" x="0px" y="0px"
	 width="283.465px" height="283.465px" viewBox="0 0 283.465 283.465" enable-background="new 0 0 283.465 283.465"
	 xml:space="preserve">
<g>
	<path fill="#231F20" d="M257.48,139.954c-0.201-2.847-2.598-5.076-5.453-5.076H46.775c-3.016,0-5.467,2.451-5.467,5.467v10.555
		c0,1.408,1.142,2.551,2.551,2.551h3.553v21.041c0,2.334,1.898,4.232,4.232,4.232c15.201,0,25.676,4.49,31.131,13.348
		c15.518,25.184-10.576,77.641-10.842,78.168c-0.666,1.32-0.6,2.863,0.178,4.125c0.766,1.24,2.145,2.014,3.604,2.014h102.721
		c2.334,0,4.232-1.9,4.232-4.234c0-0.637-0.137-1.248-0.408-1.816c-0.574-1.455-4.73-12.643-3.268-27.363
		c2.096-21.086,14.18-39.131,35.918-53.635c21.178-14.148,30.02-27.168,33.699-35.879h4.031c1.047,0,1.988-0.641,2.373-1.613
		C257.688,145.075,257.539,140.751,257.48,139.954z"/>
	<path fill="#231F20" d="M113.061,127.257h138.93c1.43,0,2.59-1.143,2.59-2.551v-8.396c0-1.409-1.16-2.553-2.59-2.553h-138.93
		c-1.43,0-2.59,1.144-2.59,2.553v8.396C110.471,126.115,111.631,127.257,113.061,127.257z"/>
	<path fill="#231F20" d="M101.658,123.612V41.548v-6.742v-6.743V10.731c0-2.014-1.633-3.645-3.646-3.645H29.605
		c-2.014,0-3.645,1.631-3.645,3.645v17.331v6.743v6.742v82.064c0,2.014,1.631,3.646,3.645,3.646h68.406
		C100.025,127.257,101.658,125.626,101.658,123.612z"/>
</g>
</svg>
