<?xml version="1.0" encoding="utf-8"?>
<!-- Generator: Adobe Illustrator 15.1.0, SVG Export Plug-In . SVG Version: 6.00 Build 0)  -->
<!DOCTYPE svg PUBLIC "-//W3C//DTD SVG 1.1//EN" "http://www.w3.org/Graphics/SVG/1.1/DTD/svg11.dtd">
<svg version="1.1" id="Layer_1" xmlns="http://www.w3.org/2000/svg" xmlns:xlink="http://www.w3.org/1999/xlink" x="0px" y="0px"
	 width="283.465px" height="283.465px" viewBox="0 0 283.465 283.465" enable-background="new 0 0 283.465 283.465"
	 xml:space="preserve">
<title></title>
<g>
	<path d="M231.876,14.008c-0.317,0.288-0.628,0.583-0.933,0.886l-52.387,52.387c-1.792,1.865-2.852,4.316-2.981,6.898
		c-0.363,4.291-3.561,7.803-7.8,8.565c-3.444,0.511-6.646,2.076-9.164,4.482l-6.998,6.998l14.138,14.137L40.603,233.513l1.421,1.424
		l-1.415-1.414l-11.813,6.979L7.184,266.698l9.664,9.68l26.194-21.61l6.999-11.832l-0.005-0.003l125.144-125.146l14.144,14.143
		l6.996-6.998c2.406-2.518,3.975-5.72,4.482-9.165c0.76-4.237,4.274-7.436,8.564-7.798c2.585-0.131,5.034-1.191,6.899-2.982
		l51.852-51.853c10.147-10.148,11.082-26.66,1.419-37.309C259.638,4.925,242.778,4.112,231.876,14.008z M254.692,46.014
		c1.517,1.514,1.517,3.975,0,5.49l-12.864,12.865l-14.997,14.996l-0.003-0.001l-9.721,9.721l0.003,0.002l-6.639,6.637
		c-1.515,1.516-3.974,1.516-5.49,0c-1.517-1.517-1.517-3.975,0-5.491l5.497-5.495l-0.002-0.002l14.996-14.996l0.002,0.001
		l10.863-10.864l12.866-12.865C250.716,44.497,253.176,44.497,254.692,46.014z M254.051,29.509c1.517,1.515,1.517,3.975,0,5.49
		l-20.797,20.796l-8.646,8.645l0.004,0.001l-14.996,14.995l-0.003-0.003l-1.076,1.077l0.001,0.001l-6.635,6.635
		c-1.516,1.517-3.975,1.517-5.49,0c-1.517-1.516-1.517-3.975,0-5.49l5.494-5.494l-0.002-0.001l14.994-14.995l0.003,0.001
		l10.863-10.864l20.795-20.796C250.077,27.992,252.534,27.992,254.051,29.509z M237.269,28.589c1.517,1.514,1.517,3.976,0,5.49
		l-12.865,12.865l-8.645,8.645l0.001,0.001l-14.996,14.996l-0.003-0.003l-1.077,1.076l0.002,0.001l-6.638,6.638
		c-1.515,1.516-3.974,1.516-5.49,0c-1.517-1.517-1.517-3.975,0-5.491l5.496-5.495l-0.001-0.001l14.996-14.996l0.002,0.001
		l10.862-10.864l12.866-12.865C233.291,27.073,235.752,27.073,237.269,28.589z"/>
</g>
</svg>
