<?xml version="1.0" encoding="utf-8"?>
<!-- Generator: Adobe Illustrator 15.1.0, SVG Export Plug-In . SVG Version: 6.00 Build 0)  -->
<!DOCTYPE svg PUBLIC "-//W3C//DTD SVG 1.1//EN" "http://www.w3.org/Graphics/SVG/1.1/DTD/svg11.dtd">
<svg version="1.1" id="Uploaded_to_svgrepo.com" xmlns="http://www.w3.org/2000/svg" xmlns:xlink="http://www.w3.org/1999/xlink"
	 x="0px" y="0px" width="283.465px" height="283.465px" viewBox="0 0 283.465 283.465" enable-background="new 0 0 283.465 283.465"
	 xml:space="preserve">
<g>
	<path fill="none" d="M199.438,64.792H84.026c-10.608,0-19.235,8.626-19.235,19.235v48.087c0,10.609,8.626,19.235,19.235,19.235
		h115.411c10.613,0,19.234-8.626,19.234-19.235V84.026C218.672,73.418,210.051,64.792,199.438,64.792z M209.055,132.114
		c0,5.302-4.32,9.618-9.617,9.618H84.026c-5.297,0-9.617-4.316-9.617-9.618V84.026c0-5.302,4.32-9.617,9.617-9.617h115.411
		c5.297,0,9.617,4.315,9.617,9.617V132.114z"/>
	<path fill="none" d="M84.026,132.114h115.411V84.026H84.026V132.114z M93.645,93.645h96.176v28.853H93.645V93.645L93.645,93.645z"
		/>
	<path d="M257.143,84.026h-9.617v48.088h9.617c5.316,0,9.617-4.306,9.617-9.618V93.644C266.76,88.333,262.459,84.026,257.143,84.026
		z"/>
	<path d="M189.82,7.086H93.645c-26.556,0-48.087,21.531-48.087,48.087v105.982c0,12.67,1.249,25.303,3.733,37.719l10.857,54.306
		c2.7,13.496,14.539,23.199,28.294,23.199h106.582c13.75,0,25.594-9.703,28.289-23.199l10.857-54.306
		c2.488-12.416,3.737-25.049,3.737-37.719V55.174C237.908,28.618,216.381,7.086,189.82,7.086z M218.672,132.114
		c0,10.609-8.621,19.235-19.234,19.235H84.026c-10.608,0-19.235-8.626-19.235-19.235V84.026c0-10.608,8.626-19.235,19.235-19.235
		h115.411c10.613,0,19.234,8.626,19.234,19.235V132.114z"/>
	<path d="M16.705,93.645v28.853c0,5.313,4.307,9.618,9.618,9.618h9.618V84.027h-9.618C21.01,84.026,16.705,88.333,16.705,93.645z"/>
	<path d="M199.438,74.409H84.026c-5.297,0-9.617,4.315-9.617,9.617v48.088c0,5.302,4.32,9.618,9.617,9.618h115.411
		c5.297,0,9.617-4.316,9.617-9.618V84.026C209.055,78.726,204.734,74.409,199.438,74.409z M199.438,132.114H84.026V84.026h115.411
		V132.114z"/>
	<rect x="93.645" y="93.645" width="96.176" height="28.853"/>
</g>
</svg>
