<?xml version="1.0" encoding="utf-8"?>
<!-- Generator: Adobe Illustrator 15.1.0, SVG Export Plug-In . SVG Version: 6.00 Build 0)  -->
<!DOCTYPE svg PUBLIC "-//W3C//DTD SVG 1.1//EN" "http://www.w3.org/Graphics/SVG/1.1/DTD/svg11.dtd">
<svg version="1.1" id="Layer_3" xmlns="http://www.w3.org/2000/svg" xmlns:xlink="http://www.w3.org/1999/xlink" x="0px" y="0px"
	 width="283.46px" height="283.46px" viewBox="0 0 283.46 283.46" enable-background="new 0 0 283.46 283.46" xml:space="preserve">
<g>
	<path d="M181.155,191.162h-24.829h-3.263v-0.002h3.263c-1.288-0.646-2.376-1.382-3.263-2.184v-0.01h-0.011
		c-0.958-0.867-1.679-1.812-2.139-2.809v-3.871v-11.695v-11.697v-11.695c0-0.727-0.195-1.418-0.545-2.047
		c-0.353-0.629-0.859-1.195-1.488-1.671s-1.377-0.86-2.207-1.126c-0.014-0.006-0.029-0.009-0.045-0.014V46.577
		c1.561-0.21,3.024-0.521,4.383-0.931c2.777-0.839,5.117-1.938,6.961-3.267c1.847-1.333,3.324-2.82,4.395-4.42
		c1.071-1.6,1.891-3.544,2.436-5.78c0.535-2.201,0.809-4.754,0.809-7.589V8.064c0-0.541-0.438-0.979-0.979-0.979h-45.798
		c-0.543-0.001-0.982,0.438-0.982,0.979V23.84c0,3.67,0.223,6.41,0.681,8.374c0.638,2.767,1.812,5.167,3.487,7.129
		c2.141,2.533,4.909,4.453,8.229,5.705c2.011,0.758,4.215,1.284,6.584,1.579v95.572c-0.19,0.046-0.378,0.097-0.561,0.156
		c-0.83,0.266-1.578,0.65-2.207,1.126c-0.628,0.476-1.136,1.042-1.487,1.671s-0.546,1.32-0.546,2.047v11.695v11.697v11.695v3.871
		c-0.888,1.922-2.724,3.655-5.412,5.002h3.276v0.002h-3.276h-24.314c-0.16,2.797-0.245,5.639-0.245,8.521
		c0,42.356,17.761,76.694,39.669,76.694c21.909,0,39.67-34.338,39.67-76.694C181.4,196.8,181.315,193.958,181.155,191.162z
		 M131.877,34.812c-2.026-1.239-3.323-2.643-3.961-4.28c-0.338-0.879-0.741-2.771-0.741-6.787v-6.683h29.112v0.001v6.839
		c0,2.694-0.234,4.778-0.697,6.193c-0.416,1.267-0.973,2.257-1.659,2.943c-1.103,1.103-2.664,1.993-4.64,2.646
		c-2.117,0.7-4.777,1.055-7.903,1.055C137.169,36.739,133.97,36.091,131.877,34.812z M143.689,261.011
		c0,1.08-0.877,1.959-1.959,1.959s-1.959-0.878-1.959-1.959v-30.855c0-1.082,0.877-1.959,1.959-1.959s1.959,0.877,1.959,1.959
		V261.011z M141.73,154.731c-1.352,0-2.448-1.097-2.448-2.449c0-1.352,1.097-2.448,2.448-2.448c1.354,0,2.449,1.096,2.449,2.448
		C144.179,153.635,143.082,154.731,141.73,154.731z"/>
</g>
</svg>
