<?xml version="1.0" encoding="utf-8"?>
<!-- Generator: Adobe Illustrator 15.1.0, SVG Export Plug-In . SVG Version: 6.00 Build 0)  -->
<!DOCTYPE svg PUBLIC "-//W3C//DTD SVG 1.1//EN" "http://www.w3.org/Graphics/SVG/1.1/DTD/svg11.dtd">
<svg version="1.1" id="Layer_2" xmlns="http://www.w3.org/2000/svg" xmlns:xlink="http://www.w3.org/1999/xlink" x="0px" y="0px"
	 width="283.465px" height="283.465px" viewBox="0 0 283.465 283.465" enable-background="new 0 0 283.465 283.465"
	 xml:space="preserve">
<g>
	<path fill="#231F20" d="M216.21,10.065l-3.328-0.323c-15.271-2.099-31.127-0.567-46.627,3.309
		c-1.516-3.688-3.588-5.964-5.877-5.964c-2.994,0-5.623,3.9-7.111,9.769C109.041,31.661,70.053,63.237,59.36,80.229
		c-0.261,0.33-0.497,0.709-0.638,1.052c-0.269,0.696-0.381,1.387-0.319,2.29c0.104,0.855,0.561,1.619,0.965,2.323
		c0.404,0.703,0.94,1.316,1.57,1.811c0.63,0.493,1.354,0.866,2.135,1.09c0.781,0.224,1.618,0.297,2.475,0.192
		c0.087-0.011,0.184-0.028,0.285-0.05c0.632-0.106,1.227-0.306,1.773-0.58c9.56-3.799,42.114-23.442,75.251-32.953
		c2.329,0.178,6.593-0.324,7.517,6.561l0,0v6.51v197.9c0,5.525,4.479,10.004,10.004,10.004c5.525,0,10.004-4.479,10.004-10.004
		V55.741c1.271-5.916,5.443-5.212,7.572-5.447c6.34,0.25,12.361,1.328,17.858,3.481l10.119,5.698
		c2.157,0.828,4.399-2.409,5.229-4.566l13.854-36.013C225.845,16.737,218.337,10.046,216.21,10.065z M160.378,39.775
		c-2.15,0-3.896-1.744-3.896-3.896c0-2.151,1.744-3.896,3.896-3.896c2.152,0,3.896,1.744,3.896,3.896
		C164.274,38.031,162.53,39.775,160.378,39.775z"/>
</g>
</svg>
