<?xml version="1.0" encoding="utf-8"?>
<!-- Generator: Adobe Illustrator 15.1.0, SVG Export Plug-In . SVG Version: 6.00 Build 0)  -->
<!DOCTYPE svg PUBLIC "-//W3C//DTD SVG 1.0//EN" "http://www.w3.org/TR/2001/REC-SVG-20010904/DTD/svg10.dtd">
<svg version="1.0" id="Layer_1" xmlns="http://www.w3.org/2000/svg" xmlns:xlink="http://www.w3.org/1999/xlink" x="0px" y="0px"
	 width="283.465px" height="283.465px" viewBox="-126.732 -126.732 283.465 283.465"
	 enable-background="new -126.732 -126.732 283.465 283.465" xml:space="preserve">
<path d="M149.235-85.759c-0.343-2.133-1.841-3.864-3.885-4.509c-2.017-0.658-4.294-0.098-5.779,1.4
	c-2.519,2.516-6.303,6.302-10.098,10.099c-4.171,4.172-8.354,8.357-10.877,10.877c-2.455-2.459-6.464-6.466-10.458-10.458
	c-3.91-3.907-7.805-7.8-10.224-10.223c4.907-4.901,15.703-15.711,20.962-21.004c1.479-1.488,2.018-3.668,1.385-5.747
	c-0.649-1.998-2.337-3.476-4.403-3.855l-0.117-0.021c-1.929-0.285-3.896-0.431-5.847-0.431c-10.613,0-20.594,4.134-28.105,11.642
	C70.467-96.65,67.061-79.875,73.027-65.016l-4.639,4.638C-11.104,19.121-55.955,63.965-65.015,73.008
	c-4.733-1.903-9.729-2.868-14.863-2.868c-10.618,0-20.597,4.13-28.1,11.629c-8.969,8.971-13.069,21.348-11.24,34.018
	c0.344,2.117,1.838,3.843,3.922,4.513c2.015,0.632,4.334,0.031,5.751-1.431l7.247-7.24c5.016-5.01,10.63-10.618,13.733-13.721
	c4.863,4.864,15.827,15.826,20.683,20.675c-4.958,4.941-15.771,15.755-20.96,21.005c-1.507,1.505-2.044,3.7-1.406,5.712
	c0.639,2.053,2.352,3.544,4.523,3.9c1.932,0.286,3.902,0.431,5.856,0.431c10.622,0,20.6-4.132,28.096-11.636
	c11.317-11.339,14.723-28.111,8.758-42.984C-34.209,86.203,79.786-27.783,95.043-42.992c4.732,1.902,9.727,2.865,14.854,2.865
	c10.621-0.001,20.604-4.135,28.11-11.641C146.837-60.597,151.037-73.283,149.235-85.759z"/>
</svg>
