<?xml version="1.0" encoding="utf-8"?>
<!-- Generator: Adobe Illustrator 15.1.0, SVG Export Plug-In . SVG Version: 6.00 Build 0)  -->
<!DOCTYPE svg PUBLIC "-//W3C//DTD SVG 1.1//EN" "http://www.w3.org/Graphics/SVG/1.1/DTD/svg11.dtd">
<svg version="1.1" id="Layer_5" xmlns="http://www.w3.org/2000/svg" xmlns:xlink="http://www.w3.org/1999/xlink" x="0px" y="0px"
	 width="283.465px" height="283.465px" viewBox="0 0 283.465 283.465" enable-background="new 0 0 283.465 283.465"
	 xml:space="preserve">
<g>
	<polygon fill="#96FF3F" points="73.478,211.399 98.116,211.399 98.116,211.899 72.978,211.899 	"/>
	<polygon fill="#96FF3F" points="71.563,185.351 72.063,185.351 72.063,209.985 71.563,210.485 	"/>
	<path d="M276.378,276.378v-64.479H106.981h-8.867H72.978l-28.79,28.791c-0.392,0.391-1.022,0.391-1.414,0
		c-0.392-0.393-0.392-1.023,0-1.414l28.79-28.791v-25.137v-9.865V7.087H7.087v269.291H276.378z M62.878,33.4H34.271v-7.585h28.607
		V33.4z M62.878,52.997H51.823v-0.004v-7.58v-0.004h11.055v0.004v7.58V52.997z M62.878,73.226H51.823V65.64h11.055V73.226z
		 M62.878,92.425H34.271v-7.584h28.607V92.425z M62.878,112.023H51.823v-7.585h11.055V112.023z M62.878,132.251H51.823v-7.586
		h11.055V132.251z M62.878,151.214H34.27v-7.584h0.001v-1.334h28.607v1.334v6.252V151.214z M62.878,169.479H51.823v-7.586h11.055
		V169.479z M62.878,189.706H51.823v-7.586h11.055V189.706z M34.27,208.671v-7.586h28.608v7.586H34.27z M80.569,233.077h-7.586
		v-12.121h7.586V233.077z M100.796,233.077H93.21v-12.121h7.586V233.077z M119.999,251.606h-7.584v-30.648h7.584V251.606z
		 M139.597,233.077L139.597,233.077h-7.586l0,0v-12.121l0,0h7.584l0,0v12.121H139.597z M159.823,233.077h-7.584h-0.002v-12.121
		h0.002h7.584V233.077z M179.028,251.606h-7.586v-30.648h7.586V251.606z M198.626,233.077h-7.586v-12.121h7.586V233.077z
		 M218.851,233.077h-7.584v-12.121h7.584V233.077z M237.817,251.606L237.817,251.606h-7.588v-30.648h7.586h0.002V251.606z
		 M257.413,233.077h-7.584v-12.121h7.584V233.077z"/>
</g>
</svg>
