<?xml version="1.0" encoding="utf-8"?>
<!-- Generator: Adobe Illustrator 15.1.0, SVG Export Plug-In . SVG Version: 6.00 Build 0)  -->
<!DOCTYPE svg PUBLIC "-//W3C//DTD SVG 1.1//EN" "http://www.w3.org/Graphics/SVG/1.1/DTD/svg11.dtd">
<svg version="1.1" id="Layer_1" xmlns:serif="http://www.serif.com/"
	 xmlns="http://www.w3.org/2000/svg" xmlns:xlink="http://www.w3.org/1999/xlink" x="0px" y="0px" width="283.46px"
	 height="283.46px" viewBox="0 0 283.46 283.46" enable-background="new 0 0 283.46 283.46" xml:space="preserve">
<path d="M110.134,256.432H97.145c10.663-16.194,17.664-33.079,15.791-51.648c-0.116-1.036,0.214-2.071,0.909-2.85
	c0.696-0.776,1.688-1.222,2.73-1.222c11.587-0.027,43.76-0.027,52.364-0.027c1.34-0.005,2.576,0.717,3.232,1.883
	c9.807,17.637,13.617,35.646,14.145,53.864h-15.461c0.76-14.146-0.191-27.937-3.904-41.153l-1.191,0.078
	c3.738,13.658,4.705,27.355,3.945,41.075H149.75c3.771-13.732,5.787-27.479,4.953-41.252l-1.182-0.175
	c0.77,14.3-1.24,28.037-4.967,41.427h-18.349c5.118-13.497,8.458-27.175,8.89-41.146l-1.16-0.281
	c-0.547,14.539-3.896,28.242-8.964,41.427h-17.518c7.161-13.147,12.499-26.72,14.788-40.999l-1.114-0.428
	C122.63,229.929,117.245,243.566,110.134,256.432L110.134,256.432z M169.429,194.656c0.305,1.109,0.072,2.298-0.625,3.211
	c-0.697,0.916-1.783,1.453-2.934,1.453c-10.914,0-37.366,0-48.281,0c-1.151,0-2.235-0.537-2.933-1.453
	c-0.698-0.913-0.931-2.102-0.625-3.211c0.065-0.246,0.133-0.488,0.198-0.725c0.438-1.604,1.895-2.719,3.559-2.719
	c9.25,0,38.634,0,47.886,0c1.66,0,3.119,1.114,3.559,2.719C169.296,194.167,169.363,194.41,169.429,194.656z M120.177,189.847
	c-1.149,0-2.235-0.536-2.933-1.449c-0.698-0.916-0.929-2.103-0.626-3.213c0.111-0.407,0.227-0.828,0.343-1.256
	c1.463-5.348,6.321-9.057,11.864-9.057c3.652,0,6.975,0,6.975,0V32.676c0-1.498,0.595-2.935,1.653-3.993
	c1.06-1.06,2.497-1.655,3.995-1.655c0.188,0,0.375,0,0.563,0c1.498,0,2.935,0.595,3.995,1.655c1.059,1.058,1.654,2.495,1.654,3.993
	c0,27.066,0,142.197,0,142.197h6.973c5.545,0,10.404,3.709,11.865,9.057c0.117,0.428,0.232,0.849,0.344,1.256
	c0.303,1.11,0.07,2.297-0.627,3.213c-0.699,0.913-1.781,1.449-2.934,1.449C153.24,189.847,130.221,189.847,120.177,189.847z"/>
</svg>
