<?xml version="1.0" encoding="utf-8"?>
<!-- Generator: Adobe Illustrator 15.1.0, SVG Export Plug-In . SVG Version: 6.00 Build 0)  -->
<!DOCTYPE svg PUBLIC "-//W3C//DTD SVG 1.1//EN" "http://www.w3.org/Graphics/SVG/1.1/DTD/svg11.dtd">
<svg version="1.1" id="Layer_3" xmlns="http://www.w3.org/2000/svg" xmlns:xlink="http://www.w3.org/1999/xlink" x="0px" y="0px"
	 width="283.465px" height="283.465px" viewBox="0 0 283.465 283.465" enable-background="new 0 0 283.465 283.465"
	 xml:space="preserve">
<g>
	<path fill="#231F20" d="M162.353,57.35c-5.587,0.313-7.568,7.728-8.279,13.231c-11.771-11.052,3.245-30.423,0.749-46.563
		c-1.114-7.226-5.561-12.92-12.045-16.932c3.399,3.598,3.875,10.581,3.013,15.344c-3.93,21.695-36.605,35.93-39.907,60.848
		c-1.855,13.98,5.754,24.216,15.058,31.214c1.259,0.948,3.308,2.542,5.868,4.185l-0.004-1.154l-0.015-0.8
		c4.245,0.967,9.315,1.438,15.4,1.307c5.689-0.123,10.542-0.53,14.694-1.205c-0.001,0-0.001,0.002-0.002,0.002
		c0.677-0.094,1.354-0.19,2.035-0.291l0.805-0.132v0.82l-0.02,2.029c4.936-2.864,9.229-6.342,11.687-8.991
		c2.586-2.792,5.414-7.604,6.021-10.584C181.418,79.988,157.338,75.349,162.353,57.35z"/>
	<path d="M159.723,116.405l-0.805,0.132c-0.682,0.1-1.358,0.196-2.035,0.291c0.001,0,0.001-0.002,0.002-0.002
		c-4.152,0.675-9.005,1.082-14.694,1.205c-6.085,0.132-11.155-0.339-15.4-1.307l0.015,0.8l0.004,1.154l0.004,1.105
		c-2.261,0.041-4.07,1.987-5.09,5.499l-0.026,0.146c-0.258,3.625,1.565,6.322,2.681,7.344l0.086,0.068
		c0.707,0.469,1.489,0.749,2.311,0.917l-0.072,4.966l-0.014,0.541l0.483,0.249c4.069,2.015,5.548,5.901,5.636,9.515l0.242,13.082
		l-0.002-0.002l1.198,65.324l0.778,42.124v0.146l0.061,0.147c0.666,1.74,1.442,3.335,2.649,4.538
		c1.205,1.205,2.858,1.965,4.949,1.99h0.012c1.938-0.023,3.661-0.333,5.079-1.244c1.423-0.912,2.461-2.406,3.107-4.51l0.026-0.116
		l0.017-0.116l1.713-75.645l0.002,0.002l0.742-32.682l0.31-13.662c0.209-1.749,0.389-3.413,1.069-4.831
		c0.677-1.418,1.817-2.652,4.229-3.63l0.527-0.219l0.015-0.569l0.072-5.518c0.03,0,0.061,0,0.088,0h0.115l0.109-0.033
		c3.251-1.043,4.675-3.479,4.611-7.898v-0.098l-0.03-0.096c-1.003-3.282-2.615-5.237-4.799-5.843l0.004-0.416l0.02-2.029V116.405z
		 M128.209,118.307c5.158,0.723,10.589,0.872,15.281,0.996h0.016h0.016c5.213-0.06,9.974-0.576,14.785-1.272l-0.015,1.443
		c-0.045-0.002-0.088-0.006-0.133-0.006l-0.23,0.004l-0.087,0.024c-0.666,0.194-1.825,0.275-3.166,0.371
		c-1.783,0.125-3.996,0.282-6.05,0.782h-9.016c-2.639-0.242-8.359-0.709-11.395-0.832L128.209,118.307z M158.111,137.792
		c-2.208,0.696-4.265,1.083-6.95,1.114l-15.474,0.103c-0.016,0-0.028,0-0.045,0c-2.845-0.185-5.514-0.59-7.346-1.303l-0.019-3.754
		c0.767,0.058,1.55,0.062,2.324,0.064c1.347,0.005,2.74,0.011,4.011,0.293l16.044,0.115l0.086-0.022
		c1.938-0.479,4.434-0.734,7.409-0.767L158.111,137.792z"/>
</g>
</svg>
