<?xml version="1.0" encoding="utf-8"?>
<!-- Generator: Adobe Illustrator 15.1.0, SVG Export Plug-In . SVG Version: 6.00 Build 0)  -->
<!DOCTYPE svg PUBLIC "-//W3C//DTD SVG 1.0//EN" "http://www.w3.org/TR/2001/REC-SVG-20010904/DTD/svg10.dtd">
<svg version="1.0" id="Layer_1" xmlns:serif="http://www.serif.com/"
	 xmlns="http://www.w3.org/2000/svg" xmlns:xlink="http://www.w3.org/1999/xlink" x="0px" y="0px" width="283.46px"
	 height="283.46px" viewBox="0 0 283.46 283.46" enable-background="new 0 0 283.46 283.46" xml:space="preserve">
<path d="M154.755,7.716c-8.661-0.842-17.385-0.842-26.046,0L124.42,28.6c-8.303,1.269-16.438,3.45-24.262,6.5L86.003,19.158
	c-7.923,3.603-15.477,7.964-22.557,13.023l6.727,20.231c-6.553,5.249-12.509,11.205-17.761,17.761l-20.229-6.729
	C27.123,70.526,22.761,78.08,19.161,86L35.1,100.156c-3.05,7.824-5.231,15.961-6.5,24.262l-20.884,4.292
	c-0.842,8.66-0.842,17.383,0,26.042l20.884,4.289c1.269,8.303,3.45,16.439,6.5,24.265l-15.939,14.156
	c3.601,7.918,7.962,15.473,13.023,22.554l20.229-6.728c5.251,6.557,11.208,12.513,17.761,17.761l-6.727,20.232
	c7.079,5.058,14.633,9.42,22.557,13.021l14.154-15.941c7.825,3.05,15.959,5.231,24.262,6.5l4.29,20.884
	c8.66,0.842,17.385,0.842,26.046,0l4.288-20.884c8.305-1.269,16.437-3.45,24.262-6.5l14.156,15.941
	c7.921-3.602,15.477-7.964,22.556-13.021l-6.726-20.232c6.551-5.248,12.507-11.204,17.761-17.761l20.229,6.728
	c5.06-7.08,9.422-14.633,13.021-22.556l-15.937-14.154c3.048-7.825,5.227-15.962,6.499-24.265l20.88-4.289
	c0.842-8.659,0.842-17.382,0-26.042l-20.88-4.292c-1.272-8.301-3.451-16.438-6.499-24.262L264.302,86
	c-3.6-7.919-7.962-15.473-13.021-22.556l-20.229,6.729c-5.254-6.556-11.21-12.512-17.761-17.761l6.726-20.231
	c-7.078-5.057-14.633-9.42-22.556-13.023L183.305,35.1c-7.825-3.05-15.96-5.231-24.262-6.5L154.755,7.716z M141.732,60.379
	c44.9,0,81.352,36.453,81.352,81.35c0,44.9-36.452,81.354-81.352,81.354c-44.902,0-81.354-36.453-81.354-81.354
	C60.379,96.831,96.831,60.379,141.732,60.379z M92.271,137.271l-28.888-8.472l78.349-22.973l78.348,22.973l-78.348,22.978
	l-45.876-13.454v3.456c1.8,1.091,3.074,3.775,3.074,6.912c0,2.558-0.849,4.815-2.137,6.151l2.137,44.447
	c-3.143,0.732-6.372,1.013-9.732,0l2.137-44.447c-1.289-1.336-2.137-3.594-2.137-6.151c0-3.137,1.274-5.82,3.073-6.912V137.271z
	 M99.941,142.756l0.036-0.113l41.754,12.245l41.753-12.245c0.783,2.6,1.201,5.358,1.201,8.213v13.63
	c0,3.059-19.249,5.544-42.954,5.544c-19.805,0-36.498-1.734-41.457-4.087l-0.534-11.102c1.29-1.336,2.138-3.594,2.138-6.151
	C101.878,146.267,101.118,144.113,99.941,142.756L99.941,142.756z M44.498,103.688l-1.817,6.023l15.78,4.764l-1.166,3.86
	l-15.781-4.763l-1.82,6.021l-3.488-1.053l4.8-15.905L44.498,103.688z M243.698,119.279l-1.835-6.015l-15.766,4.814l-1.178-3.859
	l15.764-4.812l-1.835-6.019l3.486-1.063l4.852,15.889L243.698,119.279z M62.937,77.98c1.401,0.962,2.296,2.01,2.691,3.146
	c0.394,1.133,0.304,2.495-0.269,4.084l8.681,0.419l-2.636,3.824l-8.072-0.509l-1.668,2.418l5.712,3.936l-2.288,3.32L48.514,87.197
	l3.954-5.736c1.756-2.552,3.472-4.093,5.144-4.625C59.284,76.305,61.061,76.684,62.937,77.98z M234.616,86.213l-16.193,11.961
	l-2.298-3.115l10.196-7.533l-12.54,1.484l-0.269-0.365l5.1-11.827l-10.329,7.628l-2.281-3.085l16.191-11.961l2.205,2.984
	l-5.293,12.652l13.417-1.652L234.616,86.213L234.616,86.213z M58.72,89.332l1.83-2.658c0.669-0.973,1.099-1.775,1.285-2.405
	c0.184-0.626,0.174-1.171-0.035-1.628c-0.206-0.458-0.628-0.903-1.266-1.343c-0.867-0.599-1.675-0.756-2.418-0.471
	c-0.744,0.283-1.61,1.143-2.598,2.578l-1.74,2.524L58.72,89.332L58.72,89.332z M84.791,49.879l11.985,16.174l-2.9,2.149
	l-16.221-4.601l7.952,10.73l-3.059,2.265L70.563,60.425l2.899-2.148l16.355,4.782l-8.086-10.912L84.791,49.879L84.791,49.879z
	 M201.941,63.899l-5.699,8.8l-2.734-1.772l1.04-1.902c-0.892,0.422-1.823,0.537-2.798,0.343c-0.975-0.197-2.04-0.667-3.194-1.417
	c-4.262-2.759-5.063-6.189-2.408-10.287l3.104-4.792c1.356-2.093,2.969-3.278,4.838-3.553c1.87-0.273,3.941,0.325,6.216,1.799
	c2.455,1.59,3.882,3.224,4.279,4.903c0.397,1.681,0.014,3.425-1.157,5.229l-0.194,0.296l-3.381-2.191l0.157-0.245
	c0.407-0.629,0.636-1.193,0.689-1.686c0.048-0.493-0.108-0.992-0.473-1.497c-0.364-0.506-1.007-1.057-1.929-1.652
	c-1.369-0.891-2.485-1.247-3.341-1.071c-0.857,0.175-1.623,0.787-2.303,1.832l-3.141,4.848c-0.629,0.975-0.848,1.884-0.652,2.73
	c0.196,0.844,0.979,1.71,2.353,2.598c1.263,0.818,2.338,1.161,3.216,1.028c0.883-0.134,1.62-0.662,2.217-1.583l0.02-0.027
	l-2.898-1.877l1.896-2.923L201.941,63.899L201.941,63.899z M120.899,45.53l3.08,10.021l-3.115,0.958l-0.79-2.021
	c-0.245,0.956-0.759,1.743-1.537,2.361c-0.776,0.622-1.821,1.135-3.138,1.539c-4.852,1.492-7.995-0.098-9.427-4.764l-1.675-5.458
	c-0.733-2.385-0.605-4.382,0.387-5.993c0.991-1.607,2.783-2.811,5.37-3.605c2.798-0.86,4.965-0.901,6.509-0.126
	c1.544,0.774,2.631,2.192,3.263,4.245l0.103,0.341l-3.856,1.185l-0.085-0.278c-0.219-0.72-0.503-1.258-0.849-1.614
	c-0.343-0.354-0.829-0.555-1.449-0.601c-0.621-0.044-1.457,0.093-2.506,0.416c-1.563,0.48-2.551,1.105-2.967,1.874
	c-0.417,0.77-0.442,1.75-0.075,2.942l1.693,5.521c0.343,1.11,0.898,1.861,1.672,2.252c0.772,0.396,1.941,0.352,3.502-0.129
	c1.441-0.444,2.392-1.045,2.855-1.803c0.465-0.762,0.534-1.667,0.214-2.715l-0.011-0.031l-3.301,1.011l-1.021-3.329L120.899,45.53z
	 M175.016,38.742l-4.303,19.665l-3.78-0.828l2.709-12.385l-8.457,9.377l-0.439-0.094l-3.957-12.259l-2.747,12.543l-3.749-0.82
	l4.303-19.664l3.626,0.792l4.354,13.007l9.008-10.083L175.016,38.742z"/>
</svg>
