<?xml version="1.0" encoding="iso-8859-1"?>
<!-- Generator: Adobe Illustrator 15.1.0, SVG Export Plug-In . SVG Version: 6.00 Build 0)  -->
<!DOCTYPE svg PUBLIC "-//W3C//DTD SVG 1.1//EN" "http://www.w3.org/Graphics/SVG/1.1/DTD/svg11.dtd">
<svg version="1.1" id="Layer_2" xmlns="http://www.w3.org/2000/svg" xmlns:xlink="http://www.w3.org/1999/xlink" x="0px" y="0px"
	 width="283.46px" height="283.46px" viewBox="0 0 283.46 283.46" style="enable-background:new 0 0 283.46 283.46;"
	 xml:space="preserve">
<g>
	<path d="M275.746,154.751c0.842-8.658,0.842-17.381,0-26.042l-20.881-4.292c-1.271-8.301-3.451-16.438-6.498-24.262L264.302,86
		c-3.6-7.919-7.963-15.473-13.021-22.556l-20.229,6.729c-5.254-6.556-11.211-12.512-17.762-17.761l6.727-20.231
		c-7.078-5.057-14.633-9.42-22.557-13.023L183.305,35.1c-7.825-3.05-15.96-5.231-24.263-6.5l-4.287-20.884
		c-8.661-0.842-17.385-0.842-26.046,0L124.42,28.6c-8.303,1.269-16.438,3.45-24.262,6.5L86.003,19.158
		c-7.923,3.603-15.477,7.964-22.557,13.023l6.727,20.231c-6.553,5.249-12.509,11.205-17.761,17.761l-20.229-6.729
		C27.123,70.526,22.761,78.08,19.161,86L35.1,100.156c-3.05,7.824-5.231,15.961-6.5,24.262L7.716,128.71
		c-0.842,8.66-0.842,17.383,0,26.042l20.884,4.289c1.269,8.305,3.45,16.439,6.5,24.267l-15.939,14.155
		c3.601,7.918,7.962,15.474,13.023,22.555l20.229-6.729c5.251,6.558,11.208,12.513,17.761,17.76l-6.727,20.232
		c7.079,5.059,14.633,9.42,22.557,13.021l14.154-15.941c7.825,3.051,15.959,5.23,24.262,6.5l4.29,20.885
		c8.66,0.842,17.385,0.842,26.045,0l4.289-20.885c8.305-1.27,16.437-3.449,24.262-6.5l14.156,15.941
		c7.92-3.602,15.477-7.965,22.556-13.021l-6.726-20.232c6.551-5.246,12.506-11.202,17.761-17.76l20.229,6.729
		c5.059-7.08,9.422-14.634,13.021-22.557l-15.937-14.153c3.047-7.825,5.227-15.962,6.497-24.267L275.746,154.751z M141.732,223.083
		c-44.902,0-81.354-36.453-81.354-81.354c0.001-44.898,36.453-81.35,81.354-81.35c44.9,0,81.352,36.453,81.352,81.35
		C223.083,186.628,186.632,223.083,141.732,223.083z"/>
	<path d="M63.383,128.799l28.888,8.472v4.508c-1.799,1.092-3.073,3.775-3.073,6.912c0,2.557,0.848,4.814,2.137,6.15l-2.137,44.447
		c3.36,1.014,6.589,0.731,9.732,0l-2.137-44.447c1.288-1.336,2.137-3.592,2.137-6.15c0-3.137-1.274-5.82-3.074-6.912v-3.456
		l45.876,13.454l78.348-22.978l-78.348-22.973L63.383,128.799z"/>
	<path d="M141.731,154.888l-41.754-12.245l-0.036,0.112c1.177,1.356,1.937,3.512,1.937,5.935c0,2.558-0.848,4.815-2.138,6.151
		l0.534,11.102c4.959,2.354,21.652,4.087,41.457,4.087c23.705,0,42.954-2.485,42.954-5.544v-13.63c0-2.854-0.418-5.612-1.201-8.213
		L141.731,154.888z"/>
</g>
</svg>
