<?xml version="1.0" encoding="utf-8"?>
<!-- Generator: Adobe Illustrator 15.1.0, SVG Export Plug-In . SVG Version: 6.00 Build 0)  -->
<!DOCTYPE svg PUBLIC "-//W3C//DTD SVG 1.1//EN" "http://www.w3.org/Graphics/SVG/1.1/DTD/svg11.dtd">
<svg version="1.1" id="Layer_5" xmlns="http://www.w3.org/2000/svg" xmlns:xlink="http://www.w3.org/1999/xlink" x="0px" y="0px"
	 width="283.46px" height="283.46px" viewBox="0 0 283.46 283.46" enable-background="new 0 0 283.46 283.46" xml:space="preserve">
<g>
	<path fill="#010101" d="M127.45,185.291c-0.685,0-2.879-1.515-5.117-3.497h-2.329c-2.823,0-5.449-0.836-7.663-2.26
		c-0.162,0.464-0.307,0.977-0.431,1.566c-0.762,3.62-0.669,3.819,3.224,6.973c2.204,1.786,7.692,6.804,12.194,11.147
		c7.568,7.308,8.333,8.387,10.138,14.329c2.247,7.396,1.974,14.54-0.953,25.071c-1.705,6.124-5.863,13.744-7.503,13.744
		c-0.45,0-1.091-1.092-1.425-2.428c-1.392-5.545-1.613-5.752-35.924-33.772c-41.344-33.764-39.296-32.239-40.68-30.349
		c-3.411,4.665-0.777,9.135,11.969,20.324c13.622,11.954,17.294,18.774,16.103,29.896c-0.924,8.634-3.491,12.557-9.596,14.665
		c-5.028,1.735-21.153,2.864-28.332,1.979c-3.71-0.455-4.307-1.278-2.195-3.028c2.212-1.835,2.316-7.505,0.377-20.577
		c-2.637-17.776-2.172-21.541,4.319-35.112l5.291-11.057l-3.27-5.433c-3.848-6.388-5.653-13.973-4.764-20.005
		c0.829-5.6,6.527-21.028,9.42-25.506c2.447-3.784,4.095-4.499,4.095-1.777c0,3.38,5.602,12.814,10.44,17.58
		c4.789,4.72,42.53,34.699,43.715,34.724c0.649,0.014,1.276-2.031,1.563-4.716c-2.471-2.396-4.066-5.676-4.289-9.326
		c-5.975-3.813-7.633-6.715-7.64-13.318c-0.009-5.116,0.401-6.146,6.144-15.567c0.516-0.848,0.998-1.636,1.453-2.376v-28.206H13.993
		c-3.816,0-6.908,3.093-6.908,6.908v149.465c0,3.814,3.092,6.908,6.908,6.908h149.464c3.816,0,6.908-3.094,6.908-6.908v-83.558
		H131.83C130.239,183.939,128.677,185.291,127.45,185.291z"/>
	<path fill="#010101" d="M269.468,11.202H120.004c-3.816,0-6.908,3.092-6.908,6.907v149.466c0,3.814,3.092,6.908,6.908,6.908
		h149.464c3.814,0,6.908-3.094,6.908-6.908V18.109C276.376,14.293,273.283,11.202,269.468,11.202z M223.644,155.212l-7.922-26.131
		h-42.48l-7.754,26.131h-25.621l39.109-124.741h31.521l39.107,124.741H223.644z"/>
	<polygon fill="#010101" points="179.142,106.664 209.822,106.664 194.484,51.878 	"/>
</g>
</svg>
