<?xml version="1.0" encoding="utf-8"?>
<!-- Generator: Adobe Illustrator 15.1.0, SVG Export Plug-In . SVG Version: 6.00 Build 0)  -->
<!DOCTYPE svg PUBLIC "-//W3C//DTD SVG 1.1//EN" "http://www.w3.org/Graphics/SVG/1.1/DTD/svg11.dtd">
<svg version="1.1" id="Layer_1" xmlns="http://www.w3.org/2000/svg" xmlns:xlink="http://www.w3.org/1999/xlink" x="0px" y="0px"
	 width="283.46px" height="283.46px" viewBox="0 0 283.46 283.46" enable-background="new 0 0 283.46 283.46" xml:space="preserve">
<g>
	<polygon fill="#010101" points="179.026,203.986 211.337,203.986 195.182,146.288 	"/>
	<path fill="#010101" d="M266.86,7.084H16.6c-5.255,0-9.516,4.261-9.516,9.516V266.86c0,5.255,4.261,9.516,9.516,9.516H266.86
		c5.255,0,9.516-4.261,9.516-9.516V16.6C276.376,11.345,272.115,7.084,266.86,7.084z M111.755,91.349
		c2.32,1.88,8.1,7.165,12.842,11.74c7.971,7.695,8.776,8.832,10.677,15.09c2.366,7.789,2.079,15.313-1.004,26.404
		c-1.794,6.45-6.174,14.474-7.901,14.474c-0.474,0-1.15-1.15-1.502-2.555c-1.466-5.84-1.698-6.057-37.833-35.568
		C43.492,85.374,45.648,86.98,44.191,88.971c-3.591,4.913-0.818,9.621,12.606,21.406c14.346,12.59,18.213,19.771,16.958,31.484
		c-0.973,9.093-3.677,13.224-10.106,15.444c-5.296,1.828-22.277,3.017-29.838,2.085c-3.907-0.48-4.534-1.347-2.311-3.19
		c2.33-1.934,2.439-7.903,0.397-21.67c-2.777-18.722-2.288-22.687,4.549-36.979l5.572-11.646l-3.443-5.72
		c-4.053-6.729-5.954-14.716-5.017-21.068c0.872-5.898,6.874-22.147,9.92-26.862c2.577-3.986,4.313-4.74,4.313-1.873
		c0,3.56,5.9,13.496,10.995,18.516c5.043,4.971,44.79,36.542,46.038,36.568c0.923,0.019,1.803-3.901,1.818-8.104
		c0.012-3.342-0.429-3.982-4.568-6.605c-6.395-4.057-8.159-7.104-8.167-14.105c-0.009-5.388,0.423-6.473,6.471-16.394
		c8.161-13.392,8.693-13.862,10.584-9.335c1.138,2.723,3.597,4.875,11.16,9.767c14.332,9.269,16.886,13.594,14.989,25.37
		c-1.575,9.788-8.541,22.36-12.386,22.36c-0.813,0-3.637-2.02-6.277-4.49c-6.09-5.697-8.874-5.675-10.089,0.075
		C107.557,87.817,107.655,88.028,111.755,91.349z M225.895,255.115l-8.344-27.519h-44.738l-8.166,27.519h-26.985l41.189-131.372
		h33.197l41.188,131.372H225.895z"/>
</g>
</svg>
