<?xml version="1.0" encoding="utf-8"?>
<!-- Generator: Adobe Illustrator 15.1.0, SVG Export Plug-In . SVG Version: 6.00 Build 0)  -->
<!DOCTYPE svg PUBLIC "-//W3C//DTD SVG 1.1//EN" "http://www.w3.org/Graphics/SVG/1.1/DTD/svg11.dtd">
<svg version="1.1" id="Layer_2" xmlns="http://www.w3.org/2000/svg" xmlns:xlink="http://www.w3.org/1999/xlink" x="0px" y="0px"
	 width="283.46px" height="283.46px" viewBox="0 0 283.46 283.46" enable-background="new 0 0 283.46 283.46" xml:space="preserve">
<g>
	<path d="M92.155,93.097c23.848,0,75.302,0,99.149,0c0.777,0,1.432-0.58,1.525-1.35c0.094-0.77-0.404-1.489-1.156-1.674
		c-5.619-1.389-11.84-2.926-15.545-3.84c-2.195-0.543-4.449-0.818-6.713-0.818h-14.568l-5.298-7.64
		c-0.637-0.918-1.681-1.465-2.798-1.465c-2.607,0-7.435,0-10.043,0c-1.117,0-2.161,0.547-2.798,1.465l-5.298,7.64h-14.568
		c-2.263,0-4.518,0.275-6.713,0.818c-3.705,0.914-9.925,2.451-15.544,3.84c-0.752,0.185-1.25,0.905-1.156,1.674
		C90.725,92.517,91.379,93.097,92.155,93.097z M136.074,80.893c0.637-0.916,1.681-1.463,2.798-1.463c1.644,0,4.073,0,5.717,0
		c1.116,0,2.161,0.547,2.798,1.463l3.135,4.522h-17.583L136.074,80.893z"/>
	<path d="M99.846,204.983c0.458,5.56,5.104,9.841,10.684,9.841c15.726,0,46.286,0,61.993,0c5.564,0,10.201-4.259,10.68-9.802
		c2.461-28.655,9.474-110.264,9.474-110.264H90.784C90.784,94.758,97.486,176.292,99.846,204.983z M169.119,122.588
		c0.214-2.499,2.414-4.354,4.912-4.141c2.497,0.214,4.353,2.414,4.141,4.913l-5.422,63.634c-0.214,2.497-2.414,4.353-4.913,4.141
		c-2.499-0.213-4.354-2.413-4.141-4.912L169.119,122.588z M137.188,122.974c0-2.507,2.035-4.542,4.542-4.542
		c2.508,0,4.542,2.035,4.542,4.542v63.635c0,2.507-2.034,4.541-4.542,4.541c-2.507,0-4.542-2.034-4.542-4.541V122.974z
		 M109.424,118.447c2.497-0.216,4.701,1.638,4.917,4.137l5.497,63.635c0.216,2.496-1.636,4.701-4.134,4.914
		c-2.499,0.217-4.701-1.635-4.917-4.134l-5.497-63.635C105.074,120.867,106.925,118.663,109.424,118.447z"/>
	<path fill="#FFFFFF" d="M167.836,191.134c2.499,0.212,4.699-1.644,4.913-4.141l5.422-63.634c0.212-2.499-1.644-4.699-4.141-4.913
		c-2.498-0.213-4.698,1.642-4.912,4.141l-5.423,63.634C163.482,188.721,165.337,190.921,167.836,191.134z"/>
	<path fill="#FFFFFF" d="M141.73,191.15c2.508,0,4.542-2.034,4.542-4.541v-63.635c0-2.507-2.034-4.542-4.542-4.542
		c-2.507,0-4.542,2.035-4.542,4.542v63.635C137.188,189.116,139.223,191.15,141.73,191.15z"/>
	<path fill="#FFFFFF" d="M115.704,191.132c2.499-0.213,4.35-2.418,4.134-4.914l-5.497-63.635c-0.216-2.499-2.42-4.353-4.917-4.137
		c-2.499,0.216-4.35,2.42-4.134,4.917l5.497,63.635C111.003,189.498,113.205,191.349,115.704,191.132z"/>
	<path fill="#FFFFFF" d="M147.386,80.893c-0.637-0.916-1.682-1.463-2.798-1.463c-1.644,0-4.073,0-5.717,0
		c-1.117,0-2.161,0.547-2.798,1.463l-3.135,4.522h17.583L147.386,80.893z"/>
</g>
</svg>
