<?xml version="1.0" encoding="utf-8"?>
<!-- Generator: Adobe Illustrator 15.1.0, SVG Export Plug-In . SVG Version: 6.00 Build 0)  -->
<!DOCTYPE svg PUBLIC "-//W3C//DTD SVG 1.0//EN" "http://www.w3.org/TR/2001/REC-SVG-20010904/DTD/svg10.dtd">
<svg version="1.0" id="Layer_2" xmlns="http://www.w3.org/2000/svg" xmlns:xlink="http://www.w3.org/1999/xlink" x="0px" y="0px"
	 width="283.46px" height="283.46px" viewBox="0 0 283.46 283.46" enable-background="new 0 0 283.46 283.46" xml:space="preserve">
<g>
	<path d="M45.348,39.721c46.365,0,146.398,0,192.762,0c1.511,0,2.783-1.128,2.966-2.625c0.178-1.497-0.786-2.896-2.248-3.255
		c-10.925-2.7-23.019-5.688-30.222-7.465c-4.269-1.056-8.65-1.591-13.051-1.591h-28.323L156.93,9.932
		c-1.238-1.784-3.266-2.848-5.438-2.848c-5.069,0-14.458,0-19.526,0c-2.172,0-4.201,1.063-5.439,2.848l-10.301,14.854H87.904
		c-4.4,0-8.784,0.535-13.051,1.591c-7.203,1.776-19.296,4.765-30.22,7.465c-1.462,0.359-2.43,1.76-2.248,3.255
		C42.569,38.593,43.84,39.721,45.348,39.721z M130.734,15.995c1.238-1.781,3.268-2.844,5.439-2.844c3.196,0,7.917,0,11.115,0
		c2.169,0,4.2,1.063,5.439,2.844l6.095,8.791h-34.184L130.734,15.995z"/>
	<path d="M60.302,257.244c0.89,10.809,9.923,19.132,20.771,19.132c30.574,0,89.987,0,120.524,0c10.818,0,19.832-8.279,20.763-19.056
		c4.784-55.71,18.422-214.37,18.422-214.37H42.684C42.684,42.95,55.713,201.465,60.302,257.244z M194.978,97.055
		c0.417-4.858,4.693-8.465,9.55-8.051c4.854,0.417,8.466,4.693,8.05,9.552L202.037,222.27c-0.414,4.856-4.693,8.466-9.55,8.054
		c-4.86-0.418-8.464-4.691-8.052-9.55L194.978,97.055z M132.899,97.806c0-4.874,3.957-8.83,8.831-8.83c4.876,0,8.83,3.956,8.83,8.83
		v123.716c0,4.875-3.954,8.828-8.83,8.828c-4.874,0-8.831-3.953-8.831-8.828V97.806L132.899,97.806z M78.922,89.004
		c4.854-0.419,9.14,3.186,9.56,8.044l10.687,123.716c0.42,4.851-3.18,9.138-8.037,9.552c-4.858,0.424-9.14-3.178-9.56-8.035
		L70.885,98.562C70.466,93.71,74.063,89.425,78.922,89.004z"/>
</g>
</svg>
