<?xml version="1.0" encoding="utf-8"?>
<!-- Generator: Adobe Illustrator 15.1.0, SVG Export Plug-In . SVG Version: 6.00 Build 0)  -->
<!DOCTYPE svg PUBLIC "-//W3C//DTD SVG 1.1//EN" "http://www.w3.org/Graphics/SVG/1.1/DTD/svg11.dtd">
<svg version="1.1" id="Layer_3" xmlns="http://www.w3.org/2000/svg" xmlns:xlink="http://www.w3.org/1999/xlink" x="0px" y="0px"
	 width="283.465px" height="283.465px" viewBox="0 0 283.465 283.465" enable-background="new 0 0 283.465 283.465"
	 xml:space="preserve">
<g>
	<path fill="none" d="M174.416,198.414c-2.673-1.225-7.404-3.271-14.041-5.68c0.455,2.305,1.555,4.814,2.797,7.168
		c1.717,3.271,3.745,6.238,5.034,8.021C170.357,205.25,172.436,202.094,174.416,198.414z"/>
	<path fill="none" d="M152.934,219.424c1.166-0.418,2.322-0.93,3.469-1.518c-2.502-3.157-9.604-12.069-9.604-12.069l1.545,14.838
		C149.87,220.391,151.407,219.982,152.934,219.424z"/>
	<path fill="none" d="M96.005,89.194c-0.019-0.19-0.033-0.379-0.047-0.574l-0.763-0.085c-0.253-0.024-0.512-0.05-0.761-0.053
		c-0.012,0-0.025-0.002-0.037-0.002c-0.003,0-0.005,0-0.008,0c-0.087,0-0.169,0.011-0.251,0.019
		c-0.047,0.005-0.096,0.004-0.142,0.012c-0.125,0.022-0.243,0.056-0.351,0.109c-1.683,0.83-3.323,2.622-4.499,5.992
		c-0.285,0.815-0.901,1.479-1.697,1.825c-0.198,0.084-0.402,0.147-0.61,0.189c-0.076,0.015-0.154,0.014-0.231,0.023
		c-0.13,0.017-0.259,0.04-0.39,0.04c-0.003,0-0.005-0.001-0.008-0.001c-0.152,0-0.302-0.024-0.453-0.047
		c-0.062-0.009-0.124-0.007-0.185-0.02c-0.21-0.044-0.417-0.11-0.616-0.198c-0.383-0.17-0.781-0.327-1.186-0.476
		c-0.125-0.046-0.252-0.088-0.379-0.132c-0.293-0.102-0.59-0.197-0.893-0.287c-0.141-0.042-0.282-0.083-0.424-0.123
		c-0.337-0.092-0.679-0.177-1.025-0.255c-0.099-0.022-0.195-0.048-0.294-0.069c-0.441-0.093-0.888-0.173-1.34-0.241
		c-0.121-0.019-0.243-0.031-0.365-0.048c-0.341-0.046-0.685-0.085-1.03-0.116c-0.155-0.014-0.31-0.025-0.465-0.036
		c-0.34-0.024-0.682-0.039-1.024-0.047c-0.132-0.003-0.264-0.01-0.397-0.011c-0.056,0-0.111-0.004-0.167-0.004
		c-0.389,0-0.777,0.014-1.166,0.034c-0.088,0.004-0.175,0.011-0.263,0.017c-0.452,0.029-0.904,0.069-1.353,0.127
		c-0.017,0.002-0.034,0.003-0.051,0.005c-0.458,0.061-0.913,0.142-1.365,0.234c-0.09,0.019-0.18,0.036-0.27,0.056
		c-0.442,0.097-0.879,0.208-1.311,0.336c-0.068,0.02-0.136,0.043-0.204,0.065c-0.406,0.126-0.808,0.267-1.202,0.422
		c-0.052,0.021-0.105,0.039-0.157,0.06c-0.417,0.169-0.823,0.36-1.223,0.564c-0.082,0.042-0.164,0.085-0.246,0.129
		c-0.398,0.213-0.79,0.44-1.167,0.689c-0.038,0.025-0.073,0.052-0.111,0.078c-0.353,0.238-0.694,0.495-1.026,0.767
		c-0.062,0.051-0.125,0.1-0.187,0.151c-0.342,0.29-0.67,0.601-0.985,0.928c-0.064,0.067-0.127,0.137-0.19,0.206
		c-0.319,0.347-0.628,0.707-0.916,1.095c-3.565,4.826-4.276,12.657-0.071,24.413c0.545,1.517-0.166,3.2-1.635,3.868
		c-0.739,0.336-1.313,1.143-1.73,2.067c-0.683,1.521-0.881,3.47,0.019,5.125c0.621,1.147,1.769,2.1,3.499,2.759
		c1.389,0.531,2.205,1.967,1.953,3.428c0.014,0.047,0.109,0.445,0.204,0.691c0.446,1.137,1.313,2.465,2.413,3.877
		c2.906,3.734,7.409,7.955,11.486,10.838c2.346,1.658,4.465,2.93,5.973,3.108c1.564,0.181,2.745,1.509,2.745,3.08
		c0,1.856,0.157,4.949,1.218,7.699c0.569,1.46,1.394,2.854,2.759,3.696c0.208,0.131,0.431,0.242,0.662,0.345
		c0.073,0.03,0.151,0.056,0.226,0.085c0.165,0.063,0.332,0.122,0.507,0.171c0.095,0.026,0.194,0.048,0.293,0.069
		c0.167,0.039,0.339,0.072,0.517,0.098c0.109,0.016,0.219,0.029,0.332,0.04c0.184,0.019,0.375,0.026,0.57,0.033
		c0.077,0.002,0.147,0.013,0.226,0.013c0.048,0,0.101-0.005,0.15-0.006c0.093-0.001,0.189-0.006,0.284-0.012
		c0.183-0.008,0.371-0.021,0.562-0.039c0.101-0.01,0.202-0.02,0.305-0.032c0.207-0.024,0.42-0.06,0.638-0.097
		c0.092-0.016,0.182-0.028,0.276-0.047c0.314-0.061,0.636-0.129,0.97-0.215c2.612-0.654,4.489-1.412,5.693-2.228
		c-0.291-0.081-0.611-0.142-0.955-0.185c-0.114-0.014-0.243-0.017-0.362-0.026c-0.242-0.021-0.487-0.038-0.752-0.041
		c-0.045,0-0.083-0.007-0.129-0.007c-0.188,0-0.396,0.014-0.596,0.021c-0.118,0.006-0.229,0.006-0.351,0.014
		c-0.392,0.024-0.8,0.063-1.234,0.119c-0.441,0.058-0.886,0.305-1.209,0.332c-0.095,0.012-0.188,0.017-0.278,0.017
		c-0.014,0-0.025-0.007-0.039-0.007c-0.188-0.004-0.366-0.03-0.532-0.082c-0.031-0.008-0.061-0.021-0.091-0.031
		c-0.167-0.061-0.326-0.137-0.469-0.238c-0.351-0.236-0.697-0.615-0.854-1.289c-0.137-0.598-0.033-1.279,0.36-1.935
		c0.465-0.769,1.422-1.563,1.986-1.925c0.365-0.228,0.711-0.455,1.043-0.664c-0.365,0.076-0.787,0.182-1.275,0.313
		c-0.365,0.104-0.668,0.284-0.91,0.353c-0.188,0.049-0.367,0.068-0.54,0.072c-0.02,0-0.042,0.008-0.061,0.008
		c-0.032,0-0.059-0.01-0.09-0.012c-0.117-0.006-0.23-0.021-0.339-0.045c-0.045-0.01-0.091-0.019-0.135-0.031
		c-0.146-0.043-0.286-0.1-0.417-0.174c-0.37-0.207-0.777-0.568-1-1.326c-0.232-0.787-0.028-1.649,0.782-2.36
		c0.654-0.579,1.962-1.108,2.579-1.328l2.754-0.968c-1.579,0.076-3.598,0.229-6.509,1.188c-0.459,0.15-1.948,0.918-2.735,1.021
		c-0.115,0.016-0.225,0.021-0.331,0.021c-0.052,0-0.097-0.012-0.147-0.015c-0.071-0.005-0.141-0.011-0.208-0.021
		c-0.102-0.017-0.197-0.039-0.289-0.066c-0.057-0.018-0.115-0.031-0.167-0.053c-0.094-0.037-0.18-0.082-0.262-0.131
		c-0.037-0.021-0.078-0.039-0.113-0.063c-0.11-0.075-0.211-0.156-0.295-0.242c-0.83-0.844-1.109-2.086-0.721-3.193
		c2.233-6.399,2.75-12.666,0.569-17.91c-1.645-3.972-4.859-7.28-9.865-9.632c-1.787-0.483-3.603-1.152-5.437-2.024
		c-1.46-0.697-2.138-2.394-1.564-3.906c0.066-0.174,0.15-0.336,0.242-0.49c0.029-0.048,0.063-0.092,0.094-0.138
		c0.07-0.103,0.143-0.202,0.223-0.294c0.041-0.048,0.084-0.093,0.128-0.138c0.083-0.084,0.169-0.163,0.26-0.236
		c0.046-0.038,0.091-0.076,0.14-0.111c0.11-0.08,0.226-0.149,0.344-0.213c0.034-0.019,0.066-0.041,0.101-0.058
		c0.154-0.076,0.315-0.139,0.48-0.188c0.045-0.014,0.093-0.021,0.139-0.032c0.123-0.031,0.248-0.056,0.374-0.072
		c0.063-0.008,0.126-0.011,0.189-0.015c0.061-0.003,0.121-0.014,0.182-0.014s0.122,0.009,0.183,0.013
		c0.052,0.003,0.104,0.005,0.156,0.011c0.174,0.019,0.35,0.048,0.523,0.099c1.915,0.555,3.674,1.2,5.328,1.93
		c0.392,0.096,0.782,0.178,1.172,0.25c0.121,0.022,0.24,0.039,0.36,0.059c0.269,0.045,0.538,0.087,0.805,0.122
		c0.143,0.018,0.284,0.032,0.426,0.047c0.246,0.026,0.49,0.049,0.734,0.066c0.147,0.01,0.293,0.019,0.439,0.025
		c0.242,0.012,0.482,0.019,0.722,0.021c0.087,0.001,0.176,0.008,0.264,0.008c0.04,0,0.078-0.005,0.118-0.005
		c0.514-0.003,1.025-0.025,1.531-0.065c0.091-0.007,0.182-0.017,0.272-0.025c0.519-0.048,1.034-0.11,1.542-0.196
		c0.028-0.005,0.056-0.011,0.084-0.016c0.498-0.085,0.989-0.191,1.475-0.31c0.071-0.017,0.143-0.033,0.214-0.051
		c0.482-0.123,0.957-0.264,1.426-0.417c0.09-0.029,0.18-0.06,0.27-0.09c0.467-0.159,0.927-0.331,1.379-0.518
		c0.063-0.026,0.125-0.055,0.188-0.081c0.441-0.188,0.876-0.387,1.302-0.599c0.039-0.02,0.079-0.037,0.118-0.057
		c0.438-0.221,0.865-0.457,1.285-0.701c0.079-0.046,0.159-0.092,0.238-0.139c0.406-0.243,0.803-0.495,1.191-0.757
		c0.072-0.049,0.143-0.099,0.215-0.149c0.397-0.275,0.788-0.558,1.165-0.852c0.015-0.012,0.029-0.024,0.043-0.035
		c0.369-0.29,0.725-0.59,1.073-0.896c0.058-0.051,0.117-0.102,0.175-0.153c0.338-0.304,0.664-0.615,0.979-0.931
		c0.063-0.063,0.125-0.127,0.188-0.19c0.314-0.322,0.618-0.648,0.907-0.981c0.037-0.043,0.072-0.086,0.109-0.129
		c0.279-0.326,0.546-0.656,0.8-0.989c0.028-0.037,0.059-0.073,0.086-0.11c0.259-0.345,0.501-0.694,0.732-1.045
		c0.044-0.067,0.089-0.134,0.132-0.202c0.222-0.347,0.431-0.695,0.625-1.044c0.033-0.06,0.064-0.119,0.096-0.179
		c0.197-0.366,0.383-0.733,0.548-1.1l-0.057-0.09C99.418,106.995,94.82,98.523,96.005,89.194z M90.931,166.18
		c0.189,0,0.383-0.012,0.594-0.037c0.248-0.033,0.506-0.095,0.776-0.176c-0.003,0.398,0.053,0.803,0.171,1.202
		c0.302,1.026,0.87,1.817,1.675,2.347c-0.429,0.938-0.545,1.95-0.325,2.908c0.142,0.611,0.397,1.158,0.753,1.622
		c-0.859-0.021-1.55-0.2-2.114-0.552c-0.785-0.485-1.422-1.376-1.945-2.717c-0.517-1.34-0.856-2.985-1.002-4.836
		C89.957,166.1,90.435,166.18,90.931,166.18z M86.441,125.576c-1.435,0-2.874-0.168-4.281-0.501
		c-1.742-0.76-3.514-1.398-5.411-1.948c-0.463-0.135-0.941-0.203-1.421-0.203c-2.102,0-4.017,1.321-4.766,3.29
		c-0.952,2.506,0.154,5.266,2.575,6.422c1.844,0.876,3.726,1.583,5.599,2.101c4.292,2.051,7.224,4.915,8.715,8.517
		c1.799,4.325,1.625,9.909-0.501,16.165c-0.603-0.36-1.289-0.603-2.026-0.687c-0.922-0.109-2.623-1.037-5.055-2.756
		c-3.978-2.813-8.32-6.908-11.063-10.436c-1.074-1.378-1.79-2.516-2.124-3.366c-0.007-0.018-0.02-0.054-0.04-0.124
		c0.164-2.223-1.152-4.336-3.272-5.147c-1.216-0.463-2.041-1.083-2.454-1.845c-0.5-0.918-0.481-2.17,0.047-3.347
		c0.339-0.752,0.651-1.03,0.735-1.069c2.397-1.091,3.579-3.887,2.689-6.362c-3.599-10.061-3.669-17.859-0.203-22.551
		c3.313-4.484,8.804-5.153,11.782-5.153c2.849,0,5.753,0.594,8.179,1.674c0.656,0.29,1.353,0.437,2.072,0.437
		c0.698,0,1.377-0.139,2.029-0.418c1.303-0.566,2.318-1.66,2.787-3c0.724-2.075,1.69-3.591,2.818-4.438
		c-0.416,8.143,3.169,16.23,10.678,24.085C101.534,120.281,94.538,125.576,86.441,125.576z"/>
	<path fill="none" d="M217.962,103.027l-0.646,1.924c0.504,0.066,1.023,0.124,1.545,0.171L217.962,103.027z"/>
	<path fill="none" d="M132.037,210.9l0.171,8.779c2.072,0.577,4.209,1.022,6.39,1.278L132.037,210.9z"/>
	<path fill="none" d="M206.585,96.324l0.749-2.09l-1.896-0.119C205.922,95.044,206.585,96.324,206.585,96.324z"/>
	<path fill="none" d="M92.779,101.832c-0.149-1.027-1.035-1.796-2.078-1.796c-0.087,0-0.176,0.005-0.265,0.017
		c-0.557,0.069-1.052,0.351-1.397,0.794c-0.346,0.444-0.498,0.996-0.428,1.552l0.008,0.062v0.007
		c0.074,0.666,0.483,5.452-2.537,9.123c-2.215,2.694-5.84,4.06-10.776,4.06c-0.825,0-1.7-0.039-2.601-0.115
		c-0.063-0.005-0.125-0.008-0.185-0.008c-1.079,0-1.997,0.845-2.09,1.923c-0.048,0.559,0.125,1.103,0.487,1.533
		c0.362,0.43,0.869,0.693,1.429,0.741c1.021,0.087,2.022,0.131,2.974,0.131c6.246,0,10.96-1.883,14.01-5.596
		c4.255-5.178,3.462-12.315,3.454-12.386L92.779,101.832z"/>
	<path fill="none" d="M210.396,101.04c-0.313,0.725-0.654,1.526-0.938,2.171c0.711,0.228,1.45,0.437,2.199,0.626L210.396,101.04z"/>
	<path fill="none" d="M137.763,43.297l4.229,0.654c1.316,0.313,2.701,0.745,3.583,1.417c0.616,0.469,1.497,0.355,1.963-0.261
		c0.474-0.616,0.36-1.498-0.256-1.967c-2.778-2.124-9.32-2.645-9.32-2.645c-0.777-0.052-1.451,0.531-1.498,1.304
		C136.408,42.572,136.996,43.245,137.763,43.297z"/>
	<path fill="none" d="M129.08,62.583l0.688-0.057l0.19-0.664c0.667-2.319,2.339-4.788,4.709-6.951
		c4.124-3.758,9.741-6.186,14.31-6.186l1.338,0.031l0.033-0.993c0.139-4.195,2.914-8.89,7.783-9.329l1.194-0.108l-0.32-1.155
		c-0.463-1.668-0.571-3.128-0.331-4.462c0.319-1.775,1.254-3.171,2.215-4.415l0.84-1.086l-1.291-0.466
		c-0.813-0.294-1.711-0.67-2.666-1.118c-3.955-1.843-9.662-5.037-16.271-8.735l-4.089-2.287l0.351,2.061
		c0.595,3.497,0.202,8.063-1.169,13.568c-3.153,12.606-10.671,27.206-12.901,31.38l-0.931,1.744l1.956-0.283
		C126.108,62.871,127.576,62.707,129.08,62.583z M138.534,30.715c1.196-4.803,1.677-8.959,1.436-12.392l0.555,0.311
		c6.644,3.718,12.381,6.928,16.399,8.801c0.551,0.258,1.085,0.495,1.6,0.707c-0.813,1.188-1.517,2.538-1.816,4.213
		c-0.074,0.415-0.111,0.841-0.135,1.272c-5.572-4.511-15.338-5.821-15.338-5.821c-0.768-0.1-1.479,0.44-1.574,1.208
		c-0.105,0.773,0.436,1.474,1.204,1.574c0,0,8.941,1.133,13.984,5.248c0.549,0.452,1.322,0.392,1.829-0.081
		c0.039,0.282,0.079,0.564,0.14,0.856c-4.948,1.031-7.895,5.672-8.396,10.125c-4.93,0.184-10.791,2.771-15.1,6.698
		c-2.422,2.211-4.202,4.749-5.072,7.214c-0.638,0.058-1.27,0.123-1.89,0.195C129.621,54.574,135.701,42.041,138.534,30.715z"/>
	<path fill="none" d="M75.436,114.645c-0.069,0-0.135,0.003-0.206,0.003c0.024,0,0.051,0.001,0.076,0.001
		C75.352,114.65,75.391,114.645,75.436,114.645z"/>
	<path fill="none" d="M103.772,74.441l0.409-0.511c0.962-1.204,1.932-2.259,2.965-3.228l1.218-1.142l-1.582-0.535
		c-3.6-1.217-10.423-4.284-15.671-11.16c-6.315-8.268-12.077-17.593-14.292-22.17l-0.461-0.953l-1.047,0.582
		c-5.437,3.022-10.572,5.877-17.044,7.051l-2.063,0.375l1.59,1.368c4.136,3.558,6.89,6.364,8.667,8.833
		c1.339,1.861,2.175,3.636,2.485,5.275l0.123,0.65l0.646,0.142c3.269,0.715,7.083,2.821,9.956,5.496
		c1.949,1.817,3.38,3.803,4.141,5.743l0.252,0.643l0.859-0.008c5.267,0,15.276,2.587,18.218,3.379L103.772,74.441z M81.034,63.05
		c-2.804-2.611-6.313-4.649-9.616-5.641c0.348-0.02,0.69-0.163,0.945-0.437c2.669-2.863,9.343-4.716,9.343-4.716
		c0.744-0.218,1.176-0.996,0.962-1.74c-0.211-0.745-0.989-1.176-1.733-0.962c0,0-7.571,2.232-10.624,5.503
		c-0.084,0.09-0.13,0.198-0.186,0.302c-0.49-1.16-1.153-2.343-2.041-3.578c-1.641-2.279-4.038-4.802-7.472-7.857
		c5.556-1.328,10.136-3.782,14.879-6.414c2.53,4.919,8.041,13.727,14.029,21.567c0.097,0.127,0.198,0.245,0.295,0.37
		c-0.469,0.022-0.915,0.274-1.159,0.715l-3.669,6.58c-0.23,0.417-0.225,0.901-0.03,1.3C84.034,66.323,82.716,64.62,81.034,63.05z
		 M85.407,68.897c-0.123-0.271-0.284-0.542-0.428-0.813c0.123,0.231,0.309,0.432,0.554,0.57c0.678,0.375,1.531,0.133,1.91-0.545
		l3.665-6.58c0.067-0.122,0.108-0.25,0.137-0.379c4.567,5.077,9.835,7.824,13.393,9.22c-0.545,0.568-1.078,1.166-1.605,1.802
		C98.987,71.099,90.558,69.025,85.407,68.897z"/>
	<path fill="none" d="M68.796,135.459c-0.286,0.481-0.367,1.046-0.229,1.59l0.014,0.054c0.258,0.9,3.805,12.499,15.052,13.969
		c0.09,0.013,0.181,0.018,0.271,0.018c1.052,0,1.95-0.785,2.086-1.828c0.073-0.562-0.075-1.115-0.419-1.561
		c-0.342-0.443-0.835-0.727-1.39-0.797c-8.288-1.086-10.99-8.984-11.462-10.614l-0.006-0.007l-0.073-0.271
		c-0.237-0.931-1.071-1.582-2.029-1.582c-0.176,0-0.353,0.022-0.526,0.067C69.539,134.636,69.083,134.978,68.796,135.459z"/>
	<polygon fill="none" points="214.32,96.262 215.042,94.712 213.639,94.627 	"/>
	<path fill="none" d="M198.004,96.248l0.561-2.565c-2.162-0.137-3.5-0.223-3.508-0.223C195.9,94.337,196.876,95.285,198.004,96.248z
		"/>
	<path fill="none" d="M134.697,117.385c-0.36-0.365-0.958-0.365-1.323-0.005c-0.365,0.365-0.365,0.958,0,1.322
		c1.953,1.968,3.65,2.532,5.016,2.46c1.223-0.066,2.237-0.649,3.015-1.394c1.072-1.015,1.689-2.313,1.859-2.697
		c0.028-0.071,0.037-0.081,0.047-0.124c0.151-0.507-0.047-1.028-0.531-1.218c-0.475-0.183-1.023,0.054-1.203,0.533l-0.028,0.066
		c-0.133,0.293-0.607,1.303-1.432,2.085c-0.474,0.455-1.081,0.839-1.83,0.882C137.289,119.347,136.123,118.816,134.697,117.385z"/>
	<path fill="none" d="M224.021,70.151c-0.562-0.555-1.071-0.901-1.594-0.972c-0.086-0.012-0.169-0.018-0.25-0.018
		c-0.025,0-0.049,0.006-0.072,0.007c-0.053,0.002-0.106,0.008-0.16,0.015c-0.065,0.009-0.131,0.02-0.196,0.035
		c-0.052,0.012-0.104,0.027-0.153,0.043c-0.064,0.021-0.128,0.044-0.189,0.07c-0.051,0.021-0.1,0.043-0.147,0.067
		c-0.063,0.031-0.124,0.065-0.185,0.101c-0.047,0.027-0.094,0.054-0.139,0.084c-0.063,0.041-0.123,0.084-0.185,0.128
		c-0.043,0.032-0.086,0.062-0.128,0.095c-0.063,0.049-0.125,0.102-0.188,0.154c-0.037,0.032-0.076,0.063-0.113,0.097
		c-0.068,0.061-0.137,0.124-0.203,0.187c-0.028,0.027-0.059,0.054-0.088,0.082c-0.094,0.091-0.187,0.183-0.277,0.274
		c-1.604,1.603-2.674,3.693-2.873,4.096c-0.105,0.209-0.223,0.387-0.345,0.546c-0.042,0.055-0.087,0.097-0.13,0.146
		c-0.084,0.095-0.168,0.187-0.254,0.264c-0.053,0.046-0.105,0.085-0.158,0.125c-0.081,0.062-0.162,0.12-0.243,0.168
		c-0.056,0.032-0.106,0.062-0.161,0.089c-0.08,0.041-0.158,0.077-0.234,0.107c-0.051,0.02-0.1,0.04-0.146,0.055
		c-0.078,0.026-0.152,0.046-0.225,0.063c-0.039,0.009-0.078,0.021-0.114,0.028c-0.08,0.015-0.152,0.025-0.218,0.032
		c-0.019,0.002-0.039,0.006-0.057,0.007c-0.074,0.006-0.136,0.008-0.181,0.008c-0.004,0-0.003,0-0.007,0
		c-0.047,0-0.077-0.002-0.077-0.002s-17.919,0-34.86-0.313c-0.352-0.005-0.701-0.076-1.033-0.213
		c-14.127-5.911-18.812-8.755-39.479-8.926c-0.412-0.003-0.822-0.005-1.225-0.005c-0.105,0-0.206,0.002-0.311,0.002
		c-0.27,0-0.535,0.003-0.8,0.005c-0.318,0.002-0.635,0.006-0.946,0.011c-0.257,0.004-0.509,0.01-0.761,0.015
		c-0.308,0.007-0.614,0.015-0.915,0.024c-0.25,0.008-0.497,0.017-0.743,0.026c-0.292,0.011-0.583,0.023-0.869,0.037
		c-0.241,0.012-0.479,0.024-0.716,0.038c-0.283,0.016-0.564,0.032-0.842,0.05c-0.229,0.015-0.454,0.031-0.679,0.048
		c-0.274,0.02-0.548,0.042-0.816,0.064c-0.219,0.019-0.435,0.039-0.649,0.059c-0.266,0.025-0.529,0.051-0.789,0.079
		c-0.209,0.022-0.416,0.046-0.621,0.07c-0.255,0.03-0.509,0.061-0.759,0.094c-0.2,0.026-0.399,0.053-0.596,0.082
		c-0.247,0.035-0.491,0.071-0.732,0.109c-0.191,0.03-0.381,0.061-0.569,0.092c-0.238,0.04-0.474,0.082-0.707,0.125
		c-0.183,0.034-0.364,0.068-0.543,0.103c-0.23,0.045-0.458,0.093-0.683,0.141c-0.174,0.038-0.348,0.076-0.519,0.115
		c-0.222,0.051-0.442,0.104-0.659,0.158c-0.166,0.041-0.331,0.083-0.494,0.125c-0.215,0.057-0.427,0.115-0.638,0.175
		c-0.158,0.045-0.315,0.09-0.471,0.137c-0.207,0.062-0.41,0.126-0.612,0.191c-0.152,0.049-0.304,0.099-0.454,0.149
		c-0.199,0.067-0.394,0.138-0.588,0.208c-0.146,0.053-0.292,0.106-0.435,0.161c-0.192,0.074-0.381,0.15-0.568,0.227
		c-0.138,0.057-0.277,0.113-0.413,0.172c-0.187,0.08-0.369,0.163-0.551,0.247c-0.132,0.06-0.264,0.12-0.394,0.182
		c-0.18,0.086-0.356,0.176-0.532,0.266c-0.126,0.064-0.253,0.128-0.377,0.194c-0.173,0.093-0.343,0.188-0.513,0.285
		c-0.121,0.068-0.243,0.136-0.362,0.207c-0.167,0.099-0.33,0.201-0.493,0.303c-0.117,0.073-0.234,0.145-0.349,0.22
		c-0.161,0.105-0.318,0.213-0.476,0.322c-0.112,0.077-0.226,0.154-0.336,0.233c-0.155,0.111-0.307,0.227-0.459,0.341
		c-0.108,0.082-0.217,0.162-0.323,0.246c-0.15,0.118-0.297,0.24-0.444,0.361c-0.104,0.086-0.209,0.17-0.312,0.258
		c-0.145,0.125-0.287,0.253-0.429,0.382c-0.1,0.09-0.202,0.179-0.301,0.271c-0.141,0.131-0.278,0.267-0.416,0.402
		c-0.097,0.095-0.196,0.188-0.292,0.285c-0.136,0.138-0.269,0.28-0.402,0.421c-0.095,0.1-0.19,0.198-0.284,0.3
		c-0.131,0.144-0.26,0.292-0.389,0.44c-0.092,0.105-0.186,0.208-0.277,0.316c-0.128,0.151-0.254,0.308-0.38,0.463
		c-0.089,0.109-0.179,0.216-0.267,0.327c-0.129,0.163-0.256,0.333-0.384,0.5c-0.082,0.109-0.166,0.215-0.248,0.325
		c-0.131,0.178-0.261,0.362-0.391,0.544c-0.075,0.106-0.152,0.209-0.227,0.318c-0.14,0.2-0.277,0.407-0.415,0.614
		c-0.063,0.095-0.128,0.188-0.191,0.284c-0.2,0.306-0.398,0.617-0.595,0.935c-4.262,6.874-4.314,13.25-1.802,19.095
		c0.213,0.408,0.437,0.82,0.668,1.242c0.503,0.928,1.039,1.9,1.608,2.943c1.725,2.626,3.925,5.129,6.438,7.519
		c15.131,14.368,41.208,24.551,49.723,29.723c9.063,5.518,19.464,11.188,23.909,21.171c3.045,6.845,3.472,15.737-1.364,28.044
		c-8.06,20.518-18.677,30.329-29.36,34.207c-0.714,0.258-1.428,0.48-2.143,0.688c-0.158,0.047-0.316,0.094-0.477,0.137
		c-0.699,0.191-1.398,0.365-2.1,0.512c-0.102,0.021-0.201,0.037-0.301,0.057c-0.637,0.127-1.271,0.234-1.905,0.325
		c-0.146,0.021-0.288,0.044-0.433,0.063c-0.691,0.091-1.381,0.16-2.07,0.211c-0.148,0.011-0.299,0.018-0.447,0.025
		c-0.621,0.039-1.238,0.063-1.855,0.068c-0.107,0.001-0.217,0.006-0.323,0.007c-0.041,0-0.082,0.002-0.123,0.002
		c-0.66,0-1.317-0.021-1.973-0.054c-0.186-0.01-0.37-0.023-0.555-0.036c-0.538-0.034-1.074-0.078-1.608-0.133
		c-0.198-0.021-0.396-0.039-0.594-0.063c-0.691-0.08-1.379-0.172-2.062-0.283c0.724,0.287,1.456,0.559,2.191,0.824
		c0.196,0.069,0.393,0.139,0.59,0.209c0.638,0.223,1.279,0.438,1.924,0.645c0.114,0.035,0.228,0.074,0.342,0.111
		c0.742,0.23,1.488,0.447,2.236,0.651c0.186,0.052,0.371,0.099,0.558,0.147c0.62,0.164,1.242,0.316,1.865,0.459
		c0.164,0.039,0.329,0.078,0.494,0.115c0.755,0.166,1.51,0.315,2.267,0.448c0.153,0.027,0.309,0.05,0.461,0.075
		c0.631,0.104,1.262,0.197,1.891,0.277c0.191,0.023,0.382,0.049,0.57,0.07c0.76,0.088,1.519,0.159,2.273,0.207
		c0.09,0.006,0.18,0.008,0.27,0.014c0.672,0.037,1.344,0.058,2.012,0.063c0.105,0.001,0.213,0.01,0.318,0.01
		c0.118,0,0.236-0.008,0.355-0.009c0.371-0.004,0.74-0.015,1.111-0.028c0.25-0.01,0.502-0.02,0.752-0.033
		c0.379-0.022,0.757-0.057,1.134-0.09c0.237-0.021,0.474-0.041,0.71-0.066c0.408-0.047,0.814-0.105,1.222-0.168
		c0.199-0.029,0.399-0.053,0.599-0.087c0.602-0.103,1.199-0.22,1.791-0.356c13.057-3.025,28.093-12.63,37.802-24.756
		c6.274-7.841,10.354-16.752,9.905-25.646c-0.994-19.822-14.42-27.996-24.278-35.399c-10.554-7.921-31.94-21.526-39.841-31.756
		c-3.1-4.001-5.166-7.675-5.933-10.699c-0.673-2.664-0.408-4.949,0.683-6.784c1.564-2.664,5.282-4.693,12.107-4.693
		c5.718,0,13.87,3.318,22.146,7.637c11.549,6.021,23.408,13.927,28.634,15.601c0.635,0.204,1.272,0.371,1.909,0.514
		c0.046,0.01,0.092,0.023,0.137,0.033c0.607,0.133,1.214,0.236,1.814,0.321c0.074,0.01,0.147,0.022,0.222,0.032
		c0.583,0.077,1.157,0.131,1.728,0.169c0.088,0.006,0.174,0.013,0.26,0.018c0.558,0.033,1.104,0.048,1.638,0.051
		c0.043,0,0.089,0.004,0.132,0.004c0.08,0,0.156-0.003,0.234-0.004c0.176-0.001,0.35-0.004,0.521-0.008
		c0.155-0.003,0.31-0.007,0.464-0.013c0.172-0.006,0.34-0.015,0.508-0.024c0.146-0.008,0.293-0.015,0.438-0.025
		c0.167-0.011,0.329-0.023,0.49-0.037c0.141-0.011,0.279-0.021,0.414-0.034c0.164-0.015,0.32-0.032,0.479-0.048
		c0.126-0.013,0.253-0.026,0.376-0.041c0.163-0.019,0.318-0.039,0.475-0.06c0.111-0.014,0.224-0.028,0.33-0.042
		c0.16-0.022,0.313-0.046,0.465-0.069c0.096-0.015,0.193-0.028,0.285-0.043c0.162-0.026,0.314-0.053,0.467-0.08
		c0.072-0.013,0.148-0.025,0.218-0.037c0.218-0.04,0.425-0.079,0.618-0.118v-2.868c-22.518-1.384-33.127-19.1-33.127-19.1
		c-0.54-0.891-0.54-2.01,0-2.901c0.132-0.218,0.291-0.411,0.472-0.581c0.062-0.057,0.134-0.097,0.199-0.148
		c0.127-0.101,0.254-0.203,0.396-0.28c0.086-0.046,0.18-0.072,0.271-0.109c0.137-0.056,0.271-0.115,0.415-0.149
		c0.101-0.023,0.205-0.027,0.309-0.04c0.113-0.014,0.223-0.043,0.338-0.043c0.061,0,0.12,0.002,0.182,0.006l37.584,2.351
		c0.084-2.545,0.123-7.404-0.182-15.933C225.67,72.198,224.855,70.975,224.021,70.151z M224.742,87.693l-35.502-2.22
		c-0.104-0.007-0.207-0.01-0.311-0.01c-1.673,0-3.246,0.889-4.105,2.313c-0.932,1.536-0.932,3.442-0.006,4.966
		c0.424,0.708,9.965,16.271,30.106,19.555c-0.651,0.043-1.338,0.069-2.047,0.069c-2.637,0-5.067-0.352-7.228-1.046
		c-2.828-0.906-8.037-3.944-14.07-7.462c-4.393-2.561-9.369-5.464-14.248-8.007c-10.141-5.292-17.688-7.864-23.07-7.864
		c-8.677,0-12.311,3.089-13.827,5.671c-1.376,2.316-1.689,5.185-0.902,8.298c0.83,3.269,2.947,7.115,6.29,11.429
		c1.64,2.124,3.829,4.373,6.352,6.674c-0.42-0.193-0.926-0.068-1.177,0.333c-0.616,0.977-1.242,1.413-1.878,1.455
		c-0.53,0.038-1.022-0.175-1.45-0.431c-0.758-0.465-1.326-1.104-1.479-1.299c-0.445-0.569-1.043-0.446-1.346-0.209
		c-0.408,0.313-0.484,0.901-0.173,1.313l0.017,0.008c0.004,0.006,0.018,0.034,0.061,0.077c0.208,0.251,0.947,1.1,1.953,1.707
		c0.749,0.455,1.631,0.768,2.55,0.702c1.081-0.076,2.274-0.654,3.328-2.323c0.19-0.303,0.175-0.669,0.008-0.96
		c1.661,1.498,3.456,3.015,5.347,4.537c-0.654,0.804-1.25,1.159-1.808,1.168c-0.437,0.005-0.825-0.199-1.147-0.436
		c-0.597-0.445-0.996-1.038-1.108-1.213c-0.369-0.602-0.957-0.569-1.299-0.37c-0.445,0.265-0.599,0.839-0.332,1.284
		c0,0,0.021,0.038,0.048,0.085c0.161,0.247,0.729,1.09,1.572,1.716c0.646,0.474,1.434,0.82,2.306,0.806
		c0.964-0.019,2.086-0.467,3.235-1.869c1.652,1.302,3.361,2.601,5.089,3.889c-0.837,0.796-1.498,1.024-2.067,0.877
		c-0.871-0.228-1.355-1.173-1.525-1.437c-0.031-0.058-0.063-0.1-0.092-0.132c-0.304-0.435-0.504-0.562-0.636-0.534
		c-0.519-0.105-1.685,0.194-1.093,1.003c-0.001,0.148,0.036,0.285,0.104,0.408c0.01,0.023,0.027,0.076,0.065,0.142
		c0.256,0.469,1.204,1.967,2.702,2.361c1.023,0.265,2.332,0.104,3.84-1.337c0.078-0.075,0.131-0.165,0.177-0.256
		c3.688,2.715,7.431,5.355,10.905,7.807c3.417,2.411,6.645,4.688,9.174,6.586c0.813,0.61,1.648,1.227,2.501,1.853
		c9.431,6.937,20.117,14.798,20.981,32.05c0.387,7.672-2.889,16.073-9.471,24.297c-9.289,11.602-23.69,21.045-36.689,24.057
		c-2.256,0.522-4.688,0.787-7.225,0.787c-1.963,0-3.996-0.153-6.092-0.461c1.872-0.363,3.702-0.869,5.48-1.514
		c12.888-4.678,23.162-16.572,30.539-35.355c4.574-11.639,5.011-21.316,1.332-29.588c-4.361-9.795-14.053-15.641-22.604-20.798
		c-0.703-0.424-1.402-0.846-2.097-1.269c-2.412-1.465-6.179-3.314-10.537-5.455c-11.185-5.492-28.087-13.792-38.846-24.008
		c-2.516-2.393-4.568-4.782-6.101-7.102l-0.638-1.167c-0.321-0.585-0.629-1.149-0.93-1.704c-0.212-0.388-0.418-0.766-0.615-1.141
		c-2.455-5.765-1.9-11.386,1.694-17.184c5.318-8.582,11.573-12.939,31.002-12.939c0.396,0,0.801,0.002,1.208,0.005
		c18.4,0.152,23.631,2.373,35.094,7.238c1.146,0.486,2.35,0.997,3.641,1.537c0.565,0.233,1.159,0.355,1.758,0.363
		c16.309,0.301,33.737,0.313,34.844,0.313c0.037,0.001,0.084,0.002,0.139,0.002c1.354,0,3.135-0.692,4.17-2.603
		c0.471,1.493,1.848,2.583,3.492,2.583c0.988,0,1.882-0.394,2.544-1.026C224.757,82.027,224.773,85.39,224.742,87.693z"/>
	<path fill="none" d="M153.503,132.873c1.649,0.228,2.834-1.119,3.147-1.569c0.056-0.081,0.074-0.1,0.104-0.147
		c0.551-0.896-0.759-1.982-1.593-0.986c-0.011,0.014-0.021,0.024-0.038,0.047c-0.143,0.204-0.616,0.906-1.355,0.801
		c-0.625-0.09-1.309-0.678-2.134-2.048c-0.266-0.441-0.834-0.583-1.28-0.318c-0.443,0.271-0.586,0.844-0.32,1.285
		C151.303,132.043,152.535,132.735,153.503,132.873z"/>
	<path fill="none" d="M141.661,125.302c-0.332-0.394-0.92-0.446-1.318-0.109c-0.389,0.332-0.446,0.924-0.114,1.318
		c1.488,1.759,2.958,2.352,4.201,2.441c1.934,0.138,3.395-0.977,3.801-1.332c0.084-0.071,0.096-0.076,0.133-0.123
		c0.759-0.82-0.305-1.972-1.231-1.185c-0.418,0.346-1.327,0.862-2.567,0.772C143.689,127.022,142.704,126.539,141.661,125.302z"/>
	<polygon fill="none" points="221.023,96.803 222.113,95.158 220,95.025 	"/>
	<path fill="none" d="M199.788,97.689l-0.113-0.223l-0.028,0.109C199.693,97.613,199.741,97.651,199.788,97.689z"/>
	<path d="M232.105,73.117c-0.01-0.379-0.104-0.754-0.267-1.095c-2.823-5.997-6.011-8.03-8.627-8.4
		c-2.771-0.389-5.386,0.976-7.424,3.01c-1.349,1.341-2.429,2.934-3.119,4.086c-4.731-0.009-18.896-0.052-32.56-0.294
		c-14.506-6.086-19.576-8.978-41.107-9.158c-2.493-0.019-4.821,0.024-6.992,0.128c0.74-1.797,2.143-3.565,3.873-5.144
		c4.057-3.707,10.04-6.381,14.715-5.589c0.445,0.076,0.9-0.066,1.223-0.384c0.322-0.317,0.475-0.772,0.397-1.218
		c-0.559-3.513,1.792-9.457,7.644-8.798c0.482,0.056,0.967-0.147,1.271-0.541c0.293-0.394,0.37-0.915,0.188-1.375
		c-0.899-2.237-1.117-3.916-0.871-5.314c0.389-2.152,1.83-3.593,3.214-5.281c0.341-0.417,0.417-0.991,0.188-1.479
		c-0.236-0.489-0.722-0.806-1.262-0.811c-0.77-0.01-2.16-0.588-4.058-1.474c-4.628-2.157-11.785-6.238-19.569-10.59l1.232-0.82
		c0.929-0.507,1.925-0.962,2.731-0.953c0.521,0.005,0.938-0.407,0.948-0.924c0.008-0.516-0.409-0.943-0.931-0.948
		c-1.063-0.009-2.417,0.512-3.649,1.185c-0.682,0.375-1.327,0.792-1.858,1.152c0.389-1.085,1.186-2.526,2.75-3.138
		c0.474-0.189,0.711-0.73,0.531-1.213c-0.189-0.479-0.739-0.716-1.213-0.531c-2.351,0.925-3.455,3.191-3.939,4.641
		c-0.284-0.266-0.597-0.598-0.863-0.977c-0.46-0.659-0.82-1.479-0.36-2.323c0.251-0.451,0.085-1.019-0.37-1.266
		c-0.451-0.251-1.02-0.085-1.271,0.37c-0.678,1.233-0.521,2.451,0.005,3.513c0.45,0.92,1.19,1.707,1.782,2.233
		c0.205,0.18,0.39,0.332,0.541,0.446c0.024,0.118,0.062,0.232,0.114,0.346c1.801,3.754,1.233,9.461-0.308,15.605
		c-3.759,15.055-13.638,32.628-13.638,32.628c-0.052,0.095-0.095,0.194-0.123,0.294c-4.93,1.071-8.794,2.754-12.027,5.11
		c-2.531-0.659-10.567-3.276-16.506-11.055C86.435,48.77,81.14,40.223,78.888,35.833c1.958-0.18,5.077-1.071,6.324-4.759
		c0.166-0.488-0.099-1.019-0.587-1.185c-0.493-0.166-1.024,0.094-1.185,0.587c-1.086,3.205-4.082,3.546-5.376,3.542
		c1.166-1.915,2.802-5.873-0.801-9.263c-0.374-0.355-0.967-0.336-1.322,0.043c-0.355,0.374-0.336,0.967,0.038,1.322
		c2.527,2.371,1.57,5.116,0.688,6.637c-0.147-0.01-0.298,0.009-0.445,0.047c0.042-0.394,0.061-0.83,0.004-1.271
		c-0.104-0.863-0.464-1.721-1.251-2.318c-0.82-0.617-2.185-0.996-4.451-0.541c-0.507,0.104-0.835,0.597-0.735,1.104
		c0.104,0.502,0.598,0.834,1.1,0.73c1.498-0.299,2.417-0.209,2.958,0.199c0.46,0.351,0.54,0.915,0.545,1.413
		c0.005,0.64-0.156,1.209-0.213,1.398c-0.009,0.024-0.014,0.047-0.014,0.047l0.166,0.237c-5.954,3.323-11.604,6.499-19.336,7.196
		c-0.564,0.052-1.047,0.436-1.213,0.981c-0.171,0.545,0.009,1.133,0.446,1.498c4.816,3.981,8.518,7.399,10.765,10.523
		c1.356,1.883,2.166,3.627,2.275,5.329c0.043,0.668,0.545,1.208,1.209,1.303c3.19,0.431,7.048,2.484,9.959,5.2
		c1.887,1.759,3.385,3.798,3.968,5.893c0.185,0.659,0.82,1.09,1.503,1.019c4.19-0.445,13.335,1.802,17.71,2.973
		c-0.46,0.672-0.915,1.365-1.361,2.085c-0.863,1.399-1.593,2.778-2.195,4.139c-0.151-0.062-0.317-0.104-0.496-0.111
		c-1.622-0.138-4.096-0.038-6.675,1.237c-2.2,1.086-4.546,3.034-6.376,6.604c-8.926-2.688-20.787-1.123-26.935,7.191
		c-4.185,5.665-5.939,14.663-1.668,27.983c-0.967,0.929-1.816,2.133-2.432,3.508c-1.422,3.162-1.645,7.196,0.223,10.633
		c0.986,1.815,2.55,3.489,4.892,4.75c0.1,0.445,0.242,0.918,0.436,1.422c0.616,1.574,1.758,3.46,3.294,5.433
		c3.788,4.873,10.008,10.478,15.075,13.597c1.393,0.861,2.716,1.535,3.906,1.989c0.152,2.257,0.564,5.025,1.55,7.566
		c1.057,2.72,2.749,5.167,5.276,6.731c2.65,1.647,6.281,2.416,11.301,1.154c4.703-1.186,7.618-2.814,9.149-4.313
		c1.825-1.781,2.219-3.668,1.906-5.242c-0.299-1.471-1.299-2.93-3.224-3.915c0.171-0.419,0.252-0.826,0.275-1.187
		c0.095-1.262-0.36-2.541-1.649-3.471c0.877-1.29,1.105-2.551,0.962-3.537c-0.213-1.46-1.066-2.893-3.337-3.508
		c-1.299-0.359-3.67-0.369-7.381,0.477c1.242-6.021,0.977-11.795-1.109-16.821c-0.976-2.351-2.347-4.555-4.162-6.551
		c9.609-1.451,17.236-7.917,20.611-14.909c15.677,13.094,39.19,22.522,47.267,27.433c8.126,4.949,17.72,9.709,21.701,18.658
		c2.578,5.783,2.625,13.293-1.461,23.701c-0.93,2.361-1.887,4.57-2.873,6.638c-3.08-1.422-8.9-3.925-17.207-6.826
		c-0.559-0.188-1.166-0.112-1.658,0.209c-0.483,0.322-0.786,0.862-0.824,1.44c-0.209,3.47,1.366,7.803,3.434,11.736
		c2.047,3.916,4.53,7.424,5.819,9.178c-1.952,2.058-3.973,3.765-6.021,5.158l-13.907-17.475c-0.522-0.654-1.403-0.881-2.171-0.568
		c-0.777,0.313-1.242,1.102-1.157,1.924l2.21,21.275c-0.607,0.038-1.205,0.057-1.813,0.066c0.011-0.37-0.084-0.749-0.303-1.09
		l-10.909-16.726c-0.455-0.692-1.323-1.006-2.119-0.76c-0.796,0.247-1.336,0.985-1.322,1.819l0.28,14.021
		c-0.285-0.105-0.569-0.209-0.849-0.313c-11.751-4.512-20.332-12.363-20.332-12.363l-0.237-0.189
		c-0.327-0.246-0.692-0.408-1.066-0.481l-0.076-0.021c-0.379-0.066-0.777-0.066-1.171,0.027l-0.427,0.143l-0.379,0.199l-0.441,0.332
		l-0.365,0.407c-0.237,0.323-0.398,0.683-0.479,1.062l-0.014,0.076c-0.072,0.379-0.067,0.777,0.028,1.166l0.133,0.418
		c0.559,1.461,1.905,3.403,4.005,5.537c2.792,2.834,6.983,6.172,12.055,9.348c7.613,4.787,17.203,9.197,26.964,11.197l-5.48,39.289
		c-0.066,0.53,0.095,1.08,0.446,1.487c0.361,0.409,0.872,0.646,1.413,0.646h26.584c1.034,0,1.868-0.845,1.868-1.877
		c0-1.033-0.834-1.867-1.868-1.867H144.32l5.168-37.043c5.016,0.703,10.021,0.703,14.762-0.273l-0.626,27.646
		c-0.019,0.567,0.237,1.119,0.674,1.479c0.435,0.369,1.022,0.511,1.573,0.396c0,0,17.54-3.66,21.219-4.514
		c0.834-0.199,1.279-0.438,1.336-0.475c0.836-0.596,1.035-1.771,0.438-2.605c-0.502-0.703-1.383-0.959-2.151-0.684
		c-0.144,0.037-1.052,0.256-2.144,0.492c-4.209,0.92-12.979,2.76-17.149,3.631c0,0,0.464-20.373,0.599-26.318
		c13.396-3.934,28.205-13.727,37.979-25.939c7.188-8.986,11.645-19.264,11.131-29.438c-1.102-22.023-15.566-31.4-26.509-39.616
		c-10.249-7.689-31.104-20.773-38.776-30.699c-2.133-2.759-3.734-5.3-4.568-7.523c-0.551-1.475-0.854-2.721-0.295-3.674
		c0.332-0.559,0.967-0.92,1.819-1.223c1.356-0.484,3.167-0.707,5.461-0.707c5.073,0,12.222,3.171,19.562,6.997
		c11.879,6.196,24.129,14.245,29.504,15.971c9.623,3.091,19.947,0.014,19.947,0.014l-0.637,0.095
		c0.616-0.109,2.637-0.631,2.637-2.887v-7.699c0-1.55-1.262-2.806-2.807-2.806c-0.513,0-1.015-0.01-1.508-0.029l-3.193-7.466
		l-2.322,6.859l-1.547-0.327c0,0-0.084-0.256-0.207-0.55l-3.356-7.4l-2.636,6.224c-2.353-0.886-2.939-1.64-4.816-2.797
		c0.01-0.176-0.018-0.351-0.113-0.517l-2.722-5.513c0.978,0.062,2.058,0.128,3.214,0.204l3.641,7.011l2.381-6.637l2.275,0.143
		l2.691,6.409l2.797-6.063l0.73,0.043l3.252,5.286l3.063-4.888l0.605,0.038l2.22,4.162l1.536-3.925l0.861,0.047
		c0,0,2.342,0.156,2.777-2.427C232.191,92.6,232.684,88.912,232.105,73.117z M123.693,61.611c2.229-4.174,9.748-18.774,12.901-31.38
		c1.371-5.506,1.765-10.071,1.169-13.568l-0.351-2.061l4.089,2.287c6.608,3.698,12.315,6.893,16.271,8.735
		c0.957,0.448,1.854,0.824,2.668,1.118l1.291,0.466l-0.84,1.086c-0.963,1.244-1.896,2.64-2.216,4.415
		c-0.239,1.334-0.132,2.794,0.331,4.462l0.32,1.155l-1.194,0.108c-4.87,0.439-7.646,5.134-7.784,9.329l-0.031,0.993l-1.34-0.031
		c-4.567,0-10.185,2.428-14.309,6.186c-2.37,2.164-4.043,4.632-4.709,6.951l-0.19,0.664l-0.688,0.057
		c-1.504,0.124-2.972,0.289-4.362,0.489l-1.956,0.283L123.693,61.611z M84.922,70.891l-0.859,0.008l-0.252-0.643
		c-0.761-1.94-2.192-3.926-4.141-5.743c-2.872-2.675-6.687-4.781-9.956-5.496l-0.646-0.142l-0.123-0.65
		c-0.31-1.639-1.146-3.414-2.485-5.275c-1.777-2.469-4.532-5.275-8.667-8.833l-1.59-1.368l2.063-0.375
		c6.472-1.174,11.607-4.029,17.044-7.051l1.047-0.582l0.461,0.953c2.215,4.577,7.977,13.902,14.292,22.17
		c5.248,6.875,12.071,9.943,15.671,11.16l1.582,0.535l-1.218,1.142c-1.033,0.969-2.003,2.024-2.965,3.228l-0.409,0.511l-0.632-0.17
		C100.198,73.478,90.189,70.891,84.922,70.891z M106.399,115.661c-0.032,0.06-0.063,0.12-0.096,0.179
		c-0.194,0.35-0.403,0.698-0.625,1.044c-0.043,0.067-0.088,0.134-0.132,0.202c-0.231,0.351-0.473,0.7-0.732,1.045
		c-0.028,0.037-0.058,0.073-0.086,0.11c-0.254,0.333-0.521,0.664-0.8,0.989c-0.037,0.043-0.072,0.086-0.109,0.129
		c-0.289,0.333-0.593,0.659-0.907,0.981c-0.062,0.063-0.125,0.127-0.188,0.19c-0.315,0.316-0.641,0.627-0.979,0.931
		c-0.058,0.051-0.117,0.102-0.175,0.153c-0.348,0.306-0.704,0.606-1.073,0.896c-0.015,0.011-0.029,0.023-0.043,0.035
		c-0.376,0.294-0.767,0.577-1.165,0.852c-0.072,0.05-0.143,0.1-0.215,0.149c-0.388,0.263-0.785,0.515-1.191,0.757
		c-0.079,0.047-0.159,0.093-0.238,0.139c-0.42,0.244-0.847,0.48-1.285,0.701c-0.039,0.02-0.079,0.037-0.118,0.057
		c-0.426,0.212-0.861,0.411-1.302,0.599c-0.063,0.026-0.125,0.055-0.188,0.081c-0.452,0.187-0.912,0.358-1.379,0.518
		c-0.09,0.031-0.18,0.061-0.27,0.09c-0.469,0.154-0.944,0.294-1.426,0.417c-0.071,0.018-0.143,0.034-0.214,0.051
		c-0.486,0.119-0.977,0.225-1.475,0.31c-0.028,0.005-0.056,0.011-0.084,0.016c-0.508,0.085-1.023,0.147-1.542,0.196
		c-0.091,0.009-0.182,0.018-0.272,0.025c-0.506,0.041-1.017,0.063-1.531,0.065c-0.04,0-0.078,0.005-0.118,0.005
		c-0.087,0-0.176-0.007-0.264-0.008c-0.24-0.003-0.48-0.01-0.722-0.021c-0.146-0.007-0.292-0.015-0.439-0.025
		c-0.244-0.017-0.489-0.04-0.734-0.066c-0.142-0.015-0.284-0.029-0.426-0.047c-0.267-0.034-0.536-0.077-0.805-0.122
		c-0.12-0.02-0.24-0.037-0.36-0.059c-0.39-0.072-0.78-0.154-1.172-0.25c-1.654-0.73-3.413-1.375-5.328-1.93
		c-0.174-0.051-0.349-0.08-0.523-0.099c-0.052-0.006-0.104-0.008-0.156-0.011c-0.123-0.007-0.244-0.006-0.365,0.001
		c-0.063,0.004-0.127,0.007-0.189,0.015c-0.126,0.016-0.251,0.041-0.374,0.072c-0.046,0.012-0.093,0.019-0.139,0.032
		c-0.165,0.049-0.326,0.112-0.48,0.188c-0.035,0.017-0.066,0.04-0.101,0.058c-0.119,0.064-0.234,0.134-0.344,0.213
		c-0.048,0.035-0.093,0.073-0.14,0.111c-0.091,0.074-0.178,0.152-0.26,0.236c-0.044,0.045-0.087,0.09-0.128,0.138
		c-0.08,0.092-0.153,0.191-0.223,0.294c-0.031,0.046-0.065,0.09-0.094,0.138c-0.092,0.154-0.176,0.316-0.242,0.49
		c-0.574,1.512,0.104,3.209,1.564,3.906c1.834,0.872,3.65,1.541,5.437,2.024c5.006,2.352,8.22,5.66,9.865,9.631
		c2.181,5.244,1.664,11.512-0.569,17.91c-0.388,1.108-0.109,2.352,0.721,3.194c0.084,0.086,0.185,0.167,0.295,0.242
		c0.035,0.022,0.076,0.041,0.113,0.063c0.082,0.047,0.167,0.092,0.262,0.129c0.053,0.021,0.111,0.037,0.167,0.054
		c0.091,0.026,0.187,0.051,0.289,0.065c0.067,0.01,0.137,0.017,0.208,0.021c0.152,0.01,0.306,0.016,0.478-0.006
		c0.787-0.104,2.276-0.872,2.735-1.022c2.911-0.959,4.93-1.11,6.509-1.187l-2.754,0.967c-0.617,0.22-1.925,0.749-2.579,1.328
		c-0.81,0.711-1.014,1.572-0.782,2.359c0.223,0.758,0.63,1.119,1,1.326c0.131,0.075,0.272,0.131,0.417,0.176
		c0.044,0.013,0.09,0.021,0.135,0.031c0.109,0.023,0.222,0.038,0.339,0.045c0.05,0.002,0.1,0.004,0.151,0.004
		c0.173-0.006,0.351-0.024,0.54-0.074c0.242-0.066,0.545-0.248,0.91-0.352c0.488-0.133,0.91-0.238,1.275-0.314
		c-0.332,0.211-0.678,0.438-1.043,0.664c-0.564,0.361-1.521,1.156-1.986,1.926c-0.393,0.654-0.497,1.337-0.36,1.936
		c0.157,0.674,0.503,1.053,0.854,1.288c0.143,0.103,0.302,0.179,0.469,0.238c0.03,0.011,0.06,0.022,0.091,0.032
		c0.166,0.051,0.343,0.078,0.532,0.082c0.103,0.002,0.207,0.002,0.316-0.012c0.323-0.027,0.768-0.273,1.209-0.332
		c0.435-0.057,0.843-0.094,1.234-0.119c0.122-0.008,0.233-0.008,0.351-0.012c0.2-0.01,0.408-0.023,0.596-0.023
		c0.046,0,0.083,0.008,0.129,0.008c0.266,0.003,0.511,0.021,0.752,0.041c0.12,0.011,0.249,0.014,0.362,0.027
		c0.343,0.043,0.664,0.103,0.955,0.184c-1.204,0.814-3.081,1.572-5.693,2.229c-0.334,0.084-0.656,0.153-0.97,0.215
		c-0.094,0.018-0.184,0.031-0.276,0.047c-0.217,0.037-0.431,0.07-0.638,0.096c-0.103,0.014-0.204,0.021-0.305,0.031
		c-0.191,0.02-0.379,0.033-0.562,0.041c-0.095,0.005-0.191,0.01-0.284,0.011c-0.049,0.001-0.102,0.006-0.15,0.006
		c-0.079,0-0.148-0.011-0.226-0.013c-0.195-0.006-0.386-0.016-0.57-0.033c-0.113-0.012-0.223-0.023-0.332-0.04
		c-0.178-0.024-0.35-0.06-0.517-0.097c-0.099-0.022-0.198-0.043-0.293-0.07c-0.175-0.049-0.343-0.107-0.507-0.171
		c-0.075-0.029-0.153-0.054-0.226-0.085c-0.231-0.102-0.454-0.215-0.662-0.344c-1.365-0.844-2.19-2.237-2.759-3.697
		c-1.061-2.75-1.218-5.842-1.218-7.699c0-1.572-1.181-2.9-2.745-3.08c-1.508-0.18-3.627-1.451-5.973-3.109
		c-4.077-2.883-8.58-7.103-11.486-10.838c-1.1-1.412-1.967-2.74-2.413-3.877c-0.095-0.246-0.19-0.645-0.204-0.69
		c0.252-1.461-0.564-2.897-1.953-3.428c-1.73-0.659-2.878-1.612-3.499-2.759c-0.9-1.655-0.702-3.604-0.019-5.125
		c0.417-0.924,0.991-1.731,1.73-2.067c1.469-0.668,2.18-2.351,1.635-3.868c-4.205-11.756-3.494-19.587,0.071-24.413
		c0.287-0.389,0.596-0.749,0.916-1.095c0.063-0.069,0.126-0.139,0.19-0.206c0.315-0.328,0.643-0.638,0.985-0.928
		c0.061-0.052,0.125-0.101,0.187-0.151c0.332-0.271,0.673-0.528,1.026-0.767c0.038-0.025,0.073-0.053,0.111-0.078
		c0.377-0.25,0.769-0.476,1.167-0.689c0.082-0.043,0.164-0.086,0.246-0.129c0.4-0.204,0.807-0.395,1.223-0.564
		c0.052-0.021,0.105-0.039,0.157-0.06c0.394-0.156,0.795-0.296,1.202-0.422c0.068-0.021,0.136-0.045,0.204-0.065
		c0.432-0.128,0.869-0.239,1.311-0.336c0.089-0.02,0.179-0.038,0.27-0.056c0.452-0.092,0.906-0.173,1.365-0.234
		c0.017-0.002,0.034-0.003,0.051-0.005c0.449-0.059,0.9-0.098,1.353-0.127c0.088-0.006,0.175-0.013,0.263-0.017
		c0.389-0.021,0.777-0.034,1.166-0.034c0.056,0,0.112,0.004,0.167,0.004c0.133,0.001,0.265,0.007,0.397,0.011
		c0.342,0.008,0.684,0.023,1.024,0.047c0.155,0.011,0.31,0.022,0.465,0.036c0.345,0.031,0.688,0.07,1.03,0.116
		c0.122,0.017,0.244,0.029,0.365,0.048c0.452,0.068,0.899,0.148,1.34,0.241c0.099,0.021,0.195,0.047,0.294,0.069
		c0.346,0.078,0.688,0.163,1.025,0.255c0.143,0.04,0.283,0.081,0.424,0.123c0.302,0.09,0.6,0.186,0.893,0.287
		c0.127,0.044,0.254,0.086,0.379,0.132c0.405,0.149,0.803,0.305,1.186,0.476c0.199,0.088,0.406,0.154,0.616,0.198
		c0.061,0.013,0.124,0.011,0.185,0.02c0.15,0.022,0.301,0.046,0.453,0.047c0.134,0,0.266-0.021,0.398-0.039
		c0.077-0.009,0.155-0.008,0.231-0.023c0.208-0.042,0.412-0.105,0.61-0.189c0.796-0.346,1.412-1.01,1.697-1.825
		c1.176-3.37,2.816-5.162,4.499-5.992c0.108-0.053,0.227-0.087,0.351-0.109c0.045-0.008,0.095-0.007,0.142-0.012
		c0.083-0.008,0.165-0.019,0.251-0.019c0.003,0,0.005,0,0.008,0c0.012,0,0.024,0.002,0.037,0.002
		c0.249,0.002,0.508,0.028,0.761,0.053l0.763,0.085c0.014,0.195,0.028,0.384,0.047,0.574c-1.185,9.329,3.413,17.801,10.885,25.277
		l0.057,0.09C106.782,114.928,106.596,115.294,106.399,115.661z M163.172,199.902c-1.242-2.354-2.342-4.863-2.797-7.168
		c6.637,2.408,11.368,4.455,14.041,5.68c-1.98,3.68-4.059,6.836-6.21,9.509C166.917,206.141,164.889,203.173,163.172,199.902z
		 M156.402,217.906c-1.146,0.588-2.303,1.1-3.469,1.518c-1.526,0.559-3.063,0.967-4.591,1.251l-1.545-14.838
		C146.799,205.837,153.9,214.749,156.402,217.906z M132.037,210.9l6.561,10.059c-2.181-0.256-4.318-0.701-6.39-1.279L132.037,210.9z
		 M217.962,103.027l0.899,2.095c-0.521-0.047-1.041-0.105-1.545-0.171L217.962,103.027z M210.396,101.04l1.261,2.797
		c-0.749-0.189-1.488-0.398-2.199-0.626C209.742,102.566,210.083,101.765,210.396,101.04z M206.585,96.324
		c0,0-0.663-1.28-1.147-2.209l1.896,0.119L206.585,96.324z M214.32,96.262l-0.682-1.635l1.402,0.085L214.32,96.262z M221.023,96.803
		L220,95.025l2.113,0.133L221.023,96.803z M226.695,89.819l-37.584-2.351c-0.176-0.011-0.348,0.017-0.52,0.038
		c-0.104,0.013-0.208,0.017-0.309,0.04c-0.145,0.034-0.278,0.093-0.415,0.149c-0.091,0.037-0.185,0.063-0.271,0.109
		c-0.142,0.077-0.269,0.179-0.396,0.28c-0.065,0.051-0.14,0.091-0.199,0.148c-0.18,0.17-0.34,0.363-0.471,0.581
		c-0.541,0.891-0.541,2.01,0,2.901c0,0,10.608,17.716,33.126,19.1v2.868c-0.193,0.039-0.4,0.078-0.618,0.118
		c-0.067,0.012-0.146,0.024-0.217,0.037c-0.152,0.026-0.306,0.053-0.468,0.08c-0.092,0.015-0.189,0.028-0.285,0.043
		c-0.152,0.023-0.305,0.047-0.465,0.069c-0.106,0.015-0.219,0.028-0.33,0.042c-0.155,0.021-0.312,0.041-0.475,0.06
		c-0.123,0.015-0.25,0.027-0.376,0.041c-0.157,0.017-0.315,0.033-0.479,0.048c-0.135,0.013-0.273,0.023-0.413,0.034
		c-0.162,0.013-0.324,0.026-0.491,0.037c-0.145,0.01-0.291,0.017-0.438,0.025c-0.168,0.009-0.336,0.018-0.508,0.024
		c-0.154,0.006-0.309,0.01-0.464,0.013c-0.172,0.004-0.346,0.007-0.521,0.008c-0.078,0.001-0.154,0.004-0.234,0.004
		c-0.043,0-0.089-0.004-0.132-0.004c-0.534-0.002-1.08-0.018-1.638-0.051c-0.086-0.005-0.172-0.012-0.26-0.018
		c-0.568-0.038-1.145-0.093-1.728-0.169c-0.073-0.01-0.146-0.022-0.222-0.032c-0.602-0.084-1.207-0.188-1.814-0.321
		c-0.045-0.01-0.091-0.022-0.136-0.033c-0.638-0.143-1.275-0.31-1.91-0.514c-5.226-1.674-17.085-9.58-28.633-15.601
		c-8.276-4.319-16.431-7.637-22.146-7.637c-6.826,0-10.544,2.029-12.108,4.693c-1.091,1.835-1.356,4.12-0.683,6.784
		c0.767,3.024,2.833,6.698,5.933,10.699c7.898,10.23,29.287,23.835,39.841,31.756c9.858,7.403,23.284,15.577,24.278,35.399
		c0.447,8.896-3.631,17.807-9.905,25.646c-9.709,12.126-24.745,21.73-37.802,24.756c-0.592,0.139-1.189,0.254-1.791,0.356
		c-0.198,0.034-0.398,0.058-0.598,0.087c-0.406,0.063-0.814,0.121-1.223,0.168c-0.236,0.025-0.473,0.045-0.71,0.066
		c-0.377,0.033-0.754,0.066-1.134,0.09c-0.25,0.015-0.502,0.023-0.752,0.033c-0.371,0.015-0.74,0.024-1.111,0.028
		c-0.119,0.001-0.236,0.009-0.355,0.009c-0.105,0-0.213-0.009-0.317-0.01c-0.669-0.006-1.341-0.025-2.013-0.063
		c-0.09-0.006-0.18-0.008-0.27-0.014c-0.756-0.048-1.514-0.119-2.273-0.207c-0.188-0.021-0.379-0.047-0.569-0.07
		c-0.63-0.08-1.261-0.174-1.892-0.277c-0.152-0.025-0.308-0.048-0.461-0.075c-0.757-0.133-1.512-0.282-2.267-0.448
		c-0.165-0.037-0.33-0.076-0.494-0.115c-0.623-0.143-1.245-0.295-1.864-0.459c-0.188-0.049-0.373-0.098-0.559-0.147
		c-0.748-0.204-1.494-0.421-2.236-0.651c-0.115-0.037-0.228-0.076-0.342-0.111c-0.645-0.205-1.286-0.422-1.924-0.645
		c-0.197-0.07-0.394-0.14-0.59-0.209c-0.735-0.267-1.467-0.537-2.191-0.824c0.683,0.111,1.371,0.203,2.062,0.283
		c0.197,0.023,0.396,0.043,0.594,0.063c0.534,0.055,1.07,0.099,1.608,0.133c0.185,0.013,0.37,0.026,0.555,0.036
		c0.696,0.033,1.394,0.054,2.096,0.052c0.106-0.001,0.216-0.006,0.323-0.007c0.617-0.007,1.234-0.029,1.855-0.068
		c0.148-0.009,0.299-0.016,0.447-0.025c0.689-0.051,1.379-0.12,2.07-0.211c0.145-0.02,0.287-0.043,0.433-0.063
		c0.634-0.091,1.271-0.198,1.905-0.325c0.1-0.02,0.199-0.035,0.301-0.057c0.7-0.146,1.4-0.318,2.1-0.512
		c0.158-0.043,0.317-0.09,0.477-0.137c0.715-0.207,1.429-0.431,2.143-0.688c10.685-3.878,21.303-13.689,29.36-34.207
		c4.836-12.307,4.409-21.199,1.365-28.044c-4.446-9.983-14.849-15.653-23.91-21.171c-8.517-5.172-34.592-15.355-49.723-29.723
		c-2.513-2.39-4.713-4.893-6.438-7.519c-0.569-1.043-1.105-2.015-1.608-2.943c-0.231-0.422-0.455-0.834-0.668-1.242
		c-2.512-5.845-2.46-12.221,1.802-19.095c0.197-0.318,0.395-0.629,0.595-0.935c0.063-0.097,0.128-0.189,0.191-0.284
		c0.138-0.207,0.275-0.414,0.415-0.614c0.075-0.108,0.152-0.212,0.227-0.318c0.13-0.183,0.259-0.367,0.391-0.544
		c0.082-0.11,0.166-0.216,0.248-0.325c0.127-0.167,0.254-0.337,0.384-0.5c0.088-0.111,0.178-0.218,0.267-0.327
		c0.126-0.155,0.252-0.312,0.38-0.463c0.091-0.107,0.185-0.21,0.277-0.316c0.129-0.147,0.258-0.296,0.389-0.44
		c0.093-0.102,0.189-0.2,0.284-0.3c0.133-0.142,0.266-0.284,0.402-0.421c0.096-0.097,0.194-0.19,0.292-0.285
		c0.138-0.135,0.275-0.271,0.416-0.402c0.099-0.092,0.201-0.181,0.301-0.271c0.142-0.128,0.284-0.257,0.429-0.382
		c0.103-0.088,0.208-0.172,0.312-0.258c0.147-0.122,0.294-0.244,0.444-0.361c0.106-0.083,0.215-0.164,0.323-0.246
		c0.152-0.115,0.304-0.23,0.459-0.341c0.11-0.079,0.224-0.156,0.336-0.233c0.157-0.108,0.314-0.217,0.476-0.322
		c0.114-0.075,0.232-0.147,0.349-0.22c0.163-0.102,0.326-0.205,0.493-0.303c0.119-0.07,0.241-0.138,0.362-0.207
		c0.169-0.096,0.339-0.192,0.513-0.285c0.124-0.066,0.251-0.13,0.377-0.194c0.176-0.09,0.352-0.179,0.532-0.266
		c0.129-0.062,0.262-0.122,0.394-0.182c0.182-0.083,0.365-0.167,0.551-0.247c0.136-0.059,0.275-0.115,0.413-0.172
		c0.188-0.077,0.376-0.153,0.568-0.227c0.143-0.055,0.289-0.108,0.435-0.161c0.194-0.071,0.389-0.141,0.588-0.208
		c0.15-0.051,0.302-0.1,0.454-0.149c0.202-0.065,0.405-0.129,0.612-0.191c0.155-0.046,0.313-0.092,0.471-0.137
		c0.21-0.06,0.422-0.118,0.638-0.175c0.163-0.043,0.329-0.084,0.494-0.125c0.217-0.054,0.437-0.107,0.659-0.158
		c0.171-0.039,0.344-0.077,0.519-0.115c0.225-0.048,0.453-0.096,0.683-0.141c0.179-0.035,0.36-0.069,0.543-0.103
		c0.233-0.043,0.468-0.085,0.707-0.125c0.188-0.032,0.378-0.063,0.569-0.092c0.241-0.038,0.486-0.074,0.732-0.109
		c0.197-0.028,0.396-0.055,0.596-0.082c0.25-0.033,0.504-0.063,0.759-0.094c0.205-0.024,0.412-0.047,0.621-0.07
		c0.26-0.028,0.523-0.054,0.789-0.079c0.215-0.021,0.431-0.041,0.649-0.059c0.269-0.023,0.542-0.044,0.816-0.064
		c0.225-0.017,0.451-0.033,0.679-0.048c0.277-0.018,0.559-0.035,0.842-0.05c0.237-0.013,0.475-0.026,0.716-0.038
		c0.286-0.013,0.577-0.025,0.869-0.037c0.246-0.009,0.493-0.019,0.743-0.026c0.301-0.009,0.607-0.017,0.915-0.024
		c0.252-0.005,0.504-0.011,0.761-0.015c0.312-0.005,0.628-0.008,0.946-0.011c0.265-0.002,0.53-0.005,0.8-0.005
		c0.105,0,0.205-0.002,0.311-0.002c0.402,0,0.813,0.002,1.225,0.005c20.668,0.171,25.354,3.015,39.479,8.926
		c0.332,0.137,0.683,0.208,1.033,0.213c16.941,0.313,34.86,0.313,34.86,0.313s0.03,0.002,0.077,0.002
		c0.045,0,0.109-0.002,0.188-0.008c0.018-0.001,0.038-0.005,0.057-0.007c0.064-0.007,0.138-0.017,0.218-0.032
		c0.036-0.007,0.075-0.019,0.114-0.028c0.07-0.017,0.146-0.037,0.225-0.063c0.048-0.016,0.098-0.036,0.146-0.055
		c0.076-0.03,0.154-0.066,0.234-0.107c0.055-0.027,0.105-0.057,0.161-0.089c0.081-0.048,0.162-0.107,0.243-0.168
		c0.053-0.04,0.105-0.079,0.158-0.125c0.086-0.077,0.171-0.169,0.254-0.264c0.043-0.049,0.088-0.092,0.13-0.146
		c0.122-0.159,0.239-0.337,0.345-0.546c0.199-0.403,1.27-2.493,2.873-4.096c0.092-0.091,0.186-0.183,0.278-0.274
		c0.028-0.028,0.059-0.054,0.087-0.082c0.066-0.063,0.135-0.126,0.203-0.187c0.037-0.033,0.076-0.064,0.113-0.097
		c0.063-0.053,0.123-0.105,0.188-0.154c0.042-0.033,0.085-0.063,0.128-0.095c0.062-0.044,0.121-0.088,0.185-0.128
		c0.045-0.03,0.092-0.057,0.139-0.084c0.061-0.036,0.121-0.07,0.186-0.101c0.049-0.024,0.098-0.046,0.146-0.067
		c0.063-0.026,0.126-0.049,0.189-0.07c0.051-0.016,0.103-0.031,0.153-0.043c0.065-0.016,0.131-0.026,0.197-0.035
		c0.053-0.007,0.106-0.013,0.159-0.015c0.023-0.001,0.047-0.007,0.072-0.007c0.082,0,0.164,0.005,0.25,0.018
		c0.521,0.071,1.032,0.417,1.594,0.972c0.834,0.824,1.647,2.047,2.492,3.735C226.818,82.415,226.779,87.274,226.695,89.819z
		 M199.788,97.689c-0.047-0.038-0.095-0.076-0.142-0.114l0.027-0.109L199.788,97.689z M198.564,93.683l-0.562,2.565
		c-1.128-0.963-2.104-1.911-2.946-2.788C195.064,93.46,196.402,93.546,198.564,93.683z"/>
	<path d="M93.853,90.833c-1.128,0.847-2.094,2.363-2.818,4.438c-0.469,1.341-1.484,2.434-2.787,3
		c-0.652,0.279-1.331,0.418-2.029,0.418c-0.719,0-1.416-0.147-2.072-0.437c-2.426-1.08-5.33-1.673-8.179-1.674
		c-2.979,0-8.47,0.669-11.782,5.153c-3.466,4.692-3.396,12.49,0.203,22.551c0.889,2.476-0.292,5.271-2.689,6.362
		c-0.084,0.039-0.396,0.317-0.735,1.069c-0.528,1.177-0.547,2.429-0.047,3.347c0.413,0.763,1.238,1.382,2.454,1.845
		c2.121,0.811,3.437,2.924,3.272,5.147c0.02,0.07,0.033,0.105,0.04,0.124c0.334,0.851,1.05,1.988,2.124,3.366
		c2.743,3.526,7.085,7.621,11.063,10.435c2.432,1.719,4.133,2.646,5.055,2.756c0.737,0.086,1.423,0.326,2.026,0.688
		c2.125-6.256,2.3-11.84,0.501-16.165c-1.492-3.602-4.423-6.466-8.715-8.517c-1.873-0.518-3.755-1.224-5.599-2.101
		c-2.421-1.156-3.526-3.917-2.575-6.422c0.75-1.969,2.665-3.29,4.766-3.29c0.48,0,0.958,0.068,1.421,0.203
		c1.897,0.55,3.669,1.188,5.411,1.948c1.407,0.333,2.846,0.501,4.281,0.501c8.097,0,15.092-5.294,18.089-10.658
		C97.021,107.063,93.437,98.975,93.853,90.833z M75.436,114.645c-0.045,0-0.084,0.005-0.13,0.005c-0.024,0-0.051-0.001-0.076-0.001
		C75.301,114.648,75.367,114.646,75.436,114.645z M72.64,136.012l0.073,0.271l0.006,0.007c0.472,1.63,3.174,9.528,11.462,10.614
		c0.555,0.07,1.048,0.354,1.39,0.797c0.344,0.445,0.492,0.999,0.419,1.561c-0.137,1.043-1.034,1.828-2.086,1.828
		c-0.09,0-0.181-0.005-0.271-0.018c-11.247-1.471-14.794-13.069-15.052-13.969l-0.014-0.054c-0.138-0.544-0.057-1.109,0.229-1.59
		c0.286-0.482,0.743-0.823,1.289-0.962c0.173-0.044,0.35-0.067,0.526-0.067C71.569,134.431,72.403,135.081,72.64,136.012z
		 M89.33,114.259c-3.05,3.713-7.764,5.596-14.01,5.596c-0.952,0-1.953-0.044-2.974-0.131c-0.56-0.048-1.067-0.312-1.429-0.741
		c-0.362-0.429-0.535-0.974-0.487-1.533c0.093-1.078,1.011-1.923,2.09-1.923c0.061,0,0.122,0.003,0.185,0.008
		c0.9,0.076,1.775,0.115,2.601,0.115c4.936,0,8.562-1.366,10.776-4.06c3.02-3.671,2.61-8.458,2.537-9.123v-0.007l-0.008-0.062
		c-0.07-0.556,0.082-1.107,0.428-1.552c0.345-0.443,0.84-0.725,1.397-0.794c0.089-0.011,0.177-0.017,0.265-0.017
		c1.043,0,1.929,0.77,2.078,1.796l0.005,0.041C92.792,101.944,93.585,109.081,89.33,114.259z"/>
	<path d="M96.434,168.188c-0.051,0-0.101-0.002-0.151-0.004c0.031,0,0.059,0.012,0.09,0.012
		C96.392,168.193,96.414,168.188,96.434,168.188z"/>
	<path d="M91.261,164.159c-0.171,0.021-0.326,0.016-0.478,0.006c0.05,0.003,0.095,0.015,0.147,0.015
		C91.037,164.18,91.146,164.174,91.261,164.159z"/>
	<path d="M98.031,173.602c-0.11,0.014-0.213,0.014-0.316,0.012c0.014,0,0.025,0.006,0.039,0.006
		C97.843,173.618,97.936,173.613,98.031,173.602z"/>
	<path d="M86.608,96.649c-0.132,0.017-0.265,0.039-0.398,0.039c0.003,0,0.005,0.001,0.008,0.001
		C86.349,96.689,86.479,96.666,86.608,96.649z"/>
	<path d="M92.46,173.494c0.564,0.352,1.255,0.531,2.114,0.552c-0.356-0.464-0.611-1.011-0.753-1.622
		c-0.22-0.958-0.104-1.972,0.325-2.908c-0.805-0.529-1.373-1.318-1.675-2.347c-0.118-0.399-0.174-0.804-0.171-1.202
		c-0.27,0.081-0.528,0.143-0.776,0.176c-0.21,0.025-0.404,0.037-0.594,0.037c-0.496,0-0.974-0.08-1.417-0.238
		c0.146,1.852,0.485,3.498,1.002,4.838C91.039,172.118,91.675,173.009,92.46,173.494z"/>
	<path d="M75.146,124.938c0.121-0.007,0.242-0.008,0.365-0.001c-0.061-0.003-0.122-0.013-0.183-0.013S75.207,124.934,75.146,124.938
		z"/>
	<path d="M222.077,78.315c-1.646,0-3.022-1.09-3.492-2.583c-1.035,1.911-2.815,2.603-4.17,2.603c-0.056,0-0.101-0.001-0.138-0.002
		c-1.106,0-18.536-0.012-34.844-0.313c-0.6-0.008-1.192-0.13-1.759-0.363c-1.291-0.54-2.495-1.051-3.641-1.537
		c-11.462-4.865-16.693-7.086-35.094-7.238c-0.407-0.003-0.812-0.005-1.208-0.005c-19.43,0-25.685,4.357-31.002,12.939
		c-3.594,5.797-4.148,11.418-1.694,17.184c0.197,0.375,0.403,0.753,0.615,1.141c0.301,0.555,0.609,1.119,0.93,1.704l0.638,1.167
		c1.533,2.319,3.585,4.708,6.101,7.102c10.759,10.216,27.661,18.516,38.846,24.008c4.359,2.141,8.125,3.99,10.537,5.455
		c0.693,0.422,1.393,0.844,2.097,1.269c8.55,5.159,18.241,11.003,22.603,20.798c3.68,8.271,3.244,17.949-1.33,29.588
		c-7.377,18.783-17.652,30.679-30.541,35.355c-1.777,0.645-3.607,1.148-5.479,1.514c2.095,0.308,4.128,0.461,6.093,0.461
		c2.537,0,4.967-0.265,7.224-0.787c12.999-3.012,27.401-12.455,36.69-24.057c6.58-8.224,9.855-16.625,9.471-24.297
		c-0.865-17.252-11.553-25.113-20.982-32.05c-0.852-0.626-1.688-1.241-2.501-1.853c-2.53-1.898-5.757-4.177-9.174-6.586
		c-3.476-2.452-7.216-5.092-10.905-7.807c-0.046,0.091-0.099,0.181-0.177,0.256c-1.509,1.441-2.815,1.602-3.84,1.337
		c-1.498-0.394-2.446-1.892-2.702-2.361c-0.038-0.066-0.057-0.119-0.064-0.142c-0.068-0.123-0.105-0.26-0.104-0.408
		c-0.591-0.809,0.575-1.108,1.093-1.003c0.131-0.028,0.332,0.099,0.635,0.534c0.03,0.032,0.062,0.075,0.092,0.132
		c0.172,0.264,0.654,1.209,1.526,1.437c0.569,0.147,1.231-0.081,2.067-0.877c-1.729-1.288-3.436-2.586-5.09-3.889
		c-1.148,1.402-2.271,1.85-3.234,1.869c-0.872,0.014-1.659-0.332-2.305-0.806c-0.844-0.626-1.412-1.469-1.573-1.716
		c-0.028-0.047-0.048-0.085-0.048-0.085c-0.266-0.445-0.113-1.019,0.332-1.284c0.342-0.199,0.93-0.232,1.299,0.37
		c0.113,0.175,0.513,0.768,1.109,1.213c0.322,0.237,0.711,0.441,1.146,0.436c0.559-0.01,1.152-0.365,1.807-1.168
		c-1.89-1.522-3.685-3.039-5.346-4.537c0.167,0.291,0.184,0.657-0.008,0.96c-1.055,1.669-2.247,2.247-3.328,2.323
		c-0.919,0.066-1.801-0.247-2.55-0.702c-1.007-0.607-1.745-1.456-1.953-1.707c-0.043-0.043-0.058-0.071-0.062-0.077l-0.016-0.008
		c-0.313-0.412-0.236-1,0.172-1.313c0.303-0.237,0.9-0.36,1.346,0.209c0.152,0.195,0.722,0.834,1.479,1.299
		c0.429,0.256,0.92,0.469,1.45,0.431c0.636-0.042,1.262-0.478,1.878-1.455c0.251-0.401,0.757-0.526,1.177-0.333
		c-2.521-2.301-4.712-4.55-6.352-6.674c-3.344-4.314-5.459-8.161-6.29-11.429c-0.787-3.113-0.475-5.982,0.902-8.298
		c1.516-2.582,5.15-5.671,13.826-5.671c5.385,0,12.932,2.572,23.071,7.864c4.879,2.543,9.856,5.446,14.248,8.007
		c6.032,3.518,11.241,6.556,14.069,7.462c2.16,0.694,4.592,1.046,7.229,1.046c0.709,0,1.395-0.026,2.047-0.069
		c-20.143-3.284-29.684-18.846-30.107-19.555c-0.926-1.524-0.926-3.431,0.007-4.966c0.858-1.425,2.434-2.313,4.104-2.313
		c0.104,0,0.207,0.003,0.311,0.01l35.503,2.22c0.03-2.303,0.015-5.666-0.121-10.404C223.959,77.921,223.066,78.315,222.077,78.315z
		 M150.354,128.653c0.446-0.265,1.016-0.123,1.28,0.318c0.825,1.37,1.509,1.958,2.134,2.048c0.739,0.105,1.213-0.597,1.355-0.801
		c0.018-0.023,0.027-0.033,0.038-0.047c0.834-0.996,2.144,0.09,1.593,0.986c-0.029,0.047-0.048,0.066-0.104,0.147
		c-0.313,0.45-1.498,1.797-3.147,1.569c-0.968-0.138-2.2-0.83-3.471-2.935C149.768,129.497,149.909,128.924,150.354,128.653z
		 M144.563,127.084c1.24,0.09,2.15-0.426,2.568-0.772c0.928-0.787,1.99,0.365,1.232,1.185c-0.038,0.047-0.049,0.052-0.133,0.123
		c-0.408,0.355-1.867,1.47-3.801,1.332c-1.242-0.089-2.714-0.682-4.202-2.441c-0.332-0.394-0.275-0.986,0.114-1.318
		c0.398-0.337,0.986-0.285,1.318,0.109C142.704,126.539,143.689,127.022,144.563,127.084z M140.115,118.413
		c0.825-0.782,1.299-1.792,1.432-2.085l0.028-0.066c0.18-0.479,0.729-0.716,1.204-0.533c0.484,0.19,0.683,0.711,0.531,1.218
		c-0.011,0.043-0.02,0.053-0.047,0.124c-0.172,0.384-0.787,1.682-1.86,2.697c-0.778,0.745-1.792,1.328-3.015,1.394
		c-1.366,0.072-3.063-0.492-5.016-2.46c-0.365-0.364-0.365-0.957,0-1.322c0.365-0.36,0.963-0.36,1.323,0.005
		c1.426,1.431,2.592,1.962,3.588,1.91C139.034,119.252,139.641,118.868,140.115,118.413z"/>
	<path d="M214.596,76.327c-0.078,0.006-0.143,0.008-0.188,0.008c0.004,0,0.003,0,0.007,0
		C214.46,76.335,214.521,76.333,214.596,76.327z"/>
	<path d="M142.797,226.798c-0.702,0.002-1.4-0.019-2.096-0.052c0.655,0.031,1.313,0.054,1.973,0.054
		C142.715,226.8,142.756,226.798,142.797,226.798z"/>
	<path d="M188.593,87.506c0.173-0.021,0.343-0.049,0.519-0.038c-0.061-0.004-0.12-0.006-0.182-0.006
		C188.814,87.462,188.706,87.492,188.593,87.506z"/>
	<path d="M133.321,53.433c4.309-3.926,10.17-6.514,15.1-6.698c0.501-4.452,3.446-9.094,8.396-10.125
		c-0.061-0.292-0.101-0.574-0.139-0.856c-0.508,0.473-1.281,0.533-1.83,0.081c-5.043-4.115-13.984-5.248-13.984-5.248
		c-0.768-0.1-1.309-0.801-1.204-1.574c0.095-0.768,0.806-1.308,1.574-1.208c0,0,9.766,1.31,15.339,5.821
		c0.021-0.431,0.06-0.857,0.134-1.272c0.301-1.675,1.005-3.025,1.816-4.213c-0.515-0.212-1.049-0.449-1.6-0.707
		c-4.02-1.873-9.756-5.083-16.399-8.801l-0.555-0.311c0.241,3.432-0.24,7.588-1.436,12.392
		c-2.833,11.326-8.914,23.859-12.175,30.127c0.621-0.072,1.252-0.137,1.89-0.195C129.119,58.182,130.898,55.645,133.321,53.433z
		 M137.962,40.495c0,0,6.542,0.521,9.32,2.645c0.616,0.469,0.729,1.351,0.256,1.967c-0.466,0.616-1.347,0.73-1.963,0.261
		c-0.882-0.672-2.267-1.104-3.583-1.417l-4.229-0.654c-0.767-0.052-1.355-0.725-1.299-1.498
		C136.511,41.026,137.185,40.443,137.962,40.495z"/>
	<path d="M84.988,66.744l3.669-6.58c0.244-0.441,0.69-0.693,1.159-0.715c-0.098-0.125-0.198-0.243-0.295-0.37
		c-5.988-7.84-11.499-16.648-14.029-21.567c-4.743,2.632-9.323,5.085-14.879,6.414c3.434,3.055,5.831,5.578,7.472,7.857
		c0.888,1.234,1.551,2.418,2.041,3.578c0.056-0.104,0.102-0.212,0.186-0.302c3.053-3.271,10.624-5.503,10.624-5.503
		c0.744-0.214,1.522,0.217,1.733,0.962c0.214,0.744-0.218,1.522-0.962,1.74c0,0-6.674,1.853-9.343,4.716
		c-0.255,0.274-0.597,0.417-0.945,0.437c3.303,0.991,6.812,3.03,9.616,5.641c1.683,1.57,3,3.272,3.924,4.994
		C84.763,67.645,84.757,67.162,84.988,66.744z"/>
	<path d="M91.245,61.15c-0.029,0.129-0.069,0.258-0.137,0.379l-3.665,6.58c-0.379,0.678-1.232,0.92-1.91,0.545
		c-0.246-0.138-0.432-0.339-0.554-0.57c0.144,0.271,0.305,0.541,0.428,0.813c5.151,0.127,13.581,2.202,17.626,3.274
		c0.527-0.636,1.06-1.234,1.605-1.802C101.08,68.975,95.812,66.228,91.245,61.15z"/>
	<path d="M184.391,63.501c0,1.313,1.071,2.38,2.379,2.38c1.318,0,2.381-1.067,2.381-2.38c0-1.318-1.063-2.384-2.381-2.384
		C185.462,61.117,184.391,62.183,184.391,63.501z"/>
	<path d="M199.986,64.065c0,1.318,1.07,2.385,2.38,2.385c1.317,0,2.389-1.067,2.389-2.385c0-1.313-1.071-2.379-2.389-2.379
		C201.059,61.686,199.986,62.752,199.986,64.065z"/>
	<path d="M183.404,45.08c1.459,2.892,8.306,18.236,9.746,22.787c0.188,0.588,0.74,0.986,1.354,0.981
		c0.616-0.009,1.156-0.422,1.327-1.015c3.081-10.623,5.604-19.445,7.52-24.404c0.711-1.844,1.262-3.105,1.764-3.579
		c0.568-0.526,0.607-1.413,0.086-1.981c-0.531-0.569-1.424-0.602-1.991-0.076c-0.664,0.621-1.536,2.2-2.476,4.627
		c-1.678,4.356-3.84,11.661-6.408,20.554c-2.598-6.48-7.233-16.819-8.409-19.156c-0.351-0.697-0.722-1-0.787-1.039
		c-0.389-0.242-0.749-0.232-1.015-0.18c-0.342,0.066-0.635,0.242-0.862,0.564c-0.37,0.518-0.342,1.196,0.028,1.675
		C183.309,44.9,183.366,44.994,183.404,45.08z"/>
</g>
</svg>
