<?xml version="1.0" encoding="utf-8"?>
<!-- Generator: Adobe Illustrator 15.1.0, SVG Export Plug-In . SVG Version: 6.00 Build 0)  -->
<!DOCTYPE svg PUBLIC "-//W3C//DTD SVG 1.1//EN" "http://www.w3.org/Graphics/SVG/1.1/DTD/svg11.dtd">
<svg version="1.1" id="Layer_1" xmlns:serif="http://www.serif.com/"
	 xmlns="http://www.w3.org/2000/svg" xmlns:xlink="http://www.w3.org/1999/xlink" x="0px" y="0px" width="283.46px"
	 height="283.46px" viewBox="0 0 283.46 283.46" enable-background="new 0 0 283.46 283.46" xml:space="preserve">
<g>
	<path d="M53.447,190.99c5.534-8.179,53.456-78.123,82.716-91.151c16.298-7.257,34.417-5.101,48.247,4.121
		c-28.221,1.997-50.428,22.19-50.428,46.774c0,17.082,10.722,32.044,26.734,40.256H68.577c-7.239-0.419-12.483-0.519-14.611,0
		H53.447z"/>
	<g>
		<path d="M122.406,101.53l16.925-8.948l-1.555,7.3l-8.462,4.475L122.406,101.53z"/>
		<path d="M130.04,92.47l-1.433,1.158l3.364,4.158l1.433-1.158L130.04,92.47z"/>
		<path d="M127.417,93.947l-1.432,1.16l3.364,4.157l1.433-1.157L127.417,93.947L127.417,93.947z"/>
		<path d="M134.536,96.718l-1.42-2.722l-6.284,3.279l1.419,2.722L134.536,96.718z"/>
	</g>
	<g>
		<path d="M166.294,190.99h-5.422v-12.511h-4.285l11.393-11.636l11.395,11.636h-4.287v12.511h-5.42v-5.95h-3.373V190.99
			L166.294,190.99z"/>
	</g>
	<g>
		<path d="M191.625,190.99h-5.418v-12.511h-4.287l11.393-11.636l11.393,11.636h-4.287v12.511H195v-5.95h-3.375V190.99
			L191.625,190.99z"/>
	</g>
	<g>
		<path d="M216.933,190.99h-5.418v-12.511h-4.287l11.393-11.636l11.393,11.636h-4.287v12.511h-5.418v-5.95h-3.375V190.99
			L216.933,190.99z"/>
	</g>
</g>
</svg>
