<?xml version="1.0" encoding="utf-8"?>
<!-- Generator: Adobe Illustrator 15.1.0, SVG Export Plug-In . SVG Version: 6.00 Build 0)  -->
<!DOCTYPE svg PUBLIC "-//W3C//DTD SVG 1.0//EN" "http://www.w3.org/TR/2001/REC-SVG-20010904/DTD/svg10.dtd">
<svg version="1.0" id="Layer_2" xmlns="http://www.w3.org/2000/svg" xmlns:xlink="http://www.w3.org/1999/xlink" x="0px" y="0px"
	 width="283.46px" height="283.46px" viewBox="0 0 283.46 283.46" enable-background="new 0 0 283.46 283.46" xml:space="preserve">
<path d="M182.374,95.264h-41.914V57.441c0-2.691-1.135-5.189-2.996-6.599c-1.862-1.408-4.185-1.526-6.134-0.31l-85.816,53.531
	c-2.114,1.319-3.446,3.99-3.446,6.908c0,2.919,1.332,5.59,3.446,6.909l85.816,53.531c0.896,0.559,1.87,0.836,2.842,0.836
	c1.144,0,2.285-0.384,3.292-1.146c1.861-1.409,2.996-3.908,2.996-6.599v-36.24h41.914c14.348,0,26.02,11.672,26.02,26.02v74.98
	c0,2.485,2.015,4.5,4.5,4.5h24c2.485,0,4.5-2.015,4.5-4.5v-74.98C241.393,121.74,214.917,95.264,182.374,95.264z"/>
</svg>
