<?xml version="1.0" encoding="utf-8"?>
<!-- Generator: Adobe Illustrator 15.1.0, SVG Export Plug-In . SVG Version: 6.00 Build 0)  -->
<!DOCTYPE svg PUBLIC "-//W3C//DTD SVG 1.1//EN" "http://www.w3.org/Graphics/SVG/1.1/DTD/svg11.dtd">
<svg version="1.1" id="Layer_1" xmlns:svg="http://www.w3.org/2000/svg"
	 xmlns="http://www.w3.org/2000/svg" xmlns:xlink="http://www.w3.org/1999/xlink" x="0px" y="0px" width="283.465px"
	 height="283.465px" viewBox="0 0 283.465 283.465" enable-background="new 0 0 283.465 283.465" xml:space="preserve">
<path id="path1334" d="M276.378,141.739l-29.916-17.275v12.323H93.559l29.772-31.454c2.533-2.031,5.848-3.456,9.258-3.534
	c13.797,0,21.988-0.004,25.004-0.01c2.045,5.823,7.535,10.027,14.063,10.027c8.258,0,14.959-6.701,14.959-14.962
	c0-8.264-6.699-14.962-14.959-14.962c-6.527,0-12.018,4.201-14.063,10.02l-24.711-0.004c-6.696,0-13.715,3.674-18.181,7.981
	c0.121-0.128,0.248-0.264-0.008,0.003c-0.095,0.106-31.587,33.368-31.587,33.368c-2.527,2.028-5.842,3.444-9.25,3.525H56.56
	c-2.293-11.427-12.383-20.036-24.487-20.036c-13.801,0-24.985,11.187-24.985,24.982c0,13.801,11.186,24.987,24.985,24.987
	c12.106,0,22.197-8.616,24.49-20.053h16.993c0.044,0,0.088,0.002,0.133,0h37.588c3.4,0.087,6.71,1.505,9.234,3.534
	c0,0,31.486,33.26,31.584,33.367c0.252,0.268,0.125,0.129,0.002,0.002c4.467,4.309,11.486,7.979,18.186,7.979l23.814-0.006v10.031
	h29.922v-29.92h-29.922v10.018c0,0-6.272-0.012-24.105-0.012c-3.41-0.078-6.729-1.502-9.263-3.533l-29.778-31.459h115.512v12.344
	L276.378,141.739z"/>
</svg>
