<?xml version="1.0" encoding="utf-8"?>
<!-- Generator: Adobe Illustrator 15.1.0, SVG Export Plug-In . SVG Version: 6.00 Build 0)  -->
<!DOCTYPE svg PUBLIC "-//W3C//DTD SVG 1.1//EN" "http://www.w3.org/Graphics/SVG/1.1/DTD/svg11.dtd">
<svg version="1.1" id="Layer_1" xmlns="http://www.w3.org/2000/svg" xmlns:xlink="http://www.w3.org/1999/xlink" x="0px" y="0px"
	 width="283.465px" height="283.465px" viewBox="0 0 283.465 283.465" enable-background="new 0 0 283.465 283.465"
	 xml:space="preserve">
<g>
	<path d="M141.718,216.572c-2.211,0-4.422-0.496-6.466-1.476l-78.386-37.62L18.59,197.349c-2.511,1.299-4.072,3.912-4.028,6.743
		s1.686,5.4,4.24,6.626l119.684,57.434c1.021,0.481,2.123,0.73,3.232,0.73c1.103,0,2.211-0.249,3.232-0.73l119.706-57.434
		c2.554-1.226,4.203-3.795,4.246-6.626c0.045-2.831-1.518-5.444-4.027-6.743l-38.284-19.872l-78.407,37.621
		C146.141,216.076,143.929,216.572,141.718,216.572z"/>
	<path d="M264.876,137.35l-38.285-19.873l-78.407,37.621c-2.043,0.979-4.255,1.476-6.466,1.476s-4.422-0.497-6.465-1.476
		l-78.386-37.62L18.591,137.35c-2.511,1.299-4.072,3.912-4.028,6.743c0,0.027,0.006,0.054,0.007,0.082
		c0,0.043-0.008,0.085-0.007,0.128c0.044,2.831,1.686,5.393,4.24,6.619l119.683,57.447c1.021,0.48,2.123,0.729,3.232,0.729
		c1.103,0,2.211-0.248,3.232-0.729l119.706-57.447c2.554-1.228,4.203-3.788,4.246-6.619c0.002-0.043-0.006-0.085-0.006-0.128
		c0-0.028,0.006-0.055,0.006-0.082C268.947,141.262,267.386,138.648,264.876,137.35z"/>
	<path d="M138.486,148.369c1.021,0.48,2.123,0.729,3.232,0.729c1.103,0,2.211-0.248,3.232-0.729l119.706-57.447
		c2.554-1.227,4.203-3.788,4.246-6.619c0.045-2.832-1.518-5.445-4.027-6.751L145.163,15.426c-2.16-1.124-4.729-1.124-6.889,0
		L18.59,77.552c-2.511,1.306-4.072,3.919-4.028,6.751c0.044,2.831,1.686,5.393,4.24,6.619L138.486,148.369z"/>
</g>
</svg>
