<?xml version="1.0" encoding="utf-8"?>
<!-- Generator: Adobe Illustrator 15.1.0, SVG Export Plug-In . SVG Version: 6.00 Build 0)  -->
<!DOCTYPE svg PUBLIC "-//W3C//DTD SVG 1.1//EN" "http://www.w3.org/Graphics/SVG/1.1/DTD/svg11.dtd">
<svg version="1.1" id="Layer_1" xmlns="http://www.w3.org/2000/svg" xmlns:xlink="http://www.w3.org/1999/xlink" x="0px" y="0px"
	 width="283.465px" height="283.465px" viewBox="0 0 283.465 283.465" enable-background="new 0 0 283.465 283.465"
	 xml:space="preserve">
<g>
	<path d="M148.184,185.098c-2.043,0.979-4.255,1.476-6.466,1.476s-4.422-0.496-6.466-1.476l-78.385-37.62L18.59,167.35
		c-2.51,1.299-4.072,3.912-4.028,6.743s1.687,5.4,4.24,6.626l119.684,57.433c1.021,0.481,2.123,0.73,3.232,0.73
		c1.104,0,2.211-0.249,3.233-0.73l119.705-57.434c2.554-1.226,4.203-3.795,4.247-6.626s-1.519-5.444-4.028-6.743l-38.284-19.872
		L148.184,185.098z"/>
	<path d="M264.875,107.552L145.162,45.426c-2.16-1.124-4.729-1.124-6.89,0L18.589,107.552c-2.51,1.306-4.072,3.919-4.028,6.75
		s1.687,5.393,4.24,6.619l119.685,57.448c1.021,0.48,2.123,0.729,3.232,0.729c1.104,0,2.211-0.248,3.233-0.729l119.706-57.448
		c2.554-1.226,4.203-3.788,4.247-6.619S267.386,108.858,264.875,107.552z"/>
</g>
</svg>
