<?xml version="1.0" encoding="utf-8"?>
<!-- Generator: Adobe Illustrator 15.1.0, SVG Export Plug-In . SVG Version: 6.00 Build 0)  -->
<!DOCTYPE svg PUBLIC "-//W3C//DTD SVG 1.1//EN" "http://www.w3.org/Graphics/SVG/1.1/DTD/svg11.dtd">
<svg version="1.1" id="Layer_4" xmlns="http://www.w3.org/2000/svg" xmlns:xlink="http://www.w3.org/1999/xlink" x="0px" y="0px"
	 width="283.465px" height="283.465px" viewBox="0 0 283.465 283.465" enable-background="new 0 0 283.465 283.465"
	 xml:space="preserve">
<g>
	<path d="M274.845,149.344l-33.181-19.157c-0.475-0.273-1.004-0.411-1.533-0.411c-0.528,0-1.059,0.138-1.532,0.412l-1.021,0.589
		c-0.948,0.548-1.532,1.56-1.532,2.653v10.744c6.765,8.96,10.782,20.104,10.782,32.169c0,12.066-4.019,23.209-10.782,32.169v0.369
		c0,1.096,0.584,2.106,1.532,2.654l1.021,0.59c0.475,0.273,1.004,0.41,1.532,0.41c0.529,0,1.06-0.137,1.533-0.41l33.182-19.158
		c0.948-0.547,1.533-1.56,1.533-2.653v-38.314C276.379,150.903,275.794,149.892,274.845,149.344z"/>
	<path d="M36.644,175.55c0.17-11.515,3.951-22.418,10.776-31.43v-10.69c0-1.095-0.584-2.105-1.533-2.653l-1.021-0.59
		c-0.474-0.273-1.003-0.411-1.533-0.411s-1.059,0.138-1.533,0.411L8.618,149.344c-0.948,0.548-1.532,1.56-1.532,2.654v38.315
		c0,1.095,0.584,2.106,1.532,2.653L41.8,212.125c0.475,0.273,1.003,0.41,1.533,0.41s1.059-0.137,1.533-0.41l1.021-0.59
		c0.948-0.547,1.533-1.56,1.533-2.654v-0.343C40.263,199.084,36.464,187.596,36.644,175.55z"/>
	<path d="M83.272,112.79c3.21-6.824,7.855-12.638,13.597-17.355c5.741-4.72,11.752-8.985,19.342-11.431
		c0.249-0.08,0.514-0.143,0.766-0.219c0.57,0.14,1.172,0.219,1.795,0.219h19.022h7.877h19.022c0.231,0,0.462-0.012,0.688-0.031
		c0.036,0.013,0.071,0.021,0.107,0.031c7.59,2.444,15.367,6.711,21.106,11.431c5.741,4.719,10.388,10.531,13.599,17.355
		c1.621,3.447,2.874,7.154,3.72,11.105c8.234,1.659,15.782,5.224,22.182,10.199c-0.268-10.841-2.595-20.868-6.604-29.854
		c-4.271-9.568-10.45-17.956-18.086-24.888c-6.915-6.279-15.035-11.349-24.006-15.031c-1.939-3.021-9.574-6.871-12.705-6.871H145.67
		h-7.876h-19.022c-3.13,0-10.766,3.85-12.705,6.871c-8.971,3.684-17.089,8.752-24.006,15.031
		c-7.637,6.932-13.815,15.318-18.085,24.888c-4.007,8.977-6.332,18.991-6.604,29.816c6.545-5.087,14.111-8.551,22.181-10.167
		C80.398,119.94,81.65,116.236,83.272,112.79z"/>
	<path d="M242.996,176.343c0-27.391-22.283-49.673-49.673-49.673H90.146c-12.993,0-25.283,4.982-34.605,14.03
		c-9.52,9.244-14.871,21.641-15.065,34.907c-0.196,13.267,4.785,25.813,14.028,35.334c9.436,9.719,22.093,15.07,35.645,15.069
		c12.988,0,25.275-4.981,34.598-14.026l0.203-0.179c1.205-0.911,2.521-1.705,3.913-2.359c2.669-1.267,7.076-2.776,12.875-2.776
		l0.341-0.002c4.369,0,8.586,0.935,12.535,2.776c1.479,0.709,2.753,1.479,3.915,2.365l0.173,0.148
		c9.318,9.074,21.57,14.057,34.527,14.057h0.094C220.712,226.017,242.996,203.733,242.996,176.343z M186.385,214.815H186.3
		c-11.468,0-22.306-3.871-30.538-10.918c-0.002-0.001-0.003-0.003-0.006-0.004c-0.544-0.658-3.198-6.187-5.336-10.636
		c-5.638-11.736-6.561-13.375-7.241-13.662c-0.188-0.079-0.4-0.079-0.591-0.002c-0.653,0.271-1.799,2.021-8.607,13.818
		c-2.678,4.638-5.709,9.891-6.256,10.471c-0.015,0.012-0.028,0.022-0.037,0.03c-8.241,7.028-19.108,10.898-30.603,10.898
		c-11.991,0-23.187-4.157-31.525-11.707c-8.119-7.35-12.51-17.027-12.36-27.254c0.15-10.285,4.865-19.902,13.276-27.08
		c8.24-7.029,19.11-10.9,30.607-10.9h89.302c24.197,0,43.885,17.258,43.885,38.471C230.27,197.555,210.583,214.815,186.385,214.815z
		"/>
	<path d="M193.375,163.412c-0.646-0.09-2.586-0.135-5.818-0.135h-6.225v10.021h5.9c3.825,0,6.214-0.161,7.166-0.483
		c0.952-0.323,1.696-0.88,2.235-1.671c0.539-0.79,0.809-1.777,0.809-2.964c0-1.328-0.354-2.401-1.063-3.22
		C195.669,164.144,194.668,163.628,193.375,163.412z"/>
	<path d="M227.97,176.341c0-19.944-18.654-36.172-41.585-36.172H97.083c-10.951,0-21.292,3.676-29.117,10.353
		c-7.9,6.741-12.329,15.75-12.469,25.363c-0.14,9.557,3.981,18.617,11.604,25.517c7.916,7.166,18.563,11.111,29.982,11.111
		c10.834,0,21.095-3.608,28.891-10.161c0.053-0.044,0.099-0.096,0.138-0.151c0.859-1.243,3.641-6.063,5.876-9.937
		c8.169-14.152,8.406-14.251,9.723-14.795c0.753-0.312,1.612-0.307,2.363,0.01c1.489,0.63,1.872,1.154,8.419,14.784l0.048,0.1
		c1.815,3.779,4.075,8.482,4.886,9.875c0.046,0.077,0.104,0.145,0.171,0.202c7.758,6.498,17.951,10.077,28.703,10.077h0.078
		C209.313,212.517,227.97,196.288,227.97,176.341z M199.503,181.973c1.122,1.203,2.637,3.342,4.539,6.412l4.822,7.705h-9.536
		l-5.766-8.594c-2.048-3.071-3.448-5.007-4.203-5.806c-0.754-0.8-1.553-1.349-2.397-1.645c-0.844-0.297-2.182-0.443-4.014-0.443
		h-1.616v16.486h-7.974v-39.494h16.783c4.221,0,7.287,0.355,9.199,1.064c1.913,0.71,3.444,1.971,4.595,3.785
		c1.149,1.813,1.724,3.889,1.724,6.224c0,2.963-0.87,5.41-2.612,7.341c-1.741,1.932-4.347,3.147-7.813,3.65
		C196.958,179.666,198.38,180.771,199.503,181.973z M97.229,196.09h-8.514L74.6,156.595h8.647l9.995,29.23l9.671-29.23h8.459
		L97.229,196.09z"/>
</g>
</svg>
