<?xml version="1.0" encoding="utf-8"?>
<!-- Generator: Adobe Illustrator 15.1.0, SVG Export Plug-In . SVG Version: 6.00 Build 0)  -->
<!DOCTYPE svg PUBLIC "-//W3C//DTD SVG 1.1//EN" "http://www.w3.org/Graphics/SVG/1.1/DTD/svg11.dtd">
<svg version="1.1" id="Layer_1" xmlns="http://www.w3.org/2000/svg" xmlns:xlink="http://www.w3.org/1999/xlink" x="0px" y="0px"
	 width="283.46px" height="283.46px" viewBox="0 0 283.46 283.46" enable-background="new 0 0 283.46 283.46" xml:space="preserve">
<path d="M276.157,140.592c-0.469-1.173-1.588-1.932-2.853-1.932c-0.395,0-0.78,0.075-1.139,0.22l-39.648,15.86v-30.553
	c0-0.811-0.318-1.577-0.877-2.147v-1.092l-1.012,0.405c-0.731-0.305-1.591-0.311-2.321-0.017l-83.506,33.403v-30.553
	c0-0.811-0.319-1.578-0.877-2.148v-1.091l-1.013,0.405c-0.726-0.302-1.557-0.318-2.321-0.017L57.084,154.74v-30.553
	c0-0.811-0.319-1.579-0.877-2.148v-1.091l-1.012,0.405c-0.725-0.302-1.555-0.318-2.321-0.017L9.016,138.88
	c-0.762,0.305-1.359,0.888-1.682,1.642c-0.323,0.754-0.333,1.589-0.029,2.347c0.468,1.174,1.587,1.932,2.851,1.932
	c0.394,0,0.78-0.074,1.141-0.219l39.647-15.86v30.551c0,0.813,0.319,1.578,0.877,2.148v1.092l1.012-0.404
	c0.728,0.303,1.569,0.314,2.321,0.016l83.506-33.403v30.551c0,0.813,0.319,1.578,0.877,2.148v1.092l1.012-0.406
	c0.728,0.305,1.571,0.314,2.32,0.018l83.507-33.403v30.551c0,0.811,0.318,1.578,0.877,2.148v1.092l1.012-0.404
	c0.73,0.303,1.582,0.313,2.321,0.016l43.858-17.543C276.017,143.953,276.785,142.162,276.157,140.592z"/>
</svg>
