<?xml version="1.0" encoding="utf-8"?>
<!-- Generator: Adobe Illustrator 15.1.0, SVG Export Plug-In . SVG Version: 6.00 Build 0)  -->
<!DOCTYPE svg PUBLIC "-//W3C//DTD SVG 1.1//EN" "http://www.w3.org/Graphics/SVG/1.1/DTD/svg11.dtd">
<svg version="1.1" id="Layer_3" xmlns="http://www.w3.org/2000/svg" xmlns:xlink="http://www.w3.org/1999/xlink" x="0px" y="0px"
	 width="283.465px" height="283.465px" viewBox="0 0 283.465 283.465" enable-background="new 0 0 283.465 283.465"
	 xml:space="preserve">
<g>
	<path fill="none" d="M23.793,142.385L23.785,248.61l71.981-52.474L23.793,142.385z M31.101,237.537
		c-0.087,0.063-0.19,0.096-0.294,0.096c-0.078,0-0.155-0.018-0.227-0.055c-0.168-0.085-0.273-0.257-0.273-0.445l0.007-81.037
		c0-0.189,0.107-0.362,0.276-0.447c0.168-0.084,0.371-0.067,0.523,0.047l54.906,41.007c0.127,0.095,0.202,0.244,0.201,0.403
		s-0.077,0.308-0.206,0.401L31.101,237.537z"/>
	<path fill="none" d="M146.714,226.77c-2.946,2.215-7.009,2.215-9.965,0l-27.007-20.178l-68.731,50.098l201.438,0.038L173.73,206.61
		L146.714,226.77z M226.443,251.962c0,0.276-0.224,0.5-0.5,0.5c-0.006-0.001-0.014-0.001-0.02,0l-165.191-0.023
		c-0.218,0-0.412-0.142-0.477-0.351c-0.065-0.208,0.012-0.435,0.191-0.56l49.512-34.526c0.173-0.12,0.404-0.119,0.576,0.003
		l27.655,19.72c1.074,0.578,2.917,0.942,4.878,0.942c1.961,0,3.803-0.364,4.927-0.975l24.674-19.444
		c0.17-0.133,0.4-0.143,0.582-0.027l52.872,34.274C226.311,251.566,226.443,251.749,226.443,251.962z"/>
	<path fill="none" d="M245.461,136.749V19.815H38.002v116.923l103.727,74.806L245.461,136.749z M48.369,28.232h186.727v103.214
		l-93.365,66.014l-93.361-66.025V28.232z"/>
	<path fill="none" d="M259.699,248.669l0.009-106.245l-71.987,53.742L259.699,248.669z M253.083,155.687
		c0.151-0.114,0.354-0.13,0.522-0.047c0.17,0.085,0.276,0.258,0.276,0.447l-0.006,81.053c0,0.188-0.105,0.36-0.273,0.445
		c-0.071,0.037-0.149,0.055-0.227,0.055c-0.104,0-0.207-0.032-0.295-0.096L198.17,197.49c-0.128-0.094-0.204-0.243-0.205-0.401
		c-0.001-0.159,0.073-0.309,0.201-0.403L253.083,155.687z"/>
	<path d="M276.36,125.976c0.189-5.322-2.063-10.559-6.293-14.09l-14.864-12.408V10.084H28.27v89.394L13.4,111.886
		c-4.381,3.65-6.629,9.12-6.277,14.618L7.09,264.95l0.081,1.196c0.157,1.169,0.565,2.271,1.169,3.26l0.979,1.293l1.122,1.008
		l0.085,0.058c1.122,0.817,2.443,1.368,3.897,1.54l1.012,0.057l253.304,0.02l0.294-0.039c1.436-0.17,2.774-0.702,3.887-1.521
		l1.197-1.063l0.933-1.18l0.065-0.113c0.618-0.969,1.018-2.071,1.17-3.26l0.094-1.188L276.36,125.976z M38.002,19.815h207.458
		v116.934l-103.731,74.795L38.002,136.738V19.815z M23.793,142.385l71.972,53.752L23.785,248.61L23.793,142.385z M41.011,256.689
		l68.731-50.098l27.007,20.178c2.956,2.215,7.019,2.215,9.965,0l27.017-20.159l68.718,50.117L41.011,256.689z M259.699,248.669
		l-71.979-52.503l71.987-53.742L259.699,248.669z"/>
	<path d="M163.492,80.781c1.788,0,3.087-0.329,3.897-0.988c0.804-0.657,1.201-1.708,1.201-3.147v-6.778
		c0-1.439-0.397-2.482-1.201-3.14c-0.811-0.66-2.109-0.988-3.897-0.988s-3.087,0.329-3.891,0.988
		c-0.804,0.648-1.209,1.701-1.209,3.14v6.778c0,1.439,0.405,2.49,1.209,3.147C160.405,80.452,161.704,80.781,163.492,80.781z"/>
	<path d="M235.096,131.447V28.232H48.369v103.204l93.361,66.025L235.096,131.447z M200.244,61.639h15.674v4.208h-11.021v5.215
		h10.212v4.17h-10.212v5.469h11.021v4.169h-15.674V61.639z M174.625,61.639h4.281l8.116,13.593l7.669-13.593h4.058V84.87h-4.469
		V70.237l-7.223,12.659h-0.517l-7.487-12.837V84.87h-4.429V61.639z M153.741,69.868c0-2.728,0.838-4.824,2.528-6.272
		c1.676-1.453,4.093-2.183,7.222-2.183s5.546,0.729,7.222,2.183c1.69,1.449,2.536,3.544,2.536,6.272v6.778
		c0,2.734-0.846,4.823-2.536,6.272c-1.684,1.453-4.093,2.183-7.222,2.183s-5.546-0.73-7.222-2.183
		c-1.689-1.449-2.528-3.538-2.528-6.272V69.868z M93.127,84.87h-4.689l-4.613-15.636L78.973,84.87h-4.575l-6.852-23.231h4.771
		l4.655,17.612l5.171-17.612h3.497l5.036,17.388l4.533-17.388h4.655L93.127,84.87z M116.694,65.847h-11.022v5.215h10.208v4.17
		h-10.208v5.469h11.022v4.169h-15.67V61.639h15.67V65.847z M133.311,84.87h-15.307V61.639h4.655v19.062h10.651V84.87z
		 M133.574,77.019v-7.525c0-2.661,0.801-4.67,2.403-6.036c1.596-1.358,3.946-2.046,7.052-2.046c6.156,0,9.23,2.646,9.23,7.931v1.16
		h-4.645v-1.16c0-1.264-0.321-2.179-0.971-2.752c-0.643-0.573-1.841-0.859-3.572-0.859c-1.838,0-3.102,0.314-3.797,0.95
		c-0.701,0.635-1.044,1.561-1.044,2.776v7.596c0,1.188,0.362,2.11,1.1,2.752c0.73,0.646,1.977,0.967,3.741,0.967
		c1.711,0,2.888-0.287,3.558-0.874c0.657-0.579,0.985-1.529,0.985-2.846v-1.009h4.645v1.086c0,2.703-0.769,4.708-2.319,6.017
		c-1.55,1.303-3.854,1.953-6.911,1.945c-3.098,0-5.448-0.681-7.052-2.046S133.574,79.674,133.574,77.019z"/>
	<path d="M86.019,196.702l-54.906-41.007c-0.152-0.114-0.355-0.131-0.523-0.047c-0.169,0.085-0.276,0.258-0.276,0.447l-0.007,81.037
		c0,0.188,0.105,0.36,0.273,0.445c0.071,0.037,0.149,0.055,0.227,0.055c0.104,0,0.208-0.032,0.294-0.096l54.913-40.03
		c0.128-0.094,0.205-0.242,0.206-0.401S86.146,196.797,86.019,196.702z"/>
	<path d="M172.668,217.248l-24.674,19.444c-1.124,0.61-2.966,0.975-4.927,0.975c-1.96,0-3.804-0.364-4.878-0.942l-27.655-19.72
		c-0.172-0.122-0.403-0.123-0.576-0.003l-49.512,34.526c-0.179,0.125-0.256,0.352-0.191,0.56c0.065,0.209,0.259,0.351,0.477,0.351
		l165.191,0.023c0.006-0.001,0.014-0.001,0.02,0c0.276,0,0.5-0.224,0.5-0.5c0-0.213-0.133-0.396-0.321-0.467l-52.872-34.274
		C173.068,217.105,172.838,217.115,172.668,217.248z"/>
	<path d="M198.17,197.49l54.911,40.054c0.088,0.063,0.191,0.096,0.295,0.096c0.077,0,0.155-0.018,0.227-0.055
		c0.168-0.085,0.273-0.257,0.273-0.445l0.006-81.053c0-0.189-0.106-0.362-0.276-0.447c-0.168-0.083-0.371-0.067-0.522,0.047
		l-54.917,40.999c-0.128,0.095-0.202,0.244-0.201,0.403C197.966,197.247,198.042,197.396,198.17,197.49z"/>
</g>
</svg>
