<?xml version="1.0" encoding="utf-8"?>
<!-- Generator: Adobe Illustrator 15.1.0, SVG Export Plug-In . SVG Version: 6.00 Build 0)  -->
<!DOCTYPE svg PUBLIC "-//W3C//DTD SVG 1.1//EN" "http://www.w3.org/Graphics/SVG/1.1/DTD/svg11.dtd">
<svg version="1.1" id="Layer_1" xmlns="http://www.w3.org/2000/svg" xmlns:xlink="http://www.w3.org/1999/xlink" x="0px" y="0px"
	 width="283.465px" height="283.465px" viewBox="-108.601 -108.601 283.465 283.465"
	 enable-background="new -108.601 -108.601 283.465 283.465" xml:space="preserve">
<g>
	<g>
		<path d="M75.255-48.229c0.564-0.567,0.984-1.216,1.3-1.902c0.82-1.763,0.82-3.796,0-5.558c-0.315-0.686-0.735-1.338-1.3-1.902
			c-4.36-4.362-9.234-7.908-14.419-10.635c-8.646-4.544-18.178-6.815-27.705-6.815c-15.247,0-30.49,5.817-42.124,17.45
			c-2.585,2.584-2.585,6.776,0,9.362c2.582,2.581,6.779,2.581,9.36,0c-0.067,0.076,0.033-0.03,0.019-0.017
			c0.138-0.136,0.29-0.249,0.428-0.38c5.552-5.329,12.138-9.026,19.131-11.054c0.112-0.031,0.228-0.05,0.342-0.082
			c1.322-0.372,2.652-0.7,3.997-0.957c0.33-0.061,0.664-0.085,0.995-0.139c1.133-0.192,2.27-0.375,3.413-0.483
			c0.599-0.056,1.2-0.05,1.798-0.083c0.88-0.05,1.76-0.123,2.64-0.123c0.882,0,1.761,0.073,2.642,0.123
			c0.597,0.034,1.199,0.028,1.797,0.083c1.133,0.106,2.255,0.29,3.377,0.478c0.341,0.058,0.69,0.082,1.032,0.145
			c1.292,0.247,2.573,0.566,3.848,0.921c0.163,0.044,0.331,0.07,0.494,0.117c5.664,1.643,11.065,4.377,15.863,8.185
			c0.06,0.046,0.123,0.083,0.179,0.13c1.051,0.841,2.058,1.759,3.045,2.705c0.153,0.145,0.316,0.267,0.469,0.416
			c-0.011-0.009,0.086,0.091,0.019,0.017c1.289,1.291,2.986,1.937,4.68,1.937C72.269-46.292,73.962-46.939,75.255-48.229z"/>
		<path d="M-18.356-66.949c-0.03,0.042,0.06-0.056,0.026-0.024c0.275-0.27,0.576-0.493,0.851-0.756
			c10.482-9.997,23.285-16.312,36.712-18.857c0.108-0.021,0.219-0.026,0.327-0.046c2.188-0.406,4.386-0.725,6.596-0.931
			c0.795-0.074,1.594-0.065,2.389-0.113c1.53-0.093,3.057-0.214,4.587-0.214c1.531,0,3.057,0.122,4.587,0.214
			c0.795,0.048,1.594,0.039,2.389,0.113c2.184,0.204,4.36,0.523,6.525,0.921c0.13,0.024,0.268,0.031,0.398,0.056
			c11.197,2.125,21.962,6.875,31.314,14.18c0.237,0.188,0.494,0.34,0.732,0.53c1.151,0.923,2.231,1.963,3.339,2.966
			c0.721,0.655,1.481,1.251,2.18,1.943c-0.004-0.002,0.049,0.054,0.022,0.019c1.292,1.291,2.986,1.935,4.677,1.935
			c0.955,0,1.897-0.227,2.781-0.637c0.684-0.317,1.338-0.736,1.902-1.302c0.564-0.565,0.98-1.214,1.3-1.9
			c0.816-1.763,0.816-3.796,0-5.559c-0.319-0.685-0.735-1.335-1.3-1.899c-16.804-16.804-38.826-25.206-60.848-25.204
			c-22.021-0.002-44.044,8.399-60.847,25.204c-2.581,2.581-2.581,6.776,0,9.358C-25.131-64.37-20.941-64.368-18.356-66.949z"/>
		<path d="M158.049,115.657c-2.135-5.051-7.135-8.595-12.962-8.595h-0.004h-0.015h-12.855c-0.687-41.245-2.336-133.324-2.986-134.16
			c-0.004-0.024,0-0.046,0-0.07c-0.286-4.368-2.181-7.924-4.865-7.924c-2.686,0-4.558,3.558-4.862,7.924
			c0,0.021,0.004,0.039,0,0.059c-0.004,0.004-0.011,0.006-0.015,0.011c-0.654,0.831-2.292,92.913-2.982,134.16H-50.243
			c-0.687-41.247-2.325-133.33-2.979-134.16c-0.003-0.003-0.011-0.005-0.015-0.011c-0.004-0.02,0-0.039,0-0.059
			c-0.304-4.366-2.177-7.924-4.861-7.924c-2.686,0-4.581,3.556-4.866,7.924c0,0.024,0.004,0.046,0,0.07
			c-0.65,0.836-2.299,92.915-2.986,134.16h-12.855h-0.015h-0.004c-5.827,0-10.827,3.544-12.962,8.595
			c-0.713,1.683-1.107,3.537-1.107,5.479v3.335v25.862v0.019v3.316v0.034c0,7.774,6.299,14.073,14.073,14.073h0.015h223.875h0.015
			c7.773,0,14.073-6.299,14.073-14.073v-0.034v-3.316v-0.019v-25.862v-3.335C159.156,119.195,158.763,117.34,158.049,115.657z
			 M-77.587,156.667c-4.246,0-7.689-3.439-7.689-7.685c-0.003-4.245,3.437-7.689,7.682-7.689c0.004,0,0.008,0,0.011,0
			c4.242,0.004,7.677,3.444,7.681,7.682C-69.903,153.221-73.342,156.663-77.587,156.667z M-77.587,133.847
			c-4.246,0-7.689-3.439-7.689-7.685c-0.003-4.245,3.437-7.689,7.682-7.689c0.004,0,0.008,0,0.011,0
			c4.242,0.004,7.677,3.444,7.681,7.682C-69.903,130.401-73.342,133.843-77.587,133.847z M94.201,145.027h-122.14h-0.019h-0.015
			c-4.201,0-7.607-3.401-7.607-7.606c0-4.2,3.407-7.607,7.607-7.607h0.034h122.14c4.2,0,7.607,3.407,7.607,7.607
			C101.809,141.625,98.402,145.027,94.201,145.027z"/>
		<path d="M28.451-20.146c-2.582,2.582-2.582,6.777,0,9.362c2.581,2.582,6.778,2.582,9.36,0c2.581-2.585,2.581-6.78,0-9.362
			C35.23-22.729,31.032-22.729,28.451-20.146z"/>
		<path d="M49.073-28.206c0.879,0.409,1.826,0.637,2.777,0.637c1.698,0,3.392-0.646,4.685-1.937c2.581-2.585,2.581-6.78,0-9.366
			c-12.927-12.922-33.882-12.922-46.807,0c-2.582,2.586-2.582,6.781,0,9.366c1.292,1.291,2.985,1.937,4.683,1.935
			c1.694,0.002,3.387-0.645,4.68-1.935c0.962-0.94,2.006-1.763,3.105-2.466c3.294-2.115,7.117-3.172,10.934-3.172
			c5.093,0,10.185,1.879,14.04,5.638C47.736-28.941,48.386-28.523,49.073-28.206z"/>
	</g>
</g>
</svg>
