<?xml version="1.0" encoding="utf-8"?>
<!-- Generator: Adobe Illustrator 15.1.0, SVG Export Plug-In . SVG Version: 6.00 Build 0)  -->
<!DOCTYPE svg PUBLIC "-//W3C//DTD SVG 1.1//EN" "http://www.w3.org/Graphics/SVG/1.1/DTD/svg11.dtd">
<svg version="1.1" id="Layer_1" xmlns:serif="http://www.serif.com/"
	 xmlns="http://www.w3.org/2000/svg" xmlns:xlink="http://www.w3.org/1999/xlink" x="0px" y="0px" width="283.46px"
	 height="283.46px" viewBox="0 0 283.46 283.46" enable-background="new 0 0 283.46 283.46" xml:space="preserve">
<g id="wifi1" serif:id="wifi">
	<path d="M132.258,212.64c5.227-5.229,13.718-5.229,18.946,0c5.227,5.227,5.227,13.718,0,18.947c-5.229,5.227-13.72,5.227-18.946,0
		C127.03,226.358,127.03,217.867,132.258,212.64z M113.31,193.695c-5.227,5.227-13.717,5.227-18.946,0
		c-5.227-5.229-5.227-13.72,0-18.948c26.159-26.159,68.573-26.159,94.733,0l0,0c5.227,5.229,5.227,13.72,0,18.948
		c-5.229,5.227-13.721,5.227-18.947,0l0,0C154.544,178.484,128.914,178.484,113.31,193.695L113.31,193.695z M75.418,155.8
		L75.418,155.8c-5.227,5.229-13.718,5.229-18.946,0c-5.227-5.227-5.227-13.717,0-18.946l0,0c47.087-47.085,123.43-47.085,170.517,0
		l0,0c5.229,5.229,5.229,13.719,0,18.946c-5.229,5.229-13.72,5.229-18.946,0l0,0c-36.477-35.923-96.073-35.94-132.581-0.039
		L75.418,155.8C75.418,155.8,75.418,155.8,75.418,155.8z M75.462,155.761c0.059-0.059-0.188,0.201-0.043,0.039L75.462,155.761z
		 M37.526,117.909L37.526,117.909c-5.229,5.229-13.717,5.229-18.946,0c-5.229-5.227-5.229-13.717,0-18.946l0,0
		c68.015-68.013,178.286-68.013,246.3,0l0,0c5.229,5.229,5.229,13.72,0,18.946c-5.229,5.229-13.717,5.229-18.945,0
		c-57.338-56.487-150.978-56.509-208.356-0.05L37.526,117.909L37.526,117.909z M37.579,117.858l-0.052,0.05
		C37.304,118.172,37.718,117.723,37.579,117.858z"/>
</g>
</svg>
