<?xml version="1.0" encoding="utf-8"?>
<!-- Generator: Adobe Illustrator 15.1.0, SVG Export Plug-In . SVG Version: 6.00 Build 0)  -->
<!DOCTYPE svg PUBLIC "-//W3C//DTD SVG 1.1//EN" "http://www.w3.org/Graphics/SVG/1.1/DTD/svg11.dtd">
<svg version="1.1" id="Layer_1" xmlns="http://www.w3.org/2000/svg" xmlns:xlink="http://www.w3.org/1999/xlink" x="0px" y="0px"
	 width="283.465px" height="283.465px" viewBox="0 0 283.465 283.465" enable-background="new 0 0 283.465 283.465"
	 xml:space="preserve">
<g>
	<g>
		<path d="M183.854,60.373c0.564-0.567,0.984-1.216,1.301-1.902c0.819-1.763,0.819-3.796,0-5.558
			c-0.315-0.687-0.735-1.338-1.301-1.902c-4.359-4.362-9.233-7.908-14.419-10.635c-8.646-4.544-18.178-6.815-27.705-6.815
			c-15.247,0-30.489,5.817-42.124,17.45c-2.585,2.584-2.585,6.776,0,9.362c2.582,2.581,6.779,2.581,9.36,0
			c-0.067,0.076,0.033-0.03,0.02-0.018c0.138-0.136,0.289-0.249,0.428-0.38c5.552-5.329,12.138-9.025,19.131-11.054
			c0.112-0.031,0.228-0.05,0.342-0.082c1.322-0.372,2.652-0.7,3.997-0.957c0.33-0.061,0.664-0.085,0.995-0.139
			c1.133-0.192,2.27-0.375,3.413-0.483c0.599-0.056,1.2-0.05,1.798-0.083c0.88-0.05,1.76-0.123,2.64-0.123
			c0.883,0,1.762,0.073,2.643,0.123c0.597,0.034,1.199,0.028,1.797,0.083c1.133,0.106,2.255,0.29,3.377,0.479
			c0.341,0.058,0.689,0.082,1.032,0.145c1.292,0.247,2.572,0.566,3.848,0.921c0.163,0.044,0.331,0.07,0.494,0.117
			c5.664,1.643,11.064,4.377,15.863,8.185c0.06,0.047,0.123,0.083,0.179,0.131c1.051,0.841,2.058,1.759,3.045,2.704
			c0.153,0.146,0.316,0.268,0.469,0.416c-0.011-0.009,0.086,0.092,0.02,0.018c1.289,1.291,2.985,1.937,4.68,1.937
			C180.869,62.31,182.562,61.663,183.854,60.373z"/>
		<path d="M90.244,41.653c-0.03,0.042,0.06-0.057,0.025-0.024c0.275-0.271,0.576-0.493,0.852-0.756
			c10.481-9.997,23.285-16.313,36.712-18.857c0.107-0.021,0.219-0.025,0.327-0.046c2.188-0.406,4.386-0.725,6.596-0.931
			c0.795-0.074,1.594-0.065,2.389-0.113c1.53-0.093,3.058-0.214,4.587-0.214c1.531,0,3.058,0.122,4.587,0.214
			c0.796,0.048,1.595,0.039,2.39,0.113c2.184,0.204,4.359,0.522,6.524,0.921c0.131,0.023,0.269,0.031,0.398,0.056
			c11.197,2.125,21.962,6.875,31.314,14.181c0.236,0.188,0.493,0.34,0.731,0.529c1.151,0.923,2.231,1.963,3.339,2.966
			c0.722,0.655,1.481,1.251,2.181,1.943c-0.005-0.002,0.049,0.054,0.021,0.02c1.292,1.291,2.986,1.935,4.677,1.935
			c0.955,0,1.897-0.227,2.781-0.637c0.684-0.317,1.338-0.736,1.902-1.303c0.563-0.564,0.979-1.214,1.3-1.899
			c0.816-1.763,0.816-3.796,0-5.56c-0.319-0.685-0.735-1.335-1.3-1.898c-16.805-16.804-38.826-25.206-60.849-25.204
			c-22.021-0.002-44.044,8.399-60.847,25.204c-2.581,2.581-2.581,6.775,0,9.357C83.469,44.231,87.659,44.233,90.244,41.653z"/>
		<path d="M266.648,224.259c-2.135-5.051-7.135-8.595-12.962-8.595h-0.004h-0.015h-12.855c-0.687-41.245-2.336-133.324-2.985-134.16
			c-0.004-0.024,0-0.046,0-0.07c-0.286-4.368-2.182-7.924-4.865-7.924c-2.687,0-4.558,3.558-4.862,7.924c0,0.021,0.004,0.039,0,0.06
			c-0.004,0.004-0.011,0.006-0.015,0.011c-0.654,0.831-2.292,92.913-2.982,134.16H58.356c-0.687-41.247-2.324-133.33-2.979-134.16
			c-0.003-0.003-0.011-0.005-0.015-0.011c-0.005-0.021,0-0.039,0-0.06c-0.305-4.366-2.178-7.924-4.861-7.924
			c-2.687,0-4.581,3.556-4.866,7.924c0,0.024,0.004,0.046,0,0.07c-0.649,0.836-2.299,92.915-2.986,134.16H29.795H29.78h-0.005
			c-5.826,0-10.826,3.544-12.962,8.595c-0.713,1.683-1.106,3.537-1.106,5.479v3.335v25.861v0.019v3.316v0.034
			c0,7.774,6.299,14.073,14.073,14.073h0.015H253.67h0.015c7.772,0,14.073-6.299,14.073-14.073v-0.034v-3.316v-0.019v-25.861v-3.335
			C267.756,227.797,267.363,225.941,266.648,224.259z M31.013,265.269c-4.246,0-7.688-3.438-7.688-7.685
			c-0.003-4.246,3.437-7.689,7.682-7.689c0.004,0,0.008,0,0.011,0c4.242,0.004,7.678,3.443,7.682,7.682
			C38.697,261.822,35.258,265.265,31.013,265.269z M31.013,242.449c-4.246,0-7.688-3.439-7.688-7.686
			c-0.003-4.245,3.437-7.688,7.682-7.688c0.004,0,0.008,0,0.011,0c4.242,0.004,7.678,3.443,7.682,7.682
			C38.697,239.003,35.258,242.445,31.013,242.449z M202.801,253.629H80.661h-0.02h-0.015c-4.201,0-7.607-3.401-7.607-7.606
			c0-4.199,3.407-7.606,7.607-7.606h0.034h122.14c4.2,0,7.607,3.407,7.607,7.606C210.409,250.227,207.002,253.629,202.801,253.629z"
			/>
		<path d="M137.051,88.456c-2.582,2.582-2.582,6.776,0,9.361c2.581,2.582,6.778,2.582,9.36,0c2.581-2.585,2.581-6.779,0-9.361
			C143.83,85.873,139.632,85.873,137.051,88.456z"/>
		<path d="M157.673,80.396c0.879,0.409,1.826,0.638,2.777,0.638c1.697,0,3.392-0.646,4.685-1.938c2.581-2.585,2.581-6.78,0-9.366
			c-12.927-12.922-33.882-12.922-46.807,0c-2.582,2.586-2.582,6.781,0,9.366c1.292,1.291,2.984,1.938,4.683,1.936
			c1.694,0.002,3.387-0.646,4.68-1.936c0.963-0.939,2.007-1.763,3.105-2.466c3.294-2.115,7.117-3.172,10.934-3.172
			c5.094,0,10.186,1.879,14.04,5.638C156.336,79.661,156.986,80.079,157.673,80.396z"/>
	</g>
</g>
</svg>
