<?xml version="1.0" encoding="utf-8"?>
<!-- Generator: Adobe Illustrator 15.1.0, SVG Export Plug-In . SVG Version: 6.00 Build 0)  -->
<!DOCTYPE svg PUBLIC "-//W3C//DTD SVG 1.1//EN" "http://www.w3.org/Graphics/SVG/1.1/DTD/svg11.dtd">
<svg version="1.1" id="Layer_1" xmlns:serif="http://www.serif.com/"
	 xmlns="http://www.w3.org/2000/svg" xmlns:xlink="http://www.w3.org/1999/xlink" x="0px" y="0px" width="283.46px"
	 height="283.46px" viewBox="0 0 283.46 283.46" enable-background="new 0 0 283.46 283.46" xml:space="preserve">
<path d="M130.111,252.619c0.094,0.084,0.182,0.172,0.279,0.252c0.24,0.201,0.492,0.383,0.744,0.567
	c0.143,0.104,0.281,0.218,0.428,0.317c0.222,0.15,0.452,0.283,0.68,0.42c0.194,0.115,0.382,0.236,0.58,0.348
	c0.197,0.105,0.404,0.198,0.607,0.297c0.239,0.116,0.478,0.237,0.724,0.342c0.177,0.076,0.36,0.137,0.54,0.203
	c0.279,0.106,0.557,0.213,0.844,0.303c0.167,0.051,0.337,0.088,0.505,0.135c0.307,0.084,0.612,0.168,0.926,0.23
	c0.16,0.032,0.321,0.051,0.482,0.078c0.327,0.057,0.655,0.111,0.991,0.146c0.13,0.014,0.263,0.015,0.396,0.023
	c0.33,0.023,0.658,0.055,0.992,0.059c0.045,0,0.089-0.006,0.136-0.008c0.002,0.002,0.002,0,0.005,0.002
	c0.021-0.002,0.039-0.004,0.058-0.004c4.085-0.021,7.784-1.677,10.472-4.356c0.006-0.005,0.01-0.009,0.016-0.015
	c0.01-0.01,0.02-0.02,0.029-0.029l57.955-58.256c5.814-5.846,5.795-15.307-0.057-21.125c-5.84-5.819-15.286-5.795-21.104,0.023
	c-0.012,0.012-0.021,0.02-0.031,0.032l-32.143,32.308l0.699-89.204c0.067-8.25-6.572-14.992-14.826-15.055
	c-4.163-0.035-7.944,1.64-10.68,4.376c-2.672,2.672-4.343,6.365-4.37,10.446l-0.702,90.132l-27.37-27.37
	c-5.834-5.834-15.292-5.838-21.128-0.002c-5.841,5.843-5.835,15.296,0,21.13l52.594,52.596
	C129.616,252.192,129.866,252.404,130.111,252.619z"/>
</svg>
