<?xml version="1.0" encoding="utf-8"?>
<!-- Generator: Adobe Illustrator 15.1.0, SVG Export Plug-In . SVG Version: 6.00 Build 0)  -->
<!DOCTYPE svg PUBLIC "-//W3C//DTD SVG 1.1//EN" "http://www.w3.org/Graphics/SVG/1.1/DTD/svg11.dtd">
<svg version="1.1" id="Layer_1" xmlns:serif="http://www.serif.com/"
	 xmlns="http://www.w3.org/2000/svg" xmlns:xlink="http://www.w3.org/1999/xlink" x="0px" y="0px" width="283.46px"
	 height="283.46px" viewBox="0 0 283.46 283.46" enable-background="new 0 0 283.46 283.46" xml:space="preserve">
<path fill="none" stroke="#000000" stroke-width="4.17" stroke-linecap="round" stroke-linejoin="round" stroke-miterlimit="2.2561" d="
	M101.566,179.709c-12.985,0-24.585-5.978-32.194-15.327c-5.811-7.141-9.298-16.248-9.298-26.163
	c0-22.899,18.593-41.492,41.492-41.492c0-22.899,18.591-41.49,41.49-41.49c22.898,0,41.492,18.59,41.492,41.49h18.666
	c22.899,0,41.49,18.593,41.49,41.492c0,9.915-3.484,19.022-9.295,26.163c-7.612,9.35-19.211,15.327-32.195,15.327"/>
<g>
	<path fill="none" stroke="#010001" stroke-width="4.17" stroke-linecap="round" stroke-miterlimit="1.25" d="M76.25,212.597
		l48.315-32.999"/>
	<path fill="none" stroke="#010001" stroke-width="4.17" stroke-linecap="round" stroke-miterlimit="1.25" d="M106.092,212.597
		l48.313-32.999"/>
	<path fill="none" stroke="#010001" stroke-width="4.17" stroke-linecap="round" stroke-miterlimit="1.25" d="M135.969,212.597
		l48.314-32.999"/>
	<circle cx="92.715" cy="221.388" r="4.516"/>
</g>
<g>
	<circle cx="123.739" cy="221.388" r="4.516"/>
</g>
<g>
	<circle cx="62.917" cy="221.388" r="4.516"/>
</g>
</svg>
