<?xml version="1.0" encoding="utf-8"?>
<!-- Generator: Adobe Illustrator 15.1.0, SVG Export Plug-In . SVG Version: 6.00 Build 0)  -->
<!DOCTYPE svg PUBLIC "-//W3C//DTD SVG 1.1//EN" "http://www.w3.org/Graphics/SVG/1.1/DTD/svg11.dtd">
<svg version="1.1" id="Layer_1" xmlns:serif="http://www.serif.com/"
	 xmlns="http://www.w3.org/2000/svg" xmlns:xlink="http://www.w3.org/1999/xlink" x="0px" y="0px" width="283.46px"
	 height="283.46px" viewBox="0 0 283.46 283.46" enable-background="new 0 0 283.46 283.46" xml:space="preserve">
<g>
	<path d="M275.152,21.384c-0.008-0.125-0.007-0.25-0.019-0.375c-0.028-0.312-0.078-0.619-0.126-0.927
		c-0.026-0.176-0.045-0.353-0.078-0.528c-0.051-0.263-0.119-0.52-0.184-0.778c-0.054-0.219-0.101-0.438-0.164-0.655
		c-0.064-0.216-0.145-0.426-0.218-0.639c-0.087-0.252-0.17-0.506-0.271-0.754c-0.072-0.179-0.159-0.351-0.239-0.526
		c-0.122-0.272-0.243-0.544-0.383-0.81c-0.081-0.154-0.175-0.301-0.262-0.453c-0.158-0.275-0.314-0.551-0.491-0.817
		c-0.09-0.136-0.191-0.264-0.286-0.397c-0.192-0.271-0.384-0.542-0.597-0.804c-0.083-0.102-0.177-0.196-0.263-0.296
		c-0.216-0.25-0.426-0.505-0.661-0.744c-0.032-0.032-0.067-0.059-0.1-0.091c-0.001-0.001-0.002-0.002-0.003-0.004
		c-0.014-0.014-0.029-0.025-0.043-0.039c-2.904-2.872-6.69-4.318-10.485-4.323c-0.007,0-0.014-0.001-0.021-0.001
		c-0.014,0-0.028,0-0.043,0L178.04,7.636c-8.244,0.022-14.919,6.727-14.897,14.978c0.015,8.244,6.712,14.905,14.941,14.905
		c0.015,0,0.029,0,0.044,0l45.572-0.119l-63.57,62.583c-5.881,5.786-5.953,15.248-0.161,21.128
		c2.918,2.969,6.777,4.458,10.645,4.458c3.779,0,7.572-1.43,10.477-4.297l64.229-63.237v38.709c0,8.251,6.683,14.941,14.94,14.941
		c8.259,0,14.941-6.69,14.941-14.941V22.365C275.201,22.036,275.173,21.71,275.152,21.384z"/>
	<path d="M260.055,164.329c-0.015,0-0.029,0-0.044,0c-8.243,0.015-14.911,6.727-14.896,14.984l0.107,44.957l-64.133-63.151
		c-5.881-5.778-15.336-5.72-21.121,0.175c-5.792,5.865-5.72,15.335,0.161,21.128l65.076,64.075l-47.122-0.021
		c-8.244,0-14.941,6.683-14.941,14.94c0,8.244,6.683,14.941,14.941,14.941l82.176,0.029c3.969,0,7.777-1.576,10.579-4.392
		c2.802-2.802,4.377-6.61,4.362-10.594l-0.204-82.176C274.982,170.997,268.285,164.329,260.055,164.329z"/>
	<path d="M57.338,36.978h46.04c8.251,0,14.941-6.69,14.941-14.941c0-8.251-6.69-14.941-14.941-14.941H21.201
		c-8.251,0-14.941,6.69-14.941,14.941v0.441c0,0.002,0,0.003,0,0.005v74.26c0,8.251,6.69,14.941,14.941,14.941
		c8.251,0,14.941-6.69,14.941-14.941V58.041l64.222,63.229c2.911,2.867,6.697,4.297,10.484,4.297c3.859,0,7.726-1.488,10.644-4.458
		c5.792-5.88,5.72-15.342-0.161-21.128L57.338,36.978z"/>
	<path d="M100.284,160.885l-64.142,64.142V186.39c0-8.259-6.69-14.941-14.941-14.941c-8.251,0-14.941,6.683-14.941,14.941v75.056
		c0,3.969,1.576,7.777,4.385,10.579c2.801,2.786,6.595,4.362,10.556,4.362c0.007,0,0.015,0,0.022,0l82.177-0.116
		c8.251-0.015,14.934-6.712,14.919-14.956c-0.015-8.259-6.697-14.927-14.941-14.927c-0.007,0-0.015,0-0.022,0l-46.39,0.07
		l64.446-64.445c5.836-5.837,5.836-15.292,0-21.128C115.575,155.048,106.121,155.048,100.284,160.885z"/>
</g>
</svg>
