<?xml version="1.0" encoding="utf-8"?>
<!-- Generator: Adobe Illustrator 15.1.0, SVG Export Plug-In . SVG Version: 6.00 Build 0)  -->
<!DOCTYPE svg PUBLIC "-//W3C//DTD SVG 1.0//EN" "http://www.w3.org/TR/2001/REC-SVG-20010904/DTD/svg10.dtd">
<svg version="1.0" id="Layer_1" xmlns="http://www.w3.org/2000/svg" xmlns:xlink="http://www.w3.org/1999/xlink" x="0px" y="0px"
	 width="283.46px" height="283.46px" viewBox="0 0 283.46 283.46" enable-background="new 0 0 283.46 283.46" xml:space="preserve">
<g>
	<path d="M260.635,138.266L150.443,74.646c-1.236-0.715-2.762-0.715-4,0s-2,2.035-2,3.464V205.35c0,1.428,0.762,2.75,2,3.463
		c0.619,0.357,1.311,0.537,2,0.537c0.691,0,1.381-0.18,2-0.537l110.191-63.619c1.236-0.714,2-2.034,2-3.464
		C262.635,140.301,261.871,138.98,260.635,138.266z"/>
	<path d="M137.017,138.266L26.825,74.646c-1.237-0.715-2.763-0.715-4,0c-1.238,0.715-2,2.035-2,3.464V205.35
		c0,1.428,0.762,2.75,2,3.463c0.619,0.357,1.31,0.537,2,0.537s1.381-0.18,2-0.537l110.192-63.619c1.236-0.714,2-2.034,2-3.464
		C139.017,140.301,138.253,138.98,137.017,138.266z"/>
</g>
</svg>
