<?xml version="1.0" encoding="UTF-8" standalone="no"?><!DOCTYPE svg PUBLIC "-//W3C//DTD SVG 1.1//EN" "http://www.w3.org/Graphics/SVG/1.1/DTD/svg11.dtd"><svg width="100%" height="100%" viewBox="0 0 130 130" version="1.1" xmlns="http://www.w3.org/2000/svg" xmlns:xlink="http://www.w3.org/1999/xlink" xml:space="preserve" xmlns:serif="http://www.serif.com/" style="fill-rule:evenodd;clip-rule:evenodd;stroke-linecap:round;stroke-linejoin:round;stroke-miterlimit:2.2561;"><rect id="wind-rain" x="3.886" y="3.975" width="125" height="125" style="fill:none;"/><path d="M46.58,82.418c-5.955,0 -11.275,-2.741 -14.765,-7.029c-2.665,-3.275 -4.264,-7.452 -4.264,-11.999c0,-10.502 8.527,-19.029 19.029,-19.029c-0,-10.502 8.526,-19.028 19.028,-19.028c10.502,-0 19.029,8.526 19.029,19.028l8.561,0c10.502,0 19.028,8.527 19.028,19.029c0,4.547 -1.598,8.724 -4.263,11.999c-3.491,4.288 -8.81,7.029 -14.765,7.029" style="fill:none;stroke:#000;stroke-width:4.17px;"/><g><path d="M34.97,97.501l22.158,-15.134" style="fill:none;stroke:#010001;stroke-width:4.17px;stroke-linejoin:miter;stroke-miterlimit:1.25;"/><path d="M48.656,97.501l22.157,-15.134" style="fill:none;stroke:#010001;stroke-width:4.17px;stroke-linejoin:miter;stroke-miterlimit:1.25;"/><path d="M62.358,97.501l22.158,-15.134" style="fill:none;stroke:#010001;stroke-width:4.17px;stroke-linejoin:miter;stroke-miterlimit:1.25;"/><circle cx="42.521" cy="101.533" r="2.071"/></g><g><circle cx="56.749" cy="101.533" r="2.071"/></g><g><circle cx="28.855" cy="101.533" r="2.071"/></g></svg>