<?xml version="1.0" encoding="UTF-8" standalone="no"?><!DOCTYPE svg PUBLIC "-//W3C//DTD SVG 1.1//EN" "http://www.w3.org/Graphics/SVG/1.1/DTD/svg11.dtd"><svg width="100%" height="100%" viewBox="0 0 130 130" version="1.1" xmlns="http://www.w3.org/2000/svg" xmlns:xlink="http://www.w3.org/1999/xlink" xml:space="preserve" xmlns:serif="http://www.serif.com/" style="fill-rule:evenodd;clip-rule:evenodd;stroke-linecap:round;stroke-miterlimit:1.25;"><rect id="wind-beufort-11" x="4.134" y="0.466" width="125" height="125" style="fill:none;"/><g><g><path d="M42.085,54.301l49.415,-0" style="fill:none;stroke:#010001;stroke-width:4.17px;"/><path d="M91.5,54.301c12.879,-0 12.879,16.573 0,16.573" style="fill:none;stroke:#010001;stroke-width:4.17px;"/></g><g><path d="M32.109,46.13l49.416,0" style="fill:none;stroke:#010001;stroke-width:4.17px;"/><path d="M81.525,29.557c12.879,0 12.879,16.573 -0,16.573" style="fill:none;stroke:#010001;stroke-width:4.17px;"/></g></g><g><path d="M63.126,90.359l-0,5.679l-24.121,-0l-0,-5.679l9.446,-0l-0,-22.547l-9.446,2.98l-0,-5.96l12.257,-3.88l4.217,0l0,29.407l7.647,-0Z" style="fill-rule:nonzero;"/><path d="M89.447,90.359l0,5.679l-24.121,-0l-0,-5.679l9.446,-0l-0,-22.547l-9.446,2.98l-0,-5.96l12.257,-3.88l4.217,0l0,29.407l7.647,-0Z" style="fill-rule:nonzero;"/></g></svg>