<?xml version="1.0" encoding="utf-8"?>
<!-- Generator: Adobe Illustrator 15.1.0, SVG Export Plug-In . SVG Version: 6.00 Build 0)  -->
<!DOCTYPE svg PUBLIC "-//W3C//DTD SVG 1.1//EN" "http://www.w3.org/Graphics/SVG/1.1/DTD/svg11.dtd">
<svg version="1.1" id="Layer_1" xmlns:serif="http://www.serif.com/"
	 xmlns="http://www.w3.org/2000/svg" xmlns:xlink="http://www.w3.org/1999/xlink" x="0px" y="0px" width="283.46px"
	 height="283.46px" viewBox="0 0 283.46 283.46" enable-background="new 0 0 283.46 283.46" xml:space="preserve">
<g>
	<g>
		<path fill="none" stroke="#010001" stroke-width="4.17" stroke-linecap="round" stroke-miterlimit="1.25" d="M91.76,118.401
			h107.747"/>
		<path fill="none" stroke="#010001" stroke-width="4.17" stroke-linecap="round" stroke-miterlimit="1.25" d="M199.507,118.401
			c28.082,0,28.082,36.137,0,36.137"/>
	</g>
	<g>
		<path fill="none" stroke="#010001" stroke-width="4.17" stroke-linecap="round" stroke-miterlimit="1.25" d="M70.008,100.584
			h107.749"/>
		<path fill="none" stroke="#010001" stroke-width="4.17" stroke-linecap="round" stroke-miterlimit="1.25" d="M177.757,64.448
			c28.082,0,28.082,36.137,0,36.137"/>
	</g>
</g>
<g>
	<path d="M131.87,197.025v12.383H79.275v-12.383h20.597v-49.164l-20.597,6.498v-12.995l26.726-8.46h9.195v64.122H131.87z"/>
	<path d="M158.742,195.921h33.471v13.486h-54.926v-12.262l26.36-21.087c4.822-3.842,8.235-7.151,10.236-9.93
		c2.004-2.78,3.006-5.805,3.006-9.073c0-3.432-1.064-6.068-3.188-7.908c-2.126-1.838-5.149-2.758-9.073-2.758
		c-5.147,0-8.684,1.083-10.605,3.248c-1.918,2.166-2.881,5.253-2.881,9.256v1.229h-15.324v-1.719c0-8.663,2.492-15.202,7.479-19.615
		c4.985-4.413,12.383-6.62,22.19-6.62c8.336,0,15.039,2.085,20.106,6.251c5.067,4.169,7.601,10.013,7.601,17.533
		c0,5.395-1.449,10.154-4.352,14.283c-2.902,4.127-7.377,8.479-13.426,13.056L158.742,195.921L158.742,195.921z"/>
</g>
</svg>
