<?xml version="1.0" encoding="utf-8"?>
<!-- Generator: Adobe Illustrator 15.1.0, SVG Export Plug-In . SVG Version: 6.00 Build 0)  -->
<!DOCTYPE svg PUBLIC "-//W3C//DTD SVG 1.1//EN" "http://www.w3.org/Graphics/SVG/1.1/DTD/svg11.dtd">
<svg version="1.1" id="Layer_1" xmlns:serif="http://www.serif.com/"
	 xmlns="http://www.w3.org/2000/svg" xmlns:xlink="http://www.w3.org/1999/xlink" x="0px" y="0px" width="283.46px"
	 height="283.46px" viewBox="0 0 283.46 283.46" enable-background="new 0 0 283.46 283.46" xml:space="preserve">
<g>
	<g>
		<g>
			<path fill="none" stroke="#010001" stroke-width="4.17" stroke-linecap="round" stroke-miterlimit="1.25" d="M88.201,122.836
				h107.747"/>
			<path fill="none" stroke="#010001" stroke-width="4.17" stroke-linecap="round" stroke-miterlimit="1.25" d="M195.948,122.836
				c28.082,0,28.082,36.138,0,36.138"/>
		</g>
		<g>
			<path fill="none" stroke="#010001" stroke-width="4.17" stroke-linecap="round" stroke-miterlimit="1.25" d="M66.451,105.022
				h107.747"/>
			<path fill="none" stroke="#010001" stroke-width="4.17" stroke-linecap="round" stroke-miterlimit="1.25" d="M174.198,68.883
				c28.082,0,28.082,36.139,0,36.139"/>
		</g>
	</g>
	<path d="M158.772,173.505c8.01,3.926,12.014,9.85,12.014,17.777c0,7.357-2.656,13.08-7.967,17.166
		c-5.314,4.086-12.793,6.129-22.438,6.129c-9.644,0-17.123-2.021-22.435-6.068c-5.313-4.045-7.97-9.705-7.97-16.979
		c0-8.092,3.964-14.061,11.893-17.9c-3.024-1.471-5.436-3.617-7.235-6.438c-1.796-2.82-2.696-5.945-2.696-9.379
		c0-6.539,2.555-11.707,7.664-15.508c5.106-3.803,12.034-5.702,20.779-5.702c8.746,0,15.674,1.899,20.782,5.702
		c5.106,3.801,7.662,8.969,7.662,15.508c0,3.434-0.921,6.559-2.759,9.379C164.227,170.013,161.795,172.117,158.772,173.505
		L158.772,173.505z M140.381,149.599c-4.249,0-7.498,0.777-9.746,2.33c-2.248,1.555-3.371,3.799-3.371,6.744
		c0,3.023,1.145,5.291,3.432,6.803c2.29,1.514,5.6,2.27,9.932,2.27c4.167,0,7.355-0.777,9.562-2.33s3.31-3.801,3.31-6.742
		c0-2.945-1.123-5.189-3.371-6.744C147.879,150.376,144.631,149.599,140.381,149.599z M140.381,201.582
		c4.576,0,8.152-0.959,10.729-2.881c2.574-1.92,3.861-4.516,3.861-7.783c0-3.188-1.268-5.703-3.801-7.541
		c-2.533-1.84-6.049-2.76-10.543-2.76c-4.659,0-8.296,0.92-10.913,2.76c-2.614,1.838-3.922,4.354-3.922,7.541
		c0,3.268,1.286,5.863,3.861,7.783C132.229,200.623,135.805,201.582,140.381,201.582L140.381,201.582z"/>
</g>
</svg>
