<?xml version="1.0" encoding="utf-8"?>
<!-- Generator: Adobe Illustrator 15.1.0, SVG Export Plug-In . SVG Version: 6.00 Build 0)  -->
<!DOCTYPE svg PUBLIC "-//W3C//DTD SVG 1.1//EN" "http://www.w3.org/Graphics/SVG/1.1/DTD/svg11.dtd">
<svg version="1.1" id="Layer_1" xmlns:serif="http://www.serif.com/"
	 xmlns="http://www.w3.org/2000/svg" xmlns:xlink="http://www.w3.org/1999/xlink" x="0px" y="0px" width="283.46px"
	 height="283.46px" viewBox="0 0 283.46 283.46" enable-background="new 0 0 283.46 283.46" xml:space="preserve">
<g>
	<g>
		<g>
			<path fill="none" stroke="#010001" stroke-width="4.17" stroke-linecap="round" stroke-miterlimit="1.25" d="M88.2,122.836
				h107.751"/>
			<path fill="none" stroke="#010001" stroke-width="4.17" stroke-linecap="round" stroke-miterlimit="1.25" d="M195.951,122.836
				c28.08,0,28.08,36.138,0,36.138"/>
		</g>
		<g>
			<path fill="none" stroke="#010001" stroke-width="4.17" stroke-linecap="round" stroke-miterlimit="1.25" d="M66.45,105.022
				h107.748"/>
			<path fill="none" stroke="#010001" stroke-width="4.17" stroke-linecap="round" stroke-miterlimit="1.25" d="M174.198,68.883
				c28.082,0,28.082,36.139,0,36.139"/>
		</g>
	</g>
	<path d="M141.73,214.578c-10.217,0-17.818-2.492-22.805-7.477c-4.984-4.988-7.478-12.383-7.478-22.191v-18.268
		c0-9.809,2.534-17.268,7.602-22.376c5.067-5.109,12.627-7.662,22.681-7.662c10.299,0,17.92,2.473,22.865,7.418
		c4.945,4.944,7.418,12.36,7.418,22.251v18.268c0,9.809-2.533,17.266-7.602,22.375C159.344,212.023,151.783,214.578,141.73,214.578z
		 M141.73,200.357c3.76,0,6.723-0.553,8.889-1.656c2.165-1.104,3.72-2.963,4.659-5.578c0.94-2.615,1.409-6.252,1.409-10.91V168.97
		c0-4.66-0.469-8.297-1.409-10.91c-0.939-2.617-2.494-4.475-4.659-5.58c-2.166-1.104-5.129-1.654-8.888-1.654
		c-3.843,0-6.825,0.551-8.951,1.654c-2.126,1.105-3.656,2.963-4.597,5.58c-0.941,2.613-1.41,6.25-1.41,10.91v13.242
		c0,4.658,0.469,8.295,1.41,10.91c0.94,2.615,2.471,4.475,4.597,5.578S137.888,200.357,141.73,200.357z"/>
</g>
</svg>
