<?xml version="1.0" encoding="utf-8"?>
<!-- Generator: Adobe Illustrator 15.1.0, SVG Export Plug-In . SVG Version: 6.00 Build 0)  -->
<!DOCTYPE svg PUBLIC "-//W3C//DTD SVG 1.1//EN" "http://www.w3.org/Graphics/SVG/1.1/DTD/svg11.dtd">
<svg version="1.1" id="Layer_1" xmlns:serif="http://www.serif.com/"
	 xmlns="http://www.w3.org/2000/svg" xmlns:xlink="http://www.w3.org/1999/xlink" x="0px" y="0px" width="283.46px"
	 height="283.46px" viewBox="0 0 283.46 283.46" enable-background="new 0 0 283.46 283.46" xml:space="preserve">
<g>
	<g>
		<path fill="none" stroke="#010001" stroke-width="4.17" stroke-linecap="round" stroke-miterlimit="1.25" d="M88.2,118.401
			h107.749"/>
		<path fill="none" stroke="#010001" stroke-width="4.17" stroke-linecap="round" stroke-miterlimit="1.25" d="M195.949,118.401
			c28.082,0,28.082,36.137,0,36.137"/>
	</g>
	<g>
		<path fill="none" stroke="#010001" stroke-width="4.17" stroke-linecap="round" stroke-miterlimit="1.25" d="M66.45,100.584
			h107.749"/>
		<path fill="none" stroke="#010001" stroke-width="4.17" stroke-linecap="round" stroke-miterlimit="1.25" d="M174.199,64.448
			c28.08,0,28.08,36.137,0,36.137"/>
	</g>
</g>
<g>
	<path d="M128.61,197.025v12.383H76.013v-12.383H96.61v-49.164l-20.597,6.498v-12.995l26.728-8.46h9.195v64.122H128.61z"/>
	<path d="M158.738,210.142c-10.216,0-17.817-2.492-22.804-7.479c-4.984-4.985-7.479-12.383-7.479-22.191v-18.268
		c0-9.808,2.534-17.266,7.601-22.374s12.628-7.662,22.681-7.662c10.299,0,17.921,2.473,22.866,7.418
		c4.945,4.943,7.416,12.361,7.416,22.252v18.268c0,9.808-2.534,17.265-7.601,22.374
		C176.351,207.588,168.792,210.142,158.738,210.142z M158.738,195.921c3.762,0,6.723-0.553,8.89-1.655
		c2.165-1.104,3.718-2.964,4.657-5.58c0.941-2.614,1.411-6.251,1.411-10.911v-13.239c0-4.659-0.47-8.297-1.411-10.911
		c-0.939-2.617-2.492-4.477-4.657-5.58c-2.167-1.104-5.128-1.654-8.89-1.654c-3.84,0-6.825,0.551-8.949,1.654
		c-2.125,1.104-3.658,2.963-4.598,5.58c-0.94,2.614-1.409,6.252-1.409,10.911v13.239c0,4.66,0.469,8.297,1.409,10.911
		c0.939,2.616,2.473,4.477,4.598,5.58C151.913,195.369,154.898,195.921,158.738,195.921z"/>
</g>
</svg>
