<?xml version="1.0" encoding="utf-8"?>
<!-- Generator: Adobe Illustrator 15.1.0, SVG Export Plug-In . SVG Version: 6.00 Build 0)  -->
<!DOCTYPE svg PUBLIC "-//W3C//DTD SVG 1.1//EN" "http://www.w3.org/Graphics/SVG/1.1/DTD/svg11.dtd">
<svg version="1.1" id="Layer_1" xmlns:serif="http://www.serif.com/"
	 xmlns="http://www.w3.org/2000/svg" xmlns:xlink="http://www.w3.org/1999/xlink" x="0px" y="0px" width="283.46px"
	 height="283.46px" viewBox="0 0 283.46 283.46" enable-background="new 0 0 283.46 283.46" xml:space="preserve">
<g>
	<g>
		<g>
			<path fill="none" stroke="#010001" stroke-width="4.17" stroke-linecap="round" stroke-miterlimit="1.25" d="M88.202,122.837
				H195.95"/>
			<path fill="none" stroke="#010001" stroke-width="4.17" stroke-linecap="round" stroke-miterlimit="1.25" d="M195.95,122.837
				c28.081,0,28.081,36.137,0,36.137"/>
		</g>
		<g>
			<path fill="none" stroke="#010001" stroke-width="4.17" stroke-linecap="round" stroke-miterlimit="1.25" d="M66.45,105.022
				H174.2"/>
			<path fill="none" stroke="#010001" stroke-width="4.17" stroke-linecap="round" stroke-miterlimit="1.25" d="M174.2,68.883
				c28.082,0,28.082,36.139,0,36.139"/>
		</g>
	</g>
	<path d="M137.808,163.945c10.706,0,18.698,1.941,23.967,5.822c5.273,3.883,7.909,10.074,7.909,18.574
		c0,8.174-2.616,14.59-7.848,19.248c-5.231,4.66-12.381,6.988-21.454,6.988c-9.236,0-16.469-2.104-21.699-6.313
		c-5.231-4.211-7.848-10.4-7.848-18.576h15.449c0,3.762,1.225,6.623,3.676,8.582c2.453,1.963,6.009,2.945,10.666,2.945
		c4.414,0,7.704-1.064,9.869-3.189c2.168-2.125,3.249-5.15,3.249-9.072c0-4.332-1.47-7.377-4.413-9.133
		c-2.941-1.758-7.805-2.637-14.589-2.637h-21.578v-39.846h49.531v13.243h-34.082v13.363H137.808L137.808,163.945z"/>
</g>
</svg>
