<?xml version="1.0" encoding="utf-8"?>
<!-- Generator: Adobe Illustrator 15.1.0, SVG Export Plug-In . SVG Version: 6.00 Build 0)  -->
<!DOCTYPE svg PUBLIC "-//W3C//DTD SVG 1.1//EN" "http://www.w3.org/Graphics/SVG/1.1/DTD/svg11.dtd">
<svg version="1.1" id="Layer_1" xmlns:serif="http://www.serif.com/"
	 xmlns="http://www.w3.org/2000/svg" xmlns:xlink="http://www.w3.org/1999/xlink" x="0px" y="0px" width="283.46px"
	 height="283.46px" viewBox="0 0 283.46 283.46" enable-background="new 0 0 283.46 283.46" xml:space="preserve">
<g>
	<g>
		<g>
			<path fill="none" stroke="#010001" stroke-width="4.17" stroke-linecap="round" stroke-miterlimit="1.25" d="M88.202,123.204
				h107.747"/>
			<path fill="none" stroke="#010001" stroke-width="4.17" stroke-linecap="round" stroke-miterlimit="1.25" d="M195.949,123.204
				c28.083,0,28.083,36.137,0,36.137"/>
		</g>
		<g>
			<path fill="none" stroke="#010001" stroke-width="4.17" stroke-linecap="round" stroke-miterlimit="1.25" d="M66.449,105.39
				h107.75"/>
			<path fill="none" stroke="#010001" stroke-width="4.17" stroke-linecap="round" stroke-miterlimit="1.25" d="M174.199,69.251
				c28.082,0,28.082,36.139,0,36.139"/>
		</g>
	</g>
	<path d="M132.535,200.724h33.47v13.485h-54.923v-12.26l26.357-21.088c4.824-3.84,8.236-7.151,10.238-9.93
		c2.004-2.779,3.004-5.802,3.004-9.072c0-3.433-1.062-6.068-3.188-7.906c-2.126-1.841-5.148-2.761-9.073-2.761
		c-5.148,0-8.683,1.083-10.604,3.249c-1.921,2.167-2.882,5.252-2.882,9.258v1.226h-15.324v-1.716c0-8.666,2.492-15.203,7.479-19.618
		c4.984-4.413,12.383-6.62,22.19-6.62c8.336,0,15.038,2.084,20.106,6.253c5.066,4.167,7.601,10.013,7.601,17.531
		c0,5.395-1.45,10.156-4.353,14.284s-7.376,8.479-13.425,13.057L132.535,200.724L132.535,200.724z"/>
</g>
</svg>
