<?xml version="1.0" encoding="utf-8"?>
<!-- Generator: Adobe Illustrator 15.1.0, SVG Export Plug-In . SVG Version: 6.00 Build 0)  -->
<!DOCTYPE svg PUBLIC "-//W3C//DTD SVG 1.1//EN" "http://www.w3.org/Graphics/SVG/1.1/DTD/svg11.dtd">
<svg version="1.1" id="Layer_2" xmlns="http://www.w3.org/2000/svg" xmlns:xlink="http://www.w3.org/1999/xlink" x="0px" y="0px"
	 width="283.465px" height="283.465px" viewBox="0 0 283.465 283.465" enable-background="new 0 0 283.465 283.465"
	 xml:space="preserve">
<g>
	<path fill="none" d="M259.613,82.784c-0.313-0.48-0.604-0.966-0.901-1.452C258.678,81.311,258.886,81.664,259.613,82.784z"/>
	<path fill="none" d="M12.262,180.293c0.038,0.219,0.074,0.419,0.111,0.624c0.006,0.018,0.011,0.032,0.016,0.049
		C12.455,180.691,12.413,180.467,12.262,180.293z"/>
	<path fill="none" d="M245.373,60.167l-0.148-0.139l0.599,0.744l-0.297-0.299l1.041,1.334c-0.939-1.106-1.982-2.098-3.126-2.975
		l0.447,0.45c-0.389-0.238-0.703-0.611-0.896-1.042h0.146l-1.189-0.897c0.112,0.528,0.313,1.025,0.595,1.488l-0.446-0.591
		l0.298,0.591c-0.464-0.498-0.86-1.046-1.189-1.641l-0.148,0.309l-1.341-1.489c0.738,2.116,2.087,3.917,3.277,5.801l-1.34-1.78
		l0.297,0.744c-0.704-1.09-1.531-2.145-2.679-2.687c1.403,2.335,3.256,6.083,5.205,7.737v-0.884l1.34,1.04
		c-0.87-1.276-1.595-2.619-1.635-4.173c1.521,2.556,3.123,5.267,5.109,7.597c-0.073-0.233-0.041-0.436,0.1-0.608
		c2.269,1.552,3.586,3.042,4.751,5.447c-0.132-0.381-0.191-0.776-0.134-1.118l0.743,1.333l-0.298-0.744
		c1.347,2.529,2.716,5.1,4.258,7.617c0.057,0.037,0.775,1.106,0.901,1.452c-3.209-8.789-9.539-17.173-15.415-24.404
		C244.614,58.981,245.012,59.578,245.373,60.167z"/>
	<path fill="none" d="M239.274,145.896c0.011,0.013,0.016,0.019,0.024,0.029c0.068,0.083,0.087,0.104,0.09,0.108
		c0.014,0.017,0.011,0.014,0,0.001c0,0-0.022-0.027-0.054-0.065c-0.013-0.016-0.025-0.03-0.036-0.044
		C239.29,145.915,239.285,145.909,239.274,145.896c0.282,0.341,0.497,0.644,0.653,0.91c-0.086-0.461-0.158-0.918-0.209-1.363
		L239.274,145.896z"/>
	<path fill="none" d="M10.228,164.333c0.145,0.145,0.311,0.268,0.526,0.338l-0.264-0.606L10.228,164.333z"/>
	<polygon fill="none" points="273.812,152.461 273.812,152.458 273.735,152.618 	"/>
	<path fill="none" d="M11.97,179.243c0.042,0.26,0.083,0.495,0.127,0.746c0.006,0.021,0.011,0.04,0.017,0.06
		C12.219,179.697,12.171,179.431,11.97,179.243z"/>
	<path fill="none" d="M36.021,57.493C35.745,57.884,35.705,57.887,36.021,57.493c-0.315,0.394-0.637,0.782-0.949,1.179
		C35.613,58.709,35.93,58.316,36.021,57.493z"/>
	<polygon fill="none" points="273.667,153.643 273.685,153.499 273.666,153.646 	"/>
	<path fill="none" d="M239.33,145.963c-0.011-0.013-0.022-0.026-0.031-0.037s-0.014-0.017-0.024-0.029c0,0,0.011,0.014,0.024,0.029
		C239.311,145.939,239.32,145.952,239.33,145.963z"/>
	<path fill="none" d="M217.19,33.879c-0.805-0.508-1.722-0.919-2.557-1.372c3.176,1.722,4.934,2.765,0,0
		c1.063,0.596,1.853,1.038,2.417,1.354c0.347,0.194,0.604,0.339,0.775,0.435c0.058,0.032,0.105,0.06,0.145,0.081
		c0.152,0.085,0.153,0.086,0,0c-0.038-0.021-0.087-0.048-0.145-0.081c-0.175-0.098-0.434-0.243-0.775-0.435
		c-0.582-0.326-1.393-0.78-2.417-1.354c4.934,2.765,10.688,6.88,16.037,11.488c-4.483-4.513-9.677-8.289-15.353-11.162
		C215.937,33.176,216.591,33.501,217.19,33.879z"/>
	<path fill="none" d="M142.981,91.356C142.986,91.118,142.983,91.258,142.981,91.356L142.981,91.356z"/>
	<path fill="none" d="M105.409,92.982c-0.018-0.016-0.04-0.035-0.056-0.049C105.41,92.984,105.424,92.996,105.409,92.982z"/>
	<path fill="none" d="M18.385,196.521C19.877,200.056,18.385,196.477,18.385,196.521L18.385,196.521z"/>
	<path fill="none" d="M133.192,8.082c0.049-0.007,0.092-0.013,0.13-0.018C133.284,8.069,133.242,8.075,133.192,8.082
		c-0.048,0.007-0.077,0.011-0.08,0.011C133.115,8.093,133.145,8.088,133.192,8.082c-0.292,0.042-0.583,0.083-0.875,0.125
		c0.005-0.001,0.012-0.001,0.018-0.002C132.744,8.146,133.017,8.106,133.192,8.082z"/>
	<path fill="none" d="M22.998,205.988c-0.139-0.242-0.298-0.521-0.298-0.521c0.079,0.139,0.158,0.276,0.238,0.415
		C22.932,205.874,22.94,205.889,22.998,205.988z"/>
	<path fill="none" d="M105.588,93.142c0.021,0.018,0.042,0.036,0.062,0.055c0.002,0.001,0.004,0.003,0.006,0.005
		c-0.017-0.016-0.031-0.027-0.033-0.029c0.002,0.002,0.016,0.014,0.033,0.029c0.088,0.078,0.186,0.164,0.283,0.25
		c-0.097-0.086-0.215-0.191-0.327-0.29c-0.018-0.016-0.037-0.033-0.054-0.048C105.563,93.119,105.568,93.124,105.588,93.142z"/>
	<path fill="none" d="M137.477,7.921l-0.904,0.138c0,0,0.157-0.023,0.286-0.042c0.039-0.006,0.055-0.008,0.079-0.012
		c0.086-0.013,0.11-0.016,0,0c-0.004,0-0.009,0.001-0.014,0.002c0.004,0,0.01-0.001,0.014-0.002
		c0.055-0.008,0.077-0.011,0.074-0.011c0.003,0-0.019,0.002-0.074,0.011c-0.007,0.001-0.021,0.003-0.029,0.004
		c-0.133,0.02-0.335,0.049-0.335,0.049c1.01-0.149,2.012-0.209,3.011-0.229c-0.801-0.026-1.6-0.052-2.405-0.07L137.477,7.921z"/>
	<path fill="none" d="M142.979,91.422c0.001-0.027,0.001-0.041,0.001-0.061C142.98,91.396,142.979,91.422,142.979,91.422z"/>
	<path fill="none" d="M29.097,214.98c0.313,0.382,0.629,0.758,0.944,1.138C29.736,215.714,29.43,215.315,29.097,214.98z"/>
	<path fill="none" d="M22.957,205.917c0.012,0.021,0.023,0.04,0.041,0.071c-0.021-0.035-0.041-0.07-0.061-0.105
		C22.94,205.888,22.946,205.897,22.957,205.917z"/>
	<path fill="none" d="M77.794,48.073c-0.023,0.047-0.045,0.092-0.065,0.135C77.751,48.161,77.774,48.114,77.794,48.073z"/>
	<path fill="none" d="M99.651,22.539C99.624,22.551,99.592,22.565,99.651,22.539L99.651,22.539z"/>
	<path fill="none" d="M99.669,22.53c-0.643,0.156-1.412,0.376-2.096,0.569C98.303,23.02,99.002,22.831,99.669,22.53z"/>
	<path fill="none" d="M56.403,37.224C56.532,37.162,56.5,37.177,56.403,37.224L56.403,37.224z"/>
	<path fill="none" d="M111.153,30.368c-0.005-0.001-0.009-0.001-0.014-0.002C111.144,30.366,111.148,30.367,111.153,30.368z"/>
	<path fill="none" d="M106.504,93.952c0.004,0.003,0.007,0.006,0.011,0.01C106.511,93.958,106.509,93.956,106.504,93.952
		c-0.121-0.107-0.271-0.24-0.439-0.389C106.215,93.696,106.365,93.829,106.504,93.952z"/>
	<path fill="none" d="M56.141,37.396h-0.093c1.016-0.492,1.887-1.202,2.608-2.133c-0.185,0.153-0.5,0.401-0.821,0.652
		c0.275-0.215,0.545-0.438,0.821-0.652c-1.9,1.468-6.802,5.434-11.169,9.646C50.32,42.345,53.204,39.84,56.141,37.396z"/>
	<path fill="none" d="M275.882,143.11c0.107-0.497,0.214-0.995,0.321-1.492C275.933,142.872,275.857,143.22,275.882,143.11z"/>
	<path fill="none" d="M56.244,37.301c-0.03,0.015-0.057,0.028-0.083,0.041C56.189,37.327,56.219,37.313,56.244,37.301z"/>
	<polygon fill="none" points="105.659,93.204 105.658,93.204 105.656,93.202 	"/>
	<path fill="none" d="M111.362,30.401C111.421,30.41,111.411,30.409,111.362,30.401L111.362,30.401z"/>
	<path fill="none" d="M11.679,178.202c0.043,0.259,0.083,0.493,0.125,0.742c0.005,0.019,0.011,0.038,0.016,0.058
		C11.94,178.639,11.893,178.371,11.679,178.202z"/>
	<path fill="none" d="M114.089,30.543C114.089,30.543,114.172,30.703,114.089,30.543L114.089,30.543z"/>
	<path fill="none" d="M108.585,30.091h0.341c0.018-0.066,0.057-0.1,0.118-0.099C108.891,30.025,108.738,30.058,108.585,30.091z"/>
	<path fill="none" d="M78.005,47.636C78.01,47.626,78.011,47.625,78.005,47.636L78.005,47.636z"/>
	<path fill="none" d="M23.005,205.747v0.145l0.163,0.285C23.102,206.03,23.041,205.886,23.005,205.747z"/>
	<path fill="none" d="M77.936,47.778c-0.037,0.077-0.083,0.172-0.128,0.266C77.862,47.932,77.906,47.842,77.936,47.778z"/>
	<path fill="none" d="M7.373,126.712l-0.032,0.027v0.001C7.352,126.732,7.361,126.721,7.373,126.712z"/>
	<path fill="none" d="M107.204,30.256c-0.106,0.004-0.185,0.007-0.232,0.008c-0.028,0.001-0.035,0.001-0.048,0.001
		c0.015,0,0.026,0,0.048-0.001C107.019,30.263,107.097,30.26,107.204,30.256c0.013,0,0.025,0,0.038-0.001
		C107.229,30.255,107.218,30.255,107.204,30.256z"/>
	<path fill="none" d="M107.243,30.255c0.008,0,0.016-0.001,0.024-0.001c0.044-0.001,0.069-0.002,0.123-0.004
		c0,0-0.054,0.002-0.123,0.004C107.258,30.254,107.251,30.254,107.243,30.255z"/>
	<path fill="none" d="M245.205,224.984c-0.946,1.187-1.912,2.354-2.896,3.507c-0.324,0.396-0.648,0.785-0.973,1.164
		c2.58-2.874,4.154-4.627,5.012-5.58c0.387-0.46,0.764-0.929,1.145-1.395C246.697,223.369,245.938,224.148,245.205,224.984z"/>
	<path fill="none" d="M28.213,214.389c-0.294-0.401-0.589-0.802-0.884-1.203c0.035,0.047,0.069,0.095,0.104,0.142
		c0.002,0.006-0.006-0.001-0.024-0.025c0.019,0.024,0.159,0.233,0,0c0.129,0.189,0.06,0.098-0.023-0.027
		c-0.011-0.017-0.029-0.044-0.057-0.089c0.109,0.178,0.215,0.358,0.324,0.536c-0.003-0.008-0.01-0.021-0.014-0.031
		C27.82,213.932,28.011,214.163,28.213,214.389z"/>
	<path fill="none" d="M176.743,55.111c2.403,2.267,4.308,5.419,3.875,7.276c0,0,0.007-0.03,0.017-0.071
		c0.004-0.016,0.007-0.03,0.011-0.046c0.004-0.018,0.008-0.034,0.013-0.054c-0.003,0.011-0.004,0.014-0.002,0.006
		c-0.031,0.139,0-0.022,0,0c0.001-0.005,0.003-0.013,0.005-0.02c0.001-0.005,0.002-0.01,0.004-0.015
		c0.028-0.124,0.054-0.232,0.073-0.315c0.004-0.019,0.008-0.036,0.012-0.053c0.009-0.036,0.018-0.074,0.023-0.101
		c0.018-0.076,0.027-0.116,0.032-0.135c0.001-0.003,0.001-0.007,0.002-0.009c0.003-0.013,0.003-0.012,0,0
		c0,0.001-0.001,0.005-0.002,0.007c0.001-0.002,0.002-0.006,0.002-0.007c0,0.001-0.002,0.008-0.002,0.01
		c-0.007,0.025-0.018,0.072-0.032,0.134c-0.006,0.029-0.015,0.065-0.023,0.104c-0.004,0.018-0.007,0.03-0.012,0.05
		c-0.025,0.106-0.052,0.22-0.073,0.315c-0.004,0.016-0.005,0.021-0.007,0.028c-0.004,0.018-0.009,0.036-0.013,0.055
		c-0.003,0.014-0.007,0.029-0.01,0.041c0.003-0.014,0.006-0.024,0.01-0.041c-0.01,0.04-0.017,0.072-0.027,0.117l2.533-0.59
		C182.758,57.722,180.62,55.494,176.743,55.111z M180.789,61.657c-0.017,0.07-0.048,0.208-0.089,0.383
		C180.732,61.9,180.767,61.751,180.789,61.657C180.82,61.524,180.813,61.553,180.789,61.657z"/>
	<path fill="none" d="M184.342,57.039c-0.777-0.005-1.539-0.058-2.284-0.155C182.765,57.192,183.532,57.264,184.342,57.039z"/>
	<path fill="none" d="M28.28,214.684l-0.099-0.135c0.05,0.08,0.103,0.16,0.154,0.24c-0.041-0.076-0.079-0.152-0.113-0.229
		L28.28,214.684z"/>
	<path fill="none" d="M28.181,214.549c0.006,0.01,0.007,0.011,0.01,0.016C28.186,214.557,28.181,214.549,28.181,214.549z"/>
	<path fill="none" d="M23.005,205.892l-0.015-0.025c0.005,0.027,0.017,0.055,0.015,0.086l-0.306-0.484
		c0.171,0.268,0.339,0.535,0.504,0.806C23.129,206.142,23.059,206.007,23.005,205.892z"/>
	<path fill="none" d="M36.698,66.561C36.698,66.561,36.945,66.313,36.698,66.561l1.039-0.292c-0.1-0.15-0.2-0.299-0.299-0.449
		C37.191,66.066,36.944,66.314,36.698,66.561z"/>
	<path fill="none" d="M213.158,30.63c-0.078-0.029-0.157-0.059-0.235-0.087c0.686,0.254,1.341,0.553,1.979,0.877
		c-10.917-7.485-20.593-10.636-32.986-14.211l0.389,0.229c-0.569,0.025-1.132-0.022-1.69-0.141c2.829,1.22,5.661,2.173,8.636,2.98
		l-0.742-0.447c1.003,0.266,2.988,1.214,4.021,1.936c-0.502,0.083-1.069-0.176-1.489-0.601c2.063,2.431,5.588,4.369,8.189,6.064
		c3.563,2.321,7.389,4.195,11.161,6.144l-0.743-0.884l1.487,0.587c-1.158-0.688-1.952-1.727-2.383-3.118
		c0.377,0.708,0.952,0.978,1.726,0.81c-1.903-0.88-2.957-1.534-4.401-2.306c2.382,0.763,4.685,1.488,7.147,1.925l-0.299,0.154
		C213.032,30.583,213.039,30.585,213.158,30.63z M213.154,30.629c0.036,0.014,0.062,0.023,0.065,0.024
		C213.216,30.652,213.19,30.643,213.154,30.629z"/>
	<path fill="none" d="M28.94,215.644l0.376,0.606l0.074,0.08l0.159,0.291l-0.233-0.371l-0.125-0.123
		c0.145,0.215,0.292,0.434,0.439,0.651c-0.028-0.052-0.062-0.101-0.082-0.155l0.373,0.513c-0.057-0.043-0.099-0.096-0.145-0.146
		c0.124,0.176,0.248,0.352,0.372,0.527c-0.011-0.017-0.011-0.017-0.008-0.012c-0.003-0.005-0.003-0.005,0.008,0.012l-0.102-0.213
		c0.046,0.052,0.086,0.119,0.131,0.176C29.819,216.828,29.398,216.222,28.94,215.644z"/>
	<path fill="none" d="M142.181,10.702l-0.269-0.103h-0.129C141.863,10.617,142.002,10.654,142.181,10.702z"/>
	<path fill="none" d="M180.805,61.589c-0.006,0.025-0.017,0.068-0.031,0.13c-0.006,0.027-0.015,0.065-0.023,0.101
		c0.009-0.036,0.017-0.07,0.023-0.101C180.79,61.652,180.799,61.611,180.805,61.589z"/>
	<path fill="none" d="M105.277,92.866c-0.062-0.055-0.104-0.092-0.104-0.092c0.088,0.078,0.151,0.134,0.232,0.205
		C105.384,92.961,105.348,92.929,105.277,92.866z"/>
	<path fill="none" d="M28.611,215.218c0.011,0.016,0.021,0.032,0.031,0.049c-0.002-0.004,0.004,0.005,0.013,0.019
		c0.05,0.076,0.078,0.122,0.024,0.039c0.005,0.008,0.005,0.008,0.007,0.011c0.102,0.16,0.204,0.32,0.308,0.479
		C28.932,215.58,28.804,215.381,28.611,215.218z"/>
	<path fill="none" d="M28.686,215.335c-0.015-0.022-0.029-0.046-0.044-0.068C28.687,215.338,28.691,215.344,28.686,215.335z"/>
	<path fill="none" d="M30.656,218.24C30.626,218.178,30.838,218.494,30.656,218.24c0.182,0.254,0.351,0.515,0.536,0.765
		c-0.209-0.313-0.425-0.638-0.636-0.954C30.592,218.114,30.626,218.178,30.656,218.24z"/>
	<path fill="none" d="M180.665,62.188c0.021-0.095,0.048-0.208,0.073-0.315c0.005-0.02,0.008-0.032,0.012-0.05
		c-0.004,0.017-0.008,0.032-0.012,0.05C180.713,61.979,180.687,62.093,180.665,62.188c-0.002,0.005-0.003,0.01-0.004,0.015
		C180.663,62.195,180.665,62.188,180.665,62.188z"/>
	<path fill="none" d="M24.464,208.406c-0.032-0.052-0.074-0.096-0.127-0.131l0.154,0.321l-0.151-0.315L24.464,208.406z"/>
	<path fill="none" d="M131.662,77.885c-0.055,0.087-0.113,0.165-0.171,0.241C131.573,78.043,131.637,77.962,131.662,77.885z"/>
	<path fill="none" d="M156.068,117.785c0.082,0.176,0.145,0.346,0.197,0.514C156.358,118.135,156.299,117.964,156.068,117.785z"/>
	<path fill="none" d="M163.812,12.679c-0.191-0.001-0.368-0.009-0.532-0.021c0.164,0.012,0.384,0.093,0,0
		c0.384,0.093,0.799,0.196,1.272,0.314l-1.033-0.293H163.812z"/>
	<path fill="none" d="M161.796,37.194c-0.004-0.006-0.007-0.011-0.011-0.017C161.789,37.184,161.792,37.188,161.796,37.194
		C161.796,37.194,161.796,37.194,161.796,37.194z"/>
	<path fill="none" d="M161.815,37.224c-0.007-0.011-0.013-0.019-0.02-0.029c0,0,0,0,0,0
		C161.803,37.204,161.809,37.214,161.815,37.224z"/>
	<path fill="none" d="M254.906,165.263C254.906,165.263,255.38,166.491,254.906,165.263L254.906,165.263z"/>
	<path fill="none" d="M90.877,16.991l-0.139,0.154c0.358-0.119,0.705-0.271,1.036-0.453H91.62c0.734-0.265,1.461-0.507,2.233-0.744
		l-0.293,0.16l1.331-0.607l-0.586,0.309c0.656-0.34,1.352-0.591,2.073-0.745l-0.138,0.14c0.988-0.465,2.042-0.816,3.116-1.039
		l-1.038,0.454c0.95-0.398,1.853-0.73,2.839-1.042l-0.453,0.296c0.471-0.189,1.002-0.35,1.49-0.45l-0.606,0.294
		c2.102-0.696,4.343-1.221,6.56-1.63l-0.446,0.298l0.898-0.298l-0.313,0.14c1.259-0.259,2.318-0.646,3.721-0.447l-1.33-0.138
		c0.639-0.136,1.284-0.188,1.936-0.159c-0.068-0.086-0.15-0.128-0.238-0.149c-0.168,0.051-0.342,0.086-0.506,0.149
		c0.197-0.139,0.363-0.182,0.506-0.149c1.5-0.464,3.137-0.534,4.704-0.735l-0.154,0.139c2.795-0.743,5.748-0.943,8.638-1.33
		l-0.451,0.141c0.293-0.009,1.641-0.141,1.642-0.141l0.885-0.297h-1.038c0.523-0.18,1.087-0.23,1.643-0.155l-0.154-0.152
		c0.843-0.088,1.695-0.236,2.525-0.438l-0.744,0.298l1.056-0.158c-0.85,0.438-1.948,0.655-2.978,0.605h1.336l-0.902,0.137
		c1.743-0.143,3.374-0.61,5.07-1.036h-1.19c0,0,0.021-0.003,0.052-0.007c0.292-0.042,0.583-0.083,0.875-0.125
		c0.137-0.019,0.214-0.03,0.244-0.035c-0.016,0.002-0.045,0.007-0.077,0.011c0.034-0.005,0.061-0.009,0.077-0.011
		c0.022-0.003,0.023-0.003,0,0c-0.015,0.002-0.043,0.006-0.084,0.012c-0.008,0.001-0.015,0.002-0.023,0.003
		c-0.036,0.005-0.082,0.011-0.137,0.019c-0.281,0.04-0.697,0.099-0.857,0.122c-0.025,0.003-0.043,0.006-0.069,0.01
		c2.686-0.381,5.431-0.648,8.142-0.744c-22.362-0.268-44.687,5.542-64.257,16.32C80.938,21.271,85.855,19,90.877,16.991z
		 M133.283,8.069C133.546,8.032,133.478,8.042,133.283,8.069L133.283,8.069z"/>
	<path fill="none" d="M246.285,224.15c0.053-0.058,0.104-0.116,0.152-0.17c0.038-0.044,0.074-0.085,0.112-0.13
		c-0.062,0.068-0.131,0.145-0.202,0.225C246.326,224.1,246.307,224.126,246.285,224.15z"/>
	<path fill="none" d="M173.622,24.29l0.501-0.061C173.938,24.177,173.771,24.197,173.622,24.29z"/>
	<path fill="none" d="M164.078,39.068c0.03,0.003,0.033,0.003,0.042,0.004C164.112,39.071,164.09,39.069,164.078,39.068
		c-0.058-0.006-0.139-0.015-0.216-0.023C163.96,39.055,164.036,39.063,164.078,39.068z"/>
	<path fill="none" d="M154.733,44.686c0-0.031,0-0.063,0-0.095c-0.001-0.021-0.005-0.044-0.012-0.07
		C154.729,44.559,154.733,44.612,154.733,44.686z"/>
	<path fill="none" d="M175.71,15.364c1.361,0.841,3.446,1.201,5.276,1.576C179.197,16.418,177.433,15.887,175.71,15.364z"/>
	<path fill="none" d="M167.413,117.782c0.993-1.839,1.986-3.678,2.979-5.517c-2.163,1.076-4.632,1.77-5.98,3.876l0.14-1.038
		c-1.205,2.264-0.242,3.328,2.862,2.231c-2.726,3.036-4.867,3.158-6.584,0.886c0.937-0.681,1.674-0.731,1.49-1.926
		c-0.992,0.047-1.983,0.094-2.977,0.14c0.098-0.148,0.194-0.297,0.292-0.445c-0.294-0.1-0.589-0.199-0.883-0.298l1.627,0.158
		c-2.399-1.561-2.728,1.441-4.062,2.418c-0.563,0.637-0.893,1.417-0.992,2.34l-0.298-0.743c-2.977,3.646-2.931,6.503,0.116,8.577
		c-3.047-2.074,6.885-2.434,0,0c6.885-2.434,20.774,0.275,22.345-4.861C174.79,120.659,171.295,118.647,167.413,117.782z"/>
	<path d="M239.745,50.037C238.622,48.921,243.989,54.256,239.745,50.037L239.745,50.037z"/>
	<path d="M227.876,38.235c3.959,3.931,7.912,7.869,11.869,11.802C246.313,56.567,230.373,40.714,227.876,38.235z"/>
	<path fill="none" stroke="#000000" stroke-width="0" stroke-linecap="round" stroke-linejoin="round" d="M102.413,71.105
		c0.019,0.027,0.042,0.06,0.052,0.075"/>
	<path d="M101.748,70.145c1.66,2.395,4.404,2.874,7.131,0.883c0.632-2.143-0.946-5.579-3.408-3.424
		c-0.104-0.294-0.209-0.588-0.313-0.883l-1.627,1.33c0.874-0.939,1-1.934,0.292-2.976l-0.447,1.35
		c-0.046-0.351-0.092-0.702-0.139-1.053c-0.26,0.942-0.937,1.184-1.786,0.745l1.925,1.19l-1.042,0.16l0.452,0.446l-1.94-0.606
		l1.351,1.94l-1.797,0.451L101.748,70.145z"/>
	<path d="M101.748,70.145c0.036,0.051,0.061,0.088,0.093,0.135C101.786,70.2,101.748,70.145,101.748,70.145z"/>
	<path d="M101.841,70.28c0.022,0.033,0.047,0.068,0.075,0.109C101.892,70.354,101.867,70.317,101.841,70.28z"/>
	<path d="M102.465,71.181C102.486,71.211,102.485,71.21,102.465,71.181L102.465,71.181z"/>
	<path fill="none" stroke="#000000" stroke-width="0" stroke-linecap="round" stroke-linejoin="round" d="M101.916,70.389
		c-0.028-0.041-0.053-0.076-0.075-0.109"/>
	<path d="M101.916,70.389c0.181,0.26,0.361,0.521,0.541,0.781c-0.019-0.028-0.025-0.037-0.037-0.054
		c0.02,0.028,0.034,0.05,0.045,0.065c-0.01-0.015-0.027-0.039-0.05-0.072c0-0.001-0.001-0.002-0.002-0.003
		c-0.042-0.062-0.044-0.064-0.031-0.046c-0.041-0.058-0.148-0.213-0.428-0.616c0.083,0.119,0.127,0.185,0.156,0.225
		C102.042,70.569,101.975,70.473,101.916,70.389c0.074,0.106,0.14,0.202,0.197,0.285C102.167,70.75,102.108,70.666,101.916,70.389z"
		/>
	<path d="M102.382,71.06C102.422,71.116,102.399,71.084,102.382,71.06L102.382,71.06z"/>
	<path d="M114.833,101.1c-0.044,0.071-0.07,0.112-0.102,0.163C114.787,101.176,114.833,101.1,114.833,101.1z"/>
	<path d="M113.542,99.202c0.22-0.206,0.324-0.426,0.311-0.542c0-0.005-0.002-0.008-0.003-0.013
		c-0.006-0.031-0.021-0.054-0.048-0.063c-0.002-0.001-0.003-0.004-0.006-0.004c-0.028-0.006-0.069,0.004-0.118,0.026
		c-0.013,0.006-0.027,0.014-0.042,0.023c-0.051,0.029-0.108,0.07-0.176,0.13c-0.008,0.007-0.014,0.011-0.022,0.019
		c-0.076,0.069-0.166,0.167-0.262,0.28c-0.025,0.029-0.05,0.059-0.076,0.091c-0.105,0.13-0.218,0.276-0.346,0.46
		C113.375,99.476,113.563,99.298,113.542,99.202z"/>
	<path d="M112.754,99.61c1.497-2.16-0.478-6.698-2.525-8.034l1.642,0.155l-0.899-0.449c1.321-0.138,2.273-0.955,2.839-2.234
		L110.68,88.6l2.526-1.941c-2.75-0.461-4.486,0.53-5.21,2.976l1.35,0.298l-2.094,2.68c0.602-0.554,1.249-1.051,1.939-1.487
		c0.431,1.236-0.014,2.328-1.334,3.276c0.524-0.483,1.59-0.48,2.525-0.141c1.366-0.49-2.533,3.021-3.846,4.165l1.007-0.15
		c-0.271,1.134-1.248,1.761-2.526,1.941c0.915,1.172,1.991,1.658,3.209,1.301c-1.76,0.709-3.098,1.337-5.149,2.419
		c4.582,0.053,8.972,1.621,11.756-2.836C114.894,99.793,114.201,99.297,112.754,99.61z"/>
	<path d="M106.537,98.425l-0.03,0.004C105.921,98.948,106.059,98.842,106.537,98.425z"/>
	<path d="M114.646,101.401C114.569,101.522,114.528,101.588,114.646,101.401L114.646,101.401z"/>
	<path d="M170.354,60.766c-0.29-0.634-0.803-0.924-1.514-0.906c-0.062-0.01-0.144-0.014-0.271,0.003
		c0.022,0.372,0.263,0.606,0.579,0.748c0.006-0.001,0.008-0.001,0.015-0.002c-0.007,0.001-0.009,0.001-0.015,0.002
		C169.515,60.775,169.984,60.812,170.354,60.766z"/>
	<path fill="none" stroke="#000000" stroke-width="0" stroke-linecap="round" stroke-linejoin="round" d="M169.148,60.611
		c-0.072,0.008-0.113,0.013-0.113,0.013"/>
	<path fill="none" stroke="#000000" stroke-width="0" stroke-linecap="round" stroke-linejoin="round" d="M169.148,60.611
		c0.006-0.001,0.008-0.001,0.015-0.002"/>
	<path fill="none" stroke="#000000" stroke-width="0" stroke-linecap="round" stroke-linejoin="round" d="M172.502,25.222
		c0.001,0,0.01,0.002,0.021,0.004"/>
	<path d="M172.523,25.227C172.412,25.204,172.544,25.231,172.523,25.227L172.523,25.227z"/>
	<path fill="none" stroke="#000000" stroke-width="0" stroke-linecap="round" stroke-linejoin="round" d="M172.29,25.178
		c0.034,0.007,0.051,0.011,0.078,0.017"/>
	<path fill="none" stroke="#000000" stroke-width="0" stroke-linecap="round" stroke-linejoin="round" d="M172.368,25.194
		c0.01,0.002,0.019,0.004,0.029,0.006"/>
	<path d="M171.844,25.783c0.562,0.23,1.207,0.442,1.786,0.587C173.211,25.313,172.498,24.918,171.844,25.783z"/>
	<path d="M172.415,25.204C172.544,25.231,172.678,25.259,172.415,25.204L172.415,25.204z"/>
	<path d="M12.724,106.756c0.153-0.216,0.354-0.365,0.604-0.446l-0.152,2.977c0.418-0.795,0.627-1.849,0.586-2.824l0.312,0.293
		c0.305-2.028,0.658-4.239,0.432-6.248c-0.282,1.167-0.623,2.296-1.037,3.428c0.248-1.938,0.786-3.804,1.616-5.598
		c0.002,0.015,0.002,0.023,0.004,0.036c0-0.025,0.001-0.049,0.006-0.065c0.007,0.085,0.008,0.177,0.018,0.259
		c1.756-6.753,4.524-13.666,7.292-20.057c-5.871,11.058-10.232,22.91-12.75,35.089c1.149-2.618,2.359-6.07,3.681-10.007
		C13.225,104.647,13.184,105.722,12.724,106.756z"/>
	<path d="M15.088,98.375C15.087,98.479,15.116,98.609,15.088,98.375L15.088,98.375z"/>
	<path d="M101.59,99.175c0.179-0.011,0.271-0.017,0.322-0.02C101.808,99.161,101.59,99.175,101.59,99.175z"/>
	<path fill="none" stroke="#000000" stroke-width="0" stroke-linecap="round" stroke-linejoin="round" d="M105.656,93.202
		c-0.017-0.016-0.031-0.027-0.033-0.029"/>
	
		<line fill="none" stroke="#000000" stroke-width="0" stroke-linecap="round" stroke-linejoin="round" x1="105.659" y1="93.204" x2="105.658" y2="93.204"/>
	<path d="M105.588,93.142c-0.02-0.018-0.026-0.023-0.03-0.027c0.017,0.015,0.037,0.033,0.054,0.048
		c-0.018-0.016-0.037-0.033-0.055-0.049c-0.01-0.01-0.037-0.033-0.28-0.249c0.071,0.063,0.107,0.095,0.127,0.113
		c-0.081-0.071-0.144-0.127-0.232-0.205c0,0,0.019,0.017,0.051,0.046C105.346,92.927,105.467,93.034,105.588,93.142z
		 M105.409,92.982c0.015,0.013,0.001,0.002-0.056-0.049C105.369,92.948,105.391,92.967,105.409,92.982z"/>
	<path d="M105.172,92.773c0,0,0.042,0.038,0.104,0.092C105.241,92.834,105.212,92.809,105.172,92.773z"/>
	<path d="M106.995,94.387C107.134,94.51,107.108,94.486,106.995,94.387L106.995,94.387z"/>
	<path d="M106.504,93.952c0.004,0.004,0.009,0.008,0.013,0.011c0.226,0.201,0.391,0.346,0.478,0.423
		c-0.101-0.09-0.273-0.242-0.478-0.423c0.205,0.182,0.376,0.333,0.478,0.423c-0.087-0.077-0.252-0.223-0.479-0.424
		C106.512,93.958,106.509,93.956,106.504,93.952c0.004,0.004,0.007,0.006,0.011,0.01C106.512,93.958,106.509,93.956,106.504,93.952z
		"/>
	<path d="M105.172,92.773l0.73-0.298c-0.144-0.149-0.288-0.298-0.432-0.448c-0.249,0.249-0.497,0.498-0.745,0.746l-0.159-0.746
		l-1.489,0.884l0.903,0.308c-1.455,2.022-4.143-0.884-4.173,3.722l1.628,0.298l-2.511,0.139l0.729,0.447l-1.042,0.297l1.042,0.308
		l-1.042,0.296l1.042,0.14l-0.729,0.446C101.801,99.437,109.495,96.599,105.172,92.773z"/>
	<path d="M105.656,93.202c-0.002-0.002-0.004-0.004-0.006-0.005c-0.021-0.019-0.041-0.037-0.062-0.055
		c0.012,0.01,0.03,0.027,0.059,0.052c-0.011-0.01-0.024-0.021-0.035-0.031c0.016,0.014,0.027,0.024,0.042,0.038
		c0.002,0.001,0.002,0.002,0.004,0.003C105.658,93.203,105.657,93.203,105.656,93.202c0,0,0.001,0.001,0.002,0.001
		c0.136,0.121,0.258,0.229,0.373,0.33c0.184,0.163,0.343,0.303,0.473,0.418c-0.14-0.124-0.29-0.256-0.439-0.389
		c0.168,0.149,0.319,0.282,0.439,0.389c-0.169-0.15-0.351-0.311-0.529-0.468c-0.129-0.114-0.251-0.223-0.363-0.321
		c0.112,0.099,0.23,0.204,0.327,0.29C105.842,93.366,105.745,93.28,105.656,93.202z"/>
	<path d="M106.995,94.387C107.134,94.51,107.108,94.486,106.995,94.387L106.995,94.387z"/>
	<path d="M8.709,161.092l-0.297-1.192C8.47,160.294,8.574,160.71,8.709,161.092z"/>
	<path d="M267.562,108.543c0.128-1.758-0.345-3.748-1.19-5.351C266.198,105.052,266.361,107.06,267.562,108.543z"/>
	<path d="M257.585,125.062l-0.572-0.994C257.087,124.391,257.278,124.723,257.585,125.062z"/>
	<path d="M206.797,233.441C206.971,233.564,206.943,233.545,206.797,233.441L206.797,233.441z"/>
	<path fill="none" stroke="#000000" stroke-width="0" stroke-linecap="round" stroke-linejoin="round" d="M205.041,232.192
		c-0.041-0.029-0.081-0.058-0.124-0.089"/>
	<path fill="none" stroke="#000000" stroke-width="0" stroke-linecap="round" stroke-linejoin="round" d="M206.797,233.441
		c-0.007-0.005-0.013-0.01-0.02-0.015"/>
	<path fill="none" stroke="#000000" stroke-width="0" stroke-linecap="round" stroke-linejoin="round" d="M205.041,232.192
		c0.083,0.059,0.169,0.119,0.257,0.183"/>
	<path fill="none" stroke="#000000" stroke-width="0" stroke-linecap="round" stroke-linejoin="round" d="M205.923,232.819
		c-0.18-0.128-0.386-0.274-0.625-0.444"/>
	<path fill="none" stroke="#000000" stroke-width="0" stroke-linecap="round" stroke-linejoin="round" d="M206.777,233.427
		c-0.06-0.042-0.142-0.101-0.242-0.172"/>
	<path d="M205.923,232.819c0.26,0.185,0.461,0.328,0.612,0.436C206.364,233.133,206.15,232.981,205.923,232.819z"/>
	<path d="M189.808,251.703c-0.002,0.234,0.012,0.496,0.049,0.799c0.859,0.073,1.429-0.012,1.783-0.184
		c3.938-1.059,7.954-6.185,9.953-8.835c1.672-2.216,3.32-4.756,3.902-7.513c0.262-1.238-0.599-2.957-0.854-4.063
		c0.093,0.065,0.19,0.135,0.276,0.196c-0.103-0.073-0.193-0.138-0.276-0.196c0-0.001,0-0.001,0-0.001c0.354,0.253,0.753,0.535,0,0
		c-0.083-0.36-0.104-0.657,0.002-0.85c-2.15,1.572-3.639,3.59-4.467,6.05l0.099-0.541c-0.146,0.942-0.641,1.488-1.484,1.639
		l0.297-0.591C194.15,238.972,189.658,246.369,189.808,251.703z"/>
	<path d="M7.865,155.6c-0.004,1.33,0.104,2.634,0.344,3.915C8.077,158.207,7.962,156.903,7.865,155.6z"/>
	<path d="M7.265,126.808C7.265,126.808,7.279,126.688,7.265,126.808L7.265,126.808z"/>
	<path d="M13.905,185.669c0.624,2.391,1.62,4.956,2.711,7.252C15.644,190.543,14.741,188.124,13.905,185.669z"/>
	<path d="M7.695,158.73c-0.018-0.135-0.038-0.271-0.055-0.409C7.537,158.544,7.555,158.682,7.695,158.73z"/>
	<path d="M9.899,111.38c-0.002-0.013,0.003-0.024,0.002-0.036c-0.021,0.106-0.043,0.213-0.064,0.32
		c0.105-0.199,0.161-0.414,0.165-0.649L9.899,111.38z"/>
	<path d="M10.002,111.015c0,0-0.001,0.043-0.001,0.075C10.001,111.074,10.001,111.059,10.002,111.015z"/>
	<path d="M11.305,177.164c-0.392-1.6-0.798-3.209-1.191-4.826C10.485,173.953,10.876,175.563,11.305,177.164z"/>
	<path d="M241.336,229.655c0.324-0.379,0.648-0.768,0.973-1.164c-0.715,0.836-1.43,1.673-2.164,2.491
		c0.023-0.025,0.13-0.142,0.288-0.316c0.265-0.285,0.529-0.574,0.791-0.877c1.389-1.543,3.764-4.19,5.062-5.639
		c0.021-0.024,0.041-0.051,0.063-0.075C245.49,225.028,243.916,226.781,241.336,229.655z"/>
	<path d="M246.55,223.851c-0.038,0.045-0.074,0.086-0.112,0.13C247.281,223.039,247.55,222.738,246.55,223.851z"/>
	<path d="M245.205,224.984c0.732-0.836,1.492-1.615,2.287-2.304c12.834-15.674,22.455-34.558,24.276-54.941
		C267.564,189.135,258.248,208.629,245.205,224.984z"/>
	<path d="M246.55,223.851c0.518-0.622,1.067-1.323,1.673-1.783c-0.249,0.189-0.489,0.404-0.73,0.613
		c-0.381,0.466-0.758,0.935-1.145,1.395C246.419,223.995,246.488,223.919,246.55,223.851z"/>
	<path d="M246.136,224.333c0.099-0.108,0.201-0.232,0.302-0.353c-0.048,0.054-0.1,0.112-0.152,0.17
		C246.234,224.211,246.187,224.273,246.136,224.333z"/>
	<path d="M242.309,228.491c0.984-1.152,1.95-2.32,2.896-3.507C244.212,226.116,243.259,227.326,242.309,228.491z"/>
	<path d="M10.037,110.788C10.012,110.888,10.038,110.795,10.037,110.788L10.037,110.788z"/>
	<path d="M259.613,82.784c-0.126-0.346-0.845-1.415-0.901-1.452C259.009,81.818,259.301,82.304,259.613,82.784z"/>
	<path d="M212.923,30.543c0.078,0.029,0.157,0.058,0.235,0.087C213.039,30.585,213.032,30.583,212.923,30.543z"/>
	<path d="M180.789,61.657C180.813,61.553,180.82,61.524,180.789,61.657L180.789,61.657z"/>
	<path d="M133.283,8.069C133.478,8.042,133.546,8.032,133.283,8.069L133.283,8.069z"/>
	<path d="M233.914,148.128c0.078-0.055,0.136-0.121,0.207-0.178C233.429,147.802,233.194,147.78,233.914,148.128z"/>
	<path fill="none" stroke="#000000" stroke-width="0" stroke-linecap="round" stroke-linejoin="round" d="M137.01,7.995
		c0.003,0-0.019,0.002-0.074,0.011"/>
	<path d="M136.937,8.005c-0.004,0-0.01,0.001-0.014,0.002C136.927,8.007,136.933,8.006,136.937,8.005
		c-0.024,0.003-0.04,0.006-0.079,0.012c-0.128,0.019-0.286,0.042-0.286,0.042s0.202-0.03,0.335-0.049
		C136.915,8.008,136.929,8.006,136.937,8.005z"/>
	
		<line fill="none" stroke="#000000" stroke-width="0" stroke-linecap="round" stroke-linejoin="round" x1="140.144" y1="67.413" x2="140.144" y2="66.86"/>
	<path fill="none" stroke="#000000" stroke-width="0" stroke-linecap="round" stroke-linejoin="round" d="M275.063,152.361
		c-0.042-0.023-0.056-0.03-0.052-0.027"/>
	<path d="M275.063,152.361c-0.085-0.046-0.2-0.108-0.252-0.137C274.935,152.292,275.011,152.333,275.063,152.361z"/>
	<path d="M133.562,129.007c-0.447-1.082-1.272-1.895-2.4-2.482C131.92,127.395,132.751,128.236,133.562,129.007z"/>
	<path d="M147.839,137.351c0.026,0.056,0.044,0.09,0.044,0.081C147.869,137.401,147.854,137.379,147.839,137.351z"/>
	<path d="M275.063,152.361C275.189,152.431,275.151,152.409,275.063,152.361L275.063,152.361z"/>
	<path d="M217.971,34.378C218.124,34.464,218.123,34.463,217.971,34.378L217.971,34.378z"/>
	<path d="M217.051,33.862c0.342,0.191,0.601,0.337,0.775,0.435C217.655,34.201,217.397,34.057,217.051,33.862z"/>
	<path d="M217.826,34.297c0.058,0.033,0.106,0.06,0.145,0.081C217.932,34.356,217.884,34.329,217.826,34.297z"/>
	<path d="M214.634,32.508c1.024,0.574,1.835,1.028,2.417,1.354C216.486,33.546,215.697,33.104,214.634,32.508z"/>
	<path d="M180.656,62.223C180.656,62.201,180.625,62.362,180.656,62.223L180.656,62.223z"/>
	<path fill="none" stroke="#000000" stroke-width="0" stroke-linecap="round" stroke-linejoin="round" d="M213.22,30.653
		c-0.004-0.001-0.029-0.011-0.065-0.024"/>
	<path d="M132.406,136.532c1.382-0.665,1.72-1.635,1.466-1.77c0.896-1.709,1.584-3.725,3.59-2.244
		c-1.251-1.22-2.634-2.305-3.901-3.511C134.281,130.749,134.017,133.188,132.406,136.532z"/>
	<path fill="none" stroke="#000000" stroke-width="0" stroke-linecap="round" stroke-linejoin="round" d="M239.274,145.896
		c0.011,0.013,0.016,0.019,0.024,0.029"/>
	<path fill="none" stroke="#000000" stroke-width="0" stroke-linecap="round" stroke-linejoin="round" d="M180.773,61.719
		c-0.006,0.027-0.015,0.065-0.023,0.101"/>
	<path fill="none" stroke="#000000" stroke-width="0" stroke-linecap="round" stroke-linejoin="round" d="M180.738,61.873
		c0.005-0.02,0.008-0.032,0.012-0.05"/>
	<path fill="none" stroke="#000000" stroke-width="0" stroke-linecap="round" stroke-linejoin="round" d="M180.665,62.188
		c0.021-0.095,0.048-0.208,0.073-0.315"/>
	<path d="M180.636,62.312c0.003-0.012,0.007-0.027,0.01-0.041c-0.004,0.016-0.007,0.03-0.011,0.046
		c-0.01,0.041-0.017,0.071-0.017,0.071c0.011-0.044,0.018-0.077,0.027-0.117C180.642,62.288,180.639,62.298,180.636,62.312z"/>
	<path fill="none" stroke="#000000" stroke-width="0" stroke-linecap="round" stroke-linejoin="round" d="M133.192,8.082
		c-0.048,0.007-0.077,0.011-0.08,0.011"/>
	<path fill="none" stroke="#000000" stroke-width="0" stroke-linecap="round" stroke-linejoin="round" d="M133.192,8.082
		c-0.292,0.042-0.583,0.083-0.875,0.125"/>
	<path d="M180.665,62.188c0,0-0.002,0.007-0.004,0.015C180.662,62.198,180.663,62.193,180.665,62.188
		c-0.002,0.005-0.003,0.01-0.004,0.015c-0.002,0.007-0.004,0.015-0.005,0.02c-0.002,0.007-0.001,0.004,0.002-0.006
		c-0.005,0.02-0.009,0.037-0.013,0.054c0.004-0.019,0.009-0.037,0.013-0.055C180.66,62.209,180.661,62.204,180.665,62.188z"/>
	<path d="M152.669,135.643c-0.135-0.132-0.253-0.259-0.341-0.379C152.414,135.475,152.526,135.604,152.669,135.643z"/>
	<path fill="none" stroke="#000000" stroke-width="0" stroke-linecap="round" stroke-linejoin="round" d="M275.473,145.01
		c0-0.002-0.005,0.023-0.018,0.085"/>
	<path fill="none" stroke="#000000" stroke-width="0" stroke-linecap="round" stroke-linejoin="round" d="M275.455,145.095
		c-0.007,0.03-0.015,0.067-0.024,0.109"/>
	<path fill="none" stroke="#000000" stroke-width="0" stroke-linecap="round" stroke-linejoin="round" d="M275.042,147.01
		c0.007-0.029,0.014-0.061,0.021-0.101"/>
	<path fill="none" stroke="#000000" stroke-width="0" stroke-linecap="round" stroke-linejoin="round" d="M275.339,145.634
		c-0.011,0.049-0.021,0.097-0.031,0.146"/>
	<path d="M133.192,8.082c-0.175,0.025-0.449,0.064-0.857,0.122C132.495,8.181,132.912,8.122,133.192,8.082z"/>
	<path d="M214.634,32.508C219.567,35.272,217.81,34.23,214.634,32.508L214.634,32.508z"/>
	<path d="M239.299,145.926c0.011,0.014,0.023,0.028,0.036,0.044c0.031,0.038,0.054,0.065,0.054,0.065
		c0.011,0.013,0.014,0.016,0-0.001C239.386,146.03,239.367,146.009,239.299,145.926c0.009,0.011,0.021,0.024,0.031,0.037
		C239.32,145.952,239.311,145.939,239.299,145.926z"/>
	<path d="M276.203,141.619c-0.457,2.128-0.872,3.952-1.17,5.427c0.283-1.313,0.565-2.624,0.849-3.936
		C275.857,143.22,275.933,142.872,276.203,141.619z"/>
	<path d="M180.773,61.719c-0.007,0.031-0.015,0.064-0.023,0.101c-0.004,0.017-0.008,0.035-0.012,0.053
		c0.004-0.019,0.008-0.034,0.012-0.05C180.759,61.784,180.768,61.749,180.773,61.719z"/>
	<path d="M132.317,8.206c-0.03,0.004-0.052,0.007-0.052,0.007c0.026-0.004,0.044-0.006,0.069-0.01
		C132.329,8.205,132.322,8.205,132.317,8.206z"/>
	<path d="M239.274,145.896c0.011,0.013,0.016,0.019,0.024,0.029C239.285,145.91,239.274,145.896,239.274,145.896z"/>
	<path d="M133.192,8.082c0.056-0.008,0.101-0.014,0.137-0.019c0.008-0.001,0.015-0.002,0.023-0.003
		c0.041-0.006,0.069-0.01,0.084-0.012c-0.017,0.002-0.043,0.006-0.077,0.011c0.032-0.004,0.062-0.009,0.077-0.011
		C133.407,8.051,133.329,8.063,133.192,8.082c0.049-0.007,0.091-0.013,0.13-0.018C133.284,8.069,133.241,8.075,133.192,8.082z"/>
	<path d="M276.203,141.619c-0.107,0.497-0.214,0.995-0.321,1.492C275.908,142.987,276.059,142.291,276.203,141.619z"/>
	<path d="M133.437,8.047C133.46,8.044,133.458,8.044,133.437,8.047L133.437,8.047z"/>
	<path d="M180.808,61.575C180.811,61.563,180.811,61.562,180.808,61.575L180.808,61.575z"/>
	<path d="M136.937,8.005C137.047,7.989,137.023,7.993,136.937,8.005L136.937,8.005z"/>
	<path d="M275.013,147.146c0.006-0.031,0.015-0.068,0.021-0.1c-0.182,0.846-0.364,1.692-0.547,2.538
		c-0.113-7.747,0.671-15.495,0.869-23.236c0.261-10.18-3.215-21.004-6.87-30.384c-8.235-21.131-22.181-40.123-39.139-55.095
		C199.79,14.771,161.43,3.143,122.385,8.352c-42.046,5.61-82.712,30.287-99.981,70.16c3.41-6.423,7.319-12.602,11.675-18.513
		c-1.173,1.842-2.487,3.52-3.492,5.525l0.45-0.45c-0.598,0.736-1.092,1.531-1.488,2.391l0.153-0.16
		c-2.853,5.065-6.384,9.975-8.639,15.338c2.189-3.086,5.127-11.493,9.384-11.458c0.178,0.419,0.502,0.805,0.744,1.192
		c-0.155-0.745,0.084-1.007,0.717-0.787l-0.126,0.34c0.389,0.078,0.637-0.125,0.745-0.606l-0.299,0.154
		c-0.044-1.088,0.25-1.434,0.884-1.038l-0.433,0.744c0.818-0.871,1.463-1.872,1.92-2.977l-0.292,0.884
		c0.659-0.595,1.211-1.364,1.722-2.122l-0.527,0.787c0.397-0.397,0.793-0.795,1.19-1.193c-0.57,1.226-1.418,2.23-2.524,2.974
		c1.649-0.52,2.807-1.856,3.722-3.271l-1.195,1.782c0.911-0.17,1.805-0.609,2.724-0.715c1.761-0.203,0.513,1.157,0.843,2.064
		l0.745-0.606l-0.59,0.161c0.566-1.397,1.802-2.351,3.274-2.687v0.453l0.585-0.453l-0.291,0.745l1.195-0.589l-0.59,0.436
		c1.933-0.014,1.717,2.002,3.117,2.233c-0.346,0.051-0.692,0.103-1.039,0.154c0.091,0.461,0.084,1.072,0.293,1.489
		c-0.249-0.051-0.497-0.103-0.745-0.154c0.15-0.294,0.301-0.589,0.452-0.884c-1.489-0.857-2.589-0.442-3.137,1.782l1.94-0.59
		l-0.138,0.883c0.144-0.149,0.288-0.298,0.432-0.447c0.455,0.685,1.004,1.284,1.646,1.797c0.121-3.764,8.715-11.517,2.072-11.771
		c5.345-0.506,8.706,3.265,11.911,6.114l-0.138-1.042l0.297,0.743c0.778-2.9,2.236-4.268,3.723-7.006l-0.744-0.139l1.642-0.745
		h-0.452c0.333-0.564,0.893-1.479,1.197-1.646l0.139-0.586l0.292,0.293l0.313-0.898l-0.154,0.742c1.61-0.13,2.088-2.227,3.424-2.823
		c-0.149-0.15-0.297-0.301-0.446-0.451c1.791-0.356,3.184-1.51,4.014-3.117c-1.553,0.082-2.989,0.526-4.313,1.334l1.042-0.898
		h-1.648l1.059-0.882l-1.195,0.139c0.3-1.439,0.993-2.082,2.077-1.927l-0.45,0.439c1.208-0.248,2.131-0.964,2.546-2.082v0.899
		l2.08-0.899h-0.592c0.953-1.614,1.952-2.695,3.568-3.875c-0.248-0.1-0.497-0.199-0.745-0.298c0.443-0.744,0.886-1.489,1.33-2.233
		c-7.922,1.024-14.932,5.827-21.877,8.932l1.038-0.884l-0.884,0.14c5.135-6.558,14.637-10.789,19.65-16.667l-0.745,0.154
		c2.394-1.267,5.776-1.225,7.444-0.898l-0.452,0.588c1.734-0.21,1.732-1.494,3.723-1.925c-0.904,0.683-1.799,1.377-2.686,2.081
		l1.057,0.154l-0.606,1.041c1.86,0.388,3.393-0.521,4.466-2.233c-0.452,0.911-1.368,1.749-2.371,2.233
		c0.871,0.584,1.65,0.543,2.371-0.297l-1.489,1.786l1.781-1.041c-0.073,0.168-0.167,0.317-0.276,0.452
		c2.499,1.494,3.892-0.288,5.646-0.314l0.898-1.332l-2.546,0.746l0.313-0.453c-1.201,0.015-2.234,0.17-2.976-0.449
		c1.632-0.497,3.264-0.993,4.896-1.49l-1.92-0.138l2.824-0.898l-0.16,0.589c0.462-0.818,1.287-1.448,2.234-1.042l-0.446,0.297
		l4.619-1.336c-1.592-1.021-4.082-1.053-5.662,0.746l0.158-0.454H96.24l0.298,0.3c-1.16-0.402-1.646-0.465-3.137-0.437
		c0.759-0.599,1.612-0.742,2.546-0.448c-0.104-0.099-0.208-0.198-0.312-0.296c0.778,0.41,1.252-0.232,1.489-0.899
		c-0.9,0.416-1.343,0.528-2.232,0.59l1.647-0.59l-0.591-0.153c0.798-1.097,8.035-6.626,9.523-6.7l-0.605,0.605
		c5.007-1.049,11.678-3.581,16.235-5.953l-1.042-0.16c4.37-0.452,10.287-1.8,14.58-1.19l-0.139,0.154
		c1.048,0.465,1.988,0.415,2.818-0.154l-0.154,0.308c3.042-0.793,6.125-1.393,9.246-1.797c-1.063-0.033-3.091-0.661-4.496-1.182
		l0.269,0.103c-0.179-0.048-0.317-0.085-0.397-0.103h0.129l-0.422-0.152c2.285-0.122,4.359,0.239,6.699,0.152l-1.781-0.307h0.884
		c-2.229-0.809-4.235-0.394-6.094-0.883c2.015-0.189,4.046-0.134,6.092-0.604c-0.972-0.162-1.968-0.26-2.961-0.297h1.334
		c-1.162-0.294-2.332-0.467-3.508-0.578c16.489,0.721,32.037,3.33,47.615,9.815c-2.177-0.723-4.385-1.315-6.62-1.635l1.189,0.583
		c-2.906-0.614-4.693-1.217-7.296-1.783l0.794-0.152c-5.159-0.351-10.664-2.795-15.965-3.413c-0.08,0.546,0.073,0.88,0.429,1.078
		c-2.362-0.554-2.811-0.5-4.896-0.194l0.605-0.447c-7.105-1.149-2.316-1.23-5.364-1.333l0.897,0.291
		c-0.843,0.099-1.57,0.099-2.387,0l0.153,0.159c-0.592-0.176-1.188-0.175-1.78,0c1.302,0.605,2.726,0.925,4.153,1.038l-0.142-0.591
		c2.476,2.165,6.645,3.771,10.127,4.763l-0.151-0.606c0.748,0.055,1.397,0.359,1.935,0.898c-0.074,1.134,7.579,3.109,7.723,6.695
		l-0.896-0.452c-0.464,2.628,7.202,6.483,9.529,7.149c-1.587,0.197-3.175,0.395-4.762,0.591c3.059,2.923-0.378,6.569-3.873,5.211
		l0.597-0.299c-0.934-0.282-1.826-0.183-2.679,0.299c0.185,0.462,0.297,1.094,0.595,1.488c-0.971,0.541-1.964,0.591-2.981,0.153
		c0.616,1.548,1.811,2.691,3.574,2.388c-0.422,0.623-0.524,1.684-0.597,2.37c0.049-0.029,0.071-0.071,0.103-0.108
		c-0.004,1.171,0.296,2.588,1.385,3.246c-0.248,0.046-0.495,0.093-0.743,0.139c0.811,0.202,1.621,0.403,2.432,0.604
		c-0.463,0.842-0.927,1.684-1.39,2.526c1.488,0.404,2.977,0.807,4.465,1.21c-4.535,1.101-0.49,0.772-2.977,2.513l2.878,0.294
		c-1.777,0.71-3.59,0.171-5.109-1.193c0.521,0.802,1.104,1.508,1.732,2.129c-1.596-0.957-3.168-1.302-4.263-0.486
		c2.995,2.563,4.521,5.572,7.44,7.598l-3.125-0.605l0.444-0.139c-1.439,0.146-2.879,0.292-4.318,0.438
		c3.609,1.462,0.23,3.292-1.796,4.04c-2.121,0.783-2.694,1.105-4.291,2.815c0.248,0.151,0.495,0.302,0.743,0.453
		c-0.558,1.132-1.279,2.558-3.115,1.33l1.036-1.176c-1.062-0.679-2.353-0.852-3.582-0.897c1.852,1.217,3.852,3.177,2.162,5.366
		c-1.001,1.297-2.943,2.082-3.652,3.572l0.313-0.605c-1.057-0.156-1.713-0.856-1.801,0.605c2.216,0.053,0.893,1.026,1.487,1.779
		c-2.583-0.475-3.849-2.683-5.644-4.311c0.197-0.148,0.394-0.297,0.591-0.445l-1.94-1.196c2.558,0.929,5.667,1.062,7.596,0.154
		c-0.598-2.027-5.952-7.386-7.442-3.724c-0.015-0.251-0.421-1.41-0.294-1.49c-0.583-0.538-2.262-0.599-1.937-1.192
		c-1.025-0.85-1.907-0.992-2.525,0.293l0.433-1.195c-0.961-0.121-1.234,0.548-1.486,1.351v-1.198l-0.886,1.781l0.301-1.643
		c-1.074,0.153-4.099,0.682-2.683,2.387c-0.918-0.555-1.551,0.13-1.943,0.901c0.167-0.275,0.217-0.58,0.158-0.901l-0.297,0.591
		v-0.191c-0.112,1.201-1.004,1.863-2.679,1.987l0.805,0.095c-0.761-0.046-1.178,0.259-0.965,1.24
		c-0.097-0.299-0.194-0.598-0.292-0.897c-0.248,0.148-0.497,0.296-0.745,0.445l0.604,0.298h-0.898l0.745,0.605l-1.336,0.586
		l0.884,0.297l-1.781,0.311c0.148,0.099,0.297,0.198,0.445,0.296c-0.321,0.369-0.631,0.923-1.036,1.19l1.036-0.153l-1.487,0.293
		l0.452,0.604c-0.15-0.102-0.301-0.204-0.452-0.306c-0.231,0.461-0.646,0.985-0.744,1.487l0.882-0.138l-1.78,0.743l0.898-0.16
		c-0.299,0.151-0.599,0.302-0.898,0.453c0.15,0.197,0.301,0.393,0.452,0.59c-1.053,0.647-1.928-0.061-2.685,1.348
		c0.304,0.145,0.583,0.195,0.84,0.171c-1.121,0.536-2.607,1.001-2.779,1.021l0.605,0.744l-1.488-0.744l1.042,0.744l-1.941-0.155
		l0.452,0.726c-0.25-0.236-0.592-0.243-1.041,0.019l0.295,0.451l-1.195-0.604c-0.833,1.007-0.683,1.605,0.452,1.794l-1.042-0.152
		l0.745,0.292c-0.239,0.276-0.551,0.443-0.898,0.452c0.202,0.15,0.403,0.299,0.604,0.449c-1.196-0.078-1.007,0.865-0.604,1.629
		l0.604-0.591l-0.6,1.038l2.094-1.038c-2.151,1.293-1.996,1.43-2.095,2.825c2.196,2.3,4.327,1.422,5.954-1.042
		c0.798,1.33,1.041,2.867,0.451,4.329l0.586-0.897c-0.369,2.392,0.177,4.164,0.313,6.544c2.099-0.153,8.238-5.86,4.896-6.838
		c0.902,0.109,1.735-0.148,1.801-1.195c0.098,0.299,0.196,0.598,0.293,0.897c1.829-1.058,0.66-4.21,0.895-6.038
		c0.39-3.041,1.52-6.033,3.277-8.549c1.462,3.942,2.064,8.159,1.78,12.354c2.668-1.505,5.719-1.84,8.639-0.9
		c-9.61,4.275-5.384,5.777-12.97,13.244l0.745-1.042c-3.491,2.064-12.342,4.652-12.828-1.667c0.213,0.06,0.426,0.12,0.639,0.18
		c-1.765-1.875-0.78-4.128,0.732-5.797c-6.185,1.527-4.864,6.641-2.373,9.072c-0.393-0.414-1.02-0.714-1.489-1.042
		c-0.062,0.41-0.407,0.785-0.451,1.195c-0.636-2.319-4.729,0.321-4.911,1.781c-0.143-0.516-0.407-1.095-0.451-1.627
		c0.251,1.896-0.371,3.438-2.525,2.822c0.344,0.195,0.68,0.421,1.037,0.59c-6.631,2.155-8.13,3.21-14.435,3.582l0.745,0.743
		c-0.249-0.1-0.497-0.199-0.745-0.298c10.857,9.676-9.706,13.164-14.143,18.907l0.897-0.16l-0.745,1.043
		c0.294,0.103,0.588,0.206,0.883,0.308c-0.7,0.788-1.221,1.971-1.489,2.979c2.397,1.397,9.659-1.645,12.06-2.208
		c6.688-1.57,13.468-3.154,20.339-3.628c-0.269,0.776-0.199,1.527,0.21,2.255c0.5-0.39,0.866-0.879,1.097-1.468
		c0.532-1.43,1.592-0.931,3.087-0.86c1.938,0.092,3.991,0.349,5.737,1.257c-2.598-2.978-4.33-6.278-1.302-8.152l0.451,2.387
		c0.281-0.441,0.824-0.819,1.196-1.189c0.754,2.913,3.136,3.724,4.931,5.831c-0.347-0.124-0.699-0.235-1.055-0.329l1.176,0.453
		c-0.035-0.043-0.076-0.077-0.112-0.118c5.006,1.811,3.67,11.289,9.136,10.906c-0.879,0.261-1.752,0.236-2.618-0.076
		c-0.576,1.242,0.017,2.193,0.605,3.268c0.295-0.148,0.589-0.296,0.884-0.445c0.188,0.463,0.543,0.995,0.604,1.487l0.293-1.042
		l1.043,0.904l-0.901-2.688l1.487,0.293l-1.037-1.037c0.749-0.677,1.452-0.528,1.896,0.371c-0.268-0.597-0.528-1.197-0.783-1.8
		l1.425,0.979c-0.167-1.718-1.476-1.183-1.949-2.21c-0.239-0.047-1.157-2.813-1.472-3.447c1.132-0.279,1.554,0.43,2.527,1.189
		l-0.444-0.882l1.189,0.437l-1.352-1.334c1.711-0.871,3.65-0.789,5.431-0.182c-0.102,0.133-1.442,2.17-0.8,1.301
		c-0.824,1.813,0.254,3.119,1.932,3.794c-2.011,2.003,0.363,3.365,2.372,3.116c-0.531,0.342-1.059,0.775-1.627,1.05
		c3.143,1.097,13.078-0.456,15.91-2.386c-0.922,3.84-1.68,9.597-5.388,11.898c-3.778,2.345-8.863,1.048-13.038,1.413
		c-5.378,0.471-10.697,1.699-16.122,1.528c-6.009-0.188-8.861-2.372-11.709-7.396c-12.486-22.024-43.635,0.048-55.398,11.615
		c0.058,0.005,0.103-0.009,0.152-0.016c-2.06,2.209-3.476,4.165-3.719,5.519l0.452-0.45c0.817,6.485-5.796,14.137-0.74,17.289
		c-0.901,0.252-1.619,0.049-2.095-0.745c-0.642,1.063-0.694,1.902,0.605,2.23l-1.056-0.16l1.349,0.745l-0.745,0.298
		c0.699,0.764,1.489,1.408,2.372,1.936c-0.346,0.099-0.691,0.198-1.037,0.297c0.19,2.486,3.183,5.669,4.464,7.748h-0.882
		c9.295,14.703,19.96,12.965,35.727,13.393l-1.057,0.299c1.442,1.809,2.932,2.304,4.467,1.488l-0.745,0.446l1.059,0.438
		l-0.745-0.141c1.602,0.254,2.737,1.247,3.408,2.979v-0.45l0.313,0.45l-0.154-0.604l0.447,0.604
		c0.046-0.201,0.093-0.403,0.139-0.604c0.767,0.719,1.827,0.923,2.838,0.747l-0.153-0.886c3.733,1.174,4.56,6.029,3.27,9.224
		l-0.882-0.293l1.627,0.884c-0.727,0.404-1.385,0.355-1.488-0.591c-0.195,0.692-0.39,1.385-0.585,2.077
		c-0.301-0.1-0.602-0.198-0.903-0.298c2.214,3.627,5.157,8.819,9.244,10.577c0.113,2.546,0.213,5.092,0.028,7.638
		c-0.19,2.602-1.292,5.131-1.283,7.718c0.032,9.016,11.469,12.88,14.945,20.215c-0.299,0.1-0.598,0.198-0.897,0.298
		c7.065,3.282,27.492,1.21,31.147-8.323c-0.262,0.401-0.569,0.401-0.924,0c6.034-0.86,11.465-7.599,14.604-12.286
		c1.963-2.93,3.719-6.262,4.21-9.797c0.461-3.319-1.53-5.613-1.525-8.784c0.024-16.514,20.604-24.605,25.308-39.263l-0.794,0.297
		c0.1-1.038,0.2-2.075,0.3-3.113c-6.135,2.977-13.894,6.163-20.519,2.776c-3.129-1.599-4.487-4.159-6.587-6.777
		c-2.061-2.571-4.238-5.187-4.3-8.655l0.446,0.292c-1.33-3.854-3.926-2.485-4.466-5.802l0.596-0.153
		c-2.356-1.239-8.164-9.999-8.178-12.808c1.147,1.871,2.005,3.533,4.011,4.623l1.042-4.313c1.933,7.946,8.812,14.85,13.604,21.187
		c2.84,3.753,5.678,7.588,7.815,11.796c1.383,2.721,10.361-4.282,12.11-5.86c3.652-3.294,6.629-7.272,9.181-11.459
		c2.002-3.285,5.326-7.772,6-11.603c0.774-4.398-8.377-2.425-7.48-8.236c-0.804,3.532-2.974,6.433-6.138,8.197
		c-1.29-4.031-7.574-8.8-10.985-10.88c11.159,0.335,33.043,5.795,40.787-2.083c-0.06,1.067-0.603,1.988-1.427,2.648
		c9.913,2.104,11.322,14.158,18.253,20.121c3.327-8.766,5.025-30.743,3.127-40.322l0.594,1.038v-1.489l0.646,0.452l-0.347-0.904
		l0.445,0.453l-0.102-1.038l0.397,0.142l-0.397-1.183l0.692,0.743l-0.443-1.936l0.023,0.042c-0.124-0.532,0.066-1.042,0.572-1.53
		l2.977,3.423l-0.146-1.189l0.298,1.037c0.199-0.197,0.398-0.394,0.598-0.591c0.194,0.771,0.382,1.307,1.042,1.786l-0.299-1.195
		c1.276,2.073,1.799,4.064,2.384,6.406v-1.042l0.146,1.042v-0.745l0.443,0.293l-0.146-1.038l0.445,0.293
		c0.566-1.241,0.418-2.182-0.445-2.823l0.445,0.14c0.089-0.834-0.061-1.626-0.445-2.373l0.895,1.183l0.147-0.592
		c0.544,1.771,1.147,3.532,1.938,5.209l-0.147-0.897c0.756,0.936,1.152,3.096,1.486,3.423c0.415,2.472,0.761,4.953,1.041,7.444
		l0.146-0.744c1.051,1.021,2.848,6.488,3.127,6.997c0.379-2.811-0.048-5.857-1.491-8.032l-0.446,1.037
		c-0.318-1.149-0.666-2.291-1.04-3.423l-0.148,1.052c-0.815-2.968-2.358-7.469-1.336-10.42c1.995,4.362,0.61-2.446,2.085,2.078
		l-0.146-1.196l0.297,1.196c-0.223-0.608-0.023-0.954,0.598-1.037l0.446,2.681c0.229-1.13-0.188-3.171,0-3.722
		c-2.89-4.314-0.37-10.297-3.277-14.747c-0.014-0.017-0.815,0.197-1.406-0.475c-0.707-0.803-1.188-1.768-1.513-2.78
		c-0.761-2.375-0.695-4.916-1.4-7.301c0.65-0.035,0.471-0.604,0.147-1.189c0.453,0.736,0.863,1.554,1.19,2.373
		c-0.138-0.906-0.452-1.838-0.896-2.67l0.146,0.299c-0.31-1.942-0.617-3.72-1.34-5.515l0.446,0.591l-0.249-0.744h0.102l-0.896-1.337
		l0.794,0.141c-0.41-0.373-0.627-0.903-0.646-1.487l0.147,0.298l-0.446-1.043h0.299c0.032,0.19-1.584-4.209-1.636-4.306h0.146
		c-1.002-1.785-1.448-3.075-2.33-5.209c11.676,20.177,15.603,45.415,13.948,68.483l0.15-0.46c0.001,0.315-0.097,0.614-0.293,0.898
		c0.049-0.846,0.098-1.695,0.146-2.541c-0.127,0.239-0.313,1.183-0.297,1.643v-1.333l-0.15,0.591l-0.595-1.037v1.037
		c-1.147-0.146-1.791-0.79-1.935-1.938c-1.646,2.249-1.266,3.937,0.595,5.368l0.448-0.298c0.463,4.777,0.454,9.529,0.035,14.229
		c0.693-3.534,1.159-6.354,1.602-9.627v0.16C275.818,154.901,274.197,150.927,275.013,147.146z M35.072,58.672
		c0.312-0.397,0.633-0.785,0.949-1.179C35.93,58.316,35.613,58.709,35.072,58.672z M36.698,66.561
		c0.247-0.247,0.493-0.495,0.74-0.742c0.1,0.15,0.2,0.299,0.299,0.449L36.698,66.561z M56.403,37.224
		C56.5,37.177,56.532,37.162,56.403,37.224L56.403,37.224z M56.244,37.301c-0.025,0.012-0.054,0.026-0.083,0.041
		C56.187,37.329,56.213,37.316,56.244,37.301z M56.047,37.396h0.093c-2.937,2.444-5.821,4.949-8.654,7.513
		c4.367-4.213,9.269-8.179,11.169-9.646C57.934,36.194,57.063,36.904,56.047,37.396z M99.651,22.539
		C99.592,22.565,99.624,22.551,99.651,22.539L99.651,22.539z M97.574,23.1c0.684-0.193,1.453-0.414,2.096-0.569
		C99.002,22.831,98.303,23.02,97.574,23.1z M136.572,8.059l0.904-0.138l-0.298-0.161c0.805,0.018,1.604,0.044,2.405,0.07
		C138.584,7.85,137.582,7.91,136.572,8.059z M132.266,8.213h1.19c-1.696,0.425-3.327,0.893-5.07,1.036l0.902-0.137h-1.336
		c1.029,0.05,2.128-0.167,2.978-0.605l-1.056,0.158l0.744-0.298c-0.83,0.201-1.682,0.35-2.525,0.438l0.154,0.152
		c-0.556-0.075-1.12-0.024-1.643,0.155h1.038l-0.885,0.297c-0.001,0-1.348,0.132-1.642,0.141l0.451-0.141
		c-2.89,0.387-5.842,0.587-8.638,1.33l0.154-0.139c-1.567,0.202-3.204,0.271-4.704,0.735c0.088,0.021,0.17,0.063,0.238,0.149
		c-0.652-0.029-1.297,0.023-1.936,0.159l1.33,0.138c-1.403-0.199-2.462,0.188-3.721,0.447l0.313-0.14l-0.898,0.298l0.446-0.298
		c-2.216,0.409-4.458,0.934-6.56,1.63l0.606-0.294c-0.488,0.101-1.02,0.261-1.49,0.45l0.453-0.296
		c-0.987,0.313-1.889,0.644-2.839,1.042l1.038-0.454c-1.075,0.223-2.128,0.574-3.116,1.039l0.138-0.14
		c-0.722,0.154-1.417,0.405-2.073,0.745l0.586-0.309l-1.331,0.607l0.293-0.16c-0.772,0.236-1.5,0.479-2.233,0.744h0.154
		c-0.331,0.181-0.678,0.333-1.036,0.453l0.139-0.154C85.855,19,80.938,21.271,76.15,23.789c19.57-10.777,41.895-16.587,64.257-16.32
		C137.697,7.565,134.951,7.832,132.266,8.213z M163.279,12.658c0.164,0.012,0.341,0.02,0.532,0.021h-0.293l1.033,0.293
		C164.078,12.854,163.663,12.75,163.279,12.658z M131.491,78.126c0.058-0.076,0.116-0.154,0.171-0.241
		C131.637,77.962,131.573,78.043,131.491,78.126z M156.266,118.299c-0.053-0.167-0.115-0.337-0.197-0.514
		C156.299,117.964,156.358,118.135,156.266,118.299z M155.144,128.441c-3.047-2.074-3.093-4.932-0.116-8.577l0.298,0.743
		c0.1-0.923,0.43-1.704,0.992-2.34c1.334-0.977,1.662-3.979,4.062-2.418l-1.627-0.158c0.294,0.1,0.589,0.199,0.883,0.298
		c-0.098,0.148-0.194,0.297-0.292,0.445c0.993-0.046,1.984-0.093,2.977-0.14c0.184,1.195-0.554,1.245-1.49,1.926
		c1.717,2.272,3.858,2.15,6.584-0.886c-3.104,1.097-4.067,0.033-2.862-2.231l-0.14,1.038c1.349-2.106,3.817-2.8,5.98-3.876
		c-0.992,1.839-1.985,3.678-2.979,5.517c3.882,0.865,7.377,2.876,10.075,5.798C175.918,128.716,162.028,126.007,155.144,128.441z
		 M173.622,24.29c0.148-0.093,0.315-0.113,0.501-0.061L173.622,24.29z M180.986,16.94c-1.83-0.375-3.915-0.735-5.276-1.576
		C177.433,15.887,179.197,16.418,180.986,16.94z M180.618,62.388c0.433-1.857-1.472-5.01-3.875-7.276
		c3.877,0.383,6.015,2.611,6.408,6.686L180.618,62.388z M182.058,56.883c0.745,0.097,1.507,0.15,2.284,0.155
		C183.532,57.264,182.765,57.192,182.058,56.883z M206.074,28.464c1.444,0.772,2.498,1.426,4.401,2.306
		c-0.773,0.167-1.349-0.102-1.726-0.81c0.431,1.391,1.225,2.43,2.383,3.118l-1.487-0.587l0.743,0.884
		c-3.772-1.949-7.598-3.823-11.161-6.144c-2.602-1.695-6.127-3.633-8.189-6.064c0.42,0.424,0.987,0.684,1.489,0.601
		c-1.032-0.722-3.018-1.67-4.021-1.936l0.742,0.447c-2.975-0.807-5.807-1.76-8.636-2.98c0.559,0.119,1.121,0.166,1.69,0.141
		l-0.389-0.229c12.394,3.575,22.069,6.726,32.986,14.211c-0.638-0.324-1.293-0.623-1.979-0.877l0.299-0.154
		C210.759,29.952,208.456,29.227,206.074,28.464z M214.634,32.508c0.835,0.453,1.752,0.863,2.557,1.372
		c-0.6-0.378-1.254-0.704-1.872-1.045c5.676,2.873,10.869,6.649,15.353,11.162C225.322,39.388,219.567,35.272,214.634,32.508z
		 M239.274,145.896l0.444-0.453c0.051,0.445,0.123,0.902,0.209,1.363C239.771,146.54,239.557,146.237,239.274,145.896z
		 M258.712,81.333c-1.542-2.518-2.911-5.088-4.258-7.617l0.298,0.744l-0.743-1.333c-0.058,0.342,0.002,0.737,0.134,1.118
		c-1.165-2.405-2.482-3.895-4.751-5.447c-0.141,0.173-0.173,0.375-0.1,0.608c-1.986-2.33-3.588-5.041-5.109-7.597
		c0.04,1.554,0.765,2.896,1.635,4.173l-1.34-1.04v0.884c-1.949-1.654-3.802-5.402-5.205-7.737c1.147,0.542,1.975,1.596,2.679,2.687
		l-0.297-0.744l1.34,1.78c-1.19-1.885-2.539-3.686-3.277-5.801l1.341,1.489l0.148-0.309c0.329,0.595,0.726,1.144,1.189,1.641
		l-0.298-0.591l0.446,0.591c-0.282-0.463-0.482-0.96-0.595-1.488l1.189,0.897h-0.146c0.193,0.431,0.508,0.803,0.896,1.042
		l-0.447-0.45c1.144,0.877,2.187,1.869,3.126,2.975l-1.041-1.334l0.297,0.299l-0.599-0.744l0.148,0.139
		c-0.361-0.589-0.759-1.186-1.175-1.786c5.876,7.23,12.206,15.615,15.415,24.404C258.886,81.664,258.678,81.311,258.712,81.333z
		 M273.667,153.643c0,0-0.001,0.002-0.001,0.004l0.019-0.147L273.667,153.643z M273.812,152.461l-0.076,0.157l0.076-0.16V152.461z"
		/>
	<path d="M180.773,61.719c0.015-0.062,0.025-0.109,0.032-0.134c0-0.002,0.002-0.009,0.002-0.01c0,0.001-0.001,0.005-0.002,0.007
		c0.001-0.002,0.002-0.006,0.002-0.007c-0.001,0.002-0.001,0.006-0.002,0.009C180.801,61.604,180.791,61.644,180.773,61.719
		c0.015-0.062,0.025-0.105,0.031-0.13C180.799,61.611,180.79,61.652,180.773,61.719z"/>
	<path d="M180.665,62.188c0.021-0.095,0.048-0.208,0.073-0.315C180.719,61.956,180.693,62.064,180.665,62.188z"/>
	<path d="M36.698,66.561C36.945,66.313,36.698,66.561,36.698,66.561L36.698,66.561z"/>
	<path d="M155.144,128.441C162.028,126.007,152.097,126.367,155.144,128.441L155.144,128.441z"/>
	<path d="M152.328,135.264c-0.056-0.139-0.103-0.306-0.134-0.52C152.131,134.907,152.193,135.079,152.328,135.264z"/>
	<path d="M89.403,34.127c-0.375,0.199-0.771,0.429-1.212,0.728C88.696,34.739,89.11,34.493,89.403,34.127z"/>
	<path d="M180.789,61.657c-0.022,0.094-0.057,0.243-0.089,0.383C180.741,61.865,180.772,61.727,180.789,61.657z"/>
	<path d="M163.279,12.658C163.663,12.75,163.443,12.67,163.279,12.658L163.279,12.658z"/>
	<path fill="none" stroke="#000000" stroke-width="0" stroke-linecap="round" stroke-linejoin="round" d="M9.294,163.319
		c-0.021-0.13-0.032-0.195-0.032-0.195"/>
	<path fill="none" stroke="#000000" stroke-width="0" stroke-linecap="round" stroke-linejoin="round" d="M30.149,217.517
		c-0.011-0.017-0.011-0.017-0.008-0.012"/>
	<path d="M31.339,217.67c0.049,0.047,0.095,0.106,0.145,0.15l-0.292-0.604l0.591,0.305c-3.518-13.637-6.389-27.099-12.5-39.893
		c-0.15,0.097-0.301,0.194-0.452,0.291c0.311-0.953-0.899-1.499-0.745-2.386l-0.152,0.154v-0.747l-0.14,0.155l-0.898-2.097
		l-0.159,0.299l-0.584-1.181c-0.401,0.554-0.401,1.095,0,1.627c-0.456-0.113-0.606-0.46-0.452-1.036l-0.591,0.745
		c0.179-0.605,0.055-1.092-0.304-1.482l0.753,0.584c0.369-1.63-0.157-3.185-1.348-4.467l-0.293,1.192v-0.887l-0.298,0.3v-1.042
		l-0.293,0.437c1.631-2.998,1.118-6.117,0.433-10.112l-0.14,0.589c-0.324-5.099-3.013-9.29-3.424-14.283l-0.297,0.437
		c1.07-4.244-0.479-8.95-0.154-13.243l0.452,0.745l-0.744-3.135v1.194c-1.302-2.844-0.532-7.192-0.233-10.251l-0.065,0.282
		c-0.259-1.112-0.221-2.13,0.14-3.275l0.158,0.296c0.249-1.651-0.181-1.213-0.006-2.768c0.064-0.322,0.14-0.642,0.206-0.965
		c-0.208,0.366-0.311,0.761-0.304,1.188l0.105-0.292c-0.104,0.368-0.352,0.92-0.521,1.2c0-0.003,0.001-0.006,0.002-0.009
		c-0.022,0.104-0.055,0.205-0.073,0.311v-0.153c-0.052,0.496-0.103,0.991-0.154,1.486l0.089-0.861
		c-0.519,3.057-0.993,6.12-1.424,9.19l0.139-0.592c-0.043,0.523-0.098,1.043-0.16,1.563c0.001-0.054-0.007-0.111-0.041-0.181
		c-0.016,0.119-0.031,0.238-0.046,0.358c0.048-0.034,0.07-0.08,0.082-0.129c-0.002,0.02-0.004,0.041-0.006,0.061l0.032-0.027
		c-0.011,0.009-0.021,0.02-0.032,0.028v-0.001c-0.124,9.586-0.191,19.272,0.523,28.86c0.001-0.233-0.019-0.464-0.01-0.698
		c0.149,2.836,0.683,5.598,1.598,8.285l0.292-0.312l0.42,1.382c-0.285-0.359-0.425-0.77-0.42-1.23c-0.15,0.098-0.3,0.195-0.45,0.293
		c-0.925,0.412-0.633-1.384-1.086-3.808c0.647,6.367,1.741,12.783,3.596,19.433c-0.042-0.249-0.082-0.483-0.125-0.742
		c0.214,0.169,0.261,0.437,0.141,0.8c-0.005-0.02-0.011-0.039-0.016-0.058c0.059,0.331,0.225,0.807,0.293,1.045
		c-0.045-0.251-0.085-0.486-0.127-0.746c0.202,0.188,0.25,0.454,0.145,0.806c-0.006-0.02-0.011-0.039-0.017-0.06
		c0.058,0.31,0.191,0.644,0.276,0.928c-0.037-0.205-0.073-0.405-0.111-0.624c0.15,0.174,0.192,0.398,0.127,0.673
		c-0.005-0.017-0.01-0.031-0.016-0.049c0.029,0.245,0.101,0.479,0.215,0.702c-0.004-0.016-0.009-0.031-0.014-0.047
		c0.354,0.88,0.666,1.811,0.89,2.742c-0.015-0.019-0.024-0.037-0.039-0.055c0.154,0.471,0.318,0.938,0.478,1.406
		c-0.106-0.408-0.207-0.814-0.291-1.209c0.771,2.299,3.01,8.187,3.918,10.279c-0.309-0.583-0.616-1.186-0.917-1.817
		c16.167,39.563,49.011,65.582,86.203,76.168C75.558,259.989,51.511,241.537,31.339,217.67z M10.228,164.333l0.262-0.269
		l0.264,0.606C10.539,164.601,10.373,164.478,10.228,164.333z M18.385,196.521C18.385,196.477,19.877,200.056,18.385,196.521
		L18.385,196.521z M30.041,216.118c-0.315-0.38-0.631-0.756-0.944-1.138C29.43,215.315,29.736,215.714,30.041,216.118z
		 M22.998,205.988c-0.018-0.031-0.029-0.051-0.041-0.071c-0.011-0.02-0.017-0.029-0.02-0.034c-0.08-0.139-0.159-0.276-0.238-0.415
		l0.306,0.484c0.002-0.031-0.01-0.059-0.015-0.086l0.015,0.025v-0.145c0.036,0.139,0.097,0.283,0.163,0.43l-0.163-0.285
		c0.054,0.115,0.125,0.25,0.199,0.382c-0.166-0.271-0.333-0.538-0.504-0.806C22.699,205.468,22.859,205.746,22.998,205.988z
		 M24.337,208.275c0.053,0.035,0.095,0.079,0.127,0.131l-0.124-0.125l0.151,0.315L24.337,208.275z M27.33,213.186
		c0.294,0.401,0.589,0.802,0.884,1.203c-0.202-0.226-0.394-0.457-0.574-0.698c0.004,0.01,0.011,0.023,0.014,0.031
		C27.544,213.544,27.438,213.363,27.33,213.186z M28.181,214.549c0,0,0.005,0.008,0.01,0.016
		C28.188,214.56,28.187,214.559,28.181,214.549l0.099,0.135l-0.058-0.124c0.034,0.077,0.072,0.153,0.113,0.229
		C28.284,214.709,28.231,214.629,28.181,214.549z M28.642,215.267c-0.01-0.017-0.02-0.033-0.031-0.049
		c0.193,0.163,0.321,0.362,0.382,0.597c-0.104-0.159-0.206-0.319-0.308-0.479C28.691,215.344,28.687,215.338,28.642,215.267z
		 M30.149,217.517c-0.124-0.176-0.248-0.352-0.372-0.527c0.046,0.051,0.088,0.104,0.145,0.146l-0.373-0.513
		c0.02,0.055,0.053,0.104,0.082,0.155c-0.146-0.218-0.294-0.437-0.439-0.651l0.125,0.123l-0.376-0.606
		c0.458,0.578,0.879,1.185,1.237,1.836c-0.045-0.057-0.085-0.124-0.131-0.176L30.149,217.517z M30.656,218.24
		c-0.03-0.063-0.064-0.126-0.1-0.189c0.211,0.316,0.427,0.642,0.636,0.954C31.007,218.755,30.838,218.494,30.656,218.24z"/>
	<path d="M22.937,205.883c0.02,0.035,0.04,0.07,0.061,0.105C22.94,205.889,22.932,205.874,22.937,205.883z"/>
	<path d="M28.654,215.285c-0.009-0.014-0.015-0.022-0.013-0.019c0.015,0.022,0.029,0.046,0.044,0.068
		c-0.002-0.003-0.002-0.003-0.007-0.011C28.732,215.407,28.705,215.361,28.654,215.285z"/>
	<path d="M13.426,184.26c-0.287-0.876-0.566-1.755-0.836-2.641C12.559,182.675,12.841,183.55,13.426,184.26z"/>
	<path d="M176.814,270.188c-0.039,0.011-0.078,0.02-0.117,0.031c-7.21,2.012-14.398,4.1-21.603,6.132
		C162.335,274.299,169.574,272.242,176.814,270.188z"/>
	<path d="M102.817,269.087c21.146,7.056,27.34,8.028,8.842,2.561c21.313,5.281,43.897,4.547,65.038-1.429
		c0.083-0.023,0.165-0.047,0.247-0.07c4.711-1.359,9.338-3.006,13.849-4.929C162.929,276.123,131.549,277.264,102.817,269.087z"/>
	<path d="M178.737,269.643c-0.181,0.05-0.36,0.103-0.541,0.152c2.65-0.752,2.738-0.777-0.067,0.02
		c-0.396,0.109-0.789,0.225-1.185,0.334c-0.034,0.01-0.067,0.021-0.102,0.031C177.475,270,178.104,269.817,178.737,269.643z"/>
	<path d="M190.793,265.22c18.232-7.136,35.191-18.468,49.35-34.239C225.924,245.807,208.424,257.757,190.793,265.22z"/>
	<path d="M30.656,218.24C30.838,218.494,30.626,218.178,30.656,218.24L30.656,218.24z"/>
	<path d="M112.377,11.334c-0.143-0.033-0.309,0.01-0.506,0.149C112.036,11.42,112.209,11.385,112.377,11.334z"/>
	<path d="M58.655,35.263c-0.276,0.213-0.545,0.437-0.821,0.652C58.156,35.664,58.471,35.416,58.655,35.263z"/>
	<path d="M100.998,23.048c0.287-0.185,0.551-0.365,0.75-0.54C101.424,22.624,101.178,22.808,100.998,23.048z"/>
	<path d="M36.021,57.493C35.705,57.887,35.745,57.884,36.021,57.493L36.021,57.493z"/>
	<path d="M100.706,23.691c0.053-0.252,0.156-0.461,0.292-0.643C100.662,23.135,100.564,23.35,100.706,23.691z"/>
	<path d="M27.409,213.302c0.019,0.024,0.026,0.031,0.024,0.025c-0.035-0.047-0.069-0.095-0.104-0.142
		c0.027,0.045,0.046,0.072,0.057,0.089C27.469,213.399,27.538,213.491,27.409,213.302z"/>
	<path d="M27.409,213.302C27.568,213.535,27.428,213.326,27.409,213.302L27.409,213.302z"/>
	<path d="M9.453,118.527c-0.098,0.326-0.151,0.668-0.158,1.006L9.453,118.527z"/>
	<path d="M256.141,162.088c-0.25-0.127-0.622-0.314-0.859-0.433c-0.055-0.133-0.127-0.188-0.225-0.112
		c0.085,0.043,0.157,0.092,0.236,0.138c-0.004-0.01-0.008-0.017-0.012-0.025C255.683,161.857,255.971,162.003,256.141,162.088z"/>
	<path d="M255.207,165.556l-0.301-0.293c0.474,1.229,0,0,0,0c0.474,1.229,0.862,2.448,1.19,3.722
		c1.327-2.57,1.785-5.798-0.804-7.304C255.556,162.415,255.328,165.304,255.207,165.556z"/>
	
		<line fill="none" stroke="#000000" stroke-width="0" stroke-linecap="round" stroke-linejoin="round" x1="161.796" y1="37.194" x2="161.796" y2="37.194"/>
	<path d="M161.727,37.088l-1.629,0.154c0.595,0.546,1.188,1.094,1.781,1.642C163.797,38.127,162.295,37.958,161.727,37.088z
		 M161.796,37.194c0.007,0.01,0.013,0.019,0.02,0.029C161.809,37.214,161.803,37.204,161.796,37.194
		c-0.004-0.006-0.007-0.011-0.011-0.017C161.789,37.184,161.792,37.188,161.796,37.194z"/>
	<path d="M31.674,63.555c-0.215,0.217-0.379,0.481-0.482,0.774L31.674,63.555z"/>
	<path d="M9.295,119.533L9.22,120.03C9.283,119.869,9.308,119.703,9.295,119.533z"/>
	<path fill="none" stroke="#000000" stroke-width="0" stroke-linecap="round" stroke-linejoin="round" d="M131.068,139.506
		c0,0-0.022-0.007-0.055-0.016"/>
	<path d="M131.142,139.309c0.421-1.122,0.841-2.244,1.262-3.366l-5.8,0.293c0.328,0.579,3.509,3.539,4.357,3.238
		c-0.036-0.01-0.077-0.023-0.125-0.037c-0.023-0.006-0.046-0.013-0.07-0.02c-0.105-0.031-0.188-0.055-0.259-0.076
		c-0.071-0.021-0.133-0.039-0.181-0.053c0.048,0.014,0.11,0.032,0.181,0.053c0.071,0.021,0.154,0.045,0.259,0.076
		c0.024,0.007,0.047,0.014,0.07,0.02c0.047,0.014,0.089,0.026,0.125,0.037C131.041,139.446,131.107,139.399,131.142,139.309z"/>
	<path d="M126.631,136.284c0.02,0.036,0.05,0.089,0.085,0.151C126.69,136.389,126.662,136.339,126.631,136.284z"/>
	<path d="M126.716,136.435c0.005,0.008,0.011,0.019,0.015,0.026C126.726,136.452,126.721,136.444,126.716,136.435z"/>
	<path d="M126.973,136.889C126.983,136.907,126.983,136.908,126.973,136.889L126.973,136.889z"/>
	<path d="M126.731,136.461c0.063,0.112,0.137,0.242,0.188,0.332C126.879,136.724,126.817,136.614,126.731,136.461z"/>
	<path d="M126.604,136.236c0.01,0.018,0.018,0.031,0.027,0.048C126.615,136.256,126.604,136.236,126.604,136.236z"/>
	<path d="M126.919,136.793c0.029,0.052,0.045,0.079,0.054,0.095C126.962,136.87,126.944,136.837,126.919,136.793z"/>
	<path fill="none" stroke="#000000" stroke-width="0" stroke-linecap="round" stroke-linejoin="round" d="M130.836,139.438
		c0.047,0.014,0.089,0.026,0.125,0.037"/>
	
		<line fill="none" stroke="#000000" stroke-width="0" stroke-linecap="round" stroke-linejoin="round" x1="130.965" y1="139.476" x2="130.961" y2="139.475"/>
	<path fill="none" stroke="#000000" stroke-width="0" stroke-linecap="round" stroke-linejoin="round" d="M130.508,139.342
		c-0.071-0.021-0.133-0.039-0.181-0.053"/>
	<path fill="none" stroke="#000000" stroke-width="0" stroke-linecap="round" stroke-linejoin="round" d="M131.013,139.49
		c-0.018-0.005-0.031-0.009-0.048-0.014"/>
	<path fill="none" stroke="#000000" stroke-width="0" stroke-linecap="round" stroke-linejoin="round" d="M130.836,139.438
		c-0.023-0.006-0.046-0.013-0.07-0.02"/>
	<path fill="none" stroke="#000000" stroke-width="0" stroke-linecap="round" stroke-linejoin="round" d="M130.767,139.418
		c-0.105-0.031-0.188-0.055-0.259-0.076"/>
	<path d="M162.331,39.182l0.883,0.138C163.32,38.446,163,38.426,162.331,39.182z"/>
	<path d="M129.581,98.43c0.603-1.2,0.869-2.146,0.883-3.424C128.69,95.728,128.545,96.219,129.581,98.43z"/>
	<path fill="none" stroke="#000000" stroke-width="0" stroke-linecap="round" stroke-linejoin="round" d="M146.894,134.391
		c0.049,0.01,0.067,0.013,0.065,0.013"/>
	<path fill="none" stroke="#000000" stroke-width="0" stroke-linecap="round" stroke-linejoin="round" d="M146.621,134.337
		c0.028,0.005,0.05,0.01,0.074,0.015"/>
	<path fill="none" stroke="#000000" stroke-width="0" stroke-linecap="round" stroke-linejoin="round" d="M146.695,134.352
		c0.075,0.015,0.147,0.029,0.198,0.039"/>
	<path d="M110.819,129.691l-1.628,0.436C110.335,131.288,110.908,131.089,110.819,129.691z"/>
	<path d="M147.29,142.192c-0.024,0.186-0.029,0.335-0.025,0.468c0,0.032,0.002,0.063,0.003,0.093
		c0.006,0.067,0.014,0.126,0.025,0.18c0.229,1.563,2.147,1.37,3.678,0.906c-1.085,0.405-0.561,0.212,0.028-0.008
		c0.456-0.14,0.878-0.301,1.204-0.445c-0.271-0.059-0.172-0.307,0.298-0.744C150.909,143.248,148.821,142.839,147.29,142.192z"/>
	<path d="M150.662,144c0.061-0.023,0.181-0.071,0.334-0.133C150.819,143.938,150.712,143.98,150.662,144z"/>
	<path d="M113.498,19.378c0.345,0.044,0.497,0.195,0.452,0.452c-0.009,0.106-0.115,1.334-0.154,1.781
		c1.746-0.158,4.423-0.838,5.815-1.939C117.679,18.36,115.799,18.057,113.498,19.378z"/>
	<path d="M165.462,36.498c0,0,0.057-0.012,0.135-0.029C165.553,36.479,165.513,36.487,165.462,36.498z"/>
	<path fill="none" stroke="#000000" stroke-width="0" stroke-linecap="round" stroke-linejoin="round" d="M165.857,36.412
		c0.068-0.015,0.113-0.024,0.146-0.031"/>
	<path fill="none" stroke="#000000" stroke-width="0" stroke-linecap="round" stroke-linejoin="round" d="M165.597,36.469
		c0.077-0.017,0.174-0.038,0.261-0.057"/>
	<path d="M167.971,38.14c-0.003-0.013-0.006-0.022-0.009-0.035C167.967,38.125,167.971,38.14,167.971,38.14z"/>
	<path d="M167.971,38.14c-0.331-1.362-1.153-1.936-2.509-1.642l0.744,0.59l-1.351-0.297L167.971,38.14z"/>
	<path d="M167.962,38.105c-0.004-0.018-0.01-0.04-0.017-0.069C167.951,38.06,167.956,38.081,167.962,38.105z"/>
	<path d="M167.886,37.791c-0.019-0.076-0.032-0.133-0.042-0.173C167.855,37.664,167.87,37.725,167.886,37.791z"/>
	<path d="M167.945,38.037c-0.008-0.032-0.016-0.066-0.022-0.094C167.931,37.977,167.938,38.009,167.945,38.037z"/>
	<path d="M167.844,37.618c-0.005-0.021-0.01-0.039-0.013-0.052C167.834,37.578,167.839,37.598,167.844,37.618z"/>
	<path d="M167.831,37.565C167.82,37.522,167.822,37.53,167.831,37.565L167.831,37.565z"/>
	<path d="M167.923,37.943c-0.012-0.049-0.024-0.102-0.037-0.152C167.896,37.835,167.908,37.884,167.923,37.943z"/>
	<path fill="none" stroke="#000000" stroke-width="0" stroke-linecap="round" stroke-linejoin="round" d="M166.003,36.381
		c0.034-0.007,0.056-0.012,0.058-0.013"/>
	<path d="M163.666,39.024c0,0,0.13,0.014,0.255,0.027C163.852,39.044,163.777,39.036,163.666,39.024z"/>
	<path fill="none" stroke="#000000" stroke-width="0" stroke-linecap="round" stroke-linejoin="round" d="M164.078,39.068
		c0.03,0.003,0.033,0.003,0.042,0.004"/>
	
		<line fill="none" stroke="#000000" stroke-width="0" stroke-linecap="round" stroke-linejoin="round" x1="164.141" y1="39.074" x2="164.125" y2="39.073"/>
	<path d="M163.666,39.024c1.089,0.116,1.828-0.262,2.094-1.332c-0.842-0.375-1.776-0.485-2.686-0.297l0.452,0.297l-0.743-0.159
		L163.666,39.024z"/>
	<path d="M164.125,39.073c-0.012-0.001-0.024-0.002-0.047-0.005c0.012,0.001,0.034,0.003,0.042,0.004
		C164.155,39.076,164.149,39.075,164.125,39.073z"/>
	<path d="M163.862,39.045c0.077,0.008,0.158,0.017,0.216,0.023c-0.066-0.007-0.184-0.02-0.412-0.044c0,0,0.278,0.03,0.412,0.044
		C164.036,39.063,163.96,39.055,163.862,39.045z"/>
	<path d="M163.921,39.051C164.121,39.073,164.297,39.091,163.921,39.051L163.921,39.051z"/>
	<path d="M154.144,44.094c0.362,0.104,0.503,0.248,0.558,0.369c-0.01,0.004-0.009,0.076,0.032,0.222
		c0-0.073-0.005-0.127-0.012-0.165c0.007,0.026,0.011,0.049,0.012,0.07c0-0.268,0-0.537,0-0.805L154.144,44.094z"/>
	<path d="M154.733,44.591c0,0.032,0,0.063,0,0.095C154.73,44.675,154.736,44.64,154.733,44.591z"/>
	<polygon points="154.594,45.429 154.733,44.839 153.851,44.977 	"/>
	<path d="M165.565,60.329c0.405-0.047,0.992-0.215,1.812-0.604c-1.939-0.599-4.229-1.231-3.851-3.721
		c-0.649,0.119-1.245,0.367-1.787,0.744c0.197,0.145,0.395,0.291,0.592,0.436c-0.197,0.202-0.395,0.404-0.592,0.605
		C162.134,59.08,163.156,60.743,165.565,60.329z"/>
	<path d="M161.135,55.695l1.335-0.297l-0.432,0.902l1.488-0.45l-0.903-0.744h0.903l-0.903-0.292h0.745l-0.745-0.606
		c0.248,0.051,0.497,0.102,0.745,0.153c-2.322-1.785-1.655-4.52-0.293-6.699c-1.024,1.448-3.177,5.779-1.284,6.991
		C161.35,54.741,161.13,55.085,161.135,55.695z"/>
	<path d="M161.135,55.695C161.135,55.695,161.13,55.085,161.135,55.695L161.135,55.695z"/>
	<polygon points="131.208,98.866 131.953,99.175 131.953,98.568 	"/>
	<path d="M167.711,25.495C167.694,25.562,167.697,25.55,167.711,25.495L167.711,25.495z"/>
	<path d="M167.824,25.041c-0.269,1.082,0.241,1.63,1.339,1.488c-0.248,0.195-0.496,0.39-0.744,0.585
		c1.003,0.492,2.007,0.504,2.978,0c-0.599-1.198-1.313-1.727-2.146-1.601l0.063-0.026L167.824,25.041z"/>
	<path d="M167.824,25.041c0,0-0.081,0.328-0.113,0.455C167.728,25.43,167.76,25.3,167.824,25.041z"/>
	<path d="M169.163,26.528C167.99,26.68,168.866,26.653,169.163,26.528L169.163,26.528z"/>
	<path d="M166.345,23.392C168.177,24.752,168.289,24.835,166.345,23.392L166.345,23.392z"/>
	<path d="M144.045,89.461C143.891,89.602,143.959,89.54,144.045,89.461L144.045,89.461z"/>
	<path d="M142.979,89.19c0.294,0.562,0.69,0.613,1.195,0.153C143.785,89.011,143.388,88.959,142.979,89.19z"/>
	<path d="M151.305,44.977l-0.431,1.647C151.604,46.157,151.916,45.625,151.305,44.977z"/>
	<path d="M142.979,91.422c0,0,0.001-0.027,0.001-0.061C142.98,91.382,142.98,91.396,142.979,91.422l1.486-1.333
		c-0.523-0.135-1.237,0-1.78,0C142.783,90.533,142.882,90.978,142.979,91.422z M142.981,91.356
		C142.983,91.258,142.986,91.118,142.981,91.356L142.981,91.356z"/>
	<path d="M138.22,93.359l1.037-1.937C138.057,91.666,137.712,92.312,138.22,93.359z"/>
	<polygon points="29.391,216.33 29.317,216.25 29.55,216.621 	"/>
	<path d="M107.098,28.016c-0.027,0.059-0.041,0.088-0.063,0.135C107.07,28.076,107.098,28.016,107.098,28.016z"/>
	<path d="M106.922,28.395C106.856,28.539,106.873,28.501,106.922,28.395L106.922,28.395z"/>
	<path d="M106.71,28.72C106.694,28.75,106.696,28.747,106.71,28.72L106.71,28.72z"/>
	<path d="M106.827,28.508c-0.053,0.096-0.096,0.175-0.117,0.212C106.728,28.689,106.764,28.624,106.827,28.508z"/>
	<path d="M107.098,28.016c0,0-0.034,0.062-0.082,0.148C107.043,28.116,107.066,28.072,107.098,28.016z"/>
	<path d="M107.016,28.165c-0.079,0.142-0.142,0.259-0.189,0.343C106.89,28.395,106.961,28.264,107.016,28.165z"/>
	<path d="M107.098,28.016h-4.173c0.256,0.708,0.716,0.807,1.349,0.292l-0.604,0.899C105.052,30.055,106.195,29.658,107.098,28.016z"
		/>
	<path fill="none" stroke="#000000" stroke-width="0" stroke-linecap="round" stroke-linejoin="round" d="M106.922,28.395
		c0.034-0.073,0.077-0.165,0.113-0.244"/>
	<path d="M104.985,29.638C104.905,29.637,104.832,29.637,104.985,29.638L104.985,29.638z"/>
	<path d="M80.569,43.229c-0.156,0.128-0.279,0.228-0.373,0.304C80.338,43.417,80.496,43.29,80.569,43.229z"/>
	<path fill="none" stroke="#000000" stroke-width="0" stroke-linecap="round" stroke-linejoin="round" d="M116.008,53.354
		c0.015-0.012,0.015-0.012,0.036-0.029"/>
	<path d="M115.3,53.91l0.744-0.586C115.647,53.396,115.399,53.592,115.3,53.91z"/>
	<path d="M116.008,53.354C115.892,53.448,115.955,53.396,116.008,53.354L116.008,53.354z"/>
	<path d="M124.23,38.884c-0.2-0.603-0.683-0.42-1.195,0l0.884-1.642l-1.921,0.898l0.592-0.898h-1.042l1.627-0.592
		c-0.646-0.579-2.694-0.668-3.41-0.444l0.292-0.454l-1.036,0.292l0.883-0.444c-0.829-0.404-1.735-0.479-2.526-0.139l0.292,0.583
		c-2.341-1.161-5.063-1.562-6.699,0.903c0-0.301,0-0.602,0-0.903l-0.292,0.903l-0.158-1.487c-1.041,0.972-2.029,0.645-2.665,2.073
		l0.744-0.446c-0.15,0.248-0.301,0.496-0.452,0.744c0.294,0.149,0.589,0.297,0.883,0.446c-0.577,2.086-1.895,4.017-4.307,3.721
		c0.149,0.1,0.298,0.2,0.447,0.3c-1.341,0.45-2.644,1.148-3.583,2.232c-0.098-0.197-0.196-0.393-0.293-0.59
		c-0.572,0.068-1.497,0.484-1.782,1.642l1.081-0.415c-0.286,0.25-0.163,0.939-0.042,1.16l-0.883-0.308l0.43,0.604l-0.882-0.158
		l0.452,0.297l-0.452-0.139v0.745l-0.154-0.453l-1.197,1.335c0.53-0.813,0.551-1.568-0.138-2.232
		c0.511,2.269-0.382,3.561-2.681,3.875l0.292-0.59l-1.195,0.883l-0.015-0.139c-0.734-0.137-1.122,0.157-1.16,0.884l-0.154-1.783
		c-0.053,0.299-0.105,0.599-0.158,0.898c-0.322-0.735-0.819-0.837-1.49-0.307l1.648,0.605l-0.591-0.159l0.745,0.903l-1.94-1.35
		l0.451,1.35l-1.057-1.042l-0.14,1.18l-0.744-0.437c-0.133,0.612,0.069,1.039,0.598,1.286l-1.948-0.54l0.606,0.883
		c-0.748-0.716-1.294-0.616-1.642,0.297c0.69-0.036,1.253,0.15,1.349,0.745l-1.488-0.591l0.292,0.293l-1.191,0.451l0.744,0.293
		c-0.775-0.333-1.421-0.133-1.94,0.605c0.973,0.255,1.784,0.042,2.388-0.744c-0.397,0.596-0.794,1.191-1.191,1.787
		c0.058-0.701-0.289-1.002-1.041-0.904l0.451,0.904c-0.543,0.469-1.144,0.567-1.801,0.292c0.104,0.248,0.208,0.496,0.313,0.743
		c-0.151-0.196-0.301-0.393-0.452-0.589c0.422,0.821-0.107,1.165-0.898,1.18h0.745c-1.126,0.686-1.28,0.8-2.079,1.489l0.59,0.31
		H81.2l0.605,0.138c-0.529-0.035-0.845,0.101-0.605,0.605l-0.452-0.307l0.313,0.605l-0.605-0.298
		c-0.975,1.471-0.524,2.36,1.35,2.669h-1.35l0.898,0.155l-1.037,0.292L81.062,63l-0.744,0.586l0.883-0.138l-1.334,0.436l1.196-0.139
		l-1.196,0.745l0.882-0.298v1.041l0.452-1.349l0.606,0.899c0.046-0.3,0.092-0.599,0.138-0.899c0.3,0.052,0.599,0.103,0.899,0.155
		l-0.293-0.59l0.431,0.59v-0.744l0.745,0.292c0.302-0.243,1.325-0.214,1.648-1.781l0.153,0.589l0.139-1.043
		c0.215,0.293,0.617,0.512,0.899,0.746c0.197-0.294,0.394-0.588,0.591-0.883v0.742l0.45-0.898l0.154,0.593
		c0.075-0.526,0.367-0.471,0.744-0.14v-0.746c0.098,0.249,0.196,0.498,0.293,0.746c1.331-2.354,3.636-3.286,6.251-2.685
		c-0.023,0.362-0.182,0.702-0.436,0.958l0.138-0.214l-0.605,0.591c0.169-0.108,0.323-0.231,0.463-0.372l-0.15,0.233
		c0.291,0.215,14.984-0.597,15.024-0.605c-1.59-0.216-2.68-0.961-3.271-2.234l1.782,0.156l-1.489-0.898
		c1.356-0.544,2.131-0.475,3.27,0.152l-1.037-1.487c0.248,0.051,0.496,0.101,0.744,0.152c0-0.248,0-0.495,0-0.743
		c0.875,1.206,0.996,2.598,0.154,3.861c0.386-0.095,0.835-0.132,1.197-0.293l-0.606,0.59c0.889,0.704,1.536,0.258,1.939-1.333
		l-0.591-0.293l0.884-0.16c0.04-1.182-0.405-1.926-1.335-2.232c0.347,0.1,0.694,0.2,1.042,0.299
		c0.051-0.197,0.103-0.395,0.154-0.592c-0.397,0-0.798,0.02-1.195,0c0.108-0.999,0.804-0.879,1.627-0.451l-1.037-0.744
		c0.896,0.379,1.681-0.009,2.232-0.744c0.217,2.907,1.625,0.467,2.686,0l0.447,1.042c1.118-0.743,1.217-1.385,0.297-1.924
		l0.745,0.437l-0.298-1.042l0.591,1.194c-0.143,0.065,3.875-4.213,3.875-4.311l-0.899,0.298c1.25-0.993,2.731-1.525,3.876-2.686
		h-0.292c0.492-0.315,0.883-0.753,1.334-1.037l-0.298-0.158c0.469-0.265,1.692-0.175,1.629-1.329
		c-0.889,0.293-1.777,0.586-2.666,0.881L127.799,42l-2.233,0.16l1.491-0.452l-2.081-1.036c1.332,0.42,2.51,0.642,4.015,0.743
		l-0.898-0.743l0.898-0.298l-2.84-1.054c1.081-0.22,2.085,0.044,2.978,0.746c-0.677-1.382-1.852-2.026-3.27-1.182
		c0.146-0.341,0.252-0.74,0.452-1.052c-0.831-0.242-1.272,0.048-1.334,0.859v-0.859L124.23,38.884z"/>
	<path d="M103.237,26.821l-0.159,0.452c2.021,0.338,3.608,0.074,5.057-0.902c-0.469,0.034-0.922,0.004-1.368-0.057
		c1.426-0.414,2.492-1.322,3.169-2.763l-2.978-0.159c1.25-0.163,2.511-0.296,3.722-0.584l-1.35,0.139l0.745-0.298l-0.452-0.14
		c0.151,0.017,6.597-1.575,2.386-2.541l-1.488,1.054l1.042-1.191c-1.792-0.037-3.155,1.565-4.918,2.074l2.838-2.074
		c-3.625-0.37-8.129,3.165-9.83,5.502l1.19-0.154l-0.446-0.296l1.349-0.139c-0.248,0.1-0.496,0.199-0.743,0.298
		c0.097,0.149,0.195,0.297,0.292,0.446c-0.248,0.099-0.496,0.198-0.744,0.296c1.141,0.373,2.179,0.604,3.131,0.717
		c-0.298,0.11-0.602,0.207-0.898,0.32H103.237z"/>
	<path fill="none" stroke="#000000" stroke-width="0" stroke-linecap="round" stroke-linejoin="round" d="M107.267,30.254
		c-0.008,0-0.017,0-0.024,0.001"/>
	<path fill="none" stroke="#000000" stroke-width="0" stroke-linecap="round" stroke-linejoin="round" d="M107.242,30.255
		c-0.012,0-0.024,0-0.038,0.001"/>
	<path fill="none" stroke="#000000" stroke-width="0" stroke-linecap="round" stroke-linejoin="round" d="M107.204,30.256
		c-0.106,0.004-0.185,0.007-0.232,0.008"/>
	<path d="M107.39,30.25c-0.053,0.002-0.079,0.003-0.123,0.004C107.335,30.251,107.39,30.25,107.39,30.25z"/>
	<path d="M107.39,30.25c-1.142,0.04-1.615,0.683-1.627,1.782h0.744l-1.196,0.743c0.995,2.093,3.095-1.93,3.615-2.684h-0.341
		c0.153-0.033,0.306-0.066,0.459-0.099c-0.061,0-0.101,0.033-0.118,0.099c0.486,0.172,1.181-0.134,0.851-0.744
		c0.396,0.437,0.743,0.39,1.042-0.139l-0.452,0.744c1.269-0.315,2.312-1.013,3.131-2.093c-2.021,0.636-4.918,0.905-6.699,1.941
		L107.39,30.25z"/>
	<path d="M106.899,30.267c0.007,0,0.033-0.001,0.072-0.002c-0.022,0.001-0.033,0.001-0.048,0.001
		C106.917,30.266,106.901,30.267,106.899,30.267z"/>
	<path d="M106.899,30.267c0.002,0,0.018,0,0.024-0.001C106.898,30.267,106.891,30.267,106.899,30.267z"/>
	<path d="M107.39,30.25c-0.053,0.002-0.079,0.003-0.123,0.004C107.335,30.251,107.39,30.25,107.39,30.25z"/>
	<path d="M107.242,30.255c-0.013,0-0.025,0-0.038,0.001C107.216,30.256,107.229,30.255,107.242,30.255
		c0.009,0,0.017-0.001,0.025-0.001C107.258,30.254,107.251,30.254,107.242,30.255z"/>
	<path d="M107.204,30.256c-0.106,0.004-0.185,0.007-0.232,0.008C107.036,30.262,107.124,30.259,107.204,30.256z"/>
	<path fill="none" stroke="#000000" stroke-width="0" stroke-linecap="round" stroke-linejoin="round" d="M106.923,30.266
		c-0.007,0-0.022,0.001-0.024,0.001"/>
	<path fill="none" stroke="#000000" stroke-width="0" stroke-linecap="round" stroke-linejoin="round" d="M106.923,30.266
		c0.013,0,0.02,0,0.048-0.001"/>
	
		<line fill="none" stroke="#000000" stroke-width="0" stroke-linecap="round" stroke-linejoin="round" x1="106.899" y1="30.267" x2="106.894" y2="30.267"/>
	<path d="M77.633,48.405l3.568-3.567l-0.745,1.181l0.744-0.591l-2.079,2.978l2.372-1.334l-1.037,1.042
		c2.513-1.004,1.607-1.414,3.27-2.235l-0.586-0.157l0.884-0.587l-0.745,0.14l2.095-1.042l-0.606-0.292l1.351-0.592v0.592l1.19-0.899
		c0.203,0.782-0.148,1.278-1.052,1.489L87,44.686l-1.041,0.154L87,45.275c-1.456-0.316-2.485,0.376-3.115,1.797l2.233-0.898
		l-0.605,0.743l1.19-0.743l-0.139,0.743l0.591-0.897v0.744c0.196-0.196,0.393-0.393,0.589-0.589c0.103,0.15,0.205,0.3,0.308,0.45
		l0.591-0.745h-0.898l0.745-0.297l-0.438-0.447c0.294-0.026,0.597-0.08,0.884-0.158l-0.585-0.446
		c0.536,0.351,0.784,0.205,0.745-0.437v0.591l1.036-0.745c-0.165-0.155-0.38-0.264-0.591-0.293l0.744-0.452l-0.744,0.153
		l0.883-0.307h-0.586l0.745-0.298h-0.451c0.772,0.011,1.02-0.284,0.745-0.882c0.15,0.146,0.3,0.292,0.451,0.438l0.745-1.628v0.883
		c0.646-0.096,1.038-0.443,1.176-1.043l-0.293,1.196c0.668-0.396,0.825-1.015,0.604-1.781l0.432,1.191
		c0.961-0.047,1.19-0.92,0.744-1.642c0.615,0.728,1.271,0.837,1.642-0.156l-0.744-0.295h0.903l-1.802-0.14l1.059-0.154l-0.16-0.293
		l1.335,0.139l-0.884-0.59c0.916,0.483,1.658,0.354,2.232-0.591l-1.349-0.153l1.642-0.294l-1.19-0.297
		c1.621,0.273,2.861-0.325,3.721-1.795c-0.384-0.314-0.863-0.434-1.217-0.008l0.174-0.29l-1.19,0.606l1.781-1.054
		c-0.322-0.189-0.773-0.299-1.177-0.297c2.731,0.487,4.468-0.406,5.211-2.68c-1.938-1.547-4.73-1.834-5.816,1.053
		c0.563-0.268,1.138-0.447,1.719-0.562c-0.715,0.584-1.535,0.874-2.462,0.856c0.789-0.332,1.241-1.136,1.348-2.093
		c-2.148,0.346-3.493,1.638-4.033,3.875l0.451-0.154c-0.406,0.382-0.686,0.86-0.743,1.351c0.443-0.333,0.946-0.489,1.488-0.453
		c-0.732,0.421-1.477,0.821-2.232,1.198l0.447,0.137c-0.746,0.575-1.61,0.858-2.818,0.745c0.195,0.148,0.39,0.297,0.585,0.446
		c-0.372,0.282-0.764,0.727-1.191,0.903l0.307,0.139c-2.009,1.875-4.294,2.621-6.853,2.234c-0.489-0.823-0.391-1.567,0.293-2.234
		c-1.812-0.155-2.631,0.717-2.526,2.542l1.037-0.446l-1.191,1.036l0.605-0.152c-0.985,0.402-1.782,1.124-2.232,2.094
		c-0.099-0.15-0.198-0.301-0.297-0.452C79.085,44.44,78.481,46.65,77.633,48.405z M78.005,47.636
		C78.011,47.625,78.01,47.626,78.005,47.636L78.005,47.636z M77.729,48.208c0.021-0.042,0.042-0.087,0.065-0.135
		C77.774,48.114,77.751,48.161,77.729,48.208z M77.808,48.044c0.046-0.094,0.091-0.189,0.128-0.266
		C77.906,47.842,77.862,47.932,77.808,48.044z"/>
	<path d="M111.026,30.348l0.398-0.098h-0.903C110.682,30.292,110.853,30.321,111.026,30.348l-0.797,0.195h0.743l-0.897,0.292h0.744
		l-1.042,0.453l0.745,0.152l-0.745,0.437l0.903-0.139l-1.041,0.448l1.041-0.31l-1.785,0.745c1.153,0.332,2.428,0.079,3.567-0.59
		c-0.418,0.404-0.649,0.636-1.038,1.038c0.395-0.108,0.917,0,1.33,0c-0.046,0.248-0.092,0.496-0.138,0.744
		c0.197-0.149,0.393-0.297,0.59-0.446c0.098,0.202,0.195,0.403,0.292,0.604l0.452-0.604v0.604l1.333-1.197l-0.296,1.039l0.902-0.883
		l0.139,1.18l0.899-0.435l-0.453,0.743c0.552,0.394,0.95,0.291,1.196-0.308c-0.092,0.708,0.26,0.288,0.745,0.308l-0.452,0.298
		l2.531,0.745l-0.884-1.043c0.693,0.687,1.189,0.636,1.489-0.154c-0.3,1.576,1.675,1.61,2.665,0.745l-0.59-0.745l0.903,0.293
		c0.636-1.806,0.121-3.038-1.94-2.371c0.442-0.297,0.871-0.639,1.336-0.898c-0.392-0.422-0.837-0.422-1.336,0l0.884-0.591
		c-0.82,0.385-1.64,0.288-2.218-0.448c0,0.346,0,0.692,0,1.039c-0.103-0.346-0.205-0.692-0.308-1.039
		c-0.294,0.149-0.589,0.298-0.884,0.448c0.233,0.325,0.44,0.787,0.745,1.041c-0.26-0.375-0.61-0.63-1.042-0.744
		c-0.253-0.346-0.309,0.835-0.309,0.986c-0.248-0.358-0.584-0.489-1.009-0.393c0.327-0.207,0.622-0.452,0.872-0.753
		c-1.026,0.244-2.572,0.795-3.136,0.454l-0.155,0.744c-1.36-0.689-1.525-0.744-3.115-0.744l0.883,0.588l-1.489-0.437l1.801-1.19
		C112.802,30.4,111.891,30.484,111.026,30.348z M111.362,30.401C111.411,30.409,111.421,30.41,111.362,30.401L111.362,30.401z
		 M111.139,30.366c0.005,0,0.009,0.001,0.014,0.002C111.148,30.367,111.144,30.366,111.139,30.366z"/>
	<path d="M114.542,30.994l-0.453-0.451c0.083,0.16,0,0,0,0C114.127,30.894,114.278,31.044,114.542,30.994z"/>
	<path d="M113.796,30.994l0.746,0.211C114.347,30.976,114.113,30.906,113.796,30.994z"/>
	<path fill="none" stroke="#000000" stroke-width="0" stroke-linecap="round" stroke-linejoin="round" d="M114.542,31.205
		c0.012,0.014,0.012,0.014,0.009,0.01"/>
	<path d="M114.833,31.288l-0.292-0.083C114.6,31.317,114.697,31.344,114.833,31.288z"/>
	<path d="M140.885,52.718c0,0-0.006-0.017-0.013-0.038C140.876,52.693,140.879,52.701,140.885,52.718z"/>
	<path d="M140.872,52.68C140.794,52.456,140.845,52.603,140.872,52.68L140.872,52.68z"/>
	<path d="M141.783,53.165c0.622-0.868,0.607-1.425-0.033-1.593c-0.688-1.006-0.99,0.783-0.865,1.146
		c0.248-0.099,0.496-0.198,0.744-0.297C141.68,52.669,141.732,52.917,141.783,53.165z"/>
	<path d="M141.842,51.576c0.344-0.01-0.729-0.936-0.092-0.004C142.212,51.693,141.988,51.611,141.842,51.576z"/>
	<path d="M101.787,70.202c0.133,0.192-0.012-0.017-0.04-0.057C101.822,70.252,101.835,70.271,101.787,70.202z"/>
	<path d="M89.245,50.941c0.001-0.003,0.003-0.005,0.004-0.008C89.214,50.889,89.219,50.899,89.245,50.941z"/>
	<path d="M89.542,51.538c-0.06-0.218-0.159-0.417-0.296-0.597c-0.165,0.137-0.33,0.274-0.495,0.411
		C89.062,51.425,89.444,51.498,89.542,51.538z"/>
	<path d="M136.807,50.786C136.792,50.76,136.789,50.756,136.807,50.786L136.807,50.786z"/>
	<path d="M137.16,51.383l1.199-1.037v0.586c0.149-0.149,0.297-0.298,0.446-0.447c0.15,0.202,0.301,0.404,0.452,0.605l-1.94,0.447
		c0.154,0.521,0.496,0.648,0.924,0.566l-0.474,0.178l0.745,0.436l-1.196-0.138c0.458,0.577,0.955,1.119,1.489,1.627
		c0.325-1.119,1.301-2.772,2.08-2.824c0.715-0.91,0.322-1.705-1.178-2.385l-0.313,0.444l-0.432-1.19v1.936l-0.744-1.489
		l-0.312,0.903l-0.745-0.604l0.745-0.439C136.293,48.871,136.333,49.984,137.16,51.383z"/>
	<path d="M136.941,51.014c-0.024-0.042-0.047-0.08-0.068-0.115C136.893,50.931,136.915,50.968,136.941,51.014z"/>
	<path d="M137.108,51.295c-0.012-0.021-0.026-0.043-0.041-0.069C137.08,51.248,137.094,51.271,137.108,51.295z"/>
	<path d="M137.067,51.226c-0.049-0.083-0.092-0.155-0.126-0.212C136.984,51.086,137.029,51.161,137.067,51.226z"/>
	<path d="M136.874,50.898c-0.032-0.055-0.054-0.092-0.066-0.112C136.821,50.81,136.844,50.849,136.874,50.898z"/>
	<path d="M137.16,51.383c-0.02-0.034-0.034-0.058-0.052-0.088C137.139,51.347,137.16,51.383,137.16,51.383z"/>
	<path d="M143.271,48.406c-1.244,0.415-1.838,0.115-1.781-0.897c-0.051,0.299-0.103,0.598-0.154,0.897
		c-2.34-1.913-1.148,0.495-1.175,0.496c0.28,0.079,0.633,0.001,1.038-0.204l-0.746,0.606
		C141.686,49.967,142.622,49.654,143.271,48.406z"/>
	<path d="M140.161,48.902C139.765,48.923,140.441,48.981,140.161,48.902L140.161,48.902z"/>
	<path d="M163.819,142.036c0.11,0.119,0.187,0.201,0.254,0.274C163.951,142.178,163.819,142.036,163.819,142.036z"/>
	<path d="M164.073,142.311C164.26,142.511,164.415,142.678,164.073,142.311L164.073,142.311z"/>
	<path d="M166.948,142.167c0.535-0.492,0.892-1.227,0.876-2.058l-4.005,1.927c0.985,1.063,2.266,0.909,3.111,0.146
		C166.061,142.995,166.827,142.283,166.948,142.167z"/>
	<path d="M121.686,128.048c-2.381,0.644-2.777,2.702-2.074,5.211C122.204,133.294,124.098,131.81,121.686,128.048z"/>
	<path d="M94.019,49.382C94.108,49.55,94.019,49.382,94.019,49.382L94.019,49.382z"/>
	<path fill="none" stroke="#000000" stroke-width="0" stroke-linecap="round" stroke-linejoin="round" d="M93.141,48.982
		c0.009-0.001,0.021-0.002,0.026-0.003"/>
	<path d="M92.972,48.998l1.146,1.036C94.203,49.308,93.821,48.962,92.972,48.998z"/>
	<path fill="none" stroke="#000000" stroke-width="0" stroke-linecap="round" stroke-linejoin="round" d="M93.064,48.989
		c0.027-0.002,0.054-0.005,0.077-0.007"/>
	<path d="M92.972,48.998c0,0,0.044-0.004,0.092-0.009C93.036,48.992,93.012,48.994,92.972,48.998z"/>
</g>
</svg>
