<?xml version="1.0" encoding="utf-8"?>
<!-- Generator: Adobe Illustrator 15.1.0, SVG Export Plug-In . SVG Version: 6.00 Build 0)  -->
<!DOCTYPE svg PUBLIC "-//W3C//DTD SVG 1.1//EN" "http://www.w3.org/Graphics/SVG/1.1/DTD/svg11.dtd">
<svg version="1.1" id="Layer_4" xmlns="http://www.w3.org/2000/svg" xmlns:xlink="http://www.w3.org/1999/xlink" x="0px" y="0px"
	 width="283.465px" height="283.465px" viewBox="0 0 283.465 283.465" enable-background="new 0 0 283.465 283.465"
	 xml:space="preserve">
<g>
	<path fill="none" d="M264.547,92.608l0.447,1.043l-0.146-0.298c0.019,0.584,0.237,1.114,0.648,1.487l-0.798-0.141l0.901,1.337
		c-0.342-0.033-0.293,0.215,0.146,0.744l-0.447-0.591c0.727,1.795,1.035,3.573,1.347,5.515l-0.146-0.299
		c0.445,0.832,0.762,1.764,0.9,2.67c-0.329-0.819-0.741-1.637-1.196-2.373c-0.241,0.773-0.201,1.53,0.12,2.271
		c0.009-0.262,0.024-0.522,0.049-0.781c0.845,1.603,1.317,3.593,1.19,5.351c-0.297-0.366-0.529-0.765-0.71-1.185
		c0.695,4.702,4.259,16.457,6.616,20.453C272.201,115.788,269.318,103.614,264.547,92.608L264.547,92.608z"/>
	<path fill="none" d="M272.637,153.805c-1.87-1.432-2.252-3.119-0.597-5.369c0.142,1.121,0.769,1.754,1.871,1.919
		c0.206-3.125,0.371-6.91-2.175-9.372l-0.147,0.744c-0.226-2-0.498-8.351-2.54-10.867l0.148,0.897
		c-0.796-1.677-1.403-3.438-1.949-5.209l-0.148,0.592l-0.899-1.183c0.151,0.293,0.515,4.909,0.447,5.056l-0.447-0.293l0.147,1.038
		l-0.446-0.293v0.745l-0.146-1.042v1.042c-0.588-2.342-1.113-4.333-2.397-6.406l0.301,1.195c-2.252-1.626-0.784-0.976-1.948-2.232
		l0.146,1.189c-0.13-0.236-4.52-5.942-3.568-1.893l-0.023-0.042l0.445,1.936l-0.695-0.743l0.398,1.183
		c-0.607-0.352-0.706-0.053-0.296,0.896l-0.448-0.453l0.35,0.904l-0.649-0.452v1.489l-0.597-1.038
		c0.95,4.769-2.072,33.616-0.632,34.345c-0.992-0.496,1.396,4.108-0.045,6.896c-0.328-1.273-0.716-2.492-1.189-3.721l0.301,0.293
		c0.113-0.236,0.321-2.787,0.129-3.711c-0.502,2.43-1.075,4.561-1.708,6.219c-6.89-5.896-8.317-18.002-18.352-20.121
		c0.478-0.883,0.956-1.765,1.434-2.647c-7.786,7.878-29.789,2.418-41.009,2.083c3.972,2.409,9.532,6.174,11.045,10.88
		c3.239-1.843,5.296-4.574,6.171-8.196c-0.889,5.733,8.359,3.501,7.522,8.235c-1.521,8.581-10.439,19.415-17.073,24.538
		c-7.679,5.931-8.575,6.275-14.03-1.685c-5.873-8.569-15.323-16.488-17.873-26.915l-1.048,4.313
		c-2.016-1.09-2.879-2.752-4.032-4.623c0.041,8.486,9.828,12.178,12.114,18.763l-0.449-0.291
		c0.314,17.461,20.376,18.063,31.576,12.655c-1.205,2.722-1.039,3.66,0.496,2.816c-4.506,13.971-21.207,20.139-24.854,34.546
		c-1.701,6.722,2.43,11.953-0.618,18.626c-3.001,6.566-9.58,15.856-17.355,16.958c0.356,0.4,0.665,0.4,0.929,0
		c-3.676,9.533-24.213,11.605-31.317,8.322c1.762-0.584-12.083-13.756-13.243-16.394c-1.861-4.233,0.1-7.626,0.409-11.837
		c0.685-9.367-4.733-10.737-9.323-18.215c0.428,0.141,2.631-0.988,2.992-1.188l-1.635-0.885l0.887,0.293
		c1.297-3.195,0.465-8.05-3.288-9.224c-0.647,2.068-2.379-1.274-2.839,0.743l-0.45-0.604l0.155,0.604l-0.315-0.45v0.45
		c-0.674-1.732-1.815-2.725-3.426-2.979l0.749,0.141l-1.064-0.438l0.749-0.446c-1.543,0.816-3.042,0.321-4.491-1.488l1.063-0.299
		c-15.853-0.428-26.576,1.311-35.922-13.393h0.887c-0.724-1.168-6.597-7.142-3.446-8.045c-2.749-1.08-3.294-1.825-1.636-2.234
		l-1.356-0.744c1.784,0.978-0.37-0.716,0.453-2.07c0.437,0.725,3.431-11.962,2.85-16.545l-0.454,0.451
		c0.244-1.354,1.668-3.311,3.739-5.52c-0.049,0.008-0.094,0.021-0.152,0.016c10.722-10.485,33.521-28.208,49.282-18.513
		c11.772,7.241,9.324,15.943,26.313,13.772c13.878-1.774,22.808,1.441,26.614-14.316c-2.849,1.93-12.838,3.483-15.998,2.386
		c3.007-1.45-5.246-4.852-1.887-9.261c-1.79-0.607-3.741-0.689-5.461,0.182l1.359,1.334l-1.194-0.437l0.445,0.882
		c-0.978-0.759-1.401-1.468-2.541-1.189c0.573,1.148,3.336,4.595,3.44,5.657l-1.434-0.979c0.258,0.603,0.519,1.203,0.788,1.8
		c-0.446-0.899-1.153-1.048-1.907-0.371l1.043,1.037c-2.163-0.626-1.499,0.898-0.589,2.395c-0.848-1.282-1.296-1.236-1.344,0.138
		c-0.313-2.508-4.19,0.171-2.104-4.31c0.877,0.025,1.755,0.051,2.632,0.076c-5.495,0.383-4.151-9.095-9.185-10.906
		c0.036,0.041,0.078,0.075,0.113,0.118L136,125.065c0.358,0.094,0.712,0.205,1.061,0.329c-1.311-1.531-4.565-7.134-6.16-4.642
		l-0.454-2.387c-2.324,2.957-1.887,5.674,1.309,8.152c-5.681-2.938-6.553-1.586-9.975,1.071c-5.126-9.077-24.622,8.313-32.787,3.581
		c1.4-5.235,1.022-1.402,1.358-4.33l-0.902,0.16c2.452-3.156,26.409-14.028,14.969-18.609l-0.749-0.743
		c6.339-0.372,7.846-1.427,14.514-3.582c-2.178-1.024,1.944-0.042,1.496-3.412c0.191,2.289,5.274-2.472,7.342-0.307
		c-3.364-3.265-2.475-7.879,2.385-9.072c-1.506,1.654-1.365,5.621-1.378,5.617c0.543,7.024,12.901,2.398,12.148,2.709
		c7.628-7.467,3.379-8.969,13.041-13.244c-3.022-0.922-5.918-0.623-8.687,0.9c0.281-4.245-0.315-8.363-1.789-12.354
		c-1.907,2.716-2.146,13.409-4.195,14.587c-0.567-1.735-2.959,6.841-7.028,7.136c-0.137-2.38-0.686-4.152-0.315-6.544l-0.589,0.897
		c-0.151-1.443-0.302-2.886-0.454-4.329c-1.617,2.714-3.612,3.062-5.986,1.042c0.1-1.395-0.056-1.532,2.106-2.825l-2.105,1.038
		l0.604-1.038l-0.607,0.591c-0.704-1.327,0.422-1.978,0.903-2.53l-0.749-0.292c1.396,0.532,1.593-0.015,0.593-1.642l1.202,0.604
		l-0.296-0.451c0.451-0.262,0.795-0.255,1.046-0.019l-0.455-0.726l1.952,0.155l-1.048-0.744l1.496,0.744
		c-1.334-1.154-0.605-1.742,2.186-1.765c-0.259,0.024-0.539-0.026-0.845-0.171c0.48-0.888,2.754-2.193,3.149-2.391l-0.903,0.16
		l1.79-0.743l-0.886,0.138c0.12-1.465,0.521-1.858,1.202-1.181c-0.802-0.935,0.187-0.928,1.041-0.897l-1.042,0.153
		c1.253-0.637,1.451-1.133,0.594-1.486l1.791-0.311l-0.889-0.297c0.935-0.176,1.88-0.422,0.595-1.191h0.902l-0.607-0.298
		c0.679-0.733,1.027-0.583,1.043,0.452c-0.214-0.981,0.205-1.286,0.97-1.24l-0.809-0.095c1.684-0.124,2.581-0.786,2.694-1.987v0.191
		l0.298-0.591c0.059,0.321,0.009,0.626-0.159,0.901c0.539-1.055,3.359-3.105,4.651-3.288l-0.304,1.643l0.892-1.781v1.198
		c0.254-0.803,0.529-1.472,1.495-1.351c1.334,1.605,10.354,2.339,11.828,7.308c-1.938,0.908-5.065,0.775-7.638-0.154
		c1.573,1.789,3.758,5.354,7.032,5.952c-0.972-1.224-2.44-2.788,0.315-2.384l-0.315,0.605c1.663-3.476,7.423-5.065,1.498-8.938
		c3.837,0.141,4.429,0.546,2.562,2.073c1.845,1.228,2.569-0.198,3.131-1.33c-3.015-1.819,11.522-4.83,5.374-7.308
		c1.446-0.146,2.894-0.292,4.34-0.438l-0.446,0.139l3.143,0.605c-2.935-2.026-4.47-5.035-7.479-7.598
		c1.101-0.816,2.681-0.471,4.285,0.486c-0.632-0.621-1.218-1.327-1.741-2.129c1.526,1.364,3.351,1.903,5.137,1.193l-2.894-0.294
		c2.5-1.741-1.567-1.412,2.992-2.513c-1.496-0.403-2.993-0.807-4.489-1.21c2.273-2.188,1.925-3.23-1.046-3.13
		c2.012-0.375-0.135-3.641-0.75-3.277c0.526-4.93-1.294-0.51-2.993-4.758c7.114,3.048-1.672-3.974,5.092-1.94l-0.6,0.299
		c3.232,1.249,7.042-2.221,3.894-5.211c1.597-0.197,3.192-0.394,4.789-0.591c-1.885-0.536-7.236-3.136-9.014-5.501l0.451-0.055
		c-0.831,0.233-1.17-0.297-1.019-1.593l0.901,0.452c-0.102-2.502-7.199-7.41-9.711-7.593l0.151,0.606
		c-3.502-0.992-7.691-2.598-10.183-4.763c0.631,1.837-0.713,1.688-4.032-0.447c0.205-0.061,0.412-0.092,0.618-0.111
		c-2.776-0.186-5.845-0.294-8.6-0.304l0.322,0.115h-0.001c1.412,0.521,3.452,1.149,4.521,1.182
		c-3.139,0.404-6.238,1.004-9.296,1.797c0.642-1.057-0.251-1.108-2.679-0.154l0.141-0.154c-4.317-0.61-10.266,0.738-14.66,1.19
		l1.047,0.16c-3.766,1.95-8.957,3.994-13.486,5.248c0.449-0.058,0.893-0.072,1.323-0.028l-2.838,2.074
		c1.763-0.509,3.126-2.111,4.918-2.074l-1.042,1.191l1.488-1.054c4.44,1.018-3.23,2.893-1.934,2.681l-0.745,0.298l1.35-0.139
		c-1.211,0.288-2.472,0.421-3.722,0.584l2.978,0.159c-0.677,1.441-1.743,2.349-3.169,2.763c0.446,0.061,0.899,0.091,1.368,0.057
		c-3.593,2.421-4.603,1.334-5.351,0.45c0.296-0.113,0.6-0.21,0.898-0.32c-0.952-0.113-1.99-0.344-3.131-0.717
		c1.733-0.686-0.532-0.343,1.195-1.04l-1.349,0.139l0.446,0.296l-1.19,0.154c1.226-1.685,3.909-3.984,6.669-5.002
		c-0.333,0.079-0.678,0.167-1,0.234l0.608-0.605c-1.497,0.074-8.772,5.603-9.575,6.7l0.594,0.153l-1.656,0.59
		c0.894-0.062,1.339-0.174,2.244-0.59c-1.544,0.274-1.939,0.672-1.184,1.195c-0.939-0.294-1.796-0.151-2.56,0.448
		c1.499-0.028,1.987,0.035,3.154,0.437l-0.299-0.3c1.25-0.324,4.435-1.661,6.581-0.292l-4.644,1.336l0.448-0.297
		c-0.952-0.406-1.782,0.224-2.246,1.042l0.161-0.589l-2.839,0.898l1.931,0.138c-1.641,0.497-3.282,0.993-4.923,1.49
		c2.751-0.502,3.644-0.201,2.678,0.902c1.95-0.387,4.229-2.594,5.716-2.833c-0.107,0.957-0.559,1.761-1.348,2.093
		c0.927,0.018,1.747-0.272,2.462-0.856c-0.581,0.115-1.156,0.294-1.719,0.562c1.086-2.887,3.878-2.6,5.816-1.053
		c-0.743,2.274-2.48,3.167-5.211,2.68c0.404-0.002,0.855,0.108,1.177,0.297l-1.781,1.054l1.19-0.606l-0.174,0.29
		c0.354-0.426,0.833-0.306,1.217,0.008c-0.86,1.47-2.1,2.068-3.721,1.795l1.19,0.297l-1.642,0.294l1.349,0.153
		c-0.574,0.945-1.316,1.074-2.232,0.591l0.884,0.59l-1.335-0.139c0.388,0.492,0.088,0.642-0.899,0.447l1.802,0.14h-0.903
		l0.744,0.295c-1.466-0.34-2.261,0.26-2.386,1.798l-0.432-1.191c0.221,0.766,0.064,1.385-0.604,1.781l0.293-1.196
		c-0.138,0.6-0.53,0.947-1.176,1.043v-0.883c-0.37,0.948-1.099,2.084-1.941,2.072h0.451l-0.745,0.298h0.586l-0.883,0.307
		l0.744-0.153l-0.744,0.452c0.953,0.256,0.805,0.602-0.445,1.038v-0.591c-0.937,0.241-0.991,0.535-0.16,0.883
		c-0.287,0.078-0.59,0.132-0.884,0.158c0.673,0.412,0.57,0.66-0.307,0.744h0.898c-1.484,1.285-0.204-0.4-1.488,0.884V46.02
		l-0.591,0.897l0.139-0.743l-1.19,0.743l0.605-0.743l-2.233,0.898c0.63-1.421,1.659-2.113,3.115-1.797l-1.041-0.435L87,44.686
		c-1.236-0.021-1.133-0.569,0.309-1.644l-1.19,0.899c-0.021-0.971-0.74-0.46-1.351,0l0.606,0.292l-2.095,1.042l0.745-0.14
		l-0.884,0.587l0.586,0.157c-1.663,0.821-0.757,1.231-3.27,2.235l1.037-1.042l-2.372,1.334l2.079-2.978l-0.744,0.591l0.745-1.181
		l-3.568,3.567c1.175-2.432,2.896-5.785,5.505-6.85l-0.605,0.152l1.191-1.036l-1.037,0.446c-0.105-1.825,0.714-2.697,2.526-2.542
		c-3.977,3.877,5.69,0.812,6.56,0c-0.221,0.138,1.368-0.678,0.299-1.488c1.208,0.113,2.072-0.17,2.818-0.745l-0.447-0.137
		c0.755-0.377,1.5-0.777,2.232-1.198c-0.542-0.036-1.045,0.12-1.488,0.453c0.057-0.491,0.337-0.969,0.743-1.351l-0.451,0.154
		c0.083-0.344,0.192-0.658,0.313-0.957c-1.405,1.16-4.176,1.908-6.016,0.814c0.11-0.135,0.204-0.284,0.278-0.452l-1.791,1.041
		l1.498-1.786c-0.725,0.84-1.508,0.881-2.384,0.297c1.008-0.484,1.93-1.322,2.384-2.233c-1.079,1.712-2.621,2.621-4.491,2.233
		c0.984-0.945,0.833-1.343-0.453-1.195c0.891-0.704,1.792-1.398,2.7-2.081c-2.002,0.431-2,1.715-3.743,1.925l0.454-0.588
		c-1.677-0.327-5.078-0.369-7.484,0.898l0.749-0.154c-5.041,5.878-14.594,10.109-19.757,16.667l0.888-0.14l-1.043,0.884
		c6.983-3.105,14.031-7.908,21.996-8.932c-3.544,5.91,1.496-3.141-4.176,6.406h0.596c-0.945,0.701-2.047,1.472-2.091,0
		c-0.417,1.118-1.346,1.834-2.561,2.082l0.453-0.439c-1.09-0.155-1.787,0.488-2.089,1.927l1.202-0.139l-1.064,0.882h1.657
		l-1.048,0.898c1.332-0.808,2.775-1.252,4.337-1.334c0.035-0.067-6.089,6.315-7.03,6.391l0.155-0.742
		c-0.031,0.953-0.233,1.155-0.608,0.605c-0.133,0.89-0.581,1.633-1.343,2.232h0.454l-1.65,0.745c0.056-0.35-2.674,5.956-2.995,7.145
		l-0.299-0.743l0.139,1.042c-3.454-3.054-6.863-6.595-11.976-6.114c6.288,0.239-2,9.184-2.083,11.771
		c-0.677-1.936-1.374-2.386-2.089-1.35c0.256-1.459-0.876-0.832-1.813-0.293c0.551-2.224,1.658-2.639,3.154-1.782
		c-1.142,2.217,0.326-0.499,1.045-0.605c-1.405-0.23-2.604-2.309-2.541-2.669l-1.202,0.589l0.293-0.745l-0.588,0.453v-0.453
		c-1.479,0.336-2.723,1.29-3.292,2.687l0.593-0.161c-0.282-0.754-1.561-1.257-4.335-0.743l1.202-1.782
		c-0.92,1.415-2.085,2.751-3.743,3.271c1.112-0.744,1.965-1.748,2.538-2.974c-0.399,0.398-0.797,0.796-1.196,1.193l0.53-0.787
		c-0.514,0.758-1.069,1.527-1.731,2.122l0.294-0.884c-0.46,1.105-1.108,2.106-1.93,2.977l0.435-0.744
		c-0.637-0.396-0.933-0.05-0.888,1.038l0.3-0.154c-0.108,0.481-0.358,0.684-0.749,0.606l0.126-0.34
		c-5.678-1.961-16.9,28.613-17.893,35.166l-0.057-0.053c-2.272,8.19-4.295,17.083-3.821,25.518l-0.452-0.745
		c-0.325,4.293,1.224,8.999,0.154,13.243l0.297-0.437c0.411,4.992,3.1,9.184,3.424,14.283l0.14-0.59
		c0.685,3.996,1.198,7.114-0.433,10.112l0.293-0.437v1.041l0.298-0.299v0.887l0.293-1.192c1.191,1.282,1.717,2.837,1.348,4.468
		l-0.753-0.584c0.359,0.389,0.483,0.877,0.304,1.481c0.501-1.083,0.849-0.985,1.043,0.291c-0.401-0.532-0.401-1.073,0-1.628
		l0.584,1.182l0.159-0.299c0.166,0.546,0.951,1.869,1.038,1.941v0.748c3.352,5.731,6.816,15.292,9.005,23.094
		c5.344,19.054,15.41,31.848,30.887,44.445c25.36,20.643,57.899,31.091,90.525,29.514c32.619-1.577,63.863-15.294,87.065-38.282
		c11.276-11.172,20.545-24.34,27.13-38.789C266.893,186.131,277.053,162.904,272.637,153.805
		C270.767,152.373,272.637,153.805,272.637,153.805z M132.404,135.943c-1.43,3.812-3.144,4.981-5.8,0.293L132.404,135.943
		C131.983,137.065,132.404,135.943,132.404,135.943z M121.686,128.048c2.412,3.762,0.518,5.246-2.074,5.211
		C118.909,130.75,119.305,128.692,121.686,128.048z M167.377,59.725c-4.545,2.153-4.238-1.947-5.639-2.977
		C164.216,55.028,164.402,58.806,167.377,59.725C166.557,60.114,165.438,59.126,167.377,59.725z M163.075,47.662
		c-1.377,2.203-0.428,6.551-0.452,6.546l0.745,0.606h-0.745l0.902,0.292h-0.902l0.902,0.744l-1.487,0.45l0.433-0.902l-1.336,0.297
		C161.114,53.138,161.328,50.131,163.075,47.662C161.713,49.841,162.051,49.11,163.075,47.662z M137.906,48.558
		c-0.649,1.035-0.581,1.134,0.312,0.14l0.744,1.489v-1.936l0.432,1.19c0.081,0.15,1.391,7.505-2.078,3.138l1.196,0.138l-0.745-0.436
		l0.474-0.178c-0.428,0.082-0.77-0.045-0.924-0.566c1.691-0.474,1.888-1.451,1.042-0.605v-0.586l-1.199,1.037
		C136.333,49.984,136.293,48.871,137.906,48.558C137.906,48.558,136.293,48.871,137.906,48.558z M98.924,99.312l0.729-0.446
		l-1.042-0.14l1.042-0.296l-1.042-0.308l1.042-0.297l-0.729-0.447l2.511-0.139l-1.628-0.298c0.013-1.973,4.083-4.429,3.27-4.03
		c0.68-0.677,1.424-1.305,1.648-0.138C106.004,91.494,106.458,99.639,98.924,99.312C98.924,99.312,101.801,99.437,98.924,99.312z
		 M100.846,67.307l1.94,0.606l-0.452-0.446l1.042-0.16l-1.925-1.19c1.433-1.272,2.074-1.17,1.925,0.308l0.447-1.35
		c0.708,1.042,0.582,2.037-0.292,2.976c1.824-1.273,6.729-1.703,5.348,2.977c-2.996,2.188-6.188,0.735-8.479-1.33
		C102.512,69.549,102.3,68.618,100.846,67.307L100.846,67.307z M114.833,101.101c-2.648,4.413-7.682,2.883-11.756,2.836
		c2.051-1.082,3.389-1.71,5.149-2.419c-1.218,0.357-2.294-0.129-3.209-1.301c1.278-0.18,2.255-0.807,2.526-1.941l-1.007,0.15
		c1.313-1.144,5.212-4.655,3.846-4.165c-0.842,0.047-1.683,0.094-2.525,0.141c0.445-1.092,0.889-2.184,1.334-3.276
		c-0.69,0.436-1.337,0.933-1.939,1.487c1.361-1.101,2.988-2.446,0.744-2.978c0.724-2.446,2.46-3.438,5.21-2.976L110.68,88.6
		l3.131,0.448c-3.233,1.159-3.88,2.053-1.94,2.683c-1.821,2.122,3.881,3.534,0.885,7.875c0.093-0.133,0.728-1.148,1.046-1.021
		c0.029,0.02,0.046,0.045,0.051,0.076c0.226,1.986-1.099-1.24-1.099,0.95C114.14,99.751,114.833,100.248,114.833,101.101
		C114.832,101.104,114.833,101.101,114.833,101.101z M109.639,32.186l1.041-0.448l-0.903,0.139l0.745-0.437l-0.745-0.152
		l1.042-0.453h-0.744l0.897-0.292h-0.743c1.111-0.328,2.253-0.426,3.428-0.294l-1.801,1.19l1.489,0.437l-0.883-0.588
		c3.604,0,2.446,0.488,6.406-0.454c-1.72,2.073,0.568-0.423,1.488,0.904c-1.306-1.086-0.096-2.274,0.447-0.45
		c-0.339-1.516,0.4-1.712,2.218-0.591l-0.884,0.591c0.499-0.422,0.944-0.422,1.336,0c-3.393,1.887,1.962-0.591,0.604,3.269
		l-0.903-0.293l0.59,0.745c-0.824,0.72-3.726-0.166-4.154-0.591l0.884,1.043l-2.531-0.745l0.452-0.298
		c-0.617-0.43-1.264-0.43-1.941,0l0.453-0.743c-0.917,0.793-1.263,0.545-1.038-0.745l-0.902,0.883l0.296-1.039l-1.333,1.197v-0.604
		c-1.381,1.089,0.081-0.625-1.334,0.446c0.425-0.932,0.027-1.18-1.192-0.744c0.389-0.402,0.62-0.634,1.038-1.038
		c-1.139,0.669-2.414,0.922-3.567,0.59l1.785-0.745L109.639,32.186L109.639,32.186z M79.867,63.884l1.334-0.436l-0.883,0.138
		L81.062,63l-0.745-0.162l1.037-0.292l-0.898-0.155c2.492,1.234-1.185-0.881,0-2.669l0.605,0.298l-0.313-0.605
		c0.409,0.494,0.761,0.395,1.057-0.298L81.2,58.979h0.744c-1.328-0.474-0.832-1.074,1.489-1.799h-0.745
		c0.447-1.376,0.897-1.573,1.35-0.591c-0.587-1.382,0.864-0.442,1.037-1.939c0.979,1.455,1.724,1.161,2.232-0.883
		c-0.604,0.786-1.415,0.999-2.388,0.744c0.519-0.738,1.165-0.938,1.94-0.605l-0.744-0.293c1.223-0.049,1.522-0.296,0.899-0.744
		l1.488,0.591c-0.096-0.595-0.659-0.781-1.349-0.745c1.761,0.197,2.106-0.196,1.036-1.18l1.948,0.54
		c-0.529-0.247-0.731-0.674-0.598-1.286c0.804,0.778,1.099,0.53,0.884-0.743l1.057,1.042l-0.451-1.35l1.94,1.35l-0.745-0.903
		l0.591,0.159l-1.648-0.605c1.204,0.766,1.753,0.569,1.648-0.591l0.154,1.783c0.038-0.727,0.426-1.021,1.16-0.884l0.015,0.139
		l1.195-0.883l-0.292,0.59c2.299-0.314,3.192-1.606,2.681-3.875c0.689,0.664,0.668,1.419,0.138,2.232
		c0.417-0.706,0.894-1.521,1.351-0.882c-0.237-0.728-0.087-0.93,0.452-0.606l-0.452-0.297l0.882,0.158l-0.43-0.604
		c1.258-0.255,1.545-0.439-0.156-0.437c0.327-1.331,8.169-6.977,9.087-8.495l-0.744,0.446c0.636-1.428,1.624-1.101,2.665-2.073
		l0.158,1.487l0.292-0.903c0,0.344,7.266-1.257,8.933-0.444l-0.883,0.444l1.036-0.292c0.145,0.151,2.238,0.109,3.118,0.898
		l-1.627,0.592h1.042l-0.592,0.898l1.921-0.898c-1.018,2.059-0.544,2.109,1.058,0.59v0.859c0.062-0.811,0.503-1.101,1.334-0.859
		c-1.248,1.945,1.729,0.009,2.818,2.234c-0.893-0.702-1.897-0.966-2.978-0.746l2.84,1.054l-0.898,0.298l0.898,0.743
		c-1.505-0.101-2.683-0.323-4.015-0.743l2.081,1.036l-1.491,0.452l2.233-0.16l-2.825,1.789c0.889-0.295,1.777-0.588,2.666-0.881
		c0.034,0.628-2.282,2.278-2.665,2.524h0.292c-1.145,1.161-2.626,1.693-3.876,2.686l0.899-0.298c0,2.435-3.446,3.975-4.466,3.117
		l0.298,1.042c-1.013-0.904-1.36-0.409-1.042,1.487c-1.557-0.92-3.187,0.623-5.365-0.298l1.037,0.744
		c-0.823-0.428-1.519-0.548-1.627,0.451c1.83,0.092,1.315,0.672-0.001,0.293c1.897,1.591,2.047,2.388,0.451,2.392
		c1.278,0.419,0.828,0.961-1.348,1.626l0.606-0.59c-2.033,0.912-2.483-0.277-1.351-3.568c0.243,0.798-0.005,0.995-0.744,0.591
		l1.037,1.487c-1.139-0.627-1.914-0.696-3.27-0.152l1.489,0.898l-1.782-0.156c0.591,1.273,1.681,2.018,3.271,2.234
		c-0.04,0.008-14.733,0.82-15.024,0.605l0.15-0.233c-0.14,0.141-0.294,0.264-0.463,0.372l0.605-0.591l-0.138,0.214
		c0.254-0.256,0.413-0.596,0.436-0.958c-2.474-0.569-6.305,2.545-6.544,1.939c-0.113,1.033-0.42,1.206-0.898,0.293l-0.45,0.898
		v-0.742c-0.338,1.139-0.835,1.185-1.49,0.137l-0.139,1.043l-0.153-0.589c-0.253,1.228-2.178,2.112-2.393,2.233l-0.431-0.59
		l0.293,0.59c-0.853-0.456-1.198-0.208-1.037,0.744l-0.606-0.899l-0.452,1.349c0.329-1.115,0.035-1.363-0.882-0.743l1.196-0.745
		L79.867,63.884L79.867,63.884z M205.495,235.971c-1.179,5.583-9.076,17.091-15.638,16.531c-0.677-5.522,3.646-13.352,9.23-14.889
		l-0.297,0.591c0.843-0.151,1.338-0.697,1.484-1.64l-0.1,0.541c0.828-2.459,2.317-4.478,4.467-6.049
		C204.58,232.73,204.864,234.368,205.495,235.971C204.913,238.727,205.757,234.732,205.495,235.971z"/>
	<path fill="none" d="M273.692,131.916l-0.448-2.681c-0.625,0.083-0.825,0.429-0.602,1.037l-0.298-1.196l0.146,1.196
		c-1.482-4.524-0.09,2.284-2.096-2.078c-1.026,2.951,0.524,7.452,1.344,10.42l0.148-1.052c0.375,1.132,0.726,2.274,1.045,3.423
		l0.449-1.037c0.327,0.49,0.595,1.029,0.82,1.596c-0.004-3.55-0.155-7.077-0.438-10.578
		C273.765,131.313,273.748,131.642,273.692,131.916C273.692,131.916,273.748,131.642,273.692,131.916z"/>
	<path fill="none" d="M152.021,10.891c-0.052-0.067-0.128-0.084-0.228-0.05C151.87,10.857,151.946,10.869,152.021,10.891
		C152.021,10.891,151.946,10.869,152.021,10.891z"/>
	<path fill="none" d="M158.759,11.774l-0.608,0.447c2.096-0.306,2.547-0.36,4.923,0.194c-1.769-1.834-4.225-2.242-7.37-1.223
		C156.333,11.348,157.291,11.538,158.759,11.774C158.759,11.774,157.291,11.538,158.759,11.774z"/>
	<path fill="none" d="M32.212,62.714c0.694-0.872,1.34-1.777,1.938-2.715C33.487,60.894,32.854,61.807,32.212,62.714
		C32.624,62.155,32.854,61.807,32.212,62.714z"/>
	<path d="M16.697,193.082c0.275,0.568,0.553,1.121,0.834,1.652c-0.908-2.092-3.147-7.98-3.918-10.279
		c0.084,0.395,0.185,0.801,0.291,1.209c-0.16-0.469-0.324-0.936-0.478-1.406c0.015,0.018,0.024,0.036,0.039,0.055
		c-0.224-0.931-0.536-1.861-0.89-2.742c0.005,0.017,0.01,0.031,0.014,0.048c-0.168-0.542-0.332-1.085-0.491-1.63
		c0.006,0.021,0.011,0.039,0.017,0.06c0.105-0.353,0.057-0.618-0.145-0.806c0.042,0.26,0.082,0.494,0.127,0.746
		c-1.921-6.697-3.185-13.549-3.889-20.479c0.611,3.269,0.589,3.026,1.956,4.745l-0.42-1.382l-0.292,0.313
		c-0.915-2.688-1.449-5.449-1.598-8.285c-0.009,0.233,0.011,0.465,0.01,0.697c-0.698-9.368-1.453-19.554-0.517-28.92
		c-0.019,0.05-0.046,0.093-0.082,0.129c0,0.003,0.002-0.044,0.002-0.018c0.014-0.114,0.028-0.228,0.043-0.341
		c0.034,0.07,0.042,0.127,0.041,0.181c0.062-0.52,0.117-1.04,0.16-1.563l-0.139,0.592c0.431-3.07,0.905-6.133,1.424-9.19
		l-0.089,0.861c0.051-0.495,0.102-0.99,0.154-1.486v0.153c0.018-0.106,0.051-0.207,0.073-0.311
		c-0.001,0.003-0.002,0.006-0.002,0.009c0.169-0.28,0.417-0.832,0.521-1.2l-0.105,0.292c-0.007-0.427,0.096-0.822,0.304-1.188
		c-0.258,1.266-0.009,2.469-0.2,3.733l-0.158-0.296c-0.361,1.145-0.399,2.163-0.14,3.275l0.065-0.282
		c-0.314,3.208-1.183,7.16,0.233,10.251v-1.194l0.317,1.336c0.686-8.043,2.378-16.341,3.992-23.958
		c0.041,0.975-0.168,2.029-0.586,2.824l0.152-2.977c-0.25,0.084-0.451,0.233-0.604,0.446c0.46-1.034,0.501-2.109,0.612-3.163
		c-1.322,3.937-2.532,7.389-3.681,10.007c2.518-12.179,6.879-24.031,12.75-35.089c-2.768,6.391-5.536,13.304-7.292,20.057
		c-0.01-0.082-0.011-0.174-0.018-0.259c-0.005,0.016-0.006,0.04-0.006,0.065c-0.002-0.013-0.002-0.021-0.004-0.036
		c-0.83,1.794-1.368,3.66-1.616,5.598c0.414-1.132,0.755-2.261,1.037-3.428c0.118,1.913,0,3.822-0.356,5.728
		C17.631,93.867,22.94,82.095,29.94,71.24c-4.719,0.804-6.518,8.095-8.877,11.403C23.33,77.28,26.88,72.37,29.75,67.305l-0.155,0.16
		c0.398-0.86,0.896-1.655,1.497-2.391l-0.453,0.45c0.816-1.62,1.833-3.029,2.816-4.48c-4.161,5.472-7.809,11.409-11.043,17.468
		c0.307-0.705,0.625-1.401,0.949-2.095c-22.432,39.856-22.598,89.787-0.422,129.786c-2.358-4.31-4.466-8.738-6.325-13.286
		C16.641,192.975,16.669,193.025,16.697,193.082C16.972,193.65,16.669,193.025,16.697,193.082z"/>
	<path d="M276.632,129.394c-0.188,4.434-0.497,8.869-0.663,13.304c0.895-4.111-0.037,11.391-0.103,6.886
		c0.184-0.846,0.366-1.692,0.55-2.538c-0.734,3.463,0.685,7.997-1.682,11.222v-0.16c-0.445,3.273-0.914,6.094-1.61,9.627
		c0.307-3.62,0.373-7.245,0.2-10.877C259.415,277.268,96.706,313.262,30.71,213.3c0.354,1.408,0.712,2.815,1.073,4.222l-0.591-0.306
		l0.292,0.604c-0.05-0.045-0.096-0.104-0.145-0.15c19.098,22.595,43.134,41.957,71.478,51.415
		c-23.879-6.796-45.842-20.047-62.531-38.482C124.883,325.292,288.276,256.424,276.632,129.394
		C276.444,133.828,277.003,133.442,276.632,129.394z"/>
	<path d="M230.957,41.299c-1.027-1.021-2.054-2.042-3.081-3.064c11.386,11.303,22.368,22.143,30.923,35.876
		c-14.825-25.158-37.871-45.094-64.838-56.271C207.477,23.592,219.958,31.574,230.957,41.299
		C229.93,40.277,230.797,41.157,230.957,41.299z"/>
	<path d="M142.148,10.439c1.545,0.569,3.188,0.617,4.927,0.144C145.433,10.535,143.791,10.487,142.148,10.439
		C142.148,10.439,143.842,10.349,142.148,10.439z"/>
	<path d="M273.984,150.374v-1.037l0.6,1.037l0.15-0.591v1.332c-0.004-0.572,0.096-1.12,0.299-1.643
		c-0.049,0.846-0.098,1.695-0.147,2.541c0.197-0.283,0.297-0.582,0.295-0.898l-0.151,0.461c0.139-1.927,0.224-3.873,0.283-5.826
		c3.138-14.577-4.609-45.991-14.307-62.657c7.758,18.673,16.756,43.606,13.874,64.888c-0.098-0.178-0.384-0.964-0.757-1.949
		C272.586,148.566,272.54,150.015,273.984,150.374C273.984,150.374,273.957,150.37,273.984,150.374z"/>
	<path d="M151.794,10.841c0.065,0.005,0.13,0.012,0.194,0.017l-0.121-0.125c0.822,0.099,1.553,0.099,2.399,0l-0.902-0.291
		c8.748,0.294,15.941,3.674,25.329,4.309l-0.799,0.152c2.616,0.566,4.414,1.169,7.336,1.783l-1.196-0.583
		c2.266,0.354,4.484,0.899,6.658,1.635c-15.664-6.485-31.297-9.094-47.875-9.815c1.182,0.111,2.358,0.284,3.527,0.578h-1.342
		c0.998,0.037,1.999,0.135,2.978,0.297c-2.02,0.374-4.062,0.576-6.125,0.604c1.87,0.489,3.886,0.074,6.127,0.883h-0.889l1.789,0.307
		C144.345,10.76,150.26,10.502,151.794,10.841C151.859,10.846,151.479,10.771,151.794,10.841z"/>
	<path d="M32.212,62.714c0.643-0.907,1.275-1.82,1.938-2.715c-1.218,1.811-2.389,3.652-3.511,5.525l0.453-0.45
		c-0.601,0.736-1.098,1.531-1.497,2.391l0.155-0.16c-2.869,5.065-6.419,9.975-8.687,15.338c3.031-4.25,6.132-12.701,10.904-11.053
		l-0.126,0.34c0.391,0.078,0.641-0.125,0.749-0.606l-0.3,0.154c-0.044-1.088,0.251-1.434,0.888-1.038l-0.435,0.744
		c0.822-0.871,1.47-1.872,1.93-2.977l-0.294,0.884c0.663-0.595,1.218-1.364,1.731-2.122l-0.53,0.787
		c0.399-0.397,0.797-0.795,1.196-1.193c-0.573,1.226-1.425,2.23-2.538,2.974c1.658-0.52,2.823-1.856,3.743-3.271l-1.202,1.782
		c2.774-0.514,4.054-0.011,4.335,0.743l-0.593,0.161c0.569-1.397,1.812-2.351,3.292-2.687v0.453l0.588-0.453l-0.293,0.745
		l1.202-0.589c-0.063,0.36,1.136,2.438,2.541,2.669c-0.719,0.106-2.187,2.822-1.045,0.605c-1.497-0.857-2.603-0.442-3.154,1.782
		c0.937-0.539,2.068-1.167,1.813,0.293c0.716-1.036,1.412-0.585,2.089,1.35c0.083-2.587,8.371-11.532,2.083-11.771
		c5.113-0.481,8.522,3.06,11.976,6.114l-0.139-1.042l0.299,0.743c0.32-1.189,3.051-7.495,2.995-7.145l1.65-0.745h-0.454
		c0.763-0.599,1.21-1.342,1.343-2.232c0.375,0.55,0.577,0.348,0.608-0.605l-0.155,0.742c0.941-0.076,7.065-6.458,7.03-6.391
		c-1.562,0.082-3.005,0.526-4.337,1.334l1.048-0.898h-1.657l1.064-0.882l-1.202,0.139c0.302-1.439,0.999-2.082,2.089-1.927
		l-0.453,0.439c1.215-0.248,2.143-0.964,2.561-2.082c0.044,1.472,1.146,0.701,2.091,0h-0.596c5.671-9.547,0.631-0.496,4.176-6.406
		c-7.965,1.024-15.013,5.827-21.996,8.932l1.043-0.884l-0.888,0.14c5.163-6.558,14.716-10.789,19.757-16.667l-0.749,0.154
		c2.407-1.267,5.807-1.225,7.484-0.898l-0.454,0.588c1.743-0.21,1.741-1.494,3.743-1.925c-0.909,0.683-1.809,1.377-2.7,2.081
		c1.287-0.148,1.438,0.25,0.453,1.195c1.87,0.388,3.412-0.521,4.491-2.233c-0.455,0.911-1.376,1.749-2.384,2.233
		c0.876,0.584,1.659,0.543,2.384-0.297l-1.498,1.786l1.791-1.041c-0.074,0.168-0.168,0.317-0.278,0.452
		c1.84,1.094,4.611,0.346,6.016-0.814c-0.121,0.299-0.229,0.613-0.313,0.957l0.451-0.154c-0.406,0.382-0.686,0.86-0.743,1.351
		c0.443-0.333,0.946-0.489,1.488-0.453c-0.732,0.421-1.477,0.821-2.232,1.198l0.447,0.137c-0.746,0.575-1.61,0.858-2.818,0.745
		c1.069,0.81-0.52,1.626-0.299,1.488c-0.87,0.812-10.537,3.877-6.56,0c-1.812-0.155-2.631,0.717-2.526,2.542l1.037-0.446
		l-1.191,1.036l0.605-0.152c-2.61,1.064-4.33,4.418-5.505,6.85l3.568-3.567l-0.745,1.181l0.744-0.591l-2.079,2.978l2.372-1.334
		l-1.037,1.042c2.513-1.004,1.607-1.414,3.27-2.235l-0.586-0.157l0.884-0.587l-0.745,0.14l2.095-1.042l-0.606-0.292
		c0.611-0.46,1.33-0.971,1.351,0l1.19-0.899c-1.442,1.075-1.545,1.623-0.309,1.644l-1.041,0.154L87,45.275
		c-1.456-0.316-2.485,0.376-3.115,1.797l2.233-0.898l-0.605,0.743l1.19-0.743l-0.139,0.743l0.591-0.897v0.744
		c1.285-1.285,0.004,0.4,1.488-0.884h-0.898c0.877-0.084,0.98-0.332,0.307-0.744c0.294-0.026,0.597-0.08,0.884-0.158
		c-0.831-0.348-0.777-0.642,0.16-0.883v0.591c1.25-0.436,1.398-0.782,0.445-1.038l0.744-0.452l-0.744,0.153l0.883-0.307h-0.586
		l0.745-0.298h-0.451c0.842,0.012,1.572-1.124,1.941-2.072v0.883c0.646-0.096,1.038-0.443,1.176-1.043l-0.293,1.196
		c0.668-0.396,0.825-1.015,0.604-1.781l0.432,1.191c0.125-1.539,0.919-2.138,2.386-1.798l-0.744-0.295h0.903l-1.802-0.14
		c0.987,0.194,1.287,0.045,0.899-0.447l1.335,0.139l-0.884-0.59c0.916,0.483,1.658,0.354,2.232-0.591l-1.349-0.153l1.642-0.294
		l-1.19-0.297c1.621,0.273,2.861-0.325,3.721-1.795c-0.384-0.314-0.863-0.434-1.217-0.008l0.174-0.29l-1.19,0.606l1.781-1.054
		c-0.322-0.189-0.773-0.299-1.177-0.297c2.731,0.487,4.468-0.406,5.211-2.68c-1.938-1.547-4.73-1.834-5.816,1.053
		c0.563-0.268,1.138-0.447,1.719-0.562c-0.715,0.584-1.535,0.874-2.462,0.856c0.789-0.332,1.241-1.136,1.348-2.093
		c-1.487,0.239-3.767,2.446-5.716,2.833c0.966-1.104,0.074-1.404-2.678-0.902c1.641-0.497,3.282-0.993,4.923-1.49l-1.931-0.138
		l2.839-0.898l-0.161,0.589c0.464-0.818,1.294-1.448,2.246-1.042l-0.448,0.297l4.644-1.336c-2.146-1.369-5.332-0.032-6.581,0.292
		l0.299,0.3c-1.167-0.402-1.655-0.465-3.154-0.437c0.763-0.599,1.621-0.742,2.56-0.448c-0.755-0.523-0.361-0.921,1.184-1.195
		c-0.905,0.416-1.351,0.528-2.244,0.59l1.656-0.59l-0.594-0.153c0.803-1.097,8.079-6.626,9.575-6.7l-0.608,0.605
		c0.321-0.067,0.666-0.156,1-0.234c-2.76,1.018-5.443,3.318-6.669,5.002l1.19-0.154l-0.446-0.296l1.349-0.139
		c-1.727,0.697,0.538,0.354-1.195,1.04c1.141,0.373,2.179,0.604,3.131,0.717c-0.298,0.11-0.602,0.207-0.898,0.32
		c0.748,0.884,1.757,1.971,5.351-0.45c-0.469,0.034-0.922,0.004-1.368-0.057c1.426-0.414,2.492-1.322,3.169-2.763l-2.978-0.159
		c1.25-0.163,2.511-0.296,3.722-0.584l-1.35,0.139l0.745-0.298c-1.297,0.212,6.374-1.663,1.934-2.681l-1.488,1.054l1.042-1.191
		c-1.792-0.037-3.155,1.565-4.918,2.074l2.838-2.074c-0.431-0.044-0.874-0.029-1.323,0.028c4.529-1.253,9.72-3.298,13.486-5.248
		l-1.047-0.16c4.394-0.452,10.343-1.8,14.66-1.19l-0.141,0.154c2.428-0.954,3.321-0.903,2.679,0.154
		c3.058-0.793,6.158-1.393,9.296-1.797c-1.069-0.033-3.109-0.661-4.521-1.182h0.001c-0.142-0.05-0.282-0.101-0.424-0.152
		c2.196-0.117,4.505,0.235,6.734,0.152l-1.789-0.307h0.889c-2.241-0.809-4.258-0.394-6.127-0.883
		c2.064-0.028,4.106-0.23,6.125-0.604c-0.979-0.162-1.979-0.26-2.978-0.297h1.342c-1.169-0.294-2.346-0.467-3.527-0.578
		c16.578,0.721,32.211,3.33,47.875,9.815c-2.174-0.735-4.393-1.28-6.658-1.635l1.196,0.583c-2.922-0.614-4.72-1.217-7.336-1.783
		l0.799-0.152c-2.404-0.163-16.693-2.924-15.62-2.335c-2.376-0.554-2.827-0.5-4.923-0.194l0.608-0.447
		c-1.662-0.267-3.694-1.276-5.395-1.333l0.902,0.291c-0.847,0.099-1.577,0.099-2.399,0c0.051,0.054,0.103,0.106,0.154,0.159
		c-0.567-0.169-1.221-0.168-1.79,0c3.319,2.135,4.663,2.284,4.032,0.447c2.491,2.165,6.681,3.771,10.183,4.763l-0.151-0.606
		c2.512,0.183,9.609,5.091,9.711,7.593l-0.901-0.452c-0.151,1.295,0.188,1.826,1.019,1.593l-0.451,0.055
		c1.777,2.365,7.129,4.965,9.014,5.501c-1.597,0.197-3.192,0.394-4.789,0.591c3.148,2.99-0.661,6.46-3.894,5.211l0.6-0.299
		c-6.764-2.034,2.022,4.988-5.092,1.94c1.699,4.248,3.52-0.172,2.993,4.758c0.615-0.363,2.762,2.902,0.75,3.277
		c2.971-0.101,3.319,0.942,1.046,3.13c1.496,0.403,2.993,0.807,4.489,1.21c-4.56,1.101-0.492,0.772-2.992,2.513l2.894,0.294
		c-1.786,0.71-3.61,0.171-5.137-1.193c0.523,0.802,1.109,1.508,1.741,2.129c-1.604-0.957-3.185-1.302-4.285-0.486
		c3.01,2.563,4.545,5.572,7.479,7.598l-3.143-0.605l0.446-0.139c-1.446,0.146-2.894,0.292-4.34,0.438
		c6.148,2.478-8.389,5.489-5.374,7.308c-0.562,1.132-1.286,2.558-3.131,1.33c1.867-1.527,1.275-1.932-2.562-2.073
		c5.925,3.873,0.165,5.462-1.498,8.938l0.315-0.605c-2.756-0.404-1.287,1.161-0.315,2.384c-3.274-0.599-5.459-4.163-7.032-5.952
		c2.572,0.929,5.699,1.062,7.638,0.154c-1.475-4.969-10.494-5.703-11.828-7.308c-0.966-0.121-1.241,0.548-1.495,1.351v-1.198
		l-0.892,1.781l0.304-1.643c-1.292,0.183-4.112,2.233-4.651,3.288c0.168-0.275,0.218-0.58,0.159-0.901l-0.298,0.591v-0.191
		c-0.113,1.201-1.01,1.863-2.694,1.987l0.809,0.095c-0.765-0.046-1.184,0.259-0.97,1.24c-0.016-1.035-0.364-1.185-1.043-0.452
		l0.607,0.298H136.6c1.286,0.77,0.34,1.016-0.595,1.191l0.889,0.297l-1.791,0.311c0.857,0.353,0.659,0.849-0.594,1.486l1.042-0.153
		c-0.854-0.031-1.843-0.038-1.041,0.897c-0.681-0.677-1.082-0.284-1.202,1.181l0.886-0.138l-1.79,0.743l0.903-0.16
		c-0.395,0.198-2.669,1.503-3.149,2.391c0.306,0.145,0.586,0.195,0.845,0.171c-2.792,0.023-3.521,0.611-2.186,1.765l-1.496-0.744
		l1.048,0.744l-1.952-0.155l0.455,0.726c-0.251-0.236-0.595-0.243-1.046,0.019l0.296,0.451l-1.202-0.604
		c1,1.627,0.803,2.174-0.593,1.642l0.749,0.292c-0.481,0.552-1.607,1.203-0.903,2.53l0.607-0.591l-0.604,1.038l2.105-1.038
		c-2.163,1.293-2.007,1.43-2.106,2.825c2.374,2.02,4.37,1.672,5.986-1.042c0.151,1.443,0.302,2.886,0.454,4.329l0.589-0.897
		c-0.371,2.392,0.178,4.164,0.315,6.544c4.069-0.295,6.461-8.871,7.028-7.136c2.049-1.178,2.288-11.871,4.195-14.587
		c1.474,3.991,2.07,8.109,1.789,12.354c2.769-1.522,5.664-1.822,8.687-0.9c-9.662,4.275-5.413,5.777-13.041,13.244
		c0.752-0.311-11.605,4.315-12.148-2.709c0.013,0.004-0.128-3.963,1.378-5.617c-4.86,1.193-5.749,5.808-2.385,9.072
		c-2.068-2.166-7.151,2.595-7.342,0.307c0.449,3.37-3.674,2.388-1.496,3.412c-6.667,2.155-8.175,3.21-14.514,3.582l0.749,0.743
		c11.44,4.581-12.518,15.453-14.969,18.609l0.902-0.16c-0.336,2.928,0.042-0.905-1.358,4.33c8.165,4.732,27.661-12.658,32.787-3.581
		c3.422-2.657,4.294-4.009,9.975-1.071c-3.196-2.479-3.633-5.196-1.309-8.152l0.454,2.387c1.595-2.492,4.849,3.111,6.16,4.642
		c-0.349-0.124-0.703-0.235-1.061-0.329l1.183,0.453c-0.035-0.043-0.077-0.077-0.113-0.118c5.034,1.811,3.69,11.289,9.185,10.906
		c-0.877-0.025-1.755-0.051-2.632-0.076c-2.086,4.481,1.791,1.802,2.104,4.31c0.048-1.375,0.496-1.42,1.344-0.138
		c-0.91-1.497-1.574-3.021,0.589-2.395l-1.043-1.037c0.754-0.677,1.461-0.528,1.907,0.371c-0.27-0.597-0.53-1.197-0.788-1.8
		l1.434,0.979c-0.104-1.062-2.867-4.509-3.44-5.657c1.14-0.279,1.563,0.43,2.541,1.189l-0.445-0.882l1.194,0.437l-1.359-1.334
		c1.72-0.871,3.671-0.789,5.461-0.182c-3.359,4.409,4.894,7.812,1.887,9.261c3.16,1.097,13.149-0.456,15.998-2.386
		c-3.024,12.519-6.876,12.298-18.526,13.312c-17.361,1.511-19.75,1.98-30.947-9.934c-14.691-15.632-41.659,4.847-52.736,15.68
		c0.058,0.006,0.104-0.008,0.152-0.016c-2.071,2.209-3.495,4.165-3.739,5.52l0.454-0.451c0.581,4.583-2.413,17.27-2.85,16.545
		c-0.823,1.354,1.331,3.048-0.453,2.07l1.356,0.744c-1.658,0.409-1.113,1.154,1.636,2.234c-3.151,0.903,2.722,6.877,3.446,8.045
		h-0.887c9.346,14.703,20.069,12.965,35.922,13.393l-1.063,0.299c1.45,1.81,2.948,2.305,4.491,1.488l-0.749,0.446l1.064,0.438
		l-0.749-0.141c1.61,0.254,2.751,1.246,3.426,2.979v-0.45l0.315,0.45l-0.155-0.604l0.45,0.604c0.46-2.018,2.192,1.325,2.839-0.743
		c3.753,1.174,4.585,6.028,3.288,9.224l-0.887-0.293l1.635,0.885c-0.361,0.199-2.563,1.328-2.992,1.188
		c2.346,3.822,4.9,8.696,9.294,10.577c0.249,5.576-1.28,10.033-1.262,15.356c0.016,4.374,14.501,20.387,14.125,20.512
		c7.104,3.283,27.641,1.211,31.317-8.322c-0.264,0.4-0.572,0.4-0.929,0c6.452-0.914,11.324-7.299,14.684-12.286
		c5.96-8.851,1.014-14.307,3.29-23.298c3.646-14.407,20.348-20.575,24.854-34.546c-1.535,0.844-1.701-0.095-0.496-2.816
		c-11.2,5.407-31.262,4.806-31.576-12.655l0.449,0.291c-2.286-6.585-12.073-10.276-12.114-18.763
		c1.153,1.871,2.017,3.533,4.032,4.623l1.048-4.313c2.408,9.849,18.714,37.624,29.066,30.651
		c7.64-5.145,12.812-12.722,17.394-20.584c7.736-13.275-6.448-4.934-5.006-14.241c-0.875,3.622-2.932,6.354-6.171,8.196
		c-1.513-4.706-7.073-8.471-11.045-10.88c11.22,0.335,33.223,5.795,41.009-2.083c-0.478,0.883-0.956,1.765-1.434,2.647
		c10.034,2.119,11.462,14.226,18.352,20.121c0.633-1.658,1.206-3.789,1.708-6.219c0.192,0.924-0.016,3.475-0.129,3.711l-0.301-0.293
		c0.474,1.229,0.861,2.447,1.189,3.721c1.44-2.788-0.947-7.393,0.045-6.896c-1.44-0.729,1.582-29.576,0.632-34.345l0.597,1.038
		v-1.489l0.649,0.452l-0.35-0.904l0.448,0.453c-0.41-0.949-0.312-1.248,0.296-0.896l-0.398-1.183l0.695,0.743l-0.445-1.936
		l0.023,0.042c-0.951-4.049,3.438,1.657,3.568,1.893l-0.146-1.189c1.164,1.256-0.304,0.605,1.948,2.232l-0.301-1.195
		c1.284,2.073,1.81,4.064,2.397,6.406v-1.042l0.146,1.042v-0.745l0.446,0.293l-0.147-1.038l0.447,0.293
		c0.067-0.147-0.296-4.763-0.447-5.056l0.899,1.183l0.148-0.592c0.546,1.771,1.153,3.532,1.949,5.209l-0.148-0.897
		c2.042,2.516,2.314,8.868,2.54,10.867l0.147-0.744c1.814,1.753,1.975,4.87,3.144,6.998c0.472-2.967-0.028-5.645-1.499-8.033
		l-0.449,1.037c-0.319-1.149-0.67-2.291-1.045-3.423l-0.148,1.052c-0.819-2.968-2.37-7.469-1.344-10.42
		c2.006,4.362,0.613-2.446,2.096,2.078l-0.146-1.196l0.298,1.196c-0.224-0.608-0.023-0.954,0.602-1.037l0.448,2.681
		c1.89-9.299-5.677-16.698-6.84-24.558c0.181,0.42,0.413,0.819,0.71,1.185c0.127-1.758-0.346-3.748-1.19-5.351
		c-0.024,0.258-0.04,0.519-0.049,0.781c-0.321-0.74-0.361-1.497-0.12-2.271c0.455,0.736,0.867,1.554,1.196,2.373
		c-0.139-0.906-0.455-1.838-0.9-2.67l0.146,0.299c-0.312-1.942-0.62-3.72-1.347-5.515l0.447,0.591
		c-0.439-0.528-0.488-0.776-0.146-0.744l-0.901-1.337l0.798,0.141c-0.411-0.373-0.63-0.903-0.648-1.487l0.146,0.298
		c-0.856-3.243-2.498-6.971-3.988-10.558c9.697,16.666,17.444,48.081,14.307,62.657c-0.06,1.953-0.145,3.899-0.283,5.826
		l0.151-0.461c0.002,0.316-0.098,0.615-0.295,0.898c0.05-0.846,0.099-1.695,0.147-2.541c-0.203,0.522-0.303,1.07-0.299,1.643v-1.332
		l-0.15,0.591l-0.6-1.037c0.008,0.075-1.073,5.992-1.944-0.901c-1.645,2.235,1.461,15.082,1.084,19.299
		c0.696-3.533,1.165-6.354,1.61-9.627v0.16c2.366-3.225,0.947-7.759,1.682-11.222c-0.184,0.846-0.366,1.692-0.55,2.538
		c0.065,4.505,0.997-10.997,0.103-6.886c1.639-43.77-17.573-74.167-48.093-104.463c1.027,1.021,2.054,2.042,3.081,3.064
		C169.695-12.865,57.13-1.264,22.411,78.512C25.321,73.062,28.612,67.799,32.212,62.714C32.854,61.807,28.612,67.799,32.212,62.714z
		"/>
	<path d="M101.748,70.145c1.66,2.395,4.404,2.874,7.131,0.883c1.381-4.68-3.524-4.25-5.348-2.977c0.874-0.939,1-1.934,0.292-2.976
		l-0.447,1.35c0.149-1.478-0.492-1.58-1.925-0.308l1.925,1.19l-1.042,0.16l0.452,0.446l-1.94-0.606
		c1.454,1.311,1.666,2.242-0.446,2.391L101.748,70.145C103.408,72.54,101.748,70.145,101.748,70.145z"/>
	<path d="M112.754,99.61c0,0.218,1.766-2.534,0.002-0.004c2.996-4.34-2.706-5.753-0.885-7.875c-1.94-0.63-1.293-1.524,1.94-2.683
		L110.68,88.6l2.526-1.941c-2.75-0.461-4.486,0.53-5.21,2.976c2.244,0.531,0.617,1.877-0.744,2.978
		c0.602-0.554,1.249-1.051,1.939-1.487c-0.445,1.092-0.889,2.184-1.334,3.276c0.842-0.047,1.683-0.094,2.525-0.141
		c1.366-0.49-2.533,3.021-3.846,4.165l1.007-0.15c-0.271,1.134-1.248,1.761-2.526,1.941c0.915,1.172,1.991,1.658,3.209,1.301
		c-1.76,0.709-3.098,1.337-5.149,2.419C106.85,103.98,117.939,98.488,112.754,99.61C112.754,99.609,114.201,99.297,112.754,99.61z"
		/>
	<path d="M14.15,106.235c0.355-1.905,0.474-3.814,0.356-5.728c-0.282,1.167-0.623,2.296-1.037,3.428
		c0.248-1.938,0.786-3.804,1.616-5.598c0.002,0.015,0.002,0.023,0.004,0.036c0-0.025,0.001-0.049,0.006-0.065
		c0.007,0.085,0.008,0.177,0.018,0.259c1.756-6.753,4.524-13.666,7.292-20.057c-5.871,11.058-10.232,22.91-12.75,35.089
		c1.149-2.618,2.359-6.07,3.681-10.007c-0.111,1.054-0.152,2.129-0.612,3.163c0.153-0.213,0.354-0.361,0.604-0.446l-0.152,2.977
		c0.418-0.795,0.627-1.849,0.586-2.824c0.104,0.098,0.208,0.195,0.312,0.293C14.1,106.585,14.125,106.408,14.15,106.235
		C14.392,104.599,14.125,106.408,14.15,106.235z"/>
	<path d="M105.172,92.773c0.956-0.852,0.425-0.872-0.447,0c-0.224-1.167-0.968-0.539-1.648,0.138c0.813-0.399-3.257,2.057-3.27,4.03
		l1.628,0.298l-2.511,0.139l0.729,0.447l-1.042,0.297l1.042,0.308l-1.042,0.296l1.042,0.14l-0.729,0.446
		C101.801,99.437,109.495,96.599,105.172,92.773C105.172,92.773,109.495,96.599,105.172,92.773z"/>
	<path d="M204.643,231.057c-2.149,1.571-3.639,3.59-4.467,6.049l0.1-0.541c-0.146,0.942-0.642,1.488-1.484,1.64l0.297-0.591
		c-5.585,1.537-9.907,9.366-9.23,14.889C202.469,253.578,201.729,236.373,204.643,231.057
		C202.493,232.628,204.537,231.249,204.643,231.057z"/>
	<path d="M77.529,257.518c-17.651-10.333-33.023-24.27-46.19-39.848c0.049,0.047,0.095,0.105,0.145,0.15l-0.292-0.604l0.591,0.306
		c-3.589-13.925-7.304-30.644-13.849-41.834v-0.748c-0.087-0.072-0.872-1.396-1.038-1.941l-0.159,0.299l-0.584-1.182
		c-0.401,0.555-0.401,1.096,0,1.628c-0.194-1.276-0.542-1.374-1.043-0.291c0.179-0.604,0.055-1.093-0.304-1.481l0.753,0.584
		c0.369-1.631-0.157-3.186-1.348-4.468l-0.293,1.192v-0.887l-0.298,0.299v-1.041l-0.293,0.437c1.631-2.998,1.118-6.116,0.433-10.112
		l-0.14,0.59c-0.324-5.1-3.013-9.291-3.424-14.283l-0.297,0.437c1.07-4.244-0.479-8.95-0.154-13.243l0.452,0.745
		c-0.248-1.045-0.496-2.09-0.744-3.135v1.194c-1.416-3.091-0.547-7.043-0.233-10.251l-0.065,0.282
		c-0.259-1.112-0.221-2.13,0.14-3.275l0.158,0.296c0.191-1.264-0.059-2.467,0.2-3.733c-0.208,0.366-0.311,0.761-0.304,1.188
		l0.105-0.292c-0.104,0.368-0.352,0.92-0.521,1.2c0-0.003,0.001-0.006,0.002-0.009c-0.022,0.104-0.055,0.205-0.073,0.311v-0.153
		c-0.052,0.496-0.103,0.991-0.154,1.486l0.089-0.861c-0.519,3.057-0.993,6.12-1.424,9.19l0.139-0.592
		c-0.043,0.523-0.098,1.043-0.16,1.563c0.001-0.054-0.007-0.111-0.041-0.181c-0.015,0.113-0.03,0.227-0.043,0.341
		c0-0.027-0.003,0.021-0.002,0.018c0.036-0.036,0.063-0.079,0.082-0.129c-0.937,9.366-0.181,19.552,0.517,28.92
		c0.001-0.232-0.019-0.464-0.01-0.697c0.149,2.836,0.683,5.598,1.598,8.285l0.292-0.313l0.42,1.382
		c-1.367-1.719-1.345-1.477-1.956-4.745c0.704,6.93,1.968,13.781,3.889,20.479c-0.045-0.252-0.085-0.486-0.127-0.746
		c0.202,0.188,0.25,0.453,0.145,0.806c-0.006-0.021-0.011-0.039-0.017-0.06c0.159,0.545,0.323,1.088,0.491,1.63
		c-0.004-0.017-0.009-0.031-0.014-0.048c0.354,0.881,0.666,1.812,0.89,2.742c-0.015-0.019-0.024-0.037-0.039-0.055
		c0.154,0.471,0.318,0.938,0.478,1.406c-0.106-0.408-0.207-0.814-0.291-1.209c0.771,2.299,3.01,8.188,3.918,10.279
		c-0.307-0.605-0.612-1.211-0.917-1.817c15.234,37.273,47.557,65.169,86.203,76.168C94.046,266.158,85.612,262.251,77.529,257.518
		C65.013,250.19,85.612,262.251,77.529,257.518z"/>
	<path d="M130.961,139.474c0.978-0.84,1.459-2.018,1.443-3.531c-1.836,0.093-4.042-0.208-5.8,0.293
		C126.932,136.815,130.113,139.775,130.961,139.474C131.041,139.446,130.113,139.775,130.961,139.474z"/>
	<path d="M163.525,56.004c-0.648,0.119-1.244,0.367-1.787,0.744c1.4,1.03,1.094,5.13,5.639,2.977
		C165.041,59.536,163.757,58.296,163.525,56.004C162.877,56.123,163.148,58.494,163.525,56.004z"/>
	<path d="M161.791,54.653c-0.441,0.088-0.661,0.432-0.656,1.042l1.336-0.297l-0.433,0.902l1.487-0.45l-0.902-0.744h0.902
		l-0.902-0.292h0.745l-0.745-0.606c0.024,0.005-0.925-4.343,0.452-6.546C162.051,49.11,159.898,53.441,161.791,54.653
		C161.35,54.741,159.898,53.441,161.791,54.653z"/>
	<path d="M80.749,64.192v1.041l0.452-1.349l0.606,0.899c-0.161-0.952,0.185-1.2,1.037-0.744l-0.293-0.59l0.431,0.59
		c0.215-0.121,2.14-1.005,2.393-2.233l0.153,0.589l0.139-1.043c0.655,1.047,1.152,1.001,1.49-0.137v0.742l0.45-0.898
		c0.478,0.913,0.785,0.74,0.898-0.293c0.239,0.606,4.07-2.508,6.544-1.939c-0.023,0.362-0.182,0.702-0.436,0.958l0.138-0.214
		l-0.605,0.591c0.169-0.108,0.323-0.231,0.463-0.372l-0.15,0.233c0.291,0.215,14.984-0.597,15.024-0.605
		c-1.59-0.216-2.68-0.961-3.271-2.234l1.782,0.156l-1.489-0.898c1.356-0.544,2.131-0.475,3.27,0.152l-1.037-1.487
		c0.739,0.404,0.987,0.207,0.744-0.591c-1.132,3.291-0.682,4.48,1.351,3.568l-0.606,0.59c2.176-0.665,2.626-1.207,1.348-1.626
		c1.596-0.004,1.446-0.801-0.451-2.392c1.316,0.379,1.831-0.201,0.001-0.293c0.108-0.999,0.804-0.879,1.627-0.451l-1.037-0.744
		c2.178,0.921,3.809-0.622,5.365,0.298c-0.318-1.896,0.029-2.391,1.042-1.487l-0.298-1.042c1.02,0.858,4.466-0.682,4.466-3.117
		l-0.899,0.298c1.25-0.993,2.731-1.525,3.876-2.686h-0.292c0.383-0.246,2.699-1.896,2.665-2.524
		c-0.889,0.293-1.777,0.586-2.666,0.881L127.799,42l-2.233,0.16l1.491-0.452l-2.081-1.036c1.332,0.42,2.51,0.642,4.015,0.743
		l-0.898-0.743l0.898-0.298l-2.84-1.054c1.081-0.22,2.085,0.044,2.978,0.746c-1.089-2.225-4.066-0.289-2.818-2.234
		c-0.831-0.242-1.272,0.048-1.334,0.859v-0.859c-1.602,1.519-2.076,1.469-1.058-0.59l-1.921,0.898l0.592-0.898h-1.042l1.627-0.592
		c-0.879-0.789-2.973-0.747-3.118-0.898l-1.036,0.292l0.883-0.444c-1.667-0.813-8.933,0.788-8.933,0.444l-0.292,0.903l-0.158-1.487
		c-1.041,0.972-2.029,0.645-2.665,2.073l0.744-0.446c-0.917,1.519-8.76,7.165-9.087,8.495c1.701-0.002,1.414,0.182,0.156,0.437
		l0.43,0.604l-0.882-0.158l0.452,0.297c-0.539-0.324-0.689-0.122-0.452,0.606c-0.457-0.639-0.934,0.176-1.351,0.882
		c0.53-0.813,0.551-1.568-0.138-2.232c0.511,2.269-0.382,3.561-2.681,3.875l0.292-0.59l-1.195,0.883l-0.015-0.139
		c-0.734-0.137-1.122,0.157-1.16,0.884l-0.154-1.783c0.105,1.16-0.444,1.356-1.648,0.591l1.648,0.605l-0.591-0.159l0.745,0.903
		l-1.94-1.35l0.451,1.35l-1.057-1.042c0.215,1.273-0.08,1.521-0.884,0.743c-0.133,0.612,0.069,1.039,0.598,1.286l-1.948-0.54
		c1.07,0.983,0.725,1.377-1.036,1.18c0.69-0.036,1.253,0.15,1.349,0.745l-1.488-0.591c0.623,0.447,0.324,0.695-0.899,0.744
		l0.744,0.293c-0.775-0.333-1.421-0.133-1.94,0.605c0.973,0.255,1.784,0.042,2.388-0.744c-0.508,2.043-1.252,2.337-2.232,0.883
		c-0.173,1.497-1.625,0.557-1.037,1.939c-0.453-0.981-0.903-0.785-1.35,0.591h0.745c-2.321,0.725-2.817,1.325-1.489,1.799H81.2
		l0.605,0.138c-0.296,0.692-0.648,0.792-1.057,0.298l0.313,0.605l-0.605-0.298c-1.185,1.788,2.492,3.903,0,2.669l0.898,0.155
		l-1.037,0.292L81.062,63l-0.744,0.586l0.883-0.138l-1.334,0.436l1.196-0.139l-1.196,0.745L80.749,64.192L80.749,64.192z"/>
	<path d="M112.462,32.031c-0.418,0.404-0.649,0.636-1.038,1.038c1.22-0.436,1.617-0.188,1.192,0.744
		c1.415-1.071-0.047,0.644,1.334-0.446v0.604l1.333-1.197l-0.296,1.039l0.902-0.883c-0.225,1.29,0.121,1.538,1.038,0.745
		l-0.453,0.743c0.677-0.43,1.324-0.43,1.941,0l-0.452,0.298l2.531,0.745l-0.884-1.043c0.429,0.425,3.331,1.311,4.154,0.591
		l-0.59-0.745l0.903,0.293c1.358-3.86-3.997-1.382-0.604-3.269c-0.392-0.422-0.837-0.422-1.336,0l0.884-0.591
		c-1.818-1.121-2.557-0.924-2.218,0.591c-0.543-1.825-1.753-0.637-0.447,0.45c-0.919-1.327-3.208,1.169-1.488-0.904
		c-3.96,0.942-2.803,0.454-6.406,0.454l0.883,0.588l-1.489-0.437l1.801-1.19c-1.175-0.132-2.317-0.034-3.428,0.294h0.743
		l-0.897,0.292h0.744l-1.042,0.453l0.745,0.152l-0.745,0.437l0.903-0.139l-1.041,0.448l1.041-0.31l-1.785,0.745
		C110.048,32.953,111.323,32.7,112.462,32.031C112.044,32.435,111.323,32.7,112.462,32.031z"/>
	<path d="M138.359,50.346v0.586c0.846-0.846,0.649,0.131-1.042,0.605c0.154,0.521,0.496,0.648,0.924,0.566l-0.474,0.178l0.745,0.436
		l-1.196-0.138c3.469,4.367,2.159-2.988,2.078-3.138l-0.432-1.19v1.936l-0.744-1.489c-0.893,0.994-0.961,0.895-0.312-0.14
		c-1.613,0.313-1.573,1.426-0.746,2.825L138.359,50.346L138.359,50.346z"/>
	<path d="M121.686,128.048c-2.381,0.644-2.777,2.702-2.074,5.211C122.204,133.294,124.098,131.81,121.686,128.048z"/>
</g>
</svg>
