<?xml version="1.0" encoding="utf-8"?>
<!-- Generator: Adobe Illustrator 15.1.0, SVG Export Plug-In . SVG Version: 6.00 Build 0)  -->
<!DOCTYPE svg PUBLIC "-//W3C//DTD SVG 1.1//EN" "http://www.w3.org/Graphics/SVG/1.1/DTD/svg11.dtd">
<svg version="1.1" id="Layer_2" xmlns="http://www.w3.org/2000/svg" xmlns:xlink="http://www.w3.org/1999/xlink" x="0px" y="0px"
	 width="283.465px" height="283.465px" viewBox="0 0 283.465 283.465" enable-background="new 0 0 283.465 283.465"
	 xml:space="preserve">
<g>
	<g>
		<path fill="none" d="M76.267,38.95c0.572,0.125,1.144,0.248,1.715,0.372c0.329,0.07,0.299,0.785,0.357,1.074
			c0.041,0.205,0.062,1.036,0.31,1.045c0.38,0.015,0.761,0.028,1.142,0.043c2.398,0.088,4.796,0.177,7.194,0.265
			c-0.37-0.879-0.741-1.759-1.111-2.638c-0.092-0.218-1.458-0.104-1.68-0.11c-1.949-0.056-3.897-0.11-5.846-0.166
			c0.372-0.351,1.857-1.356,1.708-1.844c-0.175-0.573-0.35-1.146-0.526-1.718c-0.051-0.166-0.337-0.086-0.49-0.086
			c-2.052,0-4.104,0-6.158,0c-0.861,0.537-1.716,1.085-2.565,1.644c0.782,0.481,1.707,1.201,2.529,1.379
			C73.985,38.457,75.126,38.704,76.267,38.95z"/>
		<path fill="none" d="M252.387,202.303c-1.839,1.838-2.174,5.555-3.08,8.612c2.972-4.424,5.668-9.041,8.064-13.827
			C255.823,198.88,254.167,200.623,252.387,202.303z"/>
		<path fill="none" d="M230.698,64.571c1.184,0.012,2.366,0.023,3.55,0.035c1.281,0.013,2.563,0.025,3.844,0.039
			c0.789,0.008,0.813-0.388,1.271-1.067c0.412-0.615,0.825-1.23,1.236-1.846c0.112-0.167,0.199-0.285,0.258-0.381
			c-1.878-2.221-3.832-4.379-5.859-6.468l-0.013,5.27c-0.905,0.46-1.812,0.919-2.718,1.378c-0.583,0.296-1.167,0.593-1.751,0.889
			c-0.135,0.068-0.724,0.256-0.79,0.4c-0.121,0.267,0.404,1.351,0.492,1.649C230.271,64.647,230.53,64.57,230.698,64.571z"/>
		<path fill="none" d="M266.979,112.62c-2.452-10.131-6.152-19.791-10.934-28.818c0.209,0.696,0.415,1.396,0.614,2.096
			c-0.536-1.128-1.087-2.248-1.657-3.358l-0.765,0.868c-0.124,1.763-0.009,3.614-0.009,5.398c1.087-0.149,2.097-0.276,3.168-0.275
			c0.487,1.783,0.963,3.577,1.438,5.377c-1.697,0.027-3.394,0.055-5.092,0.083c-0.354,0.006-1.499-1.636-1.74-1.9
			c-0.327-0.359-1.423-1.185-1.477-1.687c-0.195-1.854-0.393-3.706-0.59-5.56c-0.889,0.485-1.777,0.97-2.666,1.454
			c-0.717,0.391-0.663,0.531-0.868,1.339c-0.499,1.962-0.997,3.924-1.497,5.885c-1.548-1.646-3.099-3.294-4.646-4.941
			c-0.158-0.168-0.095-0.462-0.103-0.684c-0.028-0.724-0.056-1.448-0.084-2.171c-0.031-0.825,0.204-1.744-0.443-2.298
			c-1.754-1.503-3.557-2.952-5.188-4.587c-0.223-0.224-0.507-0.7-0.846-0.7c-0.573,0-1.145,0-1.718,0c-1.144,0-2.288,0-3.433,0
			c0.447,1.253,0.894,2.505,1.34,3.757c0.368,1.033,0.53,1.061,1.503,1.604c1.436,0.801,2.871,1.603,4.307,2.402
			c0.847,0.473,1.33,0.958,2.008,1.678c-0.215,0.106-1.39,0.536-1.386,0.739c0.013,0.701,0.025,1.403,0.038,2.104
			c0.002,0.144,0.13,1.537,0.017,1.584c-0.572,0.239-1.146,0.479-1.717,0.718c-0.327,0.137-1.082,0.639-1.442,0.56
			c-0.735-0.164-1.471-0.328-2.206-0.491c-0.907-0.202-1.522-1.693-2.044-2.426c1.172,0.063,2.344,0.125,3.517,0.188
			c0.335,0.018,0.698,0.16,0.906-0.122c0.347-0.47,0.694-0.939,1.041-1.409c-2.207-1.488-4.412-2.977-6.619-4.465
			c-0.943-0.637-1.888-1.273-2.832-1.91c-0.262-0.176-0.281-0.78-0.355-1.063c-0.153-0.581-0.309-1.162-0.463-1.743
			c-1.089,0.986-2.181,1.974-3.271,2.961c-0.32,0.288-0.457,0.578-0.88,0.491c-0.84-0.173-1.682-0.346-2.521-0.519
			c-0.206-0.042-1.038-0.355-1.185-0.167c-0.31,0.403-0.62,0.807-0.93,1.21c-1.103,1.433-2.203,2.865-3.306,4.299
			c-0.565,0.734-1.13,1.467-1.695,2.202c-0.275,0.358-0.395,1.017-0.556,1.435c-0.207,0.533-0.415,1.066-0.621,1.6
			c-0.108,0.28-3.121,0.297-3.527,0.334c-0.943,0.085-1.902,0.037-2.847,0.043c-0.786,0.005-1.572,0.009-2.359,0.015
			c-0.229,0.001-0.613,0.082-0.825-0.018c-1.098-0.512-2.192-1.023-3.29-1.536c-0.329-0.153-0.402-2.447-0.456-2.805
			c-0.187-1.276-0.374-2.552-0.562-3.829c-0.046-0.316,0.211-0.711,0.321-0.999c0.256-0.67,0.511-1.34,0.768-2.009
			c0.266-0.697,1.852-0.69,2.516-0.837c1.048-0.229,2.277-0.714,3.353-0.735c1.019-0.02,2.241,0.45,3.234,0.65
			c0.209,0.041,3.039,0.637,3.048,0.598c0.259-1.151,0.518-2.303,0.775-3.454c0.028-0.126-2.696-0.473-2.655-0.722
			c0.221-1.311,0.441-2.62,0.662-3.931c0.078-0.465,0.155-0.929,0.233-1.394c0.01-0.059,0.748-0.126,0.814-0.136
			c1.467-0.229,2.936-0.459,4.405-0.688c0.955-0.148,1.046-0.099,1.587-0.863c0.871-1.231,1.742-2.463,2.613-3.695
			c0.302-0.428,0.93-1.801,1.485-1.894c1.347-0.225,2.693-0.45,4.04-0.675c0.955-0.16,2.042,0.19,2.989,0.33
			c1.035,0.154,1.966,0.221,3.016,0.221c-0.281-1.955-0.562-3.911-0.843-5.867c-1.668,0.676-3.337,1.351-5.004,2.025
			c-0.367-0.91-0.733-1.821-1.1-2.732c-0.234-0.583-0.342-1.602-1.015-1.696c-0.411-0.059-2.507-0.11-2.578-0.499
			c-0.103-0.551-0.204-1.102-0.306-1.652c-0.054-0.295-0.302-0.913-0.224-1.208c0.099-0.377,0.865-0.938,1.125-1.221
			c0.407-0.441,0.814-0.882,1.222-1.323c0.177-0.191,0.617-0.268,0.852-0.359c0.669-0.263,1.339-0.525,2.008-0.787
			c0.714-0.279,1.427-0.558,2.139-0.838c0.178-0.068,0.617-0.145,0.717-0.323c0.336-0.604,0.672-1.209,1.008-1.815
			c0.026-0.046,0.052-0.092,0.078-0.138c-22.662-19.482-52.334-31.313-84.775-31.313c-20.855,0-41.022,4.886-59.104,14.092
			c1.206,0,2.411,0,3.617,0c1.107,0,1.048,0.125,1.725,1.05c0.838,1.146,1.676,2.291,2.514,3.436
			c0.161,0.222,0.508,0.142,0.768,0.156c0.727,0.04,1.454,0.081,2.18,0.123c0.686,0.038,2.326,0.476,2.855-0.04
			c1-0.973,1.999-1.945,2.998-2.917c0.343-0.335,2.173,0.897,2.627,1.124c-1.526,1.489-3.052,2.979-4.578,4.468
			c-0.106,0.104-0.742,0.019-0.881,0.021c-0.72,0.013-1.439,0.025-2.158,0.039c-0.917,0.016-2.119,0.252-3.019,0.057
			c0.456,0.1,0.442,2.676,0.468,3.055c0.03,0.434,0.057,0.867,0.078,1.301c0.001,0.027,0.476-0.001,0.516-0.002
			c2.34-0.064,4.681-0.128,7.021-0.193c0.649-0.018,0.528-1.764,1.003-2.089c0.185-0.127,0.812-0.048,1.028-0.06
			c0.644-0.038,1.287-0.075,1.929-0.113c0.344-0.02,2.304,0.081,2.374-0.271c0.198-0.996,0.397-1.992,0.595-2.988
			c-1.041-0.175-2.082-0.351-3.123-0.524c0.207-0.561,0.414-1.12,0.621-1.681c0.12-0.326,0.215-1.07,0.578-1.182
			c0.935-0.285,1.831-0.698,2.811-0.651c2.585,0.127,5.17,0.255,7.755,0.381c-0.964,0.874-1.927,1.748-2.891,2.622
			c-0.518,0.47-1.035,0.938-1.553,1.408c-0.268,0.243-0.05,0.58,0.027,0.916c0.176,0.771,0.353,1.543,0.53,2.314
			c0.063,0.275,0.688,0.229,0.932,0.266c1.294,0.197,2.589,0.395,3.883,0.591c-0.064-1.208-0.128-2.414-0.194-3.622
			c-0.034-0.646-0.456-2.035,0.189-2.371c1.291-0.672,2.582-1.345,3.873-2.017c0.625-0.325,1.295-0.315,1.996-0.396
			c1.594-0.184,3.188-0.368,4.781-0.552c0.552-0.063,1.406-0.356,1.937-0.122c2.477,1.097,4.953,2.194,7.429,3.291
			c1.178,0.521,2.356,1.044,3.534,1.565c0.116,0.051,0.53,0.153,0.6,0.266c0.152,0.243,0,1.068,0,1.346
			c0,0.501-0.299,3.058,0.195,3.181c1.185,0.297,2.371,0.594,3.556,0.89c-0.576,1.092-1.152,2.184-1.728,3.275
			c-0.325,0.615-2.068,0.262-2.693,0.262c-0.469,0-2.644-0.297-2.826,0.175c-0.476,1.237-0.952,2.475-1.429,3.711
			c-0.145,0.376-1.211-0.095-1.539-0.172c-1.401-0.331-2.801-0.661-4.202-0.993c-2.155-0.508-4.31-1.017-6.465-1.525l9.534-5.078
			c-0.784-0.666-1.568-1.332-2.352-1.998c-0.378-0.321-0.967-1.124-1.501-1.058c-2.251,0.284-4.502,0.567-6.753,0.851
			c-0.962,0.121-1.179,0.087-1.854,0.787c-0.552,0.573-1.157,1.204-1.729,1.799c-0.72,0.749-0.805,0.938-1.808,1.023
			c-1.006,0.084-2.012,0.168-3.017,0.252c0.078,0.488,0.029,1.556,0.311,1.946c0.153,0.212,0.872,0.361,1.116,0.462
			c0.358,0.148,0.233,0.293,0.201,0.68c-0.017,0.198-1.762,0.319-1.993,0.354c-0.779,0.111-1.166-0.082-1.267,0.709
			c-0.054,0.427-0.108,0.853-0.163,1.28c-0.009,0.068-0.455,0.051-0.518,0.054c-0.824,0.044-1.648,0.089-2.472,0.133
			c-0.185,0.011-0.553-3.249-0.616-3.67c-1.167,0.356-2.334,0.712-3.501,1.068c-0.714,0.218-1.535,0.35-2.185,0.729
			c-2.394,1.399-4.789,2.799-7.184,4.199c-1.091,0.638-2.183,1.276-3.275,1.914c-0.042,0.025-0.499,0.254-0.487,0.298
			c0.129,0.473,0.258,0.945,0.387,1.419c0.219,0.803,0.438,1.605,0.657,2.408c0.066,0.244,0.081,0.674,0.307,0.82
			c0.942,0.614,1.982,1.579,3.031,1.975c0.672,0.254,6.243,0.554,6.243,0.933c0,2.343,0,4.687,0,7.028
			c0.783-0.126,1.566-0.251,2.349-0.377c0.623-0.101,0.571-0.181,0.848-0.756c0.762-1.583,1.524-3.167,2.287-4.75
			c0.133-0.276,0.683-0.317,0.954-0.403c0.934-0.297,1.867-0.594,2.801-0.89c0.588-0.187,2.934-0.521,2.934-1.223
			c0-2.666,0-5.331,0-7.996c0-0.65,1.686-1.495,2.165-1.859c0.702-0.532,1.17-1.233,2.042-1.028
			c2.691,0.633,5.382,1.265,8.073,1.897c0.705,0.166,0.18,1.503,0.112,2.1c-0.137,1.202-0.273,2.404-0.41,3.606
			c0.738,0,1.691,0.175,2.404,0c0.569-0.14,1.178-0.58,1.701-0.837c1.621-0.796,3.241-1.593,4.861-2.39
			c0.068,1.598,0.136,3.194,0.204,4.791c0.034,0.786,0.067,1.572,0.101,2.358c0.017,0.397,0.356,0.455,0.693,0.66
			c0.901,0.549,1.801,1.097,2.701,1.646c0.139,0.084,1.4,0.704,1.392,0.859c-0.036,0.759-0.072,1.518-0.108,2.276
			c-0.021,0.439,0.155,1.72-0.1,2.089c-0.154,0.223-1.109,0.377-1.357,0.461c-0.73,0.249-1.461,0.497-2.192,0.746
			c-0.221,0.075-1.048,0.203-0.993,0.474c0.056,0.268,0.096,1.24,0.347,1.354c1.226,0.559,2.452,1.116,3.677,1.674
			c0.547,0.25,1.095,0.499,1.643,0.748c0.26,0.119,0.101,0.646,0.092,0.896c-0.026,0.702-0.052,1.405-0.079,2.107
			c-0.006,0.16-1.27,0.175-1.473,0.192c-0.131,0.012-0.57-0.208-0.765-0.267c-0.633-0.194-1.267-0.389-1.9-0.583
			c-1.374-0.42-2.748-0.842-4.122-1.263c-0.721-0.221-0.48-1.688-0.623-2.337c0.519-0.354,1.038-0.708,1.557-1.063
			c0.537-0.366,0.482-0.378,0.482-1.047c0-0.344,0.204-1.27-0.18-1.367c-0.64-0.162-1.279-0.325-1.919-0.488
			c-0.186-0.047-0.47,1.314-0.533,1.533c-0.136,0.465-0.326,0.365-0.811,0.439c-0.748,0.115-1.497,0.23-2.244,0.346
			c-0.413,0.063-0.869,0.229-1.262,0.011c-0.006,0.391-1.251,0.545-1.465,0.114c-0.226-0.455-0.588-1.751-1.059-1.958
			c-0.7-0.308-1.117-0.507-1.865-0.507c-0.485,0-1.733-0.239-2.12,0.075c-0.696,0.567-1.156,0.7-1.156,1.59
			c0,0.687-0.307,1.521,0.404,1.747c1.451,0.465,2.756,0.74,4.266,0.955c-1.093,0.476-1.842,1.692-2.631,2.568
			c-0.27-0.339-0.571-0.93-0.929-1.165c-0.339-0.224-0.996-0.264-1.388-0.367c-0.875-0.231-0.958,0.127-1.624,0.753
			c-1.522,1.433-3.045,2.865-4.568,4.298c0.24,0.197,0.479,0.394,0.72,0.591c-1.454,0.806-2.907,1.612-4.361,2.418
			c-0.945,0.524-1.89,1.048-2.834,1.572c-0.305,0.169-0.777,0.326-1.022,0.582c-2.489,2.591-4.977,5.182-7.465,7.772
			c-0.562,0.585-0.461,1.906-0.576,2.674c-0.171,1.133-0.192,1.121-1.129,1.737c-2.24,1.472-4.48,2.944-6.72,4.415
			c-0.832,0.547-1.546,1.54-2.245,2.243c-0.488,0.491-1.652,1.212-1.611,1.958c0.136,2.459,0.272,4.917,0.409,7.375
			c-1.708-0.795-3.415-1.59-5.124-2.385c-0.45-0.21-0.174-1.508-0.169-1.945c0.01-0.883,0.02-1.766,0.029-2.648
			c-0.86,0-1.721,0-2.581,0c-3.152,0-6.303,0-9.454,0c-0.884,0-1.768,0-2.652,0c-0.571,0-1.42,0.675-1.913,0.924
			c-1.436,0.729-2.872,1.458-4.308,2.186c-0.577,0.293-1.363,0.486-1.68,1.072c-0.687,1.267-1.373,2.532-2.06,3.799
			c-0.389,0.719-0.944,1.469-1.161,2.263c-0.379,1.388-0.758,2.774-1.137,4.161c-0.243,0.889,0.499,1.819,0.868,2.626
			c0.232,0.508,0.767,2.492,1.369,2.565c1.418,0.173,2.837,0.347,4.255,0.521c0.713,0.087,1.328,0.347,1.929-0.054
			c1.056-0.706,2.113-1.412,3.169-2.118c2.016-1.346,4.031-2.692,6.047-4.039c0.225,0.854,0.45,1.71,0.675,2.565
			c0.18,0.686,0.078,0.764-0.26,1.403c-0.831,1.575-1.66,3.15-2.49,4.726c2.372,0.407,4.744,0.813,7.116,1.221
			c0.391,0.067,0.254,1.341,0.277,1.675c0.101,1.565,0.202,3.131,0.304,4.695c0.09,1.394,0.18,2.786,0.271,4.179
			c0.051,0.779-0.034,0.729,0.733,0.858c2.836,0.484,5.673,0.97,8.51,1.453c0.787,0.134,0.75,0.189,1.266-0.408
			c0.946-1.094,1.891-2.188,2.836-3.28c0.903-1.045,1.806-2.09,2.708-3.134c0.5-0.578,0.852-0.281,1.614-0.127
			c1.554,0.315,3.108,0.631,4.662,0.946c0.775,0.157,1.581,0.098,2.048,0.75c0.788,1.1,1.576,2.198,2.364,3.298
			c0.238,0.332,2.272-0.052,2.66-0.074c1.457-0.086,2.913-0.171,4.37-0.257c0.47-0.027,0.42,0.012,0.467-0.481
			c0.055-0.576,0.11-1.153,0.165-1.73c1.239,0.604,2.479,1.21,3.718,1.814c0.726,0.354,1.1,1.362,1.522,2.023
			c0.859,1.343,1.717,2.686,2.575,4.028c0.356,0.559,0.53,1.281,1.218,1.292c2.5,0.035,5,0.07,7.5,0.105
			c0.108,0.001,0.485,0.839,0.539,0.933c0.375,0.655,0.749,1.312,1.124,1.967c0.382,0.669,1.221,1.619,1.272,2.411
			c0.094,1.432,0.188,2.864,0.281,4.295c0.048,0.732-0.21,1.618,0.521,1.896c2.615,0.995,5.23,1.988,7.846,2.983
			c0.532,0.202,0.91,0.193,1.492,0.199c1.473,0.016,2.945,0.03,4.417,0.044c1.498,0.016,2.997,0.031,4.496,0.046
			c0.835,0.009,1.02-0.154,1.442,0.541c0.788,1.295,1.575,2.59,2.362,3.884c0.588,0.965,0.762,0.965,1.87,1.319
			c0.803,0.258,1.604,0.515,2.408,0.771c0.167,0.054,1.069,0.208,1.154,0.37c0.123,0.233-0.271,1.246-0.324,1.497
			c-0.161,0.739-0.322,1.479-0.482,2.219c-0.172,0.793-0.563,1.179-1.077,1.827c-0.991,1.25-1.982,2.501-2.975,3.751
			c-0.317,0.401-1.419,1.358-1.474,1.888c-0.081,0.772-0.162,1.547-0.243,2.32c-0.326,3.13-0.651,6.259-0.979,9.387
			c-0.104,1.016-0.211,2.03-0.316,3.046c-0.063,0.607-0.931,0.991-1.377,1.346c-1.111,0.881-2.222,1.761-3.332,2.642
			c-0.503,0.399-1.854,0.077-2.456,0.059c-1.483-0.044-2.965-0.087-4.447-0.131c-0.856-0.025-1.148,1.213-1.54,1.894
			c-0.336,0.582-1.403,1.781-1.246,2.478c0.3,1.326,0.6,2.652,0.899,3.978c0.269,1.183,0.536,2.365,0.804,3.549
			c0.069,0.304-0.913,1.243-1.09,1.471c-1.893,2.426-3.787,4.852-5.68,7.279c-1.252,1.602-2.127,3.348-3.102,5.139
			c-0.445,0.819-0.677,0.88-1.537,1.294c-1.425,0.684-2.85,1.367-4.274,2.052c-0.666,0.319-1.458,0.889-2.198,1.002
			c-1.383,0.212-2.766,0.422-4.149,0.633c-0.564,0.086-0.579-0.004-0.634,0.572c-0.014,0.143-0.21,1.582-0.139,1.602
			c1.137,0.326,2.273,0.652,3.41,0.978c0.052,0.015-0.288,1.617-0.316,1.769c-0.085,0.455-0.133,0.51-0.464,0.829
			c-0.575,0.556-1.15,1.11-1.726,1.666c-0.155,0.149-0.956,0.717-0.973,0.939c-0.024,0.301,0.996,1.249,1.185,1.488
			c0.177,0.222,0.49,0.85,0.8,0.858c1.194,0.035,2.388,0.069,3.582,0.105c-0.063,0.875,0.07,2.052-0.215,2.877
			c-0.308,0.894-0.838,1.891-0.969,2.823c-0.097,0.69-0.194,1.382-0.29,2.072c-0.042,0.29,0.171,0.354,0.394,0.542
			c1.15,0.968,2.301,1.936,3.451,2.904c0.471,0.396,0.941,0.793,1.413,1.189c0.288,0.243,0.136,0.357,0.022,0.732
			c-0.102,0.335-0.271,1.645-0.556,1.84c-0.146,0.1-0.74-0.016-0.909-0.02c-1.555-0.03-3.109-0.063-4.665-0.095
			c-0.583-0.012-1.594,0.204-2.062-0.205c-2.104-1.838-4.207-3.676-6.311-5.512c-1.353-1.183-2.018-2.737-2.91-4.301
			c-1.259-2.21-2.518-4.419-3.776-6.628c-0.24-0.42,0.144-1.86,0.183-2.324c0.134-1.613,0.268-3.226,0.403-4.839
			c0.06-0.721,0.418-1.956,0.222-2.664c-0.077-0.276-0.469-0.628-0.637-0.852c-0.435-0.582-0.87-1.162-1.304-1.743
			c-0.786-1.052-1.571-2.102-2.357-3.151c-0.262-0.351,0.205-1.63,0.275-2.027c0.468-2.633,0.936-5.265,1.403-7.898
			c0.049-0.274-2.587-0.546-2.587-0.794c0-0.551,0-1.103,0-1.654c0-2.881,0-5.764,0-8.645c0-2.99,0-5.981,0-8.972
			c0-0.688,0-1.374,0-2.061c0-0.349-1.146-0.955-1.397-1.144c-1.299-0.975-2.601-1.944-3.917-2.895
			c-0.617-0.444-1.645-1.501-2.439-1.584c-1.27-0.129-2.558-0.586-3.788-0.916c-0.278-0.074-0.575-3.157-0.644-3.543
			c-0.11-0.618-0.351-0.85-0.75-1.35c-0.82-1.026-1.641-2.054-2.461-3.079c-1.877-2.35-3.754-4.698-5.631-7.047
			c-0.367-0.458-0.77-0.703-0.643-1.28c0.284-1.285,0.569-2.571,0.854-3.856c0.202-0.912,0.094-1.998,0.134-2.93
			c0.057-1.322,0.113-2.645,0.17-3.967c0.019-0.451,1.565-1.207,1.907-1.445c1.281-0.895,2.562-1.788,3.844-2.681
			c0.805-0.563,0.827-0.472,0.71-1.434c-0.186-1.538-0.372-3.075-0.558-4.613c-0.031-0.259-0.121-2.316-0.37-2.335
			c-1.132-0.086-2.263-0.172-3.396-0.256c-1.566-0.117-3.133-0.235-4.699-0.354c-0.527-0.039-1.21,0.093-1.574-0.321
			c-1.864-2.125-3.729-4.251-5.594-6.376c-0.569-0.648-1.138-1.297-1.707-1.945c-0.157-0.179-0.881-0.242-1.102-0.303
			c-0.744-0.201-1.487-0.403-2.231-0.606c-0.919-0.249-1.822-0.51-2.757-0.681c-0.774-0.143-1.549-0.285-2.323-0.428
			c-0.478-0.088-0.311-0.223-0.249-0.701c0.099-0.75,0.197-1.498,0.295-2.247c0.051-0.383-0.262-0.272-0.615-0.322
			c-1.241-0.176-2.481-0.352-3.722-0.527c0,0.589,0,1.177,0,1.765c-3.33-0.823-6.658-1.646-9.987-2.47
			c-0.171-0.042-0.854-0.098-0.957-0.255c-0.352-0.541-0.704-1.081-1.057-1.621c-1.063-1.63-2.125-3.259-3.187-4.888
			c-0.345-0.53,0.939-2.148,1.221-2.665c0.49-0.898,0.421-0.815-0.145-1.639c-1.709-2.492-3.419-4.984-5.129-7.477
			c-0.297-0.433-1.13-1.245-1.215-1.777c-0.183-1.129-0.364-2.259-0.546-3.389c-0.208-1.297-0.417-2.593-0.626-3.89
			c-0.047-0.295-2.428-0.112-2.83-0.112c0.183,1.396,0.367,2.791,0.551,4.187c0.118,0.891,0.008,2.396,0.51,3.171
			c0.885,1.371,1.771,2.741,2.657,4.112c0.479,0.739,0.957,1.479,1.435,2.219c0.149,0.229,0.515,0.606,0.569,0.881
			c0.071,0.365-0.483,2.924-0.626,2.902c-1.284-0.195-2.568-0.391-3.853-0.586c-0.42-0.063-0.997-1.531-1.195-1.87
			c-0.819-1.396-1.639-2.793-2.459-4.19c-0.483-0.821-0.965-1.644-1.447-2.466c-0.083-0.142-0.003-0.563-0.003-0.721
			c0-0.598,0-1.195,0-1.793c0-1.63,0-3.261,0-4.891c0-0.22,0.174-2.425-0.009-2.513c-1.13-0.545-2.261-1.092-3.392-1.637
			c-0.68-0.328-1.793-0.484-1.793-1.304c0-0.086,0-0.171,0-0.257c-5.974,14.748-9.006,30.318-9.006,46.345
			c0,69.56,57.74,126.149,128.711,126.149c42.907,0,80.974-20.689,104.373-52.418c-1.728,1.143-4.105,1.47-6.726,1.457
			c0.517-0.608,1.05-1.203,1.554-1.822c-1.28,0-2.562,0-3.842,0c-0.405,0-0.184-2.152-0.184-2.528c0-1.604,0-3.205,0-4.809
			c0-0.898-0.196-1.061-0.752-1.809c-0.925-1.245-1.851-2.49-2.774-3.734c-0.32-0.431-1.14-1.149-1.14-1.717
			c0-2.713,0-5.427,0-8.141c0-0.7,0.181-1.274-0.319-1.771c-1.002-0.997-2.005-1.994-3.008-2.992
			c-0.607-0.605-0.379-2.132-0.44-2.943c-0.07-0.935-0.145-1.27,0.27-2.06c1.295-2.472,2.591-4.944,3.886-7.417
			c0.278-0.53,0.285-0.489-0.003-0.996c-0.52-0.916-1.038-1.832-1.556-2.746c-1.56-2.747-3.117-5.494-4.677-8.241
			c-0.563-0.991-1.122-1.981-1.685-2.973c-0.214-0.373-0.408-0.582-0.367-1.001c0.272-2.763,0.546-5.525,0.819-8.288
			c0.028-0.292,0.357-1.659,0.009-1.696c-1.266-0.129-2.53-0.261-3.796-0.393c-1.219-0.125-2.437-0.252-3.655-0.377
			c-0.265-0.027-0.505-0.416-0.681-0.591c-0.523-0.523-1.046-1.046-1.568-1.568c-0.174-0.173-0.52-0.697-0.785-0.697
			c-0.541,0-1.082,0-1.624,0c-0.823,0-1.647,0-2.47,0c-0.168,0-0.886-0.111-1.017,0.01c-0.872,0.807-1.743,1.612-2.615,2.418
			c-0.099,0.091-0.617,0.009-0.744,0.009c-0.605,0-1.21,0-1.814,0c-1.578,0-3.156,0-4.735,0c-0.532,0-1.063,0-1.596,0
			c-0.41,0-0.357,0.251-0.506,0.648c-0.172,0.459-2.792,0.159-3.283,0.159c-0.527,0-1.634,0.264-2.018-0.173
			c-1.547-1.764-3.096-3.529-4.643-5.294c-1.938-2.208-3.874-4.415-5.81-6.622c-0.285-0.325-0.911-0.803-1.066-1.217
			c-0.239-0.634,0.018-1.845,0.023-2.512c0.025-2.602,0.051-5.204,0.075-7.808c0.001-0.165,1.148-0.469,1.316-0.53
			c0.495-0.183,0.591-0.123,0.68-0.614c0.216-1.193,0.433-2.387,0.648-3.58c-0.332,0-2.704,0.15-2.755-0.044
			c-0.315-1.169-0.629-2.338-0.944-3.507c-0.184-0.685-0.186-0.602,0.364-0.998c0.805-0.581,1.61-1.163,2.417-1.744
			c2.539-1.834,5.078-3.667,7.618-5.501c0.847-0.612,1.695-1.224,2.544-1.836c0.525-0.38,0.4-0.528,0.4-1.224
			c0-1.527,0-3.054,0-4.581c0-0.906-0.231-1.264,0.539-1.693c1.293-0.719,2.585-1.438,3.877-2.156
			c0.55-0.307,1.688-1.271,2.342-1.206c2.448,0.245,4.837,0.253,7.298,0.253c0.939,0,1.537-0.463,2.372-0.912
			c0.684-0.366,1.365-0.733,2.048-1.099c0.166-0.091,0.376-0.265,0.57-0.279c4.554-0.353,9.108-0.705,13.662-1.057
			c0,2.194,0,4.39,0,6.585c0,0.63,0.283,0.503,0.895,0.657c1.159,0.293,2.317,0.587,3.477,0.88c2.142,0.542,4.282,1.083,6.423,1.624
			c0.811,0.206,1.367,1.282,2.164,1.529c0.453,0.139,1.158,0,1.631,0s0.347-0.098,0.347-0.561c0-0.345-0.12-3.245,0.07-3.264
			c1.275-0.124,2.551-0.246,3.826-0.37c0.559-0.053,2.003-0.483,2.482-0.127c1.054,0.783,2.106,1.564,3.159,2.347
			c0.884,0.656,1.769,1.313,2.651,1.97c0.112,0.082,0.563,0.005,0.692,0.005c0.574,0,1.15,0,1.726,0c2.092,0,4.185,0,6.278,0
			c0.229,0.774,0.46,1.55,0.701,2.326c0.492,0.984,1.471,2.213,2.575,3.562l-0.24,0.286l0.876,1.627
			c-0.126-0.532-0.252-1.065-0.378-1.598C265.781,111.116,266.39,111.861,266.979,112.62z M202.545,58.813
			c0.153-0.239,0.687-1.405,0.951-1.459c0.505-0.102,1.011-0.203,1.518-0.304c0.737-0.148,1.475-0.296,2.213-0.443
			c0.376-0.075,0.293,0.005,0.37,0.378c0.282,1.371,0.565,2.742,0.848,4.113c0.194,0.938,0.993,1.826,1.489,2.63
			c0.585,0.947,1.201,1.715,1.936,2.559c0.598,0.688,1.946,0.906,2.785,1.231c-0.72,0.861-1.44,1.723-2.161,2.584
			c-0.528,0.631-1.65,0.453-2.43,0.527c-2.059,0.198-4.045,0.245-6.114,0.245c0.058-0.602,0.082-4.14,0.537-4.235
			c0.916-0.195,1.832-0.389,2.749-0.583c0.154-0.032-0.149-1.724-0.181-1.981c-0.432-0.272-0.863-0.544-1.297-0.815
			c-0.979-0.615-1.935-1.245-2.887-1.899c-0.591-0.406-0.5-0.474-0.5-1.214C202.371,59.654,202.279,59.226,202.545,58.813z
			 M195.953,66.405c0.709-1.128,1.418-2.257,2.126-3.386c0.402-0.639,2.136-0.681,2.838-0.843c0.996-0.232,1.864,0.414,2.787,0.813
			c0.389,0.169-0.03,2.235-0.066,2.697c-0.864,0.613-1.728,1.227-2.591,1.84c-0.578,0.41-1.157,0.821-1.735,1.231
			c-0.144,0.102-0.528,0.494-0.714,0.494c-0.433,0-2.835,0.176-2.835-0.154C195.763,68.274,195.503,67.121,195.953,66.405z
			 M120.143,80.103c-0.044,0.301-0.134,0.224-0.439,0.248c-0.734,0.062-1.467,0.123-2.201,0.185
			c0.044-0.603,0.088-1.206,0.133-1.809c0.177-0.22,1.09-1.527,1.254-1.397c0.38,0.3,1.531,0.879,1.457,1.386
			C120.278,79.178,120.21,79.64,120.143,80.103z M129.357,76.897c-0.15,0.312-0.276,0.239-0.629,0.271
			c-0.25,0.022-1.073-0.051-1.265,0.111c-0.163,0.138-0.195,0.942-0.239,1.151c-0.146,0.711-0.757,1.181-1.48,1.425
			c-0.294,0.1-1.981,0.352-2.199,0.182c-0.125-0.865,0.02-0.911-0.815-0.911c-0.319,0-0.17-0.462-0.17-0.73
			c0-0.091-0.016-1.126,0.015-1.126c0.306,0,0.611,0,0.917,0c0.883,0,1.765,0,2.648,0c0.153,0,0.672-1.685,0.761-1.91
			c1.092-0.015,1.975,0.098,3.047,0.319C129.749,76.085,129.553,76.491,129.357,76.897z"/>
		<path fill="#231F20" d="M141.732,9.647c-36.393,0-69.452,14.242-93.71,37.338c-0.039,0.035-0.076,0.071-0.114,0.108
			c-25.163,24.013-40.822,57.563-40.822,94.64c0,72.832,60.401,132.084,134.646,132.084c74.243,0,134.646-59.252,134.646-132.084
			C276.378,68.9,215.976,9.647,141.732,9.647z M229.726,62.82c0.066-0.145,0.655-0.332,0.79-0.4
			c0.584-0.296,1.168-0.593,1.751-0.889c0.906-0.459,1.813-0.918,2.718-1.378l0.013-5.27c2.027,2.089,3.981,4.247,5.859,6.468
			c-0.059,0.096-0.146,0.214-0.258,0.381c-0.411,0.615-0.824,1.23-1.236,1.846c-0.457,0.68-0.481,1.075-1.271,1.067
			c-1.281-0.014-2.563-0.026-3.844-0.039c-1.184-0.012-2.366-0.023-3.55-0.035c-0.168-0.001-0.427,0.076-0.48-0.102
			C230.13,64.171,229.604,63.087,229.726,62.82z M72.882,35.188c2.053,0,4.105,0,6.158,0c0.153,0,0.439-0.08,0.49,0.086
			c0.176,0.572,0.351,1.145,0.526,1.718c0.15,0.487-1.335,1.493-1.708,1.844c1.949,0.056,3.897,0.11,5.846,0.166
			c0.222,0.006,1.588-0.107,1.68,0.11c0.371,0.879,0.741,1.759,1.111,2.638c-2.398-0.088-4.796-0.177-7.194-0.265
			c-0.38-0.015-0.761-0.028-1.142-0.043c-0.248-0.009-0.269-0.84-0.31-1.045c-0.058-0.289-0.028-1.004-0.357-1.074
			c-0.572-0.124-1.144-0.247-1.715-0.372c-1.141-0.246-2.282-0.493-3.422-0.74c-0.822-0.178-1.747-0.897-2.529-1.379
			C71.166,36.272,72.021,35.725,72.882,35.188z M249.307,210.915c0.906-3.058,1.241-6.774,3.08-8.612
			c1.78-1.68,3.437-3.423,4.984-5.215C254.975,201.874,252.278,206.491,249.307,210.915z M264.698,110.372l0.24-0.286
			c-1.104-1.349-2.083-2.577-2.575-3.562c-0.241-0.776-0.473-1.552-0.701-2.326c-2.094,0-4.187,0-6.278,0c-0.575,0-1.151,0-1.726,0
			c-0.13,0-0.58,0.077-0.692-0.005c-0.883-0.656-1.768-1.313-2.651-1.97c-1.053-0.782-2.105-1.563-3.159-2.347
			c-0.479-0.356-1.924,0.074-2.482,0.127c-1.275,0.124-2.551,0.246-3.826,0.37c-0.19,0.019-0.07,2.919-0.07,3.264
			c0,0.463,0.126,0.561-0.347,0.561s-1.178,0.139-1.631,0c-0.797-0.247-1.354-1.323-2.164-1.529
			c-2.141-0.541-4.281-1.082-6.423-1.624c-1.159-0.293-2.317-0.587-3.477-0.88c-0.611-0.154-0.895-0.027-0.895-0.657
			c0-2.195,0-4.391,0-6.585c-4.554,0.352-9.108,0.704-13.662,1.057c-0.194,0.015-0.404,0.188-0.57,0.279
			c-0.683,0.365-1.364,0.732-2.048,1.099c-0.835,0.449-1.433,0.912-2.372,0.912c-2.461,0-4.85-0.008-7.298-0.253
			c-0.654-0.065-1.792,0.899-2.342,1.206c-1.292,0.719-2.584,1.438-3.877,2.156c-0.771,0.43-0.539,0.787-0.539,1.693
			c0,1.527,0,3.054,0,4.581c0,0.695,0.125,0.844-0.4,1.224c-0.849,0.612-1.697,1.224-2.544,1.836
			c-2.54,1.834-5.079,3.667-7.618,5.501c-0.807,0.581-1.612,1.163-2.417,1.744c-0.55,0.396-0.548,0.313-0.364,0.998
			c0.315,1.169,0.629,2.338,0.944,3.507c0.051,0.194,2.423,0.044,2.755,0.044c-0.216,1.193-0.433,2.387-0.648,3.58
			c-0.089,0.491-0.185,0.432-0.68,0.614c-0.168,0.062-1.315,0.365-1.316,0.53c-0.024,2.604-0.05,5.206-0.075,7.808
			c-0.006,0.667-0.263,1.878-0.023,2.512c0.155,0.414,0.781,0.892,1.066,1.217c1.936,2.207,3.872,4.414,5.81,6.622
			c1.547,1.765,3.096,3.53,4.643,5.294c0.384,0.437,1.49,0.173,2.018,0.173c0.491,0,3.111,0.3,3.283-0.159
			c0.148-0.397,0.096-0.648,0.506-0.648c0.532,0,1.063,0,1.596,0c1.579,0,3.157,0,4.735,0c0.604,0,1.209,0,1.814,0
			c0.127,0,0.646,0.082,0.744-0.009c0.872-0.806,1.743-1.611,2.615-2.418c0.131-0.121,0.849-0.01,1.017-0.01c0.822,0,1.646,0,2.47,0
			c0.542,0,1.083,0,1.624,0c0.266,0,0.611,0.524,0.785,0.697c0.522,0.522,1.045,1.045,1.568,1.568
			c0.176,0.175,0.416,0.563,0.681,0.591c1.219,0.125,2.437,0.252,3.655,0.377c1.266,0.132,2.53,0.264,3.796,0.393
			c0.349,0.037,0.02,1.404-0.009,1.696c-0.273,2.763-0.547,5.525-0.819,8.288c-0.041,0.419,0.153,0.628,0.367,1.001
			c0.563,0.991,1.122,1.981,1.685,2.973c1.56,2.747,3.117,5.494,4.677,8.241c0.518,0.914,1.036,1.83,1.556,2.746
			c0.288,0.507,0.281,0.466,0.003,0.996c-1.295,2.473-2.591,4.945-3.886,7.417c-0.414,0.79-0.34,1.125-0.27,2.06
			c0.062,0.812-0.167,2.338,0.44,2.943c1.003,0.998,2.006,1.995,3.008,2.992c0.5,0.496,0.319,1.07,0.319,1.771
			c0,2.714,0,5.428,0,8.141c0,0.567,0.819,1.286,1.14,1.717c0.924,1.244,1.85,2.489,2.774,3.734c0.556,0.748,0.752,0.91,0.752,1.809
			c0,1.604,0,3.205,0,4.809c0,0.376-0.222,2.528,0.184,2.528c1.28,0,2.562,0,3.842,0c-0.504,0.619-1.037,1.214-1.554,1.822
			c2.62,0.013,4.998-0.314,6.726-1.457c-23.399,31.729-61.466,52.418-104.373,52.418c-70.972,0-128.711-56.59-128.711-126.149
			c0-16.026,3.032-31.597,9.006-46.345c0,0.086,0,0.171,0,0.257c0,0.819,1.114,0.976,1.793,1.304
			c1.13,0.545,2.261,1.092,3.392,1.637c0.183,0.088,0.009,2.293,0.009,2.513c0,1.63,0,3.261,0,4.891c0,0.598,0,1.195,0,1.793
			c0,0.157-0.08,0.579,0.003,0.721c0.482,0.822,0.964,1.645,1.447,2.466c0.82,1.397,1.64,2.794,2.459,4.19
			c0.199,0.339,0.775,1.807,1.195,1.87c1.284,0.195,2.568,0.391,3.853,0.586c0.143,0.021,0.698-2.537,0.626-2.902
			c-0.054-0.274-0.42-0.651-0.569-0.881c-0.478-0.739-0.956-1.479-1.435-2.219c-0.886-1.371-1.772-2.741-2.657-4.112
			c-0.501-0.775-0.392-2.28-0.51-3.171c-0.184-1.396-0.368-2.79-0.551-4.187c0.402,0,2.783-0.183,2.83,0.112
			c0.209,1.297,0.417,2.593,0.626,3.89c0.182,1.13,0.363,2.26,0.546,3.389c0.085,0.532,0.917,1.345,1.215,1.777
			c1.71,2.492,3.42,4.984,5.129,7.477c0.565,0.823,0.635,0.74,0.145,1.639c-0.282,0.517-1.566,2.135-1.221,2.665
			c1.063,1.629,2.125,3.258,3.187,4.888c0.353,0.54,0.705,1.08,1.057,1.621c0.103,0.157,0.786,0.213,0.957,0.255
			c3.33,0.823,6.658,1.646,9.987,2.47c0-0.588,0-1.176,0-1.765c1.241,0.176,2.481,0.352,3.722,0.527
			c0.354,0.05,0.666-0.061,0.615,0.322c-0.098,0.749-0.196,1.497-0.295,2.247c-0.062,0.479-0.229,0.613,0.249,0.701
			c0.774,0.143,1.549,0.285,2.323,0.428c0.936,0.171,1.838,0.432,2.757,0.681c0.744,0.203,1.487,0.405,2.231,0.606
			c0.221,0.061,0.945,0.124,1.102,0.303c0.569,0.648,1.138,1.297,1.707,1.945c1.865,2.125,3.729,4.251,5.594,6.376
			c0.364,0.414,1.047,0.282,1.574,0.321c1.566,0.119,3.132,0.237,4.699,0.354c1.132,0.084,2.264,0.17,3.396,0.256
			c0.25,0.019,0.339,2.076,0.37,2.335c0.186,1.538,0.373,3.075,0.558,4.613c0.117,0.962,0.095,0.871-0.71,1.434
			c-1.282,0.893-2.563,1.786-3.844,2.681c-0.342,0.238-1.888,0.994-1.907,1.445c-0.057,1.322-0.114,2.645-0.17,3.967
			c-0.04,0.932,0.068,2.018-0.134,2.93c-0.284,1.285-0.569,2.571-0.854,3.856c-0.127,0.577,0.276,0.822,0.643,1.28
			c1.877,2.349,3.754,4.697,5.631,7.047c0.82,1.025,1.641,2.053,2.461,3.079c0.399,0.5,0.64,0.731,0.75,1.35
			c0.068,0.386,0.365,3.469,0.644,3.543c1.23,0.33,2.518,0.787,3.788,0.916c0.795,0.083,1.823,1.14,2.439,1.584
			c1.316,0.95,2.618,1.92,3.917,2.895c0.251,0.188,1.397,0.795,1.397,1.144c0,0.687,0,1.373,0,2.061c0,2.99,0,5.981,0,8.972
			c0,2.881,0,5.764,0,8.645c0,0.552,0,1.104,0,1.654c0,0.248,2.637,0.52,2.587,0.794c-0.468,2.634-0.935,5.266-1.403,7.898
			c-0.07,0.397-0.537,1.677-0.275,2.027c0.786,1.05,1.571,2.1,2.357,3.151c0.435,0.581,0.87,1.161,1.304,1.743
			c0.168,0.224,0.561,0.575,0.637,0.852c0.196,0.708-0.162,1.943-0.222,2.664c-0.135,1.613-0.269,3.226-0.403,4.839
			c-0.039,0.464-0.422,1.904-0.183,2.324c1.258,2.209,2.518,4.418,3.776,6.628c0.892,1.563,1.557,3.118,2.91,4.301
			c2.104,1.836,4.208,3.674,6.311,5.512c0.468,0.409,1.478,0.193,2.062,0.205c1.555,0.032,3.109,0.064,4.665,0.095
			c0.168,0.004,0.762,0.119,0.909,0.02c0.284-0.195,0.454-1.505,0.556-1.84c0.114-0.375,0.266-0.489-0.022-0.732
			c-0.471-0.396-0.942-0.793-1.413-1.189c-1.15-0.969-2.3-1.937-3.451-2.904c-0.223-0.188-0.435-0.252-0.394-0.542
			c0.096-0.69,0.193-1.382,0.29-2.072c0.131-0.933,0.661-1.93,0.969-2.823c0.285-0.825,0.151-2.002,0.215-2.877
			c-1.194-0.036-2.388-0.07-3.582-0.105c-0.311-0.009-0.623-0.637-0.8-0.858c-0.188-0.239-1.208-1.188-1.185-1.488
			c0.018-0.223,0.818-0.79,0.973-0.939c0.575-0.556,1.15-1.11,1.726-1.666c0.332-0.319,0.379-0.374,0.464-0.829
			c0.028-0.151,0.368-1.754,0.316-1.769c-1.137-0.325-2.273-0.651-3.41-0.978c-0.071-0.02,0.125-1.459,0.139-1.602
			c0.055-0.576,0.069-0.486,0.634-0.572c1.383-0.211,2.766-0.421,4.149-0.633c0.74-0.113,1.532-0.683,2.198-1.002
			c1.424-0.685,2.85-1.368,4.274-2.052c0.86-0.414,1.091-0.475,1.537-1.294c0.974-1.791,1.85-3.537,3.102-5.139
			c1.894-2.428,3.788-4.854,5.68-7.279c0.178-0.228,1.159-1.167,1.09-1.471c-0.268-1.184-0.535-2.366-0.804-3.549
			c-0.3-1.325-0.599-2.651-0.899-3.978c-0.157-0.696,0.91-1.896,1.246-2.478c0.392-0.681,0.684-1.919,1.54-1.894
			c1.482,0.044,2.964,0.087,4.447,0.131c0.602,0.019,1.953,0.341,2.456-0.059c1.11-0.881,2.221-1.761,3.332-2.642
			c0.446-0.354,1.313-0.738,1.377-1.346c0.105-1.016,0.212-2.03,0.316-3.046c0.327-3.128,0.652-6.257,0.979-9.387
			c0.081-0.773,0.162-1.548,0.243-2.32c0.055-0.529,1.156-1.486,1.474-1.888c0.992-1.25,1.983-2.501,2.975-3.751
			c0.515-0.648,0.905-1.034,1.077-1.827c0.16-0.74,0.321-1.479,0.482-2.219c0.054-0.251,0.447-1.264,0.324-1.497
			c-0.085-0.162-0.987-0.316-1.154-0.37c-0.804-0.257-1.605-0.514-2.408-0.771c-1.108-0.354-1.282-0.354-1.87-1.319
			c-0.787-1.294-1.574-2.589-2.362-3.884c-0.423-0.695-0.607-0.532-1.442-0.541c-1.499-0.015-2.998-0.03-4.496-0.046
			c-1.473-0.014-2.944-0.028-4.417-0.044c-0.582-0.006-0.96,0.003-1.492-0.199c-2.615-0.995-5.23-1.988-7.846-2.983
			c-0.731-0.277-0.474-1.163-0.521-1.896c-0.094-1.431-0.187-2.863-0.281-4.295c-0.051-0.792-0.89-1.742-1.272-2.411
			c-0.375-0.655-0.749-1.312-1.124-1.967c-0.054-0.094-0.431-0.932-0.539-0.933c-2.5-0.035-5-0.07-7.5-0.105
			c-0.688-0.011-0.862-0.733-1.218-1.292c-0.858-1.343-1.716-2.686-2.575-4.028c-0.422-0.661-0.796-1.669-1.522-2.023
			c-1.239-0.604-2.479-1.21-3.718-1.814c-0.055,0.577-0.11,1.154-0.165,1.73c-0.047,0.493,0.003,0.454-0.467,0.481
			c-1.457,0.086-2.913,0.171-4.37,0.257c-0.387,0.022-2.421,0.406-2.66,0.074c-0.788-1.1-1.576-2.198-2.364-3.298
			c-0.467-0.652-1.273-0.593-2.048-0.75c-1.554-0.315-3.107-0.631-4.662-0.946c-0.762-0.154-1.114-0.451-1.614,0.127
			c-0.902,1.044-1.805,2.089-2.708,3.134c-0.945,1.093-1.891,2.187-2.836,3.28c-0.516,0.598-0.479,0.542-1.266,0.408
			c-2.837-0.483-5.674-0.969-8.51-1.453c-0.768-0.13-0.683-0.079-0.733-0.858c-0.09-1.393-0.181-2.785-0.271-4.179
			c-0.102-1.564-0.203-3.13-0.304-4.695c-0.022-0.334,0.114-1.607-0.277-1.675c-2.372-0.407-4.744-0.813-7.116-1.221
			c0.83-1.575,1.66-3.15,2.49-4.726c0.337-0.64,0.44-0.718,0.26-1.403c-0.225-0.855-0.45-1.711-0.675-2.565
			c-2.016,1.347-4.031,2.693-6.047,4.039c-1.057,0.706-2.113,1.412-3.169,2.118c-0.601,0.4-1.216,0.141-1.929,0.054
			c-1.418-0.174-2.837-0.348-4.255-0.521c-0.602-0.073-1.136-2.058-1.369-2.565c-0.369-0.807-1.11-1.737-0.868-2.626
			c0.379-1.387,0.758-2.773,1.137-4.161c0.217-0.794,0.772-1.544,1.161-2.263c0.687-1.267,1.373-2.532,2.06-3.799
			c0.317-0.586,1.103-0.779,1.68-1.072c1.436-0.728,2.872-1.457,4.308-2.186c0.493-0.249,1.342-0.924,1.913-0.924
			c0.884,0,1.768,0,2.652,0c3.151,0,6.302,0,9.454,0c0.86,0,1.721,0,2.581,0c-0.009,0.883-0.019,1.766-0.029,2.648
			c-0.005,0.438-0.281,1.735,0.169,1.945c1.708,0.795,3.416,1.59,5.124,2.385c-0.136-2.458-0.272-4.916-0.409-7.375
			c-0.041-0.746,1.123-1.467,1.611-1.958c0.699-0.703,1.413-1.696,2.245-2.243c2.24-1.471,4.48-2.943,6.72-4.415
			c0.937-0.616,0.958-0.604,1.129-1.737c0.115-0.768,0.014-2.089,0.576-2.674c2.488-2.591,4.977-5.182,7.465-7.772
			c0.245-0.256,0.717-0.413,1.022-0.582c0.945-0.524,1.89-1.048,2.834-1.572c1.454-0.806,2.907-1.612,4.361-2.418
			c-0.24-0.197-0.48-0.394-0.72-0.591c1.522-1.433,3.045-2.865,4.568-4.298c0.666-0.626,0.749-0.984,1.624-0.753
			c0.392,0.104,1.048,0.144,1.388,0.367c0.358,0.235,0.659,0.826,0.929,1.165c0.79-0.876,1.538-2.093,2.631-2.568
			c-1.51-0.215-2.814-0.49-4.266-0.955c-0.71-0.227-0.404-1.061-0.404-1.747c0-0.89,0.459-1.022,1.156-1.59
			c0.387-0.314,1.635-0.075,2.12-0.075c0.749,0,1.165,0.199,1.865,0.507c0.471,0.207,0.833,1.503,1.059,1.958
			c0.213,0.431,1.459,0.276,1.465-0.114c0.394,0.219,0.849,0.053,1.262-0.011c0.748-0.115,1.496-0.23,2.244-0.346
			c0.485-0.074,0.675,0.025,0.811-0.439c0.063-0.219,0.347-1.58,0.533-1.533c0.64,0.163,1.279,0.326,1.919,0.488
			c0.383,0.098,0.18,1.023,0.18,1.367c0,0.669,0.055,0.681-0.482,1.047c-0.519,0.354-1.038,0.708-1.557,1.063
			c0.143,0.648-0.099,2.116,0.623,2.337c1.374,0.421,2.748,0.843,4.122,1.263c0.633,0.194,1.267,0.389,1.9,0.583
			c0.195,0.059,0.634,0.278,0.765,0.267c0.203-0.018,1.467-0.032,1.473-0.192c0.027-0.702,0.053-1.405,0.079-2.107
			c0.009-0.251,0.168-0.777-0.092-0.896c-0.548-0.249-1.096-0.498-1.643-0.748c-1.226-0.558-2.451-1.115-3.677-1.674
			c-0.251-0.113-0.291-1.086-0.347-1.354c-0.056-0.271,0.771-0.398,0.993-0.474c0.73-0.249,1.462-0.497,2.192-0.746
			c0.248-0.084,1.203-0.238,1.357-0.461c0.254-0.369,0.079-1.649,0.1-2.089c0.036-0.759,0.072-1.518,0.108-2.276
			c0.008-0.155-1.253-0.775-1.392-0.859c-0.9-0.549-1.8-1.097-2.701-1.646c-0.337-0.205-0.676-0.263-0.693-0.66
			c-0.033-0.786-0.066-1.572-0.101-2.358c-0.067-1.597-0.136-3.193-0.204-4.791c-1.621,0.797-3.241,1.594-4.861,2.39
			c-0.522,0.257-1.132,0.697-1.701,0.837c-0.713,0.175-1.667,0-2.404,0c0.137-1.202,0.273-2.404,0.41-3.606
			c0.068-0.597,0.592-1.934-0.112-2.1c-2.691-0.633-5.382-1.265-8.073-1.897c-0.871-0.205-1.34,0.496-2.042,1.028
			c-0.479,0.364-2.165,1.209-2.165,1.859c0,2.665,0,5.33,0,7.996c0,0.702-2.346,1.036-2.934,1.223
			c-0.934,0.296-1.868,0.593-2.801,0.89c-0.271,0.086-0.821,0.127-0.954,0.403c-0.762,1.583-1.524,3.167-2.287,4.75
			c-0.277,0.575-0.225,0.655-0.848,0.756c-0.783,0.126-1.566,0.251-2.349,0.377c0-2.342,0-4.686,0-7.028
			c0-0.379-5.57-0.679-6.243-0.933c-1.049-0.396-2.089-1.36-3.031-1.975c-0.226-0.146-0.24-0.576-0.307-0.82
			c-0.219-0.803-0.438-1.605-0.657-2.408c-0.129-0.474-0.258-0.946-0.387-1.419c-0.012-0.044,0.445-0.272,0.487-0.298
			c1.092-0.638,2.184-1.276,3.275-1.914c2.395-1.4,4.79-2.8,7.184-4.199c0.65-0.38,1.471-0.512,2.185-0.729
			c1.167-0.356,2.334-0.712,3.501-1.068c0.063,0.421,0.431,3.681,0.616,3.67c0.824-0.044,1.648-0.089,2.472-0.133
			c0.063-0.003,0.509,0.015,0.518-0.054c0.055-0.428,0.109-0.854,0.163-1.28c0.101-0.791,0.488-0.598,1.267-0.709
			c0.231-0.034,1.977-0.155,1.993-0.354c0.032-0.387,0.158-0.531-0.201-0.68c-0.244-0.101-0.963-0.25-1.116-0.462
			c-0.282-0.391-0.233-1.458-0.311-1.946c1.005-0.084,2.011-0.168,3.017-0.252c1.003-0.085,1.088-0.274,1.808-1.023
			c0.572-0.595,1.177-1.226,1.729-1.799c0.675-0.7,0.893-0.666,1.854-0.787c2.251-0.283,4.502-0.566,6.753-0.851
			c0.534-0.066,1.123,0.736,1.501,1.058c0.784,0.666,1.568,1.332,2.352,1.998l-9.534,5.078c2.155,0.509,4.31,1.018,6.465,1.525
			c1.401,0.332,2.801,0.662,4.202,0.993c0.328,0.077,1.394,0.548,1.539,0.172c0.477-1.236,0.953-2.474,1.429-3.711
			c0.182-0.472,2.357-0.175,2.826-0.175c0.625,0,2.368,0.354,2.693-0.262c0.576-1.092,1.152-2.184,1.728-3.275
			c-1.185-0.296-2.371-0.593-3.556-0.89c-0.494-0.123-0.195-2.68-0.195-3.181c0-0.277,0.152-1.103,0-1.346
			c-0.069-0.112-0.484-0.215-0.6-0.266c-1.178-0.521-2.356-1.044-3.534-1.565c-2.477-1.097-4.953-2.194-7.429-3.291
			c-0.531-0.234-1.385,0.059-1.937,0.122c-1.593,0.184-3.188,0.368-4.781,0.552c-0.701,0.081-1.371,0.071-1.996,0.396
			c-1.291,0.672-2.582,1.345-3.873,2.017c-0.645,0.336-0.224,1.726-0.189,2.371c0.065,1.208,0.129,2.414,0.194,3.622
			c-1.294-0.196-2.588-0.394-3.883-0.591c-0.244-0.037-0.869,0.01-0.932-0.266c-0.177-0.771-0.354-1.543-0.53-2.314
			c-0.078-0.336-0.295-0.673-0.027-0.916c0.518-0.47,1.035-0.938,1.553-1.408c0.963-0.874,1.927-1.748,2.891-2.622
			c-2.585-0.126-5.17-0.254-7.755-0.381c-0.98-0.047-1.875,0.366-2.811,0.651c-0.363,0.111-0.458,0.855-0.578,1.182
			c-0.207,0.561-0.414,1.12-0.621,1.681c1.041,0.174,2.082,0.35,3.123,0.524c-0.198,0.996-0.396,1.992-0.595,2.988
			c-0.07,0.353-2.03,0.252-2.374,0.271c-0.643,0.038-1.286,0.075-1.929,0.113c-0.216,0.012-0.843-0.067-1.028,0.06
			c-0.475,0.325-0.354,2.071-1.003,2.089c-2.34,0.065-4.681,0.129-7.021,0.193c-0.041,0.001-0.515,0.029-0.516,0.002
			c-0.021-0.434-0.048-0.867-0.078-1.301c-0.026-0.379-0.012-2.955-0.468-3.055c0.9,0.195,2.101-0.041,3.019-0.057
			c0.719-0.014,1.438-0.026,2.158-0.039c0.139-0.003,0.775,0.082,0.881-0.021c1.526-1.488,3.052-2.979,4.578-4.468
			c-0.455-0.227-2.284-1.459-2.627-1.124c-1,0.972-1.999,1.944-2.998,2.917c-0.529,0.516-2.169,0.078-2.855,0.04
			c-0.727-0.042-1.454-0.083-2.18-0.123c-0.259-0.015-0.606,0.065-0.768-0.156c-0.838-1.145-1.676-2.29-2.514-3.436
			c-0.677-0.925-0.618-1.05-1.725-1.05c-1.206,0-2.411,0-3.617,0c18.082-9.206,38.249-14.092,59.104-14.092
			c32.441,0,62.113,11.83,84.775,31.313c-0.026,0.046-0.052,0.092-0.078,0.138c-0.336,0.606-0.672,1.211-1.008,1.815
			c-0.1,0.179-0.539,0.255-0.717,0.323c-0.712,0.28-1.425,0.559-2.139,0.838c-0.669,0.262-1.339,0.524-2.008,0.787
			c-0.234,0.092-0.675,0.168-0.852,0.359c-0.407,0.441-0.814,0.882-1.222,1.323c-0.26,0.282-1.026,0.844-1.125,1.221
			c-0.078,0.295,0.17,0.913,0.224,1.208c0.102,0.551,0.203,1.102,0.306,1.652c0.071,0.389,2.167,0.44,2.578,0.499
			c0.673,0.095,0.78,1.113,1.015,1.696c0.366,0.911,0.732,1.822,1.1,2.732c1.667-0.675,3.336-1.35,5.004-2.025
			c0.281,1.956,0.562,3.912,0.843,5.867c-1.05,0-1.98-0.066-3.016-0.221c-0.947-0.14-2.034-0.49-2.989-0.33
			c-1.347,0.225-2.693,0.45-4.04,0.675c-0.556,0.093-1.184,1.466-1.485,1.894c-0.871,1.232-1.742,2.464-2.613,3.695
			c-0.541,0.765-0.632,0.715-1.587,0.863c-1.47,0.229-2.938,0.458-4.405,0.688c-0.066,0.01-0.805,0.077-0.814,0.136
			c-0.078,0.465-0.155,0.929-0.233,1.394c-0.221,1.311-0.441,2.62-0.662,3.931c-0.041,0.249,2.684,0.596,2.655,0.722
			c-0.258,1.151-0.517,2.303-0.775,3.454c-0.009,0.039-2.839-0.557-3.048-0.598c-0.993-0.2-2.216-0.67-3.234-0.65
			c-1.075,0.021-2.305,0.506-3.353,0.735c-0.664,0.146-2.25,0.14-2.516,0.837c-0.257,0.669-0.512,1.339-0.768,2.009
			c-0.11,0.288-0.367,0.683-0.321,0.999c0.188,1.277,0.375,2.553,0.562,3.829c0.054,0.357,0.127,2.651,0.456,2.805
			c1.098,0.513,2.192,1.024,3.29,1.536c0.212,0.1,0.597,0.019,0.825,0.018c0.787-0.006,1.573-0.01,2.359-0.015
			c0.944-0.006,1.903,0.042,2.847-0.043c0.406-0.037,3.419-0.054,3.527-0.334c0.206-0.533,0.414-1.066,0.621-1.6
			c0.161-0.418,0.28-1.076,0.556-1.435c0.565-0.735,1.13-1.468,1.695-2.202c1.103-1.434,2.203-2.866,3.306-4.299
			c0.31-0.403,0.62-0.807,0.93-1.21c0.146-0.188,0.979,0.125,1.185,0.167c0.84,0.173,1.682,0.346,2.521,0.519
			c0.423,0.087,0.56-0.203,0.88-0.491c1.091-0.987,2.183-1.975,3.271-2.961c0.154,0.581,0.31,1.162,0.463,1.743
			c0.074,0.283,0.094,0.888,0.355,1.063c0.944,0.637,1.889,1.273,2.832,1.91c2.207,1.488,4.412,2.977,6.619,4.465
			c-0.347,0.47-0.694,0.939-1.041,1.409c-0.208,0.282-0.571,0.14-0.906,0.122c-1.173-0.063-2.345-0.125-3.517-0.188
			c0.521,0.732,1.137,2.224,2.044,2.426c0.735,0.163,1.471,0.327,2.206,0.491c0.36,0.079,1.115-0.423,1.442-0.56
			c0.571-0.239,1.145-0.479,1.717-0.718c0.113-0.047-0.015-1.44-0.017-1.584c-0.013-0.701-0.025-1.403-0.038-2.104
			c-0.004-0.203,1.171-0.633,1.386-0.739c-0.678-0.72-1.161-1.205-2.008-1.678c-1.436-0.8-2.871-1.602-4.307-2.402
			c-0.973-0.544-1.135-0.571-1.503-1.604c-0.446-1.252-0.893-2.504-1.34-3.757c1.145,0,2.289,0,3.433,0c0.573,0,1.145,0,1.718,0
			c0.339,0,0.623,0.477,0.846,0.7c1.632,1.635,3.435,3.084,5.188,4.587c0.647,0.554,0.412,1.473,0.443,2.298
			c0.028,0.723,0.056,1.447,0.084,2.171c0.008,0.222-0.056,0.516,0.103,0.684c1.548,1.647,3.099,3.295,4.646,4.941
			c0.5-1.961,0.998-3.923,1.497-5.885c0.205-0.808,0.151-0.948,0.868-1.339c0.889-0.484,1.777-0.969,2.666-1.454
			c0.197,1.854,0.395,3.706,0.59,5.56c0.054,0.502,1.149,1.327,1.477,1.687c0.241,0.265,1.386,1.906,1.74,1.9
			c1.698-0.028,3.395-0.056,5.092-0.083c-0.475-1.8-0.95-3.594-1.438-5.377c-1.071-0.001-2.081,0.126-3.168,0.275
			c0-1.784-0.115-3.636,0.009-5.398l0.765-0.868c0.57,1.11,1.121,2.23,1.657,3.358c-0.199-0.7-0.405-1.399-0.614-2.096
			c4.781,9.027,8.481,18.688,10.934,28.818c-0.589-0.759-1.197-1.504-1.782-2.219c0.126,0.532,0.252,1.065,0.378,1.598
			L264.698,110.372z"/>
		<path fill="#231F20" d="M202.871,61.359c0.952,0.654,1.908,1.284,2.887,1.899c0.434,0.271,0.865,0.543,1.297,0.815
			c0.031,0.258,0.335,1.949,0.181,1.981c-0.917,0.194-1.833,0.388-2.749,0.583c-0.455,0.096-0.479,3.634-0.537,4.235
			c2.069,0,4.056-0.047,6.114-0.245c0.779-0.074,1.901,0.104,2.43-0.527c0.721-0.861,1.441-1.723,2.161-2.584
			c-0.839-0.325-2.188-0.544-2.785-1.231c-0.734-0.844-1.351-1.611-1.936-2.559c-0.496-0.804-1.295-1.691-1.489-2.63
			c-0.282-1.371-0.565-2.742-0.848-4.113c-0.077-0.373,0.006-0.453-0.37-0.378c-0.738,0.147-1.476,0.295-2.213,0.443
			c-0.507,0.101-1.013,0.202-1.518,0.304c-0.265,0.054-0.798,1.22-0.951,1.459c-0.266,0.413-0.174,0.842-0.174,1.333
			C202.371,60.886,202.28,60.953,202.871,61.359z"/>
		<path fill="#231F20" d="M198.598,69.252c0.186,0,0.57-0.393,0.714-0.494c0.578-0.41,1.157-0.821,1.735-1.231
			c0.863-0.613,1.727-1.227,2.591-1.84c0.036-0.462,0.455-2.528,0.066-2.697c-0.923-0.398-1.791-1.045-2.787-0.813
			c-0.702,0.162-2.436,0.204-2.838,0.843c-0.708,1.129-1.417,2.258-2.126,3.386c-0.45,0.716-0.19,1.869-0.19,2.692
			C195.763,69.428,198.165,69.252,198.598,69.252z"/>
		<path fill="#231F20" d="M126.138,77.27c-0.883,0-1.765,0-2.648,0c-0.306,0-0.611,0-0.917,0c-0.031,0-0.015,1.035-0.015,1.126
			c0,0.269-0.148,0.73,0.17,0.73c0.835,0,0.691,0.046,0.815,0.911c0.218,0.17,1.905-0.082,2.199-0.182
			c0.724-0.244,1.334-0.714,1.48-1.425c0.043-0.209,0.076-1.014,0.239-1.151c0.192-0.162,1.015-0.089,1.265-0.111
			c0.354-0.031,0.479,0.041,0.629-0.271c0.196-0.406,0.392-0.813,0.589-1.219c-1.072-0.222-1.955-0.334-3.047-0.319
			C126.811,75.585,126.292,77.27,126.138,77.27z"/>
		<path fill="#231F20" d="M118.889,77.329c-0.164-0.13-1.077,1.178-1.254,1.397c-0.044,0.603-0.088,1.206-0.133,1.809
			c0.734-0.062,1.467-0.123,2.201-0.185c0.305-0.024,0.396,0.053,0.439-0.248c0.067-0.463,0.136-0.925,0.203-1.388
			C120.42,78.208,119.269,77.629,118.889,77.329z"/>
	</g>
</g>
</svg>
