<?xml version="1.0" encoding="utf-8"?>
<!-- Generator: Adobe Illustrator 15.1.0, SVG Export Plug-In . SVG Version: 6.00 Build 0)  -->
<!DOCTYPE svg PUBLIC "-//W3C//DTD SVG 1.1//EN" "http://www.w3.org/Graphics/SVG/1.1/DTD/svg11.dtd">
<svg version="1.1" id="Layer_3" xmlns="http://www.w3.org/2000/svg" xmlns:xlink="http://www.w3.org/1999/xlink" x="0px" y="0px"
	 width="283.465px" height="283.465px" viewBox="0 0 283.465 283.465" enable-background="new 0 0 283.465 283.465"
	 xml:space="preserve">
<g>
	<path fill="#231F20" d="M141.925,8.268c-36.795,0-70.22,14.4-94.746,37.75c-0.039,0.036-0.077,0.073-0.115,0.11
		c-25.441,24.278-41.273,58.2-41.273,95.686c0,73.636,61.069,133.543,136.134,133.543c75.063,0,136.134-59.907,136.134-133.543
		C278.059,68.176,216.988,8.268,141.925,8.268z M14.129,165.904l1.272-1.217l14.077-20.125l-2.727-1.256l-14.625,3.078l-0.249-0.123
		c-0.052-1.479-0.088-2.959-0.088-4.449c0-0.383,0.011-0.764,0.015-1.146l1.396,1.401l7.168-0.461l14.973-10.844l4.687-3.071
		l-0.087-3.753l-4.994-0.651c-7.833-3.688-19.551-5.295-17.415-15.714h3.86l0.574,4.898l8.125,4.671l9.285,0.455l20.141,3.292
		l4.717,2.964v4.611l-0.601,6.267l10.325,16.991l3.335,0.772l3.324-4.817l1.831-13.745l3.437-7.399l5.556-2.069l9.79,0.94
		l12.283,10.921v15.703l16.221,15.529l0.857-2.726l-13.145-18.771l1.36-5.473l6.942,7.879l3.88,0.406l5.09-3.395l-0.844-5.118
		l-8.417-6.772l-0.338-6.15l2.398-3.242l4.264,1.368l-0.343,2.904l2.436,3.753l2.171-1.536l-1.187-4.439l11.932-4.273l5.254-4.37
		l-0.803-7.916l-10.418-10.924l-0.167-8.876h4.606l14.338,10.926l4.037-1.08l-2.671-3.528l-7.682-4.665l0.455-6.937l9.094,0.011
		l0.748-8.599l-3.472-4.575l2.055-2.218l4.43,4.446l1.422-1.879l-5.688-6.486l-14.165-1.707l-1.879-3.752l4.097-5.806l3.244,2.386
		l9.725,0.854l12.299-8.189l2.045,2.558l-2.728,4.267v4.27l11.255,9.211l3.6-1.874l-1.364-6.144l-8.021-7.508l10.58-0.684v-3.074
		l5.125-1.022l-3.93-2.707l0.17-2.083l10.751,1.739l2.046-1.739l-14.506-6.141l-52.914-2.727l-4.952-2.503l-7.854-1.171
		l-5.916-0.198l-5.35,5.407l-2.263-0.172l-7.13-5.288H83.313l-3.208-1.914c18.805-10.002,39.937-15.326,61.82-15.326
		c71.757,0,130.134,57.217,130.134,127.546c0,36.289-15.541,69.083-40.443,92.332l-0.075-5.102l-4.545,0.273l-0.571,8.717
		l-3.984,2.727l-7.391,1.021l-11.836,8.419l-2.012,1.656v2.814l1.831-0.279c-18.231,9.545-39.034,14.965-61.106,14.965
		C78.571,269.357,25.655,224.752,14.129,165.904z"/>
	<polygon fill="#231F20" points="156.297,173.889 158.693,174.745 158.693,178.497 161.188,178.266 161.1,167.173 155.09,169.525 
		155.168,170.863 153.684,170.863 153.684,179.184 156.755,179.184 	"/>
	<polygon fill="#231F20" points="177.079,250.538 183.016,251.188 187.794,248.539 187.893,244.943 182.664,244.363 	"/>
	<polygon fill="#231F20" points="78.297,153.096 79.726,156.965 84.901,155.031 85.471,149.686 81.3,148.866 	"/>
	<polygon fill="#231F20" points="186.157,176.492 190.379,178.701 190.486,180.756 187.764,180.756 187.883,184.977 
		196.971,184.395 200.277,180.871 203.816,180.525 203.816,187.01 209.96,187.01 209.96,184.391 206.884,184.391 206.313,176.484 
		191.641,169.829 187.541,171.993 183.729,172.096 184.023,168.131 180.389,165.966 175.18,171.152 178.65,175.416 	"/>
	<polygon fill="#231F20" points="160.55,184.668 160.55,187.053 163.201,187.053 163.201,185.861 165.926,185.861 165.926,184.454 
		167.85,184.668 167.59,182.25 164.475,182.712 164.199,184.295 160.721,184.668 	"/>
	<polygon fill="#231F20" points="169.414,229.266 174.891,241.286 191.65,241.867 207.805,226.682 211.795,217.57 210.137,210.857 
		204.003,205.604 203.542,195.582 199.498,188.65 195.861,188.493 194.377,201.055 187.426,200.539 185.486,199.366 
		185.234,194.373 188.917,195.132 192.023,192.104 185.409,188.129 177.646,188.129 172.066,196.043 169.794,196.043 
		169.794,193.547 163.105,194.055 152.527,206.12 146.92,206.186 140.663,210.516 140.206,229.172 136.449,232.813 136.449,236.109 
		154.652,229.857 	"/>
	<rect x="149.54" y="183.143" fill="#231F20" width="2.737" height="1.521"/>
	<polygon fill="#231F20" points="160.293,182.579 162.078,183.143 162.594,181.35 160.293,181.35 	"/>
	<polygon fill="#231F20" points="156.199,184.656 157.909,184.656 157.909,183.326 159.146,183.143 159.146,181.846 159.146,181.84 
		156.409,181.84 155.297,183.143 153.684,184.656 153.684,185.977 156.199,185.725 	"/>
	<polygon fill="#231F20" points="148.714,174.898 150.001,171.656 152.266,169.605 152.266,168.107 153.67,167.186 153.67,155.941 
		152.266,155.354 151.584,151.85 149.527,151.85 148.223,155.402 146.637,156.813 134.732,163.262 134.72,169.643 138.692,174.898 	
		"/>
	<polygon fill="#231F20" points="139.08,178.799 130.652,179.029 130.308,174.471 131.677,175.053 134.978,174.701 134.63,170.492 
		125.528,170.615 123.023,167.316 123.156,165.59 111.426,155.02 108.573,157.293 125.296,177.789 127.693,178.585 127.693,179.729 
		124.509,179.729 125.303,182.24 145.902,183.143 	"/>
</g>
</svg>
