<?xml version="1.0" encoding="utf-8"?>
<!-- Generator: Adobe Illustrator 15.1.0, SVG Export Plug-In . SVG Version: 6.00 Build 0)  -->
<!DOCTYPE svg PUBLIC "-//W3C//DTD SVG 1.1//EN" "http://www.w3.org/Graphics/SVG/1.1/DTD/svg11.dtd">
<svg version="1.1" id="Layer_1" xmlns="http://www.w3.org/2000/svg" xmlns:xlink="http://www.w3.org/1999/xlink" x="0px" y="0px"
	 width="30px" height="30px" viewBox="0 0 30 30" enable-background="new 0 0 30 30" xml:space="preserve">
<path fill-rule="evenodd" clip-rule="evenodd" d="M8.933,22.778c-0.066,0.067-0.085,0.168-0.047,0.254
	c0.558,1.317,0.3,2.898-0.772,3.972c-0.841,0.842-1.996,1.182-3.09,1.02c-0.083-0.014-0.151-0.074-0.176-0.154
	s-0.004-0.168,0.056-0.228c0.553-0.559,1.732-1.737,2.164-2.168c0.089-0.09,0.089-0.235,0-0.325
	c-0.458-0.457-1.757-1.756-2.214-2.214c-0.09-0.09-0.235-0.09-0.325,0c-0.431,0.431-1.61,1.609-2.166,2.165
	c-0.061,0.062-0.15,0.083-0.231,0.058c-0.082-0.026-0.143-0.096-0.157-0.18c-0.158-1.095,0.182-2.249,1.024-3.091
	c1.073-1.072,2.654-1.33,3.972-0.772c0.086,0.037,0.187,0.019,0.253-0.048c1.247-1.245,12.6-12.599,13.847-13.845
	c0.066-0.067,0.085-0.167,0.047-0.254c-0.558-1.317-0.3-2.898,0.772-3.972c0.842-0.841,1.996-1.182,3.09-1.02
	c0.083,0.015,0.151,0.074,0.177,0.155c0.025,0.08,0.004,0.168-0.056,0.228c-0.554,0.558-1.732,1.737-2.163,2.168
	c-0.09,0.089-0.09,0.235,0,0.324c0.457,0.458,1.757,1.757,2.214,2.215c0.09,0.089,0.235,0.089,0.325,0
	c0.431-0.431,1.609-1.61,2.165-2.166c0.061-0.061,0.15-0.083,0.231-0.057c0.082,0.026,0.143,0.095,0.157,0.18
	c0.158,1.095-0.182,2.249-1.023,3.09c-1.073,1.073-2.654,1.331-3.972,0.773c-0.086-0.038-0.187-0.019-0.253,0.048
	C21.532,10.179,10.179,21.532,8.933,22.778z"/>
</svg>
