<?xml version="1.0" encoding="utf-8"?>
<!-- Generator: Adobe Illustrator 15.1.0, SVG Export Plug-In . SVG Version: 6.00 Build 0)  -->
<!DOCTYPE svg PUBLIC "-//W3C//DTD SVG 1.1//EN" "http://www.w3.org/Graphics/SVG/1.1/DTD/svg11.dtd">
<svg version="1.1" id="Layer_1" xmlns="http://www.w3.org/2000/svg" xmlns:xlink="http://www.w3.org/1999/xlink" x="0px" y="0px"
	 width="283.465px" height="283.465px" viewBox="0 0 283.465 283.465" enable-background="new 0 0 283.465 283.465"
	 xml:space="preserve">
<path fill-rule="evenodd" clip-rule="evenodd" d="M130.595,64.845c4.089-5.332,9.513-9.577,15.774-12.231
	c4.657-1.98,9.791-3.072,15.169-3.072c21.489,0,38.936,17.446,38.936,38.935c0,3.288,2.659,5.947,5.946,5.947h20.199
	c21.489,0,38.936,17.452,38.936,38.94c0,7.085-1.894,13.736-5.216,19.461c-1.638,2.841-0.674,6.476,2.172,8.125
	c2.834,1.649,6.481,0.674,8.119-2.16c4.333-7.486,6.818-16.169,6.818-25.426c0-28.057-22.777-50.834-50.829-50.834h-14.601
	c-2.938-25.252-24.438-44.882-50.48-44.882c-7.027,0-13.729,1.429-19.815,4.013c-8.166,3.467-15.24,9.002-20.565,15.954
	c-1.998,2.607-1.498,6.342,1.104,8.334C124.869,67.946,128.609,67.453,130.595,64.845z M68.423,134.595
	c3.288,0,5.947-2.666,5.947-5.947c0-26.698,21.674-48.372,48.373-48.372c26.692,0,48.366,21.674,48.366,48.372
	c0,3.282,2.672,5.947,5.947,5.947h24.438c26.704,0,48.378,21.674,48.378,48.367c0,26.704-21.674,48.378-48.378,48.378H68.423
	c-26.698,0-48.372-21.674-48.372-48.378C20.051,156.27,41.726,134.595,68.423,134.595z M62.744,122.962
	c-30.601,2.869-54.586,28.655-54.586,60c0,33.267,27.006,60.272,60.266,60.272h133.072c33.267,0,60.272-27.006,60.272-60.272
	c0-33.261-27.006-60.261-60.272-60.261h-18.782c-2.984-30.479-28.713-54.319-59.97-54.319
	C91.399,68.382,65.607,92.362,62.744,122.962z"/>
</svg>
