<?xml version="1.0" encoding="utf-8"?>
<!-- Generator: Adobe Illustrator 15.1.0, SVG Export Plug-In . SVG Version: 6.00 Build 0)  -->
<!DOCTYPE svg PUBLIC "-//W3C//DTD SVG 1.1//EN" "http://www.w3.org/Graphics/SVG/1.1/DTD/svg11.dtd">
<svg version="1.1" id="Layer_2" xmlns="http://www.w3.org/2000/svg" xmlns:xlink="http://www.w3.org/1999/xlink" x="0px" y="0px"
	 width="283.465px" height="283.465px" viewBox="0 0 283.465 283.465" enable-background="new 0 0 283.465 283.465"
	 xml:space="preserve">
<g>
	<g>
		<path d="M276.081,137.525c0-26.676-21.66-48.332-48.342-48.332h-15.063c-2.395-24.446-23.029-43.567-48.099-43.567
			c-16.438,0-30.965,8.228-39.696,20.784c23.06,5.782,41.031,23.691,47.019,46.457h7.302c35.886,0,65.081,29.191,65.081,65.07
			c0,1.69-0.068,3.387-0.199,5.077C262.729,176.308,276.081,158.47,276.081,137.525z"/>
	</g>
	<path d="M179.201,124.199h-16.748c-2.392-24.425-21.165-44.058-45.173-47.79c-2.709-0.421-5.48-0.65-8.307-0.65
		c-27.952,0-50.952,21.385-53.505,48.673C28.179,126.99,6.79,149.986,6.79,177.938c0,29.666,24.083,53.749,53.744,53.749h118.667
		c26.874,0,49.166-19.763,53.124-45.536c0.411-2.679,0.626-5.421,0.626-8.213C232.951,148.276,208.868,124.199,179.201,124.199z"/>
</g>
</svg>
