<?xml version="1.0" encoding="utf-8"?>
<!-- Generator: Adobe Illustrator 15.1.0, SVG Export Plug-In . SVG Version: 6.00 Build 0)  -->
<!DOCTYPE svg PUBLIC "-//W3C//DTD SVG 1.1//EN" "http://www.w3.org/Graphics/SVG/1.1/DTD/svg11.dtd">
<svg version="1.1" id="Layer_1" xmlns="http://www.w3.org/2000/svg" xmlns:xlink="http://www.w3.org/1999/xlink" x="0px" y="0px"
	 width="283.465px" height="283.465px" viewBox="0 0 283.465 283.465" enable-background="new 0 0 283.465 283.465"
	 xml:space="preserve">
<path fill-rule="evenodd" clip-rule="evenodd" d="M11.508,168.766H142.19c20.962,0,31.056-13.936,31.056-27.429
	c0-13.483-10.094-27.418-31.056-27.418c-3.045,0-5.509,2.47-5.509,5.51s2.464,5.509,5.509,5.509
	c13.096,0,20.036,7.974,20.036,16.399c0,8.436-6.94,16.41-20.036,16.41H11.508c-3.04,0-5.51,2.465-5.51,5.51
	S8.468,168.766,11.508,168.766z M52.333,147.147c2.47-11.681,9.502-21.688,19.138-28.075c7.081-4.697,15.576-7.431,24.701-7.431
	c3.045,0,5.509-2.464,5.509-5.509c0-24.733,20.085-44.813,44.813-44.813c24.738,0,44.818,20.08,44.818,44.813
	c0,3.045,2.464,5.509,5.509,5.509h22.641c24.729,0,44.808,20.08,44.808,44.813c0,24.729-20.079,44.808-44.808,44.808h-7.898
	c-3.045,0-5.509,2.475-5.509,5.51c0,3.045,2.464,5.509,5.509,5.509h7.898c30.808,0,55.826-25.019,55.826-55.826
	c0-30.813-25.019-55.832-55.826-55.832h-17.399c-2.776-28.231-26.611-50.322-55.568-50.322c-29.038,0-52.927,22.221-55.584,50.569
	c-9.373,0.877-18.078,4.079-25.53,9.018c-12.003,7.952-20.752,20.429-23.83,34.989c-0.629,2.97,1.275,5.896,4.25,6.521
	C48.777,152.032,51.704,150.128,52.333,147.147z M71.8,194.773l-0.264-0.011c-1.953-0.032-3.869,0.979-4.896,2.798
	c-1.501,2.647-0.565,6.005,2.077,7.512c8.113,4.584,17.48,7.209,27.456,7.209h79.968c3.034,0,5.51-2.464,5.51-5.509
	c0-3.035-2.476-5.51-5.51-5.51H96.173c-8.001,0-15.517-2.099-22.027-5.778C73.403,195.054,72.602,194.828,71.8,194.773z
	 M37.887,190.373h130.678c13.106,0,20.036,7.974,20.036,16.399c0,8.436-6.93,16.409-20.036,16.409c-3.035,0-5.51,2.465-5.51,5.51
	c0,3.035,2.475,5.51,5.51,5.51c20.962,0,31.055-13.936,31.055-27.429c0-13.483-10.093-27.419-31.055-27.419H37.887
	c-3.04,0-5.509,2.465-5.509,5.51C32.378,187.897,34.848,190.373,37.887,190.373z"/>
</svg>
