<?xml version="1.0" encoding="utf-8"?>
<!-- Generator: Adobe Illustrator 15.1.0, SVG Export Plug-In . SVG Version: 6.00 Build 0)  -->
<!DOCTYPE svg PUBLIC "-//W3C//DTD SVG 1.0//EN" "http://www.w3.org/TR/2001/REC-SVG-20010904/DTD/svg10.dtd">
<svg version="1.0" id="Layer_1" xmlns:serif="http://www.serif.com/"
	 xmlns="http://www.w3.org/2000/svg" xmlns:xlink="http://www.w3.org/1999/xlink" x="0px" y="0px" width="283.46px"
	 height="283.46px" viewBox="0 0 283.46 283.46" enable-background="new 0 0 283.46 283.46" xml:space="preserve">
<g>
	<path d="M195.641,114.576h-16.634c-1.093-23.063-20.198-41.49-43.525-41.49c-23.345,0-42.461,18.453-43.53,41.537
		c-7.858,0.364-15.423,2.828-21.993,7.182c-9.622,6.378-16.228,16.075-18.602,27.304c-0.238,1.127,0.482,2.233,1.609,2.472
		c1.125,0.234,2.233-0.483,2.471-1.608c2.115-10.005,8.248-19.005,16.826-24.691c6.451-4.275,13.964-6.535,21.728-6.535
		c1.151,0,2.085-0.934,2.085-2.085c0-21.728,17.678-39.405,39.407-39.405c21.728,0,39.404,17.677,39.404,39.405
		c0,1.151,0.934,2.085,2.085,2.085h18.67c21.728,0,39.404,17.677,39.404,39.405c0,21.729-17.677,39.407-39.404,39.407h-6.513
		c-1.151,0-2.085,0.934-2.085,2.085s0.934,2.085,2.085,2.085h6.513c24.027,0,43.574-19.549,43.574-43.577
		C239.215,134.124,219.668,114.576,195.641,114.576z"/>
	<path fill="#010001" d="M133.269,181.574c0-1.151-0.934-2.085-2.085-2.085H23.434c-1.151,0-2.085,0.934-2.085,2.085
		s0.934,2.085,2.085,2.085h107.75C132.335,183.659,133.269,182.725,133.269,181.574z"/>
	<path fill="#010001" d="M171.277,197.558H63.53c-1.151,0-2.085,0.934-2.085,2.085s0.934,2.085,2.085,2.085h107.747
		c1.151,0,2.085-0.934,2.085-2.085S172.428,197.558,171.277,197.558z"/>
	<path fill="#010001" d="M37.517,165.54h107.748c1.151,0,2.085-0.934,2.085-2.085s-0.934-2.085-2.085-2.085H37.517
		c-1.151,0-2.085,0.934-2.085,2.085S36.366,165.54,37.517,165.54z"/>
</g>
</svg>
