<?xml version="1.0" encoding="utf-8"?>
<!-- Generator: Adobe Illustrator 15.1.0, SVG Export Plug-In . SVG Version: 6.00 Build 0)  -->
<!DOCTYPE svg PUBLIC "-//W3C//DTD SVG 1.1//EN" "http://www.w3.org/Graphics/SVG/1.1/DTD/svg11.dtd">
<svg version="1.1" id="Layer_1" xmlns:serif="http://www.serif.com/"
	 xmlns="http://www.w3.org/2000/svg" xmlns:xlink="http://www.w3.org/1999/xlink" x="0px" y="0px" width="283.46px"
	 height="283.46px" viewBox="0 0 283.46 283.46" enable-background="new 0 0 283.46 283.46" xml:space="preserve">
<g>
	<path d="M194.216,114.802h-14.523c-2.567-24.173-23.079-43.07-47.922-43.07c-24.926,0-45.49,19.022-47.945,43.313
		c-11.023,1.103-21.248,5.933-29.192,13.877l0,0c-9.105,9.106-14.12,21.207-14.12,34.07c0,26.574,21.619,48.193,48.191,48.193
		h105.513c26.571,0,48.189-21.619,48.189-48.193C242.408,136.421,220.79,114.802,194.216,114.802z M194.216,200.94H88.704
		c-20.922,0-37.943-17.022-37.943-37.945c0-10.128,3.949-19.653,11.119-26.824c7.17-7.17,16.696-11.12,26.824-11.12
		c2.829,0,5.124-2.295,5.124-5.125c0-20.924,17.021-37.945,37.943-37.945c20.924,0,37.945,17.021,37.945,37.945
		c0,2.829,2.295,5.125,5.123,5.125h19.377c20.923,0,37.942,17.021,37.942,37.943l0,0C232.16,183.917,215.139,200.94,194.216,200.94z
		"/>
</g>
</svg>
