<?xml version="1.0" encoding="utf-8"?>
<!-- Generator: Adobe Illustrator 15.1.0, SVG Export Plug-In . SVG Version: 6.00 Build 0)  -->
<!DOCTYPE svg PUBLIC "-//W3C//DTD SVG 1.1//EN" "http://www.w3.org/Graphics/SVG/1.1/DTD/svg11.dtd">
<svg version="1.1" id="Layer_1" xmlns="http://www.w3.org/2000/svg" xmlns:xlink="http://www.w3.org/1999/xlink" x="0px" y="0px"
	 width="283.68px" height="283.92px" viewBox="0 0 283.68 283.92" enable-background="new 0 0 283.68 283.92" xml:space="preserve">
<g>
	<path fill="none" d="M188.004,71.257c-0.004-0.012-0.007-0.025-0.011-0.037c-0.005-0.001-0.011,0-0.015-0.001
		c0.006,0.012,0.013,0.022,0.019,0.035C188,71.254,188.002,71.256,188.004,71.257z"/>
	<path fill="none" d="M182.808,178.6c0.334-0.313,0.688-0.604,1.062-0.87c-0.119-0.075-0.229-0.161-0.334-0.255
		c-0.392,0.71-1.093,1.217-1.929,1.336c0.028,0.072,0.049,0.148,0.069,0.226C182.012,178.816,182.396,178.668,182.808,178.6z"/>
	<path fill="none" d="M190.857,106.18c0.256,0.468,0.414,0.998,0.414,1.569c0,0.096-0.021,0.187-0.028,0.28
		c0.086-0.063,0.177-0.117,0.27-0.17c-0.215-0.429-0.347-0.907-0.347-1.419c0-0.761,0.277-1.45,0.722-1.999
		c0.012-0.037,0.021-0.075,0.034-0.112c-0.419,0.172-0.876,0.27-1.356,0.27c-0.09,0-0.174-0.02-0.263-0.026
		C190.646,105.019,190.857,105.572,190.857,106.18C190.857,106.179,190.857,106.179,190.857,106.18z"/>
	<path fill="none" d="M168.573,96.696c-0.034-0.015-0.063-0.036-0.097-0.053c-0.02,0.014-0.035,0.032-0.055,0.045
		C168.473,96.69,168.522,96.693,168.573,96.696z"/>
	<path fill="none" d="M184.869,173.253c-0.232-0.083-0.438-0.215-0.604-0.39c-0.058,0.009-0.116,0.015-0.175,0.019
		c-0.331,0.508-0.805,0.913-1.369,1.151c0.139,0.095,0.268,0.202,0.386,0.321C183.49,173.754,184.128,173.342,184.869,173.253z"/>
	<path fill="none" d="M169.754,96.848c0.042,0.009,0.083,0.022,0.125,0.032c-0.006-0.014-0.009-0.029-0.014-0.043
		C169.829,96.843,169.791,96.843,169.754,96.848z"/>
	<path fill="none" d="M189.653,196.628c-0.021,0.021-0.049,0.037-0.071,0.059c-0.035,0.037-0.074,0.07-0.112,0.105
		c0.082-0.062,0.163-0.124,0.246-0.184C189.695,196.614,189.675,196.622,189.653,196.628z"/>
	<path fill="none" d="M181.104,132.274c-0.264-0.024-0.519-0.077-0.757-0.167c0.07,0.11,0.131,0.226,0.188,0.344
		C180.718,132.377,180.907,132.317,181.104,132.274z"/>
	<path fill="none" d="M181.352,92.592c0.045,0.021,0.086,0.047,0.129,0.07c0.057-0.09,0.121-0.173,0.187-0.257
		c-0.115-0.057-0.235-0.107-0.348-0.169c-0.02,0.051-0.036,0.102-0.058,0.152C181.298,92.454,181.328,92.52,181.352,92.592z"/>
	<path fill="none" d="M215.563,114.249c0.173,0.256,0.273,0.564,0.273,0.896c0,0.037-0.009,0.071-0.011,0.107
		c0.092-0.01,0.182-0.028,0.276-0.028c0.507,0,0.976,0.15,1.376,0.4c0.609-0.556,1.278-1.047,2.008-1.446
		c-0.274-0.828-0.509-1.675-0.687-2.543C218.377,113.072,217.108,114.135,215.563,114.249z"/>
	<path fill="none" d="M181.217,150.746c0.219-0.374,0.607-0.638,1.072-0.638c0.451,0,0.828,0.251,1.051,0.608
		c0.002-0.418,0.102-0.81,0.267-1.165h-3.502c0.091,0.245,0.146,0.506,0.169,0.776C180.597,150.453,180.911,150.592,181.217,150.746
		z"/>
	<path fill="none" d="M186.564,173.674c0.183-0.631,0.392-1.25,0.626-1.856c-0.008-0.07-0.024-0.138-0.032-0.208
		c-0.074,0.016-0.153,0.016-0.229,0.025c0.005,0.053,0.016,0.104,0.016,0.157c0,0.735-0.513,1.349-1.197,1.511
		C186.045,173.377,186.321,173.502,186.564,173.674z"/>
	<path fill="none" d="M172.572,149.563c0.489,0,0.94,0.157,1.313,0.42c0.164-0.044,0.326-0.092,0.493-0.127
		c0.026-0.104,0.058-0.205,0.095-0.304h-2.858c0.073,0.044,0.143,0.094,0.209,0.146C172.06,149.616,172.309,149.563,172.572,149.563
		z"/>
	<path fill="none" d="M148.298,162.818c-0.029,0.001-0.058,0.009-0.087,0.009c-0.638,0-1.212-0.264-1.625-0.687
		c-0.003,0.592-0.201,1.134-0.525,1.578h2.621C148.515,163.44,148.387,163.139,148.298,162.818z"/>
	<path fill="none" d="M161.578,91.389c0.392-0.886,1.274-1.505,2.306-1.505c0.52,0,1.002,0.158,1.402,0.427
		c0.354-0.217,0.765-0.349,1.21-0.349c0.128,0,0.251,0.018,0.373,0.038c-0.019-0.11-0.034-0.221-0.034-0.336
		c0-0.205,0.039-0.399,0.095-0.586c-0.08-0.114-0.143-0.24-0.208-0.364c-0.296,0.198-0.651,0.314-1.034,0.314
		c-0.943,0-1.716-0.704-1.839-1.614c-0.469,0.62-1.204,1.027-2.041,1.027c-0.249,0-0.485-0.046-0.713-0.113
		c-0.005,0.009-0.009,0.018-0.014,0.026c0.424,0.537,0.688,1.207,0.688,1.944c0,0.383-0.078,0.746-0.203,1.085
		C161.569,91.385,161.574,91.387,161.578,91.389z"/>
	<path fill="none" d="M170.883,190.08c0-0.009,0.002-0.019,0.002-0.028c-0.006,0.006-0.012,0.011-0.019,0.016
		C170.872,190.071,170.877,190.076,170.883,190.08z"/>
	<path fill="none" d="M230.753,179.515c0.161-0.129,0.331-0.249,0.497-0.372c-0.001-0.015-0.003-0.03-0.004-0.045
		c-0.187-0.078-0.354-0.185-0.512-0.307C230.746,179.031,230.748,179.273,230.753,179.515z"/>
	<path fill="none" d="M133.521,79.03c-0.012,0.064-0.031,0.125-0.047,0.188c0.073-0.066,0.146-0.132,0.228-0.188H133.521z"/>
	<path fill="none" d="M125.191,61.38c-0.812,0.582-1.708,1.048-2.67,1.378c-0.216,0.282-0.467,0.535-0.758,0.738h4.413
		C125.637,62.932,125.288,62.197,125.191,61.38z"/>
	<path fill="none" d="M164.766,162.629c0.405,0,0.789,0.083,1.145,0.224c0.171-0.122,0.353-0.229,0.548-0.314
		c-0.2-0.806-0.318-1.644-0.318-2.512c0-0.249,0.021-0.492,0.037-0.737c-0.164,0.387-0.401,0.732-0.681,1.037
		c0.105,0.213,0.17,0.448,0.17,0.701c0,0.874-0.708,1.582-1.582,1.582c-0.562,0-1.053-0.295-1.333-0.736
		c-0.236,0.069-0.481,0.118-0.74,0.118c-0.584,0-1.118-0.194-1.557-0.513c-0.102,0.01-0.199,0.03-0.304,0.03
		c-0.47,0-0.911-0.109-1.312-0.294c-0.405,0.643-1.018,1.133-1.744,1.393c0.449,0.251,0.813,0.637,1.021,1.111h4.303
		C162.989,163.057,163.823,162.629,164.766,162.629z"/>
	<path fill="none" d="M174.491,179.371c0.535,0,1.034,0.141,1.48,0.367c0.126-0.307,0.31-0.583,0.535-0.82
		c-0.712,0.215-1.466,0.333-2.247,0.333h-0.218c-0.028,0.061-0.062,0.118-0.096,0.175
		C174.125,179.396,174.305,179.371,174.491,179.371z"/>
	<path fill="none" d="M169.779,92.492c0.719,0.108,1.318,0.56,1.635,1.186c0.22-0.066,0.448-0.113,0.69-0.113
		c0.142,0,0.277,0.018,0.412,0.042c-0.036-0.124-0.062-0.252-0.062-0.388c0-0.765,0.62-1.385,1.386-1.385
		c0.311,0,0.595,0.106,0.825,0.279c-0.125-0.363-0.207-0.746-0.207-1.152c0-0.061,0.015-0.118,0.018-0.178
		c-0.176-0.08-0.338-0.184-0.488-0.302c-0.482-0.17-0.905-0.457-1.238-0.832c-0.479,0.573-1.188,0.945-1.993,0.945
		c-0.003,0-0.006-0.001-0.008-0.001c-0.114,0.224-0.264,0.424-0.447,0.592c0.035,0.108,0.068,0.217,0.068,0.336
		C170.37,91.945,170.126,92.301,169.779,92.492z"/>
	<path fill="none" d="M178.698,198.09c-0.031-0.16-0.05-0.325-0.05-0.495c0-0.653,0.254-1.243,0.661-1.692
		c-0.623-0.266-1.059-0.884-1.059-1.604c0-0.393,0.135-0.751,0.354-1.042c-0.426-0.52-0.692-1.175-0.692-1.898
		c0-1.26,0.774-2.336,1.871-2.786c-0.18-0.766-0.284-1.561-0.284-2.381c0-0.084,0.011-0.164,0.013-0.247
		c-0.441-0.604-0.71-1.34-0.71-2.145c0-0.144,0.026-0.28,0.042-0.42c-0.133,0.021-0.265,0.041-0.403,0.041
		c-0.254,0-0.494-0.047-0.727-0.112c-0.149,0.746-0.561,1.391-1.122,1.861c0.148,0.342,0.232,0.717,0.232,1.113
		c0,0.478-0.131,0.921-0.342,1.314c0.818,0.639,1.354,1.622,1.354,2.74c0,0.957-0.387,1.823-1.01,2.453
		c-0.15,1.549-1.441,2.764-3.03,2.764c-0.045,0-0.087-0.012-0.131-0.014c-0.57,0.878-1.556,1.461-2.681,1.461
		c-0.162,0-0.317-0.024-0.473-0.048c-0.029,0.118-0.067,0.232-0.107,0.345c0.781,0.014,1.486,0.313,2.034,0.791H178.698z"/>
	<path fill="none" d="M151.49,151.713c-0.443,0-0.856-0.114-1.228-0.3c-0.021,0.398-0.12,0.774-0.285,1.115
		c1.211,0.198,2.137,1.242,2.137,2.508c0,0.297-0.061,0.577-0.153,0.842c0.242-0.064,0.492-0.11,0.755-0.11
		c0.58,0,1.117,0.174,1.572,0.464c-0.221-0.461-0.354-0.972-0.354-1.517c0-1.23,0.63-2.313,1.583-2.945
		c0.114-0.408,0.296-0.785,0.541-1.118c-0.554-0.241-1.024-0.626-1.388-1.1h-0.487C153.908,150.788,152.81,151.713,151.49,151.713z"
		/>
	<path fill="none" d="M187.938,198.09c0.323-0.313,0.653-0.616,1.002-0.9c-0.472,0.283-1.018,0.456-1.607,0.456
		c-0.027,0-0.053-0.008-0.08-0.008c-0.021,0-0.04,0.006-0.061,0.006c-1.79,0-3.249-1.352-3.453-3.087
		c-0.345-0.254-0.674-0.527-0.984-0.821c-0.302,0.232-0.646,0.405-1.022,0.511c0,0.018,0.005,0.035,0.005,0.053
		c0,0.29-0.077,0.559-0.202,0.799c1.23,0.173,2.181,1.22,2.181,2.497c0,0.17-0.019,0.335-0.05,0.495H187.938z"/>
	<path fill="none" d="M188.988,222.399c-0.005,0.015-0.011,0.027-0.016,0.041c0.021-0.003,0.041-0.004,0.062-0.006
		C189.02,222.422,189.003,222.412,188.988,222.399z"/>
	<path fill="none" d="M149.926,63.257c0.061,0.079,0.12,0.156,0.174,0.24h0.268C150.213,63.43,150.064,63.351,149.926,63.257z"/>
	<path fill="none" d="M224.422,91.677c-0.091-0.047-0.188-0.085-0.277-0.134c0.024,0.12,0.033,0.245,0.056,0.366
		C224.272,91.83,224.349,91.755,224.422,91.677z"/>
	<path fill="none" d="M147.226,61.908c0.755,0,1.446,0.253,2.011,0.668c-0.313-0.44-0.5-0.975-0.5-1.556
		c0-1.489,1.207-2.696,2.696-2.696c1.012,0,1.883,0.564,2.345,1.389c0.191-0.396,0.575-0.667,1.031-0.713
		c-0.208-0.517-0.388-1.047-0.543-1.588c-1.547,0.489-3.193,0.756-4.902,0.756c-0.567,0-1.127-0.03-1.68-0.086
		c-0.172,1.343-1.118,2.431-2.384,2.812c-0.251,0.926-0.626,1.799-1.107,2.604h0.159C144.957,62.545,146.014,61.908,147.226,61.908z
		"/>
	<path fill="none" d="M185.92,57.702c0.061-0.115,0.124-0.226,0.199-0.33c-0.172-0.145-0.333-0.302-0.499-0.454
		c-0.067,0.269-0.125,0.542-0.206,0.805c0.118-0.015,0.234-0.036,0.357-0.036C185.822,57.687,185.87,57.699,185.92,57.702z"/>
	<path fill="none" d="M162.314,152.704c0,0.044-0.012,0.086-0.013,0.13c0.583,0.315,1.045,0.821,1.292,1.443
		c0.811,0.18,1.51,0.634,2.021,1.253c0.02,0.014,0.04,0.025,0.06,0.04c0.149-0.064,0.313-0.104,0.485-0.104
		c0.18,0,0.347,0.044,0.5,0.113c0.164-0.414,0.428-0.772,0.758-1.062c-0.183-0.419-0.287-0.881-0.287-1.367
		c0-1.265,0.692-2.356,1.711-2.951c0.17-0.266,0.398-0.485,0.669-0.648h-0.354c-0.253,0.289-0.62,0.476-1.034,0.476
		s-0.781-0.187-1.034-0.476h-6.808C161.478,150.1,162.314,151.301,162.314,152.704z"/>
	<path fill="none" d="M153.141,63.091c0.119-0.021,0.241-0.037,0.366-0.037c0.479,0,0.914,0.169,1.264,0.443h2.773
		c-0.625-0.729-1.182-1.517-1.671-2.35c-0.236,0.252-0.566,0.415-0.939,0.415c-0.319,0-0.602-0.128-0.827-0.32
		C154.045,61.988,153.686,62.642,153.141,63.091z"/>
	<path fill="none" d="M165.888,84.829c-0.141,0.019-0.28,0.043-0.426,0.043c-0.55,0-1.06-0.152-1.511-0.398
		c0.259,0.396,0.412,0.865,0.418,1.372c0.311-0.311,0.732-0.504,1.199-0.534C165.652,85.135,165.761,84.975,165.888,84.829z"/>
	<path fill="none" d="M215.43,210.626c-0.023,0.457-0.063,0.908-0.124,1.354c0.431-0.236,0.908-0.387,1.421-0.436
		c-0.497-0.206-0.919-0.553-1.222-0.989C215.48,210.579,215.455,210.603,215.43,210.626z"/>
	<path fill="none" d="M139.513,79.938c0,0.098-0.019,0.19-0.029,0.286c0.629,0.399,1.049,1.097,1.049,1.896
		c0,0.233-0.045,0.453-0.111,0.664c0.265-0.099,0.546-0.158,0.838-0.185c0.527-0.801,1.432-1.332,2.463-1.332
		c0.787,0,1.498,0.313,2.026,0.815c0.535-1.185,1.72-2.012,3.104-2.017c-0.37-0.255-0.661-0.615-0.833-1.037h-8.67
		C139.448,79.316,139.513,79.619,139.513,79.938z"/>
	<path fill="none" d="M145.95,160.403c0.077-1.186,1.055-2.127,2.261-2.127c0.287,0,0.56,0.059,0.813,0.156
		c0.055-0.313,0.168-0.604,0.324-0.869c-0.319-0.027-0.62-0.109-0.896-0.243c-0.25,0.31-0.627,0.512-1.056,0.512
		c-0.139,0-0.271-0.027-0.396-0.065c-0.199,0.92-0.799,1.682-1.602,2.122C145.608,160.03,145.788,160.209,145.95,160.403z"/>
	<path fill="none" d="M184.255,130.964c0.046-0.135,0.098-0.266,0.16-0.392c-0.128-0.011-0.259-0.014-0.382-0.039
		c-0.079,0.188-0.181,0.362-0.297,0.527C183.904,131.014,184.077,130.983,184.255,130.964z"/>
	<path fill="none" d="M136.837,198.09c-0.224-0.173-0.423-0.37-0.601-0.591c-0.091,0.013-0.182,0.028-0.277,0.028
		c-0.377,0-0.727-0.105-1.035-0.275c0.013,0.117,0.036,0.232,0.036,0.354c0,0.166-0.024,0.325-0.049,0.484H136.837z"/>
	<path fill="none" d="M180.405,104.095c1.426,1.071,2.679,2.359,3.687,3.833c0.027-0.031,0.056-0.063,0.086-0.091
		c-0.036-0.179-0.056-0.363-0.056-0.553c0-1.215,0.794-2.234,1.887-2.597c0.446-0.655,1.181-1.088,2.019-1.145
		c-0.276-0.277-0.496-0.606-0.669-0.961c-0.405-0.113-0.779-0.292-1.109-0.534c-0.575,0.57-1.365,0.922-2.238,0.922
		c-0.908,0-1.723-0.385-2.302-0.996c-0.835-0.239-1.554-0.751-2.031-1.451c0.026,0.097,0.061,0.192,0.061,0.298
		c0,0.127-0.035,0.245-0.072,0.36c0.749,0.178,1.309,0.848,1.309,1.652C180.975,103.336,180.752,103.784,180.405,104.095z"/>
	<path fill="none" d="M202.816,135.19c-0.27,0.063-0.548,0.105-0.837,0.105c-0.125,0-0.243-0.024-0.365-0.037
		c-0.011,0.023-0.026,0.045-0.037,0.068c0.566,0.447,0.992,1.053,1.218,1.756c0.35,0.131,0.632,0.395,0.785,0.732
		c0.127-0.019,0.254-0.035,0.385-0.039c0,0,0,0,0,0c0-0.592,0.035-1.174,0.097-1.749C203.625,135.778,203.21,135.498,202.816,135.19
		z"/>
	<path fill="none" d="M188.386,61.462c-0.048,0.13-0.108,0.252-0.175,0.372c0.578,0.147,1.057,0.53,1.336,1.042
		c0.361-0.554,0.898-0.976,1.531-1.204c-0.177-0.402-0.279-0.845-0.279-1.313c0-0.082,0.019-0.159,0.024-0.24
		c-0.097-0.036-0.196-0.068-0.292-0.106C190.138,60.827,189.335,61.396,188.386,61.462z"/>
	<path fill="none" d="M194.056,132.503c0.035-0.054,0.076-0.102,0.114-0.154c-0.014-0.059-0.021-0.12-0.029-0.18
		c-0.345,0.073-0.695,0.13-1.053,0.169C193.426,132.347,193.747,132.409,194.056,132.503z"/>
	<path fill="none" d="M199.879,114.684c-0.046-0.011-0.091-0.027-0.135-0.042c-0.026,0.057-0.061,0.108-0.089,0.163
		C199.726,114.758,199.805,114.726,199.879,114.684z"/>
	<path fill="none" d="M199.454,111.244c0.049,0.07,0.081,0.15,0.124,0.225c0.218-0.099,0.457-0.158,0.711-0.158
		c0.629,0,1.173,0.342,1.471,0.847c0.544-0.42,1.217-0.68,1.957-0.68c0.37,0,0.72,0.075,1.05,0.19
		c-0.188-0.325-0.313-0.687-0.363-1.076c-1.116-0.269-2.186-0.653-3.198-1.14C201.086,110.376,200.372,111.105,199.454,111.244z"/>
	<path fill="none" d="M191.166,92.282c-0.426,0.227-0.873,0.417-1.331,0.583c0.57,0.113,1.071,0.409,1.453,0.818
		c0.097-0.012,0.192-0.029,0.292-0.029c0.151,0,0.298,0.018,0.44,0.044c0.013-0.188,0.011-0.379,0.03-0.566
		C191.681,92.937,191.375,92.644,191.166,92.282z"/>
	<path fill="none" d="M189.196,73.119c0.272,0.079,0.539,0.172,0.802,0.273c-0.263-0.188-0.494-0.417-0.676-0.685
		c-0.12-0.063-0.237-0.128-0.346-0.208c0.016,0.08,0.02,0.163,0.024,0.246C189.069,72.868,189.143,72.987,189.196,73.119z"/>
	<path fill="none" d="M183.479,152.294c0.1-0.011,0.196-0.03,0.299-0.03c0.007,0,0.013,0.002,0.02,0.002
		c-0.129-0.197-0.225-0.415-0.302-0.644c-0.039,0.183-0.11,0.346-0.219,0.488C183.346,152.17,183.41,152.233,183.479,152.294z"/>
	<path fill="none" d="M175.934,83.982c-0.025-0.292-0.045-0.585-0.045-0.884c0-0.638,0.066-1.259,0.176-1.864
		c-0.681-0.267-1.2-0.839-1.404-1.549c-0.236,0.364-0.626,0.619-1.093,0.619c-0.047,0-0.087-0.022-0.132-0.027
		c-0.467,0.665-1.222,1.105-2.083,1.156c0.003,0.052,0.016,0.1,0.016,0.152c0,0.805-0.283,1.537-0.741,2.128
		c0.746,0.185,1.39,0.61,1.859,1.189c0.248-0.222,0.571-0.36,0.93-0.36c0.295,0,0.567,0.092,0.793,0.248
		c0.148-0.04,0.302-0.064,0.459-0.081C175.002,84.352,175.438,84.092,175.934,83.982z"/>
	<path fill="none" d="M184.126,167.385c-0.058-0.022-0.111-0.049-0.167-0.075c-0.396,0.403-0.827,0.768-1.284,1.103
		c0.206,0.082,0.401,0.184,0.581,0.308c0.156-0.054,0.319-0.088,0.488-0.104C183.777,168.168,183.91,167.751,184.126,167.385z"/>
	<path fill="none" d="M175.311,101.502c0.001,0.004,0.002,0.008,0.004,0.012c0.801,0.239,1.57,0.547,2.313,0.901
		c0.06-0.231,0.166-0.442,0.309-0.625c-0.322-0.209-0.549-0.556-0.549-0.969c0-0.649,0.526-1.175,1.175-1.175
		c0.319,0,0.606,0.129,0.818,0.335c-0.213-0.465-0.34-0.979-0.34-1.524c0-0.256,0.026-0.505,0.076-0.747
		c-0.167-0.069-0.326-0.154-0.475-0.252c-0.145,0.169-0.304,0.323-0.479,0.46c-0.066,0.954-0.557,1.788-1.297,2.304
		C176.636,100.901,176.04,101.404,175.311,101.502z"/>
	<path fill="none" d="M183.632,65.322c0,0.409-0.159,0.778-0.412,1.06c0.021,0.014,0.045,0.024,0.066,0.039
		c0.061-0.003,0.118-0.018,0.18-0.018c0.066,0,0.129,0.016,0.194,0.02c0.219-0.091,0.458-0.142,0.709-0.142
		c1.02,0,1.846,0.826,1.846,1.845c0,0.005-0.002,0.01-0.002,0.016c0.193,0.401,0.311,0.844,0.311,1.319
		c0,0.182-0.023,0.358-0.054,0.532c0.089,0.022,0.177,0.049,0.261,0.081c-0.047-0.153-0.079-0.313-0.079-0.481
		c0-0.825,0.603-1.504,1.39-1.635c-0.867-0.413-1.471-1.275-1.514-2.289c-0.166-0.108-0.311-0.243-0.439-0.393
		c-0.243,0.359-0.654,0.596-1.121,0.596c-0.747,0-1.353-0.606-1.353-1.353c0-0.144,0.04-0.275,0.082-0.404
		c-0.403-0.244-0.736-0.583-0.976-0.988c-0.117,0.229-0.26,0.439-0.429,0.63C183.051,63.876,183.632,64.529,183.632,65.322z"/>
	<path fill="none" d="M139.395,133.658c0.058,0,0.112,0.013,0.169,0.017c0.391-0.487,0.984-0.806,1.658-0.806
		c0.821,0,1.525,0.47,1.882,1.15h1.489c0.175-0.044,0.354-0.073,0.54-0.078c-0.497-0.512-0.843-1.168-0.975-1.9
		c-0.202-0.288-0.35-0.615-0.43-0.97c-0.115,0.019-0.231,0.036-0.353,0.036c-1.2,0-2.174-0.973-2.174-2.174
		c0-0.144,0.016-0.284,0.042-0.419c-0.537,1.021-1.563,1.731-2.774,1.823c0.028,0.163,0.05,0.327,0.05,0.497
		c0,1.326-0.883,2.433-2.089,2.799c0.024,0.125,0.032,0.255,0.039,0.386h1.717C138.536,133.792,138.949,133.658,139.395,133.658z"/>
	<path fill="none" d="M141.271,181.203c0.396,0.357,0.703,0.803,0.894,1.312c1.413,0.52,2.427,1.865,2.427,3.458
		c0,0.701-0.206,1.35-0.546,1.908c0.091,0.195,0.146,0.41,0.146,0.64c0,0.298-0.089,0.574-0.237,0.81
		c0.806,0.32,1.377,1.104,1.377,2.024c0,1.205-0.978,2.183-2.183,2.183c-0.335,0-0.648-0.082-0.933-0.217
		c-0.021,0.104-0.062,0.199-0.092,0.299c0.266,0.498,0.431,1.059,0.431,1.663c0,1.057-0.47,1.995-1.201,2.646
		c0.165,0.037,0.323,0.092,0.474,0.161h3.009c0.098-0.059,0.198-0.114,0.302-0.164c0.308-0.434,0.646-0.845,1.015-1.226
		c-0.282-0.204-0.479-0.521-0.479-0.896c0-0.62,0.504-1.125,1.125-1.125c0.441,0,0.814,0.261,0.998,0.631
		c1.177-0.798,2.528-1.352,3.982-1.613c-0.514-0.543-0.834-1.271-0.834-2.078c0-1.21,0.715-2.248,1.742-2.733
		c-0.184-0.162-0.35-0.34-0.496-0.536c-0.264,0.677-0.918,1.158-1.688,1.158c-1.002,0-1.813-0.813-1.813-1.814
		s0.812-1.813,1.813-1.813c0.353,0,0.68,0.104,0.958,0.279c0.016-1.984,1.627-3.591,3.616-3.591c0.733,0,1.413,0.222,1.983,0.597
		c-0.028-0.144-0.045-0.29-0.045-0.441c0-0.045,0.011-0.088,0.014-0.133c-0.198,0.035-0.399,0.062-0.607,0.062
		c-1.898,0-3.435-1.516-3.487-3.4h-11.087c0,0.003,0.001,0.007,0.001,0.01C141.85,179.978,141.634,180.643,141.271,181.203z"/>
	<path fill="none" d="M150.773,120.583c0,0.347-0.093,0.669-0.241,0.958c0.02,0,0.038-0.006,0.058-0.006
		c1.043,0,1.889,0.846,1.889,1.889c0,1.043-0.846,1.888-1.889,1.888c-0.114,0-0.225-0.014-0.333-0.034
		c0.08,0.279,0.137,0.567,0.137,0.872c0,0.8-0.306,1.521-0.792,2.08c1.09,0.636,1.831,1.806,1.831,3.159
		c0,0.878-0.321,1.673-0.836,2.305c0.162,0.091,0.315,0.196,0.446,0.326h7.592c0.356-0.357,0.849-0.578,1.393-0.578
		c0.433,0,0.829,0.144,1.153,0.38c0.522-0.313,1.127-0.505,1.781-0.505c0.782,0,1.496,0.267,2.076,0.703h1.749
		c-0.053-0.146-0.087-0.302-0.087-0.466c0-0.246,0.07-0.474,0.184-0.674c-2.195-0.524-4.212-1.491-5.961-2.804
		c0.004,0.064,0.02,0.126,0.02,0.192c0,1.798-1.458,3.255-3.256,3.255s-3.256-1.457-3.256-3.255c0-0.672,0.204-1.296,0.553-1.814
		c-0.028-0.162-0.05-0.327-0.05-0.498c0-0.586,0.182-1.129,0.489-1.58c-0.025-0.171-0.053-0.341-0.053-0.519
		c0-0.711,0.212-1.37,0.564-1.931c-0.969-2.082-1.524-4.394-1.524-6.84c0-0.38,0.031-0.753,0.057-1.127
		c-0.205,0.069-0.421,0.115-0.649,0.115c-1.137,0-2.059-0.922-2.059-2.059c0-0.785,0.445-1.46,1.092-1.807h-6.662
		c0.097,0.2,0.155,0.421,0.155,0.659c0,0.399-0.157,0.76-0.409,1.032c1.556,0.173,2.771,1.478,2.771,3.081
		c0,0.568-0.163,1.094-0.43,1.552c0.131-0.025,0.266-0.041,0.403-0.041C149.837,118.488,150.773,119.426,150.773,120.583z
		 M152.902,116.89c0.79,0,1.431,0.641,1.431,1.431s-0.641,1.43-1.431,1.43s-1.432-0.64-1.432-1.43S152.112,116.89,152.902,116.89z"
		/>
	<path fill="none" d="M135.317,193.113c-0.091,0.136-0.207,0.251-0.336,0.351c0.115-0.06,0.236-0.106,0.362-0.145
		C135.329,193.252,135.328,193.182,135.317,193.113z"/>
	<path fill="none" d="M223.584,205.883c0.034,0.06,0.07,0.119,0.1,0.182c0.021-0.044,0.042-0.088,0.063-0.132
		C223.693,205.915,223.636,205.904,223.584,205.883z"/>
	<path fill="none" d="M146.577,155.385c0.134-0.101,0.285-0.176,0.45-0.223c-0.002-0.043-0.013-0.083-0.013-0.126
		c0-0.302,0.062-0.587,0.158-0.856c-0.339-0.019-0.664-0.084-0.963-0.208c-0.179,0.174-0.388,0.315-0.618,0.418
		C145.99,154.645,146.325,154.984,146.577,155.385z"/>
	<path fill="none" d="M117.449,63.181c-0.464-0.076-0.921-0.173-1.362-0.308c-0.055,0.217-0.126,0.425-0.218,0.625h1.963
		C117.696,63.402,117.57,63.294,117.449,63.181z"/>
	<path fill="none" d="M128.736,198.03c-0.024,0.02-0.047,0.041-0.072,0.06h0.078C128.739,198.07,128.738,198.05,128.736,198.03z"/>
	<path fill="none" d="M222.197,203.792c0-0.596,0.234-1.134,0.609-1.538c-0.218,0.116-0.463,0.188-0.727,0.188
		c-0.858,0-1.553-0.696-1.553-1.553c0-0.2,0.041-0.391,0.11-0.566c-0.363-0.264-0.602-0.688-0.602-1.171
		c0-0.002,0.001-0.004,0.001-0.007c-1.343,0.828-2.778,1.519-4.288,2.054c0.074,0.176,0.115,0.37,0.115,0.573
		c0,0.216-0.048,0.419-0.131,0.604c0.422-0.172,0.881-0.271,1.364-0.271c1.716,0,3.145,1.199,3.514,2.803
		c0.293-0.133,0.615-0.212,0.958-0.212c0.328,0,0.64,0.069,0.922,0.192C222.31,204.563,222.197,204.192,222.197,203.792z"/>
	<path fill="none" d="M213.812,216.9c-0.638,1.304-1.44,2.508-2.389,3.587c0.123,0.08,0.246,0.161,0.367,0.245
		c0.031,0.006,0.062,0.016,0.093,0.022c0.168-0.082,0.351-0.138,0.55-0.138c0.7,0,1.269,0.567,1.269,1.268
		c0,0.027-0.014,0.051-0.016,0.078c0.138,0.193,0.253,0.403,0.343,0.627c0.147,0.148,0.28,0.311,0.423,0.464
		c0.073-0.121,0.157-0.232,0.248-0.34c-0.39-0.419-0.634-0.978-0.634-1.596c0-1.231,0.95-2.229,2.155-2.328
		C215.168,218.539,214.3,217.838,213.812,216.9z"/>
	<path fill="none" d="M157.005,191.618c0,0.869-0.37,1.647-0.956,2.2c2.486,0.595,4.623,2.076,6.058,4.099
		c0.082-0.015,0.165-0.025,0.251-0.025c0.262,0,0.504,0.075,0.716,0.198h0.818c-0.329-0.502-0.525-1.093-0.574-1.727
		c-0.016,0.001-0.029,0.005-0.045,0.005c-1.168,0-2.115-0.946-2.115-2.114s0.947-2.115,2.115-2.115c0.699,0,1.314,0.344,1.699,0.867
		c0.092-0.06,0.192-0.106,0.29-0.158c0.02-0.5,0.143-0.972,0.348-1.398c-1.3-0.32-2.269-1.485-2.269-2.884
		c0-1.322,0.868-2.431,2.061-2.82c0.314-1.001,1.238-1.731,2.343-1.731c1.362,0,2.467,1.104,2.467,2.467
		c0,0.262-0.052,0.509-0.127,0.745c0.655,0.108,1.179,0.604,1.322,1.247c0.114-0.18,0.245-0.346,0.389-0.5
		c-0.358-0.471-0.579-1.052-0.579-1.689c0-0.651,0.231-1.243,0.604-1.719c-0.08-0.112-0.146-0.233-0.212-0.355
		c-0.391,0.146-0.81,0.236-1.252,0.236c-1.223,0-2.3-0.612-2.951-1.544c-0.633,0.579-1.468,0.941-2.394,0.941
		c-1.965,0-3.557-1.592-3.557-3.558c0-0.362,0.07-0.705,0.171-1.034h-1.714c-0.013,0.439-0.099,0.86-0.259,1.244
		c1.072,0.179,1.892,1.104,1.892,2.228c0,0.363-0.094,0.702-0.246,1.007c-0.099,0.534-0.508,0.938-1.045,1.028
		c-0.296,0.142-0.623,0.228-0.973,0.228c-0.304,0-0.592-0.062-0.855-0.17c0.174,0.423,0.272,0.886,0.272,1.371
		c0,1.596-1.04,2.936-2.474,3.417C156.704,190.141,157.005,190.842,157.005,191.618z"/>
	<path fill="none" d="M224.467,201.521c0.047,0,0.092,0.011,0.138,0.014c-0.688-0.616-1.128-1.502-1.128-2.499
		c0-1.23,0.667-2.296,1.652-2.884c-0.086-0.343-0.165-0.688-0.229-1.04c-0.89,0.978-1.867,1.873-2.915,2.683
		c0.555,0.204,0.953,0.732,0.953,1.357c0,0.143-0.027,0.277-0.065,0.407c0.453,0.271,0.76,0.763,0.76,1.33
		c0,0.372-0.137,0.709-0.354,0.977C223.625,201.651,224.029,201.521,224.467,201.521z"/>
	<path fill="none" d="M187.924,227.023c-0.301-0.208-0.549-0.483-0.736-0.8c-0.671,1.051-1.453,2.023-2.342,2.892
		c0.711,0.124,1.409,0.282,2.084,0.495C187.188,228.713,187.523,227.851,187.924,227.023z"/>
	<path fill="none" d="M141.729,189.709c-0.046-0.036-0.094-0.07-0.135-0.111c-0.227,0.043-0.459,0.07-0.698,0.07
		c-0.064,0-0.124-0.016-0.188-0.019c0.225,0.147,0.429,0.322,0.613,0.517C141.434,189.993,141.573,189.843,141.729,189.709z"/>
	<path fill="none" d="M230.346,175.631c0.056-0.069,0.106-0.142,0.169-0.204c-0.25-0.474-0.405-1.005-0.406-1.578
		c-0.053,0.033-0.105,0.065-0.159,0.097C230.103,174.5,230.235,175.062,230.346,175.631z"/>
	<path fill="none" d="M221.857,64.468c-0.126-0.061-0.241-0.138-0.347-0.229c0.045,0.129,0.1,0.253,0.141,0.383
		C221.718,64.568,221.79,64.521,221.857,64.468z"/>
	<path fill="none" d="M236.977,161.159c0-1.47,0.882-2.73,2.143-3.294c-1.334-2.126-2.193-4.576-2.42-7.213
		c-0.551,0.838-1.442,1.42-2.477,1.573c-0.028,0.11-0.063,0.217-0.1,0.322c1.776,0.268,3.143,1.788,3.143,3.64
		c0,1.166-0.551,2.194-1.396,2.872c-0.327,0.64-0.854,1.155-1.51,1.456c-0.024,0.187-0.063,0.366-0.119,0.541
		c0.098,0.235,0.184,0.476,0.264,0.72c0.317-0.12,0.659-0.194,1.019-0.194c0.584,0,1.124,0.176,1.579,0.474
		C237.028,161.768,236.977,161.471,236.977,161.159z"/>
	<path d="M28.51,112.206h3.847c0.29,0.282,0.685,0.457,1.121,0.457c0.437,0,0.831-0.175,1.121-0.457h8.445
		c-0.935,0.4-1.641,1.213-1.919,2.206c-0.167-0.073-0.351-0.115-0.544-0.115c-0.751,0-1.359,0.609-1.359,1.359
		c0,0.751,0.608,1.36,1.359,1.36c0.276,0,0.533-0.083,0.748-0.226c0.548,1.138,1.701,1.93,3.049,1.93
		c1.874,0,3.393-1.519,3.393-3.393c0-1.401-0.849-2.602-2.061-3.12h3.72c0,0.005-0.001,0.01-0.001,0.015
		c0,1.964,1.593,3.556,3.557,3.556s3.557-1.592,3.557-3.556c0-0.005-0.001-0.01-0.001-0.015h5.57c2.68,0,5.043-1.358,6.438-3.423
		c0.356,0.802,1.156,1.363,2.09,1.363c1.264,0,2.289-1.025,2.289-2.29c0-1.264-1.025-2.289-2.289-2.289
		c-0.312,0-0.609,0.063-0.881,0.177c0.072-0.425,0.118-0.859,0.118-1.305c0-4.289-3.477-7.766-7.766-7.766H28.51
		c-4.289,0-7.767,3.477-7.767,7.766C20.743,108.729,24.221,112.206,28.51,112.206z"/>
	<path d="M264.232,137.623c0.313-0.429,0.502-0.952,0.502-1.523c0-1.435-1.164-2.599-2.6-2.599c-0.895,0-1.684,0.453-2.151,1.142
		c-1.309-0.638-2.712-1.108-4.188-1.375c-0.309-0.976-1.211-1.689-2.289-1.689c-1.007,0-1.867,0.619-2.228,1.495
		c-0.728,0.071-1.436,0.203-2.132,0.367c0.134-0.839,0.223-1.694,0.223-2.571c0-0.959-0.1-1.893-0.259-2.806
		c0.5-0.196,0.993-0.405,1.475-0.635c0.01,0,0.018,0.003,0.027,0.003c1.386,0,2.579-0.772,3.212-1.902
		c5.805-4.079,9.603-10.821,9.603-18.455c0-3.417-0.764-6.653-2.124-9.554c0.067-0.263,0.114-0.534,0.114-0.818
		c0-1.564-1.088-2.867-2.546-3.214c-3.112-4.114-7.604-7.123-12.785-8.348c0.09-0.163,0.172-0.331,0.258-0.498
		c0.349,0.12,0.716,0.198,1.105,0.198c1.898,0,3.437-1.539,3.437-3.438c0-1.676-1.201-3.069-2.79-3.372
		c0.013-0.262,0.04-0.52,0.04-0.784c0-5.042-2.297-9.548-5.899-12.529c0.073-0.253,0.125-0.516,0.125-0.792
		c0-1.579-1.28-2.858-2.858-2.858c-0.825,0-1.563,0.354-2.084,0.914c-1.73-0.628-3.59-0.988-5.537-0.988
		c-2.835,0-5.498,0.729-7.818,2.005c-0.041-0.82-0.713-1.474-1.542-1.474c-0.799,0-1.448,0.606-1.533,1.382
		c-0.498-1.116-1.122-2.16-1.849-3.125c0.005-0.068,0.021-0.132,0.021-0.201c0-1.743-1.413-3.156-3.156-3.156
		c-0.078,0-0.151,0.018-0.229,0.023c-1.654-1.219-3.543-2.128-5.593-2.651c1.665-2.551,2.641-5.592,2.641-8.865
		c0-6.622-3.966-12.309-9.647-14.842c0.263-0.42,0.421-0.913,0.421-1.445c0-1.512-1.226-2.738-2.737-2.738
		c-1.513,0-2.738,1.226-2.738,2.738c0,0.039,0.01,0.074,0.012,0.112c-0.516-0.049-1.036-0.079-1.563-0.079
		c-0.384,0-0.761,0.031-1.138,0.058c-1.763-3.239-5.195-5.438-9.143-5.438c-5.744,0-10.4,4.656-10.4,10.4
		c0,1.667,0.402,3.238,1.1,4.635c-2.149-1.049-4.556-1.654-7.108-1.654c-1.709,0-3.355,0.267-4.903,0.756
		c-0.09-0.315-0.193-0.624-0.303-0.932h3.307c4.29,0,7.767-3.477,7.767-7.767c0-4.289-3.477-7.766-7.767-7.766h-35.792
		c0-0.009,0.003-0.019,0.003-0.028c0-0.814-0.66-1.473-1.473-1.473s-1.473,0.659-1.473,1.473c0,0.009,0.002,0.019,0.003,0.028
		H114.77c-4.289,0-7.767,3.477-7.767,7.766c0,1.759,0.592,3.377,1.578,4.679c-0.245,0.352-0.39,0.778-0.39,1.239
		c0,1.204,0.976,2.179,2.179,2.179c0.688,0,1.294-0.326,1.693-0.824c0.844,0.314,1.753,0.494,2.706,0.494h5.646
		c0.69,1.259,1.638,2.354,2.766,3.228c0.012,0.906,0.446,1.703,1.11,2.223c0.321,1.129,1.348,1.961,2.58,1.961
		c1.247,0,2.286-0.853,2.592-2.003c0.027,0,0.053,0.004,0.08,0.004c1.267,0,2.476-0.238,3.599-0.653
		c-0.009,0.219-0.033,0.433-0.033,0.653c0,0.715,0.062,1.414,0.151,2.104c-0.797,0.491-1.376,1.294-1.556,2.247
		c-0.135-0.051-0.278-0.087-0.431-0.087c-0.671,0-1.216,0.544-1.216,1.216c0,0.646,0.509,1.163,1.146,1.202
		c-0.661,0.281-1.283,0.632-1.865,1.038c-0.165-0.252-0.365-0.475-0.585-0.678c-0.838-2.025-2.302-3.72-4.146-4.863
		c0-0.019,0.006-0.037,0.006-0.057c0-1.441-1.168-2.608-2.608-2.608c-0.895,0-1.684,0.452-2.153,1.138
		c-0.234-0.016-0.468-0.036-0.707-0.036c-2.936,0-5.583,1.221-7.474,3.177c-0.168-0.024-0.336-0.051-0.511-0.051
		c-2.004,0-3.629,1.625-3.629,3.629c0,1.094,0.494,2.063,1.26,2.729c-0.026,0.302-0.046,0.607-0.046,0.916
		c0,1.349,0.265,2.634,0.732,3.816c-1.493,0.238-2.636,1.521-2.636,3.08c0,1.415,0.944,2.596,2.233,2.983
		c0.057,0.24,0.137,0.468,0.238,0.687H99.115c0.742-0.564,1.229-1.447,1.229-2.451c0-1.705-1.382-3.087-3.087-3.087
		s-3.087,1.382-3.087,3.087c0,0.447,0.1,0.87,0.271,1.253c-0.129,0.238-0.208,0.507-0.208,0.796c0,0.139,0.021,0.272,0.053,0.401
		H53.958c-4.289,0-7.767,3.477-7.767,7.766c0,4.29,3.478,7.767,7.767,7.767h47.3c-0.41,0.344-0.676,0.854-0.676,1.43
		c0,1.035,0.839,1.874,1.874,1.874c1.035,0,1.874-0.839,1.874-1.874c0-0.577-0.266-1.086-0.676-1.43h23.073
		c0.037,0.197,0.097,0.386,0.166,0.57c-0.243,0.471-0.394,0.999-0.394,1.565c0,1.898,1.539,3.437,3.437,3.437
		c1.593,0,2.92-1.09,3.31-2.561c0.383,0.485,0.969,0.802,1.635,0.802c0.342,0,0.661-0.09,0.946-0.236
		c0.097,0.031,0.191,0.069,0.292,0.09c0.044,0.167,0.108,0.324,0.187,0.473c-0.876,0.398-1.489,1.276-1.489,2.301
		c0,1.397,1.133,2.53,2.53,2.53c0.532,0,1.024-0.166,1.431-0.446c0.577,0.938,1.603,1.568,2.784,1.568
		c1.397,0,2.581-0.877,3.053-2.108c0.313-0.099,0.602-0.243,0.858-0.434c0.581,0.973,1.632,1.631,2.848,1.631
		c1.535,0,2.813-1.044,3.198-2.457c0.053-0.075,0.096-0.156,0.139-0.237c0.469-0.267,0.788-0.764,0.788-1.34
		c0-0.241-0.06-0.467-0.158-0.67c0-0.007,0.002-0.014,0.002-0.021c0-1.331-0.768-2.471-1.877-3.037
		c0.217-0.023,0.427-0.068,0.622-0.147c0.478,0.294,1.034,0.473,1.637,0.473c0.158,0,0.309-0.024,0.46-0.046
		c-0.354,0.55-0.566,1.203-0.566,1.906c0,1.948,1.579,3.527,3.526,3.527c1.031,0,1.951-0.451,2.596-1.156
		c0.306-0.151,0.562-0.383,0.739-0.672c0.076,0.052,0.159,0.093,0.24,0.137c-0.265,0.404-0.422,0.885-0.422,1.404
		c0,0.145,0.02,0.285,0.043,0.423c-0.373,0.159-0.659,0.472-0.792,0.858c-1.464,0.057-2.673,1.103-2.963,2.493
		c-0.228-0.06-0.461-0.102-0.707-0.102c-1.353,0-2.477,0.966-2.725,2.246c-1.001,0.57-1.895,1.303-2.652,2.16
		c-0.278-0.153-0.573-0.276-0.891-0.348c0.404-0.328,0.668-0.822,0.668-1.384c0-0.946-0.737-1.713-1.668-1.776
		c-0.567-0.958-1.601-1.609-2.795-1.609c-1.798,0-3.256,1.458-3.256,3.256s1.458,3.255,3.256,3.255c0.012,0,0.023-0.003,0.035-0.003
		c-0.215,0.403-0.348,0.85-0.386,1.328h-15.642c0.572-0.605,0.928-1.417,0.928-2.315c0-1.617-1.136-2.965-2.653-3.299
		c-0.413-0.674-1.15-1.128-1.999-1.128c-1.298,0-2.35,1.052-2.35,2.35c0,0.454,0.135,0.874,0.357,1.233
		c-0.07,0.271-0.119,0.551-0.119,0.844c0,0.898,0.356,1.71,0.928,2.315h-6.2c0.457-0.474,0.74-1.115,0.74-1.825
		c0-1.454-1.179-2.633-2.633-2.633s-2.633,1.179-2.633,2.633c0,0.71,0.284,1.352,0.74,1.825h-12.754
		c-0.665-0.658-1.578-1.065-2.587-1.065s-1.923,0.408-2.587,1.065h-6.624c-0.588,0-1.158,0.071-1.708,0.194
		c0.062-0.213,0.104-0.434,0.104-0.666c0-0.639-0.252-1.216-0.656-1.649c0.124-0.329,0.2-0.682,0.2-1.055
		c0-0.045-0.011-0.087-0.013-0.131c0.575-0.522,0.942-1.269,0.942-2.107c0-1.579-1.28-2.858-2.858-2.858
		c-1.51,0-2.734,1.174-2.838,2.659c-0.757,0.547-1.255,1.432-1.255,2.438c0,1.164,0.667,2.162,1.634,2.663
		c0,0.014-0.004,0.027-0.004,0.041c0,1.016,0.626,1.884,1.513,2.244c-1.727,1.424-2.828,3.58-2.828,5.993
		c0,2.425,1.112,4.588,2.853,6.013c0.548,1.344,1.864,2.292,3.405,2.292c0.694,0,1.336-0.204,1.89-0.538h0.451
		c-0.067,0.264-0.113,0.536-0.113,0.821c0,0.488,0.109,0.949,0.296,1.367c-0.01,0-0.018-0.006-0.028-0.006
		c-0.623,0-1.128,0.505-1.128,1.128s0.505,1.128,1.128,1.128c0.554,0,0.995-0.408,1.089-0.935c0.56,0.418,1.247,0.674,1.999,0.674
		c1.854,0,3.356-1.502,3.356-3.356c0-0.285-0.046-0.557-0.113-0.821h15.066c0.602,0.582,1.418,0.943,2.321,0.943
		c0.903,0,1.719-0.361,2.322-0.943h20.006c0.54,1.373,1.87,2.349,3.435,2.349s2.895-0.976,3.434-2.349h0.23
		c-0.097,0.2-0.155,0.421-0.155,0.659c0,0.601,0.352,1.116,0.857,1.363c-0.994,0.521-1.68,1.55-1.68,2.749
		c0,1.721,1.396,3.115,3.115,3.115c0.398,0,0.776-0.082,1.127-0.218c-0.081,0.223-0.132,0.459-0.132,0.709
		c0,1.157,0.937,2.094,2.094,2.094c0.063,0,0.124-0.013,0.187-0.019c-0.096,0.216-0.149,0.453-0.158,0.702
		c-0.447-0.24-0.951-0.389-1.494-0.389c-1.757,0-3.181,1.424-3.181,3.18c0,0.261,0.04,0.511,0.1,0.754
		c-0.236-0.088-0.489-0.143-0.757-0.143c-0.791,0-1.478,0.427-1.857,1.06c0.078-0.288,0.133-0.584,0.133-0.896
		c0-1.901-1.541-3.441-3.441-3.441c-1.9,0-3.441,1.54-3.441,3.441c0,0.367,0.073,0.714,0.179,1.045
		c-1.317,0.29-2.304,1.461-2.304,2.865c0,0.23,0.033,0.451,0.083,0.666c-1.067,0.367-1.84,1.344-1.905,2.519h-14.157
		c-0.408-0.205-0.862-0.331-1.349-0.331s-0.941,0.126-1.349,0.331h-0.179c-0.405-0.419-0.97-0.682-1.599-0.682
		s-1.194,0.263-1.599,0.682H91.277c0.424-0.453,0.689-1.057,0.689-1.727c0-1.397-1.133-2.53-2.53-2.53s-2.53,1.133-2.53,2.53
		c0,0.67,0.265,1.274,0.689,1.727H64.816c0.536-0.616,0.871-1.411,0.871-2.291c0-1.938-1.571-3.509-3.509-3.509
		c-1.362,0-2.53,0.784-3.111,1.918c-0.38-0.6-1.046-1-1.809-1c-1.185,0-2.146,0.961-2.146,2.146c0,1.186,0.961,2.147,2.146,2.147
		c0.625,0,1.182-0.272,1.575-0.698c0.145,0.482,0.386,0.917,0.708,1.287H41.014c0.105-0.339,0.178-0.692,0.178-1.065
		c0-1.999-1.621-3.62-3.62-3.62s-3.62,1.621-3.62,3.62c0,0.374,0.073,0.727,0.178,1.065h-11.9c-4.289,0-7.767,3.477-7.767,7.766
		c0,4.29,3.478,7.767,7.767,7.767h27.838c0.509,0.336,1.117,0.534,1.772,0.534s1.263-0.198,1.772-0.534h46.891
		c-0.051,0.17-0.087,0.347-0.087,0.533c0,1.025,0.832,1.856,1.857,1.856s1.857-0.831,1.857-1.856c0-0.187-0.036-0.363-0.087-0.533
		h34.252c0.328,0.375,0.805,0.616,1.342,0.616s1.014-0.241,1.342-0.616h0.415c0,0.004-0.001,0.009-0.001,0.013
		c0,0.909,0.601,1.67,1.424,1.93c-0.143,0.287-0.23,0.605-0.23,0.947c0,0.589,0.238,1.122,0.624,1.509
		c-1.454,0.305-2.546,1.593-2.546,3.137c0,0.725,0.25,1.387,0.656,1.924c-0.127,0.216-0.22,0.451-0.267,0.706
		c-0.361-0.123-0.742-0.205-1.146-0.205c-0.322,0-0.627,0.057-0.924,0.137c-0.104-0.956-0.62-1.786-1.383-2.291
		c0.157-0.316,0.253-0.669,0.253-1.047c0-0.779-0.38-1.464-0.96-1.896c0.204-0.283,0.327-0.629,0.327-1.004
		c0-0.953-0.772-1.725-1.725-1.725s-1.725,0.771-1.725,1.725c0,0.369,0.118,0.709,0.315,0.989c-0.155,0.113-0.292,0.246-0.415,0.394
		c-0.983,0.274-1.709,1.167-1.709,2.238c0,0.769,0.376,1.445,0.95,1.87c-0.125,0.34-0.204,0.703-0.204,1.087
		c0,1.742,1.413,3.154,3.155,3.154c0.165,0,0.324-0.024,0.481-0.049c0.001,0.214,0.026,0.422,0.063,0.625h-1.07
		c-0.499-0.73-1.338-1.211-2.29-1.211c-0.952,0-1.791,0.48-2.29,1.211h-9.709c-2.628,0-4.947,1.309-6.353,3.307
		c-0.158-0.029-0.319-0.049-0.485-0.049c0.073-0.262,0.124-0.533,0.124-0.818c0-0.583-0.171-1.122-0.452-1.587
		c0.884-0.315,1.561-1.056,1.779-1.981c0.185,0.263,0.453,0.444,0.775,0.52c0.557,0.422,1.243,0.682,1.996,0.682
		c1.834,0,3.322-1.487,3.322-3.321c0-1.795-1.426-3.247-3.205-3.311c-0.307-0.33-0.741-0.54-1.228-0.54
		c-0.594,0-1.114,0.311-1.413,0.776c-0.651-0.87-1.679-1.44-2.848-1.44c-1.97,0-3.567,1.598-3.567,3.567
		c0,0.784,0.261,1.504,0.69,2.093c-0.013,0.109-0.033,0.218-0.033,0.331c0,0.218,0.03,0.427,0.078,0.63
		c-0.001,0.029-0.009,0.056-0.009,0.085c0,0.201,0.04,0.392,0.1,0.573c-1.244,0.396-2.151,1.548-2.151,2.924
		c0,1.11,0.593,2.075,1.474,2.617c-0.004,0.046-0.014,0.09-0.014,0.136c0,0.806,0.653,1.459,1.459,1.459
		c0.193,0,0.376-0.039,0.545-0.107c0.191,0.788,0.731,1.436,1.45,1.774c0,0.005-0.001,0.009-0.001,0.014
		c0,0.536,0.177,1.028,0.469,1.433c0.221,0.831,0.57,1.609,1.035,2.307c-0.034,0.144-0.056,0.291-0.056,0.444
		c0,1.074,0.87,1.944,1.944,1.944c0.115,0,0.227-0.015,0.336-0.034c-0.064,0.149-0.102,0.313-0.102,0.485
		c0,0.677,0.55,1.227,1.227,1.227c0.549,0,0.997-0.367,1.154-0.864c0.627,0.163,1.281,0.259,1.959,0.259h3.35
		c-0.415,0.538-0.671,1.204-0.671,1.936c0,0.103,0.021,0.2,0.03,0.301c-0.323-0.948-1.212-1.636-2.271-1.636
		c-1.331,0-2.409,1.079-2.409,2.408c0,1.331,1.078,2.41,2.409,2.41s2.409-1.079,2.409-2.41c0-0.049-0.012-0.096-0.015-0.144
		c0.4,1.303,1.599,2.256,3.033,2.256c0.706,0,1.353-0.237,1.88-0.625c0.237,0.076,0.485,0.129,0.747,0.129
		c1.343,0,2.431-1.089,2.431-2.432c0-0.102-0.018-0.199-0.03-0.298c1.052-0.251,1.918-0.955,2.399-1.896h0.333
		c0,0.003-0.001,0.007-0.001,0.01c0,0.909,0.349,1.729,0.907,2.361c-0.152,0.29-0.246,0.615-0.246,0.966
		c0,0.354,0.096,0.683,0.251,0.975c-1.224,0.596-2.074,1.84-2.074,3.292c0,1.646,1.089,3.021,2.58,3.488
		c-0.311,0.372-0.543,0.806-0.68,1.284c-0.244-0.496-0.749-0.841-1.339-0.841c-0.826,0-1.496,0.67-1.496,1.496
		s0.67,1.496,1.496,1.496c0.218,0,0.423-0.049,0.61-0.133c-0.488,0.361-0.812,0.921-0.861,1.563
		c-0.543-0.453-1.233-0.736-1.996-0.736c-0.899,0-1.705,0.384-2.276,0.99c-0.295-0.999-1.21-1.733-2.306-1.733
		c-1.334,0-2.415,1.081-2.415,2.415c0,0.802,0.395,1.507,0.997,1.946h-1.667c0.138-0.298,0.221-0.627,0.221-0.977
		c0-1.287-1.043-2.33-2.33-2.33c-1.287,0-2.33,1.043-2.33,2.33c0,0.35,0.083,0.679,0.221,0.977h-1.882
		c-0.424-0.318-0.945-0.514-1.516-0.514s-1.092,0.195-1.516,0.514h-1.676c0.143-0.253,0.231-0.541,0.231-0.852
		c0-0.962-0.78-1.741-1.742-1.741s-1.742,0.779-1.742,1.741c0,0.311,0.088,0.599,0.231,0.852h-1.378
		c-0.637-0.639-1.519-1.034-2.492-1.034s-1.855,0.396-2.493,1.034H72.903c0.4-0.437,0.65-1.013,0.65-1.65
		c0-1.355-1.098-2.453-2.453-2.453s-2.453,1.098-2.453,2.453c0,0.638,0.25,1.214,0.65,1.65h-2c0.596-0.326,1.006-0.951,1.006-1.679
		c0-1.063-0.861-1.923-1.922-1.923s-1.922,0.86-1.922,1.923c0,0.728,0.41,1.353,1.006,1.679h-3.734
		c0.173-0.392,0.274-0.822,0.274-1.278c0-1.747-1.416-3.163-3.163-3.163s-3.163,1.416-3.163,3.163c0,0.456,0.101,0.887,0.274,1.278
		H41.399c-4.289,0-7.767,3.478-7.767,7.767c0,0.196,0.015,0.39,0.029,0.583c-0.586,0.054-1.051,0.532-1.051,1.132
		c0,0.636,0.516,1.152,1.152,1.152c0.14,0,0.27-0.034,0.394-0.079c1.122,2.91,3.938,4.979,7.243,4.979h15.467
		c-0.34,0.309-0.557,0.749-0.557,1.243c0,0.932,0.754,1.686,1.685,1.686s1.685-0.754,1.685-1.686c0-0.494-0.217-0.935-0.557-1.243
		h43.499c-0.355,0.474-0.574,1.055-0.574,1.692c0,1.564,1.267,2.831,2.83,2.831s2.83-1.267,2.83-2.831
		c0-0.638-0.219-1.219-0.574-1.692h10.368c-0.993,0.529-1.677,1.563-1.677,2.768c0,1.739,1.409,3.148,3.148,3.148
		c1.739,0,3.148-1.409,3.148-3.148c0-1.204-0.683-2.238-1.676-2.768h3.703c0.521,1.164,1.686,1.979,3.043,1.979
		c1.358,0,2.522-0.814,3.043-1.979h3.478c0.468,0.296,1.018,0.474,1.612,0.474s1.144-0.178,1.612-0.474h6.094
		c-0.226,0.464-0.363,0.978-0.363,1.528c0,1.906,1.521,3.45,3.414,3.504c0.422,0.237,0.902,0.385,1.422,0.385
		c1.608,0,2.913-1.304,2.913-2.913c0-0.841-0.361-1.593-0.932-2.125c-0.046-0.13-0.096-0.256-0.155-0.379h0.568
		c0.322,0.124,0.651,0.231,0.987,0.323c-0.023,0.166-0.051,0.332-0.051,0.505c0,1.417,0.84,2.631,2.043,3.193
		c0.271,0.259,0.606,0.447,0.978,0.553c-0.107,0.344-0.182,0.703-0.182,1.083c0,1.949,1.53,3.526,3.451,3.634
		c0.131,0.837,0.545,1.573,1.146,2.117c-0.095,0.237-0.188,0.477-0.266,0.723c-1.518-1.131-3.351-1.857-5.347-2.02
		c-0.346-1.532-1.708-2.679-3.344-2.679c-1.896,0-3.433,1.537-3.433,3.434c0,0.333,0.063,0.649,0.151,0.954
		c-0.842,0.563-1.598,1.244-2.241,2.021c-0.996,0.517-1.685,1.546-1.685,2.745c0,0.041,0.011,0.078,0.012,0.118
		c-0.274,0.707-0.471,1.45-0.586,2.223c-0.907,0.609-1.505,1.644-1.505,2.818c0,0.895,0.354,1.703,0.92,2.309
		c0.167,0.555,0.66,0.966,1.269,0.966c0.077,0,0.145-0.031,0.219-0.044c0.004,0.001,0.008,0.002,0.012,0.004
		c1.092,2.259,2.967,4.068,5.283,5.057c0.032,0.34,0.091,0.67,0.144,1.003c-0.33,0.22-0.646,0.458-0.947,0.713
		c-0.353,0.218-0.656,0.504-0.885,0.849c-1.742,1.859-2.817,4.353-2.817,7.102c0,5.744,4.657,10.4,10.401,10.4
		c0.674,0,1.33-0.069,1.968-0.191c1.798,1.482,4.102,2.373,6.614,2.373c4.852,0,8.915-3.327,10.063-7.821
		c2.72,2.048,6.09,3.275,9.756,3.275c7.42,0,13.666-4.978,15.613-11.772c1.548,0.489,3.194,0.756,4.903,0.756
		c8.977,0,16.254-7.277,16.254-16.254c0-2.479-0.571-4.82-1.564-6.923c1.3-0.215,2.293-1.335,2.293-2.696
		c0-0.893-0.433-1.678-1.094-2.179c0.203-0.347,0.327-0.745,0.327-1.176c0-1.045-0.687-1.919-1.63-2.224
		c2.017-0.029,3.644-1.666,3.644-3.689c0-1.632-1.065-3.001-2.532-3.491c1.281-0.206,2.262-1.279,2.331-2.602
		c0.303,0.146,0.639,0.233,0.997,0.233c0.465,0,0.896-0.14,1.259-0.375c-0.067,0.478-0.114,0.962-0.114,1.458
		c0,2.153,0.654,4.153,1.775,5.813c-0.029,0.031-0.055,0.067-0.083,0.101c-0.378-0.251-0.83-0.398-1.316-0.398
		c-1.318,0-2.387,1.069-2.387,2.387c0,1.319,1.068,2.388,2.387,2.388c0.46,0,0.887-0.137,1.251-0.362
		c0.583,0.737,1.476,1.22,2.489,1.22c0.104,0,0.201-0.021,0.302-0.03c0.267,0.133,0.563,0.214,0.882,0.214
		c0.349,0,0.671-0.098,0.955-0.254c0.647-0.106,1.196-0.487,1.528-1.023c0.838,0.218,1.712,0.346,2.618,0.346
		c5.744,0,10.399-4.655,10.399-10.399c0-0.74-0.08-1.462-0.228-2.158c3.869-0.575,7.287-2.506,9.762-5.304
		c0.087,1.457,1.284,2.615,2.763,2.615c1.535,0,2.779-1.245,2.779-2.78s-1.244-2.779-2.779-2.779c-0.259,0-0.505,0.047-0.743,0.113
		c1.137-2.032,1.84-4.333,2.01-6.784c0.617-0.589,1.006-1.415,1.006-2.336c0-1.12-0.57-2.106-1.436-2.688
		c-0.558-2.269-1.584-4.348-2.981-6.129c0.072,0.013,0.138,0.043,0.213,0.043c0.715,0,1.294-0.579,1.294-1.294
		s-0.579-1.294-1.294-1.294s-1.294,0.579-1.294,1.294c0,0.002,0.001,0.003,0.001,0.005c-0.557-0.578-1.157-1.11-1.794-1.602
		c0.972-0.644,1.613-1.744,1.613-2.997c0-0.895-0.339-1.702-0.879-2.331c-0.252-0.741-0.811-1.338-1.533-1.627
		c-0.086-0.42-0.255-0.807-0.471-1.161c-0.146-0.465-0.414-0.87-0.772-1.183c-0.419-0.591-1.104-0.979-1.884-0.979
		c-0.558,0-1.062,0.206-1.461,0.534c-1.552,0.433-2.696,1.84-2.696,3.529c0,1.479,0.878,2.745,2.137,3.329
		c-1.271-0.318-2.595-0.507-3.965-0.507c-1.371,0-2.694,0.188-3.967,0.508c-0.214-0.216-0.465-0.392-0.731-0.543
		c0.448-0.576,0.727-1.292,0.727-2.079c0-1.878-1.521-3.401-3.401-3.401c-0.007,0-0.013,0.002-0.02,0.002
		c0.309-0.504,0.578-1.033,0.8-1.589c0.549,0.506,1.276,0.821,2.081,0.821c1.704,0,3.086-1.382,3.086-3.087
		c0-0.926-0.416-1.746-1.062-2.313c-0.007-0.099-0.014-0.197-0.029-0.293c0.5,0.395,1.102,0.654,1.764,0.739
		c0.104,0.854,0.567,1.597,1.249,2.054c-0.552,0.217-0.943,0.75-0.943,1.377c0,0.819,0.663,1.483,1.482,1.483
		c0.818,0,1.481-0.664,1.481-1.483c0-0.338-0.118-0.646-0.309-0.896c0.831-0.029,1.566-0.408,2.076-0.994
		c0.506,0.456,1.17,0.742,1.904,0.742c0.067,0,0.131-0.016,0.198-0.02c1.372,4.14,5.268,7.129,9.868,7.129
		c5.744,0,10.399-4.656,10.399-10.4c0-1.869-0.5-3.619-1.362-5.135c1.86-2.644,2.962-5.858,2.962-9.337
		C269.136,144.688,267.254,140.574,264.232,137.623z M216.727,211.544c-0.513,0.049-0.99,0.199-1.421,0.436
		c0.061-0.445,0.101-0.896,0.124-1.354c0.025-0.023,0.051-0.047,0.075-0.071C215.808,210.991,216.229,211.338,216.727,211.544z
		 M134.925,197.252c0.308,0.17,0.658,0.275,1.035,0.275c0.095,0,0.186-0.016,0.277-0.028c0.177,0.221,0.377,0.418,0.601,0.591
		h-1.925c0.025-0.159,0.049-0.318,0.049-0.484C134.961,197.484,134.938,197.369,134.925,197.252z M148.854,80.066
		c-1.384,0.005-2.568,0.833-3.104,2.017c-0.528-0.502-1.239-0.815-2.026-0.815c-1.031,0-1.936,0.53-2.463,1.332
		c-0.292,0.027-0.573,0.086-0.838,0.185c0.065-0.211,0.111-0.431,0.111-0.664c0-0.799-0.42-1.497-1.049-1.896
		c0.01-0.095,0.029-0.188,0.029-0.286c0-0.32-0.065-0.622-0.163-0.909h8.67C148.192,79.452,148.483,79.812,148.854,80.066z
		 M147.001,157.767c0.126,0.038,0.258,0.065,0.396,0.065c0.429,0,0.806-0.202,1.056-0.512c0.275,0.134,0.576,0.216,0.896,0.243
		c-0.156,0.265-0.27,0.556-0.324,0.869c-0.254-0.098-0.526-0.156-0.813-0.156c-1.206,0-2.184,0.941-2.261,2.127
		c-0.162-0.194-0.342-0.373-0.551-0.515C146.202,159.448,146.802,158.687,147.001,157.767z M164.369,85.845
		c-0.006-0.506-0.159-0.976-0.418-1.372c0.451,0.246,0.961,0.398,1.511,0.398c0.146,0,0.285-0.024,0.426-0.043
		c-0.127,0.146-0.235,0.306-0.319,0.482C165.102,85.341,164.68,85.534,164.369,85.845z M145.3,60.893
		c1.266-0.381,2.212-1.468,2.384-2.812c0.553,0.057,1.112,0.086,1.68,0.086c1.709,0,3.355-0.267,4.902-0.756
		c0.155,0.542,0.335,1.072,0.543,1.588c-0.456,0.046-0.84,0.317-1.031,0.713c-0.462-0.825-1.333-1.389-2.345-1.389
		c-1.489,0-2.696,1.207-2.696,2.696c0,0.581,0.188,1.116,0.5,1.556c-0.564-0.416-1.256-0.668-2.011-0.668
		c-1.212,0-2.269,0.637-2.874,1.589h-0.159C144.674,62.692,145.049,61.819,145.3,60.893z M224.422,91.677
		c-0.073,0.078-0.149,0.153-0.222,0.232c-0.022-0.121-0.031-0.246-0.056-0.366C224.234,91.592,224.331,91.629,224.422,91.677z
		 M149.926,63.257c0.139,0.093,0.287,0.173,0.441,0.24H150.1C150.046,63.413,149.986,63.336,149.926,63.257z M154.106,61.242
		c0.226,0.192,0.508,0.32,0.827,0.32c0.373,0,0.703-0.163,0.939-0.415c0.489,0.833,1.046,1.62,1.671,2.35h-2.773
		c-0.35-0.273-0.785-0.443-1.264-0.443c-0.125,0-0.247,0.016-0.366,0.037C153.686,62.642,154.045,61.988,154.106,61.242z
		 M185.62,56.918c0.166,0.152,0.327,0.309,0.499,0.454c-0.075,0.104-0.139,0.215-0.199,0.33c-0.05-0.003-0.098-0.015-0.148-0.015
		c-0.123,0-0.239,0.021-0.357,0.036C185.495,57.46,185.553,57.188,185.62,56.918z M167.088,149.552
		c0.253,0.289,0.62,0.476,1.034,0.476s0.781-0.187,1.034-0.476h0.354c-0.271,0.163-0.499,0.383-0.669,0.648
		c-1.019,0.595-1.711,1.687-1.711,2.951c0,0.486,0.104,0.948,0.287,1.367c-0.33,0.289-0.594,0.647-0.758,1.062
		c-0.153-0.069-0.32-0.113-0.5-0.113c-0.173,0-0.336,0.039-0.485,0.104c-0.02-0.015-0.04-0.026-0.06-0.04
		c-0.512-0.619-1.211-1.073-2.021-1.253c-0.247-0.622-0.709-1.128-1.292-1.443c0.001-0.044,0.013-0.086,0.013-0.13
		c0-1.403-0.837-2.604-2.034-3.152H167.088z M190.823,60.119c-0.006,0.081-0.024,0.158-0.024,0.24c0,0.468,0.103,0.911,0.279,1.313
		c-0.633,0.228-1.17,0.649-1.531,1.204c-0.279-0.512-0.758-0.895-1.336-1.042c0.066-0.12,0.127-0.242,0.175-0.372
		c0.949-0.066,1.752-0.635,2.146-1.45C190.627,60.051,190.727,60.083,190.823,60.119z M174.209,84.791
		c-0.226-0.156-0.498-0.248-0.793-0.248c-0.358,0-0.682,0.139-0.93,0.36c-0.47-0.579-1.113-1.004-1.859-1.189
		c0.458-0.591,0.741-1.323,0.741-2.128c0-0.052-0.013-0.101-0.016-0.152c0.861-0.051,1.616-0.491,2.083-1.156
		c0.045,0.005,0.085,0.027,0.132,0.027c0.467,0,0.856-0.255,1.093-0.619c0.204,0.71,0.724,1.282,1.404,1.549
		c-0.109,0.605-0.176,1.227-0.176,1.864c0,0.298,0.02,0.592,0.045,0.884c-0.496,0.11-0.932,0.37-1.266,0.728
		C174.511,84.727,174.357,84.751,174.209,84.791z M189.322,72.707c0.182,0.268,0.413,0.497,0.676,0.685
		c-0.263-0.101-0.529-0.194-0.802-0.273c-0.054-0.131-0.127-0.251-0.195-0.374c-0.005-0.083-0.009-0.166-0.024-0.246
		C189.085,72.579,189.202,72.645,189.322,72.707z M178.164,97.919c0.175-0.138,0.334-0.291,0.479-0.46
		c0.148,0.099,0.308,0.184,0.475,0.252c-0.05,0.241-0.076,0.491-0.076,0.747c0,0.545,0.127,1.059,0.34,1.524
		c-0.212-0.206-0.499-0.335-0.818-0.335c-0.648,0-1.175,0.526-1.175,1.175c0,0.413,0.227,0.759,0.549,0.969
		c-0.143,0.183-0.249,0.393-0.309,0.625c-0.743-0.354-1.513-0.662-2.313-0.901c-0.002-0.004-0.003-0.008-0.004-0.012
		c0.729-0.098,1.325-0.601,1.557-1.28C177.607,99.707,178.098,98.873,178.164,97.919z M182.675,168.412
		c0.457-0.335,0.889-0.699,1.284-1.103c0.056,0.026,0.109,0.053,0.167,0.075c-0.216,0.366-0.349,0.783-0.382,1.23
		c-0.169,0.017-0.332,0.051-0.488,0.104C183.076,168.596,182.881,168.494,182.675,168.412z M183.495,151.622
		c0.077,0.229,0.173,0.446,0.302,0.644c-0.007,0-0.013-0.002-0.02-0.002c-0.103,0-0.199,0.02-0.299,0.03
		c-0.068-0.061-0.133-0.124-0.202-0.184C183.385,151.968,183.456,151.805,183.495,151.622z M179.666,101.182
		c0.037-0.115,0.072-0.232,0.072-0.36c0-0.106-0.034-0.201-0.061-0.298c0.478,0.7,1.196,1.212,2.031,1.451
		c0.579,0.611,1.394,0.996,2.302,0.996c0.873,0,1.663-0.353,2.238-0.922c0.33,0.242,0.704,0.421,1.109,0.534
		c0.173,0.355,0.393,0.684,0.669,0.961c-0.838,0.056-1.572,0.49-2.019,1.145c-1.093,0.363-1.887,1.382-1.887,2.597
		c0,0.189,0.02,0.374,0.056,0.553c-0.03,0.029-0.059,0.06-0.086,0.091c-1.008-1.475-2.261-2.763-3.687-3.833
		c0.347-0.312,0.569-0.759,0.569-1.262C180.975,102.029,180.415,101.36,179.666,101.182z M191.58,93.654
		c-0.1,0-0.195,0.018-0.292,0.029c-0.382-0.409-0.883-0.705-1.453-0.818c0.458-0.167,0.905-0.356,1.331-0.583
		c0.209,0.361,0.515,0.655,0.885,0.851c-0.02,0.187-0.018,0.378-0.03,0.566C191.878,93.672,191.731,93.654,191.58,93.654z
		 M194.141,132.169c0.009,0.061,0.016,0.121,0.029,0.18c-0.038,0.052-0.079,0.1-0.114,0.154c-0.309-0.094-0.63-0.156-0.968-0.165
		C193.445,132.299,193.796,132.242,194.141,132.169z M203.965,137.777c-0.131,0.004-0.258,0.02-0.385,0.039
		c-0.153-0.338-0.436-0.602-0.785-0.732c-0.226-0.703-0.651-1.309-1.218-1.756c0.011-0.023,0.026-0.045,0.037-0.068
		c0.122,0.012,0.24,0.037,0.365,0.037c0.289,0,0.567-0.042,0.837-0.105c0.394,0.308,0.809,0.588,1.245,0.837
		C204,136.603,203.965,137.185,203.965,137.777C203.965,137.776,203.965,137.776,203.965,137.777z M199.879,114.684
		c-0.074,0.042-0.153,0.075-0.224,0.122c0.028-0.055,0.063-0.106,0.089-0.163C199.788,114.657,199.833,114.672,199.879,114.684z
		 M204.403,110.593c0.051,0.389,0.176,0.75,0.363,1.076c-0.33-0.115-0.68-0.19-1.05-0.19c-0.74,0-1.413,0.26-1.957,0.68
		c-0.298-0.505-0.842-0.847-1.471-0.847c-0.254,0-0.493,0.059-0.711,0.158c-0.043-0.074-0.075-0.154-0.124-0.225
		c0.918-0.139,1.632-0.868,1.751-1.791C202.218,109.94,203.287,110.324,204.403,110.593z M184.415,130.572
		c-0.063,0.126-0.114,0.256-0.16,0.392c-0.178,0.019-0.351,0.05-0.519,0.097c0.116-0.165,0.218-0.34,0.297-0.527
		C184.156,130.559,184.287,130.561,184.415,130.572z M190.565,104.599c0.48,0,0.938-0.098,1.356-0.27
		c-0.013,0.037-0.022,0.075-0.034,0.112c-0.444,0.549-0.722,1.238-0.722,1.999c0,0.513,0.132,0.99,0.347,1.419
		c-0.093,0.053-0.184,0.107-0.27,0.17c0.008-0.094,0.028-0.184,0.028-0.28c0-0.571-0.158-1.101-0.414-1.569c0,0,0-0.001,0-0.001
		c0-0.607-0.212-1.16-0.555-1.606C190.392,104.579,190.476,104.599,190.565,104.599z M181.667,92.405
		c-0.065,0.084-0.13,0.167-0.187,0.257c-0.043-0.023-0.084-0.049-0.129-0.07c-0.023-0.073-0.054-0.138-0.09-0.205
		c0.021-0.05,0.038-0.101,0.058-0.152C181.432,92.297,181.552,92.348,181.667,92.405z M181.104,132.274
		c-0.197,0.042-0.387,0.103-0.569,0.177c-0.057-0.119-0.117-0.234-0.188-0.344C180.586,132.197,180.841,132.25,181.104,132.274z
		 M186.944,171.792c0-0.054-0.011-0.104-0.016-0.157c0.076-0.01,0.155-0.01,0.229-0.025c0.008,0.07,0.024,0.138,0.032,0.208
		c-0.234,0.606-0.443,1.226-0.626,1.856c-0.243-0.172-0.52-0.297-0.817-0.371C186.432,173.141,186.944,172.527,186.944,171.792z
		 M217.478,115.624c-0.4-0.25-0.869-0.4-1.376-0.4c-0.095,0-0.185,0.018-0.276,0.028c0.002-0.036,0.011-0.07,0.011-0.107
		c0-0.332-0.101-0.64-0.273-0.896c1.546-0.114,2.814-1.176,3.236-2.615c0.178,0.868,0.412,1.715,0.687,2.543
		C218.756,114.577,218.087,115.068,217.478,115.624z M183.606,149.552c-0.165,0.355-0.265,0.747-0.267,1.165
		c-0.223-0.357-0.6-0.608-1.051-0.608c-0.465,0-0.854,0.264-1.072,0.638c-0.306-0.154-0.62-0.293-0.943-0.418
		c-0.023-0.271-0.078-0.531-0.169-0.776H183.606z M182.721,174.033c0.564-0.238,1.038-0.644,1.369-1.151
		c0.059-0.004,0.117-0.01,0.175-0.019c0.166,0.175,0.372,0.307,0.604,0.39c-0.741,0.089-1.379,0.501-1.763,1.102
		C182.988,174.235,182.859,174.128,182.721,174.033z M183.535,177.475c0.104,0.094,0.215,0.18,0.334,0.255
		c-0.374,0.267-0.728,0.558-1.062,0.87c-0.412,0.068-0.796,0.217-1.132,0.437c-0.021-0.077-0.041-0.153-0.069-0.226
		C182.442,178.691,183.144,178.185,183.535,177.475z M187.993,71.22c0.004,0.012,0.007,0.025,0.011,0.037
		c-0.002-0.001-0.004-0.003-0.007-0.004c-0.006-0.012-0.013-0.023-0.019-0.035C187.982,71.219,187.988,71.219,187.993,71.22z
		 M174.473,149.552c-0.037,0.099-0.068,0.2-0.095,0.304c-0.167,0.035-0.329,0.083-0.493,0.127c-0.372-0.263-0.823-0.42-1.313-0.42
		c-0.264,0-0.513,0.054-0.749,0.136c-0.066-0.053-0.136-0.103-0.209-0.146H174.473z M183.696,64.113
		c-0.042,0.129-0.082,0.261-0.082,0.404c0,0.747,0.605,1.353,1.353,1.353c0.467,0,0.878-0.237,1.121-0.596
		c0.129,0.149,0.273,0.284,0.439,0.393c0.043,1.014,0.646,1.876,1.514,2.289c-0.787,0.13-1.39,0.81-1.39,1.635
		c0,0.168,0.032,0.328,0.079,0.481c-0.084-0.032-0.172-0.059-0.261-0.081c0.03-0.173,0.054-0.35,0.054-0.532
		c0-0.475-0.117-0.918-0.311-1.319c0-0.005,0.002-0.01,0.002-0.016c0-1.019-0.826-1.845-1.846-1.845
		c-0.251,0-0.49,0.051-0.709,0.142c-0.065-0.004-0.128-0.02-0.194-0.02c-0.062,0-0.119,0.015-0.18,0.018
		c-0.021-0.015-0.045-0.025-0.066-0.039c0.253-0.282,0.412-0.651,0.412-1.06c0-0.792-0.581-1.445-1.34-1.567
		c0.169-0.19,0.312-0.401,0.429-0.63C182.96,63.531,183.293,63.87,183.696,64.113z M169.754,96.848
		c0.037-0.005,0.075-0.004,0.111-0.011c0.005,0.014,0.008,0.029,0.014,0.043C169.837,96.87,169.796,96.856,169.754,96.848z
		 M168.573,96.696c-0.051-0.003-0.101-0.006-0.151-0.008c0.02-0.013,0.035-0.031,0.055-0.045
		C168.51,96.66,168.539,96.681,168.573,96.696z M189.582,196.687c0.022-0.021,0.05-0.037,0.071-0.059
		c0.021-0.006,0.042-0.014,0.063-0.02c-0.083,0.06-0.164,0.122-0.246,0.184C189.508,196.757,189.547,196.724,189.582,196.687z
		 M170.749,90.593c0.002,0,0.005,0.001,0.008,0.001c0.805,0,1.515-0.372,1.993-0.945c0.333,0.375,0.756,0.662,1.238,0.832
		c0.15,0.118,0.313,0.222,0.488,0.302c-0.003,0.06-0.018,0.117-0.018,0.178c0,0.406,0.082,0.789,0.207,1.152
		c-0.23-0.173-0.515-0.279-0.825-0.279c-0.766,0-1.386,0.62-1.386,1.385c0,0.136,0.025,0.264,0.062,0.388
		c-0.135-0.023-0.271-0.042-0.412-0.042c-0.242,0-0.471,0.046-0.69,0.113c-0.316-0.626-0.916-1.078-1.635-1.186
		c0.347-0.191,0.591-0.547,0.591-0.971c0-0.119-0.033-0.229-0.068-0.336C170.485,91.017,170.635,90.817,170.749,90.593z
		 M158.115,163.719c-0.208-0.475-0.571-0.86-1.021-1.111c0.727-0.26,1.339-0.75,1.744-1.393c0.4,0.185,0.842,0.294,1.312,0.294
		c0.104,0,0.202-0.021,0.304-0.03c0.438,0.318,0.973,0.513,1.557,0.513c0.259,0,0.504-0.049,0.74-0.118
		c0.28,0.441,0.771,0.736,1.333,0.736c0.874,0,1.582-0.708,1.582-1.582c0-0.253-0.064-0.488-0.17-0.701
		c0.279-0.305,0.517-0.65,0.681-1.037c-0.017,0.245-0.037,0.488-0.037,0.737c0,0.868,0.118,1.706,0.318,2.512
		c-0.195,0.085-0.377,0.192-0.548,0.314c-0.355-0.141-0.739-0.224-1.145-0.224c-0.942,0-1.776,0.428-2.348,1.09H158.115z
		 M174.26,179.251c0.781,0,1.535-0.118,2.247-0.333c-0.226,0.237-0.409,0.514-0.535,0.82c-0.446-0.227-0.945-0.367-1.48-0.367
		c-0.187,0-0.366,0.025-0.545,0.055c0.034-0.057,0.067-0.114,0.096-0.175H174.26z M181.534,195.098
		c0.125-0.24,0.202-0.509,0.202-0.799c0-0.018-0.005-0.035-0.005-0.053c0.376-0.105,0.721-0.278,1.022-0.511
		c0.311,0.294,0.64,0.567,0.984,0.821c0.204,1.735,1.663,3.087,3.453,3.087c0.021,0,0.04-0.006,0.061-0.006
		c0.027,0,0.053,0.008,0.08,0.008c0.59,0,1.136-0.173,1.607-0.456c-0.349,0.284-0.679,0.588-1.002,0.9h-4.272
		c0.031-0.16,0.05-0.325,0.05-0.495C183.715,196.317,182.765,195.271,181.534,195.098z M170.512,196.954
		c0.155,0.023,0.311,0.048,0.473,0.048c1.125,0,2.11-0.583,2.681-1.461c0.044,0.002,0.086,0.014,0.131,0.014
		c1.589,0,2.88-1.215,3.03-2.764c0.623-0.63,1.01-1.496,1.01-2.453c0-1.118-0.535-2.102-1.354-2.74
		c0.211-0.394,0.342-0.837,0.342-1.314c0-0.396-0.084-0.771-0.232-1.113c0.562-0.471,0.973-1.115,1.122-1.861
		c0.232,0.065,0.473,0.112,0.727,0.112c0.139,0,0.271-0.021,0.403-0.041c-0.016,0.14-0.042,0.276-0.042,0.42
		c0,0.805,0.269,1.541,0.71,2.145c-0.002,0.083-0.013,0.163-0.013,0.247c0,0.82,0.104,1.615,0.284,2.381
		c-1.097,0.45-1.871,1.526-1.871,2.786c0,0.724,0.267,1.379,0.692,1.898c-0.219,0.291-0.354,0.649-0.354,1.042
		c0,0.72,0.436,1.338,1.059,1.604c-0.407,0.449-0.661,1.039-0.661,1.692c0,0.17,0.019,0.335,0.05,0.495h-6.26
		c-0.548-0.479-1.253-0.777-2.034-0.791C170.444,197.187,170.482,197.072,170.512,196.954z M154.67,149.552
		c0.363,0.474,0.834,0.858,1.388,1.1c-0.245,0.333-0.427,0.71-0.541,1.118c-0.953,0.633-1.583,1.715-1.583,2.945
		c0,0.545,0.134,1.056,0.354,1.517c-0.455-0.29-0.992-0.464-1.572-0.464c-0.263,0-0.513,0.046-0.755,0.11
		c0.093-0.265,0.153-0.545,0.153-0.842c0-1.266-0.926-2.31-2.137-2.508c0.165-0.341,0.264-0.717,0.285-1.115
		c0.371,0.186,0.784,0.3,1.228,0.3c1.319,0,2.418-0.925,2.692-2.161H154.67z M146.061,163.719c0.324-0.444,0.522-0.986,0.525-1.578
		c0.413,0.423,0.987,0.687,1.625,0.687c0.029,0,0.058-0.008,0.087-0.009c0.089,0.32,0.217,0.622,0.384,0.9H146.061z M170.883,190.08
		c-0.006-0.004-0.011-0.009-0.017-0.013c0.007-0.005,0.013-0.01,0.019-0.016C170.885,190.062,170.883,190.071,170.883,190.08z
		 M188.988,222.399c0.015,0.013,0.031,0.022,0.046,0.035c-0.021,0.002-0.041,0.003-0.062,0.006
		C188.978,222.427,188.983,222.414,188.988,222.399z M231.246,179.098c0.001,0.015,0.003,0.03,0.004,0.045
		c-0.166,0.123-0.336,0.243-0.497,0.372c-0.005-0.241-0.007-0.483-0.019-0.724C230.892,178.913,231.06,179.02,231.246,179.098z
		 M121.763,63.497c0.291-0.204,0.542-0.456,0.758-0.738c0.962-0.331,1.858-0.797,2.67-1.378c0.097,0.816,0.446,1.552,0.984,2.117
		H121.763z M133.521,79.03h0.181c-0.082,0.056-0.155,0.122-0.228,0.188C133.49,79.155,133.509,79.094,133.521,79.03z
		 M161.081,88.354c0.005-0.009,0.009-0.018,0.014-0.026c0.228,0.066,0.464,0.113,0.713,0.113c0.837,0,1.572-0.407,2.041-1.027
		c0.123,0.91,0.896,1.614,1.839,1.614c0.383,0,0.738-0.116,1.034-0.314c0.065,0.124,0.128,0.25,0.208,0.364
		c-0.056,0.188-0.095,0.381-0.095,0.586c0,0.115,0.016,0.226,0.034,0.336c-0.122-0.02-0.245-0.038-0.373-0.038
		c-0.445,0-0.856,0.132-1.21,0.349c-0.4-0.269-0.883-0.427-1.402-0.427c-1.031,0-1.914,0.62-2.306,1.505
		c-0.004-0.002-0.009-0.004-0.013-0.006c0.125-0.339,0.203-0.702,0.203-1.085C161.769,89.561,161.505,88.891,161.081,88.354z
		 M146.21,153.972c0.299,0.124,0.624,0.189,0.963,0.208c-0.097,0.27-0.158,0.555-0.158,0.856c0,0.043,0.011,0.083,0.013,0.126
		c-0.165,0.047-0.316,0.122-0.45,0.223c-0.252-0.4-0.587-0.74-0.985-0.995C145.822,154.287,146.031,154.146,146.21,153.972z
		 M158.697,186.187c0-0.485-0.099-0.948-0.272-1.371c0.264,0.108,0.552,0.17,0.855,0.17c0.35,0,0.677-0.086,0.973-0.228
		c0.537-0.09,0.946-0.494,1.045-1.028c0.152-0.305,0.246-0.644,0.246-1.007c0-1.123-0.819-2.049-1.892-2.228
		c0.16-0.384,0.246-0.805,0.259-1.244h1.714c-0.101,0.329-0.171,0.672-0.171,1.034c0,1.966,1.592,3.558,3.557,3.558
		c0.926,0,1.761-0.362,2.394-0.941c0.651,0.932,1.729,1.544,2.951,1.544c0.442,0,0.861-0.091,1.252-0.236
		c0.066,0.122,0.132,0.243,0.212,0.355c-0.372,0.476-0.604,1.067-0.604,1.719c0,0.638,0.221,1.219,0.579,1.689
		c-0.144,0.154-0.274,0.32-0.389,0.5c-0.144-0.644-0.667-1.139-1.322-1.247c0.075-0.236,0.127-0.483,0.127-0.745
		c0-1.362-1.104-2.467-2.467-2.467c-1.104,0-2.028,0.73-2.343,1.731c-1.192,0.39-2.061,1.498-2.061,2.82
		c0,1.398,0.969,2.563,2.269,2.884c-0.205,0.427-0.328,0.898-0.348,1.398c-0.098,0.052-0.198,0.099-0.29,0.158
		c-0.385-0.523-1-0.867-1.699-0.867c-1.168,0-2.115,0.947-2.115,2.115s0.947,2.114,2.115,2.114c0.016,0,0.029-0.004,0.045-0.005
		c0.049,0.634,0.245,1.225,0.574,1.727h-0.818c-0.212-0.123-0.454-0.198-0.716-0.198c-0.086,0-0.169,0.011-0.251,0.025
		c-1.435-2.022-3.571-3.504-6.058-4.099c0.586-0.553,0.956-1.331,0.956-2.2c0-0.776-0.301-1.478-0.781-2.015
		C157.657,189.122,158.697,187.782,158.697,186.187z M140.708,189.649c0.063,0.003,0.123,0.019,0.188,0.019
		c0.239,0,0.472-0.027,0.698-0.07c0.041,0.041,0.089,0.075,0.135,0.111c-0.155,0.134-0.295,0.284-0.407,0.457
		C141.137,189.972,140.933,189.797,140.708,189.649z M187.188,226.224c0.188,0.316,0.436,0.592,0.736,0.8
		c-0.4,0.827-0.736,1.689-0.994,2.587c-0.675-0.213-1.373-0.371-2.084-0.495C185.734,228.247,186.517,227.274,187.188,226.224z
		 M214.065,221.118c0,0.618,0.244,1.177,0.634,1.596c-0.091,0.107-0.175,0.219-0.248,0.34c-0.143-0.153-0.275-0.315-0.423-0.464
		c-0.09-0.224-0.205-0.434-0.343-0.627c0.002-0.027,0.016-0.051,0.016-0.078c0-0.7-0.568-1.268-1.269-1.268
		c-0.199,0-0.382,0.056-0.55,0.138c-0.031-0.007-0.062-0.017-0.093-0.022c-0.121-0.084-0.244-0.165-0.367-0.245
		c0.948-1.079,1.751-2.283,2.389-3.587c0.488,0.938,1.356,1.639,2.409,1.89C215.016,218.889,214.065,219.887,214.065,221.118z
		 M222.873,199.56c0.038-0.13,0.065-0.265,0.065-0.407c0-0.625-0.398-1.153-0.953-1.357c1.048-0.81,2.025-1.705,2.915-2.683
		c0.063,0.352,0.143,0.697,0.229,1.04c-0.985,0.588-1.652,1.653-1.652,2.884c0,0.997,0.44,1.883,1.128,2.499
		c-0.046-0.003-0.091-0.014-0.138-0.014c-0.438,0-0.842,0.13-1.188,0.345c0.218-0.268,0.354-0.604,0.354-0.977
		C223.633,200.322,223.326,199.831,222.873,199.56z M230.515,175.427c-0.063,0.063-0.113,0.135-0.169,0.204
		c-0.11-0.569-0.243-1.131-0.396-1.686c0.054-0.031,0.106-0.063,0.159-0.097C230.109,174.422,230.265,174.953,230.515,175.427z
		 M235.523,161.582c-0.359,0-0.701,0.074-1.019,0.194c-0.08-0.244-0.166-0.484-0.264-0.72c0.056-0.175,0.095-0.354,0.119-0.541
		c0.655-0.301,1.183-0.816,1.51-1.456c0.845-0.678,1.396-1.706,1.396-2.872c0-1.852-1.366-3.372-3.143-3.64
		c0.037-0.105,0.071-0.212,0.1-0.322c1.034-0.153,1.926-0.735,2.477-1.573c0.227,2.637,1.086,5.087,2.42,7.213
		c-1.261,0.563-2.143,1.824-2.143,3.294c0,0.312,0.052,0.608,0.126,0.896C236.647,161.758,236.107,161.582,235.523,161.582z
		 M221.857,64.468c-0.067,0.053-0.14,0.1-0.206,0.154c-0.041-0.13-0.096-0.254-0.141-0.383
		C221.616,64.33,221.731,64.408,221.857,64.468z M116.087,62.873c0.441,0.135,0.898,0.232,1.362,0.308
		c0.121,0.113,0.247,0.221,0.383,0.316h-1.963C115.961,63.298,116.032,63.089,116.087,62.873z M148.276,118.529
		c0.267-0.458,0.43-0.984,0.43-1.552c0-1.603-1.216-2.908-2.771-3.081c0.252-0.271,0.409-0.632,0.409-1.032
		c0-0.237-0.059-0.458-0.155-0.659h6.662c-0.646,0.347-1.092,1.022-1.092,1.807c0,1.137,0.922,2.059,2.059,2.059
		c0.229,0,0.444-0.046,0.649-0.115c-0.025,0.374-0.057,0.747-0.057,1.127c0,2.447,0.556,4.759,1.524,6.84
		c-0.353,0.561-0.564,1.22-0.564,1.931c0,0.178,0.027,0.348,0.053,0.519c-0.308,0.45-0.489,0.993-0.489,1.58
		c0,0.17,0.021,0.335,0.05,0.498c-0.349,0.519-0.553,1.143-0.553,1.814c0,1.798,1.458,3.255,3.256,3.255s3.256-1.457,3.256-3.255
		c0-0.066-0.016-0.127-0.02-0.192c1.749,1.313,3.766,2.28,5.961,2.804c-0.113,0.2-0.184,0.428-0.184,0.674
		c0,0.165,0.034,0.32,0.087,0.466h-1.749c-0.58-0.436-1.294-0.703-2.076-0.703c-0.654,0-1.259,0.191-1.781,0.505
		c-0.324-0.236-0.721-0.38-1.153-0.38c-0.544,0-1.036,0.221-1.393,0.578h-7.592c-0.131-0.129-0.284-0.235-0.446-0.326
		c0.515-0.632,0.836-1.427,0.836-2.305c0-1.354-0.741-2.523-1.831-3.159c0.486-0.559,0.792-1.28,0.792-2.08
		c0-0.305-0.057-0.593-0.137-0.872c0.108,0.02,0.219,0.034,0.333,0.034c1.043,0,1.889-0.845,1.889-1.888
		c0-1.043-0.846-1.889-1.889-1.889c-0.02,0-0.038,0.005-0.058,0.006c0.148-0.288,0.241-0.61,0.241-0.958
		c0-1.156-0.937-2.094-2.094-2.094C148.542,118.488,148.407,118.503,148.276,118.529z M136.432,133.633
		c1.206-0.366,2.089-1.474,2.089-2.799c0-0.17-0.022-0.334-0.05-0.497c1.21-0.092,2.237-0.802,2.774-1.823
		c-0.026,0.136-0.042,0.276-0.042,0.419c0,1.201,0.974,2.174,2.174,2.174c0.121,0,0.237-0.017,0.353-0.036
		c0.08,0.354,0.228,0.682,0.43,0.97c0.132,0.732,0.478,1.388,0.975,1.9c-0.187,0.005-0.365,0.034-0.54,0.078h-1.489
		c-0.356-0.68-1.061-1.15-1.882-1.15c-0.674,0-1.267,0.318-1.658,0.806c-0.057-0.004-0.111-0.017-0.169-0.017
		c-0.446,0-0.859,0.134-1.207,0.361h-1.717C136.463,133.889,136.456,133.758,136.432,133.633z M152.936,179.251
		c0.053,1.885,1.589,3.4,3.487,3.4c0.208,0,0.409-0.026,0.607-0.062c-0.003,0.045-0.014,0.088-0.014,0.133
		c0,0.151,0.017,0.298,0.045,0.441c-0.57-0.375-1.25-0.597-1.983-0.597c-1.989,0-3.601,1.606-3.616,3.591
		c-0.278-0.175-0.605-0.279-0.958-0.279c-1.002,0-1.813,0.812-1.813,1.813s0.812,1.814,1.813,1.814c0.77,0,1.424-0.481,1.688-1.158
		c0.146,0.196,0.313,0.374,0.496,0.536c-1.027,0.485-1.742,1.523-1.742,2.733c0,0.807,0.32,1.535,0.834,2.078
		c-1.454,0.262-2.806,0.815-3.982,1.613c-0.184-0.37-0.557-0.631-0.998-0.631c-0.621,0-1.125,0.505-1.125,1.125
		c0,0.376,0.196,0.692,0.479,0.896c-0.369,0.381-0.707,0.792-1.015,1.226c-0.104,0.05-0.204,0.105-0.302,0.164h-3.009
		c-0.15-0.069-0.309-0.124-0.474-0.161c0.731-0.651,1.201-1.59,1.201-2.646c0-0.604-0.165-1.165-0.431-1.663
		c0.03-0.1,0.07-0.195,0.092-0.299c0.284,0.135,0.598,0.217,0.933,0.217c1.205,0,2.183-0.978,2.183-2.183
		c0-0.921-0.571-1.704-1.377-2.024c0.148-0.235,0.237-0.512,0.237-0.81c0-0.229-0.055-0.444-0.146-0.64
		c0.34-0.559,0.546-1.207,0.546-1.908c0-1.593-1.014-2.938-2.427-3.458c-0.19-0.509-0.498-0.954-0.894-1.312
		c0.362-0.561,0.578-1.226,0.578-1.942c0-0.003-0.001-0.007-0.001-0.01H152.936z M135.317,193.113
		c0.01,0.068,0.012,0.139,0.026,0.206c-0.126,0.038-0.247,0.085-0.362,0.145C135.111,193.364,135.227,193.249,135.317,193.113z
		 M128.736,198.03c0.002,0.02,0.003,0.04,0.006,0.06h-0.078C128.689,198.071,128.711,198.05,128.736,198.03z M220.611,204.908
		c-0.369-1.604-1.798-2.803-3.514-2.803c-0.483,0-0.942,0.099-1.364,0.271c0.083-0.185,0.131-0.388,0.131-0.604
		c0-0.203-0.041-0.397-0.115-0.573c1.51-0.535,2.945-1.226,4.288-2.054c0,0.003-0.001,0.005-0.001,0.007
		c0,0.482,0.238,0.907,0.602,1.171c-0.069,0.176-0.11,0.366-0.11,0.566c0,0.856,0.694,1.553,1.553,1.553
		c0.264,0,0.509-0.072,0.727-0.188c-0.375,0.404-0.609,0.942-0.609,1.538c0,0.4,0.112,0.771,0.294,1.097
		c-0.282-0.123-0.594-0.192-0.922-0.192C221.227,204.696,220.904,204.775,220.611,204.908z M223.584,205.883
		c0.052,0.021,0.109,0.032,0.163,0.05c-0.021,0.044-0.043,0.088-0.063,0.132C223.654,206.002,223.618,205.942,223.584,205.883z"/>
	<path d="M106.785,86.061c-0.86,0-1.637,0.329-2.238,0.853c-0.516-1.09-1.617-1.85-2.903-1.85c-1.778,0-3.219,1.441-3.219,3.219
		c0,1.777,1.441,3.218,3.219,3.218c0.046,0,0.09-0.012,0.136-0.014c0.064,0.008,0.127,0.02,0.194,0.02
		c0.297,0,0.571-0.085,0.811-0.224c0.31-0.118,0.591-0.284,0.846-0.486c0.516,1.234,1.733,2.102,3.154,2.102
		c0.036,0,0.068-0.009,0.104-0.01c0.116,1.532,1.382,2.744,2.945,2.744c1.639,0,2.967-1.329,2.967-2.968
		c0-1.52-1.148-2.759-2.622-2.932c0.006-0.085,0.025-0.166,0.025-0.252C110.204,87.591,108.673,86.061,106.785,86.061z"/>
	<circle cx="41.726" cy="92.591" r="1.602"/>
	<circle cx="45.401" cy="81.423" r="3.457"/>
	<circle cx="65.144" cy="55.687" r="1.879"/>
	<circle cx="71.758" cy="43.477" r="1.982"/>
	<circle cx="83.788" cy="47.426" r="2.916"/>
	<circle cx="103.597" cy="52.999" r="3.417"/>
	<circle cx="131.826" cy="248.454" r="2.307"/>
	<circle cx="13.992" cy="201.774" r="3.501"/>
	<circle cx="19.862" cy="211.161" r="2.623"/>
	<circle cx="24.685" cy="219.836" r="1.291"/>
	<circle cx="63.162" cy="226.149" r="2.752"/>
	<path d="M108.68,225.466c0.413,0.602,1.104,0.997,1.889,0.997c1.266,0,2.292-1.026,2.292-2.291c0-1.267-1.026-2.292-2.292-2.292
		c-0.232,0-0.451,0.045-0.662,0.108c-0.418-0.658-1.149-1.099-1.987-1.099c-1.302,0-2.357,1.055-2.357,2.356
		c0,1.301,1.055,2.356,2.357,2.356C108.188,225.603,108.44,225.549,108.68,225.466z"/>
	<circle cx="109.834" cy="250.675" r="3.614"/>
	<path d="M133.472,241.721c0-0.422-0.119-0.813-0.312-1.157c0.168-0.636,0.266-1.299,0.266-1.987c0-4.289-3.477-7.767-7.767-7.767
		h-25.191c-0.48-1.484-1.857-2.564-3.501-2.564c-1.022,0-1.947,0.415-2.616,1.085c-0.107-0.014-0.212-0.032-0.323-0.032
		c-1.033,0-1.918,0.623-2.308,1.512H79.825c-0.253-1.209-1.324-2.117-2.609-2.117s-2.355,0.908-2.609,2.117h-2.158
		c-2.829,0-5.298,1.518-6.656,3.779c-0.909,0.592-1.512,1.613-1.512,2.778c0,0.577,0.161,1.111,0.419,1.584
		c0.197,4.113,3.585,7.392,7.748,7.392h53.21c2.127,0,4.052-0.856,5.455-2.241C132.418,244.087,133.472,243.027,133.472,241.721z"/>
	<circle cx="41.274" cy="123.974" r="2.552"/>
	<circle cx="62.823" cy="181.517" r="1.948"/>
	<circle cx="64.046" cy="191.864" r="1.159"/>
	<circle cx="81.368" cy="217.863" r="2.763"/>
	<path d="M93.408,223.131c1.114-0.414,1.911-1.479,1.911-2.736c0-1.618-1.311-2.93-2.929-2.93c-1.408,0-2.582,0.994-2.863,2.318
		c-0.777,0.474-1.301,1.321-1.301,2.298c0,1.49,1.207,2.697,2.697,2.697C92.04,224.778,92.999,224.1,93.408,223.131z"/>
	<circle cx="100.619" cy="223.309" r="1.234"/>
	<circle cx="76.041" cy="152.112" r="1.904"/>
	<path d="M91.573,161.884c0,2.008,1.628,3.636,3.636,3.636c2.008,0,3.636-1.628,3.636-3.636c0-0.785-0.255-1.508-0.678-2.103
		c0.332-0.167,0.566-0.471,0.659-0.84c0.086-0.164,0.148-0.343,0.148-0.541c0-0.653-0.529-1.182-1.182-1.182
		c-0.238,0-0.447,0.088-0.632,0.209c-0.439,0.157-0.75,0.543-0.823,1.016c-0.357-0.117-0.731-0.196-1.127-0.196
		c-0.368,0-0.717,0.071-1.052,0.173c0.367-0.185,0.625-0.555,0.625-0.993c0-0.62-0.503-1.123-1.123-1.123
		c-0.62,0-1.123,0.503-1.123,1.123s0.503,1.123,1.123,1.123c0.082,0,0.154-0.03,0.231-0.047
		C92.536,159.032,91.573,160.343,91.573,161.884z"/>
	<circle cx="110.161" cy="172.443" r="2.136"/>
	<circle cx="94.906" cy="193.287" r="1.909"/>
	<circle cx="121.086" cy="187.358" r="1.71"/>
	<circle cx="65.176" cy="126.581" r="2.143"/>
	<circle cx="78.15" cy="117.474" r="3.31"/>
	<circle cx="108.852" cy="125.385" r="3.188"/>
	<circle cx="125.411" cy="153.98" r="2.76"/>
	<path d="M69.152,117.261c0-1.131-0.917-2.048-2.048-2.048c-0.958,0-1.757,0.662-1.98,1.552c-0.317-1.054-1.284-1.826-2.441-1.826
		c-1.415,0-2.561,1.147-2.561,2.561c0,1.415,1.146,2.562,2.561,2.562c1.249,0,2.285-0.894,2.512-2.076
		c0.293,0.772,1.035,1.323,1.909,1.323C68.235,119.309,69.152,118.392,69.152,117.261z"/>
	<circle cx="75.78" cy="128.048" r="1.182"/>
	<circle cx="85.203" cy="115.941" r="1.843"/>
	<path d="M94.478,128.956c1.074,0,1.995-0.634,2.426-1.545c0.029,0.001,0.057,0.009,0.086,0.009c1.743,0,3.156-1.413,3.156-3.156
		c0-1.743-1.413-3.156-3.156-3.156c-0.827,0-1.574,0.325-2.137,0.846c-0.36-0.281-0.808-0.455-1.301-0.455
		c-1.175,0-2.127,0.952-2.127,2.127c0,0.586,0.237,1.117,0.621,1.502c-0.162,0.347-0.26,0.729-0.26,1.137
		C91.787,127.75,92.992,128.956,94.478,128.956z"/>
	<circle cx="104.378" cy="120.377" r="3.275"/>
	<circle cx="126.919" cy="118.602" r="2.018"/>
	<circle cx="76.797" cy="96.957" r="2.305"/>
	<circle cx="94.194" cy="91.564" r="2.415"/>
	<path d="M134.386,90.068c0-0.346-0.089-0.667-0.234-0.956c-0.091-0.326-0.307-0.594-0.606-0.737
		c-0.363-0.281-0.813-0.454-1.307-0.454c-1.186,0-2.147,0.961-2.147,2.147s0.961,2.147,2.147,2.147S134.386,91.254,134.386,90.068z"
		/>
	<path d="M56.708,221.487c0-1.836-1.488-3.323-3.324-3.323s-3.324,1.487-3.324,3.323c0,0.551,0.146,1.062,0.383,1.52
		c-0.316,0.539-0.511,1.159-0.511,1.829c0,2.007,1.627,3.634,3.634,3.634c2.007,0,3.634-1.627,3.634-3.634
		c0-0.811-0.274-1.551-0.723-2.155C56.622,222.31,56.708,221.909,56.708,221.487z"/>
	<circle cx="115.994" cy="151.957" r="1.236"/>
	<path d="M134.004,121.645c0.472,1.079,1.546,1.834,2.799,1.834c1.688,0,3.056-1.368,3.056-3.055c0-1.688-1.368-3.056-3.056-3.056
		c-0.986,0-1.854,0.475-2.413,1.2c-0.649,0.268-1.106,0.905-1.106,1.65C133.283,120.804,133.569,121.319,134.004,121.645z"/>
	<circle cx="121.326" cy="225.971" r="1.883"/>
	<path d="M133.271,223.249c-0.432-0.571-1.11-0.946-1.881-0.946c-1.306,0-2.365,1.06-2.365,2.365c0,0.35,0.081,0.679,0.217,0.978
		c0.09,1.377,1.222,2.468,2.622,2.468c0.381,0,0.741-0.084,1.068-0.229c0.23,0.106,0.485,0.17,0.756,0.17
		c1.001,0,1.812-0.811,1.812-1.812c0-0.774-0.488-1.431-1.171-1.69C134.124,224.01,133.752,223.555,133.271,223.249z"/>
	<circle cx="104.09" cy="160.951" r="1.505"/>
	<circle cx="93.414" cy="182.813" r="1.821"/>
	<circle cx="106.415" cy="157.339" r="1.492"/>
	<circle cx="117.605" cy="126.798" r="1.589"/>
	<circle cx="130.765" cy="115.542" r="1.41"/>
	<circle cx="34.226" cy="188.499" r="1.939"/>
	<circle cx="40.985" cy="185.156" r="1.436"/>
	<path d="M66.773,188.222c0.418,0.933,1.35,1.584,2.438,1.584c0.871,0,1.637-0.423,2.125-1.067c0.371,0.129,0.763,0.214,1.178,0.214
		c1.981,0,3.588-1.605,3.588-3.587s-1.607-3.588-3.588-3.588c-1.67,0-3.063,1.147-3.462,2.692c-1.084,0.065-1.988,0.769-2.346,1.744
		c-0.401-0.833-1.246-1.412-2.231-1.412c-1.372,0-2.484,1.112-2.484,2.484s1.112,2.484,2.484,2.484
		C65.515,189.771,66.403,189.13,66.773,188.222z"/>
	<path d="M76.336,180.44c0,1.406,1.14,2.545,2.546,2.545c0.386,0,0.749-0.093,1.077-0.246c-0.034,0.071-0.062,0.145-0.089,0.22
		c-0.582,0.188-1.005,0.728-1.005,1.371c0,0.8,0.648,1.448,1.447,1.448c0.089,0,0.176-0.011,0.261-0.026
		c0.457,0.41,1.055,0.667,1.717,0.667c1.426,0,2.583-1.157,2.583-2.583c0-1.428-1.157-2.583-2.583-2.583
		c-0.396,0-0.768,0.097-1.104,0.256c0.151-0.325,0.242-0.686,0.242-1.068c0-0.481-0.141-0.926-0.373-1.31
		c1.625-0.278,3.08-1.054,4.192-2.174c0.346,1.037,1.313,1.79,2.466,1.79c1.442,0,2.611-1.169,2.611-2.611
		c0-1.441-1.169-2.61-2.611-2.61c-0.172,0-0.34,0.019-0.502,0.051c0.186-0.666,0.293-1.366,0.293-2.092
		c0-0.402-0.04-0.794-0.099-1.18c0.089-0.286,0.15-0.584,0.15-0.899c0-1.212-0.711-2.249-1.735-2.74
		c-1.423-1.793-3.616-2.946-6.083-2.946h-4.996c-0.58-0.563-1.368-0.914-2.24-0.914s-1.661,0.351-2.241,0.914H40.277
		c1.02-0.635,1.704-1.758,1.704-3.047c0-1.987-1.611-3.599-3.598-3.599c-1.987,0-3.598,1.611-3.598,3.599
		c0,1.289,0.684,2.412,1.704,3.047h-9.961c-4.289,0-7.767,3.477-7.767,7.766c0,4.29,3.478,7.767,7.767,7.767h50.117
		C76.454,179.607,76.336,180.008,76.336,180.44z"/>
	<path d="M91.743,172.441c-0.124,0.365-0.207,0.751-0.207,1.158c0,2.003,1.623,3.626,3.625,3.626c0.632,0,1.217-0.176,1.734-0.46
		c-0.319,0.542-0.515,1.167-0.515,1.842c0,2.02,1.638,3.656,3.658,3.656s3.658-1.637,3.658-3.656c0-2.021-1.638-3.658-3.658-3.658
		c-0.641,0-1.235,0.18-1.759,0.47c0.313-0.537,0.506-1.153,0.506-1.819c0-0.926-0.358-1.763-0.93-2.403
		c0.466-0.335,0.772-0.879,0.772-1.496c0-1.021-0.827-1.847-1.847-1.847c-0.007,0-0.014,0.002-0.021,0.002
		c-0.619-0.636-1.482-1.034-2.44-1.034c-1.884,0-3.41,1.527-3.41,3.41C90.911,171.079,91.231,171.845,91.743,172.441z"/>
	<circle cx="152.902" cy="118.321" r="1.43"/>
	<circle cx="54.268" cy="123.006" r="2.833"/>
	<circle cx="72.766" cy="116.566" r="2.06"/>
	<circle cx="77.671" cy="108.73" r="3.017"/>
	<circle cx="90.75" cy="39.397" r="3.114"/>
	<circle cx="104.061" cy="45.54" r="2.818"/>
	<circle cx="136.036" cy="233.402" r="2.522"/>
	<circle cx="217.188" cy="42.317" r="3.191"/>
	<circle cx="221.193" cy="52.517" r="1.557"/>
	<circle cx="257.611" cy="181.633" r="1.298"/>
	<circle cx="132.236" cy="218.218" r="3.549"/>
	<circle cx="140.796" cy="222.271" r="3.275"/>
	<circle cx="111.881" cy="193.669" r="1.157"/>
	<path d="M123.618,191.845c0.229,0.191,0.513,0.32,0.835,0.32c0.141,0,0.271-0.039,0.398-0.081c0.458,0.364,1.031,0.591,1.663,0.591
		c1.485,0,2.689-1.203,2.689-2.688c0-1.485-1.204-2.689-2.689-2.689c-0.569,0-1.094,0.179-1.529,0.48
		c-0.19-0.055-0.387-0.094-0.594-0.094c-1.19,0-2.154,0.964-2.154,2.154C122.237,190.756,122.812,191.533,123.618,191.845z"/>
	<circle cx="105.815" cy="175.647" r="2.478"/>
	<circle cx="105.705" cy="179.474" r="1.115"/>
	<path d="M120.936,88.922c1.689,0,3.058-1.369,3.058-3.059c0-1.689-1.369-3.058-3.058-3.058c-1.084,0-2.032,0.568-2.575,1.419
		c-0.01,0-0.019-0.006-0.029-0.006c-0.684,0-1.238,0.554-1.238,1.238c0,0.561,0.38,1.016,0.891,1.168
		C118.326,87.944,119.512,88.922,120.936,88.922z"/>
	<circle cx="92.217" cy="86.698" r="1.352"/>
	<circle cx="267.717" cy="116.688" r="3.375"/>
	<circle cx="111.962" cy="187.296" r="3.335"/>
	<circle cx="222.68" cy="240.928" r="2.801"/>
	<path d="M229.577,227.041c-1.487,0-2.762,0.896-3.323,2.178c0.001-0.033,0.01-0.064,0.01-0.098c0-1.419-1.15-2.569-2.569-2.569
		s-2.569,1.15-2.569,2.569s1.15,2.57,2.569,2.57c1.009,0,1.874-0.588,2.294-1.435c-0.016,0.139-0.042,0.273-0.042,0.416
		c0,2.005,1.626,3.631,3.631,3.631s3.631-1.626,3.631-3.631C233.208,228.667,231.582,227.041,229.577,227.041z"/>
	<circle cx="250.321" cy="219.149" r="1.825"/>
	<circle cx="274.144" cy="133.575" r="1.249"/>
	<circle cx="259.123" cy="87.71" r="1.304"/>
	<circle cx="250.971" cy="69.102" r="1.338"/>
	<circle cx="245.639" cy="45.836" r="1.465"/>
	<circle cx="236.286" cy="43.966" r="2.185"/>
	<circle cx="233.493" cy="34.696" r="2.413"/>
	<circle cx="222.986" cy="30.56" r="2.843"/>
	<circle cx="266.988" cy="106.104" r="1.219"/>
	<circle cx="271.957" cy="108.144" r="1.971"/>
</g>
</svg>
