<?xml version="1.0" encoding="utf-8"?>
<!-- Generator: Adobe Illustrator 15.1.0, SVG Export Plug-In . SVG Version: 6.00 Build 0)  -->
<!DOCTYPE svg PUBLIC "-//W3C//DTD SVG 1.0//EN" "http://www.w3.org/TR/2001/REC-SVG-20010904/DTD/svg10.dtd">
<svg version="1.0" id="Layer_1" xmlns:serif="http://www.serif.com/"
	 xmlns="http://www.w3.org/2000/svg" xmlns:xlink="http://www.w3.org/1999/xlink" x="0px" y="0px" width="283.46px"
	 height="283.46px" viewBox="0 0 283.46 283.46" enable-background="new 0 0 283.46 283.46" xml:space="preserve">
<g>
	<path fill="#010001" d="M197.126,166.68h-54.506c-1.151,0-2.085,0.934-2.085,2.085s0.934,2.085,2.085,2.085h54.506
		c1.151,0,2.085-0.934,2.085-2.085S198.278,166.68,197.126,166.68z"/>
	<path fill="#010001" d="M125.767,150.644c0-1.151-0.934-2.085-2.085-2.085H69.175c-1.151,0-2.085,0.934-2.085,2.085
		s0.934,2.085,2.085,2.085h54.507C124.833,152.729,125.767,151.795,125.767,150.644z"/>
	<path fill="#010001" d="M184.801,132.731c0-1.151-0.934-2.085-2.085-2.085h-54.507c-1.151,0-2.085,0.934-2.085,2.085
		s0.934,2.085,2.085,2.085h54.507C183.868,134.816,184.801,133.882,184.801,132.731z"/>
	<path fill="#010001" d="M251.259,130.646h-54.51c-1.151,0-2.085,0.934-2.085,2.085s0.934,2.085,2.085,2.085h54.51
		c1.151,0,2.085-0.934,2.085-2.085S252.411,130.646,251.259,130.646z"/>
	<path fill="#010001" d="M94.482,132.731c0-1.151-0.934-2.085-2.085-2.085H37.888c-1.151,0-2.085,0.934-2.085,2.085
		s0.934,2.085,2.085,2.085h54.509C93.548,134.816,94.482,133.882,94.482,132.731z"/>
	<path fill="#010001" d="M55.802,116.779h54.507c1.151,0,2.085-0.934,2.085-2.085s-0.934-2.085-2.085-2.085H55.802
		c-1.151,0-2.085,0.934-2.085,2.085S54.651,116.779,55.802,116.779z"/>
	<path fill="#010001" d="M146.794,116.779h54.508c1.151,0,2.085-0.934,2.085-2.085s-0.934-2.085-2.085-2.085h-54.508
		c-1.151,0-2.085,0.934-2.085,2.085S145.643,116.779,146.794,116.779z"/>
	<circle fill="#010001" cx="128.209" cy="114.694" r="4.524"/>
	<circle fill="#010001" cx="110.31" cy="132.731" r="4.525"/>
	<circle fill="#010001" cx="142.269" cy="150.643" r="4.524"/>
	<circle fill="#010001" cx="88.758" cy="168.766" r="4.524"/>
	<circle fill="#010001" cx="124.67" cy="168.766" r="4.524"/>
	<circle fill="#010001" cx="214.953" cy="168.766" r="4.524"/>
	<circle fill="#010001" cx="165.275" cy="150.643" r="4.523"/>
	<circle fill="#010001" cx="188.003" cy="150.643" r="4.524"/>
	<circle fill="#010001" cx="219.478" cy="114.694" r="4.524"/>
</g>
</svg>
