<?xml version="1.0" encoding="utf-8"?>
<!-- Generator: Adobe Illustrator 15.1.0, SVG Export Plug-In . SVG Version: 6.00 Build 0)  -->
<!DOCTYPE svg PUBLIC "-//W3C//DTD SVG 1.1//EN" "http://www.w3.org/Graphics/SVG/1.1/DTD/svg11.dtd">
<svg version="1.1" id="Layer_1" xmlns="http://www.w3.org/2000/svg" xmlns:xlink="http://www.w3.org/1999/xlink" x="0px" y="0px"
	 width="283.68px" height="283.92px" viewBox="0 0 283.68 283.92" enable-background="new 0 0 283.68 283.92" xml:space="preserve">
<g>
	<path fill="none" d="M75.717,167.462c0.577-4.202,1.188-9.063,1.826-14.645l-3.352,1.774l0.287,2.557
		C74.905,160.96,75.318,164.385,75.717,167.462z"/>
	<path d="M125.612,198.273c-1.86-4.01-6.616-5.752-10.624-3.891c-4.008,1.859-5.75,6.615-3.891,10.623l27.508,59.298
		c1.354,2.919,4.244,4.636,7.262,4.636c1.127,0,2.272-0.239,3.361-0.745c4.009-1.859,5.75-6.615,3.891-10.623L125.612,198.273z"/>
	<path d="M173.573,78.698c0.829-0.333,1.748-0.692,2.782-1.096c0.166-0.065,0.354-0.137,0.528-0.206l-9.031-19.469
		c-1.859-4.008-6.618-5.75-10.623-3.891c-4.009,1.859-5.75,6.616-3.891,10.624l7.262,15.654
		C166.221,79.615,170.844,79.039,173.573,78.698z"/>
	<path d="M185.908,134.217l-0.003-0.012c-0.09,0.024-0.185,0.042-0.275,0.064l39.129,84.347c1.354,2.919,4.243,4.636,7.262,4.636
		c1.127,0,2.272-0.239,3.361-0.745c4.009-1.859,5.75-6.615,3.891-10.623l-38.066-82.058
		C189.038,133.323,186.21,134.133,185.908,134.217z"/>
	<path d="M160.449,171.677h-0.063c-1.897,0-7.671,0-11.345-11.376c-1.789-5.538-3.148-13.412-4.545-23.438l-6.984,0.447
		l30.119,64.926c1.354,2.919,4.243,4.636,7.262,4.636c1.127,0,2.272-0.239,3.361-0.745c4.009-1.859,5.75-6.615,3.891-10.623
		l-13.308-28.686C166.131,171.022,162.889,171.652,160.449,171.677z"/>
	<path d="M130.454,84.075l-24.826-53.516c-1.86-4.009-6.616-5.75-10.624-3.891c-4.008,1.859-5.75,6.616-3.891,10.624l22.472,48.441
		l7.331-0.469C123.919,84.89,127.136,84.489,130.454,84.075z"/>
	<path d="M58.824,96.505c1.354,2.918,4.244,4.635,7.263,4.635c1.126,0,2.272-0.239,3.361-0.745c4.008-1.859,5.75-6.616,3.891-10.624
		L59.585,60.123c-1.859-4.008-6.615-5.751-10.624-3.891c-4.008,1.859-5.75,6.616-3.891,10.624L58.824,96.505z"/>
	<path d="M232.623,120.797l19.382,41.779c1.354,2.919,4.243,4.636,7.262,4.636c1.127,0,2.272-0.239,3.361-0.745
		c4.009-1.859,5.75-6.615,3.891-10.623l-18.333-39.52C242.505,117.957,237.329,119.445,232.623,120.797z"/>
	<path d="M222.176,60.257l-10.412-22.445c-1.859-4.009-6.619-5.75-10.623-3.891c-4.009,1.859-5.75,6.616-3.891,10.624l9.905,21.353
		C211.725,64.178,216.734,62.297,222.176,60.257z"/>
	<path d="M48.693,198.913c-0.053,0.002-0.107,0.002-0.16,0.002c-7.938,0-9.888-8.665-10.623-11.93
		c-0.625-2.776-1.227-6.347-1.832-10.858c-1.85-0.556-3.613-1.334-5.285-2.271c0.122,0.508,0.294,1.011,0.522,1.502l27.508,59.298
		c1.354,2.919,4.244,4.636,7.263,4.636c1.126,0,2.272-0.239,3.361-0.745c4.008-1.859,5.75-6.615,3.891-10.623l-16.156-34.827
		C55.942,195.675,53.522,198.837,48.693,198.913z"/>
	<path d="M249.534,74.574l-8.797,3.291l-0.075,0.028l-0.074,0.024l-62.474,20.591l-0.485,0.16l-0.512,0.033l-21.383,1.369
		c-21.739,2.71-51.134,6.375-51.134,6.375l-1.518,0.189l-0.743,0.533l-58.623,42.053c0,0,53.205-28.151,62.411-33.023
		c8.461-0.032,73.921-0.284,73.921-0.284l0.774-0.003c0.562-0.156,16.025-4.599,40.405-11.607l38.217-12.595
		c-2.591-6.069-5.634-11.897-9.094-17.439L249.534,74.574z"/>
	<path d="M186.491,129.44l77.456-25.529c-0.893-2.877-1.888-5.709-2.975-8.495l-77.298,25.476c-1.09,0.359-2.222,0.578-3.363,0.651
		l-15.921,1.02l-0.413,3.758c-1.402,12.792-2.654,20.712-3.656,25.612c-1.052-4.765-2.399-12.401-3.991-24.64l-0.544-4.18
		l-31.788,2.035l-0.353,3.833c-1.551,16.838-2.927,27.161-4.022,33.487c-1.948-10.425-3.817-25.993-4.597-32.486l-0.841-7.003
		l-31.491,19.502l-0.232,2.194c-2.819,26.726-5.196,39.818-6.833,46.227c-1.307-5.277-3.086-15.087-5.128-33.308l-0.792-7.07
		l-20.801,12.881l-0.199,2.243c-0.121,1.369-0.241,2.653-0.359,3.857c-0.049-0.414-0.098-0.839-0.147-1.271l-0.455-3.99h-4.016
		c-4.718,0-9.015-2.392-11.495-6.396c-1.898-3.065-2.489-6.687-1.664-10.197c0.825-3.51,2.968-6.488,6.034-8.387l61.197-37.897
		c1.88-1.164,4.039-1.854,6.245-1.995l72.813-4.662l62.474-20.59c2.863-1.072,5.793-2.168,8.798-3.292
		c-1.683-2.51-3.451-4.957-5.301-7.337l-67.695,22.311l-71.663,4.588c-3.677,0.235-7.276,1.385-10.408,3.325L31.87,131.612
		c-5.11,3.164-8.681,8.128-10.057,13.979s-0.391,11.886,2.773,16.995c3.411,5.508,8.883,9.185,15.108,10.3
		c0.708,5.7,1.406,10.048,2.119,13.222c0.694,3.083,1.981,8.808,6.721,8.808c0.025,0,0.05,0,0.075-0.001
		c5.45-0.068,7.039-6.354,8.864-26.229l4.907-3.038c4.068,33.428,7.482,39.349,13.205,39.349h0.027
		c5.308-0.017,7.635-6.186,9.862-16.835c1.869-8.943,3.788-22.51,5.706-40.349l15.766-9.764c1.096,8.799,2.329,17.877,3.625,24.931
		c1.783,9.701,3.59,17.131,9.128,17.131h0.001h0.087c5.254-0.073,6.895-6.479,8.36-14.212c1.369-7.219,2.714-17.797,4.101-32.259
		l15.708-1.006c3.188,23.779,5.713,35.044,12.431,35.044h0.001h0.062c5.469-0.056,8.443-5.271,12.053-36.615l8.384-0.537
		C182.791,130.403,184.677,130.038,186.491,129.44z"/>
</g>
</svg>
