<?xml version="1.0" encoding="utf-8"?>
<!-- Generator: Adobe Illustrator 15.1.0, SVG Export Plug-In . SVG Version: 6.00 Build 0)  -->
<!DOCTYPE svg PUBLIC "-//W3C//DTD SVG 1.1//EN" "http://www.w3.org/Graphics/SVG/1.1/DTD/svg11.dtd">
<svg version="1.1" id="Layer_1" xmlns="http://www.w3.org/2000/svg" xmlns:xlink="http://www.w3.org/1999/xlink" x="0px" y="0px"
	 width="283.465px" height="283.465px" viewBox="0 0 283.465 283.465" enable-background="new 0 0 283.465 283.465"
	 xml:space="preserve">
<path fill-rule="evenodd" clip-rule="evenodd" d="M32.555,158.242c2.645-12.516,10.176-23.233,20.496-30.073
	c7.589-5.025,16.682-7.958,26.46-7.958c3.255,0,5.9-2.639,5.9-5.9c0-26.489,21.504-47.994,47.993-47.994
	c26.483,0,47.988,21.505,47.988,47.994c0,3.261,2.64,5.9,5.9,5.9h24.248c22.968,0,42.19,16.163,46.893,37.731
	c0.691,3.181,3.838,5.197,7.019,4.506c3.192-0.691,5.209-3.837,4.518-7.018c-5.866-26.875-29.813-47.02-58.429-47.02h-18.636
	c-2.962-30.234-28.488-53.894-59.5-53.894c-31.104,0-56.688,23.798-59.535,54.159c-10.038,0.939-19.361,4.368-27.341,9.657
	c-12.85,8.522-22.225,21.879-25.521,37.466c-0.674,3.192,1.366,6.327,4.552,6.995C28.746,163.463,31.88,161.423,32.555,158.242z
	 M35.482,180.772h220.013c3.261,0,5.9-2.65,5.9-5.9c0-3.262-2.64-5.9-5.9-5.9H35.482c-3.256,0-5.9,2.639-5.9,5.9
	C29.582,178.122,32.226,180.772,35.482,180.772z M13.125,204.524h220.013c3.261,0,5.9-2.64,5.9-5.9c0-3.25-2.64-5.9-5.9-5.9H13.125
	c-3.256,0-5.9,2.65-5.9,5.9C7.224,201.885,9.869,204.524,13.125,204.524z M50.602,228h220.013c3.261,0,5.9-2.64,5.9-5.901
	c0-3.261-2.64-5.9-5.9-5.9H50.602c-3.262,0-5.9,2.64-5.9,5.9C44.702,225.36,47.34,228,50.602,228z"/>
</svg>
