<?xml version="1.0" encoding="utf-8"?>
<!-- Generator: Adobe Illustrator 15.1.0, SVG Export Plug-In . SVG Version: 6.00 Build 0)  -->
<!DOCTYPE svg PUBLIC "-//W3C//DTD SVG 1.1//EN" "http://www.w3.org/Graphics/SVG/1.1/DTD/svg11.dtd">
<svg version="1.1" id="Layer_1" xmlns="http://www.w3.org/2000/svg" xmlns:xlink="http://www.w3.org/1999/xlink" x="0px" y="0px"
	 width="283.68px" height="283.92px" viewBox="0 0 283.68 283.92" enable-background="new 0 0 283.68 283.92" xml:space="preserve">
<g>
	<path d="M114.007,61.487c3.186,0,5.778-2.592,5.778-5.778s-2.592-5.778-5.778-5.778s-5.778,2.592-5.778,5.778
		S110.821,61.487,114.007,61.487z M114.007,52.248c1.912,0,3.462,1.55,3.462,3.462c0,1.912-1.55,3.462-3.462,3.462
		s-3.462-1.55-3.462-3.462C110.545,53.797,112.095,52.248,114.007,52.248z"/>
	<path d="M114.007,77.96c-0.64,0-1.158,0.519-1.158,1.158v1.594c0,0.64,0.519,1.158,1.158,1.158s1.158-0.519,1.158-1.158v-1.594
		C115.166,78.479,114.647,77.96,114.007,77.96z"/>
	<path d="M101.299,75.403l-0.797,1.38c-0.32,0.554-0.13,1.262,0.424,1.582c0.183,0.105,0.381,0.155,0.578,0.155
		c0.4,0,0.789-0.208,1.004-0.579l0.797-1.38c0.32-0.554,0.13-1.262-0.424-1.582C102.328,74.662,101.62,74.849,101.299,75.403z"/>
	<path d="M93.153,66.41l-1.38,0.797c-0.554,0.32-0.744,1.028-0.424,1.582c0.214,0.372,0.604,0.579,1.004,0.579
		c0.197,0,0.396-0.05,0.578-0.155l1.38-0.797c0.554-0.32,0.744-1.028,0.424-1.582S93.708,66.093,93.153,66.41z"/>
	<path d="M89,56.864h1.594c0.64,0,1.158-0.519,1.158-1.158s-0.519-1.158-1.158-1.158H89c-0.64,0-1.158,0.519-1.158,1.158
		S88.361,56.864,89,56.864z"/>
	<path d="M91.772,44.206l1.38,0.797c0.183,0.105,0.381,0.155,0.578,0.155c0.4,0,0.789-0.208,1.004-0.579
		c0.32-0.554,0.13-1.262-0.424-1.582l-1.38-0.797c-0.553-0.318-1.261-0.13-1.582,0.424C91.029,43.178,91.219,43.886,91.772,44.206z"
		/>
	<path d="M101.298,36.008c0.215,0.372,0.604,0.579,1.004,0.579c0.197,0,0.396-0.05,0.578-0.155c0.554-0.32,0.744-1.028,0.424-1.582
		l-0.797-1.38c-0.32-0.554-1.029-0.741-1.582-0.424c-0.554,0.32-0.744,1.028-0.424,1.582L101.298,36.008z"/>
	<path d="M114.007,33.451c0.64,0,1.158-0.519,1.158-1.158v-1.594c0-0.64-0.519-1.158-1.158-1.158s-1.158,0.519-1.158,1.158v1.594
		C112.849,32.933,113.368,33.451,114.007,33.451z"/>
	<path d="M125.134,36.433c0.183,0.105,0.381,0.155,0.578,0.155c0.4,0,0.789-0.208,1.004-0.579l0.797-1.38
		c0.32-0.554,0.13-1.262-0.424-1.582c-0.553-0.318-1.261-0.13-1.582,0.424l-0.797,1.38
		C124.391,35.404,124.581,36.113,125.134,36.433z"/>
	<path d="M134.284,45.157c0.197,0,0.396-0.05,0.578-0.155l1.38-0.797c0.554-0.32,0.744-1.028,0.424-1.582
		c-0.319-0.554-1.027-0.741-1.582-0.424l-1.38,0.797c-0.554,0.32-0.744,1.028-0.424,1.582
		C133.495,44.95,133.884,45.157,134.284,45.157z"/>
	<path d="M136.262,55.706c0,0.64,0.519,1.158,1.158,1.158h1.594c0.64,0,1.158-0.519,1.158-1.158s-0.519-1.158-1.158-1.158h-1.594
		C136.78,54.547,136.262,55.066,136.262,55.706z"/>
	<path d="M133.704,68.415l1.38,0.797c0.183,0.105,0.381,0.155,0.578,0.155c0.4,0,0.789-0.208,1.004-0.579
		c0.32-0.554,0.13-1.262-0.424-1.582l-1.38-0.797c-0.552-0.317-1.261-0.13-1.582,0.424C132.96,67.386,133.15,68.095,133.704,68.415z
		"/>
	<path d="M125.135,74.979c-0.554,0.32-0.744,1.028-0.424,1.582l0.797,1.38c0.215,0.372,0.604,0.579,1.004,0.579
		c0.197,0,0.396-0.05,0.578-0.155c0.554-0.32,0.744-1.028,0.424-1.582l-0.797-1.38C126.397,74.849,125.688,74.661,125.135,74.979z"
		/>
	<path d="M115.166,65.436c0-0.64-0.519-1.158-1.158-1.158s-1.158,0.519-1.158,1.158v10.181c0,0.64,0.519,1.158,1.158,1.158
		s1.158-0.519,1.158-1.158V65.436z"/>
	<path d="M96.765,66.82c0.197,0,0.396-0.05,0.578-0.155l8.817-5.09c0.554-0.32,0.744-1.028,0.424-1.582
		c-0.319-0.555-1.028-0.741-1.582-0.424l-8.817,5.09c-0.554,0.32-0.744,1.028-0.424,1.582C95.975,66.613,96.365,66.82,96.765,66.82z
		"/>
	<path d="M96.185,46.753l8.817,5.091c0.183,0.105,0.381,0.155,0.578,0.155c0.4,0,0.79-0.208,1.004-0.579
		c0.32-0.554,0.13-1.262-0.424-1.582l-8.817-5.091c-0.553-0.317-1.262-0.13-1.582,0.424C95.441,45.725,95.631,46.433,96.185,46.753z
		"/>
	<path d="M114.007,47.133c0.64,0,1.158-0.519,1.158-1.158V35.794c0-0.64-0.519-1.158-1.158-1.158s-1.158,0.519-1.158,1.158v10.181
		C112.849,46.615,113.368,47.133,114.007,47.133z"/>
	<path d="M122.435,51.998c0.196,0,0.396-0.05,0.578-0.155l8.817-5.09c0.554-0.32,0.744-1.028,0.424-1.582
		c-0.319-0.554-1.028-0.744-1.582-0.424l-8.817,5.09c-0.554,0.32-0.744,1.028-0.424,1.582
		C121.646,51.791,122.035,51.998,122.435,51.998z"/>
	<path d="M121.854,61.573l8.817,5.091c0.183,0.105,0.381,0.155,0.578,0.155c0.4,0,0.789-0.208,1.004-0.579
		c0.32-0.554,0.13-1.262-0.424-1.582l-8.817-5.091c-0.553-0.318-1.261-0.13-1.582,0.424
		C121.111,60.545,121.301,61.253,121.854,61.573z"/>
	<path d="M165.082,212.648c-4.779,0-8.667,3.889-8.667,8.668c0,4.778,3.888,8.667,8.667,8.667s8.667-3.889,8.667-8.667
		C173.749,216.537,169.861,212.648,165.082,212.648z M165.082,226.51c-2.868,0-5.192-2.326-5.192-5.193
		c0-2.868,2.324-5.193,5.192-5.193s5.193,2.325,5.193,5.193C170.275,224.184,167.95,226.51,165.082,226.51z"/>
	<path d="M165.082,254.692c-0.959,0-1.737,0.778-1.737,1.737v2.391c0,0.959,0.778,1.737,1.737,1.737s1.737-0.778,1.737-1.737v-2.391
		C166.819,255.471,166.041,254.692,165.082,254.692z"/>
	<path d="M148.391,250.219c-0.832-0.479-1.894-0.194-2.373,0.637l-1.194,2.07c-0.479,0.831-0.194,1.894,0.637,2.373
		c0.273,0.157,0.572,0.232,0.866,0.232c0.601,0,1.185-0.312,1.507-0.869l1.194-2.07
		C149.507,251.761,149.222,250.698,148.391,250.219z"/>
	<path d="M133.8,237.367l-2.07,1.195c-0.831,0.479-1.115,1.542-0.636,2.373c0.322,0.557,0.906,0.868,1.506,0.868
		c0.295,0,0.594-0.075,0.867-0.233l2.07-1.195c0.831-0.479,1.115-1.542,0.636-2.373C135.693,237.172,134.63,236.887,133.8,237.367z"
		/>
	<path d="M131.7,221.311c0-0.959-0.777-1.737-1.737-1.737h-2.391c-0.959,0-1.737,0.778-1.737,1.737s0.777,1.737,1.737,1.737h2.391
		C130.923,223.048,131.7,222.27,131.7,221.311z"/>
	<path d="M133.466,201.052c-0.83-0.478-1.893-0.194-2.373,0.637c-0.479,0.831-0.195,1.894,0.636,2.373l2.07,1.194
		c0.273,0.157,0.572,0.232,0.867,0.232c0.6,0,1.184-0.312,1.506-0.869c0.479-0.831,0.195-1.894-0.636-2.373L133.466,201.052z"/>
	<path d="M145.458,187.322c-0.831,0.479-1.116,1.542-0.636,2.372l1.195,2.07c0.321,0.558,0.905,0.869,1.506,0.869
		c0.294,0,0.593-0.075,0.866-0.233c0.831-0.479,1.116-1.542,0.636-2.372l-1.195-2.07
		C147.352,187.128,146.29,186.841,145.458,187.322z"/>
	<path d="M166.819,183.801c0-0.959-0.778-1.737-1.737-1.737s-1.737,0.778-1.737,1.737v2.391c0,0.959,0.778,1.737,1.737,1.737
		s1.737-0.778,1.737-1.737V183.801z"/>
	<path d="M182.332,187.958l-1.195,2.07c-0.48,0.83-0.195,1.893,0.636,2.372c0.273,0.158,0.572,0.233,0.866,0.233
		c0.601,0,1.185-0.312,1.506-0.869l1.195-2.07c0.48-0.83,0.195-1.893-0.636-2.372C183.872,186.841,182.811,187.128,182.332,187.958z
		"/>
	<path d="M195.498,205.487c0.294,0,0.593-0.075,0.866-0.233l2.07-1.195c0.831-0.479,1.116-1.542,0.636-2.372
		c-0.479-0.831-1.539-1.117-2.372-0.636l-2.07,1.195c-0.831,0.479-1.116,1.542-0.636,2.372
		C194.313,205.176,194.897,205.487,195.498,205.487z"/>
	<path d="M202.592,219.573h-2.391c-0.959,0-1.737,0.778-1.737,1.737s0.778,1.737,1.737,1.737h2.391c0.959,0,1.737-0.778,1.737-1.737
		S203.551,219.573,202.592,219.573z"/>
	<path d="M198.436,238.561l-2.07-1.195c-0.831-0.48-1.894-0.194-2.372,0.636c-0.48,0.83-0.195,1.893,0.636,2.372l2.07,1.195
		c0.273,0.158,0.572,0.233,0.866,0.233c0.601,0,1.185-0.312,1.506-0.869C199.552,240.103,199.267,239.04,198.436,238.561z"/>
	<path d="M184.146,250.856c-0.479-0.831-1.54-1.117-2.372-0.636c-0.831,0.479-1.116,1.542-0.636,2.372l1.195,2.07
		c0.321,0.558,0.905,0.869,1.506,0.869c0.294,0,0.593-0.075,0.866-0.233c0.831-0.479,1.116-1.542,0.636-2.372L184.146,250.856z"/>
	<path d="M165.082,234.169c-0.959,0-1.737,0.778-1.737,1.737v15.272c0,0.959,0.778,1.737,1.737,1.737s1.737-0.778,1.737-1.737
		v-15.272C166.819,234.947,166.041,234.169,165.082,234.169z"/>
	<path d="M151.574,227.105l-13.228,7.636c-0.831,0.479-1.115,1.542-0.636,2.372c0.322,0.558,0.906,0.869,1.506,0.869
		c0.295,0,0.593-0.075,0.867-0.233l13.227-7.636c0.831-0.479,1.116-1.542,0.636-2.372
		C153.468,226.91,152.406,226.624,151.574,227.105z"/>
	<path d="M153.311,212.51l-13.227-7.637c-0.831-0.479-1.893-0.196-2.373,0.636c-0.479,0.83-0.195,1.893,0.636,2.372l13.228,7.637
		c0.273,0.158,0.572,0.233,0.866,0.233c0.601,0,1.185-0.312,1.506-0.869C154.427,214.052,154.142,212.989,153.311,212.51z"/>
	<path d="M165.082,189.705c-0.959,0-1.737,0.778-1.737,1.737v15.272c0,0.959,0.778,1.737,1.737,1.737s1.737-0.778,1.737-1.737
		v-15.272C166.819,190.483,166.041,189.705,165.082,189.705z"/>
	<path d="M190.081,204.872l-13.227,7.636c-0.831,0.479-1.116,1.542-0.636,2.372c0.321,0.558,0.905,0.869,1.506,0.869
		c0.294,0,0.593-0.075,0.866-0.233l13.227-7.636c0.831-0.479,1.116-1.542,0.636-2.372
		C191.975,204.677,190.912,204.39,190.081,204.872z"/>
	<path d="M191.817,234.739l-13.227-7.636c-0.832-0.481-1.894-0.194-2.372,0.636c-0.48,0.83-0.195,1.893,0.636,2.372l13.227,7.636
		c0.273,0.158,0.572,0.233,0.866,0.233c0.601,0,1.185-0.312,1.506-0.869C192.934,236.281,192.648,235.219,191.817,234.739z"/>
	<path d="M41.463,105.535c2.073,0,3.759-1.687,3.759-3.76c0-2.073-1.686-3.759-3.759-3.759c-2.073,0-3.759,1.686-3.759,3.759
		C37.704,103.848,39.39,105.535,41.463,105.535z M41.463,99.523c1.244,0,2.253,1.008,2.253,2.252c0,1.245-1.009,2.253-2.253,2.253
		c-1.244,0-2.253-1.008-2.253-2.253C39.209,100.531,40.219,99.523,41.463,99.523z"/>
	<path d="M41.463,116.253c-0.416,0-0.753,0.337-0.753,0.753v1.037c0,0.416,0.337,0.753,0.753,0.753s0.753-0.337,0.753-0.753v-1.037
		C42.216,116.591,41.879,116.253,41.463,116.253z"/>
	<path d="M33.194,114.59l-0.519,0.898c-0.208,0.36-0.085,0.821,0.275,1.029c0.119,0.069,0.248,0.101,0.376,0.101
		c0.26,0,0.513-0.135,0.653-0.376l0.519-0.898c0.208-0.36,0.085-0.821-0.275-1.029C33.864,114.106,33.403,114.229,33.194,114.59z"/>
	<path d="M27.894,108.738l-0.898,0.518c-0.36,0.208-0.484,0.669-0.276,1.029c0.14,0.242,0.393,0.377,0.653,0.377
		c0.128,0,0.257-0.032,0.376-0.101l0.898-0.518c0.36-0.208,0.484-0.669,0.276-1.029C28.715,108.654,28.253,108.53,27.894,108.738z"
		/>
	<path d="M25.192,102.527h1.037c0.416,0,0.753-0.337,0.753-0.753s-0.337-0.753-0.753-0.753h-1.037c-0.416,0-0.753,0.337-0.753,0.753
		S24.776,102.527,25.192,102.527z"/>
	<path d="M26.995,94.29l0.898,0.519c0.119,0.069,0.248,0.101,0.376,0.101c0.26,0,0.513-0.135,0.653-0.376
		c0.208-0.36,0.085-0.821-0.275-1.029l-0.898-0.519c-0.359-0.208-0.821-0.085-1.029,0.275C26.511,93.621,26.634,94.082,26.995,94.29
		z"/>
	<path d="M33.193,88.958c0.14,0.242,0.393,0.377,0.653,0.377c0.128,0,0.257-0.032,0.376-0.101c0.36-0.208,0.484-0.669,0.276-1.029
		l-0.518-0.898c-0.208-0.36-0.669-0.484-1.029-0.276c-0.36,0.208-0.484,0.669-0.276,1.029L33.193,88.958z"/>
	<path d="M41.463,87.293c0.416,0,0.753-0.337,0.753-0.753v-1.037c0-0.416-0.337-0.753-0.753-0.753s-0.753,0.337-0.753,0.753v1.037
		C40.709,86.956,41.047,87.293,41.463,87.293z"/>
	<path d="M48.702,89.232c0.119,0.069,0.248,0.101,0.376,0.101c0.26,0,0.513-0.135,0.653-0.376l0.519-0.898
		c0.208-0.36,0.085-0.821-0.275-1.029c-0.359-0.208-0.821-0.086-1.029,0.275l-0.519,0.898
		C48.218,88.563,48.342,89.024,48.702,89.232z"/>
	<path d="M54.655,94.91c0.128,0,0.257-0.032,0.376-0.101l0.898-0.518c0.36-0.208,0.484-0.669,0.276-1.029
		c-0.208-0.361-0.669-0.484-1.029-0.276l-0.898,0.518c-0.36,0.208-0.484,0.669-0.276,1.029C54.142,94.774,54.395,94.91,54.655,94.91
		z"/>
	<path d="M56.696,101.02c-0.416,0-0.753,0.337-0.753,0.753s0.337,0.753,0.753,0.753h1.037c0.416,0,0.753-0.337,0.753-0.753
		s-0.337-0.753-0.753-0.753H56.696z"/>
	<path d="M54.277,110.042l0.898,0.519c0.119,0.069,0.248,0.101,0.376,0.101c0.26,0,0.513-0.135,0.653-0.376
		c0.208-0.36,0.085-0.821-0.275-1.029l-0.898-0.519c-0.359-0.208-0.821-0.085-1.029,0.275
		C53.793,109.373,53.917,109.834,54.277,110.042z"/>
	<path d="M48.704,114.313c-0.36,0.208-0.484,0.669-0.276,1.029l0.518,0.898c0.14,0.242,0.393,0.377,0.653,0.377
		c0.128,0,0.257-0.032,0.376-0.101c0.36-0.208,0.484-0.669,0.276-1.029l-0.518-0.898C49.525,114.229,49.064,114.105,48.704,114.313z
		"/>
	<path d="M42.216,108.104c0-0.416-0.337-0.753-0.753-0.753s-0.753,0.337-0.753,0.753v6.625c0,0.416,0.337,0.753,0.753,0.753
		s0.753-0.337,0.753-0.753V108.104z"/>
	<path d="M36.632,104.563c-0.208-0.36-0.668-0.485-1.029-0.275l-5.737,3.312c-0.36,0.208-0.484,0.668-0.275,1.029
		c0.139,0.242,0.393,0.376,0.653,0.376c0.128,0,0.258-0.032,0.376-0.101l5.737-3.312C36.717,105.384,36.841,104.923,36.632,104.563z
		"/>
	<path d="M29.866,95.948l5.737,3.312c0.119,0.069,0.249,0.101,0.376,0.101c0.26,0,0.514-0.135,0.653-0.376
		c0.208-0.361,0.085-0.821-0.275-1.029l-5.737-3.312c-0.36-0.209-0.821-0.085-1.029,0.275C29.382,95.28,29.505,95.74,29.866,95.948z
		"/>
	<path d="M41.463,96.196c0.416,0,0.753-0.337,0.753-0.753v-6.625c0-0.416-0.337-0.753-0.753-0.753s-0.753,0.337-0.753,0.753v6.625
		C40.709,95.858,41.047,96.196,41.463,96.196z"/>
	<path d="M46.946,99.361c0.128,0,0.258-0.032,0.376-0.101l5.737-3.312c0.36-0.208,0.484-0.668,0.275-1.029
		c-0.208-0.36-0.67-0.484-1.029-0.275l-5.737,3.312c-0.36,0.208-0.484,0.668-0.275,1.029C46.432,99.226,46.686,99.361,46.946,99.361
		z"/>
	<path d="M46.567,105.591l5.737,3.312c0.119,0.069,0.249,0.101,0.376,0.101c0.26,0,0.514-0.135,0.653-0.376
		c0.208-0.361,0.085-0.821-0.275-1.029l-5.737-3.312c-0.359-0.208-0.822-0.085-1.029,0.275
		C46.083,104.922,46.207,105.383,46.567,105.591z"/>
	<path d="M103.229,192.883c-2.073,0-3.759,1.686-3.759,3.759c0,2.072,1.686,3.76,3.759,3.76c2.073,0,3.759-1.688,3.759-3.76
		C106.988,194.568,105.302,192.883,103.229,192.883z M103.229,198.895c-1.244,0-2.253-1.008-2.253-2.253
		c0-1.244,1.009-2.252,2.253-2.252s2.253,1.008,2.253,2.252C105.482,197.887,104.473,198.895,103.229,198.895z"/>
	<path d="M103.229,211.119c-0.416,0-0.753,0.338-0.753,0.754v1.037c0,0.416,0.337,0.754,0.753,0.754s0.753-0.338,0.753-0.754v-1.037
		C103.982,211.457,103.645,211.119,103.229,211.119z"/>
	<path d="M95.989,209.179c-0.359-0.207-0.821-0.085-1.029,0.275l-0.519,0.898c-0.208,0.36-0.085,0.821,0.275,1.029
		c0.119,0.068,0.249,0.102,0.376,0.102c0.26,0,0.513-0.136,0.653-0.377l0.519-0.898C96.473,209.848,96.35,209.387,95.989,209.179z"
		/>
	<path d="M89.661,203.603l-0.898,0.519c-0.361,0.208-0.484,0.669-0.276,1.029c0.14,0.241,0.393,0.377,0.653,0.377
		c0.128,0,0.257-0.033,0.376-0.102l0.898-0.519c0.361-0.208,0.484-0.669,0.276-1.029C90.481,203.519,90.021,203.396,89.661,203.603z
		"/>
	<path d="M88.75,196.64c0-0.416-0.337-0.754-0.753-0.754h-1.037c-0.416,0-0.753,0.338-0.753,0.754s0.337,0.754,0.753,0.754h1.037
		C88.412,197.394,88.75,197.056,88.75,196.64z"/>
	<path d="M88.762,189.156l0.898,0.519c0.119,0.068,0.249,0.102,0.376,0.102c0.26,0,0.514-0.136,0.653-0.377
		c0.208-0.36,0.085-0.821-0.275-1.029l-0.898-0.519c-0.359-0.208-0.822-0.084-1.029,0.275
		C88.278,188.487,88.402,188.948,88.762,189.156z"/>
	<path d="M95.613,184.201c0.128,0,0.258-0.033,0.376-0.102c0.36-0.208,0.484-0.669,0.275-1.029l-0.519-0.898
		c-0.208-0.36-0.67-0.482-1.029-0.275c-0.36,0.208-0.484,0.669-0.275,1.029l0.519,0.898C95.1,184.065,95.353,184.201,95.613,184.201
		z"/>
	<path d="M103.229,182.16c0.416,0,0.753-0.338,0.753-0.754v-1.037c0-0.416-0.337-0.754-0.753-0.754s-0.753,0.338-0.753,0.754v1.037
		C102.476,181.822,102.813,182.16,103.229,182.16z"/>
	<path d="M110.845,184.201c0.26,0,0.513-0.136,0.653-0.377l0.519-0.898c0.208-0.36,0.085-0.821-0.275-1.029
		c-0.361-0.207-0.821-0.085-1.029,0.275l-0.519,0.898c-0.208,0.36-0.085,0.821,0.275,1.029
		C110.587,184.168,110.717,184.201,110.845,184.201z"/>
	<path d="M116.422,189.776c0.128,0,0.257-0.033,0.376-0.102l0.898-0.519c0.361-0.208,0.484-0.669,0.276-1.029
		c-0.208-0.359-0.669-0.483-1.029-0.275l-0.898,0.519c-0.361,0.208-0.484,0.669-0.276,1.029
		C115.908,189.641,116.162,189.776,116.422,189.776z"/>
	<path d="M119.5,195.885h-1.037c-0.416,0-0.753,0.338-0.753,0.754s0.337,0.754,0.753,0.754h1.037c0.416,0,0.753-0.338,0.753-0.754
		S119.916,195.885,119.5,195.885z"/>
	<path d="M117.696,204.122l-0.898-0.519c-0.36-0.207-0.821-0.084-1.029,0.275c-0.208,0.36-0.085,0.821,0.275,1.029l0.898,0.519
		c0.119,0.068,0.249,0.102,0.376,0.102c0.26,0,0.514-0.136,0.653-0.377C118.18,204.791,118.056,204.33,117.696,204.122z"/>
	<path d="M111.497,209.455c-0.208-0.361-0.668-0.481-1.03-0.275c-0.36,0.208-0.483,0.669-0.275,1.029l0.519,0.897
		c0.14,0.242,0.393,0.377,0.653,0.377c0.128,0,0.258-0.033,0.377-0.102c0.36-0.208,0.483-0.669,0.275-1.029L111.497,209.455z"/>
	<path d="M103.229,202.217c-0.416,0-0.753,0.338-0.753,0.754v6.625c0,0.416,0.337,0.754,0.753,0.754s0.753-0.338,0.753-0.754v-6.625
		C103.982,202.555,103.645,202.217,103.229,202.217z"/>
	<path d="M97.369,199.151l-5.737,3.313c-0.36,0.208-0.484,0.669-0.275,1.029c0.14,0.241,0.393,0.377,0.653,0.377
		c0.128,0,0.258-0.033,0.376-0.102l5.737-3.313c0.36-0.208,0.484-0.669,0.275-1.029S97.729,198.944,97.369,199.151z"/>
	<path d="M98.123,192.821l-5.737-3.313c-0.359-0.207-0.821-0.085-1.029,0.275s-0.085,0.821,0.275,1.029l5.737,3.313
		c0.119,0.068,0.249,0.102,0.376,0.102c0.26,0,0.513-0.136,0.653-0.377C98.607,193.49,98.483,193.029,98.123,192.821z"/>
	<path d="M102.476,190.309c0,0.416,0.337,0.754,0.753,0.754s0.753-0.338,0.753-0.754v-6.625c0-0.416-0.337-0.754-0.753-0.754
		s-0.753,0.338-0.753,0.754V190.309z"/>
	<path d="M114.072,189.508l-5.737,3.313c-0.36,0.208-0.484,0.669-0.275,1.029c0.14,0.241,0.393,0.377,0.653,0.377
		c0.128,0,0.258-0.033,0.376-0.102l5.737-3.313c0.36-0.208,0.484-0.669,0.275-1.029
		C114.894,189.423,114.432,189.301,114.072,189.508z"/>
	<path d="M114.826,202.466l-5.737-3.313c-0.36-0.208-0.821-0.084-1.029,0.275c-0.208,0.36-0.085,0.821,0.275,1.029l5.737,3.313
		c0.119,0.068,0.249,0.102,0.376,0.102c0.26,0,0.513-0.136,0.653-0.377C115.31,203.135,115.186,202.674,114.826,202.466z"/>
	<path d="M224.718,166.129c-2.073,0-3.759,1.686-3.759,3.759s1.686,3.76,3.759,3.76s3.759-1.687,3.759-3.76
		S226.791,166.129,224.718,166.129z M224.718,172.141c-1.244,0-2.253-1.008-2.253-2.253c0-1.244,1.009-2.252,2.253-2.252
		s2.253,1.008,2.253,2.252C226.971,171.133,225.962,172.141,224.718,172.141z"/>
	<path d="M225.472,186.156v-1.037c0-0.416-0.338-0.754-0.754-0.754s-0.754,0.338-0.754,0.754v1.037c0,0.416,0.338,0.754,0.754,0.754
		S225.472,186.572,225.472,186.156z"/>
	<path d="M216.449,182.701l-0.52,0.898c-0.208,0.36-0.085,0.821,0.275,1.029c0.118,0.068,0.248,0.102,0.376,0.102
		c0.261,0,0.514-0.135,0.653-0.377l0.52-0.898c0.208-0.36,0.085-0.821-0.275-1.029C217.119,182.219,216.658,182.34,216.449,182.701z
		"/>
	<path d="M211.149,176.849l-0.898,0.518c-0.36,0.208-0.484,0.669-0.277,1.029c0.14,0.242,0.394,0.378,0.654,0.378
		c0.127,0,0.257-0.033,0.375-0.101l0.898-0.518c0.36-0.208,0.484-0.669,0.277-1.029
		C211.972,176.767,211.511,176.645,211.149,176.849z"/>
	<path d="M210.239,169.886c0-0.416-0.338-0.754-0.754-0.754h-1.037c-0.416,0-0.754,0.338-0.754,0.754s0.338,0.754,0.754,0.754h1.037
		C209.901,170.64,210.239,170.302,210.239,169.886z"/>
	<path d="M211.004,161.098c-0.362-0.208-0.821-0.084-1.029,0.275c-0.208,0.36-0.085,0.821,0.275,1.029l0.898,0.519
		c0.119,0.068,0.248,0.102,0.376,0.102c0.261,0,0.514-0.136,0.653-0.377c0.208-0.36,0.085-0.821-0.275-1.029L211.004,161.098z"/>
	<path d="M216.207,155.142c-0.36,0.208-0.484,0.669-0.277,1.029l0.518,0.898c0.14,0.242,0.394,0.378,0.654,0.378
		c0.127,0,0.257-0.033,0.375-0.101c0.36-0.208,0.484-0.669,0.277-1.029l-0.518-0.898
		C217.029,155.06,216.568,154.937,216.207,155.142z"/>
	<path d="M224.718,155.406c0.416,0,0.754-0.338,0.754-0.754v-1.037c0-0.416-0.338-0.754-0.754-0.754s-0.754,0.338-0.754,0.754v1.037
		C223.964,155.068,224.302,155.406,224.718,155.406z"/>
	<path d="M232.334,157.447c0.261,0,0.514-0.136,0.653-0.377l0.519-0.898c0.208-0.36,0.085-0.821-0.275-1.029
		c-0.361-0.208-0.821-0.084-1.029,0.275l-0.519,0.898c-0.208,0.36-0.085,0.821,0.275,1.029
		C232.077,157.414,232.206,157.447,232.334,157.447z"/>
	<path d="M238.433,161.098l-0.898,0.518c-0.36,0.208-0.484,0.669-0.277,1.029c0.14,0.242,0.394,0.378,0.654,0.378
		c0.127,0,0.257-0.033,0.375-0.101l0.898-0.518c0.36-0.208,0.484-0.669,0.277-1.029
		C239.255,161.016,238.794,160.894,238.433,161.098z"/>
	<path d="M240.988,169.132h-1.037c-0.416,0-0.754,0.338-0.754,0.754s0.338,0.754,0.754,0.754h1.037c0.416,0,0.754-0.338,0.754-0.754
		S241.404,169.132,240.988,169.132z"/>
	<path d="M239.186,177.368l-0.898-0.519c-0.362-0.207-0.821-0.084-1.029,0.275c-0.208,0.36-0.085,0.821,0.275,1.029l0.898,0.519
		c0.119,0.068,0.248,0.102,0.376,0.102c0.261,0,0.514-0.136,0.653-0.377C239.669,178.037,239.546,177.576,239.186,177.368z"/>
	<path d="M233.507,183.6l-0.518-0.898c-0.207-0.359-0.668-0.483-1.029-0.277c-0.36,0.208-0.484,0.669-0.277,1.029l0.518,0.898
		c0.14,0.242,0.394,0.378,0.654,0.378c0.127,0,0.257-0.033,0.375-0.101C233.59,184.421,233.714,183.96,233.507,183.6z"/>
	<path d="M223.964,176.217v6.625c0,0.416,0.338,0.754,0.754,0.754s0.754-0.338,0.754-0.754v-6.625c0-0.416-0.338-0.754-0.754-0.754
		S223.964,175.801,223.964,176.217z"/>
	<path d="M219.888,172.674c-0.208-0.359-0.667-0.483-1.029-0.275l-5.737,3.313c-0.36,0.208-0.483,0.669-0.275,1.029
		c0.14,0.241,0.393,0.377,0.653,0.377c0.128,0,0.257-0.033,0.376-0.102l5.737-3.313
		C219.973,173.495,220.096,173.034,219.888,172.674z"/>
	<path d="M213.12,164.06l5.737,3.313c0.119,0.068,0.248,0.102,0.376,0.102c0.261,0,0.514-0.136,0.653-0.377
		c0.208-0.36,0.085-0.821-0.275-1.029l-5.737-3.313c-0.361-0.207-0.821-0.084-1.029,0.275
		C212.637,163.391,212.76,163.852,213.12,164.06z"/>
	<path d="M223.964,163.555c0,0.416,0.338,0.754,0.754,0.754s0.754-0.338,0.754-0.754v-6.625c0-0.416-0.338-0.754-0.754-0.754
		s-0.754,0.338-0.754,0.754V163.555z"/>
	<path d="M229.549,167.097c0.14,0.241,0.393,0.377,0.653,0.377c0.128,0,0.257-0.033,0.376-0.102l5.737-3.313
		c0.36-0.208,0.483-0.669,0.275-1.029c-0.208-0.359-0.667-0.483-1.029-0.275l-5.737,3.313
		C229.464,166.275,229.341,166.736,229.549,167.097z"/>
	<path d="M235.938,177.118c0.261,0,0.514-0.136,0.653-0.377c0.208-0.36,0.085-0.821-0.275-1.029l-5.737-3.313
		c-0.361-0.208-0.821-0.084-1.029,0.275c-0.208,0.36-0.085,0.821,0.275,1.029l5.737,3.313
		C235.681,177.085,235.81,177.118,235.938,177.118z"/>
	<path d="M190.17,54.022c2.072,0,3.759-1.687,3.759-3.76c0-2.073-1.687-3.759-3.759-3.759c-2.073,0-3.76,1.686-3.76,3.759
		C186.41,52.335,188.097,54.022,190.17,54.022z M190.17,48.01c1.244,0,2.253,1.008,2.253,2.252c0,1.245-1.009,2.253-2.253,2.253
		s-2.253-1.008-2.253-2.253C187.917,49.018,188.926,48.01,190.17,48.01z"/>
	<path d="M190.17,64.74c-0.416,0-0.754,0.337-0.754,0.753v1.037c0,0.416,0.338,0.753,0.754,0.753s0.754-0.337,0.754-0.753v-1.037
		C190.924,65.078,190.586,64.74,190.17,64.74z"/>
	<path d="M181.9,63.076l-0.52,0.898c-0.208,0.36-0.085,0.821,0.275,1.03c0.118,0.069,0.248,0.101,0.376,0.101
		c0.261,0,0.514-0.135,0.653-0.376l0.52-0.898c0.208-0.36,0.085-0.821-0.275-1.03C182.57,62.591,182.108,62.716,181.9,63.076z"/>
	<path d="M176.601,57.224l-0.898,0.519c-0.36,0.208-0.483,0.669-0.275,1.029c0.14,0.242,0.393,0.376,0.653,0.376
		c0.128,0,0.257-0.032,0.376-0.101l0.898-0.519c0.36-0.208,0.483-0.669,0.275-1.029C177.422,57.139,176.963,57.015,176.601,57.224z"
		/>
	<path d="M173.899,51.013h1.037c0.416,0,0.754-0.337,0.754-0.753s-0.338-0.753-0.754-0.753h-1.037c-0.416,0-0.754,0.337-0.754,0.753
		S173.483,51.013,173.899,51.013z"/>
	<path d="M175.702,42.777l0.898,0.519c0.119,0.069,0.248,0.101,0.376,0.101c0.261,0,0.514-0.135,0.653-0.376
		c0.208-0.36,0.085-0.821-0.275-1.029l-0.898-0.519c-0.361-0.209-0.821-0.085-1.029,0.275S175.342,42.569,175.702,42.777z"/>
	<path d="M181.901,37.444c0.14,0.242,0.393,0.376,0.653,0.376c0.128,0,0.257-0.032,0.376-0.101c0.36-0.208,0.483-0.669,0.275-1.029
		l-0.519-0.898c-0.208-0.361-0.668-0.484-1.029-0.275c-0.36,0.208-0.483,0.669-0.275,1.029L181.901,37.444z"/>
	<path d="M190.17,35.78c0.416,0,0.754-0.337,0.754-0.753V33.99c0-0.416-0.338-0.753-0.754-0.753s-0.754,0.337-0.754,0.753v1.037
		C189.416,35.443,189.754,35.78,190.17,35.78z"/>
	<path d="M197.409,37.721c0.118,0.069,0.248,0.101,0.376,0.101c0.261,0,0.514-0.135,0.653-0.376l0.52-0.898
		c0.208-0.36,0.085-0.821-0.275-1.03c-0.359-0.21-0.82-0.085-1.029,0.275l-0.52,0.898C196.926,37.051,197.049,37.512,197.409,37.721
		z"/>
	<path d="M203.363,43.397c0.128,0,0.257-0.032,0.376-0.101l0.898-0.519c0.36-0.208,0.483-0.669,0.275-1.029
		s-0.668-0.484-1.029-0.275l-0.898,0.519c-0.36,0.208-0.483,0.669-0.275,1.029C202.85,43.262,203.103,43.397,203.363,43.397z"/>
	<path d="M204.648,50.261c0,0.416,0.338,0.753,0.754,0.753h1.037c0.416,0,0.754-0.337,0.754-0.753s-0.338-0.753-0.754-0.753h-1.037
		C204.986,49.507,204.648,49.845,204.648,50.261z"/>
	<path d="M202.984,58.53l0.898,0.519c0.119,0.069,0.248,0.101,0.376,0.101c0.261,0,0.514-0.135,0.653-0.376
		c0.208-0.36,0.085-0.821-0.275-1.029l-0.898-0.519c-0.362-0.209-0.821-0.084-1.029,0.275
		C202.501,57.861,202.624,58.322,202.984,58.53z"/>
	<path d="M197.409,62.801c-0.36,0.208-0.483,0.669-0.275,1.029l0.519,0.898c0.14,0.242,0.393,0.376,0.653,0.376
		c0.128,0,0.257-0.032,0.376-0.101c0.36-0.208,0.483-0.669,0.275-1.029l-0.519-0.898C198.23,62.716,197.771,62.591,197.409,62.801z"
		/>
	<path d="M190.924,56.591c0-0.416-0.338-0.753-0.754-0.753s-0.754,0.337-0.754,0.753v6.625c0,0.416,0.338,0.753,0.754,0.753
		s0.754-0.337,0.754-0.753V56.591z"/>
	<path d="M178.95,57.491c0.128,0,0.257-0.032,0.376-0.101l5.737-3.313c0.36-0.208,0.483-0.669,0.275-1.029
		c-0.209-0.36-0.667-0.485-1.029-0.275l-5.737,3.313c-0.36,0.208-0.483,0.669-0.275,1.029
		C178.437,57.356,178.689,57.491,178.95,57.491z"/>
	<path d="M178.573,44.435l5.736,3.312c0.119,0.069,0.248,0.101,0.376,0.101c0.261,0,0.514-0.135,0.653-0.376
		c0.208-0.36,0.085-0.821-0.275-1.029l-5.736-3.312c-0.362-0.209-0.821-0.085-1.029,0.275
		C178.09,43.766,178.213,44.227,178.573,44.435z"/>
	<path d="M190.17,44.683c0.416,0,0.754-0.337,0.754-0.753v-6.625c0-0.416-0.338-0.753-0.754-0.753s-0.754,0.337-0.754,0.753v6.625
		C189.416,44.345,189.754,44.683,190.17,44.683z"/>
	<path d="M195.653,47.848c0.128,0,0.257-0.032,0.376-0.101l5.737-3.313c0.36-0.208,0.483-0.669,0.275-1.029
		s-0.667-0.485-1.029-0.275l-5.737,3.313c-0.36,0.208-0.483,0.669-0.275,1.029C195.14,47.713,195.393,47.848,195.653,47.848z"/>
	<path d="M195.275,54.078l5.736,3.313c0.119,0.069,0.248,0.101,0.376,0.101c0.261,0,0.514-0.135,0.653-0.376
		c0.208-0.36,0.085-0.821-0.275-1.029l-5.736-3.313c-0.361-0.209-0.821-0.085-1.029,0.275S194.915,53.87,195.275,54.078z"/>
	<path d="M251.985,124.284c-1.375,0-2.493,1.119-2.493,2.494s1.118,2.494,2.493,2.494s2.494-1.119,2.494-2.494
		S253.36,124.284,251.985,124.284z M250.491,126.778c0-0.825,0.67-1.494,1.494-1.494c0.825,0,1.495,0.669,1.495,1.494
		c0,0.826-0.67,1.495-1.495,1.495C251.161,128.273,250.491,127.604,250.491,126.778z"/>
	<path d="M251.985,136.383c-0.276,0-0.5,0.224-0.5,0.5v0.688c0,0.276,0.224,0.5,0.5,0.5s0.5-0.224,0.5-0.5v-0.688
		C252.485,136.606,252.262,136.383,251.985,136.383z"/>
	<path d="M247.184,135.096c-0.235-0.139-0.544-0.057-0.683,0.182l-0.345,0.596c-0.139,0.239-0.057,0.545,0.183,0.683
		c0.078,0.046,0.165,0.067,0.25,0.067c0.172,0,0.34-0.089,0.433-0.25l0.345-0.596C247.505,135.54,247.423,135.234,247.184,135.096z"
		/>
	<path d="M242.983,131.397l-0.596,0.344c-0.239,0.138-0.321,0.444-0.183,0.683c0.093,0.161,0.261,0.25,0.433,0.25
		c0.085,0,0.172-0.021,0.25-0.067l0.596-0.344c0.239-0.138,0.321-0.444,0.183-0.683C243.528,131.34,243.22,131.26,242.983,131.397z"
		/>
	<path d="M242.379,126.776c0-0.276-0.224-0.5-0.5-0.5h-0.688c-0.276,0-0.5,0.224-0.5,0.5s0.224,0.5,0.5,0.5h0.688
		C242.155,127.276,242.379,127.053,242.379,126.776z"/>
	<path d="M243.483,121.29l-0.596-0.344c-0.239-0.137-0.544-0.057-0.683,0.183c-0.139,0.239-0.057,0.545,0.183,0.683l0.596,0.344
		c0.079,0.045,0.165,0.067,0.25,0.067c0.172,0,0.34-0.089,0.433-0.25C243.805,121.734,243.723,121.428,243.483,121.29z"/>
	<path d="M246.338,116.995c-0.239,0.138-0.321,0.444-0.184,0.683l0.344,0.596c0.093,0.161,0.261,0.25,0.434,0.25
		c0.085,0,0.171-0.021,0.25-0.067c0.239-0.138,0.321-0.444,0.184-0.683l-0.344-0.596
		C246.883,116.938,246.576,116.856,246.338,116.995z"/>
	<path d="M252.485,115.982c0-0.276-0.224-0.5-0.5-0.5s-0.5,0.224-0.5,0.5v0.688c0,0.276,0.224,0.5,0.5,0.5s0.5-0.224,0.5-0.5
		V115.982z"/>
	<path d="M256.949,117.178l-0.344,0.596c-0.138,0.239-0.056,0.545,0.184,0.683c0.079,0.045,0.165,0.067,0.25,0.067
		c0.173,0,0.341-0.09,0.434-0.25l0.344-0.596c0.138-0.239,0.056-0.545-0.184-0.683C257.393,116.855,257.088,116.938,256.949,117.178
		z"/>
	<path d="M260.738,122.223c0.085,0,0.172-0.021,0.25-0.067l0.596-0.344c0.239-0.138,0.321-0.444,0.183-0.683
		c-0.139-0.239-0.445-0.319-0.683-0.183l-0.596,0.344c-0.239,0.138-0.321,0.444-0.183,0.683
		C260.398,122.133,260.566,122.223,260.738,122.223z"/>
	<path d="M262.779,126.275h-0.688c-0.276,0-0.5,0.224-0.5,0.5s0.224,0.5,0.5,0.5h0.688c0.276,0,0.5-0.224,0.5-0.5
		S263.056,126.275,262.779,126.275z"/>
	<path d="M261.585,131.74l-0.596-0.344c-0.238-0.136-0.544-0.057-0.683,0.183c-0.139,0.239-0.057,0.545,0.183,0.683l0.596,0.344
		c0.079,0.045,0.165,0.067,0.25,0.067c0.172,0,0.34-0.089,0.433-0.25C261.906,132.185,261.824,131.878,261.585,131.74z"/>
	<path d="M257.473,135.279c-0.139-0.24-0.444-0.322-0.684-0.184c-0.239,0.138-0.321,0.444-0.184,0.683l0.344,0.596
		c0.093,0.161,0.261,0.25,0.434,0.25c0.085,0,0.171-0.021,0.25-0.067c0.239-0.138,0.321-0.444,0.184-0.683L257.473,135.279z"/>
	<path d="M251.985,130.477c-0.276,0-0.5,0.224-0.5,0.5v4.395c0,0.276,0.224,0.5,0.5,0.5s0.5-0.224,0.5-0.5v-4.395
		C252.485,130.7,252.262,130.477,251.985,130.477z"/>
	<path d="M248.099,128.444l-3.806,2.197c-0.239,0.138-0.321,0.444-0.183,0.683c0.092,0.161,0.26,0.25,0.433,0.25
		c0.085,0,0.171-0.021,0.25-0.067l3.806-2.197c0.239-0.138,0.321-0.444,0.183-0.683
		C248.645,128.388,248.339,128.308,248.099,128.444z"/>
	<path d="M248.599,124.243l-3.806-2.198c-0.238-0.136-0.545-0.057-0.683,0.183c-0.139,0.239-0.057,0.545,0.183,0.683l3.806,2.198
		c0.079,0.045,0.165,0.067,0.25,0.067c0.172,0,0.341-0.089,0.433-0.25C248.92,124.687,248.838,124.381,248.599,124.243z"/>
	<path d="M251.985,117.681c-0.276,0-0.5,0.224-0.5,0.5v4.395c0,0.276,0.224,0.5,0.5,0.5s0.5-0.224,0.5-0.5v-4.395
		C252.485,117.905,252.262,117.681,251.985,117.681z"/>
	<path d="M255.623,125.176c0.085,0,0.171-0.021,0.25-0.067l3.806-2.197c0.239-0.138,0.321-0.444,0.183-0.683
		c-0.137-0.24-0.443-0.32-0.683-0.183l-3.806,2.197c-0.239,0.138-0.321,0.444-0.183,0.683
		C255.282,125.086,255.451,125.176,255.623,125.176z"/>
	<path d="M259.68,130.641l-3.806-2.198c-0.239-0.137-0.546-0.056-0.683,0.183c-0.139,0.239-0.057,0.545,0.183,0.683l3.806,2.198
		c0.079,0.045,0.165,0.067,0.25,0.067c0.172,0,0.341-0.089,0.433-0.25C260.001,131.085,259.919,130.779,259.68,130.641z"/>
	<path d="M226.971,210.502c-1.375,0-2.494,1.119-2.494,2.494s1.119,2.494,2.494,2.494s2.494-1.119,2.494-2.494
		S228.346,210.502,226.971,210.502z M226.971,214.491c-0.825,0-1.495-0.669-1.495-1.495c0-0.825,0.67-1.494,1.495-1.494
		s1.495,0.669,1.495,1.494C228.466,213.822,227.796,214.491,226.971,214.491z"/>
	<path d="M226.971,222.602c-0.276,0-0.5,0.224-0.5,0.5v0.688c0,0.276,0.224,0.5,0.5,0.5s0.5-0.224,0.5-0.5v-0.688
		C227.471,222.825,227.247,222.602,226.971,222.602z"/>
	<path d="M222.168,221.313c-0.241-0.137-0.546-0.057-0.684,0.184l-0.344,0.597c-0.138,0.239-0.056,0.545,0.184,0.684
		c0.079,0.045,0.165,0.066,0.25,0.066c0.173,0,0.341-0.09,0.434-0.25l0.344-0.597C222.489,221.757,222.407,221.451,222.168,221.313z
		"/>
	<path d="M217.969,217.615l-0.597,0.345c-0.239,0.138-0.321,0.443-0.183,0.683c0.093,0.16,0.261,0.25,0.433,0.25
		c0.085,0,0.171-0.021,0.25-0.067l0.597-0.345c0.239-0.138,0.321-0.443,0.183-0.683
		C218.514,217.559,218.208,217.477,217.969,217.615z"/>
	<path d="M217.364,212.994c0-0.276-0.224-0.5-0.5-0.5h-0.688c-0.276,0-0.5,0.224-0.5,0.5s0.224,0.5,0.5,0.5h0.688
		C217.141,213.494,217.364,213.271,217.364,212.994z"/>
	<path d="M218.469,207.509l-0.597-0.344c-0.24-0.137-0.546-0.056-0.684,0.184s-0.056,0.545,0.184,0.684l0.597,0.344
		c0.079,0.045,0.165,0.066,0.25,0.066c0.173,0,0.341-0.09,0.434-0.25C218.79,207.953,218.708,207.647,218.469,207.509z"/>
	<path d="M221.322,203.214c-0.239,0.138-0.321,0.443-0.183,0.683l0.345,0.597c0.093,0.16,0.261,0.25,0.433,0.25
		c0.085,0,0.171-0.021,0.25-0.067c0.239-0.138,0.321-0.443,0.183-0.683l-0.345-0.597
		C221.867,203.157,221.562,203.076,221.322,203.214z"/>
	<path d="M227.471,202.2c0-0.276-0.224-0.5-0.5-0.5s-0.5,0.224-0.5,0.5v0.688c0,0.276,0.224,0.5,0.5,0.5s0.5-0.224,0.5-0.5V202.2z"
		/>
	<path d="M232.617,203.213c-0.241-0.138-0.546-0.056-0.684,0.184l-0.344,0.597c-0.138,0.239-0.056,0.545,0.184,0.684
		c0.079,0.045,0.165,0.066,0.25,0.066c0.173,0,0.341-0.09,0.434-0.25l0.344-0.597C232.938,203.657,232.856,203.352,232.617,203.213z
		"/>
	<path d="M236.069,207.164l-0.597,0.345c-0.239,0.138-0.321,0.443-0.183,0.683c0.093,0.16,0.261,0.25,0.433,0.25
		c0.085,0,0.171-0.021,0.25-0.067l0.597-0.345c0.239-0.138,0.321-0.443,0.183-0.683S236.309,207.026,236.069,207.164z"/>
	<path d="M237.765,212.495h-0.688c-0.276,0-0.5,0.224-0.5,0.5s0.224,0.5,0.5,0.5h0.688c0.276,0,0.5-0.224,0.5-0.5
		S238.041,212.495,237.765,212.495z"/>
	<path d="M236.569,217.958l-0.597-0.344c-0.24-0.137-0.546-0.057-0.684,0.184c-0.138,0.239-0.056,0.545,0.184,0.684l0.597,0.344
		c0.079,0.045,0.165,0.066,0.25,0.066c0.173,0,0.341-0.09,0.434-0.25C236.891,218.402,236.809,218.097,236.569,217.958z"/>
	<path d="M232.457,221.497c-0.139-0.239-0.443-0.321-0.683-0.183c-0.239,0.138-0.321,0.443-0.183,0.683l0.345,0.597
		c0.093,0.16,0.261,0.25,0.433,0.25c0.085,0,0.171-0.021,0.25-0.067c0.239-0.138,0.321-0.443,0.183-0.683L232.457,221.497z"/>
	<path d="M226.971,216.695c-0.276,0-0.5,0.224-0.5,0.5v4.396c0,0.276,0.224,0.5,0.5,0.5s0.5-0.224,0.5-0.5v-4.396
		C227.471,216.919,227.247,216.695,226.971,216.695z"/>
	<path d="M223.083,214.662l-3.807,2.198c-0.239,0.138-0.321,0.443-0.183,0.683c0.092,0.16,0.261,0.25,0.433,0.25
		c0.085,0,0.171-0.021,0.25-0.067l3.807-2.198c0.239-0.138,0.321-0.443,0.183-0.683
		C223.629,214.605,223.322,214.524,223.083,214.662z"/>
	<path d="M223.583,210.463l-3.807-2.198c-0.238-0.139-0.545-0.056-0.683,0.183c-0.139,0.239-0.057,0.545,0.183,0.683l3.807,2.198
		c0.079,0.046,0.165,0.067,0.25,0.067c0.172,0,0.341-0.09,0.433-0.25C223.904,210.906,223.822,210.601,223.583,210.463z"/>
	<path d="M226.971,203.898c-0.276,0-0.5,0.224-0.5,0.5v4.396c0,0.276,0.224,0.5,0.5,0.5s0.5-0.224,0.5-0.5v-4.396
		C227.471,204.122,227.247,203.898,226.971,203.898z"/>
	<path d="M234.165,208.264l-3.807,2.198c-0.239,0.138-0.321,0.443-0.183,0.683c0.092,0.16,0.261,0.25,0.433,0.25
		c0.085,0,0.171-0.021,0.25-0.067l3.807-2.198c0.239-0.138,0.321-0.443,0.183-0.683
		C234.711,208.207,234.405,208.126,234.165,208.264z"/>
	<path d="M234.665,216.86l-3.807-2.198c-0.238-0.138-0.545-0.057-0.683,0.183c-0.139,0.239-0.057,0.545,0.183,0.683l3.807,2.198
		c0.079,0.046,0.165,0.067,0.25,0.067c0.172,0,0.341-0.09,0.433-0.25C234.986,217.304,234.904,216.998,234.665,216.86z"/>
	<path d="M75.482,231.604c-1.375,0-2.494,1.118-2.494,2.493s1.119,2.494,2.494,2.494s2.494-1.119,2.494-2.494
		S76.857,231.604,75.482,231.604z M75.482,235.593c-0.825,0-1.495-0.669-1.495-1.495c0-0.824,0.67-1.493,1.495-1.493
		c0.825,0,1.495,0.669,1.495,1.493C76.977,234.924,76.307,235.593,75.482,235.593z"/>
	<path d="M75.482,243.703c-0.276,0-0.5,0.224-0.5,0.5v0.687c0,0.276,0.224,0.5,0.5,0.5s0.5-0.224,0.5-0.5v-0.687
		C75.982,243.927,75.758,243.703,75.482,243.703z"/>
	<path d="M70.679,242.417c-0.24-0.141-0.545-0.057-0.683,0.183l-0.344,0.595c-0.139,0.238-0.057,0.544,0.182,0.683
		c0.079,0.046,0.165,0.067,0.25,0.067c0.173,0,0.34-0.09,0.433-0.25l0.344-0.595C71,242.861,70.917,242.556,70.679,242.417z"/>
	<path d="M66.479,238.716l-0.595,0.344c-0.239,0.138-0.321,0.443-0.183,0.683c0.093,0.16,0.261,0.25,0.434,0.25
		c0.085,0,0.171-0.021,0.25-0.067l0.595-0.344c0.239-0.138,0.321-0.443,0.183-0.683C67.023,238.659,66.717,238.576,66.479,238.716z"
		/>
	<path d="M65.875,234.097c0-0.276-0.224-0.5-0.5-0.5h-0.687c-0.276,0-0.5,0.224-0.5,0.5s0.224,0.5,0.5,0.5h0.687
		C65.651,234.597,65.875,234.373,65.875,234.097z"/>
	<path d="M65.883,229.132l0.595,0.344c0.079,0.046,0.165,0.067,0.25,0.067c0.173,0,0.341-0.09,0.434-0.25
		c0.138-0.239,0.056-0.545-0.183-0.683l-0.595-0.344c-0.239-0.141-0.545-0.057-0.683,0.183S65.644,228.994,65.883,229.132z"/>
	<path d="M70.43,225.844c0.085,0,0.171-0.021,0.25-0.067c0.239-0.138,0.321-0.443,0.183-0.683l-0.344-0.595
		c-0.139-0.239-0.445-0.323-0.683-0.183c-0.239,0.138-0.321,0.443-0.183,0.683l0.344,0.595
		C70.089,225.754,70.257,225.844,70.43,225.844z"/>
	<path d="M75.482,224.49c0.276,0,0.5-0.224,0.5-0.5v-0.687c0-0.276-0.224-0.5-0.5-0.5s-0.5,0.224-0.5,0.5v0.687
		C74.982,224.267,75.206,224.49,75.482,224.49z"/>
	<path d="M80.535,225.844c0.173,0,0.34-0.09,0.433-0.25l0.344-0.595c0.139-0.238,0.057-0.544-0.182-0.683
		c-0.241-0.141-0.544-0.057-0.683,0.183l-0.344,0.595c-0.139,0.238-0.057,0.544,0.182,0.683
		C80.364,225.822,80.45,225.844,80.535,225.844z"/>
	<path d="M84.235,229.544c0.085,0,0.171-0.021,0.25-0.067l0.595-0.344c0.239-0.138,0.321-0.443,0.183-0.683
		c-0.139-0.238-0.446-0.322-0.683-0.183l-0.595,0.344c-0.239,0.138-0.321,0.443-0.183,0.683
		C83.894,229.454,84.062,229.544,84.235,229.544z"/>
	<path d="M86.275,233.597h-0.687c-0.276,0-0.5,0.224-0.5,0.5s0.224,0.5,0.5,0.5h0.687c0.276,0,0.5-0.224,0.5-0.5
		S86.551,233.597,86.275,233.597z"/>
	<path d="M85.08,239.062l-0.595-0.344c-0.239-0.14-0.545-0.057-0.683,0.183s-0.056,0.545,0.183,0.683l0.595,0.344
		c0.079,0.046,0.165,0.067,0.25,0.067c0.173,0,0.341-0.09,0.434-0.25C85.401,239.505,85.319,239.199,85.08,239.062z"/>
	<path d="M80.968,242.599c-0.138-0.239-0.445-0.322-0.683-0.183c-0.239,0.138-0.321,0.443-0.183,0.683l0.344,0.596
		c0.093,0.16,0.261,0.25,0.434,0.25c0.085,0,0.171-0.021,0.25-0.067c0.239-0.138,0.321-0.443,0.183-0.683L80.968,242.599z"/>
	<path d="M75.482,237.797c-0.276,0-0.5,0.224-0.5,0.5v4.396c0,0.276,0.224,0.5,0.5,0.5s0.5-0.224,0.5-0.5v-4.396
		C75.982,238.021,75.758,237.797,75.482,237.797z"/>
	<path d="M71.594,235.763l-3.806,2.197c-0.239,0.138-0.321,0.443-0.183,0.683c0.093,0.16,0.261,0.25,0.434,0.25
		c0.085,0,0.171-0.021,0.25-0.067l3.806-2.197c0.239-0.138,0.321-0.443,0.183-0.683C72.139,235.706,71.832,235.622,71.594,235.763z"
		/>
	<path d="M67.604,229.55c-0.138,0.239-0.056,0.545,0.183,0.683l3.806,2.197c0.079,0.046,0.165,0.067,0.25,0.067
		c0.173,0,0.341-0.09,0.434-0.25c0.138-0.239,0.056-0.545-0.183-0.683l-3.806-2.197C68.049,229.228,67.743,229.311,67.604,229.55z"
		/>
	<path d="M74.982,229.896c0,0.276,0.224,0.5,0.5,0.5s0.5-0.224,0.5-0.5v-4.395c0-0.276-0.224-0.5-0.5-0.5s-0.5,0.224-0.5,0.5
		V229.896z"/>
	<path d="M82.676,229.367l-3.806,2.197c-0.239,0.138-0.321,0.443-0.183,0.683c0.093,0.16,0.261,0.25,0.434,0.25
		c0.085,0,0.171-0.021,0.25-0.067l3.806-2.197c0.239-0.138,0.321-0.443,0.183-0.683C83.22,229.311,82.913,229.228,82.676,229.367z"
		/>
	<path d="M83.175,237.961l-3.806-2.196c-0.239-0.14-0.545-0.057-0.683,0.183s-0.056,0.545,0.183,0.683l3.806,2.196
		c0.079,0.046,0.165,0.067,0.25,0.067c0.173,0,0.341-0.09,0.434-0.25C83.497,238.404,83.415,238.099,83.175,237.961z"/>
	<path d="M66.387,66.464c1.375,0,2.494-1.119,2.494-2.494s-1.119-2.494-2.494-2.494s-2.494,1.119-2.494,2.494
		S65.012,66.464,66.387,66.464z M66.387,62.477c0.825,0,1.495,0.669,1.495,1.494c0,0.826-0.67,1.495-1.495,1.495
		c-0.825,0-1.495-0.669-1.495-1.495C64.892,63.146,65.562,62.477,66.387,62.477z"/>
	<path d="M66.387,73.575c-0.276,0-0.5,0.224-0.5,0.5v0.688c0,0.276,0.224,0.5,0.5,0.5s0.5-0.224,0.5-0.5v-0.688
		C66.887,73.798,66.663,73.575,66.387,73.575z"/>
	<path d="M60.901,72.473l-0.344,0.596c-0.138,0.239-0.056,0.545,0.184,0.683c0.079,0.045,0.164,0.067,0.249,0.067
		c0.173,0,0.341-0.09,0.434-0.25l0.344-0.596c0.138-0.239,0.056-0.545-0.184-0.683C61.344,72.151,61.038,72.233,60.901,72.473z"/>
	<path d="M57.385,68.59l-0.596,0.344c-0.239,0.138-0.322,0.444-0.184,0.683c0.092,0.161,0.261,0.25,0.434,0.25
		c0.084,0,0.17-0.021,0.249-0.067l0.596-0.344c0.239-0.138,0.322-0.444,0.184-0.683C57.93,68.535,57.624,68.452,57.385,68.59z"/>
	<path d="M55.593,64.469h0.688c0.276,0,0.5-0.224,0.5-0.5s-0.224-0.5-0.5-0.5h-0.688c-0.276,0-0.5,0.224-0.5,0.5
		S55.316,64.469,55.593,64.469z"/>
	<path d="M56.788,59.005l0.596,0.344c0.079,0.045,0.164,0.067,0.249,0.067c0.173,0,0.341-0.09,0.434-0.25
		c0.138-0.239,0.056-0.545-0.184-0.683l-0.596-0.344c-0.239-0.138-0.545-0.056-0.683,0.184
		C56.466,58.562,56.549,58.868,56.788,59.005z"/>
	<path d="M60.9,55.466c0.093,0.161,0.261,0.25,0.434,0.25c0.085,0,0.171-0.021,0.25-0.067c0.239-0.138,0.321-0.444,0.183-0.683
		l-0.344-0.596c-0.139-0.24-0.445-0.322-0.683-0.183c-0.239,0.138-0.321,0.444-0.183,0.683L60.9,55.466z"/>
	<path d="M66.387,54.363c0.276,0,0.5-0.224,0.5-0.5v-0.688c0-0.276-0.224-0.5-0.5-0.5s-0.5,0.224-0.5,0.5v0.688
		C65.887,54.139,66.11,54.363,66.387,54.363z"/>
	<path d="M71.189,55.649c0.079,0.045,0.165,0.067,0.25,0.067c0.173,0,0.341-0.089,0.434-0.25l0.344-0.596
		c0.138-0.239,0.056-0.545-0.183-0.683c-0.239-0.139-0.545-0.056-0.683,0.183l-0.344,0.596
		C70.868,55.205,70.95,55.511,71.189,55.649z"/>
	<path d="M75.14,59.415c0.085,0,0.171-0.021,0.25-0.067l0.596-0.344c0.239-0.138,0.321-0.444,0.183-0.683
		c-0.139-0.24-0.445-0.321-0.683-0.183l-0.596,0.344c-0.239,0.138-0.321,0.444-0.183,0.683
		C74.799,59.326,74.967,59.415,75.14,59.415z"/>
	<path d="M75.993,63.969c0,0.276,0.224,0.5,0.5,0.5h0.688c0.276,0,0.5-0.224,0.5-0.5s-0.224-0.5-0.5-0.5h-0.688
		C76.216,63.469,75.993,63.692,75.993,63.969z"/>
	<path d="M75.987,68.933l-0.596-0.344c-0.239-0.139-0.545-0.057-0.683,0.183c-0.138,0.239-0.056,0.545,0.183,0.683l0.596,0.344
		c0.079,0.045,0.165,0.067,0.25,0.067c0.173,0,0.341-0.089,0.434-0.25C76.308,69.376,76.226,69.071,75.987,68.933z"/>
	<path d="M71.192,72.288c-0.239,0.138-0.322,0.444-0.184,0.683l0.344,0.596c0.092,0.161,0.261,0.25,0.434,0.25
		c0.084,0,0.17-0.021,0.249-0.067c0.239-0.138,0.322-0.444,0.184-0.683l-0.344-0.596C71.737,72.232,71.432,72.15,71.192,72.288z"/>
	<path d="M66.887,68.169c0-0.276-0.224-0.5-0.5-0.5s-0.5,0.224-0.5,0.5v4.395c0,0.276,0.224,0.5,0.5,0.5s0.5-0.224,0.5-0.5V68.169z"
		/>
	<path d="M58.943,68.768c0.085,0,0.171-0.021,0.25-0.067l3.806-2.197c0.239-0.138,0.321-0.444,0.183-0.683s-0.445-0.322-0.683-0.183
		l-3.806,2.197c-0.239,0.138-0.321,0.444-0.183,0.683C58.603,68.678,58.771,68.768,58.943,68.768z"/>
	<path d="M58.693,60.105l3.806,2.197c0.079,0.045,0.165,0.067,0.25,0.067c0.173,0,0.341-0.09,0.434-0.25
		c0.138-0.239,0.056-0.545-0.183-0.683l-3.806-2.197c-0.239-0.139-0.545-0.056-0.683,0.183S58.454,59.967,58.693,60.105z"/>
	<path d="M66.387,60.269c0.276,0,0.5-0.224,0.5-0.5v-4.395c0-0.276-0.224-0.5-0.5-0.5s-0.5,0.224-0.5,0.5v4.395
		C65.887,60.045,66.11,60.269,66.387,60.269z"/>
	<path d="M70.025,62.368c0.085,0,0.171-0.021,0.25-0.067l3.806-2.197c0.239-0.138,0.321-0.444,0.183-0.683s-0.445-0.322-0.683-0.183
		l-3.806,2.197c-0.239,0.138-0.321,0.444-0.183,0.683C69.684,62.278,69.852,62.368,70.025,62.368z"/>
	<path d="M73.831,68.766c0.173,0,0.341-0.09,0.434-0.25c0.138-0.239,0.056-0.545-0.183-0.683l-3.806-2.197
		c-0.24-0.139-0.545-0.056-0.683,0.183c-0.138,0.239-0.056,0.545,0.183,0.683l3.806,2.197C73.66,68.744,73.746,68.766,73.831,68.766
		z"/>
	<path d="M160.964,73.825c1.375,0,2.493-1.119,2.493-2.494s-1.118-2.494-2.493-2.494s-2.494,1.119-2.494,2.494
		S159.589,73.825,160.964,73.825z M162.459,71.331c0,0.826-0.671,1.495-1.495,1.495c-0.825,0-1.495-0.669-1.495-1.495
		c0-0.825,0.67-1.494,1.495-1.494C161.788,69.837,162.459,70.506,162.459,71.331z"/>
	<path d="M160.964,80.936c-0.276,0-0.5,0.224-0.5,0.5v0.688c0,0.276,0.224,0.5,0.5,0.5s0.5-0.224,0.5-0.5v-0.688
		C161.464,81.159,161.24,80.936,160.964,80.936z"/>
	<path d="M155.477,79.833l-0.344,0.596c-0.138,0.239-0.056,0.545,0.184,0.683c0.079,0.045,0.165,0.067,0.25,0.067
		c0.173,0,0.341-0.09,0.434-0.25l0.344-0.596c0.138-0.239,0.056-0.545-0.184-0.683C155.92,79.511,155.614,79.593,155.477,79.833z"/>
	<path d="M151.961,75.949l-0.596,0.344c-0.239,0.138-0.321,0.444-0.183,0.683c0.092,0.16,0.26,0.25,0.433,0.25
		c0.085,0,0.171-0.021,0.25-0.067l0.596-0.344c0.239-0.138,0.321-0.444,0.183-0.683C152.506,75.892,152.201,75.811,151.961,75.949z"
		/>
	<path d="M150.169,71.829h0.688c0.276,0,0.5-0.224,0.5-0.5s-0.224-0.5-0.5-0.5h-0.688c-0.276,0-0.5,0.224-0.5,0.5
		S149.893,71.829,150.169,71.829z"/>
	<path d="M151.365,66.365l0.596,0.344c0.079,0.045,0.165,0.067,0.25,0.067c0.172,0,0.34-0.089,0.433-0.25
		c0.139-0.239,0.057-0.545-0.183-0.683l-0.596-0.344c-0.238-0.137-0.544-0.057-0.683,0.183
		C151.044,65.921,151.126,66.227,151.365,66.365z"/>
	<path d="M155.477,62.827c0.093,0.161,0.261,0.25,0.434,0.25c0.085,0,0.171-0.021,0.25-0.067c0.239-0.138,0.321-0.444,0.184-0.683
		L156,61.731c-0.139-0.24-0.444-0.322-0.684-0.184c-0.239,0.138-0.321,0.444-0.184,0.683L155.477,62.827z"/>
	<path d="M160.964,61.724c0.276,0,0.5-0.224,0.5-0.5v-0.688c0-0.276-0.224-0.5-0.5-0.5s-0.5,0.224-0.5,0.5v0.688
		C160.464,61.5,160.688,61.724,160.964,61.724z"/>
	<path d="M165.767,63.011c0.079,0.045,0.165,0.067,0.25,0.067c0.173,0,0.341-0.09,0.434-0.25l0.344-0.596
		c0.138-0.239,0.056-0.545-0.184-0.683c-0.24-0.138-0.546-0.056-0.684,0.184l-0.344,0.596
		C165.445,62.567,165.527,62.874,165.767,63.011z"/>
	<path d="M169.716,66.776c0.085,0,0.172-0.021,0.25-0.067l0.596-0.344c0.239-0.138,0.321-0.444,0.183-0.683
		c-0.138-0.24-0.446-0.32-0.683-0.183l-0.596,0.344c-0.239,0.138-0.321,0.444-0.183,0.683
		C169.376,66.687,169.544,66.776,169.716,66.776z"/>
	<path d="M170.569,71.33c0,0.276,0.224,0.5,0.5,0.5h0.688c0.276,0,0.5-0.224,0.5-0.5s-0.224-0.5-0.5-0.5h-0.688
		C170.793,70.83,170.569,71.054,170.569,71.33z"/>
	<path d="M169.465,76.816l0.596,0.344c0.079,0.045,0.165,0.067,0.25,0.067c0.172,0,0.34-0.089,0.433-0.25
		c0.139-0.239,0.057-0.545-0.183-0.683l-0.596-0.344c-0.238-0.137-0.544-0.057-0.683,0.183
		C169.144,76.372,169.226,76.678,169.465,76.816z"/>
	<path d="M165.767,79.649c-0.239,0.138-0.321,0.444-0.184,0.683l0.344,0.596c0.093,0.161,0.261,0.25,0.434,0.25
		c0.085,0,0.171-0.021,0.25-0.067c0.239-0.138,0.321-0.444,0.184-0.683l-0.344-0.596C166.312,79.593,166.006,79.511,165.767,79.649z
		"/>
	<path d="M161.464,75.53c0-0.276-0.224-0.5-0.5-0.5s-0.5,0.224-0.5,0.5v4.395c0,0.276,0.224,0.5,0.5,0.5s0.5-0.224,0.5-0.5V75.53z"
		/>
	<path d="M153.52,76.127c0.085,0,0.171-0.021,0.25-0.067l3.806-2.198c0.239-0.138,0.321-0.444,0.183-0.683
		c-0.138-0.239-0.442-0.32-0.683-0.183l-3.806,2.198c-0.239,0.138-0.321,0.444-0.183,0.683
		C153.18,76.038,153.348,76.127,153.52,76.127z"/>
	<path d="M153.27,67.464l3.806,2.198c0.079,0.045,0.165,0.067,0.25,0.067c0.172,0,0.341-0.089,0.433-0.25
		c0.139-0.239,0.057-0.545-0.183-0.683l-3.806-2.198c-0.238-0.136-0.545-0.056-0.683,0.183
		C152.948,67.021,153.03,67.326,153.27,67.464z"/>
	<path d="M160.964,67.629c0.276,0,0.5-0.224,0.5-0.5v-4.395c0-0.276-0.224-0.5-0.5-0.5s-0.5,0.224-0.5,0.5v4.395
		C160.464,67.406,160.688,67.629,160.964,67.629z"/>
	<path d="M164.602,69.729c0.085,0,0.171-0.021,0.25-0.067l3.806-2.198c0.239-0.138,0.321-0.444,0.183-0.683
		c-0.137-0.24-0.443-0.32-0.683-0.183l-3.806,2.198c-0.239,0.138-0.321,0.444-0.183,0.683
		C164.261,69.64,164.43,69.729,164.602,69.729z"/>
	<path d="M164.351,73.863l3.806,2.198c0.079,0.045,0.165,0.067,0.25,0.067c0.172,0,0.341-0.089,0.433-0.25
		c0.139-0.239,0.057-0.545-0.183-0.683l-3.806-2.198c-0.238-0.136-0.545-0.057-0.683,0.183
		C164.029,73.419,164.111,73.725,164.351,73.863z"/>
	<path d="M132.248,133.639l15.708-1.006c3.188,23.78,5.713,35.044,12.432,35.043h0.062c5.469-0.056,8.443-5.271,12.053-36.615
		l8.384-0.537c1.905-0.122,3.791-0.487,5.605-1.085l77.456-25.529c-0.893-2.877-1.888-5.709-2.975-8.495l-77.298,25.476
		c-1.09,0.359-2.222,0.578-3.363,0.651l-15.921,1.02l-0.413,3.758c-1.402,12.792-2.654,20.712-3.656,25.61
		c-1.052-4.764-2.399-12.4-3.993-24.639l-0.542-4.18l-31.788,2.035l-0.353,3.833c-1.551,16.838-2.927,27.16-4.022,33.487
		c-1.948-10.425-3.817-25.994-4.597-32.486l-0.841-7.003l-31.491,19.502l-0.232,2.194c-2.819,26.726-5.196,39.818-6.833,46.227
		c-1.307-5.277-3.086-15.087-5.128-33.308l-0.792-7.07l-20.801,12.881l-0.199,2.243c-0.121,1.368-0.241,2.653-0.359,3.857
		c-0.049-0.414-0.098-0.839-0.147-1.271l-0.455-3.99h-4.016c-4.718,0-9.015-2.391-11.495-6.396
		c-1.898-3.064-2.489-6.686-1.664-10.196c0.825-3.511,2.968-6.488,6.034-8.387l61.197-37.897c1.88-1.164,4.039-1.854,6.245-1.996
		l72.813-4.661l62.474-20.591c1.041-0.39,2.102-0.786,3.16-1.183c-1.059,0.396-2.119,0.793-3.16,1.183
		c-35.888,13.432-60.208,22.632-60.732,23.1c-0.487,0.061-74.003,9.226-74.003,9.226l-1.519,0.19l-0.743,0.533l-58.623,42.053
		c0,0,53.205-28.152,62.412-33.023c8.46-0.033,73.92-0.284,73.92-0.284l0.773-0.003c0.821-0.228,33.446-9.605,79.235-22.769
		c-3.244-7.863-7.246-15.333-11.923-22.315l0,0c-1.683-2.511-3.451-4.957-5.302-7.336l-67.694,22.311l-71.663,4.588
		c-3.677,0.235-7.276,1.385-10.408,3.325L31.87,131.612c-5.11,3.164-8.681,8.128-10.057,13.979s-0.391,11.886,2.773,16.995
		c3.411,5.508,8.883,9.184,15.108,10.3c0.708,5.7,1.406,10.048,2.119,13.222c0.694,3.083,1.981,8.808,6.721,8.808
		c0.024,0,0.05,0,0.075-0.001c5.45-0.068,7.039-6.354,8.864-26.228l4.907-3.039c4.068,33.428,7.482,39.349,13.205,39.349h0.027
		c5.308-0.018,7.635-6.186,9.862-16.835c1.869-8.943,3.788-22.51,5.706-40.349l15.766-9.763c1.096,8.797,2.329,17.876,3.625,24.93
		c1.783,9.702,3.59,17.132,9.129,17.131h0.087c5.254-0.073,6.895-6.479,8.36-14.212C129.516,158.68,130.86,148.102,132.248,133.639z
		"/>
</g>
</svg>
