<?xml version="1.0" encoding="utf-8"?>
<!-- Generator: Adobe Illustrator 15.1.0, SVG Export Plug-In . SVG Version: 6.00 Build 0)  -->
<!DOCTYPE svg PUBLIC "-//W3C//DTD SVG 1.1//EN" "http://www.w3.org/Graphics/SVG/1.1/DTD/svg11.dtd">
<svg version="1.1" id="Layer_1" xmlns:serif="http://www.serif.com/"
	 xmlns="http://www.w3.org/2000/svg" xmlns:xlink="http://www.w3.org/1999/xlink" x="0px" y="0px" width="283.46px"
	 height="283.46px" viewBox="0 0 283.46 283.46" enable-background="new 0 0 283.46 283.46" xml:space="preserve">
<path d="M53.467,151.641c-0.143,0-0.288-0.015-0.433-0.045c-1.126-0.238-1.847-1.345-1.609-2.471
	c2.338-11.068,9.118-21.021,18.603-27.305c6.57-4.354,14.135-6.819,21.993-7.183c1.069-23.085,20.184-41.539,43.528-41.539
	c23.33,0,42.436,18.429,43.529,41.492h16.63c20.338,0,38.244,14.409,42.576,34.261c0.245,1.125-0.468,2.236-1.593,2.481
	c-1.123,0.242-2.235-0.467-2.481-1.593c-3.917-17.951-20.109-30.98-38.502-30.98h-18.666c-1.151,0-2.085-0.934-2.085-2.085
	c0-21.729-17.679-39.407-39.408-39.407c-21.728,0-39.405,17.678-39.405,39.407c0,1.151-0.934,2.085-2.085,2.085
	c-7.763,0-15.276,2.26-21.727,6.535c-8.58,5.686-14.712,14.685-16.826,24.691C55.297,150.968,54.432,151.641,53.467,151.641z"/>
<g>
	<path fill="#010001" d="M212.335,183.674H42.951c-1.151,0-2.085-0.934-2.085-2.085s0.934-2.085,2.085-2.085h169.384
		c1.151,0,2.085,0.934,2.085,2.085S213.487,183.674,212.335,183.674z"/>
</g>
<g>
	<path fill="#010001" d="M241.185,201.743H71.8c-1.151,0-2.085-0.934-2.085-2.085s0.934-2.085,2.085-2.085h169.385
		c1.151,0,2.085,0.934,2.085,2.085S242.336,201.743,241.185,201.743z"/>
</g>
<g>
	<path fill="#010001" d="M229.548,165.379H60.163c-1.151,0-2.085-0.934-2.085-2.085s0.934-2.085,2.085-2.085h169.385
		c1.151,0,2.085,0.934,2.085,2.085S230.7,165.379,229.548,165.379z"/>
</g>
</svg>
