<?xml version="1.0" encoding="utf-8"?>
<!-- Generator: Adobe Illustrator 15.1.0, SVG Export Plug-In . SVG Version: 6.00 Build 0)  -->
<!DOCTYPE svg PUBLIC "-//W3C//DTD SVG 1.0//EN" "http://www.w3.org/TR/2001/REC-SVG-20010904/DTD/svg10.dtd">
<svg version="1.0" xmlns="http://www.w3.org/2000/svg" xmlns:xlink="http://www.w3.org/1999/xlink" x="0px" y="0px"
	 width="283.465px" height="283.465px" viewBox="0 0 283.465 283.465" enable-background="new 0 0 283.465 283.465"
	 xml:space="preserve">
<g id="Layer_1">
</g>
<g id="Layer_2">
	<g>
		<path d="M209.367,139.408c0-0.538-0.064-1.056-0.184-1.555c-2.572-35.252-32.012-63.09-67.92-63.09
			c-19.136,0-36.441,7.907-48.817,20.638c2.186-8.472,4.876-16.268,7.888-23.381c9.594-22.66,22.377-38.331,32.201-46.534
			c2.33-1.949,4.462-3.445,6.313-4.462c0.998-0.551,2.441-1.057,2.572-1.103c3.637-0.079,6.563-3.058,6.563-6.713
			c0-3.714-3.006-6.72-6.719-6.72c-3.104,0-8.485,1.876-14.732,6.602c-9.128,6.903-21.354,20.14-31.801,39.538
			c-11.897,22.116-21.556,52.329-21.556,90.231c0,37.584,30.508,68.099,68.091,68.099c18.479,0,35.252-7.376,47.524-19.347
			c-1.917,6.654-4.146,12.875-6.589,18.638c-9.595,22.653-22.378,38.337-32.208,46.526c-2.323,1.955-4.463,3.451-6.313,4.463
			c-0.998,0.552-2.43,1.063-2.574,1.103c-3.636,0.093-6.563,3.058-6.563,6.72c0,3.715,3.012,6.721,6.72,6.721
			c3.11,0,8.491-1.877,14.738-6.602c9.122-6.904,21.354-20.146,31.802-39.545c11.063-20.566,20.198-48.142,21.42-82.391
			c0.092-1.45,0.145-2.913,0.145-4.385c0-0.42-0.014-0.833-0.014-1.247C209.354,140.884,209.367,140.15,209.367,139.408z
			 M195.797,146.548c-1.889,28.448-25.605,50.97-54.532,50.97c-30.167,0-54.651-24.49-54.651-54.658
			c0-30.166,24.484-54.656,54.651-54.656c29.779,0,54.02,23.854,54.65,53.477C195.889,143.32,195.863,144.947,195.797,146.548z"/>
	</g>
</g>
</svg>
