<?xml version="1.0" encoding="utf-8"?>
<!-- Generator: Adobe Illustrator 15.1.0, SVG Export Plug-In . SVG Version: 6.00 Build 0)  -->
<!DOCTYPE svg PUBLIC "-//W3C//DTD SVG 1.1//EN" "http://www.w3.org/Graphics/SVG/1.1/DTD/svg11.dtd">
<svg version="1.1" id="Layer_1" xmlns:serif="http://www.serif.com/"
	 xmlns="http://www.w3.org/2000/svg" xmlns:xlink="http://www.w3.org/1999/xlink" x="0px" y="0px" width="283.46px"
	 height="283.46px" viewBox="0 0 283.46 283.46" enable-background="new 0 0 283.46 283.46" xml:space="preserve">
<path d="M105.771,163.756c0,0-9.207,7.198-9.574,16.597c-0.202,5.107,1.807,11.113,9.635,16.828c4.648,3.398,6.232,6.956,5.99,10.32
	c-0.479,6.632-6.453,11.967-6.453,11.967c-2.129,1.964-2.263,5.282-0.3,7.409c1.964,2.127,5.283,2.261,7.41,0.3
	c0,0,9.053-8.528,9.804-18.919c0.447-6.229-1.664-13.262-10.267-19.547c-3.865-2.82-5.438-5.426-5.341-7.946
	c0.196-4.993,5.398-8.626,5.398-8.626c2.313-1.738,2.778-5.029,1.04-7.342C111.375,162.484,108.083,162.018,105.771,163.756z
	 M138.258,163.756c0,0-9.206,7.198-9.576,16.597c-0.202,5.107,1.808,11.113,9.635,16.828c4.65,3.398,6.234,6.956,5.988,10.32
	c-0.477,6.632-6.452,11.967-6.452,11.967c-2.127,1.964-2.26,5.282-0.3,7.409c1.964,2.127,5.283,2.261,7.409,0.3
	c0,0,9.057-8.528,9.804-18.919c0.449-6.229-1.662-13.262-10.266-19.547c-3.863-2.82-5.44-5.426-5.34-7.946
	c0.194-4.993,5.398-8.626,5.398-8.626c2.313-1.738,2.777-5.029,1.04-7.342C143.861,162.484,140.572,162.018,138.258,163.756z
	 M170.872,163.756c0,0-9.207,7.198-9.574,16.597c-0.2,5.107,1.807,11.113,9.635,16.828c4.651,3.398,6.232,6.956,5.989,10.32
	c-0.477,6.632-6.451,11.967-6.451,11.967c-2.131,1.964-2.264,5.282-0.302,7.409c1.965,2.127,5.283,2.261,7.41,0.3
	c0,0,9.055-8.528,9.805-18.919c0.446-6.229-1.665-13.262-10.267-19.547c-3.867-2.82-5.439-5.426-5.342-7.946
	c0.196-4.993,5.398-8.626,5.398-8.626c2.313-1.738,2.778-5.029,1.04-7.342C176.475,162.484,173.184,162.018,170.872,163.756
	L170.872,163.756z M72.833,145.552H45.976c-2.895,0-5.243,2.352-5.243,5.246s2.349,5.243,5.243,5.243h26.857
	c2.895,0,5.243-2.349,5.243-5.243S75.728,145.552,72.833,145.552z M237.482,145.552H210.76c-2.896,0-5.246,2.352-5.246,5.246
	s2.35,5.243,5.246,5.243h26.722c2.894,0,5.245-2.349,5.245-5.243S240.375,145.552,237.482,145.552z M187.277,150.798
	c0-12.579-5.101-23.967-13.343-32.208c-8.239-8.241-19.629-13.34-32.205-13.34s-23.962,5.099-32.206,13.34
	c-8.242,8.242-13.34,19.629-13.34,32.208c0,2.893,2.349,5.243,5.243,5.243c2.894,0,5.244-2.349,5.244-5.243
	c0-9.684,3.923-18.447,10.269-24.791c6.345-6.345,15.11-10.269,24.79-10.269c9.683,0,18.447,3.923,24.791,10.269
	c6.345,6.345,10.27,15.108,10.27,24.791c0,2.893,2.35,5.243,5.241,5.243C184.926,156.041,187.277,153.691,187.277,150.798z
	 M211.578,87.754l-19.166,17.543c-2.137,1.954-2.284,5.273-0.331,7.407c1.956,2.135,5.276,2.283,7.41,0.328l19.167-17.54
	c2.135-1.956,2.283-5.273,0.327-7.409C217.032,85.947,213.712,85.801,211.578,87.754z M65.6,94.017l19.252,17.5
	c2.143,1.946,5.461,1.787,7.406-0.352c1.946-2.142,1.79-5.462-0.352-7.408L72.656,86.254c-2.142-1.946-5.462-1.787-7.407,0.355
	C63.3,88.749,63.459,92.069,65.6,94.017z M136.486,60.142v24.666c0,2.895,2.349,5.246,5.243,5.246s5.245-2.351,5.245-5.246V60.142
	c0-2.895-2.351-5.246-5.245-5.246S136.486,57.247,136.486,60.142z"/>
</svg>
