<?xml version="1.0" encoding="utf-8"?>
<!-- Generator: Adobe Illustrator 15.1.0, SVG Export Plug-In . SVG Version: 6.00 Build 0)  -->
<!DOCTYPE svg PUBLIC "-//W3C//DTD SVG 1.1//EN" "http://www.w3.org/Graphics/SVG/1.1/DTD/svg11.dtd">
<svg version="1.1" id="Layer_1" xmlns="http://www.w3.org/2000/svg" xmlns:xlink="http://www.w3.org/1999/xlink" x="0px" y="0px"
	 width="283.68px" height="283.92px" viewBox="0 0 283.68 283.92" enable-background="new 0 0 283.68 283.92" xml:space="preserve">
<g>
	<path fill-rule="evenodd" clip-rule="evenodd" fill="#010101" d="M37.781,209.033h167.26c3.884,0,7.052-3.152,7.052-7.051
		c0-3.883-3.168-7.053-7.052-7.053H37.781c-3.89,0-7.051,3.17-7.051,7.053C30.73,205.881,33.891,209.033,37.781,209.033z"/>
	<path fill-rule="evenodd" clip-rule="evenodd" fill="#010101" d="M15.918,237.17h167.26c3.891,0,7.051-3.166,7.051-7.051
		c0-3.896-3.16-7.051-7.051-7.051H15.918c-3.891,0-7.051,3.154-7.051,7.051C8.867,234.004,12.027,237.17,15.918,237.17z"/>
	<path fill-rule="evenodd" clip-rule="evenodd" fill="#010101" d="M78.162,265.211h167.26c3.884,0,7.052-3.152,7.052-7.051
		c0-3.883-3.168-7.051-7.052-7.051H78.162c-3.891,0-7.051,3.168-7.051,7.051C71.111,262.059,74.271,265.211,78.162,265.211z"/>
	<g>
		<path fill-rule="evenodd" clip-rule="evenodd" fill="#010101" d="M63.466,122.991h167.259c3.885,0,7.052-3.153,7.052-7.05
			c0-3.884-3.167-7.052-7.052-7.052H63.466c-3.891,0-7.051,3.168-7.051,7.052C56.415,119.838,59.575,122.991,63.466,122.991z"/>
		<path fill-rule="evenodd" clip-rule="evenodd" fill="#010101" d="M41.602,151.129h167.26c3.89,0,7.051-3.168,7.051-7.051
			c0-3.898-3.161-7.052-7.051-7.052H41.602c-3.891,0-7.051,3.154-7.051,7.052C34.551,147.961,37.711,151.129,41.602,151.129z"/>
		<path fill-rule="evenodd" clip-rule="evenodd" fill="#010101" d="M103.846,179.17h167.26c3.884,0,7.052-3.152,7.052-7.051
			c0-3.885-3.168-7.053-7.052-7.053h-167.26c-3.89,0-7.051,3.168-7.051,7.053C96.795,176.018,99.956,179.17,103.846,179.17z"/>
	</g>
	<g>
		<path fill-rule="evenodd" clip-rule="evenodd" fill="#010101" d="M63.466,36.949h167.259c3.885,0,7.052-3.153,7.052-7.051
			c0-3.884-3.167-7.052-7.052-7.052H63.466c-3.891,0-7.051,3.168-7.051,7.052C56.415,33.796,59.575,36.949,63.466,36.949z"/>
		<path fill-rule="evenodd" clip-rule="evenodd" fill="#010101" d="M41.602,65.086h167.26c3.89,0,7.051-3.167,7.051-7.051
			c0-3.897-3.161-7.052-7.051-7.052H41.602c-3.891,0-7.051,3.154-7.051,7.052C34.551,61.92,37.711,65.086,41.602,65.086z"/>
		<path fill-rule="evenodd" clip-rule="evenodd" fill="#010101" d="M103.846,93.127h167.26c3.884,0,7.052-3.152,7.052-7.05
			c0-3.884-3.168-7.052-7.052-7.052h-167.26c-3.89,0-7.051,3.168-7.051,7.052C96.795,89.975,99.956,93.127,103.846,93.127z"/>
	</g>
</g>
</svg>
