<?xml version="1.0" encoding="utf-8"?>
<!-- Generator: Adobe Illustrator 15.1.0, SVG Export Plug-In . SVG Version: 6.00 Build 0)  -->
<!DOCTYPE svg PUBLIC "-//W3C//DTD SVG 1.1//EN" "http://www.w3.org/Graphics/SVG/1.1/DTD/svg11.dtd">
<svg version="1.1" id="Layer_1" xmlns="http://www.w3.org/2000/svg" xmlns:xlink="http://www.w3.org/1999/xlink" x="0px" y="0px"
	 width="283.465px" height="283.465px" viewBox="0 0 283.465 283.465" enable-background="new 0 0 283.465 283.465"
	 xml:space="preserve">
<g>
	<g>
		<path d="M202.777,58.667h-17.232c-2.739-27.966-26.346-49.84-55.025-49.84c-28.76,0-52.424,22.002-55.051,50.08
			c-28.078,2.632-50.085,26.292-50.085,55.051c0,30.524,24.779,55.303,55.297,55.303h122.097c30.524,0,55.304-24.779,55.304-55.303
			C258.081,83.441,233.302,58.667,202.777,58.667z"/>
	</g>
	<g>
		<path fill-rule="evenodd" clip-rule="evenodd" d="M181.004,201.755c-3.433,0-6.217-2.784-6.217-6.215
			c0-3.433,2.784-6.217,6.217-6.217c3.419,0,6.215,2.784,6.215,6.217C187.219,198.971,184.423,201.755,181.004,201.755z"/>
		<path fill-rule="evenodd" clip-rule="evenodd" d="M140.693,214.528l12.969-26.633c1.514-3.115,0.219-6.852-2.882-8.365
			c-3.102-1.515-6.851-0.221-8.365,2.881l-12.963,26.646c-1.508,3.102-0.213,6.838,2.888,8.352
			C135.442,218.924,139.191,217.63,140.693,214.528z"/>
		<path fill-rule="evenodd" clip-rule="evenodd" d="M127.364,221.306c3.425,0,6.216,2.785,6.216,6.216
			c0,3.419-2.791,6.215-6.216,6.215c-3.432,0-6.216-2.796-6.216-6.215C121.148,224.091,123.933,221.306,127.364,221.306z"/>
		<path fill-rule="evenodd" clip-rule="evenodd" d="M111.453,274.609l14.159-29.1c1.508-3.103,0.22-6.838-2.882-8.354
			c-3.108-1.514-6.851-0.219-8.359,2.884l-14.159,29.088c-1.514,3.102-0.22,6.85,2.882,8.363
			C106.196,278.993,109.944,277.711,111.453,274.609z"/>
		<path fill-rule="evenodd" clip-rule="evenodd" d="M167.401,239.274l12.968-26.632c1.515-3.115,0.22-6.852-2.881-8.365
			c-3.102-1.515-6.852-0.221-8.365,2.881l-12.963,26.646c-1.508,3.103-0.213,6.838,2.889,8.353
			C162.15,243.67,165.899,242.377,167.401,239.274z"/>
		<path fill-rule="evenodd" clip-rule="evenodd" d="M155.285,257.321c-3.432,0-6.216-2.785-6.216-6.216
			c0-3.433,2.784-6.217,6.216-6.217c3.419,0,6.216,2.784,6.216,6.217C161.501,254.536,158.704,257.321,155.285,257.321z"/>
		<path fill-rule="evenodd" clip-rule="evenodd" d="M105.208,187.225c-3.432,0-6.216-2.784-6.216-6.215
			c0-3.433,2.785-6.218,6.216-6.218c3.419,0,6.215,2.785,6.215,6.218C111.423,184.44,108.626,187.225,105.208,187.225z"/>
		<path fill-rule="evenodd" clip-rule="evenodd" d="M79.489,242.79c-3.431,0-6.216-2.784-6.216-6.215
			c0-3.433,2.785-6.217,6.216-6.217c3.419,0,6.215,2.784,6.215,6.217C85.705,240.006,82.908,242.79,79.489,242.79z"/>
		<path fill-rule="evenodd" clip-rule="evenodd" d="M91.605,224.744l12.969-26.632c1.514-3.115,0.219-6.852-2.881-8.366
			c-3.102-1.514-6.852-0.22-8.365,2.882l-12.963,26.646c-1.508,3.102-0.213,6.838,2.888,8.353
			C86.354,229.14,90.103,227.846,91.605,224.744z"/>
	</g>
</g>
</svg>
