<?xml version="1.0" encoding="utf-8"?>
<!-- Generator: Adobe Illustrator 15.1.0, SVG Export Plug-In . SVG Version: 6.00 Build 0)  -->
<!DOCTYPE svg PUBLIC "-//W3C//DTD SVG 1.1//EN" "http://www.w3.org/Graphics/SVG/1.1/DTD/svg11.dtd">
<svg version="1.1" id="Layer_1" xmlns="http://www.w3.org/2000/svg" xmlns:xlink="http://www.w3.org/1999/xlink" x="0px" y="0px"
	 width="283.465px" height="283.465px" viewBox="0 0 283.465 283.465" enable-background="new 0 0 283.465 283.465"
	 xml:space="preserve">
<path fill-rule="evenodd" clip-rule="evenodd" d="M100.328,174.725c3.918,0,6.71-0.83,8.384-2.504
	c1.667-1.673,2.503-4.354,2.503-8.043v-13.997c0-3.925-0.807-6.65-2.415-8.206c-1.614-1.563-4.436-2.34-8.473-2.34
	c-3.807,0-6.569,0.866-8.294,2.592c-1.733,1.733-2.592,4.385-2.592,7.954v13.997c0,3.57,0.859,6.222,2.592,7.954
	C93.759,173.865,96.521,174.725,100.328,174.725z M100.328,190.114c-8.872,0-15.701-2.222-20.485-6.665
	c-4.784-4.43-7.169-10.739-7.169-18.916V149.84c0-8.302,2.303-14.642,6.91-19.019c4.614-4.384,11.524-6.569,20.744-6.569
	c9.221,0,16.13,2.185,20.745,6.569c4.606,4.377,6.91,10.717,6.91,19.019v14.693c0,8.177-2.392,14.486-7.169,18.916
	C116.029,187.893,109.201,190.114,100.328,190.114z M183.994,218.806c3.911,0,6.71-0.845,8.384-2.504
	c1.674-1.674,2.504-4.354,2.504-8.043v-13.997c0-3.926-0.815-6.666-2.415-8.221c-1.614-1.556-4.443-2.325-8.473-2.325
	c-3.807,0-6.576,0.858-8.31,2.592c-1.718,1.732-2.592,4.369-2.592,7.954v13.997c0,3.57,0.874,6.222,2.592,7.954
	C177.418,217.932,180.188,218.806,183.994,218.806z M156.844,124.252h17.642l-47.362,108.892H109.49L156.844,124.252z
	 M183.994,234.18c-8.872,0-15.7-2.206-20.484-6.65c-4.785-4.429-7.17-10.738-7.17-18.93v-14.693c0-8.295,2.296-14.635,6.903-19.004
	c4.606-4.385,11.523-6.577,20.751-6.577c9.214,0,16.131,2.192,20.737,6.577c4.606,4.369,6.917,10.709,6.917,19.004V208.6
	c0,8.191-2.399,14.501-7.169,18.93C199.695,231.974,192.867,234.18,183.994,234.18z M142.165,7.088
	c0,0-93.538,123.029-93.538,175.753c0,51.62,41.911,93.538,93.538,93.538c51.62,0,93.523-41.918,93.523-93.538
	C235.688,130.118,142.165,7.088,142.165,7.088z"/>
</svg>
