<?xml version="1.0" encoding="utf-8"?>
<!-- Generator: Adobe Illustrator 15.1.0, SVG Export Plug-In . SVG Version: 6.00 Build 0)  -->
<!DOCTYPE svg PUBLIC "-//W3C//DTD SVG 1.1//EN" "http://www.w3.org/Graphics/SVG/1.1/DTD/svg11.dtd">
<svg version="1.1" id="Layer_1" xmlns="http://www.w3.org/2000/svg" xmlns:xlink="http://www.w3.org/1999/xlink" x="0px" y="0px"
	 width="283.68px" height="283.92px" viewBox="0 0 283.68 283.92" enable-background="new 0 0 283.68 283.92" xml:space="preserve">
<g>
	<path d="M138.995,95.461c7.149,4.781,14.845,9.929,21.055,14.084c-9.822,6.794-23.188,16.054-31.661,21.904l-43.169-9.929
		l-2.621-0.603l-1.572,1.45l-22.845,21.046l-2.6,2.396c1.122,0.774,12.149,8.524,16.622,11.656l-19.142,14.272l22.68-13.002
		l1.799-1.03l-1.684-1.511l-11.631-10.443l20.417-14.708l37.761,13.623c1.594,5.706,5.418,19.402,6.104,21.855l3.729,1.242
		l40.768,13.56l-8.842,6.985l-6.066,4.794c3.274,2.161,15.436,10.209,22.84,15.105l-14.665,12.873l-30.695,11.279l-2.544,0.934
		l1.602,1.93l16.039,19.305l-4.004,14.078l5.172-14.033l0.094-0.252l-0.18-0.266l-12.644-18.762l30.275-7.172l0.612-0.146
		l0.738-0.579c3.24-2.524,22.338-17.585,25.123-19.742c-2.121-1.628-12.244-9.396-19.16-14.703
		c7.469-5.135,17.85-12.271,22.337-15.357c-6.092-2.435-43.099-17.248-57.164-22.875L140.112,145l43.447-27.13l12.514-7.813
		l-12.281-8.915l-27.066-19.647c-0.26-0.068-0.524-0.123-0.781-0.199C151.788,87.474,145.923,92.426,138.995,95.461z"/>
	<path d="M142.041,14.121c-1.499,0-2.99,0.034-4.477,0.085c-0.474,0.501-0.935,1.015-1.381,1.541
		c-0.34-0.493-0.699-0.973-1.069-1.439C93.243,16.532,56.729,38.934,35.107,71.968c0.615,0.02,1.235,0.024,1.86-0.004
		c2.709-0.123,5.286-0.706,7.667-1.663c7.625,9.377,19.439,15.146,32.439,14.555c4.838-0.22,9.43-1.306,13.64-3.093
		c7.481,10.785,20.164,17.608,34.244,16.968c4.992-0.227,9.72-1.378,14.038-3.27c6.928-3.035,12.793-7.987,16.949-14.165
		c0.257,0.077,0.521,0.131,0.781,0.199c2.231,0.586,4.579,0.871,7.006,0.761c2.932-0.133,5.71-0.805,8.251-1.907
		c3.414-0.494,6.677-1.421,9.737-2.723c7.48,10.785,20.16,17.61,34.239,16.971c13-0.591,24.242-7.407,30.987-17.436
		c1.83,0.549,3.751,0.879,5.732,0.962C230.635,39.885,189.348,14.138,142.041,14.121z"/>
</g>
</svg>
