<?xml version="1.0" encoding="utf-8"?>
<!-- Generator: Adobe Illustrator 15.1.0, SVG Export Plug-In . SVG Version: 6.00 Build 0)  -->
<!DOCTYPE svg PUBLIC "-//W3C//DTD SVG 1.1//EN" "http://www.w3.org/Graphics/SVG/1.1/DTD/svg11.dtd">
<svg version="1.1" id="Layer_1" xmlns="http://www.w3.org/2000/svg" xmlns:xlink="http://www.w3.org/1999/xlink" x="0px" y="0px"
	 width="283.46px" height="283.46px" viewBox="0 0 283.46 283.46" enable-background="new 0 0 283.46 283.46" xml:space="preserve">
<path fill="#020202" d="M146.752,8.226c-0.71-0.049-1.419-0.102-2.132-0.14c0.009,0.023,0.023,0.042,0.036,0.061
	c-0.548-0.016-1.097-0.023-1.646-0.033c-0.146-0.009-0.29-0.021-0.437-0.028c0.012,0.008,0.022,0.015,0.034,0.023
	c-0.625-0.009-1.248-0.024-1.875-0.024c-31.674,0-62.462,11.238-86.691,31.648C24.357,64.74,6.903,101.318,6.153,140.079
	l-0.029,0.915c-0.017,0.577-0.037,1.158-0.037,1.739c0,74.243,60.402,134.642,134.646,134.642c0.627,0,1.252-0.016,1.877-0.023
	c-0.013,0.008-0.024,0.016-0.037,0.024c0.159-0.007,0.315-0.021,0.473-0.03c0.538-0.009,1.075-0.017,1.611-0.032
	c-0.014,0.02-0.027,0.038-0.037,0.063c0.736-0.039,1.47-0.094,2.202-0.145c71.428-3.196,128.552-62.297,128.552-134.498
	C275.374,70.504,218.212,11.386,146.752,8.226z M139.406,271.396c-71.062,0-128.667-57.604-128.667-128.667
	c0-0.849,0.05-1.685,0.066-2.529c0.746-38.474,18.353-72.797,45.763-95.893c22.386-18.859,51.275-30.241,82.838-30.241
	c1.685,0,3.358,0.062,5.032,0.127c2.045,0.079,4.077,0.208,6.097,0.382c4.945,4.526,9.55,9.396,13.799,14.623
	c6.812,6.732,13.453,13.638,18.541,22.099c19.963,25.119,31.376,56.283,32.007,88.865l0.031,1c0.022,0.635,0.041,1.269,0.041,1.903
	c0,35.714-12.763,68.5-33.96,94.048c-4.793,7.145-10.658,13.219-16.66,19.15c-4.255,5.233-8.865,10.109-13.817,14.641
	c-1.369,0.117-2.743,0.221-4.125,0.295C144.078,271.321,141.75,271.396,139.406,271.396z"/>
</svg>
