<?xml version="1.0" encoding="utf-8"?>
<!-- Generator: Adobe Illustrator 15.1.0, SVG Export Plug-In . SVG Version: 6.00 Build 0)  -->
<!DOCTYPE svg PUBLIC "-//W3C//DTD SVG 1.1//EN" "http://www.w3.org/Graphics/SVG/1.1/DTD/svg11.dtd">
<svg version="1.1" id="Layer_1" xmlns="http://www.w3.org/2000/svg" xmlns:xlink="http://www.w3.org/1999/xlink" x="0px" y="0px"
	 width="283.46px" height="283.46px" viewBox="0 0 283.46 283.46" enable-background="new 0 0 283.46 283.46" xml:space="preserve">
<g>
	<path fill="#070707" d="M137.362,7.083v6.015v257.254v6.021c73.955-0.352,134.013-60.609,134.013-134.643
		C271.375,67.694,211.318,7.435,137.362,7.083z"/>
	<g>
		<path fill="#010101" d="M6.087,141.732c0,74.243,60.402,134.643,134.642,134.643c74.244,0,134.646-60.399,134.646-134.643
			c0-0.581-0.016-1.16-0.037-1.738l-0.028-0.913c-0.75-38.764-18.204-75.34-47.889-100.35
			c-24.229-20.409-55.013-31.647-86.69-31.647C66.49,7.084,6.087,67.487,6.087,141.732z M13.398,141.727
			c0-69.371,54.906-125.888,123.627-128.535c1.674-0.065,3.347-0.127,5.036-0.127c31.563,0,60.45,11.38,82.834,30.24
			c27.413,23.095,45.02,57.419,45.766,95.892c0.017,0.844,0.063,1.681,0.063,2.53c0,71.063-57.605,128.667-128.663,128.667
			c-2.344,0-4.674-0.072-6.989-0.195C67.265,266.568,13.398,210.445,13.398,141.727z"/>
	</g>
</g>
</svg>
