<?xml version="1.0" encoding="utf-8"?>
<!-- Generator: Adobe Illustrator 15.1.0, SVG Export Plug-In . SVG Version: 6.00 Build 0)  -->
<!DOCTYPE svg PUBLIC "-//W3C//DTD SVG 1.1//EN" "http://www.w3.org/Graphics/SVG/1.1/DTD/svg11.dtd">
<svg version="1.1" id="Layer_1" xmlns="http://www.w3.org/2000/svg" xmlns:xlink="http://www.w3.org/1999/xlink" x="0px" y="0px"
	 width="283.46px" height="283.46px" viewBox="0 0 283.46 283.46" enable-background="new 0 0 283.46 283.46" xml:space="preserve">
<g>
	<path fill="#010101" d="M141.732,8.084c-31.678,0-62.462,11.238-86.691,31.647C25.357,64.741,7.903,101.317,7.153,140.081
		l-0.029,0.913c-0.021,0.578-0.037,1.157-0.037,1.738c0,74.243,60.402,134.643,134.646,134.643
		c74.239,0,134.642-60.4,134.642-134.643C276.374,68.487,215.972,8.084,141.732,8.084z M147.391,271.199
		c-2.316,0.123-4.645,0.195-6.989,0.195c-71.058,0-128.663-57.604-128.663-128.667c0-0.849,0.045-1.686,0.062-2.53
		c0.746-38.473,18.353-72.797,45.766-95.892c22.383-18.86,51.271-30.24,82.834-30.24c1.689,0,3.362,0.062,5.036,0.127
		c68.721,2.647,123.627,59.164,123.627,128.535C269.064,211.445,215.197,267.568,147.391,271.199z"/>
</g>
</svg>
