<?xml version="1.0" encoding="utf-8"?>
<!-- Generator: Adobe Illustrator 15.1.0, SVG Export Plug-In . SVG Version: 6.00 Build 0)  -->
<!DOCTYPE svg PUBLIC "-//W3C//DTD SVG 1.1//EN" "http://www.w3.org/Graphics/SVG/1.1/DTD/svg11.dtd">
<svg version="1.1" id="Layer_1" xmlns="http://www.w3.org/2000/svg" xmlns:xlink="http://www.w3.org/1999/xlink" x="0px" y="0px"
	 width="283.46px" height="283.46px" viewBox="0 0 283.46 283.46" enable-background="new 0 0 283.46 283.46" xml:space="preserve">
<g>
	<path fill="#010101" d="M135.003,139.828l0.031-1c0.63-32.583,12.044-63.746,32.007-88.865
		c5.088-8.461,11.729-15.367,18.541-22.099c5.949-7.318,12.581-13.95,19.895-19.895c0.423-0.259,1.109-0.695,1.865-1.217
		c-0.717,0.03-1.416,0.097-2.129,0.136c0.022-0.05,0.061-0.084,0.082-0.136C134.247,10.556,77.803,69.363,77.803,141.365
		c0,0.008,0.002,0.021,0.002,0.032s-0.002,0.024-0.002,0.032c0,72.002,56.444,130.81,127.492,134.613
		c-0.021-0.052-0.06-0.086-0.082-0.136c0.713,0.039,1.412,0.105,2.129,0.136c-0.756-0.522-1.442-0.958-1.865-1.218
		c-7.313-5.944-13.945-12.576-19.895-19.895c-6.002-5.932-11.868-12.005-16.66-19.15c-21.198-25.548-33.96-58.334-33.96-94.048
		C134.962,141.096,134.98,140.462,135.003,139.828z"/>
</g>
</svg>
