<?xml version="1.0" encoding="utf-8"?>
<!-- Generator: Adobe Illustrator 15.1.0, SVG Export Plug-In . SVG Version: 6.00 Build 0)  -->
<!DOCTYPE svg PUBLIC "-//W3C//DTD SVG 1.1//EN" "http://www.w3.org/Graphics/SVG/1.1/DTD/svg11.dtd">
<svg version="1.1" id="Layer_1" xmlns="http://www.w3.org/2000/svg" xmlns:xlink="http://www.w3.org/1999/xlink" x="0px" y="0px"
	 width="283.46px" height="283.46px" viewBox="0 0 283.46 283.46" enable-background="new 0 0 283.46 283.46" xml:space="preserve">
<g>
	<path fill="#070707" d="M11.087,142.732c0,74.033,60.058,134.291,134.013,134.643v-6.021V14.099V8.083
		C71.144,8.435,11.087,68.694,11.087,142.732z"/>
	<g>
		<path fill="#010101" d="M141.732,8.084c-31.678,0-62.462,11.238-86.691,31.647c-29.684,25.01-47.138,61.586-47.888,100.35
			l-0.029,0.913c-0.021,0.578-0.037,1.157-0.037,1.738c0,74.243,60.402,134.643,134.646,134.643
			c74.239,0,134.642-60.399,134.642-134.643C276.375,68.487,215.972,8.084,141.732,8.084z M147.391,271.199
			c-2.315,0.123-4.646,0.195-6.989,0.195c-71.058,0-128.663-57.604-128.663-128.667c0-0.849,0.045-1.686,0.062-2.53
			c0.746-38.473,18.353-72.797,45.766-95.892c22.383-18.86,51.271-30.24,82.834-30.24c1.689,0,3.362,0.062,5.036,0.127
			c68.721,2.647,123.627,59.164,123.627,128.535C269.064,211.445,215.197,267.568,147.391,271.199z"/>
	</g>
</g>
</svg>
