<?xml version="1.0" encoding="utf-8"?>
<!-- Generator: Adobe Illustrator 15.1.0, SVG Export Plug-In . SVG Version: 6.00 Build 0)  -->
<!DOCTYPE svg PUBLIC "-//W3C//DTD SVG 1.1//EN" "http://www.w3.org/Graphics/SVG/1.1/DTD/svg11.dtd">
<svg version="1.1" id="Layer_1" xmlns="http://www.w3.org/2000/svg" xmlns:xlink="http://www.w3.org/1999/xlink" x="0px" y="0px"
	 width="283.46px" height="283.46px" viewBox="0 0 283.46 283.46" enable-background="new 0 0 283.46 283.46" xml:space="preserve">
<path fill="#020202" d="M279.085,139.994l-0.028-0.915c-0.75-38.761-18.204-75.339-47.888-100.346
	c-24.229-20.41-55.018-31.648-86.691-31.648c-0.454,0-0.906,0.01-1.358,0.017c-0.083-0.005-0.166-0.012-0.249-0.016
	c0.003,0.007,0.008,0.013,0.011,0.02c-0.093,0.001-0.186,0.002-0.278,0.003c0.012-0.008,0.021-0.015,0.034-0.023
	c-0.147,0.007-0.291,0.019-0.437,0.028c-0.157,0.003-0.313,0.007-0.471,0.01c-0.157-0.003-0.313-0.007-0.471-0.01
	c-0.146-0.009-0.289-0.021-0.437-0.028c0.013,0.008,0.022,0.015,0.034,0.023c-0.093-0.001-0.186-0.002-0.279-0.003
	c0.003-0.007,0.009-0.012,0.011-0.02c-0.083,0.004-0.166,0.011-0.249,0.016c-0.452-0.007-0.904-0.017-1.358-0.017
	c-31.674,0-62.462,11.238-86.691,31.648C22.607,63.74,5.153,100.318,4.403,139.079l-0.029,0.915
	c-0.017,0.577-0.037,1.158-0.037,1.739c0,74.243,60.402,134.642,134.646,134.642c0.445,0,0.89-0.009,1.334-0.016
	c0.091,0.006,0.182,0.013,0.272,0.018c-0.003-0.008-0.009-0.014-0.013-0.021c0.094-0.001,0.189-0.002,0.283-0.003
	c-0.013,0.008-0.024,0.017-0.037,0.024c0.159-0.008,0.315-0.021,0.474-0.03c0.145-0.002,0.289-0.006,0.434-0.009
	c0.145,0.003,0.289,0.007,0.434,0.009c0.158,0.009,0.314,0.022,0.474,0.03c-0.013-0.008-0.024-0.017-0.037-0.024
	c0.095,0.001,0.188,0.002,0.283,0.003c-0.004,0.008-0.01,0.014-0.013,0.021c0.091-0.005,0.182-0.012,0.272-0.018
	c0.444,0.007,0.889,0.016,1.334,0.016c74.244,0,134.646-60.398,134.646-134.642C279.123,141.152,279.103,140.571,279.085,139.994z
	 M8.989,141.729c0-0.849,0.05-1.685,0.066-2.529c0.746-38.474,18.353-72.797,45.763-95.893c21.71-18.29,49.536-29.546,79.986-30.209
	c-1.722,1.557-3.418,3.141-5.056,4.783c-3.263,3.273-6.362,6.71-9.293,10.315c-6.812,6.732-13.453,13.638-18.541,22.099
	c-19.963,25.119-31.376,56.283-32.007,88.865l-0.031,1c-0.022,0.635-0.041,1.269-0.042,1.902c0,35.714,12.763,68.5,33.96,94.048
	c4.793,7.144,10.658,13.218,16.66,19.15c2.937,3.612,6.041,7.055,9.31,10.333c1.633,1.637,3.324,3.215,5.041,4.767
	C65.061,268.843,8.989,211.839,8.989,141.729z"/>
</svg>
