<?xml version="1.0" encoding="utf-8"?>
<!-- Generator: Adobe Illustrator 15.1.0, SVG Export Plug-In . SVG Version: 6.00 Build 0)  -->
<!DOCTYPE svg PUBLIC "-//W3C//DTD SVG 1.1//EN" "http://www.w3.org/Graphics/SVG/1.1/DTD/svg11.dtd">
<svg version="1.1" id="Layer_1" xmlns="http://www.w3.org/2000/svg" xmlns:xlink="http://www.w3.org/1999/xlink" x="0px" y="0px"
	 width="283.68px" height="283.92px" viewBox="0 0 283.68 283.92" enable-background="new 0 0 283.68 283.92" xml:space="preserve">
<g>
	<polygon fill="none" points="84.468,62.681 88.337,53.125 81.998,44.997 71.788,46.424 67.917,55.979 74.258,64.107 	"/>
	<polygon fill="none" points="196.156,77.222 198.961,70.294 194.364,64.4 186.962,65.434 184.157,72.362 188.753,78.256 	"/>
	<polygon fill="none" points="63.456,132 63.456,165.335 92.326,182.003 121.196,165.335 121.196,132 92.326,115.332 	"/>
	<polygon fill="none" points="46.659,114.401 54.995,103.588 49.798,90.962 36.266,89.15 27.931,99.963 33.127,112.588 	"/>
	<polygon fill="none" points="98.224,232.301 93.678,241.775 99.61,250.449 110.088,249.648 114.634,240.175 108.702,231.501 	"/>
	<polygon fill="none" points="144.47,47.331 150.691,36.553 144.47,25.776 132.025,25.776 125.804,36.553 132.025,47.331 	"/>
	<polygon fill="none" points="177.576,154.474 183.684,150.438 183.241,143.132 176.692,139.86 170.586,143.896 171.028,151.203 	
		"/>
	<polygon fill="none" points="135.621,182.784 134.92,190.551 141.297,195.04 148.372,191.763 149.072,183.997 142.696,179.507 	"/>
	<polygon fill="none" points="181.205,221.494 172.35,234.357 179.061,248.458 194.629,249.696 203.484,236.833 196.772,222.732 	
		"/>
	<polygon fill="none" points="246.195,172.161 240.272,176.925 241.437,184.438 248.524,187.186 254.447,182.421 253.283,174.909 	
		"/>
	<path d="M92.326,108.205l-3.086,1.782l-28.87,16.668l-3.086,1.781V132v33.335v3.564l3.086,1.78l28.87,16.668l3.086,1.782
		l3.086-1.782l28.87-16.668l3.086-1.78v-3.564V132v-3.564l-3.086-1.781l-28.87-16.668L92.326,108.205z M121.196,165.335
		l-28.87,16.668l-28.87-16.668V132l28.87-16.668L121.196,132V165.335z"/>
	<path d="M201.983,220.252l-1.432-3.009l-3.321-0.264l-15.568-1.238l-3.32-0.264l-1.89,2.744l-8.855,12.862l-1.891,2.745
		l1.433,3.009l6.712,14.101l1.431,3.009l3.322,0.264l15.567,1.238l3.321,0.265l1.89-2.744l8.855-12.863l1.891-2.745l-1.433-3.008
		L201.983,220.252z M194.629,249.696l-15.568-1.238l-6.711-14.101l8.855-12.863l15.567,1.238l6.712,14.101L194.629,249.696z"/>
	<path d="M143.162,174.332l-2.358,1.092l-7.076,3.277l-2.357,1.092l-0.233,2.587l-0.7,7.768l-0.234,2.587l2.125,1.496l6.376,4.489
		l2.124,1.495l2.358-1.091l7.076-3.277l2.356-1.092l0.233-2.588l0.7-7.766l0.233-2.588l-2.125-1.496l-6.376-4.489L143.162,174.332z
		 M148.372,191.763l-7.075,3.277l-6.376-4.489l0.7-7.767l7.076-3.277l6.376,4.49L148.372,191.763z"/>
	<path d="M166.482,154.207l2.437,1.219l6.55,3.27l2.438,1.217l2.272-1.502l6.106-4.036l2.273-1.502l-0.165-2.72l-0.442-7.307
		l-0.164-2.719l-2.438-1.217l-6.548-3.271l-2.438-1.217l-2.273,1.502l-6.106,4.036l-2.272,1.503l0.164,2.719l0.442,7.307
		L166.482,154.207z M176.692,139.86l6.549,3.271l0.442,7.306l-6.107,4.036l-6.548-3.271l-0.442-7.307L176.692,139.86z"/>
	<path d="M257.945,174.187l-0.417-2.691l-2.54-0.985l-7.087-2.747l-2.54-0.984l-2.122,1.707l-5.924,4.764l-2.122,1.707l0.417,2.692
		l1.164,7.512l0.417,2.692l2.54,0.983l7.087,2.748l2.54,0.985l2.122-1.707l5.924-4.766l2.122-1.707l-0.417-2.69L257.945,174.187z
		 M248.524,187.186l-7.088-2.747l-1.164-7.514l5.923-4.764l7.088,2.748l1.164,7.512L248.524,187.186z"/>
	<path d="M185.096,81.108l1.647,2.112l2.652-0.371l7.401-1.034l2.652-0.37l1.006-2.482l2.805-6.928l1.007-2.482l-1.647-2.112
		l-4.597-5.893l-1.647-2.112l-2.651,0.37l-7.403,1.035l-2.652,0.37l-1.005,2.482l-2.806,6.928l-1.005,2.482l1.646,2.112
		L185.096,81.108z M186.962,65.434l7.402-1.034l4.597,5.894l-2.805,6.928l-7.403,1.034l-4.596-5.894L186.962,65.434z"/>
	<path d="M127.35,50.03l1.558,2.699h3.118h12.444h3.117l1.559-2.699l6.222-10.777l1.559-2.7l-1.559-2.699l-6.222-10.777l-1.559-2.7
		h-3.117h-12.444h-3.118l-1.558,2.7l-6.222,10.777l-1.559,2.699l1.559,2.7L127.35,50.03z M132.025,25.776h12.444l6.222,10.777
		l-6.222,10.777h-12.444l-6.222-10.777L132.025,25.776z"/>
	<path d="M69.754,67.62l2.028,2.6l3.265-0.456l10.21-1.427l3.266-0.456l1.237-3.056l3.87-9.555l1.238-3.056l-2.028-2.6l-6.34-8.129
		l-2.028-2.6l-3.266,0.456l-10.209,1.426l-3.266,0.457l-1.238,3.056l-3.87,9.555l-1.237,3.056l2.028,2.6L69.754,67.62z
		 M71.788,46.424l10.21-1.427l6.34,8.129l-3.87,9.555l-10.21,1.427l-6.34-8.129L71.788,46.424z"/>
	<path d="M45.876,120.253l3.379,0.453l2.081-2.7l8.336-10.813l2.081-2.7l-1.298-3.153l-5.196-12.625l-1.298-3.153l-3.379-0.452
		L37.05,83.297l-3.379-0.452l-2.081,2.7l-8.336,10.813l-2.081,2.7l1.297,3.153l5.197,12.625l1.297,3.152l3.379,0.453L45.876,120.253
		z M27.931,99.963l8.335-10.813l13.532,1.812l5.197,12.626l-8.336,10.813l-13.532-1.813L27.931,99.963z"/>
	<path d="M112.278,229.055l-1.412-2.065l-2.494,0.191l-10.478,0.8l-2.495,0.191l-1.082,2.255l-4.545,9.475l-1.083,2.255l1.413,2.065
		l5.932,8.674l1.412,2.065l2.494-0.191l10.478-0.8l2.495-0.191l1.082-2.255l4.546-9.475l1.082-2.255l-1.412-2.065L112.278,229.055z
		 M110.088,249.648l-10.478,0.801l-5.932-8.674l4.546-9.475l10.478-0.8l5.932,8.674L110.088,249.648z"/>
	<path d="M126.364,197.585c-1.859-4.009-6.615-5.754-10.624-3.891c-4.008,1.859-5.75,6.615-3.891,10.623l27.508,59.298
		c1.354,2.919,4.244,4.636,7.262,4.636c1.127,0,2.272-0.239,3.361-0.745c4.009-1.859,5.75-6.615,3.891-10.623L126.364,197.585z"/>
	<path d="M168.604,57.239c-1.859-4.008-6.618-5.751-10.623-3.891c-4.009,1.859-5.75,6.616-3.891,10.624l71.42,153.956
		c1.354,2.919,4.243,4.636,7.262,4.636c1.127,0,2.272-0.239,3.361-0.745c4.009-1.859,5.75-6.615,3.891-10.623L168.604,57.239z"/>
	<path d="M168.383,201.547c1.354,2.919,4.243,4.636,7.262,4.636c1.127,0,2.272-0.239,3.361-0.745
		c4.009-1.859,5.75-6.615,3.891-10.623L106.379,29.869c-1.859-4.008-6.616-5.752-10.624-3.891c-4.008,1.859-5.75,6.616-3.891,10.624
		L168.383,201.547z"/>
	<path d="M59.576,95.816c1.354,2.918,4.244,4.635,7.263,4.635c1.126,0,2.272-0.239,3.361-0.745c4.008-1.859,5.75-6.616,3.891-10.624
		L60.336,59.434c-1.86-4.008-6.616-5.752-10.624-3.891c-4.008,1.859-5.75,6.616-3.891,10.624L59.576,95.816z"/>
	<path d="M267.271,155.155L212.516,37.123c-1.859-4.008-6.618-5.75-10.623-3.891c-4.009,1.859-5.75,6.616-3.891,10.624
		l54.755,118.032c1.354,2.919,4.243,4.636,7.262,4.636c1.127,0,2.272-0.239,3.361-0.745
		C267.389,163.919,269.13,159.163,267.271,155.155z"/>
	<path d="M46.583,167.936c-1.86-4.009-6.616-5.754-10.624-3.891c-4.008,1.859-5.75,6.615-3.891,10.623l27.508,59.298
		c1.354,2.919,4.244,4.636,7.263,4.636c1.126,0,2.272-0.239,3.361-0.745c4.008-1.859,5.75-6.615,3.891-10.623L46.583,167.936z"/>
</g>
</svg>
