<?xml version="1.0" encoding="utf-8"?>
<!-- Generator: Adobe Illustrator 15.1.0, SVG Export Plug-In . SVG Version: 6.00 Build 0)  -->
<!DOCTYPE svg PUBLIC "-//W3C//DTD SVG 1.1//EN" "http://www.w3.org/Graphics/SVG/1.1/DTD/svg11.dtd">
<svg version="1.1" id="Layer_1" xmlns="http://www.w3.org/2000/svg" xmlns:xlink="http://www.w3.org/1999/xlink" x="0px" y="0px"
	 width="283.465px" height="283.465px" viewBox="0 0 283.465 283.465" enable-background="new 0 0 283.465 283.465"
	 xml:space="preserve">
<path fill-rule="evenodd" clip-rule="evenodd" d="M115.473,183.146l11.292-23.2c1.523-3.132,0.222-6.919-2.911-8.441
	c-3.139-1.53-6.919-0.223-8.442,2.91l-11.298,23.206c-1.523,3.133-0.216,6.919,2.917,8.436
	C110.163,187.586,113.943,186.279,115.473,183.146z M185.287,188.142l11.297-23.212c1.518-3.133,0.21-6.907-2.923-8.437
	s-6.906-0.222-8.436,2.911l-11.298,23.199c-1.529,3.146-0.222,6.919,2.91,8.448C179.971,192.581,183.758,191.274,185.287,188.142z
	 M186.891,81.555h25.949c28.355,0,51.369,23.014,51.369,51.363c0,12.271-4.316,23.538-11.507,32.382
	c-9.423,11.581-23.779,18.981-39.862,18.981c-3.478,0-6.314,2.824-6.314,6.314c0,3.479,2.837,6.314,6.314,6.314
	c20.03,0,37.914-9.213,49.655-23.644c8.967-11.014,14.344-25.056,14.344-40.349c0-35.317-28.676-63.993-63.999-63.993h-19.943
	c-3.17-32.357-30.488-57.678-63.678-57.678c-33.282,0-60.668,25.469-63.709,57.961C33.017,72.249,7.548,99.629,7.548,132.918
	c0,15.293,5.377,29.335,14.344,40.349c11.735,14.431,29.625,23.644,49.649,23.644c3.484,0,6.315-2.836,6.315-6.314
	c0-3.49-2.831-6.314-6.315-6.314c-16.071,0-30.433-7.4-39.856-18.981c-7.19-8.844-11.507-20.11-11.507-32.382
	c0-28.349,23.015-51.363,51.363-51.363c3.49,0,6.315-2.831,6.315-6.315c0-28.349,23.014-51.363,51.363-51.363
	c28.342,0,51.357,23.015,51.357,51.363C180.687,79.31,183.066,81.11,186.891,81.555z M101.998,190.177
	c3.503,0,6.352,2.812,6.352,6.277s-2.849,6.278-6.352,6.278c-3.502,0-6.352-2.813-6.352-6.278S98.496,190.177,101.998,190.177z
	 M141.54,203.83l11.297-23.2c1.529-3.133,0.223-6.919-2.91-8.448c-3.133-1.517-6.919-0.21-8.449,2.923l-11.297,23.2
	c-1.523,3.132-0.216,6.919,2.923,8.436C136.236,208.27,140.022,206.962,141.54,203.83z M171.818,195.159
	c3.503,0,6.352,2.812,6.352,6.277s-2.849,6.278-6.352,6.278c-3.515,0-6.352-2.813-6.352-6.278S168.304,195.159,171.818,195.159z
	 M128.071,210.859c3.503,0,6.352,2.813,6.352,6.278s-2.849,6.277-6.352,6.277c-3.502,0-6.352-2.812-6.352-6.277
	S124.569,210.859,128.071,210.859z M92.199,230.964l7.53-15.479c1.523-3.133,0.216-6.907-2.917-8.437s-6.913-0.222-8.442,2.91
	l-7.53,15.479c-1.523,3.132-0.222,6.906,2.917,8.436C86.89,235.403,90.67,234.097,92.199,230.964z M162.014,235.946l7.523-15.467
	c1.529-3.132,0.222-6.919-2.911-8.448c-3.133-1.517-6.919-0.209-8.436,2.923l-7.536,15.467c-1.529,3.133-0.222,6.919,2.91,8.448
	C156.697,240.387,160.484,239.079,162.014,235.946z M78.657,237.883c3.466,0,6.278,2.812,6.278,6.277s-2.812,6.278-6.278,6.278
	c-3.465,0-6.278-2.813-6.278-6.278S75.191,237.883,78.657,237.883z M118.266,251.646l7.53-15.479
	c1.529-3.133,0.222-6.906-2.911-8.436s-6.919-0.223-8.442,2.91l-7.53,15.479c-1.529,3.133-0.222,6.92,2.911,8.437
	C112.957,256.087,116.743,254.779,118.266,251.646z M148.471,242.865c3.466,0,6.278,2.824,6.278,6.278
	c0,3.466-2.813,6.277-6.278,6.277c-3.465,0-6.277-2.812-6.277-6.277C142.193,245.689,145.006,242.865,148.471,242.865z
	 M104.73,258.566c3.466,0,6.278,2.812,6.278,6.277s-2.812,6.278-6.278,6.278s-6.278-2.813-6.278-6.278
	S101.264,258.566,104.73,258.566z"/>
</svg>
