<?xml version="1.0" encoding="utf-8"?>
<!-- Generator: Adobe Illustrator 15.1.0, SVG Export Plug-In . SVG Version: 6.00 Build 0)  -->
<!DOCTYPE svg PUBLIC "-//W3C//DTD SVG 1.1//EN" "http://www.w3.org/Graphics/SVG/1.1/DTD/svg11.dtd">
<svg version="1.1" id="Layer_1" xmlns="http://www.w3.org/2000/svg" xmlns:xlink="http://www.w3.org/1999/xlink" x="0px" y="0px"
	 width="283.465px" height="283.465px" viewBox="0 0 283.465 283.465" enable-background="new 0 0 283.465 283.465"
	 xml:space="preserve">
<g>
	<path fill-rule="evenodd" clip-rule="evenodd" d="M159.605,165.473c0,0-5.836,12.27-5.836,17.522c0,3.229,2.616,5.847,5.836,5.847
		c3.229,0,5.846-2.617,5.846-5.847C165.451,177.742,159.605,165.473,159.605,165.473z M118.286,188.842
		c0,0-10.877,22.839-10.877,32.635c0,6.003,4.874,10.871,10.877,10.871c6.004,0,10.876-4.868,10.876-10.871
		C129.162,211.681,118.286,188.842,118.286,188.842z M159.605,210.595c0,0-16.441,34.54-16.441,49.343
		c0,9.074,7.367,16.44,16.441,16.44c9.084,0,16.451-7.366,16.451-16.44C176.057,245.135,159.605,210.595,159.605,210.595z"/>
	<path d="M198.293,53.265h-15.967c-2.538-25.911-24.41-46.178-50.982-46.178c-26.646,0-48.572,20.386-51.006,46.4
		c-26.014,2.439-46.405,24.36-46.405,51.006c0,28.28,22.958,51.239,51.234,51.239h113.126c28.28,0,51.238-22.958,51.238-51.239
		C249.531,76.217,226.573,53.265,198.293,53.265z"/>
</g>
</svg>
