<?xml version="1.0" encoding="utf-8"?>
<!-- Generator: Adobe Illustrator 15.1.0, SVG Export Plug-In . SVG Version: 6.00 Build 0)  -->
<!DOCTYPE svg PUBLIC "-//W3C//DTD SVG 1.1//EN" "http://www.w3.org/Graphics/SVG/1.1/DTD/svg11.dtd">
<svg version="1.1" id="Layer_1" xmlns="http://www.w3.org/2000/svg" xmlns:xlink="http://www.w3.org/1999/xlink" x="0px" y="0px"
	 width="283.465px" height="283.465px" viewBox="0 0 283.465 283.465" enable-background="new 0 0 283.465 283.465"
	 xml:space="preserve">
<g>
	<path d="M197.854,53.088h-15.561c-2.475-25.251-23.788-45.002-49.684-45.002c-25.968,0-47.336,19.867-49.708,45.219
		c-25.352,2.377-45.223,23.74-45.223,49.708c0,27.56,22.372,49.934,49.929,49.934h110.247c27.561,0,49.933-22.374,49.933-49.934
		C247.786,75.457,225.414,53.088,197.854,53.088z"/>
	<path fill-rule="evenodd" clip-rule="evenodd" d="M179.688,197.042l8.337-26.54c0.869-2.795-0.684-5.768-3.48-6.647
		c-2.785-0.88-5.768,0.684-6.637,3.469l-8.335,26.55c-0.871,2.786,0.683,5.768,3.468,6.637
		C175.836,201.391,178.818,199.837,179.688,197.042z"/>
	<path fill-rule="evenodd" clip-rule="evenodd" d="M141.319,207.707l8.33-26.539c0.87-2.796-0.684-5.768-3.469-6.648
		c-2.795-0.88-5.772,0.684-6.647,3.47l-8.33,26.549c-0.875,2.785,0.678,5.768,3.469,6.647
		C137.467,212.056,140.444,210.502,141.319,207.707z"/>
	<path fill-rule="evenodd" clip-rule="evenodd" d="M158.999,263.001l10.158-32.39c0.881-2.795-0.683-5.768-3.468-6.647
		c-2.796-0.869-5.769,0.683-6.649,3.479l-10.157,32.379c-0.881,2.796,0.673,5.769,3.469,6.647
		C155.148,267.34,158.119,265.787,158.999,263.001z"/>
	<path fill-rule="evenodd" clip-rule="evenodd" d="M120.625,273.656l10.158-32.378c0.88-2.786-0.678-5.769-3.469-6.649
		c-2.791-0.869-5.768,0.685-6.648,3.479l-10.158,32.38c-0.875,2.785,0.678,5.767,3.469,6.648
		C116.773,278.006,119.75,276.452,120.625,273.656z"/>
	<path fill-rule="evenodd" clip-rule="evenodd" d="M109.58,197.042l8.336-26.54c0.869-2.795-0.683-5.768-3.48-6.647
		c-2.785-0.88-5.768,0.684-6.637,3.469l-8.334,26.55c-0.871,2.786,0.683,5.768,3.468,6.637
		C105.728,201.391,108.711,199.837,109.58,197.042z"/>
	<path fill-rule="evenodd" clip-rule="evenodd" d="M88.891,263.001l10.158-32.39c0.881-2.795-0.683-5.768-3.468-6.647
		c-2.795-0.869-5.769,0.683-6.649,3.479l-10.157,32.379c-0.881,2.796,0.673,5.769,3.468,6.647
		C85.041,267.34,88.012,265.787,88.891,263.001z"/>
</g>
</svg>
