<?xml version="1.0" encoding="utf-8"?>
<!-- Generator: Adobe Illustrator 15.1.0, SVG Export Plug-In . SVG Version: 6.00 Build 0)  -->
<!DOCTYPE svg PUBLIC "-//W3C//DTD SVG 1.1//EN" "http://www.w3.org/Graphics/SVG/1.1/DTD/svg11.dtd">
<svg version="1.1" id="Layer_1" xmlns="http://www.w3.org/2000/svg" xmlns:xlink="http://www.w3.org/1999/xlink" x="0px" y="0px"
	 width="283.465px" height="283.465px" viewBox="0 0 283.465 283.465" enable-background="new 0 0 283.465 283.465"
	 xml:space="preserve">
<g>
	<g>
		<path fill-rule="evenodd" clip-rule="evenodd" d="M150.832,178.453c3.046,0,5.511,2.471,5.511,5.506c0,3.041-2.465,5.5-5.511,5.5
			c-3.035,0-5.5-2.459-5.5-5.5C145.332,180.924,147.797,178.453,150.832,178.453z M106.779,194.305c3.041,0,5.506,2.465,5.506,5.498
			c0,3.037-2.465,5.502-5.506,5.502c-3.035,0-5.506-2.465-5.506-5.502C101.273,196.77,103.744,194.305,106.779,194.305z
			 M174.029,212.021c3.036,0,5.501,2.465,5.501,5.5c0,3.037-2.465,5.512-5.501,5.512c-3.046,0-5.511-2.475-5.511-5.512
			C168.519,214.486,170.983,212.021,174.029,212.021z M133.932,223.033c3.036,0,5.506,2.465,5.506,5.502
			c0,3.035-2.47,5.51-5.506,5.51c-3.041,0-5.506-2.475-5.506-5.51C128.426,225.498,130.891,223.033,133.932,223.033z
			 M95.772,234.045c3.036,0,5.5,2.465,5.5,5.502c0,3.035-2.465,5.5-5.5,5.5c-3.041,0-5.506-2.465-5.506-5.5
			C90.267,236.51,92.731,234.045,95.772,234.045z M158.442,254.486c3.047,0,5.512,2.477,5.512,5.512s-2.465,5.502-5.512,5.502
			c-3.035,0-5.501-2.467-5.501-5.502S155.407,254.486,158.442,254.486z M118.469,265.5c3.036,0,5.506,2.475,5.506,5.51
			c0,3.037-2.47,5.502-5.506,5.502c-3.041,0-5.506-2.465-5.506-5.502C112.963,267.975,115.429,265.5,118.469,265.5z"/>
	</g>
	<g>
		<path d="M203.301,57.221H185.92c-2.763-28.205-26.57-50.268-55.496-50.268c-29.005,0-52.874,22.192-55.523,50.509
			c-28.317,2.655-50.514,26.517-50.514,55.523c0,30.784,24.991,55.775,55.771,55.775h123.143c30.784,0,55.775-24.991,55.775-55.775
			C259.076,82.207,234.085,57.221,203.301,57.221z M38.263,101.778c-2.649,0-4.802-2.147-4.802-4.801s2.153-4.802,4.802-4.802
			h113.892c11.412,0,17.46-6.949,17.46-14.301c0-7.343-6.048-14.292-17.46-14.292c-2.654,0-4.802-2.153-4.802-4.802
			c0-2.649,2.147-4.802,4.802-4.802c18.268,0,27.064,12.145,27.064,23.896c0,11.759-8.797,23.904-27.064,23.904H38.263z
			 M175.139,158.806c-2.645,0-4.801-2.157-4.801-4.802c0-2.654,2.156-4.802,4.801-4.802c11.423,0,17.462-6.948,17.462-14.301
			c0-7.343-6.039-14.292-17.462-14.292H61.253c-2.649,0-4.802-2.157-4.802-4.802c0-2.654,2.152-4.802,4.802-4.802h113.886
			c18.27,0,27.064,12.145,27.064,23.896C202.203,146.661,193.408,158.806,175.139,158.806z"/>
	</g>
</g>
</svg>
