<?xml version="1.0" encoding="utf-8"?>
<!-- Generator: Adobe Illustrator 15.1.0, SVG Export Plug-In . SVG Version: 6.00 Build 0)  -->
<!DOCTYPE svg PUBLIC "-//W3C//DTD SVG 1.1//EN" "http://www.w3.org/Graphics/SVG/1.1/DTD/svg11.dtd">
<svg version="1.1" id="Layer_1" xmlns="http://www.w3.org/2000/svg" xmlns:xlink="http://www.w3.org/1999/xlink" x="0px" y="0px"
	 width="283.465px" height="283.465px" viewBox="0 0 283.465 283.465" enable-background="new 0 0 283.465 283.465"
	 xml:space="preserve">
<g>
	<path fill-rule="evenodd" clip-rule="evenodd" d="M151.261,179.715c3.046,0,5.511,2.471,5.511,5.506c0,3.041-2.465,5.5-5.511,5.5
		c-3.035,0-5.5-2.459-5.5-5.5C145.761,182.186,148.226,179.715,151.261,179.715z M107.208,195.566c3.041,0,5.506,2.465,5.506,5.498
		c0,3.037-2.465,5.502-5.506,5.502c-3.035,0-5.506-2.465-5.506-5.502C101.702,198.031,104.172,195.566,107.208,195.566z
		 M174.458,213.283c3.036,0,5.501,2.465,5.501,5.5c0,3.037-2.465,5.512-5.501,5.512c-3.046,0-5.511-2.475-5.511-5.512
		C168.947,215.748,171.412,213.283,174.458,213.283z M134.361,224.295c3.036,0,5.506,2.465,5.506,5.502
		c0,3.035-2.47,5.51-5.506,5.51c-3.041,0-5.506-2.475-5.506-5.51C128.855,226.76,131.32,224.295,134.361,224.295z M96.201,235.307
		c3.036,0,5.5,2.465,5.5,5.502c0,3.035-2.465,5.5-5.5,5.5c-3.041,0-5.506-2.465-5.506-5.5
		C90.695,237.771,93.16,235.307,96.201,235.307z M158.871,255.748c3.047,0,5.512,2.477,5.512,5.512s-2.465,5.502-5.512,5.502
		c-3.035,0-5.501-2.467-5.501-5.502S155.836,255.748,158.871,255.748z M118.898,266.762c3.036,0,5.506,2.475,5.506,5.51
		c0,3.037-2.47,5.502-5.506,5.502c-3.041,0-5.506-2.465-5.506-5.502C113.392,269.236,115.857,266.762,118.898,266.762z"/>
	<path d="M203.388,58.82h-17.405c-2.767-28.246-26.608-50.338-55.575-50.338c-29.047,0-52.948,22.223-55.602,50.581
		C46.448,61.721,24.22,85.617,24.22,114.664c0,30.829,25.026,55.856,55.85,55.856h123.318c30.829,0,55.856-25.027,55.856-55.856
		C259.244,83.841,234.217,58.82,203.388,58.82z"/>
</g>
</svg>
