<?xml version="1.0" encoding="utf-8"?>
<!-- Generator: Adobe Illustrator 15.1.0, SVG Export Plug-In . SVG Version: 6.00 Build 0)  -->
<!DOCTYPE svg PUBLIC "-//W3C//DTD SVG 1.1//EN" "http://www.w3.org/Graphics/SVG/1.1/DTD/svg11.dtd">
<svg version="1.1" id="Layer_1" xmlns:serif="http://www.serif.com/"
	 xmlns="http://www.w3.org/2000/svg" xmlns:xlink="http://www.w3.org/1999/xlink" x="0px" y="0px" width="283.46px"
	 height="283.46px" viewBox="0 0 283.46 283.46" enable-background="new 0 0 283.46 283.46" xml:space="preserve">
<g>
	<path d="M192.555,171.969c-1.151,0-2.085-0.934-2.085-2.085s0.934-2.085,2.085-2.085c11.899,0,23.043-5.307,30.575-14.561
		c5.693-6.994,8.829-15.818,8.829-24.847c0-21.728-17.677-39.404-39.404-39.404h-18.669c-1.151,0-2.085-0.934-2.085-2.085
		c0-21.729-17.677-39.407-39.404-39.407c-21.728,0-39.405,17.678-39.405,39.407c0,1.151-0.934,2.085-2.085,2.085
		c-21.729,0-39.407,17.677-39.407,39.404c0,9.026,3.136,17.851,8.83,24.847c7.53,9.254,18.675,14.561,30.577,14.561
		c1.151,0,2.085,0.934,2.085,2.085s-0.934,2.085-2.085,2.085c-13.162,0-25.486-5.867-33.812-16.098
		c-6.297-7.738-9.766-17.498-9.766-27.479c0-23.344,18.454-42.459,41.539-43.527c1.069-23.085,20.184-41.539,43.528-41.539
		c23.327,0,42.433,18.429,43.525,41.492h16.633c24.027,0,43.574,19.547,43.574,43.574c0,9.985-3.468,19.744-9.765,27.479
		C218.038,166.102,205.714,171.969,192.555,171.969z"/>
	<g>
		<path fill="#010001" d="M118.675,240.134c-0.207,0-0.417-0.031-0.625-0.097c-1.099-0.345-1.71-1.515-1.365-2.613l8.706-27.745
			c0.344-1.1,1.514-1.712,2.613-1.365c1.099,0.345,1.71,1.515,1.365,2.613l-8.706,27.745
			C120.385,239.564,119.562,240.134,118.675,240.134z"/>
		<path fill="#010001" d="M151.554,230.998c-0.207,0-0.417-0.031-0.625-0.097c-1.099-0.345-1.71-1.515-1.365-2.613l8.706-27.746
			c0.345-1.1,1.514-1.711,2.613-1.365c1.099,0.345,1.71,1.515,1.365,2.613l-8.706,27.746
			C153.263,230.427,152.441,230.998,151.554,230.998z"/>
		<path fill="#010001" d="M96.253,217.126c-0.207,0-0.417-0.031-0.625-0.097c-1.099-0.345-1.71-1.515-1.365-2.613l8.706-27.746
			c0.344-1.1,1.513-1.713,2.613-1.365c1.099,0.345,1.71,1.515,1.365,2.613l-8.706,27.746
			C97.963,216.556,97.141,217.126,96.253,217.126z"/>
		<path fill="#010001" d="M136.408,183.628c-0.207,0-0.417-0.031-0.625-0.097c-1.099-0.345-1.71-1.515-1.365-2.613l7.137-22.746
			c0.344-1.101,1.513-1.711,2.613-1.365c1.099,0.345,1.71,1.515,1.365,2.613l-7.137,22.746
			C138.117,183.058,137.295,183.628,136.408,183.628z"/>
		<path fill="#010001" d="M169.288,174.489c-0.207,0-0.417-0.031-0.625-0.097c-1.099-0.345-1.71-1.515-1.365-2.613l7.137-22.743
			c0.344-1.101,1.514-1.712,2.613-1.365c1.099,0.345,1.71,1.515,1.365,2.613l-7.137,22.743
			C170.997,173.918,170.174,174.489,169.288,174.489z"/>
		<path fill="#010001" d="M113.985,160.614c-0.207,0-0.417-0.031-0.625-0.097c-1.099-0.345-1.709-1.515-1.365-2.613l7.137-22.741
			c0.344-1.098,1.512-1.713,2.614-1.365c1.099,0.345,1.709,1.515,1.365,2.614l-7.137,22.74
			C115.695,160.043,114.872,160.614,113.985,160.614z"/>
	</g>
</g>
</svg>
