<?xml version="1.0" encoding="utf-8"?>
<!-- Generator: Adobe Illustrator 15.1.0, SVG Export Plug-In . SVG Version: 6.00 Build 0)  -->
<!DOCTYPE svg PUBLIC "-//W3C//DTD SVG 1.1//EN" "http://www.w3.org/Graphics/SVG/1.1/DTD/svg11.dtd">
<svg version="1.1" id="Layer_1" xmlns="http://www.w3.org/2000/svg" xmlns:xlink="http://www.w3.org/1999/xlink" x="0px" y="0px"
	 width="283.68px" height="283.92px" viewBox="0 0 283.68 283.92" enable-background="new 0 0 283.68 283.92" xml:space="preserve">
<g>
	<path fill="#020202" d="M64.979,183.241c0-5.286-4.286-9.571-9.572-9.571H25.438c-5.286,0-9.572,4.285-9.572,9.571
		c0,0.249,0.019,0.492,0.037,0.736h49.038C64.96,183.733,64.979,183.49,64.979,183.241z"/>
	<path fill="#020202" d="M36.057,134.04l25.953,14.983c4.578,2.644,10.432,1.075,13.076-3.503
		c2.642-4.578,1.074-10.433-3.504-13.076L45.63,117.459c-4.579-2.643-10.433-1.074-13.076,3.504
		C29.91,125.542,31.478,131.396,36.057,134.04z"/>
	<path fill="#020202" d="M89.625,114.4c2.643,4.579,8.498,6.148,13.076,3.504c4.578-2.643,6.147-8.497,3.504-13.076L91.221,78.876
		c-2.643-4.579-8.498-6.147-13.076-3.504s-6.146,8.498-3.504,13.076L89.625,114.4z"/>
	<path fill="#020202" d="M140.423,107.797c5.286,0,9.572-4.286,9.572-9.572V68.257c0-5.286-4.286-9.572-9.572-9.572
		c-5.287,0-9.572,4.286-9.572,9.572v29.968C130.851,103.511,135.136,107.797,140.423,107.797z"/>
	<path fill="#020202" d="M178.145,117.905c4.578,2.642,10.433,1.074,13.076-3.504l14.983-25.952
		c2.644-4.579,1.074-10.433-3.504-13.076c-4.578-2.644-10.432-1.076-13.076,3.503l-14.982,25.953
		C171.997,109.407,173.566,115.261,178.145,117.905z"/>
	<path fill="#020202" d="M205.76,145.52c2.644,4.578,8.497,6.146,13.076,3.504l25.952-14.984c4.579-2.643,6.146-8.498,3.504-13.076
		s-8.498-6.146-13.076-3.504l-25.952,14.984C204.685,135.086,203.116,140.941,205.76,145.52z"/>
	<path fill="#020202" d="M264.979,183.241c0-5.287-4.285-9.571-9.571-9.571h-29.968c-5.286,0-9.572,4.284-9.572,9.571
		c0,0.249,0.019,0.492,0.037,0.736h49.037C264.96,183.733,264.979,183.49,264.979,183.241z"/>
	<path d="M210.691,175.719c-0.881-7.539-2.949-14.716-6.016-21.346c-1.975-4.268-4.357-8.308-7.106-12.067
		c-4.587-6.274-10.182-11.762-16.544-16.236c-3.555-2.5-7.348-4.679-11.34-6.5c-7.082-3.23-14.781-5.329-22.873-6.057
		c-2.106-0.189-4.234-0.302-6.39-0.302c-2.155,0-4.283,0.113-6.39,0.302c-8.093,0.728-15.792,2.827-22.875,6.058
		c-3.992,1.821-7.784,4-11.338,6.499c-6.361,4.474-11.956,9.961-16.543,16.235c-2.75,3.76-5.133,7.801-7.108,12.07
		c-3.066,6.629-5.135,13.805-6.015,21.343c-0.317,2.712-0.498,5.464-0.498,8.26h141.534
		C211.189,181.183,211.009,178.43,210.691,175.719z"/>
	<path d="M76.39,214.235c0,3.142,2.542,5.685,5.684,5.685h46.877l12.985-11.823l13.643,11.823h46.029
		c3.141,0,5.684-2.543,5.684-5.685c0-3.131-2.543-5.684-5.684-5.684H159.83l-18.084-15.665l-17.197,15.665H82.074
		C78.932,208.552,76.39,211.104,76.39,214.235z"/>
</g>
</svg>
