<?xml version="1.0" encoding="utf-8"?>
<!-- Generator: Adobe Illustrator 15.1.0, SVG Export Plug-In . SVG Version: 6.00 Build 0)  -->
<!DOCTYPE svg PUBLIC "-//W3C//DTD SVG 1.1//EN" "http://www.w3.org/Graphics/SVG/1.1/DTD/svg11.dtd">
<svg version="1.1" id="Layer_1" xmlns="http://www.w3.org/2000/svg" xmlns:xlink="http://www.w3.org/1999/xlink" x="0px" y="0px"
	 width="283.465px" height="283.465px" viewBox="0 0 283.465 283.465" enable-background="new 0 0 283.465 283.465"
	 xml:space="preserve">
<path d="M264.662,118.521c0-32.032-26.009-58.035-58.046-58.035h-18.089c-2.875-29.354-27.652-52.313-57.755-52.313
	c-30.187,0-55.026,23.095-57.784,52.565c-29.47,2.763-52.57,27.597-52.57,57.783c0,26.344,17.591,48.598,41.651,55.681
	c9.637,11.769,24.262,19.303,40.646,19.303c1.46,0,2.909-0.056,4.341-0.18c5.509,12.67,15.871,22.744,28.732,27.878
	c-3.583,4.358-5.74,9.929-5.74,16.006c0,9.771,5.582,18.264,13.725,22.43c-0.718,1.596-1.123,3.358-1.123,5.224
	c0,6.952,5.639,12.603,12.591,12.603c6.953,0,12.603-5.65,12.603-12.603c0-0.258-0.012-0.518-0.021-0.775
	c0.078,0.012,0.157,0.012,0.235,0.012c7.705,0,14.197-5.234,16.117-12.333c1.112,0.325,2.292,0.506,3.517,0.506
	c6.952,0,12.591-5.65,12.591-12.603c0-2.999-1.045-5.751-2.797-7.908c7.289-3.414,12.344-10.815,12.344-19.396
	c0-2.19-0.337-4.313-0.954-6.313c6.436-0.563,11.49-5.965,11.49-12.547c0-1.303-0.202-2.55-0.563-3.74
	c8.907-0.337,16.028-7.683,16.028-16.668c0-1.427-0.187-2.81-0.522-4.133C252.83,158.968,264.662,140.122,264.662,118.521z"/>
</svg>
