<?xml version="1.0" encoding="utf-8"?>
<!-- Generator: Adobe Illustrator 15.1.0, SVG Export Plug-In . SVG Version: 6.00 Build 0)  -->
<!DOCTYPE svg PUBLIC "-//W3C//DTD SVG 1.1//EN" "http://www.w3.org/Graphics/SVG/1.1/DTD/svg11.dtd">
<svg version="1.1" id="Layer_1" xmlns="http://www.w3.org/2000/svg" xmlns:xlink="http://www.w3.org/1999/xlink" x="0px" y="0px"
	 width="283.465px" height="283.465px" viewBox="0 0 283.465 283.465" enable-background="new 0 0 283.465 283.465"
	 xml:space="preserve">
<path fill-rule="evenodd" clip-rule="evenodd" d="M134.305,13.791c0-3.863,3.137-7,7.005-7c3.862,0,6.999,3.137,6.999,7
	s-3.137,7-6.999,7C137.441,20.791,134.305,17.654,134.305,13.791z M226.609,46.226c2.734-2.73,7.176-2.73,9.901,0
	c2.735,2.735,2.735,7.171,0,9.902c-2.726,2.735-7.167,2.735-9.901,0C223.884,53.397,223.884,48.961,226.609,46.226z M46.098,56.127
	c-2.735-2.73-2.735-7.167,0-9.902c2.73-2.73,7.167-2.73,9.902,0c2.73,2.735,2.73,7.171,0,9.902
	C53.264,58.862,48.828,58.862,46.098,56.127z M268.95,134.438c3.862,0,7,3.137,7,7s-3.138,7-7,7s-7-3.137-7-7
	S265.088,134.438,268.95,134.438z M13.663,134.438c3.863,0,7,3.137,7,7s-3.137,7-7,7c-3.868,0-7.004-3.137-7.004-7
	S9.795,134.438,13.663,134.438z M46.098,226.742c2.73-2.726,7.167-2.726,9.902,0c2.73,2.734,2.73,7.166,0,9.901
	c-2.735,2.735-7.171,2.735-9.902,0C43.363,233.908,43.363,229.477,46.098,226.742z M226.609,236.644
	c-2.726-2.735-2.726-7.167,0-9.901c2.734-2.726,7.176-2.726,9.901,0c2.735,2.734,2.735,7.166,0,9.901
	C233.785,239.379,229.344,239.379,226.609,236.644z M134.25,124.408L79.101,69.254c-2.754-2.75-7.225-2.75-9.975,0
	c-2.754,2.755-2.754,7.226,0,9.975l55.149,55.154H37.393l-0.02,0.005c-4.793,0.098-4.99,3.574-3.892,7.049
	c-1.098,3.475-0.902,6.951,3.892,7.048l0.02,0.005h86.883l-61.443,61.448c-3.324,3.461-1.005,6.059,2.23,7.745
	c1.682,3.235,4.274,5.549,7.735,2.226l61.453-61.448v86.888l0.005,0.02c0.098,4.794,3.574,4.99,7.054,3.893
	c3.47,1.098,6.95,0.901,7.048-3.893v-0.02v-86.888l61.458,61.448c3.461,3.323,6.049,1.01,7.735-2.226
	c3.235-1.687,5.549-4.274,2.226-7.745l-61.438-61.448h77.996c3.892,0,7.049-3.161,7.049-7.053s-3.157-7.054-7.049-7.054h-77.996
	l55.145-55.154c2.755-2.75,2.755-7.22,0-9.975c-2.745-2.75-7.216-2.75-9.971,0l-55.154,55.154V46.412
	c0-3.892-3.156-7.054-7.048-7.054c-3.897,0-7.059,3.162-7.059,7.054V124.408z M134.305,269.083c0-3.862,3.137-7,7.005-7
	c3.862,0,6.999,3.138,6.999,7s-3.137,7-6.999,7C137.441,276.083,134.305,272.945,134.305,269.083z"/>
</svg>
