<?xml version="1.0" encoding="utf-8"?>
<!-- Generator: Adobe Illustrator 15.1.0, SVG Export Plug-In . SVG Version: 6.00 Build 0)  -->
<!DOCTYPE svg PUBLIC "-//W3C//DTD SVG 1.1//EN" "http://www.w3.org/Graphics/SVG/1.1/DTD/svg11.dtd">
<svg version="1.1" id="Layer_1" xmlns="http://www.w3.org/2000/svg" xmlns:xlink="http://www.w3.org/1999/xlink" x="0px" y="0px"
	 width="283.46px" height="283.46px" viewBox="0 0 283.46 283.46" enable-background="new 0 0 283.46 283.46" xml:space="preserve">
<g id="Layer_1_1_" xmlns:serif="http://www.serif.com/">
</g>
<g id="Layer_2">
</g>
<g id="Layer_3">
	<g>
		<path d="M234.044,117.392c0-22.899-18.592-41.49-41.49-41.49h-18.667c0-22.899-18.593-41.492-41.492-41.492
			c-22.899,0-41.49,18.593-41.49,41.492c-22.899,0-41.49,18.591-41.49,41.49c0,19.251,13.139,35.459,30.932,40.131
			c7.481,10.883,20.019,18.023,34.211,18.023c1.154,0,2.298-0.045,3.428-0.14c4.353,10.005,12.536,17.962,22.694,22.021
			c-2.83,3.438-4.533,7.842-4.533,12.639c0,7.724,4.409,14.424,10.845,17.724c-0.574,1.256-0.894,2.65-0.894,4.123
			c0,5.489,4.459,9.948,9.948,9.948c5.494,0,9.953-4.459,9.953-9.948c0-0.205-0.008-0.408-0.018-0.61
			c0.063,0.003,0.128,0.003,0.191,0.003c6.084,0,11.209-4.131,12.727-9.736c0.881,0.256,1.813,0.393,2.775,0.393
			c5.494,0,9.949-4.459,9.949-9.948c0-2.368-0.826-4.543-2.207-6.252c5.756-2.695,9.746-8.543,9.746-15.315
			c0-1.734-0.263-3.41-0.748-4.986c5.082-0.441,9.072-4.713,9.072-9.912c0-1.026-0.154-2.018-0.443-2.949
			c7.033-0.273,12.66-6.07,12.66-13.174c0-3.156-1.111-6.057-2.966-8.326C227.216,143.564,234.044,131.268,234.044,117.392z
			 M192.554,152.229c-0.969,0-1.926-0.04-2.871-0.116c0.39,2.059,0.593,4.178,0.593,6.348c0,18.817-15.347,34.097-34.249,34.097
			c-15.762,0-29.05-10.621-33.031-25.063c-2.316,0.486-4.719,0.742-7.18,0.742c-12.412,0-23.303-6.509-29.389-16.271
			c-17.394-2.12-30.879-16.897-30.879-34.783c0-19.343,15.773-35.049,35.204-35.049c2.167,0,4.291,0.196,6.349,0.571
			c-0.371-2.058-0.564-4.18-0.564-6.345c0-19.781,16.131-35.842,36.001-35.842c19.87,0,36,16.062,36,35.842
			c0,1.965-0.16,3.895-0.468,5.774h24.484c19.43,0,35.202,15.706,35.202,35.049C227.757,136.524,211.984,152.229,192.554,152.229z"
			/>
		<path d="M125.954,99.348c2.006,0,3.635-1.628,3.635-3.635c0-2.006-1.629-3.632-3.635-3.632c-6.855,0-13.067,2.782-17.565,7.278
			c-4.496,4.498-7.281,10.71-7.281,17.566c0,6.857,2.785,13.069,7.281,17.565c4.498,4.499,10.71,7.281,17.565,7.281
			c2.006,0,3.635-1.629,3.635-3.635c0-2.006-1.629-3.633-3.635-3.633c-4.849,0-9.245-1.971-12.426-5.152
			c-3.181-3.181-5.15-7.575-5.15-12.426c0-4.85,1.969-9.243,5.15-12.427C116.709,101.317,121.105,99.348,125.954,99.348z"/>
		<path d="M161.541,99.547c-1.881,0-3.406,1.526-3.406,3.408c0,1.88,1.525,3.406,3.406,3.406c2.931,0,5.582,1.221,7.496,3.184
			c1.912,1.96,3.09,4.659,3.09,7.636s-1.178,5.676-3.09,7.636c-1.914,1.962-4.565,3.184-7.496,3.184
			c-1.881,0-3.406,1.526-3.406,3.406c0,1.882,1.525,3.408,3.406,3.408c4.836,0,9.213-2.001,12.373-5.237
			c3.105-3.184,5.025-7.564,5.025-12.396s-1.92-9.212-5.025-12.394C170.753,101.548,166.376,99.547,161.541,99.547z"/>
	</g>
</g>
</svg>
