<?xml version="1.0" encoding="utf-8"?>
<!-- Generator: Adobe Illustrator 15.1.0, SVG Export Plug-In . SVG Version: 6.00 Build 0)  -->
<!DOCTYPE svg PUBLIC "-//W3C//DTD SVG 1.1//EN" "http://www.w3.org/Graphics/SVG/1.1/DTD/svg11.dtd">
<svg version="1.1" id="Layer_1" xmlns="http://www.w3.org/2000/svg" xmlns:xlink="http://www.w3.org/1999/xlink" x="0px" y="0px"
	 width="283.465px" height="283.465px" viewBox="0 0 283.465 283.465" enable-background="new 0 0 283.465 283.465"
	 xml:space="preserve">
<path fill-rule="evenodd" clip-rule="evenodd" d="M135.529,48.639l0.039,51.551c0,3.453,2.803,6.25,6.25,6.25
	c3.452-0.006,6.25-2.809,6.25-6.262l-0.033-51.551c0-3.447-2.809-6.25-6.262-6.245C138.327,42.383,135.529,45.187,135.529,48.639z
	 M46.582,90.676l36.48,36.431c2.442,2.437,6.406,2.437,8.842-0.006c2.437-2.442,2.437-6.406-0.005-8.842l-36.48-36.431
	c-2.442-2.437-6.4-2.437-8.843,0.005C44.139,84.276,44.139,88.239,46.582,90.676z M228.157,81.806l-36.437,36.481
	c-2.431,2.442-2.431,6.406,0.012,8.842c2.442,2.437,6.405,2.437,8.837-0.005l36.436-36.48c2.432-2.442,2.432-6.4-0.011-8.843
	C234.552,79.363,230.589,79.363,228.157,81.806z M270.188,170.754l-51.546,0.039c-3.452,0-6.25,2.803-6.25,6.256
	c0,3.452,2.809,6.25,6.25,6.25l51.558-0.033c3.452-0.012,6.25-2.809,6.25-6.262C276.45,173.552,273.642,170.754,270.188,170.754z
	 M64.96,170.754l-51.551,0.039c-3.453,0-6.25,2.803-6.25,6.256c0,3.452,2.803,6.25,6.256,6.25l51.551-0.033
	c3.453-0.012,6.25-2.809,6.25-6.262C71.216,173.552,68.413,170.754,64.96,170.754z M116.9,213.573h-11.935
	c-9.32-9.392-15.082-22.314-15.082-36.569c0-28.653,23.264-51.917,51.924-51.917c28.653,0,51.912,23.264,51.912,51.917
	c0,14.255-5.763,27.178-15.077,36.569h-11.934c10.68-7.727,17.629-22.637,17.629-36.813c0-23.48-19.062-42.537-42.53-42.537
	c-23.481,0-42.542,19.056-42.542,42.537C99.265,190.937,106.22,205.847,116.9,213.573z M201.568,223.254H159.97l-18.263-17.696
	l-17.38,17.696H82.035c-3.136,0-5.684,2.554-5.684,5.685c0,3.142,2.548,5.684,5.684,5.684h47.066l12.806-13.033l13.455,13.033
	h46.206c3.142,0,5.684-2.542,5.684-5.684C207.252,225.808,204.71,223.254,201.568,223.254z"/>
</svg>
