<?xml version="1.0" encoding="utf-8"?>
<!-- Generator: Adobe Illustrator 15.1.0, SVG Export Plug-In . SVG Version: 6.00 Build 0)  -->
<!DOCTYPE svg PUBLIC "-//W3C//DTD SVG 1.0//EN" "http://www.w3.org/TR/2001/REC-SVG-20010904/DTD/svg10.dtd">
<svg version="1.0" xmlns="http://www.w3.org/2000/svg" xmlns:xlink="http://www.w3.org/1999/xlink" x="0px" y="0px"
	 width="283.465px" height="283.465px" viewBox="0 0 283.465 283.465" enable-background="new 0 0 283.465 283.465"
	 xml:space="preserve">
<g id="Layer_1">
</g>
<g id="Layer_2">
</g>
<g id="Layer_3">
	<g>
		<path d="M261.563,114.502c0-29.726-24.138-53.853-53.863-53.853h-24.23c0-29.725-24.128-53.858-53.853-53.858
			c-29.724,0-53.858,24.133-53.858,53.858c-29.725,0-53.858,24.128-53.858,53.853c0,24.992,17.057,46.033,40.153,52.104
			c9.709,14.119,25.988,23.391,44.409,23.391c1.497,0,2.983-0.059,4.451-0.186c5.649,12.992,16.273,23.321,29.46,28.586
			c-3.679,4.469-5.885,10.181-5.885,16.41c0,10.021,5.724,18.728,14.073,23c-0.748,1.635-1.162,3.442-1.162,5.354
			c0,7.129,5.793,12.922,12.922,12.922s12.922-5.793,12.922-12.922c0-0.265-0.012-0.53-0.034-0.795c0.092,0,0.173,0.012,0.253,0.011
			c7.9,0,14.557-5.367,16.527-12.646c1.139,0.334,2.348,0.508,3.604,0.508c7.129,0,12.91-5.781,12.91-12.91
			c0-3.075-1.07-5.896-2.868-8.119c7.474-3.49,12.657-11.091,12.657-19.878c0-2.246-0.346-4.423-0.979-6.474
			c6.598-0.576,11.78-6.114,11.78-12.863c0-1.336-0.207-2.614-0.575-3.835c9.133-0.347,16.435-7.878,16.435-17.091
			c0-4.1-1.44-7.866-3.847-10.814C252.695,148.477,261.563,132.52,261.563,114.502z M207.7,159.73c-1.255,0-2.499-0.059-3.72-0.149
			c0.506,2.672,0.771,5.425,0.771,8.233c0,24.428-19.924,44.26-44.466,44.26c-20.454,0-37.706-13.785-42.872-32.534
			c-3.006,0.633-6.127,0.967-9.323,0.967c-16.106,0-30.249-8.452-38.144-21.12c-22.579-2.754-40.09-21.935-40.09-45.153
			c0-25.113,20.477-45.497,45.699-45.497c2.818-0.002,5.576,0.251,8.242,0.741c-0.478-2.672-0.731-5.424-0.731-8.24
			c0-25.677,20.943-46.522,46.735-46.522c25.786,0,46.723,20.845,46.723,46.522c0,2.557-0.207,5.062-0.599,7.498H207.7
			c25.223,0,45.698,20.384,45.698,45.497C253.398,139.339,232.922,159.73,207.7,159.73z"/>
		<path d="M167.449,91.342c-2.441,0-4.422,1.981-4.422,4.422c0,2.441,1.98,4.423,4.422,4.423c3.801,0,7.244,1.583,9.73,4.129
			c2.478,2.545,4.01,6.052,4.01,9.916c0,3.864-1.532,7.365-4.01,9.91c-2.486,2.545-5.931,4.134-9.73,4.134
			c-2.441,0-4.422,1.981-4.422,4.422c0,2.442,1.979,4.423,4.422,4.423c6.277,0,11.955-2.603,16.055-6.801
			c4.031-4.135,6.53-9.818,6.53-16.089c0-6.277-2.499-11.96-6.53-16.089C179.404,93.938,173.727,91.342,167.449,91.342z"/>
		<path d="M121.255,91.083c2.603,0,4.716-2.113,4.716-4.716s-2.113-4.716-4.716-4.716c-8.902,0-16.964,3.61-22.803,9.449
			c-5.839,5.839-9.449,13.901-9.449,22.798c0,8.902,3.61,16.964,9.449,22.803c5.839,5.839,13.901,9.449,22.803,9.449
			c2.603,0,4.716-2.113,4.716-4.716c0.001-2.602-2.113-4.716-4.716-4.716c-6.299,0-12-2.557-16.129-6.691
			c-4.129-4.128-6.686-9.83-6.686-16.129c0-6.294,2.557-11.995,6.686-16.129C109.254,93.64,114.956,91.083,121.255,91.083z"/>
	</g>
</g>
</svg>
