<?xml version="1.0" encoding="utf-8"?>
<!-- Generator: Adobe Illustrator 15.1.0, SVG Export Plug-In . SVG Version: 6.00 Build 0)  -->
<!DOCTYPE svg PUBLIC "-//W3C//DTD SVG 1.1//EN" "http://www.w3.org/Graphics/SVG/1.1/DTD/svg11.dtd">
<svg version="1.1" id="Layer_1" xmlns:serif="http://www.serif.com/"
	 xmlns="http://www.w3.org/2000/svg" xmlns:xlink="http://www.w3.org/1999/xlink" x="0px" y="0px" width="283.46px"
	 height="283.46px" viewBox="0 0 283.46 283.46" enable-background="new 0 0 283.46 283.46" xml:space="preserve">
<g>
	<path fill="#010001" d="M192.555,82.545h-16.631c-1.093-23.063-20.199-41.492-43.528-41.492c-23.344,0-42.459,18.453-43.528,41.539
		c-23.084,1.069-41.537,20.184-41.537,43.528c0,9.983,3.467,19.742,9.763,27.479c8.272,10.163,20.492,16.013,33.56,16.088
		l-4.312,23.584h14.825l-8.604,47.052l25.169-56.136h-14.561l18.743-41.391l-26.333-0.064l-4.179,22.858
		c-0.16-0.04-0.325-0.066-0.497-0.066c-11.903,0-23.048-5.306-30.578-14.558c-5.692-6.995-8.827-15.819-8.827-24.846
		c0-21.728,17.677-39.405,39.405-39.405c1.151,0,2.085-0.934,2.085-2.085c0-21.729,17.677-39.407,39.405-39.407
		c21.729,0,39.407,17.678,39.407,39.407c0,1.151,0.934,2.085,2.085,2.085h18.667c21.728,0,39.404,17.677,39.404,39.405
		c0,9.027-3.135,17.851-8.827,24.846c-7.529,9.252-18.675,14.558-30.577,14.558c-1.151,0-2.085,0.934-2.085,2.085
		s0.934,2.085,2.085,2.085c13.163,0,25.486-5.866,33.812-16.095c6.296-7.737,9.763-17.496,9.763-27.479
		C236.129,102.093,216.583,82.545,192.555,82.545z"/>
	<path fill="#010001" d="M128.005,206.042c-1.099-0.347-2.269,0.267-2.613,1.365l-8.705,27.746
		c-0.345,1.099,0.267,2.269,1.365,2.613c0.208,0.065,0.418,0.097,0.625,0.097c0.887,0,1.709-0.571,1.989-1.462l8.705-27.746
		C129.715,207.556,129.104,206.386,128.005,206.042z"/>
	<path fill="#010001" d="M160.883,196.903c-1.1-0.347-2.269,0.266-2.613,1.365l-8.707,27.746c-0.345,1.099,0.267,2.269,1.365,2.613
		c0.208,0.065,0.418,0.097,0.625,0.097c0.887,0,1.709-0.57,1.988-1.462l8.707-27.746
		C162.593,198.417,161.982,197.248,160.883,196.903z"/>
	<path fill="#010001" d="M144.167,154.534c-1.099-0.346-2.269,0.267-2.613,1.365l-7.134,22.744
		c-0.345,1.099,0.267,2.269,1.365,2.613c0.208,0.065,0.418,0.097,0.625,0.097c0.887,0,1.709-0.571,1.989-1.462l7.134-22.744
		C145.876,156.048,145.265,154.878,144.167,154.534z"/>
	<path fill="#010001" d="M177.045,145.396c-1.101-0.347-2.27,0.266-2.613,1.365l-7.137,22.743c-0.345,1.099,0.267,2.269,1.365,2.613
		c0.208,0.065,0.418,0.097,0.625,0.097c0.887,0,1.709-0.57,1.988-1.462l7.137-22.743
		C178.755,146.911,178.144,145.741,177.045,145.396z"/>
</g>
</svg>
