<?xml version="1.0" encoding="utf-8"?>
<!-- Generator: Adobe Illustrator 15.1.0, SVG Export Plug-In . SVG Version: 6.00 Build 0)  -->
<!DOCTYPE svg PUBLIC "-//W3C//DTD SVG 1.1//EN" "http://www.w3.org/Graphics/SVG/1.1/DTD/svg11.dtd">
<svg version="1.1" id="Layer_1" xmlns="http://www.w3.org/2000/svg" xmlns:xlink="http://www.w3.org/1999/xlink" x="0px" y="0px"
	 width="283.465px" height="283.465px" viewBox="0 0 283.465 283.465" enable-background="new 0 0 283.465 283.465"
	 xml:space="preserve">
<g>
	<path fill-rule="evenodd" clip-rule="evenodd" d="M97.65,199.24c-3.452,0-6.252-2.799-6.252-6.25c0-3.453,2.8-6.254,6.252-6.254
		s6.252,2.801,6.252,6.254C103.902,196.441,101.102,199.24,97.65,199.24z M180.573,199.24c-3.452,0-6.253-2.799-6.253-6.25
		c0-3.453,2.801-6.254,6.253-6.254c3.438,0,6.251,2.801,6.251,6.254C186.824,196.441,184.012,199.24,180.573,199.24z
		 M140.026,212.09l13.044-26.789c1.523-3.133,0.221-6.891-2.897-8.414c-3.12-1.523-6.892-0.223-8.415,2.898l-13.038,26.801
		c-1.517,3.121-0.215,6.879,2.905,8.402C134.745,216.512,138.516,215.209,140.026,212.09z M126.62,218.906
		c3.445,0,6.252,2.801,6.252,6.252c0,3.439-2.807,6.252-6.252,6.252c-3.452,0-6.252-2.813-6.252-6.252
		C120.367,221.707,123.168,218.906,126.62,218.906z M85.391,204.682l-23.995,49.293c-1.517,3.121-0.221,6.891,2.905,8.4
		c3.12,1.523,6.885,0.223,8.402-2.898l23.995-49.291c1.523-3.121,0.221-6.891-2.899-8.414
		C90.679,200.262,86.908,201.551,85.391,204.682z M110.615,272.521l14.242-29.27c1.517-3.121,0.221-6.879-2.899-8.402
		c-3.126-1.523-6.891-0.221-8.408,2.898l-14.242,29.26c-1.523,3.119-0.221,6.891,2.899,8.412
		C105.327,276.932,109.097,275.641,110.615,272.521z M168.313,204.682l-30.461,62.57c-1.523,3.121-0.221,6.891,2.899,8.402
		c3.12,1.523,6.891,0.221,8.414-2.898l30.45-62.57c1.522-3.121,0.221-6.891-2.899-8.414
		C173.596,200.262,169.825,201.551,168.313,204.682z"/>
	<path d="M204.135,57.132h-17.334C184.046,29.002,160.302,7,131.454,7c-28.928,0-52.731,22.131-55.374,50.373
		c-28.242,2.648-50.379,26.446-50.379,55.374c0,30.702,24.924,55.626,55.621,55.626h122.812c30.703,0,55.628-24.924,55.628-55.626
		C259.763,82.05,234.838,57.132,204.135,57.132z"/>
</g>
</svg>
