<?xml version="1.0" encoding="utf-8"?>
<!-- Generator: Adobe Illustrator 15.1.0, SVG Export Plug-In . SVG Version: 6.00 Build 0)  -->
<!DOCTYPE svg PUBLIC "-//W3C//DTD SVG 1.1//EN" "http://www.w3.org/Graphics/SVG/1.1/DTD/svg11.dtd">
<svg version="1.1" id="Layer_1" xmlns="http://www.w3.org/2000/svg" xmlns:xlink="http://www.w3.org/1999/xlink" x="0px" y="0px"
	 width="283.465px" height="283.465px" viewBox="0 0 283.465 283.465" enable-background="new 0 0 283.465 283.465"
	 xml:space="preserve">
<path fill-rule="evenodd" clip-rule="evenodd" d="M14.836,134.528h181.755c29.153,0,43.191-19.381,43.191-38.141
	c0-18.76-14.038-38.141-43.191-38.141c-4.235,0-7.663,3.435-7.663,7.663c0,4.228,3.428,7.663,7.663,7.663
	c18.214,0,27.866,11.09,27.866,22.815c0,11.726-9.652,22.816-27.866,22.816H14.836c-4.228,0-7.663,3.435-7.663,7.663
	S10.608,134.528,14.836,134.528z M233.273,149.255H51.526c-4.228,0-7.663,3.427-7.663,7.663c0,4.22,3.435,7.662,7.663,7.662h181.748
	c18.229,0,27.866,11.09,27.866,22.809c0,11.733-9.638,22.823-27.866,22.823c-4.221,0-7.663,3.427-7.663,7.662
	s3.442,7.663,7.663,7.663c29.153,0,43.191-19.381,43.191-38.148C276.465,168.636,262.427,149.255,233.273,149.255z"/>
</svg>
