<?xml version="1.0" encoding="utf-8"?>
<!-- Generator: Adobe Illustrator 15.1.0, SVG Export Plug-In . SVG Version: 6.00 Build 0)  -->
<!DOCTYPE svg PUBLIC "-//W3C//DTD SVG 1.1//EN" "http://www.w3.org/Graphics/SVG/1.1/DTD/svg11.dtd">
<svg version="1.1" id="Layer_1" xmlns="http://www.w3.org/2000/svg" xmlns:xlink="http://www.w3.org/1999/xlink" x="0px" y="0px"
	 width="283.465px" height="283.465px" viewBox="0 0 283.465 283.465" enable-background="new 0 0 283.465 283.465"
	 xml:space="preserve">
<path fill-rule="evenodd" clip-rule="evenodd" d="M110.635,165.552l9.528-30.357c1.001-3.198-0.776-6.603-3.974-7.604
	c-3.192-1-6.597,0.776-7.598,3.974l-9.528,30.362c-1.001,3.187,0.776,6.598,3.968,7.593
	C106.229,170.526,109.634,168.749,110.635,165.552z M184.82,74.186h24.921c27.218,0,49.318,22.101,49.318,49.325
	c0,11.785-4.146,22.61-11.051,31.097c-9.049,11.122-22.835,18.229-38.268,18.229c-3.353,0-6.064,2.712-6.064,6.063
	c0,3.341,2.712,6.064,6.064,6.064c19.223,0,36.408-8.848,47.672-22.705c8.611-10.571,13.775-24.062,13.775-38.748
	c0-33.921-27.538-61.453-61.447-61.453h-19.164c-3.044-31.073-29.279-55.389-61.151-55.389c-31.961,0-58.261,24.452-61.181,55.662
	c-31.204,2.919-55.662,29.213-55.662,61.181c0,14.687,5.164,28.177,13.775,38.748c11.27,13.857,28.449,22.705,47.678,22.705
	c3.346,0,6.064-2.724,6.064-6.064c0-3.352-2.718-6.063-6.064-6.063c-15.433,0-29.225-7.106-38.274-18.229
	c-6.905-8.486-11.051-19.312-11.051-31.097c0-27.224,22.107-49.325,49.325-49.325c3.352,0,6.064-2.718,6.064-6.064
	c0-27.224,22.101-49.325,49.325-49.325c27.218,0,49.331,22.101,49.331,49.325C178.757,71.468,181.469,74.186,184.82,74.186z
	 M184.453,184.075l9.535-30.368c0.995-3.186-0.782-6.591-3.979-7.598c-3.187-1.001-6.598,0.781-7.593,3.974l-9.534,30.356
	c-0.995,3.198,0.781,6.609,3.979,7.604C180.048,189.05,183.459,187.273,184.453,184.075z M140.571,196.275l9.522-30.369
	c1.007-3.186-0.781-6.597-3.968-7.592c-3.198-1.007-6.597,0.771-7.604,3.968l-9.528,30.356c-1.001,3.198,0.775,6.609,3.974,7.604
	C136.153,201.25,139.564,199.473,140.571,196.275z M86.965,240.998L98.59,203.95c1-3.198-0.782-6.598-3.974-7.604
	c-3.192-0.994-6.597,0.782-7.604,3.98l-11.619,37.036c-1.001,3.198,0.775,6.597,3.968,7.604
	C82.559,245.961,85.964,244.185,86.965,240.998z M160.789,259.511l11.619-37.036c1.007-3.198-0.77-6.598-3.968-7.604
	s-6.598,0.782-7.604,3.968l-11.618,37.049c-1.007,3.186,0.77,6.597,3.968,7.592C156.383,264.485,159.782,262.709,160.789,259.511z
	 M116.895,271.71l11.625-37.036c1.001-3.198-0.775-6.598-3.974-7.604c-3.192-1.006-6.597,0.782-7.598,3.968l-11.625,37.049
	c-1,3.187,0.776,6.598,3.974,7.592C112.489,276.685,115.894,274.908,116.895,271.71z"/>
</svg>
