<?xml version="1.0" encoding="utf-8"?>
<!-- Generator: Adobe Illustrator 15.1.0, SVG Export Plug-In . SVG Version: 6.00 Build 0)  -->
<!DOCTYPE svg PUBLIC "-//W3C//DTD SVG 1.1//EN" "http://www.w3.org/Graphics/SVG/1.1/DTD/svg11.dtd">
<svg version="1.1" id="Layer_1" xmlns="http://www.w3.org/2000/svg" xmlns:xlink="http://www.w3.org/1999/xlink" x="0px" y="0px"
	 width="283.465px" height="283.465px" viewBox="0 0 283.465 283.465" enable-background="new 0 0 283.465 283.465"
	 xml:space="preserve">
<g>
	<path d="M66.288,141.996c0-5.286-4.286-9.572-9.572-9.572H26.748c-5.286,0-9.572,4.286-9.572,9.572
		c0,5.287,4.286,9.572,9.572,9.572h29.968C62.002,151.568,66.288,147.283,66.288,141.996z"/>
	<path d="M37.367,92.794l25.953,14.983c4.578,2.644,10.432,1.075,13.076-3.503c2.642-4.578,1.074-10.433-3.504-13.076L46.94,76.214
		c-4.579-2.643-10.433-1.074-13.076,3.504C31.22,84.296,32.788,90.15,37.367,92.794z"/>
	<path d="M90.934,73.155c2.643,4.579,8.498,6.148,13.076,3.504c4.578-2.643,6.147-8.497,3.504-13.076L92.53,37.631
		c-2.643-4.579-8.498-6.147-13.076-3.504s-6.146,8.498-3.504,13.076L90.934,73.155z"/>
	<path d="M141.732,66.552c5.286,0,9.572-4.286,9.572-9.572V27.012c0-5.286-4.286-9.572-9.572-9.572
		c-5.287,0-9.572,4.286-9.572,9.572V56.98C132.161,62.266,136.445,66.552,141.732,66.552z"/>
	<path d="M179.454,76.66c4.578,2.642,10.433,1.074,13.076-3.504l14.983-25.952c2.644-4.579,1.074-10.433-3.504-13.076
		c-4.578-2.644-10.432-1.076-13.076,3.503l-14.982,25.953C173.307,68.162,174.876,74.016,179.454,76.66z"/>
	<path d="M207.069,104.274c2.644,4.578,8.497,6.147,13.076,3.504l25.952-14.984c4.579-2.643,6.146-8.498,3.504-13.076
		s-8.498-6.146-13.076-3.504l-25.952,14.984C205.994,93.841,204.426,99.696,207.069,104.274z"/>
	<path d="M256.717,132.424h-29.968c-5.286,0-9.572,4.285-9.572,9.572c0,5.286,4.286,9.572,9.572,9.572h29.968
		c5.286,0,9.571-4.286,9.571-9.572C266.288,136.709,262.003,132.424,256.717,132.424z"/>
	<path d="M246.098,191.197l-25.952-14.982c-4.578-2.645-10.433-1.075-13.076,3.503c-2.643,4.578-1.074,10.433,3.504,13.076
		l25.952,14.983c4.579,2.644,10.433,1.074,13.075-3.504C252.245,199.695,250.677,193.842,246.098,191.197z"/>
	<path d="M192.53,210.837c-2.643-4.579-8.497-6.147-13.075-3.504s-6.147,8.497-3.504,13.076l14.983,25.952
		c2.644,4.579,8.498,6.146,13.076,3.504s6.146-8.498,3.504-13.076L192.53,210.837z"/>
	<path d="M141.732,217.44c-5.286,0-9.572,4.286-9.572,9.572v29.968c0,5.286,4.286,9.571,9.572,9.571
		c5.287,0,9.572-4.285,9.572-9.571v-29.968C151.305,221.727,147.02,217.44,141.732,217.44z"/>
	<path d="M104.011,207.332c-4.578-2.643-10.433-1.074-13.076,3.504l-14.984,25.952c-2.643,4.579-1.074,10.433,3.504,13.076
		c4.578,2.644,10.432,1.075,13.076-3.504l14.983-25.952C110.158,215.83,108.589,209.976,104.011,207.332z"/>
	<path d="M76.396,179.718c-2.643-4.578-8.497-6.147-13.076-3.504l-25.952,14.983c-4.579,2.644-6.147,8.498-3.504,13.076
		s8.498,6.146,13.076,3.504l25.952-14.984C77.47,190.15,79.039,184.296,76.396,179.718z"/>
	<path d="M84.586,101.06c-2.75,3.76-5.133,7.801-7.108,12.071c-3.066,6.628-5.135,13.805-6.015,21.342
		c-0.042,0.355-0.074,0.713-0.111,1.069c0.405-3.653,1.133-7.207,2.15-10.638c-0.256,0.927-0.495,1.861-0.714,2.803
		c6.53-25.702,29.849-44.739,57.571-44.739c32.777,0,59.396,26.61,59.396,59.395c0,32.777-26.619,59.395-59.396,59.395
		c-31.437,0-57.203-24.481-59.252-55.409c-0.008-0.126-0.021-0.252-0.029-0.379c-0.042-0.705-0.059-1.416-0.077-2.128
		c-0.01-0.444-0.033-0.886-0.034-1.332c0,0.074-0.003,0.148-0.003,0.223c0,0.102,0.007,0.201,0.008,0.303
		c-0.007,0.229-0.008,0.46-0.008,0.697c0,39.049,31.71,70.767,70.759,70.767c39.057,0,70.774-31.718,70.774-70.767
		c0-0.168-0.012-0.332-0.013-0.5c0.001-0.167,0.013-0.332,0.013-0.5c0-2.795-0.181-5.547-0.498-8.259
		c-0.881-7.539-2.949-14.715-6.016-21.345c-1.975-4.268-4.357-8.308-7.106-12.067c-4.587-6.274-10.182-11.762-16.544-16.236
		c-3.555-2.5-7.348-4.679-11.34-6.5c-7.082-3.23-14.781-5.329-22.873-6.057c-2.106-0.189-4.234-0.302-6.39-0.302
		c-2.155,0-4.283,0.113-6.39,0.302c-8.093,0.728-15.792,2.827-22.875,6.058c-3.992,1.821-7.784,4-11.338,6.499
		C94.769,89.298,89.174,94.785,84.586,101.06z M73.793,123.922c-0.066,0.226-0.139,0.448-0.203,0.674
		C73.658,124.372,73.723,124.146,73.793,123.922z"/>
	<path d="M70.981,141.751c0.005-0.532,0.021-1.062,0.04-1.591C71.001,140.689,70.989,141.22,70.981,141.751z"/>
	<path fill="#FFFFFF" d="M73.59,124.596c0.063-0.226,0.137-0.448,0.203-0.674C73.723,124.146,73.658,124.372,73.59,124.596z"/>
</g>
</svg>
