<?xml version="1.0" encoding="utf-8"?>
<!-- Generator: Adobe Illustrator 15.1.0, SVG Export Plug-In . SVG Version: 6.00 Build 0)  -->
<!DOCTYPE svg PUBLIC "-//W3C//DTD SVG 1.1//EN" "http://www.w3.org/Graphics/SVG/1.1/DTD/svg11.dtd">
<svg version="1.1" id="Layer_1" xmlns="http://www.w3.org/2000/svg" xmlns:xlink="http://www.w3.org/1999/xlink" x="0px" y="0px"
	 width="283.465px" height="283.465px" viewBox="0 0 283.465 283.465" enable-background="new 0 0 283.465 283.465"
	 xml:space="preserve">
<path fill-rule="evenodd" clip-rule="evenodd" d="M96.464,191.032c-3.466,0-6.278-2.812-6.278-6.277s2.812-6.278,6.278-6.278
	s6.278,2.813,6.278,6.278S99.93,191.032,96.464,191.032z M179.729,191.032c-3.466,0-6.278-2.812-6.278-6.277
	s2.813-6.278,6.278-6.278c3.453,0,6.277,2.813,6.277,6.278S183.182,191.032,179.729,191.032z M186.562,84.853h25.949
	c28.355,0,51.369,23.015,51.369,51.363c0,12.272-4.316,23.539-11.507,32.382c-9.423,11.581-23.779,18.981-39.862,18.981
	c-3.478,0-6.314,2.824-6.314,6.314c0,3.479,2.837,6.315,6.314,6.315c20.03,0,37.914-9.226,49.655-23.644
	c8.967-11.014,14.344-25.063,14.344-40.35c0-35.323-28.676-63.993-63.999-63.993h-19.943c-3.17-32.357-30.488-57.678-63.678-57.678
	c-33.282,0-60.669,25.462-63.709,57.961c-32.493,3.04-57.961,30.421-57.961,63.709c0,15.287,5.377,29.336,14.344,40.35
	c11.735,14.418,29.625,23.644,49.649,23.644c3.484,0,6.314-2.837,6.314-6.315c0-3.49-2.831-6.314-6.314-6.314
	c-16.071,0-30.433-7.4-39.856-18.981c-7.19-8.843-11.507-20.109-11.507-32.382c0-28.349,23.015-51.363,51.363-51.363
	c3.49,0,6.314-2.831,6.314-6.314c0-28.349,23.015-51.363,51.363-51.363c28.342,0,51.357,23.015,51.357,51.363
	C180.246,82.022,183.083,84.853,186.562,84.853z M139.015,203.934l13.098-26.899c1.529-3.146,0.222-6.919-2.91-8.449
	c-3.133-1.529-6.92-0.222-8.449,2.911l-13.092,26.912c-1.523,3.133-0.216,6.906,2.917,8.436S137.498,207.066,139.015,203.934z
	 M125.553,210.778c3.459,0,6.278,2.813,6.278,6.278c0,3.453-2.818,6.277-6.278,6.277c-3.466,0-6.278-2.824-6.278-6.277
	C119.275,213.591,122.087,210.778,125.553,210.778z M84.155,196.496l-24.094,49.495c-1.523,3.133-0.222,6.919,2.917,8.436
	c3.133,1.529,6.913,0.223,8.437-2.91l24.093-49.495c1.529-3.133,0.222-6.919-2.911-8.448
	C89.465,192.057,85.679,193.352,84.155,196.496z M109.482,264.614l14.301-29.391c1.523-3.133,0.222-6.906-2.911-8.437
	c-3.139-1.529-6.919-0.222-8.442,2.911l-14.301,29.379c-1.529,3.133-0.222,6.919,2.911,8.448
	C104.173,269.042,107.959,267.747,109.482,264.614z M167.419,196.496l-30.587,62.827c-1.529,3.133-0.222,6.919,2.911,8.437
	c3.133,1.529,6.919,0.222,8.449-2.911l30.575-62.827c1.529-3.133,0.222-6.919-2.911-8.448
	C172.723,192.057,168.937,193.352,167.419,196.496z"/>
</svg>
