<?xml version="1.0" encoding="utf-8"?>
<!-- Generator: Adobe Illustrator 15.1.0, SVG Export Plug-In . SVG Version: 6.00 Build 0)  -->
<!DOCTYPE svg PUBLIC "-//W3C//DTD SVG 1.1//EN" "http://www.w3.org/Graphics/SVG/1.1/DTD/svg11.dtd">
<svg version="1.1" id="Layer_1" xmlns:serif="http://www.serif.com/"
	 xmlns="http://www.w3.org/2000/svg" xmlns:xlink="http://www.w3.org/1999/xlink" x="0px" y="0px" width="283.46px"
	 height="283.46px" viewBox="0 0 283.46 283.46" enable-background="new 0 0 283.46 283.46" xml:space="preserve">
<g>
	<path d="M192.556,178.581c-1.151,0-2.085-0.934-2.085-2.085s0.934-2.085,2.085-2.085c11.903,0,23.047-5.307,30.574-14.559
		c5.693-6.993,8.829-15.816,8.829-24.846c0-21.729-17.677-39.407-39.403-39.407h-18.669c-1.151,0-2.085-0.934-2.085-2.085
		c0-21.728-17.677-39.404-39.405-39.404c-21.728,0-39.405,17.677-39.405,39.404c0,1.151-0.934,2.085-2.085,2.085
		c-21.729,0-39.406,17.678-39.406,39.407c0,9.027,3.136,17.85,8.829,24.845c7.529,9.253,18.674,14.56,30.577,14.56
		c1.151,0,2.085,0.934,2.085,2.085s-0.934,2.085-2.085,2.085c-13.163,0-25.487-5.867-33.812-16.097
		c-6.297-7.737-9.765-17.495-9.765-27.478c0-23.345,18.453-42.461,41.538-43.53c1.069-23.084,20.184-41.536,43.528-41.536
		c23.328,0,42.434,18.427,43.526,41.489h16.633c24.026,0,43.573,19.548,43.573,43.577c0,9.986-3.468,19.745-9.765,27.478
		C218.042,172.713,205.72,178.581,192.556,178.581z"/>
	<circle cx="104.498" cy="200.967" r="4.538"/>
	<path d="M104.498,196.429c2.504,0,4.538,2.031,4.538,4.537s-2.034,4.537-4.538,4.537c-2.505,0-4.537-2.031-4.537-4.537
		C99.96,198.46,101.993,196.429,104.498,196.429z M104.498,203.697c-0.754,0-1.437-0.305-1.932-0.799s-0.798-1.177-0.798-1.932
		c0-0.754,0.303-1.438,0.798-1.932s1.178-0.799,1.932-0.799c0.753,0,1.438,0.305,1.933,0.799c0.492,0.494,0.798,1.178,0.798,1.932
		c0,0.755-0.306,1.438-0.798,1.932C105.935,203.392,105.25,203.697,104.498,203.697z"/>
	<circle cx="123.207" cy="226.899" r="4.538"/>
	<path d="M123.207,222.361c2.503,0,4.537,2.035,4.537,4.538c0,2.505-2.034,4.538-4.537,4.538c-2.506,0-4.54-2.033-4.54-4.538
		C118.667,224.396,120.701,222.361,123.207,222.361z M123.207,229.628c-0.755,0-1.438-0.303-1.933-0.797
		c-0.494-0.496-0.8-1.179-0.8-1.934s0.306-1.438,0.8-1.932c0.495-0.493,1.178-0.799,1.933-0.799c0.752,0,1.437,0.306,1.93,0.799
		c0.495,0.494,0.8,1.177,0.8,1.932s-0.305,1.438-0.8,1.934C124.643,229.326,123.958,229.628,123.207,229.628z"/>
	<circle cx="156.158" cy="217.824" r="4.537"/>
	<path d="M156.158,213.287c2.504,0,4.538,2.031,4.538,4.537s-2.034,4.537-4.538,4.537c-2.505,0-4.537-2.031-4.537-4.537
		S153.653,213.287,156.158,213.287z M156.158,220.554c-0.755,0-1.437-0.307-1.933-0.799c-0.494-0.494-0.8-1.178-0.8-1.933
		c0-0.754,0.306-1.437,0.8-1.932c0.496-0.495,1.178-0.8,1.933-0.8c0.752,0,1.438,0.305,1.93,0.8
		c0.496,0.495,0.801,1.178,0.801,1.932c0,0.755-0.305,1.438-0.801,1.933C157.594,220.25,156.91,220.554,156.158,220.554z"/>
	<circle cx="113.573" cy="168.209" r="4.538"/>
	<path d="M113.573,163.671c2.506,0,4.538,2.033,4.538,4.537c0,2.506-2.032,4.539-4.538,4.539c-2.505,0-4.537-2.033-4.537-4.539
		C109.036,165.705,111.068,163.671,113.573,163.671z M113.573,170.939c-0.754,0-1.437-0.303-1.932-0.797
		c-0.493-0.496-0.798-1.178-0.798-1.934c0-0.754,0.305-1.437,0.798-1.932c0.495-0.492,1.178-0.798,1.932-0.798
		c0.755,0,1.438,0.306,1.932,0.798c0.493,0.495,0.799,1.178,0.799,1.932c0,0.756-0.306,1.438-0.799,1.934
		C115.01,170.636,114.328,170.939,113.573,170.939z"/>
	<circle cx="135.949" cy="191.892" r="4.538"/>
	<path d="M135.949,187.354c2.506,0,4.54,2.032,4.54,4.538c0,2.503-2.034,4.537-4.54,4.537c-2.503,0-4.537-2.034-4.537-4.537
		C131.412,189.386,133.446,187.354,135.949,187.354z M135.949,194.623c-0.752,0-1.437-0.307-1.93-0.799
		c-0.495-0.494-0.8-1.18-0.8-1.932c0-0.755,0.305-1.438,0.8-1.932c0.493-0.496,1.178-0.799,1.93-0.799
		c0.755,0,1.439,0.303,1.932,0.799c0.495,0.494,0.801,1.177,0.801,1.932c0,0.752-0.306,1.438-0.801,1.932
		C137.388,194.316,136.704,194.623,135.949,194.623z"/>
	<circle cx="149.884" cy="155.151" r="4.538"/>
	<path d="M149.884,150.613c2.503,0,4.537,2.032,4.537,4.538c0,2.505-2.034,4.538-4.537,4.538c-2.506,0-4.538-2.033-4.538-4.538
		C145.346,152.645,147.378,150.613,149.884,150.613z M149.884,157.88c-0.756,0-1.438-0.305-1.932-0.797
		c-0.496-0.496-0.799-1.179-0.799-1.934s0.303-1.438,0.799-1.932c0.494-0.495,1.176-0.799,1.932-0.799
		c0.755,0,1.437,0.304,1.933,0.799c0.492,0.494,0.797,1.177,0.797,1.932s-0.305,1.438-0.797,1.934
		C151.321,157.576,150.639,157.88,149.884,157.88z"/>
	<circle cx="169" cy="182.816" r="4.538"/>
	<path d="M169,178.277c2.506,0,4.537,2.034,4.537,4.539c0,2.504-2.031,4.538-4.537,4.538c-2.504,0-4.537-2.034-4.537-4.538
		C164.46,180.311,166.496,178.277,169,178.277z M169,185.546c-0.754,0-1.438-0.305-1.933-0.801
		c-0.493-0.492-0.799-1.178-0.799-1.931c0-0.754,0.306-1.437,0.799-1.933c0.494-0.493,1.179-0.799,1.933-0.799
		s1.437,0.306,1.932,0.799c0.494,0.496,0.799,1.179,0.799,1.933c0,0.753-0.305,1.438-0.799,1.931
		C170.435,185.242,169.751,185.546,169,185.546z"/>
</g>
</svg>
