<?xml version="1.0" encoding="utf-8"?>
<!-- Generator: Adobe Illustrator 15.1.0, SVG Export Plug-In . SVG Version: 6.00 Build 0)  -->
<!DOCTYPE svg PUBLIC "-//W3C//DTD SVG 1.1//EN" "http://www.w3.org/Graphics/SVG/1.1/DTD/svg11.dtd">
<svg version="1.1" id="Layer_1" xmlns="http://www.w3.org/2000/svg" xmlns:xlink="http://www.w3.org/1999/xlink" x="0px" y="0px"
	 width="283.465px" height="283.465px" viewBox="0 0 283.465 283.465" enable-background="new 0 0 283.465 283.465"
	 xml:space="preserve">
<path fill-rule="evenodd" clip-rule="evenodd" d="M22.516,65.486c4.213,0,7.632,3.42,7.632,7.633s-3.419,7.64-7.632,7.64
	s-7.633-3.427-7.633-7.64S18.303,65.486,22.516,65.486z M107.261,65.486c4.213,0,7.632,3.42,7.632,7.633s-3.419,7.64-7.632,7.64
	s-7.633-3.427-7.633-7.64S103.048,65.486,107.261,65.486z M77.067,95.912c4.213,0,7.632,3.419,7.632,7.632
	c0,4.213-3.419,7.633-7.632,7.633c-4.213,0-7.633-3.419-7.633-7.633C69.435,99.332,72.854,95.912,77.067,95.912z M176.449,95.912
	c4.221,0,7.633,3.419,7.633,7.632c0,4.213-3.412,7.633-7.633,7.633c-4.205,0-7.633-3.419-7.633-7.633
	C168.816,99.332,172.244,95.912,176.449,95.912z M137.642,95.912c4.22,0,7.632,3.419,7.632,7.632c0,4.213-3.412,7.633-7.632,7.633
	c-4.206,0-7.633-3.419-7.633-7.633C130.009,99.332,133.437,95.912,137.642,95.912z M261.217,103.544c4.221,0,7.633,3.42,7.633,7.633
	s-3.412,7.64-7.633,7.64s-7.633-3.427-7.633-7.64S256.996,103.544,261.217,103.544z M14.883,134.105h181.755
	c29.153,0,43.191-19.381,43.191-38.141s-14.038-38.141-43.191-38.141c-4.235,0-7.663,3.435-7.663,7.663
	c0,4.228,3.428,7.663,7.663,7.663c18.213,0,27.866,11.09,27.866,22.816s-9.653,22.816-27.866,22.816H14.883
	c-4.235,0-7.663,3.435-7.663,7.663C7.221,130.67,10.648,134.105,14.883,134.105z M244.47,171.617c4.221,0,7.633,3.428,7.633,7.633
	c0,4.221-3.412,7.633-7.633,7.633c-4.205,0-7.633-3.412-7.633-7.633C236.837,175.045,240.265,171.617,244.47,171.617z
	 M206.142,171.617c4.206,0,7.633,3.428,7.633,7.633c0,4.221-3.427,7.633-7.633,7.633c-4.221,0-7.633-3.412-7.633-7.633
	C198.509,175.045,201.921,171.617,206.142,171.617z M167.335,171.617c4.205,0,7.633,3.428,7.633,7.633
	c0,4.221-3.428,7.633-7.633,7.633c-4.221,0-7.633-3.412-7.633-7.633C159.702,175.045,163.114,171.617,167.335,171.617z
	 M137.642,202.179c4.22,0,7.632,3.427,7.632,7.647c0,4.205-3.412,7.633-7.632,7.633c-4.206,0-7.633-3.428-7.633-7.633
	C130.009,205.605,133.437,202.179,137.642,202.179z M77.067,202.179c4.213,0,7.632,3.427,7.632,7.647
	c0,4.205-3.419,7.633-7.632,7.633c-4.213,0-7.633-3.428-7.633-7.633C69.435,205.605,72.854,202.179,77.067,202.179z M51.572,164.165
	H233.32c18.229,0,27.866,11.09,27.866,22.808c0,11.719-9.638,22.823-27.866,22.823c-4.221,0-7.663,3.428-7.663,7.663
	c0,4.22,3.442,7.662,7.663,7.662c29.153,0,43.191-19.396,43.191-38.148c0-18.752-14.038-38.141-43.191-38.141H51.572
	c-4.228,0-7.663,3.435-7.663,7.67C43.91,160.723,47.345,164.165,51.572,164.165z"/>
</svg>
