<?xml version="1.0" encoding="utf-8"?>
<!-- Generator: Adobe Illustrator 15.1.0, SVG Export Plug-In . SVG Version: 6.00 Build 0)  -->
<!DOCTYPE svg PUBLIC "-//W3C//DTD SVG 1.1//EN" "http://www.w3.org/Graphics/SVG/1.1/DTD/svg11.dtd">
<svg version="1.1" id="Layer_1" xmlns="http://www.w3.org/2000/svg" xmlns:xlink="http://www.w3.org/1999/xlink" x="0px" y="0px"
	 width="283.465px" height="283.465px" viewBox="0 0 283.465 283.465" enable-background="new 0 0 283.465 283.465"
	 xml:space="preserve">
<path fill-rule="evenodd" clip-rule="evenodd" d="M167.449,100.187c3.801,0,7.244,1.583,9.731,4.129
	c2.477,2.545,4.009,6.052,4.009,9.916c0,3.864-1.532,7.365-4.009,9.91c-2.487,2.545-5.931,4.134-9.731,4.134
	c-2.441,0-4.422,1.981-4.422,4.422c0,2.442,1.98,4.423,4.422,4.423c6.277,0,11.955-2.603,16.055-6.801
	c4.031-4.135,6.53-9.818,6.53-16.089c0-6.277-2.499-11.96-6.53-16.089c-4.1-4.204-9.777-6.8-16.055-6.8
	c-2.441,0-4.422,1.981-4.422,4.422S165.008,100.187,167.449,100.187z M121.255,136.718c-6.299,0-12-2.557-16.129-6.691
	c-4.129-4.128-6.686-9.83-6.686-16.129c0-6.294,2.557-11.995,6.686-16.129c4.128-4.129,9.83-6.686,16.129-6.686
	c2.603,0,4.716-2.113,4.716-4.716c0-2.603-2.113-4.716-4.716-4.716c-8.902,0-16.964,3.61-22.803,9.449
	c-5.839,5.839-9.449,13.901-9.449,22.798c0,8.902,3.61,16.964,9.449,22.803c5.839,5.839,13.901,9.449,22.803,9.449
	c2.603,0,4.716-2.113,4.716-4.716C125.972,138.832,123.858,136.718,121.255,136.718z M83.797,69.478
	c-0.478-2.672-0.731-5.424-0.731-8.24c0-25.677,20.943-46.522,46.735-46.522c25.786,0,46.723,20.845,46.723,46.522
	c0,2.557-0.207,5.062-0.599,7.498H207.7c25.223,0,45.699,20.384,45.699,45.497c0,25.106-20.477,45.497-45.699,45.497
	c-1.255,0-2.499-0.058-3.72-0.149c0.507,2.672,0.771,5.425,0.771,8.234c0,24.427-19.924,44.259-44.466,44.259
	c-20.454,0-37.706-13.785-42.872-32.534c-3.006,0.633-6.127,0.967-9.323,0.967c-16.106,0-30.249-8.453-38.144-21.121
	c-22.579-2.753-40.09-21.934-40.09-45.152c0-25.113,20.477-45.497,45.699-45.497C78.373,68.735,81.131,68.988,83.797,69.478z
	 M173.208,262.366c0.022,0.265,0.034,0.53,0.034,0.795c0,7.129-5.793,12.922-12.922,12.922s-12.922-5.793-12.922-12.922
	c0-1.912,0.415-3.72,1.163-5.355c-8.349-4.272-14.073-12.979-14.073-22.999c0-6.23,2.206-11.942,5.885-16.411
	c-13.187-5.264-23.811-15.594-29.46-28.585c-1.468,0.127-2.954,0.185-4.451,0.185c-18.421,0-34.7-9.271-44.409-23.391
	C38.957,160.535,21.9,139.494,21.9,114.502c0-29.725,24.133-53.853,53.858-53.853c0-29.725,24.134-53.858,53.858-53.858
	c29.725,0,53.853,24.133,53.853,53.858h24.23c29.726,0,53.864,24.127,53.864,53.853c0,18.018-8.868,33.974-22.458,43.752
	c2.407,2.948,3.847,6.714,3.847,10.814c0,9.213-7.301,16.745-16.434,17.091c0.368,1.221,0.575,2.499,0.575,3.835
	c0,6.749-5.183,12.288-11.781,12.864c0.633,2.05,0.979,4.227,0.979,6.473c0,8.787-5.183,16.388-12.657,19.878
	c1.797,2.223,2.868,5.044,2.868,8.119c0,7.129-5.781,12.91-12.91,12.91c-1.256,0-2.465-0.173-3.604-0.507
	c-1.97,7.278-8.627,12.646-16.527,12.646C173.381,262.378,173.3,262.366,173.208,262.366z"/>
</svg>
