<?xml version="1.0" encoding="utf-8"?>
<!-- Generator: Adobe Illustrator 15.1.0, SVG Export Plug-In . SVG Version: 6.00 Build 0)  -->
<!DOCTYPE svg PUBLIC "-//W3C//DTD SVG 1.1//EN" "http://www.w3.org/Graphics/SVG/1.1/DTD/svg11.dtd">
<svg version="1.1" xmlns="http://www.w3.org/2000/svg" xmlns:xlink="http://www.w3.org/1999/xlink" x="0px" y="0px"
	 width="283.46px" height="283.46px" viewBox="0 0 283.46 283.46" enable-background="new 0 0 283.46 283.46" xml:space="preserve">
<g id="Layer_2">
	<g>
		<path d="M167.683,201.311V36.869c0-16.45-12.436-29.785-27.775-29.785s-27.774,13.335-27.774,29.785v164.44
			c-9.119,7.827-14.902,19.43-14.902,32.39c0,23.569,19.107,42.678,42.678,42.678c23.571,0,42.675-19.107,42.675-42.678
			C182.585,220.74,176.802,209.138,167.683,201.311z M139.907,266.41c-17.852,0-32.324-14.471-32.324-32.324
			c0-11.113,5.61-20.914,14.151-26.732c-0.166-1.1-0.272-2.221-0.272-3.371V37.736c0-11.28,8.258-20.426,18.445-20.426
			s18.445,9.146,18.445,20.426v166.245c0,1.149-0.106,2.272-0.271,3.371c8.541,5.817,14.15,15.619,14.15,26.733
			C172.232,251.939,157.761,266.41,139.907,266.41z"/>
		<rect x="177.227" y="33.749" width="40.963" height="13.149"/>
		<rect x="177.227" y="96.905" width="40.963" height="13.149"/>
		<rect x="177.227" y="160.063" width="40.963" height="13.147"/>
	</g>
</g>
<g id="Layer_3">
	<rect x="125.481" y="166.636" width="28.854" height="29.594"/>
	<path d="M154.335,211.08v-14.85h-28.854v14.85c-7.8,4.834-12.999,13.471-12.999,23.322c0,15.146,12.279,27.426,27.426,27.426
		c15.146,0,27.425-12.279,27.425-27.426C167.333,224.55,162.136,215.914,154.335,211.08z"/>
</g>
</svg>
