<?xml version="1.0" encoding="utf-8"?>
<!-- Generator: Adobe Illustrator 15.1.0, SVG Export Plug-In . SVG Version: 6.00 Build 0)  -->
<!DOCTYPE svg PUBLIC "-//W3C//DTD SVG 1.1//EN" "http://www.w3.org/Graphics/SVG/1.1/DTD/svg11.dtd">
<svg version="1.1" id="Layer_1" xmlns="http://www.w3.org/2000/svg" xmlns:xlink="http://www.w3.org/1999/xlink" x="0px" y="0px"
	 width="283.465px" height="283.465px" viewBox="0 0 283.465 283.465" enable-background="new 0 0 283.465 283.465"
	 xml:space="preserve">
<path fill-rule="evenodd" clip-rule="evenodd" d="M199.247,65.724c3.962-0.805,7.725-1.705,11.264-2.681
	c11.416-3.145,20.422-7.037,25.854-11.599c2.527-2.122,4.268-4.197,4.268-6.596c0-2.398-1.74-4.474-4.268-6.596
	c-5.432-4.562-14.438-8.453-25.854-11.598c-17.236-4.756-39.774-7.613-64.417-7.613c-24.644,0-47.182,2.857-64.418,7.613
	C70.26,29.8,61.253,33.691,55.822,38.253c-2.528,2.122-4.274,4.198-4.274,6.596c0,2.399,1.746,4.474,4.274,6.596
	c4.256,3.575,10.699,6.737,18.782,9.453c0.394-2.493,1.587-4.944,3.698-7.237c2.745-2.98,7.359-5.843,13.556-8.147
	c10.887-4.044,27.089-6.684,45.183-6.684s34.296,2.64,45.183,6.684c6.196,2.304,10.816,5.167,13.557,8.147
	c2.633,2.857,3.845,5.967,3.845,9.089C199.624,63.749,199.506,64.742,199.247,65.724z M180.87,68.657
	c0.53-0.923,1.317-1.711,2.316-2.263c1.176-0.647,2.199-1.311,3.022-2.022c0.67-0.576,1.375-0.97,1.375-1.622
	c0-0.359-0.353-0.6-0.658-0.935c-0.493-0.535-1.117-1.046-1.847-1.546c-3.95-2.74-10.334-4.944-18.211-6.584
	c-8.56-1.788-18.812-2.816-29.828-2.816c-11.01,0-21.263,1.028-29.828,2.816c-7.872,1.64-14.25,3.844-18.206,6.584
	c-0.729,0.5-1.352,1.011-1.852,1.546c-0.299,0.335-0.658,0.576-0.658,0.935c0,0.517-0.064,1.017-0.188,1.499
	c16.56,4.027,37.293,6.408,59.785,6.408C158.332,70.656,170.054,69.95,180.87,68.657z M52.924,64.148
	c-1.829,1.14-3.38,2.316-4.609,3.563c-1.446,1.452-2.457,2.875-2.457,4.474c0,2.063,1.552,3.814,3.721,5.637
	c4.92,4.139,13.092,7.654,23.444,10.505c15.725,4.338,36.288,6.942,58.768,6.942c22.486,0,43.037-2.604,58.768-6.942
	c10.347-2.852,18.518-6.367,23.444-10.505c1.669-1.411,2.974-2.769,3.491-4.268c-18.553,5.632-43.713,9.142-71.4,9.142
	c-31.51,0-59.738-4.544-78.697-11.593C61.759,69.01,56.903,66.658,52.924,64.148z M51.042,92.936
	c-0.517,0.776-1.223,1.44-2.099,1.917c-2.134,1.176-3.897,2.392-5.202,3.709c-0.947,0.953-1.699,1.846-1.699,2.898
	c0,0.788,0.47,1.487,1.07,2.21c0.905,1.093,2.163,2.122,3.691,3.121c4.044,2.646,9.771,4.933,16.695,6.843
	c12.81,3.533,29.552,5.649,47.858,5.649c18.312,0,35.054-2.116,47.858-5.649c6.924-1.911,12.65-4.198,16.694-6.843
	c1.528-0.999,2.787-2.028,3.692-3.121c0.164-0.2,0.328-0.4,0.458-0.594c-14.132,2.674-30.64,4.233-48.269,4.233
	c-28.887,0-54.765-4.174-72.142-10.635C56.51,95.51,53.635,94.258,51.042,92.936z M49.949,121.799
	c-0.964,0.564-1.811,1.152-2.528,1.763c-0.793,0.682-1.563,1.188-1.563,1.952c0,0.306,0.235,0.546,0.458,0.829
	c0.559,0.723,1.358,1.387,2.317,2.057c4.197,2.898,10.951,5.244,19.299,6.984c9.042,1.881,19.864,2.968,31.486,2.968
	c11.627,0,22.45-1.087,31.491-2.968c8.342-1.74,15.096-4.085,19.299-6.984c0.247-0.176,0.494-0.353,0.717-0.535
	c-11.604,2.187-25.13,3.457-39.568,3.457c-23.814,0-45.147-3.451-59.479-8.777C51.225,122.299,50.578,122.052,49.949,121.799z
	 M43.547,55.983c-2.24,1.669-4.085,3.404-5.514,5.173c-2.845,3.51-4.214,7.243-4.214,11.029c0,4.214,1.699,8.371,5.243,12.227
	c0.453,0.488,0.935,0.97,1.452,1.452c-2.886,1.857-5.167,3.845-6.813,5.878c-2.504,3.086-3.697,6.384-3.697,9.717
	c0,3.704,1.476,7.372,4.591,10.752c1.046,1.135,2.304,2.251,3.768,3.345c-0.488,0.488-0.941,0.981-1.341,1.481
	c-2.187,2.692-3.203,5.573-3.203,8.477c0,3.221,1.252,6.419,3.962,9.358c2.863,3.11,7.689,6.096,14.156,8.494
	c3.297,1.235,7.054,2.328,11.192,3.281c-2.98,0.364-5.291,2.903-5.291,5.973c0,2.997,1.152,5.973,3.674,8.712
	c2.569,2.798,6.896,5.49,12.709,7.654c3.886,1.445,8.5,2.691,13.662,3.691c-2.522,0.717-4.374,3.033-4.374,5.784
	c0,2.692,1.011,5.373,3.274,7.83c2.169,2.352,5.814,4.656,10.717,6.479c4.608,1.716,10.47,3.104,17.136,3.985
	c-2.586,0.682-4.497,3.033-4.497,5.832c0,2.397,0.887,4.808,2.91,7.007c1.805,1.963,4.814,3.892,8.894,5.408
	c6.578,2.446,16.36,4.067,27.289,4.067c10.934,0,20.716-1.621,27.288-4.067c4.08-1.517,7.09-3.445,8.9-5.408
	c2.022-2.199,2.904-4.609,2.904-7.007c0-2.188-0.729-4.374-2.375-6.396c-1.165-1.434-2.869-2.845-5.15-4.104
	c-2.916-1.599-6.572-0.528-8.171,2.388c-1.576,2.856-0.564,6.454,2.233,8.089c-0.305,0.176-0.622,0.353-0.916,0.493
	c-2.799,1.281-6.62,2.28-11.076,2.975c-4.115,0.646-8.747,0.999-13.638,0.999c-4.892,0-9.523-0.353-13.638-0.999
	c-4.457-0.694-8.271-1.693-11.075-2.975c-0.899-0.412-1.97-1.164-2.428-1.493c-0.324-1.881-1.505-3.456-3.134-4.303
	c4.068,0.388,8.371,0.599,12.833,0.599c13.732,0,26.025-2.021,34.29-5.09c4.902-1.822,8.548-4.127,10.723-6.479
	c2.258-2.457,3.269-5.138,3.269-7.83c0-2.434-0.835-4.855-2.669-7.113c-1.363-1.681-3.398-3.351-6.078-4.82
	c-2.916-1.6-6.572-0.541-8.172,2.375c-1.599,2.916-0.528,6.572,2.375,8.172c0.67,0.363,1.411,0.951,1.94,1.387
	c-0.553,0.458-1.364,1.082-2.081,1.47c-2.881,1.552-6.878,2.833-11.616,3.821c-6.313,1.316-13.867,2.068-21.98,2.068
	c-8.112,0-15.666-0.752-21.98-2.068c-4.738-0.988-8.735-2.27-11.622-3.821c-1.064-0.576-2.322-1.669-2.663-1.976
	c-0.147-1.822-1.117-3.409-2.528-4.408c7.042,1.058,14.891,1.646,23.162,1.646c16.795,0,31.838-2.445,41.938-6.207
	c5.808-2.164,10.134-4.856,12.709-7.654c2.527-2.739,3.68-5.715,3.68-8.712c0-2.705-0.94-5.396-2.986-7.901
	c-1.587-1.975-3.962-3.903-7.101-5.62c-2.916-1.599-6.573-0.535-8.172,2.375c-1.599,2.916-0.528,6.572,2.375,8.171
	c0.8,0.446,1.528,0.894,2.151,1.363c0.529,0.4,0.977,0.788,1.341,1.211c0.129,0.164,0.353,0.235,0.353,0.4
	c0,0.234-0.294,0.34-0.493,0.563c-0.436,0.471-0.988,0.918-1.635,1.364c-3.621,2.505-9.465,4.515-16.666,6.02
	c-7.895,1.646-17.341,2.587-27.494,2.587c-10.146,0-19.599-0.94-27.488-2.587c-7.207-1.505-13.05-3.515-16.671-6.02
	c-0.641-0.446-1.2-0.894-1.635-1.364c-0.199-0.224-0.487-0.329-0.487-0.563c0-2.188-1.176-4.116-2.934-5.162
	c9.458,1.846,20.581,2.939,32.473,2.939c19.017,0,36.042-2.774,47.487-7.031c6.466-2.398,11.287-5.384,14.155-8.494
	c2.704-2.939,3.962-6.137,3.962-9.358c0-0.341-0.035-0.676-0.082-1c2.082-0.623,4.045-1.281,5.902-1.969
	c7.89-2.934,13.792-6.537,17.283-10.334c3.115-3.38,4.585-7.048,4.585-10.752c0-0.417-0.047-0.823-0.117-1.217
	c4.08-1.088,7.877-2.281,11.334-3.568c9.394-3.486,16.424-7.748,20.586-12.263c3.552-3.856,5.244-8.013,5.244-12.227
	c0-1.005-0.235-1.952-0.683-2.787c8.043-3.421,14.168-7.389,18.013-11.563c3.763-4.091,5.585-8.506,5.585-12.986
	c0-4.474-1.822-8.894-5.585-12.985c-4.503-4.885-12.134-9.488-22.292-13.268c-18.964-7.048-47.193-11.592-78.701-11.592
	c-31.51,0-59.738,4.544-78.697,11.592c-10.164,3.78-17.794,8.383-22.292,13.268c-3.774,4.091-5.597,8.512-5.597,12.985
	C39.509,48.658,40.832,52.426,43.547,55.983z M185.432,226.843c-0.622,0.282-1.28,0.541-1.893,0.729
	c-4.35,1.306-10.228,2.069-16.683,2.069c-6.467,0-12.345-0.764-16.695-2.069c-1.599-0.482-3.491-1.481-4.238-1.893
	c-0.677-2.587-3.027-4.503-5.826-4.503c-3.321,0-6.02,2.692-6.02,6.019c0,2.211,0.793,4.433,2.651,6.443
	c1.558,1.693,4.139,3.374,7.643,4.68c5.414,2.022,13.479,3.362,22.485,3.362c8.994,0,17.06-1.34,22.468-3.362
	c3.515-1.306,6.09-2.986,7.643-4.68c1.869-2.011,2.657-4.232,2.657-6.443c0-1.634-0.436-3.256-1.399-4.808
	c-1.011-1.634-2.739-3.292-5.279-4.691c-2.915-1.599-6.572-0.529-8.171,2.387C183.539,222.316,183.892,224.998,185.432,226.843z
	 M173.347,249.229l0.011,0.223C173.357,249.382,173.347,249.3,173.347,249.229z M189.289,247.571c-1.952,0.411-4.374,0.6-6.984,0.6
	c-3.95,0-7.478-0.447-9.582-1.387c-0.976-1.977-3.021-3.352-5.384-3.352c-3.328,0-6.021,2.704-6.021,6.02
	c0,2.575,1.364,5.632,5.221,7.701c3.186,1.716,9.029,3.057,15.766,3.057c6.737,0,12.58-1.341,15.767-3.057
	c3.856-2.069,5.231-5.126,5.231-7.701c0-1.387-0.375-2.763-1.188-4.079c-0.764-1.223-2.033-2.505-3.938-3.551
	c-2.904-1.6-6.572-0.529-8.172,2.374C189.419,245.267,189.195,246.442,189.289,247.571z M198.601,264.172
	c-0.446,0.059-0.905,0.083-1.316,0.083c-1.142,0-2.54-0.235-3.339-0.389c-1.106-1.293-2.752-2.116-4.586-2.116
	c-3.315,0-6.02,2.704-6.02,6.021c0,2.163,1.022,4.831,4.256,6.571c1.964,1.047,5.537,1.952,9.688,1.952
	c4.139,0,7.712-0.905,9.676-1.952c3.233-1.74,4.256-4.408,4.256-6.571c0-1.247-0.329-2.481-1.058-3.657
	c-0.601-0.976-1.6-2.034-3.116-2.869c-2.916-1.599-6.584-0.528-8.183,2.388C198.766,263.808,198.671,263.996,198.601,264.172z"/>
</svg>
