<?xml version="1.0" encoding="utf-8"?>
<!-- Generator: Adobe Illustrator 15.1.0, SVG Export Plug-In . SVG Version: 6.00 Build 0)  -->
<!DOCTYPE svg PUBLIC "-//W3C//DTD SVG 1.1//EN" "http://www.w3.org/Graphics/SVG/1.1/DTD/svg11.dtd">
<svg version="1.1" id="Layer_1" xmlns="http://www.w3.org/2000/svg" xmlns:xlink="http://www.w3.org/1999/xlink" x="0px" y="0px"
	 width="283.465px" height="283.465px" viewBox="0 0 283.465 283.465" enable-background="new 0 0 283.465 283.465"
	 xml:space="preserve">
<path d="M165.897,141.732l36.369,37.134h-13.68v39.966h-17.309v-19.005h-10.762v18.92c0.053,0.028,0.105,0.058,0.16,0.085h-0.16
	h-17.308H7.086c2.395-19.092,57.58-105.077,103.432-136.008l-9.804-4.013l8.151-4.312l-1.222-2.347l0.993-0.521l-2.319-2.875
	l2.235-1.812l2.694,3.326l1.597-0.833l-2.423-2.993l2.242-1.812l2.784,3.444l2.034-1.056l1.194,2.299l8.533-4.513l-2.173,10.178
	c24.766-9.915,51.857-6.276,72.73,7.631c-44.174,3.125-78.938,34.729-78.938,73.202c0,19.901,9.297,37.953,24.38,51.188v-28.14
	h-13.682L165.897,141.732z M240.009,141.732l-36.398,37.134h13.711v39.966h17.277v-19.005h10.793v19.005h17.307v-39.966h13.68
	L240.009,141.732z"/>
</svg>
