<?xml version="1.0" encoding="utf-8"?>
<!-- Generator: Adobe Illustrator 15.1.0, SVG Export Plug-In . SVG Version: 6.00 Build 0)  -->
<!DOCTYPE svg PUBLIC "-//W3C//DTD SVG 1.1//EN" "http://www.w3.org/Graphics/SVG/1.1/DTD/svg11.dtd">
<svg version="1.1" id="Layer_1" xmlns="http://www.w3.org/2000/svg" xmlns:xlink="http://www.w3.org/1999/xlink" x="0px" y="0px"
	 width="283.465px" height="283.465px" viewBox="0 0 283.465 283.465" enable-background="new 0 0 283.465 283.465"
	 xml:space="preserve">
<g>
	<path d="M211.879,109.679h-19.943C188.766,77.314,161.447,52,128.258,52c-33.283,0-60.67,25.463-63.709,57.956
		c-28.115,2.636-50.956,23.495-56.605,50.627h147.732c3.599,0,6.533,2.467,6.533,5.491c0,3.035-2.935,5.49-6.533,5.49H6.637
		c-0.023,0.699-0.05,1.396-0.05,2.101c0,2.997,0.223,5.94,0.622,8.828h128.212c3.604,0,6.532,2.456,6.532,5.491
		c0,3.024-2.928,5.49-6.532,5.49H9.732c8.35,25.636,32.444,44.189,60.848,44.189h141.299c35.323,0,63.999-28.676,63.999-63.999
		C275.878,138.348,247.202,109.679,211.879,109.679z M193.088,215.31H38.127c-3.604,0-6.532-2.455-6.532-5.49
		c0-3.024,2.928-5.491,6.532-5.491h154.961c3.598,0,6.533,2.467,6.533,5.491C199.621,212.854,196.686,215.31,193.088,215.31z"/>
</g>
</svg>
