<?xml version="1.0" encoding="utf-8"?>
<!-- Generator: Adobe Illustrator 15.1.0, SVG Export Plug-In . SVG Version: 6.00 Build 0)  -->
<!DOCTYPE svg PUBLIC "-//W3C//DTD SVG 1.1//EN" "http://www.w3.org/Graphics/SVG/1.1/DTD/svg11.dtd">
<svg version="1.1" id="Layer_1" xmlns="http://www.w3.org/2000/svg" xmlns:xlink="http://www.w3.org/1999/xlink" x="0px" y="0px"
	 width="283.465px" height="283.465px" viewBox="0 0 283.465 283.465" enable-background="new 0 0 283.465 283.465"
	 xml:space="preserve">
<g>
	<path d="M212.379,101.579h-19.943c-3.17-32.364-30.488-57.678-63.678-57.678c-33.282,0-60.669,25.463-63.709,57.956
		c-32.493,3.046-57.961,30.427-57.961,63.709c0,35.323,28.675,63.999,63.993,63.999h141.299c35.323,0,63.999-28.676,63.999-63.999
		C276.378,130.248,247.702,101.579,212.379,101.579z M23.008,152.706c-3.04,0-5.51-2.465-5.51-5.51s2.47-5.51,5.51-5.51H153.69
		c13.096,0,20.036-7.974,20.036-16.41c0-8.426-6.94-16.399-20.036-16.399c-3.045,0-5.509-2.469-5.509-5.509s2.464-5.51,5.509-5.51
		c20.962,0,31.056,13.935,31.056,27.418c0,13.494-10.094,27.429-31.056,27.429H23.008z M180.065,218.142
		c-3.035,0-5.51-2.475-5.51-5.51c0-3.045,2.475-5.51,5.51-5.51c13.106,0,20.036-7.974,20.036-16.409
		c0-8.426-6.93-16.399-20.036-16.399H49.387c-3.04,0-5.509-2.476-5.509-5.51c0-3.045,2.47-5.51,5.509-5.51h130.678
		c20.962,0,31.055,13.936,31.055,27.419C211.12,204.206,201.027,218.142,180.065,218.142z"/>
</g>
</svg>
