<?xml version="1.0" encoding="utf-8"?>
<!-- Generator: Adobe Illustrator 15.1.0, SVG Export Plug-In . SVG Version: 6.00 Build 0)  -->
<!DOCTYPE svg PUBLIC "-//W3C//DTD SVG 1.1//EN" "http://www.w3.org/Graphics/SVG/1.1/DTD/svg11.dtd">
<svg version="1.1" id="Layer_1" xmlns="http://www.w3.org/2000/svg" xmlns:xlink="http://www.w3.org/1999/xlink" x="0px" y="0px"
	 width="283.465px" height="283.465px" viewBox="0 0 283.465 283.465" enable-background="new 0 0 283.465 283.465"
	 xml:space="preserve">
<path fill-rule="evenodd" clip-rule="evenodd" d="M138.089,244.834c8.007,0,14.278-1.9,18.828-5.687
	c4.55-3.802,6.824-9.069,6.824-15.819c0-6.63-2.245-11.793-6.72-15.52c-4.49-3.727-10.79-5.583-18.932-5.583
	c-7.992,0-14.232,1.901-18.715,5.688c-4.475,3.786-6.72,8.935-6.72,15.415c0,6.884,2.208,12.197,6.623,15.924
	C123.685,242.964,129.963,244.834,138.089,244.834z M146.156,180.51c13.38,0,24.065,3.861,32.058,11.584
	c7.991,7.723,11.987,17.93,11.987,30.605c0,14.068-4.744,25.099-14.263,33.09c-9.519,7.992-22.539,12.003-39.091,12.003
	c-15.572,0-27.949-3.861-37.116-11.584c-9.167-7.722-13.754-18.273-13.754-31.653c0-7.168,1.138-13.738,3.413-19.739
	c2.275-6.002,6.585-13.2,12.923-21.611l34.534-45.707h27.298l-34.332,45.078C134.094,181.198,139.541,180.51,146.156,180.51z
	 M196.996,90.646c29.153,0,43.191-19.381,43.191-38.141c0-18.76-14.038-38.141-43.191-38.141c-4.221,0-7.663,3.427-7.663,7.663
	c0,4.228,3.442,7.663,7.663,7.663c18.229,0,27.866,11.09,27.866,22.816c0,11.726-9.638,22.815-27.866,22.815 M196.996,75.321H15.241
	c-4.228,0-7.663,3.435-7.663,7.663s3.435,7.663,7.663,7.663h181.755 M233.692,120.698c18.214,0,27.852,11.09,27.852,22.815
	c0,11.719-9.638,22.809-27.852,22.809c-4.235,0-7.662,3.442-7.662,7.663c0,4.235,3.427,7.662,7.662,7.662
	c29.154,0,43.177-19.381,43.177-38.134c0-18.759-14.022-38.141-43.177-38.141 M233.692,105.373H51.938
	c-4.235,0-7.663,3.427-7.663,7.663c0,4.228,3.427,7.663,7.663,7.663h181.755"/>
</svg>
