<?xml version="1.0" encoding="utf-8"?>
<!-- Generator: Adobe Illustrator 15.1.0, SVG Export Plug-In . SVG Version: 6.00 Build 0)  -->
<!DOCTYPE svg PUBLIC "-//W3C//DTD SVG 1.1//EN" "http://www.w3.org/Graphics/SVG/1.1/DTD/svg11.dtd">
<svg version="1.1" id="Layer_1" xmlns:serif="http://www.serif.com/"
	 xmlns="http://www.w3.org/2000/svg" xmlns:xlink="http://www.w3.org/1999/xlink" x="0px" y="0px" width="283.46px"
	 height="283.46px" viewBox="0 0 283.46 283.46" enable-background="new 0 0 283.46 283.46" xml:space="preserve">
<g>
	<path fill="none" d="M150.533,148.939c-2.658-2.207-6.396-3.311-11.219-3.311c-4.74,0-8.46,1.125-11.157,3.371
		c-2.697,2.248-4.045,5.334-4.045,9.258c0,4.004,1.328,7.111,3.984,9.318c2.655,2.206,6.395,3.309,11.218,3.309
		c4.74,0,8.458-1.122,11.155-3.37c2.696-2.248,4.047-5.292,4.047-9.134C154.516,154.294,153.189,151.145,150.533,148.939z"/>
	<path fill="#010001" d="M195.984,116.168H88.237c-1.151,0-2.085,0.934-2.085,2.085s0.934,2.085,2.085,2.085h107.747
		c13.038,0,18.977,8.286,18.977,15.984s-5.938,15.983-18.977,15.983c-1.151,0-2.085,0.934-2.085,2.085s0.934,2.085,2.085,2.085
		c15.196,0,23.146-10.139,23.146-20.153C219.13,126.307,211.18,116.168,195.984,116.168z"/>
	<path fill="#010001" d="M174.234,102.524c15.196,0,23.146-10.139,23.146-20.154c0-10.016-7.95-20.155-23.146-20.155
		c-1.151,0-2.085,0.934-2.085,2.085s0.934,2.085,2.085,2.085c13.038,0,18.977,8.286,18.977,15.985
		c0,7.697-5.937,15.981-18.97,15.984c-0.002,0-0.005,0-0.007,0H66.484c-1.151,0-2.085,0.934-2.085,2.085s0.934,2.085,2.085,2.085
		h107.74C174.227,102.523,174.231,102.524,174.234,102.524z"/>
	<path d="M161.996,138.887c-5.478-4.576-12.873-6.866-22.19-6.866c-9.727,0-17.389,2.328-22.99,6.988
		c-5.599,4.659-8.397,10.952-8.397,18.88v0.368c0,4.33,0.857,8.336,2.573,12.015c2.126,4.331,5.375,7.663,9.747,9.991
		c4.374,2.331,9.544,3.494,15.51,3.494c2.78,0,5.436-0.368,7.97-1.103l-20.354,26.604h16.184l20.474-27.096
		c3.434-4.496,5.905-8.684,7.418-12.564c1.512-3.885,2.268-7.909,2.268-12.078C170.208,149.675,167.471,143.464,161.996,138.887z
		 M150.469,167.514c-2.697,2.248-6.415,3.37-11.155,3.37c-4.823,0-8.563-1.103-11.218-3.309c-2.656-2.207-3.984-5.314-3.984-9.318
		c0-3.924,1.348-7.01,4.045-9.258c2.697-2.246,6.417-3.371,11.157-3.371c4.822,0,8.561,1.104,11.219,3.311
		c2.656,2.206,3.983,5.355,3.983,9.441C154.516,162.222,153.166,165.266,150.469,167.514z"/>
</g>
</svg>
