<?xml version="1.0" encoding="utf-8"?>
<!-- Generator: Adobe Illustrator 15.1.0, SVG Export Plug-In . SVG Version: 6.00 Build 0)  -->
<!DOCTYPE svg PUBLIC "-//W3C//DTD SVG 1.1//EN" "http://www.w3.org/Graphics/SVG/1.1/DTD/svg11.dtd">
<svg version="1.1" id="Layer_1" xmlns:serif="http://www.serif.com/"
	 xmlns="http://www.w3.org/2000/svg" xmlns:xlink="http://www.w3.org/1999/xlink" x="0px" y="0px" width="283.46px"
	 height="283.46px" viewBox="0 0 283.46 283.46" enable-background="new 0 0 283.46 283.46" xml:space="preserve">
<g>
	<g>
		<g>
			<path fill="#010001" d="M195.951,124.922H88.202c-1.151,0-2.085-0.934-2.085-2.085s0.934-2.085,2.085-2.085h107.749
				c1.151,0,2.085,0.934,2.085,2.085S197.102,124.922,195.951,124.922z"/>
			<path fill="#010001" d="M195.951,161.059c-1.151,0-2.085-0.934-2.085-2.085s0.934-2.085,2.085-2.085
				c13.037,0,18.975-8.285,18.975-15.983s-5.938-15.984-18.975-15.984c-1.151,0-2.085-0.934-2.085-2.085s0.934-2.085,2.085-2.085
				c15.195,0,23.146,10.139,23.146,20.154C219.096,150.92,211.146,161.059,195.951,161.059z"/>
		</g>
		<g>
			<path fill="#010001" d="M174.201,107.107H66.45c-1.151,0-2.085-0.934-2.085-2.085s0.934-2.085,2.085-2.085h107.75
				c1.151,0,2.085,0.934,2.085,2.085S175.352,107.107,174.201,107.107z"/>
			<path fill="#010001" d="M174.201,107.107c-1.151,0-2.085-0.934-2.085-2.085s0.934-2.085,2.085-2.085
				c13.038,0,18.977-8.286,18.977-15.984c0-7.699-5.938-15.985-18.977-15.985c-1.151,0-2.085-0.934-2.085-2.085
				s0.934-2.085,2.085-2.085c15.196,0,23.146,10.139,23.146,20.155C197.347,96.968,189.397,107.107,174.201,107.107z"/>
		</g>
	</g>
	<path d="M137.808,163.945c10.706,0,18.697,1.941,23.967,5.822c5.273,3.883,7.909,10.074,7.909,18.574
		c0,8.174-2.616,14.59-7.849,19.248c-5.23,4.66-12.381,6.988-21.454,6.988c-9.236,0-16.469-2.104-21.699-6.313
		c-5.231-4.211-7.848-10.4-7.848-18.576h15.449c0,3.763,1.225,6.623,3.676,8.582c2.453,1.963,6.009,2.944,10.666,2.944
		c4.415,0,7.704-1.063,9.87-3.188c2.168-2.125,3.248-5.149,3.248-9.071c0-4.332-1.47-7.377-4.412-9.134
		c-2.941-1.758-7.806-2.637-14.589-2.637h-21.578v-39.846h49.531v13.244h-34.082v13.362L137.808,163.945L137.808,163.945z"/>
</g>
</svg>
