<?xml version="1.0" encoding="utf-8"?>
<!-- Generator: Adobe Illustrator 15.1.0, SVG Export Plug-In . SVG Version: 6.00 Build 0)  -->
<!DOCTYPE svg PUBLIC "-//W3C//DTD SVG 1.1//EN" "http://www.w3.org/Graphics/SVG/1.1/DTD/svg11.dtd">
<svg version="1.1" id="Layer_1" xmlns="http://www.w3.org/2000/svg" xmlns:xlink="http://www.w3.org/1999/xlink" x="0px" y="0px"
	 width="283.465px" height="283.465px" viewBox="0 0 283.465 283.465" enable-background="new 0 0 283.465 283.465"
	 xml:space="preserve">
<path fill-rule="evenodd" clip-rule="evenodd" d="M170.422,243.811c6.345,0,11.344-0.928,14.995-2.783
	c3.651-1.871,6.271-4.999,7.856-9.413c1.587-4.415,2.38-10.551,2.38-18.408v-22.328c0-7.857-0.793-13.993-2.38-18.408
	c-1.586-4.415-4.205-7.558-7.856-9.413c-3.651-1.856-8.65-2.784-14.995-2.784c-6.48,0-11.509,0.928-15.101,2.784
	c-3.577,1.855-6.166,4.998-7.752,9.413c-1.587,4.415-2.38,10.551-2.38,18.408v22.328c0,7.857,0.793,13.993,2.38,18.408
	c1.586,4.414,4.175,7.542,7.752,9.413C158.913,242.883,163.941,243.811,170.422,243.811z M170.422,267.801
	c-17.241,0-30.051-4.205-38.462-12.616c-8.411-8.41-12.616-20.877-12.616-37.429v-30.814c0-16.537,4.272-29.123,12.818-37.735
	c8.553-8.621,21.304-12.931,38.26-12.931c17.375,0,30.23,4.175,38.566,12.512c8.335,8.343,12.511,20.854,12.511,37.541v30.814
	c0,16.536-4.266,29.123-12.825,37.728C200.128,263.49,187.377,267.801,170.422,267.801z M119.598,245.682v20.877H30.882v-20.877
	h34.743v-82.939l-34.743,10.97v-21.925l45.084-14.27h15.512v108.164H119.598z M196.507,90.667c29.152,0,43.176-19.38,43.176-38.14
	s-14.023-38.14-43.176-38.14c-4.235,0-7.663,3.435-7.663,7.662c0,4.228,3.428,7.663,7.663,7.663
	c18.213,0,27.851,11.089,27.851,22.815s-9.638,22.815-27.851,22.815 M196.507,75.343H14.749c-4.228,0-7.663,3.435-7.663,7.663
	c0,4.228,3.435,7.662,7.663,7.662h181.758 M233.188,120.719c18.228,0,27.865,11.089,27.865,22.815
	c0,11.726-9.638,22.814-27.865,22.814c-4.221,0-7.663,3.428-7.663,7.663c0,4.234,3.442,7.662,7.663,7.662
	c29.152,0,43.19-19.381,43.19-38.14c0-18.76-14.038-38.14-43.19-38.14 M233.188,105.394H51.437c-4.228,0-7.662,3.435-7.662,7.662
	c0,4.228,3.435,7.663,7.662,7.663h181.75"/>
</svg>
