<?xml version="1.0" encoding="utf-8"?>
<!-- Generator: Adobe Illustrator 15.1.0, SVG Export Plug-In . SVG Version: 6.00 Build 0)  -->
<!DOCTYPE svg PUBLIC "-//W3C//DTD SVG 1.1//EN" "http://www.w3.org/Graphics/SVG/1.1/DTD/svg11.dtd">
<svg version="1.1" id="Layer_1" xmlns="http://www.w3.org/2000/svg" xmlns:xlink="http://www.w3.org/1999/xlink" x="0px" y="0px"
	 width="283.465px" height="283.465px" viewBox="0 0 283.465 283.465" enable-background="new 0 0 283.465 283.465"
	 xml:space="preserve">
<path fill-rule="evenodd" clip-rule="evenodd" d="M36.021,120.639h180.933c3.832,0,6.942-3.11,6.942-6.938
	c0-3.832-3.11-6.942-6.942-6.942H36.021c-3.827,0-6.938,3.11-6.938,6.942C29.084,117.528,32.194,120.639,36.021,120.639z
	 M193.435,148.323h76.483c3.832,0,6.941-3.11,6.941-6.938c0-3.832-3.109-6.942-6.941-6.942h-76.483c-3.832,0-6.941,3.11-6.941,6.942
	C186.493,145.213,189.603,148.323,193.435,148.323z M14.51,148.323h150.462c3.832,0,6.941-3.11,6.941-6.938
	c0-3.832-3.109-6.942-6.941-6.942H14.51c-3.832,0-6.942,3.11-6.942,6.942C7.568,145.213,10.678,148.323,14.51,148.323z
	 M56.936,175.93h183.455c3.823,0,6.933-3.11,6.933-6.942s-3.109-6.941-6.933-6.941H56.936c-3.832,0-6.942,3.109-6.942,6.941
	S53.104,175.93,56.936,175.93z"/>
</svg>
