<?xml version="1.0" encoding="utf-8"?>
<!-- Generator: Adobe Illustrator 15.1.0, SVG Export Plug-In . SVG Version: 6.00 Build 0)  -->
<!DOCTYPE svg PUBLIC "-//W3C//DTD SVG 1.1//EN" "http://www.w3.org/Graphics/SVG/1.1/DTD/svg11.dtd">
<svg version="1.1" id="Layer_1" xmlns="http://www.w3.org/2000/svg" xmlns:xlink="http://www.w3.org/1999/xlink" x="0px" y="0px"
	 width="283.465px" height="283.465px" viewBox="0 0 283.465 283.465" enable-background="new 0 0 283.465 283.465"
	 xml:space="preserve">
<path fill-rule="evenodd" clip-rule="evenodd" d="M137.598,202.386c8,0,14.27-1.886,18.82-5.688
	c4.549-3.786,6.824-8.919,6.824-15.399c0-6.898-2.245-12.196-6.72-15.923s-10.79-5.582-18.924-5.582
	c-7.991,0-14.27,1.9-18.819,5.687c-4.55,3.786-6.825,8.994-6.825,15.609c0,6.765,2.245,12.002,6.727,15.714
	C123.157,200.53,129.464,202.386,137.598,202.386z M138.429,136.836c15.714,0,28.195,3.861,37.43,11.583
	c9.233,7.722,13.857,18.198,13.857,31.428c0,7.033-1.271,13.828-3.831,20.368c-2.544,6.555-6.72,13.618-12.511,21.206
	l-34.534,45.705h-27.297l34.324-44.882c-4.266,1.242-8.748,1.855-13.439,1.855c-10.064,0-18.782-1.96-26.16-5.881
	c-7.37-3.937-12.855-9.549-16.439-16.867c-2.896-6.195-4.34-12.96-4.34-20.263v-0.614c0-13.379,4.721-23.997,14.165-31.854
	C109.096,140.765,122.019,136.836,138.429,136.836z M196.511,91.229c29.152,0,43.176-19.38,43.176-38.14
	c0-18.76-14.023-38.14-43.176-38.14c-4.235,0-7.663,3.427-7.663,7.663c0,4.228,3.428,7.662,7.663,7.662
	c18.213,0,27.851,11.09,27.851,22.815c0,11.725-9.638,22.815-27.851,22.815 M196.511,75.904H14.753
	c-4.228,0-7.662,3.435-7.662,7.662c0,4.228,3.435,7.663,7.662,7.663h181.758 M233.191,121.279c18.228,0,27.866,11.09,27.866,22.815
	c0,11.718-9.639,22.808-27.866,22.808c-4.235,0-7.662,3.442-7.662,7.662c0,4.235,3.427,7.662,7.662,7.662
	c29.153,0,43.19-19.38,43.19-38.132c0-18.76-14.037-38.14-43.19-38.14 M233.191,105.955H51.441c-4.228,0-7.663,3.427-7.663,7.663
	c0,4.228,3.435,7.662,7.663,7.662h181.75"/>
</svg>
