<?xml version="1.0" encoding="utf-8"?>
<!-- Generator: Adobe Illustrator 15.1.0, SVG Export Plug-In . SVG Version: 6.00 Build 0)  -->
<!DOCTYPE svg PUBLIC "-//W3C//DTD SVG 1.1//EN" "http://www.w3.org/Graphics/SVG/1.1/DTD/svg11.dtd">
<svg version="1.1" id="Layer_1" xmlns:serif="http://www.serif.com/"
	 xmlns="http://www.w3.org/2000/svg" xmlns:xlink="http://www.w3.org/1999/xlink" x="0px" y="0px" width="283.46px"
	 height="283.46px" viewBox="0 0 283.46 283.46" enable-background="new 0 0 283.46 283.46" xml:space="preserve">
<g>
	<path d="M141.73,212.092c-38.798,0-70.362-31.564-70.362-70.362s31.564-70.362,70.362-70.362s70.362,31.564,70.362,70.362
		S180.528,212.092,141.73,212.092z M141.73,75.538c-36.499,0-66.192,29.693-66.192,66.192c0,36.499,29.693,66.192,66.192,66.192
		c36.499,0,66.192-29.693,66.192-66.192C207.922,105.231,178.229,75.538,141.73,75.538z"/>
	<path d="M141.73,87.119l29.381,98.516l-29.381-13.685l-29.381,13.685L141.73,87.119z"/>
</g>
</svg>
