<?xml version="1.0" encoding="utf-8"?>
<!-- Generator: Adobe Illustrator 15.1.0, SVG Export Plug-In . SVG Version: 6.00 Build 0)  -->
<!DOCTYPE svg PUBLIC "-//W3C//DTD SVG 1.1//EN" "http://www.w3.org/Graphics/SVG/1.1/DTD/svg11.dtd">
<svg version="1.1" id="Layer_1" xmlns="http://www.w3.org/2000/svg" xmlns:xlink="http://www.w3.org/1999/xlink" x="0px" y="0px"
	 width="283.465px" height="283.465px" viewBox="0 0 283.465 283.465" enable-background="new 0 0 283.465 283.465"
	 xml:space="preserve">
<path fill-rule="evenodd" clip-rule="evenodd" d="M164.924,244.395h56.451v22.748h-92.639v-20.684L173.2,210.9
	c8.126-6.48,13.888-12.063,17.256-16.762c3.382-4.685,5.073-9.788,5.073-15.296c0-5.792-1.796-10.236-5.373-13.35
	c-3.592-3.098-8.695-4.64-15.311-4.64c-8.68,0-14.651,1.826-17.884,5.478c-3.248,3.652-4.864,8.86-4.864,15.609v2.065h-25.846
	v-2.888c0-14.622,4.205-25.645,12.616-33.09c8.411-7.446,20.877-11.173,37.43-11.173c14.053,0,25.367,3.517,33.913,10.552
	c8.545,7.033,12.826,16.889,12.826,29.565c0,9.099-2.455,17.136-7.349,24.095c-4.895,6.975-12.437,14.308-22.644,22.03
	L164.924,244.395z M119.591,246.265v20.878H30.873v-20.878h34.744v-82.941l-34.744,10.97v-21.925l45.085-14.271H91.47v108.167
	H119.591z M196.996,91.247c29.153,0,43.191-19.381,43.191-38.141c0-18.76-14.038-38.141-43.191-38.141
	c-4.221,0-7.663,3.435-7.663,7.663s3.442,7.663,7.663,7.663c18.229,0,27.866,11.09,27.866,22.816
	c0,11.726-9.638,22.815-27.866,22.815 M196.996,75.921H15.241c-4.228,0-7.663,3.435-7.663,7.663c0,4.228,3.435,7.663,7.663,7.663
	h181.755 M233.692,121.298c18.214,0,27.852,11.09,27.852,22.816c0,11.726-9.638,22.815-27.852,22.815
	c-4.235,0-7.662,3.428-7.662,7.663s3.427,7.662,7.662,7.662c29.154,0,43.177-19.381,43.177-38.141s-14.022-38.141-43.177-38.141
	 M233.692,105.973H51.938c-4.235,0-7.663,3.435-7.663,7.663c0,4.228,3.427,7.663,7.663,7.663h181.755"/>
</svg>
