<?xml version="1.0" encoding="utf-8"?>
<!-- Generator: Adobe Illustrator 15.1.0, SVG Export Plug-In . SVG Version: 6.00 Build 0)  -->
<!DOCTYPE svg PUBLIC "-//W3C//DTD SVG 1.1//EN" "http://www.w3.org/Graphics/SVG/1.1/DTD/svg11.dtd">
<svg version="1.1" id="Layer_1" xmlns="http://www.w3.org/2000/svg" xmlns:xlink="http://www.w3.org/1999/xlink" x="0px" y="0px"
	 width="283.68px" height="283.92px" viewBox="0 0 283.68 283.92" enable-background="new 0 0 283.68 283.92" xml:space="preserve">
<g>
	<polygon points="75.87,152.842 58.667,152.842 58.667,168.011 84.627,168.011 	"/>
	<polygon points="76.479,137.145 85.542,137.145 45.261,67.376 4.979,137.145 14.042,137.145 5.208,152.445 4.979,152.842 
		14.042,152.842 5.208,168.143 4.979,168.539 31.854,168.539 31.854,195.435 58.667,195.435 58.667,168.539 85.542,168.539 
		76.479,152.842 85.542,152.842 	"/>
	<path d="M196.198,95.015c-0.84-0.383-1.641-0.835-2.39-1.358c-0.362,1.043-0.622,2.133-0.737,3.267
		C194.027,96.168,195.076,95.527,196.198,95.015z"/>
	<path d="M209.42,95.327c0.073-0.25,0.156-0.495,0.242-0.74c-0.289,0.155-0.589,0.292-0.889,0.429
		C208.991,95.114,209.207,95.217,209.42,95.327z"/>
	<path d="M197.905,66.678c1.446-0.458,2.984-0.708,4.581-0.708c1.885,0,3.684,0.361,5.352,0.991c0.027-1.983,0.431-3.876,1.15-5.608
		C204.527,61.4,200.541,63.462,197.905,66.678z"/>
	<path d="M274.271,107.231c0-4.32-1.819-8.216-4.721-10.987c-0.215-1.291-0.587-2.526-1.106-3.685c0.26-1.111,0.41-2.262,0.41-3.45
		c0-3.187-0.989-6.145-2.671-8.592c0.753-1.802,1.173-3.777,1.173-5.849c0-8.388-6.824-15.211-15.211-15.211
		c-2.652,0-5.147,0.686-7.32,1.884c-2.174-1.199-4.668-1.884-7.32-1.884c-0.451,0-0.895,0.029-1.335,0.067
		c-2.642-4.517-7.531-7.566-13.13-7.566c-6.062,0-11.291,3.572-13.733,8.714c-0.055,0-0.107-0.008-0.162-0.008
		c-5.121,0-9.649,2.551-12.408,6.442c-5.544,2.273-9.462,7.722-9.462,14.075c0,4.909,2.348,9.269,5.968,12.052
		c-0.492,1.354-0.794,2.795-0.881,4.296c-3.113,2.787-5.087,6.822-5.087,11.32c0,5.376,2.812,10.099,7.033,12.805
		c-1.176,2.158-1.845,4.629-1.845,7.255c0,8.387,6.824,15.211,15.212,15.211c2.513,0,4.879-0.623,6.969-1.706
		c1.348,1.624,3.033,2.95,4.938,3.902v51.299h26.965v-41.815c0.749,0.113,1.511,0.191,2.291,0.191
		c8.387,0,15.211-6.824,15.211-15.211c0-2.708-0.72-5.247-1.965-7.452c5.522-2.283,9.422-7.723,9.422-14.06
		c0-1.002-0.104-1.98-0.289-2.929C273.124,113.795,274.271,110.648,274.271,107.231z"/>
	<path d="M181.317,152.871l-0.525,18.092l-6.585-16.859c-5.948-15.227-10.725-35.188-14.199-59.329
		c-3.102-21.548-12.247-41.77-26.018-57.818c1.076,37.733-1.538,70.366-7.479,92.662l-4.662,17.494l-2.541-17.925
		c-0.751-5.302-1.853-10.856-3.291-16.6c-5.186,12.393-10.923,24.359-16.512,36.014c-11.283,23.529-21.027,43.85-21.027,57.408
		c0,28.609,19.029,52.849,45.093,60.752c-5.305-4.937-8.632-11.971-8.632-19.771c0-5.831,3.666-13.474,7.91-22.325
		c2.482-5.177,5.049-10.529,7.166-16.058l3.273-8.547l1.106,3.597c0.413-5.974,0.467-12.743,0.145-20.019l-0.356-7.997l5.964,5.848
		c6.757,6.673,11.247,15.678,12.639,25.349c0.291,2.02,0.606,3.948,0.947,5.787l0.059-0.234l2.249-9.059l3.709,8.564
		c5.515,12.73,9.219,26.834,9.219,35.094c0,7.802-3.327,14.836-8.632,19.772c26.064-7.902,45.095-32.143,45.095-60.753
		c0-16.426-6.378-47.708-20.492-83.144C182.778,133.621,181.587,143.516,181.317,152.871z"/>
	<path d="M157.983,224.899c-0.101,1.112-0.166,2.2-0.197,3.267l-0.448,15.512l-5.646-14.455c-2.164-5.541-3.898-12.77-5.154-21.485
		c-0.776-5.399-2.669-10.55-5.485-15.063c-0.001,8.608-0.565,19.272-2.799,27.654l-3.994,14.991l-2.18-15.36
		c-0.003-0.018-0.005-0.034-0.007-0.052c-1.189,2.602-2.396,5.118-3.532,7.487c-3.748,7.816-7.289,15.199-7.289,19.596
		c0,11.416,9.288,20.704,20.704,20.704c11.415,0,20.702-9.288,20.702-20.704C162.657,242.541,161.171,234.409,157.983,224.899z"/>
</g>
</svg>
