<?xml version="1.0" encoding="utf-8"?>
<!-- Generator: Adobe Illustrator 15.1.0, SVG Export Plug-In . SVG Version: 6.00 Build 0)  -->
<!DOCTYPE svg PUBLIC "-//W3C//DTD SVG 1.1//EN" "http://www.w3.org/Graphics/SVG/1.1/DTD/svg11.dtd">
<svg version="1.1" id="Layer_1" xmlns="http://www.w3.org/2000/svg" xmlns:xlink="http://www.w3.org/1999/xlink" x="0px" y="0px"
	 width="283.465px" height="283.465px" viewBox="0 0 283.465 283.465" enable-background="new 0 0 283.465 283.465"
	 xml:space="preserve">
<path fill-rule="evenodd" clip-rule="evenodd" d="M141.729,40.758l54.332,182.142l-54.332-25.296l-54.324,25.296L141.729,40.758z
	 M141.729,23.885c65.028,0,117.852,52.807,117.852,117.843c0,65.028-52.823,117.852-117.852,117.852
	c-65.036,0-117.843-52.823-117.843-117.852C23.885,76.692,76.692,23.885,141.729,23.885z M141.729,7.087
	C67.424,7.087,7.087,67.424,7.087,141.729c0,74.313,60.337,134.649,134.642,134.649c74.313,0,134.649-60.336,134.649-134.649
	C276.378,67.424,216.042,7.087,141.729,7.087z"/>
</svg>
