<?xml version="1.0" encoding="utf-8"?>
<!-- Generator: Adobe Illustrator 15.1.0, SVG Export Plug-In . SVG Version: 6.00 Build 0)  -->
<!DOCTYPE svg PUBLIC "-//W3C//DTD SVG 1.1//EN" "http://www.w3.org/Graphics/SVG/1.1/DTD/svg11.dtd">
<svg version="1.1" id="Layer_1" xmlns="http://www.w3.org/2000/svg" xmlns:xlink="http://www.w3.org/1999/xlink" x="0px" y="0px"
	 width="283.465px" height="283.465px" viewBox="0 0 283.465 283.465" enable-background="new 0 0 283.465 283.465"
	 xml:space="preserve">
<g>
	<path fill="#231F20" d="M7.087,7.087v269.291h269.291V7.087H7.087z M150.436,160.396v55.841h-17.777v-56.888h0.001L86.438,72.761
		h21.124l27.188,54.797c0.418,0.977,0.907,1.986,1.464,3.032c0.558,1.045,1.046,2.126,1.464,3.242
		c0.279,0.418,0.488,0.802,0.628,1.15s0.278,0.662,0.419,0.94c0.696,1.395,1.324,2.754,1.882,4.079s1.046,2.544,1.464,3.66
		c1.116-2.37,2.335-4.914,3.661-7.634c1.323-2.719,2.684-5.542,4.078-8.471l27.605-54.797h19.661L150.436,160.396z"/>
</g>
</svg>
