<?xml version="1.0" encoding="utf-8"?>
<!-- Generator: Adobe Illustrator 15.1.0, SVG Export Plug-In . SVG Version: 6.00 Build 0)  -->
<!DOCTYPE svg PUBLIC "-//W3C//DTD SVG 1.1//EN" "http://www.w3.org/Graphics/SVG/1.1/DTD/svg11.dtd">
<svg version="1.1" id="Layer_1" xmlns:serif="http://www.serif.com/"
	 xmlns="http://www.w3.org/2000/svg" xmlns:xlink="http://www.w3.org/1999/xlink" x="0px" y="0px" width="612px" height="792px"
	 viewBox="0 0 612 792" enable-background="new 0 0 612 792" xml:space="preserve">
<rect id="cloudy" x="17.871" y="101.769" fill="none" width="588.461" height="588.461"/>
<path d="M193.001,341.838c-50.467,4.727-90.021,47.256-90.021,98.951c0,54.854,44.535,99.389,99.389,99.389h219.463
	c54.854,0,99.389-44.535,99.389-99.389c0-54.854-44.535-99.389-99.389-99.389H390.86c-4.934-50.255-47.363-89.578-98.908-89.578
	C240.257,251.822,197.728,291.376,193.001,341.838L193.001,341.838z M202.37,361.017c5.418,0,9.811-4.392,9.811-9.806
	c0-44.026,35.741-79.772,79.772-79.772c44.026,0,79.771,35.746,79.771,79.772c0,5.414,4.393,9.806,9.807,9.806h40.303
	c44.03,0,79.771,35.746,79.771,79.772s-35.741,79.771-79.771,79.771H202.37c-44.026,0-79.772-35.745-79.772-79.771
	S158.343,361.017,202.37,361.017L202.37,361.017z M304.913,245.989c6.727-8.789,15.671-15.794,25.996-20.172
	c7.688-3.262,16.147-5.065,25.021-5.065c35.439,0,64.213,28.773,64.213,64.218c0,5.414,4.393,9.806,9.807,9.806h33.307
	c35.439,0,64.213,28.773,64.213,64.213c0,11.689-3.126,22.653-8.597,32.097c-2.711,4.685-1.11,10.691,3.573,13.403
	c4.685,2.711,10.691,1.11,13.403-3.573c7.142-12.339,11.237-26.655,11.237-41.927c0-46.268-37.563-83.83-83.83-83.83H439.19
	c-4.863-41.649-40.313-74.019-83.261-74.019c-11.59,0-22.639,2.358-32.681,6.619c-13.469,5.715-25.139,14.843-33.914,26.307
	c-3.291,4.298-2.472,10.46,1.827,13.751C295.459,251.106,301.622,250.288,304.913,245.989L304.913,245.989z"/>
</svg>
