<?xml version="1.0" encoding="utf-8"?>
<!-- Generator: Adobe Illustrator 15.1.0, SVG Export Plug-In . SVG Version: 6.00 Build 0)  -->
<!DOCTYPE svg PUBLIC "-//W3C//DTD SVG 1.1//EN" "http://www.w3.org/Graphics/SVG/1.1/DTD/svg11.dtd">
<svg version="1.1" id="Layer_1" xmlns:serif="http://www.serif.com/"
	 xmlns="http://www.w3.org/2000/svg" xmlns:xlink="http://www.w3.org/1999/xlink" x="0px" y="0px" width="612px" height="792px"
	 viewBox="0 0 612 792" enable-background="new 0 0 612 792" xml:space="preserve">
<rect id="cloud" y="90" fill="none" width="612" height="612"/>
<g id="cloud1" serif:id="cloud">
	<path d="M182.131,339.671c-52.48,4.916-93.617,49.146-93.617,102.909c0,57.049,46.316,103.365,103.364,103.365h228.242
		c57.048,0,103.364-46.316,103.364-103.365c0-57.048-46.316-103.364-103.364-103.364h-32.216
		c-5.126-52.265-49.259-93.161-102.865-93.161C231.282,246.055,187.052,287.191,182.131,339.671L182.131,339.671z M191.879,359.618
		c5.636,0,10.199-4.568,10.199-10.198c0-45.788,37.175-82.963,82.962-82.963c45.792,0,82.963,37.175,82.963,82.963
		c0,5.63,4.568,10.198,10.203,10.198h41.915c45.787,0,82.963,37.175,82.963,82.962c0,45.788-37.176,82.963-82.963,82.963H191.879
		c-45.787,0-82.962-37.175-82.962-82.963C108.917,396.793,146.092,359.618,191.879,359.618L191.879,359.618z"/>
</g>
</svg>
