<?xml version="1.0" encoding="utf-8"?>
<!-- Generator: Adobe Illustrator 15.1.0, SVG Export Plug-In . SVG Version: 6.00 Build 0)  -->
<!DOCTYPE svg PUBLIC "-//W3C//DTD SVG 1.1//EN" "http://www.w3.org/Graphics/SVG/1.1/DTD/svg11.dtd">
<svg version="1.1" id="Layer_1" xmlns:serif="http://www.serif.com/"
	 xmlns="http://www.w3.org/2000/svg" xmlns:xlink="http://www.w3.org/1999/xlink" x="0px" y="0px" width="612px" height="792px"
	 viewBox="0 0 612 792" enable-background="new 0 0 612 792" xml:space="preserve">
<rect id="dust" x="17.908" y="101.769" fill="none" width="588.461" height="588.461"/>
<path fill="#010001" d="M307.921,464.177h117.683c5.414,0,9.811-4.393,9.811-9.806c0-5.414-4.396-9.807-9.811-9.807H307.921
	c-5.414,0-9.806,4.393-9.806,9.807C298.115,459.784,302.507,464.177,307.921,464.177z M191.631,444.598
	c5.395,0,9.773,4.378,9.773,9.773c0,5.39-4.378,9.768-9.773,9.768c-5.39,0-9.769-4.378-9.769-9.768
	C181.863,448.976,186.241,444.598,191.631,444.598z M269.167,444.598c5.395,0,9.773,4.378,9.773,9.773
	c0,5.39-4.378,9.768-9.773,9.768c-5.39,0-9.769-4.378-9.769-9.768C259.398,448.976,263.777,444.598,269.167,444.598z
	 M464.089,444.598c5.396,0,9.773,4.378,9.773,9.773c0,5.39-4.378,9.768-9.773,9.768c-5.391,0-9.769-4.378-9.769-9.768
	C454.32,448.976,458.698,444.598,464.089,444.598z M149.352,425.056h117.683c5.414,0,9.806-4.396,9.806-9.811
	c0-5.409-4.392-9.807-9.806-9.807H149.352c-5.414,0-9.811,4.397-9.811,9.807C139.541,420.659,143.938,425.056,149.352,425.056
	L149.352,425.056z M307.163,405.477c5.395,0,9.772,4.378,9.772,9.769c0,5.395-4.378,9.773-9.772,9.773
	c-5.391,0-9.769-4.379-9.769-9.773C297.395,409.854,301.772,405.477,307.163,405.477z M356.834,405.477
	c5.39,0,9.769,4.378,9.769,9.769c0,5.395-4.379,9.773-9.769,9.773c-5.396,0-9.769-4.379-9.769-9.773
	C347.065,409.854,351.438,405.477,356.834,405.477z M405.906,405.477c5.391,0,9.769,4.378,9.769,9.769
	c0,5.395-4.378,9.773-9.769,9.773c-5.395,0-9.772-4.379-9.772-9.773C396.134,409.854,400.512,405.477,405.906,405.477z
	 M81.801,386.382h117.688c5.409,0,9.806-4.397,9.806-9.811c0-5.409-4.397-9.806-9.806-9.806H81.801
	c-5.414,0-9.806,4.397-9.806,9.806C71.995,381.985,76.387,386.382,81.801,386.382z M276.808,386.382H394.49
	c5.414,0,9.807-4.397,9.807-9.811c0-5.409-4.393-9.806-9.807-9.806H276.808c-5.414,0-9.811,4.397-9.811,9.806
	C266.997,381.985,271.394,386.382,276.808,386.382z M424.789,386.382h117.688c5.409,0,9.807-4.397,9.807-9.811
	c0-5.409-4.397-9.806-9.807-9.806H424.789c-5.414,0-9.806,4.397-9.806,9.806C414.983,381.985,419.375,386.382,424.789,386.382z
	 M238.162,366.803c5.395,0,9.773,4.378,9.773,9.769c0,5.395-4.378,9.773-9.773,9.773c-5.39,0-9.769-4.378-9.769-9.773
	C228.394,371.181,232.772,366.803,238.162,366.803z M120.479,347.436h117.683c5.414,0,9.806-4.393,9.806-9.806
	c0-5.414-4.392-9.806-9.806-9.806H120.479c-5.414,0-9.811,4.392-9.811,9.806C110.668,343.043,115.065,347.436,120.479,347.436z
	 M316.936,347.436h117.684c5.413,0,9.811-4.393,9.811-9.806c0-5.414-4.397-9.806-9.811-9.806H316.936
	c-5.413,0-9.811,4.392-9.811,9.806C307.125,343.043,311.522,347.436,316.936,347.436z M276.808,327.861
	c5.39,0,9.769,4.378,9.769,9.769c0,5.395-4.378,9.773-9.769,9.773c-5.395,0-9.773-4.378-9.773-9.773
	C267.034,332.239,271.413,327.861,276.808,327.861z M473.862,327.861c5.39,0,9.769,4.378,9.769,9.769
	c0,5.395-4.379,9.773-9.769,9.773c-5.396,0-9.773-4.378-9.773-9.773C464.089,332.239,468.467,327.861,473.862,327.861z"/>
</svg>
