<?xml version="1.0" encoding="utf-8"?>
<!-- Generator: Adobe Illustrator 15.1.0, SVG Export Plug-In . SVG Version: 6.00 Build 0)  -->
<!DOCTYPE svg PUBLIC "-//W3C//DTD SVG 1.1//EN" "http://www.w3.org/Graphics/SVG/1.1/DTD/svg11.dtd">
<svg version="1.1" id="Layer_1" xmlns:serif="http://www.serif.com/"
	 xmlns="http://www.w3.org/2000/svg" xmlns:xlink="http://www.w3.org/1999/xlink" x="0px" y="0px" width="612px" height="792px"
	 viewBox="0 0 612 792" enable-background="new 0 0 612 792" xml:space="preserve">
<rect id="hail" x="18.727" y="101.802" fill="none" width="588.461" height="588.461"/>
<path d="M245.083,585.155c5.381,0,9.75,4.368,9.75,9.749c0,5.386-4.369,9.755-9.75,9.755s-9.75-4.369-9.75-9.755
	C235.333,589.523,239.702,585.155,245.083,585.155z M315.91,572.439c5.381,0,9.749,4.369,9.749,9.75s-4.368,9.749-9.749,9.749
	s-9.75-4.368-9.75-9.749S310.529,572.439,315.91,572.439z M196.673,551.735c5.381,0,9.75,4.368,9.75,9.749s-4.369,9.75-9.75,9.75
	s-9.75-4.369-9.75-9.75S191.292,551.735,196.673,551.735z M272.001,561.744l53.691-110.302c2.368-4.867,0.339-10.743-4.524-13.11
	c-4.867-2.368-10.743-0.344-13.11,4.523l-53.691,110.302c-2.368,4.867-0.344,10.742,4.524,13.11
	C263.758,568.641,269.633,566.611,272.001,561.744z M342.828,549.023l47.501-97.581c2.368-4.868,0.339-10.743-4.529-13.111
	c-4.862-2.367-10.738-0.343-13.11,4.524l-47.496,97.586c-2.373,4.868-0.344,10.738,4.524,13.111
	C334.585,555.92,340.46,553.892,342.828,549.023L342.828,549.023z M223.592,528.319l37.421-76.877
	c2.368-4.868,0.344-10.743-4.524-13.111c-4.868-2.367-10.743-0.343-13.111,4.524l-37.421,76.877
	c-2.368,4.867-0.344,10.743,4.524,13.11C215.349,535.216,221.224,533.187,223.592,528.319z M203.227,461.276
	c-24.965,0-47.266-11.496-61.901-29.475c-11.171-13.728-17.871-31.235-17.871-50.297c0-44.026,35.746-79.771,79.772-79.771
	c5.418,0,9.811-4.393,9.811-9.806c0-44.031,35.746-79.772,79.772-79.772c44.026,0,79.772,35.741,79.772,79.772
	c0,5.414,4.393,9.806,9.806,9.806h40.303c44.031,0,79.776,35.745,79.776,79.771c0,19.062-6.703,36.569-17.875,50.297
	c-14.631,17.979-36.932,29.475-61.901,29.475c-5.409,0-9.806,4.397-9.806,9.807c0,5.414,4.396,9.811,9.806,9.811
	c31.104,0,58.889-14.315,77.117-36.71c13.92-17.108,22.271-38.924,22.271-62.679c0-54.854-44.534-99.389-99.389-99.389h-30.972
	c-4.934-50.254-47.364-89.578-98.909-89.578c-51.695,0-94.225,39.549-98.951,90.021c-50.466,4.722-90.016,47.251-90.016,98.946
	c0,23.755,8.347,45.57,22.272,62.679c18.229,22.395,46.013,36.71,77.112,36.71c5.414,0,9.811-4.396,9.811-9.811
	C213.037,465.674,208.64,461.276,203.227,461.276L203.227,461.276z"/>
</svg>
