<?xml version="1.0" encoding="utf-8"?>
<!-- Generator: Adobe Illustrator 15.1.0, SVG Export Plug-In . SVG Version: 6.00 Build 0)  -->
<!DOCTYPE svg PUBLIC "-//W3C//DTD SVG 1.1//EN" "http://www.w3.org/Graphics/SVG/1.1/DTD/svg11.dtd">
<svg version="1.1" id="Layer_1" xmlns:serif="http://www.serif.com/"
	 xmlns="http://www.w3.org/2000/svg" xmlns:xlink="http://www.w3.org/1999/xlink" x="0px" y="0px" width="612px" height="792px"
	 viewBox="0 0 612 792" enable-background="new 0 0 612 792" xml:space="preserve">
<rect id="hurricane-warning" x="18.294" y="101.802" fill="none" width="588.462" height="588.461"/>
<path d="M201.917,578.885V213.177c0-5.414-4.392-9.806-9.806-9.806c-5.414,0-9.811,4.392-9.811,9.806v365.708
	c0,5.413,4.397,9.811,9.811,9.811C197.525,588.695,201.917,584.298,201.917,578.885z M453.05,538.375V373.153H208.956v165.222
	H453.05z M412.836,413.366v84.8H249.169v-84.8H412.836z M453.05,366.37V204.265H208.956V366.37H453.05z M412.836,244.474v81.683
	c0,0.004-163.667,0.004-163.667,0.004c0-0.004,0-81.688,0-81.688H412.836z"/>
</svg>
