<?xml version="1.0" encoding="UTF-8" standalone="no"?><!DOCTYPE svg PUBLIC "-//W3C//DTD SVG 1.1//EN" "http://www.w3.org/Graphics/SVG/1.1/DTD/svg11.dtd"><svg width="100%" height="100%" viewBox="0 0 130 125" version="1.1" xmlns="http://www.w3.org/2000/svg" xmlns:xlink="http://www.w3.org/1999/xlink" xml:space="preserve" xmlns:serif="http://www.serif.com/" style="fill-rule:evenodd;clip-rule:evenodd;stroke-linejoin:round;stroke-miterlimit:2;"><rect id="_365" serif:id="365" x="0.426" y="0" width="125" height="125" style="fill:none;"/><path d="M45.023,103.372c1.388,0.425 2.465,1.147 3.23,2.167c0.765,1.02 1.147,2.324 1.147,3.91c0,2.38 -0.857,4.328 -2.571,5.844c-1.714,1.516 -4.3,2.274 -7.757,2.274c-3.286,-0 -5.815,-0.716 -7.586,-2.146c-1.771,-1.431 -2.67,-3.592 -2.699,-6.482l5.398,0c0.028,1.247 0.517,2.182 1.466,2.805c0.949,0.624 2.161,0.935 3.634,0.935c1.53,0 2.692,-0.283 3.485,-0.85c0.793,-0.566 1.19,-1.402 1.19,-2.507c0,-2.182 -1.658,-3.273 -4.973,-3.273l-2.762,0l-0,-4.292l2.465,-0c2.947,-0 4.42,-1.063 4.42,-3.188c-0,-1.02 -0.383,-1.799 -1.148,-2.337c-0.765,-0.539 -1.799,-0.808 -3.102,-0.808c-1.445,0 -2.6,0.333 -3.464,0.999c-0.864,0.666 -1.296,1.622 -1.296,2.869l-0,0.212l-5.398,0l0,-0.255c0,-2.833 0.921,-4.994 2.763,-6.481c1.842,-1.488 4.349,-2.232 7.522,-2.232c1.984,0 3.698,0.326 5.143,0.978c1.445,0.652 2.55,1.53 3.315,2.635c0.765,1.105 1.148,2.323 1.148,3.655c-0,2.607 -1.19,4.463 -3.57,5.568Zm41.076,-3.358c3.712,0 6.482,0.673 8.309,2.019c1.828,1.346 2.741,3.492 2.741,6.439c0,2.833 -0.906,5.057 -2.72,6.672c-1.813,1.615 -4.292,2.423 -7.437,2.423c-3.202,-0 -5.709,-0.73 -7.523,-2.189c-1.813,-1.459 -2.72,-3.605 -2.72,-6.439l5.355,0c0,1.304 0.425,2.295 1.275,2.975c0.85,0.68 2.083,1.02 3.698,1.02c1.53,0 2.67,-0.368 3.421,-1.105c0.751,-0.736 1.126,-1.785 1.126,-3.145c0,-1.501 -0.51,-2.557 -1.53,-3.166c-1.02,-0.609 -2.705,-0.914 -5.057,-0.914l-7.48,0l-0,-13.812l17.17,-0l-0,4.59l-11.815,-0l-0,4.632l3.187,0Zm-21.473,-0.382c2.748,-0 4.944,0.793 6.588,2.38c1.643,1.586 2.465,3.683 2.465,6.29c-0,2.89 -0.978,5.156 -2.933,6.8c-1.955,1.643 -4.633,2.465 -8.033,2.465c-3.201,-0 -5.744,-0.793 -7.628,-2.38c-1.885,-1.587 -2.827,-3.754 -2.827,-6.503c0,-1.473 0.234,-2.826 0.702,-4.059c0.467,-1.232 1.352,-2.713 2.656,-4.441l7.097,-9.392l5.61,-0l-7.055,9.265c0.879,-0.284 1.998,-0.425 3.358,-0.425Zm-1.658,13.217c1.644,0 2.933,-0.389 3.868,-1.168c0.935,-0.78 1.402,-1.863 1.402,-3.252c0,-1.36 -0.46,-2.422 -1.381,-3.187c-0.921,-0.765 -2.217,-1.148 -3.889,-1.148c-1.643,0 -2.925,0.39 -3.846,1.169c-0.921,0.779 -1.381,1.835 -1.381,3.166c-0,1.417 0.453,2.508 1.36,3.273c0.907,0.765 2.196,1.147 3.867,1.147Zm34.181,-30.941l-24.216,6.016l-44.231,-16.078l44.231,6.009l0.098,-58.378l-28.179,6.13l0,40.193l-16.15,6.046l0,-48.301l44.329,-16.112l24.118,6.033l0,68.442Z"/></svg>