<?xml version="1.0" encoding="UTF-8" standalone="no"?><!DOCTYPE svg PUBLIC "-//W3C//DTD SVG 1.1//EN" "http://www.w3.org/Graphics/SVG/1.1/DTD/svg11.dtd"><svg width="100%" height="100%" viewBox="0 0 125 125" version="1.1" xmlns="http://www.w3.org/2000/svg" xmlns:xlink="http://www.w3.org/1999/xlink" xml:space="preserve" xmlns:serif="http://www.serif.com/" style="fill-rule:evenodd;clip-rule:evenodd;stroke-linejoin:round;stroke-miterlimit:2;"><rect id="airplane" x="-0.009" y="0" width="125" height="125" style="fill:none;"/><path d="M67.766,41.927l-6.387,-2.521l1.683,-1.684c0.249,-0.249 0.249,-0.653 0,-0.902c-0.859,-0.859 -2.723,-2.723 -3.583,-3.583c-0.249,-0.249 -0.653,-0.249 -0.902,0l-3.63,3.63l-27.374,-10.807l-4.628,4.153l32.002,23.804c-8.639,8.783 -18.826,20.132 -23.516,26.674l-11.344,-4.479l-2.836,2.836l10.594,7.88c-0.442,1.31 -0.424,2.29 0.15,2.864c0.58,0.581 1.565,0.604 2.875,0.167l7.863,10.571l2.836,-2.836l-4.464,-11.306c6.545,-4.687 17.412,-15.365 26.188,-24.025l23.806,32.004l4.628,-4.152l-10.81,-27.384l3.627,-3.627c0.249,-0.249 0.249,-0.653 0,-0.902c-0.86,-0.86 -2.724,-2.724 -3.583,-3.583c-0.249,-0.249 -0.653,-0.249 -0.902,-0l-1.681,1.68l-2.533,-6.417c5.684,-5.94 12.116,-12.702 14.041,-14.723c2.57,-2.698 4.646,-5.844 6.641,-8.991c0.735,-1.16 1.88,-4.048 0.46,-5.468c-1.427,-1.428 -4.311,-0.316 -5.497,0.432c-3.152,1.987 -6.305,4.057 -9.004,6.627c-2.023,1.925 -8.781,8.366 -14.72,14.068Z"/></svg>