<?xml version="1.0" encoding="UTF-8" standalone="no"?><!DOCTYPE svg PUBLIC "-//W3C//DTD SVG 1.1//EN" "http://www.w3.org/Graphics/SVG/1.1/DTD/svg11.dtd"><svg width="100%" height="100%" viewBox="0 0 130 130" version="1.1" xmlns="http://www.w3.org/2000/svg" xmlns:xlink="http://www.w3.org/1999/xlink" xml:space="preserve" xmlns:serif="http://www.serif.com/" style="fill-rule:evenodd;clip-rule:evenodd;stroke-linejoin:round;stroke-miterlimit:2;"><rect id="atrrs" x="3.712" y="0.157" width="125" height="125" style="fill:none;"/><path d="M117.864,51.631c0,-2.172 -0.862,-4.254 -2.398,-5.789c-1.535,-1.536 -3.617,-2.398 -5.789,-2.398l-86.93,-0c-2.171,-0 -4.254,0.862 -5.789,2.398c-1.535,1.535 -2.398,3.617 -2.398,5.789l0,22.053c0,2.171 0.863,4.254 2.398,5.789c1.535,1.535 3.618,2.398 5.789,2.398l86.93,-0c2.172,-0 4.254,-0.863 5.789,-2.398c1.536,-1.535 2.398,-3.618 2.398,-5.789l0,-22.053Zm-14.39,22.501c-2.718,-0 -4.829,-0.595 -6.332,-1.786c-1.504,-1.191 -2.256,-2.857 -2.256,-4.998l0,-0.83l4.547,0l-0,0.578c-0,2.044 1.383,3.067 4.15,3.067c2.501,-0 3.752,-0.746 3.752,-2.237c0,-0.53 -0.114,-0.957 -0.343,-1.281c-0.228,-0.325 -0.625,-0.62 -1.19,-0.884c-0.566,-0.265 -1.402,-0.554 -2.508,-0.866l-1.48,-0.433c-1.78,-0.506 -3.163,-1.041 -4.149,-1.606c-0.986,-0.565 -1.696,-1.251 -2.129,-2.057c-0.433,-0.806 -0.65,-1.81 -0.65,-3.013c0,-1.299 0.343,-2.448 1.029,-3.446c0.685,-0.998 1.66,-1.774 2.923,-2.327c1.262,-0.554 2.748,-0.83 4.456,-0.83c2.598,-0 4.601,0.625 6.008,1.876c1.407,1.251 2.111,3.043 2.111,5.377l-0,0.324l-4.547,0l0,-0.577c0,-0.986 -0.313,-1.738 -0.938,-2.255c-0.626,-0.517 -1.492,-0.776 -2.598,-0.776c-1.227,-0 -2.165,0.21 -2.815,0.631c-0.649,0.421 -0.974,1.005 -0.974,1.751c0,0.505 0.126,0.914 0.379,1.226c0.253,0.313 0.686,0.596 1.299,0.848c0.613,0.253 1.594,0.584 2.941,0.993l1.804,0.541c2.069,0.625 3.596,1.437 4.583,2.436c0.986,0.998 1.479,2.243 1.479,3.734c0,2.117 -0.764,3.783 -2.291,4.998c-1.528,1.215 -3.615,1.822 -6.261,1.822Zm-67.632,-4.871l-9.201,-0l-1.804,4.654l-4.439,0l9.202,-22.516l3.536,0l9.201,22.516l-4.727,0l-1.768,-4.654Zm39.099,-10.428c0,1.9 -0.397,3.391 -1.191,4.474c-0.793,1.082 -2.105,1.864 -3.933,2.345l5.124,8.263l-5.196,0l-4.655,-7.757l-3.283,-0l-0,7.757l-4.511,0l0,-22.516l7.794,0c3.464,0 5.972,0.602 7.524,1.804c1.551,1.203 2.327,3.08 2.327,5.63Zm18.901,-0c0,1.9 -0.397,3.391 -1.191,4.474c-0.793,1.082 -2.104,1.864 -3.933,2.345l5.124,8.263l-5.196,0l-4.655,-7.757l-3.283,-0l-0,7.757l-4.511,0l0,-22.516l7.794,0c3.464,0 5.972,0.602 7.524,1.804c1.551,1.203 2.327,3.08 2.327,5.63Zm-37.996,-3.356l-7.036,-0l-0,18.438l-4.511,0l0,-18.438l-7.036,-0l0,-4.078l18.583,0l0,4.078Zm-21.483,9.887l-3.031,-8.047l-0.072,0l-3.104,8.047l6.207,-0Zm27.444,-3.212l3.608,0c1.323,0 2.333,-0.114 3.031,-0.343c0.698,-0.228 1.191,-0.583 1.479,-1.064c0.289,-0.481 0.433,-1.155 0.433,-2.021c0,-1.178 -0.366,-2.02 -1.1,-2.526c-0.734,-0.505 -2.075,-0.757 -4.023,-0.757l-3.428,-0l-0,6.711Zm18.901,0l3.608,0c1.323,0 2.333,-0.114 3.031,-0.343c0.698,-0.228 1.191,-0.583 1.48,-1.064c0.288,-0.481 0.433,-1.155 0.433,-2.021c-0,-1.178 -0.367,-2.02 -1.101,-2.526c-0.734,-0.505 -2.075,-0.757 -4.023,-0.757l-3.428,-0l-0,6.711Z"/></svg>