<?xml version="1.0" encoding="UTF-8" standalone="no"?><!DOCTYPE svg PUBLIC "-//W3C//DTD SVG 1.1//EN" "http://www.w3.org/Graphics/SVG/1.1/DTD/svg11.dtd"><svg width="100%" height="100%" viewBox="0 0 130 130" version="1.1" xmlns="http://www.w3.org/2000/svg" xmlns:xlink="http://www.w3.org/1999/xlink" xml:space="preserve" xmlns:serif="http://www.serif.com/" style="fill-rule:evenodd;clip-rule:evenodd;stroke-linejoin:round;stroke-miterlimit:2;"><rect id="billeting-mgmt" x="0.624" y="0.127" width="125" height="125" style="fill:none;"/><path d="M68.17,10.699c-3.356,-0.326 -6.736,-0.326 -10.092,-0l-1.662,8.092c-3.216,0.492 -6.369,1.337 -9.401,2.519l-5.485,-6.177c-3.069,1.396 -5.996,3.086 -8.74,5.046l2.607,7.839c-2.54,2.034 -4.848,4.342 -6.882,6.882l-7.839,-2.607c-1.96,2.744 -3.65,5.671 -5.046,8.74l6.177,5.485c-1.182,3.032 -2.027,6.185 -2.519,9.401l-8.092,1.663c-0.326,3.356 -0.326,6.735 -0,10.091l8.092,1.662c0.492,3.217 1.337,6.37 2.519,9.402l-6.177,5.485c1.396,3.069 3.086,5.996 5.046,8.739l7.839,-2.606c2.034,2.54 4.342,4.848 6.882,6.882l-2.607,7.839c2.744,1.96 5.671,3.65 8.74,5.046l5.485,-6.177c3.032,1.182 6.185,2.027 9.401,2.519l1.662,8.092c3.356,0.326 6.736,0.326 10.092,-0l1.662,-8.092c3.217,-0.492 6.37,-1.337 9.401,-2.519l5.486,6.177c3.069,-1.396 5.996,-3.086 8.739,-5.046l-2.606,-7.839c2.54,-2.034 4.848,-4.342 6.882,-6.882l7.839,2.606c1.96,-2.743 3.65,-5.67 5.046,-8.739l-6.177,-5.485c1.182,-3.032 2.027,-6.185 2.519,-9.402l8.092,-1.662c0.326,-3.356 0.326,-6.735 -0,-10.091l-8.092,-1.663c-0.492,-3.216 -1.337,-6.369 -2.519,-9.401l6.177,-5.485c-1.396,-3.069 -3.086,-5.996 -5.046,-8.74l-7.839,2.607c-2.034,-2.54 -4.342,-4.848 -6.882,-6.882l2.606,-7.839c-2.743,-1.96 -5.67,-3.65 -8.739,-5.046l-5.486,6.177c-3.031,-1.182 -6.184,-2.027 -9.401,-2.519l-1.662,-8.092Zm-5.046,20.406c17.398,-0 31.523,14.125 31.523,31.522c0,17.398 -14.125,31.523 -31.523,31.523c-17.398,0 -31.522,-14.125 -31.522,-31.523c-0,-17.397 14.124,-31.522 31.522,-31.522Zm24.214,45.883c0.233,0 0.457,-0.093 0.622,-0.258c0.165,-0.165 0.258,-0.388 0.258,-0.622c-0,-2.641 -0,-10.481 -0,-13.123c-0,-0.486 -0.394,-0.879 -0.88,-0.879c-5.766,-0 -38.092,-0 -43.858,-0c-0.233,-0 -0.457,-0.093 -0.622,-0.258c-0.165,-0.165 -0.258,-0.389 -0.258,-0.622c0,-2.493 0,-9.586 0,-12.079c0,-0.234 -0.093,-0.458 -0.258,-0.623c-0.165,-0.165 -0.389,-0.257 -0.622,-0.257c-0.808,-0 -2.001,-0 -2.809,-0c-0.234,-0 -0.457,0.092 -0.622,0.257c-0.165,0.165 -0.258,0.389 -0.258,0.623c-0,4.258 -0,22.702 -0,26.961c-0,0.234 0.093,0.457 0.258,0.622c0.165,0.165 0.388,0.258 0.622,0.258c0.808,0 2.001,0 2.809,0c0.233,0 0.457,-0.093 0.622,-0.258c0.165,-0.165 0.258,-0.388 0.258,-0.622c0,-1.153 0,-3.165 0,-4.319c0,-0.233 0.093,-0.457 0.258,-0.622c0.165,-0.165 0.389,-0.258 0.622,-0.258c5.39,0 33.898,0 39.289,0c0.233,0 0.457,0.093 0.622,0.258c0.165,0.165 0.258,0.389 0.258,0.622c-0,1.154 -0,3.166 -0,4.319c-0,0.234 0.092,0.457 0.257,0.622c0.165,0.165 0.389,0.258 0.623,0.258c0.808,0 2,0 2.809,0Zm-39.717,-24.029c2.266,-0 4.107,1.84 4.107,4.107c-0,2.266 -1.841,4.107 -4.107,4.107c-2.267,-0 -4.107,-1.841 -4.107,-4.107c-0,-2.267 1.84,-4.107 4.107,-4.107Zm40.597,4.834c-0,-2.67 -2.164,-4.834 -4.834,-4.834c-7.663,-0 -22.323,-0 -28.092,-0c-0.641,-0 -1.256,0.255 -1.71,0.708c-0.453,0.454 -0.708,1.069 -0.708,1.71c-0,1.678 -0,3.81 -0,4.964c-0,0.459 0.372,0.832 0.832,0.832c4.761,-0 28.519,-0 33.568,-0c0.25,-0 0.49,-0.1 0.667,-0.277c0.177,-0.177 0.277,-0.417 0.277,-0.668c-0,-0.628 -0,-1.506 -0,-2.435Zm-61.431,-7.139c0.276,-0.373 0.591,-0.619 0.944,-0.737c0.352,-0.119 0.762,-0.113 1.227,0.016c0.779,0.216 1.289,0.615 1.53,1.197c0.241,0.581 0.223,1.37 -0.053,2.365l-0.84,3.023l-7.515,-2.086l0.845,-3.047c0.237,-0.851 0.571,-1.426 1.005,-1.726c0.433,-0.299 0.983,-0.356 1.649,-0.171c0.305,0.085 0.56,0.22 0.763,0.407c0.204,0.186 0.352,0.439 0.445,0.759Zm76.311,5.748l-0.565,-2.371l-6.214,1.479l-0.361,-1.52l6.213,-1.479l-0.564,-2.371l1.374,-0.328l1.491,6.263l-1.374,0.327Zm-73.905,-3.342c0.138,-0.498 0.151,-0.864 0.039,-1.098c-0.112,-0.235 -0.345,-0.401 -0.698,-0.499c-0.337,-0.094 -0.615,-0.06 -0.832,0.1c-0.218,0.16 -0.398,0.497 -0.54,1.011l-0.425,1.53l2.012,0.558l0.444,-1.602Zm-3.903,-2.108c-0.265,-0.074 -0.494,-0.036 -0.687,0.114c-0.193,0.15 -0.349,0.441 -0.47,0.875l-0.371,1.337l1.674,0.464l0.418,-1.505c0.107,-0.386 0.112,-0.676 0.015,-0.872c-0.097,-0.195 -0.29,-0.333 -0.579,-0.413Zm76.76,-3.928l-6.922,3.594l-0.691,-1.331l4.359,-2.264l-4.889,-0.194l-0.08,-0.155l2.669,-4.217l-4.415,2.292l-0.686,-1.32l6.923,-3.594l0.662,1.276l-2.793,4.52l5.236,0.183l0.627,1.21Zm-77.302,-0.831l0.643,-1.425l7.109,3.21l-0.643,1.424l-7.109,-3.209Zm10.128,-4.94l1.174,0.763l-2.8,4.308l-6.54,-4.251l0.851,-1.31l5.367,3.488l1.948,-2.998Zm58.381,-1.988l-2.987,2.753l-0.856,-0.929l0.574,-0.613c-0.375,0.073 -0.735,0.026 -1.082,-0.142c-0.347,-0.167 -0.702,-0.447 -1.063,-0.839c-1.333,-1.447 -1.303,-2.811 0.088,-4.093l1.627,-1.499c0.711,-0.655 1.431,-0.944 2.159,-0.867c0.728,0.077 1.448,0.502 2.159,1.274c0.768,0.834 1.146,1.585 1.133,2.254c-0.013,0.669 -0.325,1.285 -0.938,1.85l-0.101,0.093l-1.059,-1.149l0.083,-0.076c0.214,-0.198 0.355,-0.387 0.421,-0.567c0.066,-0.18 0.055,-0.382 -0.033,-0.607c-0.088,-0.225 -0.276,-0.494 -0.564,-0.806c-0.429,-0.466 -0.813,-0.707 -1.151,-0.724c-0.338,-0.017 -0.685,0.138 -1.041,0.466l-1.645,1.516c-0.331,0.305 -0.501,0.625 -0.509,0.961c-0.008,0.336 0.203,0.737 0.632,1.203c0.395,0.429 0.765,0.66 1.108,0.695c0.344,0.035 0.672,-0.092 0.985,-0.38l0.009,-0.008l-0.906,-0.984l0.992,-0.915l1.965,2.133Zm-54.012,-2.8l1.016,0.963l-3.534,3.729l-5.661,-5.366l1.075,-1.134l4.645,4.403l2.459,-2.595Zm-0.672,-5.837l1.03,1.416l2.77,-2.015l0.823,1.133l-2.77,2.014l1.081,1.486l2.992,-2.176l0.824,1.132l-4.256,3.095l-4.588,-6.308l4.256,-3.095l0.831,1.142l-2.993,2.176Zm50.283,-1.101l-4.176,6.587l-1.267,-0.803l2.63,-4.149l-4.323,2.291l-0.148,-0.093l0.187,-4.988l-2.664,4.202l-1.256,-0.797l4.176,-6.587l1.214,0.769l-0.141,5.313l4.617,-2.475l1.151,0.73Zm-39.912,-4.79l-2.207,1.035l2.713,5.783l-1.415,0.663l-2.712,-5.783l-2.207,1.036l-0.6,-1.279l5.828,-2.734l0.6,1.279Zm1.396,-1.853l1.496,-0.45l2.249,7.468l-1.496,0.451l-2.249,-7.469Zm20.874,2.471l-0.519,4.029l-1.252,-0.161l0.045,-0.839c-0.24,0.297 -0.547,0.493 -0.92,0.588c-0.374,0.094 -0.825,0.108 -1.354,0.039c-1.951,-0.251 -2.805,-1.315 -2.563,-3.191l0.283,-2.194c0.123,-0.959 0.489,-1.643 1.096,-2.052c0.607,-0.409 1.431,-0.547 2.473,-0.412c1.124,0.145 1.896,0.477 2.316,0.998c0.42,0.52 0.577,1.194 0.471,2.02l-0.018,0.137l-1.549,-0.2l0.014,-0.112c0.037,-0.289 0.023,-0.524 -0.042,-0.705c-0.065,-0.18 -0.203,-0.328 -0.415,-0.444c-0.212,-0.115 -0.529,-0.2 -0.95,-0.255c-0.628,-0.081 -1.077,-0.019 -1.347,0.186c-0.27,0.205 -0.436,0.547 -0.498,1.026l-0.286,2.219c-0.058,0.446 0.018,0.801 0.228,1.063c0.21,0.262 0.629,0.434 1.257,0.515c0.579,0.075 1.011,0.015 1.296,-0.18c0.286,-0.194 0.456,-0.502 0.51,-0.923l0.002,-0.013l-1.327,-0.171l0.173,-1.339l2.876,0.371Zm-9.461,-4.581l0.887,7.75l-1.391,0.159l-4.55,-4.688l0.588,5.141l-1.465,0.168l-0.887,-7.749l1.391,-0.159l4.56,4.774l-0.599,-5.228l1.466,-0.168Z"/></svg>