<?xml version="1.0" encoding="UTF-8" standalone="no"?><!DOCTYPE svg PUBLIC "-//W3C//DTD SVG 1.1//EN" "http://www.w3.org/Graphics/SVG/1.1/DTD/svg11.dtd"><svg width="100%" height="100%" viewBox="0 0 130 125" version="1.1" xmlns="http://www.w3.org/2000/svg" xmlns:xlink="http://www.w3.org/1999/xlink" xml:space="preserve" xmlns:serif="http://www.serif.com/" style="fill-rule:evenodd;clip-rule:evenodd;stroke-linejoin:round;stroke-miterlimit:2;"><rect id="bus" x="0.103" y="0" width="125" height="125" style="fill:none;"/><path d="M90.084,71.196c5.747,0 10.414,4.667 10.414,10.414c-0,5.748 -4.667,10.414 -10.414,10.414c-5.748,0 -10.414,-4.666 -10.414,-10.414c-0,-5.747 4.666,-10.414 10.414,-10.414Zm-62.663,0c5.747,0 10.414,4.667 10.414,10.414c-0,5.748 -4.667,10.414 -10.414,10.414c-5.748,0 -10.414,-4.666 -10.414,-10.414c-0,-5.747 4.666,-10.414 10.414,-10.414Zm62.663,5.207c2.873,0 5.207,2.334 5.207,5.207c-0,2.874 -2.334,5.207 -5.207,5.207c-2.874,0 -5.207,-2.333 -5.207,-5.207c-0,-2.873 2.333,-5.207 5.207,-5.207Zm-62.663,0c2.873,0 5.207,2.334 5.207,5.207c-0,2.874 -2.334,5.207 -5.207,5.207c-2.874,0 -5.207,-2.333 -5.207,-5.207c-0,-2.873 2.333,-5.207 5.207,-5.207Zm-11.988,4.451c-0.018,0.411 -0.357,0.735 -0.769,0.735c-0.179,0.008 -0.371,0.008 -0.557,0.008c-0.508,0 -0.921,-0.412 -0.921,-0.921c0,-5.647 0,-35.77 0,-48.912c0,-3.39 2.748,-6.138 6.139,-6.138c12.268,-0 40.535,-0 62.652,-0c16.592,-0 30.043,13.45 30.043,30.043c-0,8.38 -0,16.514 -0,21.371c-0,1.209 -0.48,2.368 -1.335,3.222c-0.854,0.855 -2.013,1.335 -3.222,1.335c-1.336,0 -2.712,0 -3.736,0c-0.92,-0.001 -1.69,-0.697 -1.782,-1.612c-0.749,-5.877 -5.781,-10.411 -11.861,-10.411c-5.972,-0 -10.932,4.373 -11.856,10.092c-0.13,1.067 -1.036,1.868 -2.111,1.868c-6.676,0.063 -28.502,0.063 -34.905,0.063c-1.005,-0.001 -1.849,-0.757 -1.959,-1.755c-0.803,-5.808 -5.801,-10.268 -11.832,-10.268c-6.38,-0 -11.604,4.99 -11.988,11.28Zm64.277,-27.673c-1.251,0 -2.264,-1.014 -2.264,-2.264c-0,-4.38 -0,-14.033 -0,-19.16c-0,-1.853 1.501,-3.354 3.354,-3.354c0.001,-0 0.002,-0 0.002,-0c7.418,-0 14.532,2.946 19.778,8.192c4.373,4.373 7.149,10.046 7.951,16.111c0.034,0.266 0.052,0.535 0.052,0.803c0.006,1.191 0.006,5.348 0.006,7.967c0,1.221 -0.99,2.212 -2.211,2.212c-3.037,-0 -8.523,-0 -12.043,-0c-0.872,-0 -1.709,-0.347 -2.326,-0.964c-0.618,-0.617 -0.964,-1.454 -0.964,-2.327c-0,-0.387 -0,-0.791 -0,-1.201c-0,-1.596 -0.634,-3.125 -1.762,-4.253c-1.128,-1.128 -2.658,-1.762 -4.253,-1.762c-1.889,0 -3.861,0 -5.32,0Zm-6.485,-22.654c-0,-0.563 -0.224,-1.104 -0.623,-1.502c-0.398,-0.399 -0.938,-0.622 -1.502,-0.622c-4.717,-0 -16.02,-0 -20.737,-0c-0.564,-0 -1.104,0.223 -1.503,0.622c-0.398,0.398 -0.622,0.939 -0.622,1.502c0,4.683 0,15.847 0,20.529c0,0.564 0.224,1.104 0.622,1.503c0.399,0.398 0.939,0.622 1.503,0.622c4.717,-0 16.02,-0 20.737,-0c0.564,-0 1.104,-0.224 1.502,-0.622c0.399,-0.399 0.623,-0.939 0.623,-1.503c-0,-4.682 -0,-15.846 -0,-20.529Zm-29.258,0c-0,-0.563 -0.224,-1.104 -0.622,-1.502c-0.399,-0.399 -0.939,-0.622 -1.503,-0.622c-4.717,-0 -16.02,-0 -20.737,-0c-0.563,-0 -1.104,0.223 -1.502,0.622c-0.399,0.398 -0.623,0.939 -0.623,1.502c0,4.683 0,15.847 0,20.529c0,0.564 0.224,1.104 0.623,1.503c0.398,0.398 0.939,0.622 1.502,0.622c4.717,-0 16.02,-0 20.737,-0c0.564,-0 1.104,-0.224 1.503,-0.622c0.398,-0.399 0.622,-0.939 0.622,-1.503c-0,-4.682 -0,-15.846 -0,-20.529Z"/></svg>