<?xml version="1.0" encoding="UTF-8" standalone="no"?><!DOCTYPE svg PUBLIC "-//W3C//DTD SVG 1.1//EN" "http://www.w3.org/Graphics/SVG/1.1/DTD/svg11.dtd"><svg width="100%" height="100%" viewBox="0 0 130 125" version="1.1" xmlns="http://www.w3.org/2000/svg" xmlns:xlink="http://www.w3.org/1999/xlink" xml:space="preserve" xmlns:serif="http://www.serif.com/" style="fill-rule:evenodd;clip-rule:evenodd;stroke-linejoin:round;stroke-miterlimit:2;"><rect id="comment-box" x="0.133" y="0.007" width="125" height="125" style="fill:none;"/><path d="M48.316,35.19l-16.79,4.897l-0.312,0.119l-0.262,0.152l-0.224,0.179l-0.257,0.288l-0.197,0.335l-0.103,0.277l-0.069,0.357l-0.01,0.202l-0,66.372c-0,0.754 0.428,1.442 1.105,1.775l24.884,12.253l0.323,0.108l0.394,0.055l0.342,-0.018l0.29,-0.062l36.32,-10.594c0.844,-0.246 1.425,-1.02 1.425,-1.9l-0,-55.513l-0.031,-0.355l-0.088,-0.327l-0.173,-0.359l-0.222,-0.296l-0.117,-0.118l-18.789,-17.481l14.187,-14.56l0.027,-0.035c0.133,-0.173 0.214,-0.373 0.244,-0.578l0.011,-0.242l-0.031,-0.222l-0.004,-0.019c-0.041,-0.166 -0.117,-0.325 -0.228,-0.466l-0.12,-0.133l-15.023,-14.636l-0.059,-0.046c-0.143,-0.105 -0.304,-0.176 -0.471,-0.212l-0.163,-0.024l-0.09,-0.004l-0.164,0.009c-0.226,0.028 -0.446,0.117 -0.633,0.267l-0.111,0.101l-26.505,27.202l-0.029,0.037c-0.146,0.19 -0.229,0.412 -0.251,0.639l-0.005,0.167l0.032,0.236l0.003,0.014c0.041,0.165 0.115,0.324 0.224,0.465l0.123,0.138l1.597,1.556Zm10.532,31.356l32.369,-9.441l-0,51.396c-0,-0 -32.368,9.441 -32.368,9.441l-0.001,-51.396Zm-24.798,-20.011l20.84,19.389c0,-0 0,51.476 0,51.476c0,-0 -20.84,-10.264 -20.84,-10.264l0,-60.601Zm17.522,-8.172l-15.602,4.551l21.424,19.933c0,0 31.903,-9.305 31.903,-9.305l-16.306,-15.17l-3.453,3.544l5.323,4.797c0.305,0.275 0.436,0.693 0.343,1.093c-0.093,0.399 -0.396,0.717 -0.791,0.828c-4.224,1.191 -14.099,3.977 -17.951,5.064c-0.982,0.277 -2.038,0.03 -2.796,-0.653c-1.507,-1.358 -4.074,-3.672 -5.707,-5.144c-0.305,-0.274 -0.436,-0.693 -0.343,-1.093c0.093,-0.399 0.396,-0.716 0.791,-0.828l8.516,-2.402l-5.351,-5.215Zm-1.328,-4.785l11.408,11.118l1.896,-13.223l-13.304,2.105Zm15.888,-2.514l-1.81,12.624l21.081,-21.631l-12.572,2.134l-0.662,5.012c-0.072,0.549 -0.497,0.985 -1.044,1.071l-4.993,0.79Zm3.681,-3.113l2.478,-18.774l-21.182,21.734l18.704,-2.96Zm3.36,-6.354l13.169,-2.235l-11.407,-11.118l-1.762,13.353Z"/></svg>