<?xml version="1.0" encoding="UTF-8" standalone="no"?><!DOCTYPE svg PUBLIC "-//W3C//DTD SVG 1.1//EN" "http://www.w3.org/Graphics/SVG/1.1/DTD/svg11.dtd"><svg width="100%" height="100%" viewBox="0 0 130 125" version="1.1" xmlns="http://www.w3.org/2000/svg" xmlns:xlink="http://www.w3.org/1999/xlink" xml:space="preserve" xmlns:serif="http://www.serif.com/" style="fill-rule:evenodd;clip-rule:evenodd;stroke-linejoin:round;stroke-miterlimit:2;"><rect id="course-mgmt" x="0.551" y="0.007" width="125" height="125" style="fill:none;"/><path d="M68.097,10.578c-3.356,-0.326 -6.736,-0.326 -10.092,0l-1.662,8.092c-3.216,0.492 -6.369,1.337 -9.401,2.519l-5.485,-6.177c-3.07,1.396 -5.997,3.086 -8.74,5.046l2.607,7.839c-2.54,2.035 -4.848,4.342 -6.883,6.882l-7.838,-2.606c-1.961,2.743 -3.65,5.67 -5.046,8.739l6.176,5.486c-1.182,3.031 -2.026,6.184 -2.519,9.401l-8.091,1.662c-0.326,3.356 -0.326,6.736 -0,10.092l8.091,1.662c0.493,3.216 1.337,6.369 2.519,9.401l-6.176,5.485c1.396,3.07 3.085,5.996 5.046,8.74l7.838,-2.607c2.035,2.54 4.343,4.848 6.883,6.883l-2.607,7.838c2.743,1.961 5.67,3.65 8.74,5.046l5.485,-6.176c3.032,1.182 6.185,2.026 9.401,2.519l1.662,8.091c3.356,0.326 6.736,0.326 10.092,0l1.662,-8.091c3.217,-0.493 6.37,-1.337 9.401,-2.519l5.486,6.176c3.069,-1.396 5.996,-3.085 8.739,-5.046l-2.606,-7.838c2.539,-2.035 4.847,-4.343 6.882,-6.883l7.839,2.607c1.96,-2.744 3.65,-5.67 5.045,-8.74l-6.176,-5.485c1.182,-3.032 2.027,-6.185 2.519,-9.401l8.092,-1.662c0.326,-3.356 0.326,-6.736 -0,-10.092l-8.092,-1.662c-0.492,-3.217 -1.337,-6.37 -2.519,-9.401l6.176,-5.486c-1.395,-3.069 -3.085,-5.996 -5.045,-8.739l-7.839,2.606c-2.035,-2.54 -4.343,-4.847 -6.882,-6.882l2.606,-7.839c-2.743,-1.96 -5.67,-3.65 -8.739,-5.046l-5.486,6.177c-3.031,-1.182 -6.184,-2.027 -9.401,-2.519l-1.662,-8.092Zm-5.046,20.406c17.398,0 31.523,14.125 31.523,31.523c-0,17.398 -14.125,31.522 -31.523,31.522c-17.398,0 -31.523,-14.124 -31.523,-31.522c0,-17.398 14.125,-31.523 31.523,-31.523Zm-21.65,43.552l15.358,-29.526c0.376,-0.723 1.123,-1.176 1.937,-1.176c4.295,0 17.912,0 24.172,0c0.68,0 1.311,0.355 1.663,0.936c0.353,0.581 0.377,1.304 0.063,1.907c-3.405,6.547 -11.686,22.467 -13.996,26.908c-0.373,0.717 -1.114,1.167 -1.923,1.167c-5.446,0 -25.943,0 -25.943,0l0,5.003l26.778,-0l15.12,-28.069l-0,-1.363c0.236,0.083 0.441,0.245 0.574,0.466c0.199,0.327 0.213,0.735 0.036,1.074c-3.004,5.775 -13.19,25.359 -14.98,28.799c-0.165,0.318 -0.494,0.517 -0.853,0.517c-3.575,0 -22.517,0 -27.113,0c-0.267,0 -0.522,-0.105 -0.711,-0.294c-0.188,-0.188 -0.294,-0.444 -0.294,-0.711c-0,-1.526 -0,-4.338 -0,-5.179c-0,-0.16 0.038,-0.317 0.112,-0.459Zm-9.094,-26.227c-0.436,0.946 -0.975,1.567 -1.617,1.863c-0.641,0.295 -1.367,0.257 -2.176,-0.117l-2.293,-1.059c-0.809,-0.373 -1.31,-0.9 -1.5,-1.58c-0.191,-0.68 -0.068,-1.493 0.368,-2.439c0.867,-1.877 2.105,-2.443 3.717,-1.699l0.352,0.163l-0.655,1.418l-0.352,-0.162c-0.386,-0.178 -0.711,-0.209 -0.976,-0.093c-0.265,0.117 -0.519,0.44 -0.764,0.969c-0.258,0.56 -0.34,0.991 -0.245,1.291c0.095,0.301 0.328,0.537 0.699,0.709l2.315,1.068c0.363,0.168 0.695,0.186 0.994,0.053c0.3,-0.132 0.574,-0.467 0.822,-1.004c0.241,-0.522 0.319,-0.924 0.234,-1.207c-0.086,-0.283 -0.329,-0.516 -0.73,-0.702l-0.306,-0.141l0.655,-1.419l0.329,0.152c0.825,0.381 1.326,0.899 1.505,1.556c0.179,0.656 0.054,1.449 -0.376,2.38Zm69.128,1.409l-0.954,-2.243l-5.878,2.499l-0.612,-1.438l5.879,-2.499l-0.954,-2.243l1.3,-0.553l2.519,5.925l-1.3,0.552Zm-2.605,-9.074l-6.228,4.696l-0.903,-1.198l3.923,-2.957l-4.854,0.622l-0.105,-0.14l1.931,-4.602l-3.973,2.995l-0.895,-1.188l6.228,-4.696l0.866,1.148l-2.003,4.923l5.193,-0.691l0.82,1.088Zm-62.507,1.083c-0.645,0.828 -1.334,1.316 -2.067,1.464c-0.732,0.147 -1.461,-0.06 -2.184,-0.624l-1.795,-1.398c-0.723,-0.563 -1.103,-1.218 -1.139,-1.964c-0.036,-0.747 0.268,-1.534 0.913,-2.363c0.645,-0.828 1.334,-1.316 2.067,-1.464c0.733,-0.147 1.461,0.061 2.184,0.624l1.795,1.398c0.723,0.563 1.103,1.218 1.139,1.964c0.037,0.747 -0.268,1.535 -0.913,2.363Zm-1.144,-0.891c0.369,-0.473 0.549,-0.885 0.542,-1.234c-0.008,-0.349 -0.203,-0.673 -0.584,-0.97l-1.795,-1.397c-0.381,-0.297 -0.742,-0.407 -1.083,-0.329c-0.341,0.078 -0.695,0.354 -1.064,0.827c-0.369,0.473 -0.549,0.885 -0.541,1.234c0.008,0.35 0.202,0.673 0.583,0.97l1.795,1.398c0.382,0.297 0.743,0.406 1.083,0.328c0.341,-0.078 0.696,-0.354 1.064,-0.827Zm53.697,-6.379l-2.492,3.209l-0.997,-0.774l0.464,-0.7c-0.357,0.134 -0.721,0.147 -1.091,0.039c-0.37,-0.108 -0.765,-0.325 -1.186,-0.652c-1.554,-1.206 -1.75,-2.556 -0.59,-4.05l1.356,-1.748c0.593,-0.764 1.255,-1.168 1.986,-1.212c0.731,-0.045 1.511,0.255 2.34,0.899c0.895,0.695 1.392,1.373 1.49,2.035c0.098,0.662 -0.108,1.322 -0.619,1.98l-0.084,0.109l-1.235,-0.958l0.069,-0.089c0.179,-0.231 0.287,-0.44 0.322,-0.629c0.036,-0.188 -0.008,-0.386 -0.132,-0.593c-0.125,-0.207 -0.354,-0.441 -0.69,-0.702c-0.5,-0.388 -0.919,-0.563 -1.255,-0.523c-0.337,0.039 -0.653,0.25 -0.95,0.631l-1.372,1.768c-0.276,0.355 -0.39,0.699 -0.342,1.032c0.048,0.332 0.322,0.693 0.822,1.081c0.461,0.358 0.863,0.525 1.208,0.503c0.345,-0.023 0.647,-0.202 0.908,-0.538l0.007,-0.01l-1.056,-0.82l0.828,-1.066l2.291,1.778Zm-46.959,1.601c-0.813,0.652 -1.573,0.966 -2.279,0.944c-0.706,-0.022 -1.374,-0.426 -2.004,-1.213l-3.117,-3.894l1.22,-0.976l3.086,3.854c0.302,0.377 0.619,0.59 0.951,0.639c0.333,0.049 0.74,-0.12 1.221,-0.505c0.475,-0.38 0.723,-0.741 0.743,-1.083c0.02,-0.341 -0.116,-0.694 -0.408,-1.059l-3.086,-3.854l1.22,-0.977l3.117,3.894c0.636,0.794 0.887,1.534 0.755,2.222c-0.133,0.688 -0.606,1.357 -1.419,2.008Zm7.3,-10.32c0.28,0.596 0.375,1.122 0.285,1.578c-0.09,0.456 -0.386,0.894 -0.888,1.314l2.822,1.838l-1.629,0.764l-2.602,-1.748l-1.029,0.483l1.141,2.433l-1.415,0.664l-3.312,-7.062l2.444,-1.146c1.087,-0.51 1.962,-0.69 2.625,-0.541c0.664,0.149 1.183,0.623 1.558,1.423Zm33.724,-0.147l-3.024,7.19l-1.382,-0.582l1.904,-4.528l-3.883,2.977l-0.161,-0.068l-0.644,-4.949l-1.929,4.586l-1.371,-0.577l3.024,-7.19l1.325,0.558l0.743,5.262l4.142,-3.208l1.256,0.529Zm-27.373,3.887c-0.918,0.208 -1.677,0.168 -2.276,-0.12c-0.599,-0.287 -0.98,-0.792 -1.144,-1.516l-0.063,-0.28l1.536,-0.348l0.044,0.195c0.157,0.691 0.702,0.931 1.637,0.72c0.845,-0.192 1.211,-0.539 1.097,-1.043c-0.041,-0.179 -0.112,-0.314 -0.214,-0.407c-0.102,-0.092 -0.259,-0.161 -0.47,-0.207c-0.211,-0.047 -0.516,-0.08 -0.913,-0.101l-0.533,-0.034c-0.64,-0.034 -1.149,-0.109 -1.525,-0.225c-0.377,-0.116 -0.669,-0.293 -0.877,-0.532c-0.207,-0.24 -0.357,-0.562 -0.449,-0.969c-0.1,-0.439 -0.071,-0.853 0.084,-1.243c0.155,-0.389 0.425,-0.726 0.81,-1.009c0.384,-0.284 0.865,-0.491 1.442,-0.621c0.878,-0.199 1.602,-0.141 2.173,0.175c0.571,0.315 0.946,0.866 1.124,1.655l0.025,0.11l-1.536,0.347l-0.044,-0.195c-0.076,-0.333 -0.239,-0.563 -0.489,-0.69c-0.251,-0.127 -0.564,-0.149 -0.938,-0.064c-0.414,0.094 -0.715,0.237 -0.902,0.428c-0.188,0.192 -0.253,0.414 -0.196,0.666c0.039,0.171 0.113,0.299 0.222,0.386c0.109,0.086 0.277,0.149 0.504,0.187l1.72,0.156c0.747,0.053 1.325,0.21 1.735,0.472c0.409,0.262 0.671,0.645 0.785,1.149c0.162,0.716 0.031,1.337 -0.392,1.864c-0.424,0.527 -1.082,0.892 -1.977,1.094Zm-9.982,-0.767l1.132,-0.531c0.415,-0.194 0.715,-0.379 0.9,-0.553c0.185,-0.175 0.288,-0.358 0.308,-0.552c0.019,-0.193 -0.034,-0.426 -0.162,-0.697c-0.173,-0.37 -0.412,-0.58 -0.717,-0.63c-0.304,-0.051 -0.762,0.067 -1.373,0.354l-1.075,0.504l0.987,2.105Zm15.877,-6.51l0.023,1.75l3.424,-0.043l0.018,1.399l-3.425,0.044l0.024,1.837l3.699,-0.047l0.018,1.4l-5.262,0.067l-0.099,-7.799l5.262,-0.067l0.018,1.412l-3.7,0.047Z"/></svg>