<?xml version="1.0" encoding="UTF-8" standalone="no"?><!DOCTYPE svg PUBLIC "-//W3C//DTD SVG 1.1//EN" "http://www.w3.org/Graphics/SVG/1.1/DTD/svg11.dtd"><svg width="100%" height="100%" viewBox="0 0 130 125" version="1.1" xmlns="http://www.w3.org/2000/svg" xmlns:xlink="http://www.w3.org/1999/xlink" xml:space="preserve" xmlns:serif="http://www.serif.com/" style="fill-rule:evenodd;clip-rule:evenodd;stroke-linejoin:round;stroke-miterlimit:2;"><rect id="dashboard" x="0.331" y="0.007" width="125" height="125" style="fill:none;"/><path d="M62.831,35.387c25.825,0 46.792,20.929 46.792,46.708c0,7.531 -0.498,7.33 -46.792,7.33c-46.294,-0 -46.793,0.201 -46.793,-7.33c0,-25.779 20.967,-46.708 46.793,-46.708Zm-38.817,42.358c2.401,-0 4.35,1.949 4.35,4.35c-0,2.401 -1.949,4.35 -4.35,4.35c-2.401,-0 -4.351,-1.949 -4.351,-4.35c0,-2.401 1.95,-4.35 4.351,-4.35Zm78.896,-0c2.401,-0 4.35,1.949 4.35,4.35c0,2.401 -1.949,4.35 -4.35,4.35c-2.401,-0 -4.35,-1.949 -4.35,-4.35c-0,-2.401 1.949,-4.35 4.35,-4.35Zm-37.954,0.554l17.596,-18.307c0.272,-0.283 0.721,-0.291 1.003,-0.02c0.18,0.173 0.382,0.367 0.562,0.54c0.282,0.271 0.291,0.72 0.02,1.002l-17.598,18.308c0.407,0.661 0.642,1.44 0.642,2.273c-0,2.401 -1.949,4.35 -4.35,4.35c-2.401,-0 -4.351,-1.949 -4.351,-4.35c0,-2.401 1.95,-4.35 4.351,-4.35c0.771,-0 1.496,0.201 2.125,0.554Zm-35.742,-19.963c2.401,0 4.35,1.949 4.35,4.35c0,2.401 -1.949,4.35 -4.35,4.35c-2.401,0 -4.35,-1.949 -4.35,-4.35c-0,-2.401 1.949,-4.35 4.35,-4.35Zm67.233,0c2.401,0 4.35,1.949 4.35,4.35c0,2.401 -1.949,4.35 -4.35,4.35c-2.401,0 -4.35,-1.949 -4.35,-4.35c-0,-2.401 1.949,-4.35 4.35,-4.35Zm-53.025,-14.208c2.401,0 4.35,1.949 4.35,4.35c0,2.401 -1.949,4.35 -4.35,4.35c-2.401,0 -4.35,-1.949 -4.35,-4.35c-0,-2.401 1.949,-4.35 4.35,-4.35Zm38.817,0c2.401,0 4.35,1.949 4.35,4.35c0,2.401 -1.949,4.35 -4.35,4.35c-2.401,0 -4.35,-1.949 -4.35,-4.35c-0,-2.401 1.949,-4.35 4.35,-4.35Zm-19.408,-5.2c2.401,-0 4.35,1.949 4.35,4.35c-0,2.401 -1.949,4.35 -4.35,4.35c-2.401,-0 -4.351,-1.949 -4.351,-4.35c0,-2.401 1.95,-4.35 4.351,-4.35Z"/><path d="M62.831,35.345c-12.917,0 -24.619,5.231 -33.096,13.684c-8.486,8.464 -13.739,20.157 -13.739,33.066c0,1.702 0.028,3.011 0.596,4.018c0.692,1.225 2.184,2.009 5.414,2.503c5.893,0.901 17.594,0.85 40.825,0.85c23.23,0 34.931,0.051 40.824,-0.85c3.23,-0.494 4.723,-1.278 5.414,-2.503c0.568,-1.007 0.596,-2.316 0.596,-4.018c-0,-12.909 -5.253,-24.602 -13.739,-33.066c-8.476,-8.453 -20.179,-13.684 -33.095,-13.684Zm-0,0.042c25.825,0 46.792,20.929 46.792,46.708c0,7.531 -0.498,7.33 -46.792,7.33c-46.294,-0 -46.793,0.201 -46.793,-7.33c0,-25.779 20.967,-46.708 46.793,-46.708Zm2.125,42.912l17.596,-18.307c0.272,-0.283 0.721,-0.291 1.003,-0.02c0.18,0.173 0.382,0.367 0.562,0.54c0.282,0.271 0.291,0.72 0.02,1.002l-17.598,18.308c0.407,0.661 0.642,1.44 0.642,2.273c-0,2.401 -1.949,4.35 -4.35,4.35c-2.401,-0 -4.351,-1.949 -4.351,-4.35c0,-2.401 1.95,-4.35 4.351,-4.35c0.771,-0 1.496,0.201 2.125,0.554Zm37.954,-0.554c2.401,-0 4.35,1.949 4.35,4.35c0,2.401 -1.949,4.35 -4.35,4.35c-2.401,-0 -4.35,-1.949 -4.35,-4.35c-0,-2.401 1.949,-4.35 4.35,-4.35Zm-78.896,-0c2.401,-0 4.35,1.949 4.35,4.35c-0,2.401 -1.949,4.35 -4.35,4.35c-2.401,-0 -4.351,-1.949 -4.351,-4.35c0,-2.401 1.95,-4.35 4.351,-4.35Zm-0,0.041c1.189,0 2.266,0.483 3.046,1.263c0.78,0.78 1.262,1.857 1.262,3.046c0,1.189 -0.482,2.266 -1.262,3.046c-0.78,0.78 -1.857,1.262 -3.046,1.262c-1.189,0 -2.266,-0.482 -3.046,-1.262c-0.78,-0.78 -1.263,-1.857 -1.263,-3.046c0,-1.189 0.483,-2.266 1.263,-3.046c0.78,-0.78 1.857,-1.263 3.046,-1.263Zm78.896,0c1.189,0 2.266,0.483 3.046,1.263c0.78,0.78 1.263,1.857 1.263,3.046c-0,1.189 -0.483,2.266 -1.263,3.046c-0.78,0.78 -1.857,1.262 -3.046,1.262c-1.189,0 -2.266,-0.482 -3.046,-1.262c-0.78,-0.78 -1.262,-1.857 -1.262,-3.046c-0,-1.189 0.482,-2.266 1.262,-3.046c0.78,-0.78 1.857,-1.263 3.046,-1.263Zm-37.975,0.549c0.017,0.009 0.037,0.006 0.051,-0.007l17.597,-18.307c0.127,-0.133 0.297,-0.202 0.468,-0.205c0.17,-0.003 0.342,0.058 0.475,0.186c0,0 0.562,0.54 0.562,0.54c0.133,0.128 0.201,0.297 0.205,0.468c0.003,0.171 -0.059,0.343 -0.186,0.475c-0,0.001 -17.598,18.308 -17.598,18.308c-0.013,0.013 -0.015,0.034 -0.005,0.05c0.205,0.334 0.366,0.697 0.474,1.082c0.105,0.372 0.161,0.764 0.161,1.17c0,1.189 -0.483,2.266 -1.262,3.046c-0.78,0.78 -1.857,1.262 -3.046,1.262c-1.189,0 -2.267,-0.482 -3.046,-1.262c-0.78,-0.78 -1.263,-1.857 -1.263,-3.046c0,-1.189 0.483,-2.266 1.263,-3.046c0.779,-0.78 1.857,-1.263 3.046,-1.263c0.375,0 0.74,0.048 1.087,0.139c0.36,0.094 0.701,0.232 1.017,0.41Zm-35.721,-19.999c2.401,0 4.35,1.949 4.35,4.35c0,2.401 -1.949,4.35 -4.35,4.35c-2.401,0 -4.35,-1.949 -4.35,-4.35c-0,-2.401 1.949,-4.35 4.35,-4.35Zm67.233,0c2.401,0 4.35,1.949 4.35,4.35c0,2.401 -1.949,4.35 -4.35,4.35c-2.401,0 -4.35,-1.949 -4.35,-4.35c-0,-2.401 1.949,-4.35 4.35,-4.35Zm-67.233,0.042c1.189,-0 2.266,0.482 3.046,1.262c0.78,0.78 1.263,1.857 1.263,3.046c-0,1.189 -0.483,2.266 -1.263,3.046c-0.78,0.78 -1.857,1.263 -3.046,1.263c-1.189,-0 -2.266,-0.483 -3.046,-1.263c-0.78,-0.78 -1.262,-1.857 -1.262,-3.046c-0,-1.189 0.482,-2.266 1.262,-3.046c0.78,-0.78 1.857,-1.262 3.046,-1.262Zm67.233,-0c1.189,-0 2.266,0.482 3.046,1.262c0.78,0.78 1.263,1.857 1.263,3.046c-0,1.189 -0.483,2.266 -1.263,3.046c-0.78,0.78 -1.857,1.263 -3.046,1.263c-1.189,-0 -2.266,-0.483 -3.046,-1.263c-0.78,-0.78 -1.262,-1.857 -1.262,-3.046c-0,-1.189 0.482,-2.266 1.262,-3.046c0.78,-0.78 1.857,-1.262 3.046,-1.262Zm-53.025,-14.25c2.401,0 4.35,1.949 4.35,4.35c0,2.401 -1.949,4.35 -4.35,4.35c-2.401,0 -4.35,-1.949 -4.35,-4.35c-0,-2.401 1.949,-4.35 4.35,-4.35Zm38.817,0c2.401,0 4.35,1.949 4.35,4.35c0,2.401 -1.949,4.35 -4.35,4.35c-2.401,0 -4.35,-1.949 -4.35,-4.35c-0,-2.401 1.949,-4.35 4.35,-4.35Zm-38.817,0.042c1.189,-0 2.266,0.482 3.046,1.262c0.78,0.78 1.263,1.857 1.263,3.046c-0,1.189 -0.483,2.266 -1.263,3.046c-0.78,0.78 -1.857,1.263 -3.046,1.263c-1.189,-0 -2.266,-0.483 -3.046,-1.263c-0.78,-0.78 -1.262,-1.857 -1.262,-3.046c-0,-1.189 0.482,-2.266 1.262,-3.046c0.78,-0.78 1.857,-1.262 3.046,-1.262Zm38.817,-0c1.189,-0 2.266,0.482 3.046,1.262c0.78,0.78 1.263,1.857 1.263,3.046c-0,1.189 -0.483,2.266 -1.263,3.046c-0.78,0.78 -1.857,1.263 -3.046,1.263c-1.189,-0 -2.266,-0.483 -3.046,-1.263c-0.78,-0.78 -1.262,-1.857 -1.262,-3.046c-0,-1.189 0.482,-2.266 1.262,-3.046c0.78,-0.78 1.857,-1.262 3.046,-1.262Zm-19.408,-5.242c2.401,-0 4.35,1.949 4.35,4.35c-0,2.401 -1.949,4.35 -4.35,4.35c-2.401,-0 -4.351,-1.949 -4.351,-4.35c0,-2.401 1.95,-4.35 4.351,-4.35Zm-0,0.041c1.189,0 2.266,0.483 3.046,1.263c0.779,0.78 1.262,1.857 1.262,3.046c0,1.189 -0.483,2.266 -1.262,3.046c-0.78,0.78 -1.857,1.262 -3.046,1.262c-1.189,0 -2.267,-0.482 -3.046,-1.262c-0.78,-0.78 -1.263,-1.857 -1.263,-3.046c0,-1.189 0.483,-2.266 1.263,-3.046c0.779,-0.78 1.857,-1.263 3.046,-1.263Z"/></svg>