<?xml version="1.0" encoding="UTF-8" standalone="no"?><!DOCTYPE svg PUBLIC "-//W3C//DTD SVG 1.1//EN" "http://www.w3.org/Graphics/SVG/1.1/DTD/svg11.dtd"><svg width="100%" height="100%" viewBox="0 0 130 125" version="1.1" xmlns="http://www.w3.org/2000/svg" xmlns:xlink="http://www.w3.org/1999/xlink" xml:space="preserve" xmlns:serif="http://www.serif.com/" style="fill-rule:evenodd;clip-rule:evenodd;stroke-linejoin:round;stroke-miterlimit:2;"><rect id="email" x="0.043" y="0.007" width="125" height="125" style="fill:none;"/><path d="M6.684,56.189c-0.147,-2.282 0.788,-4.551 2.604,-6.067l48.582,-40.551c2.706,-2.259 6.64,-2.259 9.346,-0l48.582,40.551c1.759,1.468 2.691,3.641 2.615,5.849l-0,57.693l-0.032,0.495c-0.066,0.491 -0.236,0.949 -0.486,1.352l-0.027,0.044l-0.382,0.492l-0.501,0.443c-0.464,0.338 -1.016,0.563 -1.616,0.634l-0.123,0.013l-105.114,-0.008l-0.417,-0.025c-0.599,-0.072 -1.151,-0.297 -1.615,-0.635l-0.038,-0.028l-0.463,-0.415l-0.409,-0.536c-0.25,-0.403 -0.419,-0.862 -0.485,-1.353l-0.032,-0.495l0.011,-57.453Zm42.583,33.233l-28.519,20.79l83.591,0.016l-28.511,-20.8l-11.212,8.368c-1.228,0.916 -2.912,0.916 -4.14,-0.001l-11.209,-8.373Zm32.364,-4.325l29.865,21.788l0.008,-44.082l-29.873,22.294Zm-68.029,-22.313l-0.009,44.082l29.873,-21.776l-29.864,-22.306Zm0.788,-7.422l6.169,3.983l41.988,31.361l42.001,-31.345l6.093,-4.045l-48.098,-40.148l-48.153,40.194Zm30.713,-2.926c-0,4.983 1.606,8.796 4.82,11.439c3.214,2.643 8.168,3.965 14.863,3.965c3.169,-0 6.427,-0.314 9.774,-0.943c3.348,-0.628 6.361,-1.44 9.039,-2.437l-0,5.2c-2.634,1.126 -5.635,2.015 -9.005,2.665c-3.37,0.65 -6.818,0.975 -10.344,0.975c-8.346,-0 -14.673,-1.842 -18.98,-5.525c-4.307,-3.683 -6.461,-8.796 -6.461,-15.339c0,-4.42 0.971,-8.19 2.913,-11.309c1.941,-3.12 4.709,-5.493 8.301,-7.117c3.593,-1.625 7.845,-2.438 12.754,-2.438c4.776,0 8.927,0.78 12.453,2.34c3.526,1.56 6.249,3.77 8.168,6.63c1.919,2.859 2.879,6.174 2.879,9.944c-0,4.073 -0.982,7.215 -2.946,9.424c-1.964,2.21 -4.464,3.315 -7.499,3.315c-1.874,0 -3.436,-0.336 -4.686,-1.007c-1.25,-0.672 -2.098,-1.636 -2.544,-2.893c-0.58,1.214 -1.54,2.167 -2.879,2.86c-1.339,0.694 -2.946,1.04 -4.82,1.04c-2.5,0 -4.497,-0.726 -5.992,-2.177c-1.495,-1.452 -2.243,-3.434 -2.243,-5.947l-0,-5.59c-0,-2.643 0.725,-4.69 2.176,-6.142c1.45,-1.452 3.492,-2.177 6.126,-2.177c2.231,-0 4.039,0.606 5.423,1.82l0.2,-1.56l5.156,-0l-0,12.999c-0,2.6 1.227,3.9 3.682,3.9c3.035,-0 4.552,-2.665 4.552,-7.995c0,-4.246 -1.551,-7.529 -4.653,-9.847c-3.102,-2.318 -7.286,-3.477 -12.553,-3.477c-5.713,-0 -10.087,1.332 -13.122,3.997c-3.035,2.665 -4.552,6.467 -4.552,11.407Zm21.022,-2.665c-0,-1.127 -0.335,-2.015 -1.004,-2.665c-0.67,-0.65 -1.607,-0.975 -2.812,-0.975c-1.562,0 -2.623,0.314 -3.18,0.943c-0.558,0.628 -0.837,1.527 -0.837,2.697l-0,4.94c-0,1.126 0.334,2.004 1.004,2.632c0.669,0.628 1.629,0.943 2.879,0.943c1.249,-0 2.22,-0.325 2.912,-0.975c0.692,-0.65 1.038,-1.517 1.038,-2.6l-0,-4.94Z"/></svg>