<?xml version="1.0" encoding="UTF-8" standalone="no"?><!DOCTYPE svg PUBLIC "-//W3C//DTD SVG 1.1//EN" "http://www.w3.org/Graphics/SVG/1.1/DTD/svg11.dtd"><svg width="100%" height="100%" viewBox="0 0 130 125" version="1.1" xmlns="http://www.w3.org/2000/svg" xmlns:xlink="http://www.w3.org/1999/xlink" xml:space="preserve" xmlns:serif="http://www.serif.com/" style="fill-rule:evenodd;clip-rule:evenodd;stroke-linejoin:round;stroke-miterlimit:2;"><rect id="eo" x="0.116" y="0" width="125" height="125" style="fill:none;"/><clipPath id="_clip1"><rect id="eo1" serif:id="eo" x="0.116" y="0" width="125" height="125"/></clipPath><g clip-path="url(#_clip1)"><path d="M125.116,4.227c0,-2.334 -1.892,-4.227 -4.227,-4.227c-17.989,0 -98.556,0 -116.545,0c-2.335,-0 -4.227,1.893 -4.228,4.227c0,13.344 0,103.202 0,116.546c0.001,2.334 1.893,4.227 4.228,4.227c17.989,-0 98.556,-0 116.545,-0c2.335,0 4.227,-1.893 4.227,-4.227c0,-13.344 0,-103.202 0,-116.546Zm-36.066,90.905c-8.62,-0 -15.256,-2.001 -19.908,-6.003c-4.652,-4.002 -6.978,-9.766 -6.978,-17.291l0,-18.676c0,-7.525 2.326,-13.289 6.978,-17.291c4.652,-4.002 11.288,-6.003 19.908,-6.003c8.619,0 15.255,2.001 19.907,6.003c4.652,4.002 6.978,9.766 6.978,17.291l0,18.676c0,7.525 -2.326,13.289 -6.978,17.291c-4.652,4.002 -11.288,6.003 -19.907,6.003Zm-66.925,-53.053l-0,14.367l28.117,-0l-0,11.493l-28.117,-0l-0,15.084l30.374,0l0,11.493l-43.201,0l-0,-64.032l43.201,-0l0,11.595l-30.374,0Zm66.925,41.149c4.925,0 8.5,-0.906 10.723,-2.719c2.223,-1.813 3.335,-4.703 3.335,-8.671l0,-18.676c0,-3.968 -1.112,-6.858 -3.335,-8.671c-2.223,-1.813 -5.798,-2.719 -10.723,-2.719c-4.926,-0 -8.5,0.906 -10.724,2.719c-2.223,1.813 -3.335,4.703 -3.335,8.671l0,18.676c0,3.968 1.112,6.858 3.335,8.671c2.224,1.813 5.798,2.719 10.724,2.719Z"/></g></svg>