<?xml version="1.0" encoding="UTF-8" standalone="no"?><!DOCTYPE svg PUBLIC "-//W3C//DTD SVG 1.1//EN" "http://www.w3.org/Graphics/SVG/1.1/DTD/svg11.dtd"><svg width="100%" height="100%" viewBox="0 0 130 130" version="1.1" xmlns="http://www.w3.org/2000/svg" xmlns:xlink="http://www.w3.org/1999/xlink" xml:space="preserve" xmlns:serif="http://www.serif.com/" style="fill-rule:evenodd;clip-rule:evenodd;stroke-linejoin:round;stroke-miterlimit:2;"><rect id="express-checkin" x="0.389" y="0.157" width="125" height="125" style="fill:none;"/><path d="M101.257,15.05c0,-2.646 -2.145,-4.791 -4.791,-4.791l-67.155,-0c-2.646,-0 -4.791,2.145 -4.791,4.791l-0,95.215c-0,2.646 2.145,4.791 4.791,4.791l67.155,0c2.646,0 4.791,-2.145 4.791,-4.791l0,-95.215Zm-4.791,2.213c-0,-0.587 -0.234,-1.15 -0.648,-1.565c-0.415,-0.415 -0.978,-0.648 -1.565,-0.648c-10.19,0 -52.539,0 -62.729,0c-0.587,0 -1.15,0.233 -1.565,0.648c-0.414,0.415 -0.648,0.978 -0.648,1.565c0,12.866 0,77.923 0,90.789c0,0.587 0.234,1.15 0.648,1.565c0.415,0.415 0.978,0.648 1.565,0.648c10.19,-0 52.539,-0 62.729,-0c0.587,-0 1.15,-0.233 1.565,-0.648c0.414,-0.415 0.648,-0.978 0.648,-1.565c-0,-12.866 -0,-77.923 -0,-90.789Zm-54.892,74.05c3.721,-0 6.742,3.021 6.742,6.742c0,3.721 -3.021,6.742 -6.742,6.742c-3.721,-0 -6.742,-3.021 -6.742,-6.742c0,-3.721 3.021,-6.742 6.742,-6.742Zm0,1.904c2.67,0 4.838,2.168 4.838,4.838c-0,2.67 -2.168,4.837 -4.838,4.837c-2.67,0 -4.837,-2.167 -4.837,-4.837c-0,-2.67 2.167,-4.838 4.837,-4.838Zm39.534,7.185c-0.555,-0 -0.987,-0.122 -1.295,-0.366c-0.307,-0.243 -0.461,-0.584 -0.461,-1.022l-0,-0.169l0.93,-0l-0,0.118c-0,0.418 0.283,0.627 0.849,0.627c0.511,-0 0.767,-0.153 0.767,-0.458c0,-0.108 -0.023,-0.195 -0.07,-0.262c-0.047,-0.066 -0.128,-0.126 -0.243,-0.18c-0.116,-0.055 -0.287,-0.114 -0.513,-0.178l-0.303,-0.088c-0.364,-0.103 -0.647,-0.213 -0.849,-0.329c-0.201,-0.115 -0.347,-0.255 -0.435,-0.42c-0.089,-0.165 -0.133,-0.371 -0.133,-0.617c-0,-0.265 0.07,-0.5 0.21,-0.704c0.141,-0.205 0.34,-0.363 0.598,-0.476c0.258,-0.114 0.562,-0.17 0.912,-0.17c0.531,-0 0.941,0.128 1.228,0.384c0.288,0.256 0.432,0.622 0.432,1.099l0,0.067l-0.93,-0l0,-0.118c0,-0.202 -0.064,-0.356 -0.192,-0.462c-0.128,-0.105 -0.305,-0.158 -0.531,-0.158c-0.251,-0 -0.443,0.043 -0.576,0.129c-0.133,0.086 -0.199,0.205 -0.199,0.358c0,0.103 0.026,0.187 0.078,0.251c0.051,0.064 0.14,0.122 0.265,0.173l0.971,0.314c0.423,0.128 0.735,0.294 0.937,0.498c0.202,0.204 0.303,0.459 0.303,0.764c-0,0.433 -0.157,0.774 -0.469,1.022c-0.312,0.249 -0.739,0.373 -1.281,0.373Zm5.1,-0c-0.556,-0 -0.987,-0.122 -1.295,-0.366c-0.307,-0.243 -0.461,-0.584 -0.461,-1.022l-0,-0.169l0.93,-0l-0,0.118c-0,0.418 0.283,0.627 0.848,0.627c0.512,-0 0.768,-0.153 0.768,-0.458c0,-0.108 -0.023,-0.195 -0.07,-0.262c-0.047,-0.066 -0.128,-0.126 -0.244,-0.18c-0.115,-0.055 -0.286,-0.114 -0.513,-0.178l-0.302,-0.088c-0.364,-0.103 -0.647,-0.213 -0.849,-0.329c-0.202,-0.115 -0.347,-0.255 -0.435,-0.42c-0.089,-0.165 -0.133,-0.371 -0.133,-0.617c-0,-0.265 0.07,-0.5 0.21,-0.704c0.14,-0.205 0.34,-0.363 0.598,-0.476c0.258,-0.114 0.562,-0.17 0.911,-0.17c0.532,-0 0.941,0.128 1.229,0.384c0.288,0.256 0.432,0.622 0.432,1.099l-0,0.067l-0.93,-0l0,-0.118c0,-0.202 -0.064,-0.356 -0.192,-0.462c-0.128,-0.105 -0.305,-0.158 -0.531,-0.158c-0.251,-0 -0.443,0.043 -0.576,0.129c-0.133,0.086 -0.199,0.205 -0.199,0.358c-0,0.103 0.026,0.187 0.077,0.251c0.052,0.064 0.141,0.122 0.266,0.173l0.971,0.314c0.423,0.128 0.735,0.294 0.937,0.498c0.202,0.204 0.302,0.459 0.302,0.764c0,0.433 -0.156,0.774 -0.468,1.022c-0.313,0.249 -0.739,0.373 -1.281,0.373Zm-24.901,-2.34l1.432,2.296l-1.004,-0l-0.959,-1.543l-0.967,1.543l-0.945,-0l1.432,-2.311l-1.432,-2.295l1.004,0l0.959,1.543l0.967,-1.543l0.945,0l-1.432,2.31Zm14.303,-1.476l0,1.033l2.022,0l0,0.827l-2.022,-0l0,1.085l2.185,-0l-0,0.827l-3.107,-0l-0,-4.606l3.107,0l-0,0.834l-2.185,0Zm-20.259,0l0,1.033l2.022,0l0,0.827l-2.022,-0l0,1.085l2.185,-0l-0,0.827l-3.107,-0l-0,-4.606l3.107,0l-0,0.834l-2.185,0Zm10.606,-0.834c0.693,0 1.189,0.121 1.487,0.362c0.297,0.241 0.446,0.625 0.446,1.151c0,0.364 -0.059,0.655 -0.177,0.871c-0.118,0.217 -0.312,0.375 -0.583,0.476c-0.271,0.101 -0.637,0.151 -1.1,0.151l-0.819,0l0,1.595l-0.922,-0l-0,-4.606l1.668,0Zm7.018,1.521c0,0.388 -0.081,0.693 -0.243,0.915c-0.163,0.221 -0.431,0.381 -0.805,0.479l1.048,1.691l-1.062,-0l-0.952,-1.587l-0.672,-0l-0,1.587l-0.923,-0l0,-4.606l1.595,0c0.708,0 1.221,0.123 1.538,0.369c0.318,0.246 0.476,0.63 0.476,1.152Zm-2.686,0.679l0.738,-0c0.271,-0 0.477,-0.024 0.62,-0.071c0.143,-0.046 0.243,-0.119 0.302,-0.217c0.06,-0.099 0.089,-0.236 0.089,-0.414c0,-0.241 -0.075,-0.413 -0.225,-0.516c-0.15,-0.104 -0.424,-0.155 -0.823,-0.155l-0.701,-0l-0,1.373Zm-4.288,-0.008c0.261,0 0.46,-0.023 0.598,-0.07c0.137,-0.047 0.232,-0.119 0.284,-0.218c0.052,-0.098 0.077,-0.233 0.077,-0.406c0,-0.167 -0.029,-0.299 -0.088,-0.394c-0.059,-0.096 -0.163,-0.167 -0.31,-0.211c-0.148,-0.044 -0.354,-0.066 -0.62,-0.066l-0.731,-0l0,1.365l0.79,0Zm-24.427,-24.341c3.721,0 6.742,3.021 6.742,6.742c0,3.721 -3.021,6.742 -6.742,6.742c-3.721,0 -6.742,-3.021 -6.742,-6.742c0,-3.721 3.021,-6.742 6.742,-6.742Zm0,1.905c2.67,-0 4.838,2.167 4.838,4.837c-0,2.67 -2.168,4.838 -4.838,4.838c-2.67,-0 -4.837,-2.168 -4.837,-4.838c-0,-2.67 2.167,-4.837 4.837,-4.837Zm14.729,7.184c-0.615,0 -1.081,-0.135 -1.398,-0.406c-0.318,-0.27 -0.476,-0.669 -0.476,-1.195l-0,-1.491c-0,-0.527 0.158,-0.925 0.476,-1.196c0.317,-0.27 0.783,-0.406 1.398,-0.406c1.22,0 1.83,0.524 1.83,1.572l0,0.229l-0.922,0l-0,-0.229c-0,-0.251 -0.064,-0.433 -0.192,-0.546c-0.128,-0.113 -0.364,-0.169 -0.708,-0.169c-0.365,-0 -0.616,0.062 -0.753,0.188c-0.138,0.125 -0.207,0.308 -0.207,0.55l0,1.505c0,0.236 0.073,0.418 0.218,0.546c0.145,0.128 0.392,0.192 0.742,0.192c0.339,0 0.574,-0.058 0.704,-0.173c0.131,-0.116 0.196,-0.304 0.196,-0.565l-0,-0.199l0.922,-0l0,0.214c0,0.536 -0.153,0.934 -0.461,1.192c-0.307,0.258 -0.764,0.387 -1.369,0.387Zm15.92,0c-0.615,0 -1.082,-0.135 -1.399,-0.406c-0.317,-0.27 -0.476,-0.669 -0.476,-1.195l-0,-1.491c-0,-0.527 0.159,-0.925 0.476,-1.196c0.317,-0.27 0.784,-0.406 1.399,-0.406c1.22,0 1.83,0.524 1.83,1.572l-0,0.229l-0.923,0l0,-0.229c0,-0.251 -0.064,-0.433 -0.192,-0.546c-0.127,-0.113 -0.364,-0.169 -0.708,-0.169c-0.364,-0 -0.615,0.062 -0.753,0.188c-0.138,0.125 -0.207,0.308 -0.207,0.55l0,1.505c0,0.236 0.073,0.418 0.218,0.546c0.145,0.128 0.393,0.192 0.742,0.192c0.339,0 0.574,-0.058 0.705,-0.173c0.13,-0.116 0.195,-0.304 0.195,-0.565l0,-0.199l0.923,-0l-0,0.214c-0,0.536 -0.154,0.934 -0.461,1.192c-0.308,0.258 -0.764,0.387 -1.369,0.387Zm4.9,-1.948l-0.376,0.406l-0,1.498l-0.923,0l0,-4.605l0.923,-0l-0,1.985l1.83,-1.985l1.048,-0l-1.904,2.059l1.985,2.546l-1.092,0l-1.491,-1.904Zm3.985,-2.701l0.923,-0l0,4.605l-0.923,0l0,-4.605Zm-14.495,0.834l0,1.033l2.023,-0l-0,0.826l-2.023,0l0,1.085l2.185,0l0,0.827l-3.107,0l-0,-4.605l3.107,-0l0,0.834l-2.185,-0Zm-2.841,-0.834l0,4.605l-0.923,0l0,-1.912l-2.022,0l0,1.912l-0.922,0l-0,-4.605l0.922,-0l0,1.867l2.022,-0l0,-1.867l0.923,-0Zm24.23,-0l-0,4.605l-0.827,0l-2.354,-3.055l-0,3.055l-0.871,0l-0,-4.605l0.827,-0l2.354,3.107l-0,-3.107l0.871,-0Zm-46.428,-22.274c3.721,0 6.742,3.021 6.742,6.742c0,3.721 -3.021,6.742 -6.742,6.742c-3.721,0 -6.742,-3.021 -6.742,-6.742c0,-3.721 3.021,-6.742 6.742,-6.742Zm0,1.905c2.67,-0 4.838,2.168 4.838,4.837c-0,2.67 -2.168,4.838 -4.838,4.838c-2.67,-0 -4.837,-2.168 -4.837,-4.838c-0,-2.669 2.167,-4.837 4.837,-4.837Zm-1.453,6.031c0.053,0.053 0.138,0.053 0.191,-0c0.57,-0.571 3.531,-3.532 4.102,-4.103c0.053,-0.052 0.138,-0.052 0.191,0c0.165,0.166 0.503,0.503 0.668,0.669c0.052,0.052 0.052,0.138 -0,0.19c-0.64,0.64 -4.306,4.306 -4.958,4.958c-0.026,0.026 -0.062,0.041 -0.099,0.041c-0.037,-0 -0.073,-0.015 -0.099,-0.041c-0.395,-0.395 -1.853,-1.854 -2.241,-2.242c-0.053,-0.052 -0.053,-0.138 -0,-0.19c0.165,-0.166 0.503,-0.503 0.668,-0.669c0.053,-0.052 0.138,-0.052 0.191,0c0.281,0.282 1.105,1.106 1.386,1.387Zm46.132,1.299c-0.556,0 -0.988,-0.121 -1.296,-0.365c-0.307,-0.244 -0.461,-0.584 -0.461,-1.022l0,-0.17l0.93,0l-0,0.118c-0,0.418 0.283,0.628 0.849,0.628c0.511,-0 0.767,-0.153 0.767,-0.458c0,-0.108 -0.023,-0.196 -0.07,-0.262c-0.047,-0.066 -0.128,-0.127 -0.243,-0.181c-0.116,-0.054 -0.287,-0.113 -0.513,-0.177l-0.303,-0.089c-0.364,-0.103 -0.647,-0.212 -0.849,-0.328c-0.201,-0.116 -0.347,-0.256 -0.435,-0.421c-0.089,-0.165 -0.133,-0.37 -0.133,-0.616c0,-0.266 0.07,-0.501 0.21,-0.705c0.141,-0.204 0.34,-0.363 0.598,-0.476c0.259,-0.113 0.562,-0.17 0.912,-0.17c0.531,0 0.941,0.128 1.229,0.384c0.287,0.256 0.431,0.623 0.431,1.1l0,0.066l-0.93,0l0,-0.118c0,-0.201 -0.064,-0.355 -0.192,-0.461c-0.127,-0.106 -0.305,-0.159 -0.531,-0.159c-0.251,0 -0.443,0.043 -0.576,0.129c-0.132,0.087 -0.199,0.206 -0.199,0.358c0,0.104 0.026,0.187 0.078,0.251c0.051,0.064 0.14,0.122 0.265,0.174l0.971,0.313c0.423,0.128 0.735,0.294 0.937,0.499c0.202,0.204 0.303,0.458 0.303,0.763c-0,0.433 -0.156,0.774 -0.469,1.023c-0.312,0.248 -0.739,0.372 -1.28,0.372Zm-5.1,0c-0.556,0 -0.988,-0.121 -1.295,-0.365c-0.308,-0.244 -0.462,-0.584 -0.462,-1.022l0,-0.17l0.93,0l0,0.118c0,0.418 0.283,0.628 0.849,0.628c0.512,-0 0.767,-0.153 0.767,-0.458c0,-0.108 -0.023,-0.196 -0.07,-0.262c-0.046,-0.066 -0.128,-0.127 -0.243,-0.181c-0.116,-0.054 -0.287,-0.113 -0.513,-0.177l-0.303,-0.089c-0.364,-0.103 -0.647,-0.212 -0.848,-0.328c-0.202,-0.116 -0.347,-0.256 -0.436,-0.421c-0.088,-0.165 -0.133,-0.37 -0.133,-0.616c0,-0.266 0.07,-0.501 0.211,-0.705c0.14,-0.204 0.339,-0.363 0.597,-0.476c0.259,-0.113 0.563,-0.17 0.912,-0.17c0.531,0 0.941,0.128 1.229,0.384c0.288,0.256 0.431,0.623 0.431,1.1l0,0.066l-0.929,0l-0,-0.118c-0,-0.201 -0.064,-0.355 -0.192,-0.461c-0.128,-0.106 -0.305,-0.159 -0.532,-0.159c-0.251,0 -0.443,0.043 -0.575,0.129c-0.133,0.087 -0.2,0.206 -0.2,0.358c0,0.104 0.026,0.187 0.078,0.251c0.051,0.064 0.14,0.122 0.265,0.174l0.971,0.313c0.423,0.128 0.736,0.294 0.937,0.499c0.202,0.204 0.303,0.458 0.303,0.763c-0,0.433 -0.156,0.774 -0.469,1.023c-0.312,0.248 -0.739,0.372 -1.28,0.372Zm-25.758,-3.815l0,1.033l2.023,-0l-0,0.827l-2.023,-0l0,1.084l2.185,0l-0,0.827l-3.107,0l-0,-4.605l3.107,-0l-0,0.834l-2.185,-0Zm10.606,-0.834c0.694,-0 1.189,0.12 1.487,0.361c0.298,0.241 0.447,0.625 0.447,1.152c-0,0.364 -0.059,0.654 -0.178,0.871c-0.118,0.216 -0.312,0.375 -0.583,0.476c-0.27,0.1 -0.637,0.151 -1.099,0.151l-0.82,-0l0,1.594l-0.922,0l-0,-4.605l1.668,-0Zm7.019,1.52c-0,0.389 -0.082,0.694 -0.244,0.915c-0.162,0.222 -0.43,0.382 -0.804,0.48l1.048,1.69l-1.063,0l-0.952,-1.587l-0.672,0l0,1.587l-0.922,0l-0,-4.605l1.594,-0c0.708,-0 1.221,0.123 1.539,0.369c0.317,0.246 0.476,0.63 0.476,1.151Zm-11.669,0.79l1.432,2.295l-1.004,0l-0.959,-1.542l-0.967,1.542l-0.945,0l1.432,-2.31l-1.432,-2.295l1.004,-0l0.96,1.542l0.966,-1.542l0.945,-0l-1.432,2.31Zm14.303,-1.476l0,1.033l2.023,-0l-0,0.827l-2.023,-0l0,1.084l2.185,0l-0,0.827l-3.107,0l-0,-4.605l3.107,-0l-0,0.834l-2.185,-0Zm-5.321,1.365l0.738,0c0.271,0 0.477,-0.023 0.62,-0.07c0.143,-0.047 0.244,-0.119 0.303,-0.218c0.059,-0.098 0.088,-0.236 0.088,-0.413c0,-0.241 -0.075,-0.413 -0.225,-0.517c-0.15,-0.103 -0.424,-0.155 -0.823,-0.155l-0.701,0l0,1.373Zm-4.288,-0.007c0.261,-0 0.46,-0.024 0.598,-0.07c0.138,-0.047 0.232,-0.12 0.284,-0.218c0.052,-0.099 0.078,-0.234 0.078,-0.406c-0,-0.167 -0.03,-0.299 -0.089,-0.395c-0.059,-0.096 -0.162,-0.166 -0.31,-0.21c-0.148,-0.045 -0.354,-0.067 -0.62,-0.067l-0.731,0l0,1.366l0.79,-0Zm-24.471,-24.325c3.721,0 6.742,3.021 6.742,6.743c0,3.721 -3.021,6.742 -6.742,6.742c-3.721,-0 -6.742,-3.021 -6.742,-6.742c0,-3.722 3.021,-6.743 6.742,-6.743Zm0,1.905c2.67,0 4.838,2.168 4.838,4.838c-0,2.669 -2.168,4.837 -4.838,4.837c-2.67,-0 -4.837,-2.168 -4.837,-4.837c-0,-2.67 2.167,-4.838 4.837,-4.838Zm-1.453,6.031c0.053,0.053 0.138,0.053 0.191,0c0.57,-0.571 3.531,-3.532 4.102,-4.102c0.053,-0.053 0.138,-0.053 0.191,-0c0.165,0.165 0.503,0.503 0.668,0.668c0.052,0.052 0.052,0.138 -0,0.19c-0.64,0.64 -4.306,4.306 -4.958,4.958c-0.026,0.026 -0.062,0.041 -0.099,0.041c-0.037,-0 -0.073,-0.015 -0.099,-0.041c-0.395,-0.395 -1.853,-1.854 -2.241,-2.242c-0.053,-0.052 -0.053,-0.138 -0,-0.19c0.165,-0.165 0.503,-0.503 0.668,-0.668c0.053,-0.053 0.138,-0.053 0.191,-0c0.281,0.281 1.105,1.105 1.386,1.386Zm32.19,1.153c-0.615,0 -1.081,-0.135 -1.398,-0.405c-0.318,-0.271 -0.477,-0.67 -0.477,-1.196l0,-1.491c0,-0.526 0.159,-0.925 0.477,-1.196c0.317,-0.27 0.783,-0.405 1.398,-0.405c1.22,-0 1.83,0.524 1.83,1.572l0,0.228l-0.922,0l-0,-0.228c-0,-0.251 -0.064,-0.433 -0.192,-0.547c-0.128,-0.113 -0.364,-0.169 -0.709,-0.169c-0.364,-0 -0.615,0.062 -0.752,0.188c-0.138,0.125 -0.207,0.309 -0.207,0.55l0,1.505c0,0.236 0.073,0.419 0.218,0.546c0.145,0.128 0.392,0.192 0.741,0.192c0.34,0 0.575,-0.057 0.705,-0.173c0.131,-0.116 0.196,-0.304 0.196,-0.565l-0,-0.199l0.922,0l0,0.214c0,0.536 -0.153,0.934 -0.461,1.192c-0.307,0.258 -0.764,0.387 -1.369,0.387Zm-15.919,0c-0.615,0 -1.082,-0.135 -1.399,-0.405c-0.317,-0.271 -0.476,-0.67 -0.476,-1.196l0,-1.491c0,-0.526 0.159,-0.925 0.476,-1.196c0.317,-0.27 0.784,-0.405 1.399,-0.405c1.22,-0 1.83,0.524 1.83,1.572l0,0.228l-0.923,0l0,-0.228c0,-0.251 -0.063,-0.433 -0.191,-0.547c-0.128,-0.113 -0.365,-0.169 -0.709,-0.169c-0.364,-0 -0.615,0.062 -0.753,0.188c-0.137,0.125 -0.206,0.309 -0.206,0.55l-0,1.505c-0,0.236 0.072,0.419 0.217,0.546c0.145,0.128 0.393,0.192 0.742,0.192c0.34,0 0.575,-0.057 0.705,-0.173c0.13,-0.116 0.195,-0.304 0.195,-0.565l0,-0.199l0.923,0l0,0.214c0,0.536 -0.154,0.934 -0.461,1.192c-0.308,0.258 -0.764,0.387 -1.369,0.387Zm24.805,-4.649l0.923,-0l-0,4.605l-0.923,0l0,-4.605Zm-14.495,0.834l0,1.033l2.022,0l0,0.827l-2.022,-0l0,1.085l2.185,-0l-0,0.826l-3.108,0l0,-4.605l3.108,-0l-0,0.834l-2.185,-0Zm21.388,-0.834l0,4.605l-0.826,0l-2.355,-3.055l0,3.055l-0.871,0l0,-4.605l0.827,-0l2.354,3.107l0,-3.107l0.871,-0Zm-10.878,2.701l-0.377,0.406l0,1.498l-0.922,0l-0,-4.605l0.922,-0l0,1.985l1.831,-1.985l1.048,-0l-1.905,2.059l1.986,2.546l-1.093,0l-1.49,-1.904Zm-13.351,-2.701l-0,4.605l-0.923,0l0,-1.911l-2.022,-0l-0,1.911l-0.923,0l0,-4.605l0.923,-0l-0,1.867l2.022,0l0,-1.867l0.923,-0Zm-22.287,-22.144c3.721,-0 6.742,3.021 6.742,6.742c0,3.721 -3.021,6.742 -6.742,6.742c-3.721,0 -6.742,-3.021 -6.742,-6.742c0,-3.721 3.021,-6.742 6.742,-6.742Zm0,1.904c2.67,0 4.838,2.168 4.838,4.838c-0,2.67 -2.168,4.837 -4.838,4.837c-2.67,0 -4.837,-2.167 -4.837,-4.837c-0,-2.67 2.167,-4.838 4.837,-4.838Zm-1.453,6.031c0.053,0.053 0.138,0.053 0.191,0c0.57,-0.57 3.531,-3.531 4.102,-4.102c0.053,-0.053 0.138,-0.053 0.191,0c0.165,0.165 0.503,0.503 0.668,0.668c0.052,0.053 0.052,0.138 -0,0.191c-0.64,0.64 -4.306,4.305 -4.958,4.957c-0.026,0.027 -0.062,0.041 -0.099,0.041c-0.037,0 -0.073,-0.014 -0.099,-0.041c-0.395,-0.395 -1.853,-1.853 -2.241,-2.241c-0.053,-0.053 -0.053,-0.138 -0,-0.191c0.165,-0.165 0.503,-0.503 0.668,-0.668c0.053,-0.053 0.138,-0.053 0.191,0c0.281,0.281 1.105,1.105 1.386,1.386Zm41.076,1.154c-0.556,-0 -0.988,-0.122 -1.295,-0.365c-0.308,-0.244 -0.461,-0.585 -0.461,-1.023l-0,-0.169l0.929,-0l0,0.118c0,0.418 0.283,0.627 0.849,0.627c0.512,0 0.768,-0.152 0.768,-0.458c-0,-0.108 -0.024,-0.195 -0.07,-0.262c-0.047,-0.066 -0.128,-0.126 -0.244,-0.18c-0.116,-0.054 -0.287,-0.113 -0.513,-0.177l-0.302,-0.089c-0.365,-0.103 -0.647,-0.213 -0.849,-0.328c-0.202,-0.116 -0.347,-0.256 -0.436,-0.421c-0.088,-0.165 -0.132,-0.37 -0.132,-0.616c-0,-0.266 0.07,-0.501 0.21,-0.705c0.14,-0.204 0.339,-0.363 0.598,-0.476c0.258,-0.113 0.562,-0.17 0.911,-0.17c0.532,0 0.941,0.128 1.229,0.384c0.288,0.256 0.432,0.622 0.432,1.099l-0,0.067l-0.93,-0l-0,-0.118c-0,-0.202 -0.064,-0.356 -0.192,-0.461c-0.128,-0.106 -0.305,-0.159 -0.531,-0.159c-0.251,-0 -0.443,0.043 -0.576,0.129c-0.133,0.086 -0.199,0.205 -0.199,0.358c-0,0.103 0.025,0.187 0.077,0.251c0.052,0.064 0.14,0.122 0.266,0.173l0.97,0.314c0.423,0.128 0.736,0.294 0.938,0.498c0.201,0.204 0.302,0.459 0.302,0.764c0,0.433 -0.156,0.774 -0.468,1.022c-0.313,0.249 -0.74,0.373 -1.281,0.373Zm5.1,-0c-0.556,-0 -0.988,-0.122 -1.295,-0.365c-0.308,-0.244 -0.462,-0.585 -0.462,-1.023l0,-0.169l0.93,-0l0,0.118c0,0.418 0.283,0.627 0.849,0.627c0.512,0 0.768,-0.152 0.768,-0.458c-0,-0.108 -0.024,-0.195 -0.071,-0.262c-0.046,-0.066 -0.127,-0.126 -0.243,-0.18c-0.116,-0.054 -0.287,-0.113 -0.513,-0.177l-0.303,-0.089c-0.364,-0.103 -0.647,-0.213 -0.848,-0.328c-0.202,-0.116 -0.347,-0.256 -0.436,-0.421c-0.088,-0.165 -0.133,-0.37 -0.133,-0.616c0,-0.266 0.07,-0.501 0.211,-0.705c0.14,-0.204 0.339,-0.363 0.597,-0.476c0.259,-0.113 0.563,-0.17 0.912,-0.17c0.531,0 0.941,0.128 1.229,0.384c0.288,0.256 0.432,0.622 0.432,1.099l-0,0.067l-0.93,-0l-0,-0.118c-0,-0.202 -0.064,-0.356 -0.192,-0.461c-0.128,-0.106 -0.305,-0.159 -0.532,-0.159c-0.251,-0 -0.442,0.043 -0.575,0.129c-0.133,0.086 -0.2,0.205 -0.2,0.358c0,0.103 0.026,0.187 0.078,0.251c0.052,0.064 0.14,0.122 0.266,0.173l0.97,0.314c0.423,0.128 0.736,0.294 0.937,0.498c0.202,0.204 0.303,0.459 0.303,0.764c0,0.433 -0.156,0.774 -0.469,1.022c-0.312,0.249 -0.739,0.373 -1.28,0.373Zm-30.857,-3.816l-0,1.034l2.022,-0l-0,0.826l-2.022,0l-0,1.085l2.184,0l0,0.827l-3.107,-0l0,-4.606l3.107,0l0,0.834l-2.184,0Zm20.259,0l-0,1.034l2.022,-0l-0,0.826l-2.022,0l-0,1.085l2.184,0l0,0.827l-3.107,-0l0,-4.606l3.107,0l0,0.834l-2.184,0Zm-9.654,-0.834c0.694,0 1.19,0.121 1.487,0.362c0.298,0.241 0.447,0.625 0.447,1.151c-0,0.364 -0.059,0.655 -0.177,0.871c-0.118,0.217 -0.313,0.375 -0.583,0.476c-0.271,0.101 -0.638,0.151 -1.1,0.151l-0.819,0l-0,1.595l-0.923,-0l0,-4.606l1.668,0Zm7.019,1.521c-0,0.388 -0.081,0.693 -0.244,0.915c-0.162,0.221 -0.43,0.381 -0.804,0.48l1.048,1.69l-1.063,-0l-0.952,-1.587l-0.672,-0l0,1.587l-0.922,-0l-0,-4.606l1.594,0c0.709,0 1.222,0.123 1.539,0.369c0.317,0.246 0.476,0.63 0.476,1.152Zm-11.668,0.789l1.431,2.296l-1.003,-0l-0.96,-1.543l-0.967,1.543l-0.944,-0l1.431,-2.31l-1.431,-2.296l1.003,0l0.96,1.543l0.967,-1.543l0.944,0l-1.431,2.31Zm8.981,-0.11l0.738,-0c0.271,-0 0.478,-0.024 0.62,-0.07c0.143,-0.047 0.244,-0.12 0.303,-0.218c0.059,-0.099 0.089,-0.236 0.089,-0.413c-0,-0.242 -0.075,-0.414 -0.226,-0.517c-0.15,-0.103 -0.424,-0.155 -0.822,-0.155l-0.702,-0l0,1.373Zm-4.288,-0.008c0.261,0 0.461,-0.023 0.598,-0.07c0.138,-0.047 0.233,-0.119 0.284,-0.218c0.052,-0.098 0.078,-0.233 0.078,-0.405c-0,-0.168 -0.03,-0.299 -0.089,-0.395c-0.059,-0.096 -0.162,-0.166 -0.31,-0.211c-0.147,-0.044 -0.354,-0.066 -0.62,-0.066l-0.73,-0l-0,1.365l0.789,0Z"/></svg>