<?xml version="1.0" encoding="UTF-8" standalone="no"?><!DOCTYPE svg PUBLIC "-//W3C//DTD SVG 1.1//EN" "http://www.w3.org/Graphics/SVG/1.1/DTD/svg11.dtd"><svg width="100%" height="100%" viewBox="0 0 130 125" version="1.1" xmlns="http://www.w3.org/2000/svg" xmlns:xlink="http://www.w3.org/1999/xlink" xml:space="preserve" xmlns:serif="http://www.serif.com/" style="fill-rule:evenodd;clip-rule:evenodd;stroke-linejoin:round;stroke-miterlimit:2;"><rect id="hot" x="0.058" y="0.007" width="125" height="125" style="fill:none;"/><path d="M106.197,7.065c0,-1.15 -0.933,-2.083 -2.083,-2.083l-81.717,0c-1.15,0 -2.083,0.933 -2.083,2.083l-0,110.284c-0,1.15 0.933,2.083 2.083,2.083l81.717,-0c1.15,-0 2.083,-0.933 2.083,-2.083l0,-110.284Zm-4.167,2.084l0,106.116c0,0 -77.549,0 -77.549,0c-0,0 -0,-106.116 -0,-106.116l77.549,-0Zm-9.408,103.913c-2.4,0 -4.22,-0.528 -5.459,-1.584c-1.238,-1.056 -1.858,-2.746 -1.858,-5.07l0,-11.494l3.601,0l0,11.379c0,1.114 0.264,1.954 0.792,2.52c0.528,0.567 1.503,0.85 2.924,0.85c1.402,0 2.367,-0.293 2.895,-0.878c0.528,-0.586 0.793,-1.417 0.793,-2.492l-0,-11.379l3.6,0l0,11.494c0,2.343 -0.614,4.038 -1.843,5.084c-1.229,1.047 -3.044,1.57 -5.445,1.57Zm-11.326,-18.148l-0,17.976l-3.227,-0l-9.189,-11.926l-0,11.926l-3.399,-0l-0,-17.976l3.226,0l9.189,12.128l0,-12.128l3.4,0Zm-27.632,3.255l0,4.033l7.894,0l-0,3.227l-7.894,-0l0,4.234l8.527,0l0,3.227l-12.127,-0l-0,-17.976l12.127,0l0,3.255l-8.527,0Zm-7.754,-3.255l-0,17.976l-3.457,-0l0,-11.322l-5.588,9.795l-0.404,-0l-5.79,-9.939l0,11.466l-3.428,-0l0,-17.976l3.313,0l6.28,10.515l5.934,-10.515l3.14,0Zm22.154,-22.488c0.002,-0.002 0.004,-0.003 0.006,-0.005c0.155,-0.143 0.61,-0.002 0.7,0.244l-0,-0.013c0.003,-0.269 0.113,-0.172 0.289,-0.172l0.017,-0.001c0.173,-0.005 0.343,-0.09 0.343,0.186l0.092,-0.179l0.16,-0.202l0.107,-0.096c0.092,-0.067 0.18,-0.093 0.239,-0.039c0.038,0.035 0.06,0.099 0.071,0.18l0.001,0.31l-0.071,0.421c-0.012,0.046 -0.025,0.088 -0.037,0.122c0.025,-0.023 0.057,-0.045 0.095,-0.064l0.141,-0.054l0.134,-0.024l0.118,0.004l0.068,0.018l0.05,0.025l0.036,0.03l0.024,0.03l0.018,0.035l0.014,0.046l0.006,0.077c-0.006,0.262 -0.246,0.649 -0.38,0.772c0.148,-0 0.272,0.156 0.312,0.37c0.088,-0.072 0.312,-0.36 0.42,-0.372c0.284,-0.03 0.37,0.445 0.341,0.762c0.152,-0.264 0.433,-0.393 0.657,-0.314c0.039,-0.11 0.141,-0.404 0.25,-0.573l0.085,-0.101l0.013,-0.008c0.051,-0.031 0.103,-0.044 0.155,-0.045l0.008,0.001c0.262,0.006 0.522,0.353 0.671,0.619l-0.074,-0.278c0.032,0.006 0.203,0.272 0.44,0.272l0.017,0c0.132,-0.001 0.227,-0.018 0.293,-0.017l0.008,-0c0.102,0.003 0.134,0.051 0.134,0.271l0.003,-0.005c0.072,-0.118 0.261,-0.057 0.41,0.073c0.004,-0.096 0.004,-0.185 -0.003,-0.259c0.665,0.666 1.011,1.396 1.011,2.122c0,1.642 -0.444,6.042 -3.653,9.107c-1.92,1.833 -4.826,3.214 -9.247,3.201c-4.409,-0.012 -7.312,-1.392 -9.23,-3.217c-3.221,-3.063 -3.666,-7.446 -3.666,-9.091c0,-1.305 1.118,-2.622 3.194,-3.561c2.295,-1.038 5.789,-1.715 9.704,-1.715c0.556,-0 1.104,0.013 1.64,0.04c-0.054,0.079 -0.104,0.165 -0.149,0.252c-0.007,-0.003 -0.014,-0.005 -0.021,-0.008c-0.228,-0.079 -0.478,-0.04 -0.694,0.187c-0.089,0.094 -0.164,0.219 -0.219,0.364l-0.887,-0.003c-0.004,-0.104 -0.033,-0.184 -0.065,-0.238c-0.066,-0.108 -0.162,-0.175 -0.289,-0.196c-0.079,-0.013 -0.193,-0.01 -0.335,0.069c-0.097,0.053 -0.246,0.176 -0.457,0.396c-0.266,0.012 -0.529,0.027 -0.79,0.045c-0.328,-0.192 -0.769,-0.317 -1.001,-0.284c-0.246,0.036 -0.365,0.167 -0.426,0.329c-0.011,0.028 -0.019,0.059 -0.025,0.092c-0.222,0.027 -0.441,0.056 -0.657,0.087c-0.023,-0.014 -0.045,-0.024 -0.064,-0.031c-0.13,-0.049 -0.25,-0.033 -0.363,0.045l-0.004,0.004c-0.06,-0.065 -0.118,-0.115 -0.168,-0.149c-0.108,-0.074 -0.21,-0.096 -0.285,-0.096c-0.096,-0 -0.176,0.03 -0.242,0.078c-0.078,0.056 -0.152,0.15 -0.175,0.301c-0.002,0.02 -0.004,0.043 -0.005,0.069c-2.361,0.466 -4.254,1.212 -5.349,2.118c-0.179,0.002 -0.342,0.084 -0.457,0.222c-0.089,0.107 -0.147,0.248 -0.152,0.405l-0.129,0.19c-0.075,0.06 -0.129,0.178 -0.166,0.292c0.01,-0.014 0.021,-0.029 0.033,-0.044c0.077,0.009 0.316,-0.341 0.316,-0.505c-0,-0.156 0.112,-0.282 0.25,-0.282c0.137,-0 0.249,0.126 0.249,0.282c0.061,-0.12 0.189,-0.17 0.3,-0.125c-0.042,0.166 0.136,0.164 0.247,0.231c0.03,0.04 0.055,0.089 0.076,0.149c0.003,0.001 0.006,0.002 0.009,0.003c0.002,-0.078 -0.035,-0.122 -0.085,-0.152c-0.032,-0.044 -0.069,-0.075 -0.108,-0.092c-0.021,-0.047 -0.054,-0.089 -0.098,-0.117c-0.013,-0.009 -0.027,-0.016 -0.041,-0.022c0.012,-0.044 0.039,-0.1 0.088,-0.173c0.091,-0.138 0.347,-0.036 0.347,0.276c0.082,-0.27 0.266,-0.363 0.409,-0.207c0.143,0.156 0.192,0.502 0.109,0.772c0.144,-0.156 0.327,-0.063 0.409,0.207c0.083,0.27 0.034,0.616 -0.109,0.772c0.032,-0 0.063,0.009 0.092,0.027c0.16,0.042 0.326,0.094 0.496,0.154c0.011,-0.021 0.023,-0.039 0.036,-0.056c-0.105,-0 -0.195,-0.142 -0.235,-0.344c-0.353,-0.434 -0.305,-0.783 0.184,-0.892c-0.082,-0.179 -0.282,-0.426 -0.222,-0.658c0.071,-0.275 0.407,-0.409 0.529,-0.25c-0.071,-0.275 -0.435,-0.546 -0.313,-0.704c0.123,-0.159 0.686,-0.145 0.757,0.129c-0,-0.317 -0.18,-0.505 -0.039,-0.505c0.142,-0 0.551,0.188 0.551,0.505c0.071,-0.274 0.468,-0.894 0.591,-0.735c0.122,0.159 -0.076,1.035 -0.147,1.31c0.107,-0.139 0.37,-0.347 0.449,-0.147l-0.074,0.212c0.005,-0.012 0.009,-0.024 0.015,-0.036c0.012,-0.026 0.027,-0.072 0.045,-0.131c0.012,-0.03 0.019,-0.051 0.014,-0.045l-0,-0c0.075,-0.256 0.185,-0.665 0.264,-0.628c-0.21,-0.322 0.23,-0.192 0.336,-0.284l0,0c-0.001,-0.171 0.012,-0.314 0.064,-0.325c0.032,-0.007 0.256,0.617 0.284,0.626c0.063,-0.055 0.135,-0.039 0.197,0.062c-0.069,-0.332 0.008,-0.388 0.126,-0.579c0.118,-0.191 0.234,-0.446 0.302,-0.114c0,-0.365 -0.15,-0.826 -0.045,-0.868l0.017,-0.003c0.137,0 0.523,0.488 0.523,0.871c0.068,-0.332 0.087,-0.85 0.205,-0.659c0.028,0.045 0.185,0.508 0.204,0.575c0.045,-0.137 0.568,0.388 0.72,0.294c0.285,-0.177 0.207,-0.806 0.341,-0.59c0.026,-0.275 -0.262,-0.73 0.052,-0.775c0.314,-0.046 1.111,0.335 1.085,0.61c0.18,-0.261 0.138,0.441 0.31,0.225c0.44,-0.55 0.726,-0.851 0.899,-0.982l0.088,-0.058l0.04,-0.017l0.024,-0.006l0.027,0.001c0.005,0.001 0.009,0.003 0.013,0.005l0.018,0.019l0.007,0.02l0.004,0.022l0.001,0.008c0.004,0.079 -0.034,0.213 -0.098,0.37c-0.032,0.014 -0.259,0.471 -0.336,0.654c-0.02,0.032 -0.04,0.064 -0.06,0.095c0.012,-0.008 0.024,-0.015 0.036,-0.021c-0.003,-0.004 0.006,-0.031 0.024,-0.074l0.336,-0.654c0.048,-0.02 -0.199,0.644 -0.111,0.641c0.055,-0.008 0.27,-0.591 0.33,-0.617c-0.002,-0.004 -0,-0.005 0.005,-0.001c-0.002,-0 -0.003,-0 -0.005,0.001c0.014,0.03 0.224,0.261 0.335,0.246c0.142,-0.02 -0,-0 0.039,0.31c-0,-0.039 0.223,-0.417 0.387,-0.417c0.164,0 0.207,0.378 0.207,0.417c0.031,-0.013 0.077,-0.023 0.13,-0.029c0.092,-0.057 0.194,-0.058 0.29,0.005c0.021,0.003 0.04,0.007 0.057,0.011c-0.085,-0.316 -0.045,-0.692 0.09,-0.93l0.062,-0.092l0.067,-0.066l0.062,-0.04l0.063,-0.023l0.055,-0.005l0.072,0.012l0.061,0.027l0.061,0.045l0.047,0.05l0.043,0.059c0.037,0.058 0.07,0.128 0.095,0.209c0,-0.058 0.009,-0.12 0.025,-0.186l0.113,-0.306l0.18,-0.309c0.039,-0.056 0.079,-0.108 0.12,-0.154c0.119,-0.14 0.24,-0.233 0.326,-0.233c0.096,0 0.135,0.118 0.146,0.287l-0.027,0.901c0.015,-0.05 0.046,-0.09 0.088,-0.121l0.038,-0.025l0.097,-0.039l0.125,-0.024l0.285,0.003l0.346,0.07l0.221,0.088l0.089,0.053l0.042,0.038c0.211,0.221 -0.446,0.376 -0.567,0.76c0.066,-0.07 0.139,-0.104 0.211,-0.107c0.018,-0.02 0.039,-0.032 0.061,-0.036c0.069,-0.01 0.293,-0.362 0.361,-0.23c0.046,0.063 -0.062,0.571 -0.031,0.668c0.033,0.102 0.051,0.212 0.057,0.323c0.004,0.024 0.008,0.048 0.012,0.072c0.013,-0.428 0.37,-1.059 0.535,-0.837c0.031,0.042 0.019,0.188 0,0.352c-0.038,0.039 -0.036,0.142 -0.029,0.252c-0.012,0.12 -0.018,0.227 -0.002,0.286c0.02,-0.063 0.009,-0.177 0.002,-0.286l0.029,-0.252c0.167,-0.169 0.515,0.081 0.664,0.263c0.001,-0.048 0.044,-0.232 0.066,-0.367c-0.076,-0.022 -0.081,-0.1 -0.007,-0.15c0.028,-0.019 0.022,0.053 0.007,0.15c0.064,0.018 0.178,-0.003 0.338,-0.115c0.018,-0.016 0.036,-0.03 0.055,-0.042c-0.031,-0.151 -0.129,-0.339 -0.152,-0.485l-0.004,-0.075l0.005,-0.034l0.008,-0.024l0.011,-0.022l0.016,-0.02Zm6.565,4.097l0.002,-0.022c0.008,0.078 0.009,0.148 0.007,0.212c-0.003,0.058 -0.008,0.111 -0.016,0.161c-0.079,2.792 -1.405,11.229 -12.064,11.199c-10.956,-0.03 -12.051,-8.885 -12.067,-11.42l-0,-0.058c-0,0.968 0.842,1.865 2.272,2.595l1.183,0.517l0.933,0.316l4.155,0.824l1.758,0.146l3.006,0.024l2.704,-0.22l2.407,-0.422c3.431,-0.785 5.717,-2.185 5.717,-3.78c-0,-0.025 0.001,-0.049 0.003,-0.072Zm-11.22,1.133c-0.003,0.011 -0.005,0.023 -0.007,0.034c-0.02,-0.006 -0.04,-0.012 -0.06,-0.018c0.024,-0.005 0.046,-0.011 0.067,-0.016Zm-0.623,-3.96c-0.032,0.324 0.048,0.664 0.213,0.838c-0.243,0 -0.364,0.286 -0.364,0.729c0,0.19 -0.041,0.439 0.02,0.577c-0.057,-0.001 -0.113,-0.001 -0.169,-0.001c-0.029,-0.01 -0.062,-0.017 -0.096,-0.021l-0.006,-0.017c0.118,-0.064 0.153,-0.182 0.077,-0.275c-0.066,-0.08 -0.194,-0.119 -0.315,-0.103c0.061,-0.099 0.487,-0.71 0.412,-0.813c-0.037,-0.051 -0.515,0.4 -0.574,0.371c0.209,-0.106 0.368,-0.303 0.388,-0.509c0.026,-0.275 -0.207,-0.461 -0.521,-0.416c0.16,-0.099 0.408,-0.01 0.449,-0.155c0.079,-0.004 0.215,0.236 0.258,0.219c0,0.039 -0.186,0.352 0.137,0.038c0.035,-0.034 0.05,-0.457 0.091,-0.462Zm-6.412,0.488c0.006,0.095 0.012,0.172 0.011,0.208c-0.018,-0.035 -0.018,-0.116 -0.011,-0.208c-0.009,-0.117 -0.018,-0.262 -0.02,-0.39c0.074,-0.063 0.033,0.19 0.02,0.39Zm14.088,-1.816c0.66,0.199 1.263,0.423 1.801,0.666c0.656,0.297 1.216,0.631 1.675,0.991c-0.008,-0 -0.017,-0.001 -0.026,-0.001c-0.072,-0.002 -0.177,0.017 -0.329,0.017c-0.032,0 -0.048,-0.037 -0.068,-0.055c-0.06,-0.056 -0.104,-0.108 -0.127,-0.126c-0.066,-0.055 -0.13,-0.079 -0.186,-0.088c-0.105,-0.112 -0.219,-0.207 -0.335,-0.264c-0.221,-0.109 -0.45,-0.117 -0.672,0.015c-0.078,0.046 -0.171,0.144 -0.251,0.278c-0.283,-0.129 -0.585,-0.251 -0.904,-0.368c0.02,-0.138 0.012,-0.267 -0.025,-0.368c-0.087,-0.241 -0.296,-0.375 -0.559,-0.394l0.006,-0.303Zm-4.979,-0.92c1.403,0.126 2.714,0.34 3.889,0.624c-0.007,0.009 -0.015,0.018 -0.023,0.027c-0.025,-0.003 -0.051,-0.005 -0.078,-0.005c-0.063,-0 -0.137,0.016 -0.212,0.016c-0.123,0 -0.223,-0.02 -0.292,-0.005c-0.016,0.004 -0.031,0.008 -0.046,0.013c-0.079,-0.043 -0.164,-0.076 -0.249,-0.096c-0.262,-0.063 -0.512,-0.001 -0.652,0.127c-0.112,0.103 -0.169,0.239 -0.166,0.406l0.001,0.009c-0.271,-0.046 -0.546,-0.089 -0.827,-0.128c-0.006,-0.1 -0.043,-0.205 -0.142,-0.309c-0.079,-0.083 -0.223,-0.174 -0.408,-0.242c-0.234,-0.085 -0.54,-0.14 -0.799,-0.128c0.005,-0.109 0.007,-0.215 0.004,-0.309Zm-2.925,-23.563c-5.233,0 -9.867,1.238 -12.774,3.064c-2.536,1.592 -3.853,3.692 -3.853,5.829c0,2.137 1.317,4.236 3.853,5.828c2.907,1.826 7.541,3.065 12.774,3.065c5.233,-0 9.868,-1.239 12.775,-3.065c2.535,-1.592 3.852,-3.691 3.852,-5.828c-0,-2.137 -1.317,-4.237 -3.852,-5.829c-2.907,-1.826 -7.542,-3.064 -12.775,-3.064Zm-1.644,15.659c0.539,0.029 1.088,0.043 1.644,0.043c8.027,0 14.544,-3.051 14.544,-6.809c-0,-3.758 -6.517,-6.81 -14.544,-6.81c-0.408,0 -0.813,0.008 -1.213,0.024c0.38,0.024 0.724,0.182 0.986,0.426c0.221,0.207 0.383,0.475 0.458,0.774c0.116,0.059 0.224,0.131 0.321,0.216c0.279,-0.243 0.645,-0.39 1.044,-0.39c0.441,-0 0.84,0.178 1.129,0.467c0.289,0.289 0.467,0.688 0.467,1.129c0,0.26 -0.062,0.505 -0.173,0.722c-0.024,0.048 -0.051,0.095 -0.08,0.14c0.044,0.113 0.075,0.233 0.091,0.356l3.701,-1.729c1.463,-0.621 2.565,0.106 3.02,1.114l0.097,-0.045c1.464,-0.621 2.566,0.106 3.021,1.114c0.484,1.073 0.21,2.475 -1.128,3.019l-12.358,5.776c-0.113,0.05 -0.224,0.092 -0.334,0.126c-0.208,0.164 -0.443,0.279 -0.693,0.337Zm-7.976,-11.871c-3.019,1.248 -4.923,3.073 -4.923,5.105c-0,3.339 5.144,6.12 11.921,6.699c-0.25,-0.095 -0.478,-0.249 -0.675,-0.452c-0.247,-0.255 -0.442,-0.592 -0.553,-0.979l-0.218,0.093c-0.311,0.244 -0.68,0.38 -1.073,0.38c-0.481,-0 -0.927,-0.205 -1.273,-0.562c-0.394,-0.407 -0.656,-1.021 -0.656,-1.713c-0,-0.033 0,-0.066 0.001,-0.099c-0.073,-0.837 0.32,-1.729 1.414,-2.253l0.166,-0.078c-0.101,-0.107 -0.188,-0.227 -0.258,-0.359c-0.043,-0.083 -0.08,-0.17 -0.109,-0.261c-0.042,0.049 -0.086,0.096 -0.134,0.14c-0.285,0.266 -0.667,0.429 -1.088,0.429c-0.44,0 -0.839,-0.178 -1.128,-0.467c-0.262,-0.262 -0.433,-0.614 -0.463,-1.005c-0.113,0.025 -0.23,0.039 -0.351,0.039c-0.44,-0 -0.839,-0.179 -1.128,-0.468c-0.2,-0.2 -0.347,-0.453 -0.419,-0.735c-0.186,-0.095 -0.351,-0.225 -0.486,-0.382c-0.24,-0.279 -0.386,-0.643 -0.386,-1.041c0,-0.44 0.179,-0.839 0.468,-1.128c0.288,-0.289 0.688,-0.468 1.128,-0.468c0.017,0 0.033,0.001 0.05,0.001c0.036,-0.155 0.095,-0.302 0.173,-0.436Zm8.047,8.08c-0.14,-0.065 -0.292,-0.1 -0.45,-0.1c-0.687,-0 -1.251,0.666 -1.309,1.515c0.072,0.925 0.942,1.764 2.088,1.481c0.325,-0.302 0.536,-0.788 0.536,-1.337c-0,-0.636 -0.285,-1.189 -0.701,-1.468c-0.059,-0.028 -0.113,-0.058 -0.164,-0.091Zm13.301,-5.922c-0.171,0.44 -0.598,0.99 -1.261,1.567c-1.033,0.9 -2.658,1.929 -4.579,2.832c-1.921,0.902 -3.751,1.497 -5.103,1.718c-0.452,0.073 -0.857,0.103 -1.206,0.093c0.205,0.359 0.328,0.797 0.328,1.271c0,0.33 -0.059,0.641 -0.164,0.921l11.75,-5.491c1.338,-0.531 1.197,-2.247 0.235,-2.911Zm-15.554,6.444c0,-0.01 0,-0.021 0,-0.031c0,-0.637 -0.284,-1.19 -0.701,-1.468c-0.059,-0.028 -0.113,-0.059 -0.163,-0.092c-0.141,-0.065 -0.292,-0.1 -0.451,-0.1c-0.686,0 -1.251,0.667 -1.309,1.515c0.073,0.925 0.943,1.764 2.088,1.482c0.17,-0.159 0.309,-0.368 0.403,-0.609c0.005,-0.234 0.048,-0.469 0.133,-0.697Zm1.446,-1.388c-0.433,0.068 -0.822,0.095 -1.158,0.085c0.091,0.161 0.166,0.337 0.221,0.525c0.205,-0.203 0.463,-0.385 0.779,-0.537l0.158,-0.073Zm13.552,-5.291c-0.317,-0.062 -0.682,-0.028 -1.083,0.142l-11.548,5.397c0.139,0.049 0.272,0.117 0.396,0.201c1.036,0.364 3.751,-0.282 6.689,-1.663c2.928,-1.376 5.154,-3.046 5.546,-4.077Zm-14.781,4.018l-0.967,0.452c0.138,0.05 0.271,0.117 0.396,0.201c0.991,0.349 3.519,-0.228 6.31,-1.488l0.653,-0.305c2.792,-1.35 4.891,-2.948 5.271,-3.946c-0.317,-0.063 -0.682,-0.029 -1.083,0.141l-4.091,1.912c-0.061,0.07 -0.137,0.125 -0.223,0.161l-1.539,0.692c-0.034,0.025 -0.07,0.046 -0.109,0.064l-4.618,2.116Zm0.001,-7.434c0.308,0.163 0.519,0.487 0.519,0.859c-0,0.024 -0.001,0.047 -0.003,0.069c0.467,0.071 0.826,0.474 0.826,0.961c0,0.01 -0,0.02 -0,0.029c0.021,0.02 0.042,0.041 0.062,0.063c0.014,-0.031 0.03,-0.062 0.047,-0.091c-0.083,-0.143 -0.13,-0.309 -0.13,-0.486c-0,-0.535 0.435,-0.971 0.971,-0.971c0.513,0 0.934,0.4 0.968,0.905c0.033,0.048 0.062,0.099 0.086,0.153c0.425,0.103 0.74,0.487 0.74,0.943c-0,0.044 -0.003,0.087 -0.009,0.13c0.068,0.105 0.117,0.224 0.14,0.352c0.077,0.063 0.144,0.138 0.199,0.222c0.022,-0.019 0.044,-0.037 0.068,-0.054c-0.156,-0.172 -0.251,-0.4 -0.251,-0.65c0,-0.536 0.436,-0.971 0.971,-0.971c0.536,-0 0.971,0.435 0.971,0.971c0,0.321 -0.156,0.606 -0.397,0.783c0.155,0.172 0.25,0.4 0.25,0.65c-0,0.024 -0.001,0.048 -0.003,0.072l-1.534,0.717c-0.099,-0.071 -0.183,-0.16 -0.25,-0.262c-0.021,0.019 -0.044,0.038 -0.067,0.055c0.072,0.08 0.132,0.172 0.174,0.274l-1.758,0.821c-0.043,-0.083 -0.075,-0.173 -0.092,-0.269c-0.077,-0.063 -0.144,-0.138 -0.198,-0.222c-0.022,0.019 -0.045,0.037 -0.068,0.054c0.122,0.136 0.207,0.306 0.237,0.494l-1.693,0.79c-0.038,-0.044 -0.072,-0.091 -0.101,-0.14c-0.366,-0.079 -0.656,-0.363 -0.742,-0.727c-0.07,0.016 -0.142,0.025 -0.216,0.025c-0.013,-0 -0.026,-0.001 -0.039,-0.001c-0.01,0.029 -0.023,0.058 -0.036,0.086c0.354,0.145 0.603,0.493 0.603,0.898c-0,0.036 -0.002,0.071 -0.006,0.105l-1.516,0.695c-0.254,-0.175 -0.42,-0.468 -0.42,-0.8c0,-0.151 0.035,-0.294 0.096,-0.421c-0.159,-0.065 -0.297,-0.172 -0.401,-0.306c-0.135,0.128 -0.308,0.217 -0.499,0.251c-0.035,0.504 -0.456,0.902 -0.969,0.902c-0.536,0 -0.971,-0.435 -0.971,-0.971c0,-0.479 0.348,-0.877 0.805,-0.956l-0,-0.001c-0.467,-0.07 -0.826,-0.474 -0.826,-0.96c-0,-0.011 0,-0.02 0,-0.03c-0.193,-0.177 -0.315,-0.431 -0.317,-0.714c-0.02,-0.027 -0.038,-0.055 -0.055,-0.084c-0.439,-0.093 -0.768,-0.483 -0.768,-0.949c-0,-0.536 0.435,-0.971 0.971,-0.971c0.356,-0 0.667,0.192 0.836,0.478c0.437,0.093 0.766,0.481 0.768,0.945c0.013,0.017 0.025,0.035 0.036,0.053c0.022,-0.079 0.054,-0.153 0.094,-0.222c-0.055,-0.094 -0.094,-0.198 -0.114,-0.309c-0.216,-0.178 -0.354,-0.448 -0.354,-0.749c-0,-0.536 0.435,-0.971 0.971,-0.971c0.476,-0 0.872,0.342 0.955,0.794c0.035,0.029 0.068,0.061 0.099,0.095c0.014,-0.031 0.03,-0.062 0.047,-0.091c-0.083,-0.143 -0.13,-0.309 -0.13,-0.486c-0,-0.276 0.115,-0.525 0.3,-0.702c0.368,-0.059 0.743,-0.112 1.123,-0.157Zm-6.38,4.484c-0.467,-0.07 -0.826,-0.473 -0.826,-0.96c0,-0.536 0.435,-0.971 0.971,-0.971c0.536,0 0.971,0.435 0.971,0.971c-0,0.024 -0.001,0.047 -0.003,0.07c0.468,0.07 0.826,0.473 0.826,0.96c0,0.536 -0.435,0.971 -0.971,0.971c-0.536,-0 -0.971,-0.435 -0.971,-0.971c0,-0.024 0.001,-0.047 0.003,-0.07Zm19.181,-1.186c-0.127,-0.285 -0.325,-0.538 -0.582,-0.715c-0.171,0.439 -0.599,0.989 -1.261,1.566l-0.025,0.022l1.868,-0.873Zm-13.063,-0.174c0.019,0.025 0.039,0.05 0.06,0.073l-0.069,0.053c0.006,-0.041 0.009,-0.083 0.009,-0.126Zm-3.522,-2.39c-0.088,0.024 -0.175,0.049 -0.262,0.074c0.063,0.025 0.124,0.054 0.183,0.086c0.023,-0.055 0.049,-0.109 0.079,-0.16Zm5.83,-0.907c-0.41,0.021 -0.814,0.049 -1.214,0.085c0.104,0.14 0.184,0.297 0.238,0.466c0.029,-0.035 0.061,-0.069 0.093,-0.102c0.234,-0.234 0.541,-0.396 0.883,-0.449Zm11.243,-11.089c0.04,0.141 0.061,0.287 0.061,0.438c0,4.626 -4.365,5.292 -9.742,5.292c-5.376,0 -9.742,-0.666 -9.742,-5.292c0,-0.151 0.021,-0.297 0.061,-0.438c1.149,4.184 18.213,4.184 19.362,0Zm-0.202,-0.037c-0.629,0.146 -1.486,0.212 -2.316,0.163l-0.013,0.005c0.682,0.308 0.358,0.721 -0.79,0.944c-1.066,0.206 -2.502,0.181 -3.412,-0.037c-0.091,0.009 -0.181,0.018 -0.272,0.027c-0.26,0.317 -1.364,0.56 -2.676,0.56c-1.312,-0 -2.415,-0.243 -2.675,-0.56c-0.091,-0.009 -0.182,-0.018 -0.272,-0.028c-0.911,0.219 -2.347,0.244 -3.412,0.038c-1.149,-0.223 -1.472,-0.637 -0.79,-0.944l-0.013,-0.005c-0.83,0.049 -1.688,-0.017 -2.317,-0.163c2.15,3.563 16.81,3.563 18.958,-0Zm-9.479,-11.478c5.377,0 9.742,3.887 9.742,8.674c0,4.787 -19.484,4.787 -19.484,-0c0,-4.787 4.366,-8.674 9.742,-8.674Zm9.728,10.087c0.007,0.116 0.011,0.232 0.013,0.349c-0.14,-0.042 -0.298,-0.079 -0.474,-0.111c0.042,-0.05 0.082,-0.101 0.119,-0.153c0.124,-0.026 0.238,-0.054 0.342,-0.085Zm-19.455,0c0.103,0.031 0.218,0.059 0.341,0.085c0.037,0.051 0.077,0.102 0.12,0.153c-0.176,0.032 -0.335,0.069 -0.475,0.111c0.002,-0.117 0.007,-0.233 0.014,-0.349Zm6.745,-0.22c0,-0 -0.179,-0.222 -0.684,-0.112c-0.137,0.03 -0.225,0.167 -0.195,0.304c0.031,0.138 0.167,0.225 0.304,0.195c0.505,-0.111 0.575,-0.387 0.575,-0.387Zm3.919,0.126c0,0 0.246,-0.145 0.211,-0.66c-0.01,-0.141 -0.132,-0.247 -0.272,-0.238c-0.141,0.01 -0.247,0.132 -0.237,0.272c0.035,0.516 0.298,0.626 0.298,0.626Zm4.498,-1.973c-0,0 -0.208,0.196 -0.06,0.691c0.041,0.135 0.183,0.212 0.318,0.172c0.135,-0.041 0.212,-0.183 0.171,-0.318c-0.148,-0.495 -0.429,-0.545 -0.429,-0.545Zm-11.28,-0.707c-0,0 -0.255,0.128 -0.255,0.645c-0,0.141 0.114,0.255 0.255,0.255c0.141,-0 0.255,-0.114 0.255,-0.255c0,-0.517 -0.255,-0.645 -0.255,-0.645Zm13.931,0.567c-0,0 0.173,-0.227 -0.054,-0.691c-0.062,-0.126 -0.215,-0.179 -0.341,-0.117c-0.127,0.062 -0.18,0.215 -0.118,0.341c0.227,0.464 0.513,0.467 0.513,0.467Zm-10.001,-0.85c0,0 -0.024,-0.284 -0.505,-0.475c-0.13,-0.052 -0.279,0.012 -0.331,0.143c-0.052,0.131 0.012,0.279 0.143,0.331c0.48,0.191 0.693,0.001 0.693,0.001Zm4.762,-0.28c0,0 0.247,0.144 0.68,-0.138c0.118,-0.077 0.151,-0.235 0.074,-0.353c-0.077,-0.118 -0.235,-0.152 -0.353,-0.075c-0.433,0.283 -0.401,0.566 -0.401,0.566Zm-10.279,-0.237c-0,-0 0.145,-0.246 -0.134,-0.681c-0.077,-0.118 -0.235,-0.152 -0.353,-0.076c-0.119,0.076 -0.153,0.234 -0.077,0.353c0.28,0.434 0.564,0.404 0.564,0.404Zm13.114,-2.15c-0,0 0.059,0.279 0.558,0.411c0.136,0.036 0.276,-0.045 0.312,-0.182c0.036,-0.136 -0.045,-0.276 -0.182,-0.311c-0.499,-0.132 -0.688,0.082 -0.688,0.082Zm-5.681,0.293c-0,-0 0.199,0.204 0.691,0.047c0.135,-0.043 0.209,-0.187 0.166,-0.321c-0.043,-0.134 -0.187,-0.209 -0.321,-0.166c-0.492,0.158 -0.536,0.44 -0.536,0.44Zm-3.937,-0.88c0,-0 -0.278,-0.065 -0.609,0.331c-0.09,0.108 -0.075,0.27 0.033,0.36c0.108,0.09 0.269,0.075 0.359,-0.033c0.331,-0.396 0.217,-0.658 0.217,-0.658Zm6.783,-1.893c-0,-0 -0.055,0.28 0.354,0.596c0.112,0.086 0.272,0.065 0.358,-0.046c0.086,-0.112 0.066,-0.272 -0.046,-0.358c-0.409,-0.316 -0.666,-0.192 -0.666,-0.192Zm-4.642,0.381c-0,-0 0.274,-0.08 0.367,-0.588c0.025,-0.139 -0.067,-0.272 -0.205,-0.297c-0.139,-0.026 -0.272,0.066 -0.298,0.205c-0.092,0.508 0.136,0.68 0.136,0.68Zm-19.138,-7.115c-1.433,0 -2.535,-0.332 -3.308,-0.997c-0.773,-0.665 -1.16,-1.623 -1.16,-2.873l0,-3.104c0,-1.25 0.387,-2.208 1.16,-2.873c0.773,-0.665 1.875,-0.998 3.308,-0.998c1.432,0 2.535,0.333 3.308,0.998c0.773,0.665 1.159,1.623 1.159,2.873l0,3.104c0,1.25 -0.386,2.208 -1.159,2.873c-0.773,0.665 -1.876,0.997 -3.308,0.997Zm32.868,0c-1.432,0 -2.535,-0.332 -3.308,-0.997c-0.773,-0.665 -1.16,-1.623 -1.16,-2.873l0,-3.104c0,-1.25 0.387,-2.208 1.16,-2.873c0.773,-0.665 1.876,-0.998 3.308,-0.998c1.432,0 2.535,0.333 3.308,0.998c0.773,0.665 1.16,1.623 1.16,2.873l-0,3.104c-0,1.25 -0.387,2.208 -1.16,2.873c-0.773,0.665 -1.876,0.997 -3.308,0.997Zm-43.341,0c-1.421,0 -2.498,-0.312 -3.232,-0.938c-0.733,-0.625 -1.099,-1.546 -1.099,-2.762l-0,-3.444c-0,-1.217 0.366,-2.138 1.099,-2.763c0.734,-0.625 1.811,-0.938 3.232,-0.938c2.819,0 4.229,1.211 4.229,3.632l-0,0.529l-2.132,0l0,-0.529c0,-0.579 -0.148,-1 -0.443,-1.261c-0.296,-0.262 -0.841,-0.393 -1.637,-0.393c-0.841,0 -1.421,0.145 -1.739,0.435c-0.319,0.29 -0.478,0.714 -0.478,1.271l0,3.478c0,0.546 0.168,0.966 0.503,1.262c0.335,0.296 0.907,0.443 1.714,0.443c0.784,0 1.327,-0.133 1.628,-0.4c0.302,-0.268 0.452,-0.702 0.452,-1.305l0,-0.46l2.132,-0l-0,0.494c-0,1.239 -0.356,2.157 -1.066,2.754c-0.711,0.597 -1.765,0.895 -3.163,0.895Zm32.868,0c-1.421,0 -2.498,-0.312 -3.231,-0.938c-0.733,-0.625 -1.1,-1.546 -1.1,-2.762l-0,-3.444c-0,-1.217 0.367,-2.138 1.1,-2.763c0.733,-0.625 1.81,-0.938 3.231,-0.938c2.819,0 4.229,1.211 4.229,3.632l-0,0.529l-2.132,0l0,-0.529c0,-0.579 -0.147,-1 -0.443,-1.261c-0.295,-0.262 -0.841,-0.393 -1.637,-0.393c-0.841,0 -1.421,0.145 -1.739,0.435c-0.318,0.29 -0.478,0.714 -0.478,1.271l0,3.478c0,0.546 0.168,0.966 0.503,1.262c0.336,0.296 0.907,0.443 1.714,0.443c0.784,0 1.327,-0.133 1.629,-0.4c0.301,-0.268 0.451,-0.702 0.451,-1.305l0,-0.46l2.132,-0l-0,0.494c-0,1.239 -0.355,2.157 -1.066,2.754c-0.71,0.597 -1.765,0.895 -3.163,0.895Zm25.397,-7.23c-0,0.898 -0.188,1.603 -0.563,2.115c-0.375,0.511 -0.995,0.881 -1.859,1.108l2.422,3.905l-2.456,0l-2.2,-3.666l-1.551,-0l-0,3.666l-2.132,0l0,-10.64l3.683,-0c1.637,-0 2.822,0.284 3.556,0.852c0.733,0.569 1.1,1.455 1.1,2.66Zm5.954,-3.512c3.308,-0 4.962,1.54 4.962,4.621l-0,1.227c-0,1.478 -0.387,2.646 -1.16,3.505c-0.773,0.858 -1.898,1.287 -3.376,1.287l-4.399,0l-0,-10.64l3.973,-0Zm-37.8,-0l0,10.64l-1.909,0l-5.44,-7.059l0,7.059l-2.012,0l-0,-10.64l1.91,-0l5.439,7.179l0,-7.179l2.012,-0Zm-15.946,8.764c0.818,0 1.412,-0.15 1.782,-0.452c0.369,-0.301 0.554,-0.781 0.554,-1.44l-0,-3.104c-0,-0.659 -0.185,-1.139 -0.554,-1.441c-0.37,-0.301 -0.964,-0.452 -1.782,-0.452c-0.819,0 -1.413,0.151 -1.782,0.452c-0.37,0.302 -0.554,0.782 -0.554,1.441l-0,3.104c-0,0.659 0.184,1.139 0.554,1.44c0.369,0.302 0.963,0.452 1.782,0.452Zm32.868,0c0.819,0 1.412,-0.15 1.782,-0.452c0.369,-0.301 0.554,-0.781 0.554,-1.44l0,-3.104c0,-0.659 -0.185,-1.139 -0.554,-1.441c-0.37,-0.301 -0.963,-0.452 -1.782,-0.452c-0.818,0 -1.412,0.151 -1.782,0.452c-0.369,0.302 -0.554,0.782 -0.554,1.441l-0,3.104c-0,0.659 0.185,1.139 0.554,1.44c0.37,0.302 0.964,0.452 1.782,0.452Zm23.64,-4.143c0,-0.932 -0.241,-1.617 -0.725,-2.055c-0.483,-0.438 -1.236,-0.656 -2.259,-0.656l-1.62,-0l0,6.82l1.842,0c1.034,0 1.753,-0.23 2.157,-0.69c0.403,-0.461 0.605,-1.191 0.605,-2.192l0,-1.227Zm-14.923,0.46l1.705,0c0.625,0 1.103,-0.054 1.432,-0.162c0.33,-0.108 0.563,-0.276 0.699,-0.503c0.137,-0.227 0.205,-0.546 0.205,-0.955c-0,-0.557 -0.173,-0.955 -0.52,-1.193c-0.347,-0.239 -0.981,-0.358 -1.901,-0.358l-1.62,-0l-0,3.171Z"/></svg>