<?xml version="1.0" encoding="UTF-8" standalone="no"?><!DOCTYPE svg PUBLIC "-//W3C//DTD SVG 1.1//EN" "http://www.w3.org/Graphics/SVG/1.1/DTD/svg11.dtd"><svg width="100%" height="100%" viewBox="0 0 130 125" version="1.1" xmlns="http://www.w3.org/2000/svg" xmlns:xlink="http://www.w3.org/1999/xlink" xml:space="preserve" xmlns:serif="http://www.serif.com/" style="fill-rule:evenodd;clip-rule:evenodd;stroke-linejoin:round;stroke-miterlimit:2;"><rect id="housekeeping" x="0.419" y="0.005" width="125" height="125" style="fill:none;"/><path d="M48.429,115.11l-5.957,-0c4.89,-7.427 8.101,-15.171 7.242,-23.687c-0.053,-0.475 0.098,-0.95 0.417,-1.307c0.319,-0.356 0.774,-0.56 1.252,-0.56c5.314,-0.013 20.069,-0.013 24.015,-0.013c0.614,-0.002 1.181,0.329 1.482,0.864c4.498,8.088 6.245,16.348 6.487,24.703l-7.09,-0c0.348,-6.488 -0.088,-12.812 -1.791,-18.874l-0.546,0.036c1.714,6.264 2.157,12.546 1.809,18.838l-9.152,-0c1.73,-6.298 2.654,-12.603 2.272,-18.919l-0.542,-0.08c0.353,6.558 -0.569,12.858 -2.278,18.999l-8.415,-0c2.347,-6.19 3.879,-12.463 4.077,-18.87l-0.532,-0.129c-0.251,6.668 -1.787,12.952 -4.111,18.999l-8.034,-0c3.284,-6.03 5.732,-12.254 6.782,-18.803l-0.511,-0.196c-1.145,6.844 -3.615,13.098 -6.876,18.999Zm27.194,-28.332c0.139,0.509 0.033,1.054 -0.287,1.473c-0.32,0.42 -0.818,0.666 -1.345,0.666c-5.006,-0 -17.137,-0 -22.143,-0c-0.528,-0 -1.025,-0.246 -1.345,-0.666c-0.32,-0.419 -0.427,-0.964 -0.287,-1.473c0.03,-0.113 0.061,-0.224 0.091,-0.332c0.201,-0.736 0.869,-1.247 1.632,-1.247c4.242,0 17.718,0 21.961,0c0.762,0 1.431,0.511 1.632,1.247c0.03,0.108 0.06,0.219 0.091,0.332Zm-22.588,-2.205c-0.527,0 -1.025,-0.246 -1.345,-0.665c-0.32,-0.42 -0.426,-0.964 -0.287,-1.473c0.051,-0.187 0.104,-0.38 0.157,-0.576c0.671,-2.453 2.899,-4.154 5.441,-4.154c1.675,0 3.199,0 3.199,0l-0,-65.214c-0,-0.687 0.273,-1.346 0.758,-1.831c0.486,-0.486 1.145,-0.759 1.832,-0.759c0.086,-0 0.172,-0 0.258,-0c0.687,-0 1.346,0.273 1.832,0.759c0.486,0.485 0.759,1.144 0.759,1.831c-0,12.413 -0,65.214 -0,65.214l3.198,0c2.543,0 4.771,1.701 5.441,4.154c0.054,0.196 0.107,0.389 0.158,0.576c0.139,0.509 0.032,1.053 -0.288,1.473c-0.32,0.419 -0.817,0.665 -1.345,0.665c-4.605,-0 -15.162,-0 -19.768,-0Z"/></svg>