<?xml version="1.0" encoding="UTF-8" standalone="no"?><!DOCTYPE svg PUBLIC "-//W3C//DTD SVG 1.1//EN" "http://www.w3.org/Graphics/SVG/1.1/DTD/svg11.dtd"><svg width="100%" height="100%" viewBox="0 0 130 130" version="1.1" xmlns="http://www.w3.org/2000/svg" xmlns:xlink="http://www.w3.org/1999/xlink" xml:space="preserve" xmlns:serif="http://www.serif.com/" style="fill-rule:evenodd;clip-rule:evenodd;stroke-linejoin:round;stroke-miterlimit:2;"><rect id="leadership" x="3.184" y="0.999" width="125" height="125" style="fill:none;"/><path d="M44.889,40.881c-0.024,-0.022 -0.048,-0.045 -0.071,-0.067c-0.953,-0.924 -1.5,-2.188 -1.521,-3.516c-0.088,-5.623 -0.23,-14.699 -0.319,-20.322c-0.02,-1.328 0.487,-2.609 1.411,-3.562c0.923,-0.953 2.188,-1.5 3.515,-1.521c0.197,-0.003 0.395,-0.006 0.593,-0.009c1.327,-0.021 2.608,0.486 3.561,1.41c0.953,0.924 1.5,2.188 1.521,3.516l0.254,16.188l14.033,3.321c0.103,0.024 0.205,0.052 0.306,0.083c0.286,0.073 0.569,0.168 0.848,0.286l5.759,2.439c-4.9,-2.075 -7.193,-7.738 -5.118,-12.638c2.075,-4.9 7.738,-7.193 12.638,-5.118c4.9,2.075 7.193,7.738 5.118,12.638c-2.075,4.9 -7.738,7.193 -12.638,5.118l6.522,2.762c1.165,0.493 2.088,1.318 2.707,2.318c0.434,0.641 0.718,1.38 0.82,2.162l1.662,12.776l6.082,-0.751c1.318,-0.163 2.646,0.204 3.692,1.021c1.047,0.816 1.726,2.015 1.889,3.332c0.024,0.196 0.048,0.392 0.073,0.588c0.162,1.317 -0.205,2.645 -1.021,3.692c-0.817,1.047 -2.015,1.726 -3.333,1.889l-10.404,1.285c-0.188,0.047 -0.379,0.084 -0.573,0.109c-0.196,0.026 -0.392,0.051 -0.588,0.077c-0.272,0.035 -0.545,0.048 -0.815,0.038c-1.168,0.04 -2.319,-0.331 -3.248,-1.055c-0.616,-0.48 -1.104,-1.093 -1.435,-1.784l-0.739,1.744l5.511,14.543c0.143,0.378 0.239,0.769 0.287,1.163c0.116,0.687 0.089,1.397 -0.088,2.084c-1.401,5.446 -3.663,14.237 -5.065,19.684c-0.331,1.285 -1.159,2.387 -2.302,3.062c-1.142,0.675 -2.507,0.868 -3.792,0.537c-0.191,-0.049 -0.383,-0.098 -0.574,-0.147c-1.285,-0.331 -2.387,-1.159 -3.062,-2.302c-0.675,-1.143 -0.868,-2.507 -0.537,-3.792l4.644,-18.048l-4.415,-11.652c-1.609,-0.19 -3.305,-0.652 -5.015,-1.301l-1.55,14.192c-0.144,1.319 -0.806,2.527 -1.841,3.358c-0.864,0.694 -1.928,1.078 -3.024,1.102l-18.955,4.85c-1.286,0.329 -2.65,0.134 -3.791,-0.543c-1.142,-0.677 -1.969,-1.779 -2.298,-3.065c-0.049,-0.191 -0.098,-0.383 -0.147,-0.574c-0.329,-1.286 -0.133,-2.65 0.543,-3.792c0.677,-1.142 1.779,-1.968 3.065,-2.297l16.345,-4.182l2.051,-18.774c0.003,-1.173 0.277,-2.445 0.862,-3.829l6.132,-14.478l-11.62,-2.75c-0.986,-0.233 -1.871,-0.759 -2.545,-1.498Z"/></svg>