<?xml version="1.0" encoding="UTF-8" standalone="no"?><!DOCTYPE svg PUBLIC "-//W3C//DTD SVG 1.1//EN" "http://www.w3.org/Graphics/SVG/1.1/DTD/svg11.dtd"><svg width="100%" height="100%" viewBox="0 0 130 125" version="1.1" xmlns="http://www.w3.org/2000/svg" xmlns:xlink="http://www.w3.org/1999/xlink" xml:space="preserve" xmlns:serif="http://www.serif.com/" style="fill-rule:evenodd;clip-rule:evenodd;stroke-linejoin:round;stroke-miterlimit:2;"><rect id="bus" x="4.032" y="0" width="125" height="125" style="fill:none;"/><clipPath id="_clip1"><rect x="4.032" y="0" width="125" height="125"/></clipPath><g clip-path="url(#_clip1)"><path d="M129.032,4.227c0,-2.334 -1.893,-4.227 -4.227,-4.227c-17.99,0 -98.556,0 -116.546,0c-2.334,-0 -4.227,1.893 -4.227,4.227c0,13.344 0,103.202 0,116.546c0,2.334 1.893,4.227 4.227,4.227c17.99,-0 98.556,-0 116.546,-0c2.334,0 4.227,-1.893 4.227,-4.227c0,-13.344 0,-103.202 0,-116.546Zm-5.383,52.371c-0,2.933 -0.613,5.234 -1.838,6.904c-1.224,1.67 -3.247,2.877 -6.068,3.619l7.906,12.75l-8.018,-0l-7.182,-11.97l-5.066,-0l-0,11.97l-6.96,-0l0,-34.742l12.026,0c5.345,0 9.215,0.928 11.609,2.784c2.394,1.856 3.591,4.751 3.591,8.685Zm-78.156,-11.469l0,34.742l-6.681,-0l0,-21.881l-10.801,18.93l-0.779,0l-11.191,-19.208l-0,22.159l-6.626,-0l0,-34.742l6.403,0l12.138,20.322l11.469,-20.322l6.068,0Zm49.629,0l-10.078,34.742l-7.015,-0l-6.904,-23.384l-7.238,23.384l-6.848,-0l-10.244,-34.742l7.126,0l6.96,26.335l7.739,-26.335l5.233,0l7.517,26.001l6.792,-26.001l6.96,0Zm8.261,16.592l5.567,-0c2.042,-0 3.601,-0.177 4.677,-0.529c1.076,-0.353 1.837,-0.9 2.283,-1.643c0.445,-0.742 0.668,-1.781 0.668,-3.118c-0,-1.818 -0.566,-3.118 -1.698,-3.897c-1.132,-0.779 -3.202,-1.169 -6.208,-1.169l-5.289,-0l-0,10.356Z"/></g></svg>