<?xml version="1.0" encoding="UTF-8" standalone="no"?><!DOCTYPE svg PUBLIC "-//W3C//DTD SVG 1.1//EN" "http://www.w3.org/Graphics/SVG/1.1/DTD/svg11.dtd"><svg width="100%" height="100%" viewBox="0 0 130 125" version="1.1" xmlns="http://www.w3.org/2000/svg" xmlns:xlink="http://www.w3.org/1999/xlink" xml:space="preserve" xmlns:serif="http://www.serif.com/" style="fill-rule:evenodd;clip-rule:evenodd;stroke-linejoin:round;stroke-miterlimit:2;"><rect id="network-user-agreement" x="4.063" y="0.007" width="125" height="125" style="fill:none;"/><clipPath id="_clip1"><rect x="4.063" y="0.007" width="125" height="125"/></clipPath><g clip-path="url(#_clip1)"><path d="M114.187,71.446l0,45.921c0,2.359 -1.912,4.271 -4.271,4.271l-86.707,-0c-2.359,-0 -4.271,-1.912 -4.271,-4.271l-0,-109.72c-0,-2.359 1.912,-4.271 4.271,-4.271l86.707,-0c2.359,-0 4.271,1.912 4.271,4.271l0,29.014l-1.373,2.409l-0.716,-0.408c-0.549,-0.313 -1.148,-0.511 -1.763,-0.588c-0.615,-0.078 -1.245,-0.036 -1.855,0.131c-0.609,0.167 -1.173,0.451 -1.663,0.831c-0.466,0.362 -0.864,0.809 -1.171,1.325l-0,-28.444l-78.167,0.001c0,-0 0,101.178 0,101.178c0,0 78.167,0 78.167,-0l-0,-26.671l8.541,-14.979Zm-79.519,35.15l4.447,-0.024c11.517,-0.021 40.929,0.029 40.929,0.029c0.575,0.001 1.042,-0.465 1.043,-1.04c0.001,-0.575 -0.465,-1.042 -1.04,-1.043c0,-0 -29.417,-0.05 -40.936,-0.03l-4.546,0.027c-1.001,0.043 -1.042,1.052 -1.039,1.099c0.03,0.574 0.52,1.016 1.095,0.986l0.047,-0.004Zm49.776,-2.02c-0.04,0.351 0.133,0.692 0.44,0.867c0.307,0.175 0.688,0.151 0.97,-0.063c3.586,-2.713 11.794,-8.924 11.794,-8.924l-11.53,-6.575c0,0 -1.165,10.227 -1.674,14.695Zm-40.619,-22.167l-0.339,0.445c-0.377,0.528 -0.73,1.075 -1.064,1.634c-0.491,0.818 -0.944,1.66 -1.386,2.503c-0.224,0.429 -0.448,0.859 -0.669,1.29c-0.363,0.217 -0.718,0.453 -1.067,0.709c-0.781,-0.136 -1.569,-0.284 -2.356,-0.4c-0.508,-0.074 -1.016,-0.136 -1.522,-0.175c-0.113,-0.009 -1.136,-0.085 -1.548,0.03c-0.323,0.091 -0.532,0.267 -0.656,0.427c-0.237,0.307 -0.3,0.648 -0.203,1.014c0.052,0.197 0.175,0.432 0.392,0.646c0.296,0.292 0.889,0.606 0.91,0.618l1.949,1.027c-0.248,0.403 -0.464,0.826 -0.634,1.262c-0.313,0.804 -0.474,1.653 -0.417,2.506c0.045,0.665 0.2,1.265 0.447,1.808c-0.212,0.438 -0.422,0.879 -0.623,1.324c-0.191,0.424 -0.375,0.852 -0.544,1.283c-0.02,0.033 -0.127,0.209 -0.173,0.301c-0.092,0.183 -0.147,0.368 -0.163,0.541c-0.026,0.281 0.031,0.549 0.194,0.804c0.318,0.493 0.758,0.627 1.274,0.489c0.292,-0.078 0.75,-0.466 0.965,-0.721l1.147,-1.627c0.128,0.09 0.259,0.177 0.393,0.262c2.027,1.272 4.82,1.876 6.728,2.38c0.463,0.122 0.86,0.214 1.244,0.295c0.576,0.12 1.123,0.214 1.83,0.344c0.617,0.114 2.523,0.445 3.803,0.211c1.042,-0.19 1.733,-0.742 1.914,-1.562c0.23,-0.719 0.26,-1.52 0.149,-2.329c-0.038,-0.278 -0.093,-0.557 -0.161,-0.834l1.927,-1.278l0.69,-0.324c-0.233,0.439 -0.438,0.907 -0.536,1.34c-0.202,0.891 -0.016,1.672 0.595,2.196c0.442,0.378 1,0.551 1.592,0.551c0.679,0.001 1.402,-0.236 1.91,-0.511c0.833,-0.452 1.588,-1.026 2.255,-1.69c0.134,-0.134 0.265,-0.271 0.392,-0.412c0.532,0.282 1.103,0.385 1.697,0.374c0.777,-0.014 1.603,-0.252 2.405,-0.481c0.415,-0.118 0.82,-0.246 1.198,-0.286c-0.003,0.208 0.003,0.416 0.033,0.608c0.101,0.655 0.421,1.172 1.144,1.413c0.791,0.264 1.627,0.163 2.47,-0.172c0.666,-0.264 1.343,-0.678 2,-1.074c0.555,-0.335 1.085,-0.668 1.582,-0.782c0.237,-0.055 0.465,-0.016 0.69,0.047c0.959,0.269 1.898,0.868 2.909,0.931c0.852,0.054 1.698,-0.055 2.529,-0.259c1.137,-0.28 2.245,-0.742 3.299,-1.163c0.533,-0.214 0.793,-0.82 0.58,-1.354c-0.214,-0.534 -0.82,-0.794 -1.354,-0.58c-0.966,0.386 -1.98,0.817 -3.022,1.074c-0.625,0.153 -1.261,0.243 -1.902,0.203c-0.356,-0.022 -0.694,-0.158 -1.031,-0.298c-0.483,-0.202 -0.961,-0.424 -1.445,-0.56c-0.562,-0.157 -1.132,-0.208 -1.722,-0.071c-0.57,0.132 -1.187,0.437 -1.817,0.806c-0.674,0.395 -1.372,0.869 -2.064,1.144c-0.27,0.107 -0.534,0.191 -0.792,0.178c-0.001,-0.083 -0.001,-0.175 -0,-0.241c0.006,-0.317 -0.012,-0.617 -0.082,-0.855c-0.161,-0.549 -0.501,-0.931 -1.166,-1.042c-0.661,-0.11 -1.401,0.005 -2.168,0.208c-0.764,0.203 -1.563,0.509 -2.313,0.523c-0.126,0.003 -0.251,-0.006 -0.373,-0.031l0.029,-0.048c0.11,-0.185 0.908,-1.345 1.156,-2.117c0.195,-0.61 0.093,-1.12 -0.11,-1.425c-0.194,-0.291 -0.715,-0.722 -1.467,-0.326c-0.337,0.178 -1.083,0.875 -1.174,0.988c-0.388,0.484 -0.96,1.561 -1.035,2.453c-0.016,0.187 -0.012,0.368 0.011,0.539c-0.176,0.213 -0.362,0.417 -0.557,0.611c-0.526,0.525 -1.122,0.979 -1.779,1.335c-0.174,0.095 -0.397,0.183 -0.63,0.229c-0.159,0.032 -0.331,0.082 -0.463,0.019c0.002,-0.052 0.009,-0.135 0.022,-0.191c0.066,-0.293 0.214,-0.606 0.375,-0.902c0.313,-0.574 0.691,-1.082 0.853,-1.309l0.557,-0.709c0.181,-0.206 0.574,-0.506 0.85,-0.815c0.233,-0.261 0.403,-0.537 0.487,-0.788c0.075,-0.225 0.079,-0.411 0.05,-0.563c0.896,-0.623 1.776,-1.268 2.618,-1.958c0.518,-0.423 1.533,-1.174 1.965,-2.001c0.311,-0.595 0.388,-1.227 0.133,-1.863c-0.32,-0.802 -0.938,-1.382 -1.732,-1.78c-1.35,-0.677 -3.278,-0.775 -4.426,-0.892l-1.752,-0.117l-1.843,-0.058c-0.902,-0.014 -1.798,-0.004 -2.693,0.034c-0.897,0.038 -1.793,0.103 -2.693,0.198c-0.406,0.043 -0.809,0.088 -1.21,0.135l-0.107,-0.393c-0.251,-0.916 -0.533,-2.347 -1.09,-3.435c-0.325,-0.635 -0.744,-1.163 -1.255,-1.507c-0.63,-0.424 -1.288,-0.355 -1.901,0.195c-0.419,0.376 -0.824,1.166 -1.113,1.824Zm-2.571,12.006c-0.527,1.057 -1.104,2.097 -1.752,3.118c-0.192,0.302 -0.385,0.601 -0.581,0.898c0.103,0.074 0.21,0.145 0.319,0.213c1.849,1.161 4.411,1.671 6.152,2.131c0.424,0.111 0.787,0.196 1.139,0.27c0.56,0.117 1.092,0.207 1.781,0.334c0.405,0.075 1.478,0.279 2.436,0.263c0.083,-0.001 0.165,-0.004 0.245,-0.009l-0.381,-0.97c-0.182,0.076 -0.405,0.158 -0.743,0.276c-0.098,0.05 -0.355,0.176 -0.47,0.201c-0.298,0.065 -0.56,0.012 -0.777,-0.104c-0.183,-0.099 -0.35,-0.247 -0.469,-0.485c-0.168,-0.335 -0.216,-0.81 0.176,-1.293c0.168,-0.206 0.58,-0.484 0.957,-0.714c-0.749,-0.629 -1.556,-1.157 -2.399,-1.626c-1.781,-0.99 -3.719,-1.716 -5.633,-2.503Zm13.278,1.404c0.326,-0.221 0.651,-0.443 0.977,-0.666c1.362,-0.929 2.762,-1.823 4.124,-2.766c0.887,-0.614 1.758,-1.249 2.59,-1.93c0.247,-0.202 0.646,-0.486 1,-0.824c0.144,-0.137 0.282,-0.284 0.384,-0.441c0.048,-0.073 0.131,-0.133 0.099,-0.214c-0.185,-0.462 -0.651,-0.692 -1.156,-0.868c-1.092,-0.38 -2.435,-0.418 -3.279,-0.504l-1.641,-0.109l-1.776,-0.056c-0.862,-0.014 -1.718,-0.004 -2.573,0.032c-0.853,0.036 -1.705,0.098 -2.56,0.189c-0.297,0.031 -0.593,0.063 -0.887,0.097c0.253,0.972 0.499,1.948 0.734,2.925c0.285,1.187 0.555,2.377 0.806,3.57c0.503,0.645 0.959,1.377 1.362,2.21l0.079,0.166c0.57,-0.275 1.143,-0.542 1.717,-0.811Zm-12.019,-4.154l-0.372,0.862c1.957,0.804 3.936,1.557 5.758,2.57c0.6,0.333 1.182,0.694 1.743,1.092l-0.202,-1.006c-0.556,-0.643 -1.174,-1.172 -1.847,-1.611c-1.475,-0.963 -3.198,-1.512 -5.08,-1.907Zm64.805,-50.244c0.366,-0.642 0.972,-1.112 1.685,-1.307c0.712,-0.195 1.473,-0.099 2.115,0.267c4.558,2.599 13.964,7.963 13.964,7.963l-26.765,46.938l-11.529,-6.575l24.982,-43.811c0,-0 -0.518,-0.296 -0.958,-0.547c-0.477,-0.01 -0.922,0.242 -1.158,0.656c-1.921,3.328 -8.089,14.145 -10.274,17.978c-0.429,0.752 -1.386,1.014 -2.139,0.585c-0.186,-0.106 -0.377,-0.215 -0.564,-0.321c-0.752,-0.429 -1.014,-1.386 -0.585,-2.139c2.189,-3.839 8.433,-14.789 11.226,-19.687Zm-59.567,46.61c-1.463,0.225 -2.869,0.532 -4.198,1.029l-0.251,0.652c1.991,0.447 3.814,1.069 5.39,2.09l-0.941,-3.771Zm-1.629,-5.193l-0.515,0.669l-1.134,3.077c0.887,-0.239 1.801,-0.423 2.737,-0.573l-0.035,-0.127c-0.195,-0.71 -0.395,-1.769 -0.769,-2.674c-0.065,-0.158 -0.134,-0.313 -0.21,-0.457l-0.074,0.085Zm20.441,-67.829c17.659,0 31.996,14.338 31.996,31.997c0,17.66 -14.337,31.997 -31.996,31.997c-17.66,-0 -31.997,-14.337 -31.997,-31.997c-0,-17.659 14.337,-31.997 31.997,-31.997Zm1.77,49.621l9.998,-0c-0.089,0.204 -0.178,0.406 -0.27,0.606c-2.399,5.247 -5.726,9.133 -9.728,10.029l0,-10.635Zm-13.539,-0l9.998,-0l-0,10.635c-4.002,-0.896 -7.329,-4.782 -9.728,-10.029c-0.091,-0.2 -0.181,-0.402 -0.27,-0.606Zm-10.566,-0l6.74,-0c1.343,3.474 3.07,6.474 5.078,8.821c-3.626,-1.445 -6.885,-3.614 -9.6,-6.328c-0.786,-0.787 -1.527,-1.619 -2.218,-2.493Zm44.669,-0c-0.691,0.874 -1.432,1.706 -2.218,2.493c-2.714,2.714 -5.974,4.883 -9.6,6.328c2.008,-2.347 3.735,-5.347 5.078,-8.821l6.74,-0Zm-50.735,-15.853c0.278,4.518 1.613,8.753 3.76,12.46c0.217,-0.096 0.458,-0.149 0.71,-0.149l7.15,0c-1.077,-3.751 -1.737,-7.913 -1.877,-12.311l-9.743,0Zm56.801,0l-9.743,0c-0.14,4.398 -0.8,8.56 -1.877,12.311l7.15,0c0.252,0 0.493,0.053 0.71,0.149c2.147,-3.707 3.482,-7.941 3.76,-12.46Zm-13.287,0l-13.343,0l0,12.311l11.313,0c1.166,-3.7 1.88,-7.875 2.03,-12.311Zm-30.227,0c0.15,4.435 0.864,8.611 2.03,12.311l11.313,0l-0,-12.311l-13.343,0Zm74.361,-1.71l-11.529,-6.574c-0,-0 1.439,-2.525 2.726,-4.782c0.526,-0.922 1.397,-1.598 2.421,-1.878c1.024,-0.281 2.118,-0.143 3.04,0.383c1.448,0.826 3.126,1.783 4.574,2.609c0.923,0.526 1.598,1.396 1.878,2.42c0.281,1.024 0.143,2.118 -0.383,3.04c-1.287,2.258 -2.727,4.782 -2.727,4.782Zm-34.607,-14.291c-0.217,0.095 -0.458,0.148 -0.71,0.148l-7.15,0c1.077,3.751 1.737,7.914 1.877,12.311l9.743,0c-0.278,-4.518 -1.612,-8.753 -3.76,-12.459Zm-11.557,0.148l-11.313,0l0,12.311l13.343,0c-0.15,-4.435 -0.864,-8.611 -2.03,-12.311Zm-37.724,-0.148c-2.147,3.706 -3.482,7.941 -3.76,12.459l9.743,0c0.14,-4.397 0.8,-8.56 1.877,-12.311l-7.15,0c-0.252,0 -0.493,-0.053 -0.71,-0.148Zm11.557,0.148c-1.166,3.7 -1.88,7.876 -2.03,12.311l13.343,0l-0,-12.311l-11.313,0Zm35.418,-3.541l-6.74,-0c-1.343,-3.475 -3.07,-6.475 -5.078,-8.822c3.626,1.445 6.886,3.614 9.6,6.329c0.786,0.786 1.527,1.619 2.218,2.493Zm-20.564,-10.636c4.002,0.896 7.329,4.782 9.728,10.029c0.092,0.2 0.181,0.402 0.27,0.607l-9.998,-0l0,-10.636Zm-17.365,10.636l-6.74,-0c0.691,-0.874 1.432,-1.707 2.218,-2.493c2.715,-2.715 5.974,-4.884 9.6,-6.329c-2.008,2.347 -3.735,5.347 -5.078,8.822Zm13.824,-10.636l-0,10.636l-9.998,-0c0.089,-0.205 0.179,-0.407 0.27,-0.607c2.399,-5.247 5.726,-9.133 9.728,-10.029Z"/></g></svg>