<?xml version="1.0" encoding="UTF-8" standalone="no"?><!DOCTYPE svg PUBLIC "-//W3C//DTD SVG 1.1//EN" "http://www.w3.org/Graphics/SVG/1.1/DTD/svg11.dtd"><svg width="100%" height="100%" viewBox="0 0 125 125" version="1.1" xmlns="http://www.w3.org/2000/svg" xmlns:xlink="http://www.w3.org/1999/xlink" xml:space="preserve" xmlns:serif="http://www.serif.com/" style="fill-rule:evenodd;clip-rule:evenodd;stroke-linejoin:round;stroke-miterlimit:2;"><rect id="accountability" x="-0.009" y="0" width="125" height="125" style="fill:none;"/><clipPath id="_clip1"><rect x="-0.009" y="0" width="125" height="125"/></clipPath><g clip-path="url(#_clip1)"><path d="M124.991,4.227c0,-2.334 -1.892,-4.227 -4.227,-4.227c-17.99,0 -98.556,0 -116.546,0c-2.334,-0 -4.227,1.893 -4.227,4.227c0,13.344 0,103.202 0,116.546c0,2.334 1.893,4.227 4.227,4.227c17.99,-0 98.556,-0 116.546,-0c2.335,0 4.227,-1.893 4.227,-4.227c0,-13.344 0,-103.202 0,-116.546Zm-107.12,75.623c-4.11,-0 -7.302,-0.901 -9.575,-2.701c-2.274,-1.8 -3.41,-4.319 -3.41,-7.556l-0,-1.255l6.874,-0l0,0.873c0,3.091 2.091,4.637 6.274,4.637c3.783,0 5.674,-1.127 5.674,-3.382c0,-0.801 -0.172,-1.446 -0.518,-1.937c-0.345,-0.491 -0.946,-0.937 -1.8,-1.337c-0.855,-0.4 -2.119,-0.837 -3.792,-1.309l-2.237,-0.655c-2.692,-0.764 -4.783,-1.573 -6.274,-2.428c-1.492,-0.855 -2.565,-1.891 -3.219,-3.11c-0.655,-1.218 -0.982,-2.737 -0.982,-4.555c-0,-1.965 0.518,-3.701 1.555,-5.211c1.036,-1.509 2.509,-2.682 4.419,-3.519c1.909,-0.836 4.155,-1.255 6.738,-1.255c3.928,0 6.956,0.946 9.084,2.837c2.128,1.892 3.192,4.601 3.192,8.13l-0,0.491l-6.875,-0l0,-0.873c0,-1.492 -0.473,-2.628 -1.418,-3.41c-0.946,-0.782 -2.255,-1.173 -3.929,-1.173c-1.855,-0 -3.273,0.318 -4.255,0.955c-0.982,0.636 -1.473,1.518 -1.473,2.646c-0,0.763 0.191,1.382 0.573,1.855c0.382,0.472 1.036,0.9 1.964,1.282c0.927,0.382 2.409,0.882 4.446,1.5l2.728,0.819c3.128,0.945 5.438,2.173 6.929,3.682c1.491,1.51 2.237,3.392 2.237,5.647c0,3.201 -1.155,5.72 -3.464,7.556c-2.31,1.837 -5.465,2.756 -9.466,2.756Zm88.695,-0c-4.546,-0 -7.993,-1.001 -10.339,-3.001c-2.346,-2.001 -3.519,-4.947 -3.519,-8.839l0,-11.02c0,-3.892 1.173,-6.838 3.519,-8.839c2.346,-2 5.793,-3.001 10.339,-3.001c9.02,0 13.531,3.874 13.531,11.621l-0,1.692l-6.82,-0l-0,-1.692c-0,-1.855 -0.473,-3.2 -1.419,-4.037c-0.945,-0.837 -2.691,-1.255 -5.237,-1.255c-2.692,0 -4.547,0.464 -5.565,1.391c-1.019,0.928 -1.528,2.283 -1.528,4.065l0,11.13c0,1.746 0.537,3.092 1.61,4.037c1.072,0.946 2.9,1.419 5.483,1.419c2.509,-0 4.246,-0.428 5.21,-1.282c0.964,-0.855 1.446,-2.246 1.446,-4.174l-0,-1.473l6.82,-0l-0,1.582c-0,3.965 -1.137,6.902 -3.41,8.811c-2.274,1.91 -5.647,2.865 -10.121,2.865Zm-16.071,-23.133c0,2.873 -0.6,5.128 -1.8,6.765c-1.201,1.637 -3.183,2.819 -5.947,3.546l7.747,12.494l-7.856,0l-7.038,-11.73l-4.965,0l-0,11.73l-6.82,0l-0,-34.044l11.785,-0c5.237,-0 9.029,0.909 11.375,2.728c2.346,1.818 3.519,4.655 3.519,8.511Zm-37.512,15.767l-13.913,0l-2.728,7.038l-6.711,0l13.913,-34.044l5.347,-0l13.912,34.044l-7.147,0l-2.673,-7.038Zm-2.237,-5.892l-4.583,-12.167l-0.109,0l-4.692,12.167l9.384,-0Zm19.89,-4.856l5.456,0c2,0 3.528,-0.173 4.583,-0.518c1.054,-0.346 1.8,-0.882 2.236,-1.61c0.437,-0.727 0.655,-1.745 0.655,-3.055c0,-1.782 -0.554,-3.055 -1.664,-3.819c-1.109,-0.764 -3.137,-1.146 -6.083,-1.146l-5.183,0l-0,10.148Z"/></g></svg>