<?xml version="1.0" encoding="UTF-8" standalone="no"?><!DOCTYPE svg PUBLIC "-//W3C//DTD SVG 1.1//EN" "http://www.w3.org/Graphics/SVG/1.1/DTD/svg11.dtd"><svg width="100%" height="100%" viewBox="0 0 130 125" version="1.1" xmlns="http://www.w3.org/2000/svg" xmlns:xlink="http://www.w3.org/1999/xlink" xml:space="preserve" xmlns:serif="http://www.serif.com/" style="fill-rule:evenodd;clip-rule:evenodd;stroke-linejoin:round;stroke-miterlimit:2;"><rect id="support" x="4.003" y="0.007" width="125" height="125" style="fill:none;"/><path d="M65.545,113.63c-3.858,1.611 -8.002,2.442 -12.189,2.442c-16.648,0 -30.294,-12.853 -31.555,-29.176c-7.478,-2.732 -12.815,-9.908 -12.815,-18.33c0,-9.22 6.396,-16.947 14.993,-18.985c1.009,-22.616 19.661,-40.64 42.524,-40.64c22.862,0 41.515,18.024 42.524,40.64c8.597,2.038 14.993,9.765 14.993,18.985c-0,10.774 -8.735,19.509 -19.51,19.509l0,-39.019l0.04,0c-1.263,-19.912 -17.815,-35.673 -38.047,-35.673c-20.232,0 -36.784,15.761 -38.047,35.673l0.04,-0l-0,38.72c1.639,12.267 12.144,21.729 24.86,21.729c1.566,-0 3.124,-0.147 4.655,-0.436l0,-10.299l13.862,-0l-0,14.86l-6.328,0Zm-7.159,-28.223c-0,-2.83 0.208,-5.057 0.624,-6.681c0.416,-1.623 1.374,-3.184 2.872,-4.683c1.499,-1.498 3.955,-3.246 7.368,-5.245l3.247,-1.873c2.997,-1.665 5.016,-3.184 6.057,-4.558c1.04,-1.374 1.561,-3.143 1.561,-5.307c-0,-2.748 -1.103,-4.85 -3.31,-6.307c-2.206,-1.457 -5.557,-2.185 -10.052,-2.185c-4.579,-0 -8.138,0.832 -10.678,2.497c-2.539,1.666 -3.808,4.122 -3.808,7.368l-0,1.624l-14.736,-0l-0,-1.499c-0,-7.243 2.705,-12.987 8.117,-17.233c5.411,-4.246 12.613,-6.369 21.604,-6.369c8.742,-0 15.631,1.956 20.668,5.869c5.037,3.913 7.555,9.366 7.555,16.36c0,4.246 -0.937,7.638 -2.81,10.177c-1.873,2.54 -4.808,4.975 -8.804,7.306l-2.747,1.623c-2.831,1.665 -4.87,3.018 -6.119,4.059c-1.249,1.041 -2.082,2.019 -2.498,2.935c-0.416,0.915 -0.624,2.081 -0.624,3.496l-0,3.622l-13.487,-0l-0,-4.996Zm-21.661,-32.945c-0,-1.881 -1.525,-3.406 -3.407,-3.406c-1.686,-0 -3.365,-0 -3.365,-0l0,39.019l3.365,0c1.882,0 3.407,-1.525 3.407,-3.406c-0,-7.389 -0,-24.818 -0,-32.207Zm59.556,32.207c0,1.881 1.525,3.406 3.406,3.406c1.686,0 3.365,0 3.365,0l0,-39.019l-3.365,-0c-1.881,-0 -3.406,1.525 -3.406,3.406c-0,7.389 -0,24.818 -0,32.207Z" style="fill-rule:nonzero;"/></svg>