<?xml version="1.0" encoding="UTF-8" standalone="no"?><!DOCTYPE svg PUBLIC "-//W3C//DTD SVG 1.1//EN" "http://www.w3.org/Graphics/SVG/1.1/DTD/svg11.dtd"><svg width="100%" height="100%" viewBox="0 0 130 125" version="1.1" xmlns="http://www.w3.org/2000/svg" xmlns:xlink="http://www.w3.org/1999/xlink" xml:space="preserve" xmlns:serif="http://www.serif.com/" style="fill-rule:evenodd;clip-rule:evenodd;stroke-linejoin:round;stroke-miterlimit:2;"><rect id="thumb-down" x="4.063" y="0.007" width="125" height="125" style="fill:none;"/><path d="M49.559,64.797c-0.724,2.27 -2.85,3.914 -5.36,3.914l-27.511,-0c-3.106,-0 -5.625,-2.519 -5.625,-5.625l0,-41.766c0,-3.106 2.519,-5.625 5.625,-5.625l27.511,0c2.726,0 5,1.94 5.515,4.514c0.183,-0.017 0.368,-0.027 0.555,-0.027l1.861,0c-0,0 3.946,-2.456 3.946,-2.456c0.891,-0.555 1.919,-0.849 2.969,-0.85l45.258,0c0.137,0.001 0.273,0.007 0.409,0.018c4.819,0.39 9.361,4.422 10.439,9.241c0.435,1.945 0.425,4.055 -0.317,6.088c1.543,1.572 2.481,3.357 2.927,5.096c0.583,2.274 0.417,4.71 -0.585,6.96c1.362,1.502 2.215,3.167 2.627,4.785c0.58,2.277 0.425,4.705 -0.616,6.921c1.794,2.158 2.857,4.829 2.874,8.007c0.017,3.12 -0.85,5.167 -1.902,6.606c-1.649,2.255 -4.035,3.354 -6.732,3.73c-3.804,0.53 -15.861,0.405 -23.832,0.239c0.99,5.172 1.945,11.586 1.653,14.001c-0.368,3.04 -1.281,8.386 -2.76,12.272c-1.294,3.399 -3.272,5.82 -5.153,6.86c-3.83,2.121 -7.606,1.832 -10.27,0.943c-2.332,-0.778 -3.892,-2.113 -4.532,-2.888c-0.977,-1.183 -1.278,-2.348 -1.371,-3.178l-0.192,-14.481c-0.885,-2.123 -3.265,-5.897 -5.733,-9.656c-3.138,-4.779 -6.473,-9.499 -7.64,-11.088c-0.475,-0.646 -1.207,-1.113 -1.883,-1.51c-0.799,-0.47 -1.583,-0.818 -2.155,-1.045Zm-5.36,-1.711l-27.511,-0l0,-41.766l27.511,0l0,41.766Zm6.07,-37.279l-0,33.278c-0,-0 5.408,1.598 7.861,4.937c2.453,3.339 14.28,20.21 14.451,23.318c0.171,3.108 0.15,14.428 0.171,14.611c0.071,0.639 3.915,3.012 7.859,0.828c2.954,-1.635 4.547,-10.71 5.052,-14.886c0.468,-3.866 -2.896,-19.117 -3.215,-19.134c-0.044,-0.003 24.538,0.787 30.203,-0.002c2.001,-0.279 3.805,-1.103 3.786,-4.735c-0.02,-3.632 -2.45,-6.089 -5.949,-7.282c5.949,-2.671 5.261,-9.068 -1.964,-11.361c5.729,-2.933 5.42,-9.543 -2.313,-11.734c6.748,-3.685 2.714,-10.766 -1.953,-11.144c-3.849,-0.031 -45.209,-0 -45.209,-0l-5.312,3.306l-3.468,0Z"/></svg>