<?xml version="1.0" encoding="UTF-8" standalone="no"?><!DOCTYPE svg PUBLIC "-//W3C//DTD SVG 1.1//EN" "http://www.w3.org/Graphics/SVG/1.1/DTD/svg11.dtd"><svg width="100%" height="100%" viewBox="0 0 130 125" version="1.1" xmlns="http://www.w3.org/2000/svg" xmlns:xlink="http://www.w3.org/1999/xlink" xml:space="preserve" xmlns:serif="http://www.serif.com/" style="fill-rule:evenodd;clip-rule:evenodd;stroke-linejoin:round;stroke-miterlimit:2;"><rect id="thumb-up" x="4.095" y="0.007" width="125" height="125" style="fill:none;"/><path d="M49.591,60.212c-0.724,-2.27 -2.85,-3.914 -5.36,-3.914l-27.51,0c-3.107,0 -5.625,2.519 -5.625,5.625l-0,41.766c-0,3.106 2.518,5.625 5.625,5.625l27.51,-0c2.727,-0 5,-1.94 5.516,-4.515c0.182,0.018 0.367,0.028 0.554,0.028l1.861,-0c-0,-0 3.946,2.456 3.946,2.456c0.891,0.555 1.92,0.849 2.969,0.85l45.259,-0c0.136,-0.001 0.273,-0.007 0.409,-0.018c4.818,-0.391 9.36,-4.422 10.438,-9.242c0.435,-1.944 0.425,-4.054 -0.317,-6.087c1.544,-1.572 2.481,-3.357 2.927,-5.096c0.584,-2.274 0.417,-4.71 -0.585,-6.96c1.363,-1.502 2.215,-3.167 2.627,-4.785c0.58,-2.277 0.426,-4.705 -0.616,-6.921c1.794,-2.158 2.858,-4.829 2.875,-8.007c0.017,-3.12 -0.851,-5.167 -1.902,-6.606c-1.65,-2.255 -4.036,-3.354 -6.732,-3.73c-3.805,-0.53 -15.861,-0.405 -23.832,-0.239c0.989,-5.172 1.944,-11.586 1.652,-14.001c-0.368,-3.04 -1.28,-8.386 -2.759,-12.272c-1.294,-3.399 -3.273,-5.82 -5.153,-6.861c-3.83,-2.12 -7.607,-1.831 -10.27,-0.942c-2.332,0.778 -3.893,2.113 -4.532,2.888c-0.977,1.182 -1.279,2.348 -1.372,3.178l-0.191,14.481c-0.886,2.123 -3.265,5.897 -5.733,9.656c-3.139,4.779 -6.474,9.499 -7.641,11.088c-0.474,0.646 -1.207,1.113 -1.883,1.51c-0.799,0.47 -1.583,0.818 -2.155,1.045Zm-5.36,1.711l-27.51,0l-0,41.766l27.51,-0l0,-41.766Zm6.07,37.279l0,-33.278c0,0 5.408,-1.598 7.861,-4.937c2.453,-3.339 14.28,-20.211 14.451,-23.318c0.171,-3.108 0.151,-14.428 0.171,-14.611c0.072,-0.639 3.915,-3.012 7.86,-0.828c2.953,1.635 4.547,10.71 5.052,14.886c0.467,3.866 -2.897,19.117 -3.216,19.134c-0.044,0.003 24.538,-0.787 30.203,0.002c2.002,0.279 3.805,1.103 3.786,4.735c-0.02,3.632 -2.45,6.089 -5.948,7.282c5.948,2.671 5.26,9.068 -1.964,11.361c5.728,2.933 5.419,9.543 -2.314,11.734c6.748,3.685 2.714,10.766 -1.952,11.144c-3.85,0.031 -45.21,0 -45.21,0l-5.311,-3.306l-3.469,-0Z"/></svg>