<?xml version="1.0" encoding="UTF-8" standalone="no"?><!DOCTYPE svg PUBLIC "-//W3C//DTD SVG 1.1//EN" "http://www.w3.org/Graphics/SVG/1.1/DTD/svg11.dtd"><svg width="100%" height="100%" viewBox="0 0 130 130" version="1.1" xmlns="http://www.w3.org/2000/svg" xmlns:xlink="http://www.w3.org/1999/xlink" xml:space="preserve" xmlns:serif="http://www.serif.com/" style="fill-rule:evenodd;clip-rule:evenodd;stroke-linejoin:round;stroke-miterlimit:2;"><rect id="training-mgmt" x="0.574" y="0.127" width="125" height="125" style="fill:none;"/><path d="M69.508,10.699c-3.356,-0.326 -6.736,-0.326 -10.092,-0l-1.662,8.092c-3.217,0.492 -6.369,1.337 -9.401,2.519l-5.485,-6.177c-3.07,1.396 -5.997,3.086 -8.74,5.046l2.606,7.839c-2.539,2.034 -4.847,4.342 -6.882,6.882l-7.838,-2.607c-1.961,2.744 -3.651,5.671 -5.046,8.74l6.176,5.485c-1.182,3.032 -2.027,6.185 -2.519,9.401l-8.092,1.663c-0.326,3.356 -0.326,6.735 0,10.091l8.092,1.662c0.492,3.217 1.337,6.37 2.519,9.402l-6.176,5.485c1.395,3.069 3.085,5.996 5.046,8.739l7.838,-2.606c2.035,2.54 4.343,4.848 6.882,6.882l-2.606,7.839c2.743,1.96 5.67,3.65 8.74,5.046l5.485,-6.177c3.032,1.182 6.184,2.027 9.401,2.519l1.662,8.092c3.356,0.326 6.736,0.326 10.092,-0l1.662,-8.092c3.217,-0.492 6.369,-1.337 9.401,-2.519l5.485,6.177c3.07,-1.396 5.997,-3.086 8.74,-5.046l-2.606,-7.839c2.539,-2.034 4.847,-4.342 6.882,-6.882l7.838,2.606c1.961,-2.743 3.651,-5.67 5.046,-8.739l-6.176,-5.485c1.182,-3.032 2.026,-6.185 2.519,-9.402l8.091,-1.662c0.326,-3.356 0.326,-6.735 0,-10.091l-8.091,-1.663c-0.493,-3.216 -1.337,-6.369 -2.519,-9.401l6.176,-5.485c-1.395,-3.069 -3.085,-5.996 -5.046,-8.74l-7.838,2.607c-2.035,-2.54 -4.343,-4.848 -6.882,-6.882l2.606,-7.839c-2.743,-1.96 -5.67,-3.65 -8.74,-5.046l-5.485,6.177c-3.032,-1.182 -6.184,-2.027 -9.401,-2.519l-1.662,-8.092Zm-5.046,20.406c17.398,-0 31.523,14.125 31.523,31.522c-0,17.398 -14.125,31.523 -31.523,31.523c-17.398,0 -31.523,-14.125 -31.523,-31.523c0,-17.397 14.125,-31.522 31.523,-31.522Zm-19.165,29.795l-11.194,-3.283l30.359,-8.902l30.359,8.902l-30.359,8.903l-17.776,-5.213l0,1.339c0.697,0.423 1.191,1.463 1.191,2.678c-0,0.991 -0.329,1.866 -0.828,2.384l0.828,17.222c-1.218,0.284 -2.469,0.393 -3.771,0l0.828,-17.222c-0.499,-0.518 -0.828,-1.393 -0.828,-2.384c0,-1.215 0.494,-2.255 1.191,-2.678l-0,-1.746Zm2.972,2.125l0.014,-0.044l16.179,4.745l16.179,-4.745c0.303,1.008 0.465,2.077 0.465,3.183l0,5.281c0,1.185 -7.458,2.148 -16.644,2.148c-7.674,-0 -14.142,-0.672 -16.064,-1.584l-0.207,-4.301c0.5,-0.518 0.828,-1.393 0.828,-2.384c0,-0.939 -0.294,-1.773 -0.75,-2.299Zm-21.484,-15.138l-0.704,2.334l6.115,1.846l-0.452,1.496l-6.115,-1.846l-0.705,2.333l-1.352,-0.408l1.861,-6.163l1.352,0.408Zm77.188,6.041l-0.712,-2.331l-6.109,1.866l-0.456,-1.495l6.109,-1.865l-0.712,-2.332l1.351,-0.412l1.88,6.157l-1.351,0.412Zm-70.043,-16.003c0.543,0.373 0.89,0.779 1.043,1.219c0.153,0.439 0.118,0.967 -0.104,1.583l3.364,0.162l-1.021,1.482l-3.128,-0.197l-0.646,0.937l2.213,1.525l-0.886,1.286l-6.423,-4.425l1.532,-2.223c0.681,-0.989 1.345,-1.586 1.993,-1.792c0.648,-0.206 1.336,-0.059 2.063,0.443Zm66.523,3.19l-6.274,4.635l-0.891,-1.207l3.951,-2.919l-4.859,0.575l-0.104,-0.141l1.976,-4.583l-4.002,2.956l-0.884,-1.196l6.274,-4.635l0.854,1.156l-2.05,4.903l5.199,-0.64l0.81,1.096Zm-68.157,1.209l0.709,-1.03c0.26,-0.377 0.426,-0.688 0.498,-0.932c0.072,-0.243 0.068,-0.454 -0.013,-0.631c-0.08,-0.177 -0.244,-0.35 -0.491,-0.52c-0.336,-0.232 -0.649,-0.293 -0.937,-0.183c-0.288,0.11 -0.624,0.443 -1.007,0.999l-0.674,0.978l1.915,1.319Zm10.102,-15.287l4.644,6.267l-1.124,0.833l-6.285,-1.783l3.081,4.158l-1.185,0.878l-4.644,-6.267l1.124,-0.833l6.337,1.853l-3.133,-4.228l1.185,-0.878Zm45.394,5.432l-2.209,3.41l-1.059,-0.687l0.403,-0.737c-0.345,0.164 -0.706,0.208 -1.084,0.133c-0.378,-0.076 -0.79,-0.259 -1.238,-0.549c-1.651,-1.069 -1.962,-2.398 -0.933,-3.986l1.203,-1.857c0.525,-0.811 1.15,-1.27 1.874,-1.377c0.725,-0.106 1.528,0.126 2.409,0.697c0.951,0.616 1.504,1.249 1.658,1.9c0.154,0.651 0.005,1.327 -0.448,2.026l-0.075,0.115l-1.311,-0.849l0.061,-0.095c0.158,-0.244 0.247,-0.462 0.267,-0.653c0.019,-0.191 -0.042,-0.384 -0.183,-0.58c-0.141,-0.196 -0.39,-0.409 -0.747,-0.64c-0.531,-0.345 -0.963,-0.483 -1.295,-0.415c-0.332,0.068 -0.629,0.305 -0.892,0.71l-1.217,1.878c-0.244,0.378 -0.329,0.73 -0.253,1.058c0.076,0.327 0.38,0.663 0.912,1.007c0.489,0.317 0.905,0.45 1.246,0.398c0.342,-0.052 0.628,-0.256 0.859,-0.613l0.007,-0.011l-1.123,-0.727l0.734,-1.133l2.434,1.577Zm-31.402,-7.118l1.193,3.883l-1.207,0.371l-0.306,-0.783c-0.095,0.37 -0.294,0.675 -0.595,0.915c-0.301,0.241 -0.706,0.44 -1.216,0.596c-1.88,0.578 -3.098,-0.038 -3.653,-1.846l-0.649,-2.115c-0.284,-0.924 -0.234,-1.698 0.15,-2.322c0.384,-0.623 1.078,-1.089 2.081,-1.397c1.084,-0.333 1.924,-0.349 2.522,-0.049c0.598,0.3 1.019,0.849 1.264,1.645l0.04,0.132l-1.494,0.459l-0.033,-0.108c-0.085,-0.279 -0.195,-0.487 -0.329,-0.625c-0.133,-0.137 -0.321,-0.215 -0.561,-0.233c-0.241,-0.017 -0.565,0.036 -0.971,0.161c-0.606,0.186 -0.989,0.428 -1.15,0.726c-0.161,0.298 -0.171,0.678 -0.029,1.14l0.656,2.139c0.133,0.43 0.348,0.721 0.648,0.873c0.299,0.153 0.752,0.136 1.357,-0.05c0.558,-0.172 0.927,-0.405 1.106,-0.699c0.18,-0.295 0.207,-0.646 0.083,-1.052l-0.004,-0.012l-1.279,0.392l-0.396,-1.29l2.772,-0.851Zm20.969,-2.63l-1.667,7.62l-1.465,-0.321l1.05,-4.799l-3.278,3.634l-0.17,-0.037l-1.533,-4.75l-1.064,4.86l-1.453,-0.318l1.667,-7.62l1.405,0.307l1.687,5.04l3.49,-3.907l1.331,0.291Z"/></svg>