<?xml version="1.0" encoding="UTF-8" standalone="no"?><!DOCTYPE svg PUBLIC "-//W3C//DTD SVG 1.1//EN" "http://www.w3.org/Graphics/SVG/1.1/DTD/svg11.dtd"><svg width="100%" height="100%" viewBox="0 0 130 125" version="1.1" xmlns="http://www.w3.org/2000/svg" xmlns:xlink="http://www.w3.org/1999/xlink" xml:space="preserve" xmlns:serif="http://www.serif.com/" style="fill-rule:evenodd;clip-rule:evenodd;stroke-linejoin:round;stroke-miterlimit:2;"><rect id="usage-stats" x="0.188" y="0" width="125" height="125" style="fill:none;"/><path d="M79.2,73.526l-9.655,0l0,25.158l9.655,0l-0,-25.158Zm23.38,-11.026l-9.654,0l-0,36.184l9.654,0l0,-36.184Zm-70.215,0l-9.654,0l0,36.184l9.654,0l0,-36.184Zm58.509,-5.067l-9.654,-0l-0,41.251l9.654,0l0,-41.251Zm-23.359,-31.117l-9.654,-0l0,72.368l9.654,0l0,-72.368Zm-11.819,27.081l-9.654,-0l0,45.287l9.654,0l0,-45.287Zm-11.619,-12.515l-9.654,-0l-0,57.802l9.654,0l-0,-57.802Z"/></svg>