<?xml version="1.0" encoding="UTF-8" standalone="no"?><!DOCTYPE svg PUBLIC "-//W3C//DTD SVG 1.1//EN" "http://www.w3.org/Graphics/SVG/1.1/DTD/svg11.dtd"><svg width="100%" height="100%" viewBox="0 0 130 125" version="1.1" xmlns="http://www.w3.org/2000/svg" xmlns:xlink="http://www.w3.org/1999/xlink" xml:space="preserve" xmlns:serif="http://www.serif.com/" style="fill-rule:evenodd;clip-rule:evenodd;stroke-linejoin:round;stroke-miterlimit:2;"><rect id="wifi" x="0.354" y="0" width="125" height="125" style="fill:none;"/><g id="wifi1" serif:id="wifi"><path d="M58.51,95.021c2.397,-2.398 6.291,-2.398 8.689,-0c2.397,2.397 2.397,6.291 -0,8.689c-2.398,2.397 -6.292,2.397 -8.689,-0c-2.398,-2.398 -2.398,-6.292 -0,-8.689Zm-8.69,-8.689c-2.397,2.397 -6.291,2.397 -8.689,-0c-2.397,-2.398 -2.397,-6.292 0,-8.69c11.997,-11.997 31.449,-11.997 43.446,0l-0,0c2.397,2.398 2.397,6.292 -0,8.69c-2.398,2.397 -6.292,2.397 -8.689,-0l-0,-0c-7.157,-6.976 -18.912,-6.976 -26.068,-0Zm-17.378,-17.379l0,0c-2.397,2.398 -6.291,2.398 -8.689,0c-2.397,-2.397 -2.397,-6.291 0,-8.689l0,0c21.595,-21.594 56.607,-21.594 78.202,0l-0,0c2.398,2.398 2.398,6.292 -0,8.689c-2.398,2.398 -6.292,2.398 -8.689,0l-0,0c-16.729,-16.475 -44.061,-16.483 -60.804,-0.018l-0.02,0.018c0,0 0,0 0,0Zm0.02,-0.018c0.027,-0.027 -0.086,0.092 -0.02,0.018l0.02,-0.018Zm-17.398,-17.36l0,0c-2.398,2.398 -6.291,2.398 -8.689,0c-2.398,-2.397 -2.398,-6.291 0,-8.689l0,0c31.193,-31.192 81.765,-31.192 112.958,0l-0,0c2.398,2.398 2.398,6.292 -0,8.689c-2.398,2.398 -6.291,2.398 -8.689,0c-26.296,-25.906 -69.241,-25.916 -95.556,-0.023l-0.024,0.023c0,0 0,0 0,0Zm0.024,-0.023l-0.024,0.023c-0.102,0.121 0.088,-0.085 0.024,-0.023Z"/></g></svg>