<?xml version="1.0" encoding="UTF-8"?><svg id="a" xmlns="http://www.w3.org/2000/svg" viewBox="0 0 1420 1420"><defs><style>.b{fill:#fff;}</style></defs><path d="M0,1420C0,946.67,0,473.33,0,0c473.33,0,946.67,0,1420,0,0,473.33,0,946.67,0,1420-473.33,0-946.67,0-1420,0ZM349.11,706.06c-2.57,1.03-5.15,2.07-8.8,3.53,6.35,12.1,12.39,23.63,18.44,35.16-4.38-6.02-8.75-12.04-13.13-18.07l-.53,.12c2.74,5.87,5.49,11.74,8.23,17.61-.58,.28-1.17,.56-1.75,.84-5.82-10.92-11.64-21.84-17.13-32.15-.01-.05,.13,.72,.34,1.46,3.16,11.14,8.58,21.01,15.72,30.15,2,2.56,5.48,5.45,3.68,10.1-.36,.93,1.94,2.89,3.01,4.38,.17-.14,.34-.28,.51-.42-.27-1.14-.54-2.29-1.06-4.5,4.64,4.78,9.34,7.55,9.72,14.42,.43,7.91,4.73,11.3,13.04,12.76-.58,1.82-1.14,3.58-1.71,5.34l1.05,.4c1.23-2.77,2.45-5.55,3.96-8.96,1.84,5.85-.35,9.79-4.05,12.58-3.66,2.75-7.17,1.18-10.9-1.28-7.85-5.19-9.98-14.21-15.07-21.2-4.21-5.79-6.57-12.9-10.58-18.87-6.23-9.27-12.4-18.47-15.34-29.4-.64-2.4-.98-4.9-1.82-7.21-1.06-2.9-4.1-3.4-5.65-.85-2.42,3.98-4.42,7.88-1.37,12.94,3.06,5.07,4.95,10.84,7.36,16.31l-1.73,.86c-2.5-4.15-4.53-8.71-7.62-12.36-4.63-5.47-6.4-11.11-3.9-17.93,.36-.98,.36-2.1,.61-3.69h-33.15v-1.51c1.77,0,3.55,.04,5.32,0,8.43-.25,16.87-.84,25.3-.68,5.55,.11,4.89-3.01,4.4-6.48-1.26-8.97-2.42-17.96-3.83-26.91-1.13-7.22-2.33-14.45-4.04-21.55-.38-1.57-2.93-2.9-4.76-3.73-1.23-.56-2.94-.02-4.44-.02-16.8,0-33.6,0-51.34,0,3.38-3.37,6.97-3.57,10.71-3.71,14.73-.54,29.47-1.17,44.2-1.83,4.5-.2,7.07-2.27,6.83-7.22-.16-3.31,.17-6.65,.27-9.98,.15-4.93-2.66-8.79-7.1-9.36-14.08-1.81-28.15-1.48-42.25,.04-4.08,.44-8.24,.07-12.37,.07l-.07-2.39c18.68-.79,37.37-1.59,56.27-2.39v-8.6c-1.29-.09-2.87-.06-4.39-.35-3.18-.61-6.62-2.58-9.43-1.88-10.53,2.59-20.75-1.8-31.42-.23-9.69,1.42-14.16,3.16-16.15,13.04-.04,.2-.47,.32-1.13,.74-2.11-6.8-6.4-10.46-13.82-8.89l-1.2-4.46c-2.26,1.66-5.15,2.64-5.63,4.32-2.15,7.5-4.19,15.12-5.19,22.84-1.75,13.51-2.66,27.13-4.05,40.69-.32,3.11,.11,6.06-2.54,9.17-1.53,1.8,1.22,6.91,1.36,10.56,.28,7.08,.08,14.17,.08,21.28-11.45,1.11-16.11,.27-16.68-11.54-.65-13.45-1.47-26.94-1.19-40.38,.21-10.01,1.88-20.02,3.28-29.98,.82-5.83,2.37-11.56,3.64-17.53-4.95-.13-9.17-.53-10.23,5.92-.98,5.99-3.61,11.72-4.57,17.72-3.79,23.79-7.42,47.61-1.29,71.63,1.84,7.22,6.74,12.06,13.93,11.38,5.22-.49,5.79,2.74,5.68,5.88-.34,9.79,5.26,16.99,10,24.56,.78,1.24,2.71,1.77,4.14,2.58,5.71,3.24,11.96,5.79,17.03,9.82,9.91,7.89,19.62,15.85,33.37,19.22-1.06,4.35-1.79,8.47-3.1,12.39-1.67,5.02-4.54,9.74-5.63,14.85-4.49,20.96,3.42,37.83,18.87,51.41,12.29,10.8,27.07,16.35,43.33,18.4,5.06,.64,10.35,.27,14.9,4.38,19.85,17.92,42.51,31.16,68.22,38.81,5.86,1.75,11.97,2.96,18.05,3.6,6.03,.63,12.18,.48,18.26,.24,13.59-.55,27.35-.27,40.69-2.46,9.41-1.55,19.24-5.18,27.04-10.55,6.73-4.63,13.06-6.59,20.51-5.93,19.85,1.76,39.65,4.02,59.51,5.74,5.25,.46,10.88,.65,15.87-.72,12.93-3.55,25.81-7.5,38.34-12.27,20.32-7.73,34.63-22.2,43.84-41.81,2.25-4.78,4.49-9.57,6.76-14.41,3.17,1.31,6.18,2.64,9.24,3.8,7.08,2.7,19.93-2.97,23.6-8.49,3.72-5.6,2.76-15.77-1.84-21.87-.94-1.25-1.46-2.93-1.81-4.5-4.51-20.39-9.08-40.76-13.36-61.2-2.78-13.25-5.1-26.6-7.89-41.31,9.01,3.6,16.99,6.57,24.78,9.95,17.46,7.56,35.34,8.58,53.62,3.79,8.64-2.26,17.1-6.13,25.85-6.88,24.02-2.04,48.15-2.97,72.25-4.02,21.46-.93,42.94-1.15,64.39-2.27,7.54-.39,16.26-1.37,19.99-9.01,4.3-8.8,11.44-13.8,19.05-18.77,1.11-.72,2.2-1.48,3.25-2.3,5.85-4.56,11.68-9.14,17.98-14.08,1.48,10.28,12.08,13.83,14.73,22.8,.54,1.83,1.58,3.74,2.93,5.04,2.62,2.53,5.43,5.01,8.56,6.83,2.04,1.19,4.77,1.28,7.22,1.66,3.31,.52,3.7,2.51,2.54,5.04-1.63,3.56-3.51,7.02-5.37,10.68-11.27-1.7-22.56-3.64-33.92-4.95-3.06-.35-7.62,.16-9.24,2.13-3.12,3.81-6.16,2.67-9.69,2.17-6.94-1-14.3-2.41-20.2,2.33-4.63,3.72-8.77,3.54-13.83,1.91-6.52-2.1-11-.04-13.52,6.38-1.8,4.57-2.82,9.46-4.02,14.24-6.18,24.67-8.74,49.71-7.76,75.12,.26,6.61,6.27,11.69,12.83,10.86,3.45-.43,6.91-.74,9.42-1.01,1.53,3.47,2.11,6.9,4.12,8.86,3.29,3.19,7.34,7.25,11.38,7.63,7.67,.73,12.7,4.65,18.37,8.96,3.2,2.43,8.38,2.46,12.74,3.13,8.51,1.31,17.04,2.5,25.6,3.33,2.51,.24,5.82-.11,7.59-1.59,3.13-2.62,6.31-2.29,9.79-2.32,2.5-.02,5.1-1.32,7.46-.92,5.69,.98,11.19,3.06,16.89,3.89,8.14,1.19,16.38,1.66,25.58,2.54-5.17,7.14-7.24,13.94-.93,20.32,2.42,.41,5.69,.55,6.7,2.13,2.93,4.61,4.51,5.4,9.14,2.89,.94-.51,2.83-.64,3.51-.06,4.74,4.08,10.64,4.21,15.07,1.54,4.17-2.52,7.25-1.64,10.97-.67,.95,.25,1.97,.28,2.96,.38,11.06,1.07,22.14,2.03,33.18,3.3,1.89,.22,4.35,1.31,5.27,2.8,1.86,2.99,3.04,6.46,4.15,9.85,2.01,6.15,10.02,14.22,17.94,13.17,8.24-1.1,16.57-1.49,24.8-2.62,8.14-1.12,13.77-5.55,18.5-12.6,4.23-6.32,3.09-12.6,3.46-19.1,.38-6.71-1.9-12.49-6.28-17.25-3.12-3.39-3.19-6.65-1.49-10.47,1.06-2.4,2.72-4.78,2.91-7.26,1.19-15.53,2.04-31.09,3.02-46.63,.08-1.25-.04-3.26,.63-3.62,5.75-3.13,5.74-8.37,5.44-13.76-.58-10.37-1.17-20.75-1.82-31.12-.52-8.3-3.68-11.46-12-12.2-9.28-.83-18.54-2.05-27.83-2.28-3.21-.08-6.49,2.27-9.73,3.52-1.58,.61-3.17,1.8-4.73,1.75-6.55-.22-13.14-2.46-19.58,.88-.75,.39-2.05-.25-4.57-.64,8.74-5.6,4.46-13.99,7.41-21.07-4.04-.73-7.71-1.39-12.24-2.21-.88,7.16-1.82,13.99-2.53,20.85-.34,3.26-4.33,9.41-7.08,9.18-3.65-.31-7.95,.31-9.73-4.94-1.35-3.99-5.73-3.8-8.28-.17-.6,.86-1.72,2.05-2.5,1.98-5.67-.51-5.4,3.44-5.66,7.09-.13,1.82-.3,3.63-.58,5.43-1.83,11.63-3.56,23.27-5.65,34.85-.6,3.33-2.26,6.47-3.43,9.7l-1.59-.6c.66-2.25,1.57-4.46,1.93-6.76,1.02-6.56,1.86-13.16,2.68-19.75,1.5-11.98,2.94-23.96,4.4-35.95l.09-2.41c-2.24-1.91-6.22-3.7-6.38-5.77-.36-4.8,1.13-9.74,1.87-14.62,.35,.02,.7,.04,1.05,.05v15.02c2.48,.41,4.31,.59,6.08,1.02,4.3,1.06,6.76,.11,7.55-4.89,.87-5.52,2.73-10.88,4.15-16.3,.18,4.74-.6,9.28-.92,13.86-.08,1.17,1.07,2.75,2.1,3.61,2.14,1.79,4.51,3.31,6.9,4.77,1.55,.94,3.43,2.39,4.89,2.13,1.62-.29,3.86-2.06,4.2-3.56,1.18-5.13,1.56-10.45,2.41-15.66,.84-5.15-1.99-7.14-6.42-8.14-2.66-.6-5.23-1.55-7.84-2.35,.12-.42,.24-.84,.36-1.27,1.8,.09,3.61,.04,5.39,.28,11.02,1.5,22.03,3.13,33.07,4.55,1.94,.25,3.98-.31,5.97-.5v-1.72c-12.61-2.05-25.22-4.11-37.84-6.16,9.21,.12,18.23,1.63,27.3,2.18,5.13,.31,10.41,2.99,15.7-.92,2.95-2.18,6.9,1.35,6.27,5.07-.52,3.04-1.02,6.09-1.56,9.34,11.8-2.37,14.19-4.69,16.19-15.33,.31-1.63,.48-3.3,.66-4.95,.76-6.88-1.81-11.07-8.45-12.46-10.37-2.16-20.83-3.95-31.28-5.76-9.97-1.73-19.98-3.27-29.96-4.98-1.22-.21-2.66-.68-3.47-1.54-3.78-3.97-7.72-7.87-10.96-12.26-3.89-5.27-9.07-7.41-15.22-8.25-11.48-1.56-22.95-3.25-34.76-4.94,2.67-12.74,1.46-24.36-6.86-33.9-5.52-6.32-12.09-11.76-18.49-17.25-2.56-2.19-4.74-3.43-3.12-7.6,1.9-4.9-.66-9.71-5.58-12.59-5.5-3.22-11.16-3.95-16.82-.32-6.8-19-7.46-19.62-19.14-17.35-1.76-5.57-3.45-11.24-5.34-16.85-2-5.94-6.11-8.62-12.24-7.41-4.15,.82-6.1-.42-7.21-4.38-1.04-3.7-1.29-8.21-5.97-9.61-5.54-1.66-7.69-5.94-9.71-10.84-.98-2.36-2.58-5.73-6.77-4.07-.53,.21-2.66-1.57-2.63-2.36,.2-4.54-3.03-9.8,4.4-12.68,4.78-1.85,4.72-11.07,.53-16.06-13.09-15.58-27.64-29.53-45.95-38.93-6.04-3.1-13.25-6.17-18.86-1.51-8.1,6.72-18.21,13.5-13.19,26.53-4.79,.31-9.17,.97-13.51,.78-4.25-.19-9.03-.19-12.57-2.11-8.28-4.5-15.9-10.21-23.91-15.22-2.78-1.74-5.97-2.8-8.91-4.29-6.04-3.06-12.04-6.23-18.07-9.32-9.91-5.08-19.66-10.55-29.84-15.01-4.73-2.07-10.39-1.95-15.53-3.19-8.82-2.13-17.54-4.67-26.37-6.81-4.17-1.01-8.94-.55-12.62-2.4-6.3-3.16-12.71-3.11-19.38-3.41-6.4-.29-12.77-1.55-19.11-2.59-2.77-.46-5.41-1.73-8.18-2.15-18.55-2.81-37.13-5.4-55.65-8.36-2.24-.36-4.71-2.13-6.16-3.97-3.56-4.48-7.67-7.15-13.57-6.85-15.29,.79-30.59,1.41-45.88,2.22-7.29,.39-14.62,.66-21.83,1.7-9.34,1.34-18.64,3.15-27.85,5.22-7.96,1.79-16.51,2.12-23.15,7.86-3.12,2.7-5.83,6.06-9.34,8.07-5,2.86-10.52,4.83-15.9,6.99-1,.4-2.76,.34-3.51-.29-3.12-2.63-6.19-5.39-8.91-8.43-4.16-4.64-7.24-10.73-12.23-14.04-5.4-3.58-12.45-4.66-18.25-6.65-1.52,1.88-2.44,3.02-3.36,4.17-.75-1.21-1.5-2.42-2.25-3.63-5.39,1.95-7.48,5.24-6.64,9.98,.22,1.25,.05,2.84-.59,3.85-.41,.65-2.03,.53-3.11,.76-.27-1.46-.54-2.92-1.02-5.52-1.49,1.15-2.62,2.15-3.87,2.96-1.09,.7-3.06,1.96-3.36,1.66-2.3-2.24-3.78-1.28-5.79,.51-3.34,3-6.88,5.83-10.6,8.35-5.89,3.99-7.56,9.87-8.46,16.41-.38,2.72-1.02,5.62-4.75,6.53-2.11,.51-3.93,2.34-5.78,3.71-5.17,3.83-10.2,7.86-15.48,11.53-2.36,1.64-5.45,2.25-7.72,3.97-3.53,2.69-6.64,5.92-9.92,8.93-4.61,4.23-5.56,9.45-1.97,14.55,4.28,6.09,9,11.87,13.62,17.72,5.85,7.41,11.78,14.75,18.52,23.18-8.81,6.23-16.99,12.26-25.44,17.89-5.59,3.72-8.5,9.55-7.62,16.4,.25,1.92-.26,3.96-.55,5.92-.58,3.89-1.03,7.81-2,11.6-.34,1.32-1.87,3.01-3.14,3.32-6.09,1.44-12.24,2.97-18.44,3.5-6.02,.51-12.14-.26-18.22-.24-1.9,0-4.47,.17-5.56,1.34-3.44,3.71-6.33,7.93-10.42,13.23,11.11,.53,20.83,1.1,30.55,1.41,6.98,.22,12.83,2.34,15.92,9.02,1.1,2.38,1.24,5.21,1.88,8.13,13.69-8.81,26.84-17.27,39.98-25.73l.87,1.33c-.46,.41-.88,.86-1.38,1.21-11.32,8.12-22.58,16.32-33.99,24.31-4.44,3.11-4.32,6.95-2.48,12.84,3.83-1.6,7.55-2.67,10.74-4.61,3.33-2.03,5.88-5.39,9.25-7.32,15.42-8.81,23.42-22.89,28.49-39.15,.09-.29-.45-.77-.98-1.59-1.17,1.32-2.16,2.44-3.15,3.56l-.57-.44c.4-1.39,.79-2.78,1.55-5.45-3.15,4.3-5.51,7.53-7.87,10.75,2.93-11.66,11-19.99,17.83-29.15,6.92-9.28,13.45-18.86,20.36-28.61-6.75,1.76-9.1-4.22-15.04-7.84-2.99,4.18-6.14,8.59-9.44,13.2-11.57-15.18-22.13-28.98-32.61-42.85-1.05-1.39-1.58-3.17-2.35-4.76,.56-.27,1.12-.55,1.68-.82,8.54,11.21,17.03,22.46,25.67,33.59,.99,1.27,2.88,2.71,4.26,2.63,3.56-.23,4.24,.24,3.14,3.65-.29,.9-.49,1.84-.72,2.76l1.23,.81c1.34-1.66,2.71-3.29,4.01-4.98,2.98-3.86,5.68-7.96,8.93-11.56,4.46-4.94,9.34-9.49,14.02-14.23,5.49-5.56,10.69-11.45,16.51-16.64,7.4-6.6,9.92-6.39,16.53,.51,3.79,3.95,5.44,7.9,.15,12.25-15.48,12.73-27.16,28.68-37.79,45.46-3.81,6.02-6.65,12.17-3.26,19.55,1.14,2.5,1.77,5.51,1.62,8.24-.15,2.7-.98,5.84-2.66,7.82-1.03,1.21-4.22,.6-6.05,.77-.87-4.25-1.53-7.5-2.19-10.74-3.77,6.93-6.85,13.71-9.23,20.72-5.7,16.79-11.42,33.59-16.32,50.62-1.21,4.21,.51,9.34,1.25,13.98,.34,2.13,1.55,4.12,2.21,5.79-6.4,.52-12.26,1-18.2,1.48,4.01-4.46,12.84-5.82,10.6-15.46-4.21,1.2-8.2,2.33-12.19,3.47,4.97-5.95,14.13-8.07,14.13-19.49-6.52,3.49-11.97,6.4-17.41,9.32-.14-.27-.28-.54-.42-.81,5.65-4.93,11.31-9.86,16.96-14.78l-.82-1.08c-.53,.24-1.1,.43-1.59,.74-7.34,4.54-14.78,8.94-21.91,13.79-1.38,.94-2.28,3.69-2.17,5.52,.38,6.27,.8,12.64,2.3,18.7,.57,2.3,3.95,4.1,6.35,5.68,1.65,1.09,4.19,.94,5.67,2.16,7.76,6.38,11.22,15.38,14.51,24.49,1.13,3.14,2.99,6.02,4.52,9.02,.44-.13,.88-.26,1.33-.39,0-4.28-.04-8.56,0-12.84,.07-5.75-3.7-7.83-9.66-8.76,4.93-2.42,8.83-4.34,12.73-6.25-.01-.52-.03-1.05-.04-1.57-2.9-.79-5.76-2-8.71-2.24-3.02-.25-6.12,.44-9.18,.72-.08-.49-.15-.98-.23-1.47,1.81-.7,3.64-1.35,5.42-2.12,5.39-2.36,9.47-5.06,10.51-12.1,1.94-13.16,8.28-24.46,17.75-34.06,5.56-5.64,13.19-10.42,12.79-19.77-.5-11.81,6.31-18.77,14.82-25.32,13.82-10.64,27.08-21.99,40.88-32.66,10.37-8.02,21.21-15.44,31.86-23.1,.37-.26,.94-.24,1.34-.33,3.67,2.93,3.22,4.76-.69,7.44-6.28,4.31-12.03,9.43-17.76,14.49-1.16,1.03-2.06,3.47-1.7,4.92,2.94,12.07,6.26,24.05,9.31,36.1,.46,1.83,.18,3.85,.24,5.78-2.17-1.09-4.57-1.89-6.42-3.37-.97-.77-1.16-2.7-1.4-4.16-1.39-8.69-2.4-17.46-4.09-26.09-1.78-9.02-.65-16.49,8.4-21.06,.82-.42,1.26-1.6,1.88-2.43l-1-.84c-10.97,9.27-21.95,18.55-32.93,27.83l.16-.17c-10.94,8.89-21.86,17.81-32.82,26.67-6.3,5.09-7.37,11.93-6.44,19.46,1.83-4.23,1.87-9.31,4.14-13.02,2.37-3.87,6.9-6.42,10.48-9.54l.7,.99c-1.14,2.75-2.28,5.49-3.87,9.33,2.66-1.03,4-1.54,5.38-2.07,1.89,16.29-3.56,32.86,5.43,48.01-11.61-11.92-7.68-27.02-8.75-41.83-12.67,10.59-24.04,21.12-32.62,34.32-5.38,8.28-9.8,17.15-10.63,26.99-1.51,18.02-2.16,36.11-3.18,54.17-.07,1.2-.24,2.39-.37,3.59-.47,.11-.93,.21-1.4,.32-2.97-6.88-5.9-13.79-8.94-20.63-2.08-4.67-5.23-9.08-6.27-13.95-1.3-6.11-5.29-9.4-9.37-13,1.3,2.83,3.39,5.14,4.81,7.82,1.05,1.98,1.22,4.42,1.78,6.66-1.89,.12-3.79,.23-5.67,.33,.06-7.12-4.96-11.48-9.39-16.51-.68,5.73-1,11.41-.57,17.03,.31,3.92,1.91,7.72,2.49,11.64,.81,5.42,.94,10.94,1.87,16.33,.89,5.19,2.1,10.37,3.77,15.35,1.86,5.56,5.34,7.92,9.43,6.45,4.69-1.69,4.18-6.41,3.26-9.75-3.13-11.44-6.87-22.71-10.57-33.98-1.5-4.57-3.48-8.99-5.24-13.48l1.11-.48c1.3,2.43,2.6,4.87,3.9,7.3,4.55,8.6,9.26,17.12,13.61,25.81,3.45,6.89,6.48,13.98,9.7,20.98Zm-145.29-74.38c1.27-8.22,2.5-16.25,3.74-24.33-4.54-.38-6.79,.84-6.44,5.45,.2,2.59-.83,5.25-.85,7.89-.03,3.77-2.58,8.26,3.54,10.99Zm167.46-134.01c-.41-.23,.52,.44,.62,.33,6.64-6.92,13.21-13.91,19.79-20.89-.33-.32-.66-.65-.99-.97-6.48,7.18-12.96,14.37-19.42,21.53Zm-27.93,227.15l1.81-.9c-2.03-4.49-4.06-8.97-6.09-13.46-.48,.21-.96,.41-1.45,.62,1.91,4.58,3.82,9.16,5.73,13.74Zm825.25-9.22c-.09,.7-.18,1.4-.27,2.1,3.99,.38,7.99,.76,11.98,1.14,.05-.58,.1-1.17,.16-1.75l-11.86-1.49Z"/><path class="b" d="M325.7,659.37l5.68-.35c-.56-2.24-.74-4.68-1.78-6.66-1.42-2.67-3.51-4.99-4.81-7.82,4.08,3.6,8.07,6.9,9.37,13,1.04,4.87,4.19,9.28,6.27,13.95,3.05,6.85,5.97,13.75,8.94,20.63,.47-.11,.93-.21,1.4-.32,.13-1.2,.3-2.39,.37-3.59,1.02-18.06,1.66-36.15,3.18-54.17,.83-9.84,5.25-18.71,10.63-26.99,8.59-13.2,19.96-23.73,32.62-34.32,1.07,14.8-2.86,29.9,8.75,41.83-8.99-15.15-3.54-31.72-5.43-48.01-1.39,.53-2.72,1.05-5.38,2.07,1.59-3.84,2.73-6.59,3.87-9.33l-.7-.99c-3.58,3.13-8.11,5.67-10.48,9.54-2.28,3.71-2.32,8.79-4.14,13.02-.93-7.53,.13-14.37,6.44-19.46,10.97-8.86,21.88-17.78,32.82-26.67-1.8,1.68-3.78,3.21-5.35,5.07-2.69,3.2-6.98,6.43-7.34,9.97-1.27,12.52-1.25,25.18-1.47,37.79-.03,1.74,1.38,3.5,2.13,5.25,1.65-.93,3.53-1.6,4.91-2.83,8.03-7.14,15.57-14.88,24.03-21.45,4.52-3.51,6.6-7.1,6.13-12.52-.42-4.8-.46-9.66-1.32-14.37-.68-3.67-2.37-7.16-3.61-10.72-.13-.46-.26-.92-.38-1.37-2.01-4.99-3.17-5.27-7.22-2.2-3.46,2.63-7.09,5.03-10.65,7.53,10.97-9.27,21.95-18.55,32.92-27.82l1,.84c-.62,.83-1.05,2.01-1.88,2.43-9.06,4.57-10.18,12.04-8.4,21.06,1.7,8.63,2.71,17.39,4.09,26.09,.23,1.46,.43,3.39,1.4,4.16,1.86,1.48,4.25,2.29,6.42,3.37-.06-1.93,.23-3.95-.24-5.78-3.06-12.04-6.37-24.02-9.31-36.1-.35-1.46,.54-3.9,1.7-4.92,5.73-5.05,11.48-10.17,17.76-14.49,3.91-2.68,4.36-4.51,.69-7.44-.4,.09-.98,.07-1.34,.33-10.65,7.66-21.49,15.08-31.86,23.1-13.8,10.67-27.06,22.02-40.88,32.66-8.51,6.55-15.33,13.51-14.82,25.32,.4,9.36-7.23,14.13-12.79,19.77-9.47,9.6-15.81,20.91-17.75,34.06-1.04,7.05-5.12,9.74-10.51,12.1-1.78,.78-3.61,1.42-5.42,2.12,.08,.49,.15,.98,.23,1.47,3.06-.28,6.16-.97,9.18-.72,2.94,.24,5.81,1.45,8.71,2.24,.01,.52,.03,1.05,.04,1.57-3.9,1.92-7.8,3.83-12.73,6.25,5.96,.92,9.72,3,9.66,8.76-.05,4.28,0,8.56,0,12.84-.44,.13-.88,.26-1.33,.39-1.53-3-3.39-5.88-4.52-9.02-3.29-9.12-6.75-18.12-14.51-24.49-1.48-1.22-4.02-1.07-5.67-2.16-2.4-1.58-5.78-3.38-6.35-5.68-1.5-6.06-1.92-12.43-2.3-18.7-.11-1.84,.79-4.58,2.17-5.52,7.13-4.85,14.57-9.25,21.91-13.79,.49-.31,1.06-.49,1.59-.74l.82,1.08c-5.65,4.93-11.31,9.86-16.96,14.78,.14,.27,.28,.54,.42,.81,5.44-2.91,10.88-5.82,17.41-9.32,0,11.42-9.16,13.54-14.13,19.49,3.99-1.14,7.98-2.27,12.19-3.47,2.24,9.63-6.59,11-10.6,15.46,5.93-.48,11.8-.96,18.2-1.48-.66-1.67-1.88-3.66-2.21-5.79-.74-4.65-2.46-9.78-1.25-13.98,4.9-17.03,10.62-33.83,16.32-50.62,2.38-7.01,5.47-13.79,9.23-20.72,.66,3.25,1.32,6.49,2.19,10.74,1.84-.17,5.02,.44,6.05-.77,1.68-1.97,2.51-5.11,2.66-7.82,.15-2.72-.48-5.74-1.62-8.24-3.38-7.38-.55-13.54,3.26-19.55,10.64-16.78,22.31-32.73,37.79-45.46,5.29-4.35,3.64-8.29-.15-12.25-6.61-6.9-9.13-7.11-16.53-.51-5.82,5.19-11.02,11.08-16.51,16.64-4.68,4.74-9.56,9.3-14.02,14.23-3.25,3.6-5.95,7.7-8.93,11.56-1.3,1.69-2.67,3.32-4.01,4.98l-1.23-.81c.24-.92,.43-1.85,.72-2.76,1.09-3.42,.41-3.88-3.14-3.65-1.38,.09-3.28-1.36-4.26-2.63-8.64-11.13-17.13-22.38-25.67-33.59-.56,.27-1.12,.55-1.68,.82,.77,1.6,1.3,3.38,2.35,4.76,10.48,13.87,21.04,27.67,32.61,42.85,3.3-4.61,6.45-9.02,9.44-13.2,5.94,3.63,8.29,9.61,15.04,7.84-6.91,9.75-13.44,19.33-20.36,28.61-6.83,9.16-14.9,17.48-17.83,29.15,2.36-3.22,4.72-6.44,7.87-10.75-.76,2.67-1.16,4.06-1.55,5.45l.57,.44c.99-1.12,1.98-2.24,3.15-3.56,.52,.82,1.07,1.31,.98,1.59-5.07,16.26-13.07,30.33-28.49,39.15-3.37,1.93-5.92,5.29-9.25,7.32-3.19,1.94-6.92,3.02-10.74,4.61-1.84-5.89-1.96-9.73,2.48-12.84,11.41-7.99,22.67-16.19,33.99-24.31,.49-.35,.92-.81,1.38-1.21l-.87-1.33c-13.14,8.46-26.29,16.91-39.98,25.73-.64-2.92-.78-5.74-1.88-8.13-3.09-6.68-8.94-8.8-15.92-9.02-9.73-.31-19.45-.88-30.55-1.41,4.09-5.3,6.98-9.53,10.42-13.23,1.09-1.18,3.66-1.33,5.56-1.34,6.08-.03,12.2,.75,18.22,.24,6.21-.53,12.35-2.05,18.44-3.5,1.27-.3,2.8-1.99,3.14-3.32,.97-3.79,1.42-7.72,2-11.6,.29-1.96,.8-4,.55-5.92-.88-6.85,2.04-12.68,7.62-16.4,8.45-5.62,16.62-11.66,25.44-17.89-6.75-8.44-12.68-15.77-18.52-23.18-4.62-5.85-9.34-11.63-13.62-17.72-3.59-5.11-2.64-10.32,1.97-14.55,3.28-3.01,6.39-6.24,9.92-8.93,2.27-1.73,5.36-2.33,7.72-3.97,5.28-3.67,10.3-7.7,15.48-11.53,1.85-1.37,3.68-3.2,5.78-3.71,3.74-.91,4.37-3.81,4.75-6.53,.91-6.54,2.57-12.42,8.46-16.41,3.72-2.52,7.25-5.35,10.6-8.35,2-1.8,3.49-2.75,5.79-.51,.31,.3,2.27-.96,3.36-1.66,1.25-.81,2.38-1.8,3.87-2.96,.48,2.6,.75,4.06,1.02,5.52,1.08-.23,2.69-.11,3.11-.76,.65-1.02,.81-2.61,.59-3.85-.83-4.75,1.25-8.04,6.64-9.98,.75,1.2,1.5,2.42,2.25,3.63,.92-1.14,1.85-2.29,3.36-4.17,5.8,1.99,12.86,3.07,18.25,6.65,4.98,3.3,8.06,9.39,12.23,14.04,2.72,3.04,5.79,5.8,8.91,8.43,.75,.63,2.51,.69,3.51,.29,5.38-2.16,10.9-4.13,15.9-6.99,3.5-2.01,6.22-5.37,9.34-8.07,6.64-5.74,15.19-6.07,23.15-7.86,9.21-2.07,18.51-3.88,27.85-5.22,7.21-1.04,14.54-1.31,21.83-1.7,15.29-.81,30.59-1.44,45.88-2.22,5.9-.3,10.01,2.36,13.57,6.85,1.46,1.84,3.93,3.61,6.16,3.97,18.52,2.96,37.11,5.55,55.65,8.36,2.77,.42,5.41,1.69,8.18,2.15,6.35,1.05,12.71,2.3,19.11,2.59,6.66,.3,13.07,.25,19.38,3.41,3.68,1.85,8.45,1.39,12.62,2.4,8.82,2.13,17.54,4.68,26.37,6.81,5.15,1.24,10.8,1.12,15.53,3.19,10.19,4.46,19.93,9.93,29.84,15.01,6.03,3.09,12.02,6.26,18.07,9.32,2.94,1.49,6.13,2.55,8.91,4.29,8.02,5.01,15.63,10.72,23.91,15.22,3.54,1.93,8.32,1.93,12.57,2.11,4.34,.19,8.72-.47,13.51-.78-5.02-13.03,5.09-19.8,13.19-26.53,5.61-4.66,12.82-1.59,18.86,1.51,18.32,9.41,32.86,23.36,45.95,38.93,4.2,4.99,4.25,14.21-.53,16.06-7.43,2.88-4.2,8.14-4.4,12.68-.03,.8,2.1,2.57,2.63,2.36,4.19-1.65,5.79,1.71,6.77,4.07,2.02,4.9,4.17,9.18,9.71,10.84,4.68,1.4,4.93,5.91,5.97,9.61,1.11,3.97,3.06,5.21,7.21,4.38,6.13-1.21,10.24,1.47,12.24,7.41,1.89,5.61,3.58,11.28,5.34,16.85,11.68-2.27,12.34-1.65,19.14,17.35,5.66-3.63,11.32-2.9,16.82,.32,4.92,2.88,7.48,7.69,5.58,12.59-1.62,4.17,.56,5.41,3.12,7.6,6.4,5.48,12.98,10.93,18.49,17.25,8.32,9.54,9.53,21.15,6.86,33.9,11.8,1.68,23.27,3.37,34.76,4.94,6.15,.84,11.33,2.98,15.22,8.25,3.24,4.39,7.18,8.29,10.96,12.26,.81,.85,2.25,1.33,3.47,1.54,9.98,1.71,19.99,3.25,29.96,4.98,10.44,1.81,20.9,3.6,31.28,5.76,6.64,1.39,9.21,5.58,8.45,12.46-.18,1.66-.35,3.32-.66,4.95-2,10.64-4.4,12.95-16.19,15.33,.54-3.25,1.05-6.29,1.56-9.34,.63-3.72-3.32-7.24-6.27-5.07-5.29,3.91-10.57,1.22-15.7,.92-9.07-.55-18.09-2.06-27.3-2.18,12.62,2.05,25.24,4.11,37.85,6.16v1.72c-2.01,.19-4.05,.75-5.99,.5-11.04-1.42-22.04-3.05-33.07-4.55-1.78-.24-3.59-.2-5.39-.28-.12,.42-.24,.84-.36,1.27,2.61,.8,5.18,1.75,7.84,2.35,4.43,1,7.26,2.99,6.42,8.14-.85,5.22-1.23,10.53-2.41,15.66-.34,1.5-2.59,3.27-4.2,3.56-1.47,.26-3.35-1.18-4.89-2.13-2.39-1.46-4.76-2.98-6.9-4.77-1.03-.86-2.18-2.44-2.1-3.61,.31-4.58,1.1-9.12,.92-13.86-1.43,5.43-3.28,10.79-4.15,16.3-.79,5-3.24,5.95-7.55,4.89-1.77-.43-3.6-.61-6.08-1.02v-15.02c-.35-.02-.7-.04-1.05-.05-.74,4.88-2.23,9.82-1.87,14.62,.16,2.07,4.14,3.85,6.38,5.77-5.3-2.15-12.9,1.41-15.92-6.44-.07-.19-.59-.27-.91-.31-9.13-1.06-18.26-2.1-27.39-3.14-.11,.6-.22,1.2-.33,1.8,8.65,1.58,17.31,3.15,25.96,4.73-.2,.39-.41,.77-.61,1.16,1.28,1.01,2.45,2.67,3.86,2.9,5.04,.83,10.16,1.18,15.25,1.71-1.46,11.98-2.9,23.97-4.4,35.95-.83,6.59-1.66,13.19-2.68,19.75-.36,2.3-1.27,4.51-1.93,6.76l1.59,.6c1.17-3.23,2.83-6.37,3.43-9.7,2.09-11.58,3.82-23.23,5.65-34.85,.28-1.8,.45-3.62,.58-5.43,.27-3.66,0-7.61,5.66-7.09,.78,.07,1.9-1.12,2.5-1.98,2.55-3.63,6.93-3.82,8.28,.17,1.78,5.25,6.07,4.63,9.73,4.94,2.74,.23,6.74-5.92,7.08-9.18,.71-6.86,1.65-13.7,2.53-20.85,4.53,.82,8.2,1.48,12.24,2.21-2.95,7.08,1.33,15.47-7.41,21.07,2.52,.39,3.81,1.03,4.57,.64,6.44-3.35,13.03-1.1,19.58-.88,1.55,.05,3.15-1.14,4.73-1.75,3.24-1.25,6.52-3.6,9.73-3.52,9.29,.24,18.56,1.46,27.83,2.28,8.32,.74,11.48,3.91,12,12.2,.65,10.37,1.24,20.74,1.82,31.12,.3,5.39,.32,10.63-5.44,13.76-.67,.37-.55,2.37-.63,3.62-.99,15.55-1.83,31.1-3.02,46.63-.19,2.48-1.85,4.87-2.91,7.26-1.69,3.82-1.63,7.08,1.49,10.47,4.38,4.77,6.66,10.54,6.28,17.25-.37,6.5,.77,12.78-3.46,19.1-4.72,7.06-10.36,11.49-18.5,12.6-8.23,1.13-16.56,1.52-24.8,2.62-7.92,1.05-15.93-7.02-17.94-13.17-1.11-3.39-2.29-6.86-4.15-9.85-.92-1.48-3.39-2.58-5.27-2.8-11.04-1.27-22.12-2.23-33.18-3.3-.99-.1-2-.13-2.96-.38-3.73-.98-6.8-1.85-10.97,.67-4.43,2.67-10.33,2.53-15.07-1.54-.68-.59-2.57-.45-3.51,.06-4.64,2.51-6.21,1.72-9.14-2.89-1.01-1.58-4.29-1.73-6.7-2.13-6.31-6.37-4.23-13.17,.93-20.32-9.2-.87-17.44-1.35-25.58-2.54-5.7-.83-11.21-2.91-16.89-3.89-2.36-.41-4.97,.89-7.46,.92-3.47,.03-6.66-.3-9.79,2.32-1.77,1.48-5.08,1.83-7.59,1.59-8.56-.83-17.1-2.02-25.6-3.33-4.36-.67-9.54-.7-12.74-3.13-5.67-4.31-10.7-8.23-18.37-8.96-4.04-.39-8.1-4.45-11.38-7.63-2.02-1.95-2.59-5.39-4.12-8.86-2.51,.27-5.97,.57-9.42,1.01-6.56,.83-12.57-4.26-12.83-10.86-.99-25.41,1.57-50.46,7.76-75.12,1.2-4.79,2.22-9.68,4.02-14.24,2.53-6.42,7-8.48,13.52-6.38,5.07,1.63,9.21,1.81,13.83-1.91,5.9-4.74,13.26-3.33,20.2-2.33,3.53,.51,6.56,1.64,9.69-2.17,1.61-1.97,6.18-2.49,9.24-2.13,11.36,1.31,22.65,3.25,33.92,4.95,1.86-3.66,3.73-7.11,5.37-10.68,1.16-2.54,.77-4.52-2.54-5.04-2.45-.39-5.18-.47-7.22-1.66-3.13-1.82-5.94-4.3-8.56-6.83-1.35-1.31-2.39-3.22-2.93-5.04-2.65-8.97-13.25-12.52-14.73-22.8-6.3,4.93-12.13,9.52-17.98,14.08-1.04,.81-2.14,1.57-3.25,2.3-7.61,4.96-14.75,9.97-19.05,18.77-3.73,7.63-12.45,8.61-19.99,9.01-21.44,1.12-42.93,1.33-64.39,2.27-24.1,1.05-48.22,1.98-72.25,4.02-8.75,.74-17.21,4.61-25.85,6.88-18.28,4.79-36.16,3.77-53.62-3.79-7.8-3.38-15.77-6.35-24.78-9.95,2.79,14.71,5.11,28.06,7.89,41.31,4.28,20.44,8.85,40.81,13.36,61.2,.35,1.57,.87,3.25,1.81,4.5,4.6,6.1,5.55,16.26,1.84,21.87-3.66,5.52-16.51,11.18-23.6,8.49-3.07-1.17-6.07-2.49-9.24-3.8-2.27,4.84-4.51,9.63-6.76,14.41-9.21,19.6-23.52,34.07-43.84,41.81-12.53,4.77-25.41,8.72-38.34,12.27-4.99,1.37-10.61,1.17-15.87,.72-19.85-1.72-39.66-3.98-59.51-5.74-7.45-.66-13.78,1.3-20.51,5.93-7.8,5.37-17.63,9-27.04,10.55-13.34,2.2-27.1,1.91-40.69,2.46-6.08,.25-12.23,.4-18.26-.24-6.08-.64-12.19-1.85-18.05-3.6-25.71-7.65-48.37-20.89-68.22-38.81-4.55-4.11-9.84-3.74-14.9-4.38-16.25-2.05-31.03-7.6-43.33-18.4-15.45-13.57-23.36-30.45-18.87-51.41,1.1-5.12,3.96-9.83,5.63-14.85,1.31-3.92,2.04-8.04,3.1-12.39-13.75-3.36-23.46-11.33-33.37-19.22-5.07-4.04-11.32-6.59-17.03-9.82-1.43-.81-3.37-1.34-4.14-2.58-4.74-7.58-10.34-14.78-10-24.56,.11-3.13-.46-6.37-5.68-5.88-7.19,.68-12.09-4.16-13.93-11.38-6.13-24.02-2.5-47.84,1.29-71.63,.96-6,3.59-11.72,4.57-17.72,1.05-6.44,5.28-6.04,10.23-5.92-1.27,5.98-2.82,11.7-3.64,17.53-1.4,9.96-3.06,19.96-3.28,29.98-.29,13.45,.53,26.93,1.19,40.38,.57,11.81,5.23,12.65,16.68,11.54,0-7.11,.2-14.21-.08-21.28-.14-3.65-2.89-8.76-1.36-10.56,2.65-3.11,2.22-6.06,2.54-9.17,1.38-13.56,2.29-27.18,4.05-40.69,1-7.72,3.04-15.34,5.19-22.84,.48-1.68,3.37-2.66,5.63-4.32l1.2,4.46c7.42-1.57,11.71,2.09,13.82,8.89,.66-.42,1.09-.54,1.13-.74,1.99-9.88,6.46-11.62,16.15-13.04,10.66-1.57,20.89,2.82,31.42,.23,2.82-.69,6.25,1.28,9.43,1.88,1.52,.29,3.11,.25,4.39,.35v8.6c-18.91,.8-37.59,1.6-56.27,2.39l.07,2.39c4.13,0,8.29,.37,12.37-.07,14.1-1.52,28.17-1.86,42.25-.04,4.44,.57,7.26,4.44,7.1,9.36-.1,3.33-.43,6.66-.27,9.98,.24,4.95-2.33,7.02-6.83,7.22-14.73,.66-29.46,1.29-44.2,1.83-3.74,.14-7.33,.33-10.71,3.71,17.74,0,34.54,0,51.34,0,1.5,0,3.21-.54,4.44,.02,1.83,.83,4.38,2.16,4.76,3.73,1.72,7.09,2.91,14.32,4.04,21.55,1.4,8.95,2.56,17.94,3.83,26.91,.49,3.47,1.15,6.59-4.4,6.48-8.42-.16-16.86,.43-25.3,.68-1.78,.05-3.55,0-5.33,0v1.51h33.15c-.25,1.59-.25,2.71-.61,3.69-2.51,6.83-.74,12.46,3.9,17.93,3.09,3.65,5.12,8.21,7.62,12.36l1.73-.86c-2.41-5.47-4.3-11.24-7.36-16.31-3.05-5.06-1.06-8.96,1.37-12.94,1.56-2.56,4.6-2.05,5.65,.85,.85,2.32,1.18,4.82,1.82,7.21,2.94,10.94,9.11,20.14,15.34,29.4,4.01,5.97,6.36,13.08,10.58,18.87,5.09,6.99,7.23,16.01,15.07,21.2,3.73,2.47,7.24,4.03,10.9,1.28,3.71-2.79,5.89-6.73,4.05-12.58-1.51,3.42-2.74,6.19-3.96,8.96l-1.05-.4c.56-1.76,1.12-3.51,1.71-5.34-8.31-1.46-12.61-4.85-13.04-12.76-.38-6.88-5.08-9.64-9.72-14.42,.52,2.21,.79,3.36,1.06,4.5-.17,.14-.34,.28-.51,.42-1.07-1.49-3.37-3.45-3.01-4.38,1.8-4.65-1.68-7.53-3.68-10.1-7.15-9.14-12.56-19.02-15.72-30.15-.21-.74-.35-1.51-.34-1.46,5.49,10.31,11.31,21.23,17.13,32.15,.58-.28,1.17-.56,1.75-.84-2.74-5.87-5.49-11.74-8.23-17.61l.53-.12c4.38,6.02,8.75,12.04,13.12,18.05,1.56,2.39,3.13,4.8,4.7,7.2,1.76,6.86,6.51,4.67,10.74,4.02-2.08-4.94-3.92-9.62-6-14.18-5.35-11.71-10.77-23.39-16.31-35.01-.29-.61-1.93-.57-2.95-.84l.19,.12c-3.22-7-6.25-14.1-9.7-20.98-4.36-8.69-9.06-17.22-13.61-25.81l-.1,.11Zm92.13-231.66c-.99,1.06-2.98,2.34-2.79,3.13,1.04,4.55-2.66,5.89-5.13,7.56-3.32,2.25-7.19,3.68-9.72,4.92-1.57-.93-2.48-1.88-2.96-1.7-6.65,2.55-12.27,.46-16.21-4.72-3.69-4.84-6.23-10.55-9.12-15.6-1.57,2.95-1.1,6.29,.21,10.79,2.78,9.55,8.96,14.21,17.79,15.99,9.36,1.89,17.9-1.77,25.18-6.93,3.28-2.32,4.34-7.79,6.27-11.9,.1-.22-1.11-1.06-1.71-1.61,2.37-13.15-4.21-27.19-12.94-27.08,1.11,1.71,1.82,4.26,3.25,4.77,7.91,2.8,6.93,9.76,7.87,15.79,.33,2.14,.02,4.38,0,6.57Zm109.3-22.48c-3.93,1.52-7.76,3.42-11.82,4.47-11.05,2.86-22.48,4.53-33.18,8.3-6.82,2.4-12.89,7.32-18.8,11.78-7.31,5.51-14.1,11.7-21.12,17.6l.96,1.25c10.93-6.86,21.86-13.72,33.61-21.1-3.14,7.27-5.97,13.34-8.38,19.56-1.26,3.26-1.49,7,2.86,8.19,3.62,1,6.35-.27,8.28-4.21,4.48-9.13,10.45-17.61,14.13-27.01,2.54-6.49,7.48-7.15,12.42-8.8,6.26-2.1,12.64-3.85,18.95-5.8,2.13-.66,3.74-1.69,2.11-4.23,3.94,.21,7.88,.65,11.82,.59,12.61-.2,25.23-.24,37.8-1.05,5.14-.33,10.39-1.95,15.18-3.94,5.31-2.21,10.15-5.53,15.72-8.66-.69-3.19-3.88-4.58-7.83-4.29-9.94,.73-19.88,1.48-29.77,2.65-6,.7-11.9,2.19-17.85,3.32,.04,.33,.08,.67,.13,1h40.47c-3.59,5.12-8.07,6.55-12.94,6.89-17.57,1.24-35.15,2.35-52.73,3.51Zm137.08,378.93c4.18,2.73,9.19,4.74,12.35,8.37,5.05,5.8,6.51,13.28,5.15,20.97-1.45,8.2-3.91,15.91-13.01,18.83-3.31,1.06-6.77,1.65-10.14,2.55-3.03,.81-6.03,1.77-9.04,2.66l.32,1.34h12.4c3.87-3.49,4.23-3.54,8.14,.27-5.4,1.51-10.29,2.88-15.18,4.25,2.78,1.58,5.89,1.85,8.81,2.74,1.45,.44,3.62,1.98,3.65,3.08,.21,6.47-5.71,12.77-12.1,13.68-4.36,.62-9.53-.47-12.02,5.53,3.47-.23,6.74-.6,10-.59,1.44,0,2.88,.79,4.32,1.23-.66,1.43-.96,3.31-2.05,4.22-4.68,3.89-9.61,7.47-14.39,11.24-.6,.47-.86,1.37-1.39,2.26,.86,.09,1.28,.27,1.48,.13,15.4-10.19,27.89-22.87,34.76-40.42,3.06-7.83,6.03-15.72,9.47-23.38,1.48-3.3,2.62-6.24,1.61-9.93-1.01-3.66-1.26-7.53-2.21-11.21-1.43-5.51-3.18-10.94-4.79-16.4-.33-.65-.67-1.29-1-1.94-1.88,6.08-3.55,3.01-5.33,2.19-2.69-1.23-5.41-2.4-8.18-3.4-.24-.09-.99,1.21-1.52,1.85-7.73,1.04-15.46,2.08-23.2,3.12,.94,1.73,1.89,2.68,2.64,2.54,6.17-1.11,12.31-2.37,18.42-3.75,.78-.18,1.35-1.33,2.01-2.03Zm313.83,9.84c-1.5,4.59-2.99,9.18-4.54,13.93,1.11,.29,2.48,.65,4.21,1.1,.43-5.2,.85-10.12,1.26-15.04,.44-1.87,.98-3.73,1.32-5.63,2.91-16.16,5.79-32.33,8.67-48.51q2.35-13.19,15.52-10.48c5.33,1.1,7.49,3.48,7.24,8.9-.23,4.97-1,9.91-1.5,14.86-.85,8.4-1.67,16.81-2.5,25.21,2.18-6.48,3.23-13.1,4.17-19.74,.97-6.86,1.63-13.78,2.89-20.58,.35-1.92,2.06-4.75,3.61-5.09,8.17-1.8,11.98,1.33,12.56,9.62,.11,1.65,.05,3.34-.18,4.98-1.53,10.71-3.24,21.4-4.66,32.12-.75,5.66-1.03,11.38-1.52,17.07l1.51,.2c3.79-22.19,7.59-44.37,11.52-67.37,8.55,6.75,16.72,8.14,24.59,1.44,3.33-2.83,5.45-6.9,3.7-12-8.22,7.02-12.49,7.56-18.01,2.55-3.65-3.31-3.89-9.26-.58-14.4-1.39-1.45-2.75-2.88-4.65-4.87-2.02,3.25-4.34,5.97-5.5,9.12-1.16,3.16-1.17,6.74-1.73,10.44-12.97-1.85-25.46-3.48-37.89-5.48-4.22-.68-8-1.61-8.63,4.34-6.3-.68-12.38-.69-18.1-2.12-6.41-1.6-10.62,.08-13.82,5.62-.63,1.09-2.94,2.52-3.15,2.33-3.63-3.28-6.38-.45-8.57,.95-2.31-1.47-4.11-2.61-5.91-3.76-1,1.76-2.41,3.4-2.93,5.29-1.93,7.01-3.82,14.05-5.24,21.17-1.73,8.73-2.97,17.56-4.42,26.35,6.08-12.01,3.07-26.16,9.51-39.53,4.85,10.49-1.78,19.57,.05,29.7,3.29-10.14,3.08-20.38,10.03-28.31,3.47,11.53-1.76,22.43-2.42,33.6-.68,11.45-1.2,22.9-1.79,34.35l1.39,.33c.29-1.17,.77-2.33,.82-3.51,.08-1.61-.41-3.25-.23-4.84,.99-8.61,1.7-17.27,3.27-25.77,2.16-11.72,4.62-23.41,7.7-34.92,1.89-7.07,4.71-8.25,11.95-7.17,5.02,.76,10.03,1.63,15.01,2.59,3.05,.59,3.91,2.66,3.3,5.59-.91,4.35-1.81,8.71-2.52,13.1-1.05,6.43-2.03,12.88-2.86,19.35-.98,7.6-3.73,15.06-1.94,22.89Zm-370.25,39.51h0c5.68-1.53,11.37-3.05,16.83-4.52-2.69-3.94-7.59-6.81-12.4-5.97-10.76,1.88-21.5,3.93-32.15,6.33-14.53,3.28-28.95,7.04-43.46,10.43-12.76,2.98-25.63,5.45-38.33,8.66-8.6,2.18-9.85,4.61-9.07,13.25-1.64-3.05-3.05-6.21-4.45-9.37-.73-1.65-.98-4.19-2.21-4.8-4.44-2.19-4.37-6.4-5.25-10.15-1.03-4.36-1.85-8.78-2.43-13.21-.26-2.05,.29-4.21,.41-5.66-2.08-3.17-5.09-6.05-5.93-9.46-1.18-4.76-.81-9.91-1-14.9-.88-22.99,2.3-45.51,9.24-67.34,3.67-11.56,9.06-22.57,13.72-33.95,11.56,6.55,16,6.99,19.9,3-3.38-.35-7.52,.03-10.98-1.34-3.64-1.44-6.62-4.55-10.43-7.32-23.18,37.75-28.49,80.44-22.9,125.69-1.81-1.66-3.37-3.52-3.59-5.52-3.09-27.88-1-55.69,4.82-82.87,3.18-14.83,10.8-28.72,16.52-42.99,.97-2.42,2.85-2.98,5.28-1.55,2.57,1.5,5.27,2.77,7.91,4.13-5.71-6.79-11.98-12.67-18.52-18.24-.97-.82-3.84-.83-4.78,0-5.75,5.02-11.31,10.28-16.66,15.73-1.58,1.61-2.61,4.46,.56,5.71,3.46,1.36,3.58,3.9,3.57,6.84-.02,12.77,.02,25.54,.01,38.31,0,1.51-.2,3.03-.31,4.54h-.66c-.43-4.73-.85-9.46-1.28-14.19l-.82,.03v84.02c-5.18,.02-7.12-2.08-6.84-6.77,.25-4.14-.1-8.32-.21-12.48-.56-21.31-1.2-42.62-1.64-63.93-.1-4.83,.19-9.89,6.97-10.36,.21-.01,.38-.66,.62-1.11q-10.64-.05-10.63-10.86c0-1.17,.05-2.34,0-3.5-.16-3.3,1.12-4.93,4.68-4.72,2.3,.13,4.63-.32,6.95-.51-.05-.3-.1-.59-.15-.89-3.03-.83-6.06-1.66-9.05-2.48,2.12-2.24,3.59-3.57,4.78-5.1,2.48-3.21,4.46-6.89,7.3-9.71,4.55-4.51,9.64-8.49,14.51-12.69-3.09-4.96-5.92-9.51-8.8-14.13-3.45,3.99-6.55,7.6-9.67,11.19-15.41,17.77-23,38.66-23.93,61.92-.75,18.78-.47,37.6-1.19,56.39-.48,12.47-4.23,24.11-12.24,33.98-1.73,2.14-4.2,3.68-6.32,5.5,3.43-.09,6.33-1.42,9.36-1.79,2.2-.27,5.94,0,6.61,1.29,3.72,7.12,12.32,5.22,17.22,9.92,.57,.55,2.24,.01,3.39-.12,1.57-.18,3.14-.45,4.39-.64-.52,3.18-2.3,6.77-1.18,8.56,3.61,5.78,8.17,10.99,12.57,16.25,4.47,5.35,9.98,10,13.59,15.85,5.15,8.36,10.36,16.48,18.07,22.82-3.73,1.8-7.2,3.83-10.91,5.2-9.79,3.61-19.55,7.31-30.4,5.91-7.57-.98-15.19-1.75-22.81-1.97-7.47-.21-14.31-4.68-22-2.92-.45,.1-1.02-.04-1.47-.23-8.47-3.6-16.95-7.18-25.38-10.89-1.96-.86-3.65-2.31-5.58-3.25-7.96-3.87-14.69-9.29-21.44-16.07,2.51-.58,4.23-.98,5.96-1.38,20.11-4.65,30.19-21.91,18.81-41.06-4.97-8.36-12.19-14.43-19.77-20.11-7.78-5.82-7.9-5.66-4.73-14.89,1.02-2.97-1.34-5.54-4.41-6.2-4.57-.98-9.28-2.19-13.34-4.39-4.8-2.59-8.98-6.34-14.59-10.43,.84,1.99,.97,2.81,1.43,3.31,5.44,5.94,11.03,11.75,16.37,17.78,1.99,2.24,3.45,4.95,5.15,7.44-.45,.49-.91,.98-1.36,1.47-2.71-.87-5.42-1.74-8.13-2.61,1.77,1.75,3.77,2.9,5.78,4.04,12.32,6.98,24.56,13.97,32.73,26.23,6.69,10.05,8.27,25.3-3.8,32.03-5.34,2.97-11.58,4.55-17.59,6.03-5.07,1.25-10.39,1.45-15.93,2.16,11.25,13.73,27.49,24.43,37.19,25.18-8.67-6.46-17.97-13.4-27.28-20.34l.91-1.64c33.59,30.42,73.54,39.9,117.56,36.75-3.68,1.14-7.37,2.29-11.4,3.54,.55,1.04,.95,1.8,1.68,3.18-3.01,.42-5.74,1.1-8.48,1.15-10,.17-20.05,.8-29.97-.05-6.97-.6-13.78-3.25-20.62-5.13-1.89-.52-3.6-1.66-5.46-2.33-21.63-7.8-41.37-18.76-58.3-34.5-3.99-3.71-8.35-5.73-14.17-6.14-12.65-.89-24.95-3.81-35.79-10.98-3.57-2.36-7.1-4.77-11.5-7.73,.82,1.4,1.01,1.87,1.31,2.24,12.88,15.74,31.03,20.48,49.88,22.8,5.93,.73,10.2,2.63,14.42,6.41,11.56,10.36,24.21,19.2,38.33,25.76,2,.93,4.62,.82,6.32,2.06,9.38,6.85,20.44,10.34,31.34,11.51,15.61,1.67,31.53,.54,47.32,.46,2.51-.01,5-.88,7.52-1.23,3.95-.55,8.65,.16,11.69-1.77,3.72-2.36,7.12-4.17,11.5-4.89,2.8-.46,5.28-2.73,7.96-4.07,4.13-2.07,8.13-5.04,12.51-5.85,10.83-1.99,21.84-2.96,31.31-4.16,2.91,1.42,4.77,3.04,6.73,3.16,12.33,.78,24.69,1.23,37.03,1.76,.62,.03,1.27-.24,1.87-.46,2.13-.81,4.22-1.77,6.38-2.47,1.75-.57,3.59-.87,5.39-1.29-.06-.45-.12-.9-.18-1.35h-30.76c-.04-.43-.08-.85-.13-1.28,12.64-2.3,25.18-4.97,37.09-10.26-5.79,.93-11.58,1.87-17.37,2.8-.08-.4-.16-.8-.25-1.19,1.18-.42,2.33-.97,3.54-1.25,9.8-2.25,19.63-4.36,29.41-6.69,7.46-1.78,9.85-4.77,8.96-12.37-.98-8.39-2.44-16.74-4.09-25.03-1.28-6.42-5.01-8.56-11.34-7.18-3.69,.8-7.36,1.66-11.04,2.49Zm300.74-303.96c1.77-2.68,1.27-5.11-.51-7.65-3.33-4.74-6.5-9.6-9.66-14.46-.68-1.04-1.05-2.28-1.56-3.43-.5,.48-1.01,.96-1.51,1.44,4.43,8.01,8.85,16.03,13.28,24.04,1.12,6,1.94,12.07,3.42,17.97,2,7.94,.15,14.7-4.92,20.9-1.07,1.31-2.25,3.09-2.23,4.64,.06,4.07,.75,8.14,1.19,12.29-1.63-1.06-3.41-2.22-5.19-3.39-29.24,7.26-59.42,6.2-89.46,10.68,.96,1.61,1.45,3.13,2.48,4.04,4.84,4.31,6.69,9.73,6.47,16.05-.16,4.62-.95,9.35-.2,13.83,.7,4.2-.19,7.43-2.33,10.78-2.85,4.47-5.65,8.98-8.2,13.62-1.91,3.49-.57,5.87,3.39,6.17,2.97,.22,5.99-.28,8.95-.04,7.43,.6,14.88,1.14,22.24,2.25,9.3,1.39,18.42,4.45,28,2.12,.55-.13,1.24,.48,1.89,.57,3.28,.41,6.56,.86,9.86,1.11,6.21,.47,12.43,.76,18.64,1.23,2.64,.2,5.26,.6,7.88,1.03,6.58,1.08,13.14,3.04,19.72,3.13,6.92,.1,14.06,6.13,21.38-1.71,1.65,4.53,3.18,7.94,4.13,11.51,1.74,6.57-2.68,10.57-9.24,8.86-10.73-2.8-21.46-5.71-32.32-7.94-7.01-1.44-14.25-1.75-21.38-2.57,10.22,3.18,20.64,5.04,30.85,7.7,7,1.82,13.75,4.65,20.53,7.27,1.16,.45,1.85,2.09,2.76,3.18-.35,.41-.7,.82-1.06,1.23-1.33-.73-2.64-1.51-4-2.18-2.81-1.38-5.56-2.97-8.5-4.01-16-5.66-32.85-7.08-49.51-8.88-19.12-2.07-38.37-3.3-57.6-3.88-22.59-.68-45.24-.94-67.62,3.36-16.16,3.11-32.43,3.26-48.71,1.26-6.72-.82-13.29-2.51-19.35-7.63,4.96,1.93,8.96,4.12,13.24,5.06,22.04,4.81,43.94,2.09,64.91-4.57,15.9-5.05,27.09-17.51,36.01-31.53,.77-1.21,.58-3.15,.53-4.74-.07-2.08-.46-4.15-.7-6.23-1.35,3.22-1.44,7.26-3.17,10.38-2,3.61-5.44,6.42-8.26,9.58l-.4-.33c2.79-3.81,5.57-7.62,8.36-11.42-.42-.37-.85-.73-1.27-1.1-6.1,6.21-12.21,12.41-18.31,18.62l-.65-.64c3.51-4.64,7.03-9.29,10.54-13.93-.34-.27-.68-.54-1.02-.81-3.05,2.91-6.11,5.82-9.16,8.72l-.31-.27c3.75-5.7,7.51-11.39,11.26-17.09-.37-.23-.74-.47-1.1-.7-3.08,3.87-6.13,7.76-9.24,11.6-4.5,5.55-8.87,11.36-16.4,13-18.21,3.96-36.5,7.42-55.29,6.33-2.62-.15-5.54-.26-7.74-1.46-10.65-5.76-21.07-11.95-31.65-17.85-20.56-11.46-40.71-23.86-64.58-27.6-7.24-1.13-14.45-2.47-21.67-3.72-.39,.63-.77,1.27-1.16,1.9,2.26,1.84,4.36,3.92,6.8,5.48,12.31,7.86,24.22,16.3,37.47,22.75,10.95,5.33,21.16,12.19,31.57,18.58,4.39,2.69,8.44,5.93,13.3,9.39-3.65,.97-5.69,1.51-6.32,1.67-7.56-4.97-14.31-9.4-21.05-13.83,4.15,6.93,9.3,12.57,13.59,18.81,2.45,3.56,4.69,5.26,8.81,3.5l-.05-.05c-1.36,1.02-2.71,2.03-4.08,3.06,.71,1.37,1.37,2.53,1.92,3.73,.47,1.02,.83,2.1,1.24,3.15-11.03-13.19-22.37-25.61-37.68-33.81-15.08-8.08-30.72-14.18-47.88-15.58,5.26,1.88,10.6,3.53,15.97,5.03,17.25,4.83,32.5,13.26,45.63,25.41,14.92,13.81,24.22,31.39,32.27,49.64,3.8,8.62,6.58,17.7,9.82,26.57,.27-.05,.54-.11,.81-.16-3.18-15.94-6.37-31.89-9.55-47.83,.46-.09,.91-.19,1.37-.28,.84,3.34,1.82,6.66,2.51,10.04,4.21,20.63,8.76,41.21,12.27,61.97,.92,5.43,6.42,12.87-2.9,17.26l7.41-.56,.76,1.69c-3.01,2.17-6.02,4.34-9.88,7.13,2.61-.33,4.32-.81,5.97-.67,1.44,.12,2.81,.94,4.22,1.45-.83,1.31-1.36,3.09-2.55,3.82-2.08,1.28-4.56,1.91-7.58,3.08,8.53,1.33,9.51,1.19,11.99-2.43,.63,5.57,1.17,10.25,1.7,14.92-.3,.03-.6,.07-.89,.1-.22-.97-.44-1.93-.66-2.9-.53,2.75,.82,5.62,.1,7.81-1.98,6,1.56,6.44,6.2,6.53-1.04,2.5-1.92,4.63-2.84,6.84,6.04,.52,9.2-3.56,12.31-7.01,3.31-3.68,1.94-8.74-2.11-11.57-1.01-.7-1.93-2.16-2.07-3.37-.81-7.16-1.1-14.38-2.12-21.5-.91-6.38-2.55-12.66-3.86-18.98-3.66-17.68-7.28-35.37-10.96-53.04-1.88-9.03-3.85-18.04-5.68-26.6,13.36,5.34,26.4,10.87,39.68,15.78,14.72,5.45,29.62,7.97,45.34,3.19,10.69-3.25,21.76-6.03,32.84-7.09,19.19-1.83,38.53-2.22,57.81-3.11,22.77-1.05,45.57-1.71,68.31-3.18,6.02-.39,13.09-.05,17.62-5.2,3.83-4.35,6.63-9.61,8.91-13-1.8-6.95-4.97-12.83-4.38-18.3,1.24-11.57-5.5-20.28-8.81-30.11-2.18-6.47-7.02-12-10.27-18.16-2.29-4.34-5.72-5.13-10.02-4.65-1.08,.12-2.19-.12-1.83-.1-1.63-2.8-2.67-4.63-3.75-6.43-2.14-3.6-4.58-7.06-6.37-10.83-2.26-4.73-3.76-9.61-4.2-15.07-.39-4.89,.79-8.73,4.02-11.63,4.24-3.8,2.91-8.33,2.61-12.67-.24-3.54-1.4-7.01-2.04-10.54-.67-3.75-.97-7.6-1.95-11.26-.29-1.09-2.36-1.7-3.58-2.57Zm-295.88-4.13c10.3,1.74,20.58,3.23,30.76,5.23,22.28,4.37,44.58,8.72,66.74,13.66,9.34,2.08,18.74,4.78,27.41,8.74,17.54,8.01,31.2,21.75,46.14,33.55,6.39,5.04,12.35,10.61,18.51,15.94l.4-.48c-5.97-6.34-11.94-12.68-18.57-19.72,4.41,2.84,8.03,5.16,11.64,7.48,.28-.38,.57-.75,.85-1.13l-12.5-11.48c.39-.42,.78-.85,1.17-1.27,10.91,9.81,21.82,19.63,32.72,29.44-2.39-3.83-4.92-7.71-8.26-10.69-16.83-15.03-33.52-30.25-51.01-44.49-7.72-6.29-16.63-12.52-26-15.09-23.95-6.54-48.43-11.16-72.76-16.25-16.39-3.43-32.91-6.2-49.29-9.65-2.32-.49-5.03-2.76-6.1-4.92-5.82-11.74-16.83-18.29-27.16-24.01-13.34-7.39-28.64-6.66-42.88-.33-4.1,1.82-8.99,4.48-10.87,8.12-3.12,6.03-7.36,6.76-12.98,6.44-9.23-.52-17.86,1.42-25.31,7.19-6.29,4.87-12.46,9.9-18.71,14.82-1.44,1.13-3.05,2.03-4.47,3.18-1.41,1.14-2.66,2.46-3.99,3.71l.62,1.11c17.04-11.1,33.56-23.74,54.95-19.83-2.75,8-6.52,15.9-8.08,24.21-2.05,10.95-2.34,22.24,3.85,32.42,.97,1.59,2.63,3.7,4.15,3.86,5.27,.54,9.77,3.15,15.78,2.47,20.97-2.37,42.11-3.61,63.22-4.2,9.38-.27,15.91-4.01,17.51-15.62,1.02-7.38,1.67-14.8,2.51-22.44Zm11.26-73.27c-5.26,4.93-9.57,8.8-13.64,12.9-.87,.87-1.34,2.67-1.12,3.88,.12,.66,2.1,1.4,3.23,1.37,13.98-.38,27.96-.85,41.94-1.39,19.63-.77,39.26-1.63,58.9-2.4,1.05-.04,2.11,.34,3.87,.64-3.93,3.65-7.45,6.67-10.65,10.01-1.93,2.01-3.36,4.52-5.02,6.8,3.26,.71,6.56,2.2,9.78,2.02,32.57-1.74,65.13-3.73,97.69-5.71,6.66-.4,13.3-1.06,20.79-1.67-1.2-1.52-1.64-2.6-2.17-2.66-27.82-2.73-55.64-5.38-85.07-8.19,5.36-4.63,9.67-8.17,13.71-11.98,1.16-1.09,1.57-2.99,2.32-4.51-1.46-.54-2.94-1.56-4.39-1.54-7.16,.1-14.31,.53-21.46,.76-24.63,.78-49.27,1.53-73.9,2.25-3.49,.1-6.99,.01-11.85,.01,5.53-4.92,10-8.63,14.14-12.68,2-1.96,3.38-4.56,5.04-6.88-2.78-.55-5.63-1.79-8.33-1.53-24.49,2.36-48.96,4.85-73.41,7.56-18,1.99-35.96,4.3-53.91,6.69-1.49,.2-2.77,2.08-4.14,3.18,1.44,.75,2.87,2.1,4.34,2.14,13.48,.43,26.97,.77,40.46,.87,17.15,.14,34.3,.03,52.86,.03Zm-251.6,419.11c12.86,6.92,22.96,15.57,36.61,17.08,5.23,.58,10.36,2.09,15.59,2.7,9.36,1.09,18.77,1.84,28.16,2.7,8.81,.8,17.57,1,25.7-3.27,1.33-.7,3-2.05,3.17-3.28,.14-1.04-1.64-2.37-2.63-3.53-.94-1.1-2.07-2.06-2.91-3.23-1.74-2.4-2.98-5.29-5.1-7.27-3.79-3.55-8.38-6.26-12.06-9.9-3.31-3.27-7.09-6.9-8.48-11.09-2.64-8-7.84-12.97-14.78-16.8-3.31-1.83-6.52-3.87-9.93-5.5-2.07-.99-4.43-1.99-6.63-1.92-3.14,.11-6.22,1.6-9.37,1.77-5.7,.31-11.44,.09-17.61,.09,6.07,18.82-.61,32.39-19.74,41.45Zm13.56-64.68c14.66,12.14,30.78,8.97,37.19-7.01,2.9-7.22,4.86-15.36,4.87-23.09,.05-26.33,.32-52.63,5.41-78.52,3.31-16.84,8.35-33.2,22.01-45.25,3.99-3.52,7.85-7.25,11.24-11.32,1.64-1.97,2.63-4.9,2.91-7.5,.86-8.03,1.06-16.13,1.9-24.17,.37-3.53,1.67-6.96,2.54-10.44l-1.2-.32c-1.66,6.13-3.29,12.28-4.98,18.4-.95,3.45-.95,7.87-3.15,10.13-9,9.23-18.68,17.8-27.94,26.46-2.98-5.5-5.09-12.43-2.31-20.12,1.07-2.96,2.38-5.92,2.87-8.99,.66-4.11,1.01-8.36,.79-12.51-.19-3.57,.33-6.38,3.01-8.97,3.05-2.95,5.66-6.35,8.46-9.56-.44-.41-.88-.81-1.32-1.22-4.31,3.8-8.77,7.44-12.79,11.51-.87,.88-.77,3.63-.07,4.99,2.27,4.39,1.98,8.49,0,12.83-4.86,10.69-8.08,21.51-1.57,32.78,.24,.42,.41,.97,.36,1.43-.16,1.41-.45,2.8-.95,5.67-9.56-9.71-14.77-20.1-19.02-31.17-.04,12.61,8.12,21.8,13.4,32.31-3.37-3.61-6.56-7.38-8.87-11.62-4.37-8-8.58-16.18-6.92-26.02-1.28,3.98-2.89,8.4-1.66,11.78,4.07,11.12,8.89,22.04,18.4,29.99-7.8,20.89-10.5,42.78-11.6,64.87-.86,17.28-.96,34.61-1.22,51.92-.22,14.43-11.27,25.92-22.79,23.9-1.91-.34-3.83-.65-7.02-1.19Zm120.71-122.9c8.83,2.96,14.47-3.4,13.84-14.57,1.42,2.27,2.83,4.55,3.52,5.65,2.18-3.29,3.88-7.62,7.02-10.16,3.48-2.83,8.26-4.08,12.52-5.92,1.51-.65,3.14-1,4.71-1.52,1.34-.44,2.67-.92,4-1.39-9.06,.39-17.52,2.35-25.05,7.36-1.43,.95-3.35,1.42-5.09,1.58-1.14,.1-3.26-.61-3.36-1.21-.19-1.21,.31-3.06,1.21-3.81,3.19-2.63,6.44-5.38,10.09-7.23,7.46-3.78,15.2-7,23.56-10.79-17.21,2.23-30.71,9.99-41.98,22.04-2.72-4.26-2.8-4.34,.3-7.25,1.92-1.8,4.1-3.33,6.18-4.97,22.3-17.57,47.31-22.19,74.65-15.58,5.27,1.27,10.51,2.65,16.96,4.28-12.91-9.57-28.31-14.3-35.37-29.41,2.89,.75,5.41,1.4,8.71,2.26q-5.32-8.14-14-9.22c-.82-.1-1.61-.52-2.43-.58-4.09-.29-8.18-.52-12.45-.78-.23,2.46-.38,4.14-.58,6.21-2.17-5.26-4.18-10.12-6.69-16.21-2.35,4.05-3.82,6.58-5.29,9.11,.3,.21,.61,.42,.91,.62,1.26-1.15,2.51-2.29,3.81-3.48,6.03,9.48,6.85,19.77,3.51,30.19-1.17,3.67-2.71,2.55-3.36,1.57-1.32-7.78-2.65-15.55-3.97-23.33-.58,.08-1.15,.16-1.73,.25,.3,3.55,.6,7.11,.92,10.8-1.68,.19-3.01,.55-4.3,.44-5.06-.42-8.9,.77-11.32,5.92-1.2,2.54-3.93,4.45-6.19,6.39-8.56,7.38-17.36,14.48-25.79,22.01-8.26,7.38-8.12,7.56-.04,15.25,3.49,3.32,6.94,6.7,10.63,9.79,.86,.72,2.61,.35,3.95,.49-.34-1.27-.5-2.64-1.1-3.78-.43-.82-1.47-1.32-2.23-1.96-5.2-4.35-10.41-8.7-15.68-13.11,6.2-3.79,8.4-4.3,11.07-1.81,5.36,4.98,11.65,9.36,12.52,18.12,1.06-1.37,1.67-2.14,2.52-3.24q-.65,5.49-9.13,10.96Zm644.42,174.86l-.41-1.92c-3.02-.61-6.03-1.32-9.08-1.81-7.74-1.24-15.98-1.12-23.13-3.85-11.5-4.4-20.46-1.78-28.32,6.59-1.64,1.75-3.25,5.58-2.42,7.15,1.45,2.75,4.58,5.93,7.41,6.38,6.13,.98,12.51,.51,18.79,.31,3.78-.12,7.56-1.34,11.31-1.19,8.26,.34,16.51,1.17,24.76,1.93,6.79,.63,13.58,1.27,20.31,2.32,1.39,.22,3.76,2.59,3.54,3.4-1.53,5.7,2.07,9.95,4.27,14.14,2.59,4.92,7.18,8,13.7,6.77,6.52-1.23,13.18-1.77,19.78-2.52,4.84-.55,9.75-1.91,11.4-6.67,1.83-5.3,.38-10.66-4.11-15.57,0,3.07,.76,5.75-.16,7.61-1.9,3.88-3.92,9.24-7.25,10.58-10.11,4.05-16.92-.34-18.06-11.7-.74-7.37-1.19-8.95-8.64-9.64-20.08-1.86-40.21-3.13-60.3-4.85-9.5-.81-18.96-2.12-28.48-3.2v-6.45c4.09,0,8.21-.33,12.26,.06,12.83,1.22,25.62,2.79,38.45,3.99,1.39,.13,2.91-1.2,4.38-1.85Zm-352.08-255.12c-5.47-.99-10.94-2-16.42-2.97-14.37-2.54-28.7-5.36-43.13-7.46-6.56-.95-12.74,1.27-18.14,5.46-11.16,8.66-12.23,31.61,4.44,36.68,8.7,2.65,17.54,4.92,26.41,6.93,5.21,1.18,10.61,1.53,15.92,2.25,.05-.35,.11-.7,.16-1.05-4.56-1.17-9.11-2.35-13.67-3.52l.14-.72,10.21,.71,.1-.72c-6.14-1.46-12.27-2.92-19.57-4.65,6.67-3.19,12.13-6.54,12.62-13.1,.42-5.6-.93-11.33-1.49-16.98,3.33,.38,7.57,.86,13.05,1.48-2.18-1.2-3.3-1.81-4.64-2.55,11.55-.25,22.81,2.45,34.03,.2Zm-303.06-20.39c-12.66,9.71-21.2,39.33-13.36,47.91v-12.36c1.48,3.82,1.26,8.64,6.73,5.68,10.17-5.49,21.09-8.7,32.56-10.15,5.49-.69,12.25-6.8,13.55-12.1,.15-.59,.12-1.36-.15-1.9-2.47-5.03-4.54-10.36-7.67-14.96-3.33-4.89-7.49-9.37-14.03-9.91,9.61,5.58,14.37,12.12,16.81,23.39-6.14,1.04-12.28,2.13-18.43,3.09-.9,.14-2.34,.02-2.77-.56-4.51-5.98-8.86-12.08-13.24-18.13Zm-15.15-4.55c-11.01-8.61-11.1-8.64-25.81-7.35,3.26,1.02,6.59,1.83,9.95,2,5.59,.28,9.75,2.64,12.94,7.21,1.78,2.55,1.69,4.46-1.83,7.31-.6-1-1-2.14-1.66-3.11-4.06-5.99-9.53-8.52-16.95-8.03-2.36,.15-4.84-2.79-7.41-4.01-1.7-.8-3.76-1.68-5.47-1.39-2.01,.34-4.14,1.55-5.64,2.99-6.8,6.49-13.49,13.11-20.04,19.87-3.95,4.08-4.25,8.97-1.27,13.15,2.98,4.17,10.46,6.05,15.33,3.66-.93-1.69-1.86-3.38-2.78-5.05,6.36-7.07,12.59-13.99,18.81-20.91,.03,.74-.44,.95-.81,1.27-5.88,4.89-11.68,9.87-17.66,14.62-1.19,.95-3.07,1.04-4.63,1.53,.43-1.6,.38-3.65,1.38-4.71,4.54-4.82,8.99-9.84,14.19-13.88,9.69-7.53,10.02-7.37,17.69,2.41,2.65,3.38,5.13,4.58,9.34,2.81,3.49-1.47,7.5-2.22,7.98,4.08,2.71-4.4,4.78-8.42,7.48-11.95,2.64-3.44,5.94-6.37,8.95-9.53l-.28-.52c-1.69,.82-3.38,1.64-5.5,2.67-3.73-7.41-10.06-10.08-17.98-10.13-1.39,0-3.3-1.48-4.04-2.8-1.37-2.42-2.08-5.21-3-7.87-2.04-5.89-4.03-11.79-6.04-17.68-.81,1.11-1.01,2.07-.78,2.9,1.97,7.02,4.22,13.97,5.96,21.04,1.26,5.1,3.6,7.93,9.3,7.18,6.65-.87,9.75,3.9,12.86,8.5-4.11-1.53-5.73-7.44-11.08-6.63,2.88,3.53,5.69,6.95,8.49,10.38Zm461.1-88.37c-8.96-9.09-17.53-18.15-26.54-26.74-3.31-3.15-6.07-5.72-2.82-10.44-2.49-1.71-4.62-3.31-6.88-4.68-2.98-1.81-5.62-1.59-7.73,1.59-.91,1.37-2.21,2.46-3.3,3.71-3.05,3.51-2.48,12.46,.12,16.15,3.2,4.52,7.84,2.57,11.74,3.3,6.69,1.26,9.92,3.86,10.74,10.41,.08,.61,.33,1.34,.76,1.73,6.22,5.75,12.4,11.55,18.82,17.07,.94,.81,3.77,.94,4.53,.18,2.93-2.92,5.51-6.22,7.89-9.61,.6-.86,.46-2.98-.22-3.8-.64-.78-2.44-.88-3.71-.79-.88,.06-1.71,.92-3.4,1.92ZM282.23,794.55c1.37-2,3.82-5.3,5.94-8.8,.75-1.23,.7-2.95,1.02-4.45-2.25,.32-4.52,.53-6.69,1.14-.22,.06,.22,2.51,.44,4.71-13.95,20.18-10.23,44.3,1.86,52.02-1.77-3.92-3.65-8.06-5.52-12.2l1.32-.64c.36,.48,.76,.93,1.08,1.43,9.5,15.11,23.09,23.83,40.82,26,1.03,.13,2.6-.02,3.08-.67,.46-.63,.12-2.21-.36-3.11-1.94-3.65-4.09-7.19-6.12-10.79-.46-.82-.77-1.72-1.14-2.55,1.3-.78,2.36-1.4,3.86-2.3-8.41-1.54-13.41-5.84-12.41-10.84,.44-2.22,2.06-5.07,3.93-5.94,2.8-1.3,6.3-1.11,9.32-1.52-2.95-4.98-6.81-7.26-11.27-5.68-1.75,.62-3.02,2.62-4.51,3.98l.19,.37c-1.6,1.09-3.2,2.18-4.83,3.28-4.06-4.29-1.47-9.03,.16-13.58-5.09-1.98-3.98,1.61-4.43,4.04-.55-7.06-.54-13.92-.57-20.78,0-1.14-.21-2.28-.32-3.42-1.13,.39-2.45,.52-3.36,1.21-4.18,3.18-8.25,6.51-11.48,9.08Zm432.94-231.01c1.11-.94,4.35-2.36,4.86-4.44,.82-3.37-2.04-5-5.48-5.5-8.35-1.22-16.67-2.67-25.01-4.04-20.26-3.33-40.52-6.63-60.77-10.01-3.4-.57-6.49-.84-7.17,3.62-.69,4.44,2.07,5.71,5.8,6.32,21.91,3.55,43.8,7.21,65.71,10.78,6.71,1.09,13.45,2,22.06,3.27Zm-482.59,175.06c3.56-2.43,5.93-4.04,8.85-6.04-1.7-.84-2.7-1.78-3.64-1.72-4.52,.3-9.04,1.27-13.54,1.18-2.19-.05-4.8-1.45-6.4-3.06-1.99-2-3.12-4.85-5.06-8.06-.51,1.48-1.02,2.2-.84,2.57,3.11,6.29,6.24,12.58,9.57,18.75,.42,.78,2.08,.82,3.07,1.38,4.12,2.31,8.27,4.58,12.27,7.08,1.62,1.01,2.79,2.73,4.35,3.88,4.67,3.43,9.33,6.91,14.2,10.05,4.54,2.93,8.95,6.08,14.98,5.85,3.16-.12,6.39,1.45,9.58,2.26,2.02-.87,4.59-1.89,7.09-3.06,5.81-2.72,12.58-1.46,18.32-4.75,3.71-2.13,7.91-3.36,11.79-5.22,.99-.47,1.56-1.8,3.12-3.69-7.51,1.34-13.49,2.44-19.48,3.48-6.55,1.13-13.1,2.18-19.66,3.27-13.47,2.24-23.57-5.2-33.73-12.05-5.01-3.38-9.43-7.63-14.84-12.09Zm466.38-326.95l-.43,2.36c5.9,1.39,11.85,2.59,17.68,4.21,15,4.17,30.31,7.57,44.84,13.02,21.68,8.14,42.78,17.8,64.17,26.73,2.85,1.19,6.37,1.21,8.82,2.89,14.2,9.72,28.14,19.82,42.29,29.63,1.26,.87,3.35,.54,5.06,.76-.56-1.88-.71-4.04-1.78-5.56-1.69-2.4-3.82-4.58-6.09-6.46-1.74-1.44-3.87-2.56-6.01-3.31-4.31-1.52-9.17-1.94-13.04-4.15-8.2-4.67-15.54-10.9-23.89-15.23-15.05-7.81-29.41-16.96-45.45-22.96-6.2-2.32-11.33-7.35-18.53-7.6-2.79-.1-5.6-.63-8.34-1.24-10.66-2.38-21.32-4.8-31.93-7.38-3.67-.89-7.14-2.69-10.82-3.41-5.45-1.07-11.02-1.55-16.53-2.28Zm284.38,207.72c5.26-2.95,2.06-6.18,1.05-9.34-3.37-10.56-6.77-21.12-10.08-31.71-1.07-3.44-2.2-6.91-2.75-10.45-.8-5.16-.84-5.66-4.56-8.6,1.33,7.66,2.39,15.67,4.22,23.51,.82,3.52,.23,8.46,6.8,9.62-5.8,1.63-3.12,4.73-2.94,7.61,.32,5.21,1.74,11.49-.53,15.47-4.22,7.4-3.28,13.92-.54,20.84,.87,2.19,2.53,4.75,4.5,5.62,1.66,.73,4.29-.75,6.48-1.27,.8-.19,1.66-.29,2.36-.67,1.56-.86,3.72-1.57,4.34-2.93,.56-1.23-.61-3.24-1.02-4.91,2.97,1.22,4.43,5.41,2.31,8.25-4.12,5.52-2.41,11.69-2.49,17.91,2.28-2.24,4.55-4.61,5.29-7.39,.88-3.29,.42-6.93,.58-10.42,.53-11.57-.12-12.23-11.16-11.16l4.21-3.2c-.19-.42-.37-.85-.56-1.27-1.86,.13-3.71,.26-5.99,.42,2.08-1.42,3.73-2.55,6.23-4.26-2.39-.69-3.59-1.04-5.75-1.67Zm-611.34,54.47h-1.47c0,10.99,.02,21.98-.01,32.96,0,3.12,.55,5.94,4.38,5.84,3.4-.09,4.85-2.4,4.92-5.69,.11-5.82,.2-11.65,.41-17.47,.54-15.62,.98-31.25,1.8-46.86,.32-6.14-.6-9.36-4.15-9.81-3.68-.47-5.69,2.08-5.82,8.61-.22,10.8-.06,21.61-.06,32.41Zm.56,167.29c0-2.81,.64-5.8-.11-8.39-4.34-15.1-17.81-22.12-29.01-30.61-6.7-5.08-16.12-6.72-15.32-18.13-1.03,2.47-2.07,4.94-3.11,7.43-4.48-1.05-9.22-4.4-14.96-1.19,1.41,1.35,2.52,2.41,3.63,3.46,2.63-1.1,5.4-1.92,7.2-.94,5.58,3.01,8.63,7.98,8.83,13.57-2.92-2.98-6.24-6.36-9.56-9.74-.55,.46-1.09,.93-1.64,1.39,.77,1.13,1.5,2.29,2.32,3.4,3.77,5.09,7.63,9.97,4.33,17.07-.96,2.07-.15,4.96-.15,7.81,5.75-3.03,7.83-7.16,8.44-15.71,3.46,4.12,5.9,4.04,10.23-1.17-1.18-.6-2.44-1.26-3.71-1.91,.31-.29,.62-.58,.93-.87,13.28,8.56,26.66,17.02,31.64,34.56Zm246.27-172.84c.43,1.28,.43,1.5,.54,1.58,1.05,.8,2.08,1.64,3.18,2.36,18.82,12.43,31.63,30.01,41.44,49.81,4.83,9.74,8,20.29,12.13,30.4,.57,1.4,2.3,2.33,3.49,3.47,.34-1.59,1.21-3.28,.92-4.75-.92-4.71-2.04-9.4-3.47-13.98-7.48-23.87-20.39-44.37-38.67-61.45-1.38-1.29-3.09-2.23-4.65-3.34l-.35,.59c4.44,5.17,8.88,10.35,13.31,15.52-8.83-6.93-16.49-15.2-27.87-20.22Zm-111.98,144.45l.46,1.75c37.91-7.09,75.97-13.4,113.5-24.14-1.65-1.52-3.67-3.2-5.25-2.86-18.94,4.08-37.84,8.4-56.72,12.79-6.94,1.61-13.77,3.69-20.71,5.34-10.4,2.47-20.85,4.75-31.28,7.11Zm-159.76,5.7c-1.75,1.64-2.93,3.25-4.52,4.14-5.77,3.22-6.68,6.51-3.01,12.08q8.09,12.29,18.88,7.83c5.8-2.4,6.51-4.25,2.5-9.04-4.42-5.29-9.33-10.16-13.84-15Zm710.83-182.04c-.97,3.01-1.51,5.02-2.26,6.94-2.49,6.41-7.21,10.5-13.95,11.32-6.82,.83-13.22-1.4-18.58-5.62-4.42-3.47-8.35-7.57-12.75-11.63,4.48,12.81,18.05,22.74,30.97,22.76,3.54,0,4.9,1,3.83,4.76-.49,1.73,.13,3.78,.29,6.28,10.01-6.53,18.46-22.75,12.46-34.81Zm-534.25-15.15c-2.39-.17-3.47-.57-4.27-.26-9.67,3.82-19.29,7.77-28.93,11.65-3.05,1.22-2.45,3.46-1.78,5.8,.1,.34-.07,.76-.13,1.3-1.17-1.09-2.15-2.01-3.13-2.92l-1.03,.77c2.41,3.91,4.83,7.82,7.56,12.25,10.22-10.17,21.87-17.52,31.72-28.58Zm372.3-93.95c-.16-7.67-8.46-18.23-15.2-19.21-9.8-1.42-19.69-2.29-29.56-3.21-1.71-.16-3.51,.61-5.96,1.08,4.62,7.44,9.1,13.15,17.42,14.23,2.61,.34,5.19,.99,7.77,1.55,8.37,1.81,16.74,3.65,25.54,5.57Zm125.46,153.82c.47,8.17,1.62,9.54,8.58,9.99,3.73,.24,7.48,.04,11.18,.04q.28,9.06,3.01,9.89c2.08-5.79,2.08-5.86,8.92-5.77,6.66,.09,13.31,.39,19.97,.5,2.36,.04,4.73-.21,7.09-.33,.03-.42,.05-.85,.08-1.27-1.68-.45-3.35-1.06-5.06-1.33-6.4-1-12.81-1.88-19.22-2.82q-8.11-1.19-11.22-7.93c-3.87,5.34-18.43,5.05-23.32-.97Zm-591.51-27.18c.47-.28,.94-.57,1.41-.85-.82-1.71-1.57-3.45-2.47-5.11-3.73-6.86-5.38-13.8-1.58-21.29,1.4-2.77,2.09-5.9,3.24-8.82,.98-2.5,.3-3.8-2.4-4.07-1.31-.13-2.62-.34-3.92-.6-3.85-.78-5.49,.71-6.58,4.62-2.76,9.91,.74,18.2,5.7,26.26,2.07,3.37,4.4,6.58,6.61,9.86Zm-100.78,92.89l.23-1.24c-1.23-.43-2.45-1.2-3.7-1.24-6.06-.19-12.13-.18-18.2-.24-6.92-.06-13.85-.12-20.77-.14-.79,0-1.65,.13-2.35,.47-2.2,1.07-4.26,2.45-6.51,3.38-2.26,.93-4.88,1.13-7,2.27-2.8,1.5-3.19,5.19-1.06,6.54,2.26,1.43,9.96,.8,11.63-1.44,3.89-5.24,9.86-6.03,15.35-6.82,7.65-1.1,15.5-.81,23.26-1.12,3.04-.12,6.08-.28,9.13-.42Zm4.56,109.21c11.09,2.35,22.36,.14,33.37-8.03-5.95,.99-10.9,1.33-15.54,2.68-7.62,2.22-13.26,.81-16.62-6.87-.44-1.01-1.46-1.78-2.22-2.66l-.52,1.14c-1.9-.57-3.81-1.14-5.87-1.76,2.34,4.89,4.62,9.68,7.4,15.49Zm.06-313.06c.52,.11,1.03,.21,1.55,.32,1.39-4,2.77-8.01,4.16-12.01-.46-.35-.92-.71-1.38-1.06-2.03,3.83-9.01,.71-8.6,7.22-1.11-.26-2.34-.95-2.82-.61-3.08,2.22-3.39,8.89-.77,14.59,1.12-1.44,2.19-2.82,3.18-4.09,11.58,3.4,15.49,2.64,16.74-3.12-2.8,.84-5.76,2.67-8.34,2.24-2.83-.47-5.31-3.03-7.95-4.68,1.54-2.38,2.54-3.92,4.23-6.55v7.75Zm867.89,309.14c1.62,.76,3.81,1.67,5.85,2.84,.7,.4,1.63,1.78,1.43,2.12-3.55,6.15,2.38,8.48,4.13,12.2,1.48-6.68,2.98-13.19,4.33-19.73,.28-1.34-.04-2.8-.09-4.2-1.56,.15-3.34-.12-4.65,.53-3.69,1.83-7.19,4.04-11.01,6.25Zm-7.49-102.94c-4.24-.6-5.32,1.3-5.03,4.55,.13,1.47,.5,2.97,.35,4.41-1.8,17.36-3.66,34.72-5.53,52.07-.36,3.32-.81,6.63-1.22,9.94,.29,.03,.58,.07,.87,.1,3.5-23.55,7-47.1,10.57-71.08Zm-37.8,71.93l1.51,.1c1.47-11.13,2.88-22.26,4.41-33.38,1.52-11.02,3.16-22.02,4.82-33.49-6.56,3.43-4.9,9.81-5.88,14.81-1.05,5.32-.53,10.93-1.06,16.37-1.15,11.88-2.52,23.73-3.81,35.6Zm-522.75-36.43c.18-.75,.53-1.38,.43-1.92-.76-3.93,.29-6.26,4.72-6.92,6.37-.94,12.67-2.33,18.99-3.62,5.17-1.06,10.32-2.25,15.47-3.38-.02-.6-.04-1.2-.06-1.79-1.59-.36-3.3-1.27-4.77-.98-10.89,2.18-21.77,4.39-32.56,7.01-6.26,1.52-7.1,6.28-2.21,11.6Zm-156.01-184.88c.69-.84,1.56-1.59,2.04-2.53,6.52-12.91,15.44-23.07,30.13-26.88,.87-.22,1.35-1.93,2-2.95-1.14-.47-2.55-1.62-3.38-1.3-3.98,1.55-8.06,3.09-11.62,5.39-10.29,6.63-16.15,16.5-19.17,28.27Zm524.28-4.35c-6.53,7.99-7.27,14.04-3.37,21.85,3.55,7.1,9.43,11.1,17.32,11.44,6.44,.28,14.09-4.65,16.65-10.79-7.73,6.61-15.71,11.19-24.4,5.21-9.3-6.4-11.23-15.83-6.21-27.72Zm42.48,154.14c-4.55,2.86-8.18,10.68-6.77,13.47,3.86,7.65,11.63,11.3,18.48,8.69,5.19-1.98,7.86-6.27,6.67-10.69-4.34,7.42-10.59,10.16-16.01,7.01-6.19-3.59-7.03-8.95-2.37-18.48ZM429.37,403.79c2.85,3.44,5.53,6.32,7.8,9.49,3.22,4.51,9.57,8.17,5.07,15.56,2.65-2.35,5.29-4.7,7.91-7.03-9.66-13.15-14.82-17.77-20.78-18.02Zm-28.56,32.19c-2.73-10.86-2.94-22.42-9.2-32.29,.13,11.59,2.44,22.57,9.2,32.29Zm32.78-15.68c-2.24-8.61-19.35-27.23-23.25-27.07,1.63,4.11,3.06,8.2,7.53,10.5,1.51,.78,2.04,3.4,3.12,5.12,.48,.77,1.25,1.97,1.85,1.95,5.28-.19,7.27,3.37,9.03,7.4,.35,.8,1.14,1.41,1.72,2.1Zm174.95,172.38c.33,.1,.66,.2,.99,.3,1.03-2.35,2.49-4.63,2.93-7.09,.24-1.37-.86-4-1.96-4.4-2.91-1.05-6.13-1.48-9.25-1.55-1.14-.02-3.07,1.51-3.33,2.63-.77,3.33-.88,6.8-1.27,10.44,2.26,.48,3.95,.84,5.64,1.2,.11-.28,.22-.56,.33-.85-1.31-.78-2.61-1.56-3.87-2.32q1.87-7.58,10.29-5.11l-.51,6.74Zm397.58,20.56c-3.36,3.54-2.65,5.37,1.29,7.02,5.84-2.62,10.38-4.82,15.05-6.72,6.31-2.57,8.24-5.07,6.77-10.1-2.45,4.49-5.42,8.01-10.8,7.32-3.94-.5-6.66,.62-8.06,4.53-.35,.99-1.24,1.78-2.67,3.74-.72-2.66-1.16-4.27-1.57-5.8Zm9.53-5.84c7.41,1.52,9.73,.47,12.05-4.72,.78-1.76,1.77-3.43,2.73-5.1,1.74-3.03-.18-7.01-3.66-7.08-1.55-.03-3.11,.79-4.67,1.23,4.19,10.98,3.28,13.47-6.44,15.68Zm-758.58,49.12c-.44-.04-.88-.07-1.32-.11v38.8c.59,0,1.18,0,1.76,0,1.38-12.89,.59-25.79-.44-38.69Zm-17.67-35.16l-1.55-.16-3.32,44.09,2.36,.16c.84-14.7,1.67-29.4,2.51-44.1Zm216.8-198.32l-1.46-1.77c-9.12,4.03-14.54,12.15-20.9,19.24,.38,.43,.77,.86,1.15,1.29,7.07-6.26,14.14-12.51,21.21-18.77Zm78.34,151.15c-.52,.49-1.04,.99-1.56,1.48,3.82,5.64,7.64,11.28,11.47,16.92,.5-.18,.99-.37,1.49-.55,.89-5.92,1.79-11.83,2.68-17.75-.4-.09-.8-.17-1.2-.26-1.02,3.32-2.04,6.65-3.07,9.97-.65,.4-1.3,.81-1.95,1.21-2.62-3.68-5.24-7.35-7.86-11.03Zm-49.3,81.72c-4.28-9.12-8.32-17.73-12.39-26.41-.56,10.51,6.07,25.3,12.39,26.41Zm149.53-68.62c-4.92-.25-10.29-2.11-12.86-.2-2.6,1.93-2.43,7.6-3.58,12.02,3.05,.45,5.05,.74,7.04,1.03-3.54-2.48-5.21-5.8-2.7-8.81,1.44-1.72,5.37-1.37,8.61-2.04v5.87l.68,.09c.8-2.27,1.6-4.54,2.81-7.96Zm337.41,234.7c-.16-2.39-.07-4.31-.56-6.07-.11-.4-2.7-.81-3.34-.26-3.53,2.99-5.88,1.62-8.39-1.41-.63-.76-2.53-.73-3.8-.59-.52,.06-1.43,1.53-1.25,2.05,.37,1.05,1.19,2.47,2.1,2.72,4.67,1.29,9.44,2.25,15.24,3.56Zm-299.19-215.94c4.39-7.61,3.96-8.88-2.68-10.84-5.23-1.55-5.99-1.02-6.78,4.63-.21,1.48-.49,2.95-.69,4.43-.49,3.82,1.54,4.89,5.52,4.7-1.74-1.21-2.99-2.08-4.36-3.04,.86-2.37,1.62-4.49,2.47-6.84,2.38,.34,4.43,.64,6.51,.94v6.02Zm-327.21-153.99c-3.16,.52-5.88,.96-9.14,1.49,5.14,5.61,9.84,10.73,14.53,15.85-.13-6.66-8.79-9.68-5.39-17.35Zm708.54,266.96c.76-.01,1.51-.03,2.27-.04,1.21-1.75,3.58-3.71,3.31-5.19-.32-1.79-2.88-3.18-4.48-4.74-1.54,1.59-4,3.03-4.32,4.83-.26,1.48,2.05,3.41,3.21,5.14Zm-369.32-118c-.6,2.72-1.1,5.24-1.71,7.74-1.37,5.64-.11,6.92,4.67,6.04-.81-2.54-1.98-5.11-2.26-7.78-.08-.74,2.62-2.64,3.78-2.45,1.99,.33,3.78,1.9,5.95,3.11,.28-.71,.92-2.28,1.65-4.12-1.82-.52-3.05-.96-4.31-1.21-2.38-.47-4.79-.83-7.76-1.33Zm-32.69-1.34l1.92,.12c-.22-2.82,.62-7.19-.85-8.2-6.08-4.19-10.01-2.14-11.66,5.12-.18,.81-.4,1.61-.51,2.43-.61,4.52,1.03,5.7,5.74,4.14-1.62-.66-3.24-1.31-4.81-1.94,1.9-8.38,2.22-8.57,10.55-6.34-.12,1.53-.25,3.1-.38,4.68Zm-332.09-34.28c8.61-3.76,12.76,.69,16.33,6.38-1.32-7.1-2.97-8.78-11.08-11.9-.28-1.82-.57-3.65-.85-5.48l-.91-.06c-.97,3.08-1.94,6.16-3.48,11.07Zm202.87-169.55c-8.82-1.17-36.92,6.09-38.79,9.07,12.74-2.98,25.77-6.03,38.79-9.07Zm43.69,377.95c.56-3.45-.97-8.01,3.97-7.52,2.28,.23,4.29,3.11,6.43,4.78-.28,.47-.56,.94-.84,1.41,1.08-.19,2.16-.38,3.29-.58-.03-5.27-3.2-7.92-7.48-8.63-1.93-.32-4.83,1.13-6.24,2.71-1.79,2.02-2.77,5.01,.87,7.83Zm-171.41-140.73c1.02,2.22,2.06,4.49,3.3,7.18,.66-1.45,1.3-2.86,1.93-4.27,.49,.38,.97,.76,1.46,1.14,.63,2.04,1.26,4.08,1.9,6.12,2.15-10.83,1.59-11.4-8.58-10.18Zm566.11,99.01c-.93,1.85-1.29,3.59,2.7,4.27,4.64,.79,9.16,2.31,14.19,3.63,1.11-1.88-.11-3.35-3.16-4.14-4.36-1.12-8.68-2.38-13.73-3.77Zm-563.9-49.2c1.27-1.4,2.27-2.5,3.27-3.6,.99,1.62,1.98,3.23,3.79,6.19-.6-4.08-.06-8.04-1.66-9.3-1.92-1.52-5.66-.75-8.95-1,1.46,3.18,2.48,5.38,3.55,7.72Zm3.69,23.11c.47-.02,.93-.04,1.4-.05,0-2.65,1.02-6.77-.22-7.63-2.37-1.64-6.03-1.42-9.18-1.97,1.33,2.97,2.37,5.26,3.47,7.72,.76-1.04,1.46-2.01,2.58-3.55,.81,2.27,1.38,3.88,1.95,5.49Zm571.57,71.67c1.95-4.72-.3-6.05-3.9-6.86-4.06-.91-8.04-2.18-12.17-3.33-.88,2.84,.56,4.43,4.55,4.77,4.26,.36,8.89,.36,11.53,5.42Zm-16.51,1.05c-1.82,4.01,.14,4.85,2.7,5.52,4.02,1.06,7.99,2.32,12.05,3.51,.67-2.23-.24-3.52-3.29-4.18-2.34-.51-4.42-2.18-6.62-3.33-1.17,.91-2.9,2.28-4.84-1.52Zm10.68,31.64c.95-4.28-2.78-3.86-5.43-4.55-2.77-.72-5.54-1.41-8.77-2.23l-1.37,2.99c5.28,1.28,10.17,2.47,15.57,3.78Zm209.61,54.29c.09-.66,.18-1.33,.26-1.99-4.12-.42-8.29-.53-12.33-1.33-7.99-1.59-9.7-1.89-11.43-.06,8.23,1.18,15.86,2.28,23.5,3.38Zm-207.11-65.59c-1.43-8.09-10.79-3.3-14.42-8.13,1.69,7.62,10.58,3.65,14.42,8.13Zm-10.38-39.67c5.05,1.06,9.72,2.05,14.58,3.07,.04-.37,.36-1.8,.2-1.86-4.86-1.7-9.77-3.26-14.78-4.89v3.67Zm-712.25-51.6h23.58c-7.62-1.64-15.3-2.18-22.99-2.62-.12,0-.32,1.37-.59,2.62Zm153.35-50.52c1.48,2.75,2.55,4.72,3.6,6.67,1.05-9.74-1.04-11.82-9.02-9.45,1.2,2.11,2.44,4.3,3.8,6.68,.41-.99,.77-1.84,1.62-3.9Zm-29.12,102.04c-3.67,5.4-3.05,13.34,1.39,17.28-.47-5.78-.89-11-1.39-17.28Zm643.69-86.54c2.44-10.42,1.7-14.3-2.33-18.22,.76,5.92,1.54,12.07,2.33,18.22Zm-475.47-58.46c-.74-3.28-1.25-5.55-1.98-8.78-2.01,2.99-3.39,5.04-5.17,7.69,2.58,.39,4.42,.68,7.16,1.09Zm421.2,130.18c-.21,.35-.42,.7-.64,1.05,5.33,1.83,10.66,3.67,17.44,6-1.5-1.81-2.14-3.35-3.14-3.64-4.5-1.33-9.1-2.3-13.66-3.41Zm-621-203.01c.5,.07,.99,.14,1.49,.21,1.94-2.94,3.64-5.9,1.52-9.27l-1.58-.2c-.48,3.09-.96,6.17-1.44,9.26Z"/><path class="b" d="M325.79,659.26c-1.3-2.43-2.6-4.87-3.9-7.3l-1.11,.48c1.76,4.49,3.75,8.9,5.24,13.48,3.7,11.27,7.43,22.55,10.57,33.98,.91,3.34,1.43,8.05-3.26,9.75-4.09,1.48-7.57-.89-9.43-6.45-1.67-4.98-2.88-10.17-3.77-15.35-.93-5.39-1.06-10.91-1.87-16.33-.59-3.92-2.19-7.72-2.49-11.64-.44-5.62-.11-11.3,.57-17.03,4.43,5.02,9.44,9.39,9.38,16.52,0,.01,.09-.1,.09-.1Z"/><path class="b" d="M363.44,751.94c-1.57-2.41-3.14-4.81-4.7-7.2-6.03-11.52-12.08-23.04-18.43-35.15,3.65-1.47,6.23-2.5,8.8-3.53l-.19-.12c.11,.81,.04,1.7,.36,2.41,6.31,13.8,12.72,27.55,18.93,41.39,.61,1.35,.08,3.22,.08,5.26-2.05-1.29-3.45-2.17-4.86-3.05Z"/><path class="b" d="M203.82,631.68c-6.12-2.73-3.57-7.22-3.54-10.99,.02-2.63,1.05-5.3,.85-7.89-.35-4.62,1.89-5.83,6.44-5.45-1.24,8.08-2.48,16.11-3.74,24.33Z"/><path d="M1116.78,737.11c-5.09-.53-10.21-.88-15.25-1.71-1.41-.23-2.58-1.9-3.86-2.9,.2-.39,.41-.77,.61-1.16-8.65-1.58-17.31-3.15-25.96-4.73,.11-.6,.22-1.2,.33-1.8,9.13,1.04,18.26,2.09,27.39,3.14,.32,.04,.84,.12,.91,.31,3.02,7.84,10.62,4.29,15.92,6.44-.03,.8-.06,1.61-.09,2.41Z"/><path class="b" d="M371.28,497.67c6.46-7.16,12.94-14.35,19.42-21.53,.33,.32,.66,.65,.99,.97-6.58,6.98-13.15,13.97-19.79,20.89-.11,.11-1.03-.55-.62-.33Z"/><path class="b" d="M343.35,724.83c-1.91-4.58-3.82-9.16-5.73-13.74,.48-.21,.96-.41,1.45-.62,2.03,4.49,4.06,8.97,6.09,13.46l-1.81,.9Z"/><path class="b" d="M1168.6,715.61l11.86,1.49c-.05,.58-.1,1.17-.16,1.75-3.99-.38-7.99-.76-11.98-1.14,.09-.7,.18-1.4,.27-2.1Z"/><path d="M667.48,681.6c-4.12,1.76-6.35,.06-8.81-3.5-4.3-6.23-9.45-11.88-13.59-18.81,6.74,4.43,13.48,8.86,21.05,13.83,.63-.17,2.67-.71,6.32-1.67-4.86-3.46-8.91-6.69-13.3-9.39-10.41-6.39-20.62-13.25-31.57-18.58-13.25-6.45-25.16-14.89-37.47-22.75-2.44-1.56-4.54-3.64-6.8-5.48,.39-.63,.77-1.27,1.16-1.9,7.22,1.24,14.43,2.58,21.67,3.72,23.87,3.74,44.03,16.15,64.58,27.6,10.58,5.9,20.99,12.09,31.65,17.85,2.21,1.19,5.13,1.3,7.74,1.46,18.79,1.1,37.08-2.37,55.29-6.33,7.53-1.64,11.9-7.45,16.4-13,3.11-3.84,6.16-7.73,9.24-11.6,.37,.23,.74,.47,1.1,.7-3.75,5.7-7.51,11.39-11.26,17.09l.31,.27c3.05-2.91,6.11-5.82,9.16-8.72,.34,.27,.68,.54,1.02,.81-3.51,4.64-7.03,9.29-10.54,13.93l.65,.64c6.1-6.21,12.21-12.41,18.31-18.62,.42,.37,.85,.73,1.27,1.1-2.79,3.81-5.57,7.62-8.36,11.42l.4,.33c2.82-3.16,6.26-5.97,8.26-9.58,1.73-3.13,1.82-7.16,3.17-10.38,.25,2.08,.63,4.15,.7,6.23,.06,1.59,.24,3.53-.53,4.74-8.92,14.02-20.11,26.49-36.01,31.53-20.97,6.66-42.87,9.38-64.91,4.57-4.28-.93-8.28-3.12-13.24-5.06,6.06,5.12,12.64,6.8,19.35,7.63,16.28,1.99,32.55,1.84,48.71-1.26,22.38-4.3,45.03-4.05,67.62-3.36,19.23,.58,38.48,1.81,57.6,3.88,16.66,1.8,33.51,3.22,49.51,8.88,2.94,1.04,5.69,2.63,8.5,4.01,1.36,.67,2.67,1.45,4,2.18,.35-.41,.7-.82,1.06-1.23-.91-1.09-1.6-2.73-2.76-3.18-6.77-2.62-13.52-5.45-20.53-7.27-10.21-2.66-20.62-4.52-30.85-7.7,7.13,.82,14.37,1.13,21.38,2.57,10.86,2.23,21.58,5.15,32.32,7.94,6.55,1.71,10.98-2.29,9.24-8.86-.95-3.57-2.48-6.98-4.13-11.51-7.32,7.84-14.46,1.8-21.38,1.71-6.59-.09-13.14-2.05-19.72-3.13-2.61-.43-5.24-.83-7.88-1.03-6.21-.47-12.43-.76-18.64-1.23-3.3-.25-6.58-.7-9.86-1.11-.65-.08-1.34-.7-1.89-.57-9.58,2.33-18.71-.73-28-2.12-7.36-1.1-14.82-1.65-22.24-2.25-2.96-.24-5.99,.26-8.95,.04-3.97-.3-5.31-2.68-3.39-6.17,2.55-4.64,5.35-9.15,8.2-13.62,2.14-3.35,3.03-6.58,2.33-10.78-.74-4.48,.05-9.21,.2-13.83,.22-6.31-1.63-11.73-6.47-16.05-1.03-.92-1.52-2.43-2.48-4.04,30.04-4.48,60.22-3.42,89.46-10.68,1.78,1.16,3.56,2.32,5.19,3.39-.45-4.15-1.14-8.21-1.19-12.29-.02-1.55,1.16-3.33,2.23-4.64,5.07-6.2,6.91-12.96,4.92-20.9-1.48-5.9-2.3-11.97-3.42-17.97l-.07,.09c1.25,.83,3.32,1.44,3.61,2.53,.99,3.66,1.28,7.51,1.95,11.26,.63,3.52,1.8,7,2.04,10.54,.29,4.35,1.62,8.88-2.61,12.67-3.23,2.9-4.42,6.74-4.02,11.63,.44,5.45,1.94,10.34,4.2,15.07,1.8,3.77,4.23,7.22,6.37,10.83,1.07,1.81,2.12,3.63,3.75,6.43-.36-.03,.75,.22,1.83,.1,4.31-.48,7.73,.31,10.02,4.65,3.25,6.16,8.09,11.7,10.27,18.16,3.31,9.83,10.05,18.54,8.81,30.11-.58,5.47,2.59,11.34,4.38,18.3-2.28,3.4-5.08,8.65-8.91,13-4.53,5.14-11.6,4.81-17.62,5.2-22.74,1.47-45.54,2.13-68.31,3.18-19.28,.89-38.62,1.28-57.81,3.11-11.08,1.06-22.14,3.84-32.84,7.09-15.72,4.77-30.62,2.25-45.34-3.19-13.28-4.91-26.33-10.44-39.68-15.78,1.83,8.56,3.8,17.57,5.68,26.6,3.68,17.68,7.31,35.36,10.96,53.04,1.31,6.32,2.95,12.6,3.86,18.98,1.02,7.12,1.31,14.35,2.12,21.5,.14,1.21,1.06,2.67,2.07,3.37,4.06,2.83,5.43,7.89,2.11,11.57-3.11,3.45-6.27,7.53-12.31,7.01,.92-2.21,1.8-4.34,2.84-6.84-4.64-.09-8.18-.53-6.2-6.53,.72-2.19-.64-5.06-.1-7.81,.22,.97,.44,1.93,.66,2.9,.3-.03,.6-.07,.89-.1-.53-4.67-1.06-9.34-1.7-14.92-2.48,3.62-3.45,3.76-11.99,2.43,3.02-1.18,5.5-1.81,7.58-3.08,1.18-.73,1.72-2.51,2.55-3.82-1.4-.51-2.78-1.33-4.22-1.45-1.65-.14-3.36,.34-5.97,.67,3.87-2.79,6.88-4.96,9.88-7.13l-.76-1.69-7.41,.56c9.32-4.39,3.82-11.83,2.9-17.26-3.51-20.75-8.05-41.33-12.27-61.97-.69-3.38-1.67-6.69-2.51-10.04-.46,.09-.91,.19-1.37,.28,3.18,15.94,6.37,31.89,9.55,47.83-.27,.05-.54,.11-.81,.16-3.24-8.87-6.02-17.94-9.82-26.57-8.05-18.26-17.35-35.83-32.27-49.64-13.13-12.16-28.39-20.58-45.63-25.41-5.38-1.51-10.71-3.15-15.97-5.03,17.16,1.4,32.8,7.5,47.88,15.58,15.31,8.2,26.65,20.62,37.68,33.81-.41-1.05-.77-2.13-1.24-3.15-.55-1.2-1.21-2.36-1.92-3.73,1.37-1.03,2.73-2.04,4.07-3.07,1.63-1.54,3.27-3.07,4.91-4.6-.22-.49-.45-.97-.67-1.46-1.54,.26-4.11,.11-4.4,.86-.59,1.49,.07,3.48,.21,5.26Zm7.48-.83c-6.53,1.44-7.92,4.46-5.8,9.31,.52,1.2,.43,2.77,1.17,3.75,.94,1.25,2.68,3.06,3.64,2.83,1.29-.31,3.14-2.41,3.06-3.62-.26-4.02-1.29-8-2.07-12.27Z"/><path d="M607.79,833.51c3.68-.83,7.35-1.69,11.04-2.49,6.33-1.37,10.06,.77,11.34,7.18,1.65,8.29,3.12,16.64,4.09,25.03,.88,7.6-1.5,10.59-8.96,12.37-9.78,2.33-19.61,4.44-29.41,6.69-1.21,.28-2.36,.83-3.54,1.25,.08,.4,.16,.8,.25,1.19,5.79-.93,11.58-1.87,17.37-2.8-11.91,5.29-24.44,7.96-37.09,10.26,.04,.43,.08,.85,.13,1.28h30.76c.06,.45,.12,.9,.18,1.35-1.8,.42-3.64,.72-5.39,1.29-2.17,.71-4.25,1.66-6.38,2.47-.6,.23-1.26,.49-1.87,.46-12.35-.52-24.7-.98-37.03-1.76-1.96-.12-3.83-1.75-6.73-3.16-9.47,1.2-20.48,2.17-31.31,4.16-4.38,.81-8.38,3.78-12.51,5.85-2.68,1.34-5.16,3.61-7.96,4.07-4.39,.72-7.79,2.53-11.5,4.89-3.04,1.93-7.74,1.22-11.69,1.77-2.52,.35-5.01,1.21-7.52,1.23-15.79,.08-31.71,1.21-47.32-.46-10.9-1.17-21.96-4.66-31.34-11.51-1.7-1.24-4.32-1.13-6.32-2.06-14.13-6.57-26.77-15.4-38.33-25.76-4.22-3.79-8.5-5.68-14.42-6.41-18.85-2.32-36.99-7.05-49.88-22.8-.31-.37-.5-.84-1.31-2.24,4.4,2.96,7.93,5.37,11.5,7.73,10.85,7.17,23.15,10.09,35.79,10.98,5.82,.41,10.18,2.43,14.17,6.14,16.93,15.73,36.67,26.7,58.3,34.5,1.86,.67,3.57,1.81,5.46,2.33,6.84,1.88,13.65,4.53,20.62,5.13,9.92,.85,19.98,.22,29.97,.05,2.74-.05,5.47-.72,8.48-1.15-.73-1.37-1.13-2.14-1.68-3.18,4.03-1.25,7.71-2.39,11.4-3.54-44.02,3.15-83.97-6.33-117.56-36.75l-.91,1.64c9.3,6.94,18.61,13.87,27.28,20.34-9.7-.75-25.94-11.44-37.19-25.18,5.54-.71,10.87-.91,15.93-2.16,6.01-1.48,12.25-3.05,17.59-6.03,12.07-6.73,10.49-21.98,3.8-32.03-8.17-12.27-20.41-19.26-32.73-26.23-2.01-1.14-4.01-2.29-5.78-4.04,2.71,.87,5.42,1.74,8.13,2.61,.45-.49,.91-.98,1.36-1.47-1.7-2.49-3.16-5.2-5.15-7.44-5.35-6.02-10.93-11.84-16.37-17.78-.46-.51-.59-1.32-1.43-3.31,5.61,4.1,9.79,7.84,14.59,10.43,4.06,2.19,8.77,3.4,13.34,4.39,3.06,.66,5.43,3.23,4.41,6.2-3.17,9.23-3.05,9.07,4.73,14.89,7.58,5.68,14.8,11.75,19.77,20.11,11.38,19.15,1.3,36.41-18.81,41.06-1.72,.4-3.45,.8-5.96,1.38,6.74,6.78,13.48,12.2,21.44,16.07,1.93,.94,3.62,2.39,5.58,3.25,8.43,3.71,16.91,7.29,25.38,10.89,.45,.19,1.01,.34,1.47,.23,7.69-1.75,14.53,2.71,22,2.92,7.62,.22,15.24,.99,22.81,1.97,10.85,1.4,20.61-2.3,30.4-5.91,3.71-1.37,7.18-3.39,10.91-5.2-7.71-6.35-12.92-14.46-18.07-22.82-3.61-5.85-9.12-10.5-13.59-15.85-4.4-5.26-8.96-10.47-12.57-16.25-1.12-1.79,.66-5.38,1.18-8.56-1.25,.18-2.81,.46-4.39,.64-1.15,.13-2.82,.66-3.39,.12-4.9-4.7-13.49-2.8-17.22-9.92-.67-1.28-4.41-1.56-6.61-1.29-3.03,.37-5.93,1.71-9.36,1.79,2.13-1.82,4.59-3.36,6.32-5.5,8-9.87,11.76-21.51,12.24-33.98,.72-18.78,.44-37.61,1.19-56.39,.93-23.26,8.52-44.15,23.93-61.92,3.12-3.59,6.22-7.2,9.67-11.19,2.88,4.62,5.71,9.17,8.8,14.13-4.87,4.2-9.96,8.18-14.51,12.69-2.84,2.82-4.82,6.51-7.3,9.71-1.19,1.54-2.66,2.86-4.78,5.1,2.99,.82,6.02,1.65,9.05,2.48,.05,.3,.1,.59,.15,.89-2.32,.19-4.65,.64-6.95,.51-3.56-.21-4.84,1.43-4.68,4.72,.05,1.16,0,2.33,0,3.5q0,10.82,10.63,10.86c-.24,.45-.41,1.1-.62,1.11-6.78,.47-7.07,5.53-6.97,10.36,.43,21.31,1.08,42.62,1.64,63.93,.11,4.16,.46,8.34,.21,12.48-.28,4.69,1.66,6.79,6.84,6.77v-84.02l.82-.03c.43,4.73,.85,9.46,1.28,14.19h.66c.11-1.51,.3-3.03,.31-4.54,.01-12.77-.03-25.54-.01-38.31,0-2.94-.11-5.48-3.57-6.84-3.17-1.24-2.15-4.1-.56-5.71,5.35-5.45,10.91-10.7,16.66-15.73,.94-.82,3.82-.82,4.78,0,6.54,5.56,12.82,11.45,18.52,18.24-2.64-1.37-5.35-2.63-7.91-4.13-2.44-1.42-4.31-.87-5.28,1.55-5.72,14.27-13.34,28.16-16.52,42.99-5.82,27.18-7.9,54.99-4.82,82.87,.22,2,1.78,3.86,3.59,5.52-5.59-45.25-.28-87.94,22.9-125.69,3.8,2.77,6.78,5.87,10.43,7.32,3.45,1.37,7.6,1,10.98,1.34-3.9,3.98-8.34,3.55-19.9-3-4.66,11.37-10.05,22.39-13.72,33.95-6.93,21.83-10.11,44.36-9.24,67.34,.19,4.99-.18,10.14,1,14.9,.85,3.41,3.85,6.29,5.93,9.46-.12,1.45-.67,3.61-.41,5.66,.57,4.44,1.4,8.86,2.43,13.21,.88,3.75,.81,7.95,5.25,10.15,1.23,.61,1.48,3.15,2.21,4.8,1.4,3.16,2.81,6.32,4.45,9.37-.77-8.64,.47-11.07,9.07-13.25,12.69-3.22,25.57-5.69,38.33-8.66,14.51-3.39,28.93-7.15,43.46-10.43,10.65-2.4,21.39-4.45,32.15-6.33,4.81-.84,9.72,2.03,12.4,5.97-5.46,1.46-11.14,2.99-16.83,4.52-6.26,.83-12.51,1.66-18.77,2.48l.35,1.86c6.14-1.45,12.27-2.89,18.41-4.34Zm-10.43,46.83c-.17-.67-.34-1.34-.5-2.01-5.32,1.36-10.64,2.72-15.97,4.09l.38,1.47c5.36-1.18,10.73-2.36,16.09-3.55Zm-133.83,28.81c.09,.5,.18,1.01,.27,1.51,5.59-1.23,11.18-2.45,16.77-3.68-.11-.48-.22-.96-.33-1.44-5.57,1.2-11.14,2.41-16.71,3.61Zm98.19-21.99v.79c5.01-.97,10.03-1.94,15.05-2.91-.11-.49-.22-.99-.33-1.48-4.91,1.2-9.81,2.4-14.72,3.6Z"/><path d="M612.65,525.43c-.84,7.63-1.49,15.06-2.51,22.44-1.61,11.61-8.13,15.35-17.51,15.62-21.11,.6-42.25,1.83-63.22,4.2-6.01,.68-10.51-1.93-15.78-2.47-1.52-.16-3.18-2.26-4.15-3.86-6.18-10.18-5.89-21.47-3.85-32.42,1.55-8.31,5.32-16.21,8.08-24.21-21.39-3.92-37.91,8.72-54.95,19.83l-.62-1.11c1.32-1.24,2.58-2.57,3.99-3.71,1.42-1.15,3.03-2.05,4.47-3.18,6.25-4.92,12.42-9.95,18.71-14.82,7.45-5.77,16.08-7.71,25.31-7.19,5.62,.32,9.86-.42,12.98-6.44,1.89-3.64,6.77-6.3,10.87-8.12,14.25-6.33,29.54-7.06,42.88,.33,10.33,5.72,21.34,12.27,27.16,24.01,1.07,2.17,3.78,4.43,6.1,4.92,16.38,3.45,32.9,6.22,49.29,9.65,24.33,5.09,48.81,9.7,72.76,16.25,9.38,2.56,18.28,8.8,26,15.09,17.49,14.24,34.17,29.46,51.01,44.49,3.34,2.98,5.86,6.86,8.26,10.69-10.91-9.81-21.82-19.63-32.72-29.44-.39,.42-.78,.85-1.17,1.27l12.5,11.48c-.28,.38-.57,.75-.85,1.13-3.61-2.32-7.23-4.65-11.64-7.48,6.63,7.04,12.6,13.38,18.57,19.72l-.4,.48c-6.16-5.33-12.12-10.9-18.51-15.94-14.94-11.79-28.6-25.53-46.14-33.55-8.67-3.96-18.08-6.66-27.41-8.74-22.16-4.95-44.46-9.29-66.74-13.66-10.18-2-20.47-3.5-30.76-5.23Zm-32.34-35.54c18.06,21.28,22.93,31.27,21,43.34-5.58-20.72-14.06-38.43-36.91-43.02-22.94-4.61-38.79,5.24-48.92,25.95,.76-3.55,1.86-6.62,3.3-9.52,1.44-2.9,3.21-5.63,4.84-8.44-10.91,12.29-17.05,26.47-16.14,43.01,.23,4.2,1.78,8.37,3.08,12.43,.39,1.21,1.87,2.71,3.05,2.92,4.88,.86,10.78-5.61,10.48-10.66-.49-8.25-1.5-16.57,3.09-24.3,5.91-9.94,14.44-15.86,25.97-15.54,11.76,.32,21.53,5.8,25.8,17.08,2.3,6.08,1.81,13.28,2.2,20,.2,3.35,.81,5.84,4.53,6.63,3.56,.76,7.14,1.53,10.62,2.61,3.82,1.19,6.31-.09,7.22-3.75,3.55-14.33,3.09-28.49-3.85-41.72-3.91-7.46-9.36-13.92-19.36-17.03Zm-16.53,44.44c.02-7.2-4.47-11.79-11.7-11.95-7.03-.16-12.18,4.95-12.22,12.12-.04,6.86,5.33,12.63,11.87,12.78,7,.15,12.03-5.25,12.06-12.95Z"/><path d="M623.91,452.16c-18.56,0-35.71,.1-52.86-.03-13.49-.11-26.98-.44-40.46-.87-1.47-.05-2.89-1.4-4.34-2.14,1.37-1.1,2.65-2.98,4.14-3.18,17.95-2.39,35.91-4.7,53.91-6.69,24.45-2.71,48.92-5.21,73.41-7.56,2.7-.26,5.55,.98,8.33,1.53-1.66,2.31-3.04,4.91-5.04,6.88-4.14,4.05-8.61,7.77-14.14,12.68,4.86,0,8.36,.09,11.85-.01,24.64-.73,49.27-1.48,73.9-2.25,7.16-.23,14.31-.66,21.46-.76,1.46-.02,2.93,1,4.39,1.54-.75,1.53-1.16,3.42-2.32,4.51-4.05,3.81-8.35,7.34-13.71,11.98,29.43,2.81,57.25,5.46,85.07,8.19,.54,.05,.97,1.14,2.17,2.66-7.49,.61-14.14,1.27-20.79,1.67-32.56,1.98-65.12,3.97-97.69,5.71-3.21,.17-6.52-1.31-9.78-2.02,1.66-2.28,3.08-4.78,5.02-6.8,3.2-3.33,6.73-6.36,10.65-10.01-1.76-.31-2.82-.69-3.87-.64-19.63,.77-39.26,1.64-58.9,2.4-13.98,.54-27.95,1.01-41.94,1.39-1.12,.03-3.11-.72-3.23-1.37-.22-1.21,.25-3.01,1.12-3.88,4.07-4.1,8.38-7.97,13.64-12.9Z"/><path d="M372.31,871.27c19.13-9.06,25.81-22.63,19.74-41.45,6.18,0,11.91,.22,17.61-.09,3.15-.17,6.23-1.67,9.37-1.77,2.2-.07,4.56,.93,6.63,1.92,3.4,1.64,6.61,3.67,9.93,5.5,6.94,3.83,12.13,8.8,14.78,16.8,1.39,4.19,5.17,7.83,8.48,11.09,3.69,3.64,8.27,6.35,12.06,9.9,2.11,1.98,3.35,4.87,5.1,7.27,.85,1.17,1.97,2.13,2.91,3.23,.99,1.16,2.77,2.49,2.63,3.53-.17,1.23-1.84,2.58-3.17,3.28-8.13,4.27-16.9,4.08-25.7,3.27-9.39-.86-18.8-1.61-28.16-2.7-5.23-.61-10.36-2.12-15.59-2.7-13.64-1.5-23.75-10.16-36.61-17.08Z"/><path d="M385.87,806.59c3.19,.54,5.11,.86,7.02,1.19,11.52,2.02,22.57-9.47,22.79-23.9,.26-17.31,.36-34.63,1.22-51.92,1.1-22.09,3.8-43.98,11.6-64.87-9.51-7.95-14.34-18.87-18.4-29.99-1.24-3.38,.38-7.8,1.66-11.78-1.65,9.84,2.56,18.03,6.92,26.02,2.31,4.24,5.5,8,8.87,11.62-5.28-10.51-13.44-19.71-13.4-32.31,4.25,11.07,9.46,21.46,19.02,31.17,.49-2.87,.78-4.26,.95-5.67,.05-.46-.12-1.02-.36-1.43-6.51-11.27-3.29-22.09,1.57-32.78,1.97-4.34,2.26-8.44,0-12.83-.7-1.35-.8-4.11,.07-4.99,4.02-4.07,8.49-7.71,12.79-11.51,.44,.41,.88,.81,1.32,1.22-2.8,3.21-5.41,6.61-8.46,9.56-2.68,2.6-3.21,5.4-3.01,8.97,.22,4.15-.13,8.39-.79,12.51-.49,3.07-1.8,6.03-2.87,8.99-2.78,7.69-.67,14.62,2.31,20.12,9.26-8.66,18.94-17.23,27.94-26.46,2.2-2.26,2.21-6.68,3.15-10.13,1.69-6.13,3.32-12.27,4.98-18.4l1.2,.32c-.88,3.48-2.18,6.91-2.54,10.44-.84,8.03-1.04,16.14-1.9,24.17-.28,2.6-1.27,5.53-2.91,7.5-3.39,4.07-7.26,7.81-11.24,11.32-13.65,12.04-18.69,28.41-22.01,45.25-5.09,25.89-5.36,52.19-5.41,78.52-.02,7.73-1.98,15.87-4.87,23.09-6.41,15.98-22.53,19.15-37.19,7.01Z"/><path d="M978.04,794c-1.78-7.83,.96-15.29,1.94-22.89,.83-6.46,1.81-12.91,2.86-19.35,.72-4.39,1.62-8.74,2.52-13.1,.61-2.93-.25-5-3.3-5.59-4.98-.96-9.99-1.84-15.01-2.59-7.24-1.09-10.05,.09-11.95,7.17-3.08,11.5-5.53,23.2-7.7,34.92-1.57,8.5-2.29,17.17-3.27,25.77-.18,1.58,.31,3.23,.23,4.84-.06,1.18-.53,2.34-.82,3.51l-1.39-.33c.59-11.45,1.11-22.91,1.79-34.35,.67-11.18,5.9-22.07,2.42-33.6-6.95,7.94-6.74,18.17-10.03,28.31-1.83-10.13,4.8-19.21-.05-29.7-6.44,13.37-3.43,27.51-9.51,39.53,1.45-8.79,2.68-17.62,4.42-26.35,1.41-7.12,3.31-14.16,5.24-21.17,.52-1.89,1.93-3.53,2.93-5.29,1.8,1.15,3.6,2.29,5.91,3.76,2.18-1.4,4.93-4.23,8.57-.95,.21,.19,2.52-1.25,3.15-2.33,3.2-5.54,7.4-7.22,13.82-5.62,5.72,1.43,11.8,1.44,18.1,2.12,.63-5.96,4.4-5.02,8.63-4.34,12.43,2,24.92,3.63,37.89,5.48,.56-3.7,.57-7.28,1.73-10.44,1.16-3.14,3.47-5.86,5.5-9.12,1.9,1.99,3.27,3.42,4.65,4.87-3.3,5.14-3.06,11.09,.58,14.4,5.52,5.01,9.79,4.46,18.01-2.55,1.75,5.1-.37,9.17-3.7,12-7.87,6.7-16.04,5.3-24.59-1.44-3.93,23-7.72,45.18-11.52,67.37l-1.51-.2c.49-5.69,.77-11.41,1.52-17.07,1.42-10.72,3.13-21.41,4.66-32.12,.23-1.64,.3-3.33,.18-4.98-.57-8.29-4.38-11.42-12.56-9.62-1.54,.34-3.25,3.17-3.61,5.09-1.26,6.81-1.91,13.72-2.89,20.58-.94,6.64-1.99,13.26-4.17,19.74,.83-8.4,1.66-16.81,2.5-25.21,.5-4.96,1.27-9.9,1.5-14.86,.25-5.41-1.91-7.8-7.24-8.9q-13.18-2.71-15.52,10.48c-2.88,16.17-5.76,32.34-8.67,48.51-.34,1.89-.87,3.75-1.32,5.63-.31,0-.62,0-.93,.01Z"/><path d="M506.58,683.69q8.48-5.47,9.13-10.96c-.85,1.09-1.45,1.87-2.52,3.24-.88-8.76-7.17-13.13-12.52-18.12-2.67-2.49-4.87-1.98-11.07,1.81,5.28,4.41,10.48,8.76,15.68,13.11,.77,.64,1.8,1.14,2.23,1.96,.6,1.13,.75,2.51,1.1,3.78-1.34-.13-3.1,.23-3.95-.49-3.69-3.09-7.14-6.46-10.63-9.79-8.09-7.69-8.23-7.87,.04-15.25,8.43-7.53,17.23-14.63,25.79-22.01,2.26-1.94,4.99-3.85,6.19-6.39,2.42-5.16,6.26-6.35,11.32-5.92,1.29,.11,2.62-.26,4.3-.44-.31-3.7-.61-7.25-.92-10.8,.58-.08,1.15-.16,1.73-.25,1.32,7.78,2.65,15.55,3.97,23.33,.65,.98,2.19,2.1,3.36-1.57,3.34-10.42,2.52-20.71-3.51-30.19-1.3,1.18-2.55,2.33-3.81,3.48-.3-.21-.61-.42-.91-.62,1.47-2.53,2.94-5.06,5.29-9.11,2.52,6.09,4.52,10.95,6.69,16.21,.19-2.07,.35-3.75,.58-6.21,4.27,.26,8.36,.48,12.45,.78,.82,.06,1.61,.47,2.43,.58q8.67,1.09,14,9.22c-3.3-.86-5.82-1.51-8.71-2.26,7.07,15.11,22.47,19.84,35.37,29.41-6.46-1.63-11.7-3.01-16.96-4.28-27.34-6.61-52.35-1.99-74.65,15.58-2.08,1.64-4.26,3.17-6.18,4.97-3.1,2.91-3.03,2.99-.3,7.25,11.28-12.06,24.77-19.82,41.98-22.04-8.36,3.79-16.1,7.01-23.56,10.79-3.66,1.85-6.9,4.6-10.09,7.23-.91,.75-1.41,2.6-1.21,3.81,.1,.6,2.22,1.32,3.36,1.21,1.74-.16,3.66-.63,5.09-1.58,7.53-5.02,15.99-6.97,25.05-7.36-1.33,.46-2.66,.95-4,1.39-1.57,.52-3.21,.87-4.71,1.52-4.26,1.84-9.03,3.09-12.52,5.92-3.14,2.55-4.84,6.87-7.02,10.16-.68-1.1-2.1-3.37-3.52-5.65,.64,11.17-5.01,17.53-13.84,14.57Z"/><path d="M1151,858.55c-1.46,.65-2.99,1.98-4.38,1.85-12.83-1.21-25.62-2.77-38.45-3.99-4.05-.39-8.17-.06-12.26-.06v6.45c9.52,1.09,18.98,2.39,28.48,3.2,20.09,1.72,40.22,2.99,60.3,4.85,7.45,.69,7.9,2.26,8.64,9.64,1.14,11.36,7.94,15.75,18.06,11.7,3.34-1.34,5.35-6.7,7.25-10.58,.91-1.86,.16-4.54,.16-7.61,4.49,4.91,5.94,10.27,4.11,15.57-1.65,4.77-6.56,6.12-11.4,6.67-6.61,.75-13.26,1.29-19.78,2.52-6.52,1.23-11.11-1.84-13.7-6.77-2.2-4.19-5.8-8.45-4.27-14.14,.22-.81-2.15-3.18-3.54-3.4-6.73-1.05-13.52-1.69-20.31-2.32-8.24-.76-16.49-1.59-24.76-1.93-3.75-.15-7.53,1.07-11.31,1.19-6.27,.2-12.66,.67-18.79-.31-2.83-.45-5.96-3.63-7.41-6.38-.83-1.58,.77-5.4,2.42-7.15,7.86-8.37,16.82-10.99,28.32-6.59,7.15,2.74,15.39,2.61,23.13,3.85,3.04,.49,6.05,1.2,9.08,1.81l.41,1.92Z"/><path d="M798.93,603.43c-11.22,2.25-22.47-.45-34.03-.2,1.34,.74,2.46,1.35,4.64,2.55-5.48-.62-9.72-1.1-13.05-1.48,.56,5.66,1.91,11.39,1.49,16.98-.49,6.55-5.94,9.91-12.62,13.1,7.29,1.73,13.43,3.19,19.57,4.65l-.1,.72-10.21-.71-.14,.72c4.56,1.17,9.11,2.35,13.67,3.52-.05,.35-.11,.7-.16,1.05-5.31-.72-10.71-1.07-15.92-2.25-8.87-2.01-17.7-4.28-26.41-6.93-16.66-5.07-15.59-28.02-4.44-36.68,5.4-4.2,11.58-6.41,18.14-5.46,14.43,2.09,28.76,4.92,43.13,7.46,5.48,.97,10.95,1.98,16.42,2.97Zm-57.12-.25c-8.72-.01-14.65,5.39-14.61,13.31,.04,7.91,6.39,14.3,14.17,14.27,7.52-.03,14.13-6.53,14.11-13.85-.02-7.95-6.82-15.07-13.67-13.73Z"/><path d="M495.87,583.04c4.38,6.05,8.73,12.15,13.24,18.13,.43,.57,1.87,.7,2.77,.56,6.16-.96,12.29-2.04,18.43-3.09-2.44-11.27-7.2-17.8-16.81-23.39,6.54,.54,10.7,5.02,14.03,9.91,3.13,4.6,5.2,9.92,7.67,14.96,.26,.53,.29,1.31,.15,1.9-1.3,5.3-8.06,11.41-13.55,12.1-11.47,1.45-22.39,4.66-32.56,10.15-5.48,2.96-5.25-1.86-6.73-5.68v12.36c-7.84-8.58,.7-38.2,13.36-47.91Zm2.07,24.01c.36-.62,.72-1.24,1.07-1.86-2.25-2.76-4.49-5.51-6.74-8.27-.7,.38-1.41,.76-2.11,1.14,.92,2.29,1.44,4.88,2.88,6.78,.95,1.25,3.21,1.51,4.89,2.21Zm-5.68,.15c-1.96-2.39-3.27-3.99-5.04-6.14-1.17,3.37-2.11,6.07-3.39,9.75,3.25-1.39,5.54-2.37,8.43-3.61Zm4.52-18.44l-.91,.79c3.39,3.89,6.78,7.77,10.17,11.66l.48-.42c-3.25-4.01-6.49-8.01-9.74-12.02Z"/><path d="M480.72,578.49c-2.8-3.43-5.6-6.85-8.49-10.38,5.35-.8,6.97,5.1,11.08,6.63-3.12-4.59-6.21-9.37-12.86-8.5-5.71,.75-8.04-2.08-9.3-7.18-1.74-7.07-4-14.02-5.96-21.04-.23-.83-.03-1.79,.78-2.9,2.01,5.9,4,11.8,6.04,17.68,.92,2.66,1.64,5.45,3,7.87,.75,1.32,2.65,2.79,4.04,2.8,7.93,.06,14.26,2.73,17.98,10.13,2.12-1.03,3.81-1.85,5.5-2.67l.28,.52c-3.01,3.16-6.31,6.09-8.95,9.53-2.71,3.53-4.77,7.55-7.48,11.95-.48-6.3-4.48-5.55-7.98-4.08-4.21,1.77-6.68,.57-9.34-2.81-7.67-9.77-7.99-9.94-17.69-2.41-5.19,4.04-9.65,9.07-14.19,13.88-1,1.06-.95,3.11-1.38,4.71,1.56-.49,3.43-.58,4.63-1.53,5.98-4.75,11.78-9.73,17.66-14.62,.38-.31,.84-.52,.81-1.27-6.23,6.92-12.45,13.84-18.81,20.91,.92,1.67,1.85,3.36,2.78,5.05-4.87,2.38-12.36,.5-15.33-3.66-2.98-4.17-2.69-9.07,1.27-13.15,6.55-6.75,13.24-13.37,20.04-19.87,1.5-1.43,3.63-2.65,5.64-2.99,1.71-.29,3.77,.59,5.47,1.39,2.57,1.22,5.05,4.16,7.41,4.01,7.42-.49,12.89,2.04,16.95,8.03,.66,.97,1.06,2.12,1.66,3.11,3.52-2.85,3.61-4.76,1.83-7.31-3.2-4.57-7.35-6.92-12.94-7.21-3.36-.17-6.69-.98-9.95-2,14.71-1.29,14.8-1.26,25.81,7.35Z"/><path d="M941.82,490.13c1.69-1,2.52-1.87,3.4-1.92,1.26-.08,3.06,.01,3.71,.79,.68,.82,.82,2.94,.22,3.8-2.38,3.39-4.96,6.69-7.89,9.61-.76,.76-3.59,.63-4.53-.18-6.42-5.52-12.6-11.32-18.82-17.07-.43-.4-.68-1.13-.76-1.73-.82-6.55-4.05-9.15-10.74-10.41-3.9-.73-8.54,1.22-11.74-3.3-2.61-3.69-3.17-12.64-.12-16.15,1.09-1.25,2.39-2.35,3.3-3.71,2.11-3.17,4.75-3.39,7.73-1.59,2.26,1.37,4.39,2.97,6.88,4.68-3.25,4.72-.49,7.29,2.82,10.44,9.01,8.59,17.58,17.65,26.54,26.74Z"/><path d="M282.23,794.55c3.23-2.57,7.29-5.9,11.48-9.08,.9-.69,2.23-.82,3.36-1.21,.11,1.14,.31,2.28,.32,3.42,.03,6.86,.01,13.72,.57,20.78,.45-2.43-.66-6.02,4.43-4.04-1.63,4.55-4.22,9.29-.16,13.58,1.62-1.1,3.23-2.19,4.83-3.28l-.19-.37c1.49-1.37,2.76-3.36,4.51-3.98,4.46-1.58,8.32,.7,11.27,5.68-3.02,.42-6.51,.22-9.32,1.52-1.87,.87-3.49,3.72-3.93,5.94-.99,5,4,9.3,12.41,10.84-1.5,.89-2.55,1.52-3.86,2.3,.37,.83,.68,1.73,1.14,2.55,2.03,3.6,4.18,7.14,6.12,10.79,.48,.9,.82,2.48,.36,3.11-.48,.64-2.05,.79-3.08,.67-17.73-2.17-31.31-10.89-40.82-26-.32-.5-.72-.95-1.08-1.43l-1.32,.64c1.88,4.14,3.75,8.29,5.52,12.2-12.09-7.72-15.81-31.85-1.86-52.02-.22-2.2-.67-4.65-.44-4.71,2.17-.61,4.44-.82,6.69-1.14-.32,1.5-.27,3.21-1.02,4.45-2.12,3.5-4.57,6.8-5.94,8.8Zm8.17,2.21c-1.11,1.04-2.2,1.75-2.86,2.74-6.53,9.73-5.5,24.18,1.43,33.7,7.39,10.16,18.47,13.89,29.23,18.35,1.23,.51,2.86,.07,5.22,.07-5.55-8.52-10.61-16.35-17.95-22.72-3.75-3.26-8.58-6.4-8.78-12.54-.11-3.38-.69-6.75-1.1-10.49-1.21,6.3-4.96,1.08-8.06,3.05,1.09-4.65,1.92-8.19,2.86-12.16Zm-10.52,3.59l-.8-.18v21.66c-.23,0-.46,0-.69,0,.5-7.16,.99-14.32,1.49-21.48Z"/><path d="M715.17,563.54c-8.61-1.27-15.35-2.18-22.06-3.27-21.91-3.57-43.8-7.23-65.71-10.78-3.74-.61-6.49-1.87-5.8-6.32,.69-4.47,3.77-4.19,7.17-3.62,20.25,3.38,40.51,6.69,60.77,10.01,8.33,1.37,16.65,2.82,25.01,4.04,3.44,.5,6.3,2.13,5.48,5.5-.51,2.08-3.75,3.5-4.86,4.44Z"/><path d="M232.58,738.6c5.41,4.46,9.83,8.71,14.84,12.09,10.16,6.86,20.26,14.3,33.73,12.05,6.55-1.09,13.11-2.15,19.66-3.27,5.99-1.03,11.97-2.13,19.48-3.48-1.55,1.89-2.13,3.21-3.12,3.69-3.88,1.86-8.08,3.1-11.79,5.22-5.74,3.29-12.51,2.03-18.32,4.75-2.5,1.17-5.07,2.19-7.09,3.06-3.19-.81-6.42-2.38-9.58-2.26-6.03,.23-10.44-2.92-14.98-5.85-4.87-3.14-9.52-6.62-14.2-10.05-1.56-1.15-2.73-2.86-4.35-3.88-4-2.5-8.15-4.77-12.27-7.08-.99-.55-2.65-.6-3.07-1.38-3.33-6.17-6.46-12.46-9.57-18.75-.18-.37,.33-1.09,.84-2.57,1.94,3.21,3.08,6.06,5.06,8.06,1.6,1.61,4.21,3.02,6.4,3.06,4.5,.1,9.01-.88,13.54-1.18,.94-.06,1.94,.88,3.64,1.72-2.93,2-5.29,3.61-8.85,6.04Z"/><path d="M698.96,411.65c5.52,.73,11.08,1.21,16.53,2.28,3.69,.72,7.16,2.52,10.82,3.41,10.61,2.58,21.27,4.99,31.93,7.38,2.74,.61,5.55,1.15,8.34,1.24,7.2,.25,12.33,5.29,18.53,7.6,16.05,6,30.4,15.15,45.45,22.96,8.35,4.33,15.69,10.55,23.89,15.23,3.87,2.21,8.73,2.64,13.04,4.15,2.14,.75,4.28,1.87,6.01,3.31,2.27,1.88,4.4,4.06,6.09,6.46,1.07,1.52,1.22,3.69,1.78,5.56-1.71-.22-3.8,.11-5.06-.76-14.15-9.8-28.08-19.91-42.29-29.63-2.45-1.68-5.97-1.69-8.82-2.89-21.39-8.93-42.49-18.59-64.17-26.73-14.53-5.45-29.84-8.85-44.84-13.02-5.83-1.62-11.79-2.82-17.68-4.21l.43-2.36Z"/><path class="b" d="M441.05,529.56c.13,.46,.26,.92,.38,1.37,.4,9.13,.99,18.25,1.08,27.39,.02,2.03-1.2,4.62-2.72,6.03-4.2,3.9-8.85,7.31-13.58,11.13-2.37-4.11-4.61-7.98-6.84-11.84-.36,.23-.72,.47-1.07,.7,.66,1.84,1.3,3.68,1.97,5.51,.74,2.02,1.68,3.98,2.23,6.04,.39,1.45,.26,3.03,.37,4.55-2.07-1.8-2.87-3.61-3.73-5.4-6.73-13.96-6.34-15.68,5.62-25.18,1.56-1.24,3.02-2.6,4.46-3.97,1.42-1.35,2.77-2.79,4.15-4.18-.27-.27-.55-.55-.82-.82-5.48,3.66-10.96,7.32-16.44,10.99,.05-2.51,.49-4.86,1.91-6.08,6.04-5.17,12.32-10.07,18.65-14.89,1.14-.87,2.91-.91,4.39-1.33Z"/><path d="M664.34,784.3c.51-.65,1.26-1.95,1.5-1.86,2.77,1.01,5.5,2.17,8.18,3.4,1.79,.82,3.45,3.9,5.33-2.19,.33,.65,.67,1.29,1,1.94,1.61,5.46,3.36,10.89,4.79,16.4,.95,3.68,1.2,7.55,2.21,11.21,1.02,3.69-.12,6.63-1.61,9.93-3.44,7.67-6.41,15.55-9.47,23.38-6.86,17.55-19.36,30.23-34.76,40.42-.21,.14-.62-.04-1.48-.13,.53-.89,.79-1.79,1.39-2.26,4.78-3.77,9.72-7.35,14.39-11.24,1.1-.91,1.39-2.79,2.05-4.22-1.44-.43-2.88-1.22-4.32-1.23-3.26-.01-6.53,.36-10,.59,2.5-6.01,7.67-4.91,12.02-5.53,6.39-.92,12.31-7.21,12.1-13.68-.04-1.1-2.2-2.64-3.65-3.08-2.92-.89-6.04-1.17-8.81-2.74,4.89-1.37,9.78-2.74,15.18-4.25-3.91-3.81-4.27-3.76-8.14-.27h-12.4l-.32-1.34c3.01-.89,6.01-1.84,9.04-2.66,3.37-.9,6.82-1.49,10.14-2.55,9.11-2.91,11.57-10.63,13.01-18.83,1.36-7.69-.11-15.17-5.15-20.97-3.16-3.63-8.17-5.63-12.35-8.37l.14,.13Z"/><path d="M983.33,619.37c2.17,.63,3.36,.98,5.75,1.67-2.5,1.71-4.15,2.84-6.23,4.26,2.28-.16,4.14-.29,5.99-.42,.19,.42,.37,.85,.56,1.27-1.4,1.07-2.81,2.13-4.21,3.2,11.03-1.08,11.68-.42,11.15,11.16-.16,3.49,.3,7.13-.58,10.42-.74,2.78-3.01,5.15-5.29,7.39,.07-6.22-1.64-12.39,2.49-17.91,2.12-2.84,.66-7.03-2.31-8.25,.41,1.67,1.58,3.68,1.02,4.91-.62,1.36-2.78,2.07-4.34,2.93-.7,.39-1.56,.48-2.36,.67-2.2,.52-4.83,2-6.48,1.27-1.97-.86-3.63-3.42-4.5-5.62-2.74-6.92-3.68-13.44,.54-20.84,2.27-3.99,.86-10.26,.53-15.47-.18-2.88-2.86-5.98,2.94-7.61-6.56-1.16-5.97-6.09-6.8-9.62-1.83-7.83-2.89-15.85-4.22-23.51,3.71,2.93,3.76,3.44,4.56,8.6,.55,3.54,1.67,7.02,2.75,10.45,3.3,10.59,6.7,21.14,10.08,31.71,1.01,3.16,4.21,6.38-1.05,9.34Z"/><path d="M441.05,529.56c-1.48,.42-3.25,.46-4.39,1.33-6.33,4.82-12.6,9.72-18.65,14.89-1.42,1.21-1.86,3.57-1.91,6.08,5.48-3.66,10.96-7.32,16.44-10.99,.27,.27,.55,.55,.82,.82-1.38,1.4-2.73,2.83-4.15,4.18-1.44,1.37-2.9,2.74-4.46,3.97-11.96,9.5-12.35,11.22-5.62,25.18,.86,1.78,1.66,3.59,3.73,5.4-.1-1.52,.02-3.1-.37-4.55-.55-2.07-1.49-4.03-2.23-6.04-.68-1.83-1.32-3.68-1.97-5.51,.36-.23,.72-.47,1.07-.7,2.23,3.87,4.47,7.73,6.84,11.84,4.73-3.81,9.39-7.23,13.58-11.13,1.51-1.4,2.73-3.99,2.72-6.03-.09-9.13-.67-18.26-1.08-27.39,1.24,3.57,2.93,7.05,3.61,10.72,.87,4.71,.91,9.57,1.32,14.37,.47,5.42-1.61,9.01-6.13,12.52-8.46,6.58-16,14.31-24.03,21.45-1.38,1.23-3.26,1.9-4.91,2.83-.74-1.75-2.16-3.51-2.13-5.25,.21-12.61,.19-25.27,1.47-37.79,.36-3.55,4.65-6.77,7.34-9.97,1.57-1.87,3.55-3.39,5.35-5.07,0,0-.16,.16-.15,.16,3.56-2.51,7.2-4.91,10.66-7.54,4.05-3.08,5.21-2.79,7.22,2.2Z"/><path d="M371.99,673.83c0-10.81-.16-21.61,.06-32.41,.13-6.52,2.15-9.08,5.82-8.61,3.55,.45,4.47,3.67,4.15,9.81-.82,15.61-1.26,31.24-1.8,46.86-.2,5.82-.3,11.64-.41,17.47-.06,3.3-1.51,5.6-4.92,5.69-3.83,.1-4.39-2.73-4.38-5.84,.03-10.98,.01-21.97,.01-32.95h1.47Z"/><path d="M527.12,405.19c1.65,2.57,.04,3.61-2.09,4.26-6.31,1.95-12.69,3.7-18.95,5.8-4.93,1.65-9.87,2.31-12.42,8.8-3.68,9.4-9.66,17.89-14.13,27.01-1.93,3.94-4.66,5.2-8.28,4.21-4.34-1.19-4.12-4.93-2.86-8.19,2.41-6.23,5.24-12.3,8.38-19.56-11.75,7.38-22.68,14.24-33.61,21.1l-.96-1.25c7.02-5.9,13.81-12.09,21.12-17.6,5.91-4.45,11.99-9.38,18.8-11.78,10.71-3.77,22.14-5.44,33.18-8.3,4.05-1.05,7.88-2.95,11.82-4.47v-.04Zm-53.78,46.27c6.24-10.7,12.49-21.39,18.7-32.03-6.97,1.28-19.95,21.84-18.7,32.03Z"/><path d="M372.55,841.12c-4.97-17.54-18.36-26.01-31.64-34.56-.31,.29-.62,.58-.93,.87,1.27,.65,2.53,1.3,3.71,1.91-4.33,5.21-6.77,5.3-10.23,1.17-.61,8.55-2.7,12.68-8.44,15.71,0-2.85-.81-5.74,.15-7.81,3.31-7.1-.55-11.98-4.33-17.07-.82-1.1-1.55-2.26-2.32-3.4,.55-.46,1.09-.93,1.64-1.39,3.32,3.38,6.64,6.77,9.56,9.74-.2-5.6-3.25-10.56-8.83-13.57-1.8-.97-4.57-.15-7.2,.94-1.11-1.06-2.22-2.11-3.63-3.46,5.74-3.2,10.48,.15,14.96,1.19,1.04-2.48,2.07-4.95,3.11-7.43-.8,11.41,8.62,13.05,15.32,18.13,11.19,8.49,24.66,15.52,29.01,30.61,.75,2.59,.11,5.59,.11,8.39Z"/><path d="M618.83,668.27c11.38,5.02,19.04,13.28,27.87,20.22-4.44-5.17-8.88-10.35-13.31-15.52l.35-.59c1.56,1.1,3.27,2.05,4.65,3.34,18.28,17.08,31.19,37.58,38.67,61.45,1.43,4.58,2.56,9.27,3.47,13.98,.29,1.47-.58,3.16-.92,4.75-1.19-1.15-2.92-2.07-3.49-3.47-4.12-10.1-7.3-20.66-12.13-30.4-9.81-19.8-22.62-37.37-41.44-49.81-1.1-.73-2.13-1.56-3.18-2.36-.11-.08-.11-.31-.54-1.58Z"/><path d="M506.85,812.72c10.43-2.36,20.88-4.64,31.28-7.11,6.93-1.65,13.77-3.72,20.71-5.34,18.88-4.39,37.77-8.71,56.72-12.79,1.59-.34,3.61,1.34,5.25,2.86-37.53,10.74-75.59,17.05-113.5,24.14l-.46-1.75Z"/><path d="M347.1,818.42c4.51,4.85,9.42,9.72,13.84,15,4.01,4.8,3.31,6.64-2.5,9.04q-10.79,4.46-18.88-7.83c-3.66-5.56-2.75-8.85,3.01-12.08,1.59-.89,2.77-2.5,4.52-4.14Z"/><path d="M1057.93,636.38c5.99,12.05-2.45,28.27-12.46,34.81-.15-2.5-.78-4.55-.29-6.28,1.07-3.76-.28-4.75-3.83-4.76-12.92-.02-26.49-9.94-30.97-22.76,4.41,4.06,8.33,8.16,12.75,11.63,5.37,4.21,11.76,6.45,18.58,5.62,6.73-.82,11.46-4.91,13.95-11.32,.75-1.92,1.29-3.93,2.26-6.94Z"/><path d="M523.68,621.23c-9.85,11.06-21.5,18.41-31.72,28.58-2.74-4.43-5.15-8.34-7.56-12.25l1.03-.77c.98,.92,1.96,1.83,3.13,2.92,.06-.54,.23-.95,.13-1.3-.67-2.33-1.26-4.57,1.78-5.8,9.65-3.88,19.26-7.82,28.93-11.65,.8-.32,1.88,.08,4.27,.26Z"/><path d="M527.13,405.24c17.58-1.16,35.16-2.27,52.73-3.51,4.87-.34,9.35-1.77,12.94-6.89h-40.47c-.04-.33-.08-.67-.13-1,5.95-1.13,11.85-2.61,17.85-3.32,9.89-1.16,19.84-1.92,29.77-2.65,3.95-.29,7.14,1.1,7.83,4.29-5.57,3.13-10.42,6.45-15.72,8.66-4.79,2-10.04,3.61-15.18,3.94-12.57,.81-25.2,.86-37.8,1.05-3.94,.06-7.88-.38-11.83-.6,0-.01,0,.03,0,.03Z"/><path d="M895.98,527.29c-8.8-1.92-17.17-3.76-25.54-5.57-2.58-.56-5.16-1.21-7.77-1.55-8.32-1.08-12.8-6.78-17.42-14.23,2.45-.47,4.25-1.24,5.96-1.08,9.87,.92,19.76,1.78,29.56,3.21,6.75,.98,15.05,11.55,15.2,19.21Zm-44.16-17.81c-.15,.72-.3,1.45-.45,2.17,12.48,7.54,27.32,7.24,41.62,12.29-2.78-6.06-5.9-9.34-11.64-9.89-4.58-.44-9.06-1.87-13.63-2.58-5.28-.82-10.6-1.34-15.9-1.98Z"/><path d="M419.65,427.66c.6,.55,1.81,1.39,1.71,1.61-1.93,4.11-2.99,9.57-6.27,11.9-7.28,5.16-15.82,8.82-25.18,6.93-8.83-1.79-15.01-6.44-17.79-15.99-1.31-4.51-1.78-7.84-.21-10.79,2.89,5.05,5.43,10.76,9.12,15.6,3.94,5.18,9.57,7.27,16.21,4.72,.48-.18,1.39,.76,2.96,1.7,2.53-1.24,6.4-2.67,9.72-4.92,2.47-1.68,6.17-3.02,5.13-7.56-.18-.79,1.81-2.07,2.79-3.13,.61-.02,1.22-.03,1.82-.05Z"/><path d="M1021.44,681.1c4.9,6.02,19.45,6.3,23.32,.97q3.11,6.73,11.22,7.93c6.41,.94,12.82,1.82,19.22,2.82,1.71,.27,3.37,.88,5.06,1.33-.03,.42-.05,.85-.08,1.27-2.36,.12-4.73,.37-7.09,.33-6.66-.11-13.31-.41-19.97-.5-6.84-.09-6.84-.02-8.92,5.77q-2.72-.83-3.01-9.89c-3.69,0-7.45,.2-11.18-.04-6.96-.46-8.11-1.83-8.58-9.99Z"/><path d="M429.93,653.92c-2.21-3.28-4.54-6.49-6.61-9.86-4.96-8.06-8.46-16.34-5.7-26.26,1.09-3.91,2.73-5.39,6.58-4.62,1.29,.26,2.61,.47,3.92,.6,2.7,.26,3.39,1.57,2.4,4.07-1.15,2.91-1.83,6.04-3.24,8.82-3.79,7.49-2.14,14.42,1.58,21.29,.9,1.66,1.65,3.4,2.47,5.11-.47,.28-.94,.57-1.41,.85Z"/><path d="M329.15,746.81c-3.04,.14-6.08,.3-9.13,.42-7.76,.32-15.61,.03-23.26,1.12-5.48,.79-11.46,1.58-15.35,6.82-1.67,2.25-9.37,2.87-11.63,1.44-2.13-1.35-1.74-5.04,1.06-6.54,2.13-1.14,4.74-1.33,7-2.27,2.25-.93,4.31-2.31,6.51-3.38,.7-.34,1.56-.47,2.35-.47,6.92,.02,13.85,.08,20.77,.14,6.07,.05,12.14,.05,18.2,.24,1.24,.04,2.47,.81,3.7,1.24l-.23,1.24Z"/><path d="M333.71,856.02c-2.78-5.81-5.06-10.6-7.4-15.49,2.06,.62,3.97,1.19,5.87,1.76l.52-1.14c.75,.88,1.77,1.64,2.22,2.66,3.36,7.68,9,9.09,16.62,6.87,4.65-1.35,9.59-1.7,15.54-2.68-11.01,8.17-22.28,10.38-33.37,8.03Z"/><path d="M333.77,542.96v-7.75c-1.7,2.63-2.69,4.16-4.23,6.55,2.64,1.65,5.12,4.21,7.95,4.68,2.59,.43,5.55-1.4,8.34-2.24-1.26,5.76-5.16,6.53-16.74,3.12-.99,1.27-2.06,2.65-3.18,4.09-2.62-5.7-2.31-12.37,.77-14.59,.48-.35,1.71,.34,2.82,.61-.41-6.51,6.57-3.39,8.6-7.22,.46,.35,.92,.71,1.38,1.06-1.39,4-2.77,8.01-4.16,12.01-.52-.11-1.03-.21-1.55-.32Z"/><path d="M1201.66,852.09c3.83-2.21,7.32-4.42,11.01-6.25,1.32-.65,3.09-.38,4.65-.53,.04,1.4,.36,2.87,.09,4.2-1.34,6.54-2.85,13.05-4.33,19.73-1.76-3.72-7.68-6.04-4.13-12.2,.2-.34-.74-1.73-1.43-2.12-2.05-1.16-4.24-2.07-5.85-2.84Z"/><path d="M1194.16,749.15c-3.57,23.99-7.07,47.53-10.57,71.08-.29-.03-.58-.07-.87-.1,.41-3.31,.86-6.62,1.22-9.94,1.87-17.35,3.74-34.71,5.53-52.07,.15-1.44-.21-2.94-.35-4.41-.29-3.25,.79-5.15,5.03-4.55Z"/><path d="M1156.36,821.08c1.28-11.86,2.66-23.72,3.81-35.6,.53-5.45,0-11.05,1.06-16.37,.98-5-.68-11.37,5.88-14.81-1.66,11.47-3.3,22.47-4.82,33.49-1.53,11.12-2.95,22.25-4.41,33.38l-1.51-.1Z"/><path d="M633.62,784.65c-4.89-5.32-4.05-10.08,2.21-11.6,10.79-2.62,21.67-4.84,32.56-7.01,1.47-.29,3.17,.62,4.77,.98,.02,.6,.04,1.2,.06,1.79-5.16,1.13-10.3,2.32-15.47,3.38-6.31,1.29-12.62,2.68-18.99,3.62-4.43,.66-5.47,2.99-4.72,6.92,.1,.54-.25,1.17-.43,1.92Z"/><path d="M477.61,599.77c3.02-11.78,8.88-21.64,19.17-28.27,3.56-2.3,7.64-3.84,11.62-5.39,.83-.32,2.24,.83,3.38,1.3-.66,1.02-1.14,2.73-2,2.95-14.68,3.81-23.6,13.97-30.13,26.88-.48,.95-1.35,1.69-2.04,2.53Z"/><path d="M363.44,751.94c1.4,.88,2.81,1.76,4.86,3.05,0-2.04,.53-3.9-.08-5.26-6.21-13.84-12.62-27.59-18.93-41.39-.32-.71-.25-1.6-.36-2.41,1.01,.27,2.66,.23,2.95,.84,5.54,11.62,10.96,23.3,16.31,35.01,2.08,4.56,3.92,9.24,6,14.18-4.23,.64-8.98,2.84-10.74-4.02Z"/><path d="M1001.89,595.41c-5.02,11.89-3.1,21.32,6.21,27.72,8.69,5.98,16.66,1.4,24.4-5.21-2.57,6.14-10.21,11.07-16.65,10.79-7.89-.34-13.77-4.34-17.32-11.44-3.9-7.81-3.16-13.87,3.37-21.85Z"/><path d="M1044.37,749.55c-4.66,9.53-3.82,14.88,2.37,18.48,5.42,3.15,11.68,.41,16.01-7.01,1.19,4.42-1.48,8.71-6.67,10.69-6.85,2.62-14.62-1.04-18.48-8.69-1.41-2.79,2.21-10.61,6.77-13.47Z"/><path d="M429.37,403.79c5.97,.24,11.13,4.87,20.78,18.02-2.62,2.33-5.27,4.68-7.91,7.03,4.5-7.38-1.85-11.05-5.07-15.56-2.27-3.18-4.95-6.06-7.8-9.49Z"/><path d="M400.81,435.98c-6.75-9.72-9.06-20.7-9.2-32.29,6.25,9.86,6.46,21.43,9.2,32.29Z"/><path d="M433.59,420.3c-.59-.7-1.37-1.3-1.72-2.1-1.75-4.02-3.75-7.59-9.03-7.4-.6,.02-1.36-1.19-1.85-1.95-1.08-1.71-1.61-4.34-3.12-5.12-4.47-2.3-5.9-6.39-7.53-10.5,3.9-.15,21.01,18.47,23.25,27.07Z"/><path d="M608.54,592.68l.51-6.74q-8.43-2.47-10.29,5.11c1.26,.75,2.56,1.53,3.87,2.32-.11,.28-.22,.56-.33,.85-1.69-.36-3.38-.72-5.64-1.2,.39-3.64,.51-7.11,1.27-10.44,.26-1.12,2.19-2.65,3.33-2.63,3.11,.07,6.34,.5,9.25,1.55,1.1,.4,2.21,3.03,1.96,4.4-.44,2.46-1.9,4.73-2.93,7.09-.33-.1-.66-.2-.99-.3Z"/><path d="M1006.12,613.24c.42,1.53,.85,3.14,1.57,5.8,1.43-1.96,2.32-2.75,2.67-3.74,1.4-3.91,4.12-5.04,8.06-4.53,5.38,.69,8.35-2.83,10.8-7.32,1.47,5.03-.46,7.53-6.77,10.1-4.66,1.9-9.21,4.09-15.05,6.72-3.94-1.65-4.65-3.48-1.29-7.02Z"/><path d="M1015.65,607.41c9.72-2.21,10.63-4.69,6.44-15.68,1.56-.44,3.13-1.27,4.67-1.23,3.48,.07,5.4,4.05,3.66,7.08-.96,1.67-1.94,3.35-2.73,5.1-2.32,5.19-4.63,6.24-12.05,4.72Z"/><path d="M257.07,656.53c1.03,12.9,1.82,25.8,.44,38.69-.59,0-1.18,0-1.76,0v-38.8c.44,.04,.88,.07,1.32,.11Z"/><path d="M239.4,621.37c-.84,14.7-1.67,29.4-2.51,44.1l-2.36-.16,3.32-44.09,1.55,.16Z"/><path d="M456.2,423.04c-7.07,6.26-14.14,12.51-21.21,18.77-.38-.43-.77-.86-1.15-1.29,6.35-7.09,11.78-15.21,20.9-19.24l1.46,1.77Z"/><path d="M534.54,574.19c2.62,3.68,5.24,7.35,7.86,11.03,.65-.4,1.3-.81,1.95-1.21,1.02-3.32,2.04-6.65,3.07-9.97,.4,.09,.8,.17,1.2,.26-.89,5.92-1.79,11.83-2.68,17.75-.5,.18-.99,.37-1.49,.55-3.82-5.64-7.64-11.28-11.47-16.92,.52-.49,1.04-.99,1.56-1.48Z"/><path d="M485.24,655.92c-6.32-1.11-12.95-15.9-12.39-26.41,4.08,8.69,8.11,17.29,12.39,26.41Z"/><path d="M634.77,587.29c-1.21,3.42-2.01,5.69-2.81,7.96l-.68-.09v-5.87c-3.24,.67-7.16,.31-8.61,2.04-2.51,3-.84,6.33,2.7,8.81-1.99-.29-3.99-.58-7.04-1.03,1.15-4.42,.98-10.09,3.58-12.02,2.57-1.91,7.94-.05,12.86,.2Z"/><path d="M972.17,822c-5.8-1.32-10.56-2.28-15.24-3.56-.91-.25-1.74-1.67-2.1-2.72-.18-.51,.73-1.99,1.25-2.05,1.27-.14,3.17-.17,3.8,.59,2.51,3.03,4.87,4.4,8.39,1.41,.64-.54,3.22-.14,3.34,.26,.49,1.76,.4,3.69,.56,6.07Z"/><path d="M672.98,606.06v-6.02c-2.09-.3-4.13-.6-6.51-.94-.85,2.35-1.61,4.47-2.47,6.84,1.37,.96,2.62,1.83,4.36,3.04-3.98,.19-6.02-.88-5.52-4.7,.19-1.48,.48-2.95,.69-4.43,.79-5.65,1.56-6.18,6.78-4.63,6.64,1.96,7.07,3.23,2.68,10.84Z"/><path d="M419.65,427.66c-.61,.02-1.22,.03-1.82,.05,.02-2.19,.33-4.43,0-6.57-.93-6.03,.05-12.99-7.87-15.79-1.43-.51-2.14-3.06-3.25-4.77,8.73-.11,15.31,13.93,12.94,27.08Z"/><path d="M345.77,452.07c-3.4,7.66,5.26,10.69,5.39,17.35-4.69-5.12-9.39-10.24-14.53-15.85,3.26-.53,5.98-.98,9.14-1.49Z"/><path d="M1054.31,719.03c-1.17-1.73-3.47-3.66-3.21-5.14,.31-1.81,2.78-3.24,4.32-4.83,1.59,1.56,4.15,2.95,4.48,4.74,.27,1.48-2.11,3.44-3.31,5.19-.76,.01-1.51,.03-2.27,.04Z"/><path d="M685,601.03c2.97,.5,5.38,.86,7.76,1.33,1.26,.25,2.49,.69,4.31,1.21-.74,1.84-1.37,3.42-1.65,4.12-2.17-1.21-3.95-2.77-5.95-3.11-1.16-.19-3.86,1.71-3.78,2.45,.28,2.67,1.45,5.24,2.26,7.78-4.78,.88-6.04-.4-4.67-6.04,.61-2.5,1.11-5.02,1.71-7.74Z"/><path d="M652.31,599.69c.13-1.57,.25-3.15,.38-4.68-8.33-2.23-8.65-2.04-10.55,6.34,1.56,.63,3.18,1.29,4.81,1.94-4.71,1.56-6.35,.38-5.74-4.14,.11-.82,.33-1.62,.51-2.43,1.65-7.26,5.58-9.31,11.66-5.12,1.47,1.01,.63,5.38,.85,8.2l-1.92-.12Z"/><path d="M320.22,565.42c1.54-4.91,2.51-7.99,3.48-11.07l.91,.06c.29,1.83,.57,3.67,.85,5.48,8.12,3.13,9.77,4.8,11.08,11.9-3.57-5.68-7.72-10.14-16.33-6.38Z"/><path d="M523.08,395.87c-13.03,3.05-26.06,6.1-38.79,9.07,1.87-2.99,29.97-10.24,38.79-9.07Z"/><path d="M566.77,773.82c-3.64-2.82-2.66-5.81-.87-7.83,1.4-1.58,4.3-3.03,6.24-2.71,4.28,.71,7.46,3.37,7.48,8.63-1.13,.2-2.21,.39-3.29,.58,.28-.47,.56-.94,.84-1.41-2.13-1.68-4.15-4.56-6.43-4.78-4.93-.49-3.41,4.07-3.97,7.52Z"/><path d="M908.57,529.5c-4.43-8.01-8.85-16.03-13.28-24.04,.5-.48,1.01-.96,1.51-1.44,.51,1.15,.88,2.39,1.56,3.43,3.16,4.86,6.33,9.71,9.66,14.46,1.78,2.54,2.29,4.97,.5,7.67-.02,.02,.06-.07,.06-.07Z"/><path d="M395.36,633.08c10.17-1.22,10.73-.65,8.58,10.18-.63-2.04-1.26-4.08-1.9-6.12-.49-.38-.97-.76-1.46-1.14-.64,1.41-1.27,2.81-1.93,4.27-1.23-2.69-2.28-4.95-3.3-7.18Z"/><path d="M961.47,732.09c5.05,1.39,9.37,2.65,13.73,3.77,3.05,.79,4.27,2.26,3.16,4.14-5.04-1.33-9.55-2.85-14.19-3.63-4-.68-3.64-2.43-2.7-4.27Z"/><path d="M397.57,682.89c-1.08-2.34-2.09-4.54-3.55-7.72,3.29,.25,7.03-.52,8.95,1,1.6,1.26,1.06,5.22,1.66,9.3-1.81-2.95-2.8-4.57-3.79-6.19-1,1.1-2,2.2-3.27,3.6Z"/><path d="M401.26,706.01c-.57-1.61-1.14-3.21-1.95-5.49-1.12,1.54-1.82,2.51-2.58,3.55-1.1-2.46-2.14-4.75-3.47-7.72,3.15,.56,6.81,.34,9.18,1.97,1.24,.85,.22,4.98,.22,7.63-.47,.02-.93,.04-1.4,.05Z"/><path d="M664.2,784.16c-.67,.7-1.23,1.85-2.01,2.03-6.11,1.38-12.25,2.64-18.42,3.75-.75,.14-1.7-.81-2.64-2.54,7.73-1.04,15.46-2.08,23.2-3.11,0,0-.13-.12-.13-.12Z"/><path d="M972.83,777.67c-2.64-5.06-7.27-5.06-11.53-5.42-3.99-.34-5.42-1.93-4.55-4.77,4.13,1.15,8.11,2.42,12.17,3.33,3.61,.81,5.86,2.14,3.9,6.86Z"/><path d="M956.32,778.72c1.94,3.81,3.67,2.43,4.84,1.52,2.2,1.15,4.28,2.82,6.62,3.33,3.05,.66,3.96,1.95,3.29,4.18-4.06-1.19-8.03-2.45-12.05-3.51-2.56-.68-4.53-1.51-2.7-5.52Z"/><path d="M966.99,810.37c-5.4-1.31-10.29-2.5-15.57-3.78l1.37-2.99c3.23,.82,6.01,1.51,8.77,2.23,2.64,.69,6.37,.26,5.43,4.55Z"/><path d="M1176.61,864.66c-7.63-1.1-15.26-2.2-23.5-3.38,1.73-1.83,3.43-1.53,11.43,.06,4.04,.8,8.22,.91,12.33,1.33-.09,.66-.18,1.33-.26,1.99Z"/><path d="M969.5,799.07c-3.84-4.48-12.74-.51-14.42-8.13,3.63,4.83,12.99,.04,14.42,8.13Z"/><path d="M959.12,759.4v-3.67c5.01,1.62,9.92,3.19,14.78,4.89,.16,.06-.16,1.49-.2,1.86-4.87-1.03-9.54-2.01-14.58-3.07Z"/><path d="M246.86,707.8c.28-1.25,.47-2.63,.59-2.62,7.68,.44,15.36,.98,22.99,2.62h-23.58Z"/><path d="M400.22,657.29c-.85,2.05-1.21,2.91-1.62,3.9-1.35-2.38-2.59-4.57-3.8-6.68,7.97-2.37,10.07-.29,9.02,9.45-1.05-1.94-2.11-3.91-3.6-6.67Z"/><path d="M371.1,759.33c.51,6.28,.93,11.5,1.39,17.28-4.44-3.95-5.06-11.88-1.39-17.28Z"/><path d="M978.04,794c.31,0,.62,0,.93-.01-.41,4.92-.82,9.85-1.26,15.04-1.73-.45-3.1-.81-4.21-1.1,1.55-4.75,3.04-9.34,4.54-13.93Z"/><path d="M1014.79,672.79c-.79-6.15-1.57-12.3-2.33-18.22,4.03,3.92,4.77,7.79,2.33,18.22Z"/><path d="M539.32,614.33c-2.73-.42-4.57-.7-7.16-1.09,1.78-2.64,3.16-4.7,5.17-7.69,.73,3.24,1.24,5.5,1.98,8.78Z"/><path d="M960.53,744.5c4.56,1.1,9.17,2.08,13.66,3.41,1,.3,1.64,1.84,3.14,3.64-6.78-2.33-12.11-4.16-17.44-6,.21-.35,.42-.7,.64-1.05Z"/><path d="M339.52,541.49c.48-3.09,.96-6.17,1.44-9.26l1.58,.2c2.12,3.37,.41,6.34-1.52,9.27-.5-.07-.99-.14-1.49-.21Z"/><path class="b" d="M674.96,680.77c.78,4.27,1.81,8.25,2.07,12.27,.08,1.22-1.76,3.31-3.06,3.62-.96,.23-2.7-1.59-3.64-2.83-.74-.98-.65-2.55-1.17-3.75-2.12-4.85-.73-7.86,5.8-9.31Z"/><path class="b" d="M667.48,681.6c-.14-1.78-.8-3.77-.21-5.26,.29-.75,2.86-.6,4.4-.86,.22,.49,.45,.97,.67,1.46-1.64,1.53-3.28,3.05-4.91,4.6,0,.01,.06,.07,.06,.07Z"/><path class="b" d="M597.37,880.34c-5.36,1.18-10.73,2.36-16.09,3.55l-.38-1.47c5.32-1.36,10.64-2.72,15.97-4.09,.17,.67,.34,1.34,.5,2.01Z"/><path class="b" d="M463.53,909.15c5.57-1.2,11.14-2.41,16.71-3.61,.11,.48,.22,.96,.33,1.44-5.59,1.23-11.18,2.45-16.77,3.68-.09-.5-.18-1.01-.27-1.51Z"/><path class="b" d="M607.79,833.51c-6.14,1.45-12.27,2.89-18.41,4.34l-.35-1.86c6.26-.83,12.51-1.66,18.77-2.48h0Z"/><path class="b" d="M561.72,887.16c4.91-1.2,9.81-2.4,14.72-3.6,.11,.49,.22,.99,.33,1.48-5.02,.97-10.04,1.94-15.07,2.91v-.79Z"/><path class="b" d="M580.31,489.89c10,3.1,15.45,9.57,19.36,17.03,6.94,13.23,7.4,27.39,3.85,41.72-.91,3.66-3.4,4.94-7.22,3.75-3.47-1.08-7.05-1.86-10.62-2.61-3.72-.79-4.33-3.28-4.53-6.63-.4-6.72,.1-13.92-2.2-20-4.27-11.28-14.04-16.76-25.8-17.08-11.53-.32-20.06,5.59-25.97,15.54-4.59,7.73-3.58,16.04-3.09,24.3,.3,5.05-5.6,11.52-10.48,10.66-1.18-.21-2.67-1.71-3.05-2.92-1.3-4.07-2.85-8.24-3.08-12.43-.91-16.54,5.23-30.72,16.14-43.01-1.63,2.81-3.4,5.54-4.84,8.44-1.44,2.9-2.54,5.97-3.3,9.52,10.13-20.71,25.98-30.56,48.92-25.95,22.85,4.59,31.33,22.31,36.91,43.02,1.93-12.08-2.94-22.07-21-43.34Z"/><path class="b" d="M563.78,534.33c-.03,7.69-5.06,13.1-12.06,12.95-6.55-.14-11.91-5.92-11.87-12.78,.04-7.18,5.2-12.29,12.22-12.12,7.24,.17,11.73,4.76,11.7,11.95Zm-13.92,.17c-1.13,1.74-2.2,3.4-3.27,5.06l.59,.46c1.62-.98,3.24-1.95,4.58-2.76,1.65,1.05,2.98,1.9,4.32,2.75l1.47-.7c-5.07-2.93-3.24-5.76-.62-8.28h-9.15c.37,.61,1.09,1.8,2.1,3.46Z"/><path class="b" d="M741.81,603.18c6.85-1.33,13.65,5.78,13.67,13.73,.02,7.32-6.59,13.82-14.11,13.85-7.78,.03-14.13-6.36-14.17-14.27-.04-7.92,5.89-13.32,14.61-13.31Zm9.55,13.99c-3.66-4.87-13.26-7.41-19.58-4.91,6.43,3.57,12.69,4.65,19.58,4.91Zm-19.42,2.91c1.67,7.78,8.75,10.38,14.8,5.54-6.24,1.17-11,.19-14.8-5.54Z"/><path class="b" d="M497.94,607.05c-1.67-.7-3.94-.96-4.89-2.21-1.44-1.9-1.97-4.48-2.88-6.78,.7-.38,1.41-.76,2.11-1.14,2.25,2.76,4.49,5.51,6.74,8.27-.36,.62-.72,1.24-1.07,1.86Z"/><path class="b" d="M492.26,607.2c-2.89,1.24-5.18,2.22-8.43,3.61,1.28-3.68,2.22-6.38,3.39-9.75,1.77,2.15,3.08,3.75,5.04,6.14Z"/><path class="b" d="M496.78,588.76c3.25,4.01,6.49,8.01,9.74,12.02l-.48,.42c-3.39-3.89-6.78-7.77-10.17-11.66l.91-.79Z"/><path class="b" d="M290.4,796.76c-.93,3.97-1.76,7.5-2.86,12.16,3.09-1.97,6.84,3.25,8.06-3.05,.41,3.73,.99,7.1,1.1,10.49,.2,6.14,5.02,9.28,8.78,12.54,7.34,6.38,12.4,14.21,17.95,22.72-2.36,0-3.99,.44-5.22-.07-10.76-4.46-21.85-8.19-29.23-18.35-6.93-9.53-7.96-23.98-1.43-33.7,.66-.99,1.75-1.69,2.86-2.74Z"/><path class="b" d="M279.88,800.35c-.5,7.16-.99,14.32-1.49,21.48,.23,0,.46,0,.69,0v-21.66l.8,.18Z"/><path class="b" d="M473.34,451.47c-1.25-10.19,11.73-30.75,18.7-32.03-6.21,10.64-12.46,21.34-18.7,32.03Z"/><path class="b" d="M851.82,509.48c5.3,.65,10.63,1.16,15.9,1.98,4.57,.71,9.05,2.14,13.63,2.58,5.74,.55,8.86,3.84,11.64,9.89-14.3-5.05-29.14-4.75-41.62-12.29,.15-.72,.3-1.45,.45-2.17Z"/><path d="M549.86,534.5c-1.01-1.67-1.73-2.85-2.1-3.46h9.15c-2.61,2.53-4.45,5.35,.62,8.28l-1.47,.7c-1.33-.85-2.66-1.7-4.32-2.75-1.33,.8-2.95,1.78-4.58,2.76l-.59-.46c1.07-1.66,2.14-3.32,3.27-5.06Z"/><path d="M751.36,617.18c-6.9-.26-13.16-1.33-19.58-4.91,6.33-2.51,15.92,.04,19.58,4.91Z"/><path d="M731.94,620.09c3.8,5.73,8.56,6.72,14.8,5.54-6.05,4.84-13.12,2.24-14.8-5.54Z"/></svg>