<?xml version="1.0" encoding="utf-8"?>
<!-- Generator: Adobe Illustrator 15.1.0, SVG Export Plug-In . SVG Version: 6.00 Build 0)  -->
<!DOCTYPE svg PUBLIC "-//W3C//DTD SVG 1.1//EN" "http://www.w3.org/Graphics/SVG/1.1/DTD/svg11.dtd">
<svg version="1.1" id="Layer_1" xmlns="http://www.w3.org/2000/svg" xmlns:xlink="http://www.w3.org/1999/xlink" x="0px" y="0px"
	 width="283.68px" height="283.92px" viewBox="0 0 283.68 283.92" enable-background="new 0 0 283.68 283.92" xml:space="preserve">
<g>
	<path d="M196.622,128.814c-3.166-4.126-8.118-6.492-13.587-6.492c-9.646,0-18.866,7.259-21.445,16.885
		c-1.507,5.625-0.493,11.3,2.783,15.569c3.166,4.126,8.117,6.493,13.586,6.493c9.646,0,18.866-7.259,21.445-16.885
		C200.912,138.758,199.897,133.084,196.622,128.814z M189.745,141.795c-1.401,5.232-6.679,9.474-11.786,9.474
		c-5.108,0-8.112-4.242-6.71-9.474c1.401-5.232,6.679-9.473,11.786-9.473C188.144,132.323,191.147,136.563,189.745,141.795z"/>
	<path d="M162.762,207.991c-2.937-0.786-5.95,0.954-6.737,3.888l-1.306,4.869c-0.786,2.935,0.954,5.95,3.888,6.737
		c0.478,0.128,0.957,0.188,1.429,0.188c2.428,0,4.649-1.62,5.309-4.076l1.306-4.869
		C167.436,211.794,165.695,208.778,162.762,207.991z"/>
	<path d="M123.944,200.172l-3.565,4.218c-1.961,2.32-1.669,5.79,0.65,7.751c1.033,0.873,2.293,1.3,3.547,1.3
		c1.563,0,3.116-0.662,4.204-1.949l3.565-4.218c1.961-2.32,1.669-5.79-0.65-7.751C129.375,197.561,125.904,197.853,123.944,200.172z
		"/>
	<path d="M106.521,172.627l-4.869,2.435c-2.717,1.358-3.818,4.662-2.46,7.379c0.964,1.927,2.906,3.041,4.924,3.041
		c0.826,0,1.666-0.187,2.455-0.582l4.869-2.435c2.717-1.358,3.818-4.662,2.46-7.379C112.542,172.37,109.238,171.265,106.521,172.627
		z"/>
	<path d="M18.48,142.335c22.13,1.634,46.341,2.936,68.584,3.851c11.421,0.472,22.847,1.893,34.291,1.1
		c11.556-0.722,22.992-1.927,34.292-4.95c0.558-0.128,0.528-0.968,0-1.1c-5.715-1.578-11.432-2.549-17.146-3.337
		c-11.395-1.481-22.826-2.304-34.292-1.558c-5.715,0.372-11.43,0.81-17.145,1.045c-22.226,0.913-46.479,2.218-68.584,3.85
		c-0.267,0.02-0.487,0.233-0.508,0.508C17.949,142.047,18.176,142.312,18.48,142.335z"/>
	<path d="M34.006,119.047c15.688,1.633,32.851,2.934,48.643,3.85c8.094,0.471,16.195,1.893,24.321,1.1
		c8.283-0.727,16.391-1.955,24.322-4.95c0.497-0.171,0.485-0.926,0-1.1c-4.054-1.578-8.107-2.549-12.161-3.337
		c-8.058-1.476-16.165-2.305-24.321-1.558c-4.054,0.372-8.108,0.81-12.161,1.045c-6.07,0.333-18.259,1.16-24.322,1.65
		c-8.107,0.674-16.214,1.331-24.321,2.2c-0.254,0.027-0.463,0.227-0.492,0.491C33.482,118.743,33.702,119.015,34.006,119.047z"/>
	<path d="M114.658,163.304c-4.054-1.578-8.107-2.549-12.161-3.337c-8.058-1.477-16.165-2.306-24.321-1.559
		c-4.054,0.372-8.108,0.811-12.161,1.045c-6.07,0.333-18.259,1.16-24.322,1.65c-8.107,0.674-16.214,1.331-24.321,2.2
		c-0.254,0.026-0.463,0.227-0.492,0.491c-0.032,0.304,0.188,0.575,0.492,0.608c15.688,1.633,32.851,2.935,48.643,3.851
		c8.094,0.471,16.195,1.893,24.321,1.1c8.283-0.727,16.391-1.955,24.322-4.95C115.155,164.232,115.143,163.478,114.658,163.304z"/>
	<path d="M121.478,108.132l3.565,2.435c0.949,0.648,2.028,0.959,3.097,0.959c1.756,0,3.481-0.839,4.546-2.398
		c1.713-2.508,1.069-5.93-1.439-7.644l-3.565-2.435c-2.507-1.713-5.931-1.069-7.644,1.439
		C118.325,102.997,118.969,106.419,121.478,108.132z"/>
	<path d="M156.083,81.475c0.73,2.36,2.904,3.875,5.252,3.875c0.539,0,1.087-0.08,1.629-0.248c2.901-0.898,4.525-3.979,3.627-6.881
		l-1.306-4.217c-0.898-2.901-3.979-4.522-6.881-3.627c-2.901,0.898-4.525,3.979-3.627,6.881L156.083,81.475z"/>
	<path d="M198.238,75.579c0.478,0.128,0.957,0.189,1.429,0.189c2.428,0,4.649-1.62,5.309-4.077l1.306-4.869
		c0.786-2.934-0.954-5.95-3.888-6.737c-2.934-0.786-5.95,0.954-6.737,3.888l-1.306,4.869
		C193.564,71.776,195.305,74.792,198.238,75.579z"/>
	<path d="M232.853,85.348c1.563,0,3.115-0.662,4.203-1.949l3.565-4.217c1.961-2.32,1.671-5.79-0.649-7.751
		c-2.319-1.962-5.79-1.67-7.751,0.648l-3.565,4.217c-1.961,2.32-1.671,5.79,0.649,7.751
		C230.337,84.921,231.599,85.348,232.853,85.348z"/>
	<path d="M252.022,111.526c0.827,0,1.666-0.187,2.456-0.582l4.869-2.435c2.717-1.358,3.817-4.662,2.459-7.379
		c-1.357-2.718-4.661-3.816-7.379-2.46l-4.869,2.435c-2.717,1.358-3.817,4.662-2.459,7.379
		C248.063,110.413,250.005,111.526,252.022,111.526z"/>
	<path d="M256.888,136.285h-4.869c-3.037,0-5.5,2.462-5.5,5.5c0,3.037,2.463,5.5,5.5,5.5h4.869c3.037,0,5.5-2.463,5.5-5.5
		C262.388,138.748,259.925,136.285,256.888,136.285z"/>
	<path d="M239.523,175.438l-3.564-2.435c-2.51-1.712-5.931-1.068-7.645,1.439c-1.713,2.509-1.068,5.931,1.439,7.645l3.564,2.435
		c0.949,0.647,2.029,0.959,3.098,0.959c1.756,0,3.481-0.84,4.547-2.398C242.676,180.573,242.031,177.151,239.523,175.438z"/>
	<path d="M204.918,202.098c-0.896-2.902-3.979-4.53-6.879-3.629c-2.902,0.897-4.527,3.978-3.629,6.879l1.305,4.218
		c0.729,2.361,2.904,3.876,5.252,3.876c0.538,0,1.086-0.079,1.627-0.247c2.902-0.897,4.527-3.978,3.629-6.879L204.918,202.098z"/>
	<path d="M174.256,165.09c-2.854-0.762-5.783,0.929-6.548,3.78l-7.982,29.789c-0.765,2.853,0.928,5.784,3.78,6.548
		c0.464,0.124,0.929,0.184,1.387,0.184c2.361,0,4.521-1.575,5.161-3.964l7.982-29.789
		C178.801,168.785,177.108,165.854,174.256,165.09z"/>
	<path d="M156.813,153.63c-1.321-2.643-4.533-3.712-7.173-2.392l-29.789,14.894c-2.641,1.32-3.711,4.532-2.391,7.173
		c0.937,1.874,2.825,2.957,4.786,2.957c0.804,0,1.62-0.182,2.387-0.565l29.788-14.894
		C157.063,159.482,158.133,156.271,156.813,153.63z"/>
	<path d="M134.836,117.072l21.807,14.894c0.923,0.63,1.972,0.932,3.011,0.932c1.707,0,3.385-0.816,4.42-2.332
		c1.665-2.438,1.039-5.765-1.399-7.431l-21.807-14.894c-2.44-1.665-5.766-1.038-7.431,1.399
		C131.771,112.08,132.398,115.406,134.836,117.072z"/>
	<path d="M186.744,118.48c0.464,0.125,0.929,0.184,1.387,0.184c2.361,0,4.521-1.575,5.161-3.964l7.982-29.789
		c0.765-2.852-0.928-5.784-3.78-6.548c-2.854-0.765-5.784,0.929-6.548,3.78l-7.982,29.789
		C182.199,114.785,183.892,117.716,186.744,118.48z"/>
	<path d="M236.367,107.875l-29.789,14.894c-2.642,1.321-3.712,4.532-2.392,7.173c0.937,1.874,2.825,2.957,4.786,2.957
		c0.804,0,1.619-0.182,2.387-0.565l29.789-14.894c2.642-1.321,3.712-4.532,2.392-7.173
		C242.22,107.624,239.007,106.554,236.367,107.875z"/>
	<path d="M226.164,166.499l-21.807-14.895c-2.438-1.664-5.765-1.038-7.431,1.399c-1.665,2.438-1.039,5.766,1.399,7.431
		l21.807,14.895c0.923,0.63,1.972,0.932,3.011,0.932c1.707,0,3.385-0.815,4.42-2.331
		C229.229,171.491,228.603,168.164,226.164,166.499z"/>
</g>
</svg>
