<?xml version="1.0" encoding="utf-8"?>
<!-- Generator: Adobe Illustrator 15.1.0, SVG Export Plug-In . SVG Version: 6.00 Build 0)  -->
<!DOCTYPE svg PUBLIC "-//W3C//DTD SVG 1.1//EN" "http://www.w3.org/Graphics/SVG/1.1/DTD/svg11.dtd">
<svg version="1.1" id="Layer_1" xmlns="http://www.w3.org/2000/svg" xmlns:xlink="http://www.w3.org/1999/xlink" x="0px" y="0px"
	 width="283.465px" height="283.465px" viewBox="0 0 283.465 283.465" enable-background="new 0 0 283.465 283.465"
	 xml:space="preserve">
<path fill-rule="evenodd" clip-rule="evenodd" d="M71.08,119.208c3.49,0,6.314-2.831,6.314-6.315
	c0-28.349,23.015-51.363,51.363-51.363c28.342,0,51.357,23.015,51.357,51.363c0,3.484,2.837,6.315,6.315,6.315h25.949
	c28.355,0,51.369,23.014,51.369,51.357c0,28.354-23.014,51.369-51.369,51.369H71.08c-28.349,0-51.363-23.015-51.363-51.369
	C19.716,142.223,42.731,119.208,71.08,119.208z M65.048,106.856c-32.493,3.046-57.961,30.427-57.961,63.709
	c0,35.323,28.675,63.999,63.993,63.999h141.299c35.323,0,63.999-28.676,63.999-63.999c0-35.317-28.676-63.986-63.999-63.986h-19.943
	c-3.17-32.364-30.488-57.678-63.678-57.678C95.475,48.901,68.088,74.364,65.048,106.856z"/>
</svg>
