<?xml version="1.0" encoding="utf-8"?>
<!-- Generator: Adobe Illustrator 15.1.0, SVG Export Plug-In . SVG Version: 6.00 Build 0)  -->
<!DOCTYPE svg PUBLIC "-//W3C//DTD SVG 1.1//EN" "http://www.w3.org/Graphics/SVG/1.1/DTD/svg11.dtd">
<svg version="1.1" id="Layer_1" xmlns="http://www.w3.org/2000/svg" xmlns:xlink="http://www.w3.org/1999/xlink" x="0px" y="0px"
	 width="283.68px" height="283.92px" viewBox="0 0 283.68 283.92" enable-background="new 0 0 283.68 283.92" xml:space="preserve">
<g>
	<path d="M166.737,177.401V45.844c0-14.467-11.771-26.237-26.237-26.237s-26.237,11.77-26.237,26.237v132.004
		c-12.502,8.522-20.729,22.873-20.729,39.112c0,26.084,21.221,47.306,47.306,47.306s47.307-21.222,47.307-47.306
		C188.146,200.43,179.618,185.862,166.737,177.401z M140.84,249.266c-17.842,0-32.306-14.464-32.306-32.306
		c0-0.767,0.036-1.523,0.089-2.276c0.012-0.177,0.025-0.353,0.04-0.528c0.063-0.741,0.146-1.476,0.259-2.201
		c0.011-0.072,0.026-0.143,0.038-0.214c0.11-0.676,0.244-1.342,0.395-2.002c0.036-0.155,0.07-0.311,0.107-0.465
		c0.173-0.707,0.365-1.406,0.583-2.095c0.03-0.095,0.064-0.188,0.096-0.282c0.207-0.632,0.434-1.254,0.678-1.868
		c0.046-0.115,0.089-0.231,0.137-0.346c0.277-0.676,0.577-1.339,0.898-1.99c0.045-0.091,0.093-0.18,0.139-0.271
		c0.311-0.616,0.641-1.223,0.99-1.815c0.034-0.059,0.067-0.118,0.102-0.177c0.383-0.642,0.789-1.267,1.213-1.878
		c0.049-0.07,0.1-0.14,0.149-0.21c0.026-0.037,0.053-0.075,0.08-0.112c0,0.002,0,0.004,0.001,0.006
		c3.657-5.125,8.767-9.143,14.736-11.436v-9.522V45.844c0-6.206,5.031-11.237,11.237-11.237s11.237,5.031,11.237,11.237v131.434
		v9.266c5.961,2.136,11.096,5.986,14.851,10.94c0.001-0.009,0.003-0.017,0.004-0.025c0.145,0.19,0.283,0.384,0.424,0.577
		c0.074,0.103,0.146,0.206,0.22,0.31c0.855,1.21,1.629,2.48,2.313,3.806c0.065,0.127,0.132,0.254,0.195,0.382
		c0.328,0.654,0.638,1.319,0.921,1.999c0.033,0.078,0.062,0.159,0.094,0.238c0.255,0.625,0.489,1.261,0.705,1.904
		c0.044,0.132,0.091,0.262,0.134,0.394c0.223,0.694,0.423,1.397,0.6,2.111c0.034,0.14,0.064,0.281,0.097,0.423
		c0.153,0.655,0.288,1.317,0.399,1.988c0.018,0.103,0.039,0.203,0.055,0.306c0.116,0.734,0.202,1.479,0.268,2.229
		c0.015,0.171,0.026,0.343,0.039,0.515c0.055,0.768,0.092,1.54,0.092,2.321C173.146,234.802,158.682,249.266,140.84,249.266z"/>
	<path d="M149.713,192.191l-3.976-1.425v-4.224v-3.266h-10.474v3.522v4.122l-3.849,1.479c-10.096,3.878-16.88,13.748-16.88,24.56
		c0,14.505,11.801,26.306,26.306,26.306s26.307-11.801,26.307-26.306C167.146,205.882,160.14,195.928,149.713,192.191z"/>
	<path fill="#FFFFFF" d="M173.055,214.639c-0.013-0.172-0.024-0.344-0.039-0.515c-0.065-0.75-0.151-1.494-0.268-2.229
		c-0.016-0.103-0.037-0.203-0.055-0.306c-0.111-0.671-0.246-1.333-0.399-1.988c-0.032-0.142-0.063-0.283-0.097-0.423
		c-0.177-0.714-0.377-1.417-0.6-2.111c-0.043-0.132-0.09-0.262-0.134-0.394c-0.216-0.644-0.45-1.279-0.705-1.904
		c-0.032-0.079-0.061-0.16-0.094-0.238c-0.283-0.68-0.593-1.345-0.921-1.999c-0.063-0.128-0.13-0.255-0.195-0.382
		c-0.686-1.325-1.458-2.596-2.313-3.806c-0.073-0.104-0.146-0.207-0.22-0.31c-0.137-0.188-0.287-0.366-0.428-0.552
		c-3.755-4.954-8.89-8.805-14.851-10.94v-9.266h-22.474v9.522c-5.969,2.293-11.079,6.311-14.736,11.436
		c-0.026,0.036-0.055,0.07-0.081,0.106c-0.05,0.07-0.101,0.14-0.149,0.21c-0.425,0.611-0.831,1.237-1.213,1.878
		c-0.035,0.059-0.067,0.118-0.102,0.177c-0.349,0.593-0.678,1.199-0.99,1.815c-0.046,0.091-0.094,0.18-0.139,0.271
		c-0.321,0.651-0.621,1.314-0.898,1.99c-0.047,0.114-0.091,0.23-0.137,0.346c-0.244,0.614-0.471,1.236-0.678,1.868
		c-0.031,0.095-0.065,0.188-0.096,0.282c-0.218,0.688-0.411,1.388-0.583,2.095c-0.038,0.154-0.072,0.31-0.107,0.465
		c-0.151,0.66-0.285,1.326-0.395,2.002c-0.012,0.071-0.027,0.142-0.038,0.214c-0.113,0.725-0.195,1.461-0.259,2.201
		c-0.015,0.176-0.028,0.352-0.04,0.528c-0.053,0.753-0.089,1.51-0.089,2.276c0,17.842,14.464,32.306,32.306,32.306
		s32.307-14.464,32.307-32.306C173.146,216.179,173.109,215.406,173.055,214.639z M140.84,243.266
		c-14.505,0-26.306-11.801-26.306-26.306c0-10.812,6.784-20.682,16.88-24.56l3.849-1.479V186.8v-3.522h10.474v3.266v4.224
		l3.976,1.425c10.427,3.736,17.434,13.69,17.434,24.769C167.146,231.465,155.345,243.266,140.84,243.266z"/>
	<path d="M82.37,77.111c3.186,0,5.778-2.592,5.778-5.778s-2.592-5.778-5.778-5.778s-5.778,2.592-5.778,5.778
		S79.184,77.111,82.37,77.111z M82.37,67.872c1.912,0,3.462,1.55,3.462,3.462s-1.55,3.462-3.462,3.462
		c-1.912,0-3.462-1.55-3.462-3.462S80.458,67.872,82.37,67.872z"/>
	<path d="M81.211,96.336c0,0.64,0.519,1.158,1.158,1.158s1.158-0.519,1.158-1.158v-1.594c0-0.64-0.519-1.158-1.158-1.158
		s-1.158,0.519-1.158,1.158V96.336z"/>
	<path d="M70.869,93.565l0.797-1.381c0.32-0.554,0.13-1.262-0.424-1.582c-0.554-0.322-1.263-0.129-1.582,0.424l-0.797,1.381
		c-0.32,0.554-0.13,1.262,0.424,1.582c0.182,0.105,0.381,0.155,0.578,0.155C70.266,94.145,70.655,93.937,70.869,93.565z"/>
	<path d="M62.673,84.04c0.554-0.319,0.744-1.028,0.424-1.582c-0.32-0.554-1.029-0.745-1.582-0.424l-1.381,0.797
		c-0.554,0.319-0.744,1.028-0.424,1.582c0.214,0.372,0.604,0.58,1.004,0.58c0.196,0,0.396-0.05,0.578-0.155L62.673,84.04z"/>
	<path d="M57.363,72.488h1.594c0.64,0,1.158-0.519,1.158-1.158s-0.519-1.158-1.158-1.158h-1.594c-0.64,0-1.158,0.519-1.158,1.158
		S56.724,72.488,57.363,72.488z"/>
	<path d="M60.134,59.83l1.381,0.797c0.182,0.105,0.381,0.155,0.578,0.155c0.4,0,0.79-0.208,1.004-0.58
		c0.32-0.554,0.13-1.262-0.424-1.582l-1.381-0.797c-0.555-0.321-1.262-0.13-1.582,0.424C59.39,58.802,59.58,59.51,60.134,59.83z"/>
	<path d="M69.66,51.632c0.214,0.372,0.604,0.58,1.004,0.58c0.196,0,0.396-0.05,0.578-0.155c0.554-0.32,0.744-1.028,0.424-1.582
		l-0.797-1.381c-0.319-0.555-1.029-0.746-1.582-0.424c-0.554,0.32-0.744,1.028-0.424,1.582L69.66,51.632z"/>
	<path d="M82.37,49.076c0.64,0,1.158-0.519,1.158-1.158v-1.594c0-0.64-0.519-1.158-1.158-1.158s-1.158,0.519-1.158,1.158v1.594
		C81.211,48.557,81.73,49.076,82.37,49.076z"/>
	<path d="M93.496,52.058c0.183,0.105,0.381,0.155,0.578,0.155c0.4,0,0.79-0.208,1.004-0.579l0.797-1.381
		c0.32-0.554,0.13-1.262-0.424-1.582c-0.554-0.317-1.262-0.13-1.582,0.424l-0.797,1.381C92.752,51.029,92.942,51.738,93.496,52.058z
		"/>
	<path d="M101.643,60.202c0.214,0.372,0.604,0.58,1.004,0.58c0.196,0,0.396-0.05,0.578-0.155l1.381-0.797
		c0.554-0.32,0.744-1.028,0.424-1.582s-1.029-0.746-1.582-0.424l-1.381,0.797C101.513,58.94,101.323,59.648,101.643,60.202z"/>
	<path d="M107.375,72.488c0.64,0,1.158-0.519,1.158-1.158s-0.519-1.158-1.158-1.158h-1.594c-0.64,0-1.158,0.519-1.158,1.158
		s0.519,1.158,1.158,1.158H107.375z"/>
	<path d="M104.604,82.83l-1.381-0.797c-0.554-0.321-1.262-0.13-1.582,0.424c-0.32,0.554-0.13,1.262,0.424,1.582l1.381,0.797
		c0.182,0.105,0.381,0.155,0.578,0.155c0.4,0,0.79-0.208,1.004-0.58C105.348,83.858,105.158,83.15,104.604,82.83z"/>
	<path d="M95.876,92.408l-0.797-1.381c-0.32-0.554-1.029-0.746-1.582-0.424c-0.554,0.32-0.744,1.028-0.424,1.582l0.797,1.381
		c0.214,0.372,0.604,0.58,1.004,0.58c0.196,0,0.396-0.05,0.578-0.155C96.006,93.669,96.196,92.961,95.876,92.408z"/>
	<path d="M82.37,92.4c0.64,0,1.158-0.519,1.158-1.158V81.06c0-0.64-0.519-1.158-1.158-1.158s-1.158,0.519-1.158,1.158v10.182
		C81.211,91.881,81.73,92.4,82.37,92.4z"/>
	<path d="M65.126,82.445c0.197,0,0.396-0.05,0.578-0.155l8.818-5.092c0.554-0.32,0.744-1.028,0.424-1.582
		c-0.32-0.555-1.028-0.741-1.582-0.424l-8.818,5.092c-0.554,0.32-0.744,1.028-0.424,1.582
		C64.337,82.238,64.726,82.445,65.126,82.445z"/>
	<path d="M64.546,62.377l8.817,5.091c0.183,0.105,0.381,0.155,0.578,0.155c0.4,0,0.79-0.208,1.004-0.579
		c0.32-0.554,0.13-1.262-0.424-1.582l-8.817-5.091c-0.553-0.318-1.262-0.13-1.582,0.424C63.803,61.349,63.993,62.058,64.546,62.377z
		"/>
	<path d="M82.37,62.758c0.64,0,1.158-0.519,1.158-1.158V51.417c0-0.64-0.519-1.158-1.158-1.158s-1.158,0.519-1.158,1.158V61.6
		C81.211,62.239,81.73,62.758,82.37,62.758z"/>
	<path d="M90.797,67.623c0.197,0,0.396-0.05,0.578-0.155l8.818-5.092c0.554-0.32,0.744-1.028,0.424-1.582s-1.027-0.741-1.582-0.424
		l-8.818,5.092c-0.554,0.32-0.744,1.028-0.424,1.582C90.007,67.416,90.397,67.623,90.797,67.623z"/>
	<path d="M90.217,77.198l8.817,5.091c0.183,0.105,0.381,0.155,0.578,0.155c0.4,0,0.79-0.208,1.004-0.579
		c0.32-0.554,0.13-1.262-0.424-1.582l-8.817-5.091c-0.553-0.318-1.262-0.13-1.582,0.424C89.473,76.169,89.663,76.878,90.217,77.198z
		"/>
	<path d="M217.034,115.335c-4.779,0-8.667,3.888-8.667,8.667c0,4.779,3.888,8.667,8.667,8.667c4.778,0,8.667-3.888,8.667-8.667
		C225.701,119.223,221.813,115.335,217.034,115.335z M217.034,129.196c-2.868,0-5.193-2.326-5.193-5.194
		c0-2.868,2.325-5.193,5.193-5.193c2.867,0,5.192,2.325,5.192,5.193C222.227,126.87,219.901,129.196,217.034,129.196z"/>
	<path d="M215.296,161.506c0,0.959,0.778,1.737,1.737,1.737s1.737-0.778,1.737-1.737v-2.392c0-0.959-0.778-1.737-1.737-1.737
		s-1.737,0.778-1.737,1.737V161.506z"/>
	<path d="M199.782,157.352l1.196-2.071c0.48-0.831,0.195-1.894-0.635-2.373c-0.833-0.48-1.894-0.195-2.373,0.635l-1.196,2.071
		c-0.48,0.831-0.195,1.894,0.635,2.373c0.274,0.158,0.572,0.233,0.867,0.233C198.877,158.22,199.461,157.908,199.782,157.352z"/>
	<path d="M185.752,140.051l-2.071,1.196c-0.831,0.479-1.116,1.542-0.636,2.373c0.321,0.557,0.905,0.868,1.506,0.868
		c0.294,0,0.593-0.074,0.866-0.232l2.071-1.196c0.831-0.479,1.116-1.542,0.636-2.373
		C187.646,139.857,186.584,139.571,185.752,140.051z"/>
	<path d="M179.524,125.733h2.391c0.959,0,1.737-0.777,1.737-1.737s-0.778-1.737-1.737-1.737h-2.391
		c-0.959,0-1.737,0.777-1.737,1.737S178.565,125.733,179.524,125.733z"/>
	<path d="M187.488,104.933l-2.071-1.196c-0.832-0.479-1.894-0.194-2.372,0.636c-0.48,0.831-0.195,1.894,0.636,2.373l2.071,1.196
		c0.273,0.158,0.572,0.233,0.866,0.233c0.601,0,1.185-0.312,1.506-0.869C188.604,106.475,188.319,105.412,187.488,104.933z"/>
	<path d="M196.773,92.38l1.196,2.071c0.321,0.557,0.905,0.869,1.506,0.869c0.295,0,0.594-0.075,0.867-0.233
		c0.83-0.479,1.115-1.542,0.635-2.373l-1.196-2.071c-0.479-0.831-1.543-1.116-2.373-0.635
		C196.578,90.487,196.293,91.55,196.773,92.38z"/>
	<path d="M217.033,90.614c0.959,0,1.737-0.777,1.737-1.737v-2.391c0-0.959-0.778-1.737-1.737-1.737s-1.737,0.777-1.737,1.737v2.391
		C215.296,89.837,216.074,90.614,217.033,90.614z"/>
	<path d="M233.725,95.086c0.273,0.158,0.572,0.233,0.866,0.233c0.601,0,1.185-0.312,1.506-0.869l1.195-2.071
		c0.48-0.831,0.195-1.893-0.636-2.373s-1.894-0.194-2.372,0.636l-1.195,2.071C232.608,93.544,232.894,94.607,233.725,95.086z"/>
	<path d="M247.449,108.174c0.294,0,0.593-0.075,0.866-0.233l2.071-1.196c0.831-0.479,1.116-1.542,0.636-2.373
		c-0.479-0.83-1.54-1.116-2.372-0.636l-2.071,1.196c-0.831,0.479-1.116,1.542-0.636,2.373
		C246.265,107.862,246.849,108.174,247.449,108.174z"/>
	<path d="M254.543,122.259h-2.391c-0.959,0-1.737,0.777-1.737,1.737s0.778,1.737,1.737,1.737h2.391c0.959,0,1.737-0.777,1.737-1.737
		S255.502,122.259,254.543,122.259z"/>
	<path d="M250.389,141.247l-2.071-1.196c-0.834-0.479-1.895-0.195-2.373,0.636c-0.48,0.831-0.195,1.893,0.635,2.373l2.071,1.196
		c0.274,0.158,0.572,0.233,0.867,0.233c0.601,0,1.185-0.312,1.506-0.868C251.504,142.789,251.219,141.727,250.389,141.247z"/>
	<path d="M237.293,155.612l-1.196-2.071c-0.479-0.829-1.54-1.114-2.373-0.635c-0.83,0.479-1.115,1.542-0.635,2.373l1.196,2.071
		c0.321,0.557,0.905,0.868,1.506,0.868c0.294,0,0.593-0.075,0.867-0.233C237.488,157.506,237.773,156.443,237.293,155.612z"/>
	<path d="M217.033,155.601c0.959,0,1.737-0.778,1.737-1.737v-15.272c0-0.959-0.778-1.737-1.737-1.737s-1.737,0.777-1.737,1.737
		v15.272C215.296,154.822,216.074,155.601,217.033,155.601z"/>
	<path d="M205.897,130.425c-0.479-0.83-1.54-1.115-2.372-0.636l-13.227,7.637c-0.831,0.48-1.116,1.542-0.636,2.373
		c0.321,0.557,0.905,0.869,1.506,0.869c0.294,0,0.593-0.075,0.866-0.233l13.227-7.637
		C206.093,132.318,206.378,131.256,205.897,130.425z"/>
	<path d="M189.664,108.194c-0.48,0.831-0.195,1.893,0.636,2.373l13.227,7.636c0.273,0.158,0.572,0.233,0.866,0.233
		c0.601,0,1.185-0.312,1.506-0.869c0.48-0.831,0.195-1.893-0.636-2.373l-13.227-7.636
		C191.204,107.079,190.143,107.365,189.664,108.194z"/>
	<path d="M217.033,111.138c0.959,0,1.737-0.777,1.737-1.737V94.129c0-0.959-0.778-1.737-1.737-1.737s-1.737,0.777-1.737,1.737
		v15.272C215.296,110.36,216.074,111.138,217.033,111.138z"/>
	<path d="M242.032,107.557l-13.228,7.637c-0.831,0.48-1.116,1.542-0.636,2.373c0.321,0.557,0.905,0.869,1.506,0.869
		c0.294,0,0.593-0.075,0.866-0.233l13.228-7.637c0.831-0.48,1.116-1.542,0.636-2.373
		C243.926,107.363,242.863,107.076,242.032,107.557z"/>
	<path d="M243.769,137.425l-13.227-7.636c-0.832-0.48-1.894-0.194-2.372,0.636c-0.48,0.831-0.195,1.894,0.636,2.373l13.227,7.636
		c0.273,0.158,0.572,0.233,0.866,0.233c0.601,0,1.185-0.312,1.506-0.869C244.885,138.967,244.6,137.904,243.769,137.425z"/>
	<path d="M41.463,125.563c2.073,0,3.759-1.687,3.759-3.76c0-2.073-1.686-3.759-3.759-3.759c-2.073,0-3.759,1.686-3.759,3.759
		C37.704,123.875,39.39,125.563,41.463,125.563z M41.463,119.551c1.244,0,2.253,1.008,2.253,2.252c0,1.245-1.009,2.253-2.253,2.253
		c-1.244,0-2.253-1.008-2.253-2.253C39.209,120.559,40.219,119.551,41.463,119.551z"/>
	<path d="M42.216,138.071v-1.037c0-0.416-0.337-0.753-0.753-0.753s-0.753,0.337-0.753,0.753v1.037c0,0.416,0.337,0.753,0.753,0.753
		S42.216,138.487,42.216,138.071z"/>
	<path d="M33.327,136.645c0.26,0,0.513-0.135,0.653-0.376l0.519-0.897c0.208-0.36,0.085-0.821-0.275-1.03
		c-0.358-0.206-0.821-0.085-1.03,0.275l-0.519,0.897c-0.208,0.36-0.085,0.821,0.275,1.03
		C33.068,136.612,33.198,136.645,33.327,136.645z"/>
	<path d="M27.894,128.765l-0.898,0.518c-0.36,0.208-0.484,0.669-0.276,1.029c0.14,0.242,0.393,0.377,0.653,0.377
		c0.128,0,0.257-0.032,0.376-0.101l0.898-0.518c0.36-0.208,0.484-0.669,0.276-1.029C28.714,128.681,28.253,128.557,27.894,128.765z"
		/>
	<path d="M25.192,122.554h1.037c0.416,0,0.753-0.337,0.753-0.753s-0.337-0.753-0.753-0.753h-1.037c-0.416,0-0.753,0.337-0.753,0.753
		S24.776,122.554,25.192,122.554z"/>
	<path d="M26.995,114.317l0.897,0.519c0.119,0.068,0.249,0.101,0.377,0.101c0.26,0,0.513-0.135,0.653-0.376
		c0.208-0.36,0.085-0.821-0.275-1.03l-0.897-0.519c-0.359-0.207-0.821-0.085-1.03,0.275
		C26.512,113.648,26.635,114.109,26.995,114.317z"/>
	<path d="M33.193,108.984c0.14,0.242,0.393,0.377,0.653,0.377c0.128,0,0.257-0.032,0.376-0.101c0.36-0.208,0.484-0.669,0.276-1.029
		l-0.518-0.898c-0.208-0.36-0.669-0.483-1.029-0.276c-0.36,0.208-0.484,0.669-0.276,1.029L33.193,108.984z"/>
	<path d="M41.463,107.321c0.416,0,0.753-0.337,0.753-0.753v-1.037c0-0.416-0.337-0.753-0.753-0.753s-0.753,0.337-0.753,0.753v1.037
		C40.709,106.983,41.047,107.321,41.463,107.321z"/>
	<path d="M48.702,109.26c0.119,0.068,0.249,0.101,0.377,0.101c0.26,0,0.513-0.135,0.653-0.376l0.519-0.897
		c0.208-0.36,0.085-0.821-0.275-1.03c-0.357-0.206-0.821-0.085-1.03,0.275l-0.519,0.897C48.218,108.59,48.341,109.051,48.702,109.26
		z"/>
	<path d="M54.656,114.937c0.128,0,0.257-0.032,0.376-0.101l0.898-0.518c0.36-0.208,0.484-0.669,0.276-1.029
		c-0.208-0.36-0.669-0.484-1.029-0.276l-0.898,0.518c-0.36,0.208-0.484,0.669-0.276,1.029
		C54.143,114.802,54.396,114.937,54.656,114.937z"/>
	<path d="M57.733,121.047h-1.037c-0.416,0-0.753,0.337-0.753,0.753s0.337,0.753,0.753,0.753h1.037c0.416,0,0.753-0.337,0.753-0.753
		S58.149,121.047,57.733,121.047z"/>
	<path d="M55.931,129.284l-0.897-0.519c-0.357-0.205-0.821-0.085-1.03,0.275s-0.085,0.821,0.275,1.03l0.897,0.519
		c0.119,0.068,0.249,0.101,0.377,0.101c0.26,0,0.513-0.135,0.653-0.376C56.414,129.953,56.291,129.492,55.931,129.284z"/>
	<path d="M49.733,134.617c-0.208-0.36-0.669-0.483-1.029-0.276c-0.36,0.208-0.484,0.669-0.276,1.029l0.518,0.898
		c0.14,0.242,0.393,0.377,0.653,0.377c0.128,0,0.257-0.032,0.376-0.101c0.36-0.208,0.484-0.669,0.276-1.029L49.733,134.617z"/>
	<path d="M42.216,128.132c0-0.416-0.337-0.753-0.753-0.753s-0.753,0.337-0.753,0.753v6.625c0,0.416,0.337,0.753,0.753,0.753
		s0.753-0.337,0.753-0.753V128.132z"/>
	<path d="M36.632,124.59c-0.208-0.36-0.668-0.485-1.029-0.275l-5.737,3.312c-0.36,0.208-0.484,0.668-0.275,1.029
		c0.139,0.242,0.393,0.376,0.653,0.376c0.128,0,0.258-0.032,0.376-0.101l5.737-3.312C36.717,125.411,36.841,124.951,36.632,124.59z"
		/>
	<path d="M29.866,115.976l5.738,3.313c0.119,0.068,0.248,0.101,0.376,0.101c0.26,0,0.514-0.135,0.653-0.377
		c0.208-0.36,0.084-0.821-0.276-1.029l-5.738-3.312c-0.36-0.208-0.821-0.085-1.029,0.276
		C29.382,115.307,29.505,115.768,29.866,115.976z"/>
	<path d="M41.463,116.223c0.416,0,0.753-0.337,0.753-0.753v-6.625c0-0.416-0.337-0.753-0.753-0.753s-0.753,0.337-0.753,0.753v6.625
		C40.709,115.886,41.047,116.223,41.463,116.223z"/>
	<path d="M46.946,119.388c0.128,0,0.258-0.032,0.376-0.101l5.737-3.312c0.36-0.208,0.484-0.668,0.275-1.029
		c-0.208-0.36-0.669-0.485-1.029-0.275l-5.737,3.312c-0.36,0.208-0.484,0.668-0.275,1.029
		C46.433,119.253,46.686,119.388,46.946,119.388z"/>
	<path d="M53.06,127.625l-5.738-3.312c-0.36-0.208-0.821-0.085-1.029,0.276c-0.208,0.36-0.084,0.821,0.276,1.029l5.738,3.313
		c0.119,0.068,0.248,0.101,0.376,0.101c0.26,0,0.514-0.135,0.653-0.377C53.544,128.294,53.42,127.833,53.06,127.625z"/>
	<path d="M73.229,182.883c-2.073,0-3.759,1.686-3.759,3.759c0,2.072,1.686,3.76,3.759,3.76c2.073,0,3.759-1.688,3.759-3.76
		C76.988,184.568,75.302,182.883,73.229,182.883z M73.229,188.895c-1.244,0-2.253-1.008-2.253-2.253
		c0-1.244,1.009-2.252,2.253-2.252s2.253,1.008,2.253,2.252C75.482,187.887,74.473,188.895,73.229,188.895z"/>
	<path d="M73.229,201.119c-0.416,0-0.753,0.338-0.753,0.754v1.037c0,0.416,0.337,0.754,0.753,0.754s0.753-0.338,0.753-0.754v-1.037
		C73.982,201.457,73.645,201.119,73.229,201.119z"/>
	<path d="M65.99,199.179c-0.359-0.208-0.821-0.084-1.029,0.275l-0.519,0.898c-0.208,0.36-0.085,0.821,0.275,1.029
		c0.119,0.068,0.249,0.102,0.376,0.102c0.26,0,0.513-0.136,0.653-0.377l0.519-0.898C66.474,199.848,66.35,199.387,65.99,199.179z"/>
	<path d="M59.661,193.603l-0.898,0.518c-0.361,0.208-0.485,0.669-0.277,1.029c0.139,0.242,0.393,0.378,0.653,0.378
		c0.128,0,0.257-0.033,0.375-0.101l0.898-0.518c0.361-0.208,0.485-0.669,0.277-1.029C60.483,193.519,60.019,193.398,59.661,193.603z
		"/>
	<path d="M58.75,186.639c0-0.416-0.337-0.754-0.753-0.754h-1.037c-0.416,0-0.753,0.338-0.753,0.754s0.337,0.754,0.753,0.754h1.037
		C58.412,187.393,58.75,187.055,58.75,186.639z"/>
	<path d="M58.762,179.156l0.898,0.519c0.119,0.068,0.249,0.102,0.376,0.102c0.26,0,0.514-0.136,0.653-0.377
		c0.208-0.36,0.085-0.821-0.275-1.029l-0.898-0.519c-0.361-0.207-0.822-0.085-1.029,0.275
		C58.278,178.487,58.402,178.948,58.762,179.156z"/>
	<path d="M64.717,171.896c-0.36,0.207-0.484,0.668-0.276,1.028l0.518,0.898c0.14,0.242,0.393,0.378,0.653,0.378
		c0.128,0,0.257-0.033,0.376-0.102c0.36-0.207,0.484-0.668,0.276-1.028l-0.518-0.898C65.537,171.812,65.078,171.688,64.717,171.896z
		"/>
	<path d="M73.982,170.369c0-0.416-0.337-0.754-0.753-0.754s-0.753,0.338-0.753,0.754v1.037c0,0.416,0.337,0.754,0.753,0.754
		s0.753-0.338,0.753-0.754V170.369z"/>
	<path d="M80.712,172.172l-0.519,0.898c-0.208,0.36-0.085,0.821,0.275,1.029c0.119,0.068,0.249,0.102,0.376,0.102
		c0.26,0,0.513-0.136,0.653-0.377l0.519-0.898c0.208-0.36,0.085-0.821-0.275-1.029C81.381,171.688,80.92,171.813,80.712,172.172z"/>
	<path d="M86.422,179.776c0.128,0,0.257-0.033,0.375-0.101l0.898-0.518c0.361-0.208,0.485-0.669,0.277-1.029
		c-0.208-0.361-0.671-0.481-1.029-0.277l-0.898,0.518c-0.361,0.208-0.485,0.669-0.277,1.029
		C85.908,179.641,86.162,179.776,86.422,179.776z"/>
	<path d="M89.499,185.885h-1.037c-0.416,0-0.753,0.338-0.753,0.754s0.337,0.754,0.753,0.754h1.037c0.416,0,0.753-0.338,0.753-0.754
		S89.915,185.885,89.499,185.885z"/>
	<path d="M87.696,194.122l-0.898-0.519c-0.36-0.208-0.822-0.084-1.029,0.275c-0.208,0.36-0.085,0.821,0.275,1.029l0.898,0.519
		c0.119,0.068,0.249,0.102,0.376,0.102c0.26,0,0.514-0.136,0.653-0.377C88.18,194.791,88.056,194.33,87.696,194.122z"/>
	<path d="M81.498,199.455c-0.208-0.359-0.671-0.482-1.029-0.275c-0.361,0.208-0.484,0.669-0.276,1.029l0.518,0.897
		c0.139,0.241,0.393,0.377,0.653,0.377c0.128,0,0.258-0.033,0.376-0.102c0.361-0.208,0.484-0.669,0.276-1.029L81.498,199.455z"/>
	<path d="M73.229,192.217c-0.416,0-0.753,0.338-0.753,0.754v6.625c0,0.416,0.337,0.754,0.753,0.754s0.753-0.338,0.753-0.754v-6.625
		C73.982,192.555,73.645,192.217,73.229,192.217z"/>
	<path d="M67.369,189.152l-5.737,3.313c-0.36,0.208-0.484,0.669-0.275,1.029c0.14,0.241,0.393,0.377,0.653,0.377
		c0.128,0,0.258-0.033,0.376-0.102l5.737-3.313c0.36-0.208,0.484-0.669,0.275-1.029C68.19,189.068,67.729,188.945,67.369,189.152z"
		/>
	<path d="M68.123,182.822l-5.737-3.313c-0.359-0.208-0.821-0.084-1.029,0.275c-0.208,0.36-0.085,0.821,0.275,1.029l5.737,3.313
		c0.119,0.068,0.249,0.102,0.376,0.102c0.26,0,0.513-0.136,0.653-0.377C68.607,183.491,68.483,183.03,68.123,182.822z"/>
	<path d="M73.229,172.93c-0.416,0-0.753,0.338-0.753,0.754v6.625c0,0.416,0.337,0.754,0.753,0.754s0.753-0.338,0.753-0.754v-6.625
		C73.982,173.268,73.645,172.93,73.229,172.93z"/>
	<path d="M84.072,179.508l-5.737,3.313c-0.36,0.208-0.484,0.669-0.275,1.029c0.14,0.241,0.393,0.377,0.653,0.377
		c0.128,0,0.258-0.033,0.376-0.102l5.737-3.313c0.36-0.208,0.484-0.669,0.275-1.029S84.432,179.301,84.072,179.508z"/>
	<path d="M84.826,192.466l-5.737-3.313c-0.36-0.207-0.821-0.084-1.029,0.275c-0.208,0.36-0.085,0.821,0.275,1.029l5.737,3.313
		c0.119,0.068,0.249,0.102,0.376,0.102c0.26,0,0.513-0.136,0.653-0.377C85.31,193.135,85.186,192.674,84.826,192.466z"/>
	<path d="M221.403,180.897c-2.073,0-3.759,1.686-3.759,3.759s1.686,3.76,3.759,3.76s3.759-1.687,3.759-3.76
		S223.477,180.897,221.403,180.897z M221.403,186.909c-1.244,0-2.253-1.008-2.253-2.253c0-1.244,1.009-2.252,2.253-2.252
		s2.253,1.008,2.253,2.252C223.656,185.901,222.647,186.909,221.403,186.909z"/>
	<path d="M221.403,199.134c-0.416,0-0.754,0.338-0.754,0.754v1.037c0,0.416,0.338,0.754,0.754,0.754s0.754-0.338,0.754-0.754v-1.037
		C222.157,199.472,221.819,199.134,221.403,199.134z"/>
	<path d="M213.92,199.121l0.519-0.898c0.208-0.36,0.085-0.821-0.275-1.029c-0.361-0.208-0.821-0.084-1.029,0.275l-0.519,0.898
		c-0.208,0.36-0.085,0.821,0.275,1.029c0.119,0.068,0.248,0.102,0.376,0.102C213.527,199.498,213.78,199.362,213.92,199.121z"/>
	<path d="M208.864,191.896c-0.207-0.359-0.667-0.483-1.029-0.277l-0.898,0.518c-0.36,0.208-0.484,0.669-0.277,1.029
		c0.14,0.242,0.394,0.378,0.654,0.378c0.127,0,0.257-0.033,0.375-0.101l0.898-0.518
		C208.947,192.717,209.071,192.256,208.864,191.896z"/>
	<path d="M206.17,185.407c0.416,0,0.754-0.338,0.754-0.754s-0.338-0.754-0.754-0.754h-1.037c-0.416,0-0.754,0.338-0.754,0.754
		s0.338,0.754,0.754,0.754H206.17z"/>
	<path d="M206.66,176.142c-0.208,0.36-0.085,0.821,0.275,1.029l0.898,0.52c0.118,0.068,0.248,0.102,0.376,0.102
		c0.261,0,0.514-0.135,0.653-0.377c0.208-0.36,0.085-0.821-0.275-1.029l-0.898-0.52C207.331,175.659,206.868,175.78,206.66,176.142z
		"/>
	<path d="M213.787,172.215c0.127,0,0.257-0.033,0.375-0.102c0.361-0.207,0.484-0.668,0.276-1.028l-0.518-0.897
		c-0.206-0.359-0.667-0.484-1.028-0.276c-0.361,0.207-0.484,0.668-0.276,1.028l0.518,0.897
		C213.272,172.079,213.526,172.215,213.787,172.215z"/>
	<path d="M221.403,170.175c0.416,0,0.754-0.338,0.754-0.754v-1.037c0-0.416-0.338-0.754-0.754-0.754s-0.754,0.338-0.754,0.754v1.037
		C220.649,169.837,220.987,170.175,221.403,170.175z"/>
	<path d="M229.019,172.217c0.261,0,0.514-0.136,0.653-0.377l0.519-0.898c0.208-0.36,0.085-0.821-0.275-1.029
		c-0.361-0.208-0.821-0.084-1.029,0.275l-0.519,0.898c-0.208,0.36-0.085,0.821,0.275,1.029
		C228.762,172.184,228.891,172.217,229.019,172.217z"/>
	<path d="M235.117,175.866l-0.898,0.518c-0.36,0.208-0.484,0.669-0.277,1.029c0.14,0.242,0.394,0.378,0.654,0.378
		c0.127,0,0.257-0.033,0.375-0.101l0.898-0.518c0.36-0.208,0.484-0.669,0.277-1.029S235.479,175.661,235.117,175.866z"/>
	<path d="M237.673,183.9h-1.037c-0.416,0-0.754,0.338-0.754,0.754s0.338,0.754,0.754,0.754h1.037c0.416,0,0.754-0.338,0.754-0.754
		S238.089,183.9,237.673,183.9z"/>
	<path d="M235.869,192.137l-0.898-0.519c-0.361-0.208-0.821-0.084-1.029,0.275c-0.208,0.36-0.085,0.821,0.275,1.029l0.898,0.519
		c0.119,0.068,0.248,0.102,0.376,0.102c0.261,0,0.514-0.136,0.653-0.377C236.353,192.806,236.229,192.345,235.869,192.137z"/>
	<path d="M229.672,197.471c-0.205-0.359-0.667-0.484-1.028-0.276c-0.361,0.207-0.484,0.668-0.276,1.028l0.518,0.897
		c0.139,0.242,0.393,0.378,0.653,0.378c0.127,0,0.257-0.033,0.375-0.102c0.361-0.207,0.484-0.668,0.276-1.028L229.672,197.471z"/>
	<path d="M221.403,190.231c-0.416,0-0.754,0.338-0.754,0.754v6.625c0,0.416,0.338,0.754,0.754,0.754s0.754-0.338,0.754-0.754v-6.625
		C222.157,190.569,221.819,190.231,221.403,190.231z"/>
	<path d="M216.297,188.473c0.36-0.208,0.483-0.669,0.275-1.029c-0.209-0.359-0.667-0.483-1.029-0.275l-5.736,3.313
		c-0.36,0.208-0.483,0.669-0.275,1.029c0.14,0.241,0.393,0.377,0.653,0.377c0.128,0,0.257-0.033,0.376-0.102L216.297,188.473z"/>
	<path d="M209.53,177.799c-0.208,0.36-0.085,0.821,0.275,1.029l5.737,3.313c0.119,0.068,0.248,0.102,0.376,0.102
		c0.261,0,0.514-0.136,0.653-0.377c0.208-0.36,0.085-0.821-0.275-1.029l-5.737-3.313
		C210.197,177.315,209.739,177.439,209.53,177.799z"/>
	<path d="M220.649,178.323c0,0.416,0.338,0.754,0.754,0.754s0.754-0.338,0.754-0.754v-6.625c0-0.416-0.338-0.754-0.754-0.754
		s-0.754,0.338-0.754,0.754V178.323z"/>
	<path d="M232.246,177.523l-5.737,3.313c-0.36,0.208-0.483,0.669-0.275,1.029c0.14,0.241,0.393,0.377,0.653,0.377
		c0.128,0,0.257-0.033,0.376-0.102l5.737-3.313c0.36-0.208,0.483-0.669,0.275-1.029
		C233.067,177.439,232.607,177.315,232.246,177.523z"/>
	<path d="M232.999,190.48l-5.737-3.313c-0.362-0.207-0.821-0.084-1.029,0.275c-0.208,0.36-0.085,0.821,0.275,1.029l5.737,3.313
		c0.119,0.068,0.248,0.102,0.376,0.102c0.261,0,0.514-0.136,0.653-0.377C233.482,191.149,233.359,190.688,232.999,190.48z"/>
	<path d="M190.17,54.022c2.072,0,3.759-1.687,3.759-3.76c0-2.073-1.687-3.759-3.759-3.759c-2.073,0-3.76,1.686-3.76,3.759
		C186.41,52.335,188.097,54.022,190.17,54.022z M190.17,48.01c1.244,0,2.253,1.008,2.253,2.252c0,1.245-1.009,2.253-2.253,2.253
		s-2.253-1.008-2.253-2.253C187.917,49.018,188.926,48.01,190.17,48.01z"/>
	<path d="M190.17,67.284c0.416,0,0.754-0.337,0.754-0.753v-1.037c0-0.416-0.338-0.753-0.754-0.753s-0.754,0.337-0.754,0.753v1.037
		C189.416,66.947,189.754,67.284,190.17,67.284z"/>
	<path d="M181.9,63.076l-0.52,0.898c-0.208,0.36-0.085,0.821,0.275,1.03c0.118,0.069,0.248,0.101,0.376,0.101
		c0.261,0,0.514-0.135,0.653-0.376l0.52-0.898c0.208-0.36,0.085-0.821-0.275-1.03C182.57,62.591,182.108,62.716,181.9,63.076z"/>
	<path d="M176.601,57.224l-0.898,0.519c-0.36,0.208-0.483,0.669-0.275,1.029c0.14,0.242,0.393,0.376,0.653,0.376
		c0.128,0,0.257-0.032,0.376-0.101l0.898-0.519c0.36-0.208,0.483-0.669,0.275-1.029C177.422,57.139,176.963,57.015,176.601,57.224z"
		/>
	<path d="M173.899,51.013h1.037c0.416,0,0.754-0.337,0.754-0.753s-0.338-0.753-0.754-0.753h-1.037c-0.416,0-0.754,0.337-0.754,0.753
		S173.483,51.013,173.899,51.013z"/>
	<path d="M175.702,42.777l0.898,0.519c0.119,0.069,0.248,0.101,0.376,0.101c0.261,0,0.514-0.135,0.653-0.376
		c0.208-0.36,0.085-0.821-0.275-1.029l-0.898-0.519c-0.361-0.209-0.821-0.085-1.029,0.275S175.342,42.569,175.702,42.777z"/>
	<path d="M181.901,37.444c0.14,0.242,0.393,0.376,0.653,0.376c0.128,0,0.257-0.032,0.376-0.101c0.36-0.208,0.483-0.669,0.275-1.029
		l-0.519-0.898c-0.208-0.361-0.668-0.484-1.029-0.275c-0.36,0.208-0.483,0.669-0.275,1.029L181.901,37.444z"/>
	<path d="M190.17,35.78c0.416,0,0.754-0.337,0.754-0.753V33.99c0-0.416-0.338-0.753-0.754-0.753s-0.754,0.337-0.754,0.753v1.037
		C189.416,35.443,189.754,35.78,190.17,35.78z"/>
	<path d="M197.409,37.721c0.118,0.069,0.248,0.101,0.376,0.101c0.261,0,0.514-0.135,0.653-0.376l0.52-0.898
		c0.208-0.36,0.085-0.821-0.275-1.03c-0.359-0.21-0.82-0.085-1.029,0.275l-0.52,0.898C196.926,37.051,197.049,37.512,197.409,37.721
		z"/>
	<path d="M203.363,43.397c0.128,0,0.257-0.032,0.376-0.101l0.898-0.519c0.36-0.208,0.483-0.669,0.275-1.029
		s-0.668-0.484-1.029-0.275l-0.898,0.519c-0.36,0.208-0.483,0.669-0.275,1.029C202.85,43.262,203.103,43.397,203.363,43.397z"/>
	<path d="M204.648,50.261c0,0.416,0.338,0.753,0.754,0.753h1.037c0.416,0,0.754-0.337,0.754-0.753s-0.338-0.753-0.754-0.753h-1.037
		C204.986,49.507,204.648,49.845,204.648,50.261z"/>
	<path d="M202.984,58.53l0.898,0.519c0.119,0.069,0.248,0.101,0.376,0.101c0.261,0,0.514-0.135,0.653-0.376
		c0.208-0.36,0.085-0.821-0.275-1.029l-0.898-0.519c-0.362-0.209-0.821-0.084-1.029,0.275
		C202.501,57.861,202.624,58.322,202.984,58.53z"/>
	<path d="M197.652,64.728c0.14,0.242,0.393,0.376,0.653,0.376c0.128,0,0.257-0.032,0.376-0.101c0.36-0.208,0.483-0.669,0.275-1.029
		l-0.519-0.898c-0.208-0.36-0.667-0.485-1.029-0.275c-0.36,0.208-0.483,0.669-0.275,1.029L197.652,64.728z"/>
	<path d="M190.17,55.838c-0.416,0-0.754,0.337-0.754,0.753v6.625c0,0.416,0.338,0.753,0.754,0.753s0.754-0.337,0.754-0.753v-6.625
		C190.924,56.175,190.586,55.838,190.17,55.838z"/>
	<path d="M178.95,57.491c0.128,0,0.257-0.032,0.376-0.101l5.737-3.313c0.36-0.208,0.483-0.669,0.275-1.029
		c-0.209-0.36-0.667-0.485-1.029-0.275l-5.737,3.313c-0.36,0.208-0.483,0.669-0.275,1.029
		C178.437,57.356,178.689,57.491,178.95,57.491z"/>
	<path d="M178.573,44.435l5.736,3.312c0.119,0.069,0.248,0.101,0.376,0.101c0.261,0,0.514-0.135,0.653-0.376
		c0.208-0.36,0.085-0.821-0.275-1.029l-5.736-3.312c-0.362-0.209-0.821-0.085-1.029,0.275
		C178.09,43.766,178.213,44.227,178.573,44.435z"/>
	<path d="M190.17,44.683c0.416,0,0.754-0.337,0.754-0.753v-6.625c0-0.416-0.338-0.753-0.754-0.753s-0.754,0.337-0.754,0.753v6.625
		C189.416,44.345,189.754,44.683,190.17,44.683z"/>
	<path d="M195.653,47.848c0.128,0,0.257-0.032,0.376-0.101l5.737-3.313c0.36-0.208,0.483-0.669,0.275-1.029
		s-0.667-0.485-1.029-0.275l-5.737,3.313c-0.36,0.208-0.483,0.669-0.275,1.029C195.14,47.713,195.393,47.848,195.653,47.848z"/>
	<path d="M195.275,54.078l5.736,3.313c0.119,0.069,0.248,0.101,0.376,0.101c0.261,0,0.514-0.135,0.653-0.376
		c0.208-0.36,0.085-0.821-0.275-1.029l-5.736-3.313c-0.361-0.209-0.821-0.085-1.029,0.275S194.915,53.87,195.275,54.078z"/>
	<path d="M87.017,141.24c0-1.375-1.119-2.494-2.494-2.494s-2.494,1.119-2.494,2.494s1.119,2.494,2.494,2.494
		S87.017,142.615,87.017,141.24z M84.523,142.735c-0.825,0-1.495-0.669-1.495-1.495c0-0.825,0.67-1.494,1.495-1.494
		c0.825,0,1.495,0.669,1.495,1.494C86.018,142.066,85.348,142.735,84.523,142.735z"/>
	<path d="M84.523,150.845c-0.276,0-0.5,0.224-0.5,0.5v0.688c0,0.276,0.224,0.5,0.5,0.5s0.5-0.224,0.5-0.5v-0.688
		C85.023,151.068,84.8,150.845,84.523,150.845z"/>
	<path d="M79.037,149.742l-0.344,0.596c-0.138,0.239-0.056,0.545,0.183,0.683c0.079,0.046,0.165,0.067,0.25,0.067
		c0.173,0,0.341-0.09,0.434-0.25l0.344-0.596c0.138-0.239,0.056-0.545-0.183-0.683C79.481,149.419,79.175,149.503,79.037,149.742z"
		/>
	<path d="M75.175,147.137c0.084,0,0.17-0.021,0.249-0.066l0.596-0.344c0.239-0.139,0.322-0.444,0.184-0.684
		c-0.138-0.238-0.442-0.32-0.683-0.184l-0.596,0.344c-0.239,0.139-0.322,0.444-0.184,0.684
		C74.834,147.047,75.002,147.137,75.175,147.137z"/>
	<path d="M74.917,141.238c0-0.276-0.224-0.5-0.5-0.5h-0.688c-0.276,0-0.5,0.224-0.5,0.5s0.224,0.5,0.5,0.5h0.688
		C74.693,141.738,74.917,141.515,74.917,141.238z"/>
	<path d="M74.741,135.592c-0.138,0.239-0.056,0.545,0.183,0.683l0.596,0.344c0.079,0.045,0.165,0.067,0.25,0.067
		c0.173,0,0.341-0.089,0.434-0.25c0.138-0.239,0.056-0.545-0.183-0.683l-0.596-0.344C75.185,135.271,74.879,135.353,74.741,135.592z
		"/>
	<path d="M78.875,131.457c-0.239,0.138-0.321,0.444-0.183,0.683l0.344,0.596c0.093,0.161,0.261,0.25,0.434,0.25
		c0.085,0,0.171-0.021,0.25-0.067c0.239-0.138,0.321-0.444,0.183-0.683l-0.344-0.596C79.42,131.401,79.114,131.319,78.875,131.457z"
		/>
	<path d="M84.523,131.633c0.276,0,0.5-0.224,0.5-0.5v-0.688c0-0.276-0.224-0.5-0.5-0.5s-0.5,0.224-0.5,0.5v0.688
		C84.023,131.409,84.247,131.633,84.523,131.633z"/>
	<path d="M89.326,132.919c0.079,0.045,0.165,0.067,0.25,0.067c0.173,0,0.341-0.089,0.434-0.25l0.344-0.596
		c0.138-0.239,0.056-0.545-0.183-0.683c-0.239-0.138-0.545-0.056-0.683,0.183l-0.344,0.596
		C89.005,132.476,89.087,132.781,89.326,132.919z"/>
	<path d="M94.305,135.591c-0.139-0.24-0.446-0.322-0.683-0.183l-0.596,0.344c-0.239,0.138-0.321,0.444-0.183,0.683
		c0.093,0.161,0.261,0.25,0.434,0.25c0.085,0,0.171-0.021,0.25-0.067l0.596-0.344C94.361,136.136,94.443,135.831,94.305,135.591z"/>
	<path d="M94.629,141.739h0.688c0.276,0,0.5-0.224,0.5-0.5s-0.224-0.5-0.5-0.5h-0.688c-0.276,0-0.5,0.224-0.5,0.5
		S94.353,141.739,94.629,141.739z"/>
	<path d="M93.871,147.136c0.173,0,0.341-0.09,0.434-0.25c0.138-0.239,0.056-0.545-0.184-0.684l-0.596-0.344
		c-0.239-0.138-0.546-0.056-0.683,0.184c-0.138,0.239-0.056,0.545,0.184,0.684l0.596,0.344
		C93.701,147.114,93.787,147.136,93.871,147.136z"/>
	<path d="M90.009,149.742c-0.139-0.239-0.445-0.323-0.683-0.183c-0.239,0.138-0.321,0.443-0.183,0.683l0.344,0.596
		c0.093,0.16,0.261,0.25,0.434,0.25c0.085,0,0.171-0.021,0.25-0.067c0.239-0.138,0.321-0.443,0.183-0.683L90.009,149.742z"/>
	<path d="M85.023,145.438c0-0.276-0.224-0.5-0.5-0.5s-0.5,0.224-0.5,0.5v4.396c0,0.276,0.224,0.5,0.5,0.5s0.5-0.224,0.5-0.5V145.438
		z"/>
	<path d="M81.319,143.09c-0.139-0.239-0.445-0.322-0.683-0.183l-3.806,2.198c-0.239,0.138-0.321,0.443-0.183,0.683
		c0.093,0.16,0.261,0.25,0.434,0.25c0.085,0,0.171-0.021,0.25-0.067l3.806-2.197C81.375,143.635,81.457,143.329,81.319,143.09z"/>
	<path d="M76.829,137.374l3.807,2.198c0.079,0.045,0.165,0.067,0.25,0.067c0.173,0,0.341-0.09,0.434-0.25
		c0.138-0.239,0.056-0.545-0.183-0.683l-3.807-2.198c-0.239-0.139-0.545-0.056-0.683,0.183
		C76.507,136.93,76.589,137.236,76.829,137.374z"/>
	<path d="M84.023,137.039c0,0.276,0.224,0.5,0.5,0.5s0.5-0.224,0.5-0.5v-4.395c0-0.276-0.224-0.5-0.5-0.5s-0.5,0.224-0.5,0.5
		V137.039z"/>
	<path d="M91.717,136.509l-3.806,2.197c-0.239,0.138-0.321,0.444-0.183,0.683c0.093,0.16,0.261,0.25,0.434,0.25
		c0.085,0,0.171-0.021,0.25-0.067l3.806-2.197c0.239-0.138,0.321-0.444,0.183-0.683C92.262,136.453,91.956,136.37,91.717,136.509z"
		/>
	<path d="M92.217,145.104l-3.807-2.199c-0.239-0.139-0.545-0.057-0.683,0.183c-0.138,0.239-0.056,0.545,0.183,0.683l3.807,2.198
		c0.079,0.046,0.165,0.067,0.25,0.067c0.173,0,0.341-0.09,0.434-0.25C92.539,145.548,92.457,145.242,92.217,145.104z"/>
	<path d="M207.193,222.509c-1.375,0-2.494,1.119-2.494,2.494s1.119,2.494,2.494,2.494s2.494-1.119,2.494-2.494
		S208.568,222.509,207.193,222.509z M207.193,226.498c-0.825,0-1.495-0.669-1.495-1.495c0-0.825,0.67-1.494,1.495-1.494
		s1.495,0.669,1.495,1.494C208.688,225.829,208.019,226.498,207.193,226.498z"/>
	<path d="M207.193,234.608c-0.276,0-0.5,0.224-0.5,0.5v0.688c0,0.276,0.224,0.5,0.5,0.5s0.5-0.224,0.5-0.5v-0.688
		C207.693,234.832,207.47,234.608,207.193,234.608z"/>
	<path d="M202.391,233.321c-0.241-0.137-0.546-0.056-0.684,0.184l-0.344,0.597c-0.138,0.239-0.056,0.545,0.184,0.684
		c0.079,0.045,0.165,0.066,0.25,0.066c0.173,0,0.341-0.09,0.434-0.25l0.344-0.597C202.712,233.766,202.63,233.46,202.391,233.321z"
		/>
	<path d="M198.19,229.622l-0.596,0.344c-0.239,0.138-0.321,0.443-0.183,0.683c0.092,0.16,0.26,0.25,0.433,0.25
		c0.085,0,0.171-0.021,0.25-0.067l0.596-0.344c0.239-0.138,0.321-0.443,0.183-0.683C198.736,229.565,198.43,229.482,198.19,229.622z
		"/>
	<path d="M197.587,225.002c0-0.276-0.224-0.5-0.5-0.5h-0.688c-0.276,0-0.5,0.224-0.5,0.5s0.224,0.5,0.5,0.5h0.688
		C197.363,225.502,197.587,225.278,197.587,225.002z"/>
	<path d="M198.69,219.515l-0.597-0.344c-0.241-0.138-0.546-0.056-0.684,0.184s-0.056,0.545,0.184,0.684l0.597,0.344
		c0.079,0.045,0.165,0.066,0.25,0.066c0.173,0,0.341-0.09,0.434-0.25C199.012,219.959,198.93,219.653,198.69,219.515z"/>
	<path d="M202.141,216.749c0.085,0,0.171-0.021,0.25-0.067c0.239-0.138,0.321-0.443,0.183-0.683l-0.344-0.596
		c-0.138-0.239-0.442-0.323-0.683-0.183c-0.239,0.138-0.321,0.443-0.183,0.683l0.344,0.596
		C201.8,216.659,201.968,216.749,202.141,216.749z"/>
	<path d="M207.693,214.208c0-0.276-0.224-0.5-0.5-0.5s-0.5,0.224-0.5,0.5v0.688c0,0.276,0.224,0.5,0.5,0.5s0.5-0.224,0.5-0.5
		V214.208z"/>
	<path d="M212.157,215.402l-0.344,0.597c-0.138,0.239-0.056,0.545,0.184,0.684c0.079,0.045,0.165,0.066,0.25,0.066
		c0.173,0,0.341-0.09,0.434-0.25l0.344-0.597c0.138-0.239,0.056-0.545-0.184-0.684C212.6,215.081,212.295,215.163,212.157,215.402z"
		/>
	<path d="M216.292,219.173l-0.596,0.344c-0.239,0.138-0.321,0.443-0.183,0.683c0.092,0.16,0.26,0.25,0.433,0.25
		c0.085,0,0.171-0.021,0.25-0.067l0.596-0.344c0.239-0.138,0.321-0.443,0.183-0.683
		C216.837,219.116,216.531,219.033,216.292,219.173z"/>
	<path d="M217.988,224.502H217.3c-0.276,0-0.5,0.224-0.5,0.5s0.224,0.5,0.5,0.5h0.688c0.276,0,0.5-0.224,0.5-0.5
		S218.265,224.502,217.988,224.502z"/>
	<path d="M216.793,229.965l-0.597-0.344c-0.24-0.138-0.546-0.056-0.684,0.184s-0.056,0.545,0.184,0.684l0.597,0.344
		c0.079,0.045,0.165,0.066,0.25,0.066c0.173,0,0.341-0.09,0.434-0.25C217.114,230.409,217.032,230.104,216.793,229.965z"/>
	<path d="M212.679,233.504c-0.137-0.239-0.443-0.322-0.683-0.183c-0.239,0.138-0.321,0.443-0.183,0.683l0.344,0.596
		c0.092,0.16,0.26,0.25,0.433,0.25c0.085,0,0.171-0.021,0.25-0.067c0.239-0.138,0.321-0.443,0.183-0.683L212.679,233.504z"/>
	<path d="M207.193,228.702c-0.276,0-0.5,0.224-0.5,0.5v4.396c0,0.276,0.224,0.5,0.5,0.5s0.5-0.224,0.5-0.5v-4.396
		C207.693,228.926,207.47,228.702,207.193,228.702z"/>
	<path d="M203.307,226.669l-3.808,2.197c-0.239,0.138-0.321,0.443-0.183,0.683c0.092,0.16,0.26,0.25,0.433,0.25
		c0.085,0,0.171-0.021,0.25-0.067l3.808-2.197c0.239-0.138,0.321-0.443,0.183-0.683
		C203.852,226.612,203.546,226.529,203.307,226.669z"/>
	<path d="M199.499,221.136l3.807,2.198c0.079,0.046,0.165,0.067,0.25,0.067c0.172,0,0.341-0.09,0.433-0.25
		c0.139-0.239,0.057-0.545-0.183-0.683l-3.807-2.198c-0.239-0.138-0.546-0.056-0.683,0.183
		C199.178,220.692,199.26,220.998,199.499,221.136z"/>
	<path d="M207.193,215.905c-0.276,0-0.5,0.224-0.5,0.5v4.396c0,0.276,0.224,0.5,0.5,0.5s0.5-0.224,0.5-0.5v-4.396
		C207.693,216.129,207.47,215.905,207.193,215.905z"/>
	<path d="M214.388,220.272l-3.807,2.197c-0.239,0.138-0.321,0.443-0.183,0.683c0.092,0.16,0.261,0.25,0.433,0.25
		c0.085,0,0.171-0.021,0.25-0.067l3.807-2.197c0.239-0.138,0.321-0.443,0.183-0.683
		C214.934,220.216,214.627,220.134,214.388,220.272z"/>
	<path d="M214.888,228.867l-3.807-2.198c-0.238-0.138-0.545-0.057-0.683,0.183c-0.139,0.239-0.057,0.545,0.183,0.683l3.807,2.198
		c0.079,0.046,0.165,0.067,0.25,0.067c0.172,0,0.341-0.09,0.433-0.25C215.209,229.311,215.127,229.005,214.888,228.867z"/>
	<path d="M35.269,163.177c-1.375,0-2.494,1.119-2.494,2.494s1.119,2.494,2.494,2.494s2.494-1.119,2.494-2.494
		S36.644,163.177,35.269,163.177z M35.269,167.166c-0.825,0-1.495-0.669-1.495-1.495c0-0.825,0.67-1.494,1.495-1.494
		c0.825,0,1.495,0.669,1.495,1.494C36.763,166.497,36.093,167.166,35.269,167.166z"/>
	<path d="M35.269,175.276c-0.276,0-0.5,0.224-0.5,0.5v0.688c0,0.276,0.224,0.5,0.5,0.5s0.5-0.224,0.5-0.5v-0.688
		C35.769,175.5,35.545,175.276,35.269,175.276z"/>
	<path d="M30.465,173.989c-0.241-0.14-0.545-0.057-0.683,0.183l-0.344,0.597c-0.138,0.239-0.056,0.545,0.183,0.683
		c0.079,0.046,0.165,0.067,0.25,0.067c0.173,0,0.341-0.09,0.434-0.25l0.344-0.597C30.787,174.433,30.705,174.127,30.465,173.989z"/>
	<path d="M26.266,170.29l-0.596,0.345c-0.239,0.138-0.321,0.443-0.182,0.683c0.092,0.16,0.26,0.25,0.433,0.25
		c0.085,0,0.171-0.021,0.25-0.067l0.596-0.345c0.239-0.138,0.321-0.443,0.182-0.683S26.505,170.149,26.266,170.29z"/>
	<path d="M25.663,165.669c0-0.276-0.224-0.5-0.5-0.5h-0.688c-0.276,0-0.5,0.224-0.5,0.5s0.224,0.5,0.5,0.5h0.688
		C25.439,166.169,25.663,165.945,25.663,165.669z"/>
	<path d="M26.767,160.185l-0.597-0.345c-0.239-0.141-0.545-0.057-0.683,0.183s-0.056,0.545,0.183,0.683l0.597,0.345
		c0.079,0.046,0.165,0.067,0.25,0.067c0.173,0,0.341-0.09,0.434-0.25C27.088,160.628,27.006,160.322,26.767,160.185z"/>
	<path d="M29.783,157.168c0.092,0.16,0.26,0.25,0.433,0.25c0.085,0,0.171-0.021,0.25-0.067c0.239-0.138,0.321-0.444,0.182-0.683
		l-0.345-0.597c-0.138-0.239-0.443-0.322-0.683-0.183c-0.239,0.138-0.321,0.444-0.182,0.683L29.783,157.168z"/>
	<path d="M35.769,154.876c0-0.276-0.224-0.5-0.5-0.5s-0.5,0.224-0.5,0.5v0.688c0,0.276,0.224,0.5,0.5,0.5s0.5-0.224,0.5-0.5V154.876
		z"/>
	<path d="M40.233,156.071l-0.344,0.597c-0.138,0.239-0.056,0.545,0.183,0.683c0.079,0.046,0.165,0.067,0.25,0.067
		c0.173,0,0.341-0.09,0.434-0.25l0.344-0.597c0.138-0.239,0.056-0.545-0.183-0.683C40.676,155.749,40.371,155.832,40.233,156.071z"
		/>
	<path d="M44.367,159.84l-0.596,0.345c-0.239,0.138-0.321,0.443-0.182,0.683c0.092,0.16,0.26,0.25,0.433,0.25
		c0.085,0,0.171-0.021,0.25-0.067l0.596-0.345c0.239-0.138,0.321-0.443,0.182-0.683C44.912,159.783,44.605,159.699,44.367,159.84z"
		/>
	<path d="M46.062,165.17h-0.688c-0.276,0-0.5,0.224-0.5,0.5s0.224,0.5,0.5,0.5h0.688c0.276,0,0.5-0.224,0.5-0.5
		S46.338,165.17,46.062,165.17z"/>
	<path d="M44.866,170.633l-0.597-0.344c-0.24-0.138-0.545-0.056-0.683,0.185c-0.138,0.239-0.056,0.545,0.184,0.683l0.597,0.344
		c0.079,0.045,0.165,0.066,0.249,0.066c0.173,0,0.341-0.09,0.434-0.251C45.188,171.076,45.105,170.771,44.866,170.633z"/>
	<path d="M40.753,174.171c-0.139-0.239-0.446-0.321-0.683-0.182c-0.239,0.139-0.321,0.444-0.182,0.684l0.345,0.596
		c0.093,0.16,0.261,0.249,0.433,0.249c0.085,0,0.171-0.021,0.25-0.067c0.239-0.139,0.321-0.444,0.182-0.684L40.753,174.171z"/>
	<path d="M35.269,169.37c-0.276,0-0.5,0.224-0.5,0.5v4.396c0,0.276,0.224,0.5,0.5,0.5s0.5-0.224,0.5-0.5v-4.396
		C35.769,169.594,35.545,169.37,35.269,169.37z"/>
	<path d="M31.381,167.337l-3.807,2.198c-0.239,0.138-0.321,0.443-0.183,0.683c0.093,0.16,0.261,0.25,0.434,0.25
		c0.085,0,0.171-0.021,0.25-0.067l3.807-2.198c0.239-0.138,0.321-0.443,0.183-0.683S31.619,167.196,31.381,167.337z"/>
	<path d="M31.881,163.138l-3.807-2.198c-0.239-0.14-0.545-0.057-0.683,0.183c-0.138,0.239-0.056,0.545,0.183,0.683l3.807,2.198
		c0.079,0.046,0.165,0.067,0.25,0.067c0.173,0,0.341-0.09,0.434-0.25C32.202,163.581,32.12,163.275,31.881,163.138z"/>
	<path d="M35.269,156.573c-0.276,0-0.5,0.224-0.5,0.5v4.396c0,0.276,0.224,0.5,0.5,0.5s0.5-0.224,0.5-0.5v-4.396
		C35.769,156.797,35.545,156.573,35.269,156.573z"/>
	<path d="M42.463,160.939l-3.807,2.198c-0.239,0.138-0.321,0.443-0.183,0.683c0.093,0.16,0.261,0.25,0.434,0.25
		c0.085,0,0.171-0.021,0.25-0.067l3.807-2.198c0.239-0.138,0.321-0.443,0.183-0.683C43.007,160.883,42.702,160.8,42.463,160.939z"/>
	<path d="M42.962,169.535l-3.807-2.198c-0.239-0.141-0.545-0.057-0.683,0.183c-0.138,0.239-0.056,0.545,0.183,0.683l3.807,2.198
		c0.079,0.046,0.165,0.067,0.25,0.067c0.173,0,0.341-0.09,0.434-0.25C43.284,169.979,43.202,169.673,42.962,169.535z"/>
	<path d="M104.913,37.102c1.375,0,2.494-1.119,2.494-2.494s-1.119-2.494-2.494-2.494s-2.494,1.119-2.494,2.494
		S103.538,37.102,104.913,37.102z M104.913,33.114c0.825,0,1.495,0.669,1.495,1.494c0,0.826-0.67,1.495-1.495,1.495
		c-0.825,0-1.495-0.669-1.495-1.495C103.417,33.783,104.087,33.114,104.913,33.114z"/>
	<path d="M104.413,45.401c0,0.276,0.224,0.5,0.5,0.5s0.5-0.224,0.5-0.5v-0.688c0-0.276-0.224-0.5-0.5-0.5s-0.5,0.224-0.5,0.5V45.401
		z"/>
	<path d="M99.425,43.109l-0.344,0.596c-0.138,0.239-0.056,0.545,0.184,0.683c0.079,0.045,0.164,0.067,0.249,0.067
		c0.173,0,0.341-0.09,0.434-0.25l0.344-0.596c0.138-0.239,0.056-0.545-0.184-0.683C99.869,42.787,99.563,42.869,99.425,43.109z"/>
	<path d="M95.91,39.227l-0.596,0.344c-0.239,0.138-0.321,0.444-0.183,0.683c0.093,0.16,0.261,0.25,0.434,0.25
		c0.085,0,0.171-0.021,0.25-0.067l0.596-0.344c0.239-0.138,0.321-0.444,0.183-0.683S96.147,39.089,95.91,39.227z"/>
	<path d="M94.118,35.107h0.688c0.276,0,0.5-0.224,0.5-0.5s-0.224-0.5-0.5-0.5h-0.688c-0.276,0-0.5,0.224-0.5,0.5
		S93.842,35.107,94.118,35.107z"/>
	<path d="M95.314,29.642l0.596,0.344c0.079,0.045,0.165,0.067,0.25,0.067c0.173,0,0.341-0.089,0.434-0.25
		c0.138-0.239,0.056-0.545-0.183-0.683l-0.596-0.344c-0.239-0.139-0.545-0.057-0.683,0.183
		C94.993,29.198,95.075,29.504,95.314,29.642z"/>
	<path d="M99.426,26.104c0.093,0.16,0.261,0.25,0.434,0.25c0.085,0,0.171-0.021,0.25-0.067c0.239-0.138,0.321-0.444,0.183-0.683
		l-0.344-0.596c-0.138-0.239-0.445-0.321-0.683-0.183c-0.239,0.138-0.321,0.444-0.183,0.683L99.426,26.104z"/>
	<path d="M104.913,25c0.276,0,0.5-0.224,0.5-0.5v-0.688c0-0.276-0.224-0.5-0.5-0.5s-0.5,0.224-0.5,0.5V24.5
		C104.413,24.777,104.636,25,104.913,25z"/>
	<path d="M109.716,26.288c0.079,0.045,0.165,0.067,0.25,0.067c0.173,0,0.341-0.09,0.434-0.25l0.344-0.596
		c0.138-0.239,0.056-0.545-0.183-0.683c-0.24-0.139-0.545-0.056-0.683,0.183l-0.344,0.596
		C109.395,25.844,109.477,26.149,109.716,26.288z"/>
	<path d="M113.666,30.054c0.085,0,0.171-0.021,0.25-0.067l0.596-0.344c0.239-0.138,0.321-0.444,0.183-0.683
		c-0.139-0.239-0.445-0.321-0.683-0.183l-0.596,0.344c-0.239,0.138-0.321,0.444-0.183,0.683
		C113.325,29.964,113.493,30.054,113.666,30.054z"/>
	<path d="M114.519,34.607c0,0.276,0.224,0.5,0.5,0.5h0.688c0.276,0,0.5-0.224,0.5-0.5s-0.224-0.5-0.5-0.5h-0.688
		C114.743,34.107,114.519,34.331,114.519,34.607z"/>
	<path d="M113.416,40.093l0.596,0.344c0.079,0.045,0.165,0.067,0.249,0.067c0.173,0,0.341-0.09,0.434-0.25
		c0.138-0.239,0.056-0.545-0.184-0.683l-0.596-0.344c-0.239-0.138-0.545-0.056-0.683,0.184
		C113.094,39.649,113.176,39.956,113.416,40.093z"/>
	<path d="M109.715,42.926c-0.239,0.138-0.322,0.444-0.184,0.683l0.344,0.596c0.092,0.161,0.261,0.25,0.434,0.25
		c0.084,0,0.17-0.021,0.249-0.067c0.239-0.138,0.322-0.444,0.184-0.683l-0.344-0.596C110.261,42.871,109.955,42.788,109.715,42.926z
		"/>
	<path d="M104.913,43.702c0.276,0,0.5-0.224,0.5-0.5v-4.395c0-0.276-0.224-0.5-0.5-0.5s-0.5,0.224-0.5,0.5v4.395
		C104.413,43.479,104.636,43.702,104.913,43.702z"/>
	<path d="M101.708,36.457c-0.139-0.239-0.446-0.321-0.683-0.183l-3.806,2.197c-0.239,0.138-0.321,0.444-0.183,0.683
		c0.093,0.16,0.261,0.25,0.434,0.25c0.085,0,0.171-0.021,0.25-0.067l3.806-2.197C101.764,37.002,101.846,36.696,101.708,36.457z"/>
	<path d="M97.218,30.741l3.807,2.198c0.079,0.045,0.165,0.067,0.25,0.067c0.173,0,0.341-0.09,0.434-0.25
		c0.138-0.239,0.056-0.545-0.183-0.683l-3.807-2.198c-0.239-0.139-0.545-0.056-0.683,0.183S96.979,30.603,97.218,30.741z"/>
	<path d="M104.913,30.907c0.276,0,0.5-0.224,0.5-0.5v-4.395c0-0.276-0.224-0.5-0.5-0.5s-0.5,0.224-0.5,0.5v4.395
		C104.413,30.683,104.636,30.907,104.913,30.907z"/>
	<path d="M108.551,33.007c0.085,0,0.171-0.021,0.25-0.067l3.806-2.197c0.239-0.138,0.321-0.444,0.183-0.683
		c-0.139-0.239-0.446-0.322-0.683-0.183l-3.806,2.197c-0.239,0.138-0.321,0.444-0.183,0.683
		C108.21,32.917,108.378,33.007,108.551,33.007z"/>
	<path d="M108.3,37.14l3.807,2.198c0.079,0.045,0.165,0.067,0.25,0.067c0.173,0,0.341-0.09,0.434-0.25
		c0.138-0.239,0.056-0.545-0.183-0.683l-3.807-2.198c-0.239-0.138-0.545-0.056-0.683,0.183
		C107.979,36.696,108.061,37.002,108.3,37.14z"/>
	<path d="M229.781,69.779c1.375,0,2.494-1.119,2.494-2.494s-1.119-2.494-2.494-2.494s-2.493,1.119-2.493,2.494
		S228.406,69.779,229.781,69.779z M229.781,65.792c0.825,0,1.495,0.669,1.495,1.494c0,0.826-0.67,1.495-1.495,1.495
		c-0.824,0-1.494-0.669-1.494-1.495C228.287,66.46,228.957,65.792,229.781,65.792z"/>
	<path d="M229.781,76.89c-0.276,0-0.5,0.224-0.5,0.5v0.688c0,0.276,0.224,0.5,0.5,0.5s0.5-0.224,0.5-0.5V77.39
		C230.281,77.113,230.058,76.89,229.781,76.89z"/>
	<path d="M224.295,75.788l-0.344,0.596c-0.138,0.239-0.056,0.545,0.184,0.683c0.079,0.045,0.165,0.067,0.25,0.067
		c0.173,0,0.341-0.09,0.434-0.25l0.344-0.596c0.138-0.239,0.056-0.545-0.184-0.683C224.738,75.466,224.433,75.547,224.295,75.788z"
		/>
	<path d="M220.78,71.905l-0.597,0.345c-0.239,0.138-0.321,0.444-0.183,0.683c0.093,0.16,0.261,0.25,0.433,0.25
		c0.085,0,0.172-0.021,0.25-0.067l0.597-0.345c0.239-0.138,0.321-0.444,0.183-0.683C221.325,71.849,221.017,71.767,220.78,71.905z"
		/>
	<path d="M218.988,67.785h0.688c0.276,0,0.5-0.224,0.5-0.5s-0.224-0.5-0.5-0.5h-0.688c-0.276,0-0.5,0.224-0.5,0.5
		S218.712,67.785,218.988,67.785z"/>
	<path d="M220.184,62.32l0.596,0.344c0.079,0.045,0.165,0.067,0.25,0.067c0.172,0,0.34-0.089,0.433-0.25
		c0.139-0.239,0.057-0.545-0.183-0.683l-0.596-0.344c-0.238-0.136-0.543-0.057-0.683,0.183
		C219.862,61.875,219.944,62.182,220.184,62.32z"/>
	<path d="M224.296,58.782c0.093,0.16,0.261,0.25,0.433,0.25c0.085,0,0.172-0.021,0.25-0.067c0.239-0.138,0.321-0.444,0.183-0.683
		l-0.345-0.596c-0.139-0.239-0.446-0.32-0.683-0.182c-0.239,0.138-0.321,0.444-0.183,0.683L224.296,58.782z"/>
	<path d="M229.781,57.678c0.276,0,0.5-0.224,0.5-0.5V56.49c0-0.276-0.224-0.5-0.5-0.5s-0.5,0.224-0.5,0.5v0.688
		C229.281,57.454,229.505,57.678,229.781,57.678z"/>
	<path d="M234.584,58.964c0.079,0.045,0.165,0.067,0.25,0.067c0.173,0,0.341-0.09,0.434-0.25l0.344-0.596
		c0.138-0.239,0.056-0.545-0.184-0.683c-0.241-0.138-0.545-0.056-0.684,0.184l-0.344,0.596
		C234.263,58.521,234.345,58.827,234.584,58.964z"/>
	<path d="M238.534,62.73c0.086,0,0.172-0.021,0.251-0.067l0.596-0.345c0.238-0.139,0.32-0.444,0.182-0.683
		c-0.14-0.241-0.446-0.32-0.684-0.182l-0.596,0.345c-0.238,0.139-0.32,0.444-0.182,0.683
		C238.194,62.641,238.362,62.73,238.534,62.73z"/>
	<path d="M239.389,67.283c0,0.276,0.224,0.5,0.5,0.5h0.688c0.276,0,0.5-0.224,0.5-0.5s-0.224-0.5-0.5-0.5h-0.688
		C239.612,66.783,239.389,67.007,239.389,67.283z"/>
	<path d="M239.381,72.248l-0.596-0.344c-0.238-0.137-0.544-0.057-0.683,0.183c-0.139,0.239-0.057,0.545,0.183,0.683l0.596,0.344
		c0.079,0.045,0.165,0.067,0.25,0.067c0.172,0,0.34-0.089,0.433-0.25C239.702,72.692,239.62,72.386,239.381,72.248z"/>
	<path d="M234.584,75.603c-0.239,0.138-0.321,0.444-0.183,0.683l0.345,0.596c0.093,0.16,0.261,0.25,0.433,0.25
		c0.085,0,0.172-0.021,0.25-0.067c0.239-0.138,0.321-0.444,0.183-0.683l-0.345-0.596C235.128,75.546,234.821,75.464,234.584,75.603z
		"/>
	<path d="M230.281,71.484c0-0.276-0.224-0.5-0.5-0.5s-0.5,0.224-0.5,0.5v4.395c0,0.276,0.224,0.5,0.5,0.5s0.5-0.224,0.5-0.5V71.484z
		"/>
	<path d="M222.338,72.083c0.085,0,0.171-0.021,0.25-0.067l3.807-2.197c0.239-0.138,0.321-0.444,0.183-0.683
		c-0.137-0.239-0.443-0.321-0.683-0.183l-3.807,2.197c-0.239,0.138-0.321,0.444-0.183,0.683
		C221.997,71.993,222.165,72.083,222.338,72.083z"/>
	<path d="M222.088,63.419l3.807,2.198c0.079,0.045,0.165,0.067,0.25,0.067c0.172,0,0.341-0.09,0.433-0.25
		c0.139-0.239,0.057-0.545-0.183-0.683l-3.807-2.198c-0.238-0.137-0.545-0.057-0.683,0.183
		C221.767,62.975,221.849,63.281,222.088,63.419z"/>
	<path d="M229.781,63.583c0.276,0,0.5-0.224,0.5-0.5v-4.395c0-0.276-0.224-0.5-0.5-0.5s-0.5,0.224-0.5,0.5v4.395
		C229.281,63.36,229.505,63.583,229.781,63.583z"/>
	<path d="M233.419,65.683c0.085,0,0.171-0.021,0.25-0.067l3.807-2.197c0.239-0.138,0.321-0.444,0.183-0.683
		c-0.138-0.24-0.443-0.322-0.683-0.183l-3.807,2.197c-0.239,0.138-0.321,0.444-0.183,0.683
		C233.078,65.593,233.246,65.683,233.419,65.683z"/>
	<path d="M237.227,72.082c0.172,0,0.341-0.089,0.433-0.25c0.139-0.239,0.057-0.545-0.183-0.683l-3.807-2.198
		c-0.237-0.137-0.545-0.057-0.683,0.183c-0.139,0.239-0.057,0.545,0.183,0.683l3.807,2.198
		C237.056,72.06,237.142,72.082,237.227,72.082z"/>
</g>
</svg>
