<?xml version="1.0" encoding="utf-8"?>
<!-- Generator: Adobe Illustrator 15.1.0, SVG Export Plug-In . SVG Version: 6.00 Build 0)  -->
<!DOCTYPE svg PUBLIC "-//W3C//DTD SVG 1.1//EN" "http://www.w3.org/Graphics/SVG/1.1/DTD/svg11.dtd">
<svg version="1.1" id="Layer_1" xmlns="http://www.w3.org/2000/svg" xmlns:xlink="http://www.w3.org/1999/xlink" x="0px" y="0px"
	 width="283.68px" height="283.92px" viewBox="0 0 283.68 283.92" enable-background="new 0 0 283.68 283.92" xml:space="preserve">
<g>
	<path fill="none" d="M191.189,141.42c0-27.993-22.773-50.767-50.767-50.767s-50.767,22.774-50.767,50.767
		s22.774,50.767,50.767,50.767S191.189,169.413,191.189,141.42z"/>
	<path d="M128.144,256.356l-0.408-7.334l-6.157,4.007c-6.642,4.321-14.351,6.605-22.294,6.605c-9.78,0-19.255-3.512-26.68-9.889
		l-1.195-1.026H48.891c-13.537,0-24.549-11.013-24.549-24.549c0-5.616,1.851-10.903,5.354-15.292l1.778-2.229l-1.386-2.491
		c-0.694-1.248-1.161-2.601-1.388-4.022l-1.349-8.447l-5.919,6.176c-6.831,7.127-10.593,16.47-10.593,26.306
		c0,20.982,17.071,38.053,38.053,38.053h17.696c9.395,7.05,20.945,10.915,32.698,10.915c9.818,0,19.475-2.669,27.926-7.718
		l3.109-1.857l-1.339-3.365C128.5,258.989,128.218,257.696,128.144,256.356z"/>
	<path d="M261.024,70.742c-3.64-9.266-12.164-15.937-21.975-17.317c-5.311-25.109-27.199-42.993-53.276-42.993
		c-11.276,0-22.113,3.43-31.338,9.918l-2.062,1.45l0.282,2.504c0.059,0.517,0.087,0.973,0.087,1.395v13.357l6.96-5.75
		c7.314-6.043,16.573-9.371,26.07-9.371c22.009,0,39.991,17.213,40.938,39.188l0.223,5.157l5.019-1.206
		c1.133-0.272,2.249-0.41,3.318-0.41c4.571,0,8.887,2.245,11.544,6.004l0.354,0.501l0.481,0.38c1.234,0.975,2.25,2.146,3.021,3.481
		c0.505,0.874,0.907,1.855,1.196,2.917l0.672,2.466l2.494,0.563c2.788,0.63,4.736,3.067,4.736,5.926
		c0,3.355-2.729,6.085-6.085,6.085h-9.479l-23.392,13.504h32.87c10.802,0,19.589-8.788,19.589-19.589
		C273.274,80.867,268.34,73.701,261.024,70.742z"/>
	<path d="M114.227,57.987c2.611-4.423,6.634-7.99,11.328-10.043l2.548-1.114V32.596l-5.706,2.077
		c-7.316,2.663-13.576,7.453-18.101,13.854l-1.571,2.223l7.799,13.509L114.227,57.987z"/>
	<path fill="#020202" d="M25.438,150.256h29.968c5.286,0,9.572-4.285,9.572-9.572c0-5.286-4.286-9.572-9.572-9.572H25.438
		c-5.286,0-9.572,4.286-9.572,9.572C15.867,145.971,20.153,150.256,25.438,150.256z"/>
	<path fill="#020202" d="M36.057,91.482l25.953,14.983c4.578,2.644,10.432,1.075,13.076-3.503
		c2.642-4.578,1.074-10.433-3.504-13.076L45.63,74.902c-4.579-2.643-10.433-1.074-13.076,3.504
		C29.91,82.984,31.478,88.838,36.057,91.482z"/>
	<path fill="#020202" d="M89.625,71.842c2.643,4.579,8.498,6.148,13.076,3.504c4.578-2.643,6.147-8.497,3.504-13.076L91.221,36.318
		c-2.643-4.579-8.498-6.147-13.076-3.504s-6.146,8.498-3.504,13.076L89.625,71.842z"/>
	<path fill="#020202" d="M140.423,65.239c5.286,0,9.572-4.286,9.572-9.572V25.699c0-5.286-4.286-9.572-9.572-9.572
		c-5.287,0-9.572,4.286-9.572,9.572v29.968C130.851,60.954,135.136,65.239,140.423,65.239z"/>
	<path fill="#020202" d="M202.7,32.815c-4.578-2.644-10.432-1.076-13.076,3.503l-14.982,25.953
		c-2.645,4.578-1.075,10.432,3.503,13.076c4.578,2.642,10.433,1.074,13.076-3.504l14.983-25.952
		C208.848,41.312,207.278,35.458,202.7,32.815z"/>
	<path fill="#020202" d="M205.76,102.961c2.644,4.578,8.497,6.147,13.076,3.504l25.952-14.984c4.579-2.643,6.146-8.498,3.504-13.076
		s-8.498-6.146-13.076-3.504l-25.952,14.984C204.685,92.528,203.116,98.383,205.76,102.961z"/>
	<path fill="#020202" d="M255.407,131.112h-29.968c-5.286,0-9.572,4.285-9.572,9.572c0,5.286,4.286,9.572,9.572,9.572h29.968
		c5.286,0,9.571-4.286,9.571-9.572C264.979,135.396,260.693,131.112,255.407,131.112z"/>
	<path fill="#020202" d="M244.788,189.885l-25.952-14.982c-4.578-2.645-10.433-1.075-13.076,3.503
		c-2.643,4.578-1.074,10.433,3.504,13.076l25.952,14.983c4.579,2.644,10.433,1.074,13.075-3.504
		C250.936,198.383,249.367,192.529,244.788,189.885z"/>
	<path fill="#020202" d="M191.221,209.524c-2.643-4.579-8.497-6.147-13.075-3.504s-6.147,8.497-3.504,13.076l14.983,25.952
		c2.644,4.579,8.498,6.146,13.076,3.504s6.146-8.498,3.504-13.076L191.221,209.524z"/>
	<path fill="#020202" d="M140.423,216.128c-5.286,0-9.572,4.286-9.572,9.572v29.968c0,5.286,4.286,9.571,9.572,9.571
		c5.287,0,9.572-4.285,9.572-9.571V225.7C149.995,220.414,145.71,216.128,140.423,216.128z"/>
	<path fill="#020202" d="M78.146,248.552c4.578,2.644,10.432,1.075,13.076-3.504l14.983-25.952
		c2.644-4.578,1.075-10.433-3.503-13.076c-4.578-2.643-10.433-1.074-13.076,3.504l-14.984,25.952
		C71.999,240.055,73.567,245.908,78.146,248.552z"/>
	<path fill="#020202" d="M62.01,174.901l-25.952,14.983c-4.579,2.644-6.147,8.498-3.504,13.076s8.498,6.146,13.076,3.504
		l25.952-14.984c4.579-2.643,6.148-8.497,3.504-13.075C72.443,173.827,66.589,172.258,62.01,174.901z"/>
	<path d="M171.603,219.12l-0.19-0.448l-0.288-0.394c-2.861-3.922-6.625-6.96-10.937-8.91c2.809-0.819,5.546-1.808,8.2-2.954
		c5.295-2.286,10.255-5.201,14.79-8.651c5.443-4.142,10.27-9.052,14.318-14.568c3.227-4.396,5.969-9.171,8.123-14.254
		c2.707-6.391,4.498-13.259,5.215-20.438c0.233-2.33,0.355-4.691,0.355-7.082c0-2.795-0.181-5.547-0.498-8.259
		c-0.881-7.539-2.949-14.715-6.016-21.345c-1.975-4.268-4.357-8.308-7.106-12.067c-4.587-6.274-10.182-11.762-16.544-16.236
		c-3.555-2.5-7.348-4.679-11.34-6.5c-7.082-3.23-14.781-5.329-22.873-6.057c-2.106-0.189-4.234-0.302-6.39-0.302
		c-2.155,0-4.283,0.113-6.39,0.302c-8.093,0.728-15.792,2.827-22.875,6.058c-3.992,1.821-7.784,4-11.338,6.499
		c-6.361,4.474-11.956,9.961-16.543,16.235c-2.75,3.76-5.133,7.801-7.108,12.071c-3.066,6.628-5.135,13.805-6.015,21.342
		c-0.317,2.712-0.498,5.464-0.498,8.26c0,2.391,0.123,4.753,0.355,7.083c0.717,7.18,2.508,14.048,5.216,20.438
		c2.154,5.083,4.896,9.857,8.123,14.254c4.049,5.517,8.874,10.426,14.317,14.567c4.536,3.45,9.498,6.367,14.794,8.654
		c6.03,2.604,12.494,4.381,19.248,5.215c2.858,0.353,5.762,0.556,8.714,0.556c0.692,0,1.382-0.014,2.068-0.035l4.976,3.505
		c1.431,1.008,2.595,2.235,3.46,3.649l0.813,1.328l1.479,0.489c5.177,1.712,8.947,6.304,9.606,11.698l0.466,3.809l3.836-0.073
		c0.052-0.001,0.104-0.003,0.156-0.005c3.315,0.047,5.998,2.758,5.998,6.083c0,3.355-2.729,6.085-6.085,6.085h-14.453v6.948
		c0,0.499-0.044,1.042-0.138,1.71l-0.684,4.846h15.274c9.175,0,17.021-6.251,19.079-15.202l0.375-1.631l-14.389-24.921
		C172.04,220.086,171.83,219.657,171.603,219.12z M89.656,141.42c0-27.993,22.774-50.767,50.767-50.767s50.767,22.774,50.767,50.767
		s-22.773,50.767-50.767,50.767S89.656,169.413,89.656,141.42z"/>
</g>
</svg>
