<?xml version="1.0" encoding="utf-8"?>
<!-- Generator: Adobe Illustrator 15.1.0, SVG Export Plug-In . SVG Version: 6.00 Build 0)  -->
<!DOCTYPE svg PUBLIC "-//W3C//DTD SVG 1.1//EN" "http://www.w3.org/Graphics/SVG/1.1/DTD/svg11.dtd">
<svg version="1.1" id="Layer_1" xmlns="http://www.w3.org/2000/svg" xmlns:xlink="http://www.w3.org/1999/xlink" x="0px" y="0px"
	 width="283.68px" height="283.92px" viewBox="0 0 283.68 283.92" enable-background="new 0 0 283.68 283.92" xml:space="preserve">
<g>
	<path d="M221.703,76.967c-5.859,0-11.347,1.561-16.103,4.261c0.046-0.988,0.076-1.98,0.076-2.979
		c0-35.404-28.701-64.105-64.106-64.105c-24.924,0-46.51,14.234-57.115,35.008c-2.281-0.341-4.614-0.522-6.99-0.522
		c-25.881,0-46.862,20.981-46.862,46.863c0,25.881,20.981,46.862,46.862,46.862h144.237c18.056,0,32.693-14.638,32.693-32.694
		C254.396,91.604,239.759,76.967,221.703,76.967"/>
	<path d="M248.803,190.169h-112.77c-8.463,0-15.323-6.86-15.323-15.323s6.86-15.323,15.323-15.323h112.77
		c8.463,0,15.323,6.86,15.323,15.323S257.266,190.169,248.803,190.169"/>
	<path d="M210.522,238.388H70.478c-8.463,0-15.323-6.859-15.323-15.323c0-8.463,6.86-15.322,15.323-15.322h140.045
		c8.463,0,15.323,6.859,15.323,15.322C225.846,231.528,218.985,238.388,210.522,238.388"/>
</g>
</svg>
