<?xml version="1.0" encoding="utf-8"?>
<!-- Generator: Adobe Illustrator 15.1.0, SVG Export Plug-In . SVG Version: 6.00 Build 0)  -->
<!DOCTYPE svg PUBLIC "-//W3C//DTD SVG 1.1//EN" "http://www.w3.org/Graphics/SVG/1.1/DTD/svg11.dtd">
<svg version="1.1" id="Layer_1" xmlns="http://www.w3.org/2000/svg" xmlns:xlink="http://www.w3.org/1999/xlink" x="0px" y="0px"
	 width="283.465px" height="283.465px" viewBox="0 0 283.465 283.465" enable-background="new 0 0 283.465 283.465"
	 xml:space="preserve">
<path fill-rule="evenodd" clip-rule="evenodd" d="M29.825,252.333h155.707l0.339-0.311l0.24,0.311h68.349
	c5.228-7.063,8.321-15.794,8.321-25.246c0-44.304-26.518-95.099-53.035-147.681c6.089,32.669,0.523,56.665-7.586,77.101
	c-11.443-60.544-42.368-110.223-62.825-149.42c7.474,54.483-32.098,90.353-53.797,137.962c-6.386-19.687-10.327-40.292-4.486-65.643
	c-23.699,41.853-59.54,92.034-59.54,147.681C21.511,236.539,24.598,245.27,29.825,252.333z M30.708,276.378h222.875
	c5.072,0,9.197-4.125,9.197-9.196c0-5.086-4.125-9.212-9.197-9.212H30.708c-5.079,0-9.197,4.126-9.197,9.212
	C21.511,272.253,25.629,276.378,30.708,276.378z"/>
</svg>
