<?xml version="1.0" encoding="utf-8"?>
<!-- Generator: Adobe Illustrator 15.1.0, SVG Export Plug-In . SVG Version: 6.00 Build 0)  -->
<!DOCTYPE svg PUBLIC "-//W3C//DTD SVG 1.1//EN" "http://www.w3.org/Graphics/SVG/1.1/DTD/svg11.dtd">
<svg version="1.1" id="Layer_1" xmlns="http://www.w3.org/2000/svg" xmlns:xlink="http://www.w3.org/1999/xlink" x="0px" y="0px"
	 width="283.46px" height="283.46px" viewBox="0 0 283.46 283.46" enable-background="new 0 0 283.46 283.46" xml:space="preserve">
<g>
	<path d="M67.728,197.555h159.128c3.369,0,6.105-2.734,6.105-6.102c0-3.368-2.736-6.104-6.105-6.104H67.728
		c-3.366,0-6.102,2.736-6.102,6.104C61.626,194.821,64.361,197.555,67.728,197.555z"/>
	<path d="M193.943,221.903h67.266c3.369,0,6.104-2.734,6.104-6.101c0-3.369-2.735-6.105-6.104-6.105h-67.266
		c-3.368,0-6.104,2.736-6.104,6.105C187.839,219.167,190.575,221.903,193.943,221.903z"/>
	<path d="M39.822,221.903h132.33c3.37,0,6.104-2.734,6.104-6.101c0-3.369-2.734-6.105-6.104-6.105H39.822
		c-3.37,0-6.105,2.736-6.105,6.105C33.718,219.167,36.454,221.903,39.822,221.903z"/>
	<path d="M107.17,246.183h161.346c3.362,0,6.099-2.734,6.099-6.104c0-3.371-2.734-6.105-6.099-6.105H107.17
		c-3.37,0-6.105,2.734-6.105,6.105C101.063,243.449,103.8,246.183,107.17,246.183z"/>
	<path d="M25.939,143.404c0,3.369,2.735,6.104,6.101,6.104h159.128c3.369,0,6.106-2.734,6.106-6.104
		c0-3.369-2.737-6.103-6.106-6.103H32.04C28.674,137.301,25.939,140.037,25.939,143.404z"/>
	<path d="M198.583,119.054c0,3.372,2.734,6.107,6.104,6.107h67.267c3.37,0,6.105-2.735,6.105-6.107c0-3.367-2.735-6.101-6.105-6.101
		h-67.267C201.317,112.953,198.582,115.687,198.583,119.054z"/>
	<path d="M41.22,119.054c0,3.372,2.734,6.107,6.105,6.107h132.33c3.371,0,6.104-2.735,6.104-6.107c0-3.367-2.732-6.101-6.104-6.101
		H47.325C43.955,112.953,41.221,115.687,41.22,119.054z"/>
	<path d="M13.211,167.696c0,3.37,2.734,6.105,6.104,6.105H86.58c3.372,0,6.104-2.735,6.104-6.105c0-3.366-2.732-6.102-6.104-6.102
		H19.315C15.945,161.594,13.211,164.331,13.211,167.696z"/>
	<path d="M115.57,167.696c0,3.37,2.735,6.105,6.105,6.105h132.332c3.369,0,6.103-2.735,6.103-6.105c0-3.366-2.733-6.102-6.103-6.102
		H121.675C118.306,161.594,115.57,164.331,115.57,167.696z"/>
	<path d="M197.275,95.006c0-3.37-2.736-6.104-6.104-6.104H32.046c-3.372,0-6.106,2.734-6.106,6.104c0,3.366,2.735,6.102,6.106,6.102
		h159.125C194.539,101.108,197.273,98.372,197.275,95.006z"/>
	<path d="M184.545,46.905c0-3.37-2.735-6.104-6.101-6.104H19.316c-3.371,0-6.105,2.733-6.105,6.104c0,3.366,2.734,6.101,6.105,6.101
		h159.129C181.81,53.006,184.543,50.27,184.545,46.905z"/>
	<path d="M113.529,71.252c0-3.37-2.735-6.105-6.106-6.105H40.159c-3.371,0-6.104,2.735-6.104,6.105c0,3.366,2.733,6.101,6.104,6.101
		h67.264C110.793,77.353,113.531,74.618,113.529,71.252z"/>
	<path d="M270.892,71.252c0-3.37-2.735-6.105-6.105-6.105H132.456c-3.37,0-6.103,2.735-6.103,6.105c0,3.366,2.732,6.101,6.103,6.101
		h132.331C268.157,77.353,270.893,74.618,270.892,71.252z"/>
	<path d="M8.768,240.077c0,3.371,2.734,6.106,6.104,6.106h67.266c3.37,0,6.105-2.735,6.105-6.106c0-3.368-2.735-6.102-6.105-6.102
		H14.872C11.502,233.975,8.767,236.708,8.768,240.077z"/>
	<path d="M192.839,46.901c0,3.37,2.734,6.105,6.104,6.105h67.265c3.372,0,6.104-2.735,6.104-6.105c0-3.366-2.732-6.102-6.104-6.102
		h-67.265C195.574,40.8,192.839,43.536,192.839,46.901z"/>
</g>
</svg>
