<?xml version="1.0" encoding="utf-8"?>
<!-- Generator: Adobe Illustrator 15.1.0, SVG Export Plug-In . SVG Version: 6.00 Build 0)  -->
<!DOCTYPE svg PUBLIC "-//W3C//DTD SVG 1.1//EN" "http://www.w3.org/Graphics/SVG/1.1/DTD/svg11.dtd">
<svg version="1.1" id="Layer_1" xmlns="http://www.w3.org/2000/svg" xmlns:xlink="http://www.w3.org/1999/xlink" x="0px" y="0px"
	 width="283.465px" height="283.465px" viewBox="0 0 283.465 283.465" enable-background="new 0 0 283.465 283.465"
	 xml:space="preserve">
<path fill-rule="evenodd" clip-rule="evenodd" d="M71.535,182.224c-16.077,0-30.439-7.4-39.856-18.981
	c-7.197-8.843-11.507-20.116-11.507-32.382c0-28.349,23.015-51.363,51.363-51.363c3.484,0,6.315-2.831,6.315-6.314
	c0-28.349,23.014-51.363,51.363-51.363c28.342,0,51.357,23.014,51.357,51.363c0,3.484,2.824,6.314,6.315,6.314h25.949
	c28.355,0,51.369,23.015,51.369,51.363c0,12.266-4.316,23.539-11.507,32.382c-9.423,11.581-23.779,18.981-39.862,18.981
	c-3.478,0-6.314,2.824-6.314,6.314c0,3.479,2.837,6.315,6.314,6.315c20.03,0,37.914-9.214,49.655-23.644
	c8.967-11.014,14.344-25.063,14.344-40.35c0-35.317-28.676-63.993-63.999-63.993h-19.943c-3.17-32.357-30.488-57.678-63.678-57.678
	c-33.288,0-60.669,25.469-63.715,57.962C33.004,70.191,7.542,97.572,7.542,130.86c0,15.287,5.377,29.336,14.337,40.35
	c11.735,14.43,29.625,23.644,49.655,23.644c3.484,0,6.315-2.837,6.315-6.315C77.85,185.048,75.019,182.224,71.535,182.224z
	 M84.645,225.392l24.094-49.508c1.523-3.133,0.222-6.919-2.917-8.436c-3.133-1.529-6.913-0.223-8.436,2.91l-24.1,49.495
	c-1.523,3.133-0.216,6.919,2.917,8.448C79.335,229.831,83.122,228.523,84.645,225.392z M161.416,238.724l30.587-62.84
	c1.517-3.133,0.21-6.919-2.923-8.436c-3.133-1.529-6.907-0.223-8.437,2.91l-30.587,62.827c-1.518,3.133-0.223,6.92,2.923,8.449
	C156.112,243.151,159.886,241.856,161.416,238.724z M115.812,246.9l34.565-71.017c1.529-3.133,0.222-6.919-2.911-8.436
	c-3.132-1.529-6.919-0.223-8.436,2.91l-34.571,71.017c-1.529,3.133-0.222,6.92,2.911,8.449
	C110.502,251.341,114.289,250.046,115.812,246.9z M67.311,240.463c3.465,0,6.277,2.812,6.277,6.277s-2.812,6.278-6.277,6.278
	c-3.46,0-6.278-2.813-6.278-6.278S63.851,240.463,67.311,240.463z M144.087,253.795c3.466,0,6.277,2.813,6.277,6.278
	s-2.812,6.277-6.277,6.277s-6.278-2.812-6.278-6.277S140.621,253.795,144.087,253.795z M98.483,261.984
	c3.459,0,6.271,2.813,6.271,6.278s-2.812,6.277-6.271,6.277c-3.466,0-6.284-2.812-6.284-6.277S95.018,261.984,98.483,261.984z"/>
</svg>
