<?xml version="1.0" encoding="utf-8"?>
<!-- Generator: Adobe Illustrator 15.1.0, SVG Export Plug-In . SVG Version: 6.00 Build 0)  -->
<!DOCTYPE svg PUBLIC "-//W3C//DTD SVG 1.1//EN" "http://www.w3.org/Graphics/SVG/1.1/DTD/svg11.dtd">
<svg version="1.1" id="Layer_1" xmlns="http://www.w3.org/2000/svg" xmlns:xlink="http://www.w3.org/1999/xlink" x="0px" y="0px"
	 width="283.465px" height="283.465px" viewBox="0 0 283.465 283.465" enable-background="new 0 0 283.465 283.465"
	 xml:space="preserve">
<path d="M270.67,123.838c0,14.687-5.164,28.171-13.773,38.748c-11.228,13.812-34.791,22.563-53.992,22.622c-0.021,0-1.597,0-3.674,0
	l-7.31,16.142h19.436l-33.596,74.938l11.482-62.81h-19.791l12.336-67.461l35.152,0.082l-12.199,26.939
	c15.148-0.575,34.091-7.463,42.75-18.104c6.905-8.492,11.051-19.313,11.051-31.098c0-27.224-22.101-49.324-49.33-49.324h-24.92
	c-3.34,0-6.063-2.718-6.063-6.064c0-27.224-22.102-49.324-49.318-49.324c-27.224,0-49.324,22.101-49.324,49.324
	c0,3.346-2.712,6.064-6.064,6.064c-27.223,0-49.323,22.101-49.323,49.324c0,11.785,4.146,22.604,11.05,31.098
	c9.048,11.121,22.834,18.228,38.273,18.228c0.433,0,0.853,0.048,1.256,0.13l4.986-27.275l35.153,0.082l-25.021,55.25h19.436
	l-33.596,74.938l11.483-62.81H67.428l5.158-28.201c-18.85-0.284-35.655-9.062-46.741-22.692
	c-8.611-10.577-13.775-24.062-13.775-38.748c0-31.967,24.458-58.261,55.661-61.18c2.919-31.203,29.219-55.661,61.18-55.661
	c31.872,0,58.105,24.316,61.15,55.388h19.151C243.133,62.385,270.67,89.922,270.67,123.838z M130.324,146.018l-12.336,67.461h19.791
	l-11.482,62.81l33.596-74.938h-19.436l25.02-55.25L130.324,146.018z"/>
</svg>
