<?xml version="1.0" encoding="utf-8"?>
<!-- Generator: Adobe Illustrator 15.1.0, SVG Export Plug-In . SVG Version: 6.00 Build 0)  -->
<!DOCTYPE svg PUBLIC "-//W3C//DTD SVG 1.1//EN" "http://www.w3.org/Graphics/SVG/1.1/DTD/svg11.dtd">
<svg version="1.1" id="Layer_1" xmlns="http://www.w3.org/2000/svg" xmlns:xlink="http://www.w3.org/1999/xlink" x="0px" y="0px"
	 width="283.68px" height="283.92px" viewBox="0 0 283.68 283.92" enable-background="new 0 0 283.68 283.92" xml:space="preserve">
<g>
	<path d="M203.414,202.667l-15.763-30.357c22.089,1.562,65.426,4.626,76.184,5.385c-6.983-7.508-33.192-35.717-49.996-53.797
		c13.159-0.411,23.739-11.237,23.739-24.494c0-9.543-5.479-17.829-13.459-21.877c-4.159-8.969-12.244-15.66-21.927-18.012
		c-2.804-10.345-8.37-19.786-16.271-27.375c-11.173-10.731-25.858-16.641-41.354-16.641c-18.337,0-35.372,8.355-46.587,22.353
		c-1.404-0.138-2.819-0.207-4.241-0.207c-23.786,0-43.136,19.351-43.136,43.136c0,18.379,11.559,34.103,27.787,40.304l0.53,11.983
		c-17.302,3.125-48.585,8.783-56.253,10.161c5.047,5.618,35.942,40.045,48.384,53.903L37.811,207.71l-3.377,1.073l2.669,2.103
		l67.162,52.896l-61.958-53.234c10.924-2.121,41.387-8.053,43.509-8.457c0.066,0.095-20.81-29.516-32.905-46.67l35.401-2.957
		l36.41,57.334l3.032,4.775c1.583-1.396,15.899-14.012,23.316-20.548l9.526,69.757l-4.229-76.104l-0.3-5.39
		c-2.03,1.437-17.612,12.474-25.713,18.211l-30.343-54.76c0.534-5.994,1.305-14.612,1.948-21.822h8.08
		c10.054,7.132,22.123,11.009,34.53,11.009c12.407,0,24.476-3.877,34.53-11.009h8.774l-0.685,0.675l37.575,35.848
		c-22.057-0.18-54.267-0.427-58.016-0.492c4.793,6.968,28.06,40.855,33.271,48.432l1.429,0.029l26.415,0.559l-22.411,43.62
		l27.987-44.677l1.937-3.092l-3.785-0.255L203.414,202.667z M144.568,120.838c-11.348,0-21.721-4.152-29.704-11.009H93.74
		c-16.043,0-29.049-13.005-29.049-29.048c0-16.043,13.006-29.049,29.049-29.049c3.732,0,7.296,0.712,10.575,1.995
		c7.683-14.365,22.824-24.141,40.253-24.141c24.529,0,44.53,19.359,45.576,43.63c1.396-0.336,2.848-0.533,4.348-0.533
		c9.487,0,17.299,7.118,18.42,16.303c0.053-0.001,0.103-0.008,0.153-0.008c5.758,0,10.426,4.668,10.426,10.426
		c0,5.758-4.668,10.425-10.426,10.425h-38.793C166.289,116.686,155.916,120.838,144.568,120.838z"/>
</g>
</svg>
