<?xml version="1.0" encoding="utf-8"?>
<!-- Generator: Adobe Illustrator 15.1.0, SVG Export Plug-In . SVG Version: 6.00 Build 0)  -->
<!DOCTYPE svg PUBLIC "-//W3C//DTD SVG 1.1//EN" "http://www.w3.org/Graphics/SVG/1.1/DTD/svg11.dtd">
<svg version="1.1" id="Layer_1" xmlns="http://www.w3.org/2000/svg" xmlns:xlink="http://www.w3.org/1999/xlink" x="0px" y="0px"
	 width="283.465px" height="283.465px" viewBox="0 0 283.465 283.465" enable-background="new 0 0 283.465 283.465"
	 xml:space="preserve">
<path fill-rule="evenodd" clip-rule="evenodd" d="M186.43,71.188h25.949c28.355,0,51.369,23.015,51.369,51.357
	c0,12.278-4.316,23.551-11.507,32.388c-9.423,11.575-23.779,18.976-39.862,18.976c-3.478,0-6.314,2.836-6.314,6.314
	c0,3.49,2.837,6.314,6.314,6.314c20.03,0,37.926-9.213,49.655-23.631c8.967-11.021,14.344-25.068,14.344-40.362
	c0-35.317-28.676-63.986-63.999-63.986h-19.943c-3.17-32.357-30.488-57.678-63.678-57.678c-33.282,0-60.669,25.463-63.709,57.962
	c-32.493,3.04-57.961,30.42-57.961,63.703c0,15.294,5.377,29.341,14.344,40.362c11.735,14.418,29.625,23.631,49.649,23.631
	c3.484,0,6.314-2.824,6.314-6.314c0-3.479-2.831-6.314-6.314-6.314c-16.077,0-30.433-7.4-39.856-18.976
	c-7.19-8.837-11.507-20.11-11.507-32.388c0-28.342,23.015-51.357,51.363-51.357c3.49,0,6.314-2.831,6.314-6.315
	c0-28.349,23.015-51.363,51.363-51.363c28.342,0,51.357,23.014,51.357,51.363C180.114,68.357,182.951,71.188,186.43,71.188z
	 M84.542,243.494l24.094-76.789c1.042-3.33-0.808-6.87-4.138-7.918c-3.324-1.036-6.87,0.813-7.912,4.132l-24.094,76.788
	c-1.048,3.33,0.808,6.87,4.132,7.919C79.947,248.674,83.493,246.812,84.542,243.494z M161.306,264.177l30.587-97.472
	c1.049-3.33-0.813-6.87-4.131-7.918c-3.33-1.036-6.87,0.813-7.919,4.132l-30.587,97.472c-1.036,3.33,0.814,6.87,4.145,7.918
	C156.718,269.345,160.27,267.495,161.306,264.177z M115.708,276.881l34.571-110.176c1.036-3.33-0.813-6.87-4.132-7.918
	c-3.33-1.036-6.875,0.813-7.918,4.132l-34.571,110.176c-1.042,3.33,0.808,6.869,4.132,7.918
	C111.121,282.049,114.667,280.198,115.708,276.881z"/>
</svg>
