<?xml version="1.0" encoding="utf-8"?>
<!-- Generator: Adobe Illustrator 15.1.0, SVG Export Plug-In . SVG Version: 6.00 Build 0)  -->
<!DOCTYPE svg PUBLIC "-//W3C//DTD SVG 1.1//EN" "http://www.w3.org/Graphics/SVG/1.1/DTD/svg11.dtd">
<svg version="1.1" id="Layer_1" xmlns="http://www.w3.org/2000/svg" xmlns:xlink="http://www.w3.org/1999/xlink" x="0px" y="0px"
	 width="283.465px" height="283.465px" viewBox="0 0 283.465 283.465" enable-background="new 0 0 283.465 283.465"
	 xml:space="preserve">
<path fill-rule="evenodd" clip-rule="evenodd" d="M184.299,184.643l9.535-30.356c0.993-3.197-0.782-6.597-3.98-7.604
	c-3.186-1.006-6.598,0.782-7.592,3.968l-9.534,30.367c-0.995,3.187,0.781,6.598,3.967,7.592
	C179.893,189.616,183.304,187.84,184.299,184.643z M140.412,196.841l9.527-30.355c0.995-3.197-0.781-6.597-3.968-7.604
	c-3.197-1.007-6.602,0.781-7.603,3.968l-9.528,30.367c-1,3.186,0.776,6.597,3.968,7.604
	C136.006,201.815,139.411,200.038,140.412,196.841z M160.635,260.086l11.618-37.047c1.008-3.197-0.78-6.597-3.967-7.604
	c-3.197-0.994-6.597,0.781-7.604,3.979l-11.617,37.035c-1.008,3.198,0.77,6.598,3.967,7.604
	C156.229,265.049,159.628,263.272,160.635,260.086z M116.742,272.273l11.619-37.034c1.006-3.187-0.776-6.598-3.968-7.604
	c-3.192-0.995-6.597,0.782-7.604,3.979l-11.619,37.036c-1.001,3.186,0.775,6.596,3.968,7.604
	C112.336,277.249,115.741,275.472,116.742,272.273z M72.95,185.519c-18.849-0.272-35.655-9.061-46.741-22.681
	c-8.61-10.576-13.774-24.072-13.774-38.759c0-31.96,24.457-58.253,55.659-61.179c2.919-31.202,29.218-55.654,61.179-55.654
	c31.872,0,58.105,24.31,61.149,55.381h19.151c33.92,0,61.457,27.537,61.457,61.451c0,14.687-5.163,28.183-13.774,38.759
	c-11.263,13.846-28.448,22.692-47.683,22.692c-3.34,0-6.063-2.712-6.063-6.063s2.724-6.064,6.063-6.064
	c15.444,0,29.23-7.106,38.279-18.228c6.904-8.479,11.05-19.311,11.05-31.096c0-27.223-22.1-49.323-49.329-49.323h-24.919
	c-3.34,0-6.064-2.712-6.064-6.064c0-27.217-22.101-49.317-49.317-49.317c-27.223,0-49.323,22.1-49.323,49.317
	c0,3.352-2.712,6.064-6.063,6.064c-27.223,0-49.324,22.101-49.324,49.323c0,11.785,4.146,22.616,11.05,31.096
	c9.049,11.121,22.834,18.228,38.273,18.228c0.432,0,0.853,0.048,1.255,0.13l4.986-27.275l35.153,0.095l-25.02,55.239h19.436
	L76.1,276.538l11.483-62.819H67.792L72.95,185.519z"/>
</svg>
