<?xml version="1.0" encoding="utf-8"?>
<!-- Generator: Adobe Illustrator 15.1.0, SVG Export Plug-In . SVG Version: 6.00 Build 0)  -->
<!DOCTYPE svg PUBLIC "-//W3C//DTD SVG 1.1//EN" "http://www.w3.org/Graphics/SVG/1.1/DTD/svg11.dtd">
<svg version="1.1" id="Layer_1" xmlns="http://www.w3.org/2000/svg" xmlns:xlink="http://www.w3.org/1999/xlink" x="0px" y="0px"
	 width="283.465px" height="283.465px" viewBox="0 0 283.465 283.465" enable-background="new 0 0 283.465 283.465"
	 xml:space="preserve">
<path fill-rule="evenodd" clip-rule="evenodd" d="M156.664,114.502c0,0-7.289,15.324-7.289,21.886c0,4.033,3.268,7.302,7.289,7.302
	c4.033,0,7.301-3.269,7.301-7.302C163.965,129.826,156.664,114.502,156.664,114.502z M105.054,143.689
	c0,0-13.585,28.527-13.585,40.763c0,7.498,6.087,13.579,13.585,13.579c7.499,0,13.585-6.081,13.585-13.579
	C118.639,172.217,105.054,143.689,105.054,143.689z M186.067,102.902h25.949c28.355,0,51.37,23.015,51.37,51.37
	c0,12.271-4.317,23.545-11.508,32.376c-9.423,11.581-23.779,18.981-39.862,18.981c-3.478,0-6.314,2.824-6.314,6.314
	s2.837,6.314,6.314,6.314c20.03,0,37.926-9.213,49.655-23.631c8.967-11.014,14.344-25.062,14.344-40.355
	c0-35.323-28.676-63.999-63.999-63.999h-19.943c-3.17-32.357-30.488-57.672-63.678-57.672c-33.282,0-60.668,25.463-63.709,57.956
	c-32.493,3.046-57.961,30.427-57.961,63.715c0,15.294,5.377,29.342,14.344,40.355c11.735,14.418,29.625,23.631,49.649,23.631
	c3.484,0,6.315-2.824,6.315-6.314s-2.831-6.314-6.315-6.314c-16.077,0-30.433-7.4-39.856-18.981
	c-7.19-8.831-11.507-20.104-11.507-32.376c0-28.355,23.015-51.37,51.363-51.37c3.49,0,6.315-2.824,6.315-6.314
	c0-28.343,23.014-51.357,51.363-51.357c28.342,0,51.357,23.014,51.357,51.357C179.752,100.078,182.589,102.902,186.067,102.902z
	 M156.664,170.86c0,0-20.536,43.143-20.536,61.631c0,11.334,9.201,20.535,20.536,20.535c11.347,0,20.548-9.201,20.548-20.535
	C177.212,214.003,156.664,170.86,156.664,170.86z"/>
</svg>
