<?xml version="1.0" encoding="utf-8"?>
<!-- Generator: Adobe Illustrator 15.1.0, SVG Export Plug-In . SVG Version: 6.00 Build 0)  -->
<!DOCTYPE svg PUBLIC "-//W3C//DTD SVG 1.1//EN" "http://www.w3.org/Graphics/SVG/1.1/DTD/svg11.dtd">
<svg version="1.1" id="Layer_1" xmlns="http://www.w3.org/2000/svg" xmlns:xlink="http://www.w3.org/1999/xlink" x="0px" y="0px"
	 width="283.465px" height="283.465px" viewBox="0 0 283.465 283.465" enable-background="new 0 0 283.465 283.465"
	 xml:space="preserve">
<path fill-rule="evenodd" clip-rule="evenodd" d="M152.651,155.716c3.49,0,6.314,2.831,6.314,6.309c0,3.484-2.824,6.303-6.314,6.303
	c-3.479,0-6.303-2.818-6.303-6.303C146.349,158.547,149.173,155.716,152.651,155.716z M102.175,173.878
	c3.484,0,6.309,2.824,6.309,6.302c0,3.479-2.825,6.303-6.309,6.303c-3.478,0-6.309-2.824-6.309-6.303
	C95.866,176.702,98.697,173.878,102.175,173.878z M179.23,194.179c3.479,0,6.303,2.825,6.303,6.303c0,3.479-2.824,6.315-6.303,6.315
	c-3.49,0-6.314-2.837-6.314-6.315C172.916,197.004,175.74,194.179,179.23,194.179z M133.287,206.797
	c3.478,0,6.309,2.824,6.309,6.303c0,3.478-2.831,6.314-6.309,6.314c-3.484,0-6.309-2.837-6.309-6.314
	C126.979,209.621,129.803,206.797,133.287,206.797z M89.563,219.414c3.479,0,6.303,2.824,6.303,6.303s-2.824,6.303-6.303,6.303
	c-3.484,0-6.309-2.824-6.309-6.303S86.079,219.414,89.563,219.414z M161.371,242.836c3.491,0,6.315,2.837,6.315,6.315
	c0,3.478-2.824,6.303-6.315,6.303c-3.478,0-6.303-2.825-6.303-6.303C155.068,245.673,157.894,242.836,161.371,242.836z
	 M115.569,255.454c3.479,0,6.309,2.836,6.309,6.314s-2.831,6.303-6.309,6.303c-3.484,0-6.309-2.824-6.309-6.303
	S112.085,255.454,115.569,255.454z M186.026,82.656h25.951c28.343,0,51.357,23.015,51.357,51.364
	c0,12.272-4.316,23.546-11.507,32.383c-9.423,11.581-23.78,18.981-39.851,18.981c-3.491,0-6.315,2.825-6.315,6.315
	c0,3.478,2.824,6.314,6.315,6.314c20.018,0,37.914-9.213,49.655-23.644c8.955-11.008,14.332-25.057,14.332-40.351
	c0-35.318-28.676-63.994-63.987-63.994h-19.944c-3.182-32.358-30.502-57.679-63.686-57.679c-33.289,0-60.67,25.469-63.711,57.963
	c-32.493,3.041-57.963,30.421-57.963,63.71c0,15.294,5.377,29.343,14.344,40.351c11.736,14.431,29.626,23.644,49.65,23.644
	c3.484,0,6.315-2.837,6.315-6.314c0-3.49-2.831-6.315-6.315-6.315c-16.077,0-30.434-7.4-39.857-18.981
	c-7.197-8.837-11.507-20.11-11.507-32.383c0-28.349,23.015-51.364,51.364-51.364c3.484,0,6.315-2.831,6.315-6.315
	c0-28.349,23.015-51.364,51.365-51.364s51.364,23.015,51.364,51.364C179.712,79.826,182.536,82.656,186.026,82.656z"/>
</svg>
