<?xml version="1.0" encoding="utf-8"?>
<!-- Generator: Adobe Illustrator 15.1.0, SVG Export Plug-In . SVG Version: 6.00 Build 0)  -->
<!DOCTYPE svg PUBLIC "-//W3C//DTD SVG 1.1//EN" "http://www.w3.org/Graphics/SVG/1.1/DTD/svg11.dtd">
<svg version="1.1" id="Layer_1" xmlns="http://www.w3.org/2000/svg" xmlns:xlink="http://www.w3.org/1999/xlink" x="0px" y="0px"
	 width="283.465px" height="283.465px" viewBox="0 0 283.465 283.465" enable-background="new 0 0 283.465 283.465"
	 xml:space="preserve">
<path fill-rule="evenodd" clip-rule="evenodd" d="M27.545,134.86h130.243c3.024,0,5.491-2.461,5.491-5.491
	c0-3.03-2.467-5.491-5.491-5.491H27.545c-3.035,0-5.491,2.461-5.491,5.491C22.054,132.398,24.51,134.86,27.545,134.86z
	 M10.52,156.765h130.243c3.03,0,5.491-2.456,5.491-5.491s-2.461-5.49-5.491-5.49H10.52c-3.03,0-5.491,2.455-5.491,5.49
	S7.49,156.765,10.52,156.765z M58.989,178.6h130.243c3.024,0,5.491-2.456,5.491-5.491c0-3.024-2.467-5.49-5.491-5.49H58.989
	c-3.035,0-5.491,2.466-5.491,5.49C53.499,176.144,55.954,178.6,58.989,178.6z M196.118,78.299h22.563
	c24.646,0,44.657,20.012,44.657,44.662c0,24.65-20.012,44.657-44.657,44.657h-7.871c-3.035,0-5.491,2.466-5.491,5.49
	c0,3.035,2.456,5.491,5.491,5.491h7.871c30.704,0,55.639-24.924,55.639-55.639c0-30.709-24.935-55.644-55.639-55.644H201.33
	c-2.757-28.136-26.511-50.148-55.371-50.148c-28.939,0-52.748,22.141-55.397,50.395c-9.341,0.874-18.017,4.064-25.444,8.987
	c-11.963,7.931-20.682,20.361-23.749,34.866c-0.627,2.965,1.271,5.882,4.236,6.509c2.965,0.627,5.883-1.271,6.51-4.236
	c2.456-11.647,9.47-21.621,19.068-27.985c7.062-4.682,15.529-7.405,24.629-7.405c3.029,0,5.491-2.456,5.491-5.491
	c0-24.645,20.006-44.657,44.656-44.657c24.656,0,44.668,20.012,44.668,44.657C190.627,75.843,193.083,78.299,196.118,78.299z
	 M112.885,187.908c3.024,0,5.485,2.467,5.485,5.491s-2.461,5.48-5.485,5.48c-3.03,0-5.486-2.456-5.486-5.48
	S109.855,187.908,112.885,187.908z M179.881,205.571c3.024,0,5.48,2.456,5.48,5.48s-2.456,5.491-5.48,5.491
	s-5.491-2.467-5.491-5.491S176.856,205.571,179.881,205.571z M138.801,216.543c3.029,0,5.485,2.456,5.485,5.48
	c0,3.023-2.456,5.479-5.485,5.479c-3.024,0-5.485-2.456-5.485-5.479C133.315,218.999,135.776,216.543,138.801,216.543z
	 M98.15,227.503c3.024,0,5.485,2.467,5.485,5.491s-2.461,5.48-5.485,5.48c-3.03,0-5.486-2.456-5.486-5.48
	S95.12,227.503,98.15,227.503z M164.866,244.244c3.024,0,5.491,2.456,5.491,5.48s-2.467,5.49-5.491,5.49
	c-3.023,0-5.479-2.466-5.479-5.49S161.843,244.244,164.866,244.244z M121.395,255.215c3.024,0,5.485,2.456,5.485,5.48
	s-2.461,5.48-5.485,5.48c-3.03,0-5.485-2.456-5.485-5.48S118.365,255.215,121.395,255.215z"/>
</svg>
