<?xml version="1.0" encoding="utf-8"?>
<!-- Generator: Adobe Illustrator 15.1.0, SVG Export Plug-In . SVG Version: 6.00 Build 0)  -->
<!DOCTYPE svg PUBLIC "-//W3C//DTD SVG 1.1//EN" "http://www.w3.org/Graphics/SVG/1.1/DTD/svg11.dtd">
<svg version="1.1" id="Layer_1" xmlns="http://www.w3.org/2000/svg" xmlns:xlink="http://www.w3.org/1999/xlink" x="0px" y="0px"
	 width="283.465px" height="283.465px" viewBox="0 0 283.465 283.465" enable-background="new 0 0 283.465 283.465"
	 xml:space="preserve">
<path fill-rule="evenodd" clip-rule="evenodd" d="M135.072,13.047l0.033,51.551c0.005,3.453,2.809,6.25,6.256,6.25
	c3.452-0.005,6.25-2.809,6.25-6.261l-0.033-51.552c0-3.447-2.809-6.25-6.262-6.245C137.87,6.792,135.066,9.595,135.072,13.047z
	 M46.125,55.084l36.48,36.431c2.442,2.437,6.4,2.437,8.842-0.005c2.437-2.442,2.437-6.406-0.005-8.848l-36.48-36.425
	c-2.442-2.437-6.406-2.437-8.843,0.005C43.682,48.684,43.682,52.647,46.125,55.084z M227.7,46.214l-36.437,36.48
	c-2.442,2.442-2.431,6.4,0.012,8.842c2.442,2.437,6.405,2.437,8.837-0.005l36.436-36.48c2.432-2.442,2.432-6.4-0.011-8.843
	C234.095,43.772,230.132,43.772,227.7,46.214z M269.731,135.162l-51.557,0.039c-3.441,0-6.25,2.803-6.239,6.256
	c0,3.447,2.798,6.25,6.25,6.245l51.558-0.033c3.452,0,6.25-2.803,6.25-6.256C275.982,137.959,273.185,135.162,269.731,135.162z
	 M64.498,135.162l-51.552,0.039c-3.453,0-6.25,2.803-6.245,6.256c0,3.447,2.803,6.25,6.256,6.245l51.551-0.033
	c3.453,0,6.25-2.803,6.245-6.256C70.754,137.959,67.951,135.162,64.498,135.162z M90.765,129.678
	c5.334-22.998,25.967-40.161,50.574-40.161c28.654,0,51.924,23.264,51.924,51.918c0,28.648-23.27,51.918-51.924,51.918
	c-28.648,0-51.912-23.27-51.912-51.918c0-0.178,0-0.35,0.006-0.522c0.255,23.831,19.684,43.092,43.569,43.092
	c24.046,0,43.575-19.528,43.575-43.575c0-24.052-19.528-43.575-43.575-43.575C112.663,96.855,95.555,110.821,90.765,129.678z
	 M191.253,200.202l36.47,36.425c2.442,2.442,6.405,2.442,8.848,0s2.432-6.405-0.011-8.848l-36.47-36.426
	c-2.442-2.442-6.405-2.431-8.848,0.012S188.811,197.76,191.253,200.202z M82.572,191.332l-36.425,36.48
	c-2.442,2.442-2.437,6.405,0.005,8.848c2.442,2.432,6.4,2.432,8.843-0.011l36.425-36.48c2.442-2.442,2.437-6.395-0.006-8.837
	S85.014,188.9,82.572,191.332z M135.078,218.275l0.033,51.558c0.006,3.452,2.809,6.25,6.261,6.25
	c3.441-0.011,6.251-2.809,6.239-6.262l-0.033-51.557c0-3.441-2.809-6.25-6.25-6.239
	C137.875,212.025,135.072,214.823,135.078,218.275z"/>
</svg>
