<?xml version="1.0" encoding="utf-8"?>
<!-- Generator: Adobe Illustrator 15.1.0, SVG Export Plug-In . SVG Version: 6.00 Build 0)  -->
<!DOCTYPE svg PUBLIC "-//W3C//DTD SVG 1.1//EN" "http://www.w3.org/Graphics/SVG/1.1/DTD/svg11.dtd">
<svg version="1.1" id="Layer_1" xmlns="http://www.w3.org/2000/svg" xmlns:xlink="http://www.w3.org/1999/xlink" x="0px" y="0px"
	 width="283.46px" height="283.46px" viewBox="0 0 283.46 283.46" enable-background="new 0 0 283.46 283.46" xml:space="preserve">
<path fill="#010101" d="M175.175,91.575c-13.299,0-24.119-10.819-24.119-24.119c0-0.006-0.006-0.011-0.012-0.011
	s-0.01,0.005-0.01,0.011c0,13.299-10.821,24.119-24.12,24.119c-0.007,0-0.012,0.006-0.012,0.012c0,0.006,0.005,0.012,0.012,0.012
	c13.299,0,24.12,10.819,24.12,24.119c0,0.006,0.004,0.011,0.01,0.011s0.012-0.005,0.012-0.011c0-13.3,10.82-24.119,24.119-24.119
	c0.007,0,0.012-0.006,0.012-0.012C175.187,91.581,175.182,91.575,175.175,91.575z"/>
<path fill="#010101" d="M131.464,151.507c-5.389,0-9.774-4.385-9.774-9.773c0-0.002-0.002-0.004-0.004-0.004
	s-0.004,0.002-0.004,0.004c0,5.389-4.386,9.773-9.774,9.773c-0.003,0-0.005,0.003-0.005,0.006s0.002,0.005,0.005,0.005
	c5.389,0,9.774,4.385,9.774,9.772c0,0.004,0.002,0.006,0.004,0.006s0.004-0.002,0.004-0.006c0-5.389,4.386-9.772,9.774-9.772
	c0.003,0,0.005-0.002,0.005-0.005S131.467,151.507,131.464,151.507z"/>
<path fill="#010101" d="M226.465,56.34c-5.389,0-9.773-4.385-9.773-9.774c0-0.002-0.002-0.004-0.004-0.004
	c-0.003,0-0.005,0.002-0.005,0.004c0,5.39-4.386,9.774-9.774,9.774c-0.002,0-0.004,0.002-0.004,0.004
	c0,0.003,0.002,0.005,0.004,0.005c5.39,0,9.774,4.384,9.774,9.774c0,0.002,0.002,0.004,0.005,0.004c0.002,0,0.004-0.002,0.004-0.004
	c0-5.39,4.385-9.774,9.773-9.774c0.003,0,0.005-0.002,0.005-0.005C226.469,56.342,226.468,56.34,226.465,56.34z"/>
<path fill="#010101" d="M260.39,24.672c-5.389,0-9.773-4.385-9.773-9.775c0-0.002-0.003-0.004-0.005-0.004s-0.004,0.002-0.004,0.004
	c0,5.391-4.386,9.775-9.774,9.775c-0.002,0-0.004,0.002-0.004,0.004c0,0.003,0.002,0.005,0.004,0.005
	c5.39,0,9.774,4.384,9.774,9.774c0,0.002,0.002,0.004,0.004,0.004s0.005-0.002,0.005-0.004c0-5.391,4.385-9.774,9.773-9.774
	c0.003,0,0.005-0.002,0.005-0.005C260.395,24.674,260.393,24.672,260.39,24.672z"/>
<path fill="#010101" d="M184.964,46.557c-5.389,0-9.773-4.385-9.773-9.774c0-0.002-0.002-0.004-0.004-0.004
	s-0.004,0.002-0.004,0.004c0,5.39-4.387,9.774-9.773,9.774c-0.004,0-0.006,0.002-0.006,0.004c0,0.003,0.002,0.005,0.006,0.005
	c5.389,0,9.773,4.384,9.773,9.774c0,0.002,0.002,0.004,0.004,0.004s0.004-0.002,0.004-0.004c0-5.39,4.387-9.774,9.773-9.774
	c0.004,0,0.006-0.002,0.006-0.005C184.97,46.559,184.968,46.557,184.964,46.557z"/>
<path fill="#010101" d="M34.61,111.623c-5.389,0-9.774-4.385-9.774-9.774c0-0.002-0.002-0.004-0.004-0.004s-0.004,0.002-0.004,0.004
	c0,5.39-4.386,9.774-9.774,9.774c-0.003,0-0.005,0.002-0.005,0.004c0,0.003,0.002,0.005,0.005,0.005
	c5.389,0,9.774,4.384,9.774,9.774c0,0.002,0.002,0.004,0.004,0.004s0.004-0.002,0.004-0.004c0-5.39,4.386-9.774,9.774-9.774
	c0.003,0,0.005-0.002,0.005-0.005C34.615,111.625,34.613,111.623,34.61,111.623z"/>
<path fill="#010101" d="M111.897,26.99c-5.389,0-9.774-4.385-9.774-9.774c0-0.002-0.002-0.004-0.004-0.004s-0.004,0.002-0.004,0.004
	c0,5.39-4.386,9.774-9.774,9.774c-0.003,0-0.005,0.002-0.005,0.004c0,0.003,0.002,0.005,0.005,0.005
	c5.389,0,9.774,4.384,9.774,9.774c0,0.002,0.002,0.004,0.004,0.004s0.004-0.002,0.004-0.004c0-5.39,4.386-9.774,9.774-9.774
	c0.003,0,0.005-0.002,0.005-0.005C111.902,26.992,111.9,26.99,111.897,26.99z"/>
<path fill="#010101" d="M211.541,179.703c-5.389,0-9.774-4.385-9.774-9.774c0-0.002-0.002-0.004-0.004-0.004
	s-0.004,0.002-0.004,0.004c0,5.391-4.386,9.774-9.773,9.774c-0.003,0-0.005,0.002-0.005,0.004c0,0.004,0.002,0.006,0.005,0.006
	c5.389,0,9.773,4.384,9.773,9.773c0,0.002,0.002,0.004,0.004,0.004s0.004-0.002,0.004-0.004c0-5.391,4.387-9.773,9.774-9.773
	c0.003,0,0.005-0.002,0.005-0.006C211.545,179.705,211.543,179.703,211.541,179.703z"/>
<path fill="#010101" d="M92.331,105.839c-5.389,0-9.774-4.385-9.774-9.774c0-0.002-0.002-0.004-0.004-0.004
	c-0.002,0-0.004,0.002-0.004,0.004c0,5.39-4.386,9.774-9.774,9.774c-0.003,0-0.005,0.002-0.005,0.004
	c0,0.003,0.002,0.005,0.005,0.005c5.389,0,9.774,4.384,9.774,9.774c0,0.002,0.002,0.004,0.004,0.004
	c0.002,0,0.004-0.002,0.004-0.004c0-5.39,4.386-9.774,9.774-9.774c0.003,0,0.005-0.002,0.005-0.005
	C92.336,105.841,92.334,105.839,92.331,105.839z"/>
<path fill="#010101" d="M82.888,161.285c-13.299,0-24.119-10.82-24.119-24.12c0-0.006-0.006-0.011-0.012-0.011
	s-0.01,0.005-0.01,0.011c0,13.299-10.821,24.12-24.12,24.12c-0.007,0-0.012,0.006-0.012,0.012s0.005,0.012,0.012,0.012
	c13.299,0,24.12,10.818,24.12,24.119c0,0.006,0.004,0.011,0.01,0.011s0.012-0.005,0.012-0.011c0-13.301,10.82-24.119,24.119-24.119
	c0.007,0,0.012-0.006,0.012-0.012S82.895,161.285,82.888,161.285z"/>
<path fill="#010101" d="M250.149,116.729c-15.869,0-28.781-12.911-28.781-28.782c0-0.007-0.007-0.014-0.014-0.014
	c-0.008,0-0.012,0.007-0.012,0.014c0,15.87-12.912,28.782-28.781,28.782c-0.01,0-0.016,0.007-0.016,0.014
	c0,0.007,0.006,0.014,0.016,0.014c15.869,0,28.781,12.91,28.781,28.781c0,0.007,0.004,0.014,0.012,0.014
	c0.007,0,0.014-0.007,0.014-0.014c0-15.872,12.912-28.781,28.781-28.781c0.009,0,0.015-0.007,0.015-0.014
	C250.164,116.736,250.158,116.729,250.149,116.729z"/>
<path d="M60.244,36.637c-5.651-0.586-10.729-3.13-14.54-6.942s-6.355-8.889-6.942-14.54V2h-0.283v13.151
	c-0.711,6.866-4.314,12.887-9.568,16.818c-0.075,0.056-0.152,0.107-0.228,0.163c-0.237,0.173-0.474,0.346-0.717,0.511
	c-3.197,2.161-6.937,3.576-10.969,3.994H3.841v0.283h13.151c5.652,0.585,10.731,3.13,14.543,6.942s6.357,8.892,6.942,14.543v13.151
	h0.283V58.402c0.418-4.032,1.833-7.772,3.994-10.969c0.165-0.243,0.337-0.48,0.511-0.717c0.055-0.076,0.106-0.153,0.163-0.228
	c3.931-5.254,9.952-8.856,16.818-9.568h13.151v-0.283H60.244z"/>
<path fill="#010101" d="M94.406,71.096c-2.012,0-3.649-1.637-3.649-3.649c0,0,0-0.001-0.001-0.001s-0.001,0.001-0.001,0.001
	c0,2.012-1.637,3.649-3.649,3.649c-0.001,0-0.002,0-0.002,0.001s0.001,0.001,0.002,0.001c2.012,0,3.649,1.637,3.649,3.649
	c0,0,0,0.001,0.001,0.001s0.001-0.001,0.001-0.001c0-2.013,1.638-3.649,3.649-3.649c0,0,0.001,0,0.001-0.001
	S94.407,71.096,94.406,71.096z"/>
<path fill="#010101" d="M137.406,125.096c-2.012,0-3.649-1.637-3.649-3.649c0,0,0-0.001-0.001-0.001s-0.001,0.001-0.001,0.001
	c0,2.012-1.637,3.649-3.649,3.649c-0.001,0-0.002,0-0.002,0.001s0.001,0.001,0.002,0.001c2.012,0,3.649,1.637,3.649,3.649
	c0,0,0,0.001,0.001,0.001s0.001-0.001,0.001-0.001c0-2.013,1.638-3.649,3.649-3.649c0,0,0.001,0,0.001-0.001
	S137.407,125.096,137.406,125.096z"/>
<path fill="#010101" d="M199.848,84.28c-2.013,0-3.649-1.637-3.649-3.649c0,0,0-0.001-0.002-0.001c0,0-0.001,0.001-0.001,0.001
	c0,2.012-1.638,3.649-3.649,3.649c0,0-0.002,0-0.002,0.001s0.002,0.001,0.002,0.001c2.012,0,3.649,1.637,3.649,3.649
	c0,0,0.001,0.001,0.001,0.001c0.002,0,0.002-0.001,0.002-0.001c0-2.013,1.638-3.649,3.649-3.649c0.001,0,0.001,0,0.001-0.001
	S199.849,84.28,199.848,84.28z"/>
<path fill="#010101" d="M29.89,141.729c-2.012,0-3.649-1.637-3.649-3.649c0,0,0-0.001-0.001-0.001s-0.001,0.001-0.001,0.001
	c0,2.012-1.637,3.649-3.649,3.649c-0.001,0-0.002,0-0.002,0.001s0.001,0.001,0.002,0.001c2.012,0,3.649,1.637,3.649,3.649
	c0,0.001,0,0.002,0.001,0.002s0.001-0.001,0.001-0.002c0-2.012,1.638-3.649,3.649-3.649c0,0,0.001,0,0.001-0.001
	S29.89,141.729,29.89,141.729z"/>
<path fill="#010101" d="M209.066,23.34c-2.012,0-3.648-1.637-3.648-3.649c0,0-0.001-0.001-0.002-0.001s-0.002,0.001-0.002,0.001
	c0,2.012-1.637,3.649-3.648,3.649c-0.001,0-0.002,0-0.002,0.001s0.001,0.001,0.002,0.001c2.012,0,3.648,1.637,3.648,3.649
	c0,0,0.001,0.001,0.002,0.001s0.002-0.001,0.002-0.001c0-2.013,1.637-3.649,3.648-3.649c0.001,0,0.002,0,0.002-0.001
	S209.067,23.34,209.066,23.34z"/>
<path fill="#010101" d="M187.236,147.859c-2.013,0-3.65-1.637-3.65-3.648c0-0.001,0-0.002-0.001-0.002s-0.001,0.001-0.001,0.002
	c0,2.012-1.638,3.648-3.649,3.648c-0.001,0-0.002,0.001-0.002,0.002s0.001,0.002,0.002,0.002c2.012,0,3.649,1.637,3.649,3.648
	c0,0.001,0,0.002,0.001,0.002s0.001-0.001,0.001-0.002c0-2.012,1.639-3.648,3.65-3.648c0,0,0.001-0.001,0.001-0.002
	S187.236,147.859,187.236,147.859z"/>
<path fill="#010101" d="M267.699,67.443c-2.013,0-3.65-1.637-3.65-3.649c0,0,0-0.001-0.001-0.001s-0.001,0.001-0.001,0.001
	c0,2.012-1.638,3.649-3.649,3.649c-0.001,0-0.002,0-0.002,0.001s0.001,0.001,0.002,0.001c2.012,0,3.649,1.637,3.649,3.649
	c0,0,0,0.001,0.001,0.001s0.001-0.001,0.001-0.001c0-2.013,1.639-3.649,3.65-3.649c0,0,0.001,0,0.001-0.001
	S267.699,67.443,267.699,67.443z"/>
<path fill="#010101" d="M252.769,157.643c-2.013,0-3.65-1.638-3.65-3.649c0,0,0-0.002-0.001-0.002s-0.001,0.002-0.001,0.002
	c0,2.012-1.638,3.649-3.649,3.649c-0.001,0-0.002,0.001-0.002,0.001c0,0.002,0.001,0.002,0.002,0.002
	c2.012,0,3.649,1.637,3.649,3.649c0,0.001,0,0.001,0.001,0.001s0.001,0,0.001-0.001c0-2.013,1.639-3.649,3.65-3.649
	C252.769,157.646,252.77,157.646,252.769,157.643L252.769,157.643z"/>
</svg>
