<?xml version="1.0" encoding="utf-8"?>
<!-- Generator: Adobe Illustrator 15.1.0, SVG Export Plug-In . SVG Version: 6.00 Build 0)  -->
<!DOCTYPE svg PUBLIC "-//W3C//DTD SVG 1.1//EN" "http://www.w3.org/Graphics/SVG/1.1/DTD/svg11.dtd">
<svg version="1.1" id="Layer_1" xmlns="http://www.w3.org/2000/svg" xmlns:xlink="http://www.w3.org/1999/xlink" x="0px" y="0px"
	 width="283.465px" height="283.465px" viewBox="0 0 283.465 283.465" enable-background="new 0 0 283.465 283.465"
	 xml:space="preserve">
<path fill-rule="evenodd" clip-rule="evenodd" d="M196.584,76.452H14.829c-4.228,0-7.663,3.435-7.663,7.663
	c0,4.228,3.435,7.663,7.663,7.663h181.755c29.153,0,43.191-19.381,43.191-38.141c0-18.76-14.038-38.141-43.191-38.141
	c-4.235,0-7.663,3.435-7.663,7.663s3.428,7.663,7.663,7.663c18.229,0,27.866,11.09,27.866,22.816
	C224.45,65.362,214.813,76.452,196.584,76.452z M233.266,106.503H51.518c-4.228,0-7.663,3.435-7.663,7.663
	c0,4.228,3.435,7.663,7.663,7.663h181.748c18.229,0,27.866,11.09,27.866,22.808c0,11.733-9.638,22.823-27.866,22.823
	c-4.221,0-7.663,3.428-7.663,7.663s3.442,7.662,7.663,7.662c29.153,0,43.191-19.381,43.191-38.148
	C276.457,125.885,262.419,106.503,233.266,106.503z M179.253,246.795v20.878H90.527v-20.878h34.744v-82.927l-34.744,10.955v-21.925
	l45.085-14.27h15.505v108.167H179.253z"/>
</svg>
