<?xml version="1.0" encoding="utf-8"?>
<!-- Generator: Adobe Illustrator 15.1.0, SVG Export Plug-In . SVG Version: 6.00 Build 0)  -->
<!DOCTYPE svg PUBLIC "-//W3C//DTD SVG 1.1//EN" "http://www.w3.org/Graphics/SVG/1.1/DTD/svg11.dtd">
<svg version="1.1" id="Layer_1" xmlns="http://www.w3.org/2000/svg" xmlns:xlink="http://www.w3.org/1999/xlink" x="0px" y="0px"
	 width="283.68px" height="283.92px" viewBox="0 0 283.68 283.92" enable-background="new 0 0 283.68 283.92" xml:space="preserve">
<g>
	<path d="M85.119,167.236c0.318-0.717,0.644-1.441,0.972-2.168c0.084-0.187,0.17-0.374,0.255-0.562l-6.75-11.69h8.615l-8.615-14.922
		h8.615L49.919,71.57l-38.292,66.325h8.615l-8.397,14.545l-0.217,0.377h8.615l-8.397,14.545l-0.217,0.377h25.547v25.568h25.489
		v-25.568h22.235C84.972,167.57,85.044,167.405,85.119,167.236z"/>
	<path d="M267.624,109.458c0-4.107-1.729-7.811-4.488-10.445c-0.204-1.227-0.558-2.401-1.052-3.503
		c0.246-1.056,0.39-2.15,0.39-3.279c0-3.029-0.94-5.841-2.539-8.167c0.717-1.713,1.115-3.591,1.115-5.561
		c0-7.974-6.487-14.46-14.46-14.46c-2.521,0-4.893,0.652-6.959,1.792c-2.066-1.14-4.438-1.792-6.959-1.792
		c-0.429,0-0.851,0.028-1.27,0.064c-2.511-4.294-7.159-7.193-12.481-7.193c-5.762,0-10.733,3.396-13.056,8.284
		c-0.052,0-0.102-0.008-0.153-0.008c-4.868,0-9.174,2.425-11.796,6.124c-5.271,2.161-8.995,7.34-8.995,13.38
		c0,4.666,2.231,8.811,5.673,11.457c-0.468,1.287-0.755,2.656-0.837,4.083c-2.96,2.649-4.836,6.486-4.836,10.761
		c0,0.163,0.02,0.322,0.024,0.484c0.289,0.668,0.574,1.34,0.859,2.011c0.759,1.782,1.503,3.572,2.233,5.368
		c0.273,0.674,0.549,1.348,0.819,2.023c0.818,0.871,1.739,1.64,2.75,2.287c-0.39,0.715-0.709,1.472-0.975,2.253
		c0.125,0.327,0.251,0.653,0.376,0.98c1.897,4.979,3.677,9.97,5.324,14.917c0.11,0.331,0.221,0.662,0.33,0.993
		c2.223,1.394,4.84,2.213,7.651,2.213c2.389,0,4.638-0.592,6.625-1.622c1.281,1.542,2.883,2.804,4.693,3.708v48.768h25.634v-39.752
		c0.712,0.108,1.436,0.183,2.178,0.183c7.973,0,14.46-6.487,14.46-14.46c0-2.574-0.684-4.988-1.868-7.084
		c5.251-2.17,8.957-7.341,8.957-13.366c0-0.953-0.099-1.882-0.274-2.784C266.534,115.698,267.624,112.707,267.624,109.458z"/>
	<path d="M179.259,152.844l-0.499,17.199l-6.26-16.027c-5.654-14.475-10.195-33.45-13.498-56.4
		c-2.949-20.484-11.643-39.708-24.733-54.963c1.023,35.87-1.462,66.893-7.11,88.087l-4.432,16.63l-2.416-17.041
		c-0.714-5.04-1.762-10.32-3.128-15.78c-4.93,11.781-10.384,23.156-15.697,34.236c-10.726,22.368-19.989,41.686-19.989,54.574
		c0,27.197,18.09,50.24,42.867,57.753c-5.043-4.692-8.206-11.38-8.206-18.795c0-5.544,3.485-12.809,7.519-21.224
		c2.36-4.921,4.8-10.01,6.812-15.265l3.112-8.125l1.051,3.419c0.392-5.679,0.444-12.114,0.137-19.03l-0.338-7.603l5.67,5.56
		c6.423,6.343,10.692,14.903,12.015,24.097c0.276,1.92,0.576,3.754,0.9,5.502l0.056-0.223l2.138-8.611l3.526,8.142
		c5.242,12.102,8.764,25.509,8.764,33.361c0,7.416-3.163,14.104-8.206,18.796c24.777-7.512,42.868-30.556,42.868-57.754
		c0-15.614-6.063-45.353-19.48-79.04C180.648,134.544,179.516,143.95,179.259,152.844z"/>
	<path d="M157.077,221.316c-0.096,1.058-0.158,2.092-0.188,3.105l-0.426,14.746l-5.367-13.741
		c-2.058-5.268-3.706-12.14-4.899-20.425c-0.738-5.133-2.538-10.029-5.215-14.32c-0.001,8.184-0.537,18.321-2.66,26.289
		l-3.797,14.252l-2.072-14.603c-0.003-0.017-0.005-0.032-0.007-0.049c-1.131,2.473-2.278,4.865-3.358,7.117
		c-3.563,7.431-6.929,14.449-6.929,18.629c0,10.853,8.829,19.682,19.681,19.682c10.852,0,19.681-8.829,19.681-19.682
		C161.521,238.088,160.107,230.357,157.077,221.316z"/>
</g>
</svg>
