<?xml version="1.0" encoding="utf-8"?>
<!-- Generator: Adobe Illustrator 15.1.0, SVG Export Plug-In . SVG Version: 6.00 Build 0)  -->
<!DOCTYPE svg PUBLIC "-//W3C//DTD SVG 1.1//EN" "http://www.w3.org/Graphics/SVG/1.1/DTD/svg11.dtd">
<svg version="1.1" id="Layer_1" xmlns="http://www.w3.org/2000/svg" xmlns:xlink="http://www.w3.org/1999/xlink" x="0px" y="0px"
	 width="283.465px" height="283.465px" viewBox="0 0 283.465 283.465" enable-background="new 0 0 283.465 283.465"
	 xml:space="preserve">
<path fill-rule="evenodd" clip-rule="evenodd" d="M135.61,182.365c18.064,0,31.533,3.277,40.422,9.832s13.349,16.986,13.349,31.323
	c0,13.798-4.414,24.618-13.244,32.476c-8.814,7.856-20.877,11.793-36.187,11.793c-15.579,0-27.784-3.563-36.605-10.656
	c-8.822-7.108-13.23-17.539-13.23-31.338h26.055c0,6.346,2.065,11.18,6.203,14.487c4.138,3.307,10.14,4.953,17.997,4.953
	c7.438,0,12.99-1.781,16.642-5.373c3.651-3.591,5.478-8.68,5.478-15.31c0-7.303-2.484-12.437-7.438-15.399
	c-4.968-2.963-13.169-4.444-24.618-4.444H94.043v-67.211h83.546v22.328h-57.491v22.539H135.61z M196.999,90.648
	c29.153,0,43.176-19.38,43.176-38.14s-14.022-38.14-43.176-38.14c-4.235,0-7.662,3.427-7.662,7.663c0,4.228,3.427,7.662,7.662,7.662
	c18.213,0,27.851,11.09,27.851,22.815s-9.638,22.815-27.851,22.815 M196.999,75.323H15.241c-4.228,0-7.662,3.435-7.662,7.663
	c0,4.228,3.435,7.662,7.662,7.662h181.758 M233.68,120.699c18.228,0,27.866,11.089,27.866,22.814
	c0,11.719-9.639,22.808-27.866,22.808c-4.221,0-7.662,3.442-7.662,7.663c0,4.235,3.441,7.662,7.662,7.662
	c29.153,0,43.19-19.381,43.19-38.133c0-18.759-14.037-38.14-43.19-38.14 M233.68,105.374H51.93c-4.228,0-7.663,3.427-7.663,7.663
	c0,4.228,3.435,7.663,7.663,7.663h181.75"/>
</svg>
