<?xml version="1.0" encoding="utf-8"?>
<!-- Generator: Adobe Illustrator 15.1.0, SVG Export Plug-In . SVG Version: 6.00 Build 0)  -->
<!DOCTYPE svg PUBLIC "-//W3C//DTD SVG 1.1//EN" "http://www.w3.org/Graphics/SVG/1.1/DTD/svg11.dtd">
<svg version="1.1" id="Layer_1" xmlns="http://www.w3.org/2000/svg" xmlns:xlink="http://www.w3.org/1999/xlink" x="0px" y="0px"
	 width="283.465px" height="283.465px" viewBox="0 0 283.465 283.465" enable-background="new 0 0 283.465 283.465"
	 xml:space="preserve">
<path fill-rule="evenodd" clip-rule="evenodd" d="M139.939,245.864c7.722,0,13.753-1.632,18.093-4.864
	c4.341-3.232,6.511-7.617,6.511-13.125c0-5.388-2.126-9.623-6.405-12.721c-4.266-3.112-10.207-4.654-17.78-4.654
	c-7.857,0-14,1.542-18.408,4.654c-4.415,3.098-6.622,7.333-6.622,12.721c0,5.508,2.178,9.893,6.518,13.125
	S132.217,245.864,139.939,245.864z M139.939,158.181c-7.168,0-12.646,1.302-16.439,3.921c-3.794,2.619-5.687,6.42-5.687,11.374
	c0,5.103,1.931,8.935,5.792,11.479c3.854,2.559,9.436,3.831,16.754,3.831c7.034,0,12.407-1.317,16.133-3.936
	c3.711-2.619,5.582-6.405,5.582-11.374c0-4.954-1.9-8.755-5.687-11.374C152.585,159.482,147.107,158.181,139.939,158.181z
	 M170.963,198.498c13.514,6.614,20.264,16.611,20.264,29.991c0,12.406-4.475,22.059-13.439,28.958
	c-8.965,6.885-21.58,10.342-37.848,10.342c-16.268,0-28.883-3.428-37.84-10.252c-8.964-6.81-13.447-16.357-13.447-28.629
	c0-13.648,6.689-23.721,20.062-30.201c-5.104-2.484-9.167-6.091-12.205-10.85c-3.03-4.759-4.549-10.027-4.549-15.818
	c0-11.03,4.31-19.755,12.93-26.168c8.613-6.413,20.301-9.615,35.049-9.615c14.756,0,26.429,3.203,35.049,9.615
	c8.62,6.413,12.931,15.138,12.931,26.168c0,5.791-1.557,11.06-4.654,15.818S176.066,196.163,170.963,198.498z M196.988,90.648
	c29.152,0,43.176-19.38,43.176-38.14s-14.023-38.14-43.176-38.14c-4.235,0-7.663,3.427-7.663,7.663c0,4.228,3.428,7.662,7.663,7.662
	c18.213,0,27.851,11.09,27.851,22.815s-9.638,22.815-27.851,22.815 M196.988,75.323H15.23c-4.228,0-7.662,3.435-7.662,7.663
	c0,4.228,3.435,7.662,7.662,7.662h181.758 M233.669,120.699c18.228,0,27.866,11.089,27.866,22.814
	c0,11.719-9.639,22.808-27.866,22.808c-4.221,0-7.662,3.442-7.662,7.663c0,4.235,3.441,7.662,7.662,7.662
	c29.153,0,43.19-19.381,43.19-38.133c0-18.759-14.037-38.14-43.19-38.14 M233.669,105.374H51.926c-4.235,0-7.663,3.427-7.663,7.663
	c0,4.228,3.427,7.663,7.663,7.663h181.743"/>
</svg>
