<?xml version="1.0" encoding="utf-8"?>
<!-- Generator: Adobe Illustrator 15.1.0, SVG Export Plug-In . SVG Version: 6.00 Build 0)  -->
<!DOCTYPE svg PUBLIC "-//W3C//DTD SVG 1.1//EN" "http://www.w3.org/Graphics/SVG/1.1/DTD/svg11.dtd">
<svg version="1.1" id="Layer_1" xmlns="http://www.w3.org/2000/svg" xmlns:xlink="http://www.w3.org/1999/xlink" x="0px" y="0px"
	 width="283.465px" height="283.465px" viewBox="0 0 283.465 283.465" enable-background="new 0 0 283.465 283.465"
	 xml:space="preserve">
<path fill-rule="evenodd" clip-rule="evenodd" d="M196.592,75.871H14.836c-4.228,0-7.663,3.435-7.663,7.663
	c0,4.228,3.435,7.663,7.663,7.663h181.755c29.153,0,43.191-19.381,43.191-38.141c0-18.76-14.038-38.141-43.191-38.141
	c-4.235,0-7.663,3.435-7.663,7.663s3.428,7.663,7.663,7.663c18.214,0,27.866,11.09,27.866,22.816
	C224.458,64.781,214.806,75.871,196.592,75.871z M233.273,105.923H51.526c-4.228,0-7.663,3.435-7.663,7.663
	c0,4.228,3.435,7.663,7.663,7.663h181.748c18.229,0,27.866,11.09,27.866,22.808c0,11.733-9.638,22.823-27.866,22.823
	c-4.221,0-7.663,3.427-7.663,7.662s3.442,7.663,7.663,7.663c29.153,0,43.191-19.381,43.191-38.148
	C276.465,125.304,262.427,105.923,233.273,105.923z M141.815,244.344c6.346,0,11.345-0.928,14.996-2.783
	c3.652-1.871,6.271-4.999,7.857-9.414c1.587-4.415,2.38-10.551,2.38-18.408v-22.329c0-7.857-0.793-13.993-2.38-18.408
	c-1.586-4.415-4.205-7.543-7.857-9.414c-3.651-1.855-8.65-2.783-14.996-2.783c-6.472,0-11.508,0.928-15.093,2.783
	c-3.584,1.871-6.166,4.999-7.752,9.414s-2.379,10.551-2.379,18.408v22.329c0,7.857,0.793,13.993,2.379,18.408
	s4.168,7.543,7.752,9.414C130.307,243.416,135.343,244.344,141.815,244.344z M141.815,268.335c-17.226,0-30.051-4.206-38.462-12.617
	c-8.411-8.41-12.616-20.877-12.616-37.43v-30.815c0-16.537,4.28-29.124,12.826-37.744c8.546-8.613,21.297-12.916,38.253-12.916
	c17.376,0,30.231,4.168,38.568,12.511c8.351,8.337,12.511,20.848,12.511,37.535v30.815c0,16.537-4.265,29.124-12.811,37.744
	C171.538,264.024,158.772,268.335,141.815,268.335z"/>
</svg>
