<?xml version="1.0" encoding="utf-8"?>
<!-- Generator: Adobe Illustrator 15.1.0, SVG Export Plug-In . SVG Version: 6.00 Build 0)  -->
<!DOCTYPE svg PUBLIC "-//W3C//DTD SVG 1.1//EN" "http://www.w3.org/Graphics/SVG/1.1/DTD/svg11.dtd">
<svg version="1.1" id="Layer_1" xmlns="http://www.w3.org/2000/svg" xmlns:xlink="http://www.w3.org/1999/xlink" x="0px" y="0px"
	 width="283.465px" height="283.465px" viewBox="0 0 283.465 283.465" enable-background="new 0 0 283.465 283.465"
	 xml:space="preserve">
<path fill-rule="evenodd" clip-rule="evenodd" d="M226.137,246.262v20.877h-88.731v-20.877h34.75v-82.939l-34.75,10.97v-21.925
	l45.091-14.27h15.505v108.164H226.137z M129.324,246.262v20.877H40.608v-20.877h34.743v-82.939l-34.743,10.97v-21.925l45.077-14.27
	h15.512v108.164H129.324z M196.999,91.248c29.153,0,43.176-19.38,43.176-38.14c0-18.759-14.022-38.14-43.176-38.14
	c-4.235,0-7.662,3.435-7.662,7.663c0,4.228,3.427,7.662,7.662,7.662c18.213,0,27.851,11.09,27.851,22.815
	c0,11.726-9.638,22.815-27.851,22.815 M196.999,75.923H15.241c-4.228,0-7.662,3.435-7.662,7.662c0,4.228,3.435,7.663,7.662,7.663
	h181.758 M233.68,121.299c18.228,0,27.866,11.09,27.866,22.815s-9.639,22.814-27.866,22.814c-4.221,0-7.662,3.428-7.662,7.663
	s3.441,7.662,7.662,7.662c29.153,0,43.19-19.381,43.19-38.14c0-18.76-14.037-38.14-43.19-38.14 M233.68,105.974H51.93
	c-4.228,0-7.663,3.435-7.663,7.663c0,4.228,3.435,7.662,7.663,7.662h181.75"/>
</svg>
