<?xml version="1.0" encoding="utf-8"?>
<!-- Generator: Adobe Illustrator 15.1.0, SVG Export Plug-In . SVG Version: 6.00 Build 0)  -->
<!DOCTYPE svg PUBLIC "-//W3C//DTD SVG 1.1//EN" "http://www.w3.org/Graphics/SVG/1.1/DTD/svg11.dtd">
<svg version="1.1" xmlns="http://www.w3.org/2000/svg" xmlns:xlink="http://www.w3.org/1999/xlink" x="0px" y="0px"
	 width="283.46px" height="283.46px" viewBox="0 0 283.46 283.46" enable-background="new 0 0 283.46 283.46" xml:space="preserve">
<g id="Layer_3">
	<rect x="-453.27" y="42.73" fill="none" width="118.5" height="52.5"/>
	<text transform="matrix(1 0 0 1 -453.27 51.25)" font-family="'MyriadPro-Regular'" font-size="12">New Moon</text>
	<rect x="545.356" y="42.73" fill="none" width="118.5" height="52.5"/>
	<text transform="matrix(1 0 0 1 545.356 51.25)" font-family="'MyriadPro-Regular'" font-size="12">Full Moon</text>
	<rect x="42.858" y="-283.158" fill="none" width="118.5" height="52.5"/>
	<text transform="matrix(1 0 0 1 42.8584 -274.6382)" font-family="'MyriadPro-Regular'" font-size="12">Third Quarter</text>
	<rect x="42.858" y="373.81" fill="none" width="118.5" height="52.5"/>
	<text transform="matrix(1 0 0 1 42.8584 382.3296)" font-family="'MyriadPro-Regular'" font-size="12">First Quarter</text>
</g>
<g id="Layer_4">
	<path d="M432.663-229.014c-35.191,0-63.822-28.63-63.822-63.821c0-0.276,0.009-0.55,0.019-0.824l0.013-0.432
		c0.356-18.374,8.63-35.711,22.7-47.566c11.483-9.673,26.077-15,41.091-15c35.191,0,63.821,28.631,63.821,63.823
		C496.484-257.644,467.854-229.014,432.663-229.014z M432.663-350.989c-13.68,0-26.976,4.854-37.438,13.667
		c-12.82,10.802-20.36,26.599-20.685,43.34l-0.015,0.515c-0.007,0.21-0.015,0.42-0.015,0.631c0,32.065,26.087,58.152,58.152,58.152
		c32.064,0,58.151-26.087,58.151-58.152C490.814-324.901,464.727-350.989,432.663-350.989z"/>
	<path d="M80.954,358.379c-35.191,0-63.822-28.63-63.822-63.821c0-0.275,0.009-0.55,0.018-0.824l0.013-0.433
		c0.356-18.374,8.63-35.711,22.7-47.565c11.484-9.674,26.077-15.002,41.091-15.002c35.191,0,63.822,28.632,63.822,63.824
		C144.776,329.75,116.146,358.379,80.954,358.379z M80.954,236.404c-13.68,0-26.976,4.854-37.438,13.668
		c-12.821,10.802-20.36,26.599-20.685,43.34l-0.015,0.516c-0.007,0.21-0.015,0.42-0.015,0.631c0,32.064,26.087,58.151,58.153,58.151
		s58.152-26.087,58.152-58.151C139.106,262.492,113.02,236.404,80.954,236.404z"/>
	<path d="M425.928,286.011c-35.191,0-63.822-28.63-63.822-63.821c0-0.275,0.009-0.55,0.019-0.824l0.013-0.433
		c0.356-18.374,8.63-35.711,22.7-47.565c11.483-9.674,26.077-15.001,41.091-15.001c35.191,0,63.821,28.631,63.821,63.823
		C489.75,257.381,461.12,286.011,425.928,286.011z M425.928,164.037c-13.68,0-26.976,4.854-37.438,13.667
		c-12.82,10.802-20.36,26.599-20.685,43.34l-0.015,0.515c-0.007,0.21-0.015,0.421-0.015,0.632c0,32.064,26.087,58.151,58.152,58.151
		c32.064,0,58.151-26.087,58.151-58.151C484.08,190.124,457.993,164.037,425.928,164.037z"/>
	<path d="M-252.521,275.741c-35.191,0-63.822-28.63-63.822-63.821c0-0.275,0.009-0.55,0.018-0.824l0.013-0.433
		c0.356-18.374,8.63-35.711,22.7-47.565c11.484-9.674,26.077-15.001,41.091-15.001c35.191,0,63.821,28.631,63.821,63.823
		C-188.7,247.111-217.33,275.741-252.521,275.741z M-252.521,153.766c-13.679,0-26.975,4.854-37.438,13.667
		c-12.821,10.802-20.36,26.599-20.685,43.34l-0.015,0.516c-0.007,0.21-0.015,0.42-0.015,0.631c0,32.064,26.087,58.151,58.153,58.151
		c32.065,0,58.152-26.087,58.152-58.151C-194.369,179.853-220.456,153.766-252.521,153.766z"/>
	<path d="M-402.938,26.209c-35.191,0-63.822-28.63-63.822-63.821c0-0.276,0.009-0.55,0.018-0.824l0.013-0.432
		c0.356-18.374,8.63-35.711,22.7-47.566c11.484-9.673,26.077-15,41.091-15c35.191,0,63.821,28.631,63.821,63.823
		C-339.117-2.421-367.747,26.209-402.938,26.209z M-402.938-95.766c-13.679,0-26.975,4.854-37.438,13.667
		c-12.821,10.802-20.36,26.599-20.685,43.34l-0.015,0.515c-0.007,0.21-0.015,0.42-0.015,0.631c0,32.065,26.087,58.152,58.153,58.152
		c32.065,0,58.152-26.087,58.152-58.152C-344.786-69.678-370.873-95.766-402.938-95.766z"/>
	<path d="M581.021,26.209c-35.191,0-63.822-28.63-63.822-63.821c0-0.276,0.009-0.55,0.019-0.825l0.013-0.432
		c0.356-18.374,8.63-35.711,22.7-47.566c11.483-9.673,26.077-15,41.091-15c35.191,0,63.821,28.631,63.821,63.823
		C644.842-2.421,616.212,26.209,581.021,26.209z M581.021-95.766c-13.68,0-26.976,4.854-37.438,13.667
		c-12.82,10.802-20.36,26.599-20.685,43.34l-0.015,0.514c-0.007,0.21-0.015,0.42-0.015,0.632c0,32.065,26.087,58.152,58.152,58.152
		c32.064,0,58.151-26.087,58.151-58.152C639.172-69.678,613.085-95.766,581.021-95.766z"/>
	<path d="M-255.482-253.449c-35.191,0-63.822-28.63-63.822-63.821c0-0.276,0.009-0.55,0.018-0.824l0.013-0.432
		c0.356-18.374,8.63-35.711,22.7-47.566c11.484-9.673,26.077-15,41.091-15c35.191,0,63.821,28.631,63.821,63.823
		C-191.661-282.079-220.291-253.449-255.482-253.449z M-255.482-375.424c-13.679,0-26.975,4.854-37.438,13.667
		c-12.821,10.802-20.36,26.599-20.685,43.34l-0.015,0.515c-0.007,0.21-0.015,0.42-0.015,0.631c0,32.065,26.087,58.152,58.153,58.152
		c32.065,0,58.152-26.087,58.152-58.152C-197.33-349.336-223.417-375.424-255.482-375.424z"/>
	<path d="M80.514-298.941c-35.191,0-63.822-28.63-63.822-63.821c0-0.276,0.009-0.55,0.018-0.824l0.013-0.432
		c0.356-18.374,8.63-35.711,22.7-47.566c11.484-9.673,26.077-15,41.091-15c35.191,0,63.821,28.631,63.821,63.823
		C144.335-327.571,115.705-298.941,80.514-298.941z M80.514-420.916c-13.679,0-26.975,4.854-37.438,13.667
		c-12.821,10.802-20.36,26.599-20.685,43.34l-0.015,0.515c-0.007,0.21-0.015,0.42-0.015,0.631c0,32.065,26.087,58.152,58.153,58.152
		c32.065,0,58.152-26.087,58.152-58.152C138.666-394.828,112.579-420.916,80.514-420.916z"/>
</g>
<g id="Layer_2">
	<g>
		<path d="M-402.938-98.6c-14.96,0-28.654,5.395-39.264,14.334c0.569,1.569,2.655,1.625,2.904,3.518c3.99-1.34,5.9-4.76,10-6
			c4,0,7.99,0,11.99,0c7.42,3.25,12.3,9.041,14,18c-0.78,7.881-3.27,14.061-9,16.99c0.32,1.79,5.29,3.92,2,6
			c1.5,2.17,5.01,2.329,5,6c1.34-1.421,5.669-1.421,7,0c0,1.67,0,3.34,0,5c-1.18,1.148-3.529,1.13-6,1c-2.71,0.619-2.49,4.18-6,4
			c-1,0-2,0-3,0c-4.18-1.15-6.77-3.891-6-10c0-0.33,0-0.66,0-1c3.68-2,3.83-2.99,3-8c-7.25,3.551-15.41-2.16-19.99-1
			c1.38,3.279,4.59,4.739,7,7c0.53,3.471,2.67,5.329,3,9c-0.32,4.02-0.7,7.971-3,10c0.27,2.061,2.67,2,4,3c2.27-0.83-2-6.141,1-8
			c4.6-1.271,4.84,1.819,6.99,3c11.61-0.841,16.279,7.971,14,18c-1.44,0.561-2.44,1.561-3,3c8.759-3.25,16.099,3.1,17,11
			c0.381,17.509-26.38,17.509-26,0c0.17-2.83,1.84-4.171,2-7c-5.75,0.42-9.51-1.15-10.99-5c-1.62,2.38-2.62,5.38-5,7
			c-4.32,0.648-5.61-1.73-8-3c-1.11-4.08-0.21-6.08,2-9c-0.43-1.91-2.86-1.811-2-5c-15.17,4.34-27.33-6.891-24-21
			c-0.186-1.365-1.124-1.977-2.596-2.056c-0.008,0.401-0.03,0.798-0.03,1.2c0,33.683,27.305,60.988,60.987,60.988
			s60.987-27.305,60.987-60.988C-341.952-71.295-369.256-98.6-402.938-98.6z M-351.309-65.748c2.301,10.37-8.561,12.041-12,6
			C-365.28-68.947-355.239-70.798-351.309-65.748z M-395.309-46.758c-4.41,2.619-10.01-0.98-12-4c-0.73-2.72,1.99-2.01,2-3.99
			C-400.178-53.878-394.819-53.238-395.309-46.758z M-359.309-21.758c-3.73,4.051-10.039,2.96-12-2c-1.471-8.54,8.42-9.72,12-5
			C-359.309-26.418-359.309-24.088-359.309-21.758z M-364.309-37.758c-9.07,8.21-25.66,2.301-24-12
			c-9.141-1.12-14.131-12.73-9-21.99c5.67-6.119,17.221-5.75,22,1c0.25,3.41,2.529,4.801,2,9c5.449,2.551,11.029,4.971,12,11.99
			c3.221,0.221,4.23-1.761,8-1c2.119,1.551,3.721,3.61,6,5C-341.959-34.628-360.049-27.457-364.309-37.758z"/>
		<path d="M-407.309-4.758c-0.85-0.189-0.94,0.391-1,1C-407.459-3.578-407.359-4.148-407.309-4.758z"/>
		<path d="M-409.309-3.758c-1.44,0.561-2.44,1.561-3,3C-410.869-1.318-409.869-2.318-409.309-3.758z"/>
		<path fill="#FFFFFF" d="M-347.309-45.758c-2.279-1.39-3.881-3.449-6-5c-3.77-0.761-4.779,1.221-8,1
			c-0.971-7.02-6.551-9.439-12-11.99c0.529-4.199-1.75-5.59-2-9c-4.779-6.75-16.33-7.119-22-1c-5.131,9.26-0.141,20.87,9,21.99
			c-1.66,14.301,14.93,20.21,24,12C-360.049-27.457-341.959-34.628-347.309-45.758z"/>
		<path fill="#FFFFFF" d="M-351.309-65.748c-3.93-5.05-13.971-3.199-12,6C-359.87-53.707-349.008-55.378-351.309-65.748z"/>
		<path fill="#FFFFFF" d="M-371.309-23.758c1.961,4.96,8.27,6.051,12,2c0-2.33,0-4.66,0-7
			C-362.889-33.478-372.78-32.298-371.309-23.758z"/>
		<path fill="#FFFFFF" d="M-408.309-3.758c-0.33,0-0.66,0-1,0c-0.56,1.439-1.56,2.439-3,3c-0.33,0-0.66,0-1,0
			c-0.16,2.829-1.83,4.17-2,7c-0.38,17.509,26.38,17.509,26,0c-0.9-7.9-8.24-14.25-17-11c-0.33,0-0.66,0-1,0
			C-407.359-4.148-407.459-3.578-408.309-3.758z"/>
		<path fill="#FFFFFF" d="M-405.309-54.748c-0.01,1.98-2.73,1.271-2,3.99c1.99,3.02,7.589,6.619,12,4
			C-394.819-53.238-400.178-53.878-405.309-54.748z"/>
		<path fill="#FFFFFF" d="M-461.299-36.758c-3.33,14.109,8.83,25.34,24,21c-0.86,3.189,1.57,3.09,2,5c-2.21,2.92-3.11,4.92-2,9
			c2.39,1.27,3.68,3.648,8,3c2.38-1.62,3.38-4.62,5-7c1.48,3.85,5.24,5.42,10.99,5c0.34,0,0.67,0,1,0c0.56-1.439,1.56-2.439,3-3
			c0.34,0,0.67,0,1,0c0.06-0.609,0.15-1.189,1-1c0.34,0,0.67,0,1,0c0.56-1.439,1.56-2.439,3-3c2.279-10.029-2.39-18.841-14-18
			c-2.15-1.181-2.39-4.271-6.99-3c-3,1.859,1.27,7.17-1,8c-1.33-1-3.73-0.939-4-3c2.3-2.029,2.68-5.98,3-10
			c-0.33-3.671-2.47-5.529-3-9c-2.41-2.261-5.62-3.721-7-7c4.58-1.16,12.74,4.551,19.99,1c0.83,5.01,0.68,6-3,8c0,0.34,0,0.67,0,1
			c-0.77,6.109,1.82,8.85,6,10c1,0,2,0,3,0c3.51,0.18,3.29-3.381,6-4c2.47,0.13,4.82,0.148,6-1c0-1.66,0-3.33,0-5
			c-1.33-1.421-5.66-1.421-7,0c0.01-3.671-3.5-3.83-5-6c3.29-2.08-1.68-4.21-2-6c5.73-2.93,8.22-9.109,9-16.99
			c-1.7-8.959-6.58-14.75-14-18c-4,0-7.99,0-11.99,0c-4.1,1.24-6.01,4.66-10,6c-0.249-1.893-2.335-1.949-2.904-3.518
			c-12.993,10.947-21.339,27.217-21.692,45.453C-462.423-38.735-461.485-38.123-461.299-36.758z"/>
	</g>
	<g>
		<path fill="#FFFFFF" d="M581.021-98.6c-14.96,0-28.654,5.395-39.264,14.334c0.568,1.569,2.654,1.625,2.903,3.518
			c3.99-1.34,5.899-4.76,10-6c4,0,7.99,0,11.99,0c7.42,3.25,12.3,9.041,14,18c-0.78,7.881-3.271,14.061-9,16.99
			c0.319,1.79,5.29,3.92,2,6c1.5,2.17,5.01,2.329,5,6c1.34-1.421,5.669-1.421,6.999,0c0,1.67,0,3.34,0,5
			c-1.18,1.148-3.529,1.13-5.999,1c-2.71,0.619-2.49,4.18-6,4c-1,0-2,0-3,0c-4.181-1.15-6.771-3.891-6-10c0-0.33,0-0.66,0-1
			c3.68-2,3.829-2.99,3-8c-7.25,3.551-15.41-2.16-19.99-1c1.38,3.279,4.59,4.739,7,7c0.53,3.471,2.67,5.329,3,9
			c-0.319,4.02-0.7,7.971-3,10c0.271,2.061,2.67,2,4,3c2.271-0.83-2-6.141,1-8c4.601-1.271,4.84,1.819,6.99,3
			c11.61-0.841,16.278,7.971,14,18c-1.44,0.561-2.44,1.561-3,3c8.759-3.25,16.099,3.1,16.999,11
			c0.381,17.509-26.379,17.509-25.999,0c0.17-2.83,1.84-4.171,2-7c-5.75,0.42-9.511-1.15-10.99-5c-1.62,2.38-2.62,5.38-5,7
			c-4.319,0.648-5.61-1.73-8-3c-1.11-4.08-0.21-6.08,2-9c-0.431-1.91-2.86-1.811-2-5c-15.17,4.34-27.33-6.891-24-21
			c-0.187-1.365-1.124-1.977-2.597-2.056c-0.008,0.401-0.029,0.798-0.029,1.2c0,33.683,27.305,60.988,60.986,60.988
			s60.986-27.305,60.986-60.988C642.007-71.295,614.703-98.6,581.021-98.6z M632.65-65.748c2.301,10.37-8.561,12.041-12,6
			C618.679-68.947,628.72-70.798,632.65-65.748z M588.65-46.758c-4.41,2.619-10.01-0.98-11.999-4c-0.73-2.72,1.989-2.01,2-3.99
			C583.781-53.878,589.14-53.238,588.65-46.758z M624.65-21.758c-3.73,4.051-10.039,2.96-12-2c-1.471-8.54,8.42-9.72,12-5
			C624.65-26.418,624.65-24.088,624.65-21.758z M619.65-37.758c-9.07,8.21-25.66,2.301-24-12c-9.141-1.12-14.131-12.73-9-21.99
			c5.67-6.119,17.221-5.75,22,1c0.25,3.41,2.529,4.801,2,9c5.449,2.551,11.029,4.971,12,11.99c3.221,0.221,4.23-1.761,8-1
			c2.119,1.551,3.721,3.61,6,5C642-34.628,623.91-27.457,619.65-37.758z"/>
		<path d="M576.651-4.758c-0.851-0.189-0.94,0.391-1,1C576.5-3.578,576.601-4.148,576.651-4.758z"/>
		<path d="M574.651-3.758c-1.44,0.561-2.44,1.561-3,3C573.091-1.318,574.091-2.318,574.651-3.758z"/>
		<path fill="#020202" d="M636.65-45.758c-2.279-1.39-3.881-3.449-6-5c-3.77-0.761-4.779,1.221-8,1
			c-0.971-7.02-6.551-9.439-12-11.99c0.529-4.199-1.75-5.59-2-9c-4.779-6.75-16.33-7.119-22-1c-5.131,9.26-0.141,20.87,9,21.99
			c-1.66,14.301,14.93,20.21,24,12C623.91-27.457,642-34.628,636.65-45.758z"/>
		<path fill="#020202" d="M632.65-65.748c-3.93-5.05-13.971-3.199-12,6C624.089-53.707,634.951-55.378,632.65-65.748z"/>
		<path fill="#020202" d="M612.65-23.758c1.961,4.96,8.27,6.051,12,2c0-2.33,0-4.66,0-7C621.07-33.478,611.179-32.298,612.65-23.758
			z"/>
		<path fill="#020202" d="M575.651-3.758c-0.33,0-0.66,0-1,0c-0.56,1.439-1.56,2.439-3,3c-0.33,0-0.66,0-1,0
			c-0.16,2.829-1.83,4.17-2,7c-0.38,17.509,26.38,17.509,25.999,0c-0.9-7.9-8.24-14.25-16.999-11c-0.33,0-0.66,0-1,0
			C576.601-4.148,576.5-3.578,575.651-3.758z"/>
		<path fill="#020202" d="M578.651-54.748c-0.011,1.98-2.73,1.271-2,3.99c1.989,3.02,7.589,6.619,11.999,4
			C589.14-53.238,583.781-53.878,578.651-54.748z"/>
		<path fill="#020202" d="M522.661-36.758c-3.33,14.109,8.83,25.34,24,21c-0.86,3.189,1.569,3.09,2,5c-2.21,2.92-3.11,4.92-2,9
			c2.39,1.27,3.681,3.648,8,3c2.38-1.62,3.38-4.62,5-7c1.479,3.85,5.24,5.42,10.99,5c0.34,0,0.67,0,1,0c0.56-1.439,1.56-2.439,3-3
			c0.34,0,0.67,0,1,0c0.06-0.609,0.149-1.189,1-1c0.34,0,0.67,0,1,0c0.56-1.439,1.56-2.439,3-3c2.278-10.029-2.39-18.841-14-18
			c-2.15-1.181-2.39-4.271-6.99-3c-3,1.859,1.271,7.17-1,8c-1.33-1-3.729-0.939-4-3c2.3-2.029,2.681-5.98,3-10
			c-0.33-3.671-2.47-5.529-3-9c-2.41-2.261-5.62-3.721-7-7c4.58-1.16,12.74,4.551,19.99,1c0.829,5.01,0.68,6-3,8c0,0.34,0,0.67,0,1
			c-0.771,6.109,1.819,8.85,6,10c1,0,2,0,3,0c3.51,0.18,3.29-3.381,6-4c2.47,0.13,4.819,0.148,5.999-1c0-1.66,0-3.33,0-5
			c-1.33-1.421-5.659-1.421-6.999,0c0.01-3.671-3.5-3.83-5-6c3.29-2.08-1.681-4.21-2-6c5.729-2.93,8.22-9.109,9-16.99
			c-1.7-8.959-6.58-14.75-14-18c-4,0-7.99,0-11.99,0c-4.101,1.24-6.01,4.66-10,6c-0.249-1.893-2.335-1.949-2.903-3.518
			c-12.994,10.947-21.34,27.217-21.693,45.453C521.537-38.735,522.474-38.123,522.661-36.758z"/>
	</g>
	<g>
		<path fill="#FFFFFF" d="M71.374-376.908c0.319,1.79,5.29,3.92,2,6c1.5,2.17,5.01,2.329,5,6c0.282-0.299,0.7-0.531,1.19-0.704
			v-7.226c-1.364-0.905-2.498-2.02-3.19-3.07c-0.73-2.72,1.989-2.01,2-3.99c0.396,0.067,0.793,0.134,1.19,0.201v-9.161
			C78.302-383.405,75.813-379.178,71.374-376.908z"/>
		<path fill="#FFFFFF" d="M73.374-354.908c-1,0-2,0-3,0c-4.181-1.15-6.771-3.891-6-10c0-0.33,0-0.66,0-1c3.68-2,3.829-2.99,3-8
			c-7.25,3.551-15.41-2.16-19.99-1c1.38,3.279,4.59,4.739,7,7c0.53,3.471,2.67,5.329,3,9c-0.319,4.02-0.7,7.971-3,10
			c0.271,2.061,2.67,2,4,3c2.271-0.83-2-6.141,1-8c4.601-1.271,4.84,1.819,6.99,3c6.747-0.489,11.133,2.294,13.19,6.669v-14.661
			c-0.063-0.003-0.126-0.005-0.19-0.009C76.664-358.289,76.883-354.728,73.374-354.908z"/>
		<path fill="#FFFFFF" d="M44.383-405.898c3.99-1.34,5.899-4.76,10-6c4,0,7.99,0,11.99,0c6.47,2.834,11.006,7.601,13.19,14.714
			v-26.54c-14.498,0.277-27.754,5.605-38.083,14.308C42.048-407.847,44.134-407.791,44.383-405.898z"/>
		<path fill="#FFFFFF" d="M77.374-329.908c0.743-0.275,1.471-0.458,2.19-0.601v-1.991C78.558-331.911,77.819-331.055,77.374-329.908
			z"/>
		<path fill="#FFFFFF" d="M68.374-318.908c0.17-2.83,1.84-4.171,2-7c-5.75,0.42-9.511-1.15-10.99-5c-1.62,2.38-2.62,5.38-5,7
			c-4.319,0.648-5.61-1.73-8-3c-1.11-4.08-0.21-6.08,2-9c-0.431-1.91-2.86-1.811-2-5c-15.17,4.34-27.33-6.891-24-21
			c-0.187-1.365-1.124-1.977-2.597-2.056c-0.008,0.401-0.029,0.798-0.029,1.2c0,33.287,26.671,60.327,59.806,60.958v-4.094
			C73.626-306.629,68.201-310.957,68.374-318.908z"/>
		<path fill="#FFFFFF" d="M80.744-423.75c-0.073,0-0.145,0.004-0.217,0.005c33.593,0.105,60.793,27.365,60.793,60.982
			c0,33.614-27.194,60.871-60.782,60.982c0.069,0,0.136,0.005,0.205,0.005c33.682,0,60.986-27.305,60.986-60.988
			C141.73-396.445,114.425-423.75,80.744-423.75z"/>
		<path d="M76.374-329.908c-0.851-0.189-0.94,0.391-1,1C76.223-328.728,76.324-329.298,76.374-329.908z"/>
		<path d="M74.374-328.908c-1.44,0.561-2.44,1.561-3,3C72.814-326.468,73.814-327.468,74.374-328.908z"/>
		<path fill="#020202" d="M76.374-329.908c-0.05,0.609-0.15,1.18-1,1c-0.33,0-0.66,0-1,0c-0.56,1.439-1.56,2.439-3,3
			c-0.33,0-0.66,0-1,0c-0.16,2.829-1.83,4.17-2,7c-0.172,7.951,5.253,12.278,11.19,13.008v-24.609
			c-0.719,0.142-1.447,0.325-2.19,0.601C77.043-329.908,76.713-329.908,76.374-329.908z"/>
		<path fill="#020202" d="M76.374-375.908c0.692,1.05,1.826,2.166,3.19,3.07v-6.859c-0.396-0.067-0.793-0.134-1.19-0.201
			C78.363-377.917,75.643-378.627,76.374-375.908z"/>
		<path fill="#020202" d="M22.383-361.908c-3.33,14.109,8.83,25.34,24,21c-0.86,3.189,1.569,3.09,2,5c-2.21,2.92-3.11,4.92-2,9
			c2.39,1.27,3.681,3.648,8,3c2.38-1.62,3.38-4.62,5-7c1.479,3.85,5.24,5.42,10.99,5c0.34,0,0.67,0,1,0c0.56-1.439,1.56-2.439,3-3
			c0.34,0,0.67,0,1,0c0.06-0.609,0.149-1.189,1-1c0.34,0,0.67,0,1,0c0.446-1.147,1.185-2.003,2.19-2.592v-11.739
			c-2.057-4.375-6.443-7.158-13.19-6.669c-2.15-1.181-2.39-4.271-6.99-3c-3,1.859,1.271,7.17-1,8c-1.33-1-3.729-0.939-4-3
			c2.3-2.029,2.681-5.98,3-10c-0.33-3.671-2.47-5.529-3-9c-2.41-2.261-5.62-3.721-7-7c4.58-1.16,12.74,4.551,19.99,1
			c0.829,5.01,0.68,6-3,8c0,0.34,0,0.67,0,1c-0.771,6.109,1.819,8.85,6,10c1,0,2,0,3,0c3.51,0.18,3.29-3.381,6-4
			c0.064,0.003,0.126,0.005,0.19,0.009v-6.712c-0.49,0.173-0.908,0.405-1.19,0.704c0.01-3.671-3.5-3.83-5-6
			c3.29-2.08-1.681-4.21-2-6c4.44-2.27,6.929-6.498,8.19-11.95v-8.326c-2.184-7.113-6.72-11.88-13.19-14.714c-4,0-7.99,0-11.99,0
			c-4.101,1.24-6.01,4.66-10,6c-0.249-1.893-2.335-1.949-2.903-3.518c-12.994,10.947-21.34,27.217-21.693,45.453
			C21.259-363.885,22.197-363.273,22.383-361.908z"/>
		<path fill="#020202" d="M79.563-301.795c0.257,0.003,0.512,0.02,0.77,0.02c0.069,0,0.136-0.005,0.205-0.005
			c-0.327-0.001-0.649-0.018-0.975-0.024V-301.795z"/>
		<path fill="#020202" d="M80.333-423.75c-0.258,0-0.513,0.014-0.77,0.018v0.009c0.321-0.006,0.641-0.021,0.963-0.021
			C80.462-423.745,80.398-423.75,80.333-423.75z"/>
		<path fill="#020202" d="M141.32-362.763c0-33.618-27.201-60.877-60.793-60.982c-0.323,0.001-0.642,0.016-0.963,0.021v26.54
			c0.321,1.045,0.592,2.139,0.81,3.286c-0.176,1.774-0.444,3.456-0.81,5.04v9.161c4.733,0.803,9.261,1.81,8.809,7.789
			c-2.876,1.708-6.252,0.766-8.809-0.93v7.226c1.842-0.651,4.758-0.418,5.809,0.704c0,1.67,0,3.34,0,5
			c-1.149,1.119-3.41,1.129-5.809,1.009v14.661c1.483,3.154,1.764,7.129,0.81,11.331c-0.292,0.114-0.554,0.258-0.81,0.408v1.991
			c7.763-1.537,13.985,4.37,14.809,11.601c0.208,9.559-7.671,13.886-14.809,13.008v4.094c0.326,0.006,0.648,0.023,0.975,0.024
			C114.126-301.892,141.32-329.149,141.32-362.763z M132.373-390.898c2.301,10.37-8.561,12.041-12,6
			C118.402-394.097,128.443-395.948,132.373-390.898z M95.373-374.908c-9.141-1.12-14.131-12.73-9-21.99
			c5.67-6.119,17.221-5.75,22,1c0.25,3.41,2.529,4.801,2,9c5.449,2.551,11.029,4.971,12,11.99c3.221,0.221,4.23-1.761,8-1
			c2.119,1.551,3.721,3.61,6,5c5.35,11.13-12.74,18.301-17,8C110.302-354.698,93.712-360.607,95.373-374.908z M112.373-348.908
			c-1.471-8.54,8.42-9.72,12-5c0,2.34,0,4.67,0,7C120.642-342.857,114.333-343.948,112.373-348.908z"/>
		<path fill="#FFFFFF" d="M136.373-370.908c-2.279-1.39-3.881-3.449-6-5c-3.77-0.761-4.779,1.221-8,1
			c-0.971-7.02-6.551-9.439-12-11.99c0.529-4.199-1.75-5.59-2-9c-4.779-6.75-16.33-7.119-22-1c-5.131,9.26-0.141,20.87,9,21.99
			c-1.66,14.301,14.93,20.21,24,12C123.632-352.607,141.722-359.778,136.373-370.908z"/>
		<path fill="#FFFFFF" d="M132.373-390.898c-3.93-5.05-13.971-3.199-12,6C123.812-378.857,134.673-380.528,132.373-390.898z"/>
		<path fill="#FFFFFF" d="M124.373-353.908c-3.58-4.72-13.471-3.54-12,5c1.961,4.96,8.27,6.051,12,2
			C124.373-349.238,124.373-351.568,124.373-353.908z"/>
		<path fill="#FFFFFF" d="M94.373-318.908c-0.824-7.23-7.046-13.138-14.809-11.601v24.609
			C86.702-305.021,94.581-309.349,94.373-318.908z"/>
		<path fill="#FFFFFF" d="M88.373-371.908c0.452-5.979-4.076-6.986-8.809-7.789v6.859C82.12-371.142,85.497-370.2,88.373-371.908z"
			/>
		<path fill="#FFFFFF" d="M80.374-332.908c0.954-4.201,0.673-8.177-0.81-11.331v11.739C79.82-332.649,80.081-332.794,80.374-332.908
			z"/>
		<path fill="#FFFFFF" d="M85.373-359.908c0-1.66,0-3.33,0-5c-1.051-1.122-3.967-1.354-5.809-0.704v6.712
			C81.962-358.779,84.223-358.789,85.373-359.908z"/>
		<path fill="#FFFFFF" d="M80.374-393.898c-0.218-1.147-0.489-2.241-0.81-3.286v8.326C79.93-390.442,80.198-392.124,80.374-393.898z
			"/>
	</g>
	<g>
		<path fill="#FFFFFF" d="M63.689,235.652c0.417-0.121,0.833-0.243,1.254-0.355C64.522,235.409,64.106,235.531,63.689,235.652z"/>
		<path fill="#FFFFFF" d="M43.318,246.069c0.091-0.071,0.18-0.144,0.271-0.214C43.499,245.925,43.409,245.998,43.318,246.069z"/>
		<path fill="#FFFFFF" d="M47.538,243.06c0.171-0.11,0.343-0.221,0.515-0.33C47.881,242.839,47.709,242.949,47.538,243.06z"/>
		<path fill="#FFFFFF" d="M66.378,234.935c0.457-0.11,0.915-0.218,1.376-0.317C67.293,234.717,66.835,234.825,66.378,234.935z"/>
		<path fill="#FFFFFF" d="M61.136,236.458c0.352-0.12,0.7-0.244,1.055-0.357C61.836,236.213,61.488,236.337,61.136,236.458z"/>
		<path fill="#FFFFFF" d="M77.793,233.292c0.862-0.041,1.73-0.061,2.601-0.065C79.523,233.231,78.655,233.25,77.793,233.292z"/>
		<path fill="#FFFFFF" d="M71.98,233.853c0.53-0.076,1.064-0.141,1.599-0.203C73.044,233.713,72.51,233.777,71.98,233.853z"/>
		<path fill="#FFFFFF" d="M74.864,233.505c0.595-0.058,1.195-0.097,1.794-0.137C76.059,233.409,75.458,233.448,74.864,233.505z"/>
		<path fill="#FFFFFF" d="M69.148,234.333c0.491-0.095,0.985-0.183,1.481-0.265C70.133,234.151,69.64,234.238,69.148,234.333z"/>
		<path fill="#FFFFFF" d="M45.359,244.547c0.143-0.102,0.286-0.204,0.43-0.306C45.645,244.343,45.502,244.446,45.359,244.547z"/>
		<path fill="#FFFFFF" d="M49.82,241.644c0.18-0.106,0.362-0.208,0.543-0.313C50.182,241.436,50,241.538,49.82,241.644z"/>
		<path fill="#FFFFFF" d="M59.203,237.143c0.1-0.037,0.198-0.08,0.298-0.117C59.4,237.063,59.303,237.106,59.203,237.143z"/>
		<path fill="#FFFFFF" d="M81.514,233.238v44.396c3.945,0.819,7.248,2.279,6.859,7.427c-2.189,1.3-4.671,1.066-6.859,0.133v5.813
			c1.532-0.065,3.137,0.283,3.859,1.055c0,1.67,0,3.34,0,5c-0.829,0.807-2.239,1.033-3.859,1.054v28.11
			c6.833-0.28,12.105,5.223,12.859,11.836c0.189,8.692-6.311,13.064-12.859,13.127v3.985c-0.257,0.002-0.512,0.02-0.77,0.02
			c-18.731,0-35.481-8.452-46.668-21.741c11.187,13.29,27.938,21.742,46.668,21.742c33.682,0,60.986-27.306,60.986-60.988
			C141.73,260.781,114.839,233.652,81.514,233.238z M132.373,266.07c2.301,10.37-8.561,12.041-12,6
			C118.402,262.871,128.443,261.02,132.373,266.07z M124.373,310.06c-3.73,4.051-10.039,2.96-12-2c-1.471-8.54,8.42-9.72,12-5
			C124.373,305.4,124.373,307.73,124.373,310.06z M119.373,294.06c-9.07,8.21-25.66,2.301-24-12c-9.141-1.12-14.131-12.73-9-21.99
			c5.67-6.119,17.221-5.75,22,1c0.25,3.41,2.529,4.801,2,9c5.449,2.551,11.029,4.971,12,11.99c3.221,0.221,4.23-1.761,8-1
			c2.119,1.551,3.721,3.61,6,5C141.722,297.19,123.632,304.361,119.373,294.06z"/>
		<path fill="#FFFFFF" d="M52.189,240.314c0.154-0.081,0.311-0.157,0.465-0.238C52.5,240.157,52.343,240.233,52.189,240.314z"/>
		<path fill="#FFFFFF" d="M19.787,293.004c-0.004,0.205-0.008,0.409-0.015,0.612C19.773,293.412,19.783,293.208,19.787,293.004
			L19.787,293.004z"/>
		<path fill="#020202" d="M136.373,286.06c-2.279-1.39-3.881-3.449-6-5c-3.77-0.761-4.779,1.221-8,1
			c-0.971-7.02-6.551-9.439-12-11.99c0.529-4.199-1.75-5.59-2-9c-4.779-6.75-16.33-7.119-22-1c-5.131,9.26-0.141,20.87,9,21.99
			c-1.66,14.301,14.93,20.21,24,12C123.632,304.361,141.722,297.19,136.373,286.06z"/>
		<path fill="#020202" d="M132.373,266.07c-3.93-5.05-13.971-3.199-12,6C123.812,278.111,134.673,276.44,132.373,266.07z"/>
		<path fill="#020202" d="M112.373,308.06c1.961,4.96,8.27,6.051,12,2c0-2.33,0-4.66,0-7
			C120.792,298.34,110.902,299.52,112.373,308.06z"/>
		<path fill="#020202" d="M94.373,338.06c-0.754-6.613-6.026-12.116-12.859-11.836v24.963
			C88.062,351.125,94.562,346.752,94.373,338.06z"/>
		<path fill="#020202" d="M88.373,285.06c0.389-5.147-2.914-6.607-6.859-7.427v7.56C83.702,286.126,86.184,286.36,88.373,285.06z"/>
		<path fill="#020202" d="M39.002,249.761c0.048-0.045,0.096-0.092,0.144-0.137C39.097,249.669,39.05,249.716,39.002,249.761z"/>
		<path fill="#020202" d="M36.694,252.05c0.078-0.081,0.155-0.164,0.233-0.244C36.849,251.886,36.772,251.969,36.694,252.05z"/>
		<path fill="#020202" d="M28.997,261.94c0.003-0.005,0.006-0.009,0.009-0.014C29.002,261.931,29,261.935,28.997,261.94z"/>
		<path fill="#020202" d="M20.284,286.299c0.003-0.021,0.005-0.042,0.008-0.063C20.289,286.257,20.287,286.279,20.284,286.299z"/>
		<path fill="#020202" d="M30.713,259.344c0.047-0.066,0.095-0.132,0.142-0.199C30.808,259.212,30.76,259.278,30.713,259.344z"/>
		<path fill="#020202" d="M19.788,292.98c0,0.008-0.001,0.016-0.001,0.024h0C19.788,292.997,19.788,292.988,19.788,292.98z"/>
		<path fill="#020202" d="M19.944,289.65c0.002-0.029,0.004-0.058,0.006-0.086C19.948,289.592,19.946,289.621,19.944,289.65z"/>
		<path fill="#020202" d="M32.566,256.833c0.072-0.093,0.145-0.185,0.217-0.277C32.711,256.648,32.638,256.74,32.566,256.833z"/>
		<path fill="#020202" d="M85.373,297.06c0-1.66,0-3.33,0-5c-0.722-0.771-2.327-1.12-3.859-1.055v7.108
			C83.133,298.093,84.544,297.867,85.373,297.06z"/>
		<path fill="#020202" d="M34.557,254.402c0.083-0.096,0.166-0.192,0.25-0.288C34.723,254.209,34.64,254.306,34.557,254.402z"/>
		<path fill="#020202" d="M34.807,254.114c0.613-0.702,1.243-1.39,1.888-2.063C36.049,252.724,35.42,253.412,34.807,254.114z"/>
		<path fill="#020202" d="M19.788,292.98c0.022-1.118,0.075-2.229,0.156-3.33C19.862,290.751,19.81,291.862,19.788,292.98z"/>
		<path fill="#020202" d="M19.95,289.564c0.083-1.097,0.194-2.186,0.333-3.265C20.144,287.379,20.033,288.467,19.95,289.564z"/>
		<path fill="#020202" d="M45.789,244.242c0.576-0.403,1.159-0.797,1.75-1.182C46.948,243.445,46.365,243.838,45.789,244.242z"/>
		<path fill="#020202" d="M29.005,261.926c0.547-0.876,1.118-1.736,1.708-2.582C30.124,260.19,29.553,261.05,29.005,261.926z"/>
		<path fill="#020202" d="M36.927,251.806c0.675-0.698,1.367-1.38,2.075-2.045C38.294,250.426,37.603,251.108,36.927,251.806z"/>
		<path fill="#020202" d="M43.59,245.855c0.581-0.446,1.172-0.881,1.769-1.308C44.761,244.974,44.17,245.409,43.59,245.855z"/>
		<path fill="#020202" d="M30.855,259.145c0.552-0.784,1.123-1.556,1.711-2.313C31.978,257.589,31.408,258.361,30.855,259.145z"/>
		<path fill="#020202" d="M20.292,286.237c1.152-8.834,4.192-17.072,8.705-24.297C24.482,269.166,21.445,277.403,20.292,286.237z"/>
		<path fill="#020202" d="M32.784,256.555c0.575-0.731,1.167-1.449,1.773-2.153C33.95,255.106,33.359,255.824,32.784,256.555z"/>
		<path fill="#020202" d="M76.658,233.369c0.378-0.025,0.754-0.059,1.135-0.077C77.413,233.31,77.037,233.343,76.658,233.369z"/>
		<path fill="#020202" d="M73.579,233.65c0.428-0.05,0.854-0.104,1.285-0.145C74.433,233.546,74.006,233.6,73.579,233.65z"/>
		<path fill="#020202" d="M81.514,233.238v-0.003c-0.257-0.004-0.512-0.018-0.77-0.018c-0.117,0-0.232,0.008-0.35,0.009
			c0.117-0.001,0.232-0.008,0.35-0.008C81.002,233.218,81.256,233.235,81.514,233.238z"/>
		<path fill="#020202" d="M43.318,246.069c-1.444,1.124-2.837,2.309-4.172,3.556c0.76-0.71,1.538-1.401,2.334-2.072
			C42.082,247.045,42.697,246.553,43.318,246.069z"/>
		<path fill="#020202" d="M48.053,242.73c0.583-0.371,1.171-0.734,1.767-1.086C49.224,241.996,48.636,242.359,48.053,242.73z"/>
		<path fill="#020202" d="M19.771,293.617c-0.001,0.196-0.015,0.391-0.015,0.587c0,14.952,5.389,28.639,14.318,39.247
			c-8.93-10.608-14.318-24.295-14.318-39.246C19.757,294.007,19.766,293.812,19.771,293.617z"/>
		<path fill="#020202" d="M70.629,234.068c0.449-0.075,0.898-0.149,1.351-0.215C71.527,233.918,71.078,233.993,70.629,234.068z"/>
		<path fill="#020202" d="M50.363,241.332c0.603-0.348,1.21-0.69,1.826-1.018C51.573,240.641,50.967,240.984,50.363,241.332z"/>
		<path fill="#020202" d="M52.654,240.076c2.114-1.1,4.299-2.081,6.549-2.933C56.952,237.994,54.769,238.976,52.654,240.076z"/>
		<path fill="#020202" d="M67.754,234.618c0.462-0.101,0.927-0.195,1.394-0.285C68.682,234.422,68.217,234.517,67.754,234.618z"/>
		<path fill="#020202" d="M64.943,235.296c0.476-0.128,0.955-0.245,1.436-0.361C65.898,235.051,65.418,235.168,64.943,235.296z"/>
		<path fill="#020202" d="M59.5,237.026c0.54-0.201,1.089-0.383,1.636-0.568C60.589,236.643,60.041,236.826,59.5,237.026z"/>
		<path fill="#020202" d="M62.191,236.1c0.495-0.158,0.997-0.302,1.498-0.448C63.188,235.798,62.687,235.942,62.191,236.1z"/>
		<path fill="#020202" d="M44.383,251.07c3.99-1.34,5.899-4.76,10-6c4,0,7.99,0,11.99,0c7.42,3.25,12.3,9.041,14,18
			c-0.78,7.881-3.271,14.061-9,16.99c0.319,1.79,5.29,3.92,2,6c1.5,2.17,5.01,2.329,5,6c0.612-0.649,1.85-0.999,3.14-1.055v-5.813
			c-2.22-0.946-4.138-2.612-5.14-4.133c-0.73-2.72,1.989-2.01,2-3.99c1.056,0.179,2.118,0.351,3.14,0.563v-44.396
			c-0.257-0.003-0.512-0.02-0.77-0.02c-0.117,0-0.233,0.007-0.35,0.008c-0.871,0.005-1.739,0.024-2.601,0.065
			c-0.38,0.019-0.756,0.052-1.135,0.077c-0.6,0.04-1.2,0.079-1.794,0.137c-0.431,0.041-0.857,0.095-1.285,0.145
			c-0.535,0.063-1.068,0.127-1.599,0.203c-0.453,0.065-0.902,0.14-1.351,0.215c-0.496,0.082-0.99,0.17-1.481,0.265
			c-0.467,0.09-0.932,0.185-1.394,0.285c-0.461,0.1-0.919,0.207-1.376,0.317c-0.48,0.116-0.96,0.233-1.436,0.361
			c-0.42,0.112-0.837,0.234-1.254,0.355c-0.501,0.146-1.003,0.29-1.498,0.448c-0.354,0.113-0.703,0.237-1.055,0.357
			c-0.547,0.186-1.096,0.367-1.636,0.568c-0.1,0.037-0.198,0.08-0.298,0.117c-2.25,0.852-4.435,1.833-6.549,2.933
			c-0.154,0.081-0.311,0.157-0.465,0.238c-0.616,0.327-1.223,0.67-1.826,1.018c-0.181,0.104-0.363,0.206-0.543,0.313
			c-0.596,0.352-1.184,0.715-1.767,1.086c-0.172,0.109-0.344,0.22-0.515,0.33c-0.59,0.385-1.174,0.778-1.75,1.182
			c-0.144,0.102-0.287,0.204-0.43,0.306c-0.597,0.427-1.188,0.861-1.769,1.308c-0.091,0.07-0.181,0.143-0.271,0.214
			c-0.622,0.484-1.236,0.977-1.838,1.483C42.048,249.121,44.134,249.177,44.383,251.07z"/>
		<path fill="#020202" d="M80.744,355.192c0.258,0,0.513-0.018,0.77-0.02v-3.985c-6.641,0.063-13.332-4.31-13.14-13.127
			c0.17-2.83,1.84-4.171,2-7c-5.75,0.42-9.511-1.15-10.99-5c-1.62,2.38-2.62,5.38-5,7c-4.319,0.648-5.61-1.73-8-3
			c-1.11-4.08-0.21-6.08,2-9c-0.431-1.91-2.86-1.811-2-5c-15.17,4.34-27.33-6.891-24-21c-0.187-1.365-1.124-1.977-2.596-2.056
			c-0.004,0.204-0.014,0.407-0.016,0.612c-0.006,0.195-0.014,0.391-0.014,0.588c0,14.951,5.388,28.638,14.318,39.246
			C45.262,346.74,62.013,355.192,80.744,355.192z"/>
		<path fill="#020202" d="M79.374,298.06c-2.71,0.619-2.49,4.18-6,4c-1,0-2,0-3,0c-4.181-1.15-6.771-3.891-6-10c0-0.33,0-0.66,0-1
			c3.68-2,3.829-2.99,3-8c-7.25,3.551-15.41-2.16-19.99-1c1.38,3.279,4.59,4.739,7,7c0.53,3.471,2.67,5.329,3,9
			c-0.319,4.02-0.7,7.971-3,10c0.271,2.061,2.67,2,4,3c2.271-0.83-2-6.141,1-8c4.601-1.271,4.84,1.819,6.99,3
			c11.61-0.841,16.278,7.971,14,18c-1.44,0.561-2.44,1.561-3,3c1.427-0.529,2.81-0.781,4.14-0.836v-28.11
			C80.828,298.123,80.108,298.099,79.374,298.06z"/>
		<path fill="#020202" d="M76.374,327.06c-0.851-0.189-0.94,0.391-1,1C76.223,328.24,76.324,327.669,76.374,327.06z"/>
		<path fill="#020202" d="M74.374,328.06c-1.44,0.561-2.44,1.561-3,3C72.814,330.5,73.814,329.5,74.374,328.06z"/>
		<path fill="#FDFFFF" d="M76.374,327.06c-0.05,0.609-0.15,1.18-1,1c-0.33,0-0.66,0-1,0c-0.56,1.439-1.56,2.439-3,3
			c-0.33,0-0.66,0-1,0c-0.16,2.829-1.83,4.17-2,7c-0.191,8.817,6.499,13.189,13.14,13.127v-24.963
			c-1.33,0.055-2.713,0.307-4.14,0.836C77.043,327.06,76.713,327.06,76.374,327.06z"/>
		<path fill="#020202" d="M76.374,281.06c1.002,1.521,2.92,3.187,5.14,4.133v-7.56c-1.022-0.213-2.084-0.385-3.14-0.563
			C78.363,279.05,75.643,278.34,76.374,281.06z"/>
		<path fill="#FDFFFF" d="M22.383,295.06c-3.33,14.109,8.83,25.34,24,21c-0.86,3.189,1.569,3.09,2,5c-2.21,2.92-3.11,4.92-2,9
			c2.39,1.27,3.681,3.648,8,3c2.38-1.62,3.38-4.62,5-7c1.479,3.85,5.24,5.42,10.99,5c0.34,0,0.67,0,1,0c0.56-1.439,1.56-2.439,3-3
			c0.34,0,0.67,0,1,0c0.06-0.609,0.149-1.189,1-1c0.34,0,0.67,0,1,0c0.56-1.439,1.56-2.439,3-3c2.278-10.029-2.39-18.841-14-18
			c-2.15-1.181-2.39-4.271-6.99-3c-3,1.859,1.271,7.17-1,8c-1.33-1-3.729-0.939-4-3c2.3-2.029,2.681-5.98,3-10
			c-0.33-3.671-2.47-5.529-3-9c-2.41-2.261-5.62-3.721-7-7c4.58-1.16,12.74,4.551,19.99,1c0.829,5.01,0.68,6-3,8c0,0.34,0,0.67,0,1
			c-0.771,6.109,1.819,8.85,6,10c1,0,2,0,3,0c3.51,0.18,3.29-3.381,6-4c0.735,0.039,1.454,0.063,2.14,0.054v-7.108
			c-1.29,0.056-2.528,0.405-3.14,1.055c0.01-3.671-3.5-3.83-5-6c3.29-2.08-1.681-4.21-2-6c5.729-2.93,8.22-9.109,9-16.99
			c-1.7-8.959-6.58-14.75-14-18c-4,0-7.99,0-11.99,0c-4.101,1.24-6.01,4.66-10,6c-0.249-1.893-2.335-1.949-2.903-3.518
			c-0.796,0.671-1.574,1.362-2.334,2.072c-0.048,0.045-0.096,0.092-0.144,0.137c-0.708,0.665-1.399,1.347-2.075,2.045
			c-0.078,0.08-0.155,0.163-0.233,0.244c-0.645,0.674-1.274,1.361-1.888,2.063c-0.083,0.096-0.167,0.192-0.25,0.288
			c-0.607,0.704-1.198,1.422-1.773,2.153c-0.072,0.093-0.146,0.185-0.217,0.277c-0.588,0.757-1.159,1.528-1.711,2.313
			c-0.047,0.067-0.095,0.133-0.142,0.199c-0.59,0.846-1.161,1.706-1.708,2.582c-0.003,0.005-0.006,0.009-0.009,0.014
			c-4.513,7.225-7.553,15.463-8.705,24.297c-0.002,0.021-0.005,0.042-0.008,0.063c-0.14,1.079-0.251,2.168-0.333,3.265
			c-0.002,0.028-0.004,0.057-0.006,0.086c-0.082,1.102-0.134,2.212-0.156,3.33c0,0.008,0,0.017,0,0.024
			C21.259,293.083,22.197,293.695,22.383,295.06z"/>
	</g>
	<rect x="396.368" y="-212.493" transform="matrix(1 0.0086 -0.0086 1 -1.587 -3.9306)" fill="none" width="118.5" height="52.5"/>
	<text transform="matrix(1 0 0 1 396.5894 -204.4824)" font-family="'MyriadPro-Regular'" font-size="12">Waning Gibbous</text>
	<rect x="390.073" y="302.404" fill="none" width="118.5" height="52.5"/>
	<text transform="matrix(1 0 0 1 390.0728 310.9243)" font-family="'MyriadPro-Regular'" font-size="12">Waxing Gibbous</text>
	<rect x="-303.482" y="292.261" fill="none" width="118.5" height="52.5"/>
	<text transform="matrix(1 0 0 1 -303.4819 300.7808)" font-family="'MyriadPro-Regular'" font-size="12">Waxing Crescent</text>
	<rect x="-306.443" y="-236.201" fill="none" width="118.5" height="52.5"/>
	<text transform="matrix(1 0 0 1 -306.4434 -227.6812)" font-family="'MyriadPro-Regular'" font-size="12">Waning Crescent</text>
</g>
<g id="Layer_1">
	<g>
		<path fill="#FFFFFF" d="M439.012-235.462c2.95-1.801,4.55-4.949,7.5-6.75c4.92-6.58,9.489-13.51,13.5-21
			c1.58-4.714,3.075-9.513,4.189-14.694c-0.201-0.338-0.388-0.691-0.54-1.076c-0.504-2.925,0.326-4.986,1.778-6.243
			c0.195-1.583,0.337-3.218,0.438-4.895c-9.093,3.259-20.613-2.83-19.217-14.862c-9.141-1.12-14.131-12.73-9-21.99
			c4.205-4.539,11.642-5.499,17.155-2.943c-0.021-0.015-0.035-0.033-0.055-0.048c-2.34-5.91-6.351-10.15-10.5-14.25
			c-2.69-3.311-5.69-6.311-9-9c-0.19-0.117-0.501-0.314-0.844-0.551c-0.792-0.03-1.585-0.06-2.386-0.06
			c-14.96,0-28.654,5.395-39.264,14.334c0.568,1.569,2.654,1.625,2.903,3.518c3.99-1.34,5.899-4.76,10-6c4,0,7.99,0,11.99,0
			c7.42,3.25,12.3,9.041,14,18c-0.78,7.881-3.271,14.061-9,16.99c0.319,1.79,5.29,3.92,2,6c1.5,2.17,5.01,2.329,5,6
			c1.34-1.421,5.669-1.421,6.999,0c0,1.67,0,3.34,0,5c-1.18,1.148-3.529,1.13-5.999,1c-2.71,0.619-2.49,4.18-6,4c-1,0-2,0-3,0
			c-4.181-1.15-6.771-3.891-6-10c0-0.33,0-0.66,0-1c3.68-2,3.829-2.99,3-8c-7.25,3.551-15.41-2.16-19.99-1
			c1.38,3.279,4.59,4.739,7,7c0.53,3.471,2.67,5.329,3,9c-0.319,4.02-0.7,7.97-3,10c0.271,2.061,2.67,2,4,3c2.271-0.83-2-6.141,1-8
			c4.601-1.271,4.84,1.82,6.99,3c11.61-0.84,16.278,7.971,14,18c-1.44,0.561-2.44,1.561-3,3c8.759-3.25,16.099,3.1,16.999,11
			c0.381,17.51-26.379,17.51-25.999,0c0.17-2.83,1.84-4.17,2-7c-5.75,0.42-9.511-1.15-10.99-5c-1.62,2.381-2.62,5.381-5,7
			c-4.319,0.648-5.61-1.73-8-3c-1.11-4.08-0.21-6.08,2-9c-0.431-1.91-2.86-1.811-2-5c-15.17,4.34-27.33-6.891-24-21
			c-0.187-1.365-1.124-1.977-2.597-2.056c-0.008,0.401-0.029,0.798-0.029,1.2c0,33.683,27.305,60.988,60.986,60.988
			c1.111,0,2.215-0.034,3.313-0.092C436.024-233.659,438.686-233.392,439.012-235.462z M439.662-301.981
			c-4.41,2.619-10.01-0.98-11.999-4c-0.73-2.72,1.989-2.01,2-3.99C434.792-309.101,440.152-308.461,439.662-301.981z"/>
		<path d="M427.663-259.981c-0.851-0.189-0.94,0.391-1,1C427.512-258.802,427.613-259.372,427.663-259.981z"/>
		<path d="M425.663-258.981c-1.44,0.561-2.44,1.561-3,3C424.103-256.542,425.103-257.542,425.663-258.981z"/>
		<path fill="#020202" d="M437.662-326.971c-5.131,9.26-0.141,20.87,9,21.99c-1.396,12.032,10.124,18.121,19.217,14.862
			c0.048-0.778,0.109-1.542,0.134-2.343c-0.09-11.9-3.55-21.949-6.75-29.25c-1.31-2.996-1.936-6.314-4.445-8.202
			C449.303-332.47,441.867-331.51,437.662-326.971z"/>
		<path fill="#020202" d="M463.662-278.981c0.152,0.385,0.339,0.738,0.54,1.076c0.505-2.348,0.926-4.779,1.238-7.319
			C463.988-283.968,463.158-281.907,463.662-278.981z"/>
		<path fill="#020202" d="M426.663-258.981c-0.33,0-0.66,0-1,0c-0.56,1.439-1.56,2.439-3,3c-0.33,0-0.66,0-1,0
			c-0.16,2.83-1.83,4.17-2,7c-0.38,17.51,26.38,17.51,25.999,0c-0.9-7.9-8.24-14.25-16.999-11c-0.33,0-0.66,0-1,0
			C427.613-259.372,427.512-258.802,426.663-258.981z"/>
		<path fill="#020202" d="M429.663-309.971c-0.011,1.98-2.73,1.271-2,3.99c1.989,3.02,7.589,6.619,11.999,4
			C440.152-308.461,434.792-309.101,429.663-309.971z"/>
		<path fill="#020202" d="M373.672-291.981c-3.33,14.109,8.83,25.339,24,21c-0.86,3.189,1.569,3.09,2,5c-2.21,2.92-3.11,4.92-2,9
			c2.39,1.27,3.681,3.648,8,3c2.38-1.619,3.38-4.619,5-7c1.479,3.85,5.24,5.42,10.99,5c0.34,0,0.67,0,1,0c0.56-1.439,1.56-2.439,3-3
			c0.34,0,0.67,0,1,0c0.06-0.609,0.149-1.189,1-1c0.34,0,0.67,0,1,0c0.56-1.439,1.56-2.439,3-3c2.278-10.029-2.39-18.84-14-18
			c-2.15-1.18-2.39-4.271-6.99-3c-3,1.859,1.271,7.17-1,8c-1.33-1-3.729-0.939-4-3c2.3-2.029,2.681-5.98,3-10
			c-0.33-3.671-2.47-5.529-3-9c-2.41-2.261-5.62-3.721-7-7c4.58-1.16,12.74,4.551,19.99,1c0.829,5.01,0.68,6-3,8c0,0.34,0,0.67,0,1
			c-0.771,6.109,1.819,8.85,6,10c1,0,2,0,3,0c3.51,0.18,3.29-3.381,6-4c2.47,0.13,4.819,0.148,5.999-1c0-1.66,0-3.33,0-5
			c-1.33-1.421-5.659-1.421-6.999,0c0.01-3.671-3.5-3.83-5-6c3.29-2.08-1.681-4.21-2-6c5.729-2.93,8.22-9.109,9-16.99
			c-1.7-8.959-6.58-14.75-14-18c-4,0-7.99,0-11.99,0c-4.101,1.24-6.01,4.66-10,6c-0.249-1.893-2.335-1.949-2.903-3.518
			c-12.994,10.947-21.34,27.217-21.693,45.453C372.548-293.958,373.486-293.346,373.672-291.981z"/>
		<path d="M493.019-292.836c0-32.882-26.026-59.671-58.601-60.927c0.343,0.237,0.653,0.434,0.844,0.551c3.31,2.689,6.31,5.689,9,9
			c4.149,4.1,8.16,8.34,10.5,14.25c0.02,0.015,0.034,0.033,0.055,0.048c1.92,0.89,3.61,2.199,4.845,3.943c0.25,3.41,2.529,4.801,2,9
			c5.449,2.551,11.029,4.971,12,11.99c3.221,0.221,4.23-1.761,8-1c2.119,1.551,3.721,3.61,6,5c5.35,11.13-12.74,18.3-17,8
			c-1.439,1.303-3.068,2.247-4.783,2.862c-0.102,1.676-0.243,3.312-0.438,4.895c2.788-2.412,7.868-1.859,10.222,1.243
			c0,2.34,0,4.67,0,7c-3.441,3.736-9.067,3.09-11.46-0.924c-1.114,5.181-2.609,9.98-4.189,14.694c-4.011,7.49-8.58,14.42-13.5,21
			c-2.95,1.801-4.55,4.949-7.5,6.75c-0.326,2.07-2.988,1.803-3.667,3.521C467.486-233.662,493.019-260.265,493.019-292.836z
			 M471.662-314.971c-1.971-9.199,8.07-11.05,12-6C485.962-310.601,475.101-308.93,471.662-314.971z"/>
		<path fill="#FFFFFF" d="M459.262-321.712c3.2,7.301,6.66,17.35,6.75,29.25c-0.024,0.801-0.086,1.564-0.134,2.343
			c1.715-0.615,3.344-1.559,4.783-2.862c4.26,10.3,22.35,3.13,17-8c-2.279-1.39-3.881-3.449-6-5c-3.77-0.761-4.779,1.221-8,1
			c-0.971-7.02-6.551-9.439-12-11.99c0.529-4.199-1.75-5.59-2-9c-1.234-1.744-2.925-3.053-4.845-3.943
			C457.327-328.026,457.953-324.708,459.262-321.712z"/>
		<path fill="#FFFFFF" d="M471.662-314.971c3.439,6.041,14.301,4.37,12-6C479.732-326.021,469.691-324.17,471.662-314.971z"/>
		<path fill="#FFFFFF" d="M475.662-276.981c0-2.33,0-4.66,0-7c-2.354-3.103-7.434-3.655-10.222-1.243
			c-0.313,2.54-0.733,4.971-1.238,7.319C466.594-273.891,472.22-273.245,475.662-276.981z"/>
	</g>
	<g>
		<path fill="#FFFFFF" d="M425.738,161.074c-0.598,0-1.19,0.023-1.784,0.04c-1.151,0.945-2.538,1.655-3.466,2.822
			c-2.461,1.291-3.54,3.961-6,5.25c-0.903,1.341-1.88,2.608-2.879,3.854c7.282,3.27,12.077,9.026,13.759,17.887
			c-0.78,7.881-3.271,14.061-9,16.99c0.319,1.79,5.29,3.92,2,6c1.5,2.17,5.01,2.329,5,6c1.34-1.421,5.669-1.421,6.999,0
			c0,1.67,0,3.34,0,5c-1.18,1.148-3.529,1.13-5.999,1c-2.71,0.619-2.49,4.18-6,4c-1,0-2,0-3,0c-4.181-1.15-6.771-3.891-6-10
			c0-0.33,0-0.66,0-1c3.68-2,3.829-2.99,3-8c-6.621,3.243-13.993-1.225-18.713-1.143c-0.118,0.582-0.218,1.182-0.327,1.773
			c1.603,2.199,4.084,3.525,6.05,5.369c0.53,3.471,2.67,5.329,3,9c-0.319,4.02-0.7,7.971-3,10c0.271,2.061,2.67,2,4,3
			c2.271-0.83-2-6.141,1-8c4.601-1.271,4.84,1.819,6.99,3c11.61-0.841,16.278,7.971,14,18c-1.44,0.561-2.44,1.561-3,3
			c8.759-3.25,16.099,3.1,16.999,11c0.381,17.509-26.379,17.509-25.999,0c0.17-2.83,1.84-4.171,2-7c-5.75,0.42-9.511-1.15-10.99-5
			c-0.919,1.35-1.645,2.894-2.529,4.277c3.815,6.229,8.368,11.72,12.64,17.493c2.069,1.43,3.67,3.33,6,4.5
			c0.208,1.447,1.824,1.487,2.186,2.784c1.016,0.05,2.037,0.077,3.064,0.077c33.682,0,60.986-27.305,60.986-60.987
			S459.419,161.074,425.738,161.074z M477.367,193.926c2.301,10.37-8.561,12.041-12,6
			C463.396,190.727,473.437,188.876,477.367,193.926z M433.367,212.917c-4.41,2.619-10.01-0.98-11.999-4
			c-0.73-2.72,1.989-2.01,2-3.99C428.498,205.796,433.857,206.436,433.367,212.917z M469.367,237.917c-3.73,4.051-10.039,2.96-12-2
			c-1.471-8.54,8.42-9.72,12-5C469.367,233.256,469.367,235.586,469.367,237.917z M464.367,221.917c-9.07,8.21-25.66,2.301-24-12
			c-9.141-1.12-14.131-12.73-9-21.99c5.67-6.119,17.221-5.75,22,1c0.25,3.41,2.529,4.801,2,9c5.449,2.551,11.029,4.971,12,11.99
			c3.221,0.221,4.23-1.761,8-1c2.119,1.551,3.721,3.61,6,5C486.716,225.046,468.626,232.217,464.367,221.917z"/>
		<path d="M421.368,254.917c-0.851-0.189-0.94,0.391-1,1C421.217,256.096,421.318,255.526,421.368,254.917z"/>
		<path d="M419.368,255.917c-1.44,0.561-2.44,1.561-3,3C417.808,258.356,418.808,257.356,419.368,255.917z"/>
		<path fill="#020202" d="M481.367,213.917c-2.279-1.39-3.881-3.449-6-5c-3.77-0.761-4.779,1.221-8,1
			c-0.971-7.02-6.551-9.439-12-11.99c0.529-4.199-1.75-5.59-2-9c-4.779-6.75-16.33-7.119-22-1c-5.131,9.26-0.141,20.87,9,21.99
			c-1.66,14.301,14.93,20.21,24,12C468.626,232.217,486.716,225.046,481.367,213.917z"/>
		<path fill="#020202" d="M477.367,193.926c-3.93-5.05-13.971-3.199-12,6C468.806,205.967,479.667,204.296,477.367,193.926z"/>
		<path fill="#020202" d="M457.367,235.917c1.961,4.96,8.27,6.051,12,2c0-2.33,0-4.66,0-7
			C465.787,226.197,455.896,227.376,457.367,235.917z"/>
		<path fill="#020202" d="M420.368,255.917c-0.33,0-0.66,0-1,0c-0.56,1.439-1.56,2.439-3,3c-0.33,0-0.66,0-1,0
			c-0.16,2.829-1.83,4.17-2,7c-0.38,17.509,26.38,17.509,25.999,0c-0.9-7.9-8.24-14.25-16.999-11c-0.33,0-0.66,0-1,0
			C421.318,255.526,421.217,256.096,420.368,255.917z"/>
		<path fill="#020202" d="M423.368,204.926c-0.011,1.98-2.73,1.271-2,3.99c1.989,3.02,7.589,6.619,11.999,4
			C433.857,206.436,428.498,205.796,423.368,204.926z"/>
		<path fill="#020202" d="M393.655,209.774c4.72-0.082,12.092,4.386,18.713,1.143c0.829,5.01,0.68,6-3,8c0,0.34,0,0.67,0,1
			c-0.771,6.109,1.819,8.85,6,10c1,0,2,0,3,0c3.51,0.18,3.29-3.381,6-4c2.47,0.13,4.819,0.148,5.999-1c0-1.66,0-3.33,0-5
			c-1.33-1.421-5.659-1.421-6.999,0c0.01-3.671-3.5-3.83-5-6c3.29-2.08-1.681-4.21-2-6c5.729-2.93,8.22-9.109,9-16.99
			c-1.682-8.86-6.477-14.617-13.759-17.887c-2.341,2.916-4.818,5.694-6.871,8.896C399.643,189.816,395.85,198.997,393.655,209.774z"
			/>
		<path fill="#020202" d="M400.238,255.436c0.52,0.937,1.058,1.854,1.61,2.758c0.885-1.384,1.61-2.928,2.529-4.277
			c1.479,3.85,5.24,5.42,10.99,5c0.34,0,0.67,0,1,0c0.56-1.439,1.56-2.439,3-3c0.34,0,0.67,0,1,0c0.06-0.609,0.149-1.189,1-1
			c0.34,0,0.67,0,1,0c0.56-1.439,1.56-2.439,3-3c2.278-10.029-2.39-18.841-14-18c-2.15-1.181-2.39-4.271-6.99-3
			c-3,1.859,1.271,7.17-1,8c-1.33-1-3.729-0.939-4-3c2.3-2.029,2.681-5.98,3-10c-0.33-3.671-2.47-5.529-3-9
			c-1.966-1.844-4.447-3.17-6.05-5.369c-0.207,1.119-0.418,2.235-0.59,3.389C391.698,231.977,395.208,244.466,400.238,255.436z"/>
		<path fill="#020202" d="M420.488,280.187c-2.33-1.17-3.931-3.07-6-4.5c-4.271-5.773-8.824-11.265-12.64-17.493
			c-0.675,1.056-1.44,2.021-2.471,2.723c-4.319,0.648-5.61-1.73-8-3c-1.11-4.08-0.21-6.08,2-9c-0.431-1.91-2.86-1.811-2-5
			c-15.17,4.34-27.33-6.891-24-21c-0.187-1.365-1.124-1.978-2.597-2.056c-0.008,0.4-0.029,0.798-0.029,1.2
			c0,32.655,25.664,59.313,57.922,60.91C422.312,281.674,420.696,281.634,420.488,280.187z"/>
		<path fill="#020202" d="M393.328,211.547c0.109-0.592,0.209-1.191,0.327-1.773c-0.447,0.008-0.88,0.042-1.277,0.143
			C392.632,210.522,392.964,211.049,393.328,211.547z"/>
		<path fill="#020202" d="M389.377,178.926c3.99-1.34,5.899-4.76,10-6c4,0,7.99,0,11.99,0c0.082,0.036,0.159,0.076,0.241,0.113
			c0.999-1.245,1.976-2.513,2.879-3.854c2.46-1.289,3.539-3.959,6-5.25c0.928-1.167,2.314-1.877,3.466-2.822
			c-14.262,0.411-27.294,5.713-37.479,14.294C387.042,176.978,389.128,177.033,389.377,178.926z"/>
		<path fill="#FFFFFF" d="M399.377,172.926c-4.101,1.24-6.01,4.66-10,6c-0.249-1.894-2.335-1.948-2.903-3.519
			c-12.994,10.947-21.34,27.218-21.693,45.453c1.473,0.078,2.41,0.69,2.597,2.056c-3.33,14.109,8.83,25.34,24,21
			c-0.86,3.189,1.569,3.09,2,5c-2.21,2.92-3.11,4.92-2,9c2.39,1.27,3.681,3.648,8,3c1.03-0.701,1.796-1.667,2.471-2.723
			c-0.553-0.903-1.091-1.821-1.61-2.758c-5.03-10.97-8.54-23.459-7.5-40.5c0.172-1.153,0.383-2.27,0.59-3.389
			c-0.363-0.498-0.695-1.025-0.95-1.631c0.397-0.101,0.83-0.135,1.277-0.143c2.195-10.777,5.988-19.958,11.083-27.838
			c2.053-3.202,4.53-5.98,6.871-8.896c-0.082-0.037-0.159-0.077-0.241-0.113C407.368,172.926,403.377,172.926,399.377,172.926z"/>
	</g>
	<g>
		<path d="M-246.171,269.292c2.95-1.801,4.55-4.949,7.5-6.75c4.92-6.58,9.489-13.51,13.5-21c1.581-4.714,3.076-9.514,4.189-14.694
			c-0.201-0.338-0.387-0.69-0.54-1.075c-0.504-2.925,0.326-4.985,1.778-6.242c0.195-1.583,0.337-3.219,0.438-4.896
			c-9.093,3.259-20.613-2.831-19.217-14.862c-9.141-1.119-14.131-12.73-9-21.99c4.205-4.538,11.64-5.499,17.153-2.943
			c-0.019-0.015-0.033-0.032-0.053-0.047c-2.34-5.91-6.351-10.15-10.5-14.25c-2.69-3.311-5.69-6.311-9-9
			c-0.191-0.117-0.501-0.314-0.843-0.551c-0.793-0.031-1.585-0.061-2.386-0.061c-14.961,0-28.654,5.395-39.265,14.334
			c0.569,1.569,2.655,1.625,2.903,3.518c3.99-1.34,5.9-4.76,10-6c4,0,7.99,0,11.99,0c7.42,3.25,12.301,9.041,14,18
			c-0.779,7.881-3.27,14.061-9,16.99c0.32,1.791,5.291,3.92,2,6c1.5,2.17,5.01,2.33,5,6c1.34-1.42,5.67-1.42,7,0c0,1.67,0,3.34,0,5
			c-1.18,1.148-3.529,1.131-6,1c-2.709,0.619-2.49,4.18-6,4c-1,0-2,0-3,0c-4.18-1.15-6.77-3.891-6-10c0-0.33,0-0.66,0-1
			c3.68-2,3.83-2.99,3-8c-7.25,3.551-15.41-2.16-19.99-1c1.381,3.279,4.59,4.74,7,7c0.531,3.471,2.67,5.33,3,9
			c-0.319,4.02-0.699,7.971-3,10c0.271,2.061,2.67,2,4,3c2.271-0.83-2-6.141,1-8c4.601-1.271,4.84,1.82,6.99,3
			c11.61-0.84,16.279,7.971,14,18c-1.439,0.561-2.439,1.561-3,3c8.76-3.25,16.1,3.1,17,11c0.381,17.51-26.38,17.51-26,0
			c0.17-2.83,1.84-4.17,2-7c-5.75,0.42-9.51-1.15-10.99-5c-1.619,2.381-2.619,5.381-5,7c-4.319,0.648-5.609-1.73-8-3
			c-1.109-4.08-0.209-6.08,2-9c-0.43-1.91-2.859-1.811-2-5c-15.17,4.34-27.33-6.891-24-21c-0.186-1.365-1.123-1.977-2.596-2.055
			c-0.008,0.4-0.03,0.797-0.03,1.199c0,33.684,27.305,60.988,60.987,60.988c1.111,0,2.215-0.034,3.312-0.093
			C-249.159,271.096-246.497,271.363-246.171,269.292z M-245.521,202.773c-4.41,2.619-10.01-0.98-12-4c-0.73-2.719,1.99-2.01,2-3.99
			C-250.39,195.654-245.031,196.292-245.521,202.773z"/>
		<path d="M-257.521,244.773c-0.85-0.189-0.939,0.391-1,1C-257.671,245.953-257.571,245.382-257.521,244.773z"/>
		<path d="M-259.521,245.773c-1.439,0.561-2.439,1.561-3,3C-261.081,248.212-260.081,247.212-259.521,245.773z"/>
		<path fill="#FFFFFF" d="M-247.521,177.783c-5.131,9.26-0.141,20.871,9,21.99c-1.396,12.031,10.124,18.121,19.217,14.862
			c0.047-0.778,0.109-1.542,0.133-2.343c-0.09-11.9-3.55-21.949-6.75-29.25c-1.31-2.997-1.936-6.315-4.447-8.203
			C-235.881,172.284-243.316,173.245-247.521,177.783z"/>
		<path fill="#FFFFFF" d="M-221.521,225.773c0.152,0.385,0.338,0.737,0.54,1.075c0.504-2.348,0.926-4.778,1.239-7.317
			C-221.195,220.788-222.025,222.848-221.521,225.773z"/>
		<path fill="#FFFFFF" d="M-258.521,245.773c-0.33,0-0.66,0-1,0c-0.56,1.439-1.56,2.439-3,3c-0.33,0-0.66,0-1,0
			c-0.16,2.83-1.83,4.17-2,7c-0.38,17.51,26.381,17.51,26,0c-0.9-7.9-8.24-14.25-17-11c-0.33,0-0.66,0-1,0
			C-257.571,245.382-257.671,245.953-258.521,245.773z"/>
		<path fill="#FFFFFF" d="M-255.521,194.783c-0.01,1.98-2.73,1.271-2,3.99c1.99,3.02,7.59,6.619,12,4
			C-245.031,196.292-250.39,195.654-255.521,194.783z"/>
		<path fill="#FFFFFF" d="M-311.511,212.773c-3.33,14.109,8.83,25.34,24,21c-0.859,3.189,1.57,3.09,2,5c-2.209,2.92-3.109,4.92-2,9
			c2.391,1.27,3.681,3.648,8,3c2.381-1.619,3.381-4.619,5-7c1.48,3.85,5.24,5.42,10.99,5c0.34,0,0.67,0,1,0
			c0.561-1.439,1.561-2.439,3-3c0.34,0,0.67,0,1,0c0.061-0.609,0.15-1.189,1-1c0.34,0,0.67,0,1,0c0.561-1.439,1.561-2.439,3-3
			c2.279-10.029-2.39-18.84-14-18c-2.15-1.18-2.39-4.271-6.99-3c-3,1.859,1.271,7.17-1,8c-1.33-1-3.729-0.939-4-3
			c2.301-2.029,2.681-5.98,3-10c-0.33-3.67-2.469-5.529-3-9c-2.41-2.26-5.619-3.721-7-7c4.58-1.16,12.74,4.551,19.99,1
			c0.83,5.01,0.68,6-3,8c0,0.34,0,0.67,0,1c-0.77,6.109,1.82,8.85,6,10c1,0,2,0,3,0c3.51,0.18,3.291-3.381,6-4
			c2.471,0.131,4.82,0.148,6-1c0-1.66,0-3.33,0-5c-1.33-1.42-5.66-1.42-7,0c0.01-3.67-3.5-3.83-5-6c3.291-2.08-1.68-4.209-2-6
			c5.73-2.93,8.221-9.109,9-16.99c-1.699-8.959-6.58-14.75-14-18c-4,0-7.99,0-11.99,0c-4.1,1.24-6.01,4.66-10,6
			c-0.248-1.893-2.334-1.948-2.903-3.518c-12.993,10.947-21.339,27.217-21.692,45.453
			C-312.634,210.796-311.697,211.408-311.511,212.773z"/>
		<path fill="#FDFFFF" d="M-192.164,211.917c0-32.882-26.026-59.671-58.601-60.926c0.342,0.236,0.652,0.434,0.843,0.551
			c3.31,2.689,6.31,5.689,9,9c4.149,4.1,8.16,8.34,10.5,14.25c0.02,0.015,0.034,0.032,0.053,0.047
			c1.921,0.89,3.612,2.199,4.847,3.943c0.25,3.41,2.529,4.801,2,9c5.449,2.551,11.029,4.971,12,11.99c3.221,0.221,4.23-1.76,8-1
			c2.119,1.551,3.721,3.611,6,5c5.35,11.131-12.74,18.301-17,8c-1.439,1.303-3.068,2.247-4.783,2.862
			c-0.102,1.677-0.244,3.313-0.438,4.896c2.787-2.412,7.868-1.86,10.222,1.242c0,2.34,0,4.67,0,7
			c-3.441,3.736-9.068,3.091-11.46-0.925c-1.114,5.181-2.609,9.98-4.189,14.694c-4.011,7.49-8.58,14.42-13.5,21
			c-2.95,1.801-4.55,4.949-7.5,6.75c-0.326,2.07-2.988,1.804-3.667,3.521C-217.697,271.092-192.164,244.49-192.164,211.917z
			 M-213.521,189.783c-1.971-9.199,8.07-11.049,12-6C-199.22,194.154-210.082,195.824-213.521,189.783z"/>
		<path fill="#020202" d="M-225.921,183.042c3.2,7.301,6.66,17.35,6.75,29.25c-0.024,0.801-0.086,1.564-0.133,2.343
			c1.715-0.615,3.344-1.56,4.783-2.862c4.26,10.301,22.35,3.131,17-8c-2.279-1.389-3.881-3.449-6-5c-3.77-0.76-4.779,1.221-8,1
			c-0.971-7.02-6.551-9.439-12-11.99c0.529-4.199-1.75-5.59-2-9c-1.235-1.744-2.926-3.054-4.847-3.943
			C-227.857,176.727-227.23,180.045-225.921,183.042z"/>
		<path fill="#020202" d="M-213.521,189.783c3.439,6.041,14.301,4.371,12-6C-205.451,178.734-215.492,180.583-213.521,189.783z"/>
		<path fill="#020202" d="M-209.521,227.773c0-2.33,0-4.66,0-7c-2.354-3.103-7.435-3.654-10.222-1.242
			c-0.313,2.539-0.734,4.97-1.239,7.317C-218.589,230.864-212.962,231.509-209.521,227.773z"/>
	</g>
	<g>
		<path d="M-256.112-377.531c-1.345,0-2.676,0.059-4,0.145c-1.124,0.893-2.439,1.594-3.332,2.717c-2.461,1.291-3.54,3.961-6,5.25
			c-0.876,1.3-1.821,2.531-2.789,3.74c0.583,0,1.166,0,1.75,0c7.42,3.25,12.3,9.041,14,18c-0.78,7.881-3.27,14.061-9,16.99
			c0.32,1.79,5.29,3.92,2,6c1.5,2.17,5.01,2.329,5,6c1.34-1.421,5.669-1.421,7,0c0,1.67,0,3.34,0,5c-1.18,1.148-3.529,1.131-6,1
			c-2.71,0.619-2.49,4.18-6,4c-1,0-2,0-3,0c-4.18-1.15-6.77-3.891-6-10c0-0.33,0-0.66,0-1c3.68-2,3.83-2.99,3-8
			c-7.25,3.551-15.41-2.16-19.99-1c1.38,3.279,4.59,4.739,7,7c0.53,3.471,2.67,5.329,3,9c-0.32,4.02-0.7,7.971-3,10
			c0.27,2.061,2.67,2,4,3c2.27-0.83-2-6.141,1-8c4.6-1.271,4.84,1.82,6.99,3c11.61-0.84,16.279,7.971,14,18
			c-1.44,0.561-2.44,1.561-3,3c8.759-3.25,16.099,3.1,17,11c0.381,17.51-26.38,17.51-26,0c0.17-2.83,1.84-4.17,2-7
			c-5.75,0.42-9.51-1.15-10.99-5c-1.273,1.872-2.173,4.116-3.652,5.781c3.608,5.615,7.758,10.688,11.681,15.99
			c2.069,1.43,3.67,3.33,6,4.5c0.199,1.388,1.696,1.479,2.138,2.626c1.714,0.145,3.442,0.236,5.193,0.236
			c33.682,0,60.987-27.305,60.987-60.988C-195.125-350.227-222.43-377.531-256.112-377.531z M-204.482-344.679
			c2.301,10.37-8.561,12.041-12,6C-218.453-347.878-208.412-349.729-204.482-344.679z M-248.482-325.689
			c-4.41,2.619-10.01-0.98-12-4c-0.73-2.72,1.99-2.01,2-3.99C-253.352-332.809-247.992-332.169-248.482-325.689z M-212.482-300.689
			c-3.73,4.051-10.039,2.961-12-2c-1.471-8.539,8.42-9.719,12-5C-212.482-305.35-212.482-303.02-212.482-300.689z M-217.482-316.689
			c-9.07,8.21-25.66,2.301-24-12c-9.141-1.12-14.131-12.73-9-21.99c5.67-6.119,17.221-5.75,22,1c0.25,3.41,2.529,4.801,2,9
			c5.449,2.551,11.029,4.971,12,11.99c3.221,0.221,4.23-1.761,8-1c2.119,1.551,3.721,3.61,6,5
			C-195.133-313.559-213.223-306.389-217.482-316.689z"/>
		<path d="M-260.482-283.689c-0.85-0.189-0.94,0.391-1,1C-260.632-282.51-260.532-283.08-260.482-283.689z"/>
		<path d="M-262.482-282.689c-1.44,0.561-2.44,1.561-3,3C-264.042-280.25-263.042-281.25-262.482-282.689z"/>
		<path fill="#FFFFFF" d="M-200.482-324.689c-2.279-1.39-3.881-3.449-6-5c-3.77-0.761-4.779,1.221-8,1
			c-0.971-7.02-6.551-9.439-12-11.99c0.529-4.199-1.75-5.59-2-9c-4.779-6.75-16.33-7.119-22-1c-5.131,9.26-0.141,20.87,9,21.99
			c-1.66,14.301,14.93,20.21,24,12C-213.223-306.389-195.133-313.559-200.482-324.689z"/>
		<path fill="#FFFFFF" d="M-204.482-344.679c-3.93-5.05-13.971-3.199-12,6C-213.043-332.638-202.182-334.309-204.482-344.679z"/>
		<path fill="#FFFFFF" d="M-224.482-302.689c1.961,4.961,8.27,6.051,12,2c0-2.33,0-4.66,0-7
			C-216.063-312.408-225.953-311.229-224.482-302.689z"/>
		<path fill="#FFFFFF" d="M-261.482-282.689c-0.33,0-0.66,0-1,0c-0.56,1.439-1.56,2.439-3,3c-0.33,0-0.66,0-1,0
			c-0.16,2.83-1.83,4.17-2,7c-0.38,17.51,26.38,17.51,26,0c-0.9-7.9-8.24-14.25-17-11c-0.33,0-0.66,0-1,0
			C-260.532-283.08-260.632-282.51-261.482-282.689z"/>
		<path fill="#FFFFFF" d="M-258.482-333.679c-0.01,1.98-2.73,1.271-2,3.99c1.99,3.02,7.589,6.619,12,4
			C-247.992-332.169-253.352-332.809-258.482-333.679z"/>
		<path fill="#FFFFFF" d="M-291.193-323.669c-1.04,17.041,2.47,29.53,7.5,40.5c0.812,1.465,1.679,2.875,2.569,4.261
			c1.479-1.666,2.378-3.91,3.652-5.781c1.48,3.85,5.24,5.42,10.99,5c0.34,0,0.67,0,1,0c0.56-1.439,1.56-2.439,3-3c0.34,0,0.67,0,1,0
			c0.06-0.609,0.15-1.189,1-1c0.34,0,0.67,0,1,0c0.56-1.439,1.56-2.439,3-3c2.279-10.029-2.39-18.84-14-18
			c-2.15-1.18-2.39-4.271-6.99-3c-3,1.859,1.27,7.17-1,8c-1.33-1-3.73-0.939-4-3c2.3-2.029,2.68-5.98,3-10
			c-0.33-3.67-2.47-5.529-3-9c-2.41-2.261-5.62-3.721-7-7c4.58-1.16,12.74,4.551,19.99,1c0.83,5.01,0.68,6-3,8c0,0.34,0,0.67,0,1
			c-0.77,6.109,1.82,8.849,6,10c1,0,2,0,3,0c3.51,0.18,3.29-3.381,6-4c2.47,0.131,4.82,0.148,6-1c0-1.66,0-3.33,0-5
			c-1.33-1.421-5.66-1.421-7,0c0.01-3.671-3.5-3.83-5-6c3.29-2.08-1.68-4.21-2-6c5.73-2.93,8.22-9.109,9-16.99
			c-1.7-8.959-6.58-14.75-14-18c-0.584,0-1.167,0-1.75,0c-2.366,2.958-4.882,5.766-6.961,9.01
			C-285.084-347.559-289.244-336.718-291.193-323.669z"/>
		<path fill="#FDFFFF" d="M-263.443-258.418c-2.33-1.17-3.931-3.07-6-4.5c-3.922-5.302-8.072-10.375-11.681-15.99
			c-0.402,0.453-0.839,0.873-1.348,1.219c-4.32,0.648-5.61-1.73-8-3c-1.11-4.08-0.21-6.08,2-9c-0.43-1.91-2.86-1.811-2-5
			c-15.17,4.34-27.33-6.891-24-21c-0.186-1.365-1.124-1.977-2.596-2.056c-0.008,0.401-0.03,0.798-0.03,1.2
			c0,31.932,24.544,58.115,55.793,60.752C-261.747-256.939-263.244-257.031-263.443-258.418z"/>
		<path fill="#FDFFFF" d="M-292.472-359.679c3.99-1.34,5.9-4.76,10-6c3.416,0,6.826,0,10.24,0c0.967-1.209,1.912-2.44,2.789-3.74
			c2.46-1.289,3.539-3.959,6-5.25c0.893-1.123,2.208-1.825,3.332-2.717c-13.394,0.87-25.608,6.054-35.265,14.189
			C-294.807-361.628-292.721-361.572-292.472-359.679z"/>
		<path fill="#070707" d="M-292.472-359.679c-0.249-1.893-2.335-1.949-2.904-3.518c-12.993,10.947-21.339,27.217-21.692,45.453
			c1.472,0.079,2.41,0.69,2.596,2.056c-3.33,14.109,8.83,25.339,24,21c-0.86,3.189,1.57,3.09,2,5c-2.21,2.92-3.11,4.92-2,9
			c2.39,1.27,3.68,3.648,8,3c0.509-0.346,0.946-0.766,1.348-1.219c-0.891-1.386-1.758-2.796-2.569-4.261
			c-5.03-10.97-8.54-23.459-7.5-40.5c1.949-13.049,6.109-23.89,12-33c2.08-3.244,4.595-6.052,6.961-9.01c-3.414,0-6.824,0-10.24,0
			C-286.572-364.439-288.482-361.019-292.472-359.679z"/>
	</g>
</g>
<g id="Layer_5">
	<path d="M82.468-425.821c-0.08,0-0.158,0.006-0.238,0.006v2.835c0.08,0,0.158-0.006,0.238-0.006
		c31.518,0,57.16,26.726,57.16,59.577s-25.642,59.577-57.16,59.577c-0.08,0-0.158-0.006-0.238-0.006v2.835
		c0.08,0,0.158,0.006,0.238,0.006c33.081,0,59.995-27.998,59.995-62.412S115.549-425.821,82.468-425.821z"/>
</g>
</svg>
