<?xml version="1.0" encoding="UTF-8"?><svg id="a" xmlns="http://www.w3.org/2000/svg" viewBox="0 0 600 600"><defs><style>.b{fill:#fff;}</style></defs><path class="b" d="M0,0H600V600H0V0ZM270.07,512.29l-20.04-.29c-.17-3.82-.5-7.64-.49-11.46,.03-9.58,.21-19.15,.32-28.73h20.3v-20.2h19.89v20.35h40.26v19.98h19.97v40.69h20.51v19.95h20.32v-20.16h19.84v-20.19h-19.73v-20.17h20.07v-19.92h39.94c0,6.71,0,13.16,.01,19.62h-19.62v60.78h40.02v-40.29h-20.02c0-1.98,.03-3.46,0-4.93-.14-5.21-.31-10.43-.46-15.64,1.35,.15,2.7,.41,4.05,.42,9.49,.04,18.98,.02,28.47,.02h8.59v-19.96h20.14v60.52h20.26v19.87h19.91v-60.54h-20.02c0-9.08,.05-17.68-.02-26.28-.04-4.85-.25-9.7-.38-14.54h20.3v-39.73h-19.91c0,4.6,.03,8.95,0,13.29-.08,8.84-.21,17.67-.32,26.51-.85,.13-1.69,.38-2.54,.38-18.35,.02-36.7,.02-55.05,0-.83,0-1.66-.17-2.57-.26v-40.26h20.14v-20.28h60.33v-20.14h-20.37c0-7.18,0-13.99,0-20.8h20.31v-80.45c-7,.33-13.67,.64-20.34,.94v-20.61h-19.64v19.98c3,0,5.83-.08,8.66,.02,3.67,.12,7.34,.39,11.01,.59,.13,.97,.36,1.95,.36,2.92,.02,24.71,.02,49.42,0,74.12,0,.85-.21,1.71-.32,2.56-6.54,.29-13.07,.57-19.97,.87v19.57h-20.33v-19.65h-20.09v19.66h-40.16v-19.97h19.97v-20.24h40.59v-20.2h19.86v-20.19h-20.19v-19.8h-20.15v39.75h-40.05v-40.13h20.01v-20.14h40.42c0-6.85,0-13.32-.01-19.8h19.98v-20.32h-19.89v20.45c-1.33-.18-2.66-.5-3.99-.51-10.49-.04-20.97-.02-31.46-.02-1.58,0-3.17,0-5.25,0v-19.95h-20.19v19.95c-1.73,0-3.08,0-4.43,0-15.98,0-31.96-.02-47.94,.01-2.86,0-5.72,.19-8.58,.3v-20.65h20.27v-40.1h-19.99v20.26h-20.52c.11-1.61,.32-3.22,.32-4.83,.02-30.59,.01-61.19,.01-91.78v-4.45c6.83,0,13.26,0,19.71-.01,.17,1.32,.5,2.65,.5,3.97,.03,17.24,.02,34.48,.02,51.71,0,1.45,0,2.89,0,4.4h20.04v-60.02h-20.62v-20.7h-19.7v-19.93H209.29v19.95h81.06c0,7.05,0,13.74,0,20.43-.74-.06-1.49-.17-2.23-.17-25.46,0-50.92-.01-76.38,0-.83,0-1.65,.21-2.44,.32v19.97h81.02c.03,6.73,.07,13.45,.1,20.18l.11-.1h-20.78c0,6.89-.05,13.22,.01,19.54,.07,7.09,.23,14.18,.35,21.27-6.76-.04-13.52-.08-20.28-.12-.1-11.59-.21-23.19-.31-34.78-.02-1.83,0-3.67,0-5.62h-20.31v20.13h-19.95v40.05h20.13v-19.86h20.53c-.14,1.35-.38,2.69-.39,4.04-.03,10.71-.01,21.43-.03,32.14,0,1.31-.12,2.63-.2,4.32h-19.69v20.45h-20.61v-20.31h-40.16c0,6.93,0,13.63,0,20.33h-20.24v20.24c-13.41-.06-26.82-.13-40.23-.17-.2,0-.41,.27-.6,.39v-40.7h-19.85v40.14c1.85,0,3.45-.04,5.05,0,4.96,.13,9.91,.3,14.87,.45v39.69h-20.31v-20.23c-7.05,.35-13.71,.68-20.35,.99v-20.62h-19.76v19.95c2.82,0,5.42-.07,8.02,.02,3.93,.14,7.86,.39,11.79,.6v19.65h-19.82v20.13h19.77v20.17h-19.71v19.94h40.19v-20.35c7.05,0,13.75,0,20.44,0v20.23h20.25v40.59h20.14v-20.29h20.24l-.1-.1v20.83h40.55v40h20.12v-19.95h40.67c0-7.11,0-13.82,0-20.53h19.79v40.81h-19.5c0,7.08,0,13.63-.01,20.17h-20.27v20.25h-20.81v20.28h-19.79v20.14c9.18,0,18.05,.04,26.91-.02,4.61-.03,9.21-.25,13.81-.38v20.47h20.01v20.15h59.93v-40.28c-6.93,0-13.65,0-20.36,0v-19.95h-39.6c0,6.8,0,13.38,0,19.95ZM47.42,47.31V188.59H188.5V47.31H47.42Zm505.13,141.28V47.42h-141.15V188.6h141.15ZM188.57,552.69v-141.3H47.48v141.3H188.57Zm-101.06-181.7H47.4v19.67h40.11v-19.67Zm445.25-141.96h19.76v-19.75h-19.76v19.75Zm-465.53-19.73h-19.87v19.72h19.87v-19.72Zm142.11,323.4v19.89h19.64v-19.89h-19.64Z"/><path d="M532.18,349.88v20.81h20.37v20.14h-60.33v20.28h-20.14v40.26c.91,.1,1.74,.26,2.57,.26,18.35,.01,36.7,.02,55.05,0,.85,0,1.69-.25,2.54-.38l-.08-.07c.13,4.85,.35,9.7,.38,14.55,.06,8.6,.02,17.2,.02,26.28h20.02v60.54h-19.91v-19.87h-20.26v-60.52h-20.14v19.96h-8.59c-9.49,0-18.98,.02-28.47-.02-1.35,0-2.7-.27-4.05-.42l.07,.07v-19.61h-39.94v19.92h-20.07v20.17h19.73v20.19h-19.84v20.16h-20.32v-19.95h-20.51v-40.69l-.09,.09h20.28v-40.61h-20.3l.12,.12v-20.32h20.19v-40.46h-20.3c.1-1.49,.28-2.97,.28-4.46,.02-17.23,.01-34.46,.01-51.69v-4.14h20.22v19.71h40.21v-19.97h-19.98c0-2.25,.05-4.09,0-5.93-.15-4.97-.34-9.94-.5-14.9,6.77,0,13.54,0,20.53,0v-19.12h-20.01c0,1.78,.03,3.25,0,4.72-.14,4.82-.3,9.64-.45,14.46-.82,.19-1.65,.54-2.47,.54-11.62,.04-23.24,.03-34.86,0-.81,0-1.63-.26-2.76-.45v-39.57h-20.47l.08,.08v-40.51h20.26l-.08-.08v19.83h20.35v-19.84l-.16,.14c2.86-.1,5.72-.29,8.58-.3,15.98-.03,31.96-.01,47.94-.01,1.35,0,2.69,0,4.43,0v-19.95h20.19v19.95c2.09,0,3.67,0,5.25,0,10.49,0,20.97-.02,31.46,.02,1.33,0,2.66,.33,3.99,.51l-.08-.11v19.78h-40.42v20.14h-20.01v40.13h40.05v-39.75h20.15v19.8h20.19v20.19h-19.86v20.2h-40.59v20.24h-19.97v19.97h40.16v-19.66h20.09v19.65h20.33v-19.57c6.89-.3,13.43-.59,19.97-.87l-.06-.07Zm-140.97,41.3v60.23h60.24v-60.23h-60.24Zm19.77-141.37h-19.76v19.69h19.76v-19.69Z"/><path d="M290.35,87.84v-20.43h-81.06v-19.95h141.14v19.93h19.7v20.7l.05-.05h-19.69v4.45c0,30.59,0,61.19-.01,91.78,0,1.61-.21,3.22-.32,4.83l.15-.15h-20.05v-20.06h-20.31v40.31h-19.74l.13,.12c-.12-1.48-.34-2.96-.34-4.44-.03-10.71,0-21.42-.02-32.13,0-1.31-.12-2.62-.19-4.06h-19.82l.15,.15c-.12-7.09-.28-14.18-.35-21.27-.06-6.33-.01-12.66-.01-19.54,7.16,0,13.97,0,20.78,0,0,6.66,0,13.31,0,19.99h19.24v-19.89h-19.33l-.1-20.18-.1,.08h39.79v-20.35h-39.8l.15,.14Z"/><path d="M47.42,47.31H188.5V188.59H47.42V47.31Zm20.12,120.99h100.8V67.72H67.54v100.59Z"/><path d="M552.55,188.6h-141.15V47.42h141.15V188.6Zm-120.89-20.31h100.69V67.62h-100.69v100.66Z"/><path d="M188.57,552.69H47.48v-141.3H188.57v141.3Zm-120.91-121.09v100.77h100.57v-100.77H67.66Z"/><path d="M168.72,370.43h-20.24v20.29h-20.14v-40.59l-.14,.16h20.37v-20.37l-.12,.12h40.53v-20.36h20.08v20.34h20.49l-.08-.08v20.66h-20.13v20.23h19.97v19.94h40.75l-.08-.09v20.53h-40.67v19.95h-20.12v-40h-40.55c0-7.21,0-14.02,0-20.83,6.65,0,13.3,0,19.88,0v-19.59h-19.79v19.68Z"/><path d="M108.09,329.9h-20.44v20.35H47.46v-19.94h19.71v-20.17h-19.77v-20.13h19.82v-19.65l-.06,.08c6.66-.33,13.31-.66,20.36-1.01v20.23h20.31v-39.69l-.08,.11c.2-.14,.41-.41,.61-.41,13.41,.04,26.82,.11,40.23,.17l-.15-.14v20.29h20.35c.01,6.79,.02,13.59,.03,20.38-6.69,0-13.38,0-20.39,0v39.67l.12-.12c-6.79,0-13.57,.01-20.36,.02l.09,.09v-19.68h-20.35v19.69l.14-.14Z"/><path d="M350.28,491.94h-19.97v-19.98h-40.26v-20.35c-6.99,0-13.44,0-19.9,0,0,0,.1,.08,.1,.08v-20.18h19.5v-40.81h-19.79l.08,.09v-20.11h40.03v-19.84h19.96c0,13.54,0,26.74,0,39.94h-19.78v40.68h20.06v20.11h19.97l-.12-.12,.02,40.61,.09-.09Z"/><path d="M168.84,229.61v-20.33h40.16v20.31c7.22,0,13.92,0,20.61,0l-.16-.14v40.28h20.06c0,1.73,0,3.07,0,4.4,0,17.08-.01,34.15,.02,51.23,0,1.45,.33,2.9,.5,4.35l.06-.05c-6.87,.1-13.75,.19-20.62,.29l.08,.08v-40.17h-20.54v-40.05c-6.93,0-13.48,0-20.03,0,0-6.7,0-13.39,0-20.36h-20.28l.14,.16Z"/><path d="M249.83,168.73c6.76,.04,13.52,.08,20.27,.13l-.15-.15v40.62h20.37l-.13-.12v20.18h19.54v19.93h-60.29v-19.86h-20l.16,.14c0-6.68,0-13.37,0-20.45h19.69c.08-1.69,.2-3,.2-4.32,.01-10.71,0-21.43,.03-32.14,0-1.35,.25-2.69,.39-4.04l-.09,.08Z"/><path d="M451.17,491.67c.16,5.21,.32,10.43,.46,15.64,.04,1.48,0,2.96,0,4.93h20.02v40.29h-40.02v-60.78c6.56,0,13.09,0,19.61,0,0,0-.07-.08-.07-.08Z"/><path d="M290.32,107.97h-81.02v-19.97c.79-.11,1.61-.32,2.44-.32,25.46-.02,50.92-.02,76.38,0,.74,0,1.49,.11,2.23,.17l-.15-.14c0,6.78,0,13.57,.01,20.35l.1-.08Z"/><path d="M350.15,189.1h20.52v-20.26h19.99v40.1h-20.27c0,7.25,0,13.95,0,20.65l.16-.14c-6.78,0-13.57,.01-20.35,.02l.08,.08,.02-40.6-.15,.15Z"/><path d="M249.92,168.64h-20.53v19.86h-20.13v-40.05h19.95v-20.13h20.31c0,1.95-.01,3.78,0,5.62,.1,11.59,.2,23.19,.31,34.78l.09-.08Z"/><path d="M532.24,349.95c.11-.85,.32-1.71,.32-2.56,.02-24.71,.02-49.42,0-74.12,0-.97-.24-1.95-.36-2.92l-.04,.03c6.67-.31,13.34-.62,20.34-.95v80.45c-6.79,0-13.55,0-20.31,0l.06,.07Z"/><path d="M309.67,512.29h20.36v40.28h-59.93c0-6.79,0-13.47,0-20.15l-.14,.14h39.82v-20.35l-.11,.09Z"/><path d="M250.1,511.93c-4.61,.14-9.21,.36-13.82,.39-8.86,.06-17.73,.02-26.91,.02v-20.14h19.79v-20.28h20.81l-.1-.1c-.12,9.58-.3,19.15-.33,28.73-.01,3.82,.32,7.64,.49,11.46l.07-.07Z"/><path d="M370.13,88.09h20.62v60.02h-20.04c0-1.5,0-2.95,0-4.4,0-17.24,.01-34.48-.02-51.71,0-1.33-.33-2.65-.51-3.97,0,0-.05,.05-.05,.05Z"/><path d="M87.51,370.99v19.67H47.4v-19.67h40.11Z"/><path d="M107.84,249.97c-4.96-.15-9.91-.32-14.87-.45-1.6-.04-3.2,0-5.05,0v-40.14h19.85c0,13.59,0,27.14,0,40.71,0,0,.08-.1,.08-.1Z"/><path d="M532.25,451.24c.11-8.84,.23-17.67,.32-26.51,.04-4.34,0-8.69,0-13.29h19.91v39.73c-6.75,0-13.53,0-20.31,0l.07,.07Z"/><path d="M270.07,512.29v-19.95h39.6c0,6.66,0,13.3,0,19.95l.11-.09h-39.82l.1,.09Z"/><path d="M148.6,249.85v-20.24c6.77,0,13.51,0,20.24,0l-.14-.16c.05,6.8,.1,13.6,.15,20.4-6.8-.05-13.6-.1-20.4-.14l.15,.14Z"/><path d="M532.76,229.03v-19.75h19.76v19.75h-19.76Z"/><path d="M492.23,229.82v-20.45h19.89v20.32c-6.67,0-13.33,0-19.98,0,0,0,.09,.12,.09,.12Z"/><path d="M67.23,209.3v19.72h-19.87v-19.72h19.87Z"/><path d="M249.97,471.92v-20.25c6.65,0,13.46,0,20.28,0,0,0-.1-.08-.09-.07,0,6.56,0,13.11,0,20.21-7.24,0-13.77,0-20.3,0,0,0,.11,.11,.11,.11Z"/><path d="M67.23,270.36c-3.93-.21-7.86-.46-11.79-.6-2.6-.09-5.2-.02-8.02-.02v-19.95h19.76c0,6.97,0,13.79,0,20.63,0,.01,.05-.07,.05-.07Z"/><path d="M250.03,512c6.68,.1,13.36,.19,20.04,.29l-.1-.09v20.35l.13-.14h-20.01c0-6.95,0-13.71,0-20.48l-.07,.06Z"/><path d="M128.34,350.13h-20.25c0-6.63,0-13.43,0-20.23l-.14,.14c6.78,0,13.57,0,20.35,0l-.09-.09v20.35l.12-.16Z"/><path d="M209.35,532.7h19.64v19.89h-19.64v-19.89Z"/><path d="M532.19,270.35c-3.67-.2-7.34-.47-11.01-.59-2.83-.1-5.66-.02-8.66-.02v-19.98h19.64c0,6.83,0,13.72,0,20.62l.04-.03Z"/><path class="b" d="M350.3,188.95l-.02,40.6h-20.26c0,13.51,0,27.01,0,40.51-.86-.11-1.72-.3-2.58-.31-18.24-.02-36.48-.02-54.72,0-.94,0-1.88,.22-2.73,.33v39.73h20.02v-19.95h39.94v-19.88h20.47v39.57c1.13,.19,1.94,.45,2.76,.45,11.62,.03,23.24,.03,34.86,0,.82,0,1.65-.35,2.47-.54l-.06-.06c.17,4.97,.36,9.94,.51,14.91,.05,1.84,0,3.68,0,5.93h19.98v19.97h-40.21v-19.71h-20.22v4.14c0,17.23,0,34.46-.01,51.69,0,1.49-.18,2.97-.28,4.46l.09-.07-20.36-.02,.12,.09v-39.94h-19.96v19.84h-40.03v20.11h-40.75v-19.94h-19.97v-20.23h20.13v-20.66c6.87-.1,13.75-.19,20.62-.28,0,6.79,0,13.58,0,20.52h39.62v-19.93c-1.6,0-2.94,0-4.29,0-10.47,0-20.95,.02-31.42-.02-1.32,0-2.64-.34-3.96-.52-.18-1.45-.5-2.9-.5-4.35-.04-17.08-.02-34.15-.02-51.23,0-1.33,0-2.67,0-4.4h-20.06v-40.28c6.48,0,12.96,0,20,0v19.86h60.29v-19.93h-19.54v-20.18h19.74v-40.31h20.31v20.06h20.05Z"/><path class="b" d="M391.21,391.18h60.24v60.23h-60.24v-60.23Zm20.19,39.95h19.8v-19.66h-19.8v19.66Z"/><path class="b" d="M350.3,451.55h-19.97v-20.11h-20.06v-40.68h19.78l-.12-.09v20.27h20.36v-20.24l-.09,.07c6.69,0,13.38,0,20.3,0v40.46h-20.19v20.32Z"/><path class="b" d="M350.19,492.04l-.02-40.61h20.3v40.61h-20.28Z"/><path class="b" d="M350.2,229.47c6.78,0,13.57-.01,20.35-.02,0,6.55,0,13.1,0,19.84h-20.35v-19.83Z"/><path class="b" d="M410.98,249.82v19.69h-19.76v-19.69h19.76Z"/><path class="b" d="M390.49,309.46c.15-4.82,.32-9.64,.45-14.46,.04-1.47,0-2.94,0-4.72h20.01v19.12c-6.99,0-13.76,0-20.53,0l.05,.06Z"/><path class="b" d="M290.33,209.32h-20.37v-40.62h19.82c.07,1.44,.18,2.75,.19,4.06,.01,10.71,0,21.42,.02,32.13,0,1.48,.22,2.96,.34,4.44Z"/><path class="b" d="M290.22,108.05c0-6.78,0-13.57-.01-20.35h39.8v20.35h-39.79Z"/><path class="b" d="M290.42,128.14h19.33v19.89h-19.24c0-6.68,0-13.33,0-19.99,0,0-.1,.1-.1,.1Z"/><path class="b" d="M67.54,168.31V67.72h100.8v100.59H67.54Zm20.24-20.24h60.33v-60.12h-60.33v60.12Z"/><path class="b" d="M431.66,168.28V67.62h100.69v100.66h-100.69Zm80.43-20.18v-60.22h-60.2v60.22h60.2Z"/><path class="b" d="M67.66,431.6h100.57v100.77H67.66v-100.77Zm80.41,80.62v-60.33h-60.12v60.33h60.12Z"/><path class="b" d="M188.98,249.81h20.03v40.05h20.54v40.17h-20.49v-20.34c-6.96,0-13.52,0-20.08,0l.07,.09v-19.57h-20.35l.14,.17c-.01-6.79-.02-13.59-.03-20.38l-.09,.06h20.33v-20.34l-.07,.09Z"/><path class="b" d="M148.45,330.04v-39.67c7.01,0,13.7,0,20.39,0l-.14-.17v19.57h20.35l-.07-.09c0,6.71,0,13.41,0,20.36h-40.53Z"/><path class="b" d="M128.2,350.29v-20.35l20.37-.02v20.37h-20.37Z"/><path class="b" d="M168.72,370.43v-19.68h19.79v19.59c-6.58,0-13.23,0-19.88,0l.1,.09Z"/><path class="b" d="M148.45,249.71c6.8,.05,13.6,.1,20.4,.14l-.15-.14c0,6.78,.01,13.57,.02,20.35l.09-.06c-6.67,0-13.34,0-20.35,0v-20.29Z"/><path class="b" d="M128.3,330.03c-6.78,0-13.57,0-20.35,0v-19.69h20.35v19.68Z"/><path class="b" d="M168.85,249.85c-.05-6.8-.1-13.6-.15-20.4h20.28c0,6.96,0,13.66,0,20.36l.07-.09c-6.78,0-13.57,0-20.35-.01l.15,.15Z"/><path class="b" d="M269.96,532.55v-20.35h39.82v20.35h-39.82Z"/><path d="M329.94,269.99v19.88h-39.94v19.95h-20.02v-39.73c.85-.11,1.79-.33,2.73-.33,18.24-.02,36.48-.02,54.72,0,.86,0,1.72,.2,2.58,.31l-.08-.08Z"/><path d="M250.04,329.72c1.32,.18,2.64,.51,3.96,.52,10.47,.04,20.95,.02,31.42,.02,1.34,0,2.69,0,4.29,0v19.93h-39.62c0-6.95,0-13.73,0-20.52l-.05,.05Z"/><path d="M350.28,390.7v20.24h-20.36v-20.27l20.36,.02Z"/><path d="M411.4,431.13v-19.66h19.8v19.66h-19.8Z"/><path d="M87.78,148.07v-60.12h60.33v60.12h-60.33Z"/><path d="M512.09,148.1h-60.2v-60.22h60.2v60.22Z"/><path d="M148.07,512.22h-60.12v-60.33h60.12v60.33Z"/><path d="M168.7,249.7c6.78,0,13.57,0,20.35,.01v20.34h-20.33c0-6.78-.01-13.57-.02-20.35Z"/><path d="M189.05,309.78h-20.35v-19.57h20.35v19.57Z"/></svg>