<?xml version="1.0" encoding="utf-8"?>
<!-- Generator: Adobe Illustrator 16.0.2, SVG Export Plug-In . SVG Version: 6.00 Build 0)  -->
<!DOCTYPE svg PUBLIC "-//W3C//DTD SVG 1.1//EN" "http://www.w3.org/Graphics/SVG/1.1/DTD/svg11.dtd">
<svg version="1.1"
	 id="svg2359" sodipodi:docname="diodes_in_bjt.svg" sodipodi:docbase="/home/filip/p/ucebnice_el" inkscape:version="0.44" sodipodi:version="0.32" xmlns:dc="http://purl.org/dc/elements/1.1/" xmlns:cc="http://web.resource.org/cc/" xmlns:rdf="http://www.w3.org/1999/02/22-rdf-syntax-ns#" xmlns:svg="http://www.w3.org/2000/svg" xmlns:sodipodi="http://sodipodi.sourceforge.net/DTD/sodipodi-0.dtd" xmlns:inkscape="http://www.inkscape.org/namespaces/inkscape"
	 xmlns="http://www.w3.org/2000/svg" xmlns:xlink="http://www.w3.org/1999/xlink" x="0px" y="0px" width="160px" height="105px"
	 viewBox="0 0 160 105" enable-background="new 0 0 160 105" xml:space="preserve">
<sodipodi:namedview  height="105px" width="160px" id="base" inkscape:object-nodes="true" inkscape:guide-bbox="false" inkscape:object-paths="false" inkscape:grid-bbox="false" inkscape:grid-points="false" inkscape:window-y="0" inkscape:window-x="0" inkscape:window-height="1000" inkscape:window-width="1280" inkscape:current-layer="layer1" inkscape:document-units="px" inkscape:pageshadow="2" inkscape:pageopacity="0.0" showgrid="true" objecttolerance="20.7" grid_units="mm" guidetolerance="10" gridtolerance="50" borderopacity="1.0" gridspacingy="1mm" bordercolor="#666666" inkscape:cy="137.27872" inkscape:cx="122.58407" gridspacingx="1mm" pagecolor="#ffffff" inkscape:zoom="1.4">
	</sodipodi:namedview>
<g id="g3827" transform="translate(1.052708,1.991011)">
	<text transform="matrix(1 0 0 1 146.3867 8.8918)" font-family="'Arial-BoldMT'" font-size="12">E</text>
	<text transform="matrix(1 0 0 1 146.3858 79.758)" font-family="'Arial-BoldMT'" font-size="12">C</text>
	<g id="g3519" transform="matrix(2.151019,0,0,2.123744,-459.8531,-12.69165)" opacity="0.15">
		
			<path id="path2358" sodipodi:ry="10.629921" sodipodi:rx="14.173228" sodipodi:cy="100.86611" sodipodi:cx="421.65353" sodipodi:type="arc" fill="none" stroke="#000000" stroke-width="1.5343" stroke-linecap="square" d="
			M257.962,25.017c-0.009,7.827,6.329,14.181,14.156,14.191c7.827,0.009,14.181-6.328,14.191-14.156c0-0.011,0-0.023,0-0.034
			c0.009-7.827-6.329-14.181-14.156-14.19c-7.827-0.009-14.181,6.328-14.191,14.156C257.962,24.994,257.962,25.006,257.962,25.017z"
			/>
		<path id="path4106" fill="none" stroke="#000000" stroke-width="1.7717" stroke-linecap="square" d="M269.065,25.017h-14.646l0,0
			l0,0"/>
		<path id="path4108" sodipodi:nodetypes="cc" fill="none" stroke="#000000" stroke-width="2.4803" stroke-linecap="square" d="
			M268.592,32.104V17.93"/>
		<path id="path4116" sodipodi:nodetypes="ccc" fill="none" stroke="#000000" stroke-width="1.7717" stroke-linecap="square" d="
			M272.135,21.474l7.087-7.087V7.3"/>
		<path id="path4118" sodipodi:nodetypes="ccc" fill="none" stroke="#000000" stroke-width="1.7717" stroke-linecap="square" d="
			M268.592,25.017l10.63,10.63v7.087"/>
		
			<path id="path4132" inkscape:randomized="0" inkscape:rounded="0" inkscape:flatsided="true" sodipodi:arg2="1.5598201" sodipodi:arg1="0.51262262" sodipodi:r2="4.5401812" sodipodi:r1="2.8889403" sodipodi:sides="3" sodipodi:cy="107.95273" sodipodi:cx="372.04724" sodipodi:type="star" fill="#3771C8" stroke="#000000" stroke-width="2.628" stroke-linecap="square" d="
			M273.885,21.649l-1.859-1.927l-1.69,3.549L273.885,21.649z"/>
	</g>
	<g id="g3511" transform="matrix(2.151019,0,0,2.123744,-459.8531,-12.69165)" opacity="0.15">
		
			<path id="path1440" sodipodi:ry="10.629921" sodipodi:rx="14.173228" sodipodi:cy="100.86611" sodipodi:cx="421.65353" sodipodi:type="arc" fill="none" stroke="#000000" stroke-width="1.5343" stroke-linecap="square" d="
			M218.985,25.017c-0.01-7.827,6.328-14.181,14.156-14.19c7.828-0.009,14.181,6.328,14.19,14.156c0,0.011,0,0.023,0,0.034
			c0.01,7.827-6.328,14.181-14.156,14.191c-7.828,0.009-14.181-6.328-14.19-14.156C218.985,25.04,218.985,25.029,218.985,25.017z"/>
		<path id="path1442" sodipodi:nodetypes="cc" fill="none" stroke="#000000" stroke-width="1.7717" stroke-linecap="square" d="
			M229.615,25.017h-14.173"/>
		<path id="path1444" sodipodi:nodetypes="cc" fill="none" stroke="#000000" stroke-width="2.4803" stroke-linecap="square" d="
			M229.615,17.93v14.173"/>
		<path id="path1446" sodipodi:nodetypes="cccc" fill="none" stroke="#000000" stroke-width="1.7717" stroke-linecap="square" d="
			M229.615,25.017l7.086,7.087 M240.245,37.584v5.149"/>
		<path id="path1448" sodipodi:nodetypes="ccc" fill="none" stroke="#000000" stroke-width="1.7717" stroke-linecap="square" d="
			M229.615,25.017l10.63-10.63V7.3"/>
		
			<path id="path1450" sodipodi:nodetypes="cccc" fill="#3771C8" stroke="#000000" stroke-width="1.7717" stroke-linecap="square" d="
			M236.696,34.025l1.86-1.927l1.302,3.032L236.696,34.025z"/>
	</g>
	<text transform="matrix(1 0 0 1 20.4595 101.0178)" font-family="'Arial-BoldMT'" font-size="16">NPN</text>
	<text transform="matrix(1 0 0 1 104.9063 101.0178)" font-family="'Arial-BoldMT'" font-size="16">PNP</text>
	<text transform="matrix(1 0 0 1 62.7954 8.8918)" font-family="'Arial-BoldMT'" font-size="12">C</text>
	<text transform="matrix(1 0 0 1 62.7954 79.758)" font-family="'Arial-BoldMT'" font-size="12">E</text>
	<text transform="matrix(1 0 0 1 -0.9839 54.9553)" font-family="'Arial-BoldMT'" font-size="12">B</text>
	<text transform="matrix(1 0 0 1 82.6055 54.9553)" font-family="'Arial-BoldMT'" font-size="12">B</text>
	<g id="g3625">
		<path id="path2518" sodipodi:nodetypes="cc" fill="none" stroke="#000000" stroke-width="1.772" stroke-linecap="square" d="
			M34.418,40.453l7.474-7.559"/>
		<path id="path2520" sodipodi:nodetypes="cc" fill="none" stroke="#000000" stroke-width="1.7717" stroke-linecap="square" d="
			M51.858,22.817l4.983-5.039V2.261"/>
		<path id="path2522" sodipodi:nodetypes="cccc" fill="none" stroke="#000000" stroke-width="1.122" stroke-linecap="square" d="
			M50.031,24.664l-3.12,9.538l-6.383-6.311L50.031,24.664z"/>
		<path id="path2524" sodipodi:nodetypes="cc" fill="none" stroke="#000000" stroke-width="1.122" stroke-linecap="square" d="
			M46.839,21.509l6.382,6.311"/>
		<path id="path3610" sodipodi:nodetypes="cc" fill="none" stroke="#000000" stroke-width="1.772" stroke-linecap="square" d="
			M34.168,40.736l7.555,7.478"/>
		<path id="path3612" sodipodi:nodetypes="cc" fill="none" stroke="#000000" stroke-width="1.7717" stroke-linecap="square" d="
			M51.796,58.185l5.036,4.985v15.357"/>
		<path id="path3614" sodipodi:nodetypes="cccc" fill="none" stroke="#000000" stroke-width="1.122" stroke-linecap="square" d="
			M49.949,56.357l-9.536-3.125l6.315-6.379L49.949,56.357z"/>
		<path id="path3616" sodipodi:nodetypes="cc" fill="none" stroke="#000000" stroke-width="1.122" stroke-linecap="square" d="
			M53.106,53.167l-6.314,6.379"/>
		<path id="path6412" sodipodi:nodetypes="cc" fill="none" stroke="#000000" stroke-width="1.7717" stroke-linecap="square" d="
			M4.202,40.647h29.429"/>
	</g>
	<path id="path3658" sodipodi:nodetypes="cc" fill="none" stroke="#000000" stroke-width="1.772" stroke-linecap="square" d="
		M118.525,40.453L126,32.895"/>
	<path id="path3660" sodipodi:nodetypes="cc" fill="none" stroke="#000000" stroke-width="1.7717" stroke-linecap="square" d="
		M135.965,22.817l4.982-5.039V2.261"/>
	<path id="path3662" sodipodi:nodetypes="cccc" fill="none" stroke="#000000" stroke-width="1.122" stroke-linecap="square" d="
		M127.826,31.047l3.121-9.538l6.382,6.311L127.826,31.047z"/>
	<path id="path3664" sodipodi:nodetypes="cc" fill="none" stroke="#000000" stroke-width="1.122" stroke-linecap="square" d="
		M131.018,34.202l-6.382-6.311"/>
	<path id="path3666" sodipodi:nodetypes="cc" fill="none" stroke="#000000" stroke-width="1.772" stroke-linecap="square" d="
		M118.275,40.736l7.555,7.478"/>
	<path id="path3668" sodipodi:nodetypes="cc" fill="none" stroke="#000000" stroke-width="1.7717" stroke-linecap="square" d="
		M135.902,58.185l5.037,4.985v15.357"/>
	<path id="path3670" sodipodi:nodetypes="cccc" fill="none" stroke="#000000" stroke-width="1.122" stroke-linecap="square" d="
		M127.678,50.042l9.535,3.125l-6.314,6.379L127.678,50.042z"/>
	<path id="path3672" sodipodi:nodetypes="cc" fill="none" stroke="#000000" stroke-width="1.122" stroke-linecap="square" d="
		M124.52,53.232l6.314-6.379"/>
	<path id="path3674" sodipodi:nodetypes="cc" fill="none" stroke="#000000" stroke-width="1.7717" stroke-linecap="square" d="
		M88.31,40.647h29.429"/>
</g>
</svg>
