<?xml version="1.0" encoding="utf-8"?>
<!-- Generator: Adobe Illustrator 15.1.0, SVG Export Plug-In . SVG Version: 6.00 Build 0)  -->
<!DOCTYPE svg PUBLIC "-//W3C//DTD SVG 1.1//EN" "http://www.w3.org/Graphics/SVG/1.1/DTD/svg11.dtd">
<svg version="1.1" id="Layer_1" xmlns:serif="http://www.serif.com/"
	 xmlns="http://www.w3.org/2000/svg" xmlns:xlink="http://www.w3.org/1999/xlink" x="0px" y="0px" width="283.46px"
	 height="283.46px" viewBox="0 0 283.46 283.46" enable-background="new 0 0 283.46 283.46" xml:space="preserve">
<g>
	<path d="M63.155,146.873c-11.971-2.764-20.9-13.424-20.9-26.138c0-14.811,12.119-26.835,27.044-26.835
		c14.925,0,27.042,12.024,27.042,26.835c0,12.714-8.929,23.375-20.897,26.138h6.138c6.053,0.002,11.857,2.388,16.135,6.633
		c4.28,4.246,6.683,10.007,6.683,16.011v79.299H34.196c0,0,0-49.263,0-79.299c0-6.004,2.405-11.765,6.683-16.011
		c4.28-4.245,10.083-6.631,16.136-6.633H63.155L63.155,146.873z M208.016,146.873c-11.969-2.764-20.896-13.424-20.896-26.138
		c0-14.811,12.115-26.835,27.041-26.835s27.043,12.024,27.043,26.835c0,12.714-8.93,23.375-20.897,26.138h6.14
		c6.053,0.002,11.856,2.388,16.135,6.633c4.279,4.246,6.684,10.007,6.684,16.011v79.299h-70.205c0,0,0-49.263,0-79.299
		c0-6.004,2.406-11.765,6.684-16.011c4.28-4.245,10.084-6.631,16.135-6.633H208.016L208.016,146.873z M135.586,146.873
		c-11.971-2.764-20.898-13.424-20.898-26.138c0-14.811,12.117-26.835,27.042-26.835s27.042,12.024,27.042,26.835
		c0,12.714-8.929,23.375-20.896,26.138h6.138c6.054,0.002,11.856,2.388,16.137,6.633c4.279,4.246,6.683,10.007,6.683,16.011v79.299
		h-70.205c0,0,0-49.263,0-79.299c0-6.004,2.405-11.765,6.683-16.011c4.28-4.245,10.085-6.631,16.136-6.633H135.586L135.586,146.873z
		 M69.306,64.749L54.394,49.95l-6.984,6.932L69.306,78.61l37.321-37.035l-6.984-6.929L69.306,64.749z M141.737,64.749L126.825,49.95
		l-6.984,6.932l21.896,21.729l37.32-37.035l-6.982-6.929L141.737,64.749z M210.737,70.686h7.403v7.876h-7.403V70.686z
		 M210.938,63.606c0-1.5,0.111-2.683,0.334-3.542c0.223-0.861,0.734-1.688,1.535-2.481c0.8-0.794,2.109-1.721,3.934-2.779
		l1.732-0.992c1.602-0.883,2.682-1.688,3.236-2.416c0.557-0.729,0.832-1.666,0.832-2.813c0-1.457-0.588-2.57-1.767-3.343
		c-1.18-0.772-2.967-1.158-5.37-1.158c-2.443,0-4.346,0.44-5.701,1.323s-2.031,2.185-2.031,3.905v0.858H199.8v-0.794
		c0-3.837,1.446-6.881,4.335-9.132c2.891-2.25,6.736-3.375,11.539-3.375c4.668,0,8.347,1.036,11.037,3.109
		c2.688,2.072,4.033,4.965,4.033,8.669c0,2.25-0.498,4.049-1.5,5.395c-1,1.346-2.568,2.636-4.701,3.872l-1.467,0.859
		c-1.512,0.883-2.603,1.601-3.27,2.149c-0.667,0.553-1.111,1.071-1.335,1.558c-0.222,0.483-0.333,1.104-0.333,1.854v1.919h-7.202
		L210.938,63.606L210.938,63.606z"/>
</g>
</svg>
