<?xml version="1.0" encoding="utf-8"?>
<!-- Generator: Adobe Illustrator 15.1.0, SVG Export Plug-In . SVG Version: 6.00 Build 0)  -->
<!DOCTYPE svg PUBLIC "-//W3C//DTD SVG 1.1//EN" "http://www.w3.org/Graphics/SVG/1.1/DTD/svg11.dtd">
<svg version="1.1" id="Layer_1" xmlns:serif="http://www.serif.com/"
	 xmlns="http://www.w3.org/2000/svg" xmlns:xlink="http://www.w3.org/1999/xlink" x="0px" y="0px" width="283.46px"
	 height="283.46px" viewBox="0 0 283.46 283.46" enable-background="new 0 0 283.46 283.46" xml:space="preserve">
<path d="M152.732,28.501c-7.318-0.711-14.688-0.711-22.006,0l-3.624,17.645c-7.012,1.073-13.887,2.915-20.498,5.493L94.644,38.17
	c-6.691,3.043-13.074,6.728-19.057,11.002l5.684,17.093c-5.538,4.435-10.57,9.467-15.006,15.006l-17.093-5.685
	c-4.273,5.983-7.958,12.365-11.002,19.057l13.469,11.96c-2.577,6.611-4.42,13.486-5.493,20.499l-17.644,3.626
	c-0.711,7.318-0.711,14.686,0,22.003l17.644,3.623c1.073,7.016,2.916,13.891,5.493,20.502L38.17,188.816
	c3.044,6.691,6.729,13.072,11.002,19.055l17.093-5.682c4.436,5.539,9.468,10.57,15.006,15.006l-5.684,17.094
	c5.982,4.273,12.365,7.957,19.057,11.002l11.96-13.469c6.611,2.576,13.486,4.42,20.498,5.492l3.624,17.645
	c7.318,0.711,14.688,0.711,22.006,0l3.624-17.645c7.015-1.072,13.89-2.916,20.499-5.492l11.961,13.469
	c6.691-3.045,13.074-6.729,19.057-11.002l-5.684-17.094c5.539-4.436,10.57-9.467,15.006-15.006l17.094,5.682
	c4.273-5.98,7.959-12.363,11.002-19.055l-13.469-11.959c2.577-6.611,4.42-13.486,5.492-20.502l17.645-3.623
	c0.711-7.317,0.711-14.686,0-22.003l-17.645-3.626c-1.072-7.012-2.915-13.887-5.492-20.499l13.469-11.96
	c-3.045-6.692-6.729-13.074-11.002-19.057l-17.094,5.685c-4.436-5.539-9.467-10.571-15.006-15.006l5.684-17.093
	c-5.981-4.273-12.363-7.958-19.057-11.002l-11.961,13.469c-6.609-2.578-13.484-4.42-20.499-5.493L152.732,28.501L152.732,28.501z
	 M141.729,72.995c37.937,0,68.735,30.799,68.735,68.732c0,37.936-30.799,68.735-68.735,68.735
	c-37.936,0-68.732-30.799-68.732-68.735C72.997,103.794,103.793,72.995,141.729,72.995z M194.527,173.041
	c0.508,0,0.996-0.201,1.355-0.563c0.361-0.359,0.563-0.846,0.563-1.355c0-5.758,0-22.854,0-28.613c0-1.06-0.858-1.917-1.919-1.917
	c-12.572,0-83.059,0-95.631,0c-0.508,0-0.996-0.203-1.356-0.563c-0.359-0.359-0.563-0.848-0.563-1.356c0-5.436,0-20.902,0-26.338
	c0-0.51-0.202-0.999-0.563-1.358c-0.359-0.36-0.848-0.561-1.356-0.561c-1.762,0-4.362,0-6.125,0c-0.51,0-0.996,0.201-1.355,0.561
	c-0.36,0.36-0.563,0.848-0.563,1.358c0,9.285,0,49.5,0,58.787c0,0.51,0.202,0.996,0.563,1.355c0.359,0.359,0.846,0.563,1.355,0.563
	c1.763,0,4.363,0,6.125,0c0.509,0,0.997-0.201,1.356-0.563c0.36-0.359,0.563-0.846,0.563-1.355c0-2.514,0-6.9,0-9.418
	c0-0.508,0.203-0.996,0.563-1.354c0.36-0.361,0.849-0.564,1.356-0.564c11.753,0,73.914,0,85.668,0c0.508,0,0.997,0.203,1.357,0.564
	c0.358,0.357,0.563,0.848,0.563,1.354c0,2.518,0,6.904,0,9.418c0,0.51,0.2,0.996,0.561,1.355c0.359,0.359,0.849,0.563,1.357,0.563
	C190.164,173.041,192.763,173.041,194.527,173.041L194.527,173.041z M107.925,120.647c4.941,0,8.955,4.012,8.955,8.955
	c0,4.941-4.014,8.955-8.955,8.955c-4.943,0-8.955-4.014-8.955-8.955C98.97,124.659,102.982,120.647,107.925,120.647z
	 M196.446,131.188c0-5.822-4.719-10.54-10.54-10.54c-16.709,0-48.675,0-61.254,0c-1.397,0-2.739,0.556-3.729,1.544
	c-0.988,0.99-1.544,2.331-1.544,3.729c0,3.659,0,8.308,0,10.824c0,1.001,0.812,1.814,1.814,1.814c10.381,0,62.186,0,73.193,0
	c0.546,0,1.068-0.218,1.453-0.604c0.388-0.386,0.604-0.909,0.604-1.457C196.446,135.128,196.446,133.213,196.446,131.188z
	 M62.498,115.622c0.602-0.813,1.289-1.35,2.059-1.607c0.768-0.26,1.661-0.247,2.675,0.035c1.699,0.471,2.812,1.341,3.337,2.61
	c0.525,1.267,0.486,2.987-0.116,5.157l-1.831,6.592l-16.387-4.548l1.843-6.644c0.517-1.855,1.245-3.109,2.191-3.764
	c0.944-0.652,2.144-0.776,3.596-0.373c0.665,0.185,1.221,0.479,1.663,0.887C61.972,114.373,62.294,114.923,62.498,115.622z
	 M228.891,128.154l-1.231-5.17l-13.55,3.225l-0.787-3.314l13.548-3.225l-1.229-5.17l2.996-0.715l3.251,13.656L228.891,128.154
	L228.891,128.154z M67.744,120.867c0.301-1.086,0.329-1.884,0.085-2.394c-0.244-0.513-0.752-0.875-1.521-1.088
	c-0.735-0.205-1.341-0.131-1.814,0.218c-0.476,0.349-0.868,1.083-1.178,2.205l-0.927,3.336l4.388,1.217L67.744,120.867
	L67.744,120.867z M59.234,116.271c-0.578-0.161-1.077-0.078-1.498,0.249c-0.421,0.327-0.762,0.962-1.025,1.908l-0.809,2.915
	l3.65,1.012l0.911-3.281c0.233-0.842,0.244-1.474,0.032-1.901C60.285,116.747,59.864,116.445,59.234,116.271z M226.606,107.707
	l-15.093,7.836l-1.508-2.902l9.506-4.937l-10.66-0.423l-0.176-0.338l5.82-9.195l-9.627,4.998l-1.496-2.878l15.096-7.836l1.443,2.782
	l-6.091,9.855l11.417,0.399L226.606,107.707z M58.051,105.895l1.402-3.107l15.501,7l-1.402,3.105L58.051,105.895z M80.135,95.124
	l2.56,1.664l-6.104,9.394l-14.261-9.27l1.855-2.856l11.703,7.605L80.135,95.124z M207.433,90.789l-6.514,6.003l-1.865-2.026
	l1.251-1.336c-0.817,0.159-1.603,0.057-2.359-0.31c-0.757-0.364-1.53-0.975-2.317-1.83c-2.905-3.155-2.842-6.129,0.191-8.924
	l3.549-3.269c1.549-1.428,3.119-2.059,4.707-1.891c1.588,0.168,3.156,1.095,4.707,2.778c1.676,1.819,2.5,3.456,2.471,4.915
	c-0.027,1.458-0.709,2.802-2.045,4.034l-0.221,0.203l-2.309-2.505l0.181-0.166c0.466-0.432,0.774-0.844,0.918-1.236
	c0.144-0.392,0.12-0.833-0.071-1.324c-0.192-0.49-0.603-1.077-1.229-1.757c-0.937-1.016-1.772-1.542-2.511-1.579
	c-0.736-0.037-1.493,0.301-2.27,1.016l-3.588,3.306c-0.721,0.665-1.092,1.363-1.109,2.095c-0.018,0.733,0.443,1.607,1.379,2.623
	c0.86,0.936,1.668,1.439,2.416,1.516c0.75,0.076,1.466-0.201,2.146-0.829l0.02-0.018l-1.975-2.146l2.162-1.995L207.433,90.789
	L207.433,90.789z M89.662,84.684l2.216,2.1l-7.706,8.131l-12.344-11.7l2.344-2.473l10.128,9.6L89.662,84.684z M88.197,71.956
	l2.246,3.087l6.039-4.394l1.795,2.471l-6.04,4.391l2.357,3.24l6.523-4.745l1.797,2.468l-9.28,6.749L83.63,71.469l9.28-6.749
	l1.813,2.49L88.197,71.956z M197.837,69.554l-9.105,14.363l-2.764-1.751l5.734-9.046l-9.427,4.995l-0.321-0.203l0.407-10.876
	l-5.81,9.162l-2.738-1.738l9.105-14.363l2.646,1.677l-0.309,11.585l10.068-5.397L197.837,69.554L197.837,69.554z M110.81,59.11
	l-4.813,2.257l5.916,12.609l-3.086,1.446l-5.913-12.609l-4.813,2.259l-1.308-2.789l12.707-5.961L110.81,59.11L110.81,59.11z
	 M113.854,55.069l3.262-0.981l4.904,16.284l-3.262,0.983L113.854,55.069z M159.369,60.458l-1.131,8.785l-2.73-0.351l0.1-1.83
	c-0.523,0.647-1.191,1.075-2.007,1.282c-0.813,0.205-1.8,0.235-2.951,0.085c-4.254-0.547-6.116-2.867-5.589-6.958l0.615-4.784
	c0.27-2.091,1.066-3.583,2.392-4.474c1.323-0.892,3.12-1.193,5.394-0.898c2.449,0.316,4.134,1.04,5.049,2.176
	c0.916,1.134,1.259,2.604,1.027,4.405l-0.039,0.299l-3.377-0.436l0.028-0.245c0.082-0.63,0.052-1.143-0.091-1.537
	c-0.143-0.393-0.441-0.715-0.905-0.968c-0.462-0.25-1.153-0.436-2.071-0.556c-1.369-0.177-2.349-0.042-2.937,0.405
	c-0.589,0.447-0.951,1.193-1.086,2.237l-0.624,4.838c-0.126,0.973,0.04,1.747,0.497,2.318c0.458,0.571,1.371,0.946,2.741,1.123
	c1.263,0.164,2.203,0.033,2.824-0.393c0.625-0.423,0.994-1.095,1.112-2.013l0.005-0.028l-2.894-0.373l0.377-2.92L159.369,60.458
	L159.369,60.458z M138.74,50.469l1.934,16.898l-3.032,0.347l-9.922-10.222l1.282,11.209l-3.194,0.366l-1.934-16.895l3.033-0.347
	l9.942,10.409l-1.306-11.399L138.74,50.469z"/>
</svg>
