<?xml version="1.0" encoding="utf-8"?>
<!-- Generator: Adobe Illustrator 15.1.0, SVG Export Plug-In . SVG Version: 6.00 Build 0)  -->
<!DOCTYPE svg PUBLIC "-//W3C//DTD SVG 1.0//EN" "http://www.w3.org/TR/2001/REC-SVG-20010904/DTD/svg10.dtd">
<svg version="1.0" id="Layer_1" xmlns:serif="http://www.serif.com/"
	 xmlns="http://www.w3.org/2000/svg" xmlns:xlink="http://www.w3.org/1999/xlink" x="0px" y="0px" width="283.46px"
	 height="283.46px" viewBox="0 0 283.46 283.46" enable-background="new 0 0 283.46 283.46" xml:space="preserve">
<g>
	<path fill="none" d="M194.587,122.24h-19.414c-1.151,0-2.085-0.934-2.085-2.085c0-22.645-18.422-41.067-41.066-41.067
		c-22.643,0-41.064,18.422-41.064,41.067c0,1.151-0.934,2.085-2.085,2.085c-10.961,0-21.271,4.273-29.031,12.034
		c-7.76,7.76-12.033,18.07-12.033,29.031c0,22.645,18.421,41.067,41.064,41.067h105.714c22.643,0,41.063-18.423,41.063-41.067
		C235.651,140.661,217.23,122.24,194.587,122.24z"/>
	<path d="M194.587,118.07H177.21c-1.093-23.979-20.944-43.152-45.188-43.152c-24.259,0-44.118,19.196-45.188,43.197
		c-11.31,0.5-21.876,5.146-29.94,13.21c-8.547,8.548-13.254,19.905-13.254,31.979c0,24.944,20.292,45.237,45.234,45.237h105.714
		c24.941,0,45.233-20.293,45.233-45.237C239.821,138.362,219.529,118.07,194.587,118.07z M194.587,204.372H88.873
		c-22.643,0-41.064-18.423-41.064-41.067c0-10.961,4.273-21.271,12.033-29.031c7.76-7.76,18.07-12.034,29.031-12.034
		c1.151,0,2.085-0.934,2.085-2.085c0-22.645,18.421-41.067,41.064-41.067c22.645,0,41.066,18.422,41.066,41.067
		c0,1.151,0.934,2.085,2.085,2.085h19.414c22.643,0,41.063,18.421,41.063,41.064C235.651,185.949,217.23,204.372,194.587,204.372z"
		/>
</g>
</svg>
