<?xml version="1.0" encoding="utf-8"?>
<!-- Generator: Adobe Illustrator 15.1.0, SVG Export Plug-In . SVG Version: 6.00 Build 0)  -->
<!DOCTYPE svg PUBLIC "-//W3C//DTD SVG 1.0//EN" "http://www.w3.org/TR/2001/REC-SVG-20010904/DTD/svg10.dtd">
<svg version="1.0" id="Layer_2" xmlns="http://www.w3.org/2000/svg" xmlns:xlink="http://www.w3.org/1999/xlink" x="0px" y="0px"
	 width="283.46px" height="283.46px" viewBox="0 0 283.46 283.46" enable-background="new 0 0 283.46 283.46" xml:space="preserve">
<path d="M269.634,130.597c-15.214,4.954-31.583-3.381-36.536-18.597c-4.952-15.214,3.383-31.587,18.596-36.541L240.945,42.43
	L3.074,119.842l10.597,32.56c15.217-4.949,31.587,3.38,36.541,18.596c4.95,15.214-3.381,31.584-18.597,36.541l10.899,33.491
	l237.873-77.408L269.634,130.597z M171.002,130.437l-29.745,21.633l11.382,34.971l-29.768-21.604l-29.745,21.635v-0.003
	l-0.001,0.001l11.351-34.983l-29.761-21.604h0.001l-0.001-0.001l36.775-0.017l11.351-34.984l11.381,34.971L171.002,130.437
	L171.002,130.437L171.002,130.437z M174.121,68.657c-0.071-0.079-0.119-0.177-0.181-0.269c-0.078-0.121-0.158-0.233-0.21-0.369
	c-0.009-0.027-0.028-0.045-0.037-0.07c-0.03-0.096-0.018-0.191-0.03-0.288c-0.02-0.105-0.064-0.2-0.064-0.311
	c0-0.029,0.017-0.056,0.019-0.083c0.007-0.13,0.044-0.249,0.074-0.371c0.03-0.124,0.049-0.249,0.103-0.361
	c0.048-0.103,0.123-0.183,0.187-0.275c0.08-0.11,0.147-0.222,0.246-0.313c0.079-0.073,0.177-0.121,0.272-0.184
	c0.118-0.076,0.232-0.158,0.365-0.206c0.026-0.011,0.043-0.03,0.069-0.039c0.1-0.033,0.2-0.02,0.3-0.034
	c0.103-0.017,0.193-0.062,0.302-0.062c0.029,0,0.052,0.015,0.08,0.016c0.138,0.008,0.263,0.046,0.394,0.08
	c0.116,0.029,0.233,0.047,0.339,0.097c0.108,0.051,0.197,0.127,0.294,0.2c0.104,0.073,0.213,0.138,0.298,0.23
	c0.077,0.083,0.127,0.186,0.19,0.281c0.074,0.116,0.152,0.227,0.203,0.358c0.011,0.025,0.029,0.044,0.04,0.071
	c0.032,0.1,0.019,0.2,0.032,0.302c0.018,0.101,0.06,0.19,0.06,0.295c0,0.03-0.014,0.055-0.014,0.082
	c-0.01,0.136-0.046,0.261-0.081,0.392c-0.031,0.116-0.049,0.235-0.097,0.341c-0.05,0.103-0.125,0.189-0.194,0.285
	c-0.075,0.107-0.145,0.217-0.238,0.308c-0.08,0.074-0.177,0.121-0.271,0.181c-0.119,0.078-0.232,0.159-0.368,0.211
	c-0.027,0.01-0.044,0.03-0.071,0.04c-0.097,0.033-0.197,0.019-0.295,0.034c-0.104,0.018-0.197,0.061-0.304,0.061
	c-0.03,0-0.055-0.016-0.08-0.018c-0.136-0.006-0.256-0.043-0.382-0.076c-0.12-0.031-0.243-0.051-0.352-0.102
	c-0.103-0.048-0.188-0.123-0.279-0.189C174.325,68.826,174.212,68.756,174.121,68.657z M175.581,73.751
	c-0.083-0.254-0.11-0.511-0.09-0.762c0.067-0.75,0.567-1.426,1.327-1.674c1.012-0.329,2.108,0.227,2.436,1.238
	c0.084,0.255,0.105,0.512,0.086,0.762c-0.065,0.75-0.568,1.427-1.325,1.676C177.002,75.318,175.91,74.765,175.581,73.751z
	 M178.069,80.785c-0.073-0.076-0.119-0.174-0.179-0.263c-0.08-0.121-0.163-0.24-0.211-0.378c-0.011-0.025-0.031-0.041-0.037-0.068
	c-0.033-0.096-0.02-0.193-0.035-0.289c-0.017-0.104-0.061-0.197-0.061-0.307c0-0.028,0.015-0.054,0.015-0.083
	c0.009-0.142,0.047-0.271,0.084-0.407c0.03-0.108,0.045-0.216,0.093-0.318c0.055-0.12,0.138-0.217,0.219-0.325
	c0.069-0.092,0.121-0.189,0.209-0.268c0.088-0.085,0.199-0.14,0.307-0.207c0.106-0.068,0.209-0.143,0.334-0.188
	c0.026-0.011,0.044-0.033,0.074-0.041c0.188-0.063,0.378-0.084,0.565-0.088c0.011,0,0.021-0.005,0.032-0.005
	c0.01,0,0.016,0.005,0.025,0.005c0.241,0.004,0.477,0.053,0.696,0.14c0.019,0.009,0.03,0.015,0.048,0.021
	c0.212,0.093,0.404,0.222,0.571,0.385c0.013,0.011,0.025,0.021,0.035,0.032c0.157,0.158,0.282,0.347,0.377,0.557
	c0.011,0.025,0.023,0.051,0.034,0.079c0.014,0.038,0.031,0.071,0.049,0.112c0.06,0.188,0.08,0.375,0.087,0.564
	c0,0.013,0.007,0.021,0.007,0.035c0,0.012-0.007,0.021-0.007,0.03c-0.002,0.236-0.051,0.464-0.136,0.679
	c-0.011,0.023-0.019,0.045-0.029,0.069c-0.09,0.203-0.213,0.387-0.369,0.547c-0.018,0.021-0.035,0.04-0.055,0.059
	c-0.152,0.149-0.335,0.271-0.538,0.364c-0.03,0.014-0.059,0.026-0.09,0.039c-0.034,0.015-0.069,0.036-0.106,0.048
	c-0.102,0.033-0.201,0.021-0.302,0.035c-0.101,0.018-0.191,0.06-0.298,0.06c-0.03,0-0.054-0.014-0.084-0.015
	c-0.134-0.007-0.256-0.045-0.384-0.079c-0.119-0.028-0.239-0.048-0.345-0.099c-0.108-0.049-0.191-0.122-0.286-0.191
	C178.271,80.95,178.16,80.881,178.069,80.785z M179.53,85.875c-0.084-0.253-0.11-0.509-0.088-0.761
	c0.063-0.75,0.563-1.424,1.326-1.672c0.759-0.247,1.559,0.003,2.054,0.572c0.061,0.068,0.087,0.162,0.135,0.238
	c0.092,0.138,0.191,0.265,0.246,0.428c0,0,0,0.001,0,0.002c0.327,1.013-0.227,2.104-1.242,2.434
	C180.945,87.445,179.857,86.887,179.53,85.875z M181.341,91.451c-0.163-0.505-0.105-1.034,0.118-1.472
	c0.223-0.442,0.614-0.796,1.122-0.962c1.012-0.327,2.104,0.228,2.434,1.24c0.082,0.252,0.109,0.513,0.089,0.761
	c-0.066,0.749-0.571,1.427-1.327,1.676C182.763,93.02,181.672,92.464,181.341,91.451z M184.353,98.441
	c-0.023-0.009-0.044-0.019-0.069-0.026c-0.204-0.091-0.389-0.215-0.548-0.371c-0.021-0.017-0.035-0.032-0.055-0.05
	c-0.153-0.156-0.272-0.337-0.367-0.543c-0.013-0.028-0.025-0.056-0.035-0.086c-0.015-0.036-0.035-0.069-0.051-0.109
	c-0.029-0.101-0.019-0.203-0.033-0.306c-0.019-0.099-0.061-0.19-0.061-0.295c0-0.028,0.017-0.052,0.019-0.078
	c0.006-0.138,0.046-0.264,0.079-0.395c0.032-0.116,0.048-0.233,0.097-0.34c0.05-0.106,0.128-0.193,0.196-0.288
	c0.075-0.107,0.142-0.215,0.237-0.305c0.076-0.071,0.171-0.119,0.262-0.178c0.122-0.082,0.241-0.162,0.382-0.214
	c0.024-0.008,0.04-0.027,0.066-0.034c0.179-0.062,0.359-0.082,0.54-0.088c0.021,0,0.036-0.01,0.054-0.01
	c0.02,0,0.031,0.009,0.046,0.009c0.227,0.005,0.449,0.052,0.656,0.132c0.026,0.011,0.056,0.021,0.082,0.03
	c0.205,0.091,0.383,0.214,0.541,0.368c0.021,0.019,0.039,0.034,0.06,0.055c0.149,0.154,0.271,0.335,0.361,0.535
	c0.014,0.033,0.029,0.064,0.043,0.098c0.014,0.037,0.034,0.068,0.043,0.105c0.033,0.095,0.019,0.189,0.034,0.287
	c0.019,0.106,0.063,0.2,0.063,0.31c0,0.031-0.016,0.057-0.02,0.085c-0.005,0.132-0.042,0.251-0.072,0.377
	c-0.031,0.121-0.048,0.242-0.103,0.353c-0.048,0.107-0.128,0.193-0.195,0.288c-0.076,0.105-0.14,0.215-0.235,0.301
	c-0.083,0.08-0.188,0.129-0.284,0.193c-0.115,0.072-0.221,0.15-0.352,0.199c-0.026,0.011-0.043,0.031-0.073,0.041
	c-0.186,0.062-0.371,0.081-0.557,0.086c-0.015,0-0.025,0.008-0.038,0.008c-0.012,0-0.022-0.007-0.033-0.008
	C184.794,98.575,184.57,98.527,184.353,98.441z M185.722,104.29c-0.077-0.084-0.128-0.188-0.192-0.286
	c-0.073-0.116-0.152-0.225-0.201-0.354c-0.012-0.027-0.03-0.045-0.039-0.072c-0.029-0.103-0.021-0.204-0.034-0.306
	c-0.018-0.099-0.061-0.187-0.061-0.29c0-0.027,0.016-0.05,0.018-0.075c0.006-0.148,0.048-0.284,0.086-0.427
	c0.027-0.103,0.04-0.208,0.085-0.303c0.059-0.125,0.148-0.229,0.229-0.34c0.066-0.085,0.119-0.179,0.197-0.254
	c0.095-0.09,0.215-0.151,0.329-0.22c0.099-0.061,0.195-0.13,0.308-0.173c0.029-0.013,0.05-0.037,0.08-0.049
	c0.117-0.034,0.231-0.022,0.347-0.039c0.085-0.011,0.164-0.05,0.254-0.05c0.024,0,0.041,0.012,0.068,0.012
	c0.161,0.008,0.307,0.05,0.458,0.093c0.092,0.027,0.186,0.038,0.271,0.077c0.131,0.061,0.24,0.153,0.353,0.241
	c0.085,0.063,0.172,0.114,0.245,0.189c0.084,0.093,0.142,0.205,0.211,0.313c0.068,0.107,0.14,0.21,0.186,0.327
	c0.009,0.03,0.031,0.046,0.038,0.073c0.063,0.188,0.087,0.378,0.089,0.565c0,0.013,0.007,0.024,0.007,0.034s-0.007,0.021-0.007,0.03
	c-0.002,0.238-0.052,0.467-0.137,0.685c-0.009,0.021-0.015,0.041-0.023,0.061c-0.092,0.207-0.22,0.393-0.377,0.558
	c-0.017,0.018-0.027,0.032-0.045,0.048c-0.154,0.152-0.342,0.276-0.548,0.369c-0.026,0.012-0.052,0.024-0.08,0.035
	c-0.036,0.016-0.071,0.036-0.112,0.05c-0.105,0.033-0.21,0.021-0.315,0.037c-0.094,0.015-0.183,0.057-0.281,0.057
	c-0.029,0-0.053-0.015-0.077-0.017c-0.147-0.007-0.277-0.047-0.412-0.084c-0.109-0.028-0.218-0.045-0.32-0.092
	c-0.114-0.052-0.206-0.135-0.309-0.21C185.908,104.437,185.805,104.378,185.722,104.29z M188.539,110.615
	c-0.116-0.029-0.231-0.047-0.339-0.096c-0.115-0.054-0.205-0.131-0.304-0.205c-0.101-0.073-0.205-0.136-0.288-0.224
	c-0.078-0.084-0.128-0.187-0.19-0.283c-0.077-0.116-0.152-0.229-0.205-0.361c-0.009-0.024-0.03-0.044-0.039-0.069
	c-0.061-0.183-0.078-0.365-0.085-0.549c0-0.019-0.011-0.032-0.011-0.051c0-0.015,0.011-0.027,0.011-0.041
	c0.007-0.228,0.05-0.445,0.131-0.653c0.011-0.031,0.024-0.064,0.037-0.096c0.089-0.193,0.205-0.367,0.352-0.522
	c0.025-0.026,0.048-0.054,0.077-0.08c0.149-0.141,0.325-0.259,0.52-0.351c0.031-0.017,0.067-0.032,0.104-0.048
	c0.035-0.014,0.067-0.033,0.104-0.046c0.097-0.031,0.194-0.018,0.29-0.033c0.104-0.018,0.198-0.061,0.307-0.061
	c0.029,0,0.052,0.014,0.082,0.014c0.136,0.007,0.261,0.047,0.39,0.08c0.119,0.031,0.236,0.048,0.341,0.1
	c0.105,0.049,0.192,0.123,0.289,0.194c0.106,0.074,0.215,0.142,0.305,0.238c0.073,0.08,0.124,0.181,0.185,0.274
	c0.076,0.117,0.155,0.229,0.205,0.363c0.011,0.025,0.03,0.044,0.04,0.069c0.032,0.101,0.02,0.202,0.032,0.303
	c0.018,0.102,0.061,0.191,0.061,0.297c0,0.029-0.016,0.054-0.016,0.079c-0.008,0.138-0.045,0.265-0.08,0.396
	c-0.03,0.114-0.048,0.23-0.097,0.335c-0.051,0.109-0.128,0.197-0.199,0.295c-0.075,0.105-0.141,0.211-0.232,0.3
	c-0.08,0.074-0.178,0.12-0.271,0.182c-0.12,0.079-0.235,0.159-0.371,0.211c-0.025,0.009-0.041,0.028-0.067,0.037
	c-0.094,0.03-0.188,0.02-0.281,0.031c-0.107,0.019-0.204,0.064-0.317,0.064c-0.03,0-0.055-0.016-0.084-0.019
	C188.791,110.688,188.667,110.648,188.539,110.615z M189.582,116.156c-0.08-0.086-0.132-0.189-0.194-0.289
	c-0.071-0.115-0.15-0.222-0.198-0.35c-0.008-0.028-0.031-0.046-0.042-0.073c-0.03-0.102-0.019-0.203-0.033-0.304
	c-0.017-0.1-0.061-0.191-0.061-0.294c0-0.031,0.016-0.054,0.019-0.081c0.009-0.137,0.045-0.261,0.078-0.391
	c0.031-0.115,0.049-0.234,0.098-0.343c0.05-0.103,0.123-0.188,0.189-0.28c0.078-0.11,0.147-0.222,0.247-0.314
	c0.074-0.069,0.165-0.115,0.252-0.171c0.126-0.083,0.248-0.166,0.393-0.22c0.022-0.008,0.039-0.028,0.066-0.035
	c0.179-0.061,0.362-0.081,0.541-0.087c0.018,0,0.033-0.011,0.052-0.011c0.017,0,0.031,0.01,0.043,0.01
	c0.227,0.003,0.449,0.05,0.656,0.134c0.03,0.011,0.058,0.021,0.086,0.032c0.201,0.089,0.38,0.21,0.537,0.361
	c0.022,0.022,0.041,0.039,0.067,0.062c0.147,0.152,0.265,0.331,0.356,0.533c0.016,0.031,0.031,0.063,0.042,0.097
	c0.015,0.034,0.035,0.067,0.046,0.105c0.032,0.096,0.017,0.193,0.032,0.291c0.02,0.103,0.063,0.197,0.063,0.309
	c0,0.029-0.016,0.056-0.018,0.084c-0.008,0.128-0.044,0.248-0.074,0.371c-0.032,0.124-0.05,0.246-0.104,0.359
	c-0.046,0.103-0.122,0.186-0.188,0.277c-0.077,0.111-0.146,0.222-0.244,0.312c-0.082,0.076-0.183,0.126-0.277,0.188
	c-0.114,0.075-0.224,0.153-0.354,0.204c-0.028,0.01-0.046,0.03-0.074,0.042c-0.104,0.032-0.208,0.021-0.311,0.033
	c-0.097,0.017-0.187,0.061-0.288,0.061c-0.026,0-0.049-0.016-0.074-0.017c-0.145-0.007-0.271-0.046-0.407-0.082
	c-0.112-0.028-0.224-0.046-0.326-0.092c-0.115-0.054-0.206-0.131-0.305-0.206C189.771,116.308,189.667,116.246,189.582,116.156z
	 M192.412,122.484c-0.122-0.029-0.243-0.049-0.355-0.101c-0.104-0.049-0.188-0.125-0.281-0.19c-0.107-0.075-0.218-0.145-0.309-0.241
	c-0.074-0.081-0.125-0.182-0.188-0.279c-0.076-0.116-0.151-0.226-0.201-0.356c-0.01-0.027-0.032-0.046-0.041-0.07
	c-0.03-0.102-0.02-0.202-0.035-0.306c-0.018-0.1-0.06-0.188-0.06-0.293c0-0.026,0.015-0.053,0.019-0.079
	c0.006-0.14,0.046-0.268,0.081-0.4c0.029-0.112,0.045-0.225,0.094-0.33c0.05-0.111,0.131-0.203,0.205-0.305
	c0.072-0.098,0.133-0.204,0.224-0.288c0.085-0.076,0.188-0.127,0.286-0.189c0.113-0.076,0.225-0.153,0.355-0.203
	c0.026-0.011,0.043-0.029,0.07-0.04c0.101-0.031,0.198-0.021,0.297-0.032c0.103-0.017,0.196-0.062,0.301-0.062
	c0.031,0,0.055,0.016,0.086,0.016c0.133,0.005,0.255,0.046,0.388,0.077c0.116,0.03,0.235,0.048,0.343,0.1
	c0.107,0.05,0.193,0.126,0.289,0.194c0.105,0.074,0.211,0.143,0.302,0.236c0.076,0.078,0.124,0.181,0.187,0.274
	c0.077,0.118,0.154,0.232,0.208,0.366c0.009,0.024,0.03,0.042,0.037,0.067c0.031,0.096,0.018,0.191,0.032,0.289
	c0.019,0.105,0.063,0.2,0.063,0.31c0,0.03-0.017,0.057-0.019,0.084c-0.007,0.131-0.043,0.248-0.076,0.374
	c-0.031,0.121-0.047,0.245-0.102,0.357c-0.047,0.102-0.124,0.187-0.189,0.278c-0.077,0.109-0.144,0.221-0.244,0.312
	c-0.079,0.075-0.18,0.123-0.272,0.183c-0.116,0.078-0.229,0.157-0.363,0.208c-0.027,0.01-0.044,0.028-0.07,0.039
	c-0.097,0.029-0.196,0.019-0.293,0.033c-0.104,0.018-0.196,0.062-0.306,0.062c-0.028,0-0.054-0.016-0.083-0.017
	C192.659,122.556,192.54,122.517,192.412,122.484z M193.541,128.3c-0.146-0.152-0.265-0.33-0.356-0.526
	c-0.015-0.033-0.03-0.068-0.044-0.104c-0.017-0.033-0.034-0.066-0.046-0.104c-0.03-0.095-0.019-0.189-0.031-0.287
	c-0.019-0.105-0.063-0.2-0.063-0.31c0-0.03,0.018-0.057,0.018-0.085c0.004-0.129,0.044-0.246,0.072-0.369
	c0.031-0.123,0.052-0.249,0.106-0.362c0.044-0.098,0.116-0.179,0.179-0.27c0.08-0.114,0.151-0.229,0.254-0.322
	c0.076-0.071,0.172-0.118,0.263-0.178c0.119-0.078,0.235-0.159,0.373-0.21c0.025-0.01,0.041-0.03,0.07-0.038
	c0.098-0.032,0.195-0.021,0.296-0.033c0.104-0.018,0.194-0.063,0.303-0.063c0.027,0,0.055,0.017,0.082,0.017
	c0.136,0.008,0.26,0.047,0.391,0.08c0.116,0.029,0.233,0.049,0.341,0.097c0.109,0.052,0.197,0.127,0.293,0.198
	c0.104,0.076,0.212,0.14,0.301,0.233c0.075,0.082,0.126,0.185,0.189,0.28c0.074,0.116,0.154,0.226,0.202,0.357
	c0.013,0.026,0.03,0.045,0.039,0.072c0.031,0.103,0.021,0.205,0.034,0.307c0.019,0.099,0.06,0.187,0.06,0.288
	c0,0.027-0.016,0.052-0.017,0.076c-0.004,0.148-0.046,0.284-0.084,0.424c-0.03,0.104-0.041,0.21-0.089,0.308
	c-0.056,0.117-0.138,0.214-0.215,0.318c-0.071,0.097-0.13,0.196-0.214,0.278c-0.082,0.075-0.183,0.124-0.276,0.187
	c-0.118,0.076-0.234,0.156-0.371,0.209c-0.024,0.007-0.042,0.027-0.065,0.035c-0.184,0.062-0.367,0.082-0.547,0.088
	c-0.02,0-0.032,0.011-0.051,0.011c-0.017,0-0.027-0.01-0.045-0.01c-0.227-0.004-0.446-0.05-0.657-0.133
	c-0.026-0.012-0.057-0.023-0.086-0.033c-0.196-0.089-0.375-0.21-0.533-0.358C193.584,128.342,193.564,128.326,193.541,128.3z
	 M196.346,134.607c-0.116-0.029-0.232-0.049-0.338-0.099c-0.109-0.05-0.194-0.127-0.293-0.195c-0.105-0.075-0.213-0.141-0.301-0.234
	c-0.077-0.079-0.125-0.183-0.185-0.276c-0.078-0.117-0.157-0.229-0.207-0.364c-0.012-0.024-0.03-0.041-0.04-0.068
	c-0.061-0.185-0.082-0.37-0.085-0.552c0-0.018-0.012-0.029-0.012-0.047c0-0.013,0.009-0.023,0.009-0.038
	c0.006-0.232,0.051-0.456,0.137-0.668c0.009-0.025,0.02-0.051,0.028-0.073c0.092-0.204,0.213-0.39,0.371-0.551
	c0.018-0.018,0.033-0.033,0.049-0.051c0.156-0.151,0.342-0.276,0.55-0.369c0.024-0.013,0.048-0.023,0.075-0.034
	c0.038-0.014,0.075-0.036,0.114-0.05c0.105-0.033,0.213-0.021,0.317-0.035c0.096-0.017,0.182-0.059,0.281-0.059
	c0.028,0,0.048,0.015,0.077,0.016c0.146,0.007,0.278,0.048,0.417,0.084c0.104,0.03,0.212,0.044,0.313,0.09
	c0.117,0.056,0.214,0.14,0.323,0.217c0.094,0.07,0.191,0.127,0.272,0.213c0.08,0.085,0.133,0.194,0.196,0.296
	c0.074,0.114,0.15,0.218,0.198,0.349c0.009,0.024,0.031,0.043,0.038,0.07c0.035,0.103,0.023,0.207,0.035,0.309
	c0.019,0.098,0.061,0.185,0.061,0.287c0,0.027-0.015,0.051-0.017,0.075c-0.007,0.147-0.046,0.282-0.086,0.422
	c-0.028,0.105-0.042,0.213-0.09,0.31c-0.055,0.118-0.137,0.214-0.213,0.319c-0.07,0.095-0.128,0.195-0.215,0.275
	c-0.087,0.081-0.197,0.137-0.301,0.201c-0.109,0.07-0.212,0.147-0.334,0.191c-0.029,0.011-0.048,0.033-0.077,0.042
	c-0.103,0.034-0.206,0.021-0.308,0.035c-0.099,0.017-0.188,0.059-0.291,0.059c-0.026,0-0.053-0.016-0.078-0.016
	C196.6,134.68,196.477,134.64,196.346,134.607z M197.544,140.599c-0.15-0.154-0.271-0.336-0.363-0.54
	c-0.012-0.032-0.026-0.06-0.038-0.09c-0.014-0.038-0.032-0.07-0.048-0.109c-0.032-0.103-0.019-0.204-0.035-0.303
	c-0.018-0.102-0.059-0.192-0.059-0.297c0-0.028,0.016-0.054,0.018-0.081c0.007-0.133,0.044-0.258,0.078-0.389
	c0.031-0.116,0.048-0.236,0.099-0.346c0.048-0.102,0.121-0.187,0.188-0.279c0.08-0.109,0.146-0.221,0.246-0.312
	c0.08-0.073,0.176-0.12,0.268-0.181c0.119-0.078,0.231-0.158,0.369-0.21c0.026-0.01,0.043-0.029,0.07-0.039
	c0.097-0.031,0.197-0.02,0.295-0.033c0.103-0.017,0.194-0.063,0.303-0.063c0.029,0,0.052,0.018,0.084,0.018
	c0.133,0.006,0.255,0.045,0.384,0.076c0.117,0.031,0.239,0.049,0.347,0.1c0.105,0.051,0.193,0.127,0.289,0.194
	c0.105,0.075,0.213,0.143,0.302,0.236c0.078,0.081,0.124,0.182,0.187,0.274c0.077,0.118,0.155,0.233,0.208,0.365
	c0.009,0.026,0.03,0.044,0.038,0.07c0.03,0.096,0.017,0.193,0.031,0.29c0.021,0.103,0.063,0.197,0.063,0.307
	c0,0.028-0.016,0.055-0.018,0.083c-0.006,0.136-0.044,0.26-0.08,0.391c-0.028,0.116-0.045,0.233-0.096,0.339
	c-0.049,0.11-0.127,0.197-0.199,0.297c-0.074,0.103-0.14,0.21-0.232,0.297c-0.079,0.076-0.18,0.124-0.274,0.184
	c-0.117,0.08-0.233,0.159-0.367,0.21c-0.028,0.01-0.044,0.03-0.071,0.037c-0.182,0.062-0.364,0.083-0.547,0.088
	c-0.017,0-0.033,0.008-0.049,0.008s-0.029-0.008-0.044-0.008c-0.227-0.004-0.449-0.052-0.658-0.133
	c-0.027-0.013-0.055-0.021-0.082-0.031c-0.201-0.089-0.385-0.215-0.542-0.364C197.586,140.634,197.565,140.619,197.544,140.599z
	 M200.345,146.895c-0.115-0.03-0.231-0.046-0.338-0.094c-0.111-0.053-0.199-0.132-0.299-0.205c-0.104-0.073-0.208-0.136-0.291-0.225
	c-0.079-0.085-0.132-0.19-0.195-0.289c-0.073-0.115-0.152-0.22-0.2-0.35c-0.009-0.027-0.031-0.047-0.04-0.073
	c-0.031-0.101-0.021-0.203-0.035-0.304c-0.017-0.099-0.06-0.189-0.06-0.295c0-0.027,0.016-0.051,0.017-0.079
	c0.009-0.137,0.047-0.263,0.08-0.393c0.031-0.116,0.047-0.231,0.098-0.341c0.049-0.106,0.128-0.193,0.196-0.289
	c0.074-0.104,0.142-0.213,0.237-0.302c0.079-0.075,0.178-0.124,0.273-0.185c0.117-0.077,0.23-0.156,0.366-0.208
	c0.024-0.01,0.041-0.03,0.068-0.04c0.094-0.029,0.19-0.016,0.284-0.029c0.105-0.019,0.203-0.063,0.314-0.063
	c0.03,0,0.054,0.016,0.086,0.018c0.129,0.007,0.248,0.044,0.375,0.075c0.118,0.031,0.242,0.049,0.354,0.102
	c0.107,0.048,0.192,0.126,0.29,0.194c0.103,0.074,0.212,0.14,0.3,0.236c0.077,0.081,0.125,0.182,0.186,0.275
	c0.077,0.117,0.157,0.229,0.207,0.363c0.01,0.026,0.031,0.042,0.04,0.071c0.03,0.101,0.02,0.199,0.032,0.299
	c0.02,0.101,0.062,0.191,0.062,0.295c0,0.028-0.016,0.05-0.018,0.079c-0.007,0.15-0.046,0.28-0.085,0.42
	c-0.029,0.104-0.044,0.211-0.087,0.309c-0.055,0.118-0.143,0.214-0.218,0.323c-0.071,0.092-0.128,0.191-0.211,0.271
	c-0.09,0.082-0.194,0.134-0.297,0.199c-0.114,0.072-0.219,0.148-0.345,0.195c-0.03,0.01-0.049,0.033-0.075,0.041
	c-0.101,0.033-0.203,0.02-0.303,0.035c-0.101,0.018-0.191,0.06-0.295,0.06c-0.029,0-0.052-0.017-0.079-0.017
	C200.601,146.97,200.476,146.931,200.345,146.895z M201.042,151.985c-0.332-1.015,0.223-2.104,1.237-2.436
	c1.015-0.328,2.104,0.227,2.436,1.238c0.084,0.256,0.108,0.514,0.087,0.763c-0.064,0.751-0.567,1.428-1.324,1.676
	C202.462,153.552,201.371,153,201.042,151.985z M202.929,157.786c-0.327-1.016,0.223-2.104,1.24-2.434
	c1.012-0.334,2.098,0.224,2.433,1.236c0.083,0.255,0.109,0.515,0.089,0.765c-0.066,0.748-0.571,1.423-1.328,1.672
	C204.35,159.354,203.258,158.798,202.929,157.786z M205.339,164.56c-0.082-0.084-0.132-0.188-0.196-0.288
	c-0.073-0.114-0.149-0.22-0.196-0.35c-0.013-0.027-0.033-0.046-0.042-0.072c-0.032-0.103-0.021-0.205-0.035-0.304
	c-0.017-0.101-0.06-0.189-0.06-0.295c0-0.027,0.016-0.05,0.018-0.077c0.006-0.142,0.045-0.268,0.082-0.4
	c0.029-0.114,0.044-0.225,0.092-0.328c0.052-0.116,0.135-0.209,0.21-0.309c0.07-0.098,0.131-0.203,0.221-0.283
	c0.084-0.08,0.192-0.132,0.29-0.199c0.111-0.069,0.22-0.148,0.351-0.196c0.025-0.009,0.044-0.029,0.071-0.041
	c0.104-0.03,0.206-0.021,0.306-0.032c0.098-0.016,0.189-0.06,0.292-0.06c0.03,0,0.053,0.017,0.08,0.017
	c0.141,0.005,0.267,0.045,0.399,0.082c0.113,0.027,0.225,0.045,0.33,0.094c0.111,0.051,0.202,0.128,0.301,0.202
	c0.103,0.072,0.207,0.139,0.293,0.228c0.076,0.083,0.124,0.184,0.186,0.276c0.076,0.119,0.155,0.229,0.207,0.367
	c0.01,0.023,0.028,0.04,0.04,0.068c0.032,0.099,0.019,0.199,0.032,0.297c0.016,0.103,0.062,0.192,0.062,0.297
	c0,0.029-0.016,0.051-0.018,0.081c-0.007,0.145-0.046,0.275-0.083,0.411c-0.03,0.109-0.044,0.216-0.092,0.318
	c-0.055,0.117-0.138,0.212-0.214,0.318c-0.07,0.095-0.129,0.195-0.213,0.274c-0.087,0.082-0.198,0.137-0.303,0.205
	c-0.109,0.069-0.214,0.144-0.334,0.189c-0.031,0.014-0.05,0.031-0.078,0.044c-0.103,0.03-0.206,0.02-0.309,0.033
	c-0.096,0.015-0.184,0.059-0.287,0.059c-0.026,0-0.05-0.016-0.078-0.019c-0.14-0.005-0.271-0.044-0.404-0.08
	c-0.11-0.03-0.221-0.046-0.327-0.096c-0.111-0.053-0.203-0.131-0.304-0.206C205.527,164.71,205.419,164.651,205.339,164.56z
	 M208.151,170.887c-0.115-0.029-0.231-0.047-0.334-0.096c-0.113-0.05-0.205-0.132-0.303-0.205c-0.101-0.073-0.206-0.136-0.291-0.226
	c-0.078-0.083-0.132-0.188-0.194-0.289c-0.072-0.112-0.151-0.22-0.196-0.349c-0.014-0.028-0.033-0.046-0.042-0.073
	c-0.033-0.101-0.02-0.201-0.033-0.302c-0.018-0.1-0.061-0.191-0.061-0.297c0-0.029,0.018-0.052,0.019-0.079
	c0.006-0.135,0.042-0.256,0.075-0.383c0.028-0.12,0.05-0.244,0.101-0.353c0.045-0.101,0.119-0.178,0.182-0.27
	c0.079-0.116,0.15-0.23,0.255-0.326c0.072-0.069,0.164-0.113,0.251-0.168c0.125-0.082,0.245-0.167,0.392-0.22
	c0.023-0.009,0.039-0.029,0.064-0.038c0.095-0.027,0.189-0.017,0.284-0.03c0.105-0.019,0.204-0.063,0.312-0.063
	c0.03,0,0.054,0.018,0.085,0.018c0.133,0.005,0.256,0.044,0.385,0.076c0.116,0.031,0.236,0.05,0.347,0.099
	c0.104,0.053,0.194,0.128,0.29,0.198c0.104,0.075,0.213,0.143,0.301,0.236c0.075,0.08,0.124,0.182,0.187,0.275
	c0.077,0.118,0.154,0.228,0.205,0.362c0.012,0.026,0.033,0.043,0.04,0.07c0.03,0.097,0.015,0.192,0.031,0.288
	c0.019,0.106,0.063,0.2,0.063,0.308c0,0.031-0.016,0.055-0.02,0.086c-0.005,0.134-0.042,0.257-0.074,0.387
	c-0.031,0.116-0.048,0.235-0.099,0.345c-0.052,0.107-0.13,0.197-0.2,0.294c-0.075,0.103-0.137,0.211-0.229,0.295
	c-0.085,0.079-0.189,0.13-0.286,0.193c-0.116,0.074-0.223,0.153-0.35,0.2c-0.029,0.01-0.046,0.031-0.076,0.041
	c-0.1,0.031-0.2,0.019-0.303,0.031c-0.099,0.019-0.19,0.062-0.295,0.062c-0.028,0-0.052-0.016-0.083-0.016
	C208.406,170.961,208.281,170.922,208.151,170.887z M209.281,176.684c-0.077-0.081-0.127-0.182-0.188-0.278
	c-0.077-0.116-0.152-0.227-0.203-0.36c-0.014-0.024-0.032-0.041-0.041-0.069c-0.061-0.185-0.082-0.369-0.085-0.554
	c0-0.015-0.009-0.026-0.009-0.041c0-0.014,0.004-0.023,0.004-0.036c0.008-0.232,0.054-0.459,0.138-0.674
	c0.013-0.023,0.019-0.045,0.027-0.069c0.095-0.206,0.216-0.391,0.373-0.553c0.019-0.015,0.029-0.032,0.049-0.05
	c0.156-0.152,0.34-0.275,0.547-0.369c0.028-0.014,0.052-0.022,0.079-0.033c0.039-0.017,0.074-0.038,0.114-0.049
	c0.19-0.064,0.381-0.087,0.571-0.089c0.011,0,0.017-0.006,0.028-0.006c0.008,0,0.018,0.005,0.024,0.005
	c0.244,0.002,0.482,0.05,0.7,0.141c0.016,0.006,0.031,0.012,0.041,0.018c0.214,0.092,0.402,0.221,0.573,0.385
	c0.013,0.014,0.024,0.025,0.039,0.04c0.153,0.154,0.275,0.34,0.369,0.547c0.017,0.03,0.027,0.058,0.037,0.088
	c0.016,0.037,0.036,0.07,0.05,0.109c0.033,0.105,0.021,0.208,0.037,0.31c0.014,0.1,0.057,0.188,0.057,0.289
	c0,0.027-0.015,0.048-0.018,0.074c-0.006,0.147-0.045,0.28-0.085,0.421c-0.03,0.104-0.043,0.212-0.091,0.309
	c-0.055,0.119-0.137,0.215-0.214,0.323c-0.07,0.095-0.127,0.19-0.213,0.271c-0.087,0.083-0.196,0.138-0.297,0.203
	c-0.113,0.07-0.215,0.146-0.343,0.193c-0.026,0.01-0.044,0.029-0.072,0.038c-0.1,0.033-0.203,0.023-0.305,0.037
	c-0.098,0.016-0.19,0.06-0.295,0.06c-0.026,0-0.051-0.016-0.079-0.019c-0.137-0.007-0.263-0.045-0.396-0.08
	c-0.115-0.029-0.231-0.046-0.336-0.094c-0.11-0.053-0.199-0.13-0.297-0.202C209.473,176.841,209.366,176.779,209.281,176.684z
	 M214.409,181.653c-0.03,0.115-0.049,0.231-0.097,0.339c-0.053,0.108-0.128,0.198-0.202,0.297c-0.071,0.1-0.139,0.209-0.23,0.295
	c-0.08,0.076-0.183,0.126-0.279,0.19c-0.115,0.075-0.227,0.151-0.357,0.204c-0.024,0.009-0.044,0.029-0.07,0.038
	c-0.094,0.03-0.193,0.019-0.288,0.031c-0.104,0.019-0.2,0.063-0.311,0.063c-0.031,0-0.057-0.016-0.085-0.017
	c-0.128-0.007-0.249-0.046-0.373-0.078c-0.122-0.029-0.245-0.048-0.359-0.1c-0.1-0.049-0.184-0.122-0.274-0.188
	c-0.111-0.078-0.223-0.147-0.314-0.245c-0.07-0.077-0.116-0.171-0.175-0.259c-0.082-0.122-0.163-0.244-0.217-0.387
	c-0.009-0.023-0.025-0.039-0.034-0.064c-0.03-0.094-0.017-0.182-0.03-0.277c-0.021-0.107-0.067-0.207-0.067-0.319
	c0-0.031,0.02-0.057,0.02-0.088c0.006-0.132,0.046-0.256,0.077-0.386c0.03-0.114,0.047-0.233,0.1-0.341
	c0.05-0.113,0.13-0.207,0.207-0.308c0.072-0.096,0.131-0.196,0.218-0.28c0.09-0.084,0.199-0.138,0.302-0.202
	c0.112-0.07,0.213-0.146,0.339-0.192c0.026-0.01,0.045-0.031,0.072-0.042c0.104-0.03,0.207-0.02,0.31-0.035
	c0.099-0.015,0.188-0.058,0.291-0.058c0.025,0,0.05,0.015,0.078,0.017c0.143,0.004,0.271,0.046,0.403,0.08
	c0.112,0.032,0.226,0.046,0.328,0.094c0.111,0.053,0.203,0.133,0.304,0.206c0.099,0.072,0.206,0.138,0.29,0.225
	c0.078,0.086,0.128,0.188,0.19,0.287c0.077,0.113,0.153,0.22,0.202,0.35c0.011,0.03,0.031,0.047,0.04,0.076
	c0.031,0.099,0.021,0.201,0.035,0.304c0.017,0.098,0.061,0.188,0.061,0.291c0,0.029-0.015,0.051-0.019,0.082
	C214.481,181.397,214.442,181.521,214.409,181.653z"/>
</svg>
