<?xml version="1.0" encoding="utf-8"?>
<!-- Generator: Adobe Illustrator 15.1.0, SVG Export Plug-In . SVG Version: 6.00 Build 0)  -->
<!DOCTYPE svg PUBLIC "-//W3C//DTD SVG 1.1//EN" "http://www.w3.org/Graphics/SVG/1.1/DTD/svg11.dtd">
<svg version="1.1" id="Layer_2" xmlns="http://www.w3.org/2000/svg" xmlns:xlink="http://www.w3.org/1999/xlink" x="0px" y="0px"
	 width="283.46px" height="283.46px" viewBox="0 0 283.46 283.46" enable-background="new 0 0 283.46 283.46" xml:space="preserve">
<g>
	<path fill="none" d="M95.255,88.45c-8.113,0-14.701,6.587-14.701,14.703c0,8.113,6.587,14.701,14.701,14.701
		c8.114,0,14.701-6.587,14.701-14.701C109.956,95.037,103.369,88.45,95.255,88.45z M95.255,113.7
		c-5.822,0-10.547-4.727-10.547-10.547c0-5.822,4.725-10.549,10.547-10.549s10.549,4.727,10.549,10.549
		C105.804,108.973,101.077,113.7,95.255,113.7z"/>
	<path fill="none" d="M95.255,126.71c-8.113,0-14.701,6.587-14.701,14.701c0,8.114,6.587,14.701,14.701,14.701
		c8.114,0,14.701-6.587,14.701-14.701C109.956,133.298,103.369,126.71,95.255,126.71z M95.255,151.96
		c-5.822,0-10.547-4.728-10.547-10.549c0-5.819,4.725-10.547,10.547-10.547s10.549,4.728,10.549,10.547
		C105.804,147.233,101.077,151.96,95.255,151.96z"/>
	<path fill="none" d="M95.255,165.596c-8.113,0-14.701,6.588-14.701,14.701s6.587,14.701,14.701,14.701
		c8.114,0,14.701-6.588,14.701-14.701S103.369,165.596,95.255,165.596z M95.255,190.846c-5.822,0-10.547-4.727-10.547-10.549
		s4.725-10.547,10.547-10.547s10.549,4.725,10.549,10.547S101.077,190.846,95.255,190.846z"/>
	<path fill="none" d="M95.255,204.213c-8.113,0-14.701,6.586-14.701,14.7c0,8.113,6.587,14.7,14.701,14.7
		c8.114,0,14.701-6.587,14.701-14.7C109.956,210.799,103.369,204.213,95.255,204.213z M95.255,229.46
		c-5.822,0-10.547-4.726-10.547-10.547s4.725-10.55,10.547-10.55s10.549,4.729,10.549,10.55S101.077,229.46,95.255,229.46z"/>
	<polygon fill="none" points="130.155,144.948 125.391,144.948 125.391,142.584 129.802,142.584 129.802,140.781 125.391,140.781 
		125.391,138.529 130.155,138.529 130.155,136.71 123.381,136.71 123.381,146.751 130.155,146.751 	"/>
	<path fill="none" d="M95.255,49.847c-8.113,0-14.701,6.587-14.701,14.701c0,8.113,6.587,14.701,14.701,14.701
		c8.114,0,14.701-6.587,14.701-14.701C109.956,56.434,103.369,49.847,95.255,49.847z M95.255,75.095
		c-5.822,0-10.547-4.725-10.547-10.547s4.725-10.549,10.547-10.549s10.549,4.728,10.549,10.549S101.077,75.095,95.255,75.095z"/>
	<path fill="none" d="M127.565,98.035c-1.341,0-2.359,0.294-3.05,0.883c-0.691,0.591-1.038,1.461-1.038,2.608v3.251
		c0,1.147,0.347,2.017,1.038,2.608c0.691,0.589,1.709,0.883,3.05,0.883c1.319,0,2.313-0.281,2.985-0.844
		c0.669-0.563,1.005-1.43,1.005-2.599v-0.466h-2.012v0.434c0,0.569-0.142,0.979-0.425,1.232c-0.284,0.253-0.796,0.377-1.538,0.377
		c-0.761,0-1.301-0.14-1.618-0.419c-0.316-0.277-0.473-0.676-0.473-1.19v-3.281c0-0.526,0.15-0.927,0.449-1.2
		c0.301-0.274,0.848-0.41,1.642-0.41c0.75,0,1.267,0.122,1.546,0.369c0.279,0.249,0.417,0.645,0.417,1.192v0.497h2.012v-0.497
		C131.555,99.178,130.225,98.035,127.565,98.035z"/>
	<polygon fill="none" points="130.251,67.766 125.489,67.766 125.489,65.4 129.898,65.4 129.898,63.599 125.489,63.599 
		125.489,61.345 130.251,61.345 130.251,59.526 123.477,59.526 123.477,69.569 130.251,69.569 	"/>
	<polygon fill="none" points="139.344,213.892 137.235,217.256 135.145,213.892 132.955,213.892 136.078,218.896 132.955,223.935 
		135.016,223.935 137.124,220.571 139.215,223.935 141.404,223.935 138.282,218.928 141.404,213.892 	"/>
	<polygon fill="none" points="141.645,179.349 137.235,179.349 137.235,175.278 135.225,175.278 135.225,185.319 137.235,185.319 
		137.235,181.15 141.645,181.15 141.645,185.319 143.657,185.319 143.657,175.278 141.645,175.278 	"/>
	<polygon fill="none" points="123.285,223.935 130.06,223.935 130.06,222.131 125.295,222.131 125.295,219.766 129.704,219.766 
		129.704,217.963 125.295,217.963 125.295,215.71 130.06,215.71 130.06,213.892 123.285,213.892 	"/>
	<path fill="none" d="M127.371,175.18c-1.341,0-2.357,0.297-3.048,0.885c-0.693,0.592-1.038,1.459-1.038,2.608v3.251
		c0,1.146,0.345,2.017,1.038,2.605c0.691,0.591,1.707,0.885,3.048,0.885c1.319,0,2.315-0.281,2.985-0.844
		c0.672-0.563,1.005-1.43,1.005-2.599v-0.467h-2.01v0.435c0,0.568-0.142,0.979-0.428,1.231c-0.283,0.251-0.796,0.378-1.535,0.378
		c-0.763,0-1.302-0.141-1.618-0.42c-0.316-0.278-0.475-0.676-0.475-1.189v-3.282c0-0.527,0.15-0.927,0.451-1.199
		c0.299-0.274,0.846-0.409,1.642-0.409c0.75,0,1.265,0.121,1.543,0.367c0.279,0.247,0.419,0.645,0.419,1.191v0.499h2.01v-0.499
		C131.361,176.323,130.031,175.18,127.371,175.18z"/>
	<polygon fill="none" points="174.425,67.766 169.663,67.766 169.663,65.4 174.073,65.4 174.073,63.599 169.663,63.599 
		169.663,61.345 174.425,61.345 174.425,59.526 167.651,59.526 167.651,69.569 174.425,69.569 	"/>
	<polygon fill="none" points="174.33,144.948 169.565,144.948 169.565,142.584 173.976,142.584 173.976,140.781 169.565,140.781 
		169.565,138.529 174.33,138.529 174.33,136.71 167.555,136.71 167.555,146.751 174.33,146.751 	"/>
	<path fill="none" d="M158.059,66.109h1.465l2.076,3.46h2.317l-2.285-3.685c0.815-0.216,1.399-0.564,1.753-1.046
		c0.355-0.484,0.532-1.149,0.532-1.995c0-1.138-0.347-1.976-1.038-2.512c-0.691-0.536-1.81-0.804-3.355-0.804h-3.476v10.043h2.011
		V66.109z M158.059,61.33h1.53c0.868,0,1.466,0.113,1.792,0.338c0.33,0.225,0.493,0.6,0.493,1.127c0,0.386-0.065,0.685-0.194,0.9
		c-0.129,0.213-0.349,0.373-0.66,0.475c-0.31,0.101-0.762,0.153-1.352,0.153h-1.609V61.33z"/>
	<path fill="none" d="M189.948,68.87c0.67,0.53,1.611,0.796,2.824,0.796c1.18,0,2.11-0.271,2.791-0.813
		c0.682-0.541,1.022-1.284,1.022-2.229c0-0.665-0.22-1.221-0.661-1.666c-0.438-0.445-1.121-0.807-2.043-1.085l-2.115-0.685
		c-0.274-0.111-0.467-0.237-0.58-0.377s-0.17-0.323-0.17-0.547c0-0.333,0.146-0.593,0.437-0.781s0.706-0.281,1.254-0.281
		c0.495,0,0.881,0.116,1.159,0.347c0.279,0.229,0.42,0.565,0.42,1.005v0.257h2.027v-0.146c0-1.04-0.314-1.838-0.941-2.396
		c-0.629-0.558-1.522-0.837-2.681-0.837c-0.761,0-1.424,0.125-1.988,0.371c-0.563,0.247-0.997,0.593-1.302,1.038
		c-0.308,0.445-0.46,0.957-0.46,1.537c0,0.537,0.098,0.983,0.29,1.343c0.193,0.36,0.51,0.665,0.95,0.918
		c0.438,0.251,1.056,0.491,1.849,0.715l0.661,0.194c0.493,0.14,0.866,0.268,1.118,0.386c0.254,0.118,0.43,0.249,0.53,0.393
		c0.103,0.146,0.155,0.336,0.155,0.571c0,0.667-0.559,0.999-1.675,0.999c-1.234,0-1.851-0.456-1.851-1.367v-0.257h-2.028v0.368
		C188.941,67.594,189.276,68.337,189.948,68.87z"/>
	<path fill="none" d="M157.963,143.291h1.465l2.076,3.461h2.317l-2.285-3.686c0.815-0.213,1.399-0.563,1.753-1.046
		c0.354-0.482,0.532-1.147,0.532-1.995c0-1.136-0.347-1.973-1.038-2.51c-0.693-0.536-1.813-0.805-3.355-0.805h-3.476v10.042h2.011
		V143.291z M157.963,138.511h1.527c0.871,0,1.469,0.113,1.795,0.338c0.327,0.227,0.49,0.602,0.49,1.127
		c0,0.386-0.063,0.687-0.191,0.9c-0.129,0.216-0.349,0.373-0.66,0.476c-0.313,0.103-0.762,0.152-1.352,0.152h-1.609V138.511z"/>
	<polygon fill="none" points="135.112,146.751 137.22,143.389 139.311,146.751 141.5,146.751 138.378,141.747 141.5,136.71 
		139.44,136.71 137.333,140.072 135.24,136.71 133.051,136.71 136.173,141.714 133.051,146.751 	"/>
	<path fill="none" d="M146.891,143.275h1.787c1.008,0,1.808-0.11,2.396-0.328c0.591-0.221,1.014-0.567,1.271-1.039
		c0.26-0.473,0.388-1.105,0.388-1.899c0-1.149-0.325-1.986-0.975-2.512c-0.649-0.526-1.729-0.788-3.242-0.788h-3.637v10.042h2.011
		V143.275z M146.891,138.511h1.594c0.58,0,1.029,0.048,1.352,0.146c0.322,0.096,0.547,0.249,0.676,0.458s0.193,0.497,0.193,0.861
		c0,0.375-0.057,0.669-0.17,0.885c-0.113,0.214-0.318,0.373-0.619,0.475c-0.301,0.101-0.734,0.153-1.303,0.153h-1.723V138.511z"/>
	<polygon fill="none" points="135.208,69.569 137.316,66.205 139.409,69.569 141.596,69.569 138.476,64.563 141.596,59.526 
		139.538,59.526 137.43,62.891 135.336,59.526 133.149,59.526 136.27,64.533 133.149,69.569 	"/>
	<path fill="none" d="M146.989,66.091h1.785c1.008,0,1.809-0.109,2.398-0.329s1.015-0.564,1.271-1.038
		c0.258-0.471,0.387-1.105,0.387-1.899c0-1.147-0.325-1.984-0.975-2.51c-0.648-0.525-1.729-0.789-3.242-0.789h-3.638v10.043h2.013
		V66.091z M146.989,61.33h1.592c0.58,0,1.031,0.048,1.352,0.144c0.322,0.098,0.547,0.251,0.676,0.46
		c0.129,0.209,0.194,0.495,0.194,0.861c0,0.375-0.057,0.669-0.17,0.883c-0.111,0.216-0.318,0.373-0.62,0.476
		c-0.298,0.102-0.734,0.152-1.303,0.152h-1.721V61.33z"/>
	<polygon fill="none" points="176.133,98.131 172.14,102.459 172.14,98.131 170.129,98.131 170.129,108.172 172.14,108.172 
		172.14,104.906 172.962,104.021 176.211,108.172 178.594,108.172 174.264,102.621 178.418,98.131 	"/>
	<rect x="181.458" y="175.278" fill="none" width="2.012" height="10.041"/>
	<path fill="none" d="M182.569,218.238l-2.117-0.685c-0.271-0.111-0.467-0.238-0.577-0.377c-0.114-0.141-0.171-0.323-0.171-0.548
		c0-0.333,0.145-0.593,0.435-0.78s0.708-0.281,1.256-0.281c0.493,0,0.879,0.115,1.157,0.344c0.279,0.231,0.42,0.567,0.42,1.008
		v0.258h2.027v-0.146c0-1.04-0.314-1.838-0.941-2.396s-1.521-0.838-2.678-0.838c-0.764,0-1.427,0.123-1.989,0.371
		c-0.563,0.246-0.997,0.591-1.304,1.038c-0.305,0.444-0.458,0.957-0.458,1.535c0,0.536,0.097,0.985,0.29,1.345
		c0.191,0.36,0.51,0.666,0.949,0.916c0.439,0.253,1.057,0.493,1.851,0.718l0.661,0.192c0.492,0.139,0.865,0.268,1.118,0.388
		c0.251,0.118,0.427,0.249,0.53,0.392c0.102,0.146,0.152,0.336,0.152,0.572c0,0.664-0.559,0.998-1.673,0.998
		c-1.233,0-1.851-0.455-1.851-1.367v-0.257h-2.028v0.368c0,0.955,0.336,1.699,1.005,2.229c0.672,0.532,1.613,0.799,2.824,0.799
		c1.182,0,2.113-0.271,2.793-0.814c0.68-0.54,1.022-1.283,1.022-2.229c0-0.664-0.22-1.221-0.661-1.666
		C184.172,218.878,183.492,218.516,182.569,218.238z"/>
	<path fill="none" d="M182.666,141.054l-2.117-0.683c-0.272-0.113-0.467-0.24-0.578-0.379c-0.113-0.14-0.17-0.32-0.17-0.547
		c0-0.332,0.146-0.591,0.437-0.78c0.287-0.188,0.706-0.282,1.254-0.282c0.494,0,0.881,0.116,1.159,0.347
		c0.279,0.231,0.419,0.567,0.419,1.005v0.257h2.025v-0.144c0-1.04-0.312-1.84-0.939-2.398c-0.629-0.558-1.521-0.837-2.68-0.837
		c-0.762,0-1.424,0.125-1.988,0.371c-0.563,0.246-0.997,0.593-1.303,1.038c-0.307,0.445-0.459,0.958-0.459,1.538
		c0,0.536,0.098,0.983,0.289,1.343c0.194,0.36,0.51,0.665,0.951,0.918c0.438,0.253,1.055,0.491,1.849,0.716l0.661,0.193
		c0.492,0.14,0.865,0.269,1.118,0.387c0.251,0.117,0.43,0.25,0.53,0.395c0.102,0.144,0.152,0.336,0.152,0.57
		c0,0.666-0.557,0.999-1.672,0.999c-1.234,0-1.852-0.458-1.852-1.369v-0.257h-2.027v0.37c0,0.955,0.335,1.696,1.007,2.229
		c0.669,0.532,1.611,0.796,2.823,0.796c1.18,0,2.111-0.271,2.791-0.811c0.683-0.543,1.023-1.287,1.023-2.231
		c0-0.665-0.221-1.219-0.661-1.664C184.27,141.695,183.588,141.333,182.666,141.054z"/>
	<polygon fill="none" points="174.073,179.768 178.223,175.278 175.938,175.278 171.948,179.606 171.948,175.278 169.936,175.278 
		169.936,185.319 171.948,185.319 171.948,182.053 172.768,181.167 176.019,185.319 178.401,185.319 	"/>
	<polygon fill="none" points="167.459,223.935 174.233,223.935 174.233,222.131 169.469,222.131 169.469,219.766 173.877,219.766 
		173.877,217.963 169.469,217.963 169.469,215.71 174.233,215.71 174.233,213.892 167.459,213.892 	"/>
	<polygon fill="none" points="141.838,102.202 137.43,102.202 137.43,98.131 135.417,98.131 135.417,108.172 137.43,108.172 
		137.43,104.005 141.838,104.005 141.838,108.172 143.851,108.172 143.851,98.131 141.838,98.131 	"/>
	<path fill="none" d="M193.786,141.054l-2.117-0.683c-0.272-0.113-0.467-0.24-0.578-0.379c-0.113-0.14-0.17-0.32-0.17-0.547
		c0-0.332,0.146-0.591,0.434-0.78c0.291-0.188,0.709-0.282,1.256-0.282c0.493,0,0.881,0.116,1.158,0.347
		c0.279,0.231,0.419,0.567,0.419,1.005v0.257h2.028v-0.144c0-1.04-0.314-1.84-0.94-2.398c-0.628-0.558-1.522-0.837-2.68-0.837
		c-0.763,0-1.424,0.125-1.989,0.371c-0.563,0.246-0.996,0.593-1.303,1.038c-0.306,0.445-0.459,0.958-0.459,1.538
		c0,0.536,0.097,0.983,0.291,1.343c0.191,0.36,0.51,0.665,0.947,0.918c0.441,0.253,1.059,0.491,1.852,0.716l0.661,0.193
		c0.493,0.14,0.866,0.269,1.118,0.387c0.251,0.117,0.428,0.25,0.53,0.395c0.103,0.144,0.152,0.336,0.152,0.57
		c0,0.666-0.558,0.999-1.673,0.999c-1.233,0-1.851-0.458-1.851-1.369v-0.257h-2.028v0.37c0,0.955,0.336,1.696,1.006,2.229
		c0.672,0.532,1.613,0.796,2.826,0.796c1.18,0,2.11-0.271,2.791-0.811c0.682-0.543,1.021-1.287,1.021-2.231
		c0-0.665-0.22-1.219-0.66-1.664C195.388,141.695,194.708,141.333,193.786,141.054z"/>
	<path fill="none" d="M182.761,63.872l-2.115-0.685c-0.274-0.111-0.466-0.237-0.579-0.377c-0.114-0.14-0.168-0.323-0.168-0.547
		c0-0.333,0.143-0.593,0.434-0.781c0.289-0.188,0.709-0.281,1.256-0.281c0.492,0,0.879,0.116,1.158,0.347
		c0.278,0.229,0.418,0.565,0.418,1.005v0.257h2.027v-0.146c0-1.04-0.313-1.838-0.941-2.396s-1.52-0.837-2.68-0.837
		c-0.762,0-1.424,0.125-1.986,0.371c-0.564,0.247-0.999,0.593-1.305,1.038c-0.305,0.445-0.457,0.957-0.457,1.537
		c0,0.537,0.096,0.983,0.287,1.343c0.194,0.36,0.511,0.665,0.951,0.918c0.44,0.251,1.055,0.491,1.852,0.715l0.658,0.194
		c0.492,0.14,0.865,0.268,1.119,0.386c0.252,0.118,0.429,0.249,0.531,0.393c0.101,0.146,0.152,0.336,0.152,0.571
		c0,0.667-0.558,0.999-1.674,0.999c-1.234,0-1.852-0.456-1.852-1.367v-0.257h-2.025v0.368c0,0.955,0.334,1.699,1.005,2.231
		c0.669,0.53,1.611,0.796,2.823,0.796c1.18,0,2.111-0.271,2.793-0.813c0.682-0.541,1.021-1.284,1.021-2.229
		c0-0.665-0.221-1.221-0.658-1.666C184.366,64.513,183.684,64.151,182.761,63.872z"/>
	<polygon fill="none" points="194.782,104.906 189.649,98.131 187.846,98.131 187.846,108.172 189.745,108.172 189.745,101.511 
		194.88,108.172 196.681,108.172 196.681,98.131 194.782,98.131 	"/>
	<path fill="none" d="M162.276,98.035c-1.341,0-2.357,0.294-3.049,0.883c-0.693,0.591-1.039,1.461-1.039,2.608v3.251
		c0,1.147,0.346,2.017,1.039,2.608c0.691,0.589,1.708,0.883,3.049,0.883c1.319,0,2.315-0.281,2.984-0.844
		c0.672-0.563,1.006-1.43,1.006-2.599v-0.466h-2.01v0.434c0,0.569-0.143,0.979-0.428,1.232c-0.283,0.253-0.797,0.377-1.537,0.377
		c-0.762,0-1.3-0.14-1.616-0.419c-0.315-0.277-0.476-0.676-0.476-1.19v-3.281c0-0.526,0.15-0.927,0.451-1.2
		c0.299-0.274,0.847-0.41,1.641-0.41c0.752,0,1.267,0.122,1.545,0.369c0.279,0.249,0.42,0.645,0.42,1.192v0.497h2.01v-0.497
		C166.266,99.178,164.936,98.035,162.276,98.035z"/>
	<polygon fill="none" points="194.59,182.053 189.458,175.278 187.655,175.278 187.655,185.319 189.553,185.319 189.553,178.658 
		194.686,185.319 196.489,185.319 196.489,175.278 194.59,175.278 	"/>
	<path fill="none" d="M193.69,218.238l-2.117-0.685c-0.273-0.111-0.467-0.238-0.58-0.377c-0.111-0.141-0.168-0.323-0.168-0.548
		c0-0.333,0.144-0.593,0.434-0.78s0.709-0.281,1.256-0.281c0.493,0,0.879,0.115,1.158,0.344c0.279,0.231,0.418,0.567,0.418,1.008
		v0.258h2.028v-0.146c0-1.04-0.313-1.838-0.942-2.396c-0.627-0.559-1.52-0.838-2.68-0.838c-0.761,0-1.424,0.123-1.986,0.371
		c-0.563,0.246-0.998,0.591-1.304,1.038c-0.306,0.444-0.458,0.957-0.458,1.535c0,0.536,0.096,0.985,0.29,1.345
		c0.192,0.36,0.509,0.666,0.948,0.916c0.441,0.253,1.059,0.493,1.852,0.718l0.658,0.192c0.496,0.139,0.868,0.268,1.119,0.388
		c0.253,0.118,0.43,0.249,0.531,0.392c0.104,0.146,0.153,0.336,0.153,0.572c0,0.664-0.558,0.998-1.675,0.998
		c-1.232,0-1.849-0.455-1.849-1.367v-0.257h-2.028v0.368c0,0.955,0.336,1.699,1.006,2.229c0.672,0.532,1.611,0.799,2.823,0.799
		c1.182,0,2.11-0.271,2.794-0.814c0.68-0.54,1.02-1.283,1.02-2.229c0-0.664-0.218-1.221-0.658-1.666
		C195.292,218.878,194.612,218.516,193.69,218.238z"/>
	<rect x="181.651" y="98.131" fill="none" width="2.014" height="10.041"/>
	<polygon fill="none" points="148.034,108.172 154.81,108.172 154.81,106.371 150.045,106.371 150.045,104.005 154.455,104.005 
		154.455,102.202 150.045,102.202 150.045,99.95 154.81,99.95 154.81,98.131 148.034,98.131 	"/>
	<path fill="none" d="M148.421,213.892h-3.637v10.043h2.01v-3.478h1.786c1.01,0,1.807-0.109,2.398-0.33
		c0.591-0.22,1.014-0.564,1.271-1.037c0.257-0.471,0.386-1.105,0.386-1.899c0-1.147-0.325-1.984-0.973-2.51
		C151.014,214.156,149.932,213.892,148.421,213.892z M150.44,218.043c-0.113,0.216-0.32,0.373-0.619,0.476
		c-0.301,0.103-0.734,0.152-1.304,0.152h-1.723v-2.976h1.595c0.579,0,1.028,0.047,1.352,0.143c0.32,0.097,0.547,0.252,0.676,0.461
		c0.129,0.207,0.191,0.494,0.191,0.859C150.608,217.536,150.553,217.83,150.44,218.043z"/>
	<polygon fill="none" points="147.841,185.319 154.616,185.319 154.616,183.516 149.852,183.516 149.852,181.15 154.262,181.15 
		154.262,179.349 149.852,179.349 149.852,177.096 154.616,177.096 154.616,175.278 147.841,175.278 	"/>
	<path fill="none" d="M162.084,175.18c-1.342,0-2.359,0.297-3.051,0.885c-0.691,0.592-1.038,1.459-1.038,2.608v3.251
		c0,1.146,0.347,2.017,1.038,2.605c0.691,0.591,1.709,0.885,3.051,0.885c1.318,0,2.313-0.281,2.984-0.844
		c0.67-0.563,1.006-1.43,1.006-2.599v-0.467h-2.014v0.435c0,0.568-0.141,0.979-0.425,1.231c-0.286,0.251-0.798,0.378-1.537,0.378
		c-0.761,0-1.302-0.141-1.618-0.42c-0.316-0.278-0.475-0.676-0.475-1.189v-3.282c0-0.527,0.15-0.927,0.451-1.199
		c0.301-0.274,0.848-0.409,1.642-0.409c0.75,0,1.267,0.121,1.544,0.367c0.279,0.247,0.418,0.645,0.418,1.191v0.499h2.014v-0.499
		C166.075,176.323,164.745,175.18,162.084,175.18z"/>
	<path fill="none" d="M163.194,219.204c0.354-0.484,0.529-1.149,0.529-1.995c0-1.138-0.344-1.976-1.037-2.512
		c-0.691-0.536-1.811-0.805-3.354-0.805h-3.479v10.043h2.013v-3.46h1.466l2.076,3.46h2.314l-2.285-3.687
		C162.254,220.034,162.838,219.686,163.194,219.204z M161.487,218.061c-0.129,0.214-0.348,0.373-0.658,0.473
		c-0.313,0.104-0.762,0.155-1.353,0.155h-1.608h-0.001h0.001v-2.993h1.527c0.871,0,1.468,0.11,1.795,0.338
		c0.327,0.225,0.49,0.6,0.49,1.125C161.68,217.546,161.618,217.845,161.487,218.061z"/>
	
		<line fill="none" stroke="#000000" stroke-width="0" stroke-linecap="round" stroke-linejoin="round" x1="157.868" y1="218.689" x2="157.867" y2="218.689"/>
	<path d="M95.255,208.364c-5.822,0-10.547,4.729-10.547,10.55s4.725,10.547,10.547,10.547s10.549-4.726,10.549-10.547
		S101.077,208.364,95.255,208.364z"/>
	<path d="M95.255,92.604c-5.822,0-10.547,4.727-10.547,10.549c0,5.82,4.725,10.547,10.547,10.547s10.549-4.727,10.549-10.547
		C105.804,97.331,101.077,92.604,95.255,92.604z M103.32,98.681c-1.396,1.396-9.389,9.389-10.811,10.811
		c-0.057,0.057-0.135,0.089-0.216,0.089s-0.159-0.033-0.216-0.089c-0.861-0.861-4.041-4.043-4.887-4.889
		c-0.115-0.114-0.115-0.301,0-0.415c0.36-0.36,1.097-1.097,1.457-1.457c0.116-0.115,0.301-0.115,0.417,0
		c0.613,0.613,2.41,2.41,3.022,3.022c0.115,0.115,0.301,0.115,0.417,0c1.243-1.245,7.699-7.702,8.944-8.944
		c0.116-0.116,0.301-0.116,0.417,0c0.36,0.359,1.097,1.097,1.457,1.457C103.434,98.38,103.434,98.567,103.32,98.681z"/>
	<path d="M95.255,130.864c-5.822,0-10.547,4.728-10.547,10.547c0,5.822,4.725,10.549,10.547,10.549s10.549-4.728,10.549-10.549
		C105.804,135.592,101.077,130.864,95.255,130.864z M103.32,136.941c-1.396,1.396-9.389,9.389-10.811,10.811
		c-0.057,0.057-0.135,0.089-0.216,0.089s-0.159-0.032-0.216-0.089c-0.861-0.862-4.041-4.043-4.887-4.89
		c-0.115-0.113-0.115-0.301,0-0.414c0.36-0.361,1.097-1.096,1.457-1.458c0.116-0.113,0.301-0.113,0.417,0
		c0.613,0.615,2.41,2.412,3.022,3.025c0.115,0.115,0.301,0.115,0.417,0c1.243-1.246,7.699-7.702,8.944-8.947
		c0.116-0.113,0.301-0.113,0.417,0c0.36,0.362,1.097,1.097,1.457,1.458C103.434,136.64,103.434,136.828,103.32,136.941z"/>
	<path d="M95.255,169.75c-5.822,0-10.547,4.725-10.547,10.547s4.725,10.549,10.547,10.549s10.549-4.727,10.549-10.549
		S101.077,169.75,95.255,169.75z"/>
	<path d="M214.945,27.478H68.516c-5.77,0-10.447,4.677-10.447,10.447v207.613c0,5.77,4.677,10.445,10.447,10.445h146.429
		c5.77,0,10.446-4.676,10.446-10.445V37.924C225.391,32.155,220.714,27.478,214.945,27.478z M188.941,66.271h2.028v0.257
		c0,0.911,0.616,1.367,1.851,1.367c1.116,0,1.675-0.332,1.675-0.999c0-0.235-0.053-0.425-0.155-0.571
		c-0.101-0.144-0.276-0.274-0.53-0.393c-0.252-0.118-0.625-0.246-1.118-0.386l-0.661-0.194c-0.793-0.225-1.41-0.464-1.849-0.715
		c-0.44-0.253-0.757-0.558-0.95-0.918c-0.192-0.36-0.29-0.807-0.29-1.343c0-0.58,0.152-1.092,0.46-1.537
		c0.305-0.445,0.739-0.792,1.302-1.038c0.564-0.246,1.228-0.371,1.988-0.371c1.158,0,2.052,0.279,2.681,0.837
		c0.627,0.558,0.941,1.356,0.941,2.396v0.146h-2.027v-0.257c0-0.44-0.141-0.776-0.42-1.005c-0.278-0.231-0.664-0.347-1.159-0.347
		c-0.548,0-0.964,0.094-1.254,0.281s-0.437,0.447-0.437,0.781c0,0.225,0.057,0.408,0.17,0.547s0.306,0.266,0.58,0.377l2.115,0.685
		c0.922,0.279,1.605,0.641,2.043,1.085c0.441,0.445,0.661,1.001,0.661,1.666c0,0.944-0.341,1.688-1.022,2.229
		c-0.681,0.543-1.611,0.813-2.791,0.813c-1.213,0-2.154-0.266-2.824-0.796c-0.672-0.532-1.007-1.276-1.007-2.231V66.271z
		 M178.594,108.172h-2.383l-3.249-4.152l-0.822,0.885v3.267h-2.011V98.131h2.011v4.328l3.993-4.328h2.285l-4.154,4.489
		L178.594,108.172z M167.651,59.526h6.774v1.818h-4.763v2.254h4.41V65.4h-4.41v2.366h4.763v1.803h-6.774V59.526z M167.555,136.71
		h6.774v1.819h-4.765v2.252h4.411v1.803h-4.411v2.363h4.765v1.804h-6.774V136.71z M156.048,59.526h3.476
		c1.546,0,2.664,0.268,3.355,0.804c0.691,0.537,1.038,1.374,1.038,2.512c0,0.846-0.177,1.511-0.532,1.995
		c-0.354,0.482-0.938,0.831-1.753,1.046l2.285,3.685H161.6l-2.076-3.46h-1.465v3.46h-2.011V59.526z M155.953,136.71h3.476
		c1.543,0,2.662,0.269,3.355,0.805c0.691,0.537,1.038,1.374,1.038,2.51c0,0.848-0.179,1.513-0.532,1.995
		c-0.354,0.484-0.938,0.833-1.753,1.046l2.285,3.686h-2.317l-2.076-3.461h-1.465v3.461h-2.011V136.71z M144.976,59.526h3.638
		c1.513,0,2.594,0.264,3.242,0.789c0.649,0.525,0.975,1.363,0.975,2.51c0,0.794-0.129,1.428-0.387,1.899
		c-0.257,0.473-0.682,0.817-1.271,1.038s-1.391,0.329-2.398,0.329h-1.785v3.478h-2.013V59.526z M144.88,136.71h3.637
		c1.513,0,2.593,0.262,3.242,0.788c0.649,0.525,0.975,1.362,0.975,2.512c0,0.793-0.128,1.426-0.388,1.899
		c-0.258,0.471-0.681,0.818-1.271,1.039c-0.589,0.218-1.389,0.328-2.396,0.328h-1.787v3.477h-2.011V136.71z M133.149,59.526h2.187
		l2.093,3.364l2.108-3.364h2.058l-3.12,5.037l3.12,5.006h-2.187l-2.093-3.364l-2.108,3.364h-2.058l3.12-5.037L133.149,59.526z
		 M133.051,136.71h2.189l2.093,3.362l2.106-3.362h2.061l-3.123,5.037l3.123,5.004h-2.189l-2.091-3.362l-2.108,3.362h-2.061
		l3.122-5.037L133.051,136.71z M123.477,59.526h6.775v1.818h-4.762v2.254h4.409V65.4h-4.409v2.366h4.762v1.803h-6.775V59.526z
		 M123.381,136.71h6.774v1.819h-4.764v2.252h4.411v1.803h-4.411v2.363h4.764v1.804h-6.774V136.71z M95.255,233.614
		c-8.113,0-14.701-6.587-14.701-14.7c0-8.114,6.587-14.7,14.701-14.7c8.114,0,14.701,6.586,14.701,14.7
		C109.956,227.027,103.369,233.614,95.255,233.614z M95.255,194.999c-8.113,0-14.701-6.588-14.701-14.701
		s6.587-14.701,14.701-14.701c8.114,0,14.701,6.588,14.701,14.701S103.369,194.999,95.255,194.999z M95.255,156.112
		c-8.113,0-14.701-6.587-14.701-14.701c0-8.113,6.587-14.701,14.701-14.701c8.114,0,14.701,6.587,14.701,14.701
		C109.956,149.525,103.369,156.112,95.255,156.112z M95.255,117.854c-8.113,0-14.701-6.587-14.701-14.701
		c0-8.116,6.587-14.703,14.701-14.703c8.114,0,14.701,6.587,14.701,14.703C109.956,111.266,103.369,117.854,95.255,117.854z
		 M95.255,79.249c-8.113,0-14.701-6.587-14.701-14.701c0-8.114,6.587-14.701,14.701-14.701c8.114,0,14.701,6.587,14.701,14.701
		C109.956,72.661,103.369,79.249,95.255,79.249z M130.06,215.71h-4.764v2.253h4.409v1.803h-4.409v2.365h4.764v1.804h-6.775v-10.043
		h6.775V215.71z M131.361,179.107h-2.01v-0.499c0-0.547-0.14-0.944-0.419-1.191c-0.279-0.246-0.793-0.367-1.543-0.367
		c-0.796,0-1.343,0.135-1.642,0.409c-0.301,0.272-0.451,0.672-0.451,1.199v3.282c0,0.514,0.159,0.911,0.475,1.189
		c0.316,0.279,0.855,0.42,1.618,0.42c0.739,0,1.251-0.127,1.535-0.378c0.286-0.253,0.428-0.663,0.428-1.231v-0.435h2.01v0.467
		c0,1.169-0.333,2.036-1.005,2.599c-0.669,0.563-1.666,0.844-2.985,0.844c-1.341,0-2.357-0.294-3.048-0.885
		c-0.693-0.589-1.038-1.459-1.038-2.605v-3.251c0-1.149,0.345-2.017,1.038-2.608c0.691-0.588,1.707-0.885,3.048-0.885
		c2.66,0,3.99,1.143,3.99,3.428V179.107z M131.555,101.96h-2.012v-0.497c0-0.547-0.138-0.944-0.417-1.192
		c-0.279-0.247-0.796-0.369-1.546-0.369c-0.793,0-1.341,0.135-1.642,0.41c-0.299,0.273-0.449,0.674-0.449,1.2v3.281
		c0,0.515,0.157,0.914,0.473,1.19c0.316,0.279,0.857,0.419,1.618,0.419c0.742,0,1.254-0.125,1.538-0.377
		c0.283-0.253,0.425-0.663,0.425-1.232v-0.434h2.012v0.466c0,1.169-0.335,2.037-1.005,2.599c-0.672,0.563-1.666,0.844-2.985,0.844
		c-1.341,0-2.359-0.294-3.05-0.883c-0.691-0.591-1.038-1.461-1.038-2.608v-3.251c0-1.147,0.347-2.017,1.038-2.608
		c0.691-0.589,1.709-0.883,3.05-0.883c2.66,0,3.99,1.143,3.99,3.428V101.96z M141.404,223.935h-2.189l-2.091-3.364l-2.108,3.364
		h-2.061l3.123-5.039l-3.123-5.004h2.189l2.091,3.364l2.108-3.364h2.061l-3.122,5.036L141.404,223.935z M143.657,185.319h-2.012
		v-4.169h-4.409v4.169h-2.01v-10.041h2.01v4.071h4.409v-4.071h2.012V185.319z M143.851,108.172h-2.013v-4.167h-4.409v4.167h-2.013
		V98.131h2.013v4.071h4.409v-4.071h2.013V108.172z M152.25,219.09c-0.258,0.473-0.681,0.817-1.271,1.037
		c-0.592,0.221-1.389,0.33-2.398,0.33h-1.786v3.478h-2.01v-10.043h3.637c1.511,0,2.593,0.264,3.242,0.789
		c0.647,0.525,0.973,1.362,0.973,2.51C152.636,217.985,152.507,218.62,152.25,219.09z M154.616,177.096h-4.764v2.253h4.41v1.801
		h-4.41v2.366h4.764v1.803h-6.774v-10.041h6.774V177.096z M154.81,99.95h-4.765v2.252h4.409v1.803h-4.409v2.366h4.765v1.801h-6.776
		V98.131h6.776V99.95z M163.723,223.935h-2.314l-2.076-3.46h-1.466v3.46h-2.013v-10.043h3.479c1.543,0,2.662,0.269,3.354,0.805
		c0.693,0.536,1.037,1.374,1.037,2.512c0,0.846-0.176,1.511-0.529,1.995c-0.355,0.482-0.939,0.83-1.756,1.045L163.723,223.935z
		 M166.075,179.107h-2.014v-0.499c0-0.547-0.139-0.944-0.418-1.191c-0.277-0.246-0.794-0.367-1.544-0.367
		c-0.794,0-1.341,0.135-1.642,0.409c-0.301,0.272-0.451,0.672-0.451,1.199v3.282c0,0.514,0.158,0.911,0.475,1.189
		c0.316,0.279,0.857,0.42,1.618,0.42c0.739,0,1.251-0.127,1.537-0.378c0.284-0.253,0.425-0.663,0.425-1.231v-0.435h2.014v0.467
		c0,1.169-0.336,2.036-1.006,2.599c-0.672,0.563-1.666,0.844-2.984,0.844c-1.342,0-2.359-0.294-3.051-0.885
		c-0.691-0.589-1.038-1.459-1.038-2.605v-3.251c0-1.149,0.347-2.017,1.038-2.608c0.691-0.588,1.709-0.885,3.051-0.885
		c2.66,0,3.99,1.143,3.99,3.428V179.107z M166.266,101.96h-2.01v-0.497c0-0.547-0.141-0.944-0.42-1.192
		c-0.278-0.247-0.793-0.369-1.545-0.369c-0.794,0-1.342,0.135-1.641,0.41c-0.301,0.273-0.451,0.674-0.451,1.2v3.281
		c0,0.515,0.16,0.914,0.476,1.19c0.316,0.279,0.854,0.419,1.616,0.419c0.74,0,1.254-0.125,1.537-0.377
		c0.285-0.253,0.428-0.663,0.428-1.232v-0.434h2.01v0.466c0,1.169-0.334,2.037-1.006,2.599c-0.669,0.563-1.665,0.844-2.984,0.844
		c-1.341,0-2.357-0.294-3.049-0.883c-0.693-0.591-1.039-1.461-1.039-2.608v-3.251c0-1.147,0.346-2.017,1.039-2.608
		c0.691-0.589,1.708-0.883,3.049-0.883c2.66,0,3.99,1.143,3.99,3.428V101.96z M174.233,215.71h-4.764v2.253h4.408v1.803h-4.408
		v2.365h4.764v1.804h-6.773v-10.043h6.773V215.71z M172.768,181.167l-0.82,0.886v3.266h-2.012v-10.041h2.012v4.328l3.99-4.328h2.285
		l-4.15,4.49l4.328,5.551h-2.382L172.768,181.167z M184.25,223.217c-0.68,0.543-1.611,0.814-2.793,0.814
		c-1.211,0-2.152-0.267-2.824-0.799c-0.669-0.529-1.005-1.273-1.005-2.229v-0.368h2.028v0.257c0,0.912,0.617,1.367,1.851,1.367
		c1.114,0,1.673-0.334,1.673-0.998c0-0.236-0.051-0.426-0.152-0.572c-0.104-0.143-0.279-0.273-0.53-0.392
		c-0.253-0.12-0.626-0.249-1.118-0.388l-0.661-0.192c-0.794-0.225-1.411-0.465-1.851-0.718c-0.439-0.25-0.758-0.556-0.949-0.916
		c-0.193-0.359-0.29-0.809-0.29-1.345c0-0.578,0.153-1.091,0.458-1.535c0.307-0.447,0.741-0.792,1.304-1.038
		c0.563-0.248,1.226-0.371,1.989-0.371c1.157,0,2.051,0.279,2.678,0.838s0.941,1.356,0.941,2.396v0.146h-2.027v-0.258
		c0-0.44-0.141-0.776-0.42-1.008c-0.278-0.229-0.664-0.344-1.157-0.344c-0.548,0-0.966,0.094-1.256,0.281s-0.435,0.447-0.435,0.78
		c0,0.225,0.057,0.407,0.171,0.548c0.11,0.139,0.306,0.266,0.577,0.377l2.117,0.685c0.923,0.278,1.604,0.641,2.043,1.085
		c0.441,0.445,0.661,1.002,0.661,1.666C185.273,221.934,184.93,222.677,184.25,223.217z M181.458,185.319v-10.041h2.012v10.041
		H181.458z M184.346,146.037c-0.68,0.54-1.611,0.811-2.791,0.811c-1.212,0-2.154-0.264-2.823-0.796
		c-0.672-0.532-1.007-1.273-1.007-2.229v-0.37h2.027v0.257c0,0.911,0.617,1.369,1.852,1.369c1.115,0,1.672-0.333,1.672-0.999
		c0-0.234-0.051-0.427-0.152-0.57c-0.101-0.145-0.279-0.277-0.53-0.395c-0.253-0.118-0.626-0.247-1.118-0.387l-0.661-0.193
		c-0.794-0.225-1.411-0.463-1.849-0.716c-0.441-0.253-0.757-0.558-0.951-0.918c-0.191-0.36-0.289-0.807-0.289-1.343
		c0-0.58,0.152-1.093,0.459-1.538c0.306-0.445,0.74-0.792,1.303-1.038c0.564-0.247,1.227-0.371,1.988-0.371
		c1.158,0,2.051,0.279,2.68,0.837c0.628,0.558,0.939,1.358,0.939,2.398v0.144h-2.025v-0.257c0-0.438-0.14-0.774-0.419-1.005
		c-0.278-0.231-0.665-0.347-1.159-0.347c-0.548,0-0.967,0.094-1.254,0.282c-0.291,0.189-0.437,0.449-0.437,0.78
		c0,0.227,0.057,0.408,0.17,0.547c0.111,0.14,0.306,0.266,0.578,0.379l2.117,0.683c0.923,0.279,1.604,0.641,2.043,1.088
		c0.44,0.445,0.661,0.999,0.661,1.664C185.37,144.75,185.029,145.494,184.346,146.037z M181.651,108.172V98.131h2.014v10.041
		H181.651z M184.444,68.852c-0.682,0.543-1.613,0.813-2.793,0.813c-1.212,0-2.154-0.266-2.823-0.796
		c-0.671-0.532-1.005-1.276-1.005-2.231v-0.368h2.025v0.257c0,0.911,0.617,1.367,1.852,1.367c1.116,0,1.674-0.332,1.674-0.999
		c0-0.235-0.052-0.425-0.152-0.571c-0.103-0.144-0.279-0.274-0.531-0.393c-0.254-0.118-0.627-0.246-1.119-0.386l-0.658-0.194
		c-0.797-0.225-1.411-0.464-1.852-0.715c-0.44-0.253-0.757-0.558-0.951-0.918c-0.191-0.36-0.287-0.807-0.287-1.343
		c0-0.58,0.152-1.092,0.457-1.537c0.306-0.445,0.74-0.792,1.305-1.038c0.563-0.246,1.225-0.371,1.986-0.371
		c1.16,0,2.052,0.279,2.68,0.837s0.941,1.356,0.941,2.396v0.146h-2.027v-0.257c0-0.44-0.14-0.776-0.418-1.005
		c-0.279-0.231-0.666-0.347-1.158-0.347c-0.547,0-0.967,0.094-1.256,0.281c-0.291,0.188-0.434,0.447-0.434,0.781
		c0,0.225,0.054,0.408,0.168,0.547c0.113,0.14,0.305,0.266,0.579,0.377l2.115,0.685c0.923,0.279,1.604,0.641,2.046,1.085
		c0.438,0.445,0.658,1.001,0.658,1.666C185.465,67.568,185.125,68.311,184.444,68.852z M195.372,223.217
		c-0.684,0.543-1.612,0.814-2.794,0.814c-1.212,0-2.151-0.267-2.823-0.799c-0.67-0.529-1.006-1.273-1.006-2.229v-0.368h2.028v0.257
		c0,0.912,0.616,1.367,1.849,1.367c1.117,0,1.675-0.334,1.675-0.998c0-0.236-0.05-0.426-0.153-0.572
		c-0.102-0.143-0.278-0.273-0.531-0.392c-0.251-0.12-0.623-0.249-1.119-0.388l-0.658-0.192c-0.793-0.225-1.41-0.465-1.852-0.718
		c-0.439-0.25-0.756-0.556-0.948-0.916c-0.194-0.359-0.29-0.809-0.29-1.345c0-0.578,0.152-1.091,0.458-1.535
		c0.306-0.447,0.741-0.792,1.304-1.038c0.563-0.248,1.226-0.371,1.986-0.371c1.16,0,2.053,0.279,2.68,0.838
		c0.629,0.559,0.942,1.356,0.942,2.396v0.146h-2.028v-0.258c0-0.44-0.139-0.776-0.418-1.008c-0.279-0.229-0.665-0.344-1.158-0.344
		c-0.547,0-0.966,0.094-1.256,0.281s-0.434,0.447-0.434,0.78c0,0.225,0.057,0.407,0.168,0.548c0.113,0.139,0.307,0.266,0.58,0.377
		l2.117,0.685c0.922,0.278,1.603,0.641,2.043,1.085c0.44,0.445,0.658,1.002,0.658,1.666
		C196.391,221.934,196.051,222.677,195.372,223.217z M196.489,185.319h-1.803l-5.133-6.661v6.661h-1.898v-10.041h1.803l5.133,6.775
		v-6.775h1.898V185.319z M195.467,146.037c-0.681,0.54-1.611,0.811-2.791,0.811c-1.213,0-2.154-0.264-2.826-0.796
		c-0.67-0.532-1.006-1.273-1.006-2.229v-0.37h2.028v0.257c0,0.911,0.617,1.369,1.851,1.369c1.115,0,1.673-0.333,1.673-0.999
		c0-0.234-0.05-0.427-0.152-0.57c-0.103-0.145-0.279-0.277-0.53-0.395c-0.252-0.118-0.625-0.247-1.118-0.387l-0.661-0.193
		c-0.793-0.225-1.41-0.463-1.852-0.716c-0.438-0.253-0.756-0.558-0.947-0.918c-0.194-0.36-0.291-0.807-0.291-1.343
		c0-0.58,0.153-1.093,0.459-1.538c0.307-0.445,0.74-0.792,1.303-1.038c0.565-0.247,1.227-0.371,1.989-0.371
		c1.157,0,2.052,0.279,2.68,0.837c0.626,0.558,0.94,1.358,0.94,2.398v0.144h-2.028v-0.257c0-0.438-0.14-0.774-0.419-1.005
		c-0.277-0.231-0.665-0.347-1.158-0.347c-0.547,0-0.965,0.094-1.256,0.282c-0.287,0.189-0.434,0.449-0.434,0.78
		c0,0.227,0.057,0.408,0.17,0.547c0.111,0.14,0.306,0.266,0.578,0.379l2.117,0.683c0.922,0.279,1.603,0.641,2.043,1.088
		c0.44,0.445,0.66,0.999,0.66,1.664C196.489,144.75,196.149,145.494,195.467,146.037z M196.681,108.172h-1.801l-5.136-6.662v6.662
		h-1.898V98.131h1.803l5.133,6.774v-6.774h1.899V108.172z"/>
	<path d="M95.255,53.999c-5.822,0-10.547,4.728-10.547,10.549s4.725,10.547,10.547,10.547s10.549-4.725,10.549-10.547
		S101.077,53.999,95.255,53.999z M103.32,60.078c-1.396,1.396-9.389,9.387-10.811,10.809c-0.057,0.059-0.135,0.089-0.216,0.089
		s-0.159-0.03-0.216-0.089c-0.861-0.861-4.041-4.04-4.887-4.886c-0.115-0.116-0.115-0.301,0-0.417
		c0.36-0.36,1.097-1.097,1.457-1.457c0.116-0.116,0.301-0.116,0.417,0c0.613,0.613,2.41,2.41,3.022,3.022
		c0.115,0.116,0.301,0.116,0.417,0c1.243-1.243,7.699-7.699,8.944-8.944c0.116-0.115,0.301-0.115,0.417,0
		c0.36,0.36,1.097,1.097,1.457,1.457C103.434,59.777,103.434,59.962,103.32,60.078z"/>
	<path d="M149.741,215.838c-0.323-0.096-0.772-0.143-1.352-0.143h-1.595v2.976h1.723c0.569,0,1.003-0.05,1.304-0.152
		c0.299-0.103,0.506-0.26,0.619-0.476c0.113-0.214,0.168-0.508,0.168-0.885c0-0.365-0.063-0.652-0.191-0.859
		C150.288,216.09,150.061,215.935,149.741,215.838z"/>
	<path d="M161.19,216.034c-0.327-0.228-0.924-0.338-1.795-0.338h-1.527v2.993h1.608c0.591,0,1.04-0.052,1.353-0.155
		c0.311-0.1,0.529-0.259,0.658-0.473c0.131-0.216,0.193-0.515,0.193-0.902C161.68,216.633,161.517,216.258,161.19,216.034z"/>
	<path d="M160.924,141.353c0.312-0.103,0.531-0.26,0.66-0.476c0.129-0.213,0.191-0.515,0.191-0.9c0-0.525-0.163-0.9-0.49-1.127
		c-0.326-0.225-0.924-0.338-1.795-0.338h-1.527v2.994h1.609C160.163,141.505,160.612,141.455,160.924,141.353z"/>
	<path d="M161.02,64.17c0.312-0.103,0.531-0.262,0.66-0.475c0.129-0.216,0.194-0.515,0.194-0.9c0-0.528-0.163-0.903-0.493-1.127
		c-0.326-0.225-0.924-0.338-1.792-0.338h-1.53v2.994h1.609C160.258,64.323,160.71,64.271,161.02,64.17z"/>
	<path d="M149.917,141.337c0.301-0.102,0.506-0.261,0.619-0.475c0.113-0.216,0.17-0.51,0.17-0.885c0-0.364-0.064-0.652-0.193-0.861
		s-0.354-0.362-0.676-0.458c-0.322-0.098-0.771-0.146-1.352-0.146h-1.594v2.979h1.723
		C149.182,141.49,149.616,141.438,149.917,141.337z"/>
	<path d="M150.012,64.153c0.302-0.103,0.509-0.26,0.62-0.476c0.113-0.213,0.17-0.508,0.17-0.883c0-0.367-0.065-0.652-0.194-0.861
		c-0.129-0.209-0.354-0.362-0.676-0.46c-0.32-0.096-0.771-0.144-1.352-0.144h-1.592v2.976h1.721
		C149.278,64.306,149.714,64.255,150.012,64.153z"/>
	<path fill="#FFFFFF" d="M101.447,135.068c-1.245,1.245-7.701,7.701-8.944,8.947c-0.116,0.115-0.301,0.115-0.417,0
		c-0.613-0.613-2.41-2.41-3.022-3.025c-0.115-0.113-0.301-0.113-0.417,0c-0.359,0.362-1.097,1.097-1.457,1.458
		c-0.115,0.113-0.115,0.301,0,0.414c0.846,0.847,4.025,4.027,4.887,4.89c0.057,0.057,0.135,0.089,0.216,0.089
		s0.159-0.032,0.216-0.089c1.422-1.422,9.415-9.416,10.811-10.811c0.114-0.114,0.114-0.301,0-0.415
		c-0.359-0.362-1.097-1.097-1.457-1.458C101.749,134.955,101.563,134.955,101.447,135.068z"/>
	<path fill="#FFFFFF" d="M101.864,96.81c-0.115-0.116-0.301-0.116-0.417,0c-1.245,1.243-7.701,7.699-8.944,8.944
		c-0.116,0.115-0.301,0.115-0.417,0c-0.613-0.613-2.41-2.41-3.022-3.022c-0.115-0.115-0.301-0.115-0.417,0
		c-0.359,0.36-1.097,1.097-1.457,1.457c-0.115,0.113-0.115,0.301,0,0.415c0.846,0.846,4.025,4.027,4.887,4.889
		c0.057,0.057,0.135,0.089,0.216,0.089s0.159-0.033,0.216-0.089c1.422-1.422,9.415-9.416,10.811-10.811
		c0.114-0.113,0.114-0.301,0-0.414C102.961,97.907,102.224,97.169,101.864,96.81z"/>
	<path fill="#FFFFFF" d="M101.447,58.205c-1.245,1.245-7.701,7.702-8.944,8.944c-0.116,0.116-0.301,0.116-0.417,0
		c-0.613-0.612-2.41-2.409-3.022-3.022c-0.115-0.116-0.301-0.116-0.417,0c-0.359,0.36-1.097,1.097-1.457,1.457
		c-0.115,0.116-0.115,0.301,0,0.417c0.846,0.846,4.025,4.025,4.887,4.886c0.057,0.059,0.135,0.089,0.216,0.089
		s0.159-0.03,0.216-0.089c1.422-1.421,9.415-9.413,10.811-10.809c0.114-0.115,0.114-0.301,0-0.416
		c-0.359-0.36-1.097-1.097-1.457-1.457C101.749,58.089,101.563,58.089,101.447,58.205z"/>
</g>
</svg>
