<?xml version="1.0" encoding="utf-8"?>
<!-- Generator: Adobe Illustrator 15.1.0, SVG Export Plug-In . SVG Version: 6.00 Build 0)  -->
<!DOCTYPE svg PUBLIC "-//W3C//DTD SVG 1.0//EN" "http://www.w3.org/TR/2001/REC-SVG-20010904/DTD/svg10.dtd">
<svg version="1.0" id="Layer_3" xmlns="http://www.w3.org/2000/svg" xmlns:xlink="http://www.w3.org/1999/xlink" x="0px" y="0px"
	 width="283.46px" height="283.46px" viewBox="0 0 283.46 283.46" enable-background="new 0 0 283.46 283.46" xml:space="preserve">
<g>
	<path d="M241.42,45.371c-3.498-3.499-8.332-5.665-13.674-5.665H55.714c-5.341,0-10.176,2.166-13.677,5.665
		c-3.499,3.501-5.663,8.336-5.663,13.676v111.832c0,2.564,0.509,5.078,1.473,7.402c0.962,2.324,2.379,4.459,4.192,6.273
		c1.813,1.813,3.948,3.229,6.272,4.189c2.325,0.965,4.837,1.473,7.402,1.473h111.784c1.938,10.854,6.164,20.119,12.178,28.122
		c7.408,9.86,17.618,17.805,29.875,24.278c4.047,2.14,9.037,1.195,12.023-2.272c2.988-3.471,3.182-8.543,0.467-12.229
		c-6.64-9.016-12.638-18.045-15.486-27.489c-1.026-3.411-1.617-6.876-1.59-10.406l22.781-0.003c5.342,0,10.176-2.163,13.674-5.662
		c3.502-3.501,5.665-8.336,5.665-13.677V59.048C247.085,53.707,244.922,48.873,241.42,45.371z M208.723,130.344
		c-0.455,1.781-1.333,3.607-2.695,5.303c-0.194,0.242-0.398,0.48-0.612,0.717c1.261,2.832,1.47,5.899,0.737,8.757
		c-0.141,0.547-0.32,1.099-0.54,1.647c-0.66,1.648-1.688,3.284-3.146,4.767c0.934,2.558,0.947,5.213,0.398,7.66
		c-0.14,0.626-0.337,1.238-0.565,1.84c-1.983,5.219-7.132,9.349-12.571,9.787c-0.17,0.015-0.342,0.023-0.514,0.023h-56.944
		c-1.32,0-2.615-0.37-3.735-1.068l-4.966-3.092l-3.039-0.033c-0.648,3.238-3.511,5.681-6.938,5.681H78.976
		c-3.909,0-7.077-3.171-7.077-7.079v-0.002v-52.55v-0.002c0-3.906,3.168-7.076,7.077-7.076h34.617c3.156,0,5.832,2.068,6.743,4.925
		c0.719-0.285,1.705-0.724,2.713-1.315c0.85-0.498,1.771-1.088,2.366-1.899c1.47-2,5.664-7.937,9.615-13.951
		c2.716-4.138,5.347-8.291,6.71-11.054c0.194-0.395,0.363-0.761,0.503-1.094l0.24-18.222c0.1-0.913,0.404-2.15,1.303-3.443
		c0.128-0.186,0.269-0.372,0.423-0.559c0.807-0.973,2.77-2.654,5.704-3.633c3.353-1.118,8.103-1.481,12.921,1.186
		c2.367,1.311,4.855,4.357,6.483,8.633c1.862,4.889,3.009,11.615,3.472,15.44c0.367,3.039-0.834,11.11-2.076,17.618
		c10.027-0.209,25.197-0.368,29.984,0.299c3.393,0.475,6.395,1.857,8.471,4.694c1.324,1.81,2.414,4.386,2.396,8.309
		c-0.015,2.502-0.543,4.753-1.489,6.753c-0.566,1.199-1.282,2.307-2.128,3.324C209.258,124.424,209.453,127.479,208.723,130.344z"/>
	<rect x="78.976" y="109.31" width="34.616" height="55.943"/>
	<path d="M204.485,111.523c0.005-0.855-0.071-1.588-0.214-2.214c-0.619-2.721-2.502-3.459-4.55-3.743
		c-7.122-0.993-38.018-0.001-38-0.004h-0.002c0.375-0.02,4.118-16.884,4.101-23.002c-0.001-0.408-0.019-0.769-0.056-1.072
		c-0.027-0.225-0.061-0.475-0.092-0.72c-0.485-3.71-1.544-9.691-3.271-13.813c-0.838-1.998-1.832-3.555-2.992-4.198
		c-4.965-2.748-9.801,0.238-9.892,1.043c-0.001,0.007-0.002,0.028-0.002,0.063c-0.02,0.918-0.009,11.334-0.145,16.472
		c-0.02,0.739-0.042,1.371-0.068,1.848c-0.215,3.912-15.096,25.139-18.185,29.342c-3.086,4.201-9.889,6.211-9.889,6.211v0.002
		v41.871h4.363l6.683,4.158c0,0,52.043,0.039,56.885,0c3.67-0.296,7.028-3.887,6.959-7.67c-0.041-2.271-1.317-4.61-4.5-6.351
		c-0.001,0-0.001-0.001-0.002-0.001c5.473-1.55,7.99-4.859,7.863-8.115c-0.099-2.533-1.798-5.033-4.95-6.648h-0.001
		c5.112-1.623,7.623-4.88,7.51-8.017c-0.089-2.44-1.765-4.808-5.039-6.278H197C201.403,119.184,204.459,116.093,204.485,111.523z"/>
</g>
</svg>
