<?xml version="1.0" encoding="utf-8"?>
<!-- Generator: Adobe Illustrator 15.1.0, SVG Export Plug-In . SVG Version: 6.00 Build 0)  -->
<!DOCTYPE svg PUBLIC "-//W3C//DTD SVG 1.1//EN" "http://www.w3.org/Graphics/SVG/1.1/DTD/svg11.dtd">
<svg version="1.1" id="Layer_1" xmlns:serif="http://www.serif.com/"
	 xmlns="http://www.w3.org/2000/svg" xmlns:xlink="http://www.w3.org/1999/xlink" x="0px" y="0px" width="283.46px"
	 height="283.46px" viewBox="0 0 283.46 283.46" enable-background="new 0 0 283.46 283.46" xml:space="preserve">
<path d="M99.882,97.377c-0.053-0.048-0.105-0.098-0.155-0.146c-2.078-2.015-3.271-4.771-3.317-7.667
	c-0.192-12.261-0.501-32.05-0.695-44.311c-0.043-2.896,1.062-5.689,3.077-7.767c2.013-2.078,4.771-3.271,7.664-3.316
	c0.43-0.006,0.861-0.013,1.293-0.02c2.894-0.046,5.687,1.06,7.765,3.074c2.078,2.015,3.271,4.771,3.317,7.667l0.554,35.297
	l30.598,7.242c0.225,0.052,0.447,0.113,0.667,0.181c0.624,0.159,1.241,0.366,1.85,0.624l12.557,5.318
	c-10.684-4.524-15.684-16.873-11.159-27.557c4.524-10.685,16.872-15.684,27.557-11.16s15.685,16.873,11.159,27.557
	c-4.523,10.684-16.872,15.684-27.557,11.16l14.221,6.022c2.541,1.075,4.554,2.874,5.903,5.054c0.946,1.398,1.565,3.009,1.788,4.714
	l3.623,27.857l13.262-1.638c2.875-0.355,5.77,0.445,8.051,2.227c2.283,1.779,3.764,4.394,4.119,7.266
	c0.053,0.427,0.104,0.854,0.158,1.282c0.354,2.871-0.446,5.767-2.226,8.05c-1.781,2.283-4.394,3.764-7.268,4.119l-22.686,2.802
	c-0.409,0.103-0.826,0.183-1.249,0.237c-0.428,0.057-0.855,0.111-1.282,0.168c-0.593,0.076-1.188,0.104-1.777,0.083
	c-2.546,0.087-5.056-0.722-7.082-2.3c-1.343-1.047-2.407-2.384-3.129-3.891l-1.611,3.803l12.017,31.711
	c0.312,0.824,0.521,1.676,0.625,2.535c0.254,1.498,0.195,3.047-0.191,4.545c-3.055,11.874-7.986,31.043-11.044,42.92
	c-0.722,2.802-2.526,5.205-5.019,6.676c-2.49,1.473-5.467,1.893-8.27,1.172c-0.416-0.107-0.834-0.215-1.251-0.32
	c-2.802-0.723-5.205-2.527-6.677-5.02s-1.893-5.467-1.171-8.27l10.126-39.353l-9.627-25.407c-3.508-0.414-7.206-1.421-10.935-2.836
	l-3.38,30.945c-0.314,2.875-1.757,5.51-4.014,7.322c-1.884,1.513-4.204,2.35-6.594,2.402l-41.331,10.575
	c-2.804,0.718-5.778,0.292-8.266-1.185c-2.49-1.476-4.293-3.879-5.011-6.683c-0.107-0.417-0.214-0.835-0.32-1.251
	c-0.718-2.805-0.29-5.779,1.184-8.27c1.477-2.489,3.879-4.291,6.683-5.008l35.64-9.119l4.472-40.936
	c0.007-2.558,0.604-5.331,1.88-8.349l13.371-31.569l-25.337-5.996C103.281,100.135,101.351,98.988,99.882,97.377L99.882,97.377z"/>
</svg>
