<?xml version="1.0" encoding="utf-8"?>
<!-- Generator: Adobe Illustrator 15.1.0, SVG Export Plug-In . SVG Version: 6.00 Build 0)  -->
<!DOCTYPE svg PUBLIC "-//W3C//DTD SVG 1.1//EN" "http://www.w3.org/Graphics/SVG/1.1/DTD/svg11.dtd">
<svg version="1.1" id="Layer_1" xmlns:serif="http://www.serif.com/"
	 xmlns="http://www.w3.org/2000/svg" xmlns:xlink="http://www.w3.org/1999/xlink" x="0px" y="0px" width="283.46px"
	 height="283.46px" viewBox="0 0 283.46 283.46" enable-background="new 0 0 283.46 283.46" xml:space="preserve">
<path d="M33.382,142.033l-10.676-1.907l24.358-32.684l11.533,39.096l-11.018-1.969c1.496,53.652,45.465,96.692,99.486,96.692
	c3.667,0,7.329-0.203,10.972-0.604c2.359-0.27,4.51,1.369,4.876,3.716c0.257,1.666,0.552,3.573,0.809,5.255
	c0.183,1.188-0.124,2.398-0.853,3.354c-0.729,0.957-1.813,1.576-3.007,1.717c-4.247,0.479-8.519,0.721-12.797,0.721
	C84.381,255.418,33.545,204.684,33.382,142.033L33.382,142.033z M202.854,240.77l3.552,10.248l-40.416-5.283l28.477-29.163
	l3.665,10.573c46.081-27.52,62.149-86.911,35.755-134.046c-1.797-3.208-3.768-6.312-5.906-9.302c-1.379-1.91-1.002-4.57,0.854-6.02
	c1.341-1.053,2.885-2.261,4.243-3.323c0.938-0.735,2.137-1.058,3.318-0.892c1.18,0.166,2.244,0.805,2.943,1.771
	c2.499,3.486,4.805,7.106,6.899,10.85C276.868,140.875,257.44,210.017,202.854,240.77z M146.818,58.103
	c46.156,0,83.63,37.473,83.63,83.626c0,46.156-37.474,83.63-83.63,83.63c-46.153,0-83.626-37.474-83.626-83.63
	C63.191,95.576,100.665,58.103,146.818,58.103L146.818,58.103z M170.757,212.612v-20.08h-26.91v-48.18h-21.304v68.26H170.757z
	 M170.757,139.12v-20.08h-26.91V70.86h-21.304v68.259H170.757z M202.597,42.556l6.9-8.366l16.52,37.266l-39.724-9.145l7.124-8.632
	C145.939,28.645,86.858,45.824,60.341,92.89c-1.76,3.122-3.347,6.334-4.76,9.626c-0.983,2.316-3.618,3.443-5.973,2.556
	c-1.43-0.532-3.026-1.132-4.47-1.675c-1.197-0.449-2.161-1.367-2.667-2.544c-0.506-1.175-0.513-2.505-0.013-3.685
	c1.648-3.837,3.495-7.588,5.547-11.227C78.777,31.326,147.933,11.942,202.597,42.556L202.597,42.556z"/>
</svg>
