<?xml version="1.0" encoding="utf-8"?>
<!-- Generator: Adobe Illustrator 15.1.0, SVG Export Plug-In . SVG Version: 6.00 Build 0)  -->
<!DOCTYPE svg PUBLIC "-//W3C//DTD SVG 1.1//EN" "http://www.w3.org/Graphics/SVG/1.1/DTD/svg11.dtd">
<svg version="1.1" id="Layer_2" xmlns="http://www.w3.org/2000/svg" xmlns:xlink="http://www.w3.org/1999/xlink" x="0px" y="0px"
	 width="283.46px" height="283.46px" viewBox="0 0 283.46 283.46" enable-background="new 0 0 283.46 283.46" xml:space="preserve">
<g>
	<path fill="none" d="M147.162,121.653c-2.059,0-3.313,0.381-3.885,1.222c-0.254,0.374-0.334,0.83-0.313,1.327
		c0.039,0.796,0.338,1.678,0.795,2.587c0.724,1.436,1.837,2.92,3.123,4.233c0.779-0.853,1.408-1.75,1.882-2.648
		C150.513,125.068,150.291,121.653,147.162,121.653z"/>
	<path fill="none" d="M162.919,123.091c-0.678-0.953-2.037-1.44-4.109-1.44c-0.794,0-1.413,0.091-1.875,0.286
		c-0.273,0.113-0.477,0.258-0.578,0.462c-0.223,0.429-0.084,0.98,0.156,1.597c0.584,1.501,1.979,3.229,3.674,4.755
		c0.357,0.328,0.732,0.644,1.117,0.944c1.021-1.315,1.703-2.671,1.971-3.928C163.496,124.746,163.427,123.808,162.919,123.091z"/>
	<path fill="none" d="M137.939,124.05c-0.354-1.091-1.141-1.833-2.399-1.833c-1.81,0-3.029,0.56-3.715,1.535
		c-1.149,1.637-0.841,4.175,0.231,6.445c0.612,1.3,1.499,2.53,2.585,3.469c1.658-1.631,2.744-3.656,3.238-5.584
		C138.263,126.597,138.301,125.17,137.939,124.05z"/>
	<path fill="none" d="M124.16,122.609c-0.248-0.299-0.715-0.381-1.382-0.393c-1.156-0.022-1.979,0.172-2.494,0.63
		c-0.566,0.506-0.655,1.297-0.53,2.193c0.172,1.232,0.771,2.628,1.64,3.996c0.263-0.345,0.515-0.688,0.753-1.032
		c1.014-1.46,1.779-2.864,2.065-4.034C124.348,123.409,124.423,122.93,124.16,122.609z"/>
	<path fill="none" d="M112.09,136.922c0.025,0.063,0.059,0.135,0.091,0.201c0.864-0.284,1.909-0.945,3.032-1.806l0.036-0.027
		c-2.502-4.544-4.202-7.625-4.202-7.631C111.131,130.915,111.383,135.031,112.09,136.922z"/>
	<path fill="none" d="M170.833,125.415l-3.787,7.19c1.203,0.208,2.279,0.034,2.963-0.903c1.219-1.662,1.738-2.968,1.804-4.012
		C171.886,126.564,171.351,125.842,170.833,125.415z"/>
	<path fill="none" d="M141.73,78.479c-28.681,0-52.014,23.332-52.014,52.011c0,28.691,23.333,52.034,52.014,52.034
		s52.014-23.343,52.014-52.034C193.744,101.811,170.411,78.479,141.73,78.479z M171.914,133.1c-1.266,1.725-3.218,2.233-5.459,1.798
		c-0.184-0.035-0.367-0.076-0.555-0.127l-19.691,37.372c-0.305,0.573-1.021,0.797-1.598,0.494c-0.574-0.306-0.799-1.022-0.492-1.599
		l19.549-37.098c-0.674-0.318-1.352-0.695-2.018-1.12c-1.623,1.636-3.676,3.129-6.066,4.236c-1.494,0.694-3.545,0.385-5.664-0.744
		c-1-0.533-2.027-1.242-3.013-2.067c-1.325,1.098-2.899,2.072-4.729,2.833c-2.697,1.12-5.249,0.765-7.39-0.44
		c-0.152,0.111-0.307,0.221-0.463,0.327c-2.281,1.541-4.985,1.387-7.59,0.146c-1.961-0.931-3.866-2.489-5.438-4.281
		c-0.975,1.08-2.011,2.114-3.041,3.027l19.4,35.162c0.315,0.569,0.106,1.289-0.465,1.604c-0.57,0.313-1.289,0.104-1.604-0.463
		c0,0-11.968-21.685-19.191-34.785c-1.562,1.161-3.031,1.945-4.151,2.17c-0.601,0.12-1.171-0.045-1.663-0.57
		c-0.462-0.492-0.893-1.547-1.17-2.962c-0.877-4.473-0.76-12.994-0.76-12.994c0.009-0.537,0.376-1,0.896-1.129
		c0.518-0.129,1.06,0.107,1.319,0.576l6.216,11.266c0.934-0.855,1.866-1.806,2.739-2.793c-0.281-0.405-0.544-0.818-0.782-1.231
		c-1.634-2.818-2.149-5.692-1.193-7.522c0.727-1.389,2.257-2.385,4.972-2.335c2.052,0.039,3.129,0.869,3.594,1.973
		c0.524,1.243,0.182,3.161-0.948,5.284c-0.659,1.241-1.571,2.579-2.623,3.9c1.635,1.942,3.714,3.618,5.823,4.347
		c1.419,0.488,2.847,0.533,4.104-0.204c-1.186-1.104-2.161-2.477-2.855-3.948c-1.462-3.1-1.595-6.576-0.024-8.812
		c1.051-1.501,2.857-2.54,5.646-2.54c3.507,0,5.274,2.923,4.979,6.742c-0.208,2.706-1.492,5.855-3.825,8.349
		c1.379,0.559,2.937,0.634,4.585-0.049c1.487-0.618,2.78-1.395,3.883-2.27c-1.447-1.486-2.699-3.158-3.511-4.778
		c-1.206-2.403-1.403-4.71-0.326-6.297c0.878-1.295,2.673-2.259,5.837-2.259c1.858,0,3.186,0.728,4.021,1.859
		c1.068,1.445,1.326,3.667,0.595,6.098c-0.526,1.757-1.576,3.64-3.146,5.362c0.789,0.637,1.604,1.189,2.399,1.615
		c1.349,0.717,2.616,1.129,3.563,0.688c1.992-0.922,3.731-2.136,5.128-3.47c-1.136-0.9-2.188-1.901-3.074-2.928
		c-1.238-1.438-2.14-2.916-2.524-4.202c-0.291-0.971-0.301-1.858-0.041-2.599c0.465-1.336,1.84-2.427,4.727-2.427
		c3.098,0,5.021,1.009,6.033,2.431c0.869,1.22,1.117,2.799,0.744,4.54c-0.321,1.511-1.138,3.166-2.362,4.77
		c0.513,0.313,1.028,0.592,1.544,0.828c0,0,3.54-7.102,4.549-8.631c0.295-0.446,0.277-1.013,1.512-0.537
		c0.076,0.03,0.234,0.096,0.445,0.202c0.828,0.422,2.438,1.522,2.826,3.64C174.376,128.051,174.029,130.203,171.914,133.1z"/>
	<path d="M53.353,126.659c-4.464-0.003-12.02-0.003-16.421-0.002c-0.938-0.002-1.835,0.37-2.497,1.029
		c-0.66,0.662-1.034,1.56-1.034,2.495c0.007,0.002,0.007,0.005,0.007,0.007c0,1.946,1.578,3.526,3.524,3.526
		c4.401,0,11.957,0,16.42,0c1.943-0.004,3.517-1.583,3.517-3.526c0.007-0.002,0.007-0.005,0.007-0.007
		c0-0.935-0.371-1.83-1.031-2.49C55.185,127.029,54.287,126.659,53.353,126.659z"/>
	<path d="M81.726,190.205c-0.662-0.662-1.558-1.033-2.492-1.033s-1.83,0.371-2.489,1.033c-3.157,3.152-8.501,8.494-11.613,11.609
		c-0.662,0.658-1.036,1.559-1.036,2.492c0,0.938,0.37,1.834,1.032,2.492c0.007-0.002,0.007,0,0.009,0
		c1.376,1.377,3.607,1.377,4.982,0c3.113-3.109,8.458-8.453,11.612-11.609c1.372-1.377,1.37-3.604-0.005-4.979
		C81.729,190.207,81.726,190.205,81.726,190.205z"/>
	<path d="M250.052,130.18c0-1.946-1.578-3.524-3.523-3.524c-4.402,0-11.957,0-16.42,0c-1.943,0.004-3.518,1.581-3.518,3.524
		c-0.008,0.002-0.008,0.005-0.008,0.007c0,0.934,0.373,1.832,1.033,2.493c0.657,0.663,1.557,1.033,2.49,1.033
		c4.465,0.002,12.02,0.002,16.422,0.002c0.938,0.002,1.834-0.37,2.496-1.031c0.66-0.663,1.034-1.563,1.034-2.497
		C250.052,130.185,250.052,130.182,250.052,130.18z"/>
	<path d="M141.728,45.323c0.002,0.005,0.002,0.005,0.005,0.005c0.935,0,1.829-0.37,2.491-1.032c0.66-0.66,1.031-1.556,1.031-2.49
		c0.002-4.462,0.002-12.019,0.002-16.422c0-0.935-0.369-1.833-1.031-2.495c-0.659-0.662-1.557-1.034-2.493-1.034
		c-0.003,0.007-0.003,0.007-0.005,0.007c-1.945,0-3.524,1.576-3.524,3.522c-0.002,4.401-0.002,11.959-0.002,16.422
		C138.207,43.749,139.785,45.323,141.728,45.323z"/>
	<path d="M218.324,53.585c-1.377-1.374-3.607-1.374-4.982,0c-3.111,3.114-8.459,8.456-11.611,11.613
		c-1.371,1.376-1.369,3.604,0.005,4.978c-0.003,0.007,0,0.007,0,0.009c0.662,0.66,1.56,1.032,2.492,1.032s1.83-0.372,2.487-1.032
		c3.158-3.155,8.502-8.499,11.613-11.611c0.662-0.66,1.036-1.558,1.036-2.492c0-0.937-0.37-1.835-1.032-2.497
		C218.326,53.59,218.326,53.587,218.324,53.585z"/>
	<path d="M70.122,53.585c-0.662-0.662-1.558-1.034-2.494-1.036c-0.935,0-1.833,0.372-2.495,1.034c0.003,0.004,0.003,0.007,0,0.007
		c-1.376,1.376-1.376,3.607,0,4.984c3.111,3.111,8.456,8.457,11.61,11.611c1.379,1.372,3.606,1.37,4.98-0.005
		c0.004,0.002,0.007,0.002,0.009,0c0.66-0.66,1.032-1.555,1.032-2.49c0-0.934-0.372-1.832-1.032-2.492
		C78.578,62.042,73.233,56.699,70.122,53.585z"/>
	<path d="M206.716,190.203c-1.379-1.373-3.605-1.371-4.979,0.006c-0.005-0.004-0.008-0.002-0.01,0
		c-0.66,0.66-1.031,1.558-1.031,2.489c0,0.933,0.371,1.829,1.031,2.491c3.155,3.156,8.501,8.5,11.612,11.613
		c0.662,0.662,1.557,1.033,2.494,1.033c0.934,0.002,1.832-0.369,2.494-1.031c-0.002-0.006-0.002-0.008,0-0.01
		c1.377-1.373,1.377-3.605,0-4.98C215.216,198.701,209.871,193.357,206.716,190.203z"/>
	<path d="M141.73,74.479c-30.886,0-56.014,25.126-56.014,56.011c0,30.897,25.128,56.034,56.014,56.034
		c30.886,0,56.014-25.137,56.014-56.034C197.744,99.605,172.616,74.479,141.73,74.479z M141.73,182.524
		c-28.681,0-52.014-23.343-52.014-52.034c0-28.679,23.333-52.011,52.014-52.011s52.014,23.332,52.014,52.011
		C193.744,159.181,170.411,182.524,141.73,182.524z"/>
	<path d="M157.844,226.687l-22.996,7.973c-1.604,0.553-2.452,2.303-1.898,3.906c0.556,1.602,2.307,2.447,3.907,1.896l22.998-7.971
		c1.602-0.555,2.452-2.307,1.896-3.908C161.195,226.983,159.445,226.132,157.844,226.687z"/>
	<path d="M160.681,189.23l-39.891,13.822c-1.604,0.557-2.451,2.307-1.896,3.908c0.553,1.602,2.304,2.451,3.904,1.896l39.894-13.823
		c1.601-0.558,2.451-2.308,1.896-3.908C164.033,189.523,162.283,188.673,160.681,189.23z"/>
	<path d="M171.271,122.89c-0.211-0.106-0.369-0.172-0.445-0.202c-1.234-0.476-1.217,0.091-1.512,0.537
		c-1.009,1.529-4.549,8.631-4.549,8.631c-0.516-0.236-1.031-0.515-1.544-0.828c1.225-1.604,2.041-3.259,2.362-4.77
		c0.373-1.741,0.125-3.32-0.744-4.54c-1.012-1.422-2.936-2.431-6.033-2.431c-2.887,0-4.262,1.091-4.727,2.427
		c-0.26,0.741-0.25,1.628,0.041,2.599c0.385,1.286,1.286,2.764,2.524,4.202c0.886,1.027,1.938,2.028,3.074,2.928
		c-1.396,1.334-3.136,2.548-5.128,3.47c-0.947,0.441-2.215,0.029-3.563-0.688c-0.796-0.426-1.61-0.978-2.399-1.615
		c1.569-1.722,2.619-3.605,3.146-5.362c0.731-2.431,0.474-4.653-0.595-6.098c-0.836-1.131-2.163-1.859-4.021-1.859
		c-3.164,0-4.958,0.964-5.837,2.259c-1.077,1.587-0.88,3.894,0.326,6.297c0.812,1.62,2.063,3.292,3.511,4.778
		c-1.103,0.875-2.396,1.652-3.883,2.27c-1.648,0.683-3.206,0.608-4.585,0.049c2.333-2.494,3.617-5.643,3.825-8.349
		c0.295-3.819-1.472-6.742-4.979-6.742c-2.789,0-4.595,1.039-5.646,2.54c-1.571,2.236-1.438,5.712,0.024,8.812
		c0.694,1.471,1.669,2.844,2.855,3.948c-1.257,0.737-2.685,0.692-4.104,0.204c-2.109-0.729-4.188-2.405-5.823-4.347
		c1.052-1.321,1.964-2.659,2.623-3.9c1.13-2.123,1.472-4.041,0.948-5.284c-0.465-1.104-1.542-1.934-3.594-1.973
		c-2.715-0.05-4.245,0.946-4.972,2.335c-0.956,1.83-0.441,4.704,1.193,7.522c0.238,0.413,0.501,0.826,0.782,1.231
		c-0.873,0.987-1.805,1.938-2.739,2.793l-6.216-11.266c-0.259-0.469-0.801-0.705-1.319-0.576c-0.52,0.129-0.887,0.592-0.896,1.129
		c0,0-0.117,8.521,0.76,12.994c0.277,1.415,0.708,2.47,1.17,2.962c0.492,0.525,1.062,0.69,1.663,0.57
		c1.12-0.225,2.589-1.009,4.151-2.17c7.223,13.1,19.191,34.785,19.191,34.785c0.315,0.566,1.034,0.775,1.604,0.463
		c0.571-0.315,0.78-1.035,0.465-1.604l-19.4-35.162c1.03-0.913,2.066-1.947,3.041-3.027c1.572,1.792,3.477,3.35,5.438,4.281
		c2.605,1.241,5.309,1.395,7.59-0.146c0.156-0.106,0.311-0.216,0.463-0.327c2.141,1.205,4.693,1.56,7.39,0.44
		c1.829-0.761,3.403-1.735,4.729-2.833c0.985,0.825,2.013,1.534,3.013,2.067c2.119,1.129,4.17,1.438,5.664,0.744
		c2.391-1.107,4.443-2.6,6.066-4.236c0.666,0.425,1.344,0.802,2.018,1.12l-19.549,37.098c-0.307,0.576-0.082,1.293,0.492,1.599
		c0.576,0.303,1.293,0.079,1.598-0.494l19.691-37.372c0.188,0.051,0.371,0.092,0.555,0.127c2.241,0.435,4.193-0.073,5.459-1.798
		c2.115-2.897,2.463-5.049,2.184-6.57C173.708,124.412,172.099,123.312,171.271,122.89z M115.213,135.317
		c-1.123,0.861-2.168,1.522-3.032,1.806c-0.032-0.066-0.066-0.138-0.091-0.201c-0.707-1.891-0.959-6.007-1.043-9.263
		c0,0.006,1.7,3.087,4.202,7.631L115.213,135.317z M122.147,128.003c-0.238,0.344-0.49,0.687-0.753,1.032
		c-0.869-1.368-1.468-2.764-1.64-3.996c-0.125-0.896-0.036-1.687,0.53-2.193c0.515-0.458,1.338-0.652,2.494-0.63
		c0.667,0.012,1.134,0.094,1.382,0.393c0.263,0.321,0.188,0.8,0.052,1.36C123.926,125.139,123.161,126.543,122.147,128.003z
		 M134.641,133.666c-1.086-0.939-1.973-2.169-2.585-3.469c-1.072-2.27-1.38-4.808-0.231-6.445c0.686-0.975,1.905-1.535,3.715-1.535
		c1.258,0,2.045,0.742,2.399,1.833c0.362,1.12,0.324,2.547-0.06,4.032C137.385,130.01,136.299,132.035,134.641,133.666z
		 M146.882,131.022c-1.286-1.313-2.399-2.797-3.123-4.233c-0.457-0.909-0.756-1.791-0.795-2.587
		c-0.021-0.497,0.059-0.953,0.313-1.327c0.571-0.841,1.826-1.222,3.885-1.222c3.129,0,3.352,3.415,1.603,6.721
		C148.291,129.272,147.662,130.169,146.882,131.022z M161.304,129.695c-0.385-0.3-0.76-0.616-1.117-0.944
		c-1.695-1.526-3.09-3.254-3.674-4.755c-0.24-0.617-0.379-1.168-0.156-1.597c0.102-0.204,0.305-0.349,0.578-0.462
		c0.462-0.195,1.081-0.286,1.875-0.286c2.072,0,3.432,0.487,4.109,1.44c0.508,0.717,0.576,1.655,0.355,2.676
		C163.007,127.024,162.326,128.38,161.304,129.695z M171.813,127.69c-0.065,1.044-0.585,2.35-1.804,4.012
		c-0.684,0.937-1.76,1.111-2.963,0.903l3.787-7.19C171.351,125.842,171.886,126.564,171.813,127.69z"/>
	<path d="M160.662,216.703l-35.454,12.285c-1.601,0.555-2.451,2.305-1.896,3.908c0.556,1.602,2.307,2.448,3.907,1.896l35.45-12.287
		c1.604-0.555,2.451-2.307,1.896-3.907C164.012,216.998,162.261,216.146,160.662,216.703z"/>
	<path d="M122.798,199.847l8.838-3.063c1.601-0.556,2.451-2.308,1.896-3.906c-0.553-1.602-2.303-2.453-3.907-1.896l-8.835,3.063
		c-1.604,0.556-2.451,2.306-1.896,3.906C119.447,199.553,121.198,200.402,122.798,199.847z"/>
	<path d="M160.662,198.175L120.768,212c-1.602,0.554-2.451,2.304-1.896,3.906c0.556,1.602,2.307,2.449,3.907,1.896l39.891-13.823
		c1.604-0.558,2.451-2.308,1.896-3.908C164.012,198.47,162.261,197.621,160.662,198.175z"/>
	<path d="M160.662,207.171l-39.894,13.822c-1.602,0.557-2.451,2.308-1.896,3.907c0.556,1.603,2.307,2.451,3.907,1.896l39.891-13.822
		c1.604-0.555,2.451-2.307,1.896-3.908C164.012,207.466,162.261,206.619,160.662,207.171z"/>
</g>
</svg>
