<?xml version="1.0" encoding="utf-8"?>
<!-- Generator: Adobe Illustrator 15.1.0, SVG Export Plug-In . SVG Version: 6.00 Build 0)  -->
<!DOCTYPE svg PUBLIC "-//W3C//DTD SVG 1.1//EN" "http://www.w3.org/Graphics/SVG/1.1/DTD/svg11.dtd">
<svg version="1.1" id="Layer_1" xmlns:serif="http://www.serif.com/"
	 xmlns="http://www.w3.org/2000/svg" xmlns:xlink="http://www.w3.org/1999/xlink" x="0px" y="0px" width="283.46px"
	 height="283.46px" viewBox="0 0 283.46 283.46" enable-background="new 0 0 283.46 283.46" xml:space="preserve">
<path d="M89.853,88.441c-0.774-0.676-1.457-1.465-2.019-2.346C81.231,75.76,70.576,59.082,63.973,48.746
	c-1.557-2.438-2.083-5.397-1.461-8.223c0.624-2.828,2.344-5.29,4.784-6.849c0.362-0.231,0.726-0.464,1.088-0.695
	c2.438-1.557,5.396-2.083,8.223-1.461c2.828,0.624,5.29,2.344,6.849,4.782l22.655,35.465l25.025,18
	c1.075-0.294,2.207-0.449,3.375-0.449h13.637c-11.603,0-21.022-9.419-21.022-21.021c0-11.603,9.419-21.022,21.022-21.022
	c11.604,0,21.023,9.419,21.023,21.022c0,11.602-9.42,21.021-21.023,21.021h15.443c0.184,0,0.365,0.004,0.545,0.011
	c0.197-0.009,0.393-0.013,0.59-0.011c2.895,0.024,5.66,1.199,7.689,3.262c7.949,8.085,20.311,20.662,28.26,28.745
	c0.324,0.331,0.625,0.68,0.902,1.044c0.646,0.795,1.186,1.689,1.592,2.653c4.756,11.306,12.426,29.55,17.18,40.853
	c1.123,2.669,1.139,5.674,0.045,8.354s-3.207,4.814-5.873,5.938c-0.396,0.166-0.797,0.334-1.191,0.499
	c-2.668,1.123-5.674,1.139-8.354,0.046c-2.68-1.092-4.814-3.205-5.938-5.874l-16.311-38.792l-6.305-6.413v19.393
	c0,2.172-0.271,4.13-0.783,5.892c0.055,0.251,0.104,0.504,0.143,0.757c1.68,11.212,4.293,28.653,5.973,39.865l6.584,43.938
	c0.428,2.863-0.297,5.778-2.018,8.105c-1.721,2.328-4.295,3.877-7.158,4.306c-0.424,0.063-0.852,0.126-1.277,0.19
	c-2.863,0.429-5.777-0.297-8.104-2.018c-2.328-1.721-3.875-4.295-4.305-7.156c-1.818-12.13-4.752-31.701-6.568-43.83l-4.572-30.511
	c-2,0.198-4.068,0.29-6.174,0.29c-0.006,0-0.01,0-0.016,0c-2.301,0-4.516-0.109-6.616-0.349l-36.501,16.144l14.995,28.621
	c1.343,2.564,1.613,5.557,0.75,8.318c-0.861,2.763-2.787,5.07-5.351,6.413c-0.382,0.2-0.763,0.399-1.145,0.6
	c-2.564,1.343-5.556,1.613-8.318,0.75s-5.07-2.788-6.413-5.351c-5.691-10.863-14.877-28.395-20.568-39.258
	c-0.598-1.143-0.983-2.369-1.151-3.623c-0.495-2.122-0.347-4.359,0.449-6.42c1.044-2.699,3.118-4.873,5.763-6.044l37.79-16.714
	c-0.1-0.928-0.152-1.898-0.152-2.917v-37.584l-30.76-22.123C90.544,89.045,90.189,88.753,89.853,88.441z"/>
</svg>
