<?xml version="1.0" encoding="utf-8"?>
<!-- Generator: Adobe Illustrator 15.1.0, SVG Export Plug-In . SVG Version: 6.00 Build 0)  -->
<!DOCTYPE svg PUBLIC "-//W3C//DTD SVG 1.1//EN" "http://www.w3.org/Graphics/SVG/1.1/DTD/svg11.dtd">
<svg version="1.1" id="Layer_1" xmlns:serif="http://www.serif.com/"
	 xmlns="http://www.w3.org/2000/svg" xmlns:xlink="http://www.w3.org/1999/xlink" x="0px" y="0px" width="283.46px"
	 height="283.46px" viewBox="0 0 283.46 283.46" enable-background="new 0 0 283.46 283.46" xml:space="preserve">
<path d="M253.779,159.785v75.848c0,1.66,0.66,3.252,1.835,4.427c1.173,1.175,2.767,1.835,4.427,1.835l0,0
	c3.496,0,6.328-2.835,6.328-6.33V41.567c-14.993,16.561-21.477,49.966-16.762,118.218H253.779L253.779,159.785z M25.362,112.663
	c0.259,0,0.506,0.104,0.688,0.286c0.184,0.184,0.286,0.431,0.286,0.689c0,11.547,0,121.994,0,121.994
	c0,1.66,0.659,3.254,1.834,4.427c1.173,1.175,2.767,1.835,4.427,1.835l0,0c3.497,0,6.329-2.835,6.329-6.33c0,0,0-108.274,0-121.567
	c0-0.354,0.141-0.692,0.39-0.941c0.25-0.252,0.59-0.393,0.943-0.393c0.005,0,0.007,0,0.012,0c4.363,0,7.898-3.535,7.898-7.898
	c0-17.73,0-59.154,0-59.154c0-0.642-0.254-1.259-0.708-1.712c-0.455-0.456-1.072-0.71-1.714-0.71c-0.113,0-0.227,0-0.34,0
	c-0.645,0-1.259,0.254-1.715,0.71c-0.453,0.453-0.71,1.07-0.71,1.712c0,0,0,35.954,0,43.079c0,1.095-3.286,1.095-3.286,0V45.61
	c0-0.642-0.256-1.259-0.709-1.712c-0.454-0.456-1.07-0.71-1.713-0.71c-0.113,0-0.229,0-0.342,0c-0.642,0-1.259,0.254-1.712,0.71
	c-0.456,0.453-0.71,1.07-0.71,1.712c0,0,0,35.507,0,43.079c0,1.266-3.794,1.266-3.794,0V45.61c0-0.642-0.256-1.259-0.71-1.712
	c-0.453-0.456-1.07-0.71-1.712-0.71c-0.113,0-0.229,0-0.343,0c-0.642,0-1.258,0.254-1.712,0.71c-0.456,0.453-0.71,1.07-0.71,1.712
	c0,0,0,35.827,0,43.079c0,1.084-3.252,1.084-3.252,0V45.61c0-0.642-0.256-1.259-0.709-1.712c-0.456-0.456-1.07-0.71-1.715-0.71
	c-0.113,0-0.227,0-0.34,0c-0.642,0-1.259,0.254-1.715,0.71c-0.453,0.453-0.707,1.07-0.707,1.712c0,0,0,41.424,0,59.154
	c0,4.363,3.535,7.898,7.898,7.898C25.122,112.663,25.247,112.663,25.362,112.663L25.362,112.663z M146.899,53.375
	c-25.133,0-47.903,10.2-64.387,26.686c-16.486,16.486-26.686,39.254-26.686,64.387s10.199,47.9,26.686,64.387
	c16.483,16.485,39.254,26.686,64.387,26.686c25.13,0,47.899-10.2,64.386-26.686c16.484-16.486,26.684-39.254,26.684-64.387
	s-10.199-47.9-26.684-64.387C194.798,63.575,172.029,53.375,146.899,53.375L146.899,53.375z M146.899,65.187
	c43.743,0,79.26,35.514,79.26,79.26s-35.517,79.26-79.26,79.26c-43.746,0-79.263-35.514-79.263-79.26S103.153,65.187,146.899,65.187
	z M123.7,192.955c-0.7,1.458-0.752,3.146-0.145,4.645c0.61,1.498,1.821,2.671,3.34,3.229c6.418,2.228,13.178,3.397,20.004,3.397
	c32.992,0,59.776-26.786,59.776-59.778c0-4.281-0.459-8.545-1.367-12.718c-0.354-1.58-1.361-2.937-2.771-3.734
	s-3.092-0.962-4.629-0.451c-0.009-0.025-0.012-0.025-0.012-0.022c-2.803,0.932-4.446,3.832-3.805,6.714
	c0.748,3.348,1.115,6.771,1.115,10.212c0,26.664-21.646,48.311-48.308,48.311c-5.477,0-10.898-0.932-16.042-2.742
	c-2.758-1.004-5.828,0.25-7.094,2.898C123.718,192.916,123.709,192.937,123.7,192.955z"/>
</svg>
