<?xml version="1.0" encoding="utf-8"?>
<!-- Generator: Adobe Illustrator 15.1.0, SVG Export Plug-In . SVG Version: 6.00 Build 0)  -->
<!DOCTYPE svg PUBLIC "-//W3C//DTD SVG 1.1//EN" "http://www.w3.org/Graphics/SVG/1.1/DTD/svg11.dtd">
<svg version="1.1" id="Layer_1" xmlns:serif="http://www.serif.com/"
	 xmlns="http://www.w3.org/2000/svg" xmlns:xlink="http://www.w3.org/1999/xlink" x="0px" y="0px" width="283.46px"
	 height="283.46px" viewBox="0 0 283.46 283.46" enable-background="new 0 0 283.46 283.46" xml:space="preserve">
<path d="M61.141,114.245H45.399c-1.25,0-2.476,0.248-3.606,0.717c-1.134,0.469-2.175,1.16-3.058,2.043
	c-0.885,0.883-1.574,1.926-2.043,3.057c-0.471,1.135-0.718,2.357-0.718,3.609v36.209c0,1.249,0.247,2.473,0.718,3.605
	c0.469,1.133,1.158,2.175,2.043,3.058c0.883,0.884,1.924,1.574,3.058,2.043c1.131,0.469,2.356,0.718,3.606,0.718h15.754
	l-0.012,0.225c0,1.094-0.115,2.017-0.353,2.786c-0.199,0.649-0.484,1.19-0.859,1.636c-0.652,0.771-1.516,1.249-2.517,1.555
	c-1.321,0.4-2.88,0.497-4.507,0.556c-2.191,0.079-4.512,0-6.742,0.042c-0.987,0.018-1.958,0.059-2.894,0.146
	c-1.327,0.126-2.588,0.351-3.746,0.704c-1.277,0.393-2.429,0.942-3.414,1.697c-1.258,0.963-2.296,2.252-2.957,4.016
	c-0.499,1.328-0.787,2.924-0.796,4.854H17.959c-1.249,0-2.473,0.249-3.606,0.718c-1.132,0.469-2.174,1.16-3.057,2.043
	c-0.884,0.884-1.574,1.926-2.043,3.058c-0.469,1.133-0.718,2.356-0.718,3.605v36.209c0,1.25,0.249,2.475,0.718,3.607
	s1.159,2.174,2.043,3.059c0.883,0.883,1.925,1.572,3.057,2.043c1.134,0.469,2.357,0.717,3.606,0.717h36.209
	c1.249,0,2.475-0.248,3.606-0.717c1.134-0.471,2.174-1.16,3.06-2.043c0.883-0.885,1.571-1.926,2.043-3.059
	c0.469-1.133,0.717-2.357,0.717-3.607v-36.209c0-1.249-0.248-2.473-0.717-3.605c-0.472-1.132-1.16-2.174-2.043-3.058
	c-0.886-0.883-1.926-1.574-3.06-2.043c-1.132-0.469-2.357-0.718-3.606-0.718H37.083c0.004-1.066,0.117-1.973,0.345-2.74
	c0.193-0.66,0.473-1.217,0.839-1.68c0.63-0.793,1.472-1.295,2.449-1.619c1.304-0.434,2.85-0.555,4.461-0.626
	c2.176-0.094,4.485-0.018,6.709-0.046c0.983-0.014,1.949-0.046,2.881-0.122c1.321-0.108,2.577-0.31,3.734-0.635
	c1.282-0.359,2.444-0.874,3.441-1.585c1.313-0.936,2.394-2.205,3.087-3.96c0.532-1.347,0.836-2.982,0.836-4.978l-0.012-0.225h15.754
	c1.25,0,2.476-0.249,3.606-0.718c1.134-0.469,2.174-1.159,3.058-2.043c0.885-0.883,1.574-1.925,2.043-3.058s0.717-2.356,0.717-3.605
	V123.67c0-1.252-0.248-2.475-0.717-3.609c-0.469-1.131-1.158-2.174-2.043-3.057c-0.884-0.883-1.924-1.574-3.058-2.043
	c-1.131-0.469-2.356-0.717-3.606-0.717h-15.74c0.018-0.746,0.266-1.381,0.688-1.93c0.412-0.535,0.99-0.988,1.688-1.394
	c0.649-0.378,1.391-0.706,2.213-0.999c1.053-0.375,2.237-0.687,3.53-0.955c3.118-0.646,6.81-1.016,10.834-1.229
	c13.857-0.733,31.658,0.427,43.686-1.108c2.43-0.309,4.639-0.732,6.563-1.285c1.588-0.457,2.983-1.004,4.149-1.646
	c0.479-0.264,0.927-0.545,1.337-0.842c0.419-0.301,0.8-0.621,1.146-0.957c0.316,0.318,0.668,0.621,1.047,0.908
	c0.38,0.288,0.789,0.561,1.229,0.818c1.132,0.662,2.486,1.225,4.029,1.701c1.878,0.575,4.036,1.018,6.413,1.348
	c11.687,1.608,29.057,0.506,42.575,1.24c3.924,0.213,7.521,0.582,10.561,1.217c1.252,0.262,2.4,0.566,3.424,0.933
	c0.795,0.286,1.515,0.608,2.143,0.978c0.668,0.39,1.224,0.83,1.618,1.348c0.403,0.529,0.639,1.138,0.658,1.855h-15.741
	c-1.251,0-2.475,0.248-3.605,0.717c-1.135,0.469-2.174,1.16-3.06,2.043c-0.883,0.883-1.574,1.926-2.043,3.057
	c-0.469,1.135-0.718,2.357-0.718,3.609v36.209c0,1.249,0.249,2.473,0.718,3.605s1.16,2.175,2.043,3.058
	c0.886,0.884,1.925,1.574,3.06,2.043c1.131,0.469,2.354,0.718,3.605,0.718H215.4c-0.007,1.072-0.13,1.978-0.377,2.736
	c-0.212,0.652-0.515,1.195-0.911,1.642c-0.688,0.774-1.592,1.261-2.637,1.575c-1.373,0.414-2.986,0.529-4.67,0.605
	c-2.238,0.1-4.604,0.048-6.877,0.111c-1.008,0.028-1.998,0.08-2.951,0.176c-1.338,0.134-2.609,0.363-3.783,0.714
	c-1.293,0.388-2.463,0.929-3.469,1.665c-1.323,0.969-2.409,2.264-3.107,4.037c-0.533,1.352-0.839,2.98-0.848,4.953h-15.743
	c-1.249,0-2.473,0.249-3.606,0.718c-1.132,0.469-2.174,1.16-3.057,2.043c-0.886,0.884-1.574,1.926-2.043,3.058
	c-0.469,1.133-0.718,2.356-0.718,3.605v36.209c0,1.25,0.249,2.475,0.718,3.607s1.157,2.174,2.043,3.059
	c0.883,0.883,1.925,1.572,3.057,2.043c1.134,0.469,2.357,0.718,3.606,0.718h36.209c1.249,0,2.475-0.249,3.606-0.718
	c1.134-0.471,2.174-1.16,3.059-2.043c0.883-0.885,1.572-1.926,2.041-3.059c0.471-1.133,0.72-2.357,0.718-3.607v-36.209
	c0.002-1.249-0.247-2.473-0.718-3.605c-0.469-1.132-1.158-2.174-2.041-3.058c-0.885-0.883-1.925-1.574-3.059-2.043
	c-1.132-0.469-2.357-0.718-3.606-0.718h-15.741c0.007-1.086,0.127-2.006,0.369-2.779c0.209-0.668,0.504-1.226,0.892-1.688
	c0.665-0.799,1.548-1.309,2.568-1.645c1.356-0.445,2.954-0.582,4.627-0.67c2.222-0.115,4.577-0.066,6.847-0.117
	c1.001-0.023,1.986-0.065,2.938-0.15c1.332-0.12,2.599-0.325,3.77-0.647c1.3-0.36,2.479-0.864,3.495-1.56
	c0.331-0.227,0.647-0.471,0.948-0.738c0.271-0.242,0.53-0.5,0.772-0.777c0.233,0.277,0.481,0.537,0.741,0.779
	c0.29,0.272,0.596,0.521,0.916,0.75c1.008,0.726,2.185,1.256,3.482,1.631c1.173,0.34,2.446,0.552,3.787,0.672
	c0.951,0.087,1.938,0.126,2.943,0.144c2.27,0.039,4.631-0.037,6.864,0.037c1.677,0.057,3.286,0.155,4.655,0.55
	c1.047,0.301,1.951,0.773,2.641,1.541c0.395,0.443,0.697,0.981,0.907,1.631c0.246,0.755,0.368,1.66,0.375,2.732
	c-2.678-0.014-5.325-0.016-7.929-0.004l-8.02,0.076c-2.563,0.057-4.867,1.129-6.53,2.83s-2.688,4.029-2.688,6.592v36.443
	c0,1.25,0.248,2.475,0.717,3.607s1.16,2.174,2.043,3.059c0.884,0.883,1.926,1.572,3.058,2.043c1.134,0.469,2.356,0.718,3.606,0.718
	h36.209c1.249,0,2.475-0.249,3.606-0.718c1.134-0.471,2.174-1.16,3.06-2.043c0.883-0.885,1.572-1.926,2.043-3.059
	c0.469-1.133,0.717-2.357,0.717-3.607v-36.317c0-2.581-1.04-4.923-2.726-6.626s-4.017-2.77-6.598-2.798l-15.846-0.168
	c-0.005-2.019-0.327-3.667-0.89-5.024c-0.734-1.762-1.875-3.027-3.258-3.957c-0.824-0.554-1.755-0.98-2.771-1.309
	c-1.369-0.439-2.891-0.693-4.507-0.819c-0.948-0.074-1.932-0.106-2.933-0.118c-2.266-0.027-4.613,0.046-6.831-0.045
	c-1.666-0.07-3.263-0.188-4.614-0.613c-1.022-0.322-1.906-0.82-2.57-1.611c-0.389-0.458-0.683-1.012-0.891-1.677
	c-0.239-0.77-0.359-1.686-0.365-2.765h15.742c1.25,0,2.473-0.248,3.607-0.718c1.131-0.469,2.174-1.159,3.057-2.043
	c0.883-0.883,1.574-1.925,2.043-3.058s0.717-2.356,0.717-3.605V123.67c0-1.252-0.248-2.475-0.717-3.609
	c-0.469-1.131-1.16-2.174-2.043-3.057s-1.926-1.574-3.057-2.043c-1.135-0.469-2.357-0.717-3.607-0.717h-15.742
	c-0.016-1.604-0.445-3.014-1.256-4.241c-0.777-1.178-1.904-2.187-3.355-3.038c-1.133-0.662-2.486-1.227-4.032-1.7
	c-1.876-0.578-4.034-1.021-6.411-1.348c-11.689-1.611-29.057-0.508-42.575-1.243c-3.923-0.213-7.521-0.58-10.56-1.215
	c-1.252-0.261-2.403-0.566-3.424-0.933c-0.796-0.286-1.516-0.608-2.144-0.977c-0.669-0.393-1.223-0.833-1.617-1.351
	c-0.421-0.551-0.659-1.188-0.659-1.946l-0.021-0.312h14.417c1.249,0,2.476-0.249,3.606-0.718c1.134-0.469,2.174-1.16,3.059-2.043
	c0.884-0.884,1.572-1.926,2.044-3.058c0.469-1.133,0.718-2.356,0.718-3.605V50.309c0-1.251-0.249-2.475-0.718-3.606
	c-0.472-1.134-1.16-2.174-2.044-3.059c-0.885-0.883-1.925-1.574-3.059-2.043c-1.131-0.469-2.357-0.717-3.606-0.717H122.28
	c-1.25,0-2.473,0.249-3.606,0.717c-1.132,0.469-2.175,1.16-3.058,2.043c-0.883,0.885-1.574,1.925-2.043,3.059
	c-0.469,1.132-0.718,2.355-0.718,3.606v36.209c0,1.249,0.249,2.473,0.718,3.605c0.469,1.132,1.16,2.174,2.043,3.058
	c0.883,0.883,1.926,1.574,3.058,2.043c1.134,0.469,2.356,0.718,3.606,0.718h17.107l-0.02,0.312c0,0.776-0.262,1.424-0.72,1.978
	c-0.423,0.51-1.01,0.944-1.709,1.33c-0.661,0.364-1.411,0.68-2.242,0.961c-1.063,0.358-2.257,0.656-3.559,0.91
	c-3.131,0.61-6.826,0.957-10.854,1.15c-13.901,0.672-31.72-0.471-43.719,1.162c-2.431,0.332-4.643,0.781-6.565,1.365
	c-1.583,0.48-2.972,1.054-4.13,1.725c-1.487,0.863-2.643,1.891-3.438,3.084C61.597,111.172,61.157,112.609,61.141,114.245
	L61.141,114.245z M139.368,169.303c-0.007,1.066-0.12,1.975-0.345,2.742c-0.196,0.664-0.473,1.222-0.835,1.688
	c-0.624,0.798-1.456,1.31-2.423,1.648c-1.297,0.451-2.836,0.591-4.443,0.676c-2.165,0.113-4.464,0.052-6.679,0.087
	c-0.977,0.016-1.938,0.049-2.867,0.123c-1.59,0.128-3.088,0.385-4.433,0.824c-0.997,0.324-1.91,0.752-2.717,1.301
	c-1.351,0.92-2.462,2.172-3.178,3.912c-0.552,1.346-0.865,2.982-0.865,4.988l0.011,0.225H94.842c-1.251,0-2.475,0.249-3.608,0.718
	c-1.132,0.469-2.174,1.16-3.057,2.043c-0.884,0.884-1.574,1.926-2.043,3.058c-0.469,1.133-0.718,2.356-0.718,3.605v36.209
	c0,1.25,0.249,2.475,0.718,3.607s1.159,2.174,2.043,3.059c0.883,0.883,1.925,1.572,3.057,2.043c1.134,0.469,2.357,0.718,3.608,0.718
	h36.209c1.25,0,2.473-0.249,3.606-0.718c1.132-0.471,2.174-1.16,3.058-2.043c0.883-0.885,1.574-1.926,2.043-3.059
	s0.717-2.357,0.717-3.607v-36.209c0-1.249-0.248-2.473-0.717-3.605c-0.469-1.132-1.16-2.174-2.043-3.058
	c-0.884-0.883-1.926-1.574-3.058-2.043c-1.134-0.469-2.356-0.718-3.606-0.718h-15.754l0.011-0.225c0-1.081,0.118-1.99,0.358-2.747
	c0.202-0.637,0.492-1.164,0.876-1.596c0.665-0.755,1.544-1.22,2.558-1.516c1.332-0.388,2.9-0.481,4.531-0.54
	c2.195-0.084,4.518-0.018,6.744-0.077c0.99-0.026,1.96-0.076,2.894-0.175c1.323-0.139,2.579-0.377,3.735-0.745
	c1.267-0.405,2.411-0.97,3.388-1.737c1.241-0.973,2.262-2.269,2.913-4.023c0.493-1.326,0.776-2.918,0.785-4.834h14.397
	c1.249,0,2.476-0.249,3.606-0.718c1.134-0.469,2.174-1.159,3.06-2.043c0.883-0.883,1.571-1.925,2.043-3.058
	c0.469-1.133,0.718-2.356,0.718-3.605V123.67c0-1.252-0.249-2.475-0.718-3.609c-0.472-1.131-1.16-2.174-2.043-3.057
	c-0.886-0.883-1.926-1.574-3.06-2.043c-1.131-0.469-2.357-0.717-3.606-0.717H122.28c-1.25,0-2.473,0.248-3.606,0.717
	c-1.132,0.469-2.175,1.16-3.058,2.043s-1.574,1.926-2.043,3.057c-0.469,1.135-0.717,2.357-0.717,3.609v36.209
	c0,1.249,0.248,2.473,0.717,3.605s1.16,2.175,2.043,3.058c0.883,0.884,1.926,1.574,3.058,2.043c1.134,0.469,2.356,0.718,3.606,0.718
	H139.368L139.368,169.303z M139.495,95.85c-0.024,0.131-0.035,0.266-0.035,0.403c0,1.524-0.981,2.562-2.478,3.386
	c-1.511,0.836-3.497,1.429-5.826,1.882c-13.943,2.722-39.102,0.208-54.576,2.313c-4.423,0.602-8.105,1.594-10.663,3.079
	c-3.044,1.769-4.686,4.215-4.686,7.423H45.399c-2.476,0-4.85,0.982-6.601,2.733c-1.751,1.749-2.734,4.124-2.734,6.601
	c0,10.098,0,26.108,0,36.209c0,2.475,0.983,4.85,2.734,6.598c1.751,1.751,4.125,2.734,6.601,2.734h15.854
	c-0.013,0.104-0.021,0.209-0.021,0.316c0,2.045-0.399,3.492-1.232,4.48c-1.53,1.813-4.206,2.039-7.088,2.142
	c-3.164,0.113-6.592-0.099-9.632,0.189c-2.773,0.262-5.248,0.952-7.114,2.381c-2.202,1.686-3.716,4.386-3.716,8.89H17.959
	c-2.475,0-4.85,0.984-6.601,2.732c-1.748,1.751-2.731,4.125-2.731,6.6c0,10.101,0,26.109,0,36.209c0,2.478,0.983,4.85,2.731,6.601
	c1.751,1.751,4.126,2.734,6.601,2.734c10.1,0,26.109,0,36.209,0c2.477,0,4.85-0.983,6.601-2.734c1.75-1.751,2.733-4.123,2.733-6.601
	v-36.209c0-2.475-0.983-4.849-2.733-6.6c-1.751-1.748-4.124-2.732-6.601-2.732H36.991c0-2.064,0.393-3.543,1.206-4.568
	c1.486-1.875,4.125-2.154,6.978-2.277c3.135-0.139,6.548,0.08,9.583-0.171c2.769-0.227,5.25-0.858,7.132-2.202
	c2.301-1.64,3.886-4.311,3.886-8.863c0-0.107-0.009-0.212-0.021-0.316h15.854c2.476,0,4.85-0.983,6.601-2.734
	c1.751-1.748,2.734-4.123,2.734-6.598V123.67c0-2.477-0.983-4.852-2.734-6.601c-1.751-1.751-4.125-2.733-6.601-2.733H65.775
	c0-1.553,0.948-2.637,2.423-3.494c1.491-0.865,3.46-1.486,5.77-1.965c13.865-2.864,39.006-0.357,54.528-2.337
	c4.416-0.563,8.103-1.503,10.681-2.922c0.989-0.545,1.833-1.159,2.526-1.847c0.644,0.654,1.42,1.245,2.322,1.775
	c2.495,1.461,6.09,2.439,10.409,3.035c15.08,2.078,39.623-0.362,53.141,2.459c2.241,0.467,4.151,1.075,5.595,1.921
	c1.413,0.827,2.322,1.873,2.322,3.374h-15.833c-2.477,0-4.849,0.982-6.6,2.733c-1.751,1.749-2.734,4.124-2.734,6.601
	c0,10.098,0,26.108,0,36.209c0,2.475,0.983,4.85,2.734,6.598c1.751,1.751,4.123,2.734,6.6,2.734h15.833
	c0,2.071-0.427,3.535-1.313,4.531c-1.606,1.81-4.378,2.076-7.37,2.209c-3.227,0.146-6.721-0.024-9.822,0.287
	c-2.801,0.281-5.306,0.971-7.209,2.363c-2.326,1.703-3.918,4.434-3.918,9.008h-15.833c-2.475,0-4.849,0.984-6.601,2.732
	c-1.75,1.751-2.734,4.125-2.734,6.6c0,10.101,0,26.109,0,36.209c0,2.478,0.984,4.85,2.734,6.601
	c1.752,1.751,4.126,2.734,6.601,2.734c10.101,0,26.108,0,36.209,0c2.475,0,4.849-0.983,6.601-2.734
	c1.75-1.751,2.734-4.123,2.734-6.601v-36.209c0-2.475-0.984-4.849-2.734-6.6c-1.752-1.748-4.126-2.732-6.601-2.732h-15.833
	c0-2.093,0.422-3.586,1.283-4.618c1.564-1.875,4.301-2.19,7.26-2.346c3.201-0.166,6.68,0.009,9.779-0.269
	c2.794-0.248,5.306-0.879,7.223-2.189c0.654-0.447,1.252-0.968,1.774-1.582c0.506,0.617,1.079,1.145,1.708,1.598
	c1.907,1.371,4.42,2.034,7.223,2.285c3.1,0.277,6.584,0.072,9.805,0.182c2.986,0.1,5.754,0.328,7.36,2.119
	c0.882,0.982,1.306,2.438,1.306,4.504v0.01c-5.508-0.024-10.889-0.01-16.039,0.071c-5.071,0.111-9.127,4.257-9.127,9.333
	c-0.002,10.084-0.002,26.266-0.002,36.443c0,2.478,0.982,4.85,2.734,6.601c1.75,1.751,4.125,2.734,6.6,2.734
	c10.1,0,26.109,0,36.209,0c2.475,0,4.85-0.983,6.6-2.734c1.752-1.751,2.734-4.123,2.734-6.601c0-10.135,0-26.225,0-36.317
	c0-5.115-4.119-9.278-9.231-9.333c-5.343-0.064-10.683-0.131-15.935-0.17c0-0.013,0-0.025,0-0.037c0-4.633-1.673-7.321-4.11-8.959
	c-1.921-1.291-4.438-1.893-7.233-2.113c-3.096-0.242-6.564-0.03-9.762-0.161c-2.954-0.122-5.684-0.401-7.25-2.257
	c-0.861-1.018-1.277-2.503-1.277-4.592h15.834c2.475,0,4.85-0.983,6.601-2.734c1.749-1.748,2.732-4.123,2.732-6.598V123.67
	c0-2.477-0.983-4.852-2.732-6.601c-1.751-1.751-4.126-2.733-6.601-2.733h-15.834c0-3.151-1.601-5.555-4.566-7.295
	c-2.496-1.461-6.09-2.439-10.409-3.035c-15.082-2.078-39.623,0.365-53.14-2.459c-2.242-0.467-4.152-1.072-5.595-1.921
	c-1.413-0.827-2.322-1.873-2.322-3.373c0-0.138-0.014-0.272-0.037-0.403h14.523c2.478,0,4.85-0.984,6.601-2.732
	c1.75-1.751,2.734-4.125,2.734-6.6V50.309c0-2.477-0.984-4.849-2.734-6.6c-1.751-1.751-4.123-2.734-6.601-2.734
	c-10.1,0-26.108,0-36.208,0c-2.476,0-4.85,0.983-6.601,2.734s-2.734,4.123-2.732,6.6c0,10.098,0,26.109,0,36.209
	c-0.002,2.475,0.981,4.849,2.732,6.6c1.751,1.748,4.125,2.732,6.601,2.732H139.495z M139.459,169.211
	c0,2.061-0.393,3.543-1.201,4.576c-1.475,1.893-4.098,2.211-6.933,2.359c-3.117,0.166-6.513-0.032-9.541,0.212
	c-2.75,0.223-5.223,0.824-7.108,2.11c-2.37,1.616-4.001,4.264-4.001,8.824c0,0.107,0.006,0.212,0.021,0.316H94.842
	c-2.477,0-4.852,0.984-6.6,2.732c-1.751,1.751-2.734,4.125-2.734,6.6c0,10.101,0,26.109,0,36.209c0,2.478,0.983,4.85,2.734,6.601
	c1.748,1.751,4.123,2.734,6.6,2.734c10.098,0,26.109,0,36.209,0c2.475,0,4.85-0.983,6.599-2.734
	c1.751-1.751,2.734-4.123,2.734-6.601v-36.209c0-2.475-0.983-4.849-2.734-6.6c-1.749-1.748-4.124-2.732-6.599-2.732h-15.856
	c0.016-0.104,0.022-0.209,0.022-0.316c0-2.019,0.407-3.442,1.256-4.404c1.557-1.764,4.254-1.979,7.156-2.086
	c3.168-0.118,6.596,0.069,9.629-0.249c2.763-0.29,5.225-1.012,7.077-2.466c2.177-1.705,3.666-4.409,3.666-8.877h14.486
	c2.478,0,4.85-0.983,6.601-2.734c1.75-1.748,2.734-4.123,2.734-6.598V123.67c0-2.477-0.984-4.852-2.734-6.601
	c-1.751-1.751-4.123-2.733-6.601-2.733c-10.1,0-26.108,0-36.208,0c-2.476,0-4.85,0.982-6.601,2.733
	c-1.751,1.749-2.734,4.124-2.732,6.601c0,10.098,0,26.108,0,36.209c-0.002,2.475,0.981,4.85,2.732,6.598
	c1.751,1.751,4.125,2.734,6.601,2.734H139.459z"/>
</svg>
