<?xml version="1.0" encoding="utf-8"?>
<!-- Generator: Adobe Illustrator 15.1.0, SVG Export Plug-In . SVG Version: 6.00 Build 0)  -->
<!DOCTYPE svg PUBLIC "-//W3C//DTD SVG 1.1//EN" "http://www.w3.org/Graphics/SVG/1.1/DTD/svg11.dtd">
<svg version="1.1" id="Layer_1" xmlns:serif="http://www.serif.com/"
	 xmlns="http://www.w3.org/2000/svg" xmlns:xlink="http://www.w3.org/1999/xlink" x="0px" y="0px" width="283.46px"
	 height="283.46px" viewBox="0 0 283.46 283.46" enable-background="new 0 0 283.46 283.46" xml:space="preserve">
<path d="M142.918,253.216c-8.413,3.514-17.448,5.325-26.578,5.325c-36.3,0-66.055-28.025-68.805-63.617
	c-16.305-5.957-27.942-21.604-27.942-39.968c0-20.104,13.946-36.952,32.691-41.396c2.2-49.313,42.87-88.614,92.722-88.614
	c49.85,0,90.521,39.3,92.722,88.614c18.745,4.444,32.692,21.292,32.692,41.396c0,23.492-19.047,42.539-42.541,42.539v-85.08h0.087
	c-2.754-43.417-38.845-77.784-82.96-77.784s-80.206,34.366-82.96,77.784h0.087v84.427c3.574,26.748,26.479,47.379,54.207,47.379
	c3.415,0,6.812-0.32,10.15-0.95v-22.456h30.226v32.4H142.918L142.918,253.216z M127.309,191.677c0-6.17,0.453-11.025,1.36-14.566
	c0.907-3.539,2.996-6.943,6.262-10.212c3.269-3.267,8.624-7.077,16.066-11.437l7.079-4.084c6.535-3.631,10.938-6.942,13.208-9.938
	c2.268-2.996,3.402-6.853,3.402-11.572c0-5.992-2.404-10.575-7.217-13.752c-4.811-3.177-12.117-4.764-21.918-4.764
	c-9.984,0-17.745,1.814-23.283,5.444c-5.536,3.633-8.303,8.988-8.303,16.065v3.542H81.835v-3.269
	c0-15.793,5.898-28.318,17.699-37.576c11.798-9.258,27.502-13.887,47.106-13.887c19.063,0,34.083,4.265,45.066,12.797
	c10.982,8.532,16.473,20.422,16.473,35.672c0,9.258-2.043,16.655-6.127,22.191c-4.084,5.538-10.483,10.848-19.197,15.93
	l-5.989,3.539c-6.173,3.631-10.618,6.581-13.343,8.852c-2.723,2.27-4.539,4.402-5.446,6.398s-1.36,4.538-1.36,7.623v7.898h-29.408
	V191.677z M80.078,119.842c0-4.101-3.325-7.426-7.429-7.426c-3.676,0-7.337,0-7.337,0v85.08h7.337c4.104,0,7.429-3.326,7.429-7.427
	C80.078,173.957,80.078,135.954,80.078,119.842z M209.937,190.069c0,4.101,3.325,7.427,7.427,7.427c3.677,0,7.337,0,7.337,0v-85.08
	h-7.337c-4.102,0-7.427,3.325-7.427,7.426C209.937,135.954,209.937,173.957,209.937,190.069z"/>
</svg>
