<?xml version="1.0" encoding="utf-8"?>
<!-- Generator: Adobe Illustrator 15.1.0, SVG Export Plug-In . SVG Version: 6.00 Build 0)  -->
<!DOCTYPE svg PUBLIC "-//W3C//DTD SVG 1.1//EN" "http://www.w3.org/Graphics/SVG/1.1/DTD/svg11.dtd">
<svg version="1.1" id="Layer_1" xmlns:serif="http://www.serif.com/"
	 xmlns="http://www.w3.org/2000/svg" xmlns:xlink="http://www.w3.org/1999/xlink" x="0px" y="0px" width="283.46px"
	 height="283.46px" viewBox="0 0 283.46 283.46" enable-background="new 0 0 283.46 283.46" xml:space="preserve">
<g>
	<g>
		<path fill="none" stroke="#010001" stroke-width="4.17" stroke-linecap="round" stroke-miterlimit="1.25" d="M89.545,198.915
			h110.054"/>
	</g>
	<path d="M185.355,84.598l0.057-0.046c0,0-0.357,32.609-4.165,63.342c4.679-4.828,9.79-9.633,14.557-13.9
		c-1.411,5.272-1.101,9.475,1.088,10.545c3.175,1.553,9.106-4.054,13.235-12.507c2.444-5,3.716-9.884,3.654-13.362l0.033-0.026
		c0,0-0.545,49.897-9.036,67.239c-0.987,2.015-2.25,3.807-3.722,5.354H87.02c-6.003-6.315-7.775-15.944-3.722-24.224
		c7.063-14.423,35.284-38.313,44.599-45.929c-0.927,1.256-1.812,2.728-2.604,4.348c-2.917,5.972-3.467,11.713-1.225,12.808
		c1.522,0.743,3.94-0.84,6.231-3.816l-0.004,0.094c5.739-6.094,12.021-12.241,18.227-18.037c-2.028,9.376-1.173,16.641,2.865,18.614
		c6.376,3.116,18.294-8.146,26.595-25.134C182.554,100.606,185.082,91.455,185.355,84.598L185.355,84.598z"/>
</g>
</svg>
