<?xml version="1.0" encoding="utf-8"?>
<!-- Generator: Adobe Illustrator 15.1.0, SVG Export Plug-In . SVG Version: 6.00 Build 0)  -->
<!DOCTYPE svg PUBLIC "-//W3C//DTD SVG 1.1//EN" "http://www.w3.org/Graphics/SVG/1.1/DTD/svg11.dtd">
<svg version="1.1" id="Layer_1" xmlns:serif="http://www.serif.com/"
	 xmlns="http://www.w3.org/2000/svg" xmlns:xlink="http://www.w3.org/1999/xlink" x="0px" y="0px" width="283.46px"
	 height="283.46px" viewBox="0 0 283.46 283.46" enable-background="new 0 0 283.46 283.46" xml:space="preserve">
<path d="M195.778,178.59c-1.151,0-2.085-0.934-2.085-2.085s0.934-2.085,2.085-2.085c11.903,0,23.049-5.306,30.578-14.558
	c5.693-6.995,8.829-15.819,8.829-24.847c0-21.728-17.678-39.405-39.407-39.405h-18.666c-1.151,0-2.085-0.934-2.085-2.085
	c0-21.729-17.678-39.407-39.406-39.407c-21.729,0-39.407,17.678-39.407,39.407c0,1.151-0.934,2.085-2.085,2.085
	c-21.728,0-39.405,17.677-39.405,39.405c0,9.029,3.136,17.854,8.829,24.847c7.529,9.252,18.673,14.558,30.575,14.558
	c1.151,0,2.085,0.934,2.085,2.085s-0.934,2.085-2.085,2.085c-13.162,0-25.485-5.866-33.809-16.095
	c-6.297-7.735-9.765-17.494-9.765-27.479c0-23.344,18.452-42.459,41.537-43.528c1.069-23.085,20.185-41.539,43.53-41.539
	c23.329,0,42.434,18.429,43.527,41.492h16.63c24.028,0,43.577,19.548,43.577,43.575c0,9.983-3.468,19.742-9.765,27.479
	C221.265,172.724,208.941,178.59,195.778,178.59z"/>
<g>
	<path fill="#010001" d="M121.896,218.595c-0.306,0-0.617-0.068-0.911-0.211c-1.035-0.504-1.466-1.752-0.962-2.787l24.869-51.088
		c0.504-1.036,1.752-1.467,2.787-0.963c1.036,0.504,1.467,1.752,0.963,2.787l-24.87,51.088
		C123.412,218.164,122.669,218.595,121.896,218.595z"/>
	<circle cx="113.515" cy="233.857" r="4.516"/>
</g>
<g>
	<circle cx="146.32" cy="227.967" r="4.516"/>
	<path fill="#010001" d="M154.703,212.707c-0.306,0-0.616-0.068-0.91-0.211c-1.036-0.504-1.467-1.752-0.963-2.787l22-45.199
		c0.504-1.036,1.748-1.467,2.787-0.963c1.036,0.504,1.467,1.752,0.963,2.787l-22,45.199
		C156.218,212.275,155.476,212.707,154.703,212.707z"/>
</g>
<g>
	<path fill="#010001" d="M99.476,203.114c-0.306,0-0.617-0.068-0.911-0.211c-1.035-0.504-1.466-1.752-0.962-2.787l17.333-35.606
		c0.504-1.036,1.752-1.465,2.787-0.963c1.035,0.504,1.466,1.752,0.962,2.787l-17.333,35.606
		C100.991,202.682,100.248,203.114,99.476,203.114z"/>
	<circle cx="91.093" cy="218.377" r="4.516"/>
</g>
</svg>
