<?xml version="1.0" encoding="utf-8"?>
<!-- Generator: Adobe Illustrator 15.1.0, SVG Export Plug-In . SVG Version: 6.00 Build 0)  -->
<!DOCTYPE svg PUBLIC "-//W3C//DTD SVG 1.1//EN" "http://www.w3.org/Graphics/SVG/1.1/DTD/svg11.dtd">
<svg version="1.1" id="Layer_1" xmlns:serif="http://www.serif.com/"
	 xmlns="http://www.w3.org/2000/svg" xmlns:xlink="http://www.w3.org/1999/xlink" x="0px" y="0px" width="283.46px"
	 height="283.46px" viewBox="0 0 283.46 283.46" enable-background="new 0 0 283.46 283.46" xml:space="preserve">
<g>
	<g>
		<g>
			<path fill="#010001" d="M81.301,230.572c-1.151,0-2.085-0.934-2.085-2.085V59.101c0-1.151,0.934-2.085,2.085-2.085
				s2.085,0.934,2.085,2.085v169.386C83.386,229.638,82.452,230.572,81.301,230.572z"/>
		</g>
	</g>
	<g>
		<path d="M202.16,130.056V54.974H89.102v75.082H202.16z M183.535,73.597v37.833c0,0.002-75.807,0.002-75.807,0.002
			c0-0.002,0-37.835,0-37.835H183.535z"/>
		<path d="M202.16,209.723v-76.525H89.102v76.525H202.16L202.16,209.723z M183.535,151.824V191.1h-75.807v-39.276H183.535z"/>
	</g>
</g>
</svg>
