<?xml version="1.0" encoding="utf-8"?>
<!-- Generator: Adobe Illustrator 15.1.0, SVG Export Plug-In . SVG Version: 6.00 Build 0)  -->
<!DOCTYPE svg PUBLIC "-//W3C//DTD SVG 1.1//EN" "http://www.w3.org/Graphics/SVG/1.1/DTD/svg11.dtd">
<svg version="1.1" id="Layer_1" xmlns:serif="http://www.serif.com/"
	 xmlns="http://www.w3.org/2000/svg" xmlns:xlink="http://www.w3.org/1999/xlink" x="0px" y="0px" width="283.46px"
	 height="283.46px" viewBox="0 0 283.46 283.46" enable-background="new 0 0 283.46 283.46" xml:space="preserve">
<g>
	<path d="M192.557,177.086c-1.151,0-2.085-0.934-2.085-2.085s0.934-2.085,2.085-2.085c11.901,0,23.045-5.306,30.573-14.558
		c5.695-6.992,8.831-15.816,8.831-24.847c0-21.729-17.677-39.407-39.404-39.407h-18.67c-1.151,0-2.085-0.934-2.085-2.085
		c0-21.728-17.677-39.405-39.405-39.405c-21.728,0-39.405,17.677-39.405,39.405c0,1.151-0.934,2.085-2.085,2.085
		c-21.729,0-39.407,17.678-39.407,39.407c0,9.026,3.136,17.85,8.83,24.847c7.531,9.252,18.676,14.558,30.577,14.558
		c1.151,0,2.085,0.934,2.085,2.085s-0.934,2.085-2.085,2.085c-13.162,0-25.485-5.866-33.812-16.095
		c-6.297-7.738-9.766-17.498-9.766-27.479c0-23.345,18.454-42.461,41.539-43.53c1.069-23.084,20.184-41.537,43.528-41.537
		c23.328,0,42.434,18.428,43.526,41.49h16.634c24.027,0,43.574,19.549,43.574,43.577c0,9.987-3.469,19.746-9.768,27.479
		C218.041,171.22,205.718,177.086,192.557,177.086z"/>
	<g>
		<g>
			<path fill="#010001" d="M151.9,207.73c-0.306,0-0.616-0.068-0.91-0.211c-1.036-0.504-1.467-1.752-0.963-2.787l5.418-11.132
				c0.504-1.036,1.749-1.467,2.787-0.963c1.036,0.504,1.467,1.752,0.963,2.787l-5.418,11.132
				C153.416,207.298,152.673,207.73,151.9,207.73z"/>
			<path fill="#010001" d="M168.642,173.333c-0.306,0-0.617-0.068-0.91-0.211c-1.036-0.504-1.467-1.752-0.963-2.787l8.125-16.691
				c0.504-1.036,1.753-1.467,2.787-0.963c1.036,0.504,1.467,1.752,0.963,2.787l-8.125,16.691
				C170.158,172.902,169.416,173.333,168.642,173.333z"/>
			<ellipse cx="163.039" cy="182.806" rx="4.568" ry="4.516"/>
			<circle cx="146.248" cy="217.124" r="4.516"/>
		</g>
		<g>
			<path fill="#010001" d="M120.434,219.02c-0.306,0-0.617-0.068-0.911-0.211c-1.035-0.504-1.466-1.752-0.962-2.787l5.418-11.132
				c0.504-1.036,1.753-1.464,2.787-0.963c1.035,0.504,1.466,1.752,0.962,2.787l-5.418,11.132
				C121.949,218.588,121.206,219.02,120.434,219.02z"/>
			<path fill="#010001" d="M137.174,184.623c-0.306,0-0.617-0.068-0.911-0.211c-1.036-0.505-1.466-1.752-0.962-2.788l8.126-16.69
				c0.504-1.034,1.75-1.467,2.788-0.962c1.035,0.505,1.466,1.752,0.962,2.788l-8.127,16.69
				C138.689,184.191,137.947,184.623,137.174,184.623z"/>
			<ellipse cx="131.57" cy="194.096" rx="4.568" ry="4.516"/>
			<circle cx="114.778" cy="228.414" r="4.516"/>
		</g>
		<g>
			<path fill="#010001" d="M101.677,204.14c-0.306,0-0.617-0.068-0.911-0.211c-1.035-0.504-1.466-1.752-0.962-2.787l5.418-11.131
				c0.504-1.036,1.752-1.464,2.787-0.963c1.035,0.504,1.466,1.752,0.962,2.787l-5.418,11.131
				C103.192,203.708,102.449,204.14,101.677,204.14z"/>
			<path fill="#010001" d="M118.42,169.744c-0.306,0-0.617-0.068-0.911-0.211c-1.035-0.504-1.466-1.752-0.962-2.787l8.125-16.691
				c0.504-1.036,1.752-1.464,2.787-0.963c1.035,0.504,1.466,1.752,0.962,2.787l-8.125,16.691
				C119.936,169.312,119.193,169.744,118.42,169.744z"/>
			<ellipse cx="112.816" cy="179.214" rx="4.568" ry="4.516"/>
			<circle cx="96.024" cy="213.535" r="4.516"/>
		</g>
	</g>
</g>
</svg>
