<?xml version="1.0" encoding="utf-8"?>
<!-- Generator: Adobe Illustrator 15.1.0, SVG Export Plug-In . SVG Version: 6.00 Build 0)  -->
<!DOCTYPE svg PUBLIC "-//W3C//DTD SVG 1.1//EN" "http://www.w3.org/Graphics/SVG/1.1/DTD/svg11.dtd">
<svg version="1.1" id="Layer_1" xmlns:serif="http://www.serif.com/"
	 xmlns="http://www.w3.org/2000/svg" xmlns:xlink="http://www.w3.org/1999/xlink" x="0px" y="0px" width="283.46px"
	 height="283.46px" viewBox="0 0 283.46 283.46" enable-background="new 0 0 283.46 283.46" xml:space="preserve">
<g>
	<path d="M192.555,171.969c-1.151,0-2.085-0.934-2.085-2.085s0.934-2.085,2.085-2.085c11.901,0,23.047-5.307,30.577-14.56
		c5.692-6.995,8.827-15.82,8.827-24.848c0-21.728-17.677-39.405-39.404-39.405h-18.667c-1.151,0-2.085-0.934-2.085-2.085
		c0-21.729-17.678-39.407-39.407-39.407c-21.728,0-39.405,17.678-39.405,39.407c0,1.151-0.934,2.085-2.085,2.085
		c-21.728,0-39.405,17.677-39.405,39.405c0,9.027,3.135,17.852,8.827,24.849c7.532,9.252,18.677,14.559,30.578,14.559
		c1.151,0,2.085,0.934,2.085,2.085s-0.934,2.085-2.085,2.085c-13.161,0-25.485-5.867-33.812-16.097
		c-6.295-7.738-9.763-17.498-9.763-27.48c0-23.344,18.452-42.459,41.537-43.528c1.069-23.085,20.184-41.539,43.528-41.539
		c23.329,0,42.436,18.429,43.528,41.492h16.631c24.027,0,43.574,19.548,43.574,43.575c0,9.983-3.467,19.742-9.763,27.479
		C218.041,166.102,205.717,171.969,192.555,171.969z"/>
	<g>
		<path fill="#010001" d="M118.676,240.136c-0.207,0-0.417-0.031-0.625-0.097c-1.099-0.345-1.71-1.515-1.365-2.613l24.867-79.254
			c0.344-1.101,1.515-1.711,2.613-1.365c1.099,0.345,1.71,1.515,1.365,2.613l-24.867,79.254
			C120.386,239.566,119.563,240.136,118.676,240.136z"/>
	</g>
	<g>
		<path fill="#010001" d="M151.48,230.998c-0.207,0-0.417-0.031-0.625-0.097c-1.099-0.345-1.71-1.515-1.365-2.613l22.001-70.115
			c0.345-1.101,1.514-1.711,2.613-1.365c1.099,0.345,1.71,1.515,1.365,2.613l-22.001,70.115
			C153.189,230.427,152.367,230.998,151.48,230.998z"/>
	</g>
	<g>
		<path fill="#010001" d="M96.254,216.121c-0.207,0-0.417-0.031-0.625-0.097c-1.099-0.345-1.71-1.515-1.365-2.613l17.333-55.238
			c0.344-1.1,1.514-1.712,2.613-1.365c1.099,0.345,1.71,1.515,1.365,2.613l-17.333,55.238
			C97.964,215.55,97.142,216.121,96.254,216.121z"/>
	</g>
</g>
</svg>
