<?xml version="1.0" encoding="utf-8"?>
<!-- Generator: Adobe Illustrator 15.1.0, SVG Export Plug-In . SVG Version: 6.00 Build 0)  -->
<!DOCTYPE svg PUBLIC "-//W3C//DTD SVG 1.1//EN" "http://www.w3.org/Graphics/SVG/1.1/DTD/svg11.dtd">
<svg version="1.1" id="Layer_1" xmlns:serif="http://www.serif.com/"
	 xmlns="http://www.w3.org/2000/svg" xmlns:xlink="http://www.w3.org/1999/xlink" x="0px" y="0px" width="283.46px"
	 height="283.46px" viewBox="0 0 283.46 283.46" enable-background="new 0 0 283.46 283.46" xml:space="preserve">
<g>
	<circle cx="107.375" cy="215.007" r="4.538"/>
	<path d="M107.375,210.469c2.505,0,4.538,2.034,4.538,4.538c0,2.505-2.032,4.537-4.538,4.537c-2.503,0-4.538-2.032-4.538-4.537
		C102.838,212.503,104.872,210.469,107.375,210.469z M107.375,217.739c-0.752,0-1.437-0.305-1.93-0.8
		c-0.495-0.495-0.8-1.177-0.8-1.932c0-0.754,0.305-1.438,0.8-1.932c0.493-0.494,1.177-0.799,1.93-0.799
		c0.754,0,1.437,0.305,1.932,0.799s0.8,1.178,0.8,1.932c0,0.755-0.305,1.437-0.8,1.932S108.13,217.739,107.375,217.739z"/>
	<circle cx="126.607" cy="237.926" r="4.538"/>
	<path d="M126.607,233.388c2.505,0,4.538,2.031,4.538,4.537s-2.032,4.537-4.538,4.537s-4.538-2.031-4.538-4.537
		S124.102,233.388,126.607,233.388z M126.607,240.656c-0.754,0-1.437-0.306-1.932-0.798c-0.493-0.495-0.798-1.178-0.798-1.933
		c0-0.754,0.305-1.438,0.798-1.932c0.495-0.492,1.177-0.799,1.932-0.799s1.437,0.307,1.932,0.799
		c0.493,0.494,0.798,1.178,0.798,1.932c0,0.755-0.305,1.438-0.798,1.933C128.044,240.35,127.361,240.656,126.607,240.656z"/>
	<circle cx="162.572" cy="228.851" r="4.538"/>
	<path d="M162.572,224.313c2.506,0,4.537,2.032,4.537,4.538c0,2.503-2.031,4.537-4.537,4.537c-2.504,0-4.537-2.034-4.537-4.537
		C158.035,226.345,160.068,224.313,162.572,224.313z M162.572,231.582c-0.752,0-1.438-0.306-1.93-0.799
		c-0.495-0.494-0.801-1.18-0.801-1.932c0-0.755,0.306-1.438,0.801-1.934c0.492-0.494,1.178-0.797,1.93-0.797
		c0.754,0,1.438,0.303,1.932,0.797c0.496,0.496,0.802,1.179,0.802,1.934c0,0.752-0.306,1.438-0.802,1.932
		C164.009,231.276,163.326,231.582,162.572,231.582z"/>
	<circle cx="119.566" cy="182.25" r="4.538"/>
	<path d="M119.566,177.712c2.505,0,4.538,2.033,4.538,4.537c0,2.506-2.032,4.537-4.538,4.537s-4.538-2.031-4.538-4.537
		C115.029,179.748,117.061,177.712,119.566,177.712z M119.566,184.982c-0.754,0-1.437-0.307-1.932-0.8
		c-0.493-0.495-0.798-1.179-0.798-1.933c0-0.752,0.305-1.438,0.798-1.93c0.495-0.496,1.178-0.801,1.932-0.801
		s1.437,0.305,1.932,0.801c0.495,0.492,0.798,1.178,0.798,1.93c0,0.754-0.303,1.438-0.798,1.933
		C121.003,184.675,120.321,184.982,119.566,184.982z"/>
	<circle cx="141.009" cy="205.932" r="4.537"/>
	<path d="M141.009,201.395c2.503,0,4.538,2.033,4.538,4.537c0,2.506-2.033,4.537-4.538,4.537c-2.505,0-4.538-2.031-4.538-4.537
		C136.471,203.428,138.503,201.395,141.009,201.395z M141.009,208.664c-0.754,0-1.437-0.305-1.932-0.8
		c-0.495-0.493-0.798-1.178-0.798-1.932s0.303-1.438,0.798-1.933c0.495-0.492,1.177-0.799,1.932-0.799
		c0.752,0,1.437,0.307,1.932,0.799c0.492,0.494,0.798,1.179,0.798,1.933s-0.306,1.437-0.798,1.932
		C142.446,208.359,141.761,208.664,141.009,208.664z"/>
	<circle cx="174.992" cy="196.857" r="4.538"/>
	<path d="M174.992,192.319c2.506,0,4.537,2.033,4.537,4.538s-2.031,4.538-4.537,4.538c-2.504,0-4.537-2.033-4.537-4.538
		S172.488,192.319,174.992,192.319z M174.992,199.585c-0.754,0-1.438-0.305-1.932-0.797c-0.492-0.496-0.799-1.178-0.799-1.933
		s0.307-1.437,0.799-1.933c0.494-0.494,1.178-0.797,1.932-0.797s1.438,0.303,1.932,0.797c0.496,0.496,0.8,1.178,0.8,1.933
		s-0.304,1.437-0.8,1.933C176.429,199.282,175.746,199.585,174.992,199.585z"/>
	<path d="M207.087,167.556h-6.51c-1.151,0-2.085-0.934-2.085-2.085s0.934-2.085,2.085-2.085h6.51
		c21.729,0,39.405-17.678,39.405-39.407c0-21.728-17.677-39.404-39.405-39.404h-18.668c-1.151,0-2.085-0.934-2.085-2.085
		c0-21.729-17.677-39.407-39.404-39.407c-21.729,0-39.407,17.678-39.407,39.407c0,1.151-0.934,2.085-2.085,2.085
		c-7.767,0-15.279,2.259-21.727,6.534c-8.577,5.684-14.71,14.684-16.826,24.692c-0.239,1.127-1.347,1.847-2.472,1.608
		c-1.126-0.238-1.847-1.345-1.608-2.471c2.341-11.07,9.122-21.022,18.602-27.305c6.566-4.354,14.131-6.818,21.993-7.182
		c1.069-23.085,20.185-41.539,43.53-41.539c23.327,0,42.433,18.429,43.525,41.492h16.632c24.027,0,43.575,19.547,43.575,43.574
		C250.663,148.007,231.115,167.556,207.087,167.556z"/>
	<g>
		<path fill="#010001" d="M142.63,149.487H34.881c-1.151,0-2.085-0.934-2.085-2.085s0.934-2.085,2.085-2.085h107.75
			c1.151,0,2.085,0.934,2.085,2.085S143.782,149.487,142.63,149.487z"/>
	</g>
	<g>
		<path fill="#010001" d="M182.726,167.556H74.978c-1.151,0-2.085-0.934-2.085-2.085s0.934-2.085,2.085-2.085h107.748
			c1.151,0,2.085,0.934,2.085,2.085S183.877,167.556,182.726,167.556z"/>
	</g>
	<g>
		<path fill="#010001" d="M156.712,131.365H48.965c-1.151,0-2.085-0.934-2.085-2.085s0.934-2.085,2.085-2.085h107.748
			c1.151,0,2.085,0.934,2.085,2.085S157.864,131.365,156.712,131.365z"/>
	</g>
</g>
</svg>
