<?xml version="1.0" encoding="utf-8"?>
<!-- Generator: Adobe Illustrator 15.1.0, SVG Export Plug-In . SVG Version: 6.00 Build 0)  -->
<!DOCTYPE svg PUBLIC "-//W3C//DTD SVG 1.1//EN" "http://www.w3.org/Graphics/SVG/1.1/DTD/svg11.dtd">
<svg version="1.1" id="Layer_1" xmlns:serif="http://www.serif.com/"
	 xmlns="http://www.w3.org/2000/svg" xmlns:xlink="http://www.w3.org/1999/xlink" x="0px" y="0px" width="283.46px"
	 height="283.46px" viewBox="0 0 283.46 283.46" enable-background="new 0 0 283.46 283.46" xml:space="preserve">
<g>
	<g>
		<path fill="#010001" d="M195.951,152.721H88.2c-1.151,0-2.085-0.934-2.085-2.085s0.934-2.085,2.085-2.085h107.75
			c1.151,0,2.085,0.934,2.085,2.085S197.102,152.721,195.951,152.721z"/>
		<path fill="#010001" d="M195.951,188.86c-1.151,0-2.085-0.934-2.085-2.085s0.934-2.085,2.085-2.085
			c13.037,0,18.975-8.286,18.975-15.984s-5.938-15.984-18.975-15.984c-1.151,0-2.085-0.934-2.085-2.085s0.934-2.085,2.085-2.085
			c15.195,0,23.146,10.139,23.146,20.154S211.146,188.86,195.951,188.86z"/>
	</g>
	<g>
		<path fill="#010001" d="M174.198,134.907H66.45c-1.151,0-2.085-0.934-2.085-2.085s0.934-2.085,2.085-2.085h107.748
			c1.151,0,2.085,0.934,2.085,2.085S175.349,134.907,174.198,134.907z"/>
		<path fill="#010001" d="M174.198,134.907c-1.151,0-2.085-0.934-2.085-2.085s0.934-2.085,2.085-2.085
			c13.038,0,18.977-8.285,18.977-15.983s-5.938-15.983-18.977-15.983c-1.151,0-2.085-0.934-2.085-2.085s0.934-2.085,2.085-2.085
			c15.196,0,23.146,10.138,23.146,20.153S189.394,134.907,174.198,134.907z"/>
	</g>
</g>
</svg>
