<?xml version="1.0" encoding="utf-8"?>
<!-- Generator: Adobe Illustrator 15.1.0, SVG Export Plug-In . SVG Version: 6.00 Build 0)  -->
<!DOCTYPE svg PUBLIC "-//W3C//DTD SVG 1.1//EN" "http://www.w3.org/Graphics/SVG/1.1/DTD/svg11.dtd">
<svg version="1.1" id="Layer_1" xmlns:serif="http://www.serif.com/"
	 xmlns="http://www.w3.org/2000/svg" xmlns:xlink="http://www.w3.org/1999/xlink" x="0px" y="0px" width="283.46px"
	 height="283.46px" viewBox="0 0 283.46 283.46" enable-background="new 0 0 283.46 283.46" xml:space="preserve">
<g>
	<path fill="#010001" d="M99.462,141.481c-0.006,0.261-0.023,0.52-0.024,0.782l-0.002,0.27
		C99.436,142.18,99.454,141.832,99.462,141.481z"/>
	<path fill="#010001" d="M140.928,101.042c-22.178,0-40.311,17.44-41.431,39.341c1.118-20.628,18.219-37.036,39.125-37.036
		c21.626,0,39.185,17.559,39.185,39.186s-17.559,39.184-39.185,39.184c-21.543,0-39.05-17.42-39.185-38.932
		c0.137,22.783,18.676,41.238,41.49,41.238c22.899,0,41.489-18.593,41.489-41.491C182.417,119.632,163.828,101.042,140.928,101.042z
		"/>
	<path fill="#010001" d="M90.346,142.533c0-2.007-1.629-3.634-3.633-3.634H60.308l-0.137,0.002l-0.129-0.002l-0.013,0.009
		c-2.185,0.133-2.265,1.879-1.762,3.624c-0.503,1.746-0.423,3.49,1.762,3.626l0.013,0.01l0.129-0.006l0.137,0.006h26.405
		C88.717,146.167,90.346,144.539,90.346,142.533z"/>
	<path fill="#010001" d="M221.815,138.899H195.41l-0.138,0.002l-0.128-0.002l-0.014,0.009c-2.186,0.133-2.267,1.879-1.76,3.624
		c-0.507,1.746-0.424,3.49,1.76,3.626l0.014,0.01l0.128-0.006l0.138,0.006h26.405c2.006,0,3.633-1.629,3.633-3.635
		C225.448,140.526,223.821,138.899,221.815,138.899z"/>
	<path fill="#010001" d="M140.93,193.113c-2.006,0-3.635,1.629-3.635,3.635v26.404l0.003,0.137l-0.004,0.129l0.011,0.015
		c0.133,2.185,1.877,2.266,3.624,1.762c1.744,0.504,3.49,0.423,3.624-1.762l0.012-0.015l-0.005-0.129l0.005-0.137v-26.404
		C144.565,194.742,142.936,193.113,140.93,193.113z"/>
	<path fill="#010001" d="M137.305,88.329c0.124,2.044,1.657,2.247,3.283,1.852l0.34-0.089c1.745,0.504,3.491,0.423,3.624-1.762
		l0.012-0.013l-0.005-0.128l0.005-0.137V61.645c0-2.006-1.629-3.632-3.635-3.632c-2.006,0-3.635,1.626-3.635,3.632v26.406
		l0.004,0.137l-0.004,0.128L137.305,88.329z"/>
	<path fill="#010001" d="M181.833,106.766l18.672-18.671l0.094-0.098l0.094-0.089l0.002-0.015c1.452-1.64,0.275-2.933-1.316-3.81
		c-0.877-1.593-2.17-2.768-3.81-1.318l-0.016,0.002l-0.089,0.094l-0.1,0.094l-18.671,18.671c-1.418,1.417-1.418,3.722,0,5.14
		C178.114,108.183,180.416,108.183,181.833,106.766z"/>
	<path fill="#010001" d="M103.849,179.614c-0.88-1.591-2.171-2.767-3.811-1.319l-0.015,0.004l-0.089,0.093l-0.1,0.096
		l-18.669,18.669c-1.419,1.42-1.419,3.723,0,5.141c1.417,1.418,3.72,1.418,5.14,0l18.669-18.67l0.096-0.101l0.094-0.087l0.002-0.018
		C106.616,181.781,105.438,180.49,103.849,179.614z"/>
	<path fill="#010001" d="M200.693,197.156l-0.094-0.087l-0.094-0.101l-18.672-18.672c-1.418-1.416-3.719-1.416-5.14,0
		c-1.418,1.42-1.418,3.723,0,5.141l18.671,18.671l0.1,0.097l0.089,0.092l0.016,0.002c1.64,1.451,2.933,0.273,3.81-1.317
		c1.593-0.876,2.768-2.167,1.316-3.808L200.693,197.156z"/>
	<path fill="#010001" d="M99.833,106.578l0.101,0.094l0.089,0.094l0.015,0.002c1.64,1.45,2.931,0.275,3.81-1.317
		c1.589-0.876,2.767-2.169,1.317-3.809l-0.002-0.016l-0.094-0.089l-0.096-0.098L86.304,82.768c-1.419-1.417-3.722-1.417-5.14,0
		c-1.419,1.417-1.419,3.722,0,5.139L99.833,106.578z"/>
</g>
</svg>
