<?xml version="1.0" encoding="utf-8"?>
<!-- Generator: Adobe Illustrator 15.1.0, SVG Export Plug-In . SVG Version: 6.00 Build 0)  -->
<!DOCTYPE svg PUBLIC "-//W3C//DTD SVG 1.1//EN" "http://www.w3.org/Graphics/SVG/1.1/DTD/svg11.dtd">
<svg version="1.1" id="Layer_1" xmlns:serif="http://www.serif.com/"
	 xmlns="http://www.w3.org/2000/svg" xmlns:xlink="http://www.w3.org/1999/xlink" x="0px" y="0px" width="283.46px"
	 height="283.46px" viewBox="0 0 283.46 283.46" enable-background="new 0 0 283.46 283.46" xml:space="preserve">
<g>
	<g>
		<g>
			<path fill="#010001" d="M195.951,124.921H88.201c-1.151,0-2.085-0.934-2.085-2.085s0.934-2.085,2.085-2.085h107.75
				c1.151,0,2.085,0.934,2.085,2.085S197.102,124.921,195.951,124.921z"/>
			<path fill="#010001" d="M195.951,161.059c-1.151,0-2.085-0.934-2.085-2.085s0.934-2.085,2.085-2.085
				c13.037,0,18.975-8.286,18.975-15.984s-5.938-15.984-18.975-15.984c-1.151,0-2.085-0.934-2.085-2.085s0.934-2.085,2.085-2.085
				c15.194,0,23.145,10.139,23.145,20.154C219.095,150.92,211.145,161.059,195.951,161.059z"/>
		</g>
		<g>
			<path fill="#010001" d="M174.198,107.107H66.451c-1.151,0-2.085-0.934-2.085-2.085s0.934-2.085,2.085-2.085h107.747
				c1.151,0,2.085,0.934,2.085,2.085S175.349,107.107,174.198,107.107z"/>
			<path fill="#010001" d="M174.198,107.107c-1.151,0-2.085-0.934-2.085-2.085s0.934-2.085,2.085-2.085
				c13.038,0,18.977-8.286,18.977-15.984c0-7.699-5.938-15.985-18.977-15.985c-1.151,0-2.085-0.934-2.085-2.085
				s0.934-2.085,2.085-2.085c15.196,0,23.146,10.139,23.146,20.155C197.344,96.968,189.394,107.107,174.198,107.107z"/>
		</g>
	</g>
	<path d="M156.686,173.63c4.006,1.225,7.112,3.311,9.319,6.252c2.207,2.943,3.311,6.701,3.311,11.279
		c0,6.864-2.473,12.483-7.418,16.856s-12.402,6.56-22.374,6.56c-9.482,0-16.776-2.063-21.885-6.191
		c-5.109-4.127-7.704-10.359-7.784-18.697h15.57c0.081,3.598,1.491,6.295,4.228,8.092c2.739,1.799,6.234,2.697,10.484,2.697
		c4.413,0,7.765-0.818,10.052-2.451c2.289-1.635,3.434-4.047,3.434-7.234c0-6.293-4.781-9.438-14.345-9.438h-7.97V168.97h7.112
		c8.5,0,12.75-3.064,12.75-9.195c0-2.941-1.104-5.189-3.311-6.744c-2.206-1.553-5.189-2.328-8.948-2.328
		c-4.169,0-7.501,0.961-9.993,2.883c-2.492,1.918-3.739,4.681-3.739,8.275v0.611h-15.571v-0.734c0-8.174,2.658-14.406,7.97-18.697
		c5.313-4.291,12.547-6.437,21.7-6.437c5.722,0,10.667,0.94,14.835,2.819s7.355,4.413,9.563,7.602
		c2.208,3.188,3.312,6.701,3.312,10.545C166.987,165.087,163.552,170.443,156.686,173.63L156.686,173.63z"/>
</g>
</svg>
