<?xml version="1.0" encoding="utf-8"?>
<!-- Generator: Adobe Illustrator 15.1.0, SVG Export Plug-In . SVG Version: 6.00 Build 0)  -->
<!DOCTYPE svg PUBLIC "-//W3C//DTD SVG 1.1//EN" "http://www.w3.org/Graphics/SVG/1.1/DTD/svg11.dtd">
<svg version="1.1" id="Layer_1" xmlns:serif="http://www.serif.com/"
	 xmlns="http://www.w3.org/2000/svg" xmlns:xlink="http://www.w3.org/1999/xlink" x="0px" y="0px" width="283.46px"
	 height="283.46px" viewBox="0 0 283.46 283.46" enable-background="new 0 0 283.46 283.46" xml:space="preserve">
<g>
	<path fill="none" d="M130.696,165.476c2.29,1.514,5.6,2.27,9.932,2.27c4.167,0,7.355-0.776,9.562-2.33
		c2.207-1.553,3.31-3.801,3.31-6.742c0-2.944-1.123-5.188-3.371-6.743c-2.25-1.554-5.498-2.331-9.748-2.331
		c-4.249,0-7.498,0.777-9.746,2.33c-2.248,1.555-3.371,3.799-3.371,6.744C127.264,161.696,128.409,163.964,130.696,165.476z"/>
	<path fill="none" d="M151.169,183.376c-2.532-1.84-6.049-2.76-10.542-2.76c-4.659,0-8.296,0.92-10.913,2.76
		c-2.614,1.838-3.922,4.354-3.922,7.541c0,3.269,1.286,5.863,3.861,7.783c2.576,1.922,6.152,2.881,10.728,2.881
		s8.152-0.959,10.729-2.881c2.574-1.92,3.861-4.516,3.861-7.783C154.971,187.73,153.703,185.214,151.169,183.376z"/>
	<path fill="#010001" d="M195.948,120.751H88.201c-1.151,0-2.085,0.934-2.085,2.085s0.934,2.085,2.085,2.085h107.747
		c13.038,0,18.977,8.286,18.977,15.984s-5.938,15.984-18.977,15.984c-1.151,0-2.085,0.934-2.085,2.085s0.934,2.085,2.085,2.085
		c15.196,0,23.146-10.139,23.146-20.154C219.094,130.89,211.144,120.751,195.948,120.751z"/>
	<path fill="#010001" d="M197.344,86.953c0-10.016-7.95-20.155-23.146-20.155c-1.151,0-2.085,0.934-2.085,2.085
		s0.934,2.085,2.085,2.085c13.038,0,18.977,8.286,18.977,15.985c0,7.698-5.938,15.984-18.977,15.984H66.451
		c-1.151,0-2.085,0.934-2.085,2.085s0.934,2.085,2.085,2.085h107.747C189.394,107.107,197.344,96.968,197.344,86.953z"/>
	<path d="M158.772,173.505c3.022-1.389,5.455-3.492,7.294-6.313c1.838-2.819,2.76-5.944,2.76-9.379
		c0-6.539-2.557-11.707-7.662-15.508c-5.108-3.803-12.037-5.702-20.783-5.702c-8.745,0-15.673,1.899-20.779,5.702
		c-5.109,3.801-7.664,8.969-7.664,15.508c0,3.435,0.9,6.56,2.696,9.379c1.799,2.821,4.211,4.968,7.235,6.438
		c-7.929,3.839-11.893,9.808-11.893,17.899c0,7.274,2.657,12.935,7.97,16.979c5.312,4.047,12.791,6.068,22.435,6.068
		c9.645,0,17.125-2.043,22.438-6.13c5.312-4.086,7.968-9.809,7.968-17.165C170.787,183.355,166.783,177.431,158.772,173.505z
		 M130.635,151.929c2.248-1.553,5.497-2.33,9.746-2.33c4.25,0,7.498,0.777,9.748,2.331c2.248,1.555,3.371,3.799,3.371,6.743
		c0,2.941-1.103,5.189-3.31,6.742c-2.207,1.554-5.396,2.33-9.562,2.33c-4.332,0-7.642-0.756-9.932-2.27
		c-2.287-1.512-3.432-3.78-3.432-6.803C127.264,155.728,128.387,153.484,130.635,151.929z M151.11,198.701
		c-2.577,1.922-6.153,2.881-10.729,2.881s-8.152-0.959-10.728-2.881c-2.575-1.92-3.861-4.515-3.861-7.783
		c0-3.187,1.308-5.703,3.922-7.541c2.617-1.84,6.254-2.76,10.913-2.76c4.494,0,8.01,0.92,10.542,2.76
		c2.533,1.838,3.802,4.354,3.802,7.541C154.971,194.185,153.684,196.781,151.11,198.701z"/>
</g>
</svg>
