<?xml version="1.0" encoding="utf-8"?>
<!-- Generator: Adobe Illustrator 15.1.0, SVG Export Plug-In . SVG Version: 6.00 Build 0)  -->
<!DOCTYPE svg PUBLIC "-//W3C//DTD SVG 1.1//EN" "http://www.w3.org/Graphics/SVG/1.1/DTD/svg11.dtd">
<svg version="1.1" id="Layer_1" xmlns:serif="http://www.serif.com/"
	 xmlns="http://www.w3.org/2000/svg" xmlns:xlink="http://www.w3.org/1999/xlink" x="0px" y="0px" width="283.46px"
	 height="283.46px" viewBox="0 0 283.46 283.46" enable-background="new 0 0 283.46 283.46" xml:space="preserve">
<g>
	<path fill="none" d="M167.628,148.044c-2.168-1.104-5.129-1.653-8.891-1.653c-3.84,0-6.824,0.551-8.949,1.653
		c-2.125,1.104-3.658,2.963-4.598,5.58c-0.939,2.614-1.408,6.252-1.408,10.912v13.238c0,4.66,0.469,8.297,1.408,10.911
		c0.939,2.616,2.473,4.478,4.598,5.58s5.109,1.655,8.949,1.655c3.762,0,6.723-0.553,8.891-1.655c2.164-1.104,3.718-2.964,4.656-5.58
		c0.941-2.614,1.411-6.251,1.411-10.911v-13.238c0-4.66-0.47-8.298-1.411-10.912C171.346,151.007,169.792,149.148,167.628,148.044z"
		/>
	<path fill="#010001" d="M195.949,116.316H88.2c-1.151,0-2.085,0.934-2.085,2.085s0.934,2.085,2.085,2.085h107.749
		c13.038,0,18.977,8.286,18.977,15.984c0,7.699-5.938,15.984-18.977,15.984c-1.151,0-2.085,0.934-2.085,2.085
		s0.934,2.085,2.085,2.085c15.196,0,23.146-10.139,23.146-20.154S211.145,116.316,195.949,116.316z"/>
	<path fill="#010001" d="M174.199,102.67c15.195,0,23.146-10.139,23.146-20.154c0-10.015-7.95-20.153-23.146-20.153
		c-1.151,0-2.085,0.934-2.085,2.085s0.934,2.085,2.085,2.085c13.037,0,18.975,8.286,18.975,15.983
		c0,7.697-5.936,15.98-18.968,15.983c-0.002,0-0.005,0-0.007,0H66.45c-1.151,0-2.085,0.934-2.085,2.085s0.934,2.085,2.085,2.085
		h107.739C174.192,102.669,174.196,102.67,174.199,102.67z"/>
	
		<line fill="none" stroke="#000000" stroke-width="0" stroke-linecap="round" stroke-linejoin="round" x1="128.61" y1="197.026" x2="128.61" y2="197.025"/>
	<polygon points="111.936,132.904 102.741,132.904 76.013,141.364 76.013,154.359 96.61,147.861 96.61,197.025 76.013,197.025 
		76.013,209.408 128.61,209.408 128.61,197.026 111.936,197.026 	"/>
	<path d="M158.737,132.168c-10.053,0-17.614,2.554-22.681,7.662c-5.067,5.108-7.601,12.566-7.601,22.375v18.268
		c0,9.808,2.495,17.206,7.479,22.191c4.987,4.986,12.588,7.479,22.804,7.479c10.055,0,17.613-2.555,22.68-7.662
		c5.067-5.109,7.602-12.566,7.602-22.374v-18.269c0-9.891-2.471-17.309-7.416-22.251
		C176.658,134.641,169.037,132.168,158.737,132.168z M173.696,177.775c0,4.66-0.47,8.297-1.411,10.911
		c-0.938,2.616-2.492,4.476-4.656,5.58c-2.168,1.103-5.129,1.655-8.891,1.655c-3.84,0-6.824-0.553-8.949-1.655
		s-3.658-2.964-4.598-5.58c-0.939-2.614-1.408-6.251-1.408-10.911v-13.238c0-4.66,0.469-8.298,1.408-10.912
		c0.939-2.617,2.473-4.476,4.598-5.58c2.125-1.103,5.109-1.653,8.949-1.653c3.762,0,6.723,0.55,8.891,1.653
		c2.164,1.104,3.718,2.963,4.656,5.58c0.941,2.614,1.411,6.252,1.411,10.912V177.775z"/>
</g>
</svg>
