<?xml version="1.0" encoding="utf-8"?>
<!-- Generator: Adobe Illustrator 15.1.0, SVG Export Plug-In . SVG Version: 6.00 Build 0)  -->
<!DOCTYPE svg PUBLIC "-//W3C//DTD SVG 1.1//EN" "http://www.w3.org/Graphics/SVG/1.1/DTD/svg11.dtd">
<svg version="1.1" xmlns="http://www.w3.org/2000/svg" xmlns:xlink="http://www.w3.org/1999/xlink" x="0px" y="0px"
	 width="283.46px" height="283.46px" viewBox="0 0 283.46 283.46" enable-background="new 0 0 283.46 283.46" xml:space="preserve">
<g id="Layer_3">
	<rect x="-453.27" y="42.73" fill="none" width="118.5" height="52.5"/>
	<text transform="matrix(1 0 0 1 -453.27 51.25)" font-family="'MyriadPro-Regular'" font-size="12">New Moon</text>
	<rect x="545.356" y="42.73" fill="none" width="118.5" height="52.5"/>
	<text transform="matrix(1 0 0 1 545.356 51.25)" font-family="'MyriadPro-Regular'" font-size="12">Full Moon</text>
	<rect x="42.858" y="-283.158" fill="none" width="118.5" height="52.5"/>
	<text transform="matrix(1 0 0 1 42.8584 -274.6382)" font-family="'MyriadPro-Regular'" font-size="12">Third Quarter</text>
	<rect x="42.858" y="373.81" fill="none" width="118.5" height="52.5"/>
	<text transform="matrix(1 0 0 1 42.8584 382.3296)" font-family="'MyriadPro-Regular'" font-size="12">First Quarter</text>
</g>
<g id="Layer_4">
</g>
<g id="Layer_2">
	<g>
		<path d="M-402.938-101.435c-15.014,0-29.607,5.327-41.091,15c-14.07,11.854-22.344,29.192-22.7,47.566l-0.013,0.432
			c-0.009,0.274-0.018,0.548-0.018,0.824c0,35.191,28.63,63.821,63.822,63.821c35.191,0,63.821-28.63,63.821-63.821
			C-339.117-72.804-367.747-101.435-402.938-101.435z M-402.938,23.375c-33.682,0-60.987-27.305-60.987-60.988
			c0-0.402,0.022-0.799,0.03-1.2c0.354-18.235,8.699-34.506,21.692-45.453c10.61-8.939,24.304-14.334,39.264-14.334
			c33.682,0,60.987,27.305,60.987,60.987C-341.952-3.931-369.256,23.375-402.938,23.375z"/>
		<path d="M-402.938-98.6c-14.96,0-28.654,5.395-39.264,14.334c0.569,1.569,2.655,1.625,2.904,3.518c3.99-1.34,5.9-4.76,10-6
			c4,0,7.99,0,11.99,0c7.42,3.25,12.3,9.041,14,18c-0.78,7.881-3.27,14.061-9,16.99c0.32,1.79,5.29,3.92,2,6
			c1.5,2.17,5.01,2.329,5,6c1.34-1.421,5.669-1.421,7,0c0,1.67,0,3.34,0,5c-1.18,1.148-3.529,1.13-6,1c-2.71,0.619-2.49,4.18-6,4
			c-1,0-2,0-3,0c-4.18-1.15-6.77-3.891-6-10c0-0.33,0-0.66,0-1c3.68-2,3.83-2.99,3-8c-7.25,3.551-15.41-2.16-19.99-1
			c1.38,3.279,4.59,4.739,7,7c0.53,3.471,2.67,5.329,3,9c-0.32,4.02-0.7,7.971-3,10c0.27,2.061,2.67,2,4,3c2.27-0.83-2-6.141,1-8
			c4.6-1.271,4.84,1.819,6.99,3c11.61-0.841,16.279,7.971,14,18c-1.44,0.561-2.44,1.561-3,3c8.759-3.25,16.099,3.1,17,11
			c0.381,17.509-26.38,17.509-26,0c0.17-2.83,1.84-4.171,2-7c-5.75,0.42-9.51-1.15-10.99-5c-1.62,2.38-2.62,5.38-5,7
			c-4.32,0.648-5.61-1.73-8-3c-1.11-4.08-0.21-6.08,2-9c-0.43-1.91-2.86-1.811-2-5c-15.17,4.34-27.33-6.891-24-21
			c-0.186-1.365-1.124-1.977-2.596-2.056c-0.008,0.401-0.03,0.798-0.03,1.2c0,33.683,27.305,60.988,60.987,60.988
			s60.987-27.305,60.987-60.988C-341.952-71.295-369.256-98.6-402.938-98.6z M-371.309-23.758c-1.471-8.54,8.42-9.72,12-5
			c0,2.34,0,4.67,0,7C-363.04-17.707-369.348-18.798-371.309-23.758z M-351.309-65.748c2.301,10.37-8.561,12.041-12,6
			C-365.28-68.947-355.239-70.798-351.309-65.748z M-395.309-46.758c-4.41,2.619-10.01-0.98-12-4c-0.73-2.72,1.99-2.01,2-3.99
			C-400.178-53.878-394.819-53.238-395.309-46.758z M-397.309-71.748c5.67-6.119,17.221-5.75,22,1c0.25,3.41,2.529,4.801,2,9
			c5.449,2.551,11.029,4.971,12,11.99c3.221,0.221,4.23-1.761,8-1c2.119,1.551,3.721,3.61,6,5c5.35,11.13-12.74,18.301-17,8
			c-9.07,8.21-25.66,2.301-24-12C-397.45-50.878-402.44-62.488-397.309-71.748z"/>
		<path d="M-407.309-4.758c-0.85-0.189-0.94,0.391-1,1C-407.459-3.578-407.359-4.148-407.309-4.758z"/>
		<path d="M-409.309-3.758c-1.44,0.561-2.44,1.561-3,3C-410.869-1.318-409.869-2.318-409.309-3.758z"/>
	</g>
	<g>
		<path d="M581.021-101.435c-15.014,0-29.607,5.327-41.091,15c-14.07,11.854-22.344,29.192-22.7,47.566l-0.013,0.432
			c-0.01,0.274-0.019,0.549-0.019,0.825c0,35.191,28.631,63.821,63.822,63.821s63.821-28.63,63.821-63.821
			C644.842-72.804,616.212-101.435,581.021-101.435z M581.021,23.375c-33.682,0-60.986-27.305-60.986-60.988
			c0-0.402,0.021-0.799,0.029-1.2c0.354-18.235,8.699-34.506,21.693-45.453c10.609-8.939,24.304-14.334,39.264-14.334
			c33.682,0,60.986,27.305,60.986,60.987C642.007-3.931,614.703,23.375,581.021,23.375z"/>
		<path d="M576.651-4.758c-0.851-0.189-0.94,0.391-1,1C576.5-3.578,576.601-4.148,576.651-4.758z"/>
		<path d="M574.651-3.758c-1.44,0.561-2.44,1.561-3,3C573.091-1.318,574.091-2.318,574.651-3.758z"/>
		<path fill="#020202" d="M619.65-37.758c4.26,10.301,22.35,3.13,17-8c-2.279-1.39-3.881-3.449-6-5c-3.77-0.761-4.779,1.221-8,1
			c-0.971-7.02-6.551-9.439-12-11.99c0.529-4.199-1.75-5.59-2-9c-4.779-6.75-16.33-7.119-22-1c-5.131,9.26-0.141,20.87,9,21.99
			C593.99-35.457,610.58-29.548,619.65-37.758z"/>
		<path fill="#020202" d="M620.65-59.748c3.439,6.041,14.301,4.37,12-6C628.72-70.798,618.679-68.947,620.65-59.748z"/>
		<path fill="#020202" d="M624.65-28.758c-3.58-4.72-13.471-3.54-12,5c1.961,4.96,8.27,6.051,12,2
			C624.65-24.088,624.65-26.418,624.65-28.758z"/>
		<path fill="#020202" d="M578.651-54.748c-0.011,1.98-2.73,1.271-2,3.99c1.989,3.02,7.589,6.619,11.999,4
			C589.14-53.238,583.781-53.878,578.651-54.748z"/>
		<path fill="#020202" d="M522.661-36.758c-3.33,14.109,8.83,25.34,24,21c-0.86,3.189,1.569,3.09,2,5c-2.21,2.92-3.11,4.92-2,9
			c2.39,1.27,3.681,3.648,8,3c2.38-1.62,3.38-4.62,5-7c1.479,3.85,5.24,5.42,10.99,5c-0.16,2.829-1.83,4.17-2,7
			c-0.38,17.509,26.38,17.509,25.999,0c-0.9-7.9-8.24-14.25-16.999-11c0.56-1.439,1.56-2.439,3-3c2.278-10.029-2.39-18.841-14-18
			c-2.15-1.181-2.39-4.271-6.99-3c-3,1.859,1.271,7.17-1,8c-1.33-1-3.729-0.939-4-3c2.3-2.029,2.681-5.98,3-10
			c-0.33-3.671-2.47-5.529-3-9c-2.41-2.261-5.62-3.721-7-7c4.58-1.16,12.74,4.551,19.99,1c0.829,5.01,0.68,6-3,8c0,0.34,0,0.67,0,1
			c-0.771,6.109,1.819,8.85,6,10c1,0,2,0,3,0c3.51,0.18,3.29-3.381,6-4c2.47,0.13,4.819,0.148,5.999-1c0-1.66,0-3.33,0-5
			c-1.33-1.421-5.659-1.421-6.999,0c0.01-3.671-3.5-3.83-5-6c3.29-2.08-1.681-4.21-2-6c5.729-2.93,8.22-9.109,9-16.99
			c-1.7-8.959-6.58-14.75-14-18c-4,0-7.99,0-11.99,0c-4.101,1.24-6.01,4.66-10,6c-0.249-1.893-2.335-1.949-2.903-3.518
			c-12.994,10.947-21.34,27.217-21.693,45.453C521.537-38.735,522.474-38.123,522.661-36.758z M576.651-4.758
			c-0.05,0.609-0.15,1.18-1,1C575.71-4.367,575.8-4.947,576.651-4.758z M574.651-3.758c-0.56,1.439-1.56,2.439-3,3
			C572.21-2.197,573.21-3.197,574.651-3.758z"/>
	</g>
	<g>
		<path d="M80.954,230.734c-15.015,0-29.607,5.328-41.091,15.002c-14.07,11.854-22.344,29.191-22.7,47.565l-0.013,0.433
			c-0.009,0.274-0.018,0.549-0.018,0.824c0,35.191,28.63,63.821,63.822,63.821s63.822-28.63,63.822-63.821
			C144.776,259.366,116.146,230.734,80.954,230.734z M80.744,355.193c-18.731,0-35.481-8.452-46.668-21.742
			c-1.116-1.326-2.177-2.7-3.179-4.119c-7.014-9.931-11.139-22.045-11.139-35.128c0-0.196,0.013-0.391,0.015-0.587
			c0.007-0.203,0.011-0.407,0.015-0.612c0-0.009,0.001-0.017,0.001-0.024c0.022-1.118,0.075-2.229,0.156-3.33
			c0.002-0.029,0.004-0.058,0.006-0.086c0.083-1.097,0.194-2.186,0.333-3.265c0.003-0.021,0.005-0.042,0.008-0.063
			c0.443-3.396,1.17-6.699,2.147-9.895c1.564-5.119,3.779-9.954,6.558-14.402c0.003-0.005,0.006-0.009,0.009-0.014
			c0.547-0.876,1.118-1.736,1.708-2.582c0.047-0.066,0.095-0.132,0.142-0.199c0.552-0.784,1.123-1.556,1.711-2.313
			c0.072-0.093,0.145-0.185,0.217-0.277c0.575-0.731,1.167-1.449,1.773-2.153c0.083-0.096,0.166-0.192,0.25-0.288
			c0.613-0.702,1.243-1.39,1.888-2.063c0.078-0.081,0.155-0.164,0.233-0.244c0.675-0.698,1.367-1.38,2.075-2.045
			c0.048-0.045,0.096-0.092,0.144-0.137c0.701-0.654,1.42-1.29,2.152-1.91c0.062-0.053,0.12-0.109,0.182-0.162
			c0.602-0.507,1.217-0.999,1.838-1.483c0.091-0.071,0.18-0.144,0.271-0.214c0.581-0.446,1.172-0.881,1.769-1.308
			c0.143-0.102,0.286-0.204,0.43-0.306c0.576-0.403,1.159-0.797,1.75-1.182c0.171-0.11,0.343-0.221,0.515-0.33
			c0.583-0.371,1.171-0.734,1.767-1.086c0.18-0.106,0.362-0.208,0.543-0.313c0.603-0.348,1.21-0.69,1.826-1.018
			c0.154-0.081,0.311-0.157,0.465-0.238c2.115-1.1,4.298-2.082,6.549-2.933c0.1-0.037,0.198-0.08,0.298-0.117
			c0.54-0.201,1.089-0.383,1.636-0.568c0.352-0.12,0.7-0.244,1.055-0.357c0.495-0.158,0.997-0.302,1.498-0.448
			c0.417-0.121,0.833-0.243,1.254-0.355c0.476-0.128,0.955-0.245,1.436-0.361c0.457-0.11,0.915-0.218,1.376-0.317
			c0.462-0.101,0.927-0.195,1.394-0.285c0.491-0.095,0.985-0.183,1.481-0.265c0.449-0.075,0.898-0.149,1.351-0.215
			c0.53-0.076,1.064-0.141,1.599-0.203c0.428-0.05,0.854-0.104,1.285-0.145c0.595-0.058,1.195-0.097,1.794-0.137
			c0.378-0.025,0.754-0.059,1.135-0.077c0.862-0.041,1.73-0.061,2.601-0.065c0.117-0.001,0.232-0.009,0.35-0.009
			c0.258,0,0.513,0.014,0.77,0.018v0.003c33.325,0.414,60.216,27.543,60.216,60.967C141.73,327.887,114.425,355.193,80.744,355.193z
			"/>
		<path fill="#020202" d="M119.373,294.06c4.26,10.301,22.35,3.13,17-8c-2.279-1.39-3.881-3.449-6-5c-3.77-0.761-4.779,1.221-8,1
			c-0.971-7.02-6.551-9.439-12-11.99c0.529-4.199-1.75-5.59-2-9c-4.779-6.75-16.33-7.119-22-1c-5.131,9.26-0.141,20.87,9,21.99
			C93.712,296.361,110.302,302.27,119.373,294.06z"/>
		<path fill="#020202" d="M120.373,272.07c3.439,6.041,14.301,4.37,12-6C128.443,261.02,118.402,262.871,120.373,272.07z"/>
		<path fill="#020202" d="M112.373,308.06c1.961,4.96,8.27,6.051,12,2c0-2.33,0-4.66,0-7
			C120.792,298.34,110.902,299.52,112.373,308.06z"/>
		<path fill="#020202" d="M94.373,338.06c-0.754-6.613-6.026-12.116-12.859-11.836v24.963
			C88.062,351.125,94.562,346.752,94.373,338.06z"/>
		<path fill="#020202" d="M19.788,292.98c0,0.008-0.001,0.016-0.001,0.024h0C19.788,292.997,19.788,292.988,19.788,292.98z"/>
		<path fill="#020202" d="M85.373,297.06c0-1.66,0-3.33,0-5c-0.722-0.771-2.327-1.12-3.859-1.055v7.108
			C83.133,298.093,84.544,297.867,85.373,297.06z"/>
		<path fill="#020202" d="M22.438,276.342c1.565-5.119,3.78-9.954,6.558-14.402C26.217,266.388,24.003,271.223,22.438,276.342z"/>
		<path fill="#020202" d="M39.146,249.625c0.701-0.654,1.42-1.289,2.152-1.91C40.566,248.334,39.847,248.97,39.146,249.625z"/>
		<path fill="#020202" d="M44.383,251.07c3.99-1.34,5.899-4.76,10-6c4,0,7.99,0,11.99,0c7.42,3.25,12.3,9.041,14,18
			c-0.78,7.881-3.271,14.061-9,16.99c0.319,1.79,5.29,3.92,2,6c1.5,2.17,5.01,2.329,5,6c0.612-0.649,1.85-0.999,3.14-1.055v-5.813
			c2.188,0.934,4.67,1.167,6.859-0.133c0.389-5.147-2.914-6.607-6.859-7.427v-44.396v-0.003c-0.257-0.004-0.512-0.018-0.77-0.018
			c-0.117,0-0.232,0.008-0.35,0.009c-0.871,0.005-1.739,0.024-2.601,0.065c-0.38,0.019-0.756,0.052-1.135,0.077
			c-0.6,0.04-1.2,0.079-1.794,0.137c-0.431,0.041-0.857,0.095-1.285,0.145c-0.535,0.063-1.068,0.127-1.599,0.203
			c-0.453,0.065-0.902,0.14-1.351,0.215c-0.496,0.082-0.99,0.17-1.481,0.265c-0.467,0.09-0.932,0.185-1.394,0.285
			c-0.461,0.1-0.919,0.207-1.376,0.317c-0.48,0.116-0.96,0.233-1.436,0.361c-0.42,0.112-0.837,0.234-1.254,0.355
			c-0.501,0.146-1.003,0.29-1.498,0.448c-0.354,0.113-0.703,0.237-1.055,0.357c-0.547,0.186-1.096,0.367-1.636,0.568
			c-0.1,0.037-0.198,0.08-0.298,0.117c-2.25,0.851-4.434,1.833-6.549,2.933c-0.154,0.081-0.311,0.157-0.465,0.238
			c-0.616,0.327-1.223,0.67-1.826,1.018c-0.181,0.104-0.363,0.206-0.543,0.313c-0.596,0.352-1.184,0.715-1.767,1.086
			c-0.172,0.109-0.344,0.22-0.515,0.33c-0.59,0.385-1.174,0.778-1.75,1.182c-0.144,0.102-0.287,0.204-0.43,0.306
			c-0.597,0.427-1.188,0.861-1.769,1.308c-0.091,0.07-0.181,0.143-0.271,0.214c-0.622,0.484-1.236,0.977-1.838,1.483
			C42.048,249.121,44.134,249.177,44.383,251.07z"/>
		<path fill="#020202" d="M80.744,355.192c0.258,0,0.513-0.018,0.77-0.02v-3.985c-6.641,0.063-13.332-4.31-13.14-13.127
			c0.17-2.83,1.84-4.171,2-7c-5.75,0.42-9.511-1.15-10.99-5c-1.62,2.38-2.62,5.38-5,7c-4.319,0.648-5.61-1.73-8-3
			c-1.11-4.08-0.21-6.08,2-9c-0.431-1.91-2.86-1.811-2-5c-15.17,4.34-27.33-6.891-24-21c-0.187-1.365-1.124-1.977-2.596-2.056
			c-0.004,0.204-0.014,0.407-0.016,0.612c-0.001,0.196-0.015,0.391-0.015,0.587c0,13.083,4.125,25.197,11.139,35.128
			c1.002,1.419,2.063,2.793,3.179,4.119C45.262,346.74,62.013,355.192,80.744,355.192z"/>
		<path fill="#020202" d="M73.374,302.06c-1,0-2,0-3,0c-4.181-1.15-6.771-3.891-6-10c0-0.33,0-0.66,0-1c3.68-2,3.829-2.99,3-8
			c-7.25,3.551-15.41-2.16-19.99-1c1.38,3.279,4.59,4.739,7,7c0.53,3.471,2.67,5.329,3,9c-0.319,4.02-0.7,7.971-3,10
			c0.271,2.061,2.67,2,4,3c2.271-0.83-2-6.141,1-8c4.601-1.271,4.84,1.819,6.99,3c11.61-0.841,16.278,7.971,14,18
			c-1.44,0.561-2.44,1.561-3,3c1.427-0.529,2.81-0.781,4.14-0.836v-28.11c-0.686,0.009-1.405-0.015-2.14-0.054
			C76.664,298.679,76.883,302.24,73.374,302.06z"/>
		<path fill="#020202" d="M76.374,327.06c-0.851-0.189-0.94,0.391-1,1C76.223,328.24,76.324,327.669,76.374,327.06z"/>
		<path fill="#020202" d="M74.374,328.06c-1.44,0.561-2.44,1.561-3,3C72.814,330.5,73.814,329.5,74.374,328.06z"/>
		<path fill="#FDFFFF" d="M22.383,295.06c-3.33,14.109,8.83,25.34,24,21c-0.86,3.189,1.569,3.09,2,5c-2.21,2.92-3.11,4.92-2,9
			c2.39,1.27,3.681,3.648,8,3c2.38-1.62,3.38-4.62,5-7c1.479,3.85,5.24,5.42,10.99,5c-0.16,2.829-1.83,4.17-2,7
			c-0.191,8.817,6.499,13.189,13.14,13.127v-24.963c-1.33,0.055-2.713,0.307-4.14,0.836c0.56-1.439,1.56-2.439,3-3
			c2.278-10.029-2.39-18.841-14-18c-2.15-1.181-2.39-4.271-6.99-3c-3,1.859,1.271,7.17-1,8c-1.33-1-3.729-0.939-4-3
			c2.3-2.029,2.681-5.98,3-10c-0.33-3.671-2.47-5.529-3-9c-2.41-2.261-5.62-3.721-7-7c4.58-1.16,12.74,4.551,19.99,1
			c0.829,5.01,0.68,6-3,8c0,0.34,0,0.67,0,1c-0.771,6.109,1.819,8.85,6,10c1,0,2,0,3,0c3.51,0.18,3.29-3.381,6-4
			c0.735,0.039,1.454,0.063,2.14,0.054v-7.108c-1.29,0.056-2.528,0.405-3.14,1.055c0.01-3.671-3.5-3.83-5-6
			c3.29-2.08-1.681-4.21-2-6c5.729-2.93,8.22-9.109,9-16.99c-1.7-8.959-6.58-14.75-14-18c-4,0-7.99,0-11.99,0
			c-4.101,1.24-6.01,4.66-10,6c-0.249-1.893-2.335-1.949-2.903-3.518c-0.062,0.053-0.12,0.109-0.182,0.162
			c-0.731,0.621-1.451,1.256-2.152,1.91c-0.048,0.045-0.096,0.092-0.144,0.137c-0.708,0.665-1.399,1.347-2.075,2.045
			c-0.078,0.08-0.155,0.163-0.233,0.244c-0.645,0.674-1.274,1.361-1.888,2.063c-0.083,0.096-0.167,0.192-0.25,0.288
			c-0.607,0.704-1.198,1.422-1.773,2.153c-0.072,0.093-0.146,0.185-0.217,0.277c-0.588,0.757-1.159,1.528-1.711,2.313
			c-0.047,0.067-0.095,0.133-0.142,0.199c-0.59,0.846-1.161,1.706-1.708,2.582c-0.003,0.005-0.006,0.009-0.009,0.014
			c-2.778,4.448-4.993,9.283-6.558,14.402c-0.977,3.195-1.704,6.499-2.147,9.895c-0.002,0.021-0.005,0.042-0.008,0.063
			c-0.14,1.079-0.251,2.168-0.333,3.265c-0.002,0.028-0.004,0.057-0.006,0.086c-0.082,1.102-0.134,2.212-0.156,3.33
			c0,0.008,0,0.017,0,0.024C21.259,293.083,22.197,293.695,22.383,295.06z M76.374,327.06c-0.05,0.609-0.15,1.18-1,1
			C75.433,327.451,75.523,326.871,76.374,327.06z M74.374,328.06c-0.56,1.439-1.56,2.439-3,3
			C71.933,329.621,72.933,328.621,74.374,328.06z"/>
	</g>
	<rect x="396.368" y="-212.493" transform="matrix(1 0.0086 -0.0086 1 -1.587 -3.9306)" fill="none" width="118.5" height="52.5"/>
	<text transform="matrix(1 0 0 1 396.5894 -204.4824)" font-family="'MyriadPro-Regular'" font-size="12">Waning Gibbous</text>
	<rect x="390.073" y="302.404" fill="none" width="118.5" height="52.5"/>
	<text transform="matrix(1 0 0 1 390.0728 310.9243)" font-family="'MyriadPro-Regular'" font-size="12">Waxing Gibbous</text>
	<rect x="-303.482" y="292.261" fill="none" width="118.5" height="52.5"/>
	<text transform="matrix(1 0 0 1 -303.4819 300.7808)" font-family="'MyriadPro-Regular'" font-size="12">Waxing Crescent</text>
	<rect x="-306.443" y="-236.201" fill="none" width="118.5" height="52.5"/>
	<text transform="matrix(1 0 0 1 -306.4434 -227.6812)" font-family="'MyriadPro-Regular'" font-size="12">Waning Crescent</text>
</g>
<g id="Layer_1">
	<g>
		<path d="M432.663-356.658c-15.014,0-29.607,5.327-41.091,15c-14.07,11.854-22.344,29.192-22.7,47.566l-0.013,0.432
			c-0.01,0.274-0.019,0.548-0.019,0.824c0,35.191,28.631,63.821,63.822,63.821s63.821-28.63,63.821-63.821
			C496.484-328.027,467.854-356.658,432.663-356.658z M435.345-231.941c-1.098,0.059-2.201,0.092-3.313,0.092
			c-33.682,0-60.986-27.305-60.986-60.988c0-0.402,0.021-0.799,0.029-1.2c0.354-18.235,8.699-34.506,21.693-45.453
			c10.609-8.939,24.304-14.334,39.264-14.334c0.801,0,1.594,0.03,2.386,0.06c32.574,1.255,58.601,28.045,58.601,60.927
			C493.019-260.265,467.486-233.662,435.345-231.941z"/>
		<path d="M427.663-259.981c-0.851-0.189-0.94,0.391-1,1C427.512-258.802,427.613-259.372,427.663-259.981z"/>
		<path d="M425.663-258.981c-1.44,0.561-2.44,1.561-3,3C424.103-256.542,425.103-257.542,425.663-258.981z"/>
		<path fill="#020202" d="M437.662-326.971c-5.131,9.26-0.141,20.87,9,21.99c-1.396,12.032,10.124,18.121,19.217,14.862
			c0.048-0.778,0.109-1.542,0.134-2.343c-0.09-11.9-3.55-21.949-6.75-29.25c-1.31-2.996-1.936-6.314-4.445-8.202
			C449.303-332.47,441.867-331.51,437.662-326.971z"/>
		<path fill="#020202" d="M463.662-278.981c0.152,0.385,0.339,0.738,0.54,1.076c0.505-2.348,0.926-4.779,1.238-7.319
			C463.988-283.968,463.158-281.907,463.662-278.981z"/>
		<path fill="#020202" d="M429.663-309.971c-0.011,1.98-2.73,1.271-2,3.99c1.989,3.02,7.589,6.619,11.999,4
			C440.152-308.461,434.792-309.101,429.663-309.971z"/>
		<path fill="#020202" d="M373.672-291.981c-3.33,14.109,8.83,25.339,24,21c-0.86,3.189,1.569,3.09,2,5c-2.21,2.92-3.11,4.92-2,9
			c2.39,1.27,3.681,3.648,8,3c2.38-1.619,3.38-4.619,5-7c1.479,3.85,5.24,5.42,10.99,5c-0.16,2.83-1.83,4.17-2,7
			c-0.38,17.51,26.38,17.51,25.999,0c-0.9-7.9-8.24-14.25-16.999-11c0.56-1.439,1.56-2.439,3-3c2.278-10.029-2.39-18.84-14-18
			c-2.15-1.18-2.39-4.271-6.99-3c-3,1.859,1.271,7.17-1,8c-1.33-1-3.729-0.939-4-3c2.3-2.029,2.681-5.98,3-10
			c-0.33-3.671-2.47-5.529-3-9c-2.41-2.261-5.62-3.721-7-7c4.58-1.16,12.74,4.551,19.99,1c0.829,5.01,0.68,6-3,8c0,0.34,0,0.67,0,1
			c-0.771,6.109,1.819,8.85,6,10c1,0,2,0,3,0c3.51,0.18,3.29-3.381,6-4c2.47,0.13,4.819,0.148,5.999-1c0-1.66,0-3.33,0-5
			c-1.33-1.421-5.659-1.421-6.999,0c0.01-3.671-3.5-3.83-5-6c3.29-2.08-1.681-4.21-2-6c5.729-2.93,8.22-9.109,9-16.99
			c-1.7-8.959-6.58-14.75-14-18c-4,0-7.99,0-11.99,0c-4.101,1.24-6.01,4.66-10,6c-0.249-1.893-2.335-1.949-2.903-3.518
			c-12.994,10.947-21.34,27.217-21.693,45.453C372.548-293.958,373.486-293.346,373.672-291.981z M427.663-259.981
			c-0.05,0.609-0.15,1.18-1,1C426.722-259.591,426.812-260.171,427.663-259.981z M425.663-258.981c-0.56,1.439-1.56,2.439-3,3
			C423.222-257.421,424.222-258.421,425.663-258.981z"/>
		<path d="M434.418-353.763c0.343,0.237,0.653,0.434,0.844,0.551c3.31,2.689,6.31,5.689,9,9c4.149,4.1,8.16,8.34,10.5,14.25
			c0.02,0.015,0.034,0.033,0.055,0.048c1.92,0.89,3.61,2.199,4.845,3.943c0.25,3.41,2.529,4.801,2,9
			c5.449,2.551,11.029,4.971,12,11.99c3.221,0.221,4.23-1.761,8-1c2.119,1.551,3.721,3.61,6,5c5.35,11.13-12.74,18.3-17,8
			c-1.439,1.303-3.068,2.247-4.783,2.862c-0.102,1.676-0.243,3.312-0.438,4.895c2.788-2.412,7.868-1.859,10.222,1.243
			c0,2.34,0,4.67,0,7c-3.441,3.736-9.067,3.09-11.46-0.924c-1.114,5.181-2.609,9.98-4.189,14.694c-4.011,7.49-8.58,14.42-13.5,21
			c-2.95,1.801-4.55,4.949-7.5,6.75c-0.326,2.07-2.988,1.803-3.667,3.521c32.141-1.721,57.674-28.324,57.674-60.896
			C493.019-325.718,466.993-352.508,434.418-353.763z M471.662-314.971c-1.971-9.199,8.07-11.05,12-6
			C485.962-310.601,475.101-308.93,471.662-314.971z"/>
	</g>
	<g>
		<path d="M425.928,158.367c-15.014,0-29.607,5.327-41.091,15.001c-14.07,11.854-22.344,29.191-22.7,47.565l-0.013,0.433
			c-0.01,0.274-0.019,0.549-0.019,0.824c0,35.191,28.631,63.821,63.822,63.821s63.821-28.63,63.821-63.821
			C489.75,186.998,461.12,158.367,425.928,158.367z M425.738,283.048c-1.027,0-2.049-0.027-3.064-0.077
			c-32.258-1.597-57.922-28.255-57.922-60.91c0-0.402,0.021-0.8,0.029-1.2c0.354-18.235,8.699-34.506,21.693-45.453
			c10.186-8.581,23.218-13.883,37.479-14.294c0.594-0.017,1.187-0.04,1.784-0.04c33.682,0,60.986,27.305,60.986,60.987
			S459.419,283.048,425.738,283.048z"/>
		<path d="M421.368,254.917c-0.851-0.189-0.94,0.391-1,1C421.217,256.096,421.318,255.526,421.368,254.917z"/>
		<path d="M419.368,255.917c-1.44,0.561-2.44,1.561-3,3C417.808,258.356,418.808,257.356,419.368,255.917z"/>
		<path fill="#020202" d="M464.367,221.917c4.26,10.301,22.35,3.13,17-8c-2.279-1.39-3.881-3.449-6-5c-3.77-0.761-4.779,1.221-8,1
			c-0.971-7.02-6.551-9.439-12-11.99c0.529-4.199-1.75-5.59-2-9c-4.779-6.75-16.33-7.119-22-1c-5.131,9.26-0.141,20.87,9,21.99
			C438.707,224.217,455.296,230.126,464.367,221.917z"/>
		<path fill="#020202" d="M465.367,199.926c3.439,6.041,14.301,4.37,12-6C473.437,188.876,463.396,190.727,465.367,199.926z"/>
		<path fill="#020202" d="M469.367,230.917c-3.58-4.72-13.471-3.54-12,5c1.961,4.96,8.27,6.051,12,2
			C469.367,235.586,469.367,233.256,469.367,230.917z"/>
		<path fill="#020202" d="M423.368,204.926c-0.011,1.98-2.73,1.271-2,3.99c1.989,3.02,7.589,6.619,11.999,4
			C433.857,206.436,428.498,205.796,423.368,204.926z"/>
		<path fill="#020202" d="M393.655,209.774c4.72-0.082,12.092,4.386,18.713,1.143c0.829,5.01,0.68,6-3,8c0,0.34,0,0.67,0,1
			c-0.771,6.109,1.819,8.85,6,10c1,0,2,0,3,0c3.51,0.18,3.29-3.381,6-4c2.47,0.13,4.819,0.148,5.999-1c0-1.66,0-3.33,0-5
			c-1.33-1.421-5.659-1.421-6.999,0c0.01-3.671-3.5-3.83-5-6c3.29-2.08-1.681-4.21-2-6c5.729-2.93,8.22-9.109,9-16.99
			c-1.682-8.86-6.477-14.617-13.759-17.887c-2.341,2.916-4.818,5.694-6.871,8.896C399.643,189.816,395.85,198.997,393.655,209.774z"
			/>
		<path fill="#020202" d="M400.238,255.436c0.52,0.937,1.058,1.854,1.61,2.758c0.885-1.384,1.61-2.928,2.529-4.277
			c1.479,3.85,5.24,5.42,10.99,5c-0.16,2.829-1.83,4.17-2,7c-0.38,17.509,26.38,17.509,25.999,0c-0.9-7.9-8.24-14.25-16.999-11
			c0.56-1.439,1.56-2.439,3-3c2.278-10.029-2.39-18.841-14-18c-2.15-1.181-2.39-4.271-6.99-3c-3,1.859,1.271,7.17-1,8
			c-1.33-1-3.729-0.939-4-3c2.3-2.029,2.681-5.98,3-10c-0.33-3.671-2.47-5.529-3-9c-1.966-1.844-4.447-3.17-6.05-5.369
			c-0.207,1.119-0.418,2.235-0.59,3.389C391.698,231.977,395.208,244.466,400.238,255.436z M421.368,254.917
			c-0.05,0.609-0.15,1.18-1,1C420.427,255.307,420.517,254.727,421.368,254.917z M419.368,255.917c-0.56,1.439-1.56,2.439-3,3
			C416.927,257.477,417.927,256.477,419.368,255.917z"/>
		<path fill="#020202" d="M420.488,280.187c-2.33-1.17-3.931-3.07-6-4.5c-4.271-5.773-8.824-11.265-12.64-17.493
			c-0.675,1.056-1.44,2.021-2.471,2.723c-4.319,0.648-5.61-1.73-8-3c-1.11-4.08-0.21-6.08,2-9c-0.431-1.91-2.86-1.811-2-5
			c-15.17,4.34-27.33-6.891-24-21c-0.187-1.365-1.124-1.978-2.597-2.056c-0.008,0.4-0.029,0.798-0.029,1.2
			c0,32.655,25.664,59.313,57.922,60.91C422.312,281.674,420.696,281.634,420.488,280.187z"/>
		<path fill="#020202" d="M393.328,211.547c0.109-0.592,0.209-1.191,0.327-1.773c-0.447,0.008-0.88,0.042-1.277,0.143
			C392.632,210.522,392.964,211.049,393.328,211.547z"/>
		<path fill="#020202" d="M389.377,178.926c3.99-1.34,5.899-4.76,10-6c4,0,7.99,0,11.99,0c0.082,0.036,0.159,0.076,0.241,0.113
			c0.999-1.245,1.976-2.513,2.879-3.854c2.46-1.289,3.539-3.959,6-5.25c0.928-1.167,2.314-1.877,3.466-2.822
			c-14.262,0.411-27.294,5.713-37.479,14.294C387.042,176.978,389.128,177.033,389.377,178.926z"/>
	</g>
	<g>
		<path d="M-252.521,148.096c-15.014,0-29.607,5.327-41.091,15.001c-14.07,11.854-22.344,29.191-22.7,47.565l-0.013,0.433
			c-0.009,0.274-0.018,0.549-0.018,0.824c0,35.191,28.63,63.821,63.822,63.821c35.191,0,63.821-28.63,63.821-63.821
			C-188.7,176.727-217.33,148.096-252.521,148.096z M-249.838,272.813c-1.097,0.059-2.2,0.093-3.312,0.093
			c-33.683,0-60.987-27.305-60.987-60.988c0-0.402,0.022-0.799,0.03-1.199c0.354-18.236,8.699-34.506,21.692-45.453
			c10.61-8.939,24.304-14.334,39.265-14.334c0.8,0,1.593,0.029,2.386,0.061c32.574,1.255,58.601,28.044,58.601,60.926
			C-192.164,244.49-217.697,271.092-249.838,272.813z"/>
		<path d="M-246.171,269.292c2.95-1.801,4.55-4.949,7.5-6.75c4.92-6.58,9.489-13.51,13.5-21c1.581-4.714,3.076-9.514,4.189-14.694
			c-0.201-0.338-0.387-0.69-0.54-1.075c-0.504-2.925,0.326-4.985,1.778-6.242c0.195-1.583,0.337-3.219,0.438-4.896
			c-9.093,3.259-20.613-2.831-19.217-14.862c-9.141-1.119-14.131-12.73-9-21.99c4.205-4.538,11.64-5.499,17.153-2.943
			c-0.019-0.015-0.033-0.032-0.053-0.047c-2.34-5.91-6.351-10.15-10.5-14.25c-2.69-3.311-5.69-6.311-9-9
			c-0.191-0.117-0.501-0.314-0.843-0.551c-0.793-0.031-1.585-0.061-2.386-0.061c-14.961,0-28.654,5.395-39.265,14.334
			c0.569,1.569,2.655,1.625,2.903,3.518c3.99-1.34,5.9-4.76,10-6c4,0,7.99,0,11.99,0c7.42,3.25,12.301,9.041,14,18
			c-0.779,7.881-3.27,14.061-9,16.99c0.32,1.791,5.291,3.92,2,6c1.5,2.17,5.01,2.33,5,6c1.34-1.42,5.67-1.42,7,0c0,1.67,0,3.34,0,5
			c-1.18,1.148-3.529,1.131-6,1c-2.709,0.619-2.49,4.18-6,4c-1,0-2,0-3,0c-4.18-1.15-6.77-3.891-6-10c0-0.33,0-0.66,0-1
			c3.68-2,3.83-2.99,3-8c-7.25,3.551-15.41-2.16-19.99-1c1.381,3.279,4.59,4.74,7,7c0.531,3.471,2.67,5.33,3,9
			c-0.319,4.02-0.699,7.971-3,10c0.271,2.061,2.67,2,4,3c2.271-0.83-2-6.141,1-8c4.601-1.271,4.84,1.82,6.99,3
			c11.61-0.84,16.279,7.971,14,18c-1.439,0.561-2.439,1.561-3,3c8.76-3.25,16.1,3.1,17,11c0.381,17.51-26.38,17.51-26,0
			c0.17-2.83,1.84-4.17,2-7c-5.75,0.42-9.51-1.15-10.99-5c-1.619,2.381-2.619,5.381-5,7c-4.319,0.648-5.609-1.73-8-3
			c-1.109-4.08-0.209-6.08,2-9c-0.43-1.91-2.859-1.811-2-5c-15.17,4.34-27.33-6.891-24-21c-0.186-1.365-1.123-1.977-2.596-2.055
			c-0.008,0.4-0.03,0.797-0.03,1.199c0,33.684,27.305,60.988,60.987,60.988c1.111,0,2.215-0.034,3.312-0.093
			C-249.159,271.096-246.497,271.363-246.171,269.292z M-245.521,202.773c-4.41,2.619-10.01-0.98-12-4c-0.73-2.719,1.99-2.01,2-3.99
			C-250.39,195.654-245.031,196.292-245.521,202.773z"/>
		<path d="M-257.521,244.773c-0.85-0.189-0.939,0.391-1,1C-257.671,245.953-257.571,245.382-257.521,244.773z"/>
		<path d="M-259.521,245.773c-1.439,0.561-2.439,1.561-3,3C-261.081,248.212-260.081,247.212-259.521,245.773z"/>
		<path fill="#FDFFFF" d="M-250.764,150.992c0.342,0.236,0.652,0.434,0.843,0.551c3.31,2.689,6.31,5.689,9,9
			c4.149,4.1,8.16,8.34,10.5,14.25c0.02,0.015,0.034,0.032,0.053,0.047c1.921,0.89,3.612,2.199,4.847,3.943
			c0.25,3.41,2.529,4.801,2,9c5.449,2.551,11.029,4.971,12,11.99c3.221,0.221,4.23-1.76,8-1c2.119,1.551,3.721,3.611,6,5
			c5.35,11.131-12.74,18.301-17,8c-1.439,1.303-3.068,2.247-4.783,2.862c-0.102,1.677-0.244,3.313-0.438,4.896
			c2.787-2.412,7.868-1.86,10.222,1.242c0,2.34,0,4.67,0,7c-3.441,3.736-9.068,3.091-11.46-0.925
			c-1.114,5.181-2.609,9.98-4.189,14.694c-4.011,7.49-8.58,14.42-13.5,21c-2.95,1.801-4.55,4.949-7.5,6.75
			c-0.326,2.07-2.988,1.804-3.667,3.521c32.141-1.721,57.675-28.323,57.675-60.896C-192.164,179.036-218.19,152.247-250.764,150.992
			z M-213.521,189.783c-1.971-9.199,8.07-11.049,12-6C-199.22,194.154-210.082,195.824-213.521,189.783z"/>
		<path fill="#020202" d="M-225.921,183.042c3.2,7.301,6.66,17.35,6.75,29.25c-0.024,0.801-0.086,1.564-0.133,2.343
			c1.715-0.615,3.344-1.56,4.783-2.862c4.26,10.301,22.35,3.131,17-8c-2.279-1.389-3.881-3.449-6-5c-3.77-0.76-4.779,1.221-8,1
			c-0.971-7.02-6.551-9.439-12-11.99c0.529-4.199-1.75-5.59-2-9c-1.235-1.744-2.926-3.054-4.847-3.943
			C-227.857,176.727-227.23,180.045-225.921,183.042z"/>
		<path fill="#020202" d="M-201.521,183.783c-3.93-5.049-13.971-3.199-12,6C-210.082,195.824-199.22,194.154-201.521,183.783z"/>
		<path fill="#020202" d="M-209.521,227.773c0-2.33,0-4.66,0-7c-2.354-3.103-7.435-3.654-10.222-1.242
			c-0.313,2.539-0.734,4.97-1.239,7.317C-218.589,230.864-212.962,231.509-209.521,227.773z"/>
	</g>
	<g>
		<path d="M-255.482-381.093c-15.014,0-29.607,5.327-41.091,15c-14.07,11.854-22.344,29.192-22.7,47.566l-0.013,0.432
			c-0.009,0.274-0.018,0.548-0.018,0.824c0,35.191,28.63,63.821,63.822,63.821c35.191,0,63.821-28.63,63.821-63.821
			C-191.661-352.462-220.291-381.093-255.482-381.093z M-256.112-255.557c-1.751,0-3.479-0.091-5.193-0.236
			c-31.249-2.637-55.793-28.82-55.793-60.752c0-0.402,0.022-0.799,0.03-1.2c0.354-18.235,8.699-34.506,21.692-45.453
			c9.656-8.135,21.871-13.32,35.265-14.189c1.324-0.086,2.654-0.145,4-0.145c33.682,0,60.987,27.305,60.987,60.987
			C-195.125-282.861-222.43-255.557-256.112-255.557z"/>
		<path d="M-256.112-377.531c-1.345,0-2.676,0.059-4,0.145c-1.124,0.893-2.439,1.594-3.332,2.717c-2.461,1.291-3.54,3.961-6,5.25
			c-0.876,1.3-1.821,2.531-2.789,3.74c0.583,0,1.166,0,1.75,0c7.42,3.25,12.3,9.041,14,18c-0.78,7.881-3.27,14.061-9,16.99
			c0.32,1.79,5.29,3.92,2,6c1.5,2.17,5.01,2.329,5,6c1.34-1.421,5.669-1.421,7,0c0,1.67,0,3.34,0,5c-1.18,1.148-3.529,1.131-6,1
			c-2.71,0.619-2.49,4.18-6,4c-1,0-2,0-3,0c-4.18-1.15-6.77-3.891-6-10c0-0.33,0-0.66,0-1c3.68-2,3.83-2.99,3-8
			c-7.25,3.551-15.41-2.16-19.99-1c1.38,3.279,4.59,4.739,7,7c0.53,3.471,2.67,5.329,3,9c-0.32,4.02-0.7,7.971-3,10
			c0.27,2.061,2.67,2,4,3c2.27-0.83-2-6.141,1-8c4.6-1.271,4.84,1.82,6.99,3c11.61-0.84,16.279,7.971,14,18
			c-1.44,0.561-2.44,1.561-3,3c8.759-3.25,16.099,3.1,17,11c0.381,17.51-26.38,17.51-26,0c0.17-2.83,1.84-4.17,2-7
			c-5.75,0.42-9.51-1.15-10.99-5c-1.273,1.872-2.173,4.116-3.652,5.781c3.608,5.615,7.758,10.688,11.681,15.99
			c2.069,1.43,3.67,3.33,6,4.5c0.199,1.388,1.696,1.479,2.138,2.626c1.714,0.145,3.442,0.236,5.193,0.236
			c33.682,0,60.987-27.305,60.987-60.988C-195.125-350.227-222.43-377.531-256.112-377.531z M-204.482-344.679
			c2.301,10.37-8.561,12.041-12,6C-218.453-347.878-208.412-349.729-204.482-344.679z M-248.482-325.689
			c-4.41,2.619-10.01-0.98-12-4c-0.73-2.72,1.99-2.01,2-3.99C-253.352-332.809-247.992-332.169-248.482-325.689z M-212.482-300.689
			c-3.73,4.051-10.039,2.961-12-2c-1.471-8.539,8.42-9.719,12-5C-212.482-305.35-212.482-303.02-212.482-300.689z M-217.482-316.689
			c-9.07,8.21-25.66,2.301-24-12c-9.141-1.12-14.131-12.73-9-21.99c5.67-6.119,17.221-5.75,22,1c0.25,3.41,2.529,4.801,2,9
			c5.449,2.551,11.029,4.971,12,11.99c3.221,0.221,4.23-1.761,8-1c2.119,1.551,3.721,3.61,6,5
			C-195.133-313.559-213.223-306.389-217.482-316.689z"/>
		<path d="M-260.482-283.689c-0.85-0.189-0.94,0.391-1,1C-260.632-282.51-260.532-283.08-260.482-283.689z"/>
		<path d="M-262.482-282.689c-1.44,0.561-2.44,1.561-3,3C-264.042-280.25-263.042-281.25-262.482-282.689z"/>
		<path fill="#FDFFFF" d="M-263.443-258.418c-2.33-1.17-3.931-3.07-6-4.5c-3.922-5.302-8.072-10.375-11.681-15.99
			c-0.402,0.453-0.839,0.873-1.348,1.219c-4.32,0.648-5.61-1.73-8-3c-1.11-4.08-0.21-6.08,2-9c-0.43-1.91-2.86-1.811-2-5
			c-15.17,4.34-27.33-6.891-24-21c-0.186-1.365-1.124-1.977-2.596-2.056c-0.008,0.401-0.03,0.798-0.03,1.2
			c0,31.932,24.544,58.115,55.793,60.752C-261.747-256.939-263.244-257.031-263.443-258.418z"/>
		<path fill="#FDFFFF" d="M-292.472-359.679c3.99-1.34,5.9-4.76,10-6c3.416,0,6.826,0,10.24,0c0.967-1.209,1.912-2.44,2.789-3.74
			c2.46-1.289,3.539-3.959,6-5.25c0.893-1.123,2.208-1.825,3.332-2.717c-13.394,0.87-25.608,6.054-35.265,14.189
			C-294.807-361.628-292.721-361.572-292.472-359.679z"/>
		<path fill="#070707" d="M-314.472-315.689c-3.33,14.109,8.83,25.339,24,21c-0.86,3.189,1.57,3.09,2,5c-2.21,2.92-3.11,4.92-2,9
			c2.39,1.27,3.68,3.648,8,3c0.509-0.346,0.946-0.766,1.348-1.219c-0.891-1.386-1.758-2.796-2.569-4.261
			c-5.03-10.97-8.54-23.459-7.5-40.5c1.949-13.049,6.109-23.89,12-33c2.08-3.244,4.595-6.052,6.961-9.01c-3.414,0-6.824,0-10.24,0
			c-4.1,1.24-6.01,4.66-10,6c-0.249-1.893-2.335-1.949-2.904-3.518c-12.993,10.947-21.339,27.217-21.692,45.453
			C-315.596-317.666-314.658-317.054-314.472-315.689z"/>
	</g>
</g>
<g id="Layer_5">
	<g>
		<path d="M80.514-426.585c-15.014,0-29.607,5.327-41.091,15c-14.07,11.854-22.344,29.192-22.7,47.566l-0.013,0.432
			c-0.009,0.274-0.018,0.548-0.018,0.824c0,35.191,28.63,63.821,63.822,63.821c35.191,0,63.821-28.63,63.821-63.821
			C144.335-397.954,115.705-426.585,80.514-426.585z M82.468-303.833c-0.08,0-0.158-0.006-0.238-0.006v2.01v0.016
			c-0.496,0.012-0.988,0.038-1.486,0.038c-0.069,0-0.136-0.005-0.205-0.005c-0.069,0-0.136,0.005-0.205,0.005
			c-0.258,0-0.513-0.017-0.77-0.02v-0.01c-33.135-0.631-59.806-27.671-59.806-60.958c0-0.402,0.021-0.799,0.029-1.2
			c0.354-18.235,8.699-34.506,21.693-45.453c10.329-8.703,23.585-14.031,38.083-14.308v-0.009c0.257-0.004,0.512-0.018,0.77-0.018
			c0.065,0,0.128,0.005,0.193,0.005c0.072,0,0.144-0.005,0.217-0.005c0.499,0,0.991,0.026,1.486,0.038v0.016v0.717
			c0.08,0,0.158-0.006,0.238-0.006c31.518,0,57.16,26.726,57.16,59.577S113.986-303.833,82.468-303.833z"/>
		<path d="M76.374-329.908c-0.851-0.189-0.94,0.391-1,1C76.223-328.728,76.324-329.298,76.374-329.908z"/>
		<path d="M74.374-328.908c-1.44,0.561-2.44,1.561-3,3C72.814-326.468,73.814-327.468,74.374-328.908z"/>
		<path fill="#020202" d="M76.374-375.908c0.692,1.05,1.826,2.166,3.19,3.07v-6.859c-0.396-0.067-0.793-0.134-1.19-0.201
			C78.363-377.917,75.643-378.627,76.374-375.908z"/>
		<path fill="#020202" d="M22.383-361.908c-3.33,14.109,8.83,25.34,24,21c-0.86,3.189,1.569,3.09,2,5c-2.21,2.92-3.11,4.92-2,9
			c2.39,1.27,3.681,3.648,8,3c2.38-1.62,3.38-4.62,5-7c1.479,3.85,5.24,5.42,10.99,5c-0.16,2.829-1.83,4.17-2,7
			c-0.172,7.951,5.253,12.278,11.19,13.008v-24.609c-0.719,0.142-1.447,0.325-2.19,0.601c0.446-1.147,1.185-2.003,2.19-2.592
			v-11.739c-2.057-4.375-6.443-7.158-13.19-6.669c-2.15-1.181-2.39-4.271-6.99-3c-3,1.859,1.271,7.17-1,8c-1.33-1-3.729-0.939-4-3
			c2.3-2.029,2.681-5.98,3-10c-0.33-3.671-2.47-5.529-3-9c-2.41-2.261-5.62-3.721-7-7c4.58-1.16,12.74,4.551,19.99,1
			c0.829,5.01,0.68,6-3,8c0,0.34,0,0.67,0,1c-0.771,6.109,1.819,8.85,6,10c1,0,2,0,3,0c3.51,0.18,3.29-3.381,6-4
			c0.064,0.003,0.126,0.005,0.19,0.009v-6.712c-0.49,0.173-0.908,0.405-1.19,0.704c0.01-3.671-3.5-3.83-5-6
			c3.29-2.08-1.681-4.21-2-6c4.44-2.27,6.929-6.498,8.19-11.95v-8.326c-2.184-7.113-6.72-11.88-13.19-14.714c-4,0-7.99,0-11.99,0
			c-4.101,1.24-6.01,4.66-10,6c-0.249-1.893-2.335-1.949-2.903-3.518c-12.994,10.947-21.34,27.217-21.693,45.453
			C21.259-363.885,22.197-363.273,22.383-361.908z M76.374-329.908c-0.05,0.609-0.15,1.18-1,1
			C75.433-329.517,75.523-330.097,76.374-329.908z M74.374-328.908c-0.56,1.439-1.56,2.439-3,3
			C71.933-327.347,72.933-328.347,74.374-328.908z"/>
		<path fill="#020202" d="M82.468-422.986c-0.08,0-0.158,0.006-0.238,0.006v-0.717c-0.567-0.018-1.132-0.046-1.703-0.048
			c-0.065,0-0.128-0.005-0.193-0.005c-0.258,0-0.513,0.014-0.77,0.018v0.009v26.54c0.321,1.045,0.592,2.139,0.81,3.286
			c-0.176,1.774-0.444,3.456-0.81,5.04v9.161c4.733,0.803,9.261,1.81,8.809,7.789c-2.876,1.708-6.252,0.766-8.809-0.93v7.226
			c1.842-0.651,4.758-0.418,5.809,0.704c0,1.67,0,3.34,0,5c-1.149,1.119-3.41,1.129-5.809,1.009v14.661
			c1.483,3.154,1.764,7.129,0.81,11.331c-0.292,0.114-0.554,0.258-0.81,0.408v1.991c7.763-1.537,13.985,4.37,14.809,11.601
			c0.208,9.559-7.671,13.886-14.809,13.008v4.094v0.01c0.257,0.003,0.512,0.02,0.77,0.02c0.069,0,0.136-0.005,0.205-0.005
			c0.567-0.002,1.128-0.031,1.691-0.048v-2.01c0.08,0,0.158,0.006,0.238,0.006c31.518,0,57.16-26.726,57.16-59.577
			S113.986-422.986,82.468-422.986z M132.373-390.898c2.301,10.37-8.561,12.041-12,6
			C118.402-394.097,128.443-395.948,132.373-390.898z M124.373-346.908c-3.73,4.051-10.039,2.96-12-2c-1.471-8.54,8.42-9.72,12-5
			C124.373-351.568,124.373-349.238,124.373-346.908z M119.373-362.908c-9.07,8.21-25.66,2.301-24-12
			c-9.141-1.12-14.131-12.73-9-21.99c5.67-6.119,17.221-5.75,22,1c0.25,3.41,2.529,4.801,2,9c5.449,2.551,11.029,4.971,12,11.99
			c3.221,0.221,4.23-1.761,8-1c2.119,1.551,3.721,3.61,6,5C141.722-359.778,123.632-352.607,119.373-362.908z"/>
	</g>
</g>
</svg>
