<?xml version="1.0" encoding="utf-8"?>
<!-- Generator: Adobe Illustrator 15.1.0, SVG Export Plug-In . SVG Version: 6.00 Build 0)  -->
<!DOCTYPE svg PUBLIC "-//W3C//DTD SVG 1.1//EN" "http://www.w3.org/Graphics/SVG/1.1/DTD/svg11.dtd">
<svg version="1.1" id="Layer_1" xmlns="http://www.w3.org/2000/svg" xmlns:xlink="http://www.w3.org/1999/xlink" x="0px" y="0px"
	 width="283.68px" height="283.92px" viewBox="0 0 283.68 283.92" enable-background="new 0 0 283.68 283.92" xml:space="preserve">
<g>
	<path fill="none" d="M185.517,82.278c-0.955-1.006-1.86-2.06-2.707-3.164c-3.841,0.662-7.666,1.147-11.313,1.401
		c-1.229,0.503-2.508,0.909-3.834,1.201C172.48,82.387,178.54,82.678,185.517,82.278z"/>
	<path fill="none" d="M175.826,106.316c-5.74-1.43-11.997-3.583-16.738-6.217l0.66,1c1.355,2.051,7.415,5.245,16.374,7.379
		c11.81,2.813,19.956,1.858,21.197,0.532l0.172-0.183c-0.856,0.052-1.741,0.08-2.655,0.08
		C189.014,108.907,182.147,107.891,175.826,106.316z"/>
	<path fill="none" d="M185.963,92.962c5.321-0.077,9.787-0.594,13.261-1.288c-0.185-0.076-0.375-0.141-0.559-0.22
		c-3.132,0.556-6.479,0.999-9.987,1.304C187.778,92.837,186.871,92.904,185.963,92.962z"/>
	<path fill="none" d="M160.49,139.611c7.184,3.362,12.967,4.002,14.855,3.479c-4.5-0.431-9.813-1.987-14.485-3.994
		c-1.578-0.678-5.005-2.255-8.145-4.371C154.225,136.091,156.731,137.853,160.49,139.611z"/>
	<path d="M181.696,77.612c-3.061,1.302-6.323,2.231-9.736,2.726c-0.151,0.065-0.312,0.115-0.464,0.177
		c3.647-0.254,7.473-0.739,11.313-1.401C182.431,78.62,182.053,78.125,181.696,77.612z"/>
	<path d="M199.224,91.675c-3.474,0.693-7.939,1.211-13.261,1.288c0.908-0.058,1.815-0.125,2.715-0.203
		c3.508-0.305,6.855-0.749,9.987-1.304c-4.99-2.133-9.453-5.28-13.148-9.177c-6.977,0.4-13.036,0.109-17.854-0.562
		c-1.281,0.281-2.599,0.47-3.953,0.532c-2.709,0.124-5.329-0.222-7.787-0.957c-1.098,1.634-2.327,3.172-3.652,4.623
		c0.291,0.562,0.675,1.09,1.159,1.582c-0.621,0.508-1.105,1.084-1.44,1.729c-0.71,1.363-0.724,2.95-0.039,4.471
		c0.953,2.114,3.215,4.09,6.193,5.866l-1.451,0.612c-1.733,0.73-2.899,1.758-3.466,3.055c-0.552,1.264-0.477,2.694,0.214,4.027
		c2.429,4.702,12.492,8.288,21.101,10.077c4.084,0.849,9.606,1.62,14.667,1.62c1.024,0,2.026-0.035,2.997-0.104l-1.343,1.432
		c-1.073,1.038-7.828,1.739-17.474-0.559c-8.261-1.968-12.696-4.754-13.551-6.048l-1.145-1.731l-1.912,0.806
		c-1.557,0.656-2.608,1.591-3.127,2.778c-0.514,1.176-0.446,2.5,0.19,3.731c0.074,0.143,0.173,0.281,0.263,0.421
		c-1.513,0.335-2.689,0.949-3.481,1.841c-0.068,0.076-0.126,0.158-0.188,0.237c-1.305,0.352-2.346,0.923-3.063,1.73
		c-0.972,1.093-1.324,2.515-0.992,4.004c0.241,1.079,0.828,2.127,1.629,3.127l-0.036,0.007c-1.518,0.306-2.687,0.912-3.472,1.797
		c-0.937,1.054-1.277,2.423-0.958,3.856c1.153,5.171,10.553,9.569,13.406,10.794c2.815,1.209,5.395,2.075,7.741,2.68l-1.73,1.083
		c-0.82,0.438-5.33,0.299-11.626-2.647c-4.992-2.336-7.118-4.632-7.32-5.316l-0.58-2.315l-2.34,0.472
		c-1.314,0.266-2.335,0.8-3.036,1.588c-0.856,0.963-1.168,2.21-0.877,3.514c0.966,4.337,8.606,7.921,10.924,8.915
		c3.295,1.415,8.425,3.056,12.521,3.056c2.247,0,4.185-0.494,5.336-1.79c1.031-1.161,1.262-2.722,0.634-4.284l-0.796-1.999
		c2.417,0.552,4.559,0.807,6.376,0.807c3.237,0,5.479-0.779,6.562-1.997c1.132-1.272,1.381-2.996,0.684-4.729l-0.381-0.945
		c2.307-0.176,4.182-0.817,5.307-2.083c0.071-0.08,0.129-0.168,0.194-0.252c1.275-0.341,2.328-0.894,3.06-1.717
		c1.174-1.322,1.43-3.115,0.703-4.921l-1.115-2.769l-2.53,1.584c-1.412,0.884-8.257,0.439-16.874-3.594
		c-4.515-2.113-7.577-4.336-9.21-5.993c3.675,2.026,8.733,3.582,13.308,4.533c3.433,0.713,8.056,1.354,12.331,1.354
		c5.285,0,10.041-0.98,11.364-4.012c0.403-0.921,0.811-2.784-0.989-4.911l-1.364-1.619c4.31-0.439,7.785-1.693,8.932-4.316
		c0.433-0.993,0.866-3.006-1.104-5.337l-0.509-0.602c3.743-0.595,6.544-1.882,7.683-4.069c0.515-0.988,1.092-2.949-0.463-5.387
		c2.919-1.136,5.176-2.599,6.222-4.453C208.778,94.58,203.794,93.546,199.224,91.675z M160.86,139.096
		c4.673,2.006,9.985,3.563,14.485,3.994c-1.889,0.523-7.672-0.116-14.855-3.479c-3.759-1.759-6.266-3.52-7.774-4.886
		C155.855,136.841,159.282,138.418,160.86,139.096z M197.319,109.01c-1.241,1.326-9.388,2.281-21.197-0.532
		c-8.959-2.134-15.019-5.328-16.374-7.379l-0.66-1c4.741,2.634,10.998,4.787,16.738,6.217c6.321,1.574,13.188,2.591,19.01,2.591
		c0.914,0,1.799-0.028,2.655-0.08L197.319,109.01z"/>
	<path d="M158.033,158.041l-2.527,1.582c-0.831,0.337-4.478-0.078-8.803-2.103c-3.648-1.708-5.34-3.417-5.537-3.885l-0.579-2.315
		l-2.34,0.473c-1.155,0.232-2.062,0.712-2.695,1.424c-0.782,0.879-1.079,2.062-0.814,3.245c0.367,1.648,1.783,3.129,3.439,4.355
		c-0.438,0.209-0.82,0.478-1.125,0.821c-0.689,0.774-0.952,1.812-0.722,2.845c0.567,2.546,4.059,4.389,6.09,5.26
		c0.832,0.357,3.901,1.591,6.616,1.591c1.41,0,2.726-0.333,3.58-1.295c0.828-0.93,1.031-2.211,0.541-3.425l-0.104-0.258
		c0.277,0.016,0.554,0.025,0.824,0.025c1.873,0,3.565-0.421,4.617-1.604c0.938-1.06,1.16-2.531,0.593-3.938L158.033,158.041z"/>
	<path d="M141.996,14.121c-1.499,0-2.99,0.035-4.477,0.087c-0.473,0.502-0.934,1.015-1.38,1.541c-0.34-0.493-0.699-0.972-1.07-1.439
		c-41.87,2.239-78.377,24.654-99.987,57.696c0.615,0.02,1.235,0.024,1.86-0.005c2.709-0.124,5.286-0.708,7.667-1.665
		c7.629,9.374,19.445,15.138,32.445,14.543c4.837-0.222,9.429-1.309,13.638-3.098c7.485,10.782,20.17,17.601,34.25,16.956
		c10.882-0.498,20.519-5.369,27.328-12.823c1.325-1.451,2.555-2.989,3.652-4.623c2.458,0.735,5.078,1.081,7.787,0.957
		c1.354-0.062,2.672-0.251,3.953-0.532c1.326-0.292,2.604-0.698,3.834-1.201c0.152-0.063,0.313-0.112,0.464-0.177
		c3.413-0.495,6.676-1.424,9.736-2.726c0.356,0.513,0.734,1.008,1.113,1.502c0.847,1.104,1.752,2.157,2.707,3.164
		c3.695,3.897,8.158,7.044,13.148,9.177c0.184,0.079,0.374,0.144,0.559,0.22c4.57,1.872,9.555,2.905,14.763,2.921
		c0.649,0.002,1.299,0.004,1.955-0.025c13-0.596,24.239-7.415,30.98-17.447c1.831,0.548,3.752,0.878,5.733,0.96
		C230.599,39.854,189.303,14.121,141.996,14.121z"/>
</g>
</svg>
