<?xml version="1.0" encoding="utf-8"?>
<!-- Generator: Adobe Illustrator 15.1.0, SVG Export Plug-In . SVG Version: 6.00 Build 0)  -->
<!DOCTYPE svg PUBLIC "-//W3C//DTD SVG 1.1//EN" "http://www.w3.org/Graphics/SVG/1.1/DTD/svg11.dtd">
<svg version="1.1" id="Layer_1" xmlns="http://www.w3.org/2000/svg" xmlns:xlink="http://www.w3.org/1999/xlink" x="0px" y="0px"
	 width="283.68px" height="283.92px" viewBox="0 0 283.68 283.92" enable-background="new 0 0 283.68 283.92" xml:space="preserve">
<g>
</g>
<g>
</g>
<g>
</g>
<path d="M92.326,115.332L121.196,132v33.335l-28.87,16.668l-28.869-16.668V132L92.326,115.332z M92.326,103.785l-5,2.887
	L58.457,123.34l-5,2.886V132v33.335v5.773l5,2.888l28.869,16.668l5,2.886l5-2.886l28.87-16.668l5-2.888v-5.773V132v-5.774l-5-2.886
	l-28.87-16.668L92.326,103.785z"/>
<path d="M181.206,221.494l15.566,1.238l6.712,14.101l-8.855,12.863l-15.568-1.238l-6.711-14.101L181.206,221.494z M176.243,211.068
	l-3.274,4.755l-8.855,12.863l-3.274,4.756l2.48,5.213l6.713,14.101l2.48,5.213l5.755,0.458l15.568,1.238l5.755,0.457l3.274-4.755
	l8.855-12.863l3.274-4.755l-2.481-5.213l-6.712-14.101l-2.481-5.213l-5.755-0.458l-15.567-1.238L176.243,211.068z"/>
<path d="M142.695,179.507l6.376,4.49l-0.7,7.766l-7.075,3.278l-6.376-4.49l0.7-7.767L142.695,179.507z M143.732,168.007
	l-5.239,2.426l-7.076,3.277l-5.239,2.427l-0.518,5.75l-0.7,7.766l-0.518,5.752l4.72,3.322l6.376,4.49l4.721,3.324l5.239-2.426
	l7.076-3.277l5.239-2.427l0.518-5.75l0.7-7.767l0.519-5.751l-4.721-3.323l-6.376-4.489L143.732,168.007z"/>
<path d="M176.692,139.861l6.549,3.27l0.441,7.307l-6.105,4.036l-6.549-3.27l-0.442-7.308L176.692,139.861z M175.995,128.334
	l-4.817,3.184l-6.105,4.036l-4.817,3.183l0.349,5.763l0.442,7.307l0.349,5.763l5.165,2.579l6.55,3.271l5.165,2.58l4.816-3.185
	l6.106-4.036l4.816-3.183l-0.349-5.763l-0.442-7.307l-0.349-5.763l-5.165-2.579l-6.549-3.271L175.995,128.334z"/>
<path d="M246.195,172.161l7.088,2.748l1.164,7.513l-5.923,4.764l-7.088-2.748l-1.164-7.512L246.195,172.161z M244.427,160.75
	l-4.499,3.618l-5.923,4.766l-4.499,3.617l0.885,5.706l1.164,7.513l0.884,5.705l5.383,2.087l7.088,2.748l5.383,2.087l4.499-3.619
	l5.924-4.764l4.499-3.618l-0.885-5.706l-1.164-7.513l-0.884-5.704l-5.383-2.088l-7.088-2.747L244.427,160.75z"/>
<path d="M194.365,64.4l4.596,5.893l-2.805,6.928l-7.403,1.034l-4.596-5.894l2.805-6.927L194.365,64.4z M198.699,53.697l-5.718,0.799
	l-7.402,1.034l-5.718,0.799l-2.168,5.351l-2.806,6.927l-2.167,5.352l3.551,4.552l4.597,5.894l3.551,4.552l5.718-0.798l7.402-1.034
	l5.718-0.799l2.167-5.351l2.807-6.928l2.167-5.351l-3.552-4.553l-4.596-5.893L198.699,53.697z"/>
<path d="M144.47,25.777l6.221,10.777l-6.221,10.777h-12.444l-6.222-10.777l6.222-10.777H144.47z M150.243,15.777h-5.773h-12.444
	h-5.774l-2.887,5l-6.222,10.777l-2.886,5l2.886,5l6.222,10.777l2.887,5h5.774h12.444h5.773l2.887-5l6.222-10.777l2.887-5l-2.887-5
	l-6.222-10.777L150.243,15.777z"/>
<path d="M81.997,44.998l6.341,8.128l-3.87,9.556l-10.21,1.426l-6.34-8.129l3.87-9.555L81.997,44.998z M86.332,34.294l-5.718,0.799
	l-10.21,1.426l-5.718,0.799l-2.167,5.351l-3.87,9.555l-2.167,5.352l3.551,4.552l6.34,8.129l3.55,4.553l5.718-0.799l10.21-1.427
	l5.718-0.798l2.168-5.352l3.869-9.555l2.168-5.351l-3.551-4.553l-6.34-8.128L86.332,34.294z"/>
<path d="M36.266,89.15l13.532,1.812l5.197,12.626l-8.336,10.813l-13.532-1.813L27.93,99.963L36.266,89.15z M31.871,78.473
	l-3.525,4.573L20.01,93.858l-3.524,4.572l2.197,5.339l5.197,12.626l2.197,5.339L31.8,122.5l13.532,1.812l5.722,0.767l3.525-4.573
	l8.336-10.813l3.525-4.573l-2.198-5.339l-5.196-12.625l-2.198-5.339l-5.722-0.766l-13.533-1.813L31.871,78.473z"/>
<path d="M108.702,231.501l5.932,8.674l-4.545,9.474l-10.478,0.801l-5.933-8.674l4.546-9.475L108.702,231.501z M113.697,221.09
	l-5.757,0.439l-10.478,0.8l-5.757,0.44l-2.497,5.206l-4.546,9.474l-2.497,5.205l3.259,4.767l5.932,8.674l3.26,4.766l5.756-0.439
	l10.478-0.802l5.757-0.439l2.498-5.205l4.545-9.474l2.498-5.206l-3.259-4.766l-5.933-8.674L113.697,221.09z"/>
<path d="M232.855,81.487l16.304,3.526l5.101,15.883l-11.206,12.357l-16.304-3.525l-5.101-15.883L232.855,81.487z M229.325,70.494
	l-3.878,4.277l-11.206,12.358l-3.878,4.277l1.766,5.497l5.099,15.883l1.765,5.497l5.644,1.22l16.305,3.525l5.644,1.22l3.878-4.277
	l11.206-12.357l3.878-4.277l-1.766-5.497l-5.099-15.883l-1.765-5.497l-5.644-1.221l-16.305-3.525L229.325,70.494z"/>
<path d="M135.401,78.675l16.304,3.526l5.1,15.883l-11.206,12.357l-16.304-3.525l-5.1-15.883L135.401,78.675z M131.871,67.681
	l-3.878,4.277l-11.206,12.358l-3.878,4.277l1.765,5.497l5.099,15.883l1.765,5.497l5.643,1.22l16.306,3.525l5.643,1.22l3.878-4.277
	l11.206-12.357l3.878-4.277l-1.765-5.497l-5.1-15.883l-1.765-5.497l-5.643-1.221L137.514,68.9L131.871,67.681z"/>
<path d="M199.981,165.757l16.304,3.526l5.1,15.882l-11.206,12.357l-16.304-3.524l-5.1-15.884L199.981,165.757z M196.451,154.763
	l-3.878,4.277l-11.206,12.357l-3.878,4.277l1.765,5.497l5.1,15.883l1.765,5.497l5.643,1.22l16.306,3.525l5.643,1.22l3.878-4.277
	l11.206-12.356l3.878-4.277l-1.765-5.497l-5.1-15.883l-1.765-5.497l-5.643-1.221l-16.306-3.525L196.451,154.763z"/>
<path d="M53.923,190.038l16.304,3.525l5.1,15.882l-11.206,12.358l-16.304-3.525l-5.1-15.883L53.923,190.038z M50.393,179.044
	l-3.878,4.276l-11.206,12.358l-3.878,4.277l1.765,5.497l5.099,15.883l1.765,5.497l5.643,1.22l16.305,3.525l5.643,1.22l3.878-4.277
	l11.206-12.356l3.878-4.277l-1.765-5.497l-5.099-15.883l-1.765-5.497l-5.643-1.221l-16.305-3.525L50.393,179.044z"/>
</svg>
