<?xml version="1.0" encoding="utf-8"?>
<!-- Generator: Adobe Illustrator 15.1.0, SVG Export Plug-In . SVG Version: 6.00 Build 0)  -->
<!DOCTYPE svg PUBLIC "-//W3C//DTD SVG 1.1//EN" "http://www.w3.org/Graphics/SVG/1.1/DTD/svg11.dtd">
<svg version="1.1" id="Layer_1" xmlns="http://www.w3.org/2000/svg" xmlns:xlink="http://www.w3.org/1999/xlink" x="0px" y="0px"
	 width="283.68px" height="283.92px" viewBox="0 0 283.68 283.92" enable-background="new 0 0 283.68 283.92" xml:space="preserve">
<g>
	<path fill="#020202" d="M52.822,137.526c0-3.626-2.94-6.566-6.566-6.566H25.7c-3.626,0-6.566,2.94-6.566,6.566
		s2.94,6.566,6.566,6.566h20.557C49.882,144.092,52.822,141.152,52.822,137.526z"/>
	<path fill="#020202" d="M57.353,102.679L39.55,92.401c-3.141-1.814-7.156-0.738-8.97,2.403c-1.813,3.141-0.737,7.156,2.404,8.97
		l17.802,10.278c3.141,1.813,7.157,0.737,8.97-2.403C61.569,108.508,60.493,104.492,57.353,102.679z"/>
	<path fill="#020202" d="M70.823,65.933c-1.812-3.141-5.828-4.217-8.969-2.403c-3.14,1.813-4.216,5.829-2.404,8.969l10.279,17.803
		c1.813,3.141,5.828,4.217,8.969,2.403c3.141-1.813,4.217-5.829,2.404-8.969L70.823,65.933z"/>
	<path fill="#020202" d="M104.576,85.772c3.626,0,6.566-2.94,6.566-6.566V58.649c0-3.626-2.94-6.566-6.566-6.566
		s-6.566,2.94-6.566,6.566v20.557C98.01,82.832,100.95,85.772,104.576,85.772z"/>
	<path fill="#020202" d="M130.452,92.706c3.141,1.813,7.157,0.737,8.97-2.403L149.7,72.5c1.813-3.141,0.737-7.156-2.403-8.97
		c-3.141-1.813-7.156-0.737-8.97,2.404l-10.278,17.802C126.236,86.877,127.312,90.893,130.452,92.706z"/>
	<path fill="#020202" d="M169.603,92.4l-17.804,10.279c-3.141,1.813-4.217,5.828-2.402,8.969c1.813,3.141,5.829,4.217,8.969,2.404
		l17.803-10.279c0.64-0.369,1.188-0.832,1.649-1.358v-8.661C175.794,91.447,172.361,90.809,169.603,92.4z"/>
	<path fill="#020202" d="M156.329,137.525c0,3.626,2.94,6.566,6.566,6.566h14.922v-13.132h-14.922
		C159.27,130.959,156.329,133.899,156.329,137.525z"/>
	<path fill="#020202" d="M176.168,171.276l-17.803-10.278c-3.141-1.813-7.156-0.737-8.97,2.403s-0.737,7.156,2.403,8.97
		l17.135,9.893c2.554-3.118,5.546-5.862,8.884-8.138v-1.491C177.356,172.109,176.808,171.646,176.168,171.276z"/>
	<path fill="#020202" d="M138.328,209.117c1.812,3.142,5.828,4.217,8.969,2.403s4.217-5.829,2.404-8.969l-10.279-17.804
		c-1.813-3.141-5.828-4.217-8.969-2.402c-3.141,1.813-4.217,5.829-2.404,8.969L138.328,209.117z"/>
	<path fill="#020202" d="M104.576,189.278c-3.626,0-6.566,2.94-6.566,6.566v20.557c0,3.626,2.94,6.566,6.566,6.566
		s6.566-2.94,6.566-6.566v-20.557C111.142,192.219,108.202,189.278,104.576,189.278z"/>
	<path fill="#020202" d="M69.73,184.748l-10.278,17.803c-1.814,3.141-0.738,7.156,2.403,8.97s7.156,0.737,8.97-2.403l10.278-17.803
		c1.813-3.141,0.737-7.156-2.403-8.97C75.559,180.531,71.543,181.607,69.73,184.748z"/>
	<path fill="#020202" d="M50.787,160.998l-17.803,10.279c-3.141,1.813-4.217,5.828-2.403,8.969c1.813,3.141,5.829,4.217,8.969,2.404
		l17.803-10.279c3.141-1.813,4.217-5.828,2.403-8.969C57.943,160.262,53.927,159.186,50.787,160.998z"/>
	<path fill="#FFFFFF" d="M104.576,103.206c-19.202,0-34.824,15.623-34.824,34.825s15.622,34.825,34.824,34.825
		c19.203,0,34.825-15.622,34.825-34.825S123.778,103.206,104.576,103.206z"/>
	<path d="M152.877,142.89c0.16-1.599,0.244-3.219,0.244-4.859c0-1.918-0.124-3.807-0.342-5.667
		c-0.604-5.17-2.023-10.093-4.126-14.64c-1.354-2.929-2.989-5.701-4.876-8.28c-3.146-4.303-6.984-8.067-11.347-11.136
		c-2.439-1.716-5.042-3.211-7.782-4.46c-4.858-2.216-10.139-3.655-15.689-4.154c-1.445-0.13-2.905-0.208-4.383-0.208
		s-2.938,0.077-4.383,0.208c-5.552,0.499-10.833,1.939-15.691,4.155c-2.738,1.249-5.34,2.744-7.778,4.458
		c-4.364,3.069-8.201,6.833-11.348,11.137c-1.886,2.579-3.521,5.351-4.875,8.279c-2.104,4.547-3.523,9.471-4.127,14.643
		c-0.217,1.86-0.341,3.748-0.341,5.665c0,1.639,0.084,3.259,0.244,4.857c0.491,4.925,1.72,9.636,3.577,14.02
		c1.478,3.488,3.359,6.764,5.573,9.78c2.777,3.783,6.086,7.15,9.819,9.991c3.112,2.368,6.517,4.369,10.151,5.938
		c4.136,1.786,8.568,3.005,13.2,3.576c1.961,0.242,3.954,0.382,5.98,0.382s4.019-0.14,5.98-0.382
		c4.632-0.571,9.065-1.79,13.202-3.577c3.634-1.568,7.038-3.569,10.149-5.937c3.733-2.841,7.043-6.208,9.82-9.991
		c2.215-3.018,4.096-6.293,5.574-9.782C151.157,152.524,152.386,147.814,152.877,142.89z M104.576,172.855
		c-19.202,0-34.824-15.622-34.824-34.825s15.622-34.825,34.824-34.825c19.203,0,34.825,15.623,34.825,34.825
		S123.778,172.855,104.576,172.855z"/>
	<path fill="#FFFFFF" d="M227.849,197.969c0.225,0.551,0.431,1.112,0.622,1.681C228.279,199.081,228.073,198.521,227.849,197.969z"
		/>
	<path fill="#FFFFFF" d="M228.59,200.001c0.197,0.613,0.373,1.235,0.529,1.866C228.964,201.236,228.787,200.614,228.59,200.001z"/>
	<path fill="#FFFFFF" d="M178.051,192.175c-0.021,0.029-0.041,0.058-0.062,0.087c0.02-0.028,0.042-0.055,0.062-0.083
		C178.051,192.178,178.051,192.176,178.051,192.175z"/>
	<path fill="#FFFFFF" d="M226.948,195.983c0.29,0.579,0.563,1.168,0.814,1.769C227.512,197.151,227.238,196.563,226.948,195.983z"/>
	<path fill="#FFFFFF" d="M224.725,192.272c0.758,1.072,1.443,2.199,2.051,3.373C226.168,194.472,225.482,193.346,224.725,192.272z"
		/>
	<path fill="#FFFFFF" d="M229.608,204.277c0.103,0.648,0.179,1.307,0.236,1.97C229.787,205.584,229.711,204.927,229.608,204.277z"/>
	<path fill="#FFFFFF" d="M172.745,208.76C172.745,208.761,172.745,208.761,172.745,208.76c0,11.356,6.616,21.167,16.205,25.787
		C179.361,229.927,172.745,220.116,172.745,208.76z"/>
	<path fill="#FFFFFF" d="M229.207,202.247c0.135,0.578,0.253,1.162,0.352,1.752C229.46,203.409,229.342,202.825,229.207,202.247z"/>
	<path fill="#FFFFFF" d="M229.961,208.76c0,11.356-6.617,21.167-16.205,25.787C223.344,229.927,229.961,220.116,229.961,208.76
		C229.961,208.761,229.961,208.761,229.961,208.76z"/>
	<path fill="#FFFFFF" d="M176.776,194.117c0.337-0.563,0.693-1.113,1.066-1.65C177.47,193.004,177.113,193.554,176.776,194.117z"/>
	<path fill="#FFFFFF" d="M229.879,206.706c0.049,0.679,0.082,1.361,0.082,2.052C229.961,208.067,229.928,207.385,229.879,206.706z"
		/>
	<path fill="#FFFFFF" d="M224.157,191.491c-0.001,0.007-0.002,0.015-0.003,0.022c0.124,0.165,0.258,0.323,0.38,0.49
		C224.409,191.832,224.285,191.66,224.157,191.491z"/>
	<path fill="#FFFFFF" d="M172.859,206.275c0.057-0.655,0.129-1.306,0.229-1.947C172.988,204.97,172.916,205.62,172.859,206.275z"/>
	<path fill="#FFFFFF" d="M172.745,208.758c0-0.677,0.032-1.347,0.078-2.012C172.777,207.411,172.745,208.081,172.745,208.758z"/>
	<path fill="#FFFFFF" d="M174.892,197.883c0.244-0.594,0.508-1.179,0.791-1.752C175.399,196.704,175.136,197.289,174.892,197.883z"
		/>
	<path fill="#FFFFFF" d="M175.813,195.877c0.272-0.539,0.561-1.068,0.865-1.588C176.373,194.809,176.085,195.338,175.813,195.877z"
		/>
	<path fill="#FFFFFF" d="M173.123,204.133c0.097-0.595,0.215-1.182,0.348-1.764C173.338,202.951,173.22,203.538,173.123,204.133z"/>
	<path fill="#FFFFFF" d="M173.567,201.95c0.152-0.624,0.322-1.241,0.515-1.849C173.89,200.709,173.72,201.326,173.567,201.95z"/>
	<path fill="#FFFFFF" d="M174.171,199.841c0.182-0.554,0.38-1.101,0.595-1.639C174.552,198.741,174.353,199.287,174.171,199.841z"/>
	<path d="M224.286,173.73V57.232c0-12.811-10.424-23.234-23.234-23.234c-12.812,0-23.234,10.423-23.234,23.234v30.62v5.903v8.661
		v5.951v17.791v4.802v13.132v4.802v17.792v5.95v1.491c-3.338,2.275-6.33,5.02-8.884,8.138c-1.019,1.244-1.96,2.553-2.833,3.909
		c-4.194,6.523-6.639,14.273-6.639,22.588c0,23.098,18.792,41.89,41.891,41.89c23.1,0,41.892-18.792,41.892-41.89
		C243.244,194.123,235.692,181.223,224.286,173.73z M213.756,234.547c-3.753,1.809-7.96,2.821-12.403,2.821
		s-8.65-1.013-12.402-2.821c-9.589-4.62-16.205-14.431-16.205-25.786c0,0,0,0,0-0.001l0,0c0-0.001,0-0.001,0-0.002
		c0-0.677,0.032-1.347,0.078-2.012c0.012-0.157,0.022-0.314,0.036-0.471c0.057-0.655,0.129-1.306,0.229-1.947
		c0.011-0.065,0.024-0.13,0.035-0.195c0.097-0.595,0.215-1.182,0.348-1.764c0.032-0.14,0.063-0.28,0.097-0.419
		c0.152-0.624,0.322-1.241,0.515-1.849c0.028-0.088,0.06-0.173,0.089-0.261c0.182-0.554,0.381-1.1,0.595-1.639
		c0.042-0.106,0.082-0.213,0.126-0.319c0.244-0.594,0.508-1.179,0.791-1.752c0.042-0.086,0.087-0.169,0.13-0.254
		c0.272-0.539,0.561-1.068,0.865-1.588c0.033-0.057,0.065-0.115,0.099-0.172c0.337-0.563,0.693-1.113,1.066-1.65
		c0.048-0.069,0.098-0.137,0.146-0.205c0.021-0.029,0.041-0.058,0.062-0.087c0,0.001,0,0.003,0,0.004
		c3.238-4.538,7.764-8.097,13.05-10.127V57.232c0-4.809,3.411-8.821,7.945-9.749c0.648-0.133,1.319-0.202,2.006-0.202
		s1.357,0.069,2.006,0.202c4.534,0.928,7.945,4.939,7.945,9.749v124.593c5.278,1.892,9.826,5.302,13.151,9.688
		c0.001-0.008,0.002-0.016,0.003-0.022c0.128,0.169,0.252,0.341,0.377,0.513c0.064,0.089,0.127,0.179,0.19,0.269
		c0.758,1.073,1.443,2.199,2.051,3.373c0.058,0.112,0.116,0.225,0.173,0.338c0.29,0.579,0.563,1.168,0.814,1.769
		c0.03,0.071,0.057,0.145,0.086,0.217c0.225,0.552,0.431,1.112,0.622,1.681c0.039,0.117,0.081,0.233,0.119,0.352
		c0.197,0.613,0.374,1.235,0.529,1.866c0.031,0.126,0.059,0.253,0.088,0.38c0.135,0.578,0.253,1.162,0.352,1.752
		c0.016,0.094,0.035,0.185,0.05,0.278c0.103,0.649,0.179,1.307,0.236,1.97c0.013,0.152,0.023,0.306,0.034,0.459
		c0.049,0.679,0.082,1.361,0.082,2.052c0,0.001,0,0.001,0,0.002l0,0c0,0.001,0,0.001,0,0.001
		C229.961,220.116,223.344,229.927,213.756,234.547z"/>
	<path d="M209.21,186.827l-3.521-1.262v-3.74V57.232c0-2.557-2.08-4.638-4.637-4.638s-4.637,2.081-4.637,4.638v124.82v3.651
		l-3.409,1.309c-8.94,3.435-14.948,12.174-14.948,21.748c0,12.846,10.45,23.295,23.295,23.295s23.295-10.449,23.295-23.295
		C224.647,198.95,218.443,190.135,209.21,186.827z"/>
</g>
</svg>
