<?xml version="1.0" encoding="utf-8"?>
<!-- Generator: Adobe Illustrator 15.1.0, SVG Export Plug-In . SVG Version: 6.00 Build 0)  -->
<!DOCTYPE svg PUBLIC "-//W3C//DTD SVG 1.1//EN" "http://www.w3.org/Graphics/SVG/1.1/DTD/svg11.dtd">
<svg version="1.1" id="Layer_1" xmlns="http://www.w3.org/2000/svg" xmlns:xlink="http://www.w3.org/1999/xlink" x="0px" y="0px"
	 width="283.68px" height="283.92px" viewBox="0 0 283.68 283.92" enable-background="new 0 0 283.68 283.92" xml:space="preserve">
<g>
	<path d="M50.13,200.63c31.105,23.328,77.761,27.216,104.978-3.889c3.888-7.775,7.776-15.552,7.817-24.979
		c-2.408-12.569-7.759-16.478-7.759-16.478c-7.835,22.018-31.164,33.682-54.492,25.905c-27.217-11.665-42.769-34.993-46.657-62.209
		C48.986,78.726,70.018,45,101.279,23.038C51.771,39.802,16.122,86.615,16.122,141.786c0,5.945,0.443,11.785,1.244,17.51
		C25.205,174.648,36.554,188.751,50.13,200.63"/>
	<path d="M209.541,220.07c19.44-38.882,7.776-93.314-38.064-99.71c-12.569,2.408-16.478,7.758-16.478,7.758
		c38.99,21.967,27.326,72.512-7.667,91.952c-46.469,21.867-96.75-0.49-125.236-40.002C38.28,230.585,85.61,267.164,141.5,267.164
		c7.668,0,15.161-0.727,22.449-2.044C182.503,254.848,198.288,238.825,209.541,220.07"/>
	<path d="M205.653,68.436c-31.105-11.664-85.537,3.888-85.578,43.374c2.408,12.568,7.757,16.477,7.757,16.477
		c11.724-20.97,31.164-32.635,54.493-24.858c27.216,11.664,42.768,34.992,46.656,62.209c5.21,41.676-19.262,74.609-52.339,96.498
		c52.132-15.199,90.235-63.311,90.235-120.351c0-8.063-0.791-15.937-2.245-23.576C252.056,96.296,231.382,78.332,205.653,68.436"/>
	<path d="M65.683,118.98c3.888,23.328,19.44,42.769,45.841,44.229c12.569-2.408,16.477-7.758,16.477-7.758
		c-19.549-9.256-27.325-24.808-23.437-40.36c0-31.105,27.216-58.321,58.321-62.209c38.495-4.812,73.998,15.698,96.403,45.845
		C241.724,50.693,195.617,16.407,141.5,16.407c-7.187,0-14.219,0.637-21.075,1.798C83.396,36.067,56.591,73.52,65.683,118.98"/>
</g>
</svg>
