<?xml version="1.0" encoding="utf-8"?>
<!-- Generator: Adobe Illustrator 15.1.0, SVG Export Plug-In . SVG Version: 6.00 Build 0)  -->
<!DOCTYPE svg PUBLIC "-//W3C//DTD SVG 1.1//EN" "http://www.w3.org/Graphics/SVG/1.1/DTD/svg11.dtd">
<svg version="1.1" id="Layer_1" xmlns="http://www.w3.org/2000/svg" xmlns:xlink="http://www.w3.org/1999/xlink" x="0px" y="0px"
	 width="283.68px" height="283.92px" viewBox="0 0 283.68 283.92" enable-background="new 0 0 283.68 283.92" xml:space="preserve">
<g>
	<circle fill="none" cx="141.84" cy="141.976" r="13.847"/>
	<path d="M141.84,118.868c-12.742,0-23.108,10.366-23.108,23.108c0,12.741,10.366,23.107,23.108,23.107
		c12.742,0,23.108-10.366,23.108-23.107C164.948,129.234,154.582,118.868,141.84,118.868z M141.84,155.822
		c-7.647,0-13.846-6.199-13.846-13.847c0-7.648,6.199-13.847,13.846-13.847c7.647,0,13.847,6.199,13.847,13.847
		C155.687,149.623,149.487,155.822,141.84,155.822z"/>
	<path d="M141.84,230.961c-2.558,0-4.631,2.073-4.631,4.631v6.375c0,2.557,2.073,4.631,4.631,4.631c2.558,0,4.631-2.074,4.631-4.631
		v-6.375C146.471,233.034,144.397,230.961,141.84,230.961z"/>
	<path d="M97.339,219.037c-2.213-1.277-5.047-0.519-6.325,1.695l-3.188,5.521c-1.279,2.215-0.519,5.047,1.696,6.326
		c0.729,0.421,1.525,0.621,2.31,0.621c1.601,0,3.157-0.831,4.015-2.316l3.187-5.521C100.313,223.148,99.554,220.316,97.339,219.037z
		"/>
	<path d="M57.547,195.973l5.521-3.188c2.215-1.278,2.973-4.11,1.695-6.325c-1.279-2.216-4.112-2.976-6.326-1.694l-5.521,3.188
		c-2.214,1.277-2.973,4.109-1.694,6.324c0.858,1.485,2.414,2.316,4.014,2.316C56.022,196.595,56.818,196.395,57.547,195.973z"/>
	<path d="M52.839,141.96c0-2.558-2.073-4.631-4.631-4.631h-6.375c-2.557,0-4.631,2.073-4.631,4.631c0,2.558,2.074,4.631,4.631,4.631
		h6.375C50.767,146.591,52.839,144.518,52.839,141.96z"/>
	<path d="M52.916,95.967l5.521,3.188c0.73,0.42,1.526,0.621,2.311,0.621c1.601,0,3.157-0.831,4.015-2.316
		c1.279-2.215,0.52-5.047-1.695-6.326l-5.521-3.188c-2.215-1.277-5.047-0.519-6.326,1.695
		C49.943,91.856,50.701,94.688,52.916,95.967z"/>
	<path d="M91.014,63.188c0.858,1.486,2.414,2.316,4.015,2.316c0.785,0,1.582-0.2,2.311-0.621c2.215-1.279,2.973-4.111,1.695-6.326
		l-3.188-5.52c-1.279-2.215-4.111-2.974-6.326-1.695c-2.215,1.279-2.973,4.111-1.695,6.325L91.014,63.188z"/>
	<path d="M141.84,52.959c2.558,0,4.631-2.073,4.631-4.631v-6.374c0-2.558-2.073-4.631-4.631-4.631c-2.558,0-4.631,2.073-4.631,4.631
		v6.374C137.209,50.886,139.282,52.959,141.84,52.959z"/>
	<path d="M186.34,64.883c0.729,0.421,1.525,0.621,2.312,0.621c1.6,0,3.156-0.83,4.015-2.316l3.188-5.521
		c1.278-2.215,0.52-5.047-1.695-6.326c-2.215-1.277-5.047-0.521-6.326,1.695l-3.188,5.521
		C183.366,60.772,184.125,63.604,186.34,64.883z"/>
	<path d="M232.459,89.642c-1.28-2.216-4.112-2.973-6.326-1.695l-5.521,3.187c-2.215,1.279-2.974,4.111-1.695,6.326
		c0.858,1.485,2.415,2.316,4.015,2.316c0.786,0,1.582-0.2,2.313-0.621l5.521-3.188C232.979,94.688,233.737,91.856,232.459,89.642z"
		/>
	<path d="M241.847,137.329h-6.375c-2.558,0-4.631,2.073-4.631,4.631s2.073,4.631,4.631,4.631h6.375c2.558,0,4.631-2.073,4.631-4.631
		S244.404,137.329,241.847,137.329z"/>
	<path d="M230.764,187.952l-5.521-3.188c-2.215-1.275-5.047-0.52-6.327,1.696c-1.278,2.215-0.52,5.047,1.695,6.326l5.521,3.187
		c0.729,0.422,1.525,0.622,2.312,0.622c1.6,0,3.156-0.831,4.015-2.316C233.737,192.063,232.979,189.231,230.764,187.952z"/>
	<path d="M192.667,220.731c-1.28-2.216-4.112-2.974-6.326-1.695c-2.215,1.279-2.974,4.111-1.694,6.326l3.187,5.521
		c0.858,1.485,2.415,2.316,4.015,2.316c0.786,0,1.582-0.2,2.312-0.621c2.215-1.279,2.974-4.111,1.696-6.327L192.667,220.731z"/>
	<path d="M141.84,176.243c-2.558,0-4.631,2.073-4.631,4.631v40.718c0,2.558,2.073,4.63,4.631,4.63c2.558,0,4.631-2.072,4.631-4.63
		v-40.718C146.471,178.316,144.397,176.243,141.84,176.243z"/>
	<path d="M110.455,165.427c2.215-1.278,2.973-4.11,1.695-6.325c-1.28-2.216-4.111-2.974-6.326-1.695l-35.263,20.358
		c-2.215,1.279-2.973,4.111-1.695,6.326c0.858,1.485,2.415,2.316,4.015,2.316c0.786,0,1.582-0.2,2.311-0.621L110.455,165.427z"/>
	<path d="M70.561,106.154l35.263,20.36c0.73,0.42,1.526,0.621,2.311,0.621c1.601,0,3.157-0.831,4.015-2.316
		c1.279-2.215,0.52-5.047-1.695-6.326L75.192,98.134c-2.215-1.279-5.046-0.52-6.325,1.694
		C67.588,102.043,68.347,104.875,70.561,106.154z"/>
	<path d="M141.84,107.677c2.558,0,4.631-2.073,4.631-4.631V62.328c0-2.558-2.073-4.631-4.631-4.631
		c-2.558,0-4.631,2.073-4.631,4.631v40.718C137.209,105.604,139.282,107.677,141.84,107.677z"/>
	<path d="M175.544,127.134c0.786,0,1.582-0.2,2.312-0.621l35.263-20.358c2.215-1.279,2.973-4.111,1.695-6.326
		c-1.28-2.216-4.112-2.973-6.326-1.695l-35.263,20.359c-2.215,1.279-2.974,4.111-1.695,6.326
		C172.388,126.304,173.944,127.134,175.544,127.134z"/>
	<path d="M213.118,177.765l-35.263-20.358c-2.213-1.277-5.046-0.52-6.326,1.695c-1.278,2.215-0.52,5.047,1.695,6.326l35.263,20.357
		c0.729,0.422,1.526,0.622,2.312,0.622c1.6,0,3.156-0.831,4.015-2.316C216.092,181.876,215.333,179.044,213.118,177.765z"/>
	<path d="M84.97,142.422c0-2.073-1.686-3.759-3.759-3.759c-2.073,0-3.759,1.686-3.759,3.759c0,2.073,1.686,3.76,3.759,3.76
		C83.284,146.182,84.97,144.495,84.97,142.422z M81.211,144.675c-1.244,0-2.253-1.008-2.253-2.253c0-1.244,1.009-2.252,2.253-2.252
		c1.244,0,2.253,1.008,2.253,2.252C83.464,143.667,82.455,144.675,81.211,144.675z"/>
	<path d="M81.211,156.899c-0.416,0-0.753,0.338-0.753,0.754v1.037c0,0.416,0.337,0.754,0.753,0.754s0.753-0.338,0.753-0.754v-1.037
		C81.965,157.237,81.627,156.899,81.211,156.899z"/>
	<path d="M72.942,155.235l-0.519,0.898c-0.208,0.36-0.085,0.821,0.275,1.029c0.119,0.068,0.249,0.102,0.376,0.102
		c0.26,0,0.513-0.136,0.653-0.377l0.519-0.898c0.208-0.36,0.085-0.821-0.275-1.029C73.612,154.752,73.151,154.876,72.942,155.235z"
		/>
	<path d="M68.671,149.659c-0.209-0.36-0.668-0.482-1.029-0.275l-0.898,0.519c-0.36,0.208-0.484,0.669-0.275,1.029
		c0.14,0.241,0.393,0.377,0.653,0.377c0.128,0,0.258-0.033,0.376-0.102l0.898-0.519C68.756,150.48,68.879,150.02,68.671,149.659z"/>
	<path d="M64.188,142.419c0,0.416,0.337,0.753,0.753,0.753h1.037c0.416,0,0.753-0.337,0.753-0.753s-0.337-0.753-0.753-0.753h-1.037
		C64.525,141.666,64.188,142.003,64.188,142.419z"/>
	<path d="M67.642,135.455c0.119,0.069,0.248,0.101,0.376,0.101c0.26,0,0.513-0.135,0.653-0.376c0.208-0.36,0.085-0.821-0.275-1.029
		l-0.898-0.519c-0.358-0.208-0.821-0.085-1.029,0.275c-0.208,0.36-0.085,0.821,0.275,1.029L67.642,135.455z"/>
	<path d="M73.595,129.981c0.128,0,0.258-0.032,0.376-0.101c0.36-0.208,0.484-0.669,0.275-1.029l-0.519-0.898
		c-0.208-0.361-0.669-0.484-1.029-0.275c-0.36,0.208-0.484,0.669-0.275,1.029l0.519,0.898
		C73.082,129.846,73.335,129.981,73.595,129.981z"/>
	<path d="M81.211,127.94c0.416,0,0.753-0.337,0.753-0.753v-1.037c0-0.416-0.337-0.753-0.753-0.753s-0.753,0.337-0.753,0.753v1.037
		C80.458,127.603,80.795,127.94,81.211,127.94z"/>
	<path d="M88.828,129.981c0.26,0,0.513-0.135,0.653-0.376L90,128.707c0.208-0.36,0.085-0.821-0.275-1.029
		c-0.36-0.208-0.821-0.085-1.029,0.275l-0.519,0.898c-0.208,0.36-0.085,0.821,0.275,1.029
		C88.57,129.949,88.699,129.981,88.828,129.981z"/>
	<path d="M94.404,135.557c0.128,0,0.258-0.032,0.376-0.101l0.898-0.519c0.36-0.208,0.484-0.669,0.275-1.029
		s-0.669-0.485-1.029-0.275l-0.898,0.519c-0.36,0.208-0.484,0.669-0.275,1.029C93.891,135.422,94.144,135.557,94.404,135.557z"/>
	<path d="M97.481,143.174c0.416,0,0.753-0.337,0.753-0.753s-0.337-0.753-0.753-0.753h-1.037c-0.416,0-0.753,0.337-0.753,0.753
		s0.337,0.753,0.753,0.753H97.481z"/>
	<path d="M94.026,150.689l0.898,0.519c0.119,0.068,0.249,0.102,0.376,0.102c0.26,0,0.514-0.136,0.653-0.377
		c0.208-0.36,0.085-0.821-0.275-1.029l-0.898-0.519c-0.359-0.208-0.822-0.084-1.029,0.275
		C93.542,150.021,93.666,150.481,94.026,150.689z"/>
	<path d="M88.45,154.96c-0.36,0.208-0.484,0.669-0.275,1.029l0.519,0.898c0.14,0.241,0.393,0.377,0.653,0.377
		c0.128,0,0.258-0.033,0.376-0.102c0.36-0.208,0.484-0.669,0.275-1.029l-0.519-0.898C89.271,154.876,88.81,154.752,88.45,154.96z"/>
	<path d="M81.965,148.751c0-0.416-0.337-0.754-0.753-0.754s-0.753,0.338-0.753,0.754v6.625c0,0.416,0.337,0.754,0.753,0.754
		s0.753-0.338,0.753-0.754V148.751z"/>
	<path d="M76.381,145.208c-0.208-0.36-0.67-0.483-1.029-0.275l-5.737,3.313c-0.36,0.208-0.484,0.669-0.275,1.029
		c0.139,0.241,0.393,0.377,0.653,0.377c0.128,0,0.258-0.033,0.376-0.102l5.737-3.313C76.466,146.029,76.589,145.568,76.381,145.208z
		"/>
	<path d="M76.105,138.602l-5.737-3.312c-0.36-0.209-0.821-0.085-1.029,0.275c-0.208,0.361-0.085,0.821,0.275,1.029l5.737,3.312
		c0.119,0.069,0.249,0.101,0.376,0.101c0.26,0,0.514-0.135,0.653-0.376C76.589,139.27,76.466,138.81,76.105,138.602z"/>
	<path d="M80.458,136.089c0,0.416,0.337,0.753,0.753,0.753s0.753-0.337,0.753-0.753v-6.625c0-0.416-0.337-0.753-0.753-0.753
		s-0.753,0.337-0.753,0.753V136.089z"/>
	<path d="M93.083,135.565c-0.209-0.361-0.668-0.484-1.029-0.275l-5.737,3.313c-0.36,0.208-0.484,0.669-0.275,1.029
		c0.14,0.242,0.393,0.376,0.653,0.376c0.128,0,0.258-0.032,0.376-0.101l5.737-3.313C93.168,136.386,93.292,135.925,93.083,135.565z"
		/>
	<path d="M92.43,149.651c0.26,0,0.514-0.136,0.653-0.377c0.208-0.36,0.085-0.821-0.275-1.029l-5.737-3.313
		c-0.36-0.208-0.822-0.085-1.029,0.275c-0.208,0.36-0.085,0.821,0.275,1.029l5.737,3.313
		C92.172,149.618,92.302,149.651,92.43,149.651z"/>
	<path d="M103.229,192.883c-2.073,0-3.759,1.686-3.759,3.759c0,2.072,1.686,3.76,3.759,3.76c2.073,0,3.759-1.688,3.759-3.76
		C106.988,194.568,105.302,192.883,103.229,192.883z M103.229,198.895c-1.244,0-2.253-1.008-2.253-2.253
		c0-1.244,1.009-2.252,2.253-2.252s2.253,1.008,2.253,2.252C105.482,197.887,104.473,198.895,103.229,198.895z"/>
	<path d="M103.229,211.119c-0.416,0-0.753,0.338-0.753,0.754v1.037c0,0.416,0.337,0.754,0.753,0.754s0.753-0.338,0.753-0.754v-1.037
		C103.982,211.457,103.645,211.119,103.229,211.119z"/>
	<path d="M94.96,209.454l-0.519,0.898c-0.208,0.36-0.085,0.821,0.275,1.029c0.119,0.068,0.249,0.102,0.376,0.102
		c0.26,0,0.513-0.136,0.653-0.377l0.519-0.898c0.208-0.36,0.085-0.821-0.275-1.029C95.63,208.972,95.168,209.094,94.96,209.454z"/>
	<path d="M88.486,205.15c0.14,0.241,0.393,0.377,0.653,0.377c0.128,0,0.257-0.033,0.376-0.102l0.898-0.519
		c0.361-0.208,0.484-0.669,0.276-1.029c-0.208-0.359-0.669-0.482-1.029-0.275l-0.898,0.519
		C88.401,204.329,88.278,204.79,88.486,205.15z"/>
	<path d="M88.75,196.64c0-0.416-0.337-0.754-0.753-0.754h-1.037c-0.416,0-0.753,0.338-0.753,0.754s0.337,0.754,0.753,0.754h1.037
		C88.412,197.394,88.75,197.056,88.75,196.64z"/>
	<path d="M90.037,189.776c0.26,0,0.514-0.136,0.653-0.377c0.208-0.36,0.085-0.821-0.275-1.029l-0.898-0.519
		c-0.359-0.208-0.822-0.084-1.029,0.275c-0.208,0.36-0.085,0.821,0.275,1.029l0.898,0.519
		C89.779,189.743,89.909,189.776,90.037,189.776z"/>
	<path d="M95.613,184.201c0.128,0,0.258-0.033,0.376-0.102c0.36-0.208,0.484-0.669,0.275-1.029l-0.519-0.898
		c-0.208-0.36-0.67-0.482-1.029-0.275c-0.36,0.208-0.484,0.669-0.275,1.029l0.519,0.898C95.1,184.065,95.353,184.201,95.613,184.201
		z"/>
	<path d="M103.982,180.369c0-0.416-0.337-0.754-0.753-0.754s-0.753,0.338-0.753,0.754v1.037c0,0.416,0.337,0.754,0.753,0.754
		s0.753-0.338,0.753-0.754V180.369z"/>
	<path d="M110.712,182.172l-0.519,0.898c-0.208,0.36-0.085,0.821,0.275,1.029c0.119,0.068,0.249,0.102,0.376,0.102
		c0.26,0,0.513-0.136,0.653-0.377l0.519-0.898c0.208-0.36,0.085-0.821-0.275-1.029C111.381,181.689,110.92,181.812,110.712,182.172z
		"/>
	<path d="M116.045,188.37c-0.361,0.208-0.484,0.669-0.276,1.029c0.14,0.241,0.393,0.377,0.653,0.377
		c0.128,0,0.257-0.033,0.376-0.102l0.898-0.519c0.361-0.208,0.484-0.669,0.276-1.029c-0.208-0.359-0.669-0.483-1.029-0.275
		L116.045,188.37z"/>
	<path d="M119.5,195.885h-1.037c-0.416,0-0.753,0.338-0.753,0.754s0.337,0.754,0.753,0.754h1.037c0.416,0,0.753-0.338,0.753-0.754
		S119.916,195.885,119.5,195.885z"/>
	<path d="M117.696,204.122l-0.898-0.519c-0.36-0.207-0.821-0.084-1.029,0.275c-0.208,0.36-0.085,0.821,0.275,1.029l0.898,0.519
		c0.119,0.068,0.249,0.102,0.376,0.102c0.26,0,0.514-0.136,0.653-0.377C118.18,204.791,118.056,204.33,117.696,204.122z"/>
	<path d="M111.497,209.455c-0.208-0.361-0.668-0.481-1.03-0.275c-0.36,0.208-0.483,0.669-0.275,1.029l0.519,0.897
		c0.14,0.242,0.393,0.377,0.653,0.377c0.128,0,0.258-0.033,0.377-0.102c0.36-0.208,0.483-0.669,0.275-1.029L111.497,209.455z"/>
	<path d="M103.229,202.217c-0.416,0-0.753,0.338-0.753,0.754v6.625c0,0.416,0.337,0.754,0.753,0.754s0.753-0.338,0.753-0.754v-6.625
		C103.982,202.555,103.645,202.217,103.229,202.217z"/>
	<path d="M98.398,199.427c-0.208-0.36-0.669-0.482-1.029-0.275l-5.737,3.313c-0.36,0.208-0.484,0.669-0.275,1.029
		c0.14,0.241,0.393,0.377,0.653,0.377c0.128,0,0.258-0.033,0.376-0.102l5.737-3.313C98.483,200.248,98.607,199.787,98.398,199.427z"
		/>
	<path d="M98.123,192.821l-5.737-3.313c-0.359-0.207-0.821-0.085-1.029,0.275s-0.085,0.821,0.275,1.029l5.737,3.313
		c0.119,0.068,0.249,0.102,0.376,0.102c0.26,0,0.513-0.136,0.653-0.377C98.607,193.49,98.483,193.029,98.123,192.821z"/>
	<path d="M103.229,182.93c-0.416,0-0.753,0.338-0.753,0.754v6.625c0,0.416,0.337,0.754,0.753,0.754s0.753-0.338,0.753-0.754v-6.625
		C103.982,183.268,103.645,182.93,103.229,182.93z"/>
	<path d="M114.072,189.508l-5.737,3.313c-0.36,0.208-0.484,0.669-0.275,1.029c0.14,0.241,0.393,0.377,0.653,0.377
		c0.128,0,0.258-0.033,0.376-0.102l5.737-3.313c0.36-0.208,0.484-0.669,0.275-1.029
		C114.894,189.423,114.432,189.301,114.072,189.508z"/>
	<path d="M114.826,202.466l-5.737-3.313c-0.36-0.208-0.821-0.084-1.029,0.275c-0.208,0.36-0.085,0.821,0.275,1.029l5.737,3.313
		c0.119,0.068,0.249,0.102,0.376,0.102c0.26,0,0.513-0.136,0.653-0.377C115.31,203.135,115.186,202.674,114.826,202.466z"/>
	<path d="M214.769,152.864c0-2.073-1.687-3.76-3.76-3.76c-2.072,0-3.759,1.687-3.759,3.76c0,2.072,1.687,3.76,3.759,3.76
		C213.082,156.624,214.769,154.937,214.769,152.864z M208.756,152.864c0-1.244,1.009-2.252,2.253-2.252s2.253,1.008,2.253,2.252
		c0,1.245-1.009,2.253-2.253,2.253S208.756,154.109,208.756,152.864z"/>
	<path d="M211.009,167.342c-0.416,0-0.754,0.338-0.754,0.754v1.037c0,0.416,0.338,0.754,0.754,0.754s0.754-0.338,0.754-0.754v-1.037
		C211.763,167.68,211.425,167.342,211.009,167.342z"/>
	<path d="M202.74,165.678l-0.519,0.898c-0.208,0.36-0.085,0.821,0.275,1.029c0.119,0.068,0.248,0.102,0.376,0.102
		c0.261,0,0.514-0.136,0.653-0.377l0.519-0.898c0.208-0.36,0.085-0.821-0.275-1.029C203.407,165.194,202.948,165.318,202.74,165.678
		z"/>
	<path d="M196.92,161.752c0.128,0,0.257-0.033,0.376-0.102l0.897-0.519c0.36-0.208,0.483-0.669,0.275-1.029
		c-0.208-0.359-0.668-0.483-1.029-0.275l-0.897,0.519c-0.36,0.208-0.483,0.669-0.275,1.029
		C196.406,161.616,196.659,161.752,196.92,161.752z"/>
	<path d="M195.776,152.108h-1.037c-0.416,0-0.754,0.338-0.754,0.754s0.338,0.754,0.754,0.754h1.037c0.416,0,0.754-0.338,0.754-0.754
		S196.192,152.108,195.776,152.108z"/>
	<path d="M198.193,144.594l-0.898-0.519c-0.361-0.207-0.821-0.085-1.029,0.275s-0.085,0.821,0.275,1.029l0.898,0.519
		c0.119,0.068,0.248,0.102,0.376,0.102c0.261,0,0.514-0.136,0.653-0.377C198.677,145.263,198.554,144.802,198.193,144.594z"/>
	<path d="M203.394,140.423c0.128,0,0.257-0.032,0.376-0.101c0.36-0.208,0.483-0.669,0.275-1.029l-0.519-0.898
		c-0.209-0.36-0.667-0.485-1.029-0.275c-0.36,0.208-0.483,0.669-0.275,1.029l0.519,0.898
		C202.88,140.289,203.133,140.423,203.394,140.423z"/>
	<path d="M211.009,138.382c0.416,0,0.754-0.337,0.754-0.753v-1.037c0-0.416-0.338-0.753-0.754-0.753s-0.754,0.337-0.754,0.753v1.037
		C210.255,138.045,210.593,138.382,211.009,138.382z"/>
	<path d="M218.248,140.322c0.119,0.069,0.248,0.101,0.376,0.101c0.261,0,0.514-0.135,0.653-0.376l0.519-0.898
		c0.208-0.36,0.085-0.821-0.275-1.029c-0.362-0.209-0.821-0.085-1.029,0.275l-0.519,0.898
		C217.765,139.653,217.888,140.114,218.248,140.322z"/>
	<path d="M224.723,144.074l-0.898,0.519c-0.36,0.208-0.483,0.669-0.275,1.029c0.14,0.241,0.393,0.377,0.653,0.377
		c0.128,0,0.257-0.033,0.376-0.102l0.898-0.519c0.36-0.208,0.483-0.669,0.275-1.029C225.543,143.99,225.085,143.866,224.723,144.074
		z"/>
	<path d="M226.242,153.615h1.037c0.416,0,0.754-0.338,0.754-0.754s-0.338-0.754-0.754-0.754h-1.037
		c-0.416,0-0.754,0.338-0.754,0.754S225.826,153.615,226.242,153.615z"/>
	<path d="M223.824,161.13l0.898,0.52c0.118,0.068,0.248,0.102,0.376,0.102c0.261,0,0.514-0.135,0.653-0.377
		c0.208-0.36,0.085-0.821-0.275-1.029l-0.898-0.52c-0.359-0.207-0.821-0.085-1.029,0.275S223.464,160.922,223.824,161.13z"/>
	<path d="M218.492,167.329c0.14,0.241,0.393,0.377,0.653,0.377c0.128,0,0.257-0.033,0.376-0.102c0.36-0.208,0.483-0.669,0.275-1.029
		l-0.519-0.898c-0.208-0.359-0.667-0.482-1.029-0.275c-0.36,0.208-0.483,0.669-0.275,1.029L218.492,167.329z"/>
	<path d="M211.763,159.193c0-0.416-0.338-0.754-0.754-0.754s-0.754,0.338-0.754,0.754v6.625c0,0.416,0.338,0.754,0.754,0.754
		s0.754-0.338,0.754-0.754V159.193z"/>
	<path d="M206.179,155.651c-0.209-0.359-0.667-0.482-1.029-0.275l-5.737,3.313c-0.36,0.208-0.483,0.669-0.275,1.029
		c0.14,0.241,0.393,0.377,0.653,0.377c0.128,0,0.257-0.033,0.376-0.102l5.737-3.313
		C206.264,156.473,206.387,156.012,206.179,155.651z"/>
	<path d="M199.137,146.007c-0.208,0.36-0.085,0.821,0.275,1.029l5.736,3.313c0.119,0.068,0.248,0.102,0.376,0.102
		c0.261,0,0.514-0.136,0.653-0.377c0.208-0.36,0.085-0.821-0.275-1.029l-5.736-3.313
		C199.804,145.523,199.345,145.647,199.137,146.007z"/>
	<path d="M210.255,146.531c0,0.416,0.338,0.754,0.754,0.754s0.754-0.338,0.754-0.754v-6.625c0-0.416-0.338-0.753-0.754-0.753
		s-0.754,0.337-0.754,0.753V146.531z"/>
	<path d="M215.84,150.073c0.14,0.241,0.393,0.377,0.653,0.377c0.128,0,0.257-0.033,0.376-0.102l5.736-3.313
		c0.36-0.208,0.483-0.669,0.275-1.029c-0.208-0.359-0.668-0.483-1.029-0.275l-5.736,3.313
		C215.755,149.252,215.632,149.713,215.84,150.073z"/>
	<path d="M216.115,156.679l5.736,3.313c0.119,0.068,0.248,0.102,0.376,0.102c0.261,0,0.514-0.136,0.653-0.377
		c0.208-0.36,0.085-0.821-0.275-1.029l-5.736-3.313c-0.361-0.208-0.821-0.084-1.029,0.275
		C215.632,156.01,215.755,156.471,216.115,156.679z"/>
	<path d="M222.054,62.478c0-2.073-1.686-3.759-3.759-3.759s-3.759,1.686-3.759,3.759c0,2.073,1.686,3.76,3.759,3.76
		S222.054,64.551,222.054,62.478z M218.295,60.226c1.244,0,2.253,1.008,2.253,2.252c0,1.245-1.009,2.253-2.253,2.253
		s-2.253-1.008-2.253-2.253C216.042,61.234,217.051,60.226,218.295,60.226z"/>
	<path d="M217.541,78.747c0,0.416,0.338,0.753,0.754,0.753s0.754-0.337,0.754-0.753v-1.038c0-0.416-0.338-0.753-0.754-0.753
		s-0.754,0.337-0.754,0.753V78.747z"/>
	<path d="M210.026,75.292l-0.519,0.899c-0.208,0.36-0.085,0.821,0.275,1.029c0.119,0.068,0.248,0.101,0.376,0.101
		c0.261,0,0.514-0.135,0.653-0.377l0.519-0.899c0.208-0.36,0.085-0.821-0.275-1.029C210.694,74.808,210.234,74.931,210.026,75.292z"
		/>
	<path d="M204.726,69.44l-0.898,0.519c-0.36,0.208-0.483,0.669-0.275,1.029c0.14,0.242,0.393,0.376,0.653,0.376
		c0.128,0,0.257-0.032,0.376-0.101l0.898-0.519c0.36-0.208,0.483-0.669,0.275-1.029S205.088,69.231,204.726,69.44z"/>
	<path d="M202.024,63.23h1.037c0.416,0,0.754-0.337,0.754-0.753s-0.338-0.753-0.754-0.753h-1.037c-0.416,0-0.754,0.337-0.754,0.753
		S201.608,63.23,202.024,63.23z"/>
	<path d="M203.827,54.993l0.899,0.519c0.119,0.068,0.248,0.101,0.376,0.101c0.261,0,0.514-0.135,0.653-0.377
		c0.208-0.36,0.085-0.821-0.275-1.029l-0.899-0.519c-0.362-0.208-0.82-0.084-1.029,0.276
		C203.344,54.324,203.467,54.785,203.827,54.993z"/>
	<path d="M210.026,49.661c0.14,0.242,0.393,0.377,0.653,0.377c0.128,0,0.257-0.032,0.376-0.101c0.36-0.208,0.483-0.669,0.275-1.029
		l-0.519-0.899c-0.208-0.361-0.667-0.484-1.029-0.276c-0.36,0.208-0.483,0.669-0.275,1.029L210.026,49.661z"/>
	<path d="M218.295,47.997c0.416,0,0.754-0.337,0.754-0.753v-1.038c0-0.416-0.338-0.753-0.754-0.753s-0.754,0.337-0.754,0.753v1.038
		C217.541,47.659,217.879,47.997,218.295,47.997z"/>
	<path d="M225.534,49.937c0.119,0.068,0.248,0.101,0.376,0.101c0.261,0,0.514-0.135,0.653-0.377l0.519-0.899
		c0.208-0.36,0.085-0.821-0.275-1.029c-0.362-0.208-0.82-0.084-1.029,0.276l-0.519,0.899
		C225.051,49.268,225.174,49.729,225.534,49.937z"/>
	<path d="M231.487,55.613c0.128,0,0.257-0.032,0.376-0.101l0.899-0.519c0.36-0.208,0.483-0.669,0.275-1.029
		c-0.208-0.361-0.668-0.484-1.029-0.276l-0.899,0.519c-0.36,0.208-0.483,0.669-0.275,1.029
		C230.974,55.478,231.227,55.613,231.487,55.613z"/>
	<path d="M232.774,62.476c0,0.416,0.338,0.753,0.754,0.753h1.038c0.416,0,0.754-0.337,0.754-0.753s-0.338-0.753-0.754-0.753h-1.038
		C233.112,61.722,232.774,62.06,232.774,62.476z"/>
	<path d="M231.109,70.745l0.899,0.519c0.119,0.068,0.248,0.101,0.376,0.101c0.261,0,0.514-0.135,0.653-0.377
		c0.208-0.36,0.085-0.821-0.275-1.029l-0.899-0.519c-0.362-0.207-0.821-0.085-1.029,0.276
		C230.626,70.076,230.749,70.537,231.109,70.745z"/>
	<path d="M226.431,77.321c0.128,0,0.257-0.032,0.376-0.101c0.36-0.208,0.483-0.669,0.275-1.029l-0.519-0.899
		c-0.208-0.36-0.667-0.484-1.029-0.276c-0.36,0.208-0.483,0.669-0.275,1.029l0.519,0.899
		C225.917,77.186,226.17,77.321,226.431,77.321z"/>
	<path d="M218.295,76.186c0.416,0,0.754-0.337,0.754-0.753v-6.625c0-0.416-0.338-0.753-0.754-0.753s-0.754,0.337-0.754,0.753v6.625
		C217.541,75.848,217.879,76.186,218.295,76.186z"/>
	<path d="M207.076,69.708c0.128,0,0.257-0.032,0.376-0.101l5.736-3.313c0.36-0.208,0.483-0.669,0.275-1.029
		c-0.208-0.361-0.668-0.484-1.029-0.275l-5.736,3.313c-0.36,0.208-0.483,0.669-0.275,1.029
		C206.563,69.573,206.815,69.708,207.076,69.708z"/>
	<path d="M206.698,56.651l5.737,3.312c0.119,0.069,0.248,0.101,0.376,0.101c0.261,0,0.514-0.135,0.653-0.376
		c0.208-0.361,0.085-0.821-0.275-1.029l-5.737-3.312c-0.361-0.21-0.821-0.085-1.029,0.275
		C206.215,55.982,206.338,56.443,206.698,56.651z"/>
	<path d="M218.295,56.898c0.416,0,0.754-0.337,0.754-0.753V49.52c0-0.416-0.338-0.753-0.754-0.753s-0.754,0.337-0.754,0.753v6.625
		C217.541,56.561,217.879,56.898,218.295,56.898z"/>
	<path d="M223.778,60.064c0.128,0,0.257-0.032,0.376-0.101l5.737-3.313c0.36-0.208,0.483-0.669,0.275-1.029
		c-0.208-0.361-0.667-0.484-1.029-0.275l-5.737,3.313c-0.36,0.208-0.483,0.669-0.275,1.029
		C223.265,59.929,223.518,60.064,223.778,60.064z"/>
	<path d="M223.4,66.293l5.737,3.312c0.119,0.069,0.248,0.101,0.376,0.101c0.261,0,0.514-0.135,0.653-0.376
		c0.208-0.361,0.085-0.821-0.275-1.029l-5.737-3.312c-0.361-0.209-0.82-0.085-1.029,0.275
		C222.917,65.625,223.04,66.085,223.4,66.293z"/>
	<path d="M251.985,124.284c-1.375,0-2.493,1.119-2.493,2.494s1.118,2.494,2.493,2.494s2.494-1.119,2.494-2.494
		S253.36,124.284,251.985,124.284z M250.491,126.778c0-0.825,0.67-1.494,1.494-1.494c0.825,0,1.495,0.669,1.495,1.494
		c0,0.826-0.67,1.495-1.495,1.495C251.161,128.273,250.491,127.604,250.491,126.778z"/>
	<path d="M251.985,136.383c-0.276,0-0.5,0.224-0.5,0.5v0.688c0,0.276,0.224,0.5,0.5,0.5s0.5-0.224,0.5-0.5v-0.688
		C252.485,136.606,252.262,136.383,251.985,136.383z"/>
	<path d="M247.184,135.096c-0.235-0.139-0.544-0.057-0.683,0.182l-0.345,0.596c-0.139,0.239-0.057,0.545,0.183,0.683
		c0.078,0.046,0.165,0.067,0.25,0.067c0.172,0,0.34-0.089,0.433-0.25l0.345-0.596C247.505,135.54,247.423,135.234,247.184,135.096z"
		/>
	<path d="M242.983,131.397l-0.596,0.344c-0.239,0.138-0.321,0.444-0.183,0.683c0.093,0.161,0.261,0.25,0.433,0.25
		c0.085,0,0.172-0.021,0.25-0.067l0.596-0.344c0.239-0.138,0.321-0.444,0.183-0.683C243.528,131.34,243.22,131.26,242.983,131.397z"
		/>
	<path d="M241.191,127.276h0.688c0.276,0,0.5-0.224,0.5-0.5s-0.224-0.5-0.5-0.5h-0.688c-0.276,0-0.5,0.224-0.5,0.5
		S240.915,127.276,241.191,127.276z"/>
	<path d="M242.388,121.812l0.596,0.344c0.079,0.045,0.165,0.067,0.25,0.067c0.172,0,0.34-0.089,0.433-0.25
		c0.139-0.239,0.057-0.545-0.183-0.683l-0.596-0.344c-0.239-0.137-0.544-0.057-0.683,0.183
		C242.066,121.368,242.148,121.674,242.388,121.812z"/>
	<path d="M246.498,118.273c0.093,0.161,0.261,0.25,0.434,0.25c0.085,0,0.171-0.021,0.25-0.067c0.239-0.138,0.321-0.444,0.184-0.683
		l-0.344-0.596c-0.139-0.24-0.445-0.322-0.684-0.184c-0.239,0.138-0.321,0.444-0.184,0.683L246.498,118.273z"/>
	<path d="M251.985,117.17c0.276,0,0.5-0.224,0.5-0.5v-0.688c0-0.276-0.224-0.5-0.5-0.5s-0.5,0.224-0.5,0.5v0.688
		C251.485,116.946,251.709,117.17,251.985,117.17z"/>
	<path d="M256.789,118.457c0.079,0.045,0.165,0.067,0.25,0.067c0.173,0,0.341-0.09,0.434-0.25l0.344-0.596
		c0.138-0.239,0.056-0.545-0.184-0.683c-0.24-0.139-0.545-0.057-0.684,0.184l-0.344,0.596
		C256.468,118.013,256.55,118.319,256.789,118.457z"/>
	<path d="M260.738,122.223c0.085,0,0.172-0.021,0.25-0.067l0.596-0.344c0.239-0.138,0.321-0.444,0.183-0.683
		c-0.139-0.239-0.445-0.319-0.683-0.183l-0.596,0.344c-0.239,0.138-0.321,0.444-0.183,0.683
		C260.398,122.133,260.566,122.223,260.738,122.223z"/>
	<path d="M262.779,126.275h-0.688c-0.276,0-0.5,0.224-0.5,0.5s0.224,0.5,0.5,0.5h0.688c0.276,0,0.5-0.224,0.5-0.5
		S263.056,126.275,262.779,126.275z"/>
	<path d="M261.585,131.74l-0.596-0.344c-0.238-0.136-0.544-0.057-0.683,0.183c-0.139,0.239-0.057,0.545,0.183,0.683l0.596,0.344
		c0.079,0.045,0.165,0.067,0.25,0.067c0.172,0,0.34-0.089,0.433-0.25C261.906,132.185,261.824,131.878,261.585,131.74z"/>
	<path d="M257.473,135.279c-0.139-0.24-0.444-0.322-0.684-0.184c-0.239,0.138-0.321,0.444-0.184,0.683l0.344,0.596
		c0.093,0.161,0.261,0.25,0.434,0.25c0.085,0,0.171-0.021,0.25-0.067c0.239-0.138,0.321-0.444,0.184-0.683L257.473,135.279z"/>
	<path d="M251.985,130.477c-0.276,0-0.5,0.224-0.5,0.5v4.395c0,0.276,0.224,0.5,0.5,0.5s0.5-0.224,0.5-0.5v-4.395
		C252.485,130.7,252.262,130.477,251.985,130.477z"/>
	<path d="M248.099,128.444l-3.806,2.197c-0.239,0.138-0.321,0.444-0.183,0.683c0.092,0.161,0.26,0.25,0.433,0.25
		c0.085,0,0.171-0.021,0.25-0.067l3.806-2.197c0.239-0.138,0.321-0.444,0.183-0.683
		C248.645,128.388,248.339,128.308,248.099,128.444z"/>
	<path d="M248.599,124.243l-3.806-2.198c-0.238-0.136-0.545-0.057-0.683,0.183c-0.139,0.239-0.057,0.545,0.183,0.683l3.806,2.198
		c0.079,0.045,0.165,0.067,0.25,0.067c0.172,0,0.341-0.089,0.433-0.25C248.92,124.687,248.838,124.381,248.599,124.243z"/>
	<path d="M251.985,123.076c0.276,0,0.5-0.224,0.5-0.5v-4.395c0-0.276-0.224-0.5-0.5-0.5s-0.5,0.224-0.5,0.5v4.395
		C251.485,122.853,251.709,123.076,251.985,123.076z"/>
	<path d="M255.623,125.176c0.085,0,0.171-0.021,0.25-0.067l3.806-2.197c0.239-0.138,0.321-0.444,0.183-0.683
		c-0.137-0.24-0.443-0.32-0.683-0.183l-3.806,2.197c-0.239,0.138-0.321,0.444-0.183,0.683
		C255.282,125.086,255.451,125.176,255.623,125.176z"/>
	<path d="M259.68,130.641l-3.806-2.198c-0.239-0.137-0.546-0.056-0.683,0.183c-0.139,0.239-0.057,0.545,0.183,0.683l3.806,2.198
		c0.079,0.045,0.165,0.067,0.25,0.067c0.172,0,0.341-0.089,0.433-0.25C260.001,131.085,259.919,130.779,259.68,130.641z"/>
	<path d="M226.971,210.502c-1.375,0-2.494,1.119-2.494,2.494s1.119,2.494,2.494,2.494s2.494-1.119,2.494-2.494
		S228.346,210.502,226.971,210.502z M226.971,214.491c-0.825,0-1.495-0.669-1.495-1.495c0-0.825,0.67-1.494,1.495-1.494
		s1.495,0.669,1.495,1.494C228.466,213.822,227.796,214.491,226.971,214.491z"/>
	<path d="M226.971,222.602c-0.276,0-0.5,0.224-0.5,0.5v0.688c0,0.276,0.224,0.5,0.5,0.5s0.5-0.224,0.5-0.5v-0.688
		C227.471,222.825,227.247,222.602,226.971,222.602z"/>
	<path d="M222.168,221.313c-0.241-0.137-0.546-0.057-0.684,0.184l-0.344,0.597c-0.138,0.239-0.056,0.545,0.184,0.684
		c0.079,0.045,0.165,0.066,0.25,0.066c0.173,0,0.341-0.09,0.434-0.25l0.344-0.597C222.489,221.757,222.407,221.451,222.168,221.313z
		"/>
	<path d="M217.969,217.615l-0.597,0.345c-0.239,0.138-0.321,0.443-0.183,0.683c0.093,0.16,0.261,0.25,0.433,0.25
		c0.085,0,0.171-0.021,0.25-0.067l0.597-0.345c0.239-0.138,0.321-0.443,0.183-0.683
		C218.514,217.559,218.208,217.477,217.969,217.615z"/>
	<path d="M217.364,212.994c0-0.276-0.224-0.5-0.5-0.5h-0.688c-0.276,0-0.5,0.224-0.5,0.5s0.224,0.5,0.5,0.5h0.688
		C217.141,213.494,217.364,213.271,217.364,212.994z"/>
	<path d="M218.469,207.509l-0.597-0.344c-0.24-0.137-0.546-0.056-0.684,0.184s-0.056,0.545,0.184,0.684l0.597,0.344
		c0.079,0.045,0.165,0.066,0.25,0.066c0.173,0,0.341-0.09,0.434-0.25C218.79,207.953,218.708,207.647,218.469,207.509z"/>
	<path d="M221.322,203.214c-0.239,0.138-0.321,0.443-0.183,0.683l0.345,0.597c0.093,0.16,0.261,0.25,0.433,0.25
		c0.085,0,0.171-0.021,0.25-0.067c0.239-0.138,0.321-0.443,0.183-0.683l-0.345-0.597
		C221.867,203.157,221.562,203.076,221.322,203.214z"/>
	<path d="M227.471,202.2c0-0.276-0.224-0.5-0.5-0.5s-0.5,0.224-0.5,0.5v0.688c0,0.276,0.224,0.5,0.5,0.5s0.5-0.224,0.5-0.5V202.2z"
		/>
	<path d="M231.934,203.396l-0.344,0.597c-0.138,0.239-0.056,0.545,0.184,0.684c0.079,0.045,0.165,0.066,0.25,0.066
		c0.173,0,0.341-0.09,0.434-0.25l0.344-0.597c0.138-0.239,0.056-0.545-0.184-0.684C232.376,203.075,232.071,203.157,231.934,203.396
		z"/>
	<path d="M235.723,208.441c0.085,0,0.171-0.021,0.25-0.067l0.597-0.345c0.239-0.138,0.321-0.443,0.183-0.683
		s-0.443-0.32-0.683-0.183l-0.597,0.345c-0.239,0.138-0.321,0.443-0.183,0.683C235.383,208.352,235.551,208.441,235.723,208.441z"/>
	<path d="M237.765,212.495h-0.688c-0.276,0-0.5,0.224-0.5,0.5s0.224,0.5,0.5,0.5h0.688c0.276,0,0.5-0.224,0.5-0.5
		S238.041,212.495,237.765,212.495z"/>
	<path d="M236.569,217.958l-0.597-0.344c-0.24-0.137-0.546-0.057-0.684,0.184c-0.138,0.239-0.056,0.545,0.184,0.684l0.597,0.344
		c0.079,0.045,0.165,0.066,0.25,0.066c0.173,0,0.341-0.09,0.434-0.25C236.891,218.402,236.809,218.097,236.569,217.958z"/>
	<path d="M232.457,221.497c-0.139-0.239-0.443-0.321-0.683-0.183c-0.239,0.138-0.321,0.443-0.183,0.683l0.345,0.597
		c0.093,0.16,0.261,0.25,0.433,0.25c0.085,0,0.171-0.021,0.25-0.067c0.239-0.138,0.321-0.443,0.183-0.683L232.457,221.497z"/>
	<path d="M226.971,216.695c-0.276,0-0.5,0.224-0.5,0.5v4.396c0,0.276,0.224,0.5,0.5,0.5s0.5-0.224,0.5-0.5v-4.396
		C227.471,216.919,227.247,216.695,226.971,216.695z"/>
	<path d="M223.083,214.662l-3.807,2.198c-0.239,0.138-0.321,0.443-0.183,0.683c0.092,0.16,0.261,0.25,0.433,0.25
		c0.085,0,0.171-0.021,0.25-0.067l3.807-2.198c0.239-0.138,0.321-0.443,0.183-0.683
		C223.629,214.605,223.322,214.524,223.083,214.662z"/>
	<path d="M223.583,210.463l-3.807-2.198c-0.238-0.139-0.545-0.056-0.683,0.183c-0.139,0.239-0.057,0.545,0.183,0.683l3.807,2.198
		c0.079,0.046,0.165,0.067,0.25,0.067c0.172,0,0.341-0.09,0.433-0.25C223.904,210.906,223.822,210.601,223.583,210.463z"/>
	<path d="M226.971,203.898c-0.276,0-0.5,0.224-0.5,0.5v4.396c0,0.276,0.224,0.5,0.5,0.5s0.5-0.224,0.5-0.5v-4.396
		C227.471,204.122,227.247,203.898,226.971,203.898z"/>
	<path d="M234.165,208.264l-3.807,2.198c-0.239,0.138-0.321,0.443-0.183,0.683c0.092,0.16,0.261,0.25,0.433,0.25
		c0.085,0,0.171-0.021,0.25-0.067l3.807-2.198c0.239-0.138,0.321-0.443,0.183-0.683
		C234.711,208.207,234.405,208.126,234.165,208.264z"/>
	<path d="M234.665,216.86l-3.807-2.198c-0.238-0.138-0.545-0.057-0.683,0.183c-0.139,0.239-0.057,0.545,0.183,0.683l3.807,2.198
		c0.079,0.046,0.165,0.067,0.25,0.067c0.172,0,0.341-0.09,0.433-0.25C234.986,217.304,234.904,216.998,234.665,216.86z"/>
	<path d="M64.892,228.469c-1.375,0-2.494,1.119-2.494,2.494s1.119,2.493,2.494,2.493s2.494-1.118,2.494-2.493
		S66.267,228.469,64.892,228.469z M63.397,230.963c0-0.825,0.67-1.494,1.495-1.494c0.825,0,1.495,0.669,1.495,1.494
		s-0.67,1.494-1.495,1.494C64.067,232.457,63.397,231.788,63.397,230.963z"/>
	<path d="M64.892,240.567c-0.276,0-0.5,0.224-0.5,0.5v0.688c0,0.276,0.224,0.5,0.5,0.5s0.5-0.224,0.5-0.5v-0.688
		C65.392,240.791,65.168,240.567,64.892,240.567z"/>
	<path d="M60.089,239.281c-0.239-0.141-0.545-0.057-0.683,0.183l-0.344,0.595c-0.138,0.239-0.056,0.545,0.183,0.683
		c0.079,0.046,0.165,0.067,0.25,0.067c0.173,0,0.341-0.09,0.434-0.25l0.344-0.595C60.411,239.725,60.329,239.419,60.089,239.281z"/>
	<path d="M55.889,235.583l-0.595,0.344c-0.239,0.138-0.321,0.443-0.183,0.683c0.093,0.16,0.261,0.25,0.434,0.25
		c0.085,0,0.171-0.021,0.25-0.067l0.595-0.344c0.239-0.138,0.321-0.443,0.183-0.683S56.127,235.442,55.889,235.583z"/>
	<path d="M55.286,230.961c0-0.276-0.224-0.5-0.5-0.5h-0.687c-0.276,0-0.5,0.224-0.5,0.5s0.224,0.5,0.5,0.5h0.687
		C55.063,231.461,55.286,231.237,55.286,230.961z"/>
	<path d="M56.39,225.477l-0.595-0.345c-0.239-0.14-0.545-0.058-0.683,0.182c-0.139,0.239-0.057,0.545,0.182,0.684l0.595,0.345
		c0.079,0.046,0.165,0.067,0.25,0.067c0.172,0,0.34-0.09,0.433-0.249C56.711,225.921,56.629,225.615,56.39,225.477z"/>
	<path d="M59.244,221.181c-0.239,0.138-0.321,0.443-0.183,0.683l0.344,0.595c0.093,0.16,0.261,0.25,0.434,0.25
		c0.085,0,0.171-0.021,0.25-0.067c0.239-0.138,0.321-0.443,0.183-0.683l-0.344-0.595C59.789,221.124,59.481,221.041,59.244,221.181z
		"/>
	<path d="M65.392,220.168c0-0.276-0.224-0.5-0.5-0.5s-0.5,0.224-0.5,0.5v0.687c0,0.276,0.224,0.5,0.5,0.5s0.5-0.224,0.5-0.5V220.168
		z"/>
	<path d="M69.944,222.708c0.173,0,0.341-0.09,0.434-0.25l0.344-0.595c0.138-0.239,0.056-0.545-0.183-0.683
		c-0.239-0.14-0.545-0.057-0.683,0.183l-0.344,0.595c-0.138,0.239-0.056,0.545,0.183,0.683
		C69.773,222.687,69.859,222.708,69.944,222.708z"/>
	<path d="M73.646,226.406c0.085,0,0.171-0.021,0.25-0.067l0.595-0.344c0.239-0.138,0.321-0.443,0.183-0.683
		s-0.445-0.323-0.683-0.183l-0.595,0.344c-0.239,0.138-0.321,0.443-0.183,0.683C73.305,226.316,73.473,226.406,73.646,226.406z"/>
	<path d="M75.686,230.461h-0.687c-0.276,0-0.5,0.224-0.5,0.5s0.224,0.5,0.5,0.5h0.687c0.276,0,0.5-0.224,0.5-0.5
		S75.962,230.461,75.686,230.461z"/>
	<path d="M74.491,235.925l-0.595-0.344c-0.239-0.14-0.545-0.057-0.683,0.183s-0.056,0.545,0.183,0.683l0.595,0.344
		c0.079,0.046,0.165,0.067,0.25,0.067c0.173,0,0.341-0.09,0.434-0.25C74.812,236.368,74.73,236.063,74.491,235.925z"/>
	<path d="M70.38,239.463c-0.138-0.239-0.445-0.323-0.683-0.183c-0.239,0.138-0.321,0.443-0.183,0.683l0.344,0.596
		c0.093,0.16,0.261,0.25,0.434,0.25c0.085,0,0.171-0.021,0.25-0.067c0.239-0.138,0.321-0.443,0.183-0.683L70.38,239.463z"/>
	<path d="M64.892,234.661c-0.276,0-0.5,0.224-0.5,0.5v4.395c0,0.276,0.224,0.5,0.5,0.5s0.5-0.224,0.5-0.5v-4.395
		C65.392,234.885,65.168,234.661,64.892,234.661z"/>
	<path d="M61.004,232.63l-3.806,2.197c-0.239,0.138-0.321,0.443-0.183,0.683c0.093,0.16,0.261,0.25,0.434,0.25
		c0.085,0,0.171-0.021,0.25-0.067l3.806-2.197c0.239-0.138,0.321-0.443,0.183-0.683C61.549,232.573,61.242,232.49,61.004,232.63z"/>
	<path d="M61.505,228.43l-3.806-2.197c-0.24-0.141-0.545-0.057-0.683,0.183c-0.138,0.239-0.056,0.545,0.183,0.683l3.806,2.197
		c0.079,0.046,0.165,0.067,0.25,0.067c0.173,0,0.341-0.09,0.434-0.25C61.826,228.873,61.744,228.567,61.505,228.43z"/>
	<path d="M64.892,221.866c-0.276,0-0.5,0.224-0.5,0.5v4.395c0,0.276,0.224,0.5,0.5,0.5s0.5-0.224,0.5-0.5v-4.395
		C65.392,222.09,65.168,221.866,64.892,221.866z"/>
	<path d="M68.53,229.359c0.085,0,0.171-0.021,0.25-0.067l3.806-2.197c0.239-0.138,0.321-0.443,0.183-0.683
		c-0.139-0.239-0.445-0.323-0.683-0.183l-3.806,2.197c-0.239,0.138-0.321,0.443-0.183,0.683
		C68.189,229.27,68.357,229.359,68.53,229.359z"/>
	<path d="M72.586,234.825l-3.806-2.197c-0.24-0.14-0.545-0.057-0.683,0.183c-0.138,0.239-0.056,0.545,0.183,0.683l3.806,2.197
		c0.079,0.046,0.165,0.067,0.25,0.067c0.173,0,0.341-0.09,0.434-0.25C72.908,235.269,72.826,234.963,72.586,234.825z"/>
	<path d="M66.387,66.464c1.375,0,2.494-1.119,2.494-2.494s-1.119-2.494-2.494-2.494s-2.494,1.119-2.494,2.494
		S65.012,66.464,66.387,66.464z M66.387,62.477c0.825,0,1.495,0.669,1.495,1.494c0,0.826-0.67,1.495-1.495,1.495
		c-0.825,0-1.495-0.669-1.495-1.495C64.892,63.146,65.562,62.477,66.387,62.477z"/>
	<path d="M65.887,74.763c0,0.276,0.224,0.5,0.5,0.5s0.5-0.224,0.5-0.5v-0.688c0-0.276-0.224-0.5-0.5-0.5s-0.5,0.224-0.5,0.5V74.763z
		"/>
	<path d="M60.901,72.473l-0.344,0.596c-0.138,0.239-0.056,0.545,0.184,0.683c0.079,0.045,0.164,0.067,0.249,0.067
		c0.173,0,0.341-0.09,0.434-0.25l0.344-0.596c0.138-0.239,0.056-0.545-0.184-0.683C61.344,72.151,61.038,72.233,60.901,72.473z"/>
	<path d="M57.385,68.59l-0.596,0.344c-0.239,0.138-0.322,0.444-0.184,0.683c0.092,0.161,0.261,0.25,0.434,0.25
		c0.084,0,0.17-0.021,0.249-0.067l0.596-0.344c0.239-0.138,0.322-0.444,0.184-0.683C57.93,68.535,57.624,68.452,57.385,68.59z"/>
	<path d="M55.593,64.469h0.688c0.276,0,0.5-0.224,0.5-0.5s-0.224-0.5-0.5-0.5h-0.688c-0.276,0-0.5,0.224-0.5,0.5
		S55.316,64.469,55.593,64.469z"/>
	<path d="M56.788,59.005l0.596,0.344c0.079,0.045,0.164,0.067,0.249,0.067c0.173,0,0.341-0.09,0.434-0.25
		c0.138-0.239,0.056-0.545-0.184-0.683l-0.596-0.344c-0.239-0.138-0.545-0.056-0.683,0.184
		C56.466,58.562,56.549,58.868,56.788,59.005z"/>
	<path d="M60.9,55.466c0.093,0.161,0.261,0.25,0.434,0.25c0.085,0,0.171-0.021,0.25-0.067c0.239-0.138,0.321-0.444,0.183-0.683
		l-0.344-0.596c-0.139-0.24-0.445-0.322-0.683-0.183c-0.239,0.138-0.321,0.444-0.183,0.683L60.9,55.466z"/>
	<path d="M66.387,54.363c0.276,0,0.5-0.224,0.5-0.5v-0.688c0-0.276-0.224-0.5-0.5-0.5s-0.5,0.224-0.5,0.5v0.688
		C65.887,54.139,66.11,54.363,66.387,54.363z"/>
	<path d="M71.189,55.649c0.079,0.045,0.165,0.067,0.25,0.067c0.173,0,0.341-0.089,0.434-0.25l0.344-0.596
		c0.138-0.239,0.056-0.545-0.183-0.683c-0.239-0.139-0.545-0.056-0.683,0.183l-0.344,0.596
		C70.868,55.205,70.95,55.511,71.189,55.649z"/>
	<path d="M75.14,59.415c0.085,0,0.171-0.021,0.25-0.067l0.596-0.344c0.239-0.138,0.321-0.444,0.183-0.683
		c-0.139-0.24-0.445-0.321-0.683-0.183l-0.596,0.344c-0.239,0.138-0.321,0.444-0.183,0.683
		C74.799,59.326,74.967,59.415,75.14,59.415z"/>
	<path d="M75.993,63.969c0,0.276,0.224,0.5,0.5,0.5h0.688c0.276,0,0.5-0.224,0.5-0.5s-0.224-0.5-0.5-0.5h-0.688
		C76.216,63.469,75.993,63.692,75.993,63.969z"/>
	<path d="M75.987,68.933l-0.596-0.344c-0.239-0.139-0.545-0.057-0.683,0.183c-0.138,0.239-0.056,0.545,0.183,0.683l0.596,0.344
		c0.079,0.045,0.165,0.067,0.25,0.067c0.173,0,0.341-0.089,0.434-0.25C76.308,69.376,76.226,69.071,75.987,68.933z"/>
	<path d="M71.192,72.288c-0.239,0.138-0.322,0.444-0.184,0.683l0.344,0.596c0.092,0.161,0.261,0.25,0.434,0.25
		c0.084,0,0.17-0.021,0.249-0.067c0.239-0.138,0.322-0.444,0.184-0.683l-0.344-0.596C71.737,72.232,71.432,72.15,71.192,72.288z"/>
	<path d="M66.387,73.064c0.276,0,0.5-0.224,0.5-0.5v-4.395c0-0.276-0.224-0.5-0.5-0.5s-0.5,0.224-0.5,0.5v4.395
		C65.887,72.84,66.11,73.064,66.387,73.064z"/>
	<path d="M58.943,68.768c0.085,0,0.171-0.021,0.25-0.067l3.806-2.197c0.239-0.138,0.321-0.444,0.183-0.683s-0.445-0.322-0.683-0.183
		l-3.806,2.197c-0.239,0.138-0.321,0.444-0.183,0.683C58.603,68.678,58.771,68.768,58.943,68.768z"/>
	<path d="M58.693,60.105l3.806,2.197c0.079,0.045,0.165,0.067,0.25,0.067c0.173,0,0.341-0.09,0.434-0.25
		c0.138-0.239,0.056-0.545-0.183-0.683l-3.806-2.197c-0.239-0.139-0.545-0.056-0.683,0.183S58.454,59.967,58.693,60.105z"/>
	<path d="M66.387,60.269c0.276,0,0.5-0.224,0.5-0.5v-4.395c0-0.276-0.224-0.5-0.5-0.5s-0.5,0.224-0.5,0.5v4.395
		C65.887,60.045,66.11,60.269,66.387,60.269z"/>
	<path d="M70.025,62.368c0.085,0,0.171-0.021,0.25-0.067l3.806-2.197c0.239-0.138,0.321-0.444,0.183-0.683s-0.445-0.322-0.683-0.183
		l-3.806,2.197c-0.239,0.138-0.321,0.444-0.183,0.683C69.684,62.278,69.852,62.368,70.025,62.368z"/>
	<path d="M73.831,68.766c0.173,0,0.341-0.09,0.434-0.25c0.138-0.239,0.056-0.545-0.183-0.683l-3.806-2.197
		c-0.24-0.139-0.545-0.056-0.683,0.183c-0.138,0.239-0.056,0.545,0.183,0.683l3.806,2.197C73.66,68.744,73.746,68.766,73.831,68.766
		z"/>
	<path d="M114.523,34.462c1.375,0,2.494-1.119,2.494-2.494s-1.119-2.494-2.494-2.494s-2.494,1.119-2.494,2.494
		S113.148,34.462,114.523,34.462z M116.018,31.968c0,0.826-0.67,1.495-1.495,1.495c-0.825,0-1.495-0.669-1.495-1.495
		c0-0.825,0.67-1.494,1.495-1.494C115.348,30.474,116.018,31.143,116.018,31.968z"/>
	<path d="M114.523,41.573c-0.276,0-0.5,0.224-0.5,0.5v0.688c0,0.276,0.224,0.5,0.5,0.5s0.5-0.224,0.5-0.5v-0.688
		C115.023,41.796,114.8,41.573,114.523,41.573z"/>
	<path d="M109.037,40.469l-0.344,0.596c-0.138,0.239-0.056,0.545,0.183,0.683c0.079,0.045,0.165,0.067,0.25,0.067
		c0.173,0,0.341-0.09,0.434-0.25l0.344-0.596c0.138-0.239,0.056-0.545-0.183-0.683C109.481,40.147,109.175,40.228,109.037,40.469z"
		/>
	<path d="M105.521,36.585l-0.596,0.344c-0.239,0.138-0.322,0.444-0.184,0.683c0.092,0.161,0.261,0.25,0.434,0.25
		c0.084,0,0.17-0.021,0.249-0.067l0.596-0.344c0.239-0.138,0.322-0.444,0.184-0.683C106.066,36.529,105.76,36.447,105.521,36.585z"
		/>
	<path d="M103.729,32.466h0.688c0.276,0,0.5-0.224,0.5-0.5s-0.224-0.5-0.5-0.5h-0.688c-0.276,0-0.5,0.224-0.5,0.5
		S103.453,32.466,103.729,32.466z"/>
	<path d="M104.925,27.002l0.596,0.344c0.079,0.045,0.164,0.067,0.249,0.067c0.173,0,0.341-0.09,0.434-0.25
		c0.138-0.239,0.056-0.545-0.184-0.683l-0.596-0.344c-0.239-0.138-0.545-0.055-0.683,0.184
		C104.603,26.559,104.686,26.865,104.925,27.002z"/>
	<path d="M109.037,23.463c0.093,0.161,0.261,0.25,0.434,0.25c0.085,0,0.171-0.021,0.25-0.067c0.239-0.138,0.321-0.444,0.183-0.683
		l-0.344-0.596c-0.139-0.24-0.445-0.322-0.683-0.183c-0.239,0.138-0.321,0.444-0.183,0.683L109.037,23.463z"/>
	<path d="M114.523,22.36c0.276,0,0.5-0.224,0.5-0.5v-0.688c0-0.276-0.224-0.5-0.5-0.5s-0.5,0.224-0.5,0.5v0.688
		C114.023,22.136,114.247,22.36,114.523,22.36z"/>
	<path d="M119.327,23.647c0.079,0.045,0.165,0.067,0.25,0.067c0.173,0,0.341-0.089,0.434-0.25l0.344-0.596
		c0.138-0.239,0.056-0.545-0.183-0.683c-0.24-0.138-0.545-0.056-0.683,0.183l-0.344,0.596
		C119.005,23.203,119.087,23.509,119.327,23.647z"/>
	<path d="M123.277,27.413c0.084,0,0.17-0.021,0.249-0.067l0.596-0.344c0.239-0.138,0.322-0.444,0.184-0.683
		c-0.137-0.239-0.444-0.322-0.683-0.184l-0.596,0.344c-0.239,0.138-0.322,0.444-0.184,0.683
		C122.936,27.323,123.104,27.413,123.277,27.413z"/>
	<path d="M124.129,31.967c0,0.276,0.224,0.5,0.5,0.5h0.688c0.276,0,0.5-0.224,0.5-0.5s-0.224-0.5-0.5-0.5h-0.688
		C124.353,31.467,124.129,31.69,124.129,31.967z"/>
	<path d="M123.026,37.453l0.596,0.344c0.079,0.045,0.165,0.067,0.249,0.067c0.173,0,0.341-0.09,0.434-0.25
		c0.138-0.239,0.056-0.545-0.184-0.683l-0.596-0.344c-0.239-0.138-0.545-0.057-0.683,0.184
		C122.704,37.009,122.787,37.315,123.026,37.453z"/>
	<path d="M119.328,40.286c-0.239,0.138-0.322,0.444-0.184,0.683l0.344,0.596c0.092,0.161,0.261,0.25,0.434,0.25
		c0.084,0,0.17-0.021,0.249-0.067c0.239-0.138,0.322-0.444,0.184-0.683l-0.344-0.596C119.873,40.23,119.568,40.148,119.328,40.286z"
		/>
	<path d="M115.023,36.167c0-0.276-0.224-0.5-0.5-0.5s-0.5,0.224-0.5,0.5v4.395c0,0.276,0.224,0.5,0.5,0.5s0.5-0.224,0.5-0.5V36.167z
		"/>
	<path d="M111.319,33.815c-0.139-0.239-0.445-0.321-0.683-0.183l-3.806,2.197c-0.239,0.138-0.321,0.444-0.183,0.683
		c0.093,0.16,0.261,0.25,0.434,0.25c0.085,0,0.171-0.021,0.25-0.067l3.806-2.197C111.375,34.36,111.457,34.055,111.319,33.815z"/>
	<path d="M106.829,28.102l3.807,2.198c0.079,0.045,0.165,0.067,0.25,0.067c0.173,0,0.341-0.09,0.434-0.25
		c0.138-0.239,0.056-0.545-0.183-0.683l-3.807-2.198c-0.239-0.139-0.545-0.057-0.683,0.183
		C106.507,27.658,106.589,27.963,106.829,28.102z"/>
	<path d="M114.523,28.266c0.276,0,0.5-0.224,0.5-0.5v-4.395c0-0.276-0.224-0.5-0.5-0.5s-0.5,0.224-0.5,0.5v4.395
		C114.023,28.042,114.247,28.266,114.523,28.266z"/>
	<path d="M118.162,30.366c0.085,0,0.171-0.021,0.25-0.067l3.806-2.197c0.239-0.138,0.321-0.444,0.183-0.683
		s-0.445-0.322-0.683-0.183l-3.806,2.197c-0.239,0.138-0.321,0.444-0.183,0.683C117.821,30.276,117.989,30.366,118.162,30.366z"/>
	<path d="M117.91,34.5l3.807,2.198c0.079,0.045,0.165,0.067,0.25,0.067c0.173,0,0.341-0.09,0.434-0.25
		c0.138-0.239,0.056-0.545-0.183-0.683l-3.807-2.198c-0.239-0.139-0.545-0.056-0.683,0.183
		C117.589,34.056,117.671,34.361,117.91,34.5z"/>
</g>
</svg>
