<?xml version="1.0" encoding="utf-8"?>
<!-- Generator: Adobe Illustrator 15.1.0, SVG Export Plug-In . SVG Version: 6.00 Build 0)  -->
<!DOCTYPE svg PUBLIC "-//W3C//DTD SVG 1.1//EN" "http://www.w3.org/Graphics/SVG/1.1/DTD/svg11.dtd">
<svg version="1.1" id="Layer_1" xmlns="http://www.w3.org/2000/svg" xmlns:xlink="http://www.w3.org/1999/xlink" x="0px" y="0px"
	 width="283.68px" height="283.92px" viewBox="0 0 283.68 283.92" enable-background="new 0 0 283.68 283.92" xml:space="preserve">
<g>
	<path d="M165.686,207.818c-1.859-4.008-6.615-5.752-10.624-3.89c-4.008,1.859-5.749,6.615-3.89,10.624l16.978,36.596
		c1.354,2.918,4.243,4.635,7.262,4.635c1.127,0,2.272-0.239,3.362-0.745c4.008-1.859,5.749-6.615,3.89-10.624L165.686,207.818z"/>
	<path d="M252.646,181.635l-28.103-60.58c7.746-4.124,13.034-12.28,13.034-21.651c0-9.543-5.479-17.829-13.459-21.877
		c-4.159-8.969-12.244-15.66-21.927-18.012c-2.804-10.345-8.37-19.786-16.271-27.375c-11.173-10.731-25.858-16.641-41.354-16.641
		c-18.337,0-35.372,8.355-46.587,22.353c-1.404-0.138-2.819-0.207-4.241-0.207c-23.786,0-43.136,19.351-43.136,43.136
		c0,18.379,11.559,34.103,27.787,40.304l0.53,11.983c-17.302,3.125-48.585,8.783-56.253,10.161
		c5.047,5.618,35.942,40.045,48.384,53.903L37.811,207.71l-3.377,1.073l2.669,2.103l67.162,52.896l-61.958-53.234
		c10.924-2.121,41.387-8.053,43.509-8.457c0.066,0.095-20.81-29.516-32.905-46.67l38.284-3.198l8.302-0.694
		c0.388-4.427,1.553-17.431,2.461-27.61h7.979c-0.451,1.733-0.326,3.626,0.486,5.377l24.566,52.954
		c1.354,2.919,4.244,4.636,7.262,4.636c1.127,0,2.272-0.239,3.361-0.745c4.009-1.859,5.75-6.615,3.891-10.623l-19.697-42.458
		c4.792,1.225,9.748,1.869,14.761,1.869c1.754,0,3.5-0.086,5.236-0.239l36.258,78.156c1.354,2.919,4.243,4.636,7.262,4.636
		c1.127,0,2.272-0.239,3.361-0.745c4.009-1.859,5.75-6.615,3.891-10.623l-34.832-75.083c3.771-1.432,7.397-3.246,10.82-5.419
		c0.103,0.788,0.325,1.573,0.677,2.332l44.077,95.013c1.354,2.919,4.243,4.636,7.262,4.636c1.127,0,2.272-0.239,3.361-0.745
		c4.009-1.859,5.75-6.615,3.891-10.623l-42.819-92.303h15.222l29.898,64.45c1.354,2.919,4.243,4.636,7.262,4.636
		c1.127,0,2.272-0.239,3.361-0.745C252.765,190.398,254.506,185.643,252.646,181.635z M174.272,109.829
		c-7.983,6.857-18.356,11.009-29.704,11.009c-11.348,0-21.721-4.152-29.704-11.009H93.74c-16.043,0-29.049-13.005-29.049-29.048
		c0-16.043,13.006-29.049,29.049-29.049c3.732,0,7.296,0.712,10.575,1.995c7.683-14.365,22.824-24.141,40.253-24.141
		c24.529,0,44.53,19.359,45.576,43.63c1.396-0.336,2.848-0.533,4.348-0.533c9.487,0,17.299,7.118,18.42,16.303
		c0.053-0.001,0.103-0.008,0.153-0.008c5.758,0,10.426,4.668,10.426,10.426c0,5.758-4.668,10.425-10.426,10.425H174.272z"/>
	<path d="M116.45,189.521c-1.86-4.009-6.616-5.753-10.624-3.891c-4.008,1.859-5.75,6.615-3.891,10.623l16.977,36.596
		c1.354,2.919,4.244,4.636,7.263,4.636c1.127,0,2.271-0.239,3.361-0.745c4.008-1.859,5.75-6.615,3.891-10.623L116.45,189.521z"/>
</g>
</svg>
