<?xml version="1.0" encoding="utf-8"?>
<!-- Generator: Adobe Illustrator 15.1.0, SVG Export Plug-In . SVG Version: 6.00 Build 0)  -->
<!DOCTYPE svg PUBLIC "-//W3C//DTD SVG 1.1//EN" "http://www.w3.org/Graphics/SVG/1.1/DTD/svg11.dtd">
<svg version="1.1" id="Layer_1" xmlns="http://www.w3.org/2000/svg" xmlns:xlink="http://www.w3.org/1999/xlink" x="0px" y="0px"
	 width="283.68px" height="283.92px" viewBox="0 0 283.68 283.92" enable-background="new 0 0 283.68 283.92" xml:space="preserve">
<g>
	<path fill="none" d="M154.322,47.81c-33.178-4.696-62.495-1.806-65.48,6.455c-0.749,2.071,0.229,4.282,2.637,6.508
		c5.926-6.753,32.817-8.288,62.586-3.282c24.561,4.131,43.852,11.499,49.695,18.276c2.776-1.246,4.598-2.75,5.229-4.498
		C211.976,63.008,187.501,52.505,154.322,47.81z"/>
	<path d="M223.326,91.343c-7.379,8.409-40.864,10.321-77.934,4.087c-30.583-5.143-54.604-14.318-61.881-22.758
		c-3.457,1.552-5.726,3.425-6.513,5.602c-3.719,10.286,26.758,23.364,68.072,29.211c41.313,5.847,77.819,2.248,81.539-8.038
		C227.542,96.869,226.324,94.115,223.326,91.343z"/>
	<path d="M206.353,121.946c0.749-2.07-0.23-4.282-2.638-6.508c-5.926,6.753-32.816,8.288-62.586,3.282
		c-24.56-4.13-43.851-11.499-49.695-18.276c-2.776,1.246-4.598,2.75-5.23,4.498c-2.987,8.261,21.489,18.764,54.667,23.459
		C174.049,133.097,203.366,130.207,206.353,121.946z"/>
	<path d="M160.204,37.429c-51.537-7.293-97.075-2.804-101.714,10.027s33.379,29.146,84.915,36.439
		c51.536,7.294,97.075,2.805,101.715-10.026C249.758,61.038,211.739,44.724,160.204,37.429z M208.989,71.269
		c-0.632,1.748-2.453,3.252-5.229,4.498c-5.844-6.777-25.135-14.145-49.695-18.276c-29.769-5.006-56.66-3.471-62.586,3.282
		c-2.408-2.226-3.386-4.437-2.637-6.508c2.986-8.261,32.303-11.151,65.48-6.455C187.501,52.505,211.976,63.008,208.989,71.269z"/>
	<path d="M154.975,148.52c28.862-0.554,51.973-6.828,51.621-14.014c-0.089-1.801-1.645-3.489-4.379-4.998
		c-2.576,6.338-24.153,11.176-50.319,11.021c-21.587-0.128-39.944-3.617-47.049-8.41c-1.858,1.393-2.844,2.872-2.77,4.392
		C102.431,143.696,126.113,149.072,154.975,148.52z"/>
	<path d="M208.276,137.247c0.413,5.988-16.483,13.798-39.514,17.982c-19,3.453-36.584,3.423-44.841,0.39
		c-1.044,1.529-1.285,2.99-0.579,4.312c3.341,6.249,26.395,7.058,51.493,1.805c25.097-5.254,42.733-14.576,39.393-20.825
		C213.391,139.344,211.313,138.12,208.276,137.247z"/>
	<path d="M208.439,161.506c-1.3,5.156-17.88,9.997-38.694,11.081c-17.174,0.895-32.175-1.031-38.386-4.514
		c-1.313,1.194-1.923,2.414-1.685,3.619c1.127,5.695,20.584,8.876,43.458,7.104c22.874-1.771,40.504-7.824,39.377-13.52
		C212.227,163.85,210.791,162.579,208.439,161.506z"/>
	<path d="M200.356,177.693c-1.866,4.121-16.363,7.181-33.8,6.966c-14.386-0.177-26.54-2.532-31.162-5.687
		c-0.023,0.016-0.042,0.032-0.064,0.049c-0.993-0.801-1.748-1.587-2.231-2.339c-1.696,0.562-2.884,1.308-3.429,2.239
		c-2.577,4.399,10.049,11.227,28.199,15.248c18.15,4.02,34.952,3.713,37.528-0.688c0.646-1.103,0.335-2.357-0.777-3.684
		c-3.707,3.141-16.745,3.144-31.296,0.055c1.664,0.039,3.365,0.051,5.096,0.029c19.251-0.235,34.804-4.226,34.738-8.911
		C203.141,179.796,202.144,178.689,200.356,177.693z"/>
	<path d="M156.742,202.091c-11.468-2.431-20.26-6.251-22.687-9.518c-1.386,0.521-2.331,1.181-2.722,1.978
		c-1.851,3.77,9.244,9.153,24.782,12.024c15.538,2.872,29.634,2.146,31.485-1.625c0.464-0.944,0.113-1.99-0.916-3.073
		C183.514,204.886,170.643,205.035,156.742,202.091z"/>
	<path d="M153.272,214.778c-9.655-2.046-17.061-5.264-19.104-8.014c-1.167,0.438-1.963,0.994-2.293,1.665
		c-1.558,3.174,7.785,7.708,20.869,10.126c13.084,2.419,24.954,1.806,26.513-1.368c0.391-0.796,0.096-1.677-0.771-2.589
		C175.816,217.133,164.978,217.259,153.272,214.778z"/>
	<path d="M145.556,225.521c-8.488-3.533-14.316-7.837-15.158-10.823c-1.308,0.235-2.306,0.643-2.901,1.239
		c-0.742,0.742-0.784,1.7-0.239,2.788c-0.494-0.64-0.828-1.246-0.985-1.807c-1.308,0.234-2.306,0.643-2.901,1.239
		c-2.814,2.814,4.347,8.701,15.993,13.148c11.646,4.446,23.367,5.769,26.181,2.953c0.266-0.267,0.442-0.561,0.534-0.877
		c1.65-0.206,2.895-0.647,3.591-1.344c0.705-0.706,0.783-1.604,0.321-2.626C166.369,231.431,155.844,229.806,145.556,225.521z"/>
	<path d="M136.299,237.036c-7.788-3.243-13.136-7.191-13.909-9.933c-1.2,0.217-2.115,0.592-2.661,1.138
		c-2.582,2.584,3.988,7.985,14.675,12.065c10.686,4.08,21.442,5.293,24.023,2.709c0.647-0.646,0.719-1.472,0.295-2.409
		C155.396,242.458,145.74,240.966,136.299,237.036z"/>
	<path d="M124.684,246.713c-6.171-2.569-10.409-5.697-11.02-7.869c-0.951,0.171-1.677,0.468-2.109,0.9
		c-2.046,2.047,3.16,6.327,11.627,9.561c8.467,3.232,16.989,4.193,19.034,2.146c0.514-0.513,0.57-1.167,0.234-1.909
		C139.816,251.01,132.164,249.827,124.684,246.713z"/>
	<path d="M118.806,257.245c-4.903-2.042-8.271-4.526-8.757-6.253c-0.755,0.136-1.332,0.372-1.675,0.716
		c-1.626,1.627,2.511,5.027,9.238,7.597c6.728,2.568,13.499,3.332,15.124,1.706c0.408-0.408,0.453-0.928,0.186-1.518
		C130.83,260.658,124.75,259.72,118.806,257.245z"/>
	<path d="M116.703,264.623c-3.02-1.257-5.094-2.789-5.394-3.852c-0.465,0.084-0.82,0.229-1.032,0.44
		c-1.001,1.002,1.547,3.098,5.691,4.681c4.144,1.582,8.315,2.052,9.317,1.05c0.251-0.251,0.278-0.571,0.114-0.934
		C124.11,266.727,120.364,266.147,116.703,264.623z"/>
</g>
</svg>
