<?xml version="1.0" encoding="utf-8"?>
<!-- Generator: Adobe Illustrator 15.1.0, SVG Export Plug-In . SVG Version: 6.00 Build 0)  -->
<!DOCTYPE svg PUBLIC "-//W3C//DTD SVG 1.1//EN" "http://www.w3.org/Graphics/SVG/1.1/DTD/svg11.dtd">
<svg version="1.1" xmlns="http://www.w3.org/2000/svg" xmlns:xlink="http://www.w3.org/1999/xlink" x="0px" y="0px"
	 width="3401.58px" height="2267.719px" viewBox="0 0 3401.58 2267.719" enable-background="new 0 0 3401.58 2267.719"
	 xml:space="preserve">
<filter  y="-0.2" x="-0.2" width="1.4" height="1.4" id="blur_pupil_right_glare">
	<feGaussianBlur  stdDeviation="0.45"></feGaussianBlur>
</filter>
<filter  y="-0.3" x="-0.3" width="1.6" height="1.6" id="blur_pupil_left_glare">
	<feGaussianBlur  stdDeviation="0.44"></feGaussianBlur>
</filter>
<filter  id="blur_naris_right">
	<feGaussianBlur  stdDeviation="0.1"></feGaussianBlur>
</filter>
<filter  y="-0.2" x="-0.2" width="1.4" height="1.4" id="blur_mandible_upper_glare">
	<feGaussianBlur  stdDeviation="0.73"></feGaussianBlur>
</filter>
<filter  id="blur_foot_left_layer_2">
	<feGaussianBlur  stdDeviation="2.1 2.06"></feGaussianBlur>
</filter>
<g id="Layer_3">
	<path d="M2326.626,1281.615c-14.97-113.651-51.023-223.849-98.415-328.199c-59.527-130.748-109.577-178.052-145.896-292.942
		c-39.153-124.193-6.82-271.152-35.965-383.74c-10.363-38.268-26.93-74.853-48.277-108.337
		c-24.98-39.242-56.692-74.321-94.34-101.604C1843.674,23.208,1768.201-0.001,1691.489,0c-53.15,0-106.478,10.452-154.666,36.496
		c-51.201,27.549-93.189,71.662-118.967,123.75c-25.866,52.087-35.965,107.717-37.56,169.016
		c-2.924,116.396,2.657,238.465,11.427,349.104c2.305,33.662,6.557,53.327,2.215,87.963
		c-14.351,73.524-78.662,122.953-113.031,187.53c-37.824,71.221-53.771,151.742-82.293,227.215
		c-26.133,69.006-62.807,133.761-87.521,203.297c-34.637,97.177-45,204.007-22.146,304.638
		c17.451,76.713,53.857,148.642,102.934,210.207c-7.087,12.756-13.996,25.776-21.26,38.443
		c-22.766,39.242-50.581,76.536-63.514,120.03c-6.468,21.703-9.037,44.911-4.873,67.233s15.502,43.672,33.219,57.846
		c11.604,9.212,25.688,15.236,40.129,18.603c14.438,3.277,29.409,4.074,44.291,3.81c56.427-1.24,111.172-18.337,165.738-32.688
		c32.422-8.504,65.02-16.032,97.707-22.854c116.396-23.829,246.26-14.263,354.242,1.327c36.584,5.582,72.903,12.757,108.867,21.525
		c56.34,13.643,112.412,31.004,170.346,32.688c15.236,0.442,30.649-0.266,45.531-3.543c14.883-3.365,29.32-9.391,41.19-18.868
		c17.805-14.173,29.144-35.609,33.307-57.934c4.164-22.323,1.595-45.62-4.96-67.411c-13.109-43.582-41.189-80.698-64.398-119.765
		c-9.213-15.502-17.717-31.27-26.842-46.771c69.98-78.573,126.319-169.459,158.918-269.292
		C2335.042,1512.639,2341.597,1395.266,2326.626,1281.615z"/>
</g>
<g id="Layer_1">
	<g id="Layer_4">
		<path id="belly" fill="#FFFFFF" d="M1480.483,655.513c-7.973,10.01-13.109,22.057-16.299,34.458
			c-3.101,12.401-4.252,25.246-4.783,38.091c-0.975,25.601,0.621,51.644-6.2,76.358c-7.265,26.396-23.476,49.341-39.331,71.574
			c-27.549,38.622-55.364,78.308-68.917,123.75c-8.238,27.461-10.984,56.604-8.062,85.218
			c-30.738,45.177-57.401,93.276-79.548,143.327c-33.483,75.914-56.428,156.701-64.487,239.262
			c-9.922,101.072,3.012,205.068,42.963,298.436c28.789,67.589,71.84,129.331,127.382,177.521
			c28.169,24.448,59.526,45.266,93.012,61.741c116.132,57.137,259.636,57.226,373.819-3.632
			c59.705-31.801,110.107-78.307,158.651-125.345c29.232-28.346,58.375-57.4,80.698-91.417
			c42.963-65.64,57.934-145.364,67.234-223.229c16.211-136.063,16.741-279.923-42.963-403.317
			c-20.552-42.521-47.924-81.674-80.787-115.601c-8.682-59.352-25.955-117.551-51.023-172.028
			c-18.159-39.419-40.217-76.89-57.048-116.752c-6.909-16.388-12.933-33.219-20.551-49.252
			c-7.707-16.033-17.097-31.447-30.029-43.76c-13.11-12.579-29.498-21.525-46.772-27.195c-17.272-5.758-35.521-8.327-53.681-9.213
			c-36.407-1.859-72.815,2.924-109.223,1.418c-28.968-1.151-57.845-6.201-86.813-4.519c-14.438,0.887-28.878,3.454-42.343,8.946
			C1501.922,635.758,1489.521,644.174,1480.483,655.513L1480.483,655.513z"/>
	</g>
	<g id="Layer_8">
		<g id="mandible_lower_base">
			<path fill="#FFFFFF" d="M1618.882,826.608c-5.201,0-10.381-0.251-15.395-0.747c-23.158-2.377-44.53-10.101-61.854-22.339
				c-19.984-14.013-34.234-33.292-48.013-51.938c-3.425-4.633-6.966-9.424-10.486-13.973c-14.583-18.778-27.88-31.65-41.826-40.484
				c-0.583-0.353-1.17-0.702-1.757-1.054c-2.961-1.769-6.021-3.597-9.118-5.91c-5.151-3.734-8.963-7.71-11.651-12.15
				c-0.068-0.112-0.135-0.226-0.198-0.339c-1.745-3.088-2.997-6.337-3.828-9.935c-0.637-2.757-0.356-5.646,0.797-8.23
				c2.198-4.919,4.808-9.583,7.754-13.864c1.236-1.85,2.938-4.241,5.202-6.505c0.098-0.098,0.195-0.192,0.295-0.286
				c2.967-2.783,6.244-4.785,9.741-5.952c0.114-0.038,0.229-0.074,0.344-0.109c2.48-0.751,5.068-1.102,8.146-1.102
				c1.322,0,2.554,0.063,3.642,0.12c0.556,0.029,1.11,0.059,1.657,0.075c0.172,0.005,0.341,0.007,0.509,0.007
				c3.365,0,7.142-0.982,10.919-2.842c3.898-1.887,7.895-4.636,12.292-8.44c3.128-2.708,6.146-5.636,9.338-8.736
				c5.792-5.623,11.781-11.437,18.979-16.403c11.27-7.772,24.692-12.987,39.897-15.503c8.543-1.476,17.842-2.2,28.34-2.2
				c3.69,0,7.523,0.087,11.719,0.266c10.685,0.427,21.432,1.302,31.824,2.148c14.77,1.202,28.719,2.338,42.828,2.338
				c3.611,0,7.135-0.078,10.475-0.232c11.444-0.562,22.787-2.078,34.795-3.682c13.225-1.768,26.9-3.594,40.777-4.032
				c2.26-0.068,4.555-0.103,7.023-0.103c6.574,0,13.141,0.245,19.489,0.481c6.387,0.238,12.419,0.463,18.497,0.463
				c5.625,0,10.553-0.202,15.063-0.617c5.02-0.465,10.053-1.22,15.382-2.02c8.938-1.341,18.179-2.727,27.767-2.727
				c1.475,0,2.939,0.034,4.357,0.1c10.352,0.475,19.629,2.8,27.565,6.911c9.754,4.957,17.51,12.715,21.844,21.851
				c0.017,0.036,0.033,0.072,0.051,0.108c4.52,9.758,5.544,21.202,3.136,34.985c-0.804,4.592-1.877,8.981-2.914,13.227
				c-1.152,4.714-2.241,9.167-2.875,13.515c-0.286,1.987-0.495,4.104-0.717,6.343c-0.697,7.048-1.488,15.035-5.197,22.807
				c-4.721,9.87-13.426,17.89-25.879,23.845c-0.033,0.018-0.068,0.033-0.104,0.049c-5.952,2.782-11.915,4.726-17.682,6.604
				c-3.024,0.986-5.883,1.917-8.662,2.94c-22.465,8.276-41.764,23.114-62.196,38.824c-12.312,9.465-25.04,19.252-38.69,27.643
				c-18.638,11.56-39.68,20.832-62.496,27.53C1656.667,823.573,1637.392,826.608,1618.882,826.608
				C1618.882,826.608,1618.884,826.608,1618.882,826.608z"/>
			<path d="M1848.248,583.055c1.249,0,2.502,0.026,3.753,0.085c7.706,0.354,15.413,1.948,22.234,5.491
				c6.82,3.455,12.756,8.946,16.033,15.855c3.896,8.416,3.721,18.16,2.125,27.284c-1.595,9.124-4.518,17.981-5.847,27.106
				c-1.239,8.592-1.063,17.628-4.782,25.423c-3.897,8.148-11.604,13.818-19.755,17.717c-8.149,3.809-16.92,6.022-25.335,9.124
				c-38.71,14.262-68.031,45.975-103.197,67.588c-18.427,11.428-38.535,20.021-59.353,26.133
				c-17.963,5.305-36.603,8.745-55.243,8.745c-4.709,0-9.418-0.219-14.115-0.684c-19.844-2.037-39.332-8.504-55.632-20.021
				c-23.118-16.211-38.444-40.926-55.719-63.248c-12.933-16.652-27.46-32.333-45.267-43.583c-3.364-2.037-6.819-3.985-10.01-6.378
				c-3.188-2.303-6.199-5.049-8.238-8.415c-1.15-2.038-1.947-4.164-2.479-6.467c1.86-4.163,4.075-8.149,6.646-11.87
				c1.063-1.595,2.214-3.188,3.632-4.605c1.417-1.329,3.101-2.48,4.96-3.102c1.396-0.423,2.875-0.543,4.375-0.543
				c1.64,0,3.308,0.144,4.927,0.189c0.294,0.009,0.587,0.013,0.881,0.013c5.81,0,11.515-1.646,16.658-4.177
				c5.491-2.657,10.453-6.289,15.06-10.275c9.213-7.973,17.186-17.362,27.194-24.271c10.276-7.087,22.323-11.339,34.636-13.376
				c8.649-1.493,17.428-2.025,26.217-2.025c3.724,0,7.449,0.096,11.166,0.254c25.098,1.004,50.125,4.498,75.207,4.498
				c3.688,0,7.381-0.076,11.073-0.246c25.246-1.24,50.138-6.91,75.384-7.707c2.205-0.066,4.407-0.096,6.614-0.096
				c12.66,0,25.345,0.945,37.985,0.945c5.428,0,10.85-0.175,16.257-0.672C1820.358,586.446,1834.272,583.055,1848.248,583.055
				 M1848.248,557.055L1848.248,557.055c-10.558,0-20.287,1.459-29.694,2.871c-5.143,0.771-9.998,1.5-14.654,1.93
				c-4.104,0.378-8.641,0.563-13.863,0.563c-5.834,0-11.749-0.222-18.012-0.454c-6.469-0.241-13.157-0.491-19.975-0.491
				c-2.599,0-5.021,0.035-7.408,0.107c-14.562,0.459-28.568,2.331-42.114,4.142c-11.714,1.564-22.779,3.043-33.703,3.583
				c-3.134,0.144-6.446,0.217-9.847,0.217c-13.58,0-27.273-1.115-41.771-2.295c-10.521-0.856-21.404-1.743-32.387-2.182
				c-4.357-0.186-8.354-0.275-12.212-0.275c-11.218,0-21.216,0.782-30.566,2.392c-17.065,2.837-32.221,8.762-45.047,17.606
				c-8.099,5.589-14.771,12.066-20.657,17.781c-3.056,2.967-5.943,5.77-8.791,8.233c-3.521,3.048-6.587,5.186-9.369,6.531
				c-0.051,0.024-0.102,0.05-0.152,0.074c-1.946,0.958-3.834,1.507-5.182,1.507l-0.129-0.002c-0.455-0.013-0.908-0.039-1.361-0.063
				c-1.185-0.062-2.657-0.138-4.316-0.138c-4.33,0-8.227,0.543-11.913,1.66c-0.229,0.07-0.46,0.143-0.688,0.219
				c-5.291,1.764-10.176,4.727-14.521,8.802c-0.201,0.188-0.397,0.38-0.592,0.573c-3.036,3.034-5.208,6.067-6.773,8.406
				c-3.374,4.909-6.354,10.242-8.862,15.854c-2.309,5.167-2.869,10.948-1.594,16.462c1.102,4.762,2.842,9.271,5.176,13.401
				c0.127,0.229,0.261,0.453,0.396,0.677c3.591,5.932,8.519,11.129,15.063,15.888c3.608,2.688,7.086,4.765,10.16,6.602
				c0.527,0.315,1.056,0.63,1.58,0.947c12.598,8.003,24.811,19.9,38.416,37.422c3.406,4.4,6.748,8.922,10.286,13.709
				c14.396,19.478,29.282,39.62,51.034,54.874c19.132,13.498,42.612,22.003,67.91,24.601c0.032,0.003,0.064,0.006,0.096,0.011
				c5.438,0.538,11.047,0.81,16.676,0.81c19.772,0,40.252-3.208,62.604-9.809c23.878-7.012,45.976-16.751,65.637-28.938
				c14.216-8.74,27.208-18.729,39.773-28.39c19.625-15.088,38.161-29.34,58.766-36.932c2.55-0.938,5.293-1.833,8.197-2.779
				c5.853-1.907,12.485-4.068,19.157-7.188c0.069-0.033,0.14-0.064,0.209-0.099c15.199-7.27,25.963-17.348,31.992-29.955
				c4.698-9.843,5.647-19.437,6.41-27.146c0.207-2.091,0.402-4.065,0.65-5.78c0.539-3.702,1.557-7.863,2.634-12.27
				c1.088-4.452,2.214-9.057,3.093-14.076c2.84-16.252,1.444-30.613-4.146-42.687c-0.033-0.073-0.067-0.146-0.102-0.217
				c-5.554-11.706-15.369-21.59-27.649-27.844c-9.609-4.969-20.685-7.772-32.918-8.334
				C1851.593,557.094,1849.924,557.055,1848.248,557.055L1848.248,557.055L1848.248,557.055z"/>
		</g>
		<g>
			<g>
				<path id="SVGID_21_" fill="#FFFFFF" d="M1487.659,566.487c-14.704,9.922-27.992,22.059-39.242,35.788
					c-6.377,7.884-12.224,16.477-15.413,26.043c-2.567,7.618-3.454,15.591-5.049,23.476c-0.62,2.923-1.329,5.847-1.239,8.857
					c0,1.417,0.176,2.923,0.619,4.429c0.443,1.417,1.24,2.746,2.215,3.811c1.771,1.771,4.163,2.746,6.556,3.276
					c2.479,0.442,4.961,0.531,7.44,0.798c11.072,1.328,21.26,6.644,30.474,13.021c9.212,6.29,17.716,13.73,27.194,19.666
					c20.816,13.198,45.709,19.045,70.422,20.021c24.627,0.975,49.252-2.746,73.524-7.618c19.222-3.811,38.356-8.415,56.604-15.591
					c27.992-11.072,53.238-27.992,77.244-45.976c10.983-8.148,21.791-16.563,31.623-26.043c3.277-3.277,6.556-6.555,10.1-9.566
					c3.543-2.924,7.529-5.492,11.958-6.909c6.731-2.126,13.996-1.506,20.994-0.354c5.227,0.886,10.452,2.038,15.769,1.86
					c2.657-0.177,5.314-0.62,7.795-1.595s4.783-2.479,6.467-4.605c2.215-2.658,3.365-6.201,3.365-9.656
					c0-3.543-1.063-6.998-2.834-10.01c-3.543-6.023-9.656-10.099-16.033-12.933c-8.771-3.897-18.248-5.759-27.549-8.063
					c-28.612-6.909-56.428-17.097-82.736-30.206c-13.11-6.467-25.866-13.643-38.711-20.552
					c-13.287-7.087-26.752-13.907-41.104-18.337c-32.244-9.744-67.322-6.555-99.124,4.518
					C1543.731,516.26,1511.843,538.052,1487.659,566.487z"/>
			</g>
			<g>
				<defs>
					<path id="SVGID_1_" d="M1487.659,566.487c-14.704,9.922-27.992,22.059-39.242,35.788c-6.377,7.884-12.224,16.477-15.413,26.043
						c-2.567,7.618-3.454,15.591-5.049,23.476c-0.62,2.923-1.329,5.847-1.239,8.857c0,1.417,0.176,2.923,0.619,4.429
						c0.443,1.417,1.24,2.746,2.215,3.811c1.771,1.771,4.163,2.746,6.556,3.276c2.479,0.442,4.961,0.531,7.44,0.798
						c11.072,1.328,21.26,6.644,30.474,13.021c9.212,6.29,17.716,13.73,27.194,19.666c20.816,13.198,45.709,19.045,70.422,20.021
						c24.627,0.975,49.252-2.746,73.524-7.618c19.222-3.811,38.356-8.415,56.604-15.591c27.992-11.072,53.238-27.992,77.244-45.976
						c10.983-8.148,21.791-16.563,31.623-26.043c3.277-3.277,6.556-6.555,10.1-9.566c3.543-2.924,7.529-5.492,11.958-6.909
						c6.731-2.126,13.996-1.506,20.994-0.354c5.227,0.886,10.452,2.038,15.769,1.86c2.657-0.177,5.314-0.62,7.795-1.595
						s4.783-2.479,6.467-4.605c2.215-2.658,3.365-6.201,3.365-9.656c0-3.543-1.063-6.998-2.834-10.01
						c-3.543-6.023-9.656-10.099-16.033-12.933c-8.771-3.897-18.248-5.759-27.549-8.063c-28.612-6.909-56.428-17.097-82.736-30.206
						c-13.11-6.467-25.866-13.643-38.711-20.552c-13.287-7.087-26.752-13.907-41.104-18.337
						c-32.244-9.744-67.322-6.555-99.124,4.518C1543.731,516.26,1511.843,538.052,1487.659,566.487z"/>
				</defs>
				<clipPath id="SVGID_2_">
					<use xlink:href="#SVGID_1_"  overflow="visible"/>
				</clipPath>
				<g id="mandible_upper_glare_1_" clip-path="url(#SVGID_2_)" filter="url(#blur_mandible_upper_glare)">
					<path fill="#FFFFFF" d="M1713.635,573.573c-1.771-2.126-4.253-3.721-6.909-4.518c-2.658-0.798-5.492-0.798-8.238-0.354
						c-5.491,0.976-10.452,3.897-15.06,7.087c-13.021,8.946-24.537,20.021-34.636,32.244c-13.287,16.21-24.271,34.901-27.992,55.541
						c-0.62,3.455-0.975,7.087-0.62,10.541c0.442,3.544,1.771,6.998,4.341,9.479c2.125,2.215,5.139,3.544,8.149,3.985
						c3.101,0.443,6.289,0,9.212-0.975c5.848-1.948,10.719-6.112,15.414-10.187c25.423-22.854,48.455-50.139,57.667-83.092
						c0.886-3.276,1.685-6.644,1.685-10.099S1715.761,576.32,1713.635,573.573z"/>
				</g>
			</g>
		</g>
		<path id="eyeball_left" fill="#FFFFFF" d="M1500.869,304.498c-15.388,0.804-30.172,7.944-41.437,18.504
			c-11.365,10.562-19.311,24.439-24.238,39.022c-9.756,29.367-7.543,61.148-5.33,92.024c2.012,27.857,4.123,56.32,14.582,82.268
			c5.23,13.075,12.572,25.244,22.328,35.301c9.756,9.958,22.125,17.701,35.703,21.021c12.672,3.219,26.351,2.616,38.821-1.308
			c12.571-4.021,23.937-11.162,33.39-20.314c13.678-13.376,22.83-30.875,28.162-49.28c5.329-18.405,6.838-37.715,6.536-56.923
			c-0.403-23.937-3.521-47.974-10.963-70.704c-7.543-22.729-19.511-44.252-36.206-61.45c-8.046-8.348-17.298-15.589-27.656-20.718
			C1524.101,306.811,1512.435,303.894,1500.869,304.498z"/>
		<g id="pupil_left">
			<path id="pupil_left_base" d="M1459.401,451.684c-2.834,17.185-2.924,35.167,2.924,51.466
				c3.896,10.808,10.363,20.642,18.158,29.056c5.051,5.492,10.896,10.453,17.629,13.73c6.82,3.277,14.615,4.605,21.969,2.834
				c6.732-1.683,12.579-6.023,16.92-11.427c4.34-5.403,7.264-11.87,9.301-18.515c6.112-19.576,5.139-40.926-0.975-60.502
				c-4.34-14.262-11.693-27.992-23.031-37.56c-5.492-4.606-11.869-8.238-18.779-9.832c-6.91-1.685-14.438-1.24-20.905,1.683
				c-7.175,3.277-12.757,9.479-16.388,16.478C1462.591,436.093,1460.729,443.888,1459.401,451.684z"/>
			<g>
				<g>
					<path id="SVGID_23_" d="M1459.401,451.684c-2.834,17.185-2.924,35.167,2.924,51.466c3.896,10.808,10.363,20.642,18.158,29.056
						c5.051,5.492,10.896,10.453,17.629,13.73c6.82,3.277,14.615,4.605,21.969,2.834c6.732-1.683,12.579-6.023,16.92-11.427
						c4.34-5.403,7.264-11.87,9.301-18.515c6.112-19.576,5.139-40.926-0.975-60.502c-4.34-14.262-11.693-27.992-23.031-37.56
						c-5.492-4.606-11.869-8.238-18.779-9.832c-6.91-1.685-14.438-1.24-20.905,1.683c-7.175,3.277-12.757,9.479-16.388,16.478
						C1462.591,436.093,1460.729,443.888,1459.401,451.684z"/>
				</g>
				<g>
					<defs>
						<path id="SVGID_3_" d="M1459.401,451.684c-2.834,17.185-2.924,35.167,2.924,51.466c3.896,10.808,10.363,20.642,18.158,29.056
							c5.051,5.492,10.896,10.453,17.629,13.73c6.82,3.277,14.615,4.605,21.969,2.834c6.732-1.683,12.579-6.023,16.92-11.427
							c4.34-5.403,7.264-11.87,9.301-18.515c6.112-19.576,5.139-40.926-0.975-60.502c-4.34-14.262-11.693-27.992-23.031-37.56
							c-5.492-4.606-11.869-8.238-18.779-9.832c-6.91-1.685-14.438-1.24-20.905,1.683c-7.175,3.277-12.757,9.479-16.388,16.478
							C1462.591,436.093,1460.729,443.888,1459.401,451.684z"/>
					</defs>
					<clipPath id="SVGID_4_">
						<use xlink:href="#SVGID_3_"  overflow="visible"/>
					</clipPath>
					<g id="pupil_left_glare" clip-path="url(#SVGID_4_)" filter="url(#blur_pupil_left_glare)">
						<path d="M1495.632,439.281c1.86,4.872,8.063,6.646,11.516,10.542c3.278,3.721,6.732,7.706,8.594,12.401
							c3.455,8.947-3.454,22.233,3.81,28.612c2.216,1.947,6.82,2.036,9.035,0c8.771-7.974,6.82-24.007,3.366-35.346
							c-3.188-10.187-10.896-19.931-20.463-24.803c-4.43-2.304-11.073-4.164-14.883-0.975
							C1494.215,431.841,1494.479,436.27,1495.632,439.281z"/>
					</g>
				</g>
			</g>
		</g>
		<g id="eye_right_1_">
			<path id="eyeball_right_1_" fill="#FFFFFF" d="M1774.022,304.498c-24.037,16.595-44.252,39.625-54.107,67.182
				c-12.471,34.697-7.743,73.518,4.324,108.316c12.271,35.703,32.889,69.697,63.965,91.119
				c15.488,10.762,33.49,18.103,52.197,20.315c18.807,2.212,38.218-0.905,55.014-9.554c20.314-10.662,35.902-29.268,45.559-50.086
				c9.654-20.92,13.779-43.95,15.086-66.98c1.609-29.167-1.207-58.938-10.861-86.594c-10.461-30.071-29.367-57.829-56.118-75.127
				c-13.276-8.649-28.464-14.583-44.252-16.796c-15.79-2.212-32.083-0.502-46.968,5.229
				C1789.411,294.843,1781.565,299.369,1774.022,304.498z"/>
			<g id="pupil_right_1_">
				<path id="pupil_right_base_1_" d="M1829.642,377.312c-9.053,0.603-17.902,3.721-25.646,8.548
					c-7.645,4.827-14.182,11.364-19.311,18.907c-10.358,14.986-14.885,33.29-15.589,51.493c-0.503,13.578,1.005,27.355,5.531,40.229
					c4.524,12.873,12.067,24.841,22.629,33.491c10.761,8.951,24.338,14.28,38.318,14.984c13.979,0.604,28.059-3.419,39.524-11.365
					c9.15-6.335,16.492-15.085,21.724-24.941c5.229-9.756,8.448-20.618,9.855-31.681c2.515-19.409-0.303-39.726-9.354-57.225
					c-8.951-17.5-24.238-31.883-42.644-38.62C1846.638,378.217,1838.088,376.709,1829.642,377.312z"/>
				<g>
					<g>
						<path id="SVGID_25_" d="M1829.642,377.312c-9.053,0.603-17.902,3.721-25.646,8.548c-7.645,4.827-14.182,11.364-19.311,18.907
							c-10.358,14.986-14.885,33.29-15.589,51.493c-0.503,13.578,1.005,27.355,5.531,40.229
							c4.524,12.873,12.067,24.841,22.629,33.491c10.761,8.951,24.338,14.28,38.318,14.984c13.979,0.604,28.059-3.419,39.524-11.365
							c9.15-6.335,16.492-15.085,21.724-24.941c5.229-9.756,8.448-20.618,9.855-31.681c2.515-19.409-0.303-39.726-9.354-57.225
							c-8.951-17.5-24.238-31.883-42.644-38.62C1846.638,378.217,1838.088,376.709,1829.642,377.312z"/>
					</g>
					<g>
						<defs>
							<path id="SVGID_5_" d="M1829.642,377.312c-9.053,0.603-17.902,3.721-25.646,8.548c-7.645,4.827-14.182,11.364-19.311,18.907
								c-10.358,14.986-14.885,33.29-15.589,51.493c-0.503,13.578,1.005,27.355,5.531,40.229
								c4.524,12.873,12.067,24.841,22.629,33.491c10.761,8.951,24.338,14.28,38.318,14.984
								c13.979,0.604,28.059-3.419,39.524-11.365c9.15-6.335,16.492-15.085,21.724-24.941c5.229-9.756,8.448-20.618,9.855-31.681
								c2.515-19.409-0.303-39.726-9.354-57.225c-8.951-17.5-24.238-31.883-42.644-38.62
								C1846.638,378.217,1838.088,376.709,1829.642,377.312z"/>
						</defs>
						<clipPath id="SVGID_6_">
							<use xlink:href="#SVGID_5_"  overflow="visible"/>
						</clipPath>
						<g id="pupil_right_glare_1_" clip-path="url(#SVGID_6_)" filter="url(#blur_pupil_right_glare)">
							<path d="M1885.658,456.16c10.059-10.058-7.142-36.709-20.617-47.671c-9.756-7.845-38.017-16.191-36.81-7.544
								c1.207,8.549,13.979,19.613,22.428,28.061C1861.22,439.365,1880.831,460.989,1885.658,456.16z"/>
						</g>
					</g>
				</g>
			</g>
		</g>
		<g id="mandible_upper_base">
			<path fill="#FFFFFF" d="M1579.629,738.825c-2.86,0-5.724-0.056-8.508-0.166c-29.384-1.159-55.965-8.775-76.87-22.029
				c-5.854-3.665-11.27-7.79-16.507-11.779c-3.796-2.892-7.381-5.621-11.058-8.131c-9.391-6.5-17.191-9.933-24.61-10.84
				c-0.697-0.073-1.394-0.131-2.091-0.188c-1.834-0.153-3.913-0.326-6.164-0.728l-0.27-0.049l-0.267-0.059
				c-5.248-1.166-9.599-3.446-12.928-6.776l-0.2-0.199l-0.191-0.209c-2.297-2.507-4.039-5.52-5.037-8.711l-0.064-0.211
				c-0.745-2.53-1.131-5.19-1.148-7.908c-0.098-4.215,0.701-7.931,1.347-10.926l0.166-0.775c0.428-2.124,0.805-4.272,1.204-6.545
				c1.043-5.955,2.123-12.112,4.253-18.432c4.206-12.614,12.073-23.201,17.625-30.064c11.791-14.392,25.428-26.941,40.604-37.384
				c25.636-29.658,58.73-52.104,95.816-64.962c21.047-7.328,42.171-11.047,62.771-11.047c15.463,0,30.393,2.143,44.372,6.367
				c15.896,4.906,30.765,12.54,43.46,19.312c3.383,1.819,6.721,3.636,10.059,5.453c9.244,5.03,18.803,10.232,28.285,14.91
				c25.601,12.756,52.514,22.582,80.037,29.229c1.713,0.424,3.358,0.815,5.006,1.208c8.104,1.931,16.484,3.928,24.771,7.61
				c10.1,4.487,17.487,10.618,21.959,18.222c3.027,5.147,4.629,10.888,4.629,16.601c0,6.604-2.229,12.938-6.279,17.859
				c-2.97,3.698-7.047,6.637-11.803,8.504c-3.479,1.367-7.301,2.173-11.683,2.465l-0.214,0.015l-0.215,0.007
				c-0.516,0.017-1.029,0.025-1.545,0.025c-5.203,0-10.06-0.863-14.343-1.626c-0.829-0.146-1.657-0.295-2.487-0.436
				c-3.593-0.591-6.424-0.871-8.849-0.871c-2.362,0-4.344,0.263-6.06,0.805c-2.236,0.717-4.784,2.229-7.528,4.482
				c-3.116,2.656-6.097,5.636-9.25,8.79l-0.17,0.167c-10.773,10.385-22.679,19.539-32.9,27.124
				c-22.211,16.638-49.151,35.338-80.209,47.623c-20.854,8.201-42.407,12.994-58.858,16.254c-18.59,3.731-43.158,8.021-68.054,8.021
				C1579.632,738.825,1579.631,738.825,1579.629,738.825z"/>
			<path d="M1637.501,493.707c13.732,0,27.41,1.821,40.611,5.811c14.351,4.43,27.814,11.25,41.103,18.337
				c12.845,6.909,25.601,14.085,38.711,20.552c26.311,13.109,54.124,23.297,82.736,30.206c9.302,2.304,18.778,4.164,27.55,8.063
				c6.377,2.834,12.49,6.909,16.033,12.933c1.771,3.012,2.834,6.467,2.834,10.01c0,3.455-1.151,6.998-3.365,9.656
				c-1.684,2.126-3.986,3.632-6.467,4.605c-2.48,0.975-5.139,1.418-7.795,1.595c-0.371,0.012-0.74,0.019-1.11,0.019
				c-4.934,0-9.796-1.055-14.657-1.879c-3.641-0.599-7.351-1.054-11.021-1.054c-3.389,0-6.742,0.388-9.975,1.408
				c-4.429,1.417-8.414,3.985-11.957,6.908c-3.545,3.014-6.821,6.29-10.1,9.567c-9.833,9.479-20.64,17.895-31.624,26.043
				c-24.006,17.982-49.252,34.902-77.244,45.975c-18.248,7.177-37.383,11.781-56.604,15.592c-21.647,4.345-43.571,7.773-65.53,7.773
				c-2.663,0-5.331-0.05-7.994-0.156c-24.714-0.975-49.605-6.82-70.423-20.02c-9.479-5.936-17.981-13.376-27.194-19.666
				c-9.213-6.378-19.399-11.692-30.473-13.021c-2.48-0.266-4.961-0.354-7.441-0.797c-2.392-0.53-4.783-1.506-6.555-3.276
				c-0.975-1.063-1.771-2.394-2.215-3.811c-0.443-1.506-0.62-3.012-0.62-4.429c-0.089-3.012,0.62-5.936,1.24-8.858
				c1.595-7.884,2.479-15.855,5.049-23.475c3.188-9.567,9.036-18.159,15.413-26.043c11.25-13.729,24.537-25.866,39.242-35.788
				c24.184-28.435,56.072-50.227,91.328-62.451C1597.771,497.495,1617.692,493.707,1637.501,493.707 M1637.501,467.707
				c-22.059,0-44.622,3.961-67.063,11.773c-38.688,13.415-73.295,36.715-100.269,67.479c-15.633,10.942-29.705,23.995-41.865,38.837
				l-0.052,0.063l-0.052,0.064c-6.181,7.642-14.962,19.49-19.851,34.131c-2.437,7.237-3.652,14.175-4.726,20.296
				c-0.38,2.165-0.739,4.212-1.129,6.154l-0.146,0.677c-0.744,3.455-1.755,8.158-1.637,13.854c0.035,3.895,0.598,7.723,1.676,11.385
				l0.063,0.211l0.066,0.211c1.564,5.002,4.282,9.709,7.86,13.612l0.382,0.417l0.4,0.4c5.105,5.105,11.601,8.563,19.302,10.273
				l0.534,0.119l0.539,0.097c2.849,0.508,5.354,0.717,7.367,0.884c0.564,0.047,1.131,0.093,1.697,0.15
				c5.154,0.659,11.246,3.463,18.616,8.563l0.068,0.048l0.069,0.047c3.396,2.32,6.854,4.952,10.512,7.738
				c5.453,4.153,11.093,8.448,17.486,12.457c22.826,14.453,51.614,22.752,83.256,23.999c2.953,0.117,5.988,0.176,9.019,0.176
				c26.015,0,51.381-4.417,70.585-8.27l0,0c16.982-3.366,39.271-8.328,61.064-16.898l0.023-0.009l0.023-0.01
				c32.459-12.838,60.275-32.122,83.213-49.302c10.547-7.825,22.847-17.292,34.137-28.175l0.172-0.166l0.169-0.169
				c2.931-2.931,5.703-5.703,8.396-8.008c1.916-1.562,2.94-1.994,3.156-2.075c0.194-0.053,0.813-0.187,2.094-0.187
				c2.207,0,4.887,0.395,6.733,0.697c0.775,0.133,1.552,0.271,2.326,0.408c4.574,0.814,10.267,1.827,16.618,1.827
				c0.658,0,1.316-0.011,1.979-0.033l0.43-0.014l0.429-0.029c5.735-0.381,10.831-1.473,15.577-3.338
				c6.836-2.684,12.758-6.973,17.143-12.412c5.924-7.231,9.183-16.47,9.183-26.049c0-8.028-2.222-16.048-6.425-23.191
				c-5.873-9.988-15.256-17.898-27.885-23.511c-9.385-4.17-18.764-6.405-27.039-8.377c-1.607-0.383-3.217-0.766-4.818-1.163
				l-0.073-0.019l-0.073-0.019c-26.576-6.417-52.564-15.906-77.244-28.203l-0.047-0.023l-0.048-0.023
				c-9.247-4.562-18.268-9.471-27.817-14.668c-3.357-1.828-6.715-3.654-10.077-5.463l-0.04-0.021l-0.041-0.021
				c-13.227-7.054-28.754-15.018-45.669-20.239l-0.074-0.022l-0.073-0.022C1670.435,470.035,1654.239,467.707,1637.501,467.707
				L1637.501,467.707z"/>
		</g>
		<g id="naris_right" opacity="0.8" filter="url(#blur_naris_right)" enable-background="new    ">
			<path d="M1652.601,526.359c1.771,5.669,10.896,4.695,16.211,7.441c4.606,2.392,8.328,7.618,13.554,7.795
				c4.961,0.089,12.756-1.771,13.377-6.732c0.797-6.467-8.683-10.63-14.794-13.021c-7.885-3.013-17.982-4.606-25.335-0.531
				C1653.931,522.282,1652.069,524.497,1652.601,526.359L1652.601,526.359z"/>
		</g>
	</g>
</g>
<g id="Layer_4_1_">
	<g>
		<path d="M1421.046,1975.484c-18.173-24.48-38.397-47.385-56.704-71.858c11.784,3.764,23.862,6.298,36.242,6.484
			c11.692,0.266,23.475-1.683,34.192-6.378c10.629-4.694,20.196-12.225,26.574-22.057c7.795-12.048,10.453-27.019,8.858-41.28
			s-7.175-27.903-14.616-40.128c-18.248-29.94-47.037-51.645-74.764-73.08c-59.883-46.329-117.728-95.315-173.18-146.871
			c-15.592-14.616-31.271-29.586-42.166-48.012c-10.629-17.895-16.388-38.269-20.285-58.73
			c-10.719-56.071-7.974-115.068,11.072-168.927c7.529-21.083,17.362-41.191,26.93-61.389
			c16.477-34.99,32.066-70.688,53.771-102.756c27.019-39.951,63.159-73.789,85.128-116.663
			c18.603-36.23,26.133-76.892,33.307-116.931c5.671-31.357,16.39-62.008,21.882-93.365c-10.72,20.375-45.267,53.771-66.438,80.346
			c-54.035,61.299-109.576,120.738-140.05,187.087c-15.147,33.661-22.233,70.246-32.599,105.679
			c-11.692,40.217-27.639,79.193-45.531,117.107c-16.564,34.988-34.813,69.183-52.973,103.287
			c-13.287,24.892-26.752,50.227-31.358,78.041c-3.632,21.969-1.595,44.646,4.075,66.172c2.47,9.529,5.603,18.866,9.208,28.029
			c-7.194,9.204-13.057,19.327-18.687,29.459c-6.289,11.25-12.401,22.589-19.931,32.953c-7.53,10.365-16.653,19.842-27.815,26.22
			c-11.692,6.733-25.245,9.745-38.711,10.808c-13.463,1.152-27.017,0.355-40.481,0.09c-13.464-0.268-27.106-0.179-40.306,2.567
			c-13.286,2.746-26.131,8.327-35.875,17.718c-10.543,10.098-16.742,24.182-19.488,38.532c-2.835,14.44-2.48,29.233-1.417,43.85
			c2.214,32.688,7.528,65.196,9.123,97.884c1.684,32.775-0.531,66.348-12.667,96.821c-7.44,18.689-18.514,35.786-25.335,54.654
			c-3.455,9.39-5.935,19.312-5.935,29.41c0,10.011,2.036,20.196,7.086,28.878c6.556,11.161,17.629,19.223,29.498,24.537
			c11.87,5.403,24.537,8.415,37.116,11.87c28.169,7.706,55.718,17.718,83.71,26.132c91.152,27.461,187.176,38.445,275.582,73.701
			c43.405,17.274,89.025,42.342,135.709,42.342c29.409,0,55.896-6.731,81.053-21.879c25.158-15.147,45.887-37.559,59.352-63.69
			c19.133-37.116,23.474-81.496,12.4-121.802C1457.099,2029.342,1440.181,2001.35,1421.046,1975.484z"/>
		<path d="M2651.368,1901.607c-4.606-8.15-11.338-14.882-18.691-20.729c-7.352-5.758-15.324-10.718-23.031-16.032
			c-16.477-11.25-31.801-24.007-47.126-36.852c-15.325-12.844-30.648-25.866-43.493-41.278
			c-12.756-15.325-23.12-33.309-26.93-52.885c-2.304-11.959-2.127-24.271-3.101-36.408c-1.151-13.642-3.897-27.282-8.947-40.039
			c-3.367-8.593-7.884-16.83-14.351-23.386c-8.078-8.245-18.791-13.37-29.713-16.978c11.299-26.863,16.922-57.025,22.544-84.98
			c10.364-51.998,5.313-106.477-3.811-159.006c-12.489-71.664-33.483-141.645-60.146-209.231
			c-19.665-49.784-44.823-97.266-74.765-141.379c-29.408-43.316-71.043-77.066-101.869-119.409
			c-10.72-14.705-23.563-29.941-34.017-44.823c-22.678-32.065-17.54-26.043-31.625-46.86c-10.187-15.059-26.31-20.195-43.229-26.752
			c-17.008-6.555-35.964-8.504-53.504-3.632c-23.03,6.467-41.898,24.715-51.908,46.418c-10.01,21.791-11.781,46.771-7.885,70.423
			c5.049,30.474,18.957,58.819,34.726,85.395c17.717,30.03,38.268,58.996,65.107,81.318c27.992,23.296,61.831,38.709,90.266,61.564
			c46.418,37.382,75.915,93.809,85.04,152.717c7.086,45.887,2.479,93.101-7.885,138.366c-8.274,36.213-20.11,71.408-32.66,106.399
			c-14.811,3.417-28.566,11.156-39.799,21.424c-11.34,10.364-20.197,23.298-26.575,37.294c-2.122,4.663-3.97,9.434-5.557,14.285
			c-15.477-2.688-31.1-4.645-46.623-6.932c-10.719-1.595-21.526-3.278-32.333-2.658c-10.895,0.533-21.88,3.722-30.118,10.809
			c-8.858,7.618-13.642,19.222-15.413,30.826c-1.771,11.604-0.798,23.387,0.088,35.079c4.961,69.979,5.051,140.403-2.479,210.029
			c-4.163,38.356-10.541,76.358-17.272,114.36c-8.061,45.709-16.653,91.595-16.564,137.923c0,26.309,3.189,53.504,17.008,75.827
			c13.819,22.145,36.852,37.116,60.768,47.479c26.399,11.517,55.1,18.426,83.801,18.426c8.504,0,16.919-0.619,25.335-1.859
			c30.383-4.518,59.084-17.54,83.976-35.521c24.627-17.806,45.443-40.217,67.412-61.211c25.688-24.537,53.149-47.304,82.913-66.702
			c44.38-28.968,93.366-50.138,140.581-74.145c27.728-14.174,55.542-29.853,75.563-53.593c9.035-10.808,16.388-23.12,20.369-35.788
			c1.417-4.606,2.037-9.212,2.037-13.818C2657.479,1916.842,2655.354,1908.781,2651.368,1901.607z"/>
	</g>
</g>
<g id="Layer_5">
	<g id="Layer_2">
		<g id="foot_left_layer_2_1_" filter="url(#blur_foot_left_layer_2)">
			<path fill="#FFFFFF" d="M1202.447,2164.541c-1.531,0-3.081-0.032-4.608-0.098c-22.008-0.884-42.302-8.158-61.928-15.195
				c-6.748-2.42-13.725-4.92-20.528-7.057c-26.862-8.373-54.515-12.313-83.792-16.482c-19.48-2.775-39.626-5.646-59.334-9.942
				c-7.639-1.653-15.302-3.55-22.712-5.384c-12.685-3.14-24.666-6.105-36.926-8.064c-1.894-0.305-3.782-0.582-5.67-0.862
				c-7.474-1.105-15.201-2.249-22.953-4.781c-12.649-4.134-22.376-11.228-28.132-20.517c-0.018-0.028-0.035-0.058-0.053-0.086
				c-4.277-7.032-6.418-15.55-6.19-24.629c0.177-6.88,1.692-14.146,4.636-22.227c0.012-0.032,0.024-0.063,0.036-0.097
				c1.94-5.188,4.232-10.099,6.449-14.847c3.063-6.563,5.958-12.761,7.623-18.995c3.496-12.969,2.448-27.896-3.392-48.432
				c-1.521-5.403-3.273-10.926-4.968-16.266c-3.937-12.405-8.008-25.232-10.018-38.771c-1.605-10.741-1.593-20.111,0.039-28.633
				c2.021-11,6.778-20.726,13.739-28.035c10.938-11.498,25.484-15.654,35.76-17.115c4.375-0.625,8.951-0.93,13.983-0.93
				c7.224,0,14.423,0.645,21.175,1.303l1.547,0.151c7.273,0.714,14.144,1.388,20.907,1.388c2.727,0,5.209-0.108,7.593-0.335
				c6.789-0.598,16.224-2.541,23.045-8.436c6.74-5.813,10.052-14.581,11.645-20.916c2.006-8.04,2.584-16.574,3.196-25.61
				l0.243-3.544c0.744-10.513,1.887-22.693,6.089-34.245c4.977-13.68,13.756-24.59,24.719-30.722
				c7.302-4.021,15.774-6.128,24.572-6.128c2.856,0,5.745,0.224,8.584,0.664c10.024,1.557,20.079,5.877,29.075,12.495
				c15.532,11.48,25.527,27.411,35.231,44.104c4.019,6.924,8.045,13.974,11.938,20.789c15.305,26.799,31.131,54.51,49.437,79.628
				c8.536,11.631,17.94,23.146,27.035,34.283c8.832,10.814,17.965,21.998,26.509,33.521c27.619,37.147,45.227,72.565,53.819,108.267
				c7.87,33.011,6.228,61.548-4.877,84.843c-8.422,17.633-22.74,32.733-40.32,42.527
				C1239.12,2159.893,1221.043,2164.541,1202.447,2164.541z"/>
			<path d="M1058.242,1702.006c2.26,0,4.519,0.177,6.743,0.521c8.632,1.34,16.8,5.149,23.804,10.303
				c13.946,10.31,23.287,25.535,31.969,40.47c19.888,34.264,38.655,69.351,62.052,101.452
				c17.059,23.246,36.418,44.711,53.602,67.886c23.297,31.335,42.695,66.136,51.792,103.927c6.078,25.494,7.233,53.215-4.043,76.871
				c-7.46,15.617-20.063,28.703-35.329,37.208c-14.01,7.896-30.229,11.897-46.385,11.897c-1.37,0-2.737-0.028-4.104-0.086
				c-27.567-1.107-53.077-13.459-79.364-21.713c-46.619-14.529-96.384-16.283-144.166-26.7
				c-20.112-4.354-39.979-10.326-60.299-13.573c-9.024-1.45-18.154-2.381-26.791-5.202c-8.638-2.821-16.923-7.787-21.658-15.43
				c-3.278-5.392-4.605-11.772-4.447-18.095c0.161-6.258,1.742-12.454,3.916-18.418c4.415-11.805,11.186-22.814,14.426-34.95
				c4.838-17.945,1.641-36.937-3.441-54.809c-5.015-17.811-11.941-35.21-14.658-53.516c-1.215-8.127-1.603-16.485-0.045-24.614
				c1.492-8.123,4.929-16.016,10.644-22.016c7.374-7.752,18.003-11.982,28.759-13.512c4.077-0.582,8.184-0.811,12.295-0.811
				c6.67,0,13.362,0.599,20.01,1.246c7.84,0.767,15.752,1.596,23.619,1.596c2.916,0,5.824-0.113,8.721-0.388
				c10.781-0.95,21.646-4.289,29.764-11.303c8.055-6.946,12.879-16.899,15.436-27.07c2.555-10.235,3.033-20.762,3.772-31.234
				c0.739-10.475,1.794-21.09,5.396-30.987c3.601-9.896,10.002-19.151,19.299-24.351
				C1045.218,1703.474,1051.731,1702.006,1058.242,1702.006 M1058.242,1678.006L1058.242,1678.006
				c-10.816,0.001-21.291,2.621-30.292,7.578c-0.047,0.025-0.092,0.052-0.137,0.076c-13.476,7.535-24.179,20.708-30.14,37.092
				c-4.731,13.009-5.981,26.179-6.782,37.503c-0.084,1.192-0.164,2.385-0.246,3.577c-0.574,8.489-1.117,16.51-2.871,23.537
				c-1.645,6.538-4.426,11.775-7.823,14.706c-3.45,2.98-9.195,4.953-16.196,5.57c-0.05,0.004-0.1,0.009-0.148,0.014
				c-2.006,0.189-4.12,0.281-6.465,0.281c-6.179,0-12.765-0.646-19.736-1.33l-1.553-0.151c-7.047-0.688-14.576-1.359-22.341-1.359
				c-5.605,0-10.737,0.344-15.688,1.051c-17.423,2.479-32.212,9.646-42.755,20.729c-8.545,8.972-14.372,20.773-16.842,34.126
				c-1.875,9.849-1.909,20.511-0.104,32.592c2.147,14.465,6.366,27.759,10.446,40.614c1.742,5.487,3.387,10.673,4.847,15.856
				c0.005,0.021,0.011,0.04,0.017,0.061c5.211,18.325,6.245,31.277,3.354,41.997c-0.005,0.02-0.01,0.038-0.017,0.057
				c-1.392,5.214-4.067,10.946-6.9,17.015c-2.314,4.959-4.709,10.088-6.816,15.72c-0.023,0.063-0.048,0.129-0.072,0.193
				c-3.394,9.317-5.146,17.826-5.356,26.015c-0.285,11.402,2.458,22.181,7.935,31.184c0.034,0.059,0.069,0.114,0.104,0.171
				c7.267,11.726,19.231,20.577,34.604,25.602c8.72,2.849,17.328,4.123,24.925,5.247c1.917,0.283,3.727,0.552,5.513,0.839
				c11.782,1.883,23.523,4.789,35.957,7.866c7.495,1.854,15.245,3.772,23.075,5.468c20.102,4.383,40.467,7.284,60.162,10.09
				c28.771,4.101,55.948,7.972,81.903,16.058c6.568,2.063,13.12,4.412,20.058,6.898c20.477,7.341,41.651,14.932,65.519,15.891
				c1.648,0.069,3.369,0.105,5.067,0.105c20.625,0,40.71-5.168,58.092-14.946c19.722-10.995,35.802-27.975,45.278-47.813
				c12.322-25.853,14.249-57.063,5.732-92.782c-0.005-0.017-0.009-0.033-0.013-0.05c-8.979-37.306-27.253-74.146-55.864-112.63
				c-8.693-11.725-17.916-23.019-26.836-33.939c-9.402-11.515-18.285-22.391-26.652-33.791
				c-17.903-24.571-32.86-50.759-48.693-78.48c-3.902-6.835-7.939-13.902-11.975-20.854c-9.958-17.126-21.121-34.904-38.46-47.721
				c-0.015-0.011-0.028-0.021-0.043-0.032c-10.543-7.757-22.421-12.836-34.347-14.687
				C1065.221,1678.278,1061.713,1678.006,1058.242,1678.006L1058.242,1678.006z"/>
		</g>
		<g id="foot_left_layer_2_2_">
			<path fill="#FFFFFF" d="M2193.576,2232.84c-19.384,0-38.584-5.881-54.066-16.559c-20.935-14.464-36.346-38.037-45.812-70.07
				c-10.178-34.716-12.517-73.582-7.154-118.845c1.643-14.007,3.952-28.023,6.188-41.58c2.302-13.954,4.681-28.383,6.267-42.52
				c3.302-30.354,3.223-61.746,3.146-92.106c-0.02-7.718-0.039-15.697-0.004-23.561c0.102-19.024,0.822-37.534,8.449-54.947
				c4.454-10.107,10.935-18.747,18.749-25.006c9.112-7.301,20.123-11.43,31.001-11.625l0.609-0.004
				c12.226,0,24.916,5.021,35.733,14.141c9.27,7.814,16.222,17.657,22.013,26.271l1.942,2.903c4.944,7.4,9.615,14.392,15.271,20.269
				c4.429,4.589,11.517,10.421,20.054,12.064c1.675,0.323,3.437,0.487,5.249,0.487c5.604,0,11.956-1.568,18.37-4.537
				c8.187-3.729,15.782-9.142,23.823-14.872l1.252-0.892c9.529-6.785,18.984-13.234,29.855-17.571
				c8.262-3.302,16.505-4.977,24.495-4.977c5.056,0,9.943,0.689,14.525,2.054c9.549,2.833,18.403,8.818,25.601,17.308
				c5.521,6.415,10.133,14.419,14.043,24.402c4.921,12.536,7.734,25.479,10.456,37.996c1.171,5.385,2.382,10.953,3.725,16.276
				c5.08,20.373,11.485,33.594,20.775,42.896c4.483,4.512,9.98,8.375,15.802,12.466c4.222,2.968,8.588,6.036,12.793,9.518
				c0.024,0.021,0.051,0.043,0.075,0.064c6.488,5.464,11.357,10.936,14.886,16.729c4.668,7.677,7.024,16.027,6.819,24.159
				c-0.364,10.891-5.202,21.75-13.997,31.505c-5.382,5.972-11.418,10.737-17.256,15.348c-1.475,1.164-2.948,2.328-4.407,3.51
				c-9.499,7.682-18.262,16.077-27.539,24.966c-5.425,5.199-11.034,10.574-16.758,15.743
				c-14.697,13.313-30.478,25.633-45.735,37.547c-22.926,17.9-44.58,34.81-63.398,55.122c-4.736,5.136-9.462,10.687-14.031,16.056
				c-13.305,15.631-27.063,31.793-45.446,43.357c-16.597,10.484-36.188,16.352-55.146,16.508
				C2194.426,2232.836,2193.999,2232.84,2193.576,2232.84z"/>
			<path d="M2160.948,1748.019c10.333-0.001,20.178,4.722,28,11.315c7.921,6.679,14.022,15.217,19.787,23.789
				c5.763,8.573,11.328,17.316,18.522,24.797c7.165,7.424,16.157,13.551,26.435,15.528c2.481,0.48,4.997,0.704,7.518,0.704
				c7.997,0,16.062-2.246,23.409-5.646c9.635-4.39,18.343-10.72,26.995-16.878c8.652-6.16,17.477-12.267,27.344-16.202
				c6.381-2.55,13.267-4.122,20.049-4.122c3.769,0,7.502,0.484,11.104,1.556c7.815,2.318,14.613,7.365,19.869,13.565
				c5.309,6.169,9.073,13.49,12.021,21.019c6.651,16.945,9.269,35.184,13.718,52.831c4.424,17.737,11,35.503,23.923,48.441
				c8.71,8.765,19.881,14.839,29.431,22.746c4.775,4.021,9.162,8.531,12.366,13.792c3.231,5.314,5.229,11.41,5.071,17.614
				c-0.295,8.84-4.93,17.135-10.914,23.772c-5.984,6.64-13.316,11.907-20.304,17.566c-15.741,12.728-29.762,27.559-44.786,41.127
				c-35.656,32.3-77.246,58.181-109.895,93.42c-18.38,19.922-34.091,42.959-57.064,57.411c-14.564,9.2-31.694,14.522-48.854,14.664
				c-0.371,0.006-0.746,0.009-1.117,0.009c-16.814,0-33.539-4.979-47.253-14.438c-21.211-14.653-33.81-38.866-41.115-63.593
				c-10.759-36.694-11.265-75.886-6.746-114.032c3.304-28.188,9.301-55.985,12.461-84.174c4.228-38.85,3.043-77.977,3.219-116.95
				c0.09-16.994,0.597-34.56,7.44-50.187c3.449-7.829,8.55-15.081,15.259-20.453c6.705-5.373,15.106-8.84,23.715-8.994
				C2160.685,1748.019,2160.817,1748.019,2160.948,1748.019 M2160.949,1724.019c-0.007,0-0.017,0-0.022,0
				c-0.217,0-0.437,0.001-0.652,0.004c-0.051,0-0.101,0.001-0.15,0.002c-13.518,0.242-27.116,5.308-38.291,14.261
				c-9.313,7.456-16.995,17.661-22.214,29.508c-0.007,0.016-0.015,0.03-0.021,0.047c-8.539,19.494-9.354,40.176-9.458,59.688
				c-0.035,7.924-0.016,15.927,0.004,23.665c0.079,31.397,0.153,61.058-3.076,90.771c-1.551,13.816-3.797,27.444-6.176,41.871
				c-2.258,13.692-4.592,27.852-6.268,42.151c-5.553,46.871-3.083,87.304,7.552,123.577c0.005,0.018,0.009,0.033,0.015,0.05
				c10.264,34.729,27.25,60.48,50.49,76.537c17.482,12.058,39.104,18.689,60.895,18.689c0.459,0,0.918-0.003,1.377-0.009
				c21.448-0.188,42.686-6.541,61.414-18.373c19.902-12.521,34.267-29.396,48.156-45.715c4.699-5.521,9.139-10.736,13.729-15.713
				c18.129-19.568,39.413-36.188,61.946-53.781c15.43-12.048,31.385-24.504,46.42-38.125c5.828-5.264,11.504-10.701,16.991-15.961
				c9.091-8.709,17.675-16.936,26.771-24.291c1.398-1.133,2.813-2.248,4.309-3.431c5.939-4.688,12.671-10.005,18.732-16.729
				c10.713-11.886,16.616-25.385,17.073-39.039c0.002-0.065,0.004-0.132,0.007-0.198c0.264-10.438-2.696-21.051-8.56-30.689
				c-4.223-6.934-9.916-13.365-17.412-19.68c-0.051-0.043-0.103-0.086-0.154-0.128c-4.568-3.784-9.133-6.991-13.545-10.093
				c-5.375-3.777-10.45-7.346-14.168-11.085c-0.014-0.015-0.027-0.029-0.043-0.043c-7.666-7.676-13.1-19.176-17.614-37.288
				c-0.005-0.021-0.011-0.041-0.017-0.063c-1.294-5.133-2.431-10.358-3.634-15.893c-2.821-12.979-5.739-26.398-11.015-39.839
				c-4.392-11.212-9.664-20.324-16.112-27.836c-8.7-10.238-19.519-17.495-31.295-20.988c-5.675-1.688-11.714-2.547-17.929-2.547
				c-9.522,0-19.266,1.963-28.955,5.836c-12.096,4.825-22.208,11.711-32.357,18.938l-1.255,0.894
				c-7.558,5.386-14.696,10.474-21.769,13.694c-0.044,0.02-0.087,0.039-0.13,0.06c-4.847,2.242-9.456,3.429-13.331,3.429
				c-1.049,0-2.044-0.091-2.957-0.268c-4.279-0.824-9.146-3.889-13.726-8.634c-4.89-5.082-9.271-11.644-13.913-18.588
				c-0.652-0.979-1.306-1.954-1.962-2.931c-6.243-9.289-13.78-19.936-24.233-28.75
				C2191.438,1730.043,2176.001,1724.019,2160.949,1724.019L2160.949,1724.019z"/>
		</g>
	</g>
</g>
<g id="Layer_2_1_">
</g>
</svg>
