<?xml version="1.0" encoding="UTF-8" standalone="no"?><!DOCTYPE svg PUBLIC "-//W3C//DTD SVG 1.1//EN" "http://www.w3.org/Graphics/SVG/1.1/DTD/svg11.dtd"><svg width="100%" height="100%" viewBox="0 0 130 125" version="1.1" xmlns="http://www.w3.org/2000/svg" xmlns:xlink="http://www.w3.org/1999/xlink" xml:space="preserve" xmlns:serif="http://www.serif.com/" style="fill-rule:evenodd;clip-rule:evenodd;stroke-linecap:round;stroke-linejoin:round;stroke-miterlimit:2.07317;"><rect id="cloudy-gusts" x="4.041" y="0" width="125" height="125" style="fill:none;"/><path d="M24.615,66.082c1.049,-4.961 4.033,-9.211 8.124,-11.923c3.009,-1.994 6.617,-3.156 10.493,-3.156c0,-10.502 8.527,-19.028 19.029,-19.028c10.502,-0 19.028,8.526 19.028,19.028l8.561,-0c10.502,-0 19.029,8.526 19.029,19.028c-0,10.502 -8.527,19.029 -19.029,19.029c0,-0 -2.985,-0 -2.985,-0" style="fill:none;stroke:#010001;stroke-width:4.17px;"/><path d="M73.468,89.06l-30.236,-0c-3.4,-0 -6.592,-0.894 -9.356,-2.459" style="fill:none;stroke:#010001;stroke-width:4.17px;"/><g><path d="M21.191,80.773l49.416,0" style="fill:none;stroke:#010001;stroke-width:4.17px;stroke-linejoin:miter;stroke-miterlimit:1.25;"/><path d="M70.607,80.773c12.879,0 12.879,16.573 -0,16.573" style="fill:none;stroke:#010001;stroke-width:4.17px;stroke-linejoin:miter;stroke-miterlimit:1.25;"/></g><g><path d="M11.216,72.603l49.416,0" style="fill:none;stroke:#010001;stroke-width:4.17px;stroke-linejoin:miter;stroke-miterlimit:1.25;"/><path d="M60.632,56.03c12.878,-0 12.878,16.573 -0,16.573" style="fill:none;stroke:#010001;stroke-width:4.17px;stroke-linejoin:miter;stroke-miterlimit:1.25;"/></g></svg>