<?xml version="1.0" encoding="UTF-8" standalone="no"?><!DOCTYPE svg PUBLIC "-//W3C//DTD SVG 1.1//EN" "http://www.w3.org/Graphics/SVG/1.1/DTD/svg11.dtd"><svg width="100%" height="100%" viewBox="0 0 130 125" version="1.1" xmlns="http://www.w3.org/2000/svg" xmlns:xlink="http://www.w3.org/1999/xlink" xml:space="preserve" xmlns:serif="http://www.serif.com/" style="fill-rule:evenodd;clip-rule:evenodd;stroke-linejoin:round;stroke-miterlimit:2;"><rect id="cloudy" x="3.796" y="0" width="125" height="125" style="fill:none;"/><path d="M40.997,50.995c-10.72,1.004 -19.122,10.038 -19.122,21.019c0,11.652 9.46,21.112 21.112,21.112c0,-0 46.618,-0 46.618,-0c11.652,-0 21.112,-9.46 21.112,-21.112c0,-11.652 -9.46,-21.112 -21.112,-21.112c0,0 -6.579,0 -6.579,0c-1.048,-10.675 -10.061,-19.028 -21.01,-19.028c-10.981,0 -20.015,8.402 -21.019,19.121Zm1.99,4.074c1.151,0 2.084,-0.933 2.084,-2.083c-0,-9.352 7.592,-16.945 16.945,-16.945c9.352,-0 16.945,7.593 16.945,16.945c-0,1.15 0.933,2.083 2.083,2.083l8.561,0c9.353,0 16.945,7.593 16.945,16.945c0,9.352 -7.592,16.945 -16.945,16.945l-46.618,0c-9.352,0 -16.945,-7.593 -16.945,-16.945c0,-9.352 7.593,-16.945 16.945,-16.945Zm21.782,-24.434c1.429,-1.867 3.329,-3.355 5.522,-4.285c1.633,-0.693 3.43,-1.076 5.315,-1.076c7.528,0 13.64,6.112 13.64,13.641c0,1.15 0.933,2.083 2.083,2.083l7.075,0c7.528,0 13.64,6.112 13.64,13.64c-0,2.483 -0.664,4.812 -1.826,6.818c-0.576,0.995 -0.236,2.271 0.759,2.847c0.995,0.576 2.271,0.236 2.847,-0.759c1.517,-2.621 2.387,-5.662 2.387,-8.906c-0,-9.828 -7.979,-17.807 -17.807,-17.807l-5.112,0c-1.033,-8.847 -8.563,-15.723 -17.686,-15.723c-2.462,-0 -4.809,0.501 -6.942,1.406c-2.861,1.214 -5.34,3.153 -7.204,5.588c-0.699,0.913 -0.525,2.222 0.388,2.921c0.913,0.699 2.222,0.525 2.921,-0.388Z"/></svg>