<?xml version="1.0" encoding="UTF-8" standalone="no"?><!DOCTYPE svg PUBLIC "-//W3C//DTD SVG 1.1//EN" "http://www.w3.org/Graphics/SVG/1.1/DTD/svg11.dtd"><svg width="100%" height="100%" viewBox="0 0 130 125" version="1.1" xmlns="http://www.w3.org/2000/svg" xmlns:xlink="http://www.w3.org/1999/xlink" xml:space="preserve" xmlns:serif="http://www.serif.com/" style="fill-rule:evenodd;clip-rule:evenodd;stroke-linejoin:round;stroke-miterlimit:2;"><rect id="cloudy-gusts" x="4.041" y="0" width="125" height="125" style="fill:none;"/><path d="M21.191,82.857l49.416,-0c4.954,-0 7.576,3.015 7.576,6.203c-0,3.188 -2.622,6.203 -7.576,6.203c-1.15,0 -2.083,0.934 -2.083,2.083c-0,1.15 0.933,2.084 2.083,2.084c7.926,-0 11.742,-5.27 11.742,-10.37c0,-5.1 -3.816,-10.37 -11.742,-10.37l-49.416,-0c-1.149,-0 -2.083,0.933 -2.083,2.083c-0,1.15 0.934,2.084 2.083,2.084Zm12.825,1.665l-0.101,-0.004c-0.739,-0.013 -1.462,0.369 -1.852,1.057c-0.566,1 -0.214,2.273 0.787,2.839c3.066,1.737 6.609,2.729 10.382,2.729l30.236,0c1.15,0 2.084,-0.933 2.084,-2.083c-0,-1.15 -0.934,-2.084 -2.084,-2.084l-30.236,0c-3.026,0 -5.869,-0.794 -8.329,-2.187c-0.282,-0.16 -0.585,-0.247 -0.887,-0.267Zm-7.363,-18.009c0.934,-4.418 3.594,-8.203 7.237,-10.617c2.679,-1.776 5.891,-2.81 9.342,-2.81c1.151,0 2.084,-0.932 2.084,-2.083c-0,-9.352 7.592,-16.945 16.945,-16.945c9.352,-0 16.945,7.593 16.945,16.945c-0,1.151 0.933,2.083 2.083,2.083l8.561,0c9.353,0 16.945,7.593 16.945,16.945c0,9.353 -7.592,16.945 -16.945,16.945l-2.985,0c-1.15,0 -2.084,0.934 -2.084,2.084c0,1.15 0.934,2.083 2.084,2.083l2.985,0c11.652,0 21.112,-9.46 21.112,-21.112c0,-11.651 -9.46,-21.111 -21.112,-21.111l-6.579,-0c-1.048,-10.676 -10.061,-19.029 -21.01,-19.029c-10.981,0 -20.015,8.402 -21.019,19.122c-3.545,0.332 -6.836,1.542 -9.654,3.409c-4.539,3.009 -7.848,7.726 -9.011,13.229c-0.238,1.125 0.482,2.232 1.607,2.47c1.125,0.237 2.231,-0.483 2.469,-1.608Zm-15.437,8.173l49.416,0c7.926,0 11.742,-5.269 11.742,-10.37c-0,-5.1 -3.816,-10.37 -11.742,-10.37c-1.15,0 -2.084,0.934 -2.084,2.084c0,1.15 0.934,2.083 2.084,2.083c4.954,0 7.575,3.016 7.575,6.203c0,3.188 -2.621,6.204 -7.575,6.204l-49.416,-0c-1.15,-0 -2.083,0.933 -2.083,2.083c-0,1.15 0.933,2.083 2.083,2.083Z" style="fill:#010001;"/></svg>