<?xml version="1.0" encoding="UTF-8" standalone="no"?><!DOCTYPE svg PUBLIC "-//W3C//DTD SVG 1.1//EN" "http://www.w3.org/Graphics/SVG/1.1/DTD/svg11.dtd"><svg width="100%" height="100%" viewBox="0 0 130 125" version="1.1" xmlns="http://www.w3.org/2000/svg" xmlns:xlink="http://www.w3.org/1999/xlink" xml:space="preserve" xmlns:serif="http://www.serif.com/" style="fill-rule:evenodd;clip-rule:evenodd;stroke-linejoin:round;stroke-miterlimit:2;"><rect id="dust" x="3.804" y="0" width="125" height="125" style="fill:none;"/><path d="M65.408,76.982l24.998,0c1.15,0 2.084,-0.933 2.084,-2.083c-0,-1.15 -0.934,-2.083 -2.084,-2.083l-24.998,-0c-1.15,-0 -2.083,0.933 -2.083,2.083c-0,1.15 0.933,2.083 2.083,2.083Zm-24.702,-4.159c1.146,0 2.076,0.93 2.076,2.076c-0,1.145 -0.93,2.075 -2.076,2.075c-1.145,0 -2.075,-0.93 -2.075,-2.075c-0,-1.146 0.93,-2.076 2.075,-2.076Zm16.47,0c1.146,0 2.076,0.93 2.076,2.076c-0,1.145 -0.93,2.075 -2.076,2.075c-1.145,0 -2.075,-0.93 -2.075,-2.075c-0,-1.146 0.93,-2.076 2.075,-2.076Zm41.405,0c1.146,0 2.076,0.93 2.076,2.076c-0,1.145 -0.93,2.075 -2.076,2.075c-1.145,0 -2.075,-0.93 -2.075,-2.075c-0,-1.146 0.93,-2.076 2.075,-2.076Zm-66.856,-4.151l24.998,-0c1.15,-0 2.083,-0.934 2.083,-2.084c0,-1.149 -0.933,-2.083 -2.083,-2.083l-24.998,0c-1.15,0 -2.084,0.934 -2.084,2.083c0,1.15 0.934,2.084 2.084,2.084Zm33.522,-4.159c1.146,-0 2.076,0.93 2.076,2.075c-0,1.146 -0.93,2.076 -2.076,2.076c-1.145,-0 -2.075,-0.93 -2.075,-2.076c-0,-1.145 0.93,-2.075 2.075,-2.075Zm10.551,-0c1.145,-0 2.075,0.93 2.075,2.075c0,1.146 -0.93,2.076 -2.075,2.076c-1.146,-0 -2.075,-0.93 -2.075,-2.076c-0,-1.145 0.929,-2.075 2.075,-2.075Zm10.424,-0c1.145,-0 2.075,0.93 2.075,2.075c0,1.146 -0.93,2.076 -2.075,2.076c-1.146,-0 -2.076,-0.93 -2.076,-2.076c0,-1.145 0.93,-2.075 2.076,-2.075Zm-68.846,-4.056l24.999,-0c1.149,-0 2.083,-0.934 2.083,-2.084c-0,-1.149 -0.934,-2.083 -2.083,-2.083l-24.999,-0c-1.15,-0 -2.083,0.934 -2.083,2.083c-0,1.15 0.933,2.084 2.083,2.084Zm41.423,-0l24.998,-0c1.15,-0 2.083,-0.934 2.083,-2.084c0,-1.149 -0.933,-2.083 -2.083,-2.083l-24.998,-0c-1.15,-0 -2.084,0.934 -2.084,2.083c0,1.15 0.934,2.084 2.084,2.084Zm31.434,-0l24.999,-0c1.149,-0 2.083,-0.934 2.083,-2.084c-0,-1.149 -0.934,-2.083 -2.083,-2.083l-24.999,-0c-1.15,-0 -2.083,0.934 -2.083,2.083c-0,1.15 0.933,2.084 2.083,2.084Zm-39.643,-4.159c1.146,-0 2.076,0.93 2.076,2.075c-0,1.146 -0.93,2.076 -2.076,2.076c-1.145,-0 -2.075,-0.93 -2.075,-2.076c-0,-1.145 0.93,-2.075 2.075,-2.075Zm-24.998,-4.114l24.998,0c1.15,0 2.083,-0.933 2.083,-2.083c0,-1.15 -0.933,-2.083 -2.083,-2.083l-24.998,-0c-1.15,-0 -2.084,0.933 -2.084,2.083c0,1.15 0.934,2.083 2.084,2.083Zm41.731,0l24.998,0c1.15,0 2.084,-0.933 2.084,-2.083c-0,-1.15 -0.934,-2.083 -2.084,-2.083l-24.998,-0c-1.15,-0 -2.084,0.933 -2.084,2.083c0,1.15 0.934,2.083 2.084,2.083Zm-8.524,-4.158c1.145,-0 2.075,0.93 2.075,2.075c0,1.146 -0.93,2.076 -2.075,2.076c-1.146,-0 -2.076,-0.93 -2.076,-2.076c0,-1.145 0.93,-2.075 2.076,-2.075Zm41.858,-0c1.145,-0 2.075,0.93 2.075,2.075c0,1.146 -0.93,2.076 -2.075,2.076c-1.146,-0 -2.076,-0.93 -2.076,-2.076c0,-1.145 0.93,-2.075 2.076,-2.075Z" style="fill:#010001;"/></svg>