<?xml version="1.0" encoding="UTF-8" standalone="no"?><!DOCTYPE svg PUBLIC "-//W3C//DTD SVG 1.1//EN" "http://www.w3.org/Graphics/SVG/1.1/DTD/svg11.dtd"><svg width="100%" height="100%" viewBox="0 0 130 125" version="1.1" xmlns="http://www.w3.org/2000/svg" xmlns:xlink="http://www.w3.org/1999/xlink" xml:space="preserve" xmlns:serif="http://www.serif.com/" style="fill-rule:evenodd;clip-rule:evenodd;stroke-linecap:round;stroke-miterlimit:1.25;"><rect id="dust" x="3.804" y="0" width="125" height="125" style="fill:none;"/><g><path d="M65.408,74.899l24.998,-0" style="fill:none;stroke:#010001;stroke-width:4.17px;"/></g><g><path d="M31.725,66.588l24.998,0" style="fill:none;stroke:#010001;stroke-width:4.17px;"/></g><g><path d="M58.799,58.373l24.998,0" style="fill:none;stroke:#010001;stroke-width:4.17px;"/></g><g><path d="M90.233,58.373l24.999,0" style="fill:none;stroke:#010001;stroke-width:4.17px;"/></g><g><path d="M17.376,58.373l24.999,0" style="fill:none;stroke:#010001;stroke-width:4.17px;"/></g><g><path d="M25.592,50.101l24.998,0" style="fill:none;stroke:#010001;stroke-width:4.17px;"/></g><g><path d="M67.323,50.101l24.998,0" style="fill:none;stroke:#010001;stroke-width:4.17px;"/></g><circle cx="58.799" cy="50.101" r="2.075" style="fill:#010001;"/><circle cx="50.59" cy="58.373" r="2.075" style="fill:#010001;"/><circle cx="65.247" cy="66.588" r="2.075" style="fill:#010001;"/><circle cx="40.706" cy="74.899" r="2.075" style="fill:#010001;"/><circle cx="57.176" cy="74.899" r="2.075" style="fill:#010001;"/><circle cx="98.581" cy="74.899" r="2.075" style="fill:#010001;"/><circle cx="75.798" cy="66.588" r="2.075" style="fill:#010001;"/><circle cx="86.222" cy="66.588" r="2.075" style="fill:#010001;"/><circle cx="100.657" cy="50.101" r="2.075" style="fill:#010001;"/></svg>