<?xml version="1.0" encoding="UTF-8" standalone="no"?><!DOCTYPE svg PUBLIC "-//W3C//DTD SVG 1.1//EN" "http://www.w3.org/Graphics/SVG/1.1/DTD/svg11.dtd"><svg width="100%" height="100%" viewBox="0 0 130 125" version="1.1" xmlns="http://www.w3.org/2000/svg" xmlns:xlink="http://www.w3.org/1999/xlink" xml:space="preserve" xmlns:serif="http://www.serif.com/" style="fill-rule:evenodd;clip-rule:evenodd;stroke-linejoin:round;stroke-miterlimit:2;"><rect id="fog" x="3.946" y="0.007" width="125" height="125" style="fill:none;"/><path d="M32.929,91.15l77.683,-0c1.15,-0 2.084,-0.934 2.084,-2.083c-0,-1.15 -0.934,-2.084 -2.084,-2.084l-77.683,0c-1.149,0 -2.083,0.934 -2.083,2.084c0,1.149 0.934,2.083 2.083,2.083Zm-13.231,-8.287l77.683,0c1.149,0 2.083,-0.933 2.083,-2.083c-0,-1.15 -0.934,-2.083 -2.083,-2.083l-77.683,-0c-1.15,-0 -2.084,0.933 -2.084,2.083c0,1.15 0.934,2.083 2.084,2.083Zm7.894,-8.389l77.683,-0c1.149,-0 2.083,-0.934 2.083,-2.084c-0,-1.149 -0.934,-2.083 -2.083,-2.083l-77.683,0c-1.15,0 -2.084,0.934 -2.084,2.083c0,1.15 0.934,2.084 2.084,2.084Zm-1.034,-7.954c0.934,-4.418 3.593,-8.203 7.237,-10.618c2.679,-1.775 5.891,-2.809 9.342,-2.809c1.151,0 2.083,-0.933 2.083,-2.083c0,-9.353 7.593,-16.945 16.945,-16.945c9.353,-0 16.945,7.592 16.945,16.945c0,1.15 0.933,2.083 2.084,2.083l8.561,0c8.109,0 14.895,5.707 16.556,13.321c0.245,1.123 1.356,1.836 2.48,1.591c1.123,-0.245 1.836,-1.356 1.591,-2.48c-2.069,-9.486 -10.524,-16.599 -20.627,-16.599c0,0 -6.58,0 -6.58,0c-1.047,-10.675 -10.061,-19.028 -21.01,-19.028c-10.98,-0 -20.014,8.401 -21.019,19.121c-3.544,0.332 -6.835,1.542 -9.653,3.41c-4.539,3.009 -7.848,7.725 -9.012,13.229c-0.237,1.125 0.483,2.232 1.608,2.469c1.125,0.238 2.231,-0.482 2.469,-1.607Z"/></svg>