<?xml version="1.0" encoding="UTF-8" standalone="no"?><!DOCTYPE svg PUBLIC "-//W3C//DTD SVG 1.1//EN" "http://www.w3.org/Graphics/SVG/1.1/DTD/svg11.dtd"><svg width="100%" height="100%" viewBox="0 0 130 125" version="1.1" xmlns="http://www.w3.org/2000/svg" xmlns:xlink="http://www.w3.org/1999/xlink" xml:space="preserve" xmlns:serif="http://www.serif.com/" style="fill-rule:evenodd;clip-rule:evenodd;stroke-linejoin:round;stroke-miterlimit:2;"><rect id="hurricane-warning" x="3.886" y="0.007" width="125" height="125" style="fill:none;"/><path d="M42.891,101.348l0,-77.683c0,-1.15 -0.933,-2.083 -2.083,-2.083c-1.15,-0 -2.084,0.933 -2.084,2.083l0,77.683c0,1.15 0.934,2.084 2.084,2.084c1.15,-0 2.083,-0.934 2.083,-2.084Zm53.345,-8.605l-0,-35.096l-51.85,0l0,35.096l51.85,0Zm-8.542,-26.554l0,18.013c0,-0 -34.766,-0 -34.766,-0c-0,-0 -0,-18.013 -0,-18.013l34.766,-0Zm8.542,-9.983l-0,-34.434l-51.85,-0l0,34.434l51.85,0Zm-8.542,-25.893l0,17.351c0,0.001 -34.766,0.001 -34.766,0.001c-0,-0.001 -0,-17.352 -0,-17.352l34.766,0Z"/></svg>