<?xml version="1.0" encoding="UTF-8" standalone="no"?><!DOCTYPE svg PUBLIC "-//W3C//DTD SVG 1.1//EN" "http://www.w3.org/Graphics/SVG/1.1/DTD/svg11.dtd"><svg width="100%" height="100%" viewBox="0 0 130 130" version="1.1" xmlns="http://www.w3.org/2000/svg" xmlns:xlink="http://www.w3.org/1999/xlink" xml:space="preserve" xmlns:serif="http://www.serif.com/" style="fill-rule:evenodd;clip-rule:evenodd;stroke-linejoin:round;stroke-miterlimit:2;"><rect id="smog" x="2.478" y="0.999" width="125" height="125" style="fill:none;"/><path d="M36.827,72.391c-8.16,-2.144 -14.186,-9.577 -14.186,-18.406c-0,-10.502 8.526,-19.028 19.028,-19.028c0,-10.502 8.527,-19.029 19.029,-19.029c10.502,0 19.028,8.527 19.028,19.029l8.561,-0c10.503,-0 19.029,8.526 19.029,19.028c-0,9.728 -7.316,17.761 -16.743,18.892l0.001,0.137c0,1.05 -0.085,2.08 -0.249,3.086c0.083,-0.005 0.166,-0.007 0.249,-0.007c2.519,0 4.564,2.045 4.564,4.564c-0,2.518 -2.045,4.563 -4.564,4.563c-1.315,0 -2.501,-0.557 -3.334,-1.449c-2.119,3.085 -5.124,5.514 -8.646,6.921c0.775,0.941 1.366,2.04 1.716,3.241c0.801,-0.696 1.846,-1.117 2.989,-1.117c2.519,0 4.564,2.045 4.564,4.564c-0,2.519 -2.045,4.563 -4.564,4.563c-1.391,0 -2.638,-0.624 -3.476,-1.607c-0.859,1.844 -2.317,3.354 -4.123,4.28c0.263,0.576 0.409,1.217 0.409,1.891c0,2.519 -2.044,4.563 -4.563,4.563c-2.519,0 -4.564,-2.044 -4.564,-4.563c0,-0.674 0.147,-1.315 0.41,-1.891c-2.952,-1.513 -4.973,-4.586 -4.973,-8.128c-0,-2.2 0.78,-4.22 2.078,-5.796c-4.659,-1.862 -8.412,-5.512 -10.408,-10.099c-0.518,0.042 -1.042,0.064 -1.572,0.064c-6.509,-0 -12.259,-3.276 -15.69,-8.266Z"/></svg>