<?xml version="1.0" encoding="UTF-8" standalone="no"?><!DOCTYPE svg PUBLIC "-//W3C//DTD SVG 1.1//EN" "http://www.w3.org/Graphics/SVG/1.1/DTD/svg11.dtd"><svg width="100%" height="100%" viewBox="0 0 130 130" version="1.1" xmlns="http://www.w3.org/2000/svg" xmlns:xlink="http://www.w3.org/1999/xlink" xml:space="preserve" xmlns:serif="http://www.serif.com/" style="fill-rule:evenodd;clip-rule:evenodd;stroke-linejoin:round;stroke-miterlimit:2;"><rect id="sunset" x="0.478" y="0.663" width="125" height="125" style="fill:none;"/><g><path d="M25.941,61.222l-0.059,-0.002l-0.006,0.005c-1.002,0.061 -1.039,0.861 -0.808,1.662c-0.231,0.8 -0.194,1.601 0.808,1.662l0.006,0.005l0.059,-0.002l0.063,0.002l12.11,-0c0.919,-0 1.666,-0.747 1.666,-1.667c0,-0.92 -0.747,-1.667 -1.666,-1.667l-12.11,0l-0.063,0.002Z" style="fill:#010001;"/><path d="M87.029,62.887c-0.232,0.8 -0.194,1.601 0.807,1.662l0.006,0.005l0.059,-0.002l0.063,0.002l12.11,-0c0.92,-0 1.666,-0.747 1.666,-1.667c0,-0.92 -0.746,-1.667 -1.666,-1.667l-12.11,0l-0.063,0.002l-0.059,-0.002l-0.006,0.005c-1.002,0.061 -1.039,0.861 -0.807,1.662Z" style="fill:#010001;"/></g><g><path d="M61.313,37.964l-0.002,0.058l0.005,0.006c0.061,1.003 0.861,1.04 1.662,0.808c0.8,0.232 1.601,0.194 1.662,-0.808l0.005,-0.006l-0.002,-0.058l0.002,-0.064l-0,-12.109c-0,-0.92 -0.747,-1.667 -1.667,-1.667c-0.92,0 -1.667,0.747 -1.667,1.667l0,12.109l0.002,0.064Z" style="fill:#010001;"/></g><g><path d="M88.037,35.477l-0.007,0.001l-0.041,0.042l-0.045,0.044l-8.563,8.563c-0.65,0.65 -0.65,1.706 0,2.357c0.651,0.65 1.707,0.65 2.357,-0l8.563,-8.563l0.043,-0.046l0.043,-0.04l0.001,-0.007c0.666,-0.752 0.126,-1.345 -0.604,-1.747c-0.402,-0.73 -0.995,-1.269 -1.747,-0.604Z" style="fill:#010001;"/></g><g><path d="M44.177,46.441l0.041,0.043l0.007,0.001c0.752,0.665 1.344,0.125 1.747,-0.604c0.729,-0.403 1.269,-0.995 0.604,-1.747l-0.001,-0.007l-0.043,-0.041l-0.044,-0.046l-8.562,-8.562c-0.651,-0.651 -1.707,-0.651 -2.357,-0c-0.651,0.65 -0.651,1.706 -0,2.357l8.562,8.562l0.046,0.044Z" style="fill:#010001;"/></g><path d="M84.884,79.832l-16.869,0l-5.002,4.337c-0,-0 -4.758,-4.337 -4.758,-4.337l-17.183,0c-1.15,0 -2.084,0.934 -2.084,2.083c0,1.15 0.934,2.084 2.084,2.084l15.569,-0c-0,-0 6.302,5.745 6.302,5.745l6.627,-5.745c-0,-0 15.314,-0 15.314,-0c1.15,-0 2.083,-0.934 2.083,-2.084c0,-1.149 -0.933,-2.083 -2.083,-2.083Z"/><path d="M53.297,76.29l-3.82,0c-3.416,-3.441 -5.528,-8.177 -5.528,-13.403c0,-10.502 8.527,-19.029 19.029,-19.029c10.502,0 19.028,8.527 19.028,19.029c0,5.226 -2.111,9.962 -5.527,13.403l-3.821,0c4.152,-3.005 6.855,-7.891 6.855,-13.403c0,-9.126 -7.409,-16.536 -16.535,-16.536c-9.126,0 -16.536,7.41 -16.536,16.536c0,5.512 2.703,10.398 6.855,13.403Z"/></svg>