<?xml version="1.0" encoding="UTF-8" standalone="no"?><!DOCTYPE svg PUBLIC "-//W3C//DTD SVG 1.1//EN" "http://www.w3.org/Graphics/SVG/1.1/DTD/svg11.dtd"><svg width="100%" height="100%" viewBox="0 0 125 130" version="1.1" xmlns="http://www.w3.org/2000/svg" xmlns:xlink="http://www.w3.org/1999/xlink" xml:space="preserve" xmlns:serif="http://www.serif.com/" style="fill-rule:evenodd;clip-rule:evenodd;stroke-linecap:round;stroke-miterlimit:1.25;"><rect id="wind-beufort-4" x="0" y="0.398" width="125" height="125" style="fill:none;"/><g><g><path d="M37.95,54.233l49.416,-0" style="fill:none;stroke:#010001;stroke-width:4.17px;"/><path d="M87.366,54.233c12.879,-0 12.879,16.573 -0,16.573" style="fill:none;stroke:#010001;stroke-width:4.17px;"/></g><g><path d="M27.975,46.063l49.416,-0" style="fill:none;stroke:#010001;stroke-width:4.17px;"/><path d="M77.391,29.489c12.878,0 12.878,16.574 -0,16.574" style="fill:none;stroke:#010001;stroke-width:4.17px;"/></g></g><path d="M77.85,87.93l-6.073,-0l0,8.04l-6.859,-0l-0,-8.04l-17.993,-0l0,-4.836l11.808,-22.21l7.703,0l-11.358,20.917l9.84,-0l-0,-8.097l6.859,0l0,8.097l6.073,-0l-0,6.129Z" style="fill-rule:nonzero;"/></svg>