<?xml version="1.0" encoding="UTF-8" standalone="no"?><!DOCTYPE svg PUBLIC "-//W3C//DTD SVG 1.1//EN" "http://www.w3.org/Graphics/SVG/1.1/DTD/svg11.dtd"><svg width="100%" height="100%" viewBox="0 0 130 130" version="1.1" xmlns="http://www.w3.org/2000/svg" xmlns:xlink="http://www.w3.org/1999/xlink" xml:space="preserve" xmlns:serif="http://www.serif.com/" style="fill-rule:evenodd;clip-rule:evenodd;stroke-linecap:round;stroke-miterlimit:1.25;"><rect id="wind-beufort-12" x="4.132" y="0.466" width="125" height="125" style="fill:none;"/><g><g><path d="M42.083,54.301l49.415,-0" style="fill:none;stroke:#010001;stroke-width:4.17px;"/><path d="M91.498,54.301c12.879,-0 12.879,16.573 0,16.573" style="fill:none;stroke:#010001;stroke-width:4.17px;"/></g><g><path d="M32.107,46.13l49.416,0" style="fill:none;stroke:#010001;stroke-width:4.17px;"/><path d="M81.523,29.557c12.879,0 12.879,16.573 0,16.573" style="fill:none;stroke:#010001;stroke-width:4.17px;"/></g></g><g><path d="M60.478,90.359l-0,5.679l-24.121,-0l-0,-5.679l9.446,-0l-0,-22.547l-9.446,2.98l-0,-5.96l12.257,-3.88l4.217,0l0,29.407l7.647,-0Z" style="fill-rule:nonzero;"/><path d="M72.802,89.853l15.35,-0l0,6.185l-25.19,-0l0,-5.623l12.089,-9.671c2.212,-1.762 3.777,-3.28 4.695,-4.554c0.919,-1.275 1.378,-2.662 1.378,-4.161c-0,-1.574 -0.488,-2.783 -1.462,-3.627c-0.975,-0.843 -2.362,-1.265 -4.161,-1.265c-2.361,0 -3.983,0.497 -4.864,1.49c-0.88,0.993 -1.321,2.409 -1.321,4.245l0,0.563l-7.028,-0l-0,-0.788c-0,-3.973 1.143,-6.972 3.43,-8.996c2.286,-2.024 5.679,-3.036 10.177,-3.036c3.823,-0 6.897,0.956 9.221,2.867c2.324,1.912 3.486,4.592 3.486,8.041c-0,2.474 -0.665,4.657 -1.996,6.55c-1.331,1.893 -3.383,3.889 -6.157,5.988l-7.647,5.792Z" style="fill-rule:nonzero;"/></g></svg>