<?xml version="1.0" encoding="UTF-8" standalone="no"?><!DOCTYPE svg PUBLIC "-//W3C//DTD SVG 1.1//EN" "http://www.w3.org/Graphics/SVG/1.1/DTD/svg11.dtd"><svg width="100%" height="100%" viewBox="0 0 130 130" version="1.1" xmlns="http://www.w3.org/2000/svg" xmlns:xlink="http://www.w3.org/1999/xlink" xml:space="preserve" xmlns:serif="http://www.serif.com/" style="fill-rule:evenodd;clip-rule:evenodd;stroke-linejoin:round;stroke-miterlimit:2;"><rect id="na" x="4.091" y="4.097" width="125" height="125" style="fill:none;"/><g><path d="M51.873,46.428l-0,40.73l-7.311,0l-20.822,-27.022l0,27.022l-7.702,0l0,-40.73l7.311,0l20.821,27.48l0,-27.48l7.703,0Z" style="fill-rule:nonzero;"/><path d="M72.76,46.037l7.18,-0l-14.23,41.121l-7.18,0l14.23,-41.121Z" style="fill-rule:nonzero;"/><path d="M105.396,78.738l-16.645,0l-3.263,8.42l-8.029,0l16.645,-40.73l6.396,0l16.645,40.73l-8.551,0l-3.198,-8.42Zm-2.676,-7.049l-5.483,-14.556l-0.131,0l-5.613,14.556l11.227,-0Z" style="fill-rule:nonzero;"/></g></svg>