<?xml version="1.0" encoding="UTF-8" standalone="no"?><!DOCTYPE svg PUBLIC "-//W3C//DTD SVG 1.1//EN" "http://www.w3.org/Graphics/SVG/1.1/DTD/svg11.dtd"><svg width="100%" height="100%" viewBox="0 0 130 130" version="1.1" xmlns="http://www.w3.org/2000/svg" xmlns:xlink="http://www.w3.org/1999/xlink" xml:space="preserve" xmlns:serif="http://www.serif.com/" style="fill-rule:evenodd;clip-rule:evenodd;stroke-linejoin:round;stroke-miterlimit:2;"><rect id="pin" x="4.041" y="4.097" width="125" height="125" style="fill:none;"/><path d="M65.482,46.7c-4.629,-0.526 -8.232,-4.461 -8.232,-9.231c0,-5.128 4.164,-9.291 9.291,-9.291c5.128,0 9.291,4.163 9.291,9.291c0,4.77 -3.602,8.705 -8.232,9.231l0,51.804c0,0.366 -0.032,0.732 -0.096,1.092c-0.261,1.47 -0.963,5.421 -0.963,5.421c0,-0 -0.701,-3.951 -0.962,-5.421c-0.064,-0.36 -0.097,-0.726 -0.097,-1.092l0,-51.804Zm3.643,-16.43c-0.103,-0.027 -0.212,-0.011 -0.303,0.044c-0.09,0.055 -0.155,0.145 -0.178,0.249c-0.115,0.503 -0.311,1.379 -0.423,1.882c-0.044,0.206 0.081,0.41 0.285,0.464c1.27,0.303 1.837,0.82 2.299,2.045c0.074,0.184 0.272,0.283 0.463,0.232c0.495,-0.128 1.397,-0.368 1.916,-0.506c0.106,-0.027 0.197,-0.097 0.249,-0.194c0.052,-0.096 0.062,-0.21 0.027,-0.314c-0.66,-1.876 -1.958,-3.283 -4.335,-3.902Z"/></svg>