<?xml version="1.0" encoding="UTF-8" standalone="no"?><!DOCTYPE svg PUBLIC "-//W3C//DTD SVG 1.1//EN" "http://www.w3.org/Graphics/SVG/1.1/DTD/svg11.dtd"><svg width="100%" height="100%" viewBox="0 0 130 130" version="1.1" xmlns="http://www.w3.org/2000/svg" xmlns:xlink="http://www.w3.org/1999/xlink" xml:space="preserve" xmlns:serif="http://www.serif.com/" style="fill-rule:evenodd;clip-rule:evenodd;stroke-linejoin:round;stroke-miterlimit:2;"><rect id="smog" x="2.478" y="0.999" width="125" height="125" style="fill:none;"/><path d="M76.101,106.228c0.006,0.092 0.008,0.185 0.008,0.279c0,2.519 -2.044,4.563 -4.563,4.563c-2.519,0 -4.564,-2.044 -4.564,-4.563c0,-0.674 0.147,-1.315 0.41,-1.891c-2.952,-1.513 -4.973,-4.586 -4.973,-8.128c-0,-2.2 0.78,-4.22 2.078,-5.796c-4.659,-1.862 -8.412,-5.512 -10.408,-10.099c-0.518,0.042 -1.042,0.064 -1.572,0.064c-6.509,-0 -12.259,-3.276 -15.69,-8.266c-8.16,-2.144 -14.186,-9.577 -14.186,-18.406c-0,-10.502 8.526,-19.028 19.028,-19.028c0,-10.502 8.527,-19.029 19.029,-19.029c10.502,0 19.028,8.527 19.028,19.029l8.561,-0c10.503,-0 19.029,8.526 19.029,19.028c-0,6.364 -3.131,12.003 -7.935,15.458c0.85,1.041 1.36,2.371 1.36,3.819c-0,3.257 -2.581,5.916 -5.808,6.041c0.133,0.428 0.205,0.882 0.205,1.354c-0,2.383 -1.831,4.342 -4.162,4.546c0.223,0.722 0.343,1.49 0.343,2.286c0,3.106 -1.83,5.788 -4.47,7.024c0.634,0.784 1.014,1.782 1.014,2.867c-0,2.519 -2.045,4.563 -4.564,4.563c-0.441,0 -0.868,-0.062 -1.272,-0.18c-0.696,2.571 -3.047,4.465 -5.837,4.465c-0.03,0 -0.06,0 -0.089,-0Z"/></svg>