<?xml version="1.0" encoding="UTF-8" standalone="no"?><!DOCTYPE svg PUBLIC "-//W3C//DTD SVG 1.1//EN" "http://www.w3.org/Graphics/SVG/1.1/DTD/svg11.dtd"><svg width="100%" height="100%" viewBox="0 0 125 130" version="1.1" xmlns="http://www.w3.org/2000/svg" xmlns:xlink="http://www.w3.org/1999/xlink" xml:space="preserve" xmlns:serif="http://www.serif.com/" style="fill-rule:evenodd;clip-rule:evenodd;stroke-linejoin:round;stroke-miterlimit:2;"><rect id="smoke" x="0" y="0.852" width="125" height="125" style="fill-opacity:0;"/><path d="M73.623,106.08c0.005,0.093 0.008,0.186 0.008,0.28c-0,2.518 -2.045,4.563 -4.564,4.563c-2.518,0 -4.563,-2.045 -4.563,-4.563c-0,-0.675 0.146,-1.315 0.409,-1.891c-2.951,-1.513 -4.973,-4.586 -4.973,-8.128c0,-2.2 0.781,-4.22 2.079,-5.796c-4.659,-1.862 -8.412,-5.512 -10.408,-10.1c-0.518,0.043 -1.043,0.064 -1.572,0.064c-6.509,0 -12.259,-3.275 -15.69,-8.266c-8.16,-2.143 -14.186,-9.576 -14.186,-18.405c-0,-10.502 8.526,-19.028 19.028,-19.028c-0,-10.502 8.526,-19.029 19.028,-19.029c10.502,0 19.029,8.527 19.029,19.029l8.561,-0c10.502,-0 19.028,8.526 19.028,19.028c0,6.364 -3.131,12.003 -7.935,15.458c0.85,1.041 1.36,2.371 1.36,3.819c0,3.257 -2.581,5.916 -5.807,6.041c0.133,0.428 0.204,0.882 0.204,1.353c0,2.384 -1.83,4.343 -4.161,4.546c0.223,0.723 0.343,1.491 0.343,2.287c0,3.106 -1.83,5.788 -4.47,7.024c0.634,0.784 1.013,1.781 1.013,2.867c0,2.518 -2.044,4.563 -4.563,4.563c-0.442,0 -0.869,-0.063 -1.273,-0.18c-0.696,2.571 -3.047,4.465 -5.837,4.465c-0.029,0 -0.059,-0 -0.088,-0.001Zm-31.591,-68.151c-0.17,-0.944 -0.259,-1.917 -0.259,-2.91c0,-9.072 7.398,-16.438 16.511,-16.438c9.112,0 16.51,7.366 16.51,16.438c0,0.901 -0.073,1.786 -0.214,2.648l11.229,0c8.911,0 16.145,7.203 16.145,16.074c0,8.871 -7.234,16.074 -16.145,16.074c-0.444,-0 -0.883,-0.018 -1.317,-0.053c0.179,0.944 0.272,1.916 0.272,2.911c0,8.63 -7.038,15.637 -15.707,15.637c-7.229,0 -13.323,-4.871 -15.149,-11.494c-1.062,0.223 -2.164,0.34 -3.293,0.34c-5.692,0 -10.687,-2.985 -13.478,-7.462c-7.977,-0.973 -14.162,-7.75 -14.162,-15.953c-0,-8.871 7.234,-16.074 16.145,-16.074c0.994,0 1.968,0.09 2.912,0.262Z"/><path d="M55.265,61.686c-2.224,-0 -4.24,-0.904 -5.699,-2.363c-1.459,-1.459 -2.362,-3.474 -2.362,-5.699c-0,-2.224 0.903,-4.239 2.362,-5.699c1.459,-1.459 3.475,-2.362 5.699,-2.362c0.92,-0 1.667,-0.747 1.667,-1.667c-0,-0.92 -0.747,-1.666 -1.667,-1.666c-3.144,-0 -5.993,1.276 -8.056,3.338c-2.062,2.063 -3.339,4.912 -3.339,8.056c0,3.145 1.277,5.994 3.339,8.056c2.063,2.063 4.912,3.339 8.056,3.339c0.92,-0 1.667,-0.747 1.667,-1.667c-0,-0.92 -0.747,-1.666 -1.667,-1.666Zm16.32,-12.907c1.344,0 2.56,0.56 3.438,1.46c0.877,0.899 1.417,2.137 1.417,3.502c0,1.365 -0.54,2.603 -1.417,3.502c-0.878,0.9 -2.094,1.46 -3.438,1.46c-0.862,-0 -1.562,0.7 -1.562,1.562c-0,0.863 0.7,1.563 1.562,1.563c2.218,-0 4.226,-0.918 5.675,-2.402c1.424,-1.46 2.305,-3.469 2.305,-5.685c0,-2.216 -0.881,-4.225 -2.305,-5.684c-1.449,-1.485 -3.457,-2.403 -5.675,-2.403c-0.862,0 -1.562,0.7 -1.562,1.563c-0,0.862 0.7,1.562 1.562,1.562Z"/></svg>