<?xml version="1.0" encoding="UTF-8" standalone="no"?><!DOCTYPE svg PUBLIC "-//W3C//DTD SVG 1.1//EN" "http://www.w3.org/Graphics/SVG/1.1/DTD/svg11.dtd"><svg width="100%" height="100%" viewBox="0 0 130 130" version="1.1" xmlns="http://www.w3.org/2000/svg" xmlns:xlink="http://www.w3.org/1999/xlink" xml:space="preserve" xmlns:serif="http://www.serif.com/" style="fill-rule:evenodd;clip-rule:evenodd;stroke-linejoin:round;stroke-miterlimit:2;"><rect id="snowflake-cold" x="0.3" y="0.852" width="125" height="125" style="fill:none;"/><g><g><path d="M85.253,61.686l-47.007,-0l-0.004,0.001c-1.134,0.023 -1.18,0.844 -0.92,1.665c-0.26,0.821 -0.213,1.642 0.92,1.666l0.004,0.001l47.007,-0c0.92,-0 1.667,-0.747 1.667,-1.667c-0,-0.92 -0.747,-1.666 -1.667,-1.666Z"/><circle cx="32.639" cy="63.352" r="1.654"/><path d=""/><circle cx="92.961" cy="63.352" r="1.654"/><path d=""/></g><g><path d="M61.133,40.899l0,47.007l0.001,0.004c0.023,1.133 0.844,1.18 1.666,0.92c0.821,0.26 1.642,0.213 1.665,-0.92l0.001,-0.004l0,-47.007c0,-0.92 -0.746,-1.667 -1.666,-1.667c-0.92,0 -1.667,0.747 -1.667,1.667Z"/><path d="M61.145,93.513c0,-0.913 0.742,-1.654 1.655,-1.654c0.913,-0 1.654,0.741 1.654,1.654c0,0.913 -0.741,1.655 -1.654,1.655c-0.913,-0 -1.655,-0.742 -1.655,-1.655Z"/><path d=""/><path d="M61.145,33.191c0,-0.913 0.742,-1.654 1.655,-1.654c0.913,-0 1.654,0.741 1.654,1.654c0,0.913 -0.741,1.655 -1.654,1.655c-0.913,-0 -1.655,-0.742 -1.655,-1.655Z"/><path d=""/></g><g><path d="M45.744,48.654l33.239,33.239l0.004,0.002c0.818,0.785 1.431,0.237 1.828,-0.527c0.765,-0.397 1.312,-1.011 0.527,-1.829l-0.002,-0.003l-33.239,-33.239c-0.65,-0.651 -1.706,-0.651 -2.357,-0c-0.65,0.65 -0.65,1.706 0,2.357Z"/><path d="M82.957,85.849c-0.646,-0.646 -0.646,-1.694 -0,-2.34c0.646,-0.645 1.694,-0.645 2.34,0c0.645,0.646 0.645,1.694 -0,2.34c-0.646,0.646 -1.694,0.646 -2.34,0Z"/><path d=""/><path d="M40.303,43.195c-0.646,-0.646 -0.646,-1.694 -0,-2.34c0.646,-0.645 1.694,-0.645 2.339,0c0.646,0.646 0.646,1.694 0,2.34c-0.645,0.646 -1.693,0.646 -2.339,-0Z"/><path d=""/></g><g><path d="M77.498,46.297l-33.239,33.239l-0.002,0.003c-0.785,0.818 -0.237,1.432 0.527,1.828c0.397,0.765 1.01,1.313 1.828,0.528l0.004,-0.002l33.239,-33.239c0.651,-0.651 0.651,-1.707 0,-2.357c-0.65,-0.651 -1.706,-0.651 -2.357,-0Z"/><path d="M40.303,83.509c0.646,-0.645 1.694,-0.645 2.339,0c0.646,0.646 0.646,1.694 0,2.34c-0.645,0.646 -1.693,0.646 -2.339,0c-0.646,-0.646 -0.646,-1.694 -0,-2.34Z"/><path d=""/><path d="M82.957,40.855c0.646,-0.645 1.694,-0.645 2.34,0c0.645,0.646 0.645,1.694 -0,2.34c-0.646,0.646 -1.694,0.646 -2.34,-0c-0.646,-0.646 -0.646,-1.694 -0,-2.34Z"/><path d=""/></g></g></svg>