<?xml version="1.0" encoding="UTF-8" standalone="no"?><!DOCTYPE svg PUBLIC "-//W3C//DTD SVG 1.1//EN" "http://www.w3.org/Graphics/SVG/1.1/DTD/svg11.dtd"><svg width="100%" height="100%" viewBox="0 0 130 130" version="1.1" xmlns="http://www.w3.org/2000/svg" xmlns:xlink="http://www.w3.org/1999/xlink" xml:space="preserve" xmlns:serif="http://www.serif.com/" style="fill-rule:evenodd;clip-rule:evenodd;stroke-linecap:round;stroke-linejoin:round;stroke-miterlimit:2.07317;"><rect id="snow-wind" x="0.176" y="0.852" width="125" height="125" style="fill:none;"/><circle cx="40.254" cy="98.982" r="2.081"/><path d="M40.254,96.901c1.149,0 2.081,0.933 2.081,2.081c0,1.149 -0.932,2.081 -2.081,2.081c-1.148,0 -2.081,-0.932 -2.081,-2.081c0,-1.148 0.933,-2.081 2.081,-2.081Zm0,3.334c-0.345,-0 -0.659,-0.14 -0.885,-0.367c-0.227,-0.227 -0.367,-0.54 -0.367,-0.886c0,-0.345 0.14,-0.659 0.367,-0.885c0.226,-0.227 0.54,-0.367 0.885,-0.367c0.346,0 0.659,0.14 0.886,0.367c0.227,0.226 0.367,0.54 0.367,0.885c-0,0.346 -0.14,0.659 -0.367,0.886c-0.227,0.227 -0.54,0.367 -0.886,0.367Z"/><circle cx="49.074" cy="109.493" r="2.081"/><path d="M49.074,107.412c1.149,-0 2.081,0.932 2.081,2.081c0,1.149 -0.932,2.081 -2.081,2.081c-1.149,0 -2.081,-0.932 -2.081,-2.081c-0,-1.149 0.932,-2.081 2.081,-2.081Zm0,3.333c-0.346,0 -0.659,-0.14 -0.886,-0.366c-0.226,-0.227 -0.366,-0.54 -0.366,-0.886c-0,-0.346 0.14,-0.659 0.366,-0.886c0.227,-0.226 0.54,-0.366 0.886,-0.366c0.346,-0 0.659,0.14 0.886,0.366c0.226,0.227 0.366,0.54 0.366,0.886c0,0.346 -0.14,0.659 -0.366,0.886c-0.227,0.226 -0.54,0.366 -0.886,0.366Z"/><circle cx="65.568" cy="105.331" r="2.081"/><path d="M65.568,103.25c1.149,-0 2.081,0.932 2.081,2.081c0,1.148 -0.932,2.081 -2.081,2.081c-1.148,-0 -2.081,-0.933 -2.081,-2.081c0,-1.149 0.933,-2.081 2.081,-2.081Zm0,3.333c-0.345,0 -0.659,-0.14 -0.885,-0.366c-0.227,-0.227 -0.367,-0.541 -0.367,-0.886c0,-0.346 0.14,-0.659 0.367,-0.886c0.226,-0.227 0.54,-0.366 0.885,-0.366c0.346,-0 0.659,0.139 0.886,0.366c0.227,0.227 0.367,0.54 0.367,0.886c-0,0.345 -0.14,0.659 -0.367,0.886c-0.227,0.226 -0.54,0.366 -0.886,0.366Z"/><circle cx="45.845" cy="83.959" r="2.081"/><path d="M45.845,81.878c1.149,0 2.081,0.933 2.081,2.081c0,1.149 -0.932,2.081 -2.081,2.081c-1.149,0 -2.081,-0.932 -2.081,-2.081c-0,-1.148 0.932,-2.081 2.081,-2.081Zm0,3.334c-0.346,-0 -0.659,-0.14 -0.886,-0.367c-0.226,-0.227 -0.366,-0.54 -0.366,-0.886c-0,-0.345 0.14,-0.659 0.366,-0.885c0.227,-0.227 0.54,-0.367 0.886,-0.367c0.346,0 0.659,0.14 0.886,0.367c0.227,0.226 0.366,0.54 0.366,0.885c0,0.346 -0.139,0.659 -0.366,0.886c-0.227,0.227 -0.54,0.367 -0.886,0.367Z"/><circle cx="55.679" cy="94.82" r="2.081"/><path d="M55.679,92.739c1.148,0 2.081,0.933 2.081,2.081c-0,1.149 -0.933,2.081 -2.081,2.081c-1.149,0 -2.081,-0.932 -2.081,-2.081c-0,-1.148 0.932,-2.081 2.081,-2.081Zm-0,3.333c-0.346,0 -0.659,-0.139 -0.886,-0.366c-0.227,-0.227 -0.366,-0.54 -0.366,-0.886c-0,-0.346 0.139,-0.659 0.366,-0.886c0.227,-0.226 0.54,-0.366 0.886,-0.366c0.345,-0 0.659,0.14 0.886,0.366c0.226,0.227 0.366,0.54 0.366,0.886c0,0.346 -0.14,0.659 -0.366,0.886c-0.227,0.227 -0.541,0.366 -0.886,0.366Z"/><circle cx="71.264" cy="90.658" r="2.081"/><path d="M71.264,88.577c1.149,-0 2.081,0.932 2.081,2.081c0,1.149 -0.932,2.081 -2.081,2.081c-1.148,0 -2.081,-0.932 -2.081,-2.081c0,-1.149 0.933,-2.081 2.081,-2.081Zm0,3.333c-0.346,0 -0.659,-0.14 -0.886,-0.366c-0.226,-0.227 -0.366,-0.54 -0.366,-0.886c-0,-0.346 0.14,-0.659 0.366,-0.886c0.227,-0.227 0.54,-0.366 0.886,-0.366c0.346,-0 0.659,0.139 0.886,0.366c0.227,0.227 0.366,0.54 0.366,0.886c0,0.346 -0.139,0.659 -0.366,0.886c-0.227,0.226 -0.54,0.366 -0.886,0.366Z"/><path d="M20.749,53.286c1.049,-4.961 4.033,-9.212 8.124,-11.923c3.009,-1.995 6.617,-3.156 10.493,-3.156c0,-10.502 8.527,-19.029 19.029,-19.029c10.502,0 19.028,8.527 19.028,19.029l8.562,-0c10.502,-0 19.028,8.526 19.028,19.028c0,10.502 -8.526,19.029 -19.028,19.029c-0,-0 -2.986,-0 -2.986,-0" style="fill:none;stroke:#000;stroke-width:4.17px;"/><g><path d="M7.007,67.977l49.416,-0" style="fill:none;stroke:#010001;stroke-width:4.17px;stroke-linejoin:miter;stroke-miterlimit:1.25;"/></g><g><path d="M25.396,76.264l49.415,-0" style="fill:none;stroke:#010001;stroke-width:4.17px;stroke-linejoin:miter;stroke-miterlimit:1.25;"/></g><g><path d="M13.466,59.666l49.415,0" style="fill:none;stroke:#010001;stroke-width:4.17px;stroke-linejoin:miter;stroke-miterlimit:1.25;"/></g></svg>