<?xml version="1.0" encoding="UTF-8" standalone="no"?><!DOCTYPE svg PUBLIC "-//W3C//DTD SVG 1.1//EN" "http://www.w3.org/Graphics/SVG/1.1/DTD/svg11.dtd"><svg width="100%" height="100%" viewBox="0 0 130 130" version="1.1" xmlns="http://www.w3.org/2000/svg" xmlns:xlink="http://www.w3.org/1999/xlink" xml:space="preserve" xmlns:serif="http://www.serif.com/" style="fill-rule:evenodd;clip-rule:evenodd;stroke-linejoin:round;stroke-miterlimit:2;"><rect id="sunrise" x="0.3" y="0.663" width="125" height="125" style="fill:none;"/><g><path d="M25.763,61.498l-0.059,-0.001l-0.006,0.004c-1.002,0.061 -1.04,0.862 -0.808,1.662c-0.231,0.801 -0.194,1.601 0.808,1.663l0.006,0.004l0.059,-0.002l0.063,0.002l12.109,-0c0.92,-0 1.667,-0.747 1.667,-1.667c0,-0.92 -0.747,-1.666 -1.667,-1.666l-12.109,-0l-0.063,0.001Z" style="fill:#010001;"/><path d="M87.723,61.498l-0.059,-0.001l-0.006,0.004c-1.002,0.061 -1.039,0.862 -0.808,1.662c-0.231,0.801 -0.194,1.601 0.808,1.663l0.006,0.004l0.059,-0.002l0.063,0.002l12.11,-0c0.919,-0 1.666,-0.747 1.666,-1.667c0,-0.92 -0.747,-1.666 -1.666,-1.666l-12.11,-0l-0.063,0.001Z" style="fill:#010001;"/></g><g><path d="M61.135,38.24l-0.002,0.059l0.004,0.006c0.062,1.002 0.862,1.039 1.663,0.808c0.8,0.231 1.6,0.194 1.662,-0.808l0.004,-0.006l-0.001,-0.059l0.001,-0.063l0,-12.11c0,-0.92 -0.746,-1.666 -1.666,-1.666c-0.92,-0 -1.667,0.746 -1.667,1.666l0,12.11l0.002,0.063Z" style="fill:#010001;"/></g><g><path d="M87.859,35.753l-0.007,0.001l-0.041,0.043l-0.045,0.043l-8.563,8.563c-0.65,0.65 -0.65,1.707 -0,2.357c0.65,0.65 1.707,0.65 2.357,-0l8.563,-8.563l0.043,-0.045l0.043,-0.041l0.001,-0.007c0.665,-0.752 0.126,-1.345 -0.604,-1.747c-0.402,-0.73 -0.995,-1.269 -1.747,-0.604Z" style="fill:#010001;"/></g><g><path d="M43.999,46.717l0.04,0.043l0.008,0.001c0.752,0.665 1.344,0.126 1.746,-0.604c0.73,-0.402 1.269,-0.995 0.604,-1.747l-0.001,-0.007l-0.042,-0.041l-0.044,-0.045l-8.563,-8.563c-0.65,-0.65 -1.706,-0.65 -2.357,-0c-0.65,0.65 -0.65,1.707 0,2.357l8.563,8.563l0.046,0.043Z" style="fill:#010001;"/></g><path d="M84.706,80.108l-15.248,0c0,0 -6.695,-6.486 -6.695,-6.486l-6.367,6.486c-0,0 -15.503,0 -15.503,0c-1.149,0 -2.083,0.934 -2.083,2.084c0,1.149 0.934,2.083 2.083,2.083l17.251,-0l4.693,-4.78c-0,-0 4.934,4.78 4.934,4.78l16.935,-0c1.15,-0 2.083,-0.934 2.083,-2.083c0,-1.15 -0.933,-2.084 -2.083,-2.084Z"/><path d="M53.119,76.567l-3.821,-0c-3.416,-3.441 -5.527,-8.178 -5.527,-13.404c0,-10.502 8.527,-19.028 19.029,-19.028c10.502,-0 19.028,8.526 19.028,19.028c0,5.226 -2.111,9.963 -5.527,13.404l-3.821,-0c4.152,-3.006 6.855,-7.892 6.855,-13.404c0,-9.126 -7.409,-16.535 -16.535,-16.535c-9.127,-0 -16.536,7.409 -16.536,16.535c0,5.512 2.703,10.398 6.855,13.404Z"/></svg>