<?xml version="1.0" encoding="UTF-8" standalone="no"?><!DOCTYPE svg PUBLIC "-//W3C//DTD SVG 1.1//EN" "http://www.w3.org/Graphics/SVG/1.1/DTD/svg11.dtd"><svg width="100%" height="100%" viewBox="0 0 130 130" version="1.1" xmlns="http://www.w3.org/2000/svg" xmlns:xlink="http://www.w3.org/1999/xlink" xml:space="preserve" xmlns:serif="http://www.serif.com/" style="fill-rule:evenodd;clip-rule:evenodd;stroke-linecap:round;stroke-linejoin:round;stroke-miterlimit:2.2561;"><rect id="thunderstorm" x="0.574" y="0.663" width="125" height="125" style="fill:none;"/><path d="M39.765,75.032c-5.955,-0 -11.275,-2.741 -14.765,-7.03c-2.665,-3.275 -4.264,-7.451 -4.264,-11.999c0,-10.502 8.527,-19.028 19.029,-19.028c-0,-10.502 8.526,-19.028 19.028,-19.028c10.502,-0 19.029,8.526 19.029,19.028l8.561,0c10.502,0 19.028,8.526 19.028,19.028c0,4.548 -1.598,8.724 -4.263,11.999c-3.491,4.289 -8.81,7.03 -14.765,7.03" style="fill:none;stroke:#000;stroke-width:4.17px;"/><g><path d="M53.815,102.104l11.394,-36.31" style="fill:none;stroke:#010001;stroke-width:4.17px;stroke-linejoin:miter;stroke-miterlimit:1.25;"/><path d="M70.313,93.39l8.659,-27.596" style="fill:none;stroke:#010001;stroke-width:4.17px;stroke-linejoin:miter;stroke-miterlimit:1.25;"/></g><path d="M40.525,108.38l3.946,-21.579l-6.8,-0l4.238,-23.178l12.076,0.03l-8.596,18.981l6.679,-0l-11.543,25.746Z" style="fill:#010001;"/><path d="M40.525,108.38l3.946,-21.579l-6.8,-0l4.238,-23.178l12.076,0.03l-8.596,18.981l6.679,-0l-11.543,25.746Zm1.359,-26.085l6.938,-15.322c0,0 -4.135,-0.01 -4.135,-0.01l-2.803,15.332Z"/></svg>