<?xml version="1.0" encoding="UTF-8" standalone="no"?><!DOCTYPE svg PUBLIC "-//W3C//DTD SVG 1.1//EN" "http://www.w3.org/Graphics/SVG/1.1/DTD/svg11.dtd"><svg width="100%" height="100%" viewBox="0 0 125 130" version="1.1" xmlns="http://www.w3.org/2000/svg" xmlns:xlink="http://www.w3.org/1999/xlink" xml:space="preserve" xmlns:serif="http://www.serif.com/" style="fill-rule:evenodd;clip-rule:evenodd;stroke-linejoin:round;stroke-miterlimit:2;"><rect id="trash" x="0" y="4.097" width="125" height="125" style="fill:none;"/><path d="M85.865,43.458l-46.73,-0c0,-0 3.074,37.393 4.156,50.551c0.21,2.55 2.341,4.513 4.9,4.513c7.212,-0 21.228,-0 28.431,-0c2.552,-0 4.679,-1.953 4.898,-4.495c1.129,-13.142 4.345,-50.569 4.345,-50.569Zm-10.804,12.763l-2.487,29.184c-0.098,1.146 0.753,2.155 1.899,2.253c1.146,0.097 2.155,-0.754 2.253,-1.899l2.487,-29.184c0.097,-1.146 -0.754,-2.155 -1.899,-2.253c-1.146,-0.098 -2.155,0.753 -2.253,1.899Zm-14.644,0.177l-0,29.184c-0,1.15 0.933,2.083 2.083,2.083c1.15,0 2.083,-0.933 2.083,-2.083l0,-29.184c0,-1.15 -0.933,-2.083 -2.083,-2.083c-1.15,-0 -2.083,0.933 -2.083,2.083Zm-14.629,0.179l2.521,29.184c0.099,1.146 1.109,1.995 2.255,1.896c1.146,-0.098 1.995,-1.109 1.896,-2.254l-2.521,-29.184c-0.099,-1.146 -1.11,-1.996 -2.255,-1.897c-1.146,0.099 -1.995,1.11 -1.896,2.255Zm10.696,-17.404l2.43,-3.504c0.292,-0.421 0.771,-0.672 1.283,-0.672c1.196,-0 3.41,-0 4.606,-0c0.512,-0 0.991,0.251 1.283,0.672l2.43,3.504l6.681,-0c1.038,-0 2.072,0.126 3.079,0.375c1.699,0.419 4.552,1.124 7.129,1.761c0.345,0.085 0.573,0.415 0.53,0.768c-0.043,0.353 -0.343,0.619 -0.699,0.619c-10.937,0 -34.535,0 -45.472,0c-0.356,0 -0.656,-0.266 -0.699,-0.619c-0.043,-0.353 0.185,-0.683 0.53,-0.768c2.577,-0.637 5.43,-1.342 7.129,-1.761c1.007,-0.249 2.041,-0.375 3.079,-0.375l6.681,-0Zm10.048,-0l-8.064,-0l1.438,-2.074c0.292,-0.42 0.771,-0.671 1.283,-0.671c0.754,-0 1.868,-0 2.622,-0c0.512,-0 0.991,0.251 1.283,0.671l1.438,2.074Z"/></svg>