<?xml version="1.0" encoding="UTF-8" standalone="no"?><!DOCTYPE svg PUBLIC "-//W3C//DTD SVG 1.1//EN" "http://www.w3.org/Graphics/SVG/1.1/DTD/svg11.dtd"><svg width="100%" height="100%" viewBox="0 0 130 130" version="1.1" xmlns="http://www.w3.org/2000/svg" xmlns:xlink="http://www.w3.org/1999/xlink" xml:space="preserve" xmlns:serif="http://www.serif.com/" style="fill-rule:evenodd;clip-rule:evenodd;stroke-linecap:round;stroke-miterlimit:1.25;"><rect id="wind-beufort-6" x="4.132" y="0.398" width="125" height="125" style="fill:none;"/><g><g><path d="M42.083,54.233l49.415,-0" style="fill:none;stroke:#010001;stroke-width:4.17px;"/><path d="M91.498,54.233c12.879,-0 12.879,16.573 0,16.573" style="fill:none;stroke:#010001;stroke-width:4.17px;"/></g><g><path d="M32.107,46.063l49.416,-0" style="fill:none;stroke:#010001;stroke-width:4.17px;"/><path d="M81.523,29.489c12.879,0 12.879,16.574 0,16.574" style="fill:none;stroke:#010001;stroke-width:4.17px;"/></g></g><path d="M67.701,72.58c3.636,-0 6.541,1.049 8.715,3.148c2.174,2.099 3.261,4.873 3.261,8.322c0,3.823 -1.293,6.822 -3.88,8.996c-2.586,2.174 -6.128,3.261 -10.627,3.261c-4.235,0 -7.6,-1.049 -10.092,-3.148c-2.493,-2.1 -3.739,-4.967 -3.739,-8.603c-0,-1.949 0.309,-3.739 0.927,-5.37c0.619,-1.63 1.79,-3.589 3.515,-5.875l9.389,-12.427l7.422,0l-9.333,12.258c1.162,-0.375 2.642,-0.562 4.442,-0.562Zm-2.193,17.486c2.174,0 3.88,-0.515 5.117,-1.546c1.237,-1.031 1.855,-2.465 1.855,-4.301c-0,-1.8 -0.609,-3.205 -1.827,-4.217c-1.219,-1.013 -2.934,-1.519 -5.145,-1.519c-2.174,0 -3.87,0.516 -5.089,1.547c-1.218,1.03 -1.827,2.427 -1.827,4.189c-0,1.874 0.6,3.317 1.799,4.329c1.2,1.012 2.905,1.518 5.117,1.518Z" style="fill-rule:nonzero;"/></svg>