<?xml version="1.0" encoding="UTF-8" standalone="no"?><!DOCTYPE svg PUBLIC "-//W3C//DTD SVG 1.1//EN" "http://www.w3.org/Graphics/SVG/1.1/DTD/svg11.dtd"><svg width="100%" height="100%" viewBox="0 0 130 130" version="1.1" xmlns="http://www.w3.org/2000/svg" xmlns:xlink="http://www.w3.org/1999/xlink" xml:space="preserve" xmlns:serif="http://www.serif.com/" style="fill-rule:evenodd;clip-rule:evenodd;stroke-linecap:round;stroke-miterlimit:1.25;"><rect id="wind-beufort-8" x="4.09" y="0.398" width="125" height="125" style="fill:none;"/><g><g><path d="M42.04,54.233l49.415,-0" style="fill:none;stroke:#010001;stroke-width:4.17px;"/><path d="M91.455,54.233c12.879,-0 12.879,16.573 0,16.573" style="fill:none;stroke:#010001;stroke-width:4.17px;"/></g><g><path d="M32.065,46.063l49.415,-0" style="fill:none;stroke:#010001;stroke-width:4.17px;"/><path d="M81.48,29.489c12.879,0 12.879,16.574 0,16.574" style="fill:none;stroke:#010001;stroke-width:4.17px;"/></g></g><path d="M74.405,77.471c3.674,1.8 5.51,4.517 5.51,8.153c0,3.374 -1.218,5.998 -3.654,7.872c-2.437,1.874 -5.867,2.811 -10.29,2.811c-4.423,0 -7.853,-0.927 -10.289,-2.783c-2.437,-1.855 -3.655,-4.451 -3.655,-7.787c-0,-3.711 1.818,-6.448 5.454,-8.209c-1.387,-0.675 -2.493,-1.659 -3.318,-2.952c-0.824,-1.294 -1.237,-2.727 -1.237,-4.302c0,-2.999 1.172,-5.369 3.515,-7.112c2.342,-1.744 5.519,-2.615 9.53,-2.615c4.011,-0 7.188,0.871 9.531,2.615c2.342,1.743 3.514,4.113 3.514,7.112c-0,1.575 -0.422,3.008 -1.265,4.302c-0.844,1.293 -1.959,2.258 -3.346,2.895Zm-8.434,-10.964c-1.949,0 -3.439,0.356 -4.47,1.068c-1.031,0.713 -1.546,1.743 -1.546,3.093c-0,1.387 0.525,2.427 1.574,3.12c1.05,0.694 2.568,1.041 4.555,1.041c1.911,-0 3.373,-0.356 4.385,-1.069c1.012,-0.712 1.518,-1.743 1.518,-3.092c0,-1.35 -0.515,-2.38 -1.546,-3.093c-1.031,-0.712 -2.521,-1.068 -4.47,-1.068Zm0,23.84c2.099,0 3.739,-0.44 4.92,-1.321c1.181,-0.881 1.771,-2.071 1.771,-3.57c0,-1.462 -0.581,-2.615 -1.743,-3.458c-1.162,-0.844 -2.774,-1.266 -4.835,-1.266c-2.137,0 -3.805,0.422 -5.005,1.266c-1.199,0.843 -1.799,1.996 -1.799,3.458c0,1.499 0.59,2.689 1.771,3.57c1.181,0.881 2.821,1.321 4.92,1.321Z" style="fill-rule:nonzero;"/></svg>