<?xml version="1.0" encoding="UTF-8" standalone="no"?><!DOCTYPE svg PUBLIC "-//W3C//DTD SVG 1.1//EN" "http://www.w3.org/Graphics/SVG/1.1/DTD/svg11.dtd"><svg width="100%" height="100%" viewBox="0 0 125 130" version="1.1" xmlns="http://www.w3.org/2000/svg" xmlns:xlink="http://www.w3.org/1999/xlink" xml:space="preserve" xmlns:serif="http://www.serif.com/" style="fill-rule:evenodd;clip-rule:evenodd;stroke-linecap:round;stroke-miterlimit:1.25;"><rect id="wind-beufort-9" x="0.016" y="0.398" width="125" height="125" style="fill:none;"/><g><g><path d="M37.967,54.233l49.415,-0" style="fill:none;stroke:#010001;stroke-width:4.17px;"/><path d="M87.382,54.233c12.879,-0 12.879,16.573 0,16.573" style="fill:none;stroke:#010001;stroke-width:4.17px;"/></g><g><path d="M27.991,46.063l49.416,-0" style="fill:none;stroke:#010001;stroke-width:4.17px;"/><path d="M77.407,29.489c12.879,0 12.879,16.574 -0,16.574" style="fill:none;stroke:#010001;stroke-width:4.17px;"/></g></g><path d="M61.617,60.547c4.273,-0 7.665,1.05 10.177,3.149c2.511,2.099 3.767,4.948 3.767,8.546c-0,1.912 -0.347,3.758 -1.04,5.539c-0.694,1.78 -1.828,3.701 -3.402,5.763l-9.39,12.426l-7.422,-0l9.334,-12.201c-1.162,0.337 -2.38,0.506 -3.655,0.506c-2.736,-0 -5.107,-0.534 -7.113,-1.603c-2.005,-1.068 -3.495,-2.596 -4.47,-4.582c-0.787,-1.687 -1.18,-3.524 -1.18,-5.51l-0,-0.169c-0,-3.636 1.283,-6.522 3.851,-8.659c2.568,-2.137 6.082,-3.205 10.543,-3.205Zm-0.225,17.824c2.174,-0 3.879,-0.515 5.116,-1.546c1.237,-1.031 1.856,-2.427 1.856,-4.189c-0,-1.874 -0.609,-3.318 -1.827,-4.33c-1.219,-1.012 -2.934,-1.518 -5.145,-1.518c-2.174,0 -3.88,0.516 -5.117,1.546c-1.237,1.031 -1.855,2.446 -1.855,4.246c-0,1.836 0.609,3.261 1.827,4.273c1.218,1.012 2.933,1.518 5.145,1.518Z" style="fill-rule:nonzero;"/></svg>