<?xml version="1.0" encoding="UTF-8" standalone="no"?><!DOCTYPE svg PUBLIC "-//W3C//DTD SVG 1.1//EN" "http://www.w3.org/Graphics/SVG/1.1/DTD/svg11.dtd"><svg width="100%" height="100%" viewBox="0 0 130 130" version="1.1" xmlns="http://www.w3.org/2000/svg" xmlns:xlink="http://www.w3.org/1999/xlink" xml:space="preserve" xmlns:serif="http://www.serif.com/" style="fill-rule:evenodd;clip-rule:evenodd;stroke-linecap:round;stroke-miterlimit:1.25;"><rect id="wind-beufort-2" x="0.329" y="0.592" width="125" height="125" style="fill:none;"/><g><g><path d="M38.28,54.427l49.415,-0" style="fill:none;stroke:#010001;stroke-width:4.17px;"/><path d="M87.695,54.427c12.879,-0 12.879,16.573 0,16.573" style="fill:none;stroke:#010001;stroke-width:4.17px;"/></g><g><path d="M28.304,46.257l49.416,-0" style="fill:none;stroke:#010001;stroke-width:4.17px;"/><path d="M77.72,29.683c12.879,0 12.879,16.574 0,16.574" style="fill:none;stroke:#010001;stroke-width:4.17px;"/></g></g><path d="M58.612,89.979l15.35,0l0,6.185l-25.189,0l-0,-5.623l12.088,-9.671c2.212,-1.761 3.777,-3.28 4.695,-4.554c0.919,-1.275 1.378,-2.661 1.378,-4.161c-0,-1.574 -0.487,-2.783 -1.462,-3.626c-0.975,-0.844 -2.361,-1.266 -4.161,-1.266c-2.361,0 -3.982,0.497 -4.863,1.49c-0.881,0.994 -1.322,2.409 -1.322,4.246l0,0.562l-7.028,-0l-0,-0.787c-0,-3.974 1.143,-6.972 3.43,-8.997c2.286,-2.024 5.679,-3.036 10.177,-3.036c3.823,0 6.897,0.956 9.221,2.868c2.324,1.911 3.486,4.592 3.486,8.04c0,2.474 -0.665,4.658 -1.996,6.551c-1.331,1.893 -3.383,3.889 -6.157,5.988l-7.647,5.791Z" style="fill-rule:nonzero;"/></svg>